<?xml version="1.0" encoding="utf-8" standalone="no"?>
<!DOCTYPE svg PUBLIC "-//W3C//DTD SVG 1.1//EN"
  "http://www.w3.org/Graphics/SVG/1.1/DTD/svg11.dtd">
<svg height="144pt" version="1.1" viewBox="0 0 432 144" width="432pt" xmlns="http://www.w3.org/2000/svg" xmlns:xlink="http://www.w3.org/1999/xlink">
 <metadata>
  <rdf:RDF xmlns:cc="http://creativecommons.org/ns#" xmlns:dc="http://purl.org/dc/elements/1.1/" xmlns:rdf="http://www.w3.org/1999/02/22-rdf-syntax-ns#">
   <cc:Work>
    <dc:type rdf:resource="http://purl.org/dc/dcmitype/StillImage"/>
    <dc:date>2021-05-18T14:05:26.226812</dc:date>
    <dc:format>image/svg+xml</dc:format>
    <dc:creator>
     <cc:Agent>
      <dc:title>Matplotlib v3.4.1, https://matplotlib.org/</dc:title>
     </cc:Agent>
    </dc:creator>
   </cc:Work>
  </rdf:RDF>
 </metadata>
 <defs>
  <style type="text/css">*{stroke-linecap:butt;stroke-linejoin:round;}</style>
 </defs>
 <g id="figure_1">
  <g id="patch_1">
   <path d="M 0 144 
L 432 144 
L 432 0 
L 0 0 
z
" style="fill:none;"/>
  </g>
  <g id="axes_1">
   <g id="patch_2">
    <path d="M 54 126 
L 388.8 126 
L 388.8 17.28 
L 54 17.28 
z
" style="fill:#ffffff;"/>
   </g>
   <g id="matplotlib.axis_1">
    <g id="xtick_1">
     <g id="line2d_1">
      <defs>
       <path d="M 0 0 
L 0 3.5 
" id="m6ea0e0d288" style="stroke:#000000;stroke-width:0.8;"/>
      </defs>
      <g>
       <use style="stroke:#000000;stroke-width:0.8;" x="69.218182" xlink:href="#m6ea0e0d288" y="126"/>
      </g>
     </g>
     <g id="text_1">
      <!-- 0.0 -->
      <g transform="translate(61.266619 140.598437)scale(0.1 -0.1)">
       <defs>
        <path d="M 2034 4250 
Q 1547 4250 1301 3770 
Q 1056 3291 1056 2328 
Q 1056 1369 1301 889 
Q 1547 409 2034 409 
Q 2525 409 2770 889 
Q 3016 1369 3016 2328 
Q 3016 3291 2770 3770 
Q 2525 4250 2034 4250 
z
M 2034 4750 
Q 2819 4750 3233 4129 
Q 3647 3509 3647 2328 
Q 3647 1150 3233 529 
Q 2819 -91 2034 -91 
Q 1250 -91 836 529 
Q 422 1150 422 2328 
Q 422 3509 836 4129 
Q 1250 4750 2034 4750 
z
" id="DejaVuSans-30" transform="scale(0.015625)"/>
        <path d="M 684 794 
L 1344 794 
L 1344 0 
L 684 0 
L 684 794 
z
" id="DejaVuSans-2e" transform="scale(0.015625)"/>
       </defs>
       <use xlink:href="#DejaVuSans-30"/>
       <use x="63.623047" xlink:href="#DejaVuSans-2e"/>
       <use x="95.410156" xlink:href="#DejaVuSans-30"/>
      </g>
     </g>
    </g>
    <g id="xtick_2">
     <g id="line2d_2">
      <g>
       <use style="stroke:#000000;stroke-width:0.8;" x="119.945455" xlink:href="#m6ea0e0d288" y="126"/>
      </g>
     </g>
     <g id="text_2">
      <!-- 0.5 -->
      <g transform="translate(111.993892 140.598437)scale(0.1 -0.1)">
       <defs>
        <path d="M 691 4666 
L 3169 4666 
L 3169 4134 
L 1269 4134 
L 1269 2991 
Q 1406 3038 1543 3061 
Q 1681 3084 1819 3084 
Q 2600 3084 3056 2656 
Q 3513 2228 3513 1497 
Q 3513 744 3044 326 
Q 2575 -91 1722 -91 
Q 1428 -91 1123 -41 
Q 819 9 494 109 
L 494 744 
Q 775 591 1075 516 
Q 1375 441 1709 441 
Q 2250 441 2565 725 
Q 2881 1009 2881 1497 
Q 2881 1984 2565 2268 
Q 2250 2553 1709 2553 
Q 1456 2553 1204 2497 
Q 953 2441 691 2322 
L 691 4666 
z
" id="DejaVuSans-35" transform="scale(0.015625)"/>
       </defs>
       <use xlink:href="#DejaVuSans-30"/>
       <use x="63.623047" xlink:href="#DejaVuSans-2e"/>
       <use x="95.410156" xlink:href="#DejaVuSans-35"/>
      </g>
     </g>
    </g>
    <g id="xtick_3">
     <g id="line2d_3">
      <g>
       <use style="stroke:#000000;stroke-width:0.8;" x="170.672727" xlink:href="#m6ea0e0d288" y="126"/>
      </g>
     </g>
     <g id="text_3">
      <!-- 1.0 -->
      <g transform="translate(162.721165 140.598437)scale(0.1 -0.1)">
       <defs>
        <path d="M 794 531 
L 1825 531 
L 1825 4091 
L 703 3866 
L 703 4441 
L 1819 4666 
L 2450 4666 
L 2450 531 
L 3481 531 
L 3481 0 
L 794 0 
L 794 531 
z
" id="DejaVuSans-31" transform="scale(0.015625)"/>
       </defs>
       <use xlink:href="#DejaVuSans-31"/>
       <use x="63.623047" xlink:href="#DejaVuSans-2e"/>
       <use x="95.410156" xlink:href="#DejaVuSans-30"/>
      </g>
     </g>
    </g>
    <g id="xtick_4">
     <g id="line2d_4">
      <g>
       <use style="stroke:#000000;stroke-width:0.8;" x="221.4" xlink:href="#m6ea0e0d288" y="126"/>
      </g>
     </g>
     <g id="text_4">
      <!-- 1.5 -->
      <g transform="translate(213.448438 140.598437)scale(0.1 -0.1)">
       <use xlink:href="#DejaVuSans-31"/>
       <use x="63.623047" xlink:href="#DejaVuSans-2e"/>
       <use x="95.410156" xlink:href="#DejaVuSans-35"/>
      </g>
     </g>
    </g>
    <g id="xtick_5">
     <g id="line2d_5">
      <g>
       <use style="stroke:#000000;stroke-width:0.8;" x="272.127273" xlink:href="#m6ea0e0d288" y="126"/>
      </g>
     </g>
     <g id="text_5">
      <!-- 2.0 -->
      <g transform="translate(264.17571 140.598437)scale(0.1 -0.1)">
       <defs>
        <path d="M 1228 531 
L 3431 531 
L 3431 0 
L 469 0 
L 469 531 
Q 828 903 1448 1529 
Q 2069 2156 2228 2338 
Q 2531 2678 2651 2914 
Q 2772 3150 2772 3378 
Q 2772 3750 2511 3984 
Q 2250 4219 1831 4219 
Q 1534 4219 1204 4116 
Q 875 4013 500 3803 
L 500 4441 
Q 881 4594 1212 4672 
Q 1544 4750 1819 4750 
Q 2544 4750 2975 4387 
Q 3406 4025 3406 3419 
Q 3406 3131 3298 2873 
Q 3191 2616 2906 2266 
Q 2828 2175 2409 1742 
Q 1991 1309 1228 531 
z
" id="DejaVuSans-32" transform="scale(0.015625)"/>
       </defs>
       <use xlink:href="#DejaVuSans-32"/>
       <use x="63.623047" xlink:href="#DejaVuSans-2e"/>
       <use x="95.410156" xlink:href="#DejaVuSans-30"/>
      </g>
     </g>
    </g>
    <g id="xtick_6">
     <g id="line2d_6">
      <g>
       <use style="stroke:#000000;stroke-width:0.8;" x="322.854545" xlink:href="#m6ea0e0d288" y="126"/>
      </g>
     </g>
     <g id="text_6">
      <!-- 2.5 -->
      <g transform="translate(314.902983 140.598437)scale(0.1 -0.1)">
       <use xlink:href="#DejaVuSans-32"/>
       <use x="63.623047" xlink:href="#DejaVuSans-2e"/>
       <use x="95.410156" xlink:href="#DejaVuSans-35"/>
      </g>
     </g>
    </g>
    <g id="xtick_7">
     <g id="line2d_7">
      <g>
       <use style="stroke:#000000;stroke-width:0.8;" x="373.581818" xlink:href="#m6ea0e0d288" y="126"/>
      </g>
     </g>
     <g id="text_7">
      <!-- 3.0 -->
      <g transform="translate(365.630256 140.598437)scale(0.1 -0.1)">
       <defs>
        <path d="M 2597 2516 
Q 3050 2419 3304 2112 
Q 3559 1806 3559 1356 
Q 3559 666 3084 287 
Q 2609 -91 1734 -91 
Q 1441 -91 1130 -33 
Q 819 25 488 141 
L 488 750 
Q 750 597 1062 519 
Q 1375 441 1716 441 
Q 2309 441 2620 675 
Q 2931 909 2931 1356 
Q 2931 1769 2642 2001 
Q 2353 2234 1838 2234 
L 1294 2234 
L 1294 2753 
L 1863 2753 
Q 2328 2753 2575 2939 
Q 2822 3125 2822 3475 
Q 2822 3834 2567 4026 
Q 2313 4219 1838 4219 
Q 1578 4219 1281 4162 
Q 984 4106 628 3988 
L 628 4550 
Q 988 4650 1302 4700 
Q 1616 4750 1894 4750 
Q 2613 4750 3031 4423 
Q 3450 4097 3450 3541 
Q 3450 3153 3228 2886 
Q 3006 2619 2597 2516 
z
" id="DejaVuSans-33" transform="scale(0.015625)"/>
       </defs>
       <use xlink:href="#DejaVuSans-33"/>
       <use x="63.623047" xlink:href="#DejaVuSans-2e"/>
       <use x="95.410156" xlink:href="#DejaVuSans-30"/>
      </g>
     </g>
    </g>
    <g id="text_8">
     <!-- k -->
     <g transform="translate(218.504688 154.276563)scale(0.1 -0.1)">
      <defs>
       <path d="M 581 4863 
L 1159 4863 
L 1159 1991 
L 2875 3500 
L 3609 3500 
L 1753 1863 
L 3688 0 
L 2938 0 
L 1159 1709 
L 1159 0 
L 581 0 
L 581 4863 
z
" id="DejaVuSans-6b" transform="scale(0.015625)"/>
      </defs>
      <use xlink:href="#DejaVuSans-6b"/>
     </g>
    </g>
   </g>
   <g id="matplotlib.axis_2">
    <g id="ytick_1">
     <g id="line2d_8">
      <defs>
       <path d="M 0 0 
L -3.5 0 
" id="m71ff3ce2f9" style="stroke:#000000;stroke-width:0.8;"/>
      </defs>
      <g>
       <use style="stroke:#000000;stroke-width:0.8;" x="54" xlink:href="#m71ff3ce2f9" y="106.000318"/>
      </g>
     </g>
     <g id="text_9">
      <!-- 0.0 -->
      <g transform="translate(31.096875 109.799537)scale(0.1 -0.1)">
       <use xlink:href="#DejaVuSans-30"/>
       <use x="63.623047" xlink:href="#DejaVuSans-2e"/>
       <use x="95.410156" xlink:href="#DejaVuSans-30"/>
      </g>
     </g>
    </g>
    <g id="ytick_2">
     <g id="line2d_9">
      <g>
       <use style="stroke:#000000;stroke-width:0.8;" x="54" xlink:href="#m71ff3ce2f9" y="72.752798"/>
      </g>
     </g>
     <g id="text_10">
      <!-- 0.5 -->
      <g transform="translate(31.096875 76.552017)scale(0.1 -0.1)">
       <use xlink:href="#DejaVuSans-30"/>
       <use x="63.623047" xlink:href="#DejaVuSans-2e"/>
       <use x="95.410156" xlink:href="#DejaVuSans-35"/>
      </g>
     </g>
    </g>
    <g id="ytick_3">
     <g id="line2d_10">
      <g>
       <use style="stroke:#000000;stroke-width:0.8;" x="54" xlink:href="#m71ff3ce2f9" y="39.505279"/>
      </g>
     </g>
     <g id="text_11">
      <!-- 1.0 -->
      <g transform="translate(31.096875 43.304497)scale(0.1 -0.1)">
       <use xlink:href="#DejaVuSans-31"/>
       <use x="63.623047" xlink:href="#DejaVuSans-2e"/>
       <use x="95.410156" xlink:href="#DejaVuSans-30"/>
      </g>
     </g>
    </g>
    <g id="text_12">
     <!-- $\Re(\lambda_{max})$ -->
     <g transform="translate(25.017187 90.34)rotate(-90)scale(0.1 -0.1)">
      <defs>
       <path d="M 4006 -91 
Q 3750 481 3750 978 
Q 3750 1416 3681 1700 
Q 3556 2219 3309 2219 
Q 3178 2219 2891 2084 
L 2516 1909 
L 2516 1288 
Q 2516 644 2194 275 
Q 1872 -91 1434 -91 
Q 994 -91 675 275 
Q 353 644 353 1194 
Q 494 1156 638 1119 
Q 638 738 838 469 
Q 1038 197 1263 197 
Q 1488 197 1684 469 
Q 1884 741 1884 1209 
L 1884 3294 
Q 1884 3759 1684 4034 
Q 1488 4306 1200 4306 
Q 947 4306 744 4034 
Q 544 3766 544 3450 
Q 544 3134 744 2866 
Q 944 2594 1203 2594 
L 1372 2306 
Q 900 2306 581 2672 
Q 259 3041 259 3528 
Q 259 4019 581 4384 
Q 900 4750 1372 4750 
Q 1878 4750 2194 4384 
Q 2288 4275 2338 4175 
L 2997 4481 
Q 3581 4753 3931 4753 
Q 4078 4753 4191 4709 
Q 4584 4556 4584 4003 
Q 4584 3731 4381 3347 
Q 4175 2959 3784 2666 
Q 3966 2666 4119 2513 
Q 4231 2400 4316 2075 
Q 4416 1691 4416 1281 
Q 4416 881 4556 513 
L 5006 722 
L 5138 438 
L 4006 -91 
z
M 2450 3897 
Q 2516 3663 2516 3375 
L 2516 2241 
L 2997 2463 
Q 3447 2672 3688 2997 
Q 3919 3316 3919 3694 
Q 3919 4166 3688 4266 
Q 3613 4297 3516 4297 
Q 3316 4297 2997 4150 
L 2450 3897 
z
" id="DejaVuSans-Oblique-211c" transform="scale(0.015625)"/>
       <path d="M 1984 4856 
Q 1566 4138 1362 3434 
Q 1159 2731 1159 2009 
Q 1159 1288 1364 580 
Q 1569 -128 1984 -844 
L 1484 -844 
Q 1016 -109 783 600 
Q 550 1309 550 2009 
Q 550 2706 781 3412 
Q 1013 4119 1484 4856 
L 1984 4856 
z
" id="DejaVuSans-28" transform="scale(0.015625)"/>
       <path d="M 2350 4316 
L 3125 0 
L 2516 0 
L 2038 2588 
L 328 0 
L -281 0 
L 1903 3356 
L 1794 3975 
Q 1725 4369 1391 4369 
L 1091 4369 
L 1184 4863 
L 1550 4856 
Q 2253 4847 2350 4316 
z
" id="DejaVuSans-Oblique-3bb" transform="scale(0.015625)"/>
       <path d="M 5747 2113 
L 5338 0 
L 4763 0 
L 5166 2094 
Q 5191 2228 5203 2325 
Q 5216 2422 5216 2491 
Q 5216 2772 5059 2928 
Q 4903 3084 4622 3084 
Q 4203 3084 3875 2770 
Q 3547 2456 3450 1953 
L 3066 0 
L 2491 0 
L 2900 2094 
Q 2925 2209 2937 2307 
Q 2950 2406 2950 2484 
Q 2950 2769 2794 2926 
Q 2638 3084 2363 3084 
Q 1938 3084 1609 2770 
Q 1281 2456 1184 1953 
L 800 0 
L 225 0 
L 909 3500 
L 1484 3500 
L 1375 2956 
Q 1609 3263 1923 3423 
Q 2238 3584 2597 3584 
Q 2978 3584 3223 3384 
Q 3469 3184 3519 2828 
Q 3781 3197 4126 3390 
Q 4472 3584 4856 3584 
Q 5306 3584 5551 3325 
Q 5797 3066 5797 2591 
Q 5797 2488 5784 2364 
Q 5772 2241 5747 2113 
z
" id="DejaVuSans-Oblique-6d" transform="scale(0.015625)"/>
       <path d="M 3438 1997 
L 3047 0 
L 2472 0 
L 2578 531 
Q 2325 219 2001 64 
Q 1678 -91 1281 -91 
Q 834 -91 548 182 
Q 263 456 263 884 
Q 263 1497 752 1853 
Q 1241 2209 2100 2209 
L 2900 2209 
L 2931 2363 
Q 2938 2388 2941 2417 
Q 2944 2447 2944 2509 
Q 2944 2788 2717 2942 
Q 2491 3097 2081 3097 
Q 1800 3097 1504 3025 
Q 1209 2953 897 2809 
L 997 3341 
Q 1322 3463 1633 3523 
Q 1944 3584 2234 3584 
Q 2853 3584 3176 3315 
Q 3500 3047 3500 2534 
Q 3500 2431 3484 2292 
Q 3469 2153 3438 1997 
z
M 2816 1759 
L 2241 1759 
Q 1534 1759 1195 1570 
Q 856 1381 856 984 
Q 856 709 1029 553 
Q 1203 397 1509 397 
Q 1978 397 2328 733 
Q 2678 1069 2791 1631 
L 2816 1759 
z
" id="DejaVuSans-Oblique-61" transform="scale(0.015625)"/>
       <path d="M 3841 3500 
L 2234 1784 
L 3219 0 
L 2559 0 
L 1819 1388 
L 531 0 
L -166 0 
L 1556 1844 
L 641 3500 
L 1300 3500 
L 1972 2234 
L 3144 3500 
L 3841 3500 
z
" id="DejaVuSans-Oblique-78" transform="scale(0.015625)"/>
       <path d="M 513 4856 
L 1013 4856 
Q 1481 4119 1714 3412 
Q 1947 2706 1947 2009 
Q 1947 1309 1714 600 
Q 1481 -109 1013 -844 
L 513 -844 
Q 928 -128 1133 580 
Q 1338 1288 1338 2009 
Q 1338 2731 1133 3434 
Q 928 4138 513 4856 
z
" id="DejaVuSans-29" transform="scale(0.015625)"/>
      </defs>
      <use transform="translate(0 0.015625)" xlink:href="#DejaVuSans-Oblique-211c"/>
      <use transform="translate(81.396484 0.015625)" xlink:href="#DejaVuSans-28"/>
      <use transform="translate(120.410156 0.015625)" xlink:href="#DejaVuSans-Oblique-3bb"/>
      <use transform="translate(179.589844 -16.390625)scale(0.7)" xlink:href="#DejaVuSans-Oblique-6d"/>
      <use transform="translate(247.77832 -16.390625)scale(0.7)" xlink:href="#DejaVuSans-Oblique-61"/>
      <use transform="translate(290.673828 -16.390625)scale(0.7)" xlink:href="#DejaVuSans-Oblique-78"/>
      <use transform="translate(334.833984 0.015625)" xlink:href="#DejaVuSans-29"/>
     </g>
    </g>
   </g>
   <g id="line2d_11">
    <path clip-path="url(#p36c5f74ac3)" d="M 69.218182 22.221818 
L 72.261818 24.689032 
L 75.305455 27.19406 
L 78.349091 29.740512 
L 81.392727 32.332499 
L 84.436364 34.974734 
L 87.48 37.672652 
L 90.523636 40.432574 
L 93.567273 43.261903 
L 96.610909 46.169395 
L 99.654545 49.16551 
L 102.698182 52.262884 
L 105.741818 55.476987 
L 108.785455 58.827036 
L 111.829091 62.337316 
L 114.872727 66.039115 
L 117.916364 69.97368 
L 120.96 74.196818 
L 124.003636 78.786357 
L 127.047273 83.854502 
L 130.090909 89.568321 
L 133.134545 96.180264 
L 136.178182 104.045354 
L 139.221818 113.444332 
L 142.265455 121.058182 
L 145.309091 117.322476 
L 148.352727 114.445369 
L 151.396364 112.288385 
L 154.44 110.63739 
L 157.483636 109.340573 
L 160.527273 108.300059 
L 163.570909 107.451843 
L 166.614545 106.752544 
L 169.658182 106.171651 
L 172.701818 105.686981 
L 175.745455 105.281933 
L 178.789091 104.943771 
L 181.832727 104.662517 
L 184.876364 104.430208 
L 187.92 104.240384 
L 190.963636 104.087735 
L 194.007273 103.967839 
L 197.050909 103.876975 
L 200.094545 103.811979 
L 203.138182 103.770142 
L 206.181818 103.749119 
L 209.225455 103.746872 
L 212.269091 103.761616 
L 215.312727 103.791778 
L 218.356364 103.835964 
L 221.4 103.892935 
L 224.443636 103.961582 
L 227.487273 104.040909 
L 230.530909 104.130018 
L 233.574545 104.228098 
L 236.618182 104.334413 
L 239.661818 104.448291 
L 242.705455 104.569121 
L 245.749091 104.696341 
L 248.792727 104.829437 
L 251.836364 104.967937 
L 254.88 105.111403 
L 257.923636 105.259432 
L 260.967273 105.411653 
L 264.010909 105.567718 
L 267.054545 105.727307 
L 270.098182 105.890122 
L 273.141818 106.055883 
L 276.185455 106.224332 
L 279.229091 106.395227 
L 282.272727 106.56834 
L 285.316364 106.74346 
L 288.36 106.920388 
L 291.403636 107.098938 
L 294.447273 107.278936 
L 297.490909 107.460216 
L 300.534545 107.642625 
L 303.578182 107.826018 
L 306.621818 108.010258 
L 309.665455 108.195216 
L 312.709091 108.380772 
L 315.752727 108.56681 
L 318.796364 108.753224 
L 321.84 108.939912 
L 324.883636 109.126778 
L 327.927273 109.313732 
L 330.970909 109.500689 
L 334.014545 109.687568 
L 337.058182 109.874294 
L 340.101818 110.060794 
L 343.145455 110.247001 
L 346.189091 110.432852 
L 349.232727 110.618287 
L 352.276364 110.803248 
L 355.32 110.987682 
L 358.363636 111.17154 
L 361.407273 111.354773 
L 364.450909 111.537336 
L 367.494545 111.719189 
L 370.538182 111.900291 
L 373.581818 112.080605 
" style="fill:none;stroke:#1f77b4;stroke-linecap:square;stroke-width:1.5;"/>
   </g>
   <g id="line2d_12">
    <path clip-path="url(#p36c5f74ac3)" d="M 69.218182 106.000318 
L 72.261818 106.000318 
L 75.305455 106.000318 
L 78.349091 106.000318 
L 81.392727 106.000318 
L 84.436364 106.000318 
L 87.48 106.000318 
L 90.523636 106.000318 
L 93.567273 106.000318 
L 96.610909 106.000318 
L 99.654545 106.000318 
L 102.698182 106.000318 
L 105.741818 106.000318 
L 108.785455 106.000318 
L 111.829091 106.000318 
L 114.872727 106.000318 
L 117.916364 106.000318 
L 120.96 106.000318 
L 124.003636 106.000318 
L 127.047273 106.000318 
L 130.090909 106.000318 
L 133.134545 106.000318 
L 136.178182 106.000318 
L 139.221818 106.000318 
L 142.265455 106.000318 
L 145.309091 106.000318 
L 148.352727 106.000318 
L 151.396364 106.000318 
L 154.44 106.000318 
L 157.483636 106.000318 
L 160.527273 106.000318 
L 163.570909 106.000318 
L 166.614545 106.000318 
L 169.658182 106.000318 
L 172.701818 106.000318 
L 175.745455 106.000318 
L 178.789091 106.000318 
L 181.832727 106.000318 
L 184.876364 106.000318 
L 187.92 106.000318 
L 190.963636 106.000318 
L 194.007273 106.000318 
L 197.050909 106.000318 
L 200.094545 106.000318 
L 203.138182 106.000318 
L 206.181818 106.000318 
L 209.225455 106.000318 
L 212.269091 106.000318 
L 215.312727 106.000318 
L 218.356364 106.000318 
L 221.4 106.000318 
L 224.443636 106.000318 
L 227.487273 106.000318 
L 230.530909 106.000318 
L 233.574545 106.000318 
L 236.618182 106.000318 
L 239.661818 106.000318 
L 242.705455 106.000318 
L 245.749091 106.000318 
L 248.792727 106.000318 
L 251.836364 106.000318 
L 254.88 106.000318 
L 257.923636 106.000318 
L 260.967273 106.000318 
L 264.010909 106.000318 
L 267.054545 106.000318 
L 270.098182 106.000318 
L 273.141818 106.000318 
L 276.185455 106.000318 
L 279.229091 106.000318 
L 282.272727 106.000318 
L 285.316364 106.000318 
L 288.36 106.000318 
L 291.403636 106.000318 
L 294.447273 106.000318 
L 297.490909 106.000318 
L 300.534545 106.000318 
L 303.578182 106.000318 
L 306.621818 106.000318 
L 309.665455 106.000318 
L 312.709091 106.000318 
L 315.752727 106.000318 
L 318.796364 106.000318 
L 321.84 106.000318 
L 324.883636 106.000318 
L 327.927273 106.000318 
L 330.970909 106.000318 
L 334.014545 106.000318 
L 337.058182 106.000318 
L 340.101818 106.000318 
L 343.145455 106.000318 
L 346.189091 106.000318 
L 349.232727 106.000318 
L 352.276364 106.000318 
L 355.32 106.000318 
L 358.363636 106.000318 
L 361.407273 106.000318 
L 364.450909 106.000318 
L 367.494545 106.000318 
L 370.538182 106.000318 
L 373.581818 106.000318 
" style="fill:none;stroke:#000000;stroke-linecap:square;stroke-width:1.5;"/>
   </g>
   <g id="patch_3">
    <path d="M 54 126 
L 54 17.28 
" style="fill:none;stroke:#000000;stroke-linecap:square;stroke-linejoin:miter;stroke-width:0.8;"/>
   </g>
   <g id="patch_4">
    <path d="M 388.8 126 
L 388.8 17.28 
" style="fill:none;stroke:#000000;stroke-linecap:square;stroke-linejoin:miter;stroke-width:0.8;"/>
   </g>
   <g id="patch_5">
    <path d="M 54 126 
L 388.8 126 
" style="fill:none;stroke:#000000;stroke-linecap:square;stroke-linejoin:miter;stroke-width:0.8;"/>
   </g>
   <g id="patch_6">
    <path d="M 54 17.28 
L 388.8 17.28 
" style="fill:none;stroke:#000000;stroke-linecap:square;stroke-linejoin:miter;stroke-width:0.8;"/>
   </g>
  </g>
 </g>
 <defs>
  <clipPath id="p36c5f74ac3">
   <rect height="108.72" width="334.8" x="54" y="17.28"/>
  </clipPath>
 </defs>
</svg>
