<?xml version="1.0" encoding="utf-8" standalone="no"?>
<!DOCTYPE svg PUBLIC "-//W3C//DTD SVG 1.1//EN"
  "http://www.w3.org/Graphics/SVG/1.1/DTD/svg11.dtd">
<!-- Created with matplotlib (https://matplotlib.org/) -->
<svg height="288pt" version="1.1" viewBox="0 0 432 288" width="432pt" xmlns="http://www.w3.org/2000/svg" xmlns:xlink="http://www.w3.org/1999/xlink">
 <defs>
  <style type="text/css">
*{stroke-linecap:butt;stroke-linejoin:round;}
  </style>
 </defs>
 <g id="figure_1">
  <g id="patch_1">
   <path d="M 0 288 
L 432 288 
L 432 0 
L 0 0 
z
" style="fill:#ffffff;"/>
  </g>
  <g id="axes_1">
   <g id="patch_2">
    <path clip-path="url(#pecf4c629ca)" d="M 194.975275 136.800514 
L 195.6949 147.648671 
L 194.610084 147.720634 
L 193.890459 136.872476 
z
" style="stroke:#000000;stroke-linejoin:miter;"/>
   </g>
   <g id="patch_3">
    <path clip-path="url(#pecf4c629ca)" d="M 249.216063 133.202387 
L 249.935688 144.050545 
L 248.850872 144.122507 
L 248.131247 133.274349 
z
" style="stroke:#000000;stroke-linejoin:miter;"/>
   </g>
   <g id="patch_4">
    <path clip-path="url(#pecf4c629ca)" d="M 212.513129 135.637119 
L 212.328184 135.096629 
L 211.851185 134.611669 
L 211.091639 134.215399 
L 210.063461 133.936112 
L 208.784659 133.795343 
L 207.276961 133.806407 
L 205.56541 133.973462 
L 203.677937 134.291154 
L 201.644911 134.744877 
L 199.498684 135.31163 
L 197.273123 135.961406 
L 195.003146 136.659044 
L 192.724258 137.366406 
L 190.472077 138.044749 
L 188.281872 138.657134 
L 186.188096 139.170724 
L 184.223916 139.558808 
L 182.42075 139.802442 
L 180.807804 139.891575 
L 179.411621 139.825616 
L 178.255638 139.613381 
L 177.359773 139.272449 
L 176.74003 138.827944 
L 176.408157 138.310852 
L 176.371347 137.75596 
L 176.632009 137.199562 
L 177.187607 136.67709 
L 178.030588 136.220809 
L 179.148407 135.857739 
L 180.523644 135.607934 
L 182.13423 135.48323 
L 183.953778 135.486547 
L 185.95201 135.61178 
L 188.09528 135.844301 
L 190.347183 136.162013 
L 192.669233 136.536919 
L 195.021589 136.937062 
L 197.363827 137.328743 
L 199.655716 137.678849 
L 201.858001 137.957138 
L 203.933144 138.138341 
L 205.846043 138.203931 
L 207.564663 138.143441 
L 209.060612 137.955255 
L 210.309614 137.646801 
L 211.291891 137.234148 
L 211.992439 136.741021 
L 212.401198 136.197303 
z
" style="fill:#0000ff;stroke:#000000;stroke-linejoin:miter;"/>
   </g>
   <g id="patch_5">
    <path clip-path="url(#pecf4c629ca)" d="M 266.753917 132.038993 
L 266.568972 131.498503 
L 266.091973 131.013542 
L 265.332427 130.617272 
L 264.304249 130.337985 
L 263.025447 130.197216 
L 261.517749 130.208281 
L 259.806198 130.375335 
L 257.918725 130.693027 
L 255.885699 131.14675 
L 253.739472 131.713503 
L 251.513911 132.363279 
L 249.243934 133.060918 
L 246.965046 133.76828 
L 244.712865 134.446622 
L 242.52266 135.059007 
L 240.428884 135.572597 
L 238.464704 135.960682 
L 236.661538 136.204315 
L 235.048592 136.293449 
L 233.652409 136.227489 
L 232.496426 136.015254 
L 231.600561 135.674322 
L 230.980818 135.229817 
L 230.648945 134.712726 
L 230.612135 134.157833 
L 230.872797 133.601435 
L 231.428395 133.078963 
L 232.271376 132.622682 
L 233.389195 132.259612 
L 234.764432 132.009807 
L 236.375018 131.885104 
L 238.194566 131.88842 
L 240.192798 132.013654 
L 242.336068 132.246174 
L 244.587971 132.563887 
L 246.910021 132.938792 
L 249.262377 133.338935 
L 251.604615 133.730617 
L 253.896504 134.080723 
L 256.098789 134.359011 
L 258.173932 134.540215 
L 260.086831 134.605804 
L 261.805451 134.545314 
L 263.3014 134.357128 
L 264.550402 134.048675 
L 265.532679 133.636022 
L 266.233227 133.142895 
L 266.641986 132.599177 
z
" style="fill:#0000ff;stroke:#000000;stroke-linejoin:miter;"/>
   </g>
   <g id="patch_6">
    <path clip-path="url(#pecf4c629ca)" d="M 254.637453 141.014674 
L 189.548507 145.332426 
L 189.90832 150.756505 
L 254.997265 146.438753 
z
" style="fill:#999999;stroke:#000000;stroke-linejoin:miter;"/>
   </g>
   <g id="text_1">
    <!-- t = 1.5 -->
    <defs>
     <path d="M 18.3125 70.21875 
L 18.3125 54.6875 
L 36.8125 54.6875 
L 36.8125 47.703125 
L 18.3125 47.703125 
L 18.3125 18.015625 
Q 18.3125 11.328125 20.140625 9.421875 
Q 21.96875 7.515625 27.59375 7.515625 
L 36.8125 7.515625 
L 36.8125 0 
L 27.59375 0 
Q 17.1875 0 13.234375 3.875 
Q 9.28125 7.765625 9.28125 18.015625 
L 9.28125 47.703125 
L 2.6875 47.703125 
L 2.6875 54.6875 
L 9.28125 54.6875 
L 9.28125 70.21875 
z
" id="DejaVuSans-116"/>
     <path id="DejaVuSans-32"/>
     <path d="M 10.59375 45.40625 
L 73.1875 45.40625 
L 73.1875 37.203125 
L 10.59375 37.203125 
z
M 10.59375 25.484375 
L 73.1875 25.484375 
L 73.1875 17.1875 
L 10.59375 17.1875 
z
" id="DejaVuSans-61"/>
     <path d="M 12.40625 8.296875 
L 28.515625 8.296875 
L 28.515625 63.921875 
L 10.984375 60.40625 
L 10.984375 69.390625 
L 28.421875 72.90625 
L 38.28125 72.90625 
L 38.28125 8.296875 
L 54.390625 8.296875 
L 54.390625 0 
L 12.40625 0 
z
" id="DejaVuSans-49"/>
     <path d="M 10.6875 12.40625 
L 21 12.40625 
L 21 0 
L 10.6875 0 
z
" id="DejaVuSans-46"/>
     <path d="M 10.796875 72.90625 
L 49.515625 72.90625 
L 49.515625 64.59375 
L 19.828125 64.59375 
L 19.828125 46.734375 
Q 21.96875 47.46875 24.109375 47.828125 
Q 26.265625 48.1875 28.421875 48.1875 
Q 40.625 48.1875 47.75 41.5 
Q 54.890625 34.8125 54.890625 23.390625 
Q 54.890625 11.625 47.5625 5.09375 
Q 40.234375 -1.421875 26.90625 -1.421875 
Q 22.3125 -1.421875 17.546875 -0.640625 
Q 12.796875 0.140625 7.71875 1.703125 
L 7.71875 11.625 
Q 12.109375 9.234375 16.796875 8.0625 
Q 21.484375 6.890625 26.703125 6.890625 
Q 35.15625 6.890625 40.078125 11.328125 
Q 45.015625 15.765625 45.015625 23.390625 
Q 45.015625 31 40.078125 35.4375 
Q 35.15625 39.890625 26.703125 39.890625 
Q 22.75 39.890625 18.8125 39.015625 
Q 14.890625 38.140625 10.796875 36.28125 
z
" id="DejaVuSans-53"/>
    </defs>
    <g transform="translate(200.664375 28.56)scale(0.12 -0.12)">
     <use xlink:href="#DejaVuSans-116"/>
     <use x="39.208984" xlink:href="#DejaVuSans-32"/>
     <use x="70.996094" xlink:href="#DejaVuSans-61"/>
     <use x="154.785156" xlink:href="#DejaVuSans-32"/>
     <use x="186.572266" xlink:href="#DejaVuSans-49"/>
     <use x="250.195312" xlink:href="#DejaVuSans-46"/>
     <use x="281.982422" xlink:href="#DejaVuSans-53"/>
    </g>
   </g>
  </g>
 </g>
 <defs>
  <clipPath id="pecf4c629ca">
   <rect height="217.44" width="334.8" x="54" y="34.56"/>
  </clipPath>
 </defs>
</svg>
