<?xml version="1.0" encoding="utf-8" standalone="no"?>
<!DOCTYPE svg PUBLIC "-//W3C//DTD SVG 1.1//EN"
  "http://www.w3.org/Graphics/SVG/1.1/DTD/svg11.dtd">
<!-- Created with matplotlib (https://matplotlib.org/) -->
<svg height="288pt" version="1.1" viewBox="0 0 432 288" width="432pt" xmlns="http://www.w3.org/2000/svg" xmlns:xlink="http://www.w3.org/1999/xlink">
 <defs>
  <style type="text/css">
*{stroke-linecap:butt;stroke-linejoin:round;}
  </style>
 </defs>
 <g id="figure_1">
  <g id="patch_1">
   <path d="M 0 288 
L 432 288 
L 432 0 
L 0 0 
z
" style="fill:#ffffff;"/>
  </g>
  <g id="axes_1">
   <g id="patch_2">
    <path clip-path="url(#p3798d9e5ba)" d="M 197.691129 133.957337 
L 197.030666 144.809258 
L 195.945474 144.743211 
L 196.605937 133.891291 
z
" style="stroke:#000000;stroke-linejoin:miter;"/>
   </g>
   <g id="patch_3">
    <path clip-path="url(#p3798d9e5ba)" d="M 251.95073 137.259649 
L 251.290268 148.111569 
L 250.205076 148.045523 
L 250.865538 137.193602 
z
" style="stroke:#000000;stroke-linejoin:miter;"/>
   </g>
   <g id="patch_4">
    <path clip-path="url(#p3798d9e5ba)" d="M 215.235066 135.025085 
L 215.120082 134.465519 
L 214.708364 133.924038 
L 214.005138 133.434738 
L 213.020626 133.027448 
L 211.76996 132.725809 
L 210.273007 132.545783 
L 208.554083 132.494665 
L 206.64157 132.570684 
L 204.567445 132.7632 
L 202.366711 133.053494 
L 200.076765 133.416091 
L 197.736698 133.820539 
L 195.386558 134.233503 
L 193.066587 134.621064 
L 190.81645 134.951051 
L 188.67448 135.195255 
L 186.676961 135.331382 
L 184.857458 135.34462 
L 183.246215 135.228701 
L 181.869637 134.986398 
L 180.749855 134.629429 
L 179.904398 134.177751 
L 179.34596 133.658316 
L 179.082268 133.103348 
L 179.116051 132.548263 
L 179.4451 132.029369 
L 180.06241 131.581492 
L 180.956403 131.23568 
L 182.111211 131.017145 
L 183.507014 130.943573 
L 185.120422 131.02391 
L 186.92489 131.257708 
L 188.891157 131.635077 
L 190.987702 132.137242 
L 193.181213 132.737675 
L 195.43706 133.403727 
L 197.719771 134.098653 
L 199.993518 134.783903 
L 202.222589 135.421534 
L 204.371875 135.976575 
L 206.407344 136.419206 
L 208.296521 136.726601 
L 210.008958 136.884321 
L 211.516694 136.887164 
L 212.79471 136.739424 
L 213.821349 136.454535 
L 214.578724 136.054129 
L 215.05307 135.566575 
z
" style="fill:#0000ff;stroke:#000000;stroke-linejoin:miter;"/>
   </g>
   <g id="patch_5">
    <path clip-path="url(#p3798d9e5ba)" d="M 269.494668 138.327396 
L 269.379683 137.767831 
L 268.967965 137.22635 
L 268.26474 136.73705 
L 267.280227 136.329759 
L 266.029561 136.028121 
L 264.532608 135.848094 
L 262.813684 135.796977 
L 260.901172 135.872996 
L 258.827047 136.065512 
L 256.626313 136.355805 
L 254.336366 136.718403 
L 251.996299 137.12285 
L 249.64616 137.535814 
L 247.326189 137.923375 
L 245.076051 138.253363 
L 242.934081 138.497566 
L 240.936562 138.633693 
L 239.117059 138.646932 
L 237.505817 138.531012 
L 236.129238 138.28871 
L 235.009456 137.93174 
L 234.163999 137.480063 
L 233.605561 136.960628 
L 233.341869 136.405659 
L 233.375652 135.850574 
L 233.704701 135.331681 
L 234.322011 134.883803 
L 235.216004 134.537991 
L 236.370812 134.319456 
L 237.766615 134.245885 
L 239.380023 134.326222 
L 241.184491 134.56002 
L 243.150758 134.937388 
L 245.247303 135.439553 
L 247.440814 136.039987 
L 249.696661 136.706039 
L 251.979373 137.400964 
L 254.253119 138.086214 
L 256.482191 138.723845 
L 258.631476 139.278887 
L 260.666946 139.721518 
L 262.556123 140.028913 
L 264.268559 140.186632 
L 265.776296 140.189475 
L 267.054311 140.041736 
L 268.080951 139.756846 
L 268.838325 139.356441 
L 269.312672 138.868887 
z
" style="fill:#0000ff;stroke:#000000;stroke-linejoin:miter;"/>
   </g>
   <g id="patch_6">
    <path clip-path="url(#p3798d9e5ba)" d="M 256.338747 145.695797 
L 191.227226 141.733023 
L 190.896995 147.158983 
L 256.008516 151.121757 
z
" style="fill:#999999;stroke:#000000;stroke-linejoin:miter;"/>
   </g>
   <g id="text_1">
    <!-- t = 1.3 -->
    <defs>
     <path d="M 18.3125 70.21875 
L 18.3125 54.6875 
L 36.8125 54.6875 
L 36.8125 47.703125 
L 18.3125 47.703125 
L 18.3125 18.015625 
Q 18.3125 11.328125 20.140625 9.421875 
Q 21.96875 7.515625 27.59375 7.515625 
L 36.8125 7.515625 
L 36.8125 0 
L 27.59375 0 
Q 17.1875 0 13.234375 3.875 
Q 9.28125 7.765625 9.28125 18.015625 
L 9.28125 47.703125 
L 2.6875 47.703125 
L 2.6875 54.6875 
L 9.28125 54.6875 
L 9.28125 70.21875 
z
" id="DejaVuSans-116"/>
     <path id="DejaVuSans-32"/>
     <path d="M 10.59375 45.40625 
L 73.1875 45.40625 
L 73.1875 37.203125 
L 10.59375 37.203125 
z
M 10.59375 25.484375 
L 73.1875 25.484375 
L 73.1875 17.1875 
L 10.59375 17.1875 
z
" id="DejaVuSans-61"/>
     <path d="M 12.40625 8.296875 
L 28.515625 8.296875 
L 28.515625 63.921875 
L 10.984375 60.40625 
L 10.984375 69.390625 
L 28.421875 72.90625 
L 38.28125 72.90625 
L 38.28125 8.296875 
L 54.390625 8.296875 
L 54.390625 0 
L 12.40625 0 
z
" id="DejaVuSans-49"/>
     <path d="M 10.6875 12.40625 
L 21 12.40625 
L 21 0 
L 10.6875 0 
z
" id="DejaVuSans-46"/>
     <path d="M 40.578125 39.3125 
Q 47.65625 37.796875 51.625 33 
Q 55.609375 28.21875 55.609375 21.1875 
Q 55.609375 10.40625 48.1875 4.484375 
Q 40.765625 -1.421875 27.09375 -1.421875 
Q 22.515625 -1.421875 17.65625 -0.515625 
Q 12.796875 0.390625 7.625 2.203125 
L 7.625 11.71875 
Q 11.71875 9.328125 16.59375 8.109375 
Q 21.484375 6.890625 26.8125 6.890625 
Q 36.078125 6.890625 40.9375 10.546875 
Q 45.796875 14.203125 45.796875 21.1875 
Q 45.796875 27.640625 41.28125 31.265625 
Q 36.765625 34.90625 28.71875 34.90625 
L 20.21875 34.90625 
L 20.21875 43.015625 
L 29.109375 43.015625 
Q 36.375 43.015625 40.234375 45.921875 
Q 44.09375 48.828125 44.09375 54.296875 
Q 44.09375 59.90625 40.109375 62.90625 
Q 36.140625 65.921875 28.71875 65.921875 
Q 24.65625 65.921875 20.015625 65.03125 
Q 15.375 64.15625 9.8125 62.3125 
L 9.8125 71.09375 
Q 15.4375 72.65625 20.34375 73.4375 
Q 25.25 74.21875 29.59375 74.21875 
Q 40.828125 74.21875 47.359375 69.109375 
Q 53.90625 64.015625 53.90625 55.328125 
Q 53.90625 49.265625 50.4375 45.09375 
Q 46.96875 40.921875 40.578125 39.3125 
z
" id="DejaVuSans-51"/>
    </defs>
    <g transform="translate(200.664375 28.56)scale(0.12 -0.12)">
     <use xlink:href="#DejaVuSans-116"/>
     <use x="39.208984" xlink:href="#DejaVuSans-32"/>
     <use x="70.996094" xlink:href="#DejaVuSans-61"/>
     <use x="154.785156" xlink:href="#DejaVuSans-32"/>
     <use x="186.572266" xlink:href="#DejaVuSans-49"/>
     <use x="250.195312" xlink:href="#DejaVuSans-46"/>
     <use x="281.982422" xlink:href="#DejaVuSans-51"/>
    </g>
   </g>
  </g>
 </g>
 <defs>
  <clipPath id="p3798d9e5ba">
   <rect height="217.44" width="334.8" x="54" y="34.56"/>
  </clipPath>
 </defs>
</svg>
