<?xml version="1.0" encoding="utf-8" standalone="no"?>
<!DOCTYPE svg PUBLIC "-//W3C//DTD SVG 1.1//EN"
  "http://www.w3.org/Graphics/SVG/1.1/DTD/svg11.dtd">
<!-- Created with matplotlib (https://matplotlib.org/) -->
<svg height="288pt" version="1.1" viewBox="0 0 432 288" width="432pt" xmlns="http://www.w3.org/2000/svg" xmlns:xlink="http://www.w3.org/1999/xlink">
 <defs>
  <style type="text/css">
*{stroke-linecap:butt;stroke-linejoin:round;}
  </style>
 </defs>
 <g id="figure_1">
  <g id="patch_1">
   <path d="M 0 288 
L 432 288 
L 432 0 
L 0 0 
z
" style="fill:#ffffff;"/>
  </g>
  <g id="axes_1">
   <g id="patch_2">
    <path clip-path="url(#pda72015e5c)" d="M 194.826585 132.391731 
L 194.817906 143.263727 
L 193.730707 143.262859 
L 193.739386 132.390863 
z
" style="stroke:#000000;stroke-linejoin:miter;"/>
   </g>
   <g id="patch_3">
    <path clip-path="url(#pda72015e5c)" d="M 249.186568 132.435125 
L 249.177889 143.307122 
L 248.090689 143.306254 
L 248.099368 132.434257 
z
" style="stroke:#000000;stroke-linejoin:miter;"/>
   </g>
   <g id="patch_4">
    <path clip-path="url(#pda72015e5c)" d="M 212.40298 132.405762 
L 212.254655 131.854097 
L 211.811215 131.338273 
L 211.079919 130.892013 
L 210.07276 130.544478 
L 208.80626 130.318362 
L 207.301206 130.228406 
L 205.582309 130.280433 
L 203.677795 130.470974 
L 201.618942 130.787492 
L 199.439571 131.209202 
L 197.175482 131.708434 
L 194.863871 132.252446 
L 192.542717 132.805563 
L 190.250154 133.331515 
L 188.023847 133.795809 
L 185.900371 134.167988 
L 183.914606 134.423626 
L 182.099169 134.545924 
L 180.483876 134.52681 
L 179.095247 134.367472 
L 177.956078 134.078278 
L 177.085063 133.6781 
L 176.496488 133.193079 
L 176.199999 132.654918 
L 176.200443 132.098806 
L 176.497791 131.561119 
L 177.087139 131.077038 
L 177.958792 130.678251 
L 179.098421 130.390876 
L 180.487303 130.233755 
L 182.102625 130.217221 
L 183.917864 130.342416 
L 185.903218 130.601224 
L 188.026098 130.976794 
L 190.251661 131.444642 
L 192.543381 131.974253 
L 194.863649 132.531075 
L 197.174388 133.078777 
L 199.437677 133.581623 
L 201.616372 134.006812 
L 203.674717 134.326616 
L 205.578925 134.520198 
L 207.297737 134.57497 
L 208.802932 134.487416 
L 210.069791 134.263322 
L 211.077504 133.917396 
L 211.809511 133.472304 
L 212.253774 132.957189 
z
" style="fill:#0000ff;stroke:#000000;stroke-linejoin:miter;"/>
   </g>
   <g id="patch_5">
    <path clip-path="url(#pda72015e5c)" d="M 266.762962 132.449156 
L 266.614638 131.897491 
L 266.171197 131.381667 
L 265.439902 130.935407 
L 264.432742 130.587873 
L 263.166242 130.361757 
L 261.661189 130.2718 
L 259.942292 130.323827 
L 258.037777 130.514369 
L 255.978925 130.830886 
L 253.799553 131.252596 
L 251.535464 131.751829 
L 249.223854 132.295841 
L 246.9027 132.848957 
L 244.610137 133.374909 
L 242.38383 133.839203 
L 240.260353 134.211383 
L 238.274589 134.467021 
L 236.459152 134.589318 
L 234.843858 134.570204 
L 233.455229 134.410867 
L 232.31606 134.121673 
L 231.445045 133.721494 
L 230.85647 133.236473 
L 230.559981 132.698312 
L 230.560425 132.1422 
L 230.857773 131.604513 
L 231.447122 131.120432 
L 232.318774 130.721645 
L 233.458404 130.43427 
L 234.847285 130.27715 
L 236.462608 130.260615 
L 238.277846 130.385811 
L 240.263201 130.644619 
L 242.38608 131.020188 
L 244.611643 131.488036 
L 246.903363 132.017647 
L 249.223631 132.574469 
L 251.53437 133.122171 
L 253.797659 133.625018 
L 255.976355 134.050206 
L 258.0347 134.370011 
L 259.938907 134.563592 
L 261.657719 134.618364 
L 263.162914 134.53081 
L 264.429774 134.306716 
L 265.437487 133.960791 
L 266.169494 133.515699 
L 266.613757 133.000584 
z
" style="fill:#0000ff;stroke:#000000;stroke-linejoin:miter;"/>
   </g>
   <g id="patch_6">
    <path clip-path="url(#pda72015e5c)" d="M 254.072457 140.593028 
L 188.840478 140.540955 
L 188.836139 145.976953 
L 254.068118 146.029026 
z
" style="fill:#999999;stroke:#000000;stroke-linejoin:miter;"/>
   </g>
   <g id="text_1">
    <!-- t = 3.2 -->
    <defs>
     <path d="M 18.3125 70.21875 
L 18.3125 54.6875 
L 36.8125 54.6875 
L 36.8125 47.703125 
L 18.3125 47.703125 
L 18.3125 18.015625 
Q 18.3125 11.328125 20.140625 9.421875 
Q 21.96875 7.515625 27.59375 7.515625 
L 36.8125 7.515625 
L 36.8125 0 
L 27.59375 0 
Q 17.1875 0 13.234375 3.875 
Q 9.28125 7.765625 9.28125 18.015625 
L 9.28125 47.703125 
L 2.6875 47.703125 
L 2.6875 54.6875 
L 9.28125 54.6875 
L 9.28125 70.21875 
z
" id="DejaVuSans-116"/>
     <path id="DejaVuSans-32"/>
     <path d="M 10.59375 45.40625 
L 73.1875 45.40625 
L 73.1875 37.203125 
L 10.59375 37.203125 
z
M 10.59375 25.484375 
L 73.1875 25.484375 
L 73.1875 17.1875 
L 10.59375 17.1875 
z
" id="DejaVuSans-61"/>
     <path d="M 40.578125 39.3125 
Q 47.65625 37.796875 51.625 33 
Q 55.609375 28.21875 55.609375 21.1875 
Q 55.609375 10.40625 48.1875 4.484375 
Q 40.765625 -1.421875 27.09375 -1.421875 
Q 22.515625 -1.421875 17.65625 -0.515625 
Q 12.796875 0.390625 7.625 2.203125 
L 7.625 11.71875 
Q 11.71875 9.328125 16.59375 8.109375 
Q 21.484375 6.890625 26.8125 6.890625 
Q 36.078125 6.890625 40.9375 10.546875 
Q 45.796875 14.203125 45.796875 21.1875 
Q 45.796875 27.640625 41.28125 31.265625 
Q 36.765625 34.90625 28.71875 34.90625 
L 20.21875 34.90625 
L 20.21875 43.015625 
L 29.109375 43.015625 
Q 36.375 43.015625 40.234375 45.921875 
Q 44.09375 48.828125 44.09375 54.296875 
Q 44.09375 59.90625 40.109375 62.90625 
Q 36.140625 65.921875 28.71875 65.921875 
Q 24.65625 65.921875 20.015625 65.03125 
Q 15.375 64.15625 9.8125 62.3125 
L 9.8125 71.09375 
Q 15.4375 72.65625 20.34375 73.4375 
Q 25.25 74.21875 29.59375 74.21875 
Q 40.828125 74.21875 47.359375 69.109375 
Q 53.90625 64.015625 53.90625 55.328125 
Q 53.90625 49.265625 50.4375 45.09375 
Q 46.96875 40.921875 40.578125 39.3125 
z
" id="DejaVuSans-51"/>
     <path d="M 10.6875 12.40625 
L 21 12.40625 
L 21 0 
L 10.6875 0 
z
" id="DejaVuSans-46"/>
     <path d="M 19.1875 8.296875 
L 53.609375 8.296875 
L 53.609375 0 
L 7.328125 0 
L 7.328125 8.296875 
Q 12.9375 14.109375 22.625 23.890625 
Q 32.328125 33.6875 34.8125 36.53125 
Q 39.546875 41.84375 41.421875 45.53125 
Q 43.3125 49.21875 43.3125 52.78125 
Q 43.3125 58.59375 39.234375 62.25 
Q 35.15625 65.921875 28.609375 65.921875 
Q 23.96875 65.921875 18.8125 64.3125 
Q 13.671875 62.703125 7.8125 59.421875 
L 7.8125 69.390625 
Q 13.765625 71.78125 18.9375 73 
Q 24.125 74.21875 28.421875 74.21875 
Q 39.75 74.21875 46.484375 68.546875 
Q 53.21875 62.890625 53.21875 53.421875 
Q 53.21875 48.921875 51.53125 44.890625 
Q 49.859375 40.875 45.40625 35.40625 
Q 44.1875 33.984375 37.640625 27.21875 
Q 31.109375 20.453125 19.1875 8.296875 
z
" id="DejaVuSans-50"/>
    </defs>
    <g transform="translate(200.664375 28.56)scale(0.12 -0.12)">
     <use xlink:href="#DejaVuSans-116"/>
     <use x="39.208984" xlink:href="#DejaVuSans-32"/>
     <use x="70.996094" xlink:href="#DejaVuSans-61"/>
     <use x="154.785156" xlink:href="#DejaVuSans-32"/>
     <use x="186.572266" xlink:href="#DejaVuSans-51"/>
     <use x="250.195312" xlink:href="#DejaVuSans-46"/>
     <use x="281.982422" xlink:href="#DejaVuSans-50"/>
    </g>
   </g>
  </g>
 </g>
 <defs>
  <clipPath id="pda72015e5c">
   <rect height="217.44" width="334.8" x="54" y="34.56"/>
  </clipPath>
 </defs>
</svg>
