<?xml version="1.0" encoding="utf-8" standalone="no"?>
<!DOCTYPE svg PUBLIC "-//W3C//DTD SVG 1.1//EN"
  "http://www.w3.org/Graphics/SVG/1.1/DTD/svg11.dtd">
<!-- Created with matplotlib (https://matplotlib.org/) -->
<svg height="288pt" version="1.1" viewBox="0 0 432 288" width="432pt" xmlns="http://www.w3.org/2000/svg" xmlns:xlink="http://www.w3.org/1999/xlink">
 <defs>
  <style type="text/css">
*{stroke-linecap:butt;stroke-linejoin:round;}
  </style>
 </defs>
 <g id="figure_1">
  <g id="patch_1">
   <path d="M 0 288 
L 432 288 
L 432 0 
L 0 0 
z
" style="fill:#ffffff;"/>
  </g>
  <g id="axes_1">
   <g id="patch_2">
    <path clip-path="url(#pce266af21d)" d="M 194.74044 132.407309 
L 194.739141 143.279309 
L 193.651941 143.279179 
L 193.65324 132.407179 
z
" style="stroke:#000000;stroke-linejoin:miter;"/>
   </g>
   <g id="patch_3">
    <path clip-path="url(#pce266af21d)" d="M 249.100439 132.413803 
L 249.099141 143.285803 
L 248.011941 143.285673 
L 248.013239 132.413673 
z
" style="stroke:#000000;stroke-linejoin:miter;"/>
   </g>
   <g id="patch_4">
    <path clip-path="url(#pce266af21d)" d="M 212.31684 132.409409 
L 212.168141 131.857844 
L 211.72435 131.342322 
L 210.992752 130.896558 
L 209.985357 130.549708 
L 208.718704 130.324451 
L 207.21359 130.235516 
L 205.494728 130.28871 
L 203.590343 130.480545 
L 201.531706 130.79846 
L 199.352621 131.221649 
L 197.088872 131.722418 
L 194.777631 132.267999 
L 192.456853 132.822691 
L 190.164648 133.350199 
L 187.938657 133.816004 
L 185.815433 134.189625 
L 183.829842 134.446611 
L 182.014489 134.570141 
L 180.399183 134.552124 
L 179.010446 134.393728 
L 177.871081 134.105308 
L 176.999794 133.705721 
L 176.41089 133.2211 
L 176.114036 132.68314 
L 176.114103 132.127027 
L 176.411085 131.589138 
L 177.000105 131.104658 
L 177.871487 130.705279 
L 179.010921 130.417131 
L 180.399696 130.259067 
L 182.015006 130.241436 
L 183.83033 130.3654 
L 185.815859 130.62286 
L 187.938993 130.996988 
L 190.164873 131.463325 
L 192.456952 131.991381 
L 194.777598 132.546628 
L 197.088708 133.092761 
L 199.352338 133.594071 
L 201.531322 134.017781 
L 203.589883 134.336188 
L 205.494222 134.528477 
L 207.21307 134.582082 
L 208.718205 134.493506 
L 209.984912 134.268553 
L 210.992391 133.921943 
L 211.724095 133.476354 
L 212.168009 132.960937 
z
" style="fill:#0000ff;stroke:#000000;stroke-linejoin:miter;"/>
   </g>
   <g id="patch_5">
    <path clip-path="url(#pce266af21d)" d="M 266.676839 132.415903 
L 266.52814 131.864339 
L 266.08435 131.348816 
L 265.352752 130.903053 
L 264.345356 130.556202 
L 263.078703 130.330946 
L 261.573589 130.24201 
L 259.854728 130.295205 
L 257.950343 130.487039 
L 255.891706 130.804954 
L 253.712621 131.228143 
L 251.448871 131.728912 
L 249.137631 132.274493 
L 246.816852 132.829186 
L 244.524647 133.356693 
L 242.298656 133.822498 
L 240.175433 134.196119 
L 238.189842 134.453105 
L 236.374489 134.576635 
L 234.759182 134.558618 
L 233.370445 134.400223 
L 232.231081 134.111802 
L 231.359794 133.712215 
L 230.77089 133.227594 
L 230.474036 132.689634 
L 230.474102 132.133522 
L 230.771085 131.595633 
L 231.360105 131.111152 
L 232.231487 130.711773 
L 233.370921 130.423625 
L 234.759695 130.265562 
L 236.375006 130.24793 
L 238.190329 130.371894 
L 240.175859 130.629354 
L 242.298993 131.003483 
L 244.524873 131.46982 
L 246.816952 131.997875 
L 249.137597 132.553122 
L 251.448708 133.099255 
L 253.712337 133.600565 
L 255.891321 134.024275 
L 257.949882 134.342682 
L 259.854221 134.534971 
L 261.57307 134.588576 
L 263.078205 134.5 
L 264.344912 134.275047 
L 265.35239 133.928437 
L 266.084095 133.482848 
L 266.528008 132.967432 
z
" style="fill:#0000ff;stroke:#000000;stroke-linejoin:miter;"/>
   </g>
   <g id="patch_6">
    <path clip-path="url(#pce266af21d)" d="M 253.991865 140.568388 
L 188.759866 140.560594 
L 188.759216 145.996594 
L 253.991216 146.004388 
z
" style="fill:#999999;stroke:#000000;stroke-linejoin:miter;"/>
   </g>
   <g id="text_1">
    <!-- t = 3.4 -->
    <defs>
     <path d="M 18.3125 70.21875 
L 18.3125 54.6875 
L 36.8125 54.6875 
L 36.8125 47.703125 
L 18.3125 47.703125 
L 18.3125 18.015625 
Q 18.3125 11.328125 20.140625 9.421875 
Q 21.96875 7.515625 27.59375 7.515625 
L 36.8125 7.515625 
L 36.8125 0 
L 27.59375 0 
Q 17.1875 0 13.234375 3.875 
Q 9.28125 7.765625 9.28125 18.015625 
L 9.28125 47.703125 
L 2.6875 47.703125 
L 2.6875 54.6875 
L 9.28125 54.6875 
L 9.28125 70.21875 
z
" id="DejaVuSans-116"/>
     <path id="DejaVuSans-32"/>
     <path d="M 10.59375 45.40625 
L 73.1875 45.40625 
L 73.1875 37.203125 
L 10.59375 37.203125 
z
M 10.59375 25.484375 
L 73.1875 25.484375 
L 73.1875 17.1875 
L 10.59375 17.1875 
z
" id="DejaVuSans-61"/>
     <path d="M 40.578125 39.3125 
Q 47.65625 37.796875 51.625 33 
Q 55.609375 28.21875 55.609375 21.1875 
Q 55.609375 10.40625 48.1875 4.484375 
Q 40.765625 -1.421875 27.09375 -1.421875 
Q 22.515625 -1.421875 17.65625 -0.515625 
Q 12.796875 0.390625 7.625 2.203125 
L 7.625 11.71875 
Q 11.71875 9.328125 16.59375 8.109375 
Q 21.484375 6.890625 26.8125 6.890625 
Q 36.078125 6.890625 40.9375 10.546875 
Q 45.796875 14.203125 45.796875 21.1875 
Q 45.796875 27.640625 41.28125 31.265625 
Q 36.765625 34.90625 28.71875 34.90625 
L 20.21875 34.90625 
L 20.21875 43.015625 
L 29.109375 43.015625 
Q 36.375 43.015625 40.234375 45.921875 
Q 44.09375 48.828125 44.09375 54.296875 
Q 44.09375 59.90625 40.109375 62.90625 
Q 36.140625 65.921875 28.71875 65.921875 
Q 24.65625 65.921875 20.015625 65.03125 
Q 15.375 64.15625 9.8125 62.3125 
L 9.8125 71.09375 
Q 15.4375 72.65625 20.34375 73.4375 
Q 25.25 74.21875 29.59375 74.21875 
Q 40.828125 74.21875 47.359375 69.109375 
Q 53.90625 64.015625 53.90625 55.328125 
Q 53.90625 49.265625 50.4375 45.09375 
Q 46.96875 40.921875 40.578125 39.3125 
z
" id="DejaVuSans-51"/>
     <path d="M 10.6875 12.40625 
L 21 12.40625 
L 21 0 
L 10.6875 0 
z
" id="DejaVuSans-46"/>
     <path d="M 37.796875 64.3125 
L 12.890625 25.390625 
L 37.796875 25.390625 
z
M 35.203125 72.90625 
L 47.609375 72.90625 
L 47.609375 25.390625 
L 58.015625 25.390625 
L 58.015625 17.1875 
L 47.609375 17.1875 
L 47.609375 0 
L 37.796875 0 
L 37.796875 17.1875 
L 4.890625 17.1875 
L 4.890625 26.703125 
z
" id="DejaVuSans-52"/>
    </defs>
    <g transform="translate(200.664375 28.56)scale(0.12 -0.12)">
     <use xlink:href="#DejaVuSans-116"/>
     <use x="39.208984" xlink:href="#DejaVuSans-32"/>
     <use x="70.996094" xlink:href="#DejaVuSans-61"/>
     <use x="154.785156" xlink:href="#DejaVuSans-32"/>
     <use x="186.572266" xlink:href="#DejaVuSans-51"/>
     <use x="250.195312" xlink:href="#DejaVuSans-46"/>
     <use x="281.982422" xlink:href="#DejaVuSans-52"/>
    </g>
   </g>
  </g>
 </g>
 <defs>
  <clipPath id="pce266af21d">
   <rect height="217.44" width="334.8" x="54" y="34.56"/>
  </clipPath>
 </defs>
</svg>
