<?xml version="1.0" encoding="utf-8" standalone="no"?>
<!DOCTYPE svg PUBLIC "-//W3C//DTD SVG 1.1//EN"
  "http://www.w3.org/Graphics/SVG/1.1/DTD/svg11.dtd">
<!-- Created with matplotlib (https://matplotlib.org/) -->
<svg height="288pt" version="1.1" viewBox="0 0 432 288" width="432pt" xmlns="http://www.w3.org/2000/svg" xmlns:xlink="http://www.w3.org/1999/xlink">
 <defs>
  <style type="text/css">
*{stroke-linecap:butt;stroke-linejoin:round;}
  </style>
 </defs>
 <g id="figure_1">
  <g id="patch_1">
   <path d="M 0 288 
L 432 288 
L 432 0 
L 0 0 
z
" style="fill:#ffffff;"/>
  </g>
  <g id="axes_1">
   <g id="patch_2">
    <path clip-path="url(#p0bf0ead4e8)" d="M 200.765745 135.177537 
L 199.861421 146.011861 
L 198.777988 145.921429 
L 199.682312 135.087104 
z
" style="stroke:#000000;stroke-linejoin:miter;"/>
   </g>
   <g id="patch_3">
    <path clip-path="url(#p0bf0ead4e8)" d="M 254.937366 139.699156 
L 254.033042 150.53348 
L 252.94961 150.443048 
L 253.853934 139.608723 
z
" style="stroke:#000000;stroke-linejoin:miter;"/>
   </g>
   <g id="patch_4">
    <path clip-path="url(#p0bf0ead4e8)" d="M 218.281236 136.639527 
L 218.178863 136.077518 
L 217.779426 135.526915 
L 217.087381 135.021925 
L 216.112276 134.592599 
L 214.868709 134.262913 
L 213.376183 134.04927 
L 211.658843 133.959511 
L 209.745105 133.992504 
L 207.667175 134.13833 
L 205.46047 134.379062 
L 203.162949 134.690074 
L 200.814378 135.041797 
L 198.455547 135.401809 
L 196.127448 135.737103 
L 193.870458 136.016407 
L 191.723539 136.212382 
L 189.723464 136.303557 
L 187.904123 136.275876 
L 186.295895 136.123754 
L 184.925113 135.850557 
L 183.813641 135.468498 
L 182.978555 134.997922 
L 182.431939 134.466061 
L 182.180793 133.905303 
L 182.22705 133.351118 
L 182.567684 132.839755 
L 183.194909 132.405873 
L 184.096453 132.080251 
L 185.255883 131.88774 
L 186.652987 131.845575 
L 188.264181 131.962172 
L 190.062935 132.236488 
L 192.020219 132.657977 
L 194.104942 133.207161 
L 196.284396 133.856768 
L 198.524695 134.573379 
L 200.791202 135.31946 
L 203.048965 136.055667 
L 205.263134 136.743263 
L 207.399395 137.346495 
L 209.424396 137.834786 
L 211.306183 138.184585 
L 213.01464 138.380773 
L 214.521931 138.41752 
L 215.802946 138.298556 
L 216.835732 138.036825 
L 217.601919 137.653552 
L 218.087109 137.176788 
z
" style="fill:#0000ff;stroke:#000000;stroke-linejoin:miter;"/>
   </g>
   <g id="patch_5">
    <path clip-path="url(#p0bf0ead4e8)" d="M 272.452857 141.161146 
L 272.350485 140.599137 
L 271.951047 140.048534 
L 271.259002 139.543544 
L 270.283897 139.114218 
L 269.040331 138.784532 
L 267.547805 138.570889 
L 265.830464 138.48113 
L 263.916726 138.514123 
L 261.838797 138.659949 
L 259.632091 138.900681 
L 257.33457 139.211693 
L 254.986 139.563416 
L 252.627168 139.923428 
L 250.299069 140.258722 
L 248.04208 140.538027 
L 245.89516 140.734001 
L 243.895085 140.825176 
L 242.075744 140.797495 
L 240.467516 140.645373 
L 239.096734 140.372176 
L 237.985263 139.990117 
L 237.150177 139.519541 
L 236.60356 138.98768 
L 236.352415 138.426923 
L 236.398672 137.872737 
L 236.739305 137.361375 
L 237.366531 136.927492 
L 238.268074 136.60187 
L 239.427504 136.409359 
L 240.824609 136.367194 
L 242.435802 136.483791 
L 244.234557 136.758108 
L 246.19184 137.179597 
L 248.276563 137.72878 
L 250.456018 138.378387 
L 252.696316 139.094998 
L 254.962824 139.841079 
L 257.220586 140.577287 
L 259.434755 141.264882 
L 261.571016 141.868114 
L 263.596017 142.356405 
L 265.477804 142.706204 
L 267.186261 142.902392 
L 268.693552 142.939139 
L 269.974567 142.820176 
L 271.007353 142.558445 
L 271.77354 142.175171 
L 272.25873 141.698407 
z
" style="fill:#0000ff;stroke:#000000;stroke-linejoin:miter;"/>
   </g>
   <g id="patch_6">
    <path clip-path="url(#p0bf0ead4e8)" d="M 259.134569 148.231845 
L 194.128623 142.805902 
L 193.676462 148.223064 
L 258.682407 153.649007 
z
" style="fill:#999999;stroke:#000000;stroke-linejoin:miter;"/>
   </g>
   <g id="text_1">
    <!-- t = 1.2 -->
    <defs>
     <path d="M 18.3125 70.21875 
L 18.3125 54.6875 
L 36.8125 54.6875 
L 36.8125 47.703125 
L 18.3125 47.703125 
L 18.3125 18.015625 
Q 18.3125 11.328125 20.140625 9.421875 
Q 21.96875 7.515625 27.59375 7.515625 
L 36.8125 7.515625 
L 36.8125 0 
L 27.59375 0 
Q 17.1875 0 13.234375 3.875 
Q 9.28125 7.765625 9.28125 18.015625 
L 9.28125 47.703125 
L 2.6875 47.703125 
L 2.6875 54.6875 
L 9.28125 54.6875 
L 9.28125 70.21875 
z
" id="DejaVuSans-116"/>
     <path id="DejaVuSans-32"/>
     <path d="M 10.59375 45.40625 
L 73.1875 45.40625 
L 73.1875 37.203125 
L 10.59375 37.203125 
z
M 10.59375 25.484375 
L 73.1875 25.484375 
L 73.1875 17.1875 
L 10.59375 17.1875 
z
" id="DejaVuSans-61"/>
     <path d="M 12.40625 8.296875 
L 28.515625 8.296875 
L 28.515625 63.921875 
L 10.984375 60.40625 
L 10.984375 69.390625 
L 28.421875 72.90625 
L 38.28125 72.90625 
L 38.28125 8.296875 
L 54.390625 8.296875 
L 54.390625 0 
L 12.40625 0 
z
" id="DejaVuSans-49"/>
     <path d="M 10.6875 12.40625 
L 21 12.40625 
L 21 0 
L 10.6875 0 
z
" id="DejaVuSans-46"/>
     <path d="M 19.1875 8.296875 
L 53.609375 8.296875 
L 53.609375 0 
L 7.328125 0 
L 7.328125 8.296875 
Q 12.9375 14.109375 22.625 23.890625 
Q 32.328125 33.6875 34.8125 36.53125 
Q 39.546875 41.84375 41.421875 45.53125 
Q 43.3125 49.21875 43.3125 52.78125 
Q 43.3125 58.59375 39.234375 62.25 
Q 35.15625 65.921875 28.609375 65.921875 
Q 23.96875 65.921875 18.8125 64.3125 
Q 13.671875 62.703125 7.8125 59.421875 
L 7.8125 69.390625 
Q 13.765625 71.78125 18.9375 73 
Q 24.125 74.21875 28.421875 74.21875 
Q 39.75 74.21875 46.484375 68.546875 
Q 53.21875 62.890625 53.21875 53.421875 
Q 53.21875 48.921875 51.53125 44.890625 
Q 49.859375 40.875 45.40625 35.40625 
Q 44.1875 33.984375 37.640625 27.21875 
Q 31.109375 20.453125 19.1875 8.296875 
z
" id="DejaVuSans-50"/>
    </defs>
    <g transform="translate(200.664375 28.56)scale(0.12 -0.12)">
     <use xlink:href="#DejaVuSans-116"/>
     <use x="39.208984" xlink:href="#DejaVuSans-32"/>
     <use x="70.996094" xlink:href="#DejaVuSans-61"/>
     <use x="154.785156" xlink:href="#DejaVuSans-32"/>
     <use x="186.572266" xlink:href="#DejaVuSans-49"/>
     <use x="250.195312" xlink:href="#DejaVuSans-46"/>
     <use x="281.982422" xlink:href="#DejaVuSans-50"/>
    </g>
   </g>
  </g>
 </g>
 <defs>
  <clipPath id="p0bf0ead4e8">
   <rect height="217.44" width="334.8" x="54" y="34.56"/>
  </clipPath>
 </defs>
</svg>
