<?xml version="1.0" encoding="utf-8" standalone="no"?>
<!DOCTYPE svg PUBLIC "-//W3C//DTD SVG 1.1//EN"
  "http://www.w3.org/Graphics/SVG/1.1/DTD/svg11.dtd">
<!-- Created with matplotlib (https://matplotlib.org/) -->
<svg height="288pt" version="1.1" viewBox="0 0 432 288" width="432pt" xmlns="http://www.w3.org/2000/svg" xmlns:xlink="http://www.w3.org/1999/xlink">
 <defs>
  <style type="text/css">
*{stroke-linecap:butt;stroke-linejoin:round;}
  </style>
 </defs>
 <g id="figure_1">
  <g id="patch_1">
   <path d="M 0 288 
L 432 288 
L 432 0 
L 0 0 
z
" style="fill:#ffffff;"/>
  </g>
  <g id="axes_1">
   <g id="patch_2">
    <path clip-path="url(#pde5eada2d8)" d="M 194.681113 132.476395 
L 194.700394 143.348377 
L 193.613196 143.350306 
L 193.593914 132.478323 
z
" style="stroke:#000000;stroke-linejoin:miter;"/>
   </g>
   <g id="patch_3">
    <path clip-path="url(#pde5eada2d8)" d="M 249.041027 132.379988 
L 249.060308 143.251971 
L 247.97311 143.253899 
L 247.953829 132.381917 
z
" style="stroke:#000000;stroke-linejoin:miter;"/>
   </g>
   <g id="patch_4">
    <path clip-path="url(#pde5eada2d8)" d="M 212.257485 132.445223 
L 212.107742 131.893941 
L 211.662977 131.37926 
L 210.930536 130.934882 
L 209.922486 130.589939 
L 208.655409 130.367081 
L 207.150129 130.280995 
L 205.431371 130.337443 
L 203.527353 130.532881 
L 201.469322 130.854693 
L 199.291042 131.282006 
L 197.028244 131.78706 
L 194.71804 132.337015 
L 192.398316 132.896099 
L 190.107114 133.427945 
L 187.882008 133.897963 
L 185.759496 134.275602 
L 183.774395 134.536346 
L 181.959279 134.663312 
L 180.343941 134.648353 
L 178.954907 134.492587 
L 177.814998 134.206323 
L 176.942957 133.808386 
L 176.353137 133.324881 
L 176.055265 132.787484 
L 176.054278 132.231372 
L 176.350243 131.692922 
L 176.938344 131.207327 
L 177.808968 130.8063 
L 178.947855 130.515995 
L 180.336328 130.355303 
L 181.951602 130.334614 
L 183.767157 130.455141 
L 185.75317 130.708843 
L 187.877009 131.078951 
L 190.103767 131.541074 
L 192.396842 132.06479 
L 194.718534 132.615643 
L 197.030674 133.1574 
L 199.295249 133.654424 
L 201.475031 134.074009 
L 203.534191 134.388518 
L 205.438891 134.577202 
L 207.157838 134.627554 
L 208.662802 134.536129 
L 209.929081 134.308778 
L 210.935902 133.960262 
L 211.666761 133.513289 
L 212.109699 132.997033 
z
" style="fill:#0000ff;stroke:#000000;stroke-linejoin:miter;"/>
   </g>
   <g id="patch_5">
    <path clip-path="url(#pde5eada2d8)" d="M 266.6174 132.348817 
L 266.467657 131.797535 
L 266.022891 131.282854 
L 265.290451 130.838476 
L 264.282401 130.493533 
L 263.015323 130.270675 
L 261.510044 130.184589 
L 259.791286 130.241037 
L 257.887268 130.436475 
L 255.829236 130.758287 
L 253.650956 131.1856 
L 251.388159 131.690653 
L 249.077955 132.240608 
L 246.758231 132.799693 
L 244.467028 133.331539 
L 242.241923 133.801557 
L 240.11941 134.179196 
L 238.13431 134.43994 
L 236.319194 134.566906 
L 234.703856 134.551947 
L 233.314822 134.39618 
L 232.174913 134.109917 
L 231.302871 133.71198 
L 230.713051 133.228475 
L 230.415179 132.691078 
L 230.414193 132.134966 
L 230.710157 131.596516 
L 231.298259 131.110921 
L 232.168883 130.709894 
L 233.307769 130.419589 
L 234.696242 130.258897 
L 236.311517 130.238208 
L 238.127072 130.358735 
L 240.113085 130.612437 
L 242.236923 130.982545 
L 244.463682 131.444668 
L 246.756756 131.968384 
L 249.078449 132.519237 
L 251.390589 133.060994 
L 253.655164 133.558018 
L 255.834945 133.977603 
L 257.894106 134.292112 
L 259.798805 134.480796 
L 261.517752 134.531148 
L 263.022717 134.439723 
L 264.288996 134.212372 
L 265.295816 133.863855 
L 266.026676 133.416883 
L 266.469613 132.900627 
z
" style="fill:#0000ff;stroke:#000000;stroke-linejoin:miter;"/>
   </g>
   <g id="patch_6">
    <path clip-path="url(#pde5eada2d8)" d="M 253.94788 140.525299 
L 188.715983 140.640986 
L 188.725624 146.076978 
L 253.957521 145.961291 
z
" style="fill:#999999;stroke:#000000;stroke-linejoin:miter;"/>
   </g>
   <g id="text_1">
    <!-- t = 2.7 -->
    <defs>
     <path d="M 18.3125 70.21875 
L 18.3125 54.6875 
L 36.8125 54.6875 
L 36.8125 47.703125 
L 18.3125 47.703125 
L 18.3125 18.015625 
Q 18.3125 11.328125 20.140625 9.421875 
Q 21.96875 7.515625 27.59375 7.515625 
L 36.8125 7.515625 
L 36.8125 0 
L 27.59375 0 
Q 17.1875 0 13.234375 3.875 
Q 9.28125 7.765625 9.28125 18.015625 
L 9.28125 47.703125 
L 2.6875 47.703125 
L 2.6875 54.6875 
L 9.28125 54.6875 
L 9.28125 70.21875 
z
" id="DejaVuSans-116"/>
     <path id="DejaVuSans-32"/>
     <path d="M 10.59375 45.40625 
L 73.1875 45.40625 
L 73.1875 37.203125 
L 10.59375 37.203125 
z
M 10.59375 25.484375 
L 73.1875 25.484375 
L 73.1875 17.1875 
L 10.59375 17.1875 
z
" id="DejaVuSans-61"/>
     <path d="M 19.1875 8.296875 
L 53.609375 8.296875 
L 53.609375 0 
L 7.328125 0 
L 7.328125 8.296875 
Q 12.9375 14.109375 22.625 23.890625 
Q 32.328125 33.6875 34.8125 36.53125 
Q 39.546875 41.84375 41.421875 45.53125 
Q 43.3125 49.21875 43.3125 52.78125 
Q 43.3125 58.59375 39.234375 62.25 
Q 35.15625 65.921875 28.609375 65.921875 
Q 23.96875 65.921875 18.8125 64.3125 
Q 13.671875 62.703125 7.8125 59.421875 
L 7.8125 69.390625 
Q 13.765625 71.78125 18.9375 73 
Q 24.125 74.21875 28.421875 74.21875 
Q 39.75 74.21875 46.484375 68.546875 
Q 53.21875 62.890625 53.21875 53.421875 
Q 53.21875 48.921875 51.53125 44.890625 
Q 49.859375 40.875 45.40625 35.40625 
Q 44.1875 33.984375 37.640625 27.21875 
Q 31.109375 20.453125 19.1875 8.296875 
z
" id="DejaVuSans-50"/>
     <path d="M 10.6875 12.40625 
L 21 12.40625 
L 21 0 
L 10.6875 0 
z
" id="DejaVuSans-46"/>
     <path d="M 8.203125 72.90625 
L 55.078125 72.90625 
L 55.078125 68.703125 
L 28.609375 0 
L 18.3125 0 
L 43.21875 64.59375 
L 8.203125 64.59375 
z
" id="DejaVuSans-55"/>
    </defs>
    <g transform="translate(200.664375 28.56)scale(0.12 -0.12)">
     <use xlink:href="#DejaVuSans-116"/>
     <use x="39.208984" xlink:href="#DejaVuSans-32"/>
     <use x="70.996094" xlink:href="#DejaVuSans-61"/>
     <use x="154.785156" xlink:href="#DejaVuSans-32"/>
     <use x="186.572266" xlink:href="#DejaVuSans-50"/>
     <use x="250.195312" xlink:href="#DejaVuSans-46"/>
     <use x="281.982422" xlink:href="#DejaVuSans-55"/>
    </g>
   </g>
  </g>
 </g>
 <defs>
  <clipPath id="pde5eada2d8">
   <rect height="217.44" width="334.8" x="54" y="34.56"/>
  </clipPath>
 </defs>
</svg>
