<?xml version="1.0" encoding="utf-8" standalone="no"?>
<!DOCTYPE svg PUBLIC "-//W3C//DTD SVG 1.1//EN"
  "http://www.w3.org/Graphics/SVG/1.1/DTD/svg11.dtd">
<!-- Created with matplotlib (https://matplotlib.org/) -->
<svg height="288pt" version="1.1" viewBox="0 0 432 288" width="432pt" xmlns="http://www.w3.org/2000/svg" xmlns:xlink="http://www.w3.org/1999/xlink">
 <defs>
  <style type="text/css">
*{stroke-linecap:butt;stroke-linejoin:round;}
  </style>
 </defs>
 <g id="figure_1">
  <g id="patch_1">
   <path d="M 0 288 
L 432 288 
L 432 0 
L 0 0 
z
" style="fill:#ffffff;"/>
  </g>
  <g id="axes_1">
   <g id="patch_2">
    <path clip-path="url(#p0ee4428ce1)" d="M 172.3513 150.456919 
L 175.217225 160.944381 
L 174.168479 161.230974 
L 171.302554 150.743512 
z
" style="stroke:#000000;stroke-linejoin:miter;"/>
   </g>
   <g id="patch_3">
    <path clip-path="url(#p0ee4428ce1)" d="M 224.78861 136.127294 
L 227.654535 146.614756 
L 226.605789 146.901348 
L 223.739864 136.413886 
z
" style="stroke:#000000;stroke-linejoin:miter;"/>
   </g>
   <g id="patch_4">
    <path clip-path="url(#p0ee4428ce1)" d="M 189.30603 145.823674 
L 189.017136 145.330851 
L 188.453102 144.950615 
L 187.629846 144.71357 
L 186.566642 144.64467 
L 185.285424 144.761431 
L 183.810139 145.072575 
L 182.166156 145.577187 
L 180.379779 146.264457 
L 178.477861 147.114024 
L 176.487522 148.096902 
L 174.435975 149.176943 
L 172.350436 150.312733 
L 170.2581 151.459827 
L 168.186156 152.573164 
L 166.161811 153.60952 
L 164.212283 154.529854 
L 162.364757 155.301385 
L 160.646247 155.899289 
L 159.083372 156.3079 
L 157.702026 156.521352 
L 156.526933 156.543617 
L 155.581112 156.387953 
L 154.885251 156.075794 
L 154.457034 155.635165 
L 154.310439 155.098722 
L 154.455056 154.501554 
L 154.895456 153.878888 
L 155.630665 153.263846 
L 156.653771 152.685405 
L 157.951697 152.166688 
L 159.505174 151.723689 
L 161.288925 151.364525 
L 163.272062 151.089244 
L 165.418701 150.890212 
L 167.688765 150.753028 
L 170.038961 150.65792 
L 172.423884 150.581507 
L 174.797205 150.498817 
L 177.112907 150.385413 
L 179.326493 150.219479 
L 181.39615 149.983727 
L 183.283784 149.666994 
L 184.95592 149.265405 
L 186.384413 148.783028 
L 187.546952 148.231981 
L 188.427356 147.631948 
L 189.015646 147.009168 
L 189.307918 146.394928 
z
" style="fill:#0000ff;stroke:#000000;stroke-linejoin:miter;"/>
   </g>
   <g id="patch_5">
    <path clip-path="url(#p0ee4428ce1)" d="M 241.74334 131.494048 
L 241.454446 131.001225 
L 240.890411 130.620989 
L 240.067155 130.383944 
L 239.003951 130.315044 
L 237.722734 130.431806 
L 236.247448 130.742949 
L 234.603465 131.247561 
L 232.817088 131.934831 
L 230.91517 132.784398 
L 228.924831 133.767277 
L 226.873284 134.847317 
L 224.787745 135.983107 
L 222.69541 137.130202 
L 220.623466 138.243538 
L 218.59912 139.279895 
L 216.649593 140.200229 
L 214.802067 140.97176 
L 213.083556 141.569663 
L 211.520682 141.978275 
L 210.139336 142.191726 
L 208.964243 142.213991 
L 208.018421 142.058327 
L 207.32256 141.746168 
L 206.894343 141.305539 
L 206.747749 140.769097 
L 206.892365 140.171929 
L 207.332765 139.549262 
L 208.067975 138.93422 
L 209.091081 138.355779 
L 210.389006 137.837062 
L 211.942484 137.394063 
L 213.726234 137.034899 
L 215.709372 136.759618 
L 217.85601 136.560587 
L 220.126075 136.423403 
L 222.476271 136.328294 
L 224.861194 136.251881 
L 227.234515 136.169191 
L 229.550216 136.055787 
L 231.763803 135.889853 
L 233.833459 135.654101 
L 235.721093 135.337369 
L 237.39323 134.935779 
L 238.821722 134.453403 
L 239.984261 133.902355 
L 240.864665 133.302322 
L 241.452955 132.679542 
L 241.745228 132.065302 
z
" style="fill:#0000ff;stroke:#000000;stroke-linejoin:miter;"/>
   </g>
   <g id="patch_6">
    <path clip-path="url(#p0ee4428ce1)" d="M 231.657411 142.703224 
L 168.73264 159.898775 
L 170.165603 165.142506 
L 233.090374 147.946955 
z
" style="fill:#999999;stroke:#000000;stroke-linejoin:miter;"/>
   </g>
   <g id="text_1">
    <!-- t = 1.0 -->
    <defs>
     <path d="M 18.3125 70.21875 
L 18.3125 54.6875 
L 36.8125 54.6875 
L 36.8125 47.703125 
L 18.3125 47.703125 
L 18.3125 18.015625 
Q 18.3125 11.328125 20.140625 9.421875 
Q 21.96875 7.515625 27.59375 7.515625 
L 36.8125 7.515625 
L 36.8125 0 
L 27.59375 0 
Q 17.1875 0 13.234375 3.875 
Q 9.28125 7.765625 9.28125 18.015625 
L 9.28125 47.703125 
L 2.6875 47.703125 
L 2.6875 54.6875 
L 9.28125 54.6875 
L 9.28125 70.21875 
z
" id="DejaVuSans-116"/>
     <path id="DejaVuSans-32"/>
     <path d="M 10.59375 45.40625 
L 73.1875 45.40625 
L 73.1875 37.203125 
L 10.59375 37.203125 
z
M 10.59375 25.484375 
L 73.1875 25.484375 
L 73.1875 17.1875 
L 10.59375 17.1875 
z
" id="DejaVuSans-61"/>
     <path d="M 12.40625 8.296875 
L 28.515625 8.296875 
L 28.515625 63.921875 
L 10.984375 60.40625 
L 10.984375 69.390625 
L 28.421875 72.90625 
L 38.28125 72.90625 
L 38.28125 8.296875 
L 54.390625 8.296875 
L 54.390625 0 
L 12.40625 0 
z
" id="DejaVuSans-49"/>
     <path d="M 10.6875 12.40625 
L 21 12.40625 
L 21 0 
L 10.6875 0 
z
" id="DejaVuSans-46"/>
     <path d="M 31.78125 66.40625 
Q 24.171875 66.40625 20.328125 58.90625 
Q 16.5 51.421875 16.5 36.375 
Q 16.5 21.390625 20.328125 13.890625 
Q 24.171875 6.390625 31.78125 6.390625 
Q 39.453125 6.390625 43.28125 13.890625 
Q 47.125 21.390625 47.125 36.375 
Q 47.125 51.421875 43.28125 58.90625 
Q 39.453125 66.40625 31.78125 66.40625 
z
M 31.78125 74.21875 
Q 44.046875 74.21875 50.515625 64.515625 
Q 56.984375 54.828125 56.984375 36.375 
Q 56.984375 17.96875 50.515625 8.265625 
Q 44.046875 -1.421875 31.78125 -1.421875 
Q 19.53125 -1.421875 13.0625 8.265625 
Q 6.59375 17.96875 6.59375 36.375 
Q 6.59375 54.828125 13.0625 64.515625 
Q 19.53125 74.21875 31.78125 74.21875 
z
" id="DejaVuSans-48"/>
    </defs>
    <g transform="translate(200.664375 28.56)scale(0.12 -0.12)">
     <use xlink:href="#DejaVuSans-116"/>
     <use x="39.208984" xlink:href="#DejaVuSans-32"/>
     <use x="70.996094" xlink:href="#DejaVuSans-61"/>
     <use x="154.785156" xlink:href="#DejaVuSans-32"/>
     <use x="186.572266" xlink:href="#DejaVuSans-49"/>
     <use x="250.195312" xlink:href="#DejaVuSans-46"/>
     <use x="281.982422" xlink:href="#DejaVuSans-48"/>
    </g>
   </g>
  </g>
 </g>
 <defs>
  <clipPath id="p0ee4428ce1">
   <rect height="217.44" width="334.8" x="54" y="34.56"/>
  </clipPath>
 </defs>
</svg>
