<?xml version="1.0" encoding="utf-8" standalone="no"?>
<!DOCTYPE svg PUBLIC "-//W3C//DTD SVG 1.1//EN"
  "http://www.w3.org/Graphics/SVG/1.1/DTD/svg11.dtd">
<!-- Created with matplotlib (https://matplotlib.org/) -->
<svg height="288pt" version="1.1" viewBox="0 0 432 288" width="432pt" xmlns="http://www.w3.org/2000/svg" xmlns:xlink="http://www.w3.org/1999/xlink">
 <defs>
  <style type="text/css">
*{stroke-linecap:butt;stroke-linejoin:round;}
  </style>
 </defs>
 <g id="figure_1">
  <g id="patch_1">
   <path d="M 0 288 
L 432 288 
L 432 0 
L 0 0 
z
" style="fill:#ffffff;"/>
  </g>
  <g id="axes_1">
   <g id="patch_2">
    <path clip-path="url(#p24c7b553ce)" d="M 194.66813 132.404385 
L 194.669516 143.276385 
L 193.582316 143.276524 
L 193.58093 132.404524 
z
" style="stroke:#000000;stroke-linejoin:miter;"/>
   </g>
   <g id="patch_3">
    <path clip-path="url(#p24c7b553ce)" d="M 249.028129 132.397453 
L 249.029516 143.269453 
L 247.942316 143.269591 
L 247.940929 132.397591 
z
" style="stroke:#000000;stroke-linejoin:miter;"/>
   </g>
   <g id="patch_4">
    <path clip-path="url(#p24c7b553ce)" d="M 212.244529 132.402144 
L 212.095694 131.850616 
L 211.651776 131.335203 
L 210.920068 130.889621 
L 209.912587 130.543019 
L 208.645878 130.318075 
L 207.140743 130.229512 
L 205.421894 130.283131 
L 203.517557 130.475435 
L 201.458998 130.793859 
L 199.280018 131.217586 
L 197.016392 131.718915 
L 194.705286 132.265066 
L 192.384645 132.820332 
L 190.092571 133.348406 
L 187.866695 133.814761 
L 185.743563 134.188906 
L 183.758036 134.446382 
L 181.942714 134.570361 
L 180.327403 134.552742 
L 178.938627 134.39469 
L 177.799191 134.106551 
L 176.927805 133.707179 
L 176.338782 133.222704 
L 176.041795 132.684817 
L 176.041724 132.128705 
L 176.338574 131.590742 
L 176.927474 131.106116 
L 177.798757 130.706522 
L 178.93812 130.418093 
L 180.326855 130.259686 
L 181.942162 130.241656 
L 183.757516 130.365171 
L 185.743108 130.622141 
L 187.866335 130.995745 
L 190.09233 131.461532 
L 192.384539 131.989021 
L 194.705322 132.543695 
L 197.016567 133.089257 
L 199.280321 133.590008 
L 201.459409 134.01318 
L 203.518049 134.331078 
L 205.422435 134.522897 
L 207.141297 134.576077 
L 208.64641 134.48713 
L 209.913062 134.261864 
L 210.920454 133.915005 
L 211.652048 133.469236 
L 212.095835 132.953709 
z
" style="fill:#0000ff;stroke:#000000;stroke-linejoin:miter;"/>
   </g>
   <g id="patch_5">
    <path clip-path="url(#p24c7b553ce)" d="M 266.604529 132.395211 
L 266.455694 131.843684 
L 266.011776 131.32827 
L 265.280068 130.882688 
L 264.272587 130.536086 
L 263.005878 130.311143 
L 261.500742 130.222579 
L 259.781894 130.276198 
L 257.877557 130.468502 
L 255.818998 130.786926 
L 253.640018 131.210653 
L 251.376392 131.711982 
L 249.065286 132.258134 
L 246.744645 132.813399 
L 244.45257 133.341473 
L 242.226694 133.807828 
L 240.103563 134.181973 
L 238.118036 134.43945 
L 236.302713 134.563428 
L 234.687402 134.54581 
L 233.298626 134.387757 
L 232.15919 134.099618 
L 231.287805 133.700247 
L 230.698781 133.215771 
L 230.401794 132.677884 
L 230.401723 132.121772 
L 230.698573 131.58381 
L 231.287473 131.099184 
L 232.158757 130.69959 
L 233.298119 130.41116 
L 234.686855 130.252754 
L 236.302161 130.234723 
L 238.117515 130.358238 
L 240.103108 130.615208 
L 242.226335 130.988812 
L 244.45233 131.454599 
L 246.744539 131.982089 
L 249.065321 132.536762 
L 251.376567 133.082324 
L 253.64032 133.583076 
L 255.819409 134.006247 
L 257.878048 134.324146 
L 259.782435 134.515964 
L 261.501296 134.569145 
L 263.00641 134.480197 
L 264.273061 134.254931 
L 265.280454 133.908072 
L 266.012048 133.462303 
L 266.455834 132.946777 
z
" style="fill:#0000ff;stroke:#000000;stroke-linejoin:miter;"/>
   </g>
   <g id="patch_6">
    <path clip-path="url(#p24c7b553ce)" d="M 253.921569 140.550829 
L 188.68957 140.559148 
L 188.690263 145.995148 
L 253.922262 145.986829 
z
" style="fill:#999999;stroke:#000000;stroke-linejoin:miter;"/>
   </g>
   <g id="text_1">
    <!-- t = 2.6 -->
    <defs>
     <path d="M 18.3125 70.21875 
L 18.3125 54.6875 
L 36.8125 54.6875 
L 36.8125 47.703125 
L 18.3125 47.703125 
L 18.3125 18.015625 
Q 18.3125 11.328125 20.140625 9.421875 
Q 21.96875 7.515625 27.59375 7.515625 
L 36.8125 7.515625 
L 36.8125 0 
L 27.59375 0 
Q 17.1875 0 13.234375 3.875 
Q 9.28125 7.765625 9.28125 18.015625 
L 9.28125 47.703125 
L 2.6875 47.703125 
L 2.6875 54.6875 
L 9.28125 54.6875 
L 9.28125 70.21875 
z
" id="DejaVuSans-116"/>
     <path id="DejaVuSans-32"/>
     <path d="M 10.59375 45.40625 
L 73.1875 45.40625 
L 73.1875 37.203125 
L 10.59375 37.203125 
z
M 10.59375 25.484375 
L 73.1875 25.484375 
L 73.1875 17.1875 
L 10.59375 17.1875 
z
" id="DejaVuSans-61"/>
     <path d="M 19.1875 8.296875 
L 53.609375 8.296875 
L 53.609375 0 
L 7.328125 0 
L 7.328125 8.296875 
Q 12.9375 14.109375 22.625 23.890625 
Q 32.328125 33.6875 34.8125 36.53125 
Q 39.546875 41.84375 41.421875 45.53125 
Q 43.3125 49.21875 43.3125 52.78125 
Q 43.3125 58.59375 39.234375 62.25 
Q 35.15625 65.921875 28.609375 65.921875 
Q 23.96875 65.921875 18.8125 64.3125 
Q 13.671875 62.703125 7.8125 59.421875 
L 7.8125 69.390625 
Q 13.765625 71.78125 18.9375 73 
Q 24.125 74.21875 28.421875 74.21875 
Q 39.75 74.21875 46.484375 68.546875 
Q 53.21875 62.890625 53.21875 53.421875 
Q 53.21875 48.921875 51.53125 44.890625 
Q 49.859375 40.875 45.40625 35.40625 
Q 44.1875 33.984375 37.640625 27.21875 
Q 31.109375 20.453125 19.1875 8.296875 
z
" id="DejaVuSans-50"/>
     <path d="M 10.6875 12.40625 
L 21 12.40625 
L 21 0 
L 10.6875 0 
z
" id="DejaVuSans-46"/>
     <path d="M 33.015625 40.375 
Q 26.375 40.375 22.484375 35.828125 
Q 18.609375 31.296875 18.609375 23.390625 
Q 18.609375 15.53125 22.484375 10.953125 
Q 26.375 6.390625 33.015625 6.390625 
Q 39.65625 6.390625 43.53125 10.953125 
Q 47.40625 15.53125 47.40625 23.390625 
Q 47.40625 31.296875 43.53125 35.828125 
Q 39.65625 40.375 33.015625 40.375 
z
M 52.59375 71.296875 
L 52.59375 62.3125 
Q 48.875 64.0625 45.09375 64.984375 
Q 41.3125 65.921875 37.59375 65.921875 
Q 27.828125 65.921875 22.671875 59.328125 
Q 17.53125 52.734375 16.796875 39.40625 
Q 19.671875 43.65625 24.015625 45.921875 
Q 28.375 48.1875 33.59375 48.1875 
Q 44.578125 48.1875 50.953125 41.515625 
Q 57.328125 34.859375 57.328125 23.390625 
Q 57.328125 12.15625 50.6875 5.359375 
Q 44.046875 -1.421875 33.015625 -1.421875 
Q 20.359375 -1.421875 13.671875 8.265625 
Q 6.984375 17.96875 6.984375 36.375 
Q 6.984375 53.65625 15.1875 63.9375 
Q 23.390625 74.21875 37.203125 74.21875 
Q 40.921875 74.21875 44.703125 73.484375 
Q 48.484375 72.75 52.59375 71.296875 
z
" id="DejaVuSans-54"/>
    </defs>
    <g transform="translate(200.664375 28.56)scale(0.12 -0.12)">
     <use xlink:href="#DejaVuSans-116"/>
     <use x="39.208984" xlink:href="#DejaVuSans-32"/>
     <use x="70.996094" xlink:href="#DejaVuSans-61"/>
     <use x="154.785156" xlink:href="#DejaVuSans-32"/>
     <use x="186.572266" xlink:href="#DejaVuSans-50"/>
     <use x="250.195312" xlink:href="#DejaVuSans-46"/>
     <use x="281.982422" xlink:href="#DejaVuSans-54"/>
    </g>
   </g>
  </g>
 </g>
 <defs>
  <clipPath id="p24c7b553ce">
   <rect height="217.44" width="334.8" x="54" y="34.56"/>
  </clipPath>
 </defs>
</svg>
