<?xml version="1.0" encoding="utf-8" standalone="no"?>
<!DOCTYPE svg PUBLIC "-//W3C//DTD SVG 1.1//EN"
  "http://www.w3.org/Graphics/SVG/1.1/DTD/svg11.dtd">
<!-- Created with matplotlib (https://matplotlib.org/) -->
<svg height="288pt" version="1.1" viewBox="0 0 432 288" width="432pt" xmlns="http://www.w3.org/2000/svg" xmlns:xlink="http://www.w3.org/1999/xlink">
 <defs>
  <style type="text/css">
*{stroke-linecap:butt;stroke-linejoin:round;}
  </style>
 </defs>
 <g id="figure_1">
  <g id="patch_1">
   <path d="M 0 288 
L 432 288 
L 432 0 
L 0 0 
z
" style="fill:#ffffff;"/>
  </g>
  <g id="axes_1">
   <g id="patch_2">
    <path clip-path="url(#p07d4acbce0)" d="M 194.482558 130.944461 
L 194.373906 141.815918 
L 193.286761 141.805053 
L 193.395412 130.933596 
z
" style="stroke:#000000;stroke-linejoin:miter;"/>
   </g>
   <g id="patch_3">
    <path clip-path="url(#p07d4acbce0)" d="M 248.839843 131.487719 
L 248.731192 142.359176 
L 247.644046 142.348311 
L 247.752698 131.476854 
z
" style="stroke:#000000;stroke-linejoin:miter;"/>
   </g>
   <g id="patch_4">
    <path clip-path="url(#p07d4acbce0)" d="M 212.05808 131.120114 
L 211.914835 130.567109 
L 211.476156 130.047229 
L 210.748995 129.594264 
L 209.745074 129.237483 
L 208.480707 128.99973 
L 206.976545 128.895937 
L 205.257242 128.932156 
L 203.351056 129.105177 
L 201.28938 129.402749 
L 199.106222 129.804401 
L 196.837638 130.282793 
L 194.521123 130.805525 
L 192.194981 131.337275 
L 189.897679 131.842123 
L 187.667197 132.285925 
L 185.540387 132.638563 
L 183.552356 132.87593 
L 181.735871 132.981528 
L 180.120822 132.947562 
L 178.733717 132.775462 
L 177.597255 132.475805 
L 176.729957 132.067634 
L 176.145867 131.577221 
L 175.854339 131.036357 
L 175.859896 130.480272 
L 176.162176 129.945342 
L 176.755951 129.466701 
L 177.631234 129.075946 
L 178.773458 128.799063 
L 180.163725 128.65472 
L 181.779131 128.65304 
L 183.593142 128.794922 
L 185.576033 129.071976 
L 187.695369 129.46705 
L 189.916536 129.955343 
L 192.203289 130.506005 
L 194.518338 131.08414 
L 196.823943 131.653067 
L 199.082513 132.176704 
L 201.257207 132.621909 
L 203.312523 132.960627 
L 205.214871 133.171711 
L 206.933106 133.242286 
L 208.439043 133.168577 
L 209.707909 132.956142 
L 210.718761 132.619497 
L 211.454829 132.181155 
L 211.903811 131.670147 
z
" style="fill:#0000ff;stroke:#000000;stroke-linejoin:miter;"/>
   </g>
   <g id="patch_5">
    <path clip-path="url(#p07d4acbce0)" d="M 266.415366 131.663373 
L 266.27212 131.110367 
L 265.833442 130.590487 
L 265.106281 130.137522 
L 264.10236 129.780741 
L 262.837992 129.542988 
L 261.33383 129.439196 
L 259.614527 129.475415 
L 257.708341 129.648435 
L 255.646665 129.946007 
L 253.463508 130.347659 
L 251.194924 130.826051 
L 248.878408 131.348784 
L 246.552266 131.880533 
L 244.254964 132.385381 
L 242.024482 132.829183 
L 239.897673 133.181821 
L 237.909641 133.419188 
L 236.093157 133.524787 
L 234.478107 133.49082 
L 233.091002 133.31872 
L 231.95454 133.019063 
L 231.087242 132.610893 
L 230.503152 132.12048 
L 230.211624 131.579615 
L 230.217182 131.02353 
L 230.519461 130.4886 
L 231.113236 130.009959 
L 231.988519 129.619204 
L 233.130743 129.342321 
L 234.521011 129.197979 
L 236.136417 129.196298 
L 237.950428 129.338181 
L 239.933318 129.615234 
L 242.052654 130.010308 
L 244.273821 130.498602 
L 246.560574 131.049264 
L 248.875624 131.627398 
L 251.181229 132.196325 
L 253.439798 132.719963 
L 255.614492 133.165167 
L 257.669809 133.503886 
L 259.572156 133.714969 
L 261.290392 133.785544 
L 262.796328 133.711835 
L 264.065194 133.4994 
L 265.076046 133.162755 
L 265.812115 132.724413 
L 266.261096 132.213405 
z
" style="fill:#0000ff;stroke:#000000;stroke-linejoin:miter;"/>
   </g>
   <g id="patch_6">
    <path clip-path="url(#p07d4acbce0)" d="M 253.65051 139.690205 
L 188.421768 139.038295 
L 188.367442 144.474024 
L 253.596184 145.125934 
z
" style="fill:#999999;stroke:#000000;stroke-linejoin:miter;"/>
   </g>
   <g id="text_1">
    <!-- t = 1.3 -->
    <defs>
     <path d="M 18.3125 70.21875 
L 18.3125 54.6875 
L 36.8125 54.6875 
L 36.8125 47.703125 
L 18.3125 47.703125 
L 18.3125 18.015625 
Q 18.3125 11.328125 20.140625 9.421875 
Q 21.96875 7.515625 27.59375 7.515625 
L 36.8125 7.515625 
L 36.8125 0 
L 27.59375 0 
Q 17.1875 0 13.234375 3.875 
Q 9.28125 7.765625 9.28125 18.015625 
L 9.28125 47.703125 
L 2.6875 47.703125 
L 2.6875 54.6875 
L 9.28125 54.6875 
L 9.28125 70.21875 
z
" id="DejaVuSans-116"/>
     <path id="DejaVuSans-32"/>
     <path d="M 10.59375 45.40625 
L 73.1875 45.40625 
L 73.1875 37.203125 
L 10.59375 37.203125 
z
M 10.59375 25.484375 
L 73.1875 25.484375 
L 73.1875 17.1875 
L 10.59375 17.1875 
z
" id="DejaVuSans-61"/>
     <path d="M 12.40625 8.296875 
L 28.515625 8.296875 
L 28.515625 63.921875 
L 10.984375 60.40625 
L 10.984375 69.390625 
L 28.421875 72.90625 
L 38.28125 72.90625 
L 38.28125 8.296875 
L 54.390625 8.296875 
L 54.390625 0 
L 12.40625 0 
z
" id="DejaVuSans-49"/>
     <path d="M 10.6875 12.40625 
L 21 12.40625 
L 21 0 
L 10.6875 0 
z
" id="DejaVuSans-46"/>
     <path d="M 40.578125 39.3125 
Q 47.65625 37.796875 51.625 33 
Q 55.609375 28.21875 55.609375 21.1875 
Q 55.609375 10.40625 48.1875 4.484375 
Q 40.765625 -1.421875 27.09375 -1.421875 
Q 22.515625 -1.421875 17.65625 -0.515625 
Q 12.796875 0.390625 7.625 2.203125 
L 7.625 11.71875 
Q 11.71875 9.328125 16.59375 8.109375 
Q 21.484375 6.890625 26.8125 6.890625 
Q 36.078125 6.890625 40.9375 10.546875 
Q 45.796875 14.203125 45.796875 21.1875 
Q 45.796875 27.640625 41.28125 31.265625 
Q 36.765625 34.90625 28.71875 34.90625 
L 20.21875 34.90625 
L 20.21875 43.015625 
L 29.109375 43.015625 
Q 36.375 43.015625 40.234375 45.921875 
Q 44.09375 48.828125 44.09375 54.296875 
Q 44.09375 59.90625 40.109375 62.90625 
Q 36.140625 65.921875 28.71875 65.921875 
Q 24.65625 65.921875 20.015625 65.03125 
Q 15.375 64.15625 9.8125 62.3125 
L 9.8125 71.09375 
Q 15.4375 72.65625 20.34375 73.4375 
Q 25.25 74.21875 29.59375 74.21875 
Q 40.828125 74.21875 47.359375 69.109375 
Q 53.90625 64.015625 53.90625 55.328125 
Q 53.90625 49.265625 50.4375 45.09375 
Q 46.96875 40.921875 40.578125 39.3125 
z
" id="DejaVuSans-51"/>
    </defs>
    <g transform="translate(200.664375 28.56)scale(0.12 -0.12)">
     <use xlink:href="#DejaVuSans-116"/>
     <use x="39.208984" xlink:href="#DejaVuSans-32"/>
     <use x="70.996094" xlink:href="#DejaVuSans-61"/>
     <use x="154.785156" xlink:href="#DejaVuSans-32"/>
     <use x="186.572266" xlink:href="#DejaVuSans-49"/>
     <use x="250.195312" xlink:href="#DejaVuSans-46"/>
     <use x="281.982422" xlink:href="#DejaVuSans-51"/>
    </g>
   </g>
  </g>
 </g>
 <defs>
  <clipPath id="p07d4acbce0">
   <rect height="217.44" width="334.8" x="54" y="34.56"/>
  </clipPath>
 </defs>
</svg>
