<?xml version="1.0" encoding="utf-8" standalone="no"?>
<!DOCTYPE svg PUBLIC "-//W3C//DTD SVG 1.1//EN"
  "http://www.w3.org/Graphics/SVG/1.1/DTD/svg11.dtd">
<!-- Created with matplotlib (https://matplotlib.org/) -->
<svg height="288pt" version="1.1" viewBox="0 0 432 288" width="432pt" xmlns="http://www.w3.org/2000/svg" xmlns:xlink="http://www.w3.org/1999/xlink">
 <defs>
  <style type="text/css">
*{stroke-linecap:butt;stroke-linejoin:round;}
  </style>
 </defs>
 <g id="figure_1">
  <g id="patch_1">
   <path d="M 0 288 
L 432 288 
L 432 0 
L 0 0 
z
" style="fill:#ffffff;"/>
  </g>
  <g id="axes_1">
   <g id="patch_2">
    <path clip-path="url(#pa9e666e4bb)" d="M 194.755241 132.417182 
L 194.758031 143.289182 
L 193.670831 143.289461 
L 193.668041 132.417461 
z
" style="stroke:#000000;stroke-linejoin:miter;"/>
   </g>
   <g id="patch_3">
    <path clip-path="url(#pa9e666e4bb)" d="M 249.115239 132.403231 
L 249.118029 143.275231 
L 248.030829 143.27551 
L 248.028039 132.40351 
z
" style="stroke:#000000;stroke-linejoin:miter;"/>
   </g>
   <g id="patch_4">
    <path clip-path="url(#pa9e666e4bb)" d="M 212.33164 132.412671 
L 212.182734 131.861163 
L 211.738749 131.345807 
L 211.006984 130.900319 
L 209.999458 130.553847 
L 208.73272 130.329067 
L 207.227573 130.240698 
L 205.508732 130.294539 
L 203.604419 130.487089 
L 201.545902 130.805779 
L 199.366976 131.229787 
L 197.103415 131.731408 
L 194.79238 132.277858 
L 192.47181 132.833423 
L 190.179804 133.361793 
L 187.953988 133.828435 
L 185.830905 134.202855 
L 183.845411 134.460588 
L 182.030105 134.5848 
L 180.414791 134.56739 
L 179.025995 134.409518 
L 177.886522 134.121526 
L 177.015085 133.722266 
L 176.425999 133.237867 
L 176.128942 132.700018 
L 176.1288 132.143906 
L 176.42558 131.605905 
L 177.014418 131.121203 
L 177.885649 130.721497 
L 179.024975 130.43292 
L 180.41369 130.274334 
L 182.028994 130.256096 
L 183.844364 130.379376 
L 185.82999 130.63609 
L 187.953265 131.00942 
L 190.17932 131.47492 
L 192.471597 132.002113 
L 194.792451 132.556487 
L 197.103767 133.101751 
L 199.367585 133.602209 
L 201.546728 134.0251 
L 203.605409 134.342732 
L 205.50982 134.534305 
L 207.228688 134.587264 
L 208.73379 134.498122 
L 210.000413 134.272692 
L 211.00776 133.925703 
L 211.739297 133.47984 
L 212.183017 132.964256 
z
" style="fill:#0000ff;stroke:#000000;stroke-linejoin:miter;"/>
   </g>
   <g id="patch_5">
    <path clip-path="url(#pa9e666e4bb)" d="M 266.691639 132.398721 
L 266.542732 131.847212 
L 266.098748 131.331857 
L 265.366982 130.886368 
L 264.359456 130.539897 
L 263.092719 130.315117 
L 261.587571 130.226748 
L 259.86873 130.280588 
L 257.964417 130.473139 
L 255.9059 130.791828 
L 253.726974 131.215837 
L 251.463413 131.717457 
L 249.152378 132.263908 
L 246.831809 132.819473 
L 244.539802 133.347842 
L 242.313986 133.814485 
L 240.190903 134.188904 
L 238.205409 134.446637 
L 236.390103 134.570849 
L 234.77479 134.55344 
L 233.385993 134.395567 
L 232.24652 134.107575 
L 231.375083 133.708316 
L 230.785997 133.223916 
L 230.488941 132.686068 
L 230.488798 132.129955 
L 230.785578 131.591955 
L 231.374416 131.107253 
L 232.245647 130.707546 
L 233.384973 130.418969 
L 234.773688 130.260384 
L 236.388992 130.242145 
L 238.204362 130.365426 
L 240.189988 130.622139 
L 242.313263 130.995469 
L 244.539318 131.460969 
L 246.831595 131.988162 
L 249.152449 132.542536 
L 251.463765 133.0878 
L 253.727583 133.588259 
L 255.906726 134.011149 
L 257.965407 134.328782 
L 259.869818 134.520355 
L 261.588687 134.573313 
L 263.093788 134.484171 
L 264.360411 134.258741 
L 265.367758 133.911753 
L 266.099295 133.465889 
L 266.543015 132.950305 
z
" style="fill:#0000ff;stroke:#000000;stroke-linejoin:miter;"/>
   </g>
   <g id="patch_6">
    <path clip-path="url(#pa9e666e4bb)" d="M 254.009732 140.555976 
L 188.777734 140.572716 
L 188.779129 146.008716 
L 254.011127 145.991975 
z
" style="fill:#999999;stroke:#000000;stroke-linejoin:miter;"/>
   </g>
   <g id="text_1">
    <!-- t = 3.4 -->
    <defs>
     <path d="M 18.3125 70.21875 
L 18.3125 54.6875 
L 36.8125 54.6875 
L 36.8125 47.703125 
L 18.3125 47.703125 
L 18.3125 18.015625 
Q 18.3125 11.328125 20.140625 9.421875 
Q 21.96875 7.515625 27.59375 7.515625 
L 36.8125 7.515625 
L 36.8125 0 
L 27.59375 0 
Q 17.1875 0 13.234375 3.875 
Q 9.28125 7.765625 9.28125 18.015625 
L 9.28125 47.703125 
L 2.6875 47.703125 
L 2.6875 54.6875 
L 9.28125 54.6875 
L 9.28125 70.21875 
z
" id="DejaVuSans-116"/>
     <path id="DejaVuSans-32"/>
     <path d="M 10.59375 45.40625 
L 73.1875 45.40625 
L 73.1875 37.203125 
L 10.59375 37.203125 
z
M 10.59375 25.484375 
L 73.1875 25.484375 
L 73.1875 17.1875 
L 10.59375 17.1875 
z
" id="DejaVuSans-61"/>
     <path d="M 40.578125 39.3125 
Q 47.65625 37.796875 51.625 33 
Q 55.609375 28.21875 55.609375 21.1875 
Q 55.609375 10.40625 48.1875 4.484375 
Q 40.765625 -1.421875 27.09375 -1.421875 
Q 22.515625 -1.421875 17.65625 -0.515625 
Q 12.796875 0.390625 7.625 2.203125 
L 7.625 11.71875 
Q 11.71875 9.328125 16.59375 8.109375 
Q 21.484375 6.890625 26.8125 6.890625 
Q 36.078125 6.890625 40.9375 10.546875 
Q 45.796875 14.203125 45.796875 21.1875 
Q 45.796875 27.640625 41.28125 31.265625 
Q 36.765625 34.90625 28.71875 34.90625 
L 20.21875 34.90625 
L 20.21875 43.015625 
L 29.109375 43.015625 
Q 36.375 43.015625 40.234375 45.921875 
Q 44.09375 48.828125 44.09375 54.296875 
Q 44.09375 59.90625 40.109375 62.90625 
Q 36.140625 65.921875 28.71875 65.921875 
Q 24.65625 65.921875 20.015625 65.03125 
Q 15.375 64.15625 9.8125 62.3125 
L 9.8125 71.09375 
Q 15.4375 72.65625 20.34375 73.4375 
Q 25.25 74.21875 29.59375 74.21875 
Q 40.828125 74.21875 47.359375 69.109375 
Q 53.90625 64.015625 53.90625 55.328125 
Q 53.90625 49.265625 50.4375 45.09375 
Q 46.96875 40.921875 40.578125 39.3125 
z
" id="DejaVuSans-51"/>
     <path d="M 10.6875 12.40625 
L 21 12.40625 
L 21 0 
L 10.6875 0 
z
" id="DejaVuSans-46"/>
     <path d="M 37.796875 64.3125 
L 12.890625 25.390625 
L 37.796875 25.390625 
z
M 35.203125 72.90625 
L 47.609375 72.90625 
L 47.609375 25.390625 
L 58.015625 25.390625 
L 58.015625 17.1875 
L 47.609375 17.1875 
L 47.609375 0 
L 37.796875 0 
L 37.796875 17.1875 
L 4.890625 17.1875 
L 4.890625 26.703125 
z
" id="DejaVuSans-52"/>
    </defs>
    <g transform="translate(200.664375 28.56)scale(0.12 -0.12)">
     <use xlink:href="#DejaVuSans-116"/>
     <use x="39.208984" xlink:href="#DejaVuSans-32"/>
     <use x="70.996094" xlink:href="#DejaVuSans-61"/>
     <use x="154.785156" xlink:href="#DejaVuSans-32"/>
     <use x="186.572266" xlink:href="#DejaVuSans-51"/>
     <use x="250.195312" xlink:href="#DejaVuSans-46"/>
     <use x="281.982422" xlink:href="#DejaVuSans-52"/>
    </g>
   </g>
  </g>
 </g>
 <defs>
  <clipPath id="pa9e666e4bb">
   <rect height="217.44" width="334.8" x="54" y="34.56"/>
  </clipPath>
 </defs>
</svg>
