<?xml version="1.0" encoding="utf-8" standalone="no"?>
<!DOCTYPE svg PUBLIC "-//W3C//DTD SVG 1.1//EN"
  "http://www.w3.org/Graphics/SVG/1.1/DTD/svg11.dtd">
<!-- Created with matplotlib (https://matplotlib.org/) -->
<svg height="288pt" version="1.1" viewBox="0 0 432 288" width="432pt" xmlns="http://www.w3.org/2000/svg" xmlns:xlink="http://www.w3.org/1999/xlink">
 <defs>
  <style type="text/css">
*{stroke-linecap:butt;stroke-linejoin:round;}
  </style>
 </defs>
 <g id="figure_1">
  <g id="patch_1">
   <path d="M 0 288 
L 432 288 
L 432 0 
L 0 0 
z
" style="fill:#ffffff;"/>
  </g>
  <g id="axes_1">
   <g id="patch_2">
    <path clip-path="url(#p780f2fd16c)" d="M 197.152886 133.703187 
L 197.231554 144.574903 
L 196.144382 144.582769 
L 196.065714 133.711054 
z
" style="stroke:#000000;stroke-linejoin:miter;"/>
   </g>
   <g id="patch_3">
    <path clip-path="url(#p780f2fd16c)" d="M 251.511463 133.309847 
L 251.590131 144.181562 
L 250.502959 144.189429 
L 250.424291 133.317714 
z
" style="stroke:#000000;stroke-linejoin:miter;"/>
   </g>
   <g id="patch_4">
    <path clip-path="url(#p780f2fd16c)" d="M 214.728826 133.576007 
L 214.576074 133.025552 
L 214.128503 132.513307 
L 213.393646 132.072937 
L 212.383727 131.733505 
L 211.115451 131.517572 
L 209.609724 131.439709 
L 207.8913 131.505545 
L 205.988378 131.711381 
L 203.932135 132.04443 
L 201.756222 132.483635 
L 199.496217 133.001042 
L 197.189051 133.563608 
L 194.872416 134.135355 
L 192.584153 134.679708 
L 190.361648 135.161873 
L 188.24123 135.551101 
L 186.257583 135.822685 
L 184.443188 135.959564 
L 182.827792 135.953428 
L 181.437928 135.805252 
L 180.296472 135.525219 
L 179.42227 135.132052 
L 178.829818 134.651775 
L 178.529015 134.116013 
L 178.524991 133.559916 
L 178.818009 133.019857 
L 179.40345 132.531057 
L 180.27187 132.12528 
L 181.409154 131.828758 
L 182.796728 131.660484 
L 184.411866 131.630973 
L 186.228052 131.74158 
L 188.215421 131.98443 
L 190.34125 132.342932 
L 192.5705 132.792884 
L 194.866401 133.304066 
L 197.191067 133.842229 
L 199.506132 134.371348 
L 201.773388 134.855995 
L 203.955429 135.263666 
L 206.016277 135.566923 
L 207.921978 135.7452 
L 209.641175 135.786161 
L 211.145618 135.686517 
L 212.410636 135.452253 
L 213.415537 135.098242 
L 214.143945 134.647284 
L 214.584055 134.128616 
z
" style="fill:#0000ff;stroke:#000000;stroke-linejoin:miter;"/>
   </g>
   <g id="patch_5">
    <path clip-path="url(#p780f2fd16c)" d="M 269.087402 133.182667 
L 268.934651 132.632211 
L 268.48708 132.119967 
L 267.752223 131.679597 
L 266.742304 131.340165 
L 265.474028 131.124232 
L 263.968301 131.046369 
L 262.249877 131.112205 
L 260.346955 131.318041 
L 258.290712 131.65109 
L 256.114798 132.090295 
L 253.854793 132.607701 
L 251.547628 133.170267 
L 249.230993 133.742015 
L 246.94273 134.286368 
L 244.720225 134.768533 
L 242.599807 135.157761 
L 240.61616 135.429345 
L 238.801765 135.566224 
L 237.186369 135.560088 
L 235.796505 135.411912 
L 234.655049 135.131879 
L 233.780847 134.738712 
L 233.188395 134.258435 
L 232.887592 133.722673 
L 232.883568 133.166576 
L 233.176586 132.626517 
L 233.762026 132.137717 
L 234.630447 131.73194 
L 235.767731 131.435418 
L 237.155305 131.267144 
L 238.770443 131.237632 
L 240.586629 131.34824 
L 242.573998 131.59109 
L 244.699827 131.949592 
L 246.929077 132.399544 
L 249.224978 132.910726 
L 251.549644 133.448889 
L 253.864709 133.978008 
L 256.131965 134.462655 
L 258.314006 134.870326 
L 260.374854 135.173583 
L 262.280555 135.35186 
L 263.999752 135.392821 
L 265.504195 135.293177 
L 266.769213 135.058913 
L 267.774114 134.704902 
L 268.502522 134.253944 
L 268.942632 133.735276 
z
" style="fill:#0000ff;stroke:#000000;stroke-linejoin:miter;"/>
   </g>
   <g id="patch_6">
    <path clip-path="url(#p780f2fd16c)" d="M 256.462736 141.428233 
L 191.232443 141.900241 
L 191.271777 147.336099 
L 256.50207 146.864091 
z
" style="fill:#999999;stroke:#000000;stroke-linejoin:miter;"/>
   </g>
   <g id="text_1">
    <!-- t = 1.5 -->
    <defs>
     <path d="M 18.3125 70.21875 
L 18.3125 54.6875 
L 36.8125 54.6875 
L 36.8125 47.703125 
L 18.3125 47.703125 
L 18.3125 18.015625 
Q 18.3125 11.328125 20.140625 9.421875 
Q 21.96875 7.515625 27.59375 7.515625 
L 36.8125 7.515625 
L 36.8125 0 
L 27.59375 0 
Q 17.1875 0 13.234375 3.875 
Q 9.28125 7.765625 9.28125 18.015625 
L 9.28125 47.703125 
L 2.6875 47.703125 
L 2.6875 54.6875 
L 9.28125 54.6875 
L 9.28125 70.21875 
z
" id="DejaVuSans-116"/>
     <path id="DejaVuSans-32"/>
     <path d="M 10.59375 45.40625 
L 73.1875 45.40625 
L 73.1875 37.203125 
L 10.59375 37.203125 
z
M 10.59375 25.484375 
L 73.1875 25.484375 
L 73.1875 17.1875 
L 10.59375 17.1875 
z
" id="DejaVuSans-61"/>
     <path d="M 12.40625 8.296875 
L 28.515625 8.296875 
L 28.515625 63.921875 
L 10.984375 60.40625 
L 10.984375 69.390625 
L 28.421875 72.90625 
L 38.28125 72.90625 
L 38.28125 8.296875 
L 54.390625 8.296875 
L 54.390625 0 
L 12.40625 0 
z
" id="DejaVuSans-49"/>
     <path d="M 10.6875 12.40625 
L 21 12.40625 
L 21 0 
L 10.6875 0 
z
" id="DejaVuSans-46"/>
     <path d="M 10.796875 72.90625 
L 49.515625 72.90625 
L 49.515625 64.59375 
L 19.828125 64.59375 
L 19.828125 46.734375 
Q 21.96875 47.46875 24.109375 47.828125 
Q 26.265625 48.1875 28.421875 48.1875 
Q 40.625 48.1875 47.75 41.5 
Q 54.890625 34.8125 54.890625 23.390625 
Q 54.890625 11.625 47.5625 5.09375 
Q 40.234375 -1.421875 26.90625 -1.421875 
Q 22.3125 -1.421875 17.546875 -0.640625 
Q 12.796875 0.140625 7.71875 1.703125 
L 7.71875 11.625 
Q 12.109375 9.234375 16.796875 8.0625 
Q 21.484375 6.890625 26.703125 6.890625 
Q 35.15625 6.890625 40.078125 11.328125 
Q 45.015625 15.765625 45.015625 23.390625 
Q 45.015625 31 40.078125 35.4375 
Q 35.15625 39.890625 26.703125 39.890625 
Q 22.75 39.890625 18.8125 39.015625 
Q 14.890625 38.140625 10.796875 36.28125 
z
" id="DejaVuSans-53"/>
    </defs>
    <g transform="translate(200.664375 28.56)scale(0.12 -0.12)">
     <use xlink:href="#DejaVuSans-116"/>
     <use x="39.208984" xlink:href="#DejaVuSans-32"/>
     <use x="70.996094" xlink:href="#DejaVuSans-61"/>
     <use x="154.785156" xlink:href="#DejaVuSans-32"/>
     <use x="186.572266" xlink:href="#DejaVuSans-49"/>
     <use x="250.195312" xlink:href="#DejaVuSans-46"/>
     <use x="281.982422" xlink:href="#DejaVuSans-53"/>
    </g>
   </g>
  </g>
 </g>
 <defs>
  <clipPath id="p780f2fd16c">
   <rect height="217.44" width="334.8" x="54" y="34.56"/>
  </clipPath>
 </defs>
</svg>
