<?xml version="1.0" encoding="utf-8" standalone="no"?>
<!DOCTYPE svg PUBLIC "-//W3C//DTD SVG 1.1//EN"
  "http://www.w3.org/Graphics/SVG/1.1/DTD/svg11.dtd">
<!-- Created with matplotlib (https://matplotlib.org/) -->
<svg height="288pt" version="1.1" viewBox="0 0 432 288" width="432pt" xmlns="http://www.w3.org/2000/svg" xmlns:xlink="http://www.w3.org/1999/xlink">
 <defs>
  <style type="text/css">
*{stroke-linecap:butt;stroke-linejoin:round;}
  </style>
 </defs>
 <g id="figure_1">
  <g id="patch_1">
   <path d="M 0 288 
L 432 288 
L 432 0 
L 0 0 
z
" style="fill:#ffffff;"/>
  </g>
  <g id="axes_1">
   <g id="patch_2">
    <path clip-path="url(#pd4623a2457)" d="M 194.473033 132.489717 
L 194.487273 143.361708 
L 193.400074 143.363132 
L 193.385833 132.491141 
z
" style="stroke:#000000;stroke-linejoin:miter;"/>
   </g>
   <g id="patch_3">
    <path clip-path="url(#pd4623a2457)" d="M 248.832986 132.418517 
L 248.847226 143.290507 
L 247.760027 143.291931 
L 247.745787 132.419941 
z
" style="stroke:#000000;stroke-linejoin:miter;"/>
   </g>
   <g id="patch_4">
    <path clip-path="url(#pd4623a2457)" d="M 212.049417 132.466695 
L 211.89993 131.915344 
L 211.455403 131.400456 
L 210.723169 130.955739 
L 209.715279 130.610329 
L 208.448305 130.386883 
L 206.943065 130.300099 
L 205.224282 130.35575 
L 203.320173 130.550306 
L 201.261993 130.871163 
L 199.083515 131.297466 
L 196.820483 131.80147 
L 194.510025 132.350354 
L 192.190042 132.908363 
L 189.898593 133.439146 
L 187.67327 133.908132 
L 185.550582 134.284788 
L 183.565361 134.544611 
L 181.750186 134.670736 
L 180.134856 134.655027 
L 178.745894 134.498617 
L 177.606118 134.211825 
L 176.734261 133.813484 
L 176.144665 133.329705 
L 175.847042 132.79217 
L 175.846314 132.236058 
L 176.142528 131.697745 
L 176.730854 131.212423 
L 177.601664 130.811799 
L 178.740685 130.522023 
L 180.129233 130.361975 
L 181.744516 130.342035 
L 183.560015 130.463403 
L 185.54591 130.718026 
L 187.669577 131.089119 
L 189.896121 131.552274 
L 192.188953 132.077053 
L 194.51039 132.628982 
L 196.822278 133.171812 
L 199.086622 133.669886 
L 201.266209 134.090481 
L 203.325223 134.405946 
L 205.229835 134.595513 
L 206.948759 134.646661 
L 208.453766 134.555934 
L 209.72015 134.32917 
L 210.727132 133.981121 
L 211.458198 133.534487 
L 211.901375 133.018436 
z
" style="fill:#0000ff;stroke:#000000;stroke-linejoin:miter;"/>
   </g>
   <g id="patch_5">
    <path clip-path="url(#pd4623a2457)" d="M 266.409371 132.395495 
L 266.259884 131.844144 
L 265.815357 131.329256 
L 265.083122 130.884539 
L 264.075232 130.539128 
L 262.808258 130.315683 
L 261.303019 130.228899 
L 259.584235 130.284549 
L 257.680127 130.479105 
L 255.621946 130.799962 
L 253.443468 131.226266 
L 251.180437 131.73027 
L 248.869978 132.279154 
L 246.549995 132.837162 
L 244.258546 133.367946 
L 242.033223 133.836932 
L 239.910536 134.213587 
L 237.925314 134.473411 
L 236.11014 134.599535 
L 234.494809 134.583827 
L 233.105847 134.427416 
L 231.966071 134.140625 
L 231.094214 133.742283 
L 230.504618 133.258504 
L 230.206996 132.720969 
L 230.206267 132.164857 
L 230.502481 131.626544 
L 231.090808 131.141222 
L 231.961618 130.740599 
L 233.100639 130.450822 
L 234.489186 130.290774 
L 236.10447 130.270834 
L 237.919969 130.392203 
L 239.905864 130.646825 
L 242.029531 131.017919 
L 244.256075 131.481074 
L 246.548906 132.005853 
L 248.870343 132.557782 
L 251.182231 133.100611 
L 253.446575 133.598686 
L 255.626163 134.019281 
L 257.685177 134.334745 
L 259.589788 134.524312 
L 261.308712 134.575461 
L 262.813719 134.484734 
L 264.080103 134.25797 
L 265.087085 133.90992 
L 265.818152 133.463287 
L 266.261328 132.947236 
z
" style="fill:#0000ff;stroke:#000000;stroke-linejoin:miter;"/>
   </g>
   <g id="patch_6">
    <path clip-path="url(#pd4623a2457)" d="M 253.736062 140.566101 
L 188.504118 140.651542 
L 188.511238 146.087537 
L 253.743182 146.002097 
z
" style="fill:#999999;stroke:#000000;stroke-linejoin:miter;"/>
   </g>
   <g id="text_1">
    <!-- t = 2.5 -->
    <defs>
     <path d="M 18.3125 70.21875 
L 18.3125 54.6875 
L 36.8125 54.6875 
L 36.8125 47.703125 
L 18.3125 47.703125 
L 18.3125 18.015625 
Q 18.3125 11.328125 20.140625 9.421875 
Q 21.96875 7.515625 27.59375 7.515625 
L 36.8125 7.515625 
L 36.8125 0 
L 27.59375 0 
Q 17.1875 0 13.234375 3.875 
Q 9.28125 7.765625 9.28125 18.015625 
L 9.28125 47.703125 
L 2.6875 47.703125 
L 2.6875 54.6875 
L 9.28125 54.6875 
L 9.28125 70.21875 
z
" id="DejaVuSans-116"/>
     <path id="DejaVuSans-32"/>
     <path d="M 10.59375 45.40625 
L 73.1875 45.40625 
L 73.1875 37.203125 
L 10.59375 37.203125 
z
M 10.59375 25.484375 
L 73.1875 25.484375 
L 73.1875 17.1875 
L 10.59375 17.1875 
z
" id="DejaVuSans-61"/>
     <path d="M 19.1875 8.296875 
L 53.609375 8.296875 
L 53.609375 0 
L 7.328125 0 
L 7.328125 8.296875 
Q 12.9375 14.109375 22.625 23.890625 
Q 32.328125 33.6875 34.8125 36.53125 
Q 39.546875 41.84375 41.421875 45.53125 
Q 43.3125 49.21875 43.3125 52.78125 
Q 43.3125 58.59375 39.234375 62.25 
Q 35.15625 65.921875 28.609375 65.921875 
Q 23.96875 65.921875 18.8125 64.3125 
Q 13.671875 62.703125 7.8125 59.421875 
L 7.8125 69.390625 
Q 13.765625 71.78125 18.9375 73 
Q 24.125 74.21875 28.421875 74.21875 
Q 39.75 74.21875 46.484375 68.546875 
Q 53.21875 62.890625 53.21875 53.421875 
Q 53.21875 48.921875 51.53125 44.890625 
Q 49.859375 40.875 45.40625 35.40625 
Q 44.1875 33.984375 37.640625 27.21875 
Q 31.109375 20.453125 19.1875 8.296875 
z
" id="DejaVuSans-50"/>
     <path d="M 10.6875 12.40625 
L 21 12.40625 
L 21 0 
L 10.6875 0 
z
" id="DejaVuSans-46"/>
     <path d="M 10.796875 72.90625 
L 49.515625 72.90625 
L 49.515625 64.59375 
L 19.828125 64.59375 
L 19.828125 46.734375 
Q 21.96875 47.46875 24.109375 47.828125 
Q 26.265625 48.1875 28.421875 48.1875 
Q 40.625 48.1875 47.75 41.5 
Q 54.890625 34.8125 54.890625 23.390625 
Q 54.890625 11.625 47.5625 5.09375 
Q 40.234375 -1.421875 26.90625 -1.421875 
Q 22.3125 -1.421875 17.546875 -0.640625 
Q 12.796875 0.140625 7.71875 1.703125 
L 7.71875 11.625 
Q 12.109375 9.234375 16.796875 8.0625 
Q 21.484375 6.890625 26.703125 6.890625 
Q 35.15625 6.890625 40.078125 11.328125 
Q 45.015625 15.765625 45.015625 23.390625 
Q 45.015625 31 40.078125 35.4375 
Q 35.15625 39.890625 26.703125 39.890625 
Q 22.75 39.890625 18.8125 39.015625 
Q 14.890625 38.140625 10.796875 36.28125 
z
" id="DejaVuSans-53"/>
    </defs>
    <g transform="translate(200.664375 28.56)scale(0.12 -0.12)">
     <use xlink:href="#DejaVuSans-116"/>
     <use x="39.208984" xlink:href="#DejaVuSans-32"/>
     <use x="70.996094" xlink:href="#DejaVuSans-61"/>
     <use x="154.785156" xlink:href="#DejaVuSans-32"/>
     <use x="186.572266" xlink:href="#DejaVuSans-50"/>
     <use x="250.195312" xlink:href="#DejaVuSans-46"/>
     <use x="281.982422" xlink:href="#DejaVuSans-53"/>
    </g>
   </g>
  </g>
 </g>
 <defs>
  <clipPath id="pd4623a2457">
   <rect height="217.44" width="334.8" x="54" y="34.56"/>
  </clipPath>
 </defs>
</svg>
