<?xml version="1.0" encoding="utf-8" standalone="no"?>
<!DOCTYPE svg PUBLIC "-//W3C//DTD SVG 1.1//EN"
  "http://www.w3.org/Graphics/SVG/1.1/DTD/svg11.dtd">
<!-- Created with matplotlib (https://matplotlib.org/) -->
<svg height="288pt" version="1.1" viewBox="0 0 432 288" width="432pt" xmlns="http://www.w3.org/2000/svg" xmlns:xlink="http://www.w3.org/1999/xlink">
 <defs>
  <style type="text/css">
*{stroke-linecap:butt;stroke-linejoin:round;}
  </style>
 </defs>
 <g id="figure_1">
  <g id="patch_1">
   <path d="M 0 288 
L 432 288 
L 432 0 
L 0 0 
z
" style="fill:#ffffff;"/>
  </g>
  <g id="axes_1">
   <g id="patch_2">
    <path clip-path="url(#pc5db29d99b)" d="M 194.748069 132.409399 
L 194.748295 143.281399 
L 193.661095 143.281422 
L 193.660869 132.409422 
z
" style="stroke:#000000;stroke-linejoin:miter;"/>
   </g>
   <g id="patch_3">
    <path clip-path="url(#pc5db29d99b)" d="M 249.108069 132.408272 
L 249.108295 143.280272 
L 248.021095 143.280294 
L 248.020869 132.408294 
z
" style="stroke:#000000;stroke-linejoin:miter;"/>
   </g>
   <g id="patch_4">
    <path clip-path="url(#pc5db29d99b)" d="M 212.324469 132.409035 
L 212.175693 131.857491 
L 211.73183 131.342031 
L 211.00017 130.89637 
L 209.992726 130.549661 
L 208.726041 130.324582 
L 207.220914 130.235858 
L 205.502061 130.289293 
L 203.597703 130.481394 
L 201.53911 130.799598 
L 199.360085 131.223093 
L 197.096405 131.724179 
L 194.785241 132.270084 
L 192.464541 132.825102 
L 190.17241 133.352931 
L 187.946484 133.819048 
L 185.823313 134.192967 
L 183.837758 134.450231 
L 182.022422 134.574016 
L 180.407113 134.556225 
L 179.018354 134.398024 
L 177.878949 134.109764 
L 177.007606 133.710299 
L 176.418634 133.22576 
L 176.121705 132.687842 
L 176.121693 132.13173 
L 176.418601 131.593799 
L 177.007552 131.109236 
L 177.878878 130.709735 
L 179.018272 130.421427 
L 180.407024 130.263169 
L 182.022332 130.245311 
L 183.837673 130.36902 
L 185.823239 130.626202 
L 187.946425 131.000033 
L 190.17237 131.466057 
L 192.464524 131.993791 
L 194.785247 132.548713 
L 197.096434 133.094522 
L 199.360134 133.595515 
L 201.539177 134.018919 
L 203.597783 134.337037 
L 205.502149 134.52906 
L 207.221005 134.582423 
L 208.726127 134.493637 
L 209.992803 134.268506 
L 211.000232 133.921754 
L 211.731874 133.476063 
L 212.175716 132.960584 
z
" style="fill:#0000ff;stroke:#000000;stroke-linejoin:miter;"/>
   </g>
   <g id="patch_5">
    <path clip-path="url(#pc5db29d99b)" d="M 266.684469 132.407907 
L 266.535693 131.856364 
L 266.09183 131.340903 
L 265.36017 130.895243 
L 264.352726 130.548533 
L 263.086041 130.323454 
L 261.580914 130.23473 
L 259.862061 130.288165 
L 257.957703 130.480267 
L 255.89911 130.79847 
L 253.720085 131.221965 
L 251.456405 131.723052 
L 249.145241 132.268957 
L 246.824541 132.823974 
L 244.53241 133.351804 
L 242.306484 133.817921 
L 240.183313 134.191839 
L 238.197758 134.449104 
L 236.382422 134.572888 
L 234.767113 134.555097 
L 233.378354 134.396897 
L 232.238949 134.108636 
L 231.367606 133.709171 
L 230.778634 133.224633 
L 230.481705 132.686714 
L 230.481693 132.130602 
L 230.7786 131.592671 
L 231.367552 131.108108 
L 232.238878 130.708607 
L 233.378272 130.420299 
L 234.767024 130.262041 
L 236.382332 130.244183 
L 238.197673 130.367892 
L 240.183239 130.625074 
L 242.306425 130.998905 
L 244.53237 131.46493 
L 246.824523 131.992664 
L 249.145247 132.547585 
L 251.456434 133.093394 
L 253.720134 133.594387 
L 255.899177 134.017791 
L 257.957783 134.33591 
L 259.862149 134.527932 
L 261.581005 134.581296 
L 263.086127 134.492509 
L 264.352803 134.267378 
L 265.360232 133.920627 
L 266.091874 133.474936 
L 266.535716 132.959457 
z
" style="fill:#0000ff;stroke:#000000;stroke-linejoin:miter;"/>
   </g>
   <g id="patch_6">
    <path clip-path="url(#pc5db29d99b)" d="M 254.000638 140.56217 
L 188.768638 140.563523 
L 188.768751 145.999523 
L 254.000751 145.99817 
z
" style="fill:#999999;stroke:#000000;stroke-linejoin:miter;"/>
   </g>
   <g id="text_1">
    <!-- t = 3.7 -->
    <defs>
     <path d="M 18.3125 70.21875 
L 18.3125 54.6875 
L 36.8125 54.6875 
L 36.8125 47.703125 
L 18.3125 47.703125 
L 18.3125 18.015625 
Q 18.3125 11.328125 20.140625 9.421875 
Q 21.96875 7.515625 27.59375 7.515625 
L 36.8125 7.515625 
L 36.8125 0 
L 27.59375 0 
Q 17.1875 0 13.234375 3.875 
Q 9.28125 7.765625 9.28125 18.015625 
L 9.28125 47.703125 
L 2.6875 47.703125 
L 2.6875 54.6875 
L 9.28125 54.6875 
L 9.28125 70.21875 
z
" id="DejaVuSans-116"/>
     <path id="DejaVuSans-32"/>
     <path d="M 10.59375 45.40625 
L 73.1875 45.40625 
L 73.1875 37.203125 
L 10.59375 37.203125 
z
M 10.59375 25.484375 
L 73.1875 25.484375 
L 73.1875 17.1875 
L 10.59375 17.1875 
z
" id="DejaVuSans-61"/>
     <path d="M 40.578125 39.3125 
Q 47.65625 37.796875 51.625 33 
Q 55.609375 28.21875 55.609375 21.1875 
Q 55.609375 10.40625 48.1875 4.484375 
Q 40.765625 -1.421875 27.09375 -1.421875 
Q 22.515625 -1.421875 17.65625 -0.515625 
Q 12.796875 0.390625 7.625 2.203125 
L 7.625 11.71875 
Q 11.71875 9.328125 16.59375 8.109375 
Q 21.484375 6.890625 26.8125 6.890625 
Q 36.078125 6.890625 40.9375 10.546875 
Q 45.796875 14.203125 45.796875 21.1875 
Q 45.796875 27.640625 41.28125 31.265625 
Q 36.765625 34.90625 28.71875 34.90625 
L 20.21875 34.90625 
L 20.21875 43.015625 
L 29.109375 43.015625 
Q 36.375 43.015625 40.234375 45.921875 
Q 44.09375 48.828125 44.09375 54.296875 
Q 44.09375 59.90625 40.109375 62.90625 
Q 36.140625 65.921875 28.71875 65.921875 
Q 24.65625 65.921875 20.015625 65.03125 
Q 15.375 64.15625 9.8125 62.3125 
L 9.8125 71.09375 
Q 15.4375 72.65625 20.34375 73.4375 
Q 25.25 74.21875 29.59375 74.21875 
Q 40.828125 74.21875 47.359375 69.109375 
Q 53.90625 64.015625 53.90625 55.328125 
Q 53.90625 49.265625 50.4375 45.09375 
Q 46.96875 40.921875 40.578125 39.3125 
z
" id="DejaVuSans-51"/>
     <path d="M 10.6875 12.40625 
L 21 12.40625 
L 21 0 
L 10.6875 0 
z
" id="DejaVuSans-46"/>
     <path d="M 8.203125 72.90625 
L 55.078125 72.90625 
L 55.078125 68.703125 
L 28.609375 0 
L 18.3125 0 
L 43.21875 64.59375 
L 8.203125 64.59375 
z
" id="DejaVuSans-55"/>
    </defs>
    <g transform="translate(200.664375 28.56)scale(0.12 -0.12)">
     <use xlink:href="#DejaVuSans-116"/>
     <use x="39.208984" xlink:href="#DejaVuSans-32"/>
     <use x="70.996094" xlink:href="#DejaVuSans-61"/>
     <use x="154.785156" xlink:href="#DejaVuSans-32"/>
     <use x="186.572266" xlink:href="#DejaVuSans-51"/>
     <use x="250.195312" xlink:href="#DejaVuSans-46"/>
     <use x="281.982422" xlink:href="#DejaVuSans-55"/>
    </g>
   </g>
  </g>
 </g>
 <defs>
  <clipPath id="pc5db29d99b">
   <rect height="217.44" width="334.8" x="54" y="34.56"/>
  </clipPath>
 </defs>
</svg>
