<?xml version="1.0" encoding="utf-8" standalone="no"?>
<!DOCTYPE svg PUBLIC "-//W3C//DTD SVG 1.1//EN"
  "http://www.w3.org/Graphics/SVG/1.1/DTD/svg11.dtd">
<!-- Created with matplotlib (https://matplotlib.org/) -->
<svg height="288pt" version="1.1" viewBox="0 0 432 288" width="432pt" xmlns="http://www.w3.org/2000/svg" xmlns:xlink="http://www.w3.org/1999/xlink">
 <defs>
  <style type="text/css">
*{stroke-linecap:butt;stroke-linejoin:round;}
  </style>
 </defs>
 <g id="figure_1">
  <g id="patch_1">
   <path d="M 0 288 
L 432 288 
L 432 0 
L 0 0 
z
" style="fill:#ffffff;"/>
  </g>
  <g id="axes_1">
   <g id="patch_2">
    <path clip-path="url(#p6fd2f8e6ae)" d="M 194.714379 132.404793 
L 194.719493 143.276792 
L 193.632293 143.277303 
L 193.627179 132.405304 
z
" style="stroke:#000000;stroke-linejoin:miter;"/>
   </g>
   <g id="patch_3">
    <path clip-path="url(#p6fd2f8e6ae)" d="M 249.074373 132.379225 
L 249.079487 143.251223 
L 247.992287 143.251735 
L 247.987173 132.379736 
z
" style="stroke:#000000;stroke-linejoin:miter;"/>
   </g>
   <g id="patch_4">
    <path clip-path="url(#p6fd2f8e6ae)" d="M 212.290777 132.396526 
L 212.141753 131.845049 
L 211.697658 131.329789 
L 210.965797 130.884457 
L 209.958198 130.5382 
L 208.691412 130.313691 
L 207.186246 130.225644 
L 205.467416 130.279852 
L 203.563144 130.472809 
L 201.504695 130.791939 
L 199.32586 131.216413 
L 197.062406 131.718517 
L 194.751488 132.265461 
L 192.431037 132.821522 
L 190.139144 133.350382 
L 187.913428 133.8175 
L 185.790425 134.192373 
L 183.804986 134.45053 
L 181.989706 134.575131 
L 180.374389 134.558066 
L 178.985559 134.40049 
L 177.846024 134.112742 
L 176.974502 133.713669 
L 176.385313 133.229395 
L 176.088141 132.69161 
L 176.08788 132.135498 
L 176.384545 131.597434 
L 176.973279 131.112606 
L 177.844425 130.712713 
L 178.983689 130.423893 
L 180.37237 130.265011 
L 181.98767 130.246427 
L 183.803066 130.369319 
L 185.788747 130.625609 
L 187.912102 130.998485 
L 190.138256 131.463509 
L 192.430646 131.990212 
L 194.751619 132.54409 
L 197.063051 133.08886 
L 199.326976 133.588835 
L 201.506209 134.011259 
L 203.564958 134.328452 
L 205.46941 134.519618 
L 207.18829 134.572209 
L 208.693373 134.482746 
L 209.959947 134.257045 
L 210.96722 133.909841 
L 211.698662 133.463821 
L 212.142271 132.948142 
z
" style="fill:#0000ff;stroke:#000000;stroke-linejoin:miter;"/>
   </g>
   <g id="patch_5">
    <path clip-path="url(#p6fd2f8e6ae)" d="M 266.650771 132.370958 
L 266.501747 131.819481 
L 266.057652 131.30422 
L 265.325791 130.858888 
L 264.318192 130.512632 
L 263.051406 130.288123 
L 261.54624 130.200075 
L 259.82741 130.254283 
L 257.923138 130.447241 
L 255.864689 130.76637 
L 253.685854 131.190844 
L 251.4224 131.692949 
L 249.111482 132.239893 
L 246.791031 132.795954 
L 244.499138 133.324814 
L 242.273422 133.791932 
L 240.150419 134.166805 
L 238.16498 134.424962 
L 236.3497 134.549562 
L 234.734383 134.532498 
L 233.345553 134.374922 
L 232.206018 134.087173 
L 231.334496 133.6881 
L 230.745307 133.203826 
L 230.448135 132.666042 
L 230.447874 132.10993 
L 230.744539 131.571866 
L 231.333273 131.087038 
L 232.204419 130.687145 
L 233.343683 130.398325 
L 234.732364 130.239442 
L 236.347664 130.220858 
L 238.16306 130.343751 
L 240.148741 130.60004 
L 242.272096 130.972916 
L 244.49825 131.43794 
L 246.79064 131.964643 
L 249.111613 132.518521 
L 251.423045 133.063291 
L 253.68697 133.563266 
L 255.866203 133.985691 
L 257.924952 134.302884 
L 259.829404 134.49405 
L 261.548284 134.546641 
L 263.053367 134.457177 
L 264.319941 134.231477 
L 265.327214 133.884272 
L 266.058656 133.438252 
L 266.502265 132.922574 
z
" style="fill:#0000ff;stroke:#000000;stroke-linejoin:miter;"/>
   </g>
   <g id="patch_6">
    <path clip-path="url(#p6fd2f8e6ae)" d="M 253.970608 140.530923 
L 188.738615 140.561605 
L 188.741172 145.997604 
L 253.973164 145.966922 
z
" style="fill:#999999;stroke:#000000;stroke-linejoin:miter;"/>
   </g>
   <g id="text_1">
    <!-- t = 2.5 -->
    <defs>
     <path d="M 18.3125 70.21875 
L 18.3125 54.6875 
L 36.8125 54.6875 
L 36.8125 47.703125 
L 18.3125 47.703125 
L 18.3125 18.015625 
Q 18.3125 11.328125 20.140625 9.421875 
Q 21.96875 7.515625 27.59375 7.515625 
L 36.8125 7.515625 
L 36.8125 0 
L 27.59375 0 
Q 17.1875 0 13.234375 3.875 
Q 9.28125 7.765625 9.28125 18.015625 
L 9.28125 47.703125 
L 2.6875 47.703125 
L 2.6875 54.6875 
L 9.28125 54.6875 
L 9.28125 70.21875 
z
" id="DejaVuSans-116"/>
     <path id="DejaVuSans-32"/>
     <path d="M 10.59375 45.40625 
L 73.1875 45.40625 
L 73.1875 37.203125 
L 10.59375 37.203125 
z
M 10.59375 25.484375 
L 73.1875 25.484375 
L 73.1875 17.1875 
L 10.59375 17.1875 
z
" id="DejaVuSans-61"/>
     <path d="M 19.1875 8.296875 
L 53.609375 8.296875 
L 53.609375 0 
L 7.328125 0 
L 7.328125 8.296875 
Q 12.9375 14.109375 22.625 23.890625 
Q 32.328125 33.6875 34.8125 36.53125 
Q 39.546875 41.84375 41.421875 45.53125 
Q 43.3125 49.21875 43.3125 52.78125 
Q 43.3125 58.59375 39.234375 62.25 
Q 35.15625 65.921875 28.609375 65.921875 
Q 23.96875 65.921875 18.8125 64.3125 
Q 13.671875 62.703125 7.8125 59.421875 
L 7.8125 69.390625 
Q 13.765625 71.78125 18.9375 73 
Q 24.125 74.21875 28.421875 74.21875 
Q 39.75 74.21875 46.484375 68.546875 
Q 53.21875 62.890625 53.21875 53.421875 
Q 53.21875 48.921875 51.53125 44.890625 
Q 49.859375 40.875 45.40625 35.40625 
Q 44.1875 33.984375 37.640625 27.21875 
Q 31.109375 20.453125 19.1875 8.296875 
z
" id="DejaVuSans-50"/>
     <path d="M 10.6875 12.40625 
L 21 12.40625 
L 21 0 
L 10.6875 0 
z
" id="DejaVuSans-46"/>
     <path d="M 10.796875 72.90625 
L 49.515625 72.90625 
L 49.515625 64.59375 
L 19.828125 64.59375 
L 19.828125 46.734375 
Q 21.96875 47.46875 24.109375 47.828125 
Q 26.265625 48.1875 28.421875 48.1875 
Q 40.625 48.1875 47.75 41.5 
Q 54.890625 34.8125 54.890625 23.390625 
Q 54.890625 11.625 47.5625 5.09375 
Q 40.234375 -1.421875 26.90625 -1.421875 
Q 22.3125 -1.421875 17.546875 -0.640625 
Q 12.796875 0.140625 7.71875 1.703125 
L 7.71875 11.625 
Q 12.109375 9.234375 16.796875 8.0625 
Q 21.484375 6.890625 26.703125 6.890625 
Q 35.15625 6.890625 40.078125 11.328125 
Q 45.015625 15.765625 45.015625 23.390625 
Q 45.015625 31 40.078125 35.4375 
Q 35.15625 39.890625 26.703125 39.890625 
Q 22.75 39.890625 18.8125 39.015625 
Q 14.890625 38.140625 10.796875 36.28125 
z
" id="DejaVuSans-53"/>
    </defs>
    <g transform="translate(200.664375 28.56)scale(0.12 -0.12)">
     <use xlink:href="#DejaVuSans-116"/>
     <use x="39.208984" xlink:href="#DejaVuSans-32"/>
     <use x="70.996094" xlink:href="#DejaVuSans-61"/>
     <use x="154.785156" xlink:href="#DejaVuSans-32"/>
     <use x="186.572266" xlink:href="#DejaVuSans-50"/>
     <use x="250.195312" xlink:href="#DejaVuSans-46"/>
     <use x="281.982422" xlink:href="#DejaVuSans-53"/>
    </g>
   </g>
  </g>
 </g>
 <defs>
  <clipPath id="p6fd2f8e6ae">
   <rect height="217.44" width="334.8" x="54" y="34.56"/>
  </clipPath>
 </defs>
</svg>
