<?xml version="1.0" encoding="utf-8" standalone="no"?>
<!DOCTYPE svg PUBLIC "-//W3C//DTD SVG 1.1//EN"
  "http://www.w3.org/Graphics/SVG/1.1/DTD/svg11.dtd">
<!-- Created with matplotlib (https://matplotlib.org/) -->
<svg height="288pt" version="1.1" viewBox="0 0 432 288" width="432pt" xmlns="http://www.w3.org/2000/svg" xmlns:xlink="http://www.w3.org/1999/xlink">
 <defs>
  <style type="text/css">
*{stroke-linecap:butt;stroke-linejoin:round;}
  </style>
 </defs>
 <g id="figure_1">
  <g id="patch_1">
   <path d="M 0 288 
L 432 288 
L 432 0 
L 0 0 
z
" style="fill:#ffffff;"/>
  </g>
  <g id="axes_1">
   <g id="patch_2">
    <path clip-path="url(#pad8eb73dd8)" d="M 217.20067 151.106692 
L 214.304062 161.585721 
L 213.25616 161.29606 
L 216.152767 150.817031 
z
" style="stroke:#000000;stroke-linejoin:miter;"/>
   </g>
   <g id="patch_3">
    <path clip-path="url(#pad8eb73dd8)" d="M 269.595815 165.58973 
L 266.699207 176.068759 
L 265.651304 175.779098 
L 268.547912 165.300069 
z
" style="stroke:#000000;stroke-linejoin:miter;"/>
   </g>
   <g id="patch_4">
    <path clip-path="url(#pad8eb73dd8)" d="M 234.141767 155.789541 
L 234.145327 155.218295 
L 233.854853 154.603202 
L 233.268388 153.978703 
L 232.389744 153.376096 
L 231.228823 152.821648 
L 229.801749 152.335093 
L 228.130795 151.928611 
L 226.244096 151.606355 
L 224.175138 151.364547 
L 221.962047 151.192134 
L 219.646687 151.071953 
L 217.273618 150.982318 
L 214.88893 150.898925 
L 212.539022 150.796938 
L 210.269369 150.653111 
L 208.123322 150.447797 
L 206.140999 150.166713 
L 204.358307 149.80233 
L 202.806133 149.354786 
L 201.50973 148.832272 
L 200.488322 148.25084 
L 199.754916 147.633648 
L 199.31634 147.009696 
L 199.173472 146.412107 
L 199.321636 145.876096 
L 199.751141 145.436722 
L 200.447912 145.126601 
L 201.394186 144.973706 
L 202.569208 144.99941 
L 203.949924 145.216903 
L 205.511596 145.630087 
L 207.228348 146.233018 
L 209.073608 147.009953 
L 211.020434 147.935989 
L 213.041738 148.978266 
L 215.110414 150.097662 
L 217.199384 151.250875 
L 219.28159 152.392764 
L 221.329967 153.478805 
L 223.31742 154.467505 
L 225.216844 155.322635 
L 227.001201 156.01513 
L 228.643701 156.524551 
L 230.118069 156.840011 
L 231.398939 156.960522 
L 232.462341 156.894734 
L 233.286287 156.6601 
L 233.851432 156.281517 
z
" style="fill:#0000ff;stroke:#000000;stroke-linejoin:miter;"/>
   </g>
   <g id="patch_5">
    <path clip-path="url(#pad8eb73dd8)" d="M 286.536912 170.272579 
L 286.540472 169.701333 
L 286.249998 169.086241 
L 285.663533 168.461741 
L 284.784889 167.859134 
L 283.623968 167.304686 
L 282.196893 166.818131 
L 280.52594 166.411649 
L 278.639241 166.089393 
L 276.570283 165.847585 
L 274.357192 165.675173 
L 272.041832 165.554991 
L 269.668763 165.465356 
L 267.284074 165.381963 
L 264.934166 165.279976 
L 262.664513 165.136149 
L 260.518466 164.930835 
L 258.536143 164.649752 
L 256.753451 164.285368 
L 255.201277 163.837824 
L 253.904875 163.31531 
L 252.883467 162.733878 
L 252.150061 162.116686 
L 251.711485 161.492734 
L 251.568617 160.895145 
L 251.716781 160.359134 
L 252.146286 159.91976 
L 252.843057 159.609639 
L 253.789331 159.456744 
L 254.964353 159.482448 
L 256.345069 159.699942 
L 257.906741 160.113125 
L 259.623493 160.716056 
L 261.468753 161.492992 
L 263.415579 162.419027 
L 265.436883 163.461304 
L 267.505559 164.5807 
L 269.594529 165.733913 
L 271.676734 166.875803 
L 273.725111 167.961843 
L 275.712565 168.950543 
L 277.611989 169.805673 
L 279.396346 170.498168 
L 281.038846 171.007589 
L 282.513214 171.323049 
L 283.794084 171.44356 
L 284.857486 171.377772 
L 285.681432 171.143138 
L 286.246576 170.764555 
z
" style="fill:#0000ff;stroke:#000000;stroke-linejoin:miter;"/>
   </g>
   <g id="patch_6">
    <path clip-path="url(#pad8eb73dd8)" d="M 272.138922 174.752475 
L 209.264748 157.37283 
L 207.816445 162.612344 
L 270.690618 179.99199 
z
" style="fill:#999999;stroke:#000000;stroke-linejoin:miter;"/>
   </g>
   <g id="text_1">
    <!-- t = 0.7 -->
    <defs>
     <path d="M 18.3125 70.21875 
L 18.3125 54.6875 
L 36.8125 54.6875 
L 36.8125 47.703125 
L 18.3125 47.703125 
L 18.3125 18.015625 
Q 18.3125 11.328125 20.140625 9.421875 
Q 21.96875 7.515625 27.59375 7.515625 
L 36.8125 7.515625 
L 36.8125 0 
L 27.59375 0 
Q 17.1875 0 13.234375 3.875 
Q 9.28125 7.765625 9.28125 18.015625 
L 9.28125 47.703125 
L 2.6875 47.703125 
L 2.6875 54.6875 
L 9.28125 54.6875 
L 9.28125 70.21875 
z
" id="DejaVuSans-116"/>
     <path id="DejaVuSans-32"/>
     <path d="M 10.59375 45.40625 
L 73.1875 45.40625 
L 73.1875 37.203125 
L 10.59375 37.203125 
z
M 10.59375 25.484375 
L 73.1875 25.484375 
L 73.1875 17.1875 
L 10.59375 17.1875 
z
" id="DejaVuSans-61"/>
     <path d="M 31.78125 66.40625 
Q 24.171875 66.40625 20.328125 58.90625 
Q 16.5 51.421875 16.5 36.375 
Q 16.5 21.390625 20.328125 13.890625 
Q 24.171875 6.390625 31.78125 6.390625 
Q 39.453125 6.390625 43.28125 13.890625 
Q 47.125 21.390625 47.125 36.375 
Q 47.125 51.421875 43.28125 58.90625 
Q 39.453125 66.40625 31.78125 66.40625 
z
M 31.78125 74.21875 
Q 44.046875 74.21875 50.515625 64.515625 
Q 56.984375 54.828125 56.984375 36.375 
Q 56.984375 17.96875 50.515625 8.265625 
Q 44.046875 -1.421875 31.78125 -1.421875 
Q 19.53125 -1.421875 13.0625 8.265625 
Q 6.59375 17.96875 6.59375 36.375 
Q 6.59375 54.828125 13.0625 64.515625 
Q 19.53125 74.21875 31.78125 74.21875 
z
" id="DejaVuSans-48"/>
     <path d="M 10.6875 12.40625 
L 21 12.40625 
L 21 0 
L 10.6875 0 
z
" id="DejaVuSans-46"/>
     <path d="M 8.203125 72.90625 
L 55.078125 72.90625 
L 55.078125 68.703125 
L 28.609375 0 
L 18.3125 0 
L 43.21875 64.59375 
L 8.203125 64.59375 
z
" id="DejaVuSans-55"/>
    </defs>
    <g transform="translate(200.664375 28.56)scale(0.12 -0.12)">
     <use xlink:href="#DejaVuSans-116"/>
     <use x="39.208984" xlink:href="#DejaVuSans-32"/>
     <use x="70.996094" xlink:href="#DejaVuSans-61"/>
     <use x="154.785156" xlink:href="#DejaVuSans-32"/>
     <use x="186.572266" xlink:href="#DejaVuSans-48"/>
     <use x="250.195312" xlink:href="#DejaVuSans-46"/>
     <use x="281.982422" xlink:href="#DejaVuSans-55"/>
    </g>
   </g>
  </g>
 </g>
 <defs>
  <clipPath id="pad8eb73dd8">
   <rect height="217.44" width="334.8" x="54" y="34.56"/>
  </clipPath>
 </defs>
</svg>
