<?xml version="1.0" encoding="utf-8" standalone="no"?>
<!DOCTYPE svg PUBLIC "-//W3C//DTD SVG 1.1//EN"
  "http://www.w3.org/Graphics/SVG/1.1/DTD/svg11.dtd">
<!-- Created with matplotlib (https://matplotlib.org/) -->
<svg height="288pt" version="1.1" viewBox="0 0 432 288" width="432pt" xmlns="http://www.w3.org/2000/svg" xmlns:xlink="http://www.w3.org/1999/xlink">
 <defs>
  <style type="text/css">
*{stroke-linecap:butt;stroke-linejoin:round;}
  </style>
 </defs>
 <g id="figure_1">
  <g id="patch_1">
   <path d="M 0 288 
L 432 288 
L 432 0 
L 0 0 
z
" style="fill:#ffffff;"/>
  </g>
  <g id="axes_1">
   <g id="patch_2">
    <path clip-path="url(#p3e5366d144)" d="M 194.765775 132.407934 
L 194.765945 143.279934 
L 193.678745 143.279951 
L 193.678575 132.407951 
z
" style="stroke:#000000;stroke-linejoin:miter;"/>
   </g>
   <g id="patch_3">
    <path clip-path="url(#p3e5366d144)" d="M 249.125775 132.407085 
L 249.125945 143.279085 
L 248.038745 143.279102 
L 248.038575 132.407102 
z
" style="stroke:#000000;stroke-linejoin:miter;"/>
   </g>
   <g id="patch_4">
    <path clip-path="url(#p3e5366d144)" d="M 212.342175 132.407659 
L 212.193402 131.856115 
L 211.749542 131.340652 
L 211.017883 130.894988 
L 210.010441 130.548273 
L 208.743758 130.323188 
L 207.238632 130.234456 
L 205.519777 130.287883 
L 203.615419 130.479974 
L 201.556824 130.798167 
L 199.377797 131.221651 
L 197.114115 131.722726 
L 194.802948 132.268619 
L 192.482245 132.823625 
L 190.190111 133.351442 
L 187.964183 133.817548 
L 185.841009 134.191456 
L 183.855453 134.44871 
L 182.040117 134.572485 
L 180.424808 134.554686 
L 179.03605 134.396478 
L 177.896646 134.108212 
L 177.025306 133.708743 
L 176.436336 133.224201 
L 176.139409 132.686281 
L 176.1394 132.130169 
L 176.436311 131.59224 
L 177.025265 131.107679 
L 177.896593 130.708183 
L 179.035988 130.419881 
L 180.424741 130.26163 
L 182.040049 130.24378 
L 183.85539 130.367499 
L 185.840954 130.624691 
L 187.964139 130.998532 
L 190.190081 131.464569 
L 192.482232 131.992314 
L 194.802952 132.547248 
L 197.114136 133.093069 
L 199.377834 133.594073 
L 201.556875 134.017488 
L 203.615479 134.335617 
L 205.519844 134.527649 
L 207.2387 134.581022 
L 208.743823 134.492243 
L 210.010499 134.267118 
L 211.017931 133.920372 
L 211.749575 133.474685 
L 212.193419 132.959208 
z
" style="fill:#0000ff;stroke:#000000;stroke-linejoin:miter;"/>
   </g>
   <g id="patch_5">
    <path clip-path="url(#p3e5366d144)" d="M 266.702175 132.406811 
L 266.553402 131.855266 
L 266.109542 131.339804 
L 265.377883 130.894139 
L 264.370441 130.547425 
L 263.103758 130.322339 
L 261.598632 130.233607 
L 259.879777 130.287034 
L 257.975419 130.479125 
L 255.916824 130.797319 
L 253.737797 131.220802 
L 251.474115 131.721877 
L 249.162948 132.26777 
L 246.842245 132.822776 
L 244.550111 133.350593 
L 242.324183 133.816699 
L 240.201009 134.190607 
L 238.215453 134.447861 
L 236.400117 134.571636 
L 234.784808 134.553837 
L 233.39605 134.395629 
L 232.256646 134.107363 
L 231.385306 133.707894 
L 230.796336 133.223352 
L 230.499409 132.685432 
L 230.4994 132.12932 
L 230.796311 131.591391 
L 231.385265 131.106831 
L 232.256593 130.707334 
L 233.395988 130.419032 
L 234.784741 130.260781 
L 236.400049 130.242931 
L 238.21539 130.36665 
L 240.200954 130.623842 
L 242.324139 130.997683 
L 244.550081 131.46372 
L 246.842232 131.991465 
L 249.162952 132.546399 
L 251.474136 133.09222 
L 253.737834 133.593224 
L 255.916875 134.016639 
L 257.975479 134.334768 
L 259.879844 134.5268 
L 261.598699 134.580173 
L 263.103823 134.491394 
L 264.370499 134.266269 
L 265.377931 133.919523 
L 266.109575 133.473836 
L 266.553419 132.958359 
z
" style="fill:#0000ff;stroke:#000000;stroke-linejoin:miter;"/>
   </g>
   <g id="patch_6">
    <path clip-path="url(#p3e5366d144)" d="M 254.018303 140.561009 
L 188.786303 140.562027 
L 188.786388 145.998027 
L 254.018388 145.997009 
z
" style="fill:#999999;stroke:#000000;stroke-linejoin:miter;"/>
   </g>
   <g id="text_1">
    <!-- t = 3.5 -->
    <defs>
     <path d="M 18.3125 70.21875 
L 18.3125 54.6875 
L 36.8125 54.6875 
L 36.8125 47.703125 
L 18.3125 47.703125 
L 18.3125 18.015625 
Q 18.3125 11.328125 20.140625 9.421875 
Q 21.96875 7.515625 27.59375 7.515625 
L 36.8125 7.515625 
L 36.8125 0 
L 27.59375 0 
Q 17.1875 0 13.234375 3.875 
Q 9.28125 7.765625 9.28125 18.015625 
L 9.28125 47.703125 
L 2.6875 47.703125 
L 2.6875 54.6875 
L 9.28125 54.6875 
L 9.28125 70.21875 
z
" id="DejaVuSans-116"/>
     <path id="DejaVuSans-32"/>
     <path d="M 10.59375 45.40625 
L 73.1875 45.40625 
L 73.1875 37.203125 
L 10.59375 37.203125 
z
M 10.59375 25.484375 
L 73.1875 25.484375 
L 73.1875 17.1875 
L 10.59375 17.1875 
z
" id="DejaVuSans-61"/>
     <path d="M 40.578125 39.3125 
Q 47.65625 37.796875 51.625 33 
Q 55.609375 28.21875 55.609375 21.1875 
Q 55.609375 10.40625 48.1875 4.484375 
Q 40.765625 -1.421875 27.09375 -1.421875 
Q 22.515625 -1.421875 17.65625 -0.515625 
Q 12.796875 0.390625 7.625 2.203125 
L 7.625 11.71875 
Q 11.71875 9.328125 16.59375 8.109375 
Q 21.484375 6.890625 26.8125 6.890625 
Q 36.078125 6.890625 40.9375 10.546875 
Q 45.796875 14.203125 45.796875 21.1875 
Q 45.796875 27.640625 41.28125 31.265625 
Q 36.765625 34.90625 28.71875 34.90625 
L 20.21875 34.90625 
L 20.21875 43.015625 
L 29.109375 43.015625 
Q 36.375 43.015625 40.234375 45.921875 
Q 44.09375 48.828125 44.09375 54.296875 
Q 44.09375 59.90625 40.109375 62.90625 
Q 36.140625 65.921875 28.71875 65.921875 
Q 24.65625 65.921875 20.015625 65.03125 
Q 15.375 64.15625 9.8125 62.3125 
L 9.8125 71.09375 
Q 15.4375 72.65625 20.34375 73.4375 
Q 25.25 74.21875 29.59375 74.21875 
Q 40.828125 74.21875 47.359375 69.109375 
Q 53.90625 64.015625 53.90625 55.328125 
Q 53.90625 49.265625 50.4375 45.09375 
Q 46.96875 40.921875 40.578125 39.3125 
z
" id="DejaVuSans-51"/>
     <path d="M 10.6875 12.40625 
L 21 12.40625 
L 21 0 
L 10.6875 0 
z
" id="DejaVuSans-46"/>
     <path d="M 10.796875 72.90625 
L 49.515625 72.90625 
L 49.515625 64.59375 
L 19.828125 64.59375 
L 19.828125 46.734375 
Q 21.96875 47.46875 24.109375 47.828125 
Q 26.265625 48.1875 28.421875 48.1875 
Q 40.625 48.1875 47.75 41.5 
Q 54.890625 34.8125 54.890625 23.390625 
Q 54.890625 11.625 47.5625 5.09375 
Q 40.234375 -1.421875 26.90625 -1.421875 
Q 22.3125 -1.421875 17.546875 -0.640625 
Q 12.796875 0.140625 7.71875 1.703125 
L 7.71875 11.625 
Q 12.109375 9.234375 16.796875 8.0625 
Q 21.484375 6.890625 26.703125 6.890625 
Q 35.15625 6.890625 40.078125 11.328125 
Q 45.015625 15.765625 45.015625 23.390625 
Q 45.015625 31 40.078125 35.4375 
Q 35.15625 39.890625 26.703125 39.890625 
Q 22.75 39.890625 18.8125 39.015625 
Q 14.890625 38.140625 10.796875 36.28125 
z
" id="DejaVuSans-53"/>
    </defs>
    <g transform="translate(200.664375 28.56)scale(0.12 -0.12)">
     <use xlink:href="#DejaVuSans-116"/>
     <use x="39.208984" xlink:href="#DejaVuSans-32"/>
     <use x="70.996094" xlink:href="#DejaVuSans-61"/>
     <use x="154.785156" xlink:href="#DejaVuSans-32"/>
     <use x="186.572266" xlink:href="#DejaVuSans-51"/>
     <use x="250.195312" xlink:href="#DejaVuSans-46"/>
     <use x="281.982422" xlink:href="#DejaVuSans-53"/>
    </g>
   </g>
  </g>
 </g>
 <defs>
  <clipPath id="p3e5366d144">
   <rect height="217.44" width="334.8" x="54" y="34.56"/>
  </clipPath>
 </defs>
</svg>
