<?xml version="1.0" encoding="utf-8" standalone="no"?>
<!DOCTYPE svg PUBLIC "-//W3C//DTD SVG 1.1//EN"
  "http://www.w3.org/Graphics/SVG/1.1/DTD/svg11.dtd">
<!-- Created with matplotlib (https://matplotlib.org/) -->
<svg height="288pt" version="1.1" viewBox="0 0 432 288" width="432pt" xmlns="http://www.w3.org/2000/svg" xmlns:xlink="http://www.w3.org/1999/xlink">
 <defs>
  <style type="text/css">
*{stroke-linecap:butt;stroke-linejoin:round;}
  </style>
 </defs>
 <g id="figure_1">
  <g id="patch_1">
   <path d="M 0 288 
L 432 288 
L 432 0 
L 0 0 
z
" style="fill:#ffffff;"/>
  </g>
  <g id="axes_1">
   <g id="patch_2">
    <path clip-path="url(#p7a84726fba)" d="M 196.284611 132.771144 
L 196.287117 143.643144 
L 195.199917 143.643394 
L 195.197411 132.771394 
z
" style="stroke:#000000;stroke-linejoin:miter;"/>
   </g>
   <g id="patch_3">
    <path clip-path="url(#p7a84726fba)" d="M 250.64461 132.758616 
L 250.647115 143.630616 
L 249.559915 143.630866 
L 249.55741 132.758866 
z
" style="stroke:#000000;stroke-linejoin:miter;"/>
   </g>
   <g id="patch_4">
    <path clip-path="url(#p7a84726fba)" d="M 213.861011 132.767093 
L 213.712119 132.215581 
L 213.268148 131.700213 
L 212.536394 131.254706 
L 211.528877 130.908208 
L 210.262145 130.683395 
L 208.757 130.594986 
L 207.038157 130.648782 
L 205.13384 130.841283 
L 203.075314 131.159918 
L 200.896377 131.58387 
L 198.632803 132.085431 
L 196.321754 132.631821 
L 194.00117 133.187325 
L 191.709149 133.715635 
L 189.483321 134.182219 
L 187.360229 134.556583 
L 185.374728 134.814264 
L 183.559418 134.938429 
L 181.944105 134.920977 
L 180.555313 134.763068 
L 179.415847 134.475046 
L 178.544421 134.075764 
L 177.955348 133.591349 
L 177.658305 133.053493 
L 177.658177 132.49738 
L 177.954972 131.959388 
L 178.543822 131.474701 
L 179.415064 131.075017 
L 180.554397 130.78647 
L 181.943116 130.627921 
L 183.558421 130.609724 
L 185.373787 130.733053 
L 187.359407 130.989818 
L 189.482672 131.363204 
L 191.708714 131.828762 
L 194.000978 132.356015 
L 196.321818 132.91045 
L 198.633119 133.455774 
L 200.896924 133.956292 
L 203.076056 134.379239 
L 205.134728 134.696926 
L 207.039135 134.888549 
L 208.758002 134.941552 
L 210.263106 134.85245 
L 211.529734 134.627053 
L 212.537091 134.28009 
L 213.268639 133.834246 
L 213.712373 133.318674 
z
" style="fill:#0000ff;stroke:#000000;stroke-linejoin:miter;"/>
   </g>
   <g id="patch_5">
    <path clip-path="url(#p7a84726fba)" d="M 268.221009 132.754565 
L 268.072117 132.203053 
L 267.628146 131.687685 
L 266.896392 131.242178 
L 265.888876 130.89568 
L 264.622144 130.670867 
L 263.116999 130.582458 
L 261.398156 130.636254 
L 259.493838 130.828755 
L 257.435313 131.14739 
L 255.256376 131.571342 
L 252.992802 132.072903 
L 250.681752 132.619293 
L 248.361168 133.174797 
L 246.069148 133.703107 
L 243.84332 134.169691 
L 241.720227 134.544055 
L 239.734726 134.801736 
L 237.919417 134.925901 
L 236.304104 134.908449 
L 234.915312 134.75054 
L 233.775846 134.462518 
L 232.90442 134.063236 
L 232.315346 133.578821 
L 232.018304 133.040965 
L 232.018176 132.484852 
L 232.31497 131.94686 
L 232.90382 131.462173 
L 233.775062 131.062489 
L 234.914395 130.773942 
L 236.303115 130.615393 
L 237.918419 130.597196 
L 239.733786 130.720525 
L 241.719405 130.97729 
L 243.84267 131.350676 
L 246.068713 131.816234 
L 248.360977 132.343487 
L 250.681816 132.897922 
L 252.993118 133.443246 
L 255.256923 133.943764 
L 257.436055 134.366711 
L 259.494727 134.684398 
L 261.399133 134.876021 
L 263.118 134.929024 
L 264.623105 134.839922 
L 265.889733 134.614525 
L 266.897089 134.267562 
L 267.628638 133.821718 
L 268.072371 133.306146 
z
" style="fill:#0000ff;stroke:#000000;stroke-linejoin:miter;"/>
   </g>
   <g id="patch_6">
    <path clip-path="url(#p7a84726fba)" d="M 255.538889 140.911488 
L 190.30689 140.926522 
L 190.308143 146.362522 
L 255.540142 146.347488 
z
" style="fill:#999999;stroke:#000000;stroke-linejoin:miter;"/>
   </g>
   <g id="text_1">
    <!-- t = 2.1 -->
    <defs>
     <path d="M 18.3125 70.21875 
L 18.3125 54.6875 
L 36.8125 54.6875 
L 36.8125 47.703125 
L 18.3125 47.703125 
L 18.3125 18.015625 
Q 18.3125 11.328125 20.140625 9.421875 
Q 21.96875 7.515625 27.59375 7.515625 
L 36.8125 7.515625 
L 36.8125 0 
L 27.59375 0 
Q 17.1875 0 13.234375 3.875 
Q 9.28125 7.765625 9.28125 18.015625 
L 9.28125 47.703125 
L 2.6875 47.703125 
L 2.6875 54.6875 
L 9.28125 54.6875 
L 9.28125 70.21875 
z
" id="DejaVuSans-116"/>
     <path id="DejaVuSans-32"/>
     <path d="M 10.59375 45.40625 
L 73.1875 45.40625 
L 73.1875 37.203125 
L 10.59375 37.203125 
z
M 10.59375 25.484375 
L 73.1875 25.484375 
L 73.1875 17.1875 
L 10.59375 17.1875 
z
" id="DejaVuSans-61"/>
     <path d="M 19.1875 8.296875 
L 53.609375 8.296875 
L 53.609375 0 
L 7.328125 0 
L 7.328125 8.296875 
Q 12.9375 14.109375 22.625 23.890625 
Q 32.328125 33.6875 34.8125 36.53125 
Q 39.546875 41.84375 41.421875 45.53125 
Q 43.3125 49.21875 43.3125 52.78125 
Q 43.3125 58.59375 39.234375 62.25 
Q 35.15625 65.921875 28.609375 65.921875 
Q 23.96875 65.921875 18.8125 64.3125 
Q 13.671875 62.703125 7.8125 59.421875 
L 7.8125 69.390625 
Q 13.765625 71.78125 18.9375 73 
Q 24.125 74.21875 28.421875 74.21875 
Q 39.75 74.21875 46.484375 68.546875 
Q 53.21875 62.890625 53.21875 53.421875 
Q 53.21875 48.921875 51.53125 44.890625 
Q 49.859375 40.875 45.40625 35.40625 
Q 44.1875 33.984375 37.640625 27.21875 
Q 31.109375 20.453125 19.1875 8.296875 
z
" id="DejaVuSans-50"/>
     <path d="M 10.6875 12.40625 
L 21 12.40625 
L 21 0 
L 10.6875 0 
z
" id="DejaVuSans-46"/>
     <path d="M 12.40625 8.296875 
L 28.515625 8.296875 
L 28.515625 63.921875 
L 10.984375 60.40625 
L 10.984375 69.390625 
L 28.421875 72.90625 
L 38.28125 72.90625 
L 38.28125 8.296875 
L 54.390625 8.296875 
L 54.390625 0 
L 12.40625 0 
z
" id="DejaVuSans-49"/>
    </defs>
    <g transform="translate(200.664375 28.56)scale(0.12 -0.12)">
     <use xlink:href="#DejaVuSans-116"/>
     <use x="39.208984" xlink:href="#DejaVuSans-32"/>
     <use x="70.996094" xlink:href="#DejaVuSans-61"/>
     <use x="154.785156" xlink:href="#DejaVuSans-32"/>
     <use x="186.572266" xlink:href="#DejaVuSans-50"/>
     <use x="250.195312" xlink:href="#DejaVuSans-46"/>
     <use x="281.982422" xlink:href="#DejaVuSans-49"/>
    </g>
   </g>
  </g>
 </g>
 <defs>
  <clipPath id="p7a84726fba">
   <rect height="217.44" width="334.8" x="54" y="34.56"/>
  </clipPath>
 </defs>
</svg>
