<?xml version="1.0" encoding="utf-8" standalone="no"?>
<!DOCTYPE svg PUBLIC "-//W3C//DTD SVG 1.1//EN"
  "http://www.w3.org/Graphics/SVG/1.1/DTD/svg11.dtd">
<!-- Created with matplotlib (https://matplotlib.org/) -->
<svg height="288pt" version="1.1" viewBox="0 0 432 288" width="432pt" xmlns="http://www.w3.org/2000/svg" xmlns:xlink="http://www.w3.org/1999/xlink">
 <defs>
  <style type="text/css">
*{stroke-linecap:butt;stroke-linejoin:round;}
  </style>
 </defs>
 <g id="figure_1">
  <g id="patch_1">
   <path d="M 0 288 
L 432 288 
L 432 0 
L 0 0 
z
" style="fill:#ffffff;"/>
  </g>
  <g id="axes_1">
   <g id="patch_2">
    <path clip-path="url(#p97d0e26021)" d="M 195.099461 132.380704 
L 195.070958 143.252666 
L 193.983762 143.249816 
L 194.012265 132.377853 
z
" style="stroke:#000000;stroke-linejoin:miter;"/>
   </g>
   <g id="patch_3">
    <path clip-path="url(#p97d0e26021)" d="M 249.459275 132.523222 
L 249.430771 143.395184 
L 248.343575 143.392334 
L 248.372078 132.520371 
z
" style="stroke:#000000;stroke-linejoin:miter;"/>
   </g>
   <g id="patch_4">
    <path clip-path="url(#p97d0e26021)" d="M 212.675801 132.426785 
L 212.528483 131.87485 
L 212.085983 131.358218 
L 211.355503 130.910626 
L 210.348979 130.561255 
L 209.082893 130.33283 
L 207.578007 130.240129 
L 205.859018 130.289022 
L 203.954159 130.47609 
L 201.894732 130.788853 
L 199.714595 131.206588 
L 197.4496 131.701692 
L 195.137001 132.241487 
L 192.814842 132.790371 
L 190.521324 133.312141 
L 188.294175 133.772375 
L 186.170023 134.140682 
L 184.183795 134.392698 
L 182.368139 134.511685 
L 180.752882 134.489626 
L 179.364546 134.327756 
L 178.225907 134.036486 
L 177.355623 133.63472 
L 176.767933 133.148627 
L 176.472426 132.609925 
L 176.473884 132.053815 
L 176.772212 131.516671 
L 177.362442 131.033666 
L 178.234821 130.636469 
L 179.374972 130.351173 
L 180.764138 130.196585 
L 182.379487 130.182995 
L 184.194495 130.311501 
L 186.179374 130.573929 
L 188.301565 130.953369 
L 190.526271 131.425274 
L 192.817022 131.959063 
L 195.136271 132.520115 
L 197.446007 133.07203 
L 199.708376 133.579002 
L 201.886292 134.008163 
L 203.94405 134.33172 
L 205.847902 134.528774 
L 207.566611 134.58668 
L 209.071963 134.501871 
L 210.339229 134.280087 
L 211.347571 133.936 
L 212.080389 133.492243 
L 212.525591 132.977939 
z
" style="fill:#0000ff;stroke:#000000;stroke-linejoin:miter;"/>
   </g>
   <g id="patch_5">
    <path clip-path="url(#p97d0e26021)" d="M 267.035614 132.569302 
L 266.888296 132.017368 
L 266.445797 131.500736 
L 265.715316 131.053144 
L 264.708792 130.703773 
L 263.442707 130.475348 
L 261.93782 130.382647 
L 260.218831 130.43154 
L 258.313972 130.618608 
L 256.254546 130.931371 
L 254.074409 131.349106 
L 251.809413 131.844209 
L 249.496814 132.384005 
L 247.174656 132.932889 
L 244.881138 133.454659 
L 242.653988 133.914893 
L 240.529836 134.2832 
L 238.543608 134.535216 
L 236.727952 134.654203 
L 235.112696 134.632144 
L 233.724359 134.470274 
L 232.58572 134.179004 
L 231.715436 133.777238 
L 231.127746 133.291144 
L 230.832239 132.752443 
L 230.833697 132.196333 
L 231.132025 131.659189 
L 231.722255 131.176184 
L 232.594634 130.778987 
L 233.734785 130.49369 
L 235.123951 130.339103 
L 236.739301 130.325513 
L 238.554308 130.454019 
L 240.539187 130.716447 
L 242.661379 131.095887 
L 244.886085 131.567792 
L 247.176835 132.101581 
L 249.496084 132.662633 
L 251.80582 133.214547 
L 254.068189 133.72152 
L 256.246105 134.150681 
L 258.303863 134.474238 
L 260.207715 134.671292 
L 261.926424 134.729198 
L 263.431776 134.644389 
L 264.699042 134.422605 
L 265.707385 134.078517 
L 266.440202 133.634761 
L 266.885404 133.120457 
z
" style="fill:#0000ff;stroke:#000000;stroke-linejoin:miter;"/>
   </g>
   <g id="patch_6">
    <path clip-path="url(#p97d0e26021)" d="M 254.33028 140.69002 
L 189.098504 140.518999 
L 189.084253 145.95498 
L 254.316028 146.126001 
z
" style="fill:#999999;stroke:#000000;stroke-linejoin:miter;"/>
   </g>
   <g id="text_1">
    <!-- t = 2.7 -->
    <defs>
     <path d="M 18.3125 70.21875 
L 18.3125 54.6875 
L 36.8125 54.6875 
L 36.8125 47.703125 
L 18.3125 47.703125 
L 18.3125 18.015625 
Q 18.3125 11.328125 20.140625 9.421875 
Q 21.96875 7.515625 27.59375 7.515625 
L 36.8125 7.515625 
L 36.8125 0 
L 27.59375 0 
Q 17.1875 0 13.234375 3.875 
Q 9.28125 7.765625 9.28125 18.015625 
L 9.28125 47.703125 
L 2.6875 47.703125 
L 2.6875 54.6875 
L 9.28125 54.6875 
L 9.28125 70.21875 
z
" id="DejaVuSans-116"/>
     <path id="DejaVuSans-32"/>
     <path d="M 10.59375 45.40625 
L 73.1875 45.40625 
L 73.1875 37.203125 
L 10.59375 37.203125 
z
M 10.59375 25.484375 
L 73.1875 25.484375 
L 73.1875 17.1875 
L 10.59375 17.1875 
z
" id="DejaVuSans-61"/>
     <path d="M 19.1875 8.296875 
L 53.609375 8.296875 
L 53.609375 0 
L 7.328125 0 
L 7.328125 8.296875 
Q 12.9375 14.109375 22.625 23.890625 
Q 32.328125 33.6875 34.8125 36.53125 
Q 39.546875 41.84375 41.421875 45.53125 
Q 43.3125 49.21875 43.3125 52.78125 
Q 43.3125 58.59375 39.234375 62.25 
Q 35.15625 65.921875 28.609375 65.921875 
Q 23.96875 65.921875 18.8125 64.3125 
Q 13.671875 62.703125 7.8125 59.421875 
L 7.8125 69.390625 
Q 13.765625 71.78125 18.9375 73 
Q 24.125 74.21875 28.421875 74.21875 
Q 39.75 74.21875 46.484375 68.546875 
Q 53.21875 62.890625 53.21875 53.421875 
Q 53.21875 48.921875 51.53125 44.890625 
Q 49.859375 40.875 45.40625 35.40625 
Q 44.1875 33.984375 37.640625 27.21875 
Q 31.109375 20.453125 19.1875 8.296875 
z
" id="DejaVuSans-50"/>
     <path d="M 10.6875 12.40625 
L 21 12.40625 
L 21 0 
L 10.6875 0 
z
" id="DejaVuSans-46"/>
     <path d="M 8.203125 72.90625 
L 55.078125 72.90625 
L 55.078125 68.703125 
L 28.609375 0 
L 18.3125 0 
L 43.21875 64.59375 
L 8.203125 64.59375 
z
" id="DejaVuSans-55"/>
    </defs>
    <g transform="translate(200.664375 28.56)scale(0.12 -0.12)">
     <use xlink:href="#DejaVuSans-116"/>
     <use x="39.208984" xlink:href="#DejaVuSans-32"/>
     <use x="70.996094" xlink:href="#DejaVuSans-61"/>
     <use x="154.785156" xlink:href="#DejaVuSans-32"/>
     <use x="186.572266" xlink:href="#DejaVuSans-50"/>
     <use x="250.195312" xlink:href="#DejaVuSans-46"/>
     <use x="281.982422" xlink:href="#DejaVuSans-55"/>
    </g>
   </g>
  </g>
 </g>
 <defs>
  <clipPath id="p97d0e26021">
   <rect height="217.44" width="334.8" x="54" y="34.56"/>
  </clipPath>
 </defs>
</svg>
