<?xml version="1.0" encoding="utf-8" standalone="no"?>
<!DOCTYPE svg PUBLIC "-//W3C//DTD SVG 1.1//EN"
  "http://www.w3.org/Graphics/SVG/1.1/DTD/svg11.dtd">
<!-- Created with matplotlib (https://matplotlib.org/) -->
<svg height="288pt" version="1.1" viewBox="0 0 432 288" width="432pt" xmlns="http://www.w3.org/2000/svg" xmlns:xlink="http://www.w3.org/1999/xlink">
 <defs>
  <style type="text/css">
*{stroke-linecap:butt;stroke-linejoin:round;}
  </style>
 </defs>
 <g id="figure_1">
  <g id="patch_1">
   <path d="M 0 288 
L 432 288 
L 432 0 
L 0 0 
z
" style="fill:#ffffff;"/>
  </g>
  <g id="axes_1">
   <g id="patch_2">
    <path clip-path="url(#p6ca1149b5c)" d="M 194.769359 132.40205 
L 194.766382 143.27405 
L 193.679182 143.273752 
L 193.682159 132.401753 
z
" style="stroke:#000000;stroke-linejoin:miter;"/>
   </g>
   <g id="patch_3">
    <path clip-path="url(#p6ca1149b5c)" d="M 249.129357 132.416935 
L 249.12638 143.288934 
L 248.03918 143.288637 
L 248.042157 132.416637 
z
" style="stroke:#000000;stroke-linejoin:miter;"/>
   </g>
   <g id="patch_4">
    <path clip-path="url(#p6ca1149b5c)" d="M 212.345759 132.406863 
L 212.197145 131.855276 
L 211.753434 131.339684 
L 211.021904 130.893808 
L 210.014563 130.546802 
L 208.747944 130.32135 
L 207.242844 130.232183 
L 205.523974 130.285112 
L 203.61956 130.476652 
L 201.560874 130.794249 
L 199.381724 131.217102 
L 197.117897 131.717522 
L 194.806572 132.262746 
L 192.485708 132.81708 
L 190.193422 133.344234 
L 187.967359 133.809696 
L 185.844077 134.182989 
L 183.858447 134.439669 
L 182.043075 134.562918 
L 180.427771 134.544651 
L 179.039059 134.386042 
L 177.899738 134.097446 
L 177.028514 133.697724 
L 176.439685 133.213012 
L 176.142913 132.675006 
L 176.143066 132.118894 
L 176.440131 131.581051 
L 177.029226 131.096661 
L 177.900669 130.697417 
L 179.040148 130.409445 
L 180.428947 130.251596 
L 182.04426 130.234214 
L 183.859565 130.358457 
L 185.845054 130.616224 
L 187.968131 130.99068 
L 190.193938 131.457361 
L 192.485936 131.98577 
L 194.806496 132.541375 
L 197.117522 133.087865 
L 199.381074 133.589524 
L 201.559992 134.01357 
L 203.618504 134.332295 
L 205.522814 134.524878 
L 207.241654 134.578748 
L 208.746803 134.490405 
L 210.013544 134.265647 
L 211.021076 133.919192 
L 211.752849 133.473717 
L 212.196843 132.958369 
z
" style="fill:#0000ff;stroke:#000000;stroke-linejoin:miter;"/>
   </g>
   <g id="patch_5">
    <path clip-path="url(#p6ca1149b5c)" d="M 266.705757 132.421747 
L 266.557143 131.87016 
L 266.113432 131.354569 
L 265.381902 130.908693 
L 264.374561 130.561687 
L 263.107942 130.336235 
L 261.602842 130.247067 
L 259.883972 130.299996 
L 257.979558 130.491536 
L 255.920872 130.809134 
L 253.741722 131.231986 
L 251.477895 131.732406 
L 249.16657 132.277631 
L 246.845706 132.831965 
L 244.55342 133.359119 
L 242.327357 133.82458 
L 240.204075 134.197873 
L 238.218445 134.454553 
L 236.403073 134.577802 
L 234.787769 134.559536 
L 233.399057 134.400926 
L 232.259736 134.11233 
L 231.388512 133.712609 
L 230.799683 133.227896 
L 230.502911 132.689891 
L 230.503064 132.133778 
L 230.800129 131.595935 
L 231.389224 131.111546 
L 232.260667 130.712301 
L 233.400146 130.424329 
L 234.788945 130.26648 
L 236.404258 130.249098 
L 238.219562 130.373342 
L 240.205052 130.631108 
L 242.328129 131.005565 
L 244.553936 131.472245 
L 246.845934 132.000654 
L 249.166494 132.556259 
L 251.47752 133.102749 
L 253.741072 133.604409 
L 255.91999 134.028455 
L 257.978502 134.347179 
L 259.882812 134.539762 
L 261.601652 134.593633 
L 263.106801 134.505289 
L 264.373542 134.280531 
L 265.381074 133.934077 
L 266.112847 133.488601 
L 266.556841 132.973253 
z
" style="fill:#0000ff;stroke:#000000;stroke-linejoin:miter;"/>
   </g>
   <g id="patch_6">
    <path clip-path="url(#p6ca1149b5c)" d="M 254.019524 140.572274 
L 188.787527 140.554413 
L 188.786038 145.990412 
L 254.018036 146.008274 
z
" style="fill:#999999;stroke:#000000;stroke-linejoin:miter;"/>
   </g>
   <g id="text_1">
    <!-- t = 3.6 -->
    <defs>
     <path d="M 18.3125 70.21875 
L 18.3125 54.6875 
L 36.8125 54.6875 
L 36.8125 47.703125 
L 18.3125 47.703125 
L 18.3125 18.015625 
Q 18.3125 11.328125 20.140625 9.421875 
Q 21.96875 7.515625 27.59375 7.515625 
L 36.8125 7.515625 
L 36.8125 0 
L 27.59375 0 
Q 17.1875 0 13.234375 3.875 
Q 9.28125 7.765625 9.28125 18.015625 
L 9.28125 47.703125 
L 2.6875 47.703125 
L 2.6875 54.6875 
L 9.28125 54.6875 
L 9.28125 70.21875 
z
" id="DejaVuSans-116"/>
     <path id="DejaVuSans-32"/>
     <path d="M 10.59375 45.40625 
L 73.1875 45.40625 
L 73.1875 37.203125 
L 10.59375 37.203125 
z
M 10.59375 25.484375 
L 73.1875 25.484375 
L 73.1875 17.1875 
L 10.59375 17.1875 
z
" id="DejaVuSans-61"/>
     <path d="M 40.578125 39.3125 
Q 47.65625 37.796875 51.625 33 
Q 55.609375 28.21875 55.609375 21.1875 
Q 55.609375 10.40625 48.1875 4.484375 
Q 40.765625 -1.421875 27.09375 -1.421875 
Q 22.515625 -1.421875 17.65625 -0.515625 
Q 12.796875 0.390625 7.625 2.203125 
L 7.625 11.71875 
Q 11.71875 9.328125 16.59375 8.109375 
Q 21.484375 6.890625 26.8125 6.890625 
Q 36.078125 6.890625 40.9375 10.546875 
Q 45.796875 14.203125 45.796875 21.1875 
Q 45.796875 27.640625 41.28125 31.265625 
Q 36.765625 34.90625 28.71875 34.90625 
L 20.21875 34.90625 
L 20.21875 43.015625 
L 29.109375 43.015625 
Q 36.375 43.015625 40.234375 45.921875 
Q 44.09375 48.828125 44.09375 54.296875 
Q 44.09375 59.90625 40.109375 62.90625 
Q 36.140625 65.921875 28.71875 65.921875 
Q 24.65625 65.921875 20.015625 65.03125 
Q 15.375 64.15625 9.8125 62.3125 
L 9.8125 71.09375 
Q 15.4375 72.65625 20.34375 73.4375 
Q 25.25 74.21875 29.59375 74.21875 
Q 40.828125 74.21875 47.359375 69.109375 
Q 53.90625 64.015625 53.90625 55.328125 
Q 53.90625 49.265625 50.4375 45.09375 
Q 46.96875 40.921875 40.578125 39.3125 
z
" id="DejaVuSans-51"/>
     <path d="M 10.6875 12.40625 
L 21 12.40625 
L 21 0 
L 10.6875 0 
z
" id="DejaVuSans-46"/>
     <path d="M 33.015625 40.375 
Q 26.375 40.375 22.484375 35.828125 
Q 18.609375 31.296875 18.609375 23.390625 
Q 18.609375 15.53125 22.484375 10.953125 
Q 26.375 6.390625 33.015625 6.390625 
Q 39.65625 6.390625 43.53125 10.953125 
Q 47.40625 15.53125 47.40625 23.390625 
Q 47.40625 31.296875 43.53125 35.828125 
Q 39.65625 40.375 33.015625 40.375 
z
M 52.59375 71.296875 
L 52.59375 62.3125 
Q 48.875 64.0625 45.09375 64.984375 
Q 41.3125 65.921875 37.59375 65.921875 
Q 27.828125 65.921875 22.671875 59.328125 
Q 17.53125 52.734375 16.796875 39.40625 
Q 19.671875 43.65625 24.015625 45.921875 
Q 28.375 48.1875 33.59375 48.1875 
Q 44.578125 48.1875 50.953125 41.515625 
Q 57.328125 34.859375 57.328125 23.390625 
Q 57.328125 12.15625 50.6875 5.359375 
Q 44.046875 -1.421875 33.015625 -1.421875 
Q 20.359375 -1.421875 13.671875 8.265625 
Q 6.984375 17.96875 6.984375 36.375 
Q 6.984375 53.65625 15.1875 63.9375 
Q 23.390625 74.21875 37.203125 74.21875 
Q 40.921875 74.21875 44.703125 73.484375 
Q 48.484375 72.75 52.59375 71.296875 
z
" id="DejaVuSans-54"/>
    </defs>
    <g transform="translate(200.664375 28.56)scale(0.12 -0.12)">
     <use xlink:href="#DejaVuSans-116"/>
     <use x="39.208984" xlink:href="#DejaVuSans-32"/>
     <use x="70.996094" xlink:href="#DejaVuSans-61"/>
     <use x="154.785156" xlink:href="#DejaVuSans-32"/>
     <use x="186.572266" xlink:href="#DejaVuSans-51"/>
     <use x="250.195312" xlink:href="#DejaVuSans-46"/>
     <use x="281.982422" xlink:href="#DejaVuSans-54"/>
    </g>
   </g>
  </g>
 </g>
 <defs>
  <clipPath id="p6ca1149b5c">
   <rect height="217.44" width="334.8" x="54" y="34.56"/>
  </clipPath>
 </defs>
</svg>
