<?xml version="1.0" encoding="utf-8" standalone="no"?>
<!DOCTYPE svg PUBLIC "-//W3C//DTD SVG 1.1//EN"
  "http://www.w3.org/Graphics/SVG/1.1/DTD/svg11.dtd">
<!-- Created with matplotlib (https://matplotlib.org/) -->
<svg height="288pt" version="1.1" viewBox="0 0 432 288" width="432pt" xmlns="http://www.w3.org/2000/svg" xmlns:xlink="http://www.w3.org/1999/xlink">
 <defs>
  <style type="text/css">
*{stroke-linecap:butt;stroke-linejoin:round;}
  </style>
 </defs>
 <g id="figure_1">
  <g id="patch_1">
   <path d="M 0 288 
L 432 288 
L 432 0 
L 0 0 
z
" style="fill:#ffffff;"/>
  </g>
  <g id="axes_1">
   <g id="patch_2">
    <path clip-path="url(#p5bad2671c4)" d="M 196.091588 132.465333 
L 196.009587 143.337024 
L 194.922418 143.328824 
L 195.004419 132.457133 
z
" style="stroke:#000000;stroke-linejoin:miter;"/>
   </g>
   <g id="patch_3">
    <path clip-path="url(#p5bad2671c4)" d="M 250.450042 132.87534 
L 250.368041 143.747031 
L 249.280871 143.738831 
L 249.362873 132.86714 
z
" style="stroke:#000000;stroke-linejoin:miter;"/>
   </g>
   <g id="patch_4">
    <path clip-path="url(#p5bad2671c4)" d="M 213.667488 132.597902 
L 213.522887 132.045249 
L 213.082936 131.526446 
L 212.354667 131.075265 
L 211.349874 130.720946 
L 210.084928 130.486293 
L 208.580515 130.386188 
L 206.861307 130.426622 
L 204.95555 130.604314 
L 202.89461 130.90694 
L 200.712444 131.313942 
L 198.445039 131.797893 
L 196.129812 132.326303 
L 193.804981 132.863753 
L 191.508923 133.374231 
L 189.279536 133.8235 
L 187.153597 134.18135 
L 185.166153 134.42359 
L 183.349934 134.533641 
L 181.734805 134.503634 
L 180.347282 134.334934 
L 179.21009 134.038064 
L 178.341793 133.632021 
L 177.756503 133.143041 
L 177.46365 132.602893 
L 177.467845 132.046796 
L 177.768812 131.511127 
L 178.361412 131.031032 
L 179.235734 130.638132 
L 180.377276 130.35845 
L 181.767185 130.2107 
L 183.382583 130.205059 
L 185.196936 130.342495 
L 187.180499 130.614686 
L 189.300798 131.004564 
L 191.523155 131.487411 
L 193.811251 132.032466 
L 196.127711 132.604924 
L 198.434704 133.168197 
L 200.69455 133.686296 
L 202.870328 134.126169 
L 204.926469 134.459848 
L 206.829328 134.666268 
L 208.547732 134.73263 
L 210.053483 134.655229 
L 211.321825 134.439685 
L 212.331848 134.100563 
L 213.06684 133.660418 
L 213.514567 133.148311 
z
" style="fill:#0000ff;stroke:#000000;stroke-linejoin:miter;"/>
   </g>
   <g id="patch_5">
    <path clip-path="url(#p5bad2671c4)" d="M 268.025942 133.007909 
L 267.881341 132.455256 
L 267.44139 131.936453 
L 266.713121 131.485272 
L 265.708328 131.130953 
L 264.443382 130.8963 
L 262.938969 130.796195 
L 261.21976 130.836629 
L 259.314004 131.014321 
L 257.253064 131.316947 
L 255.070898 131.723949 
L 252.803493 132.2079 
L 250.488266 132.73631 
L 248.163435 133.27376 
L 245.867377 133.784238 
L 243.637989 134.233507 
L 241.512051 134.591357 
L 239.524607 134.833597 
L 237.708387 134.943648 
L 236.093259 134.913641 
L 234.705736 134.744941 
L 233.568544 134.448071 
L 232.700247 134.042028 
L 232.114957 133.553049 
L 231.822104 133.0129 
L 231.826298 132.456803 
L 232.127266 131.921134 
L 232.719866 131.441039 
L 233.594188 131.048139 
L 234.735729 130.768457 
L 236.125639 130.620707 
L 237.741036 130.615066 
L 239.55539 130.752502 
L 241.538953 131.024693 
L 243.659252 131.414571 
L 245.881609 131.897418 
L 248.169705 132.442473 
L 250.486165 133.014931 
L 252.793157 133.578204 
L 255.053004 134.096303 
L 257.228782 134.536176 
L 259.284923 134.869855 
L 261.187782 135.076275 
L 262.906185 135.142637 
L 264.411937 135.065236 
L 265.680279 134.849692 
L 266.690302 134.51057 
L 267.425294 134.070425 
L 267.873021 133.558318 
z
" style="fill:#0000ff;stroke:#000000;stroke-linejoin:miter;"/>
   </g>
   <g id="patch_6">
    <path clip-path="url(#p5bad2671c4)" d="M 255.280802 141.066009 
L 190.050657 140.574 
L 190.009656 146.009846 
L 255.239801 146.501854 
z
" style="fill:#999999;stroke:#000000;stroke-linejoin:miter;"/>
   </g>
   <g id="text_1">
    <!-- t = 2.1 -->
    <defs>
     <path d="M 18.3125 70.21875 
L 18.3125 54.6875 
L 36.8125 54.6875 
L 36.8125 47.703125 
L 18.3125 47.703125 
L 18.3125 18.015625 
Q 18.3125 11.328125 20.140625 9.421875 
Q 21.96875 7.515625 27.59375 7.515625 
L 36.8125 7.515625 
L 36.8125 0 
L 27.59375 0 
Q 17.1875 0 13.234375 3.875 
Q 9.28125 7.765625 9.28125 18.015625 
L 9.28125 47.703125 
L 2.6875 47.703125 
L 2.6875 54.6875 
L 9.28125 54.6875 
L 9.28125 70.21875 
z
" id="DejaVuSans-116"/>
     <path id="DejaVuSans-32"/>
     <path d="M 10.59375 45.40625 
L 73.1875 45.40625 
L 73.1875 37.203125 
L 10.59375 37.203125 
z
M 10.59375 25.484375 
L 73.1875 25.484375 
L 73.1875 17.1875 
L 10.59375 17.1875 
z
" id="DejaVuSans-61"/>
     <path d="M 19.1875 8.296875 
L 53.609375 8.296875 
L 53.609375 0 
L 7.328125 0 
L 7.328125 8.296875 
Q 12.9375 14.109375 22.625 23.890625 
Q 32.328125 33.6875 34.8125 36.53125 
Q 39.546875 41.84375 41.421875 45.53125 
Q 43.3125 49.21875 43.3125 52.78125 
Q 43.3125 58.59375 39.234375 62.25 
Q 35.15625 65.921875 28.609375 65.921875 
Q 23.96875 65.921875 18.8125 64.3125 
Q 13.671875 62.703125 7.8125 59.421875 
L 7.8125 69.390625 
Q 13.765625 71.78125 18.9375 73 
Q 24.125 74.21875 28.421875 74.21875 
Q 39.75 74.21875 46.484375 68.546875 
Q 53.21875 62.890625 53.21875 53.421875 
Q 53.21875 48.921875 51.53125 44.890625 
Q 49.859375 40.875 45.40625 35.40625 
Q 44.1875 33.984375 37.640625 27.21875 
Q 31.109375 20.453125 19.1875 8.296875 
z
" id="DejaVuSans-50"/>
     <path d="M 10.6875 12.40625 
L 21 12.40625 
L 21 0 
L 10.6875 0 
z
" id="DejaVuSans-46"/>
     <path d="M 12.40625 8.296875 
L 28.515625 8.296875 
L 28.515625 63.921875 
L 10.984375 60.40625 
L 10.984375 69.390625 
L 28.421875 72.90625 
L 38.28125 72.90625 
L 38.28125 8.296875 
L 54.390625 8.296875 
L 54.390625 0 
L 12.40625 0 
z
" id="DejaVuSans-49"/>
    </defs>
    <g transform="translate(200.664375 28.56)scale(0.12 -0.12)">
     <use xlink:href="#DejaVuSans-116"/>
     <use x="39.208984" xlink:href="#DejaVuSans-32"/>
     <use x="70.996094" xlink:href="#DejaVuSans-61"/>
     <use x="154.785156" xlink:href="#DejaVuSans-32"/>
     <use x="186.572266" xlink:href="#DejaVuSans-50"/>
     <use x="250.195312" xlink:href="#DejaVuSans-46"/>
     <use x="281.982422" xlink:href="#DejaVuSans-49"/>
    </g>
   </g>
  </g>
 </g>
 <defs>
  <clipPath id="p5bad2671c4">
   <rect height="217.44" width="334.8" x="54" y="34.56"/>
  </clipPath>
 </defs>
</svg>
