<?xml version="1.0" encoding="utf-8" standalone="no"?>
<!DOCTYPE svg PUBLIC "-//W3C//DTD SVG 1.1//EN"
  "http://www.w3.org/Graphics/SVG/1.1/DTD/svg11.dtd">
<!-- Created with matplotlib (https://matplotlib.org/) -->
<svg height="288pt" version="1.1" viewBox="0 0 432 288" width="432pt" xmlns="http://www.w3.org/2000/svg" xmlns:xlink="http://www.w3.org/1999/xlink">
 <defs>
  <style type="text/css">
*{stroke-linecap:butt;stroke-linejoin:round;}
  </style>
 </defs>
 <g id="figure_1">
  <g id="patch_1">
   <path d="M 0 288 
L 432 288 
L 432 0 
L 0 0 
z
" style="fill:#ffffff;"/>
  </g>
  <g id="axes_1">
   <g id="patch_2">
    <path clip-path="url(#pb1707eba8d)" d="M 212.308199 127.633064 
L 210.887349 138.41182 
L 209.809473 138.269735 
L 211.230323 127.490979 
z
" style="stroke:#000000;stroke-linejoin:miter;"/>
   </g>
   <g id="patch_3">
    <path clip-path="url(#pb1707eba8d)" d="M 266.201976 134.737314 
L 264.781126 145.51607 
L 263.70325 145.373985 
L 265.1241 134.595229 
z
" style="stroke:#000000;stroke-linejoin:miter;"/>
   </g>
   <g id="patch_4">
    <path clip-path="url(#pb1707eba8d)" d="M 229.733853 129.930105 
L 229.658445 129.363847 
L 229.285766 128.794792 
L 228.618635 128.257319 
L 227.665152 127.781902 
L 226.438755 127.393187 
L 224.958138 127.108489 
L 223.247046 126.936796 
L 221.333917 126.878331 
L 219.251393 126.924727 
L 217.035708 127.059769 
L 214.725952 127.260673 
L 212.363261 127.499803 
L 209.989925 127.746722 
L 207.648466 127.970419 
L 205.380711 128.141588 
L 203.226881 128.23478 
L 201.224734 128.230306 
L 199.408792 128.115747 
L 197.809667 127.886972 
L 196.453501 127.548605 
L 195.361549 127.113886 
L 194.549896 126.603956 
L 194.029311 126.04659 
L 193.80524 125.474475 
L 193.877917 124.923133 
L 194.24259 124.428626 
L 194.889826 124.025201 
L 195.805895 123.743018 
L 196.973198 123.606113 
L 198.370722 123.630736 
L 199.974506 123.824168 
L 201.758103 124.184097 
L 203.693017 124.698605 
L 205.749125 125.346749 
L 207.89506 126.099728 
L 210.098568 126.922541 
L 212.326847 127.776042 
L 214.546864 128.619262 
L 216.725658 129.411844 
L 218.830664 130.116438 
L 220.830027 130.700906 
L 222.692956 131.140199 
L 224.39009 131.417776 
L 225.893905 131.526485 
L 227.17914 131.468852 
L 228.22325 131.256756 
L 229.006872 130.910521 
L 229.514283 130.457479 
z
" style="fill:#0000ff;stroke:#000000;stroke-linejoin:miter;"/>
   </g>
   <g id="patch_5">
    <path clip-path="url(#pb1707eba8d)" d="M 283.627631 137.034355 
L 283.552222 136.468097 
L 283.179543 135.899042 
L 282.512412 135.361569 
L 281.558929 134.886152 
L 280.332532 134.497437 
L 278.851915 134.212739 
L 277.140824 134.041046 
L 275.227694 133.982581 
L 273.145171 134.028977 
L 270.929485 134.164019 
L 268.619729 134.364923 
L 266.257038 134.604053 
L 263.883702 134.850972 
L 261.542243 135.074669 
L 259.274489 135.245838 
L 257.120658 135.33903 
L 255.118511 135.334556 
L 253.30257 135.219997 
L 251.703444 134.991222 
L 250.347278 134.652855 
L 249.255327 134.218136 
L 248.443673 133.708206 
L 247.923088 133.15084 
L 247.699017 132.578725 
L 247.771695 132.027383 
L 248.136368 131.532876 
L 248.783603 131.129451 
L 249.699673 130.847268 
L 250.866976 130.710363 
L 252.264499 130.734986 
L 253.868283 130.928418 
L 255.65188 131.288348 
L 257.586795 131.802855 
L 259.642903 132.450999 
L 261.788837 133.203978 
L 263.992345 134.026791 
L 266.220625 134.880292 
L 268.440641 135.723512 
L 270.619436 136.516094 
L 272.724441 137.220688 
L 274.723804 137.805156 
L 276.586733 138.244449 
L 278.283867 138.522026 
L 279.787683 138.630735 
L 281.072918 138.573102 
L 282.117028 138.361006 
L 282.900649 138.014772 
L 283.40806 137.561729 
z
" style="fill:#0000ff;stroke:#000000;stroke-linejoin:miter;"/>
   </g>
   <g id="patch_6">
    <path clip-path="url(#pb1707eba8d)" d="M 269.986778 143.460763 
L 205.314246 134.935663 
L 204.603821 140.325041 
L 269.276353 148.850141 
z
" style="fill:#999999;stroke:#000000;stroke-linejoin:miter;"/>
   </g>
   <g id="text_1">
    <!-- t = 1.2 -->
    <defs>
     <path d="M 18.3125 70.21875 
L 18.3125 54.6875 
L 36.8125 54.6875 
L 36.8125 47.703125 
L 18.3125 47.703125 
L 18.3125 18.015625 
Q 18.3125 11.328125 20.140625 9.421875 
Q 21.96875 7.515625 27.59375 7.515625 
L 36.8125 7.515625 
L 36.8125 0 
L 27.59375 0 
Q 17.1875 0 13.234375 3.875 
Q 9.28125 7.765625 9.28125 18.015625 
L 9.28125 47.703125 
L 2.6875 47.703125 
L 2.6875 54.6875 
L 9.28125 54.6875 
L 9.28125 70.21875 
z
" id="DejaVuSans-116"/>
     <path id="DejaVuSans-32"/>
     <path d="M 10.59375 45.40625 
L 73.1875 45.40625 
L 73.1875 37.203125 
L 10.59375 37.203125 
z
M 10.59375 25.484375 
L 73.1875 25.484375 
L 73.1875 17.1875 
L 10.59375 17.1875 
z
" id="DejaVuSans-61"/>
     <path d="M 12.40625 8.296875 
L 28.515625 8.296875 
L 28.515625 63.921875 
L 10.984375 60.40625 
L 10.984375 69.390625 
L 28.421875 72.90625 
L 38.28125 72.90625 
L 38.28125 8.296875 
L 54.390625 8.296875 
L 54.390625 0 
L 12.40625 0 
z
" id="DejaVuSans-49"/>
     <path d="M 10.6875 12.40625 
L 21 12.40625 
L 21 0 
L 10.6875 0 
z
" id="DejaVuSans-46"/>
     <path d="M 19.1875 8.296875 
L 53.609375 8.296875 
L 53.609375 0 
L 7.328125 0 
L 7.328125 8.296875 
Q 12.9375 14.109375 22.625 23.890625 
Q 32.328125 33.6875 34.8125 36.53125 
Q 39.546875 41.84375 41.421875 45.53125 
Q 43.3125 49.21875 43.3125 52.78125 
Q 43.3125 58.59375 39.234375 62.25 
Q 35.15625 65.921875 28.609375 65.921875 
Q 23.96875 65.921875 18.8125 64.3125 
Q 13.671875 62.703125 7.8125 59.421875 
L 7.8125 69.390625 
Q 13.765625 71.78125 18.9375 73 
Q 24.125 74.21875 28.421875 74.21875 
Q 39.75 74.21875 46.484375 68.546875 
Q 53.21875 62.890625 53.21875 53.421875 
Q 53.21875 48.921875 51.53125 44.890625 
Q 49.859375 40.875 45.40625 35.40625 
Q 44.1875 33.984375 37.640625 27.21875 
Q 31.109375 20.453125 19.1875 8.296875 
z
" id="DejaVuSans-50"/>
    </defs>
    <g transform="translate(200.664375 28.56)scale(0.12 -0.12)">
     <use xlink:href="#DejaVuSans-116"/>
     <use x="39.208984" xlink:href="#DejaVuSans-32"/>
     <use x="70.996094" xlink:href="#DejaVuSans-61"/>
     <use x="154.785156" xlink:href="#DejaVuSans-32"/>
     <use x="186.572266" xlink:href="#DejaVuSans-49"/>
     <use x="250.195312" xlink:href="#DejaVuSans-46"/>
     <use x="281.982422" xlink:href="#DejaVuSans-50"/>
    </g>
   </g>
  </g>
 </g>
 <defs>
  <clipPath id="pb1707eba8d">
   <rect height="217.44" width="334.8" x="54" y="34.56"/>
  </clipPath>
 </defs>
</svg>
