<?xml version="1.0" encoding="utf-8" standalone="no"?>
<!DOCTYPE svg PUBLIC "-//W3C//DTD SVG 1.1//EN"
  "http://www.w3.org/Graphics/SVG/1.1/DTD/svg11.dtd">
<!-- Created with matplotlib (https://matplotlib.org/) -->
<svg height="288pt" version="1.1" viewBox="0 0 432 288" width="432pt" xmlns="http://www.w3.org/2000/svg" xmlns:xlink="http://www.w3.org/1999/xlink">
 <defs>
  <style type="text/css">
*{stroke-linecap:butt;stroke-linejoin:round;}
  </style>
 </defs>
 <g id="figure_1">
  <g id="patch_1">
   <path d="M 0 288 
L 432 288 
L 432 0 
L 0 0 
z
" style="fill:#ffffff;"/>
  </g>
  <g id="axes_1">
   <g id="patch_2">
    <path clip-path="url(#p533b06f391)" d="M 199.291518 135.354376 
L 199.521294 146.223948 
L 198.434337 146.246925 
L 198.204561 135.377354 
z
" style="stroke:#000000;stroke-linejoin:miter;"/>
   </g>
   <g id="patch_3">
    <path clip-path="url(#p533b06f391)" d="M 253.639376 134.205497 
L 253.869152 145.075068 
L 252.782195 145.098046 
L 252.552419 134.228474 
z
" style="stroke:#000000;stroke-linejoin:miter;"/>
   </g>
   <g id="patch_4">
    <path clip-path="url(#p533b06f391)" d="M 216.863992 134.982905 
L 216.703604 134.434626 
L 216.248957 133.928652 
L 215.50805 133.498539 
L 214.49351 133.173178 
L 213.222355 132.974894 
L 211.715691 132.917969 
L 209.998349 133.007684 
L 208.098471 133.239951 
L 206.047056 133.601548 
L 203.877458 134.070956 
L 201.624863 134.619726 
L 199.32574 135.214307 
L 197.017276 135.8182 
L 194.7368 136.394308 
L 192.521212 136.907319 
L 190.406409 137.325983 
L 188.426729 137.625113 
L 186.614412 137.787198 
L 184.999087 137.803517 
L 183.607297 137.674674 
L 182.46206 137.410535 
L 181.582477 137.029556 
L 180.983406 136.557561 
L 180.675185 136.026032 
L 180.663432 135.470044 
L 180.948915 134.925965 
L 181.527505 134.429074 
L 182.390201 134.011265 
L 183.523253 133.698964 
L 184.908355 133.51142 
L 186.522926 133.45946 
L 188.340474 133.544813 
L 190.331027 133.760014 
L 192.461633 134.088933 
L 194.696922 134.507856 
L 196.999706 134.987076 
L 199.331629 135.492874 
L 201.653825 135.989763 
L 203.927598 136.442849 
L 206.115095 136.82015 
L 208.179959 137.094732 
L 210.087955 137.246503 
L 211.807554 137.263563 
L 213.310467 137.143018 
L 214.572106 136.891192 
L 215.57199 136.523247 
L 216.294059 136.062208 
L 216.726918 135.537473 
z
" style="fill:#0000ff;stroke:#000000;stroke-linejoin:miter;"/>
   </g>
   <g id="patch_5">
    <path clip-path="url(#p533b06f391)" d="M 271.211851 133.834025 
L 271.051462 133.285746 
L 270.596815 132.779772 
L 269.855908 132.349659 
L 268.841368 132.024298 
L 267.570213 131.826014 
L 266.063549 131.769089 
L 264.346207 131.858804 
L 262.446329 132.091071 
L 260.394914 132.452669 
L 258.225316 132.922077 
L 255.972721 133.470847 
L 253.673598 134.065428 
L 251.365134 134.669321 
L 249.084658 135.245428 
L 246.86907 135.758439 
L 244.754267 136.177103 
L 242.774587 136.476233 
L 240.96227 136.638319 
L 239.346945 136.654637 
L 237.955155 136.525794 
L 236.809918 136.261655 
L 235.930335 135.880677 
L 235.331264 135.408681 
L 235.023043 134.877152 
L 235.01129 134.321164 
L 235.296773 133.777085 
L 235.875363 133.280195 
L 236.738059 132.862386 
L 237.871111 132.550085 
L 239.256213 132.36254 
L 240.870784 132.310581 
L 242.688332 132.395933 
L 244.678885 132.611135 
L 246.809491 132.940053 
L 249.04478 133.358976 
L 251.347565 133.838196 
L 253.679487 134.343994 
L 256.001683 134.840883 
L 258.275456 135.293969 
L 260.462953 135.671271 
L 262.527817 135.945853 
L 264.435813 136.097624 
L 266.155412 136.114684 
L 267.658325 135.994138 
L 268.919965 135.742312 
L 269.919848 135.374368 
L 270.641917 134.913328 
L 271.074776 134.388593 
z
" style="fill:#0000ff;stroke:#000000;stroke-linejoin:miter;"/>
   </g>
   <g id="patch_6">
    <path clip-path="url(#p533b06f391)" d="M 258.703016 142.254276 
L 193.485586 143.632932 
L 193.600474 149.067718 
L 258.817904 147.689062 
z
" style="fill:#999999;stroke:#000000;stroke-linejoin:miter;"/>
   </g>
   <g id="text_1">
    <!-- t = 1.4 -->
    <defs>
     <path d="M 18.3125 70.21875 
L 18.3125 54.6875 
L 36.8125 54.6875 
L 36.8125 47.703125 
L 18.3125 47.703125 
L 18.3125 18.015625 
Q 18.3125 11.328125 20.140625 9.421875 
Q 21.96875 7.515625 27.59375 7.515625 
L 36.8125 7.515625 
L 36.8125 0 
L 27.59375 0 
Q 17.1875 0 13.234375 3.875 
Q 9.28125 7.765625 9.28125 18.015625 
L 9.28125 47.703125 
L 2.6875 47.703125 
L 2.6875 54.6875 
L 9.28125 54.6875 
L 9.28125 70.21875 
z
" id="DejaVuSans-116"/>
     <path id="DejaVuSans-32"/>
     <path d="M 10.59375 45.40625 
L 73.1875 45.40625 
L 73.1875 37.203125 
L 10.59375 37.203125 
z
M 10.59375 25.484375 
L 73.1875 25.484375 
L 73.1875 17.1875 
L 10.59375 17.1875 
z
" id="DejaVuSans-61"/>
     <path d="M 12.40625 8.296875 
L 28.515625 8.296875 
L 28.515625 63.921875 
L 10.984375 60.40625 
L 10.984375 69.390625 
L 28.421875 72.90625 
L 38.28125 72.90625 
L 38.28125 8.296875 
L 54.390625 8.296875 
L 54.390625 0 
L 12.40625 0 
z
" id="DejaVuSans-49"/>
     <path d="M 10.6875 12.40625 
L 21 12.40625 
L 21 0 
L 10.6875 0 
z
" id="DejaVuSans-46"/>
     <path d="M 37.796875 64.3125 
L 12.890625 25.390625 
L 37.796875 25.390625 
z
M 35.203125 72.90625 
L 47.609375 72.90625 
L 47.609375 25.390625 
L 58.015625 25.390625 
L 58.015625 17.1875 
L 47.609375 17.1875 
L 47.609375 0 
L 37.796875 0 
L 37.796875 17.1875 
L 4.890625 17.1875 
L 4.890625 26.703125 
z
" id="DejaVuSans-52"/>
    </defs>
    <g transform="translate(200.664375 28.56)scale(0.12 -0.12)">
     <use xlink:href="#DejaVuSans-116"/>
     <use x="39.208984" xlink:href="#DejaVuSans-32"/>
     <use x="70.996094" xlink:href="#DejaVuSans-61"/>
     <use x="154.785156" xlink:href="#DejaVuSans-32"/>
     <use x="186.572266" xlink:href="#DejaVuSans-49"/>
     <use x="250.195312" xlink:href="#DejaVuSans-46"/>
     <use x="281.982422" xlink:href="#DejaVuSans-52"/>
    </g>
   </g>
  </g>
 </g>
 <defs>
  <clipPath id="p533b06f391">
   <rect height="217.44" width="334.8" x="54" y="34.56"/>
  </clipPath>
 </defs>
</svg>
