<?xml version="1.0" encoding="utf-8" standalone="no"?>
<!DOCTYPE svg PUBLIC "-//W3C//DTD SVG 1.1//EN"
  "http://www.w3.org/Graphics/SVG/1.1/DTD/svg11.dtd">
<!-- Created with matplotlib (https://matplotlib.org/) -->
<svg height="288pt" version="1.1" viewBox="0 0 432 288" width="432pt" xmlns="http://www.w3.org/2000/svg" xmlns:xlink="http://www.w3.org/1999/xlink">
 <defs>
  <style type="text/css">
*{stroke-linecap:butt;stroke-linejoin:round;}
  </style>
 </defs>
 <g id="figure_1">
  <g id="patch_1">
   <path d="M 0 288 
L 432 288 
L 432 0 
L 0 0 
z
" style="fill:#ffffff;"/>
  </g>
  <g id="axes_1">
   <g id="patch_2">
    <path clip-path="url(#pdb0134f583)" d="M 157.412462 156.783332 
L 160.981108 167.052955 
L 159.954146 167.409819 
L 156.3855 157.140197 
z
" style="stroke:#000000;stroke-linejoin:miter;"/>
   </g>
   <g id="patch_3">
    <path clip-path="url(#pdb0134f583)" d="M 208.760575 138.940101 
L 212.329221 149.209724 
L 211.302259 149.566588 
L 207.733613 139.296966 
z
" style="stroke:#000000;stroke-linejoin:miter;"/>
   </g>
   <g id="patch_4">
    <path clip-path="url(#pdb0134f583)" d="M 174.015019 151.014021 
L 173.693455 150.541864 
L 173.104997 150.200646 
L 172.267594 150.019822 
L 171.202164 150.022985 
L 169.931777 150.22613 
L 168.480913 150.636337 
L 166.874821 151.250979 
L 165.139016 152.05749 
L 163.29891 153.033742 
L 161.379602 154.14898 
L 159.405797 155.365297 
L 157.401848 156.639534 
L 155.391883 157.92551 
L 153.39998 159.176426 
L 151.450359 160.347319 
L 149.567539 161.397396 
L 147.776423 162.292111 
L 146.102285 163.004871 
L 144.570624 163.518247 
L 143.206876 163.824632 
L 142.03598 163.926319 
L 141.081796 163.834979 
L 140.366416 163.570597 
L 139.90938 163.159938 
L 139.72684 162.634638 
L 139.830738 162.029057 
L 140.228018 161.378031 
L 140.919948 160.714673 
L 141.90159 160.068363 
L 143.161463 159.463053 
L 144.681422 158.916004 
L 146.436798 158.437024 
L 148.396777 158.028252 
L 150.52504 157.684495 
L 152.780629 157.394097 
L 155.119012 157.140259 
L 157.493306 156.902725 
L 159.855601 156.659714 
L 162.15833 156.389955 
L 164.355626 156.074692 
L 166.404599 155.699506 
L 168.26649 155.255835 
L 169.907638 154.742076 
L 171.300236 154.164193 
L 172.422845 153.535783 
L 173.260652 152.877581 
L 173.805476 152.216439 
L 174.055537 151.583839 
z
" style="fill:#0000ff;stroke:#000000;stroke-linejoin:miter;"/>
   </g>
   <g id="patch_5">
    <path clip-path="url(#pdb0134f583)" d="M 225.363132 133.17079 
L 225.041568 132.698633 
L 224.45311 132.357415 
L 223.615707 132.176591 
L 222.550277 132.179755 
L 221.27989 132.382899 
L 219.829026 132.793106 
L 218.222934 133.407748 
L 216.487129 134.214259 
L 214.647023 135.190511 
L 212.727715 136.305749 
L 210.75391 137.522066 
L 208.749961 138.796304 
L 206.739996 140.082279 
L 204.748093 141.333195 
L 202.798472 142.504089 
L 200.915652 143.554165 
L 199.124536 144.44888 
L 197.450398 145.16164 
L 195.918737 145.675016 
L 194.554989 145.981401 
L 193.384093 146.083088 
L 192.429909 145.991748 
L 191.714529 145.727366 
L 191.257493 145.316707 
L 191.074953 144.791407 
L 191.178851 144.185826 
L 191.576131 143.5348 
L 192.268061 142.871443 
L 193.249703 142.225132 
L 194.509576 141.619822 
L 196.029535 141.072773 
L 197.784911 140.593793 
L 199.74489 140.185021 
L 201.873153 139.841264 
L 204.128742 139.550867 
L 206.467125 139.297028 
L 208.841419 139.059494 
L 211.203714 138.816483 
L 213.506443 138.546724 
L 215.703739 138.231461 
L 217.752712 137.856275 
L 219.614603 137.412604 
L 221.255751 136.898845 
L 222.648349 136.320962 
L 223.770958 135.692552 
L 224.608765 135.03435 
L 225.153589 134.373208 
L 225.40365 133.740608 
z
" style="fill:#0000ff;stroke:#000000;stroke-linejoin:miter;"/>
   </g>
   <g id="patch_6">
    <path clip-path="url(#pdb0134f583)" d="M 216.05839 145.036427 
L 154.440654 166.448304 
L 156.224977 171.583116 
L 217.842713 150.171239 
z
" style="fill:#999999;stroke:#000000;stroke-linejoin:miter;"/>
   </g>
   <g id="text_1">
    <!-- t = 0.8 -->
    <defs>
     <path d="M 18.3125 70.21875 
L 18.3125 54.6875 
L 36.8125 54.6875 
L 36.8125 47.703125 
L 18.3125 47.703125 
L 18.3125 18.015625 
Q 18.3125 11.328125 20.140625 9.421875 
Q 21.96875 7.515625 27.59375 7.515625 
L 36.8125 7.515625 
L 36.8125 0 
L 27.59375 0 
Q 17.1875 0 13.234375 3.875 
Q 9.28125 7.765625 9.28125 18.015625 
L 9.28125 47.703125 
L 2.6875 47.703125 
L 2.6875 54.6875 
L 9.28125 54.6875 
L 9.28125 70.21875 
z
" id="DejaVuSans-116"/>
     <path id="DejaVuSans-32"/>
     <path d="M 10.59375 45.40625 
L 73.1875 45.40625 
L 73.1875 37.203125 
L 10.59375 37.203125 
z
M 10.59375 25.484375 
L 73.1875 25.484375 
L 73.1875 17.1875 
L 10.59375 17.1875 
z
" id="DejaVuSans-61"/>
     <path d="M 31.78125 66.40625 
Q 24.171875 66.40625 20.328125 58.90625 
Q 16.5 51.421875 16.5 36.375 
Q 16.5 21.390625 20.328125 13.890625 
Q 24.171875 6.390625 31.78125 6.390625 
Q 39.453125 6.390625 43.28125 13.890625 
Q 47.125 21.390625 47.125 36.375 
Q 47.125 51.421875 43.28125 58.90625 
Q 39.453125 66.40625 31.78125 66.40625 
z
M 31.78125 74.21875 
Q 44.046875 74.21875 50.515625 64.515625 
Q 56.984375 54.828125 56.984375 36.375 
Q 56.984375 17.96875 50.515625 8.265625 
Q 44.046875 -1.421875 31.78125 -1.421875 
Q 19.53125 -1.421875 13.0625 8.265625 
Q 6.59375 17.96875 6.59375 36.375 
Q 6.59375 54.828125 13.0625 64.515625 
Q 19.53125 74.21875 31.78125 74.21875 
z
" id="DejaVuSans-48"/>
     <path d="M 10.6875 12.40625 
L 21 12.40625 
L 21 0 
L 10.6875 0 
z
" id="DejaVuSans-46"/>
     <path d="M 31.78125 34.625 
Q 24.75 34.625 20.71875 30.859375 
Q 16.703125 27.09375 16.703125 20.515625 
Q 16.703125 13.921875 20.71875 10.15625 
Q 24.75 6.390625 31.78125 6.390625 
Q 38.8125 6.390625 42.859375 10.171875 
Q 46.921875 13.96875 46.921875 20.515625 
Q 46.921875 27.09375 42.890625 30.859375 
Q 38.875 34.625 31.78125 34.625 
z
M 21.921875 38.8125 
Q 15.578125 40.375 12.03125 44.71875 
Q 8.5 49.078125 8.5 55.328125 
Q 8.5 64.0625 14.71875 69.140625 
Q 20.953125 74.21875 31.78125 74.21875 
Q 42.671875 74.21875 48.875 69.140625 
Q 55.078125 64.0625 55.078125 55.328125 
Q 55.078125 49.078125 51.53125 44.71875 
Q 48 40.375 41.703125 38.8125 
Q 48.828125 37.15625 52.796875 32.3125 
Q 56.78125 27.484375 56.78125 20.515625 
Q 56.78125 9.90625 50.3125 4.234375 
Q 43.84375 -1.421875 31.78125 -1.421875 
Q 19.734375 -1.421875 13.25 4.234375 
Q 6.78125 9.90625 6.78125 20.515625 
Q 6.78125 27.484375 10.78125 32.3125 
Q 14.796875 37.15625 21.921875 38.8125 
z
M 18.3125 54.390625 
Q 18.3125 48.734375 21.84375 45.5625 
Q 25.390625 42.390625 31.78125 42.390625 
Q 38.140625 42.390625 41.71875 45.5625 
Q 45.3125 48.734375 45.3125 54.390625 
Q 45.3125 60.0625 41.71875 63.234375 
Q 38.140625 66.40625 31.78125 66.40625 
Q 25.390625 66.40625 21.84375 63.234375 
Q 18.3125 60.0625 18.3125 54.390625 
z
" id="DejaVuSans-56"/>
    </defs>
    <g transform="translate(200.664375 28.56)scale(0.12 -0.12)">
     <use xlink:href="#DejaVuSans-116"/>
     <use x="39.208984" xlink:href="#DejaVuSans-32"/>
     <use x="70.996094" xlink:href="#DejaVuSans-61"/>
     <use x="154.785156" xlink:href="#DejaVuSans-32"/>
     <use x="186.572266" xlink:href="#DejaVuSans-48"/>
     <use x="250.195312" xlink:href="#DejaVuSans-46"/>
     <use x="281.982422" xlink:href="#DejaVuSans-56"/>
    </g>
   </g>
  </g>
 </g>
 <defs>
  <clipPath id="pdb0134f583">
   <rect height="217.44" width="334.8" x="54" y="34.56"/>
  </clipPath>
 </defs>
</svg>
