<?xml version="1.0" encoding="utf-8" standalone="no"?>
<!DOCTYPE svg PUBLIC "-//W3C//DTD SVG 1.1//EN"
  "http://www.w3.org/Graphics/SVG/1.1/DTD/svg11.dtd">
<!-- Created with matplotlib (https://matplotlib.org/) -->
<svg height="288pt" version="1.1" viewBox="0 0 432 288" width="432pt" xmlns="http://www.w3.org/2000/svg" xmlns:xlink="http://www.w3.org/1999/xlink">
 <defs>
  <style type="text/css">
*{stroke-linecap:butt;stroke-linejoin:round;}
  </style>
 </defs>
 <g id="figure_1">
  <g id="patch_1">
   <path d="M 0 288 
L 432 288 
L 432 0 
L 0 0 
z
" style="fill:#ffffff;"/>
  </g>
  <g id="axes_1">
   <g id="patch_2">
    <path clip-path="url(#pe53d10ecf4)" d="M 197.950537 133.275228 
L 197.918483 144.14718 
L 196.831288 144.143975 
L 196.863342 133.272022 
z
" style="stroke:#000000;stroke-linejoin:miter;"/>
   </g>
   <g id="patch_3">
    <path clip-path="url(#pe53d10ecf4)" d="M 252.310301 133.435497 
L 252.278247 144.30745 
L 251.191052 144.304244 
L 251.223106 133.432292 
z
" style="stroke:#000000;stroke-linejoin:miter;"/>
   </g>
   <g id="patch_4">
    <path clip-path="url(#pe53d10ecf4)" d="M 215.526861 133.327048 
L 215.379723 132.775065 
L 214.937392 132.258289 
L 214.207058 131.810458 
L 213.200648 131.460759 
L 211.934637 131.231921 
L 210.429781 131.138728 
L 208.710776 131.18706 
L 206.805856 131.373506 
L 204.746328 131.685596 
L 202.566054 132.102619 
L 200.300897 132.596983 
L 197.988122 133.136024 
L 195.665784 133.684149 
L 193.372096 134.20517 
L 191.144796 134.664676 
L 189.020524 135.03229 
L 187.034214 135.283658 
L 185.218519 135.402051 
L 183.60327 135.379465 
L 182.214987 135.217142 
L 181.076442 134.925499 
L 180.20629 134.523449 
L 179.618759 134.037164 
L 179.323428 133.498367 
L 179.325067 132.942257 
L 179.623571 132.40521 
L 180.213959 131.922398 
L 181.086467 131.525485 
L 182.226711 131.240562 
L 183.615927 131.086427 
L 185.231282 131.073366 
L 187.046247 131.202464 
L 189.03104 131.46554 
L 191.153108 131.845673 
L 193.377659 132.318304 
L 195.668235 132.852842 
L 197.987301 133.414651 
L 200.296857 133.96732 
L 202.55906 134.475031 
L 204.736836 134.904903 
L 206.794488 135.229132 
L 208.698276 135.426808 
L 210.416966 135.485275 
L 211.922345 135.400957 
L 213.189684 135.179588 
L 214.198138 134.835829 
L 214.9311 134.392312 
L 215.37647 133.878154 
z
" style="fill:#0000ff;stroke:#000000;stroke-linejoin:miter;"/>
   </g>
   <g id="patch_5">
    <path clip-path="url(#pe53d10ecf4)" d="M 269.886625 133.487317 
L 269.739486 132.935335 
L 269.297156 132.418559 
L 268.566822 131.970727 
L 267.560412 131.621028 
L 266.294401 131.39219 
L 264.789544 131.298997 
L 263.070539 131.347329 
L 261.16562 131.533775 
L 259.106091 131.845866 
L 256.925818 132.262889 
L 254.660661 132.757252 
L 252.347886 133.296293 
L 250.025548 133.844418 
L 247.73186 134.365439 
L 245.50456 134.824945 
L 243.380288 135.192559 
L 241.393978 135.443927 
L 239.578283 135.562321 
L 237.963034 135.539734 
L 236.574751 135.377411 
L 235.436206 135.085769 
L 234.566054 134.683719 
L 233.978523 134.197433 
L 233.683192 133.658636 
L 233.684831 133.102526 
L 233.983334 132.565479 
L 234.573722 132.082667 
L 235.446231 131.685755 
L 236.586475 131.400831 
L 237.975691 131.246697 
L 239.591045 131.233635 
L 241.406011 131.362733 
L 243.390804 131.625809 
L 245.512871 132.005942 
L 247.737423 132.478574 
L 250.027999 133.013111 
L 252.347065 133.57492 
L 254.656621 134.127589 
L 256.918823 134.635301 
L 259.0966 135.065172 
L 261.154252 135.389402 
L 263.058039 135.587077 
L 264.776729 135.645544 
L 266.282109 135.561227 
L 267.549447 135.339857 
L 268.557902 134.996099 
L 269.290864 134.552582 
L 269.736234 134.038423 
z
" style="fill:#0000ff;stroke:#000000;stroke-linejoin:miter;"/>
   </g>
   <g id="patch_6">
    <path clip-path="url(#pe53d10ecf4)" d="M 257.178639 141.603886 
L 191.946923 141.411563 
L 191.930896 146.847539 
L 257.162612 147.039862 
z
" style="fill:#999999;stroke:#000000;stroke-linejoin:miter;"/>
   </g>
   <g id="text_1">
    <!-- t = 1.7 -->
    <defs>
     <path d="M 18.3125 70.21875 
L 18.3125 54.6875 
L 36.8125 54.6875 
L 36.8125 47.703125 
L 18.3125 47.703125 
L 18.3125 18.015625 
Q 18.3125 11.328125 20.140625 9.421875 
Q 21.96875 7.515625 27.59375 7.515625 
L 36.8125 7.515625 
L 36.8125 0 
L 27.59375 0 
Q 17.1875 0 13.234375 3.875 
Q 9.28125 7.765625 9.28125 18.015625 
L 9.28125 47.703125 
L 2.6875 47.703125 
L 2.6875 54.6875 
L 9.28125 54.6875 
L 9.28125 70.21875 
z
" id="DejaVuSans-116"/>
     <path id="DejaVuSans-32"/>
     <path d="M 10.59375 45.40625 
L 73.1875 45.40625 
L 73.1875 37.203125 
L 10.59375 37.203125 
z
M 10.59375 25.484375 
L 73.1875 25.484375 
L 73.1875 17.1875 
L 10.59375 17.1875 
z
" id="DejaVuSans-61"/>
     <path d="M 12.40625 8.296875 
L 28.515625 8.296875 
L 28.515625 63.921875 
L 10.984375 60.40625 
L 10.984375 69.390625 
L 28.421875 72.90625 
L 38.28125 72.90625 
L 38.28125 8.296875 
L 54.390625 8.296875 
L 54.390625 0 
L 12.40625 0 
z
" id="DejaVuSans-49"/>
     <path d="M 10.6875 12.40625 
L 21 12.40625 
L 21 0 
L 10.6875 0 
z
" id="DejaVuSans-46"/>
     <path d="M 8.203125 72.90625 
L 55.078125 72.90625 
L 55.078125 68.703125 
L 28.609375 0 
L 18.3125 0 
L 43.21875 64.59375 
L 8.203125 64.59375 
z
" id="DejaVuSans-55"/>
    </defs>
    <g transform="translate(200.664375 28.56)scale(0.12 -0.12)">
     <use xlink:href="#DejaVuSans-116"/>
     <use x="39.208984" xlink:href="#DejaVuSans-32"/>
     <use x="70.996094" xlink:href="#DejaVuSans-61"/>
     <use x="154.785156" xlink:href="#DejaVuSans-32"/>
     <use x="186.572266" xlink:href="#DejaVuSans-49"/>
     <use x="250.195312" xlink:href="#DejaVuSans-46"/>
     <use x="281.982422" xlink:href="#DejaVuSans-55"/>
    </g>
   </g>
  </g>
 </g>
 <defs>
  <clipPath id="pe53d10ecf4">
   <rect height="217.44" width="334.8" x="54" y="34.56"/>
  </clipPath>
 </defs>
</svg>
