<?xml version="1.0" encoding="utf-8" standalone="no"?>
<!DOCTYPE svg PUBLIC "-//W3C//DTD SVG 1.1//EN"
  "http://www.w3.org/Graphics/SVG/1.1/DTD/svg11.dtd">
<!-- Created with matplotlib (https://matplotlib.org/) -->
<svg height="288pt" version="1.1" viewBox="0 0 432 288" width="432pt" xmlns="http://www.w3.org/2000/svg" xmlns:xlink="http://www.w3.org/1999/xlink">
 <defs>
  <style type="text/css">
*{stroke-linecap:butt;stroke-linejoin:round;}
  </style>
 </defs>
 <g id="figure_1">
  <g id="patch_1">
   <path d="M 0 288 
L 432 288 
L 432 0 
L 0 0 
z
" style="fill:#ffffff;"/>
  </g>
  <g id="axes_1">
   <g id="patch_2">
    <path clip-path="url(#p07d5d130cd)" d="M 195.273275 131.874815 
L 195.144728 142.746055 
L 194.057604 142.7332 
L 194.186151 131.86196 
z
" style="stroke:#000000;stroke-linejoin:miter;"/>
   </g>
   <g id="patch_3">
    <path clip-path="url(#p07d5d130cd)" d="M 249.629475 132.517548 
L 249.500928 143.388788 
L 248.413804 143.375933 
L 248.542351 132.504693 
z
" style="stroke:#000000;stroke-linejoin:miter;"/>
   </g>
   <g id="patch_4">
    <path clip-path="url(#p07d5d130cd)" d="M 212.848446 132.082632 
L 212.706213 131.529365 
L 212.268487 131.008683 
L 211.542156 130.554388 
L 210.538889 130.19577 
L 209.274959 129.955704 
L 207.770989 129.849159 
L 206.051623 129.882231 
L 204.145124 130.051763 
L 202.082907 130.345562 
L 199.899018 130.743217 
L 197.629562 131.217457 
L 195.312094 131.73595 
L 192.984983 132.263441 
L 190.686761 132.764084 
L 188.45547 133.203804 
L 186.328019 133.552549 
L 184.339556 133.786278 
L 182.522882 133.888552 
L 180.907897 133.85163 
L 179.521109 133.676991 
L 178.385198 133.375255 
L 177.518648 132.965498 
L 176.935456 132.474017 
L 176.644919 131.93262 
L 176.651494 131.376546 
L 176.954752 130.84217 
L 177.549402 130.364617 
L 178.425399 129.975464 
L 179.568127 129.700672 
L 180.958656 129.558874 
L 182.574063 129.560149 
L 184.387811 129.705351 
L 186.370191 129.986033 
L 188.488801 130.384985 
L 190.70907 130.877342 
L 192.994812 131.432189 
L 195.3088 132.014559 
L 197.61336 132.587704 
L 199.870967 133.115474 
L 202.044842 133.564658 
L 204.099536 133.907137 
L 206.001494 134.121702 
L 207.719597 134.19542 
L 209.225666 134.124467 
L 210.494919 133.914355 
L 211.506385 133.57956 
L 212.243255 133.142566 
L 212.693171 132.632381 
z
" style="fill:#0000ff;stroke:#000000;stroke-linejoin:miter;"/>
   </g>
   <g id="patch_5">
    <path clip-path="url(#p07d5d130cd)" d="M 267.204647 132.725365 
L 267.062413 132.172098 
L 266.624687 131.651416 
L 265.898356 131.197121 
L 264.89509 130.838503 
L 263.63116 130.598437 
L 262.12719 130.491892 
L 260.407823 130.524965 
L 258.501324 130.694496 
L 256.439107 130.988295 
L 254.255218 131.385951 
L 251.985762 131.86019 
L 249.668294 132.378683 
L 247.341183 132.906174 
L 245.042961 133.406817 
L 242.81167 133.846537 
L 240.684219 134.195282 
L 238.695757 134.429011 
L 236.879082 134.531285 
L 235.264097 134.494363 
L 233.877309 134.319725 
L 232.741398 134.017988 
L 231.874848 133.608231 
L 231.291657 133.11675 
L 231.001119 132.575353 
L 231.007694 132.01928 
L 231.310952 131.484903 
L 231.905602 131.00735 
L 232.781599 130.618197 
L 233.924327 130.343405 
L 235.314857 130.201607 
L 236.930263 130.202883 
L 238.744011 130.348085 
L 240.726391 130.628766 
L 242.845001 131.027719 
L 245.065271 131.520076 
L 247.351012 132.074922 
L 249.665 132.657292 
L 251.96956 133.230437 
L 254.227167 133.758207 
L 256.401043 134.207391 
L 258.455736 134.54987 
L 260.357694 134.764435 
L 262.075797 134.838154 
L 263.581866 134.767201 
L 264.851119 134.557088 
L 265.862585 134.222294 
L 266.599455 133.7853 
L 267.049371 133.275114 
z
" style="fill:#0000ff;stroke:#000000;stroke-linejoin:miter;"/>
   </g>
   <g id="patch_6">
    <path clip-path="url(#p07d5d130cd)" d="M 254.425123 140.728824 
L 189.197683 139.957544 
L 189.13341 145.393164 
L 254.36085 146.164444 
z
" style="fill:#999999;stroke:#000000;stroke-linejoin:miter;"/>
   </g>
   <g id="text_1">
    <!-- t = 1.6 -->
    <defs>
     <path d="M 18.3125 70.21875 
L 18.3125 54.6875 
L 36.8125 54.6875 
L 36.8125 47.703125 
L 18.3125 47.703125 
L 18.3125 18.015625 
Q 18.3125 11.328125 20.140625 9.421875 
Q 21.96875 7.515625 27.59375 7.515625 
L 36.8125 7.515625 
L 36.8125 0 
L 27.59375 0 
Q 17.1875 0 13.234375 3.875 
Q 9.28125 7.765625 9.28125 18.015625 
L 9.28125 47.703125 
L 2.6875 47.703125 
L 2.6875 54.6875 
L 9.28125 54.6875 
L 9.28125 70.21875 
z
" id="DejaVuSans-116"/>
     <path id="DejaVuSans-32"/>
     <path d="M 10.59375 45.40625 
L 73.1875 45.40625 
L 73.1875 37.203125 
L 10.59375 37.203125 
z
M 10.59375 25.484375 
L 73.1875 25.484375 
L 73.1875 17.1875 
L 10.59375 17.1875 
z
" id="DejaVuSans-61"/>
     <path d="M 12.40625 8.296875 
L 28.515625 8.296875 
L 28.515625 63.921875 
L 10.984375 60.40625 
L 10.984375 69.390625 
L 28.421875 72.90625 
L 38.28125 72.90625 
L 38.28125 8.296875 
L 54.390625 8.296875 
L 54.390625 0 
L 12.40625 0 
z
" id="DejaVuSans-49"/>
     <path d="M 10.6875 12.40625 
L 21 12.40625 
L 21 0 
L 10.6875 0 
z
" id="DejaVuSans-46"/>
     <path d="M 33.015625 40.375 
Q 26.375 40.375 22.484375 35.828125 
Q 18.609375 31.296875 18.609375 23.390625 
Q 18.609375 15.53125 22.484375 10.953125 
Q 26.375 6.390625 33.015625 6.390625 
Q 39.65625 6.390625 43.53125 10.953125 
Q 47.40625 15.53125 47.40625 23.390625 
Q 47.40625 31.296875 43.53125 35.828125 
Q 39.65625 40.375 33.015625 40.375 
z
M 52.59375 71.296875 
L 52.59375 62.3125 
Q 48.875 64.0625 45.09375 64.984375 
Q 41.3125 65.921875 37.59375 65.921875 
Q 27.828125 65.921875 22.671875 59.328125 
Q 17.53125 52.734375 16.796875 39.40625 
Q 19.671875 43.65625 24.015625 45.921875 
Q 28.375 48.1875 33.59375 48.1875 
Q 44.578125 48.1875 50.953125 41.515625 
Q 57.328125 34.859375 57.328125 23.390625 
Q 57.328125 12.15625 50.6875 5.359375 
Q 44.046875 -1.421875 33.015625 -1.421875 
Q 20.359375 -1.421875 13.671875 8.265625 
Q 6.984375 17.96875 6.984375 36.375 
Q 6.984375 53.65625 15.1875 63.9375 
Q 23.390625 74.21875 37.203125 74.21875 
Q 40.921875 74.21875 44.703125 73.484375 
Q 48.484375 72.75 52.59375 71.296875 
z
" id="DejaVuSans-54"/>
    </defs>
    <g transform="translate(200.664375 28.56)scale(0.12 -0.12)">
     <use xlink:href="#DejaVuSans-116"/>
     <use x="39.208984" xlink:href="#DejaVuSans-32"/>
     <use x="70.996094" xlink:href="#DejaVuSans-61"/>
     <use x="154.785156" xlink:href="#DejaVuSans-32"/>
     <use x="186.572266" xlink:href="#DejaVuSans-49"/>
     <use x="250.195312" xlink:href="#DejaVuSans-46"/>
     <use x="281.982422" xlink:href="#DejaVuSans-54"/>
    </g>
   </g>
  </g>
 </g>
 <defs>
  <clipPath id="p07d5d130cd">
   <rect height="217.44" width="334.8" x="54" y="34.56"/>
  </clipPath>
 </defs>
</svg>
