<?xml version="1.0" encoding="utf-8" standalone="no"?>
<!DOCTYPE svg PUBLIC "-//W3C//DTD SVG 1.1//EN"
  "http://www.w3.org/Graphics/SVG/1.1/DTD/svg11.dtd">
<!-- Created with matplotlib (https://matplotlib.org/) -->
<svg height="288pt" version="1.1" viewBox="0 0 432 288" width="432pt" xmlns="http://www.w3.org/2000/svg" xmlns:xlink="http://www.w3.org/1999/xlink">
 <defs>
  <style type="text/css">
*{stroke-linecap:butt;stroke-linejoin:round;}
  </style>
 </defs>
 <g id="figure_1">
  <g id="patch_1">
   <path d="M 0 288 
L 432 288 
L 432 0 
L 0 0 
z
" style="fill:#ffffff;"/>
  </g>
  <g id="axes_1">
   <g id="patch_2">
    <path clip-path="url(#pc808873a03)" d="M 199.419435 136.261757 
L 199.772503 147.128023 
L 198.685877 147.16333 
L 198.332808 136.297064 
z
" style="stroke:#000000;stroke-linejoin:miter;"/>
   </g>
   <g id="patch_3">
    <path clip-path="url(#pc808873a03)" d="M 253.750763 134.496416 
L 254.103831 145.362681 
L 253.017204 145.397988 
L 252.664136 134.531723 
z
" style="stroke:#000000;stroke-linejoin:miter;"/>
   </g>
   <g id="patch_4">
    <path clip-path="url(#pc808873a03)" d="M 216.986564 135.690964 
L 216.819966 135.144539 
L 216.359608 134.643755 
L 215.61387 134.222075 
L 214.595704 133.908244 
L 213.322382 133.724393 
L 211.815169 133.684564 
L 210.098955 133.793755 
L 208.201834 134.047559 
L 206.154653 134.432406 
L 203.99052 134.926396 
L 201.744295 135.500685 
L 199.452066 136.121309 
L 197.150601 136.751351 
L 194.876807 137.353292 
L 192.667181 137.891404 
L 190.557264 138.334032 
L 188.581104 138.655601 
L 186.770742 138.838235 
L 185.155707 138.872877 
L 183.762545 138.759831 
L 182.614385 138.508701 
L 181.730537 138.137726 
L 181.12615 137.672557 
L 180.811919 137.144558 
L 180.793859 136.588739 
L 181.073152 136.041456 
L 181.646067 135.538034 
L 182.503969 135.110466 
L 183.633405 134.785331 
L 185.01629 134.582086 
L 186.630168 134.511814 
L 188.448567 134.576542 
L 190.441433 134.769148 
L 192.575634 135.073875 
L 194.815531 135.467413 
L 197.123604 135.920479 
L 199.461114 136.399791 
L 201.788797 136.870305 
L 204.067564 137.297567 
L 206.259201 137.650029 
L 208.327046 137.901169 
L 210.236641 138.031285 
L 211.956324 138.028837 
L 213.457772 137.891249 
L 214.716474 137.625127 
L 215.712119 137.245863 
L 216.428911 136.776662 
L 216.855789 136.24705 
z
" style="fill:#0000ff;stroke:#000000;stroke-linejoin:miter;"/>
   </g>
   <g id="patch_5">
    <path clip-path="url(#pc808873a03)" d="M 271.317892 133.925622 
L 271.151294 133.379197 
L 270.690936 132.878414 
L 269.945197 132.456733 
L 268.927032 132.142902 
L 267.65371 131.959052 
L 266.146497 131.919222 
L 264.430282 132.028413 
L 262.533162 132.282218 
L 260.485981 132.667064 
L 258.321848 133.161054 
L 256.075623 133.735343 
L 253.783393 134.355968 
L 251.481928 134.98601 
L 249.208135 135.58795 
L 246.998509 136.126063 
L 244.888592 136.56869 
L 242.912432 136.890259 
L 241.10207 137.072893 
L 239.487035 137.107536 
L 238.093873 136.99449 
L 236.945712 136.743359 
L 236.061865 136.372384 
L 235.457478 135.907215 
L 235.143246 135.379217 
L 235.125187 134.823398 
L 235.40448 134.276115 
L 235.977395 133.772693 
L 236.835296 133.345124 
L 237.964733 133.01999 
L 239.347618 132.816744 
L 240.961495 132.746472 
L 242.779895 132.8112 
L 244.772761 133.003807 
L 246.906962 133.308534 
L 249.146859 133.702072 
L 251.454931 134.155137 
L 253.792442 134.634449 
L 256.120125 135.104963 
L 258.398892 135.532225 
L 260.590529 135.884687 
L 262.658374 136.135827 
L 264.567969 136.265943 
L 266.287651 136.263495 
L 267.7891 136.125907 
L 269.047801 135.859786 
L 270.043447 135.480522 
L 270.760239 135.011321 
L 271.187117 134.481709 
z
" style="fill:#0000ff;stroke:#000000;stroke-linejoin:miter;"/>
   </g>
   <g id="patch_6">
    <path clip-path="url(#pc808873a03)" d="M 258.905383 142.487234 
L 193.70779 144.605644 
L 193.884324 150.038777 
L 259.081918 147.920367 
z
" style="fill:#999999;stroke:#000000;stroke-linejoin:miter;"/>
   </g>
   <g id="text_1">
    <!-- t = 1.4 -->
    <defs>
     <path d="M 18.3125 70.21875 
L 18.3125 54.6875 
L 36.8125 54.6875 
L 36.8125 47.703125 
L 18.3125 47.703125 
L 18.3125 18.015625 
Q 18.3125 11.328125 20.140625 9.421875 
Q 21.96875 7.515625 27.59375 7.515625 
L 36.8125 7.515625 
L 36.8125 0 
L 27.59375 0 
Q 17.1875 0 13.234375 3.875 
Q 9.28125 7.765625 9.28125 18.015625 
L 9.28125 47.703125 
L 2.6875 47.703125 
L 2.6875 54.6875 
L 9.28125 54.6875 
L 9.28125 70.21875 
z
" id="DejaVuSans-116"/>
     <path id="DejaVuSans-32"/>
     <path d="M 10.59375 45.40625 
L 73.1875 45.40625 
L 73.1875 37.203125 
L 10.59375 37.203125 
z
M 10.59375 25.484375 
L 73.1875 25.484375 
L 73.1875 17.1875 
L 10.59375 17.1875 
z
" id="DejaVuSans-61"/>
     <path d="M 12.40625 8.296875 
L 28.515625 8.296875 
L 28.515625 63.921875 
L 10.984375 60.40625 
L 10.984375 69.390625 
L 28.421875 72.90625 
L 38.28125 72.90625 
L 38.28125 8.296875 
L 54.390625 8.296875 
L 54.390625 0 
L 12.40625 0 
z
" id="DejaVuSans-49"/>
     <path d="M 10.6875 12.40625 
L 21 12.40625 
L 21 0 
L 10.6875 0 
z
" id="DejaVuSans-46"/>
     <path d="M 37.796875 64.3125 
L 12.890625 25.390625 
L 37.796875 25.390625 
z
M 35.203125 72.90625 
L 47.609375 72.90625 
L 47.609375 25.390625 
L 58.015625 25.390625 
L 58.015625 17.1875 
L 47.609375 17.1875 
L 47.609375 0 
L 37.796875 0 
L 37.796875 17.1875 
L 4.890625 17.1875 
L 4.890625 26.703125 
z
" id="DejaVuSans-52"/>
    </defs>
    <g transform="translate(200.664375 28.56)scale(0.12 -0.12)">
     <use xlink:href="#DejaVuSans-116"/>
     <use x="39.208984" xlink:href="#DejaVuSans-32"/>
     <use x="70.996094" xlink:href="#DejaVuSans-61"/>
     <use x="154.785156" xlink:href="#DejaVuSans-32"/>
     <use x="186.572266" xlink:href="#DejaVuSans-49"/>
     <use x="250.195312" xlink:href="#DejaVuSans-46"/>
     <use x="281.982422" xlink:href="#DejaVuSans-52"/>
    </g>
   </g>
  </g>
 </g>
 <defs>
  <clipPath id="pc808873a03">
   <rect height="217.44" width="334.8" x="54" y="34.56"/>
  </clipPath>
 </defs>
</svg>
