<?xml version="1.0" encoding="utf-8" standalone="no"?>
<!DOCTYPE svg PUBLIC "-//W3C//DTD SVG 1.1//EN"
  "http://www.w3.org/Graphics/SVG/1.1/DTD/svg11.dtd">
<!-- Created with matplotlib (https://matplotlib.org/) -->
<svg height="288pt" version="1.1" viewBox="0 0 432 288" width="432pt" xmlns="http://www.w3.org/2000/svg" xmlns:xlink="http://www.w3.org/1999/xlink">
 <defs>
  <style type="text/css">
*{stroke-linecap:butt;stroke-linejoin:round;}
  </style>
 </defs>
 <g id="figure_1">
  <g id="patch_1">
   <path d="M 0 288 
L 432 288 
L 432 0 
L 0 0 
z
" style="fill:#ffffff;"/>
  </g>
  <g id="axes_1">
   <g id="patch_2">
    <path clip-path="url(#p680698756f)" d="M 194.759996 132.405601 
L 194.758779 143.277601 
L 193.671579 143.277479 
L 193.672796 132.405479 
z
" style="stroke:#000000;stroke-linejoin:miter;"/>
   </g>
   <g id="patch_3">
    <path clip-path="url(#p680698756f)" d="M 249.119995 132.411684 
L 249.118779 143.283684 
L 248.031579 143.283562 
L 248.032795 132.411562 
z
" style="stroke:#000000;stroke-linejoin:miter;"/>
   </g>
   <g id="patch_4">
    <path clip-path="url(#p680698756f)" d="M 212.336395 132.407568 
L 212.187692 131.856005 
L 211.743898 131.340485 
L 211.012296 130.894727 
L 210.004898 130.547884 
L 208.738244 130.322638 
L 207.233129 130.233714 
L 205.514268 130.286921 
L 203.609885 130.47877 
L 201.55125 130.7967 
L 199.372168 131.219906 
L 197.108422 131.720692 
L 194.797186 132.266291 
L 192.476412 132.821001 
L 190.184211 133.348526 
L 187.958223 133.814347 
L 185.835002 134.187985 
L 183.849413 134.444986 
L 182.034061 134.568529 
L 180.418755 134.550524 
L 179.030017 134.392139 
L 177.89065 134.103727 
L 177.01936 133.704147 
L 176.430452 133.21953 
L 176.133594 132.681572 
L 176.133656 132.12546 
L 176.430635 131.587569 
L 177.019651 131.103084 
L 177.89103 130.703699 
L 179.030462 130.415542 
L 180.419235 130.257468 
L 182.034546 130.239824 
L 183.84987 130.363774 
L 185.835401 130.621219 
L 187.958539 130.995332 
L 190.184422 131.461652 
L 192.476505 131.98969 
L 194.797155 132.544919 
L 197.108269 133.091035 
L 199.371903 133.592328 
L 201.55089 134.016021 
L 203.609453 134.334413 
L 205.513793 134.526687 
L 207.232642 134.580279 
L 208.737777 134.491692 
L 210.004482 134.266729 
L 211.011958 133.920112 
L 211.743659 133.474518 
L 212.187569 132.959098 
z
" style="fill:#0000ff;stroke:#000000;stroke-linejoin:miter;"/>
   </g>
   <g id="patch_5">
    <path clip-path="url(#p680698756f)" d="M 266.696395 132.413651 
L 266.547692 131.862088 
L 266.103897 131.346568 
L 265.372296 130.900811 
L 264.364898 130.553968 
L 263.098243 130.328721 
L 261.593129 130.239797 
L 259.874268 130.293004 
L 257.969884 130.484853 
L 255.911249 130.802784 
L 253.732168 131.225989 
L 251.468422 131.726776 
L 249.157185 132.272374 
L 246.836411 132.827084 
L 244.54421 133.354609 
L 242.318223 133.820431 
L 240.195002 134.194068 
L 238.209413 134.451069 
L 236.394061 134.574612 
L 234.778754 134.556607 
L 233.390016 134.398223 
L 232.250649 134.109811 
L 231.37936 133.71023 
L 230.790452 133.225613 
L 230.493594 132.687656 
L 230.493656 132.131544 
L 230.790635 131.593652 
L 231.379651 131.109167 
L 232.25103 130.709782 
L 233.390461 130.421625 
L 234.779235 130.263551 
L 236.394545 130.245908 
L 238.20987 130.369857 
L 240.195401 130.627303 
L 242.318538 131.001415 
L 244.544421 131.467735 
L 246.836505 131.995773 
L 249.157154 132.551003 
L 251.468269 133.097118 
L 253.731902 133.598411 
L 255.910889 134.022105 
L 257.969453 134.340496 
L 259.873793 134.532771 
L 261.592642 134.586363 
L 263.097777 134.497776 
L 264.364482 134.272812 
L 265.371957 133.926195 
L 266.103659 133.480601 
L 266.547568 132.965181 
z
" style="fill:#0000ff;stroke:#000000;stroke-linejoin:miter;"/>
   </g>
   <g id="patch_6">
    <path clip-path="url(#p680698756f)" d="M 254.011483 140.566232 
L 188.779483 140.558932 
L 188.778875 145.994932 
L 254.010874 146.002231 
z
" style="fill:#999999;stroke:#000000;stroke-linejoin:miter;"/>
   </g>
   <g id="text_1">
    <!-- t = 3.8 -->
    <defs>
     <path d="M 18.3125 70.21875 
L 18.3125 54.6875 
L 36.8125 54.6875 
L 36.8125 47.703125 
L 18.3125 47.703125 
L 18.3125 18.015625 
Q 18.3125 11.328125 20.140625 9.421875 
Q 21.96875 7.515625 27.59375 7.515625 
L 36.8125 7.515625 
L 36.8125 0 
L 27.59375 0 
Q 17.1875 0 13.234375 3.875 
Q 9.28125 7.765625 9.28125 18.015625 
L 9.28125 47.703125 
L 2.6875 47.703125 
L 2.6875 54.6875 
L 9.28125 54.6875 
L 9.28125 70.21875 
z
" id="DejaVuSans-116"/>
     <path id="DejaVuSans-32"/>
     <path d="M 10.59375 45.40625 
L 73.1875 45.40625 
L 73.1875 37.203125 
L 10.59375 37.203125 
z
M 10.59375 25.484375 
L 73.1875 25.484375 
L 73.1875 17.1875 
L 10.59375 17.1875 
z
" id="DejaVuSans-61"/>
     <path d="M 40.578125 39.3125 
Q 47.65625 37.796875 51.625 33 
Q 55.609375 28.21875 55.609375 21.1875 
Q 55.609375 10.40625 48.1875 4.484375 
Q 40.765625 -1.421875 27.09375 -1.421875 
Q 22.515625 -1.421875 17.65625 -0.515625 
Q 12.796875 0.390625 7.625 2.203125 
L 7.625 11.71875 
Q 11.71875 9.328125 16.59375 8.109375 
Q 21.484375 6.890625 26.8125 6.890625 
Q 36.078125 6.890625 40.9375 10.546875 
Q 45.796875 14.203125 45.796875 21.1875 
Q 45.796875 27.640625 41.28125 31.265625 
Q 36.765625 34.90625 28.71875 34.90625 
L 20.21875 34.90625 
L 20.21875 43.015625 
L 29.109375 43.015625 
Q 36.375 43.015625 40.234375 45.921875 
Q 44.09375 48.828125 44.09375 54.296875 
Q 44.09375 59.90625 40.109375 62.90625 
Q 36.140625 65.921875 28.71875 65.921875 
Q 24.65625 65.921875 20.015625 65.03125 
Q 15.375 64.15625 9.8125 62.3125 
L 9.8125 71.09375 
Q 15.4375 72.65625 20.34375 73.4375 
Q 25.25 74.21875 29.59375 74.21875 
Q 40.828125 74.21875 47.359375 69.109375 
Q 53.90625 64.015625 53.90625 55.328125 
Q 53.90625 49.265625 50.4375 45.09375 
Q 46.96875 40.921875 40.578125 39.3125 
z
" id="DejaVuSans-51"/>
     <path d="M 10.6875 12.40625 
L 21 12.40625 
L 21 0 
L 10.6875 0 
z
" id="DejaVuSans-46"/>
     <path d="M 31.78125 34.625 
Q 24.75 34.625 20.71875 30.859375 
Q 16.703125 27.09375 16.703125 20.515625 
Q 16.703125 13.921875 20.71875 10.15625 
Q 24.75 6.390625 31.78125 6.390625 
Q 38.8125 6.390625 42.859375 10.171875 
Q 46.921875 13.96875 46.921875 20.515625 
Q 46.921875 27.09375 42.890625 30.859375 
Q 38.875 34.625 31.78125 34.625 
z
M 21.921875 38.8125 
Q 15.578125 40.375 12.03125 44.71875 
Q 8.5 49.078125 8.5 55.328125 
Q 8.5 64.0625 14.71875 69.140625 
Q 20.953125 74.21875 31.78125 74.21875 
Q 42.671875 74.21875 48.875 69.140625 
Q 55.078125 64.0625 55.078125 55.328125 
Q 55.078125 49.078125 51.53125 44.71875 
Q 48 40.375 41.703125 38.8125 
Q 48.828125 37.15625 52.796875 32.3125 
Q 56.78125 27.484375 56.78125 20.515625 
Q 56.78125 9.90625 50.3125 4.234375 
Q 43.84375 -1.421875 31.78125 -1.421875 
Q 19.734375 -1.421875 13.25 4.234375 
Q 6.78125 9.90625 6.78125 20.515625 
Q 6.78125 27.484375 10.78125 32.3125 
Q 14.796875 37.15625 21.921875 38.8125 
z
M 18.3125 54.390625 
Q 18.3125 48.734375 21.84375 45.5625 
Q 25.390625 42.390625 31.78125 42.390625 
Q 38.140625 42.390625 41.71875 45.5625 
Q 45.3125 48.734375 45.3125 54.390625 
Q 45.3125 60.0625 41.71875 63.234375 
Q 38.140625 66.40625 31.78125 66.40625 
Q 25.390625 66.40625 21.84375 63.234375 
Q 18.3125 60.0625 18.3125 54.390625 
z
" id="DejaVuSans-56"/>
    </defs>
    <g transform="translate(200.664375 28.56)scale(0.12 -0.12)">
     <use xlink:href="#DejaVuSans-116"/>
     <use x="39.208984" xlink:href="#DejaVuSans-32"/>
     <use x="70.996094" xlink:href="#DejaVuSans-61"/>
     <use x="154.785156" xlink:href="#DejaVuSans-32"/>
     <use x="186.572266" xlink:href="#DejaVuSans-51"/>
     <use x="250.195312" xlink:href="#DejaVuSans-46"/>
     <use x="281.982422" xlink:href="#DejaVuSans-56"/>
    </g>
   </g>
  </g>
 </g>
 <defs>
  <clipPath id="p680698756f">
   <rect height="217.44" width="334.8" x="54" y="34.56"/>
  </clipPath>
 </defs>
</svg>
