<?xml version="1.0" encoding="utf-8" standalone="no"?>
<!DOCTYPE svg PUBLIC "-//W3C//DTD SVG 1.1//EN"
  "http://www.w3.org/Graphics/SVG/1.1/DTD/svg11.dtd">
<!-- Created with matplotlib (https://matplotlib.org/) -->
<svg height="288pt" version="1.1" viewBox="0 0 432 288" width="432pt" xmlns="http://www.w3.org/2000/svg" xmlns:xlink="http://www.w3.org/1999/xlink">
 <defs>
  <style type="text/css">
*{stroke-linecap:butt;stroke-linejoin:round;}
  </style>
 </defs>
 <g id="figure_1">
  <g id="patch_1">
   <path d="M 0 288 
L 432 288 
L 432 0 
L 0 0 
z
" style="fill:#ffffff;"/>
  </g>
  <g id="axes_1">
   <g id="patch_2">
    <path clip-path="url(#p7e33219157)" d="M 194.773078 132.4292 
L 194.779108 143.301199 
L 193.691909 143.301802 
L 193.685878 132.429803 
z
" style="stroke:#000000;stroke-linejoin:miter;"/>
   </g>
   <g id="patch_3">
    <path clip-path="url(#p7e33219157)" d="M 249.133069 132.399046 
L 249.1391 143.271045 
L 248.0519 143.271648 
L 248.045869 132.399649 
z
" style="stroke:#000000;stroke-linejoin:miter;"/>
   </g>
   <g id="patch_4">
    <path clip-path="url(#p7e33219157)" d="M 212.349475 132.419451 
L 212.200404 131.867987 
L 211.756266 131.352763 
L 211.024368 130.907493 
L 210.016739 130.561322 
L 208.749934 130.33692 
L 207.24476 130.248999 
L 205.525935 130.303352 
L 203.62168 130.49647 
L 201.563258 130.815773 
L 199.384459 131.240431 
L 197.121047 131.742727 
L 194.810175 132.289865 
L 192.489771 132.846122 
L 190.197922 133.375175 
L 187.972246 133.842481 
L 185.849274 134.217533 
L 183.863857 134.475858 
L 182.048588 134.600611 
L 180.43327 134.583683 
L 179.044426 134.426224 
L 177.904867 134.138572 
L 177.033312 133.739573 
L 176.444081 133.255348 
L 176.146864 132.717589 
L 176.146556 132.161477 
L 176.443176 131.623387 
L 177.031869 131.13851 
L 177.902981 130.738544 
L 179.042221 130.449627 
L 180.430888 130.290628 
L 182.046187 130.271907 
L 183.861593 130.394647 
L 185.847296 130.650769 
L 187.970682 131.023466 
L 190.196876 131.488302 
L 192.48931 132.014812 
L 194.810329 132.568494 
L 197.121807 133.113069 
L 199.385775 133.612853 
L 201.565044 134.035094 
L 203.623819 134.352113 
L 205.528287 134.543118 
L 207.247171 134.595564 
L 208.752247 134.505974 
L 210.018802 134.280166 
L 211.026046 133.932877 
L 211.75745 133.486795 
L 212.201016 132.971079 
z
" style="fill:#0000ff;stroke:#000000;stroke-linejoin:miter;"/>
   </g>
   <g id="patch_5">
    <path clip-path="url(#p7e33219157)" d="M 266.709467 132.389296 
L 266.560396 131.837832 
L 266.116258 131.322609 
L 265.384359 130.877339 
L 264.37673 130.531168 
L 263.109926 130.306765 
L 261.604752 130.218845 
L 259.885927 130.273198 
L 257.981672 130.466316 
L 255.923249 130.785619 
L 253.74445 131.210277 
L 251.481039 131.712572 
L 249.170167 132.259711 
L 246.849763 132.815968 
L 244.557914 133.345021 
L 242.332237 133.812327 
L 240.209266 134.187379 
L 238.223849 134.445704 
L 236.40858 134.570457 
L 234.793261 134.553529 
L 233.404418 134.39607 
L 232.264859 134.108418 
L 231.393303 133.709418 
L 230.804073 133.225194 
L 230.506856 132.687435 
L 230.506547 132.131322 
L 230.803167 131.593233 
L 231.39186 131.108356 
L 232.262973 130.70839 
L 233.402212 130.419473 
L 234.79088 130.260474 
L 236.406178 130.241753 
L 238.221585 130.364493 
L 240.207287 130.620615 
L 242.330674 130.993312 
L 244.556867 131.458148 
L 246.849302 131.984658 
L 249.170321 132.53834 
L 251.481799 133.082915 
L 253.745766 133.582699 
L 255.925035 134.004939 
L 257.983811 134.321958 
L 259.888279 134.512964 
L 261.607163 134.56541 
L 263.112238 134.47582 
L 264.378793 134.250012 
L 265.386037 133.902723 
L 266.117441 133.456641 
L 266.561008 132.940925 
z
" style="fill:#0000ff;stroke:#000000;stroke-linejoin:miter;"/>
   </g>
   <g id="patch_6">
    <path clip-path="url(#p7e33219157)" d="M 254.029992 140.550331 
L 188.798002 140.586516 
L 188.801017 146.022515 
L 254.033007 145.98633 
z
" style="fill:#999999;stroke:#000000;stroke-linejoin:miter;"/>
   </g>
   <g id="text_1">
    <!-- t = 3.1 -->
    <defs>
     <path d="M 18.3125 70.21875 
L 18.3125 54.6875 
L 36.8125 54.6875 
L 36.8125 47.703125 
L 18.3125 47.703125 
L 18.3125 18.015625 
Q 18.3125 11.328125 20.140625 9.421875 
Q 21.96875 7.515625 27.59375 7.515625 
L 36.8125 7.515625 
L 36.8125 0 
L 27.59375 0 
Q 17.1875 0 13.234375 3.875 
Q 9.28125 7.765625 9.28125 18.015625 
L 9.28125 47.703125 
L 2.6875 47.703125 
L 2.6875 54.6875 
L 9.28125 54.6875 
L 9.28125 70.21875 
z
" id="DejaVuSans-116"/>
     <path id="DejaVuSans-32"/>
     <path d="M 10.59375 45.40625 
L 73.1875 45.40625 
L 73.1875 37.203125 
L 10.59375 37.203125 
z
M 10.59375 25.484375 
L 73.1875 25.484375 
L 73.1875 17.1875 
L 10.59375 17.1875 
z
" id="DejaVuSans-61"/>
     <path d="M 40.578125 39.3125 
Q 47.65625 37.796875 51.625 33 
Q 55.609375 28.21875 55.609375 21.1875 
Q 55.609375 10.40625 48.1875 4.484375 
Q 40.765625 -1.421875 27.09375 -1.421875 
Q 22.515625 -1.421875 17.65625 -0.515625 
Q 12.796875 0.390625 7.625 2.203125 
L 7.625 11.71875 
Q 11.71875 9.328125 16.59375 8.109375 
Q 21.484375 6.890625 26.8125 6.890625 
Q 36.078125 6.890625 40.9375 10.546875 
Q 45.796875 14.203125 45.796875 21.1875 
Q 45.796875 27.640625 41.28125 31.265625 
Q 36.765625 34.90625 28.71875 34.90625 
L 20.21875 34.90625 
L 20.21875 43.015625 
L 29.109375 43.015625 
Q 36.375 43.015625 40.234375 45.921875 
Q 44.09375 48.828125 44.09375 54.296875 
Q 44.09375 59.90625 40.109375 62.90625 
Q 36.140625 65.921875 28.71875 65.921875 
Q 24.65625 65.921875 20.015625 65.03125 
Q 15.375 64.15625 9.8125 62.3125 
L 9.8125 71.09375 
Q 15.4375 72.65625 20.34375 73.4375 
Q 25.25 74.21875 29.59375 74.21875 
Q 40.828125 74.21875 47.359375 69.109375 
Q 53.90625 64.015625 53.90625 55.328125 
Q 53.90625 49.265625 50.4375 45.09375 
Q 46.96875 40.921875 40.578125 39.3125 
z
" id="DejaVuSans-51"/>
     <path d="M 10.6875 12.40625 
L 21 12.40625 
L 21 0 
L 10.6875 0 
z
" id="DejaVuSans-46"/>
     <path d="M 12.40625 8.296875 
L 28.515625 8.296875 
L 28.515625 63.921875 
L 10.984375 60.40625 
L 10.984375 69.390625 
L 28.421875 72.90625 
L 38.28125 72.90625 
L 38.28125 8.296875 
L 54.390625 8.296875 
L 54.390625 0 
L 12.40625 0 
z
" id="DejaVuSans-49"/>
    </defs>
    <g transform="translate(200.664375 28.56)scale(0.12 -0.12)">
     <use xlink:href="#DejaVuSans-116"/>
     <use x="39.208984" xlink:href="#DejaVuSans-32"/>
     <use x="70.996094" xlink:href="#DejaVuSans-61"/>
     <use x="154.785156" xlink:href="#DejaVuSans-32"/>
     <use x="186.572266" xlink:href="#DejaVuSans-51"/>
     <use x="250.195312" xlink:href="#DejaVuSans-46"/>
     <use x="281.982422" xlink:href="#DejaVuSans-49"/>
    </g>
   </g>
  </g>
 </g>
 <defs>
  <clipPath id="p7e33219157">
   <rect height="217.44" width="334.8" x="54" y="34.56"/>
  </clipPath>
 </defs>
</svg>
