<?xml version="1.0" encoding="utf-8" standalone="no"?>
<!DOCTYPE svg PUBLIC "-//W3C//DTD SVG 1.1//EN"
  "http://www.w3.org/Graphics/SVG/1.1/DTD/svg11.dtd">
<!-- Created with matplotlib (https://matplotlib.org/) -->
<svg height="288pt" version="1.1" viewBox="0 0 432 288" width="432pt" xmlns="http://www.w3.org/2000/svg" xmlns:xlink="http://www.w3.org/1999/xlink">
 <defs>
  <style type="text/css">
*{stroke-linecap:butt;stroke-linejoin:round;}
  </style>
 </defs>
 <g id="figure_1">
  <g id="patch_1">
   <path d="M 0 288 
L 432 288 
L 432 0 
L 0 0 
z
" style="fill:#ffffff;"/>
  </g>
  <g id="axes_1">
   <g id="patch_2">
    <path clip-path="url(#pc354c97d2d)" d="M 194.919661 132.384892 
L 194.905536 143.256882 
L 193.818337 143.25547 
L 193.832462 132.383479 
z
" style="stroke:#000000;stroke-linejoin:miter;"/>
   </g>
   <g id="patch_3">
    <path clip-path="url(#pc354c97d2d)" d="M 249.279615 132.455515 
L 249.26549 143.327506 
L 248.178291 143.326093 
L 248.192416 132.454102 
z
" style="stroke:#000000;stroke-linejoin:miter;"/>
   </g>
   <g id="patch_4">
    <path clip-path="url(#pc354c97d2d)" d="M 212.496046 132.407726 
L 212.347998 131.855987 
L 211.904816 131.339941 
L 211.173744 130.893315 
L 210.166759 130.545276 
L 208.900372 130.318526 
L 207.395364 130.227815 
L 205.676441 130.278982 
L 203.771831 130.468569 
L 201.712821 130.784055 
L 199.533238 131.204673 
L 197.268899 131.702772 
L 194.957017 132.245626 
L 192.635586 132.79758 
L 190.34276 133.322383 
L 188.116221 133.785562 
L 185.992558 134.156678 
L 184.006665 134.411321 
L 182.191168 134.532709 
L 180.575884 134.512786 
L 179.187335 134.352753 
L 178.048311 134.062989 
L 177.177496 133.662374 
L 176.589164 133.177058 
L 176.292945 132.638749 
L 176.293667 132.082637 
L 176.591285 131.545099 
L 177.180875 131.061313 
L 178.052728 130.662963 
L 179.192501 130.376159 
L 180.581461 130.219734 
L 182.196791 130.204008 
L 184.011967 130.330113 
L 185.997192 130.589916 
L 188.119883 130.966549 
L 190.345211 131.435511 
L 192.636666 131.96627 
L 194.956655 132.524254 
L 197.267119 133.073113 
L 199.530156 133.577094 
L 201.708638 134.003374 
L 203.766822 134.324209 
L 205.670933 134.518744 
L 207.389717 134.574377 
L 208.894956 134.487577 
L 210.161927 134.264118 
L 211.169814 133.918697 
L 211.902043 133.473972 
L 212.346565 132.959079 
z
" style="fill:#0000ff;stroke:#000000;stroke-linejoin:miter;"/>
   </g>
   <g id="patch_5">
    <path clip-path="url(#pc354c97d2d)" d="M 266.856 132.47835 
L 266.707952 131.92661 
L 266.26477 131.410564 
L 265.533698 130.963938 
L 264.526713 130.615899 
L 263.260326 130.389149 
L 261.755318 130.298438 
L 260.036395 130.349605 
L 258.131786 130.539192 
L 256.072775 130.854678 
L 253.893192 131.275297 
L 251.628853 131.773395 
L 249.316971 132.316249 
L 246.99554 132.868203 
L 244.702714 133.393006 
L 242.476175 133.856185 
L 240.352512 134.227301 
L 238.366619 134.481944 
L 236.551122 134.603332 
L 234.935838 134.58341 
L 233.547289 134.423376 
L 232.408265 134.133612 
L 231.53745 133.732997 
L 230.949119 133.247682 
L 230.652899 132.709372 
L 230.653622 132.15326 
L 230.951239 131.615722 
L 231.54083 131.131936 
L 232.412682 130.733586 
L 233.552455 130.446782 
L 234.941415 130.290357 
L 236.556746 130.274631 
L 238.371922 130.400736 
L 240.357146 130.660539 
L 242.479837 131.037172 
L 244.705165 131.506134 
L 246.99662 132.036893 
L 249.316609 132.594877 
L 251.627073 133.143736 
L 253.89011 133.647717 
L 256.068592 134.073997 
L 258.126776 134.394832 
L 260.030887 134.589368 
L 261.749671 134.645 
L 263.25491 134.5582 
L 264.521881 134.334741 
L 265.529768 133.98932 
L 266.261997 133.544595 
L 266.706519 133.029702 
z
" style="fill:#0000ff;stroke:#000000;stroke-linejoin:miter;"/>
   </g>
   <g id="patch_6">
    <path clip-path="url(#pc354c97d2d)" d="M 254.161417 140.615864 
L 188.929473 140.531116 
L 188.92241 145.967112 
L 254.154355 146.051859 
z
" style="fill:#999999;stroke:#000000;stroke-linejoin:miter;"/>
   </g>
   <g id="text_1">
    <!-- t = 3.0 -->
    <defs>
     <path d="M 18.3125 70.21875 
L 18.3125 54.6875 
L 36.8125 54.6875 
L 36.8125 47.703125 
L 18.3125 47.703125 
L 18.3125 18.015625 
Q 18.3125 11.328125 20.140625 9.421875 
Q 21.96875 7.515625 27.59375 7.515625 
L 36.8125 7.515625 
L 36.8125 0 
L 27.59375 0 
Q 17.1875 0 13.234375 3.875 
Q 9.28125 7.765625 9.28125 18.015625 
L 9.28125 47.703125 
L 2.6875 47.703125 
L 2.6875 54.6875 
L 9.28125 54.6875 
L 9.28125 70.21875 
z
" id="DejaVuSans-116"/>
     <path id="DejaVuSans-32"/>
     <path d="M 10.59375 45.40625 
L 73.1875 45.40625 
L 73.1875 37.203125 
L 10.59375 37.203125 
z
M 10.59375 25.484375 
L 73.1875 25.484375 
L 73.1875 17.1875 
L 10.59375 17.1875 
z
" id="DejaVuSans-61"/>
     <path d="M 40.578125 39.3125 
Q 47.65625 37.796875 51.625 33 
Q 55.609375 28.21875 55.609375 21.1875 
Q 55.609375 10.40625 48.1875 4.484375 
Q 40.765625 -1.421875 27.09375 -1.421875 
Q 22.515625 -1.421875 17.65625 -0.515625 
Q 12.796875 0.390625 7.625 2.203125 
L 7.625 11.71875 
Q 11.71875 9.328125 16.59375 8.109375 
Q 21.484375 6.890625 26.8125 6.890625 
Q 36.078125 6.890625 40.9375 10.546875 
Q 45.796875 14.203125 45.796875 21.1875 
Q 45.796875 27.640625 41.28125 31.265625 
Q 36.765625 34.90625 28.71875 34.90625 
L 20.21875 34.90625 
L 20.21875 43.015625 
L 29.109375 43.015625 
Q 36.375 43.015625 40.234375 45.921875 
Q 44.09375 48.828125 44.09375 54.296875 
Q 44.09375 59.90625 40.109375 62.90625 
Q 36.140625 65.921875 28.71875 65.921875 
Q 24.65625 65.921875 20.015625 65.03125 
Q 15.375 64.15625 9.8125 62.3125 
L 9.8125 71.09375 
Q 15.4375 72.65625 20.34375 73.4375 
Q 25.25 74.21875 29.59375 74.21875 
Q 40.828125 74.21875 47.359375 69.109375 
Q 53.90625 64.015625 53.90625 55.328125 
Q 53.90625 49.265625 50.4375 45.09375 
Q 46.96875 40.921875 40.578125 39.3125 
z
" id="DejaVuSans-51"/>
     <path d="M 10.6875 12.40625 
L 21 12.40625 
L 21 0 
L 10.6875 0 
z
" id="DejaVuSans-46"/>
     <path d="M 31.78125 66.40625 
Q 24.171875 66.40625 20.328125 58.90625 
Q 16.5 51.421875 16.5 36.375 
Q 16.5 21.390625 20.328125 13.890625 
Q 24.171875 6.390625 31.78125 6.390625 
Q 39.453125 6.390625 43.28125 13.890625 
Q 47.125 21.390625 47.125 36.375 
Q 47.125 51.421875 43.28125 58.90625 
Q 39.453125 66.40625 31.78125 66.40625 
z
M 31.78125 74.21875 
Q 44.046875 74.21875 50.515625 64.515625 
Q 56.984375 54.828125 56.984375 36.375 
Q 56.984375 17.96875 50.515625 8.265625 
Q 44.046875 -1.421875 31.78125 -1.421875 
Q 19.53125 -1.421875 13.0625 8.265625 
Q 6.59375 17.96875 6.59375 36.375 
Q 6.59375 54.828125 13.0625 64.515625 
Q 19.53125 74.21875 31.78125 74.21875 
z
" id="DejaVuSans-48"/>
    </defs>
    <g transform="translate(200.664375 28.56)scale(0.12 -0.12)">
     <use xlink:href="#DejaVuSans-116"/>
     <use x="39.208984" xlink:href="#DejaVuSans-32"/>
     <use x="70.996094" xlink:href="#DejaVuSans-61"/>
     <use x="154.785156" xlink:href="#DejaVuSans-32"/>
     <use x="186.572266" xlink:href="#DejaVuSans-51"/>
     <use x="250.195312" xlink:href="#DejaVuSans-46"/>
     <use x="281.982422" xlink:href="#DejaVuSans-48"/>
    </g>
   </g>
  </g>
 </g>
 <defs>
  <clipPath id="pc354c97d2d">
   <rect height="217.44" width="334.8" x="54" y="34.56"/>
  </clipPath>
 </defs>
</svg>
