<?xml version="1.0" encoding="utf-8" standalone="no"?>
<!DOCTYPE svg PUBLIC "-//W3C//DTD SVG 1.1//EN"
  "http://www.w3.org/Graphics/SVG/1.1/DTD/svg11.dtd">
<!-- Created with matplotlib (https://matplotlib.org/) -->
<svg height="288pt" version="1.1" viewBox="0 0 432 288" width="432pt" xmlns="http://www.w3.org/2000/svg" xmlns:xlink="http://www.w3.org/1999/xlink">
 <defs>
  <style type="text/css">
*{stroke-linecap:butt;stroke-linejoin:round;}
  </style>
 </defs>
 <g id="figure_1">
  <g id="patch_1">
   <path d="M 0 288 
L 432 288 
L 432 0 
L 0 0 
z
" style="fill:#ffffff;"/>
  </g>
  <g id="axes_1">
   <g id="patch_2">
    <path clip-path="url(#p5809ac8168)" d="M 194.77857 132.408649 
L 194.778493 143.280649 
L 193.691293 143.280642 
L 193.69137 132.408642 
z
" style="stroke:#000000;stroke-linejoin:miter;"/>
   </g>
   <g id="patch_3">
    <path clip-path="url(#p5809ac8168)" d="M 249.13857 132.409037 
L 249.138493 143.281037 
L 248.051293 143.281029 
L 248.05137 132.409029 
z
" style="stroke:#000000;stroke-linejoin:miter;"/>
   </g>
   <g id="patch_4">
    <path clip-path="url(#p5809ac8168)" d="M 212.35497 132.408775 
L 212.206209 131.857227 
L 211.762361 131.341754 
L 211.030713 130.896073 
L 210.023279 130.549336 
L 208.7566 130.324222 
L 207.251476 130.235455 
L 205.532621 130.288843 
L 203.628257 130.480891 
L 201.569656 130.799037 
L 199.390619 131.222471 
L 197.126925 131.723495 
L 194.815746 132.269335 
L 192.49503 132.824288 
L 190.202884 133.352054 
L 187.976946 133.818109 
L 185.853764 134.191968 
L 183.868202 134.449177 
L 182.052863 134.572911 
L 180.437554 134.555075 
L 179.0488 134.396836 
L 177.909402 134.108543 
L 177.038071 133.709054 
L 176.449113 133.224499 
L 176.152198 132.686573 
L 176.152202 132.13046 
L 176.449124 131.592538 
L 177.03809 131.107991 
L 177.909427 130.708515 
L 179.048828 130.420238 
L 180.437585 130.262019 
L 182.052894 130.244206 
L 183.868231 130.367966 
L 185.853789 130.625203 
L 187.976966 130.999093 
L 190.202898 131.46518 
L 192.495036 131.992978 
L 194.815744 132.547964 
L 197.126916 133.093837 
L 199.390602 133.594893 
L 201.569633 134.018358 
L 203.62823 134.336534 
L 205.532591 134.528609 
L 207.251445 134.582021 
L 208.75657 134.493276 
L 210.023252 134.268181 
L 211.030691 133.921457 
L 211.762346 133.475787 
L 212.206202 132.96032 
z
" style="fill:#0000ff;stroke:#000000;stroke-linejoin:miter;"/>
   </g>
   <g id="patch_5">
    <path clip-path="url(#p5809ac8168)" d="M 266.71497 132.409162 
L 266.566209 131.857615 
L 266.122361 131.342142 
L 265.390713 130.896461 
L 264.383279 130.549723 
L 263.1166 130.324609 
L 261.611476 130.235843 
L 259.892621 130.28923 
L 257.988257 130.481279 
L 255.929656 130.799425 
L 253.750619 131.222859 
L 251.486925 131.723882 
L 249.175746 132.269723 
L 246.85503 132.824676 
L 244.562884 133.352441 
L 242.336946 133.818496 
L 240.213764 134.192356 
L 238.228202 134.449565 
L 236.412863 134.573299 
L 234.797554 134.555463 
L 233.4088 134.397224 
L 232.269402 134.108931 
L 231.398071 133.709442 
L 230.809113 133.224887 
L 230.512198 132.68696 
L 230.512202 132.130848 
L 230.809124 131.592926 
L 231.39809 131.108379 
L 232.269427 130.708902 
L 233.408828 130.420626 
L 234.797585 130.262407 
L 236.412894 130.244594 
L 238.228231 130.368353 
L 240.213789 130.625591 
L 242.336966 130.999481 
L 244.562898 131.465568 
L 246.855036 131.993365 
L 249.175744 132.548352 
L 251.486916 133.094225 
L 253.750602 133.595281 
L 255.929633 134.018746 
L 257.98823 134.336922 
L 259.892591 134.528997 
L 261.611445 134.582409 
L 263.11657 134.493664 
L 264.383252 134.268568 
L 265.390691 133.921845 
L 266.122346 133.476174 
L 266.566202 132.960708 
z
" style="fill:#0000ff;stroke:#000000;stroke-linejoin:miter;"/>
   </g>
   <g id="patch_6">
    <path clip-path="url(#p5809ac8168)" d="M 254.030912 140.563072 
L 188.798912 140.562607 
L 188.798874 145.998607 
L 254.030874 145.999072 
z
" style="fill:#999999;stroke:#000000;stroke-linejoin:miter;"/>
   </g>
   <g id="text_1">
    <!-- t = 3.6 -->
    <defs>
     <path d="M 18.3125 70.21875 
L 18.3125 54.6875 
L 36.8125 54.6875 
L 36.8125 47.703125 
L 18.3125 47.703125 
L 18.3125 18.015625 
Q 18.3125 11.328125 20.140625 9.421875 
Q 21.96875 7.515625 27.59375 7.515625 
L 36.8125 7.515625 
L 36.8125 0 
L 27.59375 0 
Q 17.1875 0 13.234375 3.875 
Q 9.28125 7.765625 9.28125 18.015625 
L 9.28125 47.703125 
L 2.6875 47.703125 
L 2.6875 54.6875 
L 9.28125 54.6875 
L 9.28125 70.21875 
z
" id="DejaVuSans-116"/>
     <path id="DejaVuSans-32"/>
     <path d="M 10.59375 45.40625 
L 73.1875 45.40625 
L 73.1875 37.203125 
L 10.59375 37.203125 
z
M 10.59375 25.484375 
L 73.1875 25.484375 
L 73.1875 17.1875 
L 10.59375 17.1875 
z
" id="DejaVuSans-61"/>
     <path d="M 40.578125 39.3125 
Q 47.65625 37.796875 51.625 33 
Q 55.609375 28.21875 55.609375 21.1875 
Q 55.609375 10.40625 48.1875 4.484375 
Q 40.765625 -1.421875 27.09375 -1.421875 
Q 22.515625 -1.421875 17.65625 -0.515625 
Q 12.796875 0.390625 7.625 2.203125 
L 7.625 11.71875 
Q 11.71875 9.328125 16.59375 8.109375 
Q 21.484375 6.890625 26.8125 6.890625 
Q 36.078125 6.890625 40.9375 10.546875 
Q 45.796875 14.203125 45.796875 21.1875 
Q 45.796875 27.640625 41.28125 31.265625 
Q 36.765625 34.90625 28.71875 34.90625 
L 20.21875 34.90625 
L 20.21875 43.015625 
L 29.109375 43.015625 
Q 36.375 43.015625 40.234375 45.921875 
Q 44.09375 48.828125 44.09375 54.296875 
Q 44.09375 59.90625 40.109375 62.90625 
Q 36.140625 65.921875 28.71875 65.921875 
Q 24.65625 65.921875 20.015625 65.03125 
Q 15.375 64.15625 9.8125 62.3125 
L 9.8125 71.09375 
Q 15.4375 72.65625 20.34375 73.4375 
Q 25.25 74.21875 29.59375 74.21875 
Q 40.828125 74.21875 47.359375 69.109375 
Q 53.90625 64.015625 53.90625 55.328125 
Q 53.90625 49.265625 50.4375 45.09375 
Q 46.96875 40.921875 40.578125 39.3125 
z
" id="DejaVuSans-51"/>
     <path d="M 10.6875 12.40625 
L 21 12.40625 
L 21 0 
L 10.6875 0 
z
" id="DejaVuSans-46"/>
     <path d="M 33.015625 40.375 
Q 26.375 40.375 22.484375 35.828125 
Q 18.609375 31.296875 18.609375 23.390625 
Q 18.609375 15.53125 22.484375 10.953125 
Q 26.375 6.390625 33.015625 6.390625 
Q 39.65625 6.390625 43.53125 10.953125 
Q 47.40625 15.53125 47.40625 23.390625 
Q 47.40625 31.296875 43.53125 35.828125 
Q 39.65625 40.375 33.015625 40.375 
z
M 52.59375 71.296875 
L 52.59375 62.3125 
Q 48.875 64.0625 45.09375 64.984375 
Q 41.3125 65.921875 37.59375 65.921875 
Q 27.828125 65.921875 22.671875 59.328125 
Q 17.53125 52.734375 16.796875 39.40625 
Q 19.671875 43.65625 24.015625 45.921875 
Q 28.375 48.1875 33.59375 48.1875 
Q 44.578125 48.1875 50.953125 41.515625 
Q 57.328125 34.859375 57.328125 23.390625 
Q 57.328125 12.15625 50.6875 5.359375 
Q 44.046875 -1.421875 33.015625 -1.421875 
Q 20.359375 -1.421875 13.671875 8.265625 
Q 6.984375 17.96875 6.984375 36.375 
Q 6.984375 53.65625 15.1875 63.9375 
Q 23.390625 74.21875 37.203125 74.21875 
Q 40.921875 74.21875 44.703125 73.484375 
Q 48.484375 72.75 52.59375 71.296875 
z
" id="DejaVuSans-54"/>
    </defs>
    <g transform="translate(200.664375 28.56)scale(0.12 -0.12)">
     <use xlink:href="#DejaVuSans-116"/>
     <use x="39.208984" xlink:href="#DejaVuSans-32"/>
     <use x="70.996094" xlink:href="#DejaVuSans-61"/>
     <use x="154.785156" xlink:href="#DejaVuSans-32"/>
     <use x="186.572266" xlink:href="#DejaVuSans-51"/>
     <use x="250.195312" xlink:href="#DejaVuSans-46"/>
     <use x="281.982422" xlink:href="#DejaVuSans-54"/>
    </g>
   </g>
  </g>
 </g>
 <defs>
  <clipPath id="p5809ac8168">
   <rect height="217.44" width="334.8" x="54" y="34.56"/>
  </clipPath>
 </defs>
</svg>
