<?xml version="1.0" encoding="utf-8" standalone="no"?>
<!DOCTYPE svg PUBLIC "-//W3C//DTD SVG 1.1//EN"
  "http://www.w3.org/Graphics/SVG/1.1/DTD/svg11.dtd">
<!-- Created with matplotlib (https://matplotlib.org/) -->
<svg height="288pt" version="1.1" viewBox="0 0 432 288" width="432pt" xmlns="http://www.w3.org/2000/svg" xmlns:xlink="http://www.w3.org/1999/xlink">
 <defs>
  <style type="text/css">
*{stroke-linecap:butt;stroke-linejoin:round;}
  </style>
 </defs>
 <g id="figure_1">
  <g id="patch_1">
   <path d="M 0 288 
L 432 288 
L 432 0 
L 0 0 
z
" style="fill:#ffffff;"/>
  </g>
  <g id="axes_1">
   <g id="patch_2">
    <path clip-path="url(#pd50a116403)" d="M 195.083413 133.12286 
L 195.198693 143.994249 
L 194.111554 144.005777 
L 193.996274 133.134388 
z
" style="stroke:#000000;stroke-linejoin:miter;"/>
   </g>
   <g id="patch_3">
    <path clip-path="url(#pd50a116403)" d="M 249.440357 132.546458 
L 249.555637 143.417846 
L 248.468498 143.429374 
L 248.353218 132.557986 
z
" style="stroke:#000000;stroke-linejoin:miter;"/>
   </g>
   <g id="patch_4">
    <path clip-path="url(#pd50a116403)" d="M 212.658825 132.93649 
L 212.50422 132.386552 
L 212.054927 131.875817 
L 211.318591 131.437924 
L 210.307534 131.101896 
L 209.038539 130.890235 
L 207.532558 130.817444 
L 205.814365 130.889066 
L 203.912147 131.10131 
L 201.857037 131.441281 
L 199.682616 131.887812 
L 197.424366 132.412826 
L 195.119108 132.983159 
L 192.804411 133.562705 
L 190.517994 134.114761 
L 188.297126 134.604409 
L 186.178031 135.000775 
L 184.19531 135.279038 
L 182.381386 135.422026 
L 180.765979 135.421331 
L 179.375623 135.277836 
L 178.233231 135.001649 
L 177.35771 134.611428 
L 176.763644 134.133149 
L 176.461038 133.598403 
L 176.455141 133.042323 
L 176.746339 132.50128 
L 177.33013 132.010511 
L 178.197179 131.601812 
L 179.333458 131.301462 
L 180.720458 131.128516 
L 182.335487 131.093565 
L 184.152035 131.198056 
L 186.140211 131.434211 
L 188.267235 131.785552 
L 190.497987 132.227994 
L 192.795597 132.731441 
L 195.122063 133.261772 
L 197.438896 133.783092 
L 199.707771 134.260101 
L 201.891173 134.660421 
L 203.95303 134.956736 
L 205.859322 135.128594 
L 207.578646 135.163765 
L 209.082745 135.059055 
L 210.346967 134.820532 
L 211.350671 134.463139 
L 212.077555 134.00973 
L 212.515916 133.489583 
z
" style="fill:#0000ff;stroke:#000000;stroke-linejoin:miter;"/>
   </g>
   <g id="patch_5">
    <path clip-path="url(#pd50a116403)" d="M 267.015769 132.360088 
L 266.861164 131.81015 
L 266.411871 131.299415 
L 265.675535 130.861522 
L 264.664478 130.525494 
L 263.395483 130.313833 
L 261.889502 130.241042 
L 260.171309 130.312664 
L 258.269091 130.524908 
L 256.213981 130.864879 
L 254.03956 131.31141 
L 251.78131 131.836424 
L 249.476052 132.406757 
L 247.161355 132.986303 
L 244.874938 133.538359 
L 242.65407 134.028007 
L 240.534975 134.424373 
L 238.552254 134.702636 
L 236.73833 134.845624 
L 235.122923 134.844929 
L 233.732567 134.701434 
L 232.590175 134.425247 
L 231.714654 134.035026 
L 231.120588 133.556747 
L 230.817982 133.022001 
L 230.812085 132.46592 
L 231.103283 131.924878 
L 231.687074 131.434109 
L 232.554123 131.02541 
L 233.690402 130.72506 
L 235.077402 130.552114 
L 236.692431 130.517163 
L 238.508979 130.621654 
L 240.497155 130.857809 
L 242.624179 131.209149 
L 244.854931 131.651592 
L 247.152541 132.155039 
L 249.479007 132.68537 
L 251.79584 133.20669 
L 254.064715 133.683699 
L 256.248117 134.084019 
L 258.309974 134.380334 
L 260.216265 134.552192 
L 261.93559 134.587363 
L 263.439689 134.482653 
L 264.703911 134.24413 
L 265.707615 133.886736 
L 266.434499 133.433328 
L 266.87286 132.913181 
z
" style="fill:#0000ff;stroke:#000000;stroke-linejoin:miter;"/>
   </g>
   <g id="patch_6">
    <path clip-path="url(#pd50a116403)" d="M 254.418942 140.648123 
L 189.190609 141.339806 
L 189.24825 146.7755 
L 254.476582 146.083817 
z
" style="fill:#999999;stroke:#000000;stroke-linejoin:miter;"/>
   </g>
   <g id="text_1">
    <!-- t = 1.6 -->
    <defs>
     <path d="M 18.3125 70.21875 
L 18.3125 54.6875 
L 36.8125 54.6875 
L 36.8125 47.703125 
L 18.3125 47.703125 
L 18.3125 18.015625 
Q 18.3125 11.328125 20.140625 9.421875 
Q 21.96875 7.515625 27.59375 7.515625 
L 36.8125 7.515625 
L 36.8125 0 
L 27.59375 0 
Q 17.1875 0 13.234375 3.875 
Q 9.28125 7.765625 9.28125 18.015625 
L 9.28125 47.703125 
L 2.6875 47.703125 
L 2.6875 54.6875 
L 9.28125 54.6875 
L 9.28125 70.21875 
z
" id="DejaVuSans-116"/>
     <path id="DejaVuSans-32"/>
     <path d="M 10.59375 45.40625 
L 73.1875 45.40625 
L 73.1875 37.203125 
L 10.59375 37.203125 
z
M 10.59375 25.484375 
L 73.1875 25.484375 
L 73.1875 17.1875 
L 10.59375 17.1875 
z
" id="DejaVuSans-61"/>
     <path d="M 12.40625 8.296875 
L 28.515625 8.296875 
L 28.515625 63.921875 
L 10.984375 60.40625 
L 10.984375 69.390625 
L 28.421875 72.90625 
L 38.28125 72.90625 
L 38.28125 8.296875 
L 54.390625 8.296875 
L 54.390625 0 
L 12.40625 0 
z
" id="DejaVuSans-49"/>
     <path d="M 10.6875 12.40625 
L 21 12.40625 
L 21 0 
L 10.6875 0 
z
" id="DejaVuSans-46"/>
     <path d="M 33.015625 40.375 
Q 26.375 40.375 22.484375 35.828125 
Q 18.609375 31.296875 18.609375 23.390625 
Q 18.609375 15.53125 22.484375 10.953125 
Q 26.375 6.390625 33.015625 6.390625 
Q 39.65625 6.390625 43.53125 10.953125 
Q 47.40625 15.53125 47.40625 23.390625 
Q 47.40625 31.296875 43.53125 35.828125 
Q 39.65625 40.375 33.015625 40.375 
z
M 52.59375 71.296875 
L 52.59375 62.3125 
Q 48.875 64.0625 45.09375 64.984375 
Q 41.3125 65.921875 37.59375 65.921875 
Q 27.828125 65.921875 22.671875 59.328125 
Q 17.53125 52.734375 16.796875 39.40625 
Q 19.671875 43.65625 24.015625 45.921875 
Q 28.375 48.1875 33.59375 48.1875 
Q 44.578125 48.1875 50.953125 41.515625 
Q 57.328125 34.859375 57.328125 23.390625 
Q 57.328125 12.15625 50.6875 5.359375 
Q 44.046875 -1.421875 33.015625 -1.421875 
Q 20.359375 -1.421875 13.671875 8.265625 
Q 6.984375 17.96875 6.984375 36.375 
Q 6.984375 53.65625 15.1875 63.9375 
Q 23.390625 74.21875 37.203125 74.21875 
Q 40.921875 74.21875 44.703125 73.484375 
Q 48.484375 72.75 52.59375 71.296875 
z
" id="DejaVuSans-54"/>
    </defs>
    <g transform="translate(200.664375 28.56)scale(0.12 -0.12)">
     <use xlink:href="#DejaVuSans-116"/>
     <use x="39.208984" xlink:href="#DejaVuSans-32"/>
     <use x="70.996094" xlink:href="#DejaVuSans-61"/>
     <use x="154.785156" xlink:href="#DejaVuSans-32"/>
     <use x="186.572266" xlink:href="#DejaVuSans-49"/>
     <use x="250.195312" xlink:href="#DejaVuSans-46"/>
     <use x="281.982422" xlink:href="#DejaVuSans-54"/>
    </g>
   </g>
  </g>
 </g>
 <defs>
  <clipPath id="pd50a116403">
   <rect height="217.44" width="334.8" x="54" y="34.56"/>
  </clipPath>
 </defs>
</svg>
