<?xml version="1.0" encoding="utf-8" standalone="no"?>
<!DOCTYPE svg PUBLIC "-//W3C//DTD SVG 1.1//EN"
  "http://www.w3.org/Graphics/SVG/1.1/DTD/svg11.dtd">
<!-- Created with matplotlib (https://matplotlib.org/) -->
<svg height="288pt" version="1.1" viewBox="0 0 432 288" width="432pt" xmlns="http://www.w3.org/2000/svg" xmlns:xlink="http://www.w3.org/1999/xlink">
 <defs>
  <style type="text/css">
*{stroke-linecap:butt;stroke-linejoin:round;}
  </style>
 </defs>
 <g id="figure_1">
  <g id="patch_1">
   <path d="M 0 288 
L 432 288 
L 432 0 
L 0 0 
z
" style="fill:#ffffff;"/>
  </g>
  <g id="axes_1">
   <g id="patch_2">
    <path clip-path="url(#pb27cd52903)" d="M 192.474315 135.686734 
L 191.469241 146.512176 
L 190.386696 146.411669 
L 191.391771 135.586226 
z
" style="stroke:#000000;stroke-linejoin:miter;"/>
   </g>
   <g id="patch_3">
    <path clip-path="url(#pb27cd52903)" d="M 246.601528 140.712104 
L 245.596454 151.537547 
L 244.51391 151.43704 
L 245.518984 140.611597 
z
" style="stroke:#000000;stroke-linejoin:miter;"/>
   </g>
   <g id="patch_4">
    <path clip-path="url(#pb27cd52903)" d="M 209.975447 137.311604 
L 209.878308 136.748666 
L 209.484009 136.194371 
L 208.796692 135.682966 
L 207.825624 135.244587 
L 206.585178 134.903346 
L 205.094704 134.675828 
L 203.378273 134.570097 
L 201.464311 134.585286 
L 199.385114 134.711775 
L 197.176265 134.931967 
L 194.87595 135.221592 
L 192.524209 135.551453 
L 190.162131 135.889505 
L 187.831013 136.203127 
L 185.571523 136.461423 
L 183.422873 136.637417 
L 181.422036 136.709981 
L 179.603032 136.665377 
L 177.996289 136.4983 
L 176.628108 136.212363 
L 175.520238 135.81998 
L 174.689566 135.341657 
L 174.147921 134.804733 
L 173.902003 134.241663 
L 173.953414 133.687933 
L 174.29879 133.179761 
L 174.930024 132.751732 
L 175.834558 132.434511 
L 176.995729 132.252795 
L 178.393165 132.223628 
L 180.003204 132.355209 
L 181.799329 132.646247 
L 183.752607 133.085926 
L 185.83213 133.654479 
L 188.005447 134.324333 
L 190.238982 135.061754 
L 192.498451 135.828888 
L 194.749267 136.586067 
L 196.956944 137.29423 
L 199.087501 137.917309 
L 201.107872 138.424418 
L 202.986323 138.791708 
L 204.692881 139.00378 
L 206.199765 139.054548 
L 207.481831 138.947506 
L 208.517007 138.695394 
L 209.286726 138.319265 
L 209.776331 137.847035 
z
" style="fill:#0000ff;stroke:#000000;stroke-linejoin:miter;"/>
   </g>
   <g id="patch_5">
    <path clip-path="url(#pb27cd52903)" d="M 264.102661 142.336974 
L 264.005521 141.774037 
L 263.611223 141.219742 
L 262.923906 140.708337 
L 261.952837 140.269957 
L 260.712392 139.928717 
L 259.221917 139.701199 
L 257.505487 139.595468 
L 255.591524 139.610656 
L 253.512328 139.737145 
L 251.303479 139.957338 
L 249.003164 140.246963 
L 246.651423 140.576823 
L 244.289344 140.914876 
L 241.958227 141.228497 
L 239.698737 141.486793 
L 237.550087 141.662787 
L 235.54925 141.735352 
L 233.730246 141.690748 
L 232.123502 141.523671 
L 230.755321 141.237734 
L 229.647452 140.845351 
L 228.81678 140.367027 
L 228.275135 139.830104 
L 228.029217 139.267034 
L 228.080627 138.713303 
L 228.426003 138.205132 
L 229.057238 137.777103 
L 229.961771 137.459882 
L 231.122942 137.278165 
L 232.520379 137.248999 
L 234.130418 137.38058 
L 235.926542 137.671617 
L 237.87982 138.111296 
L 239.959344 138.67985 
L 242.132661 139.349704 
L 244.366196 140.087125 
L 246.625665 140.854259 
L 248.876481 141.611437 
L 251.084158 142.319601 
L 253.214714 142.94268 
L 255.235085 143.449788 
L 257.113537 143.817078 
L 258.820094 144.029151 
L 260.326979 144.079918 
L 261.609044 143.972877 
L 262.644221 143.720765 
L 263.41394 143.344636 
L 263.903545 142.872406 
z
" style="fill:#0000ff;stroke:#000000;stroke-linejoin:miter;"/>
   </g>
   <g id="patch_6">
    <path clip-path="url(#pb27cd52903)" d="M 250.719172 149.28347 
L 185.766516 143.253025 
L 185.263979 148.665746 
L 250.216635 154.696191 
z
" style="fill:#999999;stroke:#000000;stroke-linejoin:miter;"/>
   </g>
   <g id="text_1">
    <!-- t = 1.1 -->
    <defs>
     <path d="M 18.3125 70.21875 
L 18.3125 54.6875 
L 36.8125 54.6875 
L 36.8125 47.703125 
L 18.3125 47.703125 
L 18.3125 18.015625 
Q 18.3125 11.328125 20.140625 9.421875 
Q 21.96875 7.515625 27.59375 7.515625 
L 36.8125 7.515625 
L 36.8125 0 
L 27.59375 0 
Q 17.1875 0 13.234375 3.875 
Q 9.28125 7.765625 9.28125 18.015625 
L 9.28125 47.703125 
L 2.6875 47.703125 
L 2.6875 54.6875 
L 9.28125 54.6875 
L 9.28125 70.21875 
z
" id="DejaVuSans-116"/>
     <path id="DejaVuSans-32"/>
     <path d="M 10.59375 45.40625 
L 73.1875 45.40625 
L 73.1875 37.203125 
L 10.59375 37.203125 
z
M 10.59375 25.484375 
L 73.1875 25.484375 
L 73.1875 17.1875 
L 10.59375 17.1875 
z
" id="DejaVuSans-61"/>
     <path d="M 12.40625 8.296875 
L 28.515625 8.296875 
L 28.515625 63.921875 
L 10.984375 60.40625 
L 10.984375 69.390625 
L 28.421875 72.90625 
L 38.28125 72.90625 
L 38.28125 8.296875 
L 54.390625 8.296875 
L 54.390625 0 
L 12.40625 0 
z
" id="DejaVuSans-49"/>
     <path d="M 10.6875 12.40625 
L 21 12.40625 
L 21 0 
L 10.6875 0 
z
" id="DejaVuSans-46"/>
    </defs>
    <g transform="translate(200.664375 28.56)scale(0.12 -0.12)">
     <use xlink:href="#DejaVuSans-116"/>
     <use x="39.208984" xlink:href="#DejaVuSans-32"/>
     <use x="70.996094" xlink:href="#DejaVuSans-61"/>
     <use x="154.785156" xlink:href="#DejaVuSans-32"/>
     <use x="186.572266" xlink:href="#DejaVuSans-49"/>
     <use x="250.195312" xlink:href="#DejaVuSans-46"/>
     <use x="281.982422" xlink:href="#DejaVuSans-49"/>
    </g>
   </g>
  </g>
 </g>
 <defs>
  <clipPath id="pb27cd52903">
   <rect height="217.44" width="334.8" x="54" y="34.56"/>
  </clipPath>
 </defs>
</svg>
