<?xml version="1.0" encoding="utf-8" standalone="no"?>
<!DOCTYPE svg PUBLIC "-//W3C//DTD SVG 1.1//EN"
  "http://www.w3.org/Graphics/SVG/1.1/DTD/svg11.dtd">
<!-- Created with matplotlib (https://matplotlib.org/) -->
<svg height="288pt" version="1.1" viewBox="0 0 432 288" width="432pt" xmlns="http://www.w3.org/2000/svg" xmlns:xlink="http://www.w3.org/1999/xlink">
 <defs>
  <style type="text/css">
*{stroke-linecap:butt;stroke-linejoin:round;}
  </style>
 </defs>
 <g id="figure_1">
  <g id="patch_1">
   <path d="M 0 288 
L 432 288 
L 432 0 
L 0 0 
z
" style="fill:#ffffff;"/>
  </g>
  <g id="axes_1">
   <g id="patch_2">
    <path clip-path="url(#p39aa49edf7)" d="M 234.466936 102.203071 
L 237.866027 112.530053 
L 236.833329 112.869962 
L 233.434237 102.54298 
z
" style="stroke:#000000;stroke-linejoin:miter;"/>
   </g>
   <g id="patch_3">
    <path clip-path="url(#p39aa49edf7)" d="M 286.101847 85.207615 
L 289.500938 95.534598 
L 288.46824 95.874507 
L 285.069149 85.547524 
z
" style="stroke:#000000;stroke-linejoin:miter;"/>
   </g>
   <g id="patch_4">
    <path clip-path="url(#p39aa49edf7)" d="M 251.162224 96.707873 
L 250.848477 96.230487 
L 250.265716 95.879627 
L 249.431404 95.685041 
L 248.366066 95.670664 
L 247.092507 95.852866 
L 245.635086 96.239132 
L 244.019093 96.827248 
L 242.270245 97.605074 
L 240.414316 98.550899 
L 238.476908 99.634387 
L 236.483346 100.818044 
L 234.458691 102.059118 
L 232.427826 103.311829 
L 230.415599 104.529782 
L 228.446966 105.668419 
L 226.547113 106.687356 
L 224.74151 107.552462 
L 223.055864 108.237564 
L 221.515959 108.725654 
L 220.147353 109.009546 
L 218.974941 109.091943 
L 218.02239 108.984906 
L 217.31146 108.708782 
L 216.861246 108.290654 
L 216.687379 107.76242 
L 216.801233 107.158632 
L 217.209177 106.514235 
L 217.911934 105.862359 
L 218.904084 105.232297 
L 220.173751 104.64781 
L 221.702511 104.125859 
L 223.465534 103.675844 
L 225.431977 103.299394 
L 227.565611 102.990722 
L 229.825675 102.737498 
L 232.16792 102.522192 
L 234.545803 102.323779 
L 236.911778 102.119691 
L 239.218637 101.887879 
L 241.420825 101.608834 
L 243.475698 101.267432 
L 245.344641 100.854474 
L 246.994024 100.367802 
L 248.395947 99.812925 
L 249.52875 99.203081 
L 250.377279 98.558761 
L 250.932914 97.906679 
L 251.193355 97.278282 
z
" style="fill:#0000ff;stroke:#000000;stroke-linejoin:miter;"/>
   </g>
   <g id="patch_5">
    <path clip-path="url(#p39aa49edf7)" d="M 302.797135 79.712418 
L 302.483389 79.235031 
L 301.900628 78.884171 
L 301.066315 78.689585 
L 300.000978 78.675208 
L 298.727419 78.857411 
L 297.269998 79.243676 
L 295.654005 79.831793 
L 293.905157 80.609618 
L 292.049228 81.555443 
L 290.111819 82.638932 
L 288.118257 83.822589 
L 286.093602 85.063662 
L 284.062738 86.316373 
L 282.050511 87.534327 
L 280.081878 88.672964 
L 278.182025 89.6919 
L 276.376422 90.557007 
L 274.690776 91.242109 
L 273.150871 91.730199 
L 271.782264 92.014091 
L 270.609852 92.096487 
L 269.657301 91.98945 
L 268.946371 91.713327 
L 268.496157 91.295199 
L 268.322291 90.766965 
L 268.436145 90.163176 
L 268.844089 89.518779 
L 269.546846 88.866903 
L 270.538995 88.236842 
L 271.808662 87.652355 
L 273.337422 87.130404 
L 275.100446 86.680388 
L 277.066889 86.303939 
L 279.200523 85.995267 
L 281.460586 85.742043 
L 283.802832 85.526736 
L 286.180714 85.328323 
L 288.54669 85.124236 
L 290.853548 84.892424 
L 293.055737 84.613378 
L 295.110609 84.271976 
L 296.979552 83.859018 
L 298.628935 83.372347 
L 300.030859 82.817469 
L 301.163661 82.207626 
L 302.012191 81.563306 
L 302.567825 80.911224 
L 302.828267 80.282826 
z
" style="fill:#0000ff;stroke:#000000;stroke-linejoin:miter;"/>
   </g>
   <g id="patch_6">
    <path clip-path="url(#p39aa49edf7)" d="M 293.298308 91.423261 
L 231.336414 111.817808 
L 233.035959 116.981299 
L 294.997853 96.586752 
z
" style="fill:#999999;stroke:#000000;stroke-linejoin:miter;"/>
   </g>
   <g id="text_1">
    <!-- t = 0.2 -->
    <defs>
     <path d="M 18.3125 70.21875 
L 18.3125 54.6875 
L 36.8125 54.6875 
L 36.8125 47.703125 
L 18.3125 47.703125 
L 18.3125 18.015625 
Q 18.3125 11.328125 20.140625 9.421875 
Q 21.96875 7.515625 27.59375 7.515625 
L 36.8125 7.515625 
L 36.8125 0 
L 27.59375 0 
Q 17.1875 0 13.234375 3.875 
Q 9.28125 7.765625 9.28125 18.015625 
L 9.28125 47.703125 
L 2.6875 47.703125 
L 2.6875 54.6875 
L 9.28125 54.6875 
L 9.28125 70.21875 
z
" id="DejaVuSans-116"/>
     <path id="DejaVuSans-32"/>
     <path d="M 10.59375 45.40625 
L 73.1875 45.40625 
L 73.1875 37.203125 
L 10.59375 37.203125 
z
M 10.59375 25.484375 
L 73.1875 25.484375 
L 73.1875 17.1875 
L 10.59375 17.1875 
z
" id="DejaVuSans-61"/>
     <path d="M 31.78125 66.40625 
Q 24.171875 66.40625 20.328125 58.90625 
Q 16.5 51.421875 16.5 36.375 
Q 16.5 21.390625 20.328125 13.890625 
Q 24.171875 6.390625 31.78125 6.390625 
Q 39.453125 6.390625 43.28125 13.890625 
Q 47.125 21.390625 47.125 36.375 
Q 47.125 51.421875 43.28125 58.90625 
Q 39.453125 66.40625 31.78125 66.40625 
z
M 31.78125 74.21875 
Q 44.046875 74.21875 50.515625 64.515625 
Q 56.984375 54.828125 56.984375 36.375 
Q 56.984375 17.96875 50.515625 8.265625 
Q 44.046875 -1.421875 31.78125 -1.421875 
Q 19.53125 -1.421875 13.0625 8.265625 
Q 6.59375 17.96875 6.59375 36.375 
Q 6.59375 54.828125 13.0625 64.515625 
Q 19.53125 74.21875 31.78125 74.21875 
z
" id="DejaVuSans-48"/>
     <path d="M 10.6875 12.40625 
L 21 12.40625 
L 21 0 
L 10.6875 0 
z
" id="DejaVuSans-46"/>
     <path d="M 19.1875 8.296875 
L 53.609375 8.296875 
L 53.609375 0 
L 7.328125 0 
L 7.328125 8.296875 
Q 12.9375 14.109375 22.625 23.890625 
Q 32.328125 33.6875 34.8125 36.53125 
Q 39.546875 41.84375 41.421875 45.53125 
Q 43.3125 49.21875 43.3125 52.78125 
Q 43.3125 58.59375 39.234375 62.25 
Q 35.15625 65.921875 28.609375 65.921875 
Q 23.96875 65.921875 18.8125 64.3125 
Q 13.671875 62.703125 7.8125 59.421875 
L 7.8125 69.390625 
Q 13.765625 71.78125 18.9375 73 
Q 24.125 74.21875 28.421875 74.21875 
Q 39.75 74.21875 46.484375 68.546875 
Q 53.21875 62.890625 53.21875 53.421875 
Q 53.21875 48.921875 51.53125 44.890625 
Q 49.859375 40.875 45.40625 35.40625 
Q 44.1875 33.984375 37.640625 27.21875 
Q 31.109375 20.453125 19.1875 8.296875 
z
" id="DejaVuSans-50"/>
    </defs>
    <g transform="translate(200.664375 28.56)scale(0.12 -0.12)">
     <use xlink:href="#DejaVuSans-116"/>
     <use x="39.208984" xlink:href="#DejaVuSans-32"/>
     <use x="70.996094" xlink:href="#DejaVuSans-61"/>
     <use x="154.785156" xlink:href="#DejaVuSans-32"/>
     <use x="186.572266" xlink:href="#DejaVuSans-48"/>
     <use x="250.195312" xlink:href="#DejaVuSans-46"/>
     <use x="281.982422" xlink:href="#DejaVuSans-50"/>
    </g>
   </g>
  </g>
 </g>
 <defs>
  <clipPath id="p39aa49edf7">
   <rect height="217.44" width="334.8" x="54" y="34.56"/>
  </clipPath>
 </defs>
</svg>
