<?xml version="1.0" encoding="utf-8" standalone="no"?>
<!DOCTYPE svg PUBLIC "-//W3C//DTD SVG 1.1//EN"
  "http://www.w3.org/Graphics/SVG/1.1/DTD/svg11.dtd">
<!-- Created with matplotlib (https://matplotlib.org/) -->
<svg height="288pt" version="1.1" viewBox="0 0 432 288" width="432pt" xmlns="http://www.w3.org/2000/svg" xmlns:xlink="http://www.w3.org/1999/xlink">
 <defs>
  <style type="text/css">
*{stroke-linecap:butt;stroke-linejoin:round;}
  </style>
 </defs>
 <g id="figure_1">
  <g id="patch_1">
   <path d="M 0 288 
L 432 288 
L 432 0 
L 0 0 
z
" style="fill:#ffffff;"/>
  </g>
  <g id="axes_1">
   <g id="patch_2">
    <path clip-path="url(#pf560e90e83)" d="M 194.751078 132.40618 
L 194.749411 143.27818 
L 193.662211 143.278013 
L 193.663878 132.406013 
z
" style="stroke:#000000;stroke-linejoin:miter;"/>
   </g>
   <g id="patch_3">
    <path clip-path="url(#pf560e90e83)" d="M 249.111077 132.414515 
L 249.10941 143.286515 
L 248.02221 143.286348 
L 248.023877 132.414348 
z
" style="stroke:#000000;stroke-linejoin:miter;"/>
   </g>
   <g id="patch_4">
    <path clip-path="url(#pf560e90e83)" d="M 212.327478 132.408875 
L 212.178797 131.857306 
L 211.735024 131.341768 
L 211.003441 130.89598 
L 209.996058 130.549095 
L 208.729412 130.323796 
L 207.224301 130.23481 
L 205.505438 130.287946 
L 203.601047 130.479715 
L 201.542399 130.797561 
L 199.3633 131.220676 
L 197.099533 131.721369 
L 194.788274 132.266871 
L 192.467477 132.821485 
L 190.175254 133.348915 
L 187.949247 133.814645 
L 185.826011 134.188194 
L 183.840411 134.445113 
L 182.025054 134.568581 
L 180.409748 134.550509 
L 179.021017 134.392067 
L 177.881662 134.103608 
L 177.010389 133.703991 
L 176.421501 133.21935 
L 176.124665 132.68138 
L 176.12475 132.125268 
L 176.421751 131.587389 
L 177.010788 131.102928 
L 177.882183 130.703579 
L 179.021627 130.415469 
L 180.410407 130.257453 
L 182.025718 130.239876 
L 183.841037 130.363901 
L 185.826558 130.621429 
L 187.949679 130.995629 
L 190.175543 131.462042 
L 192.467605 131.990174 
L 194.788231 132.5455 
L 197.099323 133.091711 
L 199.362936 133.593098 
L 201.541905 134.016882 
L 203.600456 134.335358 
L 205.504788 134.527712 
L 207.223635 134.581375 
L 208.728773 134.492851 
L 209.995488 134.26794 
L 211.002978 133.921364 
L 211.734697 133.4758 
L 212.178628 132.960399 
z
" style="fill:#0000ff;stroke:#000000;stroke-linejoin:miter;"/>
   </g>
   <g id="patch_5">
    <path clip-path="url(#pf560e90e83)" d="M 266.687477 132.41721 
L 266.538797 131.865641 
L 266.095024 131.350103 
L 265.363441 130.904315 
L 264.356057 130.55743 
L 263.089412 130.332131 
L 261.584301 130.243145 
L 259.865438 130.296281 
L 257.961046 130.48805 
L 255.902398 130.805896 
L 253.723299 131.229011 
L 251.459533 131.729704 
L 249.148273 132.275206 
L 246.827476 132.82982 
L 244.535253 133.35725 
L 242.309247 133.82298 
L 240.18601 134.196529 
L 238.200411 134.453448 
L 236.385054 134.576916 
L 234.769748 134.558844 
L 233.381016 134.400402 
L 232.241661 134.111943 
L 231.370388 133.712326 
L 230.781501 133.227685 
L 230.484664 132.689715 
L 230.48475 132.133603 
L 230.781751 131.595724 
L 231.370787 131.111263 
L 232.242182 130.711914 
L 233.381626 130.423804 
L 234.770406 130.265788 
L 236.385717 130.248211 
L 238.201037 130.372236 
L 240.186557 130.629764 
L 242.309679 131.003964 
L 244.535543 131.470377 
L 246.827604 131.998509 
L 249.148231 132.553835 
L 251.459322 133.100046 
L 253.722935 133.601433 
L 255.901905 134.025217 
L 257.960455 134.343693 
L 259.864787 134.536047 
L 261.583634 134.58971 
L 263.088772 134.501186 
L 264.355487 134.276275 
L 265.362977 133.929699 
L 266.094696 133.484135 
L 266.538628 132.968734 
z
" style="fill:#0000ff;stroke:#000000;stroke-linejoin:miter;"/>
   </g>
   <g id="patch_6">
    <path clip-path="url(#pf560e90e83)" d="M 254.002227 140.569265 
L 188.770228 140.559263 
L 188.769394 145.995263 
L 254.001394 146.005265 
z
" style="fill:#999999;stroke:#000000;stroke-linejoin:miter;"/>
   </g>
   <g id="text_1">
    <!-- t = 3.3 -->
    <defs>
     <path d="M 18.3125 70.21875 
L 18.3125 54.6875 
L 36.8125 54.6875 
L 36.8125 47.703125 
L 18.3125 47.703125 
L 18.3125 18.015625 
Q 18.3125 11.328125 20.140625 9.421875 
Q 21.96875 7.515625 27.59375 7.515625 
L 36.8125 7.515625 
L 36.8125 0 
L 27.59375 0 
Q 17.1875 0 13.234375 3.875 
Q 9.28125 7.765625 9.28125 18.015625 
L 9.28125 47.703125 
L 2.6875 47.703125 
L 2.6875 54.6875 
L 9.28125 54.6875 
L 9.28125 70.21875 
z
" id="DejaVuSans-116"/>
     <path id="DejaVuSans-32"/>
     <path d="M 10.59375 45.40625 
L 73.1875 45.40625 
L 73.1875 37.203125 
L 10.59375 37.203125 
z
M 10.59375 25.484375 
L 73.1875 25.484375 
L 73.1875 17.1875 
L 10.59375 17.1875 
z
" id="DejaVuSans-61"/>
     <path d="M 40.578125 39.3125 
Q 47.65625 37.796875 51.625 33 
Q 55.609375 28.21875 55.609375 21.1875 
Q 55.609375 10.40625 48.1875 4.484375 
Q 40.765625 -1.421875 27.09375 -1.421875 
Q 22.515625 -1.421875 17.65625 -0.515625 
Q 12.796875 0.390625 7.625 2.203125 
L 7.625 11.71875 
Q 11.71875 9.328125 16.59375 8.109375 
Q 21.484375 6.890625 26.8125 6.890625 
Q 36.078125 6.890625 40.9375 10.546875 
Q 45.796875 14.203125 45.796875 21.1875 
Q 45.796875 27.640625 41.28125 31.265625 
Q 36.765625 34.90625 28.71875 34.90625 
L 20.21875 34.90625 
L 20.21875 43.015625 
L 29.109375 43.015625 
Q 36.375 43.015625 40.234375 45.921875 
Q 44.09375 48.828125 44.09375 54.296875 
Q 44.09375 59.90625 40.109375 62.90625 
Q 36.140625 65.921875 28.71875 65.921875 
Q 24.65625 65.921875 20.015625 65.03125 
Q 15.375 64.15625 9.8125 62.3125 
L 9.8125 71.09375 
Q 15.4375 72.65625 20.34375 73.4375 
Q 25.25 74.21875 29.59375 74.21875 
Q 40.828125 74.21875 47.359375 69.109375 
Q 53.90625 64.015625 53.90625 55.328125 
Q 53.90625 49.265625 50.4375 45.09375 
Q 46.96875 40.921875 40.578125 39.3125 
z
" id="DejaVuSans-51"/>
     <path d="M 10.6875 12.40625 
L 21 12.40625 
L 21 0 
L 10.6875 0 
z
" id="DejaVuSans-46"/>
    </defs>
    <g transform="translate(200.664375 28.56)scale(0.12 -0.12)">
     <use xlink:href="#DejaVuSans-116"/>
     <use x="39.208984" xlink:href="#DejaVuSans-32"/>
     <use x="70.996094" xlink:href="#DejaVuSans-61"/>
     <use x="154.785156" xlink:href="#DejaVuSans-32"/>
     <use x="186.572266" xlink:href="#DejaVuSans-51"/>
     <use x="250.195312" xlink:href="#DejaVuSans-46"/>
     <use x="281.982422" xlink:href="#DejaVuSans-51"/>
    </g>
   </g>
  </g>
 </g>
 <defs>
  <clipPath id="pf560e90e83">
   <rect height="217.44" width="334.8" x="54" y="34.56"/>
  </clipPath>
 </defs>
</svg>
