<?xml version="1.0" encoding="utf-8" standalone="no"?>
<!DOCTYPE svg PUBLIC "-//W3C//DTD SVG 1.1//EN"
  "http://www.w3.org/Graphics/SVG/1.1/DTD/svg11.dtd">
<!-- Created with matplotlib (https://matplotlib.org/) -->
<svg height="288pt" version="1.1" viewBox="0 0 432 288" width="432pt" xmlns="http://www.w3.org/2000/svg" xmlns:xlink="http://www.w3.org/1999/xlink">
 <defs>
  <style type="text/css">
*{stroke-linecap:butt;stroke-linejoin:round;}
  </style>
 </defs>
 <g id="figure_1">
  <g id="patch_1">
   <path d="M 0 288 
L 432 288 
L 432 0 
L 0 0 
z
" style="fill:#ffffff;"/>
  </g>
  <g id="axes_1">
   <g id="patch_2">
    <path clip-path="url(#pe5e7bedc6e)" d="M 194.765412 132.4033 
L 194.763062 143.275299 
L 193.675862 143.275064 
L 193.678212 132.403065 
z
" style="stroke:#000000;stroke-linejoin:miter;"/>
   </g>
   <g id="patch_3">
    <path clip-path="url(#pe5e7bedc6e)" d="M 249.125411 132.415051 
L 249.123061 143.287051 
L 248.035861 143.286816 
L 248.038211 132.414816 
z
" style="stroke:#000000;stroke-linejoin:miter;"/>
   </g>
   <g id="patch_4">
    <path clip-path="url(#pe5e7bedc6e)" d="M 212.341812 132.407099 
L 212.193166 131.855521 
L 211.749425 131.339955 
L 211.01787 130.894121 
L 210.010509 130.547173 
L 208.743877 130.321794 
L 207.238772 130.232713 
L 205.519905 130.285741 
L 203.615502 130.477391 
L 201.556834 130.795107 
L 199.377708 131.218086 
L 197.11391 131.718636 
L 194.802617 132.263994 
L 192.481785 132.818461 
L 190.189529 133.345747 
L 187.963493 133.811337 
L 185.840233 134.184753 
L 183.854617 134.441547 
L 182.039252 134.564901 
L 180.423948 134.546728 
L 179.035226 134.388198 
L 177.895889 134.099667 
L 177.024641 133.699996 
L 176.435784 133.215318 
L 176.138982 132.677329 
L 176.139102 132.121217 
L 176.436137 131.583357 
L 177.025203 131.098933 
L 177.896624 130.699639 
L 179.036086 130.411601 
L 180.424876 130.253672 
L 182.040188 130.236196 
L 183.8555 130.360336 
L 185.841004 130.617988 
L 187.964102 130.992322 
L 190.189937 131.458874 
L 192.481965 131.987151 
L 194.802557 132.542622 
L 197.113614 133.088979 
L 199.377195 133.590508 
L 201.556138 134.014428 
L 203.614668 134.333034 
L 205.518989 134.525508 
L 207.237832 134.579279 
L 208.742976 134.490849 
L 210.009705 134.266018 
L 211.017216 133.919505 
L 211.748964 133.473987 
L 212.192927 132.958614 
z
" style="fill:#0000ff;stroke:#000000;stroke-linejoin:miter;"/>
   </g>
   <g id="patch_5">
    <path clip-path="url(#pe5e7bedc6e)" d="M 266.70181 132.418851 
L 266.553165 131.867272 
L 266.109424 131.351706 
L 265.377869 130.905872 
L 264.370507 130.558924 
L 263.103876 130.333545 
L 261.598771 130.244465 
L 259.879904 130.297493 
L 257.975501 130.489143 
L 255.916833 130.806859 
L 253.737707 131.229837 
L 251.473909 131.730387 
L 249.162615 132.275745 
L 246.841784 132.830213 
L 244.549528 133.357499 
L 242.323491 133.823088 
L 240.200232 134.196504 
L 238.214616 134.453298 
L 236.399251 134.576652 
L 234.783946 134.558479 
L 233.395225 134.399949 
L 232.255888 134.111419 
L 231.38464 133.711747 
L 230.795783 133.227069 
L 230.498981 132.689081 
L 230.499101 132.132968 
L 230.796136 131.595108 
L 231.385202 131.110684 
L 232.256623 130.71139 
L 233.396084 130.423352 
L 234.784874 130.265423 
L 236.400187 130.247948 
L 238.215498 130.372087 
L 240.201003 130.629739 
L 242.324101 131.004073 
L 244.549936 131.470625 
L 246.841963 131.998902 
L 249.162555 132.554373 
L 251.473613 133.10073 
L 253.737194 133.602259 
L 255.916137 134.02618 
L 257.974667 134.344786 
L 259.878987 134.537259 
L 261.597831 134.59103 
L 263.102975 134.5026 
L 264.369703 134.277769 
L 265.377215 133.931256 
L 266.108963 133.485739 
L 266.552926 132.970365 
z
" style="fill:#0000ff;stroke:#000000;stroke-linejoin:miter;"/>
   </g>
   <g id="patch_6">
    <path clip-path="url(#pe5e7bedc6e)" d="M 254.016048 140.570108 
L 188.784049 140.556007 
L 188.782874 145.992007 
L 254.014873 146.006108 
z
" style="fill:#999999;stroke:#000000;stroke-linejoin:miter;"/>
   </g>
   <g id="text_1">
    <!-- t = 3.6 -->
    <defs>
     <path d="M 18.3125 70.21875 
L 18.3125 54.6875 
L 36.8125 54.6875 
L 36.8125 47.703125 
L 18.3125 47.703125 
L 18.3125 18.015625 
Q 18.3125 11.328125 20.140625 9.421875 
Q 21.96875 7.515625 27.59375 7.515625 
L 36.8125 7.515625 
L 36.8125 0 
L 27.59375 0 
Q 17.1875 0 13.234375 3.875 
Q 9.28125 7.765625 9.28125 18.015625 
L 9.28125 47.703125 
L 2.6875 47.703125 
L 2.6875 54.6875 
L 9.28125 54.6875 
L 9.28125 70.21875 
z
" id="DejaVuSans-116"/>
     <path id="DejaVuSans-32"/>
     <path d="M 10.59375 45.40625 
L 73.1875 45.40625 
L 73.1875 37.203125 
L 10.59375 37.203125 
z
M 10.59375 25.484375 
L 73.1875 25.484375 
L 73.1875 17.1875 
L 10.59375 17.1875 
z
" id="DejaVuSans-61"/>
     <path d="M 40.578125 39.3125 
Q 47.65625 37.796875 51.625 33 
Q 55.609375 28.21875 55.609375 21.1875 
Q 55.609375 10.40625 48.1875 4.484375 
Q 40.765625 -1.421875 27.09375 -1.421875 
Q 22.515625 -1.421875 17.65625 -0.515625 
Q 12.796875 0.390625 7.625 2.203125 
L 7.625 11.71875 
Q 11.71875 9.328125 16.59375 8.109375 
Q 21.484375 6.890625 26.8125 6.890625 
Q 36.078125 6.890625 40.9375 10.546875 
Q 45.796875 14.203125 45.796875 21.1875 
Q 45.796875 27.640625 41.28125 31.265625 
Q 36.765625 34.90625 28.71875 34.90625 
L 20.21875 34.90625 
L 20.21875 43.015625 
L 29.109375 43.015625 
Q 36.375 43.015625 40.234375 45.921875 
Q 44.09375 48.828125 44.09375 54.296875 
Q 44.09375 59.90625 40.109375 62.90625 
Q 36.140625 65.921875 28.71875 65.921875 
Q 24.65625 65.921875 20.015625 65.03125 
Q 15.375 64.15625 9.8125 62.3125 
L 9.8125 71.09375 
Q 15.4375 72.65625 20.34375 73.4375 
Q 25.25 74.21875 29.59375 74.21875 
Q 40.828125 74.21875 47.359375 69.109375 
Q 53.90625 64.015625 53.90625 55.328125 
Q 53.90625 49.265625 50.4375 45.09375 
Q 46.96875 40.921875 40.578125 39.3125 
z
" id="DejaVuSans-51"/>
     <path d="M 10.6875 12.40625 
L 21 12.40625 
L 21 0 
L 10.6875 0 
z
" id="DejaVuSans-46"/>
     <path d="M 33.015625 40.375 
Q 26.375 40.375 22.484375 35.828125 
Q 18.609375 31.296875 18.609375 23.390625 
Q 18.609375 15.53125 22.484375 10.953125 
Q 26.375 6.390625 33.015625 6.390625 
Q 39.65625 6.390625 43.53125 10.953125 
Q 47.40625 15.53125 47.40625 23.390625 
Q 47.40625 31.296875 43.53125 35.828125 
Q 39.65625 40.375 33.015625 40.375 
z
M 52.59375 71.296875 
L 52.59375 62.3125 
Q 48.875 64.0625 45.09375 64.984375 
Q 41.3125 65.921875 37.59375 65.921875 
Q 27.828125 65.921875 22.671875 59.328125 
Q 17.53125 52.734375 16.796875 39.40625 
Q 19.671875 43.65625 24.015625 45.921875 
Q 28.375 48.1875 33.59375 48.1875 
Q 44.578125 48.1875 50.953125 41.515625 
Q 57.328125 34.859375 57.328125 23.390625 
Q 57.328125 12.15625 50.6875 5.359375 
Q 44.046875 -1.421875 33.015625 -1.421875 
Q 20.359375 -1.421875 13.671875 8.265625 
Q 6.984375 17.96875 6.984375 36.375 
Q 6.984375 53.65625 15.1875 63.9375 
Q 23.390625 74.21875 37.203125 74.21875 
Q 40.921875 74.21875 44.703125 73.484375 
Q 48.484375 72.75 52.59375 71.296875 
z
" id="DejaVuSans-54"/>
    </defs>
    <g transform="translate(200.664375 28.56)scale(0.12 -0.12)">
     <use xlink:href="#DejaVuSans-116"/>
     <use x="39.208984" xlink:href="#DejaVuSans-32"/>
     <use x="70.996094" xlink:href="#DejaVuSans-61"/>
     <use x="154.785156" xlink:href="#DejaVuSans-32"/>
     <use x="186.572266" xlink:href="#DejaVuSans-51"/>
     <use x="250.195312" xlink:href="#DejaVuSans-46"/>
     <use x="281.982422" xlink:href="#DejaVuSans-54"/>
    </g>
   </g>
  </g>
 </g>
 <defs>
  <clipPath id="pe5e7bedc6e">
   <rect height="217.44" width="334.8" x="54" y="34.56"/>
  </clipPath>
 </defs>
</svg>
