<?xml version="1.0" encoding="utf-8" standalone="no"?>
<!DOCTYPE svg PUBLIC "-//W3C//DTD SVG 1.1//EN"
  "http://www.w3.org/Graphics/SVG/1.1/DTD/svg11.dtd">
<!-- Created with matplotlib (https://matplotlib.org/) -->
<svg height="288pt" version="1.1" viewBox="0 0 432 288" width="432pt" xmlns="http://www.w3.org/2000/svg" xmlns:xlink="http://www.w3.org/1999/xlink">
 <defs>
  <style type="text/css">
*{stroke-linecap:butt;stroke-linejoin:round;}
  </style>
 </defs>
 <g id="figure_1">
  <g id="patch_1">
   <path d="M 0 288 
L 432 288 
L 432 0 
L 0 0 
z
" style="fill:#ffffff;"/>
  </g>
  <g id="axes_1">
   <g id="patch_2">
    <path clip-path="url(#pb754f1f865)" d="M 193.103496 136.037741 
L 191.971552 146.850654 
L 190.89026 146.737459 
L 192.022205 135.924547 
z
" style="stroke:#000000;stroke-linejoin:miter;"/>
   </g>
   <g id="patch_3">
    <path clip-path="url(#pb754f1f865)" d="M 247.168061 141.697464 
L 246.036116 152.510377 
L 244.954825 152.397183 
L 246.08677 141.58427 
z
" style="stroke:#000000;stroke-linejoin:miter;"/>
   </g>
   <g id="patch_4">
    <path clip-path="url(#pb754f1f865)" d="M 210.584372 137.867718 
L 210.49384 137.30368 
L 210.106069 136.7448 
L 209.424796 136.22537 
L 208.458934 135.775634 
L 207.222575 135.419872 
L 205.734872 135.174892 
L 204.019798 135.049042 
L 202.10579 135.041786 
L 200.025253 135.143885 
L 197.813974 135.338162 
L 195.510421 135.600793 
L 193.154974 135.903054 
L 190.789094 136.213385 
L 188.454458 136.499651 
L 186.192095 136.731434 
L 184.041529 136.882221 
L 182.039979 136.931319 
L 180.221623 136.865388 
L 178.616949 136.679481 
L 177.252215 136.377521 
L 176.149023 135.972174 
L 175.324017 135.484143 
L 174.788705 134.940905 
L 174.549406 134.37499 
L 174.607306 133.821901 
L 174.958618 133.317813 
L 175.594828 132.897216 
L 176.503019 132.590624 
L 177.666241 132.422535 
L 179.063923 132.409757 
L 180.672309 132.560209 
L 182.464897 132.872288 
L 184.412885 133.334841 
L 186.485599 133.927739 
L 188.650911 134.623032 
L 190.875646 135.386593 
L 193.125964 136.180169 
L 195.367747 136.963688 
L 197.566968 137.69769 
L 199.690072 138.34571 
L 201.704357 138.876474 
L 203.578373 139.265766 
L 205.282326 139.497835 
L 206.788512 139.566269 
L 208.071745 139.474268 
L 209.109806 139.234312 
L 209.883883 138.867235 
L 210.378991 138.400778 
z
" style="fill:#0000ff;stroke:#000000;stroke-linejoin:miter;"/>
   </g>
   <g id="patch_5">
    <path clip-path="url(#pb754f1f865)" d="M 264.648937 143.527441 
L 264.558405 142.963404 
L 264.170633 142.404523 
L 263.48936 141.885093 
L 262.523499 141.435358 
L 261.28714 141.079595 
L 259.799436 140.834615 
L 258.084363 140.708765 
L 256.170354 140.701509 
L 254.089818 140.803608 
L 251.878538 140.997885 
L 249.574985 141.260516 
L 247.219538 141.562777 
L 244.853658 141.873109 
L 242.519023 142.159374 
L 240.25666 142.391157 
L 238.106094 142.541944 
L 236.104544 142.591042 
L 234.286187 142.525111 
L 232.681513 142.339205 
L 231.31678 142.037244 
L 230.213587 141.631897 
L 229.388581 141.143866 
L 228.853269 140.600628 
L 228.613971 140.034714 
L 228.671871 139.481624 
L 229.023182 138.977537 
L 229.659392 138.556939 
L 230.567583 138.250347 
L 231.730805 138.082259 
L 233.128488 138.06948 
L 234.736873 138.219932 
L 236.529461 138.532011 
L 238.477449 138.994564 
L 240.550163 139.587463 
L 242.715476 140.282755 
L 244.94021 141.046316 
L 247.190529 141.839892 
L 249.432311 142.623412 
L 251.631532 143.357414 
L 253.754636 144.005433 
L 255.768922 144.536197 
L 257.642937 144.925489 
L 259.346891 145.157558 
L 260.853076 145.225992 
L 262.136309 145.133991 
L 263.174371 144.894035 
L 263.948447 144.526958 
L 264.443556 144.060502 
z
" style="fill:#0000ff;stroke:#000000;stroke-linejoin:miter;"/>
   </g>
   <g id="patch_6">
    <path clip-path="url(#pb754f1f865)" d="M 251.184913 150.316524 
L 186.307436 143.524856 
L 185.741463 148.931313 
L 250.618941 155.72298 
z
" style="fill:#999999;stroke:#000000;stroke-linejoin:miter;"/>
   </g>
   <g id="text_1">
    <!-- t = 1.1 -->
    <defs>
     <path d="M 18.3125 70.21875 
L 18.3125 54.6875 
L 36.8125 54.6875 
L 36.8125 47.703125 
L 18.3125 47.703125 
L 18.3125 18.015625 
Q 18.3125 11.328125 20.140625 9.421875 
Q 21.96875 7.515625 27.59375 7.515625 
L 36.8125 7.515625 
L 36.8125 0 
L 27.59375 0 
Q 17.1875 0 13.234375 3.875 
Q 9.28125 7.765625 9.28125 18.015625 
L 9.28125 47.703125 
L 2.6875 47.703125 
L 2.6875 54.6875 
L 9.28125 54.6875 
L 9.28125 70.21875 
z
" id="DejaVuSans-116"/>
     <path id="DejaVuSans-32"/>
     <path d="M 10.59375 45.40625 
L 73.1875 45.40625 
L 73.1875 37.203125 
L 10.59375 37.203125 
z
M 10.59375 25.484375 
L 73.1875 25.484375 
L 73.1875 17.1875 
L 10.59375 17.1875 
z
" id="DejaVuSans-61"/>
     <path d="M 12.40625 8.296875 
L 28.515625 8.296875 
L 28.515625 63.921875 
L 10.984375 60.40625 
L 10.984375 69.390625 
L 28.421875 72.90625 
L 38.28125 72.90625 
L 38.28125 8.296875 
L 54.390625 8.296875 
L 54.390625 0 
L 12.40625 0 
z
" id="DejaVuSans-49"/>
     <path d="M 10.6875 12.40625 
L 21 12.40625 
L 21 0 
L 10.6875 0 
z
" id="DejaVuSans-46"/>
    </defs>
    <g transform="translate(200.664375 28.56)scale(0.12 -0.12)">
     <use xlink:href="#DejaVuSans-116"/>
     <use x="39.208984" xlink:href="#DejaVuSans-32"/>
     <use x="70.996094" xlink:href="#DejaVuSans-61"/>
     <use x="154.785156" xlink:href="#DejaVuSans-32"/>
     <use x="186.572266" xlink:href="#DejaVuSans-49"/>
     <use x="250.195312" xlink:href="#DejaVuSans-46"/>
     <use x="281.982422" xlink:href="#DejaVuSans-49"/>
    </g>
   </g>
  </g>
 </g>
 <defs>
  <clipPath id="pb754f1f865">
   <rect height="217.44" width="334.8" x="54" y="34.56"/>
  </clipPath>
 </defs>
</svg>
