<?xml version="1.0" encoding="utf-8" standalone="no"?>
<!DOCTYPE svg PUBLIC "-//W3C//DTD SVG 1.1//EN"
  "http://www.w3.org/Graphics/SVG/1.1/DTD/svg11.dtd">
<!-- Created with matplotlib (https://matplotlib.org/) -->
<svg height="288pt" version="1.1" viewBox="0 0 432 288" width="432pt" xmlns="http://www.w3.org/2000/svg" xmlns:xlink="http://www.w3.org/1999/xlink">
 <defs>
  <style type="text/css">
*{stroke-linecap:butt;stroke-linejoin:round;}
  </style>
 </defs>
 <g id="figure_1">
  <g id="patch_1">
   <path d="M 0 288 
L 432 288 
L 432 0 
L 0 0 
z
" style="fill:#ffffff;"/>
  </g>
  <g id="axes_1">
   <g id="patch_2">
    <path clip-path="url(#pa6c5c375d0)" d="M 249.079695 184.422062 
L 246.451993 194.971733 
L 245.397026 194.708963 
L 248.024727 184.159292 
z
" style="stroke:#000000;stroke-linejoin:miter;"/>
   </g>
   <g id="patch_3">
    <path clip-path="url(#pa6c5c375d0)" d="M 301.828052 197.560569 
L 299.200351 208.11024 
L 298.145383 207.84747 
L 300.773085 197.297799 
z
" style="stroke:#000000;stroke-linejoin:miter;"/>
   </g>
   <g id="patch_4">
    <path clip-path="url(#pa6c5c375d0)" d="M 266.134997 188.670179 
L 266.123948 188.099029 
L 265.817841 187.491565 
L 265.215599 186.882266 
L 264.321833 186.302324 
L 263.147114 185.777743 
L 261.708064 185.327839 
L 260.027262 184.964218 
L 258.13294 184.690312 
L 256.058476 184.501488 
L 253.841699 184.385723 
L 251.524024 184.324787 
L 249.149438 184.295863 
L 246.763397 184.273476 
L 244.41165 184.231612 
L 242.139061 184.145869 
L 239.988466 183.995499 
L 237.999603 183.765197 
L 236.208177 183.446518 
L 234.645066 183.038811 
L 233.335727 182.549618 
L 232.299784 181.994494 
L 231.550836 181.396259 
L 231.096449 180.783725 
L 230.938346 180.189985 
L 231.072755 179.65036 
L 231.490884 179.200147 
L 232.179498 178.872311 
L 233.121552 178.695268 
L 234.296848 178.690917 
L 235.682674 178.873033 
L 237.2544 179.246149 
L 238.986009 179.804984 
L 240.850533 180.534479 
L 242.820401 181.41043 
L 244.867696 182.400679 
L 246.96432 183.466811 
L 249.082095 184.566231 
L 251.19282 185.654502 
L 253.268298 186.687809 
L 255.280384 187.625364 
L 257.201053 188.431644 
L 259.002535 189.078286 
L 260.657523 189.54554 
L 262.139476 189.823196 
L 263.423009 189.910914 
L 264.484381 189.817955 
L 265.302058 189.562329 
L 265.857337 189.169418 
z
" style="fill:#0000ff;stroke:#000000;stroke-linejoin:miter;"/>
   </g>
   <g id="patch_5">
    <path clip-path="url(#pa6c5c375d0)" d="M 318.883354 201.808686 
L 318.872306 201.237536 
L 318.566199 200.630072 
L 317.963957 200.020774 
L 317.070191 199.440831 
L 315.895471 198.916251 
L 314.456422 198.466346 
L 312.77562 198.102725 
L 310.881298 197.828819 
L 308.806833 197.639996 
L 306.590057 197.52423 
L 304.272381 197.463294 
L 301.897796 197.43437 
L 299.511755 197.411983 
L 297.160007 197.370119 
L 294.887419 197.284376 
L 292.736823 197.134006 
L 290.747961 196.903704 
L 288.956534 196.585025 
L 287.393423 196.177318 
L 286.084084 195.688126 
L 285.048142 195.133002 
L 284.299193 194.534766 
L 283.844806 193.922232 
L 283.686704 193.328492 
L 283.821113 192.788867 
L 284.239242 192.338654 
L 284.927856 192.010818 
L 285.86991 191.833775 
L 287.045206 191.829424 
L 288.431031 192.011541 
L 290.002758 192.384656 
L 291.734367 192.943491 
L 293.59889 193.672987 
L 295.568759 194.548937 
L 297.616054 195.539187 
L 299.712678 196.605319 
L 301.830453 197.704738 
L 303.941177 198.79301 
L 306.016656 199.826316 
L 308.028741 200.763871 
L 309.94941 201.570152 
L 311.750892 202.216793 
L 313.405881 202.684047 
L 314.887834 202.961703 
L 316.171367 203.049421 
L 317.232738 202.956463 
L 318.050415 202.700836 
L 318.605694 202.307925 
z
" style="fill:#0000ff;stroke:#000000;stroke-linejoin:miter;"/>
   </g>
   <g id="patch_6">
    <path clip-path="url(#pa6c5c375d0)" d="M 304.604628 206.655288 
L 241.306599 190.88908 
L 239.992748 196.163915 
L 303.290777 211.930124 
z
" style="fill:#999999;stroke:#000000;stroke-linejoin:miter;"/>
   </g>
   <g id="text_1">
    <!-- t = 0.4 -->
    <defs>
     <path d="M 18.3125 70.21875 
L 18.3125 54.6875 
L 36.8125 54.6875 
L 36.8125 47.703125 
L 18.3125 47.703125 
L 18.3125 18.015625 
Q 18.3125 11.328125 20.140625 9.421875 
Q 21.96875 7.515625 27.59375 7.515625 
L 36.8125 7.515625 
L 36.8125 0 
L 27.59375 0 
Q 17.1875 0 13.234375 3.875 
Q 9.28125 7.765625 9.28125 18.015625 
L 9.28125 47.703125 
L 2.6875 47.703125 
L 2.6875 54.6875 
L 9.28125 54.6875 
L 9.28125 70.21875 
z
" id="DejaVuSans-116"/>
     <path id="DejaVuSans-32"/>
     <path d="M 10.59375 45.40625 
L 73.1875 45.40625 
L 73.1875 37.203125 
L 10.59375 37.203125 
z
M 10.59375 25.484375 
L 73.1875 25.484375 
L 73.1875 17.1875 
L 10.59375 17.1875 
z
" id="DejaVuSans-61"/>
     <path d="M 31.78125 66.40625 
Q 24.171875 66.40625 20.328125 58.90625 
Q 16.5 51.421875 16.5 36.375 
Q 16.5 21.390625 20.328125 13.890625 
Q 24.171875 6.390625 31.78125 6.390625 
Q 39.453125 6.390625 43.28125 13.890625 
Q 47.125 21.390625 47.125 36.375 
Q 47.125 51.421875 43.28125 58.90625 
Q 39.453125 66.40625 31.78125 66.40625 
z
M 31.78125 74.21875 
Q 44.046875 74.21875 50.515625 64.515625 
Q 56.984375 54.828125 56.984375 36.375 
Q 56.984375 17.96875 50.515625 8.265625 
Q 44.046875 -1.421875 31.78125 -1.421875 
Q 19.53125 -1.421875 13.0625 8.265625 
Q 6.59375 17.96875 6.59375 36.375 
Q 6.59375 54.828125 13.0625 64.515625 
Q 19.53125 74.21875 31.78125 74.21875 
z
" id="DejaVuSans-48"/>
     <path d="M 10.6875 12.40625 
L 21 12.40625 
L 21 0 
L 10.6875 0 
z
" id="DejaVuSans-46"/>
     <path d="M 37.796875 64.3125 
L 12.890625 25.390625 
L 37.796875 25.390625 
z
M 35.203125 72.90625 
L 47.609375 72.90625 
L 47.609375 25.390625 
L 58.015625 25.390625 
L 58.015625 17.1875 
L 47.609375 17.1875 
L 47.609375 0 
L 37.796875 0 
L 37.796875 17.1875 
L 4.890625 17.1875 
L 4.890625 26.703125 
z
" id="DejaVuSans-52"/>
    </defs>
    <g transform="translate(200.664375 28.56)scale(0.12 -0.12)">
     <use xlink:href="#DejaVuSans-116"/>
     <use x="39.208984" xlink:href="#DejaVuSans-32"/>
     <use x="70.996094" xlink:href="#DejaVuSans-61"/>
     <use x="154.785156" xlink:href="#DejaVuSans-32"/>
     <use x="186.572266" xlink:href="#DejaVuSans-48"/>
     <use x="250.195312" xlink:href="#DejaVuSans-46"/>
     <use x="281.982422" xlink:href="#DejaVuSans-52"/>
    </g>
   </g>
  </g>
 </g>
 <defs>
  <clipPath id="pa6c5c375d0">
   <rect height="217.44" width="334.8" x="54" y="34.56"/>
  </clipPath>
 </defs>
</svg>
