<?xml version="1.0" encoding="utf-8" standalone="no"?>
<!DOCTYPE svg PUBLIC "-//W3C//DTD SVG 1.1//EN"
  "http://www.w3.org/Graphics/SVG/1.1/DTD/svg11.dtd">
<!-- Created with matplotlib (https://matplotlib.org/) -->
<svg height="288pt" version="1.1" viewBox="0 0 432 288" width="432pt" xmlns="http://www.w3.org/2000/svg" xmlns:xlink="http://www.w3.org/1999/xlink">
 <defs>
  <style type="text/css">
*{stroke-linecap:butt;stroke-linejoin:round;}
  </style>
 </defs>
 <g id="figure_1">
  <g id="patch_1">
   <path d="M 0 288 
L 432 288 
L 432 0 
L 0 0 
z
" style="fill:#ffffff;"/>
  </g>
  <g id="axes_1">
   <g id="patch_2">
    <path clip-path="url(#pae2efabad9)" d="M 197.370328 132.909335 
L 197.303526 143.78113 
L 196.216346 143.77445 
L 196.283148 132.902655 
z
" style="stroke:#000000;stroke-linejoin:miter;"/>
   </g>
   <g id="patch_3">
    <path clip-path="url(#pae2efabad9)" d="M 251.729302 133.243344 
L 251.6625 144.115139 
L 250.57532 144.108458 
L 250.642122 133.236664 
z
" style="stroke:#000000;stroke-linejoin:miter;"/>
   </g>
   <g id="patch_4">
    <path clip-path="url(#pae2efabad9)" d="M 214.946396 133.017331 
L 214.801023 132.464881 
L 214.360346 131.946694 
L 213.631447 131.496531 
L 212.62616 131.143617 
L 211.360887 130.910733 
L 209.856336 130.812731 
L 208.137185 130.855569 
L 206.231679 131.035926 
L 204.171164 131.341432 
L 201.989569 131.751484 
L 199.722843 132.238606 
L 197.408358 132.770252 
L 195.08428 133.310952 
L 192.788938 133.824639 
L 190.560181 134.277024 
L 188.434745 134.637846 
L 186.447641 134.882865 
L 184.631577 134.995455 
L 183.016409 134.967706 
L 181.628651 134.800947 
L 180.491045 134.505667 
L 179.622181 134.100838 
L 179.036208 133.612677 
L 178.7426 133.072938 
L 178.746017 132.516836 
L 179.046235 131.980747 
L 179.638163 131.499824 
L 180.511936 131.105702 
L 181.653085 130.824424 
L 183.042787 130.674731 
L 184.658174 130.666832 
L 186.472718 130.80173 
L 188.45666 131.071149 
L 190.577502 131.458062 
L 192.800532 131.937801 
L 195.089387 132.479657 
L 197.406646 133.048875 
L 199.714423 133.608923 
L 201.974992 134.123862 
L 204.151383 134.560692 
L 206.207989 134.891496 
L 208.111134 135.095255 
L 209.829629 135.159215 
L 211.33527 135.079709 
L 212.60331 134.862392 
L 213.612858 134.521858 
L 214.347234 134.080686 
L 214.794245 133.567953 
z
" style="fill:#0000ff;stroke:#000000;stroke-linejoin:miter;"/>
   </g>
   <g id="patch_5">
    <path clip-path="url(#pae2efabad9)" d="M 269.30537 133.35134 
L 269.159997 132.79889 
L 268.71932 132.280703 
L 267.990421 131.83054 
L 266.985134 131.477626 
L 265.719861 131.244742 
L 264.21531 131.14674 
L 262.496159 131.189578 
L 260.590653 131.369934 
L 258.530138 131.675441 
L 256.348543 132.085493 
L 254.081817 132.572615 
L 251.767331 133.104261 
L 249.443253 133.64496 
L 247.147912 134.158648 
L 244.919155 134.611033 
L 242.793718 134.971855 
L 240.806615 135.216874 
L 238.990551 135.329464 
L 237.375382 135.301715 
L 235.987625 135.134955 
L 234.850019 134.839675 
L 233.981155 134.434846 
L 233.395182 133.946686 
L 233.101574 133.406947 
L 233.104991 132.850845 
L 233.405209 132.314755 
L 233.997137 131.833832 
L 234.87091 131.439711 
L 236.012059 131.158433 
L 237.401761 131.00874 
L 239.017148 131.000841 
L 240.831692 131.135739 
L 242.815634 131.405158 
L 244.936476 131.792071 
L 247.159505 132.27181 
L 249.448361 132.813665 
L 251.765619 133.382884 
L 254.073397 133.942931 
L 256.333966 134.457871 
L 258.510357 134.894701 
L 260.566963 135.225505 
L 262.470108 135.429264 
L 264.188603 135.493224 
L 265.694244 135.413718 
L 266.962284 135.1964 
L 267.971832 134.855867 
L 268.706208 134.414695 
L 269.153219 133.901962 
z
" style="fill:#0000ff;stroke:#000000;stroke-linejoin:miter;"/>
   </g>
   <g id="patch_6">
    <path clip-path="url(#pae2efabad9)" d="M 256.571508 141.427251 
L 191.340739 141.02644 
L 191.307338 146.462337 
L 256.538107 146.863148 
z
" style="fill:#999999;stroke:#000000;stroke-linejoin:miter;"/>
   </g>
   <g id="text_1">
    <!-- t = 1.8 -->
    <defs>
     <path d="M 18.3125 70.21875 
L 18.3125 54.6875 
L 36.8125 54.6875 
L 36.8125 47.703125 
L 18.3125 47.703125 
L 18.3125 18.015625 
Q 18.3125 11.328125 20.140625 9.421875 
Q 21.96875 7.515625 27.59375 7.515625 
L 36.8125 7.515625 
L 36.8125 0 
L 27.59375 0 
Q 17.1875 0 13.234375 3.875 
Q 9.28125 7.765625 9.28125 18.015625 
L 9.28125 47.703125 
L 2.6875 47.703125 
L 2.6875 54.6875 
L 9.28125 54.6875 
L 9.28125 70.21875 
z
" id="DejaVuSans-116"/>
     <path id="DejaVuSans-32"/>
     <path d="M 10.59375 45.40625 
L 73.1875 45.40625 
L 73.1875 37.203125 
L 10.59375 37.203125 
z
M 10.59375 25.484375 
L 73.1875 25.484375 
L 73.1875 17.1875 
L 10.59375 17.1875 
z
" id="DejaVuSans-61"/>
     <path d="M 12.40625 8.296875 
L 28.515625 8.296875 
L 28.515625 63.921875 
L 10.984375 60.40625 
L 10.984375 69.390625 
L 28.421875 72.90625 
L 38.28125 72.90625 
L 38.28125 8.296875 
L 54.390625 8.296875 
L 54.390625 0 
L 12.40625 0 
z
" id="DejaVuSans-49"/>
     <path d="M 10.6875 12.40625 
L 21 12.40625 
L 21 0 
L 10.6875 0 
z
" id="DejaVuSans-46"/>
     <path d="M 31.78125 34.625 
Q 24.75 34.625 20.71875 30.859375 
Q 16.703125 27.09375 16.703125 20.515625 
Q 16.703125 13.921875 20.71875 10.15625 
Q 24.75 6.390625 31.78125 6.390625 
Q 38.8125 6.390625 42.859375 10.171875 
Q 46.921875 13.96875 46.921875 20.515625 
Q 46.921875 27.09375 42.890625 30.859375 
Q 38.875 34.625 31.78125 34.625 
z
M 21.921875 38.8125 
Q 15.578125 40.375 12.03125 44.71875 
Q 8.5 49.078125 8.5 55.328125 
Q 8.5 64.0625 14.71875 69.140625 
Q 20.953125 74.21875 31.78125 74.21875 
Q 42.671875 74.21875 48.875 69.140625 
Q 55.078125 64.0625 55.078125 55.328125 
Q 55.078125 49.078125 51.53125 44.71875 
Q 48 40.375 41.703125 38.8125 
Q 48.828125 37.15625 52.796875 32.3125 
Q 56.78125 27.484375 56.78125 20.515625 
Q 56.78125 9.90625 50.3125 4.234375 
Q 43.84375 -1.421875 31.78125 -1.421875 
Q 19.734375 -1.421875 13.25 4.234375 
Q 6.78125 9.90625 6.78125 20.515625 
Q 6.78125 27.484375 10.78125 32.3125 
Q 14.796875 37.15625 21.921875 38.8125 
z
M 18.3125 54.390625 
Q 18.3125 48.734375 21.84375 45.5625 
Q 25.390625 42.390625 31.78125 42.390625 
Q 38.140625 42.390625 41.71875 45.5625 
Q 45.3125 48.734375 45.3125 54.390625 
Q 45.3125 60.0625 41.71875 63.234375 
Q 38.140625 66.40625 31.78125 66.40625 
Q 25.390625 66.40625 21.84375 63.234375 
Q 18.3125 60.0625 18.3125 54.390625 
z
" id="DejaVuSans-56"/>
    </defs>
    <g transform="translate(200.664375 28.56)scale(0.12 -0.12)">
     <use xlink:href="#DejaVuSans-116"/>
     <use x="39.208984" xlink:href="#DejaVuSans-32"/>
     <use x="70.996094" xlink:href="#DejaVuSans-61"/>
     <use x="154.785156" xlink:href="#DejaVuSans-32"/>
     <use x="186.572266" xlink:href="#DejaVuSans-49"/>
     <use x="250.195312" xlink:href="#DejaVuSans-46"/>
     <use x="281.982422" xlink:href="#DejaVuSans-56"/>
    </g>
   </g>
  </g>
 </g>
 <defs>
  <clipPath id="pae2efabad9">
   <rect height="217.44" width="334.8" x="54" y="34.56"/>
  </clipPath>
 </defs>
</svg>
