<?xml version="1.0" encoding="utf-8" standalone="no"?>
<!DOCTYPE svg PUBLIC "-//W3C//DTD SVG 1.1//EN"
  "http://www.w3.org/Graphics/SVG/1.1/DTD/svg11.dtd">
<!-- Created with matplotlib (https://matplotlib.org/) -->
<svg height="288pt" version="1.1" viewBox="0 0 432 288" width="432pt" xmlns="http://www.w3.org/2000/svg" xmlns:xlink="http://www.w3.org/1999/xlink">
 <defs>
  <style type="text/css">
*{stroke-linecap:butt;stroke-linejoin:round;}
  </style>
 </defs>
 <g id="figure_1">
  <g id="patch_1">
   <path d="M 0 288 
L 432 288 
L 432 0 
L 0 0 
z
" style="fill:#ffffff;"/>
  </g>
  <g id="axes_1">
   <g id="patch_2">
    <path clip-path="url(#pe2f5f3551b)" d="M 194.563695 132.469597 
L 194.576992 143.341589 
L 193.489793 143.342918 
L 193.476496 132.470926 
z
" style="stroke:#000000;stroke-linejoin:miter;"/>
   </g>
   <g id="patch_3">
    <path clip-path="url(#pe2f5f3551b)" d="M 248.923655 132.403114 
L 248.936951 143.275106 
L 247.849752 143.276435 
L 247.836456 132.404443 
z
" style="stroke:#000000;stroke-linejoin:miter;"/>
   </g>
   <g id="patch_4">
    <path clip-path="url(#pe2f5f3551b)" d="M 212.140082 132.448101 
L 211.990643 131.896736 
L 211.546161 131.38181 
L 210.813965 130.937029 
L 209.806105 130.591531 
L 208.53915 130.367976 
L 207.033918 130.281061 
L 205.31513 130.336563 
L 203.411004 130.530953 
L 201.352796 130.851632 
L 199.174281 131.277746 
L 196.911206 131.781554 
L 194.6007 132.330237 
L 192.280668 132.888045 
L 189.989173 133.418629 
L 187.76381 133.887422 
L 185.641089 134.263893 
L 183.655845 134.523544 
L 181.84066 134.649511 
L 180.225331 134.633662 
L 178.836382 134.477132 
L 177.696631 134.190241 
L 176.824809 133.791824 
L 176.235255 133.307994 
L 175.937679 132.770433 
L 175.936999 132.214321 
L 176.233259 131.676034 
L 176.821628 131.190763 
L 177.692473 130.790215 
L 178.831519 130.500537 
L 180.22008 130.34061 
L 181.835366 130.32081 
L 183.650854 130.442336 
L 185.636727 130.697131 
L 187.760362 131.068408 
L 189.986866 131.531757 
L 192.279652 132.056735 
L 194.60104 132.608865 
L 196.912882 133.151895 
L 199.177183 133.650166 
L 201.356733 134.07095 
L 203.41572 134.386594 
L 205.320315 134.576326 
L 207.039234 134.627623 
L 208.544249 134.537027 
L 209.810653 134.310373 
L 210.817665 133.962411 
L 211.548771 133.515841 
L 211.991992 132.999829 
z
" style="fill:#0000ff;stroke:#000000;stroke-linejoin:miter;"/>
   </g>
   <g id="patch_5">
    <path clip-path="url(#pe2f5f3551b)" d="M 266.500042 132.381618 
L 266.350602 131.830253 
L 265.90612 131.315327 
L 265.173924 130.870546 
L 264.166064 130.525048 
L 262.89911 130.301493 
L 261.393878 130.214578 
L 259.675089 130.27008 
L 257.770964 130.46447 
L 255.712755 130.785149 
L 253.53424 131.211263 
L 251.271165 131.715071 
L 248.960659 132.263754 
L 246.640628 132.821562 
L 244.349133 133.352146 
L 242.123769 133.820939 
L 240.001049 134.19741 
L 238.015805 134.457061 
L 236.200619 134.583028 
L 234.58529 134.567179 
L 233.196342 134.410649 
L 232.056591 134.123758 
L 231.184768 133.725341 
L 230.595214 133.241511 
L 230.297638 132.70395 
L 230.296958 132.147838 
L 230.593219 131.609551 
L 231.181587 131.12428 
L 232.052432 130.723732 
L 233.191478 130.434054 
L 234.580039 130.274127 
L 236.195325 130.254327 
L 238.010813 130.375853 
L 239.996687 130.630648 
L 242.120321 131.001925 
L 244.346825 131.465274 
L 246.639611 131.990252 
L 248.961 132.542382 
L 251.272841 133.085412 
L 253.537142 133.583683 
L 255.716692 134.004467 
L 257.775679 134.320111 
L 259.680275 134.509843 
L 261.399194 134.56114 
L 262.904209 134.470544 
L 264.170612 134.24389 
L 265.177624 133.895928 
L 265.90873 133.449358 
L 266.351951 132.933346 
z
" style="fill:#0000ff;stroke:#000000;stroke-linejoin:miter;"/>
   </g>
   <g id="patch_6">
    <path clip-path="url(#pe2f5f3551b)" d="M 253.826024 140.551124 
L 188.594072 140.630904 
L 188.600721 146.0669 
L 253.832672 145.98712 
z
" style="fill:#999999;stroke:#000000;stroke-linejoin:miter;"/>
   </g>
   <g id="text_1">
    <!-- t = 2.7 -->
    <defs>
     <path d="M 18.3125 70.21875 
L 18.3125 54.6875 
L 36.8125 54.6875 
L 36.8125 47.703125 
L 18.3125 47.703125 
L 18.3125 18.015625 
Q 18.3125 11.328125 20.140625 9.421875 
Q 21.96875 7.515625 27.59375 7.515625 
L 36.8125 7.515625 
L 36.8125 0 
L 27.59375 0 
Q 17.1875 0 13.234375 3.875 
Q 9.28125 7.765625 9.28125 18.015625 
L 9.28125 47.703125 
L 2.6875 47.703125 
L 2.6875 54.6875 
L 9.28125 54.6875 
L 9.28125 70.21875 
z
" id="DejaVuSans-116"/>
     <path id="DejaVuSans-32"/>
     <path d="M 10.59375 45.40625 
L 73.1875 45.40625 
L 73.1875 37.203125 
L 10.59375 37.203125 
z
M 10.59375 25.484375 
L 73.1875 25.484375 
L 73.1875 17.1875 
L 10.59375 17.1875 
z
" id="DejaVuSans-61"/>
     <path d="M 19.1875 8.296875 
L 53.609375 8.296875 
L 53.609375 0 
L 7.328125 0 
L 7.328125 8.296875 
Q 12.9375 14.109375 22.625 23.890625 
Q 32.328125 33.6875 34.8125 36.53125 
Q 39.546875 41.84375 41.421875 45.53125 
Q 43.3125 49.21875 43.3125 52.78125 
Q 43.3125 58.59375 39.234375 62.25 
Q 35.15625 65.921875 28.609375 65.921875 
Q 23.96875 65.921875 18.8125 64.3125 
Q 13.671875 62.703125 7.8125 59.421875 
L 7.8125 69.390625 
Q 13.765625 71.78125 18.9375 73 
Q 24.125 74.21875 28.421875 74.21875 
Q 39.75 74.21875 46.484375 68.546875 
Q 53.21875 62.890625 53.21875 53.421875 
Q 53.21875 48.921875 51.53125 44.890625 
Q 49.859375 40.875 45.40625 35.40625 
Q 44.1875 33.984375 37.640625 27.21875 
Q 31.109375 20.453125 19.1875 8.296875 
z
" id="DejaVuSans-50"/>
     <path d="M 10.6875 12.40625 
L 21 12.40625 
L 21 0 
L 10.6875 0 
z
" id="DejaVuSans-46"/>
     <path d="M 8.203125 72.90625 
L 55.078125 72.90625 
L 55.078125 68.703125 
L 28.609375 0 
L 18.3125 0 
L 43.21875 64.59375 
L 8.203125 64.59375 
z
" id="DejaVuSans-55"/>
    </defs>
    <g transform="translate(200.664375 28.56)scale(0.12 -0.12)">
     <use xlink:href="#DejaVuSans-116"/>
     <use x="39.208984" xlink:href="#DejaVuSans-32"/>
     <use x="70.996094" xlink:href="#DejaVuSans-61"/>
     <use x="154.785156" xlink:href="#DejaVuSans-32"/>
     <use x="186.572266" xlink:href="#DejaVuSans-50"/>
     <use x="250.195312" xlink:href="#DejaVuSans-46"/>
     <use x="281.982422" xlink:href="#DejaVuSans-55"/>
    </g>
   </g>
  </g>
 </g>
 <defs>
  <clipPath id="pe2f5f3551b">
   <rect height="217.44" width="334.8" x="54" y="34.56"/>
  </clipPath>
 </defs>
</svg>
