<?xml version="1.0" encoding="utf-8" standalone="no"?>
<!DOCTYPE svg PUBLIC "-//W3C//DTD SVG 1.1//EN"
  "http://www.w3.org/Graphics/SVG/1.1/DTD/svg11.dtd">
<!-- Created with matplotlib (https://matplotlib.org/) -->
<svg height="288pt" version="1.1" viewBox="0 0 432 288" width="432pt" xmlns="http://www.w3.org/2000/svg" xmlns:xlink="http://www.w3.org/1999/xlink">
 <defs>
  <style type="text/css">
*{stroke-linecap:butt;stroke-linejoin:round;}
  </style>
 </defs>
 <g id="figure_1">
  <g id="patch_1">
   <path d="M 0 288 
L 432 288 
L 432 0 
L 0 0 
z
" style="fill:#ffffff;"/>
  </g>
  <g id="axes_1">
   <g id="patch_2">
    <path clip-path="url(#pc062692150)" d="M 195.469069 132.378677 
L 195.405362 143.250491 
L 194.31818 143.24412 
L 194.381887 132.372307 
z
" style="stroke:#000000;stroke-linejoin:miter;"/>
   </g>
   <g id="patch_3">
    <path clip-path="url(#pc062692150)" d="M 249.828135 132.697213 
L 249.764428 143.569026 
L 248.677247 143.562655 
L 248.740954 132.690842 
z
" style="stroke:#000000;stroke-linejoin:miter;"/>
   </g>
   <g id="patch_4">
    <path clip-path="url(#pc062692150)" d="M 213.045167 132.48167 
L 212.899636 131.929262 
L 212.458812 131.4112 
L 211.729785 130.961244 
L 210.724397 130.608617 
L 209.459058 130.376093 
L 207.95448 130.27852 
L 206.235341 130.321846 
L 204.329886 130.502746 
L 202.269458 130.808838 
L 200.08798 131.219512 
L 197.821393 131.707278 
L 195.507059 132.239583 
L 193.183135 132.780944 
L 190.88794 133.295286 
L 188.659311 133.748305 
L 186.533978 134.109732 
L 184.546945 134.355316 
L 182.730912 134.468423 
L 181.115736 134.441134 
L 179.727931 134.27477 
L 178.590241 133.979814 
L 177.721262 133.575232 
L 177.13515 133.087238 
L 176.841388 132.547583 
L 176.844647 131.99148 
L 177.144713 131.455305 
L 177.736504 130.974213 
L 178.610164 130.579843 
L 179.751233 130.29824 
L 181.140892 130.148152 
L 182.756277 130.139793 
L 184.570859 130.274175 
L 186.554878 130.543028 
L 188.67583 130.929338 
L 190.898996 131.408444 
L 193.188006 131.949648 
L 195.505426 132.518207 
L 197.813363 133.077597 
L 200.074078 133.591893 
L 202.250594 134.028104 
L 204.307293 134.358322 
L 206.210497 134.56154 
L 207.92901 134.625011 
L 209.434629 134.545076 
L 210.702606 134.327398 
L 211.712057 133.986577 
L 212.446307 133.545196 
L 212.893172 133.032336 
z
" style="fill:#0000ff;stroke:#000000;stroke-linejoin:miter;"/>
   </g>
   <g id="patch_5">
    <path clip-path="url(#pc062692150)" d="M 267.404234 132.800206 
L 267.258703 132.247797 
L 266.817879 131.729735 
L 266.088852 131.27978 
L 265.083464 130.927152 
L 263.818125 130.694628 
L 262.313546 130.597055 
L 260.594408 130.640381 
L 258.688953 130.821281 
L 256.628525 131.127374 
L 254.447047 131.538047 
L 252.18046 132.025814 
L 249.866126 132.558118 
L 247.542202 133.09948 
L 245.247006 133.613821 
L 243.018378 134.06684 
L 240.893045 134.428268 
L 238.906011 134.673851 
L 237.089979 134.786959 
L 235.474803 134.759669 
L 234.086998 134.593305 
L 232.949307 134.298349 
L 232.080329 133.893767 
L 231.494217 133.405773 
L 231.200455 132.866118 
L 231.203714 132.310016 
L 231.503779 131.77384 
L 232.095571 131.292749 
L 232.969231 130.898379 
L 234.1103 130.616776 
L 235.499959 130.466687 
L 237.115344 130.458328 
L 238.929926 130.59271 
L 240.913945 130.861564 
L 243.034897 131.247873 
L 245.258063 131.72698 
L 247.547073 132.268183 
L 249.864493 132.836742 
L 252.17243 133.396133 
L 254.433145 133.910429 
L 256.609661 134.346639 
L 258.66636 134.676858 
L 260.569564 134.880075 
L 262.288077 134.943546 
L 263.793695 134.863612 
L 265.061673 134.645933 
L 266.071124 134.305112 
L 266.805374 133.863731 
L 267.252239 133.350871 
z
" style="fill:#0000ff;stroke:#000000;stroke-linejoin:miter;"/>
   </g>
   <g id="patch_6">
    <path clip-path="url(#pc062692150)" d="M 254.672671 140.879741 
L 189.441791 140.497498 
L 189.409937 145.933405 
L 254.640817 146.315647 
z
" style="fill:#999999;stroke:#000000;stroke-linejoin:miter;"/>
   </g>
   <g id="text_1">
    <!-- t = 2.3 -->
    <defs>
     <path d="M 18.3125 70.21875 
L 18.3125 54.6875 
L 36.8125 54.6875 
L 36.8125 47.703125 
L 18.3125 47.703125 
L 18.3125 18.015625 
Q 18.3125 11.328125 20.140625 9.421875 
Q 21.96875 7.515625 27.59375 7.515625 
L 36.8125 7.515625 
L 36.8125 0 
L 27.59375 0 
Q 17.1875 0 13.234375 3.875 
Q 9.28125 7.765625 9.28125 18.015625 
L 9.28125 47.703125 
L 2.6875 47.703125 
L 2.6875 54.6875 
L 9.28125 54.6875 
L 9.28125 70.21875 
z
" id="DejaVuSans-116"/>
     <path id="DejaVuSans-32"/>
     <path d="M 10.59375 45.40625 
L 73.1875 45.40625 
L 73.1875 37.203125 
L 10.59375 37.203125 
z
M 10.59375 25.484375 
L 73.1875 25.484375 
L 73.1875 17.1875 
L 10.59375 17.1875 
z
" id="DejaVuSans-61"/>
     <path d="M 19.1875 8.296875 
L 53.609375 8.296875 
L 53.609375 0 
L 7.328125 0 
L 7.328125 8.296875 
Q 12.9375 14.109375 22.625 23.890625 
Q 32.328125 33.6875 34.8125 36.53125 
Q 39.546875 41.84375 41.421875 45.53125 
Q 43.3125 49.21875 43.3125 52.78125 
Q 43.3125 58.59375 39.234375 62.25 
Q 35.15625 65.921875 28.609375 65.921875 
Q 23.96875 65.921875 18.8125 64.3125 
Q 13.671875 62.703125 7.8125 59.421875 
L 7.8125 69.390625 
Q 13.765625 71.78125 18.9375 73 
Q 24.125 74.21875 28.421875 74.21875 
Q 39.75 74.21875 46.484375 68.546875 
Q 53.21875 62.890625 53.21875 53.421875 
Q 53.21875 48.921875 51.53125 44.890625 
Q 49.859375 40.875 45.40625 35.40625 
Q 44.1875 33.984375 37.640625 27.21875 
Q 31.109375 20.453125 19.1875 8.296875 
z
" id="DejaVuSans-50"/>
     <path d="M 10.6875 12.40625 
L 21 12.40625 
L 21 0 
L 10.6875 0 
z
" id="DejaVuSans-46"/>
     <path d="M 40.578125 39.3125 
Q 47.65625 37.796875 51.625 33 
Q 55.609375 28.21875 55.609375 21.1875 
Q 55.609375 10.40625 48.1875 4.484375 
Q 40.765625 -1.421875 27.09375 -1.421875 
Q 22.515625 -1.421875 17.65625 -0.515625 
Q 12.796875 0.390625 7.625 2.203125 
L 7.625 11.71875 
Q 11.71875 9.328125 16.59375 8.109375 
Q 21.484375 6.890625 26.8125 6.890625 
Q 36.078125 6.890625 40.9375 10.546875 
Q 45.796875 14.203125 45.796875 21.1875 
Q 45.796875 27.640625 41.28125 31.265625 
Q 36.765625 34.90625 28.71875 34.90625 
L 20.21875 34.90625 
L 20.21875 43.015625 
L 29.109375 43.015625 
Q 36.375 43.015625 40.234375 45.921875 
Q 44.09375 48.828125 44.09375 54.296875 
Q 44.09375 59.90625 40.109375 62.90625 
Q 36.140625 65.921875 28.71875 65.921875 
Q 24.65625 65.921875 20.015625 65.03125 
Q 15.375 64.15625 9.8125 62.3125 
L 9.8125 71.09375 
Q 15.4375 72.65625 20.34375 73.4375 
Q 25.25 74.21875 29.59375 74.21875 
Q 40.828125 74.21875 47.359375 69.109375 
Q 53.90625 64.015625 53.90625 55.328125 
Q 53.90625 49.265625 50.4375 45.09375 
Q 46.96875 40.921875 40.578125 39.3125 
z
" id="DejaVuSans-51"/>
    </defs>
    <g transform="translate(200.664375 28.56)scale(0.12 -0.12)">
     <use xlink:href="#DejaVuSans-116"/>
     <use x="39.208984" xlink:href="#DejaVuSans-32"/>
     <use x="70.996094" xlink:href="#DejaVuSans-61"/>
     <use x="154.785156" xlink:href="#DejaVuSans-32"/>
     <use x="186.572266" xlink:href="#DejaVuSans-50"/>
     <use x="250.195312" xlink:href="#DejaVuSans-46"/>
     <use x="281.982422" xlink:href="#DejaVuSans-51"/>
    </g>
   </g>
  </g>
 </g>
 <defs>
  <clipPath id="pc062692150">
   <rect height="217.44" width="334.8" x="54" y="34.56"/>
  </clipPath>
 </defs>
</svg>
