<?xml version="1.0" encoding="utf-8" standalone="no"?>
<!DOCTYPE svg PUBLIC "-//W3C//DTD SVG 1.1//EN"
  "http://www.w3.org/Graphics/SVG/1.1/DTD/svg11.dtd">
<!-- Created with matplotlib (https://matplotlib.org/) -->
<svg height="288pt" version="1.1" viewBox="0 0 432 288" width="432pt" xmlns="http://www.w3.org/2000/svg" xmlns:xlink="http://www.w3.org/1999/xlink">
 <defs>
  <style type="text/css">
*{stroke-linecap:butt;stroke-linejoin:round;}
  </style>
 </defs>
 <g id="figure_1">
  <g id="patch_1">
   <path d="M 0 288 
L 432 288 
L 432 0 
L 0 0 
z
" style="fill:#ffffff;"/>
  </g>
  <g id="axes_1">
   <g id="patch_2">
    <path clip-path="url(#p37d5d7a96d)" d="M 196.638317 133.233478 
L 196.715867 144.105201 
L 195.628694 144.112956 
L 195.551145 133.241233 
z
" style="stroke:#000000;stroke-linejoin:miter;"/>
   </g>
   <g id="patch_3">
    <path clip-path="url(#p37d5d7a96d)" d="M 250.996934 132.845731 
L 251.074484 143.717455 
L 249.987311 143.72521 
L 249.909762 132.853486 
z
" style="stroke:#000000;stroke-linejoin:miter;"/>
   </g>
   <g id="patch_4">
    <path clip-path="url(#p37d5d7a96d)" d="M 214.21427 133.108107 
L 214.061575 132.557635 
L 213.614057 132.045345 
L 212.879246 131.604899 
L 211.869361 131.265363 
L 210.601108 131.049299 
L 209.095388 130.971282 
L 207.376958 131.036941 
L 205.474014 131.242581 
L 203.417737 131.575418 
L 201.241779 132.0144 
L 198.98172 132.531573 
L 196.674497 133.093902 
L 194.357803 133.665411 
L 192.069484 134.209529 
L 189.846929 134.691465 
L 187.726471 135.080475 
L 185.742796 135.351855 
L 183.928387 135.488547 
L 182.312992 135.482245 
L 180.923143 135.333926 
L 179.781717 135.053776 
L 178.907555 134.660518 
L 178.315152 134.180181 
L 178.014404 133.644388 
L 178.010437 133.08829 
L 178.303511 132.548261 
L 178.889002 132.059521 
L 179.757464 131.653834 
L 180.894779 131.357429 
L 182.28237 131.189298 
L 183.897511 131.159952 
L 185.713685 131.270747 
L 187.70103 131.513801 
L 189.826822 131.872522 
L 192.056025 132.322703 
L 194.351873 132.834122 
L 196.676485 133.372524 
L 198.991495 133.901881 
L 201.258701 134.386761 
L 203.4407 134.794657 
L 205.501517 135.098126 
L 207.4072 135.276599 
L 209.126392 135.317737 
L 210.630845 135.218248 
L 211.895888 134.984114 
L 212.900825 134.630206 
L 213.629279 134.179323 
L 214.069443 133.6607 
z
" style="fill:#0000ff;stroke:#000000;stroke-linejoin:miter;"/>
   </g>
   <g id="patch_5">
    <path clip-path="url(#p37d5d7a96d)" d="M 268.572887 132.72036 
L 268.420192 132.169888 
L 267.972674 131.657598 
L 267.237863 131.217152 
L 266.227978 130.877617 
L 264.959725 130.661553 
L 263.454005 130.583535 
L 261.735575 130.649194 
L 259.832632 130.854835 
L 257.776354 131.187671 
L 255.600396 131.626653 
L 253.340337 132.143827 
L 251.033114 132.706155 
L 248.71642 133.277664 
L 246.428101 133.821782 
L 244.205547 134.303719 
L 242.085088 134.692728 
L 240.101414 134.964108 
L 238.287004 135.1008 
L 236.67161 135.094498 
L 235.281761 134.946179 
L 234.140334 134.666029 
L 233.266172 134.272772 
L 232.673769 133.792434 
L 232.373021 133.256641 
L 232.369054 132.700543 
L 232.662128 132.160514 
L 233.247619 131.671775 
L 234.116082 131.266087 
L 235.253396 130.969682 
L 236.640987 130.801551 
L 238.256128 130.772206 
L 240.072303 130.883 
L 242.059647 131.126054 
L 244.185439 131.484775 
L 246.414642 131.934956 
L 248.71049 132.446375 
L 251.035102 132.984777 
L 253.350112 133.514134 
L 255.617318 133.999015 
L 257.799317 134.40691 
L 259.860134 134.71038 
L 261.765817 134.888853 
L 263.485009 134.92999 
L 264.989462 134.830501 
L 266.254505 134.596367 
L 267.259443 134.242459 
L 267.987896 133.791576 
L 268.42806 133.272953 
z
" style="fill:#0000ff;stroke:#000000;stroke-linejoin:miter;"/>
   </g>
   <g id="patch_6">
    <path clip-path="url(#p37d5d7a96d)" d="M 255.947372 140.964627 
L 190.717031 141.429923 
L 190.755806 146.865784 
L 255.986147 146.400488 
z
" style="fill:#999999;stroke:#000000;stroke-linejoin:miter;"/>
   </g>
   <g id="text_1">
    <!-- t = 1.9 -->
    <defs>
     <path d="M 18.3125 70.21875 
L 18.3125 54.6875 
L 36.8125 54.6875 
L 36.8125 47.703125 
L 18.3125 47.703125 
L 18.3125 18.015625 
Q 18.3125 11.328125 20.140625 9.421875 
Q 21.96875 7.515625 27.59375 7.515625 
L 36.8125 7.515625 
L 36.8125 0 
L 27.59375 0 
Q 17.1875 0 13.234375 3.875 
Q 9.28125 7.765625 9.28125 18.015625 
L 9.28125 47.703125 
L 2.6875 47.703125 
L 2.6875 54.6875 
L 9.28125 54.6875 
L 9.28125 70.21875 
z
" id="DejaVuSans-116"/>
     <path id="DejaVuSans-32"/>
     <path d="M 10.59375 45.40625 
L 73.1875 45.40625 
L 73.1875 37.203125 
L 10.59375 37.203125 
z
M 10.59375 25.484375 
L 73.1875 25.484375 
L 73.1875 17.1875 
L 10.59375 17.1875 
z
" id="DejaVuSans-61"/>
     <path d="M 12.40625 8.296875 
L 28.515625 8.296875 
L 28.515625 63.921875 
L 10.984375 60.40625 
L 10.984375 69.390625 
L 28.421875 72.90625 
L 38.28125 72.90625 
L 38.28125 8.296875 
L 54.390625 8.296875 
L 54.390625 0 
L 12.40625 0 
z
" id="DejaVuSans-49"/>
     <path d="M 10.6875 12.40625 
L 21 12.40625 
L 21 0 
L 10.6875 0 
z
" id="DejaVuSans-46"/>
     <path d="M 10.984375 1.515625 
L 10.984375 10.5 
Q 14.703125 8.734375 18.5 7.8125 
Q 22.3125 6.890625 25.984375 6.890625 
Q 35.75 6.890625 40.890625 13.453125 
Q 46.046875 20.015625 46.78125 33.40625 
Q 43.953125 29.203125 39.59375 26.953125 
Q 35.25 24.703125 29.984375 24.703125 
Q 19.046875 24.703125 12.671875 31.3125 
Q 6.296875 37.9375 6.296875 49.421875 
Q 6.296875 60.640625 12.9375 67.421875 
Q 19.578125 74.21875 30.609375 74.21875 
Q 43.265625 74.21875 49.921875 64.515625 
Q 56.59375 54.828125 56.59375 36.375 
Q 56.59375 19.140625 48.40625 8.859375 
Q 40.234375 -1.421875 26.421875 -1.421875 
Q 22.703125 -1.421875 18.890625 -0.6875 
Q 15.09375 0.046875 10.984375 1.515625 
z
M 30.609375 32.421875 
Q 37.25 32.421875 41.125 36.953125 
Q 45.015625 41.5 45.015625 49.421875 
Q 45.015625 57.28125 41.125 61.84375 
Q 37.25 66.40625 30.609375 66.40625 
Q 23.96875 66.40625 20.09375 61.84375 
Q 16.21875 57.28125 16.21875 49.421875 
Q 16.21875 41.5 20.09375 36.953125 
Q 23.96875 32.421875 30.609375 32.421875 
z
" id="DejaVuSans-57"/>
    </defs>
    <g transform="translate(200.664375 28.56)scale(0.12 -0.12)">
     <use xlink:href="#DejaVuSans-116"/>
     <use x="39.208984" xlink:href="#DejaVuSans-32"/>
     <use x="70.996094" xlink:href="#DejaVuSans-61"/>
     <use x="154.785156" xlink:href="#DejaVuSans-32"/>
     <use x="186.572266" xlink:href="#DejaVuSans-49"/>
     <use x="250.195312" xlink:href="#DejaVuSans-46"/>
     <use x="281.982422" xlink:href="#DejaVuSans-57"/>
    </g>
   </g>
  </g>
 </g>
 <defs>
  <clipPath id="p37d5d7a96d">
   <rect height="217.44" width="334.8" x="54" y="34.56"/>
  </clipPath>
 </defs>
</svg>
