<?xml version="1.0" encoding="utf-8" standalone="no"?>
<!DOCTYPE svg PUBLIC "-//W3C//DTD SVG 1.1//EN"
  "http://www.w3.org/Graphics/SVG/1.1/DTD/svg11.dtd">
<!-- Created with matplotlib (https://matplotlib.org/) -->
<svg height="288pt" version="1.1" viewBox="0 0 432 288" width="432pt" xmlns="http://www.w3.org/2000/svg" xmlns:xlink="http://www.w3.org/1999/xlink">
 <defs>
  <style type="text/css">
*{stroke-linecap:butt;stroke-linejoin:round;}
  </style>
 </defs>
 <g id="figure_1">
  <g id="patch_1">
   <path d="M 0 288 
L 432 288 
L 432 0 
L 0 0 
z
" style="fill:#ffffff;"/>
  </g>
  <g id="axes_1">
   <g id="patch_2">
    <path clip-path="url(#p0c9377224e)" d="M 194.76188 132.409181 
L 194.762422 143.281181 
L 193.675222 143.281235 
L 193.67468 132.409235 
z
" style="stroke:#000000;stroke-linejoin:miter;"/>
   </g>
   <g id="patch_3">
    <path clip-path="url(#p0c9377224e)" d="M 249.12188 132.406468 
L 249.122422 143.278468 
L 248.035222 143.278522 
L 248.03468 132.406522 
z
" style="stroke:#000000;stroke-linejoin:miter;"/>
   </g>
   <g id="patch_4">
    <path clip-path="url(#p0c9377224e)" d="M 212.33828 132.408304 
L 212.189487 131.856765 
L 211.745609 131.341317 
L 211.013936 130.895678 
L 210.006482 130.548998 
L 208.739791 130.323956 
L 207.234661 130.235276 
L 205.515809 130.288761 
L 203.611457 130.480918 
L 201.552874 130.799182 
L 199.37386 131.22274 
L 197.110196 131.723893 
L 194.799047 132.269865 
L 192.478363 132.82495 
L 190.186248 133.352846 
L 187.960335 133.819028 
L 185.837175 134.193009 
L 183.851628 134.450331 
L 182.036296 134.574169 
L 180.420986 134.556425 
L 179.032223 134.398265 
L 177.892809 134.110037 
L 177.021455 133.710598 
L 176.432469 133.226077 
L 176.135523 132.688167 
L 176.135495 132.132055 
L 176.432387 131.594115 
L 177.021325 131.109535 
L 177.892639 130.710009 
L 179.032024 130.421667 
L 180.420772 130.263369 
L 182.03608 130.245464 
L 183.851424 130.36912 
L 185.836997 130.626244 
L 187.960195 131.000013 
L 190.186153 131.465973 
L 192.478322 131.99364 
L 194.799061 132.548494 
L 197.110264 133.094235 
L 199.373979 133.595162 
L 201.553034 134.018503 
L 203.611649 134.336561 
L 205.516021 134.528528 
L 207.234878 134.581841 
L 208.739999 134.493011 
L 210.006667 134.267843 
L 211.014087 133.921062 
L 211.745716 133.47535 
L 212.189542 132.959858 
z
" style="fill:#0000ff;stroke:#000000;stroke-linejoin:miter;"/>
   </g>
   <g id="patch_5">
    <path clip-path="url(#p0c9377224e)" d="M 266.69828 132.40559 
L 266.549487 131.854051 
L 266.105609 131.338604 
L 265.373936 130.892964 
L 264.366482 130.546284 
L 263.09979 130.321243 
L 261.594661 130.232562 
L 259.875809 130.286048 
L 257.971457 130.478204 
L 255.912874 130.796468 
L 253.73386 131.220026 
L 251.470196 131.721179 
L 249.159047 132.267152 
L 246.838363 132.822237 
L 244.546247 133.350133 
L 242.320335 133.816315 
L 240.197175 134.190296 
L 238.211628 134.447618 
L 236.396296 134.571455 
L 234.780986 134.553712 
L 233.392222 134.395552 
L 232.252809 134.107324 
L 231.381454 133.707885 
L 230.792469 133.223363 
L 230.495523 132.685454 
L 230.495495 132.129341 
L 230.792387 131.591402 
L 231.381325 131.106822 
L 232.252639 130.707295 
L 233.392024 130.418954 
L 234.780772 130.260655 
L 236.39608 130.242751 
L 238.211424 130.366407 
L 240.196997 130.623531 
L 242.320195 130.997299 
L 244.546153 131.463259 
L 246.838322 131.990926 
L 249.159061 132.54578 
L 251.470264 133.091522 
L 253.733979 133.592449 
L 255.913034 134.015789 
L 257.971649 134.333847 
L 259.876021 134.525814 
L 261.594878 134.579128 
L 263.099999 134.490297 
L 264.366667 134.265129 
L 265.374087 133.918349 
L 266.105716 133.472636 
L 266.549542 132.957144 
z
" style="fill:#0000ff;stroke:#000000;stroke-linejoin:miter;"/>
   </g>
   <g id="patch_6">
    <path clip-path="url(#p0c9377224e)" d="M 254.014687 140.560223 
L 188.782687 140.56348 
L 188.782958 145.99948 
L 254.014958 145.996223 
z
" style="fill:#999999;stroke:#000000;stroke-linejoin:miter;"/>
   </g>
   <g id="text_1">
    <!-- t = 3.6 -->
    <defs>
     <path d="M 18.3125 70.21875 
L 18.3125 54.6875 
L 36.8125 54.6875 
L 36.8125 47.703125 
L 18.3125 47.703125 
L 18.3125 18.015625 
Q 18.3125 11.328125 20.140625 9.421875 
Q 21.96875 7.515625 27.59375 7.515625 
L 36.8125 7.515625 
L 36.8125 0 
L 27.59375 0 
Q 17.1875 0 13.234375 3.875 
Q 9.28125 7.765625 9.28125 18.015625 
L 9.28125 47.703125 
L 2.6875 47.703125 
L 2.6875 54.6875 
L 9.28125 54.6875 
L 9.28125 70.21875 
z
" id="DejaVuSans-116"/>
     <path id="DejaVuSans-32"/>
     <path d="M 10.59375 45.40625 
L 73.1875 45.40625 
L 73.1875 37.203125 
L 10.59375 37.203125 
z
M 10.59375 25.484375 
L 73.1875 25.484375 
L 73.1875 17.1875 
L 10.59375 17.1875 
z
" id="DejaVuSans-61"/>
     <path d="M 40.578125 39.3125 
Q 47.65625 37.796875 51.625 33 
Q 55.609375 28.21875 55.609375 21.1875 
Q 55.609375 10.40625 48.1875 4.484375 
Q 40.765625 -1.421875 27.09375 -1.421875 
Q 22.515625 -1.421875 17.65625 -0.515625 
Q 12.796875 0.390625 7.625 2.203125 
L 7.625 11.71875 
Q 11.71875 9.328125 16.59375 8.109375 
Q 21.484375 6.890625 26.8125 6.890625 
Q 36.078125 6.890625 40.9375 10.546875 
Q 45.796875 14.203125 45.796875 21.1875 
Q 45.796875 27.640625 41.28125 31.265625 
Q 36.765625 34.90625 28.71875 34.90625 
L 20.21875 34.90625 
L 20.21875 43.015625 
L 29.109375 43.015625 
Q 36.375 43.015625 40.234375 45.921875 
Q 44.09375 48.828125 44.09375 54.296875 
Q 44.09375 59.90625 40.109375 62.90625 
Q 36.140625 65.921875 28.71875 65.921875 
Q 24.65625 65.921875 20.015625 65.03125 
Q 15.375 64.15625 9.8125 62.3125 
L 9.8125 71.09375 
Q 15.4375 72.65625 20.34375 73.4375 
Q 25.25 74.21875 29.59375 74.21875 
Q 40.828125 74.21875 47.359375 69.109375 
Q 53.90625 64.015625 53.90625 55.328125 
Q 53.90625 49.265625 50.4375 45.09375 
Q 46.96875 40.921875 40.578125 39.3125 
z
" id="DejaVuSans-51"/>
     <path d="M 10.6875 12.40625 
L 21 12.40625 
L 21 0 
L 10.6875 0 
z
" id="DejaVuSans-46"/>
     <path d="M 33.015625 40.375 
Q 26.375 40.375 22.484375 35.828125 
Q 18.609375 31.296875 18.609375 23.390625 
Q 18.609375 15.53125 22.484375 10.953125 
Q 26.375 6.390625 33.015625 6.390625 
Q 39.65625 6.390625 43.53125 10.953125 
Q 47.40625 15.53125 47.40625 23.390625 
Q 47.40625 31.296875 43.53125 35.828125 
Q 39.65625 40.375 33.015625 40.375 
z
M 52.59375 71.296875 
L 52.59375 62.3125 
Q 48.875 64.0625 45.09375 64.984375 
Q 41.3125 65.921875 37.59375 65.921875 
Q 27.828125 65.921875 22.671875 59.328125 
Q 17.53125 52.734375 16.796875 39.40625 
Q 19.671875 43.65625 24.015625 45.921875 
Q 28.375 48.1875 33.59375 48.1875 
Q 44.578125 48.1875 50.953125 41.515625 
Q 57.328125 34.859375 57.328125 23.390625 
Q 57.328125 12.15625 50.6875 5.359375 
Q 44.046875 -1.421875 33.015625 -1.421875 
Q 20.359375 -1.421875 13.671875 8.265625 
Q 6.984375 17.96875 6.984375 36.375 
Q 6.984375 53.65625 15.1875 63.9375 
Q 23.390625 74.21875 37.203125 74.21875 
Q 40.921875 74.21875 44.703125 73.484375 
Q 48.484375 72.75 52.59375 71.296875 
z
" id="DejaVuSans-54"/>
    </defs>
    <g transform="translate(200.664375 28.56)scale(0.12 -0.12)">
     <use xlink:href="#DejaVuSans-116"/>
     <use x="39.208984" xlink:href="#DejaVuSans-32"/>
     <use x="70.996094" xlink:href="#DejaVuSans-61"/>
     <use x="154.785156" xlink:href="#DejaVuSans-32"/>
     <use x="186.572266" xlink:href="#DejaVuSans-51"/>
     <use x="250.195312" xlink:href="#DejaVuSans-46"/>
     <use x="281.982422" xlink:href="#DejaVuSans-54"/>
    </g>
   </g>
  </g>
 </g>
 <defs>
  <clipPath id="p0c9377224e">
   <rect height="217.44" width="334.8" x="54" y="34.56"/>
  </clipPath>
 </defs>
</svg>
