<?xml version="1.0" encoding="utf-8" standalone="no"?>
<!DOCTYPE svg PUBLIC "-//W3C//DTD SVG 1.1//EN"
  "http://www.w3.org/Graphics/SVG/1.1/DTD/svg11.dtd">
<!-- Created with matplotlib (https://matplotlib.org/) -->
<svg height="288pt" version="1.1" viewBox="0 0 432 288" width="432pt" xmlns="http://www.w3.org/2000/svg" xmlns:xlink="http://www.w3.org/1999/xlink">
 <defs>
  <style type="text/css">
*{stroke-linecap:butt;stroke-linejoin:round;}
  </style>
 </defs>
 <g id="figure_1">
  <g id="patch_1">
   <path d="M 0 288 
L 432 288 
L 432 0 
L 0 0 
z
" style="fill:#ffffff;"/>
  </g>
  <g id="axes_1">
   <g id="patch_2">
    <path clip-path="url(#p111c834cbf)" d="M 194.550596 132.426629 
L 194.556686 143.298627 
L 193.469486 143.299236 
L 193.463396 132.427238 
z
" style="stroke:#000000;stroke-linejoin:miter;"/>
   </g>
   <g id="patch_3">
    <path clip-path="url(#p111c834cbf)" d="M 248.910587 132.396178 
L 248.916677 143.268177 
L 247.829477 143.268786 
L 247.823387 132.396787 
z
" style="stroke:#000000;stroke-linejoin:miter;"/>
   </g>
   <g id="patch_4">
    <path clip-path="url(#p111c834cbf)" d="M 212.126993 132.416783 
L 211.977919 131.86532 
L 211.533778 131.350099 
L 210.801877 130.904833 
L 209.794247 130.558667 
L 208.527441 130.334272 
L 207.022266 130.24636 
L 205.303442 130.300722 
L 203.399188 130.493851 
L 201.340767 130.813165 
L 199.16197 131.237835 
L 196.898562 131.740142 
L 194.587692 132.287294 
L 192.267292 132.843564 
L 189.975446 133.372629 
L 187.749771 133.839947 
L 185.626802 134.215011 
L 183.641387 134.473346 
L 181.826118 134.59811 
L 180.2108 134.58119 
L 178.821955 134.423739 
L 177.682395 134.136093 
L 176.810837 133.737098 
L 176.221604 133.252877 
L 175.924384 132.715119 
L 175.924072 132.159007 
L 176.220689 131.620916 
L 176.80938 131.136035 
L 177.68049 130.736065 
L 178.819728 130.447142 
L 180.208395 130.288135 
L 181.823693 130.269406 
L 183.6391 130.392135 
L 185.624804 130.648246 
L 187.748192 131.020932 
L 189.974389 131.485756 
L 192.266826 132.012253 
L 194.587848 132.565923 
L 196.899329 133.110485 
L 199.163299 133.610257 
L 201.34257 134.032485 
L 203.401347 134.349493 
L 205.305817 134.540488 
L 207.024701 134.592925 
L 208.529776 134.503326 
L 209.79633 134.277512 
L 210.803572 133.930217 
L 211.534974 133.484131 
L 211.978537 132.968413 
z
" style="fill:#0000ff;stroke:#000000;stroke-linejoin:miter;"/>
   </g>
   <g id="patch_5">
    <path clip-path="url(#p111c834cbf)" d="M 266.486984 132.386333 
L 266.33791 131.834869 
L 265.89377 131.319648 
L 265.161869 130.874382 
L 264.154238 130.528217 
L 262.887432 130.303821 
L 261.382258 130.215909 
L 259.663433 130.270271 
L 257.759179 130.4634 
L 255.700759 130.782714 
L 253.521962 131.207384 
L 251.258553 131.709692 
L 248.947684 132.256843 
L 246.627283 132.813113 
L 244.335437 133.342178 
L 242.109763 133.809496 
L 239.986794 134.18456 
L 238.001378 134.442895 
L 236.186109 134.567659 
L 234.570791 134.550739 
L 233.181947 134.393288 
L 232.042386 134.105642 
L 231.170828 133.706647 
L 230.581595 133.222426 
L 230.284375 132.684668 
L 230.284064 132.128556 
L 230.580681 131.590465 
L 231.169371 131.105585 
L 232.040482 130.705614 
L 233.179719 130.416691 
L 234.568386 130.257684 
L 236.183685 130.238955 
L 237.999092 130.361685 
L 239.984796 130.617795 
L 242.108184 130.990481 
L 244.33438 131.455305 
L 246.626817 131.981802 
L 248.94784 132.535472 
L 251.259321 133.080034 
L 253.523291 133.579806 
L 255.702562 134.002034 
L 257.761339 134.319042 
L 259.665808 134.510037 
L 261.384693 134.562474 
L 262.889767 134.472875 
L 264.156321 134.247061 
L 265.163564 133.899766 
L 265.894965 133.453681 
L 266.338528 132.937962 
z
" style="fill:#0000ff;stroke:#000000;stroke-linejoin:miter;"/>
   </g>
   <g id="patch_6">
    <path clip-path="url(#p111c834cbf)" d="M 253.807554 140.547436 
L 188.575564 140.583977 
L 188.578609 146.019977 
L 253.810599 145.983436 
z
" style="fill:#999999;stroke:#000000;stroke-linejoin:miter;"/>
   </g>
   <g id="text_1">
    <!-- t = 2.8 -->
    <defs>
     <path d="M 18.3125 70.21875 
L 18.3125 54.6875 
L 36.8125 54.6875 
L 36.8125 47.703125 
L 18.3125 47.703125 
L 18.3125 18.015625 
Q 18.3125 11.328125 20.140625 9.421875 
Q 21.96875 7.515625 27.59375 7.515625 
L 36.8125 7.515625 
L 36.8125 0 
L 27.59375 0 
Q 17.1875 0 13.234375 3.875 
Q 9.28125 7.765625 9.28125 18.015625 
L 9.28125 47.703125 
L 2.6875 47.703125 
L 2.6875 54.6875 
L 9.28125 54.6875 
L 9.28125 70.21875 
z
" id="DejaVuSans-116"/>
     <path id="DejaVuSans-32"/>
     <path d="M 10.59375 45.40625 
L 73.1875 45.40625 
L 73.1875 37.203125 
L 10.59375 37.203125 
z
M 10.59375 25.484375 
L 73.1875 25.484375 
L 73.1875 17.1875 
L 10.59375 17.1875 
z
" id="DejaVuSans-61"/>
     <path d="M 19.1875 8.296875 
L 53.609375 8.296875 
L 53.609375 0 
L 7.328125 0 
L 7.328125 8.296875 
Q 12.9375 14.109375 22.625 23.890625 
Q 32.328125 33.6875 34.8125 36.53125 
Q 39.546875 41.84375 41.421875 45.53125 
Q 43.3125 49.21875 43.3125 52.78125 
Q 43.3125 58.59375 39.234375 62.25 
Q 35.15625 65.921875 28.609375 65.921875 
Q 23.96875 65.921875 18.8125 64.3125 
Q 13.671875 62.703125 7.8125 59.421875 
L 7.8125 69.390625 
Q 13.765625 71.78125 18.9375 73 
Q 24.125 74.21875 28.421875 74.21875 
Q 39.75 74.21875 46.484375 68.546875 
Q 53.21875 62.890625 53.21875 53.421875 
Q 53.21875 48.921875 51.53125 44.890625 
Q 49.859375 40.875 45.40625 35.40625 
Q 44.1875 33.984375 37.640625 27.21875 
Q 31.109375 20.453125 19.1875 8.296875 
z
" id="DejaVuSans-50"/>
     <path d="M 10.6875 12.40625 
L 21 12.40625 
L 21 0 
L 10.6875 0 
z
" id="DejaVuSans-46"/>
     <path d="M 31.78125 34.625 
Q 24.75 34.625 20.71875 30.859375 
Q 16.703125 27.09375 16.703125 20.515625 
Q 16.703125 13.921875 20.71875 10.15625 
Q 24.75 6.390625 31.78125 6.390625 
Q 38.8125 6.390625 42.859375 10.171875 
Q 46.921875 13.96875 46.921875 20.515625 
Q 46.921875 27.09375 42.890625 30.859375 
Q 38.875 34.625 31.78125 34.625 
z
M 21.921875 38.8125 
Q 15.578125 40.375 12.03125 44.71875 
Q 8.5 49.078125 8.5 55.328125 
Q 8.5 64.0625 14.71875 69.140625 
Q 20.953125 74.21875 31.78125 74.21875 
Q 42.671875 74.21875 48.875 69.140625 
Q 55.078125 64.0625 55.078125 55.328125 
Q 55.078125 49.078125 51.53125 44.71875 
Q 48 40.375 41.703125 38.8125 
Q 48.828125 37.15625 52.796875 32.3125 
Q 56.78125 27.484375 56.78125 20.515625 
Q 56.78125 9.90625 50.3125 4.234375 
Q 43.84375 -1.421875 31.78125 -1.421875 
Q 19.734375 -1.421875 13.25 4.234375 
Q 6.78125 9.90625 6.78125 20.515625 
Q 6.78125 27.484375 10.78125 32.3125 
Q 14.796875 37.15625 21.921875 38.8125 
z
M 18.3125 54.390625 
Q 18.3125 48.734375 21.84375 45.5625 
Q 25.390625 42.390625 31.78125 42.390625 
Q 38.140625 42.390625 41.71875 45.5625 
Q 45.3125 48.734375 45.3125 54.390625 
Q 45.3125 60.0625 41.71875 63.234375 
Q 38.140625 66.40625 31.78125 66.40625 
Q 25.390625 66.40625 21.84375 63.234375 
Q 18.3125 60.0625 18.3125 54.390625 
z
" id="DejaVuSans-56"/>
    </defs>
    <g transform="translate(200.664375 28.56)scale(0.12 -0.12)">
     <use xlink:href="#DejaVuSans-116"/>
     <use x="39.208984" xlink:href="#DejaVuSans-32"/>
     <use x="70.996094" xlink:href="#DejaVuSans-61"/>
     <use x="154.785156" xlink:href="#DejaVuSans-32"/>
     <use x="186.572266" xlink:href="#DejaVuSans-50"/>
     <use x="250.195312" xlink:href="#DejaVuSans-46"/>
     <use x="281.982422" xlink:href="#DejaVuSans-56"/>
    </g>
   </g>
  </g>
 </g>
 <defs>
  <clipPath id="p111c834cbf">
   <rect height="217.44" width="334.8" x="54" y="34.56"/>
  </clipPath>
 </defs>
</svg>
