<?xml version="1.0" encoding="utf-8" standalone="no"?>
<!DOCTYPE svg PUBLIC "-//W3C//DTD SVG 1.1//EN"
  "http://www.w3.org/Graphics/SVG/1.1/DTD/svg11.dtd">
<!-- Created with matplotlib (https://matplotlib.org/) -->
<svg height="288pt" version="1.1" viewBox="0 0 432 288" width="432pt" xmlns="http://www.w3.org/2000/svg" xmlns:xlink="http://www.w3.org/1999/xlink">
 <defs>
  <style type="text/css">
*{stroke-linecap:butt;stroke-linejoin:round;}
  </style>
 </defs>
 <g id="figure_1">
  <g id="patch_1">
   <path d="M 0 288 
L 432 288 
L 432 0 
L 0 0 
z
" style="fill:#ffffff;"/>
  </g>
  <g id="axes_1">
   <g id="patch_2">
    <path clip-path="url(#p23519513eb)" d="M 196.730994 133.682008 
L 196.886747 144.552892 
L 195.799659 144.568468 
L 195.643905 133.697583 
z
" style="stroke:#000000;stroke-linejoin:miter;"/>
   </g>
   <g id="patch_3">
    <path clip-path="url(#p23519513eb)" d="M 251.085415 132.90324 
L 251.241169 143.774124 
L 250.15408 143.7897 
L 249.998327 132.918815 
z
" style="stroke:#000000;stroke-linejoin:miter;"/>
   </g>
   <g id="patch_4">
    <path clip-path="url(#p23519513eb)" d="M 214.30559 133.430206 
L 214.148939 132.880848 
L 213.697747 132.37179 
L 212.959786 131.936641 
L 211.947486 131.604379 
L 210.677711 131.397444 
L 209.171469 131.33026 
L 207.453556 131.408279 
L 205.552141 131.627603 
L 203.498311 131.975223 
L 201.325566 132.429846 
L 199.069287 132.963264 
L 196.766169 133.542176 
L 194.453645 134.130335 
L 192.1693 134.6909 
L 189.95027 135.188812 
L 187.832665 135.593065 
L 185.850993 135.878707 
L 184.037614 136.028448 
L 182.422216 136.033767 
L 181.031336 135.895449 
L 179.887924 135.623518 
L 179.010956 135.236559 
L 178.415113 134.760495 
L 178.110518 134.226879 
L 178.102551 133.670824 
L 178.391733 133.128701 
L 178.973693 132.635762 
L 179.839214 132.223838 
L 180.974367 131.91926 
L 182.360713 131.741151 
L 183.975601 131.700188 
L 185.792525 131.797915 
L 187.781567 132.026666 
L 189.909884 132.370086 
L 192.142268 132.80422 
L 194.441736 133.29911 
L 196.77016 133.820775 
L 199.088919 134.333466 
L 201.359554 134.802025 
L 203.544431 135.194214 
L 205.607377 135.48285 
L 207.514295 135.64761 
L 209.233739 135.67638 
L 210.737437 135.566071 
L 212.000762 135.322842 
L 213.003128 134.961715 
L 213.72832 134.505603 
L 214.164742 133.983828 
z
" style="fill:#0000ff;stroke:#000000;stroke-linejoin:miter;"/>
   </g>
   <g id="patch_5">
    <path clip-path="url(#p23519513eb)" d="M 268.660011 132.651438 
L 268.50336 132.10208 
L 268.052169 131.593022 
L 267.314208 131.157873 
L 266.301907 130.825611 
L 265.032132 130.618676 
L 263.52589 130.551492 
L 261.807977 130.629511 
L 259.906562 130.848835 
L 257.852732 131.196455 
L 255.679988 131.651078 
L 253.423708 132.184496 
L 251.12059 132.763408 
L 248.808067 133.351567 
L 246.523721 133.912132 
L 244.304691 134.410044 
L 242.187086 134.814297 
L 240.205415 135.099939 
L 238.392036 135.24968 
L 236.776637 135.254999 
L 235.385757 135.116681 
L 234.242345 134.84475 
L 233.365377 134.457791 
L 232.769534 133.981727 
L 232.464939 133.448111 
L 232.456973 132.892056 
L 232.746154 132.349933 
L 233.328114 131.856994 
L 234.193636 131.44507 
L 235.328788 131.140492 
L 236.715135 130.962383 
L 238.330022 130.92142 
L 240.146947 131.019147 
L 242.135988 131.247898 
L 244.264305 131.591318 
L 246.496689 132.025452 
L 248.796157 132.520342 
L 251.124582 133.042008 
L 253.44334 133.554698 
L 255.713975 134.023257 
L 257.898852 134.415446 
L 259.961798 134.704082 
L 261.868716 134.868842 
L 263.58816 134.897612 
L 265.091859 134.787303 
L 266.355184 134.544074 
L 267.35755 134.182947 
L 268.082741 133.726835 
L 268.519163 133.20506 
z
" style="fill:#0000ff;stroke:#000000;stroke-linejoin:miter;"/>
   </g>
   <g id="patch_6">
    <path clip-path="url(#p23519513eb)" d="M 256.094128 140.986314 
L 190.868822 141.920836 
L 190.946699 147.356278 
L 256.172005 146.421756 
z
" style="fill:#999999;stroke:#000000;stroke-linejoin:miter;"/>
   </g>
   <g id="text_1">
    <!-- t = 1.8 -->
    <defs>
     <path d="M 18.3125 70.21875 
L 18.3125 54.6875 
L 36.8125 54.6875 
L 36.8125 47.703125 
L 18.3125 47.703125 
L 18.3125 18.015625 
Q 18.3125 11.328125 20.140625 9.421875 
Q 21.96875 7.515625 27.59375 7.515625 
L 36.8125 7.515625 
L 36.8125 0 
L 27.59375 0 
Q 17.1875 0 13.234375 3.875 
Q 9.28125 7.765625 9.28125 18.015625 
L 9.28125 47.703125 
L 2.6875 47.703125 
L 2.6875 54.6875 
L 9.28125 54.6875 
L 9.28125 70.21875 
z
" id="DejaVuSans-116"/>
     <path id="DejaVuSans-32"/>
     <path d="M 10.59375 45.40625 
L 73.1875 45.40625 
L 73.1875 37.203125 
L 10.59375 37.203125 
z
M 10.59375 25.484375 
L 73.1875 25.484375 
L 73.1875 17.1875 
L 10.59375 17.1875 
z
" id="DejaVuSans-61"/>
     <path d="M 12.40625 8.296875 
L 28.515625 8.296875 
L 28.515625 63.921875 
L 10.984375 60.40625 
L 10.984375 69.390625 
L 28.421875 72.90625 
L 38.28125 72.90625 
L 38.28125 8.296875 
L 54.390625 8.296875 
L 54.390625 0 
L 12.40625 0 
z
" id="DejaVuSans-49"/>
     <path d="M 10.6875 12.40625 
L 21 12.40625 
L 21 0 
L 10.6875 0 
z
" id="DejaVuSans-46"/>
     <path d="M 31.78125 34.625 
Q 24.75 34.625 20.71875 30.859375 
Q 16.703125 27.09375 16.703125 20.515625 
Q 16.703125 13.921875 20.71875 10.15625 
Q 24.75 6.390625 31.78125 6.390625 
Q 38.8125 6.390625 42.859375 10.171875 
Q 46.921875 13.96875 46.921875 20.515625 
Q 46.921875 27.09375 42.890625 30.859375 
Q 38.875 34.625 31.78125 34.625 
z
M 21.921875 38.8125 
Q 15.578125 40.375 12.03125 44.71875 
Q 8.5 49.078125 8.5 55.328125 
Q 8.5 64.0625 14.71875 69.140625 
Q 20.953125 74.21875 31.78125 74.21875 
Q 42.671875 74.21875 48.875 69.140625 
Q 55.078125 64.0625 55.078125 55.328125 
Q 55.078125 49.078125 51.53125 44.71875 
Q 48 40.375 41.703125 38.8125 
Q 48.828125 37.15625 52.796875 32.3125 
Q 56.78125 27.484375 56.78125 20.515625 
Q 56.78125 9.90625 50.3125 4.234375 
Q 43.84375 -1.421875 31.78125 -1.421875 
Q 19.734375 -1.421875 13.25 4.234375 
Q 6.78125 9.90625 6.78125 20.515625 
Q 6.78125 27.484375 10.78125 32.3125 
Q 14.796875 37.15625 21.921875 38.8125 
z
M 18.3125 54.390625 
Q 18.3125 48.734375 21.84375 45.5625 
Q 25.390625 42.390625 31.78125 42.390625 
Q 38.140625 42.390625 41.71875 45.5625 
Q 45.3125 48.734375 45.3125 54.390625 
Q 45.3125 60.0625 41.71875 63.234375 
Q 38.140625 66.40625 31.78125 66.40625 
Q 25.390625 66.40625 21.84375 63.234375 
Q 18.3125 60.0625 18.3125 54.390625 
z
" id="DejaVuSans-56"/>
    </defs>
    <g transform="translate(200.664375 28.56)scale(0.12 -0.12)">
     <use xlink:href="#DejaVuSans-116"/>
     <use x="39.208984" xlink:href="#DejaVuSans-32"/>
     <use x="70.996094" xlink:href="#DejaVuSans-61"/>
     <use x="154.785156" xlink:href="#DejaVuSans-32"/>
     <use x="186.572266" xlink:href="#DejaVuSans-49"/>
     <use x="250.195312" xlink:href="#DejaVuSans-46"/>
     <use x="281.982422" xlink:href="#DejaVuSans-56"/>
    </g>
   </g>
  </g>
 </g>
 <defs>
  <clipPath id="p23519513eb">
   <rect height="217.44" width="334.8" x="54" y="34.56"/>
  </clipPath>
 </defs>
</svg>
