<?xml version="1.0" encoding="utf-8" standalone="no"?>
<!DOCTYPE svg PUBLIC "-//W3C//DTD SVG 1.1//EN"
  "http://www.w3.org/Graphics/SVG/1.1/DTD/svg11.dtd">
<!-- Created with matplotlib (https://matplotlib.org/) -->
<svg height="288pt" version="1.1" viewBox="0 0 432 288" width="432pt" xmlns="http://www.w3.org/2000/svg" xmlns:xlink="http://www.w3.org/1999/xlink">
 <defs>
  <style type="text/css">
*{stroke-linecap:butt;stroke-linejoin:round;}
  </style>
 </defs>
 <g id="figure_1">
  <g id="patch_1">
   <path d="M 0 288 
L 432 288 
L 432 0 
L 0 0 
z
" style="fill:#ffffff;"/>
  </g>
  <g id="axes_1">
   <g id="patch_2">
    <path clip-path="url(#pca744fc9f4)" d="M 194.785281 132.396118 
L 194.778141 143.268115 
L 193.690941 143.267401 
L 193.698081 132.395404 
z
" style="stroke:#000000;stroke-linejoin:miter;"/>
   </g>
   <g id="patch_3">
    <path clip-path="url(#pca744fc9f4)" d="M 249.145269 132.431815 
L 249.138129 143.303812 
L 248.05093 143.303099 
L 248.058069 132.431101 
z
" style="stroke:#000000;stroke-linejoin:miter;"/>
   </g>
   <g id="patch_4">
    <path clip-path="url(#pca744fc9f4)" d="M 212.361677 132.40766 
L 212.213274 131.856016 
L 211.76976 131.340255 
L 211.038402 130.894098 
L 210.031193 130.546706 
L 208.764661 130.32077 
L 207.259595 130.231026 
L 205.540705 130.283297 
L 203.636218 130.474108 
L 201.57741 130.790917 
L 199.398098 131.212935 
L 197.13408 131.712489 
L 194.822547 132.256828 
L 192.501471 132.810273 
L 190.208983 133.336549 
L 187.982742 133.801159 
L 185.859318 134.173639 
L 183.873589 134.429558 
L 182.05817 134.552113 
L 180.442873 134.533228 
L 179.054222 134.374087 
L 177.915012 134.085054 
L 177.04394 133.684999 
L 176.455297 133.200061 
L 176.158731 132.661942 
L 176.159097 132.10583 
L 176.456368 131.568101 
L 177.045648 131.083936 
L 177.917245 130.685026 
L 179.056833 130.39749 
L 180.445692 130.240173 
L 182.061012 130.223409 
L 183.876269 130.348348 
L 185.86166 130.606875 
L 187.984593 130.982144 
L 190.210222 131.449676 
L 192.502017 131.978963 
L 194.822364 132.535456 
L 197.13318 133.082831 
L 199.39654 133.585357 
L 201.575296 134.010237 
L 203.633686 134.32975 
L 205.537921 134.523062 
L 207.256741 134.577591 
L 208.761923 134.489824 
L 210.028751 134.265551 
L 211.036415 133.919482 
L 211.768359 133.474287 
L 212.21255 132.959108 
z
" style="fill:#0000ff;stroke:#000000;stroke-linejoin:miter;"/>
   </g>
   <g id="patch_5">
    <path clip-path="url(#pca744fc9f4)" d="M 266.721665 132.443357 
L 266.573262 131.891713 
L 266.129749 131.375952 
L 265.39839 130.929796 
L 264.391181 130.582404 
L 263.124649 130.356467 
L 261.619583 130.266723 
L 259.900694 130.318994 
L 257.996206 130.509805 
L 255.937399 130.826614 
L 253.758087 131.248633 
L 251.494068 131.748186 
L 249.182535 132.292525 
L 246.861459 132.845971 
L 244.568971 133.372247 
L 242.34273 133.836856 
L 240.219306 134.209336 
L 238.233577 134.465255 
L 236.418158 134.58781 
L 234.802862 134.568925 
L 233.41421 134.409784 
L 232.275 134.120751 
L 231.403928 133.720696 
L 230.815285 133.235759 
L 230.51872 132.697639 
L 230.519085 132.141527 
L 230.816357 131.603798 
L 231.405637 131.119634 
L 232.277233 130.720723 
L 233.416821 130.433187 
L 234.805681 130.27587 
L 236.421001 130.259106 
L 238.236257 130.384045 
L 240.221648 130.642572 
L 242.344581 131.017841 
L 244.57021 131.485373 
L 246.862005 132.01466 
L 249.182352 132.571154 
L 251.493168 133.118528 
L 253.756529 133.621054 
L 255.935284 134.045935 
L 257.993674 134.365447 
L 259.89791 134.55876 
L 261.616729 134.613288 
L 263.121912 134.525521 
L 264.388739 134.301248 
L 265.396404 133.955179 
L 266.128347 133.509984 
L 266.572538 132.994806 
z
" style="fill:#0000ff;stroke:#000000;stroke-linejoin:miter;"/>
   </g>
   <g id="patch_6">
    <path clip-path="url(#pca744fc9f4)" d="M 254.032313 140.589026 
L 188.800327 140.546189 
L 188.796757 145.982188 
L 254.028743 146.025025 
z
" style="fill:#999999;stroke:#000000;stroke-linejoin:miter;"/>
   </g>
   <g id="text_1">
    <!-- t = 3.2 -->
    <defs>
     <path d="M 18.3125 70.21875 
L 18.3125 54.6875 
L 36.8125 54.6875 
L 36.8125 47.703125 
L 18.3125 47.703125 
L 18.3125 18.015625 
Q 18.3125 11.328125 20.140625 9.421875 
Q 21.96875 7.515625 27.59375 7.515625 
L 36.8125 7.515625 
L 36.8125 0 
L 27.59375 0 
Q 17.1875 0 13.234375 3.875 
Q 9.28125 7.765625 9.28125 18.015625 
L 9.28125 47.703125 
L 2.6875 47.703125 
L 2.6875 54.6875 
L 9.28125 54.6875 
L 9.28125 70.21875 
z
" id="DejaVuSans-116"/>
     <path id="DejaVuSans-32"/>
     <path d="M 10.59375 45.40625 
L 73.1875 45.40625 
L 73.1875 37.203125 
L 10.59375 37.203125 
z
M 10.59375 25.484375 
L 73.1875 25.484375 
L 73.1875 17.1875 
L 10.59375 17.1875 
z
" id="DejaVuSans-61"/>
     <path d="M 40.578125 39.3125 
Q 47.65625 37.796875 51.625 33 
Q 55.609375 28.21875 55.609375 21.1875 
Q 55.609375 10.40625 48.1875 4.484375 
Q 40.765625 -1.421875 27.09375 -1.421875 
Q 22.515625 -1.421875 17.65625 -0.515625 
Q 12.796875 0.390625 7.625 2.203125 
L 7.625 11.71875 
Q 11.71875 9.328125 16.59375 8.109375 
Q 21.484375 6.890625 26.8125 6.890625 
Q 36.078125 6.890625 40.9375 10.546875 
Q 45.796875 14.203125 45.796875 21.1875 
Q 45.796875 27.640625 41.28125 31.265625 
Q 36.765625 34.90625 28.71875 34.90625 
L 20.21875 34.90625 
L 20.21875 43.015625 
L 29.109375 43.015625 
Q 36.375 43.015625 40.234375 45.921875 
Q 44.09375 48.828125 44.09375 54.296875 
Q 44.09375 59.90625 40.109375 62.90625 
Q 36.140625 65.921875 28.71875 65.921875 
Q 24.65625 65.921875 20.015625 65.03125 
Q 15.375 64.15625 9.8125 62.3125 
L 9.8125 71.09375 
Q 15.4375 72.65625 20.34375 73.4375 
Q 25.25 74.21875 29.59375 74.21875 
Q 40.828125 74.21875 47.359375 69.109375 
Q 53.90625 64.015625 53.90625 55.328125 
Q 53.90625 49.265625 50.4375 45.09375 
Q 46.96875 40.921875 40.578125 39.3125 
z
" id="DejaVuSans-51"/>
     <path d="M 10.6875 12.40625 
L 21 12.40625 
L 21 0 
L 10.6875 0 
z
" id="DejaVuSans-46"/>
     <path d="M 19.1875 8.296875 
L 53.609375 8.296875 
L 53.609375 0 
L 7.328125 0 
L 7.328125 8.296875 
Q 12.9375 14.109375 22.625 23.890625 
Q 32.328125 33.6875 34.8125 36.53125 
Q 39.546875 41.84375 41.421875 45.53125 
Q 43.3125 49.21875 43.3125 52.78125 
Q 43.3125 58.59375 39.234375 62.25 
Q 35.15625 65.921875 28.609375 65.921875 
Q 23.96875 65.921875 18.8125 64.3125 
Q 13.671875 62.703125 7.8125 59.421875 
L 7.8125 69.390625 
Q 13.765625 71.78125 18.9375 73 
Q 24.125 74.21875 28.421875 74.21875 
Q 39.75 74.21875 46.484375 68.546875 
Q 53.21875 62.890625 53.21875 53.421875 
Q 53.21875 48.921875 51.53125 44.890625 
Q 49.859375 40.875 45.40625 35.40625 
Q 44.1875 33.984375 37.640625 27.21875 
Q 31.109375 20.453125 19.1875 8.296875 
z
" id="DejaVuSans-50"/>
    </defs>
    <g transform="translate(200.664375 28.56)scale(0.12 -0.12)">
     <use xlink:href="#DejaVuSans-116"/>
     <use x="39.208984" xlink:href="#DejaVuSans-32"/>
     <use x="70.996094" xlink:href="#DejaVuSans-61"/>
     <use x="154.785156" xlink:href="#DejaVuSans-32"/>
     <use x="186.572266" xlink:href="#DejaVuSans-51"/>
     <use x="250.195312" xlink:href="#DejaVuSans-46"/>
     <use x="281.982422" xlink:href="#DejaVuSans-50"/>
    </g>
   </g>
  </g>
 </g>
 <defs>
  <clipPath id="pca744fc9f4">
   <rect height="217.44" width="334.8" x="54" y="34.56"/>
  </clipPath>
 </defs>
</svg>
