<?xml version="1.0" encoding="utf-8" standalone="no"?>
<!DOCTYPE svg PUBLIC "-//W3C//DTD SVG 1.1//EN"
  "http://www.w3.org/Graphics/SVG/1.1/DTD/svg11.dtd">
<!-- Created with matplotlib (https://matplotlib.org/) -->
<svg height="288pt" version="1.1" viewBox="0 0 432 288" width="432pt" xmlns="http://www.w3.org/2000/svg" xmlns:xlink="http://www.w3.org/1999/xlink">
 <defs>
  <style type="text/css">
*{stroke-linecap:butt;stroke-linejoin:round;}
  </style>
 </defs>
 <g id="figure_1">
  <g id="patch_1">
   <path d="M 0 288 
L 432 288 
L 432 0 
L 0 0 
z
" style="fill:#ffffff;"/>
  </g>
  <g id="axes_1">
   <g id="patch_2">
    <path clip-path="url(#pab0d72926c)" d="M 193.060181 134.948593 
L 193.475101 145.812673 
L 192.388693 145.854165 
L 191.973773 134.990085 
z
" style="stroke:#000000;stroke-linejoin:miter;"/>
   </g>
   <g id="patch_3">
    <path clip-path="url(#pab0d72926c)" d="M 247.380579 132.873993 
L 247.795499 143.738073 
L 246.709091 143.779565 
L 246.294171 132.915485 
z
" style="stroke:#000000;stroke-linejoin:miter;"/>
   </g>
   <g id="patch_4">
    <path clip-path="url(#pab0d72926c)" d="M 210.623776 134.277806 
L 210.454071 133.732339 
L 209.990869 133.234184 
L 209.242742 132.816755 
L 208.222807 132.508726 
L 206.948459 132.332126 
L 205.441043 132.300877 
L 203.725478 132.419836 
L 201.829834 132.684436 
L 199.784877 133.08093 
L 197.62359 133.587232 
L 195.380671 134.174298 
L 193.092012 134.807962 
L 190.794171 135.451095 
L 188.523841 136.065969 
L 186.317314 136.616652 
L 184.20995 137.071283 
L 182.235653 137.404096 
L 180.42636 137.597033 
L 178.811548 137.640869 
L 177.417766 137.535755 
L 176.268194 137.291165 
L 175.382249 136.925227 
L 174.775224 136.463506 
L 174.457992 135.937305 
L 174.436768 135.381598 
L 174.712941 134.832734 
L 175.282982 134.326059 
L 176.138435 133.893613 
L 177.266002 133.562055 
L 178.647708 133.35094 
L 180.261159 133.271482 
L 182.079898 133.325858 
L 184.073828 133.507117 
L 186.209729 133.79969 
L 188.45183 134.18047 
L 190.762444 134.62039 
L 193.102645 135.086387 
L 195.432969 135.543643 
L 197.714132 135.957926 
L 199.907739 136.297906 
L 201.976981 136.537271 
L 203.887285 136.656514 
L 205.606926 136.644276 
L 207.107567 136.498144 
L 208.364733 136.224861 
L 209.358203 135.839936 
L 210.072313 135.366662 
L 210.496169 134.834628 
z
" style="fill:#0000ff;stroke:#000000;stroke-linejoin:miter;"/>
   </g>
   <g id="patch_5">
    <path clip-path="url(#pab0d72926c)" d="M 264.944174 132.203206 
L 264.774469 131.657739 
L 264.311267 131.159584 
L 263.56314 130.742155 
L 262.543205 130.434126 
L 261.268857 130.257526 
L 259.761441 130.226277 
L 258.045876 130.345236 
L 256.150232 130.609836 
L 254.105275 131.00633 
L 251.943988 131.512632 
L 249.701069 132.099699 
L 247.41241 132.733362 
L 245.114568 133.376495 
L 242.844239 133.991369 
L 240.637712 134.542052 
L 238.530348 134.996683 
L 236.556051 135.329496 
L 234.746758 135.522433 
L 233.131946 135.566269 
L 231.738164 135.461155 
L 230.588592 135.216565 
L 229.702647 134.850627 
L 229.095622 134.388906 
L 228.77839 133.862705 
L 228.757166 133.306998 
L 229.033339 132.758134 
L 229.603379 132.251459 
L 230.458833 131.819013 
L 231.5864 131.487455 
L 232.968106 131.27634 
L 234.581557 131.196882 
L 236.400296 131.251258 
L 238.394226 131.432517 
L 240.530127 131.72509 
L 242.772228 132.10587 
L 245.082842 132.54579 
L 247.423043 133.011787 
L 249.753367 133.469043 
L 252.03453 133.883326 
L 254.228137 134.223306 
L 256.297379 134.462671 
L 258.207683 134.581914 
L 259.927324 134.569676 
L 261.427965 134.423544 
L 262.685131 134.150261 
L 263.678601 133.765336 
L 264.392711 133.292062 
L 264.816567 132.760028 
z
" style="fill:#0000ff;stroke:#000000;stroke-linejoin:miter;"/>
   </g>
   <g id="patch_6">
    <path clip-path="url(#pab0d72926c)" d="M 252.580605 140.835339 
L 187.396127 143.324859 
L 187.603587 148.756899 
L 252.788065 146.267379 
z
" style="fill:#999999;stroke:#000000;stroke-linejoin:miter;"/>
   </g>
   <g id="text_1">
    <!-- t = 1.2 -->
    <defs>
     <path d="M 18.3125 70.21875 
L 18.3125 54.6875 
L 36.8125 54.6875 
L 36.8125 47.703125 
L 18.3125 47.703125 
L 18.3125 18.015625 
Q 18.3125 11.328125 20.140625 9.421875 
Q 21.96875 7.515625 27.59375 7.515625 
L 36.8125 7.515625 
L 36.8125 0 
L 27.59375 0 
Q 17.1875 0 13.234375 3.875 
Q 9.28125 7.765625 9.28125 18.015625 
L 9.28125 47.703125 
L 2.6875 47.703125 
L 2.6875 54.6875 
L 9.28125 54.6875 
L 9.28125 70.21875 
z
" id="DejaVuSans-116"/>
     <path id="DejaVuSans-32"/>
     <path d="M 10.59375 45.40625 
L 73.1875 45.40625 
L 73.1875 37.203125 
L 10.59375 37.203125 
z
M 10.59375 25.484375 
L 73.1875 25.484375 
L 73.1875 17.1875 
L 10.59375 17.1875 
z
" id="DejaVuSans-61"/>
     <path d="M 12.40625 8.296875 
L 28.515625 8.296875 
L 28.515625 63.921875 
L 10.984375 60.40625 
L 10.984375 69.390625 
L 28.421875 72.90625 
L 38.28125 72.90625 
L 38.28125 8.296875 
L 54.390625 8.296875 
L 54.390625 0 
L 12.40625 0 
z
" id="DejaVuSans-49"/>
     <path d="M 10.6875 12.40625 
L 21 12.40625 
L 21 0 
L 10.6875 0 
z
" id="DejaVuSans-46"/>
     <path d="M 19.1875 8.296875 
L 53.609375 8.296875 
L 53.609375 0 
L 7.328125 0 
L 7.328125 8.296875 
Q 12.9375 14.109375 22.625 23.890625 
Q 32.328125 33.6875 34.8125 36.53125 
Q 39.546875 41.84375 41.421875 45.53125 
Q 43.3125 49.21875 43.3125 52.78125 
Q 43.3125 58.59375 39.234375 62.25 
Q 35.15625 65.921875 28.609375 65.921875 
Q 23.96875 65.921875 18.8125 64.3125 
Q 13.671875 62.703125 7.8125 59.421875 
L 7.8125 69.390625 
Q 13.765625 71.78125 18.9375 73 
Q 24.125 74.21875 28.421875 74.21875 
Q 39.75 74.21875 46.484375 68.546875 
Q 53.21875 62.890625 53.21875 53.421875 
Q 53.21875 48.921875 51.53125 44.890625 
Q 49.859375 40.875 45.40625 35.40625 
Q 44.1875 33.984375 37.640625 27.21875 
Q 31.109375 20.453125 19.1875 8.296875 
z
" id="DejaVuSans-50"/>
    </defs>
    <g transform="translate(200.664375 28.56)scale(0.12 -0.12)">
     <use xlink:href="#DejaVuSans-116"/>
     <use x="39.208984" xlink:href="#DejaVuSans-32"/>
     <use x="70.996094" xlink:href="#DejaVuSans-61"/>
     <use x="154.785156" xlink:href="#DejaVuSans-32"/>
     <use x="186.572266" xlink:href="#DejaVuSans-49"/>
     <use x="250.195312" xlink:href="#DejaVuSans-46"/>
     <use x="281.982422" xlink:href="#DejaVuSans-50"/>
    </g>
   </g>
  </g>
 </g>
 <defs>
  <clipPath id="pab0d72926c">
   <rect height="217.44" width="334.8" x="54" y="34.56"/>
  </clipPath>
 </defs>
</svg>
