<?xml version="1.0" encoding="utf-8" standalone="no"?>
<!DOCTYPE svg PUBLIC "-//W3C//DTD SVG 1.1//EN"
  "http://www.w3.org/Graphics/SVG/1.1/DTD/svg11.dtd">
<!-- Created with matplotlib (https://matplotlib.org/) -->
<svg height="288pt" version="1.1" viewBox="0 0 432 288" width="432pt" xmlns="http://www.w3.org/2000/svg" xmlns:xlink="http://www.w3.org/1999/xlink">
 <defs>
  <style type="text/css">
*{stroke-linecap:butt;stroke-linejoin:round;}
  </style>
 </defs>
 <g id="figure_1">
  <g id="patch_1">
   <path d="M 0 288 
L 432 288 
L 432 0 
L 0 0 
z
" style="fill:#ffffff;"/>
  </g>
  <g id="axes_1">
   <g id="patch_2">
    <path clip-path="url(#p8eaff43b81)" d="M 194.78316 132.411671 
L 194.783955 143.283671 
L 193.696755 143.28375 
L 193.69596 132.41175 
z
" style="stroke:#000000;stroke-linejoin:miter;"/>
   </g>
   <g id="patch_3">
    <path clip-path="url(#p8eaff43b81)" d="M 249.14316 132.407697 
L 249.143955 143.279696 
L 248.056755 143.279776 
L 248.05596 132.407776 
z
" style="stroke:#000000;stroke-linejoin:miter;"/>
   </g>
   <g id="patch_4">
    <path clip-path="url(#p8eaff43b81)" d="M 212.35956 132.410386 
L 212.210755 131.85885 
L 211.766865 131.343413 
L 211.035181 130.89779 
L 210.027719 130.551134 
L 208.761022 130.326121 
L 207.255891 130.237476 
L 205.53704 130.291001 
L 203.632692 130.483202 
L 201.574116 130.801514 
L 199.395113 131.225122 
L 197.13146 131.726328 
L 194.820324 132.272354 
L 192.499653 132.827493 
L 190.20755 133.355442 
L 187.981648 133.821676 
L 185.858497 134.195706 
L 183.872955 134.453074 
L 182.057626 134.576953 
L 180.442316 134.559247 
L 179.053549 134.401119 
L 177.914128 134.112918 
L 177.042765 133.713499 
L 176.453768 133.228991 
L 176.15681 132.691088 
L 176.156769 132.134976 
L 176.453648 131.59703 
L 177.042575 131.112436 
L 177.91388 130.712889 
L 179.053258 130.424522 
L 180.442002 130.266191 
L 182.05731 130.248249 
L 183.872657 130.371862 
L 185.858236 130.62894 
L 187.981442 131.00266 
L 190.207412 131.468568 
L 192.499592 131.996182 
L 194.820345 132.550982 
L 197.13156 133.09667 
L 199.395287 133.597544 
L 201.574352 134.020835 
L 203.632974 134.338845 
L 205.53735 134.530768 
L 207.256209 134.584042 
L 208.761327 134.495176 
L 210.027991 134.269978 
L 211.035402 133.923175 
L 211.767021 133.477445 
L 212.210835 132.961943 
z
" style="fill:#0000ff;stroke:#000000;stroke-linejoin:miter;"/>
   </g>
   <g id="patch_5">
    <path clip-path="url(#p8eaff43b81)" d="M 266.71956 132.406412 
L 266.570755 131.854876 
L 266.126865 131.339439 
L 265.395181 130.893816 
L 264.387719 130.54716 
L 263.121022 130.322147 
L 261.615891 130.233502 
L 259.89704 130.287027 
L 257.992692 130.479228 
L 255.934116 130.79754 
L 253.755113 131.221148 
L 251.49146 131.722354 
L 249.180324 132.26838 
L 246.859653 132.823519 
L 244.567549 133.351468 
L 242.341648 133.817702 
L 240.218496 134.191732 
L 238.232955 134.4491 
L 236.417626 134.572979 
L 234.802316 134.555273 
L 233.413549 134.397145 
L 232.274128 134.108944 
L 231.402765 133.709525 
L 230.813768 133.225017 
L 230.51681 132.687114 
L 230.516769 132.131002 
L 230.813648 131.593056 
L 231.402575 131.108462 
L 232.27388 130.708915 
L 233.413258 130.420548 
L 234.802002 130.262217 
L 236.41731 130.244274 
L 238.232657 130.367888 
L 240.218236 130.624966 
L 242.341442 130.998686 
L 244.567412 131.464594 
L 246.859592 131.992208 
L 249.180345 132.547008 
L 251.49156 133.092696 
L 253.755286 133.59357 
L 255.934352 134.016861 
L 257.992974 134.334871 
L 259.89735 134.526794 
L 261.616209 134.580067 
L 263.121327 134.491202 
L 264.387991 134.266004 
L 265.395402 133.919201 
L 266.127021 133.473471 
L 266.570835 132.957969 
z
" style="fill:#0000ff;stroke:#000000;stroke-linejoin:miter;"/>
   </g>
   <g id="patch_6">
    <path clip-path="url(#p8eaff43b81)" d="M 254.036156 140.561339 
L 188.804156 140.566108 
L 188.804553 146.002108 
L 254.036553 145.997339 
z
" style="fill:#999999;stroke:#000000;stroke-linejoin:miter;"/>
   </g>
   <g id="text_1">
    <!-- t = 3.4 -->
    <defs>
     <path d="M 18.3125 70.21875 
L 18.3125 54.6875 
L 36.8125 54.6875 
L 36.8125 47.703125 
L 18.3125 47.703125 
L 18.3125 18.015625 
Q 18.3125 11.328125 20.140625 9.421875 
Q 21.96875 7.515625 27.59375 7.515625 
L 36.8125 7.515625 
L 36.8125 0 
L 27.59375 0 
Q 17.1875 0 13.234375 3.875 
Q 9.28125 7.765625 9.28125 18.015625 
L 9.28125 47.703125 
L 2.6875 47.703125 
L 2.6875 54.6875 
L 9.28125 54.6875 
L 9.28125 70.21875 
z
" id="DejaVuSans-116"/>
     <path id="DejaVuSans-32"/>
     <path d="M 10.59375 45.40625 
L 73.1875 45.40625 
L 73.1875 37.203125 
L 10.59375 37.203125 
z
M 10.59375 25.484375 
L 73.1875 25.484375 
L 73.1875 17.1875 
L 10.59375 17.1875 
z
" id="DejaVuSans-61"/>
     <path d="M 40.578125 39.3125 
Q 47.65625 37.796875 51.625 33 
Q 55.609375 28.21875 55.609375 21.1875 
Q 55.609375 10.40625 48.1875 4.484375 
Q 40.765625 -1.421875 27.09375 -1.421875 
Q 22.515625 -1.421875 17.65625 -0.515625 
Q 12.796875 0.390625 7.625 2.203125 
L 7.625 11.71875 
Q 11.71875 9.328125 16.59375 8.109375 
Q 21.484375 6.890625 26.8125 6.890625 
Q 36.078125 6.890625 40.9375 10.546875 
Q 45.796875 14.203125 45.796875 21.1875 
Q 45.796875 27.640625 41.28125 31.265625 
Q 36.765625 34.90625 28.71875 34.90625 
L 20.21875 34.90625 
L 20.21875 43.015625 
L 29.109375 43.015625 
Q 36.375 43.015625 40.234375 45.921875 
Q 44.09375 48.828125 44.09375 54.296875 
Q 44.09375 59.90625 40.109375 62.90625 
Q 36.140625 65.921875 28.71875 65.921875 
Q 24.65625 65.921875 20.015625 65.03125 
Q 15.375 64.15625 9.8125 62.3125 
L 9.8125 71.09375 
Q 15.4375 72.65625 20.34375 73.4375 
Q 25.25 74.21875 29.59375 74.21875 
Q 40.828125 74.21875 47.359375 69.109375 
Q 53.90625 64.015625 53.90625 55.328125 
Q 53.90625 49.265625 50.4375 45.09375 
Q 46.96875 40.921875 40.578125 39.3125 
z
" id="DejaVuSans-51"/>
     <path d="M 10.6875 12.40625 
L 21 12.40625 
L 21 0 
L 10.6875 0 
z
" id="DejaVuSans-46"/>
     <path d="M 37.796875 64.3125 
L 12.890625 25.390625 
L 37.796875 25.390625 
z
M 35.203125 72.90625 
L 47.609375 72.90625 
L 47.609375 25.390625 
L 58.015625 25.390625 
L 58.015625 17.1875 
L 47.609375 17.1875 
L 47.609375 0 
L 37.796875 0 
L 37.796875 17.1875 
L 4.890625 17.1875 
L 4.890625 26.703125 
z
" id="DejaVuSans-52"/>
    </defs>
    <g transform="translate(200.664375 28.56)scale(0.12 -0.12)">
     <use xlink:href="#DejaVuSans-116"/>
     <use x="39.208984" xlink:href="#DejaVuSans-32"/>
     <use x="70.996094" xlink:href="#DejaVuSans-61"/>
     <use x="154.785156" xlink:href="#DejaVuSans-32"/>
     <use x="186.572266" xlink:href="#DejaVuSans-51"/>
     <use x="250.195312" xlink:href="#DejaVuSans-46"/>
     <use x="281.982422" xlink:href="#DejaVuSans-52"/>
    </g>
   </g>
  </g>
 </g>
 <defs>
  <clipPath id="p8eaff43b81">
   <rect height="217.44" width="334.8" x="54" y="34.56"/>
  </clipPath>
 </defs>
</svg>
