<?xml version="1.0" encoding="utf-8" standalone="no"?>
<!DOCTYPE svg PUBLIC "-//W3C//DTD SVG 1.1//EN"
  "http://www.w3.org/Graphics/SVG/1.1/DTD/svg11.dtd">
<!-- Created with matplotlib (https://matplotlib.org/) -->
<svg height="288pt" version="1.1" viewBox="0 0 432 288" width="432pt" xmlns="http://www.w3.org/2000/svg" xmlns:xlink="http://www.w3.org/1999/xlink">
 <defs>
  <style type="text/css">
*{stroke-linecap:butt;stroke-linejoin:round;}
  </style>
 </defs>
 <g id="figure_1">
  <g id="patch_1">
   <path d="M 0 288 
L 432 288 
L 432 0 
L 0 0 
z
" style="fill:#ffffff;"/>
  </g>
  <g id="axes_1">
   <g id="patch_2">
    <path clip-path="url(#p5dd28501ff)" d="M 195.147656 139.969354 
L 196.038174 150.804822 
L 194.954628 150.893874 
L 194.06411 140.058406 
z
" style="stroke:#000000;stroke-linejoin:miter;"/>
   </g>
   <g id="patch_3">
    <path clip-path="url(#p5dd28501ff)" d="M 249.324995 135.516764 
L 250.215513 146.352232 
L 249.131966 146.441284 
L 248.241448 135.605816 
z
" style="stroke:#000000;stroke-linejoin:miter;"/>
   </g>
   <g id="patch_4">
    <path clip-path="url(#p5dd28501ff)" d="M 212.664996 138.529684 
L 212.471554 137.992176 
L 211.986972 137.514794 
L 211.221274 137.130544 
L 210.188822 136.867497 
L 208.90796 136.746902 
L 207.400623 136.781728 
L 205.691918 136.975739 
L 203.809686 137.32314 
L 201.784065 137.80885 
L 199.647037 138.40936 
L 197.431994 139.094134 
L 195.173295 139.827463 
L 192.905838 140.570656 
L 190.664629 141.284412 
L 188.484348 141.931241 
L 186.398927 142.477768 
L 184.441108 142.896763 
L 182.642006 143.168787 
L 181.030665 143.283331 
L 179.633615 143.239385 
L 178.474431 143.045397 
L 177.573304 142.718627 
L 176.946632 142.283946 
L 176.60665 141.772149 
L 176.561099 141.217906 
L 176.812959 140.657468 
L 177.360252 140.126304 
L 178.195937 139.656793 
L 179.307895 139.27615 
L 180.679024 139.0047 
L 182.287445 138.854627 
L 184.106819 138.829265 
L 186.106776 138.922988 
L 188.253445 139.121698 
L 190.510076 139.403878 
L 192.837746 139.742139 
L 195.196117 140.105155 
L 197.544237 140.459872 
L 199.841361 140.77381 
L 202.047757 141.017354 
L 204.1255 141.165827 
L 206.039194 141.201259 
L 207.756647 141.113689 
L 209.249444 140.901948 
L 210.49343 140.573846 
L 211.469081 140.145763 
L 212.161769 139.641655 
L 212.561908 139.091562 
z
" style="fill:#0000ff;stroke:#000000;stroke-linejoin:miter;"/>
   </g>
   <g id="patch_5">
    <path clip-path="url(#p5dd28501ff)" d="M 266.842335 134.077094 
L 266.648893 133.539586 
L 266.16431 133.062204 
L 265.398613 132.677954 
L 264.366161 132.414908 
L 263.085299 132.294312 
L 261.577962 132.329138 
L 259.869256 132.523149 
L 257.987025 132.87055 
L 255.961404 133.35626 
L 253.824376 133.95677 
L 251.609332 134.641544 
L 249.350634 135.374873 
L 247.083177 136.118066 
L 244.841967 136.831822 
L 242.661687 137.478651 
L 240.576266 138.025178 
L 238.618447 138.444173 
L 236.819345 138.716197 
L 235.208004 138.830741 
L 233.810954 138.786795 
L 232.65177 138.592807 
L 231.750643 138.266037 
L 231.123971 137.831356 
L 230.783989 137.319559 
L 230.738438 136.765316 
L 230.990298 136.204878 
L 231.537591 135.673714 
L 232.373276 135.204203 
L 233.485234 134.82356 
L 234.856363 134.55211 
L 236.464784 134.402037 
L 238.284158 134.376675 
L 240.284115 134.470398 
L 242.430784 134.669108 
L 244.687415 134.951288 
L 247.015085 135.289549 
L 249.373456 135.652566 
L 251.721576 136.007282 
L 254.018699 136.32122 
L 256.225096 136.564764 
L 258.302838 136.713237 
L 260.216533 136.748669 
L 261.933986 136.661099 
L 263.426783 136.449358 
L 264.670769 136.121256 
L 265.64642 135.693173 
L 266.339108 135.189065 
L 266.739247 134.638972 
z
" style="fill:#0000ff;stroke:#000000;stroke-linejoin:miter;"/>
   </g>
   <g id="patch_6">
    <path clip-path="url(#p5dd28501ff)" d="M 254.868844 143.242632 
L 189.856038 148.58574 
L 190.301297 154.003474 
L 255.314103 148.660366 
z
" style="fill:#999999;stroke:#000000;stroke-linejoin:miter;"/>
   </g>
   <g id="text_1">
    <!-- t = 1.1 -->
    <defs>
     <path d="M 18.3125 70.21875 
L 18.3125 54.6875 
L 36.8125 54.6875 
L 36.8125 47.703125 
L 18.3125 47.703125 
L 18.3125 18.015625 
Q 18.3125 11.328125 20.140625 9.421875 
Q 21.96875 7.515625 27.59375 7.515625 
L 36.8125 7.515625 
L 36.8125 0 
L 27.59375 0 
Q 17.1875 0 13.234375 3.875 
Q 9.28125 7.765625 9.28125 18.015625 
L 9.28125 47.703125 
L 2.6875 47.703125 
L 2.6875 54.6875 
L 9.28125 54.6875 
L 9.28125 70.21875 
z
" id="DejaVuSans-116"/>
     <path id="DejaVuSans-32"/>
     <path d="M 10.59375 45.40625 
L 73.1875 45.40625 
L 73.1875 37.203125 
L 10.59375 37.203125 
z
M 10.59375 25.484375 
L 73.1875 25.484375 
L 73.1875 17.1875 
L 10.59375 17.1875 
z
" id="DejaVuSans-61"/>
     <path d="M 12.40625 8.296875 
L 28.515625 8.296875 
L 28.515625 63.921875 
L 10.984375 60.40625 
L 10.984375 69.390625 
L 28.421875 72.90625 
L 38.28125 72.90625 
L 38.28125 8.296875 
L 54.390625 8.296875 
L 54.390625 0 
L 12.40625 0 
z
" id="DejaVuSans-49"/>
     <path d="M 10.6875 12.40625 
L 21 12.40625 
L 21 0 
L 10.6875 0 
z
" id="DejaVuSans-46"/>
    </defs>
    <g transform="translate(200.664375 28.56)scale(0.12 -0.12)">
     <use xlink:href="#DejaVuSans-116"/>
     <use x="39.208984" xlink:href="#DejaVuSans-32"/>
     <use x="70.996094" xlink:href="#DejaVuSans-61"/>
     <use x="154.785156" xlink:href="#DejaVuSans-32"/>
     <use x="186.572266" xlink:href="#DejaVuSans-49"/>
     <use x="250.195312" xlink:href="#DejaVuSans-46"/>
     <use x="281.982422" xlink:href="#DejaVuSans-49"/>
    </g>
   </g>
  </g>
 </g>
 <defs>
  <clipPath id="p5dd28501ff">
   <rect height="217.44" width="334.8" x="54" y="34.56"/>
  </clipPath>
 </defs>
</svg>
