<?xml version="1.0" encoding="utf-8" standalone="no"?>
<!DOCTYPE svg PUBLIC "-//W3C//DTD SVG 1.1//EN"
  "http://www.w3.org/Graphics/SVG/1.1/DTD/svg11.dtd">
<!-- Created with matplotlib (https://matplotlib.org/) -->
<svg height="288pt" version="1.1" viewBox="0 0 432 288" width="432pt" xmlns="http://www.w3.org/2000/svg" xmlns:xlink="http://www.w3.org/1999/xlink">
 <defs>
  <style type="text/css">
*{stroke-linecap:butt;stroke-linejoin:round;}
  </style>
 </defs>
 <g id="figure_1">
  <g id="patch_1">
   <path d="M 0 288 
L 432 288 
L 432 0 
L 0 0 
z
" style="fill:#ffffff;"/>
  </g>
  <g id="axes_1">
   <g id="patch_2">
    <path clip-path="url(#p3c42f2739e)" d="M 194.817809 132.392868 
L 194.809823 143.264865 
L 193.722623 143.264066 
L 193.730609 132.392069 
z
" style="stroke:#000000;stroke-linejoin:miter;"/>
   </g>
   <g id="patch_3">
    <path clip-path="url(#p3c42f2739e)" d="M 249.177794 132.432796 
L 249.169809 143.304794 
L 248.082609 143.303995 
L 248.090595 132.431998 
z
" style="stroke:#000000;stroke-linejoin:miter;"/>
   </g>
   <g id="patch_4">
    <path clip-path="url(#p3c42f2739e)" d="M 212.394204 132.405778 
L 212.245844 131.854122 
L 211.802371 131.338327 
L 211.071047 130.892114 
L 210.063866 130.544643 
L 208.797351 130.318608 
L 207.292292 130.228747 
L 205.573398 130.280884 
L 203.668896 130.471547 
L 201.610064 130.788196 
L 199.430719 131.210045 
L 197.166662 131.709421 
L 194.855086 132.253581 
L 192.533967 132.806846 
L 190.241438 133.332943 
L 188.015161 133.797379 
L 185.891708 134.169694 
L 183.905959 134.425459 
L 182.09053 134.547872 
L 180.475235 134.528861 
L 179.086596 134.369612 
L 177.947409 134.080491 
L 177.076368 133.680368 
L 176.487763 133.195385 
L 176.191239 132.657242 
L 176.191648 132.10113 
L 176.488961 131.563424 
L 177.078279 131.079306 
L 177.949906 130.680463 
L 179.089517 130.393016 
L 180.478389 130.235806 
L 182.09371 130.219169 
L 183.908957 130.344249 
L 185.894327 130.60293 
L 188.017231 130.978364 
L 190.242824 131.44607 
L 192.534578 131.975535 
L 194.854881 132.532209 
L 197.165655 133.079764 
L 199.428976 133.582466 
L 201.607699 134.007516 
L 203.666064 134.327189 
L 205.570284 134.520649 
L 207.289099 134.575312 
L 208.794289 134.487662 
L 210.061134 134.263487 
L 211.068825 133.917497 
L 211.800804 133.472359 
L 212.245034 132.957215 
z
" style="fill:#0000ff;stroke:#000000;stroke-linejoin:miter;"/>
   </g>
   <g id="patch_5">
    <path clip-path="url(#p3c42f2739e)" d="M 266.75419 132.445707 
L 266.60583 131.894051 
L 266.162356 131.378256 
L 265.431033 130.932042 
L 264.423851 130.584572 
L 263.157336 130.358537 
L 261.652277 130.268676 
L 259.933384 130.320813 
L 258.028881 130.511476 
L 255.970049 130.828125 
L 253.790704 131.249973 
L 251.526647 131.74935 
L 249.215071 132.29351 
L 246.893952 132.846774 
L 244.601423 133.372872 
L 242.375146 133.837308 
L 240.251693 134.209623 
L 238.265944 134.465388 
L 236.450516 134.587801 
L 234.835221 134.56879 
L 233.446582 134.409541 
L 232.307394 134.12042 
L 231.436354 133.720297 
L 230.847748 133.235313 
L 230.551225 132.697171 
L 230.551633 132.141059 
L 230.848947 131.603353 
L 231.438264 131.119234 
L 232.309892 130.720392 
L 233.449503 130.432944 
L 234.838374 130.275735 
L 236.453695 130.259097 
L 238.268942 130.384177 
L 240.254313 130.642859 
L 242.377217 131.018293 
L 244.602809 131.485999 
L 246.894563 132.015464 
L 249.214867 132.572138 
L 251.52564 133.119693 
L 253.788962 133.622395 
L 255.967684 134.047445 
L 258.026049 134.367118 
L 259.930269 134.560578 
L 261.649085 134.61524 
L 263.154274 134.52759 
L 264.421119 134.303416 
L 265.42881 133.957426 
L 266.160789 133.512287 
L 266.60502 132.997144 
z
" style="fill:#0000ff;stroke:#000000;stroke-linejoin:miter;"/>
   </g>
   <g id="patch_6">
    <path clip-path="url(#p3c42f2739e)" d="M 254.064204 140.590388 
L 188.832221 140.542473 
L 188.828228 145.978472 
L 254.060211 146.026386 
z
" style="fill:#999999;stroke:#000000;stroke-linejoin:miter;"/>
   </g>
   <g id="text_1">
    <!-- t = 3.2 -->
    <defs>
     <path d="M 18.3125 70.21875 
L 18.3125 54.6875 
L 36.8125 54.6875 
L 36.8125 47.703125 
L 18.3125 47.703125 
L 18.3125 18.015625 
Q 18.3125 11.328125 20.140625 9.421875 
Q 21.96875 7.515625 27.59375 7.515625 
L 36.8125 7.515625 
L 36.8125 0 
L 27.59375 0 
Q 17.1875 0 13.234375 3.875 
Q 9.28125 7.765625 9.28125 18.015625 
L 9.28125 47.703125 
L 2.6875 47.703125 
L 2.6875 54.6875 
L 9.28125 54.6875 
L 9.28125 70.21875 
z
" id="DejaVuSans-116"/>
     <path id="DejaVuSans-32"/>
     <path d="M 10.59375 45.40625 
L 73.1875 45.40625 
L 73.1875 37.203125 
L 10.59375 37.203125 
z
M 10.59375 25.484375 
L 73.1875 25.484375 
L 73.1875 17.1875 
L 10.59375 17.1875 
z
" id="DejaVuSans-61"/>
     <path d="M 40.578125 39.3125 
Q 47.65625 37.796875 51.625 33 
Q 55.609375 28.21875 55.609375 21.1875 
Q 55.609375 10.40625 48.1875 4.484375 
Q 40.765625 -1.421875 27.09375 -1.421875 
Q 22.515625 -1.421875 17.65625 -0.515625 
Q 12.796875 0.390625 7.625 2.203125 
L 7.625 11.71875 
Q 11.71875 9.328125 16.59375 8.109375 
Q 21.484375 6.890625 26.8125 6.890625 
Q 36.078125 6.890625 40.9375 10.546875 
Q 45.796875 14.203125 45.796875 21.1875 
Q 45.796875 27.640625 41.28125 31.265625 
Q 36.765625 34.90625 28.71875 34.90625 
L 20.21875 34.90625 
L 20.21875 43.015625 
L 29.109375 43.015625 
Q 36.375 43.015625 40.234375 45.921875 
Q 44.09375 48.828125 44.09375 54.296875 
Q 44.09375 59.90625 40.109375 62.90625 
Q 36.140625 65.921875 28.71875 65.921875 
Q 24.65625 65.921875 20.015625 65.03125 
Q 15.375 64.15625 9.8125 62.3125 
L 9.8125 71.09375 
Q 15.4375 72.65625 20.34375 73.4375 
Q 25.25 74.21875 29.59375 74.21875 
Q 40.828125 74.21875 47.359375 69.109375 
Q 53.90625 64.015625 53.90625 55.328125 
Q 53.90625 49.265625 50.4375 45.09375 
Q 46.96875 40.921875 40.578125 39.3125 
z
" id="DejaVuSans-51"/>
     <path d="M 10.6875 12.40625 
L 21 12.40625 
L 21 0 
L 10.6875 0 
z
" id="DejaVuSans-46"/>
     <path d="M 19.1875 8.296875 
L 53.609375 8.296875 
L 53.609375 0 
L 7.328125 0 
L 7.328125 8.296875 
Q 12.9375 14.109375 22.625 23.890625 
Q 32.328125 33.6875 34.8125 36.53125 
Q 39.546875 41.84375 41.421875 45.53125 
Q 43.3125 49.21875 43.3125 52.78125 
Q 43.3125 58.59375 39.234375 62.25 
Q 35.15625 65.921875 28.609375 65.921875 
Q 23.96875 65.921875 18.8125 64.3125 
Q 13.671875 62.703125 7.8125 59.421875 
L 7.8125 69.390625 
Q 13.765625 71.78125 18.9375 73 
Q 24.125 74.21875 28.421875 74.21875 
Q 39.75 74.21875 46.484375 68.546875 
Q 53.21875 62.890625 53.21875 53.421875 
Q 53.21875 48.921875 51.53125 44.890625 
Q 49.859375 40.875 45.40625 35.40625 
Q 44.1875 33.984375 37.640625 27.21875 
Q 31.109375 20.453125 19.1875 8.296875 
z
" id="DejaVuSans-50"/>
    </defs>
    <g transform="translate(200.664375 28.56)scale(0.12 -0.12)">
     <use xlink:href="#DejaVuSans-116"/>
     <use x="39.208984" xlink:href="#DejaVuSans-32"/>
     <use x="70.996094" xlink:href="#DejaVuSans-61"/>
     <use x="154.785156" xlink:href="#DejaVuSans-32"/>
     <use x="186.572266" xlink:href="#DejaVuSans-51"/>
     <use x="250.195312" xlink:href="#DejaVuSans-46"/>
     <use x="281.982422" xlink:href="#DejaVuSans-50"/>
    </g>
   </g>
  </g>
 </g>
 <defs>
  <clipPath id="p3c42f2739e">
   <rect height="217.44" width="334.8" x="54" y="34.56"/>
  </clipPath>
 </defs>
</svg>
