<?xml version="1.0" encoding="utf-8" standalone="no"?>
<!DOCTYPE svg PUBLIC "-//W3C//DTD SVG 1.1//EN"
  "http://www.w3.org/Graphics/SVG/1.1/DTD/svg11.dtd">
<!-- Created with matplotlib (https://matplotlib.org/) -->
<svg height="288pt" version="1.1" viewBox="0 0 432 288" width="432pt" xmlns="http://www.w3.org/2000/svg" xmlns:xlink="http://www.w3.org/1999/xlink">
 <defs>
  <style type="text/css">
*{stroke-linecap:butt;stroke-linejoin:round;}
  </style>
 </defs>
 <g id="figure_1">
  <g id="patch_1">
   <path d="M 0 288 
L 432 288 
L 432 0 
L 0 0 
z
" style="fill:#ffffff;"/>
  </g>
  <g id="axes_1">
   <g id="patch_2">
    <path clip-path="url(#pfd4738ac9c)" d="M 209.880951 140.319374 
L 208.618788 151.117861 
L 207.538939 150.991645 
L 208.801102 140.193158 
z
" style="stroke:#000000;stroke-linejoin:miter;"/>
   </g>
   <g id="patch_3">
    <path clip-path="url(#pfd4738ac9c)" d="M 263.873387 146.630191 
L 262.611224 157.428679 
L 261.531375 157.302462 
L 262.793539 146.503975 
z
" style="stroke:#000000;stroke-linejoin:miter;"/>
   </g>
   <g id="patch_4">
    <path clip-path="url(#pfd4738ac9c)" d="M 227.338506 142.359872 
L 227.254777 141.794784 
L 226.873769 141.231271 
L 226.198804 140.703669 
L 225.238433 140.242327 
L 224.006451 139.871692 
L 222.521807 139.608802 
L 220.808375 139.462293 
L 218.894593 139.431973 
L 216.812977 139.508994 
L 214.599517 139.676609 
L 212.292966 139.911463 
L 209.934048 140.185317 
L 207.5646 140.467116 
L 205.226685 140.725227 
L 202.961692 140.929731 
L 200.809465 141.054592 
L 198.807469 141.079566 
L 196.99004 140.991728 
L 195.387722 140.786498 
L 194.026726 140.468113 
L 192.928499 140.049502 
L 192.109433 139.551564 
L 191.580707 139.001916 
L 191.348245 138.433158 
L 191.412806 137.880806 
L 191.770166 137.380989 
L 192.411399 136.968089 
L 193.323218 136.672463 
L 194.488382 136.518404 
L 195.886116 136.52247 
L 197.492572 136.692292 
L 199.281269 137.02595 
L 201.223542 137.511944 
L 203.288961 138.129777 
L 205.445737 138.851112 
L 207.661109 139.641426 
L 209.901701 140.462062 
L 212.133879 141.27254 
L 214.324095 142.03299 
L 216.439236 142.706547 
L 218.446979 143.261546 
L 220.316168 143.673392 
L 222.017201 143.925978 
L 223.522452 144.012557 
L 224.806701 143.936027 
L 225.847578 143.708597 
L 226.626022 143.350874 
L 227.126716 142.890418 
z
" style="fill:#0000ff;stroke:#000000;stroke-linejoin:miter;"/>
   </g>
   <g id="patch_5">
    <path clip-path="url(#pfd4738ac9c)" d="M 281.330942 148.670689 
L 281.247214 148.105601 
L 280.866205 147.542089 
L 280.191241 147.014487 
L 279.230869 146.553145 
L 277.998887 146.182509 
L 276.514243 145.919619 
L 274.800811 145.773111 
L 272.887029 145.742791 
L 270.805413 145.819811 
L 268.591953 145.987427 
L 266.285402 146.22228 
L 263.926484 146.496135 
L 261.557036 146.777933 
L 259.219121 147.036044 
L 256.954129 147.240548 
L 254.801902 147.365409 
L 252.799906 147.390383 
L 250.982476 147.302545 
L 249.380159 147.097315 
L 248.019163 146.778931 
L 246.920935 146.360319 
L 246.10187 145.862382 
L 245.573143 145.312733 
L 245.340682 144.743975 
L 245.405242 144.191624 
L 245.762603 143.691806 
L 246.403835 143.278906 
L 247.315655 142.98328 
L 248.480818 142.829222 
L 249.878553 142.833287 
L 251.485008 143.003109 
L 253.273706 143.336767 
L 255.215978 143.822761 
L 257.281397 144.440594 
L 259.438174 145.161929 
L 261.653545 145.952244 
L 263.894137 146.772879 
L 266.126315 147.583357 
L 268.316531 148.343807 
L 270.431672 149.017364 
L 272.439416 149.572363 
L 274.308604 149.984209 
L 276.009637 150.236795 
L 277.514889 150.323374 
L 278.799137 150.246844 
L 279.840015 150.019414 
L 280.618459 149.661692 
L 281.119152 149.201236 
z
" style="fill:#0000ff;stroke:#000000;stroke-linejoin:miter;"/>
   </g>
   <g id="patch_6">
    <path clip-path="url(#pfd4738ac9c)" d="M 267.786084 155.29703 
L 202.995161 147.72405 
L 202.364079 153.123293 
L 267.155002 160.696274 
z
" style="fill:#999999;stroke:#000000;stroke-linejoin:miter;"/>
   </g>
   <g id="text_1">
    <!-- t = 1.0 -->
    <defs>
     <path d="M 18.3125 70.21875 
L 18.3125 54.6875 
L 36.8125 54.6875 
L 36.8125 47.703125 
L 18.3125 47.703125 
L 18.3125 18.015625 
Q 18.3125 11.328125 20.140625 9.421875 
Q 21.96875 7.515625 27.59375 7.515625 
L 36.8125 7.515625 
L 36.8125 0 
L 27.59375 0 
Q 17.1875 0 13.234375 3.875 
Q 9.28125 7.765625 9.28125 18.015625 
L 9.28125 47.703125 
L 2.6875 47.703125 
L 2.6875 54.6875 
L 9.28125 54.6875 
L 9.28125 70.21875 
z
" id="DejaVuSans-116"/>
     <path id="DejaVuSans-32"/>
     <path d="M 10.59375 45.40625 
L 73.1875 45.40625 
L 73.1875 37.203125 
L 10.59375 37.203125 
z
M 10.59375 25.484375 
L 73.1875 25.484375 
L 73.1875 17.1875 
L 10.59375 17.1875 
z
" id="DejaVuSans-61"/>
     <path d="M 12.40625 8.296875 
L 28.515625 8.296875 
L 28.515625 63.921875 
L 10.984375 60.40625 
L 10.984375 69.390625 
L 28.421875 72.90625 
L 38.28125 72.90625 
L 38.28125 8.296875 
L 54.390625 8.296875 
L 54.390625 0 
L 12.40625 0 
z
" id="DejaVuSans-49"/>
     <path d="M 10.6875 12.40625 
L 21 12.40625 
L 21 0 
L 10.6875 0 
z
" id="DejaVuSans-46"/>
     <path d="M 31.78125 66.40625 
Q 24.171875 66.40625 20.328125 58.90625 
Q 16.5 51.421875 16.5 36.375 
Q 16.5 21.390625 20.328125 13.890625 
Q 24.171875 6.390625 31.78125 6.390625 
Q 39.453125 6.390625 43.28125 13.890625 
Q 47.125 21.390625 47.125 36.375 
Q 47.125 51.421875 43.28125 58.90625 
Q 39.453125 66.40625 31.78125 66.40625 
z
M 31.78125 74.21875 
Q 44.046875 74.21875 50.515625 64.515625 
Q 56.984375 54.828125 56.984375 36.375 
Q 56.984375 17.96875 50.515625 8.265625 
Q 44.046875 -1.421875 31.78125 -1.421875 
Q 19.53125 -1.421875 13.0625 8.265625 
Q 6.59375 17.96875 6.59375 36.375 
Q 6.59375 54.828125 13.0625 64.515625 
Q 19.53125 74.21875 31.78125 74.21875 
z
" id="DejaVuSans-48"/>
    </defs>
    <g transform="translate(200.664375 28.56)scale(0.12 -0.12)">
     <use xlink:href="#DejaVuSans-116"/>
     <use x="39.208984" xlink:href="#DejaVuSans-32"/>
     <use x="70.996094" xlink:href="#DejaVuSans-61"/>
     <use x="154.785156" xlink:href="#DejaVuSans-32"/>
     <use x="186.572266" xlink:href="#DejaVuSans-49"/>
     <use x="250.195312" xlink:href="#DejaVuSans-46"/>
     <use x="281.982422" xlink:href="#DejaVuSans-48"/>
    </g>
   </g>
  </g>
 </g>
 <defs>
  <clipPath id="pfd4738ac9c">
   <rect height="217.44" width="334.8" x="54" y="34.56"/>
  </clipPath>
 </defs>
</svg>
