<?xml version="1.0" encoding="utf-8" standalone="no"?>
<!DOCTYPE svg PUBLIC "-//W3C//DTD SVG 1.1//EN"
  "http://www.w3.org/Graphics/SVG/1.1/DTD/svg11.dtd">
<!-- Created with matplotlib (https://matplotlib.org/) -->
<svg height="288pt" version="1.1" viewBox="0 0 432 288" width="432pt" xmlns="http://www.w3.org/2000/svg" xmlns:xlink="http://www.w3.org/1999/xlink">
 <defs>
  <style type="text/css">
*{stroke-linecap:butt;stroke-linejoin:round;}
  </style>
 </defs>
 <g id="figure_1">
  <g id="patch_1">
   <path d="M 0 288 
L 432 288 
L 432 0 
L 0 0 
z
" style="fill:#ffffff;"/>
  </g>
  <g id="axes_1">
   <g id="patch_2">
    <path clip-path="url(#p7b7b0099c5)" d="M 196.720111 137.195548 
L 197.264675 148.053901 
L 196.178839 148.108357 
L 195.634276 137.250004 
z
" style="stroke:#000000;stroke-linejoin:miter;"/>
   </g>
   <g id="patch_3">
    <path clip-path="url(#p7b7b0099c5)" d="M 251.011877 134.472729 
L 251.556441 145.331083 
L 250.470605 145.385539 
L 249.926042 134.527186 
z
" style="stroke:#000000;stroke-linejoin:miter;"/>
   </g>
   <g id="patch_4">
    <path clip-path="url(#p7b7b0099c5)" d="M 214.274449 136.31517 
L 214.098244 135.771767 
L 213.62913 135.279176 
L 212.876074 134.870707 
L 211.852535 134.574873 
L 210.576169 134.413497 
L 209.068488 134.400243 
L 207.354465 134.53967 
L 205.462114 134.826878 
L 203.422035 135.247752 
L 201.266946 135.779815 
L 199.031194 136.393611 
L 196.750261 137.054546 
L 194.46026 137.725061 
L 192.197431 138.36699 
L 189.997634 138.94397 
L 187.895847 139.423723 
L 185.925663 139.780077 
L 184.118802 139.994596 
L 182.504628 140.057703 
L 181.10969 139.969233 
L 179.957281 139.738381 
L 179.067031 139.383044 
L 178.454538 138.928601 
L 178.131048 138.406224 
L 178.103193 137.85081 
L 178.372795 137.298689 
L 178.936747 136.785246 
L 179.786978 136.34262 
L 180.910508 135.997627 
L 182.289595 135.770035 
L 183.901983 135.671325 
L 185.721241 135.703988 
L 187.717193 135.861435 
L 189.856433 136.128493 
L 192.10292 136.482485 
L 194.418621 136.894793 
L 196.764217 137.332825 
L 199.099833 137.762233 
L 201.385777 138.149259 
L 203.583287 138.463032 
L 205.655238 138.677681 
L 207.56683 138.774115 
L 209.286202 138.741353 
L 210.784991 138.577319 
L 212.038806 138.28905 
L 213.027611 137.892294 
L 213.736021 137.41053 
L 214.153497 136.873475 
z
" style="fill:#0000ff;stroke:#000000;stroke-linejoin:miter;"/>
   </g>
   <g id="patch_5">
    <path clip-path="url(#p7b7b0099c5)" d="M 268.566215 133.592351 
L 268.39001 133.048949 
L 267.920896 132.556358 
L 267.16784 132.147889 
L 266.144301 131.852055 
L 264.867935 131.690679 
L 263.360254 131.677424 
L 261.646232 131.816852 
L 259.75388 132.10406 
L 257.713801 132.524934 
L 255.558712 133.056996 
L 253.32296 133.670792 
L 251.042027 134.331728 
L 248.752026 135.002242 
L 246.489197 135.644172 
L 244.2894 136.221152 
L 242.187613 136.700904 
L 240.217429 137.057259 
L 238.410568 137.271778 
L 236.796394 137.334884 
L 235.401456 137.246415 
L 234.249047 137.015563 
L 233.358797 136.660225 
L 232.746304 136.205783 
L 232.422814 135.683406 
L 232.394959 135.127992 
L 232.664561 134.57587 
L 233.228513 134.062427 
L 234.078744 133.619802 
L 235.202274 133.274808 
L 236.581361 133.047217 
L 238.193749 132.948506 
L 240.013007 132.98117 
L 242.008959 133.138616 
L 244.1482 133.405674 
L 246.394686 133.759666 
L 248.710387 134.171975 
L 251.055983 134.610007 
L 253.391599 135.039415 
L 255.677544 135.426441 
L 257.875053 135.740214 
L 259.947004 135.954863 
L 261.858596 136.051297 
L 263.577968 136.018534 
L 265.076758 135.854501 
L 266.330572 135.566232 
L 267.319377 135.169476 
L 268.027787 134.687712 
L 268.445263 134.150657 
z
" style="fill:#0000ff;stroke:#000000;stroke-linejoin:miter;"/>
   </g>
   <g id="patch_6">
    <path clip-path="url(#p7b7b0099c5)" d="M 256.306559 142.371441 
L 191.15644 145.638823 
L 191.428721 151.067999 
L 256.578841 147.800617 
z
" style="fill:#999999;stroke:#000000;stroke-linejoin:miter;"/>
   </g>
   <g id="text_1">
    <!-- t = 1.2 -->
    <defs>
     <path d="M 18.3125 70.21875 
L 18.3125 54.6875 
L 36.8125 54.6875 
L 36.8125 47.703125 
L 18.3125 47.703125 
L 18.3125 18.015625 
Q 18.3125 11.328125 20.140625 9.421875 
Q 21.96875 7.515625 27.59375 7.515625 
L 36.8125 7.515625 
L 36.8125 0 
L 27.59375 0 
Q 17.1875 0 13.234375 3.875 
Q 9.28125 7.765625 9.28125 18.015625 
L 9.28125 47.703125 
L 2.6875 47.703125 
L 2.6875 54.6875 
L 9.28125 54.6875 
L 9.28125 70.21875 
z
" id="DejaVuSans-116"/>
     <path id="DejaVuSans-32"/>
     <path d="M 10.59375 45.40625 
L 73.1875 45.40625 
L 73.1875 37.203125 
L 10.59375 37.203125 
z
M 10.59375 25.484375 
L 73.1875 25.484375 
L 73.1875 17.1875 
L 10.59375 17.1875 
z
" id="DejaVuSans-61"/>
     <path d="M 12.40625 8.296875 
L 28.515625 8.296875 
L 28.515625 63.921875 
L 10.984375 60.40625 
L 10.984375 69.390625 
L 28.421875 72.90625 
L 38.28125 72.90625 
L 38.28125 8.296875 
L 54.390625 8.296875 
L 54.390625 0 
L 12.40625 0 
z
" id="DejaVuSans-49"/>
     <path d="M 10.6875 12.40625 
L 21 12.40625 
L 21 0 
L 10.6875 0 
z
" id="DejaVuSans-46"/>
     <path d="M 19.1875 8.296875 
L 53.609375 8.296875 
L 53.609375 0 
L 7.328125 0 
L 7.328125 8.296875 
Q 12.9375 14.109375 22.625 23.890625 
Q 32.328125 33.6875 34.8125 36.53125 
Q 39.546875 41.84375 41.421875 45.53125 
Q 43.3125 49.21875 43.3125 52.78125 
Q 43.3125 58.59375 39.234375 62.25 
Q 35.15625 65.921875 28.609375 65.921875 
Q 23.96875 65.921875 18.8125 64.3125 
Q 13.671875 62.703125 7.8125 59.421875 
L 7.8125 69.390625 
Q 13.765625 71.78125 18.9375 73 
Q 24.125 74.21875 28.421875 74.21875 
Q 39.75 74.21875 46.484375 68.546875 
Q 53.21875 62.890625 53.21875 53.421875 
Q 53.21875 48.921875 51.53125 44.890625 
Q 49.859375 40.875 45.40625 35.40625 
Q 44.1875 33.984375 37.640625 27.21875 
Q 31.109375 20.453125 19.1875 8.296875 
z
" id="DejaVuSans-50"/>
    </defs>
    <g transform="translate(200.664375 28.56)scale(0.12 -0.12)">
     <use xlink:href="#DejaVuSans-116"/>
     <use x="39.208984" xlink:href="#DejaVuSans-32"/>
     <use x="70.996094" xlink:href="#DejaVuSans-61"/>
     <use x="154.785156" xlink:href="#DejaVuSans-32"/>
     <use x="186.572266" xlink:href="#DejaVuSans-49"/>
     <use x="250.195312" xlink:href="#DejaVuSans-46"/>
     <use x="281.982422" xlink:href="#DejaVuSans-50"/>
    </g>
   </g>
  </g>
 </g>
 <defs>
  <clipPath id="p7b7b0099c5">
   <rect height="217.44" width="334.8" x="54" y="34.56"/>
  </clipPath>
 </defs>
</svg>
