<?xml version="1.0" encoding="utf-8" standalone="no"?>
<!DOCTYPE svg PUBLIC "-//W3C//DTD SVG 1.1//EN"
  "http://www.w3.org/Graphics/SVG/1.1/DTD/svg11.dtd">
<!-- Created with matplotlib (https://matplotlib.org/) -->
<svg height="288pt" version="1.1" viewBox="0 0 432 288" width="432pt" xmlns="http://www.w3.org/2000/svg" xmlns:xlink="http://www.w3.org/1999/xlink">
 <defs>
  <style type="text/css">
*{stroke-linecap:butt;stroke-linejoin:round;}
  </style>
 </defs>
 <g id="figure_1">
  <g id="patch_1">
   <path d="M 0 288 
L 432 288 
L 432 0 
L 0 0 
z
" style="fill:#ffffff;"/>
  </g>
  <g id="axes_1">
   <g id="patch_2">
    <path clip-path="url(#p421bc6169f)" d="M 194.775112 132.407769 
L 194.774806 143.279769 
L 193.687606 143.279738 
L 193.687912 132.407738 
z
" style="stroke:#000000;stroke-linejoin:miter;"/>
   </g>
   <g id="patch_3">
    <path clip-path="url(#p421bc6169f)" d="M 249.135112 132.4093 
L 249.134806 143.2813 
L 248.047606 143.28127 
L 248.047912 132.40927 
z
" style="stroke:#000000;stroke-linejoin:miter;"/>
   </g>
   <g id="patch_4">
    <path clip-path="url(#p421bc6169f)" d="M 212.351512 132.408264 
L 212.202763 131.856713 
L 211.758925 131.341231 
L 211.027286 130.895535 
L 210.019859 130.548776 
L 208.753186 130.323635 
L 207.248063 130.234838 
L 205.529207 130.288189 
L 203.62484 130.480197 
L 201.566232 130.7983 
L 199.387185 131.221688 
L 197.123481 131.722664 
L 194.812291 132.268456 
L 192.491563 132.82336 
L 190.199406 133.351077 
L 187.973458 133.817085 
L 185.850268 134.1909 
L 183.864701 134.448067 
L 182.049359 134.571763 
L 180.434051 134.553893 
L 179.0453 134.395625 
L 177.905908 134.107308 
L 177.034585 133.707801 
L 176.445637 133.223233 
L 176.148734 132.6853 
L 176.148749 132.129188 
L 176.445683 131.591272 
L 177.034659 131.106738 
L 177.906004 130.707279 
L 179.045412 130.419027 
L 180.434172 130.260837 
L 182.049481 130.243058 
L 183.864816 130.366856 
L 185.850368 130.624135 
L 187.973537 130.99807 
L 190.199459 131.464203 
L 192.491587 131.992049 
L 194.812283 132.547084 
L 197.123443 133.093006 
L 199.387118 133.59411 
L 201.566141 134.017621 
L 203.624731 134.33584 
L 205.529088 134.527955 
L 207.247941 134.581403 
L 208.753068 134.49269 
L 210.019755 134.267621 
L 211.027201 133.920919 
L 211.758865 133.475264 
L 212.202732 132.959806 
z
" style="fill:#0000ff;stroke:#000000;stroke-linejoin:miter;"/>
   </g>
   <g id="patch_5">
    <path clip-path="url(#p421bc6169f)" d="M 266.711512 132.409796 
L 266.562763 131.858245 
L 266.118925 131.342763 
L 265.387286 130.897066 
L 264.379859 130.550307 
L 263.113186 130.325167 
L 261.608063 130.236369 
L 259.889207 130.28972 
L 257.98484 130.481728 
L 255.926232 130.799831 
L 253.747185 131.223219 
L 251.483481 131.724195 
L 249.172291 132.269987 
L 246.851563 132.824891 
L 244.559406 133.352608 
L 242.333458 133.818617 
L 240.210268 134.192432 
L 238.224701 134.449599 
L 236.409359 134.573294 
L 234.794051 134.555424 
L 233.4053 134.397156 
L 232.265908 134.10884 
L 231.394585 133.709332 
L 230.805637 133.224765 
L 230.508734 132.686832 
L 230.508749 132.13072 
L 230.805683 131.592803 
L 231.394659 131.108269 
L 232.266004 130.708811 
L 233.405412 130.420558 
L 234.794172 130.262368 
L 236.409481 130.24459 
L 238.224816 130.368387 
L 240.210368 130.625666 
L 242.333537 130.999601 
L 244.559459 131.465735 
L 246.851587 131.993581 
L 249.172283 132.548616 
L 251.483443 133.094538 
L 253.747118 133.595641 
L 255.926141 134.019152 
L 257.984731 134.337371 
L 259.889088 134.529487 
L 261.607941 134.582935 
L 263.113068 134.494222 
L 264.379755 134.269152 
L 265.387201 133.92245 
L 266.118865 133.476795 
L 266.562732 132.961338 
z
" style="fill:#0000ff;stroke:#000000;stroke-linejoin:miter;"/>
   </g>
   <g id="patch_6">
    <path clip-path="url(#p421bc6169f)" d="M 254.027282 140.563438 
L 188.795282 140.561601 
L 188.795129 145.997601 
L 254.027129 145.999438 
z
" style="fill:#999999;stroke:#000000;stroke-linejoin:miter;"/>
   </g>
   <g id="text_1">
    <!-- t = 3.8 -->
    <defs>
     <path d="M 18.3125 70.21875 
L 18.3125 54.6875 
L 36.8125 54.6875 
L 36.8125 47.703125 
L 18.3125 47.703125 
L 18.3125 18.015625 
Q 18.3125 11.328125 20.140625 9.421875 
Q 21.96875 7.515625 27.59375 7.515625 
L 36.8125 7.515625 
L 36.8125 0 
L 27.59375 0 
Q 17.1875 0 13.234375 3.875 
Q 9.28125 7.765625 9.28125 18.015625 
L 9.28125 47.703125 
L 2.6875 47.703125 
L 2.6875 54.6875 
L 9.28125 54.6875 
L 9.28125 70.21875 
z
" id="DejaVuSans-116"/>
     <path id="DejaVuSans-32"/>
     <path d="M 10.59375 45.40625 
L 73.1875 45.40625 
L 73.1875 37.203125 
L 10.59375 37.203125 
z
M 10.59375 25.484375 
L 73.1875 25.484375 
L 73.1875 17.1875 
L 10.59375 17.1875 
z
" id="DejaVuSans-61"/>
     <path d="M 40.578125 39.3125 
Q 47.65625 37.796875 51.625 33 
Q 55.609375 28.21875 55.609375 21.1875 
Q 55.609375 10.40625 48.1875 4.484375 
Q 40.765625 -1.421875 27.09375 -1.421875 
Q 22.515625 -1.421875 17.65625 -0.515625 
Q 12.796875 0.390625 7.625 2.203125 
L 7.625 11.71875 
Q 11.71875 9.328125 16.59375 8.109375 
Q 21.484375 6.890625 26.8125 6.890625 
Q 36.078125 6.890625 40.9375 10.546875 
Q 45.796875 14.203125 45.796875 21.1875 
Q 45.796875 27.640625 41.28125 31.265625 
Q 36.765625 34.90625 28.71875 34.90625 
L 20.21875 34.90625 
L 20.21875 43.015625 
L 29.109375 43.015625 
Q 36.375 43.015625 40.234375 45.921875 
Q 44.09375 48.828125 44.09375 54.296875 
Q 44.09375 59.90625 40.109375 62.90625 
Q 36.140625 65.921875 28.71875 65.921875 
Q 24.65625 65.921875 20.015625 65.03125 
Q 15.375 64.15625 9.8125 62.3125 
L 9.8125 71.09375 
Q 15.4375 72.65625 20.34375 73.4375 
Q 25.25 74.21875 29.59375 74.21875 
Q 40.828125 74.21875 47.359375 69.109375 
Q 53.90625 64.015625 53.90625 55.328125 
Q 53.90625 49.265625 50.4375 45.09375 
Q 46.96875 40.921875 40.578125 39.3125 
z
" id="DejaVuSans-51"/>
     <path d="M 10.6875 12.40625 
L 21 12.40625 
L 21 0 
L 10.6875 0 
z
" id="DejaVuSans-46"/>
     <path d="M 31.78125 34.625 
Q 24.75 34.625 20.71875 30.859375 
Q 16.703125 27.09375 16.703125 20.515625 
Q 16.703125 13.921875 20.71875 10.15625 
Q 24.75 6.390625 31.78125 6.390625 
Q 38.8125 6.390625 42.859375 10.171875 
Q 46.921875 13.96875 46.921875 20.515625 
Q 46.921875 27.09375 42.890625 30.859375 
Q 38.875 34.625 31.78125 34.625 
z
M 21.921875 38.8125 
Q 15.578125 40.375 12.03125 44.71875 
Q 8.5 49.078125 8.5 55.328125 
Q 8.5 64.0625 14.71875 69.140625 
Q 20.953125 74.21875 31.78125 74.21875 
Q 42.671875 74.21875 48.875 69.140625 
Q 55.078125 64.0625 55.078125 55.328125 
Q 55.078125 49.078125 51.53125 44.71875 
Q 48 40.375 41.703125 38.8125 
Q 48.828125 37.15625 52.796875 32.3125 
Q 56.78125 27.484375 56.78125 20.515625 
Q 56.78125 9.90625 50.3125 4.234375 
Q 43.84375 -1.421875 31.78125 -1.421875 
Q 19.734375 -1.421875 13.25 4.234375 
Q 6.78125 9.90625 6.78125 20.515625 
Q 6.78125 27.484375 10.78125 32.3125 
Q 14.796875 37.15625 21.921875 38.8125 
z
M 18.3125 54.390625 
Q 18.3125 48.734375 21.84375 45.5625 
Q 25.390625 42.390625 31.78125 42.390625 
Q 38.140625 42.390625 41.71875 45.5625 
Q 45.3125 48.734375 45.3125 54.390625 
Q 45.3125 60.0625 41.71875 63.234375 
Q 38.140625 66.40625 31.78125 66.40625 
Q 25.390625 66.40625 21.84375 63.234375 
Q 18.3125 60.0625 18.3125 54.390625 
z
" id="DejaVuSans-56"/>
    </defs>
    <g transform="translate(200.664375 28.56)scale(0.12 -0.12)">
     <use xlink:href="#DejaVuSans-116"/>
     <use x="39.208984" xlink:href="#DejaVuSans-32"/>
     <use x="70.996094" xlink:href="#DejaVuSans-61"/>
     <use x="154.785156" xlink:href="#DejaVuSans-32"/>
     <use x="186.572266" xlink:href="#DejaVuSans-51"/>
     <use x="250.195312" xlink:href="#DejaVuSans-46"/>
     <use x="281.982422" xlink:href="#DejaVuSans-56"/>
    </g>
   </g>
  </g>
 </g>
 <defs>
  <clipPath id="p421bc6169f">
   <rect height="217.44" width="334.8" x="54" y="34.56"/>
  </clipPath>
 </defs>
</svg>
