<?xml version="1.0" encoding="utf-8" standalone="no"?>
<!DOCTYPE svg PUBLIC "-//W3C//DTD SVG 1.1//EN"
  "http://www.w3.org/Graphics/SVG/1.1/DTD/svg11.dtd">
<!-- Created with matplotlib (https://matplotlib.org/) -->
<svg height="288pt" version="1.1" viewBox="0 0 432 288" width="432pt" xmlns="http://www.w3.org/2000/svg" xmlns:xlink="http://www.w3.org/1999/xlink">
 <defs>
  <style type="text/css">
*{stroke-linecap:butt;stroke-linejoin:round;}
  </style>
 </defs>
 <g id="figure_1">
  <g id="patch_1">
   <path d="M 0 288 
L 432 288 
L 432 0 
L 0 0 
z
" style="fill:#ffffff;"/>
  </g>
  <g id="axes_1">
   <g id="patch_2">
    <path clip-path="url(#p9e67bde570)" d="M 196.011263 144.965666 
L 197.487015 155.737042 
L 196.409877 155.884617 
L 194.934125 145.113241 
z
" style="stroke:#000000;stroke-linejoin:miter;"/>
   </g>
   <g id="patch_3">
    <path clip-path="url(#p9e67bde570)" d="M 249.868143 137.586907 
L 251.343895 148.358283 
L 250.266757 148.505858 
L 248.791005 137.734482 
z
" style="stroke:#000000;stroke-linejoin:miter;"/>
   </g>
   <g id="patch_4">
    <path clip-path="url(#p9e67bde570)" d="M 213.424988 142.579867 
L 213.202733 142.053619 
L 212.69302 141.603168 
L 211.907645 141.26093 
L 210.862467 141.054157 
L 209.576955 141.003073 
L 208.073714 141.119443 
L 206.378016 141.405664 
L 204.51735 141.854444 
L 202.52099 142.449092 
L 200.419602 143.164401 
L 198.244874 143.968074 
L 196.029183 144.822595 
L 193.805281 145.687439 
L 191.605994 146.521468 
L 189.463924 147.285371 
L 187.411145 147.943984 
L 185.478877 148.468343 
L 183.697138 148.837357 
L 182.09436 149.038957 
L 180.69698 149.0707 
L 179.528995 148.939745 
L 178.6115 148.662233 
L 177.962217 148.262112 
L 177.595029 147.769469 
L 177.519543 147.218504 
L 177.740696 146.645255 
L 178.258435 146.085244 
L 179.067479 145.571185 
L 180.157202 145.130908 
L 181.511626 144.785635 
L 183.109565 144.548715 
L 184.924899 144.424905 
L 186.926997 144.41023 
L 189.081275 144.492447 
L 191.349872 144.652058 
L 193.69244 144.863823 
L 196.067004 145.098645 
L 198.430883 145.325734 
L 200.741632 145.514866 
L 202.957977 145.638617 
L 205.04071 145.674401 
L 206.953516 145.60619 
L 208.663711 145.42578 
L 210.142858 145.133542 
L 211.367259 144.738583 
L 212.318307 144.258314 
L 212.982691 143.717449 
L 213.352466 143.146502 
z
" style="fill:#0000ff;stroke:#000000;stroke-linejoin:miter;"/>
   </g>
   <g id="patch_5">
    <path clip-path="url(#p9e67bde570)" d="M 267.281867 135.201108 
L 267.059613 134.674859 
L 266.5499 134.224409 
L 265.764525 133.882171 
L 264.719347 133.675398 
L 263.433835 133.624314 
L 261.930594 133.740684 
L 260.234896 134.026904 
L 258.374229 134.475684 
L 256.37787 135.070332 
L 254.276482 135.785642 
L 252.101754 136.589315 
L 249.886063 137.443836 
L 247.662161 138.30868 
L 245.462874 139.142709 
L 243.320804 139.906612 
L 241.268025 140.565224 
L 239.335757 141.089584 
L 237.554018 141.458597 
L 235.95124 141.660198 
L 234.55386 141.691941 
L 233.385875 141.560986 
L 232.46838 141.283474 
L 231.819096 140.883353 
L 231.451909 140.39071 
L 231.376423 139.839745 
L 231.597576 139.266496 
L 232.115314 138.706484 
L 232.924359 138.192425 
L 234.014081 137.752148 
L 235.368506 137.406875 
L 236.966445 137.169956 
L 238.781779 137.046146 
L 240.783877 137.031471 
L 242.938155 137.113687 
L 245.206752 137.273299 
L 247.54932 137.485063 
L 249.923884 137.719886 
L 252.287763 137.946975 
L 254.598512 138.136107 
L 256.814857 138.259857 
L 258.89759 138.295642 
L 260.810396 138.22743 
L 262.520591 138.047021 
L 263.999738 137.754783 
L 265.224139 137.359824 
L 266.175187 136.879554 
L 266.839571 136.33869 
L 267.209346 135.767743 
z
" style="fill:#0000ff;stroke:#000000;stroke-linejoin:miter;"/>
   </g>
   <g id="patch_6">
    <path clip-path="url(#p9e67bde570)" d="M 255.822076 145.001351 
L 191.19382 153.855862 
L 191.931696 159.24155 
L 256.559952 150.387039 
z
" style="fill:#999999;stroke:#000000;stroke-linejoin:miter;"/>
   </g>
   <g id="text_1">
    <!-- t = 1.0 -->
    <defs>
     <path d="M 18.3125 70.21875 
L 18.3125 54.6875 
L 36.8125 54.6875 
L 36.8125 47.703125 
L 18.3125 47.703125 
L 18.3125 18.015625 
Q 18.3125 11.328125 20.140625 9.421875 
Q 21.96875 7.515625 27.59375 7.515625 
L 36.8125 7.515625 
L 36.8125 0 
L 27.59375 0 
Q 17.1875 0 13.234375 3.875 
Q 9.28125 7.765625 9.28125 18.015625 
L 9.28125 47.703125 
L 2.6875 47.703125 
L 2.6875 54.6875 
L 9.28125 54.6875 
L 9.28125 70.21875 
z
" id="DejaVuSans-116"/>
     <path id="DejaVuSans-32"/>
     <path d="M 10.59375 45.40625 
L 73.1875 45.40625 
L 73.1875 37.203125 
L 10.59375 37.203125 
z
M 10.59375 25.484375 
L 73.1875 25.484375 
L 73.1875 17.1875 
L 10.59375 17.1875 
z
" id="DejaVuSans-61"/>
     <path d="M 12.40625 8.296875 
L 28.515625 8.296875 
L 28.515625 63.921875 
L 10.984375 60.40625 
L 10.984375 69.390625 
L 28.421875 72.90625 
L 38.28125 72.90625 
L 38.28125 8.296875 
L 54.390625 8.296875 
L 54.390625 0 
L 12.40625 0 
z
" id="DejaVuSans-49"/>
     <path d="M 10.6875 12.40625 
L 21 12.40625 
L 21 0 
L 10.6875 0 
z
" id="DejaVuSans-46"/>
     <path d="M 31.78125 66.40625 
Q 24.171875 66.40625 20.328125 58.90625 
Q 16.5 51.421875 16.5 36.375 
Q 16.5 21.390625 20.328125 13.890625 
Q 24.171875 6.390625 31.78125 6.390625 
Q 39.453125 6.390625 43.28125 13.890625 
Q 47.125 21.390625 47.125 36.375 
Q 47.125 51.421875 43.28125 58.90625 
Q 39.453125 66.40625 31.78125 66.40625 
z
M 31.78125 74.21875 
Q 44.046875 74.21875 50.515625 64.515625 
Q 56.984375 54.828125 56.984375 36.375 
Q 56.984375 17.96875 50.515625 8.265625 
Q 44.046875 -1.421875 31.78125 -1.421875 
Q 19.53125 -1.421875 13.0625 8.265625 
Q 6.59375 17.96875 6.59375 36.375 
Q 6.59375 54.828125 13.0625 64.515625 
Q 19.53125 74.21875 31.78125 74.21875 
z
" id="DejaVuSans-48"/>
    </defs>
    <g transform="translate(200.664375 28.56)scale(0.12 -0.12)">
     <use xlink:href="#DejaVuSans-116"/>
     <use x="39.208984" xlink:href="#DejaVuSans-32"/>
     <use x="70.996094" xlink:href="#DejaVuSans-61"/>
     <use x="154.785156" xlink:href="#DejaVuSans-32"/>
     <use x="186.572266" xlink:href="#DejaVuSans-49"/>
     <use x="250.195312" xlink:href="#DejaVuSans-46"/>
     <use x="281.982422" xlink:href="#DejaVuSans-48"/>
    </g>
   </g>
  </g>
 </g>
 <defs>
  <clipPath id="p9e67bde570">
   <rect height="217.44" width="334.8" x="54" y="34.56"/>
  </clipPath>
 </defs>
</svg>
