<?xml version="1.0" encoding="utf-8" standalone="no"?>
<!DOCTYPE svg PUBLIC "-//W3C//DTD SVG 1.1//EN"
  "http://www.w3.org/Graphics/SVG/1.1/DTD/svg11.dtd">
<!-- Created with matplotlib (https://matplotlib.org/) -->
<svg height="288pt" version="1.1" viewBox="0 0 432 288" width="432pt" xmlns="http://www.w3.org/2000/svg" xmlns:xlink="http://www.w3.org/1999/xlink">
 <defs>
  <style type="text/css">
*{stroke-linecap:butt;stroke-linejoin:round;}
  </style>
 </defs>
 <g id="figure_1">
  <g id="patch_1">
   <path d="M 0 288 
L 432 288 
L 432 0 
L 0 0 
z
" style="fill:#ffffff;"/>
  </g>
  <g id="axes_1">
   <g id="patch_2">
    <path clip-path="url(#p82cbec5fef)" d="M 194.752742 132.408458 
L 194.752615 143.280458 
L 193.665415 143.280445 
L 193.665542 132.408445 
z
" style="stroke:#000000;stroke-linejoin:miter;"/>
   </g>
   <g id="patch_3">
    <path clip-path="url(#p82cbec5fef)" d="M 249.112742 132.409093 
L 249.112615 143.281093 
L 248.025415 143.281081 
L 248.025542 132.409081 
z
" style="stroke:#000000;stroke-linejoin:miter;"/>
   </g>
   <g id="patch_4">
    <path clip-path="url(#p82cbec5fef)" d="M 212.329142 132.408664 
L 212.180384 131.857115 
L 211.736538 131.34164 
L 211.004892 130.895956 
L 209.997459 130.549214 
L 208.730782 130.324094 
L 207.225658 130.235321 
L 205.506802 130.288701 
L 203.602438 130.48074 
L 201.543835 130.798877 
L 199.364796 131.222301 
L 197.1011 131.723314 
L 194.789919 132.269144 
L 192.4692 132.824087 
L 190.177052 133.351842 
L 187.951111 133.817887 
L 185.827928 134.191736 
L 183.842365 134.448936 
L 182.027025 134.572662 
L 180.411717 134.554819 
L 179.022963 134.396573 
L 177.883567 134.108275 
L 177.012237 133.708782 
L 176.423281 133.224225 
L 176.126369 132.686297 
L 176.126375 132.130184 
L 176.4233 131.592263 
L 177.012267 131.107719 
L 177.883606 130.708247 
L 179.023009 130.419976 
L 180.411767 130.261763 
L 182.027076 130.243957 
L 183.842412 130.367725 
L 185.827969 130.624971 
L 187.951144 130.998871 
L 190.177074 131.464968 
L 192.46921 131.992776 
L 194.789915 132.547773 
L 197.101084 133.093657 
L 199.364768 133.594723 
L 201.543798 134.018198 
L 203.602393 134.336383 
L 205.506753 134.528467 
L 207.225607 134.581887 
L 208.730733 134.493149 
L 209.997416 134.268059 
L 211.004856 133.92134 
L 211.736513 133.475673 
L 212.180371 132.960208 
z
" style="fill:#0000ff;stroke:#000000;stroke-linejoin:miter;"/>
   </g>
   <g id="patch_5">
    <path clip-path="url(#p82cbec5fef)" d="M 266.689142 132.409299 
L 266.540384 131.85775 
L 266.096538 131.342275 
L 265.364892 130.896591 
L 264.357459 130.549849 
L 263.090782 130.324729 
L 261.585658 130.235956 
L 259.866802 130.289336 
L 257.962438 130.481375 
L 255.903835 130.799512 
L 253.724796 131.222936 
L 251.4611 131.723949 
L 249.149919 132.269779 
L 246.8292 132.824722 
L 244.537052 133.352477 
L 242.311111 133.818522 
L 240.187928 134.192372 
L 238.202365 134.449572 
L 236.387025 134.573297 
L 234.771717 134.555454 
L 233.382963 134.397208 
L 232.243567 134.108911 
L 231.372237 133.709418 
L 230.783281 133.22486 
L 230.486369 132.686932 
L 230.486375 132.13082 
L 230.7833 131.592899 
L 231.372267 131.108354 
L 232.243606 130.708882 
L 233.383009 130.420611 
L 234.771767 130.262398 
L 236.387076 130.244592 
L 238.202412 130.36836 
L 240.187969 130.625606 
L 242.311144 130.999506 
L 244.537074 131.465603 
L 246.82921 131.993411 
L 249.149915 132.548408 
L 251.461084 133.094292 
L 253.724768 133.595358 
L 255.903798 134.018833 
L 257.962393 134.337018 
L 259.866753 134.529102 
L 261.585607 134.582522 
L 263.090733 134.493784 
L 264.357416 134.268694 
L 265.364856 133.921975 
L 266.096513 133.476308 
L 266.540371 132.960843 
z
" style="fill:#0000ff;stroke:#000000;stroke-linejoin:miter;"/>
   </g>
   <g id="patch_6">
    <path clip-path="url(#p82cbec5fef)" d="M 254.005047 140.56315 
L 188.773047 140.562388 
L 188.772984 145.998388 
L 254.004984 145.99915 
z
" style="fill:#999999;stroke:#000000;stroke-linejoin:miter;"/>
   </g>
   <g id="text_1">
    <!-- t = 3.6 -->
    <defs>
     <path d="M 18.3125 70.21875 
L 18.3125 54.6875 
L 36.8125 54.6875 
L 36.8125 47.703125 
L 18.3125 47.703125 
L 18.3125 18.015625 
Q 18.3125 11.328125 20.140625 9.421875 
Q 21.96875 7.515625 27.59375 7.515625 
L 36.8125 7.515625 
L 36.8125 0 
L 27.59375 0 
Q 17.1875 0 13.234375 3.875 
Q 9.28125 7.765625 9.28125 18.015625 
L 9.28125 47.703125 
L 2.6875 47.703125 
L 2.6875 54.6875 
L 9.28125 54.6875 
L 9.28125 70.21875 
z
" id="DejaVuSans-116"/>
     <path id="DejaVuSans-32"/>
     <path d="M 10.59375 45.40625 
L 73.1875 45.40625 
L 73.1875 37.203125 
L 10.59375 37.203125 
z
M 10.59375 25.484375 
L 73.1875 25.484375 
L 73.1875 17.1875 
L 10.59375 17.1875 
z
" id="DejaVuSans-61"/>
     <path d="M 40.578125 39.3125 
Q 47.65625 37.796875 51.625 33 
Q 55.609375 28.21875 55.609375 21.1875 
Q 55.609375 10.40625 48.1875 4.484375 
Q 40.765625 -1.421875 27.09375 -1.421875 
Q 22.515625 -1.421875 17.65625 -0.515625 
Q 12.796875 0.390625 7.625 2.203125 
L 7.625 11.71875 
Q 11.71875 9.328125 16.59375 8.109375 
Q 21.484375 6.890625 26.8125 6.890625 
Q 36.078125 6.890625 40.9375 10.546875 
Q 45.796875 14.203125 45.796875 21.1875 
Q 45.796875 27.640625 41.28125 31.265625 
Q 36.765625 34.90625 28.71875 34.90625 
L 20.21875 34.90625 
L 20.21875 43.015625 
L 29.109375 43.015625 
Q 36.375 43.015625 40.234375 45.921875 
Q 44.09375 48.828125 44.09375 54.296875 
Q 44.09375 59.90625 40.109375 62.90625 
Q 36.140625 65.921875 28.71875 65.921875 
Q 24.65625 65.921875 20.015625 65.03125 
Q 15.375 64.15625 9.8125 62.3125 
L 9.8125 71.09375 
Q 15.4375 72.65625 20.34375 73.4375 
Q 25.25 74.21875 29.59375 74.21875 
Q 40.828125 74.21875 47.359375 69.109375 
Q 53.90625 64.015625 53.90625 55.328125 
Q 53.90625 49.265625 50.4375 45.09375 
Q 46.96875 40.921875 40.578125 39.3125 
z
" id="DejaVuSans-51"/>
     <path d="M 10.6875 12.40625 
L 21 12.40625 
L 21 0 
L 10.6875 0 
z
" id="DejaVuSans-46"/>
     <path d="M 33.015625 40.375 
Q 26.375 40.375 22.484375 35.828125 
Q 18.609375 31.296875 18.609375 23.390625 
Q 18.609375 15.53125 22.484375 10.953125 
Q 26.375 6.390625 33.015625 6.390625 
Q 39.65625 6.390625 43.53125 10.953125 
Q 47.40625 15.53125 47.40625 23.390625 
Q 47.40625 31.296875 43.53125 35.828125 
Q 39.65625 40.375 33.015625 40.375 
z
M 52.59375 71.296875 
L 52.59375 62.3125 
Q 48.875 64.0625 45.09375 64.984375 
Q 41.3125 65.921875 37.59375 65.921875 
Q 27.828125 65.921875 22.671875 59.328125 
Q 17.53125 52.734375 16.796875 39.40625 
Q 19.671875 43.65625 24.015625 45.921875 
Q 28.375 48.1875 33.59375 48.1875 
Q 44.578125 48.1875 50.953125 41.515625 
Q 57.328125 34.859375 57.328125 23.390625 
Q 57.328125 12.15625 50.6875 5.359375 
Q 44.046875 -1.421875 33.015625 -1.421875 
Q 20.359375 -1.421875 13.671875 8.265625 
Q 6.984375 17.96875 6.984375 36.375 
Q 6.984375 53.65625 15.1875 63.9375 
Q 23.390625 74.21875 37.203125 74.21875 
Q 40.921875 74.21875 44.703125 73.484375 
Q 48.484375 72.75 52.59375 71.296875 
z
" id="DejaVuSans-54"/>
    </defs>
    <g transform="translate(200.664375 28.56)scale(0.12 -0.12)">
     <use xlink:href="#DejaVuSans-116"/>
     <use x="39.208984" xlink:href="#DejaVuSans-32"/>
     <use x="70.996094" xlink:href="#DejaVuSans-61"/>
     <use x="154.785156" xlink:href="#DejaVuSans-32"/>
     <use x="186.572266" xlink:href="#DejaVuSans-51"/>
     <use x="250.195312" xlink:href="#DejaVuSans-46"/>
     <use x="281.982422" xlink:href="#DejaVuSans-54"/>
    </g>
   </g>
  </g>
 </g>
 <defs>
  <clipPath id="p82cbec5fef">
   <rect height="217.44" width="334.8" x="54" y="34.56"/>
  </clipPath>
 </defs>
</svg>
