<?xml version="1.0" encoding="utf-8" standalone="no"?>
<!DOCTYPE svg PUBLIC "-//W3C//DTD SVG 1.1//EN"
  "http://www.w3.org/Graphics/SVG/1.1/DTD/svg11.dtd">
<!-- Created with matplotlib (https://matplotlib.org/) -->
<svg height="288pt" version="1.1" viewBox="0 0 432 288" width="432pt" xmlns="http://www.w3.org/2000/svg" xmlns:xlink="http://www.w3.org/1999/xlink">
 <defs>
  <style type="text/css">
*{stroke-linecap:butt;stroke-linejoin:round;}
  </style>
 </defs>
 <g id="figure_1">
  <g id="patch_1">
   <path d="M 0 288 
L 432 288 
L 432 0 
L 0 0 
z
" style="fill:#ffffff;"/>
  </g>
  <g id="axes_1">
   <g id="patch_2">
    <path clip-path="url(#p4d634a28a5)" d="M -19.396588 163.025696 
L -24.909314 172.396408 
L -25.846385 171.845135 
L -20.333659 162.474424 
z
" style="stroke:#000000;stroke-linejoin:miter;"/>
   </g>
   <g id="patch_3">
    <path clip-path="url(#p4d634a28a5)" d="M 27.45697 190.589328 
L 21.944243 199.960039 
L 21.007172 199.408767 
L 26.519899 190.038055 
z
" style="stroke:#000000;stroke-linejoin:miter;"/>
   </g>
   <g id="patch_4">
    <path clip-path="url(#p4d634a28a5)" d="M -4.247271 171.937937 
L -4.095827 171.38712 
L -4.217016 170.717772 
L -4.621653 169.962649 
L -5.314163 169.15297 
L -6.291789 168.31667 
L -7.54407 167.476986 
L -9.052649 166.651454 
L -10.791429 165.851374 
L -12.727087 165.081773 
L -14.819936 164.341855 
L -17.025094 163.625887 
L -19.293906 162.924469 
L -21.575558 162.226071 
L -23.818799 161.518725 
L -25.973685 160.791761 
L -27.993255 160.037435 
L -29.835061 159.252346 
L -31.46247 158.438524 
L -32.845686 157.604107 
L -33.962441 156.763549 
L -34.798327 155.937332 
L -35.34678 155.151197 
L -35.608718 154.434919 
L -35.591877 153.82072 
L -35.309897 153.3414 
L -34.78122 153.028311 
L -34.027892 152.909308 
L -33.074317 153.006805 
L -31.946078 153.33607 
L -30.668861 153.903869 
L -29.267569 154.70756 
L -27.765653 155.734699 
L -26.184701 156.963196 
L -24.544282 158.362016 
L -22.862046 159.892405 
L -21.154036 161.509554 
L -19.435187 163.164623 
L -17.719937 164.807002 
L -16.02289 166.386675 
L -14.359467 167.856546 
L -12.74646 169.174601 
L -11.202454 170.305761 
L -9.748028 171.223345 
L -8.405738 171.91003 
L -7.19983 172.358288 
L -6.155696 172.570265 
L -5.299093 172.557121 
L -4.655159 172.33789 
z
" style="fill:#0000ff;stroke:#000000;stroke-linejoin:miter;"/>
   </g>
   <g id="patch_5">
    <path clip-path="url(#p4d634a28a5)" d="M 42.606287 199.501569 
L 42.75773 198.950751 
L 42.636541 198.281403 
L 42.231905 197.526281 
L 41.539395 196.716601 
L 40.561768 195.880301 
L 39.309487 195.040618 
L 37.800908 194.215085 
L 36.062129 193.415005 
L 34.126471 192.645405 
L 32.033621 191.905486 
L 29.828463 191.189518 
L 27.559651 190.488101 
L 25.278 189.789702 
L 23.034759 189.082356 
L 20.879873 188.355392 
L 18.860302 187.601066 
L 17.018497 186.815977 
L 15.391087 186.002156 
L 14.007871 185.167739 
L 12.891116 184.32718 
L 12.055231 183.500964 
L 11.506778 182.714828 
L 11.244839 181.99855 
L 11.26168 181.384352 
L 11.543661 180.905032 
L 12.072337 180.591943 
L 12.825665 180.47294 
L 13.77924 180.570437 
L 14.907479 180.899702 
L 16.184696 181.4675 
L 17.585989 182.271191 
L 19.087904 183.29833 
L 20.668856 184.526827 
L 22.309275 185.925647 
L 23.991511 187.456037 
L 25.699522 189.073185 
L 27.418371 190.728254 
L 29.133621 192.370633 
L 30.830667 193.950306 
L 32.494091 195.420177 
L 34.107097 196.738232 
L 35.651104 197.869393 
L 37.105529 198.786976 
L 38.447819 199.473661 
L 39.653727 199.92192 
L 40.697862 200.133897 
L 41.554464 200.120752 
L 42.198398 199.901521 
z
" style="fill:#0000ff;stroke:#000000;stroke-linejoin:miter;"/>
   </g>
   <g id="patch_6">
    <path clip-path="url(#p4d634a28a5)" d="M 27.539245 200.098088 
L -28.685024 167.02173 
L -31.441387 171.707086 
L 24.782882 204.783444 
z
" style="fill:#999999;stroke:#000000;stroke-linejoin:miter;"/>
   </g>
   <g id="text_1">
    <!-- t = 0.2 -->
    <defs>
     <path d="M 18.3125 70.21875 
L 18.3125 54.6875 
L 36.8125 54.6875 
L 36.8125 47.703125 
L 18.3125 47.703125 
L 18.3125 18.015625 
Q 18.3125 11.328125 20.140625 9.421875 
Q 21.96875 7.515625 27.59375 7.515625 
L 36.8125 7.515625 
L 36.8125 0 
L 27.59375 0 
Q 17.1875 0 13.234375 3.875 
Q 9.28125 7.765625 9.28125 18.015625 
L 9.28125 47.703125 
L 2.6875 47.703125 
L 2.6875 54.6875 
L 9.28125 54.6875 
L 9.28125 70.21875 
z
" id="DejaVuSans-116"/>
     <path id="DejaVuSans-32"/>
     <path d="M 10.59375 45.40625 
L 73.1875 45.40625 
L 73.1875 37.203125 
L 10.59375 37.203125 
z
M 10.59375 25.484375 
L 73.1875 25.484375 
L 73.1875 17.1875 
L 10.59375 17.1875 
z
" id="DejaVuSans-61"/>
     <path d="M 31.78125 66.40625 
Q 24.171875 66.40625 20.328125 58.90625 
Q 16.5 51.421875 16.5 36.375 
Q 16.5 21.390625 20.328125 13.890625 
Q 24.171875 6.390625 31.78125 6.390625 
Q 39.453125 6.390625 43.28125 13.890625 
Q 47.125 21.390625 47.125 36.375 
Q 47.125 51.421875 43.28125 58.90625 
Q 39.453125 66.40625 31.78125 66.40625 
z
M 31.78125 74.21875 
Q 44.046875 74.21875 50.515625 64.515625 
Q 56.984375 54.828125 56.984375 36.375 
Q 56.984375 17.96875 50.515625 8.265625 
Q 44.046875 -1.421875 31.78125 -1.421875 
Q 19.53125 -1.421875 13.0625 8.265625 
Q 6.59375 17.96875 6.59375 36.375 
Q 6.59375 54.828125 13.0625 64.515625 
Q 19.53125 74.21875 31.78125 74.21875 
z
" id="DejaVuSans-48"/>
     <path d="M 10.6875 12.40625 
L 21 12.40625 
L 21 0 
L 10.6875 0 
z
" id="DejaVuSans-46"/>
     <path d="M 19.1875 8.296875 
L 53.609375 8.296875 
L 53.609375 0 
L 7.328125 0 
L 7.328125 8.296875 
Q 12.9375 14.109375 22.625 23.890625 
Q 32.328125 33.6875 34.8125 36.53125 
Q 39.546875 41.84375 41.421875 45.53125 
Q 43.3125 49.21875 43.3125 52.78125 
Q 43.3125 58.59375 39.234375 62.25 
Q 35.15625 65.921875 28.609375 65.921875 
Q 23.96875 65.921875 18.8125 64.3125 
Q 13.671875 62.703125 7.8125 59.421875 
L 7.8125 69.390625 
Q 13.765625 71.78125 18.9375 73 
Q 24.125 74.21875 28.421875 74.21875 
Q 39.75 74.21875 46.484375 68.546875 
Q 53.21875 62.890625 53.21875 53.421875 
Q 53.21875 48.921875 51.53125 44.890625 
Q 49.859375 40.875 45.40625 35.40625 
Q 44.1875 33.984375 37.640625 27.21875 
Q 31.109375 20.453125 19.1875 8.296875 
z
" id="DejaVuSans-50"/>
    </defs>
    <g transform="translate(200.664375 28.56)scale(0.12 -0.12)">
     <use xlink:href="#DejaVuSans-116"/>
     <use x="39.208984" xlink:href="#DejaVuSans-32"/>
     <use x="70.996094" xlink:href="#DejaVuSans-61"/>
     <use x="154.785156" xlink:href="#DejaVuSans-32"/>
     <use x="186.572266" xlink:href="#DejaVuSans-48"/>
     <use x="250.195312" xlink:href="#DejaVuSans-46"/>
     <use x="281.982422" xlink:href="#DejaVuSans-50"/>
    </g>
   </g>
  </g>
 </g>
 <defs>
  <clipPath id="p4d634a28a5">
   <rect height="217.44" width="334.8" x="54" y="34.56"/>
  </clipPath>
 </defs>
</svg>
