<?xml version="1.0" encoding="utf-8" standalone="no"?>
<!DOCTYPE svg PUBLIC "-//W3C//DTD SVG 1.1//EN"
  "http://www.w3.org/Graphics/SVG/1.1/DTD/svg11.dtd">
<!-- Created with matplotlib (https://matplotlib.org/) -->
<svg height="288pt" version="1.1" viewBox="0 0 432 288" width="432pt" xmlns="http://www.w3.org/2000/svg" xmlns:xlink="http://www.w3.org/1999/xlink">
 <defs>
  <style type="text/css">
*{stroke-linecap:butt;stroke-linejoin:round;}
  </style>
 </defs>
 <g id="figure_1">
  <g id="patch_1">
   <path d="M 0 288 
L 432 288 
L 432 0 
L 0 0 
z
" style="fill:#ffffff;"/>
  </g>
  <g id="axes_1">
   <g id="patch_2">
    <path clip-path="url(#p3834b61cad)" d="M 195.928289 132.565004 
L 195.882898 143.436909 
L 194.795708 143.43237 
L 194.841099 132.560464 
z
" style="stroke:#000000;stroke-linejoin:miter;"/>
   </g>
   <g id="patch_3">
    <path clip-path="url(#p3834b61cad)" d="M 250.287815 132.791958 
L 250.242425 143.663863 
L 249.155234 143.659324 
L 249.200625 132.787419 
z
" style="stroke:#000000;stroke-linejoin:miter;"/>
   </g>
   <g id="patch_4">
    <path clip-path="url(#p3834b61cad)" d="M 213.504536 132.638385 
L 213.358075 132.086223 
L 212.916379 131.568904 
L 212.186595 131.120178 
L 211.180614 130.769244 
L 209.914885 130.538853 
L 208.410144 130.443814 
L 206.691081 130.490037 
L 204.785934 130.674146 
L 202.726024 130.98371 
L 200.545241 131.398058 
L 198.279479 131.889643 
L 195.966045 132.425846 
L 193.643036 132.971121 
L 191.348711 133.489329 
L 189.120849 133.946102 
L 186.996127 134.311109 
L 185.009511 134.560041 
L 183.193672 134.676207 
L 181.578452 134.651639 
L 180.190369 134.487613 
L 179.052183 134.194574 
L 178.182524 133.791457 
L 177.59559 133.304451 
L 177.30092 132.765292 
L 177.303242 132.209184 
L 177.602404 131.672504 
L 178.193383 131.190416 
L 179.066378 130.794575 
L 180.206971 130.51105 
L 181.596375 130.35862 
L 183.211744 130.34754 
L 185.02655 130.478865 
L 187.011019 130.744375 
L 189.132618 131.127111 
L 191.356589 131.602471 
L 193.646507 132.139818 
L 195.964882 132.704472 
L 198.273758 133.259973 
L 200.535336 133.77046 
L 202.712584 134.203003 
L 204.769837 134.529756 
L 206.67338 134.729767 
L 208.391997 134.790342 
L 209.897479 134.707871 
L 211.165088 134.488057 
L 212.173964 134.145535 
L 212.907469 133.702918 
L 213.35347 133.189306 
z
" style="fill:#0000ff;stroke:#000000;stroke-linejoin:miter;"/>
   </g>
   <g id="patch_5">
    <path clip-path="url(#p3834b61cad)" d="M 267.864062 132.865339 
L 267.717601 132.313177 
L 267.275905 131.795858 
L 266.546121 131.347132 
L 265.540141 130.996198 
L 264.274411 130.765807 
L 262.76967 130.670768 
L 261.050607 130.716991 
L 259.14546 130.9011 
L 257.085551 131.210664 
L 254.904767 131.625012 
L 252.639006 132.116597 
L 250.325571 132.6528 
L 248.002563 133.198075 
L 245.708237 133.716283 
L 243.480375 134.173056 
L 241.355654 134.538063 
L 239.369037 134.786995 
L 237.553198 134.903161 
L 235.937978 134.878593 
L 234.549895 134.714567 
L 233.411709 134.421528 
L 232.54205 134.018411 
L 231.955116 133.531405 
L 231.660446 132.992246 
L 231.662768 132.436138 
L 231.96193 131.899458 
L 232.55291 131.41737 
L 233.425904 131.021529 
L 234.566497 130.738004 
L 235.955901 130.585574 
L 237.57127 130.574494 
L 239.386076 130.705819 
L 241.370545 130.971329 
L 243.492145 131.354065 
L 245.716115 131.829425 
L 248.006033 132.366772 
L 250.324408 132.931426 
L 252.633284 133.486927 
L 254.894863 133.997414 
L 257.07211 134.429957 
L 259.129363 134.75671 
L 261.032906 134.956721 
L 262.751523 135.017296 
L 264.257005 134.934825 
L 265.524614 134.715011 
L 266.53349 134.37249 
L 267.266995 133.929872 
L 267.712996 133.41626 
z
" style="fill:#0000ff;stroke:#000000;stroke-linejoin:miter;"/>
   </g>
   <g id="patch_6">
    <path clip-path="url(#p3834b61cad)" d="M 255.14613 140.966312 
L 189.914698 140.693967 
L 189.892003 146.12992 
L 255.123434 146.402265 
z
" style="fill:#999999;stroke:#000000;stroke-linejoin:miter;"/>
   </g>
   <g id="text_1">
    <!-- t = 1.9 -->
    <defs>
     <path d="M 18.3125 70.21875 
L 18.3125 54.6875 
L 36.8125 54.6875 
L 36.8125 47.703125 
L 18.3125 47.703125 
L 18.3125 18.015625 
Q 18.3125 11.328125 20.140625 9.421875 
Q 21.96875 7.515625 27.59375 7.515625 
L 36.8125 7.515625 
L 36.8125 0 
L 27.59375 0 
Q 17.1875 0 13.234375 3.875 
Q 9.28125 7.765625 9.28125 18.015625 
L 9.28125 47.703125 
L 2.6875 47.703125 
L 2.6875 54.6875 
L 9.28125 54.6875 
L 9.28125 70.21875 
z
" id="DejaVuSans-116"/>
     <path id="DejaVuSans-32"/>
     <path d="M 10.59375 45.40625 
L 73.1875 45.40625 
L 73.1875 37.203125 
L 10.59375 37.203125 
z
M 10.59375 25.484375 
L 73.1875 25.484375 
L 73.1875 17.1875 
L 10.59375 17.1875 
z
" id="DejaVuSans-61"/>
     <path d="M 12.40625 8.296875 
L 28.515625 8.296875 
L 28.515625 63.921875 
L 10.984375 60.40625 
L 10.984375 69.390625 
L 28.421875 72.90625 
L 38.28125 72.90625 
L 38.28125 8.296875 
L 54.390625 8.296875 
L 54.390625 0 
L 12.40625 0 
z
" id="DejaVuSans-49"/>
     <path d="M 10.6875 12.40625 
L 21 12.40625 
L 21 0 
L 10.6875 0 
z
" id="DejaVuSans-46"/>
     <path d="M 10.984375 1.515625 
L 10.984375 10.5 
Q 14.703125 8.734375 18.5 7.8125 
Q 22.3125 6.890625 25.984375 6.890625 
Q 35.75 6.890625 40.890625 13.453125 
Q 46.046875 20.015625 46.78125 33.40625 
Q 43.953125 29.203125 39.59375 26.953125 
Q 35.25 24.703125 29.984375 24.703125 
Q 19.046875 24.703125 12.671875 31.3125 
Q 6.296875 37.9375 6.296875 49.421875 
Q 6.296875 60.640625 12.9375 67.421875 
Q 19.578125 74.21875 30.609375 74.21875 
Q 43.265625 74.21875 49.921875 64.515625 
Q 56.59375 54.828125 56.59375 36.375 
Q 56.59375 19.140625 48.40625 8.859375 
Q 40.234375 -1.421875 26.421875 -1.421875 
Q 22.703125 -1.421875 18.890625 -0.6875 
Q 15.09375 0.046875 10.984375 1.515625 
z
M 30.609375 32.421875 
Q 37.25 32.421875 41.125 36.953125 
Q 45.015625 41.5 45.015625 49.421875 
Q 45.015625 57.28125 41.125 61.84375 
Q 37.25 66.40625 30.609375 66.40625 
Q 23.96875 66.40625 20.09375 61.84375 
Q 16.21875 57.28125 16.21875 49.421875 
Q 16.21875 41.5 20.09375 36.953125 
Q 23.96875 32.421875 30.609375 32.421875 
z
" id="DejaVuSans-57"/>
    </defs>
    <g transform="translate(200.664375 28.56)scale(0.12 -0.12)">
     <use xlink:href="#DejaVuSans-116"/>
     <use x="39.208984" xlink:href="#DejaVuSans-32"/>
     <use x="70.996094" xlink:href="#DejaVuSans-61"/>
     <use x="154.785156" xlink:href="#DejaVuSans-32"/>
     <use x="186.572266" xlink:href="#DejaVuSans-49"/>
     <use x="250.195312" xlink:href="#DejaVuSans-46"/>
     <use x="281.982422" xlink:href="#DejaVuSans-57"/>
    </g>
   </g>
  </g>
 </g>
 <defs>
  <clipPath id="p3834b61cad">
   <rect height="217.44" width="334.8" x="54" y="34.56"/>
  </clipPath>
 </defs>
</svg>
