<?xml version="1.0" encoding="utf-8" standalone="no"?>
<!DOCTYPE svg PUBLIC "-//W3C//DTD SVG 1.1//EN"
  "http://www.w3.org/Graphics/SVG/1.1/DTD/svg11.dtd">
<!-- Created with matplotlib (https://matplotlib.org/) -->
<svg height="288pt" version="1.1" viewBox="0 0 432 288" width="432pt" xmlns="http://www.w3.org/2000/svg" xmlns:xlink="http://www.w3.org/1999/xlink">
 <defs>
  <style type="text/css">
*{stroke-linecap:butt;stroke-linejoin:round;}
  </style>
 </defs>
 <g id="figure_1">
  <g id="patch_1">
   <path d="M 0 288 
L 432 288 
L 432 0 
L 0 0 
z
" style="fill:#ffffff;"/>
  </g>
  <g id="axes_1">
   <g id="patch_2">
    <path clip-path="url(#pd96c02d149)" d="M 196.833955 132.673685 
L 196.751875 143.545375 
L 195.664706 143.537167 
L 195.746786 132.665477 
z
" style="stroke:#000000;stroke-linejoin:miter;"/>
   </g>
   <g id="patch_3">
    <path clip-path="url(#pd96c02d149)" d="M 251.192406 133.084085 
L 251.110326 143.955775 
L 250.023157 143.947567 
L 250.105237 133.075877 
z
" style="stroke:#000000;stroke-linejoin:miter;"/>
   </g>
   <g id="patch_4">
    <path clip-path="url(#pd96c02d149)" d="M 214.409854 132.806381 
L 214.265257 132.253727 
L 213.825309 131.734921 
L 213.097044 131.283734 
L 212.092253 130.929408 
L 210.827309 130.694746 
L 209.322897 130.59463 
L 207.603688 130.635051 
L 205.69793 130.81273 
L 203.636988 131.115341 
L 201.454819 131.522327 
L 199.187411 132.006262 
L 196.87218 132.534655 
L 194.547345 133.072088 
L 192.251283 133.58255 
L 190.021893 134.031803 
L 187.895952 134.389637 
L 185.908506 134.631863 
L 184.092285 134.741901 
L 182.477157 134.711882 
L 181.089636 134.543173 
L 179.952445 134.246294 
L 179.084152 133.840245 
L 178.498865 133.351261 
L 178.206016 132.81111 
L 178.210214 132.255014 
L 178.511186 131.719346 
L 179.103789 131.239256 
L 179.978114 130.846363 
L 181.119658 130.566688 
L 182.509568 130.418948 
L 184.124966 130.41332 
L 185.939318 130.550768 
L 187.922879 130.822974 
L 190.043175 131.212867 
L 192.265529 131.69573 
L 194.553621 132.240802 
L 196.870077 132.813276 
L 199.177065 133.376566 
L 201.436908 133.894682 
L 203.612683 134.33457 
L 205.668822 134.668264 
L 207.571679 134.874697 
L 209.290082 134.941072 
L 210.795834 134.863682 
L 212.064177 134.648147 
L 213.074203 134.309032 
L 213.809198 133.868893 
L 214.256929 133.356789 
z
" style="fill:#0000ff;stroke:#000000;stroke-linejoin:miter;"/>
   </g>
   <g id="patch_5">
    <path clip-path="url(#pd96c02d149)" d="M 268.768305 133.216781 
L 268.623708 132.664127 
L 268.18376 132.145321 
L 267.455494 131.694134 
L 266.450704 131.339808 
L 265.18576 131.105146 
L 263.681348 131.00503 
L 261.962139 131.045451 
L 260.056381 131.22313 
L 257.995439 131.52574 
L 255.81327 131.932727 
L 253.545862 132.416662 
L 251.230631 132.945055 
L 248.905795 133.482488 
L 246.609734 133.99295 
L 244.380343 134.442202 
L 242.254402 134.800037 
L 240.266957 135.042263 
L 238.450736 135.152301 
L 236.835608 135.122282 
L 235.448087 134.953572 
L 234.310896 134.656694 
L 233.442603 134.250644 
L 232.857316 133.761661 
L 232.564467 133.22151 
L 232.568665 132.665414 
L 232.869637 132.129746 
L 233.46224 131.649655 
L 234.336565 131.256762 
L 235.478109 130.977088 
L 236.868019 130.829348 
L 238.483416 130.823719 
L 240.297769 130.961168 
L 242.28133 131.233374 
L 244.401626 131.623267 
L 246.623979 132.10613 
L 248.912072 132.651201 
L 251.228527 133.223676 
L 253.535516 133.786966 
L 255.795359 134.305081 
L 257.971134 134.74497 
L 260.027272 135.078663 
L 261.93013 135.285097 
L 263.648533 135.351472 
L 265.154285 135.274082 
L 266.422628 135.058546 
L 267.432654 134.719432 
L 268.167649 134.279292 
L 268.61538 133.767188 
z
" style="fill:#0000ff;stroke:#000000;stroke-linejoin:miter;"/>
   </g>
   <g id="patch_6">
    <path clip-path="url(#pd96c02d149)" d="M 256.023106 141.274788 
L 190.792965 140.782309 
L 190.751925 146.218154 
L 255.982066 146.710633 
z
" style="fill:#999999;stroke:#000000;stroke-linejoin:miter;"/>
   </g>
   <g id="text_1">
    <!-- t = 1.9 -->
    <defs>
     <path d="M 18.3125 70.21875 
L 18.3125 54.6875 
L 36.8125 54.6875 
L 36.8125 47.703125 
L 18.3125 47.703125 
L 18.3125 18.015625 
Q 18.3125 11.328125 20.140625 9.421875 
Q 21.96875 7.515625 27.59375 7.515625 
L 36.8125 7.515625 
L 36.8125 0 
L 27.59375 0 
Q 17.1875 0 13.234375 3.875 
Q 9.28125 7.765625 9.28125 18.015625 
L 9.28125 47.703125 
L 2.6875 47.703125 
L 2.6875 54.6875 
L 9.28125 54.6875 
L 9.28125 70.21875 
z
" id="DejaVuSans-116"/>
     <path id="DejaVuSans-32"/>
     <path d="M 10.59375 45.40625 
L 73.1875 45.40625 
L 73.1875 37.203125 
L 10.59375 37.203125 
z
M 10.59375 25.484375 
L 73.1875 25.484375 
L 73.1875 17.1875 
L 10.59375 17.1875 
z
" id="DejaVuSans-61"/>
     <path d="M 12.40625 8.296875 
L 28.515625 8.296875 
L 28.515625 63.921875 
L 10.984375 60.40625 
L 10.984375 69.390625 
L 28.421875 72.90625 
L 38.28125 72.90625 
L 38.28125 8.296875 
L 54.390625 8.296875 
L 54.390625 0 
L 12.40625 0 
z
" id="DejaVuSans-49"/>
     <path d="M 10.6875 12.40625 
L 21 12.40625 
L 21 0 
L 10.6875 0 
z
" id="DejaVuSans-46"/>
     <path d="M 10.984375 1.515625 
L 10.984375 10.5 
Q 14.703125 8.734375 18.5 7.8125 
Q 22.3125 6.890625 25.984375 6.890625 
Q 35.75 6.890625 40.890625 13.453125 
Q 46.046875 20.015625 46.78125 33.40625 
Q 43.953125 29.203125 39.59375 26.953125 
Q 35.25 24.703125 29.984375 24.703125 
Q 19.046875 24.703125 12.671875 31.3125 
Q 6.296875 37.9375 6.296875 49.421875 
Q 6.296875 60.640625 12.9375 67.421875 
Q 19.578125 74.21875 30.609375 74.21875 
Q 43.265625 74.21875 49.921875 64.515625 
Q 56.59375 54.828125 56.59375 36.375 
Q 56.59375 19.140625 48.40625 8.859375 
Q 40.234375 -1.421875 26.421875 -1.421875 
Q 22.703125 -1.421875 18.890625 -0.6875 
Q 15.09375 0.046875 10.984375 1.515625 
z
M 30.609375 32.421875 
Q 37.25 32.421875 41.125 36.953125 
Q 45.015625 41.5 45.015625 49.421875 
Q 45.015625 57.28125 41.125 61.84375 
Q 37.25 66.40625 30.609375 66.40625 
Q 23.96875 66.40625 20.09375 61.84375 
Q 16.21875 57.28125 16.21875 49.421875 
Q 16.21875 41.5 20.09375 36.953125 
Q 23.96875 32.421875 30.609375 32.421875 
z
" id="DejaVuSans-57"/>
    </defs>
    <g transform="translate(200.664375 28.56)scale(0.12 -0.12)">
     <use xlink:href="#DejaVuSans-116"/>
     <use x="39.208984" xlink:href="#DejaVuSans-32"/>
     <use x="70.996094" xlink:href="#DejaVuSans-61"/>
     <use x="154.785156" xlink:href="#DejaVuSans-32"/>
     <use x="186.572266" xlink:href="#DejaVuSans-49"/>
     <use x="250.195312" xlink:href="#DejaVuSans-46"/>
     <use x="281.982422" xlink:href="#DejaVuSans-57"/>
    </g>
   </g>
  </g>
 </g>
 <defs>
  <clipPath id="pd96c02d149">
   <rect height="217.44" width="334.8" x="54" y="34.56"/>
  </clipPath>
 </defs>
</svg>
