<?xml version="1.0" encoding="utf-8" standalone="no"?>
<!DOCTYPE svg PUBLIC "-//W3C//DTD SVG 1.1//EN"
  "http://www.w3.org/Graphics/SVG/1.1/DTD/svg11.dtd">
<!-- Created with matplotlib (https://matplotlib.org/) -->
<svg height="288pt" version="1.1" viewBox="0 0 432 288" width="432pt" xmlns="http://www.w3.org/2000/svg" xmlns:xlink="http://www.w3.org/1999/xlink">
 <defs>
  <style type="text/css">
*{stroke-linecap:butt;stroke-linejoin:round;}
  </style>
 </defs>
 <g id="figure_1">
  <g id="patch_1">
   <path d="M 0 288 
L 432 288 
L 432 0 
L 0 0 
z
" style="fill:#ffffff;"/>
  </g>
  <g id="axes_1">
   <g id="patch_2">
    <path clip-path="url(#p793dbfe8b6)" d="M 194.796652 132.396075 
L 194.790519 143.268073 
L 193.70332 143.26746 
L 193.709452 132.395462 
z
" style="stroke:#000000;stroke-linejoin:miter;"/>
   </g>
   <g id="patch_3">
    <path clip-path="url(#p793dbfe8b6)" d="M 249.156643 132.426737 
L 249.150511 143.298736 
L 248.063311 143.298122 
L 248.069443 132.426124 
z
" style="stroke:#000000;stroke-linejoin:miter;"/>
   </g>
   <g id="patch_4">
    <path clip-path="url(#p793dbfe8b6)" d="M 212.373049 132.405989 
L 212.224595 131.854359 
L 211.781034 131.338639 
L 211.049634 130.89255 
L 210.042393 130.545252 
L 208.77584 130.319432 
L 207.270766 130.229828 
L 205.551881 130.282258 
L 203.647411 130.473245 
L 201.588633 130.790245 
L 199.40936 131.212465 
L 197.145388 131.712228 
L 194.833905 132.256782 
L 192.512881 132.810442 
L 190.220441 133.336931 
L 187.994243 133.801746 
L 185.870854 134.174423 
L 183.885149 134.430526 
L 182.069741 134.553249 
L 180.454443 134.534513 
L 179.065776 134.375501 
L 177.92654 134.086574 
L 177.055431 133.686599 
L 176.466743 133.201716 
L 176.170128 132.663625 
L 176.170441 132.107512 
L 176.467663 131.569756 
L 177.056898 131.085537 
L 177.928458 130.686546 
L 179.06802 130.398904 
L 180.456864 130.241458 
L 182.072183 130.224545 
L 183.887451 130.349315 
L 185.872865 130.607658 
L 187.995833 130.982731 
L 190.221506 131.450057 
L 192.51335 131.979132 
L 194.833748 132.53541 
L 197.144615 133.082571 
L 199.408022 133.584887 
L 201.586817 134.009566 
L 203.645236 134.328888 
L 205.54949 134.522024 
L 207.268314 134.576393 
L 208.773489 134.488486 
L 210.040296 134.264096 
L 211.047928 133.917934 
L 211.77983 133.472671 
L 212.223973 132.957452 
z
" style="fill:#0000ff;stroke:#000000;stroke-linejoin:miter;"/>
   </g>
   <g id="patch_5">
    <path clip-path="url(#p793dbfe8b6)" d="M 266.733041 132.436651 
L 266.584587 131.885021 
L 266.141025 131.369301 
L 265.409626 130.923213 
L 264.402385 130.575914 
L 263.135832 130.350095 
L 261.630757 130.26049 
L 259.911873 130.31292 
L 258.007403 130.503908 
L 255.948624 130.820908 
L 253.769352 131.243128 
L 251.50538 131.742891 
L 249.193896 132.287444 
L 246.872872 132.841104 
L 244.580433 133.367593 
L 242.354235 133.832408 
L 240.230845 134.205085 
L 238.24514 134.461189 
L 236.429732 134.583911 
L 234.814434 134.565176 
L 233.425768 134.406163 
L 232.286531 134.117236 
L 231.415422 133.717262 
L 230.826734 133.232379 
L 230.530119 132.694287 
L 230.530433 132.138175 
L 230.827655 131.600418 
L 231.41689 131.116199 
L 232.288449 130.717208 
L 233.428011 130.429566 
L 234.816856 130.27212 
L 236.432174 130.255207 
L 238.247442 130.379978 
L 240.232857 130.638321 
L 242.355825 131.013393 
L 244.581497 131.48072 
L 246.873341 132.009794 
L 249.193739 132.566073 
L 251.504607 133.113233 
L 253.768013 133.61555 
L 255.946808 134.040228 
L 258.005228 134.35955 
L 259.909481 134.552686 
L 261.628306 134.607055 
L 263.13348 134.519149 
L 264.400287 134.294758 
L 265.407919 133.948596 
L 266.139822 133.503333 
L 266.583964 132.988114 
z
" style="fill:#0000ff;stroke:#000000;stroke-linejoin:miter;"/>
   </g>
   <g id="patch_6">
    <path clip-path="url(#p793dbfe8b6)" d="M 254.044443 140.583496 
L 188.812454 140.546701 
L 188.809387 145.9827 
L 254.041377 146.019495 
z
" style="fill:#999999;stroke:#000000;stroke-linejoin:miter;"/>
   </g>
   <g id="text_1">
    <!-- t = 3.3 -->
    <defs>
     <path d="M 18.3125 70.21875 
L 18.3125 54.6875 
L 36.8125 54.6875 
L 36.8125 47.703125 
L 18.3125 47.703125 
L 18.3125 18.015625 
Q 18.3125 11.328125 20.140625 9.421875 
Q 21.96875 7.515625 27.59375 7.515625 
L 36.8125 7.515625 
L 36.8125 0 
L 27.59375 0 
Q 17.1875 0 13.234375 3.875 
Q 9.28125 7.765625 9.28125 18.015625 
L 9.28125 47.703125 
L 2.6875 47.703125 
L 2.6875 54.6875 
L 9.28125 54.6875 
L 9.28125 70.21875 
z
" id="DejaVuSans-116"/>
     <path id="DejaVuSans-32"/>
     <path d="M 10.59375 45.40625 
L 73.1875 45.40625 
L 73.1875 37.203125 
L 10.59375 37.203125 
z
M 10.59375 25.484375 
L 73.1875 25.484375 
L 73.1875 17.1875 
L 10.59375 17.1875 
z
" id="DejaVuSans-61"/>
     <path d="M 40.578125 39.3125 
Q 47.65625 37.796875 51.625 33 
Q 55.609375 28.21875 55.609375 21.1875 
Q 55.609375 10.40625 48.1875 4.484375 
Q 40.765625 -1.421875 27.09375 -1.421875 
Q 22.515625 -1.421875 17.65625 -0.515625 
Q 12.796875 0.390625 7.625 2.203125 
L 7.625 11.71875 
Q 11.71875 9.328125 16.59375 8.109375 
Q 21.484375 6.890625 26.8125 6.890625 
Q 36.078125 6.890625 40.9375 10.546875 
Q 45.796875 14.203125 45.796875 21.1875 
Q 45.796875 27.640625 41.28125 31.265625 
Q 36.765625 34.90625 28.71875 34.90625 
L 20.21875 34.90625 
L 20.21875 43.015625 
L 29.109375 43.015625 
Q 36.375 43.015625 40.234375 45.921875 
Q 44.09375 48.828125 44.09375 54.296875 
Q 44.09375 59.90625 40.109375 62.90625 
Q 36.140625 65.921875 28.71875 65.921875 
Q 24.65625 65.921875 20.015625 65.03125 
Q 15.375 64.15625 9.8125 62.3125 
L 9.8125 71.09375 
Q 15.4375 72.65625 20.34375 73.4375 
Q 25.25 74.21875 29.59375 74.21875 
Q 40.828125 74.21875 47.359375 69.109375 
Q 53.90625 64.015625 53.90625 55.328125 
Q 53.90625 49.265625 50.4375 45.09375 
Q 46.96875 40.921875 40.578125 39.3125 
z
" id="DejaVuSans-51"/>
     <path d="M 10.6875 12.40625 
L 21 12.40625 
L 21 0 
L 10.6875 0 
z
" id="DejaVuSans-46"/>
    </defs>
    <g transform="translate(200.664375 28.56)scale(0.12 -0.12)">
     <use xlink:href="#DejaVuSans-116"/>
     <use x="39.208984" xlink:href="#DejaVuSans-32"/>
     <use x="70.996094" xlink:href="#DejaVuSans-61"/>
     <use x="154.785156" xlink:href="#DejaVuSans-32"/>
     <use x="186.572266" xlink:href="#DejaVuSans-51"/>
     <use x="250.195312" xlink:href="#DejaVuSans-46"/>
     <use x="281.982422" xlink:href="#DejaVuSans-51"/>
    </g>
   </g>
  </g>
 </g>
 <defs>
  <clipPath id="p793dbfe8b6">
   <rect height="217.44" width="334.8" x="54" y="34.56"/>
  </clipPath>
 </defs>
</svg>
