<?xml version="1.0" encoding="utf-8" standalone="no"?>
<!DOCTYPE svg PUBLIC "-//W3C//DTD SVG 1.1//EN"
  "http://www.w3.org/Graphics/SVG/1.1/DTD/svg11.dtd">
<!-- Created with matplotlib (https://matplotlib.org/) -->
<svg height="288pt" version="1.1" viewBox="0 0 432 288" width="432pt" xmlns="http://www.w3.org/2000/svg" xmlns:xlink="http://www.w3.org/1999/xlink">
 <defs>
  <style type="text/css">
*{stroke-linecap:butt;stroke-linejoin:round;}
  </style>
 </defs>
 <g id="figure_1">
  <g id="patch_1">
   <path d="M 0 288 
L 432 288 
L 432 0 
L 0 0 
z
" style="fill:#ffffff;"/>
  </g>
  <g id="axes_1">
   <g id="patch_2">
    <path clip-path="url(#pada46eb2ae)" d="M 194.765556 132.408084 
L 194.765909 143.280084 
L 193.678709 143.280119 
L 193.678356 132.408119 
z
" style="stroke:#000000;stroke-linejoin:miter;"/>
   </g>
   <g id="patch_3">
    <path clip-path="url(#pada46eb2ae)" d="M 249.125556 132.406322 
L 249.125909 143.278322 
L 248.038709 143.278357 
L 248.038356 132.406357 
z
" style="stroke:#000000;stroke-linejoin:miter;"/>
   </g>
   <g id="patch_4">
    <path clip-path="url(#pada46eb2ae)" d="M 212.341956 132.407514 
L 212.193174 131.855972 
L 211.749305 131.340517 
L 211.017639 130.894865 
L 210.010191 130.548167 
L 208.743504 130.323103 
L 207.238376 130.234397 
L 205.519523 130.287852 
L 203.615167 130.479976 
L 201.556578 130.798203 
L 199.377558 131.221723 
L 197.113884 131.722836 
L 194.802726 132.268768 
L 192.482033 132.823813 
L 190.189908 133.351669 
L 187.963987 133.817812 
L 185.84082 134.191756 
L 183.855269 134.449043 
L 182.039934 134.572849 
L 180.424625 134.555077 
L 179.035864 134.396893 
L 177.896456 134.108645 
L 177.025108 133.70919 
L 176.436131 133.224659 
L 176.139195 132.686744 
L 176.139177 132.130632 
L 176.436078 131.592697 
L 177.025024 131.108127 
L 177.896345 130.708616 
L 179.035736 130.420295 
L 180.424486 130.262021 
L 182.039794 130.244144 
L 183.855136 130.367832 
L 185.840705 130.624991 
L 187.963896 130.998797 
L 190.189847 131.464795 
L 192.482006 131.992503 
L 194.802736 132.547397 
L 197.113929 133.093179 
L 199.377635 133.594146 
L 201.556683 134.017524 
L 203.615292 134.335619 
L 205.51966 134.527619 
L 207.238517 134.580962 
L 208.743639 134.492158 
L 210.010312 134.267012 
L 211.017737 133.920249 
L 211.749374 133.47455 
L 212.193209 132.959066 
z
" style="fill:#0000ff;stroke:#000000;stroke-linejoin:miter;"/>
   </g>
   <g id="patch_5">
    <path clip-path="url(#pada46eb2ae)" d="M 266.701956 132.405752 
L 266.553174 131.85421 
L 266.109305 131.338755 
L 265.377639 130.893103 
L 264.370191 130.546405 
L 263.103504 130.321341 
L 261.598376 130.232635 
L 259.879523 130.28609 
L 257.975167 130.478213 
L 255.916578 130.796441 
L 253.737558 131.219961 
L 251.473884 131.721074 
L 249.162726 132.267006 
L 246.842033 132.822051 
L 244.549908 133.349907 
L 242.323987 133.81605 
L 240.20082 134.189994 
L 238.215269 134.447281 
L 236.399934 134.571087 
L 234.784625 134.553315 
L 233.395864 134.395131 
L 232.256456 134.106883 
L 231.385108 133.707428 
L 230.796131 133.222897 
L 230.499195 132.684982 
L 230.499177 132.12887 
L 230.796078 131.590935 
L 231.385024 131.106365 
L 232.256345 130.706854 
L 233.395735 130.418533 
L 234.784486 130.260259 
L 236.399794 130.242382 
L 238.215136 130.36607 
L 240.200705 130.623229 
L 242.323896 130.997035 
L 244.549846 131.463033 
L 246.842006 131.990741 
L 249.162735 132.545635 
L 251.473929 133.091417 
L 253.737635 133.592383 
L 255.916683 134.015762 
L 257.975292 134.333857 
L 259.87966 134.525857 
L 261.598517 134.5792 
L 263.103639 134.490396 
L 264.370312 134.26525 
L 265.377737 133.918487 
L 266.109374 133.472788 
L 266.553209 132.957303 
z
" style="fill:#0000ff;stroke:#000000;stroke-linejoin:miter;"/>
   </g>
   <g id="patch_6">
    <path clip-path="url(#pada46eb2ae)" d="M 254.018221 140.560163 
L 188.786221 140.562278 
L 188.786397 145.998278 
L 254.018397 145.996163 
z
" style="fill:#999999;stroke:#000000;stroke-linejoin:miter;"/>
   </g>
   <g id="text_1">
    <!-- t = 3.3 -->
    <defs>
     <path d="M 18.3125 70.21875 
L 18.3125 54.6875 
L 36.8125 54.6875 
L 36.8125 47.703125 
L 18.3125 47.703125 
L 18.3125 18.015625 
Q 18.3125 11.328125 20.140625 9.421875 
Q 21.96875 7.515625 27.59375 7.515625 
L 36.8125 7.515625 
L 36.8125 0 
L 27.59375 0 
Q 17.1875 0 13.234375 3.875 
Q 9.28125 7.765625 9.28125 18.015625 
L 9.28125 47.703125 
L 2.6875 47.703125 
L 2.6875 54.6875 
L 9.28125 54.6875 
L 9.28125 70.21875 
z
" id="DejaVuSans-116"/>
     <path id="DejaVuSans-32"/>
     <path d="M 10.59375 45.40625 
L 73.1875 45.40625 
L 73.1875 37.203125 
L 10.59375 37.203125 
z
M 10.59375 25.484375 
L 73.1875 25.484375 
L 73.1875 17.1875 
L 10.59375 17.1875 
z
" id="DejaVuSans-61"/>
     <path d="M 40.578125 39.3125 
Q 47.65625 37.796875 51.625 33 
Q 55.609375 28.21875 55.609375 21.1875 
Q 55.609375 10.40625 48.1875 4.484375 
Q 40.765625 -1.421875 27.09375 -1.421875 
Q 22.515625 -1.421875 17.65625 -0.515625 
Q 12.796875 0.390625 7.625 2.203125 
L 7.625 11.71875 
Q 11.71875 9.328125 16.59375 8.109375 
Q 21.484375 6.890625 26.8125 6.890625 
Q 36.078125 6.890625 40.9375 10.546875 
Q 45.796875 14.203125 45.796875 21.1875 
Q 45.796875 27.640625 41.28125 31.265625 
Q 36.765625 34.90625 28.71875 34.90625 
L 20.21875 34.90625 
L 20.21875 43.015625 
L 29.109375 43.015625 
Q 36.375 43.015625 40.234375 45.921875 
Q 44.09375 48.828125 44.09375 54.296875 
Q 44.09375 59.90625 40.109375 62.90625 
Q 36.140625 65.921875 28.71875 65.921875 
Q 24.65625 65.921875 20.015625 65.03125 
Q 15.375 64.15625 9.8125 62.3125 
L 9.8125 71.09375 
Q 15.4375 72.65625 20.34375 73.4375 
Q 25.25 74.21875 29.59375 74.21875 
Q 40.828125 74.21875 47.359375 69.109375 
Q 53.90625 64.015625 53.90625 55.328125 
Q 53.90625 49.265625 50.4375 45.09375 
Q 46.96875 40.921875 40.578125 39.3125 
z
" id="DejaVuSans-51"/>
     <path d="M 10.6875 12.40625 
L 21 12.40625 
L 21 0 
L 10.6875 0 
z
" id="DejaVuSans-46"/>
    </defs>
    <g transform="translate(200.664375 28.56)scale(0.12 -0.12)">
     <use xlink:href="#DejaVuSans-116"/>
     <use x="39.208984" xlink:href="#DejaVuSans-32"/>
     <use x="70.996094" xlink:href="#DejaVuSans-61"/>
     <use x="154.785156" xlink:href="#DejaVuSans-32"/>
     <use x="186.572266" xlink:href="#DejaVuSans-51"/>
     <use x="250.195312" xlink:href="#DejaVuSans-46"/>
     <use x="281.982422" xlink:href="#DejaVuSans-51"/>
    </g>
   </g>
  </g>
 </g>
 <defs>
  <clipPath id="pada46eb2ae">
   <rect height="217.44" width="334.8" x="54" y="34.56"/>
  </clipPath>
 </defs>
</svg>
