<?xml version="1.0" encoding="utf-8" standalone="no"?>
<!DOCTYPE svg PUBLIC "-//W3C//DTD SVG 1.1//EN"
  "http://www.w3.org/Graphics/SVG/1.1/DTD/svg11.dtd">
<!-- Created with matplotlib (https://matplotlib.org/) -->
<svg height="288pt" version="1.1" viewBox="0 0 432 288" width="432pt" xmlns="http://www.w3.org/2000/svg" xmlns:xlink="http://www.w3.org/1999/xlink">
 <defs>
  <style type="text/css">
*{stroke-linecap:butt;stroke-linejoin:round;}
  </style>
 </defs>
 <g id="figure_1">
  <g id="patch_1">
   <path d="M 0 288 
L 432 288 
L 432 0 
L 0 0 
z
" style="fill:#ffffff;"/>
  </g>
  <g id="axes_1">
   <g id="patch_2">
    <path clip-path="url(#pda06106cfe)" d="M 194.993083 132.029616 
L 194.899881 142.901216 
L 193.812721 142.891896 
L 193.905923 132.020295 
z
" style="stroke:#000000;stroke-linejoin:miter;"/>
   </g>
   <g id="patch_3">
    <path clip-path="url(#pda06106cfe)" d="M 249.351085 132.495625 
L 249.257884 143.367226 
L 248.170723 143.357906 
L 248.263925 132.486305 
z
" style="stroke:#000000;stroke-linejoin:miter;"/>
   </g>
   <g id="patch_4">
    <path clip-path="url(#pda06106cfe)" d="M 212.568837 132.180292 
L 212.424806 131.627491 
L 211.985389 131.108235 
L 211.257585 130.656303 
L 210.253158 130.300949 
L 208.988454 130.064994 
L 207.484146 129.963338 
L 205.764896 130.002001 
L 203.858958 130.17773 
L 201.797707 130.478232 
L 199.615122 130.882986 
L 197.34722 131.364601 
L 195.03145 131.890625 
L 192.706066 132.42568 
L 190.409484 132.933792 
L 188.179635 133.380764 
L 186.053329 133.736423 
L 184.065637 133.976616 
L 182.249304 134.084795 
L 180.634208 134.053124 
L 179.246859 133.882996 
L 178.109973 133.584954 
L 177.242096 133.178016 
L 176.657309 132.688434 
L 176.365013 132.147984 
L 176.369781 131.591892 
L 176.6713 131.056533 
L 177.264394 130.577049 
L 178.139121 130.18505 
L 179.280949 129.906544 
L 180.671011 129.760226 
L 182.286413 129.75625 
L 184.100623 129.895554 
L 186.083905 130.169789 
L 188.203801 130.561852 
L 190.42566 131.046988 
L 192.713193 131.5944 
L 195.029062 132.169243 
L 197.335473 132.734893 
L 199.594784 133.255321 
L 201.770109 133.697435 
L 203.825905 134.033232 
L 205.72855 134.241612 
L 207.446884 134.309744 
L 208.952714 134.233895 
L 210.221278 134.019657 
L 211.23165 133.681576 
L 211.967095 133.242189 
L 212.415349 132.730543 
z
" style="fill:#0000ff;stroke:#000000;stroke-linejoin:miter;"/>
   </g>
   <g id="patch_5">
    <path clip-path="url(#pda06106cfe)" d="M 266.92684 132.646302 
L 266.782808 132.0935 
L 266.343391 131.574244 
L 265.615588 131.122313 
L 264.61116 130.766959 
L 263.346457 130.531003 
L 261.842148 130.429348 
L 260.122899 130.468011 
L 258.21696 130.64374 
L 256.155709 130.944241 
L 253.973125 131.348995 
L 251.705223 131.830611 
L 249.389453 132.356635 
L 247.064069 132.891689 
L 244.767487 133.399802 
L 242.537637 133.846773 
L 240.411331 134.202433 
L 238.423639 134.442625 
L 236.607307 134.550805 
L 234.99221 134.519134 
L 233.604862 134.349005 
L 232.467976 134.050964 
L 231.600098 133.644026 
L 231.015312 133.154444 
L 230.723016 132.613994 
L 230.727783 132.057902 
L 231.029302 131.522543 
L 231.622396 131.043058 
L 232.497123 130.65106 
L 233.638952 130.372554 
L 235.029013 130.226236 
L 236.644415 130.222259 
L 238.458626 130.361564 
L 240.441908 130.635799 
L 242.561804 131.027861 
L 244.783662 131.512997 
L 247.071195 132.060409 
L 249.387064 132.635253 
L 251.693476 133.200903 
L 253.952787 133.72133 
L 256.128111 134.163444 
L 258.183907 134.499241 
L 260.086552 134.707621 
L 261.804887 134.775754 
L 263.310717 134.699905 
L 264.57928 134.485667 
L 265.589652 134.147586 
L 266.325097 133.708198 
L 266.773352 133.196553 
z
" style="fill:#0000ff;stroke:#000000;stroke-linejoin:miter;"/>
   </g>
   <g id="patch_6">
    <path clip-path="url(#pda06106cfe)" d="M 254.173404 140.691266 
L 188.943801 140.132055 
L 188.8972 145.567855 
L 254.126803 146.127067 
z
" style="fill:#999999;stroke:#000000;stroke-linejoin:miter;"/>
   </g>
   <g id="text_1">
    <!-- t = 1.7 -->
    <defs>
     <path d="M 18.3125 70.21875 
L 18.3125 54.6875 
L 36.8125 54.6875 
L 36.8125 47.703125 
L 18.3125 47.703125 
L 18.3125 18.015625 
Q 18.3125 11.328125 20.140625 9.421875 
Q 21.96875 7.515625 27.59375 7.515625 
L 36.8125 7.515625 
L 36.8125 0 
L 27.59375 0 
Q 17.1875 0 13.234375 3.875 
Q 9.28125 7.765625 9.28125 18.015625 
L 9.28125 47.703125 
L 2.6875 47.703125 
L 2.6875 54.6875 
L 9.28125 54.6875 
L 9.28125 70.21875 
z
" id="DejaVuSans-116"/>
     <path id="DejaVuSans-32"/>
     <path d="M 10.59375 45.40625 
L 73.1875 45.40625 
L 73.1875 37.203125 
L 10.59375 37.203125 
z
M 10.59375 25.484375 
L 73.1875 25.484375 
L 73.1875 17.1875 
L 10.59375 17.1875 
z
" id="DejaVuSans-61"/>
     <path d="M 12.40625 8.296875 
L 28.515625 8.296875 
L 28.515625 63.921875 
L 10.984375 60.40625 
L 10.984375 69.390625 
L 28.421875 72.90625 
L 38.28125 72.90625 
L 38.28125 8.296875 
L 54.390625 8.296875 
L 54.390625 0 
L 12.40625 0 
z
" id="DejaVuSans-49"/>
     <path d="M 10.6875 12.40625 
L 21 12.40625 
L 21 0 
L 10.6875 0 
z
" id="DejaVuSans-46"/>
     <path d="M 8.203125 72.90625 
L 55.078125 72.90625 
L 55.078125 68.703125 
L 28.609375 0 
L 18.3125 0 
L 43.21875 64.59375 
L 8.203125 64.59375 
z
" id="DejaVuSans-55"/>
    </defs>
    <g transform="translate(200.664375 28.56)scale(0.12 -0.12)">
     <use xlink:href="#DejaVuSans-116"/>
     <use x="39.208984" xlink:href="#DejaVuSans-32"/>
     <use x="70.996094" xlink:href="#DejaVuSans-61"/>
     <use x="154.785156" xlink:href="#DejaVuSans-32"/>
     <use x="186.572266" xlink:href="#DejaVuSans-49"/>
     <use x="250.195312" xlink:href="#DejaVuSans-46"/>
     <use x="281.982422" xlink:href="#DejaVuSans-55"/>
    </g>
   </g>
  </g>
 </g>
 <defs>
  <clipPath id="pda06106cfe">
   <rect height="217.44" width="334.8" x="54" y="34.56"/>
  </clipPath>
 </defs>
</svg>
