<?xml version="1.0" encoding="utf-8" standalone="no"?>
<!DOCTYPE svg PUBLIC "-//W3C//DTD SVG 1.1//EN"
  "http://www.w3.org/Graphics/SVG/1.1/DTD/svg11.dtd">
<!-- Created with matplotlib (https://matplotlib.org/) -->
<svg height="288pt" version="1.1" viewBox="0 0 432 288" width="432pt" xmlns="http://www.w3.org/2000/svg" xmlns:xlink="http://www.w3.org/1999/xlink">
 <defs>
  <style type="text/css">
*{stroke-linecap:butt;stroke-linejoin:round;}
  </style>
 </defs>
 <g id="figure_1">
  <g id="patch_1">
   <path d="M 0 288 
L 432 288 
L 432 0 
L 0 0 
z
" style="fill:#ffffff;"/>
  </g>
  <g id="axes_1">
   <g id="patch_2">
    <path clip-path="url(#p69aababc8d)" d="M 195.006332 132.424762 
L 194.998417 143.296759 
L 193.911218 143.295967 
L 193.919133 132.42397 
z
" style="stroke:#000000;stroke-linejoin:miter;"/>
   </g>
   <g id="patch_3">
    <path clip-path="url(#p69aababc8d)" d="M 249.366318 132.464336 
L 249.358403 143.336333 
L 248.271203 143.335542 
L 248.279118 132.463544 
z
" style="stroke:#000000;stroke-linejoin:miter;"/>
   </g>
   <g id="patch_4">
    <path clip-path="url(#p69aababc8d)" d="M 212.582728 132.437557 
L 212.434364 131.885903 
L 211.990887 131.37011 
L 211.259561 130.923902 
L 210.252377 130.576438 
L 208.985861 130.350411 
L 207.480801 130.26056 
L 205.761908 130.312708 
L 203.857407 130.503383 
L 201.798576 130.820046 
L 199.619234 131.241909 
L 197.355181 131.7413 
L 195.043608 132.285475 
L 192.722493 132.838755 
L 190.429967 133.364867 
L 188.203693 133.829318 
L 186.080242 134.201647 
L 184.094496 134.457424 
L 182.279068 134.579849 
L 180.663773 134.560849 
L 179.275132 134.401609 
L 178.135943 134.112495 
L 177.2649 133.712378 
L 176.676291 133.227398 
L 176.379764 132.689258 
L 176.380169 132.133146 
L 176.677479 131.595438 
L 177.266794 131.111316 
L 178.138418 130.712467 
L 179.278027 130.425012 
L 180.666898 130.267794 
L 182.282219 130.251146 
L 184.097467 130.376214 
L 186.082839 130.634883 
L 188.205745 131.010303 
L 190.431341 131.477994 
L 192.723098 132.007444 
L 195.043405 132.564103 
L 197.354183 133.111643 
L 199.617507 133.61433 
L 201.796233 134.039366 
L 203.8546 134.359025 
L 205.758821 134.552473 
L 207.477637 134.607124 
L 208.982826 134.519465 
L 210.249669 134.295282 
L 211.257358 133.949285 
L 211.989334 133.504142 
L 212.433561 132.988996 
z
" style="fill:#0000ff;stroke:#000000;stroke-linejoin:miter;"/>
   </g>
   <g id="patch_5">
    <path clip-path="url(#p69aababc8d)" d="M 266.942713 132.477132 
L 266.79435 131.925477 
L 266.350873 131.409684 
L 265.619546 130.963476 
L 264.612362 130.616012 
L 263.345847 130.389985 
L 261.840787 130.300134 
L 260.121893 130.352282 
L 258.217392 130.542958 
L 256.158562 130.85962 
L 253.97922 131.281483 
L 251.715166 131.780874 
L 249.403594 132.325049 
L 247.082479 132.878329 
L 244.789953 133.404441 
L 242.563679 133.868892 
L 240.440228 134.241221 
L 238.454481 134.496998 
L 236.639053 134.619423 
L 235.023758 134.600423 
L 233.635118 134.441183 
L 232.495929 134.152069 
L 231.624886 133.751952 
L 231.036277 133.266972 
L 230.73975 132.728832 
L 230.740155 132.17272 
L 231.037465 131.635012 
L 231.626779 131.15089 
L 232.498404 130.752041 
L 233.638013 130.464586 
L 235.026884 130.307368 
L 236.642205 130.29072 
L 238.457452 130.415788 
L 240.442825 130.674457 
L 242.565731 131.049877 
L 244.791327 131.517568 
L 247.083084 132.047018 
L 249.403391 132.603677 
L 251.714169 133.151217 
L 253.977493 133.653904 
L 256.156218 134.07894 
L 258.214585 134.3986 
L 260.118807 134.592048 
L 261.837623 134.646698 
L 263.342811 134.559039 
L 264.609655 134.334856 
L 265.617344 133.988859 
L 266.349319 133.543716 
L 266.793547 133.02857 
z
" style="fill:#0000ff;stroke:#000000;stroke-linejoin:miter;"/>
   </g>
   <g id="patch_6">
    <path clip-path="url(#p69aababc8d)" d="M 254.25278 140.621895 
L 189.020798 140.574407 
L 189.01684 146.010405 
L 254.248823 146.057894 
z
" style="fill:#999999;stroke:#000000;stroke-linejoin:miter;"/>
   </g>
   <g id="text_1">
    <!-- t = 2.3 -->
    <defs>
     <path d="M 18.3125 70.21875 
L 18.3125 54.6875 
L 36.8125 54.6875 
L 36.8125 47.703125 
L 18.3125 47.703125 
L 18.3125 18.015625 
Q 18.3125 11.328125 20.140625 9.421875 
Q 21.96875 7.515625 27.59375 7.515625 
L 36.8125 7.515625 
L 36.8125 0 
L 27.59375 0 
Q 17.1875 0 13.234375 3.875 
Q 9.28125 7.765625 9.28125 18.015625 
L 9.28125 47.703125 
L 2.6875 47.703125 
L 2.6875 54.6875 
L 9.28125 54.6875 
L 9.28125 70.21875 
z
" id="DejaVuSans-116"/>
     <path id="DejaVuSans-32"/>
     <path d="M 10.59375 45.40625 
L 73.1875 45.40625 
L 73.1875 37.203125 
L 10.59375 37.203125 
z
M 10.59375 25.484375 
L 73.1875 25.484375 
L 73.1875 17.1875 
L 10.59375 17.1875 
z
" id="DejaVuSans-61"/>
     <path d="M 19.1875 8.296875 
L 53.609375 8.296875 
L 53.609375 0 
L 7.328125 0 
L 7.328125 8.296875 
Q 12.9375 14.109375 22.625 23.890625 
Q 32.328125 33.6875 34.8125 36.53125 
Q 39.546875 41.84375 41.421875 45.53125 
Q 43.3125 49.21875 43.3125 52.78125 
Q 43.3125 58.59375 39.234375 62.25 
Q 35.15625 65.921875 28.609375 65.921875 
Q 23.96875 65.921875 18.8125 64.3125 
Q 13.671875 62.703125 7.8125 59.421875 
L 7.8125 69.390625 
Q 13.765625 71.78125 18.9375 73 
Q 24.125 74.21875 28.421875 74.21875 
Q 39.75 74.21875 46.484375 68.546875 
Q 53.21875 62.890625 53.21875 53.421875 
Q 53.21875 48.921875 51.53125 44.890625 
Q 49.859375 40.875 45.40625 35.40625 
Q 44.1875 33.984375 37.640625 27.21875 
Q 31.109375 20.453125 19.1875 8.296875 
z
" id="DejaVuSans-50"/>
     <path d="M 10.6875 12.40625 
L 21 12.40625 
L 21 0 
L 10.6875 0 
z
" id="DejaVuSans-46"/>
     <path d="M 40.578125 39.3125 
Q 47.65625 37.796875 51.625 33 
Q 55.609375 28.21875 55.609375 21.1875 
Q 55.609375 10.40625 48.1875 4.484375 
Q 40.765625 -1.421875 27.09375 -1.421875 
Q 22.515625 -1.421875 17.65625 -0.515625 
Q 12.796875 0.390625 7.625 2.203125 
L 7.625 11.71875 
Q 11.71875 9.328125 16.59375 8.109375 
Q 21.484375 6.890625 26.8125 6.890625 
Q 36.078125 6.890625 40.9375 10.546875 
Q 45.796875 14.203125 45.796875 21.1875 
Q 45.796875 27.640625 41.28125 31.265625 
Q 36.765625 34.90625 28.71875 34.90625 
L 20.21875 34.90625 
L 20.21875 43.015625 
L 29.109375 43.015625 
Q 36.375 43.015625 40.234375 45.921875 
Q 44.09375 48.828125 44.09375 54.296875 
Q 44.09375 59.90625 40.109375 62.90625 
Q 36.140625 65.921875 28.71875 65.921875 
Q 24.65625 65.921875 20.015625 65.03125 
Q 15.375 64.15625 9.8125 62.3125 
L 9.8125 71.09375 
Q 15.4375 72.65625 20.34375 73.4375 
Q 25.25 74.21875 29.59375 74.21875 
Q 40.828125 74.21875 47.359375 69.109375 
Q 53.90625 64.015625 53.90625 55.328125 
Q 53.90625 49.265625 50.4375 45.09375 
Q 46.96875 40.921875 40.578125 39.3125 
z
" id="DejaVuSans-51"/>
    </defs>
    <g transform="translate(200.664375 28.56)scale(0.12 -0.12)">
     <use xlink:href="#DejaVuSans-116"/>
     <use x="39.208984" xlink:href="#DejaVuSans-32"/>
     <use x="70.996094" xlink:href="#DejaVuSans-61"/>
     <use x="154.785156" xlink:href="#DejaVuSans-32"/>
     <use x="186.572266" xlink:href="#DejaVuSans-50"/>
     <use x="250.195312" xlink:href="#DejaVuSans-46"/>
     <use x="281.982422" xlink:href="#DejaVuSans-51"/>
    </g>
   </g>
  </g>
 </g>
 <defs>
  <clipPath id="p69aababc8d">
   <rect height="217.44" width="334.8" x="54" y="34.56"/>
  </clipPath>
 </defs>
</svg>
