<?xml version="1.0" encoding="utf-8" standalone="no"?>
<!DOCTYPE svg PUBLIC "-//W3C//DTD SVG 1.1//EN"
  "http://www.w3.org/Graphics/SVG/1.1/DTD/svg11.dtd">
<!-- Created with matplotlib (https://matplotlib.org/) -->
<svg height="288pt" version="1.1" viewBox="0 0 432 288" width="432pt" xmlns="http://www.w3.org/2000/svg" xmlns:xlink="http://www.w3.org/1999/xlink">
 <defs>
  <style type="text/css">
*{stroke-linecap:butt;stroke-linejoin:round;}
  </style>
 </defs>
 <g id="figure_1">
  <g id="patch_1">
   <path d="M 0 288 
L 432 288 
L 432 0 
L 0 0 
z
" style="fill:#ffffff;"/>
  </g>
  <g id="axes_1">
   <g id="patch_2">
    <path clip-path="url(#p7add58dee5)" d="M 109.643253 150.551739 
L 112.970765 160.902007 
L 111.935738 161.234758 
L 108.608226 150.88449 
z
" style="stroke:#000000;stroke-linejoin:miter;"/>
   </g>
   <g id="patch_3">
    <path clip-path="url(#p7add58dee5)" d="M 161.394592 133.914178 
L 164.722105 144.264446 
L 163.687078 144.597197 
L 160.359566 134.246929 
z
" style="stroke:#000000;stroke-linejoin:miter;"/>
   </g>
   <g id="patch_4">
    <path clip-path="url(#p7add58dee5)" d="M 126.376186 145.172261 
L 126.065752 144.692714 
L 125.485434 144.337827 
L 124.652489 144.13747 
L 123.587276 144.115717 
L 122.312486 144.289098 
L 120.852426 144.665264 
L 119.2324 145.242178 
L 117.478209 146.007877 
L 115.615776 146.94083 
L 113.670912 148.01088 
L 111.669203 149.180706 
L 109.636004 150.407732 
L 107.596516 151.646353 
L 105.575905 152.850346 
L 103.599435 153.975326 
L 101.692574 154.981085 
L 99.881024 155.83367 
L 98.190676 156.507085 
L 96.647428 156.984502 
L 95.276889 157.258912 
L 94.103935 157.333189 
L 93.152148 157.21956 
L 92.443147 156.938521 
L 91.995838 156.517286 
L 91.825633 155.987861 
L 91.943664 155.384875 
L 92.35606 154.743318 
L 93.063313 154.096323 
L 94.059801 153.473146 
L 95.333485 152.897463 
L 96.865821 152.386109 
L 98.631918 151.94831 
L 100.600921 151.585484 
L 102.73664 151.291591 
L 104.998403 151.054021 
L 107.342083 150.854936 
L 109.721282 150.67299 
L 112.088614 150.485288 
L 114.397022 150.269453 
L 116.60109 150.005661 
L 118.658277 149.678493 
L 120.530034 149.278484 
L 122.182747 148.803244 
L 123.588478 148.258086 
L 124.725476 147.6561 
L 125.578446 147.01767 
L 126.138581 146.36945 
L 126.403368 145.742871 
z
" style="fill:#0000ff;stroke:#000000;stroke-linejoin:miter;"/>
   </g>
   <g id="patch_5">
    <path clip-path="url(#p7add58dee5)" d="M 178.127526 128.5347 
L 177.817092 128.055152 
L 177.236774 127.700266 
L 176.403829 127.499909 
L 175.338616 127.478156 
L 174.063826 127.651537 
L 172.603766 128.027703 
L 170.98374 128.604617 
L 169.229548 129.370316 
L 167.367116 130.303269 
L 165.422252 131.373319 
L 163.420543 132.543145 
L 161.387344 133.770171 
L 159.347855 135.008792 
L 157.327244 136.212785 
L 155.350775 137.337765 
L 153.443914 138.343524 
L 151.632364 139.196109 
L 149.942016 139.869524 
L 148.398768 140.346941 
L 147.028229 140.621351 
L 145.855274 140.695628 
L 144.903488 140.581999 
L 144.194486 140.30096 
L 143.747178 139.879725 
L 143.576973 139.3503 
L 143.695004 138.747314 
L 144.1074 138.105757 
L 144.814653 137.458762 
L 145.811141 136.835584 
L 147.084824 136.259902 
L 148.617161 135.748548 
L 150.383258 135.310749 
L 152.35226 134.947923 
L 154.48798 134.65403 
L 156.749743 134.416459 
L 159.093422 134.217374 
L 161.472622 134.035429 
L 163.839954 133.847727 
L 166.148362 133.631892 
L 168.352429 133.368099 
L 170.409616 133.040932 
L 172.281373 132.640923 
L 173.934087 132.165683 
L 175.339818 131.620525 
L 176.476815 131.018539 
L 177.329785 130.380109 
L 177.889921 129.731889 
L 178.154707 129.10531 
z
" style="fill:#0000ff;stroke:#000000;stroke-linejoin:miter;"/>
   </g>
   <g id="patch_6">
    <path clip-path="url(#p7add58dee5)" d="M 168.547847 140.179498 
L 106.44624 160.144572 
L 108.109996 165.319706 
L 170.211603 145.354632 
z
" style="fill:#999999;stroke:#000000;stroke-linejoin:miter;"/>
   </g>
   <g id="text_1">
    <!-- t = 0.7 -->
    <defs>
     <path d="M 18.3125 70.21875 
L 18.3125 54.6875 
L 36.8125 54.6875 
L 36.8125 47.703125 
L 18.3125 47.703125 
L 18.3125 18.015625 
Q 18.3125 11.328125 20.140625 9.421875 
Q 21.96875 7.515625 27.59375 7.515625 
L 36.8125 7.515625 
L 36.8125 0 
L 27.59375 0 
Q 17.1875 0 13.234375 3.875 
Q 9.28125 7.765625 9.28125 18.015625 
L 9.28125 47.703125 
L 2.6875 47.703125 
L 2.6875 54.6875 
L 9.28125 54.6875 
L 9.28125 70.21875 
z
" id="DejaVuSans-116"/>
     <path id="DejaVuSans-32"/>
     <path d="M 10.59375 45.40625 
L 73.1875 45.40625 
L 73.1875 37.203125 
L 10.59375 37.203125 
z
M 10.59375 25.484375 
L 73.1875 25.484375 
L 73.1875 17.1875 
L 10.59375 17.1875 
z
" id="DejaVuSans-61"/>
     <path d="M 31.78125 66.40625 
Q 24.171875 66.40625 20.328125 58.90625 
Q 16.5 51.421875 16.5 36.375 
Q 16.5 21.390625 20.328125 13.890625 
Q 24.171875 6.390625 31.78125 6.390625 
Q 39.453125 6.390625 43.28125 13.890625 
Q 47.125 21.390625 47.125 36.375 
Q 47.125 51.421875 43.28125 58.90625 
Q 39.453125 66.40625 31.78125 66.40625 
z
M 31.78125 74.21875 
Q 44.046875 74.21875 50.515625 64.515625 
Q 56.984375 54.828125 56.984375 36.375 
Q 56.984375 17.96875 50.515625 8.265625 
Q 44.046875 -1.421875 31.78125 -1.421875 
Q 19.53125 -1.421875 13.0625 8.265625 
Q 6.59375 17.96875 6.59375 36.375 
Q 6.59375 54.828125 13.0625 64.515625 
Q 19.53125 74.21875 31.78125 74.21875 
z
" id="DejaVuSans-48"/>
     <path d="M 10.6875 12.40625 
L 21 12.40625 
L 21 0 
L 10.6875 0 
z
" id="DejaVuSans-46"/>
     <path d="M 8.203125 72.90625 
L 55.078125 72.90625 
L 55.078125 68.703125 
L 28.609375 0 
L 18.3125 0 
L 43.21875 64.59375 
L 8.203125 64.59375 
z
" id="DejaVuSans-55"/>
    </defs>
    <g transform="translate(200.664375 28.56)scale(0.12 -0.12)">
     <use xlink:href="#DejaVuSans-116"/>
     <use x="39.208984" xlink:href="#DejaVuSans-32"/>
     <use x="70.996094" xlink:href="#DejaVuSans-61"/>
     <use x="154.785156" xlink:href="#DejaVuSans-32"/>
     <use x="186.572266" xlink:href="#DejaVuSans-48"/>
     <use x="250.195312" xlink:href="#DejaVuSans-46"/>
     <use x="281.982422" xlink:href="#DejaVuSans-55"/>
    </g>
   </g>
  </g>
 </g>
 <defs>
  <clipPath id="p7add58dee5">
   <rect height="217.44" width="334.8" x="54" y="34.56"/>
  </clipPath>
 </defs>
</svg>
