<?xml version="1.0" encoding="utf-8" standalone="no"?>
<!DOCTYPE svg PUBLIC "-//W3C//DTD SVG 1.1//EN"
  "http://www.w3.org/Graphics/SVG/1.1/DTD/svg11.dtd">
<!-- Created with matplotlib (https://matplotlib.org/) -->
<svg height="288pt" version="1.1" viewBox="0 0 432 288" width="432pt" xmlns="http://www.w3.org/2000/svg" xmlns:xlink="http://www.w3.org/1999/xlink">
 <defs>
  <style type="text/css">
*{stroke-linecap:butt;stroke-linejoin:round;}
  </style>
 </defs>
 <g id="figure_1">
  <g id="patch_1">
   <path d="M 0 288 
L 432 288 
L 432 0 
L 0 0 
z
" style="fill:#ffffff;"/>
  </g>
  <g id="axes_1">
   <g id="patch_2">
    <path clip-path="url(#p3fbbe45b3c)" d="M 194.767457 132.409431 
L 194.767862 143.281431 
L 193.680662 143.281472 
L 193.680257 132.409472 
z
" style="stroke:#000000;stroke-linejoin:miter;"/>
   </g>
   <g id="patch_3">
    <path clip-path="url(#p3fbbe45b3c)" d="M 249.127457 132.407404 
L 249.127862 143.279404 
L 248.040662 143.279444 
L 248.040257 132.407444 
z
" style="stroke:#000000;stroke-linejoin:miter;"/>
   </g>
   <g id="patch_4">
    <path clip-path="url(#p3fbbe45b3c)" d="M 212.343857 132.408775 
L 212.195071 131.857234 
L 211.7512 131.341781 
L 211.019532 130.896133 
L 210.012083 130.54944 
L 208.745394 130.324382 
L 207.240266 130.235683 
L 205.521413 130.289147 
L 203.617058 130.481279 
L 201.558471 130.799517 
L 199.379453 131.223048 
L 197.115782 131.724172 
L 194.804626 132.270115 
L 192.483935 132.825171 
L 190.191813 133.353038 
L 187.965895 133.819192 
L 185.84273 134.193146 
L 183.857179 134.450444 
L 182.041846 134.574258 
L 180.426536 134.556494 
L 179.037775 134.398316 
L 177.898365 134.110075 
L 177.027015 133.710624 
L 176.438036 133.226095 
L 176.141097 132.688182 
L 176.141076 132.13207 
L 176.437975 131.594134 
L 177.026918 131.109561 
L 177.898238 130.710046 
L 179.037626 130.421719 
L 180.426376 130.263438 
L 182.041684 130.245553 
L 183.857027 130.369232 
L 185.842597 130.626381 
L 187.96579 131.000177 
L 190.191742 131.466165 
L 192.483904 131.993861 
L 194.804637 132.548744 
L 197.115833 133.094515 
L 199.379541 133.59547 
L 201.558591 134.018838 
L 203.617202 134.336922 
L 205.521571 134.528913 
L 207.240428 134.582249 
L 208.74555 134.493437 
L 210.012221 134.268285 
L 211.019645 133.921517 
L 211.75128 133.475814 
L 212.195113 132.960328 
z
" style="fill:#0000ff;stroke:#000000;stroke-linejoin:miter;"/>
   </g>
   <g id="patch_5">
    <path clip-path="url(#p3fbbe45b3c)" d="M 266.703857 132.406748 
L 266.555071 131.855207 
L 266.1112 131.339754 
L 265.379532 130.894105 
L 264.372083 130.547413 
L 263.105394 130.322355 
L 261.600266 130.233656 
L 259.881413 130.287119 
L 257.977058 130.479252 
L 255.918471 130.79749 
L 253.739453 131.221021 
L 251.475782 131.722145 
L 249.164626 132.268088 
L 246.843935 132.823144 
L 244.551813 133.351011 
L 242.325895 133.817165 
L 240.20273 134.191119 
L 238.217179 134.448416 
L 236.401846 134.572231 
L 234.786536 134.554467 
L 233.397775 134.396289 
L 232.258364 134.108047 
L 231.387015 133.708597 
L 230.798035 133.224068 
L 230.501097 132.686154 
L 230.501076 132.130042 
L 230.797975 131.592107 
L 231.386918 131.107534 
L 232.258238 130.708018 
L 233.397626 130.419691 
L 234.786376 130.26141 
L 236.401684 130.243526 
L 238.217027 130.367205 
L 240.202597 130.624354 
L 242.32579 130.998149 
L 244.551742 131.464137 
L 246.843904 131.991833 
L 249.164637 132.546716 
L 251.475833 133.092487 
L 253.739541 133.593443 
L 255.918591 134.016811 
L 257.977202 134.334895 
L 259.881571 134.526886 
L 261.600428 134.580221 
L 263.10555 134.49141 
L 264.372221 134.266257 
L 265.379645 133.91949 
L 266.11128 133.473786 
L 266.555113 132.9583 
z
" style="fill:#0000ff;stroke:#000000;stroke-linejoin:miter;"/>
   </g>
   <g id="patch_6">
    <path clip-path="url(#p3fbbe45b3c)" d="M 254.020161 140.561221 
L 188.788161 140.563654 
L 188.788364 145.999654 
L 254.020364 145.997221 
z
" style="fill:#999999;stroke:#000000;stroke-linejoin:miter;"/>
   </g>
   <g id="text_1">
    <!-- t = 3.8 -->
    <defs>
     <path d="M 18.3125 70.21875 
L 18.3125 54.6875 
L 36.8125 54.6875 
L 36.8125 47.703125 
L 18.3125 47.703125 
L 18.3125 18.015625 
Q 18.3125 11.328125 20.140625 9.421875 
Q 21.96875 7.515625 27.59375 7.515625 
L 36.8125 7.515625 
L 36.8125 0 
L 27.59375 0 
Q 17.1875 0 13.234375 3.875 
Q 9.28125 7.765625 9.28125 18.015625 
L 9.28125 47.703125 
L 2.6875 47.703125 
L 2.6875 54.6875 
L 9.28125 54.6875 
L 9.28125 70.21875 
z
" id="DejaVuSans-116"/>
     <path id="DejaVuSans-32"/>
     <path d="M 10.59375 45.40625 
L 73.1875 45.40625 
L 73.1875 37.203125 
L 10.59375 37.203125 
z
M 10.59375 25.484375 
L 73.1875 25.484375 
L 73.1875 17.1875 
L 10.59375 17.1875 
z
" id="DejaVuSans-61"/>
     <path d="M 40.578125 39.3125 
Q 47.65625 37.796875 51.625 33 
Q 55.609375 28.21875 55.609375 21.1875 
Q 55.609375 10.40625 48.1875 4.484375 
Q 40.765625 -1.421875 27.09375 -1.421875 
Q 22.515625 -1.421875 17.65625 -0.515625 
Q 12.796875 0.390625 7.625 2.203125 
L 7.625 11.71875 
Q 11.71875 9.328125 16.59375 8.109375 
Q 21.484375 6.890625 26.8125 6.890625 
Q 36.078125 6.890625 40.9375 10.546875 
Q 45.796875 14.203125 45.796875 21.1875 
Q 45.796875 27.640625 41.28125 31.265625 
Q 36.765625 34.90625 28.71875 34.90625 
L 20.21875 34.90625 
L 20.21875 43.015625 
L 29.109375 43.015625 
Q 36.375 43.015625 40.234375 45.921875 
Q 44.09375 48.828125 44.09375 54.296875 
Q 44.09375 59.90625 40.109375 62.90625 
Q 36.140625 65.921875 28.71875 65.921875 
Q 24.65625 65.921875 20.015625 65.03125 
Q 15.375 64.15625 9.8125 62.3125 
L 9.8125 71.09375 
Q 15.4375 72.65625 20.34375 73.4375 
Q 25.25 74.21875 29.59375 74.21875 
Q 40.828125 74.21875 47.359375 69.109375 
Q 53.90625 64.015625 53.90625 55.328125 
Q 53.90625 49.265625 50.4375 45.09375 
Q 46.96875 40.921875 40.578125 39.3125 
z
" id="DejaVuSans-51"/>
     <path d="M 10.6875 12.40625 
L 21 12.40625 
L 21 0 
L 10.6875 0 
z
" id="DejaVuSans-46"/>
     <path d="M 31.78125 34.625 
Q 24.75 34.625 20.71875 30.859375 
Q 16.703125 27.09375 16.703125 20.515625 
Q 16.703125 13.921875 20.71875 10.15625 
Q 24.75 6.390625 31.78125 6.390625 
Q 38.8125 6.390625 42.859375 10.171875 
Q 46.921875 13.96875 46.921875 20.515625 
Q 46.921875 27.09375 42.890625 30.859375 
Q 38.875 34.625 31.78125 34.625 
z
M 21.921875 38.8125 
Q 15.578125 40.375 12.03125 44.71875 
Q 8.5 49.078125 8.5 55.328125 
Q 8.5 64.0625 14.71875 69.140625 
Q 20.953125 74.21875 31.78125 74.21875 
Q 42.671875 74.21875 48.875 69.140625 
Q 55.078125 64.0625 55.078125 55.328125 
Q 55.078125 49.078125 51.53125 44.71875 
Q 48 40.375 41.703125 38.8125 
Q 48.828125 37.15625 52.796875 32.3125 
Q 56.78125 27.484375 56.78125 20.515625 
Q 56.78125 9.90625 50.3125 4.234375 
Q 43.84375 -1.421875 31.78125 -1.421875 
Q 19.734375 -1.421875 13.25 4.234375 
Q 6.78125 9.90625 6.78125 20.515625 
Q 6.78125 27.484375 10.78125 32.3125 
Q 14.796875 37.15625 21.921875 38.8125 
z
M 18.3125 54.390625 
Q 18.3125 48.734375 21.84375 45.5625 
Q 25.390625 42.390625 31.78125 42.390625 
Q 38.140625 42.390625 41.71875 45.5625 
Q 45.3125 48.734375 45.3125 54.390625 
Q 45.3125 60.0625 41.71875 63.234375 
Q 38.140625 66.40625 31.78125 66.40625 
Q 25.390625 66.40625 21.84375 63.234375 
Q 18.3125 60.0625 18.3125 54.390625 
z
" id="DejaVuSans-56"/>
    </defs>
    <g transform="translate(200.664375 28.56)scale(0.12 -0.12)">
     <use xlink:href="#DejaVuSans-116"/>
     <use x="39.208984" xlink:href="#DejaVuSans-32"/>
     <use x="70.996094" xlink:href="#DejaVuSans-61"/>
     <use x="154.785156" xlink:href="#DejaVuSans-32"/>
     <use x="186.572266" xlink:href="#DejaVuSans-51"/>
     <use x="250.195312" xlink:href="#DejaVuSans-46"/>
     <use x="281.982422" xlink:href="#DejaVuSans-56"/>
    </g>
   </g>
  </g>
 </g>
 <defs>
  <clipPath id="p3fbbe45b3c">
   <rect height="217.44" width="334.8" x="54" y="34.56"/>
  </clipPath>
 </defs>
</svg>
