<?xml version="1.0" encoding="utf-8" standalone="no"?>
<!DOCTYPE svg PUBLIC "-//W3C//DTD SVG 1.1//EN"
  "http://www.w3.org/Graphics/SVG/1.1/DTD/svg11.dtd">
<!-- Created with matplotlib (https://matplotlib.org/) -->
<svg height="288pt" version="1.1" viewBox="0 0 432 288" width="432pt" xmlns="http://www.w3.org/2000/svg" xmlns:xlink="http://www.w3.org/1999/xlink">
 <defs>
  <style type="text/css">
*{stroke-linecap:butt;stroke-linejoin:round;}
  </style>
 </defs>
 <g id="figure_1">
  <g id="patch_1">
   <path d="M 0 288 
L 432 288 
L 432 0 
L 0 0 
z
" style="fill:#ffffff;"/>
  </g>
  <g id="axes_1">
   <g id="patch_2">
    <path clip-path="url(#p0c71c313b2)" d="M 194.791402 132.401725 
L 194.787495 143.273725 
L 193.700295 143.273334 
L 193.704202 132.401335 
z
" style="stroke:#000000;stroke-linejoin:miter;"/>
   </g>
   <g id="patch_3">
    <path clip-path="url(#p0c71c313b2)" d="M 249.151398 132.421259 
L 249.147491 143.293259 
L 248.060291 143.292868 
L 248.064198 132.420869 
z
" style="stroke:#000000;stroke-linejoin:miter;"/>
   </g>
   <g id="patch_4">
    <path clip-path="url(#p0c71c313b2)" d="M 212.3678 132.408041 
L 212.219234 131.856441 
L 211.775567 131.340812 
L 211.044076 130.894873 
L 210.036764 130.547781 
L 208.770165 130.322221 
L 207.265072 130.232925 
L 205.546198 130.285707 
L 203.641767 130.477084 
L 201.583054 130.794505 
L 199.403867 131.217172 
L 197.139998 131.717398 
L 194.828626 132.262425 
L 192.507715 132.81656 
L 190.215384 133.343518 
L 187.989281 133.808789 
L 185.865968 134.181901 
L 183.880315 134.43841 
L 182.064933 134.561505 
L 180.44963 134.5431 
L 179.060932 134.384372 
L 177.921636 134.095678 
L 177.050445 133.695882 
L 176.461658 133.211119 
L 176.164932 132.673088 
L 176.165132 132.116976 
L 176.462244 131.579158 
L 177.05138 131.094819 
L 177.922858 130.695649 
L 179.062361 130.407774 
L 180.451173 130.250044 
L 182.066488 130.2328 
L 183.881782 130.357199 
L 185.867249 130.615136 
L 187.990294 130.989774 
L 190.216062 131.456644 
L 192.508014 131.98525 
L 194.828526 132.541053 
L 197.139505 133.087741 
L 199.403015 133.589594 
L 201.581897 134.013826 
L 203.640382 134.332727 
L 205.544674 134.525473 
L 207.26351 134.57949 
L 208.768666 134.491276 
L 210.035427 134.266626 
L 211.042989 133.920258 
L 211.7748 133.474845 
L 212.218837 132.959534 
z
" style="fill:#0000ff;stroke:#000000;stroke-linejoin:miter;"/>
   </g>
   <g id="patch_5">
    <path clip-path="url(#p0c71c313b2)" d="M 266.727797 132.427575 
L 266.57923 131.875975 
L 266.135563 131.360346 
L 265.404072 130.914407 
L 264.39676 130.567315 
L 263.130161 130.341755 
L 261.625068 130.252459 
L 259.906194 130.305241 
L 258.001764 130.496618 
L 255.94305 130.814039 
L 253.763864 131.236706 
L 251.499994 131.736932 
L 249.188623 132.281958 
L 246.867712 132.836094 
L 244.57538 133.363052 
L 242.349277 133.828323 
L 240.225964 134.201435 
L 238.240312 134.457944 
L 236.424929 134.581039 
L 234.809627 134.562634 
L 233.420928 134.403906 
L 232.281632 134.115212 
L 231.410442 133.715416 
L 230.821654 133.230653 
L 230.524929 132.692622 
L 230.525129 132.13651 
L 230.822241 131.598692 
L 231.411376 131.114353 
L 232.282854 130.715183 
L 233.422357 130.427308 
L 234.81117 130.269578 
L 236.426485 130.252334 
L 238.241778 130.376733 
L 240.227246 130.63467 
L 242.35029 131.009307 
L 244.576058 131.476178 
L 246.86801 132.004783 
L 249.188523 132.560587 
L 251.499502 133.107274 
L 253.763011 133.609128 
L 255.941893 134.03336 
L 258.000378 134.352261 
L 259.904671 134.545007 
L 261.623507 134.599024 
L 263.128663 134.510809 
L 264.395424 134.28616 
L 265.402985 133.939791 
L 266.134797 133.494378 
L 266.578834 132.979068 
z
" style="fill:#0000ff;stroke:#000000;stroke-linejoin:miter;"/>
   </g>
   <g id="patch_6">
    <path clip-path="url(#p0c71c313b2)" d="M 254.040868 140.577017 
L 188.808872 140.553576 
L 188.806919 145.989576 
L 254.038914 146.013016 
z
" style="fill:#999999;stroke:#000000;stroke-linejoin:miter;"/>
   </g>
   <g id="text_1">
    <!-- t = 2.9 -->
    <defs>
     <path d="M 18.3125 70.21875 
L 18.3125 54.6875 
L 36.8125 54.6875 
L 36.8125 47.703125 
L 18.3125 47.703125 
L 18.3125 18.015625 
Q 18.3125 11.328125 20.140625 9.421875 
Q 21.96875 7.515625 27.59375 7.515625 
L 36.8125 7.515625 
L 36.8125 0 
L 27.59375 0 
Q 17.1875 0 13.234375 3.875 
Q 9.28125 7.765625 9.28125 18.015625 
L 9.28125 47.703125 
L 2.6875 47.703125 
L 2.6875 54.6875 
L 9.28125 54.6875 
L 9.28125 70.21875 
z
" id="DejaVuSans-116"/>
     <path id="DejaVuSans-32"/>
     <path d="M 10.59375 45.40625 
L 73.1875 45.40625 
L 73.1875 37.203125 
L 10.59375 37.203125 
z
M 10.59375 25.484375 
L 73.1875 25.484375 
L 73.1875 17.1875 
L 10.59375 17.1875 
z
" id="DejaVuSans-61"/>
     <path d="M 19.1875 8.296875 
L 53.609375 8.296875 
L 53.609375 0 
L 7.328125 0 
L 7.328125 8.296875 
Q 12.9375 14.109375 22.625 23.890625 
Q 32.328125 33.6875 34.8125 36.53125 
Q 39.546875 41.84375 41.421875 45.53125 
Q 43.3125 49.21875 43.3125 52.78125 
Q 43.3125 58.59375 39.234375 62.25 
Q 35.15625 65.921875 28.609375 65.921875 
Q 23.96875 65.921875 18.8125 64.3125 
Q 13.671875 62.703125 7.8125 59.421875 
L 7.8125 69.390625 
Q 13.765625 71.78125 18.9375 73 
Q 24.125 74.21875 28.421875 74.21875 
Q 39.75 74.21875 46.484375 68.546875 
Q 53.21875 62.890625 53.21875 53.421875 
Q 53.21875 48.921875 51.53125 44.890625 
Q 49.859375 40.875 45.40625 35.40625 
Q 44.1875 33.984375 37.640625 27.21875 
Q 31.109375 20.453125 19.1875 8.296875 
z
" id="DejaVuSans-50"/>
     <path d="M 10.6875 12.40625 
L 21 12.40625 
L 21 0 
L 10.6875 0 
z
" id="DejaVuSans-46"/>
     <path d="M 10.984375 1.515625 
L 10.984375 10.5 
Q 14.703125 8.734375 18.5 7.8125 
Q 22.3125 6.890625 25.984375 6.890625 
Q 35.75 6.890625 40.890625 13.453125 
Q 46.046875 20.015625 46.78125 33.40625 
Q 43.953125 29.203125 39.59375 26.953125 
Q 35.25 24.703125 29.984375 24.703125 
Q 19.046875 24.703125 12.671875 31.3125 
Q 6.296875 37.9375 6.296875 49.421875 
Q 6.296875 60.640625 12.9375 67.421875 
Q 19.578125 74.21875 30.609375 74.21875 
Q 43.265625 74.21875 49.921875 64.515625 
Q 56.59375 54.828125 56.59375 36.375 
Q 56.59375 19.140625 48.40625 8.859375 
Q 40.234375 -1.421875 26.421875 -1.421875 
Q 22.703125 -1.421875 18.890625 -0.6875 
Q 15.09375 0.046875 10.984375 1.515625 
z
M 30.609375 32.421875 
Q 37.25 32.421875 41.125 36.953125 
Q 45.015625 41.5 45.015625 49.421875 
Q 45.015625 57.28125 41.125 61.84375 
Q 37.25 66.40625 30.609375 66.40625 
Q 23.96875 66.40625 20.09375 61.84375 
Q 16.21875 57.28125 16.21875 49.421875 
Q 16.21875 41.5 20.09375 36.953125 
Q 23.96875 32.421875 30.609375 32.421875 
z
" id="DejaVuSans-57"/>
    </defs>
    <g transform="translate(200.664375 28.56)scale(0.12 -0.12)">
     <use xlink:href="#DejaVuSans-116"/>
     <use x="39.208984" xlink:href="#DejaVuSans-32"/>
     <use x="70.996094" xlink:href="#DejaVuSans-61"/>
     <use x="154.785156" xlink:href="#DejaVuSans-32"/>
     <use x="186.572266" xlink:href="#DejaVuSans-50"/>
     <use x="250.195312" xlink:href="#DejaVuSans-46"/>
     <use x="281.982422" xlink:href="#DejaVuSans-57"/>
    </g>
   </g>
  </g>
 </g>
 <defs>
  <clipPath id="p0c71c313b2">
   <rect height="217.44" width="334.8" x="54" y="34.56"/>
  </clipPath>
 </defs>
</svg>
