<?xml version="1.0" encoding="utf-8" standalone="no"?>
<!DOCTYPE svg PUBLIC "-//W3C//DTD SVG 1.1//EN"
  "http://www.w3.org/Graphics/SVG/1.1/DTD/svg11.dtd">
<!-- Created with matplotlib (https://matplotlib.org/) -->
<svg height="288pt" version="1.1" viewBox="0 0 432 288" width="432pt" xmlns="http://www.w3.org/2000/svg" xmlns:xlink="http://www.w3.org/1999/xlink">
 <defs>
  <style type="text/css">
*{stroke-linecap:butt;stroke-linejoin:round;}
  </style>
 </defs>
 <g id="figure_1">
  <g id="patch_1">
   <path d="M 0 288 
L 432 288 
L 432 0 
L 0 0 
z
" style="fill:#ffffff;"/>
  </g>
  <g id="axes_1">
   <g id="patch_2">
    <path clip-path="url(#p1d0df7c8d2)" d="M 194.801543 132.39423 
L 194.790988 143.266225 
L 193.703789 143.265169 
L 193.714343 132.393174 
z
" style="stroke:#000000;stroke-linejoin:miter;"/>
   </g>
   <g id="patch_3">
    <path clip-path="url(#p1d0df7c8d2)" d="M 249.161517 132.447002 
L 249.150963 143.318997 
L 248.063763 143.317942 
L 248.074318 132.445947 
z
" style="stroke:#000000;stroke-linejoin:miter;"/>
   </g>
   <g id="patch_4">
    <path clip-path="url(#p1d0df7c8d2)" d="M 212.377935 132.411293 
L 212.229705 131.859602 
L 211.786354 131.343702 
L 211.055135 130.897316 
L 210.048036 130.549608 
L 208.781575 130.323273 
L 207.276537 130.233056 
L 205.557631 130.284787 
L 203.653083 130.475 
L 201.594176 130.791163 
L 199.414732 131.212496 
L 197.150557 131.711338 
L 194.838853 132.254952 
L 192.517603 132.807668 
L 190.22495 133.333224 
L 187.998563 133.797134 
L 185.875022 134.168947 
L 183.889213 134.424243 
L 182.073756 134.546227 
L 180.458465 134.526835 
L 179.069864 134.367257 
L 177.930744 134.077867 
L 177.059798 133.677538 
L 176.471307 133.192416 
L 176.174911 132.654203 
L 176.175451 132.098091 
L 176.472892 131.560455 
L 177.062324 131.076476 
L 177.934045 130.67784 
L 179.073724 130.390661 
L 180.462633 130.23378 
L 182.077958 130.217524 
L 183.893175 130.343033 
L 185.878484 130.602184 
L 188.0013 130.97812 
L 190.226782 131.446351 
L 192.51841 131.976358 
L 194.838582 132.53358 
L 197.149227 133.08168 
L 199.412429 133.584918 
L 201.591051 134.010482 
L 203.64934 134.330641 
L 205.553515 134.524552 
L 207.272317 134.57962 
L 208.777527 134.492326 
L 210.044425 134.268451 
L 211.052198 133.922699 
L 211.784282 133.477733 
L 212.228634 132.962695 
z
" style="fill:#0000ff;stroke:#000000;stroke-linejoin:miter;"/>
   </g>
   <g id="patch_5">
    <path clip-path="url(#p1d0df7c8d2)" d="M 266.737909 132.464065 
L 266.589679 131.912375 
L 266.146328 131.396474 
L 265.41511 130.950088 
L 264.40801 130.60238 
L 263.141549 130.376046 
L 261.636511 130.285829 
L 259.917605 130.33756 
L 258.013058 130.527773 
L 255.954151 130.843935 
L 253.774706 131.265269 
L 251.510531 131.764111 
L 249.198827 132.307724 
L 246.877578 132.86044 
L 244.584924 133.385996 
L 242.358537 133.849906 
L 240.234996 134.22172 
L 238.249187 134.477015 
L 236.43373 134.598999 
L 234.818439 134.579607 
L 233.429838 134.42003 
L 232.290719 134.130639 
L 231.419773 133.730311 
L 230.831282 133.245188 
L 230.534886 132.706976 
L 230.535425 132.150864 
L 230.832866 131.613228 
L 231.422298 131.129249 
L 232.29402 130.730612 
L 233.433698 130.443434 
L 234.822607 130.286553 
L 236.437932 130.270297 
L 238.253149 130.395806 
L 240.238459 130.654956 
L 242.361274 131.030892 
L 244.586756 131.499124 
L 246.878385 132.02913 
L 249.198557 132.586352 
L 251.509201 133.134453 
L 253.772403 133.63769 
L 255.951026 134.063255 
L 258.009315 134.383414 
L 259.913489 134.577324 
L 261.632292 134.632393 
L 263.137502 134.545098 
L 264.4044 134.321223 
L 265.412173 133.975471 
L 266.144256 133.530506 
L 266.588609 133.015467 
z
" style="fill:#0000ff;stroke:#000000;stroke-linejoin:miter;"/>
   </g>
   <g id="patch_6">
    <path clip-path="url(#p1d0df7c8d2)" d="M 254.045999 140.605748 
L 188.81403 140.542421 
L 188.808752 145.978418 
L 254.040722 146.041745 
z
" style="fill:#999999;stroke:#000000;stroke-linejoin:miter;"/>
   </g>
   <g id="text_1">
    <!-- t = 2.8 -->
    <defs>
     <path d="M 18.3125 70.21875 
L 18.3125 54.6875 
L 36.8125 54.6875 
L 36.8125 47.703125 
L 18.3125 47.703125 
L 18.3125 18.015625 
Q 18.3125 11.328125 20.140625 9.421875 
Q 21.96875 7.515625 27.59375 7.515625 
L 36.8125 7.515625 
L 36.8125 0 
L 27.59375 0 
Q 17.1875 0 13.234375 3.875 
Q 9.28125 7.765625 9.28125 18.015625 
L 9.28125 47.703125 
L 2.6875 47.703125 
L 2.6875 54.6875 
L 9.28125 54.6875 
L 9.28125 70.21875 
z
" id="DejaVuSans-116"/>
     <path id="DejaVuSans-32"/>
     <path d="M 10.59375 45.40625 
L 73.1875 45.40625 
L 73.1875 37.203125 
L 10.59375 37.203125 
z
M 10.59375 25.484375 
L 73.1875 25.484375 
L 73.1875 17.1875 
L 10.59375 17.1875 
z
" id="DejaVuSans-61"/>
     <path d="M 19.1875 8.296875 
L 53.609375 8.296875 
L 53.609375 0 
L 7.328125 0 
L 7.328125 8.296875 
Q 12.9375 14.109375 22.625 23.890625 
Q 32.328125 33.6875 34.8125 36.53125 
Q 39.546875 41.84375 41.421875 45.53125 
Q 43.3125 49.21875 43.3125 52.78125 
Q 43.3125 58.59375 39.234375 62.25 
Q 35.15625 65.921875 28.609375 65.921875 
Q 23.96875 65.921875 18.8125 64.3125 
Q 13.671875 62.703125 7.8125 59.421875 
L 7.8125 69.390625 
Q 13.765625 71.78125 18.9375 73 
Q 24.125 74.21875 28.421875 74.21875 
Q 39.75 74.21875 46.484375 68.546875 
Q 53.21875 62.890625 53.21875 53.421875 
Q 53.21875 48.921875 51.53125 44.890625 
Q 49.859375 40.875 45.40625 35.40625 
Q 44.1875 33.984375 37.640625 27.21875 
Q 31.109375 20.453125 19.1875 8.296875 
z
" id="DejaVuSans-50"/>
     <path d="M 10.6875 12.40625 
L 21 12.40625 
L 21 0 
L 10.6875 0 
z
" id="DejaVuSans-46"/>
     <path d="M 31.78125 34.625 
Q 24.75 34.625 20.71875 30.859375 
Q 16.703125 27.09375 16.703125 20.515625 
Q 16.703125 13.921875 20.71875 10.15625 
Q 24.75 6.390625 31.78125 6.390625 
Q 38.8125 6.390625 42.859375 10.171875 
Q 46.921875 13.96875 46.921875 20.515625 
Q 46.921875 27.09375 42.890625 30.859375 
Q 38.875 34.625 31.78125 34.625 
z
M 21.921875 38.8125 
Q 15.578125 40.375 12.03125 44.71875 
Q 8.5 49.078125 8.5 55.328125 
Q 8.5 64.0625 14.71875 69.140625 
Q 20.953125 74.21875 31.78125 74.21875 
Q 42.671875 74.21875 48.875 69.140625 
Q 55.078125 64.0625 55.078125 55.328125 
Q 55.078125 49.078125 51.53125 44.71875 
Q 48 40.375 41.703125 38.8125 
Q 48.828125 37.15625 52.796875 32.3125 
Q 56.78125 27.484375 56.78125 20.515625 
Q 56.78125 9.90625 50.3125 4.234375 
Q 43.84375 -1.421875 31.78125 -1.421875 
Q 19.734375 -1.421875 13.25 4.234375 
Q 6.78125 9.90625 6.78125 20.515625 
Q 6.78125 27.484375 10.78125 32.3125 
Q 14.796875 37.15625 21.921875 38.8125 
z
M 18.3125 54.390625 
Q 18.3125 48.734375 21.84375 45.5625 
Q 25.390625 42.390625 31.78125 42.390625 
Q 38.140625 42.390625 41.71875 45.5625 
Q 45.3125 48.734375 45.3125 54.390625 
Q 45.3125 60.0625 41.71875 63.234375 
Q 38.140625 66.40625 31.78125 66.40625 
Q 25.390625 66.40625 21.84375 63.234375 
Q 18.3125 60.0625 18.3125 54.390625 
z
" id="DejaVuSans-56"/>
    </defs>
    <g transform="translate(200.664375 28.56)scale(0.12 -0.12)">
     <use xlink:href="#DejaVuSans-116"/>
     <use x="39.208984" xlink:href="#DejaVuSans-32"/>
     <use x="70.996094" xlink:href="#DejaVuSans-61"/>
     <use x="154.785156" xlink:href="#DejaVuSans-32"/>
     <use x="186.572266" xlink:href="#DejaVuSans-50"/>
     <use x="250.195312" xlink:href="#DejaVuSans-46"/>
     <use x="281.982422" xlink:href="#DejaVuSans-56"/>
    </g>
   </g>
  </g>
 </g>
 <defs>
  <clipPath id="p1d0df7c8d2">
   <rect height="217.44" width="334.8" x="54" y="34.56"/>
  </clipPath>
 </defs>
</svg>
