<?xml version="1.0" encoding="utf-8" standalone="no"?>
<!DOCTYPE svg PUBLIC "-//W3C//DTD SVG 1.1//EN"
  "http://www.w3.org/Graphics/SVG/1.1/DTD/svg11.dtd">
<!-- Created with matplotlib (https://matplotlib.org/) -->
<svg height="288pt" version="1.1" viewBox="0 0 432 288" width="432pt" xmlns="http://www.w3.org/2000/svg" xmlns:xlink="http://www.w3.org/1999/xlink">
 <defs>
  <style type="text/css">
*{stroke-linecap:butt;stroke-linejoin:round;}
  </style>
 </defs>
 <g id="figure_1">
  <g id="patch_1">
   <path d="M 0 288 
L 432 288 
L 432 0 
L 0 0 
z
" style="fill:#ffffff;"/>
  </g>
  <g id="axes_1">
   <g id="patch_2">
    <path clip-path="url(#pf854a8879f)" d="M 187.814268 142.306143 
L 189.483851 153.049181 
L 188.409548 153.21614 
L 186.739964 142.473101 
z
" style="stroke:#000000;stroke-linejoin:miter;"/>
   </g>
   <g id="patch_3">
    <path clip-path="url(#pf854a8879f)" d="M 241.52946 133.958225 
L 243.199044 144.701263 
L 242.12474 144.868222 
L 240.455156 134.125183 
z
" style="stroke:#000000;stroke-linejoin:miter;"/>
   </g>
   <g id="patch_4">
    <path clip-path="url(#pf854a8879f)" d="M 205.18218 139.606983 
L 204.95048 139.084824 
L 204.432734 138.64363 
L 203.64132 138.315598 
L 202.592587 138.12769 
L 201.306363 138.099776 
L 199.805462 138.243211 
L 198.115196 138.559937 
L 196.262918 139.042168 
L 194.277596 139.672689 
L 192.189437 140.425744 
L 190.029542 141.268469 
L 187.829607 142.162772 
L 185.621649 143.067544 
L 183.437745 143.941063 
L 181.309787 144.743437 
L 179.269207 145.438928 
L 177.346701 145.998017 
L 175.571899 146.399072 
L 173.973014 146.629518 
L 172.576432 146.686433 
L 171.406277 146.576542 
L 170.483931 146.315607 
L 169.827544 145.927249 
L 169.45154 145.441302 
L 169.366139 144.891786 
L 169.576928 144.314645 
L 170.084493 143.745397 
L 170.884144 143.216844 
L 171.965757 142.757005 
L 173.313741 142.387385 
L 174.907152 142.121714 
L 176.71996 141.965216 
L 178.721469 141.914471 
L 180.876878 141.95786 
L 183.147983 142.076572 
L 185.493986 142.246095 
L 187.872396 142.438096 
L 190.239982 142.622557 
L 192.553764 142.770025 
L 194.771979 142.853823 
L 196.855018 142.852077 
L 198.766286 142.749412 
L 200.472952 142.538219 
L 201.946593 142.219378 
L 203.16368 141.802423 
L 204.10592 141.305096 
L 204.760451 140.752349 
L 205.119879 140.174832 
z
" style="fill:#0000ff;stroke:#000000;stroke-linejoin:miter;"/>
   </g>
   <g id="patch_5">
    <path clip-path="url(#pf854a8879f)" d="M 258.897372 131.259065 
L 258.665672 130.736906 
L 258.147926 130.295712 
L 257.356512 129.96768 
L 256.307779 129.779772 
L 255.021555 129.751858 
L 253.520654 129.895293 
L 251.830388 130.212019 
L 249.97811 130.69425 
L 247.992789 131.324771 
L 245.90463 132.077826 
L 243.744735 132.920551 
L 241.5448 133.814854 
L 239.336841 134.719626 
L 237.152938 135.593146 
L 235.024979 136.395519 
L 232.9844 137.09101 
L 231.061893 137.650099 
L 229.287091 138.051154 
L 227.688206 138.2816 
L 226.291625 138.338515 
L 225.121469 138.228625 
L 224.199123 137.967689 
L 223.542736 137.579331 
L 223.166732 137.093384 
L 223.081332 136.543868 
L 223.292121 135.966728 
L 223.799685 135.397479 
L 224.599336 134.868926 
L 225.680949 134.409087 
L 227.028933 134.039467 
L 228.622344 133.773796 
L 230.435152 133.617298 
L 232.436661 133.566553 
L 234.59207 133.609942 
L 236.863175 133.728654 
L 239.209179 133.898177 
L 241.587588 134.090178 
L 243.955174 134.274639 
L 246.268956 134.422107 
L 248.487171 134.505905 
L 250.570211 134.504159 
L 252.481478 134.401494 
L 254.188144 134.190301 
L 255.661786 133.87146 
L 256.878872 133.454505 
L 257.821112 132.957178 
L 258.475643 132.404431 
L 258.835071 131.826914 
z
" style="fill:#0000ff;stroke:#000000;stroke-linejoin:miter;"/>
   </g>
   <g id="patch_6">
    <path clip-path="url(#pf854a8879f)" d="M 247.616015 141.264191 
L 183.157784 151.281693 
L 183.992576 156.653212 
L 248.450807 146.63571 
z
" style="fill:#999999;stroke:#000000;stroke-linejoin:miter;"/>
   </g>
   <g id="text_1">
    <!-- t = 1.2 -->
    <defs>
     <path d="M 18.3125 70.21875 
L 18.3125 54.6875 
L 36.8125 54.6875 
L 36.8125 47.703125 
L 18.3125 47.703125 
L 18.3125 18.015625 
Q 18.3125 11.328125 20.140625 9.421875 
Q 21.96875 7.515625 27.59375 7.515625 
L 36.8125 7.515625 
L 36.8125 0 
L 27.59375 0 
Q 17.1875 0 13.234375 3.875 
Q 9.28125 7.765625 9.28125 18.015625 
L 9.28125 47.703125 
L 2.6875 47.703125 
L 2.6875 54.6875 
L 9.28125 54.6875 
L 9.28125 70.21875 
z
" id="DejaVuSans-116"/>
     <path id="DejaVuSans-32"/>
     <path d="M 10.59375 45.40625 
L 73.1875 45.40625 
L 73.1875 37.203125 
L 10.59375 37.203125 
z
M 10.59375 25.484375 
L 73.1875 25.484375 
L 73.1875 17.1875 
L 10.59375 17.1875 
z
" id="DejaVuSans-61"/>
     <path d="M 12.40625 8.296875 
L 28.515625 8.296875 
L 28.515625 63.921875 
L 10.984375 60.40625 
L 10.984375 69.390625 
L 28.421875 72.90625 
L 38.28125 72.90625 
L 38.28125 8.296875 
L 54.390625 8.296875 
L 54.390625 0 
L 12.40625 0 
z
" id="DejaVuSans-49"/>
     <path d="M 10.6875 12.40625 
L 21 12.40625 
L 21 0 
L 10.6875 0 
z
" id="DejaVuSans-46"/>
     <path d="M 19.1875 8.296875 
L 53.609375 8.296875 
L 53.609375 0 
L 7.328125 0 
L 7.328125 8.296875 
Q 12.9375 14.109375 22.625 23.890625 
Q 32.328125 33.6875 34.8125 36.53125 
Q 39.546875 41.84375 41.421875 45.53125 
Q 43.3125 49.21875 43.3125 52.78125 
Q 43.3125 58.59375 39.234375 62.25 
Q 35.15625 65.921875 28.609375 65.921875 
Q 23.96875 65.921875 18.8125 64.3125 
Q 13.671875 62.703125 7.8125 59.421875 
L 7.8125 69.390625 
Q 13.765625 71.78125 18.9375 73 
Q 24.125 74.21875 28.421875 74.21875 
Q 39.75 74.21875 46.484375 68.546875 
Q 53.21875 62.890625 53.21875 53.421875 
Q 53.21875 48.921875 51.53125 44.890625 
Q 49.859375 40.875 45.40625 35.40625 
Q 44.1875 33.984375 37.640625 27.21875 
Q 31.109375 20.453125 19.1875 8.296875 
z
" id="DejaVuSans-50"/>
    </defs>
    <g transform="translate(200.664375 28.56)scale(0.12 -0.12)">
     <use xlink:href="#DejaVuSans-116"/>
     <use x="39.208984" xlink:href="#DejaVuSans-32"/>
     <use x="70.996094" xlink:href="#DejaVuSans-61"/>
     <use x="154.785156" xlink:href="#DejaVuSans-32"/>
     <use x="186.572266" xlink:href="#DejaVuSans-49"/>
     <use x="250.195312" xlink:href="#DejaVuSans-46"/>
     <use x="281.982422" xlink:href="#DejaVuSans-50"/>
    </g>
   </g>
  </g>
 </g>
 <defs>
  <clipPath id="pf854a8879f">
   <rect height="217.44" width="334.8" x="54" y="34.56"/>
  </clipPath>
 </defs>
</svg>
