<?xml version="1.0" encoding="utf-8" standalone="no"?>
<!DOCTYPE svg PUBLIC "-//W3C//DTD SVG 1.1//EN"
  "http://www.w3.org/Graphics/SVG/1.1/DTD/svg11.dtd">
<!-- Created with matplotlib (https://matplotlib.org/) -->
<svg height="288pt" version="1.1" viewBox="0 0 432 288" width="432pt" xmlns="http://www.w3.org/2000/svg" xmlns:xlink="http://www.w3.org/1999/xlink">
 <defs>
  <style type="text/css">
*{stroke-linecap:butt;stroke-linejoin:round;}
  </style>
 </defs>
 <g id="figure_1">
  <g id="patch_1">
   <path d="M 0 288 
L 432 288 
L 432 0 
L 0 0 
z
" style="fill:#ffffff;"/>
  </g>
  <g id="axes_1">
   <g id="patch_2">
    <path clip-path="url(#p12641ab9d7)" d="M 388.713188 41.533108 
L 395.29195 50.188758 
L 394.426385 50.846634 
L 387.847623 42.190984 
z
" style="stroke:#000000;stroke-linejoin:miter;"/>
   </g>
   <g id="patch_3">
    <path clip-path="url(#p12641ab9d7)" d="M 431.991439 8.6393 
L 438.570201 17.29495 
L 437.704636 17.952827 
L 431.125874 9.297176 
z
" style="stroke:#000000;stroke-linejoin:miter;"/>
   </g>
   <g id="patch_4">
    <path clip-path="url(#p12641ab9d7)" d="M 402.706489 30.897443 
L 402.254305 30.548354 
L 401.58902 30.406546 
L 400.736838 30.494455 
L 399.724966 30.828019 
L 398.580296 31.415285 
L 397.328297 32.25539 
L 395.992158 33.338001 
L 394.592235 34.643259 
L 393.145822 36.14224 
L 391.667236 37.797922 
L 390.168203 39.566603 
L 388.658484 41.399699 
L 387.146687 43.245821 
L 385.641184 45.053009 
L 384.151048 46.771004 
L 382.686933 48.353419 
L 381.261795 49.759689 
L 379.891409 50.956689 
L 378.594609 51.919938 
L 377.393217 52.634316 
L 376.31165 53.094263 
L 375.376213 53.303472 
L 374.61411 53.274088 
L 374.052217 53.025492 
L 373.715707 52.582748 
L 373.626593 51.974816 
L 373.802283 51.232658 
L 374.254257 50.387359 
L 374.986936 49.468382 
L 375.996836 48.502058 
L 377.272064 47.510427 
L 378.792211 46.510467 
L 380.528646 45.51377 
L 382.445232 44.526669 
L 384.499417 43.55079 
L 386.643652 42.58398 
L 388.827085 41.621527 
L 390.997411 40.65759 
L 393.102813 39.686706 
L 395.093867 38.705275 
L 396.925325 37.712896 
L 398.557685 36.713455 
L 399.95845 35.715871 
L 401.103035 34.734443 
L 401.975278 33.788746 
L 402.56753 32.903089 
L 402.880345 32.105538 
L 402.921798 31.426572 
z
" style="fill:#0000ff;stroke:#000000;stroke-linejoin:miter;"/>
   </g>
   <g id="patch_5">
    <path clip-path="url(#p12641ab9d7)" d="M 445.984741 -1.996364 
L 445.532556 -2.345454 
L 444.867271 -2.487261 
L 444.01509 -2.399352 
L 443.003217 -2.065788 
L 441.858547 -1.478522 
L 440.606548 -0.638417 
L 439.270409 0.444193 
L 437.870486 1.749451 
L 436.424073 3.248432 
L 434.945487 4.904115 
L 433.446454 6.672796 
L 431.936735 8.505892 
L 430.424938 10.352013 
L 428.919435 12.159201 
L 427.4293 13.877197 
L 425.965184 15.459612 
L 424.540046 16.865881 
L 423.16966 18.062881 
L 421.87286 19.026131 
L 420.671468 19.740508 
L 419.589901 20.200456 
L 418.654464 20.409664 
L 417.892361 20.38028 
L 417.330468 20.131685 
L 416.993958 19.688941 
L 416.904844 19.081008 
L 417.080534 18.33885 
L 417.532508 17.493552 
L 418.265187 16.574574 
L 419.275087 15.608251 
L 420.550316 14.61662 
L 422.070462 13.616659 
L 423.806897 12.619962 
L 425.723484 11.632861 
L 427.777668 10.656983 
L 429.921903 9.690172 
L 432.105336 8.727719 
L 434.275663 7.763782 
L 436.381064 6.792898 
L 438.372118 5.811467 
L 440.203576 4.819089 
L 441.835937 3.819647 
L 443.236701 2.822064 
L 444.381286 1.840635 
L 445.253529 0.894938 
L 445.845781 0.009281 
L 446.158596 -0.78827 
L 446.200049 -1.467236 
z
" style="fill:#0000ff;stroke:#000000;stroke-linejoin:miter;"/>
   </g>
   <g id="patch_6">
    <path clip-path="url(#p12641ab9d7)" d="M 440.820553 12.170595 
L 388.886652 51.643164 
L 392.176032 55.970989 
L 444.109934 16.49842 
z
" style="fill:#999999;stroke:#000000;stroke-linejoin:miter;"/>
   </g>
   <g id="text_1">
    <!-- t = 0.1 -->
    <defs>
     <path d="M 18.3125 70.21875 
L 18.3125 54.6875 
L 36.8125 54.6875 
L 36.8125 47.703125 
L 18.3125 47.703125 
L 18.3125 18.015625 
Q 18.3125 11.328125 20.140625 9.421875 
Q 21.96875 7.515625 27.59375 7.515625 
L 36.8125 7.515625 
L 36.8125 0 
L 27.59375 0 
Q 17.1875 0 13.234375 3.875 
Q 9.28125 7.765625 9.28125 18.015625 
L 9.28125 47.703125 
L 2.6875 47.703125 
L 2.6875 54.6875 
L 9.28125 54.6875 
L 9.28125 70.21875 
z
" id="DejaVuSans-116"/>
     <path id="DejaVuSans-32"/>
     <path d="M 10.59375 45.40625 
L 73.1875 45.40625 
L 73.1875 37.203125 
L 10.59375 37.203125 
z
M 10.59375 25.484375 
L 73.1875 25.484375 
L 73.1875 17.1875 
L 10.59375 17.1875 
z
" id="DejaVuSans-61"/>
     <path d="M 31.78125 66.40625 
Q 24.171875 66.40625 20.328125 58.90625 
Q 16.5 51.421875 16.5 36.375 
Q 16.5 21.390625 20.328125 13.890625 
Q 24.171875 6.390625 31.78125 6.390625 
Q 39.453125 6.390625 43.28125 13.890625 
Q 47.125 21.390625 47.125 36.375 
Q 47.125 51.421875 43.28125 58.90625 
Q 39.453125 66.40625 31.78125 66.40625 
z
M 31.78125 74.21875 
Q 44.046875 74.21875 50.515625 64.515625 
Q 56.984375 54.828125 56.984375 36.375 
Q 56.984375 17.96875 50.515625 8.265625 
Q 44.046875 -1.421875 31.78125 -1.421875 
Q 19.53125 -1.421875 13.0625 8.265625 
Q 6.59375 17.96875 6.59375 36.375 
Q 6.59375 54.828125 13.0625 64.515625 
Q 19.53125 74.21875 31.78125 74.21875 
z
" id="DejaVuSans-48"/>
     <path d="M 10.6875 12.40625 
L 21 12.40625 
L 21 0 
L 10.6875 0 
z
" id="DejaVuSans-46"/>
     <path d="M 12.40625 8.296875 
L 28.515625 8.296875 
L 28.515625 63.921875 
L 10.984375 60.40625 
L 10.984375 69.390625 
L 28.421875 72.90625 
L 38.28125 72.90625 
L 38.28125 8.296875 
L 54.390625 8.296875 
L 54.390625 0 
L 12.40625 0 
z
" id="DejaVuSans-49"/>
    </defs>
    <g transform="translate(200.664375 28.56)scale(0.12 -0.12)">
     <use xlink:href="#DejaVuSans-116"/>
     <use x="39.208984" xlink:href="#DejaVuSans-32"/>
     <use x="70.996094" xlink:href="#DejaVuSans-61"/>
     <use x="154.785156" xlink:href="#DejaVuSans-32"/>
     <use x="186.572266" xlink:href="#DejaVuSans-48"/>
     <use x="250.195312" xlink:href="#DejaVuSans-46"/>
     <use x="281.982422" xlink:href="#DejaVuSans-49"/>
    </g>
   </g>
  </g>
 </g>
 <defs>
  <clipPath id="p12641ab9d7">
   <rect height="217.44" width="334.8" x="54" y="34.56"/>
  </clipPath>
 </defs>
</svg>
