<?xml version="1.0" encoding="utf-8" standalone="no"?>
<!DOCTYPE svg PUBLIC "-//W3C//DTD SVG 1.1//EN"
  "http://www.w3.org/Graphics/SVG/1.1/DTD/svg11.dtd">
<!-- Created with matplotlib (https://matplotlib.org/) -->
<svg height="288pt" version="1.1" viewBox="0 0 432 288" width="432pt" xmlns="http://www.w3.org/2000/svg" xmlns:xlink="http://www.w3.org/1999/xlink">
 <defs>
  <style type="text/css">
*{stroke-linecap:butt;stroke-linejoin:round;}
  </style>
 </defs>
 <g id="figure_1">
  <g id="patch_1">
   <path d="M 0 288 
L 432 288 
L 432 0 
L 0 0 
z
" style="fill:#ffffff;"/>
  </g>
  <g id="axes_1">
   <g id="patch_2">
    <path clip-path="url(#p374350b762)" d="M 194.763676 132.408591 
L 194.763947 143.280591 
L 193.676747 143.280618 
L 193.676476 132.408618 
z
" style="stroke:#000000;stroke-linejoin:miter;"/>
   </g>
   <g id="patch_3">
    <path clip-path="url(#p374350b762)" d="M 249.123676 132.407238 
L 249.123947 143.279238 
L 248.036747 143.279265 
L 248.036476 132.407265 
z
" style="stroke:#000000;stroke-linejoin:miter;"/>
   </g>
   <g id="patch_4">
    <path clip-path="url(#p374350b762)" d="M 212.340076 132.408153 
L 212.191298 131.856611 
L 211.747433 131.341152 
L 211.01577 130.895494 
L 210.008325 130.548789 
L 208.741639 130.323716 
L 207.236512 130.234998 
L 205.517659 130.28844 
L 203.613302 130.480549 
L 201.55471 130.798761 
L 199.375687 131.222265 
L 197.112009 131.723361 
L 194.800847 132.269276 
L 192.480149 132.824303 
L 190.18802 133.352142 
L 187.962097 133.818268 
L 185.838927 134.192196 
L 183.853373 134.449468 
L 182.038038 134.57326 
L 180.422729 134.555476 
L 179.033969 134.397281 
L 177.894563 134.109025 
L 177.023219 133.709564 
L 176.434245 133.225028 
L 176.137313 132.687111 
L 176.137299 132.130999 
L 176.434204 131.593067 
L 177.023154 131.108501 
L 177.894478 130.708997 
L 179.03387 130.420684 
L 180.422622 130.26242 
L 182.03793 130.244555 
L 183.853272 130.368257 
L 185.838838 130.625431 
L 187.962026 130.999252 
L 190.187974 131.465268 
L 192.480129 131.992993 
L 194.800854 132.547904 
L 197.112043 133.093704 
L 199.375746 133.594687 
L 201.554791 134.018082 
L 203.613398 134.336192 
L 205.517764 134.528206 
L 207.236621 134.581563 
L 208.741743 134.49277 
L 210.008418 134.267634 
L 211.015846 133.920879 
L 211.747486 133.475184 
L 212.191325 132.959704 
z
" style="fill:#0000ff;stroke:#000000;stroke-linejoin:miter;"/>
   </g>
   <g id="patch_5">
    <path clip-path="url(#p374350b762)" d="M 266.700076 132.4068 
L 266.551298 131.855257 
L 266.107433 131.339799 
L 265.37577 130.894141 
L 264.368325 130.547436 
L 263.101639 130.322362 
L 261.596512 130.233644 
L 259.877659 130.287087 
L 257.973302 130.479196 
L 255.91471 130.797408 
L 253.735687 131.220912 
L 251.472009 131.722008 
L 249.160847 132.267922 
L 246.840149 132.82295 
L 244.54802 133.350788 
L 242.322097 133.816915 
L 240.198927 134.190842 
L 238.213373 134.448115 
L 236.398038 134.571907 
L 234.782729 134.554123 
L 233.393969 134.395928 
L 232.254563 134.107672 
L 231.383219 133.708211 
L 230.794245 133.223675 
L 230.497313 132.685757 
L 230.497299 132.129645 
L 230.794204 131.591713 
L 231.383154 131.107148 
L 232.254478 130.707643 
L 233.39387 130.41933 
L 234.782622 130.261067 
L 236.39793 130.243202 
L 238.213272 130.366904 
L 240.198838 130.624077 
L 242.322026 130.997899 
L 244.547973 131.463915 
L 246.840129 131.991639 
L 249.160854 132.546551 
L 251.472043 133.09235 
L 253.735746 133.593334 
L 255.914791 134.016729 
L 257.973398 134.334839 
L 259.877764 134.526853 
L 261.596621 134.58021 
L 263.101743 134.491417 
L 264.368418 134.266281 
L 265.375846 133.919525 
L 266.107486 133.473831 
L 266.551325 132.95835 
z
" style="fill:#0000ff;stroke:#000000;stroke-linejoin:miter;"/>
   </g>
   <g id="patch_6">
    <path clip-path="url(#p374350b762)" d="M 254.016279 140.561116 
L 188.784279 140.56274 
L 188.784415 145.99874 
L 254.016415 145.997116 
z
" style="fill:#999999;stroke:#000000;stroke-linejoin:miter;"/>
   </g>
   <g id="text_1">
    <!-- t = 3.8 -->
    <defs>
     <path d="M 18.3125 70.21875 
L 18.3125 54.6875 
L 36.8125 54.6875 
L 36.8125 47.703125 
L 18.3125 47.703125 
L 18.3125 18.015625 
Q 18.3125 11.328125 20.140625 9.421875 
Q 21.96875 7.515625 27.59375 7.515625 
L 36.8125 7.515625 
L 36.8125 0 
L 27.59375 0 
Q 17.1875 0 13.234375 3.875 
Q 9.28125 7.765625 9.28125 18.015625 
L 9.28125 47.703125 
L 2.6875 47.703125 
L 2.6875 54.6875 
L 9.28125 54.6875 
L 9.28125 70.21875 
z
" id="DejaVuSans-116"/>
     <path id="DejaVuSans-32"/>
     <path d="M 10.59375 45.40625 
L 73.1875 45.40625 
L 73.1875 37.203125 
L 10.59375 37.203125 
z
M 10.59375 25.484375 
L 73.1875 25.484375 
L 73.1875 17.1875 
L 10.59375 17.1875 
z
" id="DejaVuSans-61"/>
     <path d="M 40.578125 39.3125 
Q 47.65625 37.796875 51.625 33 
Q 55.609375 28.21875 55.609375 21.1875 
Q 55.609375 10.40625 48.1875 4.484375 
Q 40.765625 -1.421875 27.09375 -1.421875 
Q 22.515625 -1.421875 17.65625 -0.515625 
Q 12.796875 0.390625 7.625 2.203125 
L 7.625 11.71875 
Q 11.71875 9.328125 16.59375 8.109375 
Q 21.484375 6.890625 26.8125 6.890625 
Q 36.078125 6.890625 40.9375 10.546875 
Q 45.796875 14.203125 45.796875 21.1875 
Q 45.796875 27.640625 41.28125 31.265625 
Q 36.765625 34.90625 28.71875 34.90625 
L 20.21875 34.90625 
L 20.21875 43.015625 
L 29.109375 43.015625 
Q 36.375 43.015625 40.234375 45.921875 
Q 44.09375 48.828125 44.09375 54.296875 
Q 44.09375 59.90625 40.109375 62.90625 
Q 36.140625 65.921875 28.71875 65.921875 
Q 24.65625 65.921875 20.015625 65.03125 
Q 15.375 64.15625 9.8125 62.3125 
L 9.8125 71.09375 
Q 15.4375 72.65625 20.34375 73.4375 
Q 25.25 74.21875 29.59375 74.21875 
Q 40.828125 74.21875 47.359375 69.109375 
Q 53.90625 64.015625 53.90625 55.328125 
Q 53.90625 49.265625 50.4375 45.09375 
Q 46.96875 40.921875 40.578125 39.3125 
z
" id="DejaVuSans-51"/>
     <path d="M 10.6875 12.40625 
L 21 12.40625 
L 21 0 
L 10.6875 0 
z
" id="DejaVuSans-46"/>
     <path d="M 31.78125 34.625 
Q 24.75 34.625 20.71875 30.859375 
Q 16.703125 27.09375 16.703125 20.515625 
Q 16.703125 13.921875 20.71875 10.15625 
Q 24.75 6.390625 31.78125 6.390625 
Q 38.8125 6.390625 42.859375 10.171875 
Q 46.921875 13.96875 46.921875 20.515625 
Q 46.921875 27.09375 42.890625 30.859375 
Q 38.875 34.625 31.78125 34.625 
z
M 21.921875 38.8125 
Q 15.578125 40.375 12.03125 44.71875 
Q 8.5 49.078125 8.5 55.328125 
Q 8.5 64.0625 14.71875 69.140625 
Q 20.953125 74.21875 31.78125 74.21875 
Q 42.671875 74.21875 48.875 69.140625 
Q 55.078125 64.0625 55.078125 55.328125 
Q 55.078125 49.078125 51.53125 44.71875 
Q 48 40.375 41.703125 38.8125 
Q 48.828125 37.15625 52.796875 32.3125 
Q 56.78125 27.484375 56.78125 20.515625 
Q 56.78125 9.90625 50.3125 4.234375 
Q 43.84375 -1.421875 31.78125 -1.421875 
Q 19.734375 -1.421875 13.25 4.234375 
Q 6.78125 9.90625 6.78125 20.515625 
Q 6.78125 27.484375 10.78125 32.3125 
Q 14.796875 37.15625 21.921875 38.8125 
z
M 18.3125 54.390625 
Q 18.3125 48.734375 21.84375 45.5625 
Q 25.390625 42.390625 31.78125 42.390625 
Q 38.140625 42.390625 41.71875 45.5625 
Q 45.3125 48.734375 45.3125 54.390625 
Q 45.3125 60.0625 41.71875 63.234375 
Q 38.140625 66.40625 31.78125 66.40625 
Q 25.390625 66.40625 21.84375 63.234375 
Q 18.3125 60.0625 18.3125 54.390625 
z
" id="DejaVuSans-56"/>
    </defs>
    <g transform="translate(200.664375 28.56)scale(0.12 -0.12)">
     <use xlink:href="#DejaVuSans-116"/>
     <use x="39.208984" xlink:href="#DejaVuSans-32"/>
     <use x="70.996094" xlink:href="#DejaVuSans-61"/>
     <use x="154.785156" xlink:href="#DejaVuSans-32"/>
     <use x="186.572266" xlink:href="#DejaVuSans-51"/>
     <use x="250.195312" xlink:href="#DejaVuSans-46"/>
     <use x="281.982422" xlink:href="#DejaVuSans-56"/>
    </g>
   </g>
  </g>
 </g>
 <defs>
  <clipPath id="p374350b762">
   <rect height="217.44" width="334.8" x="54" y="34.56"/>
  </clipPath>
 </defs>
</svg>
