<?xml version="1.0" encoding="utf-8" standalone="no"?>
<!DOCTYPE svg PUBLIC "-//W3C//DTD SVG 1.1//EN"
  "http://www.w3.org/Graphics/SVG/1.1/DTD/svg11.dtd">
<!-- Created with matplotlib (https://matplotlib.org/) -->
<svg height="288pt" version="1.1" viewBox="0 0 432 288" width="432pt" xmlns="http://www.w3.org/2000/svg" xmlns:xlink="http://www.w3.org/1999/xlink">
 <defs>
  <style type="text/css">
*{stroke-linecap:butt;stroke-linejoin:round;}
  </style>
 </defs>
 <g id="figure_1">
  <g id="patch_1">
   <path d="M 0 288 
L 432 288 
L 432 0 
L 0 0 
z
" style="fill:#ffffff;"/>
  </g>
  <g id="axes_1">
   <g id="patch_2">
    <path clip-path="url(#p413a779239)" d="M 194.662308 132.269621 
L 194.628542 143.141568 
L 193.541347 143.138192 
L 193.575114 132.266244 
z
" style="stroke:#000000;stroke-linejoin:miter;"/>
   </g>
   <g id="patch_3">
    <path clip-path="url(#p413a779239)" d="M 249.022046 132.438452 
L 248.98828 143.3104 
L 247.901085 143.307023 
L 247.934852 132.435076 
z
" style="stroke:#000000;stroke-linejoin:miter;"/>
   </g>
   <g id="patch_4">
    <path clip-path="url(#p413a779239)" d="M 212.238624 132.32421 
L 212.091572 131.772204 
L 211.649323 131.255358 
L 210.91906 130.807412 
L 209.912705 130.457554 
L 208.64673 130.228516 
L 207.141888 130.135087 
L 205.422876 130.183148 
L 203.517927 130.369294 
L 201.458349 130.68106 
L 199.27801 131.097739 
L 197.012775 131.591746 
L 194.699916 132.130423 
L 192.377491 132.678182 
L 190.083721 133.198842 
L 187.856349 133.657997 
L 185.732019 134.025276 
L 183.745669 134.276331 
L 181.929956 134.394439 
L 180.31471 134.371598 
L 178.926453 134.209056 
L 177.787954 133.917235 
L 176.917865 133.515047 
L 176.330411 133.02867 
L 176.035164 132.489826 
L 176.036891 131.933716 
L 176.335479 131.396716 
L 176.925943 130.913997 
L 177.798514 130.517222 
L 178.938803 130.232478 
L 180.328044 130.078563 
L 181.9434 130.065755 
L 183.758345 130.195139 
L 185.743097 130.458528 
L 187.865104 130.838995 
L 190.089581 131.311977 
L 192.380073 131.846875 
L 194.69905 132.40905 
L 197.008519 132.962082 
L 199.270642 133.47015 
L 201.448351 133.900365 
L 203.505952 134.224918 
L 205.409708 134.422894 
L 207.128389 134.481631 
L 208.633782 134.397551 
L 209.901155 134.176381 
L 210.909664 133.832782 
L 211.642696 133.38938 
L 212.088146 132.875291 
z
" style="fill:#0000ff;stroke:#000000;stroke-linejoin:miter;"/>
   </g>
   <g id="patch_5">
    <path clip-path="url(#p413a779239)" d="M 266.598361 132.493041 
L 266.45131 131.941035 
L 266.009061 131.42419 
L 265.278798 130.976244 
L 264.272443 130.626386 
L 263.006468 130.397348 
L 261.501626 130.303918 
L 259.782614 130.351979 
L 257.877664 130.538126 
L 255.818087 130.849891 
L 253.637748 131.266571 
L 251.372513 131.760578 
L 249.059653 132.299254 
L 246.737229 132.847014 
L 244.443459 133.367673 
L 242.216087 133.826829 
L 240.091757 134.194108 
L 238.105407 134.445163 
L 236.289693 134.563271 
L 234.674448 134.54043 
L 233.28619 134.377888 
L 232.147692 134.086066 
L 231.277602 133.683879 
L 230.690148 133.197501 
L 230.394902 132.658657 
L 230.396629 132.102548 
L 230.695217 131.565548 
L 231.285681 131.082829 
L 232.158252 130.686054 
L 233.298541 130.40131 
L 234.687781 130.247394 
L 236.303138 130.234587 
L 238.118083 130.363971 
L 240.102834 130.62736 
L 242.224842 131.007827 
L 244.449319 131.480809 
L 246.739811 132.015707 
L 249.058788 132.577881 
L 251.368257 133.130914 
L 253.63038 133.638982 
L 255.808088 134.069197 
L 257.865689 134.39375 
L 259.769446 134.591725 
L 261.488127 134.650463 
L 262.99352 134.566383 
L 264.260893 134.345213 
L 265.269401 134.001613 
L 266.002433 133.558212 
L 266.447884 133.044123 
z
" style="fill:#0000ff;stroke:#000000;stroke-linejoin:miter;"/>
   </g>
   <g id="patch_6">
    <path clip-path="url(#p413a779239)" d="M 253.889098 140.607608 
L 188.657413 140.40501 
L 188.640529 145.840984 
L 253.872215 146.043582 
z
" style="fill:#999999;stroke:#000000;stroke-linejoin:miter;"/>
   </g>
   <g id="text_1">
    <!-- t = 2.0 -->
    <defs>
     <path d="M 18.3125 70.21875 
L 18.3125 54.6875 
L 36.8125 54.6875 
L 36.8125 47.703125 
L 18.3125 47.703125 
L 18.3125 18.015625 
Q 18.3125 11.328125 20.140625 9.421875 
Q 21.96875 7.515625 27.59375 7.515625 
L 36.8125 7.515625 
L 36.8125 0 
L 27.59375 0 
Q 17.1875 0 13.234375 3.875 
Q 9.28125 7.765625 9.28125 18.015625 
L 9.28125 47.703125 
L 2.6875 47.703125 
L 2.6875 54.6875 
L 9.28125 54.6875 
L 9.28125 70.21875 
z
" id="DejaVuSans-116"/>
     <path id="DejaVuSans-32"/>
     <path d="M 10.59375 45.40625 
L 73.1875 45.40625 
L 73.1875 37.203125 
L 10.59375 37.203125 
z
M 10.59375 25.484375 
L 73.1875 25.484375 
L 73.1875 17.1875 
L 10.59375 17.1875 
z
" id="DejaVuSans-61"/>
     <path d="M 19.1875 8.296875 
L 53.609375 8.296875 
L 53.609375 0 
L 7.328125 0 
L 7.328125 8.296875 
Q 12.9375 14.109375 22.625 23.890625 
Q 32.328125 33.6875 34.8125 36.53125 
Q 39.546875 41.84375 41.421875 45.53125 
Q 43.3125 49.21875 43.3125 52.78125 
Q 43.3125 58.59375 39.234375 62.25 
Q 35.15625 65.921875 28.609375 65.921875 
Q 23.96875 65.921875 18.8125 64.3125 
Q 13.671875 62.703125 7.8125 59.421875 
L 7.8125 69.390625 
Q 13.765625 71.78125 18.9375 73 
Q 24.125 74.21875 28.421875 74.21875 
Q 39.75 74.21875 46.484375 68.546875 
Q 53.21875 62.890625 53.21875 53.421875 
Q 53.21875 48.921875 51.53125 44.890625 
Q 49.859375 40.875 45.40625 35.40625 
Q 44.1875 33.984375 37.640625 27.21875 
Q 31.109375 20.453125 19.1875 8.296875 
z
" id="DejaVuSans-50"/>
     <path d="M 10.6875 12.40625 
L 21 12.40625 
L 21 0 
L 10.6875 0 
z
" id="DejaVuSans-46"/>
     <path d="M 31.78125 66.40625 
Q 24.171875 66.40625 20.328125 58.90625 
Q 16.5 51.421875 16.5 36.375 
Q 16.5 21.390625 20.328125 13.890625 
Q 24.171875 6.390625 31.78125 6.390625 
Q 39.453125 6.390625 43.28125 13.890625 
Q 47.125 21.390625 47.125 36.375 
Q 47.125 51.421875 43.28125 58.90625 
Q 39.453125 66.40625 31.78125 66.40625 
z
M 31.78125 74.21875 
Q 44.046875 74.21875 50.515625 64.515625 
Q 56.984375 54.828125 56.984375 36.375 
Q 56.984375 17.96875 50.515625 8.265625 
Q 44.046875 -1.421875 31.78125 -1.421875 
Q 19.53125 -1.421875 13.0625 8.265625 
Q 6.59375 17.96875 6.59375 36.375 
Q 6.59375 54.828125 13.0625 64.515625 
Q 19.53125 74.21875 31.78125 74.21875 
z
" id="DejaVuSans-48"/>
    </defs>
    <g transform="translate(200.664375 28.56)scale(0.12 -0.12)">
     <use xlink:href="#DejaVuSans-116"/>
     <use x="39.208984" xlink:href="#DejaVuSans-32"/>
     <use x="70.996094" xlink:href="#DejaVuSans-61"/>
     <use x="154.785156" xlink:href="#DejaVuSans-32"/>
     <use x="186.572266" xlink:href="#DejaVuSans-50"/>
     <use x="250.195312" xlink:href="#DejaVuSans-46"/>
     <use x="281.982422" xlink:href="#DejaVuSans-48"/>
    </g>
   </g>
  </g>
 </g>
 <defs>
  <clipPath id="p413a779239">
   <rect height="217.44" width="334.8" x="54" y="34.56"/>
  </clipPath>
 </defs>
</svg>
