<?xml version="1.0" encoding="utf-8" standalone="no"?>
<!DOCTYPE svg PUBLIC "-//W3C//DTD SVG 1.1//EN"
  "http://www.w3.org/Graphics/SVG/1.1/DTD/svg11.dtd">
<!-- Created with matplotlib (https://matplotlib.org/) -->
<svg height="288pt" version="1.1" viewBox="0 0 432 288" width="432pt" xmlns="http://www.w3.org/2000/svg" xmlns:xlink="http://www.w3.org/1999/xlink">
 <defs>
  <style type="text/css">
*{stroke-linecap:butt;stroke-linejoin:round;}
  </style>
 </defs>
 <g id="figure_1">
  <g id="patch_1">
   <path d="M 0 288 
L 432 288 
L 432 0 
L 0 0 
z
" style="fill:#ffffff;"/>
  </g>
  <g id="axes_1">
   <g id="patch_2">
    <path clip-path="url(#p5c2e3f2f1d)" d="M 194.759305 132.408752 
L 194.759546 143.280752 
L 193.672346 143.280776 
L 193.672105 132.408776 
z
" style="stroke:#000000;stroke-linejoin:miter;"/>
   </g>
   <g id="patch_3">
    <path clip-path="url(#p5c2e3f2f1d)" d="M 249.119305 132.407547 
L 249.119546 143.279547 
L 248.032346 143.279571 
L 248.032105 132.407571 
z
" style="stroke:#000000;stroke-linejoin:miter;"/>
   </g>
   <g id="patch_4">
    <path clip-path="url(#p5c2e3f2f1d)" d="M 212.335705 132.408362 
L 212.186928 131.856819 
L 211.743064 131.341359 
L 211.011403 130.895699 
L 210.003959 130.548991 
L 208.737274 130.323915 
L 207.232147 130.235192 
L 205.513293 130.28863 
L 203.608936 130.480734 
L 201.550344 130.798941 
L 199.371319 131.222438 
L 197.10764 131.723528 
L 194.796477 132.269437 
L 192.475777 132.824458 
L 190.183647 133.35229 
L 187.957722 133.81841 
L 185.834551 134.192332 
L 183.848997 134.449599 
L 182.033661 134.573386 
L 180.418352 134.555597 
L 179.029593 134.397399 
L 177.890187 134.10914 
L 177.018844 133.709676 
L 176.429871 133.225138 
L 176.132941 132.68722 
L 176.132929 132.131108 
L 176.429835 131.593177 
L 177.018786 131.108613 
L 177.890112 130.709111 
L 179.029505 130.420801 
L 180.418257 130.262541 
L 182.033565 130.244681 
L 183.848906 130.368388 
L 185.834472 130.625567 
L 187.957659 130.999395 
L 190.183605 131.465416 
L 192.475759 131.993147 
L 194.796483 132.548065 
L 197.10767 133.093871 
L 199.371371 133.594861 
L 201.550415 134.018262 
L 203.609021 134.336377 
L 205.513387 134.528397 
L 207.232244 134.581758 
L 208.737366 134.492969 
L 210.004041 134.267836 
L 211.01147 133.921084 
L 211.743112 133.475392 
L 212.186952 132.959912 
z
" style="fill:#0000ff;stroke:#000000;stroke-linejoin:miter;"/>
   </g>
   <g id="patch_5">
    <path clip-path="url(#p5c2e3f2f1d)" d="M 266.695705 132.407158 
L 266.546928 131.855615 
L 266.103064 131.340155 
L 265.371403 130.894495 
L 264.363959 130.547787 
L 263.097274 130.32271 
L 261.592147 130.233988 
L 259.873293 130.287426 
L 257.968936 130.47953 
L 255.910344 130.797736 
L 253.731319 131.221234 
L 251.46764 131.722324 
L 249.156477 132.268232 
L 246.835777 132.823253 
L 244.543647 133.351086 
L 242.317722 133.817206 
L 240.194551 134.191128 
L 238.208996 134.448395 
L 236.393661 134.572182 
L 234.778352 134.554393 
L 233.389593 134.396195 
L 232.250187 134.107935 
L 231.378844 133.708472 
L 230.789871 133.223934 
L 230.492941 132.686016 
L 230.492928 132.129904 
L 230.789835 131.591973 
L 231.378786 131.107409 
L 232.250112 130.707907 
L 233.389505 130.419597 
L 234.778257 130.261337 
L 236.393565 130.243477 
L 238.208906 130.367183 
L 240.194472 130.624363 
L 242.317659 130.99819 
L 244.543605 131.464212 
L 246.835759 131.991943 
L 249.156483 132.546861 
L 251.46767 133.092667 
L 253.731371 133.593656 
L 255.910415 134.017057 
L 257.969021 134.335173 
L 259.873387 134.527192 
L 261.592244 134.580554 
L 263.097366 134.491765 
L 264.364041 134.266632 
L 265.37147 133.919879 
L 266.103112 133.474187 
L 266.546952 132.958708 
z
" style="fill:#0000ff;stroke:#000000;stroke-linejoin:miter;"/>
   </g>
   <g id="patch_6">
    <path clip-path="url(#p5c2e3f2f1d)" d="M 254.011886 140.561439 
L 188.779886 140.562884 
L 188.780006 145.998884 
L 254.012006 145.997439 
z
" style="fill:#999999;stroke:#000000;stroke-linejoin:miter;"/>
   </g>
   <g id="text_1">
    <!-- t = 4.0 -->
    <defs>
     <path d="M 18.3125 70.21875 
L 18.3125 54.6875 
L 36.8125 54.6875 
L 36.8125 47.703125 
L 18.3125 47.703125 
L 18.3125 18.015625 
Q 18.3125 11.328125 20.140625 9.421875 
Q 21.96875 7.515625 27.59375 7.515625 
L 36.8125 7.515625 
L 36.8125 0 
L 27.59375 0 
Q 17.1875 0 13.234375 3.875 
Q 9.28125 7.765625 9.28125 18.015625 
L 9.28125 47.703125 
L 2.6875 47.703125 
L 2.6875 54.6875 
L 9.28125 54.6875 
L 9.28125 70.21875 
z
" id="DejaVuSans-116"/>
     <path id="DejaVuSans-32"/>
     <path d="M 10.59375 45.40625 
L 73.1875 45.40625 
L 73.1875 37.203125 
L 10.59375 37.203125 
z
M 10.59375 25.484375 
L 73.1875 25.484375 
L 73.1875 17.1875 
L 10.59375 17.1875 
z
" id="DejaVuSans-61"/>
     <path d="M 37.796875 64.3125 
L 12.890625 25.390625 
L 37.796875 25.390625 
z
M 35.203125 72.90625 
L 47.609375 72.90625 
L 47.609375 25.390625 
L 58.015625 25.390625 
L 58.015625 17.1875 
L 47.609375 17.1875 
L 47.609375 0 
L 37.796875 0 
L 37.796875 17.1875 
L 4.890625 17.1875 
L 4.890625 26.703125 
z
" id="DejaVuSans-52"/>
     <path d="M 10.6875 12.40625 
L 21 12.40625 
L 21 0 
L 10.6875 0 
z
" id="DejaVuSans-46"/>
     <path d="M 31.78125 66.40625 
Q 24.171875 66.40625 20.328125 58.90625 
Q 16.5 51.421875 16.5 36.375 
Q 16.5 21.390625 20.328125 13.890625 
Q 24.171875 6.390625 31.78125 6.390625 
Q 39.453125 6.390625 43.28125 13.890625 
Q 47.125 21.390625 47.125 36.375 
Q 47.125 51.421875 43.28125 58.90625 
Q 39.453125 66.40625 31.78125 66.40625 
z
M 31.78125 74.21875 
Q 44.046875 74.21875 50.515625 64.515625 
Q 56.984375 54.828125 56.984375 36.375 
Q 56.984375 17.96875 50.515625 8.265625 
Q 44.046875 -1.421875 31.78125 -1.421875 
Q 19.53125 -1.421875 13.0625 8.265625 
Q 6.59375 17.96875 6.59375 36.375 
Q 6.59375 54.828125 13.0625 64.515625 
Q 19.53125 74.21875 31.78125 74.21875 
z
" id="DejaVuSans-48"/>
    </defs>
    <g transform="translate(200.664375 28.56)scale(0.12 -0.12)">
     <use xlink:href="#DejaVuSans-116"/>
     <use x="39.208984" xlink:href="#DejaVuSans-32"/>
     <use x="70.996094" xlink:href="#DejaVuSans-61"/>
     <use x="154.785156" xlink:href="#DejaVuSans-32"/>
     <use x="186.572266" xlink:href="#DejaVuSans-52"/>
     <use x="250.195312" xlink:href="#DejaVuSans-46"/>
     <use x="281.982422" xlink:href="#DejaVuSans-48"/>
    </g>
   </g>
  </g>
 </g>
 <defs>
  <clipPath id="p5c2e3f2f1d">
   <rect height="217.44" width="334.8" x="54" y="34.56"/>
  </clipPath>
 </defs>
</svg>
