<?xml version="1.0" encoding="utf-8" standalone="no"?>
<!DOCTYPE svg PUBLIC "-//W3C//DTD SVG 1.1//EN"
  "http://www.w3.org/Graphics/SVG/1.1/DTD/svg11.dtd">
<!-- Created with matplotlib (https://matplotlib.org/) -->
<svg height="288pt" version="1.1" viewBox="0 0 432 288" width="432pt" xmlns="http://www.w3.org/2000/svg" xmlns:xlink="http://www.w3.org/1999/xlink">
 <defs>
  <style type="text/css">
*{stroke-linecap:butt;stroke-linejoin:round;}
  </style>
 </defs>
 <g id="figure_1">
  <g id="patch_1">
   <path d="M 0 288 
L 432 288 
L 432 0 
L 0 0 
z
" style="fill:#ffffff;"/>
  </g>
  <g id="axes_1">
   <g id="patch_2">
    <path clip-path="url(#p09acc1653c)" d="M 278.395198 229.999806 
L 278.160999 240.869284 
L 277.074051 240.845864 
L 277.308251 229.976386 
z
" style="stroke:#000000;stroke-linejoin:miter;"/>
   </g>
   <g id="patch_3">
    <path clip-path="url(#p09acc1653c)" d="M 332.742584 231.170802 
L 332.508385 242.040279 
L 331.421437 242.016859 
L 331.655637 231.147382 
z
" style="stroke:#000000;stroke-linejoin:miter;"/>
   </g>
   <g id="patch_4">
    <path clip-path="url(#p09acc1653c)" d="M 295.96752 230.378428 
L 295.83067 229.823805 
L 295.398025 229.298894 
L 294.676144 228.83756 
L 293.67641 228.469209 
L 292.414873 228.21687 
L 290.91201 228.095713 
L 289.192403 228.112073 
L 287.284346 228.263067 
L 285.219371 228.536809 
L 283.031721 228.913221 
L 280.757763 229.365381 
L 278.435365 229.861325 
L 276.103237 230.366174 
L 273.800258 230.844457 
L 271.564799 231.26247 
L 269.434059 231.590522 
L 267.443418 231.804913 
L 265.625836 231.889526 
L 264.011286 231.83691 
L 262.626261 231.648801 
L 261.493336 231.336039 
L 260.630809 230.917879 
L 260.052422 230.420754 
L 259.76716 229.876558 
L 259.77914 229.320575 
L 260.087577 228.789171 
L 260.68684 228.31742 
L 261.566578 227.9368 
L 262.711923 227.673127 
L 264.103765 227.54485 
L 265.719082 227.561826 
L 267.531334 227.724649 
L 269.510892 228.024584 
L 271.625525 228.444109 
L 273.840904 228.958022 
L 276.121145 229.535057 
L 278.429363 230.139889 
L 280.728244 230.735406 
L 282.980615 231.285092 
L 285.150022 231.755383 
L 287.20129 232.117816 
L 289.101073 232.350856 
L 290.818378 232.44127 
L 292.325066 232.384957 
L 293.596301 232.187191 
L 294.610973 231.862243 
L 295.352055 231.432431 
L 295.806908 230.926642 
z
" style="fill:#0000ff;stroke:#000000;stroke-linejoin:miter;"/>
   </g>
   <g id="patch_5">
    <path clip-path="url(#p09acc1653c)" d="M 350.314906 231.549424 
L 350.178056 230.994801 
L 349.745411 230.469889 
L 349.02353 230.008556 
L 348.023796 229.640205 
L 346.762259 229.387866 
L 345.259396 229.266708 
L 343.53979 229.283069 
L 341.631732 229.434063 
L 339.566757 229.707805 
L 337.379107 230.084216 
L 335.105149 230.536377 
L 332.782751 231.032321 
L 330.450623 231.53717 
L 328.147644 232.015453 
L 325.912185 232.433466 
L 323.781445 232.761517 
L 321.790804 232.975909 
L 319.973222 233.060522 
L 318.358672 233.007905 
L 316.973647 232.819797 
L 315.840722 232.507035 
L 314.978195 232.088875 
L 314.399808 231.591749 
L 314.114546 231.047554 
L 314.126526 230.491571 
L 314.434963 229.960167 
L 315.034226 229.488416 
L 315.913964 229.107795 
L 317.059309 228.844122 
L 318.451151 228.715845 
L 320.066468 228.732821 
L 321.87872 228.895644 
L 323.858278 229.19558 
L 325.972911 229.615104 
L 328.18829 230.129017 
L 330.468531 230.706052 
L 332.776749 231.310885 
L 335.07563 231.906401 
L 337.328001 232.456088 
L 339.497408 232.926379 
L 341.548676 233.288811 
L 343.448459 233.521851 
L 345.165764 233.612265 
L 346.672452 233.555953 
L 347.943687 233.358186 
L 348.958359 233.033238 
L 349.699441 232.603427 
L 350.154294 232.097638 
z
" style="fill:#0000ff;stroke:#000000;stroke-linejoin:miter;"/>
   </g>
   <g id="patch_6">
    <path clip-path="url(#p09acc1653c)" d="M 337.4582 239.4283 
L 272.241336 238.023105 
L 272.124237 243.457843 
L 337.3411 244.863038 
z
" style="fill:#999999;stroke:#000000;stroke-linejoin:miter;"/>
   </g>
   <g id="text_1">
    <!-- t = 0.2 -->
    <defs>
     <path d="M 18.3125 70.21875 
L 18.3125 54.6875 
L 36.8125 54.6875 
L 36.8125 47.703125 
L 18.3125 47.703125 
L 18.3125 18.015625 
Q 18.3125 11.328125 20.140625 9.421875 
Q 21.96875 7.515625 27.59375 7.515625 
L 36.8125 7.515625 
L 36.8125 0 
L 27.59375 0 
Q 17.1875 0 13.234375 3.875 
Q 9.28125 7.765625 9.28125 18.015625 
L 9.28125 47.703125 
L 2.6875 47.703125 
L 2.6875 54.6875 
L 9.28125 54.6875 
L 9.28125 70.21875 
z
" id="DejaVuSans-116"/>
     <path id="DejaVuSans-32"/>
     <path d="M 10.59375 45.40625 
L 73.1875 45.40625 
L 73.1875 37.203125 
L 10.59375 37.203125 
z
M 10.59375 25.484375 
L 73.1875 25.484375 
L 73.1875 17.1875 
L 10.59375 17.1875 
z
" id="DejaVuSans-61"/>
     <path d="M 31.78125 66.40625 
Q 24.171875 66.40625 20.328125 58.90625 
Q 16.5 51.421875 16.5 36.375 
Q 16.5 21.390625 20.328125 13.890625 
Q 24.171875 6.390625 31.78125 6.390625 
Q 39.453125 6.390625 43.28125 13.890625 
Q 47.125 21.390625 47.125 36.375 
Q 47.125 51.421875 43.28125 58.90625 
Q 39.453125 66.40625 31.78125 66.40625 
z
M 31.78125 74.21875 
Q 44.046875 74.21875 50.515625 64.515625 
Q 56.984375 54.828125 56.984375 36.375 
Q 56.984375 17.96875 50.515625 8.265625 
Q 44.046875 -1.421875 31.78125 -1.421875 
Q 19.53125 -1.421875 13.0625 8.265625 
Q 6.59375 17.96875 6.59375 36.375 
Q 6.59375 54.828125 13.0625 64.515625 
Q 19.53125 74.21875 31.78125 74.21875 
z
" id="DejaVuSans-48"/>
     <path d="M 10.6875 12.40625 
L 21 12.40625 
L 21 0 
L 10.6875 0 
z
" id="DejaVuSans-46"/>
     <path d="M 19.1875 8.296875 
L 53.609375 8.296875 
L 53.609375 0 
L 7.328125 0 
L 7.328125 8.296875 
Q 12.9375 14.109375 22.625 23.890625 
Q 32.328125 33.6875 34.8125 36.53125 
Q 39.546875 41.84375 41.421875 45.53125 
Q 43.3125 49.21875 43.3125 52.78125 
Q 43.3125 58.59375 39.234375 62.25 
Q 35.15625 65.921875 28.609375 65.921875 
Q 23.96875 65.921875 18.8125 64.3125 
Q 13.671875 62.703125 7.8125 59.421875 
L 7.8125 69.390625 
Q 13.765625 71.78125 18.9375 73 
Q 24.125 74.21875 28.421875 74.21875 
Q 39.75 74.21875 46.484375 68.546875 
Q 53.21875 62.890625 53.21875 53.421875 
Q 53.21875 48.921875 51.53125 44.890625 
Q 49.859375 40.875 45.40625 35.40625 
Q 44.1875 33.984375 37.640625 27.21875 
Q 31.109375 20.453125 19.1875 8.296875 
z
" id="DejaVuSans-50"/>
    </defs>
    <g transform="translate(200.664375 28.56)scale(0.12 -0.12)">
     <use xlink:href="#DejaVuSans-116"/>
     <use x="39.208984" xlink:href="#DejaVuSans-32"/>
     <use x="70.996094" xlink:href="#DejaVuSans-61"/>
     <use x="154.785156" xlink:href="#DejaVuSans-32"/>
     <use x="186.572266" xlink:href="#DejaVuSans-48"/>
     <use x="250.195312" xlink:href="#DejaVuSans-46"/>
     <use x="281.982422" xlink:href="#DejaVuSans-50"/>
    </g>
   </g>
  </g>
 </g>
 <defs>
  <clipPath id="p09acc1653c">
   <rect height="217.44" width="334.8" x="54" y="34.56"/>
  </clipPath>
 </defs>
</svg>
