<?xml version="1.0" encoding="utf-8" standalone="no"?>
<!DOCTYPE svg PUBLIC "-//W3C//DTD SVG 1.1//EN"
  "http://www.w3.org/Graphics/SVG/1.1/DTD/svg11.dtd">
<!-- Created with matplotlib (https://matplotlib.org/) -->
<svg height="288pt" version="1.1" viewBox="0 0 432 288" width="432pt" xmlns="http://www.w3.org/2000/svg" xmlns:xlink="http://www.w3.org/1999/xlink">
 <defs>
  <style type="text/css">
*{stroke-linecap:butt;stroke-linejoin:round;}
  </style>
 </defs>
 <g id="figure_1">
  <g id="patch_1">
   <path d="M 0 288 
L 432 288 
L 432 0 
L 0 0 
z
" style="fill:#ffffff;"/>
  </g>
  <g id="axes_1">
   <g id="patch_2">
    <path clip-path="url(#p7085d4d7a7)" d="M 194.78308 132.41847 
L 194.78591 143.29047 
L 193.69871 143.290753 
L 193.69588 132.418753 
z
" style="stroke:#000000;stroke-linejoin:miter;"/>
   </g>
   <g id="patch_3">
    <path clip-path="url(#p7085d4d7a7)" d="M 249.143078 132.404316 
L 249.145909 143.276316 
L 248.058709 143.276599 
L 248.055878 132.404599 
z
" style="stroke:#000000;stroke-linejoin:miter;"/>
   </g>
   <g id="patch_4">
    <path clip-path="url(#p7085d4d7a7)" d="M 212.359479 132.413894 
L 212.21057 131.862386 
L 211.766584 131.347032 
L 211.034817 130.901546 
L 210.02729 130.555078 
L 208.760551 130.330303 
L 207.255404 130.24194 
L 205.536563 130.295787 
L 203.632251 130.488344 
L 201.573734 130.807041 
L 199.39481 131.231058 
L 197.131251 131.732687 
L 194.820218 132.279146 
L 192.499651 132.83472 
L 190.207646 133.363098 
L 187.981832 133.829749 
L 185.85875 134.204176 
L 183.873257 134.461916 
L 182.057951 134.586136 
L 180.442638 134.568732 
L 179.053841 134.410864 
L 177.914367 134.122877 
L 177.042929 133.723621 
L 176.453841 133.239223 
L 176.156782 132.701376 
L 176.156637 132.145264 
L 176.453416 131.607262 
L 177.042251 131.122558 
L 177.913482 130.722848 
L 179.052806 130.434267 
L 180.44152 130.275676 
L 182.056824 130.257431 
L 183.872195 130.380705 
L 185.857822 130.637411 
L 187.981098 131.010733 
L 190.207155 131.476225 
L 192.499434 132.003409 
L 194.82029 132.557775 
L 197.131608 133.10303 
L 199.395428 133.60348 
L 201.574573 134.026362 
L 203.633255 134.343987 
L 205.537666 134.535553 
L 207.256535 134.588505 
L 208.761637 134.499358 
L 210.028258 134.273923 
L 211.035605 133.92693 
L 211.76714 133.481064 
L 212.210858 132.965479 
z
" style="fill:#0000ff;stroke:#000000;stroke-linejoin:miter;"/>
   </g>
   <g id="patch_5">
    <path clip-path="url(#p7085d4d7a7)" d="M 266.719477 132.39974 
L 266.570569 131.848232 
L 266.126582 131.332878 
L 265.394815 130.887392 
L 264.387288 130.540924 
L 263.120549 130.316149 
L 261.615402 130.227786 
L 259.896561 130.281633 
L 257.992249 130.47419 
L 255.933733 130.792887 
L 253.754809 131.216904 
L 251.491249 131.718533 
L 249.180216 132.264992 
L 246.859649 132.820566 
L 244.567644 133.348944 
L 242.34183 133.815595 
L 240.218749 134.190022 
L 238.233256 134.447763 
L 236.41795 134.571982 
L 234.802636 134.554578 
L 233.41384 134.39671 
L 232.274365 134.108723 
L 231.402927 133.709467 
L 230.813839 133.225069 
L 230.51678 132.687222 
L 230.516636 132.13111 
L 230.813414 131.593108 
L 231.40225 131.108404 
L 232.27348 130.708694 
L 233.412804 130.420113 
L 234.801519 130.261522 
L 236.416823 130.243277 
L 238.232193 130.366551 
L 240.21782 130.623257 
L 242.341096 130.996579 
L 244.567153 131.462071 
L 246.859432 131.989255 
L 249.180289 132.543621 
L 251.491606 133.088876 
L 253.755426 133.589326 
L 255.934571 134.012208 
L 257.993253 134.329833 
L 259.897665 134.521399 
L 261.616533 134.574351 
L 263.121635 134.485204 
L 264.388256 134.259769 
L 265.395603 133.912777 
L 266.127138 133.46691 
L 266.570856 132.951325 
z
" style="fill:#0000ff;stroke:#000000;stroke-linejoin:miter;"/>
   </g>
   <g id="patch_6">
    <path clip-path="url(#p7085d4d7a7)" d="M 254.037601 140.557042 
L 188.805603 140.574027 
L 188.807018 146.010026 
L 254.039016 145.993042 
z
" style="fill:#999999;stroke:#000000;stroke-linejoin:miter;"/>
   </g>
   <g id="text_1">
    <!-- t = 3.2 -->
    <defs>
     <path d="M 18.3125 70.21875 
L 18.3125 54.6875 
L 36.8125 54.6875 
L 36.8125 47.703125 
L 18.3125 47.703125 
L 18.3125 18.015625 
Q 18.3125 11.328125 20.140625 9.421875 
Q 21.96875 7.515625 27.59375 7.515625 
L 36.8125 7.515625 
L 36.8125 0 
L 27.59375 0 
Q 17.1875 0 13.234375 3.875 
Q 9.28125 7.765625 9.28125 18.015625 
L 9.28125 47.703125 
L 2.6875 47.703125 
L 2.6875 54.6875 
L 9.28125 54.6875 
L 9.28125 70.21875 
z
" id="DejaVuSans-116"/>
     <path id="DejaVuSans-32"/>
     <path d="M 10.59375 45.40625 
L 73.1875 45.40625 
L 73.1875 37.203125 
L 10.59375 37.203125 
z
M 10.59375 25.484375 
L 73.1875 25.484375 
L 73.1875 17.1875 
L 10.59375 17.1875 
z
" id="DejaVuSans-61"/>
     <path d="M 40.578125 39.3125 
Q 47.65625 37.796875 51.625 33 
Q 55.609375 28.21875 55.609375 21.1875 
Q 55.609375 10.40625 48.1875 4.484375 
Q 40.765625 -1.421875 27.09375 -1.421875 
Q 22.515625 -1.421875 17.65625 -0.515625 
Q 12.796875 0.390625 7.625 2.203125 
L 7.625 11.71875 
Q 11.71875 9.328125 16.59375 8.109375 
Q 21.484375 6.890625 26.8125 6.890625 
Q 36.078125 6.890625 40.9375 10.546875 
Q 45.796875 14.203125 45.796875 21.1875 
Q 45.796875 27.640625 41.28125 31.265625 
Q 36.765625 34.90625 28.71875 34.90625 
L 20.21875 34.90625 
L 20.21875 43.015625 
L 29.109375 43.015625 
Q 36.375 43.015625 40.234375 45.921875 
Q 44.09375 48.828125 44.09375 54.296875 
Q 44.09375 59.90625 40.109375 62.90625 
Q 36.140625 65.921875 28.71875 65.921875 
Q 24.65625 65.921875 20.015625 65.03125 
Q 15.375 64.15625 9.8125 62.3125 
L 9.8125 71.09375 
Q 15.4375 72.65625 20.34375 73.4375 
Q 25.25 74.21875 29.59375 74.21875 
Q 40.828125 74.21875 47.359375 69.109375 
Q 53.90625 64.015625 53.90625 55.328125 
Q 53.90625 49.265625 50.4375 45.09375 
Q 46.96875 40.921875 40.578125 39.3125 
z
" id="DejaVuSans-51"/>
     <path d="M 10.6875 12.40625 
L 21 12.40625 
L 21 0 
L 10.6875 0 
z
" id="DejaVuSans-46"/>
     <path d="M 19.1875 8.296875 
L 53.609375 8.296875 
L 53.609375 0 
L 7.328125 0 
L 7.328125 8.296875 
Q 12.9375 14.109375 22.625 23.890625 
Q 32.328125 33.6875 34.8125 36.53125 
Q 39.546875 41.84375 41.421875 45.53125 
Q 43.3125 49.21875 43.3125 52.78125 
Q 43.3125 58.59375 39.234375 62.25 
Q 35.15625 65.921875 28.609375 65.921875 
Q 23.96875 65.921875 18.8125 64.3125 
Q 13.671875 62.703125 7.8125 59.421875 
L 7.8125 69.390625 
Q 13.765625 71.78125 18.9375 73 
Q 24.125 74.21875 28.421875 74.21875 
Q 39.75 74.21875 46.484375 68.546875 
Q 53.21875 62.890625 53.21875 53.421875 
Q 53.21875 48.921875 51.53125 44.890625 
Q 49.859375 40.875 45.40625 35.40625 
Q 44.1875 33.984375 37.640625 27.21875 
Q 31.109375 20.453125 19.1875 8.296875 
z
" id="DejaVuSans-50"/>
    </defs>
    <g transform="translate(200.664375 28.56)scale(0.12 -0.12)">
     <use xlink:href="#DejaVuSans-116"/>
     <use x="39.208984" xlink:href="#DejaVuSans-32"/>
     <use x="70.996094" xlink:href="#DejaVuSans-61"/>
     <use x="154.785156" xlink:href="#DejaVuSans-32"/>
     <use x="186.572266" xlink:href="#DejaVuSans-51"/>
     <use x="250.195312" xlink:href="#DejaVuSans-46"/>
     <use x="281.982422" xlink:href="#DejaVuSans-50"/>
    </g>
   </g>
  </g>
 </g>
 <defs>
  <clipPath id="p7085d4d7a7">
   <rect height="217.44" width="334.8" x="54" y="34.56"/>
  </clipPath>
 </defs>
</svg>
