<?xml version="1.0" encoding="utf-8" standalone="no"?>
<!DOCTYPE svg PUBLIC "-//W3C//DTD SVG 1.1//EN"
  "http://www.w3.org/Graphics/SVG/1.1/DTD/svg11.dtd">
<!-- Created with matplotlib (https://matplotlib.org/) -->
<svg height="288pt" version="1.1" viewBox="0 0 432 288" width="432pt" xmlns="http://www.w3.org/2000/svg" xmlns:xlink="http://www.w3.org/1999/xlink">
 <defs>
  <style type="text/css">
*{stroke-linecap:butt;stroke-linejoin:round;}
  </style>
 </defs>
 <g id="figure_1">
  <g id="patch_1">
   <path d="M 0 288 
L 432 288 
L 432 0 
L 0 0 
z
" style="fill:#ffffff;"/>
  </g>
  <g id="axes_1">
   <g id="patch_2">
    <path clip-path="url(#pa3353bd38b)" d="M 194.624112 132.374394 
L 194.617944 143.246392 
L 193.530744 143.245775 
L 193.536912 132.373777 
z
" style="stroke:#000000;stroke-linejoin:miter;"/>
   </g>
   <g id="patch_3">
    <path clip-path="url(#pa3353bd38b)" d="M 248.984103 132.405234 
L 248.977935 143.277232 
L 247.890735 143.276615 
L 247.896903 132.404617 
z
" style="stroke:#000000;stroke-linejoin:miter;"/>
   </g>
   <g id="patch_4">
    <path clip-path="url(#pa3353bd38b)" d="M 212.200509 132.384365 
L 212.052057 131.832735 
L 211.608497 131.317013 
L 210.877099 130.870922 
L 209.869859 130.52362 
L 208.603307 130.297797 
L 207.098233 130.208188 
L 205.379348 130.260612 
L 203.474877 130.451593 
L 201.416098 130.768586 
L 199.236824 131.190799 
L 196.97285 131.690555 
L 194.661365 132.235101 
L 192.340339 132.788754 
L 190.047898 133.315235 
L 187.821698 133.780043 
L 185.698308 134.152713 
L 183.712602 134.408809 
L 181.897194 134.531526 
L 180.281896 134.512786 
L 178.89323 134.353768 
L 177.753994 134.064838 
L 176.882887 133.66486 
L 176.2942 133.179975 
L 175.997587 132.641883 
L 175.997902 132.085771 
L 176.295126 131.548015 
L 176.884362 131.063798 
L 177.755923 130.664809 
L 178.895486 130.377171 
L 180.284331 130.21973 
L 181.89965 130.202822 
L 183.714917 130.327599 
L 185.700331 130.585948 
L 187.823298 130.961027 
L 190.048968 131.428361 
L 192.340811 131.957443 
L 194.661207 132.513729 
L 196.972073 133.060897 
L 199.235478 133.563221 
L 201.414272 133.987907 
L 203.47269 134.307236 
L 205.376943 134.500378 
L 207.095767 134.554752 
L 208.600942 134.466851 
L 209.867749 134.242465 
L 210.875383 133.896306 
L 211.607287 133.451045 
L 212.051431 132.935827 
z
" style="fill:#0000ff;stroke:#000000;stroke-linejoin:miter;"/>
   </g>
   <g id="patch_5">
    <path clip-path="url(#pa3353bd38b)" d="M 266.5605 132.415205 
L 266.412048 131.863574 
L 265.968489 131.347853 
L 265.23709 130.901762 
L 264.22985 130.55446 
L 262.963298 130.328637 
L 261.458224 130.239027 
L 259.739339 130.291452 
L 257.834869 130.482433 
L 255.776089 130.799426 
L 253.596815 131.221639 
L 251.332842 131.721395 
L 249.021357 132.26594 
L 246.70033 132.819593 
L 244.407889 133.346074 
L 242.18169 133.810883 
L 240.058299 134.183553 
L 238.072593 134.439649 
L 236.257185 134.562366 
L 234.641887 134.543625 
L 233.253221 134.384608 
L 232.113985 134.095677 
L 231.242878 133.6957 
L 230.654191 133.210815 
L 230.357578 132.672722 
L 230.357893 132.11661 
L 230.655117 131.578854 
L 231.244354 131.094638 
L 232.115914 130.695649 
L 233.255477 130.408011 
L 234.644322 130.25057 
L 236.259641 130.233662 
L 238.074909 130.358439 
L 240.060322 130.616788 
L 242.183289 130.991867 
L 244.40896 131.459201 
L 246.700802 131.988283 
L 249.021199 132.544569 
L 251.332064 133.091737 
L 253.595469 133.594061 
L 255.774263 134.018747 
L 257.832681 134.338076 
L 259.736934 134.531218 
L 261.455758 134.585592 
L 262.960933 134.497691 
L 264.227741 134.273304 
L 265.235374 133.927146 
L 265.967278 133.481885 
L 266.411422 132.966667 
z
" style="fill:#0000ff;stroke:#000000;stroke-linejoin:miter;"/>
   </g>
   <g id="patch_6">
    <path clip-path="url(#pa3353bd38b)" d="M 253.871876 140.562008 
L 188.639887 140.525 
L 188.636803 145.960999 
L 253.868792 145.998007 
z
" style="fill:#999999;stroke:#000000;stroke-linejoin:miter;"/>
   </g>
   <g id="text_1">
    <!-- t = 2.3 -->
    <defs>
     <path d="M 18.3125 70.21875 
L 18.3125 54.6875 
L 36.8125 54.6875 
L 36.8125 47.703125 
L 18.3125 47.703125 
L 18.3125 18.015625 
Q 18.3125 11.328125 20.140625 9.421875 
Q 21.96875 7.515625 27.59375 7.515625 
L 36.8125 7.515625 
L 36.8125 0 
L 27.59375 0 
Q 17.1875 0 13.234375 3.875 
Q 9.28125 7.765625 9.28125 18.015625 
L 9.28125 47.703125 
L 2.6875 47.703125 
L 2.6875 54.6875 
L 9.28125 54.6875 
L 9.28125 70.21875 
z
" id="DejaVuSans-116"/>
     <path id="DejaVuSans-32"/>
     <path d="M 10.59375 45.40625 
L 73.1875 45.40625 
L 73.1875 37.203125 
L 10.59375 37.203125 
z
M 10.59375 25.484375 
L 73.1875 25.484375 
L 73.1875 17.1875 
L 10.59375 17.1875 
z
" id="DejaVuSans-61"/>
     <path d="M 19.1875 8.296875 
L 53.609375 8.296875 
L 53.609375 0 
L 7.328125 0 
L 7.328125 8.296875 
Q 12.9375 14.109375 22.625 23.890625 
Q 32.328125 33.6875 34.8125 36.53125 
Q 39.546875 41.84375 41.421875 45.53125 
Q 43.3125 49.21875 43.3125 52.78125 
Q 43.3125 58.59375 39.234375 62.25 
Q 35.15625 65.921875 28.609375 65.921875 
Q 23.96875 65.921875 18.8125 64.3125 
Q 13.671875 62.703125 7.8125 59.421875 
L 7.8125 69.390625 
Q 13.765625 71.78125 18.9375 73 
Q 24.125 74.21875 28.421875 74.21875 
Q 39.75 74.21875 46.484375 68.546875 
Q 53.21875 62.890625 53.21875 53.421875 
Q 53.21875 48.921875 51.53125 44.890625 
Q 49.859375 40.875 45.40625 35.40625 
Q 44.1875 33.984375 37.640625 27.21875 
Q 31.109375 20.453125 19.1875 8.296875 
z
" id="DejaVuSans-50"/>
     <path d="M 10.6875 12.40625 
L 21 12.40625 
L 21 0 
L 10.6875 0 
z
" id="DejaVuSans-46"/>
     <path d="M 40.578125 39.3125 
Q 47.65625 37.796875 51.625 33 
Q 55.609375 28.21875 55.609375 21.1875 
Q 55.609375 10.40625 48.1875 4.484375 
Q 40.765625 -1.421875 27.09375 -1.421875 
Q 22.515625 -1.421875 17.65625 -0.515625 
Q 12.796875 0.390625 7.625 2.203125 
L 7.625 11.71875 
Q 11.71875 9.328125 16.59375 8.109375 
Q 21.484375 6.890625 26.8125 6.890625 
Q 36.078125 6.890625 40.9375 10.546875 
Q 45.796875 14.203125 45.796875 21.1875 
Q 45.796875 27.640625 41.28125 31.265625 
Q 36.765625 34.90625 28.71875 34.90625 
L 20.21875 34.90625 
L 20.21875 43.015625 
L 29.109375 43.015625 
Q 36.375 43.015625 40.234375 45.921875 
Q 44.09375 48.828125 44.09375 54.296875 
Q 44.09375 59.90625 40.109375 62.90625 
Q 36.140625 65.921875 28.71875 65.921875 
Q 24.65625 65.921875 20.015625 65.03125 
Q 15.375 64.15625 9.8125 62.3125 
L 9.8125 71.09375 
Q 15.4375 72.65625 20.34375 73.4375 
Q 25.25 74.21875 29.59375 74.21875 
Q 40.828125 74.21875 47.359375 69.109375 
Q 53.90625 64.015625 53.90625 55.328125 
Q 53.90625 49.265625 50.4375 45.09375 
Q 46.96875 40.921875 40.578125 39.3125 
z
" id="DejaVuSans-51"/>
    </defs>
    <g transform="translate(200.664375 28.56)scale(0.12 -0.12)">
     <use xlink:href="#DejaVuSans-116"/>
     <use x="39.208984" xlink:href="#DejaVuSans-32"/>
     <use x="70.996094" xlink:href="#DejaVuSans-61"/>
     <use x="154.785156" xlink:href="#DejaVuSans-32"/>
     <use x="186.572266" xlink:href="#DejaVuSans-50"/>
     <use x="250.195312" xlink:href="#DejaVuSans-46"/>
     <use x="281.982422" xlink:href="#DejaVuSans-51"/>
    </g>
   </g>
  </g>
 </g>
 <defs>
  <clipPath id="pa3353bd38b">
   <rect height="217.44" width="334.8" x="54" y="34.56"/>
  </clipPath>
 </defs>
</svg>
