<?xml version="1.0" encoding="utf-8" standalone="no"?>
<!DOCTYPE svg PUBLIC "-//W3C//DTD SVG 1.1//EN"
  "http://www.w3.org/Graphics/SVG/1.1/DTD/svg11.dtd">
<!-- Created with matplotlib (https://matplotlib.org/) -->
<svg height="288pt" version="1.1" viewBox="0 0 432 288" width="432pt" xmlns="http://www.w3.org/2000/svg" xmlns:xlink="http://www.w3.org/1999/xlink">
 <defs>
  <style type="text/css">
*{stroke-linecap:butt;stroke-linejoin:round;}
  </style>
 </defs>
 <g id="figure_1">
  <g id="patch_1">
   <path d="M 0 288 
L 432 288 
L 432 0 
L 0 0 
z
" style="fill:#ffffff;"/>
  </g>
  <g id="axes_1">
   <g id="patch_2">
    <path clip-path="url(#pd4a8ca9da7)" d="M 195.952017 132.570896 
L 195.927262 143.442868 
L 194.840064 143.440392 
L 194.86482 132.56842 
z
" style="stroke:#000000;stroke-linejoin:miter;"/>
   </g>
   <g id="patch_3">
    <path clip-path="url(#pd4a8ca9da7)" d="M 250.311876 132.694674 
L 250.287121 143.566646 
L 249.199924 143.56417 
L 249.224679 132.692198 
z
" style="stroke:#000000;stroke-linejoin:miter;"/>
   </g>
   <g id="patch_4">
    <path clip-path="url(#pd4a8ca9da7)" d="M 213.528372 132.610918 
L 213.380863 132.059034 
L 212.938186 131.542555 
L 212.207551 131.095214 
L 211.200907 130.746191 
L 209.934742 130.518202 
L 208.429824 130.42602 
L 206.710852 130.475505 
L 204.806057 130.66323 
L 202.746739 130.976703 
L 200.566746 131.39519 
L 198.301921 131.891074 
L 195.989509 132.431667 
L 193.667539 132.981351 
L 191.374202 133.503911 
L 189.147211 133.964913 
L 187.023186 134.333952 
L 185.037045 134.586653 
L 183.22143 134.706266 
L 181.606166 134.684764 
L 180.217774 134.523373 
L 179.079034 134.232495 
L 178.208612 133.831029 
L 177.620755 133.345138 
L 177.325062 132.806539 
L 177.326328 132.250428 
L 177.624471 131.713181 
L 178.214534 131.229973 
L 179.086776 130.832475 
L 180.226829 130.546786 
L 181.615941 130.391719 
L 183.231286 130.377573 
L 185.046338 130.505453 
L 187.031307 130.767196 
L 189.15363 131.145904 
L 191.378498 131.617043 
L 193.669432 132.150042 
L 195.988875 132.710295 
L 198.298801 133.261413 
L 200.561344 133.767606 
L 202.739409 134.196016 
L 204.797278 134.518863 
L 206.701198 134.715261 
L 208.419927 134.772574 
L 209.925249 134.687246 
L 211.192439 134.465026 
L 212.200662 134.12059 
L 212.933327 133.676582 
L 213.378351 133.162124 
z
" style="fill:#0000ff;stroke:#000000;stroke-linejoin:miter;"/>
   </g>
   <g id="patch_5">
    <path clip-path="url(#pd4a8ca9da7)" d="M 267.888231 132.734695 
L 267.740722 132.182812 
L 267.298045 131.666333 
L 266.56741 131.218992 
L 265.560766 130.869969 
L 264.294601 130.64198 
L 262.789683 130.549798 
L 261.070711 130.599283 
L 259.165916 130.787008 
L 257.106598 131.100481 
L 254.926605 131.518968 
L 252.66178 132.014852 
L 250.349368 132.555445 
L 248.027399 133.105129 
L 245.734061 133.627689 
L 243.50707 134.088691 
L 241.383045 134.45773 
L 239.396904 134.710431 
L 237.581289 134.830044 
L 235.966025 134.808542 
L 234.577633 134.647151 
L 233.438893 134.356273 
L 232.568471 133.954807 
L 231.980614 133.468916 
L 231.684921 132.930317 
L 231.686187 132.374206 
L 231.98433 131.836959 
L 232.574394 131.353751 
L 233.446635 130.956253 
L 234.586688 130.670564 
L 235.9758 130.515497 
L 237.591145 130.501351 
L 239.406197 130.629231 
L 241.391166 130.890974 
L 243.513489 131.269682 
L 245.738357 131.740821 
L 248.029291 132.27382 
L 250.348734 132.834072 
L 252.65866 133.385191 
L 254.921203 133.891384 
L 257.099268 134.319794 
L 259.157137 134.642641 
L 261.061057 134.839039 
L 262.779786 134.896352 
L 264.285108 134.811024 
L 265.552298 134.588804 
L 266.560521 134.244368 
L 267.293186 133.80036 
L 267.73821 133.285902 
z
" style="fill:#0000ff;stroke:#000000;stroke-linejoin:miter;"/>
   </g>
   <g id="patch_6">
    <path clip-path="url(#pd4a8ca9da7)" d="M 255.185697 140.859793 
L 189.953866 140.711259 
L 189.941488 146.147245 
L 255.173319 146.295779 
z
" style="fill:#999999;stroke:#000000;stroke-linejoin:miter;"/>
   </g>
   <g id="text_1">
    <!-- t = 2.2 -->
    <defs>
     <path d="M 18.3125 70.21875 
L 18.3125 54.6875 
L 36.8125 54.6875 
L 36.8125 47.703125 
L 18.3125 47.703125 
L 18.3125 18.015625 
Q 18.3125 11.328125 20.140625 9.421875 
Q 21.96875 7.515625 27.59375 7.515625 
L 36.8125 7.515625 
L 36.8125 0 
L 27.59375 0 
Q 17.1875 0 13.234375 3.875 
Q 9.28125 7.765625 9.28125 18.015625 
L 9.28125 47.703125 
L 2.6875 47.703125 
L 2.6875 54.6875 
L 9.28125 54.6875 
L 9.28125 70.21875 
z
" id="DejaVuSans-116"/>
     <path id="DejaVuSans-32"/>
     <path d="M 10.59375 45.40625 
L 73.1875 45.40625 
L 73.1875 37.203125 
L 10.59375 37.203125 
z
M 10.59375 25.484375 
L 73.1875 25.484375 
L 73.1875 17.1875 
L 10.59375 17.1875 
z
" id="DejaVuSans-61"/>
     <path d="M 19.1875 8.296875 
L 53.609375 8.296875 
L 53.609375 0 
L 7.328125 0 
L 7.328125 8.296875 
Q 12.9375 14.109375 22.625 23.890625 
Q 32.328125 33.6875 34.8125 36.53125 
Q 39.546875 41.84375 41.421875 45.53125 
Q 43.3125 49.21875 43.3125 52.78125 
Q 43.3125 58.59375 39.234375 62.25 
Q 35.15625 65.921875 28.609375 65.921875 
Q 23.96875 65.921875 18.8125 64.3125 
Q 13.671875 62.703125 7.8125 59.421875 
L 7.8125 69.390625 
Q 13.765625 71.78125 18.9375 73 
Q 24.125 74.21875 28.421875 74.21875 
Q 39.75 74.21875 46.484375 68.546875 
Q 53.21875 62.890625 53.21875 53.421875 
Q 53.21875 48.921875 51.53125 44.890625 
Q 49.859375 40.875 45.40625 35.40625 
Q 44.1875 33.984375 37.640625 27.21875 
Q 31.109375 20.453125 19.1875 8.296875 
z
" id="DejaVuSans-50"/>
     <path d="M 10.6875 12.40625 
L 21 12.40625 
L 21 0 
L 10.6875 0 
z
" id="DejaVuSans-46"/>
    </defs>
    <g transform="translate(200.664375 28.56)scale(0.12 -0.12)">
     <use xlink:href="#DejaVuSans-116"/>
     <use x="39.208984" xlink:href="#DejaVuSans-32"/>
     <use x="70.996094" xlink:href="#DejaVuSans-61"/>
     <use x="154.785156" xlink:href="#DejaVuSans-32"/>
     <use x="186.572266" xlink:href="#DejaVuSans-50"/>
     <use x="250.195312" xlink:href="#DejaVuSans-46"/>
     <use x="281.982422" xlink:href="#DejaVuSans-50"/>
    </g>
   </g>
  </g>
 </g>
 <defs>
  <clipPath id="pd4a8ca9da7">
   <rect height="217.44" width="334.8" x="54" y="34.56"/>
  </clipPath>
 </defs>
</svg>
