<?xml version="1.0" encoding="utf-8" standalone="no"?>
<!DOCTYPE svg PUBLIC "-//W3C//DTD SVG 1.1//EN"
  "http://www.w3.org/Graphics/SVG/1.1/DTD/svg11.dtd">
<!-- Created with matplotlib (https://matplotlib.org/) -->
<svg height="288pt" version="1.1" viewBox="0 0 432 288" width="432pt" xmlns="http://www.w3.org/2000/svg" xmlns:xlink="http://www.w3.org/1999/xlink">
 <defs>
  <style type="text/css">
*{stroke-linecap:butt;stroke-linejoin:round;}
  </style>
 </defs>
 <g id="figure_1">
  <g id="patch_1">
   <path d="M 0 288 
L 432 288 
L 432 0 
L 0 0 
z
" style="fill:#ffffff;"/>
  </g>
  <g id="axes_1">
   <g id="patch_2">
    <path clip-path="url(#p07fcfb7b41)" d="M 194.775952 132.407945 
L 194.77569 143.279945 
L 193.68849 143.279919 
L 193.688752 132.407919 
z
" style="stroke:#000000;stroke-linejoin:miter;"/>
   </g>
   <g id="patch_3">
    <path clip-path="url(#p07fcfb7b41)" d="M 249.135952 132.409252 
L 249.13569 143.281252 
L 248.04849 143.281226 
L 248.048752 132.409226 
z
" style="stroke:#000000;stroke-linejoin:miter;"/>
   </g>
   <g id="patch_4">
    <path clip-path="url(#p07fcfb7b41)" d="M 212.352352 132.408368 
L 212.2036 131.856818 
L 211.75976 131.341337 
L 211.02812 130.895644 
L 210.020691 130.548889 
L 208.754017 130.323754 
L 207.248894 130.234962 
L 205.530038 130.28832 
L 203.625671 130.480336 
L 201.567065 130.798448 
L 199.38802 131.221845 
L 197.124318 131.72283 
L 194.81313 132.268632 
L 192.492404 132.823545 
L 190.20025 133.351272 
L 187.974303 133.817289 
L 185.851115 134.191113 
L 183.865549 134.448288 
L 182.050207 134.571991 
L 180.434899 134.554128 
L 179.046147 134.395866 
L 177.906755 134.107554 
L 177.03543 133.70805 
L 176.44648 133.223485 
L 176.149574 132.685553 
L 176.149588 132.129441 
L 176.446519 131.591524 
L 177.035493 131.106987 
L 177.906837 130.707525 
L 179.046243 130.419268 
L 180.435003 130.261072 
L 182.050312 130.243287 
L 183.865647 130.367077 
L 185.851201 130.624348 
L 187.974371 130.998274 
L 190.200295 131.464398 
L 192.492424 131.992235 
L 194.813123 132.54726 
L 197.124285 133.093173 
L 199.387963 133.594267 
L 201.566987 134.017769 
L 203.625579 134.335979 
L 205.529936 134.528087 
L 207.24879 134.581528 
L 208.753916 134.492809 
L 210.020602 134.267734 
L 211.028047 133.921028 
L 211.759709 133.47537 
L 212.203573 132.959911 
z
" style="fill:#0000ff;stroke:#000000;stroke-linejoin:miter;"/>
   </g>
   <g id="patch_5">
    <path clip-path="url(#p07fcfb7b41)" d="M 266.712352 132.409675 
L 266.5636 131.858125 
L 266.11976 131.342644 
L 265.38812 130.896951 
L 264.380691 130.550196 
L 263.114017 130.325061 
L 261.608894 130.236269 
L 259.890038 130.289628 
L 257.985671 130.481644 
L 255.927065 130.799755 
L 253.74802 131.223152 
L 251.484318 131.724137 
L 249.17313 132.269939 
L 246.852404 132.824853 
L 244.56025 133.352579 
L 242.334303 133.818597 
L 240.211115 134.19242 
L 238.225549 134.449596 
L 236.410207 134.573299 
L 234.794899 134.555435 
L 233.406147 134.397173 
L 232.266755 134.108861 
L 231.39543 133.709357 
L 230.80648 133.224792 
L 230.509574 132.68686 
L 230.509588 132.130748 
L 230.806519 131.592831 
L 231.395493 131.108294 
L 232.266837 130.708832 
L 233.406243 130.420575 
L 234.795003 130.262379 
L 236.410312 130.244594 
L 238.225647 130.368384 
L 240.211201 130.625655 
L 242.334371 130.999581 
L 244.560295 131.465705 
L 246.852424 131.993542 
L 249.173123 132.548567 
L 251.484285 133.09448 
L 253.747963 133.595574 
L 255.926987 134.019076 
L 257.985579 134.337287 
L 259.889936 134.529394 
L 261.60879 134.582835 
L 263.113916 134.494116 
L 264.380602 134.269041 
L 265.388047 133.922335 
L 266.119709 133.476677 
L 266.563573 132.961218 
z
" style="fill:#0000ff;stroke:#000000;stroke-linejoin:miter;"/>
   </g>
   <g id="patch_6">
    <path clip-path="url(#p07fcfb7b41)" d="M 254.028156 140.56337 
L 188.796156 140.561801 
L 188.796025 145.997801 
L 254.028025 145.99937 
z
" style="fill:#999999;stroke:#000000;stroke-linejoin:miter;"/>
   </g>
   <g id="text_1">
    <!-- t = 3.7 -->
    <defs>
     <path d="M 18.3125 70.21875 
L 18.3125 54.6875 
L 36.8125 54.6875 
L 36.8125 47.703125 
L 18.3125 47.703125 
L 18.3125 18.015625 
Q 18.3125 11.328125 20.140625 9.421875 
Q 21.96875 7.515625 27.59375 7.515625 
L 36.8125 7.515625 
L 36.8125 0 
L 27.59375 0 
Q 17.1875 0 13.234375 3.875 
Q 9.28125 7.765625 9.28125 18.015625 
L 9.28125 47.703125 
L 2.6875 47.703125 
L 2.6875 54.6875 
L 9.28125 54.6875 
L 9.28125 70.21875 
z
" id="DejaVuSans-116"/>
     <path id="DejaVuSans-32"/>
     <path d="M 10.59375 45.40625 
L 73.1875 45.40625 
L 73.1875 37.203125 
L 10.59375 37.203125 
z
M 10.59375 25.484375 
L 73.1875 25.484375 
L 73.1875 17.1875 
L 10.59375 17.1875 
z
" id="DejaVuSans-61"/>
     <path d="M 40.578125 39.3125 
Q 47.65625 37.796875 51.625 33 
Q 55.609375 28.21875 55.609375 21.1875 
Q 55.609375 10.40625 48.1875 4.484375 
Q 40.765625 -1.421875 27.09375 -1.421875 
Q 22.515625 -1.421875 17.65625 -0.515625 
Q 12.796875 0.390625 7.625 2.203125 
L 7.625 11.71875 
Q 11.71875 9.328125 16.59375 8.109375 
Q 21.484375 6.890625 26.8125 6.890625 
Q 36.078125 6.890625 40.9375 10.546875 
Q 45.796875 14.203125 45.796875 21.1875 
Q 45.796875 27.640625 41.28125 31.265625 
Q 36.765625 34.90625 28.71875 34.90625 
L 20.21875 34.90625 
L 20.21875 43.015625 
L 29.109375 43.015625 
Q 36.375 43.015625 40.234375 45.921875 
Q 44.09375 48.828125 44.09375 54.296875 
Q 44.09375 59.90625 40.109375 62.90625 
Q 36.140625 65.921875 28.71875 65.921875 
Q 24.65625 65.921875 20.015625 65.03125 
Q 15.375 64.15625 9.8125 62.3125 
L 9.8125 71.09375 
Q 15.4375 72.65625 20.34375 73.4375 
Q 25.25 74.21875 29.59375 74.21875 
Q 40.828125 74.21875 47.359375 69.109375 
Q 53.90625 64.015625 53.90625 55.328125 
Q 53.90625 49.265625 50.4375 45.09375 
Q 46.96875 40.921875 40.578125 39.3125 
z
" id="DejaVuSans-51"/>
     <path d="M 10.6875 12.40625 
L 21 12.40625 
L 21 0 
L 10.6875 0 
z
" id="DejaVuSans-46"/>
     <path d="M 8.203125 72.90625 
L 55.078125 72.90625 
L 55.078125 68.703125 
L 28.609375 0 
L 18.3125 0 
L 43.21875 64.59375 
L 8.203125 64.59375 
z
" id="DejaVuSans-55"/>
    </defs>
    <g transform="translate(200.664375 28.56)scale(0.12 -0.12)">
     <use xlink:href="#DejaVuSans-116"/>
     <use x="39.208984" xlink:href="#DejaVuSans-32"/>
     <use x="70.996094" xlink:href="#DejaVuSans-61"/>
     <use x="154.785156" xlink:href="#DejaVuSans-32"/>
     <use x="186.572266" xlink:href="#DejaVuSans-51"/>
     <use x="250.195312" xlink:href="#DejaVuSans-46"/>
     <use x="281.982422" xlink:href="#DejaVuSans-55"/>
    </g>
   </g>
  </g>
 </g>
 <defs>
  <clipPath id="p07fcfb7b41">
   <rect height="217.44" width="334.8" x="54" y="34.56"/>
  </clipPath>
 </defs>
</svg>
