<?xml version="1.0" encoding="utf-8" standalone="no"?>
<!DOCTYPE svg PUBLIC "-//W3C//DTD SVG 1.1//EN"
  "http://www.w3.org/Graphics/SVG/1.1/DTD/svg11.dtd">
<!-- Created with matplotlib (https://matplotlib.org/) -->
<svg height="288pt" version="1.1" viewBox="0 0 432 288" width="432pt" xmlns="http://www.w3.org/2000/svg" xmlns:xlink="http://www.w3.org/1999/xlink">
 <defs>
  <style type="text/css">
*{stroke-linecap:butt;stroke-linejoin:round;}
  </style>
 </defs>
 <g id="figure_1">
  <g id="patch_1">
   <path d="M 0 288 
L 432 288 
L 432 0 
L 0 0 
z
" style="fill:#ffffff;"/>
  </g>
  <g id="axes_1">
   <g id="patch_2">
    <path clip-path="url(#p60529bb8a3)" d="M 175.303153 149.071892 
L 177.987329 159.607336 
L 176.933784 159.875753 
L 174.249608 149.340309 
z
" style="stroke:#000000;stroke-linejoin:miter;"/>
   </g>
   <g id="patch_3">
    <path clip-path="url(#p60529bb8a3)" d="M 227.980374 135.651012 
L 230.66455 146.186456 
L 229.611005 146.454874 
L 226.926829 135.91943 
z
" style="stroke:#000000;stroke-linejoin:miter;"/>
   </g>
   <g id="patch_4">
    <path clip-path="url(#p60529bb8a3)" d="M 192.335454 144.732474 
L 192.055124 144.234729 
L 191.497748 143.844799 
L 190.678713 143.593556 
L 189.616859 143.506284 
L 188.333815 143.600877 
L 186.85337 143.886467 
L 185.200908 144.36258 
L 183.402916 145.018862 
L 181.486594 145.835419 
L 179.479559 146.78374 
L 177.409646 147.828149 
L 175.304781 148.927712 
L 173.192926 150.03846 
L 171.102043 151.115807 
L 169.060082 152.117009 
L 167.094934 153.0035 
L 165.234345 153.742973 
L 163.505754 154.311076 
L 161.936049 154.692605 
L 160.551219 154.882142 
L 159.375917 154.884087 
L 158.432928 154.712093 
L 157.742568 154.38795 
L 157.322033 153.939984 
L 157.184735 153.401087 
L 157.339655 152.806508 
L 157.790754 152.191549 
L 158.536487 151.58931 
L 159.569441 151.028645 
L 160.876141 150.532445 
L 162.437045 150.116371 
L 164.226739 149.7881 
L 166.214339 149.547148 
L 168.364098 149.38526 
L 170.636195 149.287344 
L 172.987685 149.232883 
L 175.373572 149.197715 
L 177.747968 149.156071 
L 180.065284 149.082721 
L 182.281408 148.955082 
L 184.354832 148.755149 
L 186.24766 148.4711 
L 187.926489 148.09848 
L 189.363108 147.640873 
L 190.535001 147.110008 
L 191.425647 146.525286 
L 192.024617 145.91277 
L 192.327465 145.303675 
z
" style="fill:#0000ff;stroke:#000000;stroke-linejoin:miter;"/>
   </g>
   <g id="patch_5">
    <path clip-path="url(#p60529bb8a3)" d="M 245.012675 131.311594 
L 244.732345 130.81385 
L 244.174969 130.423919 
L 243.355934 130.172676 
L 242.29408 130.085404 
L 241.011036 130.179997 
L 239.530591 130.465588 
L 237.878129 130.9417 
L 236.080137 131.597982 
L 234.163815 132.41454 
L 232.15678 133.36286 
L 230.086867 134.407269 
L 227.982002 135.506832 
L 225.870147 136.61758 
L 223.779264 137.694928 
L 221.737303 138.69613 
L 219.772155 139.58262 
L 217.911566 140.322093 
L 216.182975 140.890196 
L 214.61327 141.271725 
L 213.22844 141.461263 
L 212.053137 141.463207 
L 211.110148 141.291214 
L 210.419788 140.967071 
L 209.999254 140.519104 
L 209.861956 139.980207 
L 210.016875 139.385629 
L 210.467975 138.77067 
L 211.213708 138.168431 
L 212.246662 137.607765 
L 213.553362 137.111566 
L 215.114266 136.695492 
L 216.90396 136.367221 
L 218.89156 136.126268 
L 221.041319 135.96438 
L 223.313416 135.866465 
L 225.664905 135.812004 
L 228.050793 135.776836 
L 230.425189 135.735191 
L 232.742505 135.661841 
L 234.958629 135.534203 
L 237.032052 135.334269 
L 238.92488 135.05022 
L 240.60371 134.6776 
L 242.040329 134.219994 
L 243.212221 133.689128 
L 244.102868 133.104406 
L 244.701838 132.49189 
L 245.004686 131.882795 
z
" style="fill:#0000ff;stroke:#000000;stroke-linejoin:miter;"/>
   </g>
   <g id="patch_6">
    <path clip-path="url(#p60529bb8a3)" d="M 234.734455 142.344716 
L 171.52179 158.449771 
L 172.863878 163.717493 
L 236.076543 147.612438 
z
" style="fill:#999999;stroke:#000000;stroke-linejoin:miter;"/>
   </g>
   <g id="text_1">
    <!-- t = 1.0 -->
    <defs>
     <path d="M 18.3125 70.21875 
L 18.3125 54.6875 
L 36.8125 54.6875 
L 36.8125 47.703125 
L 18.3125 47.703125 
L 18.3125 18.015625 
Q 18.3125 11.328125 20.140625 9.421875 
Q 21.96875 7.515625 27.59375 7.515625 
L 36.8125 7.515625 
L 36.8125 0 
L 27.59375 0 
Q 17.1875 0 13.234375 3.875 
Q 9.28125 7.765625 9.28125 18.015625 
L 9.28125 47.703125 
L 2.6875 47.703125 
L 2.6875 54.6875 
L 9.28125 54.6875 
L 9.28125 70.21875 
z
" id="DejaVuSans-116"/>
     <path id="DejaVuSans-32"/>
     <path d="M 10.59375 45.40625 
L 73.1875 45.40625 
L 73.1875 37.203125 
L 10.59375 37.203125 
z
M 10.59375 25.484375 
L 73.1875 25.484375 
L 73.1875 17.1875 
L 10.59375 17.1875 
z
" id="DejaVuSans-61"/>
     <path d="M 12.40625 8.296875 
L 28.515625 8.296875 
L 28.515625 63.921875 
L 10.984375 60.40625 
L 10.984375 69.390625 
L 28.421875 72.90625 
L 38.28125 72.90625 
L 38.28125 8.296875 
L 54.390625 8.296875 
L 54.390625 0 
L 12.40625 0 
z
" id="DejaVuSans-49"/>
     <path d="M 10.6875 12.40625 
L 21 12.40625 
L 21 0 
L 10.6875 0 
z
" id="DejaVuSans-46"/>
     <path d="M 31.78125 66.40625 
Q 24.171875 66.40625 20.328125 58.90625 
Q 16.5 51.421875 16.5 36.375 
Q 16.5 21.390625 20.328125 13.890625 
Q 24.171875 6.390625 31.78125 6.390625 
Q 39.453125 6.390625 43.28125 13.890625 
Q 47.125 21.390625 47.125 36.375 
Q 47.125 51.421875 43.28125 58.90625 
Q 39.453125 66.40625 31.78125 66.40625 
z
M 31.78125 74.21875 
Q 44.046875 74.21875 50.515625 64.515625 
Q 56.984375 54.828125 56.984375 36.375 
Q 56.984375 17.96875 50.515625 8.265625 
Q 44.046875 -1.421875 31.78125 -1.421875 
Q 19.53125 -1.421875 13.0625 8.265625 
Q 6.59375 17.96875 6.59375 36.375 
Q 6.59375 54.828125 13.0625 64.515625 
Q 19.53125 74.21875 31.78125 74.21875 
z
" id="DejaVuSans-48"/>
    </defs>
    <g transform="translate(200.664375 28.56)scale(0.12 -0.12)">
     <use xlink:href="#DejaVuSans-116"/>
     <use x="39.208984" xlink:href="#DejaVuSans-32"/>
     <use x="70.996094" xlink:href="#DejaVuSans-61"/>
     <use x="154.785156" xlink:href="#DejaVuSans-32"/>
     <use x="186.572266" xlink:href="#DejaVuSans-49"/>
     <use x="250.195312" xlink:href="#DejaVuSans-46"/>
     <use x="281.982422" xlink:href="#DejaVuSans-48"/>
    </g>
   </g>
  </g>
 </g>
 <defs>
  <clipPath id="p60529bb8a3">
   <rect height="217.44" width="334.8" x="54" y="34.56"/>
  </clipPath>
 </defs>
</svg>
