<?xml version="1.0" encoding="utf-8" standalone="no"?>
<!DOCTYPE svg PUBLIC "-//W3C//DTD SVG 1.1//EN"
  "http://www.w3.org/Graphics/SVG/1.1/DTD/svg11.dtd">
<!-- Created with matplotlib (https://matplotlib.org/) -->
<svg height="288pt" version="1.1" viewBox="0 0 432 288" width="432pt" xmlns="http://www.w3.org/2000/svg" xmlns:xlink="http://www.w3.org/1999/xlink">
 <defs>
  <style type="text/css">
*{stroke-linecap:butt;stroke-linejoin:round;}
  </style>
 </defs>
 <g id="figure_1">
  <g id="patch_1">
   <path d="M 0 288 
L 432 288 
L 432 0 
L 0 0 
z
" style="fill:#ffffff;"/>
  </g>
  <g id="axes_1">
   <g id="patch_2">
    <path clip-path="url(#p2fa540a3a9)" d="M 231.370328 163.823789 
L 230.619041 174.6698 
L 229.53444 174.594671 
L 230.285727 163.74866 
z
" style="stroke:#000000;stroke-linejoin:miter;"/>
   </g>
   <g id="patch_3">
    <path clip-path="url(#p2fa540a3a9)" d="M 285.600382 167.580226 
L 284.849095 178.426237 
L 283.764494 178.351108 
L 284.515781 167.505097 
z
" style="stroke:#000000;stroke-linejoin:miter;"/>
   </g>
   <g id="patch_4">
    <path clip-path="url(#p2fa540a3a9)" d="M 248.904712 165.03837 
L 248.794416 164.477862 
L 248.387246 163.932953 
L 247.688141 163.437783 
L 246.707073 163.022265 
L 245.458976 162.710167 
L 243.963583 162.517615 
L 242.245146 162.452109 
L 240.332065 162.512114 
L 238.256401 162.687259 
L 236.053314 162.959119 
L 233.760412 163.302533 
L 231.417041 163.687376 
L 229.063527 164.080651 
L 226.740393 164.448777 
L 224.487571 164.759915 
L 222.343632 164.986178 
L 220.345043 165.105579 
L 218.525493 165.103584 
L 216.915278 164.97418 
L 215.540776 164.720362 
L 214.424021 164.354031 
L 213.582375 163.895291 
L 213.028305 163.371199 
L 212.769269 162.814043 
L 212.807698 162.25926 
L 213.141079 161.743139 
L 213.762117 161.300446 
L 214.658973 160.96213 
L 215.81557 160.75327 
L 217.21194 160.691386 
L 218.824619 160.785227 
L 220.627067 161.034123 
L 222.590106 161.42794 
L 224.682374 161.947639 
L 226.870781 162.566414 
L 229.120973 163.251328 
L 231.397787 163.965339 
L 233.665717 164.6696 
L 235.889372 165.32587 
L 238.033936 165.898885 
L 240.065628 166.35854 
L 241.952166 166.68174 
L 243.663222 166.85379 
L 245.170882 166.869255 
L 246.450089 166.73222 
L 247.479078 166.455935 
L 248.239778 166.061884 
L 248.718189 165.578318 
z
" style="fill:#0000ff;stroke:#000000;stroke-linejoin:miter;"/>
   </g>
   <g id="patch_5">
    <path clip-path="url(#p2fa540a3a9)" d="M 303.134767 168.794807 
L 303.024471 168.234299 
L 302.6173 167.68939 
L 301.918195 167.19422 
L 300.937127 166.778702 
L 299.68903 166.466604 
L 298.193637 166.274052 
L 296.475201 166.208546 
L 294.562119 166.268551 
L 292.486455 166.443696 
L 290.283368 166.715556 
L 287.990466 167.05897 
L 285.647095 167.443813 
L 283.293581 167.837088 
L 280.970447 168.205214 
L 278.717625 168.516352 
L 276.573686 168.742615 
L 274.575097 168.862016 
L 272.755547 168.860021 
L 271.145332 168.730617 
L 269.77083 168.476799 
L 268.654076 168.110468 
L 267.81243 167.651728 
L 267.25836 167.127636 
L 266.999323 166.57048 
L 267.037752 166.015697 
L 267.371133 165.499576 
L 267.992171 165.056883 
L 268.889028 164.718567 
L 270.045625 164.509707 
L 271.441995 164.447823 
L 273.054674 164.541664 
L 274.857121 164.79056 
L 276.82016 165.184377 
L 278.912428 165.704076 
L 281.100835 166.322851 
L 283.351027 167.007765 
L 285.627841 167.721776 
L 287.895771 168.426037 
L 290.119427 169.082307 
L 292.26399 169.655322 
L 294.295683 170.114978 
L 296.18222 170.438177 
L 297.893276 170.610227 
L 299.400936 170.625692 
L 300.680144 170.488657 
L 301.709132 170.212372 
L 302.469832 169.818321 
L 302.948244 169.334755 
z
" style="fill:#0000ff;stroke:#000000;stroke-linejoin:miter;"/>
   </g>
   <g id="patch_6">
    <path clip-path="url(#p2fa540a3a9)" d="M 289.917622 176.052813 
L 224.841557 171.545089 
L 224.465913 176.968094 
L 289.541978 181.475819 
z
" style="fill:#999999;stroke:#000000;stroke-linejoin:miter;"/>
   </g>
   <g id="text_1">
    <!-- t = 0.6 -->
    <defs>
     <path d="M 18.3125 70.21875 
L 18.3125 54.6875 
L 36.8125 54.6875 
L 36.8125 47.703125 
L 18.3125 47.703125 
L 18.3125 18.015625 
Q 18.3125 11.328125 20.140625 9.421875 
Q 21.96875 7.515625 27.59375 7.515625 
L 36.8125 7.515625 
L 36.8125 0 
L 27.59375 0 
Q 17.1875 0 13.234375 3.875 
Q 9.28125 7.765625 9.28125 18.015625 
L 9.28125 47.703125 
L 2.6875 47.703125 
L 2.6875 54.6875 
L 9.28125 54.6875 
L 9.28125 70.21875 
z
" id="DejaVuSans-116"/>
     <path id="DejaVuSans-32"/>
     <path d="M 10.59375 45.40625 
L 73.1875 45.40625 
L 73.1875 37.203125 
L 10.59375 37.203125 
z
M 10.59375 25.484375 
L 73.1875 25.484375 
L 73.1875 17.1875 
L 10.59375 17.1875 
z
" id="DejaVuSans-61"/>
     <path d="M 31.78125 66.40625 
Q 24.171875 66.40625 20.328125 58.90625 
Q 16.5 51.421875 16.5 36.375 
Q 16.5 21.390625 20.328125 13.890625 
Q 24.171875 6.390625 31.78125 6.390625 
Q 39.453125 6.390625 43.28125 13.890625 
Q 47.125 21.390625 47.125 36.375 
Q 47.125 51.421875 43.28125 58.90625 
Q 39.453125 66.40625 31.78125 66.40625 
z
M 31.78125 74.21875 
Q 44.046875 74.21875 50.515625 64.515625 
Q 56.984375 54.828125 56.984375 36.375 
Q 56.984375 17.96875 50.515625 8.265625 
Q 44.046875 -1.421875 31.78125 -1.421875 
Q 19.53125 -1.421875 13.0625 8.265625 
Q 6.59375 17.96875 6.59375 36.375 
Q 6.59375 54.828125 13.0625 64.515625 
Q 19.53125 74.21875 31.78125 74.21875 
z
" id="DejaVuSans-48"/>
     <path d="M 10.6875 12.40625 
L 21 12.40625 
L 21 0 
L 10.6875 0 
z
" id="DejaVuSans-46"/>
     <path d="M 33.015625 40.375 
Q 26.375 40.375 22.484375 35.828125 
Q 18.609375 31.296875 18.609375 23.390625 
Q 18.609375 15.53125 22.484375 10.953125 
Q 26.375 6.390625 33.015625 6.390625 
Q 39.65625 6.390625 43.53125 10.953125 
Q 47.40625 15.53125 47.40625 23.390625 
Q 47.40625 31.296875 43.53125 35.828125 
Q 39.65625 40.375 33.015625 40.375 
z
M 52.59375 71.296875 
L 52.59375 62.3125 
Q 48.875 64.0625 45.09375 64.984375 
Q 41.3125 65.921875 37.59375 65.921875 
Q 27.828125 65.921875 22.671875 59.328125 
Q 17.53125 52.734375 16.796875 39.40625 
Q 19.671875 43.65625 24.015625 45.921875 
Q 28.375 48.1875 33.59375 48.1875 
Q 44.578125 48.1875 50.953125 41.515625 
Q 57.328125 34.859375 57.328125 23.390625 
Q 57.328125 12.15625 50.6875 5.359375 
Q 44.046875 -1.421875 33.015625 -1.421875 
Q 20.359375 -1.421875 13.671875 8.265625 
Q 6.984375 17.96875 6.984375 36.375 
Q 6.984375 53.65625 15.1875 63.9375 
Q 23.390625 74.21875 37.203125 74.21875 
Q 40.921875 74.21875 44.703125 73.484375 
Q 48.484375 72.75 52.59375 71.296875 
z
" id="DejaVuSans-54"/>
    </defs>
    <g transform="translate(200.664375 28.56)scale(0.12 -0.12)">
     <use xlink:href="#DejaVuSans-116"/>
     <use x="39.208984" xlink:href="#DejaVuSans-32"/>
     <use x="70.996094" xlink:href="#DejaVuSans-61"/>
     <use x="154.785156" xlink:href="#DejaVuSans-32"/>
     <use x="186.572266" xlink:href="#DejaVuSans-48"/>
     <use x="250.195312" xlink:href="#DejaVuSans-46"/>
     <use x="281.982422" xlink:href="#DejaVuSans-54"/>
    </g>
   </g>
  </g>
 </g>
 <defs>
  <clipPath id="p2fa540a3a9">
   <rect height="217.44" width="334.8" x="54" y="34.56"/>
  </clipPath>
 </defs>
</svg>
