<?xml version="1.0" encoding="utf-8" standalone="no"?>
<!DOCTYPE svg PUBLIC "-//W3C//DTD SVG 1.1//EN"
  "http://www.w3.org/Graphics/SVG/1.1/DTD/svg11.dtd">
<!-- Created with matplotlib (https://matplotlib.org/) -->
<svg height="288pt" version="1.1" viewBox="0 0 432 288" width="432pt" xmlns="http://www.w3.org/2000/svg" xmlns:xlink="http://www.w3.org/1999/xlink">
 <defs>
  <style type="text/css">
*{stroke-linecap:butt;stroke-linejoin:round;}
  </style>
 </defs>
 <g id="figure_1">
  <g id="patch_1">
   <path d="M 0 288 
L 432 288 
L 432 0 
L 0 0 
z
" style="fill:#ffffff;"/>
  </g>
  <g id="axes_1">
   <g id="patch_2">
    <path clip-path="url(#pad683f9f03)" d="M 194.813778 132.385748 
L 194.796956 143.257735 
L 193.709758 143.256053 
L 193.726579 132.384066 
z
" style="stroke:#000000;stroke-linejoin:miter;"/>
   </g>
   <g id="patch_3">
    <path clip-path="url(#pad683f9f03)" d="M 249.173713 132.469858 
L 249.156891 143.341845 
L 248.069692 143.340162 
L 248.086514 132.468175 
z
" style="stroke:#000000;stroke-linejoin:miter;"/>
   </g>
   <g id="patch_4">
    <path clip-path="url(#pad683f9f03)" d="M 212.390157 132.412943 
L 212.242246 131.861167 
L 211.799192 131.345012 
L 211.068231 130.898204 
L 210.061332 130.549915 
L 208.795002 130.322851 
L 207.290016 130.231767 
L 205.571081 130.282507 
L 203.666424 130.471622 
L 201.607335 130.786597 
L 199.427648 131.206674 
L 197.163186 131.704211 
L 194.851168 132.246491 
L 192.529601 132.79787 
L 190.236645 133.322104 
L 188.009991 133.78473 
L 185.886236 134.155319 
L 183.90028 134.40947 
L 182.084752 134.530408 
L 180.469473 134.510084 
L 179.080964 134.349706 
L 177.942012 134.059659 
L 177.071297 133.658829 
L 176.483086 133.173367 
L 176.187 132.634984 
L 176.18786 132.078872 
L 176.485611 131.541408 
L 177.075322 131.057769 
L 177.947273 130.659635 
L 179.087117 130.373113 
L 180.476116 130.217033 
L 182.09145 130.201708 
L 183.906595 130.328263 
L 185.891754 130.588559 
L 188.014352 130.965718 
L 190.239564 131.435233 
L 192.530887 131.96656 
L 194.850737 132.52512 
L 197.161065 133.074552 
L 199.423977 133.579094 
L 201.602354 134.005914 
L 203.660458 134.32726 
L 205.56452 134.522268 
L 207.283291 134.578327 
L 208.788551 134.491901 
L 210.055578 134.268756 
L 211.06355 133.923585 
L 211.79589 133.479041 
L 212.240539 132.964259 
z
" style="fill:#0000ff;stroke:#000000;stroke-linejoin:miter;"/>
   </g>
   <g id="patch_5">
    <path clip-path="url(#pad683f9f03)" d="M 266.750092 132.497053 
L 266.602181 131.945277 
L 266.159127 131.429121 
L 265.428166 130.982314 
L 264.421267 130.634025 
L 263.154937 130.40696 
L 261.649951 130.315876 
L 259.931015 130.366616 
L 258.026359 130.555731 
L 255.96727 130.870707 
L 253.787583 131.290784 
L 251.523121 131.788321 
L 249.211103 132.330601 
L 246.889535 132.881979 
L 244.59658 133.406213 
L 242.369926 133.86884 
L 240.246171 134.239429 
L 238.260215 134.49358 
L 236.444687 134.614517 
L 234.829408 134.594194 
L 233.440899 134.433816 
L 232.301947 134.143769 
L 231.431232 133.742938 
L 230.843021 133.257477 
L 230.546935 132.719093 
L 230.547795 132.162982 
L 230.845546 131.625517 
L 231.435256 131.141878 
L 232.307208 130.743744 
L 233.447052 130.457223 
L 234.836051 130.301143 
L 236.451385 130.285818 
L 238.26653 130.412373 
L 240.251689 130.672668 
L 242.374287 131.049828 
L 244.599499 131.519342 
L 246.890822 132.05067 
L 249.210672 132.609229 
L 251.521 133.158662 
L 253.783912 133.663203 
L 255.962289 134.090024 
L 258.020393 134.41137 
L 259.924455 134.606378 
L 261.643226 134.662437 
L 263.148486 134.57601 
L 264.415513 134.352865 
L 265.423485 134.007694 
L 266.155825 133.563151 
L 266.600474 133.048369 
z
" style="fill:#0000ff;stroke:#000000;stroke-linejoin:miter;"/>
   </g>
   <g id="patch_6">
    <path clip-path="url(#pad683f9f03)" d="M 254.053491 140.631418 
L 188.821569 140.530486 
L 188.813158 145.96648 
L 254.04508 146.067411 
z
" style="fill:#999999;stroke:#000000;stroke-linejoin:miter;"/>
   </g>
   <g id="text_1">
    <!-- t = 2.8 -->
    <defs>
     <path d="M 18.3125 70.21875 
L 18.3125 54.6875 
L 36.8125 54.6875 
L 36.8125 47.703125 
L 18.3125 47.703125 
L 18.3125 18.015625 
Q 18.3125 11.328125 20.140625 9.421875 
Q 21.96875 7.515625 27.59375 7.515625 
L 36.8125 7.515625 
L 36.8125 0 
L 27.59375 0 
Q 17.1875 0 13.234375 3.875 
Q 9.28125 7.765625 9.28125 18.015625 
L 9.28125 47.703125 
L 2.6875 47.703125 
L 2.6875 54.6875 
L 9.28125 54.6875 
L 9.28125 70.21875 
z
" id="DejaVuSans-116"/>
     <path id="DejaVuSans-32"/>
     <path d="M 10.59375 45.40625 
L 73.1875 45.40625 
L 73.1875 37.203125 
L 10.59375 37.203125 
z
M 10.59375 25.484375 
L 73.1875 25.484375 
L 73.1875 17.1875 
L 10.59375 17.1875 
z
" id="DejaVuSans-61"/>
     <path d="M 19.1875 8.296875 
L 53.609375 8.296875 
L 53.609375 0 
L 7.328125 0 
L 7.328125 8.296875 
Q 12.9375 14.109375 22.625 23.890625 
Q 32.328125 33.6875 34.8125 36.53125 
Q 39.546875 41.84375 41.421875 45.53125 
Q 43.3125 49.21875 43.3125 52.78125 
Q 43.3125 58.59375 39.234375 62.25 
Q 35.15625 65.921875 28.609375 65.921875 
Q 23.96875 65.921875 18.8125 64.3125 
Q 13.671875 62.703125 7.8125 59.421875 
L 7.8125 69.390625 
Q 13.765625 71.78125 18.9375 73 
Q 24.125 74.21875 28.421875 74.21875 
Q 39.75 74.21875 46.484375 68.546875 
Q 53.21875 62.890625 53.21875 53.421875 
Q 53.21875 48.921875 51.53125 44.890625 
Q 49.859375 40.875 45.40625 35.40625 
Q 44.1875 33.984375 37.640625 27.21875 
Q 31.109375 20.453125 19.1875 8.296875 
z
" id="DejaVuSans-50"/>
     <path d="M 10.6875 12.40625 
L 21 12.40625 
L 21 0 
L 10.6875 0 
z
" id="DejaVuSans-46"/>
     <path d="M 31.78125 34.625 
Q 24.75 34.625 20.71875 30.859375 
Q 16.703125 27.09375 16.703125 20.515625 
Q 16.703125 13.921875 20.71875 10.15625 
Q 24.75 6.390625 31.78125 6.390625 
Q 38.8125 6.390625 42.859375 10.171875 
Q 46.921875 13.96875 46.921875 20.515625 
Q 46.921875 27.09375 42.890625 30.859375 
Q 38.875 34.625 31.78125 34.625 
z
M 21.921875 38.8125 
Q 15.578125 40.375 12.03125 44.71875 
Q 8.5 49.078125 8.5 55.328125 
Q 8.5 64.0625 14.71875 69.140625 
Q 20.953125 74.21875 31.78125 74.21875 
Q 42.671875 74.21875 48.875 69.140625 
Q 55.078125 64.0625 55.078125 55.328125 
Q 55.078125 49.078125 51.53125 44.71875 
Q 48 40.375 41.703125 38.8125 
Q 48.828125 37.15625 52.796875 32.3125 
Q 56.78125 27.484375 56.78125 20.515625 
Q 56.78125 9.90625 50.3125 4.234375 
Q 43.84375 -1.421875 31.78125 -1.421875 
Q 19.734375 -1.421875 13.25 4.234375 
Q 6.78125 9.90625 6.78125 20.515625 
Q 6.78125 27.484375 10.78125 32.3125 
Q 14.796875 37.15625 21.921875 38.8125 
z
M 18.3125 54.390625 
Q 18.3125 48.734375 21.84375 45.5625 
Q 25.390625 42.390625 31.78125 42.390625 
Q 38.140625 42.390625 41.71875 45.5625 
Q 45.3125 48.734375 45.3125 54.390625 
Q 45.3125 60.0625 41.71875 63.234375 
Q 38.140625 66.40625 31.78125 66.40625 
Q 25.390625 66.40625 21.84375 63.234375 
Q 18.3125 60.0625 18.3125 54.390625 
z
" id="DejaVuSans-56"/>
    </defs>
    <g transform="translate(200.664375 28.56)scale(0.12 -0.12)">
     <use xlink:href="#DejaVuSans-116"/>
     <use x="39.208984" xlink:href="#DejaVuSans-32"/>
     <use x="70.996094" xlink:href="#DejaVuSans-61"/>
     <use x="154.785156" xlink:href="#DejaVuSans-32"/>
     <use x="186.572266" xlink:href="#DejaVuSans-50"/>
     <use x="250.195312" xlink:href="#DejaVuSans-46"/>
     <use x="281.982422" xlink:href="#DejaVuSans-56"/>
    </g>
   </g>
  </g>
 </g>
 <defs>
  <clipPath id="pad683f9f03">
   <rect height="217.44" width="334.8" x="54" y="34.56"/>
  </clipPath>
 </defs>
</svg>
