<?xml version="1.0" encoding="utf-8" standalone="no"?>
<!DOCTYPE svg PUBLIC "-//W3C//DTD SVG 1.1//EN"
  "http://www.w3.org/Graphics/SVG/1.1/DTD/svg11.dtd">
<!-- Created with matplotlib (https://matplotlib.org/) -->
<svg height="288pt" version="1.1" viewBox="0 0 432 288" width="432pt" xmlns="http://www.w3.org/2000/svg" xmlns:xlink="http://www.w3.org/1999/xlink">
 <defs>
  <style type="text/css">
*{stroke-linecap:butt;stroke-linejoin:round;}
  </style>
 </defs>
 <g id="figure_1">
  <g id="patch_1">
   <path d="M 0 288 
L 432 288 
L 432 0 
L 0 0 
z
" style="fill:#ffffff;"/>
  </g>
  <g id="axes_1">
   <g id="patch_2">
    <path clip-path="url(#p82702d59aa)" d="M 194.847649 130.001954 
L 194.656938 140.872281 
L 193.569906 140.85321 
L 193.760616 129.982883 
z
" style="stroke:#000000;stroke-linejoin:miter;"/>
   </g>
   <g id="patch_3">
    <path clip-path="url(#p82702d59aa)" d="M 249.199285 130.955506 
L 249.008574 141.825833 
L 247.921542 141.806762 
L 248.112252 130.936435 
z
" style="stroke:#000000;stroke-linejoin:miter;"/>
   </g>
   <g id="patch_4">
    <path clip-path="url(#p82702d59aa)" d="M 212.421344 130.310269 
L 212.282277 129.756198 
L 211.847535 129.233021 
L 211.123815 128.77458 
L 210.122615 128.410231 
L 208.860078 128.162941 
L 207.356742 128.047798 
L 205.637215 128.071038 
L 203.729777 128.229665 
L 201.665914 128.511666 
L 199.479787 128.896827 
L 197.207656 129.358081 
L 194.887261 129.863313 
L 192.557172 130.377489 
L 190.256124 130.864981 
L 188.022356 131.291935 
L 185.892945 131.628508 
L 183.903178 131.850862 
L 182.085949 131.942746 
L 180.471201 131.89659 
L 179.085435 131.714024 
L 177.951268 131.405798 
L 177.087075 130.991092 
L 176.506704 130.496284 
L 176.219267 129.953234 
L 176.229022 129.397207 
L 176.53533 128.864574 
L 177.132701 128.390429 
L 178.010909 128.006292 
L 179.15519 127.738039 
L 180.546508 127.604194 
L 182.16188 127.614708 
L 183.974769 127.770279 
L 185.955511 128.062292 
L 188.071805 128.473353 
L 190.289223 128.978398 
L 192.571754 129.546306 
L 194.882374 130.141899 
L 197.183619 130.728213 
L 199.438171 131.268884 
L 201.609442 131.730492 
L 203.662144 132.084715 
L 205.562843 132.310152 
L 207.280497 132.393695 
L 208.786947 132.331355 
L 210.057381 132.128504 
L 211.070745 131.799499 
L 211.810101 131.366726 
L 212.262927 130.859121 
z
" style="fill:#0000ff;stroke:#000000;stroke-linejoin:miter;"/>
   </g>
   <g id="patch_5">
    <path clip-path="url(#p82702d59aa)" d="M 266.77298 131.263821 
L 266.633913 130.70975 
L 266.199171 130.186573 
L 265.475451 129.728132 
L 264.474251 129.363783 
L 263.211714 129.116493 
L 261.708378 129.00135 
L 259.988851 129.02459 
L 258.081413 129.183217 
L 256.01755 129.465218 
L 253.831423 129.850379 
L 251.559292 130.311633 
L 249.238897 130.816865 
L 246.908808 131.331041 
L 244.60776 131.818533 
L 242.373992 132.245487 
L 240.244581 132.58206 
L 238.254814 132.804414 
L 236.437585 132.896298 
L 234.822837 132.850142 
L 233.437071 132.667576 
L 232.302904 132.359349 
L 231.438711 131.944644 
L 230.85834 131.449836 
L 230.570903 130.906786 
L 230.580658 130.350759 
L 230.886966 129.818126 
L 231.484337 129.343981 
L 232.362545 128.959844 
L 233.506826 128.69159 
L 234.898144 128.557746 
L 236.513516 128.56826 
L 238.326405 128.723831 
L 240.307147 129.015844 
L 242.423441 129.426905 
L 244.640859 129.93195 
L 246.92339 130.499858 
L 249.23401 131.095451 
L 251.535255 131.681765 
L 253.789807 132.222436 
L 255.961078 132.684044 
L 258.01378 133.038267 
L 259.91448 133.263704 
L 261.632133 133.347246 
L 263.138583 133.284907 
L 264.409017 133.082056 
L 265.422381 132.753051 
L 266.161737 132.320278 
L 266.614563 131.812673 
z
" style="fill:#0000ff;stroke:#000000;stroke-linejoin:miter;"/>
   </g>
   <g id="patch_6">
    <path clip-path="url(#p82702d59aa)" d="M 253.947899 139.194071 
L 188.725936 138.049808 
L 188.630581 143.484972 
L 253.852544 144.629234 
z
" style="fill:#999999;stroke:#000000;stroke-linejoin:miter;"/>
   </g>
   <g id="text_1">
    <!-- t = 1.2 -->
    <defs>
     <path d="M 18.3125 70.21875 
L 18.3125 54.6875 
L 36.8125 54.6875 
L 36.8125 47.703125 
L 18.3125 47.703125 
L 18.3125 18.015625 
Q 18.3125 11.328125 20.140625 9.421875 
Q 21.96875 7.515625 27.59375 7.515625 
L 36.8125 7.515625 
L 36.8125 0 
L 27.59375 0 
Q 17.1875 0 13.234375 3.875 
Q 9.28125 7.765625 9.28125 18.015625 
L 9.28125 47.703125 
L 2.6875 47.703125 
L 2.6875 54.6875 
L 9.28125 54.6875 
L 9.28125 70.21875 
z
" id="DejaVuSans-116"/>
     <path id="DejaVuSans-32"/>
     <path d="M 10.59375 45.40625 
L 73.1875 45.40625 
L 73.1875 37.203125 
L 10.59375 37.203125 
z
M 10.59375 25.484375 
L 73.1875 25.484375 
L 73.1875 17.1875 
L 10.59375 17.1875 
z
" id="DejaVuSans-61"/>
     <path d="M 12.40625 8.296875 
L 28.515625 8.296875 
L 28.515625 63.921875 
L 10.984375 60.40625 
L 10.984375 69.390625 
L 28.421875 72.90625 
L 38.28125 72.90625 
L 38.28125 8.296875 
L 54.390625 8.296875 
L 54.390625 0 
L 12.40625 0 
z
" id="DejaVuSans-49"/>
     <path d="M 10.6875 12.40625 
L 21 12.40625 
L 21 0 
L 10.6875 0 
z
" id="DejaVuSans-46"/>
     <path d="M 19.1875 8.296875 
L 53.609375 8.296875 
L 53.609375 0 
L 7.328125 0 
L 7.328125 8.296875 
Q 12.9375 14.109375 22.625 23.890625 
Q 32.328125 33.6875 34.8125 36.53125 
Q 39.546875 41.84375 41.421875 45.53125 
Q 43.3125 49.21875 43.3125 52.78125 
Q 43.3125 58.59375 39.234375 62.25 
Q 35.15625 65.921875 28.609375 65.921875 
Q 23.96875 65.921875 18.8125 64.3125 
Q 13.671875 62.703125 7.8125 59.421875 
L 7.8125 69.390625 
Q 13.765625 71.78125 18.9375 73 
Q 24.125 74.21875 28.421875 74.21875 
Q 39.75 74.21875 46.484375 68.546875 
Q 53.21875 62.890625 53.21875 53.421875 
Q 53.21875 48.921875 51.53125 44.890625 
Q 49.859375 40.875 45.40625 35.40625 
Q 44.1875 33.984375 37.640625 27.21875 
Q 31.109375 20.453125 19.1875 8.296875 
z
" id="DejaVuSans-50"/>
    </defs>
    <g transform="translate(200.664375 28.56)scale(0.12 -0.12)">
     <use xlink:href="#DejaVuSans-116"/>
     <use x="39.208984" xlink:href="#DejaVuSans-32"/>
     <use x="70.996094" xlink:href="#DejaVuSans-61"/>
     <use x="154.785156" xlink:href="#DejaVuSans-32"/>
     <use x="186.572266" xlink:href="#DejaVuSans-49"/>
     <use x="250.195312" xlink:href="#DejaVuSans-46"/>
     <use x="281.982422" xlink:href="#DejaVuSans-50"/>
    </g>
   </g>
  </g>
 </g>
 <defs>
  <clipPath id="p82702d59aa">
   <rect height="217.44" width="334.8" x="54" y="34.56"/>
  </clipPath>
 </defs>
</svg>
