<?xml version="1.0" encoding="utf-8" standalone="no"?>
<!DOCTYPE svg PUBLIC "-//W3C//DTD SVG 1.1//EN"
  "http://www.w3.org/Graphics/SVG/1.1/DTD/svg11.dtd">
<!-- Created with matplotlib (https://matplotlib.org/) -->
<svg height="288pt" version="1.1" viewBox="0 0 432 288" width="432pt" xmlns="http://www.w3.org/2000/svg" xmlns:xlink="http://www.w3.org/1999/xlink">
 <defs>
  <style type="text/css">
*{stroke-linecap:butt;stroke-linejoin:round;}
  </style>
 </defs>
 <g id="figure_1">
  <g id="patch_1">
   <path d="M 0 288 
L 432 288 
L 432 0 
L 0 0 
z
" style="fill:#ffffff;"/>
  </g>
  <g id="axes_1">
   <g id="patch_2">
    <path clip-path="url(#p1345dc41a0)" d="M 194.758668 132.409897 
L 194.759553 143.281897 
L 193.672353 143.281985 
L 193.671468 132.409985 
z
" style="stroke:#000000;stroke-linejoin:miter;"/>
   </g>
   <g id="patch_3">
    <path clip-path="url(#p1345dc41a0)" d="M 249.118668 132.405473 
L 249.119553 143.277472 
L 248.032353 143.277561 
L 248.031468 132.405561 
z
" style="stroke:#000000;stroke-linejoin:miter;"/>
   </g>
   <g id="patch_4">
    <path clip-path="url(#p1345dc41a0)" d="M 212.335068 132.408466 
L 212.186258 131.856932 
L 211.742364 131.341498 
L 211.010677 130.895882 
L 210.003212 130.549234 
L 208.736513 130.324232 
L 207.231382 130.235599 
L 205.512531 130.289138 
L 203.608185 130.481355 
L 201.549612 130.799684 
L 199.370612 131.223311 
L 197.106963 131.724535 
L 194.795832 132.27058 
L 192.475165 132.825738 
L 190.183066 133.353706 
L 187.957168 133.819958 
L 185.83402 134.194006 
L 183.848481 134.451391 
L 182.033152 134.575285 
L 180.417842 134.557592 
L 179.029074 134.399476 
L 177.889651 134.111284 
L 177.018284 133.711872 
L 176.429283 133.227369 
L 176.132321 132.689469 
L 176.132275 132.133357 
L 176.42915 131.595408 
L 177.018072 131.110809 
L 177.889374 130.711256 
L 179.02875 130.422878 
L 180.417493 130.264536 
L 182.0328 130.24658 
L 183.848148 130.370179 
L 185.833729 130.627241 
L 187.956939 131.000943 
L 190.182912 131.466833 
L 192.475097 131.994428 
L 194.795854 132.549208 
L 197.107074 133.094877 
L 199.370805 133.595733 
L 201.549874 134.019005 
L 203.608499 134.336998 
L 205.512876 134.528905 
L 207.231735 134.582165 
L 208.736853 134.493287 
L 210.003515 134.268079 
L 211.010923 133.921266 
L 211.742538 133.475531 
L 212.186348 132.960025 
z
" style="fill:#0000ff;stroke:#000000;stroke-linejoin:miter;"/>
   </g>
   <g id="patch_5">
    <path clip-path="url(#p1345dc41a0)" d="M 266.695068 132.404042 
L 266.546258 131.852508 
L 266.102364 131.337074 
L 265.370677 130.891458 
L 264.363212 130.544809 
L 263.096513 130.319807 
L 261.591381 130.231174 
L 259.872531 130.284714 
L 257.968185 130.476931 
L 255.909611 130.795259 
L 253.730611 131.218886 
L 251.466963 131.72011 
L 249.155831 132.266155 
L 246.835165 132.821314 
L 244.543066 133.349282 
L 242.317168 133.815534 
L 240.19402 134.189581 
L 238.20848 134.446966 
L 236.393152 134.570861 
L 234.777842 134.553168 
L 233.389074 134.395052 
L 232.249651 134.10686 
L 231.378284 133.707448 
L 230.789283 133.222945 
L 230.49232 132.685045 
L 230.492275 132.128932 
L 230.78915 131.590984 
L 231.378072 131.106385 
L 232.249374 130.706831 
L 233.38875 130.418454 
L 234.777493 130.260112 
L 236.3928 130.242156 
L 238.208148 130.365755 
L 240.193729 130.622816 
L 242.316939 130.996518 
L 244.542912 131.462408 
L 246.835097 131.990003 
L 249.155854 132.544784 
L 251.467074 133.090453 
L 253.730805 133.591308 
L 255.909873 134.01458 
L 257.968498 134.332574 
L 259.872876 134.52448 
L 261.591735 134.57774 
L 263.096853 134.488862 
L 264.363514 134.263654 
L 265.370923 133.916842 
L 266.102538 133.471106 
L 266.546348 132.955601 
z
" style="fill:#0000ff;stroke:#000000;stroke-linejoin:miter;"/>
   </g>
   <g id="patch_6">
    <path clip-path="url(#p1345dc41a0)" d="M 254.011732 140.559074 
L 188.779732 140.564384 
L 188.780175 146.000384 
L 254.012174 145.995074 
z
" style="fill:#999999;stroke:#000000;stroke-linejoin:miter;"/>
   </g>
   <g id="text_1">
    <!-- t = 3.5 -->
    <defs>
     <path d="M 18.3125 70.21875 
L 18.3125 54.6875 
L 36.8125 54.6875 
L 36.8125 47.703125 
L 18.3125 47.703125 
L 18.3125 18.015625 
Q 18.3125 11.328125 20.140625 9.421875 
Q 21.96875 7.515625 27.59375 7.515625 
L 36.8125 7.515625 
L 36.8125 0 
L 27.59375 0 
Q 17.1875 0 13.234375 3.875 
Q 9.28125 7.765625 9.28125 18.015625 
L 9.28125 47.703125 
L 2.6875 47.703125 
L 2.6875 54.6875 
L 9.28125 54.6875 
L 9.28125 70.21875 
z
" id="DejaVuSans-116"/>
     <path id="DejaVuSans-32"/>
     <path d="M 10.59375 45.40625 
L 73.1875 45.40625 
L 73.1875 37.203125 
L 10.59375 37.203125 
z
M 10.59375 25.484375 
L 73.1875 25.484375 
L 73.1875 17.1875 
L 10.59375 17.1875 
z
" id="DejaVuSans-61"/>
     <path d="M 40.578125 39.3125 
Q 47.65625 37.796875 51.625 33 
Q 55.609375 28.21875 55.609375 21.1875 
Q 55.609375 10.40625 48.1875 4.484375 
Q 40.765625 -1.421875 27.09375 -1.421875 
Q 22.515625 -1.421875 17.65625 -0.515625 
Q 12.796875 0.390625 7.625 2.203125 
L 7.625 11.71875 
Q 11.71875 9.328125 16.59375 8.109375 
Q 21.484375 6.890625 26.8125 6.890625 
Q 36.078125 6.890625 40.9375 10.546875 
Q 45.796875 14.203125 45.796875 21.1875 
Q 45.796875 27.640625 41.28125 31.265625 
Q 36.765625 34.90625 28.71875 34.90625 
L 20.21875 34.90625 
L 20.21875 43.015625 
L 29.109375 43.015625 
Q 36.375 43.015625 40.234375 45.921875 
Q 44.09375 48.828125 44.09375 54.296875 
Q 44.09375 59.90625 40.109375 62.90625 
Q 36.140625 65.921875 28.71875 65.921875 
Q 24.65625 65.921875 20.015625 65.03125 
Q 15.375 64.15625 9.8125 62.3125 
L 9.8125 71.09375 
Q 15.4375 72.65625 20.34375 73.4375 
Q 25.25 74.21875 29.59375 74.21875 
Q 40.828125 74.21875 47.359375 69.109375 
Q 53.90625 64.015625 53.90625 55.328125 
Q 53.90625 49.265625 50.4375 45.09375 
Q 46.96875 40.921875 40.578125 39.3125 
z
" id="DejaVuSans-51"/>
     <path d="M 10.6875 12.40625 
L 21 12.40625 
L 21 0 
L 10.6875 0 
z
" id="DejaVuSans-46"/>
     <path d="M 10.796875 72.90625 
L 49.515625 72.90625 
L 49.515625 64.59375 
L 19.828125 64.59375 
L 19.828125 46.734375 
Q 21.96875 47.46875 24.109375 47.828125 
Q 26.265625 48.1875 28.421875 48.1875 
Q 40.625 48.1875 47.75 41.5 
Q 54.890625 34.8125 54.890625 23.390625 
Q 54.890625 11.625 47.5625 5.09375 
Q 40.234375 -1.421875 26.90625 -1.421875 
Q 22.3125 -1.421875 17.546875 -0.640625 
Q 12.796875 0.140625 7.71875 1.703125 
L 7.71875 11.625 
Q 12.109375 9.234375 16.796875 8.0625 
Q 21.484375 6.890625 26.703125 6.890625 
Q 35.15625 6.890625 40.078125 11.328125 
Q 45.015625 15.765625 45.015625 23.390625 
Q 45.015625 31 40.078125 35.4375 
Q 35.15625 39.890625 26.703125 39.890625 
Q 22.75 39.890625 18.8125 39.015625 
Q 14.890625 38.140625 10.796875 36.28125 
z
" id="DejaVuSans-53"/>
    </defs>
    <g transform="translate(200.664375 28.56)scale(0.12 -0.12)">
     <use xlink:href="#DejaVuSans-116"/>
     <use x="39.208984" xlink:href="#DejaVuSans-32"/>
     <use x="70.996094" xlink:href="#DejaVuSans-61"/>
     <use x="154.785156" xlink:href="#DejaVuSans-32"/>
     <use x="186.572266" xlink:href="#DejaVuSans-51"/>
     <use x="250.195312" xlink:href="#DejaVuSans-46"/>
     <use x="281.982422" xlink:href="#DejaVuSans-53"/>
    </g>
   </g>
  </g>
 </g>
 <defs>
  <clipPath id="p1345dc41a0">
   <rect height="217.44" width="334.8" x="54" y="34.56"/>
  </clipPath>
 </defs>
</svg>
