<?xml version="1.0" encoding="utf-8" standalone="no"?>
<!DOCTYPE svg PUBLIC "-//W3C//DTD SVG 1.1//EN"
  "http://www.w3.org/Graphics/SVG/1.1/DTD/svg11.dtd">
<!-- Created with matplotlib (https://matplotlib.org/) -->
<svg height="288pt" version="1.1" viewBox="0 0 432 288" width="432pt" xmlns="http://www.w3.org/2000/svg" xmlns:xlink="http://www.w3.org/1999/xlink">
 <defs>
  <style type="text/css">
*{stroke-linecap:butt;stroke-linejoin:round;}
  </style>
 </defs>
 <g id="figure_1">
  <g id="patch_1">
   <path d="M 0 288 
L 432 288 
L 432 0 
L 0 0 
z
" style="fill:#ffffff;"/>
  </g>
  <g id="axes_1">
   <g id="patch_2">
    <path clip-path="url(#p429226d719)" d="M 195.092426 132.366206 
L 195.049977 143.238123 
L 193.962785 143.233878 
L 194.005234 132.361961 
z
" style="stroke:#000000;stroke-linejoin:miter;"/>
   </g>
   <g id="patch_3">
    <path clip-path="url(#p429226d719)" d="M 249.452012 132.57845 
L 249.409563 143.450367 
L 248.322371 143.446122 
L 248.36482 132.574205 
z
" style="stroke:#000000;stroke-linejoin:miter;"/>
   </g>
   <g id="patch_4">
    <path clip-path="url(#p429226d719)" d="M 212.668692 132.434831 
L 212.522082 131.882708 
L 212.080246 131.36551 
L 211.35034 130.91698 
L 210.344265 130.566319 
L 209.078473 130.33627 
L 207.573707 130.241639 
L 205.854656 130.288327 
L 203.949559 130.472952 
L 201.889733 130.783073 
L 199.709062 131.198011 
L 197.443433 131.690209 
L 195.130144 132.227038 
L 192.807283 132.772942 
L 190.513098 133.29177 
L 188.28536 133.749146 
L 186.160737 134.114729 
L 184.174188 134.364197 
L 182.35838 134.480855 
L 180.743154 134.456724 
L 179.355026 134.293074 
L 178.216761 134.000343 
L 177.346993 133.597461 
L 176.759928 133.110614 
L 176.465112 132.571535 
L 176.467283 132.015427 
L 176.7663 131.478666 
L 177.357149 130.996418 
L 178.230036 130.60034 
L 179.370553 130.316507 
L 180.759915 130.163701 
L 182.375281 130.152183 
L 184.190123 130.283017 
L 186.174663 130.547991 
L 188.296366 130.930152 
L 190.520465 131.404911 
L 192.810529 131.941638 
L 195.129056 132.505664 
L 197.438083 133.060541 
L 199.699799 133.570415 
L 201.877164 134.002369 
L 203.934505 134.328565 
L 205.838102 134.528061 
L 207.556736 134.588171 
L 209.062195 134.505293 
L 210.329745 134.285136 
L 211.338528 133.942342 
L 212.071913 133.499526 
L 212.517775 132.985793 
z
" style="fill:#0000ff;stroke:#000000;stroke-linejoin:miter;"/>
   </g>
   <g id="patch_5">
    <path clip-path="url(#p429226d719)" d="M 267.028278 132.647076 
L 266.881667 132.094953 
L 266.439831 131.577754 
L 265.709926 131.129225 
L 264.70385 130.778564 
L 263.438059 130.548515 
L 261.933292 130.453883 
L 260.214242 130.500571 
L 258.309145 130.685196 
L 256.249319 130.995317 
L 254.068648 131.410255 
L 251.803019 131.902453 
L 249.48973 132.439282 
L 247.166869 132.985186 
L 244.872684 133.504014 
L 242.644945 133.961391 
L 240.520323 134.326973 
L 238.533774 134.576442 
L 236.717966 134.6931 
L 235.102739 134.668969 
L 233.714612 134.505318 
L 232.576347 134.212587 
L 231.706579 133.809705 
L 231.119514 133.322859 
L 230.824697 132.783779 
L 230.826869 132.227671 
L 231.125885 131.69091 
L 231.716735 131.208662 
L 232.589622 130.812584 
L 233.730138 130.528751 
L 235.119501 130.375945 
L 236.734867 130.364428 
L 238.549708 130.495261 
L 240.534249 130.760235 
L 242.655952 131.142397 
L 244.880051 131.617155 
L 247.170115 132.153882 
L 249.488642 132.717909 
L 251.797669 133.272785 
L 254.059385 133.78266 
L 256.236749 134.214614 
L 258.294091 134.54081 
L 260.197688 134.740306 
L 261.916321 134.800416 
L 263.421781 134.717538 
L 264.68933 134.49738 
L 265.698113 134.154586 
L 266.431499 133.71177 
L 266.87736 133.198037 
z
" style="fill:#0000ff;stroke:#000000;stroke-linejoin:miter;"/>
   </g>
   <g id="patch_6">
    <path clip-path="url(#p429226d719)" d="M 254.312538 140.75149 
L 189.081035 140.496797 
L 189.05981 145.932755 
L 254.291313 146.187449 
z
" style="fill:#999999;stroke:#000000;stroke-linejoin:miter;"/>
   </g>
   <g id="text_1">
    <!-- t = 2.5 -->
    <defs>
     <path d="M 18.3125 70.21875 
L 18.3125 54.6875 
L 36.8125 54.6875 
L 36.8125 47.703125 
L 18.3125 47.703125 
L 18.3125 18.015625 
Q 18.3125 11.328125 20.140625 9.421875 
Q 21.96875 7.515625 27.59375 7.515625 
L 36.8125 7.515625 
L 36.8125 0 
L 27.59375 0 
Q 17.1875 0 13.234375 3.875 
Q 9.28125 7.765625 9.28125 18.015625 
L 9.28125 47.703125 
L 2.6875 47.703125 
L 2.6875 54.6875 
L 9.28125 54.6875 
L 9.28125 70.21875 
z
" id="DejaVuSans-116"/>
     <path id="DejaVuSans-32"/>
     <path d="M 10.59375 45.40625 
L 73.1875 45.40625 
L 73.1875 37.203125 
L 10.59375 37.203125 
z
M 10.59375 25.484375 
L 73.1875 25.484375 
L 73.1875 17.1875 
L 10.59375 17.1875 
z
" id="DejaVuSans-61"/>
     <path d="M 19.1875 8.296875 
L 53.609375 8.296875 
L 53.609375 0 
L 7.328125 0 
L 7.328125 8.296875 
Q 12.9375 14.109375 22.625 23.890625 
Q 32.328125 33.6875 34.8125 36.53125 
Q 39.546875 41.84375 41.421875 45.53125 
Q 43.3125 49.21875 43.3125 52.78125 
Q 43.3125 58.59375 39.234375 62.25 
Q 35.15625 65.921875 28.609375 65.921875 
Q 23.96875 65.921875 18.8125 64.3125 
Q 13.671875 62.703125 7.8125 59.421875 
L 7.8125 69.390625 
Q 13.765625 71.78125 18.9375 73 
Q 24.125 74.21875 28.421875 74.21875 
Q 39.75 74.21875 46.484375 68.546875 
Q 53.21875 62.890625 53.21875 53.421875 
Q 53.21875 48.921875 51.53125 44.890625 
Q 49.859375 40.875 45.40625 35.40625 
Q 44.1875 33.984375 37.640625 27.21875 
Q 31.109375 20.453125 19.1875 8.296875 
z
" id="DejaVuSans-50"/>
     <path d="M 10.6875 12.40625 
L 21 12.40625 
L 21 0 
L 10.6875 0 
z
" id="DejaVuSans-46"/>
     <path d="M 10.796875 72.90625 
L 49.515625 72.90625 
L 49.515625 64.59375 
L 19.828125 64.59375 
L 19.828125 46.734375 
Q 21.96875 47.46875 24.109375 47.828125 
Q 26.265625 48.1875 28.421875 48.1875 
Q 40.625 48.1875 47.75 41.5 
Q 54.890625 34.8125 54.890625 23.390625 
Q 54.890625 11.625 47.5625 5.09375 
Q 40.234375 -1.421875 26.90625 -1.421875 
Q 22.3125 -1.421875 17.546875 -0.640625 
Q 12.796875 0.140625 7.71875 1.703125 
L 7.71875 11.625 
Q 12.109375 9.234375 16.796875 8.0625 
Q 21.484375 6.890625 26.703125 6.890625 
Q 35.15625 6.890625 40.078125 11.328125 
Q 45.015625 15.765625 45.015625 23.390625 
Q 45.015625 31 40.078125 35.4375 
Q 35.15625 39.890625 26.703125 39.890625 
Q 22.75 39.890625 18.8125 39.015625 
Q 14.890625 38.140625 10.796875 36.28125 
z
" id="DejaVuSans-53"/>
    </defs>
    <g transform="translate(200.664375 28.56)scale(0.12 -0.12)">
     <use xlink:href="#DejaVuSans-116"/>
     <use x="39.208984" xlink:href="#DejaVuSans-32"/>
     <use x="70.996094" xlink:href="#DejaVuSans-61"/>
     <use x="154.785156" xlink:href="#DejaVuSans-32"/>
     <use x="186.572266" xlink:href="#DejaVuSans-50"/>
     <use x="250.195312" xlink:href="#DejaVuSans-46"/>
     <use x="281.982422" xlink:href="#DejaVuSans-53"/>
    </g>
   </g>
  </g>
 </g>
 <defs>
  <clipPath id="p429226d719">
   <rect height="217.44" width="334.8" x="54" y="34.56"/>
  </clipPath>
 </defs>
</svg>
