<?xml version="1.0" encoding="utf-8" standalone="no"?>
<!DOCTYPE svg PUBLIC "-//W3C//DTD SVG 1.1//EN"
  "http://www.w3.org/Graphics/SVG/1.1/DTD/svg11.dtd">
<!-- Created with matplotlib (https://matplotlib.org/) -->
<svg height="288pt" version="1.1" viewBox="0 0 432 288" width="432pt" xmlns="http://www.w3.org/2000/svg" xmlns:xlink="http://www.w3.org/1999/xlink">
 <defs>
  <style type="text/css">
*{stroke-linecap:butt;stroke-linejoin:round;}
  </style>
 </defs>
 <g id="figure_1">
  <g id="patch_1">
   <path d="M 0 288 
L 432 288 
L 432 0 
L 0 0 
z
" style="fill:#ffffff;"/>
  </g>
  <g id="axes_1">
   <g id="patch_2">
    <path clip-path="url(#p877b1f7d9f)" d="M 194.764074 132.408386 
L 194.764252 143.280386 
L 193.677052 143.280403 
L 193.676874 132.408403 
z
" style="stroke:#000000;stroke-linejoin:miter;"/>
   </g>
   <g id="patch_3">
    <path clip-path="url(#p877b1f7d9f)" d="M 249.124074 132.407496 
L 249.124252 143.279496 
L 248.037052 143.279514 
L 248.036874 132.407514 
z
" style="stroke:#000000;stroke-linejoin:miter;"/>
   </g>
   <g id="patch_4">
    <path clip-path="url(#p877b1f7d9f)" d="M 212.340474 132.408098 
L 212.1917 131.856554 
L 211.747839 131.341091 
L 211.016181 130.895428 
L 210.008738 130.548714 
L 208.742055 130.323629 
L 207.236928 130.234899 
L 205.518074 130.288326 
L 203.613716 130.480419 
L 201.555122 130.798614 
L 199.376094 131.222099 
L 197.112413 131.723176 
L 194.801246 132.269071 
L 192.480543 132.824078 
L 190.18841 133.351897 
L 187.962482 133.818005 
L 185.839309 134.191914 
L 183.853753 134.44917 
L 182.038417 134.572946 
L 180.423108 134.555148 
L 179.03435 134.396942 
L 177.894946 134.108676 
L 177.023605 133.709207 
L 176.434635 133.224666 
L 176.137708 132.686747 
L 176.137699 132.130634 
L 176.434609 131.592705 
L 177.023562 131.108144 
L 177.89489 130.708647 
L 179.034285 130.420344 
L 180.423038 130.262092 
L 182.038346 130.244242 
L 183.853687 130.367958 
L 185.839251 130.625149 
L 187.962436 130.998989 
L 190.188379 131.465024 
L 192.48053 131.992768 
L 194.801251 132.547699 
L 197.112435 133.093518 
L 199.376133 133.594521 
L 201.555174 134.017935 
L 203.613779 134.336062 
L 205.518144 134.528093 
L 207.237 134.581464 
L 208.742123 134.492684 
L 210.008799 134.267559 
L 211.01623 133.920812 
L 211.747874 133.475124 
L 212.191718 132.959647 
z
" style="fill:#0000ff;stroke:#000000;stroke-linejoin:miter;"/>
   </g>
   <g id="patch_5">
    <path clip-path="url(#p877b1f7d9f)" d="M 266.700474 132.407208 
L 266.5517 131.855664 
L 266.107839 131.340202 
L 265.376181 130.894538 
L 264.368738 130.547824 
L 263.102055 130.32274 
L 261.596928 130.234009 
L 259.878074 130.287437 
L 257.973716 130.47953 
L 255.915122 130.797724 
L 253.736094 131.221209 
L 251.472413 131.722286 
L 249.161246 132.268181 
L 246.840543 132.823189 
L 244.54841 133.351008 
L 242.322482 133.817115 
L 240.199309 134.191025 
L 238.213753 134.44828 
L 236.398417 134.572057 
L 234.783108 134.554259 
L 233.39435 134.396052 
L 232.254946 134.107786 
L 231.383605 133.708318 
L 230.794635 133.223777 
L 230.497708 132.685857 
L 230.497699 132.129745 
L 230.794609 131.591815 
L 231.383562 131.107255 
L 232.25489 130.707758 
L 233.394285 130.419455 
L 234.783038 130.261203 
L 236.398346 130.243352 
L 238.213687 130.367069 
L 240.199251 130.624259 
L 242.322436 130.998099 
L 244.548379 131.464134 
L 246.84053 131.991878 
L 249.161251 132.54681 
L 251.472435 133.092629 
L 253.736133 133.593632 
L 255.915174 134.017045 
L 257.973779 134.335173 
L 259.878144 134.527203 
L 261.597 134.580575 
L 263.102123 134.491795 
L 264.368799 134.266669 
L 265.37623 133.919922 
L 266.107874 133.474234 
L 266.551718 132.958757 
z
" style="fill:#0000ff;stroke:#000000;stroke-linejoin:miter;"/>
   </g>
   <g id="patch_6">
    <path clip-path="url(#p877b1f7d9f)" d="M 254.016607 140.561416 
L 188.784607 140.562483 
L 188.784696 145.998483 
L 254.016696 145.997416 
z
" style="fill:#999999;stroke:#000000;stroke-linejoin:miter;"/>
   </g>
   <g id="text_1">
    <!-- t = 3.9 -->
    <defs>
     <path d="M 18.3125 70.21875 
L 18.3125 54.6875 
L 36.8125 54.6875 
L 36.8125 47.703125 
L 18.3125 47.703125 
L 18.3125 18.015625 
Q 18.3125 11.328125 20.140625 9.421875 
Q 21.96875 7.515625 27.59375 7.515625 
L 36.8125 7.515625 
L 36.8125 0 
L 27.59375 0 
Q 17.1875 0 13.234375 3.875 
Q 9.28125 7.765625 9.28125 18.015625 
L 9.28125 47.703125 
L 2.6875 47.703125 
L 2.6875 54.6875 
L 9.28125 54.6875 
L 9.28125 70.21875 
z
" id="DejaVuSans-116"/>
     <path id="DejaVuSans-32"/>
     <path d="M 10.59375 45.40625 
L 73.1875 45.40625 
L 73.1875 37.203125 
L 10.59375 37.203125 
z
M 10.59375 25.484375 
L 73.1875 25.484375 
L 73.1875 17.1875 
L 10.59375 17.1875 
z
" id="DejaVuSans-61"/>
     <path d="M 40.578125 39.3125 
Q 47.65625 37.796875 51.625 33 
Q 55.609375 28.21875 55.609375 21.1875 
Q 55.609375 10.40625 48.1875 4.484375 
Q 40.765625 -1.421875 27.09375 -1.421875 
Q 22.515625 -1.421875 17.65625 -0.515625 
Q 12.796875 0.390625 7.625 2.203125 
L 7.625 11.71875 
Q 11.71875 9.328125 16.59375 8.109375 
Q 21.484375 6.890625 26.8125 6.890625 
Q 36.078125 6.890625 40.9375 10.546875 
Q 45.796875 14.203125 45.796875 21.1875 
Q 45.796875 27.640625 41.28125 31.265625 
Q 36.765625 34.90625 28.71875 34.90625 
L 20.21875 34.90625 
L 20.21875 43.015625 
L 29.109375 43.015625 
Q 36.375 43.015625 40.234375 45.921875 
Q 44.09375 48.828125 44.09375 54.296875 
Q 44.09375 59.90625 40.109375 62.90625 
Q 36.140625 65.921875 28.71875 65.921875 
Q 24.65625 65.921875 20.015625 65.03125 
Q 15.375 64.15625 9.8125 62.3125 
L 9.8125 71.09375 
Q 15.4375 72.65625 20.34375 73.4375 
Q 25.25 74.21875 29.59375 74.21875 
Q 40.828125 74.21875 47.359375 69.109375 
Q 53.90625 64.015625 53.90625 55.328125 
Q 53.90625 49.265625 50.4375 45.09375 
Q 46.96875 40.921875 40.578125 39.3125 
z
" id="DejaVuSans-51"/>
     <path d="M 10.6875 12.40625 
L 21 12.40625 
L 21 0 
L 10.6875 0 
z
" id="DejaVuSans-46"/>
     <path d="M 10.984375 1.515625 
L 10.984375 10.5 
Q 14.703125 8.734375 18.5 7.8125 
Q 22.3125 6.890625 25.984375 6.890625 
Q 35.75 6.890625 40.890625 13.453125 
Q 46.046875 20.015625 46.78125 33.40625 
Q 43.953125 29.203125 39.59375 26.953125 
Q 35.25 24.703125 29.984375 24.703125 
Q 19.046875 24.703125 12.671875 31.3125 
Q 6.296875 37.9375 6.296875 49.421875 
Q 6.296875 60.640625 12.9375 67.421875 
Q 19.578125 74.21875 30.609375 74.21875 
Q 43.265625 74.21875 49.921875 64.515625 
Q 56.59375 54.828125 56.59375 36.375 
Q 56.59375 19.140625 48.40625 8.859375 
Q 40.234375 -1.421875 26.421875 -1.421875 
Q 22.703125 -1.421875 18.890625 -0.6875 
Q 15.09375 0.046875 10.984375 1.515625 
z
M 30.609375 32.421875 
Q 37.25 32.421875 41.125 36.953125 
Q 45.015625 41.5 45.015625 49.421875 
Q 45.015625 57.28125 41.125 61.84375 
Q 37.25 66.40625 30.609375 66.40625 
Q 23.96875 66.40625 20.09375 61.84375 
Q 16.21875 57.28125 16.21875 49.421875 
Q 16.21875 41.5 20.09375 36.953125 
Q 23.96875 32.421875 30.609375 32.421875 
z
" id="DejaVuSans-57"/>
    </defs>
    <g transform="translate(200.664375 28.56)scale(0.12 -0.12)">
     <use xlink:href="#DejaVuSans-116"/>
     <use x="39.208984" xlink:href="#DejaVuSans-32"/>
     <use x="70.996094" xlink:href="#DejaVuSans-61"/>
     <use x="154.785156" xlink:href="#DejaVuSans-32"/>
     <use x="186.572266" xlink:href="#DejaVuSans-51"/>
     <use x="250.195312" xlink:href="#DejaVuSans-46"/>
     <use x="281.982422" xlink:href="#DejaVuSans-57"/>
    </g>
   </g>
  </g>
 </g>
 <defs>
  <clipPath id="p877b1f7d9f">
   <rect height="217.44" width="334.8" x="54" y="34.56"/>
  </clipPath>
 </defs>
</svg>
