<?xml version="1.0" encoding="utf-8" standalone="no"?>
<!DOCTYPE svg PUBLIC "-//W3C//DTD SVG 1.1//EN"
  "http://www.w3.org/Graphics/SVG/1.1/DTD/svg11.dtd">
<!-- Created with matplotlib (https://matplotlib.org/) -->
<svg height="288pt" version="1.1" viewBox="0 0 432 288" width="432pt" xmlns="http://www.w3.org/2000/svg" xmlns:xlink="http://www.w3.org/1999/xlink">
 <defs>
  <style type="text/css">
*{stroke-linecap:butt;stroke-linejoin:round;}
  </style>
 </defs>
 <g id="figure_1">
  <g id="patch_1">
   <path d="M 0 288 
L 432 288 
L 432 0 
L 0 0 
z
" style="fill:#ffffff;"/>
  </g>
  <g id="axes_1">
   <g id="patch_2">
    <path clip-path="url(#p9f3e6423ee)" d="M 194.770651 132.407325 
L 194.770272 143.279325 
L 193.683072 143.279287 
L 193.683451 132.407287 
z
" style="stroke:#000000;stroke-linejoin:miter;"/>
   </g>
   <g id="patch_3">
    <path clip-path="url(#p9f3e6423ee)" d="M 249.130651 132.409218 
L 249.130272 143.281218 
L 248.043072 143.28118 
L 248.043451 132.40918 
z
" style="stroke:#000000;stroke-linejoin:miter;"/>
   </g>
   <g id="patch_4">
    <path clip-path="url(#p9f3e6423ee)" d="M 212.347051 132.407937 
L 212.198305 131.856386 
L 211.754471 131.3409 
L 211.022835 130.895199 
L 210.015411 130.548434 
L 208.748738 130.323285 
L 207.243617 130.234477 
L 205.52476 130.287816 
L 203.620391 130.479812 
L 201.561781 130.797901 
L 199.382732 131.221275 
L 197.119025 131.722236 
L 194.80783 132.268012 
L 192.487099 132.822901 
L 190.194939 133.350603 
L 187.968987 133.816596 
L 185.845795 134.190397 
L 183.860226 134.447551 
L 182.044883 134.571234 
L 180.429575 134.553354 
L 179.040825 134.395076 
L 177.901436 134.106752 
L 177.030116 133.707239 
L 176.441171 133.222667 
L 176.144271 132.684733 
L 176.14429 132.12862 
L 176.441228 131.590706 
L 177.030206 131.106176 
L 177.901554 130.706723 
L 179.040964 130.418478 
L 180.429725 130.260298 
L 182.045034 130.24253 
L 183.860368 130.366339 
L 185.845919 130.623632 
L 187.969085 130.99758 
L 190.195005 131.463729 
L 192.487128 131.99159 
L 194.807821 132.546641 
L 197.118977 133.092578 
L 199.38265 133.593697 
L 201.561669 134.017222 
L 203.620257 134.335455 
L 205.524612 134.527583 
L 207.243466 134.581042 
L 208.748593 134.492339 
L 210.015281 134.267278 
L 211.02273 133.920583 
L 211.754397 133.474933 
L 212.198267 132.959479 
z
" style="fill:#0000ff;stroke:#000000;stroke-linejoin:miter;"/>
   </g>
   <g id="patch_5">
    <path clip-path="url(#p9f3e6423ee)" d="M 266.707051 132.40983 
L 266.558305 131.858279 
L 266.114471 131.342793 
L 265.382835 130.897092 
L 264.375411 130.550327 
L 263.108738 130.325178 
L 261.603617 130.23637 
L 259.88476 130.28971 
L 257.980391 130.481705 
L 255.921781 130.799794 
L 253.742732 131.223168 
L 251.479025 131.724129 
L 249.16783 132.269905 
L 246.847099 132.824794 
L 244.554939 133.352496 
L 242.328987 133.818489 
L 240.205795 134.19229 
L 238.220226 134.449444 
L 236.404883 134.573127 
L 234.789575 134.555247 
L 233.400825 134.396969 
L 232.261436 134.108645 
L 231.390116 133.709132 
L 230.801171 133.22456 
L 230.504271 132.686626 
L 230.50429 132.130513 
L 230.801227 131.592599 
L 231.390206 131.108069 
L 232.261554 130.708616 
L 233.400964 130.420372 
L 234.789725 130.262191 
L 236.405034 130.244423 
L 238.220368 130.368233 
L 240.205919 130.625525 
L 242.329085 130.999474 
L 244.555004 131.465622 
L 246.847128 131.993483 
L 249.167821 132.548534 
L 251.478977 133.094471 
L 253.74265 133.59559 
L 255.921669 134.019115 
L 257.980257 134.337348 
L 259.884612 134.529476 
L 261.603465 134.582935 
L 263.108593 134.494232 
L 264.375281 134.269172 
L 265.38273 133.922476 
L 266.114397 133.476826 
L 266.558267 132.961372 
z
" style="fill:#0000ff;stroke:#000000;stroke-linejoin:miter;"/>
   </g>
   <g id="patch_6">
    <path clip-path="url(#p9f3e6423ee)" d="M 254.022767 140.563389 
L 188.790767 140.561117 
L 188.790578 145.997117 
L 254.022578 145.999389 
z
" style="fill:#999999;stroke:#000000;stroke-linejoin:miter;"/>
   </g>
   <g id="text_1">
    <!-- t = 4.0 -->
    <defs>
     <path d="M 18.3125 70.21875 
L 18.3125 54.6875 
L 36.8125 54.6875 
L 36.8125 47.703125 
L 18.3125 47.703125 
L 18.3125 18.015625 
Q 18.3125 11.328125 20.140625 9.421875 
Q 21.96875 7.515625 27.59375 7.515625 
L 36.8125 7.515625 
L 36.8125 0 
L 27.59375 0 
Q 17.1875 0 13.234375 3.875 
Q 9.28125 7.765625 9.28125 18.015625 
L 9.28125 47.703125 
L 2.6875 47.703125 
L 2.6875 54.6875 
L 9.28125 54.6875 
L 9.28125 70.21875 
z
" id="DejaVuSans-116"/>
     <path id="DejaVuSans-32"/>
     <path d="M 10.59375 45.40625 
L 73.1875 45.40625 
L 73.1875 37.203125 
L 10.59375 37.203125 
z
M 10.59375 25.484375 
L 73.1875 25.484375 
L 73.1875 17.1875 
L 10.59375 17.1875 
z
" id="DejaVuSans-61"/>
     <path d="M 37.796875 64.3125 
L 12.890625 25.390625 
L 37.796875 25.390625 
z
M 35.203125 72.90625 
L 47.609375 72.90625 
L 47.609375 25.390625 
L 58.015625 25.390625 
L 58.015625 17.1875 
L 47.609375 17.1875 
L 47.609375 0 
L 37.796875 0 
L 37.796875 17.1875 
L 4.890625 17.1875 
L 4.890625 26.703125 
z
" id="DejaVuSans-52"/>
     <path d="M 10.6875 12.40625 
L 21 12.40625 
L 21 0 
L 10.6875 0 
z
" id="DejaVuSans-46"/>
     <path d="M 31.78125 66.40625 
Q 24.171875 66.40625 20.328125 58.90625 
Q 16.5 51.421875 16.5 36.375 
Q 16.5 21.390625 20.328125 13.890625 
Q 24.171875 6.390625 31.78125 6.390625 
Q 39.453125 6.390625 43.28125 13.890625 
Q 47.125 21.390625 47.125 36.375 
Q 47.125 51.421875 43.28125 58.90625 
Q 39.453125 66.40625 31.78125 66.40625 
z
M 31.78125 74.21875 
Q 44.046875 74.21875 50.515625 64.515625 
Q 56.984375 54.828125 56.984375 36.375 
Q 56.984375 17.96875 50.515625 8.265625 
Q 44.046875 -1.421875 31.78125 -1.421875 
Q 19.53125 -1.421875 13.0625 8.265625 
Q 6.59375 17.96875 6.59375 36.375 
Q 6.59375 54.828125 13.0625 64.515625 
Q 19.53125 74.21875 31.78125 74.21875 
z
" id="DejaVuSans-48"/>
    </defs>
    <g transform="translate(200.664375 28.56)scale(0.12 -0.12)">
     <use xlink:href="#DejaVuSans-116"/>
     <use x="39.208984" xlink:href="#DejaVuSans-32"/>
     <use x="70.996094" xlink:href="#DejaVuSans-61"/>
     <use x="154.785156" xlink:href="#DejaVuSans-32"/>
     <use x="186.572266" xlink:href="#DejaVuSans-52"/>
     <use x="250.195312" xlink:href="#DejaVuSans-46"/>
     <use x="281.982422" xlink:href="#DejaVuSans-48"/>
    </g>
   </g>
  </g>
 </g>
 <defs>
  <clipPath id="p9f3e6423ee">
   <rect height="217.44" width="334.8" x="54" y="34.56"/>
  </clipPath>
 </defs>
</svg>
