<?xml version="1.0" encoding="utf-8" standalone="no"?>
<!DOCTYPE svg PUBLIC "-//W3C//DTD SVG 1.1//EN"
  "http://www.w3.org/Graphics/SVG/1.1/DTD/svg11.dtd">
<!-- Created with matplotlib (https://matplotlib.org/) -->
<svg height="288pt" version="1.1" viewBox="0 0 432 288" width="432pt" xmlns="http://www.w3.org/2000/svg" xmlns:xlink="http://www.w3.org/1999/xlink">
 <defs>
  <style type="text/css">
*{stroke-linecap:butt;stroke-linejoin:round;}
  </style>
 </defs>
 <g id="figure_1">
  <g id="patch_1">
   <path d="M 0 288 
L 432 288 
L 432 0 
L 0 0 
z
" style="fill:#ffffff;"/>
  </g>
  <g id="axes_1">
   <g id="patch_2">
    <path clip-path="url(#pfd7c6dd12f)" d="M 195.852686 132.422922 
L 195.775626 143.294649 
L 194.688453 143.286943 
L 194.765514 132.415216 
z
" style="stroke:#000000;stroke-linejoin:miter;"/>
   </g>
   <g id="patch_3">
    <path clip-path="url(#pfd7c6dd12f)" d="M 250.211321 132.808224 
L 250.13426 143.679951 
L 249.047087 143.672245 
L 249.124148 132.800518 
z
" style="stroke:#000000;stroke-linejoin:miter;"/>
   </g>
   <g id="patch_4">
    <path clip-path="url(#pfd7c6dd12f)" d="M 213.428645 132.547503 
L 213.283793 131.994916 
L 212.843605 131.476313 
L 212.115132 131.025462 
L 211.110178 130.6716 
L 209.845125 130.437523 
L 208.340667 130.338101 
L 206.621477 130.379316 
L 204.715802 130.557875 
L 202.654999 130.861437 
L 200.473018 131.26943 
L 198.205834 131.754413 
L 195.890847 132.283874 
L 193.56626 132.822381 
L 191.270435 133.333902 
L 189.041252 133.784184 
L 186.915476 134.143001 
L 184.928143 134.386144 
L 183.111973 134.49702 
L 181.496831 134.467747 
L 180.109232 134.299678 
L 178.971904 134.003325 
L 178.103424 133.597676 
L 177.517911 133.108963 
L 177.224813 132.568947 
L 177.228754 132.012849 
L 177.529478 131.477043 
L 178.12186 130.996679 
L 178.996004 130.603382 
L 180.137418 130.323181 
L 181.52726 130.174799 
L 183.142655 130.168424 
L 184.95707 130.305035 
L 186.940757 130.576325 
L 189.061233 130.96524 
L 191.283809 131.447076 
L 193.572153 131.991091 
L 195.888872 132.562496 
L 198.196121 133.124721 
L 200.456202 133.641793 
L 202.632181 134.080677 
L 204.688473 134.413421 
L 206.591426 134.618976 
L 208.309859 134.684558 
L 209.815575 134.606473 
L 211.083819 134.390351 
L 212.093688 134.050771 
L 212.82848 133.610292 
L 213.275974 133.097981 
z
" style="fill:#0000ff;stroke:#000000;stroke-linejoin:miter;"/>
   </g>
   <g id="patch_5">
    <path clip-path="url(#pfd7c6dd12f)" d="M 267.787279 132.932806 
L 267.642427 132.380218 
L 267.20224 131.861616 
L 266.473766 131.410765 
L 265.468812 131.056903 
L 264.203759 130.822825 
L 262.699302 130.723404 
L 260.980111 130.764619 
L 259.074436 130.943178 
L 257.013634 131.246739 
L 254.831653 131.654733 
L 252.564468 132.139715 
L 250.249482 132.669177 
L 247.924895 133.207684 
L 245.629069 133.719205 
L 243.399886 134.169487 
L 241.27411 134.528303 
L 239.286777 134.771446 
L 237.470607 134.882323 
L 235.855466 134.85305 
L 234.467866 134.684981 
L 233.330539 134.388628 
L 232.462058 133.982979 
L 231.876546 133.494266 
L 231.583447 132.95425 
L 231.587389 132.398152 
L 231.888113 131.862345 
L 232.480494 131.381981 
L 233.354638 130.988684 
L 234.496052 130.708483 
L 235.885895 130.560101 
L 237.501289 130.553727 
L 239.315705 130.690337 
L 241.299392 130.961628 
L 243.419867 131.350542 
L 245.642443 131.832379 
L 247.930787 132.376394 
L 250.247507 132.947799 
L 252.554755 133.510024 
L 254.814837 134.027096 
L 256.990815 134.465979 
L 259.047107 134.798724 
L 260.95006 135.004279 
L 262.668493 135.06986 
L 264.174209 134.991775 
L 265.442453 134.775654 
L 266.452322 134.436073 
L 267.187114 133.995595 
L 267.634609 133.483284 
z
" style="fill:#0000ff;stroke:#000000;stroke-linejoin:miter;"/>
   </g>
   <g id="patch_6">
    <path clip-path="url(#pfd7c6dd12f)" d="M 255.045802 140.996697 
L 189.815441 140.534334 
L 189.776911 145.970197 
L 255.007272 146.43256 
z
" style="fill:#999999;stroke:#000000;stroke-linejoin:miter;"/>
   </g>
   <g id="text_1">
    <!-- t = 2.1 -->
    <defs>
     <path d="M 18.3125 70.21875 
L 18.3125 54.6875 
L 36.8125 54.6875 
L 36.8125 47.703125 
L 18.3125 47.703125 
L 18.3125 18.015625 
Q 18.3125 11.328125 20.140625 9.421875 
Q 21.96875 7.515625 27.59375 7.515625 
L 36.8125 7.515625 
L 36.8125 0 
L 27.59375 0 
Q 17.1875 0 13.234375 3.875 
Q 9.28125 7.765625 9.28125 18.015625 
L 9.28125 47.703125 
L 2.6875 47.703125 
L 2.6875 54.6875 
L 9.28125 54.6875 
L 9.28125 70.21875 
z
" id="DejaVuSans-116"/>
     <path id="DejaVuSans-32"/>
     <path d="M 10.59375 45.40625 
L 73.1875 45.40625 
L 73.1875 37.203125 
L 10.59375 37.203125 
z
M 10.59375 25.484375 
L 73.1875 25.484375 
L 73.1875 17.1875 
L 10.59375 17.1875 
z
" id="DejaVuSans-61"/>
     <path d="M 19.1875 8.296875 
L 53.609375 8.296875 
L 53.609375 0 
L 7.328125 0 
L 7.328125 8.296875 
Q 12.9375 14.109375 22.625 23.890625 
Q 32.328125 33.6875 34.8125 36.53125 
Q 39.546875 41.84375 41.421875 45.53125 
Q 43.3125 49.21875 43.3125 52.78125 
Q 43.3125 58.59375 39.234375 62.25 
Q 35.15625 65.921875 28.609375 65.921875 
Q 23.96875 65.921875 18.8125 64.3125 
Q 13.671875 62.703125 7.8125 59.421875 
L 7.8125 69.390625 
Q 13.765625 71.78125 18.9375 73 
Q 24.125 74.21875 28.421875 74.21875 
Q 39.75 74.21875 46.484375 68.546875 
Q 53.21875 62.890625 53.21875 53.421875 
Q 53.21875 48.921875 51.53125 44.890625 
Q 49.859375 40.875 45.40625 35.40625 
Q 44.1875 33.984375 37.640625 27.21875 
Q 31.109375 20.453125 19.1875 8.296875 
z
" id="DejaVuSans-50"/>
     <path d="M 10.6875 12.40625 
L 21 12.40625 
L 21 0 
L 10.6875 0 
z
" id="DejaVuSans-46"/>
     <path d="M 12.40625 8.296875 
L 28.515625 8.296875 
L 28.515625 63.921875 
L 10.984375 60.40625 
L 10.984375 69.390625 
L 28.421875 72.90625 
L 38.28125 72.90625 
L 38.28125 8.296875 
L 54.390625 8.296875 
L 54.390625 0 
L 12.40625 0 
z
" id="DejaVuSans-49"/>
    </defs>
    <g transform="translate(200.664375 28.56)scale(0.12 -0.12)">
     <use xlink:href="#DejaVuSans-116"/>
     <use x="39.208984" xlink:href="#DejaVuSans-32"/>
     <use x="70.996094" xlink:href="#DejaVuSans-61"/>
     <use x="154.785156" xlink:href="#DejaVuSans-32"/>
     <use x="186.572266" xlink:href="#DejaVuSans-50"/>
     <use x="250.195312" xlink:href="#DejaVuSans-46"/>
     <use x="281.982422" xlink:href="#DejaVuSans-49"/>
    </g>
   </g>
  </g>
 </g>
 <defs>
  <clipPath id="pfd7c6dd12f">
   <rect height="217.44" width="334.8" x="54" y="34.56"/>
  </clipPath>
 </defs>
</svg>
