<?xml version="1.0" encoding="utf-8" standalone="no"?>
<!DOCTYPE svg PUBLIC "-//W3C//DTD SVG 1.1//EN"
  "http://www.w3.org/Graphics/SVG/1.1/DTD/svg11.dtd">
<!-- Created with matplotlib (https://matplotlib.org/) -->
<svg height="288pt" version="1.1" viewBox="0 0 432 288" width="432pt" xmlns="http://www.w3.org/2000/svg" xmlns:xlink="http://www.w3.org/1999/xlink">
 <defs>
  <style type="text/css">
*{stroke-linecap:butt;stroke-linejoin:round;}
  </style>
 </defs>
 <g id="figure_1">
  <g id="patch_1">
   <path d="M 0 288 
L 432 288 
L 432 0 
L 0 0 
z
" style="fill:#ffffff;"/>
  </g>
  <g id="axes_1">
   <g id="patch_2">
    <path clip-path="url(#p5224d9b1c9)" d="M 191.174433 136.241392 
L 191.763317 147.097432 
L 190.677713 147.15632 
L 190.088829 136.300281 
z
" style="stroke:#000000;stroke-linejoin:miter;"/>
   </g>
   <g id="patch_3">
    <path clip-path="url(#p5224d9b1c9)" d="M 245.454632 133.296972 
L 246.043516 144.153012 
L 244.957912 144.2119 
L 244.369028 133.35586 
z
" style="stroke:#000000;stroke-linejoin:miter;"/>
   </g>
   <g id="patch_4">
    <path clip-path="url(#p5224d9b1c9)" d="M 208.725031 135.289363 
L 208.54661 134.746684 
L 208.075489 134.256012 
L 207.320771 133.850621 
L 206.296033 133.558967 
L 205.019019 133.402803 
L 203.511297 133.395703 
L 201.797857 133.542126 
L 199.906694 133.837056 
L 197.86835 134.266255 
L 195.715451 134.80711 
L 193.482223 135.430028 
L 191.204007 136.100269 
L 188.916762 136.780126 
L 186.656572 137.431287 
L 184.45915 138.017242 
L 182.359338 138.50557 
L 180.390626 138.869964 
L 178.584655 139.091857 
L 176.970752 139.161552 
L 175.575465 139.078778 
L 174.422123 138.852632 
L 173.53043 138.500932 
L 172.916087 138.048993 
L 172.590467 137.527941 
L 172.560345 136.972645 
L 172.827691 136.419428 
L 173.389543 135.903687 
L 174.23796 135.457595 
L 175.360072 135.108018 
L 176.738218 134.874798 
L 178.35019 134.769507 
L 180.169566 134.794744 
L 182.166144 134.944041 
L 184.306457 135.202364 
L 186.55437 135.547183 
L 188.871734 135.950035 
L 191.219099 136.378488 
L 193.556448 136.798359 
L 195.843954 137.17605 
L 198.042726 137.48085 
L 200.115536 137.687039 
L 202.027505 137.775669 
L 203.746729 137.735888 
L 205.244837 137.565737 
L 206.497465 137.272353 
L 207.484642 136.871564 
L 208.191079 136.386912 
L 208.606359 135.848158 
z
" style="fill:#0000ff;stroke:#000000;stroke-linejoin:miter;"/>
   </g>
   <g id="patch_5">
    <path clip-path="url(#p5224d9b1c9)" d="M 263.00523 132.344943 
L 262.826808 131.802264 
L 262.355687 131.311592 
L 261.60097 130.9062 
L 260.576232 130.614547 
L 259.299218 130.458383 
L 257.791496 130.451283 
L 256.078056 130.597706 
L 254.186893 130.892636 
L 252.148549 131.321834 
L 249.99565 131.86269 
L 247.762422 132.485607 
L 245.484206 133.155848 
L 243.196961 133.835705 
L 240.936771 134.486866 
L 238.739348 135.072821 
L 236.639537 135.56115 
L 234.670824 135.925543 
L 232.864854 136.147437 
L 231.250951 136.217132 
L 229.855664 136.134357 
L 228.702322 135.908212 
L 227.810629 135.556511 
L 227.196286 135.104573 
L 226.870666 134.583521 
L 226.840544 134.028225 
L 227.10789 133.475008 
L 227.669742 132.959267 
L 228.518159 132.513174 
L 229.64027 132.163597 
L 231.018417 131.930378 
L 232.630389 131.825086 
L 234.449765 131.850323 
L 236.446343 131.999621 
L 238.586656 132.257944 
L 240.834568 132.602763 
L 243.151933 133.005615 
L 245.499298 133.434068 
L 247.836647 133.853938 
L 250.124153 134.231629 
L 252.322924 134.536429 
L 254.395735 134.742619 
L 256.307704 134.831249 
L 258.026928 134.791468 
L 259.525036 134.621317 
L 260.777664 134.327933 
L 261.764841 133.927143 
L 262.471278 133.442492 
L 262.886558 132.903737 
z
" style="fill:#0000ff;stroke:#000000;stroke-linejoin:miter;"/>
   </g>
   <g id="patch_6">
    <path clip-path="url(#p5224d9b1c9)" d="M 250.781513 141.174004 
L 185.645274 144.707308 
L 185.939716 150.135328 
L 251.075955 146.602024 
z
" style="fill:#999999;stroke:#000000;stroke-linejoin:miter;"/>
   </g>
   <g id="text_1">
    <!-- t = 1.1 -->
    <defs>
     <path d="M 18.3125 70.21875 
L 18.3125 54.6875 
L 36.8125 54.6875 
L 36.8125 47.703125 
L 18.3125 47.703125 
L 18.3125 18.015625 
Q 18.3125 11.328125 20.140625 9.421875 
Q 21.96875 7.515625 27.59375 7.515625 
L 36.8125 7.515625 
L 36.8125 0 
L 27.59375 0 
Q 17.1875 0 13.234375 3.875 
Q 9.28125 7.765625 9.28125 18.015625 
L 9.28125 47.703125 
L 2.6875 47.703125 
L 2.6875 54.6875 
L 9.28125 54.6875 
L 9.28125 70.21875 
z
" id="DejaVuSans-116"/>
     <path id="DejaVuSans-32"/>
     <path d="M 10.59375 45.40625 
L 73.1875 45.40625 
L 73.1875 37.203125 
L 10.59375 37.203125 
z
M 10.59375 25.484375 
L 73.1875 25.484375 
L 73.1875 17.1875 
L 10.59375 17.1875 
z
" id="DejaVuSans-61"/>
     <path d="M 12.40625 8.296875 
L 28.515625 8.296875 
L 28.515625 63.921875 
L 10.984375 60.40625 
L 10.984375 69.390625 
L 28.421875 72.90625 
L 38.28125 72.90625 
L 38.28125 8.296875 
L 54.390625 8.296875 
L 54.390625 0 
L 12.40625 0 
z
" id="DejaVuSans-49"/>
     <path d="M 10.6875 12.40625 
L 21 12.40625 
L 21 0 
L 10.6875 0 
z
" id="DejaVuSans-46"/>
    </defs>
    <g transform="translate(200.664375 28.56)scale(0.12 -0.12)">
     <use xlink:href="#DejaVuSans-116"/>
     <use x="39.208984" xlink:href="#DejaVuSans-32"/>
     <use x="70.996094" xlink:href="#DejaVuSans-61"/>
     <use x="154.785156" xlink:href="#DejaVuSans-32"/>
     <use x="186.572266" xlink:href="#DejaVuSans-49"/>
     <use x="250.195312" xlink:href="#DejaVuSans-46"/>
     <use x="281.982422" xlink:href="#DejaVuSans-49"/>
    </g>
   </g>
  </g>
 </g>
 <defs>
  <clipPath id="p5224d9b1c9">
   <rect height="217.44" width="334.8" x="54" y="34.56"/>
  </clipPath>
 </defs>
</svg>
