<?xml version="1.0" encoding="utf-8" standalone="no"?>
<!DOCTYPE svg PUBLIC "-//W3C//DTD SVG 1.1//EN"
  "http://www.w3.org/Graphics/SVG/1.1/DTD/svg11.dtd">
<!-- Created with matplotlib (https://matplotlib.org/) -->
<svg height="288pt" version="1.1" viewBox="0 0 432 288" width="432pt" xmlns="http://www.w3.org/2000/svg" xmlns:xlink="http://www.w3.org/1999/xlink">
 <defs>
  <style type="text/css">
*{stroke-linecap:butt;stroke-linejoin:round;}
  </style>
 </defs>
 <g id="figure_1">
  <g id="patch_1">
   <path d="M 0 288 
L 432 288 
L 432 0 
L 0 0 
z
" style="fill:#ffffff;"/>
  </g>
  <g id="axes_1">
   <g id="patch_2">
    <path clip-path="url(#pcca8f57135)" d="M 194.871517 132.401136 
L 194.863689 143.273133 
L 193.776489 143.27235 
L 193.784318 132.400353 
z
" style="stroke:#000000;stroke-linejoin:miter;"/>
   </g>
   <g id="patch_3">
    <path clip-path="url(#pcca8f57135)" d="M 249.231503 132.44028 
L 249.223674 143.312277 
L 248.136475 143.311494 
L 248.144303 132.439497 
z
" style="stroke:#000000;stroke-linejoin:miter;"/>
   </g>
   <g id="patch_4">
    <path clip-path="url(#pcca8f57135)" d="M 212.447913 132.413792 
L 212.299545 131.862139 
L 211.856064 131.34635 
L 211.124734 130.900147 
L 210.117547 130.552692 
L 208.85103 130.326675 
L 207.345969 130.236835 
L 205.627076 130.288997 
L 203.722577 130.479687 
L 201.663749 130.796366 
L 199.48441 131.218246 
L 197.22036 131.717656 
L 194.908792 132.261848 
L 192.587681 132.815147 
L 190.29516 133.341278 
L 188.068889 133.805746 
L 185.945442 134.178091 
L 183.959697 134.433885 
L 182.14427 134.556324 
L 180.528975 134.537337 
L 179.140333 134.378107 
L 178.001142 134.089003 
L 177.130095 133.688893 
L 176.541483 133.203918 
L 176.244951 132.665779 
L 176.245352 132.109667 
L 176.542658 131.571957 
L 177.131968 131.08783 
L 178.00359 130.688975 
L 179.143197 130.401511 
L 180.532066 130.244282 
L 182.147387 130.227621 
L 183.962636 130.352674 
L 185.94801 130.611327 
L 188.070919 130.986731 
L 190.296519 131.454405 
L 192.58828 131.983836 
L 194.908592 132.540477 
L 197.219373 133.087998 
L 199.482702 133.590668 
L 201.661431 134.015686 
L 203.7198 134.33533 
L 205.624023 134.528763 
L 207.342839 134.5834 
L 208.848027 134.495728 
L 210.114869 134.271535 
L 211.122555 133.925531 
L 211.854527 133.480382 
L 212.298751 132.965232 
z
" style="fill:#0000ff;stroke:#000000;stroke-linejoin:miter;"/>
   </g>
   <g id="patch_5">
    <path clip-path="url(#pcca8f57135)" d="M 266.807899 132.452936 
L 266.659531 131.901283 
L 266.21605 131.385494 
L 265.48472 130.939291 
L 264.477533 130.591835 
L 263.211015 130.365818 
L 261.705955 130.275979 
L 259.987062 130.328141 
L 258.082562 130.518831 
L 256.023735 130.83551 
L 253.844396 131.25739 
L 251.580346 131.7568 
L 249.268778 132.300992 
L 246.947667 132.854291 
L 244.655146 133.380421 
L 242.428875 133.84489 
L 240.305428 134.217235 
L 238.319683 134.473029 
L 236.504256 134.595468 
L 234.88896 134.576481 
L 233.500319 134.417251 
L 232.361128 134.128147 
L 231.490081 133.728036 
L 230.901468 133.243061 
L 230.604937 132.704923 
L 230.605338 132.148811 
L 230.902644 131.611101 
L 231.491954 131.126974 
L 232.363576 130.728119 
L 233.503183 130.440655 
L 234.892052 130.283426 
L 236.507373 130.266764 
L 238.322622 130.391818 
L 240.307996 130.650471 
L 242.430905 131.025875 
L 244.656504 131.493548 
L 246.948266 132.02298 
L 249.268577 132.579621 
L 251.579359 133.127142 
L 253.842688 133.629812 
L 256.021417 134.05483 
L 258.079786 134.374473 
L 259.984009 134.567906 
L 261.702825 134.622544 
L 263.208013 134.534872 
L 264.474855 134.310679 
L 265.482541 133.964674 
L 266.214513 133.519526 
L 266.658737 133.004376 
z
" style="fill:#0000ff;stroke:#000000;stroke-linejoin:miter;"/>
   </g>
   <g id="patch_6">
    <path clip-path="url(#pcca8f57135)" d="M 254.11803 140.597801 
L 188.886047 140.550828 
L 188.882133 145.986827 
L 254.114116 146.033799 
z
" style="fill:#999999;stroke:#000000;stroke-linejoin:miter;"/>
   </g>
   <g id="text_1">
    <!-- t = 2.6 -->
    <defs>
     <path d="M 18.3125 70.21875 
L 18.3125 54.6875 
L 36.8125 54.6875 
L 36.8125 47.703125 
L 18.3125 47.703125 
L 18.3125 18.015625 
Q 18.3125 11.328125 20.140625 9.421875 
Q 21.96875 7.515625 27.59375 7.515625 
L 36.8125 7.515625 
L 36.8125 0 
L 27.59375 0 
Q 17.1875 0 13.234375 3.875 
Q 9.28125 7.765625 9.28125 18.015625 
L 9.28125 47.703125 
L 2.6875 47.703125 
L 2.6875 54.6875 
L 9.28125 54.6875 
L 9.28125 70.21875 
z
" id="DejaVuSans-116"/>
     <path id="DejaVuSans-32"/>
     <path d="M 10.59375 45.40625 
L 73.1875 45.40625 
L 73.1875 37.203125 
L 10.59375 37.203125 
z
M 10.59375 25.484375 
L 73.1875 25.484375 
L 73.1875 17.1875 
L 10.59375 17.1875 
z
" id="DejaVuSans-61"/>
     <path d="M 19.1875 8.296875 
L 53.609375 8.296875 
L 53.609375 0 
L 7.328125 0 
L 7.328125 8.296875 
Q 12.9375 14.109375 22.625 23.890625 
Q 32.328125 33.6875 34.8125 36.53125 
Q 39.546875 41.84375 41.421875 45.53125 
Q 43.3125 49.21875 43.3125 52.78125 
Q 43.3125 58.59375 39.234375 62.25 
Q 35.15625 65.921875 28.609375 65.921875 
Q 23.96875 65.921875 18.8125 64.3125 
Q 13.671875 62.703125 7.8125 59.421875 
L 7.8125 69.390625 
Q 13.765625 71.78125 18.9375 73 
Q 24.125 74.21875 28.421875 74.21875 
Q 39.75 74.21875 46.484375 68.546875 
Q 53.21875 62.890625 53.21875 53.421875 
Q 53.21875 48.921875 51.53125 44.890625 
Q 49.859375 40.875 45.40625 35.40625 
Q 44.1875 33.984375 37.640625 27.21875 
Q 31.109375 20.453125 19.1875 8.296875 
z
" id="DejaVuSans-50"/>
     <path d="M 10.6875 12.40625 
L 21 12.40625 
L 21 0 
L 10.6875 0 
z
" id="DejaVuSans-46"/>
     <path d="M 33.015625 40.375 
Q 26.375 40.375 22.484375 35.828125 
Q 18.609375 31.296875 18.609375 23.390625 
Q 18.609375 15.53125 22.484375 10.953125 
Q 26.375 6.390625 33.015625 6.390625 
Q 39.65625 6.390625 43.53125 10.953125 
Q 47.40625 15.53125 47.40625 23.390625 
Q 47.40625 31.296875 43.53125 35.828125 
Q 39.65625 40.375 33.015625 40.375 
z
M 52.59375 71.296875 
L 52.59375 62.3125 
Q 48.875 64.0625 45.09375 64.984375 
Q 41.3125 65.921875 37.59375 65.921875 
Q 27.828125 65.921875 22.671875 59.328125 
Q 17.53125 52.734375 16.796875 39.40625 
Q 19.671875 43.65625 24.015625 45.921875 
Q 28.375 48.1875 33.59375 48.1875 
Q 44.578125 48.1875 50.953125 41.515625 
Q 57.328125 34.859375 57.328125 23.390625 
Q 57.328125 12.15625 50.6875 5.359375 
Q 44.046875 -1.421875 33.015625 -1.421875 
Q 20.359375 -1.421875 13.671875 8.265625 
Q 6.984375 17.96875 6.984375 36.375 
Q 6.984375 53.65625 15.1875 63.9375 
Q 23.390625 74.21875 37.203125 74.21875 
Q 40.921875 74.21875 44.703125 73.484375 
Q 48.484375 72.75 52.59375 71.296875 
z
" id="DejaVuSans-54"/>
    </defs>
    <g transform="translate(200.664375 28.56)scale(0.12 -0.12)">
     <use xlink:href="#DejaVuSans-116"/>
     <use x="39.208984" xlink:href="#DejaVuSans-32"/>
     <use x="70.996094" xlink:href="#DejaVuSans-61"/>
     <use x="154.785156" xlink:href="#DejaVuSans-32"/>
     <use x="186.572266" xlink:href="#DejaVuSans-50"/>
     <use x="250.195312" xlink:href="#DejaVuSans-46"/>
     <use x="281.982422" xlink:href="#DejaVuSans-54"/>
    </g>
   </g>
  </g>
 </g>
 <defs>
  <clipPath id="pcca8f57135">
   <rect height="217.44" width="334.8" x="54" y="34.56"/>
  </clipPath>
 </defs>
</svg>
