<?xml version="1.0" encoding="utf-8" standalone="no"?>
<!DOCTYPE svg PUBLIC "-//W3C//DTD SVG 1.1//EN"
  "http://www.w3.org/Graphics/SVG/1.1/DTD/svg11.dtd">
<!-- Created with matplotlib (https://matplotlib.org/) -->
<svg height="288pt" version="1.1" viewBox="0 0 432 288" width="432pt" xmlns="http://www.w3.org/2000/svg" xmlns:xlink="http://www.w3.org/1999/xlink">
 <defs>
  <style type="text/css">
*{stroke-linecap:butt;stroke-linejoin:round;}
  </style>
 </defs>
 <g id="figure_1">
  <g id="patch_1">
   <path d="M 0 288 
L 432 288 
L 432 0 
L 0 0 
z
" style="fill:#ffffff;"/>
  </g>
  <g id="axes_1">
   <g id="patch_2">
    <path clip-path="url(#p3a50f21322)" d="M 194.865555 132.378957 
L 194.842643 143.250933 
L 193.755446 143.248642 
L 193.778358 132.376666 
z
" style="stroke:#000000;stroke-linejoin:miter;"/>
   </g>
   <g id="patch_3">
    <path clip-path="url(#p3a50f21322)" d="M 249.225435 132.493516 
L 249.202523 143.365492 
L 248.115325 143.3632 
L 248.138237 132.491224 
z
" style="stroke:#000000;stroke-linejoin:miter;"/>
   </g>
   <g id="patch_4">
    <path clip-path="url(#p3a50f21322)" d="M 212.441916 132.415998 
L 212.294314 131.864139 
L 211.851549 131.347735 
L 211.120839 130.900518 
L 210.114135 130.551665 
L 208.847932 130.323892 
L 207.342998 130.231964 
L 205.624034 130.281741 
L 203.719272 130.46979 
L 201.660007 130.783612 
L 199.480085 131.202468 
L 197.215344 131.698736 
L 194.903023 132.239721 
L 192.581147 132.789799 
L 190.287898 133.312749 
L 188.060985 133.774128 
L 185.937023 134.143527 
L 183.950925 134.396565 
L 182.13533 134.516486 
L 180.520063 134.495258 
L 179.131644 134.334102 
L 177.992854 134.043417 
L 177.122364 133.642099 
L 176.534424 133.156308 
L 176.23864 132.617759 
L 176.239812 132.061648 
L 176.537864 131.52435 
L 177.127845 131.041042 
L 178.000019 130.643396 
L 179.140024 130.357513 
L 180.52911 130.202211 
L 182.144453 130.187791 
L 183.959526 130.315363 
L 185.94454 130.57677 
L 188.066926 130.955118 
L 190.291874 131.425879 
L 192.582899 131.95849 
L 194.902436 132.518349 
L 197.212456 133.069076 
L 199.475085 133.574885 
L 201.653222 134.002925 
L 203.711146 134.325424 
L 205.615099 134.521499 
L 207.333838 134.57852 
L 208.839146 134.492937 
L 210.106298 134.270502 
L 211.114463 133.925896 
L 211.847052 133.481763 
L 212.291989 132.967229 
z
" style="fill:#0000ff;stroke:#000000;stroke-linejoin:miter;"/>
   </g>
   <g id="patch_5">
    <path clip-path="url(#p3a50f21322)" d="M 266.801795 132.530556 
L 266.654193 131.978698 
L 266.211428 131.462294 
L 265.480718 131.015077 
L 264.474014 130.666224 
L 263.207811 130.43845 
L 261.702877 130.346523 
L 259.983913 130.3963 
L 258.079151 130.584348 
L 256.019886 130.89817 
L 253.839964 131.317027 
L 251.575223 131.813295 
L 249.262903 132.35428 
L 246.941026 132.904358 
L 244.647777 133.427308 
L 242.420864 133.888687 
L 240.296902 134.258086 
L 238.310804 134.511124 
L 236.495209 134.631045 
L 234.879942 134.609817 
L 233.491523 134.448661 
L 232.352733 134.157976 
L 231.482243 133.756658 
L 230.894304 133.270867 
L 230.598519 132.732318 
L 230.599691 132.176207 
L 230.897743 131.638909 
L 231.487725 131.155601 
L 232.359899 130.757955 
L 233.499903 130.472072 
L 234.888989 130.31677 
L 236.504332 130.30235 
L 238.319405 130.429922 
L 240.304419 130.691329 
L 242.426805 131.069677 
L 244.651754 131.540438 
L 246.942778 132.073049 
L 249.262315 132.632908 
L 251.572335 133.183634 
L 253.834964 133.689444 
L 256.013101 134.117484 
L 258.071025 134.439983 
L 259.974978 134.636057 
L 261.693717 134.693079 
L 263.199025 134.607496 
L 264.466177 134.385061 
L 265.474342 134.040454 
L 266.206931 133.596321 
L 266.651869 133.081788 
z
" style="fill:#0000ff;stroke:#000000;stroke-linejoin:miter;"/>
   </g>
   <g id="patch_6">
    <path clip-path="url(#p3a50f21322)" d="M 254.10064 140.657808 
L 188.868785 140.520337 
L 188.857329 145.956325 
L 254.089184 146.093796 
z
" style="fill:#999999;stroke:#000000;stroke-linejoin:miter;"/>
   </g>
   <g id="text_1">
    <!-- t = 2.7 -->
    <defs>
     <path d="M 18.3125 70.21875 
L 18.3125 54.6875 
L 36.8125 54.6875 
L 36.8125 47.703125 
L 18.3125 47.703125 
L 18.3125 18.015625 
Q 18.3125 11.328125 20.140625 9.421875 
Q 21.96875 7.515625 27.59375 7.515625 
L 36.8125 7.515625 
L 36.8125 0 
L 27.59375 0 
Q 17.1875 0 13.234375 3.875 
Q 9.28125 7.765625 9.28125 18.015625 
L 9.28125 47.703125 
L 2.6875 47.703125 
L 2.6875 54.6875 
L 9.28125 54.6875 
L 9.28125 70.21875 
z
" id="DejaVuSans-116"/>
     <path id="DejaVuSans-32"/>
     <path d="M 10.59375 45.40625 
L 73.1875 45.40625 
L 73.1875 37.203125 
L 10.59375 37.203125 
z
M 10.59375 25.484375 
L 73.1875 25.484375 
L 73.1875 17.1875 
L 10.59375 17.1875 
z
" id="DejaVuSans-61"/>
     <path d="M 19.1875 8.296875 
L 53.609375 8.296875 
L 53.609375 0 
L 7.328125 0 
L 7.328125 8.296875 
Q 12.9375 14.109375 22.625 23.890625 
Q 32.328125 33.6875 34.8125 36.53125 
Q 39.546875 41.84375 41.421875 45.53125 
Q 43.3125 49.21875 43.3125 52.78125 
Q 43.3125 58.59375 39.234375 62.25 
Q 35.15625 65.921875 28.609375 65.921875 
Q 23.96875 65.921875 18.8125 64.3125 
Q 13.671875 62.703125 7.8125 59.421875 
L 7.8125 69.390625 
Q 13.765625 71.78125 18.9375 73 
Q 24.125 74.21875 28.421875 74.21875 
Q 39.75 74.21875 46.484375 68.546875 
Q 53.21875 62.890625 53.21875 53.421875 
Q 53.21875 48.921875 51.53125 44.890625 
Q 49.859375 40.875 45.40625 35.40625 
Q 44.1875 33.984375 37.640625 27.21875 
Q 31.109375 20.453125 19.1875 8.296875 
z
" id="DejaVuSans-50"/>
     <path d="M 10.6875 12.40625 
L 21 12.40625 
L 21 0 
L 10.6875 0 
z
" id="DejaVuSans-46"/>
     <path d="M 8.203125 72.90625 
L 55.078125 72.90625 
L 55.078125 68.703125 
L 28.609375 0 
L 18.3125 0 
L 43.21875 64.59375 
L 8.203125 64.59375 
z
" id="DejaVuSans-55"/>
    </defs>
    <g transform="translate(200.664375 28.56)scale(0.12 -0.12)">
     <use xlink:href="#DejaVuSans-116"/>
     <use x="39.208984" xlink:href="#DejaVuSans-32"/>
     <use x="70.996094" xlink:href="#DejaVuSans-61"/>
     <use x="154.785156" xlink:href="#DejaVuSans-32"/>
     <use x="186.572266" xlink:href="#DejaVuSans-50"/>
     <use x="250.195312" xlink:href="#DejaVuSans-46"/>
     <use x="281.982422" xlink:href="#DejaVuSans-55"/>
    </g>
   </g>
  </g>
 </g>
 <defs>
  <clipPath id="p3a50f21322">
   <rect height="217.44" width="334.8" x="54" y="34.56"/>
  </clipPath>
 </defs>
</svg>
