<?xml version="1.0" encoding="utf-8" standalone="no"?>
<!DOCTYPE svg PUBLIC "-//W3C//DTD SVG 1.1//EN"
  "http://www.w3.org/Graphics/SVG/1.1/DTD/svg11.dtd">
<!-- Created with matplotlib (https://matplotlib.org/) -->
<svg height="288pt" version="1.1" viewBox="0 0 432 288" width="432pt" xmlns="http://www.w3.org/2000/svg" xmlns:xlink="http://www.w3.org/1999/xlink">
 <defs>
  <style type="text/css">
*{stroke-linecap:butt;stroke-linejoin:round;}
  </style>
 </defs>
 <g id="figure_1">
  <g id="patch_1">
   <path d="M 0 288 
L 432 288 
L 432 0 
L 0 0 
z
" style="fill:#ffffff;"/>
  </g>
  <g id="axes_1">
   <g id="patch_2">
    <path clip-path="url(#pc8b63d1b19)" d="M 194.405049 132.572207 
L 194.446911 143.444126 
L 193.359719 143.448313 
L 193.317857 132.576393 
z
" style="stroke:#000000;stroke-linejoin:miter;"/>
   </g>
   <g id="patch_3">
    <path clip-path="url(#pc8b63d1b19)" d="M 248.764646 132.362898 
L 248.806508 143.234817 
L 247.719316 143.239004 
L 247.677454 132.367084 
z
" style="stroke:#000000;stroke-linejoin:miter;"/>
   </g>
   <g id="patch_4">
    <path clip-path="url(#pc8b63d1b19)" d="M 211.981319 132.50453 
L 211.830431 131.953561 
L 211.384598 131.439804 
L 210.651236 130.996949 
L 209.642472 130.6541 
L 208.374934 130.433874 
L 206.869479 130.350914 
L 205.150842 130.410932 
L 203.247234 130.610325 
L 201.189875 130.93641 
L 199.012487 131.368246 
L 196.750744 131.877999 
L 194.441687 132.432751 
L 192.123129 132.996652 
L 189.833036 133.533255 
L 187.608912 134.007894 
L 185.487188 134.389941 
L 183.502633 134.654807 
L 181.687785 134.785543 
L 180.07242 134.773938 
L 178.683065 134.621057 
L 177.542564 134.337162 
L 176.669698 133.941037 
L 176.078875 133.458758 
L 175.779887 132.921981 
L 175.777746 132.365872 
L 176.072591 131.826809 
L 176.659683 131.339994 
L 177.529473 130.937159 
L 178.667754 130.644489 
L 180.05589 130.480914 
L 181.671118 130.45687 
L 183.486919 130.573626 
L 185.473455 130.823202 
L 187.598058 131.188899 
L 189.825771 131.646396 
L 192.119928 132.165347 
L 194.44276 132.711377 
L 196.75602 133.248331 
L 199.021622 133.740651 
L 201.202271 134.155707 
L 203.26208 134.465939 
L 205.167167 134.650667 
L 206.886215 134.697448 
L 208.390987 134.602898 
L 209.656791 134.372917 
L 210.662885 134.02231 
L 211.392815 133.573821 
L 211.834679 133.056646 
z
" style="fill:#0000ff;stroke:#000000;stroke-linejoin:miter;"/>
   </g>
   <g id="patch_5">
    <path clip-path="url(#pc8b63d1b19)" d="M 266.340916 132.295221 
L 266.190028 131.744252 
L 265.744195 131.230495 
L 265.010833 130.787639 
L 264.002069 130.444791 
L 262.734531 130.224565 
L 261.229076 130.141605 
L 259.510439 130.201623 
L 257.606831 130.401016 
L 255.549472 130.727101 
L 253.372085 131.158937 
L 251.110341 131.66869 
L 248.801284 132.223442 
L 246.482726 132.787343 
L 244.192633 133.323946 
L 241.968509 133.798584 
L 239.846785 134.180632 
L 237.86223 134.445498 
L 236.047382 134.576234 
L 234.432017 134.564629 
L 233.042662 134.411748 
L 231.902161 134.127853 
L 231.029295 133.731728 
L 230.438472 133.249449 
L 230.139484 132.712671 
L 230.137343 132.156563 
L 230.432188 131.6175 
L 231.01928 131.130684 
L 231.88907 130.72785 
L 233.027351 130.43518 
L 234.415487 130.271605 
L 236.030715 130.247561 
L 237.846516 130.364317 
L 239.833052 130.613893 
L 241.957655 130.97959 
L 244.185368 131.437086 
L 246.479525 131.956038 
L 248.802357 132.502068 
L 251.115617 133.039022 
L 253.381219 133.531342 
L 255.561868 133.946398 
L 257.621677 134.25663 
L 259.526764 134.441358 
L 261.245812 134.488139 
L 262.750584 134.393589 
L 264.016388 134.163608 
L 265.022482 133.813001 
L 265.752412 133.364511 
L 266.194276 132.847337 
z
" style="fill:#0000ff;stroke:#000000;stroke-linejoin:miter;"/>
   </g>
   <g id="patch_6">
    <path clip-path="url(#pc8b63d1b19)" d="M 253.688406 140.498 
L 188.45689 140.749171 
L 188.477821 146.18513 
L 253.709337 145.933959 
z
" style="fill:#999999;stroke:#000000;stroke-linejoin:miter;"/>
   </g>
   <g id="text_1">
    <!-- t = 2.4 -->
    <defs>
     <path d="M 18.3125 70.21875 
L 18.3125 54.6875 
L 36.8125 54.6875 
L 36.8125 47.703125 
L 18.3125 47.703125 
L 18.3125 18.015625 
Q 18.3125 11.328125 20.140625 9.421875 
Q 21.96875 7.515625 27.59375 7.515625 
L 36.8125 7.515625 
L 36.8125 0 
L 27.59375 0 
Q 17.1875 0 13.234375 3.875 
Q 9.28125 7.765625 9.28125 18.015625 
L 9.28125 47.703125 
L 2.6875 47.703125 
L 2.6875 54.6875 
L 9.28125 54.6875 
L 9.28125 70.21875 
z
" id="DejaVuSans-116"/>
     <path id="DejaVuSans-32"/>
     <path d="M 10.59375 45.40625 
L 73.1875 45.40625 
L 73.1875 37.203125 
L 10.59375 37.203125 
z
M 10.59375 25.484375 
L 73.1875 25.484375 
L 73.1875 17.1875 
L 10.59375 17.1875 
z
" id="DejaVuSans-61"/>
     <path d="M 19.1875 8.296875 
L 53.609375 8.296875 
L 53.609375 0 
L 7.328125 0 
L 7.328125 8.296875 
Q 12.9375 14.109375 22.625 23.890625 
Q 32.328125 33.6875 34.8125 36.53125 
Q 39.546875 41.84375 41.421875 45.53125 
Q 43.3125 49.21875 43.3125 52.78125 
Q 43.3125 58.59375 39.234375 62.25 
Q 35.15625 65.921875 28.609375 65.921875 
Q 23.96875 65.921875 18.8125 64.3125 
Q 13.671875 62.703125 7.8125 59.421875 
L 7.8125 69.390625 
Q 13.765625 71.78125 18.9375 73 
Q 24.125 74.21875 28.421875 74.21875 
Q 39.75 74.21875 46.484375 68.546875 
Q 53.21875 62.890625 53.21875 53.421875 
Q 53.21875 48.921875 51.53125 44.890625 
Q 49.859375 40.875 45.40625 35.40625 
Q 44.1875 33.984375 37.640625 27.21875 
Q 31.109375 20.453125 19.1875 8.296875 
z
" id="DejaVuSans-50"/>
     <path d="M 10.6875 12.40625 
L 21 12.40625 
L 21 0 
L 10.6875 0 
z
" id="DejaVuSans-46"/>
     <path d="M 37.796875 64.3125 
L 12.890625 25.390625 
L 37.796875 25.390625 
z
M 35.203125 72.90625 
L 47.609375 72.90625 
L 47.609375 25.390625 
L 58.015625 25.390625 
L 58.015625 17.1875 
L 47.609375 17.1875 
L 47.609375 0 
L 37.796875 0 
L 37.796875 17.1875 
L 4.890625 17.1875 
L 4.890625 26.703125 
z
" id="DejaVuSans-52"/>
    </defs>
    <g transform="translate(200.664375 28.56)scale(0.12 -0.12)">
     <use xlink:href="#DejaVuSans-116"/>
     <use x="39.208984" xlink:href="#DejaVuSans-32"/>
     <use x="70.996094" xlink:href="#DejaVuSans-61"/>
     <use x="154.785156" xlink:href="#DejaVuSans-32"/>
     <use x="186.572266" xlink:href="#DejaVuSans-50"/>
     <use x="250.195312" xlink:href="#DejaVuSans-46"/>
     <use x="281.982422" xlink:href="#DejaVuSans-52"/>
    </g>
   </g>
  </g>
 </g>
 <defs>
  <clipPath id="pc8b63d1b19">
   <rect height="217.44" width="334.8" x="54" y="34.56"/>
  </clipPath>
 </defs>
</svg>
