<?xml version="1.0" encoding="utf-8" standalone="no"?>
<!DOCTYPE svg PUBLIC "-//W3C//DTD SVG 1.1//EN"
  "http://www.w3.org/Graphics/SVG/1.1/DTD/svg11.dtd">
<!-- Created with matplotlib (https://matplotlib.org/) -->
<svg height="288pt" version="1.1" viewBox="0 0 432 288" width="432pt" xmlns="http://www.w3.org/2000/svg" xmlns:xlink="http://www.w3.org/1999/xlink">
 <defs>
  <style type="text/css">
*{stroke-linecap:butt;stroke-linejoin:round;}
  </style>
 </defs>
 <g id="figure_1">
  <g id="patch_1">
   <path d="M 0 288 
L 432 288 
L 432 0 
L 0 0 
z
" style="fill:#ffffff;"/>
  </g>
  <g id="axes_1">
   <g id="patch_2">
    <path clip-path="url(#p2a63413fbd)" d="M 194.757341 132.412209 
L 194.759002 143.284209 
L 193.671802 143.284375 
L 193.670141 132.412375 
z
" style="stroke:#000000;stroke-linejoin:miter;"/>
   </g>
   <g id="patch_3">
    <path clip-path="url(#p2a63413fbd)" d="M 249.11734 132.403903 
L 249.119002 143.275903 
L 248.031802 143.276069 
L 248.03014 132.404069 
z
" style="stroke:#000000;stroke-linejoin:miter;"/>
   </g>
   <g id="patch_4">
    <path clip-path="url(#p2a63413fbd)" d="M 212.333741 132.409524 
L 212.184892 131.858 
L 211.740961 131.342598 
L 211.009241 130.897034 
L 210.001752 130.550457 
L 208.735037 130.325546 
L 207.229899 130.237021 
L 205.511052 130.290683 
L 203.60672 130.483035 
L 201.548169 130.801511 
L 199.3692 131.225293 
L 197.105586 131.726679 
L 194.794494 132.272889 
L 192.473867 132.828213 
L 190.181806 133.356345 
L 187.955942 133.822756 
L 185.83282 134.196955 
L 183.847299 134.454482 
L 182.03198 134.578506 
L 180.416668 134.560928 
L 179.027889 134.402911 
L 177.888445 134.114801 
L 177.01705 133.715451 
L 176.428014 133.23099 
L 176.131013 132.693111 
L 176.130928 132.136999 
L 176.427765 131.599029 
L 177.016652 131.114388 
L 177.887926 130.714772 
L 179.027281 130.426314 
L 180.416012 130.267872 
L 182.031318 130.249801 
L 183.846675 130.37327 
L 185.832275 130.63019 
L 187.955511 131.003741 
L 190.181518 131.469471 
L 192.47374 131.996903 
L 194.794537 132.551518 
L 197.105796 133.097022 
L 199.369562 133.597715 
L 201.548661 134.020832 
L 203.607309 134.338678 
L 205.5117 134.530449 
L 207.230563 134.583586 
L 208.735674 134.494601 
L 210.00232 134.269302 
L 211.009704 133.922418 
L 211.741287 133.47663 
L 212.18506 132.961093 
z
" style="fill:#0000ff;stroke:#000000;stroke-linejoin:miter;"/>
   </g>
   <g id="patch_5">
    <path clip-path="url(#p2a63413fbd)" d="M 266.69374 132.401218 
L 266.544891 131.849694 
L 266.10096 131.334292 
L 265.369241 130.888728 
L 264.361751 130.542151 
L 263.095037 130.31724 
L 261.589898 130.228715 
L 259.871052 130.282377 
L 257.966719 130.474729 
L 255.908169 130.793205 
L 253.729199 131.216987 
L 251.465586 131.718373 
L 249.154494 132.264583 
L 246.833867 132.819907 
L 244.541805 133.348039 
L 242.315941 133.81445 
L 240.192819 134.188649 
L 238.207298 134.446176 
L 236.391979 134.5702 
L 234.776668 134.552622 
L 233.387888 134.394605 
L 232.248444 134.106495 
L 231.377049 133.707145 
L 230.788013 133.222684 
L 230.491013 132.684805 
L 230.490928 132.128693 
L 230.787764 131.590723 
L 231.376652 131.106082 
L 232.247925 130.706466 
L 233.38728 130.418008 
L 234.776012 130.259566 
L 236.391318 130.241495 
L 238.206675 130.364964 
L 240.192274 130.621884 
L 242.31551 130.995435 
L 244.541517 131.461165 
L 246.83374 131.988597 
L 249.154536 132.543212 
L 251.465795 133.088716 
L 253.729561 133.58941 
L 255.90866 134.012526 
L 257.967308 134.330372 
L 259.871699 134.522143 
L 261.590563 134.57528 
L 263.095674 134.486295 
L 264.362319 134.260996 
L 265.369703 133.914112 
L 266.101286 133.468324 
L 266.54506 132.952787 
z
" style="fill:#0000ff;stroke:#000000;stroke-linejoin:miter;"/>
   </g>
   <g id="patch_6">
    <path clip-path="url(#p2a63413fbd)" d="M 254.010986 140.557156 
L 188.778987 140.567123 
L 188.779818 146.003123 
L 254.011817 145.993155 
z
" style="fill:#999999;stroke:#000000;stroke-linejoin:miter;"/>
   </g>
   <g id="text_1">
    <!-- t = 3.7 -->
    <defs>
     <path d="M 18.3125 70.21875 
L 18.3125 54.6875 
L 36.8125 54.6875 
L 36.8125 47.703125 
L 18.3125 47.703125 
L 18.3125 18.015625 
Q 18.3125 11.328125 20.140625 9.421875 
Q 21.96875 7.515625 27.59375 7.515625 
L 36.8125 7.515625 
L 36.8125 0 
L 27.59375 0 
Q 17.1875 0 13.234375 3.875 
Q 9.28125 7.765625 9.28125 18.015625 
L 9.28125 47.703125 
L 2.6875 47.703125 
L 2.6875 54.6875 
L 9.28125 54.6875 
L 9.28125 70.21875 
z
" id="DejaVuSans-116"/>
     <path id="DejaVuSans-32"/>
     <path d="M 10.59375 45.40625 
L 73.1875 45.40625 
L 73.1875 37.203125 
L 10.59375 37.203125 
z
M 10.59375 25.484375 
L 73.1875 25.484375 
L 73.1875 17.1875 
L 10.59375 17.1875 
z
" id="DejaVuSans-61"/>
     <path d="M 40.578125 39.3125 
Q 47.65625 37.796875 51.625 33 
Q 55.609375 28.21875 55.609375 21.1875 
Q 55.609375 10.40625 48.1875 4.484375 
Q 40.765625 -1.421875 27.09375 -1.421875 
Q 22.515625 -1.421875 17.65625 -0.515625 
Q 12.796875 0.390625 7.625 2.203125 
L 7.625 11.71875 
Q 11.71875 9.328125 16.59375 8.109375 
Q 21.484375 6.890625 26.8125 6.890625 
Q 36.078125 6.890625 40.9375 10.546875 
Q 45.796875 14.203125 45.796875 21.1875 
Q 45.796875 27.640625 41.28125 31.265625 
Q 36.765625 34.90625 28.71875 34.90625 
L 20.21875 34.90625 
L 20.21875 43.015625 
L 29.109375 43.015625 
Q 36.375 43.015625 40.234375 45.921875 
Q 44.09375 48.828125 44.09375 54.296875 
Q 44.09375 59.90625 40.109375 62.90625 
Q 36.140625 65.921875 28.71875 65.921875 
Q 24.65625 65.921875 20.015625 65.03125 
Q 15.375 64.15625 9.8125 62.3125 
L 9.8125 71.09375 
Q 15.4375 72.65625 20.34375 73.4375 
Q 25.25 74.21875 29.59375 74.21875 
Q 40.828125 74.21875 47.359375 69.109375 
Q 53.90625 64.015625 53.90625 55.328125 
Q 53.90625 49.265625 50.4375 45.09375 
Q 46.96875 40.921875 40.578125 39.3125 
z
" id="DejaVuSans-51"/>
     <path d="M 10.6875 12.40625 
L 21 12.40625 
L 21 0 
L 10.6875 0 
z
" id="DejaVuSans-46"/>
     <path d="M 8.203125 72.90625 
L 55.078125 72.90625 
L 55.078125 68.703125 
L 28.609375 0 
L 18.3125 0 
L 43.21875 64.59375 
L 8.203125 64.59375 
z
" id="DejaVuSans-55"/>
    </defs>
    <g transform="translate(200.664375 28.56)scale(0.12 -0.12)">
     <use xlink:href="#DejaVuSans-116"/>
     <use x="39.208984" xlink:href="#DejaVuSans-32"/>
     <use x="70.996094" xlink:href="#DejaVuSans-61"/>
     <use x="154.785156" xlink:href="#DejaVuSans-32"/>
     <use x="186.572266" xlink:href="#DejaVuSans-51"/>
     <use x="250.195312" xlink:href="#DejaVuSans-46"/>
     <use x="281.982422" xlink:href="#DejaVuSans-55"/>
    </g>
   </g>
  </g>
 </g>
 <defs>
  <clipPath id="p2a63413fbd">
   <rect height="217.44" width="334.8" x="54" y="34.56"/>
  </clipPath>
 </defs>
</svg>
