<?xml version="1.0" encoding="utf-8" standalone="no"?>
<!DOCTYPE svg PUBLIC "-//W3C//DTD SVG 1.1//EN"
  "http://www.w3.org/Graphics/SVG/1.1/DTD/svg11.dtd">
<!-- Created with matplotlib (https://matplotlib.org/) -->
<svg height="288pt" version="1.1" viewBox="0 0 432 288" width="432pt" xmlns="http://www.w3.org/2000/svg" xmlns:xlink="http://www.w3.org/1999/xlink">
 <defs>
  <style type="text/css">
*{stroke-linecap:butt;stroke-linejoin:round;}
  </style>
 </defs>
 <g id="figure_1">
  <g id="patch_1">
   <path d="M 0 288 
L 432 288 
L 432 0 
L 0 0 
z
" style="fill:#ffffff;"/>
  </g>
  <g id="axes_1">
   <g id="patch_2">
    <path clip-path="url(#p0b8dc4b312)" d="M 194.744144 132.447286 
L 194.755418 143.31928 
L 193.668218 143.320407 
L 193.656945 132.448413 
z
" style="stroke:#000000;stroke-linejoin:miter;"/>
   </g>
   <g id="patch_3">
    <path clip-path="url(#p0b8dc4b312)" d="M 249.104115 132.390917 
L 249.115389 143.262911 
L 248.028189 143.264039 
L 248.016915 132.392045 
z
" style="stroke:#000000;stroke-linejoin:miter;"/>
   </g>
   <g id="patch_4">
    <path clip-path="url(#p0b8dc4b312)" d="M 212.320535 132.42906 
L 212.171198 131.877668 
L 211.726811 131.362659 
L 210.994698 130.917742 
L 209.986903 130.572056 
L 208.71999 130.348265 
L 207.214774 130.26107 
L 205.495975 130.316252 
L 203.591814 130.510289 
L 201.533545 130.830584 
L 199.354951 131.256293 
L 197.091782 131.75968 
L 194.781174 132.307933 
L 192.461039 132.865309 
L 190.169445 133.395467 
L 187.943995 133.863846 
L 185.821204 134.239922 
L 183.835912 134.499204 
L 182.020703 134.624833 
L 180.405377 134.608683 
L 179.016458 134.451894 
L 177.87676 134.164792 
L 177.005012 133.766212 
L 176.415548 133.282272 
L 176.118072 132.744656 
L 176.117495 132.188544 
L 176.413856 131.650312 
L 177.002315 131.165151 
L 177.873234 130.764765 
L 179.012334 130.475299 
L 180.400925 130.31563 
L 182.016214 130.29613 
L 183.83168 130.417994 
L 185.817506 130.673159 
L 187.941071 131.044831 
L 190.167489 131.508594 
L 192.460177 132.033998 
L 194.781463 132.586561 
L 197.093203 133.130021 
L 199.357411 133.628714 
L 201.536884 134.049903 
L 203.595812 134.365929 
L 205.500372 134.556016 
L 207.219281 134.607634 
L 208.724313 134.517317 
L 209.990759 134.290899 
L 210.997836 133.943124 
L 211.729024 133.49669 
L 212.172342 132.98076 
z
" style="fill:#0000ff;stroke:#000000;stroke-linejoin:miter;"/>
   </g>
   <g id="patch_5">
    <path clip-path="url(#p0b8dc4b312)" d="M 266.680505 132.372691 
L 266.531169 131.821299 
L 266.086782 131.30629 
L 265.354669 130.861373 
L 264.346873 130.515688 
L 263.079961 130.291896 
L 261.574745 130.204702 
L 259.855946 130.259884 
L 257.951784 130.45392 
L 255.893516 130.774216 
L 253.714922 131.199924 
L 251.451753 131.703311 
L 249.141145 132.251564 
L 246.82101 132.80894 
L 244.529416 133.339098 
L 242.303965 133.807477 
L 240.181175 134.183553 
L 238.195883 134.442835 
L 236.380674 134.568464 
L 234.765348 134.552315 
L 233.376429 134.395526 
L 232.236731 134.108423 
L 231.364983 133.709844 
L 230.775519 133.225904 
L 230.478043 132.688288 
L 230.477466 132.132176 
L 230.773827 131.593944 
L 231.362286 131.108782 
L 232.233205 130.708396 
L 233.372305 130.41893 
L 234.760896 130.259261 
L 236.376185 130.239762 
L 238.191651 130.361626 
L 240.177477 130.61679 
L 242.301042 130.988463 
L 244.52746 131.452226 
L 246.820148 131.97763 
L 249.141434 132.530193 
L 251.453174 133.073653 
L 253.717382 133.572345 
L 255.896854 133.993535 
L 257.955782 134.309561 
L 259.860342 134.499648 
L 261.579252 134.551265 
L 263.084284 134.460949 
L 264.35073 134.234531 
L 265.357806 133.886756 
L 266.088995 133.440322 
L 266.532312 132.924392 
z
" style="fill:#0000ff;stroke:#000000;stroke-linejoin:miter;"/>
   </g>
   <g id="patch_6">
    <path clip-path="url(#p0b8dc4b312)" d="M 254.004967 140.53984 
L 188.773003 140.607482 
L 188.778639 146.043479 
L 254.010604 145.975837 
z
" style="fill:#999999;stroke:#000000;stroke-linejoin:miter;"/>
   </g>
   <g id="text_1">
    <!-- t = 2.9 -->
    <defs>
     <path d="M 18.3125 70.21875 
L 18.3125 54.6875 
L 36.8125 54.6875 
L 36.8125 47.703125 
L 18.3125 47.703125 
L 18.3125 18.015625 
Q 18.3125 11.328125 20.140625 9.421875 
Q 21.96875 7.515625 27.59375 7.515625 
L 36.8125 7.515625 
L 36.8125 0 
L 27.59375 0 
Q 17.1875 0 13.234375 3.875 
Q 9.28125 7.765625 9.28125 18.015625 
L 9.28125 47.703125 
L 2.6875 47.703125 
L 2.6875 54.6875 
L 9.28125 54.6875 
L 9.28125 70.21875 
z
" id="DejaVuSans-116"/>
     <path id="DejaVuSans-32"/>
     <path d="M 10.59375 45.40625 
L 73.1875 45.40625 
L 73.1875 37.203125 
L 10.59375 37.203125 
z
M 10.59375 25.484375 
L 73.1875 25.484375 
L 73.1875 17.1875 
L 10.59375 17.1875 
z
" id="DejaVuSans-61"/>
     <path d="M 19.1875 8.296875 
L 53.609375 8.296875 
L 53.609375 0 
L 7.328125 0 
L 7.328125 8.296875 
Q 12.9375 14.109375 22.625 23.890625 
Q 32.328125 33.6875 34.8125 36.53125 
Q 39.546875 41.84375 41.421875 45.53125 
Q 43.3125 49.21875 43.3125 52.78125 
Q 43.3125 58.59375 39.234375 62.25 
Q 35.15625 65.921875 28.609375 65.921875 
Q 23.96875 65.921875 18.8125 64.3125 
Q 13.671875 62.703125 7.8125 59.421875 
L 7.8125 69.390625 
Q 13.765625 71.78125 18.9375 73 
Q 24.125 74.21875 28.421875 74.21875 
Q 39.75 74.21875 46.484375 68.546875 
Q 53.21875 62.890625 53.21875 53.421875 
Q 53.21875 48.921875 51.53125 44.890625 
Q 49.859375 40.875 45.40625 35.40625 
Q 44.1875 33.984375 37.640625 27.21875 
Q 31.109375 20.453125 19.1875 8.296875 
z
" id="DejaVuSans-50"/>
     <path d="M 10.6875 12.40625 
L 21 12.40625 
L 21 0 
L 10.6875 0 
z
" id="DejaVuSans-46"/>
     <path d="M 10.984375 1.515625 
L 10.984375 10.5 
Q 14.703125 8.734375 18.5 7.8125 
Q 22.3125 6.890625 25.984375 6.890625 
Q 35.75 6.890625 40.890625 13.453125 
Q 46.046875 20.015625 46.78125 33.40625 
Q 43.953125 29.203125 39.59375 26.953125 
Q 35.25 24.703125 29.984375 24.703125 
Q 19.046875 24.703125 12.671875 31.3125 
Q 6.296875 37.9375 6.296875 49.421875 
Q 6.296875 60.640625 12.9375 67.421875 
Q 19.578125 74.21875 30.609375 74.21875 
Q 43.265625 74.21875 49.921875 64.515625 
Q 56.59375 54.828125 56.59375 36.375 
Q 56.59375 19.140625 48.40625 8.859375 
Q 40.234375 -1.421875 26.421875 -1.421875 
Q 22.703125 -1.421875 18.890625 -0.6875 
Q 15.09375 0.046875 10.984375 1.515625 
z
M 30.609375 32.421875 
Q 37.25 32.421875 41.125 36.953125 
Q 45.015625 41.5 45.015625 49.421875 
Q 45.015625 57.28125 41.125 61.84375 
Q 37.25 66.40625 30.609375 66.40625 
Q 23.96875 66.40625 20.09375 61.84375 
Q 16.21875 57.28125 16.21875 49.421875 
Q 16.21875 41.5 20.09375 36.953125 
Q 23.96875 32.421875 30.609375 32.421875 
z
" id="DejaVuSans-57"/>
    </defs>
    <g transform="translate(200.664375 28.56)scale(0.12 -0.12)">
     <use xlink:href="#DejaVuSans-116"/>
     <use x="39.208984" xlink:href="#DejaVuSans-32"/>
     <use x="70.996094" xlink:href="#DejaVuSans-61"/>
     <use x="154.785156" xlink:href="#DejaVuSans-32"/>
     <use x="186.572266" xlink:href="#DejaVuSans-50"/>
     <use x="250.195312" xlink:href="#DejaVuSans-46"/>
     <use x="281.982422" xlink:href="#DejaVuSans-57"/>
    </g>
   </g>
  </g>
 </g>
 <defs>
  <clipPath id="p0b8dc4b312">
   <rect height="217.44" width="334.8" x="54" y="34.56"/>
  </clipPath>
 </defs>
</svg>
