<?xml version="1.0" encoding="utf-8" standalone="no"?>
<!DOCTYPE svg PUBLIC "-//W3C//DTD SVG 1.1//EN"
  "http://www.w3.org/Graphics/SVG/1.1/DTD/svg11.dtd">
<!-- Created with matplotlib (https://matplotlib.org/) -->
<svg height="288pt" version="1.1" viewBox="0 0 432 288" width="432pt" xmlns="http://www.w3.org/2000/svg" xmlns:xlink="http://www.w3.org/1999/xlink">
 <defs>
  <style type="text/css">
*{stroke-linecap:butt;stroke-linejoin:round;}
  </style>
 </defs>
 <g id="figure_1">
  <g id="patch_1">
   <path d="M 0 288 
L 432 288 
L 432 0 
L 0 0 
z
" style="fill:#ffffff;"/>
  </g>
  <g id="axes_1">
   <g id="patch_2">
    <path clip-path="url(#pecacf40e87)" d="M 186.526254 138.100437 
L 187.903419 148.884861 
L 186.824977 149.022577 
L 185.447812 138.238153 
z
" style="stroke:#000000;stroke-linejoin:miter;"/>
   </g>
   <g id="patch_3">
    <path clip-path="url(#pecacf40e87)" d="M 240.448374 131.214613 
L 241.825539 141.999037 
L 240.747097 142.136753 
L 239.369932 131.352329 
z
" style="stroke:#000000;stroke-linejoin:miter;"/>
   </g>
   <g id="patch_4">
    <path clip-path="url(#pecacf40e87)" d="M 203.961073 135.87402 
L 203.743642 135.345761 
L 203.23807 134.890666 
L 202.455858 134.541259 
L 201.412616 134.324935 
L 200.127625 134.262094 
L 198.623382 134.364709 
L 196.925136 134.635407 
L 195.060443 135.067149 
L 193.058728 135.643512 
L 190.950885 136.33957 
L 188.768897 137.123317 
L 186.545482 137.957536 
L 184.313763 138.802001 
L 182.106939 139.615879 
L 179.957971 140.360157 
L 177.899254 140.999964 
L 175.96227 141.506628 
L 174.17723 141.859328 
L 172.572675 142.04626 
L 171.175063 142.06522 
L 170.008325 141.923586 
L 169.093406 141.637694 
L 168.44781 141.231651 
L 168.085144 140.73567 
L 168.014701 140.184037 
L 168.241089 139.612835 
L 168.763928 139.057583 
L 169.57764 138.550946 
L 170.671345 138.120655 
L 172.028871 137.787785 
L 173.62891 137.565492 
L 175.4453 137.458292 
L 177.447449 137.46193 
L 179.600884 137.563849 
L 181.867927 137.744204 
L 184.20846 137.977387 
L 186.580776 138.23392 
L 188.942479 138.482621 
L 191.251402 138.692882 
L 193.466522 138.8369 
L 195.54884 138.891734 
L 197.462191 138.841022 
L 199.173964 138.676263 
L 200.655722 138.397567 
L 201.883685 138.013824 
L 202.839086 137.542274 
L 203.508389 137.007509 
L 203.883371 136.439968 
z
" style="fill:#0000ff;stroke:#000000;stroke-linejoin:miter;"/>
   </g>
   <g id="patch_5">
    <path clip-path="url(#pecacf40e87)" d="M 257.883193 128.988196 
L 257.665762 128.459937 
L 257.16019 128.004842 
L 256.377978 127.655435 
L 255.334736 127.439111 
L 254.049745 127.37627 
L 252.545502 127.478885 
L 250.847256 127.749583 
L 248.982563 128.181325 
L 246.980848 128.757688 
L 244.873005 129.453746 
L 242.691017 130.237493 
L 240.467602 131.071712 
L 238.235883 131.916177 
L 236.029059 132.730055 
L 233.880091 133.474333 
L 231.821374 134.11414 
L 229.88439 134.620804 
L 228.09935 134.973504 
L 226.494795 135.160436 
L 225.097183 135.179396 
L 223.930445 135.037762 
L 223.015526 134.75187 
L 222.36993 134.345827 
L 222.007264 133.849846 
L 221.936821 133.298213 
L 222.163209 132.727011 
L 222.686048 132.171759 
L 223.49976 131.665122 
L 224.593465 131.234831 
L 225.950991 130.901961 
L 227.55103 130.679668 
L 229.36742 130.572468 
L 231.369569 130.576106 
L 233.523004 130.678025 
L 235.790047 130.85838 
L 238.13058 131.091563 
L 240.502896 131.348096 
L 242.864599 131.596797 
L 245.173522 131.807058 
L 247.388642 131.951076 
L 249.47096 132.00591 
L 251.384311 131.955198 
L 253.096084 131.790439 
L 254.577842 131.511743 
L 255.805805 131.128 
L 256.761206 130.65645 
L 257.430509 130.121685 
L 257.805491 129.554144 
z
" style="fill:#0000ff;stroke:#000000;stroke-linejoin:miter;"/>
   </g>
   <g id="patch_6">
    <path clip-path="url(#pecacf40e87)" d="M 246.334239 138.683207 
L 181.627695 146.946195 
L 182.316277 152.338407 
L 247.022821 144.075419 
z
" style="fill:#999999;stroke:#000000;stroke-linejoin:miter;"/>
   </g>
   <g id="text_1">
    <!-- t = 1.3 -->
    <defs>
     <path d="M 18.3125 70.21875 
L 18.3125 54.6875 
L 36.8125 54.6875 
L 36.8125 47.703125 
L 18.3125 47.703125 
L 18.3125 18.015625 
Q 18.3125 11.328125 20.140625 9.421875 
Q 21.96875 7.515625 27.59375 7.515625 
L 36.8125 7.515625 
L 36.8125 0 
L 27.59375 0 
Q 17.1875 0 13.234375 3.875 
Q 9.28125 7.765625 9.28125 18.015625 
L 9.28125 47.703125 
L 2.6875 47.703125 
L 2.6875 54.6875 
L 9.28125 54.6875 
L 9.28125 70.21875 
z
" id="DejaVuSans-116"/>
     <path id="DejaVuSans-32"/>
     <path d="M 10.59375 45.40625 
L 73.1875 45.40625 
L 73.1875 37.203125 
L 10.59375 37.203125 
z
M 10.59375 25.484375 
L 73.1875 25.484375 
L 73.1875 17.1875 
L 10.59375 17.1875 
z
" id="DejaVuSans-61"/>
     <path d="M 12.40625 8.296875 
L 28.515625 8.296875 
L 28.515625 63.921875 
L 10.984375 60.40625 
L 10.984375 69.390625 
L 28.421875 72.90625 
L 38.28125 72.90625 
L 38.28125 8.296875 
L 54.390625 8.296875 
L 54.390625 0 
L 12.40625 0 
z
" id="DejaVuSans-49"/>
     <path d="M 10.6875 12.40625 
L 21 12.40625 
L 21 0 
L 10.6875 0 
z
" id="DejaVuSans-46"/>
     <path d="M 40.578125 39.3125 
Q 47.65625 37.796875 51.625 33 
Q 55.609375 28.21875 55.609375 21.1875 
Q 55.609375 10.40625 48.1875 4.484375 
Q 40.765625 -1.421875 27.09375 -1.421875 
Q 22.515625 -1.421875 17.65625 -0.515625 
Q 12.796875 0.390625 7.625 2.203125 
L 7.625 11.71875 
Q 11.71875 9.328125 16.59375 8.109375 
Q 21.484375 6.890625 26.8125 6.890625 
Q 36.078125 6.890625 40.9375 10.546875 
Q 45.796875 14.203125 45.796875 21.1875 
Q 45.796875 27.640625 41.28125 31.265625 
Q 36.765625 34.90625 28.71875 34.90625 
L 20.21875 34.90625 
L 20.21875 43.015625 
L 29.109375 43.015625 
Q 36.375 43.015625 40.234375 45.921875 
Q 44.09375 48.828125 44.09375 54.296875 
Q 44.09375 59.90625 40.109375 62.90625 
Q 36.140625 65.921875 28.71875 65.921875 
Q 24.65625 65.921875 20.015625 65.03125 
Q 15.375 64.15625 9.8125 62.3125 
L 9.8125 71.09375 
Q 15.4375 72.65625 20.34375 73.4375 
Q 25.25 74.21875 29.59375 74.21875 
Q 40.828125 74.21875 47.359375 69.109375 
Q 53.90625 64.015625 53.90625 55.328125 
Q 53.90625 49.265625 50.4375 45.09375 
Q 46.96875 40.921875 40.578125 39.3125 
z
" id="DejaVuSans-51"/>
    </defs>
    <g transform="translate(200.664375 28.56)scale(0.12 -0.12)">
     <use xlink:href="#DejaVuSans-116"/>
     <use x="39.208984" xlink:href="#DejaVuSans-32"/>
     <use x="70.996094" xlink:href="#DejaVuSans-61"/>
     <use x="154.785156" xlink:href="#DejaVuSans-32"/>
     <use x="186.572266" xlink:href="#DejaVuSans-49"/>
     <use x="250.195312" xlink:href="#DejaVuSans-46"/>
     <use x="281.982422" xlink:href="#DejaVuSans-51"/>
    </g>
   </g>
  </g>
 </g>
 <defs>
  <clipPath id="pecacf40e87">
   <rect height="217.44" width="334.8" x="54" y="34.56"/>
  </clipPath>
 </defs>
</svg>
