<?xml version="1.0" encoding="utf-8" standalone="no"?>
<!DOCTYPE svg PUBLIC "-//W3C//DTD SVG 1.1//EN"
  "http://www.w3.org/Graphics/SVG/1.1/DTD/svg11.dtd">
<!-- Created with matplotlib (https://matplotlib.org/) -->
<svg height="288pt" version="1.1" viewBox="0 0 432 288" width="432pt" xmlns="http://www.w3.org/2000/svg" xmlns:xlink="http://www.w3.org/1999/xlink">
 <defs>
  <style type="text/css">
*{stroke-linecap:butt;stroke-linejoin:round;}
  </style>
 </defs>
 <g id="figure_1">
  <g id="patch_1">
   <path d="M 0 288 
L 432 288 
L 432 0 
L 0 0 
z
" style="fill:#ffffff;"/>
  </g>
  <g id="axes_1">
   <g id="patch_2">
    <path clip-path="url(#p2621c811fa)" d="M 194.756726 132.410248 
L 194.757784 143.282248 
L 193.670584 143.282354 
L 193.669526 132.410354 
z
" style="stroke:#000000;stroke-linejoin:miter;"/>
   </g>
   <g id="patch_3">
    <path clip-path="url(#p2621c811fa)" d="M 249.116726 132.404956 
L 249.117784 143.276956 
L 248.030584 143.277062 
L 248.029526 132.405062 
z
" style="stroke:#000000;stroke-linejoin:miter;"/>
   </g>
   <g id="patch_4">
    <path clip-path="url(#p2621c811fa)" d="M 212.333126 132.408537 
L 212.184307 131.857005 
L 211.740405 131.341579 
L 211.00871 130.895974 
L 210.00124 130.549342 
L 208.734538 130.32436 
L 207.229405 130.235751 
L 205.510555 130.289318 
L 203.606212 130.481565 
L 201.547644 130.799927 
L 199.36865 131.223588 
L 197.105009 131.724848 
L 194.793887 132.27093 
L 192.473229 132.826126 
L 190.181139 133.35413 
L 187.955249 133.820418 
L 185.832106 134.194499 
L 183.846571 134.451916 
L 182.031245 134.575839 
L 180.415934 134.558172 
L 179.027163 134.400078 
L 177.887736 134.111905 
L 177.016363 133.712507 
L 176.427354 133.228013 
L 176.130383 132.690117 
L 176.130329 132.134005 
L 176.427195 131.596052 
L 177.016109 131.111444 
L 177.887405 130.711876 
L 179.026776 130.423481 
L 180.415516 130.265116 
L 182.030823 130.247135 
L 183.846174 130.370704 
L 185.831759 130.627734 
L 187.954974 131.001402 
L 190.180955 131.467257 
L 192.473148 131.994815 
L 194.793914 132.549559 
L 197.105143 133.095191 
L 199.368881 133.59601 
L 201.547957 134.019248 
L 203.606587 134.337208 
L 205.510968 134.529085 
L 207.229828 134.582317 
L 208.734944 134.493415 
L 210.001602 134.268187 
L 211.009005 133.921358 
L 211.740613 133.475611 
L 212.184415 132.960098 
z
" style="fill:#0000ff;stroke:#000000;stroke-linejoin:miter;"/>
   </g>
   <g id="patch_5">
    <path clip-path="url(#p2621c811fa)" d="M 266.693126 132.403246 
L 266.544307 131.851713 
L 266.100405 131.336287 
L 265.36871 130.890682 
L 264.36124 130.54405 
L 263.094538 130.319068 
L 261.589404 130.23046 
L 259.870555 130.284026 
L 257.966211 130.476274 
L 255.907643 130.794635 
L 253.72865 131.218296 
L 251.465009 131.719557 
L 249.153887 132.265639 
L 246.833229 132.820834 
L 244.541138 133.348839 
L 242.315248 133.815126 
L 240.192106 134.189208 
L 238.206571 134.446624 
L 236.391244 134.570548 
L 234.775934 134.552881 
L 233.387163 134.394787 
L 232.247736 134.106613 
L 231.376362 133.707215 
L 230.787353 133.222721 
L 230.490382 132.684826 
L 230.490328 132.128714 
L 230.787195 131.59076 
L 231.376109 131.106152 
L 232.247405 130.706584 
L 233.386776 130.418189 
L 234.775516 130.259824 
L 236.390823 130.241843 
L 238.206173 130.365413 
L 240.191758 130.622443 
L 242.314974 130.996111 
L 244.540955 131.461965 
L 246.833148 131.989523 
L 249.153914 132.544267 
L 251.465143 133.089899 
L 253.728881 133.590719 
L 255.907957 134.013956 
L 257.966587 134.331917 
L 259.870967 134.523793 
L 261.589828 134.577025 
L 263.094944 134.488123 
L 264.361602 134.262895 
L 265.369005 133.916067 
L 266.100613 133.470319 
L 266.544414 132.954807 
z
" style="fill:#0000ff;stroke:#000000;stroke-linejoin:miter;"/>
   </g>
   <g id="patch_6">
    <path clip-path="url(#p2621c811fa)" d="M 254.00992 140.55848 
L 188.77792 140.56483 
L 188.778449 146.00083 
L 254.010449 145.99448 
z
" style="fill:#999999;stroke:#000000;stroke-linejoin:miter;"/>
   </g>
   <g id="text_1">
    <!-- t = 3.4 -->
    <defs>
     <path d="M 18.3125 70.21875 
L 18.3125 54.6875 
L 36.8125 54.6875 
L 36.8125 47.703125 
L 18.3125 47.703125 
L 18.3125 18.015625 
Q 18.3125 11.328125 20.140625 9.421875 
Q 21.96875 7.515625 27.59375 7.515625 
L 36.8125 7.515625 
L 36.8125 0 
L 27.59375 0 
Q 17.1875 0 13.234375 3.875 
Q 9.28125 7.765625 9.28125 18.015625 
L 9.28125 47.703125 
L 2.6875 47.703125 
L 2.6875 54.6875 
L 9.28125 54.6875 
L 9.28125 70.21875 
z
" id="DejaVuSans-116"/>
     <path id="DejaVuSans-32"/>
     <path d="M 10.59375 45.40625 
L 73.1875 45.40625 
L 73.1875 37.203125 
L 10.59375 37.203125 
z
M 10.59375 25.484375 
L 73.1875 25.484375 
L 73.1875 17.1875 
L 10.59375 17.1875 
z
" id="DejaVuSans-61"/>
     <path d="M 40.578125 39.3125 
Q 47.65625 37.796875 51.625 33 
Q 55.609375 28.21875 55.609375 21.1875 
Q 55.609375 10.40625 48.1875 4.484375 
Q 40.765625 -1.421875 27.09375 -1.421875 
Q 22.515625 -1.421875 17.65625 -0.515625 
Q 12.796875 0.390625 7.625 2.203125 
L 7.625 11.71875 
Q 11.71875 9.328125 16.59375 8.109375 
Q 21.484375 6.890625 26.8125 6.890625 
Q 36.078125 6.890625 40.9375 10.546875 
Q 45.796875 14.203125 45.796875 21.1875 
Q 45.796875 27.640625 41.28125 31.265625 
Q 36.765625 34.90625 28.71875 34.90625 
L 20.21875 34.90625 
L 20.21875 43.015625 
L 29.109375 43.015625 
Q 36.375 43.015625 40.234375 45.921875 
Q 44.09375 48.828125 44.09375 54.296875 
Q 44.09375 59.90625 40.109375 62.90625 
Q 36.140625 65.921875 28.71875 65.921875 
Q 24.65625 65.921875 20.015625 65.03125 
Q 15.375 64.15625 9.8125 62.3125 
L 9.8125 71.09375 
Q 15.4375 72.65625 20.34375 73.4375 
Q 25.25 74.21875 29.59375 74.21875 
Q 40.828125 74.21875 47.359375 69.109375 
Q 53.90625 64.015625 53.90625 55.328125 
Q 53.90625 49.265625 50.4375 45.09375 
Q 46.96875 40.921875 40.578125 39.3125 
z
" id="DejaVuSans-51"/>
     <path d="M 10.6875 12.40625 
L 21 12.40625 
L 21 0 
L 10.6875 0 
z
" id="DejaVuSans-46"/>
     <path d="M 37.796875 64.3125 
L 12.890625 25.390625 
L 37.796875 25.390625 
z
M 35.203125 72.90625 
L 47.609375 72.90625 
L 47.609375 25.390625 
L 58.015625 25.390625 
L 58.015625 17.1875 
L 47.609375 17.1875 
L 47.609375 0 
L 37.796875 0 
L 37.796875 17.1875 
L 4.890625 17.1875 
L 4.890625 26.703125 
z
" id="DejaVuSans-52"/>
    </defs>
    <g transform="translate(200.664375 28.56)scale(0.12 -0.12)">
     <use xlink:href="#DejaVuSans-116"/>
     <use x="39.208984" xlink:href="#DejaVuSans-32"/>
     <use x="70.996094" xlink:href="#DejaVuSans-61"/>
     <use x="154.785156" xlink:href="#DejaVuSans-32"/>
     <use x="186.572266" xlink:href="#DejaVuSans-51"/>
     <use x="250.195312" xlink:href="#DejaVuSans-46"/>
     <use x="281.982422" xlink:href="#DejaVuSans-52"/>
    </g>
   </g>
  </g>
 </g>
 <defs>
  <clipPath id="p2621c811fa">
   <rect height="217.44" width="334.8" x="54" y="34.56"/>
  </clipPath>
 </defs>
</svg>
