<?xml version="1.0" encoding="utf-8" standalone="no"?>
<!DOCTYPE svg PUBLIC "-//W3C//DTD SVG 1.1//EN"
  "http://www.w3.org/Graphics/SVG/1.1/DTD/svg11.dtd">
<!-- Created with matplotlib (https://matplotlib.org/) -->
<svg height="288pt" version="1.1" viewBox="0 0 432 288" width="432pt" xmlns="http://www.w3.org/2000/svg" xmlns:xlink="http://www.w3.org/1999/xlink">
 <defs>
  <style type="text/css">
*{stroke-linecap:butt;stroke-linejoin:round;}
  </style>
 </defs>
 <g id="figure_1">
  <g id="patch_1">
   <path d="M 0 288 
L 432 288 
L 432 0 
L 0 0 
z
" style="fill:#ffffff;"/>
  </g>
  <g id="axes_1">
   <g id="patch_2">
    <path clip-path="url(#pfe71c2435e)" d="M 195.796578 132.95199 
L 195.895394 143.823541 
L 194.808239 143.833423 
L 194.709423 132.961872 
z
" style="stroke:#000000;stroke-linejoin:miter;"/>
   </g>
   <g id="patch_3">
    <path clip-path="url(#pfe71c2435e)" d="M 250.154333 132.457913 
L 250.253148 143.329464 
L 249.165993 143.339346 
L 249.067178 132.467795 
z
" style="stroke:#000000;stroke-linejoin:miter;"/>
   </g>
   <g id="patch_4">
    <path clip-path="url(#pfe71c2435e)" d="M 213.372252 132.792239 
L 213.21848 132.242067 
L 212.769962 131.730653 
L 212.03429 131.291645 
L 211.023743 130.954086 
L 209.755069 130.740503 
L 208.2492 130.665431 
L 206.530902 130.734451 
L 204.628364 130.943814 
L 202.572742 131.280672 
L 200.397646 131.723909 
L 198.138604 132.245503 
L 195.832485 132.812344 
L 193.516913 133.388383 
L 191.229663 133.936976 
L 189.008055 134.42326 
L 186.888362 134.816416 
L 184.905222 135.091676 
L 183.091084 135.231917 
L 181.47568 135.228775 
L 180.085543 135.083174 
L 178.943571 134.805258 
L 178.068641 134.413711 
L 177.4753 133.934533 
L 177.173504 133.39933 
L 177.16845 132.84324 
L 177.460467 132.302639 
L 178.045 131.812755 
L 178.912668 131.40537 
L 180.0494 131.106741 
L 181.43666 130.935896 
L 183.05174 130.903391 
L 184.868128 131.010633 
L 186.855944 131.249799 
L 188.982433 131.60436 
L 191.212513 132.050181 
L 193.509357 132.557107 
L 195.835018 133.090961 
L 198.151059 133.615789 
L 200.419209 134.096234 
L 202.602002 134.49986 
L 204.663408 134.799298 
L 206.569437 134.974043 
L 208.288706 135.011817 
L 209.792962 134.909386 
L 211.057544 134.672777 
L 212.061787 134.316905 
L 212.789358 133.864597 
L 213.228506 133.345115 
z
" style="fill:#0000ff;stroke:#000000;stroke-linejoin:miter;"/>
   </g>
   <g id="patch_5">
    <path clip-path="url(#pfe71c2435e)" d="M 267.730007 132.298162 
L 267.576235 131.74799 
L 267.127716 131.236576 
L 266.392044 130.797568 
L 265.381498 130.460009 
L 264.112824 130.246426 
L 262.606955 130.171354 
L 260.888656 130.240374 
L 258.986119 130.449737 
L 256.930496 130.786595 
L 254.755401 131.229832 
L 252.496358 131.751426 
L 250.19024 132.318267 
L 247.874668 132.894306 
L 245.587417 133.442899 
L 243.36581 133.929183 
L 241.246117 134.322339 
L 239.262977 134.597599 
L 237.448838 134.73784 
L 235.833434 134.734698 
L 234.443298 134.589097 
L 233.301325 134.311181 
L 232.426396 133.919634 
L 231.833054 133.440456 
L 231.531259 132.905253 
L 231.526204 132.349163 
L 231.818222 131.808562 
L 232.402755 131.318678 
L 233.270422 130.911292 
L 234.407155 130.612664 
L 235.794415 130.441819 
L 237.409495 130.409314 
L 239.225883 130.516556 
L 241.213699 130.755722 
L 243.340188 131.110283 
L 245.570268 131.556104 
L 247.867112 132.06303 
L 250.192772 132.596884 
L 252.508813 133.121712 
L 254.776964 133.602156 
L 256.959757 134.005783 
L 259.021163 134.305221 
L 260.927191 134.479966 
L 262.646461 134.51774 
L 264.150717 134.415309 
L 265.415298 134.1787 
L 266.419542 133.822827 
L 267.147112 133.37052 
L 267.586261 132.851037 
z
" style="fill:#0000ff;stroke:#000000;stroke-linejoin:miter;"/>
   </g>
   <g id="patch_6">
    <path clip-path="url(#pfe71c2435e)" d="M 255.120642 140.567109 
L 189.891337 141.160002 
L 189.940744 146.595777 
L 255.17005 146.002885 
z
" style="fill:#999999;stroke:#000000;stroke-linejoin:miter;"/>
   </g>
   <g id="text_1">
    <!-- t = 2.0 -->
    <defs>
     <path d="M 18.3125 70.21875 
L 18.3125 54.6875 
L 36.8125 54.6875 
L 36.8125 47.703125 
L 18.3125 47.703125 
L 18.3125 18.015625 
Q 18.3125 11.328125 20.140625 9.421875 
Q 21.96875 7.515625 27.59375 7.515625 
L 36.8125 7.515625 
L 36.8125 0 
L 27.59375 0 
Q 17.1875 0 13.234375 3.875 
Q 9.28125 7.765625 9.28125 18.015625 
L 9.28125 47.703125 
L 2.6875 47.703125 
L 2.6875 54.6875 
L 9.28125 54.6875 
L 9.28125 70.21875 
z
" id="DejaVuSans-116"/>
     <path id="DejaVuSans-32"/>
     <path d="M 10.59375 45.40625 
L 73.1875 45.40625 
L 73.1875 37.203125 
L 10.59375 37.203125 
z
M 10.59375 25.484375 
L 73.1875 25.484375 
L 73.1875 17.1875 
L 10.59375 17.1875 
z
" id="DejaVuSans-61"/>
     <path d="M 19.1875 8.296875 
L 53.609375 8.296875 
L 53.609375 0 
L 7.328125 0 
L 7.328125 8.296875 
Q 12.9375 14.109375 22.625 23.890625 
Q 32.328125 33.6875 34.8125 36.53125 
Q 39.546875 41.84375 41.421875 45.53125 
Q 43.3125 49.21875 43.3125 52.78125 
Q 43.3125 58.59375 39.234375 62.25 
Q 35.15625 65.921875 28.609375 65.921875 
Q 23.96875 65.921875 18.8125 64.3125 
Q 13.671875 62.703125 7.8125 59.421875 
L 7.8125 69.390625 
Q 13.765625 71.78125 18.9375 73 
Q 24.125 74.21875 28.421875 74.21875 
Q 39.75 74.21875 46.484375 68.546875 
Q 53.21875 62.890625 53.21875 53.421875 
Q 53.21875 48.921875 51.53125 44.890625 
Q 49.859375 40.875 45.40625 35.40625 
Q 44.1875 33.984375 37.640625 27.21875 
Q 31.109375 20.453125 19.1875 8.296875 
z
" id="DejaVuSans-50"/>
     <path d="M 10.6875 12.40625 
L 21 12.40625 
L 21 0 
L 10.6875 0 
z
" id="DejaVuSans-46"/>
     <path d="M 31.78125 66.40625 
Q 24.171875 66.40625 20.328125 58.90625 
Q 16.5 51.421875 16.5 36.375 
Q 16.5 21.390625 20.328125 13.890625 
Q 24.171875 6.390625 31.78125 6.390625 
Q 39.453125 6.390625 43.28125 13.890625 
Q 47.125 21.390625 47.125 36.375 
Q 47.125 51.421875 43.28125 58.90625 
Q 39.453125 66.40625 31.78125 66.40625 
z
M 31.78125 74.21875 
Q 44.046875 74.21875 50.515625 64.515625 
Q 56.984375 54.828125 56.984375 36.375 
Q 56.984375 17.96875 50.515625 8.265625 
Q 44.046875 -1.421875 31.78125 -1.421875 
Q 19.53125 -1.421875 13.0625 8.265625 
Q 6.59375 17.96875 6.59375 36.375 
Q 6.59375 54.828125 13.0625 64.515625 
Q 19.53125 74.21875 31.78125 74.21875 
z
" id="DejaVuSans-48"/>
    </defs>
    <g transform="translate(200.664375 28.56)scale(0.12 -0.12)">
     <use xlink:href="#DejaVuSans-116"/>
     <use x="39.208984" xlink:href="#DejaVuSans-32"/>
     <use x="70.996094" xlink:href="#DejaVuSans-61"/>
     <use x="154.785156" xlink:href="#DejaVuSans-32"/>
     <use x="186.572266" xlink:href="#DejaVuSans-50"/>
     <use x="250.195312" xlink:href="#DejaVuSans-46"/>
     <use x="281.982422" xlink:href="#DejaVuSans-48"/>
    </g>
   </g>
  </g>
 </g>
 <defs>
  <clipPath id="pfe71c2435e">
   <rect height="217.44" width="334.8" x="54" y="34.56"/>
  </clipPath>
 </defs>
</svg>
