<?xml version="1.0" encoding="utf-8" standalone="no"?>
<!DOCTYPE svg PUBLIC "-//W3C//DTD SVG 1.1//EN"
  "http://www.w3.org/Graphics/SVG/1.1/DTD/svg11.dtd">
<!-- Created with matplotlib (https://matplotlib.org/) -->
<svg height="288pt" version="1.1" viewBox="0 0 432 288" width="432pt" xmlns="http://www.w3.org/2000/svg" xmlns:xlink="http://www.w3.org/1999/xlink">
 <defs>
  <style type="text/css">
*{stroke-linecap:butt;stroke-linejoin:round;}
  </style>
 </defs>
 <g id="figure_1">
  <g id="patch_1">
   <path d="M 0 288 
L 432 288 
L 432 0 
L 0 0 
z
" style="fill:#ffffff;"/>
  </g>
  <g id="axes_1">
   <g id="patch_2">
    <path clip-path="url(#p44c66f3bf6)" d="M 199.060845 134.47087 
L 198.280698 145.314844 
L 197.1963 145.236829 
L 197.976448 134.392856 
z
" style="stroke:#000000;stroke-linejoin:miter;"/>
   </g>
   <g id="patch_3">
    <path clip-path="url(#p44c66f3bf6)" d="M 253.280711 138.371608 
L 252.500564 149.215581 
L 251.416166 149.137566 
L 252.196314 138.293593 
z
" style="stroke:#000000;stroke-linejoin:miter;"/>
   </g>
   <g id="patch_4">
    <path clip-path="url(#p44c66f3bf6)" d="M 216.591935 135.732109 
L 216.483131 135.171309 
L 216.077412 134.625319 
L 215.379628 134.12829 
L 214.399668 133.710163 
L 213.152407 133.394744 
L 211.657531 133.198213 
L 209.939275 133.128135 
L 208.026041 133.183049 
L 205.949918 133.35267 
L 203.746115 133.618666 
L 201.452308 133.955977 
L 199.107921 134.334583 
L 196.753368 134.721593 
L 194.429263 135.083536 
L 192.175621 135.388678 
L 190.031087 135.609235 
L 188.032188 135.723316 
L 186.21265 135.71648 
L 184.602785 135.582791 
L 183.228963 135.325316 
L 182.113187 134.956014 
L 181.272765 134.495036 
L 180.720092 133.969472 
L 180.462539 133.411628 
L 180.502444 132.856949 
L 180.837197 132.341718 
L 181.459411 131.900678 
L 182.357165 131.56475 
L 183.514314 131.358969 
L 184.910843 131.300802 
L 186.523267 131.398934 
L 188.325046 131.652626 
L 190.28703 132.051664 
L 192.377907 132.576929 
L 194.56466 133.201526 
L 196.813021 133.892426 
L 199.087927 134.612493 
L 201.353975 135.322787 
L 203.575876 135.984972 
L 205.718908 136.563692 
L 207.749369 137.028753 
L 209.63504 137.356971 
L 211.345632 137.533574 
L 212.853246 137.553051 
L 214.132813 137.419421 
L 215.162534 137.145875 
L 215.924279 136.75385 
L 216.403976 136.271559 
z
" style="fill:#0000ff;stroke:#000000;stroke-linejoin:miter;"/>
   </g>
   <g id="patch_5">
    <path clip-path="url(#p44c66f3bf6)" d="M 270.811801 139.632846 
L 270.702997 139.072047 
L 270.297278 138.526056 
L 269.599493 138.029027 
L 268.619534 137.6109 
L 267.372272 137.295481 
L 265.877397 137.098951 
L 264.159141 137.028872 
L 262.245906 137.083786 
L 260.169784 137.253407 
L 257.965981 137.519403 
L 255.672173 137.856715 
L 253.327787 138.23532 
L 250.973234 138.622331 
L 248.649129 138.984273 
L 246.395487 139.289415 
L 244.250953 139.509972 
L 242.252054 139.624053 
L 240.432516 139.617217 
L 238.82265 139.483528 
L 237.448829 139.226053 
L 236.333053 138.856751 
L 235.492631 138.395774 
L 234.939958 137.870209 
L 234.682405 137.312365 
L 234.72231 136.757687 
L 235.057063 136.242455 
L 235.679277 135.801416 
L 236.577031 135.465488 
L 237.73418 135.259707 
L 239.130709 135.201539 
L 240.743133 135.299671 
L 242.544912 135.553363 
L 244.506895 135.952402 
L 246.597773 136.477667 
L 248.784526 137.102264 
L 251.032887 137.793163 
L 253.307793 138.513231 
L 255.573841 139.223525 
L 257.795742 139.885709 
L 259.938773 140.464429 
L 261.969235 140.92949 
L 263.854906 141.257709 
L 265.565498 141.434311 
L 267.073112 141.453789 
L 268.352679 141.320158 
L 269.382399 141.046613 
L 270.144145 140.654587 
L 270.623842 140.172296 
z
" style="fill:#0000ff;stroke:#000000;stroke-linejoin:miter;"/>
   </g>
   <g id="patch_6">
    <path clip-path="url(#p44c66f3bf6)" d="M 257.575388 146.855654 
L 192.511549 142.174769 
L 192.121476 147.596756 
L 257.185315 152.277641 
z
" style="fill:#999999;stroke:#000000;stroke-linejoin:miter;"/>
   </g>
   <g id="text_1">
    <!-- t = 1.3 -->
    <defs>
     <path d="M 18.3125 70.21875 
L 18.3125 54.6875 
L 36.8125 54.6875 
L 36.8125 47.703125 
L 18.3125 47.703125 
L 18.3125 18.015625 
Q 18.3125 11.328125 20.140625 9.421875 
Q 21.96875 7.515625 27.59375 7.515625 
L 36.8125 7.515625 
L 36.8125 0 
L 27.59375 0 
Q 17.1875 0 13.234375 3.875 
Q 9.28125 7.765625 9.28125 18.015625 
L 9.28125 47.703125 
L 2.6875 47.703125 
L 2.6875 54.6875 
L 9.28125 54.6875 
L 9.28125 70.21875 
z
" id="DejaVuSans-116"/>
     <path id="DejaVuSans-32"/>
     <path d="M 10.59375 45.40625 
L 73.1875 45.40625 
L 73.1875 37.203125 
L 10.59375 37.203125 
z
M 10.59375 25.484375 
L 73.1875 25.484375 
L 73.1875 17.1875 
L 10.59375 17.1875 
z
" id="DejaVuSans-61"/>
     <path d="M 12.40625 8.296875 
L 28.515625 8.296875 
L 28.515625 63.921875 
L 10.984375 60.40625 
L 10.984375 69.390625 
L 28.421875 72.90625 
L 38.28125 72.90625 
L 38.28125 8.296875 
L 54.390625 8.296875 
L 54.390625 0 
L 12.40625 0 
z
" id="DejaVuSans-49"/>
     <path d="M 10.6875 12.40625 
L 21 12.40625 
L 21 0 
L 10.6875 0 
z
" id="DejaVuSans-46"/>
     <path d="M 40.578125 39.3125 
Q 47.65625 37.796875 51.625 33 
Q 55.609375 28.21875 55.609375 21.1875 
Q 55.609375 10.40625 48.1875 4.484375 
Q 40.765625 -1.421875 27.09375 -1.421875 
Q 22.515625 -1.421875 17.65625 -0.515625 
Q 12.796875 0.390625 7.625 2.203125 
L 7.625 11.71875 
Q 11.71875 9.328125 16.59375 8.109375 
Q 21.484375 6.890625 26.8125 6.890625 
Q 36.078125 6.890625 40.9375 10.546875 
Q 45.796875 14.203125 45.796875 21.1875 
Q 45.796875 27.640625 41.28125 31.265625 
Q 36.765625 34.90625 28.71875 34.90625 
L 20.21875 34.90625 
L 20.21875 43.015625 
L 29.109375 43.015625 
Q 36.375 43.015625 40.234375 45.921875 
Q 44.09375 48.828125 44.09375 54.296875 
Q 44.09375 59.90625 40.109375 62.90625 
Q 36.140625 65.921875 28.71875 65.921875 
Q 24.65625 65.921875 20.015625 65.03125 
Q 15.375 64.15625 9.8125 62.3125 
L 9.8125 71.09375 
Q 15.4375 72.65625 20.34375 73.4375 
Q 25.25 74.21875 29.59375 74.21875 
Q 40.828125 74.21875 47.359375 69.109375 
Q 53.90625 64.015625 53.90625 55.328125 
Q 53.90625 49.265625 50.4375 45.09375 
Q 46.96875 40.921875 40.578125 39.3125 
z
" id="DejaVuSans-51"/>
    </defs>
    <g transform="translate(200.664375 28.56)scale(0.12 -0.12)">
     <use xlink:href="#DejaVuSans-116"/>
     <use x="39.208984" xlink:href="#DejaVuSans-32"/>
     <use x="70.996094" xlink:href="#DejaVuSans-61"/>
     <use x="154.785156" xlink:href="#DejaVuSans-32"/>
     <use x="186.572266" xlink:href="#DejaVuSans-49"/>
     <use x="250.195312" xlink:href="#DejaVuSans-46"/>
     <use x="281.982422" xlink:href="#DejaVuSans-51"/>
    </g>
   </g>
  </g>
 </g>
 <defs>
  <clipPath id="p44c66f3bf6">
   <rect height="217.44" width="334.8" x="54" y="34.56"/>
  </clipPath>
 </defs>
</svg>
