<?xml version="1.0" encoding="utf-8" standalone="no"?>
<!DOCTYPE svg PUBLIC "-//W3C//DTD SVG 1.1//EN"
  "http://www.w3.org/Graphics/SVG/1.1/DTD/svg11.dtd">
<!-- Created with matplotlib (https://matplotlib.org/) -->
<svg height="288pt" version="1.1" viewBox="0 0 432 288" width="432pt" xmlns="http://www.w3.org/2000/svg" xmlns:xlink="http://www.w3.org/1999/xlink">
 <defs>
  <style type="text/css">
*{stroke-linecap:butt;stroke-linejoin:round;}
  </style>
 </defs>
 <g id="figure_1">
  <g id="patch_1">
   <path d="M 0 288 
L 432 288 
L 432 0 
L 0 0 
z
" style="fill:#ffffff;"/>
  </g>
  <g id="axes_1">
   <g id="patch_2">
    <path clip-path="url(#p4a58924e0e)" d="M 279.440112 107.59445 
L 276.545398 118.074002 
L 275.497443 117.784531 
L 278.392157 107.304979 
z
" style="stroke:#000000;stroke-linejoin:miter;"/>
   </g>
   <g id="patch_3">
    <path clip-path="url(#p4a58924e0e)" d="M 331.837874 122.068017 
L 328.94316 132.54757 
L 327.895205 132.258098 
L 330.789919 121.778546 
z
" style="stroke:#000000;stroke-linejoin:miter;"/>
   </g>
   <g id="patch_4">
    <path clip-path="url(#p4a58924e0e)" d="M 296.382055 112.274237 
L 296.385511 111.70299 
L 296.094927 111.08795 
L 295.508349 110.463557 
L 294.629596 109.861108 
L 293.468575 109.30687 
L 292.041412 108.820573 
L 290.370385 108.414393 
L 288.483628 108.092478 
L 286.414627 107.851044 
L 284.201504 107.679032 
L 281.886123 107.559269 
L 279.513038 107.470063 
L 277.128334 107.387101 
L 274.778407 107.285539 
L 272.508729 107.142122 
L 270.362644 106.937196 
L 268.380271 106.656471 
L 266.597513 106.292409 
L 265.045258 105.845146 
L 263.748761 105.322867 
L 262.727248 104.741619 
L 261.99373 104.12456 
L 261.555042 103.500686 
L 261.412066 102.903124 
L 261.560133 102.367085 
L 261.989558 101.927634 
L 262.686274 101.617388 
L 263.632519 101.464321 
L 264.807546 101.489813 
L 266.188301 101.707057 
L 267.750048 102.119958 
L 269.46691 102.722579 
L 271.31231 103.49918 
L 273.259303 104.424864 
L 275.280795 105.466776 
L 277.349674 106.585798 
L 279.438852 107.738633 
L 281.521264 108.880146 
L 283.569837 109.965816 
L 285.557469 110.954157 
L 287.457048 111.808944 
L 289.24153 112.501117 
L 290.884122 113.010241 
L 292.358547 113.325434 
L 293.639439 113.445714 
L 294.702828 113.379733 
L 295.526732 113.14495 
L 296.091808 112.766265 
z
" style="fill:#0000ff;stroke:#000000;stroke-linejoin:miter;"/>
   </g>
   <g id="patch_5">
    <path clip-path="url(#p4a58924e0e)" d="M 348.779817 126.747804 
L 348.783273 126.176558 
L 348.492689 125.561517 
L 347.906111 124.937124 
L 347.027358 124.334676 
L 345.866337 123.780438 
L 344.439174 123.294141 
L 342.768147 122.887961 
L 340.88139 122.566045 
L 338.812388 122.324612 
L 336.599266 122.152599 
L 334.283885 122.032836 
L 331.910799 121.94363 
L 329.526096 121.860668 
L 327.176169 121.759106 
L 324.90649 121.615689 
L 322.760406 121.410763 
L 320.778033 121.130038 
L 318.995275 120.765976 
L 317.44302 120.318713 
L 316.146523 119.796434 
L 315.12501 119.215186 
L 314.391492 118.598127 
L 313.952804 117.974254 
L 313.809828 117.376691 
L 313.957895 116.840653 
L 314.38732 116.401201 
L 315.084036 116.090955 
L 316.030281 115.937888 
L 317.205308 115.96338 
L 318.586063 116.180624 
L 320.14781 116.593525 
L 321.864671 117.196146 
L 323.710072 117.972748 
L 325.657065 118.898432 
L 327.678557 119.940343 
L 329.747435 121.059365 
L 331.836613 122.212201 
L 333.919026 123.353714 
L 335.967599 124.439384 
L 337.955231 125.427724 
L 339.854809 126.282511 
L 341.639292 126.974684 
L 343.281884 127.483808 
L 344.756309 127.799002 
L 346.037201 127.919281 
L 347.10059 127.853301 
L 347.924494 127.618517 
L 348.48957 127.239832 
z
" style="fill:#0000ff;stroke:#000000;stroke-linejoin:miter;"/>
   </g>
   <g id="patch_6">
    <path clip-path="url(#p4a58924e0e)" d="M 334.382637 131.230303 
L 271.505323 113.862022 
L 270.057966 119.101798 
L 332.935281 136.470079 
z
" style="fill:#999999;stroke:#000000;stroke-linejoin:miter;"/>
   </g>
   <g id="text_1">
    <!-- t = 0.6 -->
    <defs>
     <path d="M 18.3125 70.21875 
L 18.3125 54.6875 
L 36.8125 54.6875 
L 36.8125 47.703125 
L 18.3125 47.703125 
L 18.3125 18.015625 
Q 18.3125 11.328125 20.140625 9.421875 
Q 21.96875 7.515625 27.59375 7.515625 
L 36.8125 7.515625 
L 36.8125 0 
L 27.59375 0 
Q 17.1875 0 13.234375 3.875 
Q 9.28125 7.765625 9.28125 18.015625 
L 9.28125 47.703125 
L 2.6875 47.703125 
L 2.6875 54.6875 
L 9.28125 54.6875 
L 9.28125 70.21875 
z
" id="DejaVuSans-116"/>
     <path id="DejaVuSans-32"/>
     <path d="M 10.59375 45.40625 
L 73.1875 45.40625 
L 73.1875 37.203125 
L 10.59375 37.203125 
z
M 10.59375 25.484375 
L 73.1875 25.484375 
L 73.1875 17.1875 
L 10.59375 17.1875 
z
" id="DejaVuSans-61"/>
     <path d="M 31.78125 66.40625 
Q 24.171875 66.40625 20.328125 58.90625 
Q 16.5 51.421875 16.5 36.375 
Q 16.5 21.390625 20.328125 13.890625 
Q 24.171875 6.390625 31.78125 6.390625 
Q 39.453125 6.390625 43.28125 13.890625 
Q 47.125 21.390625 47.125 36.375 
Q 47.125 51.421875 43.28125 58.90625 
Q 39.453125 66.40625 31.78125 66.40625 
z
M 31.78125 74.21875 
Q 44.046875 74.21875 50.515625 64.515625 
Q 56.984375 54.828125 56.984375 36.375 
Q 56.984375 17.96875 50.515625 8.265625 
Q 44.046875 -1.421875 31.78125 -1.421875 
Q 19.53125 -1.421875 13.0625 8.265625 
Q 6.59375 17.96875 6.59375 36.375 
Q 6.59375 54.828125 13.0625 64.515625 
Q 19.53125 74.21875 31.78125 74.21875 
z
" id="DejaVuSans-48"/>
     <path d="M 10.6875 12.40625 
L 21 12.40625 
L 21 0 
L 10.6875 0 
z
" id="DejaVuSans-46"/>
     <path d="M 33.015625 40.375 
Q 26.375 40.375 22.484375 35.828125 
Q 18.609375 31.296875 18.609375 23.390625 
Q 18.609375 15.53125 22.484375 10.953125 
Q 26.375 6.390625 33.015625 6.390625 
Q 39.65625 6.390625 43.53125 10.953125 
Q 47.40625 15.53125 47.40625 23.390625 
Q 47.40625 31.296875 43.53125 35.828125 
Q 39.65625 40.375 33.015625 40.375 
z
M 52.59375 71.296875 
L 52.59375 62.3125 
Q 48.875 64.0625 45.09375 64.984375 
Q 41.3125 65.921875 37.59375 65.921875 
Q 27.828125 65.921875 22.671875 59.328125 
Q 17.53125 52.734375 16.796875 39.40625 
Q 19.671875 43.65625 24.015625 45.921875 
Q 28.375 48.1875 33.59375 48.1875 
Q 44.578125 48.1875 50.953125 41.515625 
Q 57.328125 34.859375 57.328125 23.390625 
Q 57.328125 12.15625 50.6875 5.359375 
Q 44.046875 -1.421875 33.015625 -1.421875 
Q 20.359375 -1.421875 13.671875 8.265625 
Q 6.984375 17.96875 6.984375 36.375 
Q 6.984375 53.65625 15.1875 63.9375 
Q 23.390625 74.21875 37.203125 74.21875 
Q 40.921875 74.21875 44.703125 73.484375 
Q 48.484375 72.75 52.59375 71.296875 
z
" id="DejaVuSans-54"/>
    </defs>
    <g transform="translate(200.664375 28.56)scale(0.12 -0.12)">
     <use xlink:href="#DejaVuSans-116"/>
     <use x="39.208984" xlink:href="#DejaVuSans-32"/>
     <use x="70.996094" xlink:href="#DejaVuSans-61"/>
     <use x="154.785156" xlink:href="#DejaVuSans-32"/>
     <use x="186.572266" xlink:href="#DejaVuSans-48"/>
     <use x="250.195312" xlink:href="#DejaVuSans-46"/>
     <use x="281.982422" xlink:href="#DejaVuSans-54"/>
    </g>
   </g>
  </g>
 </g>
 <defs>
  <clipPath id="p4a58924e0e">
   <rect height="217.44" width="334.8" x="54" y="34.56"/>
  </clipPath>
 </defs>
</svg>
