<?xml version="1.0" encoding="utf-8" standalone="no"?>
<!DOCTYPE svg PUBLIC "-//W3C//DTD SVG 1.1//EN"
  "http://www.w3.org/Graphics/SVG/1.1/DTD/svg11.dtd">
<!-- Created with matplotlib (https://matplotlib.org/) -->
<svg height="288pt" version="1.1" viewBox="0 0 432 288" width="432pt" xmlns="http://www.w3.org/2000/svg" xmlns:xlink="http://www.w3.org/1999/xlink">
 <defs>
  <style type="text/css">
*{stroke-linecap:butt;stroke-linejoin:round;}
  </style>
 </defs>
 <g id="figure_1">
  <g id="patch_1">
   <path d="M 0 288 
L 432 288 
L 432 0 
L 0 0 
z
" style="fill:#ffffff;"/>
  </g>
  <g id="axes_1">
   <g id="patch_2">
    <path clip-path="url(#p245bf23b7f)" d="M 194.399915 132.147613 
L 194.395695 143.019612 
L 193.308495 143.01919 
L 193.312715 132.147191 
z
" style="stroke:#000000;stroke-linejoin:miter;"/>
   </g>
   <g id="patch_3">
    <path clip-path="url(#p245bf23b7f)" d="M 248.75991 132.168712 
L 248.755691 143.040711 
L 247.668491 143.040289 
L 247.672711 132.16829 
z
" style="stroke:#000000;stroke-linejoin:miter;"/>
   </g>
   <g id="patch_4">
    <path clip-path="url(#p245bf23b7f)" d="M 211.976313 132.154435 
L 211.827762 131.602831 
L 211.38411 131.087189 
L 210.652632 130.641229 
L 209.64533 130.294108 
L 208.378737 130.068511 
L 206.873647 129.979171 
L 205.154772 130.031904 
L 203.250335 130.223226 
L 201.191613 130.540588 
L 199.012414 130.963192 
L 196.74853 131.463353 
L 194.437143 132.008313 
L 192.116216 132.562382 
L 189.823869 133.089274 
L 187.597753 133.554481 
L 185.474429 133.927531 
L 183.488769 134.183984 
L 181.673383 134.307026 
L 180.058082 134.288575 
L 178.669388 134.129806 
L 177.5301 133.84108 
L 176.658921 133.441259 
L 176.070147 132.956479 
L 175.773438 132.418439 
L 175.773653 131.862327 
L 176.070781 131.324518 
L 176.659931 130.840196 
L 177.53142 130.441051 
L 178.670931 130.153209 
L 180.059748 129.995519 
L 181.675063 129.978321 
L 183.490354 130.102773 
L 185.475814 130.360766 
L 187.598847 130.735465 
L 189.824602 131.2024 
L 192.116539 131.731071 
L 194.437035 132.286942 
L 196.747999 132.833696 
L 199.011494 133.335614 
L 201.190363 133.759909 
L 203.248839 134.078869 
L 205.153126 134.27167 
L 206.87196 134.325737 
L 208.377119 134.237565 
L 209.643887 134.012952 
L 210.651458 133.666613 
L 211.383282 133.221221 
L 211.827334 132.705924 
z
" style="fill:#0000ff;stroke:#000000;stroke-linejoin:miter;"/>
   </g>
   <g id="patch_5">
    <path clip-path="url(#p245bf23b7f)" d="M 266.336309 132.175534 
L 266.187758 131.623929 
L 265.744106 131.108287 
L 265.012628 130.662328 
L 264.005326 130.315206 
L 262.738733 130.08961 
L 261.233643 130.00027 
L 259.514768 130.053003 
L 257.610331 130.244325 
L 255.551609 130.561687 
L 253.37241 130.984291 
L 251.108526 131.484452 
L 248.797139 132.029412 
L 246.476212 132.583481 
L 244.183865 133.110372 
L 241.957749 133.575579 
L 239.834425 133.94863 
L 237.848765 134.205083 
L 236.033379 134.328125 
L 234.418078 134.309673 
L 233.029383 134.150905 
L 231.890096 133.862178 
L 231.018917 133.462357 
L 230.430143 132.977578 
L 230.133433 132.439538 
L 230.133649 131.883426 
L 230.430777 131.345617 
L 231.019926 130.861295 
L 231.891416 130.46215 
L 233.030927 130.174308 
L 234.419744 130.016618 
L 236.035059 129.99942 
L 237.850349 130.123871 
L 239.83581 130.381865 
L 241.958843 130.756564 
L 244.184598 131.223499 
L 246.476535 131.75217 
L 248.797031 132.30804 
L 251.107994 132.854794 
L 253.37149 133.356713 
L 255.550359 133.781008 
L 257.608835 134.099968 
L 259.513122 134.292769 
L 261.231956 134.346835 
L 262.737115 134.258664 
L 264.003883 134.034051 
L 265.011454 133.687712 
L 265.743278 133.24232 
L 266.18733 132.727022 
z
" style="fill:#0000ff;stroke:#000000;stroke-linejoin:miter;"/>
   </g>
   <g id="patch_6">
    <path clip-path="url(#p245bf23b7f)" d="M 253.649145 140.32461 
L 188.41715 140.299291 
L 188.41504 145.735291 
L 253.647035 145.76061 
z
" style="fill:#999999;stroke:#000000;stroke-linejoin:miter;"/>
   </g>
   <g id="text_1">
    <!-- t = 1.7 -->
    <defs>
     <path d="M 18.3125 70.21875 
L 18.3125 54.6875 
L 36.8125 54.6875 
L 36.8125 47.703125 
L 18.3125 47.703125 
L 18.3125 18.015625 
Q 18.3125 11.328125 20.140625 9.421875 
Q 21.96875 7.515625 27.59375 7.515625 
L 36.8125 7.515625 
L 36.8125 0 
L 27.59375 0 
Q 17.1875 0 13.234375 3.875 
Q 9.28125 7.765625 9.28125 18.015625 
L 9.28125 47.703125 
L 2.6875 47.703125 
L 2.6875 54.6875 
L 9.28125 54.6875 
L 9.28125 70.21875 
z
" id="DejaVuSans-116"/>
     <path id="DejaVuSans-32"/>
     <path d="M 10.59375 45.40625 
L 73.1875 45.40625 
L 73.1875 37.203125 
L 10.59375 37.203125 
z
M 10.59375 25.484375 
L 73.1875 25.484375 
L 73.1875 17.1875 
L 10.59375 17.1875 
z
" id="DejaVuSans-61"/>
     <path d="M 12.40625 8.296875 
L 28.515625 8.296875 
L 28.515625 63.921875 
L 10.984375 60.40625 
L 10.984375 69.390625 
L 28.421875 72.90625 
L 38.28125 72.90625 
L 38.28125 8.296875 
L 54.390625 8.296875 
L 54.390625 0 
L 12.40625 0 
z
" id="DejaVuSans-49"/>
     <path d="M 10.6875 12.40625 
L 21 12.40625 
L 21 0 
L 10.6875 0 
z
" id="DejaVuSans-46"/>
     <path d="M 8.203125 72.90625 
L 55.078125 72.90625 
L 55.078125 68.703125 
L 28.609375 0 
L 18.3125 0 
L 43.21875 64.59375 
L 8.203125 64.59375 
z
" id="DejaVuSans-55"/>
    </defs>
    <g transform="translate(200.664375 28.56)scale(0.12 -0.12)">
     <use xlink:href="#DejaVuSans-116"/>
     <use x="39.208984" xlink:href="#DejaVuSans-32"/>
     <use x="70.996094" xlink:href="#DejaVuSans-61"/>
     <use x="154.785156" xlink:href="#DejaVuSans-32"/>
     <use x="186.572266" xlink:href="#DejaVuSans-49"/>
     <use x="250.195312" xlink:href="#DejaVuSans-46"/>
     <use x="281.982422" xlink:href="#DejaVuSans-55"/>
    </g>
   </g>
  </g>
 </g>
 <defs>
  <clipPath id="p245bf23b7f">
   <rect height="217.44" width="334.8" x="54" y="34.56"/>
  </clipPath>
 </defs>
</svg>
