<?xml version="1.0" encoding="utf-8" standalone="no"?>
<!DOCTYPE svg PUBLIC "-//W3C//DTD SVG 1.1//EN"
  "http://www.w3.org/Graphics/SVG/1.1/DTD/svg11.dtd">
<!-- Created with matplotlib (https://matplotlib.org/) -->
<svg height="288pt" version="1.1" viewBox="0 0 432 288" width="432pt" xmlns="http://www.w3.org/2000/svg" xmlns:xlink="http://www.w3.org/1999/xlink">
 <defs>
  <style type="text/css">
*{stroke-linecap:butt;stroke-linejoin:round;}
  </style>
 </defs>
 <g id="figure_1">
  <g id="patch_1">
   <path d="M 0 288 
L 432 288 
L 432 0 
L 0 0 
z
" style="fill:#ffffff;"/>
  </g>
  <g id="axes_1">
   <g id="patch_2">
    <path clip-path="url(#p58f9cad738)" d="M 195.56088 132.51818 
L 195.561573 143.39018 
L 194.474373 143.39025 
L 194.47368 132.51825 
z
" style="stroke:#000000;stroke-linejoin:miter;"/>
   </g>
   <g id="patch_3">
    <path clip-path="url(#p58f9cad738)" d="M 249.92088 132.514718 
L 249.921573 143.386717 
L 248.834373 143.386787 
L 248.83368 132.514787 
z
" style="stroke:#000000;stroke-linejoin:miter;"/>
   </g>
   <g id="patch_4">
    <path clip-path="url(#p58f9cad738)" d="M 213.13728 132.517061 
L 212.98848 131.965524 
L 212.544595 131.450082 
L 211.812915 131.004453 
L 210.805456 130.657787 
L 209.538762 130.432763 
L 208.033632 130.344103 
L 206.31478 130.397612 
L 204.410431 130.589795 
L 202.351852 130.908087 
L 200.172844 131.331676 
L 197.909186 131.83286 
L 195.598046 132.378864 
L 193.277369 132.933981 
L 190.985261 133.461909 
L 188.759355 133.928122 
L 186.6362 134.302131 
L 184.650656 134.559481 
L 182.835326 134.683343 
L 181.220016 134.665622 
L 179.83125 134.507481 
L 178.691832 134.219269 
L 177.820473 133.819842 
L 177.23148 133.335329 
L 176.934527 132.797423 
L 176.934492 132.241311 
L 177.231376 131.703367 
L 177.820307 131.218779 
L 178.691616 130.819241 
L 179.830997 130.530884 
L 181.219743 130.372566 
L 182.83505 130.354639 
L 184.650396 130.47827 
L 186.635973 130.735366 
L 188.759175 131.109106 
L 190.985141 131.575035 
L 193.277316 132.102671 
L 195.598063 132.657492 
L 197.909274 133.203202 
L 200.172995 133.704098 
L 202.352057 134.127408 
L 204.410676 134.445438 
L 206.31505 134.637379 
L 208.033909 134.690669 
L 209.539028 134.601817 
L 210.805693 134.376632 
L 211.813108 134.029837 
L 212.544731 133.584115 
L 212.98855 133.068617 
z
" style="fill:#0000ff;stroke:#000000;stroke-linejoin:miter;"/>
   </g>
   <g id="patch_5">
    <path clip-path="url(#p58f9cad738)" d="M 267.49728 132.513598 
L 267.34848 131.962061 
L 266.904595 131.446619 
L 266.172915 131.00099 
L 265.165456 130.654324 
L 263.898762 130.4293 
L 262.393632 130.34064 
L 260.67478 130.394149 
L 258.77043 130.586332 
L 256.711852 130.904624 
L 254.532844 131.328213 
L 252.269186 131.829397 
L 249.958046 132.375401 
L 247.637369 132.930518 
L 245.345261 133.458446 
L 243.119355 133.924659 
L 240.9962 134.298669 
L 239.010656 134.556018 
L 237.195326 134.679881 
L 235.580016 134.662159 
L 234.19125 134.504018 
L 233.051832 134.215807 
L 232.180473 133.816379 
L 231.59148 133.331866 
L 231.294527 132.79396 
L 231.294492 132.237848 
L 231.591376 131.699905 
L 232.180307 131.215316 
L 233.051616 130.815778 
L 234.190997 130.527421 
L 235.579742 130.369103 
L 237.19505 130.351176 
L 239.010396 130.474807 
L 240.995973 130.731904 
L 243.119175 131.105643 
L 245.345141 131.571572 
L 247.637316 132.099208 
L 249.958063 132.654029 
L 252.269274 133.199739 
L 254.532995 133.700635 
L 256.712057 134.123945 
L 258.770676 134.441975 
L 260.67505 134.633916 
L 262.393909 134.687206 
L 263.899028 134.598354 
L 265.165693 134.373169 
L 266.173108 134.026374 
L 266.904731 133.580652 
L 267.34855 133.065154 
z
" style="fill:#0000ff;stroke:#000000;stroke-linejoin:miter;"/>
   </g>
   <g id="patch_6">
    <path clip-path="url(#p58f9cad738)" d="M 254.813799 140.668406 
L 189.581799 140.672561 
L 189.582146 146.108561 
L 254.814146 146.104406 
z
" style="fill:#999999;stroke:#000000;stroke-linejoin:miter;"/>
   </g>
   <g id="text_1">
    <!-- t = 2.3 -->
    <defs>
     <path d="M 18.3125 70.21875 
L 18.3125 54.6875 
L 36.8125 54.6875 
L 36.8125 47.703125 
L 18.3125 47.703125 
L 18.3125 18.015625 
Q 18.3125 11.328125 20.140625 9.421875 
Q 21.96875 7.515625 27.59375 7.515625 
L 36.8125 7.515625 
L 36.8125 0 
L 27.59375 0 
Q 17.1875 0 13.234375 3.875 
Q 9.28125 7.765625 9.28125 18.015625 
L 9.28125 47.703125 
L 2.6875 47.703125 
L 2.6875 54.6875 
L 9.28125 54.6875 
L 9.28125 70.21875 
z
" id="DejaVuSans-116"/>
     <path id="DejaVuSans-32"/>
     <path d="M 10.59375 45.40625 
L 73.1875 45.40625 
L 73.1875 37.203125 
L 10.59375 37.203125 
z
M 10.59375 25.484375 
L 73.1875 25.484375 
L 73.1875 17.1875 
L 10.59375 17.1875 
z
" id="DejaVuSans-61"/>
     <path d="M 19.1875 8.296875 
L 53.609375 8.296875 
L 53.609375 0 
L 7.328125 0 
L 7.328125 8.296875 
Q 12.9375 14.109375 22.625 23.890625 
Q 32.328125 33.6875 34.8125 36.53125 
Q 39.546875 41.84375 41.421875 45.53125 
Q 43.3125 49.21875 43.3125 52.78125 
Q 43.3125 58.59375 39.234375 62.25 
Q 35.15625 65.921875 28.609375 65.921875 
Q 23.96875 65.921875 18.8125 64.3125 
Q 13.671875 62.703125 7.8125 59.421875 
L 7.8125 69.390625 
Q 13.765625 71.78125 18.9375 73 
Q 24.125 74.21875 28.421875 74.21875 
Q 39.75 74.21875 46.484375 68.546875 
Q 53.21875 62.890625 53.21875 53.421875 
Q 53.21875 48.921875 51.53125 44.890625 
Q 49.859375 40.875 45.40625 35.40625 
Q 44.1875 33.984375 37.640625 27.21875 
Q 31.109375 20.453125 19.1875 8.296875 
z
" id="DejaVuSans-50"/>
     <path d="M 10.6875 12.40625 
L 21 12.40625 
L 21 0 
L 10.6875 0 
z
" id="DejaVuSans-46"/>
     <path d="M 40.578125 39.3125 
Q 47.65625 37.796875 51.625 33 
Q 55.609375 28.21875 55.609375 21.1875 
Q 55.609375 10.40625 48.1875 4.484375 
Q 40.765625 -1.421875 27.09375 -1.421875 
Q 22.515625 -1.421875 17.65625 -0.515625 
Q 12.796875 0.390625 7.625 2.203125 
L 7.625 11.71875 
Q 11.71875 9.328125 16.59375 8.109375 
Q 21.484375 6.890625 26.8125 6.890625 
Q 36.078125 6.890625 40.9375 10.546875 
Q 45.796875 14.203125 45.796875 21.1875 
Q 45.796875 27.640625 41.28125 31.265625 
Q 36.765625 34.90625 28.71875 34.90625 
L 20.21875 34.90625 
L 20.21875 43.015625 
L 29.109375 43.015625 
Q 36.375 43.015625 40.234375 45.921875 
Q 44.09375 48.828125 44.09375 54.296875 
Q 44.09375 59.90625 40.109375 62.90625 
Q 36.140625 65.921875 28.71875 65.921875 
Q 24.65625 65.921875 20.015625 65.03125 
Q 15.375 64.15625 9.8125 62.3125 
L 9.8125 71.09375 
Q 15.4375 72.65625 20.34375 73.4375 
Q 25.25 74.21875 29.59375 74.21875 
Q 40.828125 74.21875 47.359375 69.109375 
Q 53.90625 64.015625 53.90625 55.328125 
Q 53.90625 49.265625 50.4375 45.09375 
Q 46.96875 40.921875 40.578125 39.3125 
z
" id="DejaVuSans-51"/>
    </defs>
    <g transform="translate(200.664375 28.56)scale(0.12 -0.12)">
     <use xlink:href="#DejaVuSans-116"/>
     <use x="39.208984" xlink:href="#DejaVuSans-32"/>
     <use x="70.996094" xlink:href="#DejaVuSans-61"/>
     <use x="154.785156" xlink:href="#DejaVuSans-32"/>
     <use x="186.572266" xlink:href="#DejaVuSans-50"/>
     <use x="250.195312" xlink:href="#DejaVuSans-46"/>
     <use x="281.982422" xlink:href="#DejaVuSans-51"/>
    </g>
   </g>
  </g>
 </g>
 <defs>
  <clipPath id="p58f9cad738">
   <rect height="217.44" width="334.8" x="54" y="34.56"/>
  </clipPath>
 </defs>
</svg>
