<?xml version="1.0" encoding="utf-8" standalone="no"?>
<!DOCTYPE svg PUBLIC "-//W3C//DTD SVG 1.1//EN"
  "http://www.w3.org/Graphics/SVG/1.1/DTD/svg11.dtd">
<!-- Created with matplotlib (https://matplotlib.org/) -->
<svg height="288pt" version="1.1" viewBox="0 0 432 288" width="432pt" xmlns="http://www.w3.org/2000/svg" xmlns:xlink="http://www.w3.org/1999/xlink">
 <defs>
  <style type="text/css">
*{stroke-linecap:butt;stroke-linejoin:round;}
  </style>
 </defs>
 <g id="figure_1">
  <g id="patch_1">
   <path d="M 0 288 
L 432 288 
L 432 0 
L 0 0 
z
" style="fill:#ffffff;"/>
  </g>
  <g id="axes_1">
   <g id="patch_2">
    <path clip-path="url(#p10816367ae)" d="M 116.500828 171.139594 
L 120.963312 181.053554 
L 119.971916 181.499803 
L 115.509432 171.585842 
z
" style="stroke:#000000;stroke-linejoin:miter;"/>
   </g>
   <g id="patch_3">
    <path clip-path="url(#p10816367ae)" d="M 166.070633 148.827173 
L 170.533117 158.741134 
L 169.541721 159.187383 
L 165.079237 149.273422 
z
" style="stroke:#000000;stroke-linejoin:miter;"/>
   </g>
   <g id="patch_4">
    <path clip-path="url(#p10816367ae)" d="M 132.528398 163.925244 
L 132.166357 163.483362 
L 131.550039 163.195497 
L 130.69993 163.089405 
L 129.638951 163.186738 
L 128.391494 163.501386 
L 126.982571 164.03824 
L 125.437099 164.792449 
L 123.779383 165.749245 
L 122.032778 166.884335 
L 120.219568 168.164869 
L 118.361009 169.550904 
L 116.477545 170.997297 
L 114.589124 172.455914 
L 112.715597 173.878013 
L 110.877113 175.216663 
L 109.094487 176.429065 
L 107.389473 177.478608 
L 105.784895 178.336568 
L 104.304611 178.983328 
L 102.973286 179.409066 
L 101.815962 179.613859 
L 100.857439 179.607223 
L 100.12149 179.407114 
L 99.629941 179.038464 
L 99.401681 178.531356 
L 99.45164 177.918961 
L 99.789816 177.235366 
L 100.420398 176.51344 
L 101.341065 175.782886 
L 102.542498 175.068575 
L 104.00815 174.389308 
L 105.714313 173.757032 
L 107.630485 173.176603 
L 109.720029 172.646059 
L 111.941117 172.15741 
L 114.247908 171.697859 
L 116.591909 171.251373 
L 118.923475 170.800492 
L 121.193344 170.328234 
L 123.35417 169.81997 
L 125.361957 169.265129 
L 127.177339 168.658608 
L 128.766647 168.001787 
L 130.10271 167.303064 
L 131.165375 166.577878 
L 131.941719 165.848193 
L 132.425966 165.141479 
L 132.619128 164.48925 
z
" style="fill:#0000ff;stroke:#000000;stroke-linejoin:miter;"/>
   </g>
   <g id="patch_5">
    <path clip-path="url(#p10816367ae)" d="M 182.098203 141.612824 
L 181.736161 141.170941 
L 181.119843 140.883077 
L 180.269734 140.776985 
L 179.208755 140.874318 
L 177.961299 141.188966 
L 176.552375 141.72582 
L 175.006904 142.480029 
L 173.349187 143.436825 
L 171.602583 144.571915 
L 169.789372 145.852449 
L 167.930813 147.238484 
L 166.047349 148.684877 
L 164.158929 150.143494 
L 162.285401 151.565592 
L 160.446917 152.904243 
L 158.664291 154.116645 
L 156.959278 155.166188 
L 155.354699 156.024147 
L 153.874415 156.670908 
L 152.54309 157.096646 
L 151.385766 157.301439 
L 150.427244 157.294803 
L 149.691294 157.094694 
L 149.199745 156.726044 
L 148.971485 156.218936 
L 149.021445 155.606541 
L 149.35962 154.922946 
L 149.990202 154.20102 
L 150.91087 153.470465 
L 152.112302 152.756155 
L 153.577954 152.076888 
L 155.284118 151.444612 
L 157.200289 150.864183 
L 159.289833 150.333639 
L 161.510922 149.84499 
L 163.817712 149.385438 
L 166.161714 148.938953 
L 168.49328 148.488072 
L 170.763148 148.015814 
L 172.923974 147.50755 
L 174.931761 146.952709 
L 176.747144 146.346188 
L 178.336452 145.689367 
L 179.672515 144.990644 
L 180.735179 144.265458 
L 181.511523 143.535773 
L 181.995771 142.829059 
L 182.188933 142.17683 
z
" style="fill:#0000ff;stroke:#000000;stroke-linejoin:miter;"/>
   </g>
   <g id="patch_6">
    <path clip-path="url(#p10816367ae)" d="M 173.878778 154.254526 
L 114.395013 181.02943 
L 116.626255 185.986411 
L 176.11002 159.211507 
z
" style="fill:#999999;stroke:#000000;stroke-linejoin:miter;"/>
   </g>
   <g id="text_1">
    <!-- t = 0.6 -->
    <defs>
     <path d="M 18.3125 70.21875 
L 18.3125 54.6875 
L 36.8125 54.6875 
L 36.8125 47.703125 
L 18.3125 47.703125 
L 18.3125 18.015625 
Q 18.3125 11.328125 20.140625 9.421875 
Q 21.96875 7.515625 27.59375 7.515625 
L 36.8125 7.515625 
L 36.8125 0 
L 27.59375 0 
Q 17.1875 0 13.234375 3.875 
Q 9.28125 7.765625 9.28125 18.015625 
L 9.28125 47.703125 
L 2.6875 47.703125 
L 2.6875 54.6875 
L 9.28125 54.6875 
L 9.28125 70.21875 
z
" id="DejaVuSans-116"/>
     <path id="DejaVuSans-32"/>
     <path d="M 10.59375 45.40625 
L 73.1875 45.40625 
L 73.1875 37.203125 
L 10.59375 37.203125 
z
M 10.59375 25.484375 
L 73.1875 25.484375 
L 73.1875 17.1875 
L 10.59375 17.1875 
z
" id="DejaVuSans-61"/>
     <path d="M 31.78125 66.40625 
Q 24.171875 66.40625 20.328125 58.90625 
Q 16.5 51.421875 16.5 36.375 
Q 16.5 21.390625 20.328125 13.890625 
Q 24.171875 6.390625 31.78125 6.390625 
Q 39.453125 6.390625 43.28125 13.890625 
Q 47.125 21.390625 47.125 36.375 
Q 47.125 51.421875 43.28125 58.90625 
Q 39.453125 66.40625 31.78125 66.40625 
z
M 31.78125 74.21875 
Q 44.046875 74.21875 50.515625 64.515625 
Q 56.984375 54.828125 56.984375 36.375 
Q 56.984375 17.96875 50.515625 8.265625 
Q 44.046875 -1.421875 31.78125 -1.421875 
Q 19.53125 -1.421875 13.0625 8.265625 
Q 6.59375 17.96875 6.59375 36.375 
Q 6.59375 54.828125 13.0625 64.515625 
Q 19.53125 74.21875 31.78125 74.21875 
z
" id="DejaVuSans-48"/>
     <path d="M 10.6875 12.40625 
L 21 12.40625 
L 21 0 
L 10.6875 0 
z
" id="DejaVuSans-46"/>
     <path d="M 33.015625 40.375 
Q 26.375 40.375 22.484375 35.828125 
Q 18.609375 31.296875 18.609375 23.390625 
Q 18.609375 15.53125 22.484375 10.953125 
Q 26.375 6.390625 33.015625 6.390625 
Q 39.65625 6.390625 43.53125 10.953125 
Q 47.40625 15.53125 47.40625 23.390625 
Q 47.40625 31.296875 43.53125 35.828125 
Q 39.65625 40.375 33.015625 40.375 
z
M 52.59375 71.296875 
L 52.59375 62.3125 
Q 48.875 64.0625 45.09375 64.984375 
Q 41.3125 65.921875 37.59375 65.921875 
Q 27.828125 65.921875 22.671875 59.328125 
Q 17.53125 52.734375 16.796875 39.40625 
Q 19.671875 43.65625 24.015625 45.921875 
Q 28.375 48.1875 33.59375 48.1875 
Q 44.578125 48.1875 50.953125 41.515625 
Q 57.328125 34.859375 57.328125 23.390625 
Q 57.328125 12.15625 50.6875 5.359375 
Q 44.046875 -1.421875 33.015625 -1.421875 
Q 20.359375 -1.421875 13.671875 8.265625 
Q 6.984375 17.96875 6.984375 36.375 
Q 6.984375 53.65625 15.1875 63.9375 
Q 23.390625 74.21875 37.203125 74.21875 
Q 40.921875 74.21875 44.703125 73.484375 
Q 48.484375 72.75 52.59375 71.296875 
z
" id="DejaVuSans-54"/>
    </defs>
    <g transform="translate(200.664375 28.56)scale(0.12 -0.12)">
     <use xlink:href="#DejaVuSans-116"/>
     <use x="39.208984" xlink:href="#DejaVuSans-32"/>
     <use x="70.996094" xlink:href="#DejaVuSans-61"/>
     <use x="154.785156" xlink:href="#DejaVuSans-32"/>
     <use x="186.572266" xlink:href="#DejaVuSans-48"/>
     <use x="250.195312" xlink:href="#DejaVuSans-46"/>
     <use x="281.982422" xlink:href="#DejaVuSans-54"/>
    </g>
   </g>
  </g>
 </g>
 <defs>
  <clipPath id="p10816367ae">
   <rect height="217.44" width="334.8" x="54" y="34.56"/>
  </clipPath>
 </defs>
</svg>
