<?xml version="1.0" encoding="utf-8" standalone="no"?>
<!DOCTYPE svg PUBLIC "-//W3C//DTD SVG 1.1//EN"
  "http://www.w3.org/Graphics/SVG/1.1/DTD/svg11.dtd">
<!-- Created with matplotlib (https://matplotlib.org/) -->
<svg height="288pt" version="1.1" viewBox="0 0 432 288" width="432pt" xmlns="http://www.w3.org/2000/svg" xmlns:xlink="http://www.w3.org/1999/xlink">
 <defs>
  <style type="text/css">
*{stroke-linecap:butt;stroke-linejoin:round;}
  </style>
 </defs>
 <g id="figure_1">
  <g id="patch_1">
   <path d="M 0 288 
L 432 288 
L 432 0 
L 0 0 
z
" style="fill:#ffffff;"/>
  </g>
  <g id="axes_1">
   <g id="patch_2">
    <path clip-path="url(#p558a827cf8)" d="M 198.531571 133.825739 
L 198.562636 144.697695 
L 197.475441 144.700801 
L 197.444375 133.828845 
z
" style="stroke:#000000;stroke-linejoin:miter;"/>
   </g>
   <g id="patch_3">
    <path clip-path="url(#p558a827cf8)" d="M 252.891349 133.670411 
L 252.922414 144.542366 
L 251.835219 144.545473 
L 251.804153 133.673517 
z
" style="stroke:#000000;stroke-linejoin:miter;"/>
   </g>
   <g id="patch_4">
    <path clip-path="url(#p558a827cf8)" d="M 216.107899 133.775516 
L 215.957559 133.224397 
L 215.512235 132.710198 
L 214.779314 132.266614 
L 213.77089 131.922764 
L 212.503572 131.701279 
L 210.9982 131.616825 
L 209.279505 131.675136 
L 207.375699 131.872638 
L 205.318018 132.19668 
L 203.140202 132.626354 
L 200.877953 133.13386 
L 198.568347 133.686319 
L 196.24923 134.247918 
L 193.958606 134.782246 
L 191.734011 135.254676 
L 189.611909 135.634616 
L 187.627092 135.897512 
L 185.812115 136.026445 
L 184.196762 136.013236 
L 182.80756 135.858976 
L 181.667341 135.573948 
L 180.794869 135.176957 
L 180.204525 134.694091 
L 179.906071 134.157017 
L 179.904482 133.600907 
L 180.199862 133.062136 
L 180.787437 132.575904 
L 181.657626 132.173933 
L 182.796197 131.882394 
L 184.184495 131.720198 
L 185.799746 131.697758 
L 187.615431 131.816317 
L 189.601717 132.067865 
L 191.725956 132.435672 
L 193.953214 132.895381 
L 196.246855 133.41661 
L 198.569143 133.964946 
L 200.881869 134.504197 
L 203.146981 134.998767 
L 205.327217 135.415988 
L 207.386716 135.728266 
L 209.291619 135.914885 
L 211.01062 135.963373 
L 212.515485 135.870317 
L 213.781516 135.641594 
L 214.787958 135.291986 
L 215.518333 134.844221 
L 215.960711 134.327485 
z
" style="fill:#0000ff;stroke:#000000;stroke-linejoin:miter;"/>
   </g>
   <g id="patch_5">
    <path clip-path="url(#p558a827cf8)" d="M 270.467677 133.620188 
L 270.317337 133.069069 
L 269.872013 132.554869 
L 269.139092 132.111286 
L 268.130668 131.767436 
L 266.86335 131.545951 
L 265.357978 131.461497 
L 263.639283 131.519808 
L 261.735477 131.71731 
L 259.677796 132.041352 
L 257.49998 132.471026 
L 255.237731 132.978532 
L 252.928125 133.530991 
L 250.609009 134.092589 
L 248.318384 134.626918 
L 246.093789 135.099348 
L 243.971687 135.479288 
L 241.98687 135.742183 
L 240.171893 135.871117 
L 238.55654 135.857908 
L 237.167338 135.703648 
L 236.027119 135.41862 
L 235.154647 135.021629 
L 234.564303 134.538763 
L 234.265849 134.001689 
L 234.26426 133.445579 
L 234.55964 132.906808 
L 235.147215 132.420576 
L 236.017404 132.018605 
L 237.155975 131.727066 
L 238.544273 131.564869 
L 240.159524 131.54243 
L 241.975209 131.660989 
L 243.961496 131.912537 
L 246.085734 132.280344 
L 248.312992 132.740052 
L 250.606633 133.261282 
L 252.928921 133.809618 
L 255.241647 134.348869 
L 257.506759 134.843439 
L 259.686995 135.26066 
L 261.746495 135.572937 
L 263.651397 135.759557 
L 265.370398 135.808045 
L 266.875263 135.714989 
L 268.141295 135.486265 
L 269.147736 135.136658 
L 269.878111 134.688893 
L 270.320489 134.172157 
z
" style="fill:#0000ff;stroke:#000000;stroke-linejoin:miter;"/>
   </g>
   <g id="patch_6">
    <path clip-path="url(#p558a827cf8)" d="M 257.807028 141.810398 
L 192.575294 141.996792 
L 192.590827 147.43277 
L 257.822561 147.246376 
z
" style="fill:#999999;stroke:#000000;stroke-linejoin:miter;"/>
   </g>
   <g id="text_1">
    <!-- t = 1.6 -->
    <defs>
     <path d="M 18.3125 70.21875 
L 18.3125 54.6875 
L 36.8125 54.6875 
L 36.8125 47.703125 
L 18.3125 47.703125 
L 18.3125 18.015625 
Q 18.3125 11.328125 20.140625 9.421875 
Q 21.96875 7.515625 27.59375 7.515625 
L 36.8125 7.515625 
L 36.8125 0 
L 27.59375 0 
Q 17.1875 0 13.234375 3.875 
Q 9.28125 7.765625 9.28125 18.015625 
L 9.28125 47.703125 
L 2.6875 47.703125 
L 2.6875 54.6875 
L 9.28125 54.6875 
L 9.28125 70.21875 
z
" id="DejaVuSans-116"/>
     <path id="DejaVuSans-32"/>
     <path d="M 10.59375 45.40625 
L 73.1875 45.40625 
L 73.1875 37.203125 
L 10.59375 37.203125 
z
M 10.59375 25.484375 
L 73.1875 25.484375 
L 73.1875 17.1875 
L 10.59375 17.1875 
z
" id="DejaVuSans-61"/>
     <path d="M 12.40625 8.296875 
L 28.515625 8.296875 
L 28.515625 63.921875 
L 10.984375 60.40625 
L 10.984375 69.390625 
L 28.421875 72.90625 
L 38.28125 72.90625 
L 38.28125 8.296875 
L 54.390625 8.296875 
L 54.390625 0 
L 12.40625 0 
z
" id="DejaVuSans-49"/>
     <path d="M 10.6875 12.40625 
L 21 12.40625 
L 21 0 
L 10.6875 0 
z
" id="DejaVuSans-46"/>
     <path d="M 33.015625 40.375 
Q 26.375 40.375 22.484375 35.828125 
Q 18.609375 31.296875 18.609375 23.390625 
Q 18.609375 15.53125 22.484375 10.953125 
Q 26.375 6.390625 33.015625 6.390625 
Q 39.65625 6.390625 43.53125 10.953125 
Q 47.40625 15.53125 47.40625 23.390625 
Q 47.40625 31.296875 43.53125 35.828125 
Q 39.65625 40.375 33.015625 40.375 
z
M 52.59375 71.296875 
L 52.59375 62.3125 
Q 48.875 64.0625 45.09375 64.984375 
Q 41.3125 65.921875 37.59375 65.921875 
Q 27.828125 65.921875 22.671875 59.328125 
Q 17.53125 52.734375 16.796875 39.40625 
Q 19.671875 43.65625 24.015625 45.921875 
Q 28.375 48.1875 33.59375 48.1875 
Q 44.578125 48.1875 50.953125 41.515625 
Q 57.328125 34.859375 57.328125 23.390625 
Q 57.328125 12.15625 50.6875 5.359375 
Q 44.046875 -1.421875 33.015625 -1.421875 
Q 20.359375 -1.421875 13.671875 8.265625 
Q 6.984375 17.96875 6.984375 36.375 
Q 6.984375 53.65625 15.1875 63.9375 
Q 23.390625 74.21875 37.203125 74.21875 
Q 40.921875 74.21875 44.703125 73.484375 
Q 48.484375 72.75 52.59375 71.296875 
z
" id="DejaVuSans-54"/>
    </defs>
    <g transform="translate(200.664375 28.56)scale(0.12 -0.12)">
     <use xlink:href="#DejaVuSans-116"/>
     <use x="39.208984" xlink:href="#DejaVuSans-32"/>
     <use x="70.996094" xlink:href="#DejaVuSans-61"/>
     <use x="154.785156" xlink:href="#DejaVuSans-32"/>
     <use x="186.572266" xlink:href="#DejaVuSans-49"/>
     <use x="250.195312" xlink:href="#DejaVuSans-46"/>
     <use x="281.982422" xlink:href="#DejaVuSans-54"/>
    </g>
   </g>
  </g>
 </g>
 <defs>
  <clipPath id="p558a827cf8">
   <rect height="217.44" width="334.8" x="54" y="34.56"/>
  </clipPath>
 </defs>
</svg>
