<?xml version="1.0" encoding="utf-8" standalone="no"?>
<!DOCTYPE svg PUBLIC "-//W3C//DTD SVG 1.1//EN"
  "http://www.w3.org/Graphics/SVG/1.1/DTD/svg11.dtd">
<!-- Created with matplotlib (https://matplotlib.org/) -->
<svg height="288pt" version="1.1" viewBox="0 0 432 288" width="432pt" xmlns="http://www.w3.org/2000/svg" xmlns:xlink="http://www.w3.org/1999/xlink">
 <defs>
  <style type="text/css">
*{stroke-linecap:butt;stroke-linejoin:round;}
  </style>
 </defs>
 <g id="figure_1">
  <g id="patch_1">
   <path d="M 0 288 
L 432 288 
L 432 0 
L 0 0 
z
" style="fill:#ffffff;"/>
  </g>
  <g id="axes_1">
   <g id="patch_2">
    <path clip-path="url(#p1417681110)" d="M 203.314283 128.345953 
L 202.731587 139.202327 
L 201.64595 139.144057 
L 202.228645 128.287683 
z
" style="stroke:#000000;stroke-linejoin:miter;"/>
   </g>
   <g id="patch_3">
    <path clip-path="url(#p1417681110)" d="M 257.596151 131.25943 
L 257.013456 142.115804 
L 255.927818 142.057535 
L 256.510514 131.201161 
z
" style="stroke:#000000;stroke-linejoin:miter;"/>
   </g>
   <g id="patch_4">
    <path clip-path="url(#p1417681110)" d="M 220.86542 129.287977 
L 220.74643 128.72925 
L 220.330843 128.190733 
L 219.62413 127.706484 
L 218.636724 127.306257 
L 217.383929 127.013587 
L 215.885725 126.844291 
L 214.166478 126.80549 
L 212.25456 126.895209 
L 210.181868 127.10258 
L 207.98327 127.408634 
L 205.69598 127.787629 
L 203.358871 128.208831 
L 201.01175 128.638622 
L 198.694616 129.042796 
L 196.4469 129.388896 
L 194.306734 129.648439 
L 192.310242 129.798875 
L 190.490881 129.825149 
L 188.878849 129.720776 
L 187.50057 129.488342 
L 186.378259 129.139405 
L 185.529588 128.693796 
L 184.967442 128.178376 
L 184.699781 127.625311 
L 184.729587 127.069998 
L 185.054909 126.54876 
L 185.668994 126.096472 
L 186.560487 125.744263 
L 187.713699 125.51746 
L 189.10894 125.43389 
L 190.722882 125.502666 
L 192.528979 125.723529 
L 194.497899 126.086801 
L 196.597988 126.573932 
L 198.795744 127.158634 
L 201.056305 127.808507 
L 203.343937 128.487059 
L 205.622535 129.156002 
L 207.856118 129.777646 
L 210.009325 130.317274 
L 212.047913 130.745311 
L 213.939244 131.039162 
L 215.652767 131.184609 
L 217.160485 131.17665 
L 218.437409 131.019757 
L 219.461981 130.72752 
L 220.216467 130.321698 
L 220.687308 129.830758 
z
" style="fill:#0000ff;stroke:#000000;stroke-linejoin:miter;"/>
   </g>
   <g id="patch_5">
    <path clip-path="url(#p1417681110)" d="M 275.147289 132.201455 
L 275.028298 131.642728 
L 274.612711 131.10421 
L 273.905998 130.619961 
L 272.918593 130.219735 
L 271.665798 129.927065 
L 270.167593 129.757768 
L 268.448347 129.718967 
L 266.536429 129.808687 
L 264.463736 130.016058 
L 262.265138 130.322111 
L 259.977849 130.701106 
L 257.640739 131.122309 
L 255.293619 131.5521 
L 252.976484 131.956273 
L 250.728769 132.302373 
L 248.588603 132.561917 
L 246.592111 132.712352 
L 244.772749 132.738626 
L 243.160718 132.634253 
L 241.782438 132.40182 
L 240.660127 132.052882 
L 239.811456 131.607274 
L 239.249311 131.091853 
L 238.98165 130.538788 
L 239.011455 129.983475 
L 239.336778 129.462238 
L 239.950863 129.009949 
L 240.842355 128.657741 
L 241.995568 128.430938 
L 243.390808 128.347368 
L 245.00475 128.416143 
L 246.810847 128.637007 
L 248.779767 129.000278 
L 250.879856 129.487409 
L 253.077613 130.072112 
L 255.338174 130.721984 
L 257.625806 131.400537 
L 259.904404 132.069479 
L 262.137986 132.691123 
L 264.291193 133.230752 
L 266.329782 133.658788 
L 268.221113 133.95264 
L 269.934635 134.098086 
L 271.442353 134.090127 
L 272.719277 133.933235 
L 273.74385 133.640997 
L 274.498336 133.235176 
L 274.969177 132.744235 
z
" style="fill:#0000ff;stroke:#000000;stroke-linejoin:miter;"/>
   </g>
   <g id="patch_6">
    <path clip-path="url(#p1417681110)" d="M 262.044498 139.663924 
L 196.906256 136.167751 
L 196.614908 141.595938 
L 261.75315 145.092111 
z
" style="fill:#999999;stroke:#000000;stroke-linejoin:miter;"/>
   </g>
   <g id="text_1">
    <!-- t = 1.0 -->
    <defs>
     <path d="M 18.3125 70.21875 
L 18.3125 54.6875 
L 36.8125 54.6875 
L 36.8125 47.703125 
L 18.3125 47.703125 
L 18.3125 18.015625 
Q 18.3125 11.328125 20.140625 9.421875 
Q 21.96875 7.515625 27.59375 7.515625 
L 36.8125 7.515625 
L 36.8125 0 
L 27.59375 0 
Q 17.1875 0 13.234375 3.875 
Q 9.28125 7.765625 9.28125 18.015625 
L 9.28125 47.703125 
L 2.6875 47.703125 
L 2.6875 54.6875 
L 9.28125 54.6875 
L 9.28125 70.21875 
z
" id="DejaVuSans-116"/>
     <path id="DejaVuSans-32"/>
     <path d="M 10.59375 45.40625 
L 73.1875 45.40625 
L 73.1875 37.203125 
L 10.59375 37.203125 
z
M 10.59375 25.484375 
L 73.1875 25.484375 
L 73.1875 17.1875 
L 10.59375 17.1875 
z
" id="DejaVuSans-61"/>
     <path d="M 12.40625 8.296875 
L 28.515625 8.296875 
L 28.515625 63.921875 
L 10.984375 60.40625 
L 10.984375 69.390625 
L 28.421875 72.90625 
L 38.28125 72.90625 
L 38.28125 8.296875 
L 54.390625 8.296875 
L 54.390625 0 
L 12.40625 0 
z
" id="DejaVuSans-49"/>
     <path d="M 10.6875 12.40625 
L 21 12.40625 
L 21 0 
L 10.6875 0 
z
" id="DejaVuSans-46"/>
     <path d="M 31.78125 66.40625 
Q 24.171875 66.40625 20.328125 58.90625 
Q 16.5 51.421875 16.5 36.375 
Q 16.5 21.390625 20.328125 13.890625 
Q 24.171875 6.390625 31.78125 6.390625 
Q 39.453125 6.390625 43.28125 13.890625 
Q 47.125 21.390625 47.125 36.375 
Q 47.125 51.421875 43.28125 58.90625 
Q 39.453125 66.40625 31.78125 66.40625 
z
M 31.78125 74.21875 
Q 44.046875 74.21875 50.515625 64.515625 
Q 56.984375 54.828125 56.984375 36.375 
Q 56.984375 17.96875 50.515625 8.265625 
Q 44.046875 -1.421875 31.78125 -1.421875 
Q 19.53125 -1.421875 13.0625 8.265625 
Q 6.59375 17.96875 6.59375 36.375 
Q 6.59375 54.828125 13.0625 64.515625 
Q 19.53125 74.21875 31.78125 74.21875 
z
" id="DejaVuSans-48"/>
    </defs>
    <g transform="translate(200.664375 28.56)scale(0.12 -0.12)">
     <use xlink:href="#DejaVuSans-116"/>
     <use x="39.208984" xlink:href="#DejaVuSans-32"/>
     <use x="70.996094" xlink:href="#DejaVuSans-61"/>
     <use x="154.785156" xlink:href="#DejaVuSans-32"/>
     <use x="186.572266" xlink:href="#DejaVuSans-49"/>
     <use x="250.195312" xlink:href="#DejaVuSans-46"/>
     <use x="281.982422" xlink:href="#DejaVuSans-48"/>
    </g>
   </g>
  </g>
 </g>
 <defs>
  <clipPath id="p1417681110">
   <rect height="217.44" width="334.8" x="54" y="34.56"/>
  </clipPath>
 </defs>
</svg>
