<?xml version="1.0" encoding="utf-8" standalone="no"?>
<!DOCTYPE svg PUBLIC "-//W3C//DTD SVG 1.1//EN"
  "http://www.w3.org/Graphics/SVG/1.1/DTD/svg11.dtd">
<!-- Created with matplotlib (https://matplotlib.org/) -->
<svg height="288pt" version="1.1" viewBox="0 0 432 288" width="432pt" xmlns="http://www.w3.org/2000/svg" xmlns:xlink="http://www.w3.org/1999/xlink">
 <defs>
  <style type="text/css">
*{stroke-linecap:butt;stroke-linejoin:round;}
  </style>
 </defs>
 <g id="figure_1">
  <g id="patch_1">
   <path d="M 0 288 
L 432 288 
L 432 0 
L 0 0 
z
" style="fill:#ffffff;"/>
  </g>
  <g id="axes_1">
   <g id="patch_2">
    <path clip-path="url(#pb1c43d064a)" d="M 194.754034 132.406135 
L 194.752789 143.278134 
L 193.665589 143.27801 
L 193.666834 132.40601 
z
" style="stroke:#000000;stroke-linejoin:miter;"/>
   </g>
   <g id="patch_3">
    <path clip-path="url(#pb1c43d064a)" d="M 249.114033 132.412359 
L 249.112788 143.284359 
L 248.025588 143.284235 
L 248.026833 132.412235 
z
" style="stroke:#000000;stroke-linejoin:miter;"/>
   </g>
   <g id="patch_4">
    <path clip-path="url(#pb1c43d064a)" d="M 212.330434 132.408147 
L 212.181732 131.856584 
L 211.737939 131.341063 
L 211.006339 130.895303 
L 209.998942 130.548458 
L 208.732287 130.323208 
L 207.227173 130.23428 
L 205.508312 130.287483 
L 203.603928 130.479326 
L 201.545292 130.797252 
L 199.366209 131.220452 
L 197.102462 131.721232 
L 194.791224 132.266824 
L 192.470449 132.821528 
L 190.178246 133.349047 
L 187.952258 133.814863 
L 185.829036 134.188495 
L 183.843446 134.445491 
L 182.028094 134.56903 
L 180.412787 134.55102 
L 179.02405 134.392632 
L 177.884683 134.104217 
L 177.013395 133.704635 
L 176.424489 133.220016 
L 176.127632 132.682058 
L 176.127695 132.125945 
L 176.424675 131.588055 
L 177.013693 131.103571 
L 177.885073 130.704188 
L 179.024505 130.416034 
L 180.413279 130.257964 
L 182.02859 130.240325 
L 183.843914 130.364279 
L 185.829444 130.62173 
L 187.95258 130.995848 
L 190.178463 131.462174 
L 192.470544 131.990218 
L 194.791192 132.545453 
L 197.102305 133.091575 
L 199.365938 133.592874 
L 201.544924 134.016573 
L 203.603486 134.334969 
L 205.507826 134.527249 
L 207.226675 134.580846 
L 208.73181 134.492263 
L 209.998516 134.267303 
L 211.005992 133.920688 
L 211.737694 133.475096 
L 212.181606 132.959677 
z
" style="fill:#0000ff;stroke:#000000;stroke-linejoin:miter;"/>
   </g>
   <g id="patch_5">
    <path clip-path="url(#pb1c43d064a)" d="M 266.690433 132.414372 
L 266.541732 131.862809 
L 266.097938 131.347288 
L 265.366338 130.901528 
L 264.358941 130.554683 
L 263.092287 130.329433 
L 261.587172 130.240505 
L 259.868311 130.293708 
L 257.963927 130.485551 
L 255.905292 130.803477 
L 253.726209 131.226677 
L 251.462462 131.727457 
L 249.151224 132.273049 
L 246.830449 132.827753 
L 244.538246 133.355272 
L 242.312257 133.821088 
L 240.189035 134.19472 
L 238.203446 134.451716 
L 236.388094 134.575255 
L 234.772787 134.557245 
L 233.384049 134.398857 
L 232.244683 134.110442 
L 231.373394 133.710859 
L 230.784488 133.226241 
L 230.487631 132.688283 
L 230.487695 132.13217 
L 230.784675 131.59428 
L 231.373692 131.109796 
L 232.245072 130.710413 
L 233.384505 130.422259 
L 234.773279 130.264189 
L 236.388589 130.24655 
L 238.203913 130.370504 
L 240.189444 130.627955 
L 242.31258 131.002073 
L 244.538462 131.468399 
L 246.830544 131.996443 
L 249.151192 132.551678 
L 251.462305 133.0978 
L 253.725937 133.599099 
L 255.904923 134.022798 
L 257.963486 134.341194 
L 259.867826 134.533474 
L 261.586675 134.587071 
L 263.091809 134.498488 
L 264.358515 134.273528 
L 265.365992 133.926913 
L 266.097694 133.481321 
L 266.541605 132.965902 
z
" style="fill:#0000ff;stroke:#000000;stroke-linejoin:miter;"/>
   </g>
   <g id="patch_6">
    <path clip-path="url(#pb1c43d064a)" d="M 254.0055 140.56692 
L 188.7735 140.55945 
L 188.772878 145.99545 
L 254.004877 146.00292 
z
" style="fill:#999999;stroke:#000000;stroke-linejoin:miter;"/>
   </g>
   <g id="text_1">
    <!-- t = 3.7 -->
    <defs>
     <path d="M 18.3125 70.21875 
L 18.3125 54.6875 
L 36.8125 54.6875 
L 36.8125 47.703125 
L 18.3125 47.703125 
L 18.3125 18.015625 
Q 18.3125 11.328125 20.140625 9.421875 
Q 21.96875 7.515625 27.59375 7.515625 
L 36.8125 7.515625 
L 36.8125 0 
L 27.59375 0 
Q 17.1875 0 13.234375 3.875 
Q 9.28125 7.765625 9.28125 18.015625 
L 9.28125 47.703125 
L 2.6875 47.703125 
L 2.6875 54.6875 
L 9.28125 54.6875 
L 9.28125 70.21875 
z
" id="DejaVuSans-116"/>
     <path id="DejaVuSans-32"/>
     <path d="M 10.59375 45.40625 
L 73.1875 45.40625 
L 73.1875 37.203125 
L 10.59375 37.203125 
z
M 10.59375 25.484375 
L 73.1875 25.484375 
L 73.1875 17.1875 
L 10.59375 17.1875 
z
" id="DejaVuSans-61"/>
     <path d="M 40.578125 39.3125 
Q 47.65625 37.796875 51.625 33 
Q 55.609375 28.21875 55.609375 21.1875 
Q 55.609375 10.40625 48.1875 4.484375 
Q 40.765625 -1.421875 27.09375 -1.421875 
Q 22.515625 -1.421875 17.65625 -0.515625 
Q 12.796875 0.390625 7.625 2.203125 
L 7.625 11.71875 
Q 11.71875 9.328125 16.59375 8.109375 
Q 21.484375 6.890625 26.8125 6.890625 
Q 36.078125 6.890625 40.9375 10.546875 
Q 45.796875 14.203125 45.796875 21.1875 
Q 45.796875 27.640625 41.28125 31.265625 
Q 36.765625 34.90625 28.71875 34.90625 
L 20.21875 34.90625 
L 20.21875 43.015625 
L 29.109375 43.015625 
Q 36.375 43.015625 40.234375 45.921875 
Q 44.09375 48.828125 44.09375 54.296875 
Q 44.09375 59.90625 40.109375 62.90625 
Q 36.140625 65.921875 28.71875 65.921875 
Q 24.65625 65.921875 20.015625 65.03125 
Q 15.375 64.15625 9.8125 62.3125 
L 9.8125 71.09375 
Q 15.4375 72.65625 20.34375 73.4375 
Q 25.25 74.21875 29.59375 74.21875 
Q 40.828125 74.21875 47.359375 69.109375 
Q 53.90625 64.015625 53.90625 55.328125 
Q 53.90625 49.265625 50.4375 45.09375 
Q 46.96875 40.921875 40.578125 39.3125 
z
" id="DejaVuSans-51"/>
     <path d="M 10.6875 12.40625 
L 21 12.40625 
L 21 0 
L 10.6875 0 
z
" id="DejaVuSans-46"/>
     <path d="M 8.203125 72.90625 
L 55.078125 72.90625 
L 55.078125 68.703125 
L 28.609375 0 
L 18.3125 0 
L 43.21875 64.59375 
L 8.203125 64.59375 
z
" id="DejaVuSans-55"/>
    </defs>
    <g transform="translate(200.664375 28.56)scale(0.12 -0.12)">
     <use xlink:href="#DejaVuSans-116"/>
     <use x="39.208984" xlink:href="#DejaVuSans-32"/>
     <use x="70.996094" xlink:href="#DejaVuSans-61"/>
     <use x="154.785156" xlink:href="#DejaVuSans-32"/>
     <use x="186.572266" xlink:href="#DejaVuSans-51"/>
     <use x="250.195312" xlink:href="#DejaVuSans-46"/>
     <use x="281.982422" xlink:href="#DejaVuSans-55"/>
    </g>
   </g>
  </g>
 </g>
 <defs>
  <clipPath id="pb1c43d064a">
   <rect height="217.44" width="334.8" x="54" y="34.56"/>
  </clipPath>
 </defs>
</svg>
