<?xml version="1.0" encoding="utf-8" standalone="no"?>
<!DOCTYPE svg PUBLIC "-//W3C//DTD SVG 1.1//EN"
  "http://www.w3.org/Graphics/SVG/1.1/DTD/svg11.dtd">
<!-- Created with matplotlib (https://matplotlib.org/) -->
<svg height="288pt" version="1.1" viewBox="0 0 432 288" width="432pt" xmlns="http://www.w3.org/2000/svg" xmlns:xlink="http://www.w3.org/1999/xlink">
 <defs>
  <style type="text/css">
*{stroke-linecap:butt;stroke-linejoin:round;}
  </style>
 </defs>
 <g id="figure_1">
  <g id="patch_1">
   <path d="M 0 288 
L 432 288 
L 432 0 
L 0 0 
z
" style="fill:#ffffff;"/>
  </g>
  <g id="axes_1">
   <g id="patch_2">
    <path clip-path="url(#p0bf35dcee9)" d="M 194.850822 132.400172 
L 194.84367 143.272169 
L 193.756471 143.271454 
L 193.763622 132.399457 
z
" style="stroke:#000000;stroke-linejoin:miter;"/>
   </g>
   <g id="patch_3">
    <path clip-path="url(#p0bf35dcee9)" d="M 249.21081 132.435929 
L 249.203659 143.307927 
L 248.116459 143.307212 
L 248.12361 132.435214 
z
" style="stroke:#000000;stroke-linejoin:miter;"/>
   </g>
   <g id="patch_4">
    <path clip-path="url(#p0bf35dcee9)" d="M 212.427218 132.411733 
L 212.278816 131.860089 
L 211.835303 131.344328 
L 211.103945 130.89817 
L 210.096736 130.550778 
L 208.830205 130.324839 
L 207.325139 130.235094 
L 205.606249 130.287363 
L 203.701761 130.478172 
L 201.642953 130.794979 
L 199.463641 131.216995 
L 197.199622 131.716545 
L 194.888088 132.260882 
L 192.567012 132.814325 
L 190.274523 133.340599 
L 188.048281 133.805205 
L 185.924857 134.177683 
L 183.939128 134.4336 
L 182.123709 134.556153 
L 180.508412 134.537266 
L 179.119761 134.378123 
L 177.980551 134.089089 
L 177.10948 133.689034 
L 176.520837 133.204095 
L 176.224272 132.665976 
L 176.224638 132.109864 
L 176.521911 131.572134 
L 177.111191 131.087971 
L 177.982788 130.689061 
L 179.122377 130.401527 
L 180.511236 130.244211 
L 182.126556 130.227449 
L 183.941813 130.35239 
L 185.927203 130.610919 
L 188.050136 130.98619 
L 190.275764 131.453725 
L 192.567558 131.983014 
L 194.887905 132.539511 
L 197.198721 133.086888 
L 199.46208 133.589416 
L 201.640836 134.014299 
L 203.699225 134.333814 
L 205.60346 134.527128 
L 207.32228 134.581659 
L 208.827462 134.493893 
L 210.09429 134.269622 
L 211.101955 133.923554 
L 211.833899 133.47836 
L 212.27809 132.963182 
z
" style="fill:#0000ff;stroke:#000000;stroke-linejoin:miter;"/>
   </g>
   <g id="patch_5">
    <path clip-path="url(#p0bf35dcee9)" d="M 266.787206 132.447491 
L 266.638804 131.895846 
L 266.195291 131.380085 
L 265.463933 130.933928 
L 264.456725 130.586535 
L 263.190193 130.360597 
L 261.685127 130.270851 
L 259.966237 130.32312 
L 258.06175 130.513929 
L 256.002942 130.830736 
L 253.823629 131.252752 
L 251.55961 131.752303 
L 249.248076 132.296639 
L 246.927 132.850082 
L 244.634511 133.376356 
L 242.40827 133.840963 
L 240.284845 134.213441 
L 238.299116 134.469358 
L 236.483697 134.59191 
L 234.8684 134.573023 
L 233.479749 134.413881 
L 232.34054 134.124847 
L 231.469468 133.724791 
L 230.880825 133.239853 
L 230.584261 132.701733 
L 230.584626 132.145621 
L 230.881899 131.607892 
L 231.471179 131.123728 
L 232.342776 130.724819 
L 233.482365 130.437284 
L 234.871224 130.279968 
L 236.486544 130.263207 
L 238.301801 130.388147 
L 240.287191 130.646676 
L 242.410124 131.021948 
L 244.635752 131.489483 
L 246.927547 132.018772 
L 249.247893 132.575268 
L 251.558709 133.122645 
L 253.822069 133.625174 
L 256.000824 134.050056 
L 258.059213 134.369572 
L 259.963448 134.562886 
L 261.682268 134.617416 
L 263.187451 134.529651 
L 264.454279 134.305379 
L 265.461943 133.959311 
L 266.193887 133.514117 
L 266.638078 132.998939 
z
" style="fill:#0000ff;stroke:#000000;stroke-linejoin:miter;"/>
   </g>
   <g id="patch_6">
    <path clip-path="url(#p0bf35dcee9)" d="M 254.097845 140.593146 
L 188.865859 140.550237 
L 188.862284 145.986236 
L 254.09427 146.029144 
z
" style="fill:#999999;stroke:#000000;stroke-linejoin:miter;"/>
   </g>
   <g id="text_1">
    <!-- t = 2.6 -->
    <defs>
     <path d="M 18.3125 70.21875 
L 18.3125 54.6875 
L 36.8125 54.6875 
L 36.8125 47.703125 
L 18.3125 47.703125 
L 18.3125 18.015625 
Q 18.3125 11.328125 20.140625 9.421875 
Q 21.96875 7.515625 27.59375 7.515625 
L 36.8125 7.515625 
L 36.8125 0 
L 27.59375 0 
Q 17.1875 0 13.234375 3.875 
Q 9.28125 7.765625 9.28125 18.015625 
L 9.28125 47.703125 
L 2.6875 47.703125 
L 2.6875 54.6875 
L 9.28125 54.6875 
L 9.28125 70.21875 
z
" id="DejaVuSans-116"/>
     <path id="DejaVuSans-32"/>
     <path d="M 10.59375 45.40625 
L 73.1875 45.40625 
L 73.1875 37.203125 
L 10.59375 37.203125 
z
M 10.59375 25.484375 
L 73.1875 25.484375 
L 73.1875 17.1875 
L 10.59375 17.1875 
z
" id="DejaVuSans-61"/>
     <path d="M 19.1875 8.296875 
L 53.609375 8.296875 
L 53.609375 0 
L 7.328125 0 
L 7.328125 8.296875 
Q 12.9375 14.109375 22.625 23.890625 
Q 32.328125 33.6875 34.8125 36.53125 
Q 39.546875 41.84375 41.421875 45.53125 
Q 43.3125 49.21875 43.3125 52.78125 
Q 43.3125 58.59375 39.234375 62.25 
Q 35.15625 65.921875 28.609375 65.921875 
Q 23.96875 65.921875 18.8125 64.3125 
Q 13.671875 62.703125 7.8125 59.421875 
L 7.8125 69.390625 
Q 13.765625 71.78125 18.9375 73 
Q 24.125 74.21875 28.421875 74.21875 
Q 39.75 74.21875 46.484375 68.546875 
Q 53.21875 62.890625 53.21875 53.421875 
Q 53.21875 48.921875 51.53125 44.890625 
Q 49.859375 40.875 45.40625 35.40625 
Q 44.1875 33.984375 37.640625 27.21875 
Q 31.109375 20.453125 19.1875 8.296875 
z
" id="DejaVuSans-50"/>
     <path d="M 10.6875 12.40625 
L 21 12.40625 
L 21 0 
L 10.6875 0 
z
" id="DejaVuSans-46"/>
     <path d="M 33.015625 40.375 
Q 26.375 40.375 22.484375 35.828125 
Q 18.609375 31.296875 18.609375 23.390625 
Q 18.609375 15.53125 22.484375 10.953125 
Q 26.375 6.390625 33.015625 6.390625 
Q 39.65625 6.390625 43.53125 10.953125 
Q 47.40625 15.53125 47.40625 23.390625 
Q 47.40625 31.296875 43.53125 35.828125 
Q 39.65625 40.375 33.015625 40.375 
z
M 52.59375 71.296875 
L 52.59375 62.3125 
Q 48.875 64.0625 45.09375 64.984375 
Q 41.3125 65.921875 37.59375 65.921875 
Q 27.828125 65.921875 22.671875 59.328125 
Q 17.53125 52.734375 16.796875 39.40625 
Q 19.671875 43.65625 24.015625 45.921875 
Q 28.375 48.1875 33.59375 48.1875 
Q 44.578125 48.1875 50.953125 41.515625 
Q 57.328125 34.859375 57.328125 23.390625 
Q 57.328125 12.15625 50.6875 5.359375 
Q 44.046875 -1.421875 33.015625 -1.421875 
Q 20.359375 -1.421875 13.671875 8.265625 
Q 6.984375 17.96875 6.984375 36.375 
Q 6.984375 53.65625 15.1875 63.9375 
Q 23.390625 74.21875 37.203125 74.21875 
Q 40.921875 74.21875 44.703125 73.484375 
Q 48.484375 72.75 52.59375 71.296875 
z
" id="DejaVuSans-54"/>
    </defs>
    <g transform="translate(200.664375 28.56)scale(0.12 -0.12)">
     <use xlink:href="#DejaVuSans-116"/>
     <use x="39.208984" xlink:href="#DejaVuSans-32"/>
     <use x="70.996094" xlink:href="#DejaVuSans-61"/>
     <use x="154.785156" xlink:href="#DejaVuSans-32"/>
     <use x="186.572266" xlink:href="#DejaVuSans-50"/>
     <use x="250.195312" xlink:href="#DejaVuSans-46"/>
     <use x="281.982422" xlink:href="#DejaVuSans-54"/>
    </g>
   </g>
  </g>
 </g>
 <defs>
  <clipPath id="p0bf35dcee9">
   <rect height="217.44" width="334.8" x="54" y="34.56"/>
  </clipPath>
 </defs>
</svg>
