<?xml version="1.0" encoding="utf-8" standalone="no"?>
<!DOCTYPE svg PUBLIC "-//W3C//DTD SVG 1.1//EN"
  "http://www.w3.org/Graphics/SVG/1.1/DTD/svg11.dtd">
<!-- Created with matplotlib (https://matplotlib.org/) -->
<svg height="288pt" version="1.1" viewBox="0 0 432 288" width="432pt" xmlns="http://www.w3.org/2000/svg" xmlns:xlink="http://www.w3.org/1999/xlink">
 <defs>
  <style type="text/css">
*{stroke-linecap:butt;stroke-linejoin:round;}
  </style>
 </defs>
 <g id="figure_1">
  <g id="patch_1">
   <path d="M 0 288 
L 432 288 
L 432 0 
L 0 0 
z
" style="fill:#ffffff;"/>
  </g>
  <g id="axes_1">
   <g id="patch_2">
    <path clip-path="url(#p9ed1c641ae)" d="M 176.276841 159.616999 
L 178.655395 170.225621 
L 177.594533 170.463476 
L 175.215978 159.854854 
z
" style="stroke:#000000;stroke-linejoin:miter;"/>
   </g>
   <g id="patch_3">
    <path clip-path="url(#p9ed1c641ae)" d="M 229.319951 147.724226 
L 231.698505 158.332848 
L 230.637643 158.570703 
L 228.259089 147.962081 
z
" style="stroke:#000000;stroke-linejoin:miter;"/>
   </g>
   <g id="patch_4">
    <path clip-path="url(#p9ed1c641ae)" d="M 193.427446 155.771669 
L 193.161619 155.26603 
L 192.615746 154.860153 
L 191.804315 154.585343 
L 190.745427 154.467417 
L 189.460184 154.524887 
L 187.972104 154.76757 
L 186.306572 155.195724 
L 184.490362 155.799765 
L 182.55124 156.560595 
L 180.517635 157.450511 
L 178.418401 158.434659 
L 176.282636 159.472926 
L 174.139559 160.522172 
L 172.018412 161.538639 
L 169.948367 162.480405 
L 167.958418 163.309727 
L 166.077233 163.995116 
L 164.332945 164.513021 
L 162.752869 164.849022 
L 161.363139 164.998455 
L 160.188272 164.96643 
L 159.250648 164.767254 
L 158.569944 164.423293 
L 158.162533 163.963359 
L 158.040868 163.420719 
L 158.212907 162.830867 
L 158.681592 162.229202 
L 159.44442 161.648768 
L 160.493147 161.118192 
L 161.813642 160.659967 
L 163.38592 160.28918 
L 165.184354 160.012773 
L 167.178088 159.829368 
L 169.331628 159.729681 
L 171.605605 159.697475 
L 173.957687 159.711001 
L 176.343593 159.744805 
L 178.718201 159.771804 
L 181.036669 159.765461 
L 183.255557 159.701927 
L 185.333892 159.562004 
L 187.234139 159.332781 
L 188.923037 159.008839 
L 190.372282 158.592945 
L 191.559028 158.096172 
L 192.466202 157.537436 
L 193.082625 156.942488 
L 193.402951 156.3424 
z
" style="fill:#0000ff;stroke:#000000;stroke-linejoin:miter;"/>
   </g>
   <g id="patch_5">
    <path clip-path="url(#p9ed1c641ae)" d="M 246.470556 143.878896 
L 246.204729 143.373257 
L 245.658856 142.96738 
L 244.847425 142.69257 
L 243.788537 142.574644 
L 242.503295 142.632114 
L 241.015214 142.874797 
L 239.349682 143.302951 
L 237.533473 143.906992 
L 235.594351 144.667822 
L 233.560745 145.557738 
L 231.461511 146.541886 
L 229.325746 147.580153 
L 227.182669 148.629399 
L 225.061522 149.645865 
L 222.991477 150.587632 
L 221.001528 151.416954 
L 219.120344 152.102343 
L 217.376056 152.620248 
L 215.795979 152.956249 
L 214.406249 153.105682 
L 213.231382 153.073657 
L 212.293758 152.874481 
L 211.613055 152.53052 
L 211.205643 152.070586 
L 211.083978 151.527946 
L 211.256018 150.938094 
L 211.724702 150.336429 
L 212.48753 149.755995 
L 213.536257 149.225419 
L 214.856753 148.767194 
L 216.42903 148.396407 
L 218.227464 148.12 
L 220.221198 147.936595 
L 222.374738 147.836908 
L 224.648716 147.804702 
L 227.000797 147.818228 
L 229.386704 147.852032 
L 231.761312 147.879031 
L 234.079779 147.872687 
L 236.298667 147.809154 
L 238.377003 147.669231 
L 240.27725 147.440008 
L 241.966147 147.116066 
L 243.415392 146.700172 
L 244.602138 146.203399 
L 245.509313 145.644663 
L 246.125735 145.049715 
L 246.446062 144.449627 
z
" style="fill:#0000ff;stroke:#000000;stroke-linejoin:miter;"/>
   </g>
   <g id="patch_6">
    <path clip-path="url(#p9ed1c641ae)" d="M 235.877747 154.610343 
L 172.226014 168.88167 
L 173.415292 174.185981 
L 237.067024 159.914654 
z
" style="fill:#999999;stroke:#000000;stroke-linejoin:miter;"/>
   </g>
   <g id="text_1">
    <!-- t = 0.6 -->
    <defs>
     <path d="M 18.3125 70.21875 
L 18.3125 54.6875 
L 36.8125 54.6875 
L 36.8125 47.703125 
L 18.3125 47.703125 
L 18.3125 18.015625 
Q 18.3125 11.328125 20.140625 9.421875 
Q 21.96875 7.515625 27.59375 7.515625 
L 36.8125 7.515625 
L 36.8125 0 
L 27.59375 0 
Q 17.1875 0 13.234375 3.875 
Q 9.28125 7.765625 9.28125 18.015625 
L 9.28125 47.703125 
L 2.6875 47.703125 
L 2.6875 54.6875 
L 9.28125 54.6875 
L 9.28125 70.21875 
z
" id="DejaVuSans-116"/>
     <path id="DejaVuSans-32"/>
     <path d="M 10.59375 45.40625 
L 73.1875 45.40625 
L 73.1875 37.203125 
L 10.59375 37.203125 
z
M 10.59375 25.484375 
L 73.1875 25.484375 
L 73.1875 17.1875 
L 10.59375 17.1875 
z
" id="DejaVuSans-61"/>
     <path d="M 31.78125 66.40625 
Q 24.171875 66.40625 20.328125 58.90625 
Q 16.5 51.421875 16.5 36.375 
Q 16.5 21.390625 20.328125 13.890625 
Q 24.171875 6.390625 31.78125 6.390625 
Q 39.453125 6.390625 43.28125 13.890625 
Q 47.125 21.390625 47.125 36.375 
Q 47.125 51.421875 43.28125 58.90625 
Q 39.453125 66.40625 31.78125 66.40625 
z
M 31.78125 74.21875 
Q 44.046875 74.21875 50.515625 64.515625 
Q 56.984375 54.828125 56.984375 36.375 
Q 56.984375 17.96875 50.515625 8.265625 
Q 44.046875 -1.421875 31.78125 -1.421875 
Q 19.53125 -1.421875 13.0625 8.265625 
Q 6.59375 17.96875 6.59375 36.375 
Q 6.59375 54.828125 13.0625 64.515625 
Q 19.53125 74.21875 31.78125 74.21875 
z
" id="DejaVuSans-48"/>
     <path d="M 10.6875 12.40625 
L 21 12.40625 
L 21 0 
L 10.6875 0 
z
" id="DejaVuSans-46"/>
     <path d="M 33.015625 40.375 
Q 26.375 40.375 22.484375 35.828125 
Q 18.609375 31.296875 18.609375 23.390625 
Q 18.609375 15.53125 22.484375 10.953125 
Q 26.375 6.390625 33.015625 6.390625 
Q 39.65625 6.390625 43.53125 10.953125 
Q 47.40625 15.53125 47.40625 23.390625 
Q 47.40625 31.296875 43.53125 35.828125 
Q 39.65625 40.375 33.015625 40.375 
z
M 52.59375 71.296875 
L 52.59375 62.3125 
Q 48.875 64.0625 45.09375 64.984375 
Q 41.3125 65.921875 37.59375 65.921875 
Q 27.828125 65.921875 22.671875 59.328125 
Q 17.53125 52.734375 16.796875 39.40625 
Q 19.671875 43.65625 24.015625 45.921875 
Q 28.375 48.1875 33.59375 48.1875 
Q 44.578125 48.1875 50.953125 41.515625 
Q 57.328125 34.859375 57.328125 23.390625 
Q 57.328125 12.15625 50.6875 5.359375 
Q 44.046875 -1.421875 33.015625 -1.421875 
Q 20.359375 -1.421875 13.671875 8.265625 
Q 6.984375 17.96875 6.984375 36.375 
Q 6.984375 53.65625 15.1875 63.9375 
Q 23.390625 74.21875 37.203125 74.21875 
Q 40.921875 74.21875 44.703125 73.484375 
Q 48.484375 72.75 52.59375 71.296875 
z
" id="DejaVuSans-54"/>
    </defs>
    <g transform="translate(200.664375 28.56)scale(0.12 -0.12)">
     <use xlink:href="#DejaVuSans-116"/>
     <use x="39.208984" xlink:href="#DejaVuSans-32"/>
     <use x="70.996094" xlink:href="#DejaVuSans-61"/>
     <use x="154.785156" xlink:href="#DejaVuSans-32"/>
     <use x="186.572266" xlink:href="#DejaVuSans-48"/>
     <use x="250.195312" xlink:href="#DejaVuSans-46"/>
     <use x="281.982422" xlink:href="#DejaVuSans-54"/>
    </g>
   </g>
  </g>
 </g>
 <defs>
  <clipPath id="p9ed1c641ae">
   <rect height="217.44" width="334.8" x="54" y="34.56"/>
  </clipPath>
 </defs>
</svg>
