<?xml version="1.0" encoding="utf-8" standalone="no"?>
<!DOCTYPE svg PUBLIC "-//W3C//DTD SVG 1.1//EN"
  "http://www.w3.org/Graphics/SVG/1.1/DTD/svg11.dtd">
<!-- Created with matplotlib (https://matplotlib.org/) -->
<svg height="288pt" version="1.1" viewBox="0 0 432 288" width="432pt" xmlns="http://www.w3.org/2000/svg" xmlns:xlink="http://www.w3.org/1999/xlink">
 <defs>
  <style type="text/css">
*{stroke-linecap:butt;stroke-linejoin:round;}
  </style>
 </defs>
 <g id="figure_1">
  <g id="patch_1">
   <path d="M 0 288 
L 432 288 
L 432 0 
L 0 0 
z
" style="fill:#ffffff;"/>
  </g>
  <g id="axes_1">
   <g id="patch_2">
    <path clip-path="url(#pf86033fa69)" d="M 150.798285 146.234765 
L 154.055547 156.607356 
L 153.018288 156.933082 
L 149.761026 146.560492 
z
" style="stroke:#000000;stroke-linejoin:miter;"/>
   </g>
   <g id="patch_3">
    <path clip-path="url(#pf86033fa69)" d="M 202.661236 129.948455 
L 205.918498 140.321046 
L 204.881239 140.646772 
L 201.623977 130.274182 
z
" style="stroke:#000000;stroke-linejoin:miter;"/>
   </g>
   <g id="patch_4">
    <path clip-path="url(#pf86033fa69)" d="M 167.567305 140.968858 
L 167.26013 140.487218 
L 166.682231 140.128405 
L 165.850664 139.922405 
L 164.785623 139.893431 
L 163.509687 140.058164 
L 162.04711 140.424423 
L 160.42321 140.99034 
L 158.663867 141.744128 
L 156.795152 142.664433 
L 154.843078 143.721272 
L 152.833484 144.8775 
L 150.792013 146.090713 
L 148.744173 147.315477 
L 146.715446 148.505743 
L 144.731395 149.617297 
L 142.817758 150.610105 
L 141.00047 151.450388 
L 139.305594 152.112327 
L 137.759145 152.57927 
L 136.386777 152.844382 
L 135.213346 152.910705 
L 134.262352 152.790625 
L 133.555272 152.504786 
L 133.11083 152.080528 
L 132.944218 151.549961 
L 133.066335 150.947789 
L 133.483071 150.309043 
L 134.194694 149.666858 
L 135.195385 149.050451 
L 136.472942 148.483417 
L 138.00871 147.982463 
L 139.777735 147.556649 
L 141.749152 147.20718 
L 143.886815 146.927774 
L 146.150136 146.705544 
L 148.495112 146.522353 
L 150.87549 146.356543 
L 153.24404 146.184895 
L 155.553859 145.984716 
L 157.759664 145.735873 
L 159.819022 145.422661 
L 161.693448 145.035351 
L 163.349345 144.571327 
L 164.75874 144.035712 
L 165.899793 143.441449 
L 166.757072 142.808817 
L 167.32159 142.16441 
L 167.590618 141.53964 
z
" style="fill:#0000ff;stroke:#000000;stroke-linejoin:miter;"/>
   </g>
   <g id="patch_5">
    <path clip-path="url(#pf86033fa69)" d="M 219.430257 124.682548 
L 219.123081 124.200908 
L 218.545183 123.842095 
L 217.713615 123.636095 
L 216.648575 123.607121 
L 215.372638 123.771854 
L 213.910061 124.138113 
L 212.286161 124.70403 
L 210.526819 125.457818 
L 208.658103 126.378123 
L 206.70603 127.434962 
L 204.696435 128.59119 
L 202.654964 129.804403 
L 200.607125 131.029167 
L 198.578397 132.219433 
L 196.594346 133.330987 
L 194.680709 134.323795 
L 192.863421 135.164078 
L 191.168546 135.826017 
L 189.622097 136.29296 
L 188.249728 136.558072 
L 187.076297 136.624395 
L 186.125303 136.504315 
L 185.418223 136.218476 
L 184.973781 135.794218 
L 184.807169 135.263651 
L 184.929286 134.661479 
L 185.346022 134.022733 
L 186.057645 133.380548 
L 187.058336 132.764141 
L 188.335893 132.197107 
L 189.871661 131.696153 
L 191.640686 131.270339 
L 193.612103 130.92087 
L 195.749766 130.641464 
L 198.013088 130.419234 
L 200.358063 130.236043 
L 202.738441 130.070233 
L 205.106991 129.898585 
L 207.41681 129.698406 
L 209.622615 129.449563 
L 211.681973 129.136351 
L 213.556399 128.749041 
L 215.212296 128.285017 
L 216.621691 127.749402 
L 217.762744 127.155139 
L 218.620023 126.522507 
L 219.184541 125.8781 
L 219.453569 125.25333 
z
" style="fill:#0000ff;stroke:#000000;stroke-linejoin:miter;"/>
   </g>
   <g id="patch_6">
    <path clip-path="url(#pf86033fa69)" d="M 209.771848 136.26213 
L 147.536306 155.805702 
L 149.164937 160.991997 
L 211.400479 141.448425 
z
" style="fill:#999999;stroke:#000000;stroke-linejoin:miter;"/>
   </g>
   <g id="text_1">
    <!-- t = 0.9 -->
    <defs>
     <path d="M 18.3125 70.21875 
L 18.3125 54.6875 
L 36.8125 54.6875 
L 36.8125 47.703125 
L 18.3125 47.703125 
L 18.3125 18.015625 
Q 18.3125 11.328125 20.140625 9.421875 
Q 21.96875 7.515625 27.59375 7.515625 
L 36.8125 7.515625 
L 36.8125 0 
L 27.59375 0 
Q 17.1875 0 13.234375 3.875 
Q 9.28125 7.765625 9.28125 18.015625 
L 9.28125 47.703125 
L 2.6875 47.703125 
L 2.6875 54.6875 
L 9.28125 54.6875 
L 9.28125 70.21875 
z
" id="DejaVuSans-116"/>
     <path id="DejaVuSans-32"/>
     <path d="M 10.59375 45.40625 
L 73.1875 45.40625 
L 73.1875 37.203125 
L 10.59375 37.203125 
z
M 10.59375 25.484375 
L 73.1875 25.484375 
L 73.1875 17.1875 
L 10.59375 17.1875 
z
" id="DejaVuSans-61"/>
     <path d="M 31.78125 66.40625 
Q 24.171875 66.40625 20.328125 58.90625 
Q 16.5 51.421875 16.5 36.375 
Q 16.5 21.390625 20.328125 13.890625 
Q 24.171875 6.390625 31.78125 6.390625 
Q 39.453125 6.390625 43.28125 13.890625 
Q 47.125 21.390625 47.125 36.375 
Q 47.125 51.421875 43.28125 58.90625 
Q 39.453125 66.40625 31.78125 66.40625 
z
M 31.78125 74.21875 
Q 44.046875 74.21875 50.515625 64.515625 
Q 56.984375 54.828125 56.984375 36.375 
Q 56.984375 17.96875 50.515625 8.265625 
Q 44.046875 -1.421875 31.78125 -1.421875 
Q 19.53125 -1.421875 13.0625 8.265625 
Q 6.59375 17.96875 6.59375 36.375 
Q 6.59375 54.828125 13.0625 64.515625 
Q 19.53125 74.21875 31.78125 74.21875 
z
" id="DejaVuSans-48"/>
     <path d="M 10.6875 12.40625 
L 21 12.40625 
L 21 0 
L 10.6875 0 
z
" id="DejaVuSans-46"/>
     <path d="M 10.984375 1.515625 
L 10.984375 10.5 
Q 14.703125 8.734375 18.5 7.8125 
Q 22.3125 6.890625 25.984375 6.890625 
Q 35.75 6.890625 40.890625 13.453125 
Q 46.046875 20.015625 46.78125 33.40625 
Q 43.953125 29.203125 39.59375 26.953125 
Q 35.25 24.703125 29.984375 24.703125 
Q 19.046875 24.703125 12.671875 31.3125 
Q 6.296875 37.9375 6.296875 49.421875 
Q 6.296875 60.640625 12.9375 67.421875 
Q 19.578125 74.21875 30.609375 74.21875 
Q 43.265625 74.21875 49.921875 64.515625 
Q 56.59375 54.828125 56.59375 36.375 
Q 56.59375 19.140625 48.40625 8.859375 
Q 40.234375 -1.421875 26.421875 -1.421875 
Q 22.703125 -1.421875 18.890625 -0.6875 
Q 15.09375 0.046875 10.984375 1.515625 
z
M 30.609375 32.421875 
Q 37.25 32.421875 41.125 36.953125 
Q 45.015625 41.5 45.015625 49.421875 
Q 45.015625 57.28125 41.125 61.84375 
Q 37.25 66.40625 30.609375 66.40625 
Q 23.96875 66.40625 20.09375 61.84375 
Q 16.21875 57.28125 16.21875 49.421875 
Q 16.21875 41.5 20.09375 36.953125 
Q 23.96875 32.421875 30.609375 32.421875 
z
" id="DejaVuSans-57"/>
    </defs>
    <g transform="translate(200.664375 28.56)scale(0.12 -0.12)">
     <use xlink:href="#DejaVuSans-116"/>
     <use x="39.208984" xlink:href="#DejaVuSans-32"/>
     <use x="70.996094" xlink:href="#DejaVuSans-61"/>
     <use x="154.785156" xlink:href="#DejaVuSans-32"/>
     <use x="186.572266" xlink:href="#DejaVuSans-48"/>
     <use x="250.195312" xlink:href="#DejaVuSans-46"/>
     <use x="281.982422" xlink:href="#DejaVuSans-57"/>
    </g>
   </g>
  </g>
 </g>
 <defs>
  <clipPath id="pf86033fa69">
   <rect height="217.44" width="334.8" x="54" y="34.56"/>
  </clipPath>
 </defs>
</svg>
