<?xml version="1.0" encoding="utf-8" standalone="no"?>
<!DOCTYPE svg PUBLIC "-//W3C//DTD SVG 1.1//EN"
  "http://www.w3.org/Graphics/SVG/1.1/DTD/svg11.dtd">
<!-- Created with matplotlib (https://matplotlib.org/) -->
<svg height="288pt" version="1.1" viewBox="0 0 432 288" width="432pt" xmlns="http://www.w3.org/2000/svg" xmlns:xlink="http://www.w3.org/1999/xlink">
 <defs>
  <style type="text/css">
*{stroke-linecap:butt;stroke-linejoin:round;}
  </style>
 </defs>
 <g id="figure_1">
  <g id="patch_1">
   <path d="M 0 288 
L 432 288 
L 432 0 
L 0 0 
z
" style="fill:#ffffff;"/>
  </g>
  <g id="axes_1">
   <g id="patch_2">
    <path clip-path="url(#pd84a49e575)" d="M 196.873799 133.232832 
L 196.893453 144.104814 
L 195.806255 144.106779 
L 195.786601 133.234797 
z
" style="stroke:#000000;stroke-linejoin:miter;"/>
   </g>
   <g id="patch_3">
    <path clip-path="url(#pd84a49e575)" d="M 251.23371 133.134562 
L 251.253364 144.006544 
L 250.166166 144.008509 
L 250.146512 133.136527 
z
" style="stroke:#000000;stroke-linejoin:miter;"/>
   </g>
   <g id="patch_4">
    <path clip-path="url(#pd84a49e575)" d="M 214.45017 133.201058 
L 214.300408 132.649781 
L 213.855625 132.135114 
L 213.123169 131.690762 
L 212.115107 131.345853 
L 210.848022 131.123039 
L 209.34274 131.037004 
L 207.623984 131.093511 
L 205.719973 131.289015 
L 203.661952 131.610897 
L 201.483687 132.038285 
L 199.220906 132.543416 
L 196.910721 133.09345 
L 194.591017 133.652614 
L 192.299832 134.184539 
L 190.074743 134.654633 
L 187.952243 135.032345 
L 185.967152 135.293157 
L 184.15204 135.420185 
L 182.536702 135.405281 
L 181.147662 135.249563 
L 180.007744 134.963339 
L 179.135689 134.565432 
L 178.545852 134.081946 
L 178.247961 133.544559 
L 178.246956 132.988448 
L 178.542902 132.449988 
L 179.130987 131.964373 
L 180.001597 131.563315 
L 181.140474 131.272972 
L 182.528941 131.112232 
L 184.144215 131.091488 
L 185.959774 131.211953 
L 187.945796 131.465586 
L 190.069647 131.835622 
L 192.296421 132.297668 
L 194.589514 132.821305 
L 196.911225 133.372078 
L 199.223384 133.913757 
L 201.487975 134.410703 
L 203.667772 134.830213 
L 205.726943 135.144652 
L 207.631649 135.333271 
L 209.350597 135.383563 
L 210.855559 135.292087 
L 212.12183 135.064692 
L 213.128638 134.716141 
L 213.859483 134.269143 
L 214.302402 133.752872 
z
" style="fill:#0000ff;stroke:#000000;stroke-linejoin:miter;"/>
   </g>
   <g id="patch_5">
    <path clip-path="url(#pd84a49e575)" d="M 268.810081 133.102788 
L 268.660319 132.551511 
L 268.215536 132.036844 
L 267.48308 131.592492 
L 266.475019 131.247583 
L 265.207934 131.024769 
L 263.702651 130.938734 
L 261.983895 130.995241 
L 260.079884 131.190745 
L 258.021863 131.512627 
L 255.843598 131.940015 
L 253.580818 132.445146 
L 251.270633 132.99518 
L 248.950928 133.554344 
L 246.659744 134.086269 
L 244.434654 134.556363 
L 242.312155 134.934075 
L 240.327063 135.194887 
L 238.511951 135.321915 
L 236.896613 135.307011 
L 235.507574 135.151293 
L 234.367655 134.865069 
L 233.4956 134.467162 
L 232.905763 133.983676 
L 232.607873 133.446289 
L 232.606867 132.890178 
L 232.902813 132.351718 
L 233.490898 131.866103 
L 234.361508 131.465045 
L 235.500385 131.174702 
L 236.888852 131.013962 
L 238.504126 130.993218 
L 240.319685 131.113683 
L 242.305707 131.367316 
L 244.429558 131.737352 
L 246.656333 132.199398 
L 248.949425 132.723035 
L 251.271136 133.273808 
L 253.583295 133.815487 
L 255.847887 134.312433 
L 258.027683 134.731943 
L 260.086854 135.046382 
L 261.99156 135.235001 
L 263.710509 135.285293 
L 265.21547 135.193817 
L 266.481741 134.966422 
L 267.48855 134.617871 
L 268.219394 134.170873 
L 268.662314 133.654602 
z
" style="fill:#0000ff;stroke:#000000;stroke-linejoin:miter;"/>
   </g>
   <g id="patch_6">
    <path clip-path="url(#pd84a49e575)" d="M 256.140842 141.279704 
L 190.908949 141.397628 
L 190.918776 146.833619 
L 256.150669 146.715695 
z
" style="fill:#999999;stroke:#000000;stroke-linejoin:miter;"/>
   </g>
   <g id="text_1">
    <!-- t = 1.6 -->
    <defs>
     <path d="M 18.3125 70.21875 
L 18.3125 54.6875 
L 36.8125 54.6875 
L 36.8125 47.703125 
L 18.3125 47.703125 
L 18.3125 18.015625 
Q 18.3125 11.328125 20.140625 9.421875 
Q 21.96875 7.515625 27.59375 7.515625 
L 36.8125 7.515625 
L 36.8125 0 
L 27.59375 0 
Q 17.1875 0 13.234375 3.875 
Q 9.28125 7.765625 9.28125 18.015625 
L 9.28125 47.703125 
L 2.6875 47.703125 
L 2.6875 54.6875 
L 9.28125 54.6875 
L 9.28125 70.21875 
z
" id="DejaVuSans-116"/>
     <path id="DejaVuSans-32"/>
     <path d="M 10.59375 45.40625 
L 73.1875 45.40625 
L 73.1875 37.203125 
L 10.59375 37.203125 
z
M 10.59375 25.484375 
L 73.1875 25.484375 
L 73.1875 17.1875 
L 10.59375 17.1875 
z
" id="DejaVuSans-61"/>
     <path d="M 12.40625 8.296875 
L 28.515625 8.296875 
L 28.515625 63.921875 
L 10.984375 60.40625 
L 10.984375 69.390625 
L 28.421875 72.90625 
L 38.28125 72.90625 
L 38.28125 8.296875 
L 54.390625 8.296875 
L 54.390625 0 
L 12.40625 0 
z
" id="DejaVuSans-49"/>
     <path d="M 10.6875 12.40625 
L 21 12.40625 
L 21 0 
L 10.6875 0 
z
" id="DejaVuSans-46"/>
     <path d="M 33.015625 40.375 
Q 26.375 40.375 22.484375 35.828125 
Q 18.609375 31.296875 18.609375 23.390625 
Q 18.609375 15.53125 22.484375 10.953125 
Q 26.375 6.390625 33.015625 6.390625 
Q 39.65625 6.390625 43.53125 10.953125 
Q 47.40625 15.53125 47.40625 23.390625 
Q 47.40625 31.296875 43.53125 35.828125 
Q 39.65625 40.375 33.015625 40.375 
z
M 52.59375 71.296875 
L 52.59375 62.3125 
Q 48.875 64.0625 45.09375 64.984375 
Q 41.3125 65.921875 37.59375 65.921875 
Q 27.828125 65.921875 22.671875 59.328125 
Q 17.53125 52.734375 16.796875 39.40625 
Q 19.671875 43.65625 24.015625 45.921875 
Q 28.375 48.1875 33.59375 48.1875 
Q 44.578125 48.1875 50.953125 41.515625 
Q 57.328125 34.859375 57.328125 23.390625 
Q 57.328125 12.15625 50.6875 5.359375 
Q 44.046875 -1.421875 33.015625 -1.421875 
Q 20.359375 -1.421875 13.671875 8.265625 
Q 6.984375 17.96875 6.984375 36.375 
Q 6.984375 53.65625 15.1875 63.9375 
Q 23.390625 74.21875 37.203125 74.21875 
Q 40.921875 74.21875 44.703125 73.484375 
Q 48.484375 72.75 52.59375 71.296875 
z
" id="DejaVuSans-54"/>
    </defs>
    <g transform="translate(200.664375 28.56)scale(0.12 -0.12)">
     <use xlink:href="#DejaVuSans-116"/>
     <use x="39.208984" xlink:href="#DejaVuSans-32"/>
     <use x="70.996094" xlink:href="#DejaVuSans-61"/>
     <use x="154.785156" xlink:href="#DejaVuSans-32"/>
     <use x="186.572266" xlink:href="#DejaVuSans-49"/>
     <use x="250.195312" xlink:href="#DejaVuSans-46"/>
     <use x="281.982422" xlink:href="#DejaVuSans-54"/>
    </g>
   </g>
  </g>
 </g>
 <defs>
  <clipPath id="pd84a49e575">
   <rect height="217.44" width="334.8" x="54" y="34.56"/>
  </clipPath>
 </defs>
</svg>
