<?xml version="1.0" encoding="utf-8" standalone="no"?>
<!DOCTYPE svg PUBLIC "-//W3C//DTD SVG 1.1//EN"
  "http://www.w3.org/Graphics/SVG/1.1/DTD/svg11.dtd">
<!-- Created with matplotlib (https://matplotlib.org/) -->
<svg height="288pt" version="1.1" viewBox="0 0 432 288" width="432pt" xmlns="http://www.w3.org/2000/svg" xmlns:xlink="http://www.w3.org/1999/xlink">
 <defs>
  <style type="text/css">
*{stroke-linecap:butt;stroke-linejoin:round;}
  </style>
 </defs>
 <g id="figure_1">
  <g id="patch_1">
   <path d="M 0 288 
L 432 288 
L 432 0 
L 0 0 
z
" style="fill:#ffffff;"/>
  </g>
  <g id="axes_1">
   <g id="patch_2">
    <path clip-path="url(#pa84d92d404)" d="M 194.924215 131.996874 
L 194.742416 142.867354 
L 193.655368 142.849174 
L 193.837167 131.978694 
z
" style="stroke:#000000;stroke-linejoin:miter;"/>
   </g>
   <g id="patch_3">
    <path clip-path="url(#pa84d92d404)" d="M 249.276614 132.905871 
L 249.094815 143.776351 
L 248.007767 143.758171 
L 248.189566 132.887691 
z
" style="stroke:#000000;stroke-linejoin:miter;"/>
   </g>
   <g id="patch_4">
    <path clip-path="url(#pa84d92d404)" d="M 212.498158 132.290783 
L 212.358636 131.736826 
L 211.923466 131.214006 
L 211.199369 130.756158 
L 210.197871 130.39263 
L 208.935133 130.146376 
L 207.431703 130.032464 
L 205.712195 130.057114 
L 203.804888 130.217304 
L 201.741256 130.500998 
L 199.555446 130.88795 
L 197.283694 131.351067 
L 194.963714 131.858201 
L 192.634047 132.374286 
L 190.3334 132.863665 
L 188.099982 133.292449 
L 185.970848 133.630768 
L 183.981264 133.854754 
L 182.16411 133.948127 
L 180.549326 133.903294 
L 179.16341 133.721865 
L 178.02899 133.414568 
L 177.164458 133.000571 
L 176.583681 132.506239 
L 176.295799 131.963425 
L 176.305098 131.40739 
L 176.610971 130.874506 
L 177.207953 130.399871 
L 178.085845 130.015015 
L 179.229906 129.745823 
L 180.621113 129.610839 
L 182.236494 129.620028 
L 184.049509 129.774113 
L 186.03049 130.064502 
L 188.147121 130.473828 
L 190.364951 130.977055 
L 192.647948 131.543092 
L 194.959055 132.13679 
L 197.260779 132.721218 
L 199.515774 133.260041 
L 201.687423 133.719868 
L 203.740414 134.072408 
L 205.641298 134.296288 
L 207.35902 134.378422 
L 208.865418 134.314848 
L 210.135686 134.110955 
L 211.148779 133.78112 
L 211.887781 133.347741 
L 212.340191 132.839765 
z
" style="fill:#0000ff;stroke:#000000;stroke-linejoin:miter;"/>
   </g>
   <g id="patch_5">
    <path clip-path="url(#pa84d92d404)" d="M 266.850557 133.19978 
L 266.711036 132.645823 
L 266.275865 132.123004 
L 265.551769 131.665156 
L 264.550271 131.301628 
L 263.287532 131.055373 
L 261.784102 130.941462 
L 260.064594 130.966111 
L 258.157287 131.126302 
L 256.093656 131.409995 
L 253.907845 131.796948 
L 251.636094 132.260064 
L 249.316113 132.767198 
L 246.986446 133.283284 
L 244.685799 133.772663 
L 242.452381 134.201447 
L 240.323247 134.539766 
L 238.333663 134.763751 
L 236.51651 134.857124 
L 234.901725 134.812292 
L 233.515809 134.630862 
L 232.38139 134.323565 
L 231.516858 133.909568 
L 230.936081 133.415236 
L 230.648199 132.872422 
L 230.657498 132.316388 
L 230.96337 131.783503 
L 231.560352 131.308869 
L 232.438245 130.924012 
L 233.582305 130.654821 
L 234.973513 130.519836 
L 236.588894 130.529025 
L 238.401909 130.68311 
L 240.38289 130.973499 
L 242.49952 131.382825 
L 244.717351 131.886053 
L 247.000347 132.452089 
L 249.311454 133.045788 
L 251.613179 133.630215 
L 253.868174 134.169038 
L 256.039823 134.628866 
L 258.092814 134.981406 
L 259.993698 135.205285 
L 261.71142 135.287419 
L 263.217818 135.223845 
L 264.488085 135.019953 
L 265.501179 134.690117 
L 266.24018 134.256738 
L 266.69259 133.748762 
z
" style="fill:#0000ff;stroke:#000000;stroke-linejoin:miter;"/>
   </g>
   <g id="patch_6">
    <path clip-path="url(#pa84d92d404)" d="M 254.031981 141.140541 
L 188.809102 140.049744 
L 188.718202 145.484984 
L 253.941081 146.575781 
z
" style="fill:#999999;stroke:#000000;stroke-linejoin:miter;"/>
   </g>
   <g id="text_1">
    <!-- t = 2.0 -->
    <defs>
     <path d="M 18.3125 70.21875 
L 18.3125 54.6875 
L 36.8125 54.6875 
L 36.8125 47.703125 
L 18.3125 47.703125 
L 18.3125 18.015625 
Q 18.3125 11.328125 20.140625 9.421875 
Q 21.96875 7.515625 27.59375 7.515625 
L 36.8125 7.515625 
L 36.8125 0 
L 27.59375 0 
Q 17.1875 0 13.234375 3.875 
Q 9.28125 7.765625 9.28125 18.015625 
L 9.28125 47.703125 
L 2.6875 47.703125 
L 2.6875 54.6875 
L 9.28125 54.6875 
L 9.28125 70.21875 
z
" id="DejaVuSans-116"/>
     <path id="DejaVuSans-32"/>
     <path d="M 10.59375 45.40625 
L 73.1875 45.40625 
L 73.1875 37.203125 
L 10.59375 37.203125 
z
M 10.59375 25.484375 
L 73.1875 25.484375 
L 73.1875 17.1875 
L 10.59375 17.1875 
z
" id="DejaVuSans-61"/>
     <path d="M 19.1875 8.296875 
L 53.609375 8.296875 
L 53.609375 0 
L 7.328125 0 
L 7.328125 8.296875 
Q 12.9375 14.109375 22.625 23.890625 
Q 32.328125 33.6875 34.8125 36.53125 
Q 39.546875 41.84375 41.421875 45.53125 
Q 43.3125 49.21875 43.3125 52.78125 
Q 43.3125 58.59375 39.234375 62.25 
Q 35.15625 65.921875 28.609375 65.921875 
Q 23.96875 65.921875 18.8125 64.3125 
Q 13.671875 62.703125 7.8125 59.421875 
L 7.8125 69.390625 
Q 13.765625 71.78125 18.9375 73 
Q 24.125 74.21875 28.421875 74.21875 
Q 39.75 74.21875 46.484375 68.546875 
Q 53.21875 62.890625 53.21875 53.421875 
Q 53.21875 48.921875 51.53125 44.890625 
Q 49.859375 40.875 45.40625 35.40625 
Q 44.1875 33.984375 37.640625 27.21875 
Q 31.109375 20.453125 19.1875 8.296875 
z
" id="DejaVuSans-50"/>
     <path d="M 10.6875 12.40625 
L 21 12.40625 
L 21 0 
L 10.6875 0 
z
" id="DejaVuSans-46"/>
     <path d="M 31.78125 66.40625 
Q 24.171875 66.40625 20.328125 58.90625 
Q 16.5 51.421875 16.5 36.375 
Q 16.5 21.390625 20.328125 13.890625 
Q 24.171875 6.390625 31.78125 6.390625 
Q 39.453125 6.390625 43.28125 13.890625 
Q 47.125 21.390625 47.125 36.375 
Q 47.125 51.421875 43.28125 58.90625 
Q 39.453125 66.40625 31.78125 66.40625 
z
M 31.78125 74.21875 
Q 44.046875 74.21875 50.515625 64.515625 
Q 56.984375 54.828125 56.984375 36.375 
Q 56.984375 17.96875 50.515625 8.265625 
Q 44.046875 -1.421875 31.78125 -1.421875 
Q 19.53125 -1.421875 13.0625 8.265625 
Q 6.59375 17.96875 6.59375 36.375 
Q 6.59375 54.828125 13.0625 64.515625 
Q 19.53125 74.21875 31.78125 74.21875 
z
" id="DejaVuSans-48"/>
    </defs>
    <g transform="translate(200.664375 28.56)scale(0.12 -0.12)">
     <use xlink:href="#DejaVuSans-116"/>
     <use x="39.208984" xlink:href="#DejaVuSans-32"/>
     <use x="70.996094" xlink:href="#DejaVuSans-61"/>
     <use x="154.785156" xlink:href="#DejaVuSans-32"/>
     <use x="186.572266" xlink:href="#DejaVuSans-50"/>
     <use x="250.195312" xlink:href="#DejaVuSans-46"/>
     <use x="281.982422" xlink:href="#DejaVuSans-48"/>
    </g>
   </g>
  </g>
 </g>
 <defs>
  <clipPath id="pa84d92d404">
   <rect height="217.44" width="334.8" x="54" y="34.56"/>
  </clipPath>
 </defs>
</svg>
