<?xml version="1.0" encoding="utf-8" standalone="no"?>
<!DOCTYPE svg PUBLIC "-//W3C//DTD SVG 1.1//EN"
  "http://www.w3.org/Graphics/SVG/1.1/DTD/svg11.dtd">
<!-- Created with matplotlib (https://matplotlib.org/) -->
<svg height="288pt" version="1.1" viewBox="0 0 432 288" width="432pt" xmlns="http://www.w3.org/2000/svg" xmlns:xlink="http://www.w3.org/1999/xlink">
 <defs>
  <style type="text/css">
*{stroke-linecap:butt;stroke-linejoin:round;}
  </style>
 </defs>
 <g id="figure_1">
  <g id="patch_1">
   <path d="M 0 288 
L 432 288 
L 432 0 
L 0 0 
z
" style="fill:#ffffff;"/>
  </g>
  <g id="axes_1">
   <g id="patch_2">
    <path clip-path="url(#pd8a330fcb4)" d="M 196.024618 132.603683 
L 195.981211 143.475596 
L 194.89402 143.471255 
L 194.937426 132.599342 
z
" style="stroke:#000000;stroke-linejoin:miter;"/>
   </g>
   <g id="patch_3">
    <path clip-path="url(#pd8a330fcb4)" d="M 250.384184 132.820714 
L 250.340778 143.692627 
L 249.253587 143.688287 
L 249.296993 132.816374 
z
" style="stroke:#000000;stroke-linejoin:miter;"/>
   </g>
   <g id="patch_4">
    <path clip-path="url(#pd8a330fcb4)" d="M 213.600877 132.673856 
L 213.454316 132.12172 
L 213.012525 131.604482 
L 212.282659 131.155889 
L 211.276615 130.805139 
L 210.010843 130.574979 
L 208.506085 130.480215 
L 206.787031 130.526752 
L 204.881917 130.711209 
L 202.822064 131.021148 
L 200.641357 131.435894 
L 198.375684 131.927892 
L 196.062348 132.464518 
L 193.739439 133.010218 
L 191.445208 133.528843 
L 189.21743 133.986024 
L 187.092775 134.351419 
L 185.106204 134.600713 
L 183.290386 134.71721 
L 181.675161 134.692937 
L 180.287048 134.529165 
L 179.148809 134.236333 
L 178.279076 133.833375 
L 177.692054 133.346476 
L 177.397285 132.807371 
L 177.399506 132.251263 
L 177.698569 131.714528 
L 178.289461 131.232333 
L 179.162383 130.836332 
L 180.302925 130.552599 
L 181.692301 130.399915 
L 183.307668 130.38854 
L 185.122498 130.519534 
L 187.107015 130.784682 
L 189.228684 131.167031 
L 191.452741 131.641985 
L 193.742758 132.178914 
L 196.061236 132.743144 
L 198.370213 133.298224 
L 200.631885 133.808298 
L 202.809211 134.240443 
L 204.866524 134.566821 
L 206.770103 134.766484 
L 208.488732 134.826746 
L 209.994199 134.744 
L 211.261767 134.523954 
L 212.27058 134.181249 
L 213.004005 133.738498 
L 213.449912 133.224804 
z
" style="fill:#0000ff;stroke:#000000;stroke-linejoin:miter;"/>
   </g>
   <g id="patch_5">
    <path clip-path="url(#pd8a330fcb4)" d="M 267.960444 132.890888 
L 267.813882 132.338752 
L 267.372092 131.821514 
L 266.642226 131.37292 
L 265.636181 131.022171 
L 264.37041 130.79201 
L 262.865652 130.697246 
L 261.146597 130.743783 
L 259.241484 130.92824 
L 257.181631 131.23818 
L 255.000923 131.652926 
L 252.735251 132.144924 
L 250.421915 132.681549 
L 248.099006 133.227249 
L 245.804775 133.745875 
L 243.576996 134.203055 
L 241.452341 134.56845 
L 239.46577 134.817744 
L 237.649952 134.934242 
L 236.034728 134.909969 
L 234.646615 134.746196 
L 233.508376 134.453365 
L 232.638643 134.050407 
L 232.051621 133.563508 
L 231.756852 133.024402 
L 231.759072 132.468295 
L 232.058136 131.93156 
L 232.649028 131.449364 
L 233.52195 131.053363 
L 234.662491 130.76963 
L 236.051868 130.616947 
L 237.667235 130.605572 
L 239.482064 130.736565 
L 241.466582 131.001714 
L 243.588251 131.384062 
L 245.812308 131.859017 
L 248.102325 132.395945 
L 250.420802 132.960176 
L 252.72978 133.515256 
L 254.991451 134.025329 
L 257.168778 134.457475 
L 259.22609 134.783853 
L 261.12967 134.983516 
L 262.848298 135.043777 
L 264.353765 134.961032 
L 265.621334 134.740986 
L 266.630147 134.398281 
L 267.363572 133.955529 
L 267.809478 133.441836 
z
" style="fill:#0000ff;stroke:#000000;stroke-linejoin:miter;"/>
   </g>
   <g id="patch_6">
    <path clip-path="url(#pd8a330fcb4)" d="M 255.243991 140.994182 
L 190.01251 140.733744 
L 189.990807 146.169701 
L 255.222287 146.430139 
z
" style="fill:#999999;stroke:#000000;stroke-linejoin:miter;"/>
   </g>
   <g id="text_1">
    <!-- t = 1.9 -->
    <defs>
     <path d="M 18.3125 70.21875 
L 18.3125 54.6875 
L 36.8125 54.6875 
L 36.8125 47.703125 
L 18.3125 47.703125 
L 18.3125 18.015625 
Q 18.3125 11.328125 20.140625 9.421875 
Q 21.96875 7.515625 27.59375 7.515625 
L 36.8125 7.515625 
L 36.8125 0 
L 27.59375 0 
Q 17.1875 0 13.234375 3.875 
Q 9.28125 7.765625 9.28125 18.015625 
L 9.28125 47.703125 
L 2.6875 47.703125 
L 2.6875 54.6875 
L 9.28125 54.6875 
L 9.28125 70.21875 
z
" id="DejaVuSans-116"/>
     <path id="DejaVuSans-32"/>
     <path d="M 10.59375 45.40625 
L 73.1875 45.40625 
L 73.1875 37.203125 
L 10.59375 37.203125 
z
M 10.59375 25.484375 
L 73.1875 25.484375 
L 73.1875 17.1875 
L 10.59375 17.1875 
z
" id="DejaVuSans-61"/>
     <path d="M 12.40625 8.296875 
L 28.515625 8.296875 
L 28.515625 63.921875 
L 10.984375 60.40625 
L 10.984375 69.390625 
L 28.421875 72.90625 
L 38.28125 72.90625 
L 38.28125 8.296875 
L 54.390625 8.296875 
L 54.390625 0 
L 12.40625 0 
z
" id="DejaVuSans-49"/>
     <path d="M 10.6875 12.40625 
L 21 12.40625 
L 21 0 
L 10.6875 0 
z
" id="DejaVuSans-46"/>
     <path d="M 10.984375 1.515625 
L 10.984375 10.5 
Q 14.703125 8.734375 18.5 7.8125 
Q 22.3125 6.890625 25.984375 6.890625 
Q 35.75 6.890625 40.890625 13.453125 
Q 46.046875 20.015625 46.78125 33.40625 
Q 43.953125 29.203125 39.59375 26.953125 
Q 35.25 24.703125 29.984375 24.703125 
Q 19.046875 24.703125 12.671875 31.3125 
Q 6.296875 37.9375 6.296875 49.421875 
Q 6.296875 60.640625 12.9375 67.421875 
Q 19.578125 74.21875 30.609375 74.21875 
Q 43.265625 74.21875 49.921875 64.515625 
Q 56.59375 54.828125 56.59375 36.375 
Q 56.59375 19.140625 48.40625 8.859375 
Q 40.234375 -1.421875 26.421875 -1.421875 
Q 22.703125 -1.421875 18.890625 -0.6875 
Q 15.09375 0.046875 10.984375 1.515625 
z
M 30.609375 32.421875 
Q 37.25 32.421875 41.125 36.953125 
Q 45.015625 41.5 45.015625 49.421875 
Q 45.015625 57.28125 41.125 61.84375 
Q 37.25 66.40625 30.609375 66.40625 
Q 23.96875 66.40625 20.09375 61.84375 
Q 16.21875 57.28125 16.21875 49.421875 
Q 16.21875 41.5 20.09375 36.953125 
Q 23.96875 32.421875 30.609375 32.421875 
z
" id="DejaVuSans-57"/>
    </defs>
    <g transform="translate(200.664375 28.56)scale(0.12 -0.12)">
     <use xlink:href="#DejaVuSans-116"/>
     <use x="39.208984" xlink:href="#DejaVuSans-32"/>
     <use x="70.996094" xlink:href="#DejaVuSans-61"/>
     <use x="154.785156" xlink:href="#DejaVuSans-32"/>
     <use x="186.572266" xlink:href="#DejaVuSans-49"/>
     <use x="250.195312" xlink:href="#DejaVuSans-46"/>
     <use x="281.982422" xlink:href="#DejaVuSans-57"/>
    </g>
   </g>
  </g>
 </g>
 <defs>
  <clipPath id="pd8a330fcb4">
   <rect height="217.44" width="334.8" x="54" y="34.56"/>
  </clipPath>
 </defs>
</svg>
