<?xml version="1.0" encoding="utf-8" standalone="no"?>
<!DOCTYPE svg PUBLIC "-//W3C//DTD SVG 1.1//EN"
  "http://www.w3.org/Graphics/SVG/1.1/DTD/svg11.dtd">
<!-- Created with matplotlib (https://matplotlib.org/) -->
<svg height="288pt" version="1.1" viewBox="0 0 432 288" width="432pt" xmlns="http://www.w3.org/2000/svg" xmlns:xlink="http://www.w3.org/1999/xlink">
 <defs>
  <style type="text/css">
*{stroke-linecap:butt;stroke-linejoin:round;}
  </style>
 </defs>
 <g id="figure_1">
  <g id="patch_1">
   <path d="M 0 288 
L 432 288 
L 432 0 
L 0 0 
z
" style="fill:#ffffff;"/>
  </g>
  <g id="axes_1">
   <g id="patch_2">
    <path clip-path="url(#pe58e9b60f5)" d="M 226.792109 95.118221 
L 224.02184 105.631355 
L 222.970526 105.354328 
L 225.740795 94.841194 
z
" style="stroke:#000000;stroke-linejoin:miter;"/>
   </g>
   <g id="patch_3">
    <path clip-path="url(#pe58e9b60f5)" d="M 279.35778 108.969567 
L 276.587511 119.482701 
L 275.536197 119.205674 
L 278.306467 108.69254 
z
" style="stroke:#000000;stroke-linejoin:miter;"/>
   </g>
   <g id="patch_4">
    <path clip-path="url(#pe58e9b60f5)" d="M 243.788342 99.596823 
L 243.785026 99.025575 
L 243.487171 98.414023 
L 242.893232 97.796628 
L 242.007398 97.20464 
L 240.839887 96.664206 
L 239.40706 96.194863 
L 237.731335 95.808522 
L 235.840894 95.508998 
L 233.769175 95.29211 
L 231.554169 95.146348 
L 229.237531 95.054043 
L 226.863555 94.992977 
L 224.478035 94.938293 
L 222.12707 94.864598 
L 219.85585 94.748099 
L 217.707487 94.568631 
L 215.721925 94.311428 
L 213.934976 93.968527 
L 212.377527 93.539698 
L 211.07493 93.032826 
L 210.046597 92.46373 
L 209.305816 91.855411 
L 208.859762 91.236782 
L 208.709711 90.640956 
L 208.851413 90.1032 
L 209.275598 89.658689 
L 209.968587 89.340204 
L 210.912951 89.17593 
L 212.088198 89.187489 
L 213.471431 89.388349 
L 215.037963 89.782706 
L 216.761849 90.36493 
L 218.616326 91.119598 
L 220.574157 92.022135 
L 222.60786 93.040007 
L 224.689859 94.134423 
L 226.792558 95.262409 
L 228.888357 96.379153 
L 230.949658 97.44046 
L 232.948868 98.405167 
L 234.858446 99.237373 
L 236.651009 99.908341 
L 238.299521 100.397956 
L 239.77758 100.695647 
L 241.059808 100.800732 
L 242.12234 100.72215 
L 242.943403 100.477615 
L 243.50395 100.092257 
z
" style="fill:#0000ff;stroke:#000000;stroke-linejoin:miter;"/>
   </g>
   <g id="patch_5">
    <path clip-path="url(#pe58e9b60f5)" d="M 296.354014 113.448169 
L 296.350698 112.876922 
L 296.052842 112.26537 
L 295.458903 111.647974 
L 294.573069 111.055986 
L 293.405559 110.515552 
L 291.972731 110.046209 
L 290.297006 109.659868 
L 288.406565 109.360344 
L 286.334847 109.143457 
L 284.11984 108.997694 
L 281.803202 108.90539 
L 279.429226 108.844324 
L 277.043706 108.789639 
L 274.692741 108.715944 
L 272.421521 108.599446 
L 270.273159 108.419977 
L 268.287596 108.162774 
L 266.500647 107.819874 
L 264.943199 107.391045 
L 263.640602 106.884173 
L 262.612269 106.315076 
L 261.871487 105.706757 
L 261.425433 105.088128 
L 261.275383 104.492302 
L 261.417084 103.954547 
L 261.84127 103.510035 
L 262.534258 103.19155 
L 263.478622 103.027276 
L 264.653869 103.038835 
L 266.037103 103.239695 
L 267.603634 103.634052 
L 269.32752 104.216276 
L 271.181998 104.970945 
L 273.139828 105.873481 
L 275.173531 106.891353 
L 277.255531 107.985769 
L 279.358229 109.113755 
L 281.454028 110.2305 
L 283.515329 111.291807 
L 285.514539 112.256513 
L 287.424117 113.088719 
L 289.216681 113.759687 
L 290.865193 114.249302 
L 292.343251 114.546993 
L 293.625479 114.652079 
L 294.688012 114.573496 
L 295.509074 114.328961 
L 296.069621 113.943603 
z
" style="fill:#0000ff;stroke:#000000;stroke-linejoin:miter;"/>
   </g>
   <g id="patch_6">
    <path clip-path="url(#pe58e9b60f5)" d="M 282.010989 118.101039 
L 218.932183 101.479423 
L 217.547048 106.735991 
L 280.625854 123.357606 
z
" style="fill:#999999;stroke:#000000;stroke-linejoin:miter;"/>
   </g>
   <g id="text_1">
    <!-- t = 0.3 -->
    <defs>
     <path d="M 18.3125 70.21875 
L 18.3125 54.6875 
L 36.8125 54.6875 
L 36.8125 47.703125 
L 18.3125 47.703125 
L 18.3125 18.015625 
Q 18.3125 11.328125 20.140625 9.421875 
Q 21.96875 7.515625 27.59375 7.515625 
L 36.8125 7.515625 
L 36.8125 0 
L 27.59375 0 
Q 17.1875 0 13.234375 3.875 
Q 9.28125 7.765625 9.28125 18.015625 
L 9.28125 47.703125 
L 2.6875 47.703125 
L 2.6875 54.6875 
L 9.28125 54.6875 
L 9.28125 70.21875 
z
" id="DejaVuSans-116"/>
     <path id="DejaVuSans-32"/>
     <path d="M 10.59375 45.40625 
L 73.1875 45.40625 
L 73.1875 37.203125 
L 10.59375 37.203125 
z
M 10.59375 25.484375 
L 73.1875 25.484375 
L 73.1875 17.1875 
L 10.59375 17.1875 
z
" id="DejaVuSans-61"/>
     <path d="M 31.78125 66.40625 
Q 24.171875 66.40625 20.328125 58.90625 
Q 16.5 51.421875 16.5 36.375 
Q 16.5 21.390625 20.328125 13.890625 
Q 24.171875 6.390625 31.78125 6.390625 
Q 39.453125 6.390625 43.28125 13.890625 
Q 47.125 21.390625 47.125 36.375 
Q 47.125 51.421875 43.28125 58.90625 
Q 39.453125 66.40625 31.78125 66.40625 
z
M 31.78125 74.21875 
Q 44.046875 74.21875 50.515625 64.515625 
Q 56.984375 54.828125 56.984375 36.375 
Q 56.984375 17.96875 50.515625 8.265625 
Q 44.046875 -1.421875 31.78125 -1.421875 
Q 19.53125 -1.421875 13.0625 8.265625 
Q 6.59375 17.96875 6.59375 36.375 
Q 6.59375 54.828125 13.0625 64.515625 
Q 19.53125 74.21875 31.78125 74.21875 
z
" id="DejaVuSans-48"/>
     <path d="M 10.6875 12.40625 
L 21 12.40625 
L 21 0 
L 10.6875 0 
z
" id="DejaVuSans-46"/>
     <path d="M 40.578125 39.3125 
Q 47.65625 37.796875 51.625 33 
Q 55.609375 28.21875 55.609375 21.1875 
Q 55.609375 10.40625 48.1875 4.484375 
Q 40.765625 -1.421875 27.09375 -1.421875 
Q 22.515625 -1.421875 17.65625 -0.515625 
Q 12.796875 0.390625 7.625 2.203125 
L 7.625 11.71875 
Q 11.71875 9.328125 16.59375 8.109375 
Q 21.484375 6.890625 26.8125 6.890625 
Q 36.078125 6.890625 40.9375 10.546875 
Q 45.796875 14.203125 45.796875 21.1875 
Q 45.796875 27.640625 41.28125 31.265625 
Q 36.765625 34.90625 28.71875 34.90625 
L 20.21875 34.90625 
L 20.21875 43.015625 
L 29.109375 43.015625 
Q 36.375 43.015625 40.234375 45.921875 
Q 44.09375 48.828125 44.09375 54.296875 
Q 44.09375 59.90625 40.109375 62.90625 
Q 36.140625 65.921875 28.71875 65.921875 
Q 24.65625 65.921875 20.015625 65.03125 
Q 15.375 64.15625 9.8125 62.3125 
L 9.8125 71.09375 
Q 15.4375 72.65625 20.34375 73.4375 
Q 25.25 74.21875 29.59375 74.21875 
Q 40.828125 74.21875 47.359375 69.109375 
Q 53.90625 64.015625 53.90625 55.328125 
Q 53.90625 49.265625 50.4375 45.09375 
Q 46.96875 40.921875 40.578125 39.3125 
z
" id="DejaVuSans-51"/>
    </defs>
    <g transform="translate(200.664375 28.56)scale(0.12 -0.12)">
     <use xlink:href="#DejaVuSans-116"/>
     <use x="39.208984" xlink:href="#DejaVuSans-32"/>
     <use x="70.996094" xlink:href="#DejaVuSans-61"/>
     <use x="154.785156" xlink:href="#DejaVuSans-32"/>
     <use x="186.572266" xlink:href="#DejaVuSans-48"/>
     <use x="250.195312" xlink:href="#DejaVuSans-46"/>
     <use x="281.982422" xlink:href="#DejaVuSans-51"/>
    </g>
   </g>
  </g>
 </g>
 <defs>
  <clipPath id="pe58e9b60f5">
   <rect height="217.44" width="334.8" x="54" y="34.56"/>
  </clipPath>
 </defs>
</svg>
