<?xml version="1.0" encoding="utf-8" standalone="no"?>
<!DOCTYPE svg PUBLIC "-//W3C//DTD SVG 1.1//EN"
  "http://www.w3.org/Graphics/SVG/1.1/DTD/svg11.dtd">
<!-- Created with matplotlib (https://matplotlib.org/) -->
<svg height="288pt" version="1.1" viewBox="0 0 432 288" width="432pt" xmlns="http://www.w3.org/2000/svg" xmlns:xlink="http://www.w3.org/1999/xlink">
 <defs>
  <style type="text/css">
*{stroke-linecap:butt;stroke-linejoin:round;}
  </style>
 </defs>
 <g id="figure_1">
  <g id="patch_1">
   <path d="M 0 288 
L 432 288 
L 432 0 
L 0 0 
z
" style="fill:#ffffff;"/>
  </g>
  <g id="axes_1">
   <g id="patch_2">
    <path clip-path="url(#pf2f949dfdf)" d="M 184.520583 144.278836 
L 186.505944 154.968024 
L 185.437026 155.16656 
L 183.451665 144.477372 
z
" style="stroke:#000000;stroke-linejoin:miter;"/>
   </g>
   <g id="patch_3">
    <path clip-path="url(#pf2f949dfdf)" d="M 237.96652 134.352031 
L 239.951881 145.041219 
L 238.882962 145.239755 
L 236.897601 134.550568 
z
" style="stroke:#000000;stroke-linejoin:miter;"/>
   </g>
   <g id="patch_4">
    <path clip-path="url(#pf2f949dfdf)" d="M 201.801436 141.069169 
L 201.554454 140.554063 
L 201.023934 140.128314 
L 200.223199 139.823741 
L 199.169385 139.666811 
L 197.882898 139.676803 
L 196.386874 139.864394 
L 194.706673 140.23078 
L 192.869406 140.767372 
L 190.903522 141.456109 
L 188.838455 142.270356 
L 186.704325 143.176349 
L 184.531692 144.135076 
L 182.351348 145.104504 
L 180.194127 146.041985 
L 178.090731 146.906702 
L 176.071528 147.662009 
L 174.166327 148.277494 
L 172.404111 148.730663 
L 170.812709 149.008114 
L 169.418411 149.106149 
L 168.245526 149.03078 
L 167.315893 148.797131 
L 166.648349 148.42828 
L 166.258192 147.953621 
L 166.156639 147.40686 
L 166.350333 146.82376 
L 166.840907 146.239805 
L 167.624639 145.687923 
L 168.692235 145.196418 
L 170.028744 144.787245 
L 171.613636 144.474746 
L 173.421047 144.264908 
L 175.420192 144.155219 
L 177.575944 144.135088 
L 179.849561 144.186839 
L 182.19954 144.287172 
L 184.582573 144.40902 
L 186.954567 144.523649 
L 189.271689 144.602886 
L 191.49141 144.621297 
L 193.573494 144.558182 
L 195.480906 144.399255 
L 197.18061 144.137872 
L 198.644218 143.775755 
L 199.848492 143.323124 
L 200.775672 142.798253 
L 201.413634 142.226463 
L 201.755892 141.638608 
z
" style="fill:#0000ff;stroke:#000000;stroke-linejoin:miter;"/>
   </g>
   <g id="patch_5">
    <path clip-path="url(#pf2f949dfdf)" d="M 255.247373 131.142365 
L 255.00039 130.627259 
L 254.46987 130.201509 
L 253.669136 129.896936 
L 252.615322 129.740006 
L 251.328834 129.749998 
L 249.832811 129.937589 
L 248.152609 130.303975 
L 246.315342 130.840567 
L 244.349459 131.529304 
L 242.284392 132.343551 
L 240.150262 133.249544 
L 237.977629 134.208271 
L 235.797284 135.1777 
L 233.640064 136.11518 
L 231.536668 136.979897 
L 229.517464 137.735204 
L 227.612264 138.350689 
L 225.850048 138.803858 
L 224.258646 139.081309 
L 222.864347 139.179344 
L 221.691463 139.103976 
L 220.761829 138.870326 
L 220.094286 138.501475 
L 219.704128 138.026816 
L 219.602576 137.480055 
L 219.79627 136.896955 
L 220.286843 136.313 
L 221.070576 135.761118 
L 222.138172 135.269613 
L 223.474681 134.86044 
L 225.059573 134.547941 
L 226.866984 134.338103 
L 228.866129 134.228414 
L 231.021881 134.208283 
L 233.295498 134.260034 
L 235.645477 134.360367 
L 238.02851 134.482215 
L 240.400503 134.596844 
L 242.717625 134.676081 
L 244.937346 134.694492 
L 247.01943 134.631377 
L 248.926843 134.47245 
L 250.626547 134.211067 
L 252.090155 133.84895 
L 253.294429 133.396319 
L 254.221608 132.871448 
L 254.859571 132.299658 
L 255.201829 131.711803 
z
" style="fill:#0000ff;stroke:#000000;stroke-linejoin:miter;"/>
   </g>
   <g id="patch_6">
    <path clip-path="url(#pf2f949dfdf)" d="M 244.265675 141.475509 
L 180.130551 153.387675 
L 181.123232 158.732269 
L 245.258356 146.820103 
z
" style="fill:#999999;stroke:#000000;stroke-linejoin:miter;"/>
   </g>
   <g id="text_1">
    <!-- t = 1.1 -->
    <defs>
     <path d="M 18.3125 70.21875 
L 18.3125 54.6875 
L 36.8125 54.6875 
L 36.8125 47.703125 
L 18.3125 47.703125 
L 18.3125 18.015625 
Q 18.3125 11.328125 20.140625 9.421875 
Q 21.96875 7.515625 27.59375 7.515625 
L 36.8125 7.515625 
L 36.8125 0 
L 27.59375 0 
Q 17.1875 0 13.234375 3.875 
Q 9.28125 7.765625 9.28125 18.015625 
L 9.28125 47.703125 
L 2.6875 47.703125 
L 2.6875 54.6875 
L 9.28125 54.6875 
L 9.28125 70.21875 
z
" id="DejaVuSans-116"/>
     <path id="DejaVuSans-32"/>
     <path d="M 10.59375 45.40625 
L 73.1875 45.40625 
L 73.1875 37.203125 
L 10.59375 37.203125 
z
M 10.59375 25.484375 
L 73.1875 25.484375 
L 73.1875 17.1875 
L 10.59375 17.1875 
z
" id="DejaVuSans-61"/>
     <path d="M 12.40625 8.296875 
L 28.515625 8.296875 
L 28.515625 63.921875 
L 10.984375 60.40625 
L 10.984375 69.390625 
L 28.421875 72.90625 
L 38.28125 72.90625 
L 38.28125 8.296875 
L 54.390625 8.296875 
L 54.390625 0 
L 12.40625 0 
z
" id="DejaVuSans-49"/>
     <path d="M 10.6875 12.40625 
L 21 12.40625 
L 21 0 
L 10.6875 0 
z
" id="DejaVuSans-46"/>
    </defs>
    <g transform="translate(200.664375 28.56)scale(0.12 -0.12)">
     <use xlink:href="#DejaVuSans-116"/>
     <use x="39.208984" xlink:href="#DejaVuSans-32"/>
     <use x="70.996094" xlink:href="#DejaVuSans-61"/>
     <use x="154.785156" xlink:href="#DejaVuSans-32"/>
     <use x="186.572266" xlink:href="#DejaVuSans-49"/>
     <use x="250.195312" xlink:href="#DejaVuSans-46"/>
     <use x="281.982422" xlink:href="#DejaVuSans-49"/>
    </g>
   </g>
  </g>
 </g>
 <defs>
  <clipPath id="pf2f949dfdf">
   <rect height="217.44" width="334.8" x="54" y="34.56"/>
  </clipPath>
 </defs>
</svg>
