<?xml version="1.0" encoding="utf-8" standalone="no"?>
<!DOCTYPE svg PUBLIC "-//W3C//DTD SVG 1.1//EN"
  "http://www.w3.org/Graphics/SVG/1.1/DTD/svg11.dtd">
<!-- Created with matplotlib (https://matplotlib.org/) -->
<svg height="288pt" version="1.1" viewBox="0 0 432 288" width="432pt" xmlns="http://www.w3.org/2000/svg" xmlns:xlink="http://www.w3.org/1999/xlink">
 <defs>
  <style type="text/css">
*{stroke-linecap:butt;stroke-linejoin:round;}
  </style>
 </defs>
 <g id="figure_1">
  <g id="patch_1">
   <path d="M 0 288 
L 432 288 
L 432 0 
L 0 0 
z
" style="fill:#ffffff;"/>
  </g>
  <g id="axes_1">
   <g id="patch_2">
    <path clip-path="url(#p7e87bcf608)" d="M 194.691851 132.409694 
L 194.694309 143.281694 
L 193.607109 143.28194 
L 193.604652 132.40994 
z
" style="stroke:#000000;stroke-linejoin:miter;"/>
   </g>
   <g id="patch_3">
    <path clip-path="url(#p7e87bcf608)" d="M 249.05185 132.397409 
L 249.054307 143.269409 
L 247.967107 143.269654 
L 247.96465 132.397655 
z
" style="stroke:#000000;stroke-linejoin:miter;"/>
   </g>
   <g id="patch_4">
    <path clip-path="url(#p7e87bcf608)" d="M 212.268251 132.405722 
L 212.119361 131.854209 
L 211.675393 131.33884 
L 210.943641 130.893329 
L 209.936126 130.546827 
L 208.669395 130.322008 
L 207.16425 130.233593 
L 205.445407 130.287381 
L 203.541089 130.479873 
L 201.482562 130.798499 
L 199.303623 131.222441 
L 197.040047 131.723992 
L 194.728995 132.270372 
L 192.408408 132.825866 
L 190.116385 133.354165 
L 187.890555 133.820739 
L 185.767461 134.195094 
L 183.781959 134.452766 
L 181.966649 134.576923 
L 180.351336 134.559464 
L 178.962545 134.401548 
L 177.82308 134.113521 
L 176.951656 133.714235 
L 176.362584 133.229818 
L 176.065544 132.69196 
L 176.065419 132.135848 
L 176.362216 131.597856 
L 176.951068 131.113172 
L 177.822312 130.713493 
L 178.961646 130.424951 
L 180.350366 130.266408 
L 181.965671 130.248218 
L 183.781037 130.371555 
L 185.766655 130.628329 
L 187.889918 131.001724 
L 190.115959 131.467292 
L 192.40822 131.994555 
L 194.729058 132.549 
L 197.040356 133.094335 
L 199.304159 133.594863 
L 201.483289 134.01782 
L 203.54196 134.335516 
L 205.446366 134.527147 
L 207.165233 134.580158 
L 208.670337 134.491063 
L 209.936966 134.265671 
L 210.944325 133.918713 
L 211.675875 133.472872 
L 212.119611 132.957302 
z
" style="fill:#0000ff;stroke:#000000;stroke-linejoin:miter;"/>
   </g>
   <g id="patch_5">
    <path clip-path="url(#p7e87bcf608)" d="M 266.62825 132.393437 
L 266.47936 131.841924 
L 266.035391 131.326554 
L 265.303639 130.881044 
L 264.296124 130.534541 
L 263.029393 130.309722 
L 261.524249 130.221307 
L 259.805406 130.275095 
L 257.901088 130.467587 
L 255.84256 130.786214 
L 253.663622 131.210155 
L 251.400045 131.711707 
L 249.088993 132.258086 
L 246.768407 132.81358 
L 244.476384 133.34188 
L 242.250554 133.808454 
L 240.12746 134.182808 
L 238.141958 134.44048 
L 236.326647 134.564637 
L 234.711335 134.547178 
L 233.322543 134.389263 
L 232.183079 134.101236 
L 231.311654 133.70195 
L 230.722583 133.217532 
L 230.425543 132.679675 
L 230.425417 132.123562 
L 230.722214 131.585571 
L 231.311066 131.100887 
L 232.18231 130.701207 
L 233.321645 130.412665 
L 234.710365 130.254122 
L 236.325669 130.235933 
L 238.141035 130.359269 
L 240.126653 130.616043 
L 242.249917 130.989438 
L 244.475958 131.455006 
L 246.768219 131.98227 
L 249.089056 132.536715 
L 251.400355 133.082049 
L 253.664158 133.582578 
L 255.843288 134.005535 
L 257.901959 134.32323 
L 259.806364 134.514862 
L 261.525231 134.567873 
L 263.030336 134.478777 
L 264.296965 134.253386 
L 265.304323 133.906428 
L 266.035874 133.460587 
L 266.479609 132.945017 
z
" style="fill:#0000ff;stroke:#000000;stroke-linejoin:miter;"/>
   </g>
   <g id="patch_6">
    <path clip-path="url(#p7e87bcf608)" d="M 253.946093 140.550303 
L 188.714094 140.565046 
L 188.715323 146.001046 
L 253.947321 145.986303 
z
" style="fill:#999999;stroke:#000000;stroke-linejoin:miter;"/>
   </g>
   <g id="text_1">
    <!-- t = 2.7 -->
    <defs>
     <path d="M 18.3125 70.21875 
L 18.3125 54.6875 
L 36.8125 54.6875 
L 36.8125 47.703125 
L 18.3125 47.703125 
L 18.3125 18.015625 
Q 18.3125 11.328125 20.140625 9.421875 
Q 21.96875 7.515625 27.59375 7.515625 
L 36.8125 7.515625 
L 36.8125 0 
L 27.59375 0 
Q 17.1875 0 13.234375 3.875 
Q 9.28125 7.765625 9.28125 18.015625 
L 9.28125 47.703125 
L 2.6875 47.703125 
L 2.6875 54.6875 
L 9.28125 54.6875 
L 9.28125 70.21875 
z
" id="DejaVuSans-116"/>
     <path id="DejaVuSans-32"/>
     <path d="M 10.59375 45.40625 
L 73.1875 45.40625 
L 73.1875 37.203125 
L 10.59375 37.203125 
z
M 10.59375 25.484375 
L 73.1875 25.484375 
L 73.1875 17.1875 
L 10.59375 17.1875 
z
" id="DejaVuSans-61"/>
     <path d="M 19.1875 8.296875 
L 53.609375 8.296875 
L 53.609375 0 
L 7.328125 0 
L 7.328125 8.296875 
Q 12.9375 14.109375 22.625 23.890625 
Q 32.328125 33.6875 34.8125 36.53125 
Q 39.546875 41.84375 41.421875 45.53125 
Q 43.3125 49.21875 43.3125 52.78125 
Q 43.3125 58.59375 39.234375 62.25 
Q 35.15625 65.921875 28.609375 65.921875 
Q 23.96875 65.921875 18.8125 64.3125 
Q 13.671875 62.703125 7.8125 59.421875 
L 7.8125 69.390625 
Q 13.765625 71.78125 18.9375 73 
Q 24.125 74.21875 28.421875 74.21875 
Q 39.75 74.21875 46.484375 68.546875 
Q 53.21875 62.890625 53.21875 53.421875 
Q 53.21875 48.921875 51.53125 44.890625 
Q 49.859375 40.875 45.40625 35.40625 
Q 44.1875 33.984375 37.640625 27.21875 
Q 31.109375 20.453125 19.1875 8.296875 
z
" id="DejaVuSans-50"/>
     <path d="M 10.6875 12.40625 
L 21 12.40625 
L 21 0 
L 10.6875 0 
z
" id="DejaVuSans-46"/>
     <path d="M 8.203125 72.90625 
L 55.078125 72.90625 
L 55.078125 68.703125 
L 28.609375 0 
L 18.3125 0 
L 43.21875 64.59375 
L 8.203125 64.59375 
z
" id="DejaVuSans-55"/>
    </defs>
    <g transform="translate(200.664375 28.56)scale(0.12 -0.12)">
     <use xlink:href="#DejaVuSans-116"/>
     <use x="39.208984" xlink:href="#DejaVuSans-32"/>
     <use x="70.996094" xlink:href="#DejaVuSans-61"/>
     <use x="154.785156" xlink:href="#DejaVuSans-32"/>
     <use x="186.572266" xlink:href="#DejaVuSans-50"/>
     <use x="250.195312" xlink:href="#DejaVuSans-46"/>
     <use x="281.982422" xlink:href="#DejaVuSans-55"/>
    </g>
   </g>
  </g>
 </g>
 <defs>
  <clipPath id="p7e87bcf608">
   <rect height="217.44" width="334.8" x="54" y="34.56"/>
  </clipPath>
 </defs>
</svg>
