<?xml version="1.0" encoding="utf-8" standalone="no"?>
<!DOCTYPE svg PUBLIC "-//W3C//DTD SVG 1.1//EN"
  "http://www.w3.org/Graphics/SVG/1.1/DTD/svg11.dtd">
<!-- Created with matplotlib (https://matplotlib.org/) -->
<svg height="288pt" version="1.1" viewBox="0 0 432 288" width="432pt" xmlns="http://www.w3.org/2000/svg" xmlns:xlink="http://www.w3.org/1999/xlink">
 <defs>
  <style type="text/css">
*{stroke-linecap:butt;stroke-linejoin:round;}
  </style>
 </defs>
 <g id="figure_1">
  <g id="patch_1">
   <path d="M 0 288 
L 432 288 
L 432 0 
L 0 0 
z
" style="fill:#ffffff;"/>
  </g>
  <g id="axes_1">
   <g id="patch_2">
    <path clip-path="url(#p4fcf958742)" d="M 194.753721 132.406824 
L 194.75286 143.278824 
L 193.66566 143.278738 
L 193.666521 132.406738 
z
" style="stroke:#000000;stroke-linejoin:miter;"/>
   </g>
   <g id="patch_3">
    <path clip-path="url(#p4fcf958742)" d="M 249.11372 132.411126 
L 249.11286 143.283126 
L 248.02566 143.28304 
L 248.02652 132.41104 
z
" style="stroke:#000000;stroke-linejoin:miter;"/>
   </g>
   <g id="patch_4">
    <path clip-path="url(#p4fcf958742)" d="M 212.33012 132.408215 
L 212.181399 131.856657 
L 211.737588 131.341152 
L 211.005972 130.895418 
L 209.998563 130.548608 
L 208.7319 130.323403 
L 207.226783 130.234529 
L 205.507923 130.287792 
L 203.603546 130.479703 
L 201.544922 130.797701 
L 199.365854 131.220978 
L 197.102125 131.721839 
L 194.790906 132.267513 
L 192.47015 132.822299 
L 190.177967 133.349899 
L 187.951994 133.815794 
L 185.828786 134.1895 
L 183.843205 134.446566 
L 182.027857 134.570169 
L 180.41255 134.552217 
L 179.023807 134.393878 
L 177.88443 134.105504 
L 177.013128 133.705952 
L 176.424204 133.221354 
L 176.127328 132.683406 
L 176.127372 132.127294 
L 176.424333 131.589393 
L 177.013333 131.104889 
L 177.884699 130.705475 
L 179.024121 130.417281 
L 180.41289 130.259161 
L 182.0282 130.241465 
L 183.843528 130.365355 
L 185.829068 130.622735 
L 187.952217 130.996778 
L 190.178116 131.463025 
L 192.470216 131.990988 
L 194.790884 132.546141 
L 197.102016 133.092181 
L 199.365667 133.5934 
L 201.544667 134.017022 
L 203.603241 134.335346 
L 205.507588 134.527559 
L 207.226439 134.581094 
L 208.73157 134.492458 
L 209.998268 134.267453 
L 211.005732 133.920803 
L 211.737419 133.475185 
L 212.181312 132.95975 
z
" style="fill:#0000ff;stroke:#000000;stroke-linejoin:miter;"/>
   </g>
   <g id="patch_5">
    <path clip-path="url(#p4fcf958742)" d="M 266.69012 132.412517 
L 266.541399 131.860959 
L 266.097588 131.345454 
L 265.365972 130.89972 
L 264.358562 130.55291 
L 263.0919 130.327705 
L 261.586783 130.238831 
L 259.867923 130.292094 
L 257.963546 130.484005 
L 255.904922 130.802003 
L 253.725854 131.22528 
L 251.462125 131.726141 
L 249.150906 132.271815 
L 246.83015 132.826601 
L 244.537966 133.354201 
L 242.311994 133.820096 
L 240.188785 134.193803 
L 238.203205 134.450869 
L 236.387857 134.574472 
L 234.77255 134.556519 
L 233.383807 134.39818 
L 232.24443 134.109806 
L 231.373127 133.710254 
L 230.784204 133.225656 
L 230.487328 132.687708 
L 230.487372 132.131596 
L 230.784333 131.593695 
L 231.373333 131.109191 
L 232.244699 130.709777 
L 233.384121 130.421583 
L 234.77289 130.263463 
L 236.3882 130.245767 
L 238.203528 130.369657 
L 240.189068 130.627038 
L 242.312217 131.00108 
L 244.538116 131.467327 
L 246.830216 131.99529 
L 249.150884 132.550444 
L 251.462016 133.096484 
L 253.725666 133.597702 
L 255.904667 134.021324 
L 257.963241 134.339648 
L 259.867588 134.531861 
L 261.586439 134.585396 
L 263.09157 134.49676 
L 264.358268 134.271755 
L 265.365732 133.925105 
L 266.097419 133.479487 
L 266.541312 132.964052 
z
" style="fill:#0000ff;stroke:#000000;stroke-linejoin:miter;"/>
   </g>
   <g id="patch_6">
    <path clip-path="url(#p4fcf958742)" d="M 254.005475 140.565514 
L 188.773475 140.560351 
L 188.773045 145.996351 
L 254.005045 146.001514 
z
" style="fill:#999999;stroke:#000000;stroke-linejoin:miter;"/>
   </g>
   <g id="text_1">
    <!-- t = 3.7 -->
    <defs>
     <path d="M 18.3125 70.21875 
L 18.3125 54.6875 
L 36.8125 54.6875 
L 36.8125 47.703125 
L 18.3125 47.703125 
L 18.3125 18.015625 
Q 18.3125 11.328125 20.140625 9.421875 
Q 21.96875 7.515625 27.59375 7.515625 
L 36.8125 7.515625 
L 36.8125 0 
L 27.59375 0 
Q 17.1875 0 13.234375 3.875 
Q 9.28125 7.765625 9.28125 18.015625 
L 9.28125 47.703125 
L 2.6875 47.703125 
L 2.6875 54.6875 
L 9.28125 54.6875 
L 9.28125 70.21875 
z
" id="DejaVuSans-116"/>
     <path id="DejaVuSans-32"/>
     <path d="M 10.59375 45.40625 
L 73.1875 45.40625 
L 73.1875 37.203125 
L 10.59375 37.203125 
z
M 10.59375 25.484375 
L 73.1875 25.484375 
L 73.1875 17.1875 
L 10.59375 17.1875 
z
" id="DejaVuSans-61"/>
     <path d="M 40.578125 39.3125 
Q 47.65625 37.796875 51.625 33 
Q 55.609375 28.21875 55.609375 21.1875 
Q 55.609375 10.40625 48.1875 4.484375 
Q 40.765625 -1.421875 27.09375 -1.421875 
Q 22.515625 -1.421875 17.65625 -0.515625 
Q 12.796875 0.390625 7.625 2.203125 
L 7.625 11.71875 
Q 11.71875 9.328125 16.59375 8.109375 
Q 21.484375 6.890625 26.8125 6.890625 
Q 36.078125 6.890625 40.9375 10.546875 
Q 45.796875 14.203125 45.796875 21.1875 
Q 45.796875 27.640625 41.28125 31.265625 
Q 36.765625 34.90625 28.71875 34.90625 
L 20.21875 34.90625 
L 20.21875 43.015625 
L 29.109375 43.015625 
Q 36.375 43.015625 40.234375 45.921875 
Q 44.09375 48.828125 44.09375 54.296875 
Q 44.09375 59.90625 40.109375 62.90625 
Q 36.140625 65.921875 28.71875 65.921875 
Q 24.65625 65.921875 20.015625 65.03125 
Q 15.375 64.15625 9.8125 62.3125 
L 9.8125 71.09375 
Q 15.4375 72.65625 20.34375 73.4375 
Q 25.25 74.21875 29.59375 74.21875 
Q 40.828125 74.21875 47.359375 69.109375 
Q 53.90625 64.015625 53.90625 55.328125 
Q 53.90625 49.265625 50.4375 45.09375 
Q 46.96875 40.921875 40.578125 39.3125 
z
" id="DejaVuSans-51"/>
     <path d="M 10.6875 12.40625 
L 21 12.40625 
L 21 0 
L 10.6875 0 
z
" id="DejaVuSans-46"/>
     <path d="M 8.203125 72.90625 
L 55.078125 72.90625 
L 55.078125 68.703125 
L 28.609375 0 
L 18.3125 0 
L 43.21875 64.59375 
L 8.203125 64.59375 
z
" id="DejaVuSans-55"/>
    </defs>
    <g transform="translate(200.664375 28.56)scale(0.12 -0.12)">
     <use xlink:href="#DejaVuSans-116"/>
     <use x="39.208984" xlink:href="#DejaVuSans-32"/>
     <use x="70.996094" xlink:href="#DejaVuSans-61"/>
     <use x="154.785156" xlink:href="#DejaVuSans-32"/>
     <use x="186.572266" xlink:href="#DejaVuSans-51"/>
     <use x="250.195312" xlink:href="#DejaVuSans-46"/>
     <use x="281.982422" xlink:href="#DejaVuSans-55"/>
    </g>
   </g>
  </g>
 </g>
 <defs>
  <clipPath id="p4fcf958742">
   <rect height="217.44" width="334.8" x="54" y="34.56"/>
  </clipPath>
 </defs>
</svg>
