<?xml version="1.0" encoding="utf-8" standalone="no"?>
<!DOCTYPE svg PUBLIC "-//W3C//DTD SVG 1.1//EN"
  "http://www.w3.org/Graphics/SVG/1.1/DTD/svg11.dtd">
<!-- Created with matplotlib (https://matplotlib.org/) -->
<svg height="288pt" version="1.1" viewBox="0 0 432 288" width="432pt" xmlns="http://www.w3.org/2000/svg" xmlns:xlink="http://www.w3.org/1999/xlink">
 <defs>
  <style type="text/css">
*{stroke-linecap:butt;stroke-linejoin:round;}
  </style>
 </defs>
 <g id="figure_1">
  <g id="patch_1">
   <path d="M 0 288 
L 432 288 
L 432 0 
L 0 0 
z
" style="fill:#ffffff;"/>
  </g>
  <g id="axes_1">
   <g id="patch_2">
    <path clip-path="url(#p7191bd312f)" d="M 194.752242 132.40834 
L 194.752026 143.28034 
L 193.664826 143.280319 
L 193.665042 132.408319 
z
" style="stroke:#000000;stroke-linejoin:miter;"/>
   </g>
   <g id="patch_3">
    <path clip-path="url(#p7191bd312f)" d="M 249.112242 132.409416 
L 249.112026 143.281416 
L 248.024826 143.281395 
L 248.025042 132.409395 
z
" style="stroke:#000000;stroke-linejoin:miter;"/>
   </g>
   <g id="patch_4">
    <path clip-path="url(#p7191bd312f)" d="M 212.328642 132.408688 
L 212.179887 131.857139 
L 211.736046 131.34166 
L 211.004403 130.89597 
L 209.996973 130.54922 
L 208.730298 130.32409 
L 207.225175 130.235304 
L 205.506319 130.28867 
L 203.601953 130.480694 
L 201.543348 130.798814 
L 199.364305 131.22222 
L 197.100605 131.723215 
L 194.789419 132.269027 
L 192.468696 132.82395 
L 190.176544 133.351686 
L 187.950599 133.817713 
L 185.827412 134.191546 
L 183.841847 134.44873 
L 182.026507 134.572441 
L 180.411198 134.554584 
L 179.022446 134.396328 
L 177.883052 134.108021 
L 177.011726 133.708521 
L 176.422773 133.223958 
L 176.125866 132.686028 
L 176.125877 132.129915 
L 176.422806 131.591997 
L 177.011777 131.107457 
L 177.883119 130.707992 
L 179.022524 130.41973 
L 180.411283 130.261528 
L 182.026592 130.243736 
L 183.841928 130.367518 
L 185.827483 130.624781 
L 187.950655 130.998698 
L 190.176581 131.464813 
L 192.468713 131.99264 
L 194.789413 132.547655 
L 197.100578 133.093558 
L 199.364258 133.594643 
L 201.543284 134.018135 
L 203.601877 134.336337 
L 205.506235 134.528436 
L 207.225089 134.58187 
L 208.730215 134.493144 
L 209.9969 134.268064 
L 211.004343 133.921354 
L 211.736003 133.475693 
L 212.179866 132.960232 
z
" style="fill:#0000ff;stroke:#000000;stroke-linejoin:miter;"/>
   </g>
   <g id="patch_5">
    <path clip-path="url(#p7191bd312f)" d="M 266.688642 132.409764 
L 266.539887 131.858215 
L 266.096046 131.342736 
L 265.364403 130.897046 
L 264.356973 130.550296 
L 263.090298 130.325166 
L 261.585175 130.23638 
L 259.866319 130.289746 
L 257.961953 130.48177 
L 255.903348 130.79989 
L 253.724305 131.223296 
L 251.460605 131.724291 
L 249.149419 132.270103 
L 246.828696 132.825026 
L 244.536544 133.352762 
L 242.310599 133.818789 
L 240.187412 134.192622 
L 238.201847 134.449806 
L 236.386507 134.573517 
L 234.771198 134.55566 
L 233.382446 134.397404 
L 232.243052 134.109097 
L 231.371726 133.709597 
L 230.782773 133.225034 
L 230.485866 132.687104 
L 230.485877 132.130991 
L 230.782806 131.593073 
L 231.371777 131.108534 
L 232.243119 130.709068 
L 233.382524 130.420806 
L 234.771283 130.262604 
L 236.386592 130.244812 
L 238.201928 130.368595 
L 240.187483 130.625857 
L 242.310655 130.999774 
L 244.536581 131.465889 
L 246.828713 131.993716 
L 249.149413 132.548731 
L 251.460578 133.094634 
L 253.724258 133.595719 
L 255.903284 134.019211 
L 257.961877 134.337413 
L 259.866235 134.529512 
L 261.585089 134.582946 
L 263.090215 134.49422 
L 264.3569 134.26914 
L 265.364343 133.92243 
L 266.096003 133.476769 
L 266.539866 132.961308 
z
" style="fill:#0000ff;stroke:#000000;stroke-linejoin:miter;"/>
   </g>
   <g id="patch_6">
    <path clip-path="url(#p7191bd312f)" d="M 254.00448 140.563513 
L 188.77248 140.562222 
L 188.772373 145.998222 
L 254.004373 145.999513 
z
" style="fill:#999999;stroke:#000000;stroke-linejoin:miter;"/>
   </g>
   <g id="text_1">
    <!-- t = 3.5 -->
    <defs>
     <path d="M 18.3125 70.21875 
L 18.3125 54.6875 
L 36.8125 54.6875 
L 36.8125 47.703125 
L 18.3125 47.703125 
L 18.3125 18.015625 
Q 18.3125 11.328125 20.140625 9.421875 
Q 21.96875 7.515625 27.59375 7.515625 
L 36.8125 7.515625 
L 36.8125 0 
L 27.59375 0 
Q 17.1875 0 13.234375 3.875 
Q 9.28125 7.765625 9.28125 18.015625 
L 9.28125 47.703125 
L 2.6875 47.703125 
L 2.6875 54.6875 
L 9.28125 54.6875 
L 9.28125 70.21875 
z
" id="DejaVuSans-116"/>
     <path id="DejaVuSans-32"/>
     <path d="M 10.59375 45.40625 
L 73.1875 45.40625 
L 73.1875 37.203125 
L 10.59375 37.203125 
z
M 10.59375 25.484375 
L 73.1875 25.484375 
L 73.1875 17.1875 
L 10.59375 17.1875 
z
" id="DejaVuSans-61"/>
     <path d="M 40.578125 39.3125 
Q 47.65625 37.796875 51.625 33 
Q 55.609375 28.21875 55.609375 21.1875 
Q 55.609375 10.40625 48.1875 4.484375 
Q 40.765625 -1.421875 27.09375 -1.421875 
Q 22.515625 -1.421875 17.65625 -0.515625 
Q 12.796875 0.390625 7.625 2.203125 
L 7.625 11.71875 
Q 11.71875 9.328125 16.59375 8.109375 
Q 21.484375 6.890625 26.8125 6.890625 
Q 36.078125 6.890625 40.9375 10.546875 
Q 45.796875 14.203125 45.796875 21.1875 
Q 45.796875 27.640625 41.28125 31.265625 
Q 36.765625 34.90625 28.71875 34.90625 
L 20.21875 34.90625 
L 20.21875 43.015625 
L 29.109375 43.015625 
Q 36.375 43.015625 40.234375 45.921875 
Q 44.09375 48.828125 44.09375 54.296875 
Q 44.09375 59.90625 40.109375 62.90625 
Q 36.140625 65.921875 28.71875 65.921875 
Q 24.65625 65.921875 20.015625 65.03125 
Q 15.375 64.15625 9.8125 62.3125 
L 9.8125 71.09375 
Q 15.4375 72.65625 20.34375 73.4375 
Q 25.25 74.21875 29.59375 74.21875 
Q 40.828125 74.21875 47.359375 69.109375 
Q 53.90625 64.015625 53.90625 55.328125 
Q 53.90625 49.265625 50.4375 45.09375 
Q 46.96875 40.921875 40.578125 39.3125 
z
" id="DejaVuSans-51"/>
     <path d="M 10.6875 12.40625 
L 21 12.40625 
L 21 0 
L 10.6875 0 
z
" id="DejaVuSans-46"/>
     <path d="M 10.796875 72.90625 
L 49.515625 72.90625 
L 49.515625 64.59375 
L 19.828125 64.59375 
L 19.828125 46.734375 
Q 21.96875 47.46875 24.109375 47.828125 
Q 26.265625 48.1875 28.421875 48.1875 
Q 40.625 48.1875 47.75 41.5 
Q 54.890625 34.8125 54.890625 23.390625 
Q 54.890625 11.625 47.5625 5.09375 
Q 40.234375 -1.421875 26.90625 -1.421875 
Q 22.3125 -1.421875 17.546875 -0.640625 
Q 12.796875 0.140625 7.71875 1.703125 
L 7.71875 11.625 
Q 12.109375 9.234375 16.796875 8.0625 
Q 21.484375 6.890625 26.703125 6.890625 
Q 35.15625 6.890625 40.078125 11.328125 
Q 45.015625 15.765625 45.015625 23.390625 
Q 45.015625 31 40.078125 35.4375 
Q 35.15625 39.890625 26.703125 39.890625 
Q 22.75 39.890625 18.8125 39.015625 
Q 14.890625 38.140625 10.796875 36.28125 
z
" id="DejaVuSans-53"/>
    </defs>
    <g transform="translate(200.664375 28.56)scale(0.12 -0.12)">
     <use xlink:href="#DejaVuSans-116"/>
     <use x="39.208984" xlink:href="#DejaVuSans-32"/>
     <use x="70.996094" xlink:href="#DejaVuSans-61"/>
     <use x="154.785156" xlink:href="#DejaVuSans-32"/>
     <use x="186.572266" xlink:href="#DejaVuSans-51"/>
     <use x="250.195312" xlink:href="#DejaVuSans-46"/>
     <use x="281.982422" xlink:href="#DejaVuSans-53"/>
    </g>
   </g>
  </g>
 </g>
 <defs>
  <clipPath id="p7191bd312f">
   <rect height="217.44" width="334.8" x="54" y="34.56"/>
  </clipPath>
 </defs>
</svg>
