<?xml version="1.0" encoding="utf-8" standalone="no"?>
<!DOCTYPE svg PUBLIC "-//W3C//DTD SVG 1.1//EN"
  "http://www.w3.org/Graphics/SVG/1.1/DTD/svg11.dtd">
<!-- Created with matplotlib (https://matplotlib.org/) -->
<svg height="288pt" version="1.1" viewBox="0 0 432 288" width="432pt" xmlns="http://www.w3.org/2000/svg" xmlns:xlink="http://www.w3.org/1999/xlink">
 <defs>
  <style type="text/css">
*{stroke-linecap:butt;stroke-linejoin:round;}
  </style>
 </defs>
 <g id="figure_1">
  <g id="patch_1">
   <path d="M 0 288 
L 432 288 
L 432 0 
L 0 0 
z
" style="fill:#ffffff;"/>
  </g>
  <g id="axes_1">
   <g id="patch_2">
    <path clip-path="url(#p07acda9415)" d="M 194.783968 132.402521 
L 194.780673 143.27452 
L 193.693473 143.274191 
L 193.696768 132.402191 
z
" style="stroke:#000000;stroke-linejoin:miter;"/>
   </g>
   <g id="patch_3">
    <path clip-path="url(#p07acda9415)" d="M 249.143966 132.418997 
L 249.14067 143.290997 
L 248.05347 143.290667 
L 248.056766 132.418668 
z
" style="stroke:#000000;stroke-linejoin:miter;"/>
   </g>
   <g id="patch_4">
    <path clip-path="url(#p07acda9415)" d="M 212.360367 132.407848 
L 212.21177 131.856257 
L 211.768074 131.340652 
L 211.036558 130.894755 
L 210.029226 130.547719 
L 208.762614 130.32223 
L 207.257517 130.233019 
L 205.538645 130.285897 
L 203.634225 130.477382 
L 201.57553 130.794919 
L 199.396367 131.217708 
L 197.132526 131.718061 
L 194.821185 132.263218 
L 192.500305 132.817484 
L 190.208003 133.344571 
L 187.981926 133.809967 
L 185.858634 134.183198 
L 183.872996 134.43982 
L 182.057621 134.563016 
L 180.442317 134.544702 
L 179.05361 134.386052 
L 177.914298 134.097422 
L 177.043085 133.697675 
L 176.45427 133.212946 
L 176.157514 132.674931 
L 176.157683 132.118819 
L 176.454764 131.580985 
L 177.043873 131.096612 
L 177.915328 130.697394 
L 179.054815 130.409454 
L 180.443619 130.251646 
L 182.058933 130.234311 
L 183.874233 130.358608 
L 185.859715 130.616433 
L 187.982781 130.990951 
L 190.208575 131.457697 
L 192.500557 131.986173 
L 194.821101 132.541846 
L 197.13211 133.088404 
L 199.395648 133.59013 
L 201.574554 134.01424 
L 203.633057 134.333025 
L 205.53736 134.525663 
L 207.256199 134.579584 
L 208.761351 134.491285 
L 210.028099 134.266564 
L 211.035641 133.920139 
L 211.767427 133.474685 
L 212.211435 132.95935 
z
" style="fill:#0000ff;stroke:#000000;stroke-linejoin:miter;"/>
   </g>
   <g id="patch_5">
    <path clip-path="url(#p07acda9415)" d="M 266.720365 132.424325 
L 266.571767 131.872733 
L 266.128071 131.357129 
L 265.396555 130.911231 
L 264.389223 130.564195 
L 263.122612 130.338707 
L 261.617514 130.249495 
L 259.898643 130.302374 
L 257.994223 130.493858 
L 255.935527 130.811395 
L 253.756365 131.234184 
L 251.492523 131.734538 
L 249.181182 132.279694 
L 246.860303 132.83396 
L 244.568001 133.361047 
L 242.341924 133.826443 
L 240.218632 134.199675 
L 238.232994 134.456296 
L 236.417618 134.579492 
L 234.802315 134.561178 
L 233.413607 134.402528 
L 232.274295 134.113898 
L 231.403082 133.714152 
L 230.814267 133.229422 
L 230.517512 132.691408 
L 230.51768 132.135295 
L 230.814762 131.597461 
L 231.403871 131.113089 
L 232.275326 130.71387 
L 233.414813 130.425931 
L 234.803616 130.268122 
L 236.41893 130.250788 
L 238.234231 130.375085 
L 240.219713 130.63291 
L 242.342778 131.007428 
L 244.568572 131.474174 
L 246.860555 132.00265 
L 249.181098 132.558323 
L 251.492108 133.10488 
L 253.755646 133.606606 
L 255.934552 134.030716 
L 257.993054 134.349501 
L 259.897358 134.54214 
L 261.616197 134.59606 
L 263.121348 134.507761 
L 264.388096 134.28304 
L 265.395638 133.936615 
L 266.127424 133.491161 
L 266.571433 132.975826 
z
" style="fill:#0000ff;stroke:#000000;stroke-linejoin:miter;"/>
   </g>
   <g id="patch_6">
    <path clip-path="url(#p07acda9415)" d="M 254.033894 140.57448 
L 188.801897 140.554708 
L 188.800249 145.990708 
L 254.032246 146.010479 
z
" style="fill:#999999;stroke:#000000;stroke-linejoin:miter;"/>
   </g>
   <g id="text_1">
    <!-- t = 3.0 -->
    <defs>
     <path d="M 18.3125 70.21875 
L 18.3125 54.6875 
L 36.8125 54.6875 
L 36.8125 47.703125 
L 18.3125 47.703125 
L 18.3125 18.015625 
Q 18.3125 11.328125 20.140625 9.421875 
Q 21.96875 7.515625 27.59375 7.515625 
L 36.8125 7.515625 
L 36.8125 0 
L 27.59375 0 
Q 17.1875 0 13.234375 3.875 
Q 9.28125 7.765625 9.28125 18.015625 
L 9.28125 47.703125 
L 2.6875 47.703125 
L 2.6875 54.6875 
L 9.28125 54.6875 
L 9.28125 70.21875 
z
" id="DejaVuSans-116"/>
     <path id="DejaVuSans-32"/>
     <path d="M 10.59375 45.40625 
L 73.1875 45.40625 
L 73.1875 37.203125 
L 10.59375 37.203125 
z
M 10.59375 25.484375 
L 73.1875 25.484375 
L 73.1875 17.1875 
L 10.59375 17.1875 
z
" id="DejaVuSans-61"/>
     <path d="M 40.578125 39.3125 
Q 47.65625 37.796875 51.625 33 
Q 55.609375 28.21875 55.609375 21.1875 
Q 55.609375 10.40625 48.1875 4.484375 
Q 40.765625 -1.421875 27.09375 -1.421875 
Q 22.515625 -1.421875 17.65625 -0.515625 
Q 12.796875 0.390625 7.625 2.203125 
L 7.625 11.71875 
Q 11.71875 9.328125 16.59375 8.109375 
Q 21.484375 6.890625 26.8125 6.890625 
Q 36.078125 6.890625 40.9375 10.546875 
Q 45.796875 14.203125 45.796875 21.1875 
Q 45.796875 27.640625 41.28125 31.265625 
Q 36.765625 34.90625 28.71875 34.90625 
L 20.21875 34.90625 
L 20.21875 43.015625 
L 29.109375 43.015625 
Q 36.375 43.015625 40.234375 45.921875 
Q 44.09375 48.828125 44.09375 54.296875 
Q 44.09375 59.90625 40.109375 62.90625 
Q 36.140625 65.921875 28.71875 65.921875 
Q 24.65625 65.921875 20.015625 65.03125 
Q 15.375 64.15625 9.8125 62.3125 
L 9.8125 71.09375 
Q 15.4375 72.65625 20.34375 73.4375 
Q 25.25 74.21875 29.59375 74.21875 
Q 40.828125 74.21875 47.359375 69.109375 
Q 53.90625 64.015625 53.90625 55.328125 
Q 53.90625 49.265625 50.4375 45.09375 
Q 46.96875 40.921875 40.578125 39.3125 
z
" id="DejaVuSans-51"/>
     <path d="M 10.6875 12.40625 
L 21 12.40625 
L 21 0 
L 10.6875 0 
z
" id="DejaVuSans-46"/>
     <path d="M 31.78125 66.40625 
Q 24.171875 66.40625 20.328125 58.90625 
Q 16.5 51.421875 16.5 36.375 
Q 16.5 21.390625 20.328125 13.890625 
Q 24.171875 6.390625 31.78125 6.390625 
Q 39.453125 6.390625 43.28125 13.890625 
Q 47.125 21.390625 47.125 36.375 
Q 47.125 51.421875 43.28125 58.90625 
Q 39.453125 66.40625 31.78125 66.40625 
z
M 31.78125 74.21875 
Q 44.046875 74.21875 50.515625 64.515625 
Q 56.984375 54.828125 56.984375 36.375 
Q 56.984375 17.96875 50.515625 8.265625 
Q 44.046875 -1.421875 31.78125 -1.421875 
Q 19.53125 -1.421875 13.0625 8.265625 
Q 6.59375 17.96875 6.59375 36.375 
Q 6.59375 54.828125 13.0625 64.515625 
Q 19.53125 74.21875 31.78125 74.21875 
z
" id="DejaVuSans-48"/>
    </defs>
    <g transform="translate(200.664375 28.56)scale(0.12 -0.12)">
     <use xlink:href="#DejaVuSans-116"/>
     <use x="39.208984" xlink:href="#DejaVuSans-32"/>
     <use x="70.996094" xlink:href="#DejaVuSans-61"/>
     <use x="154.785156" xlink:href="#DejaVuSans-32"/>
     <use x="186.572266" xlink:href="#DejaVuSans-51"/>
     <use x="250.195312" xlink:href="#DejaVuSans-46"/>
     <use x="281.982422" xlink:href="#DejaVuSans-48"/>
    </g>
   </g>
  </g>
 </g>
 <defs>
  <clipPath id="p07acda9415">
   <rect height="217.44" width="334.8" x="54" y="34.56"/>
  </clipPath>
 </defs>
</svg>
