<?xml version="1.0" encoding="utf-8" standalone="no"?>
<!DOCTYPE svg PUBLIC "-//W3C//DTD SVG 1.1//EN"
  "http://www.w3.org/Graphics/SVG/1.1/DTD/svg11.dtd">
<!-- Created with matplotlib (https://matplotlib.org/) -->
<svg height="288pt" version="1.1" viewBox="0 0 432 288" width="432pt" xmlns="http://www.w3.org/2000/svg" xmlns:xlink="http://www.w3.org/1999/xlink">
 <defs>
  <style type="text/css">
*{stroke-linecap:butt;stroke-linejoin:round;}
  </style>
 </defs>
 <g id="figure_1">
  <g id="patch_1">
   <path d="M 0 288 
L 432 288 
L 432 0 
L 0 0 
z
" style="fill:#ffffff;"/>
  </g>
  <g id="axes_1">
   <g id="patch_2">
    <path clip-path="url(#p91eb2ecef8)" d="M 194.771461 132.404394 
L 194.769408 143.276394 
L 193.682208 143.276189 
L 193.684261 132.404189 
z
" style="stroke:#000000;stroke-linejoin:miter;"/>
   </g>
   <g id="patch_3">
    <path clip-path="url(#p91eb2ecef8)" d="M 249.13146 132.41466 
L 249.129407 143.28666 
L 248.042207 143.286455 
L 248.04426 132.414455 
z
" style="stroke:#000000;stroke-linejoin:miter;"/>
   </g>
   <g id="patch_4">
    <path clip-path="url(#p91eb2ecef8)" d="M 212.347861 132.407714 
L 212.1992 131.856139 
L 211.755445 131.340585 
L 211.023878 130.894771 
L 210.016507 130.547851 
L 208.74987 130.322507 
L 207.244762 130.233467 
L 205.525897 130.286542 
L 203.621499 130.478244 
L 201.562839 130.796016 
L 199.383725 131.219054 
L 197.119941 131.719666 
L 194.808662 132.265087 
L 192.487846 132.819618 
L 190.195604 133.346967 
L 187.969581 133.812618 
L 185.846331 134.186091 
L 183.860722 134.44294 
L 182.045361 134.566343 
L 180.430055 134.548214 
L 179.04133 134.389722 
L 177.901985 134.101223 
L 177.030726 133.701575 
L 176.441856 133.216913 
L 176.145039 132.678933 
L 176.145144 132.122821 
L 176.442164 131.584952 
L 177.031217 131.100512 
L 177.902627 130.701194 
L 179.042081 130.413125 
L 180.430866 130.255158 
L 182.046178 130.237639 
L 183.861493 130.361728 
L 185.847004 130.619326 
L 187.970113 130.993602 
L 190.19596 131.460093 
L 192.488003 131.988308 
L 194.80861 132.543716 
L 197.119682 133.090009 
L 199.383277 133.591476 
L 201.562231 134.015337 
L 203.62077 134.333887 
L 205.525096 134.526308 
L 207.243941 134.580033 
L 208.749082 134.491561 
L 210.015805 134.266696 
L 211.023307 133.920156 
L 211.755042 133.474618 
L 212.198992 132.959232 
z
" style="fill:#0000ff;stroke:#000000;stroke-linejoin:miter;"/>
   </g>
   <g id="patch_5">
    <path clip-path="url(#p91eb2ecef8)" d="M 266.70786 132.417979 
L 266.559199 131.866405 
L 266.115445 131.350851 
L 265.383877 130.905037 
L 264.376506 130.558117 
L 263.109869 130.332773 
L 261.604761 130.243733 
L 259.885896 130.296808 
L 257.981498 130.48851 
L 255.922838 130.806282 
L 253.743724 131.22932 
L 251.47994 131.729932 
L 249.168661 132.275353 
L 246.847845 132.829884 
L 244.555603 133.357233 
L 242.32958 133.822883 
L 240.20633 134.196357 
L 238.220721 134.453205 
L 236.40536 134.576609 
L 234.790055 134.55848 
L 233.401329 134.399988 
L 232.261984 134.111489 
L 231.390725 133.711841 
L 230.801855 133.227179 
L 230.505038 132.689199 
L 230.505143 132.133086 
L 230.802163 131.595218 
L 231.391216 131.110778 
L 232.262626 130.71146 
L 233.40208 130.423391 
L 234.790865 130.265424 
L 236.406177 130.247905 
L 238.221492 130.371994 
L 240.207004 130.629592 
L 242.330112 131.003868 
L 244.555959 131.470359 
L 246.848002 131.998574 
L 249.168609 132.553981 
L 251.479681 133.100275 
L 253.743276 133.601742 
L 255.92223 134.025603 
L 257.980769 134.344153 
L 259.885095 134.536574 
L 261.60394 134.590298 
L 263.109081 134.501827 
L 264.375804 134.276962 
L 265.383306 133.930421 
L 266.115041 133.484884 
L 266.558991 132.969498 
z
" style="fill:#0000ff;stroke:#000000;stroke-linejoin:miter;"/>
   </g>
   <g id="patch_6">
    <path clip-path="url(#p91eb2ecef8)" d="M 254.02232 140.569584 
L 188.790322 140.557265 
L 188.789295 145.993265 
L 254.021294 146.005584 
z
" style="fill:#999999;stroke:#000000;stroke-linejoin:miter;"/>
   </g>
   <g id="text_1">
    <!-- t = 3.2 -->
    <defs>
     <path d="M 18.3125 70.21875 
L 18.3125 54.6875 
L 36.8125 54.6875 
L 36.8125 47.703125 
L 18.3125 47.703125 
L 18.3125 18.015625 
Q 18.3125 11.328125 20.140625 9.421875 
Q 21.96875 7.515625 27.59375 7.515625 
L 36.8125 7.515625 
L 36.8125 0 
L 27.59375 0 
Q 17.1875 0 13.234375 3.875 
Q 9.28125 7.765625 9.28125 18.015625 
L 9.28125 47.703125 
L 2.6875 47.703125 
L 2.6875 54.6875 
L 9.28125 54.6875 
L 9.28125 70.21875 
z
" id="DejaVuSans-116"/>
     <path id="DejaVuSans-32"/>
     <path d="M 10.59375 45.40625 
L 73.1875 45.40625 
L 73.1875 37.203125 
L 10.59375 37.203125 
z
M 10.59375 25.484375 
L 73.1875 25.484375 
L 73.1875 17.1875 
L 10.59375 17.1875 
z
" id="DejaVuSans-61"/>
     <path d="M 40.578125 39.3125 
Q 47.65625 37.796875 51.625 33 
Q 55.609375 28.21875 55.609375 21.1875 
Q 55.609375 10.40625 48.1875 4.484375 
Q 40.765625 -1.421875 27.09375 -1.421875 
Q 22.515625 -1.421875 17.65625 -0.515625 
Q 12.796875 0.390625 7.625 2.203125 
L 7.625 11.71875 
Q 11.71875 9.328125 16.59375 8.109375 
Q 21.484375 6.890625 26.8125 6.890625 
Q 36.078125 6.890625 40.9375 10.546875 
Q 45.796875 14.203125 45.796875 21.1875 
Q 45.796875 27.640625 41.28125 31.265625 
Q 36.765625 34.90625 28.71875 34.90625 
L 20.21875 34.90625 
L 20.21875 43.015625 
L 29.109375 43.015625 
Q 36.375 43.015625 40.234375 45.921875 
Q 44.09375 48.828125 44.09375 54.296875 
Q 44.09375 59.90625 40.109375 62.90625 
Q 36.140625 65.921875 28.71875 65.921875 
Q 24.65625 65.921875 20.015625 65.03125 
Q 15.375 64.15625 9.8125 62.3125 
L 9.8125 71.09375 
Q 15.4375 72.65625 20.34375 73.4375 
Q 25.25 74.21875 29.59375 74.21875 
Q 40.828125 74.21875 47.359375 69.109375 
Q 53.90625 64.015625 53.90625 55.328125 
Q 53.90625 49.265625 50.4375 45.09375 
Q 46.96875 40.921875 40.578125 39.3125 
z
" id="DejaVuSans-51"/>
     <path d="M 10.6875 12.40625 
L 21 12.40625 
L 21 0 
L 10.6875 0 
z
" id="DejaVuSans-46"/>
     <path d="M 19.1875 8.296875 
L 53.609375 8.296875 
L 53.609375 0 
L 7.328125 0 
L 7.328125 8.296875 
Q 12.9375 14.109375 22.625 23.890625 
Q 32.328125 33.6875 34.8125 36.53125 
Q 39.546875 41.84375 41.421875 45.53125 
Q 43.3125 49.21875 43.3125 52.78125 
Q 43.3125 58.59375 39.234375 62.25 
Q 35.15625 65.921875 28.609375 65.921875 
Q 23.96875 65.921875 18.8125 64.3125 
Q 13.671875 62.703125 7.8125 59.421875 
L 7.8125 69.390625 
Q 13.765625 71.78125 18.9375 73 
Q 24.125 74.21875 28.421875 74.21875 
Q 39.75 74.21875 46.484375 68.546875 
Q 53.21875 62.890625 53.21875 53.421875 
Q 53.21875 48.921875 51.53125 44.890625 
Q 49.859375 40.875 45.40625 35.40625 
Q 44.1875 33.984375 37.640625 27.21875 
Q 31.109375 20.453125 19.1875 8.296875 
z
" id="DejaVuSans-50"/>
    </defs>
    <g transform="translate(200.664375 28.56)scale(0.12 -0.12)">
     <use xlink:href="#DejaVuSans-116"/>
     <use x="39.208984" xlink:href="#DejaVuSans-32"/>
     <use x="70.996094" xlink:href="#DejaVuSans-61"/>
     <use x="154.785156" xlink:href="#DejaVuSans-32"/>
     <use x="186.572266" xlink:href="#DejaVuSans-51"/>
     <use x="250.195312" xlink:href="#DejaVuSans-46"/>
     <use x="281.982422" xlink:href="#DejaVuSans-50"/>
    </g>
   </g>
  </g>
 </g>
 <defs>
  <clipPath id="p91eb2ecef8">
   <rect height="217.44" width="334.8" x="54" y="34.56"/>
  </clipPath>
 </defs>
</svg>
