<?xml version="1.0" encoding="utf-8" standalone="no"?>
<!DOCTYPE svg PUBLIC "-//W3C//DTD SVG 1.1//EN"
  "http://www.w3.org/Graphics/SVG/1.1/DTD/svg11.dtd">
<!-- Created with matplotlib (https://matplotlib.org/) -->
<svg height="288pt" version="1.1" viewBox="0 0 432 288" width="432pt" xmlns="http://www.w3.org/2000/svg" xmlns:xlink="http://www.w3.org/1999/xlink">
 <defs>
  <style type="text/css">
*{stroke-linecap:butt;stroke-linejoin:round;}
  </style>
 </defs>
 <g id="figure_1">
  <g id="patch_1">
   <path d="M 0 288 
L 432 288 
L 432 0 
L 0 0 
z
" style="fill:#ffffff;"/>
  </g>
  <g id="axes_1">
   <g id="patch_2">
    <path clip-path="url(#p23ed86b031)" d="M -20.023395 152.419111 
L -29.10067 158.402711 
L -29.69903 157.494983 
L -20.621754 151.511384 
z
" style="stroke:#000000;stroke-linejoin:miter;"/>
   </g>
   <g id="patch_3">
    <path clip-path="url(#p23ed86b031)" d="M 9.894602 197.805487 
L 0.817327 203.789086 
L 0.218967 202.881358 
L 9.296242 196.897759 
z
" style="stroke:#000000;stroke-linejoin:miter;"/>
   </g>
   <g id="patch_4">
    <path clip-path="url(#p23ed86b031)" d="M -10.349909 167.094039 
L -9.971286 166.666279 
L -9.785191 166.011999 
L -9.815763 165.155841 
L -10.080731 164.12388 
L -10.589926 162.94241 
L -11.344194 161.6369 
L -12.334781 160.231179 
L -13.543238 158.74689 
L -14.941864 157.203225 
L -16.494682 155.616954 
L -18.158873 154.002705 
L -19.886618 152.373475 
L -21.62722 150.741298 
L -23.329398 149.118012 
L -24.943614 147.516039 
L -26.4243 145.949118 
L -27.73185 144.432897 
L -28.834272 142.985337 
L -29.708405 141.62687 
L -30.340622 140.380283 
L -30.727016 139.27031 
L -30.873033 138.322951 
L -30.792616 137.564533 
L -30.506905 137.020573 
L -30.042595 136.714506 
L -29.430055 136.666354 
L -28.701347 136.89141 
L -27.888256 137.399044 
L -27.020472 138.191691 
L -26.124036 139.26411 
L -25.22014 140.602957 
L -24.324355 142.18673 
L -23.446328 143.986086 
L -22.589955 145.964544 
L -21.754005 148.079537 
L -20.93314 150.283772 
L -20.119251 152.526823 
L -19.303003 154.756897 
L -18.47547 156.922659 
L -17.629747 158.975036 
L -16.7624 160.868912 
L -15.874657 162.56461 
L -14.973239 164.02911 
L -14.070763 165.236924 
L -13.185678 166.170613 
L -12.341724 166.820915 
L -11.566942 167.186501 
L -10.892283 167.273386 
z
" style="fill:#0000ff;stroke:#000000;stroke-linejoin:miter;"/>
   </g>
   <g id="patch_5">
    <path clip-path="url(#p23ed86b031)" d="M 19.568088 212.480415 
L 19.946711 212.052654 
L 20.132806 211.398374 
L 20.102234 210.542216 
L 19.837266 209.510256 
L 19.328071 208.328786 
L 18.573802 207.023275 
L 17.583215 205.617555 
L 16.374759 204.133265 
L 14.976133 202.5896 
L 13.423315 201.003329 
L 11.759124 199.38908 
L 10.031379 197.75985 
L 8.290777 196.127674 
L 6.588599 194.504387 
L 4.974383 192.902415 
L 3.493697 191.335494 
L 2.186147 189.819273 
L 1.083724 188.371713 
L 0.209592 187.013245 
L -0.422625 185.766658 
L -0.809019 184.656686 
L -0.955036 183.709327 
L -0.874619 182.950908 
L -0.588909 182.406948 
L -0.124598 182.100882 
L 0.487941 182.052729 
L 1.21665 182.277785 
L 2.029741 182.785419 
L 2.897525 183.578067 
L 3.793961 184.650485 
L 4.697856 185.989333 
L 5.593641 187.573105 
L 6.471669 189.372461 
L 7.328042 191.350919 
L 8.163992 193.465913 
L 8.984857 195.670147 
L 9.798745 197.913199 
L 10.614994 200.143273 
L 11.442527 202.309034 
L 12.28825 204.361411 
L 13.155597 206.255287 
L 14.04334 207.950986 
L 14.944758 209.415486 
L 15.847234 210.623299 
L 16.732319 211.556988 
L 17.576273 212.207291 
L 18.351055 212.572877 
L 19.025714 212.659761 
z
" style="fill:#0000ff;stroke:#000000;stroke-linejoin:miter;"/>
   </g>
   <g id="patch_6">
    <path clip-path="url(#p23ed86b031)" d="M 5.779266 206.37796 
L -30.12233 151.914309 
L -34.660968 154.906109 
L 1.240628 209.36976 
z
" style="fill:#999999;stroke:#000000;stroke-linejoin:miter;"/>
   </g>
   <g id="text_1">
    <!-- t = 0.1 -->
    <defs>
     <path d="M 18.3125 70.21875 
L 18.3125 54.6875 
L 36.8125 54.6875 
L 36.8125 47.703125 
L 18.3125 47.703125 
L 18.3125 18.015625 
Q 18.3125 11.328125 20.140625 9.421875 
Q 21.96875 7.515625 27.59375 7.515625 
L 36.8125 7.515625 
L 36.8125 0 
L 27.59375 0 
Q 17.1875 0 13.234375 3.875 
Q 9.28125 7.765625 9.28125 18.015625 
L 9.28125 47.703125 
L 2.6875 47.703125 
L 2.6875 54.6875 
L 9.28125 54.6875 
L 9.28125 70.21875 
z
" id="DejaVuSans-116"/>
     <path id="DejaVuSans-32"/>
     <path d="M 10.59375 45.40625 
L 73.1875 45.40625 
L 73.1875 37.203125 
L 10.59375 37.203125 
z
M 10.59375 25.484375 
L 73.1875 25.484375 
L 73.1875 17.1875 
L 10.59375 17.1875 
z
" id="DejaVuSans-61"/>
     <path d="M 31.78125 66.40625 
Q 24.171875 66.40625 20.328125 58.90625 
Q 16.5 51.421875 16.5 36.375 
Q 16.5 21.390625 20.328125 13.890625 
Q 24.171875 6.390625 31.78125 6.390625 
Q 39.453125 6.390625 43.28125 13.890625 
Q 47.125 21.390625 47.125 36.375 
Q 47.125 51.421875 43.28125 58.90625 
Q 39.453125 66.40625 31.78125 66.40625 
z
M 31.78125 74.21875 
Q 44.046875 74.21875 50.515625 64.515625 
Q 56.984375 54.828125 56.984375 36.375 
Q 56.984375 17.96875 50.515625 8.265625 
Q 44.046875 -1.421875 31.78125 -1.421875 
Q 19.53125 -1.421875 13.0625 8.265625 
Q 6.59375 17.96875 6.59375 36.375 
Q 6.59375 54.828125 13.0625 64.515625 
Q 19.53125 74.21875 31.78125 74.21875 
z
" id="DejaVuSans-48"/>
     <path d="M 10.6875 12.40625 
L 21 12.40625 
L 21 0 
L 10.6875 0 
z
" id="DejaVuSans-46"/>
     <path d="M 12.40625 8.296875 
L 28.515625 8.296875 
L 28.515625 63.921875 
L 10.984375 60.40625 
L 10.984375 69.390625 
L 28.421875 72.90625 
L 38.28125 72.90625 
L 38.28125 8.296875 
L 54.390625 8.296875 
L 54.390625 0 
L 12.40625 0 
z
" id="DejaVuSans-49"/>
    </defs>
    <g transform="translate(200.664375 28.56)scale(0.12 -0.12)">
     <use xlink:href="#DejaVuSans-116"/>
     <use x="39.208984" xlink:href="#DejaVuSans-32"/>
     <use x="70.996094" xlink:href="#DejaVuSans-61"/>
     <use x="154.785156" xlink:href="#DejaVuSans-32"/>
     <use x="186.572266" xlink:href="#DejaVuSans-48"/>
     <use x="250.195312" xlink:href="#DejaVuSans-46"/>
     <use x="281.982422" xlink:href="#DejaVuSans-49"/>
    </g>
   </g>
  </g>
 </g>
 <defs>
  <clipPath id="p23ed86b031">
   <rect height="217.44" width="334.8" x="54" y="34.56"/>
  </clipPath>
 </defs>
</svg>
