<?xml version="1.0" encoding="utf-8" standalone="no"?>
<!DOCTYPE svg PUBLIC "-//W3C//DTD SVG 1.1//EN"
  "http://www.w3.org/Graphics/SVG/1.1/DTD/svg11.dtd">
<!-- Created with matplotlib (https://matplotlib.org/) -->
<svg height="288pt" version="1.1" viewBox="0 0 432 288" width="432pt" xmlns="http://www.w3.org/2000/svg" xmlns:xlink="http://www.w3.org/1999/xlink">
 <defs>
  <style type="text/css">
*{stroke-linecap:butt;stroke-linejoin:round;}
  </style>
 </defs>
 <g id="figure_1">
  <g id="patch_1">
   <path d="M 0 288 
L 432 288 
L 432 0 
L 0 0 
z
" style="fill:#ffffff;"/>
  </g>
  <g id="axes_1">
   <g id="patch_2">
    <path clip-path="url(#p1fa5326921)" d="M 194.754645 132.407937 
L 194.75441 143.279937 
L 193.66721 143.279913 
L 193.667445 132.407913 
z
" style="stroke:#000000;stroke-linejoin:miter;"/>
   </g>
   <g id="patch_3">
    <path clip-path="url(#p1fa5326921)" d="M 249.114645 132.409111 
L 249.11441 143.281111 
L 248.02721 143.281087 
L 248.027445 132.409087 
z
" style="stroke:#000000;stroke-linejoin:miter;"/>
   </g>
   <g id="patch_4">
    <path clip-path="url(#p1fa5326921)" d="M 212.331045 132.408316 
L 212.182292 131.856766 
L 211.738451 131.341287 
L 211.006809 130.895596 
L 209.99938 130.548843 
L 208.732705 130.323711 
L 207.227582 130.234923 
L 205.508726 130.288286 
L 203.60436 130.480306 
L 201.545754 130.798423 
L 199.36671 131.221825 
L 197.10301 131.722816 
L 194.791823 132.268623 
L 192.471099 132.823543 
L 190.178945 133.351275 
L 187.953 133.817298 
L 185.829813 134.191127 
L 183.844247 134.448307 
L 182.028906 134.572014 
L 180.413598 134.554155 
L 179.024846 134.395896 
L 177.885452 134.107587 
L 177.014127 133.708085 
L 176.425175 133.223521 
L 176.128268 132.685591 
L 176.12828 132.129478 
L 176.425211 131.59156 
L 177.014183 131.107022 
L 177.885526 130.707558 
L 179.024931 130.419298 
L 180.413691 130.261099 
L 182.029 130.24331 
L 183.844335 130.367095 
L 185.82989 130.624361 
L 187.953061 130.998282 
L 190.178986 131.464401 
L 192.471117 131.992232 
L 194.791816 132.547252 
L 197.10298 133.093159 
L 199.366659 133.594247 
L 201.545684 134.017744 
L 203.604277 134.335949 
L 205.508634 134.528052 
L 207.227488 134.581489 
L 208.732615 134.492766 
L 209.9993 134.267688 
L 211.006744 133.92098 
L 211.738405 133.47532 
L 212.182268 132.95986 
z
" style="fill:#0000ff;stroke:#000000;stroke-linejoin:miter;"/>
   </g>
   <g id="patch_5">
    <path clip-path="url(#p1fa5326921)" d="M 266.691045 132.40949 
L 266.542292 131.85794 
L 266.098451 131.342461 
L 265.366809 130.896769 
L 264.35938 130.550017 
L 263.092705 130.324885 
L 261.587582 130.236097 
L 259.868726 130.28946 
L 257.96436 130.48148 
L 255.905754 130.799597 
L 253.72671 131.222999 
L 251.46301 131.72399 
L 249.151823 132.269797 
L 246.831099 132.824717 
L 244.538945 133.352449 
L 242.313 133.818471 
L 240.189813 134.1923 
L 238.204247 134.449481 
L 236.388906 134.573188 
L 234.773598 134.555329 
L 233.384846 134.39707 
L 232.245452 134.108761 
L 231.374127 133.709259 
L 230.785175 133.224695 
L 230.488268 132.686764 
L 230.48828 132.130652 
L 230.785211 131.592734 
L 231.374183 131.108196 
L 232.245526 130.708732 
L 233.384931 130.420472 
L 234.773691 130.262273 
L 236.389 130.244483 
L 238.204335 130.368269 
L 240.18989 130.625535 
L 242.313061 130.999456 
L 244.538986 131.465575 
L 246.831117 131.993406 
L 249.151816 132.548426 
L 251.46298 133.094333 
L 253.726659 133.595421 
L 255.905684 134.018918 
L 257.964277 134.337123 
L 259.868634 134.529226 
L 261.587488 134.582663 
L 263.092615 134.49394 
L 264.3593 134.268862 
L 265.366744 133.922154 
L 266.098405 133.476494 
L 266.542268 132.961033 
z
" style="fill:#0000ff;stroke:#000000;stroke-linejoin:miter;"/>
   </g>
   <g id="patch_6">
    <path clip-path="url(#p1fa5326921)" d="M 254.006869 140.563216 
L 188.774869 140.561808 
L 188.774751 145.997808 
L 254.006751 145.999216 
z
" style="fill:#999999;stroke:#000000;stroke-linejoin:miter;"/>
   </g>
   <g id="text_1">
    <!-- t = 3.9 -->
    <defs>
     <path d="M 18.3125 70.21875 
L 18.3125 54.6875 
L 36.8125 54.6875 
L 36.8125 47.703125 
L 18.3125 47.703125 
L 18.3125 18.015625 
Q 18.3125 11.328125 20.140625 9.421875 
Q 21.96875 7.515625 27.59375 7.515625 
L 36.8125 7.515625 
L 36.8125 0 
L 27.59375 0 
Q 17.1875 0 13.234375 3.875 
Q 9.28125 7.765625 9.28125 18.015625 
L 9.28125 47.703125 
L 2.6875 47.703125 
L 2.6875 54.6875 
L 9.28125 54.6875 
L 9.28125 70.21875 
z
" id="DejaVuSans-116"/>
     <path id="DejaVuSans-32"/>
     <path d="M 10.59375 45.40625 
L 73.1875 45.40625 
L 73.1875 37.203125 
L 10.59375 37.203125 
z
M 10.59375 25.484375 
L 73.1875 25.484375 
L 73.1875 17.1875 
L 10.59375 17.1875 
z
" id="DejaVuSans-61"/>
     <path d="M 40.578125 39.3125 
Q 47.65625 37.796875 51.625 33 
Q 55.609375 28.21875 55.609375 21.1875 
Q 55.609375 10.40625 48.1875 4.484375 
Q 40.765625 -1.421875 27.09375 -1.421875 
Q 22.515625 -1.421875 17.65625 -0.515625 
Q 12.796875 0.390625 7.625 2.203125 
L 7.625 11.71875 
Q 11.71875 9.328125 16.59375 8.109375 
Q 21.484375 6.890625 26.8125 6.890625 
Q 36.078125 6.890625 40.9375 10.546875 
Q 45.796875 14.203125 45.796875 21.1875 
Q 45.796875 27.640625 41.28125 31.265625 
Q 36.765625 34.90625 28.71875 34.90625 
L 20.21875 34.90625 
L 20.21875 43.015625 
L 29.109375 43.015625 
Q 36.375 43.015625 40.234375 45.921875 
Q 44.09375 48.828125 44.09375 54.296875 
Q 44.09375 59.90625 40.109375 62.90625 
Q 36.140625 65.921875 28.71875 65.921875 
Q 24.65625 65.921875 20.015625 65.03125 
Q 15.375 64.15625 9.8125 62.3125 
L 9.8125 71.09375 
Q 15.4375 72.65625 20.34375 73.4375 
Q 25.25 74.21875 29.59375 74.21875 
Q 40.828125 74.21875 47.359375 69.109375 
Q 53.90625 64.015625 53.90625 55.328125 
Q 53.90625 49.265625 50.4375 45.09375 
Q 46.96875 40.921875 40.578125 39.3125 
z
" id="DejaVuSans-51"/>
     <path d="M 10.6875 12.40625 
L 21 12.40625 
L 21 0 
L 10.6875 0 
z
" id="DejaVuSans-46"/>
     <path d="M 10.984375 1.515625 
L 10.984375 10.5 
Q 14.703125 8.734375 18.5 7.8125 
Q 22.3125 6.890625 25.984375 6.890625 
Q 35.75 6.890625 40.890625 13.453125 
Q 46.046875 20.015625 46.78125 33.40625 
Q 43.953125 29.203125 39.59375 26.953125 
Q 35.25 24.703125 29.984375 24.703125 
Q 19.046875 24.703125 12.671875 31.3125 
Q 6.296875 37.9375 6.296875 49.421875 
Q 6.296875 60.640625 12.9375 67.421875 
Q 19.578125 74.21875 30.609375 74.21875 
Q 43.265625 74.21875 49.921875 64.515625 
Q 56.59375 54.828125 56.59375 36.375 
Q 56.59375 19.140625 48.40625 8.859375 
Q 40.234375 -1.421875 26.421875 -1.421875 
Q 22.703125 -1.421875 18.890625 -0.6875 
Q 15.09375 0.046875 10.984375 1.515625 
z
M 30.609375 32.421875 
Q 37.25 32.421875 41.125 36.953125 
Q 45.015625 41.5 45.015625 49.421875 
Q 45.015625 57.28125 41.125 61.84375 
Q 37.25 66.40625 30.609375 66.40625 
Q 23.96875 66.40625 20.09375 61.84375 
Q 16.21875 57.28125 16.21875 49.421875 
Q 16.21875 41.5 20.09375 36.953125 
Q 23.96875 32.421875 30.609375 32.421875 
z
" id="DejaVuSans-57"/>
    </defs>
    <g transform="translate(200.664375 28.56)scale(0.12 -0.12)">
     <use xlink:href="#DejaVuSans-116"/>
     <use x="39.208984" xlink:href="#DejaVuSans-32"/>
     <use x="70.996094" xlink:href="#DejaVuSans-61"/>
     <use x="154.785156" xlink:href="#DejaVuSans-32"/>
     <use x="186.572266" xlink:href="#DejaVuSans-51"/>
     <use x="250.195312" xlink:href="#DejaVuSans-46"/>
     <use x="281.982422" xlink:href="#DejaVuSans-57"/>
    </g>
   </g>
  </g>
 </g>
 <defs>
  <clipPath id="p1fa5326921">
   <rect height="217.44" width="334.8" x="54" y="34.56"/>
  </clipPath>
 </defs>
</svg>
