<?xml version="1.0" encoding="utf-8" standalone="no"?>
<!DOCTYPE svg PUBLIC "-//W3C//DTD SVG 1.1//EN"
  "http://www.w3.org/Graphics/SVG/1.1/DTD/svg11.dtd">
<!-- Created with matplotlib (https://matplotlib.org/) -->
<svg height="288pt" version="1.1" viewBox="0 0 432 288" width="432pt" xmlns="http://www.w3.org/2000/svg" xmlns:xlink="http://www.w3.org/1999/xlink">
 <defs>
  <style type="text/css">
*{stroke-linecap:butt;stroke-linejoin:round;}
  </style>
 </defs>
 <g id="figure_1">
  <g id="patch_1">
   <path d="M 0 288 
L 432 288 
L 432 0 
L 0 0 
z
" style="fill:#ffffff;"/>
  </g>
  <g id="axes_1">
   <g id="patch_2">
    <path clip-path="url(#p2c741d55ba)" d="M 194.763492 132.408652 
L 194.763792 143.280652 
L 193.676592 143.280682 
L 193.676292 132.408682 
z
" style="stroke:#000000;stroke-linejoin:miter;"/>
   </g>
   <g id="patch_3">
    <path clip-path="url(#p2c741d55ba)" d="M 249.123492 132.407155 
L 249.123792 143.279155 
L 248.036592 143.279185 
L 248.036292 132.407185 
z
" style="stroke:#000000;stroke-linejoin:miter;"/>
   </g>
   <g id="patch_4">
    <path clip-path="url(#p2c741d55ba)" d="M 212.339892 132.408168 
L 212.191112 131.856626 
L 211.747246 131.341168 
L 211.015582 130.895512 
L 210.008136 130.54881 
L 208.74145 130.32374 
L 207.236322 130.235026 
L 205.517469 130.288473 
L 203.613112 130.480587 
L 201.554522 130.798805 
L 199.375499 131.222314 
L 197.111823 131.723416 
L 194.800663 132.269337 
L 192.479966 132.82437 
L 190.187839 133.352215 
L 187.961916 133.818347 
L 185.838747 134.192281 
L 183.853194 134.449558 
L 182.03786 134.573355 
L 180.42255 134.555575 
L 179.03379 134.397384 
L 177.894383 134.109131 
L 177.023038 133.709672 
L 176.434063 133.225138 
L 176.137129 132.687221 
L 176.137114 132.131109 
L 176.434018 131.593177 
L 177.022966 131.108609 
L 177.894289 130.709103 
L 179.033681 130.420787 
L 180.422432 130.262519 
L 182.03774 130.24465 
L 183.853082 130.368347 
L 185.838649 130.625516 
L 187.961839 130.999332 
L 190.187787 131.465341 
L 192.479943 131.99306 
L 194.800671 132.547966 
L 197.111861 133.093759 
L 199.375565 133.594736 
L 201.554611 134.018126 
L 203.613219 134.33623 
L 205.517586 134.528239 
L 207.236442 134.581592 
L 208.741564 134.492795 
L 210.008238 134.267655 
L 211.015665 133.920897 
L 211.747304 133.475201 
L 212.191142 132.959719 
z
" style="fill:#0000ff;stroke:#000000;stroke-linejoin:miter;"/>
   </g>
   <g id="patch_5">
    <path clip-path="url(#p2c741d55ba)" d="M 266.699892 132.406671 
L 266.551112 131.855129 
L 266.107246 131.339671 
L 265.375582 130.894015 
L 264.368136 130.547313 
L 263.101449 130.322243 
L 261.596322 130.233529 
L 259.877469 130.286976 
L 257.973112 130.47909 
L 255.914522 130.797308 
L 253.735499 131.220817 
L 251.471823 131.721919 
L 249.160663 132.26784 
L 246.839966 132.822873 
L 244.547839 133.350718 
L 242.321916 133.81685 
L 240.198747 134.190783 
L 238.213194 134.448061 
L 236.39786 134.571858 
L 234.78255 134.554078 
L 233.39379 134.395887 
L 232.254383 134.107634 
L 231.383038 133.708175 
L 230.794063 133.22364 
L 230.497129 132.685724 
L 230.497114 132.129612 
L 230.794018 131.591679 
L 231.382966 131.107112 
L 232.254289 130.707605 
L 233.393681 130.419289 
L 234.782432 130.261022 
L 236.39774 130.243153 
L 238.213082 130.36685 
L 240.198649 130.624018 
L 242.321838 130.997835 
L 244.547787 131.463844 
L 246.839943 131.991563 
L 249.160671 132.546468 
L 251.471861 133.092262 
L 253.735565 133.593239 
L 255.914611 134.016628 
L 257.973219 134.334733 
L 259.877586 134.526742 
L 261.596442 134.580094 
L 263.101564 134.491297 
L 264.368238 134.266158 
L 265.375665 133.9194 
L 266.107304 133.473704 
L 266.551142 132.958222 
z
" style="fill:#0000ff;stroke:#000000;stroke-linejoin:miter;"/>
   </g>
   <g id="patch_6">
    <path clip-path="url(#p2c741d55ba)" d="M 254.016117 140.56102 
L 188.784117 140.562817 
L 188.784266 145.998817 
L 254.016266 145.99702 
z
" style="fill:#999999;stroke:#000000;stroke-linejoin:miter;"/>
   </g>
   <g id="text_1">
    <!-- t = 3.8 -->
    <defs>
     <path d="M 18.3125 70.21875 
L 18.3125 54.6875 
L 36.8125 54.6875 
L 36.8125 47.703125 
L 18.3125 47.703125 
L 18.3125 18.015625 
Q 18.3125 11.328125 20.140625 9.421875 
Q 21.96875 7.515625 27.59375 7.515625 
L 36.8125 7.515625 
L 36.8125 0 
L 27.59375 0 
Q 17.1875 0 13.234375 3.875 
Q 9.28125 7.765625 9.28125 18.015625 
L 9.28125 47.703125 
L 2.6875 47.703125 
L 2.6875 54.6875 
L 9.28125 54.6875 
L 9.28125 70.21875 
z
" id="DejaVuSans-116"/>
     <path id="DejaVuSans-32"/>
     <path d="M 10.59375 45.40625 
L 73.1875 45.40625 
L 73.1875 37.203125 
L 10.59375 37.203125 
z
M 10.59375 25.484375 
L 73.1875 25.484375 
L 73.1875 17.1875 
L 10.59375 17.1875 
z
" id="DejaVuSans-61"/>
     <path d="M 40.578125 39.3125 
Q 47.65625 37.796875 51.625 33 
Q 55.609375 28.21875 55.609375 21.1875 
Q 55.609375 10.40625 48.1875 4.484375 
Q 40.765625 -1.421875 27.09375 -1.421875 
Q 22.515625 -1.421875 17.65625 -0.515625 
Q 12.796875 0.390625 7.625 2.203125 
L 7.625 11.71875 
Q 11.71875 9.328125 16.59375 8.109375 
Q 21.484375 6.890625 26.8125 6.890625 
Q 36.078125 6.890625 40.9375 10.546875 
Q 45.796875 14.203125 45.796875 21.1875 
Q 45.796875 27.640625 41.28125 31.265625 
Q 36.765625 34.90625 28.71875 34.90625 
L 20.21875 34.90625 
L 20.21875 43.015625 
L 29.109375 43.015625 
Q 36.375 43.015625 40.234375 45.921875 
Q 44.09375 48.828125 44.09375 54.296875 
Q 44.09375 59.90625 40.109375 62.90625 
Q 36.140625 65.921875 28.71875 65.921875 
Q 24.65625 65.921875 20.015625 65.03125 
Q 15.375 64.15625 9.8125 62.3125 
L 9.8125 71.09375 
Q 15.4375 72.65625 20.34375 73.4375 
Q 25.25 74.21875 29.59375 74.21875 
Q 40.828125 74.21875 47.359375 69.109375 
Q 53.90625 64.015625 53.90625 55.328125 
Q 53.90625 49.265625 50.4375 45.09375 
Q 46.96875 40.921875 40.578125 39.3125 
z
" id="DejaVuSans-51"/>
     <path d="M 10.6875 12.40625 
L 21 12.40625 
L 21 0 
L 10.6875 0 
z
" id="DejaVuSans-46"/>
     <path d="M 31.78125 34.625 
Q 24.75 34.625 20.71875 30.859375 
Q 16.703125 27.09375 16.703125 20.515625 
Q 16.703125 13.921875 20.71875 10.15625 
Q 24.75 6.390625 31.78125 6.390625 
Q 38.8125 6.390625 42.859375 10.171875 
Q 46.921875 13.96875 46.921875 20.515625 
Q 46.921875 27.09375 42.890625 30.859375 
Q 38.875 34.625 31.78125 34.625 
z
M 21.921875 38.8125 
Q 15.578125 40.375 12.03125 44.71875 
Q 8.5 49.078125 8.5 55.328125 
Q 8.5 64.0625 14.71875 69.140625 
Q 20.953125 74.21875 31.78125 74.21875 
Q 42.671875 74.21875 48.875 69.140625 
Q 55.078125 64.0625 55.078125 55.328125 
Q 55.078125 49.078125 51.53125 44.71875 
Q 48 40.375 41.703125 38.8125 
Q 48.828125 37.15625 52.796875 32.3125 
Q 56.78125 27.484375 56.78125 20.515625 
Q 56.78125 9.90625 50.3125 4.234375 
Q 43.84375 -1.421875 31.78125 -1.421875 
Q 19.734375 -1.421875 13.25 4.234375 
Q 6.78125 9.90625 6.78125 20.515625 
Q 6.78125 27.484375 10.78125 32.3125 
Q 14.796875 37.15625 21.921875 38.8125 
z
M 18.3125 54.390625 
Q 18.3125 48.734375 21.84375 45.5625 
Q 25.390625 42.390625 31.78125 42.390625 
Q 38.140625 42.390625 41.71875 45.5625 
Q 45.3125 48.734375 45.3125 54.390625 
Q 45.3125 60.0625 41.71875 63.234375 
Q 38.140625 66.40625 31.78125 66.40625 
Q 25.390625 66.40625 21.84375 63.234375 
Q 18.3125 60.0625 18.3125 54.390625 
z
" id="DejaVuSans-56"/>
    </defs>
    <g transform="translate(200.664375 28.56)scale(0.12 -0.12)">
     <use xlink:href="#DejaVuSans-116"/>
     <use x="39.208984" xlink:href="#DejaVuSans-32"/>
     <use x="70.996094" xlink:href="#DejaVuSans-61"/>
     <use x="154.785156" xlink:href="#DejaVuSans-32"/>
     <use x="186.572266" xlink:href="#DejaVuSans-51"/>
     <use x="250.195312" xlink:href="#DejaVuSans-46"/>
     <use x="281.982422" xlink:href="#DejaVuSans-56"/>
    </g>
   </g>
  </g>
 </g>
 <defs>
  <clipPath id="p2c741d55ba">
   <rect height="217.44" width="334.8" x="54" y="34.56"/>
  </clipPath>
 </defs>
</svg>
