<?xml version="1.0" encoding="utf-8" standalone="no"?>
<!DOCTYPE svg PUBLIC "-//W3C//DTD SVG 1.1//EN"
  "http://www.w3.org/Graphics/SVG/1.1/DTD/svg11.dtd">
<!-- Created with matplotlib (https://matplotlib.org/) -->
<svg height="288pt" version="1.1" viewBox="0 0 432 288" width="432pt" xmlns="http://www.w3.org/2000/svg" xmlns:xlink="http://www.w3.org/1999/xlink">
 <defs>
  <style type="text/css">
*{stroke-linecap:butt;stroke-linejoin:round;}
  </style>
 </defs>
 <g id="figure_1">
  <g id="patch_1">
   <path d="M 0 288 
L 432 288 
L 432 0 
L 0 0 
z
" style="fill:#ffffff;"/>
  </g>
  <g id="axes_1">
   <g id="patch_2">
    <path clip-path="url(#pd84007cf8d)" d="M 195.449549 133.211142 
L 195.045805 144.075643 
L 193.959354 144.035268 
L 194.363099 133.170767 
z
" style="stroke:#000000;stroke-linejoin:miter;"/>
   </g>
   <g id="patch_3">
    <path clip-path="url(#pd84007cf8d)" d="M 249.772053 135.229866 
L 249.368308 146.094367 
L 248.281858 146.053992 
L 248.685603 135.189492 
z
" style="stroke:#000000;stroke-linejoin:miter;"/>
   </g>
   <g id="patch_4">
    <path clip-path="url(#pd84007cf8d)" d="M 213.013825 133.863863 
L 212.885645 133.307172 
L 212.461242 132.775575 
L 211.746646 132.303036 
L 210.752781 131.919132 
L 209.495334 131.647143 
L 207.994543 131.502554 
L 206.274891 131.492085 
L 204.36471 131.613294 
L 202.295716 131.854787 
L 200.102459 132.197023 
L 197.821724 132.613652 
L 195.491872 133.073304 
L 193.152151 133.541709 
L 190.841991 133.984005 
L 188.600283 134.367091 
L 186.464684 134.661861 
L 184.470941 134.845171 
L 182.652259 134.901417 
L 181.038727 134.823619 
L 179.656805 134.613926 
L 178.528898 134.283527 
L 177.673 133.851962 
L 177.102438 133.345873 
L 176.825701 132.797293 
L 176.846353 132.241565 
L 177.163043 131.715038 
L 177.769593 131.252693 
L 178.655162 130.885844 
L 179.804481 130.640071 
L 181.198155 130.533524 
L 182.813011 130.575699 
L 184.622502 130.766775 
L 186.59714 131.097557 
L 188.70497 131.55002 
L 190.912062 132.098433 
L 193.183023 132.710971 
L 195.481525 133.351741 
L 197.770835 133.983049 
L 200.014357 134.567809 
L 202.176162 135.071887 
L 204.221526 135.466277 
L 206.117442 135.728927 
L 207.833129 135.846122 
L 209.340511 135.813322 
L 210.614677 135.635412 
L 211.634295 135.326333 
L 212.381992 134.908136 
L 212.844681 134.409504 
z
" style="fill:#0000ff;stroke:#000000;stroke-linejoin:miter;"/>
   </g>
   <g id="patch_5">
    <path clip-path="url(#pd84007cf8d)" d="M 267.336329 135.882587 
L 267.208149 135.325897 
L 266.783745 134.794299 
L 266.069149 134.32176 
L 265.075284 133.937857 
L 263.817837 133.665867 
L 262.317047 133.521278 
L 260.597394 133.510809 
L 258.687214 133.632018 
L 256.618219 133.873511 
L 254.424963 134.215747 
L 252.144227 134.632376 
L 249.814375 135.092029 
L 247.474655 135.560433 
L 245.164494 136.002729 
L 242.922786 136.385816 
L 240.787187 136.680586 
L 238.793444 136.863895 
L 236.974763 136.920142 
L 235.36123 136.842343 
L 233.979308 136.63265 
L 232.851401 136.302252 
L 231.995503 135.870686 
L 231.424942 135.364598 
L 231.148204 134.816018 
L 231.168856 134.260289 
L 231.485547 133.733762 
L 232.092096 133.271417 
L 232.977665 132.904568 
L 234.126984 132.658795 
L 235.520658 132.552248 
L 237.135514 132.594423 
L 238.945005 132.785499 
L 240.919643 133.116281 
L 243.027473 133.568745 
L 245.234565 134.117157 
L 247.505526 134.729696 
L 249.804028 135.370465 
L 252.093338 136.001774 
L 254.33686 136.586533 
L 256.498666 137.090611 
L 258.54403 137.485001 
L 260.439945 137.747651 
L 262.155632 137.864846 
L 263.663014 137.832046 
L 264.93718 137.654136 
L 265.956798 137.345058 
L 266.704495 136.92686 
L 267.167184 136.428229 
z
" style="fill:#0000ff;stroke:#000000;stroke-linejoin:miter;"/>
   </g>
   <g id="patch_6">
    <path clip-path="url(#pd84007cf8d)" d="M 254.358269 143.559927 
L 189.171265 141.137458 
L 188.969393 146.569708 
L 254.156397 148.992177 
z
" style="fill:#999999;stroke:#000000;stroke-linejoin:miter;"/>
   </g>
   <g id="text_1">
    <!-- t = 1.5 -->
    <defs>
     <path d="M 18.3125 70.21875 
L 18.3125 54.6875 
L 36.8125 54.6875 
L 36.8125 47.703125 
L 18.3125 47.703125 
L 18.3125 18.015625 
Q 18.3125 11.328125 20.140625 9.421875 
Q 21.96875 7.515625 27.59375 7.515625 
L 36.8125 7.515625 
L 36.8125 0 
L 27.59375 0 
Q 17.1875 0 13.234375 3.875 
Q 9.28125 7.765625 9.28125 18.015625 
L 9.28125 47.703125 
L 2.6875 47.703125 
L 2.6875 54.6875 
L 9.28125 54.6875 
L 9.28125 70.21875 
z
" id="DejaVuSans-116"/>
     <path id="DejaVuSans-32"/>
     <path d="M 10.59375 45.40625 
L 73.1875 45.40625 
L 73.1875 37.203125 
L 10.59375 37.203125 
z
M 10.59375 25.484375 
L 73.1875 25.484375 
L 73.1875 17.1875 
L 10.59375 17.1875 
z
" id="DejaVuSans-61"/>
     <path d="M 12.40625 8.296875 
L 28.515625 8.296875 
L 28.515625 63.921875 
L 10.984375 60.40625 
L 10.984375 69.390625 
L 28.421875 72.90625 
L 38.28125 72.90625 
L 38.28125 8.296875 
L 54.390625 8.296875 
L 54.390625 0 
L 12.40625 0 
z
" id="DejaVuSans-49"/>
     <path d="M 10.6875 12.40625 
L 21 12.40625 
L 21 0 
L 10.6875 0 
z
" id="DejaVuSans-46"/>
     <path d="M 10.796875 72.90625 
L 49.515625 72.90625 
L 49.515625 64.59375 
L 19.828125 64.59375 
L 19.828125 46.734375 
Q 21.96875 47.46875 24.109375 47.828125 
Q 26.265625 48.1875 28.421875 48.1875 
Q 40.625 48.1875 47.75 41.5 
Q 54.890625 34.8125 54.890625 23.390625 
Q 54.890625 11.625 47.5625 5.09375 
Q 40.234375 -1.421875 26.90625 -1.421875 
Q 22.3125 -1.421875 17.546875 -0.640625 
Q 12.796875 0.140625 7.71875 1.703125 
L 7.71875 11.625 
Q 12.109375 9.234375 16.796875 8.0625 
Q 21.484375 6.890625 26.703125 6.890625 
Q 35.15625 6.890625 40.078125 11.328125 
Q 45.015625 15.765625 45.015625 23.390625 
Q 45.015625 31 40.078125 35.4375 
Q 35.15625 39.890625 26.703125 39.890625 
Q 22.75 39.890625 18.8125 39.015625 
Q 14.890625 38.140625 10.796875 36.28125 
z
" id="DejaVuSans-53"/>
    </defs>
    <g transform="translate(200.664375 28.56)scale(0.12 -0.12)">
     <use xlink:href="#DejaVuSans-116"/>
     <use x="39.208984" xlink:href="#DejaVuSans-32"/>
     <use x="70.996094" xlink:href="#DejaVuSans-61"/>
     <use x="154.785156" xlink:href="#DejaVuSans-32"/>
     <use x="186.572266" xlink:href="#DejaVuSans-49"/>
     <use x="250.195312" xlink:href="#DejaVuSans-46"/>
     <use x="281.982422" xlink:href="#DejaVuSans-53"/>
    </g>
   </g>
  </g>
 </g>
 <defs>
  <clipPath id="pd84007cf8d">
   <rect height="217.44" width="334.8" x="54" y="34.56"/>
  </clipPath>
 </defs>
</svg>
