<?xml version="1.0" encoding="utf-8" standalone="no"?>
<!DOCTYPE svg PUBLIC "-//W3C//DTD SVG 1.1//EN"
  "http://www.w3.org/Graphics/SVG/1.1/DTD/svg11.dtd">
<!-- Created with matplotlib (https://matplotlib.org/) -->
<svg height="288pt" version="1.1" viewBox="0 0 432 288" width="432pt" xmlns="http://www.w3.org/2000/svg" xmlns:xlink="http://www.w3.org/1999/xlink">
 <defs>
  <style type="text/css">
*{stroke-linecap:butt;stroke-linejoin:round;}
  </style>
 </defs>
 <g id="figure_1">
  <g id="patch_1">
   <path d="M 0 288 
L 432 288 
L 432 0 
L 0 0 
z
" style="fill:#ffffff;"/>
  </g>
  <g id="axes_1">
   <g id="patch_2">
    <path clip-path="url(#p2bbe3c5544)" d="M 194.707317 132.421531 
L 194.712543 143.29353 
L 193.625343 143.294052 
L 193.620117 132.422054 
z
" style="stroke:#000000;stroke-linejoin:miter;"/>
   </g>
   <g id="patch_3">
    <path clip-path="url(#p2bbe3c5544)" d="M 249.067311 132.3954 
L 249.072537 143.267399 
L 247.985337 143.267922 
L 247.980111 132.395923 
z
" style="stroke:#000000;stroke-linejoin:miter;"/>
   </g>
   <g id="patch_4">
    <path clip-path="url(#p2bbe3c5544)" d="M 212.283715 132.413082 
L 212.134685 131.861607 
L 211.690585 131.346351 
L 210.95872 130.901027 
L 209.951117 130.554781 
L 208.684328 130.330285 
L 207.179161 130.242253 
L 205.460332 130.296479 
L 203.556063 130.489456 
L 201.497617 130.808606 
L 199.318786 131.233103 
L 197.055338 131.735231 
L 194.744425 132.282199 
L 192.42398 132.838284 
L 190.132092 133.367167 
L 187.906381 133.834308 
L 185.783382 134.209203 
L 183.797946 134.467381 
L 181.982667 134.592 
L 180.36735 134.574952 
L 178.978518 134.417391 
L 177.83898 134.129654 
L 176.967454 133.73059 
L 176.37826 133.246322 
L 176.081083 132.708541 
L 176.080815 132.152429 
L 176.377475 131.614361 
L 176.966204 131.129527 
L 177.837346 130.729626 
L 178.976607 130.440794 
L 180.365286 130.281897 
L 181.980586 130.263296 
L 183.795984 130.38617 
L 185.781667 130.642439 
L 187.905026 131.015293 
L 190.131185 131.480294 
L 192.42358 132.006973 
L 194.744559 132.560827 
L 197.055996 133.105573 
L 199.319927 133.605525 
L 201.499164 134.027927 
L 203.557916 134.345098 
L 205.46237 134.536245 
L 207.181251 134.588818 
L 208.686332 134.499339 
L 209.952904 134.273625 
L 210.960174 133.926411 
L 211.691611 133.480383 
L 212.135215 132.9647 
z
" style="fill:#0000ff;stroke:#000000;stroke-linejoin:miter;"/>
   </g>
   <g id="patch_5">
    <path clip-path="url(#p2bbe3c5544)" d="M 266.643709 132.386951 
L 266.494679 131.835477 
L 266.050579 131.32022 
L 265.318714 130.874896 
L 264.31111 130.52865 
L 263.044322 130.304154 
L 261.539155 130.216122 
L 259.820326 130.270348 
L 257.916057 130.463325 
L 255.857611 130.782476 
L 253.67878 131.206972 
L 251.415331 131.7091 
L 249.104419 132.256068 
L 246.783974 132.812153 
L 244.492086 133.341037 
L 242.266375 133.808178 
L 240.143375 134.183073 
L 238.157939 134.44125 
L 236.342661 134.56587 
L 234.727344 134.548822 
L 233.338512 134.39126 
L 232.198974 134.103523 
L 231.327448 133.70446 
L 230.738253 133.220192 
L 230.441076 132.68241 
L 230.440809 132.126298 
L 230.737469 131.588231 
L 231.326198 131.103397 
L 232.19734 130.703495 
L 233.336601 130.414663 
L 234.72528 130.255766 
L 236.34058 130.237165 
L 238.155977 130.360039 
L 240.141661 130.616308 
L 242.265019 130.989162 
L 244.491179 131.454163 
L 246.783574 131.980843 
L 249.104553 132.534697 
L 251.41599 133.079443 
L 253.679921 133.579394 
L 255.859158 134.001796 
L 257.91791 134.318968 
L 259.822364 134.510114 
L 261.541244 134.562687 
L 263.046326 134.473208 
L 264.312898 134.247495 
L 265.320168 133.90028 
L 266.051605 133.454252 
L 266.495209 132.938569 
z
" style="fill:#0000ff;stroke:#000000;stroke-linejoin:miter;"/>
   </g>
   <g id="patch_6">
    <path clip-path="url(#p2bbe3c5544)" d="M 253.96363 140.547048 
L 188.731638 140.578404 
L 188.734251 146.014404 
L 253.966243 145.983047 
z
" style="fill:#999999;stroke:#000000;stroke-linejoin:miter;"/>
   </g>
   <g id="text_1">
    <!-- t = 3.3 -->
    <defs>
     <path d="M 18.3125 70.21875 
L 18.3125 54.6875 
L 36.8125 54.6875 
L 36.8125 47.703125 
L 18.3125 47.703125 
L 18.3125 18.015625 
Q 18.3125 11.328125 20.140625 9.421875 
Q 21.96875 7.515625 27.59375 7.515625 
L 36.8125 7.515625 
L 36.8125 0 
L 27.59375 0 
Q 17.1875 0 13.234375 3.875 
Q 9.28125 7.765625 9.28125 18.015625 
L 9.28125 47.703125 
L 2.6875 47.703125 
L 2.6875 54.6875 
L 9.28125 54.6875 
L 9.28125 70.21875 
z
" id="DejaVuSans-116"/>
     <path id="DejaVuSans-32"/>
     <path d="M 10.59375 45.40625 
L 73.1875 45.40625 
L 73.1875 37.203125 
L 10.59375 37.203125 
z
M 10.59375 25.484375 
L 73.1875 25.484375 
L 73.1875 17.1875 
L 10.59375 17.1875 
z
" id="DejaVuSans-61"/>
     <path d="M 40.578125 39.3125 
Q 47.65625 37.796875 51.625 33 
Q 55.609375 28.21875 55.609375 21.1875 
Q 55.609375 10.40625 48.1875 4.484375 
Q 40.765625 -1.421875 27.09375 -1.421875 
Q 22.515625 -1.421875 17.65625 -0.515625 
Q 12.796875 0.390625 7.625 2.203125 
L 7.625 11.71875 
Q 11.71875 9.328125 16.59375 8.109375 
Q 21.484375 6.890625 26.8125 6.890625 
Q 36.078125 6.890625 40.9375 10.546875 
Q 45.796875 14.203125 45.796875 21.1875 
Q 45.796875 27.640625 41.28125 31.265625 
Q 36.765625 34.90625 28.71875 34.90625 
L 20.21875 34.90625 
L 20.21875 43.015625 
L 29.109375 43.015625 
Q 36.375 43.015625 40.234375 45.921875 
Q 44.09375 48.828125 44.09375 54.296875 
Q 44.09375 59.90625 40.109375 62.90625 
Q 36.140625 65.921875 28.71875 65.921875 
Q 24.65625 65.921875 20.015625 65.03125 
Q 15.375 64.15625 9.8125 62.3125 
L 9.8125 71.09375 
Q 15.4375 72.65625 20.34375 73.4375 
Q 25.25 74.21875 29.59375 74.21875 
Q 40.828125 74.21875 47.359375 69.109375 
Q 53.90625 64.015625 53.90625 55.328125 
Q 53.90625 49.265625 50.4375 45.09375 
Q 46.96875 40.921875 40.578125 39.3125 
z
" id="DejaVuSans-51"/>
     <path d="M 10.6875 12.40625 
L 21 12.40625 
L 21 0 
L 10.6875 0 
z
" id="DejaVuSans-46"/>
    </defs>
    <g transform="translate(200.664375 28.56)scale(0.12 -0.12)">
     <use xlink:href="#DejaVuSans-116"/>
     <use x="39.208984" xlink:href="#DejaVuSans-32"/>
     <use x="70.996094" xlink:href="#DejaVuSans-61"/>
     <use x="154.785156" xlink:href="#DejaVuSans-32"/>
     <use x="186.572266" xlink:href="#DejaVuSans-51"/>
     <use x="250.195312" xlink:href="#DejaVuSans-46"/>
     <use x="281.982422" xlink:href="#DejaVuSans-51"/>
    </g>
   </g>
  </g>
 </g>
 <defs>
  <clipPath id="p2bbe3c5544">
   <rect height="217.44" width="334.8" x="54" y="34.56"/>
  </clipPath>
 </defs>
</svg>
