<?xml version="1.0" encoding="utf-8" standalone="no"?>
<!DOCTYPE svg PUBLIC "-//W3C//DTD SVG 1.1//EN"
  "http://www.w3.org/Graphics/SVG/1.1/DTD/svg11.dtd">
<!-- Created with matplotlib (https://matplotlib.org/) -->
<svg height="288pt" version="1.1" viewBox="0 0 432 288" width="432pt" xmlns="http://www.w3.org/2000/svg" xmlns:xlink="http://www.w3.org/1999/xlink">
 <defs>
  <style type="text/css">
*{stroke-linecap:butt;stroke-linejoin:round;}
  </style>
 </defs>
 <g id="figure_1">
  <g id="patch_1">
   <path d="M 0 288 
L 432 288 
L 432 0 
L 0 0 
z
" style="fill:#ffffff;"/>
  </g>
  <g id="axes_1">
   <g id="patch_2">
    <path clip-path="url(#pb91420b699)" d="M 198.715079 130.340874 
L 198.324766 141.205865 
L 197.238267 141.166834 
L 197.628579 130.301842 
z
" style="stroke:#000000;stroke-linejoin:miter;"/>
   </g>
   <g id="patch_3">
    <path clip-path="url(#pb91420b699)" d="M 253.040036 132.292437 
L 252.649723 143.157428 
L 251.563224 143.118397 
L 251.953537 132.253406 
z
" style="stroke:#000000;stroke-linejoin:miter;"/>
   </g>
   <g id="patch_4">
    <path clip-path="url(#pb91420b699)" d="M 216.280148 130.971879 
L 216.15128 130.415347 
L 215.72622 129.884275 
L 215.01104 129.41262 
L 214.016701 129.029945 
L 212.758919 128.759511 
L 211.257951 128.616777 
L 209.538287 128.608434 
L 207.628257 128.732004 
L 205.559563 128.976055 
L 203.366731 129.321003 
L 201.086513 129.740451 
L 198.757231 130.202984 
L 196.418091 130.67428 
L 194.108479 131.119432 
L 191.867246 131.50529 
L 189.732013 131.8027 
L 187.738499 131.988474 
L 185.919888 132.046969 
L 184.306261 131.971166 
L 182.924081 131.763181 
L 181.795765 131.434177 
L 180.939335 131.00367 
L 180.368148 130.498288 
L 180.090733 129.95005 
L 180.110698 129.394297 
L 180.426737 128.867378 
L 181.032715 128.404284 
L 181.917829 128.03634 
L 183.066843 127.789147 
L 184.460384 127.680877 
L 186.075292 127.721055 
L 187.885017 127.909894 
L 189.860063 128.238234 
L 191.968451 128.688091 
L 194.176219 129.233775 
L 196.447936 129.843506 
L 198.747228 130.481433 
L 201.037317 131.109911 
L 203.281559 131.691896 
L 205.443987 132.193301 
L 207.489837 132.585162 
L 209.386076 132.845468 
L 211.101906 132.960541 
L 212.609247 132.925878 
L 213.883191 132.746393 
L 214.902427 132.436054 
L 215.649606 132.016932 
L 216.111678 131.517729 
z
" style="fill:#0000ff;stroke:#000000;stroke-linejoin:miter;"/>
   </g>
   <g id="patch_5">
    <path clip-path="url(#pb91420b699)" d="M 270.605106 132.923442 
L 270.476237 132.36691 
L 270.051177 131.835838 
L 269.335998 131.364183 
L 268.341658 130.981509 
L 267.083876 130.711074 
L 265.582908 130.568341 
L 263.863244 130.559998 
L 261.953215 130.683568 
L 259.88452 130.927618 
L 257.691689 131.272566 
L 255.41147 131.692015 
L 253.082188 132.154547 
L 250.743048 132.625844 
L 248.433436 133.070995 
L 246.192203 133.456853 
L 244.056971 133.754263 
L 242.063456 133.940037 
L 240.244845 133.998532 
L 238.631218 133.922729 
L 237.249038 133.714744 
L 236.120723 133.38574 
L 235.264292 132.955234 
L 234.693106 132.449851 
L 234.41569 131.901613 
L 234.435655 131.34586 
L 234.751694 130.818942 
L 235.357672 130.355847 
L 236.242786 129.987903 
L 237.391801 129.74071 
L 238.785342 129.63244 
L 240.400249 129.672618 
L 242.209975 129.861457 
L 244.18502 130.189797 
L 246.293408 130.639655 
L 248.501176 131.185338 
L 250.772893 131.795069 
L 253.072185 132.432996 
L 255.362274 133.061474 
L 257.606517 133.643459 
L 259.768944 134.144864 
L 261.814794 134.536725 
L 263.711033 134.797031 
L 265.426863 134.912104 
L 266.934204 134.877441 
L 268.208149 134.697956 
L 269.227384 134.387617 
L 269.974564 133.968495 
L 270.436636 133.469292 
z
" style="fill:#0000ff;stroke:#000000;stroke-linejoin:miter;"/>
   </g>
   <g id="patch_6">
    <path clip-path="url(#pb91420b699)" d="M 257.636548 140.616821 
L 192.446599 138.274945 
L 192.251442 143.707441 
L 257.441391 146.049317 
z
" style="fill:#999999;stroke:#000000;stroke-linejoin:miter;"/>
   </g>
   <g id="text_1">
    <!-- t = 1.2 -->
    <defs>
     <path d="M 18.3125 70.21875 
L 18.3125 54.6875 
L 36.8125 54.6875 
L 36.8125 47.703125 
L 18.3125 47.703125 
L 18.3125 18.015625 
Q 18.3125 11.328125 20.140625 9.421875 
Q 21.96875 7.515625 27.59375 7.515625 
L 36.8125 7.515625 
L 36.8125 0 
L 27.59375 0 
Q 17.1875 0 13.234375 3.875 
Q 9.28125 7.765625 9.28125 18.015625 
L 9.28125 47.703125 
L 2.6875 47.703125 
L 2.6875 54.6875 
L 9.28125 54.6875 
L 9.28125 70.21875 
z
" id="DejaVuSans-116"/>
     <path id="DejaVuSans-32"/>
     <path d="M 10.59375 45.40625 
L 73.1875 45.40625 
L 73.1875 37.203125 
L 10.59375 37.203125 
z
M 10.59375 25.484375 
L 73.1875 25.484375 
L 73.1875 17.1875 
L 10.59375 17.1875 
z
" id="DejaVuSans-61"/>
     <path d="M 12.40625 8.296875 
L 28.515625 8.296875 
L 28.515625 63.921875 
L 10.984375 60.40625 
L 10.984375 69.390625 
L 28.421875 72.90625 
L 38.28125 72.90625 
L 38.28125 8.296875 
L 54.390625 8.296875 
L 54.390625 0 
L 12.40625 0 
z
" id="DejaVuSans-49"/>
     <path d="M 10.6875 12.40625 
L 21 12.40625 
L 21 0 
L 10.6875 0 
z
" id="DejaVuSans-46"/>
     <path d="M 19.1875 8.296875 
L 53.609375 8.296875 
L 53.609375 0 
L 7.328125 0 
L 7.328125 8.296875 
Q 12.9375 14.109375 22.625 23.890625 
Q 32.328125 33.6875 34.8125 36.53125 
Q 39.546875 41.84375 41.421875 45.53125 
Q 43.3125 49.21875 43.3125 52.78125 
Q 43.3125 58.59375 39.234375 62.25 
Q 35.15625 65.921875 28.609375 65.921875 
Q 23.96875 65.921875 18.8125 64.3125 
Q 13.671875 62.703125 7.8125 59.421875 
L 7.8125 69.390625 
Q 13.765625 71.78125 18.9375 73 
Q 24.125 74.21875 28.421875 74.21875 
Q 39.75 74.21875 46.484375 68.546875 
Q 53.21875 62.890625 53.21875 53.421875 
Q 53.21875 48.921875 51.53125 44.890625 
Q 49.859375 40.875 45.40625 35.40625 
Q 44.1875 33.984375 37.640625 27.21875 
Q 31.109375 20.453125 19.1875 8.296875 
z
" id="DejaVuSans-50"/>
    </defs>
    <g transform="translate(200.664375 28.56)scale(0.12 -0.12)">
     <use xlink:href="#DejaVuSans-116"/>
     <use x="39.208984" xlink:href="#DejaVuSans-32"/>
     <use x="70.996094" xlink:href="#DejaVuSans-61"/>
     <use x="154.785156" xlink:href="#DejaVuSans-32"/>
     <use x="186.572266" xlink:href="#DejaVuSans-49"/>
     <use x="250.195312" xlink:href="#DejaVuSans-46"/>
     <use x="281.982422" xlink:href="#DejaVuSans-50"/>
    </g>
   </g>
  </g>
 </g>
 <defs>
  <clipPath id="pb91420b699">
   <rect height="217.44" width="334.8" x="54" y="34.56"/>
  </clipPath>
 </defs>
</svg>
