<?xml version="1.0" encoding="utf-8" standalone="no"?>
<!DOCTYPE svg PUBLIC "-//W3C//DTD SVG 1.1//EN"
  "http://www.w3.org/Graphics/SVG/1.1/DTD/svg11.dtd">
<!-- Created with matplotlib (https://matplotlib.org/) -->
<svg height="288pt" version="1.1" viewBox="0 0 432 288" width="432pt" xmlns="http://www.w3.org/2000/svg" xmlns:xlink="http://www.w3.org/1999/xlink">
 <defs>
  <style type="text/css">
*{stroke-linecap:butt;stroke-linejoin:round;}
  </style>
 </defs>
 <g id="figure_1">
  <g id="patch_1">
   <path d="M 0 288 
L 432 288 
L 432 0 
L 0 0 
z
" style="fill:#ffffff;"/>
  </g>
  <g id="axes_1">
   <g id="patch_2">
    <path clip-path="url(#p3e59d86382)" d="M 194.807317 132.392213 
L 194.797598 143.264209 
L 193.710399 143.263237 
L 193.720117 132.391241 
z
" style="stroke:#000000;stroke-linejoin:miter;"/>
   </g>
   <g id="patch_3">
    <path clip-path="url(#p3e59d86382)" d="M 249.167295 132.440807 
L 249.157577 143.312803 
L 248.070377 143.311831 
L 248.080096 132.439835 
z
" style="stroke:#000000;stroke-linejoin:miter;"/>
   </g>
   <g id="patch_4">
    <path clip-path="url(#p3e59d86382)" d="M 212.38371 132.407925 
L 212.235438 131.856246 
L 211.792047 131.34038 
L 211.060794 130.89405 
L 210.053668 130.546419 
L 208.78719 130.320182 
L 207.282145 130.230081 
L 205.563243 130.281944 
L 203.65871 130.472303 
L 201.599827 130.788624 
L 199.420415 131.210125 
L 197.156279 131.709141 
L 194.844616 132.252932 
L 192.523409 132.805827 
L 190.230796 133.331559 
L 188.004445 133.79564 
L 185.880933 134.167617 
L 183.895143 134.423065 
L 182.079695 134.545189 
L 180.464403 134.525921 
L 179.075789 134.36645 
L 177.936648 134.077147 
L 177.065671 133.676886 
L 176.477143 133.191808 
L 176.180705 132.653619 
L 176.181203 132.097507 
L 176.478602 131.559848 
L 177.067997 131.075824 
L 177.939688 130.67712 
L 179.079344 130.389854 
L 180.468241 130.232866 
L 182.083565 130.216486 
L 183.898792 130.341855 
L 185.884121 130.600853 
L 188.006965 130.976626 
L 190.232483 131.444686 
L 192.524152 131.974517 
L 194.844367 132.531561 
L 197.155054 133.079484 
L 199.418295 133.582547 
L 201.59695 134.007944 
L 203.655264 134.327945 
L 205.559453 134.521709 
L 207.27826 134.576645 
L 208.783463 134.489235 
L 210.050344 134.265263 
L 211.05809 133.919433 
L 211.790139 133.474411 
L 212.234452 132.959339 
z
" style="fill:#0000ff;stroke:#000000;stroke-linejoin:miter;"/>
   </g>
   <g id="patch_5">
    <path clip-path="url(#p3e59d86382)" d="M 266.743688 132.456519 
L 266.595416 131.90484 
L 266.152025 131.388974 
L 265.420773 130.942644 
L 264.413646 130.595013 
L 263.147168 130.368776 
L 261.642123 130.278675 
L 259.923221 130.330538 
L 258.018688 130.520897 
L 255.959806 130.837218 
L 253.780394 131.258719 
L 251.516257 131.757735 
L 249.204594 132.301526 
L 246.883387 132.854421 
L 244.590774 133.380153 
L 242.364423 133.844234 
L 240.240911 134.216211 
L 238.255122 134.471659 
L 236.439674 134.593783 
L 234.824381 134.574515 
L 233.435768 134.415044 
L 232.296627 134.125741 
L 231.42565 133.725479 
L 230.837121 133.240402 
L 230.540684 132.702213 
L 230.541181 132.146101 
L 230.83858 131.608442 
L 231.427975 131.124417 
L 232.299666 130.725714 
L 233.439323 130.438448 
L 234.828219 130.28146 
L 236.443543 130.26508 
L 238.25877 130.390449 
L 240.244099 130.649447 
L 242.366943 131.02522 
L 244.592461 131.49328 
L 246.884131 132.023111 
L 249.204345 132.580155 
L 251.515032 133.128077 
L 253.778273 133.631141 
L 255.956928 134.056538 
L 258.015242 134.376539 
L 259.919431 134.570303 
L 261.638238 134.625239 
L 263.143441 134.537829 
L 264.410322 134.313856 
L 265.418068 133.968027 
L 266.150118 133.523005 
L 266.59443 133.007933 
z
" style="fill:#0000ff;stroke:#000000;stroke-linejoin:miter;"/>
   </g>
   <g id="patch_6">
    <path clip-path="url(#p3e59d86382)" d="M 254.052404 140.599177 
L 188.82043 140.540865 
L 188.815571 145.976862 
L 254.047545 146.035175 
z
" style="fill:#999999;stroke:#000000;stroke-linejoin:miter;"/>
   </g>
   <g id="text_1">
    <!-- t = 3.1 -->
    <defs>
     <path d="M 18.3125 70.21875 
L 18.3125 54.6875 
L 36.8125 54.6875 
L 36.8125 47.703125 
L 18.3125 47.703125 
L 18.3125 18.015625 
Q 18.3125 11.328125 20.140625 9.421875 
Q 21.96875 7.515625 27.59375 7.515625 
L 36.8125 7.515625 
L 36.8125 0 
L 27.59375 0 
Q 17.1875 0 13.234375 3.875 
Q 9.28125 7.765625 9.28125 18.015625 
L 9.28125 47.703125 
L 2.6875 47.703125 
L 2.6875 54.6875 
L 9.28125 54.6875 
L 9.28125 70.21875 
z
" id="DejaVuSans-116"/>
     <path id="DejaVuSans-32"/>
     <path d="M 10.59375 45.40625 
L 73.1875 45.40625 
L 73.1875 37.203125 
L 10.59375 37.203125 
z
M 10.59375 25.484375 
L 73.1875 25.484375 
L 73.1875 17.1875 
L 10.59375 17.1875 
z
" id="DejaVuSans-61"/>
     <path d="M 40.578125 39.3125 
Q 47.65625 37.796875 51.625 33 
Q 55.609375 28.21875 55.609375 21.1875 
Q 55.609375 10.40625 48.1875 4.484375 
Q 40.765625 -1.421875 27.09375 -1.421875 
Q 22.515625 -1.421875 17.65625 -0.515625 
Q 12.796875 0.390625 7.625 2.203125 
L 7.625 11.71875 
Q 11.71875 9.328125 16.59375 8.109375 
Q 21.484375 6.890625 26.8125 6.890625 
Q 36.078125 6.890625 40.9375 10.546875 
Q 45.796875 14.203125 45.796875 21.1875 
Q 45.796875 27.640625 41.28125 31.265625 
Q 36.765625 34.90625 28.71875 34.90625 
L 20.21875 34.90625 
L 20.21875 43.015625 
L 29.109375 43.015625 
Q 36.375 43.015625 40.234375 45.921875 
Q 44.09375 48.828125 44.09375 54.296875 
Q 44.09375 59.90625 40.109375 62.90625 
Q 36.140625 65.921875 28.71875 65.921875 
Q 24.65625 65.921875 20.015625 65.03125 
Q 15.375 64.15625 9.8125 62.3125 
L 9.8125 71.09375 
Q 15.4375 72.65625 20.34375 73.4375 
Q 25.25 74.21875 29.59375 74.21875 
Q 40.828125 74.21875 47.359375 69.109375 
Q 53.90625 64.015625 53.90625 55.328125 
Q 53.90625 49.265625 50.4375 45.09375 
Q 46.96875 40.921875 40.578125 39.3125 
z
" id="DejaVuSans-51"/>
     <path d="M 10.6875 12.40625 
L 21 12.40625 
L 21 0 
L 10.6875 0 
z
" id="DejaVuSans-46"/>
     <path d="M 12.40625 8.296875 
L 28.515625 8.296875 
L 28.515625 63.921875 
L 10.984375 60.40625 
L 10.984375 69.390625 
L 28.421875 72.90625 
L 38.28125 72.90625 
L 38.28125 8.296875 
L 54.390625 8.296875 
L 54.390625 0 
L 12.40625 0 
z
" id="DejaVuSans-49"/>
    </defs>
    <g transform="translate(200.664375 28.56)scale(0.12 -0.12)">
     <use xlink:href="#DejaVuSans-116"/>
     <use x="39.208984" xlink:href="#DejaVuSans-32"/>
     <use x="70.996094" xlink:href="#DejaVuSans-61"/>
     <use x="154.785156" xlink:href="#DejaVuSans-32"/>
     <use x="186.572266" xlink:href="#DejaVuSans-51"/>
     <use x="250.195312" xlink:href="#DejaVuSans-46"/>
     <use x="281.982422" xlink:href="#DejaVuSans-49"/>
    </g>
   </g>
  </g>
 </g>
 <defs>
  <clipPath id="p3e59d86382">
   <rect height="217.44" width="334.8" x="54" y="34.56"/>
  </clipPath>
 </defs>
</svg>
