<?xml version="1.0" encoding="utf-8" standalone="no"?>
<!DOCTYPE svg PUBLIC "-//W3C//DTD SVG 1.1//EN"
  "http://www.w3.org/Graphics/SVG/1.1/DTD/svg11.dtd">
<!-- Created with matplotlib (https://matplotlib.org/) -->
<svg height="288pt" version="1.1" viewBox="0 0 432 288" width="432pt" xmlns="http://www.w3.org/2000/svg" xmlns:xlink="http://www.w3.org/1999/xlink">
 <defs>
  <style type="text/css">
*{stroke-linecap:butt;stroke-linejoin:round;}
  </style>
 </defs>
 <g id="figure_1">
  <g id="patch_1">
   <path d="M 0 288 
L 432 288 
L 432 0 
L 0 0 
z
" style="fill:#ffffff;"/>
  </g>
  <g id="axes_1">
   <g id="patch_2">
    <path clip-path="url(#p3b275e30bc)" d="M 194.765733 132.407997 
L 194.765982 143.279997 
L 193.678782 143.280022 
L 193.678533 132.408022 
z
" style="stroke:#000000;stroke-linejoin:miter;"/>
   </g>
   <g id="patch_3">
    <path clip-path="url(#p3b275e30bc)" d="M 249.125733 132.406752 
L 249.125982 143.278752 
L 248.038782 143.278777 
L 248.038533 132.406777 
z
" style="stroke:#000000;stroke-linejoin:miter;"/>
   </g>
   <g id="patch_4">
    <path clip-path="url(#p3b275e30bc)" d="M 212.342133 132.407595 
L 212.193356 131.856052 
L 211.749492 131.340592 
L 211.01783 130.894933 
L 210.010386 130.548226 
L 208.7437 130.32315 
L 207.238574 130.234429 
L 205.51972 130.287868 
L 203.615362 130.479973 
L 201.556771 130.798181 
L 199.377746 131.221681 
L 197.114068 131.722772 
L 194.802905 132.268682 
L 192.482206 132.823705 
L 190.190076 133.351539 
L 187.964151 133.817661 
L 185.84098 134.191584 
L 183.855426 134.448853 
L 182.040091 134.572641 
L 180.424782 134.554854 
L 179.036022 134.396657 
L 177.896616 134.108398 
L 177.025273 133.708935 
L 176.4363 133.224398 
L 176.139369 132.68648 
L 176.139356 132.130368 
L 176.436263 131.592437 
L 177.025213 131.107872 
L 177.896538 130.70837 
L 179.035931 130.420059 
L 180.424683 130.261798 
L 182.039992 130.243937 
L 183.855333 130.367642 
L 185.840899 130.624819 
L 187.964086 130.998645 
L 190.190032 131.464665 
L 192.482187 131.992394 
L 194.802911 132.547311 
L 197.114099 133.093115 
L 199.3778 133.594103 
L 201.556844 134.017502 
L 203.615451 134.335616 
L 205.519817 134.527634 
L 207.238673 134.580994 
L 208.743796 134.492204 
L 210.010471 134.267071 
L 211.0179 133.920317 
L 211.749541 133.474624 
L 212.193381 132.959145 
z
" style="fill:#0000ff;stroke:#000000;stroke-linejoin:miter;"/>
   </g>
   <g id="patch_5">
    <path clip-path="url(#p3b275e30bc)" d="M 266.702133 132.406349 
L 266.553356 131.854806 
L 266.109492 131.339346 
L 265.37783 130.893687 
L 264.370386 130.54698 
L 263.1037 130.321904 
L 261.598574 130.233183 
L 259.87972 130.286622 
L 257.975362 130.478727 
L 255.916771 130.796936 
L 253.737746 131.220435 
L 251.474068 131.721527 
L 249.162905 132.267437 
L 246.842206 132.822459 
L 244.550076 133.350293 
L 242.324151 133.816415 
L 240.20098 134.190339 
L 238.215426 134.447608 
L 236.400091 134.571396 
L 234.784782 134.553608 
L 233.396022 134.395411 
L 232.256616 134.107153 
L 231.385273 133.70769 
L 230.7963 133.223152 
L 230.499369 132.685235 
L 230.499356 132.129122 
L 230.796263 131.591191 
L 231.385213 131.106627 
L 232.256538 130.707124 
L 233.395931 130.418813 
L 234.784683 130.260552 
L 236.399992 130.242691 
L 238.215333 130.366396 
L 240.200899 130.623574 
L 242.324086 130.9974 
L 244.550032 131.46342 
L 246.842187 131.991149 
L 249.162911 132.546065 
L 251.474099 133.091869 
L 253.7378 133.592857 
L 255.916844 134.016257 
L 257.975451 134.334371 
L 259.879817 134.526389 
L 261.598673 134.579749 
L 263.103796 134.490959 
L 264.370471 134.265825 
L 265.3779 133.919071 
L 266.109541 133.473379 
L 266.553381 132.957899 
z
" style="fill:#0000ff;stroke:#000000;stroke-linejoin:miter;"/>
   </g>
   <g id="patch_6">
    <path clip-path="url(#p3b275e30bc)" d="M 254.01832 140.56064 
L 188.78632 140.562134 
L 188.786445 145.998134 
L 254.018445 145.99664 
z
" style="fill:#999999;stroke:#000000;stroke-linejoin:miter;"/>
   </g>
   <g id="text_1">
    <!-- t = 3.4 -->
    <defs>
     <path d="M 18.3125 70.21875 
L 18.3125 54.6875 
L 36.8125 54.6875 
L 36.8125 47.703125 
L 18.3125 47.703125 
L 18.3125 18.015625 
Q 18.3125 11.328125 20.140625 9.421875 
Q 21.96875 7.515625 27.59375 7.515625 
L 36.8125 7.515625 
L 36.8125 0 
L 27.59375 0 
Q 17.1875 0 13.234375 3.875 
Q 9.28125 7.765625 9.28125 18.015625 
L 9.28125 47.703125 
L 2.6875 47.703125 
L 2.6875 54.6875 
L 9.28125 54.6875 
L 9.28125 70.21875 
z
" id="DejaVuSans-116"/>
     <path id="DejaVuSans-32"/>
     <path d="M 10.59375 45.40625 
L 73.1875 45.40625 
L 73.1875 37.203125 
L 10.59375 37.203125 
z
M 10.59375 25.484375 
L 73.1875 25.484375 
L 73.1875 17.1875 
L 10.59375 17.1875 
z
" id="DejaVuSans-61"/>
     <path d="M 40.578125 39.3125 
Q 47.65625 37.796875 51.625 33 
Q 55.609375 28.21875 55.609375 21.1875 
Q 55.609375 10.40625 48.1875 4.484375 
Q 40.765625 -1.421875 27.09375 -1.421875 
Q 22.515625 -1.421875 17.65625 -0.515625 
Q 12.796875 0.390625 7.625 2.203125 
L 7.625 11.71875 
Q 11.71875 9.328125 16.59375 8.109375 
Q 21.484375 6.890625 26.8125 6.890625 
Q 36.078125 6.890625 40.9375 10.546875 
Q 45.796875 14.203125 45.796875 21.1875 
Q 45.796875 27.640625 41.28125 31.265625 
Q 36.765625 34.90625 28.71875 34.90625 
L 20.21875 34.90625 
L 20.21875 43.015625 
L 29.109375 43.015625 
Q 36.375 43.015625 40.234375 45.921875 
Q 44.09375 48.828125 44.09375 54.296875 
Q 44.09375 59.90625 40.109375 62.90625 
Q 36.140625 65.921875 28.71875 65.921875 
Q 24.65625 65.921875 20.015625 65.03125 
Q 15.375 64.15625 9.8125 62.3125 
L 9.8125 71.09375 
Q 15.4375 72.65625 20.34375 73.4375 
Q 25.25 74.21875 29.59375 74.21875 
Q 40.828125 74.21875 47.359375 69.109375 
Q 53.90625 64.015625 53.90625 55.328125 
Q 53.90625 49.265625 50.4375 45.09375 
Q 46.96875 40.921875 40.578125 39.3125 
z
" id="DejaVuSans-51"/>
     <path d="M 10.6875 12.40625 
L 21 12.40625 
L 21 0 
L 10.6875 0 
z
" id="DejaVuSans-46"/>
     <path d="M 37.796875 64.3125 
L 12.890625 25.390625 
L 37.796875 25.390625 
z
M 35.203125 72.90625 
L 47.609375 72.90625 
L 47.609375 25.390625 
L 58.015625 25.390625 
L 58.015625 17.1875 
L 47.609375 17.1875 
L 47.609375 0 
L 37.796875 0 
L 37.796875 17.1875 
L 4.890625 17.1875 
L 4.890625 26.703125 
z
" id="DejaVuSans-52"/>
    </defs>
    <g transform="translate(200.664375 28.56)scale(0.12 -0.12)">
     <use xlink:href="#DejaVuSans-116"/>
     <use x="39.208984" xlink:href="#DejaVuSans-32"/>
     <use x="70.996094" xlink:href="#DejaVuSans-61"/>
     <use x="154.785156" xlink:href="#DejaVuSans-32"/>
     <use x="186.572266" xlink:href="#DejaVuSans-51"/>
     <use x="250.195312" xlink:href="#DejaVuSans-46"/>
     <use x="281.982422" xlink:href="#DejaVuSans-52"/>
    </g>
   </g>
  </g>
 </g>
 <defs>
  <clipPath id="p3b275e30bc">
   <rect height="217.44" width="334.8" x="54" y="34.56"/>
  </clipPath>
 </defs>
</svg>
