<?xml version="1.0" encoding="utf-8" standalone="no"?>
<!DOCTYPE svg PUBLIC "-//W3C//DTD SVG 1.1//EN"
  "http://www.w3.org/Graphics/SVG/1.1/DTD/svg11.dtd">
<!-- Created with matplotlib (https://matplotlib.org/) -->
<svg height="288pt" version="1.1" viewBox="0 0 432 288" width="432pt" xmlns="http://www.w3.org/2000/svg" xmlns:xlink="http://www.w3.org/1999/xlink">
 <defs>
  <style type="text/css">
*{stroke-linecap:butt;stroke-linejoin:round;}
  </style>
 </defs>
 <g id="figure_1">
  <g id="patch_1">
   <path d="M 0 288 
L 432 288 
L 432 0 
L 0 0 
z
" style="fill:#ffffff;"/>
  </g>
  <g id="axes_1">
   <g id="patch_2">
    <path clip-path="url(#p1eb24f564b)" d="M 254.882614 226.98738 
L 258.309281 237.305245 
L 257.277494 237.647911 
L 253.850828 227.330046 
z
" style="stroke:#000000;stroke-linejoin:miter;"/>
   </g>
   <g id="patch_3">
    <path clip-path="url(#p1eb24f564b)" d="M 306.47194 209.854046 
L 309.898606 220.171912 
L 308.86682 220.514578 
L 305.440153 210.196713 
z
" style="stroke:#000000;stroke-linejoin:miter;"/>
   </g>
   <g id="patch_4">
    <path clip-path="url(#p1eb24f564b)" d="M 271.563163 221.447602 
L 271.248142 220.971055 
L 270.664446 220.621753 
L 269.829617 220.429397 
L 268.764245 220.417865 
L 267.491177 220.60347 
L 266.034793 220.993627 
L 264.420377 221.586058 
L 262.673613 222.368553 
L 260.820217 223.319333 
L 258.88571 224.407993 
L 256.895317 225.596971 
L 254.873985 226.843449 
L 252.846474 228.101581 
L 250.837508 229.324905 
L 248.871924 230.468798 
L 246.9748 231.492806 
L 245.171514 232.362733 
L 243.487704 233.052335 
L 241.949109 233.544537 
L 240.581265 233.832084 
L 239.409078 233.917612 
L 238.456244 233.81312 
L 237.744579 233.538897 
L 237.29325 233.121974 
L 237.117973 232.594206 
L 237.230213 231.990115 
L 237.636434 231.344631 
L 238.337447 230.69088 
L 239.32791 230.05817 
L 240.596011 229.470294 
L 242.123371 228.94426 
L 243.885187 228.489537 
L 245.850617 228.107835 
L 247.983418 227.793464 
L 250.242798 227.534204 
L 252.584459 227.312641 
L 254.961804 227.107876 
L 257.327226 226.897469 
L 259.633456 226.659495 
L 261.834891 226.374568 
L 263.888845 226.027678 
L 265.756678 225.609728 
L 267.404755 225.118653 
L 268.805191 224.560032 
L 269.93636 223.947165 
L 270.783166 223.30058 
L 271.337056 222.647016 
L 271.595818 222.017925 
z
" style="fill:#0000ff;stroke:#000000;stroke-linejoin:miter;"/>
   </g>
   <g id="patch_5">
    <path clip-path="url(#p1eb24f564b)" d="M 323.152488 204.314269 
L 322.837468 203.837722 
L 322.253771 203.48842 
L 321.418942 203.296064 
L 320.35357 203.284532 
L 319.080502 203.470137 
L 317.624118 203.860294 
L 316.009702 204.452725 
L 314.262938 205.23522 
L 312.409543 206.185999 
L 310.475035 207.27466 
L 308.484643 208.463638 
L 306.46331 209.710116 
L 304.435799 210.968248 
L 302.426833 212.191572 
L 300.461249 213.335465 
L 298.564125 214.359473 
L 296.760839 215.2294 
L 295.07703 215.919002 
L 293.538434 216.411204 
L 292.170591 216.698751 
L 290.998403 216.784279 
L 290.04557 216.679787 
L 289.333905 216.405564 
L 288.882575 215.988641 
L 288.707298 215.460873 
L 288.819539 214.856782 
L 289.225759 214.211298 
L 289.926773 213.557547 
L 290.917236 212.924837 
L 292.185337 212.336961 
L 293.712697 211.810927 
L 295.474512 211.356203 
L 297.439942 210.974502 
L 299.572744 210.660131 
L 301.832123 210.400871 
L 304.173785 210.179308 
L 306.551129 209.974543 
L 308.916551 209.764136 
L 311.222782 209.526162 
L 313.424217 209.241235 
L 315.47817 208.894345 
L 317.346003 208.476395 
L 318.99408 207.98532 
L 320.394516 207.426699 
L 321.525686 206.813831 
L 322.372491 206.167247 
L 322.926381 205.513683 
L 323.185144 204.884592 
z
" style="fill:#0000ff;stroke:#000000;stroke-linejoin:miter;"/>
   </g>
   <g id="patch_6">
    <path clip-path="url(#p1eb24f564b)" d="M 313.684979 216.050445 
L 251.777788 236.610445 
L 253.491122 241.769378 
L 315.398312 221.209378 
z
" style="fill:#999999;stroke:#000000;stroke-linejoin:miter;"/>
   </g>
   <g id="text_1">
    <!-- t = 0.3 -->
    <defs>
     <path d="M 18.3125 70.21875 
L 18.3125 54.6875 
L 36.8125 54.6875 
L 36.8125 47.703125 
L 18.3125 47.703125 
L 18.3125 18.015625 
Q 18.3125 11.328125 20.140625 9.421875 
Q 21.96875 7.515625 27.59375 7.515625 
L 36.8125 7.515625 
L 36.8125 0 
L 27.59375 0 
Q 17.1875 0 13.234375 3.875 
Q 9.28125 7.765625 9.28125 18.015625 
L 9.28125 47.703125 
L 2.6875 47.703125 
L 2.6875 54.6875 
L 9.28125 54.6875 
L 9.28125 70.21875 
z
" id="DejaVuSans-116"/>
     <path id="DejaVuSans-32"/>
     <path d="M 10.59375 45.40625 
L 73.1875 45.40625 
L 73.1875 37.203125 
L 10.59375 37.203125 
z
M 10.59375 25.484375 
L 73.1875 25.484375 
L 73.1875 17.1875 
L 10.59375 17.1875 
z
" id="DejaVuSans-61"/>
     <path d="M 31.78125 66.40625 
Q 24.171875 66.40625 20.328125 58.90625 
Q 16.5 51.421875 16.5 36.375 
Q 16.5 21.390625 20.328125 13.890625 
Q 24.171875 6.390625 31.78125 6.390625 
Q 39.453125 6.390625 43.28125 13.890625 
Q 47.125 21.390625 47.125 36.375 
Q 47.125 51.421875 43.28125 58.90625 
Q 39.453125 66.40625 31.78125 66.40625 
z
M 31.78125 74.21875 
Q 44.046875 74.21875 50.515625 64.515625 
Q 56.984375 54.828125 56.984375 36.375 
Q 56.984375 17.96875 50.515625 8.265625 
Q 44.046875 -1.421875 31.78125 -1.421875 
Q 19.53125 -1.421875 13.0625 8.265625 
Q 6.59375 17.96875 6.59375 36.375 
Q 6.59375 54.828125 13.0625 64.515625 
Q 19.53125 74.21875 31.78125 74.21875 
z
" id="DejaVuSans-48"/>
     <path d="M 10.6875 12.40625 
L 21 12.40625 
L 21 0 
L 10.6875 0 
z
" id="DejaVuSans-46"/>
     <path d="M 40.578125 39.3125 
Q 47.65625 37.796875 51.625 33 
Q 55.609375 28.21875 55.609375 21.1875 
Q 55.609375 10.40625 48.1875 4.484375 
Q 40.765625 -1.421875 27.09375 -1.421875 
Q 22.515625 -1.421875 17.65625 -0.515625 
Q 12.796875 0.390625 7.625 2.203125 
L 7.625 11.71875 
Q 11.71875 9.328125 16.59375 8.109375 
Q 21.484375 6.890625 26.8125 6.890625 
Q 36.078125 6.890625 40.9375 10.546875 
Q 45.796875 14.203125 45.796875 21.1875 
Q 45.796875 27.640625 41.28125 31.265625 
Q 36.765625 34.90625 28.71875 34.90625 
L 20.21875 34.90625 
L 20.21875 43.015625 
L 29.109375 43.015625 
Q 36.375 43.015625 40.234375 45.921875 
Q 44.09375 48.828125 44.09375 54.296875 
Q 44.09375 59.90625 40.109375 62.90625 
Q 36.140625 65.921875 28.71875 65.921875 
Q 24.65625 65.921875 20.015625 65.03125 
Q 15.375 64.15625 9.8125 62.3125 
L 9.8125 71.09375 
Q 15.4375 72.65625 20.34375 73.4375 
Q 25.25 74.21875 29.59375 74.21875 
Q 40.828125 74.21875 47.359375 69.109375 
Q 53.90625 64.015625 53.90625 55.328125 
Q 53.90625 49.265625 50.4375 45.09375 
Q 46.96875 40.921875 40.578125 39.3125 
z
" id="DejaVuSans-51"/>
    </defs>
    <g transform="translate(200.664375 28.56)scale(0.12 -0.12)">
     <use xlink:href="#DejaVuSans-116"/>
     <use x="39.208984" xlink:href="#DejaVuSans-32"/>
     <use x="70.996094" xlink:href="#DejaVuSans-61"/>
     <use x="154.785156" xlink:href="#DejaVuSans-32"/>
     <use x="186.572266" xlink:href="#DejaVuSans-48"/>
     <use x="250.195312" xlink:href="#DejaVuSans-46"/>
     <use x="281.982422" xlink:href="#DejaVuSans-51"/>
    </g>
   </g>
  </g>
 </g>
 <defs>
  <clipPath id="p1eb24f564b">
   <rect height="217.44" width="334.8" x="54" y="34.56"/>
  </clipPath>
 </defs>
</svg>
