<?xml version="1.0" encoding="utf-8" standalone="no"?>
<!DOCTYPE svg PUBLIC "-//W3C//DTD SVG 1.1//EN"
  "http://www.w3.org/Graphics/SVG/1.1/DTD/svg11.dtd">
<!-- Created with matplotlib (https://matplotlib.org/) -->
<svg height="288pt" version="1.1" viewBox="0 0 432 288" width="432pt" xmlns="http://www.w3.org/2000/svg" xmlns:xlink="http://www.w3.org/1999/xlink">
 <defs>
  <style type="text/css">
*{stroke-linecap:butt;stroke-linejoin:round;}
  </style>
 </defs>
 <g id="figure_1">
  <g id="patch_1">
   <path d="M 0 288 
L 432 288 
L 432 0 
L 0 0 
z
" style="fill:#ffffff;"/>
  </g>
  <g id="axes_1">
   <g id="patch_2">
    <path clip-path="url(#p02e82a8832)" d="M 194.74507 132.409064 
L 194.745009 143.281064 
L 193.657809 143.281058 
L 193.65787 132.409058 
z
" style="stroke:#000000;stroke-linejoin:miter;"/>
   </g>
   <g id="patch_3">
    <path clip-path="url(#p02e82a8832)" d="M 249.10507 132.40937 
L 249.105009 143.28137 
L 248.017809 143.281364 
L 248.01787 132.409364 
z
" style="stroke:#000000;stroke-linejoin:miter;"/>
   </g>
   <g id="patch_4">
    <path clip-path="url(#p02e82a8832)" d="M 212.32147 132.409163 
L 212.172708 131.857615 
L 211.728859 131.342143 
L 210.99721 130.896463 
L 209.989776 130.549727 
L 208.723097 130.324615 
L 207.217973 130.235851 
L 205.499117 130.289241 
L 203.594754 130.481292 
L 201.536154 130.799441 
L 199.357117 131.222879 
L 197.093424 131.723906 
L 194.782246 132.26975 
L 192.461531 132.824706 
L 190.169386 133.352475 
L 187.943448 133.818533 
L 185.820266 134.192396 
L 183.834705 134.449608 
L 182.019366 134.573344 
L 180.404057 134.555511 
L 179.015303 134.397274 
L 177.875905 134.108983 
L 177.004573 133.709495 
L 176.415614 133.224941 
L 176.118698 132.687015 
L 176.118701 132.130903 
L 176.415623 131.59298 
L 177.004587 131.108432 
L 177.875924 130.708954 
L 179.015325 130.420676 
L 180.404082 130.262455 
L 182.01939 130.24464 
L 183.834728 130.368397 
L 185.820287 130.625631 
L 187.943463 130.999518 
L 190.169396 131.465601 
L 192.461535 131.993395 
L 194.782244 132.548378 
L 197.093417 133.094248 
L 199.357103 133.595301 
L 201.536135 134.018762 
L 203.594733 134.336935 
L 205.499094 134.529007 
L 207.217948 134.582417 
L 208.723073 134.49367 
L 209.989755 134.268572 
L 210.997193 133.921847 
L 211.728847 133.476176 
L 212.172702 132.960708 
z
" style="fill:#0000ff;stroke:#000000;stroke-linejoin:miter;"/>
   </g>
   <g id="patch_5">
    <path clip-path="url(#p02e82a8832)" d="M 266.68147 132.409469 
L 266.532708 131.857921 
L 266.088859 131.342449 
L 265.35721 130.896769 
L 264.349776 130.550033 
L 263.083097 130.324921 
L 261.577973 130.236157 
L 259.859117 130.289547 
L 257.954754 130.481598 
L 255.896154 130.799747 
L 253.717117 131.223185 
L 251.453424 131.724212 
L 249.142246 132.270056 
L 246.821531 132.825012 
L 244.529386 133.352781 
L 242.303448 133.818839 
L 240.180266 134.192702 
L 238.194705 134.449914 
L 236.379366 134.57365 
L 234.764057 134.555817 
L 233.375303 134.39758 
L 232.235905 134.109289 
L 231.364573 133.709801 
L 230.775614 133.225247 
L 230.478698 132.687321 
L 230.478701 132.131209 
L 230.775623 131.593286 
L 231.364587 131.108738 
L 232.235924 130.70926 
L 233.375325 130.420982 
L 234.764082 130.262761 
L 236.37939 130.244946 
L 238.194728 130.368703 
L 240.180287 130.625937 
L 242.303463 130.999824 
L 244.529396 131.465907 
L 246.821535 131.993702 
L 249.142244 132.548684 
L 251.453417 133.094554 
L 253.717103 133.595607 
L 255.896135 134.019068 
L 257.954733 134.337241 
L 259.859094 134.529314 
L 261.577948 134.582723 
L 263.083073 134.493976 
L 264.349755 134.268878 
L 265.357193 133.922153 
L 266.088847 133.476482 
L 266.532702 132.961014 
z
" style="fill:#0000ff;stroke:#000000;stroke-linejoin:miter;"/>
   </g>
   <g id="patch_6">
    <path clip-path="url(#p02e82a8832)" d="M 253.997424 140.563397 
L 188.765424 140.56303 
L 188.765394 145.99903 
L 253.997394 145.999397 
z
" style="fill:#999999;stroke:#000000;stroke-linejoin:miter;"/>
   </g>
   <g id="text_1">
    <!-- t = 3.6 -->
    <defs>
     <path d="M 18.3125 70.21875 
L 18.3125 54.6875 
L 36.8125 54.6875 
L 36.8125 47.703125 
L 18.3125 47.703125 
L 18.3125 18.015625 
Q 18.3125 11.328125 20.140625 9.421875 
Q 21.96875 7.515625 27.59375 7.515625 
L 36.8125 7.515625 
L 36.8125 0 
L 27.59375 0 
Q 17.1875 0 13.234375 3.875 
Q 9.28125 7.765625 9.28125 18.015625 
L 9.28125 47.703125 
L 2.6875 47.703125 
L 2.6875 54.6875 
L 9.28125 54.6875 
L 9.28125 70.21875 
z
" id="DejaVuSans-116"/>
     <path id="DejaVuSans-32"/>
     <path d="M 10.59375 45.40625 
L 73.1875 45.40625 
L 73.1875 37.203125 
L 10.59375 37.203125 
z
M 10.59375 25.484375 
L 73.1875 25.484375 
L 73.1875 17.1875 
L 10.59375 17.1875 
z
" id="DejaVuSans-61"/>
     <path d="M 40.578125 39.3125 
Q 47.65625 37.796875 51.625 33 
Q 55.609375 28.21875 55.609375 21.1875 
Q 55.609375 10.40625 48.1875 4.484375 
Q 40.765625 -1.421875 27.09375 -1.421875 
Q 22.515625 -1.421875 17.65625 -0.515625 
Q 12.796875 0.390625 7.625 2.203125 
L 7.625 11.71875 
Q 11.71875 9.328125 16.59375 8.109375 
Q 21.484375 6.890625 26.8125 6.890625 
Q 36.078125 6.890625 40.9375 10.546875 
Q 45.796875 14.203125 45.796875 21.1875 
Q 45.796875 27.640625 41.28125 31.265625 
Q 36.765625 34.90625 28.71875 34.90625 
L 20.21875 34.90625 
L 20.21875 43.015625 
L 29.109375 43.015625 
Q 36.375 43.015625 40.234375 45.921875 
Q 44.09375 48.828125 44.09375 54.296875 
Q 44.09375 59.90625 40.109375 62.90625 
Q 36.140625 65.921875 28.71875 65.921875 
Q 24.65625 65.921875 20.015625 65.03125 
Q 15.375 64.15625 9.8125 62.3125 
L 9.8125 71.09375 
Q 15.4375 72.65625 20.34375 73.4375 
Q 25.25 74.21875 29.59375 74.21875 
Q 40.828125 74.21875 47.359375 69.109375 
Q 53.90625 64.015625 53.90625 55.328125 
Q 53.90625 49.265625 50.4375 45.09375 
Q 46.96875 40.921875 40.578125 39.3125 
z
" id="DejaVuSans-51"/>
     <path d="M 10.6875 12.40625 
L 21 12.40625 
L 21 0 
L 10.6875 0 
z
" id="DejaVuSans-46"/>
     <path d="M 33.015625 40.375 
Q 26.375 40.375 22.484375 35.828125 
Q 18.609375 31.296875 18.609375 23.390625 
Q 18.609375 15.53125 22.484375 10.953125 
Q 26.375 6.390625 33.015625 6.390625 
Q 39.65625 6.390625 43.53125 10.953125 
Q 47.40625 15.53125 47.40625 23.390625 
Q 47.40625 31.296875 43.53125 35.828125 
Q 39.65625 40.375 33.015625 40.375 
z
M 52.59375 71.296875 
L 52.59375 62.3125 
Q 48.875 64.0625 45.09375 64.984375 
Q 41.3125 65.921875 37.59375 65.921875 
Q 27.828125 65.921875 22.671875 59.328125 
Q 17.53125 52.734375 16.796875 39.40625 
Q 19.671875 43.65625 24.015625 45.921875 
Q 28.375 48.1875 33.59375 48.1875 
Q 44.578125 48.1875 50.953125 41.515625 
Q 57.328125 34.859375 57.328125 23.390625 
Q 57.328125 12.15625 50.6875 5.359375 
Q 44.046875 -1.421875 33.015625 -1.421875 
Q 20.359375 -1.421875 13.671875 8.265625 
Q 6.984375 17.96875 6.984375 36.375 
Q 6.984375 53.65625 15.1875 63.9375 
Q 23.390625 74.21875 37.203125 74.21875 
Q 40.921875 74.21875 44.703125 73.484375 
Q 48.484375 72.75 52.59375 71.296875 
z
" id="DejaVuSans-54"/>
    </defs>
    <g transform="translate(200.664375 28.56)scale(0.12 -0.12)">
     <use xlink:href="#DejaVuSans-116"/>
     <use x="39.208984" xlink:href="#DejaVuSans-32"/>
     <use x="70.996094" xlink:href="#DejaVuSans-61"/>
     <use x="154.785156" xlink:href="#DejaVuSans-32"/>
     <use x="186.572266" xlink:href="#DejaVuSans-51"/>
     <use x="250.195312" xlink:href="#DejaVuSans-46"/>
     <use x="281.982422" xlink:href="#DejaVuSans-54"/>
    </g>
   </g>
  </g>
 </g>
 <defs>
  <clipPath id="p02e82a8832">
   <rect height="217.44" width="334.8" x="54" y="34.56"/>
  </clipPath>
 </defs>
</svg>
