<?xml version="1.0" encoding="utf-8" standalone="no"?>
<!DOCTYPE svg PUBLIC "-//W3C//DTD SVG 1.1//EN"
  "http://www.w3.org/Graphics/SVG/1.1/DTD/svg11.dtd">
<!-- Created with matplotlib (https://matplotlib.org/) -->
<svg height="288pt" version="1.1" viewBox="0 0 432 288" width="432pt" xmlns="http://www.w3.org/2000/svg" xmlns:xlink="http://www.w3.org/1999/xlink">
 <defs>
  <style type="text/css">
*{stroke-linecap:butt;stroke-linejoin:round;}
  </style>
 </defs>
 <g id="figure_1">
  <g id="patch_1">
   <path d="M 0 288 
L 432 288 
L 432 0 
L 0 0 
z
" style="fill:#ffffff;"/>
  </g>
  <g id="axes_1">
   <g id="patch_2">
    <path clip-path="url(#pf95a2fef93)" d="M 144.094472 196.359768 
L 147.843575 206.564895 
L 146.823062 206.939805 
L 143.07396 196.734678 
z
" style="stroke:#000000;stroke-linejoin:miter;"/>
   </g>
   <g id="patch_3">
    <path clip-path="url(#pf95a2fef93)" d="M 195.120107 177.614256 
L 198.869209 187.819383 
L 197.848697 188.194293 
L 194.099594 177.989166 
z
" style="stroke:#000000;stroke-linejoin:miter;"/>
   </g>
   <g id="patch_4">
    <path clip-path="url(#pf95a2fef93)" d="M 160.592761 190.298719 
L 160.262926 189.832304 
L 159.668544 189.50151 
L 158.828084 189.335474 
L 157.762876 189.357416 
L 156.496267 189.582921 
L 155.052858 190.018637 
L 153.45785 190.661492 
L 151.736529 191.498473 
L 149.913916 192.507006 
L 148.014563 193.6559 
L 146.062504 194.906818 
L 144.081326 196.216179 
L 142.094339 197.537383 
L 140.124794 198.823213 
L 138.196114 200.028288 
L 136.332095 201.111387 
L 134.557027 202.037534 
L 132.895712 202.779692 
L 131.373337 203.319984 
L 130.015202 203.650359 
L 128.84628 203.772668 
L 127.890634 203.69816 
L 127.170706 203.446428 
L 126.706502 203.043889 
L 126.514732 202.521888 
L 126.60794 201.914569 
L 126.993683 201.256642 
L 127.673813 200.581192 
L 128.643912 199.91768 
L 129.892919 199.290258 
L 131.403001 198.716503 
L 133.149661 198.206658 
L 135.102131 197.763403 
L 137.224004 197.382187 
L 139.474124 197.052078 
L 141.80767 196.757063 
L 144.177408 196.477717 
L 146.535053 196.193106 
L 148.83267 195.882802 
L 151.024067 195.528859 
L 153.06611 195.117616 
L 154.919891 194.641197 
L 156.551729 194.098591 
L 157.933924 193.496252 
L 159.045283 192.848153 
L 159.871358 192.175286 
L 160.404444 191.504644 
L 160.643317 190.867734 
z
" style="fill:#0000ff;stroke:#000000;stroke-linejoin:miter;"/>
   </g>
   <g id="patch_5">
    <path clip-path="url(#pf95a2fef93)" d="M 211.618396 171.553207 
L 211.28856 171.086792 
L 210.694179 170.755998 
L 209.853719 170.589962 
L 208.788511 170.611905 
L 207.521902 170.837409 
L 206.078493 171.273126 
L 204.483484 171.91598 
L 202.762164 172.752961 
L 200.939551 173.761495 
L 199.040198 174.910389 
L 197.088138 176.161307 
L 195.10696 177.470668 
L 193.119973 178.791871 
L 191.150428 180.077702 
L 189.221749 181.282777 
L 187.357729 182.365876 
L 185.582662 183.292022 
L 183.921347 184.03418 
L 182.398972 184.574472 
L 181.040837 184.904847 
L 179.871915 185.027156 
L 178.916269 184.952648 
L 178.196341 184.700917 
L 177.732137 184.298377 
L 177.540367 183.776376 
L 177.633575 183.169058 
L 178.019318 182.511131 
L 178.699448 181.835681 
L 179.669546 181.172168 
L 180.918554 180.544746 
L 182.428635 179.970992 
L 184.175296 179.461146 
L 186.127766 179.017891 
L 188.249639 178.636675 
L 190.499759 178.306566 
L 192.833304 178.011552 
L 195.203043 177.732206 
L 197.560687 177.447594 
L 199.858304 177.13729 
L 202.049702 176.783347 
L 204.091744 176.372105 
L 205.945526 175.895685 
L 207.577363 175.353079 
L 208.959559 174.75074 
L 210.070918 174.102641 
L 210.896993 173.429774 
L 211.430079 172.759132 
L 211.668951 172.122223 
z
" style="fill:#0000ff;stroke:#000000;stroke-linejoin:miter;"/>
   </g>
   <g id="patch_6">
    <path clip-path="url(#pf95a2fef93)" d="M 202.524241 183.581005 
L 141.293479 206.075619 
L 143.168031 211.178183 
L 204.398792 188.683569 
z
" style="fill:#999999;stroke:#000000;stroke-linejoin:miter;"/>
   </g>
   <g id="text_1">
    <!-- t = 0.4 -->
    <defs>
     <path d="M 18.3125 70.21875 
L 18.3125 54.6875 
L 36.8125 54.6875 
L 36.8125 47.703125 
L 18.3125 47.703125 
L 18.3125 18.015625 
Q 18.3125 11.328125 20.140625 9.421875 
Q 21.96875 7.515625 27.59375 7.515625 
L 36.8125 7.515625 
L 36.8125 0 
L 27.59375 0 
Q 17.1875 0 13.234375 3.875 
Q 9.28125 7.765625 9.28125 18.015625 
L 9.28125 47.703125 
L 2.6875 47.703125 
L 2.6875 54.6875 
L 9.28125 54.6875 
L 9.28125 70.21875 
z
" id="DejaVuSans-116"/>
     <path id="DejaVuSans-32"/>
     <path d="M 10.59375 45.40625 
L 73.1875 45.40625 
L 73.1875 37.203125 
L 10.59375 37.203125 
z
M 10.59375 25.484375 
L 73.1875 25.484375 
L 73.1875 17.1875 
L 10.59375 17.1875 
z
" id="DejaVuSans-61"/>
     <path d="M 31.78125 66.40625 
Q 24.171875 66.40625 20.328125 58.90625 
Q 16.5 51.421875 16.5 36.375 
Q 16.5 21.390625 20.328125 13.890625 
Q 24.171875 6.390625 31.78125 6.390625 
Q 39.453125 6.390625 43.28125 13.890625 
Q 47.125 21.390625 47.125 36.375 
Q 47.125 51.421875 43.28125 58.90625 
Q 39.453125 66.40625 31.78125 66.40625 
z
M 31.78125 74.21875 
Q 44.046875 74.21875 50.515625 64.515625 
Q 56.984375 54.828125 56.984375 36.375 
Q 56.984375 17.96875 50.515625 8.265625 
Q 44.046875 -1.421875 31.78125 -1.421875 
Q 19.53125 -1.421875 13.0625 8.265625 
Q 6.59375 17.96875 6.59375 36.375 
Q 6.59375 54.828125 13.0625 64.515625 
Q 19.53125 74.21875 31.78125 74.21875 
z
" id="DejaVuSans-48"/>
     <path d="M 10.6875 12.40625 
L 21 12.40625 
L 21 0 
L 10.6875 0 
z
" id="DejaVuSans-46"/>
     <path d="M 37.796875 64.3125 
L 12.890625 25.390625 
L 37.796875 25.390625 
z
M 35.203125 72.90625 
L 47.609375 72.90625 
L 47.609375 25.390625 
L 58.015625 25.390625 
L 58.015625 17.1875 
L 47.609375 17.1875 
L 47.609375 0 
L 37.796875 0 
L 37.796875 17.1875 
L 4.890625 17.1875 
L 4.890625 26.703125 
z
" id="DejaVuSans-52"/>
    </defs>
    <g transform="translate(200.664375 28.56)scale(0.12 -0.12)">
     <use xlink:href="#DejaVuSans-116"/>
     <use x="39.208984" xlink:href="#DejaVuSans-32"/>
     <use x="70.996094" xlink:href="#DejaVuSans-61"/>
     <use x="154.785156" xlink:href="#DejaVuSans-32"/>
     <use x="186.572266" xlink:href="#DejaVuSans-48"/>
     <use x="250.195312" xlink:href="#DejaVuSans-46"/>
     <use x="281.982422" xlink:href="#DejaVuSans-52"/>
    </g>
   </g>
  </g>
 </g>
 <defs>
  <clipPath id="pf95a2fef93">
   <rect height="217.44" width="334.8" x="54" y="34.56"/>
  </clipPath>
 </defs>
</svg>
