<?xml version="1.0" encoding="utf-8" standalone="no"?>
<!DOCTYPE svg PUBLIC "-//W3C//DTD SVG 1.1//EN"
  "http://www.w3.org/Graphics/SVG/1.1/DTD/svg11.dtd">
<!-- Created with matplotlib (https://matplotlib.org/) -->
<svg height="288pt" version="1.1" viewBox="0 0 432 288" width="432pt" xmlns="http://www.w3.org/2000/svg" xmlns:xlink="http://www.w3.org/1999/xlink">
 <defs>
  <style type="text/css">
*{stroke-linecap:butt;stroke-linejoin:round;}
  </style>
 </defs>
 <g id="figure_1">
  <g id="patch_1">
   <path d="M 0 288 
L 432 288 
L 432 0 
L 0 0 
z
" style="fill:#ffffff;"/>
  </g>
  <g id="axes_1">
   <g id="patch_2">
    <path clip-path="url(#p453219ff7e)" d="M 264.014118 238.968948 
L 254.735248 244.634896 
L 254.168654 243.707009 
L 263.447523 238.041061 
z
" style="stroke:#000000;stroke-linejoin:miter;"/>
   </g>
   <g id="patch_3">
    <path clip-path="url(#p453219ff7e)" d="M 292.343859 285.363294 
L 283.06499 291.029242 
L 282.498395 290.101355 
L 291.777265 284.435407 
z
" style="stroke:#000000;stroke-linejoin:miter;"/>
   </g>
   <g id="patch_4">
    <path clip-path="url(#p453219ff7e)" d="M 273.174067 253.969787 
L 273.567264 253.555382 
L 273.775886 252.907933 
L 273.774954 252.05123 
L 273.54585 251.010719 
L 273.077838 249.812339 
L 272.369191 248.481513 
L 271.427834 247.04236 
L 270.271457 245.517147 
L 268.927078 243.926015 
L 267.430074 242.286967 
L 265.822731 240.616105 
L 264.152391 238.928071 
L 262.469304 237.236648 
L 260.82431 235.555439 
L 259.266487 233.898575 
L 257.840903 232.281361 
L 256.586596 230.720808 
L 255.534918 229.235971 
L 254.708312 227.848073 
L 254.119604 226.580358 
L 253.771846 225.457681 
L 253.658694 224.505837 
L 253.765304 223.750655 
L 254.069664 223.216906 
L 254.544286 222.927088 
L 255.158125 222.900157 
L 255.87861 223.150292 
L 256.673651 223.685754 
L 257.51349 224.507952 
L 258.372284 225.610745 
L 259.229315 226.980065 
L 260.069766 228.593882 
L 260.885011 230.42254 
L 261.672418 232.429444 
L 262.43469 234.572094 
L 263.178798 236.80341 
L 263.914591 239.073279 
L 264.653192 241.330259 
L 265.405295 243.523356 
L 266.179501 245.603766 
L 266.980802 247.526518 
L 267.809343 249.251917 
L 268.65955 250.746728 
L 269.519696 251.985044 
L 270.371947 252.948797 
L 271.192895 253.62791 
L 271.954564 254.020085 
L 272.625813 254.13026 
z
" style="fill:#0000ff;stroke:#000000;stroke-linejoin:miter;"/>
   </g>
   <g id="patch_5">
    <path clip-path="url(#p453219ff7e)" d="M 301.503809 300.364132 
L 301.897006 299.949728 
L 302.105627 299.302279 
L 302.104696 298.445576 
L 301.875592 297.405065 
L 301.40758 296.206685 
L 300.698933 294.875859 
L 299.757576 293.436706 
L 298.601199 291.911493 
L 297.25682 290.320361 
L 295.759816 288.681313 
L 294.152473 287.010451 
L 292.482133 285.322417 
L 290.799046 283.630994 
L 289.154052 281.949785 
L 287.596229 280.292921 
L 286.170644 278.675707 
L 284.916338 277.115154 
L 283.86466 275.630317 
L 283.038053 274.242419 
L 282.449346 272.974704 
L 282.101588 271.852027 
L 281.988436 270.900183 
L 282.095045 270.145001 
L 282.399406 269.611252 
L 282.874028 269.321433 
L 283.487867 269.294503 
L 284.208352 269.544638 
L 285.003393 270.0801 
L 285.843232 270.902298 
L 286.702026 272.005091 
L 287.559057 273.37441 
L 288.399508 274.988228 
L 289.214753 276.816886 
L 290.00216 278.823789 
L 290.764432 280.96644 
L 291.50854 283.197756 
L 292.244333 285.467625 
L 292.982934 287.724605 
L 293.735037 289.917702 
L 294.509243 291.998112 
L 295.310543 293.920864 
L 296.139085 295.646263 
L 296.989292 297.141074 
L 297.849438 298.37939 
L 298.701688 299.343143 
L 299.522637 300.022256 
L 300.284306 300.414431 
L 300.955555 300.524605 
z
" style="fill:#0000ff;stroke:#000000;stroke-linejoin:miter;"/>
   </g>
   <g id="patch_6">
    <path clip-path="url(#p453219ff7e)" d="M 287.934384 293.788246 
L 253.938694 238.115031 
L 249.29926 240.948005 
L 283.29495 296.62122 
z
" style="fill:#999999;stroke:#000000;stroke-linejoin:miter;"/>
   </g>
   <g id="text_1">
    <!-- t = 0.0 -->
    <defs>
     <path d="M 18.3125 70.21875 
L 18.3125 54.6875 
L 36.8125 54.6875 
L 36.8125 47.703125 
L 18.3125 47.703125 
L 18.3125 18.015625 
Q 18.3125 11.328125 20.140625 9.421875 
Q 21.96875 7.515625 27.59375 7.515625 
L 36.8125 7.515625 
L 36.8125 0 
L 27.59375 0 
Q 17.1875 0 13.234375 3.875 
Q 9.28125 7.765625 9.28125 18.015625 
L 9.28125 47.703125 
L 2.6875 47.703125 
L 2.6875 54.6875 
L 9.28125 54.6875 
L 9.28125 70.21875 
z
" id="DejaVuSans-116"/>
     <path id="DejaVuSans-32"/>
     <path d="M 10.59375 45.40625 
L 73.1875 45.40625 
L 73.1875 37.203125 
L 10.59375 37.203125 
z
M 10.59375 25.484375 
L 73.1875 25.484375 
L 73.1875 17.1875 
L 10.59375 17.1875 
z
" id="DejaVuSans-61"/>
     <path d="M 31.78125 66.40625 
Q 24.171875 66.40625 20.328125 58.90625 
Q 16.5 51.421875 16.5 36.375 
Q 16.5 21.390625 20.328125 13.890625 
Q 24.171875 6.390625 31.78125 6.390625 
Q 39.453125 6.390625 43.28125 13.890625 
Q 47.125 21.390625 47.125 36.375 
Q 47.125 51.421875 43.28125 58.90625 
Q 39.453125 66.40625 31.78125 66.40625 
z
M 31.78125 74.21875 
Q 44.046875 74.21875 50.515625 64.515625 
Q 56.984375 54.828125 56.984375 36.375 
Q 56.984375 17.96875 50.515625 8.265625 
Q 44.046875 -1.421875 31.78125 -1.421875 
Q 19.53125 -1.421875 13.0625 8.265625 
Q 6.59375 17.96875 6.59375 36.375 
Q 6.59375 54.828125 13.0625 64.515625 
Q 19.53125 74.21875 31.78125 74.21875 
z
" id="DejaVuSans-48"/>
     <path d="M 10.6875 12.40625 
L 21 12.40625 
L 21 0 
L 10.6875 0 
z
" id="DejaVuSans-46"/>
    </defs>
    <g transform="translate(200.664375 28.56)scale(0.12 -0.12)">
     <use xlink:href="#DejaVuSans-116"/>
     <use x="39.208984" xlink:href="#DejaVuSans-32"/>
     <use x="70.996094" xlink:href="#DejaVuSans-61"/>
     <use x="154.785156" xlink:href="#DejaVuSans-32"/>
     <use x="186.572266" xlink:href="#DejaVuSans-48"/>
     <use x="250.195312" xlink:href="#DejaVuSans-46"/>
     <use x="281.982422" xlink:href="#DejaVuSans-48"/>
    </g>
   </g>
  </g>
 </g>
 <defs>
  <clipPath id="p453219ff7e">
   <rect height="217.44" width="334.8" x="54" y="34.56"/>
  </clipPath>
 </defs>
</svg>
