<?xml version="1.0" encoding="utf-8" standalone="no"?>
<!DOCTYPE svg PUBLIC "-//W3C//DTD SVG 1.1//EN"
  "http://www.w3.org/Graphics/SVG/1.1/DTD/svg11.dtd">
<!-- Created with matplotlib (https://matplotlib.org/) -->
<svg height="288pt" version="1.1" viewBox="0 0 432 288" width="432pt" xmlns="http://www.w3.org/2000/svg" xmlns:xlink="http://www.w3.org/1999/xlink">
 <defs>
  <style type="text/css">
*{stroke-linecap:butt;stroke-linejoin:round;}
  </style>
 </defs>
 <g id="figure_1">
  <g id="patch_1">
   <path d="M 0 288 
L 432 288 
L 432 0 
L 0 0 
z
" style="fill:#ffffff;"/>
  </g>
  <g id="axes_1">
   <g id="patch_2">
    <path clip-path="url(#pb870cdeb5d)" d="M 195.645859 132.395377 
L 195.575115 143.267147 
L 194.487938 143.260073 
L 194.558682 132.388303 
z
" style="stroke:#000000;stroke-linejoin:miter;"/>
   </g>
   <g id="patch_3">
    <path clip-path="url(#pb870cdeb5d)" d="M 250.004708 132.749096 
L 249.933965 143.620866 
L 248.846788 143.613791 
L 248.917531 132.742022 
z
" style="stroke:#000000;stroke-linejoin:miter;"/>
   </g>
   <g id="patch_4">
    <path clip-path="url(#pb870cdeb5d)" d="M 213.221887 132.509746 
L 213.076714 131.957243 
L 212.636226 131.438897 
L 211.90749 130.988469 
L 210.902331 130.635191 
L 209.637142 130.401849 
L 208.132627 130.303301 
L 206.413461 130.345515 
L 204.507889 130.525181 
L 202.447264 130.82994 
L 200.26552 131.239202 
L 197.998618 131.725501 
L 195.683939 132.256308 
L 193.359666 132.796165 
L 191.064138 133.30902 
L 188.835217 133.760597 
L 186.70965 134.120649 
L 184.722458 134.364947 
L 182.906353 134.476878 
L 181.291195 134.448544 
L 179.903498 134.281281 
L 178.765998 133.985589 
L 177.897282 133.580445 
L 177.311486 133.092072 
L 177.018074 132.552226 
L 177.021692 131.996126 
L 177.322105 131.460145 
L 177.914207 130.979437 
L 178.788122 130.585632 
L 179.929373 130.304768 
L 181.319129 130.155578 
L 182.93452 130.148265 
L 184.749014 130.283822 
L 186.732859 130.553959 
L 188.85356 130.941641 
L 191.076416 131.422187 
L 193.365075 131.964872 
L 195.682126 132.534931 
L 197.989701 133.095815 
L 200.250083 133.611574 
L 202.426316 134.049193 
L 204.482801 134.380743 
L 206.385873 134.585192 
L 208.104344 134.649775 
L 209.610014 134.570815 
L 210.878132 134.353957 
L 211.887804 134.01379 
L 212.622339 133.572884 
L 213.069536 133.060313 
z
" style="fill:#0000ff;stroke:#000000;stroke-linejoin:miter;"/>
   </g>
   <g id="patch_5">
    <path clip-path="url(#pb870cdeb5d)" d="M 267.580736 132.863465 
L 267.435563 132.310962 
L 266.995075 131.792615 
L 266.266339 131.342188 
L 265.26118 130.98891 
L 263.995991 130.755567 
L 262.491476 130.65702 
L 260.77231 130.699234 
L 258.866739 130.8789 
L 256.806113 131.183659 
L 254.624369 131.59292 
L 252.357467 132.07922 
L 250.042789 132.610026 
L 247.718515 133.149884 
L 245.422987 133.662739 
L 243.194066 134.114316 
L 241.068499 134.474367 
L 239.081307 134.718665 
L 237.265202 134.830597 
L 235.650044 134.802262 
L 234.262347 134.635 
L 233.124848 134.339307 
L 232.256131 133.934163 
L 231.670335 133.44579 
L 231.376923 132.905945 
L 231.380541 132.349845 
L 231.680954 131.813864 
L 232.273056 131.333155 
L 233.146971 130.939351 
L 234.288223 130.658486 
L 235.677979 130.509297 
L 237.293369 130.501984 
L 239.107864 130.63754 
L 241.091708 130.907678 
L 243.212409 131.29536 
L 245.435265 131.775905 
L 247.723924 132.318591 
L 250.040976 132.888649 
L 252.34855 133.449533 
L 254.608932 133.965292 
L 256.785165 134.402912 
L 258.84165 134.734461 
L 260.744722 134.93891 
L 262.463193 135.003493 
L 263.968863 134.924534 
L 265.236981 134.707676 
L 266.246653 134.367508 
L 266.981189 133.926602 
L 267.428386 133.414032 
z
" style="fill:#0000ff;stroke:#000000;stroke-linejoin:miter;"/>
   </g>
   <g id="patch_6">
    <path clip-path="url(#pb870cdeb5d)" d="M 254.843947 140.934758 
L 189.613328 140.510296 
L 189.577956 145.946181 
L 254.808575 146.370643 
z
" style="fill:#999999;stroke:#000000;stroke-linejoin:miter;"/>
   </g>
   <g id="text_1">
    <!-- t = 2.2 -->
    <defs>
     <path d="M 18.3125 70.21875 
L 18.3125 54.6875 
L 36.8125 54.6875 
L 36.8125 47.703125 
L 18.3125 47.703125 
L 18.3125 18.015625 
Q 18.3125 11.328125 20.140625 9.421875 
Q 21.96875 7.515625 27.59375 7.515625 
L 36.8125 7.515625 
L 36.8125 0 
L 27.59375 0 
Q 17.1875 0 13.234375 3.875 
Q 9.28125 7.765625 9.28125 18.015625 
L 9.28125 47.703125 
L 2.6875 47.703125 
L 2.6875 54.6875 
L 9.28125 54.6875 
L 9.28125 70.21875 
z
" id="DejaVuSans-116"/>
     <path id="DejaVuSans-32"/>
     <path d="M 10.59375 45.40625 
L 73.1875 45.40625 
L 73.1875 37.203125 
L 10.59375 37.203125 
z
M 10.59375 25.484375 
L 73.1875 25.484375 
L 73.1875 17.1875 
L 10.59375 17.1875 
z
" id="DejaVuSans-61"/>
     <path d="M 19.1875 8.296875 
L 53.609375 8.296875 
L 53.609375 0 
L 7.328125 0 
L 7.328125 8.296875 
Q 12.9375 14.109375 22.625 23.890625 
Q 32.328125 33.6875 34.8125 36.53125 
Q 39.546875 41.84375 41.421875 45.53125 
Q 43.3125 49.21875 43.3125 52.78125 
Q 43.3125 58.59375 39.234375 62.25 
Q 35.15625 65.921875 28.609375 65.921875 
Q 23.96875 65.921875 18.8125 64.3125 
Q 13.671875 62.703125 7.8125 59.421875 
L 7.8125 69.390625 
Q 13.765625 71.78125 18.9375 73 
Q 24.125 74.21875 28.421875 74.21875 
Q 39.75 74.21875 46.484375 68.546875 
Q 53.21875 62.890625 53.21875 53.421875 
Q 53.21875 48.921875 51.53125 44.890625 
Q 49.859375 40.875 45.40625 35.40625 
Q 44.1875 33.984375 37.640625 27.21875 
Q 31.109375 20.453125 19.1875 8.296875 
z
" id="DejaVuSans-50"/>
     <path d="M 10.6875 12.40625 
L 21 12.40625 
L 21 0 
L 10.6875 0 
z
" id="DejaVuSans-46"/>
    </defs>
    <g transform="translate(200.664375 28.56)scale(0.12 -0.12)">
     <use xlink:href="#DejaVuSans-116"/>
     <use x="39.208984" xlink:href="#DejaVuSans-32"/>
     <use x="70.996094" xlink:href="#DejaVuSans-61"/>
     <use x="154.785156" xlink:href="#DejaVuSans-32"/>
     <use x="186.572266" xlink:href="#DejaVuSans-50"/>
     <use x="250.195312" xlink:href="#DejaVuSans-46"/>
     <use x="281.982422" xlink:href="#DejaVuSans-50"/>
    </g>
   </g>
  </g>
 </g>
 <defs>
  <clipPath id="pb870cdeb5d">
   <rect height="217.44" width="334.8" x="54" y="34.56"/>
  </clipPath>
 </defs>
</svg>
