<?xml version="1.0" encoding="utf-8" standalone="no"?>
<!DOCTYPE svg PUBLIC "-//W3C//DTD SVG 1.1//EN"
  "http://www.w3.org/Graphics/SVG/1.1/DTD/svg11.dtd">
<!-- Created with matplotlib (https://matplotlib.org/) -->
<svg height="288pt" version="1.1" viewBox="0 0 432 288" width="432pt" xmlns="http://www.w3.org/2000/svg" xmlns:xlink="http://www.w3.org/1999/xlink">
 <defs>
  <style type="text/css">
*{stroke-linecap:butt;stroke-linejoin:round;}
  </style>
 </defs>
 <g id="figure_1">
  <g id="patch_1">
   <path d="M 0 288 
L 432 288 
L 432 0 
L 0 0 
z
" style="fill:#ffffff;"/>
  </g>
  <g id="axes_1">
   <g id="patch_2">
    <path clip-path="url(#p3e4e31645a)" d="M 194.393687 131.271776 
L 194.313931 142.143483 
L 193.22676 142.135508 
L 193.306517 131.2638 
z
" style="stroke:#000000;stroke-linejoin:miter;"/>
   </g>
   <g id="patch_3">
    <path clip-path="url(#p3e4e31645a)" d="M 248.752225 131.67056 
L 248.672468 142.542267 
L 247.585297 142.534292 
L 247.665054 131.662584 
z
" style="stroke:#000000;stroke-linejoin:miter;"/>
   </g>
   <g id="patch_4">
    <path clip-path="url(#p3e4e31645a)" d="M 211.969614 131.400716 
L 211.8249 130.848093 
L 211.384841 130.329381 
L 210.656479 129.87835 
L 209.651613 129.524238 
L 208.386618 129.289847 
L 206.882185 129.190052 
L 205.162985 129.230841 
L 203.257265 129.408927 
L 201.196387 129.711978 
L 199.014305 130.11943 
L 196.747001 130.60385 
L 194.431883 131.132738 
L 192.107162 131.670668 
L 189.81121 132.18162 
L 187.581915 132.631349 
L 185.456051 132.989638 
L 183.468657 133.232288 
L 181.65246 133.342714 
L 180.037326 133.313041 
L 178.649768 133.144628 
L 177.512514 132.847993 
L 176.644134 132.442128 
L 176.058743 131.95327 
L 175.765778 131.413182 
L 175.769858 130.857084 
L 176.070715 130.321353 
L 176.663215 129.841135 
L 177.537457 129.448055 
L 178.67894 129.168137 
L 180.068819 129.0201 
L 181.684215 129.014126 
L 183.498597 129.151187 
L 185.482217 129.422969 
L 187.602596 129.812409 
L 189.825052 130.294797 
L 192.113261 130.83938 
L 194.429839 131.411359 
L 196.736948 131.974156 
L 198.996901 132.491789 
L 201.17277 132.931212 
L 203.22898 133.264467 
L 205.131882 133.470493 
L 206.850299 133.536501 
L 208.356034 133.45879 
L 209.624331 133.242983 
L 210.634285 132.903653 
L 211.369186 132.463356 
L 211.816807 131.951156 
z
" style="fill:#0000ff;stroke:#000000;stroke-linejoin:miter;"/>
   </g>
   <g id="patch_5">
    <path clip-path="url(#p3e4e31645a)" d="M 266.328152 131.7995 
L 266.183437 131.246877 
L 265.743378 130.728165 
L 265.015016 130.277134 
L 264.01015 129.923022 
L 262.745155 129.688631 
L 261.240722 129.588836 
L 259.521522 129.629625 
L 257.615802 129.807711 
L 255.554924 130.110762 
L 253.372842 130.518215 
L 251.105538 131.002634 
L 248.79042 131.531522 
L 246.4657 132.069452 
L 244.169747 132.580404 
L 241.940453 133.030133 
L 239.814588 133.388422 
L 237.827194 133.631072 
L 236.010997 133.741498 
L 234.395863 133.711825 
L 233.008305 133.543412 
L 231.871051 133.246777 
L 231.002671 132.840912 
L 230.41728 132.352054 
L 230.124315 131.811966 
L 230.128395 131.255868 
L 230.429252 130.720137 
L 231.021752 130.239919 
L 231.895994 129.846839 
L 233.037478 129.566921 
L 234.427357 129.418884 
L 236.042753 129.41291 
L 237.857134 129.549971 
L 239.840754 129.821753 
L 241.961133 130.211193 
L 244.183589 130.693581 
L 246.471798 131.238164 
L 248.788376 131.810143 
L 251.095485 132.37294 
L 253.355438 132.890573 
L 255.531308 133.329996 
L 257.587517 133.663251 
L 259.490419 133.869277 
L 261.208836 133.935285 
L 262.714571 133.857574 
L 263.982869 133.641767 
L 264.992822 133.302437 
L 265.727723 132.86214 
L 266.175345 132.34994 
z
" style="fill:#0000ff;stroke:#000000;stroke-linejoin:miter;"/>
   </g>
   <g id="patch_6">
    <path clip-path="url(#p3e4e31645a)" d="M 253.584675 139.860231 
L 188.354431 139.38169 
L 188.314552 144.817544 
L 253.544797 145.296085 
z
" style="fill:#999999;stroke:#000000;stroke-linejoin:miter;"/>
   </g>
   <g id="text_1">
    <!-- t = 1.4 -->
    <defs>
     <path d="M 18.3125 70.21875 
L 18.3125 54.6875 
L 36.8125 54.6875 
L 36.8125 47.703125 
L 18.3125 47.703125 
L 18.3125 18.015625 
Q 18.3125 11.328125 20.140625 9.421875 
Q 21.96875 7.515625 27.59375 7.515625 
L 36.8125 7.515625 
L 36.8125 0 
L 27.59375 0 
Q 17.1875 0 13.234375 3.875 
Q 9.28125 7.765625 9.28125 18.015625 
L 9.28125 47.703125 
L 2.6875 47.703125 
L 2.6875 54.6875 
L 9.28125 54.6875 
L 9.28125 70.21875 
z
" id="DejaVuSans-116"/>
     <path id="DejaVuSans-32"/>
     <path d="M 10.59375 45.40625 
L 73.1875 45.40625 
L 73.1875 37.203125 
L 10.59375 37.203125 
z
M 10.59375 25.484375 
L 73.1875 25.484375 
L 73.1875 17.1875 
L 10.59375 17.1875 
z
" id="DejaVuSans-61"/>
     <path d="M 12.40625 8.296875 
L 28.515625 8.296875 
L 28.515625 63.921875 
L 10.984375 60.40625 
L 10.984375 69.390625 
L 28.421875 72.90625 
L 38.28125 72.90625 
L 38.28125 8.296875 
L 54.390625 8.296875 
L 54.390625 0 
L 12.40625 0 
z
" id="DejaVuSans-49"/>
     <path d="M 10.6875 12.40625 
L 21 12.40625 
L 21 0 
L 10.6875 0 
z
" id="DejaVuSans-46"/>
     <path d="M 37.796875 64.3125 
L 12.890625 25.390625 
L 37.796875 25.390625 
z
M 35.203125 72.90625 
L 47.609375 72.90625 
L 47.609375 25.390625 
L 58.015625 25.390625 
L 58.015625 17.1875 
L 47.609375 17.1875 
L 47.609375 0 
L 37.796875 0 
L 37.796875 17.1875 
L 4.890625 17.1875 
L 4.890625 26.703125 
z
" id="DejaVuSans-52"/>
    </defs>
    <g transform="translate(200.664375 28.56)scale(0.12 -0.12)">
     <use xlink:href="#DejaVuSans-116"/>
     <use x="39.208984" xlink:href="#DejaVuSans-32"/>
     <use x="70.996094" xlink:href="#DejaVuSans-61"/>
     <use x="154.785156" xlink:href="#DejaVuSans-32"/>
     <use x="186.572266" xlink:href="#DejaVuSans-49"/>
     <use x="250.195312" xlink:href="#DejaVuSans-46"/>
     <use x="281.982422" xlink:href="#DejaVuSans-52"/>
    </g>
   </g>
  </g>
 </g>
 <defs>
  <clipPath id="p3e4e31645a">
   <rect height="217.44" width="334.8" x="54" y="34.56"/>
  </clipPath>
 </defs>
</svg>
