<?xml version="1.0" encoding="utf-8" standalone="no"?>
<!DOCTYPE svg PUBLIC "-//W3C//DTD SVG 1.1//EN"
  "http://www.w3.org/Graphics/SVG/1.1/DTD/svg11.dtd">
<!-- Created with matplotlib (https://matplotlib.org/) -->
<svg height="288pt" version="1.1" viewBox="0 0 432 288" width="432pt" xmlns="http://www.w3.org/2000/svg" xmlns:xlink="http://www.w3.org/1999/xlink">
 <defs>
  <style type="text/css">
*{stroke-linecap:butt;stroke-linejoin:round;}
  </style>
 </defs>
 <g id="figure_1">
  <g id="patch_1">
   <path d="M 0 288 
L 432 288 
L 432 0 
L 0 0 
z
" style="fill:#ffffff;"/>
  </g>
  <g id="axes_1">
   <g id="patch_2">
    <path clip-path="url(#p09711afe36)" d="M 194.680294 132.407546 
L 194.682356 143.279546 
L 193.595156 143.279752 
L 193.593094 132.407753 
z
" style="stroke:#000000;stroke-linejoin:miter;"/>
   </g>
   <g id="patch_3">
    <path clip-path="url(#p09711afe36)" d="M 249.040293 132.397234 
L 249.042355 143.269234 
L 247.955155 143.26944 
L 247.953093 132.397441 
z
" style="stroke:#000000;stroke-linejoin:miter;"/>
   </g>
   <g id="patch_4">
    <path clip-path="url(#p09711afe36)" d="M 212.256694 132.404212 
L 212.107824 131.852694 
L 211.663874 131.337308 
L 210.932138 130.891771 
L 209.924636 130.545232 
L 208.657913 130.320367 
L 207.152772 130.231897 
L 205.433927 130.285623 
L 203.529601 130.478046 
L 201.471063 130.796598 
L 199.292109 131.22046 
L 197.028514 131.72193 
L 194.717442 132.268225 
L 192.396835 132.823635 
L 190.104794 133.351851 
L 187.878947 133.818344 
L 185.755838 134.192622 
L 183.770327 134.450222 
L 181.955012 134.574313 
L 180.339701 134.556795 
L 178.950915 134.398829 
L 177.811461 134.110761 
L 176.940051 133.711443 
L 176.350997 133.227004 
L 176.053976 132.689136 
L 176.053871 132.133024 
L 176.350687 131.595043 
L 176.939557 131.11038 
L 177.810816 130.710732 
L 178.95016 130.422231 
L 180.338886 130.263739 
L 181.954191 130.245608 
L 183.769553 130.36901 
L 185.755162 130.625857 
L 187.878412 130.999329 
L 190.104436 131.464977 
L 192.396678 131.992324 
L 194.717495 132.546854 
L 197.028774 133.092272 
L 199.292559 133.592882 
L 201.471673 134.015918 
L 203.530333 134.333689 
L 205.434731 134.525389 
L 207.153596 134.578463 
L 208.658704 134.489422 
L 209.925341 134.264077 
L 210.932712 133.917155 
L 211.664279 133.471341 
L 212.108033 132.955787 
z
" style="fill:#0000ff;stroke:#000000;stroke-linejoin:miter;"/>
   </g>
   <g id="patch_5">
    <path clip-path="url(#p09711afe36)" d="M 266.616693 132.3939 
L 266.467823 131.842382 
L 266.023873 131.326996 
L 265.292137 130.881459 
L 264.284635 130.53492 
L 263.017912 130.310055 
L 261.512771 130.221585 
L 259.793926 130.275311 
L 257.8896 130.467734 
L 255.831062 130.786286 
L 253.652108 131.210148 
L 251.388513 131.711618 
L 249.077441 132.257913 
L 246.756835 132.813323 
L 244.464793 133.341539 
L 242.238946 133.808032 
L 240.115837 134.18231 
L 238.130326 134.43991 
L 236.315012 134.564001 
L 234.6997 134.546483 
L 233.310914 134.388517 
L 232.17146 134.100449 
L 231.30005 133.701131 
L 230.710996 133.216692 
L 230.413975 132.678824 
L 230.41387 132.122712 
L 230.710686 131.584731 
L 231.299556 131.100068 
L 232.170815 130.70042 
L 233.310159 130.411919 
L 234.698885 130.253427 
L 236.31419 130.235296 
L 238.129552 130.358698 
L 240.115161 130.615545 
L 242.238411 130.989017 
L 244.464435 131.454666 
L 246.756677 131.982012 
L 249.077494 132.536542 
L 251.388773 133.08196 
L 253.652558 133.582571 
L 255.831672 134.005607 
L 257.890332 134.323377 
L 259.79473 134.515078 
L 261.513595 134.568151 
L 263.018703 134.47911 
L 264.28534 134.253765 
L 265.292711 133.906843 
L 266.024278 133.461029 
L 266.468032 132.945475 
z
" style="fill:#0000ff;stroke:#000000;stroke-linejoin:miter;"/>
   </g>
   <g id="patch_6">
    <path clip-path="url(#p09711afe36)" d="M 253.93424 140.550306 
L 188.702241 140.56268 
L 188.703272 145.99868 
L 253.935271 145.986306 
z
" style="fill:#999999;stroke:#000000;stroke-linejoin:miter;"/>
   </g>
   <g id="text_1">
    <!-- t = 2.6 -->
    <defs>
     <path d="M 18.3125 70.21875 
L 18.3125 54.6875 
L 36.8125 54.6875 
L 36.8125 47.703125 
L 18.3125 47.703125 
L 18.3125 18.015625 
Q 18.3125 11.328125 20.140625 9.421875 
Q 21.96875 7.515625 27.59375 7.515625 
L 36.8125 7.515625 
L 36.8125 0 
L 27.59375 0 
Q 17.1875 0 13.234375 3.875 
Q 9.28125 7.765625 9.28125 18.015625 
L 9.28125 47.703125 
L 2.6875 47.703125 
L 2.6875 54.6875 
L 9.28125 54.6875 
L 9.28125 70.21875 
z
" id="DejaVuSans-116"/>
     <path id="DejaVuSans-32"/>
     <path d="M 10.59375 45.40625 
L 73.1875 45.40625 
L 73.1875 37.203125 
L 10.59375 37.203125 
z
M 10.59375 25.484375 
L 73.1875 25.484375 
L 73.1875 17.1875 
L 10.59375 17.1875 
z
" id="DejaVuSans-61"/>
     <path d="M 19.1875 8.296875 
L 53.609375 8.296875 
L 53.609375 0 
L 7.328125 0 
L 7.328125 8.296875 
Q 12.9375 14.109375 22.625 23.890625 
Q 32.328125 33.6875 34.8125 36.53125 
Q 39.546875 41.84375 41.421875 45.53125 
Q 43.3125 49.21875 43.3125 52.78125 
Q 43.3125 58.59375 39.234375 62.25 
Q 35.15625 65.921875 28.609375 65.921875 
Q 23.96875 65.921875 18.8125 64.3125 
Q 13.671875 62.703125 7.8125 59.421875 
L 7.8125 69.390625 
Q 13.765625 71.78125 18.9375 73 
Q 24.125 74.21875 28.421875 74.21875 
Q 39.75 74.21875 46.484375 68.546875 
Q 53.21875 62.890625 53.21875 53.421875 
Q 53.21875 48.921875 51.53125 44.890625 
Q 49.859375 40.875 45.40625 35.40625 
Q 44.1875 33.984375 37.640625 27.21875 
Q 31.109375 20.453125 19.1875 8.296875 
z
" id="DejaVuSans-50"/>
     <path d="M 10.6875 12.40625 
L 21 12.40625 
L 21 0 
L 10.6875 0 
z
" id="DejaVuSans-46"/>
     <path d="M 33.015625 40.375 
Q 26.375 40.375 22.484375 35.828125 
Q 18.609375 31.296875 18.609375 23.390625 
Q 18.609375 15.53125 22.484375 10.953125 
Q 26.375 6.390625 33.015625 6.390625 
Q 39.65625 6.390625 43.53125 10.953125 
Q 47.40625 15.53125 47.40625 23.390625 
Q 47.40625 31.296875 43.53125 35.828125 
Q 39.65625 40.375 33.015625 40.375 
z
M 52.59375 71.296875 
L 52.59375 62.3125 
Q 48.875 64.0625 45.09375 64.984375 
Q 41.3125 65.921875 37.59375 65.921875 
Q 27.828125 65.921875 22.671875 59.328125 
Q 17.53125 52.734375 16.796875 39.40625 
Q 19.671875 43.65625 24.015625 45.921875 
Q 28.375 48.1875 33.59375 48.1875 
Q 44.578125 48.1875 50.953125 41.515625 
Q 57.328125 34.859375 57.328125 23.390625 
Q 57.328125 12.15625 50.6875 5.359375 
Q 44.046875 -1.421875 33.015625 -1.421875 
Q 20.359375 -1.421875 13.671875 8.265625 
Q 6.984375 17.96875 6.984375 36.375 
Q 6.984375 53.65625 15.1875 63.9375 
Q 23.390625 74.21875 37.203125 74.21875 
Q 40.921875 74.21875 44.703125 73.484375 
Q 48.484375 72.75 52.59375 71.296875 
z
" id="DejaVuSans-54"/>
    </defs>
    <g transform="translate(200.664375 28.56)scale(0.12 -0.12)">
     <use xlink:href="#DejaVuSans-116"/>
     <use x="39.208984" xlink:href="#DejaVuSans-32"/>
     <use x="70.996094" xlink:href="#DejaVuSans-61"/>
     <use x="154.785156" xlink:href="#DejaVuSans-32"/>
     <use x="186.572266" xlink:href="#DejaVuSans-50"/>
     <use x="250.195312" xlink:href="#DejaVuSans-46"/>
     <use x="281.982422" xlink:href="#DejaVuSans-54"/>
    </g>
   </g>
  </g>
 </g>
 <defs>
  <clipPath id="p09711afe36">
   <rect height="217.44" width="334.8" x="54" y="34.56"/>
  </clipPath>
 </defs>
</svg>
