<?xml version="1.0" encoding="utf-8" standalone="no"?>
<!DOCTYPE svg PUBLIC "-//W3C//DTD SVG 1.1//EN"
  "http://www.w3.org/Graphics/SVG/1.1/DTD/svg11.dtd">
<!-- Created with matplotlib (https://matplotlib.org/) -->
<svg height="288pt" version="1.1" viewBox="0 0 432 288" width="432pt" xmlns="http://www.w3.org/2000/svg" xmlns:xlink="http://www.w3.org/1999/xlink">
 <defs>
  <style type="text/css">
*{stroke-linecap:butt;stroke-linejoin:round;}
  </style>
 </defs>
 <g id="figure_1">
  <g id="patch_1">
   <path d="M 0 288 
L 432 288 
L 432 0 
L 0 0 
z
" style="fill:#ffffff;"/>
  </g>
  <g id="axes_1">
   <g id="patch_2">
    <path clip-path="url(#pf53a1dc046)" d="M 181.080816 155.152955 
L 183.252449 165.80586 
L 182.187159 166.023023 
L 180.015525 155.370118 
z
" style="stroke:#000000;stroke-linejoin:miter;"/>
   </g>
   <g id="patch_3">
    <path clip-path="url(#pf53a1dc046)" d="M 234.345343 144.294788 
L 236.516976 154.947693 
L 235.451686 155.164856 
L 233.280052 144.511951 
z
" style="stroke:#000000;stroke-linejoin:miter;"/>
   </g>
   <g id="patch_4">
    <path clip-path="url(#pf53a1dc046)" d="M 198.303013 151.642147 
L 198.047077 151.131431 
L 197.509207 150.715006 
L 196.703278 150.424456 
L 195.646885 150.285944 
L 194.360768 150.318389 
L 192.868247 150.532064 
L 191.194697 150.927721 
L 189.367075 151.4963 
L 187.413513 152.219246 
L 185.362973 153.069414 
L 183.244982 154.012519 
L 181.089414 155.009022 
L 178.926322 156.01636 
L 176.785794 156.991351 
L 174.697811 157.89265 
L 172.692099 158.683086 
L 170.797931 159.331732 
L 169.043894 159.815591 
L 167.457577 160.120776 
L 166.065202 160.243133 
L 164.891181 160.188249 
L 163.957611 159.970861 
L 163.283731 159.613718 
L 162.885348 159.145942 
L 162.774267 158.601036 
L 162.957754 158.014644 
L 163.43806 157.422215 
L 164.21204 156.856738 
L 165.270895 156.346673 
L 166.600058 155.914235 
L 168.179255 155.574119 
L 169.982728 155.332766 
L 171.979654 155.188199 
L 174.134726 155.130444 
L 176.408899 155.142502 
L 178.760272 155.201802 
L 181.145069 155.282036 
L 183.518702 155.355246 
L 185.836853 155.394027 
L 188.056558 155.37369 
L 190.137223 155.274244 
L 192.041571 155.082047 
L 193.736454 154.791037 
L 195.193518 154.403428 
L 196.389708 153.929846 
L 197.307585 153.388872 
L 197.93547 152.806034 
L 198.267415 152.212294 
z
" style="fill:#0000ff;stroke:#000000;stroke-linejoin:miter;"/>
   </g>
   <g id="patch_5">
    <path clip-path="url(#pf53a1dc046)" d="M 251.56754 140.78398 
L 251.311604 140.273264 
L 250.773733 139.85684 
L 249.967805 139.566289 
L 248.911412 139.427777 
L 247.625295 139.460222 
L 246.132773 139.673897 
L 244.459223 140.069554 
L 242.631602 140.638133 
L 240.678039 141.361079 
L 238.627499 142.211247 
L 236.509508 143.154352 
L 234.353941 144.150856 
L 232.190849 145.158193 
L 230.050321 146.133184 
L 227.962338 147.034483 
L 225.956626 147.824919 
L 224.062458 148.473565 
L 222.308421 148.957424 
L 220.722104 149.262609 
L 219.329729 149.384967 
L 218.155708 149.330082 
L 217.222138 149.112694 
L 216.548258 148.755551 
L 216.149875 148.287775 
L 216.038794 147.742869 
L 216.222281 147.156477 
L 216.702587 146.564048 
L 217.476567 145.998571 
L 218.535422 145.488506 
L 219.864585 145.056068 
L 221.443781 144.715952 
L 223.247254 144.474599 
L 225.24418 144.330032 
L 227.399252 144.272277 
L 229.673426 144.284335 
L 232.024798 144.343635 
L 234.409596 144.423869 
L 236.783228 144.497079 
L 239.10138 144.53586 
L 241.321084 144.515523 
L 243.401749 144.416077 
L 245.306098 144.22388 
L 247.00098 143.93287 
L 248.458045 143.545261 
L 249.654235 143.071679 
L 250.572112 142.530705 
L 251.199997 141.947867 
L 251.531942 141.354127 
z
" style="fill:#0000ff;stroke:#000000;stroke-linejoin:miter;"/>
   </g>
   <g id="patch_6">
    <path clip-path="url(#pf53a1dc046)" d="M 240.767875 151.307232 
L 176.850443 164.337032 
L 177.93626 169.663485 
L 241.853692 156.633684 
z
" style="fill:#999999;stroke:#000000;stroke-linejoin:miter;"/>
   </g>
   <g id="text_1">
    <!-- t = 0.7 -->
    <defs>
     <path d="M 18.3125 70.21875 
L 18.3125 54.6875 
L 36.8125 54.6875 
L 36.8125 47.703125 
L 18.3125 47.703125 
L 18.3125 18.015625 
Q 18.3125 11.328125 20.140625 9.421875 
Q 21.96875 7.515625 27.59375 7.515625 
L 36.8125 7.515625 
L 36.8125 0 
L 27.59375 0 
Q 17.1875 0 13.234375 3.875 
Q 9.28125 7.765625 9.28125 18.015625 
L 9.28125 47.703125 
L 2.6875 47.703125 
L 2.6875 54.6875 
L 9.28125 54.6875 
L 9.28125 70.21875 
z
" id="DejaVuSans-116"/>
     <path id="DejaVuSans-32"/>
     <path d="M 10.59375 45.40625 
L 73.1875 45.40625 
L 73.1875 37.203125 
L 10.59375 37.203125 
z
M 10.59375 25.484375 
L 73.1875 25.484375 
L 73.1875 17.1875 
L 10.59375 17.1875 
z
" id="DejaVuSans-61"/>
     <path d="M 31.78125 66.40625 
Q 24.171875 66.40625 20.328125 58.90625 
Q 16.5 51.421875 16.5 36.375 
Q 16.5 21.390625 20.328125 13.890625 
Q 24.171875 6.390625 31.78125 6.390625 
Q 39.453125 6.390625 43.28125 13.890625 
Q 47.125 21.390625 47.125 36.375 
Q 47.125 51.421875 43.28125 58.90625 
Q 39.453125 66.40625 31.78125 66.40625 
z
M 31.78125 74.21875 
Q 44.046875 74.21875 50.515625 64.515625 
Q 56.984375 54.828125 56.984375 36.375 
Q 56.984375 17.96875 50.515625 8.265625 
Q 44.046875 -1.421875 31.78125 -1.421875 
Q 19.53125 -1.421875 13.0625 8.265625 
Q 6.59375 17.96875 6.59375 36.375 
Q 6.59375 54.828125 13.0625 64.515625 
Q 19.53125 74.21875 31.78125 74.21875 
z
" id="DejaVuSans-48"/>
     <path d="M 10.6875 12.40625 
L 21 12.40625 
L 21 0 
L 10.6875 0 
z
" id="DejaVuSans-46"/>
     <path d="M 8.203125 72.90625 
L 55.078125 72.90625 
L 55.078125 68.703125 
L 28.609375 0 
L 18.3125 0 
L 43.21875 64.59375 
L 8.203125 64.59375 
z
" id="DejaVuSans-55"/>
    </defs>
    <g transform="translate(200.664375 28.56)scale(0.12 -0.12)">
     <use xlink:href="#DejaVuSans-116"/>
     <use x="39.208984" xlink:href="#DejaVuSans-32"/>
     <use x="70.996094" xlink:href="#DejaVuSans-61"/>
     <use x="154.785156" xlink:href="#DejaVuSans-32"/>
     <use x="186.572266" xlink:href="#DejaVuSans-48"/>
     <use x="250.195312" xlink:href="#DejaVuSans-46"/>
     <use x="281.982422" xlink:href="#DejaVuSans-55"/>
    </g>
   </g>
  </g>
 </g>
 <defs>
  <clipPath id="pf53a1dc046">
   <rect height="217.44" width="334.8" x="54" y="34.56"/>
  </clipPath>
 </defs>
</svg>
