<?xml version="1.0" encoding="utf-8" standalone="no"?>
<!DOCTYPE svg PUBLIC "-//W3C//DTD SVG 1.1//EN"
  "http://www.w3.org/Graphics/SVG/1.1/DTD/svg11.dtd">
<!-- Created with matplotlib (https://matplotlib.org/) -->
<svg height="288pt" version="1.1" viewBox="0 0 432 288" width="432pt" xmlns="http://www.w3.org/2000/svg" xmlns:xlink="http://www.w3.org/1999/xlink">
 <defs>
  <style type="text/css">
*{stroke-linecap:butt;stroke-linejoin:round;}
  </style>
 </defs>
 <g id="figure_1">
  <g id="patch_1">
   <path d="M 0 288 
L 432 288 
L 432 0 
L 0 0 
z
" style="fill:#ffffff;"/>
  </g>
  <g id="axes_1">
   <g id="patch_2">
    <path clip-path="url(#pfc63e31507)" d="M 195.162812 132.393055 
L 195.127169 143.264996 
L 194.039975 143.261432 
L 194.075618 132.389491 
z
" style="stroke:#000000;stroke-linejoin:miter;"/>
   </g>
   <g id="patch_3">
    <path clip-path="url(#pfc63e31507)" d="M 249.52252 132.571267 
L 249.486877 143.443208 
L 248.399683 143.439644 
L 248.435325 132.567703 
z
" style="stroke:#000000;stroke-linejoin:miter;"/>
   </g>
   <g id="patch_4">
    <path clip-path="url(#pfc63e31507)" d="M 212.739117 132.450677 
L 212.592161 131.898645 
L 212.150001 131.381723 
L 211.419815 130.933651 
L 210.413521 130.58362 
L 209.147585 130.354364 
L 207.64276 130.260674 
L 205.923739 130.308439 
L 204.018758 130.494256 
L 201.959126 130.805667 
L 199.778716 131.22197 
L 197.513395 131.715586 
L 195.200443 132.253863 
L 192.877924 132.801222 
L 190.584064 133.321486 
L 188.356613 133.780257 
L 186.232219 134.147169 
L 184.245827 134.397882 
L 182.430092 134.515676 
L 180.814851 134.492556 
L 179.426621 134.329775 
L 178.288173 134.037757 
L 177.418153 133.63542 
L 176.830783 133.14894 
L 176.53563 132.610045 
L 176.537453 132.053936 
L 176.836133 131.516988 
L 177.426681 131.034371 
L 178.29932 130.637746 
L 179.439658 130.353199 
L 180.828925 130.199523 
L 182.444284 130.186995 
L 184.259206 130.316692 
L 186.243912 130.580423 
L 188.365854 130.961256 
L 190.59025 131.434622 
L 192.880649 131.969916 
L 195.199529 132.53249 
L 197.508903 133.085921 
L 199.770938 133.59438 
L 201.948572 134.02497 
L 204.006117 134.349879 
L 205.909839 134.548182 
L 207.62851 134.607217 
L 209.133918 134.523396 
L 210.401329 134.302445 
L 211.409897 133.959019 
L 212.143005 133.515744 
L 212.588545 133.001733 
z
" style="fill:#0000ff;stroke:#000000;stroke-linejoin:miter;"/>
   </g>
   <g id="patch_5">
    <path clip-path="url(#pfc63e31507)" d="M 267.098825 132.628889 
L 266.951869 132.076858 
L 266.509709 131.559935 
L 265.779523 131.111863 
L 264.773228 130.761832 
L 263.507293 130.532576 
L 262.002468 130.438886 
L 260.283447 130.486651 
L 258.378465 130.672468 
L 256.318834 130.983879 
L 254.138424 131.400182 
L 251.873103 131.893798 
L 249.560151 132.432075 
L 247.237632 132.979434 
L 244.943772 133.499698 
L 242.71632 133.958469 
L 240.591927 134.325381 
L 238.605534 134.576094 
L 236.7898 134.693888 
L 235.174559 134.670768 
L 233.786329 134.507987 
L 232.647881 134.215969 
L 231.777861 133.813632 
L 231.190491 133.327152 
L 230.895338 132.788257 
L 230.897161 132.232148 
L 231.195841 131.6952 
L 231.786388 131.212583 
L 232.659028 130.815958 
L 233.799366 130.531411 
L 235.188633 130.377735 
L 236.803991 130.365207 
L 238.618914 130.494904 
L 240.60362 130.758635 
L 242.725562 131.139468 
L 244.949958 131.612834 
L 247.240357 132.148128 
L 249.559237 132.710702 
L 251.868611 133.264133 
L 254.130646 133.772592 
L 256.30828 134.203182 
L 258.365825 134.528091 
L 260.269547 134.726394 
L 261.988218 134.785429 
L 263.493625 134.701608 
L 264.761037 134.480657 
L 265.769605 134.137231 
L 266.502713 133.693956 
L 266.948253 133.179945 
z
" style="fill:#0000ff;stroke:#000000;stroke-linejoin:miter;"/>
   </g>
   <g id="patch_6">
    <path clip-path="url(#pfc63e31507)" d="M 254.388161 140.741262 
L 189.156512 140.527408 
L 189.138691 145.963379 
L 254.37034 146.177233 
z
" style="fill:#999999;stroke:#000000;stroke-linejoin:miter;"/>
   </g>
   <g id="text_1">
    <!-- t = 2.3 -->
    <defs>
     <path d="M 18.3125 70.21875 
L 18.3125 54.6875 
L 36.8125 54.6875 
L 36.8125 47.703125 
L 18.3125 47.703125 
L 18.3125 18.015625 
Q 18.3125 11.328125 20.140625 9.421875 
Q 21.96875 7.515625 27.59375 7.515625 
L 36.8125 7.515625 
L 36.8125 0 
L 27.59375 0 
Q 17.1875 0 13.234375 3.875 
Q 9.28125 7.765625 9.28125 18.015625 
L 9.28125 47.703125 
L 2.6875 47.703125 
L 2.6875 54.6875 
L 9.28125 54.6875 
L 9.28125 70.21875 
z
" id="DejaVuSans-116"/>
     <path id="DejaVuSans-32"/>
     <path d="M 10.59375 45.40625 
L 73.1875 45.40625 
L 73.1875 37.203125 
L 10.59375 37.203125 
z
M 10.59375 25.484375 
L 73.1875 25.484375 
L 73.1875 17.1875 
L 10.59375 17.1875 
z
" id="DejaVuSans-61"/>
     <path d="M 19.1875 8.296875 
L 53.609375 8.296875 
L 53.609375 0 
L 7.328125 0 
L 7.328125 8.296875 
Q 12.9375 14.109375 22.625 23.890625 
Q 32.328125 33.6875 34.8125 36.53125 
Q 39.546875 41.84375 41.421875 45.53125 
Q 43.3125 49.21875 43.3125 52.78125 
Q 43.3125 58.59375 39.234375 62.25 
Q 35.15625 65.921875 28.609375 65.921875 
Q 23.96875 65.921875 18.8125 64.3125 
Q 13.671875 62.703125 7.8125 59.421875 
L 7.8125 69.390625 
Q 13.765625 71.78125 18.9375 73 
Q 24.125 74.21875 28.421875 74.21875 
Q 39.75 74.21875 46.484375 68.546875 
Q 53.21875 62.890625 53.21875 53.421875 
Q 53.21875 48.921875 51.53125 44.890625 
Q 49.859375 40.875 45.40625 35.40625 
Q 44.1875 33.984375 37.640625 27.21875 
Q 31.109375 20.453125 19.1875 8.296875 
z
" id="DejaVuSans-50"/>
     <path d="M 10.6875 12.40625 
L 21 12.40625 
L 21 0 
L 10.6875 0 
z
" id="DejaVuSans-46"/>
     <path d="M 40.578125 39.3125 
Q 47.65625 37.796875 51.625 33 
Q 55.609375 28.21875 55.609375 21.1875 
Q 55.609375 10.40625 48.1875 4.484375 
Q 40.765625 -1.421875 27.09375 -1.421875 
Q 22.515625 -1.421875 17.65625 -0.515625 
Q 12.796875 0.390625 7.625 2.203125 
L 7.625 11.71875 
Q 11.71875 9.328125 16.59375 8.109375 
Q 21.484375 6.890625 26.8125 6.890625 
Q 36.078125 6.890625 40.9375 10.546875 
Q 45.796875 14.203125 45.796875 21.1875 
Q 45.796875 27.640625 41.28125 31.265625 
Q 36.765625 34.90625 28.71875 34.90625 
L 20.21875 34.90625 
L 20.21875 43.015625 
L 29.109375 43.015625 
Q 36.375 43.015625 40.234375 45.921875 
Q 44.09375 48.828125 44.09375 54.296875 
Q 44.09375 59.90625 40.109375 62.90625 
Q 36.140625 65.921875 28.71875 65.921875 
Q 24.65625 65.921875 20.015625 65.03125 
Q 15.375 64.15625 9.8125 62.3125 
L 9.8125 71.09375 
Q 15.4375 72.65625 20.34375 73.4375 
Q 25.25 74.21875 29.59375 74.21875 
Q 40.828125 74.21875 47.359375 69.109375 
Q 53.90625 64.015625 53.90625 55.328125 
Q 53.90625 49.265625 50.4375 45.09375 
Q 46.96875 40.921875 40.578125 39.3125 
z
" id="DejaVuSans-51"/>
    </defs>
    <g transform="translate(200.664375 28.56)scale(0.12 -0.12)">
     <use xlink:href="#DejaVuSans-116"/>
     <use x="39.208984" xlink:href="#DejaVuSans-32"/>
     <use x="70.996094" xlink:href="#DejaVuSans-61"/>
     <use x="154.785156" xlink:href="#DejaVuSans-32"/>
     <use x="186.572266" xlink:href="#DejaVuSans-50"/>
     <use x="250.195312" xlink:href="#DejaVuSans-46"/>
     <use x="281.982422" xlink:href="#DejaVuSans-51"/>
    </g>
   </g>
  </g>
 </g>
 <defs>
  <clipPath id="pfc63e31507">
   <rect height="217.44" width="334.8" x="54" y="34.56"/>
  </clipPath>
 </defs>
</svg>
