<?xml version="1.0" encoding="utf-8" standalone="no"?>
<!DOCTYPE svg PUBLIC "-//W3C//DTD SVG 1.1//EN"
  "http://www.w3.org/Graphics/SVG/1.1/DTD/svg11.dtd">
<!-- Created with matplotlib (https://matplotlib.org/) -->
<svg height="288pt" version="1.1" viewBox="0 0 432 288" width="432pt" xmlns="http://www.w3.org/2000/svg" xmlns:xlink="http://www.w3.org/1999/xlink">
 <defs>
  <style type="text/css">
*{stroke-linecap:butt;stroke-linejoin:round;}
  </style>
 </defs>
 <g id="figure_1">
  <g id="patch_1">
   <path d="M 0 288 
L 432 288 
L 432 0 
L 0 0 
z
" style="fill:#ffffff;"/>
  </g>
  <g id="axes_1">
   <g id="patch_2">
    <path clip-path="url(#p804f2a4eda)" d="M 195.443081 132.430424 
L 195.398624 143.302333 
L 194.311433 143.297887 
L 194.35589 132.425978 
z
" style="stroke:#000000;stroke-linejoin:miter;"/>
   </g>
   <g id="patch_3">
    <path clip-path="url(#p804f2a4eda)" d="M 249.802627 132.652711 
L 249.758169 143.52462 
L 248.670978 143.520175 
L 248.715436 132.648265 
z
" style="stroke:#000000;stroke-linejoin:miter;"/>
   </g>
   <g id="patch_4">
    <path clip-path="url(#p804f2a4eda)" d="M 213.019334 132.502297 
L 212.872826 131.950146 
L 212.431085 131.432866 
L 211.701263 130.984202 
L 210.695252 130.633355 
L 209.429503 130.403072 
L 207.924754 130.308163 
L 206.205695 130.354533 
L 204.300564 130.538806 
L 202.240681 130.848547 
L 200.059933 131.263082 
L 197.794213 131.754861 
L 195.480825 132.291263 
L 193.157863 132.836738 
L 190.863582 133.355142 
L 188.63576 133.812107 
L 186.511069 134.177296 
L 184.524474 134.426398 
L 182.708645 134.542721 
L 181.093423 134.518291 
L 179.705326 134.354384 
L 178.567115 134.061443 
L 177.697421 133.658401 
L 177.110446 133.171445 
L 176.815729 132.632311 
L 176.818003 132.076204 
L 177.117119 131.539498 
L 177.708058 131.057359 
L 178.581018 130.661443 
L 179.721587 130.37782 
L 181.110978 130.225271 
L 182.726346 130.214052 
L 184.541163 130.345221 
L 186.525655 130.610561 
L 188.647287 130.993115 
L 190.871298 131.468284 
L 193.161263 132.005434 
L 195.479686 132.569889 
L 197.78861 133.125192 
L 200.050232 133.635484 
L 202.227516 134.067841 
L 204.284797 134.394417 
L 206.188358 134.594264 
L 207.90698 134.654692 
L 209.412455 134.572092 
L 210.680045 134.352169 
L 211.688891 134.009561 
L 212.422359 133.566881 
L 212.868315 133.05323 
z
" style="fill:#0000ff;stroke:#000000;stroke-linejoin:miter;"/>
   </g>
   <g id="patch_5">
    <path clip-path="url(#p804f2a4eda)" d="M 267.37888 132.724584 
L 267.232371 132.172434 
L 266.790631 131.655153 
L 266.060808 131.206489 
L 265.054798 130.855642 
L 263.789049 130.62536 
L 262.2843 130.53045 
L 260.565241 130.576821 
L 258.660109 130.761094 
L 256.600226 131.070834 
L 254.419479 131.485369 
L 252.153759 131.977148 
L 249.840371 132.51355 
L 247.517409 133.059025 
L 245.223128 133.577429 
L 242.995305 134.034394 
L 240.870615 134.399584 
L 238.88402 134.648686 
L 237.068191 134.765008 
L 235.452968 134.740579 
L 234.064871 134.576672 
L 232.92666 134.28373 
L 232.056967 133.880688 
L 231.469991 133.393733 
L 231.175275 132.854599 
L 231.177549 132.298491 
L 231.476665 131.761785 
L 232.067603 131.279647 
L 232.940564 130.88373 
L 234.081132 130.600107 
L 235.470523 130.447558 
L 237.085891 130.436339 
L 238.900708 130.567508 
L 240.8852 130.832849 
L 243.006833 131.215402 
L 245.230844 131.690572 
L 247.520808 132.227722 
L 249.839231 132.792176 
L 252.148155 133.34748 
L 254.409777 133.857772 
L 256.587062 134.290128 
L 258.644343 134.616704 
L 260.547903 134.816552 
L 262.266526 134.87698 
L 263.772001 134.79438 
L 265.039591 134.574456 
L 266.048437 134.231848 
L 266.781904 133.789168 
L 267.227861 133.275518 
z
" style="fill:#0000ff;stroke:#000000;stroke-linejoin:miter;"/>
   </g>
   <g id="patch_6">
    <path clip-path="url(#p804f2a4eda)" d="M 254.661643 140.826649 
L 189.430188 140.559904 
L 189.407959 145.995859 
L 254.639414 146.262603 
z
" style="fill:#999999;stroke:#000000;stroke-linejoin:miter;"/>
   </g>
   <g id="text_1">
    <!-- t = 2.1 -->
    <defs>
     <path d="M 18.3125 70.21875 
L 18.3125 54.6875 
L 36.8125 54.6875 
L 36.8125 47.703125 
L 18.3125 47.703125 
L 18.3125 18.015625 
Q 18.3125 11.328125 20.140625 9.421875 
Q 21.96875 7.515625 27.59375 7.515625 
L 36.8125 7.515625 
L 36.8125 0 
L 27.59375 0 
Q 17.1875 0 13.234375 3.875 
Q 9.28125 7.765625 9.28125 18.015625 
L 9.28125 47.703125 
L 2.6875 47.703125 
L 2.6875 54.6875 
L 9.28125 54.6875 
L 9.28125 70.21875 
z
" id="DejaVuSans-116"/>
     <path id="DejaVuSans-32"/>
     <path d="M 10.59375 45.40625 
L 73.1875 45.40625 
L 73.1875 37.203125 
L 10.59375 37.203125 
z
M 10.59375 25.484375 
L 73.1875 25.484375 
L 73.1875 17.1875 
L 10.59375 17.1875 
z
" id="DejaVuSans-61"/>
     <path d="M 19.1875 8.296875 
L 53.609375 8.296875 
L 53.609375 0 
L 7.328125 0 
L 7.328125 8.296875 
Q 12.9375 14.109375 22.625 23.890625 
Q 32.328125 33.6875 34.8125 36.53125 
Q 39.546875 41.84375 41.421875 45.53125 
Q 43.3125 49.21875 43.3125 52.78125 
Q 43.3125 58.59375 39.234375 62.25 
Q 35.15625 65.921875 28.609375 65.921875 
Q 23.96875 65.921875 18.8125 64.3125 
Q 13.671875 62.703125 7.8125 59.421875 
L 7.8125 69.390625 
Q 13.765625 71.78125 18.9375 73 
Q 24.125 74.21875 28.421875 74.21875 
Q 39.75 74.21875 46.484375 68.546875 
Q 53.21875 62.890625 53.21875 53.421875 
Q 53.21875 48.921875 51.53125 44.890625 
Q 49.859375 40.875 45.40625 35.40625 
Q 44.1875 33.984375 37.640625 27.21875 
Q 31.109375 20.453125 19.1875 8.296875 
z
" id="DejaVuSans-50"/>
     <path d="M 10.6875 12.40625 
L 21 12.40625 
L 21 0 
L 10.6875 0 
z
" id="DejaVuSans-46"/>
     <path d="M 12.40625 8.296875 
L 28.515625 8.296875 
L 28.515625 63.921875 
L 10.984375 60.40625 
L 10.984375 69.390625 
L 28.421875 72.90625 
L 38.28125 72.90625 
L 38.28125 8.296875 
L 54.390625 8.296875 
L 54.390625 0 
L 12.40625 0 
z
" id="DejaVuSans-49"/>
    </defs>
    <g transform="translate(200.664375 28.56)scale(0.12 -0.12)">
     <use xlink:href="#DejaVuSans-116"/>
     <use x="39.208984" xlink:href="#DejaVuSans-32"/>
     <use x="70.996094" xlink:href="#DejaVuSans-61"/>
     <use x="154.785156" xlink:href="#DejaVuSans-32"/>
     <use x="186.572266" xlink:href="#DejaVuSans-50"/>
     <use x="250.195312" xlink:href="#DejaVuSans-46"/>
     <use x="281.982422" xlink:href="#DejaVuSans-49"/>
    </g>
   </g>
  </g>
 </g>
 <defs>
  <clipPath id="p804f2a4eda">
   <rect height="217.44" width="334.8" x="54" y="34.56"/>
  </clipPath>
 </defs>
</svg>
