<?xml version="1.0" encoding="utf-8" standalone="no"?>
<!DOCTYPE svg PUBLIC "-//W3C//DTD SVG 1.1//EN"
  "http://www.w3.org/Graphics/SVG/1.1/DTD/svg11.dtd">
<!-- Created with matplotlib (https://matplotlib.org/) -->
<svg height="288pt" version="1.1" viewBox="0 0 432 288" width="432pt" xmlns="http://www.w3.org/2000/svg" xmlns:xlink="http://www.w3.org/1999/xlink">
 <defs>
  <style type="text/css">
*{stroke-linecap:butt;stroke-linejoin:round;}
  </style>
 </defs>
 <g id="figure_1">
  <g id="patch_1">
   <path d="M 0 288 
L 432 288 
L 432 0 
L 0 0 
z
" style="fill:#ffffff;"/>
  </g>
  <g id="axes_1">
   <g id="patch_2">
    <path clip-path="url(#p2ed75b8848)" d="M 194.765756 132.407917 
L 194.765896 143.279917 
L 193.678696 143.279931 
L 193.678556 132.407931 
z
" style="stroke:#000000;stroke-linejoin:miter;"/>
   </g>
   <g id="patch_3">
    <path clip-path="url(#p2ed75b8848)" d="M 249.125756 132.407214 
L 249.125896 143.279214 
L 248.038696 143.279228 
L 248.038556 132.407228 
z
" style="stroke:#000000;stroke-linejoin:miter;"/>
   </g>
   <g id="patch_4">
    <path clip-path="url(#p2ed75b8848)" d="M 212.342156 132.40769 
L 212.193384 131.856145 
L 211.749525 131.340681 
L 211.017868 130.895015 
L 210.010427 130.548297 
L 208.743744 130.323209 
L 207.238618 130.234473 
L 205.519763 130.287895 
L 203.615404 130.479981 
L 201.556809 130.798169 
L 199.37778 131.221646 
L 197.114097 131.722715 
L 194.802928 132.268602 
L 192.482224 132.823602 
L 190.190089 133.351413 
L 187.964159 133.817512 
L 185.840985 134.191415 
L 183.855428 134.448663 
L 182.040091 134.572434 
L 180.424783 134.55463 
L 179.036025 134.396419 
L 177.896622 134.108149 
L 177.025282 133.708678 
L 176.436314 133.224134 
L 176.139389 132.686214 
L 176.139382 132.130101 
L 176.436293 131.592173 
L 177.025249 131.107614 
L 177.896578 130.70812 
L 179.035973 130.419821 
L 180.424727 130.261574 
L 182.040036 130.243729 
L 183.855375 130.367452 
L 185.840939 130.62465 
L 187.964123 130.998497 
L 190.190064 131.464539 
L 192.482213 131.992291 
L 194.802932 132.547231 
L 197.114115 133.093058 
L 199.377811 133.594068 
L 201.556851 134.017489 
L 203.615454 134.335624 
L 205.519818 134.527661 
L 207.238674 134.581038 
L 208.743797 134.492264 
L 210.010475 134.267142 
L 211.017907 133.920399 
L 211.749552 133.474714 
L 212.193398 132.959238 
z
" style="fill:#0000ff;stroke:#000000;stroke-linejoin:miter;"/>
   </g>
   <g id="patch_5">
    <path clip-path="url(#p2ed75b8848)" d="M 266.702156 132.406987 
L 266.553384 131.855443 
L 266.109525 131.339979 
L 265.377868 130.894312 
L 264.370427 130.547595 
L 263.103744 130.322506 
L 261.598618 130.23377 
L 259.879763 130.287192 
L 257.975404 130.479278 
L 255.916809 130.797466 
L 253.73778 131.220944 
L 251.474097 131.722013 
L 249.162928 132.2679 
L 246.842224 132.822899 
L 244.550089 133.35071 
L 242.324159 133.81681 
L 240.200985 134.190712 
L 238.215428 134.447961 
L 236.400091 134.571731 
L 234.784783 134.553928 
L 233.396025 134.395716 
L 232.256622 134.107447 
L 231.385282 133.707975 
L 230.796314 133.223432 
L 230.499389 132.685511 
L 230.499382 132.129399 
L 230.796293 131.591471 
L 231.385249 131.106912 
L 232.256578 130.707418 
L 233.395973 130.419119 
L 234.784727 130.260872 
L 236.400036 130.243026 
L 238.215375 130.36675 
L 240.200939 130.623947 
L 242.324123 130.997794 
L 244.550064 131.463837 
L 246.842213 131.991589 
L 249.162932 132.546528 
L 251.474115 133.092355 
L 253.737811 133.593366 
L 255.916851 134.016787 
L 257.975454 134.334922 
L 259.879818 134.526959 
L 261.598674 134.580336 
L 263.103797 134.491561 
L 264.370475 134.26644 
L 265.377907 133.919696 
L 266.109552 133.474011 
L 266.553398 132.958536 
z
" style="fill:#0000ff;stroke:#000000;stroke-linejoin:miter;"/>
   </g>
   <g id="patch_6">
    <path clip-path="url(#p2ed75b8848)" d="M 254.018261 140.561151 
L 188.786261 140.561994 
L 188.786331 145.997994 
L 254.018331 145.997151 
z
" style="fill:#999999;stroke:#000000;stroke-linejoin:miter;"/>
   </g>
   <g id="text_1">
    <!-- t = 3.5 -->
    <defs>
     <path d="M 18.3125 70.21875 
L 18.3125 54.6875 
L 36.8125 54.6875 
L 36.8125 47.703125 
L 18.3125 47.703125 
L 18.3125 18.015625 
Q 18.3125 11.328125 20.140625 9.421875 
Q 21.96875 7.515625 27.59375 7.515625 
L 36.8125 7.515625 
L 36.8125 0 
L 27.59375 0 
Q 17.1875 0 13.234375 3.875 
Q 9.28125 7.765625 9.28125 18.015625 
L 9.28125 47.703125 
L 2.6875 47.703125 
L 2.6875 54.6875 
L 9.28125 54.6875 
L 9.28125 70.21875 
z
" id="DejaVuSans-116"/>
     <path id="DejaVuSans-32"/>
     <path d="M 10.59375 45.40625 
L 73.1875 45.40625 
L 73.1875 37.203125 
L 10.59375 37.203125 
z
M 10.59375 25.484375 
L 73.1875 25.484375 
L 73.1875 17.1875 
L 10.59375 17.1875 
z
" id="DejaVuSans-61"/>
     <path d="M 40.578125 39.3125 
Q 47.65625 37.796875 51.625 33 
Q 55.609375 28.21875 55.609375 21.1875 
Q 55.609375 10.40625 48.1875 4.484375 
Q 40.765625 -1.421875 27.09375 -1.421875 
Q 22.515625 -1.421875 17.65625 -0.515625 
Q 12.796875 0.390625 7.625 2.203125 
L 7.625 11.71875 
Q 11.71875 9.328125 16.59375 8.109375 
Q 21.484375 6.890625 26.8125 6.890625 
Q 36.078125 6.890625 40.9375 10.546875 
Q 45.796875 14.203125 45.796875 21.1875 
Q 45.796875 27.640625 41.28125 31.265625 
Q 36.765625 34.90625 28.71875 34.90625 
L 20.21875 34.90625 
L 20.21875 43.015625 
L 29.109375 43.015625 
Q 36.375 43.015625 40.234375 45.921875 
Q 44.09375 48.828125 44.09375 54.296875 
Q 44.09375 59.90625 40.109375 62.90625 
Q 36.140625 65.921875 28.71875 65.921875 
Q 24.65625 65.921875 20.015625 65.03125 
Q 15.375 64.15625 9.8125 62.3125 
L 9.8125 71.09375 
Q 15.4375 72.65625 20.34375 73.4375 
Q 25.25 74.21875 29.59375 74.21875 
Q 40.828125 74.21875 47.359375 69.109375 
Q 53.90625 64.015625 53.90625 55.328125 
Q 53.90625 49.265625 50.4375 45.09375 
Q 46.96875 40.921875 40.578125 39.3125 
z
" id="DejaVuSans-51"/>
     <path d="M 10.6875 12.40625 
L 21 12.40625 
L 21 0 
L 10.6875 0 
z
" id="DejaVuSans-46"/>
     <path d="M 10.796875 72.90625 
L 49.515625 72.90625 
L 49.515625 64.59375 
L 19.828125 64.59375 
L 19.828125 46.734375 
Q 21.96875 47.46875 24.109375 47.828125 
Q 26.265625 48.1875 28.421875 48.1875 
Q 40.625 48.1875 47.75 41.5 
Q 54.890625 34.8125 54.890625 23.390625 
Q 54.890625 11.625 47.5625 5.09375 
Q 40.234375 -1.421875 26.90625 -1.421875 
Q 22.3125 -1.421875 17.546875 -0.640625 
Q 12.796875 0.140625 7.71875 1.703125 
L 7.71875 11.625 
Q 12.109375 9.234375 16.796875 8.0625 
Q 21.484375 6.890625 26.703125 6.890625 
Q 35.15625 6.890625 40.078125 11.328125 
Q 45.015625 15.765625 45.015625 23.390625 
Q 45.015625 31 40.078125 35.4375 
Q 35.15625 39.890625 26.703125 39.890625 
Q 22.75 39.890625 18.8125 39.015625 
Q 14.890625 38.140625 10.796875 36.28125 
z
" id="DejaVuSans-53"/>
    </defs>
    <g transform="translate(200.664375 28.56)scale(0.12 -0.12)">
     <use xlink:href="#DejaVuSans-116"/>
     <use x="39.208984" xlink:href="#DejaVuSans-32"/>
     <use x="70.996094" xlink:href="#DejaVuSans-61"/>
     <use x="154.785156" xlink:href="#DejaVuSans-32"/>
     <use x="186.572266" xlink:href="#DejaVuSans-51"/>
     <use x="250.195312" xlink:href="#DejaVuSans-46"/>
     <use x="281.982422" xlink:href="#DejaVuSans-53"/>
    </g>
   </g>
  </g>
 </g>
 <defs>
  <clipPath id="p2ed75b8848">
   <rect height="217.44" width="334.8" x="54" y="34.56"/>
  </clipPath>
 </defs>
</svg>
