<?xml version="1.0" encoding="utf-8" standalone="no"?>
<!DOCTYPE svg PUBLIC "-//W3C//DTD SVG 1.1//EN"
  "http://www.w3.org/Graphics/SVG/1.1/DTD/svg11.dtd">
<!-- Created with matplotlib (https://matplotlib.org/) -->
<svg height="288pt" version="1.1" viewBox="0 0 432 288" width="432pt" xmlns="http://www.w3.org/2000/svg" xmlns:xlink="http://www.w3.org/1999/xlink">
 <defs>
  <style type="text/css">
*{stroke-linecap:butt;stroke-linejoin:round;}
  </style>
 </defs>
 <g id="figure_1">
  <g id="patch_1">
   <path d="M 0 288 
L 432 288 
L 432 0 
L 0 0 
z
" style="fill:#ffffff;"/>
  </g>
  <g id="axes_1">
   <g id="patch_2">
    <path clip-path="url(#p43d3d89d01)" d="M 194.762307 132.409054 
L 194.762792 143.281054 
L 193.675592 143.281103 
L 193.675107 132.409103 
z
" style="stroke:#000000;stroke-linejoin:miter;"/>
   </g>
   <g id="patch_3">
    <path clip-path="url(#p43d3d89d01)" d="M 249.122307 132.406634 
L 249.122792 143.278634 
L 248.035592 143.278682 
L 248.035107 132.406682 
z
" style="stroke:#000000;stroke-linejoin:miter;"/>
   </g>
   <g id="patch_4">
    <path clip-path="url(#p43d3d89d01)" d="M 212.338707 132.408272 
L 212.189918 131.856732 
L 211.746043 131.341282 
L 211.014372 130.895639 
L 210.00692 130.548953 
L 208.740229 130.323905 
L 207.235101 130.235216 
L 205.516248 130.288692 
L 203.611895 130.480839 
L 201.55331 130.799092 
L 199.374294 131.222638 
L 197.110627 131.723779 
L 194.799476 132.269739 
L 192.478789 132.824811 
L 190.18667 133.352695 
L 187.960755 133.818865 
L 185.837593 134.192834 
L 183.852044 134.450146 
L 182.036712 134.573973 
L 180.421402 134.556221 
L 179.03264 134.398054 
L 177.893227 134.10982 
L 177.021875 133.710376 
L 176.432892 133.225851 
L 176.135949 132.68794 
L 176.135925 132.131828 
L 176.432819 131.59389 
L 177.021759 131.109313 
L 177.893076 130.709791 
L 179.032462 130.421456 
L 180.421211 130.263165 
L 182.036519 130.245269 
L 183.851863 130.368935 
L 185.837434 130.626069 
L 187.96063 130.999849 
L 190.186586 131.465821 
L 192.478752 131.993501 
L 194.799488 132.548367 
L 197.110688 133.094121 
L 199.3744 133.59506 
L 201.553453 134.018413 
L 203.612067 134.336482 
L 205.516437 134.528459 
L 207.235294 134.581782 
L 208.740415 134.492959 
L 210.007085 134.267798 
L 211.014506 133.921023 
L 211.746138 133.475314 
L 212.189967 132.959825 
z
" style="fill:#0000ff;stroke:#000000;stroke-linejoin:miter;"/>
   </g>
   <g id="patch_5">
    <path clip-path="url(#p43d3d89d01)" d="M 266.698707 132.405851 
L 266.549918 131.854311 
L 266.106043 131.338861 
L 265.374372 130.893218 
L 264.366919 130.546533 
L 263.100229 130.321484 
L 261.595101 130.232796 
L 259.876248 130.286272 
L 257.971895 130.478418 
L 255.91331 130.796671 
L 253.734294 131.220217 
L 251.470627 131.721358 
L 249.159476 132.267318 
L 246.838789 132.822391 
L 244.54667 133.350274 
L 242.320755 133.816445 
L 240.197593 134.190414 
L 238.212044 134.447725 
L 236.396712 134.571553 
L 234.781402 134.5538 
L 233.392639 134.395633 
L 232.253227 134.107399 
L 231.381875 133.707955 
L 230.792892 133.223431 
L 230.495949 132.685519 
L 230.495925 132.129407 
L 230.792819 131.591469 
L 231.381759 131.106892 
L 232.253076 130.707371 
L 233.392462 130.419035 
L 234.781211 130.260744 
L 236.396519 130.242848 
L 238.211863 130.366514 
L 240.197434 130.623649 
L 242.32063 130.997429 
L 244.546586 131.463401 
L 246.838752 131.99108 
L 249.159488 132.545946 
L 251.470688 133.091701 
L 253.7344 133.59264 
L 255.913453 134.015992 
L 257.972067 134.334061 
L 259.876437 134.526038 
L 261.595294 134.579361 
L 263.100415 134.490539 
L 264.367085 134.265377 
L 265.374506 133.918602 
L 266.106138 133.472894 
L 266.549967 132.957404 
z
" style="fill:#0000ff;stroke:#000000;stroke-linejoin:miter;"/>
   </g>
   <g id="patch_6">
    <path clip-path="url(#p43d3d89d01)" d="M 254.01507 140.560416 
L 188.783071 140.563321 
L 188.783313 145.999321 
L 254.015313 145.996416 
z
" style="fill:#999999;stroke:#000000;stroke-linejoin:miter;"/>
   </g>
   <g id="text_1">
    <!-- t = 3.7 -->
    <defs>
     <path d="M 18.3125 70.21875 
L 18.3125 54.6875 
L 36.8125 54.6875 
L 36.8125 47.703125 
L 18.3125 47.703125 
L 18.3125 18.015625 
Q 18.3125 11.328125 20.140625 9.421875 
Q 21.96875 7.515625 27.59375 7.515625 
L 36.8125 7.515625 
L 36.8125 0 
L 27.59375 0 
Q 17.1875 0 13.234375 3.875 
Q 9.28125 7.765625 9.28125 18.015625 
L 9.28125 47.703125 
L 2.6875 47.703125 
L 2.6875 54.6875 
L 9.28125 54.6875 
L 9.28125 70.21875 
z
" id="DejaVuSans-116"/>
     <path id="DejaVuSans-32"/>
     <path d="M 10.59375 45.40625 
L 73.1875 45.40625 
L 73.1875 37.203125 
L 10.59375 37.203125 
z
M 10.59375 25.484375 
L 73.1875 25.484375 
L 73.1875 17.1875 
L 10.59375 17.1875 
z
" id="DejaVuSans-61"/>
     <path d="M 40.578125 39.3125 
Q 47.65625 37.796875 51.625 33 
Q 55.609375 28.21875 55.609375 21.1875 
Q 55.609375 10.40625 48.1875 4.484375 
Q 40.765625 -1.421875 27.09375 -1.421875 
Q 22.515625 -1.421875 17.65625 -0.515625 
Q 12.796875 0.390625 7.625 2.203125 
L 7.625 11.71875 
Q 11.71875 9.328125 16.59375 8.109375 
Q 21.484375 6.890625 26.8125 6.890625 
Q 36.078125 6.890625 40.9375 10.546875 
Q 45.796875 14.203125 45.796875 21.1875 
Q 45.796875 27.640625 41.28125 31.265625 
Q 36.765625 34.90625 28.71875 34.90625 
L 20.21875 34.90625 
L 20.21875 43.015625 
L 29.109375 43.015625 
Q 36.375 43.015625 40.234375 45.921875 
Q 44.09375 48.828125 44.09375 54.296875 
Q 44.09375 59.90625 40.109375 62.90625 
Q 36.140625 65.921875 28.71875 65.921875 
Q 24.65625 65.921875 20.015625 65.03125 
Q 15.375 64.15625 9.8125 62.3125 
L 9.8125 71.09375 
Q 15.4375 72.65625 20.34375 73.4375 
Q 25.25 74.21875 29.59375 74.21875 
Q 40.828125 74.21875 47.359375 69.109375 
Q 53.90625 64.015625 53.90625 55.328125 
Q 53.90625 49.265625 50.4375 45.09375 
Q 46.96875 40.921875 40.578125 39.3125 
z
" id="DejaVuSans-51"/>
     <path d="M 10.6875 12.40625 
L 21 12.40625 
L 21 0 
L 10.6875 0 
z
" id="DejaVuSans-46"/>
     <path d="M 8.203125 72.90625 
L 55.078125 72.90625 
L 55.078125 68.703125 
L 28.609375 0 
L 18.3125 0 
L 43.21875 64.59375 
L 8.203125 64.59375 
z
" id="DejaVuSans-55"/>
    </defs>
    <g transform="translate(200.664375 28.56)scale(0.12 -0.12)">
     <use xlink:href="#DejaVuSans-116"/>
     <use x="39.208984" xlink:href="#DejaVuSans-32"/>
     <use x="70.996094" xlink:href="#DejaVuSans-61"/>
     <use x="154.785156" xlink:href="#DejaVuSans-32"/>
     <use x="186.572266" xlink:href="#DejaVuSans-51"/>
     <use x="250.195312" xlink:href="#DejaVuSans-46"/>
     <use x="281.982422" xlink:href="#DejaVuSans-55"/>
    </g>
   </g>
  </g>
 </g>
 <defs>
  <clipPath id="p43d3d89d01">
   <rect height="217.44" width="334.8" x="54" y="34.56"/>
  </clipPath>
 </defs>
</svg>
