<?xml version="1.0" encoding="utf-8" standalone="no"?>
<!DOCTYPE svg PUBLIC "-//W3C//DTD SVG 1.1//EN"
  "http://www.w3.org/Graphics/SVG/1.1/DTD/svg11.dtd">
<!-- Created with matplotlib (https://matplotlib.org/) -->
<svg height="288pt" version="1.1" viewBox="0 0 432 288" width="432pt" xmlns="http://www.w3.org/2000/svg" xmlns:xlink="http://www.w3.org/1999/xlink">
 <defs>
  <style type="text/css">
*{stroke-linecap:butt;stroke-linejoin:round;}
  </style>
 </defs>
 <g id="figure_1">
  <g id="patch_1">
   <path d="M 0 288 
L 432 288 
L 432 0 
L 0 0 
z
" style="fill:#ffffff;"/>
  </g>
  <g id="axes_1">
   <g id="patch_2">
    <path clip-path="url(#p1e670d0705)" d="M 194.92581 132.385447 
L 194.903784 143.257425 
L 193.816587 143.255223 
L 193.838612 132.383245 
z
" style="stroke:#000000;stroke-linejoin:miter;"/>
   </g>
   <g id="patch_3">
    <path clip-path="url(#p1e670d0705)" d="M 249.285699 132.495576 
L 249.263673 143.367554 
L 248.176475 143.365351 
L 248.198501 132.493373 
z
" style="stroke:#000000;stroke-linejoin:miter;"/>
   </g>
   <g id="patch_4">
    <path clip-path="url(#p1e670d0705)" d="M 212.502174 132.421056 
L 212.354527 131.869209 
L 211.91172 131.352841 
L 211.180973 130.905684 
L 210.174241 130.556913 
L 208.908019 130.329243 
L 207.403078 130.237438 
L 205.684118 130.287355 
L 203.779371 130.475559 
L 201.720131 130.789548 
L 199.540244 131.208582 
L 197.275544 131.705035 
L 194.963267 132.246209 
L 192.641436 132.796476 
L 190.348229 133.319612 
L 188.121354 133.781173 
L 185.997422 134.150745 
L 184.011345 134.403946 
L 182.195759 134.524014 
L 180.58049 134.502918 
L 179.192058 134.341875 
L 178.053245 134.051283 
L 177.182722 133.650036 
L 176.594743 133.164293 
L 176.298915 132.625768 
L 176.300041 132.069657 
L 176.598049 131.532335 
L 177.187991 131.048978 
L 178.060133 130.651261 
L 179.200114 130.365286 
L 180.589187 130.20987 
L 182.204529 130.195318 
L 184.019613 130.322742 
L 186.004648 130.583988 
L 188.127065 130.962163 
L 190.352052 131.432743 
L 192.64312 131.965167 
L 194.962702 132.524837 
L 197.272767 133.075375 
L 199.535437 133.581 
L 201.713609 134.008863 
L 203.77156 134.331194 
L 205.675529 134.527113 
L 207.394272 134.583995 
L 208.899573 134.498289 
L 210.166707 134.27575 
L 211.174844 133.931062 
L 211.907397 133.486869 
L 212.352292 132.9723 
z
" style="fill:#0000ff;stroke:#000000;stroke-linejoin:miter;"/>
   </g>
   <g id="patch_5">
    <path clip-path="url(#p1e670d0705)" d="M 266.862063 132.531184 
L 266.714415 131.979337 
L 266.271608 131.46297 
L 265.540861 131.015812 
L 264.534129 130.667042 
L 263.267908 130.439371 
L 261.762966 130.347567 
L 260.044006 130.397484 
L 258.139259 130.585687 
L 256.08002 130.899677 
L 253.900132 131.318711 
L 251.635432 131.815164 
L 249.323155 132.356337 
L 247.001324 132.906604 
L 244.708117 133.429741 
L 242.481242 133.891301 
L 240.35731 134.260874 
L 238.371233 134.514074 
L 236.555648 134.634143 
L 234.940379 134.613046 
L 233.551946 134.452004 
L 232.413133 134.161411 
L 231.54261 133.760164 
L 230.954631 133.274421 
L 230.658803 132.735896 
L 230.65993 132.179785 
L 230.957937 131.642463 
L 231.54788 131.159106 
L 232.420021 130.76139 
L 233.560003 130.475414 
L 234.949076 130.319999 
L 236.564417 130.305447 
L 238.379501 130.432871 
L 240.364536 130.694116 
L 242.486953 131.072292 
L 244.71194 131.542871 
L 247.003008 132.075295 
L 249.322591 132.634965 
L 251.632656 133.185503 
L 253.895326 133.691128 
L 256.073498 134.118991 
L 258.131448 134.441322 
L 260.035417 134.637242 
L 261.75416 134.694123 
L 263.259462 134.608417 
L 264.526595 134.385879 
L 265.534732 134.04119 
L 266.267285 133.596998 
L 266.71218 133.082428 
z
" style="fill:#0000ff;stroke:#000000;stroke-linejoin:miter;"/>
   </g>
   <g id="patch_6">
    <path clip-path="url(#p1e670d0705)" d="M 254.161569 140.659471 
L 188.929703 140.527317 
L 188.91869 145.963305 
L 254.150556 146.09546 
z
" style="fill:#999999;stroke:#000000;stroke-linejoin:miter;"/>
   </g>
   <g id="text_1">
    <!-- t = 2.5 -->
    <defs>
     <path d="M 18.3125 70.21875 
L 18.3125 54.6875 
L 36.8125 54.6875 
L 36.8125 47.703125 
L 18.3125 47.703125 
L 18.3125 18.015625 
Q 18.3125 11.328125 20.140625 9.421875 
Q 21.96875 7.515625 27.59375 7.515625 
L 36.8125 7.515625 
L 36.8125 0 
L 27.59375 0 
Q 17.1875 0 13.234375 3.875 
Q 9.28125 7.765625 9.28125 18.015625 
L 9.28125 47.703125 
L 2.6875 47.703125 
L 2.6875 54.6875 
L 9.28125 54.6875 
L 9.28125 70.21875 
z
" id="DejaVuSans-116"/>
     <path id="DejaVuSans-32"/>
     <path d="M 10.59375 45.40625 
L 73.1875 45.40625 
L 73.1875 37.203125 
L 10.59375 37.203125 
z
M 10.59375 25.484375 
L 73.1875 25.484375 
L 73.1875 17.1875 
L 10.59375 17.1875 
z
" id="DejaVuSans-61"/>
     <path d="M 19.1875 8.296875 
L 53.609375 8.296875 
L 53.609375 0 
L 7.328125 0 
L 7.328125 8.296875 
Q 12.9375 14.109375 22.625 23.890625 
Q 32.328125 33.6875 34.8125 36.53125 
Q 39.546875 41.84375 41.421875 45.53125 
Q 43.3125 49.21875 43.3125 52.78125 
Q 43.3125 58.59375 39.234375 62.25 
Q 35.15625 65.921875 28.609375 65.921875 
Q 23.96875 65.921875 18.8125 64.3125 
Q 13.671875 62.703125 7.8125 59.421875 
L 7.8125 69.390625 
Q 13.765625 71.78125 18.9375 73 
Q 24.125 74.21875 28.421875 74.21875 
Q 39.75 74.21875 46.484375 68.546875 
Q 53.21875 62.890625 53.21875 53.421875 
Q 53.21875 48.921875 51.53125 44.890625 
Q 49.859375 40.875 45.40625 35.40625 
Q 44.1875 33.984375 37.640625 27.21875 
Q 31.109375 20.453125 19.1875 8.296875 
z
" id="DejaVuSans-50"/>
     <path d="M 10.6875 12.40625 
L 21 12.40625 
L 21 0 
L 10.6875 0 
z
" id="DejaVuSans-46"/>
     <path d="M 10.796875 72.90625 
L 49.515625 72.90625 
L 49.515625 64.59375 
L 19.828125 64.59375 
L 19.828125 46.734375 
Q 21.96875 47.46875 24.109375 47.828125 
Q 26.265625 48.1875 28.421875 48.1875 
Q 40.625 48.1875 47.75 41.5 
Q 54.890625 34.8125 54.890625 23.390625 
Q 54.890625 11.625 47.5625 5.09375 
Q 40.234375 -1.421875 26.90625 -1.421875 
Q 22.3125 -1.421875 17.546875 -0.640625 
Q 12.796875 0.140625 7.71875 1.703125 
L 7.71875 11.625 
Q 12.109375 9.234375 16.796875 8.0625 
Q 21.484375 6.890625 26.703125 6.890625 
Q 35.15625 6.890625 40.078125 11.328125 
Q 45.015625 15.765625 45.015625 23.390625 
Q 45.015625 31 40.078125 35.4375 
Q 35.15625 39.890625 26.703125 39.890625 
Q 22.75 39.890625 18.8125 39.015625 
Q 14.890625 38.140625 10.796875 36.28125 
z
" id="DejaVuSans-53"/>
    </defs>
    <g transform="translate(200.664375 28.56)scale(0.12 -0.12)">
     <use xlink:href="#DejaVuSans-116"/>
     <use x="39.208984" xlink:href="#DejaVuSans-32"/>
     <use x="70.996094" xlink:href="#DejaVuSans-61"/>
     <use x="154.785156" xlink:href="#DejaVuSans-32"/>
     <use x="186.572266" xlink:href="#DejaVuSans-50"/>
     <use x="250.195312" xlink:href="#DejaVuSans-46"/>
     <use x="281.982422" xlink:href="#DejaVuSans-53"/>
    </g>
   </g>
  </g>
 </g>
 <defs>
  <clipPath id="p1e670d0705">
   <rect height="217.44" width="334.8" x="54" y="34.56"/>
  </clipPath>
 </defs>
</svg>
