<?xml version="1.0" encoding="utf-8" standalone="no"?>
<!DOCTYPE svg PUBLIC "-//W3C//DTD SVG 1.1//EN"
  "http://www.w3.org/Graphics/SVG/1.1/DTD/svg11.dtd">
<!-- Created with matplotlib (https://matplotlib.org/) -->
<svg height="288pt" version="1.1" viewBox="0 0 432 288" width="432pt" xmlns="http://www.w3.org/2000/svg" xmlns:xlink="http://www.w3.org/1999/xlink">
 <defs>
  <style type="text/css">
*{stroke-linecap:butt;stroke-linejoin:round;}
  </style>
 </defs>
 <g id="figure_1">
  <g id="patch_1">
   <path d="M 0 288 
L 432 288 
L 432 0 
L 0 0 
z
" style="fill:#ffffff;"/>
  </g>
  <g id="axes_1">
   <g id="patch_2">
    <path clip-path="url(#p2de600ed93)" d="M 171.017882 148.660492 
L 172.058436 159.482582 
L 170.976227 159.586637 
L 169.935673 148.764547 
z
" style="stroke:#000000;stroke-linejoin:miter;"/>
   </g>
   <g id="patch_3">
    <path clip-path="url(#p2de600ed93)" d="M 225.128332 143.457724 
L 226.168886 154.279814 
L 225.086677 154.38387 
L 224.046123 143.56178 
z
" style="stroke:#000000;stroke-linejoin:miter;"/>
   </g>
   <g id="patch_4">
    <path clip-path="url(#p2de600ed93)" d="M 188.513594 146.978264 
L 188.312724 146.443487 
L 187.821574 145.972865 
L 187.050626 145.599261 
L 186.014629 145.350544 
L 184.732219 145.247705 
L 183.225509 145.303412 
L 181.519656 145.521077 
L 179.642418 145.894523 
L 177.623721 146.408251 
L 175.495218 147.03831 
L 173.289874 147.753707 
L 171.041552 148.518259 
L 168.78461 149.292795 
L 166.553504 150.037534 
L 164.382395 150.714508 
L 162.304746 151.289875 
L 160.352919 151.735954 
L 158.557759 152.032878 
L 156.948159 152.169736 
L 155.550635 152.14515 
L 154.388875 151.96724 
L 153.483306 151.652986 
L 152.850672 151.227029 
L 152.503632 150.719992 
L 152.450407 150.166433 
L 152.694478 149.60256 
L 153.23436 149.063864 
L 154.06346 148.58282 
L 155.170037 148.186808 
L 156.537273 147.896388 
L 158.14346 147.724045 
L 159.962309 147.673478 
L 161.963372 147.739484 
L 164.112588 147.908434 
L 166.372912 148.159322 
L 168.705046 148.465301 
L 171.06822 148.795609 
L 173.421029 149.117758 
L 175.722281 149.399841 
L 177.93184 149.612793 
L 180.01144 149.732466 
L 181.925442 149.74138 
L 183.641517 149.630024 
L 185.131237 149.397621 
L 186.370558 149.052316 
L 187.340184 148.610757 
L 188.025821 148.097101 
L 188.4183 147.541516 
z
" style="fill:#0000ff;stroke:#000000;stroke-linejoin:miter;"/>
   </g>
   <g id="patch_5">
    <path clip-path="url(#p2de600ed93)" d="M 242.624044 141.775496 
L 242.423174 141.24072 
L 241.932024 140.770097 
L 241.161076 140.396493 
L 240.125079 140.147776 
L 238.842669 140.044938 
L 237.335959 140.100644 
L 235.630106 140.318309 
L 233.752868 140.691755 
L 231.734171 141.205483 
L 229.605668 141.835543 
L 227.400324 142.550939 
L 225.152002 143.315491 
L 222.89506 144.090028 
L 220.663954 144.834766 
L 218.492845 145.51174 
L 216.415196 146.087107 
L 214.46337 146.533186 
L 212.668209 146.83011 
L 211.058609 146.966968 
L 209.661085 146.942382 
L 208.499325 146.764473 
L 207.593756 146.450219 
L 206.961122 146.024261 
L 206.614082 145.517224 
L 206.560857 144.963665 
L 206.804928 144.399792 
L 207.34481 143.861096 
L 208.17391 143.380052 
L 209.280487 142.98404 
L 210.647723 142.69362 
L 212.253911 142.521277 
L 214.072759 142.470711 
L 216.073823 142.536716 
L 218.223038 142.705666 
L 220.483362 142.956554 
L 222.815496 143.262533 
L 225.17867 143.592841 
L 227.531479 143.914991 
L 229.832731 144.197074 
L 232.04229 144.410025 
L 234.12189 144.529698 
L 236.035892 144.538612 
L 237.751967 144.427256 
L 239.241687 144.194853 
L 240.481008 143.849549 
L 241.450634 143.407989 
L 242.136271 142.894333 
L 242.52875 142.338749 
z
" style="fill:#0000ff;stroke:#000000;stroke-linejoin:miter;"/>
   </g>
   <g id="patch_6">
    <path clip-path="url(#p2de600ed93)" d="M 230.778688 151.106043 
L 165.846148 157.349364 
L 166.366424 162.760409 
L 231.298964 156.517088 
z
" style="fill:#999999;stroke:#000000;stroke-linejoin:miter;"/>
   </g>
   <g id="text_1">
    <!-- t = 0.5 -->
    <defs>
     <path d="M 18.3125 70.21875 
L 18.3125 54.6875 
L 36.8125 54.6875 
L 36.8125 47.703125 
L 18.3125 47.703125 
L 18.3125 18.015625 
Q 18.3125 11.328125 20.140625 9.421875 
Q 21.96875 7.515625 27.59375 7.515625 
L 36.8125 7.515625 
L 36.8125 0 
L 27.59375 0 
Q 17.1875 0 13.234375 3.875 
Q 9.28125 7.765625 9.28125 18.015625 
L 9.28125 47.703125 
L 2.6875 47.703125 
L 2.6875 54.6875 
L 9.28125 54.6875 
L 9.28125 70.21875 
z
" id="DejaVuSans-116"/>
     <path id="DejaVuSans-32"/>
     <path d="M 10.59375 45.40625 
L 73.1875 45.40625 
L 73.1875 37.203125 
L 10.59375 37.203125 
z
M 10.59375 25.484375 
L 73.1875 25.484375 
L 73.1875 17.1875 
L 10.59375 17.1875 
z
" id="DejaVuSans-61"/>
     <path d="M 31.78125 66.40625 
Q 24.171875 66.40625 20.328125 58.90625 
Q 16.5 51.421875 16.5 36.375 
Q 16.5 21.390625 20.328125 13.890625 
Q 24.171875 6.390625 31.78125 6.390625 
Q 39.453125 6.390625 43.28125 13.890625 
Q 47.125 21.390625 47.125 36.375 
Q 47.125 51.421875 43.28125 58.90625 
Q 39.453125 66.40625 31.78125 66.40625 
z
M 31.78125 74.21875 
Q 44.046875 74.21875 50.515625 64.515625 
Q 56.984375 54.828125 56.984375 36.375 
Q 56.984375 17.96875 50.515625 8.265625 
Q 44.046875 -1.421875 31.78125 -1.421875 
Q 19.53125 -1.421875 13.0625 8.265625 
Q 6.59375 17.96875 6.59375 36.375 
Q 6.59375 54.828125 13.0625 64.515625 
Q 19.53125 74.21875 31.78125 74.21875 
z
" id="DejaVuSans-48"/>
     <path d="M 10.6875 12.40625 
L 21 12.40625 
L 21 0 
L 10.6875 0 
z
" id="DejaVuSans-46"/>
     <path d="M 10.796875 72.90625 
L 49.515625 72.90625 
L 49.515625 64.59375 
L 19.828125 64.59375 
L 19.828125 46.734375 
Q 21.96875 47.46875 24.109375 47.828125 
Q 26.265625 48.1875 28.421875 48.1875 
Q 40.625 48.1875 47.75 41.5 
Q 54.890625 34.8125 54.890625 23.390625 
Q 54.890625 11.625 47.5625 5.09375 
Q 40.234375 -1.421875 26.90625 -1.421875 
Q 22.3125 -1.421875 17.546875 -0.640625 
Q 12.796875 0.140625 7.71875 1.703125 
L 7.71875 11.625 
Q 12.109375 9.234375 16.796875 8.0625 
Q 21.484375 6.890625 26.703125 6.890625 
Q 35.15625 6.890625 40.078125 11.328125 
Q 45.015625 15.765625 45.015625 23.390625 
Q 45.015625 31 40.078125 35.4375 
Q 35.15625 39.890625 26.703125 39.890625 
Q 22.75 39.890625 18.8125 39.015625 
Q 14.890625 38.140625 10.796875 36.28125 
z
" id="DejaVuSans-53"/>
    </defs>
    <g transform="translate(200.664375 28.56)scale(0.12 -0.12)">
     <use xlink:href="#DejaVuSans-116"/>
     <use x="39.208984" xlink:href="#DejaVuSans-32"/>
     <use x="70.996094" xlink:href="#DejaVuSans-61"/>
     <use x="154.785156" xlink:href="#DejaVuSans-32"/>
     <use x="186.572266" xlink:href="#DejaVuSans-48"/>
     <use x="250.195312" xlink:href="#DejaVuSans-46"/>
     <use x="281.982422" xlink:href="#DejaVuSans-53"/>
    </g>
   </g>
  </g>
 </g>
 <defs>
  <clipPath id="p2de600ed93">
   <rect height="217.44" width="334.8" x="54" y="34.56"/>
  </clipPath>
 </defs>
</svg>
