<?xml version="1.0" encoding="utf-8" standalone="no"?>
<!DOCTYPE svg PUBLIC "-//W3C//DTD SVG 1.1//EN"
  "http://www.w3.org/Graphics/SVG/1.1/DTD/svg11.dtd">
<!-- Created with matplotlib (https://matplotlib.org/) -->
<svg height="288pt" version="1.1" viewBox="0 0 432 288" width="432pt" xmlns="http://www.w3.org/2000/svg" xmlns:xlink="http://www.w3.org/1999/xlink">
 <defs>
  <style type="text/css">
*{stroke-linecap:butt;stroke-linejoin:round;}
  </style>
 </defs>
 <g id="figure_1">
  <g id="patch_1">
   <path d="M 0 288 
L 432 288 
L 432 0 
L 0 0 
z
" style="fill:#ffffff;"/>
  </g>
  <g id="axes_1">
   <g id="patch_2">
    <path clip-path="url(#p4d0bb0e13e)" d="M 177.527873 165.312282 
L 180.616687 175.736274 
L 179.574288 176.045156 
L 176.485474 165.621164 
z
" style="stroke:#000000;stroke-linejoin:miter;"/>
   </g>
   <g id="patch_3">
    <path clip-path="url(#p4d0bb0e13e)" d="M 229.647833 149.86821 
L 232.736647 160.292202 
L 231.694248 160.601084 
L 228.605434 150.177092 
z
" style="stroke:#000000;stroke-linejoin:miter;"/>
   </g>
   <g id="patch_4">
    <path clip-path="url(#p4d0bb0e13e)" d="M 194.379993 160.318699 
L 194.08066 159.832146 
L 193.508649 159.464019 
L 192.680528 159.244576 
L 191.616096 159.198353 
L 190.337659 159.342397 
L 188.869341 159.684916 
L 187.236487 160.224455 
L 185.465165 160.949645 
L 183.581787 161.839558 
L 181.612851 162.864638 
L 179.584791 163.988162 
L 177.523935 165.168147 
L 175.456525 166.359579 
L 173.408783 167.516826 
L 171.406987 168.596096 
L 169.477519 169.557775 
L 167.646858 170.368511 
L 165.941483 171.002909 
L 164.387673 171.44474 
L 163.011191 171.687587 
L 161.836839 171.734894 
L 160.887914 171.599425 
L 160.185558 171.302169 
L 159.748046 170.870768 
L 159.590051 170.337572 
L 159.721906 169.737457 
L 160.148933 169.105545 
L 160.870866 168.474972 
L 161.88141 167.874855 
L 163.167985 167.32859 
L 164.711666 166.85258 
L 166.487356 166.455476 
L 168.464175 166.137988 
L 170.606084 165.893245 
L 172.872708 165.707706 
L 175.220344 165.562525 
L 177.603096 165.435294 
L 179.974115 165.302036 
L 182.286873 165.139299 
L 184.49642 164.926219 
L 186.560581 164.646407 
L 188.441035 164.289511 
L 190.104232 163.852371 
L 191.522118 163.339656 
L 192.672647 162.763954 
L 193.540061 162.145291 
L 194.114943 161.510113 
L 194.394057 160.889783 
z
" style="fill:#0000ff;stroke:#000000;stroke-linejoin:miter;"/>
   </g>
   <g id="patch_5">
    <path clip-path="url(#p4d0bb0e13e)" d="M 246.499953 144.874627 
L 246.20062 144.388073 
L 245.628609 144.019946 
L 244.800488 143.800503 
L 243.736056 143.754281 
L 242.457619 143.898325 
L 240.989301 144.240844 
L 239.356447 144.780382 
L 237.585125 145.505573 
L 235.701747 146.395486 
L 233.732811 147.420566 
L 231.704751 148.54409 
L 229.643895 149.724075 
L 227.576485 150.915507 
L 225.528743 152.072754 
L 223.526947 153.152024 
L 221.597479 154.113703 
L 219.766818 154.924439 
L 218.061443 155.558837 
L 216.507633 156.000668 
L 215.13115 156.243515 
L 213.956799 156.290821 
L 213.007874 156.155353 
L 212.305518 155.858097 
L 211.868006 155.426696 
L 211.710011 154.8935 
L 211.841866 154.293385 
L 212.268893 153.661473 
L 212.990826 153.030899 
L 214.00137 152.430783 
L 215.287945 151.884518 
L 216.831626 151.408507 
L 218.607316 151.011404 
L 220.584135 150.693915 
L 222.726044 150.449173 
L 224.992668 150.263634 
L 227.340304 150.118453 
L 229.723056 149.991222 
L 232.094075 149.857964 
L 234.406833 149.695226 
L 236.61638 149.482147 
L 238.680541 149.202334 
L 240.560995 148.845438 
L 242.224192 148.408298 
L 243.642078 147.895583 
L 244.792607 147.319881 
L 245.660021 146.701219 
L 246.234903 146.066041 
L 246.514017 145.445711 
z
" style="fill:#0000ff;stroke:#000000;stroke-linejoin:miter;"/>
   </g>
   <g id="patch_6">
    <path clip-path="url(#p4d0bb0e13e)" d="M 236.65524 156.296238 
L 174.111288 174.829124 
L 175.655695 180.04112 
L 238.199647 161.508234 
z
" style="fill:#999999;stroke:#000000;stroke-linejoin:miter;"/>
   </g>
   <g id="text_1">
    <!-- t = 0.7 -->
    <defs>
     <path d="M 18.3125 70.21875 
L 18.3125 54.6875 
L 36.8125 54.6875 
L 36.8125 47.703125 
L 18.3125 47.703125 
L 18.3125 18.015625 
Q 18.3125 11.328125 20.140625 9.421875 
Q 21.96875 7.515625 27.59375 7.515625 
L 36.8125 7.515625 
L 36.8125 0 
L 27.59375 0 
Q 17.1875 0 13.234375 3.875 
Q 9.28125 7.765625 9.28125 18.015625 
L 9.28125 47.703125 
L 2.6875 47.703125 
L 2.6875 54.6875 
L 9.28125 54.6875 
L 9.28125 70.21875 
z
" id="DejaVuSans-116"/>
     <path id="DejaVuSans-32"/>
     <path d="M 10.59375 45.40625 
L 73.1875 45.40625 
L 73.1875 37.203125 
L 10.59375 37.203125 
z
M 10.59375 25.484375 
L 73.1875 25.484375 
L 73.1875 17.1875 
L 10.59375 17.1875 
z
" id="DejaVuSans-61"/>
     <path d="M 31.78125 66.40625 
Q 24.171875 66.40625 20.328125 58.90625 
Q 16.5 51.421875 16.5 36.375 
Q 16.5 21.390625 20.328125 13.890625 
Q 24.171875 6.390625 31.78125 6.390625 
Q 39.453125 6.390625 43.28125 13.890625 
Q 47.125 21.390625 47.125 36.375 
Q 47.125 51.421875 43.28125 58.90625 
Q 39.453125 66.40625 31.78125 66.40625 
z
M 31.78125 74.21875 
Q 44.046875 74.21875 50.515625 64.515625 
Q 56.984375 54.828125 56.984375 36.375 
Q 56.984375 17.96875 50.515625 8.265625 
Q 44.046875 -1.421875 31.78125 -1.421875 
Q 19.53125 -1.421875 13.0625 8.265625 
Q 6.59375 17.96875 6.59375 36.375 
Q 6.59375 54.828125 13.0625 64.515625 
Q 19.53125 74.21875 31.78125 74.21875 
z
" id="DejaVuSans-48"/>
     <path d="M 10.6875 12.40625 
L 21 12.40625 
L 21 0 
L 10.6875 0 
z
" id="DejaVuSans-46"/>
     <path d="M 8.203125 72.90625 
L 55.078125 72.90625 
L 55.078125 68.703125 
L 28.609375 0 
L 18.3125 0 
L 43.21875 64.59375 
L 8.203125 64.59375 
z
" id="DejaVuSans-55"/>
    </defs>
    <g transform="translate(200.664375 28.56)scale(0.12 -0.12)">
     <use xlink:href="#DejaVuSans-116"/>
     <use x="39.208984" xlink:href="#DejaVuSans-32"/>
     <use x="70.996094" xlink:href="#DejaVuSans-61"/>
     <use x="154.785156" xlink:href="#DejaVuSans-32"/>
     <use x="186.572266" xlink:href="#DejaVuSans-48"/>
     <use x="250.195312" xlink:href="#DejaVuSans-46"/>
     <use x="281.982422" xlink:href="#DejaVuSans-55"/>
    </g>
   </g>
  </g>
 </g>
 <defs>
  <clipPath id="p4d0bb0e13e">
   <rect height="217.44" width="334.8" x="54" y="34.56"/>
  </clipPath>
 </defs>
</svg>
