<?xml version="1.0" encoding="utf-8" standalone="no"?>
<!DOCTYPE svg PUBLIC "-//W3C//DTD SVG 1.1//EN"
  "http://www.w3.org/Graphics/SVG/1.1/DTD/svg11.dtd">
<!-- Created with matplotlib (https://matplotlib.org/) -->
<svg height="288pt" version="1.1" viewBox="0 0 432 288" width="432pt" xmlns="http://www.w3.org/2000/svg" xmlns:xlink="http://www.w3.org/1999/xlink">
 <defs>
  <style type="text/css">
*{stroke-linecap:butt;stroke-linejoin:round;}
  </style>
 </defs>
 <g id="figure_1">
  <g id="patch_1">
   <path d="M 0 288 
L 432 288 
L 432 0 
L 0 0 
z
" style="fill:#ffffff;"/>
  </g>
  <g id="axes_1">
   <g id="patch_2">
    <path clip-path="url(#p4858e09d93)" d="M 195.39503 131.812118 
L 195.252769 142.683187 
L 194.165662 142.668961 
L 194.307923 131.797892 
z
" style="stroke:#000000;stroke-linejoin:miter;"/>
   </g>
   <g id="patch_3">
    <path clip-path="url(#p4858e09d93)" d="M 249.750376 132.523421 
L 249.608115 143.39449 
L 248.521008 143.380264 
L 248.663269 132.509195 
z
" style="stroke:#000000;stroke-linejoin:miter;"/>
   </g>
   <g id="patch_4">
    <path clip-path="url(#p4858e09d93)" d="M 212.969925 132.042106 
L 212.82839 131.48866 
L 212.391321 130.967427 
L 211.665564 130.512215 
L 210.66275 130.152332 
L 209.399124 129.910672 
L 207.89529 129.802229 
L 206.175883 129.833133 
L 204.269171 130.00026 
L 202.206585 130.291457 
L 200.022196 130.686357 
L 197.752144 131.157733 
L 195.434024 131.673302 
L 193.106249 132.197857 
L 190.807397 132.695601 
L 188.575554 133.132505 
L 186.447664 133.478566 
L 184.458908 133.709786 
L 182.642106 133.809768 
L 181.027169 133.770809 
L 179.640603 133.594422 
L 178.505073 133.291253 
L 177.639041 132.880403 
L 177.05647 132.388187 
L 176.766615 131.846423 
L 176.773892 131.290358 
L 177.077824 130.756365 
L 177.673076 130.279562 
L 178.549563 129.891515 
L 179.692637 129.618165 
L 181.083344 129.478121 
L 182.698748 129.481434 
L 184.512311 129.628924 
L 186.494336 129.912107 
L 188.612441 130.313731 
L 190.832087 130.808889 
L 193.117127 131.366618 
L 195.430378 131.951907 
L 197.734213 132.527959 
L 199.991153 133.058576 
L 202.16446 133.510502 
L 204.21872 133.855573 
L 206.120405 134.072537 
L 207.838415 134.148423 
L 209.344572 134.07937 
L 210.614089 133.870859 
L 211.625976 133.53734 
L 212.363397 133.101276 
L 212.813956 132.591659 
z
" style="fill:#0000ff;stroke:#000000;stroke-linejoin:miter;"/>
   </g>
   <g id="patch_5">
    <path clip-path="url(#p4858e09d93)" d="M 267.325271 132.753409 
L 267.183736 132.199963 
L 266.746667 131.67873 
L 266.02091 131.223518 
L 265.018096 130.863635 
L 263.75447 130.621975 
L 262.250636 130.513533 
L 260.531229 130.544436 
L 258.624517 130.711563 
L 256.561931 131.00276 
L 254.377542 131.39766 
L 252.10749 131.869037 
L 249.78937 132.384605 
L 247.461595 132.909161 
L 245.162743 133.406904 
L 242.9309 133.843809 
L 240.80301 134.18987 
L 238.814255 134.42109 
L 236.997452 134.521072 
L 235.382515 134.482113 
L 233.995949 134.305725 
L 232.860419 134.002556 
L 231.994387 133.591706 
L 231.411816 133.09949 
L 231.121962 132.557726 
L 231.129238 132.001662 
L 231.43317 131.467669 
L 232.028422 130.990866 
L 232.904909 130.602819 
L 234.047983 130.329468 
L 235.43869 130.189424 
L 237.054094 130.192738 
L 238.867657 130.340228 
L 240.849682 130.62341 
L 242.967787 131.025034 
L 245.187433 131.520192 
L 247.472473 132.077921 
L 249.785724 132.66321 
L 252.089559 133.239262 
L 254.346499 133.769879 
L 256.519806 134.221805 
L 258.574066 134.566876 
L 260.475752 134.78384 
L 262.193761 134.859726 
L 263.699918 134.790673 
L 264.969435 134.582162 
L 265.981322 134.248644 
L 266.718743 133.81258 
L 267.169302 133.302962 
z
" style="fill:#0000ff;stroke:#000000;stroke-linejoin:miter;"/>
   </g>
   <g id="patch_6">
    <path clip-path="url(#p4858e09d93)" d="M 254.535661 140.74074 
L 189.309246 139.887176 
L 189.238116 145.322711 
L 254.464531 146.176275 
z
" style="fill:#999999;stroke:#000000;stroke-linejoin:miter;"/>
   </g>
   <g id="text_1">
    <!-- t = 1.6 -->
    <defs>
     <path d="M 18.3125 70.21875 
L 18.3125 54.6875 
L 36.8125 54.6875 
L 36.8125 47.703125 
L 18.3125 47.703125 
L 18.3125 18.015625 
Q 18.3125 11.328125 20.140625 9.421875 
Q 21.96875 7.515625 27.59375 7.515625 
L 36.8125 7.515625 
L 36.8125 0 
L 27.59375 0 
Q 17.1875 0 13.234375 3.875 
Q 9.28125 7.765625 9.28125 18.015625 
L 9.28125 47.703125 
L 2.6875 47.703125 
L 2.6875 54.6875 
L 9.28125 54.6875 
L 9.28125 70.21875 
z
" id="DejaVuSans-116"/>
     <path id="DejaVuSans-32"/>
     <path d="M 10.59375 45.40625 
L 73.1875 45.40625 
L 73.1875 37.203125 
L 10.59375 37.203125 
z
M 10.59375 25.484375 
L 73.1875 25.484375 
L 73.1875 17.1875 
L 10.59375 17.1875 
z
" id="DejaVuSans-61"/>
     <path d="M 12.40625 8.296875 
L 28.515625 8.296875 
L 28.515625 63.921875 
L 10.984375 60.40625 
L 10.984375 69.390625 
L 28.421875 72.90625 
L 38.28125 72.90625 
L 38.28125 8.296875 
L 54.390625 8.296875 
L 54.390625 0 
L 12.40625 0 
z
" id="DejaVuSans-49"/>
     <path d="M 10.6875 12.40625 
L 21 12.40625 
L 21 0 
L 10.6875 0 
z
" id="DejaVuSans-46"/>
     <path d="M 33.015625 40.375 
Q 26.375 40.375 22.484375 35.828125 
Q 18.609375 31.296875 18.609375 23.390625 
Q 18.609375 15.53125 22.484375 10.953125 
Q 26.375 6.390625 33.015625 6.390625 
Q 39.65625 6.390625 43.53125 10.953125 
Q 47.40625 15.53125 47.40625 23.390625 
Q 47.40625 31.296875 43.53125 35.828125 
Q 39.65625 40.375 33.015625 40.375 
z
M 52.59375 71.296875 
L 52.59375 62.3125 
Q 48.875 64.0625 45.09375 64.984375 
Q 41.3125 65.921875 37.59375 65.921875 
Q 27.828125 65.921875 22.671875 59.328125 
Q 17.53125 52.734375 16.796875 39.40625 
Q 19.671875 43.65625 24.015625 45.921875 
Q 28.375 48.1875 33.59375 48.1875 
Q 44.578125 48.1875 50.953125 41.515625 
Q 57.328125 34.859375 57.328125 23.390625 
Q 57.328125 12.15625 50.6875 5.359375 
Q 44.046875 -1.421875 33.015625 -1.421875 
Q 20.359375 -1.421875 13.671875 8.265625 
Q 6.984375 17.96875 6.984375 36.375 
Q 6.984375 53.65625 15.1875 63.9375 
Q 23.390625 74.21875 37.203125 74.21875 
Q 40.921875 74.21875 44.703125 73.484375 
Q 48.484375 72.75 52.59375 71.296875 
z
" id="DejaVuSans-54"/>
    </defs>
    <g transform="translate(200.664375 28.56)scale(0.12 -0.12)">
     <use xlink:href="#DejaVuSans-116"/>
     <use x="39.208984" xlink:href="#DejaVuSans-32"/>
     <use x="70.996094" xlink:href="#DejaVuSans-61"/>
     <use x="154.785156" xlink:href="#DejaVuSans-32"/>
     <use x="186.572266" xlink:href="#DejaVuSans-49"/>
     <use x="250.195312" xlink:href="#DejaVuSans-46"/>
     <use x="281.982422" xlink:href="#DejaVuSans-54"/>
    </g>
   </g>
  </g>
 </g>
 <defs>
  <clipPath id="p4858e09d93">
   <rect height="217.44" width="334.8" x="54" y="34.56"/>
  </clipPath>
 </defs>
</svg>
