<?xml version="1.0" encoding="utf-8" standalone="no"?>
<!DOCTYPE svg PUBLIC "-//W3C//DTD SVG 1.1//EN"
  "http://www.w3.org/Graphics/SVG/1.1/DTD/svg11.dtd">
<!-- Created with matplotlib (https://matplotlib.org/) -->
<svg height="288pt" version="1.1" viewBox="0 0 432 288" width="432pt" xmlns="http://www.w3.org/2000/svg" xmlns:xlink="http://www.w3.org/1999/xlink">
 <defs>
  <style type="text/css">
*{stroke-linecap:butt;stroke-linejoin:round;}
  </style>
 </defs>
 <g id="figure_1">
  <g id="patch_1">
   <path d="M 0 288 
L 432 288 
L 432 0 
L 0 0 
z
" style="fill:#ffffff;"/>
  </g>
  <g id="axes_1">
   <g id="patch_2">
    <path clip-path="url(#p38f955936b)" d="M 194.783972 132.413399 
L 194.785281 143.285399 
L 193.698081 143.28553 
L 193.696772 132.41353 
z
" style="stroke:#000000;stroke-linejoin:miter;"/>
   </g>
   <g id="patch_3">
    <path clip-path="url(#p38f955936b)" d="M 249.143971 132.40685 
L 249.145281 143.27885 
L 248.058081 143.278981 
L 248.056771 132.406981 
z
" style="stroke:#000000;stroke-linejoin:miter;"/>
   </g>
   <g id="patch_4">
    <path clip-path="url(#p38f955936b)" d="M 212.360372 132.411281 
L 212.21154 131.859753 
L 211.767626 131.344336 
L 211.035921 130.898749 
L 210.028443 130.55214 
L 208.761735 130.327187 
L 207.2566 130.238613 
L 205.537751 130.29222 
L 203.633413 130.484511 
L 201.574852 130.80292 
L 199.395869 131.226632 
L 197.132239 131.727945 
L 194.82113 132.27408 
L 192.500485 132.829329 
L 190.208406 133.357387 
L 187.982527 133.823726 
L 185.859393 134.197856 
L 183.873864 134.455319 
L 182.05854 134.579284 
L 180.44323 134.561654 
L 179.054455 134.403593 
L 177.915021 134.115445 
L 177.043638 133.716067 
L 176.454618 133.231587 
L 176.157635 132.693699 
L 176.157568 132.137587 
L 176.454422 131.599626 
L 177.043325 131.115004 
L 177.914611 130.715417 
L 179.053976 130.426995 
L 180.442712 130.268598 
L 182.058019 130.250579 
L 183.873372 130.374107 
L 185.858963 130.631091 
L 187.982187 131.00471 
L 190.208179 131.470513 
L 192.500384 131.998019 
L 194.821163 132.552709 
L 197.132404 133.098287 
L 199.396154 133.599054 
L 201.57524 134.022241 
L 203.633877 134.340154 
L 205.538262 134.531986 
L 207.257124 134.585179 
L 208.762238 134.496242 
L 210.028891 134.270985 
L 211.036285 133.924133 
L 211.767883 133.478369 
L 212.211673 132.962846 
z
" style="fill:#0000ff;stroke:#000000;stroke-linejoin:miter;"/>
   </g>
   <g id="patch_5">
    <path clip-path="url(#p38f955936b)" d="M 266.720371 132.404732 
L 266.57154 131.853204 
L 266.127626 131.337788 
L 265.395921 130.8922 
L 264.388442 130.545591 
L 263.121735 130.320639 
L 261.6166 130.232064 
L 259.897751 130.285671 
L 257.993412 130.477962 
L 255.934852 130.796371 
L 253.755868 131.220083 
L 251.492239 131.721396 
L 249.181129 132.267531 
L 246.860484 132.82278 
L 244.568406 133.350838 
L 242.342526 133.817177 
L 240.219392 134.191308 
L 238.233863 134.44877 
L 236.41854 134.572735 
L 234.803229 134.555106 
L 233.414454 134.397044 
L 232.27502 134.108897 
L 231.403638 133.709519 
L 230.814618 133.225039 
L 230.517634 132.68715 
L 230.517567 132.131038 
L 230.814421 131.593078 
L 231.403325 131.108456 
L 232.274611 130.708868 
L 233.413975 130.420446 
L 234.802712 130.26205 
L 236.418019 130.244031 
L 238.233372 130.367559 
L 240.218963 130.624543 
L 242.342187 130.998162 
L 244.568178 131.463964 
L 246.860384 131.99147 
L 249.181163 132.54616 
L 251.492404 133.091738 
L 253.756154 133.592505 
L 255.935239 134.015692 
L 257.993877 134.333605 
L 259.898262 134.525438 
L 261.617123 134.57863 
L 263.122237 134.489693 
L 264.38889 134.264436 
L 265.396285 133.917584 
L 266.127883 133.47182 
L 266.571673 132.956297 
z
" style="fill:#0000ff;stroke:#000000;stroke-linejoin:miter;"/>
   </g>
   <g id="patch_6">
    <path clip-path="url(#p38f955936b)" d="M 254.037354 140.56026 
L 188.805354 140.568119 
L 188.806009 146.004119 
L 254.038008 145.99626 
z
" style="fill:#999999;stroke:#000000;stroke-linejoin:miter;"/>
   </g>
   <g id="text_1">
    <!-- t = 3.4 -->
    <defs>
     <path d="M 18.3125 70.21875 
L 18.3125 54.6875 
L 36.8125 54.6875 
L 36.8125 47.703125 
L 18.3125 47.703125 
L 18.3125 18.015625 
Q 18.3125 11.328125 20.140625 9.421875 
Q 21.96875 7.515625 27.59375 7.515625 
L 36.8125 7.515625 
L 36.8125 0 
L 27.59375 0 
Q 17.1875 0 13.234375 3.875 
Q 9.28125 7.765625 9.28125 18.015625 
L 9.28125 47.703125 
L 2.6875 47.703125 
L 2.6875 54.6875 
L 9.28125 54.6875 
L 9.28125 70.21875 
z
" id="DejaVuSans-116"/>
     <path id="DejaVuSans-32"/>
     <path d="M 10.59375 45.40625 
L 73.1875 45.40625 
L 73.1875 37.203125 
L 10.59375 37.203125 
z
M 10.59375 25.484375 
L 73.1875 25.484375 
L 73.1875 17.1875 
L 10.59375 17.1875 
z
" id="DejaVuSans-61"/>
     <path d="M 40.578125 39.3125 
Q 47.65625 37.796875 51.625 33 
Q 55.609375 28.21875 55.609375 21.1875 
Q 55.609375 10.40625 48.1875 4.484375 
Q 40.765625 -1.421875 27.09375 -1.421875 
Q 22.515625 -1.421875 17.65625 -0.515625 
Q 12.796875 0.390625 7.625 2.203125 
L 7.625 11.71875 
Q 11.71875 9.328125 16.59375 8.109375 
Q 21.484375 6.890625 26.8125 6.890625 
Q 36.078125 6.890625 40.9375 10.546875 
Q 45.796875 14.203125 45.796875 21.1875 
Q 45.796875 27.640625 41.28125 31.265625 
Q 36.765625 34.90625 28.71875 34.90625 
L 20.21875 34.90625 
L 20.21875 43.015625 
L 29.109375 43.015625 
Q 36.375 43.015625 40.234375 45.921875 
Q 44.09375 48.828125 44.09375 54.296875 
Q 44.09375 59.90625 40.109375 62.90625 
Q 36.140625 65.921875 28.71875 65.921875 
Q 24.65625 65.921875 20.015625 65.03125 
Q 15.375 64.15625 9.8125 62.3125 
L 9.8125 71.09375 
Q 15.4375 72.65625 20.34375 73.4375 
Q 25.25 74.21875 29.59375 74.21875 
Q 40.828125 74.21875 47.359375 69.109375 
Q 53.90625 64.015625 53.90625 55.328125 
Q 53.90625 49.265625 50.4375 45.09375 
Q 46.96875 40.921875 40.578125 39.3125 
z
" id="DejaVuSans-51"/>
     <path d="M 10.6875 12.40625 
L 21 12.40625 
L 21 0 
L 10.6875 0 
z
" id="DejaVuSans-46"/>
     <path d="M 37.796875 64.3125 
L 12.890625 25.390625 
L 37.796875 25.390625 
z
M 35.203125 72.90625 
L 47.609375 72.90625 
L 47.609375 25.390625 
L 58.015625 25.390625 
L 58.015625 17.1875 
L 47.609375 17.1875 
L 47.609375 0 
L 37.796875 0 
L 37.796875 17.1875 
L 4.890625 17.1875 
L 4.890625 26.703125 
z
" id="DejaVuSans-52"/>
    </defs>
    <g transform="translate(200.664375 28.56)scale(0.12 -0.12)">
     <use xlink:href="#DejaVuSans-116"/>
     <use x="39.208984" xlink:href="#DejaVuSans-32"/>
     <use x="70.996094" xlink:href="#DejaVuSans-61"/>
     <use x="154.785156" xlink:href="#DejaVuSans-32"/>
     <use x="186.572266" xlink:href="#DejaVuSans-51"/>
     <use x="250.195312" xlink:href="#DejaVuSans-46"/>
     <use x="281.982422" xlink:href="#DejaVuSans-52"/>
    </g>
   </g>
  </g>
 </g>
 <defs>
  <clipPath id="p38f955936b">
   <rect height="217.44" width="334.8" x="54" y="34.56"/>
  </clipPath>
 </defs>
</svg>
