<?xml version="1.0" encoding="utf-8" standalone="no"?>
<!DOCTYPE svg PUBLIC "-//W3C//DTD SVG 1.1//EN"
  "http://www.w3.org/Graphics/SVG/1.1/DTD/svg11.dtd">
<!-- Created with matplotlib (https://matplotlib.org/) -->
<svg height="288pt" version="1.1" viewBox="0 0 432 288" width="432pt" xmlns="http://www.w3.org/2000/svg" xmlns:xlink="http://www.w3.org/1999/xlink">
 <defs>
  <style type="text/css">
*{stroke-linecap:butt;stroke-linejoin:round;}
  </style>
 </defs>
 <g id="figure_1">
  <g id="patch_1">
   <path d="M 0 288 
L 432 288 
L 432 0 
L 0 0 
z
" style="fill:#ffffff;"/>
  </g>
  <g id="axes_1">
   <g id="patch_2">
    <path clip-path="url(#p5772dbe020)" d="M 180.394731 146.529048 
L 182.721026 157.149253 
L 181.659005 157.381882 
L 179.332711 146.761678 
z
" style="stroke:#000000;stroke-linejoin:miter;"/>
   </g>
   <g id="patch_3">
    <path clip-path="url(#p5772dbe020)" d="M 233.495752 134.897576 
L 235.822047 145.51778 
L 234.760026 145.75041 
L 232.433732 135.130206 
z
" style="stroke:#000000;stroke-linejoin:miter;"/>
   </g>
   <g id="patch_4">
    <path clip-path="url(#p5772dbe020)" d="M 197.564061 142.768206 
L 197.300727 142.261264 
L 196.756859 141.852704 
L 195.946791 141.573903 
L 194.888496 141.450765 
L 193.602986 141.501907 
L 192.113729 141.73726 
L 190.446109 142.157208 
L 188.626948 142.7523 
L 186.684103 143.503574 
L 184.646141 144.383466 
L 182.542087 145.357266 
L 180.401236 146.385006 
L 178.253019 147.423688 
L 176.126893 148.429698 
L 174.052236 149.361261 
L 172.058228 150.180776 
L 170.173692 150.856895 
L 168.426875 151.366205 
L 166.845163 151.694423 
L 165.454715 151.837012 
L 164.280019 151.799203 
L 163.343387 151.595413 
L 162.664386 151.248105 
L 162.259244 150.786171 
L 162.140252 150.242938 
L 162.315193 149.65394 
L 162.786835 149.05459 
L 163.552511 148.477919 
L 164.603838 147.952513 
L 165.926573 147.500794 
L 167.500657 147.137753 
L 169.300431 146.870204 
L 171.295043 146.696617 
L 173.449048 146.607534 
L 175.723156 146.586525 
L 178.075142 146.611631 
L 180.460854 146.657182 
L 182.8353 146.695872 
L 185.153771 146.700943 
L 187.372945 146.648335 
L 189.451944 146.518647 
L 191.353297 146.298782 
L 193.043769 145.983159 
L 194.495044 145.574406 
L 195.684221 145.083481 
L 196.594136 144.529219 
L 197.21348 143.937313 
L 197.536757 143.33881 
z
" style="fill:#0000ff;stroke:#000000;stroke-linejoin:miter;"/>
   </g>
   <g id="patch_5">
    <path clip-path="url(#p5772dbe020)" d="M 250.665083 131.136733 
L 250.401748 130.629792 
L 249.85788 130.221232 
L 249.047812 129.942431 
L 247.989517 129.819293 
L 246.704007 129.870434 
L 245.21475 130.105788 
L 243.54713 130.525736 
L 241.727969 131.120828 
L 239.785124 131.872101 
L 237.747162 132.751994 
L 235.643108 133.725794 
L 233.502257 134.753534 
L 231.35404 135.792216 
L 229.227914 136.798226 
L 227.153257 137.729789 
L 225.159249 138.549304 
L 223.274713 139.225422 
L 221.527897 139.734733 
L 219.946185 140.062951 
L 218.555736 140.20554 
L 217.381041 140.167731 
L 216.444409 139.963941 
L 215.765407 139.616633 
L 215.360265 139.154699 
L 215.241273 138.611466 
L 215.416215 138.022468 
L 215.887856 137.423118 
L 216.653532 136.846447 
L 217.704859 136.321041 
L 219.027594 135.869322 
L 220.601679 135.506281 
L 222.401452 135.238732 
L 224.396065 135.065145 
L 226.550069 134.976062 
L 228.824178 134.955053 
L 231.176164 134.980158 
L 233.561875 135.02571 
L 235.936322 135.0644 
L 238.254792 135.069471 
L 240.473966 135.016863 
L 242.552965 134.887174 
L 244.454318 134.667309 
L 246.14479 134.351687 
L 247.596065 133.942934 
L 248.785243 133.452009 
L 249.695157 132.897747 
L 250.314501 132.305841 
L 250.637778 131.707338 
z
" style="fill:#0000ff;stroke:#000000;stroke-linejoin:miter;"/>
   </g>
   <g id="patch_6">
    <path clip-path="url(#p5772dbe020)" d="M 240.019565 141.815897 
L 176.29834 155.773663 
L 177.461487 161.083766 
L 241.182712 147.125999 
z
" style="fill:#999999;stroke:#000000;stroke-linejoin:miter;"/>
   </g>
   <g id="text_1">
    <!-- t = 1.1 -->
    <defs>
     <path d="M 18.3125 70.21875 
L 18.3125 54.6875 
L 36.8125 54.6875 
L 36.8125 47.703125 
L 18.3125 47.703125 
L 18.3125 18.015625 
Q 18.3125 11.328125 20.140625 9.421875 
Q 21.96875 7.515625 27.59375 7.515625 
L 36.8125 7.515625 
L 36.8125 0 
L 27.59375 0 
Q 17.1875 0 13.234375 3.875 
Q 9.28125 7.765625 9.28125 18.015625 
L 9.28125 47.703125 
L 2.6875 47.703125 
L 2.6875 54.6875 
L 9.28125 54.6875 
L 9.28125 70.21875 
z
" id="DejaVuSans-116"/>
     <path id="DejaVuSans-32"/>
     <path d="M 10.59375 45.40625 
L 73.1875 45.40625 
L 73.1875 37.203125 
L 10.59375 37.203125 
z
M 10.59375 25.484375 
L 73.1875 25.484375 
L 73.1875 17.1875 
L 10.59375 17.1875 
z
" id="DejaVuSans-61"/>
     <path d="M 12.40625 8.296875 
L 28.515625 8.296875 
L 28.515625 63.921875 
L 10.984375 60.40625 
L 10.984375 69.390625 
L 28.421875 72.90625 
L 38.28125 72.90625 
L 38.28125 8.296875 
L 54.390625 8.296875 
L 54.390625 0 
L 12.40625 0 
z
" id="DejaVuSans-49"/>
     <path d="M 10.6875 12.40625 
L 21 12.40625 
L 21 0 
L 10.6875 0 
z
" id="DejaVuSans-46"/>
    </defs>
    <g transform="translate(200.664375 28.56)scale(0.12 -0.12)">
     <use xlink:href="#DejaVuSans-116"/>
     <use x="39.208984" xlink:href="#DejaVuSans-32"/>
     <use x="70.996094" xlink:href="#DejaVuSans-61"/>
     <use x="154.785156" xlink:href="#DejaVuSans-32"/>
     <use x="186.572266" xlink:href="#DejaVuSans-49"/>
     <use x="250.195312" xlink:href="#DejaVuSans-46"/>
     <use x="281.982422" xlink:href="#DejaVuSans-49"/>
    </g>
   </g>
  </g>
 </g>
 <defs>
  <clipPath id="p5772dbe020">
   <rect height="217.44" width="334.8" x="54" y="34.56"/>
  </clipPath>
 </defs>
</svg>
