<?xml version="1.0" encoding="utf-8" standalone="no"?>
<!DOCTYPE svg PUBLIC "-//W3C//DTD SVG 1.1//EN"
  "http://www.w3.org/Graphics/SVG/1.1/DTD/svg11.dtd">
<!-- Created with matplotlib (https://matplotlib.org/) -->
<svg height="288pt" version="1.1" viewBox="0 0 432 288" width="432pt" xmlns="http://www.w3.org/2000/svg" xmlns:xlink="http://www.w3.org/1999/xlink">
 <defs>
  <style type="text/css">
*{stroke-linecap:butt;stroke-linejoin:round;}
  </style>
 </defs>
 <g id="figure_1">
  <g id="patch_1">
   <path d="M 0 288 
L 432 288 
L 432 0 
L 0 0 
z
" style="fill:#ffffff;"/>
  </g>
  <g id="axes_1">
   <g id="patch_2">
    <path clip-path="url(#p609326cbb9)" d="M 194.702562 132.411063 
L 194.705199 143.283063 
L 193.617999 143.283327 
L 193.615362 132.411327 
z
" style="stroke:#000000;stroke-linejoin:miter;"/>
   </g>
   <g id="patch_3">
    <path clip-path="url(#p609326cbb9)" d="M 249.06256 132.397876 
L 249.065198 143.269876 
L 247.977998 143.27014 
L 247.97536 132.39814 
z
" style="stroke:#000000;stroke-linejoin:miter;"/>
   </g>
   <g id="patch_4">
    <path clip-path="url(#p609326cbb9)" d="M 212.278962 132.406799 
L 212.130063 131.855289 
L 211.686086 131.339927 
L 210.954326 130.894429 
L 209.946805 130.547943 
L 208.680071 130.323145 
L 207.174925 130.234755 
L 205.456083 130.288571 
L 203.551767 130.481095 
L 201.493246 130.799755 
L 199.314314 131.223733 
L 197.050746 131.725322 
L 194.739703 132.27174 
L 192.419126 132.827272 
L 190.127112 133.35561 
L 187.901289 133.822221 
L 185.778201 134.196611 
L 183.792703 134.454316 
L 181.977395 134.578503 
L 180.362082 134.56107 
L 178.973288 134.403178 
L 177.833819 134.11517 
L 176.962388 133.715898 
L 176.373309 133.23149 
L 176.07626 132.693638 
L 176.076125 132.137526 
L 176.372913 131.599529 
L 176.961757 131.114835 
L 177.832994 130.715141 
L 178.972324 130.42658 
L 180.361041 130.268014 
L 181.976345 130.249798 
L 183.791713 130.373104 
L 185.777336 130.629846 
L 187.900606 131.003205 
L 190.126654 131.468736 
L 192.418924 131.995962 
L 194.73977 132.550368 
L 197.051078 133.095665 
L 199.31489 133.596155 
L 201.494026 134.019076 
L 203.552703 134.336738 
L 205.457111 134.528338 
L 207.175979 134.58132 
L 208.681082 134.4922 
L 209.947708 134.266787 
L 210.95506 133.919813 
L 211.686603 133.473959 
L 212.13033 132.958382 
z
" style="fill:#0000ff;stroke:#000000;stroke-linejoin:miter;"/>
   </g>
   <g id="patch_5">
    <path clip-path="url(#p609326cbb9)" d="M 266.63896 132.393613 
L 266.490061 131.842102 
L 266.046084 131.32674 
L 265.314325 130.881242 
L 264.306804 130.534756 
L 263.040069 130.309958 
L 261.534923 130.221568 
L 259.816081 130.275384 
L 257.911766 130.467908 
L 255.853244 130.786569 
L 253.674312 131.210547 
L 251.410744 131.712135 
L 249.099701 132.258553 
L 246.779124 132.814086 
L 244.48711 133.342423 
L 242.261288 133.809034 
L 240.138199 134.183424 
L 238.152702 134.441129 
L 236.337394 134.565316 
L 234.722081 134.547883 
L 233.333287 134.389991 
L 232.193817 134.101983 
L 231.322386 133.702711 
L 230.733307 133.218303 
L 230.436258 132.680451 
L 230.436123 132.124339 
L 230.732911 131.586342 
L 231.321755 131.101648 
L 232.192993 130.701954 
L 233.332322 130.413393 
L 234.721039 130.254827 
L 236.336344 130.236611 
L 238.151712 130.359917 
L 240.137334 130.616659 
L 242.260604 130.990019 
L 244.486652 131.45555 
L 246.778922 131.982775 
L 249.099769 132.537182 
L 251.411077 133.082478 
L 253.674888 133.582969 
L 255.854025 134.005889 
L 257.912701 134.323551 
L 259.81711 134.515151 
L 261.535977 134.568133 
L 263.041081 134.479013 
L 264.307706 134.253601 
L 265.315059 133.906626 
L 266.046602 133.460773 
L 266.490329 132.945195 
z
" style="fill:#0000ff;stroke:#000000;stroke-linejoin:miter;"/>
   </g>
   <g id="patch_6">
    <path clip-path="url(#p609326cbb9)" d="M 253.956938 140.550689 
L 188.72494 140.566514 
L 188.726259 146.002513 
L 253.958257 145.986689 
z
" style="fill:#999999;stroke:#000000;stroke-linejoin:miter;"/>
   </g>
   <g id="text_1">
    <!-- t = 2.8 -->
    <defs>
     <path d="M 18.3125 70.21875 
L 18.3125 54.6875 
L 36.8125 54.6875 
L 36.8125 47.703125 
L 18.3125 47.703125 
L 18.3125 18.015625 
Q 18.3125 11.328125 20.140625 9.421875 
Q 21.96875 7.515625 27.59375 7.515625 
L 36.8125 7.515625 
L 36.8125 0 
L 27.59375 0 
Q 17.1875 0 13.234375 3.875 
Q 9.28125 7.765625 9.28125 18.015625 
L 9.28125 47.703125 
L 2.6875 47.703125 
L 2.6875 54.6875 
L 9.28125 54.6875 
L 9.28125 70.21875 
z
" id="DejaVuSans-116"/>
     <path id="DejaVuSans-32"/>
     <path d="M 10.59375 45.40625 
L 73.1875 45.40625 
L 73.1875 37.203125 
L 10.59375 37.203125 
z
M 10.59375 25.484375 
L 73.1875 25.484375 
L 73.1875 17.1875 
L 10.59375 17.1875 
z
" id="DejaVuSans-61"/>
     <path d="M 19.1875 8.296875 
L 53.609375 8.296875 
L 53.609375 0 
L 7.328125 0 
L 7.328125 8.296875 
Q 12.9375 14.109375 22.625 23.890625 
Q 32.328125 33.6875 34.8125 36.53125 
Q 39.546875 41.84375 41.421875 45.53125 
Q 43.3125 49.21875 43.3125 52.78125 
Q 43.3125 58.59375 39.234375 62.25 
Q 35.15625 65.921875 28.609375 65.921875 
Q 23.96875 65.921875 18.8125 64.3125 
Q 13.671875 62.703125 7.8125 59.421875 
L 7.8125 69.390625 
Q 13.765625 71.78125 18.9375 73 
Q 24.125 74.21875 28.421875 74.21875 
Q 39.75 74.21875 46.484375 68.546875 
Q 53.21875 62.890625 53.21875 53.421875 
Q 53.21875 48.921875 51.53125 44.890625 
Q 49.859375 40.875 45.40625 35.40625 
Q 44.1875 33.984375 37.640625 27.21875 
Q 31.109375 20.453125 19.1875 8.296875 
z
" id="DejaVuSans-50"/>
     <path d="M 10.6875 12.40625 
L 21 12.40625 
L 21 0 
L 10.6875 0 
z
" id="DejaVuSans-46"/>
     <path d="M 31.78125 34.625 
Q 24.75 34.625 20.71875 30.859375 
Q 16.703125 27.09375 16.703125 20.515625 
Q 16.703125 13.921875 20.71875 10.15625 
Q 24.75 6.390625 31.78125 6.390625 
Q 38.8125 6.390625 42.859375 10.171875 
Q 46.921875 13.96875 46.921875 20.515625 
Q 46.921875 27.09375 42.890625 30.859375 
Q 38.875 34.625 31.78125 34.625 
z
M 21.921875 38.8125 
Q 15.578125 40.375 12.03125 44.71875 
Q 8.5 49.078125 8.5 55.328125 
Q 8.5 64.0625 14.71875 69.140625 
Q 20.953125 74.21875 31.78125 74.21875 
Q 42.671875 74.21875 48.875 69.140625 
Q 55.078125 64.0625 55.078125 55.328125 
Q 55.078125 49.078125 51.53125 44.71875 
Q 48 40.375 41.703125 38.8125 
Q 48.828125 37.15625 52.796875 32.3125 
Q 56.78125 27.484375 56.78125 20.515625 
Q 56.78125 9.90625 50.3125 4.234375 
Q 43.84375 -1.421875 31.78125 -1.421875 
Q 19.734375 -1.421875 13.25 4.234375 
Q 6.78125 9.90625 6.78125 20.515625 
Q 6.78125 27.484375 10.78125 32.3125 
Q 14.796875 37.15625 21.921875 38.8125 
z
M 18.3125 54.390625 
Q 18.3125 48.734375 21.84375 45.5625 
Q 25.390625 42.390625 31.78125 42.390625 
Q 38.140625 42.390625 41.71875 45.5625 
Q 45.3125 48.734375 45.3125 54.390625 
Q 45.3125 60.0625 41.71875 63.234375 
Q 38.140625 66.40625 31.78125 66.40625 
Q 25.390625 66.40625 21.84375 63.234375 
Q 18.3125 60.0625 18.3125 54.390625 
z
" id="DejaVuSans-56"/>
    </defs>
    <g transform="translate(200.664375 28.56)scale(0.12 -0.12)">
     <use xlink:href="#DejaVuSans-116"/>
     <use x="39.208984" xlink:href="#DejaVuSans-32"/>
     <use x="70.996094" xlink:href="#DejaVuSans-61"/>
     <use x="154.785156" xlink:href="#DejaVuSans-32"/>
     <use x="186.572266" xlink:href="#DejaVuSans-50"/>
     <use x="250.195312" xlink:href="#DejaVuSans-46"/>
     <use x="281.982422" xlink:href="#DejaVuSans-56"/>
    </g>
   </g>
  </g>
 </g>
 <defs>
  <clipPath id="p609326cbb9">
   <rect height="217.44" width="334.8" x="54" y="34.56"/>
  </clipPath>
 </defs>
</svg>
