<?xml version="1.0" encoding="utf-8" standalone="no"?>
<!DOCTYPE svg PUBLIC "-//W3C//DTD SVG 1.1//EN"
  "http://www.w3.org/Graphics/SVG/1.1/DTD/svg11.dtd">
<!-- Created with matplotlib (https://matplotlib.org/) -->
<svg height="288pt" version="1.1" viewBox="0 0 432 288" width="432pt" xmlns="http://www.w3.org/2000/svg" xmlns:xlink="http://www.w3.org/1999/xlink">
 <defs>
  <style type="text/css">
*{stroke-linecap:butt;stroke-linejoin:round;}
  </style>
 </defs>
 <g id="figure_1">
  <g id="patch_1">
   <path d="M 0 288 
L 432 288 
L 432 0 
L 0 0 
z
" style="fill:#ffffff;"/>
  </g>
  <g id="axes_1">
   <g id="patch_2">
    <path clip-path="url(#p5938f97abe)" d="M 194.560986 132.341996 
L 194.568614 143.213993 
L 193.481415 143.214756 
L 193.473786 132.342759 
z
" style="stroke:#000000;stroke-linejoin:miter;"/>
   </g>
   <g id="patch_3">
    <path clip-path="url(#p5938f97abe)" d="M 248.920972 132.303852 
L 248.928601 143.175849 
L 247.841401 143.176612 
L 247.833772 132.304615 
z
" style="stroke:#000000;stroke-linejoin:miter;"/>
   </g>
   <g id="patch_4">
    <path clip-path="url(#p5938f97abe)" d="M 212.137381 132.329663 
L 211.988229 131.778221 
L 211.544016 131.263062 
L 210.812052 130.8179 
L 209.804372 130.471877 
L 208.537534 130.247661 
L 207.032348 130.159961 
L 205.313531 130.214567 
L 203.409304 130.407965 
L 201.350929 130.72757 
L 199.172192 131.152549 
L 196.908854 131.655177 
L 194.598062 132.202655 
L 192.277741 132.759253 
L 189.985969 133.288643 
L 187.760362 133.756276 
L 185.637445 134.13164 
L 183.652066 134.390257 
L 181.836815 134.515277 
L 180.221495 134.498586 
L 178.832628 134.341332 
L 177.693027 134.053847 
L 176.821412 133.654975 
L 176.232111 133.170838 
L 175.934815 132.633122 
L 175.934425 132.07701 
L 176.230966 131.538877 
L 176.819587 131.053913 
L 177.690641 130.653819 
L 178.829838 130.364735 
L 180.218482 130.205531 
L 181.833778 130.186573 
L 183.649203 130.309046 
L 185.634943 130.564876 
L 187.758383 130.937261 
L 189.984645 131.40177 
L 192.277157 131.927943 
L 194.598258 132.481284 
L 196.909816 133.025519 
L 199.173857 133.52497 
L 201.353188 133.946891 
L 203.412009 134.263607 
L 205.316506 134.454332 
L 207.035398 134.506526 
L 208.54046 134.416714 
L 209.806981 134.190721 
L 210.814175 133.843284 
L 211.545513 133.397094 
L 211.989003 132.881313 
z
" style="fill:#0000ff;stroke:#000000;stroke-linejoin:miter;"/>
   </g>
   <g id="patch_5">
    <path clip-path="url(#p5938f97abe)" d="M 266.497368 132.291519 
L 266.348216 131.740077 
L 265.904002 131.224918 
L 265.172038 130.779756 
L 264.164359 130.433733 
L 262.897521 130.209517 
L 261.392334 130.121817 
L 259.673517 130.176423 
L 257.769291 130.369821 
L 255.710915 130.689426 
L 253.532179 131.114405 
L 251.268841 131.617033 
L 248.958049 132.164511 
L 246.637727 132.721109 
L 244.345956 133.250499 
L 242.120348 133.718132 
L 239.997432 134.093496 
L 238.012053 134.352113 
L 236.196802 134.477133 
L 234.581481 134.460442 
L 233.192615 134.303188 
L 232.053013 134.015703 
L 231.181399 133.616831 
L 230.592097 133.132694 
L 230.294801 132.594978 
L 230.294411 132.038866 
L 230.590952 131.500733 
L 231.179574 131.015769 
L 232.050628 130.615675 
L 233.189824 130.326591 
L 234.578469 130.167387 
L 236.193764 130.148429 
L 238.009189 130.270902 
L 239.994929 130.526732 
L 242.11837 130.899117 
L 244.344632 131.363626 
L 246.637144 131.889799 
L 248.958245 132.44314 
L 251.269802 132.987375 
L 253.533843 133.486826 
L 255.713174 133.908747 
L 257.771996 134.225463 
L 259.676492 134.416188 
L 261.395384 134.468382 
L 262.900446 134.37857 
L 264.166968 134.152577 
L 265.174161 133.80514 
L 265.9055 133.35895 
L 266.34899 132.843169 
z
" style="fill:#0000ff;stroke:#000000;stroke-linejoin:miter;"/>
   </g>
   <g id="patch_6">
    <path clip-path="url(#p5938f97abe)" d="M 253.819093 140.454417 
L 188.587109 140.50019 
L 188.590923 145.936188 
L 253.822907 145.890415 
z
" style="fill:#999999;stroke:#000000;stroke-linejoin:miter;"/>
   </g>
   <g id="text_1">
    <!-- t = 2.0 -->
    <defs>
     <path d="M 18.3125 70.21875 
L 18.3125 54.6875 
L 36.8125 54.6875 
L 36.8125 47.703125 
L 18.3125 47.703125 
L 18.3125 18.015625 
Q 18.3125 11.328125 20.140625 9.421875 
Q 21.96875 7.515625 27.59375 7.515625 
L 36.8125 7.515625 
L 36.8125 0 
L 27.59375 0 
Q 17.1875 0 13.234375 3.875 
Q 9.28125 7.765625 9.28125 18.015625 
L 9.28125 47.703125 
L 2.6875 47.703125 
L 2.6875 54.6875 
L 9.28125 54.6875 
L 9.28125 70.21875 
z
" id="DejaVuSans-116"/>
     <path id="DejaVuSans-32"/>
     <path d="M 10.59375 45.40625 
L 73.1875 45.40625 
L 73.1875 37.203125 
L 10.59375 37.203125 
z
M 10.59375 25.484375 
L 73.1875 25.484375 
L 73.1875 17.1875 
L 10.59375 17.1875 
z
" id="DejaVuSans-61"/>
     <path d="M 19.1875 8.296875 
L 53.609375 8.296875 
L 53.609375 0 
L 7.328125 0 
L 7.328125 8.296875 
Q 12.9375 14.109375 22.625 23.890625 
Q 32.328125 33.6875 34.8125 36.53125 
Q 39.546875 41.84375 41.421875 45.53125 
Q 43.3125 49.21875 43.3125 52.78125 
Q 43.3125 58.59375 39.234375 62.25 
Q 35.15625 65.921875 28.609375 65.921875 
Q 23.96875 65.921875 18.8125 64.3125 
Q 13.671875 62.703125 7.8125 59.421875 
L 7.8125 69.390625 
Q 13.765625 71.78125 18.9375 73 
Q 24.125 74.21875 28.421875 74.21875 
Q 39.75 74.21875 46.484375 68.546875 
Q 53.21875 62.890625 53.21875 53.421875 
Q 53.21875 48.921875 51.53125 44.890625 
Q 49.859375 40.875 45.40625 35.40625 
Q 44.1875 33.984375 37.640625 27.21875 
Q 31.109375 20.453125 19.1875 8.296875 
z
" id="DejaVuSans-50"/>
     <path d="M 10.6875 12.40625 
L 21 12.40625 
L 21 0 
L 10.6875 0 
z
" id="DejaVuSans-46"/>
     <path d="M 31.78125 66.40625 
Q 24.171875 66.40625 20.328125 58.90625 
Q 16.5 51.421875 16.5 36.375 
Q 16.5 21.390625 20.328125 13.890625 
Q 24.171875 6.390625 31.78125 6.390625 
Q 39.453125 6.390625 43.28125 13.890625 
Q 47.125 21.390625 47.125 36.375 
Q 47.125 51.421875 43.28125 58.90625 
Q 39.453125 66.40625 31.78125 66.40625 
z
M 31.78125 74.21875 
Q 44.046875 74.21875 50.515625 64.515625 
Q 56.984375 54.828125 56.984375 36.375 
Q 56.984375 17.96875 50.515625 8.265625 
Q 44.046875 -1.421875 31.78125 -1.421875 
Q 19.53125 -1.421875 13.0625 8.265625 
Q 6.59375 17.96875 6.59375 36.375 
Q 6.59375 54.828125 13.0625 64.515625 
Q 19.53125 74.21875 31.78125 74.21875 
z
" id="DejaVuSans-48"/>
    </defs>
    <g transform="translate(200.664375 28.56)scale(0.12 -0.12)">
     <use xlink:href="#DejaVuSans-116"/>
     <use x="39.208984" xlink:href="#DejaVuSans-32"/>
     <use x="70.996094" xlink:href="#DejaVuSans-61"/>
     <use x="154.785156" xlink:href="#DejaVuSans-32"/>
     <use x="186.572266" xlink:href="#DejaVuSans-50"/>
     <use x="250.195312" xlink:href="#DejaVuSans-46"/>
     <use x="281.982422" xlink:href="#DejaVuSans-48"/>
    </g>
   </g>
  </g>
 </g>
 <defs>
  <clipPath id="p5938f97abe">
   <rect height="217.44" width="334.8" x="54" y="34.56"/>
  </clipPath>
 </defs>
</svg>
