<?xml version="1.0" encoding="utf-8" standalone="no"?>
<!DOCTYPE svg PUBLIC "-//W3C//DTD SVG 1.1//EN"
  "http://www.w3.org/Graphics/SVG/1.1/DTD/svg11.dtd">
<!-- Created with matplotlib (https://matplotlib.org/) -->
<svg height="288pt" version="1.1" viewBox="0 0 432 288" width="432pt" xmlns="http://www.w3.org/2000/svg" xmlns:xlink="http://www.w3.org/1999/xlink">
 <defs>
  <style type="text/css">
*{stroke-linecap:butt;stroke-linejoin:round;}
  </style>
 </defs>
 <g id="figure_1">
  <g id="patch_1">
   <path d="M 0 288 
L 432 288 
L 432 0 
L 0 0 
z
" style="fill:#ffffff;"/>
  </g>
  <g id="axes_1">
   <g id="patch_2">
    <path clip-path="url(#p230391ff49)" d="M 194.764475 132.435384 
L 194.772322 143.307381 
L 193.685122 143.308166 
L 193.677275 132.436168 
z
" style="stroke:#000000;stroke-linejoin:miter;"/>
   </g>
   <g id="patch_3">
    <path clip-path="url(#p230391ff49)" d="M 249.12446 132.396146 
L 249.132308 143.268143 
L 248.045108 143.268928 
L 248.037261 132.39693 
z
" style="stroke:#000000;stroke-linejoin:miter;"/>
   </g>
   <g id="patch_4">
    <path clip-path="url(#p230391ff49)" d="M 212.34087 132.422697 
L 212.191707 131.871258 
L 211.747483 131.356108 
L 211.01551 130.910961 
L 210.007823 130.564958 
L 208.740981 130.340767 
L 207.235793 130.253098 
L 205.516977 130.307738 
L 203.612754 130.501175 
L 201.554385 130.820822 
L 199.375657 131.245844 
L 197.112329 131.748517 
L 194.801549 132.296043 
L 192.481238 132.852687 
L 190.189477 133.382123 
L 187.963879 133.849801 
L 185.84097 134.225208 
L 183.855596 134.483864 
L 182.040348 134.608921 
L 180.425027 134.592263 
L 179.036157 134.435036 
L 177.89655 134.147574 
L 177.024928 133.74872 
L 176.435616 133.264594 
L 176.13831 132.726884 
L 176.137908 132.170772 
L 176.434438 131.632634 
L 177.02305 131.147658 
L 177.894096 130.747546 
L 179.033287 130.458439 
L 180.421928 130.299208 
L 182.037223 130.280217 
L 183.852651 130.402654 
L 185.838396 130.658444 
L 187.961844 131.030786 
L 190.188115 131.49525 
L 192.480638 132.021377 
L 194.80175 132.574671 
L 197.113319 133.11886 
L 199.377369 133.618265 
L 201.556709 134.040142 
L 203.615537 134.356817 
L 205.520037 134.547504 
L 207.23893 134.599663 
L 208.74399 134.509821 
L 210.010508 134.283802 
L 211.017694 133.936344 
L 211.749023 133.49014 
L 212.192503 132.97435 
z
" style="fill:#0000ff;stroke:#000000;stroke-linejoin:miter;"/>
   </g>
   <g id="patch_5">
    <path clip-path="url(#p230391ff49)" d="M 266.700856 132.383459 
L 266.551693 131.83202 
L 266.107469 131.316871 
L 265.375496 130.871723 
L 264.367809 130.52572 
L 263.100967 130.301529 
L 261.595779 130.21386 
L 259.876963 130.268501 
L 257.97274 130.461937 
L 255.914371 130.781584 
L 253.735643 131.206606 
L 251.472315 131.709279 
L 249.161534 132.256805 
L 246.841224 132.813449 
L 244.549463 133.342885 
L 242.323865 133.810563 
L 240.200956 134.18597 
L 238.215582 134.444626 
L 236.400334 134.569683 
L 234.785013 134.553025 
L 233.396143 134.395798 
L 232.256536 134.108336 
L 231.384914 133.709482 
L 230.795602 133.225357 
L 230.498295 132.687647 
L 230.497894 132.131534 
L 230.794424 131.593396 
L 231.383036 131.10842 
L 232.254082 130.708308 
L 233.393273 130.419201 
L 234.781914 130.25997 
L 236.397209 130.24098 
L 238.212636 130.363416 
L 240.198382 130.619206 
L 242.32183 130.991548 
L 244.548101 131.456012 
L 246.840624 131.982139 
L 249.161736 132.535433 
L 251.473304 133.079622 
L 253.737355 133.579027 
L 255.916695 134.000904 
L 257.975523 134.317579 
L 259.880023 134.508266 
L 261.598916 134.560425 
L 263.103976 134.470583 
L 264.370494 134.244564 
L 265.37768 133.897106 
L 266.109009 133.450902 
L 266.552489 132.935112 
z
" style="fill:#0000ff;stroke:#000000;stroke-linejoin:miter;"/>
   </g>
   <g id="patch_6">
    <path clip-path="url(#p230391ff49)" d="M 254.022745 140.546612 
L 188.790762 140.593698 
L 188.794686 146.029696 
L 254.026669 145.982611 
z
" style="fill:#999999;stroke:#000000;stroke-linejoin:miter;"/>
   </g>
   <g id="text_1">
    <!-- t = 3.0 -->
    <defs>
     <path d="M 18.3125 70.21875 
L 18.3125 54.6875 
L 36.8125 54.6875 
L 36.8125 47.703125 
L 18.3125 47.703125 
L 18.3125 18.015625 
Q 18.3125 11.328125 20.140625 9.421875 
Q 21.96875 7.515625 27.59375 7.515625 
L 36.8125 7.515625 
L 36.8125 0 
L 27.59375 0 
Q 17.1875 0 13.234375 3.875 
Q 9.28125 7.765625 9.28125 18.015625 
L 9.28125 47.703125 
L 2.6875 47.703125 
L 2.6875 54.6875 
L 9.28125 54.6875 
L 9.28125 70.21875 
z
" id="DejaVuSans-116"/>
     <path id="DejaVuSans-32"/>
     <path d="M 10.59375 45.40625 
L 73.1875 45.40625 
L 73.1875 37.203125 
L 10.59375 37.203125 
z
M 10.59375 25.484375 
L 73.1875 25.484375 
L 73.1875 17.1875 
L 10.59375 17.1875 
z
" id="DejaVuSans-61"/>
     <path d="M 40.578125 39.3125 
Q 47.65625 37.796875 51.625 33 
Q 55.609375 28.21875 55.609375 21.1875 
Q 55.609375 10.40625 48.1875 4.484375 
Q 40.765625 -1.421875 27.09375 -1.421875 
Q 22.515625 -1.421875 17.65625 -0.515625 
Q 12.796875 0.390625 7.625 2.203125 
L 7.625 11.71875 
Q 11.71875 9.328125 16.59375 8.109375 
Q 21.484375 6.890625 26.8125 6.890625 
Q 36.078125 6.890625 40.9375 10.546875 
Q 45.796875 14.203125 45.796875 21.1875 
Q 45.796875 27.640625 41.28125 31.265625 
Q 36.765625 34.90625 28.71875 34.90625 
L 20.21875 34.90625 
L 20.21875 43.015625 
L 29.109375 43.015625 
Q 36.375 43.015625 40.234375 45.921875 
Q 44.09375 48.828125 44.09375 54.296875 
Q 44.09375 59.90625 40.109375 62.90625 
Q 36.140625 65.921875 28.71875 65.921875 
Q 24.65625 65.921875 20.015625 65.03125 
Q 15.375 64.15625 9.8125 62.3125 
L 9.8125 71.09375 
Q 15.4375 72.65625 20.34375 73.4375 
Q 25.25 74.21875 29.59375 74.21875 
Q 40.828125 74.21875 47.359375 69.109375 
Q 53.90625 64.015625 53.90625 55.328125 
Q 53.90625 49.265625 50.4375 45.09375 
Q 46.96875 40.921875 40.578125 39.3125 
z
" id="DejaVuSans-51"/>
     <path d="M 10.6875 12.40625 
L 21 12.40625 
L 21 0 
L 10.6875 0 
z
" id="DejaVuSans-46"/>
     <path d="M 31.78125 66.40625 
Q 24.171875 66.40625 20.328125 58.90625 
Q 16.5 51.421875 16.5 36.375 
Q 16.5 21.390625 20.328125 13.890625 
Q 24.171875 6.390625 31.78125 6.390625 
Q 39.453125 6.390625 43.28125 13.890625 
Q 47.125 21.390625 47.125 36.375 
Q 47.125 51.421875 43.28125 58.90625 
Q 39.453125 66.40625 31.78125 66.40625 
z
M 31.78125 74.21875 
Q 44.046875 74.21875 50.515625 64.515625 
Q 56.984375 54.828125 56.984375 36.375 
Q 56.984375 17.96875 50.515625 8.265625 
Q 44.046875 -1.421875 31.78125 -1.421875 
Q 19.53125 -1.421875 13.0625 8.265625 
Q 6.59375 17.96875 6.59375 36.375 
Q 6.59375 54.828125 13.0625 64.515625 
Q 19.53125 74.21875 31.78125 74.21875 
z
" id="DejaVuSans-48"/>
    </defs>
    <g transform="translate(200.664375 28.56)scale(0.12 -0.12)">
     <use xlink:href="#DejaVuSans-116"/>
     <use x="39.208984" xlink:href="#DejaVuSans-32"/>
     <use x="70.996094" xlink:href="#DejaVuSans-61"/>
     <use x="154.785156" xlink:href="#DejaVuSans-32"/>
     <use x="186.572266" xlink:href="#DejaVuSans-51"/>
     <use x="250.195312" xlink:href="#DejaVuSans-46"/>
     <use x="281.982422" xlink:href="#DejaVuSans-48"/>
    </g>
   </g>
  </g>
 </g>
 <defs>
  <clipPath id="p230391ff49">
   <rect height="217.44" width="334.8" x="54" y="34.56"/>
  </clipPath>
 </defs>
</svg>
