<?xml version="1.0" encoding="utf-8" standalone="no"?>
<!DOCTYPE svg PUBLIC "-//W3C//DTD SVG 1.1//EN"
  "http://www.w3.org/Graphics/SVG/1.1/DTD/svg11.dtd">
<!-- Created with matplotlib (https://matplotlib.org/) -->
<svg height="288pt" version="1.1" viewBox="0 0 432 288" width="432pt" xmlns="http://www.w3.org/2000/svg" xmlns:xlink="http://www.w3.org/1999/xlink">
 <defs>
  <style type="text/css">
*{stroke-linecap:butt;stroke-linejoin:round;}
  </style>
 </defs>
 <g id="figure_1">
  <g id="patch_1">
   <path d="M 0 288 
L 432 288 
L 432 0 
L 0 0 
z
" style="fill:#ffffff;"/>
  </g>
  <g id="axes_1">
   <g id="patch_2">
    <path clip-path="url(#p190db28554)" d="M 197.324561 134.380207 
L 197.492822 145.250905 
L 196.405753 145.267731 
L 196.237492 134.397033 
z
" style="stroke:#000000;stroke-linejoin:miter;"/>
   </g>
   <g id="patch_3">
    <path clip-path="url(#p190db28554)" d="M 251.678051 133.538903 
L 251.846312 144.4096 
L 250.759242 144.426427 
L 250.590981 133.555729 
z
" style="stroke:#000000;stroke-linejoin:miter;"/>
   </g>
   <g id="patch_4">
    <path clip-path="url(#p190db28554)" d="M 214.898856 134.108185 
L 214.741573 133.559007 
L 214.289796 133.050469 
L 213.551335 132.61617 
L 212.538653 132.285072 
L 211.268641 132.079598 
L 209.762323 132.014148 
L 208.0445 132.094143 
L 206.143339 132.315654 
L 204.08991 132.665637 
L 201.91769 133.12276 
L 199.662026 133.658774 
L 197.359575 134.240334 
L 195.047731 134.831154 
L 192.764031 135.394347 
L 190.545576 135.894812 
L 188.428437 136.301501 
L 186.447096 136.589423 
L 184.63389 136.74125 
L 183.018499 136.748427 
L 181.627461 136.61171 
L 180.483736 136.341094 
L 179.606324 135.955145 
L 179.009933 135.479767 
L 178.704725 134.946502 
L 178.696118 134.390456 
L 178.984676 133.848001 
L 179.566068 133.354393 
L 180.431116 132.941473 
L 181.565917 132.635589 
L 182.952057 132.455885 
L 184.566897 132.413064 
L 186.383933 132.508701 
L 188.373236 132.735163 
L 190.501947 133.076134 
L 192.734829 133.507699 
L 195.034865 133.999943 
L 197.363888 134.51893 
L 199.683234 135.028952 
L 201.954407 135.494898 
L 204.139734 135.884573 
L 206.203011 136.170836 
L 208.110117 136.333401 
L 209.829593 136.360193 
L 211.333163 136.248154 
L 212.596208 136.003472 
L 213.598158 135.641192 
L 214.322824 135.184246 
L 214.758645 134.661968 
z
" style="fill:#0000ff;stroke:#000000;stroke-linejoin:miter;"/>
   </g>
   <g id="patch_5">
    <path clip-path="url(#p190db28554)" d="M 269.252346 133.266881 
L 269.095062 132.717703 
L 268.643286 132.209164 
L 267.904825 131.774865 
L 266.892142 131.443768 
L 265.62213 131.238294 
L 264.115812 131.172843 
L 262.39799 131.252838 
L 260.496828 131.47435 
L 258.4434 131.824333 
L 256.27118 132.281455 
L 254.015516 132.817469 
L 251.713065 133.39903 
L 249.40122 133.989849 
L 247.117521 134.553042 
L 244.899065 135.053507 
L 242.781926 135.460196 
L 240.800585 135.748118 
L 238.987379 135.899945 
L 237.371988 135.907123 
L 235.98095 135.770405 
L 234.837226 135.49979 
L 233.959813 135.11384 
L 233.363423 134.638462 
L 233.058214 134.105197 
L 233.049608 133.549152 
L 233.338166 133.006696 
L 233.919558 132.513088 
L 234.784605 132.100168 
L 235.919406 131.794284 
L 237.305547 131.614581 
L 238.920386 131.571759 
L 240.737422 131.667396 
L 242.726725 131.893859 
L 244.855436 132.234829 
L 247.088318 132.666394 
L 249.388354 133.158638 
L 251.717377 133.677625 
L 254.036724 134.187647 
L 256.307897 134.653593 
L 258.493224 135.043268 
L 260.5565 135.329531 
L 262.463606 135.492097 
L 264.183082 135.518888 
L 265.686653 135.406849 
L 266.949697 135.162167 
L 267.951647 134.799887 
L 268.676313 134.342941 
L 269.112135 133.820664 
z
" style="fill:#0000ff;stroke:#000000;stroke-linejoin:miter;"/>
   </g>
   <g id="patch_6">
    <path clip-path="url(#p190db28554)" d="M 256.696061 141.616209 
L 191.471873 142.625774 
L 191.556004 148.061123 
L 256.780191 147.051557 
z
" style="fill:#999999;stroke:#000000;stroke-linejoin:miter;"/>
   </g>
   <g id="text_1">
    <!-- t = 1.4 -->
    <defs>
     <path d="M 18.3125 70.21875 
L 18.3125 54.6875 
L 36.8125 54.6875 
L 36.8125 47.703125 
L 18.3125 47.703125 
L 18.3125 18.015625 
Q 18.3125 11.328125 20.140625 9.421875 
Q 21.96875 7.515625 27.59375 7.515625 
L 36.8125 7.515625 
L 36.8125 0 
L 27.59375 0 
Q 17.1875 0 13.234375 3.875 
Q 9.28125 7.765625 9.28125 18.015625 
L 9.28125 47.703125 
L 2.6875 47.703125 
L 2.6875 54.6875 
L 9.28125 54.6875 
L 9.28125 70.21875 
z
" id="DejaVuSans-116"/>
     <path id="DejaVuSans-32"/>
     <path d="M 10.59375 45.40625 
L 73.1875 45.40625 
L 73.1875 37.203125 
L 10.59375 37.203125 
z
M 10.59375 25.484375 
L 73.1875 25.484375 
L 73.1875 17.1875 
L 10.59375 17.1875 
z
" id="DejaVuSans-61"/>
     <path d="M 12.40625 8.296875 
L 28.515625 8.296875 
L 28.515625 63.921875 
L 10.984375 60.40625 
L 10.984375 69.390625 
L 28.421875 72.90625 
L 38.28125 72.90625 
L 38.28125 8.296875 
L 54.390625 8.296875 
L 54.390625 0 
L 12.40625 0 
z
" id="DejaVuSans-49"/>
     <path d="M 10.6875 12.40625 
L 21 12.40625 
L 21 0 
L 10.6875 0 
z
" id="DejaVuSans-46"/>
     <path d="M 37.796875 64.3125 
L 12.890625 25.390625 
L 37.796875 25.390625 
z
M 35.203125 72.90625 
L 47.609375 72.90625 
L 47.609375 25.390625 
L 58.015625 25.390625 
L 58.015625 17.1875 
L 47.609375 17.1875 
L 47.609375 0 
L 37.796875 0 
L 37.796875 17.1875 
L 4.890625 17.1875 
L 4.890625 26.703125 
z
" id="DejaVuSans-52"/>
    </defs>
    <g transform="translate(200.664375 28.56)scale(0.12 -0.12)">
     <use xlink:href="#DejaVuSans-116"/>
     <use x="39.208984" xlink:href="#DejaVuSans-32"/>
     <use x="70.996094" xlink:href="#DejaVuSans-61"/>
     <use x="154.785156" xlink:href="#DejaVuSans-32"/>
     <use x="186.572266" xlink:href="#DejaVuSans-49"/>
     <use x="250.195312" xlink:href="#DejaVuSans-46"/>
     <use x="281.982422" xlink:href="#DejaVuSans-52"/>
    </g>
   </g>
  </g>
 </g>
 <defs>
  <clipPath id="p190db28554">
   <rect height="217.44" width="334.8" x="54" y="34.56"/>
  </clipPath>
 </defs>
</svg>
