<?xml version="1.0" encoding="utf-8" standalone="no"?>
<!DOCTYPE svg PUBLIC "-//W3C//DTD SVG 1.1//EN"
  "http://www.w3.org/Graphics/SVG/1.1/DTD/svg11.dtd">
<!-- Created with matplotlib (https://matplotlib.org/) -->
<svg height="288pt" version="1.1" viewBox="0 0 432 288" width="432pt" xmlns="http://www.w3.org/2000/svg" xmlns:xlink="http://www.w3.org/1999/xlink">
 <defs>
  <style type="text/css">
*{stroke-linecap:butt;stroke-linejoin:round;}
  </style>
 </defs>
 <g id="figure_1">
  <g id="patch_1">
   <path d="M 0 288 
L 432 288 
L 432 0 
L 0 0 
z
" style="fill:#ffffff;"/>
  </g>
  <g id="axes_1">
   <g id="patch_2">
    <path clip-path="url(#pd6d64a27ab)" d="M 194.903415 132.386137 
L 194.883113 143.258118 
L 193.795915 143.256088 
L 193.816217 132.384106 
z
" style="stroke:#000000;stroke-linejoin:miter;"/>
   </g>
   <g id="patch_3">
    <path clip-path="url(#pd6d64a27ab)" d="M 249.263321 132.48765 
L 249.243018 143.359631 
L 248.15582 143.3576 
L 248.176123 132.485619 
z
" style="stroke:#000000;stroke-linejoin:miter;"/>
   </g>
   <g id="patch_4">
    <path clip-path="url(#pd6d64a27ab)" d="M 212.479785 132.418959 
L 212.33205 131.867136 
L 211.889161 131.350838 
L 211.158344 130.903797 
L 210.151556 130.555186 
L 208.885299 130.327716 
L 207.380342 130.23615 
L 205.661391 130.286339 
L 203.756673 130.474845 
L 201.697484 130.789161 
L 199.517662 131.20854 
L 197.253041 131.705352 
L 194.94085 132.246892 
L 192.619106 132.797527 
L 190.325982 133.321027 
L 188.09918 133.782941 
L 185.975307 134.15285 
L 183.98927 134.406365 
L 182.173704 134.526721 
L 180.558431 134.50588 
L 179.169973 134.345058 
L 178.031114 134.054646 
L 177.160528 133.653537 
L 176.572472 133.167887 
L 176.276558 132.629409 
L 176.277597 132.073298 
L 176.575519 131.535929 
L 177.165385 131.052479 
L 178.037464 130.654624 
L 179.177399 130.368467 
L 180.566448 130.212832 
L 182.181787 130.198024 
L 183.996891 130.32516 
L 185.981968 130.586091 
L 188.104445 130.96393 
L 190.329506 131.434157 
L 192.620658 131.966218 
L 194.94033 132.52552 
L 197.250482 133.075692 
L 199.513232 133.580958 
L 201.691472 134.008476 
L 203.749473 134.330481 
L 205.653473 134.526099 
L 207.372226 134.582708 
L 208.877513 134.496763 
L 210.144612 134.274024 
L 211.152694 133.929176 
L 211.885176 133.484867 
L 212.32999 132.970227 
z
" style="fill:#0000ff;stroke:#000000;stroke-linejoin:miter;"/>
   </g>
   <g id="patch_5">
    <path clip-path="url(#pd6d64a27ab)" d="M 266.83969 132.520472 
L 266.691955 131.968649 
L 266.249067 131.452351 
L 265.518249 131.00531 
L 264.511461 130.656699 
L 263.245204 130.429229 
L 261.740248 130.337663 
L 260.021296 130.387852 
L 258.116579 130.576358 
L 256.057389 130.890674 
L 253.877568 131.310053 
L 251.612946 131.806865 
L 249.300755 132.348405 
L 246.979011 132.89904 
L 244.685888 133.42254 
L 242.459086 133.884454 
L 240.335212 134.254363 
L 238.349175 134.507878 
L 236.533609 134.628234 
L 234.918336 134.607393 
L 233.529879 134.446571 
L 232.39102 134.156159 
L 231.520433 133.75505 
L 230.932377 133.2694 
L 230.636463 132.730922 
L 230.637502 132.174811 
L 230.935425 131.637442 
L 231.52529 131.153991 
L 232.397369 130.756136 
L 233.537305 130.46998 
L 234.926353 130.314345 
L 236.541693 130.299537 
L 238.356797 130.426673 
L 240.341873 130.687604 
L 242.46435 131.065443 
L 244.689411 131.53567 
L 246.980564 132.067731 
L 249.300235 132.627033 
L 251.610387 133.177205 
L 253.873137 133.682471 
L 256.051377 134.109989 
L 258.109379 134.431994 
L 260.013378 134.627612 
L 261.732131 134.684221 
L 263.237418 134.598276 
L 264.504517 134.375537 
L 265.512599 134.030689 
L 266.245081 133.58638 
L 266.689895 133.07174 
z
" style="fill:#0000ff;stroke:#000000;stroke-linejoin:miter;"/>
   </g>
   <g id="patch_6">
    <path clip-path="url(#pd6d64a27ab)" d="M 254.140485 140.650772 
L 188.908599 140.528956 
L 188.898448 145.964947 
L 254.130334 146.086762 
z
" style="fill:#999999;stroke:#000000;stroke-linejoin:miter;"/>
   </g>
   <g id="text_1">
    <!-- t = 2.6 -->
    <defs>
     <path d="M 18.3125 70.21875 
L 18.3125 54.6875 
L 36.8125 54.6875 
L 36.8125 47.703125 
L 18.3125 47.703125 
L 18.3125 18.015625 
Q 18.3125 11.328125 20.140625 9.421875 
Q 21.96875 7.515625 27.59375 7.515625 
L 36.8125 7.515625 
L 36.8125 0 
L 27.59375 0 
Q 17.1875 0 13.234375 3.875 
Q 9.28125 7.765625 9.28125 18.015625 
L 9.28125 47.703125 
L 2.6875 47.703125 
L 2.6875 54.6875 
L 9.28125 54.6875 
L 9.28125 70.21875 
z
" id="DejaVuSans-116"/>
     <path id="DejaVuSans-32"/>
     <path d="M 10.59375 45.40625 
L 73.1875 45.40625 
L 73.1875 37.203125 
L 10.59375 37.203125 
z
M 10.59375 25.484375 
L 73.1875 25.484375 
L 73.1875 17.1875 
L 10.59375 17.1875 
z
" id="DejaVuSans-61"/>
     <path d="M 19.1875 8.296875 
L 53.609375 8.296875 
L 53.609375 0 
L 7.328125 0 
L 7.328125 8.296875 
Q 12.9375 14.109375 22.625 23.890625 
Q 32.328125 33.6875 34.8125 36.53125 
Q 39.546875 41.84375 41.421875 45.53125 
Q 43.3125 49.21875 43.3125 52.78125 
Q 43.3125 58.59375 39.234375 62.25 
Q 35.15625 65.921875 28.609375 65.921875 
Q 23.96875 65.921875 18.8125 64.3125 
Q 13.671875 62.703125 7.8125 59.421875 
L 7.8125 69.390625 
Q 13.765625 71.78125 18.9375 73 
Q 24.125 74.21875 28.421875 74.21875 
Q 39.75 74.21875 46.484375 68.546875 
Q 53.21875 62.890625 53.21875 53.421875 
Q 53.21875 48.921875 51.53125 44.890625 
Q 49.859375 40.875 45.40625 35.40625 
Q 44.1875 33.984375 37.640625 27.21875 
Q 31.109375 20.453125 19.1875 8.296875 
z
" id="DejaVuSans-50"/>
     <path d="M 10.6875 12.40625 
L 21 12.40625 
L 21 0 
L 10.6875 0 
z
" id="DejaVuSans-46"/>
     <path d="M 33.015625 40.375 
Q 26.375 40.375 22.484375 35.828125 
Q 18.609375 31.296875 18.609375 23.390625 
Q 18.609375 15.53125 22.484375 10.953125 
Q 26.375 6.390625 33.015625 6.390625 
Q 39.65625 6.390625 43.53125 10.953125 
Q 47.40625 15.53125 47.40625 23.390625 
Q 47.40625 31.296875 43.53125 35.828125 
Q 39.65625 40.375 33.015625 40.375 
z
M 52.59375 71.296875 
L 52.59375 62.3125 
Q 48.875 64.0625 45.09375 64.984375 
Q 41.3125 65.921875 37.59375 65.921875 
Q 27.828125 65.921875 22.671875 59.328125 
Q 17.53125 52.734375 16.796875 39.40625 
Q 19.671875 43.65625 24.015625 45.921875 
Q 28.375 48.1875 33.59375 48.1875 
Q 44.578125 48.1875 50.953125 41.515625 
Q 57.328125 34.859375 57.328125 23.390625 
Q 57.328125 12.15625 50.6875 5.359375 
Q 44.046875 -1.421875 33.015625 -1.421875 
Q 20.359375 -1.421875 13.671875 8.265625 
Q 6.984375 17.96875 6.984375 36.375 
Q 6.984375 53.65625 15.1875 63.9375 
Q 23.390625 74.21875 37.203125 74.21875 
Q 40.921875 74.21875 44.703125 73.484375 
Q 48.484375 72.75 52.59375 71.296875 
z
" id="DejaVuSans-54"/>
    </defs>
    <g transform="translate(200.664375 28.56)scale(0.12 -0.12)">
     <use xlink:href="#DejaVuSans-116"/>
     <use x="39.208984" xlink:href="#DejaVuSans-32"/>
     <use x="70.996094" xlink:href="#DejaVuSans-61"/>
     <use x="154.785156" xlink:href="#DejaVuSans-32"/>
     <use x="186.572266" xlink:href="#DejaVuSans-50"/>
     <use x="250.195312" xlink:href="#DejaVuSans-46"/>
     <use x="281.982422" xlink:href="#DejaVuSans-54"/>
    </g>
   </g>
  </g>
 </g>
 <defs>
  <clipPath id="pd6d64a27ab">
   <rect height="217.44" width="334.8" x="54" y="34.56"/>
  </clipPath>
 </defs>
</svg>
