<?xml version="1.0" encoding="utf-8" standalone="no"?>
<!DOCTYPE svg PUBLIC "-//W3C//DTD SVG 1.1//EN"
  "http://www.w3.org/Graphics/SVG/1.1/DTD/svg11.dtd">
<!-- Created with matplotlib (https://matplotlib.org/) -->
<svg height="288pt" version="1.1" viewBox="0 0 432 288" width="432pt" xmlns="http://www.w3.org/2000/svg" xmlns:xlink="http://www.w3.org/1999/xlink">
 <defs>
  <style type="text/css">
*{stroke-linecap:butt;stroke-linejoin:round;}
  </style>
 </defs>
 <g id="figure_1">
  <g id="patch_1">
   <path d="M 0 288 
L 432 288 
L 432 0 
L 0 0 
z
" style="fill:#ffffff;"/>
  </g>
  <g id="axes_1">
   <g id="patch_2">
    <path clip-path="url(#p205bcdd669)" d="M 194.751374 132.408018 
L 194.750931 143.280018 
L 193.663731 143.279974 
L 193.664174 132.407974 
z
" style="stroke:#000000;stroke-linejoin:miter;"/>
   </g>
   <g id="patch_3">
    <path clip-path="url(#p205bcdd669)" d="M 249.111374 132.410231 
L 249.110931 143.282231 
L 248.023731 143.282187 
L 248.024174 132.410187 
z
" style="stroke:#000000;stroke-linejoin:miter;"/>
   </g>
   <g id="patch_4">
    <path clip-path="url(#p205bcdd669)" d="M 212.327774 132.408734 
L 212.179031 131.857181 
L 211.7352 131.341693 
L 211.003567 130.895988 
L 209.996145 130.549216 
L 208.729474 130.32406 
L 207.224353 130.235243 
L 205.505495 130.288573 
L 203.601126 130.480557 
L 201.542514 130.798634 
L 199.363462 131.221995 
L 197.099752 131.722943 
L 194.788554 132.268705 
L 192.46782 132.823581 
L 190.175656 133.351269 
L 187.949702 133.817249 
L 185.826507 134.191037 
L 183.840937 134.44818 
L 182.025594 134.571852 
L 180.410286 134.553962 
L 179.021536 134.395677 
L 177.882149 134.107346 
L 177.010831 133.707828 
L 176.421889 133.223253 
L 176.124992 132.685316 
L 176.125015 132.129204 
L 176.421955 131.591291 
L 177.010937 131.106764 
L 177.882287 130.707317 
L 179.021698 130.419079 
L 180.410461 130.260906 
L 182.02577 130.243148 
L 183.841103 130.366968 
L 185.826653 130.624272 
L 187.949816 130.998234 
L 190.175733 131.464395 
L 192.467854 131.99227 
L 194.788543 132.547334 
L 197.099696 133.093285 
L 199.363365 133.594417 
L 201.542383 134.017955 
L 203.600969 134.3362 
L 205.505323 134.528339 
L 207.224176 134.581809 
L 208.729304 134.493115 
L 209.995993 134.268061 
L 211.003444 133.921372 
L 211.735113 133.475726 
L 212.178986 132.960274 
z
" style="fill:#0000ff;stroke:#000000;stroke-linejoin:miter;"/>
   </g>
   <g id="patch_5">
    <path clip-path="url(#p205bcdd669)" d="M 266.687774 132.410947 
L 266.539031 131.859394 
L 266.0952 131.343907 
L 265.363567 130.898201 
L 264.356144 130.55143 
L 263.089474 130.326273 
L 261.584353 130.237456 
L 259.865495 130.290786 
L 257.961126 130.48277 
L 255.902514 130.800847 
L 253.723462 131.224208 
L 251.459752 131.725156 
L 249.148554 132.270919 
L 246.82782 132.825794 
L 244.535656 133.353482 
L 242.309702 133.819462 
L 240.186507 134.193251 
L 238.200937 134.450393 
L 236.385594 134.574066 
L 234.770286 134.556176 
L 233.381536 134.39789 
L 232.242149 134.109559 
L 231.370831 133.710041 
L 230.781889 133.225466 
L 230.484992 132.687529 
L 230.485015 132.131417 
L 230.781955 131.593505 
L 231.370937 131.108978 
L 232.242287 130.70953 
L 233.381698 130.421292 
L 234.77046 130.263119 
L 236.38577 130.245361 
L 238.201103 130.369181 
L 240.186653 130.626485 
L 242.309816 131.000447 
L 244.535733 131.466608 
L 246.827854 131.994483 
L 249.148543 132.549547 
L 251.459696 133.095498 
L 253.723365 133.59663 
L 255.902382 134.020168 
L 257.960969 134.338413 
L 259.865323 134.530552 
L 261.584176 134.584022 
L 263.089304 134.495328 
L 264.355993 134.270274 
L 265.363444 133.923585 
L 266.095113 133.477939 
L 266.538986 132.962487 
z
" style="fill:#0000ff;stroke:#000000;stroke-linejoin:miter;"/>
   </g>
   <g id="patch_6">
    <path clip-path="url(#p205bcdd669)" d="M 254.003442 140.564431 
L 188.771442 140.561775 
L 188.771221 145.997775 
L 254.003221 146.000431 
z
" style="fill:#999999;stroke:#000000;stroke-linejoin:miter;"/>
   </g>
   <g id="text_1">
    <!-- t = 3.5 -->
    <defs>
     <path d="M 18.3125 70.21875 
L 18.3125 54.6875 
L 36.8125 54.6875 
L 36.8125 47.703125 
L 18.3125 47.703125 
L 18.3125 18.015625 
Q 18.3125 11.328125 20.140625 9.421875 
Q 21.96875 7.515625 27.59375 7.515625 
L 36.8125 7.515625 
L 36.8125 0 
L 27.59375 0 
Q 17.1875 0 13.234375 3.875 
Q 9.28125 7.765625 9.28125 18.015625 
L 9.28125 47.703125 
L 2.6875 47.703125 
L 2.6875 54.6875 
L 9.28125 54.6875 
L 9.28125 70.21875 
z
" id="DejaVuSans-116"/>
     <path id="DejaVuSans-32"/>
     <path d="M 10.59375 45.40625 
L 73.1875 45.40625 
L 73.1875 37.203125 
L 10.59375 37.203125 
z
M 10.59375 25.484375 
L 73.1875 25.484375 
L 73.1875 17.1875 
L 10.59375 17.1875 
z
" id="DejaVuSans-61"/>
     <path d="M 40.578125 39.3125 
Q 47.65625 37.796875 51.625 33 
Q 55.609375 28.21875 55.609375 21.1875 
Q 55.609375 10.40625 48.1875 4.484375 
Q 40.765625 -1.421875 27.09375 -1.421875 
Q 22.515625 -1.421875 17.65625 -0.515625 
Q 12.796875 0.390625 7.625 2.203125 
L 7.625 11.71875 
Q 11.71875 9.328125 16.59375 8.109375 
Q 21.484375 6.890625 26.8125 6.890625 
Q 36.078125 6.890625 40.9375 10.546875 
Q 45.796875 14.203125 45.796875 21.1875 
Q 45.796875 27.640625 41.28125 31.265625 
Q 36.765625 34.90625 28.71875 34.90625 
L 20.21875 34.90625 
L 20.21875 43.015625 
L 29.109375 43.015625 
Q 36.375 43.015625 40.234375 45.921875 
Q 44.09375 48.828125 44.09375 54.296875 
Q 44.09375 59.90625 40.109375 62.90625 
Q 36.140625 65.921875 28.71875 65.921875 
Q 24.65625 65.921875 20.015625 65.03125 
Q 15.375 64.15625 9.8125 62.3125 
L 9.8125 71.09375 
Q 15.4375 72.65625 20.34375 73.4375 
Q 25.25 74.21875 29.59375 74.21875 
Q 40.828125 74.21875 47.359375 69.109375 
Q 53.90625 64.015625 53.90625 55.328125 
Q 53.90625 49.265625 50.4375 45.09375 
Q 46.96875 40.921875 40.578125 39.3125 
z
" id="DejaVuSans-51"/>
     <path d="M 10.6875 12.40625 
L 21 12.40625 
L 21 0 
L 10.6875 0 
z
" id="DejaVuSans-46"/>
     <path d="M 10.796875 72.90625 
L 49.515625 72.90625 
L 49.515625 64.59375 
L 19.828125 64.59375 
L 19.828125 46.734375 
Q 21.96875 47.46875 24.109375 47.828125 
Q 26.265625 48.1875 28.421875 48.1875 
Q 40.625 48.1875 47.75 41.5 
Q 54.890625 34.8125 54.890625 23.390625 
Q 54.890625 11.625 47.5625 5.09375 
Q 40.234375 -1.421875 26.90625 -1.421875 
Q 22.3125 -1.421875 17.546875 -0.640625 
Q 12.796875 0.140625 7.71875 1.703125 
L 7.71875 11.625 
Q 12.109375 9.234375 16.796875 8.0625 
Q 21.484375 6.890625 26.703125 6.890625 
Q 35.15625 6.890625 40.078125 11.328125 
Q 45.015625 15.765625 45.015625 23.390625 
Q 45.015625 31 40.078125 35.4375 
Q 35.15625 39.890625 26.703125 39.890625 
Q 22.75 39.890625 18.8125 39.015625 
Q 14.890625 38.140625 10.796875 36.28125 
z
" id="DejaVuSans-53"/>
    </defs>
    <g transform="translate(200.664375 28.56)scale(0.12 -0.12)">
     <use xlink:href="#DejaVuSans-116"/>
     <use x="39.208984" xlink:href="#DejaVuSans-32"/>
     <use x="70.996094" xlink:href="#DejaVuSans-61"/>
     <use x="154.785156" xlink:href="#DejaVuSans-32"/>
     <use x="186.572266" xlink:href="#DejaVuSans-51"/>
     <use x="250.195312" xlink:href="#DejaVuSans-46"/>
     <use x="281.982422" xlink:href="#DejaVuSans-53"/>
    </g>
   </g>
  </g>
 </g>
 <defs>
  <clipPath id="p205bcdd669">
   <rect height="217.44" width="334.8" x="54" y="34.56"/>
  </clipPath>
 </defs>
</svg>
