<?xml version="1.0" encoding="utf-8" standalone="no"?>
<!DOCTYPE svg PUBLIC "-//W3C//DTD SVG 1.1//EN"
  "http://www.w3.org/Graphics/SVG/1.1/DTD/svg11.dtd">
<!-- Created with matplotlib (https://matplotlib.org/) -->
<svg height="288pt" version="1.1" viewBox="0 0 432 288" width="432pt" xmlns="http://www.w3.org/2000/svg" xmlns:xlink="http://www.w3.org/1999/xlink">
 <defs>
  <style type="text/css">
*{stroke-linecap:butt;stroke-linejoin:round;}
  </style>
 </defs>
 <g id="figure_1">
  <g id="patch_1">
   <path d="M 0 288 
L 432 288 
L 432 0 
L 0 0 
z
" style="fill:#ffffff;"/>
  </g>
  <g id="axes_1">
   <g id="patch_2">
    <path clip-path="url(#p8306dcd9cf)" d="M 194.395252 132.875188 
L 194.174036 143.744937 
L 193.087061 143.722815 
L 193.308277 132.853066 
z
" style="stroke:#000000;stroke-linejoin:miter;"/>
   </g>
   <g id="patch_3">
    <path clip-path="url(#p8306dcd9cf)" d="M 248.743998 133.981266 
L 248.522782 144.851015 
L 247.435807 144.828893 
L 247.657023 133.959144 
z
" style="stroke:#000000;stroke-linejoin:miter;"/>
   </g>
   <g id="patch_4">
    <path clip-path="url(#p8306dcd9cf)" d="M 211.968013 133.232819 
L 211.830501 132.67836 
L 211.397229 132.153966 
L 210.674798 131.693495 
L 209.674625 131.326338 
L 208.412787 131.075506 
L 206.90978 130.956144 
L 205.190194 130.974559 
L 203.282319 131.127832 
L 201.217672 131.40404 
L 199.030473 131.783064 
L 196.757057 132.237941 
L 194.435253 132.736658 
L 192.10373 133.244293 
L 189.801323 133.725326 
L 187.566365 134.146009 
L 185.436019 134.476606 
L 183.445636 134.693375 
L 181.628156 134.780159 
L 180.013544 134.729471 
L 178.628295 134.543017 
L 177.494998 134.231608 
L 176.631972 133.814479 
L 176.052992 133.318045 
L 175.76708 132.77419 
L 175.778395 132.218193 
L 176.086198 131.686421 
L 176.684897 131.213954 
L 177.564179 130.832284 
L 178.709208 130.567243 
L 180.100896 130.437303 
L 181.716233 130.45235 
L 183.528677 130.613008 
L 185.508593 130.910579 
L 187.623725 131.327577 
L 189.839716 131.838843 
L 192.120645 132.413154 
L 194.429584 133.015229 
L 196.729174 133.608 
L 198.982201 134.154996 
L 201.152168 134.622695 
L 203.203867 134.982677 
L 205.103927 135.213447 
L 206.821339 135.30181 
L 208.327958 135.243698 
L 209.598956 135.044413 
L 210.61324 134.718253 
L 211.353808 134.287557 
L 211.808056 133.781225 
z
" style="fill:#0000ff;stroke:#000000;stroke-linejoin:miter;"/>
   </g>
   <g id="patch_5">
    <path clip-path="url(#p8306dcd9cf)" d="M 266.316759 134.338898 
L 266.179247 133.784438 
L 265.745975 133.260044 
L 265.023544 132.799573 
L 264.023371 132.432416 
L 262.761533 132.181585 
L 261.258526 132.062222 
L 259.53894 132.080637 
L 257.631065 132.23391 
L 255.566418 132.510118 
L 253.379219 132.889143 
L 251.105803 133.344019 
L 248.783999 133.842737 
L 246.452476 134.350371 
L 244.150069 134.831405 
L 241.915111 135.252087 
L 239.784765 135.582684 
L 237.794382 135.799453 
L 235.976902 135.886237 
L 234.36229 135.835549 
L 232.977041 135.649095 
L 231.843744 135.337687 
L 230.980718 134.920557 
L 230.401738 134.424123 
L 230.115826 133.880268 
L 230.127141 133.324271 
L 230.434944 132.7925 
L 231.033643 132.320033 
L 231.912925 131.938362 
L 233.057954 131.673321 
L 234.449642 131.543382 
L 236.064979 131.558428 
L 237.877423 131.719086 
L 239.857339 132.016657 
L 241.972471 132.433655 
L 244.188462 132.944922 
L 246.469391 133.519233 
L 248.77833 134.121308 
L 251.07792 134.714078 
L 253.330947 135.261074 
L 255.500914 135.728773 
L 257.552613 136.088755 
L 259.452673 136.319526 
L 261.170085 136.407888 
L 262.676704 136.349776 
L 263.947702 136.150491 
L 264.961986 135.824331 
L 265.702554 135.393635 
L 266.156802 134.887303 
z
" style="fill:#0000ff;stroke:#000000;stroke-linejoin:miter;"/>
   </g>
   <g id="patch_6">
    <path clip-path="url(#p8306dcd9cf)" d="M 253.469473 142.233125 
L 188.250978 140.905831 
L 188.14037 146.340705 
L 253.358865 147.667999 
z
" style="fill:#999999;stroke:#000000;stroke-linejoin:miter;"/>
   </g>
   <g id="text_1">
    <!-- t = 1.7 -->
    <defs>
     <path d="M 18.3125 70.21875 
L 18.3125 54.6875 
L 36.8125 54.6875 
L 36.8125 47.703125 
L 18.3125 47.703125 
L 18.3125 18.015625 
Q 18.3125 11.328125 20.140625 9.421875 
Q 21.96875 7.515625 27.59375 7.515625 
L 36.8125 7.515625 
L 36.8125 0 
L 27.59375 0 
Q 17.1875 0 13.234375 3.875 
Q 9.28125 7.765625 9.28125 18.015625 
L 9.28125 47.703125 
L 2.6875 47.703125 
L 2.6875 54.6875 
L 9.28125 54.6875 
L 9.28125 70.21875 
z
" id="DejaVuSans-116"/>
     <path id="DejaVuSans-32"/>
     <path d="M 10.59375 45.40625 
L 73.1875 45.40625 
L 73.1875 37.203125 
L 10.59375 37.203125 
z
M 10.59375 25.484375 
L 73.1875 25.484375 
L 73.1875 17.1875 
L 10.59375 17.1875 
z
" id="DejaVuSans-61"/>
     <path d="M 12.40625 8.296875 
L 28.515625 8.296875 
L 28.515625 63.921875 
L 10.984375 60.40625 
L 10.984375 69.390625 
L 28.421875 72.90625 
L 38.28125 72.90625 
L 38.28125 8.296875 
L 54.390625 8.296875 
L 54.390625 0 
L 12.40625 0 
z
" id="DejaVuSans-49"/>
     <path d="M 10.6875 12.40625 
L 21 12.40625 
L 21 0 
L 10.6875 0 
z
" id="DejaVuSans-46"/>
     <path d="M 8.203125 72.90625 
L 55.078125 72.90625 
L 55.078125 68.703125 
L 28.609375 0 
L 18.3125 0 
L 43.21875 64.59375 
L 8.203125 64.59375 
z
" id="DejaVuSans-55"/>
    </defs>
    <g transform="translate(200.664375 28.56)scale(0.12 -0.12)">
     <use xlink:href="#DejaVuSans-116"/>
     <use x="39.208984" xlink:href="#DejaVuSans-32"/>
     <use x="70.996094" xlink:href="#DejaVuSans-61"/>
     <use x="154.785156" xlink:href="#DejaVuSans-32"/>
     <use x="186.572266" xlink:href="#DejaVuSans-49"/>
     <use x="250.195312" xlink:href="#DejaVuSans-46"/>
     <use x="281.982422" xlink:href="#DejaVuSans-55"/>
    </g>
   </g>
  </g>
 </g>
 <defs>
  <clipPath id="p8306dcd9cf">
   <rect height="217.44" width="334.8" x="54" y="34.56"/>
  </clipPath>
 </defs>
</svg>
