<?xml version="1.0" encoding="utf-8" standalone="no"?>
<!DOCTYPE svg PUBLIC "-//W3C//DTD SVG 1.1//EN"
  "http://www.w3.org/Graphics/SVG/1.1/DTD/svg11.dtd">
<!-- Created with matplotlib (https://matplotlib.org/) -->
<svg height="288pt" version="1.1" viewBox="0 0 432 288" width="432pt" xmlns="http://www.w3.org/2000/svg" xmlns:xlink="http://www.w3.org/1999/xlink">
 <defs>
  <style type="text/css">
*{stroke-linecap:butt;stroke-linejoin:round;}
  </style>
 </defs>
 <g id="figure_1">
  <g id="patch_1">
   <path d="M 0 288 
L 432 288 
L 432 0 
L 0 0 
z
" style="fill:#ffffff;"/>
  </g>
  <g id="axes_1">
   <g id="patch_2">
    <path clip-path="url(#pad56c1f86c)" d="M 194.752019 132.413674 
L 194.754253 143.285673 
L 193.667053 143.285897 
L 193.664819 132.413897 
z
" style="stroke:#000000;stroke-linejoin:miter;"/>
   </g>
   <g id="patch_3">
    <path clip-path="url(#pad56c1f86c)" d="M 249.112018 132.4025 
L 249.114252 143.2745 
L 248.027052 143.274723 
L 248.024818 132.402724 
z
" style="stroke:#000000;stroke-linejoin:miter;"/>
   </g>
   <g id="patch_4">
    <path clip-path="url(#pad56c1f86c)" d="M 212.328418 132.410061 
L 212.17954 131.858545 
L 211.735582 131.343166 
L 211.003839 130.897641 
L 209.996331 130.551118 
L 208.729605 130.326273 
L 207.224462 130.237827 
L 205.505618 130.29158 
L 203.601296 130.484033 
L 201.542762 130.802617 
L 199.363815 131.226514 
L 197.100228 131.72802 
L 194.789165 132.274352 
L 192.468567 132.829798 
L 190.176533 133.358051 
L 187.950694 133.824579 
L 185.827592 134.19889 
L 183.842084 134.456522 
L 182.026772 134.580642 
L 180.411459 134.563149 
L 179.022671 134.405205 
L 177.883213 134.117155 
L 177.011796 133.717852 
L 176.422735 133.233422 
L 176.125706 132.695558 
L 176.125591 132.139446 
L 176.422399 131.601461 
L 177.011262 131.116788 
L 177.882514 130.717127 
L 179.021854 130.428608 
L 180.410577 130.270093 
L 182.025882 130.251937 
L 183.841246 130.37531 
L 185.826858 130.632125 
L 187.950114 131.005564 
L 190.176146 131.471177 
L 192.468396 131.998488 
L 194.789222 132.55298 
L 197.10051 133.098362 
L 199.364302 133.598937 
L 201.543424 134.021938 
L 203.602088 134.339676 
L 205.506489 134.531346 
L 207.225355 134.584393 
L 208.730462 134.495328 
L 209.997095 134.269962 
L 211.004461 133.923025 
L 211.736021 133.477199 
L 212.179767 132.961638 
z
" style="fill:#0000ff;stroke:#000000;stroke-linejoin:miter;"/>
   </g>
   <g id="patch_5">
    <path clip-path="url(#pad56c1f86c)" d="M 266.688417 132.398887 
L 266.539539 131.847371 
L 266.095581 131.331993 
L 265.363838 130.886467 
L 264.35633 130.539944 
L 263.089604 130.3151 
L 261.584461 130.226654 
L 259.865617 130.280406 
L 257.961294 130.47286 
L 255.902761 130.791444 
L 253.723813 131.215341 
L 251.460227 131.716846 
L 249.149163 132.263178 
L 246.828566 132.818625 
L 244.536532 133.346877 
L 242.310693 133.813406 
L 240.18759 134.187717 
L 238.202083 134.445348 
L 236.386771 134.569468 
L 234.771458 134.551976 
L 233.38267 134.394032 
L 232.243211 134.105982 
L 231.371795 133.706678 
L 230.782734 133.222248 
L 230.485705 132.684385 
L 230.48559 132.128273 
L 230.782398 131.590287 
L 231.37126 131.105615 
L 232.242513 130.705953 
L 233.381853 130.417435 
L 234.770576 130.25892 
L 236.385881 130.240764 
L 238.201244 130.364137 
L 240.186857 130.620952 
L 242.310113 130.99439 
L 244.536144 131.460004 
L 246.828395 131.987314 
L 249.149221 132.541807 
L 251.460508 133.087189 
L 253.724301 133.587763 
L 255.903422 134.010765 
L 257.962087 134.328503 
L 259.866488 134.520173 
L 261.585354 134.573219 
L 263.090461 134.484154 
L 264.357094 134.258789 
L 265.36446 133.911852 
L 266.096019 133.466025 
L 266.539766 132.950464 
z
" style="fill:#0000ff;stroke:#000000;stroke-linejoin:miter;"/>
   </g>
   <g id="patch_6">
    <path clip-path="url(#pad56c1f86c)" d="M 254.006093 140.555494 
L 188.774095 140.568902 
L 188.775212 146.004902 
L 254.007211 145.991494 
z
" style="fill:#999999;stroke:#000000;stroke-linejoin:miter;"/>
   </g>
   <g id="text_1">
    <!-- t = 3.6 -->
    <defs>
     <path d="M 18.3125 70.21875 
L 18.3125 54.6875 
L 36.8125 54.6875 
L 36.8125 47.703125 
L 18.3125 47.703125 
L 18.3125 18.015625 
Q 18.3125 11.328125 20.140625 9.421875 
Q 21.96875 7.515625 27.59375 7.515625 
L 36.8125 7.515625 
L 36.8125 0 
L 27.59375 0 
Q 17.1875 0 13.234375 3.875 
Q 9.28125 7.765625 9.28125 18.015625 
L 9.28125 47.703125 
L 2.6875 47.703125 
L 2.6875 54.6875 
L 9.28125 54.6875 
L 9.28125 70.21875 
z
" id="DejaVuSans-116"/>
     <path id="DejaVuSans-32"/>
     <path d="M 10.59375 45.40625 
L 73.1875 45.40625 
L 73.1875 37.203125 
L 10.59375 37.203125 
z
M 10.59375 25.484375 
L 73.1875 25.484375 
L 73.1875 17.1875 
L 10.59375 17.1875 
z
" id="DejaVuSans-61"/>
     <path d="M 40.578125 39.3125 
Q 47.65625 37.796875 51.625 33 
Q 55.609375 28.21875 55.609375 21.1875 
Q 55.609375 10.40625 48.1875 4.484375 
Q 40.765625 -1.421875 27.09375 -1.421875 
Q 22.515625 -1.421875 17.65625 -0.515625 
Q 12.796875 0.390625 7.625 2.203125 
L 7.625 11.71875 
Q 11.71875 9.328125 16.59375 8.109375 
Q 21.484375 6.890625 26.8125 6.890625 
Q 36.078125 6.890625 40.9375 10.546875 
Q 45.796875 14.203125 45.796875 21.1875 
Q 45.796875 27.640625 41.28125 31.265625 
Q 36.765625 34.90625 28.71875 34.90625 
L 20.21875 34.90625 
L 20.21875 43.015625 
L 29.109375 43.015625 
Q 36.375 43.015625 40.234375 45.921875 
Q 44.09375 48.828125 44.09375 54.296875 
Q 44.09375 59.90625 40.109375 62.90625 
Q 36.140625 65.921875 28.71875 65.921875 
Q 24.65625 65.921875 20.015625 65.03125 
Q 15.375 64.15625 9.8125 62.3125 
L 9.8125 71.09375 
Q 15.4375 72.65625 20.34375 73.4375 
Q 25.25 74.21875 29.59375 74.21875 
Q 40.828125 74.21875 47.359375 69.109375 
Q 53.90625 64.015625 53.90625 55.328125 
Q 53.90625 49.265625 50.4375 45.09375 
Q 46.96875 40.921875 40.578125 39.3125 
z
" id="DejaVuSans-51"/>
     <path d="M 10.6875 12.40625 
L 21 12.40625 
L 21 0 
L 10.6875 0 
z
" id="DejaVuSans-46"/>
     <path d="M 33.015625 40.375 
Q 26.375 40.375 22.484375 35.828125 
Q 18.609375 31.296875 18.609375 23.390625 
Q 18.609375 15.53125 22.484375 10.953125 
Q 26.375 6.390625 33.015625 6.390625 
Q 39.65625 6.390625 43.53125 10.953125 
Q 47.40625 15.53125 47.40625 23.390625 
Q 47.40625 31.296875 43.53125 35.828125 
Q 39.65625 40.375 33.015625 40.375 
z
M 52.59375 71.296875 
L 52.59375 62.3125 
Q 48.875 64.0625 45.09375 64.984375 
Q 41.3125 65.921875 37.59375 65.921875 
Q 27.828125 65.921875 22.671875 59.328125 
Q 17.53125 52.734375 16.796875 39.40625 
Q 19.671875 43.65625 24.015625 45.921875 
Q 28.375 48.1875 33.59375 48.1875 
Q 44.578125 48.1875 50.953125 41.515625 
Q 57.328125 34.859375 57.328125 23.390625 
Q 57.328125 12.15625 50.6875 5.359375 
Q 44.046875 -1.421875 33.015625 -1.421875 
Q 20.359375 -1.421875 13.671875 8.265625 
Q 6.984375 17.96875 6.984375 36.375 
Q 6.984375 53.65625 15.1875 63.9375 
Q 23.390625 74.21875 37.203125 74.21875 
Q 40.921875 74.21875 44.703125 73.484375 
Q 48.484375 72.75 52.59375 71.296875 
z
" id="DejaVuSans-54"/>
    </defs>
    <g transform="translate(200.664375 28.56)scale(0.12 -0.12)">
     <use xlink:href="#DejaVuSans-116"/>
     <use x="39.208984" xlink:href="#DejaVuSans-32"/>
     <use x="70.996094" xlink:href="#DejaVuSans-61"/>
     <use x="154.785156" xlink:href="#DejaVuSans-32"/>
     <use x="186.572266" xlink:href="#DejaVuSans-51"/>
     <use x="250.195312" xlink:href="#DejaVuSans-46"/>
     <use x="281.982422" xlink:href="#DejaVuSans-54"/>
    </g>
   </g>
  </g>
 </g>
 <defs>
  <clipPath id="pad56c1f86c">
   <rect height="217.44" width="334.8" x="54" y="34.56"/>
  </clipPath>
 </defs>
</svg>
