<?xml version="1.0" encoding="utf-8" standalone="no"?>
<!DOCTYPE svg PUBLIC "-//W3C//DTD SVG 1.1//EN"
  "http://www.w3.org/Graphics/SVG/1.1/DTD/svg11.dtd">
<!-- Created with matplotlib (https://matplotlib.org/) -->
<svg height="288pt" version="1.1" viewBox="0 0 432 288" width="432pt" xmlns="http://www.w3.org/2000/svg" xmlns:xlink="http://www.w3.org/1999/xlink">
 <defs>
  <style type="text/css">
*{stroke-linecap:butt;stroke-linejoin:round;}
  </style>
 </defs>
 <g id="figure_1">
  <g id="patch_1">
   <path d="M 0 288 
L 432 288 
L 432 0 
L 0 0 
z
" style="fill:#ffffff;"/>
  </g>
  <g id="axes_1">
   <g id="patch_2">
    <path clip-path="url(#p11ee480a46)" d="M 194.644735 132.385445 
L 194.652332 143.257442 
L 193.565132 143.258202 
L 193.557535 132.386204 
z
" style="stroke:#000000;stroke-linejoin:miter;"/>
   </g>
   <g id="patch_3">
    <path clip-path="url(#p11ee480a46)" d="M 249.004722 132.347458 
L 249.012319 143.219456 
L 247.925119 143.220216 
L 247.917522 132.348218 
z
" style="stroke:#000000;stroke-linejoin:miter;"/>
   </g>
   <g id="patch_4">
    <path clip-path="url(#p11ee480a46)" d="M 212.221131 132.373162 
L 212.07198 131.82172 
L 211.627768 131.306561 
L 210.895805 130.861396 
L 209.888127 130.51537 
L 208.62129 130.29115 
L 207.116103 130.203446 
L 205.397286 130.258047 
L 203.493059 130.45144 
L 201.434683 130.771039 
L 199.255945 131.196011 
L 196.992606 131.698633 
L 194.681812 132.246104 
L 192.361489 132.802696 
L 190.069716 133.332079 
L 187.844107 133.799705 
L 185.721189 134.175063 
L 183.73581 134.433674 
L 181.920558 134.558689 
L 180.305238 134.541994 
L 178.916372 134.384735 
L 177.776771 134.097247 
L 176.905158 133.698373 
L 176.315858 133.214234 
L 176.018563 132.676517 
L 176.018175 132.120405 
L 176.314717 131.582273 
L 176.90334 131.09731 
L 177.774395 130.697219 
L 178.913593 130.408138 
L 180.302238 130.248939 
L 181.917533 130.229985 
L 183.732958 130.352464 
L 185.718697 130.608299 
L 187.842137 130.98069 
L 190.068397 131.445206 
L 192.360908 131.971385 
L 194.682007 132.524733 
L 196.993563 133.068975 
L 199.257602 133.568433 
L 201.436932 133.990359 
L 203.495753 134.307082 
L 205.400249 134.497813 
L 207.119141 134.550011 
L 208.624203 134.460204 
L 209.890725 134.234214 
L 210.89792 133.88678 
L 211.629259 133.440593 
L 212.072751 132.924813 
z
" style="fill:#0000ff;stroke:#000000;stroke-linejoin:miter;"/>
   </g>
   <g id="patch_5">
    <path clip-path="url(#p11ee480a46)" d="M 266.581117 132.335176 
L 266.431967 131.783734 
L 265.987755 131.268574 
L 265.255792 130.82341 
L 264.248113 130.477384 
L 262.981276 130.253164 
L 261.47609 130.16546 
L 259.757273 130.220061 
L 257.853046 130.413453 
L 255.794669 130.733053 
L 253.615931 131.158025 
L 251.352592 131.660646 
L 249.041799 132.208118 
L 246.721475 132.764709 
L 244.429703 133.294092 
L 242.204093 133.761719 
L 240.081176 134.137077 
L 238.095796 134.395688 
L 236.280545 134.520703 
L 234.665224 134.504007 
L 233.276358 134.346749 
L 232.136758 134.05926 
L 231.265145 133.660387 
L 230.675844 133.176247 
L 230.37855 132.63853 
L 230.378161 132.082418 
L 230.674704 131.544287 
L 231.263327 131.059324 
L 232.134382 130.659232 
L 233.27358 130.370152 
L 234.662224 130.210952 
L 236.27752 130.191999 
L 238.092944 130.314477 
L 240.078684 130.570313 
L 242.202123 130.942704 
L 244.428384 131.407219 
L 246.720894 131.933399 
L 249.041993 132.486747 
L 251.35355 133.030989 
L 253.617589 133.530446 
L 255.796919 133.952373 
L 257.85574 134.269095 
L 259.760235 134.459826 
L 261.479127 134.512025 
L 262.98419 134.422218 
L 264.250712 134.196228 
L 265.257906 133.848793 
L 265.989246 133.402606 
L 266.432738 132.886827 
z
" style="fill:#0000ff;stroke:#000000;stroke-linejoin:miter;"/>
   </g>
   <g id="patch_6">
    <path clip-path="url(#p11ee480a46)" d="M 253.902818 140.498038 
L 188.670834 140.543621 
L 188.674633 145.97962 
L 253.906617 145.934036 
z
" style="fill:#999999;stroke:#000000;stroke-linejoin:miter;"/>
   </g>
   <g id="text_1">
    <!-- t = 2.2 -->
    <defs>
     <path d="M 18.3125 70.21875 
L 18.3125 54.6875 
L 36.8125 54.6875 
L 36.8125 47.703125 
L 18.3125 47.703125 
L 18.3125 18.015625 
Q 18.3125 11.328125 20.140625 9.421875 
Q 21.96875 7.515625 27.59375 7.515625 
L 36.8125 7.515625 
L 36.8125 0 
L 27.59375 0 
Q 17.1875 0 13.234375 3.875 
Q 9.28125 7.765625 9.28125 18.015625 
L 9.28125 47.703125 
L 2.6875 47.703125 
L 2.6875 54.6875 
L 9.28125 54.6875 
L 9.28125 70.21875 
z
" id="DejaVuSans-116"/>
     <path id="DejaVuSans-32"/>
     <path d="M 10.59375 45.40625 
L 73.1875 45.40625 
L 73.1875 37.203125 
L 10.59375 37.203125 
z
M 10.59375 25.484375 
L 73.1875 25.484375 
L 73.1875 17.1875 
L 10.59375 17.1875 
z
" id="DejaVuSans-61"/>
     <path d="M 19.1875 8.296875 
L 53.609375 8.296875 
L 53.609375 0 
L 7.328125 0 
L 7.328125 8.296875 
Q 12.9375 14.109375 22.625 23.890625 
Q 32.328125 33.6875 34.8125 36.53125 
Q 39.546875 41.84375 41.421875 45.53125 
Q 43.3125 49.21875 43.3125 52.78125 
Q 43.3125 58.59375 39.234375 62.25 
Q 35.15625 65.921875 28.609375 65.921875 
Q 23.96875 65.921875 18.8125 64.3125 
Q 13.671875 62.703125 7.8125 59.421875 
L 7.8125 69.390625 
Q 13.765625 71.78125 18.9375 73 
Q 24.125 74.21875 28.421875 74.21875 
Q 39.75 74.21875 46.484375 68.546875 
Q 53.21875 62.890625 53.21875 53.421875 
Q 53.21875 48.921875 51.53125 44.890625 
Q 49.859375 40.875 45.40625 35.40625 
Q 44.1875 33.984375 37.640625 27.21875 
Q 31.109375 20.453125 19.1875 8.296875 
z
" id="DejaVuSans-50"/>
     <path d="M 10.6875 12.40625 
L 21 12.40625 
L 21 0 
L 10.6875 0 
z
" id="DejaVuSans-46"/>
    </defs>
    <g transform="translate(200.664375 28.56)scale(0.12 -0.12)">
     <use xlink:href="#DejaVuSans-116"/>
     <use x="39.208984" xlink:href="#DejaVuSans-32"/>
     <use x="70.996094" xlink:href="#DejaVuSans-61"/>
     <use x="154.785156" xlink:href="#DejaVuSans-32"/>
     <use x="186.572266" xlink:href="#DejaVuSans-50"/>
     <use x="250.195312" xlink:href="#DejaVuSans-46"/>
     <use x="281.982422" xlink:href="#DejaVuSans-50"/>
    </g>
   </g>
  </g>
 </g>
 <defs>
  <clipPath id="p11ee480a46">
   <rect height="217.44" width="334.8" x="54" y="34.56"/>
  </clipPath>
 </defs>
</svg>
