<?xml version="1.0" encoding="utf-8" standalone="no"?>
<!DOCTYPE svg PUBLIC "-//W3C//DTD SVG 1.1//EN"
  "http://www.w3.org/Graphics/SVG/1.1/DTD/svg11.dtd">
<!-- Created with matplotlib (https://matplotlib.org/) -->
<svg height="288pt" version="1.1" viewBox="0 0 432 288" width="432pt" xmlns="http://www.w3.org/2000/svg" xmlns:xlink="http://www.w3.org/1999/xlink">
 <defs>
  <style type="text/css">
*{stroke-linecap:butt;stroke-linejoin:round;}
  </style>
 </defs>
 <g id="figure_1">
  <g id="patch_1">
   <path d="M 0 288 
L 432 288 
L 432 0 
L 0 0 
z
" style="fill:#ffffff;"/>
  </g>
  <g id="axes_1">
   <g id="patch_2">
    <path clip-path="url(#pffe6f06132)" d="M 194.758561 132.406779 
L 194.757916 143.278779 
L 193.670716 143.278714 
L 193.671361 132.406714 
z
" style="stroke:#000000;stroke-linejoin:miter;"/>
   </g>
   <g id="patch_3">
    <path clip-path="url(#pffe6f06132)" d="M 249.118561 132.410006 
L 249.117915 143.282006 
L 248.030715 143.281941 
L 248.031361 132.409941 
z
" style="stroke:#000000;stroke-linejoin:miter;"/>
   </g>
   <g id="patch_4">
    <path clip-path="url(#pffe6f06132)" d="M 212.334961 132.407822 
L 212.186229 131.856267 
L 211.742407 131.340771 
L 211.010782 130.895052 
L 210.003366 130.548261 
L 208.736699 130.323081 
L 207.23158 130.234237 
L 205.512722 130.287534 
L 203.608349 130.479483 
L 201.549731 130.797522 
L 199.370671 131.220842 
L 197.106952 131.721747 
L 194.795744 132.267467 
L 192.474999 132.822299 
L 190.182826 133.349944 
L 187.956862 133.815883 
L 185.833661 134.189632 
L 183.848086 134.446737 
L 182.03274 134.570376 
L 180.417433 134.552456 
L 179.028686 134.394144 
L 177.889304 134.105792 
L 177.017994 133.706257 
L 176.429061 133.221671 
L 176.132174 132.683729 
L 176.132207 132.127617 
L 176.429157 131.58971 
L 177.018148 131.105194 
L 177.889506 130.705763 
L 179.028923 130.417546 
L 180.417688 130.2594 
L 182.032997 130.241671 
L 183.848328 130.365525 
L 185.833873 130.622867 
L 187.95703 130.996867 
L 190.182938 131.46307 
L 192.475048 131.990988 
L 194.795727 132.546095 
L 197.10687 133.09209 
L 199.37053 133.593264 
L 201.54954 134.016843 
L 203.60812 134.335126 
L 205.51247 134.527301 
L 207.231322 134.580802 
L 208.736452 134.492136 
L 210.003145 134.267106 
L 211.010603 133.920436 
L 211.74228 133.474803 
L 212.186163 132.95936 
z
" style="fill:#0000ff;stroke:#000000;stroke-linejoin:miter;"/>
   </g>
   <g id="patch_5">
    <path clip-path="url(#pffe6f06132)" d="M 266.694961 132.411049 
L 266.546229 131.859494 
L 266.102407 131.343998 
L 265.370782 130.898279 
L 264.363366 130.551489 
L 263.096699 130.326308 
L 261.59158 130.237464 
L 259.872722 130.290761 
L 257.968349 130.48271 
L 255.909731 130.800749 
L 253.730671 131.224069 
L 251.466952 131.724974 
L 249.155744 132.270694 
L 246.834999 132.825526 
L 244.542826 133.353171 
L 242.316862 133.81911 
L 240.193661 134.192859 
L 238.208086 134.449964 
L 236.39274 134.573603 
L 234.777433 134.555683 
L 233.388686 134.397371 
L 232.249304 134.109019 
L 231.377994 133.709484 
L 230.789061 133.224898 
L 230.492174 132.686956 
L 230.492207 132.130844 
L 230.789157 131.592937 
L 231.378148 131.108421 
L 232.249506 130.70899 
L 233.388922 130.420773 
L 234.777688 130.262627 
L 236.392997 130.244898 
L 238.208328 130.368753 
L 240.193873 130.626094 
L 242.31703 131.000094 
L 244.542938 131.466298 
L 246.835048 131.994215 
L 249.155727 132.549322 
L 251.46687 133.095317 
L 253.73053 133.596491 
L 255.909539 134.02007 
L 257.96812 134.338353 
L 259.87247 134.530528 
L 261.591322 134.584029 
L 263.096452 134.495363 
L 264.363145 134.270333 
L 265.370603 133.923663 
L 266.10228 133.47803 
L 266.546163 132.962587 
z
" style="fill:#0000ff;stroke:#000000;stroke-linejoin:miter;"/>
   </g>
   <g id="patch_6">
    <path clip-path="url(#pffe6f06132)" d="M 254.010477 140.564296 
L 188.778477 140.560424 
L 188.778154 145.996424 
L 254.010154 146.000296 
z
" style="fill:#999999;stroke:#000000;stroke-linejoin:miter;"/>
   </g>
   <g id="text_1">
    <!-- t = 3.9 -->
    <defs>
     <path d="M 18.3125 70.21875 
L 18.3125 54.6875 
L 36.8125 54.6875 
L 36.8125 47.703125 
L 18.3125 47.703125 
L 18.3125 18.015625 
Q 18.3125 11.328125 20.140625 9.421875 
Q 21.96875 7.515625 27.59375 7.515625 
L 36.8125 7.515625 
L 36.8125 0 
L 27.59375 0 
Q 17.1875 0 13.234375 3.875 
Q 9.28125 7.765625 9.28125 18.015625 
L 9.28125 47.703125 
L 2.6875 47.703125 
L 2.6875 54.6875 
L 9.28125 54.6875 
L 9.28125 70.21875 
z
" id="DejaVuSans-116"/>
     <path id="DejaVuSans-32"/>
     <path d="M 10.59375 45.40625 
L 73.1875 45.40625 
L 73.1875 37.203125 
L 10.59375 37.203125 
z
M 10.59375 25.484375 
L 73.1875 25.484375 
L 73.1875 17.1875 
L 10.59375 17.1875 
z
" id="DejaVuSans-61"/>
     <path d="M 40.578125 39.3125 
Q 47.65625 37.796875 51.625 33 
Q 55.609375 28.21875 55.609375 21.1875 
Q 55.609375 10.40625 48.1875 4.484375 
Q 40.765625 -1.421875 27.09375 -1.421875 
Q 22.515625 -1.421875 17.65625 -0.515625 
Q 12.796875 0.390625 7.625 2.203125 
L 7.625 11.71875 
Q 11.71875 9.328125 16.59375 8.109375 
Q 21.484375 6.890625 26.8125 6.890625 
Q 36.078125 6.890625 40.9375 10.546875 
Q 45.796875 14.203125 45.796875 21.1875 
Q 45.796875 27.640625 41.28125 31.265625 
Q 36.765625 34.90625 28.71875 34.90625 
L 20.21875 34.90625 
L 20.21875 43.015625 
L 29.109375 43.015625 
Q 36.375 43.015625 40.234375 45.921875 
Q 44.09375 48.828125 44.09375 54.296875 
Q 44.09375 59.90625 40.109375 62.90625 
Q 36.140625 65.921875 28.71875 65.921875 
Q 24.65625 65.921875 20.015625 65.03125 
Q 15.375 64.15625 9.8125 62.3125 
L 9.8125 71.09375 
Q 15.4375 72.65625 20.34375 73.4375 
Q 25.25 74.21875 29.59375 74.21875 
Q 40.828125 74.21875 47.359375 69.109375 
Q 53.90625 64.015625 53.90625 55.328125 
Q 53.90625 49.265625 50.4375 45.09375 
Q 46.96875 40.921875 40.578125 39.3125 
z
" id="DejaVuSans-51"/>
     <path d="M 10.6875 12.40625 
L 21 12.40625 
L 21 0 
L 10.6875 0 
z
" id="DejaVuSans-46"/>
     <path d="M 10.984375 1.515625 
L 10.984375 10.5 
Q 14.703125 8.734375 18.5 7.8125 
Q 22.3125 6.890625 25.984375 6.890625 
Q 35.75 6.890625 40.890625 13.453125 
Q 46.046875 20.015625 46.78125 33.40625 
Q 43.953125 29.203125 39.59375 26.953125 
Q 35.25 24.703125 29.984375 24.703125 
Q 19.046875 24.703125 12.671875 31.3125 
Q 6.296875 37.9375 6.296875 49.421875 
Q 6.296875 60.640625 12.9375 67.421875 
Q 19.578125 74.21875 30.609375 74.21875 
Q 43.265625 74.21875 49.921875 64.515625 
Q 56.59375 54.828125 56.59375 36.375 
Q 56.59375 19.140625 48.40625 8.859375 
Q 40.234375 -1.421875 26.421875 -1.421875 
Q 22.703125 -1.421875 18.890625 -0.6875 
Q 15.09375 0.046875 10.984375 1.515625 
z
M 30.609375 32.421875 
Q 37.25 32.421875 41.125 36.953125 
Q 45.015625 41.5 45.015625 49.421875 
Q 45.015625 57.28125 41.125 61.84375 
Q 37.25 66.40625 30.609375 66.40625 
Q 23.96875 66.40625 20.09375 61.84375 
Q 16.21875 57.28125 16.21875 49.421875 
Q 16.21875 41.5 20.09375 36.953125 
Q 23.96875 32.421875 30.609375 32.421875 
z
" id="DejaVuSans-57"/>
    </defs>
    <g transform="translate(200.664375 28.56)scale(0.12 -0.12)">
     <use xlink:href="#DejaVuSans-116"/>
     <use x="39.208984" xlink:href="#DejaVuSans-32"/>
     <use x="70.996094" xlink:href="#DejaVuSans-61"/>
     <use x="154.785156" xlink:href="#DejaVuSans-32"/>
     <use x="186.572266" xlink:href="#DejaVuSans-51"/>
     <use x="250.195312" xlink:href="#DejaVuSans-46"/>
     <use x="281.982422" xlink:href="#DejaVuSans-57"/>
    </g>
   </g>
  </g>
 </g>
 <defs>
  <clipPath id="pffe6f06132">
   <rect height="217.44" width="334.8" x="54" y="34.56"/>
  </clipPath>
 </defs>
</svg>
