<?xml version="1.0" encoding="utf-8" standalone="no"?>
<!DOCTYPE svg PUBLIC "-//W3C//DTD SVG 1.1//EN"
  "http://www.w3.org/Graphics/SVG/1.1/DTD/svg11.dtd">
<!-- Created with matplotlib (https://matplotlib.org/) -->
<svg height="288pt" version="1.1" viewBox="0 0 432 288" width="432pt" xmlns="http://www.w3.org/2000/svg" xmlns:xlink="http://www.w3.org/1999/xlink">
 <defs>
  <style type="text/css">
*{stroke-linecap:butt;stroke-linejoin:round;}
  </style>
 </defs>
 <g id="figure_1">
  <g id="patch_1">
   <path d="M 0 288 
L 432 288 
L 432 0 
L 0 0 
z
" style="fill:#ffffff;"/>
  </g>
  <g id="axes_1">
   <g id="patch_2">
    <path clip-path="url(#p1e6a4ad692)" d="M 186.80386 149.60078 
L 188.622607 160.319574 
L 187.550728 160.501449 
L 185.73198 149.782655 
z
" style="stroke:#000000;stroke-linejoin:miter;"/>
   </g>
   <g id="patch_3">
    <path clip-path="url(#p1e6a4ad692)" d="M 240.397829 140.507042 
L 242.216576 151.225836 
L 241.144697 151.407711 
L 239.325949 140.688917 
z
" style="stroke:#000000;stroke-linejoin:miter;"/>
   </g>
   <g id="patch_4">
    <path clip-path="url(#p1e6a4ad692)" d="M 204.132576 146.660471 
L 203.893641 146.141584 
L 203.369812 145.707629 
L 202.573915 145.390629 
L 201.522671 145.217316 
L 200.236184 145.207283 
L 198.737422 145.371567 
L 197.051721 145.711756 
L 195.206325 146.219687 
L 193.229959 146.877742 
L 191.152469 147.659749 
L 189.004497 148.532415 
L 186.817205 149.45721 
L 184.622035 150.392585 
L 182.450485 151.296375 
L 180.333885 152.128249 
L 178.30317 152.852036 
L 176.38862 153.437794 
L 174.619564 153.86348 
L 173.024036 154.116127 
L 171.628381 154.192449 
L 170.456812 154.098834 
L 169.530928 153.850744 
L 168.869206 153.471547 
L 168.486484 152.990873 
L 168.393453 152.442598 
L 168.5962 151.862583 
L 169.095803 151.286334 
L 169.88803 150.746718 
L 170.963147 150.271889 
L 172.305863 149.883568 
L 173.895427 149.595774 
L 175.705885 149.414094 
L 177.706495 149.335533 
L 179.862299 149.348959 
L 182.134835 149.436091 
L 184.482968 149.572989 
L 186.863816 149.731912 
L 189.233738 149.883447 
L 191.549346 149.99874 
L 193.768511 150.051697 
L 195.851325 150.020997 
L 197.760981 149.891777 
L 199.464547 149.656881 
L 200.933614 149.317588 
L 202.144787 148.883756 
L 203.080023 148.37338 
L 203.726809 147.811589 
L 204.078174 147.229132 
z
" style="fill:#0000ff;stroke:#000000;stroke-linejoin:miter;"/>
   </g>
   <g id="patch_5">
    <path clip-path="url(#p1e6a4ad692)" d="M 257.726545 137.566733 
L 257.48761 137.047846 
L 256.963781 136.613891 
L 256.167884 136.296891 
L 255.11664 136.123578 
L 253.830153 136.113545 
L 252.331391 136.277828 
L 250.645691 136.618018 
L 248.800294 137.125949 
L 246.823929 137.784004 
L 244.746439 138.566011 
L 242.598466 139.438677 
L 240.411174 140.363472 
L 238.216005 141.298847 
L 236.044454 142.202637 
L 233.927854 143.034511 
L 231.897139 143.758298 
L 229.982589 144.344056 
L 228.213533 144.769741 
L 226.618006 145.022389 
L 225.22235 145.098711 
L 224.050781 145.005096 
L 223.124897 144.757006 
L 222.463175 144.377809 
L 222.080453 143.897135 
L 221.987422 143.34886 
L 222.190169 142.768845 
L 222.689772 142.192596 
L 223.481999 141.65298 
L 224.557116 141.178151 
L 225.899832 140.78983 
L 227.489396 140.502036 
L 229.299854 140.320356 
L 231.300464 140.241795 
L 233.456268 140.255221 
L 235.728804 140.342353 
L 238.076937 140.479251 
L 240.457785 140.638174 
L 242.827707 140.789709 
L 245.143315 140.905001 
L 247.36248 140.957959 
L 249.445294 140.927259 
L 251.35495 140.798039 
L 253.058516 140.563143 
L 254.527583 140.22385 
L 255.738756 139.790018 
L 256.673993 139.279642 
L 257.320778 138.717851 
L 257.672144 138.135394 
z
" style="fill:#0000ff;stroke:#000000;stroke-linejoin:miter;"/>
   </g>
   <g id="patch_6">
    <path clip-path="url(#p1e6a4ad692)" d="M 246.585347 147.727701 
L 182.272584 158.640187 
L 183.181958 163.999584 
L 247.49472 153.087098 
z
" style="fill:#999999;stroke:#000000;stroke-linejoin:miter;"/>
   </g>
   <g id="text_1">
    <!-- t = 0.8 -->
    <defs>
     <path d="M 18.3125 70.21875 
L 18.3125 54.6875 
L 36.8125 54.6875 
L 36.8125 47.703125 
L 18.3125 47.703125 
L 18.3125 18.015625 
Q 18.3125 11.328125 20.140625 9.421875 
Q 21.96875 7.515625 27.59375 7.515625 
L 36.8125 7.515625 
L 36.8125 0 
L 27.59375 0 
Q 17.1875 0 13.234375 3.875 
Q 9.28125 7.765625 9.28125 18.015625 
L 9.28125 47.703125 
L 2.6875 47.703125 
L 2.6875 54.6875 
L 9.28125 54.6875 
L 9.28125 70.21875 
z
" id="DejaVuSans-116"/>
     <path id="DejaVuSans-32"/>
     <path d="M 10.59375 45.40625 
L 73.1875 45.40625 
L 73.1875 37.203125 
L 10.59375 37.203125 
z
M 10.59375 25.484375 
L 73.1875 25.484375 
L 73.1875 17.1875 
L 10.59375 17.1875 
z
" id="DejaVuSans-61"/>
     <path d="M 31.78125 66.40625 
Q 24.171875 66.40625 20.328125 58.90625 
Q 16.5 51.421875 16.5 36.375 
Q 16.5 21.390625 20.328125 13.890625 
Q 24.171875 6.390625 31.78125 6.390625 
Q 39.453125 6.390625 43.28125 13.890625 
Q 47.125 21.390625 47.125 36.375 
Q 47.125 51.421875 43.28125 58.90625 
Q 39.453125 66.40625 31.78125 66.40625 
z
M 31.78125 74.21875 
Q 44.046875 74.21875 50.515625 64.515625 
Q 56.984375 54.828125 56.984375 36.375 
Q 56.984375 17.96875 50.515625 8.265625 
Q 44.046875 -1.421875 31.78125 -1.421875 
Q 19.53125 -1.421875 13.0625 8.265625 
Q 6.59375 17.96875 6.59375 36.375 
Q 6.59375 54.828125 13.0625 64.515625 
Q 19.53125 74.21875 31.78125 74.21875 
z
" id="DejaVuSans-48"/>
     <path d="M 10.6875 12.40625 
L 21 12.40625 
L 21 0 
L 10.6875 0 
z
" id="DejaVuSans-46"/>
     <path d="M 31.78125 34.625 
Q 24.75 34.625 20.71875 30.859375 
Q 16.703125 27.09375 16.703125 20.515625 
Q 16.703125 13.921875 20.71875 10.15625 
Q 24.75 6.390625 31.78125 6.390625 
Q 38.8125 6.390625 42.859375 10.171875 
Q 46.921875 13.96875 46.921875 20.515625 
Q 46.921875 27.09375 42.890625 30.859375 
Q 38.875 34.625 31.78125 34.625 
z
M 21.921875 38.8125 
Q 15.578125 40.375 12.03125 44.71875 
Q 8.5 49.078125 8.5 55.328125 
Q 8.5 64.0625 14.71875 69.140625 
Q 20.953125 74.21875 31.78125 74.21875 
Q 42.671875 74.21875 48.875 69.140625 
Q 55.078125 64.0625 55.078125 55.328125 
Q 55.078125 49.078125 51.53125 44.71875 
Q 48 40.375 41.703125 38.8125 
Q 48.828125 37.15625 52.796875 32.3125 
Q 56.78125 27.484375 56.78125 20.515625 
Q 56.78125 9.90625 50.3125 4.234375 
Q 43.84375 -1.421875 31.78125 -1.421875 
Q 19.734375 -1.421875 13.25 4.234375 
Q 6.78125 9.90625 6.78125 20.515625 
Q 6.78125 27.484375 10.78125 32.3125 
Q 14.796875 37.15625 21.921875 38.8125 
z
M 18.3125 54.390625 
Q 18.3125 48.734375 21.84375 45.5625 
Q 25.390625 42.390625 31.78125 42.390625 
Q 38.140625 42.390625 41.71875 45.5625 
Q 45.3125 48.734375 45.3125 54.390625 
Q 45.3125 60.0625 41.71875 63.234375 
Q 38.140625 66.40625 31.78125 66.40625 
Q 25.390625 66.40625 21.84375 63.234375 
Q 18.3125 60.0625 18.3125 54.390625 
z
" id="DejaVuSans-56"/>
    </defs>
    <g transform="translate(200.664375 28.56)scale(0.12 -0.12)">
     <use xlink:href="#DejaVuSans-116"/>
     <use x="39.208984" xlink:href="#DejaVuSans-32"/>
     <use x="70.996094" xlink:href="#DejaVuSans-61"/>
     <use x="154.785156" xlink:href="#DejaVuSans-32"/>
     <use x="186.572266" xlink:href="#DejaVuSans-48"/>
     <use x="250.195312" xlink:href="#DejaVuSans-46"/>
     <use x="281.982422" xlink:href="#DejaVuSans-56"/>
    </g>
   </g>
  </g>
 </g>
 <defs>
  <clipPath id="p1e6a4ad692">
   <rect height="217.44" width="334.8" x="54" y="34.56"/>
  </clipPath>
 </defs>
</svg>
