<?xml version="1.0" encoding="utf-8" standalone="no"?>
<!DOCTYPE svg PUBLIC "-//W3C//DTD SVG 1.1//EN"
  "http://www.w3.org/Graphics/SVG/1.1/DTD/svg11.dtd">
<!-- Created with matplotlib (https://matplotlib.org/) -->
<svg height="288pt" version="1.1" viewBox="0 0 432 288" width="432pt" xmlns="http://www.w3.org/2000/svg" xmlns:xlink="http://www.w3.org/1999/xlink">
 <defs>
  <style type="text/css">
*{stroke-linecap:butt;stroke-linejoin:round;}
  </style>
 </defs>
 <g id="figure_1">
  <g id="patch_1">
   <path d="M 0 288 
L 432 288 
L 432 0 
L 0 0 
z
" style="fill:#ffffff;"/>
  </g>
  <g id="axes_1">
   <g id="patch_2">
    <path clip-path="url(#pecdb9ddbde)" d="M 194.760681 132.405231 
L 194.759283 143.277231 
L 193.672083 143.277091 
L 193.673481 132.405091 
z
" style="stroke:#000000;stroke-linejoin:miter;"/>
   </g>
   <g id="patch_3">
    <path clip-path="url(#pecdb9ddbde)" d="M 249.12068 132.41222 
L 249.119282 143.28422 
L 248.032082 143.28408 
L 248.03348 132.41208 
z
" style="stroke:#000000;stroke-linejoin:miter;"/>
   </g>
   <g id="patch_4">
    <path clip-path="url(#pecdb9ddbde)" d="M 212.33708 132.407491 
L 212.188386 131.855925 
L 211.744601 131.340398 
L 211.013007 130.894628 
L 210.005614 130.547769 
L 208.738963 130.322501 
L 207.23385 130.233552 
L 205.514988 130.28673 
L 203.610602 130.478547 
L 201.551962 130.796444 
L 199.372873 131.219613 
L 197.109119 131.720362 
L 194.797873 132.265921 
L 192.47709 132.820593 
L 190.18488 133.348079 
L 187.958885 133.813864 
L 185.835658 134.187466 
L 183.850064 134.444434 
L 182.03471 134.567947 
L 180.419404 134.549915 
L 179.030669 134.391507 
L 177.891306 134.103076 
L 177.020023 133.703482 
L 176.431124 133.218855 
L 176.134275 132.680892 
L 176.134346 132.12478 
L 176.431334 131.586894 
L 177.020358 131.102419 
L 177.891743 130.703048 
L 179.03118 130.41491 
L 180.419956 130.256859 
L 182.035267 130.239242 
L 183.850589 130.363222 
L 185.836116 130.620701 
L 187.959247 130.994849 
L 190.185123 131.461206 
L 192.477197 131.989282 
L 194.797837 132.54455 
L 197.108943 133.090704 
L 199.372568 133.592035 
L 201.551548 134.015765 
L 203.610106 134.33419 
L 205.514443 134.526497 
L 207.233291 134.580117 
L 208.738427 134.491555 
L 210.005136 134.266613 
L 211.012618 133.920013 
L 211.744326 133.474431 
L 212.188245 132.959018 
z
" style="fill:#0000ff;stroke:#000000;stroke-linejoin:miter;"/>
   </g>
   <g id="patch_5">
    <path clip-path="url(#pecdb9ddbde)" d="M 266.69708 132.41448 
L 266.548386 131.862914 
L 266.1046 131.347387 
L 265.373006 130.901617 
L 264.365614 130.554758 
L 263.098963 130.32949 
L 261.59385 130.240541 
L 259.874988 130.293719 
L 257.970601 130.485536 
L 255.911961 130.803433 
L 253.732873 131.226602 
L 251.469118 131.727351 
L 249.157873 132.27291 
L 246.83709 132.827582 
L 244.54488 133.355068 
L 242.318884 133.820853 
L 240.195657 134.194455 
L 238.210064 134.451423 
L 236.39471 134.574936 
L 234.779404 134.556904 
L 233.390668 134.398496 
L 232.251306 134.110065 
L 231.380023 133.710471 
L 230.791123 133.225844 
L 230.494274 132.687881 
L 230.494346 132.131769 
L 230.791333 131.593883 
L 231.380357 131.109408 
L 232.251743 130.710037 
L 233.391179 130.421899 
L 234.779956 130.263848 
L 236.395266 130.246231 
L 238.210589 130.370211 
L 240.196116 130.62769 
L 242.319247 131.001838 
L 244.545122 131.468195 
L 246.837196 131.996271 
L 249.157837 132.551539 
L 251.468942 133.097693 
L 253.732567 133.599024 
L 255.911547 134.022754 
L 257.970106 134.341179 
L 259.874443 134.533486 
L 261.593291 134.587106 
L 263.098427 134.498544 
L 264.365136 134.273602 
L 265.372617 133.927002 
L 266.104326 133.48142 
L 266.548244 132.966007 
z
" style="fill:#0000ff;stroke:#000000;stroke-linejoin:miter;"/>
   </g>
   <g id="patch_6">
    <path clip-path="url(#pecdb9ddbde)" d="M 254.012032 140.566849 
L 188.780032 140.558462 
L 188.779333 145.994462 
L 254.011333 146.002849 
z
" style="fill:#999999;stroke:#000000;stroke-linejoin:miter;"/>
   </g>
   <g id="text_1">
    <!-- t = 3.8 -->
    <defs>
     <path d="M 18.3125 70.21875 
L 18.3125 54.6875 
L 36.8125 54.6875 
L 36.8125 47.703125 
L 18.3125 47.703125 
L 18.3125 18.015625 
Q 18.3125 11.328125 20.140625 9.421875 
Q 21.96875 7.515625 27.59375 7.515625 
L 36.8125 7.515625 
L 36.8125 0 
L 27.59375 0 
Q 17.1875 0 13.234375 3.875 
Q 9.28125 7.765625 9.28125 18.015625 
L 9.28125 47.703125 
L 2.6875 47.703125 
L 2.6875 54.6875 
L 9.28125 54.6875 
L 9.28125 70.21875 
z
" id="DejaVuSans-116"/>
     <path id="DejaVuSans-32"/>
     <path d="M 10.59375 45.40625 
L 73.1875 45.40625 
L 73.1875 37.203125 
L 10.59375 37.203125 
z
M 10.59375 25.484375 
L 73.1875 25.484375 
L 73.1875 17.1875 
L 10.59375 17.1875 
z
" id="DejaVuSans-61"/>
     <path d="M 40.578125 39.3125 
Q 47.65625 37.796875 51.625 33 
Q 55.609375 28.21875 55.609375 21.1875 
Q 55.609375 10.40625 48.1875 4.484375 
Q 40.765625 -1.421875 27.09375 -1.421875 
Q 22.515625 -1.421875 17.65625 -0.515625 
Q 12.796875 0.390625 7.625 2.203125 
L 7.625 11.71875 
Q 11.71875 9.328125 16.59375 8.109375 
Q 21.484375 6.890625 26.8125 6.890625 
Q 36.078125 6.890625 40.9375 10.546875 
Q 45.796875 14.203125 45.796875 21.1875 
Q 45.796875 27.640625 41.28125 31.265625 
Q 36.765625 34.90625 28.71875 34.90625 
L 20.21875 34.90625 
L 20.21875 43.015625 
L 29.109375 43.015625 
Q 36.375 43.015625 40.234375 45.921875 
Q 44.09375 48.828125 44.09375 54.296875 
Q 44.09375 59.90625 40.109375 62.90625 
Q 36.140625 65.921875 28.71875 65.921875 
Q 24.65625 65.921875 20.015625 65.03125 
Q 15.375 64.15625 9.8125 62.3125 
L 9.8125 71.09375 
Q 15.4375 72.65625 20.34375 73.4375 
Q 25.25 74.21875 29.59375 74.21875 
Q 40.828125 74.21875 47.359375 69.109375 
Q 53.90625 64.015625 53.90625 55.328125 
Q 53.90625 49.265625 50.4375 45.09375 
Q 46.96875 40.921875 40.578125 39.3125 
z
" id="DejaVuSans-51"/>
     <path d="M 10.6875 12.40625 
L 21 12.40625 
L 21 0 
L 10.6875 0 
z
" id="DejaVuSans-46"/>
     <path d="M 31.78125 34.625 
Q 24.75 34.625 20.71875 30.859375 
Q 16.703125 27.09375 16.703125 20.515625 
Q 16.703125 13.921875 20.71875 10.15625 
Q 24.75 6.390625 31.78125 6.390625 
Q 38.8125 6.390625 42.859375 10.171875 
Q 46.921875 13.96875 46.921875 20.515625 
Q 46.921875 27.09375 42.890625 30.859375 
Q 38.875 34.625 31.78125 34.625 
z
M 21.921875 38.8125 
Q 15.578125 40.375 12.03125 44.71875 
Q 8.5 49.078125 8.5 55.328125 
Q 8.5 64.0625 14.71875 69.140625 
Q 20.953125 74.21875 31.78125 74.21875 
Q 42.671875 74.21875 48.875 69.140625 
Q 55.078125 64.0625 55.078125 55.328125 
Q 55.078125 49.078125 51.53125 44.71875 
Q 48 40.375 41.703125 38.8125 
Q 48.828125 37.15625 52.796875 32.3125 
Q 56.78125 27.484375 56.78125 20.515625 
Q 56.78125 9.90625 50.3125 4.234375 
Q 43.84375 -1.421875 31.78125 -1.421875 
Q 19.734375 -1.421875 13.25 4.234375 
Q 6.78125 9.90625 6.78125 20.515625 
Q 6.78125 27.484375 10.78125 32.3125 
Q 14.796875 37.15625 21.921875 38.8125 
z
M 18.3125 54.390625 
Q 18.3125 48.734375 21.84375 45.5625 
Q 25.390625 42.390625 31.78125 42.390625 
Q 38.140625 42.390625 41.71875 45.5625 
Q 45.3125 48.734375 45.3125 54.390625 
Q 45.3125 60.0625 41.71875 63.234375 
Q 38.140625 66.40625 31.78125 66.40625 
Q 25.390625 66.40625 21.84375 63.234375 
Q 18.3125 60.0625 18.3125 54.390625 
z
" id="DejaVuSans-56"/>
    </defs>
    <g transform="translate(200.664375 28.56)scale(0.12 -0.12)">
     <use xlink:href="#DejaVuSans-116"/>
     <use x="39.208984" xlink:href="#DejaVuSans-32"/>
     <use x="70.996094" xlink:href="#DejaVuSans-61"/>
     <use x="154.785156" xlink:href="#DejaVuSans-32"/>
     <use x="186.572266" xlink:href="#DejaVuSans-51"/>
     <use x="250.195312" xlink:href="#DejaVuSans-46"/>
     <use x="281.982422" xlink:href="#DejaVuSans-56"/>
    </g>
   </g>
  </g>
 </g>
 <defs>
  <clipPath id="pecdb9ddbde">
   <rect height="217.44" width="334.8" x="54" y="34.56"/>
  </clipPath>
 </defs>
</svg>
