<?xml version="1.0" encoding="utf-8" standalone="no"?>
<!DOCTYPE svg PUBLIC "-//W3C//DTD SVG 1.1//EN"
  "http://www.w3.org/Graphics/SVG/1.1/DTD/svg11.dtd">
<!-- Created with matplotlib (https://matplotlib.org/) -->
<svg height="288pt" version="1.1" viewBox="0 0 432 288" width="432pt" xmlns="http://www.w3.org/2000/svg" xmlns:xlink="http://www.w3.org/1999/xlink">
 <defs>
  <style type="text/css">
*{stroke-linecap:butt;stroke-linejoin:round;}
  </style>
 </defs>
 <g id="figure_1">
  <g id="patch_1">
   <path d="M 0 288 
L 432 288 
L 432 0 
L 0 0 
z
" style="fill:#ffffff;"/>
  </g>
  <g id="axes_1">
   <g id="patch_2">
    <path clip-path="url(#p35b9bc5e15)" d="M 194.759052 132.406249 
L 194.75815 143.278249 
L 193.67095 143.278159 
L 193.671852 132.406159 
z
" style="stroke:#000000;stroke-linejoin:miter;"/>
   </g>
   <g id="patch_3">
    <path clip-path="url(#p35b9bc5e15)" d="M 249.119052 132.410757 
L 249.11815 143.282757 
L 248.03095 143.282667 
L 248.031852 132.410667 
z
" style="stroke:#000000;stroke-linejoin:miter;"/>
   </g>
   <g id="patch_4">
    <path clip-path="url(#p35b9bc5e15)" d="M 212.335452 132.407706 
L 212.186733 131.856148 
L 211.742923 131.340641 
L 211.011309 130.894904 
L 210.003901 130.548091 
L 208.73724 130.322881 
L 207.232122 130.234 
L 205.513263 130.287257 
L 203.608885 130.479161 
L 201.55026 130.797151 
L 199.37119 131.22042 
L 197.107459 131.721272 
L 194.796238 132.266938 
L 192.47548 132.821715 
L 190.183294 133.349306 
L 187.95732 133.815193 
L 185.83411 134.188891 
L 183.848529 134.44595 
L 182.03318 134.569546 
L 180.417873 134.551588 
L 179.029131 134.393243 
L 177.889755 134.104864 
L 177.018454 133.705309 
L 176.429532 133.220709 
L 176.132658 132.68276 
L 176.132705 132.126648 
L 176.429668 131.588748 
L 177.01867 131.104246 
L 177.890037 130.704835 
L 179.02946 130.416646 
L 180.418229 130.258531 
L 182.033539 130.240841 
L 183.848867 130.364738 
L 185.834406 130.622126 
L 187.957554 130.996177 
L 190.183451 131.462433 
L 192.475549 131.990404 
L 194.796215 132.545566 
L 197.107345 133.091615 
L 199.370993 133.592842 
L 201.549993 134.016472 
L 203.608565 134.334804 
L 205.512911 134.527024 
L 207.231762 134.580566 
L 208.736894 134.491935 
L 210.003593 134.266935 
L 211.011058 133.920289 
L 211.742746 133.474673 
L 212.186641 132.959241 
z
" style="fill:#0000ff;stroke:#000000;stroke-linejoin:miter;"/>
   </g>
   <g id="patch_5">
    <path clip-path="url(#p35b9bc5e15)" d="M 266.695452 132.412214 
L 266.546733 131.860656 
L 266.102923 131.345149 
L 265.371309 130.899412 
L 264.363901 130.552599 
L 263.097239 130.327389 
L 261.592122 130.238508 
L 259.873263 130.291765 
L 257.968885 130.483669 
L 255.910259 130.80166 
L 253.73119 131.224928 
L 251.467459 131.72578 
L 249.156238 132.271446 
L 246.83548 132.826223 
L 244.543294 133.353814 
L 242.31732 133.819701 
L 240.19411 134.193399 
L 238.208529 134.450458 
L 236.39318 134.574054 
L 234.777873 134.556096 
L 233.389131 134.397751 
L 232.249755 134.109372 
L 231.378454 133.709817 
L 230.789532 133.225217 
L 230.492658 132.687268 
L 230.492704 132.131156 
L 230.789668 131.593256 
L 231.37867 131.108754 
L 232.250037 130.709343 
L 233.38946 130.421154 
L 234.778229 130.263039 
L 236.393539 130.245349 
L 238.208867 130.369246 
L 240.194406 130.626634 
L 242.317554 131.000685 
L 244.543451 131.466941 
L 246.835549 131.994912 
L 249.156215 132.550074 
L 251.467345 133.096123 
L 253.730993 133.59735 
L 255.909992 134.02098 
L 257.968565 134.339312 
L 259.872911 134.531532 
L 261.591762 134.585074 
L 263.096894 134.496443 
L 264.363592 134.271443 
L 265.371058 133.924797 
L 266.102746 133.479181 
L 266.546641 132.963749 
z
" style="fill:#0000ff;stroke:#000000;stroke-linejoin:miter;"/>
   </g>
   <g id="patch_6">
    <path clip-path="url(#p35b9bc5e15)" d="M 254.010776 140.565162 
L 188.778776 140.559753 
L 188.778325 145.995753 
L 254.010325 146.001162 
z
" style="fill:#999999;stroke:#000000;stroke-linejoin:miter;"/>
   </g>
   <g id="text_1">
    <!-- t = 3.9 -->
    <defs>
     <path d="M 18.3125 70.21875 
L 18.3125 54.6875 
L 36.8125 54.6875 
L 36.8125 47.703125 
L 18.3125 47.703125 
L 18.3125 18.015625 
Q 18.3125 11.328125 20.140625 9.421875 
Q 21.96875 7.515625 27.59375 7.515625 
L 36.8125 7.515625 
L 36.8125 0 
L 27.59375 0 
Q 17.1875 0 13.234375 3.875 
Q 9.28125 7.765625 9.28125 18.015625 
L 9.28125 47.703125 
L 2.6875 47.703125 
L 2.6875 54.6875 
L 9.28125 54.6875 
L 9.28125 70.21875 
z
" id="DejaVuSans-116"/>
     <path id="DejaVuSans-32"/>
     <path d="M 10.59375 45.40625 
L 73.1875 45.40625 
L 73.1875 37.203125 
L 10.59375 37.203125 
z
M 10.59375 25.484375 
L 73.1875 25.484375 
L 73.1875 17.1875 
L 10.59375 17.1875 
z
" id="DejaVuSans-61"/>
     <path d="M 40.578125 39.3125 
Q 47.65625 37.796875 51.625 33 
Q 55.609375 28.21875 55.609375 21.1875 
Q 55.609375 10.40625 48.1875 4.484375 
Q 40.765625 -1.421875 27.09375 -1.421875 
Q 22.515625 -1.421875 17.65625 -0.515625 
Q 12.796875 0.390625 7.625 2.203125 
L 7.625 11.71875 
Q 11.71875 9.328125 16.59375 8.109375 
Q 21.484375 6.890625 26.8125 6.890625 
Q 36.078125 6.890625 40.9375 10.546875 
Q 45.796875 14.203125 45.796875 21.1875 
Q 45.796875 27.640625 41.28125 31.265625 
Q 36.765625 34.90625 28.71875 34.90625 
L 20.21875 34.90625 
L 20.21875 43.015625 
L 29.109375 43.015625 
Q 36.375 43.015625 40.234375 45.921875 
Q 44.09375 48.828125 44.09375 54.296875 
Q 44.09375 59.90625 40.109375 62.90625 
Q 36.140625 65.921875 28.71875 65.921875 
Q 24.65625 65.921875 20.015625 65.03125 
Q 15.375 64.15625 9.8125 62.3125 
L 9.8125 71.09375 
Q 15.4375 72.65625 20.34375 73.4375 
Q 25.25 74.21875 29.59375 74.21875 
Q 40.828125 74.21875 47.359375 69.109375 
Q 53.90625 64.015625 53.90625 55.328125 
Q 53.90625 49.265625 50.4375 45.09375 
Q 46.96875 40.921875 40.578125 39.3125 
z
" id="DejaVuSans-51"/>
     <path d="M 10.6875 12.40625 
L 21 12.40625 
L 21 0 
L 10.6875 0 
z
" id="DejaVuSans-46"/>
     <path d="M 10.984375 1.515625 
L 10.984375 10.5 
Q 14.703125 8.734375 18.5 7.8125 
Q 22.3125 6.890625 25.984375 6.890625 
Q 35.75 6.890625 40.890625 13.453125 
Q 46.046875 20.015625 46.78125 33.40625 
Q 43.953125 29.203125 39.59375 26.953125 
Q 35.25 24.703125 29.984375 24.703125 
Q 19.046875 24.703125 12.671875 31.3125 
Q 6.296875 37.9375 6.296875 49.421875 
Q 6.296875 60.640625 12.9375 67.421875 
Q 19.578125 74.21875 30.609375 74.21875 
Q 43.265625 74.21875 49.921875 64.515625 
Q 56.59375 54.828125 56.59375 36.375 
Q 56.59375 19.140625 48.40625 8.859375 
Q 40.234375 -1.421875 26.421875 -1.421875 
Q 22.703125 -1.421875 18.890625 -0.6875 
Q 15.09375 0.046875 10.984375 1.515625 
z
M 30.609375 32.421875 
Q 37.25 32.421875 41.125 36.953125 
Q 45.015625 41.5 45.015625 49.421875 
Q 45.015625 57.28125 41.125 61.84375 
Q 37.25 66.40625 30.609375 66.40625 
Q 23.96875 66.40625 20.09375 61.84375 
Q 16.21875 57.28125 16.21875 49.421875 
Q 16.21875 41.5 20.09375 36.953125 
Q 23.96875 32.421875 30.609375 32.421875 
z
" id="DejaVuSans-57"/>
    </defs>
    <g transform="translate(200.664375 28.56)scale(0.12 -0.12)">
     <use xlink:href="#DejaVuSans-116"/>
     <use x="39.208984" xlink:href="#DejaVuSans-32"/>
     <use x="70.996094" xlink:href="#DejaVuSans-61"/>
     <use x="154.785156" xlink:href="#DejaVuSans-32"/>
     <use x="186.572266" xlink:href="#DejaVuSans-51"/>
     <use x="250.195312" xlink:href="#DejaVuSans-46"/>
     <use x="281.982422" xlink:href="#DejaVuSans-57"/>
    </g>
   </g>
  </g>
 </g>
 <defs>
  <clipPath id="p35b9bc5e15">
   <rect height="217.44" width="334.8" x="54" y="34.56"/>
  </clipPath>
 </defs>
</svg>
