<?xml version="1.0" encoding="utf-8" standalone="no"?>
<!DOCTYPE svg PUBLIC "-//W3C//DTD SVG 1.1//EN"
  "http://www.w3.org/Graphics/SVG/1.1/DTD/svg11.dtd">
<!-- Created with matplotlib (https://matplotlib.org/) -->
<svg height="288pt" version="1.1" viewBox="0 0 432 288" width="432pt" xmlns="http://www.w3.org/2000/svg" xmlns:xlink="http://www.w3.org/1999/xlink">
 <defs>
  <style type="text/css">
*{stroke-linecap:butt;stroke-linejoin:round;}
  </style>
 </defs>
 <g id="figure_1">
  <g id="patch_1">
   <path d="M 0 288 
L 432 288 
L 432 0 
L 0 0 
z
" style="fill:#ffffff;"/>
  </g>
  <g id="axes_1">
   <g id="patch_2">
    <path clip-path="url(#pb15cb38996)" d="M 194.895495 132.403114 
L 194.887113 143.275111 
L 193.799913 143.274273 
L 193.808295 132.402276 
z
" style="stroke:#000000;stroke-linejoin:miter;"/>
   </g>
   <g id="patch_3">
    <path clip-path="url(#pb15cb38996)" d="M 249.255479 132.445023 
L 249.247097 143.317019 
L 248.159897 143.316181 
L 248.168279 132.444184 
z
" style="stroke:#000000;stroke-linejoin:miter;"/>
   </g>
   <g id="patch_4">
    <path clip-path="url(#pb15cb38996)" d="M 212.47189 132.416664 
L 212.32355 131.865003 
L 211.880095 131.349192 
L 211.148788 130.902952 
L 210.141619 130.555445 
L 208.875113 130.329364 
L 207.370057 130.239448 
L 205.651161 130.291522 
L 203.746652 130.482116 
L 201.687808 130.79869 
L 199.508448 131.220459 
L 197.244372 131.719753 
L 194.932777 132.263828 
L 192.611638 132.817009 
L 190.31909 133.343023 
L 188.092795 133.807378 
L 185.969329 134.179616 
L 183.983571 134.435308 
L 182.168138 134.557655 
L 180.552844 134.538585 
L 179.16421 134.379286 
L 178.025033 134.090123 
L 177.154007 133.689968 
L 176.565419 133.204963 
L 176.268916 132.66681 
L 176.269344 132.110698 
L 176.566677 131.573003 
L 177.156013 131.088906 
L 178.027655 130.690095 
L 179.167276 130.402689 
L 180.556153 130.245531 
L 182.171475 130.228952 
L 183.986717 130.354098 
L 185.972079 130.612852 
L 188.094969 130.988363 
L 190.320544 131.45615 
L 192.612279 131.985698 
L 194.932562 132.542457 
L 197.243316 133.090096 
L 199.506619 133.59288 
L 201.685326 134.01801 
L 203.743679 134.337758 
L 205.647893 134.531287 
L 207.366706 134.586012 
L 208.871898 134.498417 
L 210.138752 134.274289 
L 211.146455 133.928335 
L 211.87845 133.483224 
L 212.3227 132.968096 
z
" style="fill:#0000ff;stroke:#000000;stroke-linejoin:miter;"/>
   </g>
   <g id="patch_5">
    <path clip-path="url(#pb15cb38996)" d="M 266.831873 132.458573 
L 266.683534 131.906912 
L 266.240079 131.3911 
L 265.508772 130.94486 
L 264.501603 130.597353 
L 263.235096 130.371272 
L 261.730041 130.281356 
L 260.011145 130.333431 
L 258.106636 130.524024 
L 256.047792 130.840598 
L 253.868432 131.262367 
L 251.604356 131.761662 
L 249.292761 132.305737 
L 246.971622 132.858917 
L 244.679073 133.384931 
L 242.452779 133.849286 
L 240.329313 134.221524 
L 238.343555 134.477216 
L 236.528122 134.599563 
L 234.912827 134.580494 
L 233.524194 134.421194 
L 232.385017 134.132031 
L 231.513991 133.731877 
L 230.925403 133.246872 
L 230.628899 132.708719 
L 230.629328 132.152607 
L 230.926661 131.614911 
L 231.515996 131.130814 
L 232.387638 130.732004 
L 233.52726 130.444598 
L 234.916137 130.287439 
L 236.531459 130.27086 
L 238.346701 130.396006 
L 240.332062 130.65476 
L 242.454953 131.030271 
L 244.680528 131.498058 
L 246.972263 132.027607 
L 249.292546 132.584365 
L 251.6033 133.132004 
L 253.866603 133.634789 
L 256.04531 134.059918 
L 258.103663 134.379666 
L 260.007876 134.573196 
L 261.72669 134.627921 
L 263.231882 134.540326 
L 264.498736 134.316197 
L 265.506439 133.970244 
L 266.238434 133.525132 
L 266.682683 133.010005 
z
" style="fill:#0000ff;stroke:#000000;stroke-linejoin:miter;"/>
   </g>
   <g id="patch_6">
    <path clip-path="url(#pb15cb38996)" d="M 254.141591 140.602792 
L 188.90961 140.552502 
L 188.90542 145.9885 
L 254.1374 146.03879 
z
" style="fill:#999999;stroke:#000000;stroke-linejoin:miter;"/>
   </g>
   <g id="text_1">
    <!-- t = 2.5 -->
    <defs>
     <path d="M 18.3125 70.21875 
L 18.3125 54.6875 
L 36.8125 54.6875 
L 36.8125 47.703125 
L 18.3125 47.703125 
L 18.3125 18.015625 
Q 18.3125 11.328125 20.140625 9.421875 
Q 21.96875 7.515625 27.59375 7.515625 
L 36.8125 7.515625 
L 36.8125 0 
L 27.59375 0 
Q 17.1875 0 13.234375 3.875 
Q 9.28125 7.765625 9.28125 18.015625 
L 9.28125 47.703125 
L 2.6875 47.703125 
L 2.6875 54.6875 
L 9.28125 54.6875 
L 9.28125 70.21875 
z
" id="DejaVuSans-116"/>
     <path id="DejaVuSans-32"/>
     <path d="M 10.59375 45.40625 
L 73.1875 45.40625 
L 73.1875 37.203125 
L 10.59375 37.203125 
z
M 10.59375 25.484375 
L 73.1875 25.484375 
L 73.1875 17.1875 
L 10.59375 17.1875 
z
" id="DejaVuSans-61"/>
     <path d="M 19.1875 8.296875 
L 53.609375 8.296875 
L 53.609375 0 
L 7.328125 0 
L 7.328125 8.296875 
Q 12.9375 14.109375 22.625 23.890625 
Q 32.328125 33.6875 34.8125 36.53125 
Q 39.546875 41.84375 41.421875 45.53125 
Q 43.3125 49.21875 43.3125 52.78125 
Q 43.3125 58.59375 39.234375 62.25 
Q 35.15625 65.921875 28.609375 65.921875 
Q 23.96875 65.921875 18.8125 64.3125 
Q 13.671875 62.703125 7.8125 59.421875 
L 7.8125 69.390625 
Q 13.765625 71.78125 18.9375 73 
Q 24.125 74.21875 28.421875 74.21875 
Q 39.75 74.21875 46.484375 68.546875 
Q 53.21875 62.890625 53.21875 53.421875 
Q 53.21875 48.921875 51.53125 44.890625 
Q 49.859375 40.875 45.40625 35.40625 
Q 44.1875 33.984375 37.640625 27.21875 
Q 31.109375 20.453125 19.1875 8.296875 
z
" id="DejaVuSans-50"/>
     <path d="M 10.6875 12.40625 
L 21 12.40625 
L 21 0 
L 10.6875 0 
z
" id="DejaVuSans-46"/>
     <path d="M 10.796875 72.90625 
L 49.515625 72.90625 
L 49.515625 64.59375 
L 19.828125 64.59375 
L 19.828125 46.734375 
Q 21.96875 47.46875 24.109375 47.828125 
Q 26.265625 48.1875 28.421875 48.1875 
Q 40.625 48.1875 47.75 41.5 
Q 54.890625 34.8125 54.890625 23.390625 
Q 54.890625 11.625 47.5625 5.09375 
Q 40.234375 -1.421875 26.90625 -1.421875 
Q 22.3125 -1.421875 17.546875 -0.640625 
Q 12.796875 0.140625 7.71875 1.703125 
L 7.71875 11.625 
Q 12.109375 9.234375 16.796875 8.0625 
Q 21.484375 6.890625 26.703125 6.890625 
Q 35.15625 6.890625 40.078125 11.328125 
Q 45.015625 15.765625 45.015625 23.390625 
Q 45.015625 31 40.078125 35.4375 
Q 35.15625 39.890625 26.703125 39.890625 
Q 22.75 39.890625 18.8125 39.015625 
Q 14.890625 38.140625 10.796875 36.28125 
z
" id="DejaVuSans-53"/>
    </defs>
    <g transform="translate(200.664375 28.56)scale(0.12 -0.12)">
     <use xlink:href="#DejaVuSans-116"/>
     <use x="39.208984" xlink:href="#DejaVuSans-32"/>
     <use x="70.996094" xlink:href="#DejaVuSans-61"/>
     <use x="154.785156" xlink:href="#DejaVuSans-32"/>
     <use x="186.572266" xlink:href="#DejaVuSans-50"/>
     <use x="250.195312" xlink:href="#DejaVuSans-46"/>
     <use x="281.982422" xlink:href="#DejaVuSans-53"/>
    </g>
   </g>
  </g>
 </g>
 <defs>
  <clipPath id="pb15cb38996">
   <rect height="217.44" width="334.8" x="54" y="34.56"/>
  </clipPath>
 </defs>
</svg>
