<?xml version="1.0" encoding="utf-8" standalone="no"?>
<!DOCTYPE svg PUBLIC "-//W3C//DTD SVG 1.1//EN"
  "http://www.w3.org/Graphics/SVG/1.1/DTD/svg11.dtd">
<!-- Created with matplotlib (https://matplotlib.org/) -->
<svg height="288pt" version="1.1" viewBox="0 0 432 288" width="432pt" xmlns="http://www.w3.org/2000/svg" xmlns:xlink="http://www.w3.org/1999/xlink">
 <defs>
  <style type="text/css">
*{stroke-linecap:butt;stroke-linejoin:round;}
  </style>
 </defs>
 <g id="figure_1">
  <g id="patch_1">
   <path d="M 0 288 
L 432 288 
L 432 0 
L 0 0 
z
" style="fill:#ffffff;"/>
  </g>
  <g id="axes_1">
   <g id="patch_2">
    <path clip-path="url(#p207f9478ed)" d="M 195.135567 133.037402 
L 195.235328 143.908945 
L 194.148174 143.918921 
L 194.048413 133.047379 
z
" style="stroke:#000000;stroke-linejoin:miter;"/>
   </g>
   <g id="patch_3">
    <path clip-path="url(#p207f9478ed)" d="M 249.493279 132.538597 
L 249.59304 143.41014 
L 248.505885 143.420116 
L 248.406124 132.548573 
z
" style="stroke:#000000;stroke-linejoin:miter;"/>
   </g>
   <g id="patch_4">
    <path clip-path="url(#p207f9478ed)" d="M 212.711227 132.876122 
L 212.557407 132.325964 
L 212.108844 131.814589 
L 211.373134 131.375645 
L 210.362558 131.038174 
L 209.093866 130.824701 
L 207.58799 130.74976 
L 205.869698 130.81893 
L 203.967178 131.028458 
L 201.911585 131.365495 
L 199.736528 131.808921 
L 197.477531 132.330712 
L 195.171462 132.897753 
L 192.85594 133.473994 
L 190.568737 134.022786 
L 188.347172 134.509262 
L 186.227513 134.902603 
L 184.244397 135.178035 
L 182.430271 135.318434 
L 180.814867 135.315433 
L 179.424717 135.169953 
L 178.282721 134.892136 
L 177.407757 134.500665 
L 176.814374 134.021539 
L 176.512532 133.486362 
L 176.507429 132.930273 
L 176.799399 132.389647 
L 177.38389 131.899712 
L 178.251522 131.49225 
L 179.388228 131.193523 
L 180.775474 131.022557 
L 182.390551 130.989912 
L 184.206948 131.096996 
L 186.194785 131.335988 
L 188.321305 131.690365 
L 190.551423 132.135992 
L 192.848312 132.642718 
L 195.174018 133.17637 
L 197.490105 133.700997 
L 199.758297 134.181244 
L 201.941126 134.584681 
L 204.002557 134.883939 
L 205.908601 135.058518 
L 207.627874 135.096143 
L 209.132121 134.99358 
L 210.396682 134.756862 
L 211.400895 134.400902 
L 212.128426 133.948531 
L 212.567529 133.42901 
z
" style="fill:#0000ff;stroke:#000000;stroke-linejoin:miter;"/>
   </g>
   <g id="patch_5">
    <path clip-path="url(#p207f9478ed)" d="M 267.068939 132.377317 
L 266.915119 131.827159 
L 266.466556 131.315783 
L 265.730846 130.87684 
L 264.72027 130.539368 
L 263.451577 130.325896 
L 261.945702 130.250955 
L 260.227409 130.320125 
L 258.32489 130.529653 
L 256.269297 130.86669 
L 254.09424 131.310116 
L 251.835243 131.831906 
L 249.529173 132.398948 
L 247.213651 132.975189 
L 244.926449 133.523981 
L 242.704884 134.010457 
L 240.585225 134.403798 
L 238.602108 134.67923 
L 236.787982 134.819629 
L 235.172578 134.816627 
L 233.782429 134.671148 
L 232.640432 134.393331 
L 231.765469 134.00186 
L 231.172086 133.522734 
L 230.870244 132.987556 
L 230.865141 132.431468 
L 231.157111 131.890841 
L 231.741602 131.400906 
L 232.609234 130.993445 
L 233.74594 130.694718 
L 235.133185 130.523752 
L 236.748262 130.491106 
L 238.564659 130.59819 
L 240.552496 130.837183 
L 242.679016 131.19156 
L 244.909135 131.637186 
L 247.206023 132.143913 
L 249.53173 132.677565 
L 251.847817 133.202191 
L 254.116009 133.682438 
L 256.298837 134.085875 
L 258.360269 134.385133 
L 260.266313 134.559713 
L 261.985586 134.597338 
L 263.489832 134.494775 
L 264.754394 134.258057 
L 265.758606 133.902097 
L 266.486137 133.449726 
L 266.925241 132.930205 
z
" style="fill:#0000ff;stroke:#000000;stroke-linejoin:miter;"/>
   </g>
   <g id="patch_6">
    <path clip-path="url(#p207f9478ed)" d="M 254.460293 140.647361 
L 189.23104 141.245928 
L 189.28092 146.681699 
L 254.510174 146.083133 
z
" style="fill:#999999;stroke:#000000;stroke-linejoin:miter;"/>
   </g>
   <g id="text_1">
    <!-- t = 1.6 -->
    <defs>
     <path d="M 18.3125 70.21875 
L 18.3125 54.6875 
L 36.8125 54.6875 
L 36.8125 47.703125 
L 18.3125 47.703125 
L 18.3125 18.015625 
Q 18.3125 11.328125 20.140625 9.421875 
Q 21.96875 7.515625 27.59375 7.515625 
L 36.8125 7.515625 
L 36.8125 0 
L 27.59375 0 
Q 17.1875 0 13.234375 3.875 
Q 9.28125 7.765625 9.28125 18.015625 
L 9.28125 47.703125 
L 2.6875 47.703125 
L 2.6875 54.6875 
L 9.28125 54.6875 
L 9.28125 70.21875 
z
" id="DejaVuSans-116"/>
     <path id="DejaVuSans-32"/>
     <path d="M 10.59375 45.40625 
L 73.1875 45.40625 
L 73.1875 37.203125 
L 10.59375 37.203125 
z
M 10.59375 25.484375 
L 73.1875 25.484375 
L 73.1875 17.1875 
L 10.59375 17.1875 
z
" id="DejaVuSans-61"/>
     <path d="M 12.40625 8.296875 
L 28.515625 8.296875 
L 28.515625 63.921875 
L 10.984375 60.40625 
L 10.984375 69.390625 
L 28.421875 72.90625 
L 38.28125 72.90625 
L 38.28125 8.296875 
L 54.390625 8.296875 
L 54.390625 0 
L 12.40625 0 
z
" id="DejaVuSans-49"/>
     <path d="M 10.6875 12.40625 
L 21 12.40625 
L 21 0 
L 10.6875 0 
z
" id="DejaVuSans-46"/>
     <path d="M 33.015625 40.375 
Q 26.375 40.375 22.484375 35.828125 
Q 18.609375 31.296875 18.609375 23.390625 
Q 18.609375 15.53125 22.484375 10.953125 
Q 26.375 6.390625 33.015625 6.390625 
Q 39.65625 6.390625 43.53125 10.953125 
Q 47.40625 15.53125 47.40625 23.390625 
Q 47.40625 31.296875 43.53125 35.828125 
Q 39.65625 40.375 33.015625 40.375 
z
M 52.59375 71.296875 
L 52.59375 62.3125 
Q 48.875 64.0625 45.09375 64.984375 
Q 41.3125 65.921875 37.59375 65.921875 
Q 27.828125 65.921875 22.671875 59.328125 
Q 17.53125 52.734375 16.796875 39.40625 
Q 19.671875 43.65625 24.015625 45.921875 
Q 28.375 48.1875 33.59375 48.1875 
Q 44.578125 48.1875 50.953125 41.515625 
Q 57.328125 34.859375 57.328125 23.390625 
Q 57.328125 12.15625 50.6875 5.359375 
Q 44.046875 -1.421875 33.015625 -1.421875 
Q 20.359375 -1.421875 13.671875 8.265625 
Q 6.984375 17.96875 6.984375 36.375 
Q 6.984375 53.65625 15.1875 63.9375 
Q 23.390625 74.21875 37.203125 74.21875 
Q 40.921875 74.21875 44.703125 73.484375 
Q 48.484375 72.75 52.59375 71.296875 
z
" id="DejaVuSans-54"/>
    </defs>
    <g transform="translate(200.664375 28.56)scale(0.12 -0.12)">
     <use xlink:href="#DejaVuSans-116"/>
     <use x="39.208984" xlink:href="#DejaVuSans-32"/>
     <use x="70.996094" xlink:href="#DejaVuSans-61"/>
     <use x="154.785156" xlink:href="#DejaVuSans-32"/>
     <use x="186.572266" xlink:href="#DejaVuSans-49"/>
     <use x="250.195312" xlink:href="#DejaVuSans-46"/>
     <use x="281.982422" xlink:href="#DejaVuSans-54"/>
    </g>
   </g>
  </g>
 </g>
 <defs>
  <clipPath id="p207f9478ed">
   <rect height="217.44" width="334.8" x="54" y="34.56"/>
  </clipPath>
 </defs>
</svg>
