<?xml version="1.0" encoding="utf-8" standalone="no"?>
<!DOCTYPE svg PUBLIC "-//W3C//DTD SVG 1.1//EN"
  "http://www.w3.org/Graphics/SVG/1.1/DTD/svg11.dtd">
<!-- Created with matplotlib (https://matplotlib.org/) -->
<svg height="288pt" version="1.1" viewBox="0 0 432 288" width="432pt" xmlns="http://www.w3.org/2000/svg" xmlns:xlink="http://www.w3.org/1999/xlink">
 <defs>
  <style type="text/css">
*{stroke-linecap:butt;stroke-linejoin:round;}
  </style>
 </defs>
 <g id="figure_1">
  <g id="patch_1">
   <path d="M 0 288 
L 432 288 
L 432 0 
L 0 0 
z
" style="fill:#ffffff;"/>
  </g>
  <g id="axes_1">
   <g id="patch_2">
    <path clip-path="url(#pc3455a4046)" d="M 292.655345 263.566862 
L 297.742976 273.175004 
L 296.782162 273.683767 
L 291.69453 264.075625 
z
" style="stroke:#000000;stroke-linejoin:miter;"/>
   </g>
   <g id="patch_3">
    <path clip-path="url(#pc3455a4046)" d="M 340.696054 238.128704 
L 345.783685 247.736846 
L 344.822871 248.245609 
L 339.735239 238.637467 
z
" style="stroke:#000000;stroke-linejoin:miter;"/>
   </g>
   <g id="patch_4">
    <path clip-path="url(#pc3455a4046)" d="M 308.188507 255.341858 
L 307.798936 254.924044 
L 307.165463 254.6762 
L 306.310308 254.624715 
L 305.25773 254.78973 
L 304.032961 255.183545 
L 302.661271 255.809441 
L 301.16722 256.660984 
L 299.574115 257.721879 
L 297.903711 258.96639 
L 296.176144 260.360309 
L 294.410071 261.862414 
L 292.623004 263.426347 
L 290.831775 265.002796 
L 289.053071 266.541848 
L 287.304 267.995381 
L 285.602595 269.319351 
L 283.968224 270.475829 
L 282.421825 271.434691 
L 280.985953 272.174834 
L 279.684594 272.684877 
L 278.542744 272.963296 
L 277.58576 273.018 
L 276.838516 272.865386 
L 276.324388 272.52894 
L 276.064151 272.037475 
L 276.074827 271.423139 
L 276.368574 270.719308 
L 276.951676 269.958517 
L 277.823716 269.170555 
L 278.976986 268.380841 
L 280.396176 267.609194 
L 282.058391 266.869054 
L 283.933501 266.167218 
L 285.984821 265.504073 
L 288.170095 264.874321 
L 290.442757 264.268124 
L 292.753391 263.672585 
L 295.051332 263.073455 
L 297.286336 262.45694 
L 299.410216 261.811469 
L 301.378391 261.129307 
L 303.15125 260.407882 
L 304.695278 259.650723 
L 305.9839 258.867952 
L 306.99799 258.076263 
L 307.726059 257.298402 
L 308.164099 256.562154 
L 308.315136 255.898903 
z
" style="fill:#0000ff;stroke:#000000;stroke-linejoin:miter;"/>
   </g>
   <g id="patch_5">
    <path clip-path="url(#pc3455a4046)" d="M 356.229216 229.9037 
L 355.839645 229.485886 
L 355.206172 229.238043 
L 354.351017 229.186558 
L 353.298439 229.351572 
L 352.07367 229.745387 
L 350.70198 230.371283 
L 349.207929 231.222826 
L 347.614824 232.283721 
L 345.94442 233.528232 
L 344.216853 234.922151 
L 342.45078 236.424256 
L 340.663713 237.988189 
L 338.872484 239.564638 
L 337.09378 241.10369 
L 335.344709 242.557223 
L 333.643304 243.881193 
L 332.008933 245.037671 
L 330.462534 245.996533 
L 329.026662 246.736677 
L 327.725303 247.24672 
L 326.583453 247.525138 
L 325.626469 247.579842 
L 324.879225 247.427228 
L 324.365097 247.090782 
L 324.10486 246.599318 
L 324.115536 245.984981 
L 324.409283 245.28115 
L 324.992385 244.520359 
L 325.864425 243.732397 
L 327.017695 242.942683 
L 328.436885 242.171036 
L 330.0991 241.430896 
L 331.97421 240.72906 
L 334.02553 240.065915 
L 336.210804 239.436163 
L 338.483466 238.829966 
L 340.7941 238.234427 
L 343.092041 237.635298 
L 345.327045 237.018782 
L 347.450925 236.373311 
L 349.4191 235.69115 
L 351.191959 234.969724 
L 352.735987 234.212565 
L 354.024609 233.429794 
L 355.038699 232.638105 
L 355.766768 231.860244 
L 356.204808 231.123996 
L 356.355845 230.460745 
z
" style="fill:#0000ff;stroke:#000000;stroke-linejoin:miter;"/>
   </g>
   <g id="patch_6">
    <path clip-path="url(#pc3455a4046)" d="M 348.835441 243.045376 
L 291.18659 273.571166 
L 293.730406 278.375237 
L 351.379257 247.849447 
z
" style="fill:#999999;stroke:#000000;stroke-linejoin:miter;"/>
   </g>
   <g id="text_1">
    <!-- t = 0.1 -->
    <defs>
     <path d="M 18.3125 70.21875 
L 18.3125 54.6875 
L 36.8125 54.6875 
L 36.8125 47.703125 
L 18.3125 47.703125 
L 18.3125 18.015625 
Q 18.3125 11.328125 20.140625 9.421875 
Q 21.96875 7.515625 27.59375 7.515625 
L 36.8125 7.515625 
L 36.8125 0 
L 27.59375 0 
Q 17.1875 0 13.234375 3.875 
Q 9.28125 7.765625 9.28125 18.015625 
L 9.28125 47.703125 
L 2.6875 47.703125 
L 2.6875 54.6875 
L 9.28125 54.6875 
L 9.28125 70.21875 
z
" id="DejaVuSans-116"/>
     <path id="DejaVuSans-32"/>
     <path d="M 10.59375 45.40625 
L 73.1875 45.40625 
L 73.1875 37.203125 
L 10.59375 37.203125 
z
M 10.59375 25.484375 
L 73.1875 25.484375 
L 73.1875 17.1875 
L 10.59375 17.1875 
z
" id="DejaVuSans-61"/>
     <path d="M 31.78125 66.40625 
Q 24.171875 66.40625 20.328125 58.90625 
Q 16.5 51.421875 16.5 36.375 
Q 16.5 21.390625 20.328125 13.890625 
Q 24.171875 6.390625 31.78125 6.390625 
Q 39.453125 6.390625 43.28125 13.890625 
Q 47.125 21.390625 47.125 36.375 
Q 47.125 51.421875 43.28125 58.90625 
Q 39.453125 66.40625 31.78125 66.40625 
z
M 31.78125 74.21875 
Q 44.046875 74.21875 50.515625 64.515625 
Q 56.984375 54.828125 56.984375 36.375 
Q 56.984375 17.96875 50.515625 8.265625 
Q 44.046875 -1.421875 31.78125 -1.421875 
Q 19.53125 -1.421875 13.0625 8.265625 
Q 6.59375 17.96875 6.59375 36.375 
Q 6.59375 54.828125 13.0625 64.515625 
Q 19.53125 74.21875 31.78125 74.21875 
z
" id="DejaVuSans-48"/>
     <path d="M 10.6875 12.40625 
L 21 12.40625 
L 21 0 
L 10.6875 0 
z
" id="DejaVuSans-46"/>
     <path d="M 12.40625 8.296875 
L 28.515625 8.296875 
L 28.515625 63.921875 
L 10.984375 60.40625 
L 10.984375 69.390625 
L 28.421875 72.90625 
L 38.28125 72.90625 
L 38.28125 8.296875 
L 54.390625 8.296875 
L 54.390625 0 
L 12.40625 0 
z
" id="DejaVuSans-49"/>
    </defs>
    <g transform="translate(200.664375 28.56)scale(0.12 -0.12)">
     <use xlink:href="#DejaVuSans-116"/>
     <use x="39.208984" xlink:href="#DejaVuSans-32"/>
     <use x="70.996094" xlink:href="#DejaVuSans-61"/>
     <use x="154.785156" xlink:href="#DejaVuSans-32"/>
     <use x="186.572266" xlink:href="#DejaVuSans-48"/>
     <use x="250.195312" xlink:href="#DejaVuSans-46"/>
     <use x="281.982422" xlink:href="#DejaVuSans-49"/>
    </g>
   </g>
  </g>
 </g>
 <defs>
  <clipPath id="pc3455a4046">
   <rect height="217.44" width="334.8" x="54" y="34.56"/>
  </clipPath>
 </defs>
</svg>
