<?xml version="1.0" encoding="utf-8" standalone="no"?>
<!DOCTYPE svg PUBLIC "-//W3C//DTD SVG 1.1//EN"
  "http://www.w3.org/Graphics/SVG/1.1/DTD/svg11.dtd">
<!-- Created with matplotlib (https://matplotlib.org/) -->
<svg height="288pt" version="1.1" viewBox="0 0 432 288" width="432pt" xmlns="http://www.w3.org/2000/svg" xmlns:xlink="http://www.w3.org/1999/xlink">
 <defs>
  <style type="text/css">
*{stroke-linecap:butt;stroke-linejoin:round;}
  </style>
 </defs>
 <g id="figure_1">
  <g id="patch_1">
   <path d="M 0 288 
L 432 288 
L 432 0 
L 0 0 
z
" style="fill:#ffffff;"/>
  </g>
  <g id="axes_1">
   <g id="patch_2">
    <path clip-path="url(#pd4e7dae02f)" d="M 195.427544 131.810125 
L 195.170048 142.679075 
L 194.083153 142.653326 
L 194.340649 131.784376 
z
" style="stroke:#000000;stroke-linejoin:miter;"/>
   </g>
   <g id="patch_3">
    <path clip-path="url(#pd4e7dae02f)" d="M 249.772295 133.097602 
L 249.5148 143.966553 
L 248.427905 143.940803 
L 248.6854 133.071853 
z
" style="stroke:#000000;stroke-linejoin:miter;"/>
   </g>
   <g id="patch_4">
    <path clip-path="url(#pd4e7dae02f)" d="M 212.999013 132.226409 
L 212.863353 131.671494 
L 212.431834 131.145657 
L 211.710943 130.682777 
L 210.712001 130.312284 
L 209.451008 130.057242 
L 207.948408 129.932863 
L 206.22877 129.945538 
L 204.320394 130.092442 
L 202.254836 130.361758 
L 200.066384 130.73348 
L 197.791463 131.180765 
L 195.468007 131.67173 
L 193.134802 132.17158 
L 190.830803 132.644926 
L 188.594454 133.058146 
L 186.463015 133.38163 
L 184.47192 133.591755 
L 182.65416 133.672471 
L 181.039727 133.616395 
L 179.655108 133.425318 
L 178.522856 133.110129 
L 177.661228 132.690121 
L 177.083907 132.191757 
L 176.799812 131.646951 
L 176.812984 131.090995 
L 177.122559 130.560254 
L 177.722832 130.089788 
L 178.603383 129.711054 
L 179.749291 129.449836 
L 181.141405 129.324543 
L 182.756682 129.344981 
L 184.568581 129.511688 
L 186.547491 129.815865 
L 188.66122 130.239921 
L 190.875492 130.758581 
L 193.154491 131.340502 
L 195.461408 131.950281 
L 197.759007 132.550723 
L 200.010195 133.105236 
L 202.178589 133.580176 
L 204.229075 133.947004 
L 206.128354 134.184115 
L 207.845462 134.27821 
L 209.352267 134.225127 
L 210.623923 134.030086 
L 211.639289 133.707313 
L 212.381291 133.279091 
L 212.837227 132.774278 
z
" style="fill:#0000ff;stroke:#000000;stroke-linejoin:miter;"/>
   </g>
   <g id="patch_5">
    <path clip-path="url(#pd4e7dae02f)" d="M 267.343765 133.513887 
L 267.208104 132.958972 
L 266.776585 132.433134 
L 266.055695 131.970255 
L 265.056753 131.599761 
L 263.795759 131.344719 
L 262.293159 131.220341 
L 260.573522 131.233015 
L 258.665145 131.37992 
L 256.599588 131.649235 
L 254.411136 132.020957 
L 252.136214 132.468242 
L 249.812759 132.959208 
L 247.479554 133.459057 
L 245.175555 133.932403 
L 242.939205 134.345624 
L 240.807767 134.669107 
L 238.816671 134.879232 
L 236.998911 134.959949 
L 235.384478 134.903872 
L 233.99986 134.712796 
L 232.867608 134.397606 
L 232.005979 133.977598 
L 231.428659 133.479234 
L 231.144564 132.934428 
L 231.157735 132.378472 
L 231.467311 131.847731 
L 232.067583 131.377265 
L 232.948135 130.998531 
L 234.094042 130.737313 
L 235.486156 130.61202 
L 237.101434 130.632458 
L 238.913332 130.799165 
L 240.892243 131.103343 
L 243.005971 131.527399 
L 245.220244 132.046059 
L 247.499243 132.62798 
L 249.80616 133.237758 
L 252.103759 133.838201 
L 254.354947 134.392714 
L 256.523341 134.867653 
L 258.573827 135.234481 
L 260.473106 135.471593 
L 262.190214 135.565687 
L 263.697018 135.512604 
L 264.968675 135.317563 
L 265.984041 134.99479 
L 266.726042 134.566568 
L 267.181978 134.061755 
z
" style="fill:#0000ff;stroke:#000000;stroke-linejoin:miter;"/>
   </g>
   <g id="patch_6">
    <path clip-path="url(#pd4e7dae02f)" d="M 254.470201 141.365188 
L 189.256499 139.820215 
L 189.127752 145.25469 
L 254.341453 146.799663 
z
" style="fill:#999999;stroke:#000000;stroke-linejoin:miter;"/>
   </g>
   <g id="text_1">
    <!-- t = 1.9 -->
    <defs>
     <path d="M 18.3125 70.21875 
L 18.3125 54.6875 
L 36.8125 54.6875 
L 36.8125 47.703125 
L 18.3125 47.703125 
L 18.3125 18.015625 
Q 18.3125 11.328125 20.140625 9.421875 
Q 21.96875 7.515625 27.59375 7.515625 
L 36.8125 7.515625 
L 36.8125 0 
L 27.59375 0 
Q 17.1875 0 13.234375 3.875 
Q 9.28125 7.765625 9.28125 18.015625 
L 9.28125 47.703125 
L 2.6875 47.703125 
L 2.6875 54.6875 
L 9.28125 54.6875 
L 9.28125 70.21875 
z
" id="DejaVuSans-116"/>
     <path id="DejaVuSans-32"/>
     <path d="M 10.59375 45.40625 
L 73.1875 45.40625 
L 73.1875 37.203125 
L 10.59375 37.203125 
z
M 10.59375 25.484375 
L 73.1875 25.484375 
L 73.1875 17.1875 
L 10.59375 17.1875 
z
" id="DejaVuSans-61"/>
     <path d="M 12.40625 8.296875 
L 28.515625 8.296875 
L 28.515625 63.921875 
L 10.984375 60.40625 
L 10.984375 69.390625 
L 28.421875 72.90625 
L 38.28125 72.90625 
L 38.28125 8.296875 
L 54.390625 8.296875 
L 54.390625 0 
L 12.40625 0 
z
" id="DejaVuSans-49"/>
     <path d="M 10.6875 12.40625 
L 21 12.40625 
L 21 0 
L 10.6875 0 
z
" id="DejaVuSans-46"/>
     <path d="M 10.984375 1.515625 
L 10.984375 10.5 
Q 14.703125 8.734375 18.5 7.8125 
Q 22.3125 6.890625 25.984375 6.890625 
Q 35.75 6.890625 40.890625 13.453125 
Q 46.046875 20.015625 46.78125 33.40625 
Q 43.953125 29.203125 39.59375 26.953125 
Q 35.25 24.703125 29.984375 24.703125 
Q 19.046875 24.703125 12.671875 31.3125 
Q 6.296875 37.9375 6.296875 49.421875 
Q 6.296875 60.640625 12.9375 67.421875 
Q 19.578125 74.21875 30.609375 74.21875 
Q 43.265625 74.21875 49.921875 64.515625 
Q 56.59375 54.828125 56.59375 36.375 
Q 56.59375 19.140625 48.40625 8.859375 
Q 40.234375 -1.421875 26.421875 -1.421875 
Q 22.703125 -1.421875 18.890625 -0.6875 
Q 15.09375 0.046875 10.984375 1.515625 
z
M 30.609375 32.421875 
Q 37.25 32.421875 41.125 36.953125 
Q 45.015625 41.5 45.015625 49.421875 
Q 45.015625 57.28125 41.125 61.84375 
Q 37.25 66.40625 30.609375 66.40625 
Q 23.96875 66.40625 20.09375 61.84375 
Q 16.21875 57.28125 16.21875 49.421875 
Q 16.21875 41.5 20.09375 36.953125 
Q 23.96875 32.421875 30.609375 32.421875 
z
" id="DejaVuSans-57"/>
    </defs>
    <g transform="translate(200.664375 28.56)scale(0.12 -0.12)">
     <use xlink:href="#DejaVuSans-116"/>
     <use x="39.208984" xlink:href="#DejaVuSans-32"/>
     <use x="70.996094" xlink:href="#DejaVuSans-61"/>
     <use x="154.785156" xlink:href="#DejaVuSans-32"/>
     <use x="186.572266" xlink:href="#DejaVuSans-49"/>
     <use x="250.195312" xlink:href="#DejaVuSans-46"/>
     <use x="281.982422" xlink:href="#DejaVuSans-57"/>
    </g>
   </g>
  </g>
 </g>
 <defs>
  <clipPath id="pd4e7dae02f">
   <rect height="217.44" width="334.8" x="54" y="34.56"/>
  </clipPath>
 </defs>
</svg>
