<?xml version="1.0" encoding="utf-8" standalone="no"?>
<!DOCTYPE svg PUBLIC "-//W3C//DTD SVG 1.1//EN"
  "http://www.w3.org/Graphics/SVG/1.1/DTD/svg11.dtd">
<!-- Created with matplotlib (https://matplotlib.org/) -->
<svg height="288pt" version="1.1" viewBox="0 0 432 288" width="432pt" xmlns="http://www.w3.org/2000/svg" xmlns:xlink="http://www.w3.org/1999/xlink">
 <defs>
  <style type="text/css">
*{stroke-linecap:butt;stroke-linejoin:round;}
  </style>
 </defs>
 <g id="figure_1">
  <g id="patch_1">
   <path d="M 0 288 
L 432 288 
L 432 0 
L 0 0 
z
" style="fill:#ffffff;"/>
  </g>
  <g id="axes_1">
   <g id="patch_2">
    <path clip-path="url(#pfd88a9a929)" d="M 194.734098 132.425157 
L 194.739135 143.297156 
L 193.651935 143.29766 
L 193.646898 132.425661 
z
" style="stroke:#000000;stroke-linejoin:miter;"/>
   </g>
   <g id="patch_3">
    <path clip-path="url(#pfd88a9a929)" d="M 249.094092 132.399969 
L 249.09913 143.271968 
L 248.01193 143.272472 
L 248.006892 132.400473 
z
" style="stroke:#000000;stroke-linejoin:miter;"/>
   </g>
   <g id="patch_4">
    <path clip-path="url(#pfd88a9a929)" d="M 212.310496 132.417013 
L 212.161475 131.865536 
L 211.717384 131.350272 
L 210.985527 130.904935 
L 209.977929 130.558671 
L 208.711145 130.334153 
L 207.20598 130.246095 
L 205.48715 130.300291 
L 203.582877 130.493236 
L 201.524425 130.81235 
L 199.345588 131.236809 
L 197.08213 131.738898 
L 194.771208 132.285826 
L 192.450753 132.841871 
L 190.158856 133.370714 
L 187.933137 133.837817 
L 185.810131 134.212675 
L 183.824691 134.470818 
L 182.00941 134.595406 
L 180.394093 134.57833 
L 179.005264 134.420744 
L 177.865731 134.132988 
L 176.994212 133.733909 
L 176.405026 133.249631 
L 176.107858 132.711844 
L 176.1076 132.155732 
L 176.40427 131.61767 
L 176.993007 131.132846 
L 177.864156 130.73296 
L 179.003422 130.444147 
L 180.392104 130.285274 
L 182.007404 130.266702 
L 183.8228 130.389607 
L 185.808479 130.64591 
L 187.931831 131.018801 
L 190.157982 131.483841 
L 192.450368 132.01056 
L 194.771337 132.564454 
L 197.082765 133.10924 
L 199.346687 133.609231 
L 201.525917 134.031671 
L 203.584663 134.348878 
L 205.489114 134.540057 
L 207.207994 134.592661 
L 208.713077 134.503208 
L 209.979653 134.277516 
L 210.986929 133.930319 
L 211.718373 133.484304 
L 212.161987 132.968629 
z
" style="fill:#0000ff;stroke:#000000;stroke-linejoin:miter;"/>
   </g>
   <g id="patch_5">
    <path clip-path="url(#pfd88a9a929)" d="M 266.67049 132.391825 
L 266.52147 131.840348 
L 266.077379 131.325084 
L 265.345521 130.879747 
L 264.337924 130.533484 
L 263.071139 130.308966 
L 261.565974 130.220908 
L 259.847144 130.275104 
L 257.942871 130.468048 
L 255.88442 130.787162 
L 253.705582 131.211621 
L 251.442124 131.71371 
L 249.131202 132.260638 
L 246.810748 132.816683 
L 244.51885 133.345526 
L 242.293131 133.812629 
L 240.170125 134.187487 
L 238.184685 134.44563 
L 236.369404 134.570218 
L 234.754087 134.553142 
L 233.365258 134.395556 
L 232.225726 134.1078 
L 231.354206 133.708721 
L 230.76502 133.224443 
L 230.467852 132.686656 
L 230.467595 132.130544 
L 230.764264 131.592482 
L 231.353001 131.107658 
L 232.22415 130.707772 
L 233.363416 130.418959 
L 234.752098 130.260087 
L 236.367398 130.241514 
L 238.182794 130.364419 
L 240.168473 130.620722 
L 242.291825 130.993613 
L 244.517976 131.458653 
L 246.810362 131.985372 
L 249.131331 132.539267 
L 251.442759 133.084053 
L 253.706681 133.584043 
L 255.885911 134.006483 
L 257.944658 134.32369 
L 259.849108 134.51487 
L 261.567988 134.567473 
L 263.073071 134.47802 
L 264.339647 134.252328 
L 265.346923 133.905131 
L 266.078367 133.459116 
L 266.521981 132.943441 
z
" style="fill:#0000ff;stroke:#000000;stroke-linejoin:miter;"/>
   </g>
   <g id="patch_6">
    <path clip-path="url(#pfd88a9a929)" d="M 253.99027 140.551702 
L 188.758277 140.581927 
L 188.760795 146.017927 
L 253.992788 145.987701 
z
" style="fill:#999999;stroke:#000000;stroke-linejoin:miter;"/>
   </g>
   <g id="text_1">
    <!-- t = 3.2 -->
    <defs>
     <path d="M 18.3125 70.21875 
L 18.3125 54.6875 
L 36.8125 54.6875 
L 36.8125 47.703125 
L 18.3125 47.703125 
L 18.3125 18.015625 
Q 18.3125 11.328125 20.140625 9.421875 
Q 21.96875 7.515625 27.59375 7.515625 
L 36.8125 7.515625 
L 36.8125 0 
L 27.59375 0 
Q 17.1875 0 13.234375 3.875 
Q 9.28125 7.765625 9.28125 18.015625 
L 9.28125 47.703125 
L 2.6875 47.703125 
L 2.6875 54.6875 
L 9.28125 54.6875 
L 9.28125 70.21875 
z
" id="DejaVuSans-116"/>
     <path id="DejaVuSans-32"/>
     <path d="M 10.59375 45.40625 
L 73.1875 45.40625 
L 73.1875 37.203125 
L 10.59375 37.203125 
z
M 10.59375 25.484375 
L 73.1875 25.484375 
L 73.1875 17.1875 
L 10.59375 17.1875 
z
" id="DejaVuSans-61"/>
     <path d="M 40.578125 39.3125 
Q 47.65625 37.796875 51.625 33 
Q 55.609375 28.21875 55.609375 21.1875 
Q 55.609375 10.40625 48.1875 4.484375 
Q 40.765625 -1.421875 27.09375 -1.421875 
Q 22.515625 -1.421875 17.65625 -0.515625 
Q 12.796875 0.390625 7.625 2.203125 
L 7.625 11.71875 
Q 11.71875 9.328125 16.59375 8.109375 
Q 21.484375 6.890625 26.8125 6.890625 
Q 36.078125 6.890625 40.9375 10.546875 
Q 45.796875 14.203125 45.796875 21.1875 
Q 45.796875 27.640625 41.28125 31.265625 
Q 36.765625 34.90625 28.71875 34.90625 
L 20.21875 34.90625 
L 20.21875 43.015625 
L 29.109375 43.015625 
Q 36.375 43.015625 40.234375 45.921875 
Q 44.09375 48.828125 44.09375 54.296875 
Q 44.09375 59.90625 40.109375 62.90625 
Q 36.140625 65.921875 28.71875 65.921875 
Q 24.65625 65.921875 20.015625 65.03125 
Q 15.375 64.15625 9.8125 62.3125 
L 9.8125 71.09375 
Q 15.4375 72.65625 20.34375 73.4375 
Q 25.25 74.21875 29.59375 74.21875 
Q 40.828125 74.21875 47.359375 69.109375 
Q 53.90625 64.015625 53.90625 55.328125 
Q 53.90625 49.265625 50.4375 45.09375 
Q 46.96875 40.921875 40.578125 39.3125 
z
" id="DejaVuSans-51"/>
     <path d="M 10.6875 12.40625 
L 21 12.40625 
L 21 0 
L 10.6875 0 
z
" id="DejaVuSans-46"/>
     <path d="M 19.1875 8.296875 
L 53.609375 8.296875 
L 53.609375 0 
L 7.328125 0 
L 7.328125 8.296875 
Q 12.9375 14.109375 22.625 23.890625 
Q 32.328125 33.6875 34.8125 36.53125 
Q 39.546875 41.84375 41.421875 45.53125 
Q 43.3125 49.21875 43.3125 52.78125 
Q 43.3125 58.59375 39.234375 62.25 
Q 35.15625 65.921875 28.609375 65.921875 
Q 23.96875 65.921875 18.8125 64.3125 
Q 13.671875 62.703125 7.8125 59.421875 
L 7.8125 69.390625 
Q 13.765625 71.78125 18.9375 73 
Q 24.125 74.21875 28.421875 74.21875 
Q 39.75 74.21875 46.484375 68.546875 
Q 53.21875 62.890625 53.21875 53.421875 
Q 53.21875 48.921875 51.53125 44.890625 
Q 49.859375 40.875 45.40625 35.40625 
Q 44.1875 33.984375 37.640625 27.21875 
Q 31.109375 20.453125 19.1875 8.296875 
z
" id="DejaVuSans-50"/>
    </defs>
    <g transform="translate(200.664375 28.56)scale(0.12 -0.12)">
     <use xlink:href="#DejaVuSans-116"/>
     <use x="39.208984" xlink:href="#DejaVuSans-32"/>
     <use x="70.996094" xlink:href="#DejaVuSans-61"/>
     <use x="154.785156" xlink:href="#DejaVuSans-32"/>
     <use x="186.572266" xlink:href="#DejaVuSans-51"/>
     <use x="250.195312" xlink:href="#DejaVuSans-46"/>
     <use x="281.982422" xlink:href="#DejaVuSans-50"/>
    </g>
   </g>
  </g>
 </g>
 <defs>
  <clipPath id="pfd88a9a929">
   <rect height="217.44" width="334.8" x="54" y="34.56"/>
  </clipPath>
 </defs>
</svg>
