<?xml version="1.0" encoding="utf-8" standalone="no"?>
<!DOCTYPE svg PUBLIC "-//W3C//DTD SVG 1.1//EN"
  "http://www.w3.org/Graphics/SVG/1.1/DTD/svg11.dtd">
<!-- Created with matplotlib (https://matplotlib.org/) -->
<svg height="288pt" version="1.1" viewBox="0 0 432 288" width="432pt" xmlns="http://www.w3.org/2000/svg" xmlns:xlink="http://www.w3.org/1999/xlink">
 <defs>
  <style type="text/css">
*{stroke-linecap:butt;stroke-linejoin:round;}
  </style>
 </defs>
 <g id="figure_1">
  <g id="patch_1">
   <path d="M 0 288 
L 432 288 
L 432 0 
L 0 0 
z
" style="fill:#ffffff;"/>
  </g>
  <g id="axes_1">
   <g id="patch_2">
    <path clip-path="url(#p326fdf3fe7)" d="M 194.767428 132.40883 
L 194.767642 143.28083 
L 193.680442 143.280851 
L 193.680228 132.408851 
z
" style="stroke:#000000;stroke-linejoin:miter;"/>
   </g>
   <g id="patch_3">
    <path clip-path="url(#p326fdf3fe7)" d="M 249.127428 132.407759 
L 249.127642 143.279759 
L 248.040442 143.279781 
L 248.040228 132.407781 
z
" style="stroke:#000000;stroke-linejoin:miter;"/>
   </g>
   <g id="patch_4">
    <path clip-path="url(#p326fdf3fe7)" d="M 212.343828 132.408484 
L 212.195052 131.85694 
L 211.75119 131.341479 
L 211.01953 130.895818 
L 210.012086 130.549107 
L 208.745402 130.324027 
L 207.240275 130.235301 
L 205.521421 130.288735 
L 203.617063 130.480834 
L 201.55847 130.799036 
L 199.379444 131.222528 
L 197.115764 131.723612 
L 194.8046 132.269515 
L 192.483899 132.82453 
L 190.191767 133.352357 
L 187.965841 133.818472 
L 185.842669 134.192388 
L 183.857114 134.449651 
L 182.041778 134.573433 
L 180.426469 134.555641 
L 179.037711 134.397439 
L 177.898305 134.109177 
L 177.026963 133.709711 
L 176.437992 133.225172 
L 176.141063 132.687253 
L 176.141052 132.131141 
L 176.43796 131.59321 
L 177.026912 131.108648 
L 177.898238 130.709148 
L 179.037632 130.420841 
L 180.426385 130.262584 
L 182.041693 130.244728 
L 183.857034 130.368439 
L 185.842599 130.625623 
L 187.965785 130.999456 
L 190.19173 131.465483 
L 192.483882 131.99322 
L 194.804605 132.548144 
L 197.115791 133.093955 
L 199.379491 133.59495 
L 201.558534 134.018357 
L 203.617139 134.336477 
L 205.521505 134.528501 
L 207.240361 134.581867 
L 208.745484 134.493082 
L 210.012159 134.267952 
L 211.019589 133.921202 
L 211.751232 133.475512 
L 212.195074 132.960033 
z
" style="fill:#0000ff;stroke:#000000;stroke-linejoin:miter;"/>
   </g>
   <g id="patch_5">
    <path clip-path="url(#p326fdf3fe7)" d="M 266.703828 132.407413 
L 266.555052 131.855869 
L 266.11119 131.340408 
L 265.37953 130.894747 
L 264.372086 130.548036 
L 263.105402 130.322956 
L 261.600275 130.234231 
L 259.881421 130.287664 
L 257.977063 130.479763 
L 255.91847 130.797965 
L 253.739444 131.221457 
L 251.475764 131.722542 
L 249.1646 132.268444 
L 246.843899 132.823459 
L 244.551767 133.351286 
L 242.325841 133.817401 
L 240.202669 134.191317 
L 238.217114 134.44858 
L 236.401778 134.572362 
L 234.786469 134.55457 
L 233.397711 134.396368 
L 232.258305 134.108106 
L 231.386963 133.70864 
L 230.797992 133.224101 
L 230.501063 132.686182 
L 230.501052 132.13007 
L 230.79796 131.59214 
L 231.386912 131.107577 
L 232.258238 130.708077 
L 233.397632 130.41977 
L 234.786385 130.261514 
L 236.401693 130.243657 
L 238.217034 130.367368 
L 240.202599 130.624552 
L 242.325785 130.998385 
L 244.55173 131.464412 
L 246.843882 131.992149 
L 249.164605 132.547073 
L 251.475791 133.092884 
L 253.739491 133.593879 
L 255.918534 134.017286 
L 257.977139 134.335406 
L 259.881505 134.527431 
L 261.600361 134.580796 
L 263.105484 134.492011 
L 264.372159 134.266881 
L 265.379589 133.920131 
L 266.111232 133.474441 
L 266.555074 132.958962 
z
" style="fill:#0000ff;stroke:#000000;stroke-linejoin:miter;"/>
   </g>
   <g id="patch_6">
    <path clip-path="url(#p326fdf3fe7)" d="M 254.019988 140.561663 
L 188.787988 140.562948 
L 188.788096 145.998948 
L 254.020096 145.997663 
z
" style="fill:#999999;stroke:#000000;stroke-linejoin:miter;"/>
   </g>
   <g id="text_1">
    <!-- t = 3.9 -->
    <defs>
     <path d="M 18.3125 70.21875 
L 18.3125 54.6875 
L 36.8125 54.6875 
L 36.8125 47.703125 
L 18.3125 47.703125 
L 18.3125 18.015625 
Q 18.3125 11.328125 20.140625 9.421875 
Q 21.96875 7.515625 27.59375 7.515625 
L 36.8125 7.515625 
L 36.8125 0 
L 27.59375 0 
Q 17.1875 0 13.234375 3.875 
Q 9.28125 7.765625 9.28125 18.015625 
L 9.28125 47.703125 
L 2.6875 47.703125 
L 2.6875 54.6875 
L 9.28125 54.6875 
L 9.28125 70.21875 
z
" id="DejaVuSans-116"/>
     <path id="DejaVuSans-32"/>
     <path d="M 10.59375 45.40625 
L 73.1875 45.40625 
L 73.1875 37.203125 
L 10.59375 37.203125 
z
M 10.59375 25.484375 
L 73.1875 25.484375 
L 73.1875 17.1875 
L 10.59375 17.1875 
z
" id="DejaVuSans-61"/>
     <path d="M 40.578125 39.3125 
Q 47.65625 37.796875 51.625 33 
Q 55.609375 28.21875 55.609375 21.1875 
Q 55.609375 10.40625 48.1875 4.484375 
Q 40.765625 -1.421875 27.09375 -1.421875 
Q 22.515625 -1.421875 17.65625 -0.515625 
Q 12.796875 0.390625 7.625 2.203125 
L 7.625 11.71875 
Q 11.71875 9.328125 16.59375 8.109375 
Q 21.484375 6.890625 26.8125 6.890625 
Q 36.078125 6.890625 40.9375 10.546875 
Q 45.796875 14.203125 45.796875 21.1875 
Q 45.796875 27.640625 41.28125 31.265625 
Q 36.765625 34.90625 28.71875 34.90625 
L 20.21875 34.90625 
L 20.21875 43.015625 
L 29.109375 43.015625 
Q 36.375 43.015625 40.234375 45.921875 
Q 44.09375 48.828125 44.09375 54.296875 
Q 44.09375 59.90625 40.109375 62.90625 
Q 36.140625 65.921875 28.71875 65.921875 
Q 24.65625 65.921875 20.015625 65.03125 
Q 15.375 64.15625 9.8125 62.3125 
L 9.8125 71.09375 
Q 15.4375 72.65625 20.34375 73.4375 
Q 25.25 74.21875 29.59375 74.21875 
Q 40.828125 74.21875 47.359375 69.109375 
Q 53.90625 64.015625 53.90625 55.328125 
Q 53.90625 49.265625 50.4375 45.09375 
Q 46.96875 40.921875 40.578125 39.3125 
z
" id="DejaVuSans-51"/>
     <path d="M 10.6875 12.40625 
L 21 12.40625 
L 21 0 
L 10.6875 0 
z
" id="DejaVuSans-46"/>
     <path d="M 10.984375 1.515625 
L 10.984375 10.5 
Q 14.703125 8.734375 18.5 7.8125 
Q 22.3125 6.890625 25.984375 6.890625 
Q 35.75 6.890625 40.890625 13.453125 
Q 46.046875 20.015625 46.78125 33.40625 
Q 43.953125 29.203125 39.59375 26.953125 
Q 35.25 24.703125 29.984375 24.703125 
Q 19.046875 24.703125 12.671875 31.3125 
Q 6.296875 37.9375 6.296875 49.421875 
Q 6.296875 60.640625 12.9375 67.421875 
Q 19.578125 74.21875 30.609375 74.21875 
Q 43.265625 74.21875 49.921875 64.515625 
Q 56.59375 54.828125 56.59375 36.375 
Q 56.59375 19.140625 48.40625 8.859375 
Q 40.234375 -1.421875 26.421875 -1.421875 
Q 22.703125 -1.421875 18.890625 -0.6875 
Q 15.09375 0.046875 10.984375 1.515625 
z
M 30.609375 32.421875 
Q 37.25 32.421875 41.125 36.953125 
Q 45.015625 41.5 45.015625 49.421875 
Q 45.015625 57.28125 41.125 61.84375 
Q 37.25 66.40625 30.609375 66.40625 
Q 23.96875 66.40625 20.09375 61.84375 
Q 16.21875 57.28125 16.21875 49.421875 
Q 16.21875 41.5 20.09375 36.953125 
Q 23.96875 32.421875 30.609375 32.421875 
z
" id="DejaVuSans-57"/>
    </defs>
    <g transform="translate(200.664375 28.56)scale(0.12 -0.12)">
     <use xlink:href="#DejaVuSans-116"/>
     <use x="39.208984" xlink:href="#DejaVuSans-32"/>
     <use x="70.996094" xlink:href="#DejaVuSans-61"/>
     <use x="154.785156" xlink:href="#DejaVuSans-32"/>
     <use x="186.572266" xlink:href="#DejaVuSans-51"/>
     <use x="250.195312" xlink:href="#DejaVuSans-46"/>
     <use x="281.982422" xlink:href="#DejaVuSans-57"/>
    </g>
   </g>
  </g>
 </g>
 <defs>
  <clipPath id="p326fdf3fe7">
   <rect height="217.44" width="334.8" x="54" y="34.56"/>
  </clipPath>
 </defs>
</svg>
