<?xml version="1.0" encoding="utf-8" standalone="no"?>
<!DOCTYPE svg PUBLIC "-//W3C//DTD SVG 1.1//EN"
  "http://www.w3.org/Graphics/SVG/1.1/DTD/svg11.dtd">
<!-- Created with matplotlib (https://matplotlib.org/) -->
<svg height="288pt" version="1.1" viewBox="0 0 432 288" width="432pt" xmlns="http://www.w3.org/2000/svg" xmlns:xlink="http://www.w3.org/1999/xlink">
 <defs>
  <style type="text/css">
*{stroke-linecap:butt;stroke-linejoin:round;}
  </style>
 </defs>
 <g id="figure_1">
  <g id="patch_1">
   <path d="M 0 288 
L 432 288 
L 432 0 
L 0 0 
z
" style="fill:#ffffff;"/>
  </g>
  <g id="axes_1">
   <g id="patch_2">
    <path clip-path="url(#p0261b7d98f)" d="M 194.760547 132.408686 
L 194.761886 143.280686 
L 193.674686 143.28082 
L 193.673348 132.40882 
z
" style="stroke:#000000;stroke-linejoin:miter;"/>
   </g>
   <g id="patch_3">
    <path clip-path="url(#p0261b7d98f)" d="M 249.120547 132.401994 
L 249.121886 143.273994 
L 248.034686 143.274128 
L 248.033347 132.402128 
z
" style="stroke:#000000;stroke-linejoin:miter;"/>
   </g>
   <g id="patch_4">
    <path clip-path="url(#p0261b7d98f)" d="M 212.336947 132.406523 
L 212.188115 131.854994 
L 211.744199 131.339579 
L 211.012493 130.893994 
L 210.005013 130.547387 
L 208.738306 130.322438 
L 207.23317 130.233868 
L 205.514322 130.287479 
L 203.609983 130.479775 
L 201.551423 130.79819 
L 199.372441 131.221908 
L 197.108813 131.723226 
L 194.797705 132.269368 
L 192.477061 132.824623 
L 190.184984 133.352687 
L 187.959106 133.819032 
L 185.835973 134.193168 
L 183.850445 134.450635 
L 182.035122 134.574606 
L 180.419811 134.55698 
L 179.031036 134.398922 
L 177.891601 134.110778 
L 177.020218 133.711402 
L 176.431196 133.226924 
L 176.134211 132.689036 
L 176.134143 132.132924 
L 176.430995 131.594963 
L 177.019897 131.110339 
L 177.891182 130.710749 
L 179.030546 130.422324 
L 180.419283 130.263924 
L 182.034589 130.245901 
L 183.849942 130.369424 
L 185.835534 130.626403 
L 187.958759 131.000016 
L 190.184752 131.465813 
L 192.476959 131.993312 
L 194.797739 132.547996 
L 197.108982 133.093569 
L 199.372733 133.59433 
L 201.55182 134.017511 
L 203.610458 134.335418 
L 205.514844 134.527246 
L 207.233705 134.580434 
L 208.738819 134.491493 
L 210.005471 134.266232 
L 211.012865 133.919378 
L 211.744462 133.473612 
L 212.18825 132.958087 
z
" style="fill:#0000ff;stroke:#000000;stroke-linejoin:miter;"/>
   </g>
   <g id="patch_5">
    <path clip-path="url(#p0261b7d98f)" d="M 266.696947 132.39983 
L 266.548114 131.848302 
L 266.104199 131.332887 
L 265.372492 130.887301 
L 264.365013 130.540695 
L 263.098305 130.315746 
L 261.59317 130.227176 
L 259.874321 130.280787 
L 257.969983 130.473083 
L 255.911423 130.791498 
L 253.732441 131.215215 
L 251.468813 131.716534 
L 249.157705 132.262675 
L 246.837061 132.817931 
L 244.544984 133.345994 
L 242.319106 133.812339 
L 240.195973 134.186475 
L 238.210445 134.443943 
L 236.395122 134.567913 
L 234.779811 134.550288 
L 233.391036 134.392229 
L 232.251601 134.104085 
L 231.380217 133.70471 
L 230.791196 133.220231 
L 230.494211 132.682343 
L 230.494142 132.126231 
L 230.790995 131.58827 
L 231.379897 131.103647 
L 232.251182 130.704057 
L 233.390546 130.415632 
L 234.779282 130.257232 
L 236.394589 130.239208 
L 238.209942 130.362732 
L 240.195534 130.61971 
L 242.318759 130.993324 
L 244.544752 131.459121 
L 246.836959 131.98662 
L 249.157739 132.541304 
L 251.468982 133.086876 
L 253.732733 133.587637 
L 255.911819 134.010818 
L 257.970458 134.328726 
L 259.874843 134.520553 
L 261.593705 134.573741 
L 263.098818 134.484801 
L 264.365471 134.25954 
L 265.372865 133.912685 
L 266.104461 133.466919 
L 266.54825 132.951395 
z
" style="fill:#0000ff;stroke:#000000;stroke-linejoin:miter;"/>
   </g>
   <g id="patch_6">
    <path clip-path="url(#p0261b7d98f)" d="M 254.013951 140.555392 
L 188.781951 140.563423 
L 188.782621 145.999423 
L 254.01462 145.991392 
z
" style="fill:#999999;stroke:#000000;stroke-linejoin:miter;"/>
   </g>
   <g id="text_1">
    <!-- t = 3.0 -->
    <defs>
     <path d="M 18.3125 70.21875 
L 18.3125 54.6875 
L 36.8125 54.6875 
L 36.8125 47.703125 
L 18.3125 47.703125 
L 18.3125 18.015625 
Q 18.3125 11.328125 20.140625 9.421875 
Q 21.96875 7.515625 27.59375 7.515625 
L 36.8125 7.515625 
L 36.8125 0 
L 27.59375 0 
Q 17.1875 0 13.234375 3.875 
Q 9.28125 7.765625 9.28125 18.015625 
L 9.28125 47.703125 
L 2.6875 47.703125 
L 2.6875 54.6875 
L 9.28125 54.6875 
L 9.28125 70.21875 
z
" id="DejaVuSans-116"/>
     <path id="DejaVuSans-32"/>
     <path d="M 10.59375 45.40625 
L 73.1875 45.40625 
L 73.1875 37.203125 
L 10.59375 37.203125 
z
M 10.59375 25.484375 
L 73.1875 25.484375 
L 73.1875 17.1875 
L 10.59375 17.1875 
z
" id="DejaVuSans-61"/>
     <path d="M 40.578125 39.3125 
Q 47.65625 37.796875 51.625 33 
Q 55.609375 28.21875 55.609375 21.1875 
Q 55.609375 10.40625 48.1875 4.484375 
Q 40.765625 -1.421875 27.09375 -1.421875 
Q 22.515625 -1.421875 17.65625 -0.515625 
Q 12.796875 0.390625 7.625 2.203125 
L 7.625 11.71875 
Q 11.71875 9.328125 16.59375 8.109375 
Q 21.484375 6.890625 26.8125 6.890625 
Q 36.078125 6.890625 40.9375 10.546875 
Q 45.796875 14.203125 45.796875 21.1875 
Q 45.796875 27.640625 41.28125 31.265625 
Q 36.765625 34.90625 28.71875 34.90625 
L 20.21875 34.90625 
L 20.21875 43.015625 
L 29.109375 43.015625 
Q 36.375 43.015625 40.234375 45.921875 
Q 44.09375 48.828125 44.09375 54.296875 
Q 44.09375 59.90625 40.109375 62.90625 
Q 36.140625 65.921875 28.71875 65.921875 
Q 24.65625 65.921875 20.015625 65.03125 
Q 15.375 64.15625 9.8125 62.3125 
L 9.8125 71.09375 
Q 15.4375 72.65625 20.34375 73.4375 
Q 25.25 74.21875 29.59375 74.21875 
Q 40.828125 74.21875 47.359375 69.109375 
Q 53.90625 64.015625 53.90625 55.328125 
Q 53.90625 49.265625 50.4375 45.09375 
Q 46.96875 40.921875 40.578125 39.3125 
z
" id="DejaVuSans-51"/>
     <path d="M 10.6875 12.40625 
L 21 12.40625 
L 21 0 
L 10.6875 0 
z
" id="DejaVuSans-46"/>
     <path d="M 31.78125 66.40625 
Q 24.171875 66.40625 20.328125 58.90625 
Q 16.5 51.421875 16.5 36.375 
Q 16.5 21.390625 20.328125 13.890625 
Q 24.171875 6.390625 31.78125 6.390625 
Q 39.453125 6.390625 43.28125 13.890625 
Q 47.125 21.390625 47.125 36.375 
Q 47.125 51.421875 43.28125 58.90625 
Q 39.453125 66.40625 31.78125 66.40625 
z
M 31.78125 74.21875 
Q 44.046875 74.21875 50.515625 64.515625 
Q 56.984375 54.828125 56.984375 36.375 
Q 56.984375 17.96875 50.515625 8.265625 
Q 44.046875 -1.421875 31.78125 -1.421875 
Q 19.53125 -1.421875 13.0625 8.265625 
Q 6.59375 17.96875 6.59375 36.375 
Q 6.59375 54.828125 13.0625 64.515625 
Q 19.53125 74.21875 31.78125 74.21875 
z
" id="DejaVuSans-48"/>
    </defs>
    <g transform="translate(200.664375 28.56)scale(0.12 -0.12)">
     <use xlink:href="#DejaVuSans-116"/>
     <use x="39.208984" xlink:href="#DejaVuSans-32"/>
     <use x="70.996094" xlink:href="#DejaVuSans-61"/>
     <use x="154.785156" xlink:href="#DejaVuSans-32"/>
     <use x="186.572266" xlink:href="#DejaVuSans-51"/>
     <use x="250.195312" xlink:href="#DejaVuSans-46"/>
     <use x="281.982422" xlink:href="#DejaVuSans-48"/>
    </g>
   </g>
  </g>
 </g>
 <defs>
  <clipPath id="p0261b7d98f">
   <rect height="217.44" width="334.8" x="54" y="34.56"/>
  </clipPath>
 </defs>
</svg>
