<?xml version="1.0" encoding="utf-8" standalone="no"?>
<!DOCTYPE svg PUBLIC "-//W3C//DTD SVG 1.1//EN"
  "http://www.w3.org/Graphics/SVG/1.1/DTD/svg11.dtd">
<!-- Created with matplotlib (https://matplotlib.org/) -->
<svg height="288pt" version="1.1" viewBox="0 0 432 288" width="432pt" xmlns="http://www.w3.org/2000/svg" xmlns:xlink="http://www.w3.org/1999/xlink">
 <defs>
  <style type="text/css">
*{stroke-linecap:butt;stroke-linejoin:round;}
  </style>
 </defs>
 <g id="figure_1">
  <g id="patch_1">
   <path d="M 0 288 
L 432 288 
L 432 0 
L 0 0 
z
" style="fill:#ffffff;"/>
  </g>
  <g id="axes_1">
   <g id="patch_2">
    <path clip-path="url(#pc7c262c5e2)" d="M 152.803955 158.567885 
L 156.532298 168.780615 
L 155.511025 169.153449 
L 151.782682 158.94072 
z
" style="stroke:#000000;stroke-linejoin:miter;"/>
   </g>
   <g id="patch_3">
    <path clip-path="url(#pc7c262c5e2)" d="M 203.867602 139.92617 
L 207.595945 150.138899 
L 206.574672 150.511734 
L 202.846329 140.299004 
z
" style="stroke:#000000;stroke-linejoin:miter;"/>
   </g>
   <g id="patch_4">
    <path clip-path="url(#pc7c262c5e2)" d="M 169.314534 152.540397 
L 168.985648 152.073312 
L 168.39194 151.741311 
L 167.55182 151.573566 
L 166.486569 151.593342 
L 165.219504 151.816271 
L 163.775212 152.249051 
L 162.178899 152.888661 
L 160.455881 153.722141 
L 158.631221 154.726965 
L 156.729535 155.871995 
L 154.774936 157.118941 
L 152.7911 158.424271 
L 150.801431 159.741431 
L 148.829275 161.023254 
L 146.898149 162.224404 
L 145.031931 163.303711 
L 143.254984 164.226246 
L 141.592163 164.965024 
L 140.068693 165.50222 
L 138.709889 165.829832 
L 137.54072 165.949764 
L 136.585228 165.873313 
L 135.865813 165.620118 
L 135.402428 165.216636 
L 135.21172 164.694246 
L 135.306163 164.087118 
L 135.693243 163.429977 
L 136.374746 162.755911 
L 137.346191 162.094373 
L 138.596472 161.469491 
L 140.107717 160.898809 
L 141.855411 160.392516 
L 143.808777 159.953232 
L 145.931422 159.576332 
L 148.182208 159.250799 
L 150.516349 158.96053 
L 152.88665 158.686003 
L 155.244869 158.406187 
L 157.543112 158.100555 
L 159.735225 157.751069 
L 161.778099 157.34398 
L 163.632846 156.871331 
L 165.265783 156.332044 
L 166.649201 155.732517 
L 167.761875 155.086679 
L 168.589317 154.415493 
L 169.123765 153.745937 
L 169.363932 153.109515 
z
" style="fill:#0000ff;stroke:#000000;stroke-linejoin:miter;"/>
   </g>
   <g id="patch_5">
    <path clip-path="url(#pc7c262c5e2)" d="M 220.378181 133.898682 
L 220.049295 133.431597 
L 219.455587 133.099595 
L 218.615467 132.931851 
L 217.550216 132.951627 
L 216.283151 133.174556 
L 214.838859 133.607336 
L 213.242546 134.246945 
L 211.519528 135.080425 
L 209.694868 136.08525 
L 207.793182 137.230279 
L 205.838583 138.477225 
L 203.854747 139.782555 
L 201.865078 141.099715 
L 199.892922 142.381538 
L 197.961796 143.582689 
L 196.095578 144.661996 
L 194.318631 145.58453 
L 192.65581 146.323308 
L 191.13234 146.860504 
L 189.773536 147.188117 
L 188.604367 147.308049 
L 187.648875 147.231598 
L 186.92946 146.978403 
L 186.466075 146.57492 
L 186.275367 146.05253 
L 186.36981 145.445402 
L 186.75689 144.788261 
L 187.438393 144.114195 
L 188.409838 143.452657 
L 189.660119 142.827776 
L 191.171364 142.257093 
L 192.919058 141.750801 
L 194.872424 141.311517 
L 196.995069 140.934616 
L 199.245855 140.609084 
L 201.579996 140.318815 
L 203.950297 140.044288 
L 206.308516 139.764471 
L 208.606759 139.45884 
L 210.798872 139.109353 
L 212.841746 138.702264 
L 214.696493 138.229615 
L 216.32943 137.690329 
L 217.712848 137.090802 
L 218.825522 136.444964 
L 219.652964 135.773778 
L 220.187412 135.104222 
L 220.427579 134.467799 
z
" style="fill:#0000ff;stroke:#000000;stroke-linejoin:miter;"/>
   </g>
   <g id="patch_6">
    <path clip-path="url(#pc7c262c5e2)" d="M 211.259587 145.907962 
L 149.983211 168.278021 
L 151.847382 173.384386 
L 213.123759 151.014327 
z
" style="fill:#999999;stroke:#000000;stroke-linejoin:miter;"/>
   </g>
   <g id="text_1">
    <!-- t = 0.8 -->
    <defs>
     <path d="M 18.3125 70.21875 
L 18.3125 54.6875 
L 36.8125 54.6875 
L 36.8125 47.703125 
L 18.3125 47.703125 
L 18.3125 18.015625 
Q 18.3125 11.328125 20.140625 9.421875 
Q 21.96875 7.515625 27.59375 7.515625 
L 36.8125 7.515625 
L 36.8125 0 
L 27.59375 0 
Q 17.1875 0 13.234375 3.875 
Q 9.28125 7.765625 9.28125 18.015625 
L 9.28125 47.703125 
L 2.6875 47.703125 
L 2.6875 54.6875 
L 9.28125 54.6875 
L 9.28125 70.21875 
z
" id="DejaVuSans-116"/>
     <path id="DejaVuSans-32"/>
     <path d="M 10.59375 45.40625 
L 73.1875 45.40625 
L 73.1875 37.203125 
L 10.59375 37.203125 
z
M 10.59375 25.484375 
L 73.1875 25.484375 
L 73.1875 17.1875 
L 10.59375 17.1875 
z
" id="DejaVuSans-61"/>
     <path d="M 31.78125 66.40625 
Q 24.171875 66.40625 20.328125 58.90625 
Q 16.5 51.421875 16.5 36.375 
Q 16.5 21.390625 20.328125 13.890625 
Q 24.171875 6.390625 31.78125 6.390625 
Q 39.453125 6.390625 43.28125 13.890625 
Q 47.125 21.390625 47.125 36.375 
Q 47.125 51.421875 43.28125 58.90625 
Q 39.453125 66.40625 31.78125 66.40625 
z
M 31.78125 74.21875 
Q 44.046875 74.21875 50.515625 64.515625 
Q 56.984375 54.828125 56.984375 36.375 
Q 56.984375 17.96875 50.515625 8.265625 
Q 44.046875 -1.421875 31.78125 -1.421875 
Q 19.53125 -1.421875 13.0625 8.265625 
Q 6.59375 17.96875 6.59375 36.375 
Q 6.59375 54.828125 13.0625 64.515625 
Q 19.53125 74.21875 31.78125 74.21875 
z
" id="DejaVuSans-48"/>
     <path d="M 10.6875 12.40625 
L 21 12.40625 
L 21 0 
L 10.6875 0 
z
" id="DejaVuSans-46"/>
     <path d="M 31.78125 34.625 
Q 24.75 34.625 20.71875 30.859375 
Q 16.703125 27.09375 16.703125 20.515625 
Q 16.703125 13.921875 20.71875 10.15625 
Q 24.75 6.390625 31.78125 6.390625 
Q 38.8125 6.390625 42.859375 10.171875 
Q 46.921875 13.96875 46.921875 20.515625 
Q 46.921875 27.09375 42.890625 30.859375 
Q 38.875 34.625 31.78125 34.625 
z
M 21.921875 38.8125 
Q 15.578125 40.375 12.03125 44.71875 
Q 8.5 49.078125 8.5 55.328125 
Q 8.5 64.0625 14.71875 69.140625 
Q 20.953125 74.21875 31.78125 74.21875 
Q 42.671875 74.21875 48.875 69.140625 
Q 55.078125 64.0625 55.078125 55.328125 
Q 55.078125 49.078125 51.53125 44.71875 
Q 48 40.375 41.703125 38.8125 
Q 48.828125 37.15625 52.796875 32.3125 
Q 56.78125 27.484375 56.78125 20.515625 
Q 56.78125 9.90625 50.3125 4.234375 
Q 43.84375 -1.421875 31.78125 -1.421875 
Q 19.734375 -1.421875 13.25 4.234375 
Q 6.78125 9.90625 6.78125 20.515625 
Q 6.78125 27.484375 10.78125 32.3125 
Q 14.796875 37.15625 21.921875 38.8125 
z
M 18.3125 54.390625 
Q 18.3125 48.734375 21.84375 45.5625 
Q 25.390625 42.390625 31.78125 42.390625 
Q 38.140625 42.390625 41.71875 45.5625 
Q 45.3125 48.734375 45.3125 54.390625 
Q 45.3125 60.0625 41.71875 63.234375 
Q 38.140625 66.40625 31.78125 66.40625 
Q 25.390625 66.40625 21.84375 63.234375 
Q 18.3125 60.0625 18.3125 54.390625 
z
" id="DejaVuSans-56"/>
    </defs>
    <g transform="translate(200.664375 28.56)scale(0.12 -0.12)">
     <use xlink:href="#DejaVuSans-116"/>
     <use x="39.208984" xlink:href="#DejaVuSans-32"/>
     <use x="70.996094" xlink:href="#DejaVuSans-61"/>
     <use x="154.785156" xlink:href="#DejaVuSans-32"/>
     <use x="186.572266" xlink:href="#DejaVuSans-48"/>
     <use x="250.195312" xlink:href="#DejaVuSans-46"/>
     <use x="281.982422" xlink:href="#DejaVuSans-56"/>
    </g>
   </g>
  </g>
 </g>
 <defs>
  <clipPath id="pc7c262c5e2">
   <rect height="217.44" width="334.8" x="54" y="34.56"/>
  </clipPath>
 </defs>
</svg>
