<?xml version="1.0" encoding="utf-8" standalone="no"?>
<!DOCTYPE svg PUBLIC "-//W3C//DTD SVG 1.1//EN"
  "http://www.w3.org/Graphics/SVG/1.1/DTD/svg11.dtd">
<!-- Created with matplotlib (https://matplotlib.org/) -->
<svg height="288pt" version="1.1" viewBox="0 0 432 288" width="432pt" xmlns="http://www.w3.org/2000/svg" xmlns:xlink="http://www.w3.org/1999/xlink">
 <defs>
  <style type="text/css">
*{stroke-linecap:butt;stroke-linejoin:round;}
  </style>
 </defs>
 <g id="figure_1">
  <g id="patch_1">
   <path d="M 0 288 
L 432 288 
L 432 0 
L 0 0 
z
" style="fill:#ffffff;"/>
  </g>
  <g id="axes_1">
   <g id="patch_2">
    <path clip-path="url(#p1e54e787e3)" d="M 196.223498 132.49365 
L 196.139792 143.365327 
L 195.052624 143.356957 
L 195.13633 132.485279 
z
" style="stroke:#000000;stroke-linejoin:miter;"/>
   </g>
   <g id="patch_3">
    <path clip-path="url(#p1e54e787e3)" d="M 250.581887 132.912182 
L 250.49818 143.78386 
L 249.411013 143.775489 
L 249.494719 132.903811 
z
" style="stroke:#000000;stroke-linejoin:miter;"/>
   </g>
   <g id="patch_4">
    <path clip-path="url(#p1e54e787e3)" d="M 213.799377 132.628975 
L 213.654863 132.076299 
L 213.214993 131.557428 
L 212.486795 131.106132 
L 211.482057 130.751655 
L 210.217148 130.516804 
L 208.712751 130.416463 
L 206.993536 130.456627 
L 205.087752 130.634021 
L 203.026764 130.936323 
L 200.844534 131.342983 
L 198.577054 131.826579 
L 196.261744 132.354626 
L 193.936828 132.891711 
L 191.640691 133.401829 
L 189.411233 133.850748 
L 187.285238 134.208265 
L 185.297756 134.450193 
L 183.481519 134.559959 
L 181.866396 134.529699 
L 180.478899 134.360782 
L 179.341753 134.063733 
L 178.473521 133.657554 
L 177.888307 133.168483 
L 177.595539 132.628288 
L 177.599821 132.072192 
L 177.900872 131.53657 
L 178.493547 131.056568 
L 179.367931 130.663805 
L 180.509516 130.384302 
L 181.899449 130.23677 
L 183.514847 130.231383 
L 185.329179 130.369103 
L 187.3127 130.641605 
L 189.432937 131.031816 
L 191.655218 131.515011 
L 193.943229 132.060425 
L 196.259599 132.633246 
L 198.566503 133.196881 
L 200.826268 133.715335 
L 203.001978 134.155549 
L 205.058066 134.48955 
L 206.960893 134.696268 
L 208.679286 134.7629 
L 210.185049 134.685736 
L 211.453425 134.47039 
L 212.463501 134.131426 
L 213.198562 133.691397 
L 213.64637 133.17936 
z
" style="fill:#0000ff;stroke:#000000;stroke-linejoin:miter;"/>
   </g>
   <g id="patch_5">
    <path clip-path="url(#p1e54e787e3)" d="M 268.157766 133.047507 
L 268.013252 132.494832 
L 267.573382 131.97596 
L 266.845183 131.524664 
L 265.840446 131.170187 
L 264.575537 130.935337 
L 263.07114 130.834995 
L 261.351925 130.87516 
L 259.446141 131.052553 
L 257.385153 131.354855 
L 255.202923 131.761515 
L 252.935443 132.245111 
L 250.620133 132.773158 
L 248.295217 133.310243 
L 245.999079 133.820361 
L 243.769622 134.26928 
L 241.643627 134.626797 
L 239.656145 134.868725 
L 237.839908 134.978491 
L 236.224785 134.948231 
L 234.837288 134.779314 
L 233.700142 134.482266 
L 232.831909 134.076086 
L 232.246696 133.587015 
L 231.953928 133.04682 
L 231.958209 132.490724 
L 232.259261 131.955102 
L 232.851936 131.4751 
L 233.72632 131.082338 
L 234.867905 130.802834 
L 236.257838 130.655302 
L 237.873236 130.649915 
L 239.687568 130.787635 
L 241.671088 131.060138 
L 243.791326 131.450348 
L 246.013607 131.933544 
L 248.301618 132.478957 
L 250.617988 133.051778 
L 252.924892 133.615413 
L 255.184657 134.133867 
L 257.360367 134.574081 
L 259.416455 134.908082 
L 261.319282 135.1148 
L 263.037675 135.181432 
L 264.543438 135.104268 
L 265.811814 134.888922 
L 266.82189 134.549959 
L 267.556951 134.109929 
L 268.004759 133.597892 
z
" style="fill:#0000ff;stroke:#000000;stroke-linejoin:miter;"/>
   </g>
   <g id="patch_6">
    <path clip-path="url(#p1e54e787e3)" d="M 255.411362 141.103608 
L 190.181296 140.601369 
L 190.139442 146.037208 
L 255.369509 146.539447 
z
" style="fill:#999999;stroke:#000000;stroke-linejoin:miter;"/>
   </g>
   <g id="text_1">
    <!-- t = 2.0 -->
    <defs>
     <path d="M 18.3125 70.21875 
L 18.3125 54.6875 
L 36.8125 54.6875 
L 36.8125 47.703125 
L 18.3125 47.703125 
L 18.3125 18.015625 
Q 18.3125 11.328125 20.140625 9.421875 
Q 21.96875 7.515625 27.59375 7.515625 
L 36.8125 7.515625 
L 36.8125 0 
L 27.59375 0 
Q 17.1875 0 13.234375 3.875 
Q 9.28125 7.765625 9.28125 18.015625 
L 9.28125 47.703125 
L 2.6875 47.703125 
L 2.6875 54.6875 
L 9.28125 54.6875 
L 9.28125 70.21875 
z
" id="DejaVuSans-116"/>
     <path id="DejaVuSans-32"/>
     <path d="M 10.59375 45.40625 
L 73.1875 45.40625 
L 73.1875 37.203125 
L 10.59375 37.203125 
z
M 10.59375 25.484375 
L 73.1875 25.484375 
L 73.1875 17.1875 
L 10.59375 17.1875 
z
" id="DejaVuSans-61"/>
     <path d="M 19.1875 8.296875 
L 53.609375 8.296875 
L 53.609375 0 
L 7.328125 0 
L 7.328125 8.296875 
Q 12.9375 14.109375 22.625 23.890625 
Q 32.328125 33.6875 34.8125 36.53125 
Q 39.546875 41.84375 41.421875 45.53125 
Q 43.3125 49.21875 43.3125 52.78125 
Q 43.3125 58.59375 39.234375 62.25 
Q 35.15625 65.921875 28.609375 65.921875 
Q 23.96875 65.921875 18.8125 64.3125 
Q 13.671875 62.703125 7.8125 59.421875 
L 7.8125 69.390625 
Q 13.765625 71.78125 18.9375 73 
Q 24.125 74.21875 28.421875 74.21875 
Q 39.75 74.21875 46.484375 68.546875 
Q 53.21875 62.890625 53.21875 53.421875 
Q 53.21875 48.921875 51.53125 44.890625 
Q 49.859375 40.875 45.40625 35.40625 
Q 44.1875 33.984375 37.640625 27.21875 
Q 31.109375 20.453125 19.1875 8.296875 
z
" id="DejaVuSans-50"/>
     <path d="M 10.6875 12.40625 
L 21 12.40625 
L 21 0 
L 10.6875 0 
z
" id="DejaVuSans-46"/>
     <path d="M 31.78125 66.40625 
Q 24.171875 66.40625 20.328125 58.90625 
Q 16.5 51.421875 16.5 36.375 
Q 16.5 21.390625 20.328125 13.890625 
Q 24.171875 6.390625 31.78125 6.390625 
Q 39.453125 6.390625 43.28125 13.890625 
Q 47.125 21.390625 47.125 36.375 
Q 47.125 51.421875 43.28125 58.90625 
Q 39.453125 66.40625 31.78125 66.40625 
z
M 31.78125 74.21875 
Q 44.046875 74.21875 50.515625 64.515625 
Q 56.984375 54.828125 56.984375 36.375 
Q 56.984375 17.96875 50.515625 8.265625 
Q 44.046875 -1.421875 31.78125 -1.421875 
Q 19.53125 -1.421875 13.0625 8.265625 
Q 6.59375 17.96875 6.59375 36.375 
Q 6.59375 54.828125 13.0625 64.515625 
Q 19.53125 74.21875 31.78125 74.21875 
z
" id="DejaVuSans-48"/>
    </defs>
    <g transform="translate(200.664375 28.56)scale(0.12 -0.12)">
     <use xlink:href="#DejaVuSans-116"/>
     <use x="39.208984" xlink:href="#DejaVuSans-32"/>
     <use x="70.996094" xlink:href="#DejaVuSans-61"/>
     <use x="154.785156" xlink:href="#DejaVuSans-32"/>
     <use x="186.572266" xlink:href="#DejaVuSans-50"/>
     <use x="250.195312" xlink:href="#DejaVuSans-46"/>
     <use x="281.982422" xlink:href="#DejaVuSans-48"/>
    </g>
   </g>
  </g>
 </g>
 <defs>
  <clipPath id="p1e54e787e3">
   <rect height="217.44" width="334.8" x="54" y="34.56"/>
  </clipPath>
 </defs>
</svg>
