<?xml version="1.0" encoding="utf-8" standalone="no"?>
<!DOCTYPE svg PUBLIC "-//W3C//DTD SVG 1.1//EN"
  "http://www.w3.org/Graphics/SVG/1.1/DTD/svg11.dtd">
<!-- Created with matplotlib (https://matplotlib.org/) -->
<svg height="288pt" version="1.1" viewBox="0 0 432 288" width="432pt" xmlns="http://www.w3.org/2000/svg" xmlns:xlink="http://www.w3.org/1999/xlink">
 <defs>
  <style type="text/css">
*{stroke-linecap:butt;stroke-linejoin:round;}
  </style>
 </defs>
 <g id="figure_1">
  <g id="patch_1">
   <path d="M 0 288 
L 432 288 
L 432 0 
L 0 0 
z
" style="fill:#ffffff;"/>
  </g>
  <g id="axes_1">
   <g id="patch_2">
    <path clip-path="url(#p93c1bdc50c)" d="M 86.896341 151.676614 
L 89.486555 162.235552 
L 88.430661 162.494573 
L 85.840447 151.935635 
z
" style="stroke:#000000;stroke-linejoin:miter;"/>
   </g>
   <g id="patch_3">
    <path clip-path="url(#p93c1bdc50c)" d="M 139.691032 138.725544 
L 142.281246 149.284483 
L 141.225352 149.543504 
L 138.635138 138.984566 
z
" style="stroke:#000000;stroke-linejoin:miter;"/>
   </g>
   <g id="patch_4">
    <path clip-path="url(#p93c1bdc50c)" d="M 103.966624 147.489101 
L 103.690739 146.988879 
L 103.136859 146.593999 
L 102.320095 146.335469 
L 101.259061 146.238741 
L 99.975224 146.3219 
L 98.492295 146.594291 
L 96.835657 147.055664 
L 95.031889 147.695902 
L 93.108369 148.495355 
L 91.092965 149.425758 
L 89.01383 150.451686 
L 86.899254 151.532454 
L 84.777587 152.624344 
L 82.67719 153.683023 
L 80.62639 154.665994 
L 78.653423 155.534942 
L 76.78632 156.257811 
L 75.052737 156.810492 
L 73.479695 157.178022 
L 72.093231 157.355215 
L 70.917958 157.34669 
L 69.976539 157.166302 
L 69.289094 156.836022 
L 68.872567 156.384327 
L 68.740075 155.844228 
L 68.900285 155.251054 
L 69.356845 154.640137 
L 70.107914 154.044566 
L 71.145821 153.493125 
L 72.45689 153.008586 
L 74.021439 152.606433 
L 75.813986 152.294119 
L 77.803654 152.070883 
L 79.95477 151.928152 
L 82.227649 151.850482 
L 84.57953 151.816971 
L 86.965636 151.80306 
L 89.340309 151.782569 
L 91.658186 151.729866 
L 93.87536 151.621975 
L 95.950482 151.440521 
L 97.845765 151.173345 
L 99.527848 150.815696 
L 100.968486 150.370906 
L 102.145062 149.850501 
L 103.040882 149.273737 
L 103.645284 148.666581 
L 103.953547 148.060209 
z
" style="fill:#0000ff;stroke:#000000;stroke-linejoin:miter;"/>
   </g>
   <g id="patch_5">
    <path clip-path="url(#p93c1bdc50c)" d="M 156.761315 134.538032 
L 156.48543 134.03781 
L 155.93155 133.64293 
L 155.114786 133.3844 
L 154.053752 133.287672 
L 152.769916 133.370831 
L 151.286986 133.643222 
L 149.630348 134.104595 
L 147.82658 134.744833 
L 145.90306 135.544286 
L 143.887657 136.474689 
L 141.808521 137.500617 
L 139.693945 138.581385 
L 137.572278 139.673275 
L 135.471881 140.731953 
L 133.421081 141.714925 
L 131.448114 142.583873 
L 129.581011 143.306742 
L 127.847428 143.859423 
L 126.274386 144.226953 
L 124.887922 144.404146 
L 123.712649 144.395621 
L 122.77123 144.215233 
L 122.083785 143.884953 
L 121.667258 143.433258 
L 121.534766 142.893159 
L 121.694976 142.299984 
L 122.151536 141.689068 
L 122.902605 141.093496 
L 123.940513 140.542056 
L 125.251581 140.057517 
L 126.81613 139.655364 
L 128.608677 139.34305 
L 130.598345 139.119814 
L 132.749461 138.977083 
L 135.02234 138.899413 
L 137.374221 138.865902 
L 139.760327 138.85199 
L 142.135 138.8315 
L 144.452877 138.778797 
L 146.670051 138.670906 
L 148.745173 138.489452 
L 150.640456 138.222276 
L 152.322539 137.864627 
L 153.763177 137.419837 
L 154.939753 136.899432 
L 155.835573 136.322668 
L 156.439975 135.715512 
L 156.748238 135.109139 
z
" style="fill:#0000ff;stroke:#000000;stroke-linejoin:miter;"/>
   </g>
   <g id="patch_6">
    <path clip-path="url(#p93c1bdc50c)" d="M 146.385214 145.479152 
L 83.031585 161.020435 
L 84.326692 166.299904 
L 147.680321 150.758621 
z
" style="fill:#999999;stroke:#000000;stroke-linejoin:miter;"/>
   </g>
   <g id="text_1">
    <!-- t = 0.6 -->
    <defs>
     <path d="M 18.3125 70.21875 
L 18.3125 54.6875 
L 36.8125 54.6875 
L 36.8125 47.703125 
L 18.3125 47.703125 
L 18.3125 18.015625 
Q 18.3125 11.328125 20.140625 9.421875 
Q 21.96875 7.515625 27.59375 7.515625 
L 36.8125 7.515625 
L 36.8125 0 
L 27.59375 0 
Q 17.1875 0 13.234375 3.875 
Q 9.28125 7.765625 9.28125 18.015625 
L 9.28125 47.703125 
L 2.6875 47.703125 
L 2.6875 54.6875 
L 9.28125 54.6875 
L 9.28125 70.21875 
z
" id="DejaVuSans-116"/>
     <path id="DejaVuSans-32"/>
     <path d="M 10.59375 45.40625 
L 73.1875 45.40625 
L 73.1875 37.203125 
L 10.59375 37.203125 
z
M 10.59375 25.484375 
L 73.1875 25.484375 
L 73.1875 17.1875 
L 10.59375 17.1875 
z
" id="DejaVuSans-61"/>
     <path d="M 31.78125 66.40625 
Q 24.171875 66.40625 20.328125 58.90625 
Q 16.5 51.421875 16.5 36.375 
Q 16.5 21.390625 20.328125 13.890625 
Q 24.171875 6.390625 31.78125 6.390625 
Q 39.453125 6.390625 43.28125 13.890625 
Q 47.125 21.390625 47.125 36.375 
Q 47.125 51.421875 43.28125 58.90625 
Q 39.453125 66.40625 31.78125 66.40625 
z
M 31.78125 74.21875 
Q 44.046875 74.21875 50.515625 64.515625 
Q 56.984375 54.828125 56.984375 36.375 
Q 56.984375 17.96875 50.515625 8.265625 
Q 44.046875 -1.421875 31.78125 -1.421875 
Q 19.53125 -1.421875 13.0625 8.265625 
Q 6.59375 17.96875 6.59375 36.375 
Q 6.59375 54.828125 13.0625 64.515625 
Q 19.53125 74.21875 31.78125 74.21875 
z
" id="DejaVuSans-48"/>
     <path d="M 10.6875 12.40625 
L 21 12.40625 
L 21 0 
L 10.6875 0 
z
" id="DejaVuSans-46"/>
     <path d="M 33.015625 40.375 
Q 26.375 40.375 22.484375 35.828125 
Q 18.609375 31.296875 18.609375 23.390625 
Q 18.609375 15.53125 22.484375 10.953125 
Q 26.375 6.390625 33.015625 6.390625 
Q 39.65625 6.390625 43.53125 10.953125 
Q 47.40625 15.53125 47.40625 23.390625 
Q 47.40625 31.296875 43.53125 35.828125 
Q 39.65625 40.375 33.015625 40.375 
z
M 52.59375 71.296875 
L 52.59375 62.3125 
Q 48.875 64.0625 45.09375 64.984375 
Q 41.3125 65.921875 37.59375 65.921875 
Q 27.828125 65.921875 22.671875 59.328125 
Q 17.53125 52.734375 16.796875 39.40625 
Q 19.671875 43.65625 24.015625 45.921875 
Q 28.375 48.1875 33.59375 48.1875 
Q 44.578125 48.1875 50.953125 41.515625 
Q 57.328125 34.859375 57.328125 23.390625 
Q 57.328125 12.15625 50.6875 5.359375 
Q 44.046875 -1.421875 33.015625 -1.421875 
Q 20.359375 -1.421875 13.671875 8.265625 
Q 6.984375 17.96875 6.984375 36.375 
Q 6.984375 53.65625 15.1875 63.9375 
Q 23.390625 74.21875 37.203125 74.21875 
Q 40.921875 74.21875 44.703125 73.484375 
Q 48.484375 72.75 52.59375 71.296875 
z
" id="DejaVuSans-54"/>
    </defs>
    <g transform="translate(200.664375 28.56)scale(0.12 -0.12)">
     <use xlink:href="#DejaVuSans-116"/>
     <use x="39.208984" xlink:href="#DejaVuSans-32"/>
     <use x="70.996094" xlink:href="#DejaVuSans-61"/>
     <use x="154.785156" xlink:href="#DejaVuSans-32"/>
     <use x="186.572266" xlink:href="#DejaVuSans-48"/>
     <use x="250.195312" xlink:href="#DejaVuSans-46"/>
     <use x="281.982422" xlink:href="#DejaVuSans-54"/>
    </g>
   </g>
  </g>
 </g>
 <defs>
  <clipPath id="p93c1bdc50c">
   <rect height="217.44" width="334.8" x="54" y="34.56"/>
  </clipPath>
 </defs>
</svg>
