<?xml version="1.0" encoding="utf-8" standalone="no"?>
<!DOCTYPE svg PUBLIC "-//W3C//DTD SVG 1.1//EN"
  "http://www.w3.org/Graphics/SVG/1.1/DTD/svg11.dtd">
<!-- Created with matplotlib (https://matplotlib.org/) -->
<svg height="288pt" version="1.1" viewBox="0 0 432 288" width="432pt" xmlns="http://www.w3.org/2000/svg" xmlns:xlink="http://www.w3.org/1999/xlink">
 <defs>
  <style type="text/css">
*{stroke-linecap:butt;stroke-linejoin:round;}
  </style>
 </defs>
 <g id="figure_1">
  <g id="patch_1">
   <path d="M 0 288 
L 432 288 
L 432 0 
L 0 0 
z
" style="fill:#ffffff;"/>
  </g>
  <g id="axes_1">
   <g id="patch_2">
    <path clip-path="url(#pb6efd9e740)" d="M 194.692979 132.423216 
L 194.698814 143.295215 
L 193.611614 143.295798 
L 193.605779 132.4238 
z
" style="stroke:#000000;stroke-linejoin:miter;"/>
   </g>
   <g id="patch_3">
    <path clip-path="url(#pb6efd9e740)" d="M 249.052971 132.394039 
L 249.058806 143.266038 
L 247.971606 143.266621 
L 247.965771 132.394623 
z
" style="stroke:#000000;stroke-linejoin:miter;"/>
   </g>
   <g id="patch_4">
    <path clip-path="url(#pb6efd9e740)" d="M 212.269376 132.413782 
L 212.120315 131.862316 
L 211.676186 131.347084 
L 210.944296 130.901801 
L 209.936673 130.555612 
L 208.669872 130.331187 
L 207.1647 130.243239 
L 205.445874 130.297561 
L 203.541616 130.490645 
L 201.483188 130.809911 
L 199.304381 131.23453 
L 197.040961 131.736785 
L 194.730078 132.283882 
L 192.409665 132.840097 
L 190.117806 133.369109 
L 187.892121 133.836375 
L 185.769143 134.211389 
L 183.783721 134.469678 
L 181.96845 134.594399 
L 180.353132 134.577441 
L 178.964292 134.419958 
L 177.824738 134.132285 
L 176.953189 133.73327 
L 176.363967 133.249035 
L 176.06676 132.71127 
L 176.066461 132.155158 
L 176.363091 131.617074 
L 176.951793 131.132207 
L 177.822913 130.732257 
L 178.962157 130.443361 
L 180.350828 130.284386 
L 181.966127 130.265695 
L 183.781531 130.388467 
L 185.767229 130.644624 
L 187.890608 131.017359 
L 190.116793 131.482236 
L 192.409219 132.008787 
L 194.730228 132.562511 
L 197.041696 133.107127 
L 199.305654 133.606952 
L 201.484916 134.029232 
L 203.543685 134.346288 
L 205.44815 134.537327 
L 207.167033 134.589804 
L 208.67211 134.500241 
L 209.938669 134.274456 
L 210.94592 133.927185 
L 211.677332 133.481117 
L 212.120907 132.965409 
z
" style="fill:#0000ff;stroke:#000000;stroke-linejoin:miter;"/>
   </g>
   <g id="patch_5">
    <path clip-path="url(#pb6efd9e740)" d="M 266.629368 132.384605 
L 266.480307 131.833139 
L 266.036178 131.317907 
L 265.304288 130.872624 
L 264.296665 130.526435 
L 263.029865 130.30201 
L 261.524693 130.214062 
L 259.805867 130.268384 
L 257.901608 130.461468 
L 255.84318 130.780734 
L 253.664373 131.205353 
L 251.400953 131.707608 
L 249.09007 132.254705 
L 246.769657 132.81092 
L 244.477798 133.339932 
L 242.252113 133.807198 
L 240.129135 134.182212 
L 238.143714 134.440501 
L 236.328442 134.565222 
L 234.713124 134.548264 
L 233.324284 134.390781 
L 232.18473 134.103108 
L 231.313181 133.704093 
L 230.723959 133.219858 
L 230.426752 132.682093 
L 230.426454 132.125981 
L 230.723083 131.587897 
L 231.311785 131.10303 
L 232.182905 130.703079 
L 233.322149 130.414183 
L 234.71082 130.255209 
L 236.326119 130.236518 
L 238.141523 130.35929 
L 240.127221 130.615447 
L 242.2506 130.988182 
L 244.476786 131.453059 
L 246.769211 131.97961 
L 249.09022 132.533334 
L 251.401688 133.07795 
L 253.665647 133.577775 
L 255.844908 134.000054 
L 257.903677 134.317111 
L 259.808142 134.50815 
L 261.527026 134.560627 
L 263.032102 134.471064 
L 264.298661 134.245279 
L 265.305912 133.898008 
L 266.037324 133.451939 
L 266.480899 132.936232 
z
" style="fill:#0000ff;stroke:#000000;stroke-linejoin:miter;"/>
   </g>
   <g id="patch_6">
    <path clip-path="url(#pb6efd9e740)" d="M 253.949747 140.545412 
L 188.717756 140.580425 
L 188.720674 146.016424 
L 253.952664 145.981411 
z
" style="fill:#999999;stroke:#000000;stroke-linejoin:miter;"/>
   </g>
   <g id="text_1">
    <!-- t = 3.2 -->
    <defs>
     <path d="M 18.3125 70.21875 
L 18.3125 54.6875 
L 36.8125 54.6875 
L 36.8125 47.703125 
L 18.3125 47.703125 
L 18.3125 18.015625 
Q 18.3125 11.328125 20.140625 9.421875 
Q 21.96875 7.515625 27.59375 7.515625 
L 36.8125 7.515625 
L 36.8125 0 
L 27.59375 0 
Q 17.1875 0 13.234375 3.875 
Q 9.28125 7.765625 9.28125 18.015625 
L 9.28125 47.703125 
L 2.6875 47.703125 
L 2.6875 54.6875 
L 9.28125 54.6875 
L 9.28125 70.21875 
z
" id="DejaVuSans-116"/>
     <path id="DejaVuSans-32"/>
     <path d="M 10.59375 45.40625 
L 73.1875 45.40625 
L 73.1875 37.203125 
L 10.59375 37.203125 
z
M 10.59375 25.484375 
L 73.1875 25.484375 
L 73.1875 17.1875 
L 10.59375 17.1875 
z
" id="DejaVuSans-61"/>
     <path d="M 40.578125 39.3125 
Q 47.65625 37.796875 51.625 33 
Q 55.609375 28.21875 55.609375 21.1875 
Q 55.609375 10.40625 48.1875 4.484375 
Q 40.765625 -1.421875 27.09375 -1.421875 
Q 22.515625 -1.421875 17.65625 -0.515625 
Q 12.796875 0.390625 7.625 2.203125 
L 7.625 11.71875 
Q 11.71875 9.328125 16.59375 8.109375 
Q 21.484375 6.890625 26.8125 6.890625 
Q 36.078125 6.890625 40.9375 10.546875 
Q 45.796875 14.203125 45.796875 21.1875 
Q 45.796875 27.640625 41.28125 31.265625 
Q 36.765625 34.90625 28.71875 34.90625 
L 20.21875 34.90625 
L 20.21875 43.015625 
L 29.109375 43.015625 
Q 36.375 43.015625 40.234375 45.921875 
Q 44.09375 48.828125 44.09375 54.296875 
Q 44.09375 59.90625 40.109375 62.90625 
Q 36.140625 65.921875 28.71875 65.921875 
Q 24.65625 65.921875 20.015625 65.03125 
Q 15.375 64.15625 9.8125 62.3125 
L 9.8125 71.09375 
Q 15.4375 72.65625 20.34375 73.4375 
Q 25.25 74.21875 29.59375 74.21875 
Q 40.828125 74.21875 47.359375 69.109375 
Q 53.90625 64.015625 53.90625 55.328125 
Q 53.90625 49.265625 50.4375 45.09375 
Q 46.96875 40.921875 40.578125 39.3125 
z
" id="DejaVuSans-51"/>
     <path d="M 10.6875 12.40625 
L 21 12.40625 
L 21 0 
L 10.6875 0 
z
" id="DejaVuSans-46"/>
     <path d="M 19.1875 8.296875 
L 53.609375 8.296875 
L 53.609375 0 
L 7.328125 0 
L 7.328125 8.296875 
Q 12.9375 14.109375 22.625 23.890625 
Q 32.328125 33.6875 34.8125 36.53125 
Q 39.546875 41.84375 41.421875 45.53125 
Q 43.3125 49.21875 43.3125 52.78125 
Q 43.3125 58.59375 39.234375 62.25 
Q 35.15625 65.921875 28.609375 65.921875 
Q 23.96875 65.921875 18.8125 64.3125 
Q 13.671875 62.703125 7.8125 59.421875 
L 7.8125 69.390625 
Q 13.765625 71.78125 18.9375 73 
Q 24.125 74.21875 28.421875 74.21875 
Q 39.75 74.21875 46.484375 68.546875 
Q 53.21875 62.890625 53.21875 53.421875 
Q 53.21875 48.921875 51.53125 44.890625 
Q 49.859375 40.875 45.40625 35.40625 
Q 44.1875 33.984375 37.640625 27.21875 
Q 31.109375 20.453125 19.1875 8.296875 
z
" id="DejaVuSans-50"/>
    </defs>
    <g transform="translate(200.664375 28.56)scale(0.12 -0.12)">
     <use xlink:href="#DejaVuSans-116"/>
     <use x="39.208984" xlink:href="#DejaVuSans-32"/>
     <use x="70.996094" xlink:href="#DejaVuSans-61"/>
     <use x="154.785156" xlink:href="#DejaVuSans-32"/>
     <use x="186.572266" xlink:href="#DejaVuSans-51"/>
     <use x="250.195312" xlink:href="#DejaVuSans-46"/>
     <use x="281.982422" xlink:href="#DejaVuSans-50"/>
    </g>
   </g>
  </g>
 </g>
 <defs>
  <clipPath id="pb6efd9e740">
   <rect height="217.44" width="334.8" x="54" y="34.56"/>
  </clipPath>
 </defs>
</svg>
