<?xml version="1.0" encoding="utf-8" standalone="no"?>
<!DOCTYPE svg PUBLIC "-//W3C//DTD SVG 1.1//EN"
  "http://www.w3.org/Graphics/SVG/1.1/DTD/svg11.dtd">
<!-- Created with matplotlib (https://matplotlib.org/) -->
<svg height="288pt" version="1.1" viewBox="0 0 432 288" width="432pt" xmlns="http://www.w3.org/2000/svg" xmlns:xlink="http://www.w3.org/1999/xlink">
 <defs>
  <style type="text/css">
*{stroke-linecap:butt;stroke-linejoin:round;}
  </style>
 </defs>
 <g id="figure_1">
  <g id="patch_1">
   <path d="M 0 288 
L 432 288 
L 432 0 
L 0 0 
z
" style="fill:#ffffff;"/>
  </g>
  <g id="axes_1">
   <g id="patch_2">
    <path clip-path="url(#p7ebea7e318)" d="M 194.744385 132.415433 
L 194.747304 143.287433 
L 193.660104 143.287725 
L 193.657185 132.415725 
z
" style="stroke:#000000;stroke-linejoin:miter;"/>
   </g>
   <g id="patch_3">
    <path clip-path="url(#p7ebea7e318)" d="M 249.104383 132.400841 
L 249.107302 143.272841 
L 248.020102 143.273132 
L 248.017183 132.401133 
z
" style="stroke:#000000;stroke-linejoin:miter;"/>
   </g>
   <g id="patch_4">
    <path clip-path="url(#p7ebea7e318)" d="M 212.320785 132.410715 
L 212.171872 131.859209 
L 211.727881 131.343858 
L 210.99611 130.898379 
L 209.98858 130.551919 
L 208.72184 130.327154 
L 207.216692 130.238802 
L 205.497851 130.292663 
L 203.593541 130.485236 
L 201.535027 130.80395 
L 199.356107 131.227984 
L 197.092551 131.729632 
L 194.781522 132.276109 
L 192.46096 132.831702 
L 190.168959 133.360099 
L 187.943149 133.826767 
L 185.82007 134.201212 
L 183.83458 134.458968 
L 182.019275 134.583202 
L 180.403961 134.565811 
L 179.015163 134.407955 
L 177.875686 134.119976 
L 177.004245 133.720727 
L 176.415153 133.236334 
L 176.11809 132.69849 
L 176.117941 132.142377 
L 176.414715 131.604373 
L 177.003547 131.119664 
L 177.874774 130.719948 
L 179.014096 130.431357 
L 180.402809 130.272755 
L 182.018113 130.254497 
L 183.833484 130.377757 
L 185.819113 130.634447 
L 187.942392 131.007752 
L 190.168453 131.473225 
L 192.460737 132.000391 
L 194.781597 132.554738 
L 197.092919 133.099974 
L 199.356743 133.600406 
L 201.535891 134.023271 
L 203.594576 134.340879 
L 205.498989 134.53243 
L 207.217858 134.585368 
L 208.722959 134.496208 
L 209.989579 134.270763 
L 210.996922 133.923763 
L 211.728454 133.47789 
L 212.172168 132.962302 
z
" style="fill:#0000ff;stroke:#000000;stroke-linejoin:miter;"/>
   </g>
   <g id="patch_5">
    <path clip-path="url(#p7ebea7e318)" d="M 266.680783 132.396123 
L 266.53187 131.844616 
L 266.087879 131.329266 
L 265.356108 130.883786 
L 264.348579 130.537326 
L 263.081838 130.312561 
L 261.57669 130.22421 
L 259.857849 130.278071 
L 257.953539 130.470644 
L 255.895025 130.789357 
L 253.716105 131.213392 
L 251.452549 131.715039 
L 249.14152 132.261517 
L 246.820958 132.817109 
L 244.528957 133.345506 
L 242.303147 133.812175 
L 240.180069 134.186619 
L 238.194578 134.444375 
L 236.379273 134.568609 
L 234.763959 134.551219 
L 233.375161 134.393362 
L 232.235684 134.105384 
L 231.364243 133.706135 
L 230.775151 133.221742 
L 230.478088 132.683897 
L 230.477939 132.127785 
L 230.774713 131.589781 
L 231.363545 131.105072 
L 232.234772 130.705355 
L 233.374094 130.416765 
L 234.762807 130.258163 
L 236.378111 130.239905 
L 238.193482 130.363164 
L 240.179111 130.619854 
L 242.30239 130.993159 
L 244.528451 131.458632 
L 246.820735 131.985799 
L 249.141595 132.540145 
L 251.452917 133.085382 
L 253.716741 133.585814 
L 255.895889 134.008678 
L 257.954574 134.326287 
L 259.858987 134.517837 
L 261.577856 134.570775 
L 263.082957 134.481616 
L 264.349577 134.256171 
L 265.35692 133.90917 
L 266.088452 133.463298 
L 266.532166 132.947709 
z
" style="fill:#0000ff;stroke:#000000;stroke-linejoin:miter;"/>
   </g>
   <g id="patch_6">
    <path clip-path="url(#p7ebea7e318)" d="M 253.998972 140.553527 
L 188.766974 140.571038 
L 188.768434 146.007038 
L 254.000431 145.989527 
z
" style="fill:#999999;stroke:#000000;stroke-linejoin:miter;"/>
   </g>
   <g id="text_1">
    <!-- t = 3.5 -->
    <defs>
     <path d="M 18.3125 70.21875 
L 18.3125 54.6875 
L 36.8125 54.6875 
L 36.8125 47.703125 
L 18.3125 47.703125 
L 18.3125 18.015625 
Q 18.3125 11.328125 20.140625 9.421875 
Q 21.96875 7.515625 27.59375 7.515625 
L 36.8125 7.515625 
L 36.8125 0 
L 27.59375 0 
Q 17.1875 0 13.234375 3.875 
Q 9.28125 7.765625 9.28125 18.015625 
L 9.28125 47.703125 
L 2.6875 47.703125 
L 2.6875 54.6875 
L 9.28125 54.6875 
L 9.28125 70.21875 
z
" id="DejaVuSans-116"/>
     <path id="DejaVuSans-32"/>
     <path d="M 10.59375 45.40625 
L 73.1875 45.40625 
L 73.1875 37.203125 
L 10.59375 37.203125 
z
M 10.59375 25.484375 
L 73.1875 25.484375 
L 73.1875 17.1875 
L 10.59375 17.1875 
z
" id="DejaVuSans-61"/>
     <path d="M 40.578125 39.3125 
Q 47.65625 37.796875 51.625 33 
Q 55.609375 28.21875 55.609375 21.1875 
Q 55.609375 10.40625 48.1875 4.484375 
Q 40.765625 -1.421875 27.09375 -1.421875 
Q 22.515625 -1.421875 17.65625 -0.515625 
Q 12.796875 0.390625 7.625 2.203125 
L 7.625 11.71875 
Q 11.71875 9.328125 16.59375 8.109375 
Q 21.484375 6.890625 26.8125 6.890625 
Q 36.078125 6.890625 40.9375 10.546875 
Q 45.796875 14.203125 45.796875 21.1875 
Q 45.796875 27.640625 41.28125 31.265625 
Q 36.765625 34.90625 28.71875 34.90625 
L 20.21875 34.90625 
L 20.21875 43.015625 
L 29.109375 43.015625 
Q 36.375 43.015625 40.234375 45.921875 
Q 44.09375 48.828125 44.09375 54.296875 
Q 44.09375 59.90625 40.109375 62.90625 
Q 36.140625 65.921875 28.71875 65.921875 
Q 24.65625 65.921875 20.015625 65.03125 
Q 15.375 64.15625 9.8125 62.3125 
L 9.8125 71.09375 
Q 15.4375 72.65625 20.34375 73.4375 
Q 25.25 74.21875 29.59375 74.21875 
Q 40.828125 74.21875 47.359375 69.109375 
Q 53.90625 64.015625 53.90625 55.328125 
Q 53.90625 49.265625 50.4375 45.09375 
Q 46.96875 40.921875 40.578125 39.3125 
z
" id="DejaVuSans-51"/>
     <path d="M 10.6875 12.40625 
L 21 12.40625 
L 21 0 
L 10.6875 0 
z
" id="DejaVuSans-46"/>
     <path d="M 10.796875 72.90625 
L 49.515625 72.90625 
L 49.515625 64.59375 
L 19.828125 64.59375 
L 19.828125 46.734375 
Q 21.96875 47.46875 24.109375 47.828125 
Q 26.265625 48.1875 28.421875 48.1875 
Q 40.625 48.1875 47.75 41.5 
Q 54.890625 34.8125 54.890625 23.390625 
Q 54.890625 11.625 47.5625 5.09375 
Q 40.234375 -1.421875 26.90625 -1.421875 
Q 22.3125 -1.421875 17.546875 -0.640625 
Q 12.796875 0.140625 7.71875 1.703125 
L 7.71875 11.625 
Q 12.109375 9.234375 16.796875 8.0625 
Q 21.484375 6.890625 26.703125 6.890625 
Q 35.15625 6.890625 40.078125 11.328125 
Q 45.015625 15.765625 45.015625 23.390625 
Q 45.015625 31 40.078125 35.4375 
Q 35.15625 39.890625 26.703125 39.890625 
Q 22.75 39.890625 18.8125 39.015625 
Q 14.890625 38.140625 10.796875 36.28125 
z
" id="DejaVuSans-53"/>
    </defs>
    <g transform="translate(200.664375 28.56)scale(0.12 -0.12)">
     <use xlink:href="#DejaVuSans-116"/>
     <use x="39.208984" xlink:href="#DejaVuSans-32"/>
     <use x="70.996094" xlink:href="#DejaVuSans-61"/>
     <use x="154.785156" xlink:href="#DejaVuSans-32"/>
     <use x="186.572266" xlink:href="#DejaVuSans-51"/>
     <use x="250.195312" xlink:href="#DejaVuSans-46"/>
     <use x="281.982422" xlink:href="#DejaVuSans-53"/>
    </g>
   </g>
  </g>
 </g>
 <defs>
  <clipPath id="p7ebea7e318">
   <rect height="217.44" width="334.8" x="54" y="34.56"/>
  </clipPath>
 </defs>
</svg>
