<?xml version="1.0" encoding="utf-8" standalone="no"?>
<!DOCTYPE svg PUBLIC "-//W3C//DTD SVG 1.1//EN"
  "http://www.w3.org/Graphics/SVG/1.1/DTD/svg11.dtd">
<!-- Created with matplotlib (https://matplotlib.org/) -->
<svg height="288pt" version="1.1" viewBox="0 0 432 288" width="432pt" xmlns="http://www.w3.org/2000/svg" xmlns:xlink="http://www.w3.org/1999/xlink">
 <defs>
  <style type="text/css">
*{stroke-linecap:butt;stroke-linejoin:round;}
  </style>
 </defs>
 <g id="figure_1">
  <g id="patch_1">
   <path d="M 0 288 
L 432 288 
L 432 0 
L 0 0 
z
" style="fill:#ffffff;"/>
  </g>
  <g id="axes_1">
   <g id="patch_2">
    <path clip-path="url(#pb259288a99)" d="M 194.628002 132.317601 
L 194.606814 143.189581 
L 193.519616 143.187462 
L 193.540804 132.315482 
z
" style="stroke:#000000;stroke-linejoin:miter;"/>
   </g>
   <g id="patch_3">
    <path clip-path="url(#pb259288a99)" d="M 248.987899 132.423542 
L 248.966711 143.295521 
L 247.879513 143.293403 
L 247.900701 132.421423 
z
" style="stroke:#000000;stroke-linejoin:miter;"/>
   </g>
   <g id="patch_4">
    <path clip-path="url(#pb259288a99)" d="M 212.204369 132.351855 
L 212.056679 131.80002 
L 211.613832 131.283686 
L 210.883051 130.836585 
L 209.876292 130.487892 
L 208.610053 130.260319 
L 207.105104 130.168631 
L 205.386148 130.21868 
L 203.481416 130.40703 
L 201.4222 130.721179 
L 199.242345 131.140381 
L 196.977683 131.637008 
L 194.665448 132.17836 
L 192.343659 132.728805 
L 190.050493 133.252119 
L 187.823653 133.713851 
L 185.69975 134.083587 
L 183.713692 134.33694 
L 181.898116 134.457149 
L 180.282845 134.436176 
L 178.894401 134.275241 
L 177.755565 133.984736 
L 176.885011 133.583556 
L 176.296995 133.097858 
L 176.001125 132.559356 
L 176.002209 132.003245 
L 176.300175 131.4659 
L 176.89008 130.982498 
L 177.762191 130.584714 
L 178.90215 130.298651 
L 180.291212 130.143128 
L 181.906552 130.128452 
L 183.721646 130.255736 
L 185.706701 130.516829 
L 187.829147 130.894841 
L 190.05417 131.365249 
L 192.345279 131.897496 
L 194.664905 132.456988 
L 196.975012 133.007348 
L 199.237721 133.512798 
L 201.415926 133.940494 
L 203.473902 134.262666 
L 205.377885 134.458439 
L 207.096633 134.515188 
L 208.601928 134.429366 
L 209.869044 134.20673 
L 210.877155 133.861964 
L 211.609673 133.417715 
L 212.054529 132.903111 
z
" style="fill:#0000ff;stroke:#000000;stroke-linejoin:miter;"/>
   </g>
   <g id="patch_5">
    <path clip-path="url(#pb259288a99)" d="M 266.564265 132.457796 
L 266.416576 131.905961 
L 265.973729 131.389627 
L 265.242948 130.942526 
L 264.236189 130.593833 
L 262.96995 130.36626 
L 261.465001 130.274571 
L 259.746045 130.324621 
L 257.841312 130.512971 
L 255.782097 130.827119 
L 253.602242 131.246321 
L 251.33758 131.742949 
L 249.025345 132.2843 
L 246.703556 132.834746 
L 244.41039 133.35806 
L 242.18355 133.819792 
L 240.059646 134.189528 
L 238.073589 134.442881 
L 236.258013 134.563089 
L 234.642742 134.542117 
L 233.254297 134.381182 
L 232.115462 134.090677 
L 231.244908 133.689497 
L 230.656891 133.203799 
L 230.361022 132.665297 
L 230.362106 132.109186 
L 230.660072 131.571841 
L 231.249977 131.088439 
L 232.122088 130.690655 
L 233.262047 130.404592 
L 234.651109 130.249069 
L 236.266449 130.234393 
L 238.081543 130.361677 
L 240.066598 130.62277 
L 242.189044 131.000781 
L 244.414067 131.47119 
L 246.705176 132.003437 
L 249.024802 132.562928 
L 251.334909 133.113289 
L 253.597618 133.618739 
L 255.775823 134.046434 
L 257.833798 134.368607 
L 259.737782 134.564379 
L 261.45653 134.621129 
L 262.961825 134.535307 
L 264.228941 134.312671 
L 265.237052 133.967905 
L 265.96957 133.523655 
L 266.414426 133.009052 
z
" style="fill:#0000ff;stroke:#000000;stroke-linejoin:miter;"/>
   </g>
   <g id="patch_6">
    <path clip-path="url(#pb259288a99)" d="M 253.864398 140.587061 
L 188.632522 140.459932 
L 188.621928 145.895922 
L 253.853804 146.023051 
z
" style="fill:#999999;stroke:#000000;stroke-linejoin:miter;"/>
   </g>
   <g id="text_1">
    <!-- t = 2.1 -->
    <defs>
     <path d="M 18.3125 70.21875 
L 18.3125 54.6875 
L 36.8125 54.6875 
L 36.8125 47.703125 
L 18.3125 47.703125 
L 18.3125 18.015625 
Q 18.3125 11.328125 20.140625 9.421875 
Q 21.96875 7.515625 27.59375 7.515625 
L 36.8125 7.515625 
L 36.8125 0 
L 27.59375 0 
Q 17.1875 0 13.234375 3.875 
Q 9.28125 7.765625 9.28125 18.015625 
L 9.28125 47.703125 
L 2.6875 47.703125 
L 2.6875 54.6875 
L 9.28125 54.6875 
L 9.28125 70.21875 
z
" id="DejaVuSans-116"/>
     <path id="DejaVuSans-32"/>
     <path d="M 10.59375 45.40625 
L 73.1875 45.40625 
L 73.1875 37.203125 
L 10.59375 37.203125 
z
M 10.59375 25.484375 
L 73.1875 25.484375 
L 73.1875 17.1875 
L 10.59375 17.1875 
z
" id="DejaVuSans-61"/>
     <path d="M 19.1875 8.296875 
L 53.609375 8.296875 
L 53.609375 0 
L 7.328125 0 
L 7.328125 8.296875 
Q 12.9375 14.109375 22.625 23.890625 
Q 32.328125 33.6875 34.8125 36.53125 
Q 39.546875 41.84375 41.421875 45.53125 
Q 43.3125 49.21875 43.3125 52.78125 
Q 43.3125 58.59375 39.234375 62.25 
Q 35.15625 65.921875 28.609375 65.921875 
Q 23.96875 65.921875 18.8125 64.3125 
Q 13.671875 62.703125 7.8125 59.421875 
L 7.8125 69.390625 
Q 13.765625 71.78125 18.9375 73 
Q 24.125 74.21875 28.421875 74.21875 
Q 39.75 74.21875 46.484375 68.546875 
Q 53.21875 62.890625 53.21875 53.421875 
Q 53.21875 48.921875 51.53125 44.890625 
Q 49.859375 40.875 45.40625 35.40625 
Q 44.1875 33.984375 37.640625 27.21875 
Q 31.109375 20.453125 19.1875 8.296875 
z
" id="DejaVuSans-50"/>
     <path d="M 10.6875 12.40625 
L 21 12.40625 
L 21 0 
L 10.6875 0 
z
" id="DejaVuSans-46"/>
     <path d="M 12.40625 8.296875 
L 28.515625 8.296875 
L 28.515625 63.921875 
L 10.984375 60.40625 
L 10.984375 69.390625 
L 28.421875 72.90625 
L 38.28125 72.90625 
L 38.28125 8.296875 
L 54.390625 8.296875 
L 54.390625 0 
L 12.40625 0 
z
" id="DejaVuSans-49"/>
    </defs>
    <g transform="translate(200.664375 28.56)scale(0.12 -0.12)">
     <use xlink:href="#DejaVuSans-116"/>
     <use x="39.208984" xlink:href="#DejaVuSans-32"/>
     <use x="70.996094" xlink:href="#DejaVuSans-61"/>
     <use x="154.785156" xlink:href="#DejaVuSans-32"/>
     <use x="186.572266" xlink:href="#DejaVuSans-50"/>
     <use x="250.195312" xlink:href="#DejaVuSans-46"/>
     <use x="281.982422" xlink:href="#DejaVuSans-49"/>
    </g>
   </g>
  </g>
 </g>
 <defs>
  <clipPath id="pb259288a99">
   <rect height="217.44" width="334.8" x="54" y="34.56"/>
  </clipPath>
 </defs>
</svg>
