<?xml version="1.0" encoding="utf-8" standalone="no"?>
<!DOCTYPE svg PUBLIC "-//W3C//DTD SVG 1.1//EN"
  "http://www.w3.org/Graphics/SVG/1.1/DTD/svg11.dtd">
<!-- Created with matplotlib (https://matplotlib.org/) -->
<svg height="288pt" version="1.1" viewBox="0 0 432 288" width="432pt" xmlns="http://www.w3.org/2000/svg" xmlns:xlink="http://www.w3.org/1999/xlink">
 <defs>
  <style type="text/css">
*{stroke-linecap:butt;stroke-linejoin:round;}
  </style>
 </defs>
 <g id="figure_1">
  <g id="patch_1">
   <path d="M 0 288 
L 432 288 
L 432 0 
L 0 0 
z
" style="fill:#ffffff;"/>
  </g>
  <g id="axes_1">
   <g id="patch_2">
    <path clip-path="url(#pe4eca2eb0f)" d="M 194.761894 132.402109 
L 194.758372 143.274108 
L 193.671172 143.273756 
L 193.674694 132.401756 
z
" style="stroke:#000000;stroke-linejoin:miter;"/>
   </g>
   <g id="patch_3">
    <path clip-path="url(#pe4eca2eb0f)" d="M 249.121891 132.419721 
L 249.118369 143.29172 
L 248.031169 143.291368 
L 248.034691 132.419369 
z
" style="stroke:#000000;stroke-linejoin:miter;"/>
   </g>
   <g id="patch_4">
    <path clip-path="url(#pe4eca2eb0f)" d="M 212.338293 132.407803 
L 212.189707 131.856209 
L 211.746022 131.340595 
L 211.014515 130.894682 
L 210.007191 130.547625 
L 208.740583 130.32211 
L 207.235488 130.232867 
L 205.516615 130.28571 
L 203.612191 130.477154 
L 201.553489 130.794649 
L 199.374318 131.217392 
L 197.110466 131.717698 
L 194.799114 132.262806 
L 192.478222 132.817024 
L 190.185909 133.344063 
L 187.959823 133.809413 
L 185.836523 134.1826 
L 183.85088 134.439179 
L 182.035501 134.562338 
L 180.420199 134.54399 
L 179.031494 134.385311 
L 177.892188 134.096658 
L 177.020983 133.696892 
L 176.432179 133.212151 
L 176.135434 132.67413 
L 176.135615 132.118018 
L 176.432707 131.58019 
L 177.021826 131.095829 
L 177.89329 130.696629 
L 179.032783 130.408714 
L 180.421589 130.250934 
L 182.036904 130.233633 
L 183.852202 130.357968 
L 185.837678 130.615835 
L 187.960736 130.990397 
L 190.186521 131.457189 
L 192.478492 131.985714 
L 194.799023 132.541435 
L 197.110022 133.088041 
L 199.373549 133.589814 
L 201.552446 134.013969 
L 203.610942 134.332797 
L 205.515242 134.525476 
L 207.234079 134.579432 
L 208.739233 134.491165 
L 210.005986 134.26647 
L 211.013535 133.920066 
L 211.74533 133.474627 
L 212.189349 132.959302 
z
" style="fill:#0000ff;stroke:#000000;stroke-linejoin:miter;"/>
   </g>
   <g id="patch_5">
    <path clip-path="url(#pe4eca2eb0f)" d="M 266.69829 132.425415 
L 266.549704 131.873821 
L 266.106019 131.358207 
L 265.374512 130.912294 
L 264.367188 130.565238 
L 263.100581 130.339722 
L 261.595485 130.250479 
L 259.876613 130.303322 
L 257.972189 130.494767 
L 255.913486 130.812261 
L 253.734315 131.235004 
L 251.470463 131.73531 
L 249.159111 132.280419 
L 246.838219 132.834636 
L 244.545906 133.361675 
L 242.31982 133.827025 
L 240.19652 134.200212 
L 238.210877 134.456792 
L 236.395498 134.57995 
L 234.780196 134.561602 
L 233.391491 134.402923 
L 232.252185 134.11427 
L 231.380981 133.714505 
L 230.792176 133.229763 
L 230.495431 132.691742 
L 230.495612 132.13563 
L 230.792705 131.597802 
L 231.381823 131.113442 
L 232.253287 130.714241 
L 233.39278 130.426326 
L 234.781587 130.268546 
L 236.396901 130.251246 
L 238.212199 130.37558 
L 240.197676 130.633447 
L 242.320733 131.008009 
L 244.546518 131.474802 
L 246.838489 132.003326 
L 249.159021 132.559047 
L 251.470019 133.105653 
L 253.733546 133.607426 
L 255.912443 134.031581 
L 257.970939 134.350409 
L 259.875239 134.543088 
L 261.594077 134.597045 
L 263.09923 134.508777 
L 264.365983 134.284082 
L 265.373532 133.937678 
L 266.105327 133.49224 
L 266.549347 132.976914 
z
" style="fill:#0000ff;stroke:#000000;stroke-linejoin:miter;"/>
   </g>
   <g id="patch_6">
    <path clip-path="url(#pe4eca2eb0f)" d="M 254.011649 140.575305 
L 188.779652 140.554171 
L 188.777891 145.990171 
L 254.009888 146.011305 
z
" style="fill:#999999;stroke:#000000;stroke-linejoin:miter;"/>
   </g>
   <g id="text_1">
    <!-- t = 3.4 -->
    <defs>
     <path d="M 18.3125 70.21875 
L 18.3125 54.6875 
L 36.8125 54.6875 
L 36.8125 47.703125 
L 18.3125 47.703125 
L 18.3125 18.015625 
Q 18.3125 11.328125 20.140625 9.421875 
Q 21.96875 7.515625 27.59375 7.515625 
L 36.8125 7.515625 
L 36.8125 0 
L 27.59375 0 
Q 17.1875 0 13.234375 3.875 
Q 9.28125 7.765625 9.28125 18.015625 
L 9.28125 47.703125 
L 2.6875 47.703125 
L 2.6875 54.6875 
L 9.28125 54.6875 
L 9.28125 70.21875 
z
" id="DejaVuSans-116"/>
     <path id="DejaVuSans-32"/>
     <path d="M 10.59375 45.40625 
L 73.1875 45.40625 
L 73.1875 37.203125 
L 10.59375 37.203125 
z
M 10.59375 25.484375 
L 73.1875 25.484375 
L 73.1875 17.1875 
L 10.59375 17.1875 
z
" id="DejaVuSans-61"/>
     <path d="M 40.578125 39.3125 
Q 47.65625 37.796875 51.625 33 
Q 55.609375 28.21875 55.609375 21.1875 
Q 55.609375 10.40625 48.1875 4.484375 
Q 40.765625 -1.421875 27.09375 -1.421875 
Q 22.515625 -1.421875 17.65625 -0.515625 
Q 12.796875 0.390625 7.625 2.203125 
L 7.625 11.71875 
Q 11.71875 9.328125 16.59375 8.109375 
Q 21.484375 6.890625 26.8125 6.890625 
Q 36.078125 6.890625 40.9375 10.546875 
Q 45.796875 14.203125 45.796875 21.1875 
Q 45.796875 27.640625 41.28125 31.265625 
Q 36.765625 34.90625 28.71875 34.90625 
L 20.21875 34.90625 
L 20.21875 43.015625 
L 29.109375 43.015625 
Q 36.375 43.015625 40.234375 45.921875 
Q 44.09375 48.828125 44.09375 54.296875 
Q 44.09375 59.90625 40.109375 62.90625 
Q 36.140625 65.921875 28.71875 65.921875 
Q 24.65625 65.921875 20.015625 65.03125 
Q 15.375 64.15625 9.8125 62.3125 
L 9.8125 71.09375 
Q 15.4375 72.65625 20.34375 73.4375 
Q 25.25 74.21875 29.59375 74.21875 
Q 40.828125 74.21875 47.359375 69.109375 
Q 53.90625 64.015625 53.90625 55.328125 
Q 53.90625 49.265625 50.4375 45.09375 
Q 46.96875 40.921875 40.578125 39.3125 
z
" id="DejaVuSans-51"/>
     <path d="M 10.6875 12.40625 
L 21 12.40625 
L 21 0 
L 10.6875 0 
z
" id="DejaVuSans-46"/>
     <path d="M 37.796875 64.3125 
L 12.890625 25.390625 
L 37.796875 25.390625 
z
M 35.203125 72.90625 
L 47.609375 72.90625 
L 47.609375 25.390625 
L 58.015625 25.390625 
L 58.015625 17.1875 
L 47.609375 17.1875 
L 47.609375 0 
L 37.796875 0 
L 37.796875 17.1875 
L 4.890625 17.1875 
L 4.890625 26.703125 
z
" id="DejaVuSans-52"/>
    </defs>
    <g transform="translate(200.664375 28.56)scale(0.12 -0.12)">
     <use xlink:href="#DejaVuSans-116"/>
     <use x="39.208984" xlink:href="#DejaVuSans-32"/>
     <use x="70.996094" xlink:href="#DejaVuSans-61"/>
     <use x="154.785156" xlink:href="#DejaVuSans-32"/>
     <use x="186.572266" xlink:href="#DejaVuSans-51"/>
     <use x="250.195312" xlink:href="#DejaVuSans-46"/>
     <use x="281.982422" xlink:href="#DejaVuSans-52"/>
    </g>
   </g>
  </g>
 </g>
 <defs>
  <clipPath id="pe4eca2eb0f">
   <rect height="217.44" width="334.8" x="54" y="34.56"/>
  </clipPath>
 </defs>
</svg>
