<?xml version="1.0" encoding="utf-8" standalone="no"?>
<!DOCTYPE svg PUBLIC "-//W3C//DTD SVG 1.1//EN"
  "http://www.w3.org/Graphics/SVG/1.1/DTD/svg11.dtd">
<!-- Created with matplotlib (https://matplotlib.org/) -->
<svg height="288pt" version="1.1" viewBox="0 0 432 288" width="432pt" xmlns="http://www.w3.org/2000/svg" xmlns:xlink="http://www.w3.org/1999/xlink">
 <defs>
  <style type="text/css">
*{stroke-linecap:butt;stroke-linejoin:round;}
  </style>
 </defs>
 <g id="figure_1">
  <g id="patch_1">
   <path d="M 0 288 
L 432 288 
L 432 0 
L 0 0 
z
" style="fill:#ffffff;"/>
  </g>
  <g id="axes_1">
   <g id="patch_2">
    <path clip-path="url(#p37b08839cf)" d="M 388.538768 53.038283 
L 396.701582 60.219429 
L 395.983468 61.03571 
L 387.820654 53.854564 
z
" style="stroke:#000000;stroke-linejoin:miter;"/>
   </g>
   <g id="patch_3">
    <path clip-path="url(#p37b08839cf)" d="M 424.444496 12.224213 
L 432.60731 19.405359 
L 431.889196 20.22164 
L 423.726382 13.040495 
z
" style="stroke:#000000;stroke-linejoin:miter;"/>
   </g>
   <g id="patch_4">
    <path clip-path="url(#p37b08839cf)" d="M 400.148287 39.841734 
L 399.635918 39.589122 
L 398.955726 39.581894 
L 398.137839 39.836849 
L 397.212081 40.364222 
L 396.206405 41.166573 
L 395.145606 42.238012 
L 394.050365 43.563818 
L 392.936703 45.120494 
L 391.815841 46.876263 
L 390.694481 48.792001 
L 389.57546 50.822549 
L 388.458724 52.918352 
L 387.34253 55.027335 
L 386.224795 57.096908 
L 385.104457 59.076013 
L 383.982769 60.917069 
L 382.864398 62.577749 
L 381.758245 64.022461 
L 380.677923 65.223479 
L 379.641826 66.161658 
L 378.672785 66.826715 
L 377.797318 67.217057 
L 377.044492 67.339201 
L 376.444493 67.206822 
L 376.026958 66.8395 
L 375.819199 66.261262 
L 375.844412 65.499009 
L 376.120008 64.580937 
L 376.656154 63.535046 
L 377.454651 62.387841 
L 378.508208 61.163276 
L 379.800181 59.882038 
L 381.304803 58.561158 
L 382.987909 57.214004 
L 384.80811 55.850595 
L 386.718374 54.47824 
L 388.667921 53.102391 
L 390.604328 51.727684 
L 392.475721 50.359027 
L 394.232941 49.002681 
L 395.831561 47.667213 
L 397.233627 46.364258 
L 398.409054 45.108995 
L 399.336576 43.920306 
L 400.004229 42.820584 
L 400.40933 41.835168 
L 400.55798 40.99146 
L 400.464132 40.317734 
z
" style="fill:#0000ff;stroke:#000000;stroke-linejoin:miter;"/>
   </g>
   <g id="patch_5">
    <path clip-path="url(#p37b08839cf)" d="M 436.054015 -0.972336 
L 435.541646 -1.224948 
L 434.861454 -1.232176 
L 434.043567 -0.977221 
L 433.117809 -0.449848 
L 432.112133 0.352503 
L 431.051334 1.423942 
L 429.956093 2.749749 
L 428.842431 4.306424 
L 427.721569 6.062193 
L 426.600209 7.977931 
L 425.481188 10.008479 
L 424.364452 12.104283 
L 423.248259 14.213265 
L 422.130523 16.282839 
L 421.010185 18.261943 
L 419.888497 20.102999 
L 418.770126 21.763679 
L 417.663974 23.208391 
L 416.583651 24.409409 
L 415.547554 25.347589 
L 414.578514 26.012645 
L 413.703046 26.402987 
L 412.950221 26.525131 
L 412.350221 26.392752 
L 411.932686 26.025431 
L 411.724927 25.447192 
L 411.75014 24.684939 
L 412.025736 23.766867 
L 412.561882 22.720977 
L 413.360379 21.573771 
L 414.413936 20.349207 
L 415.705909 19.067968 
L 417.210532 17.747089 
L 418.893637 16.399934 
L 420.713838 15.036526 
L 422.624102 13.66417 
L 424.573649 12.288322 
L 426.510056 10.913614 
L 428.381449 9.544957 
L 430.138669 8.188611 
L 431.737289 6.853143 
L 433.139355 5.550188 
L 434.314782 4.294925 
L 435.242304 3.106237 
L 435.909957 2.006514 
L 436.315058 1.021098 
L 436.463708 0.17739 
L 436.36986 -0.496336 
z
" style="fill:#0000ff;stroke:#000000;stroke-linejoin:miter;"/>
   </g>
   <g id="patch_6">
    <path clip-path="url(#p37b08839cf)" d="M 433.798122 13.936806 
L 390.711249 62.91369 
L 394.792656 66.504263 
L 437.879529 17.527379 
z
" style="fill:#999999;stroke:#000000;stroke-linejoin:miter;"/>
   </g>
   <g id="text_1">
    <!-- t = 0.1 -->
    <defs>
     <path d="M 18.3125 70.21875 
L 18.3125 54.6875 
L 36.8125 54.6875 
L 36.8125 47.703125 
L 18.3125 47.703125 
L 18.3125 18.015625 
Q 18.3125 11.328125 20.140625 9.421875 
Q 21.96875 7.515625 27.59375 7.515625 
L 36.8125 7.515625 
L 36.8125 0 
L 27.59375 0 
Q 17.1875 0 13.234375 3.875 
Q 9.28125 7.765625 9.28125 18.015625 
L 9.28125 47.703125 
L 2.6875 47.703125 
L 2.6875 54.6875 
L 9.28125 54.6875 
L 9.28125 70.21875 
z
" id="DejaVuSans-116"/>
     <path id="DejaVuSans-32"/>
     <path d="M 10.59375 45.40625 
L 73.1875 45.40625 
L 73.1875 37.203125 
L 10.59375 37.203125 
z
M 10.59375 25.484375 
L 73.1875 25.484375 
L 73.1875 17.1875 
L 10.59375 17.1875 
z
" id="DejaVuSans-61"/>
     <path d="M 31.78125 66.40625 
Q 24.171875 66.40625 20.328125 58.90625 
Q 16.5 51.421875 16.5 36.375 
Q 16.5 21.390625 20.328125 13.890625 
Q 24.171875 6.390625 31.78125 6.390625 
Q 39.453125 6.390625 43.28125 13.890625 
Q 47.125 21.390625 47.125 36.375 
Q 47.125 51.421875 43.28125 58.90625 
Q 39.453125 66.40625 31.78125 66.40625 
z
M 31.78125 74.21875 
Q 44.046875 74.21875 50.515625 64.515625 
Q 56.984375 54.828125 56.984375 36.375 
Q 56.984375 17.96875 50.515625 8.265625 
Q 44.046875 -1.421875 31.78125 -1.421875 
Q 19.53125 -1.421875 13.0625 8.265625 
Q 6.59375 17.96875 6.59375 36.375 
Q 6.59375 54.828125 13.0625 64.515625 
Q 19.53125 74.21875 31.78125 74.21875 
z
" id="DejaVuSans-48"/>
     <path d="M 10.6875 12.40625 
L 21 12.40625 
L 21 0 
L 10.6875 0 
z
" id="DejaVuSans-46"/>
     <path d="M 12.40625 8.296875 
L 28.515625 8.296875 
L 28.515625 63.921875 
L 10.984375 60.40625 
L 10.984375 69.390625 
L 28.421875 72.90625 
L 38.28125 72.90625 
L 38.28125 8.296875 
L 54.390625 8.296875 
L 54.390625 0 
L 12.40625 0 
z
" id="DejaVuSans-49"/>
    </defs>
    <g transform="translate(200.664375 28.56)scale(0.12 -0.12)">
     <use xlink:href="#DejaVuSans-116"/>
     <use x="39.208984" xlink:href="#DejaVuSans-32"/>
     <use x="70.996094" xlink:href="#DejaVuSans-61"/>
     <use x="154.785156" xlink:href="#DejaVuSans-32"/>
     <use x="186.572266" xlink:href="#DejaVuSans-48"/>
     <use x="250.195312" xlink:href="#DejaVuSans-46"/>
     <use x="281.982422" xlink:href="#DejaVuSans-49"/>
    </g>
   </g>
  </g>
 </g>
 <defs>
  <clipPath id="p37b08839cf">
   <rect height="217.44" width="334.8" x="54" y="34.56"/>
  </clipPath>
 </defs>
</svg>
