<?xml version="1.0" encoding="utf-8" standalone="no"?>
<!DOCTYPE svg PUBLIC "-//W3C//DTD SVG 1.1//EN"
  "http://www.w3.org/Graphics/SVG/1.1/DTD/svg11.dtd">
<!-- Created with matplotlib (https://matplotlib.org/) -->
<svg height="288pt" version="1.1" viewBox="0 0 432 288" width="432pt" xmlns="http://www.w3.org/2000/svg" xmlns:xlink="http://www.w3.org/1999/xlink">
 <defs>
  <style type="text/css">
*{stroke-linecap:butt;stroke-linejoin:round;}
  </style>
 </defs>
 <g id="figure_1">
  <g id="patch_1">
   <path d="M 0 288 
L 432 288 
L 432 0 
L 0 0 
z
" style="fill:#ffffff;"/>
  </g>
  <g id="axes_1">
   <g id="patch_2">
    <path clip-path="url(#p25f463bdcc)" d="M 194.804169 132.047618 
L 194.643441 142.91843 
L 193.55636 142.902357 
L 193.717088 132.031546 
z
" style="stroke:#000000;stroke-linejoin:miter;"/>
   </g>
   <g id="patch_3">
    <path clip-path="url(#p25f463bdcc)" d="M 249.158229 132.851262 
L 248.9975 143.722074 
L 247.910419 143.706001 
L 248.071147 132.835189 
z
" style="stroke:#000000;stroke-linejoin:miter;"/>
   </g>
   <g id="patch_4">
    <path clip-path="url(#p25f463bdcc)" d="M 212.378649 132.307463 
L 212.238054 131.753778 
L 211.801871 131.231802 
L 211.076888 130.775359 
L 210.074688 130.413773 
L 208.811474 130.169966 
L 207.307826 130.058969 
L 205.588369 130.086952 
L 203.681376 130.250839 
L 201.618298 130.538531 
L 199.433242 130.92972 
L 197.162392 131.397239 
L 194.8434 131.908869 
L 192.514737 132.429469 
L 190.215043 132.923307 
L 187.98246 133.356419 
L 185.853986 133.698864 
L 183.86484 133.926705 
L 182.047871 134.023601 
L 180.433002 133.981898 
L 179.046738 133.803155 
L 177.911725 133.498058 
L 177.046391 133.085737 
L 176.464657 132.592532 
L 176.175724 132.050277 
L 176.183945 131.494225 
L 176.488784 130.960749 
L 177.084845 130.484958 
L 177.96199 130.098401 
L 179.105526 129.826992 
L 180.49647 129.689311 
L 182.111865 129.695369 
L 183.925176 129.84594 
L 185.906716 130.132489 
L 188.024136 130.537711 
L 190.242938 131.036639 
L 192.527027 131.598249 
L 194.83928 132.187467 
L 197.142133 132.767432 
L 199.398169 133.301883 
L 201.570705 133.7575 
L 203.624375 134.10606 
L 205.52569 134.326255 
L 207.243567 134.40506 
L 208.74984 134.338565 
L 210.019709 134.132211 
L 211.032162 133.800412 
L 211.770322 133.365602 
L 212.221746 132.85675 
z
" style="fill:#0000ff;stroke:#000000;stroke-linejoin:miter;"/>
   </g>
   <g id="patch_5">
    <path clip-path="url(#p25f463bdcc)" d="M 266.732708 133.111107 
L 266.592113 132.557421 
L 266.15593 132.035446 
L 265.430947 131.579002 
L 264.428747 131.217416 
L 263.165533 130.97361 
L 261.661885 130.862613 
L 259.942428 130.890595 
L 258.035435 131.054482 
L 255.972357 131.342175 
L 253.787301 131.733364 
L 251.516452 132.200883 
L 249.197459 132.712512 
L 246.868796 133.233113 
L 244.569102 133.72695 
L 242.336519 134.160063 
L 240.208045 134.502508 
L 238.218899 134.730349 
L 236.40193 134.827245 
L 234.787061 134.785542 
L 233.400797 134.606799 
L 232.265784 134.301702 
L 231.400451 133.889381 
L 230.818717 133.396176 
L 230.529783 132.85392 
L 230.538004 132.297869 
L 230.842843 131.764393 
L 231.438904 131.288602 
L 232.316049 130.902044 
L 233.459586 130.630636 
L 234.850529 130.492955 
L 236.465924 130.499013 
L 238.279235 130.649584 
L 240.260775 130.936133 
L 242.378195 131.341355 
L 244.596997 131.840283 
L 246.881086 132.401893 
L 249.19334 132.991111 
L 251.496193 133.571076 
L 253.752228 134.105527 
L 255.924764 134.561144 
L 257.978434 134.909704 
L 259.879749 135.129898 
L 261.597627 135.208703 
L 263.103899 135.142209 
L 264.373768 134.935855 
L 265.386221 134.604056 
L 266.124381 134.169245 
L 266.575805 133.660394 
z
" style="fill:#0000ff;stroke:#000000;stroke-linejoin:miter;"/>
   </g>
   <g id="patch_6">
    <path clip-path="url(#p25f463bdcc)" d="M 253.929547 141.076699 
L 188.704676 140.112327 
L 188.624312 145.547732 
L 253.849183 146.512105 
z
" style="fill:#999999;stroke:#000000;stroke-linejoin:miter;"/>
   </g>
   <g id="text_1">
    <!-- t = 2.0 -->
    <defs>
     <path d="M 18.3125 70.21875 
L 18.3125 54.6875 
L 36.8125 54.6875 
L 36.8125 47.703125 
L 18.3125 47.703125 
L 18.3125 18.015625 
Q 18.3125 11.328125 20.140625 9.421875 
Q 21.96875 7.515625 27.59375 7.515625 
L 36.8125 7.515625 
L 36.8125 0 
L 27.59375 0 
Q 17.1875 0 13.234375 3.875 
Q 9.28125 7.765625 9.28125 18.015625 
L 9.28125 47.703125 
L 2.6875 47.703125 
L 2.6875 54.6875 
L 9.28125 54.6875 
L 9.28125 70.21875 
z
" id="DejaVuSans-116"/>
     <path id="DejaVuSans-32"/>
     <path d="M 10.59375 45.40625 
L 73.1875 45.40625 
L 73.1875 37.203125 
L 10.59375 37.203125 
z
M 10.59375 25.484375 
L 73.1875 25.484375 
L 73.1875 17.1875 
L 10.59375 17.1875 
z
" id="DejaVuSans-61"/>
     <path d="M 19.1875 8.296875 
L 53.609375 8.296875 
L 53.609375 0 
L 7.328125 0 
L 7.328125 8.296875 
Q 12.9375 14.109375 22.625 23.890625 
Q 32.328125 33.6875 34.8125 36.53125 
Q 39.546875 41.84375 41.421875 45.53125 
Q 43.3125 49.21875 43.3125 52.78125 
Q 43.3125 58.59375 39.234375 62.25 
Q 35.15625 65.921875 28.609375 65.921875 
Q 23.96875 65.921875 18.8125 64.3125 
Q 13.671875 62.703125 7.8125 59.421875 
L 7.8125 69.390625 
Q 13.765625 71.78125 18.9375 73 
Q 24.125 74.21875 28.421875 74.21875 
Q 39.75 74.21875 46.484375 68.546875 
Q 53.21875 62.890625 53.21875 53.421875 
Q 53.21875 48.921875 51.53125 44.890625 
Q 49.859375 40.875 45.40625 35.40625 
Q 44.1875 33.984375 37.640625 27.21875 
Q 31.109375 20.453125 19.1875 8.296875 
z
" id="DejaVuSans-50"/>
     <path d="M 10.6875 12.40625 
L 21 12.40625 
L 21 0 
L 10.6875 0 
z
" id="DejaVuSans-46"/>
     <path d="M 31.78125 66.40625 
Q 24.171875 66.40625 20.328125 58.90625 
Q 16.5 51.421875 16.5 36.375 
Q 16.5 21.390625 20.328125 13.890625 
Q 24.171875 6.390625 31.78125 6.390625 
Q 39.453125 6.390625 43.28125 13.890625 
Q 47.125 21.390625 47.125 36.375 
Q 47.125 51.421875 43.28125 58.90625 
Q 39.453125 66.40625 31.78125 66.40625 
z
M 31.78125 74.21875 
Q 44.046875 74.21875 50.515625 64.515625 
Q 56.984375 54.828125 56.984375 36.375 
Q 56.984375 17.96875 50.515625 8.265625 
Q 44.046875 -1.421875 31.78125 -1.421875 
Q 19.53125 -1.421875 13.0625 8.265625 
Q 6.59375 17.96875 6.59375 36.375 
Q 6.59375 54.828125 13.0625 64.515625 
Q 19.53125 74.21875 31.78125 74.21875 
z
" id="DejaVuSans-48"/>
    </defs>
    <g transform="translate(200.664375 28.56)scale(0.12 -0.12)">
     <use xlink:href="#DejaVuSans-116"/>
     <use x="39.208984" xlink:href="#DejaVuSans-32"/>
     <use x="70.996094" xlink:href="#DejaVuSans-61"/>
     <use x="154.785156" xlink:href="#DejaVuSans-32"/>
     <use x="186.572266" xlink:href="#DejaVuSans-50"/>
     <use x="250.195312" xlink:href="#DejaVuSans-46"/>
     <use x="281.982422" xlink:href="#DejaVuSans-48"/>
    </g>
   </g>
  </g>
 </g>
 <defs>
  <clipPath id="p25f463bdcc">
   <rect height="217.44" width="334.8" x="54" y="34.56"/>
  </clipPath>
 </defs>
</svg>
