<?xml version="1.0" encoding="utf-8" standalone="no"?>
<!DOCTYPE svg PUBLIC "-//W3C//DTD SVG 1.1//EN"
  "http://www.w3.org/Graphics/SVG/1.1/DTD/svg11.dtd">
<!-- Created with matplotlib (https://matplotlib.org/) -->
<svg height="288pt" version="1.1" viewBox="0 0 432 288" width="432pt" xmlns="http://www.w3.org/2000/svg" xmlns:xlink="http://www.w3.org/1999/xlink">
 <defs>
  <style type="text/css">
*{stroke-linecap:butt;stroke-linejoin:round;}
  </style>
 </defs>
 <g id="figure_1">
  <g id="patch_1">
   <path d="M 0 288 
L 432 288 
L 432 0 
L 0 0 
z
" style="fill:#ffffff;"/>
  </g>
  <g id="axes_1">
   <g id="patch_2">
    <path clip-path="url(#p476fa06d7c)" d="M 197.006144 132.74052 
L 196.927455 143.612235 
L 195.840283 143.604366 
L 195.918972 132.732651 
z
" style="stroke:#000000;stroke-linejoin:miter;"/>
   </g>
   <g id="patch_3">
    <path clip-path="url(#p476fa06d7c)" d="M 251.36472 133.133965 
L 251.286031 144.00568 
L 250.198859 143.997811 
L 250.277548 133.126096 
z
" style="stroke:#000000;stroke-linejoin:miter;"/>
   </g>
   <g id="patch_4">
    <path clip-path="url(#p476fa06d7c)" d="M 214.582083 132.867734 
L 214.437314 132.315125 
L 213.997205 131.796456 
L 213.268798 131.345497 
L 212.263897 130.991484 
L 210.99888 130.757217 
L 209.494437 130.65757 
L 207.77524 130.698527 
L 205.869538 130.876801 
L 203.80869 131.180054 
L 201.626648 131.587721 
L 199.359391 132.072363 
L 197.044326 132.601478 
L 194.719658 133.139637 
L 192.423756 133.650814 
L 190.194505 134.100762 
L 188.068676 134.45926 
L 186.081306 134.702106 
L 184.26512 134.81271 
L 182.649983 134.783195 
L 181.262408 134.614918 
L 180.125125 134.318395 
L 179.256705 133.912616 
L 178.671266 133.423815 
L 178.378249 132.883756 
L 178.382274 132.327658 
L 178.683078 131.791897 
L 179.275531 131.311621 
L 180.149734 130.918455 
L 181.29119 130.638425 
L 182.681055 130.490251 
L 184.29645 130.484119 
L 186.110845 130.621001 
L 188.094491 130.892589 
L 190.214909 131.281821 
L 192.437413 131.76399 
L 194.725675 132.308348 
L 197.042309 132.8801 
L 199.349473 133.44267 
L 201.609477 133.960081 
L 203.78539 134.39929 
L 205.841632 134.732343 
L 207.744554 134.938183 
L 209.462978 135.004022 
L 210.968705 134.926162 
L 212.236981 134.710231 
L 213.246901 134.370802 
L 213.981759 133.930433 
L 214.42933 133.418189 
z
" style="fill:#0000ff;stroke:#000000;stroke-linejoin:miter;"/>
   </g>
   <g id="patch_5">
    <path clip-path="url(#p476fa06d7c)" d="M 268.940659 133.261179 
L 268.79589 132.70857 
L 268.355781 132.189901 
L 267.627374 131.738941 
L 266.622474 131.384929 
L 265.357456 131.150662 
L 263.853013 131.051015 
L 262.133817 131.091972 
L 260.228115 131.270246 
L 258.167266 131.573499 
L 255.985224 131.981166 
L 253.717968 132.465808 
L 251.402902 132.994923 
L 249.078234 133.533082 
L 246.782332 134.044259 
L 244.553082 134.494207 
L 242.427252 134.852705 
L 240.439882 135.095551 
L 238.623696 135.206155 
L 237.008559 135.17664 
L 235.620985 135.008363 
L 234.483702 134.71184 
L 233.615281 134.306061 
L 233.029842 133.81726 
L 232.736825 133.2772 
L 232.74085 132.721103 
L 233.041654 132.185341 
L 233.634107 131.705066 
L 234.50831 131.3119 
L 235.649766 131.03187 
L 237.039631 130.883696 
L 238.655026 130.877564 
L 240.469421 131.014446 
L 242.453068 131.286033 
L 244.573485 131.675265 
L 246.795989 132.157435 
L 249.084251 132.701793 
L 251.400885 133.273545 
L 253.708049 133.836115 
L 255.968053 134.353526 
L 258.143966 134.792735 
L 260.200208 135.125788 
L 262.10313 135.331628 
L 263.821554 135.397467 
L 265.327281 135.319607 
L 266.595557 135.103676 
L 267.605477 134.764246 
L 268.340335 134.323878 
L 268.787906 133.811634 
z
" style="fill:#0000ff;stroke:#000000;stroke-linejoin:miter;"/>
   </g>
   <g id="patch_6">
    <path clip-path="url(#p476fa06d7c)" d="M 256.197975 141.323161 
L 190.967684 140.851027 
L 190.928339 146.286885 
L 256.158631 146.759019 
z
" style="fill:#999999;stroke:#000000;stroke-linejoin:miter;"/>
   </g>
   <g id="text_1">
    <!-- t = 1.9 -->
    <defs>
     <path d="M 18.3125 70.21875 
L 18.3125 54.6875 
L 36.8125 54.6875 
L 36.8125 47.703125 
L 18.3125 47.703125 
L 18.3125 18.015625 
Q 18.3125 11.328125 20.140625 9.421875 
Q 21.96875 7.515625 27.59375 7.515625 
L 36.8125 7.515625 
L 36.8125 0 
L 27.59375 0 
Q 17.1875 0 13.234375 3.875 
Q 9.28125 7.765625 9.28125 18.015625 
L 9.28125 47.703125 
L 2.6875 47.703125 
L 2.6875 54.6875 
L 9.28125 54.6875 
L 9.28125 70.21875 
z
" id="DejaVuSans-116"/>
     <path id="DejaVuSans-32"/>
     <path d="M 10.59375 45.40625 
L 73.1875 45.40625 
L 73.1875 37.203125 
L 10.59375 37.203125 
z
M 10.59375 25.484375 
L 73.1875 25.484375 
L 73.1875 17.1875 
L 10.59375 17.1875 
z
" id="DejaVuSans-61"/>
     <path d="M 12.40625 8.296875 
L 28.515625 8.296875 
L 28.515625 63.921875 
L 10.984375 60.40625 
L 10.984375 69.390625 
L 28.421875 72.90625 
L 38.28125 72.90625 
L 38.28125 8.296875 
L 54.390625 8.296875 
L 54.390625 0 
L 12.40625 0 
z
" id="DejaVuSans-49"/>
     <path d="M 10.6875 12.40625 
L 21 12.40625 
L 21 0 
L 10.6875 0 
z
" id="DejaVuSans-46"/>
     <path d="M 10.984375 1.515625 
L 10.984375 10.5 
Q 14.703125 8.734375 18.5 7.8125 
Q 22.3125 6.890625 25.984375 6.890625 
Q 35.75 6.890625 40.890625 13.453125 
Q 46.046875 20.015625 46.78125 33.40625 
Q 43.953125 29.203125 39.59375 26.953125 
Q 35.25 24.703125 29.984375 24.703125 
Q 19.046875 24.703125 12.671875 31.3125 
Q 6.296875 37.9375 6.296875 49.421875 
Q 6.296875 60.640625 12.9375 67.421875 
Q 19.578125 74.21875 30.609375 74.21875 
Q 43.265625 74.21875 49.921875 64.515625 
Q 56.59375 54.828125 56.59375 36.375 
Q 56.59375 19.140625 48.40625 8.859375 
Q 40.234375 -1.421875 26.421875 -1.421875 
Q 22.703125 -1.421875 18.890625 -0.6875 
Q 15.09375 0.046875 10.984375 1.515625 
z
M 30.609375 32.421875 
Q 37.25 32.421875 41.125 36.953125 
Q 45.015625 41.5 45.015625 49.421875 
Q 45.015625 57.28125 41.125 61.84375 
Q 37.25 66.40625 30.609375 66.40625 
Q 23.96875 66.40625 20.09375 61.84375 
Q 16.21875 57.28125 16.21875 49.421875 
Q 16.21875 41.5 20.09375 36.953125 
Q 23.96875 32.421875 30.609375 32.421875 
z
" id="DejaVuSans-57"/>
    </defs>
    <g transform="translate(200.664375 28.56)scale(0.12 -0.12)">
     <use xlink:href="#DejaVuSans-116"/>
     <use x="39.208984" xlink:href="#DejaVuSans-32"/>
     <use x="70.996094" xlink:href="#DejaVuSans-61"/>
     <use x="154.785156" xlink:href="#DejaVuSans-32"/>
     <use x="186.572266" xlink:href="#DejaVuSans-49"/>
     <use x="250.195312" xlink:href="#DejaVuSans-46"/>
     <use x="281.982422" xlink:href="#DejaVuSans-57"/>
    </g>
   </g>
  </g>
 </g>
 <defs>
  <clipPath id="p476fa06d7c">
   <rect height="217.44" width="334.8" x="54" y="34.56"/>
  </clipPath>
 </defs>
</svg>
