<?xml version="1.0" encoding="utf-8" standalone="no"?>
<!DOCTYPE svg PUBLIC "-//W3C//DTD SVG 1.1//EN"
  "http://www.w3.org/Graphics/SVG/1.1/DTD/svg11.dtd">
<!-- Created with matplotlib (https://matplotlib.org/) -->
<svg height="288pt" version="1.1" viewBox="0 0 432 288" width="432pt" xmlns="http://www.w3.org/2000/svg" xmlns:xlink="http://www.w3.org/1999/xlink">
 <defs>
  <style type="text/css">
*{stroke-linecap:butt;stroke-linejoin:round;}
  </style>
 </defs>
 <g id="figure_1">
  <g id="patch_1">
   <path d="M 0 288 
L 432 288 
L 432 0 
L 0 0 
z
" style="fill:#ffffff;"/>
  </g>
  <g id="axes_1">
   <g id="patch_2">
    <path clip-path="url(#p4da2ad13db)" d="M 194.76553 132.407853 
L 194.765578 143.279853 
L 193.678378 143.279858 
L 193.67833 132.407858 
z
" style="stroke:#000000;stroke-linejoin:miter;"/>
   </g>
   <g id="patch_3">
    <path clip-path="url(#p4da2ad13db)" d="M 249.12553 132.407614 
L 249.125578 143.279614 
L 248.038378 143.279619 
L 248.03833 132.407619 
z
" style="stroke:#000000;stroke-linejoin:miter;"/>
   </g>
   <g id="patch_4">
    <path clip-path="url(#p4da2ad13db)" d="M 212.34193 132.407776 
L 212.193163 131.85623 
L 211.749308 131.340762 
L 211.017655 130.895089 
L 210.010217 130.548363 
L 208.743536 130.323264 
L 207.238411 130.234515 
L 205.519556 130.287922 
L 203.615195 130.479992 
L 201.556597 130.798162 
L 199.377565 131.221621 
L 197.113877 131.722671 
L 194.802704 132.268538 
L 192.481995 132.823518 
L 190.189855 133.35131 
L 187.963922 133.817391 
L 185.840744 134.191275 
L 183.855185 134.448507 
L 182.039848 134.572261 
L 180.424539 134.554444 
L 179.035783 134.396221 
L 177.896382 134.107941 
L 177.025046 133.708462 
L 176.436082 133.223914 
L 176.139161 132.685991 
L 176.139159 132.129879 
L 176.436075 131.591953 
L 177.025034 131.107399 
L 177.896367 130.707913 
L 179.035765 130.419623 
L 180.42452 130.261388 
L 182.039829 130.243556 
L 183.855167 130.367295 
L 185.840729 130.62451 
L 187.963909 130.998375 
L 190.189847 131.464436 
L 192.481991 131.992208 
L 194.802705 132.547167 
L 197.113883 133.093014 
L 199.377575 133.594044 
L 201.556612 134.017483 
L 203.615212 134.335635 
L 205.519575 134.527689 
L 207.23843 134.581081 
L 208.743554 134.492319 
L 210.010233 134.267208 
L 211.017669 133.920473 
L 211.749318 133.474794 
L 212.193168 132.959323 
z
" style="fill:#0000ff;stroke:#000000;stroke-linejoin:miter;"/>
   </g>
   <g id="patch_5">
    <path clip-path="url(#p4da2ad13db)" d="M 266.70193 132.407536 
L 266.553163 131.855991 
L 266.109308 131.340523 
L 265.377655 130.89485 
L 264.370217 130.548124 
L 263.103536 130.323025 
L 261.598411 130.234276 
L 259.879556 130.287683 
L 257.975195 130.479753 
L 255.916597 130.797923 
L 253.737565 131.221382 
L 251.473877 131.722432 
L 249.162704 132.268299 
L 246.841995 132.823279 
L 244.549855 133.351071 
L 242.323922 133.817151 
L 240.200744 134.191036 
L 238.215185 134.448267 
L 236.399848 134.572022 
L 234.784539 134.554205 
L 233.395783 134.395982 
L 232.256382 134.107702 
L 231.385046 133.708223 
L 230.796082 133.223675 
L 230.499161 132.685752 
L 230.499159 132.12964 
L 230.796075 131.591714 
L 231.385034 131.10716 
L 232.256367 130.707674 
L 233.395765 130.419384 
L 234.78452 130.261149 
L 236.399829 130.243317 
L 238.215167 130.367056 
L 240.200729 130.62427 
L 242.323909 130.998136 
L 244.549847 131.464197 
L 246.841991 131.991968 
L 249.162705 132.546928 
L 251.473883 133.092775 
L 253.737575 133.593805 
L 255.916612 134.017244 
L 257.975212 134.335396 
L 259.879575 134.52745 
L 261.59843 134.580842 
L 263.103554 134.49208 
L 264.370233 134.266969 
L 265.377669 133.920234 
L 266.109318 133.474555 
L 266.553168 132.959084 
z
" style="fill:#0000ff;stroke:#000000;stroke-linejoin:miter;"/>
   </g>
   <g id="patch_6">
    <path clip-path="url(#p4da2ad13db)" d="M 254.017966 140.561592 
L 188.785966 140.561879 
L 188.78599 145.997879 
L 254.01799 145.997592 
z
" style="fill:#999999;stroke:#000000;stroke-linejoin:miter;"/>
   </g>
   <g id="text_1">
    <!-- t = 3.6 -->
    <defs>
     <path d="M 18.3125 70.21875 
L 18.3125 54.6875 
L 36.8125 54.6875 
L 36.8125 47.703125 
L 18.3125 47.703125 
L 18.3125 18.015625 
Q 18.3125 11.328125 20.140625 9.421875 
Q 21.96875 7.515625 27.59375 7.515625 
L 36.8125 7.515625 
L 36.8125 0 
L 27.59375 0 
Q 17.1875 0 13.234375 3.875 
Q 9.28125 7.765625 9.28125 18.015625 
L 9.28125 47.703125 
L 2.6875 47.703125 
L 2.6875 54.6875 
L 9.28125 54.6875 
L 9.28125 70.21875 
z
" id="DejaVuSans-116"/>
     <path id="DejaVuSans-32"/>
     <path d="M 10.59375 45.40625 
L 73.1875 45.40625 
L 73.1875 37.203125 
L 10.59375 37.203125 
z
M 10.59375 25.484375 
L 73.1875 25.484375 
L 73.1875 17.1875 
L 10.59375 17.1875 
z
" id="DejaVuSans-61"/>
     <path d="M 40.578125 39.3125 
Q 47.65625 37.796875 51.625 33 
Q 55.609375 28.21875 55.609375 21.1875 
Q 55.609375 10.40625 48.1875 4.484375 
Q 40.765625 -1.421875 27.09375 -1.421875 
Q 22.515625 -1.421875 17.65625 -0.515625 
Q 12.796875 0.390625 7.625 2.203125 
L 7.625 11.71875 
Q 11.71875 9.328125 16.59375 8.109375 
Q 21.484375 6.890625 26.8125 6.890625 
Q 36.078125 6.890625 40.9375 10.546875 
Q 45.796875 14.203125 45.796875 21.1875 
Q 45.796875 27.640625 41.28125 31.265625 
Q 36.765625 34.90625 28.71875 34.90625 
L 20.21875 34.90625 
L 20.21875 43.015625 
L 29.109375 43.015625 
Q 36.375 43.015625 40.234375 45.921875 
Q 44.09375 48.828125 44.09375 54.296875 
Q 44.09375 59.90625 40.109375 62.90625 
Q 36.140625 65.921875 28.71875 65.921875 
Q 24.65625 65.921875 20.015625 65.03125 
Q 15.375 64.15625 9.8125 62.3125 
L 9.8125 71.09375 
Q 15.4375 72.65625 20.34375 73.4375 
Q 25.25 74.21875 29.59375 74.21875 
Q 40.828125 74.21875 47.359375 69.109375 
Q 53.90625 64.015625 53.90625 55.328125 
Q 53.90625 49.265625 50.4375 45.09375 
Q 46.96875 40.921875 40.578125 39.3125 
z
" id="DejaVuSans-51"/>
     <path d="M 10.6875 12.40625 
L 21 12.40625 
L 21 0 
L 10.6875 0 
z
" id="DejaVuSans-46"/>
     <path d="M 33.015625 40.375 
Q 26.375 40.375 22.484375 35.828125 
Q 18.609375 31.296875 18.609375 23.390625 
Q 18.609375 15.53125 22.484375 10.953125 
Q 26.375 6.390625 33.015625 6.390625 
Q 39.65625 6.390625 43.53125 10.953125 
Q 47.40625 15.53125 47.40625 23.390625 
Q 47.40625 31.296875 43.53125 35.828125 
Q 39.65625 40.375 33.015625 40.375 
z
M 52.59375 71.296875 
L 52.59375 62.3125 
Q 48.875 64.0625 45.09375 64.984375 
Q 41.3125 65.921875 37.59375 65.921875 
Q 27.828125 65.921875 22.671875 59.328125 
Q 17.53125 52.734375 16.796875 39.40625 
Q 19.671875 43.65625 24.015625 45.921875 
Q 28.375 48.1875 33.59375 48.1875 
Q 44.578125 48.1875 50.953125 41.515625 
Q 57.328125 34.859375 57.328125 23.390625 
Q 57.328125 12.15625 50.6875 5.359375 
Q 44.046875 -1.421875 33.015625 -1.421875 
Q 20.359375 -1.421875 13.671875 8.265625 
Q 6.984375 17.96875 6.984375 36.375 
Q 6.984375 53.65625 15.1875 63.9375 
Q 23.390625 74.21875 37.203125 74.21875 
Q 40.921875 74.21875 44.703125 73.484375 
Q 48.484375 72.75 52.59375 71.296875 
z
" id="DejaVuSans-54"/>
    </defs>
    <g transform="translate(200.664375 28.56)scale(0.12 -0.12)">
     <use xlink:href="#DejaVuSans-116"/>
     <use x="39.208984" xlink:href="#DejaVuSans-32"/>
     <use x="70.996094" xlink:href="#DejaVuSans-61"/>
     <use x="154.785156" xlink:href="#DejaVuSans-32"/>
     <use x="186.572266" xlink:href="#DejaVuSans-51"/>
     <use x="250.195312" xlink:href="#DejaVuSans-46"/>
     <use x="281.982422" xlink:href="#DejaVuSans-54"/>
    </g>
   </g>
  </g>
 </g>
 <defs>
  <clipPath id="p4da2ad13db">
   <rect height="217.44" width="334.8" x="54" y="34.56"/>
  </clipPath>
 </defs>
</svg>
