<?xml version="1.0" encoding="utf-8" standalone="no"?>
<!DOCTYPE svg PUBLIC "-//W3C//DTD SVG 1.1//EN"
  "http://www.w3.org/Graphics/SVG/1.1/DTD/svg11.dtd">
<!-- Created with matplotlib (https://matplotlib.org/) -->
<svg height="288pt" version="1.1" viewBox="0 0 432 288" width="432pt" xmlns="http://www.w3.org/2000/svg" xmlns:xlink="http://www.w3.org/1999/xlink">
 <defs>
  <style type="text/css">
*{stroke-linecap:butt;stroke-linejoin:round;}
  </style>
 </defs>
 <g id="figure_1">
  <g id="patch_1">
   <path d="M 0 288 
L 432 288 
L 432 0 
L 0 0 
z
" style="fill:#ffffff;"/>
  </g>
  <g id="axes_1">
   <g id="patch_2">
    <path clip-path="url(#pa724780a89)" d="M 198.845872 123.370262 
L 198.094852 134.216291 
L 197.010249 134.141189 
L 197.761269 123.29516 
z
" style="stroke:#000000;stroke-linejoin:miter;"/>
   </g>
   <g id="patch_3">
    <path clip-path="url(#pa724780a89)" d="M 253.076019 127.125361 
L 252.324999 137.971391 
L 251.240396 137.896289 
L 251.991416 127.050259 
z
" style="stroke:#000000;stroke-linejoin:miter;"/>
   </g>
   <g id="patch_4">
    <path clip-path="url(#pa724780a89)" d="M 216.380286 124.584411 
L 216.269977 124.023905 
L 215.862793 123.479006 
L 215.163676 122.983854 
L 214.182597 122.56836 
L 212.934493 122.256292 
L 211.439094 122.063777 
L 209.720657 121.998314 
L 207.807576 122.058366 
L 205.731917 122.233563 
L 203.528836 122.505477 
L 201.235943 122.848947 
L 198.892582 123.233848 
L 196.539077 123.627181 
L 194.215952 123.995365 
L 191.963138 124.306558 
L 189.819204 124.532874 
L 187.820619 124.652324 
L 186.001069 124.650374 
L 184.39085 124.52101 
L 183.016342 124.267225 
L 181.899578 123.900922 
L 181.057921 123.442203 
L 180.503838 122.918125 
L 180.244788 122.360975 
L 180.283203 121.806191 
L 180.616572 121.290062 
L 181.237598 120.847353 
L 182.134447 120.509015 
L 183.291039 120.300127 
L 184.687407 120.238209 
L 186.300089 120.33201 
L 188.102542 120.580861 
L 190.065591 120.974629 
L 192.157871 121.494277 
L 194.346294 122.112998 
L 196.596503 122.797856 
L 198.873334 123.511811 
L 201.141282 124.216017 
L 203.364953 124.872232 
L 205.509531 125.445194 
L 207.541235 125.904799 
L 209.42778 126.227952 
L 211.138841 126.39996 
L 212.646501 126.415388 
L 213.925705 126.278321 
L 214.954687 126.002011 
L 215.715377 125.607941 
L 216.193777 125.124363 
z
" style="fill:#0000ff;stroke:#000000;stroke-linejoin:miter;"/>
   </g>
   <g id="patch_5">
    <path clip-path="url(#pa724780a89)" d="M 270.610433 128.33951 
L 270.500123 127.779004 
L 270.092939 127.234106 
L 269.393822 126.738953 
L 268.412744 126.323459 
L 267.164639 126.011391 
L 265.669241 125.818877 
L 263.950803 125.753413 
L 262.037723 125.813466 
L 259.962064 125.988662 
L 257.758983 126.260576 
L 255.46609 126.604047 
L 253.122728 126.988948 
L 250.769224 127.382281 
L 248.446099 127.750464 
L 246.193285 128.061658 
L 244.049351 128.287974 
L 242.050766 128.407423 
L 240.231216 128.405474 
L 238.620997 128.276109 
L 237.246489 128.022325 
L 236.129725 127.656021 
L 235.288068 127.197302 
L 234.733985 126.673224 
L 234.474935 126.116074 
L 234.51335 125.56129 
L 234.846718 125.045161 
L 235.467745 124.602452 
L 236.364594 124.264114 
L 237.521186 124.055226 
L 238.917554 123.993308 
L 240.530235 124.087109 
L 242.332689 124.335961 
L 244.295738 124.729729 
L 246.388018 125.249376 
L 248.576441 125.868098 
L 250.826649 126.552956 
L 253.103481 127.266911 
L 255.371429 127.971116 
L 257.5951 128.627331 
L 259.739678 129.200293 
L 261.771382 129.659898 
L 263.657927 129.983052 
L 265.368988 130.155059 
L 266.876648 130.170487 
L 268.155852 130.03342 
L 269.184834 129.75711 
L 269.945524 129.36304 
L 270.423924 128.879463 
z
" style="fill:#0000ff;stroke:#000000;stroke-linejoin:miter;"/>
   </g>
   <g id="patch_6">
    <path clip-path="url(#pa724780a89)" d="M 257.393467 135.597842 
L 192.317291 131.091723 
L 191.941781 136.514738 
L 257.017957 141.020857 
z
" style="fill:#999999;stroke:#000000;stroke-linejoin:miter;"/>
   </g>
   <g id="text_1">
    <!-- t = 0.8 -->
    <defs>
     <path d="M 18.3125 70.21875 
L 18.3125 54.6875 
L 36.8125 54.6875 
L 36.8125 47.703125 
L 18.3125 47.703125 
L 18.3125 18.015625 
Q 18.3125 11.328125 20.140625 9.421875 
Q 21.96875 7.515625 27.59375 7.515625 
L 36.8125 7.515625 
L 36.8125 0 
L 27.59375 0 
Q 17.1875 0 13.234375 3.875 
Q 9.28125 7.765625 9.28125 18.015625 
L 9.28125 47.703125 
L 2.6875 47.703125 
L 2.6875 54.6875 
L 9.28125 54.6875 
L 9.28125 70.21875 
z
" id="DejaVuSans-116"/>
     <path id="DejaVuSans-32"/>
     <path d="M 10.59375 45.40625 
L 73.1875 45.40625 
L 73.1875 37.203125 
L 10.59375 37.203125 
z
M 10.59375 25.484375 
L 73.1875 25.484375 
L 73.1875 17.1875 
L 10.59375 17.1875 
z
" id="DejaVuSans-61"/>
     <path d="M 31.78125 66.40625 
Q 24.171875 66.40625 20.328125 58.90625 
Q 16.5 51.421875 16.5 36.375 
Q 16.5 21.390625 20.328125 13.890625 
Q 24.171875 6.390625 31.78125 6.390625 
Q 39.453125 6.390625 43.28125 13.890625 
Q 47.125 21.390625 47.125 36.375 
Q 47.125 51.421875 43.28125 58.90625 
Q 39.453125 66.40625 31.78125 66.40625 
z
M 31.78125 74.21875 
Q 44.046875 74.21875 50.515625 64.515625 
Q 56.984375 54.828125 56.984375 36.375 
Q 56.984375 17.96875 50.515625 8.265625 
Q 44.046875 -1.421875 31.78125 -1.421875 
Q 19.53125 -1.421875 13.0625 8.265625 
Q 6.59375 17.96875 6.59375 36.375 
Q 6.59375 54.828125 13.0625 64.515625 
Q 19.53125 74.21875 31.78125 74.21875 
z
" id="DejaVuSans-48"/>
     <path d="M 10.6875 12.40625 
L 21 12.40625 
L 21 0 
L 10.6875 0 
z
" id="DejaVuSans-46"/>
     <path d="M 31.78125 34.625 
Q 24.75 34.625 20.71875 30.859375 
Q 16.703125 27.09375 16.703125 20.515625 
Q 16.703125 13.921875 20.71875 10.15625 
Q 24.75 6.390625 31.78125 6.390625 
Q 38.8125 6.390625 42.859375 10.171875 
Q 46.921875 13.96875 46.921875 20.515625 
Q 46.921875 27.09375 42.890625 30.859375 
Q 38.875 34.625 31.78125 34.625 
z
M 21.921875 38.8125 
Q 15.578125 40.375 12.03125 44.71875 
Q 8.5 49.078125 8.5 55.328125 
Q 8.5 64.0625 14.71875 69.140625 
Q 20.953125 74.21875 31.78125 74.21875 
Q 42.671875 74.21875 48.875 69.140625 
Q 55.078125 64.0625 55.078125 55.328125 
Q 55.078125 49.078125 51.53125 44.71875 
Q 48 40.375 41.703125 38.8125 
Q 48.828125 37.15625 52.796875 32.3125 
Q 56.78125 27.484375 56.78125 20.515625 
Q 56.78125 9.90625 50.3125 4.234375 
Q 43.84375 -1.421875 31.78125 -1.421875 
Q 19.734375 -1.421875 13.25 4.234375 
Q 6.78125 9.90625 6.78125 20.515625 
Q 6.78125 27.484375 10.78125 32.3125 
Q 14.796875 37.15625 21.921875 38.8125 
z
M 18.3125 54.390625 
Q 18.3125 48.734375 21.84375 45.5625 
Q 25.390625 42.390625 31.78125 42.390625 
Q 38.140625 42.390625 41.71875 45.5625 
Q 45.3125 48.734375 45.3125 54.390625 
Q 45.3125 60.0625 41.71875 63.234375 
Q 38.140625 66.40625 31.78125 66.40625 
Q 25.390625 66.40625 21.84375 63.234375 
Q 18.3125 60.0625 18.3125 54.390625 
z
" id="DejaVuSans-56"/>
    </defs>
    <g transform="translate(200.664375 28.56)scale(0.12 -0.12)">
     <use xlink:href="#DejaVuSans-116"/>
     <use x="39.208984" xlink:href="#DejaVuSans-32"/>
     <use x="70.996094" xlink:href="#DejaVuSans-61"/>
     <use x="154.785156" xlink:href="#DejaVuSans-32"/>
     <use x="186.572266" xlink:href="#DejaVuSans-48"/>
     <use x="250.195312" xlink:href="#DejaVuSans-46"/>
     <use x="281.982422" xlink:href="#DejaVuSans-56"/>
    </g>
   </g>
  </g>
 </g>
 <defs>
  <clipPath id="pa724780a89">
   <rect height="217.44" width="334.8" x="54" y="34.56"/>
  </clipPath>
 </defs>
</svg>
