<?xml version="1.0" encoding="utf-8" standalone="no"?>
<!DOCTYPE svg PUBLIC "-//W3C//DTD SVG 1.1//EN"
  "http://www.w3.org/Graphics/SVG/1.1/DTD/svg11.dtd">
<!-- Created with matplotlib (https://matplotlib.org/) -->
<svg height="288pt" version="1.1" viewBox="0 0 432 288" width="432pt" xmlns="http://www.w3.org/2000/svg" xmlns:xlink="http://www.w3.org/1999/xlink">
 <defs>
  <style type="text/css">
*{stroke-linecap:butt;stroke-linejoin:round;}
  </style>
 </defs>
 <g id="figure_1">
  <g id="patch_1">
   <path d="M 0 288 
L 432 288 
L 432 0 
L 0 0 
z
" style="fill:#ffffff;"/>
  </g>
  <g id="axes_1">
   <g id="patch_2">
    <path clip-path="url(#p858c1ba9f0)" d="M 194.622014 132.427808 
L 194.629249 143.299806 
L 193.542049 143.300529 
L 193.534814 132.428531 
z
" style="stroke:#000000;stroke-linejoin:miter;"/>
   </g>
   <g id="patch_3">
    <path clip-path="url(#p858c1ba9f0)" d="M 248.982002 132.391637 
L 248.989236 143.263634 
L 247.902037 143.264358 
L 247.894802 132.39236 
z
" style="stroke:#000000;stroke-linejoin:miter;"/>
   </g>
   <g id="patch_4">
    <path clip-path="url(#p858c1ba9f0)" d="M 212.19841 132.416113 
L 212.049278 131.864665 
L 211.605083 131.349491 
L 210.873136 130.904302 
L 209.865469 130.558242 
L 208.598639 130.33398 
L 207.093456 130.246226 
L 205.374636 130.300769 
L 203.470403 130.494098 
L 201.412016 130.813629 
L 199.233264 131.238528 
L 196.969908 131.741074 
L 194.659096 132.288469 
L 192.338754 132.844983 
L 190.046964 133.374289 
L 187.821339 133.841841 
L 185.698409 134.217129 
L 183.713021 134.475673 
L 181.897765 134.600628 
L 180.282445 134.583878 
L 178.893584 134.426573 
L 177.753993 134.139047 
L 176.882393 133.740144 
L 176.293109 133.255985 
L 175.995833 132.718258 
L 175.995463 132.162146 
L 176.292023 131.624024 
L 176.880663 131.139081 
L 177.751731 130.739019 
L 178.890938 130.449976 
L 180.279588 130.290823 
L 181.894885 130.271924 
L 183.710305 130.394463 
L 185.696036 130.650364 
L 187.819463 131.022826 
L 190.045708 131.487416 
L 192.338201 132.013672 
L 194.659282 132.567098 
L 196.97082 133.111417 
L 199.234842 133.61095 
L 201.414158 134.032949 
L 203.472968 134.349741 
L 205.377458 134.540535 
L 207.096348 134.592791 
L 208.601413 134.503034 
L 209.867943 134.277086 
L 210.875149 133.929686 
L 211.606503 133.483523 
L 212.050012 132.967758 
z
" style="fill:#0000ff;stroke:#000000;stroke-linejoin:miter;"/>
   </g>
   <g id="patch_5">
    <path clip-path="url(#p858c1ba9f0)" d="M 266.558398 132.379941 
L 266.409266 131.828494 
L 265.965071 131.31332 
L 265.233124 130.868131 
L 264.225456 130.522071 
L 262.958627 130.297809 
L 261.453444 130.210055 
L 259.734624 130.264598 
L 257.830391 130.457927 
L 255.772004 130.777458 
L 253.593252 131.202357 
L 251.329896 131.704903 
L 249.019084 132.252298 
L 246.698742 132.808811 
L 244.406952 133.338118 
L 242.181327 133.80567 
L 240.058397 134.180957 
L 238.073009 134.439502 
L 236.257753 134.564456 
L 234.642433 134.547707 
L 233.253572 134.390402 
L 232.113981 134.102876 
L 231.242381 133.703973 
L 230.653097 133.219814 
L 230.355821 132.682087 
L 230.355451 132.125975 
L 230.652011 131.587853 
L 231.240651 131.10291 
L 232.111719 130.702848 
L 233.250926 130.413805 
L 234.639576 130.254652 
L 236.254873 130.235753 
L 238.070293 130.358291 
L 240.056024 130.614193 
L 242.179451 130.986655 
L 244.405696 131.451245 
L 246.698189 131.977501 
L 249.019269 132.530926 
L 251.330808 133.075245 
L 253.59483 133.574779 
L 255.774146 133.996778 
L 257.832956 134.313569 
L 259.737446 134.504364 
L 261.456336 134.55662 
L 262.961401 134.466863 
L 264.227931 134.240915 
L 265.235137 133.893514 
L 265.966491 133.447352 
L 266.41 132.931587 
z
" style="fill:#0000ff;stroke:#000000;stroke-linejoin:miter;"/>
   </g>
   <g id="patch_6">
    <path clip-path="url(#p858c1ba9f0)" d="M 253.879827 140.542379 
L 188.647841 140.585785 
L 188.651458 146.021784 
L 253.883444 145.978378 
z
" style="fill:#999999;stroke:#000000;stroke-linejoin:miter;"/>
   </g>
   <g id="text_1">
    <!-- t = 3.0 -->
    <defs>
     <path d="M 18.3125 70.21875 
L 18.3125 54.6875 
L 36.8125 54.6875 
L 36.8125 47.703125 
L 18.3125 47.703125 
L 18.3125 18.015625 
Q 18.3125 11.328125 20.140625 9.421875 
Q 21.96875 7.515625 27.59375 7.515625 
L 36.8125 7.515625 
L 36.8125 0 
L 27.59375 0 
Q 17.1875 0 13.234375 3.875 
Q 9.28125 7.765625 9.28125 18.015625 
L 9.28125 47.703125 
L 2.6875 47.703125 
L 2.6875 54.6875 
L 9.28125 54.6875 
L 9.28125 70.21875 
z
" id="DejaVuSans-116"/>
     <path id="DejaVuSans-32"/>
     <path d="M 10.59375 45.40625 
L 73.1875 45.40625 
L 73.1875 37.203125 
L 10.59375 37.203125 
z
M 10.59375 25.484375 
L 73.1875 25.484375 
L 73.1875 17.1875 
L 10.59375 17.1875 
z
" id="DejaVuSans-61"/>
     <path d="M 40.578125 39.3125 
Q 47.65625 37.796875 51.625 33 
Q 55.609375 28.21875 55.609375 21.1875 
Q 55.609375 10.40625 48.1875 4.484375 
Q 40.765625 -1.421875 27.09375 -1.421875 
Q 22.515625 -1.421875 17.65625 -0.515625 
Q 12.796875 0.390625 7.625 2.203125 
L 7.625 11.71875 
Q 11.71875 9.328125 16.59375 8.109375 
Q 21.484375 6.890625 26.8125 6.890625 
Q 36.078125 6.890625 40.9375 10.546875 
Q 45.796875 14.203125 45.796875 21.1875 
Q 45.796875 27.640625 41.28125 31.265625 
Q 36.765625 34.90625 28.71875 34.90625 
L 20.21875 34.90625 
L 20.21875 43.015625 
L 29.109375 43.015625 
Q 36.375 43.015625 40.234375 45.921875 
Q 44.09375 48.828125 44.09375 54.296875 
Q 44.09375 59.90625 40.109375 62.90625 
Q 36.140625 65.921875 28.71875 65.921875 
Q 24.65625 65.921875 20.015625 65.03125 
Q 15.375 64.15625 9.8125 62.3125 
L 9.8125 71.09375 
Q 15.4375 72.65625 20.34375 73.4375 
Q 25.25 74.21875 29.59375 74.21875 
Q 40.828125 74.21875 47.359375 69.109375 
Q 53.90625 64.015625 53.90625 55.328125 
Q 53.90625 49.265625 50.4375 45.09375 
Q 46.96875 40.921875 40.578125 39.3125 
z
" id="DejaVuSans-51"/>
     <path d="M 10.6875 12.40625 
L 21 12.40625 
L 21 0 
L 10.6875 0 
z
" id="DejaVuSans-46"/>
     <path d="M 31.78125 66.40625 
Q 24.171875 66.40625 20.328125 58.90625 
Q 16.5 51.421875 16.5 36.375 
Q 16.5 21.390625 20.328125 13.890625 
Q 24.171875 6.390625 31.78125 6.390625 
Q 39.453125 6.390625 43.28125 13.890625 
Q 47.125 21.390625 47.125 36.375 
Q 47.125 51.421875 43.28125 58.90625 
Q 39.453125 66.40625 31.78125 66.40625 
z
M 31.78125 74.21875 
Q 44.046875 74.21875 50.515625 64.515625 
Q 56.984375 54.828125 56.984375 36.375 
Q 56.984375 17.96875 50.515625 8.265625 
Q 44.046875 -1.421875 31.78125 -1.421875 
Q 19.53125 -1.421875 13.0625 8.265625 
Q 6.59375 17.96875 6.59375 36.375 
Q 6.59375 54.828125 13.0625 64.515625 
Q 19.53125 74.21875 31.78125 74.21875 
z
" id="DejaVuSans-48"/>
    </defs>
    <g transform="translate(200.664375 28.56)scale(0.12 -0.12)">
     <use xlink:href="#DejaVuSans-116"/>
     <use x="39.208984" xlink:href="#DejaVuSans-32"/>
     <use x="70.996094" xlink:href="#DejaVuSans-61"/>
     <use x="154.785156" xlink:href="#DejaVuSans-32"/>
     <use x="186.572266" xlink:href="#DejaVuSans-51"/>
     <use x="250.195312" xlink:href="#DejaVuSans-46"/>
     <use x="281.982422" xlink:href="#DejaVuSans-48"/>
    </g>
   </g>
  </g>
 </g>
 <defs>
  <clipPath id="p858c1ba9f0">
   <rect height="217.44" width="334.8" x="54" y="34.56"/>
  </clipPath>
 </defs>
</svg>
