<?xml version="1.0" encoding="utf-8" standalone="no"?>
<!DOCTYPE svg PUBLIC "-//W3C//DTD SVG 1.1//EN"
  "http://www.w3.org/Graphics/SVG/1.1/DTD/svg11.dtd">
<!-- Created with matplotlib (https://matplotlib.org/) -->
<svg height="288pt" version="1.1" viewBox="0 0 432 288" width="432pt" xmlns="http://www.w3.org/2000/svg" xmlns:xlink="http://www.w3.org/1999/xlink">
 <defs>
  <style type="text/css">
*{stroke-linecap:butt;stroke-linejoin:round;}
  </style>
 </defs>
 <g id="figure_1">
  <g id="patch_1">
   <path d="M 0 288 
L 432 288 
L 432 0 
L 0 0 
z
" style="fill:#ffffff;"/>
  </g>
  <g id="axes_1">
   <g id="patch_2">
    <path clip-path="url(#pe142e14875)" d="M 194.978228 132.38491 
L 194.952529 143.25688 
L 193.865332 143.25431 
L 193.891031 132.382341 
z
" style="stroke:#000000;stroke-linejoin:miter;"/>
   </g>
   <g id="patch_3">
    <path clip-path="url(#pe142e14875)" d="M 249.338076 132.513406 
L 249.312377 143.385375 
L 248.22518 143.382805 
L 248.250879 132.510836 
z
" style="stroke:#000000;stroke-linejoin:miter;"/>
   </g>
   <g id="patch_4">
    <path clip-path="url(#pe142e14875)" d="M 212.554579 132.426457 
L 212.407118 131.874561 
L 211.964486 131.358043 
L 211.23389 130.910639 
L 210.227276 130.561528 
L 208.961131 130.33343 
L 207.456221 130.241117 
L 205.737244 130.290453 
L 203.832434 130.478013 
L 201.773088 130.791307 
L 199.593059 131.209605 
L 197.328191 131.705292 
L 195.015732 132.245684 
L 192.693715 132.795167 
L 190.400332 133.317529 
L 188.173301 133.778337 
L 186.049244 134.147192 
L 184.063081 134.399721 
L 182.247456 134.519176 
L 180.632194 134.497534 
L 179.243816 134.336022 
L 178.105101 134.045045 
L 177.234714 133.643504 
L 176.646899 133.157562 
L 176.351253 132.618937 
L 176.352567 132.062827 
L 176.650756 131.525605 
L 177.240862 131.042448 
L 178.113138 130.645026 
L 179.253216 130.359436 
L 180.642342 130.204489 
L 182.257688 130.190483 
L 184.072728 130.318521 
L 186.057675 130.580437 
L 188.179964 130.959329 
L 190.404792 131.43066 
L 192.69568 131.963859 
L 195.015073 132.524312 
L 197.324952 133.075631 
L 199.587451 133.58202 
L 201.765479 134.010619 
L 203.82332 134.333645 
L 205.727223 134.530208 
L 207.445947 134.58767 
L 208.951277 134.502473 
L 210.218485 134.280363 
L 211.226739 133.936015 
L 211.959442 133.49207 
L 212.404511 132.977651 
z
" style="fill:#0000ff;stroke:#000000;stroke-linejoin:miter;"/>
   </g>
   <g id="patch_5">
    <path clip-path="url(#pe142e14875)" d="M 266.914427 132.554952 
L 266.766967 132.003056 
L 266.324334 131.486538 
L 265.593738 131.039134 
L 264.587124 130.690023 
L 263.32098 130.461925 
L 261.816069 130.369612 
L 260.097093 130.418948 
L 258.192282 130.606508 
L 256.132937 130.919802 
L 253.952907 131.3381 
L 251.68804 131.833787 
L 249.37558 132.37418 
L 247.053563 132.923662 
L 244.76018 133.446024 
L 242.533149 133.906832 
L 240.409092 134.275687 
L 238.422929 134.528216 
L 236.607304 134.647671 
L 234.992042 134.626029 
L 233.603664 134.464517 
L 232.464949 134.17354 
L 231.594562 133.771999 
L 231.006747 133.286057 
L 230.711101 132.747432 
L 230.712415 132.191322 
L 231.010605 131.654101 
L 231.60071 131.170943 
L 232.472986 130.773521 
L 233.613064 130.487931 
L 235.00219 130.332985 
L 236.617536 130.318979 
L 238.432577 130.447016 
L 240.417523 130.708932 
L 242.539812 131.087824 
L 244.76464 131.559156 
L 247.055528 132.092354 
L 249.374922 132.652807 
L 251.6848 133.204126 
L 253.947299 133.710515 
L 256.125327 134.139114 
L 258.183168 134.46214 
L 260.087071 134.658703 
L 261.805795 134.716166 
L 263.311125 134.630968 
L 264.578334 134.408858 
L 265.586587 134.06451 
L 266.31929 133.620565 
L 266.764359 133.106146 
z
" style="fill:#0000ff;stroke:#000000;stroke-linejoin:miter;"/>
   </g>
   <g id="patch_6">
    <path clip-path="url(#pe142e14875)" d="M 254.211189 140.678947 
L 188.979371 140.524753 
L 188.966521 145.960738 
L 254.198339 146.114932 
z
" style="fill:#999999;stroke:#000000;stroke-linejoin:miter;"/>
   </g>
   <g id="text_1">
    <!-- t = 2.5 -->
    <defs>
     <path d="M 18.3125 70.21875 
L 18.3125 54.6875 
L 36.8125 54.6875 
L 36.8125 47.703125 
L 18.3125 47.703125 
L 18.3125 18.015625 
Q 18.3125 11.328125 20.140625 9.421875 
Q 21.96875 7.515625 27.59375 7.515625 
L 36.8125 7.515625 
L 36.8125 0 
L 27.59375 0 
Q 17.1875 0 13.234375 3.875 
Q 9.28125 7.765625 9.28125 18.015625 
L 9.28125 47.703125 
L 2.6875 47.703125 
L 2.6875 54.6875 
L 9.28125 54.6875 
L 9.28125 70.21875 
z
" id="DejaVuSans-116"/>
     <path id="DejaVuSans-32"/>
     <path d="M 10.59375 45.40625 
L 73.1875 45.40625 
L 73.1875 37.203125 
L 10.59375 37.203125 
z
M 10.59375 25.484375 
L 73.1875 25.484375 
L 73.1875 17.1875 
L 10.59375 17.1875 
z
" id="DejaVuSans-61"/>
     <path d="M 19.1875 8.296875 
L 53.609375 8.296875 
L 53.609375 0 
L 7.328125 0 
L 7.328125 8.296875 
Q 12.9375 14.109375 22.625 23.890625 
Q 32.328125 33.6875 34.8125 36.53125 
Q 39.546875 41.84375 41.421875 45.53125 
Q 43.3125 49.21875 43.3125 52.78125 
Q 43.3125 58.59375 39.234375 62.25 
Q 35.15625 65.921875 28.609375 65.921875 
Q 23.96875 65.921875 18.8125 64.3125 
Q 13.671875 62.703125 7.8125 59.421875 
L 7.8125 69.390625 
Q 13.765625 71.78125 18.9375 73 
Q 24.125 74.21875 28.421875 74.21875 
Q 39.75 74.21875 46.484375 68.546875 
Q 53.21875 62.890625 53.21875 53.421875 
Q 53.21875 48.921875 51.53125 44.890625 
Q 49.859375 40.875 45.40625 35.40625 
Q 44.1875 33.984375 37.640625 27.21875 
Q 31.109375 20.453125 19.1875 8.296875 
z
" id="DejaVuSans-50"/>
     <path d="M 10.6875 12.40625 
L 21 12.40625 
L 21 0 
L 10.6875 0 
z
" id="DejaVuSans-46"/>
     <path d="M 10.796875 72.90625 
L 49.515625 72.90625 
L 49.515625 64.59375 
L 19.828125 64.59375 
L 19.828125 46.734375 
Q 21.96875 47.46875 24.109375 47.828125 
Q 26.265625 48.1875 28.421875 48.1875 
Q 40.625 48.1875 47.75 41.5 
Q 54.890625 34.8125 54.890625 23.390625 
Q 54.890625 11.625 47.5625 5.09375 
Q 40.234375 -1.421875 26.90625 -1.421875 
Q 22.3125 -1.421875 17.546875 -0.640625 
Q 12.796875 0.140625 7.71875 1.703125 
L 7.71875 11.625 
Q 12.109375 9.234375 16.796875 8.0625 
Q 21.484375 6.890625 26.703125 6.890625 
Q 35.15625 6.890625 40.078125 11.328125 
Q 45.015625 15.765625 45.015625 23.390625 
Q 45.015625 31 40.078125 35.4375 
Q 35.15625 39.890625 26.703125 39.890625 
Q 22.75 39.890625 18.8125 39.015625 
Q 14.890625 38.140625 10.796875 36.28125 
z
" id="DejaVuSans-53"/>
    </defs>
    <g transform="translate(200.664375 28.56)scale(0.12 -0.12)">
     <use xlink:href="#DejaVuSans-116"/>
     <use x="39.208984" xlink:href="#DejaVuSans-32"/>
     <use x="70.996094" xlink:href="#DejaVuSans-61"/>
     <use x="154.785156" xlink:href="#DejaVuSans-32"/>
     <use x="186.572266" xlink:href="#DejaVuSans-50"/>
     <use x="250.195312" xlink:href="#DejaVuSans-46"/>
     <use x="281.982422" xlink:href="#DejaVuSans-53"/>
    </g>
   </g>
  </g>
 </g>
 <defs>
  <clipPath id="pe142e14875">
   <rect height="217.44" width="334.8" x="54" y="34.56"/>
  </clipPath>
 </defs>
</svg>
