<?xml version="1.0" encoding="utf-8" standalone="no"?>
<!DOCTYPE svg PUBLIC "-//W3C//DTD SVG 1.1//EN"
  "http://www.w3.org/Graphics/SVG/1.1/DTD/svg11.dtd">
<!-- Created with matplotlib (https://matplotlib.org/) -->
<svg height="288pt" version="1.1" viewBox="0 0 432 288" width="432pt" xmlns="http://www.w3.org/2000/svg" xmlns:xlink="http://www.w3.org/1999/xlink">
 <defs>
  <style type="text/css">
*{stroke-linecap:butt;stroke-linejoin:round;}
  </style>
 </defs>
 <g id="figure_1">
  <g id="patch_1">
   <path d="M 0 288 
L 432 288 
L 432 0 
L 0 0 
z
" style="fill:#ffffff;"/>
  </g>
  <g id="axes_1">
   <g id="patch_2">
    <path clip-path="url(#p1ebc0d41c2)" d="M 11.382807 149.500542 
L 2.315683 155.499513 
L 1.715786 154.5928 
L 10.78291 148.59383 
z
" style="stroke:#000000;stroke-linejoin:miter;"/>
   </g>
   <g id="patch_3">
    <path clip-path="url(#p1ebc0d41c2)" d="M 41.377658 194.836164 
L 32.310533 200.835134 
L 31.710636 199.928421 
L 40.777761 193.929451 
z
" style="stroke:#000000;stroke-linejoin:miter;"/>
   </g>
   <g id="patch_4">
    <path clip-path="url(#p1ebc0d41c2)" d="M 21.081142 164.15906 
L 21.45904 163.730658 
L 21.644026 163.076064 
L 21.612003 162.219959 
L 21.345287 161.188449 
L 20.834091 160.007844 
L 20.077612 158.703613 
L 19.084645 157.299573 
L 17.873676 155.817333 
L 16.472436 154.27604 
L 14.916933 152.692402 
L 13.250009 151.080975 
L 11.519506 149.454675 
L 9.776141 147.825449 
L 8.071216 146.205049 
L 6.454287 144.605814 
L 4.970949 143.041404 
L 3.660832 141.5274 
L 2.555958 140.08171 
L 1.679526 138.724726 
L 1.045197 137.479211 
L 0.656924 136.369895 
L 0.509302 135.422785 
L 0.588433 134.664231 
L 0.873222 134.119788 
L 1.337013 133.812935 
L 1.94947 133.763745 
L 2.678559 133.987566 
L 3.492509 134.493822 
L 4.361635 135.284998 
L 5.259886 136.355896 
L 6.166049 137.69321 
L 7.064516 139.275463 
L 7.94559 141.073328 
L 8.805314 143.050333 
L 9.644847 145.163907 
L 10.469445 147.366747 
L 11.287133 149.608417 
L 12.107158 151.837105 
L 12.938359 154.001461 
L 13.787559 156.052402 
L 14.658113 157.944806 
L 15.548728 159.638998 
L 16.452626 161.101968 
L 17.357147 162.308252 
L 18.243813 163.24044 
L 19.088867 163.889311 
L 19.864267 164.253584 
L 20.539073 164.339325 
z
" style="fill:#0000ff;stroke:#000000;stroke-linejoin:miter;"/>
   </g>
   <g id="patch_5">
    <path clip-path="url(#p1ebc0d41c2)" d="M 51.075993 209.494681 
L 51.45389 209.06628 
L 51.638877 208.411685 
L 51.606854 207.555581 
L 51.340138 206.52407 
L 50.828942 205.343465 
L 50.072463 204.039234 
L 49.079495 202.635194 
L 47.868526 201.152954 
L 46.467286 199.611661 
L 44.911783 198.028023 
L 43.244859 196.416596 
L 41.514356 194.790296 
L 39.770992 193.16107 
L 38.066066 191.54067 
L 36.449138 189.941435 
L 34.965799 188.377025 
L 33.655683 186.863021 
L 32.550809 185.417331 
L 31.674377 184.060347 
L 31.040048 182.814833 
L 30.651774 181.705516 
L 30.504152 180.758406 
L 30.583284 179.999852 
L 30.868072 179.455409 
L 31.331864 179.148556 
L 31.944321 179.099366 
L 32.673409 179.323187 
L 33.48736 179.829443 
L 34.356485 180.620619 
L 35.254736 181.691517 
L 36.160899 183.028831 
L 37.059366 184.611084 
L 37.940441 186.408949 
L 38.800165 188.385954 
L 39.639697 190.499528 
L 40.464295 192.702369 
L 41.281983 194.944038 
L 42.102009 197.172726 
L 42.93321 199.337082 
L 43.782409 201.388023 
L 44.652964 203.280427 
L 45.543578 204.974619 
L 46.447476 206.43759 
L 47.351998 207.643873 
L 48.238663 208.576061 
L 49.083718 209.224932 
L 49.859118 209.589205 
L 50.533923 209.674946 
z
" style="fill:#0000ff;stroke:#000000;stroke-linejoin:miter;"/>
   </g>
   <g id="patch_6">
    <path clip-path="url(#p1ebc0d41c2)" d="M 37.276851 203.415597 
L 1.28303 149.012852 
L -3.250532 152.012337 
L 32.743289 206.415082 
z
" style="fill:#999999;stroke:#000000;stroke-linejoin:miter;"/>
   </g>
   <g id="text_1">
    <!-- t = 0.1 -->
    <defs>
     <path d="M 18.3125 70.21875 
L 18.3125 54.6875 
L 36.8125 54.6875 
L 36.8125 47.703125 
L 18.3125 47.703125 
L 18.3125 18.015625 
Q 18.3125 11.328125 20.140625 9.421875 
Q 21.96875 7.515625 27.59375 7.515625 
L 36.8125 7.515625 
L 36.8125 0 
L 27.59375 0 
Q 17.1875 0 13.234375 3.875 
Q 9.28125 7.765625 9.28125 18.015625 
L 9.28125 47.703125 
L 2.6875 47.703125 
L 2.6875 54.6875 
L 9.28125 54.6875 
L 9.28125 70.21875 
z
" id="DejaVuSans-116"/>
     <path id="DejaVuSans-32"/>
     <path d="M 10.59375 45.40625 
L 73.1875 45.40625 
L 73.1875 37.203125 
L 10.59375 37.203125 
z
M 10.59375 25.484375 
L 73.1875 25.484375 
L 73.1875 17.1875 
L 10.59375 17.1875 
z
" id="DejaVuSans-61"/>
     <path d="M 31.78125 66.40625 
Q 24.171875 66.40625 20.328125 58.90625 
Q 16.5 51.421875 16.5 36.375 
Q 16.5 21.390625 20.328125 13.890625 
Q 24.171875 6.390625 31.78125 6.390625 
Q 39.453125 6.390625 43.28125 13.890625 
Q 47.125 21.390625 47.125 36.375 
Q 47.125 51.421875 43.28125 58.90625 
Q 39.453125 66.40625 31.78125 66.40625 
z
M 31.78125 74.21875 
Q 44.046875 74.21875 50.515625 64.515625 
Q 56.984375 54.828125 56.984375 36.375 
Q 56.984375 17.96875 50.515625 8.265625 
Q 44.046875 -1.421875 31.78125 -1.421875 
Q 19.53125 -1.421875 13.0625 8.265625 
Q 6.59375 17.96875 6.59375 36.375 
Q 6.59375 54.828125 13.0625 64.515625 
Q 19.53125 74.21875 31.78125 74.21875 
z
" id="DejaVuSans-48"/>
     <path d="M 10.6875 12.40625 
L 21 12.40625 
L 21 0 
L 10.6875 0 
z
" id="DejaVuSans-46"/>
     <path d="M 12.40625 8.296875 
L 28.515625 8.296875 
L 28.515625 63.921875 
L 10.984375 60.40625 
L 10.984375 69.390625 
L 28.421875 72.90625 
L 38.28125 72.90625 
L 38.28125 8.296875 
L 54.390625 8.296875 
L 54.390625 0 
L 12.40625 0 
z
" id="DejaVuSans-49"/>
    </defs>
    <g transform="translate(200.664375 28.56)scale(0.12 -0.12)">
     <use xlink:href="#DejaVuSans-116"/>
     <use x="39.208984" xlink:href="#DejaVuSans-32"/>
     <use x="70.996094" xlink:href="#DejaVuSans-61"/>
     <use x="154.785156" xlink:href="#DejaVuSans-32"/>
     <use x="186.572266" xlink:href="#DejaVuSans-48"/>
     <use x="250.195312" xlink:href="#DejaVuSans-46"/>
     <use x="281.982422" xlink:href="#DejaVuSans-49"/>
    </g>
   </g>
  </g>
 </g>
 <defs>
  <clipPath id="p1ebc0d41c2">
   <rect height="217.44" width="334.8" x="54" y="34.56"/>
  </clipPath>
 </defs>
</svg>
