<?xml version="1.0" encoding="utf-8" standalone="no"?>
<!DOCTYPE svg PUBLIC "-//W3C//DTD SVG 1.1//EN"
  "http://www.w3.org/Graphics/SVG/1.1/DTD/svg11.dtd">
<!-- Created with matplotlib (https://matplotlib.org/) -->
<svg height="288pt" version="1.1" viewBox="0 0 432 288" width="432pt" xmlns="http://www.w3.org/2000/svg" xmlns:xlink="http://www.w3.org/1999/xlink">
 <defs>
  <style type="text/css">
*{stroke-linecap:butt;stroke-linejoin:round;}
  </style>
 </defs>
 <g id="figure_1">
  <g id="patch_1">
   <path d="M 0 288 
L 432 288 
L 432 0 
L 0 0 
z
" style="fill:#ffffff;"/>
  </g>
  <g id="axes_1">
   <g id="patch_2">
    <path clip-path="url(#p933b006318)" d="M 196.244098 135.175583 
L 196.669521 146.039257 
L 195.583154 146.081799 
L 195.157731 135.218126 
z
" style="stroke:#000000;stroke-linejoin:miter;"/>
   </g>
   <g id="patch_3">
    <path clip-path="url(#p933b006318)" d="M 250.562465 133.048468 
L 250.987888 143.912141 
L 249.901521 143.954683 
L 249.476098 133.09101 
z
" style="stroke:#000000;stroke-linejoin:miter;"/>
   </g>
   <g id="patch_4">
    <path clip-path="url(#p933b006318)" d="M 213.807037 134.487816 
L 213.636804 133.942513 
L 213.173121 133.444806 
L 212.424591 133.028101 
L 211.404358 132.721058 
L 210.12984 132.545691 
L 208.622395 132.515899 
L 206.906946 132.636517 
L 205.011558 132.902949 
L 202.966985 133.30142 
L 200.806189 133.809811 
L 198.563839 134.399046 
L 196.275793 135.034921 
L 193.978575 135.680276 
L 191.70884 136.297345 
L 189.502847 136.85016 
L 187.395924 137.306829 
L 185.42195 137.64155 
L 183.612844 137.836237 
L 181.998075 137.881633 
L 180.604191 137.777867 
L 179.454384 137.534389 
L 178.568085 137.169307 
L 177.960614 136.708174 
L 177.642874 136.18228 
L 177.621113 135.626593 
L 177.896755 135.077462 
L 178.466305 134.570236 
L 179.32134 134.136964 
L 180.448586 133.804315 
L 181.830087 133.591865 
L 183.443461 133.510847 
L 185.262251 133.563465 
L 187.256356 133.742795 
L 189.392538 134.033303 
L 191.635007 134.411916 
L 193.946045 134.849602 
L 196.286696 135.313336 
L 198.617461 135.768339 
L 200.899023 136.180416 
L 203.092958 136.518275 
L 205.16243 136.755639 
L 207.072849 136.873036 
L 208.792477 136.859136 
L 210.292976 136.711552 
L 211.549877 136.437054 
L 212.542975 136.051169 
L 213.256626 135.577204 
L 213.679968 135.044761 
z
" style="fill:#0000ff;stroke:#000000;stroke-linejoin:miter;"/>
   </g>
   <g id="patch_5">
    <path clip-path="url(#p933b006318)" d="M 268.125404 132.3607 
L 267.955171 131.815397 
L 267.491488 131.31769 
L 266.742958 130.900986 
L 265.722725 130.593942 
L 264.448207 130.418575 
L 262.940762 130.388783 
L 261.225313 130.509401 
L 259.329925 130.775833 
L 257.285352 131.174304 
L 255.124556 131.682695 
L 252.882206 132.27193 
L 250.59416 132.907805 
L 248.296941 133.55316 
L 246.027207 134.170229 
L 243.821214 134.723044 
L 241.714291 135.179713 
L 239.740316 135.514435 
L 237.931211 135.709121 
L 236.316442 135.754518 
L 234.922558 135.650752 
L 233.772751 135.407273 
L 232.886452 135.042192 
L 232.278981 134.581058 
L 231.961241 134.055164 
L 231.93948 133.499478 
L 232.215122 132.950347 
L 232.784672 132.443121 
L 233.639707 132.009848 
L 234.766953 131.6772 
L 236.148454 131.464749 
L 237.761828 131.383731 
L 239.580618 131.436349 
L 241.574723 131.61568 
L 243.710905 131.906188 
L 245.953373 132.284801 
L 248.264412 132.722486 
L 250.605063 133.186221 
L 252.935828 133.641223 
L 255.217389 134.0533 
L 257.411324 134.39116 
L 259.480797 134.628524 
L 261.391215 134.74592 
L 263.110844 134.73202 
L 264.611342 134.584437 
L 265.868244 134.309939 
L 266.861342 133.924053 
L 267.574993 133.450089 
L 267.998335 132.917646 
z
" style="fill:#0000ff;stroke:#000000;stroke-linejoin:miter;"/>
   </g>
   <g id="patch_6">
    <path clip-path="url(#p933b006318)" d="M 255.770186 141.004782 
L 190.588145 143.557321 
L 190.800857 148.989158 
L 255.982897 146.436619 
z
" style="fill:#999999;stroke:#000000;stroke-linejoin:miter;"/>
   </g>
   <g id="text_1">
    <!-- t = 1.6 -->
    <defs>
     <path d="M 18.3125 70.21875 
L 18.3125 54.6875 
L 36.8125 54.6875 
L 36.8125 47.703125 
L 18.3125 47.703125 
L 18.3125 18.015625 
Q 18.3125 11.328125 20.140625 9.421875 
Q 21.96875 7.515625 27.59375 7.515625 
L 36.8125 7.515625 
L 36.8125 0 
L 27.59375 0 
Q 17.1875 0 13.234375 3.875 
Q 9.28125 7.765625 9.28125 18.015625 
L 9.28125 47.703125 
L 2.6875 47.703125 
L 2.6875 54.6875 
L 9.28125 54.6875 
L 9.28125 70.21875 
z
" id="DejaVuSans-116"/>
     <path id="DejaVuSans-32"/>
     <path d="M 10.59375 45.40625 
L 73.1875 45.40625 
L 73.1875 37.203125 
L 10.59375 37.203125 
z
M 10.59375 25.484375 
L 73.1875 25.484375 
L 73.1875 17.1875 
L 10.59375 17.1875 
z
" id="DejaVuSans-61"/>
     <path d="M 12.40625 8.296875 
L 28.515625 8.296875 
L 28.515625 63.921875 
L 10.984375 60.40625 
L 10.984375 69.390625 
L 28.421875 72.90625 
L 38.28125 72.90625 
L 38.28125 8.296875 
L 54.390625 8.296875 
L 54.390625 0 
L 12.40625 0 
z
" id="DejaVuSans-49"/>
     <path d="M 10.6875 12.40625 
L 21 12.40625 
L 21 0 
L 10.6875 0 
z
" id="DejaVuSans-46"/>
     <path d="M 33.015625 40.375 
Q 26.375 40.375 22.484375 35.828125 
Q 18.609375 31.296875 18.609375 23.390625 
Q 18.609375 15.53125 22.484375 10.953125 
Q 26.375 6.390625 33.015625 6.390625 
Q 39.65625 6.390625 43.53125 10.953125 
Q 47.40625 15.53125 47.40625 23.390625 
Q 47.40625 31.296875 43.53125 35.828125 
Q 39.65625 40.375 33.015625 40.375 
z
M 52.59375 71.296875 
L 52.59375 62.3125 
Q 48.875 64.0625 45.09375 64.984375 
Q 41.3125 65.921875 37.59375 65.921875 
Q 27.828125 65.921875 22.671875 59.328125 
Q 17.53125 52.734375 16.796875 39.40625 
Q 19.671875 43.65625 24.015625 45.921875 
Q 28.375 48.1875 33.59375 48.1875 
Q 44.578125 48.1875 50.953125 41.515625 
Q 57.328125 34.859375 57.328125 23.390625 
Q 57.328125 12.15625 50.6875 5.359375 
Q 44.046875 -1.421875 33.015625 -1.421875 
Q 20.359375 -1.421875 13.671875 8.265625 
Q 6.984375 17.96875 6.984375 36.375 
Q 6.984375 53.65625 15.1875 63.9375 
Q 23.390625 74.21875 37.203125 74.21875 
Q 40.921875 74.21875 44.703125 73.484375 
Q 48.484375 72.75 52.59375 71.296875 
z
" id="DejaVuSans-54"/>
    </defs>
    <g transform="translate(200.664375 28.56)scale(0.12 -0.12)">
     <use xlink:href="#DejaVuSans-116"/>
     <use x="39.208984" xlink:href="#DejaVuSans-32"/>
     <use x="70.996094" xlink:href="#DejaVuSans-61"/>
     <use x="154.785156" xlink:href="#DejaVuSans-32"/>
     <use x="186.572266" xlink:href="#DejaVuSans-49"/>
     <use x="250.195312" xlink:href="#DejaVuSans-46"/>
     <use x="281.982422" xlink:href="#DejaVuSans-54"/>
    </g>
   </g>
  </g>
 </g>
 <defs>
  <clipPath id="p933b006318">
   <rect height="217.44" width="334.8" x="54" y="34.56"/>
  </clipPath>
 </defs>
</svg>
