<?xml version="1.0" encoding="utf-8" standalone="no"?>
<!DOCTYPE svg PUBLIC "-//W3C//DTD SVG 1.1//EN"
  "http://www.w3.org/Graphics/SVG/1.1/DTD/svg11.dtd">
<!-- Created with matplotlib (https://matplotlib.org/) -->
<svg height="288pt" version="1.1" viewBox="0 0 432 288" width="432pt" xmlns="http://www.w3.org/2000/svg" xmlns:xlink="http://www.w3.org/1999/xlink">
 <defs>
  <style type="text/css">
*{stroke-linecap:butt;stroke-linejoin:round;}
  </style>
 </defs>
 <g id="figure_1">
  <g id="patch_1">
   <path d="M 0 288 
L 432 288 
L 432 0 
L 0 0 
z
" style="fill:#ffffff;"/>
  </g>
  <g id="axes_1">
   <g id="patch_2">
    <path clip-path="url(#p562d452880)" d="M 194.773382 132.404047 
L 194.771113 143.276047 
L 193.683913 143.27582 
L 193.686182 132.40382 
z
" style="stroke:#000000;stroke-linejoin:miter;"/>
   </g>
   <g id="patch_3">
    <path clip-path="url(#p562d452880)" d="M 249.133381 132.415392 
L 249.131112 143.287391 
L 248.043912 143.287164 
L 248.046181 132.415165 
z
" style="stroke:#000000;stroke-linejoin:miter;"/>
   </g>
   <g id="patch_4">
    <path clip-path="url(#p562d452880)" d="M 212.349782 132.407715 
L 212.201132 131.856138 
L 211.757387 131.340575 
L 211.025829 130.894747 
L 210.018465 130.547806 
L 208.751832 130.322437 
L 207.246726 130.233367 
L 205.52786 130.286408 
L 203.623458 130.478073 
L 201.564792 130.795804 
L 199.38567 131.218799 
L 197.121875 131.719366 
L 194.810586 132.264741 
L 192.489758 132.819226 
L 190.197506 133.346529 
L 187.971473 133.812136 
L 185.848216 134.185567 
L 183.862603 134.442376 
L 182.047239 134.565744 
L 180.431934 134.547583 
L 179.043211 134.389063 
L 177.903872 134.100541 
L 177.032621 133.700877 
L 176.44376 133.216203 
L 176.146954 132.678216 
L 176.14707 132.122104 
L 176.444101 131.584242 
L 177.033164 131.099814 
L 177.904581 130.700513 
L 179.044041 130.412466 
L 180.43283 130.254527 
L 182.048142 130.237039 
L 183.863454 130.361165 
L 185.848961 130.618802 
L 187.972062 130.99312 
L 190.1979 131.459656 
L 192.489932 131.987915 
L 194.810528 132.543369 
L 197.121589 133.089709 
L 199.385174 133.591221 
L 201.56412 134.015125 
L 203.622653 134.333716 
L 205.526975 134.526175 
L 207.245819 134.579933 
L 208.750962 134.491492 
L 210.017689 134.266651 
L 211.025198 133.920131 
L 211.756942 133.474608 
L 212.200902 132.959231 
z
" style="fill:#0000ff;stroke:#000000;stroke-linejoin:miter;"/>
   </g>
   <g id="patch_5">
    <path clip-path="url(#p562d452880)" d="M 266.709781 132.41906 
L 266.561131 131.867482 
L 266.117386 131.35192 
L 265.385828 130.906091 
L 264.378464 130.559151 
L 263.111831 130.333781 
L 261.606725 130.244712 
L 259.887858 130.297753 
L 257.983456 130.489417 
L 255.924791 130.807148 
L 253.745668 131.230143 
L 251.481874 131.73071 
L 249.170585 132.276085 
L 246.849757 132.83057 
L 244.557505 133.357873 
L 242.331472 133.82348 
L 240.208215 134.196912 
L 238.222602 134.45372 
L 236.407237 134.577088 
L 234.791933 134.558927 
L 233.40321 134.400408 
L 232.263871 134.111886 
L 231.39262 133.712221 
L 230.803759 133.227547 
L 230.506953 132.689561 
L 230.507069 132.133448 
L 230.8041 131.595586 
L 231.393163 131.111158 
L 232.26458 130.711857 
L 233.40404 130.42381 
L 234.792829 130.265871 
L 236.408141 130.248384 
L 238.223453 130.372509 
L 240.20896 130.630147 
L 242.332061 131.004464 
L 244.557899 131.471 
L 246.849931 131.99926 
L 249.170527 132.554714 
L 251.481588 133.101053 
L 253.745173 133.602565 
L 255.924119 134.026469 
L 257.982652 134.34506 
L 259.886974 134.537519 
L 261.605817 134.591277 
L 263.110961 134.502836 
L 264.377688 134.277995 
L 265.385197 133.931475 
L 266.116941 133.485952 
L 266.560901 132.970575 
z
" style="fill:#0000ff;stroke:#000000;stroke-linejoin:miter;"/>
   </g>
   <g id="patch_6">
    <path clip-path="url(#p562d452880)" d="M 254.024079 140.570412 
L 188.792081 140.556799 
L 188.790946 145.992799 
L 254.022945 146.006412 
z
" style="fill:#999999;stroke:#000000;stroke-linejoin:miter;"/>
   </g>
   <g id="text_1">
    <!-- t = 3.1 -->
    <defs>
     <path d="M 18.3125 70.21875 
L 18.3125 54.6875 
L 36.8125 54.6875 
L 36.8125 47.703125 
L 18.3125 47.703125 
L 18.3125 18.015625 
Q 18.3125 11.328125 20.140625 9.421875 
Q 21.96875 7.515625 27.59375 7.515625 
L 36.8125 7.515625 
L 36.8125 0 
L 27.59375 0 
Q 17.1875 0 13.234375 3.875 
Q 9.28125 7.765625 9.28125 18.015625 
L 9.28125 47.703125 
L 2.6875 47.703125 
L 2.6875 54.6875 
L 9.28125 54.6875 
L 9.28125 70.21875 
z
" id="DejaVuSans-116"/>
     <path id="DejaVuSans-32"/>
     <path d="M 10.59375 45.40625 
L 73.1875 45.40625 
L 73.1875 37.203125 
L 10.59375 37.203125 
z
M 10.59375 25.484375 
L 73.1875 25.484375 
L 73.1875 17.1875 
L 10.59375 17.1875 
z
" id="DejaVuSans-61"/>
     <path d="M 40.578125 39.3125 
Q 47.65625 37.796875 51.625 33 
Q 55.609375 28.21875 55.609375 21.1875 
Q 55.609375 10.40625 48.1875 4.484375 
Q 40.765625 -1.421875 27.09375 -1.421875 
Q 22.515625 -1.421875 17.65625 -0.515625 
Q 12.796875 0.390625 7.625 2.203125 
L 7.625 11.71875 
Q 11.71875 9.328125 16.59375 8.109375 
Q 21.484375 6.890625 26.8125 6.890625 
Q 36.078125 6.890625 40.9375 10.546875 
Q 45.796875 14.203125 45.796875 21.1875 
Q 45.796875 27.640625 41.28125 31.265625 
Q 36.765625 34.90625 28.71875 34.90625 
L 20.21875 34.90625 
L 20.21875 43.015625 
L 29.109375 43.015625 
Q 36.375 43.015625 40.234375 45.921875 
Q 44.09375 48.828125 44.09375 54.296875 
Q 44.09375 59.90625 40.109375 62.90625 
Q 36.140625 65.921875 28.71875 65.921875 
Q 24.65625 65.921875 20.015625 65.03125 
Q 15.375 64.15625 9.8125 62.3125 
L 9.8125 71.09375 
Q 15.4375 72.65625 20.34375 73.4375 
Q 25.25 74.21875 29.59375 74.21875 
Q 40.828125 74.21875 47.359375 69.109375 
Q 53.90625 64.015625 53.90625 55.328125 
Q 53.90625 49.265625 50.4375 45.09375 
Q 46.96875 40.921875 40.578125 39.3125 
z
" id="DejaVuSans-51"/>
     <path d="M 10.6875 12.40625 
L 21 12.40625 
L 21 0 
L 10.6875 0 
z
" id="DejaVuSans-46"/>
     <path d="M 12.40625 8.296875 
L 28.515625 8.296875 
L 28.515625 63.921875 
L 10.984375 60.40625 
L 10.984375 69.390625 
L 28.421875 72.90625 
L 38.28125 72.90625 
L 38.28125 8.296875 
L 54.390625 8.296875 
L 54.390625 0 
L 12.40625 0 
z
" id="DejaVuSans-49"/>
    </defs>
    <g transform="translate(200.664375 28.56)scale(0.12 -0.12)">
     <use xlink:href="#DejaVuSans-116"/>
     <use x="39.208984" xlink:href="#DejaVuSans-32"/>
     <use x="70.996094" xlink:href="#DejaVuSans-61"/>
     <use x="154.785156" xlink:href="#DejaVuSans-32"/>
     <use x="186.572266" xlink:href="#DejaVuSans-51"/>
     <use x="250.195312" xlink:href="#DejaVuSans-46"/>
     <use x="281.982422" xlink:href="#DejaVuSans-49"/>
    </g>
   </g>
  </g>
 </g>
 <defs>
  <clipPath id="p562d452880">
   <rect height="217.44" width="334.8" x="54" y="34.56"/>
  </clipPath>
 </defs>
</svg>
