<?xml version="1.0" encoding="utf-8" standalone="no"?>
<!DOCTYPE svg PUBLIC "-//W3C//DTD SVG 1.1//EN"
  "http://www.w3.org/Graphics/SVG/1.1/DTD/svg11.dtd">
<!-- Created with matplotlib (https://matplotlib.org/) -->
<svg height="288pt" version="1.1" viewBox="0 0 432 288" width="432pt" xmlns="http://www.w3.org/2000/svg" xmlns:xlink="http://www.w3.org/1999/xlink">
 <defs>
  <style type="text/css">
*{stroke-linecap:butt;stroke-linejoin:round;}
  </style>
 </defs>
 <g id="figure_1">
  <g id="patch_1">
   <path d="M 0 288 
L 432 288 
L 432 0 
L 0 0 
z
" style="fill:#ffffff;"/>
  </g>
  <g id="axes_1">
   <g id="patch_2">
    <path clip-path="url(#p7706c03af9)" d="M 330.915885 89.24792 
L 330.398955 100.107624 
L 329.312984 100.055931 
L 329.829915 89.196227 
z
" style="stroke:#000000;stroke-linejoin:miter;"/>
   </g>
   <g id="patch_3">
    <path clip-path="url(#p7706c03af9)" d="M 385.214404 91.832574 
L 384.697474 102.692278 
L 383.611503 102.640585 
L 384.128434 91.780881 
z
" style="stroke:#000000;stroke-linejoin:miter;"/>
   </g>
   <g id="patch_4">
    <path clip-path="url(#p7706c03af9)" d="M 348.472406 90.083625 
L 348.350034 89.525629 
L 347.931193 88.989638 
L 347.22156 88.509679 
L 346.231748 88.11544 
L 344.977204 87.830363 
L 343.478002 87.670144 
L 341.758552 87.641757 
L 339.847212 87.743054 
L 337.775813 87.962975 
L 335.57911 88.282339 
L 333.294157 88.675181 
L 330.959642 89.110531 
L 328.615167 89.55453 
L 326.300523 89.97273 
L 324.054945 90.332438 
L 321.916391 90.604939 
L 319.920846 90.767464 
L 318.101677 90.804757 
L 316.489043 90.71015 
L 315.109381 90.486068 
L 313.984978 90.143935 
L 313.133623 89.703474 
L 312.568366 89.191468 
L 312.29736 88.640034 
L 312.323802 88.084551 
L 312.645961 87.561353 
L 313.257296 87.105353 
L 314.146639 86.747751 
L 315.298457 86.513968 
L 316.693165 86.421949 
L 318.307494 86.480948 
L 320.114896 86.690868 
L 322.08598 87.042208 
L 324.188981 87.51661 
L 326.390239 88.087991 
L 328.654694 88.72416 
L 330.946394 89.388845 
L 333.229002 90.043974 
L 335.466308 90.652078 
L 337.622744 91.178655 
L 339.663888 91.594337 
L 341.556964 91.876728 
L 343.271336 92.011793 
L 344.778978 91.994702 
L 346.054929 91.830079 
L 347.077712 91.531641 
L 347.829726 91.121257 
L 348.297585 90.627474 
z
" style="fill:#0000ff;stroke:#000000;stroke-linejoin:miter;"/>
   </g>
   <g id="patch_5">
    <path clip-path="url(#p7706c03af9)" d="M 402.770925 92.668279 
L 402.648553 92.110282 
L 402.229712 91.574292 
L 401.520079 91.094332 
L 400.530267 90.700094 
L 399.275723 90.415016 
L 397.776521 90.254797 
L 396.057071 90.22641 
L 394.145731 90.327708 
L 392.074332 90.547629 
L 389.877629 90.866993 
L 387.592676 91.259834 
L 385.258161 91.695185 
L 382.913687 92.139184 
L 380.599042 92.557384 
L 378.353464 92.917091 
L 376.21491 93.189592 
L 374.219365 93.352117 
L 372.400196 93.38941 
L 370.787562 93.294803 
L 369.4079 93.070722 
L 368.283497 92.728588 
L 367.432142 92.288128 
L 366.866885 91.776122 
L 366.595879 91.224688 
L 366.622321 90.669205 
L 366.94448 90.146006 
L 367.555815 89.690007 
L 368.445158 89.332405 
L 369.596976 89.098622 
L 370.991684 89.006602 
L 372.606013 89.065601 
L 374.413415 89.275522 
L 376.384499 89.626861 
L 378.4875 90.101264 
L 380.688758 90.672644 
L 382.953213 91.308813 
L 385.244913 91.973498 
L 387.527521 92.628627 
L 389.764827 93.236732 
L 391.921263 93.763309 
L 393.962407 94.17899 
L 395.855483 94.461381 
L 397.569855 94.596447 
L 399.077497 94.579356 
L 400.353448 94.414732 
L 401.376231 94.116295 
L 402.128245 93.705911 
L 402.596104 93.212128 
z
" style="fill:#0000ff;stroke:#000000;stroke-linejoin:miter;"/>
   </g>
   <g id="patch_6">
    <path clip-path="url(#p7706c03af9)" d="M 389.713573 100.209971 
L 324.55535 97.108386 
L 324.296885 102.538238 
L 389.455108 105.639822 
z
" style="fill:#999999;stroke:#000000;stroke-linejoin:miter;"/>
   </g>
   <g id="text_1">
    <!-- t = 0.4 -->
    <defs>
     <path d="M 18.3125 70.21875 
L 18.3125 54.6875 
L 36.8125 54.6875 
L 36.8125 47.703125 
L 18.3125 47.703125 
L 18.3125 18.015625 
Q 18.3125 11.328125 20.140625 9.421875 
Q 21.96875 7.515625 27.59375 7.515625 
L 36.8125 7.515625 
L 36.8125 0 
L 27.59375 0 
Q 17.1875 0 13.234375 3.875 
Q 9.28125 7.765625 9.28125 18.015625 
L 9.28125 47.703125 
L 2.6875 47.703125 
L 2.6875 54.6875 
L 9.28125 54.6875 
L 9.28125 70.21875 
z
" id="DejaVuSans-116"/>
     <path id="DejaVuSans-32"/>
     <path d="M 10.59375 45.40625 
L 73.1875 45.40625 
L 73.1875 37.203125 
L 10.59375 37.203125 
z
M 10.59375 25.484375 
L 73.1875 25.484375 
L 73.1875 17.1875 
L 10.59375 17.1875 
z
" id="DejaVuSans-61"/>
     <path d="M 31.78125 66.40625 
Q 24.171875 66.40625 20.328125 58.90625 
Q 16.5 51.421875 16.5 36.375 
Q 16.5 21.390625 20.328125 13.890625 
Q 24.171875 6.390625 31.78125 6.390625 
Q 39.453125 6.390625 43.28125 13.890625 
Q 47.125 21.390625 47.125 36.375 
Q 47.125 51.421875 43.28125 58.90625 
Q 39.453125 66.40625 31.78125 66.40625 
z
M 31.78125 74.21875 
Q 44.046875 74.21875 50.515625 64.515625 
Q 56.984375 54.828125 56.984375 36.375 
Q 56.984375 17.96875 50.515625 8.265625 
Q 44.046875 -1.421875 31.78125 -1.421875 
Q 19.53125 -1.421875 13.0625 8.265625 
Q 6.59375 17.96875 6.59375 36.375 
Q 6.59375 54.828125 13.0625 64.515625 
Q 19.53125 74.21875 31.78125 74.21875 
z
" id="DejaVuSans-48"/>
     <path d="M 10.6875 12.40625 
L 21 12.40625 
L 21 0 
L 10.6875 0 
z
" id="DejaVuSans-46"/>
     <path d="M 37.796875 64.3125 
L 12.890625 25.390625 
L 37.796875 25.390625 
z
M 35.203125 72.90625 
L 47.609375 72.90625 
L 47.609375 25.390625 
L 58.015625 25.390625 
L 58.015625 17.1875 
L 47.609375 17.1875 
L 47.609375 0 
L 37.796875 0 
L 37.796875 17.1875 
L 4.890625 17.1875 
L 4.890625 26.703125 
z
" id="DejaVuSans-52"/>
    </defs>
    <g transform="translate(200.664375 28.56)scale(0.12 -0.12)">
     <use xlink:href="#DejaVuSans-116"/>
     <use x="39.208984" xlink:href="#DejaVuSans-32"/>
     <use x="70.996094" xlink:href="#DejaVuSans-61"/>
     <use x="154.785156" xlink:href="#DejaVuSans-32"/>
     <use x="186.572266" xlink:href="#DejaVuSans-48"/>
     <use x="250.195312" xlink:href="#DejaVuSans-46"/>
     <use x="281.982422" xlink:href="#DejaVuSans-52"/>
    </g>
   </g>
  </g>
 </g>
 <defs>
  <clipPath id="p7706c03af9">
   <rect height="217.44" width="334.8" x="54" y="34.56"/>
  </clipPath>
 </defs>
</svg>
