<?xml version="1.0" encoding="utf-8" standalone="no"?>
<!DOCTYPE svg PUBLIC "-//W3C//DTD SVG 1.1//EN"
  "http://www.w3.org/Graphics/SVG/1.1/DTD/svg11.dtd">
<!-- Created with matplotlib (https://matplotlib.org/) -->
<svg height="288pt" version="1.1" viewBox="0 0 432 288" width="432pt" xmlns="http://www.w3.org/2000/svg" xmlns:xlink="http://www.w3.org/1999/xlink">
 <defs>
  <style type="text/css">
*{stroke-linecap:butt;stroke-linejoin:round;}
  </style>
 </defs>
 <g id="figure_1">
  <g id="patch_1">
   <path d="M 0 288 
L 432 288 
L 432 0 
L 0 0 
z
" style="fill:#ffffff;"/>
  </g>
  <g id="axes_1">
   <g id="patch_2">
    <path clip-path="url(#pf5d2bdd556)" d="M 196.581318 133.116224 
L 196.639039 143.98807 
L 195.551854 143.993842 
L 195.494133 133.121996 
z
" style="stroke:#000000;stroke-linejoin:miter;"/>
   </g>
   <g id="patch_3">
    <path clip-path="url(#pf5d2bdd556)" d="M 250.940552 132.827619 
L 250.998273 143.699466 
L 249.911088 143.705238 
L 249.853367 132.833391 
z
" style="stroke:#000000;stroke-linejoin:miter;"/>
   </g>
   <g id="patch_4">
    <path clip-path="url(#pf5d2bdd556)" d="M 214.15747 133.022908 
L 214.005779 132.472159 
L 213.559196 131.959053 
L 212.825189 131.517268 
L 211.815926 131.175891 
L 210.548069 130.957514 
L 209.042494 130.876751 
L 207.323947 130.939276 
L 205.420631 131.141445 
L 203.36375 131.470531 
L 201.186995 131.905543 
L 198.925997 132.418594 
L 196.617752 132.976714 
L 194.30002 133.543997 
L 192.010712 134.08394 
L 189.787282 134.561822 
L 187.666118 134.946964 
L 185.681952 135.214725 
L 183.867296 135.348108 
L 182.251915 135.33886 
L 180.862339 135.188006 
L 179.721425 134.905775 
L 178.847982 134.510923 
L 178.256456 134.029506 
L 177.956686 133.493166 
L 177.953734 132.937061 
L 178.247792 132.397568 
L 178.834173 131.909897 
L 179.703374 131.505794 
L 180.841227 131.211464 
L 182.229123 131.045864 
L 183.844314 131.019464 
L 185.660284 131.133571 
L 187.647182 131.380249 
L 189.772316 131.742846 
L 192.000694 132.197093 
L 194.295606 132.712698 
L 196.619232 133.255339 
L 198.933273 133.788917 
L 201.19959 134.277932 
L 203.380842 134.689807 
L 205.441102 134.997034 
L 207.346456 135.178982 
L 209.065571 135.223256 
L 210.570203 135.12651 
L 211.83567 134.894684 
L 212.841252 134.54261 
L 213.570526 134.093056 
L 214.011636 133.575237 
z
" style="fill:#0000ff;stroke:#000000;stroke-linejoin:miter;"/>
   </g>
   <g id="patch_5">
    <path clip-path="url(#pf5d2bdd556)" d="M 268.516704 132.734304 
L 268.365013 132.183555 
L 267.91843 131.670449 
L 267.184423 131.228664 
L 266.17516 130.887287 
L 264.907303 130.66891 
L 263.401728 130.588147 
L 261.683181 130.650671 
L 259.779865 130.852841 
L 257.722984 131.181927 
L 255.546229 131.616939 
L 253.285231 132.12999 
L 250.976986 132.688109 
L 248.659253 133.255392 
L 246.369946 133.795336 
L 244.146516 134.273218 
L 242.025352 134.658359 
L 240.041185 134.926121 
L 238.22653 135.059503 
L 236.611149 135.050255 
L 235.221573 134.899401 
L 234.080659 134.61717 
L 233.207216 134.222319 
L 232.61569 133.740902 
L 232.31592 133.204561 
L 232.312967 132.648457 
L 232.607026 132.108964 
L 233.193407 131.621293 
L 234.062608 131.217189 
L 235.200461 130.92286 
L 236.588357 130.75726 
L 238.203548 130.73086 
L 240.019518 130.844967 
L 242.006415 131.091645 
L 244.13155 131.454242 
L 246.359928 131.908489 
L 248.65484 132.424093 
L 250.978465 132.966734 
L 253.292506 133.500313 
L 255.558824 133.989328 
L 257.740076 134.401202 
L 259.800335 134.708429 
L 261.70569 134.890378 
L 263.424804 134.934651 
L 264.929437 134.837906 
L 266.194904 134.606079 
L 267.200485 134.254005 
L 267.92976 133.804451 
L 268.370869 133.286632 
z
" style="fill:#0000ff;stroke:#000000;stroke-linejoin:miter;"/>
   </g>
   <g id="patch_6">
    <path clip-path="url(#pf5d2bdd556)" d="M 255.876173 140.95553 
L 190.645093 141.301855 
L 190.673953 146.737778 
L 255.905034 146.391453 
z
" style="fill:#999999;stroke:#000000;stroke-linejoin:miter;"/>
   </g>
   <g id="text_1">
    <!-- t = 1.9 -->
    <defs>
     <path d="M 18.3125 70.21875 
L 18.3125 54.6875 
L 36.8125 54.6875 
L 36.8125 47.703125 
L 18.3125 47.703125 
L 18.3125 18.015625 
Q 18.3125 11.328125 20.140625 9.421875 
Q 21.96875 7.515625 27.59375 7.515625 
L 36.8125 7.515625 
L 36.8125 0 
L 27.59375 0 
Q 17.1875 0 13.234375 3.875 
Q 9.28125 7.765625 9.28125 18.015625 
L 9.28125 47.703125 
L 2.6875 47.703125 
L 2.6875 54.6875 
L 9.28125 54.6875 
L 9.28125 70.21875 
z
" id="DejaVuSans-116"/>
     <path id="DejaVuSans-32"/>
     <path d="M 10.59375 45.40625 
L 73.1875 45.40625 
L 73.1875 37.203125 
L 10.59375 37.203125 
z
M 10.59375 25.484375 
L 73.1875 25.484375 
L 73.1875 17.1875 
L 10.59375 17.1875 
z
" id="DejaVuSans-61"/>
     <path d="M 12.40625 8.296875 
L 28.515625 8.296875 
L 28.515625 63.921875 
L 10.984375 60.40625 
L 10.984375 69.390625 
L 28.421875 72.90625 
L 38.28125 72.90625 
L 38.28125 8.296875 
L 54.390625 8.296875 
L 54.390625 0 
L 12.40625 0 
z
" id="DejaVuSans-49"/>
     <path d="M 10.6875 12.40625 
L 21 12.40625 
L 21 0 
L 10.6875 0 
z
" id="DejaVuSans-46"/>
     <path d="M 10.984375 1.515625 
L 10.984375 10.5 
Q 14.703125 8.734375 18.5 7.8125 
Q 22.3125 6.890625 25.984375 6.890625 
Q 35.75 6.890625 40.890625 13.453125 
Q 46.046875 20.015625 46.78125 33.40625 
Q 43.953125 29.203125 39.59375 26.953125 
Q 35.25 24.703125 29.984375 24.703125 
Q 19.046875 24.703125 12.671875 31.3125 
Q 6.296875 37.9375 6.296875 49.421875 
Q 6.296875 60.640625 12.9375 67.421875 
Q 19.578125 74.21875 30.609375 74.21875 
Q 43.265625 74.21875 49.921875 64.515625 
Q 56.59375 54.828125 56.59375 36.375 
Q 56.59375 19.140625 48.40625 8.859375 
Q 40.234375 -1.421875 26.421875 -1.421875 
Q 22.703125 -1.421875 18.890625 -0.6875 
Q 15.09375 0.046875 10.984375 1.515625 
z
M 30.609375 32.421875 
Q 37.25 32.421875 41.125 36.953125 
Q 45.015625 41.5 45.015625 49.421875 
Q 45.015625 57.28125 41.125 61.84375 
Q 37.25 66.40625 30.609375 66.40625 
Q 23.96875 66.40625 20.09375 61.84375 
Q 16.21875 57.28125 16.21875 49.421875 
Q 16.21875 41.5 20.09375 36.953125 
Q 23.96875 32.421875 30.609375 32.421875 
z
" id="DejaVuSans-57"/>
    </defs>
    <g transform="translate(200.664375 28.56)scale(0.12 -0.12)">
     <use xlink:href="#DejaVuSans-116"/>
     <use x="39.208984" xlink:href="#DejaVuSans-32"/>
     <use x="70.996094" xlink:href="#DejaVuSans-61"/>
     <use x="154.785156" xlink:href="#DejaVuSans-32"/>
     <use x="186.572266" xlink:href="#DejaVuSans-49"/>
     <use x="250.195312" xlink:href="#DejaVuSans-46"/>
     <use x="281.982422" xlink:href="#DejaVuSans-57"/>
    </g>
   </g>
  </g>
 </g>
 <defs>
  <clipPath id="pf5d2bdd556">
   <rect height="217.44" width="334.8" x="54" y="34.56"/>
  </clipPath>
 </defs>
</svg>
