<?xml version="1.0" encoding="utf-8" standalone="no"?>
<!DOCTYPE svg PUBLIC "-//W3C//DTD SVG 1.1//EN"
  "http://www.w3.org/Graphics/SVG/1.1/DTD/svg11.dtd">
<!-- Created with matplotlib (https://matplotlib.org/) -->
<svg height="288pt" version="1.1" viewBox="0 0 432 288" width="432pt" xmlns="http://www.w3.org/2000/svg" xmlns:xlink="http://www.w3.org/1999/xlink">
 <defs>
  <style type="text/css">
*{stroke-linecap:butt;stroke-linejoin:round;}
  </style>
 </defs>
 <g id="figure_1">
  <g id="patch_1">
   <path d="M 0 288 
L 432 288 
L 432 0 
L 0 0 
z
" style="fill:#ffffff;"/>
  </g>
  <g id="axes_1">
   <g id="patch_2">
    <path clip-path="url(#p5f335875c2)" d="M 106.620558 212.857456 
L 95.752835 212.552514 
L 95.783329 211.465742 
L 106.651052 211.770684 
z
" style="stroke:#000000;stroke-linejoin:miter;"/>
   </g>
   <g id="patch_3">
    <path clip-path="url(#p5f335875c2)" d="M 105.095848 267.196069 
L 94.228126 266.891127 
L 94.25862 265.804355 
L 105.126342 266.109297 
z
" style="stroke:#000000;stroke-linejoin:miter;"/>
   </g>
   <g id="patch_4">
    <path clip-path="url(#p5f335875c2)" d="M 106.127568 230.426941 
L 106.683071 230.293705 
L 107.210787 229.864485 
L 107.676809 229.145622 
L 108.05166 228.148307 
L 108.312205 226.888439 
L 108.443141 225.386396 
L 108.437974 223.66672 
L 108.299402 221.75772 
L 108.039106 219.691007 
L 107.676942 217.500953 
L 107.239592 215.2241 
L 106.758775 212.898524 
L 106.269116 210.563159 
L 105.805833 208.257115 
L 105.402379 206.018983 
L 105.088203 203.886153 
L 104.886773 201.894159 
L 104.813992 200.076064 
L 104.877116 198.461891 
L 105.074235 197.07812 
L 105.394365 195.947255 
L 105.81813 195.087468 
L 106.31901 194.512329 
L 106.865051 194.230615 
L 107.420944 194.246213 
L 107.950329 194.558103 
L 108.41817 195.160424 
L 108.793056 196.04262 
L 109.049269 197.189657 
L 109.168483 198.582304 
L 109.140994 200.197477 
L 108.966378 202.008631 
L 108.653565 203.986195 
L 108.220285 206.098052 
L 107.691964 208.310039 
L 107.100099 210.586476 
L 106.480256 212.890709 
L 105.869789 215.185664 
L 105.305453 217.43441 
L 104.821052 219.60071 
L 104.445276 221.649576 
L 104.199875 223.547801 
L 104.098286 225.264482 
L 104.14479 226.771504 
L 104.334278 228.044 
L 104.652615 229.060765 
L 105.077594 229.804629 
L 105.580412 230.262765 
z
" style="fill:#0000ff;stroke:#000000;stroke-linejoin:miter;"/>
   </g>
   <g id="patch_5">
    <path clip-path="url(#p5f335875c2)" d="M 104.602859 284.765554 
L 105.158361 284.632318 
L 105.686077 284.203098 
L 106.152099 283.484235 
L 106.52695 282.48692 
L 106.787495 281.227052 
L 106.918432 279.725009 
L 106.913264 278.005333 
L 106.774692 276.096333 
L 106.514397 274.02962 
L 106.152232 271.839566 
L 105.714883 269.562713 
L 105.234065 267.237137 
L 104.744406 264.901772 
L 104.281123 262.595728 
L 103.877669 260.357596 
L 103.563493 258.224766 
L 103.362063 256.232772 
L 103.289282 254.414677 
L 103.352406 252.800504 
L 103.549526 251.416733 
L 103.869655 250.285868 
L 104.29342 249.426081 
L 104.7943 248.850942 
L 105.340341 248.569228 
L 105.896234 248.584826 
L 106.425619 248.896716 
L 106.89346 249.499037 
L 107.268346 250.381233 
L 107.524559 251.52827 
L 107.643774 252.920917 
L 107.616284 254.53609 
L 107.441669 256.347243 
L 107.128855 258.324808 
L 106.695576 260.436665 
L 106.167254 262.648652 
L 105.57539 264.925089 
L 104.955546 267.229322 
L 104.345079 269.524277 
L 103.780744 271.773023 
L 103.296342 273.939323 
L 102.920566 275.988189 
L 102.675166 277.886414 
L 102.573576 279.603095 
L 102.62008 281.110117 
L 102.809568 282.382613 
L 103.127905 283.399378 
L 103.552884 284.143242 
L 104.055702 284.601378 
z
" style="fill:#0000ff;stroke:#000000;stroke-linejoin:miter;"/>
   </g>
   <g id="patch_6">
    <path clip-path="url(#p5f335875c2)" d="M 96.807832 271.857838 
L 98.637484 206.651502 
L 93.203623 206.499031 
L 91.373971 271.705367 
z
" style="fill:#999999;stroke:#000000;stroke-linejoin:miter;"/>
   </g>
   <g id="text_1">
    <!-- t = 0.0 -->
    <defs>
     <path d="M 18.3125 70.21875 
L 18.3125 54.6875 
L 36.8125 54.6875 
L 36.8125 47.703125 
L 18.3125 47.703125 
L 18.3125 18.015625 
Q 18.3125 11.328125 20.140625 9.421875 
Q 21.96875 7.515625 27.59375 7.515625 
L 36.8125 7.515625 
L 36.8125 0 
L 27.59375 0 
Q 17.1875 0 13.234375 3.875 
Q 9.28125 7.765625 9.28125 18.015625 
L 9.28125 47.703125 
L 2.6875 47.703125 
L 2.6875 54.6875 
L 9.28125 54.6875 
L 9.28125 70.21875 
z
" id="DejaVuSans-116"/>
     <path id="DejaVuSans-32"/>
     <path d="M 10.59375 45.40625 
L 73.1875 45.40625 
L 73.1875 37.203125 
L 10.59375 37.203125 
z
M 10.59375 25.484375 
L 73.1875 25.484375 
L 73.1875 17.1875 
L 10.59375 17.1875 
z
" id="DejaVuSans-61"/>
     <path d="M 31.78125 66.40625 
Q 24.171875 66.40625 20.328125 58.90625 
Q 16.5 51.421875 16.5 36.375 
Q 16.5 21.390625 20.328125 13.890625 
Q 24.171875 6.390625 31.78125 6.390625 
Q 39.453125 6.390625 43.28125 13.890625 
Q 47.125 21.390625 47.125 36.375 
Q 47.125 51.421875 43.28125 58.90625 
Q 39.453125 66.40625 31.78125 66.40625 
z
M 31.78125 74.21875 
Q 44.046875 74.21875 50.515625 64.515625 
Q 56.984375 54.828125 56.984375 36.375 
Q 56.984375 17.96875 50.515625 8.265625 
Q 44.046875 -1.421875 31.78125 -1.421875 
Q 19.53125 -1.421875 13.0625 8.265625 
Q 6.59375 17.96875 6.59375 36.375 
Q 6.59375 54.828125 13.0625 64.515625 
Q 19.53125 74.21875 31.78125 74.21875 
z
" id="DejaVuSans-48"/>
     <path d="M 10.6875 12.40625 
L 21 12.40625 
L 21 0 
L 10.6875 0 
z
" id="DejaVuSans-46"/>
    </defs>
    <g transform="translate(200.664375 28.56)scale(0.12 -0.12)">
     <use xlink:href="#DejaVuSans-116"/>
     <use x="39.208984" xlink:href="#DejaVuSans-32"/>
     <use x="70.996094" xlink:href="#DejaVuSans-61"/>
     <use x="154.785156" xlink:href="#DejaVuSans-32"/>
     <use x="186.572266" xlink:href="#DejaVuSans-48"/>
     <use x="250.195312" xlink:href="#DejaVuSans-46"/>
     <use x="281.982422" xlink:href="#DejaVuSans-48"/>
    </g>
   </g>
  </g>
 </g>
 <defs>
  <clipPath id="p5f335875c2">
   <rect height="217.44" width="334.8" x="54" y="34.56"/>
  </clipPath>
 </defs>
</svg>
