<?xml version="1.0" encoding="utf-8" standalone="no"?>
<!DOCTYPE svg PUBLIC "-//W3C//DTD SVG 1.1//EN"
  "http://www.w3.org/Graphics/SVG/1.1/DTD/svg11.dtd">
<!-- Created with matplotlib (https://matplotlib.org/) -->
<svg height="288pt" version="1.1" viewBox="0 0 432 288" width="432pt" xmlns="http://www.w3.org/2000/svg" xmlns:xlink="http://www.w3.org/1999/xlink">
 <defs>
  <style type="text/css">
*{stroke-linecap:butt;stroke-linejoin:round;}
  </style>
 </defs>
 <g id="figure_1">
  <g id="patch_1">
   <path d="M 0 288 
L 432 288 
L 432 0 
L 0 0 
z
" style="fill:#ffffff;"/>
  </g>
  <g id="axes_1">
   <g id="patch_2">
    <path clip-path="url(#p5a47921e00)" d="M 195.165165 132.513822 
L 195.170075 143.385821 
L 194.082875 143.386312 
L 194.077966 132.514313 
z
" style="stroke:#000000;stroke-linejoin:miter;"/>
   </g>
   <g id="patch_3">
    <path clip-path="url(#p5a47921e00)" d="M 249.52516 132.489273 
L 249.53007 143.361272 
L 248.44287 143.361763 
L 248.43796 132.489764 
z
" style="stroke:#000000;stroke-linejoin:miter;"/>
   </g>
   <g id="patch_4">
    <path clip-path="url(#p5a47921e00)" d="M 212.741564 132.505885 
L 212.59255 131.954406 
L 212.148465 131.439136 
L 211.416612 130.993791 
L 210.409019 130.647516 
L 209.142237 130.422983 
L 207.637073 130.334907 
L 205.918242 130.389083 
L 204.013967 130.582005 
L 201.955512 130.901095 
L 199.776669 131.325529 
L 197.513206 131.827591 
L 195.202277 132.374491 
L 192.881816 132.930509 
L 190.589913 133.459326 
L 188.364188 133.926402 
L 186.241178 134.301235 
L 184.255734 134.559355 
L 182.440452 134.683922 
L 180.825135 134.666827 
L 179.436308 134.509225 
L 178.296779 134.221455 
L 177.425264 133.822365 
L 176.836084 133.338081 
L 176.538922 132.80029 
L 176.538671 132.244178 
L 176.835347 131.70612 
L 177.42409 131.221303 
L 178.295244 130.821426 
L 179.434513 130.532627 
L 180.823197 130.373771 
L 182.438497 130.355217 
L 184.253891 130.478144 
L 186.239567 130.734471 
L 188.362915 131.107386 
L 190.589061 131.572452 
L 192.881441 132.099198 
L 195.202403 132.65312 
L 197.513825 133.197933 
L 199.777741 133.697951 
L 201.956966 134.120416 
L 204.015708 134.437647 
L 205.920157 134.628849 
L 207.639036 134.681472 
L 209.14412 134.592037 
L 210.410699 134.36636 
L 211.417979 134.019175 
L 212.149428 133.573169 
L 212.593048 133.057499 
z
" style="fill:#0000ff;stroke:#000000;stroke-linejoin:miter;"/>
   </g>
   <g id="patch_5">
    <path clip-path="url(#p5a47921e00)" d="M 267.101558 132.481336 
L 266.952544 131.929857 
L 266.508459 131.414587 
L 265.776607 130.969242 
L 264.769014 130.622967 
L 263.502232 130.398434 
L 261.997067 130.310358 
L 260.278237 130.364534 
L 258.373962 130.557456 
L 256.315506 130.876546 
L 254.136664 131.30098 
L 251.8732 131.803042 
L 249.562272 132.349942 
L 247.241811 132.90596 
L 244.949907 133.434776 
L 242.724182 133.901853 
L 240.601172 134.276686 
L 238.615729 134.534806 
L 236.800446 134.659372 
L 235.18513 134.642278 
L 233.796303 134.484676 
L 232.656773 134.196906 
L 231.785259 133.797816 
L 231.196078 133.313531 
L 230.898917 132.775741 
L 230.898666 132.219629 
L 231.195341 131.681571 
L 231.784084 131.196754 
L 232.655238 130.796877 
L 233.794507 130.508078 
L 235.183191 130.349222 
L 236.798492 130.330668 
L 238.613886 130.453595 
L 240.599562 130.709921 
L 242.722909 131.082837 
L 244.949055 131.547903 
L 247.241435 132.074649 
L 249.562397 132.628571 
L 251.873819 133.173384 
L 254.137735 133.673402 
L 256.31696 134.095867 
L 258.375703 134.413098 
L 260.280151 134.6043 
L 261.99903 134.656923 
L 263.504115 134.567488 
L 264.770693 134.341811 
L 265.777973 133.994626 
L 266.509423 133.54862 
L 266.953042 133.03295 
z
" style="fill:#0000ff;stroke:#000000;stroke-linejoin:miter;"/>
   </g>
   <g id="patch_6">
    <path clip-path="url(#p5a47921e00)" d="M 254.421242 140.641063 
L 189.189248 140.670522 
L 189.191703 146.106521 
L 254.423697 146.077063 
z
" style="fill:#999999;stroke:#000000;stroke-linejoin:miter;"/>
   </g>
   <g id="text_1">
    <!-- t = 2.0 -->
    <defs>
     <path d="M 18.3125 70.21875 
L 18.3125 54.6875 
L 36.8125 54.6875 
L 36.8125 47.703125 
L 18.3125 47.703125 
L 18.3125 18.015625 
Q 18.3125 11.328125 20.140625 9.421875 
Q 21.96875 7.515625 27.59375 7.515625 
L 36.8125 7.515625 
L 36.8125 0 
L 27.59375 0 
Q 17.1875 0 13.234375 3.875 
Q 9.28125 7.765625 9.28125 18.015625 
L 9.28125 47.703125 
L 2.6875 47.703125 
L 2.6875 54.6875 
L 9.28125 54.6875 
L 9.28125 70.21875 
z
" id="DejaVuSans-116"/>
     <path id="DejaVuSans-32"/>
     <path d="M 10.59375 45.40625 
L 73.1875 45.40625 
L 73.1875 37.203125 
L 10.59375 37.203125 
z
M 10.59375 25.484375 
L 73.1875 25.484375 
L 73.1875 17.1875 
L 10.59375 17.1875 
z
" id="DejaVuSans-61"/>
     <path d="M 19.1875 8.296875 
L 53.609375 8.296875 
L 53.609375 0 
L 7.328125 0 
L 7.328125 8.296875 
Q 12.9375 14.109375 22.625 23.890625 
Q 32.328125 33.6875 34.8125 36.53125 
Q 39.546875 41.84375 41.421875 45.53125 
Q 43.3125 49.21875 43.3125 52.78125 
Q 43.3125 58.59375 39.234375 62.25 
Q 35.15625 65.921875 28.609375 65.921875 
Q 23.96875 65.921875 18.8125 64.3125 
Q 13.671875 62.703125 7.8125 59.421875 
L 7.8125 69.390625 
Q 13.765625 71.78125 18.9375 73 
Q 24.125 74.21875 28.421875 74.21875 
Q 39.75 74.21875 46.484375 68.546875 
Q 53.21875 62.890625 53.21875 53.421875 
Q 53.21875 48.921875 51.53125 44.890625 
Q 49.859375 40.875 45.40625 35.40625 
Q 44.1875 33.984375 37.640625 27.21875 
Q 31.109375 20.453125 19.1875 8.296875 
z
" id="DejaVuSans-50"/>
     <path d="M 10.6875 12.40625 
L 21 12.40625 
L 21 0 
L 10.6875 0 
z
" id="DejaVuSans-46"/>
     <path d="M 31.78125 66.40625 
Q 24.171875 66.40625 20.328125 58.90625 
Q 16.5 51.421875 16.5 36.375 
Q 16.5 21.390625 20.328125 13.890625 
Q 24.171875 6.390625 31.78125 6.390625 
Q 39.453125 6.390625 43.28125 13.890625 
Q 47.125 21.390625 47.125 36.375 
Q 47.125 51.421875 43.28125 58.90625 
Q 39.453125 66.40625 31.78125 66.40625 
z
M 31.78125 74.21875 
Q 44.046875 74.21875 50.515625 64.515625 
Q 56.984375 54.828125 56.984375 36.375 
Q 56.984375 17.96875 50.515625 8.265625 
Q 44.046875 -1.421875 31.78125 -1.421875 
Q 19.53125 -1.421875 13.0625 8.265625 
Q 6.59375 17.96875 6.59375 36.375 
Q 6.59375 54.828125 13.0625 64.515625 
Q 19.53125 74.21875 31.78125 74.21875 
z
" id="DejaVuSans-48"/>
    </defs>
    <g transform="translate(200.664375 28.56)scale(0.12 -0.12)">
     <use xlink:href="#DejaVuSans-116"/>
     <use x="39.208984" xlink:href="#DejaVuSans-32"/>
     <use x="70.996094" xlink:href="#DejaVuSans-61"/>
     <use x="154.785156" xlink:href="#DejaVuSans-32"/>
     <use x="186.572266" xlink:href="#DejaVuSans-50"/>
     <use x="250.195312" xlink:href="#DejaVuSans-46"/>
     <use x="281.982422" xlink:href="#DejaVuSans-48"/>
    </g>
   </g>
  </g>
 </g>
 <defs>
  <clipPath id="p5a47921e00">
   <rect height="217.44" width="334.8" x="54" y="34.56"/>
  </clipPath>
 </defs>
</svg>
