<?xml version="1.0" encoding="utf-8" standalone="no"?>
<!DOCTYPE svg PUBLIC "-//W3C//DTD SVG 1.1//EN"
  "http://www.w3.org/Graphics/SVG/1.1/DTD/svg11.dtd">
<!-- Created with matplotlib (https://matplotlib.org/) -->
<svg height="288pt" version="1.1" viewBox="0 0 432 288" width="432pt" xmlns="http://www.w3.org/2000/svg" xmlns:xlink="http://www.w3.org/1999/xlink">
 <defs>
  <style type="text/css">
*{stroke-linecap:butt;stroke-linejoin:round;}
  </style>
 </defs>
 <g id="figure_1">
  <g id="patch_1">
   <path d="M 0 288 
L 432 288 
L 432 0 
L 0 0 
z
" style="fill:#ffffff;"/>
  </g>
  <g id="axes_1">
   <g id="patch_2">
    <path clip-path="url(#p4e8700f7ec)" d="M 101.129861 191.247 
L 96.516353 201.091589 
L 95.531894 200.630238 
L 100.145402 190.785649 
z
" style="stroke:#000000;stroke-linejoin:miter;"/>
   </g>
   <g id="patch_3">
    <path clip-path="url(#p4e8700f7ec)" d="M 150.352806 214.314538 
L 145.739298 224.159127 
L 144.754839 223.697776 
L 149.368347 213.853188 
z
" style="stroke:#000000;stroke-linejoin:miter;"/>
   </g>
   <g id="patch_4">
    <path clip-path="url(#p4e8700f7ec)" d="M 117.04528 198.705504 
L 117.144621 198.142951 
L 116.961451 197.487846 
L 116.488063 196.773812 
L 115.722964 196.032345 
L 114.671509 195.291 
L 113.346282 194.571935 
L 111.7672 193.890897 
L 109.961301 193.256697 
L 107.96223 192.67123 
L 105.809426 192.129995 
L 103.547041 191.623095 
L 101.22264 191.136626 
L 98.885737 190.654362 
L 96.586241 190.159603 
L 94.372882 189.637059 
L 92.291692 189.074636 
L 90.384616 188.464984 
L 88.688317 187.806702 
L 87.23322 187.10511 
L 86.042847 186.372518 
L 85.133454 185.627975 
L 84.513981 184.896495 
L 84.186295 184.20781 
L 84.145702 183.594723 
L 84.381687 183.091164 
L 84.878814 182.73007 
L 85.617736 182.541234 
L 86.576249 182.549251 
L 87.730307 182.771711 
L 89.054968 183.21775 
L 90.525193 183.887063 
L 92.116469 184.76945 
L 93.80524 185.844933 
L 95.569125 187.084442 
L 97.386932 188.45104 
L 99.238502 189.901611 
L 101.104405 191.388924 
L 102.96554 192.863939 
L 104.802694 194.278222 
L 106.596119 195.586323 
L 108.325168 196.747979 
L 109.968065 197.730002 
L 111.501828 198.507748 
L 112.90238 199.066076 
L 114.144881 199.399756 
L 115.204248 199.513296 
L 116.05588 199.420211 
L 116.676526 199.141801 
z
" style="fill:#0000ff;stroke:#000000;stroke-linejoin:miter;"/>
   </g>
   <g id="patch_5">
    <path clip-path="url(#p4e8700f7ec)" d="M 166.268224 221.773042 
L 166.367565 221.210489 
L 166.184396 220.555384 
L 165.711008 219.841351 
L 164.945908 219.099883 
L 163.894453 218.358538 
L 162.569227 217.639474 
L 160.990145 216.958435 
L 159.184246 216.324235 
L 157.185175 215.738768 
L 155.032371 215.197533 
L 152.769986 214.690633 
L 150.445585 214.204164 
L 148.108682 213.7219 
L 145.809186 213.227141 
L 143.595827 212.704597 
L 141.514636 212.142175 
L 139.607561 211.532522 
L 137.911262 210.87424 
L 136.456165 210.172648 
L 135.265791 209.440056 
L 134.356399 208.695514 
L 133.736926 207.964033 
L 133.409239 207.275348 
L 133.368647 206.662261 
L 133.604632 206.158702 
L 134.101758 205.797609 
L 134.840681 205.608773 
L 135.799193 205.61679 
L 136.953251 205.83925 
L 138.277913 206.285289 
L 139.748138 206.954601 
L 141.339414 207.836988 
L 143.028185 208.912471 
L 144.792069 210.151981 
L 146.609876 211.518578 
L 148.461447 212.969149 
L 150.327349 214.456462 
L 152.188484 215.931477 
L 154.025639 217.34576 
L 155.819063 218.653861 
L 157.548113 219.815518 
L 159.19101 220.797541 
L 160.724772 221.575286 
L 162.125325 222.133614 
L 163.367825 222.467295 
L 164.427193 222.580834 
L 165.278824 222.487749 
L 165.89947 222.209339 
z
" style="fill:#0000ff;stroke:#000000;stroke-linejoin:miter;"/>
   </g>
   <g id="patch_6">
    <path clip-path="url(#p4e8700f7ec)" d="M 151.32274 223.774058 
L 92.255206 196.093012 
L 89.948453 201.015307 
L 149.015986 228.696353 
z
" style="fill:#999999;stroke:#000000;stroke-linejoin:miter;"/>
   </g>
   <g id="text_1">
    <!-- t = 0.1 -->
    <defs>
     <path d="M 18.3125 70.21875 
L 18.3125 54.6875 
L 36.8125 54.6875 
L 36.8125 47.703125 
L 18.3125 47.703125 
L 18.3125 18.015625 
Q 18.3125 11.328125 20.140625 9.421875 
Q 21.96875 7.515625 27.59375 7.515625 
L 36.8125 7.515625 
L 36.8125 0 
L 27.59375 0 
Q 17.1875 0 13.234375 3.875 
Q 9.28125 7.765625 9.28125 18.015625 
L 9.28125 47.703125 
L 2.6875 47.703125 
L 2.6875 54.6875 
L 9.28125 54.6875 
L 9.28125 70.21875 
z
" id="DejaVuSans-116"/>
     <path id="DejaVuSans-32"/>
     <path d="M 10.59375 45.40625 
L 73.1875 45.40625 
L 73.1875 37.203125 
L 10.59375 37.203125 
z
M 10.59375 25.484375 
L 73.1875 25.484375 
L 73.1875 17.1875 
L 10.59375 17.1875 
z
" id="DejaVuSans-61"/>
     <path d="M 31.78125 66.40625 
Q 24.171875 66.40625 20.328125 58.90625 
Q 16.5 51.421875 16.5 36.375 
Q 16.5 21.390625 20.328125 13.890625 
Q 24.171875 6.390625 31.78125 6.390625 
Q 39.453125 6.390625 43.28125 13.890625 
Q 47.125 21.390625 47.125 36.375 
Q 47.125 51.421875 43.28125 58.90625 
Q 39.453125 66.40625 31.78125 66.40625 
z
M 31.78125 74.21875 
Q 44.046875 74.21875 50.515625 64.515625 
Q 56.984375 54.828125 56.984375 36.375 
Q 56.984375 17.96875 50.515625 8.265625 
Q 44.046875 -1.421875 31.78125 -1.421875 
Q 19.53125 -1.421875 13.0625 8.265625 
Q 6.59375 17.96875 6.59375 36.375 
Q 6.59375 54.828125 13.0625 64.515625 
Q 19.53125 74.21875 31.78125 74.21875 
z
" id="DejaVuSans-48"/>
     <path d="M 10.6875 12.40625 
L 21 12.40625 
L 21 0 
L 10.6875 0 
z
" id="DejaVuSans-46"/>
     <path d="M 12.40625 8.296875 
L 28.515625 8.296875 
L 28.515625 63.921875 
L 10.984375 60.40625 
L 10.984375 69.390625 
L 28.421875 72.90625 
L 38.28125 72.90625 
L 38.28125 8.296875 
L 54.390625 8.296875 
L 54.390625 0 
L 12.40625 0 
z
" id="DejaVuSans-49"/>
    </defs>
    <g transform="translate(200.664375 28.56)scale(0.12 -0.12)">
     <use xlink:href="#DejaVuSans-116"/>
     <use x="39.208984" xlink:href="#DejaVuSans-32"/>
     <use x="70.996094" xlink:href="#DejaVuSans-61"/>
     <use x="154.785156" xlink:href="#DejaVuSans-32"/>
     <use x="186.572266" xlink:href="#DejaVuSans-48"/>
     <use x="250.195312" xlink:href="#DejaVuSans-46"/>
     <use x="281.982422" xlink:href="#DejaVuSans-49"/>
    </g>
   </g>
  </g>
 </g>
 <defs>
  <clipPath id="p4e8700f7ec">
   <rect height="217.44" width="334.8" x="54" y="34.56"/>
  </clipPath>
 </defs>
</svg>
