<?xml version="1.0" encoding="utf-8" standalone="no"?>
<!DOCTYPE svg PUBLIC "-//W3C//DTD SVG 1.1//EN"
  "http://www.w3.org/Graphics/SVG/1.1/DTD/svg11.dtd">
<!-- Created with matplotlib (https://matplotlib.org/) -->
<svg height="288pt" version="1.1" viewBox="0 0 432 288" width="432pt" xmlns="http://www.w3.org/2000/svg" xmlns:xlink="http://www.w3.org/1999/xlink">
 <defs>
  <style type="text/css">
*{stroke-linecap:butt;stroke-linejoin:round;}
  </style>
 </defs>
 <g id="figure_1">
  <g id="patch_1">
   <path d="M 0 288 
L 432 288 
L 432 0 
L 0 0 
z
" style="fill:#ffffff;"/>
  </g>
  <g id="axes_1">
   <g id="patch_2">
    <path clip-path="url(#p00328eda18)" d="M 194.859051 132.388425 
L 194.848146 143.260419 
L 193.760947 143.259329 
L 193.771851 132.387334 
z
" style="stroke:#000000;stroke-linejoin:miter;"/>
   </g>
   <g id="patch_3">
    <path clip-path="url(#p00328eda18)" d="M 249.219023 132.442946 
L 249.208119 143.314941 
L 248.12092 143.31385 
L 248.131824 132.441856 
z
" style="stroke:#000000;stroke-linejoin:miter;"/>
   </g>
   <g id="patch_4">
    <path clip-path="url(#p00328eda18)" d="M 212.435442 132.406053 
L 212.28723 131.854358 
L 211.843895 131.338443 
L 211.112691 130.892034 
L 210.105603 130.544293 
L 208.839149 130.317918 
L 207.334114 130.227653 
L 205.615207 130.279329 
L 203.710653 130.46948 
L 201.651736 130.785576 
L 199.472278 131.20684 
L 197.208087 131.705609 
L 194.896365 132.249148 
L 192.575098 132.80179 
L 190.282427 133.327272 
L 188.056026 133.79111 
L 185.932473 134.162855 
L 183.946656 134.418087 
L 182.131194 134.540012 
L 180.515904 134.520568 
L 179.127308 134.360946 
L 177.988198 134.071519 
L 177.117265 133.671162 
L 176.52879 133.186021 
L 176.232411 132.647799 
L 176.232968 132.091687 
L 176.530426 131.554061 
L 177.119874 131.070101 
L 177.991608 130.671492 
L 179.131296 130.38435 
L 180.52021 130.227514 
L 182.135536 130.21131 
L 183.950749 130.336877 
L 185.93605 130.596092 
L 188.058853 130.972096 
L 190.28432 131.440399 
L 192.575932 131.970479 
L 194.896086 132.527776 
L 197.206712 133.075951 
L 199.469899 133.579261 
L 201.648507 134.004896 
L 203.706786 134.325121 
L 205.610954 134.519093 
L 207.329755 134.574216 
L 208.834968 134.486971 
L 210.101873 134.263136 
L 211.109657 133.917417 
L 211.841755 133.472475 
L 212.286124 132.95745 
z
" style="fill:#0000ff;stroke:#000000;stroke-linejoin:miter;"/>
   </g>
   <g id="patch_5">
    <path clip-path="url(#p00328eda18)" d="M 266.795415 132.460575 
L 266.647203 131.908879 
L 266.203868 131.392965 
L 265.472664 130.946555 
L 264.465576 130.598815 
L 263.199122 130.37244 
L 261.694087 130.282175 
L 259.975179 130.33385 
L 258.070626 130.524002 
L 256.011709 130.840098 
L 253.832251 131.261362 
L 251.568059 131.760131 
L 249.256338 132.303669 
L 246.93507 132.856311 
L 244.6424 133.381793 
L 242.415998 133.845632 
L 240.292445 134.217377 
L 238.306628 134.472608 
L 236.491167 134.594534 
L 234.875877 134.57509 
L 233.487281 134.415468 
L 232.348171 134.126041 
L 231.477238 133.725684 
L 230.888762 133.240543 
L 230.592383 132.702321 
L 230.592941 132.146209 
L 230.890399 131.608582 
L 231.479847 131.124622 
L 232.351581 130.726013 
L 233.491269 130.438872 
L 234.880183 130.282036 
L 236.495508 130.265832 
L 238.310722 130.391399 
L 240.296023 130.650613 
L 242.418826 131.026617 
L 244.644293 131.494921 
L 246.935904 132.025001 
L 249.256058 132.582298 
L 251.566685 133.130473 
L 253.829871 133.633783 
L 256.00848 134.059417 
L 258.066759 134.379643 
L 259.970927 134.573614 
L 261.689728 134.628738 
L 263.19494 134.541492 
L 264.461846 134.317658 
L 265.46963 133.971938 
L 266.201728 133.526996 
L 266.646096 133.011972 
z
" style="fill:#0000ff;stroke:#000000;stroke-linejoin:miter;"/>
   </g>
   <g id="patch_6">
    <path clip-path="url(#p00328eda18)" d="M 254.103243 140.601849 
L 188.871275 140.536423 
L 188.865823 145.972421 
L 254.097791 146.037846 
z
" style="fill:#999999;stroke:#000000;stroke-linejoin:miter;"/>
   </g>
   <g id="text_1">
    <!-- t = 3.1 -->
    <defs>
     <path d="M 18.3125 70.21875 
L 18.3125 54.6875 
L 36.8125 54.6875 
L 36.8125 47.703125 
L 18.3125 47.703125 
L 18.3125 18.015625 
Q 18.3125 11.328125 20.140625 9.421875 
Q 21.96875 7.515625 27.59375 7.515625 
L 36.8125 7.515625 
L 36.8125 0 
L 27.59375 0 
Q 17.1875 0 13.234375 3.875 
Q 9.28125 7.765625 9.28125 18.015625 
L 9.28125 47.703125 
L 2.6875 47.703125 
L 2.6875 54.6875 
L 9.28125 54.6875 
L 9.28125 70.21875 
z
" id="DejaVuSans-116"/>
     <path id="DejaVuSans-32"/>
     <path d="M 10.59375 45.40625 
L 73.1875 45.40625 
L 73.1875 37.203125 
L 10.59375 37.203125 
z
M 10.59375 25.484375 
L 73.1875 25.484375 
L 73.1875 17.1875 
L 10.59375 17.1875 
z
" id="DejaVuSans-61"/>
     <path d="M 40.578125 39.3125 
Q 47.65625 37.796875 51.625 33 
Q 55.609375 28.21875 55.609375 21.1875 
Q 55.609375 10.40625 48.1875 4.484375 
Q 40.765625 -1.421875 27.09375 -1.421875 
Q 22.515625 -1.421875 17.65625 -0.515625 
Q 12.796875 0.390625 7.625 2.203125 
L 7.625 11.71875 
Q 11.71875 9.328125 16.59375 8.109375 
Q 21.484375 6.890625 26.8125 6.890625 
Q 36.078125 6.890625 40.9375 10.546875 
Q 45.796875 14.203125 45.796875 21.1875 
Q 45.796875 27.640625 41.28125 31.265625 
Q 36.765625 34.90625 28.71875 34.90625 
L 20.21875 34.90625 
L 20.21875 43.015625 
L 29.109375 43.015625 
Q 36.375 43.015625 40.234375 45.921875 
Q 44.09375 48.828125 44.09375 54.296875 
Q 44.09375 59.90625 40.109375 62.90625 
Q 36.140625 65.921875 28.71875 65.921875 
Q 24.65625 65.921875 20.015625 65.03125 
Q 15.375 64.15625 9.8125 62.3125 
L 9.8125 71.09375 
Q 15.4375 72.65625 20.34375 73.4375 
Q 25.25 74.21875 29.59375 74.21875 
Q 40.828125 74.21875 47.359375 69.109375 
Q 53.90625 64.015625 53.90625 55.328125 
Q 53.90625 49.265625 50.4375 45.09375 
Q 46.96875 40.921875 40.578125 39.3125 
z
" id="DejaVuSans-51"/>
     <path d="M 10.6875 12.40625 
L 21 12.40625 
L 21 0 
L 10.6875 0 
z
" id="DejaVuSans-46"/>
     <path d="M 12.40625 8.296875 
L 28.515625 8.296875 
L 28.515625 63.921875 
L 10.984375 60.40625 
L 10.984375 69.390625 
L 28.421875 72.90625 
L 38.28125 72.90625 
L 38.28125 8.296875 
L 54.390625 8.296875 
L 54.390625 0 
L 12.40625 0 
z
" id="DejaVuSans-49"/>
    </defs>
    <g transform="translate(200.664375 28.56)scale(0.12 -0.12)">
     <use xlink:href="#DejaVuSans-116"/>
     <use x="39.208984" xlink:href="#DejaVuSans-32"/>
     <use x="70.996094" xlink:href="#DejaVuSans-61"/>
     <use x="154.785156" xlink:href="#DejaVuSans-32"/>
     <use x="186.572266" xlink:href="#DejaVuSans-51"/>
     <use x="250.195312" xlink:href="#DejaVuSans-46"/>
     <use x="281.982422" xlink:href="#DejaVuSans-49"/>
    </g>
   </g>
  </g>
 </g>
 <defs>
  <clipPath id="p00328eda18">
   <rect height="217.44" width="334.8" x="54" y="34.56"/>
  </clipPath>
 </defs>
</svg>
