<?xml version="1.0" encoding="utf-8" standalone="no"?>
<!DOCTYPE svg PUBLIC "-//W3C//DTD SVG 1.1//EN"
  "http://www.w3.org/Graphics/SVG/1.1/DTD/svg11.dtd">
<!-- Created with matplotlib (https://matplotlib.org/) -->
<svg height="288pt" version="1.1" viewBox="0 0 432 288" width="432pt" xmlns="http://www.w3.org/2000/svg" xmlns:xlink="http://www.w3.org/1999/xlink">
 <defs>
  <style type="text/css">
*{stroke-linecap:butt;stroke-linejoin:round;}
  </style>
 </defs>
 <g id="figure_1">
  <g id="patch_1">
   <path d="M 0 288 
L 432 288 
L 432 0 
L 0 0 
z
" style="fill:#ffffff;"/>
  </g>
  <g id="axes_1">
   <g id="patch_2">
    <path clip-path="url(#pa5c48b004c)" d="M 198.459707 138.835087 
L 196.596829 149.5463 
L 195.525708 149.360012 
L 197.388586 138.6488 
z
" style="stroke:#000000;stroke-linejoin:miter;"/>
   </g>
   <g id="patch_3">
    <path clip-path="url(#pa5c48b004c)" d="M 252.015769 148.149476 
L 250.152891 158.860688 
L 249.08177 158.674401 
L 250.944648 147.963188 
z
" style="stroke:#000000;stroke-linejoin:miter;"/>
   </g>
   <g id="patch_4">
    <path clip-path="url(#pa5c48b004c)" d="M 215.776167 141.84674 
L 215.724108 141.27786 
L 215.375144 140.693961 
L 214.730678 140.12951 
L 213.797551 139.615287 
L 212.588175 139.17647 
L 211.120518 138.83113 
L 209.417934 138.58922 
L 207.508827 138.452136 
L 205.426157 138.412858 
L 203.206792 138.456676 
L 200.890729 138.56243 
L 198.520203 138.704203 
L 196.13872 138.85332 
L 193.790044 138.980546 
L 191.517168 139.058318 
L 189.361327 139.062864 
L 187.361058 138.976065 
L 185.551363 138.78693 
L 183.962998 138.492592 
L 182.621893 138.098744 
L 181.54874 137.619491 
L 180.758742 137.076617 
L 180.261517 136.498315 
L 180.061161 135.91747 
L 180.156449 135.369583 
L 180.541147 134.89049 
L 181.204425 134.514021 
L 182.131323 134.269746 
L 183.303268 134.180957 
L 184.698597 134.263026 
L 186.293071 134.522243 
L 188.060358 134.955211 
L 189.97248 135.548849 
L 192.000196 136.280993 
L 194.113353 137.121577 
L 196.281162 138.034303 
L 198.472461 138.978711 
L 200.655925 139.912507 
L 202.800286 140.794012 
L 204.874538 141.584568 
L 206.848176 142.250758 
L 208.691465 142.766284 
L 210.37575 143.113414 
L 211.873823 143.283868 
L 213.160341 143.279134 
L 214.212289 143.110152 
L 215.009485 142.796433 
L 215.535097 142.364639 
z
" style="fill:#0000ff;stroke:#000000;stroke-linejoin:miter;"/>
   </g>
   <g id="patch_5">
    <path clip-path="url(#pa5c48b004c)" d="M 269.332229 151.161128 
L 269.28017 150.592248 
L 268.931206 150.008349 
L 268.28674 149.443899 
L 267.353613 148.929676 
L 266.144237 148.490859 
L 264.67658 148.145519 
L 262.973996 147.903609 
L 261.064888 147.766525 
L 258.982218 147.727247 
L 256.762854 147.771064 
L 254.446791 147.876819 
L 252.076265 148.018592 
L 249.694782 148.167708 
L 247.346106 148.294934 
L 245.07323 148.372706 
L 242.917389 148.377253 
L 240.91712 148.290453 
L 239.107425 148.101318 
L 237.51906 147.80698 
L 236.177954 147.413133 
L 235.104802 146.93388 
L 234.314804 146.391005 
L 233.817579 145.812704 
L 233.617223 145.231859 
L 233.712511 144.683971 
L 234.097209 144.204878 
L 234.760487 143.82841 
L 235.687385 143.584135 
L 236.85933 143.495346 
L 238.254659 143.577415 
L 239.849133 143.836631 
L 241.61642 144.2696 
L 243.528541 144.863237 
L 245.556258 145.595382 
L 247.669415 146.435966 
L 249.837224 147.348692 
L 252.028523 148.2931 
L 254.211987 149.226895 
L 256.356348 150.1084 
L 258.4306 150.898957 
L 260.404238 151.565146 
L 262.247527 152.080673 
L 263.931812 152.427802 
L 265.429885 152.598257 
L 266.716403 152.593522 
L 267.768351 152.42454 
L 268.565547 152.110821 
L 269.091159 151.679027 
z
" style="fill:#0000ff;stroke:#000000;stroke-linejoin:miter;"/>
   </g>
   <g id="patch_6">
    <path clip-path="url(#pa5c48b004c)" d="M 255.438656 157.02118 
L 191.171382 145.843914 
L 190.239943 151.19952 
L 254.507217 162.376786 
z
" style="fill:#999999;stroke:#000000;stroke-linejoin:miter;"/>
   </g>
   <g id="text_1">
    <!-- t = 0.9 -->
    <defs>
     <path d="M 18.3125 70.21875 
L 18.3125 54.6875 
L 36.8125 54.6875 
L 36.8125 47.703125 
L 18.3125 47.703125 
L 18.3125 18.015625 
Q 18.3125 11.328125 20.140625 9.421875 
Q 21.96875 7.515625 27.59375 7.515625 
L 36.8125 7.515625 
L 36.8125 0 
L 27.59375 0 
Q 17.1875 0 13.234375 3.875 
Q 9.28125 7.765625 9.28125 18.015625 
L 9.28125 47.703125 
L 2.6875 47.703125 
L 2.6875 54.6875 
L 9.28125 54.6875 
L 9.28125 70.21875 
z
" id="DejaVuSans-116"/>
     <path id="DejaVuSans-32"/>
     <path d="M 10.59375 45.40625 
L 73.1875 45.40625 
L 73.1875 37.203125 
L 10.59375 37.203125 
z
M 10.59375 25.484375 
L 73.1875 25.484375 
L 73.1875 17.1875 
L 10.59375 17.1875 
z
" id="DejaVuSans-61"/>
     <path d="M 31.78125 66.40625 
Q 24.171875 66.40625 20.328125 58.90625 
Q 16.5 51.421875 16.5 36.375 
Q 16.5 21.390625 20.328125 13.890625 
Q 24.171875 6.390625 31.78125 6.390625 
Q 39.453125 6.390625 43.28125 13.890625 
Q 47.125 21.390625 47.125 36.375 
Q 47.125 51.421875 43.28125 58.90625 
Q 39.453125 66.40625 31.78125 66.40625 
z
M 31.78125 74.21875 
Q 44.046875 74.21875 50.515625 64.515625 
Q 56.984375 54.828125 56.984375 36.375 
Q 56.984375 17.96875 50.515625 8.265625 
Q 44.046875 -1.421875 31.78125 -1.421875 
Q 19.53125 -1.421875 13.0625 8.265625 
Q 6.59375 17.96875 6.59375 36.375 
Q 6.59375 54.828125 13.0625 64.515625 
Q 19.53125 74.21875 31.78125 74.21875 
z
" id="DejaVuSans-48"/>
     <path d="M 10.6875 12.40625 
L 21 12.40625 
L 21 0 
L 10.6875 0 
z
" id="DejaVuSans-46"/>
     <path d="M 10.984375 1.515625 
L 10.984375 10.5 
Q 14.703125 8.734375 18.5 7.8125 
Q 22.3125 6.890625 25.984375 6.890625 
Q 35.75 6.890625 40.890625 13.453125 
Q 46.046875 20.015625 46.78125 33.40625 
Q 43.953125 29.203125 39.59375 26.953125 
Q 35.25 24.703125 29.984375 24.703125 
Q 19.046875 24.703125 12.671875 31.3125 
Q 6.296875 37.9375 6.296875 49.421875 
Q 6.296875 60.640625 12.9375 67.421875 
Q 19.578125 74.21875 30.609375 74.21875 
Q 43.265625 74.21875 49.921875 64.515625 
Q 56.59375 54.828125 56.59375 36.375 
Q 56.59375 19.140625 48.40625 8.859375 
Q 40.234375 -1.421875 26.421875 -1.421875 
Q 22.703125 -1.421875 18.890625 -0.6875 
Q 15.09375 0.046875 10.984375 1.515625 
z
M 30.609375 32.421875 
Q 37.25 32.421875 41.125 36.953125 
Q 45.015625 41.5 45.015625 49.421875 
Q 45.015625 57.28125 41.125 61.84375 
Q 37.25 66.40625 30.609375 66.40625 
Q 23.96875 66.40625 20.09375 61.84375 
Q 16.21875 57.28125 16.21875 49.421875 
Q 16.21875 41.5 20.09375 36.953125 
Q 23.96875 32.421875 30.609375 32.421875 
z
" id="DejaVuSans-57"/>
    </defs>
    <g transform="translate(200.664375 28.56)scale(0.12 -0.12)">
     <use xlink:href="#DejaVuSans-116"/>
     <use x="39.208984" xlink:href="#DejaVuSans-32"/>
     <use x="70.996094" xlink:href="#DejaVuSans-61"/>
     <use x="154.785156" xlink:href="#DejaVuSans-32"/>
     <use x="186.572266" xlink:href="#DejaVuSans-48"/>
     <use x="250.195312" xlink:href="#DejaVuSans-46"/>
     <use x="281.982422" xlink:href="#DejaVuSans-57"/>
    </g>
   </g>
  </g>
 </g>
 <defs>
  <clipPath id="pa5c48b004c">
   <rect height="217.44" width="334.8" x="54" y="34.56"/>
  </clipPath>
 </defs>
</svg>
