<?xml version="1.0" encoding="utf-8" standalone="no"?>
<!DOCTYPE svg PUBLIC "-//W3C//DTD SVG 1.1//EN"
  "http://www.w3.org/Graphics/SVG/1.1/DTD/svg11.dtd">
<!-- Created with matplotlib (https://matplotlib.org/) -->
<svg height="288pt" version="1.1" viewBox="0 0 432 288" width="432pt" xmlns="http://www.w3.org/2000/svg" xmlns:xlink="http://www.w3.org/1999/xlink">
 <defs>
  <style type="text/css">
*{stroke-linecap:butt;stroke-linejoin:round;}
  </style>
 </defs>
 <g id="figure_1">
  <g id="patch_1">
   <path d="M 0 288 
L 432 288 
L 432 0 
L 0 0 
z
" style="fill:#ffffff;"/>
  </g>
  <g id="axes_1">
   <g id="patch_2">
    <path clip-path="url(#p0bc1772e77)" d="M 194.765401 132.40814 
L 194.765817 143.28014 
L 193.678617 143.280182 
L 193.678201 132.408182 
z
" style="stroke:#000000;stroke-linejoin:miter;"/>
   </g>
   <g id="patch_3">
    <path clip-path="url(#p0bc1772e77)" d="M 249.125401 132.40606 
L 249.125817 143.27806 
L 248.038617 143.278102 
L 248.038201 132.406102 
z
" style="stroke:#000000;stroke-linejoin:miter;"/>
   </g>
   <g id="patch_4">
    <path clip-path="url(#p0bc1772e77)" d="M 212.341801 132.407468 
L 212.193015 131.855927 
L 211.749143 131.340474 
L 211.017475 130.894826 
L 210.010025 130.548135 
L 208.743336 130.323078 
L 207.238208 130.23438 
L 205.519355 130.287846 
L 203.615 130.47998 
L 201.556413 130.79822 
L 199.377395 131.221753 
L 197.113725 131.722879 
L 194.80257 132.268825 
L 192.481879 132.823883 
L 190.189758 133.351752 
L 187.96384 133.817908 
L 185.840675 134.191864 
L 183.855125 134.449164 
L 182.039792 134.57298 
L 180.424482 134.555217 
L 179.03572 134.397041 
L 177.89631 134.1088 
L 177.02496 133.709351 
L 176.43598 133.224822 
L 176.139041 132.686909 
L 176.13902 132.130797 
L 176.435918 131.592861 
L 177.024861 131.108288 
L 177.89618 130.708772 
L 179.035568 130.420444 
L 180.424318 130.262161 
L 182.039626 130.244275 
L 183.854969 130.367952 
L 185.840539 130.625099 
L 187.963732 130.998893 
L 190.189685 131.464879 
L 192.481848 131.992572 
L 194.802581 132.547453 
L 197.113777 133.093222 
L 199.377486 133.594175 
L 201.556537 134.017541 
L 203.615148 134.335623 
L 205.519517 134.527612 
L 207.238374 134.580946 
L 208.743495 134.492133 
L 210.010167 134.266979 
L 211.01759 133.920211 
L 211.749225 133.474507 
L 212.193057 132.95902 
z
" style="fill:#0000ff;stroke:#000000;stroke-linejoin:miter;"/>
   </g>
   <g id="patch_5">
    <path clip-path="url(#p0bc1772e77)" d="M 266.701801 132.405387 
L 266.553015 131.853846 
L 266.109143 131.338394 
L 265.377475 130.892746 
L 264.370025 130.546054 
L 263.103336 130.320998 
L 261.598208 130.2323 
L 259.879355 130.285765 
L 257.975 130.4779 
L 255.916413 130.79614 
L 253.737395 131.219672 
L 251.473725 131.720799 
L 249.16257 132.266744 
L 246.841879 132.821803 
L 244.549758 133.349672 
L 242.32384 133.815828 
L 240.200675 134.189784 
L 238.215125 134.447083 
L 236.399791 134.570899 
L 234.784482 134.553137 
L 233.39572 134.394961 
L 232.25631 134.10672 
L 231.38496 133.70727 
L 230.79598 133.222742 
L 230.499041 132.684829 
L 230.49902 132.128717 
L 230.795918 131.590781 
L 231.384861 131.106207 
L 232.25618 130.706691 
L 233.395568 130.418363 
L 234.784318 130.260081 
L 236.399626 130.242195 
L 238.214969 130.365872 
L 240.200539 130.623019 
L 242.323732 130.996812 
L 244.549685 131.462798 
L 246.841848 131.990492 
L 249.162581 132.545373 
L 251.473777 133.091141 
L 253.737486 133.592095 
L 255.916537 134.015461 
L 257.975148 134.333543 
L 259.879517 134.525532 
L 261.598374 134.578865 
L 263.103495 134.490052 
L 264.370167 134.264899 
L 265.37759 133.91813 
L 266.109225 133.472426 
L 266.553057 132.95694 
z
" style="fill:#0000ff;stroke:#000000;stroke-linejoin:miter;"/>
   </g>
   <g id="patch_6">
    <path clip-path="url(#p0bc1772e77)" d="M 254.018113 140.559873 
L 188.786113 140.562369 
L 188.786321 145.998369 
L 254.018321 145.995873 
z
" style="fill:#999999;stroke:#000000;stroke-linejoin:miter;"/>
   </g>
   <g id="text_1">
    <!-- t = 3.3 -->
    <defs>
     <path d="M 18.3125 70.21875 
L 18.3125 54.6875 
L 36.8125 54.6875 
L 36.8125 47.703125 
L 18.3125 47.703125 
L 18.3125 18.015625 
Q 18.3125 11.328125 20.140625 9.421875 
Q 21.96875 7.515625 27.59375 7.515625 
L 36.8125 7.515625 
L 36.8125 0 
L 27.59375 0 
Q 17.1875 0 13.234375 3.875 
Q 9.28125 7.765625 9.28125 18.015625 
L 9.28125 47.703125 
L 2.6875 47.703125 
L 2.6875 54.6875 
L 9.28125 54.6875 
L 9.28125 70.21875 
z
" id="DejaVuSans-116"/>
     <path id="DejaVuSans-32"/>
     <path d="M 10.59375 45.40625 
L 73.1875 45.40625 
L 73.1875 37.203125 
L 10.59375 37.203125 
z
M 10.59375 25.484375 
L 73.1875 25.484375 
L 73.1875 17.1875 
L 10.59375 17.1875 
z
" id="DejaVuSans-61"/>
     <path d="M 40.578125 39.3125 
Q 47.65625 37.796875 51.625 33 
Q 55.609375 28.21875 55.609375 21.1875 
Q 55.609375 10.40625 48.1875 4.484375 
Q 40.765625 -1.421875 27.09375 -1.421875 
Q 22.515625 -1.421875 17.65625 -0.515625 
Q 12.796875 0.390625 7.625 2.203125 
L 7.625 11.71875 
Q 11.71875 9.328125 16.59375 8.109375 
Q 21.484375 6.890625 26.8125 6.890625 
Q 36.078125 6.890625 40.9375 10.546875 
Q 45.796875 14.203125 45.796875 21.1875 
Q 45.796875 27.640625 41.28125 31.265625 
Q 36.765625 34.90625 28.71875 34.90625 
L 20.21875 34.90625 
L 20.21875 43.015625 
L 29.109375 43.015625 
Q 36.375 43.015625 40.234375 45.921875 
Q 44.09375 48.828125 44.09375 54.296875 
Q 44.09375 59.90625 40.109375 62.90625 
Q 36.140625 65.921875 28.71875 65.921875 
Q 24.65625 65.921875 20.015625 65.03125 
Q 15.375 64.15625 9.8125 62.3125 
L 9.8125 71.09375 
Q 15.4375 72.65625 20.34375 73.4375 
Q 25.25 74.21875 29.59375 74.21875 
Q 40.828125 74.21875 47.359375 69.109375 
Q 53.90625 64.015625 53.90625 55.328125 
Q 53.90625 49.265625 50.4375 45.09375 
Q 46.96875 40.921875 40.578125 39.3125 
z
" id="DejaVuSans-51"/>
     <path d="M 10.6875 12.40625 
L 21 12.40625 
L 21 0 
L 10.6875 0 
z
" id="DejaVuSans-46"/>
    </defs>
    <g transform="translate(200.664375 28.56)scale(0.12 -0.12)">
     <use xlink:href="#DejaVuSans-116"/>
     <use x="39.208984" xlink:href="#DejaVuSans-32"/>
     <use x="70.996094" xlink:href="#DejaVuSans-61"/>
     <use x="154.785156" xlink:href="#DejaVuSans-32"/>
     <use x="186.572266" xlink:href="#DejaVuSans-51"/>
     <use x="250.195312" xlink:href="#DejaVuSans-46"/>
     <use x="281.982422" xlink:href="#DejaVuSans-51"/>
    </g>
   </g>
  </g>
 </g>
 <defs>
  <clipPath id="p0bc1772e77">
   <rect height="217.44" width="334.8" x="54" y="34.56"/>
  </clipPath>
 </defs>
</svg>
