<?xml version="1.0" encoding="utf-8" standalone="no"?>
<!DOCTYPE svg PUBLIC "-//W3C//DTD SVG 1.1//EN"
  "http://www.w3.org/Graphics/SVG/1.1/DTD/svg11.dtd">
<!-- Created with matplotlib (https://matplotlib.org/) -->
<svg height="288pt" version="1.1" viewBox="0 0 432 288" width="432pt" xmlns="http://www.w3.org/2000/svg" xmlns:xlink="http://www.w3.org/1999/xlink">
 <defs>
  <style type="text/css">
*{stroke-linecap:butt;stroke-linejoin:round;}
  </style>
 </defs>
 <g id="figure_1">
  <g id="patch_1">
   <path d="M 0 288 
L 432 288 
L 432 0 
L 0 0 
z
" style="fill:#ffffff;"/>
  </g>
  <g id="axes_1">
   <g id="patch_2">
    <path clip-path="url(#p930db52892)" d="M 195.748948 132.698376 
L 195.788799 143.570303 
L 194.701606 143.574288 
L 194.661755 132.702361 
z
" style="stroke:#000000;stroke-linejoin:miter;"/>
   </g>
   <g id="patch_3">
    <path clip-path="url(#p930db52892)" d="M 250.108583 132.499118 
L 250.148434 143.371045 
L 249.061241 143.37503 
L 249.02139 132.503103 
z
" style="stroke:#000000;stroke-linejoin:miter;"/>
   </g>
   <g id="patch_4">
    <path clip-path="url(#p930db52892)" d="M 213.32523 132.633949 
L 213.174444 132.082952 
L 212.728705 131.569112 
L 211.995425 131.126121 
L 210.986724 130.783086 
L 209.719228 130.562626 
L 208.213788 130.479388 
L 206.49514 130.539088 
L 204.591495 130.738128 
L 202.534076 131.063833 
L 200.356609 131.495267 
L 198.094771 132.004601 
L 195.785611 132.558926 
L 193.466949 133.122398 
L 191.176757 133.658578 
L 188.952545 134.132805 
L 186.830751 134.51446 
L 184.846147 134.77896 
L 183.031275 134.90936 
L 181.415911 134.897456 
L 180.026585 134.744319 
L 178.886137 134.460213 
L 178.013344 134.063926 
L 177.42261 133.581538 
L 177.123722 133.044705 
L 177.121683 132.488597 
L 177.416628 131.949587 
L 178.00381 131.462881 
L 178.873674 131.060207 
L 180.012009 130.767748 
L 181.400175 130.604429 
L 183.015408 130.580684 
L 184.831187 130.697776 
L 186.817677 130.947719 
L 188.942212 131.313809 
L 191.169841 131.771717 
L 193.463902 132.291093 
L 195.786633 132.837553 
L 198.099794 133.374934 
L 200.365305 133.867673 
L 202.545877 134.283132 
L 204.605628 134.593746 
L 206.510681 134.778826 
L 208.22972 134.825924 
L 209.734509 134.731652 
L 211.000356 134.501906 
L 212.006515 134.151485 
L 212.736528 133.70313 
L 213.178487 133.186037 
z
" style="fill:#0000ff;stroke:#000000;stroke-linejoin:miter;"/>
   </g>
   <g id="patch_5">
    <path clip-path="url(#p930db52892)" d="M 267.684864 132.434692 
L 267.534079 131.883694 
L 267.08834 131.369855 
L 266.35506 130.926864 
L 265.346359 130.583829 
L 264.078863 130.363368 
L 262.573423 130.280131 
L 260.854775 130.33983 
L 258.95113 130.538871 
L 256.893711 130.864576 
L 254.716243 131.29601 
L 252.454405 131.805344 
L 250.145246 132.359669 
L 247.826584 132.923141 
L 245.536392 133.459321 
L 243.31218 133.933548 
L 241.190386 134.315203 
L 239.205782 134.579702 
L 237.390909 134.710102 
L 235.775546 134.698199 
L 234.38622 134.545061 
L 233.245771 134.260955 
L 232.372979 133.864669 
L 231.782245 133.38228 
L 231.483356 132.845448 
L 231.481318 132.289339 
L 231.776263 131.75033 
L 232.363444 131.263624 
L 233.233309 130.860949 
L 234.371644 130.56849 
L 235.75981 130.405172 
L 237.375042 130.381427 
L 239.190822 130.498518 
L 241.177312 130.748462 
L 243.301847 131.114551 
L 245.529476 131.57246 
L 247.823537 132.091836 
L 250.146268 132.638295 
L 252.459428 133.175677 
L 254.724939 133.668416 
L 256.905511 134.083875 
L 258.965263 134.394488 
L 260.870316 134.579568 
L 262.589355 134.626667 
L 264.094144 134.532395 
L 265.359991 134.302649 
L 266.36615 133.952228 
L 267.096163 133.503873 
L 267.538122 132.98678 
z
" style="fill:#0000ff;stroke:#000000;stroke-linejoin:miter;"/>
   </g>
   <g id="patch_6">
    <path clip-path="url(#p930db52892)" d="M 255.030838 140.63513 
L 189.799276 140.874239 
L 189.819202 146.310203 
L 255.050764 146.071094 
z
" style="fill:#999999;stroke:#000000;stroke-linejoin:miter;"/>
   </g>
   <g id="text_1">
    <!-- t = 2.2 -->
    <defs>
     <path d="M 18.3125 70.21875 
L 18.3125 54.6875 
L 36.8125 54.6875 
L 36.8125 47.703125 
L 18.3125 47.703125 
L 18.3125 18.015625 
Q 18.3125 11.328125 20.140625 9.421875 
Q 21.96875 7.515625 27.59375 7.515625 
L 36.8125 7.515625 
L 36.8125 0 
L 27.59375 0 
Q 17.1875 0 13.234375 3.875 
Q 9.28125 7.765625 9.28125 18.015625 
L 9.28125 47.703125 
L 2.6875 47.703125 
L 2.6875 54.6875 
L 9.28125 54.6875 
L 9.28125 70.21875 
z
" id="DejaVuSans-116"/>
     <path id="DejaVuSans-32"/>
     <path d="M 10.59375 45.40625 
L 73.1875 45.40625 
L 73.1875 37.203125 
L 10.59375 37.203125 
z
M 10.59375 25.484375 
L 73.1875 25.484375 
L 73.1875 17.1875 
L 10.59375 17.1875 
z
" id="DejaVuSans-61"/>
     <path d="M 19.1875 8.296875 
L 53.609375 8.296875 
L 53.609375 0 
L 7.328125 0 
L 7.328125 8.296875 
Q 12.9375 14.109375 22.625 23.890625 
Q 32.328125 33.6875 34.8125 36.53125 
Q 39.546875 41.84375 41.421875 45.53125 
Q 43.3125 49.21875 43.3125 52.78125 
Q 43.3125 58.59375 39.234375 62.25 
Q 35.15625 65.921875 28.609375 65.921875 
Q 23.96875 65.921875 18.8125 64.3125 
Q 13.671875 62.703125 7.8125 59.421875 
L 7.8125 69.390625 
Q 13.765625 71.78125 18.9375 73 
Q 24.125 74.21875 28.421875 74.21875 
Q 39.75 74.21875 46.484375 68.546875 
Q 53.21875 62.890625 53.21875 53.421875 
Q 53.21875 48.921875 51.53125 44.890625 
Q 49.859375 40.875 45.40625 35.40625 
Q 44.1875 33.984375 37.640625 27.21875 
Q 31.109375 20.453125 19.1875 8.296875 
z
" id="DejaVuSans-50"/>
     <path d="M 10.6875 12.40625 
L 21 12.40625 
L 21 0 
L 10.6875 0 
z
" id="DejaVuSans-46"/>
    </defs>
    <g transform="translate(200.664375 28.56)scale(0.12 -0.12)">
     <use xlink:href="#DejaVuSans-116"/>
     <use x="39.208984" xlink:href="#DejaVuSans-32"/>
     <use x="70.996094" xlink:href="#DejaVuSans-61"/>
     <use x="154.785156" xlink:href="#DejaVuSans-32"/>
     <use x="186.572266" xlink:href="#DejaVuSans-50"/>
     <use x="250.195312" xlink:href="#DejaVuSans-46"/>
     <use x="281.982422" xlink:href="#DejaVuSans-50"/>
    </g>
   </g>
  </g>
 </g>
 <defs>
  <clipPath id="p930db52892">
   <rect height="217.44" width="334.8" x="54" y="34.56"/>
  </clipPath>
 </defs>
</svg>
