<?xml version="1.0" encoding="utf-8" standalone="no"?>
<!DOCTYPE svg PUBLIC "-//W3C//DTD SVG 1.1//EN"
  "http://www.w3.org/Graphics/SVG/1.1/DTD/svg11.dtd">
<!-- Created with matplotlib (https://matplotlib.org/) -->
<svg height="288pt" version="1.1" viewBox="0 0 432 288" width="432pt" xmlns="http://www.w3.org/2000/svg" xmlns:xlink="http://www.w3.org/1999/xlink">
 <defs>
  <style type="text/css">
*{stroke-linecap:butt;stroke-linejoin:round;}
  </style>
 </defs>
 <g id="figure_1">
  <g id="patch_1">
   <path d="M 0 288 
L 432 288 
L 432 0 
L 0 0 
z
" style="fill:#ffffff;"/>
  </g>
  <g id="axes_1">
   <g id="patch_2">
    <path clip-path="url(#p73e9673717)" d="M 190.723086 134.188292 
L 190.372654 145.054643 
L 189.286019 145.019599 
L 189.636451 134.153248 
z
" style="stroke:#000000;stroke-linejoin:miter;"/>
   </g>
   <g id="patch_3">
    <path clip-path="url(#p73e9673717)" d="M 245.05484 135.940453 
L 244.704408 146.806804 
L 243.617773 146.771761 
L 243.968205 135.90541 
z
" style="stroke:#000000;stroke-linejoin:miter;"/>
   </g>
   <g id="patch_4">
    <path clip-path="url(#p73e9673717)" d="M 208.290353 134.754824 
L 208.159443 134.198769 
L 207.732437 133.669261 
L 207.015531 133.200233 
L 206.019794 132.821211 
L 204.761028 132.555394 
L 203.259546 132.418171 
L 201.539863 132.41614 
L 199.6303 132.546719 
L 197.562515 132.798361 
L 195.370964 133.151355 
L 193.092301 133.57917 
L 190.764732 134.050248 
L 188.427338 134.530127 
L 186.119375 134.983752 
L 183.879573 135.377834 
L 181.745447 135.683079 
L 179.752627 135.876169 
L 177.934244 135.941338 
L 176.320349 135.871457 
L 174.937415 135.668547 
L 173.8079 135.343687 
L 172.949895 134.916326 
L 172.376857 134.413043 
L 172.097431 133.865828 
L 172.115356 133.310005 
L 172.429459 132.78193 
L 173.033733 132.316615 
L 173.917491 131.945425 
L 175.065591 131.694016 
L 176.458725 131.580632 
L 178.073769 131.614882 
L 179.884175 131.797078 
L 181.860413 132.118167 
L 183.970438 132.560283 
L 186.180194 133.097859 
L 188.454133 133.699248 
L 190.755751 134.328732 
L 193.048131 134.9488 
L 195.294495 135.522544 
L 197.458748 136.016009 
L 199.506023 136.400359 
L 201.403204 136.653703 
L 203.119445 136.762478 
L 204.626648 136.722283 
L 205.899926 136.538123 
L 206.918015 136.224045 
L 207.663652 135.802184 
L 208.123888 135.301289 
z
" style="fill:#0000ff;stroke:#000000;stroke-linejoin:miter;"/>
   </g>
   <g id="patch_5">
    <path clip-path="url(#p73e9673717)" d="M 262.622108 136.506985 
L 262.491198 135.95093 
L 262.064191 135.421422 
L 261.347285 134.952395 
L 260.351548 134.573372 
L 259.092782 134.307556 
L 257.5913 134.170333 
L 255.871617 134.168301 
L 253.962054 134.298881 
L 251.894269 134.550523 
L 249.702719 134.903516 
L 247.424055 135.331331 
L 245.096486 135.80241 
L 242.759092 136.282288 
L 240.451129 136.735914 
L 238.211328 137.129995 
L 236.077201 137.43524 
L 234.084382 137.62833 
L 232.265998 137.693499 
L 230.652103 137.623619 
L 229.269169 137.420709 
L 228.139654 137.095848 
L 227.281649 136.668488 
L 226.708611 136.165205 
L 226.429186 135.617989 
L 226.447111 135.062166 
L 226.761214 134.534092 
L 227.365488 134.068776 
L 228.249246 133.697586 
L 229.397345 133.446177 
L 230.790479 133.332793 
L 232.405523 133.367044 
L 234.21593 133.549239 
L 236.192167 133.870328 
L 238.302192 134.312444 
L 240.511948 134.850021 
L 242.785887 135.45141 
L 245.087505 136.080893 
L 247.379886 136.700962 
L 249.626249 137.274706 
L 251.790503 137.768171 
L 253.837777 138.152521 
L 255.734959 138.405865 
L 257.451199 138.51464 
L 258.958403 138.474445 
L 260.23168 138.290285 
L 261.24977 137.976207 
L 261.995406 137.554346 
L 262.455642 137.05345 
z
" style="fill:#0000ff;stroke:#000000;stroke-linejoin:miter;"/>
   </g>
   <g id="patch_6">
    <path clip-path="url(#p73e9673717)" d="M 249.681874 144.247911 
L 184.483769 142.145317 
L 184.308553 147.578492 
L 249.506658 149.681086 
z
" style="fill:#999999;stroke:#000000;stroke-linejoin:miter;"/>
   </g>
   <g id="text_1">
    <!-- t = 1.4 -->
    <defs>
     <path d="M 18.3125 70.21875 
L 18.3125 54.6875 
L 36.8125 54.6875 
L 36.8125 47.703125 
L 18.3125 47.703125 
L 18.3125 18.015625 
Q 18.3125 11.328125 20.140625 9.421875 
Q 21.96875 7.515625 27.59375 7.515625 
L 36.8125 7.515625 
L 36.8125 0 
L 27.59375 0 
Q 17.1875 0 13.234375 3.875 
Q 9.28125 7.765625 9.28125 18.015625 
L 9.28125 47.703125 
L 2.6875 47.703125 
L 2.6875 54.6875 
L 9.28125 54.6875 
L 9.28125 70.21875 
z
" id="DejaVuSans-116"/>
     <path id="DejaVuSans-32"/>
     <path d="M 10.59375 45.40625 
L 73.1875 45.40625 
L 73.1875 37.203125 
L 10.59375 37.203125 
z
M 10.59375 25.484375 
L 73.1875 25.484375 
L 73.1875 17.1875 
L 10.59375 17.1875 
z
" id="DejaVuSans-61"/>
     <path d="M 12.40625 8.296875 
L 28.515625 8.296875 
L 28.515625 63.921875 
L 10.984375 60.40625 
L 10.984375 69.390625 
L 28.421875 72.90625 
L 38.28125 72.90625 
L 38.28125 8.296875 
L 54.390625 8.296875 
L 54.390625 0 
L 12.40625 0 
z
" id="DejaVuSans-49"/>
     <path d="M 10.6875 12.40625 
L 21 12.40625 
L 21 0 
L 10.6875 0 
z
" id="DejaVuSans-46"/>
     <path d="M 37.796875 64.3125 
L 12.890625 25.390625 
L 37.796875 25.390625 
z
M 35.203125 72.90625 
L 47.609375 72.90625 
L 47.609375 25.390625 
L 58.015625 25.390625 
L 58.015625 17.1875 
L 47.609375 17.1875 
L 47.609375 0 
L 37.796875 0 
L 37.796875 17.1875 
L 4.890625 17.1875 
L 4.890625 26.703125 
z
" id="DejaVuSans-52"/>
    </defs>
    <g transform="translate(200.664375 28.56)scale(0.12 -0.12)">
     <use xlink:href="#DejaVuSans-116"/>
     <use x="39.208984" xlink:href="#DejaVuSans-32"/>
     <use x="70.996094" xlink:href="#DejaVuSans-61"/>
     <use x="154.785156" xlink:href="#DejaVuSans-32"/>
     <use x="186.572266" xlink:href="#DejaVuSans-49"/>
     <use x="250.195312" xlink:href="#DejaVuSans-46"/>
     <use x="281.982422" xlink:href="#DejaVuSans-52"/>
    </g>
   </g>
  </g>
 </g>
 <defs>
  <clipPath id="p73e9673717">
   <rect height="217.44" width="334.8" x="54" y="34.56"/>
  </clipPath>
 </defs>
</svg>
