<?xml version="1.0" encoding="utf-8" standalone="no"?>
<!DOCTYPE svg PUBLIC "-//W3C//DTD SVG 1.1//EN"
  "http://www.w3.org/Graphics/SVG/1.1/DTD/svg11.dtd">
<!-- Created with matplotlib (https://matplotlib.org/) -->
<svg height="288pt" version="1.1" viewBox="0 0 432 288" width="432pt" xmlns="http://www.w3.org/2000/svg" xmlns:xlink="http://www.w3.org/1999/xlink">
 <defs>
  <style type="text/css">
*{stroke-linecap:butt;stroke-linejoin:round;}
  </style>
 </defs>
 <g id="figure_1">
  <g id="patch_1">
   <path d="M 0 288 
L 432 288 
L 432 0 
L 0 0 
z
" style="fill:#ffffff;"/>
  </g>
  <g id="axes_1">
   <g id="patch_2">
    <path clip-path="url(#pe7dd408291)" d="M 211.208797 146.626044 
L 208.494232 157.1537 
L 207.441467 156.882243 
L 210.156031 146.354588 
z
" style="stroke:#000000;stroke-linejoin:miter;"/>
   </g>
   <g id="patch_3">
    <path clip-path="url(#pe7dd408291)" d="M 263.847073 160.198867 
L 261.132508 170.726522 
L 260.079743 170.455065 
L 262.794307 159.92741 
z
" style="stroke:#000000;stroke-linejoin:miter;"/>
   </g>
   <g id="patch_4">
    <path clip-path="url(#pe7dd408291)" d="M 228.228506 151.01459 
L 228.222165 150.443368 
L 227.921076 149.833402 
L 227.323876 149.21916 
L 226.43492 148.631871 
L 225.264564 148.097626 
L 223.829272 147.635876 
L 222.151524 147.258414 
L 220.259524 146.968904 
L 218.186686 146.762989 
L 215.970939 146.628956 
L 213.653845 146.54892 
L 211.279579 146.500424 
L 208.893803 146.458372 
L 206.54248 146.397126 
L 204.270676 146.292655 
L 202.121393 146.124564 
L 200.134496 145.877878 
L 198.345757 145.544444 
L 196.78606 145.123868 
L 195.480797 144.6239 
L 194.449465 144.060256 
L 193.705473 143.455868 
L 193.25615 142.83961 
L 193.102946 142.244587 
L 193.241799 141.706088 
L 193.663624 141.259337 
L 194.354917 140.937188 
L 195.298398 140.767916 
L 196.47369 140.773252 
L 197.857967 140.966784 
L 199.426565 141.352841 
L 201.153509 141.925929 
L 203.011957 142.670768 
L 204.974539 143.562925 
L 207.013602 144.570015 
L 209.101368 145.653391 
L 211.210009 146.770228 
L 213.311692 147.87586 
L 215.378583 148.926238 
L 217.382873 149.880345 
L 219.296832 150.702429 
L 221.092923 151.363896 
L 222.744004 151.844775 
L 224.223618 152.134636 
L 225.506384 152.23293 
L 226.568486 152.148723 
L 227.388242 151.899844 
L 227.946741 151.511524 
z
" style="fill:#0000ff;stroke:#000000;stroke-linejoin:miter;"/>
   </g>
   <g id="patch_5">
    <path clip-path="url(#pe7dd408291)" d="M 280.866782 164.587412 
L 280.860441 164.016191 
L 280.559352 163.406224 
L 279.962152 162.791983 
L 279.073196 162.204693 
L 277.90284 161.670448 
L 276.467548 161.208698 
L 274.7898 160.831236 
L 272.8978 160.541726 
L 270.824962 160.335811 
L 268.609215 160.201778 
L 266.292121 160.121742 
L 263.917855 160.073247 
L 261.532079 160.031194 
L 259.180756 159.969948 
L 256.908952 159.865477 
L 254.759669 159.697386 
L 252.772772 159.4507 
L 250.984033 159.117266 
L 249.424336 158.69669 
L 248.119073 158.196722 
L 247.087741 157.633079 
L 246.343749 157.02869 
L 245.894426 156.412432 
L 245.741222 155.817409 
L 245.880075 155.278911 
L 246.3019 154.832159 
L 246.993193 154.51001 
L 247.936674 154.340738 
L 249.111965 154.346074 
L 250.496243 154.539606 
L 252.064841 154.925663 
L 253.791785 155.498751 
L 255.650233 156.24359 
L 257.612815 157.135747 
L 259.651878 158.142837 
L 261.739644 159.226213 
L 263.848285 160.34305 
L 265.949968 161.448682 
L 268.016859 162.49906 
L 270.021149 163.453167 
L 271.935108 164.275251 
L 273.731199 164.936718 
L 275.38228 165.417597 
L 276.861894 165.707458 
L 278.14466 165.805753 
L 279.206762 165.721545 
L 280.026518 165.472666 
L 280.585017 165.084346 
z
" style="fill:#0000ff;stroke:#000000;stroke-linejoin:miter;"/>
   </g>
   <g id="patch_6">
    <path clip-path="url(#pe7dd408291)" d="M 266.548594 169.316162 
L 203.382663 153.028775 
L 202.025381 158.292603 
L 265.191312 174.57999 
z
" style="fill:#999999;stroke:#000000;stroke-linejoin:miter;"/>
   </g>
   <g id="text_1">
    <!-- t = 0.7 -->
    <defs>
     <path d="M 18.3125 70.21875 
L 18.3125 54.6875 
L 36.8125 54.6875 
L 36.8125 47.703125 
L 18.3125 47.703125 
L 18.3125 18.015625 
Q 18.3125 11.328125 20.140625 9.421875 
Q 21.96875 7.515625 27.59375 7.515625 
L 36.8125 7.515625 
L 36.8125 0 
L 27.59375 0 
Q 17.1875 0 13.234375 3.875 
Q 9.28125 7.765625 9.28125 18.015625 
L 9.28125 47.703125 
L 2.6875 47.703125 
L 2.6875 54.6875 
L 9.28125 54.6875 
L 9.28125 70.21875 
z
" id="DejaVuSans-116"/>
     <path id="DejaVuSans-32"/>
     <path d="M 10.59375 45.40625 
L 73.1875 45.40625 
L 73.1875 37.203125 
L 10.59375 37.203125 
z
M 10.59375 25.484375 
L 73.1875 25.484375 
L 73.1875 17.1875 
L 10.59375 17.1875 
z
" id="DejaVuSans-61"/>
     <path d="M 31.78125 66.40625 
Q 24.171875 66.40625 20.328125 58.90625 
Q 16.5 51.421875 16.5 36.375 
Q 16.5 21.390625 20.328125 13.890625 
Q 24.171875 6.390625 31.78125 6.390625 
Q 39.453125 6.390625 43.28125 13.890625 
Q 47.125 21.390625 47.125 36.375 
Q 47.125 51.421875 43.28125 58.90625 
Q 39.453125 66.40625 31.78125 66.40625 
z
M 31.78125 74.21875 
Q 44.046875 74.21875 50.515625 64.515625 
Q 56.984375 54.828125 56.984375 36.375 
Q 56.984375 17.96875 50.515625 8.265625 
Q 44.046875 -1.421875 31.78125 -1.421875 
Q 19.53125 -1.421875 13.0625 8.265625 
Q 6.59375 17.96875 6.59375 36.375 
Q 6.59375 54.828125 13.0625 64.515625 
Q 19.53125 74.21875 31.78125 74.21875 
z
" id="DejaVuSans-48"/>
     <path d="M 10.6875 12.40625 
L 21 12.40625 
L 21 0 
L 10.6875 0 
z
" id="DejaVuSans-46"/>
     <path d="M 8.203125 72.90625 
L 55.078125 72.90625 
L 55.078125 68.703125 
L 28.609375 0 
L 18.3125 0 
L 43.21875 64.59375 
L 8.203125 64.59375 
z
" id="DejaVuSans-55"/>
    </defs>
    <g transform="translate(200.664375 28.56)scale(0.12 -0.12)">
     <use xlink:href="#DejaVuSans-116"/>
     <use x="39.208984" xlink:href="#DejaVuSans-32"/>
     <use x="70.996094" xlink:href="#DejaVuSans-61"/>
     <use x="154.785156" xlink:href="#DejaVuSans-32"/>
     <use x="186.572266" xlink:href="#DejaVuSans-48"/>
     <use x="250.195312" xlink:href="#DejaVuSans-46"/>
     <use x="281.982422" xlink:href="#DejaVuSans-55"/>
    </g>
   </g>
  </g>
 </g>
 <defs>
  <clipPath id="pe7dd408291">
   <rect height="217.44" width="334.8" x="54" y="34.56"/>
  </clipPath>
 </defs>
</svg>
