<?xml version="1.0" encoding="utf-8" standalone="no"?>
<!DOCTYPE svg PUBLIC "-//W3C//DTD SVG 1.1//EN"
  "http://www.w3.org/Graphics/SVG/1.1/DTD/svg11.dtd">
<!-- Created with matplotlib (https://matplotlib.org/) -->
<svg height="288pt" version="1.1" viewBox="0 0 432 288" width="432pt" xmlns="http://www.w3.org/2000/svg" xmlns:xlink="http://www.w3.org/1999/xlink">
 <defs>
  <style type="text/css">
*{stroke-linecap:butt;stroke-linejoin:round;}
  </style>
 </defs>
 <g id="figure_1">
  <g id="patch_1">
   <path d="M 0 288 
L 432 288 
L 432 0 
L 0 0 
z
" style="fill:#ffffff;"/>
  </g>
  <g id="axes_1">
   <g id="patch_2">
    <path clip-path="url(#p6292b8ca5d)" d="M 194.795766 132.401334 
L 194.791528 143.273333 
L 193.704328 143.272909 
L 193.708566 132.40091 
z
" style="stroke:#000000;stroke-linejoin:miter;"/>
   </g>
   <g id="patch_3">
    <path clip-path="url(#p6292b8ca5d)" d="M 249.155762 132.422524 
L 249.151524 143.294523 
L 248.064324 143.294099 
L 248.068562 132.4221 
z
" style="stroke:#000000;stroke-linejoin:miter;"/>
   </g>
   <g id="patch_4">
    <path clip-path="url(#p6292b8ca5d)" d="M 212.372165 132.408185 
L 212.223615 131.856581 
L 211.779964 131.340938 
L 211.048486 130.894977 
L 210.041185 130.547854 
L 208.774593 130.322255 
L 207.269503 130.232913 
L 205.550627 130.285643 
L 203.64619 130.476962 
L 201.587467 130.794321 
L 199.408268 131.216921 
L 197.144383 131.717078 
L 194.832995 132.262034 
L 192.512067 132.816099 
L 190.219719 133.342987 
L 187.993603 133.80819 
L 185.870278 134.181237 
L 183.884618 134.437686 
L 182.069231 134.560725 
L 180.45393 134.542271 
L 179.065236 134.383501 
L 177.925949 134.094772 
L 177.05477 133.69495 
L 176.465998 133.210169 
L 176.169289 132.672129 
L 176.169505 132.116017 
L 176.466634 131.578208 
L 177.055784 131.093887 
L 177.927274 130.694744 
L 179.066786 130.406904 
L 180.455603 130.249216 
L 182.070919 130.232021 
L 183.886209 130.356475 
L 185.871668 130.614472 
L 187.994701 130.989175 
L 190.220455 131.456113 
L 192.512391 131.984788 
L 194.832886 132.540663 
L 197.143849 133.08742 
L 199.407343 133.589343 
L 201.586212 134.013641 
L 203.644687 134.332605 
L 205.548974 134.525409 
L 207.267808 134.579478 
L 208.772967 134.49131 
L 210.039735 134.266699 
L 211.047307 133.920361 
L 211.779132 133.47497 
L 212.223185 132.959674 
z
" style="fill:#0000ff;stroke:#000000;stroke-linejoin:miter;"/>
   </g>
   <g id="patch_5">
    <path clip-path="url(#p6292b8ca5d)" d="M 266.732161 132.429375 
L 266.583611 131.877771 
L 266.13996 131.362128 
L 265.408482 130.916167 
L 264.401181 130.569044 
L 263.134588 130.343445 
L 261.629499 130.254103 
L 259.910623 130.306833 
L 258.006186 130.498152 
L 255.947463 130.81551 
L 253.768264 131.23811 
L 251.504379 131.738268 
L 249.192991 132.283224 
L 246.872063 132.837289 
L 244.579715 133.364177 
L 242.353598 133.82938 
L 240.230274 134.202427 
L 238.244614 134.458876 
L 236.429227 134.581915 
L 234.813926 134.563461 
L 233.425232 134.404691 
L 232.285945 134.115962 
L 231.414766 133.71614 
L 230.825993 133.231359 
L 230.529285 132.693319 
L 230.529501 132.137207 
L 230.82663 131.599398 
L 231.41578 131.115077 
L 232.28727 130.715934 
L 233.426782 130.428093 
L 234.815599 130.270406 
L 236.430915 130.253211 
L 238.246204 130.377665 
L 240.231664 130.635662 
L 242.354697 131.010365 
L 244.580451 131.477303 
L 246.872387 132.005978 
L 249.192882 132.561852 
L 251.503845 133.10861 
L 253.767339 133.610532 
L 255.946208 134.034831 
L 258.004683 134.353795 
L 259.90897 134.546599 
L 261.627804 134.600668 
L 263.132963 134.5125 
L 264.399731 134.287888 
L 265.407303 133.941551 
L 266.139128 133.49616 
L 266.583181 132.980864 
z
" style="fill:#0000ff;stroke:#000000;stroke-linejoin:miter;"/>
   </g>
   <g id="patch_6">
    <path clip-path="url(#p6292b8ca5d)" d="M 254.044983 140.57843 
L 188.812988 140.553002 
L 188.810869 145.989002 
L 254.042864 146.01443 
z
" style="fill:#999999;stroke:#000000;stroke-linejoin:miter;"/>
   </g>
   <g id="text_1">
    <!-- t = 2.9 -->
    <defs>
     <path d="M 18.3125 70.21875 
L 18.3125 54.6875 
L 36.8125 54.6875 
L 36.8125 47.703125 
L 18.3125 47.703125 
L 18.3125 18.015625 
Q 18.3125 11.328125 20.140625 9.421875 
Q 21.96875 7.515625 27.59375 7.515625 
L 36.8125 7.515625 
L 36.8125 0 
L 27.59375 0 
Q 17.1875 0 13.234375 3.875 
Q 9.28125 7.765625 9.28125 18.015625 
L 9.28125 47.703125 
L 2.6875 47.703125 
L 2.6875 54.6875 
L 9.28125 54.6875 
L 9.28125 70.21875 
z
" id="DejaVuSans-116"/>
     <path id="DejaVuSans-32"/>
     <path d="M 10.59375 45.40625 
L 73.1875 45.40625 
L 73.1875 37.203125 
L 10.59375 37.203125 
z
M 10.59375 25.484375 
L 73.1875 25.484375 
L 73.1875 17.1875 
L 10.59375 17.1875 
z
" id="DejaVuSans-61"/>
     <path d="M 19.1875 8.296875 
L 53.609375 8.296875 
L 53.609375 0 
L 7.328125 0 
L 7.328125 8.296875 
Q 12.9375 14.109375 22.625 23.890625 
Q 32.328125 33.6875 34.8125 36.53125 
Q 39.546875 41.84375 41.421875 45.53125 
Q 43.3125 49.21875 43.3125 52.78125 
Q 43.3125 58.59375 39.234375 62.25 
Q 35.15625 65.921875 28.609375 65.921875 
Q 23.96875 65.921875 18.8125 64.3125 
Q 13.671875 62.703125 7.8125 59.421875 
L 7.8125 69.390625 
Q 13.765625 71.78125 18.9375 73 
Q 24.125 74.21875 28.421875 74.21875 
Q 39.75 74.21875 46.484375 68.546875 
Q 53.21875 62.890625 53.21875 53.421875 
Q 53.21875 48.921875 51.53125 44.890625 
Q 49.859375 40.875 45.40625 35.40625 
Q 44.1875 33.984375 37.640625 27.21875 
Q 31.109375 20.453125 19.1875 8.296875 
z
" id="DejaVuSans-50"/>
     <path d="M 10.6875 12.40625 
L 21 12.40625 
L 21 0 
L 10.6875 0 
z
" id="DejaVuSans-46"/>
     <path d="M 10.984375 1.515625 
L 10.984375 10.5 
Q 14.703125 8.734375 18.5 7.8125 
Q 22.3125 6.890625 25.984375 6.890625 
Q 35.75 6.890625 40.890625 13.453125 
Q 46.046875 20.015625 46.78125 33.40625 
Q 43.953125 29.203125 39.59375 26.953125 
Q 35.25 24.703125 29.984375 24.703125 
Q 19.046875 24.703125 12.671875 31.3125 
Q 6.296875 37.9375 6.296875 49.421875 
Q 6.296875 60.640625 12.9375 67.421875 
Q 19.578125 74.21875 30.609375 74.21875 
Q 43.265625 74.21875 49.921875 64.515625 
Q 56.59375 54.828125 56.59375 36.375 
Q 56.59375 19.140625 48.40625 8.859375 
Q 40.234375 -1.421875 26.421875 -1.421875 
Q 22.703125 -1.421875 18.890625 -0.6875 
Q 15.09375 0.046875 10.984375 1.515625 
z
M 30.609375 32.421875 
Q 37.25 32.421875 41.125 36.953125 
Q 45.015625 41.5 45.015625 49.421875 
Q 45.015625 57.28125 41.125 61.84375 
Q 37.25 66.40625 30.609375 66.40625 
Q 23.96875 66.40625 20.09375 61.84375 
Q 16.21875 57.28125 16.21875 49.421875 
Q 16.21875 41.5 20.09375 36.953125 
Q 23.96875 32.421875 30.609375 32.421875 
z
" id="DejaVuSans-57"/>
    </defs>
    <g transform="translate(200.664375 28.56)scale(0.12 -0.12)">
     <use xlink:href="#DejaVuSans-116"/>
     <use x="39.208984" xlink:href="#DejaVuSans-32"/>
     <use x="70.996094" xlink:href="#DejaVuSans-61"/>
     <use x="154.785156" xlink:href="#DejaVuSans-32"/>
     <use x="186.572266" xlink:href="#DejaVuSans-50"/>
     <use x="250.195312" xlink:href="#DejaVuSans-46"/>
     <use x="281.982422" xlink:href="#DejaVuSans-57"/>
    </g>
   </g>
  </g>
 </g>
 <defs>
  <clipPath id="p6292b8ca5d">
   <rect height="217.44" width="334.8" x="54" y="34.56"/>
  </clipPath>
 </defs>
</svg>
