<?xml version="1.0" encoding="utf-8" standalone="no"?>
<!DOCTYPE svg PUBLIC "-//W3C//DTD SVG 1.1//EN"
  "http://www.w3.org/Graphics/SVG/1.1/DTD/svg11.dtd">
<!-- Created with matplotlib (https://matplotlib.org/) -->
<svg height="288pt" version="1.1" viewBox="0 0 432 288" width="432pt" xmlns="http://www.w3.org/2000/svg" xmlns:xlink="http://www.w3.org/1999/xlink">
 <defs>
  <style type="text/css">
*{stroke-linecap:butt;stroke-linejoin:round;}
  </style>
 </defs>
 <g id="figure_1">
  <g id="patch_1">
   <path d="M 0 288 
L 432 288 
L 432 0 
L 0 0 
z
" style="fill:#ffffff;"/>
  </g>
  <g id="axes_1">
   <g id="patch_2">
    <path clip-path="url(#p2ef84efc70)" d="M 194.753871 132.407356 
L 194.753309 143.279356 
L 193.666109 143.2793 
L 193.666671 132.4073 
z
" style="stroke:#000000;stroke-linejoin:miter;"/>
   </g>
   <g id="patch_3">
    <path clip-path="url(#p2ef84efc70)" d="M 249.113871 132.410167 
L 249.113309 143.282167 
L 248.026109 143.282111 
L 248.026671 132.410111 
z
" style="stroke:#000000;stroke-linejoin:miter;"/>
   </g>
   <g id="patch_4">
    <path clip-path="url(#p2ef84efc70)" d="M 212.330271 132.408265 
L 212.181534 131.856711 
L 211.737709 131.341218 
L 211.006081 130.895505 
L 209.998662 130.548722 
L 208.731993 130.323552 
L 207.226873 130.234718 
L 205.508016 130.288029 
L 203.603644 130.479992 
L 201.545028 130.798047 
L 199.365972 131.221384 
L 197.102256 131.722307 
L 194.791053 132.268044 
L 192.470312 132.822894 
L 190.178143 133.350557 
L 187.952183 133.816513 
L 185.828985 134.190278 
L 183.843411 134.447398 
L 182.028067 134.571051 
L 180.412759 134.553143 
L 179.024012 134.394842 
L 177.884627 134.106499 
L 177.013313 133.706971 
L 176.424377 133.222389 
L 176.127486 132.68445 
L 176.127515 132.128337 
L 176.424461 131.590428 
L 177.013448 131.105908 
L 177.884803 130.70647 
L 179.024217 130.418244 
L 180.412981 130.260087 
L 182.028291 130.242346 
L 183.843622 130.366187 
L 185.829169 130.623513 
L 187.952329 130.997497 
L 190.17824 131.463683 
L 192.470355 131.991583 
L 194.791038 132.546673 
L 197.102185 133.092649 
L 199.365849 133.593806 
L 201.544862 134.017368 
L 203.603444 134.335636 
L 205.507796 134.527796 
L 207.226649 134.581284 
L 208.731778 134.492606 
L 209.99847 134.267567 
L 211.005924 133.920889 
L 211.737599 133.475251 
L 212.181477 132.959804 
z
" style="fill:#0000ff;stroke:#000000;stroke-linejoin:miter;"/>
   </g>
   <g id="patch_5">
    <path clip-path="url(#p2ef84efc70)" d="M 266.690271 132.411075 
L 266.541534 131.859521 
L 266.097709 131.344029 
L 265.366081 130.898315 
L 264.358662 130.551532 
L 263.091993 130.326362 
L 261.586873 130.237529 
L 259.868016 130.290839 
L 257.963644 130.482803 
L 255.905028 130.800857 
L 253.725972 131.224194 
L 251.462256 131.725117 
L 249.151053 132.270854 
L 246.830312 132.825704 
L 244.538143 133.353367 
L 242.312183 133.819323 
L 240.188985 134.193088 
L 238.203411 134.450208 
L 236.388067 134.573861 
L 234.772759 134.555953 
L 233.384011 134.397652 
L 232.244627 134.109309 
L 231.373313 133.709781 
L 230.784377 133.2252 
L 230.487486 132.68726 
L 230.487515 132.131148 
L 230.784461 131.593239 
L 231.373448 131.108718 
L 232.244803 130.70928 
L 233.384217 130.421055 
L 234.772981 130.262897 
L 236.388291 130.245157 
L 238.203622 130.368997 
L 240.189169 130.626323 
L 242.312329 131.000307 
L 244.53824 131.466493 
L 246.830355 131.994393 
L 249.151038 132.549483 
L 251.462185 133.095459 
L 253.725849 133.596616 
L 255.904862 134.020178 
L 257.963444 134.338446 
L 259.867796 134.530606 
L 261.586649 134.584094 
L 263.091778 134.495417 
L 264.358469 134.270377 
L 265.365924 133.923699 
L 266.097598 133.478061 
L 266.541477 132.962614 
z
" style="fill:#0000ff;stroke:#000000;stroke-linejoin:miter;"/>
   </g>
   <g id="patch_6">
    <path clip-path="url(#p2ef84efc70)" d="M 254.005849 140.56442 
L 188.773849 140.561047 
L 188.773568 145.997047 
L 254.005568 146.00042 
z
" style="fill:#999999;stroke:#000000;stroke-linejoin:miter;"/>
   </g>
   <g id="text_1">
    <!-- t = 3.8 -->
    <defs>
     <path d="M 18.3125 70.21875 
L 18.3125 54.6875 
L 36.8125 54.6875 
L 36.8125 47.703125 
L 18.3125 47.703125 
L 18.3125 18.015625 
Q 18.3125 11.328125 20.140625 9.421875 
Q 21.96875 7.515625 27.59375 7.515625 
L 36.8125 7.515625 
L 36.8125 0 
L 27.59375 0 
Q 17.1875 0 13.234375 3.875 
Q 9.28125 7.765625 9.28125 18.015625 
L 9.28125 47.703125 
L 2.6875 47.703125 
L 2.6875 54.6875 
L 9.28125 54.6875 
L 9.28125 70.21875 
z
" id="DejaVuSans-116"/>
     <path id="DejaVuSans-32"/>
     <path d="M 10.59375 45.40625 
L 73.1875 45.40625 
L 73.1875 37.203125 
L 10.59375 37.203125 
z
M 10.59375 25.484375 
L 73.1875 25.484375 
L 73.1875 17.1875 
L 10.59375 17.1875 
z
" id="DejaVuSans-61"/>
     <path d="M 40.578125 39.3125 
Q 47.65625 37.796875 51.625 33 
Q 55.609375 28.21875 55.609375 21.1875 
Q 55.609375 10.40625 48.1875 4.484375 
Q 40.765625 -1.421875 27.09375 -1.421875 
Q 22.515625 -1.421875 17.65625 -0.515625 
Q 12.796875 0.390625 7.625 2.203125 
L 7.625 11.71875 
Q 11.71875 9.328125 16.59375 8.109375 
Q 21.484375 6.890625 26.8125 6.890625 
Q 36.078125 6.890625 40.9375 10.546875 
Q 45.796875 14.203125 45.796875 21.1875 
Q 45.796875 27.640625 41.28125 31.265625 
Q 36.765625 34.90625 28.71875 34.90625 
L 20.21875 34.90625 
L 20.21875 43.015625 
L 29.109375 43.015625 
Q 36.375 43.015625 40.234375 45.921875 
Q 44.09375 48.828125 44.09375 54.296875 
Q 44.09375 59.90625 40.109375 62.90625 
Q 36.140625 65.921875 28.71875 65.921875 
Q 24.65625 65.921875 20.015625 65.03125 
Q 15.375 64.15625 9.8125 62.3125 
L 9.8125 71.09375 
Q 15.4375 72.65625 20.34375 73.4375 
Q 25.25 74.21875 29.59375 74.21875 
Q 40.828125 74.21875 47.359375 69.109375 
Q 53.90625 64.015625 53.90625 55.328125 
Q 53.90625 49.265625 50.4375 45.09375 
Q 46.96875 40.921875 40.578125 39.3125 
z
" id="DejaVuSans-51"/>
     <path d="M 10.6875 12.40625 
L 21 12.40625 
L 21 0 
L 10.6875 0 
z
" id="DejaVuSans-46"/>
     <path d="M 31.78125 34.625 
Q 24.75 34.625 20.71875 30.859375 
Q 16.703125 27.09375 16.703125 20.515625 
Q 16.703125 13.921875 20.71875 10.15625 
Q 24.75 6.390625 31.78125 6.390625 
Q 38.8125 6.390625 42.859375 10.171875 
Q 46.921875 13.96875 46.921875 20.515625 
Q 46.921875 27.09375 42.890625 30.859375 
Q 38.875 34.625 31.78125 34.625 
z
M 21.921875 38.8125 
Q 15.578125 40.375 12.03125 44.71875 
Q 8.5 49.078125 8.5 55.328125 
Q 8.5 64.0625 14.71875 69.140625 
Q 20.953125 74.21875 31.78125 74.21875 
Q 42.671875 74.21875 48.875 69.140625 
Q 55.078125 64.0625 55.078125 55.328125 
Q 55.078125 49.078125 51.53125 44.71875 
Q 48 40.375 41.703125 38.8125 
Q 48.828125 37.15625 52.796875 32.3125 
Q 56.78125 27.484375 56.78125 20.515625 
Q 56.78125 9.90625 50.3125 4.234375 
Q 43.84375 -1.421875 31.78125 -1.421875 
Q 19.734375 -1.421875 13.25 4.234375 
Q 6.78125 9.90625 6.78125 20.515625 
Q 6.78125 27.484375 10.78125 32.3125 
Q 14.796875 37.15625 21.921875 38.8125 
z
M 18.3125 54.390625 
Q 18.3125 48.734375 21.84375 45.5625 
Q 25.390625 42.390625 31.78125 42.390625 
Q 38.140625 42.390625 41.71875 45.5625 
Q 45.3125 48.734375 45.3125 54.390625 
Q 45.3125 60.0625 41.71875 63.234375 
Q 38.140625 66.40625 31.78125 66.40625 
Q 25.390625 66.40625 21.84375 63.234375 
Q 18.3125 60.0625 18.3125 54.390625 
z
" id="DejaVuSans-56"/>
    </defs>
    <g transform="translate(200.664375 28.56)scale(0.12 -0.12)">
     <use xlink:href="#DejaVuSans-116"/>
     <use x="39.208984" xlink:href="#DejaVuSans-32"/>
     <use x="70.996094" xlink:href="#DejaVuSans-61"/>
     <use x="154.785156" xlink:href="#DejaVuSans-32"/>
     <use x="186.572266" xlink:href="#DejaVuSans-51"/>
     <use x="250.195312" xlink:href="#DejaVuSans-46"/>
     <use x="281.982422" xlink:href="#DejaVuSans-56"/>
    </g>
   </g>
  </g>
 </g>
 <defs>
  <clipPath id="p2ef84efc70">
   <rect height="217.44" width="334.8" x="54" y="34.56"/>
  </clipPath>
 </defs>
</svg>
