<?xml version="1.0" encoding="utf-8" standalone="no"?>
<!DOCTYPE svg PUBLIC "-//W3C//DTD SVG 1.1//EN"
  "http://www.w3.org/Graphics/SVG/1.1/DTD/svg11.dtd">
<!-- Created with matplotlib (https://matplotlib.org/) -->
<svg height="288pt" version="1.1" viewBox="0 0 432 288" width="432pt" xmlns="http://www.w3.org/2000/svg" xmlns:xlink="http://www.w3.org/1999/xlink">
 <defs>
  <style type="text/css">
*{stroke-linecap:butt;stroke-linejoin:round;}
  </style>
 </defs>
 <g id="figure_1">
  <g id="patch_1">
   <path d="M 0 288 
L 432 288 
L 432 0 
L 0 0 
z
" style="fill:#ffffff;"/>
  </g>
  <g id="axes_1">
   <g id="patch_2">
    <path clip-path="url(#p421f3e50f3)" d="M 194.740123 132.406827 
L 194.738498 143.278827 
L 193.651298 143.278665 
L 193.652923 132.406665 
z
" style="stroke:#000000;stroke-linejoin:miter;"/>
   </g>
   <g id="patch_3">
    <path clip-path="url(#p421f3e50f3)" d="M 249.100122 132.414951 
L 249.098497 143.286951 
L 248.011297 143.286789 
L 248.012922 132.414789 
z
" style="stroke:#000000;stroke-linejoin:miter;"/>
   </g>
   <g id="patch_4">
    <path clip-path="url(#p421f3e50f3)" d="M 212.316523 132.409454 
L 212.16784 131.857885 
L 211.724065 131.342349 
L 210.99248 130.896564 
L 209.985095 130.549683 
L 208.718449 130.324389 
L 207.213338 130.235408 
L 205.494475 130.288551 
L 203.590084 130.480328 
L 201.531437 130.798182 
L 199.35234 131.221305 
L 197.088575 131.722007 
L 194.777318 132.267518 
L 192.456523 132.822141 
L 190.164302 133.34958 
L 187.938297 133.815318 
L 185.815062 134.188876 
L 183.829464 134.445802 
L 182.014107 134.569278 
L 180.398801 134.551212 
L 179.010069 134.392775 
L 177.870713 134.10432 
L 176.999438 133.704707 
L 176.410549 133.220068 
L 176.113711 132.6821 
L 176.113794 132.125987 
L 176.410793 131.588107 
L 176.999827 131.103644 
L 177.871221 130.704292 
L 179.010664 130.416178 
L 180.399443 130.258156 
L 182.014754 130.240573 
L 183.830074 130.364591 
L 185.815596 130.622111 
L 187.938719 130.996303 
L 190.164584 131.462707 
L 192.456648 131.990831 
L 194.777276 132.546147 
L 197.08837 133.092349 
L 199.351985 133.593727 
L 201.530956 134.017503 
L 203.589508 134.335971 
L 205.493841 134.528318 
L 207.212688 134.581974 
L 208.717826 134.493444 
L 209.98454 134.268528 
L 210.992028 133.921948 
L 211.723746 133.476382 
L 212.167675 132.960978 
z
" style="fill:#0000ff;stroke:#000000;stroke-linejoin:miter;"/>
   </g>
   <g id="patch_5">
    <path clip-path="url(#p421f3e50f3)" d="M 266.676522 132.417578 
L 266.527839 131.866009 
L 266.084064 131.350473 
L 265.35248 130.904688 
L 264.345095 130.557807 
L 263.078448 130.332513 
L 261.573337 130.243532 
L 259.854474 130.296675 
L 257.950083 130.488452 
L 255.891437 130.806306 
L 253.712339 131.229429 
L 251.448575 131.730131 
L 249.137318 132.275642 
L 246.816523 132.830265 
L 244.524302 133.357704 
L 242.298297 133.823443 
L 240.175062 134.197 
L 238.189463 134.453926 
L 236.374107 134.577402 
L 234.758801 134.559336 
L 233.370069 134.400899 
L 232.230712 134.112444 
L 231.359438 133.712831 
L 230.770548 133.228192 
L 230.47371 132.690224 
L 230.473793 132.134111 
L 230.770792 131.596231 
L 231.359827 131.111768 
L 232.23122 130.712416 
L 233.370663 130.424302 
L 234.759442 130.26628 
L 236.374754 130.248697 
L 238.190073 130.372715 
L 240.175595 130.630235 
L 242.298718 131.004427 
L 244.524584 131.470831 
L 246.816647 131.998955 
L 249.137276 132.554271 
L 251.44837 133.100473 
L 253.711985 133.601852 
L 255.890956 134.025627 
L 257.949507 134.344095 
L 259.85384 134.536442 
L 261.572687 134.590098 
L 263.077825 134.501568 
L 264.344539 134.276652 
L 265.352028 133.930072 
L 266.083745 133.484506 
L 266.527675 132.969102 
z
" style="fill:#0000ff;stroke:#000000;stroke-linejoin:miter;"/>
   </g>
   <g id="patch_6">
    <path clip-path="url(#p421f3e50f3)" d="M 253.991303 140.569682 
L 188.759304 140.559933 
L 188.758492 145.995933 
L 253.990491 146.005682 
z
" style="fill:#999999;stroke:#000000;stroke-linejoin:miter;"/>
   </g>
   <g id="text_1">
    <!-- t = 3.3 -->
    <defs>
     <path d="M 18.3125 70.21875 
L 18.3125 54.6875 
L 36.8125 54.6875 
L 36.8125 47.703125 
L 18.3125 47.703125 
L 18.3125 18.015625 
Q 18.3125 11.328125 20.140625 9.421875 
Q 21.96875 7.515625 27.59375 7.515625 
L 36.8125 7.515625 
L 36.8125 0 
L 27.59375 0 
Q 17.1875 0 13.234375 3.875 
Q 9.28125 7.765625 9.28125 18.015625 
L 9.28125 47.703125 
L 2.6875 47.703125 
L 2.6875 54.6875 
L 9.28125 54.6875 
L 9.28125 70.21875 
z
" id="DejaVuSans-116"/>
     <path id="DejaVuSans-32"/>
     <path d="M 10.59375 45.40625 
L 73.1875 45.40625 
L 73.1875 37.203125 
L 10.59375 37.203125 
z
M 10.59375 25.484375 
L 73.1875 25.484375 
L 73.1875 17.1875 
L 10.59375 17.1875 
z
" id="DejaVuSans-61"/>
     <path d="M 40.578125 39.3125 
Q 47.65625 37.796875 51.625 33 
Q 55.609375 28.21875 55.609375 21.1875 
Q 55.609375 10.40625 48.1875 4.484375 
Q 40.765625 -1.421875 27.09375 -1.421875 
Q 22.515625 -1.421875 17.65625 -0.515625 
Q 12.796875 0.390625 7.625 2.203125 
L 7.625 11.71875 
Q 11.71875 9.328125 16.59375 8.109375 
Q 21.484375 6.890625 26.8125 6.890625 
Q 36.078125 6.890625 40.9375 10.546875 
Q 45.796875 14.203125 45.796875 21.1875 
Q 45.796875 27.640625 41.28125 31.265625 
Q 36.765625 34.90625 28.71875 34.90625 
L 20.21875 34.90625 
L 20.21875 43.015625 
L 29.109375 43.015625 
Q 36.375 43.015625 40.234375 45.921875 
Q 44.09375 48.828125 44.09375 54.296875 
Q 44.09375 59.90625 40.109375 62.90625 
Q 36.140625 65.921875 28.71875 65.921875 
Q 24.65625 65.921875 20.015625 65.03125 
Q 15.375 64.15625 9.8125 62.3125 
L 9.8125 71.09375 
Q 15.4375 72.65625 20.34375 73.4375 
Q 25.25 74.21875 29.59375 74.21875 
Q 40.828125 74.21875 47.359375 69.109375 
Q 53.90625 64.015625 53.90625 55.328125 
Q 53.90625 49.265625 50.4375 45.09375 
Q 46.96875 40.921875 40.578125 39.3125 
z
" id="DejaVuSans-51"/>
     <path d="M 10.6875 12.40625 
L 21 12.40625 
L 21 0 
L 10.6875 0 
z
" id="DejaVuSans-46"/>
    </defs>
    <g transform="translate(200.664375 28.56)scale(0.12 -0.12)">
     <use xlink:href="#DejaVuSans-116"/>
     <use x="39.208984" xlink:href="#DejaVuSans-32"/>
     <use x="70.996094" xlink:href="#DejaVuSans-61"/>
     <use x="154.785156" xlink:href="#DejaVuSans-32"/>
     <use x="186.572266" xlink:href="#DejaVuSans-51"/>
     <use x="250.195312" xlink:href="#DejaVuSans-46"/>
     <use x="281.982422" xlink:href="#DejaVuSans-51"/>
    </g>
   </g>
  </g>
 </g>
 <defs>
  <clipPath id="p421f3e50f3">
   <rect height="217.44" width="334.8" x="54" y="34.56"/>
  </clipPath>
 </defs>
</svg>
