<?xml version="1.0" encoding="utf-8" standalone="no"?>
<!DOCTYPE svg PUBLIC "-//W3C//DTD SVG 1.1//EN"
  "http://www.w3.org/Graphics/SVG/1.1/DTD/svg11.dtd">
<!-- Created with matplotlib (https://matplotlib.org/) -->
<svg height="288pt" version="1.1" viewBox="0 0 432 288" width="432pt" xmlns="http://www.w3.org/2000/svg" xmlns:xlink="http://www.w3.org/1999/xlink">
 <defs>
  <style type="text/css">
*{stroke-linecap:butt;stroke-linejoin:round;}
  </style>
 </defs>
 <g id="figure_1">
  <g id="patch_1">
   <path d="M 0 288 
L 432 288 
L 432 0 
L 0 0 
z
" style="fill:#ffffff;"/>
  </g>
  <g id="axes_1">
   <g id="patch_2">
    <path clip-path="url(#p5cf52a616a)" d="M 195.63234 133.351516 
L 195.827066 144.221772 
L 194.74004 144.241244 
L 194.545315 133.370988 
z
" style="stroke:#000000;stroke-linejoin:miter;"/>
   </g>
   <g id="patch_3">
    <path clip-path="url(#p5cf52a616a)" d="M 249.98362 132.377889 
L 250.178346 143.248145 
L 249.09132 143.267618 
L 248.896595 132.397362 
z
" style="stroke:#000000;stroke-linejoin:miter;"/>
   </g>
   <g id="patch_4">
    <path clip-path="url(#p5cf52a616a)" d="M 213.205921 133.03671 
L 213.047301 132.487916 
L 212.594288 131.980479 
L 211.854772 131.547979 
L 210.841286 131.219348 
L 209.570778 131.016966 
L 208.064305 130.955183 
L 206.346682 131.03936 
L 204.446065 131.265499 
L 202.393495 131.62048 
L 200.222395 132.08289 
L 197.968042 132.624393 
L 195.667014 133.211558 
L 193.356614 133.808004 
L 191.074293 134.376755 
L 188.857062 134.882619 
L 186.74092 135.294461 
L 184.760285 135.587206 
L 182.947455 135.743447 
L 181.332086 135.754557 
L 179.940719 135.621226 
L 178.796339 135.353396 
L 177.917989 134.969583 
L 177.320443 134.495659 
L 177.013938 133.963139 
L 177.003978 133.407116 
L 177.291214 132.863959 
L 177.871403 132.368937 
L 178.735442 131.953912 
L 179.869495 131.645267 
L 181.255194 131.462189 
L 182.869924 131.415437 
L 184.687188 131.506649 
L 186.677037 131.728268 
L 188.806571 132.064056 
L 191.040497 132.490184 
L 193.341725 132.976827 
L 195.672004 133.490142 
L 197.992586 133.994516 
L 200.264886 134.454931 
L 202.451155 134.839285 
L 204.515123 135.120524 
L 206.422619 135.278446 
L 208.142155 135.301051 
L 209.645448 135.185352 
L 210.907893 134.937596 
L 211.908958 134.572878 
L 212.63251 134.114169 
L 213.067058 133.590832 
z
" style="fill:#0000ff;stroke:#000000;stroke-linejoin:miter;"/>
   </g>
   <g id="patch_5">
    <path clip-path="url(#p5cf52a616a)" d="M 267.557201 132.063084 
L 267.398581 131.51429 
L 266.945568 131.006853 
L 266.206052 130.574353 
L 265.192566 130.245722 
L 263.922058 130.04334 
L 262.415585 129.981557 
L 260.697962 130.065734 
L 258.797346 130.291873 
L 256.744775 130.646854 
L 254.573675 131.109264 
L 252.319322 131.650767 
L 250.018294 132.237932 
L 247.707894 132.834378 
L 245.425573 133.403128 
L 243.208342 133.908993 
L 241.0922 134.320835 
L 239.111565 134.61358 
L 237.298735 134.769821 
L 235.683366 134.780931 
L 234.291999 134.6476 
L 233.147619 134.37977 
L 232.26927 133.995957 
L 231.671724 133.522033 
L 231.365218 132.989512 
L 231.355258 132.433489 
L 231.642494 131.890333 
L 232.222683 131.395311 
L 233.086722 130.980286 
L 234.220775 130.671641 
L 235.606474 130.488563 
L 237.221205 130.44181 
L 239.038468 130.533023 
L 241.028317 130.754642 
L 243.157851 131.090429 
L 245.391778 131.516558 
L 247.693005 132.0032 
L 250.023284 132.516515 
L 252.343866 133.02089 
L 254.616166 133.481305 
L 256.802435 133.865659 
L 258.866403 134.146898 
L 260.773899 134.30482 
L 262.493435 134.327425 
L 263.996728 134.211726 
L 265.259174 133.96397 
L 266.260239 133.599252 
L 266.98379 133.140543 
L 267.418339 132.617206 
z
" style="fill:#0000ff;stroke:#000000;stroke-linejoin:miter;"/>
   </g>
   <g id="patch_6">
    <path clip-path="url(#p5cf52a616a)" d="M 255.02128 140.442955 
L 189.799743 141.611306 
L 189.897106 147.046434 
L 255.118642 145.878083 
z
" style="fill:#999999;stroke:#000000;stroke-linejoin:miter;"/>
   </g>
   <g id="text_1">
    <!-- t = 1.9 -->
    <defs>
     <path d="M 18.3125 70.21875 
L 18.3125 54.6875 
L 36.8125 54.6875 
L 36.8125 47.703125 
L 18.3125 47.703125 
L 18.3125 18.015625 
Q 18.3125 11.328125 20.140625 9.421875 
Q 21.96875 7.515625 27.59375 7.515625 
L 36.8125 7.515625 
L 36.8125 0 
L 27.59375 0 
Q 17.1875 0 13.234375 3.875 
Q 9.28125 7.765625 9.28125 18.015625 
L 9.28125 47.703125 
L 2.6875 47.703125 
L 2.6875 54.6875 
L 9.28125 54.6875 
L 9.28125 70.21875 
z
" id="DejaVuSans-116"/>
     <path id="DejaVuSans-32"/>
     <path d="M 10.59375 45.40625 
L 73.1875 45.40625 
L 73.1875 37.203125 
L 10.59375 37.203125 
z
M 10.59375 25.484375 
L 73.1875 25.484375 
L 73.1875 17.1875 
L 10.59375 17.1875 
z
" id="DejaVuSans-61"/>
     <path d="M 12.40625 8.296875 
L 28.515625 8.296875 
L 28.515625 63.921875 
L 10.984375 60.40625 
L 10.984375 69.390625 
L 28.421875 72.90625 
L 38.28125 72.90625 
L 38.28125 8.296875 
L 54.390625 8.296875 
L 54.390625 0 
L 12.40625 0 
z
" id="DejaVuSans-49"/>
     <path d="M 10.6875 12.40625 
L 21 12.40625 
L 21 0 
L 10.6875 0 
z
" id="DejaVuSans-46"/>
     <path d="M 10.984375 1.515625 
L 10.984375 10.5 
Q 14.703125 8.734375 18.5 7.8125 
Q 22.3125 6.890625 25.984375 6.890625 
Q 35.75 6.890625 40.890625 13.453125 
Q 46.046875 20.015625 46.78125 33.40625 
Q 43.953125 29.203125 39.59375 26.953125 
Q 35.25 24.703125 29.984375 24.703125 
Q 19.046875 24.703125 12.671875 31.3125 
Q 6.296875 37.9375 6.296875 49.421875 
Q 6.296875 60.640625 12.9375 67.421875 
Q 19.578125 74.21875 30.609375 74.21875 
Q 43.265625 74.21875 49.921875 64.515625 
Q 56.59375 54.828125 56.59375 36.375 
Q 56.59375 19.140625 48.40625 8.859375 
Q 40.234375 -1.421875 26.421875 -1.421875 
Q 22.703125 -1.421875 18.890625 -0.6875 
Q 15.09375 0.046875 10.984375 1.515625 
z
M 30.609375 32.421875 
Q 37.25 32.421875 41.125 36.953125 
Q 45.015625 41.5 45.015625 49.421875 
Q 45.015625 57.28125 41.125 61.84375 
Q 37.25 66.40625 30.609375 66.40625 
Q 23.96875 66.40625 20.09375 61.84375 
Q 16.21875 57.28125 16.21875 49.421875 
Q 16.21875 41.5 20.09375 36.953125 
Q 23.96875 32.421875 30.609375 32.421875 
z
" id="DejaVuSans-57"/>
    </defs>
    <g transform="translate(200.664375 28.56)scale(0.12 -0.12)">
     <use xlink:href="#DejaVuSans-116"/>
     <use x="39.208984" xlink:href="#DejaVuSans-32"/>
     <use x="70.996094" xlink:href="#DejaVuSans-61"/>
     <use x="154.785156" xlink:href="#DejaVuSans-32"/>
     <use x="186.572266" xlink:href="#DejaVuSans-49"/>
     <use x="250.195312" xlink:href="#DejaVuSans-46"/>
     <use x="281.982422" xlink:href="#DejaVuSans-57"/>
    </g>
   </g>
  </g>
 </g>
 <defs>
  <clipPath id="p5cf52a616a">
   <rect height="217.44" width="334.8" x="54" y="34.56"/>
  </clipPath>
 </defs>
</svg>
