<?xml version="1.0" encoding="utf-8" standalone="no"?>
<!DOCTYPE svg PUBLIC "-//W3C//DTD SVG 1.1//EN"
  "http://www.w3.org/Graphics/SVG/1.1/DTD/svg11.dtd">
<!-- Created with matplotlib (https://matplotlib.org/) -->
<svg height="288pt" version="1.1" viewBox="0 0 432 288" width="432pt" xmlns="http://www.w3.org/2000/svg" xmlns:xlink="http://www.w3.org/1999/xlink">
 <defs>
  <style type="text/css">
*{stroke-linecap:butt;stroke-linejoin:round;}
  </style>
 </defs>
 <g id="figure_1">
  <g id="patch_1">
   <path d="M 0 288 
L 432 288 
L 432 0 
L 0 0 
z
" style="fill:#ffffff;"/>
  </g>
  <g id="axes_1">
   <g id="patch_2">
    <path clip-path="url(#p13c09c1595)" d="M 194.745318 132.408501 
L 194.748291 143.280501 
L 193.661091 143.280798 
L 193.658118 132.408798 
z
" style="stroke:#000000;stroke-linejoin:miter;"/>
   </g>
   <g id="patch_3">
    <path clip-path="url(#p13c09c1595)" d="M 249.105316 132.393636 
L 249.108289 143.265636 
L 248.021089 143.265933 
L 248.018116 132.393933 
z
" style="stroke:#000000;stroke-linejoin:miter;"/>
   </g>
   <g id="patch_4">
    <path clip-path="url(#p13c09c1595)" d="M 212.321718 132.403695 
L 212.172802 131.852189 
L 211.728809 131.336841 
L 210.997036 130.891365 
L 209.989504 130.54491 
L 208.722763 130.320151 
L 207.217614 130.231807 
L 205.498774 130.285677 
L 203.594464 130.47826 
L 201.535952 130.796984 
L 199.357034 131.221029 
L 197.093481 131.722688 
L 194.782455 132.269177 
L 192.461895 132.824781 
L 190.169897 133.353189 
L 187.944089 133.819869 
L 185.821013 134.194324 
L 183.835523 134.45209 
L 182.020219 134.576333 
L 180.404905 134.558951 
L 179.016106 134.401101 
L 177.876628 134.113128 
L 177.005185 133.713884 
L 176.41609 133.229494 
L 176.119025 132.691651 
L 176.118873 132.135538 
L 176.415644 131.597533 
L 177.004473 131.112821 
L 177.875698 130.7131 
L 179.015019 130.424504 
L 180.403731 130.265895 
L 182.019035 130.247629 
L 183.834407 130.370879 
L 185.820037 130.627559 
L 187.943318 131.000853 
L 190.169381 131.466315 
L 192.461668 131.99347 
L 194.782531 132.547805 
L 197.093856 133.09303 
L 199.357682 133.593451 
L 201.536833 134.016304 
L 203.595519 134.333902 
L 205.499933 134.525443 
L 207.218802 134.578373 
L 208.723903 134.489206 
L 209.990521 134.263755 
L 210.997863 133.916749 
L 211.729392 133.470873 
L 212.173104 132.955282 
z
" style="fill:#0000ff;stroke:#000000;stroke-linejoin:miter;"/>
   </g>
   <g id="patch_5">
    <path clip-path="url(#p13c09c1595)" d="M 266.681716 132.38883 
L 266.5328 131.837324 
L 266.088807 131.321976 
L 265.357034 130.8765 
L 264.349502 130.530045 
L 263.082761 130.305286 
L 261.577612 130.216943 
L 259.858772 130.270812 
L 257.954462 130.463395 
L 255.89595 130.782119 
L 253.717032 131.206164 
L 251.453479 131.707823 
L 249.142453 132.254312 
L 246.821893 132.809916 
L 244.529895 133.338324 
L 242.304087 133.805004 
L 240.181011 134.179459 
L 238.195521 134.437225 
L 236.380217 134.561468 
L 234.764903 134.544086 
L 233.376104 134.386236 
L 232.236626 134.098263 
L 231.365183 133.699019 
L 230.776088 133.214629 
L 230.479023 132.676786 
L 230.478871 132.120673 
L 230.775642 131.582668 
L 231.364471 131.097956 
L 232.235696 130.698235 
L 233.375017 130.409639 
L 234.763729 130.25103 
L 236.379033 130.232764 
L 238.194405 130.356014 
L 240.180035 130.612694 
L 242.303316 130.985988 
L 244.529379 131.451451 
L 246.821666 131.978605 
L 249.142529 132.53294 
L 251.453854 133.078165 
L 253.71768 133.578586 
L 255.89683 134.001439 
L 257.955517 134.319038 
L 259.859931 134.510578 
L 261.5788 134.563508 
L 263.083901 134.474341 
L 264.350519 134.24889 
L 265.357861 133.901884 
L 266.08939 133.456008 
L 266.533102 132.940417 
z
" style="fill:#0000ff;stroke:#000000;stroke-linejoin:miter;"/>
   </g>
   <g id="patch_6">
    <path clip-path="url(#p13c09c1595)" d="M 253.999946 140.546298 
L 188.767948 140.564136 
L 188.769435 146.000136 
L 254.001432 145.982298 
z
" style="fill:#999999;stroke:#000000;stroke-linejoin:miter;"/>
   </g>
   <g id="text_1">
    <!-- t = 2.7 -->
    <defs>
     <path d="M 18.3125 70.21875 
L 18.3125 54.6875 
L 36.8125 54.6875 
L 36.8125 47.703125 
L 18.3125 47.703125 
L 18.3125 18.015625 
Q 18.3125 11.328125 20.140625 9.421875 
Q 21.96875 7.515625 27.59375 7.515625 
L 36.8125 7.515625 
L 36.8125 0 
L 27.59375 0 
Q 17.1875 0 13.234375 3.875 
Q 9.28125 7.765625 9.28125 18.015625 
L 9.28125 47.703125 
L 2.6875 47.703125 
L 2.6875 54.6875 
L 9.28125 54.6875 
L 9.28125 70.21875 
z
" id="DejaVuSans-116"/>
     <path id="DejaVuSans-32"/>
     <path d="M 10.59375 45.40625 
L 73.1875 45.40625 
L 73.1875 37.203125 
L 10.59375 37.203125 
z
M 10.59375 25.484375 
L 73.1875 25.484375 
L 73.1875 17.1875 
L 10.59375 17.1875 
z
" id="DejaVuSans-61"/>
     <path d="M 19.1875 8.296875 
L 53.609375 8.296875 
L 53.609375 0 
L 7.328125 0 
L 7.328125 8.296875 
Q 12.9375 14.109375 22.625 23.890625 
Q 32.328125 33.6875 34.8125 36.53125 
Q 39.546875 41.84375 41.421875 45.53125 
Q 43.3125 49.21875 43.3125 52.78125 
Q 43.3125 58.59375 39.234375 62.25 
Q 35.15625 65.921875 28.609375 65.921875 
Q 23.96875 65.921875 18.8125 64.3125 
Q 13.671875 62.703125 7.8125 59.421875 
L 7.8125 69.390625 
Q 13.765625 71.78125 18.9375 73 
Q 24.125 74.21875 28.421875 74.21875 
Q 39.75 74.21875 46.484375 68.546875 
Q 53.21875 62.890625 53.21875 53.421875 
Q 53.21875 48.921875 51.53125 44.890625 
Q 49.859375 40.875 45.40625 35.40625 
Q 44.1875 33.984375 37.640625 27.21875 
Q 31.109375 20.453125 19.1875 8.296875 
z
" id="DejaVuSans-50"/>
     <path d="M 10.6875 12.40625 
L 21 12.40625 
L 21 0 
L 10.6875 0 
z
" id="DejaVuSans-46"/>
     <path d="M 8.203125 72.90625 
L 55.078125 72.90625 
L 55.078125 68.703125 
L 28.609375 0 
L 18.3125 0 
L 43.21875 64.59375 
L 8.203125 64.59375 
z
" id="DejaVuSans-55"/>
    </defs>
    <g transform="translate(200.664375 28.56)scale(0.12 -0.12)">
     <use xlink:href="#DejaVuSans-116"/>
     <use x="39.208984" xlink:href="#DejaVuSans-32"/>
     <use x="70.996094" xlink:href="#DejaVuSans-61"/>
     <use x="154.785156" xlink:href="#DejaVuSans-32"/>
     <use x="186.572266" xlink:href="#DejaVuSans-50"/>
     <use x="250.195312" xlink:href="#DejaVuSans-46"/>
     <use x="281.982422" xlink:href="#DejaVuSans-55"/>
    </g>
   </g>
  </g>
 </g>
 <defs>
  <clipPath id="p13c09c1595">
   <rect height="217.44" width="334.8" x="54" y="34.56"/>
  </clipPath>
 </defs>
</svg>
