<?xml version="1.0" encoding="utf-8" standalone="no"?>
<!DOCTYPE svg PUBLIC "-//W3C//DTD SVG 1.1//EN"
  "http://www.w3.org/Graphics/SVG/1.1/DTD/svg11.dtd">
<!-- Created with matplotlib (https://matplotlib.org/) -->
<svg height="288pt" version="1.1" viewBox="0 0 432 288" width="432pt" xmlns="http://www.w3.org/2000/svg" xmlns:xlink="http://www.w3.org/1999/xlink">
 <defs>
  <style type="text/css">
*{stroke-linecap:butt;stroke-linejoin:round;}
  </style>
 </defs>
 <g id="figure_1">
  <g id="patch_1">
   <path d="M 0 288 
L 432 288 
L 432 0 
L 0 0 
z
" style="fill:#ffffff;"/>
  </g>
  <g id="axes_1">
   <g id="patch_2">
    <path clip-path="url(#p1cf2be5a1f)" d="M 194.744745 132.40216 
L 194.740013 143.274159 
L 193.652813 143.273686 
L 193.657545 132.401687 
z
" style="stroke:#000000;stroke-linejoin:miter;"/>
   </g>
   <g id="patch_3">
    <path clip-path="url(#p1cf2be5a1f)" d="M 249.10474 132.425823 
L 249.100007 143.297822 
L 248.012807 143.297349 
L 248.01754 132.42535 
z
" style="stroke:#000000;stroke-linejoin:miter;"/>
   </g>
   <g id="patch_4">
    <path clip-path="url(#p1cf2be5a1f)" d="M 212.321143 132.409811 
L 212.172619 131.8582 
L 211.728991 131.342537 
L 210.997534 130.896543 
L 209.990248 130.549374 
L 208.723666 130.323718 
L 207.21858 130.234307 
L 205.499702 130.286959 
L 203.595257 130.478191 
L 201.536519 130.795456 
L 199.357301 131.217957 
L 197.093393 131.718011 
L 194.78198 132.262862 
L 192.461027 132.816822 
L 190.168655 133.343605 
L 187.942517 133.808707 
L 185.819176 134.181658 
L 183.833504 134.438017 
L 182.018112 134.560973 
L 180.402811 134.542446 
L 179.014125 134.383612 
L 177.874851 134.094832 
L 177.00369 133.69497 
L 176.41494 133.210162 
L 176.118255 132.672109 
L 176.118497 132.115996 
L 176.41565 131.578201 
L 177.004823 131.093907 
L 177.876331 130.694803 
L 179.015856 130.407015 
L 180.40468 130.24939 
L 182.019996 130.232269 
L 183.83528 130.356806 
L 185.820728 130.614893 
L 187.943744 130.989692 
L 190.169477 131.456732 
L 192.461389 131.985511 
L 194.781859 132.541491 
L 197.092797 133.088354 
L 199.356268 133.590379 
L 201.535118 134.014777 
L 203.593578 134.333834 
L 205.497856 134.526725 
L 207.216688 134.580872 
L 208.721851 134.492772 
L 209.988629 134.268219 
L 210.996217 133.921927 
L 211.728062 133.47657 
L 212.172138 132.961293 
z
" style="fill:#0000ff;stroke:#000000;stroke-linejoin:miter;"/>
   </g>
   <g id="patch_5">
    <path clip-path="url(#p1cf2be5a1f)" d="M 266.681138 132.433474 
L 266.532613 131.881863 
L 266.088986 131.3662 
L 265.357528 130.920205 
L 264.350243 130.573037 
L 263.083661 130.34738 
L 261.578575 130.25797 
L 259.859697 130.310621 
L 257.955252 130.501854 
L 255.896514 130.819119 
L 253.717296 131.24162 
L 251.453388 131.741674 
L 249.141975 132.286525 
L 246.821022 132.840484 
L 244.52865 133.367268 
L 242.302512 133.83237 
L 240.179171 134.205321 
L 238.193499 134.461679 
L 236.378107 134.584636 
L 234.762806 134.566108 
L 233.374119 134.407275 
L 232.234846 134.118494 
L 231.363685 133.718632 
L 230.774934 133.233825 
L 230.47825 132.695771 
L 230.478492 132.139659 
L 230.775645 131.601864 
L 231.364818 131.117569 
L 232.236326 130.718466 
L 233.37585 130.430677 
L 234.764675 130.273053 
L 236.379991 130.255931 
L 238.195275 130.380468 
L 240.180723 130.638556 
L 242.303739 131.013355 
L 244.529472 131.480395 
L 246.821384 132.009174 
L 249.141854 132.565153 
L 251.452792 133.112016 
L 253.716263 133.614042 
L 255.895113 134.038439 
L 257.953573 134.357497 
L 259.857851 134.550387 
L 261.576683 134.604535 
L 263.081846 134.516435 
L 264.348624 134.291881 
L 265.356212 133.945589 
L 266.088057 133.500232 
L 266.532133 132.984956 
z
" style="fill:#0000ff;stroke:#000000;stroke-linejoin:miter;"/>
   </g>
   <g id="patch_6">
    <path clip-path="url(#p1cf2be5a1f)" d="M 253.99359 140.581952 
L 188.761596 140.553557 
L 188.75923 145.989556 
L 253.991224 146.017951 
z
" style="fill:#999999;stroke:#000000;stroke-linejoin:miter;"/>
   </g>
   <g id="text_1">
    <!-- t = 3.1 -->
    <defs>
     <path d="M 18.3125 70.21875 
L 18.3125 54.6875 
L 36.8125 54.6875 
L 36.8125 47.703125 
L 18.3125 47.703125 
L 18.3125 18.015625 
Q 18.3125 11.328125 20.140625 9.421875 
Q 21.96875 7.515625 27.59375 7.515625 
L 36.8125 7.515625 
L 36.8125 0 
L 27.59375 0 
Q 17.1875 0 13.234375 3.875 
Q 9.28125 7.765625 9.28125 18.015625 
L 9.28125 47.703125 
L 2.6875 47.703125 
L 2.6875 54.6875 
L 9.28125 54.6875 
L 9.28125 70.21875 
z
" id="DejaVuSans-116"/>
     <path id="DejaVuSans-32"/>
     <path d="M 10.59375 45.40625 
L 73.1875 45.40625 
L 73.1875 37.203125 
L 10.59375 37.203125 
z
M 10.59375 25.484375 
L 73.1875 25.484375 
L 73.1875 17.1875 
L 10.59375 17.1875 
z
" id="DejaVuSans-61"/>
     <path d="M 40.578125 39.3125 
Q 47.65625 37.796875 51.625 33 
Q 55.609375 28.21875 55.609375 21.1875 
Q 55.609375 10.40625 48.1875 4.484375 
Q 40.765625 -1.421875 27.09375 -1.421875 
Q 22.515625 -1.421875 17.65625 -0.515625 
Q 12.796875 0.390625 7.625 2.203125 
L 7.625 11.71875 
Q 11.71875 9.328125 16.59375 8.109375 
Q 21.484375 6.890625 26.8125 6.890625 
Q 36.078125 6.890625 40.9375 10.546875 
Q 45.796875 14.203125 45.796875 21.1875 
Q 45.796875 27.640625 41.28125 31.265625 
Q 36.765625 34.90625 28.71875 34.90625 
L 20.21875 34.90625 
L 20.21875 43.015625 
L 29.109375 43.015625 
Q 36.375 43.015625 40.234375 45.921875 
Q 44.09375 48.828125 44.09375 54.296875 
Q 44.09375 59.90625 40.109375 62.90625 
Q 36.140625 65.921875 28.71875 65.921875 
Q 24.65625 65.921875 20.015625 65.03125 
Q 15.375 64.15625 9.8125 62.3125 
L 9.8125 71.09375 
Q 15.4375 72.65625 20.34375 73.4375 
Q 25.25 74.21875 29.59375 74.21875 
Q 40.828125 74.21875 47.359375 69.109375 
Q 53.90625 64.015625 53.90625 55.328125 
Q 53.90625 49.265625 50.4375 45.09375 
Q 46.96875 40.921875 40.578125 39.3125 
z
" id="DejaVuSans-51"/>
     <path d="M 10.6875 12.40625 
L 21 12.40625 
L 21 0 
L 10.6875 0 
z
" id="DejaVuSans-46"/>
     <path d="M 12.40625 8.296875 
L 28.515625 8.296875 
L 28.515625 63.921875 
L 10.984375 60.40625 
L 10.984375 69.390625 
L 28.421875 72.90625 
L 38.28125 72.90625 
L 38.28125 8.296875 
L 54.390625 8.296875 
L 54.390625 0 
L 12.40625 0 
z
" id="DejaVuSans-49"/>
    </defs>
    <g transform="translate(200.664375 28.56)scale(0.12 -0.12)">
     <use xlink:href="#DejaVuSans-116"/>
     <use x="39.208984" xlink:href="#DejaVuSans-32"/>
     <use x="70.996094" xlink:href="#DejaVuSans-61"/>
     <use x="154.785156" xlink:href="#DejaVuSans-32"/>
     <use x="186.572266" xlink:href="#DejaVuSans-51"/>
     <use x="250.195312" xlink:href="#DejaVuSans-46"/>
     <use x="281.982422" xlink:href="#DejaVuSans-49"/>
    </g>
   </g>
  </g>
 </g>
 <defs>
  <clipPath id="p1cf2be5a1f">
   <rect height="217.44" width="334.8" x="54" y="34.56"/>
  </clipPath>
 </defs>
</svg>
