<?xml version="1.0" encoding="utf-8" standalone="no"?>
<!DOCTYPE svg PUBLIC "-//W3C//DTD SVG 1.1//EN"
  "http://www.w3.org/Graphics/SVG/1.1/DTD/svg11.dtd">
<!-- Created with matplotlib (https://matplotlib.org/) -->
<svg height="288pt" version="1.1" viewBox="0 0 432 288" width="432pt" xmlns="http://www.w3.org/2000/svg" xmlns:xlink="http://www.w3.org/1999/xlink">
 <defs>
  <style type="text/css">
*{stroke-linecap:butt;stroke-linejoin:round;}
  </style>
 </defs>
 <g id="figure_1">
  <g id="patch_1">
   <path d="M 0 288 
L 432 288 
L 432 0 
L 0 0 
z
" style="fill:#ffffff;"/>
  </g>
  <g id="axes_1">
   <g id="patch_2">
    <path clip-path="url(#p0077bf2e58)" d="M 194.953814 132.411772 
L 194.945045 143.283768 
L 193.857845 143.282891 
L 193.866615 132.410895 
z
" style="stroke:#000000;stroke-linejoin:miter;"/>
   </g>
   <g id="patch_3">
    <path clip-path="url(#p0077bf2e58)" d="M 249.313797 132.455619 
L 249.305027 143.327616 
L 248.217827 143.326739 
L 248.226597 132.454742 
z
" style="stroke:#000000;stroke-linejoin:miter;"/>
   </g>
   <g id="patch_4">
    <path clip-path="url(#p0077bf2e58)" d="M 212.530209 132.425949 
L 212.381889 131.874283 
L 211.938452 131.358455 
L 211.207161 130.912189 
L 210.200004 130.564647 
L 208.933506 130.33852 
L 207.428453 130.248551 
L 205.709556 130.300564 
L 203.80504 130.491089 
L 201.746185 130.80759 
L 199.566809 131.229281 
L 197.302716 131.728495 
L 194.991101 132.272488 
L 192.669943 132.825585 
L 190.377375 133.351518 
L 188.151065 133.815793 
L 186.027585 134.187955 
L 184.041818 134.443577 
L 182.226381 134.565859 
L 180.611087 134.546732 
L 179.222459 134.387382 
L 178.083293 134.098179 
L 177.212281 133.697993 
L 176.62371 133.212968 
L 176.327226 132.674804 
L 176.327674 132.118692 
L 176.625027 131.581007 
L 177.214379 131.096931 
L 178.086035 130.698151 
L 179.225667 130.410786 
L 180.61455 130.253677 
L 182.229872 130.237156 
L 184.04511 130.362366 
L 186.030462 130.621191 
L 188.153339 130.996778 
L 190.378897 131.464645 
L 192.670613 131.994275 
L 194.990877 132.551116 
L 197.301611 133.098837 
L 199.564896 133.601703 
L 201.743588 134.02691 
L 203.80193 134.346731 
L 205.706136 134.540329 
L 207.424947 134.595115 
L 208.930143 134.507574 
L 210.197004 134.28349 
L 211.204721 133.937573 
L 211.936731 133.492487 
L 212.380999 132.977376 
z
" style="fill:#0000ff;stroke:#000000;stroke-linejoin:miter;"/>
   </g>
   <g id="patch_5">
    <path clip-path="url(#p0077bf2e58)" d="M 266.890191 132.469797 
L 266.741871 131.91813 
L 266.298435 131.402303 
L 265.567143 130.956037 
L 264.559986 130.608494 
L 263.293488 130.382368 
L 261.788436 130.292398 
L 260.069538 130.344411 
L 258.165022 130.534937 
L 256.106167 130.851437 
L 253.926792 131.273129 
L 251.662699 131.772343 
L 249.351084 132.316335 
L 247.029925 132.869433 
L 244.737358 133.395365 
L 242.511047 133.859641 
L 240.387567 134.231803 
L 238.4018 134.487424 
L 236.586363 134.609706 
L 234.971069 134.590579 
L 233.582441 134.43123 
L 232.443275 134.142026 
L 231.572263 133.741841 
L 230.983692 133.256815 
L 230.687208 132.718651 
L 230.687656 132.162539 
L 230.985009 131.624854 
L 231.574361 131.140779 
L 232.446017 130.741999 
L 233.585649 130.454633 
L 234.974532 130.297524 
L 236.589854 130.281003 
L 238.405092 130.406214 
L 240.390444 130.665039 
L 242.513321 131.040626 
L 244.73888 131.508492 
L 247.030595 132.038122 
L 249.350859 132.594964 
L 251.661593 133.142685 
L 253.924878 133.64555 
L 256.10357 134.070757 
L 258.161912 134.390579 
L 260.066118 134.584176 
L 261.78493 134.638962 
L 263.290125 134.551421 
L 264.556987 134.327338 
L 265.564703 133.98142 
L 266.296713 133.536335 
L 266.740981 133.021223 
z
" style="fill:#0000ff;stroke:#000000;stroke-linejoin:miter;"/>
   </g>
   <g id="patch_6">
    <path clip-path="url(#p0077bf2e58)" d="M 254.199618 140.613563 
L 188.967639 140.560946 
L 188.963254 145.996944 
L 254.195233 146.049561 
z
" style="fill:#999999;stroke:#000000;stroke-linejoin:miter;"/>
   </g>
   <g id="text_1">
    <!-- t = 2.4 -->
    <defs>
     <path d="M 18.3125 70.21875 
L 18.3125 54.6875 
L 36.8125 54.6875 
L 36.8125 47.703125 
L 18.3125 47.703125 
L 18.3125 18.015625 
Q 18.3125 11.328125 20.140625 9.421875 
Q 21.96875 7.515625 27.59375 7.515625 
L 36.8125 7.515625 
L 36.8125 0 
L 27.59375 0 
Q 17.1875 0 13.234375 3.875 
Q 9.28125 7.765625 9.28125 18.015625 
L 9.28125 47.703125 
L 2.6875 47.703125 
L 2.6875 54.6875 
L 9.28125 54.6875 
L 9.28125 70.21875 
z
" id="DejaVuSans-116"/>
     <path id="DejaVuSans-32"/>
     <path d="M 10.59375 45.40625 
L 73.1875 45.40625 
L 73.1875 37.203125 
L 10.59375 37.203125 
z
M 10.59375 25.484375 
L 73.1875 25.484375 
L 73.1875 17.1875 
L 10.59375 17.1875 
z
" id="DejaVuSans-61"/>
     <path d="M 19.1875 8.296875 
L 53.609375 8.296875 
L 53.609375 0 
L 7.328125 0 
L 7.328125 8.296875 
Q 12.9375 14.109375 22.625 23.890625 
Q 32.328125 33.6875 34.8125 36.53125 
Q 39.546875 41.84375 41.421875 45.53125 
Q 43.3125 49.21875 43.3125 52.78125 
Q 43.3125 58.59375 39.234375 62.25 
Q 35.15625 65.921875 28.609375 65.921875 
Q 23.96875 65.921875 18.8125 64.3125 
Q 13.671875 62.703125 7.8125 59.421875 
L 7.8125 69.390625 
Q 13.765625 71.78125 18.9375 73 
Q 24.125 74.21875 28.421875 74.21875 
Q 39.75 74.21875 46.484375 68.546875 
Q 53.21875 62.890625 53.21875 53.421875 
Q 53.21875 48.921875 51.53125 44.890625 
Q 49.859375 40.875 45.40625 35.40625 
Q 44.1875 33.984375 37.640625 27.21875 
Q 31.109375 20.453125 19.1875 8.296875 
z
" id="DejaVuSans-50"/>
     <path d="M 10.6875 12.40625 
L 21 12.40625 
L 21 0 
L 10.6875 0 
z
" id="DejaVuSans-46"/>
     <path d="M 37.796875 64.3125 
L 12.890625 25.390625 
L 37.796875 25.390625 
z
M 35.203125 72.90625 
L 47.609375 72.90625 
L 47.609375 25.390625 
L 58.015625 25.390625 
L 58.015625 17.1875 
L 47.609375 17.1875 
L 47.609375 0 
L 37.796875 0 
L 37.796875 17.1875 
L 4.890625 17.1875 
L 4.890625 26.703125 
z
" id="DejaVuSans-52"/>
    </defs>
    <g transform="translate(200.664375 28.56)scale(0.12 -0.12)">
     <use xlink:href="#DejaVuSans-116"/>
     <use x="39.208984" xlink:href="#DejaVuSans-32"/>
     <use x="70.996094" xlink:href="#DejaVuSans-61"/>
     <use x="154.785156" xlink:href="#DejaVuSans-32"/>
     <use x="186.572266" xlink:href="#DejaVuSans-50"/>
     <use x="250.195312" xlink:href="#DejaVuSans-46"/>
     <use x="281.982422" xlink:href="#DejaVuSans-52"/>
    </g>
   </g>
  </g>
 </g>
 <defs>
  <clipPath id="p0077bf2e58">
   <rect height="217.44" width="334.8" x="54" y="34.56"/>
  </clipPath>
 </defs>
</svg>
