<?xml version="1.0" encoding="utf-8" standalone="no"?>
<!DOCTYPE svg PUBLIC "-//W3C//DTD SVG 1.1//EN"
  "http://www.w3.org/Graphics/SVG/1.1/DTD/svg11.dtd">
<!-- Created with matplotlib (https://matplotlib.org/) -->
<svg height="288pt" version="1.1" viewBox="0 0 432 288" width="432pt" xmlns="http://www.w3.org/2000/svg" xmlns:xlink="http://www.w3.org/1999/xlink">
 <defs>
  <style type="text/css">
*{stroke-linecap:butt;stroke-linejoin:round;}
  </style>
 </defs>
 <g id="figure_1">
  <g id="patch_1">
   <path d="M 0 288 
L 432 288 
L 432 0 
L 0 0 
z
" style="fill:#ffffff;"/>
  </g>
  <g id="axes_1">
   <g id="patch_2">
    <path clip-path="url(#p515ba8ed35)" d="M 130.356189 166.574893 
L 134.61533 176.577898 
L 133.61503 177.003812 
L 129.355889 167.000807 
z
" style="stroke:#000000;stroke-linejoin:miter;"/>
   </g>
   <g id="patch_3">
    <path clip-path="url(#p515ba8ed35)" d="M 180.371214 145.27919 
L 184.630354 155.282195 
L 183.630054 155.708109 
L 179.370913 145.705104 
z
" style="stroke:#000000;stroke-linejoin:miter;"/>
   </g>
   <g id="patch_4">
    <path clip-path="url(#p515ba8ed35)" d="M 146.527714 159.689282 
L 146.17477 159.2401 
L 145.564458 158.939712 
L 144.716692 158.816285 
L 143.653947 158.891936 
L 142.400326 159.181049 
L 140.980735 159.689025 
L 139.420187 160.411524 
L 137.743281 161.334274 
L 135.973866 162.433467 
L 134.134889 163.676714 
L 132.248419 165.024513 
L 130.335816 166.432151 
L 128.418009 167.851908 
L 126.515837 169.235458 
L 124.650405 170.536293 
L 122.843397 171.712047 
L 121.11731 172.726559 
L 119.495549 173.55158 
L 118.002369 174.167982 
L 116.662629 174.56645 
L 115.501365 174.747571 
L 114.543178 174.721367 
L 113.811467 174.506273 
L 113.327548 174.127664 
L 113.109689 173.616001 
L 113.172141 173.004754 
L 113.524203 172.328206 
L 114.169393 171.619305 
L 115.104785 170.9077 
L 116.320551 170.218069 
L 117.799766 169.568867 
L 119.518483 168.971558 
L 121.446106 168.430372 
L 123.546046 167.942601 
L 125.776648 167.499401 
L 128.09234 167.087044 
L 130.444969 166.688508 
L 132.785255 166.285325 
L 135.064293 165.859509 
L 137.235045 165.395469 
L 139.253742 164.881737 
L 141.081129 164.312407 
L 142.683516 163.688171 
L 144.033567 163.016873 
L 145.110816 162.313534 
L 145.901896 161.599852 
L 146.400472 160.903172 
L 146.60691 160.255023 
z
" style="fill:#0000ff;stroke:#000000;stroke-linejoin:miter;"/>
   </g>
   <g id="patch_5">
    <path clip-path="url(#p515ba8ed35)" d="M 196.542738 138.393579 
L 196.189794 137.944397 
L 195.579482 137.644009 
L 194.731716 137.520582 
L 193.668971 137.596233 
L 192.41535 137.885346 
L 190.99576 138.393322 
L 189.435211 139.115821 
L 187.758305 140.038571 
L 185.98889 141.137764 
L 184.149913 142.381011 
L 182.263443 143.72881 
L 180.35084 145.136448 
L 178.433033 146.556205 
L 176.530861 147.939755 
L 174.665429 149.24059 
L 172.858421 150.416344 
L 171.132334 151.430857 
L 169.510574 152.255877 
L 168.017393 152.872279 
L 166.677653 153.270747 
L 165.516389 153.451868 
L 164.558202 153.425664 
L 163.826491 153.21057 
L 163.342572 152.831961 
L 163.124713 152.320299 
L 163.187165 151.709051 
L 163.539227 151.032503 
L 164.184417 150.323603 
L 165.119809 149.611997 
L 166.335575 148.922366 
L 167.81479 148.273164 
L 169.533507 147.675855 
L 171.46113 147.134669 
L 173.56107 146.646898 
L 175.791672 146.203699 
L 178.107364 145.791341 
L 180.459994 145.392806 
L 182.800279 144.989622 
L 185.079317 144.563806 
L 187.250069 144.099766 
L 189.268766 143.586034 
L 191.096154 143.016704 
L 192.69854 142.392469 
L 194.048591 141.72117 
L 195.12584 141.017832 
L 195.91692 140.304149 
L 196.415496 139.607469 
L 196.621934 138.95932 
z
" style="fill:#0000ff;stroke:#000000;stroke-linejoin:miter;"/>
   </g>
   <g id="patch_6">
    <path clip-path="url(#p515ba8ed35)" d="M 188.066921 150.86483 
L 128.048892 176.419674 
L 130.178463 181.421176 
L 190.196491 155.866333 
z
" style="fill:#999999;stroke:#000000;stroke-linejoin:miter;"/>
   </g>
   <g id="text_1">
    <!-- t = 0.7 -->
    <defs>
     <path d="M 18.3125 70.21875 
L 18.3125 54.6875 
L 36.8125 54.6875 
L 36.8125 47.703125 
L 18.3125 47.703125 
L 18.3125 18.015625 
Q 18.3125 11.328125 20.140625 9.421875 
Q 21.96875 7.515625 27.59375 7.515625 
L 36.8125 7.515625 
L 36.8125 0 
L 27.59375 0 
Q 17.1875 0 13.234375 3.875 
Q 9.28125 7.765625 9.28125 18.015625 
L 9.28125 47.703125 
L 2.6875 47.703125 
L 2.6875 54.6875 
L 9.28125 54.6875 
L 9.28125 70.21875 
z
" id="DejaVuSans-116"/>
     <path id="DejaVuSans-32"/>
     <path d="M 10.59375 45.40625 
L 73.1875 45.40625 
L 73.1875 37.203125 
L 10.59375 37.203125 
z
M 10.59375 25.484375 
L 73.1875 25.484375 
L 73.1875 17.1875 
L 10.59375 17.1875 
z
" id="DejaVuSans-61"/>
     <path d="M 31.78125 66.40625 
Q 24.171875 66.40625 20.328125 58.90625 
Q 16.5 51.421875 16.5 36.375 
Q 16.5 21.390625 20.328125 13.890625 
Q 24.171875 6.390625 31.78125 6.390625 
Q 39.453125 6.390625 43.28125 13.890625 
Q 47.125 21.390625 47.125 36.375 
Q 47.125 51.421875 43.28125 58.90625 
Q 39.453125 66.40625 31.78125 66.40625 
z
M 31.78125 74.21875 
Q 44.046875 74.21875 50.515625 64.515625 
Q 56.984375 54.828125 56.984375 36.375 
Q 56.984375 17.96875 50.515625 8.265625 
Q 44.046875 -1.421875 31.78125 -1.421875 
Q 19.53125 -1.421875 13.0625 8.265625 
Q 6.59375 17.96875 6.59375 36.375 
Q 6.59375 54.828125 13.0625 64.515625 
Q 19.53125 74.21875 31.78125 74.21875 
z
" id="DejaVuSans-48"/>
     <path d="M 10.6875 12.40625 
L 21 12.40625 
L 21 0 
L 10.6875 0 
z
" id="DejaVuSans-46"/>
     <path d="M 8.203125 72.90625 
L 55.078125 72.90625 
L 55.078125 68.703125 
L 28.609375 0 
L 18.3125 0 
L 43.21875 64.59375 
L 8.203125 64.59375 
z
" id="DejaVuSans-55"/>
    </defs>
    <g transform="translate(200.664375 28.56)scale(0.12 -0.12)">
     <use xlink:href="#DejaVuSans-116"/>
     <use x="39.208984" xlink:href="#DejaVuSans-32"/>
     <use x="70.996094" xlink:href="#DejaVuSans-61"/>
     <use x="154.785156" xlink:href="#DejaVuSans-32"/>
     <use x="186.572266" xlink:href="#DejaVuSans-48"/>
     <use x="250.195312" xlink:href="#DejaVuSans-46"/>
     <use x="281.982422" xlink:href="#DejaVuSans-55"/>
    </g>
   </g>
  </g>
 </g>
 <defs>
  <clipPath id="p515ba8ed35">
   <rect height="217.44" width="334.8" x="54" y="34.56"/>
  </clipPath>
 </defs>
</svg>
