<?xml version="1.0" encoding="utf-8" standalone="no"?>
<!DOCTYPE svg PUBLIC "-//W3C//DTD SVG 1.1//EN"
  "http://www.w3.org/Graphics/SVG/1.1/DTD/svg11.dtd">
<!-- Created with matplotlib (https://matplotlib.org/) -->
<svg height="288pt" version="1.1" viewBox="0 0 432 288" width="432pt" xmlns="http://www.w3.org/2000/svg" xmlns:xlink="http://www.w3.org/1999/xlink">
 <defs>
  <style type="text/css">
*{stroke-linecap:butt;stroke-linejoin:round;}
  </style>
 </defs>
 <g id="figure_1">
  <g id="patch_1">
   <path d="M 0 288 
L 432 288 
L 432 0 
L 0 0 
z
" style="fill:#ffffff;"/>
  </g>
  <g id="axes_1">
   <g id="patch_2">
    <path clip-path="url(#pced1727db9)" d="M 194.761394 132.409303 
L 194.761994 143.281303 
L 193.674794 143.281363 
L 193.674194 132.409363 
z
" style="stroke:#000000;stroke-linejoin:miter;"/>
   </g>
   <g id="patch_3">
    <path clip-path="url(#pced1727db9)" d="M 249.121394 132.406302 
L 249.121994 143.278302 
L 248.034794 143.278362 
L 248.034194 132.406362 
z
" style="stroke:#000000;stroke-linejoin:miter;"/>
   </g>
   <g id="patch_4">
    <path clip-path="url(#pced1727db9)" d="M 212.337794 132.408333 
L 212.188999 131.856794 
L 211.745118 131.341349 
L 211.013442 130.895714 
L 210.005986 130.549039 
L 208.739294 130.324004 
L 207.234164 130.235332 
L 205.515312 130.288826 
L 203.610961 130.480993 
L 201.552379 130.799268 
L 199.373369 131.222837 
L 197.109706 131.724002 
L 194.798561 132.269987 
L 192.47788 132.825084 
L 190.185767 133.352992 
L 187.959857 133.819186 
L 185.836699 134.193178 
L 183.851153 134.450511 
L 182.035822 134.574358 
L 180.420512 134.556623 
L 179.031747 134.39847 
L 177.892332 134.110249 
L 177.020976 133.710814 
L 176.431987 133.226295 
L 176.135039 132.688387 
L 176.135008 132.132275 
L 176.431897 131.594334 
L 177.020832 131.109751 
L 177.892144 130.71022 
L 179.031528 130.421873 
L 180.420275 130.263567 
L 182.035583 130.245653 
L 183.850928 130.3693 
L 185.836502 130.626413 
L 187.959702 131.000171 
L 190.185663 131.466119 
L 192.477834 131.993774 
L 194.798576 132.548615 
L 197.109782 133.094345 
L 199.373499 133.595259 
L 201.552557 134.018589 
L 203.611174 134.336636 
L 205.515546 134.528593 
L 207.234404 134.581897 
L 208.739524 134.493059 
L 210.006192 134.267884 
L 211.013609 133.921098 
L 211.745236 133.475382 
L 212.18906 132.959887 
z
" style="fill:#0000ff;stroke:#000000;stroke-linejoin:miter;"/>
   </g>
   <g id="patch_5">
    <path clip-path="url(#pced1727db9)" d="M 266.697794 132.405332 
L 266.548999 131.853793 
L 266.105118 131.338348 
L 265.373442 130.892713 
L 264.365986 130.546038 
L 263.099294 130.321003 
L 261.594164 130.232331 
L 259.875312 130.285825 
L 257.970961 130.477992 
L 255.912379 130.796267 
L 253.733368 131.219836 
L 251.469706 131.721001 
L 249.158561 132.266986 
L 246.83788 132.822083 
L 244.545767 133.349991 
L 242.319857 133.816185 
L 240.196699 134.190177 
L 238.211153 134.44751 
L 236.395821 134.571357 
L 234.780512 134.553622 
L 233.391747 134.395469 
L 232.252332 134.107248 
L 231.380976 133.707813 
L 230.791987 133.223294 
L 230.495039 132.685386 
L 230.495008 132.129274 
L 230.791897 131.591333 
L 231.380832 131.10675 
L 232.252144 130.707219 
L 233.391528 130.418872 
L 234.780275 130.260566 
L 236.395582 130.242652 
L 238.210928 130.366299 
L 240.196502 130.623412 
L 242.319701 130.99717 
L 244.545663 131.463118 
L 246.837834 131.990773 
L 249.158576 132.545614 
L 251.469782 133.091344 
L 253.733499 133.592258 
L 255.912557 134.015588 
L 257.971174 134.333635 
L 259.875546 134.525592 
L 261.594404 134.578896 
L 263.099524 134.490058 
L 264.366192 134.264883 
L 265.373609 133.918097 
L 266.105236 133.472381 
L 266.54906 132.956886 
z
" style="fill:#0000ff;stroke:#000000;stroke-linejoin:miter;"/>
   </g>
   <g id="patch_6">
    <path clip-path="url(#pced1727db9)" d="M 254.014244 140.560032 
L 188.782244 140.563633 
L 188.782544 145.999633 
L 254.014544 145.996032 
z
" style="fill:#999999;stroke:#000000;stroke-linejoin:miter;"/>
   </g>
   <g id="text_1">
    <!-- t = 3.6 -->
    <defs>
     <path d="M 18.3125 70.21875 
L 18.3125 54.6875 
L 36.8125 54.6875 
L 36.8125 47.703125 
L 18.3125 47.703125 
L 18.3125 18.015625 
Q 18.3125 11.328125 20.140625 9.421875 
Q 21.96875 7.515625 27.59375 7.515625 
L 36.8125 7.515625 
L 36.8125 0 
L 27.59375 0 
Q 17.1875 0 13.234375 3.875 
Q 9.28125 7.765625 9.28125 18.015625 
L 9.28125 47.703125 
L 2.6875 47.703125 
L 2.6875 54.6875 
L 9.28125 54.6875 
L 9.28125 70.21875 
z
" id="DejaVuSans-116"/>
     <path id="DejaVuSans-32"/>
     <path d="M 10.59375 45.40625 
L 73.1875 45.40625 
L 73.1875 37.203125 
L 10.59375 37.203125 
z
M 10.59375 25.484375 
L 73.1875 25.484375 
L 73.1875 17.1875 
L 10.59375 17.1875 
z
" id="DejaVuSans-61"/>
     <path d="M 40.578125 39.3125 
Q 47.65625 37.796875 51.625 33 
Q 55.609375 28.21875 55.609375 21.1875 
Q 55.609375 10.40625 48.1875 4.484375 
Q 40.765625 -1.421875 27.09375 -1.421875 
Q 22.515625 -1.421875 17.65625 -0.515625 
Q 12.796875 0.390625 7.625 2.203125 
L 7.625 11.71875 
Q 11.71875 9.328125 16.59375 8.109375 
Q 21.484375 6.890625 26.8125 6.890625 
Q 36.078125 6.890625 40.9375 10.546875 
Q 45.796875 14.203125 45.796875 21.1875 
Q 45.796875 27.640625 41.28125 31.265625 
Q 36.765625 34.90625 28.71875 34.90625 
L 20.21875 34.90625 
L 20.21875 43.015625 
L 29.109375 43.015625 
Q 36.375 43.015625 40.234375 45.921875 
Q 44.09375 48.828125 44.09375 54.296875 
Q 44.09375 59.90625 40.109375 62.90625 
Q 36.140625 65.921875 28.71875 65.921875 
Q 24.65625 65.921875 20.015625 65.03125 
Q 15.375 64.15625 9.8125 62.3125 
L 9.8125 71.09375 
Q 15.4375 72.65625 20.34375 73.4375 
Q 25.25 74.21875 29.59375 74.21875 
Q 40.828125 74.21875 47.359375 69.109375 
Q 53.90625 64.015625 53.90625 55.328125 
Q 53.90625 49.265625 50.4375 45.09375 
Q 46.96875 40.921875 40.578125 39.3125 
z
" id="DejaVuSans-51"/>
     <path d="M 10.6875 12.40625 
L 21 12.40625 
L 21 0 
L 10.6875 0 
z
" id="DejaVuSans-46"/>
     <path d="M 33.015625 40.375 
Q 26.375 40.375 22.484375 35.828125 
Q 18.609375 31.296875 18.609375 23.390625 
Q 18.609375 15.53125 22.484375 10.953125 
Q 26.375 6.390625 33.015625 6.390625 
Q 39.65625 6.390625 43.53125 10.953125 
Q 47.40625 15.53125 47.40625 23.390625 
Q 47.40625 31.296875 43.53125 35.828125 
Q 39.65625 40.375 33.015625 40.375 
z
M 52.59375 71.296875 
L 52.59375 62.3125 
Q 48.875 64.0625 45.09375 64.984375 
Q 41.3125 65.921875 37.59375 65.921875 
Q 27.828125 65.921875 22.671875 59.328125 
Q 17.53125 52.734375 16.796875 39.40625 
Q 19.671875 43.65625 24.015625 45.921875 
Q 28.375 48.1875 33.59375 48.1875 
Q 44.578125 48.1875 50.953125 41.515625 
Q 57.328125 34.859375 57.328125 23.390625 
Q 57.328125 12.15625 50.6875 5.359375 
Q 44.046875 -1.421875 33.015625 -1.421875 
Q 20.359375 -1.421875 13.671875 8.265625 
Q 6.984375 17.96875 6.984375 36.375 
Q 6.984375 53.65625 15.1875 63.9375 
Q 23.390625 74.21875 37.203125 74.21875 
Q 40.921875 74.21875 44.703125 73.484375 
Q 48.484375 72.75 52.59375 71.296875 
z
" id="DejaVuSans-54"/>
    </defs>
    <g transform="translate(200.664375 28.56)scale(0.12 -0.12)">
     <use xlink:href="#DejaVuSans-116"/>
     <use x="39.208984" xlink:href="#DejaVuSans-32"/>
     <use x="70.996094" xlink:href="#DejaVuSans-61"/>
     <use x="154.785156" xlink:href="#DejaVuSans-32"/>
     <use x="186.572266" xlink:href="#DejaVuSans-51"/>
     <use x="250.195312" xlink:href="#DejaVuSans-46"/>
     <use x="281.982422" xlink:href="#DejaVuSans-54"/>
    </g>
   </g>
  </g>
 </g>
 <defs>
  <clipPath id="pced1727db9">
   <rect height="217.44" width="334.8" x="54" y="34.56"/>
  </clipPath>
 </defs>
</svg>
