<?xml version="1.0" encoding="utf-8" standalone="no"?>
<!DOCTYPE svg PUBLIC "-//W3C//DTD SVG 1.1//EN"
  "http://www.w3.org/Graphics/SVG/1.1/DTD/svg11.dtd">
<!-- Created with matplotlib (https://matplotlib.org/) -->
<svg height="288pt" version="1.1" viewBox="0 0 432 288" width="432pt" xmlns="http://www.w3.org/2000/svg" xmlns:xlink="http://www.w3.org/1999/xlink">
 <defs>
  <style type="text/css">
*{stroke-linecap:butt;stroke-linejoin:round;}
  </style>
 </defs>
 <g id="figure_1">
  <g id="patch_1">
   <path d="M 0 288 
L 432 288 
L 432 0 
L 0 0 
z
" style="fill:#ffffff;"/>
  </g>
  <g id="axes_1">
   <g id="patch_2">
    <path clip-path="url(#p34e5e15e6d)" d="M 194.734698 132.407642 
L 194.738522 143.279641 
L 193.651322 143.280024 
L 193.647498 132.408025 
z
" style="stroke:#000000;stroke-linejoin:miter;"/>
   </g>
   <g id="patch_3">
    <path clip-path="url(#p34e5e15e6d)" d="M 249.094694 132.388519 
L 249.098519 143.260518 
L 248.011319 143.260901 
L 248.007494 132.388901 
z
" style="stroke:#000000;stroke-linejoin:miter;"/>
   </g>
   <g id="patch_4">
    <path clip-path="url(#p34e5e15e6d)" d="M 212.311096 132.401459 
L 212.162138 131.849965 
L 211.718104 131.334651 
L 210.986296 130.889233 
L 209.978737 130.542857 
L 208.711978 130.318198 
L 207.206822 130.229972 
L 205.487986 130.283976 
L 203.583692 130.476707 
L 201.525205 130.795593 
L 199.34632 131.219809 
L 197.082806 131.721645 
L 194.771823 132.268315 
L 192.451307 132.824101 
L 190.15935 133.352689 
L 187.933579 133.819543 
L 185.810532 134.194164 
L 183.825062 134.452086 
L 182.009768 134.576471 
L 180.394453 134.559215 
L 179.005642 134.401474 
L 177.866141 134.113591 
L 176.994666 133.714414 
L 176.405534 133.230071 
L 176.108426 132.692251 
L 176.10823 132.136139 
L 176.40496 131.59811 
L 176.993751 131.113352 
L 177.864945 130.713562 
L 179.004243 130.424877 
L 180.392943 130.266159 
L 182.008245 130.247767 
L 183.823627 130.370875 
L 185.809277 130.627399 
L 187.932587 131.000527 
L 190.158687 131.465815 
L 192.451014 131.99279 
L 194.771921 132.546943 
L 197.083289 133.091987 
L 199.347154 133.592231 
L 201.526338 134.014913 
L 203.585049 134.33235 
L 205.489478 134.523742 
L 207.208352 134.576537 
L 208.713445 134.487252 
L 209.980046 134.261702 
L 210.98736 133.914617 
L 211.718855 133.468684 
L 212.162526 132.953058 
z
" style="fill:#0000ff;stroke:#000000;stroke-linejoin:miter;"/>
   </g>
   <g id="patch_5">
    <path clip-path="url(#p34e5e15e6d)" d="M 266.671093 132.382336 
L 266.522134 131.830842 
L 266.078101 131.315528 
L 265.346293 130.87011 
L 264.338734 130.523734 
L 263.071975 130.299074 
L 261.566819 130.210848 
L 259.847983 130.264853 
L 257.943689 130.457584 
L 255.885202 130.776469 
L 253.706317 131.200685 
L 251.442803 131.702522 
L 249.13182 132.249192 
L 246.811303 132.804978 
L 244.519347 133.333565 
L 242.293576 133.800419 
L 240.170528 134.175041 
L 238.185059 134.432963 
L 236.369764 134.557348 
L 234.754449 134.540092 
L 233.365638 134.382351 
L 232.226137 134.094468 
L 231.354663 133.695291 
L 230.76553 133.210948 
L 230.468423 132.673128 
L 230.468227 132.117015 
L 230.764956 131.578986 
L 231.353748 131.094228 
L 232.224941 130.694439 
L 233.364239 130.405754 
L 234.752939 130.247036 
L 236.368241 130.228643 
L 238.183623 130.351751 
L 240.169274 130.608276 
L 242.292584 130.981404 
L 244.518683 131.446692 
L 246.811011 131.973667 
L 249.131918 132.52782 
L 251.443285 133.072864 
L 253.707151 133.573107 
L 255.886334 133.99579 
L 257.945045 134.313227 
L 259.849475 134.504619 
L 261.568348 134.557414 
L 263.073441 134.468129 
L 264.340042 134.242578 
L 265.347357 133.895494 
L 266.078851 133.44956 
L 266.522522 132.933935 
z
" style="fill:#0000ff;stroke:#000000;stroke-linejoin:miter;"/>
   </g>
   <g id="patch_6">
    <path clip-path="url(#p34e5e15e6d)" d="M 253.989962 140.540797 
L 188.757966 140.563745 
L 188.759879 145.999745 
L 253.991875 145.976797 
z
" style="fill:#999999;stroke:#000000;stroke-linejoin:miter;"/>
   </g>
   <g id="text_1">
    <!-- t = 2.6 -->
    <defs>
     <path d="M 18.3125 70.21875 
L 18.3125 54.6875 
L 36.8125 54.6875 
L 36.8125 47.703125 
L 18.3125 47.703125 
L 18.3125 18.015625 
Q 18.3125 11.328125 20.140625 9.421875 
Q 21.96875 7.515625 27.59375 7.515625 
L 36.8125 7.515625 
L 36.8125 0 
L 27.59375 0 
Q 17.1875 0 13.234375 3.875 
Q 9.28125 7.765625 9.28125 18.015625 
L 9.28125 47.703125 
L 2.6875 47.703125 
L 2.6875 54.6875 
L 9.28125 54.6875 
L 9.28125 70.21875 
z
" id="DejaVuSans-116"/>
     <path id="DejaVuSans-32"/>
     <path d="M 10.59375 45.40625 
L 73.1875 45.40625 
L 73.1875 37.203125 
L 10.59375 37.203125 
z
M 10.59375 25.484375 
L 73.1875 25.484375 
L 73.1875 17.1875 
L 10.59375 17.1875 
z
" id="DejaVuSans-61"/>
     <path d="M 19.1875 8.296875 
L 53.609375 8.296875 
L 53.609375 0 
L 7.328125 0 
L 7.328125 8.296875 
Q 12.9375 14.109375 22.625 23.890625 
Q 32.328125 33.6875 34.8125 36.53125 
Q 39.546875 41.84375 41.421875 45.53125 
Q 43.3125 49.21875 43.3125 52.78125 
Q 43.3125 58.59375 39.234375 62.25 
Q 35.15625 65.921875 28.609375 65.921875 
Q 23.96875 65.921875 18.8125 64.3125 
Q 13.671875 62.703125 7.8125 59.421875 
L 7.8125 69.390625 
Q 13.765625 71.78125 18.9375 73 
Q 24.125 74.21875 28.421875 74.21875 
Q 39.75 74.21875 46.484375 68.546875 
Q 53.21875 62.890625 53.21875 53.421875 
Q 53.21875 48.921875 51.53125 44.890625 
Q 49.859375 40.875 45.40625 35.40625 
Q 44.1875 33.984375 37.640625 27.21875 
Q 31.109375 20.453125 19.1875 8.296875 
z
" id="DejaVuSans-50"/>
     <path d="M 10.6875 12.40625 
L 21 12.40625 
L 21 0 
L 10.6875 0 
z
" id="DejaVuSans-46"/>
     <path d="M 33.015625 40.375 
Q 26.375 40.375 22.484375 35.828125 
Q 18.609375 31.296875 18.609375 23.390625 
Q 18.609375 15.53125 22.484375 10.953125 
Q 26.375 6.390625 33.015625 6.390625 
Q 39.65625 6.390625 43.53125 10.953125 
Q 47.40625 15.53125 47.40625 23.390625 
Q 47.40625 31.296875 43.53125 35.828125 
Q 39.65625 40.375 33.015625 40.375 
z
M 52.59375 71.296875 
L 52.59375 62.3125 
Q 48.875 64.0625 45.09375 64.984375 
Q 41.3125 65.921875 37.59375 65.921875 
Q 27.828125 65.921875 22.671875 59.328125 
Q 17.53125 52.734375 16.796875 39.40625 
Q 19.671875 43.65625 24.015625 45.921875 
Q 28.375 48.1875 33.59375 48.1875 
Q 44.578125 48.1875 50.953125 41.515625 
Q 57.328125 34.859375 57.328125 23.390625 
Q 57.328125 12.15625 50.6875 5.359375 
Q 44.046875 -1.421875 33.015625 -1.421875 
Q 20.359375 -1.421875 13.671875 8.265625 
Q 6.984375 17.96875 6.984375 36.375 
Q 6.984375 53.65625 15.1875 63.9375 
Q 23.390625 74.21875 37.203125 74.21875 
Q 40.921875 74.21875 44.703125 73.484375 
Q 48.484375 72.75 52.59375 71.296875 
z
" id="DejaVuSans-54"/>
    </defs>
    <g transform="translate(200.664375 28.56)scale(0.12 -0.12)">
     <use xlink:href="#DejaVuSans-116"/>
     <use x="39.208984" xlink:href="#DejaVuSans-32"/>
     <use x="70.996094" xlink:href="#DejaVuSans-61"/>
     <use x="154.785156" xlink:href="#DejaVuSans-32"/>
     <use x="186.572266" xlink:href="#DejaVuSans-50"/>
     <use x="250.195312" xlink:href="#DejaVuSans-46"/>
     <use x="281.982422" xlink:href="#DejaVuSans-54"/>
    </g>
   </g>
  </g>
 </g>
 <defs>
  <clipPath id="p34e5e15e6d">
   <rect height="217.44" width="334.8" x="54" y="34.56"/>
  </clipPath>
 </defs>
</svg>
