<?xml version="1.0" encoding="utf-8" standalone="no"?>
<!DOCTYPE svg PUBLIC "-//W3C//DTD SVG 1.1//EN"
  "http://www.w3.org/Graphics/SVG/1.1/DTD/svg11.dtd">
<!-- Created with matplotlib (https://matplotlib.org/) -->
<svg height="288pt" version="1.1" viewBox="0 0 432 288" width="432pt" xmlns="http://www.w3.org/2000/svg" xmlns:xlink="http://www.w3.org/1999/xlink">
 <defs>
  <style type="text/css">
*{stroke-linecap:butt;stroke-linejoin:round;}
  </style>
 </defs>
 <g id="figure_1">
  <g id="patch_1">
   <path d="M 0 288 
L 432 288 
L 432 0 
L 0 0 
z
" style="fill:#ffffff;"/>
  </g>
  <g id="axes_1">
   <g id="patch_2">
    <path clip-path="url(#p1e658de663)" d="M 194.738108 132.412068 
L 194.740238 143.284068 
L 193.653038 143.284281 
L 193.650908 132.412281 
z
" style="stroke:#000000;stroke-linejoin:miter;"/>
   </g>
   <g id="patch_3">
    <path clip-path="url(#p1e658de663)" d="M 249.098107 132.401421 
L 249.100237 143.273421 
L 248.013037 143.273634 
L 248.010907 132.401634 
z
" style="stroke:#000000;stroke-linejoin:miter;"/>
   </g>
   <g id="patch_4">
    <path clip-path="url(#p1e658de663)" d="M 212.314508 132.408625 
L 212.165635 131.857108 
L 211.721682 131.341725 
L 210.989943 130.896193 
L 209.982439 130.54966 
L 208.715714 130.324803 
L 207.210573 130.236342 
L 205.491728 130.290078 
L 203.587404 130.482513 
L 201.528867 130.801077 
L 199.349916 131.224954 
L 197.086324 131.726437 
L 194.775255 132.272746 
L 192.454652 132.82817 
L 190.162614 133.356401 
L 187.93677 133.822908 
L 185.813664 134.197198 
L 183.828154 134.45481 
L 182.01284 134.578913 
L 180.397528 134.561405 
L 179.008741 134.403447 
L 177.869286 134.115386 
L 176.997873 133.716074 
L 176.408816 133.231638 
L 176.111792 132.693772 
L 176.111684 132.13766 
L 176.408497 131.599677 
L 176.997364 131.115011 
L 177.86862 130.715358 
L 179.007963 130.42685 
L 180.396687 130.268349 
L 182.011992 130.250208 
L 183.827355 130.373599 
L 185.812965 130.630433 
L 187.936217 131.003892 
L 190.162244 131.469527 
L 192.45449 131.99686 
L 194.77531 132.551375 
L 197.086592 133.096779 
L 199.35038 133.597376 
L 201.529497 134.020398 
L 203.588159 134.338156 
L 205.492558 134.529845 
L 207.211424 134.582908 
L 208.716531 134.493858 
L 209.983167 134.268505 
L 210.990536 133.921577 
L 211.7221 133.475758 
L 212.165851 132.960201 
z
" style="fill:#0000ff;stroke:#000000;stroke-linejoin:miter;"/>
   </g>
   <g id="patch_5">
    <path clip-path="url(#p1e658de663)" d="M 266.674507 132.397979 
L 266.525634 131.846461 
L 266.081681 131.331078 
L 265.349942 130.885546 
L 264.342438 130.539013 
L 263.075713 130.314156 
L 261.570571 130.225695 
L 259.851727 130.279432 
L 257.947403 130.471866 
L 255.888866 130.790431 
L 253.709915 131.214307 
L 251.446323 131.71579 
L 249.135254 132.262099 
L 246.814651 132.817524 
L 244.522613 133.345754 
L 242.296769 133.812261 
L 240.173663 134.186552 
L 238.188153 134.444164 
L 236.372839 134.568266 
L 234.757527 134.550758 
L 233.36874 134.392801 
L 232.229285 134.104739 
L 231.357872 133.705427 
L 230.768815 133.220992 
L 230.471791 132.683125 
L 230.471683 132.127013 
L 230.768496 131.58903 
L 231.357363 131.104364 
L 232.228619 130.704711 
L 233.367962 130.416203 
L 234.756686 130.257702 
L 236.371991 130.239561 
L 238.187354 130.362952 
L 240.172964 130.619787 
L 242.296216 130.993245 
L 244.522243 131.45888 
L 246.814489 131.986213 
L 249.135309 132.540728 
L 251.446591 133.086132 
L 253.710379 133.586729 
L 255.889496 134.009751 
L 257.948158 134.327509 
L 259.852557 134.519198 
L 261.571423 134.572261 
L 263.07653 134.483211 
L 264.343166 134.257858 
L 265.350535 133.91093 
L 266.082099 133.465111 
L 266.52585 132.949554 
z
" style="fill:#0000ff;stroke:#000000;stroke-linejoin:miter;"/>
   </g>
   <g id="patch_6">
    <path clip-path="url(#p1e658de663)" d="M 253.992104 140.554463 
L 188.760105 140.567239 
L 188.76117 146.003239 
L 253.993169 145.990463 
z
" style="fill:#999999;stroke:#000000;stroke-linejoin:miter;"/>
   </g>
   <g id="text_1">
    <!-- t = 3.1 -->
    <defs>
     <path d="M 18.3125 70.21875 
L 18.3125 54.6875 
L 36.8125 54.6875 
L 36.8125 47.703125 
L 18.3125 47.703125 
L 18.3125 18.015625 
Q 18.3125 11.328125 20.140625 9.421875 
Q 21.96875 7.515625 27.59375 7.515625 
L 36.8125 7.515625 
L 36.8125 0 
L 27.59375 0 
Q 17.1875 0 13.234375 3.875 
Q 9.28125 7.765625 9.28125 18.015625 
L 9.28125 47.703125 
L 2.6875 47.703125 
L 2.6875 54.6875 
L 9.28125 54.6875 
L 9.28125 70.21875 
z
" id="DejaVuSans-116"/>
     <path id="DejaVuSans-32"/>
     <path d="M 10.59375 45.40625 
L 73.1875 45.40625 
L 73.1875 37.203125 
L 10.59375 37.203125 
z
M 10.59375 25.484375 
L 73.1875 25.484375 
L 73.1875 17.1875 
L 10.59375 17.1875 
z
" id="DejaVuSans-61"/>
     <path d="M 40.578125 39.3125 
Q 47.65625 37.796875 51.625 33 
Q 55.609375 28.21875 55.609375 21.1875 
Q 55.609375 10.40625 48.1875 4.484375 
Q 40.765625 -1.421875 27.09375 -1.421875 
Q 22.515625 -1.421875 17.65625 -0.515625 
Q 12.796875 0.390625 7.625 2.203125 
L 7.625 11.71875 
Q 11.71875 9.328125 16.59375 8.109375 
Q 21.484375 6.890625 26.8125 6.890625 
Q 36.078125 6.890625 40.9375 10.546875 
Q 45.796875 14.203125 45.796875 21.1875 
Q 45.796875 27.640625 41.28125 31.265625 
Q 36.765625 34.90625 28.71875 34.90625 
L 20.21875 34.90625 
L 20.21875 43.015625 
L 29.109375 43.015625 
Q 36.375 43.015625 40.234375 45.921875 
Q 44.09375 48.828125 44.09375 54.296875 
Q 44.09375 59.90625 40.109375 62.90625 
Q 36.140625 65.921875 28.71875 65.921875 
Q 24.65625 65.921875 20.015625 65.03125 
Q 15.375 64.15625 9.8125 62.3125 
L 9.8125 71.09375 
Q 15.4375 72.65625 20.34375 73.4375 
Q 25.25 74.21875 29.59375 74.21875 
Q 40.828125 74.21875 47.359375 69.109375 
Q 53.90625 64.015625 53.90625 55.328125 
Q 53.90625 49.265625 50.4375 45.09375 
Q 46.96875 40.921875 40.578125 39.3125 
z
" id="DejaVuSans-51"/>
     <path d="M 10.6875 12.40625 
L 21 12.40625 
L 21 0 
L 10.6875 0 
z
" id="DejaVuSans-46"/>
     <path d="M 12.40625 8.296875 
L 28.515625 8.296875 
L 28.515625 63.921875 
L 10.984375 60.40625 
L 10.984375 69.390625 
L 28.421875 72.90625 
L 38.28125 72.90625 
L 38.28125 8.296875 
L 54.390625 8.296875 
L 54.390625 0 
L 12.40625 0 
z
" id="DejaVuSans-49"/>
    </defs>
    <g transform="translate(200.664375 28.56)scale(0.12 -0.12)">
     <use xlink:href="#DejaVuSans-116"/>
     <use x="39.208984" xlink:href="#DejaVuSans-32"/>
     <use x="70.996094" xlink:href="#DejaVuSans-61"/>
     <use x="154.785156" xlink:href="#DejaVuSans-32"/>
     <use x="186.572266" xlink:href="#DejaVuSans-51"/>
     <use x="250.195312" xlink:href="#DejaVuSans-46"/>
     <use x="281.982422" xlink:href="#DejaVuSans-49"/>
    </g>
   </g>
  </g>
 </g>
 <defs>
  <clipPath id="p1e658de663">
   <rect height="217.44" width="334.8" x="54" y="34.56"/>
  </clipPath>
 </defs>
</svg>
