<?xml version="1.0" encoding="utf-8" standalone="no"?>
<!DOCTYPE svg PUBLIC "-//W3C//DTD SVG 1.1//EN"
  "http://www.w3.org/Graphics/SVG/1.1/DTD/svg11.dtd">
<!-- Created with matplotlib (https://matplotlib.org/) -->
<svg height="288pt" version="1.1" viewBox="0 0 432 288" width="432pt" xmlns="http://www.w3.org/2000/svg" xmlns:xlink="http://www.w3.org/1999/xlink">
 <defs>
  <style type="text/css">
*{stroke-linecap:butt;stroke-linejoin:round;}
  </style>
 </defs>
 <g id="figure_1">
  <g id="patch_1">
   <path d="M 0 288 
L 432 288 
L 432 0 
L 0 0 
z
" style="fill:#ffffff;"/>
  </g>
  <g id="axes_1">
   <g id="patch_2">
    <path clip-path="url(#p7d3dd73c74)" d="M 113.895036 205.527651 
L 116.30139 216.130002 
L 115.241155 216.370638 
L 112.834801 205.768287 
z
" style="stroke:#000000;stroke-linejoin:miter;"/>
   </g>
   <g id="patch_3">
    <path clip-path="url(#p7d3dd73c74)" d="M 166.906791 193.495883 
L 169.313145 204.098234 
L 168.25291 204.338869 
L 165.846556 193.736518 
z
" style="stroke:#000000;stroke-linejoin:miter;"/>
   </g>
   <g id="patch_4">
    <path clip-path="url(#p7d3dd73c74)" d="M 131.035504 201.63738 
L 130.768352 201.132439 
L 130.221417 200.727995 
L 129.409268 200.455312 
L 128.350075 200.340163 
L 127.064987 200.401001 
L 125.577548 200.647584 
L 123.913144 201.080102 
L 122.098524 201.688902 
L 120.161403 202.454812 
L 118.130137 203.350055 
L 116.03349 204.339702 
L 113.900454 205.383564 
L 111.760135 206.438424 
L 109.641659 207.460447 
L 107.574089 208.407636 
L 105.586321 209.242171 
L 103.70694 209.932489 
L 101.964015 210.454964 
L 100.384825 210.795106 
L 98.995492 210.948181 
L 97.820544 210.919236 
L 96.882402 210.722518 
L 96.200799 210.380343 
L 95.792183 209.921478 
L 95.669096 209.379159 
L 95.839589 208.788858 
L 96.306695 208.185967 
L 97.067999 207.603535 
L 98.115332 207.070212 
L 99.434621 206.608527 
L 101.005922 206.23362 
L 102.803625 205.9525 
L 104.796872 205.76387 
L 106.950143 205.658538 
L 109.224028 205.620372 
L 111.576136 205.627732 
L 113.962124 205.655282 
L 116.336794 205.676057 
L 118.655237 205.663636 
L 120.873951 205.594287 
L 122.951913 205.448917 
L 124.851552 205.214713 
L 126.539595 204.886345 
L 127.987745 204.466655 
L 129.173185 203.966772 
L 130.078892 203.405661 
L 130.693753 202.809098 
L 131.012505 202.208173 
z
" style="fill:#0000ff;stroke:#000000;stroke-linejoin:miter;"/>
   </g>
   <g id="patch_5">
    <path clip-path="url(#p7d3dd73c74)" d="M 184.047258 189.605611 
L 183.780106 189.100671 
L 183.233171 188.696226 
L 182.421023 188.423544 
L 181.361829 188.308394 
L 180.076742 188.369233 
L 178.589303 188.615815 
L 176.924899 189.048333 
L 175.110279 189.657133 
L 173.173158 190.423043 
L 171.141892 191.318287 
L 169.045244 192.307933 
L 166.912208 193.351796 
L 164.771889 194.406656 
L 162.653414 195.428678 
L 160.585844 196.375867 
L 158.598076 197.210402 
L 156.718695 197.90072 
L 154.97577 198.423195 
L 153.39658 198.763337 
L 152.007246 198.916413 
L 150.832299 198.887467 
L 149.894156 198.690749 
L 149.212554 198.348574 
L 148.803938 197.88971 
L 148.680851 197.34739 
L 148.851344 196.757089 
L 149.31845 196.154198 
L 150.079754 195.571766 
L 151.127086 195.038443 
L 152.446376 194.576758 
L 154.017677 194.201852 
L 155.81538 193.920731 
L 157.808626 193.732101 
L 159.961897 193.626769 
L 162.235783 193.588603 
L 164.587891 193.595963 
L 166.973879 193.623514 
L 169.348549 193.644288 
L 171.666992 193.631868 
L 173.885706 193.562518 
L 175.963668 193.417148 
L 177.863307 193.182944 
L 179.55135 192.854577 
L 180.9995 192.434886 
L 182.18494 191.935003 
L 183.090646 191.373892 
L 183.705507 190.77733 
L 184.02426 190.176405 
z
" style="fill:#0000ff;stroke:#000000;stroke-linejoin:miter;"/>
   </g>
   <g id="patch_6">
    <path clip-path="url(#p7d3dd73c74)" d="M 173.482614 200.364787 
L 109.868508 214.802909 
L 111.071685 220.104085 
L 174.685791 205.665962 
z
" style="fill:#999999;stroke:#000000;stroke-linejoin:miter;"/>
   </g>
   <g id="text_1">
    <!-- t = 0.2 -->
    <defs>
     <path d="M 18.3125 70.21875 
L 18.3125 54.6875 
L 36.8125 54.6875 
L 36.8125 47.703125 
L 18.3125 47.703125 
L 18.3125 18.015625 
Q 18.3125 11.328125 20.140625 9.421875 
Q 21.96875 7.515625 27.59375 7.515625 
L 36.8125 7.515625 
L 36.8125 0 
L 27.59375 0 
Q 17.1875 0 13.234375 3.875 
Q 9.28125 7.765625 9.28125 18.015625 
L 9.28125 47.703125 
L 2.6875 47.703125 
L 2.6875 54.6875 
L 9.28125 54.6875 
L 9.28125 70.21875 
z
" id="DejaVuSans-116"/>
     <path id="DejaVuSans-32"/>
     <path d="M 10.59375 45.40625 
L 73.1875 45.40625 
L 73.1875 37.203125 
L 10.59375 37.203125 
z
M 10.59375 25.484375 
L 73.1875 25.484375 
L 73.1875 17.1875 
L 10.59375 17.1875 
z
" id="DejaVuSans-61"/>
     <path d="M 31.78125 66.40625 
Q 24.171875 66.40625 20.328125 58.90625 
Q 16.5 51.421875 16.5 36.375 
Q 16.5 21.390625 20.328125 13.890625 
Q 24.171875 6.390625 31.78125 6.390625 
Q 39.453125 6.390625 43.28125 13.890625 
Q 47.125 21.390625 47.125 36.375 
Q 47.125 51.421875 43.28125 58.90625 
Q 39.453125 66.40625 31.78125 66.40625 
z
M 31.78125 74.21875 
Q 44.046875 74.21875 50.515625 64.515625 
Q 56.984375 54.828125 56.984375 36.375 
Q 56.984375 17.96875 50.515625 8.265625 
Q 44.046875 -1.421875 31.78125 -1.421875 
Q 19.53125 -1.421875 13.0625 8.265625 
Q 6.59375 17.96875 6.59375 36.375 
Q 6.59375 54.828125 13.0625 64.515625 
Q 19.53125 74.21875 31.78125 74.21875 
z
" id="DejaVuSans-48"/>
     <path d="M 10.6875 12.40625 
L 21 12.40625 
L 21 0 
L 10.6875 0 
z
" id="DejaVuSans-46"/>
     <path d="M 19.1875 8.296875 
L 53.609375 8.296875 
L 53.609375 0 
L 7.328125 0 
L 7.328125 8.296875 
Q 12.9375 14.109375 22.625 23.890625 
Q 32.328125 33.6875 34.8125 36.53125 
Q 39.546875 41.84375 41.421875 45.53125 
Q 43.3125 49.21875 43.3125 52.78125 
Q 43.3125 58.59375 39.234375 62.25 
Q 35.15625 65.921875 28.609375 65.921875 
Q 23.96875 65.921875 18.8125 64.3125 
Q 13.671875 62.703125 7.8125 59.421875 
L 7.8125 69.390625 
Q 13.765625 71.78125 18.9375 73 
Q 24.125 74.21875 28.421875 74.21875 
Q 39.75 74.21875 46.484375 68.546875 
Q 53.21875 62.890625 53.21875 53.421875 
Q 53.21875 48.921875 51.53125 44.890625 
Q 49.859375 40.875 45.40625 35.40625 
Q 44.1875 33.984375 37.640625 27.21875 
Q 31.109375 20.453125 19.1875 8.296875 
z
" id="DejaVuSans-50"/>
    </defs>
    <g transform="translate(200.664375 28.56)scale(0.12 -0.12)">
     <use xlink:href="#DejaVuSans-116"/>
     <use x="39.208984" xlink:href="#DejaVuSans-32"/>
     <use x="70.996094" xlink:href="#DejaVuSans-61"/>
     <use x="154.785156" xlink:href="#DejaVuSans-32"/>
     <use x="186.572266" xlink:href="#DejaVuSans-48"/>
     <use x="250.195312" xlink:href="#DejaVuSans-46"/>
     <use x="281.982422" xlink:href="#DejaVuSans-50"/>
    </g>
   </g>
  </g>
 </g>
 <defs>
  <clipPath id="p7d3dd73c74">
   <rect height="217.44" width="334.8" x="54" y="34.56"/>
  </clipPath>
 </defs>
</svg>
