<?xml version="1.0" encoding="utf-8" standalone="no"?>
<!DOCTYPE svg PUBLIC "-//W3C//DTD SVG 1.1//EN"
  "http://www.w3.org/Graphics/SVG/1.1/DTD/svg11.dtd">
<!-- Created with matplotlib (https://matplotlib.org/) -->
<svg height="288pt" version="1.1" viewBox="0 0 432 288" width="432pt" xmlns="http://www.w3.org/2000/svg" xmlns:xlink="http://www.w3.org/1999/xlink">
 <defs>
  <style type="text/css">
*{stroke-linecap:butt;stroke-linejoin:round;}
  </style>
 </defs>
 <g id="figure_1">
  <g id="patch_1">
   <path d="M 0 288 
L 432 288 
L 432 0 
L 0 0 
z
" style="fill:#ffffff;"/>
  </g>
  <g id="axes_1">
   <g id="patch_2">
    <path clip-path="url(#p47d75329ab)" d="M 194.750785 132.407562 
L 194.750034 143.279562 
L 193.662834 143.279486 
L 193.663585 132.407486 
z
" style="stroke:#000000;stroke-linejoin:miter;"/>
   </g>
   <g id="patch_3">
    <path clip-path="url(#p47d75329ab)" d="M 249.110785 132.411317 
L 249.110034 143.283317 
L 248.022834 143.283242 
L 248.023585 132.411242 
z
" style="stroke:#000000;stroke-linejoin:miter;"/>
   </g>
   <g id="patch_4">
    <path clip-path="url(#p47d75329ab)" d="M 212.327185 132.408776 
L 212.178458 131.857219 
L 211.734642 131.341719 
L 211.003021 130.895992 
L 209.995608 130.549192 
L 208.728944 130.324 
L 207.223825 130.23514 
L 205.504967 130.288421 
L 203.600592 130.480351 
L 201.54197 130.79837 
L 199.362907 131.221669 
L 197.099183 131.722552 
L 194.787969 132.26825 
L 192.467219 132.823059 
L 190.175041 133.350682 
L 187.949073 133.8166 
L 185.825868 134.190328 
L 183.84029 134.447414 
L 182.024943 134.571035 
L 180.409636 134.553099 
L 179.020891 134.394774 
L 177.881512 134.106411 
L 177.010205 133.706868 
L 176.421277 133.222276 
L 176.124395 132.684331 
L 176.124434 132.128219 
L 176.42139 131.590315 
L 177.010385 131.105804 
L 177.881747 130.706382 
L 179.021166 130.418176 
L 180.409933 130.260043 
L 182.025243 130.24233 
L 183.840572 130.366202 
L 185.826114 130.623562 
L 187.949268 130.997584 
L 190.175171 131.463809 
L 192.467277 131.991748 
L 194.78795 132.546878 
L 197.099088 133.092895 
L 199.362743 133.594091 
L 201.541748 134.017691 
L 203.600325 134.335994 
L 205.504674 134.528188 
L 207.223525 134.581706 
L 208.728656 134.493055 
L 209.995352 134.268037 
L 211.002812 133.921376 
L 211.734494 133.475751 
L 212.178382 132.960312 
z
" style="fill:#0000ff;stroke:#000000;stroke-linejoin:miter;"/>
   </g>
   <g id="patch_5">
    <path clip-path="url(#p47d75329ab)" d="M 266.687185 132.412531 
L 266.538458 131.860974 
L 266.094642 131.345474 
L 265.363021 130.899747 
L 264.355608 130.552948 
L 263.088944 130.327755 
L 261.583825 130.238896 
L 259.864967 130.292176 
L 257.960591 130.484107 
L 255.90197 130.802125 
L 253.722907 131.225424 
L 251.459182 131.726308 
L 249.147969 132.272005 
L 246.827219 132.826814 
L 244.53504 133.354438 
L 242.309073 133.820355 
L 240.185868 134.194083 
L 238.20029 134.451169 
L 236.384943 134.57479 
L 234.769636 134.556854 
L 233.380891 134.398529 
L 232.241512 134.110166 
L 231.370205 133.710623 
L 230.781277 133.226031 
L 230.484395 132.688086 
L 230.484434 132.131974 
L 230.781389 131.59407 
L 231.370385 131.10956 
L 232.241747 130.710137 
L 233.381166 130.421931 
L 234.769933 130.263798 
L 236.385242 130.246085 
L 238.200572 130.369957 
L 240.186114 130.627318 
L 242.309268 131.001339 
L 244.535171 131.467564 
L 246.827276 131.995504 
L 249.14795 132.550634 
L 251.459088 133.09665 
L 253.722743 133.597847 
L 255.901748 134.021446 
L 257.960325 134.33975 
L 259.864674 134.531943 
L 261.583525 134.585461 
L 263.088656 134.49681 
L 264.355351 134.271792 
L 265.362812 133.925132 
L 266.094494 133.479506 
L 266.538382 132.964067 
z
" style="fill:#0000ff;stroke:#000000;stroke-linejoin:miter;"/>
   </g>
   <g id="patch_6">
    <path clip-path="url(#p47d75329ab)" d="M 254.002622 140.565655 
L 188.770622 140.561148 
L 188.770246 145.997148 
L 254.002246 146.001655 
z
" style="fill:#999999;stroke:#000000;stroke-linejoin:miter;"/>
   </g>
   <g id="text_1">
    <!-- t = 3.4 -->
    <defs>
     <path d="M 18.3125 70.21875 
L 18.3125 54.6875 
L 36.8125 54.6875 
L 36.8125 47.703125 
L 18.3125 47.703125 
L 18.3125 18.015625 
Q 18.3125 11.328125 20.140625 9.421875 
Q 21.96875 7.515625 27.59375 7.515625 
L 36.8125 7.515625 
L 36.8125 0 
L 27.59375 0 
Q 17.1875 0 13.234375 3.875 
Q 9.28125 7.765625 9.28125 18.015625 
L 9.28125 47.703125 
L 2.6875 47.703125 
L 2.6875 54.6875 
L 9.28125 54.6875 
L 9.28125 70.21875 
z
" id="DejaVuSans-116"/>
     <path id="DejaVuSans-32"/>
     <path d="M 10.59375 45.40625 
L 73.1875 45.40625 
L 73.1875 37.203125 
L 10.59375 37.203125 
z
M 10.59375 25.484375 
L 73.1875 25.484375 
L 73.1875 17.1875 
L 10.59375 17.1875 
z
" id="DejaVuSans-61"/>
     <path d="M 40.578125 39.3125 
Q 47.65625 37.796875 51.625 33 
Q 55.609375 28.21875 55.609375 21.1875 
Q 55.609375 10.40625 48.1875 4.484375 
Q 40.765625 -1.421875 27.09375 -1.421875 
Q 22.515625 -1.421875 17.65625 -0.515625 
Q 12.796875 0.390625 7.625 2.203125 
L 7.625 11.71875 
Q 11.71875 9.328125 16.59375 8.109375 
Q 21.484375 6.890625 26.8125 6.890625 
Q 36.078125 6.890625 40.9375 10.546875 
Q 45.796875 14.203125 45.796875 21.1875 
Q 45.796875 27.640625 41.28125 31.265625 
Q 36.765625 34.90625 28.71875 34.90625 
L 20.21875 34.90625 
L 20.21875 43.015625 
L 29.109375 43.015625 
Q 36.375 43.015625 40.234375 45.921875 
Q 44.09375 48.828125 44.09375 54.296875 
Q 44.09375 59.90625 40.109375 62.90625 
Q 36.140625 65.921875 28.71875 65.921875 
Q 24.65625 65.921875 20.015625 65.03125 
Q 15.375 64.15625 9.8125 62.3125 
L 9.8125 71.09375 
Q 15.4375 72.65625 20.34375 73.4375 
Q 25.25 74.21875 29.59375 74.21875 
Q 40.828125 74.21875 47.359375 69.109375 
Q 53.90625 64.015625 53.90625 55.328125 
Q 53.90625 49.265625 50.4375 45.09375 
Q 46.96875 40.921875 40.578125 39.3125 
z
" id="DejaVuSans-51"/>
     <path d="M 10.6875 12.40625 
L 21 12.40625 
L 21 0 
L 10.6875 0 
z
" id="DejaVuSans-46"/>
     <path d="M 37.796875 64.3125 
L 12.890625 25.390625 
L 37.796875 25.390625 
z
M 35.203125 72.90625 
L 47.609375 72.90625 
L 47.609375 25.390625 
L 58.015625 25.390625 
L 58.015625 17.1875 
L 47.609375 17.1875 
L 47.609375 0 
L 37.796875 0 
L 37.796875 17.1875 
L 4.890625 17.1875 
L 4.890625 26.703125 
z
" id="DejaVuSans-52"/>
    </defs>
    <g transform="translate(200.664375 28.56)scale(0.12 -0.12)">
     <use xlink:href="#DejaVuSans-116"/>
     <use x="39.208984" xlink:href="#DejaVuSans-32"/>
     <use x="70.996094" xlink:href="#DejaVuSans-61"/>
     <use x="154.785156" xlink:href="#DejaVuSans-32"/>
     <use x="186.572266" xlink:href="#DejaVuSans-51"/>
     <use x="250.195312" xlink:href="#DejaVuSans-46"/>
     <use x="281.982422" xlink:href="#DejaVuSans-52"/>
    </g>
   </g>
  </g>
 </g>
 <defs>
  <clipPath id="p47d75329ab">
   <rect height="217.44" width="334.8" x="54" y="34.56"/>
  </clipPath>
 </defs>
</svg>
