<?xml version="1.0" encoding="utf-8" standalone="no"?>
<!DOCTYPE svg PUBLIC "-//W3C//DTD SVG 1.1//EN"
  "http://www.w3.org/Graphics/SVG/1.1/DTD/svg11.dtd">
<!-- Created with matplotlib (https://matplotlib.org/) -->
<svg height="288pt" version="1.1" viewBox="0 0 432 288" width="432pt" xmlns="http://www.w3.org/2000/svg" xmlns:xlink="http://www.w3.org/1999/xlink">
 <defs>
  <style type="text/css">
*{stroke-linecap:butt;stroke-linejoin:round;}
  </style>
 </defs>
 <g id="figure_1">
  <g id="patch_1">
   <path d="M 0 288 
L 432 288 
L 432 0 
L 0 0 
z
" style="fill:#ffffff;"/>
  </g>
  <g id="axes_1">
   <g id="patch_2">
    <path clip-path="url(#pf20205d158)" d="M 194.868133 132.38507 
L 194.852829 143.25706 
L 193.76563 143.255529 
L 193.780934 132.38354 
z
" style="stroke:#000000;stroke-linejoin:miter;"/>
   </g>
   <g id="patch_3">
    <path clip-path="url(#pf20205d158)" d="M 249.228079 132.461591 
L 249.212775 143.33358 
L 248.125576 143.33205 
L 248.14088 132.46006 
z
" style="stroke:#000000;stroke-linejoin:miter;"/>
   </g>
   <g id="patch_4">
    <path clip-path="url(#pf20205d158)" d="M 212.444515 132.409812 
L 212.296527 131.858057 
L 211.853401 131.341963 
L 211.122378 130.895257 
L 210.11543 130.547109 
L 208.849068 130.320221 
L 207.34407 130.229347 
L 205.625141 130.280327 
L 203.720511 130.469708 
L 201.661466 130.784971 
L 199.481838 131.205353 
L 197.217445 131.703205 
L 194.905503 132.245809 
L 192.584013 132.797511 
L 190.29113 133.322065 
L 188.064541 133.785002 
L 185.940837 134.155888 
L 183.954917 134.410316 
L 182.139407 134.531507 
L 180.524125 134.511409 
L 179.135593 134.351225 
L 177.9966 134.061337 
L 177.125829 133.660628 
L 176.53755 133.175249 
L 176.241389 132.636907 
L 176.242172 132.080795 
L 176.539848 131.543289 
L 177.129491 131.059568 
L 178.001387 130.661312 
L 179.141191 130.374631 
L 180.530168 130.218357 
L 182.1455 130.202807 
L 183.960662 130.329109 
L 185.945858 130.589127 
L 188.068509 130.96599 
L 190.293786 131.435194 
L 192.585183 131.966201 
L 194.905111 132.524437 
L 197.215516 133.073547 
L 199.478498 133.577773 
L 201.656934 134.004289 
L 203.715084 134.325347 
L 205.619173 134.52009 
L 207.337951 134.575909 
L 208.843199 134.489272 
L 210.110195 134.26595 
L 211.118119 133.920639 
L 211.850397 133.475993 
L 212.294974 132.961149 
z
" style="fill:#0000ff;stroke:#000000;stroke-linejoin:miter;"/>
   </g>
   <g id="patch_5">
    <path clip-path="url(#pf20205d158)" d="M 266.804461 132.486332 
L 266.656473 131.934577 
L 266.213347 131.418483 
L 265.482324 130.971778 
L 264.475376 130.62363 
L 263.209014 130.396742 
L 261.704016 130.305868 
L 259.985087 130.356848 
L 258.080457 130.546229 
L 256.021412 130.861491 
L 253.841784 131.281873 
L 251.577391 131.779726 
L 249.265449 132.322329 
L 246.943959 132.874031 
L 244.651076 133.398586 
L 242.424487 133.861523 
L 240.300783 134.232409 
L 238.314863 134.486836 
L 236.499353 134.608028 
L 234.884071 134.58793 
L 233.495539 134.427746 
L 232.356547 134.137857 
L 231.485776 133.737148 
L 230.897496 133.251769 
L 230.601335 132.713427 
L 230.602118 132.157315 
L 230.899794 131.619809 
L 231.489437 131.136088 
L 232.361333 130.737832 
L 233.501137 130.451152 
L 234.890114 130.294878 
L 236.505446 130.279327 
L 238.320608 130.405629 
L 240.305804 130.665647 
L 242.428455 131.04251 
L 244.653732 131.511714 
L 246.945129 132.042721 
L 249.265057 132.600957 
L 251.575462 133.150067 
L 253.838444 133.654293 
L 256.01688 134.080809 
L 258.07503 134.401868 
L 259.979119 134.59661 
L 261.697897 134.652429 
L 263.203146 134.565792 
L 264.470141 134.342471 
L 265.478065 133.997159 
L 266.210343 133.552513 
L 266.65492 133.037669 
z
" style="fill:#0000ff;stroke:#000000;stroke-linejoin:miter;"/>
   </g>
   <g id="patch_6">
    <path clip-path="url(#pf20205d158)" d="M 254.108996 140.62247 
L 188.877061 140.530645 
L 188.869409 145.96664 
L 254.101344 146.058464 
z
" style="fill:#999999;stroke:#000000;stroke-linejoin:miter;"/>
   </g>
   <g id="text_1">
    <!-- t = 3.0 -->
    <defs>
     <path d="M 18.3125 70.21875 
L 18.3125 54.6875 
L 36.8125 54.6875 
L 36.8125 47.703125 
L 18.3125 47.703125 
L 18.3125 18.015625 
Q 18.3125 11.328125 20.140625 9.421875 
Q 21.96875 7.515625 27.59375 7.515625 
L 36.8125 7.515625 
L 36.8125 0 
L 27.59375 0 
Q 17.1875 0 13.234375 3.875 
Q 9.28125 7.765625 9.28125 18.015625 
L 9.28125 47.703125 
L 2.6875 47.703125 
L 2.6875 54.6875 
L 9.28125 54.6875 
L 9.28125 70.21875 
z
" id="DejaVuSans-116"/>
     <path id="DejaVuSans-32"/>
     <path d="M 10.59375 45.40625 
L 73.1875 45.40625 
L 73.1875 37.203125 
L 10.59375 37.203125 
z
M 10.59375 25.484375 
L 73.1875 25.484375 
L 73.1875 17.1875 
L 10.59375 17.1875 
z
" id="DejaVuSans-61"/>
     <path d="M 40.578125 39.3125 
Q 47.65625 37.796875 51.625 33 
Q 55.609375 28.21875 55.609375 21.1875 
Q 55.609375 10.40625 48.1875 4.484375 
Q 40.765625 -1.421875 27.09375 -1.421875 
Q 22.515625 -1.421875 17.65625 -0.515625 
Q 12.796875 0.390625 7.625 2.203125 
L 7.625 11.71875 
Q 11.71875 9.328125 16.59375 8.109375 
Q 21.484375 6.890625 26.8125 6.890625 
Q 36.078125 6.890625 40.9375 10.546875 
Q 45.796875 14.203125 45.796875 21.1875 
Q 45.796875 27.640625 41.28125 31.265625 
Q 36.765625 34.90625 28.71875 34.90625 
L 20.21875 34.90625 
L 20.21875 43.015625 
L 29.109375 43.015625 
Q 36.375 43.015625 40.234375 45.921875 
Q 44.09375 48.828125 44.09375 54.296875 
Q 44.09375 59.90625 40.109375 62.90625 
Q 36.140625 65.921875 28.71875 65.921875 
Q 24.65625 65.921875 20.015625 65.03125 
Q 15.375 64.15625 9.8125 62.3125 
L 9.8125 71.09375 
Q 15.4375 72.65625 20.34375 73.4375 
Q 25.25 74.21875 29.59375 74.21875 
Q 40.828125 74.21875 47.359375 69.109375 
Q 53.90625 64.015625 53.90625 55.328125 
Q 53.90625 49.265625 50.4375 45.09375 
Q 46.96875 40.921875 40.578125 39.3125 
z
" id="DejaVuSans-51"/>
     <path d="M 10.6875 12.40625 
L 21 12.40625 
L 21 0 
L 10.6875 0 
z
" id="DejaVuSans-46"/>
     <path d="M 31.78125 66.40625 
Q 24.171875 66.40625 20.328125 58.90625 
Q 16.5 51.421875 16.5 36.375 
Q 16.5 21.390625 20.328125 13.890625 
Q 24.171875 6.390625 31.78125 6.390625 
Q 39.453125 6.390625 43.28125 13.890625 
Q 47.125 21.390625 47.125 36.375 
Q 47.125 51.421875 43.28125 58.90625 
Q 39.453125 66.40625 31.78125 66.40625 
z
M 31.78125 74.21875 
Q 44.046875 74.21875 50.515625 64.515625 
Q 56.984375 54.828125 56.984375 36.375 
Q 56.984375 17.96875 50.515625 8.265625 
Q 44.046875 -1.421875 31.78125 -1.421875 
Q 19.53125 -1.421875 13.0625 8.265625 
Q 6.59375 17.96875 6.59375 36.375 
Q 6.59375 54.828125 13.0625 64.515625 
Q 19.53125 74.21875 31.78125 74.21875 
z
" id="DejaVuSans-48"/>
    </defs>
    <g transform="translate(200.664375 28.56)scale(0.12 -0.12)">
     <use xlink:href="#DejaVuSans-116"/>
     <use x="39.208984" xlink:href="#DejaVuSans-32"/>
     <use x="70.996094" xlink:href="#DejaVuSans-61"/>
     <use x="154.785156" xlink:href="#DejaVuSans-32"/>
     <use x="186.572266" xlink:href="#DejaVuSans-51"/>
     <use x="250.195312" xlink:href="#DejaVuSans-46"/>
     <use x="281.982422" xlink:href="#DejaVuSans-48"/>
    </g>
   </g>
  </g>
 </g>
 <defs>
  <clipPath id="pf20205d158">
   <rect height="217.44" width="334.8" x="54" y="34.56"/>
  </clipPath>
 </defs>
</svg>
