<?xml version="1.0" encoding="utf-8" standalone="no"?>
<!DOCTYPE svg PUBLIC "-//W3C//DTD SVG 1.1//EN"
  "http://www.w3.org/Graphics/SVG/1.1/DTD/svg11.dtd">
<!-- Created with matplotlib (https://matplotlib.org/) -->
<svg height="288pt" version="1.1" viewBox="0 0 432 288" width="432pt" xmlns="http://www.w3.org/2000/svg" xmlns:xlink="http://www.w3.org/1999/xlink">
 <defs>
  <style type="text/css">
*{stroke-linecap:butt;stroke-linejoin:round;}
  </style>
 </defs>
 <g id="figure_1">
  <g id="patch_1">
   <path d="M 0 288 
L 432 288 
L 432 0 
L 0 0 
z
" style="fill:#ffffff;"/>
  </g>
  <g id="axes_1">
   <g id="patch_2">
    <path clip-path="url(#p32c3291f1b)" d="M 189.188151 141.418313 
L 190.71092 152.183143 
L 189.634437 152.33542 
L 188.111668 141.57059 
z
" style="stroke:#000000;stroke-linejoin:miter;"/>
   </g>
   <g id="patch_3">
    <path clip-path="url(#p32c3291f1b)" d="M 243.012299 133.804468 
L 244.535069 144.569297 
L 243.458586 144.721574 
L 241.935816 133.956745 
z
" style="stroke:#000000;stroke-linejoin:miter;"/>
   </g>
   <g id="patch_4">
    <path clip-path="url(#p32c3291f1b)" d="M 206.591292 138.956503 
L 206.366742 138.43123 
L 205.855067 137.983009 
L 205.068205 137.644204 
L 204.022135 137.441997 
L 202.736412 137.396526 
L 201.233693 137.519458 
L 199.539261 137.81308 
L 197.680572 138.26998 
L 195.686828 138.873339 
L 193.588583 139.597817 
L 191.417385 140.410978 
L 189.205446 141.275166 
L 186.985342 142.149711 
L 184.789717 142.993336 
L 182.651003 143.766584 
L 180.60112 144.434153 
L 178.67116 144.966945 
L 176.891048 145.343734 
L 175.289166 145.552331 
L 173.891938 145.590176 
L 172.723392 145.464321 
L 171.804694 145.190818 
L 171.15367 144.793536 
L 170.784335 144.302501 
L 170.706444 143.751871 
L 170.925092 143.177662 
L 171.44038 142.615395 
L 172.247172 142.097808 
L 173.334962 141.652777 
L 174.687866 141.301594 
L 176.284755 141.0577 
L 178.099531 140.925964 
L 180.101546 140.902547 
L 182.256162 140.975357 
L 184.525435 141.125062 
L 186.868906 141.326595 
L 189.244472 141.551048 
L 191.60932 141.767813 
L 193.920873 141.946854 
L 196.137737 142.060926 
L 198.220606 142.087616 
L 200.133097 142.011053 
L 201.842488 141.823178 
L 203.320344 141.524485 
L 204.543009 141.124183 
L 205.491951 140.639766 
L 206.153967 140.096005 
L 206.521245 139.52345 
z
" style="fill:#0000ff;stroke:#000000;stroke-linejoin:miter;"/>
   </g>
   <g id="patch_5">
    <path clip-path="url(#p32c3291f1b)" d="M 260.415441 131.342657 
L 260.190891 130.817384 
L 259.679215 130.369163 
L 258.892353 130.030358 
L 257.846283 129.828151 
L 256.560561 129.78268 
L 255.057841 129.905613 
L 253.363409 130.199234 
L 251.50472 130.656134 
L 249.510976 131.259493 
L 247.412732 131.983972 
L 245.241533 132.797133 
L 243.029595 133.66132 
L 240.80949 134.535866 
L 238.613866 135.37949 
L 236.475152 136.152739 
L 234.425268 136.820307 
L 232.495308 137.353099 
L 230.715197 137.729889 
L 229.113314 137.938486 
L 227.716086 137.97633 
L 226.54754 137.850475 
L 225.628842 137.576972 
L 224.977818 137.17969 
L 224.608483 136.688655 
L 224.530592 136.138025 
L 224.74924 135.563816 
L 225.264529 135.001549 
L 226.071321 134.483962 
L 227.159111 134.038931 
L 228.512014 133.687748 
L 230.108904 133.443854 
L 231.92368 133.312118 
L 233.925695 133.288702 
L 236.080311 133.361511 
L 238.349584 133.511216 
L 240.693054 133.71275 
L 243.06862 133.937202 
L 245.433468 134.153967 
L 247.745021 134.333008 
L 249.961885 134.44708 
L 252.044755 134.473771 
L 253.957245 134.397208 
L 255.666636 134.209332 
L 257.144492 133.910639 
L 258.367157 133.510337 
L 259.316099 133.02592 
L 259.978115 132.48216 
L 260.345394 131.909604 
z
" style="fill:#0000ff;stroke:#000000;stroke-linejoin:miter;"/>
   </g>
   <g id="patch_6">
    <path clip-path="url(#p32c3291f1b)" d="M 248.99855 141.192844 
L 184.409572 150.329459 
L 185.170956 155.711874 
L 249.759934 146.575259 
z
" style="fill:#999999;stroke:#000000;stroke-linejoin:miter;"/>
   </g>
   <g id="text_1">
    <!-- t = 1.2 -->
    <defs>
     <path d="M 18.3125 70.21875 
L 18.3125 54.6875 
L 36.8125 54.6875 
L 36.8125 47.703125 
L 18.3125 47.703125 
L 18.3125 18.015625 
Q 18.3125 11.328125 20.140625 9.421875 
Q 21.96875 7.515625 27.59375 7.515625 
L 36.8125 7.515625 
L 36.8125 0 
L 27.59375 0 
Q 17.1875 0 13.234375 3.875 
Q 9.28125 7.765625 9.28125 18.015625 
L 9.28125 47.703125 
L 2.6875 47.703125 
L 2.6875 54.6875 
L 9.28125 54.6875 
L 9.28125 70.21875 
z
" id="DejaVuSans-116"/>
     <path id="DejaVuSans-32"/>
     <path d="M 10.59375 45.40625 
L 73.1875 45.40625 
L 73.1875 37.203125 
L 10.59375 37.203125 
z
M 10.59375 25.484375 
L 73.1875 25.484375 
L 73.1875 17.1875 
L 10.59375 17.1875 
z
" id="DejaVuSans-61"/>
     <path d="M 12.40625 8.296875 
L 28.515625 8.296875 
L 28.515625 63.921875 
L 10.984375 60.40625 
L 10.984375 69.390625 
L 28.421875 72.90625 
L 38.28125 72.90625 
L 38.28125 8.296875 
L 54.390625 8.296875 
L 54.390625 0 
L 12.40625 0 
z
" id="DejaVuSans-49"/>
     <path d="M 10.6875 12.40625 
L 21 12.40625 
L 21 0 
L 10.6875 0 
z
" id="DejaVuSans-46"/>
     <path d="M 19.1875 8.296875 
L 53.609375 8.296875 
L 53.609375 0 
L 7.328125 0 
L 7.328125 8.296875 
Q 12.9375 14.109375 22.625 23.890625 
Q 32.328125 33.6875 34.8125 36.53125 
Q 39.546875 41.84375 41.421875 45.53125 
Q 43.3125 49.21875 43.3125 52.78125 
Q 43.3125 58.59375 39.234375 62.25 
Q 35.15625 65.921875 28.609375 65.921875 
Q 23.96875 65.921875 18.8125 64.3125 
Q 13.671875 62.703125 7.8125 59.421875 
L 7.8125 69.390625 
Q 13.765625 71.78125 18.9375 73 
Q 24.125 74.21875 28.421875 74.21875 
Q 39.75 74.21875 46.484375 68.546875 
Q 53.21875 62.890625 53.21875 53.421875 
Q 53.21875 48.921875 51.53125 44.890625 
Q 49.859375 40.875 45.40625 35.40625 
Q 44.1875 33.984375 37.640625 27.21875 
Q 31.109375 20.453125 19.1875 8.296875 
z
" id="DejaVuSans-50"/>
    </defs>
    <g transform="translate(200.664375 28.56)scale(0.12 -0.12)">
     <use xlink:href="#DejaVuSans-116"/>
     <use x="39.208984" xlink:href="#DejaVuSans-32"/>
     <use x="70.996094" xlink:href="#DejaVuSans-61"/>
     <use x="154.785156" xlink:href="#DejaVuSans-32"/>
     <use x="186.572266" xlink:href="#DejaVuSans-49"/>
     <use x="250.195312" xlink:href="#DejaVuSans-46"/>
     <use x="281.982422" xlink:href="#DejaVuSans-50"/>
    </g>
   </g>
  </g>
 </g>
 <defs>
  <clipPath id="p32c3291f1b">
   <rect height="217.44" width="334.8" x="54" y="34.56"/>
  </clipPath>
 </defs>
</svg>
