<?xml version="1.0" encoding="utf-8" standalone="no"?>
<!DOCTYPE svg PUBLIC "-//W3C//DTD SVG 1.1//EN"
  "http://www.w3.org/Graphics/SVG/1.1/DTD/svg11.dtd">
<!-- Created with matplotlib (https://matplotlib.org/) -->
<svg height="288pt" version="1.1" viewBox="0 0 432 288" width="432pt" xmlns="http://www.w3.org/2000/svg" xmlns:xlink="http://www.w3.org/1999/xlink">
 <defs>
  <style type="text/css">
*{stroke-linecap:butt;stroke-linejoin:round;}
  </style>
 </defs>
 <g id="figure_1">
  <g id="patch_1">
   <path d="M 0 288 
L 432 288 
L 432 0 
L 0 0 
z
" style="fill:#ffffff;"/>
  </g>
  <g id="axes_1">
   <g id="patch_2">
    <path clip-path="url(#p59c25f48d8)" d="M 194.742965 132.422051 
L 194.747153 143.29405 
L 193.659953 143.294469 
L 193.655765 132.42247 
z
" style="stroke:#000000;stroke-linejoin:miter;"/>
   </g>
   <g id="patch_3">
    <path clip-path="url(#p59c25f48d8)" d="M 249.102961 132.401109 
L 249.107149 143.273108 
L 248.019949 143.273527 
L 248.015761 132.401528 
z
" style="stroke:#000000;stroke-linejoin:miter;"/>
   </g>
   <g id="patch_4">
    <path clip-path="url(#p59c25f48d8)" d="M 212.319363 132.41528 
L 212.170386 131.86379 
L 211.726335 131.348492 
L 210.994512 130.903098 
L 209.986942 130.556756 
L 208.720175 130.332139 
L 207.215017 130.243963 
L 205.496182 130.298025 
L 203.591895 130.49082 
L 201.533418 130.809774 
L 199.354547 131.234063 
L 197.091051 131.735975 
L 194.780086 132.282722 
L 192.459588 132.838586 
L 190.167649 133.36725 
L 187.941893 133.834179 
L 185.818858 134.208871 
L 183.833398 134.46686 
L 182.018107 134.591306 
L 180.402792 134.574104 
L 179.013975 134.416409 
L 177.874465 134.128564 
L 177.002977 133.729417 
L 176.413828 133.245093 
L 176.116703 132.707283 
L 176.116488 132.15117 
L 176.4132 131.613132 
L 177.001975 131.128354 
L 177.873155 130.728535 
L 179.012443 130.439812 
L 180.401138 130.281048 
L 182.01644 130.262601 
L 183.831825 130.385648 
L 185.817484 130.642107 
L 187.940807 131.015163 
L 190.166922 131.480377 
L 192.459267 132.007275 
L 194.780193 132.561351 
L 197.091578 133.106317 
L 199.355461 133.606485 
L 201.534658 134.029095 
L 203.59338 134.346463 
L 205.497816 134.537791 
L 207.216691 134.590528 
L 208.721781 134.501193 
L 209.988375 134.2756 
L 210.995678 133.928482 
L 211.727157 133.482524 
L 212.170811 132.966883 
z
" style="fill:#0000ff;stroke:#000000;stroke-linejoin:miter;"/>
   </g>
   <g id="patch_5">
    <path clip-path="url(#p59c25f48d8)" d="M 266.679359 132.394338 
L 266.530382 131.842848 
L 266.086331 131.32755 
L 265.354508 130.882156 
L 264.346938 130.535814 
L 263.080171 130.311197 
L 261.575013 130.223021 
L 259.856178 130.277083 
L 257.951891 130.469878 
L 255.893414 130.788832 
L 253.714543 131.213121 
L 251.451047 131.715033 
L 249.140081 132.26178 
L 246.819584 132.817644 
L 244.527645 133.346308 
L 242.301889 133.813237 
L 240.178854 134.187929 
L 238.193394 134.445918 
L 236.378103 134.570364 
L 234.762788 134.553162 
L 233.373971 134.395467 
L 232.234461 134.107622 
L 231.362973 133.708475 
L 230.773824 133.224151 
L 230.476699 132.686341 
L 230.476484 132.130228 
L 230.773196 131.59219 
L 231.361971 131.107412 
L 232.233151 130.707593 
L 233.372439 130.41887 
L 234.761134 130.260106 
L 236.376436 130.241659 
L 238.191821 130.364706 
L 240.17748 130.621165 
L 242.300803 130.994221 
L 244.526918 131.459435 
L 246.819263 131.986333 
L 249.140189 132.540409 
L 251.451574 133.085375 
L 253.715457 133.585543 
L 255.894654 134.008153 
L 257.953376 134.325521 
L 259.857812 134.516849 
L 261.576687 134.569586 
L 263.081777 134.480251 
L 264.348371 134.254658 
L 265.355674 133.90754 
L 266.087153 133.461582 
L 266.530807 132.945941 
z
" style="fill:#0000ff;stroke:#000000;stroke-linejoin:miter;"/>
   </g>
   <g id="patch_6">
    <path clip-path="url(#p59c25f48d8)" d="M 253.998502 140.553223 
L 188.766506 140.578354 
L 188.768601 146.014353 
L 254.000596 145.989223 
z
" style="fill:#999999;stroke:#000000;stroke-linejoin:miter;"/>
   </g>
   <g id="text_1">
    <!-- t = 3.2 -->
    <defs>
     <path d="M 18.3125 70.21875 
L 18.3125 54.6875 
L 36.8125 54.6875 
L 36.8125 47.703125 
L 18.3125 47.703125 
L 18.3125 18.015625 
Q 18.3125 11.328125 20.140625 9.421875 
Q 21.96875 7.515625 27.59375 7.515625 
L 36.8125 7.515625 
L 36.8125 0 
L 27.59375 0 
Q 17.1875 0 13.234375 3.875 
Q 9.28125 7.765625 9.28125 18.015625 
L 9.28125 47.703125 
L 2.6875 47.703125 
L 2.6875 54.6875 
L 9.28125 54.6875 
L 9.28125 70.21875 
z
" id="DejaVuSans-116"/>
     <path id="DejaVuSans-32"/>
     <path d="M 10.59375 45.40625 
L 73.1875 45.40625 
L 73.1875 37.203125 
L 10.59375 37.203125 
z
M 10.59375 25.484375 
L 73.1875 25.484375 
L 73.1875 17.1875 
L 10.59375 17.1875 
z
" id="DejaVuSans-61"/>
     <path d="M 40.578125 39.3125 
Q 47.65625 37.796875 51.625 33 
Q 55.609375 28.21875 55.609375 21.1875 
Q 55.609375 10.40625 48.1875 4.484375 
Q 40.765625 -1.421875 27.09375 -1.421875 
Q 22.515625 -1.421875 17.65625 -0.515625 
Q 12.796875 0.390625 7.625 2.203125 
L 7.625 11.71875 
Q 11.71875 9.328125 16.59375 8.109375 
Q 21.484375 6.890625 26.8125 6.890625 
Q 36.078125 6.890625 40.9375 10.546875 
Q 45.796875 14.203125 45.796875 21.1875 
Q 45.796875 27.640625 41.28125 31.265625 
Q 36.765625 34.90625 28.71875 34.90625 
L 20.21875 34.90625 
L 20.21875 43.015625 
L 29.109375 43.015625 
Q 36.375 43.015625 40.234375 45.921875 
Q 44.09375 48.828125 44.09375 54.296875 
Q 44.09375 59.90625 40.109375 62.90625 
Q 36.140625 65.921875 28.71875 65.921875 
Q 24.65625 65.921875 20.015625 65.03125 
Q 15.375 64.15625 9.8125 62.3125 
L 9.8125 71.09375 
Q 15.4375 72.65625 20.34375 73.4375 
Q 25.25 74.21875 29.59375 74.21875 
Q 40.828125 74.21875 47.359375 69.109375 
Q 53.90625 64.015625 53.90625 55.328125 
Q 53.90625 49.265625 50.4375 45.09375 
Q 46.96875 40.921875 40.578125 39.3125 
z
" id="DejaVuSans-51"/>
     <path d="M 10.6875 12.40625 
L 21 12.40625 
L 21 0 
L 10.6875 0 
z
" id="DejaVuSans-46"/>
     <path d="M 19.1875 8.296875 
L 53.609375 8.296875 
L 53.609375 0 
L 7.328125 0 
L 7.328125 8.296875 
Q 12.9375 14.109375 22.625 23.890625 
Q 32.328125 33.6875 34.8125 36.53125 
Q 39.546875 41.84375 41.421875 45.53125 
Q 43.3125 49.21875 43.3125 52.78125 
Q 43.3125 58.59375 39.234375 62.25 
Q 35.15625 65.921875 28.609375 65.921875 
Q 23.96875 65.921875 18.8125 64.3125 
Q 13.671875 62.703125 7.8125 59.421875 
L 7.8125 69.390625 
Q 13.765625 71.78125 18.9375 73 
Q 24.125 74.21875 28.421875 74.21875 
Q 39.75 74.21875 46.484375 68.546875 
Q 53.21875 62.890625 53.21875 53.421875 
Q 53.21875 48.921875 51.53125 44.890625 
Q 49.859375 40.875 45.40625 35.40625 
Q 44.1875 33.984375 37.640625 27.21875 
Q 31.109375 20.453125 19.1875 8.296875 
z
" id="DejaVuSans-50"/>
    </defs>
    <g transform="translate(200.664375 28.56)scale(0.12 -0.12)">
     <use xlink:href="#DejaVuSans-116"/>
     <use x="39.208984" xlink:href="#DejaVuSans-32"/>
     <use x="70.996094" xlink:href="#DejaVuSans-61"/>
     <use x="154.785156" xlink:href="#DejaVuSans-32"/>
     <use x="186.572266" xlink:href="#DejaVuSans-51"/>
     <use x="250.195312" xlink:href="#DejaVuSans-46"/>
     <use x="281.982422" xlink:href="#DejaVuSans-50"/>
    </g>
   </g>
  </g>
 </g>
 <defs>
  <clipPath id="p59c25f48d8">
   <rect height="217.44" width="334.8" x="54" y="34.56"/>
  </clipPath>
 </defs>
</svg>
