<?xml version="1.0" encoding="utf-8" standalone="no"?>
<!DOCTYPE svg PUBLIC "-//W3C//DTD SVG 1.1//EN"
  "http://www.w3.org/Graphics/SVG/1.1/DTD/svg11.dtd">
<!-- Created with matplotlib (https://matplotlib.org/) -->
<svg height="288pt" version="1.1" viewBox="0 0 432 288" width="432pt" xmlns="http://www.w3.org/2000/svg" xmlns:xlink="http://www.w3.org/1999/xlink">
 <defs>
  <style type="text/css">
*{stroke-linecap:butt;stroke-linejoin:round;}
  </style>
 </defs>
 <g id="figure_1">
  <g id="patch_1">
   <path d="M 0 288 
L 432 288 
L 432 0 
L 0 0 
z
" style="fill:#ffffff;"/>
  </g>
  <g id="axes_1">
   <g id="patch_2">
    <path clip-path="url(#p3fcc027382)" d="M 190.773348 133.940251 
L 190.540228 144.809751 
L 189.453278 144.786439 
L 189.686398 133.916939 
z
" style="stroke:#000000;stroke-linejoin:miter;"/>
   </g>
   <g id="patch_3">
    <path clip-path="url(#p3fcc027382)" d="M 245.12085 135.105852 
L 244.88773 145.975352 
L 243.80078 145.95204 
L 244.0339 135.08254 
z
" style="stroke:#000000;stroke-linejoin:miter;"/>
   </g>
   <g id="patch_4">
    <path clip-path="url(#p3fcc027382)" d="M 208.345707 134.317128 
L 208.208803 133.762519 
L 207.776106 133.23765 
L 207.054179 132.776389 
L 206.054408 132.408136 
L 204.792846 132.155923 
L 203.289971 132.034914 
L 201.570366 132.051445 
L 199.662324 132.202629 
L 197.597376 132.476576 
L 195.409763 132.853205 
L 193.13585 133.305591 
L 190.813501 133.801765 
L 188.481423 134.306846 
L 186.178491 134.785358 
L 183.943074 135.203592 
L 181.812367 135.531855 
L 179.821748 135.746445 
L 178.004173 135.831238 
L 176.389618 135.778782 
L 175.004575 135.590811 
L 173.871619 135.278161 
L 173.00905 134.860087 
L 172.430614 134.363019 
L 172.145298 133.818851 
L 172.157222 133.262867 
L 172.465607 132.731433 
L 173.064823 132.259622 
L 173.944523 131.878914 
L 175.089842 131.615127 
L 176.481671 131.486713 
L 178.09699 131.503528 
L 179.909258 131.666171 
L 181.888846 131.96591 
L 184.00352 132.385225 
L 186.21895 132.898918 
L 188.499249 133.475727 
L 190.807527 134.08033 
L 193.106467 134.675618 
L 195.358893 135.225081 
L 197.528346 135.695157 
L 199.57965 136.057386 
L 201.479456 136.290237 
L 203.196771 136.380481 
L 204.703452 136.324019 
L 205.974668 136.126126 
L 206.989308 135.801077 
L 207.730347 135.371192 
L 208.18515 134.865358 
z
" style="fill:#0000ff;stroke:#000000;stroke-linejoin:miter;"/>
   </g>
   <g id="patch_5">
    <path clip-path="url(#p3fcc027382)" d="M 262.693209 135.482729 
L 262.556305 134.92812 
L 262.123608 134.403251 
L 261.401681 133.94199 
L 260.40191 133.573737 
L 259.140348 133.321524 
L 257.637473 133.200515 
L 255.917868 133.217047 
L 254.009826 133.36823 
L 251.944878 133.642177 
L 249.757265 134.018806 
L 247.483352 134.471192 
L 245.161003 134.967366 
L 242.828925 135.472447 
L 240.525993 135.950959 
L 238.290576 136.369193 
L 236.159869 136.697456 
L 234.16925 136.912046 
L 232.351675 136.996839 
L 230.73712 136.944383 
L 229.352077 136.756412 
L 228.219121 136.443762 
L 227.356552 136.025688 
L 226.778116 135.52862 
L 226.4928 134.984452 
L 226.504724 134.428468 
L 226.813109 133.897034 
L 227.412325 133.425223 
L 228.292025 133.044515 
L 229.437344 132.780728 
L 230.829173 132.652314 
L 232.444492 132.669129 
L 234.25676 132.831772 
L 236.236348 133.131511 
L 238.351022 133.550826 
L 240.566452 134.064519 
L 242.846751 134.641328 
L 245.155029 135.245931 
L 247.453969 135.841219 
L 249.706395 136.390683 
L 251.875848 136.860758 
L 253.927152 137.222987 
L 255.826958 137.455838 
L 257.544273 137.546082 
L 259.050954 137.48962 
L 260.32217 137.291727 
L 261.33681 136.966678 
L 262.077849 136.536793 
L 262.532652 136.030959 
z
" style="fill:#0000ff;stroke:#000000;stroke-linejoin:miter;"/>
   </g>
   <g id="patch_6">
    <path clip-path="url(#p3fcc027382)" d="M 249.837285 143.362881 
L 184.620283 141.96416 
L 184.503723 147.39891 
L 249.720725 148.797631 
z
" style="fill:#999999;stroke:#000000;stroke-linejoin:miter;"/>
   </g>
   <g id="text_1">
    <!-- t = 1.4 -->
    <defs>
     <path d="M 18.3125 70.21875 
L 18.3125 54.6875 
L 36.8125 54.6875 
L 36.8125 47.703125 
L 18.3125 47.703125 
L 18.3125 18.015625 
Q 18.3125 11.328125 20.140625 9.421875 
Q 21.96875 7.515625 27.59375 7.515625 
L 36.8125 7.515625 
L 36.8125 0 
L 27.59375 0 
Q 17.1875 0 13.234375 3.875 
Q 9.28125 7.765625 9.28125 18.015625 
L 9.28125 47.703125 
L 2.6875 47.703125 
L 2.6875 54.6875 
L 9.28125 54.6875 
L 9.28125 70.21875 
z
" id="DejaVuSans-116"/>
     <path id="DejaVuSans-32"/>
     <path d="M 10.59375 45.40625 
L 73.1875 45.40625 
L 73.1875 37.203125 
L 10.59375 37.203125 
z
M 10.59375 25.484375 
L 73.1875 25.484375 
L 73.1875 17.1875 
L 10.59375 17.1875 
z
" id="DejaVuSans-61"/>
     <path d="M 12.40625 8.296875 
L 28.515625 8.296875 
L 28.515625 63.921875 
L 10.984375 60.40625 
L 10.984375 69.390625 
L 28.421875 72.90625 
L 38.28125 72.90625 
L 38.28125 8.296875 
L 54.390625 8.296875 
L 54.390625 0 
L 12.40625 0 
z
" id="DejaVuSans-49"/>
     <path d="M 10.6875 12.40625 
L 21 12.40625 
L 21 0 
L 10.6875 0 
z
" id="DejaVuSans-46"/>
     <path d="M 37.796875 64.3125 
L 12.890625 25.390625 
L 37.796875 25.390625 
z
M 35.203125 72.90625 
L 47.609375 72.90625 
L 47.609375 25.390625 
L 58.015625 25.390625 
L 58.015625 17.1875 
L 47.609375 17.1875 
L 47.609375 0 
L 37.796875 0 
L 37.796875 17.1875 
L 4.890625 17.1875 
L 4.890625 26.703125 
z
" id="DejaVuSans-52"/>
    </defs>
    <g transform="translate(200.664375 28.56)scale(0.12 -0.12)">
     <use xlink:href="#DejaVuSans-116"/>
     <use x="39.208984" xlink:href="#DejaVuSans-32"/>
     <use x="70.996094" xlink:href="#DejaVuSans-61"/>
     <use x="154.785156" xlink:href="#DejaVuSans-32"/>
     <use x="186.572266" xlink:href="#DejaVuSans-49"/>
     <use x="250.195312" xlink:href="#DejaVuSans-46"/>
     <use x="281.982422" xlink:href="#DejaVuSans-52"/>
    </g>
   </g>
  </g>
 </g>
 <defs>
  <clipPath id="p3fcc027382">
   <rect height="217.44" width="334.8" x="54" y="34.56"/>
  </clipPath>
 </defs>
</svg>
