<?xml version="1.0" encoding="utf-8" standalone="no"?>
<!DOCTYPE svg PUBLIC "-//W3C//DTD SVG 1.1//EN"
  "http://www.w3.org/Graphics/SVG/1.1/DTD/svg11.dtd">
<!-- Created with matplotlib (https://matplotlib.org/) -->
<svg height="288pt" version="1.1" viewBox="0 0 432 288" width="432pt" xmlns="http://www.w3.org/2000/svg" xmlns:xlink="http://www.w3.org/1999/xlink">
 <defs>
  <style type="text/css">
*{stroke-linecap:butt;stroke-linejoin:round;}
  </style>
 </defs>
 <g id="figure_1">
  <g id="patch_1">
   <path d="M 0 288 
L 432 288 
L 432 0 
L 0 0 
z
" style="fill:#ffffff;"/>
  </g>
  <g id="axes_1">
   <g id="patch_2">
    <path clip-path="url(#p03a36e5f9b)" d="M 193.64609 132.783834 
L 193.717014 143.655603 
L 192.629837 143.662695 
L 192.558913 132.790927 
z
" style="stroke:#000000;stroke-linejoin:miter;"/>
   </g>
   <g id="patch_3">
    <path clip-path="url(#p03a36e5f9b)" d="M 248.004933 132.429214 
L 248.075858 143.300982 
L 246.988681 143.308075 
L 246.917757 132.436306 
z
" style="stroke:#000000;stroke-linejoin:miter;"/>
   </g>
   <g id="patch_4">
    <path clip-path="url(#p03a36e5f9b)" d="M 211.222116 132.669174 
L 211.069756 132.118609 
L 210.622551 131.606046 
L 209.888008 131.165153 
L 208.878331 130.825002 
L 207.610209 130.608165 
L 206.104537 130.52923 
L 204.386067 130.593842 
L 202.482999 130.798322 
L 200.426519 131.129906 
L 198.250294 131.567562 
L 195.989921 132.083358 
L 193.682355 132.64428 
L 191.365313 133.214378 
L 189.076663 133.757101 
L 186.853815 134.237683 
L 184.73312 134.6254 
L 182.74928 134.895571 
L 180.934788 135.031157 
L 179.319398 135.023871 
L 177.929639 134.874705 
L 176.788383 134.593859 
L 175.914462 134.200069 
L 175.322351 133.719371 
L 175.02193 133.183395 
L 175.018302 132.627294 
L 175.311705 132.087444 
L 175.897493 131.599061 
L 176.766203 131.193903 
L 177.903698 130.898192 
L 179.291392 130.730906 
L 180.90655 130.702545 
L 182.722656 130.814446 
L 184.709852 131.058711 
L 186.835425 131.418727 
L 189.064354 131.870267 
L 191.35989 132.383085 
L 193.684173 132.922903 
L 195.99886 133.453671 
L 198.26577 133.939933 
L 200.447521 134.349159 
L 202.508151 134.653883 
L 204.413726 134.833518 
L 206.132893 134.875703 
L 207.637406 134.777131 
L 208.902591 134.543768 
L 209.907744 134.190473 
L 210.636472 133.740033 
L 211.076952 133.221679 
z
" style="fill:#0000ff;stroke:#000000;stroke-linejoin:miter;"/>
   </g>
   <g id="patch_5">
    <path clip-path="url(#p03a36e5f9b)" d="M 265.580959 132.314553 
L 265.4286 131.763989 
L 264.981394 131.251426 
L 264.246851 130.810532 
L 263.237174 130.470381 
L 261.969052 130.253544 
L 260.463381 130.17461 
L 258.744911 130.239221 
L 256.841842 130.443702 
L 254.785362 130.775286 
L 252.609137 131.212941 
L 250.348764 131.728737 
L 248.041198 132.28966 
L 245.724156 132.859757 
L 243.435506 133.40248 
L 241.212658 133.883062 
L 239.091964 134.27078 
L 237.108124 134.54095 
L 235.293631 134.676537 
L 233.678241 134.66925 
L 232.288482 134.520084 
L 231.147227 134.239239 
L 230.273305 133.845449 
L 229.681195 133.36475 
L 229.380773 132.828774 
L 229.377145 132.272674 
L 229.670548 131.732824 
L 230.256337 131.244441 
L 231.125046 130.839282 
L 232.262541 130.543571 
L 233.650235 130.376286 
L 235.265393 130.347924 
L 237.0815 130.459826 
L 239.068696 130.704091 
L 241.194268 131.064107 
L 243.423197 131.515647 
L 245.718733 132.028464 
L 248.043016 132.568283 
L 250.357703 133.099051 
L 252.624614 133.585313 
L 254.806364 133.994538 
L 256.866995 134.299263 
L 258.772569 134.478897 
L 260.491736 134.521083 
L 261.996249 134.42251 
L 263.261434 134.189147 
L 264.266587 133.835852 
L 264.995316 133.385413 
L 265.435796 132.867058 
z
" style="fill:#0000ff;stroke:#000000;stroke-linejoin:miter;"/>
   </g>
   <g id="patch_6">
    <path clip-path="url(#p03a36e5f9b)" d="M 252.950422 140.551124 
L 187.71981 140.976669 
L 187.755273 146.412553 
L 252.985884 145.987009 
z
" style="fill:#999999;stroke:#000000;stroke-linejoin:miter;"/>
   </g>
   <g id="text_1">
    <!-- t = 2.1 -->
    <defs>
     <path d="M 18.3125 70.21875 
L 18.3125 54.6875 
L 36.8125 54.6875 
L 36.8125 47.703125 
L 18.3125 47.703125 
L 18.3125 18.015625 
Q 18.3125 11.328125 20.140625 9.421875 
Q 21.96875 7.515625 27.59375 7.515625 
L 36.8125 7.515625 
L 36.8125 0 
L 27.59375 0 
Q 17.1875 0 13.234375 3.875 
Q 9.28125 7.765625 9.28125 18.015625 
L 9.28125 47.703125 
L 2.6875 47.703125 
L 2.6875 54.6875 
L 9.28125 54.6875 
L 9.28125 70.21875 
z
" id="DejaVuSans-116"/>
     <path id="DejaVuSans-32"/>
     <path d="M 10.59375 45.40625 
L 73.1875 45.40625 
L 73.1875 37.203125 
L 10.59375 37.203125 
z
M 10.59375 25.484375 
L 73.1875 25.484375 
L 73.1875 17.1875 
L 10.59375 17.1875 
z
" id="DejaVuSans-61"/>
     <path d="M 19.1875 8.296875 
L 53.609375 8.296875 
L 53.609375 0 
L 7.328125 0 
L 7.328125 8.296875 
Q 12.9375 14.109375 22.625 23.890625 
Q 32.328125 33.6875 34.8125 36.53125 
Q 39.546875 41.84375 41.421875 45.53125 
Q 43.3125 49.21875 43.3125 52.78125 
Q 43.3125 58.59375 39.234375 62.25 
Q 35.15625 65.921875 28.609375 65.921875 
Q 23.96875 65.921875 18.8125 64.3125 
Q 13.671875 62.703125 7.8125 59.421875 
L 7.8125 69.390625 
Q 13.765625 71.78125 18.9375 73 
Q 24.125 74.21875 28.421875 74.21875 
Q 39.75 74.21875 46.484375 68.546875 
Q 53.21875 62.890625 53.21875 53.421875 
Q 53.21875 48.921875 51.53125 44.890625 
Q 49.859375 40.875 45.40625 35.40625 
Q 44.1875 33.984375 37.640625 27.21875 
Q 31.109375 20.453125 19.1875 8.296875 
z
" id="DejaVuSans-50"/>
     <path d="M 10.6875 12.40625 
L 21 12.40625 
L 21 0 
L 10.6875 0 
z
" id="DejaVuSans-46"/>
     <path d="M 12.40625 8.296875 
L 28.515625 8.296875 
L 28.515625 63.921875 
L 10.984375 60.40625 
L 10.984375 69.390625 
L 28.421875 72.90625 
L 38.28125 72.90625 
L 38.28125 8.296875 
L 54.390625 8.296875 
L 54.390625 0 
L 12.40625 0 
z
" id="DejaVuSans-49"/>
    </defs>
    <g transform="translate(200.664375 28.56)scale(0.12 -0.12)">
     <use xlink:href="#DejaVuSans-116"/>
     <use x="39.208984" xlink:href="#DejaVuSans-32"/>
     <use x="70.996094" xlink:href="#DejaVuSans-61"/>
     <use x="154.785156" xlink:href="#DejaVuSans-32"/>
     <use x="186.572266" xlink:href="#DejaVuSans-50"/>
     <use x="250.195312" xlink:href="#DejaVuSans-46"/>
     <use x="281.982422" xlink:href="#DejaVuSans-49"/>
    </g>
   </g>
  </g>
 </g>
 <defs>
  <clipPath id="p03a36e5f9b">
   <rect height="217.44" width="334.8" x="54" y="34.56"/>
  </clipPath>
 </defs>
</svg>
