<?xml version="1.0" encoding="utf-8" standalone="no"?>
<!DOCTYPE svg PUBLIC "-//W3C//DTD SVG 1.1//EN"
  "http://www.w3.org/Graphics/SVG/1.1/DTD/svg11.dtd">
<!-- Created with matplotlib (https://matplotlib.org/) -->
<svg height="288pt" version="1.1" viewBox="0 0 432 288" width="432pt" xmlns="http://www.w3.org/2000/svg" xmlns:xlink="http://www.w3.org/1999/xlink">
 <defs>
  <style type="text/css">
*{stroke-linecap:butt;stroke-linejoin:round;}
  </style>
 </defs>
 <g id="figure_1">
  <g id="patch_1">
   <path d="M 0 288 
L 432 288 
L 432 0 
L 0 0 
z
" style="fill:#ffffff;"/>
  </g>
  <g id="axes_1">
   <g id="patch_2">
    <path clip-path="url(#p2db28e1bfd)" d="M -11.219683 168.727356 
L -15.190714 178.848191 
L -16.202797 178.451088 
L -12.231766 168.330253 
z
" style="stroke:#000000;stroke-linejoin:miter;"/>
   </g>
   <g id="patch_3">
    <path clip-path="url(#p2db28e1bfd)" d="M 39.384492 188.58251 
L 35.413461 198.703345 
L 34.401377 198.306242 
L 38.372408 188.185407 
z
" style="stroke:#000000;stroke-linejoin:miter;"/>
   </g>
   <g id="patch_4">
    <path clip-path="url(#p2db28e1bfd)" d="M 5.142334 175.14719 
L 5.205301 174.579414 
L 4.980392 173.93744 
L 4.462077 173.255319 
L 3.65089 172.564576 
L 2.553947 171.892365 
L 1.185232 171.25999 
L -0.434368 170.681883 
L -2.277306 170.165101 
L -4.309882 169.709371 
L -6.493029 169.307664 
L -8.783323 168.947267 
L -11.134192 168.611246 
L -13.497266 168.280225 
L -15.823814 167.934329 
L -18.066189 167.555169 
L -20.179233 167.127714 
L -22.121559 166.641934 
L -23.856671 166.094073 
L -25.353865 165.487483 
L -26.588875 164.832939 
L -27.544255 164.148404 
L -28.209475 163.458265 
L -28.580761 162.792072 
L -28.660686 162.182863 
L -28.457565 161.665174 
L -27.984682 161.272866 
L -27.259429 161.036913 
L -26.302384 160.983289 
L -25.136411 161.131092 
L -23.785813 161.491042 
L -22.275599 162.064446 
L -20.630884 162.8427 
L -18.876461 163.807383 
L -17.036535 164.930924 
L -15.134627 166.177823 
L -13.193627 167.506351 
L -11.235962 168.870623 
L -9.283845 170.22293 
L -7.359564 171.516172 
L -5.485749 172.706263 
L -3.685591 173.754351 
L -1.982956 174.628717 
L -0.402364 175.306244 
L 1.031187 175.773372 
L 2.29257 176.026479 
L 3.357046 176.071674 
L 4.200931 175.924029 
L 4.802393 175.606292 
z
" style="fill:#0000ff;stroke:#000000;stroke-linejoin:miter;"/>
   </g>
   <g id="patch_5">
    <path clip-path="url(#p2db28e1bfd)" d="M 55.746508 195.002344 
L 55.809475 194.434568 
L 55.584567 193.792594 
L 55.066251 193.110473 
L 54.255064 192.41973 
L 53.158121 191.747519 
L 51.789407 191.115144 
L 50.169806 190.537037 
L 48.326868 190.020255 
L 46.294292 189.564525 
L 44.111145 189.162818 
L 41.820851 188.802421 
L 39.469983 188.4664 
L 37.106909 188.135379 
L 34.780361 187.789483 
L 32.537985 187.410323 
L 30.424941 186.982868 
L 28.482615 186.497088 
L 26.747503 185.949227 
L 25.250309 185.342637 
L 24.015299 184.688093 
L 23.059919 184.003558 
L 22.394699 183.313419 
L 22.023414 182.647226 
L 21.943488 182.038017 
L 22.14661 181.520328 
L 22.619492 181.12802 
L 23.344745 180.892067 
L 24.30179 180.838443 
L 25.467763 180.986246 
L 26.818361 181.346196 
L 28.328576 181.9196 
L 29.97329 182.697854 
L 31.727713 183.662537 
L 33.567639 184.786078 
L 35.469547 186.032977 
L 37.410547 187.361505 
L 39.368213 188.725777 
L 41.320329 190.078084 
L 43.244611 191.371326 
L 45.118425 192.561417 
L 46.918583 193.609505 
L 48.621218 194.483871 
L 50.20181 195.161398 
L 51.635361 195.628526 
L 52.896745 195.881633 
L 53.96122 195.926828 
L 54.805105 195.779183 
L 55.406567 195.461446 
z
" style="fill:#0000ff;stroke:#000000;stroke-linejoin:miter;"/>
   </g>
   <g id="patch_6">
    <path clip-path="url(#p2db28e1bfd)" d="M 40.960594 197.960101 
L -19.764415 174.133916 
L -21.74993 179.194333 
L 38.975079 203.020518 
z
" style="fill:#999999;stroke:#000000;stroke-linejoin:miter;"/>
   </g>
   <g id="text_1">
    <!-- t = 0.0 -->
    <defs>
     <path d="M 18.3125 70.21875 
L 18.3125 54.6875 
L 36.8125 54.6875 
L 36.8125 47.703125 
L 18.3125 47.703125 
L 18.3125 18.015625 
Q 18.3125 11.328125 20.140625 9.421875 
Q 21.96875 7.515625 27.59375 7.515625 
L 36.8125 7.515625 
L 36.8125 0 
L 27.59375 0 
Q 17.1875 0 13.234375 3.875 
Q 9.28125 7.765625 9.28125 18.015625 
L 9.28125 47.703125 
L 2.6875 47.703125 
L 2.6875 54.6875 
L 9.28125 54.6875 
L 9.28125 70.21875 
z
" id="DejaVuSans-116"/>
     <path id="DejaVuSans-32"/>
     <path d="M 10.59375 45.40625 
L 73.1875 45.40625 
L 73.1875 37.203125 
L 10.59375 37.203125 
z
M 10.59375 25.484375 
L 73.1875 25.484375 
L 73.1875 17.1875 
L 10.59375 17.1875 
z
" id="DejaVuSans-61"/>
     <path d="M 31.78125 66.40625 
Q 24.171875 66.40625 20.328125 58.90625 
Q 16.5 51.421875 16.5 36.375 
Q 16.5 21.390625 20.328125 13.890625 
Q 24.171875 6.390625 31.78125 6.390625 
Q 39.453125 6.390625 43.28125 13.890625 
Q 47.125 21.390625 47.125 36.375 
Q 47.125 51.421875 43.28125 58.90625 
Q 39.453125 66.40625 31.78125 66.40625 
z
M 31.78125 74.21875 
Q 44.046875 74.21875 50.515625 64.515625 
Q 56.984375 54.828125 56.984375 36.375 
Q 56.984375 17.96875 50.515625 8.265625 
Q 44.046875 -1.421875 31.78125 -1.421875 
Q 19.53125 -1.421875 13.0625 8.265625 
Q 6.59375 17.96875 6.59375 36.375 
Q 6.59375 54.828125 13.0625 64.515625 
Q 19.53125 74.21875 31.78125 74.21875 
z
" id="DejaVuSans-48"/>
     <path d="M 10.6875 12.40625 
L 21 12.40625 
L 21 0 
L 10.6875 0 
z
" id="DejaVuSans-46"/>
    </defs>
    <g transform="translate(200.664375 28.56)scale(0.12 -0.12)">
     <use xlink:href="#DejaVuSans-116"/>
     <use x="39.208984" xlink:href="#DejaVuSans-32"/>
     <use x="70.996094" xlink:href="#DejaVuSans-61"/>
     <use x="154.785156" xlink:href="#DejaVuSans-32"/>
     <use x="186.572266" xlink:href="#DejaVuSans-48"/>
     <use x="250.195312" xlink:href="#DejaVuSans-46"/>
     <use x="281.982422" xlink:href="#DejaVuSans-48"/>
    </g>
   </g>
  </g>
 </g>
 <defs>
  <clipPath id="p2db28e1bfd">
   <rect height="217.44" width="334.8" x="54" y="34.56"/>
  </clipPath>
 </defs>
</svg>
