<?xml version="1.0" encoding="utf-8" standalone="no"?>
<!DOCTYPE svg PUBLIC "-//W3C//DTD SVG 1.1//EN"
  "http://www.w3.org/Graphics/SVG/1.1/DTD/svg11.dtd">
<!-- Created with matplotlib (https://matplotlib.org/) -->
<svg height="288pt" version="1.1" viewBox="0 0 432 288" width="432pt" xmlns="http://www.w3.org/2000/svg" xmlns:xlink="http://www.w3.org/1999/xlink">
 <defs>
  <style type="text/css">
*{stroke-linecap:butt;stroke-linejoin:round;}
  </style>
 </defs>
 <g id="figure_1">
  <g id="patch_1">
   <path d="M 0 288 
L 432 288 
L 432 0 
L 0 0 
z
" style="fill:#ffffff;"/>
  </g>
  <g id="axes_1">
   <g id="patch_2">
    <path clip-path="url(#pf1eb4ab713)" d="M 285.656058 245.433321 
L 275.327121 242.040174 
L 275.666436 241.00728 
L 285.995373 244.400428 
z
" style="stroke:#000000;stroke-linejoin:miter;"/>
   </g>
   <g id="patch_3">
    <path clip-path="url(#pf1eb4ab713)" d="M 268.69032 297.078005 
L 258.361384 293.684858 
L 258.700698 292.651964 
L 269.029635 296.045111 
z
" style="stroke:#000000;stroke-linejoin:miter;"/>
   </g>
   <g id="patch_4">
    <path clip-path="url(#pf1eb4ab713)" d="M 280.170469 262.131769 
L 280.740895 262.162572 
L 281.369143 261.901769 
L 282.020905 261.345759 
L 282.664737 260.496859 
L 283.273928 259.363706 
L 283.827999 257.961464 
L 284.313721 256.3118 
L 284.725603 254.44262 
L 285.065823 252.387551 
L 285.343601 250.185203 
L 285.574085 247.878212 
L 285.776811 245.512119 
L 285.973856 243.134122 
L 286.187814 240.791754 
L 286.439737 238.531545 
L 286.747181 236.397733 
L 287.122499 234.431074 
L 287.5715 232.667792 
L 288.092572 231.138732 
L 288.676327 229.868729 
L 289.305818 228.876216 
L 289.95729 228.173084 
L 290.601452 227.76477 
L 291.205175 227.650568 
L 291.733509 227.824131 
L 292.151895 228.274104 
L 292.428428 228.984875 
L 292.536013 229.937364 
L 292.454291 231.109823 
L 292.171187 232.478593 
L 291.683984 234.018779 
L 290.999852 235.704819 
L 290.135784 237.51092 
L 289.117941 239.411358 
L 287.980437 241.380646 
L 286.763642 243.393574 
L 285.5121 245.425159 
L 284.272192 247.450528 
L 283.089683 249.444771 
L 282.007309 251.382803 
L 281.062552 253.239275 
L 280.285733 254.988571 
L 279.698547 256.604902 
L 279.31312 258.062545 
L 279.131651 259.336209 
L 279.146641 260.401538 
L 279.341707 261.235738 
L 279.692902 261.818297 
z
" style="fill:#0000ff;stroke:#000000;stroke-linejoin:miter;"/>
   </g>
   <g id="patch_5">
    <path clip-path="url(#pf1eb4ab713)" d="M 263.204732 313.776453 
L 263.775158 313.807256 
L 264.403406 313.546453 
L 265.055168 312.990443 
L 265.699 312.141543 
L 266.308191 311.008389 
L 266.862262 309.606147 
L 267.347984 307.956484 
L 267.759866 306.087304 
L 268.100085 304.032235 
L 268.377864 301.829887 
L 268.608348 299.522895 
L 268.811074 297.156803 
L 269.008119 294.778806 
L 269.222077 292.436437 
L 269.474 290.176228 
L 269.781444 288.042417 
L 270.156762 286.075758 
L 270.605763 284.312476 
L 271.126834 282.783416 
L 271.71059 281.513412 
L 272.340081 280.5209 
L 272.991552 279.817768 
L 273.635714 279.409453 
L 274.239437 279.295252 
L 274.767771 279.468815 
L 275.186158 279.918788 
L 275.462691 280.629559 
L 275.570276 281.582048 
L 275.488554 282.754507 
L 275.20545 284.123277 
L 274.718246 285.663463 
L 274.034114 287.349503 
L 273.170047 289.155603 
L 272.152204 291.056042 
L 271.0147 293.02533 
L 269.797905 295.038258 
L 268.546363 297.069843 
L 267.306455 299.095212 
L 266.123945 301.089454 
L 265.041572 303.027486 
L 264.096815 304.883959 
L 263.319996 306.633255 
L 262.73281 308.249586 
L 262.347383 309.707229 
L 262.165913 310.980893 
L 262.180904 312.046222 
L 262.37597 312.880422 
L 262.727165 313.462981 
z
" style="fill:#0000ff;stroke:#000000;stroke-linejoin:miter;"/>
   </g>
   <g id="patch_6">
    <path clip-path="url(#pf1eb4ab713)" d="M 259.416702 299.181166 
L 279.775586 237.207545 
L 274.611118 235.510972 
L 254.252233 297.484592 
z
" style="fill:#999999;stroke:#000000;stroke-linejoin:miter;"/>
   </g>
   <g id="text_1">
    <!-- t = 0.0 -->
    <defs>
     <path d="M 18.3125 70.21875 
L 18.3125 54.6875 
L 36.8125 54.6875 
L 36.8125 47.703125 
L 18.3125 47.703125 
L 18.3125 18.015625 
Q 18.3125 11.328125 20.140625 9.421875 
Q 21.96875 7.515625 27.59375 7.515625 
L 36.8125 7.515625 
L 36.8125 0 
L 27.59375 0 
Q 17.1875 0 13.234375 3.875 
Q 9.28125 7.765625 9.28125 18.015625 
L 9.28125 47.703125 
L 2.6875 47.703125 
L 2.6875 54.6875 
L 9.28125 54.6875 
L 9.28125 70.21875 
z
" id="DejaVuSans-116"/>
     <path id="DejaVuSans-32"/>
     <path d="M 10.59375 45.40625 
L 73.1875 45.40625 
L 73.1875 37.203125 
L 10.59375 37.203125 
z
M 10.59375 25.484375 
L 73.1875 25.484375 
L 73.1875 17.1875 
L 10.59375 17.1875 
z
" id="DejaVuSans-61"/>
     <path d="M 31.78125 66.40625 
Q 24.171875 66.40625 20.328125 58.90625 
Q 16.5 51.421875 16.5 36.375 
Q 16.5 21.390625 20.328125 13.890625 
Q 24.171875 6.390625 31.78125 6.390625 
Q 39.453125 6.390625 43.28125 13.890625 
Q 47.125 21.390625 47.125 36.375 
Q 47.125 51.421875 43.28125 58.90625 
Q 39.453125 66.40625 31.78125 66.40625 
z
M 31.78125 74.21875 
Q 44.046875 74.21875 50.515625 64.515625 
Q 56.984375 54.828125 56.984375 36.375 
Q 56.984375 17.96875 50.515625 8.265625 
Q 44.046875 -1.421875 31.78125 -1.421875 
Q 19.53125 -1.421875 13.0625 8.265625 
Q 6.59375 17.96875 6.59375 36.375 
Q 6.59375 54.828125 13.0625 64.515625 
Q 19.53125 74.21875 31.78125 74.21875 
z
" id="DejaVuSans-48"/>
     <path d="M 10.6875 12.40625 
L 21 12.40625 
L 21 0 
L 10.6875 0 
z
" id="DejaVuSans-46"/>
    </defs>
    <g transform="translate(200.664375 28.56)scale(0.12 -0.12)">
     <use xlink:href="#DejaVuSans-116"/>
     <use x="39.208984" xlink:href="#DejaVuSans-32"/>
     <use x="70.996094" xlink:href="#DejaVuSans-61"/>
     <use x="154.785156" xlink:href="#DejaVuSans-32"/>
     <use x="186.572266" xlink:href="#DejaVuSans-48"/>
     <use x="250.195312" xlink:href="#DejaVuSans-46"/>
     <use x="281.982422" xlink:href="#DejaVuSans-48"/>
    </g>
   </g>
  </g>
 </g>
 <defs>
  <clipPath id="pf1eb4ab713">
   <rect height="217.44" width="334.8" x="54" y="34.56"/>
  </clipPath>
 </defs>
</svg>
