<?xml version="1.0" encoding="utf-8" standalone="no"?>
<!DOCTYPE svg PUBLIC "-//W3C//DTD SVG 1.1//EN"
  "http://www.w3.org/Graphics/SVG/1.1/DTD/svg11.dtd">
<!-- Created with matplotlib (https://matplotlib.org/) -->
<svg height="288pt" version="1.1" viewBox="0 0 432 288" width="432pt" xmlns="http://www.w3.org/2000/svg" xmlns:xlink="http://www.w3.org/1999/xlink">
 <defs>
  <style type="text/css">
*{stroke-linecap:butt;stroke-linejoin:round;}
  </style>
 </defs>
 <g id="figure_1">
  <g id="patch_1">
   <path d="M 0 288 
L 432 288 
L 432 0 
L 0 0 
z
" style="fill:#ffffff;"/>
  </g>
  <g id="axes_1">
   <g id="patch_2">
    <path clip-path="url(#p0ad96eae6f)" d="M 199.76443 129.894206 
L 199.319661 140.757104 
L 198.233371 140.712627 
L 198.67814 129.849729 
z
" style="stroke:#000000;stroke-linejoin:miter;"/>
   </g>
   <g id="patch_3">
    <path clip-path="url(#p0ad96eae6f)" d="M 254.078922 132.118047 
L 253.634154 142.980946 
L 252.547864 142.936469 
L 252.992633 132.07357 
z
" style="stroke:#000000;stroke-linejoin:miter;"/>
   </g>
   <g id="patch_4">
    <path clip-path="url(#p0ad96eae6f)" d="M 217.326116 130.613248 
L 217.200039 130.056077 
L 216.777646 129.522881 
L 216.064839 129.047647 
L 215.072431 128.659993 
L 213.81602 128.383257 
L 212.315786 128.233002 
L 210.596186 128.216039 
L 208.685561 128.330034 
L 206.615669 128.563712 
L 204.421136 128.897664 
L 202.138844 129.305678 
L 199.807272 129.756529 
L 197.4658 130.216094 
L 195.153985 130.649664 
L 192.910846 131.024283 
L 190.77415 131.310986 
L 188.779729 131.486766 
L 186.960848 131.536144 
L 185.347621 131.452253 
L 183.966501 131.237343 
L 182.839849 130.902688 
L 181.985587 130.467893 
L 181.416941 129.959654 
L 181.142277 129.410033 
L 181.165027 128.854386 
L 181.483703 128.329059 
L 182.091995 127.869008 
L 182.978942 127.505505 
L 184.129182 127.264074 
L 185.523248 127.162791 
L 187.137933 127.211063 
L 188.946689 127.408971 
L 190.920064 127.747207 
L 193.026171 128.207627 
L 195.231176 128.76437 
L 197.499808 129.38548 
L 199.795874 130.034924 
L 202.082784 130.674873 
L 204.324081 131.2681 
L 206.483968 131.780338 
L 208.527828 132.182449 
L 210.422739 132.452257 
L 212.13797 132.575929 
L 213.645466 132.548822 
L 214.920294 132.375724 
L 215.941072 132.070498 
L 216.690344 131.655127 
L 217.154912 131.158247 
z
" style="fill:#0000ff;stroke:#000000;stroke-linejoin:miter;"/>
   </g>
   <g id="patch_5">
    <path clip-path="url(#p0ad96eae6f)" d="M 271.640608 132.837089 
L 271.514532 132.279918 
L 271.092139 131.746722 
L 270.379332 131.271488 
L 269.386923 130.883834 
L 268.130513 130.607099 
L 266.630279 130.456843 
L 264.910678 130.439881 
L 263.000054 130.553875 
L 260.930162 130.787554 
L 258.735629 131.121505 
L 256.453337 131.529519 
L 254.121765 131.98037 
L 251.780293 132.439936 
L 249.468478 132.873505 
L 247.225339 133.248124 
L 245.088643 133.534828 
L 243.094222 133.710607 
L 241.275341 133.759986 
L 239.662114 133.676095 
L 238.280994 133.461185 
L 237.154342 133.126529 
L 236.30008 132.691735 
L 235.731434 132.183495 
L 235.45677 131.633874 
L 235.47952 131.078228 
L 235.798196 130.5529 
L 236.406488 130.092849 
L 237.293435 129.729347 
L 238.443674 129.487916 
L 239.837741 129.386632 
L 241.452426 129.434905 
L 243.261182 129.632812 
L 245.234557 129.971048 
L 247.340664 130.431468 
L 249.545669 130.988211 
L 251.814301 131.609321 
L 254.110367 132.258765 
L 256.397277 132.898715 
L 258.638574 133.491941 
L 260.798461 134.00418 
L 262.842321 134.406291 
L 264.737232 134.676098 
L 266.452463 134.79977 
L 267.959959 134.772663 
L 269.234787 134.599566 
L 270.255565 134.29434 
L 271.004836 133.878968 
L 271.469405 133.382088 
z
" style="fill:#0000ff;stroke:#000000;stroke-linejoin:miter;"/>
   </g>
   <g id="patch_6">
    <path clip-path="url(#p0ad96eae6f)" d="M 258.633651 140.465367 
L 193.456259 137.796757 
L 193.233875 143.228206 
L 258.411266 145.896816 
z
" style="fill:#999999;stroke:#000000;stroke-linejoin:miter;"/>
   </g>
   <g id="text_1">
    <!-- t = 1.1 -->
    <defs>
     <path d="M 18.3125 70.21875 
L 18.3125 54.6875 
L 36.8125 54.6875 
L 36.8125 47.703125 
L 18.3125 47.703125 
L 18.3125 18.015625 
Q 18.3125 11.328125 20.140625 9.421875 
Q 21.96875 7.515625 27.59375 7.515625 
L 36.8125 7.515625 
L 36.8125 0 
L 27.59375 0 
Q 17.1875 0 13.234375 3.875 
Q 9.28125 7.765625 9.28125 18.015625 
L 9.28125 47.703125 
L 2.6875 47.703125 
L 2.6875 54.6875 
L 9.28125 54.6875 
L 9.28125 70.21875 
z
" id="DejaVuSans-116"/>
     <path id="DejaVuSans-32"/>
     <path d="M 10.59375 45.40625 
L 73.1875 45.40625 
L 73.1875 37.203125 
L 10.59375 37.203125 
z
M 10.59375 25.484375 
L 73.1875 25.484375 
L 73.1875 17.1875 
L 10.59375 17.1875 
z
" id="DejaVuSans-61"/>
     <path d="M 12.40625 8.296875 
L 28.515625 8.296875 
L 28.515625 63.921875 
L 10.984375 60.40625 
L 10.984375 69.390625 
L 28.421875 72.90625 
L 38.28125 72.90625 
L 38.28125 8.296875 
L 54.390625 8.296875 
L 54.390625 0 
L 12.40625 0 
z
" id="DejaVuSans-49"/>
     <path d="M 10.6875 12.40625 
L 21 12.40625 
L 21 0 
L 10.6875 0 
z
" id="DejaVuSans-46"/>
    </defs>
    <g transform="translate(200.664375 28.56)scale(0.12 -0.12)">
     <use xlink:href="#DejaVuSans-116"/>
     <use x="39.208984" xlink:href="#DejaVuSans-32"/>
     <use x="70.996094" xlink:href="#DejaVuSans-61"/>
     <use x="154.785156" xlink:href="#DejaVuSans-32"/>
     <use x="186.572266" xlink:href="#DejaVuSans-49"/>
     <use x="250.195312" xlink:href="#DejaVuSans-46"/>
     <use x="281.982422" xlink:href="#DejaVuSans-49"/>
    </g>
   </g>
  </g>
 </g>
 <defs>
  <clipPath id="p0ad96eae6f">
   <rect height="217.44" width="334.8" x="54" y="34.56"/>
  </clipPath>
 </defs>
</svg>
