<?xml version="1.0" encoding="utf-8" standalone="no"?>
<!DOCTYPE svg PUBLIC "-//W3C//DTD SVG 1.1//EN"
  "http://www.w3.org/Graphics/SVG/1.1/DTD/svg11.dtd">
<!-- Created with matplotlib (https://matplotlib.org/) -->
<svg height="288pt" version="1.1" viewBox="0 0 432 288" width="432pt" xmlns="http://www.w3.org/2000/svg" xmlns:xlink="http://www.w3.org/1999/xlink">
 <defs>
  <style type="text/css">
*{stroke-linecap:butt;stroke-linejoin:round;}
  </style>
 </defs>
 <g id="figure_1">
  <g id="patch_1">
   <path d="M 0 288 
L 432 288 
L 432 0 
L 0 0 
z
" style="fill:#ffffff;"/>
  </g>
  <g id="axes_1">
   <g id="patch_2">
    <path clip-path="url(#p73358a82dd)" d="M 209.441325 110.189075 
L 207.55353 120.895924 
L 206.482845 120.707145 
L 208.37064 110.000296 
z
" style="stroke:#000000;stroke-linejoin:miter;"/>
   </g>
   <g id="patch_3">
    <path clip-path="url(#p73358a82dd)" d="M 262.97557 119.628047 
L 261.087775 130.334896 
L 260.01709 130.146117 
L 261.904885 119.439268 
z
" style="stroke:#000000;stroke-linejoin:miter;"/>
   </g>
   <g id="patch_4">
    <path clip-path="url(#p73358a82dd)" d="M 226.750731 113.241009 
L 226.699995 112.67201 
L 226.35239 112.087301 
L 225.70924 111.521352 
L 224.777312 111.004959 
L 223.56896 110.56333 
L 222.102111 110.214576 
L 220.400094 109.968705 
L 218.491311 109.827179 
L 216.408738 109.783056 
L 214.189277 109.821709 
L 211.872974 109.922075 
L 209.502125 110.058332 
L 207.120302 110.201907 
L 204.771335 110.323668 
L 202.498285 110.396152 
L 200.34244 110.395682 
L 198.342377 110.304229 
L 196.533128 110.110884 
L 194.945451 109.812851 
L 193.605266 109.415884 
L 192.533232 108.934135 
L 191.744499 108.389424 
L 191.248621 107.809967 
L 191.049617 107.228658 
L 191.146179 106.680993 
L 191.531991 106.202797 
L 192.196143 105.827872 
L 193.123607 105.585755 
L 194.295756 105.499693 
L 195.69089 105.585008 
L 197.284756 105.847934 
L 199.051031 106.285013 
L 200.961766 106.883098 
L 202.987774 107.619958 
L 205.098969 108.465457 
L 207.264649 109.383224 
L 209.453744 110.332728 
L 211.63503 111.271601 
L 213.777334 112.158093 
L 215.849741 112.953474 
L 217.821824 113.624253 
L 219.663908 114.144067 
L 221.347381 114.495115 
L 222.845053 114.669055 
L 224.131579 114.667313 
L 225.183917 114.500779 
L 225.981841 114.188916 
L 226.508456 113.758346 
z
" style="fill:#0000ff;stroke:#000000;stroke-linejoin:miter;"/>
   </g>
   <g id="patch_5">
    <path clip-path="url(#p73358a82dd)" d="M 280.284976 122.679982 
L 280.23424 122.110982 
L 279.886636 121.526273 
L 279.243485 120.960325 
L 278.311557 120.443932 
L 277.103205 120.002302 
L 275.636356 119.653548 
L 273.934339 119.407677 
L 272.025556 119.266152 
L 269.942983 119.222028 
L 267.723522 119.260682 
L 265.407219 119.361047 
L 263.03637 119.497304 
L 260.654547 119.640879 
L 258.305581 119.76264 
L 256.03253 119.835124 
L 253.876685 119.834654 
L 251.876622 119.743201 
L 250.067373 119.549856 
L 248.479697 119.251823 
L 247.139511 118.854856 
L 246.067477 118.373108 
L 245.278744 117.828396 
L 244.782866 117.24894 
L 244.583862 116.66763 
L 244.680424 116.119966 
L 245.066237 115.641769 
L 245.730388 115.266845 
L 246.657852 115.024727 
L 247.830001 114.938665 
L 249.225135 115.023981 
L 250.819001 115.286906 
L 252.585277 115.723985 
L 254.496011 116.32207 
L 256.522019 117.05893 
L 258.633214 117.904429 
L 260.798894 118.822197 
L 262.987989 119.7717 
L 265.169275 120.710574 
L 267.311579 121.597066 
L 269.383986 122.392446 
L 271.356069 123.063226 
L 273.198153 123.58304 
L 274.881626 123.934087 
L 276.379298 124.108027 
L 277.665824 124.106286 
L 278.718163 123.939752 
L 279.516086 123.627888 
L 280.042701 123.197319 
z
" style="fill:#0000ff;stroke:#000000;stroke-linejoin:miter;"/>
   </g>
   <g id="patch_6">
    <path clip-path="url(#p73358a82dd)" d="M 266.377806 128.507692 
L 202.136712 117.180925 
L 201.192815 122.534349 
L 265.433909 133.861116 
z
" style="fill:#999999;stroke:#000000;stroke-linejoin:miter;"/>
   </g>
   <g id="text_1">
    <!-- t = 0.5 -->
    <defs>
     <path d="M 18.3125 70.21875 
L 18.3125 54.6875 
L 36.8125 54.6875 
L 36.8125 47.703125 
L 18.3125 47.703125 
L 18.3125 18.015625 
Q 18.3125 11.328125 20.140625 9.421875 
Q 21.96875 7.515625 27.59375 7.515625 
L 36.8125 7.515625 
L 36.8125 0 
L 27.59375 0 
Q 17.1875 0 13.234375 3.875 
Q 9.28125 7.765625 9.28125 18.015625 
L 9.28125 47.703125 
L 2.6875 47.703125 
L 2.6875 54.6875 
L 9.28125 54.6875 
L 9.28125 70.21875 
z
" id="DejaVuSans-116"/>
     <path id="DejaVuSans-32"/>
     <path d="M 10.59375 45.40625 
L 73.1875 45.40625 
L 73.1875 37.203125 
L 10.59375 37.203125 
z
M 10.59375 25.484375 
L 73.1875 25.484375 
L 73.1875 17.1875 
L 10.59375 17.1875 
z
" id="DejaVuSans-61"/>
     <path d="M 31.78125 66.40625 
Q 24.171875 66.40625 20.328125 58.90625 
Q 16.5 51.421875 16.5 36.375 
Q 16.5 21.390625 20.328125 13.890625 
Q 24.171875 6.390625 31.78125 6.390625 
Q 39.453125 6.390625 43.28125 13.890625 
Q 47.125 21.390625 47.125 36.375 
Q 47.125 51.421875 43.28125 58.90625 
Q 39.453125 66.40625 31.78125 66.40625 
z
M 31.78125 74.21875 
Q 44.046875 74.21875 50.515625 64.515625 
Q 56.984375 54.828125 56.984375 36.375 
Q 56.984375 17.96875 50.515625 8.265625 
Q 44.046875 -1.421875 31.78125 -1.421875 
Q 19.53125 -1.421875 13.0625 8.265625 
Q 6.59375 17.96875 6.59375 36.375 
Q 6.59375 54.828125 13.0625 64.515625 
Q 19.53125 74.21875 31.78125 74.21875 
z
" id="DejaVuSans-48"/>
     <path d="M 10.6875 12.40625 
L 21 12.40625 
L 21 0 
L 10.6875 0 
z
" id="DejaVuSans-46"/>
     <path d="M 10.796875 72.90625 
L 49.515625 72.90625 
L 49.515625 64.59375 
L 19.828125 64.59375 
L 19.828125 46.734375 
Q 21.96875 47.46875 24.109375 47.828125 
Q 26.265625 48.1875 28.421875 48.1875 
Q 40.625 48.1875 47.75 41.5 
Q 54.890625 34.8125 54.890625 23.390625 
Q 54.890625 11.625 47.5625 5.09375 
Q 40.234375 -1.421875 26.90625 -1.421875 
Q 22.3125 -1.421875 17.546875 -0.640625 
Q 12.796875 0.140625 7.71875 1.703125 
L 7.71875 11.625 
Q 12.109375 9.234375 16.796875 8.0625 
Q 21.484375 6.890625 26.703125 6.890625 
Q 35.15625 6.890625 40.078125 11.328125 
Q 45.015625 15.765625 45.015625 23.390625 
Q 45.015625 31 40.078125 35.4375 
Q 35.15625 39.890625 26.703125 39.890625 
Q 22.75 39.890625 18.8125 39.015625 
Q 14.890625 38.140625 10.796875 36.28125 
z
" id="DejaVuSans-53"/>
    </defs>
    <g transform="translate(200.664375 28.56)scale(0.12 -0.12)">
     <use xlink:href="#DejaVuSans-116"/>
     <use x="39.208984" xlink:href="#DejaVuSans-32"/>
     <use x="70.996094" xlink:href="#DejaVuSans-61"/>
     <use x="154.785156" xlink:href="#DejaVuSans-32"/>
     <use x="186.572266" xlink:href="#DejaVuSans-48"/>
     <use x="250.195312" xlink:href="#DejaVuSans-46"/>
     <use x="281.982422" xlink:href="#DejaVuSans-53"/>
    </g>
   </g>
  </g>
 </g>
 <defs>
  <clipPath id="p73358a82dd">
   <rect height="217.44" width="334.8" x="54" y="34.56"/>
  </clipPath>
 </defs>
</svg>
