<?xml version="1.0" encoding="utf-8" standalone="no"?>
<!DOCTYPE svg PUBLIC "-//W3C//DTD SVG 1.1//EN"
  "http://www.w3.org/Graphics/SVG/1.1/DTD/svg11.dtd">
<!-- Created with matplotlib (https://matplotlib.org/) -->
<svg height="288pt" version="1.1" viewBox="0 0 432 288" width="432pt" xmlns="http://www.w3.org/2000/svg" xmlns:xlink="http://www.w3.org/1999/xlink">
 <defs>
  <style type="text/css">
*{stroke-linecap:butt;stroke-linejoin:round;}
  </style>
 </defs>
 <g id="figure_1">
  <g id="patch_1">
   <path d="M 0 288 
L 432 288 
L 432 0 
L 0 0 
z
" style="fill:#ffffff;"/>
  </g>
  <g id="axes_1">
   <g id="patch_2">
    <path clip-path="url(#pd0adc3b4fa)" d="M 314.865657 108.804628 
L 306.600181 101.741888 
L 307.306455 100.915341 
L 315.571931 107.97808 
z
" style="stroke:#000000;stroke-linejoin:miter;"/>
   </g>
   <g id="patch_3">
    <path clip-path="url(#pd0adc3b4fa)" d="M 279.55196 150.132008 
L 271.286484 143.069269 
L 271.992758 142.242721 
L 280.258234 149.30546 
z
" style="stroke:#000000;stroke-linejoin:miter;"/>
   </g>
   <g id="patch_4">
    <path clip-path="url(#pd0adc3b4fa)" d="M 303.447562 122.167147 
L 303.963518 122.412347 
L 304.643744 122.40977 
L 305.457871 122.143053 
L 306.375932 121.60239 
L 307.369937 120.785627 
L 308.415183 119.699008 
L 309.491199 118.357553 
L 310.582308 116.784987 
L 311.677745 115.013244 
L 312.771375 113.081541 
L 313.861011 111.035074 
L 314.947422 108.923392 
L 316.0331 106.79854 
L 317.120889 104.71307 
L 318.212583 102.718022 
L 319.307617 100.860989 
L 320.401935 99.184361 
L 321.487148 97.723855 
L 322.550046 96.50739 
L 323.572513 95.554373 
L 324.531866 94.875418 
L 325.401616 94.472498 
L 326.152603 94.339515 
L 326.754448 94.463232 
L 327.177234 94.824497 
L 327.393307 95.39968 
L 327.379084 96.162218 
L 327.11675 97.084167 
L 326.595735 98.137677 
L 325.813857 99.296273 
L 324.778061 100.535896 
L 323.50469 101.835624 
L 322.019263 103.178054 
L 320.35575 104.54933 
L 318.555391 105.938833 
L 316.665107 107.338581 
L 314.735593 108.742387 
L 312.819203 110.144864 
L 310.967733 111.540353 
L 309.230245 112.921887 
L 307.651042 114.280259 
L 306.267902 115.603288 
L 305.110691 116.875364 
L 304.200399 118.077298 
L 303.548667 119.18653 
L 303.157812 120.177683 
L 303.021339 121.023446 
L 303.124888 121.695749 
z
" style="fill:#0000ff;stroke:#000000;stroke-linejoin:miter;"/>
   </g>
   <g id="patch_5">
    <path clip-path="url(#pd0adc3b4fa)" d="M 268.133864 163.494528 
L 268.649821 163.739728 
L 269.330047 163.737151 
L 270.144174 163.470433 
L 271.062234 162.929771 
L 272.05624 162.113007 
L 273.101485 161.026389 
L 274.177502 159.684933 
L 275.26861 158.112367 
L 276.364048 156.340624 
L 277.457678 154.408922 
L 278.547313 152.362455 
L 279.633724 150.250772 
L 280.719403 148.12592 
L 281.807191 146.04045 
L 282.898886 144.045403 
L 283.99392 142.18837 
L 285.088237 140.511742 
L 286.17345 139.051235 
L 287.236349 137.83477 
L 288.258816 136.881754 
L 289.218169 136.202799 
L 290.087919 135.799879 
L 290.838906 135.666895 
L 291.440751 135.790612 
L 291.863537 136.151877 
L 292.07961 136.727061 
L 292.065386 137.489598 
L 291.803053 138.411548 
L 291.282038 139.465057 
L 290.50016 140.623654 
L 289.464363 141.863277 
L 288.190993 143.163005 
L 286.705565 144.505435 
L 285.042052 145.87671 
L 283.241694 147.266213 
L 281.35141 148.665962 
L 279.421896 150.069768 
L 277.505505 151.472244 
L 275.654035 152.867733 
L 273.916548 154.249268 
L 272.337344 155.607639 
L 270.954205 156.930669 
L 269.796994 158.202744 
L 268.886701 159.404679 
L 268.234969 160.513911 
L 267.844115 161.505063 
L 267.707641 162.350827 
L 267.811191 163.023129 
z
" style="fill:#0000ff;stroke:#000000;stroke-linejoin:miter;"/>
   </g>
   <g id="patch_6">
    <path clip-path="url(#pd0adc3b4fa)" d="M 270.17462 148.554418 
L 312.551057 98.961561 
L 308.418319 95.430191 
L 266.041882 145.023048 
z
" style="fill:#999999;stroke:#000000;stroke-linejoin:miter;"/>
   </g>
   <g id="text_1">
    <!-- t = 0.0 -->
    <defs>
     <path d="M 18.3125 70.21875 
L 18.3125 54.6875 
L 36.8125 54.6875 
L 36.8125 47.703125 
L 18.3125 47.703125 
L 18.3125 18.015625 
Q 18.3125 11.328125 20.140625 9.421875 
Q 21.96875 7.515625 27.59375 7.515625 
L 36.8125 7.515625 
L 36.8125 0 
L 27.59375 0 
Q 17.1875 0 13.234375 3.875 
Q 9.28125 7.765625 9.28125 18.015625 
L 9.28125 47.703125 
L 2.6875 47.703125 
L 2.6875 54.6875 
L 9.28125 54.6875 
L 9.28125 70.21875 
z
" id="DejaVuSans-116"/>
     <path id="DejaVuSans-32"/>
     <path d="M 10.59375 45.40625 
L 73.1875 45.40625 
L 73.1875 37.203125 
L 10.59375 37.203125 
z
M 10.59375 25.484375 
L 73.1875 25.484375 
L 73.1875 17.1875 
L 10.59375 17.1875 
z
" id="DejaVuSans-61"/>
     <path d="M 31.78125 66.40625 
Q 24.171875 66.40625 20.328125 58.90625 
Q 16.5 51.421875 16.5 36.375 
Q 16.5 21.390625 20.328125 13.890625 
Q 24.171875 6.390625 31.78125 6.390625 
Q 39.453125 6.390625 43.28125 13.890625 
Q 47.125 21.390625 47.125 36.375 
Q 47.125 51.421875 43.28125 58.90625 
Q 39.453125 66.40625 31.78125 66.40625 
z
M 31.78125 74.21875 
Q 44.046875 74.21875 50.515625 64.515625 
Q 56.984375 54.828125 56.984375 36.375 
Q 56.984375 17.96875 50.515625 8.265625 
Q 44.046875 -1.421875 31.78125 -1.421875 
Q 19.53125 -1.421875 13.0625 8.265625 
Q 6.59375 17.96875 6.59375 36.375 
Q 6.59375 54.828125 13.0625 64.515625 
Q 19.53125 74.21875 31.78125 74.21875 
z
" id="DejaVuSans-48"/>
     <path d="M 10.6875 12.40625 
L 21 12.40625 
L 21 0 
L 10.6875 0 
z
" id="DejaVuSans-46"/>
    </defs>
    <g transform="translate(200.664375 28.56)scale(0.12 -0.12)">
     <use xlink:href="#DejaVuSans-116"/>
     <use x="39.208984" xlink:href="#DejaVuSans-32"/>
     <use x="70.996094" xlink:href="#DejaVuSans-61"/>
     <use x="154.785156" xlink:href="#DejaVuSans-32"/>
     <use x="186.572266" xlink:href="#DejaVuSans-48"/>
     <use x="250.195312" xlink:href="#DejaVuSans-46"/>
     <use x="281.982422" xlink:href="#DejaVuSans-48"/>
    </g>
   </g>
  </g>
 </g>
 <defs>
  <clipPath id="pd0adc3b4fa">
   <rect height="217.44" width="334.8" x="54" y="34.56"/>
  </clipPath>
 </defs>
</svg>
