<?xml version="1.0" encoding="utf-8" standalone="no"?>
<!DOCTYPE svg PUBLIC "-//W3C//DTD SVG 1.1//EN"
  "http://www.w3.org/Graphics/SVG/1.1/DTD/svg11.dtd">
<!-- Created with matplotlib (https://matplotlib.org/) -->
<svg height="288pt" version="1.1" viewBox="0 0 432 288" width="432pt" xmlns="http://www.w3.org/2000/svg" xmlns:xlink="http://www.w3.org/1999/xlink">
 <defs>
  <style type="text/css">
*{stroke-linecap:butt;stroke-linejoin:round;}
  </style>
 </defs>
 <g id="figure_1">
  <g id="patch_1">
   <path d="M 0 288 
L 432 288 
L 432 0 
L 0 0 
z
" style="fill:#ffffff;"/>
  </g>
  <g id="axes_1">
   <g id="patch_2">
    <path clip-path="url(#ped47c138f7)" d="M 194.618509 132.351251 
L 194.606228 143.223244 
L 193.519029 143.222016 
L 193.53131 132.350023 
z
" style="stroke:#000000;stroke-linejoin:miter;"/>
   </g>
   <g id="patch_3">
    <path clip-path="url(#ped47c138f7)" d="M 248.978475 132.412656 
L 248.966193 143.284649 
L 247.878994 143.283421 
L 247.891275 132.411428 
z
" style="stroke:#000000;stroke-linejoin:miter;"/>
   </g>
   <g id="patch_4">
    <path clip-path="url(#ped47c138f7)" d="M 212.194898 132.371105 
L 212.046756 131.819391 
L 211.603487 131.30342 
L 210.872339 130.856918 
L 209.865295 130.50905 
L 208.59887 130.282514 
L 207.093846 130.192059 
L 205.374932 130.243517 
L 203.470355 130.433427 
L 201.411397 130.749262 
L 199.231886 131.17025 
L 196.967632 131.668733 
L 194.655841 132.211978 
L 192.334504 132.764326 
L 190.041767 133.289518 
L 187.815307 133.753074 
L 185.691707 134.124551 
L 183.705857 134.379531 
L 181.89038 134.501227 
L 180.275093 134.481578 
L 178.886517 134.32178 
L 177.747444 134.032208 
L 176.876561 133.631742 
L 176.288147 133.146526 
L 175.991836 132.608266 
L 175.992465 132.052154 
L 176.289991 131.514565 
L 176.879499 131.03068 
L 177.751284 130.632182 
L 178.891009 130.345185 
L 180.279942 130.188524 
L 181.89527 130.172525 
L 183.710467 130.298322 
L 185.695736 130.557788 
L 187.818491 130.934061 
L 190.043899 131.402646 
L 192.335443 131.933016 
L 194.655526 132.490607 
L 196.966084 133.039074 
L 199.229206 133.542671 
L 201.407761 133.968581 
L 203.465999 134.289068 
L 205.370143 134.48328 
L 207.088937 134.538622 
L 208.59416 134.451566 
L 209.861094 134.227892 
L 210.868922 133.8823 
L 211.601076 133.437451 
L 212.04551 132.922483 
z
" style="fill:#0000ff;stroke:#000000;stroke-linejoin:miter;"/>
   </g>
   <g id="patch_5">
    <path clip-path="url(#ped47c138f7)" d="M 266.554863 132.432511 
L 266.406721 131.880797 
L 265.963452 131.364826 
L 265.232305 130.918324 
L 264.22526 130.570456 
L 262.958835 130.34392 
L 261.453812 130.253464 
L 259.734898 130.304922 
L 257.83032 130.494833 
L 255.771363 130.810668 
L 253.591851 131.231656 
L 251.327597 131.730138 
L 249.015806 132.273384 
L 246.694469 132.825732 
L 244.401732 133.350924 
L 242.175272 133.81448 
L 240.051672 134.185956 
L 238.065823 134.440936 
L 236.250346 134.562632 
L 234.635058 134.542983 
L 233.246482 134.383185 
L 232.107409 134.093614 
L 231.236527 133.693147 
L 230.648113 133.207931 
L 230.351802 132.669672 
L 230.35243 132.11356 
L 230.649956 131.575971 
L 231.239465 131.092086 
L 232.11125 130.693587 
L 233.250974 130.40659 
L 234.639908 130.24993 
L 236.255235 130.23393 
L 238.070433 130.359727 
L 240.055701 130.619193 
L 242.178456 130.995466 
L 244.403864 131.464051 
L 246.695408 131.994422 
L 249.015492 132.552012 
L 251.326049 133.10048 
L 253.589171 133.604076 
L 255.767726 134.029987 
L 257.825965 134.350473 
L 259.730108 134.544686 
L 261.448902 134.600027 
L 262.954126 134.512972 
L 264.221059 134.289298 
L 265.228887 133.943706 
L 265.961041 133.498857 
L 266.405475 132.983889 
z
" style="fill:#0000ff;stroke:#000000;stroke-linejoin:miter;"/>
   </g>
   <g id="patch_6">
    <path clip-path="url(#ped47c138f7)" d="M 253.861661 140.572178 
L 188.629702 140.498491 
L 188.623562 145.934487 
L 253.85552 146.008174 
z
" style="fill:#999999;stroke:#000000;stroke-linejoin:miter;"/>
   </g>
   <g id="text_1">
    <!-- t = 2.2 -->
    <defs>
     <path d="M 18.3125 70.21875 
L 18.3125 54.6875 
L 36.8125 54.6875 
L 36.8125 47.703125 
L 18.3125 47.703125 
L 18.3125 18.015625 
Q 18.3125 11.328125 20.140625 9.421875 
Q 21.96875 7.515625 27.59375 7.515625 
L 36.8125 7.515625 
L 36.8125 0 
L 27.59375 0 
Q 17.1875 0 13.234375 3.875 
Q 9.28125 7.765625 9.28125 18.015625 
L 9.28125 47.703125 
L 2.6875 47.703125 
L 2.6875 54.6875 
L 9.28125 54.6875 
L 9.28125 70.21875 
z
" id="DejaVuSans-116"/>
     <path id="DejaVuSans-32"/>
     <path d="M 10.59375 45.40625 
L 73.1875 45.40625 
L 73.1875 37.203125 
L 10.59375 37.203125 
z
M 10.59375 25.484375 
L 73.1875 25.484375 
L 73.1875 17.1875 
L 10.59375 17.1875 
z
" id="DejaVuSans-61"/>
     <path d="M 19.1875 8.296875 
L 53.609375 8.296875 
L 53.609375 0 
L 7.328125 0 
L 7.328125 8.296875 
Q 12.9375 14.109375 22.625 23.890625 
Q 32.328125 33.6875 34.8125 36.53125 
Q 39.546875 41.84375 41.421875 45.53125 
Q 43.3125 49.21875 43.3125 52.78125 
Q 43.3125 58.59375 39.234375 62.25 
Q 35.15625 65.921875 28.609375 65.921875 
Q 23.96875 65.921875 18.8125 64.3125 
Q 13.671875 62.703125 7.8125 59.421875 
L 7.8125 69.390625 
Q 13.765625 71.78125 18.9375 73 
Q 24.125 74.21875 28.421875 74.21875 
Q 39.75 74.21875 46.484375 68.546875 
Q 53.21875 62.890625 53.21875 53.421875 
Q 53.21875 48.921875 51.53125 44.890625 
Q 49.859375 40.875 45.40625 35.40625 
Q 44.1875 33.984375 37.640625 27.21875 
Q 31.109375 20.453125 19.1875 8.296875 
z
" id="DejaVuSans-50"/>
     <path d="M 10.6875 12.40625 
L 21 12.40625 
L 21 0 
L 10.6875 0 
z
" id="DejaVuSans-46"/>
    </defs>
    <g transform="translate(200.664375 28.56)scale(0.12 -0.12)">
     <use xlink:href="#DejaVuSans-116"/>
     <use x="39.208984" xlink:href="#DejaVuSans-32"/>
     <use x="70.996094" xlink:href="#DejaVuSans-61"/>
     <use x="154.785156" xlink:href="#DejaVuSans-32"/>
     <use x="186.572266" xlink:href="#DejaVuSans-50"/>
     <use x="250.195312" xlink:href="#DejaVuSans-46"/>
     <use x="281.982422" xlink:href="#DejaVuSans-50"/>
    </g>
   </g>
  </g>
 </g>
 <defs>
  <clipPath id="ped47c138f7">
   <rect height="217.44" width="334.8" x="54" y="34.56"/>
  </clipPath>
 </defs>
</svg>
