<?xml version="1.0" encoding="utf-8" standalone="no"?>
<!DOCTYPE svg PUBLIC "-//W3C//DTD SVG 1.1//EN"
  "http://www.w3.org/Graphics/SVG/1.1/DTD/svg11.dtd">
<!-- Created with matplotlib (https://matplotlib.org/) -->
<svg height="288pt" version="1.1" viewBox="0 0 432 288" width="432pt" xmlns="http://www.w3.org/2000/svg" xmlns:xlink="http://www.w3.org/1999/xlink">
 <defs>
  <style type="text/css">
*{stroke-linecap:butt;stroke-linejoin:round;}
  </style>
 </defs>
 <g id="figure_1">
  <g id="patch_1">
   <path d="M 0 288 
L 432 288 
L 432 0 
L 0 0 
z
" style="fill:#ffffff;"/>
  </g>
  <g id="axes_1">
   <g id="patch_2">
    <path clip-path="url(#p89fb461946)" d="M 194.98806 132.419621 
L 194.979709 143.291618 
L 193.892509 143.290783 
L 193.90086 132.418786 
z
" style="stroke:#000000;stroke-linejoin:miter;"/>
   </g>
   <g id="patch_3">
    <path clip-path="url(#p89fb461946)" d="M 249.348044 132.461375 
L 249.339693 143.333372 
L 248.252493 143.332537 
L 248.260844 132.46054 
z
" style="stroke:#000000;stroke-linejoin:miter;"/>
   </g>
   <g id="patch_4">
    <path clip-path="url(#p89fb461946)" d="M 212.564454 132.433122 
L 212.416113 131.881461 
L 211.972657 131.365651 
L 211.241348 130.919413 
L 210.234178 130.571909 
L 208.967671 130.345831 
L 207.462615 130.25592 
L 205.74372 130.307999 
L 203.839211 130.498598 
L 201.780368 130.815178 
L 199.601009 131.236953 
L 197.336935 131.736254 
L 195.025341 132.280336 
L 192.704204 132.833523 
L 190.411657 133.359543 
L 188.185364 133.823905 
L 186.061899 134.196148 
L 184.076142 134.451846 
L 182.260709 134.574199 
L 180.645414 134.555134 
L 179.256781 134.395838 
L 178.117603 134.106678 
L 177.246576 133.706526 
L 176.657986 133.221523 
L 176.361481 132.683371 
L 176.361908 132.127258 
L 176.65924 131.589562 
L 177.248574 131.105464 
L 178.120215 130.70665 
L 179.259835 130.419241 
L 180.648712 130.262079 
L 182.264034 130.245495 
L 184.079276 130.370636 
L 186.064638 130.629384 
L 188.18753 131.00489 
L 190.413106 131.47267 
L 192.704842 132.002212 
L 195.025127 132.558964 
L 197.335883 133.106596 
L 199.599187 133.609375 
L 201.777895 134.034498 
L 203.83625 134.35424 
L 205.740463 134.547764 
L 207.459277 134.602484 
L 208.964469 134.514885 
L 210.231322 134.290753 
L 211.239025 133.944796 
L 211.971018 133.499683 
L 212.415266 132.984554 
z
" style="fill:#0000ff;stroke:#000000;stroke-linejoin:miter;"/>
   </g>
   <g id="patch_5">
    <path clip-path="url(#p89fb461946)" d="M 266.924438 132.474876 
L 266.776097 131.923215 
L 266.332641 131.407405 
L 265.601332 130.961167 
L 264.594162 130.613663 
L 263.327655 130.387585 
L 261.822599 130.297674 
L 260.103704 130.349753 
L 258.199195 130.540352 
L 256.140352 130.856932 
L 253.960993 131.278707 
L 251.696919 131.778008 
L 249.385325 132.32209 
L 247.064188 132.875277 
L 244.771641 133.401297 
L 242.545348 133.865658 
L 240.421883 134.237902 
L 238.436126 134.4936 
L 236.620693 134.615952 
L 235.005398 134.596887 
L 233.616765 134.437592 
L 232.477587 134.148432 
L 231.60656 133.74828 
L 231.01797 133.263277 
L 230.721465 132.725124 
L 230.721892 132.169012 
L 231.019224 131.631316 
L 231.608558 131.147218 
L 232.480198 130.748404 
L 233.619819 130.460995 
L 235.008696 130.303833 
L 236.624018 130.287249 
L 238.43926 130.41239 
L 240.424622 130.671138 
L 242.547513 131.046644 
L 244.77309 131.514424 
L 247.064826 132.043966 
L 249.385111 132.600718 
L 251.695867 133.14835 
L 253.959171 133.651129 
L 256.137879 134.076252 
L 258.196234 134.395994 
L 260.100447 134.589518 
L 261.819261 134.644238 
L 263.324453 134.556639 
L 264.591306 134.332507 
L 265.599009 133.98655 
L 266.331002 133.541437 
L 266.77525 133.026308 
z
" style="fill:#0000ff;stroke:#000000;stroke-linejoin:miter;"/>
   </g>
   <g id="patch_6">
    <path clip-path="url(#p89fb461946)" d="M 254.234179 140.619131 
L 189.002198 140.569026 
L 188.998023 146.005024 
L 254.230004 146.055129 
z
" style="fill:#999999;stroke:#000000;stroke-linejoin:miter;"/>
   </g>
   <g id="text_1">
    <!-- t = 2.3 -->
    <defs>
     <path d="M 18.3125 70.21875 
L 18.3125 54.6875 
L 36.8125 54.6875 
L 36.8125 47.703125 
L 18.3125 47.703125 
L 18.3125 18.015625 
Q 18.3125 11.328125 20.140625 9.421875 
Q 21.96875 7.515625 27.59375 7.515625 
L 36.8125 7.515625 
L 36.8125 0 
L 27.59375 0 
Q 17.1875 0 13.234375 3.875 
Q 9.28125 7.765625 9.28125 18.015625 
L 9.28125 47.703125 
L 2.6875 47.703125 
L 2.6875 54.6875 
L 9.28125 54.6875 
L 9.28125 70.21875 
z
" id="DejaVuSans-116"/>
     <path id="DejaVuSans-32"/>
     <path d="M 10.59375 45.40625 
L 73.1875 45.40625 
L 73.1875 37.203125 
L 10.59375 37.203125 
z
M 10.59375 25.484375 
L 73.1875 25.484375 
L 73.1875 17.1875 
L 10.59375 17.1875 
z
" id="DejaVuSans-61"/>
     <path d="M 19.1875 8.296875 
L 53.609375 8.296875 
L 53.609375 0 
L 7.328125 0 
L 7.328125 8.296875 
Q 12.9375 14.109375 22.625 23.890625 
Q 32.328125 33.6875 34.8125 36.53125 
Q 39.546875 41.84375 41.421875 45.53125 
Q 43.3125 49.21875 43.3125 52.78125 
Q 43.3125 58.59375 39.234375 62.25 
Q 35.15625 65.921875 28.609375 65.921875 
Q 23.96875 65.921875 18.8125 64.3125 
Q 13.671875 62.703125 7.8125 59.421875 
L 7.8125 69.390625 
Q 13.765625 71.78125 18.9375 73 
Q 24.125 74.21875 28.421875 74.21875 
Q 39.75 74.21875 46.484375 68.546875 
Q 53.21875 62.890625 53.21875 53.421875 
Q 53.21875 48.921875 51.53125 44.890625 
Q 49.859375 40.875 45.40625 35.40625 
Q 44.1875 33.984375 37.640625 27.21875 
Q 31.109375 20.453125 19.1875 8.296875 
z
" id="DejaVuSans-50"/>
     <path d="M 10.6875 12.40625 
L 21 12.40625 
L 21 0 
L 10.6875 0 
z
" id="DejaVuSans-46"/>
     <path d="M 40.578125 39.3125 
Q 47.65625 37.796875 51.625 33 
Q 55.609375 28.21875 55.609375 21.1875 
Q 55.609375 10.40625 48.1875 4.484375 
Q 40.765625 -1.421875 27.09375 -1.421875 
Q 22.515625 -1.421875 17.65625 -0.515625 
Q 12.796875 0.390625 7.625 2.203125 
L 7.625 11.71875 
Q 11.71875 9.328125 16.59375 8.109375 
Q 21.484375 6.890625 26.8125 6.890625 
Q 36.078125 6.890625 40.9375 10.546875 
Q 45.796875 14.203125 45.796875 21.1875 
Q 45.796875 27.640625 41.28125 31.265625 
Q 36.765625 34.90625 28.71875 34.90625 
L 20.21875 34.90625 
L 20.21875 43.015625 
L 29.109375 43.015625 
Q 36.375 43.015625 40.234375 45.921875 
Q 44.09375 48.828125 44.09375 54.296875 
Q 44.09375 59.90625 40.109375 62.90625 
Q 36.140625 65.921875 28.71875 65.921875 
Q 24.65625 65.921875 20.015625 65.03125 
Q 15.375 64.15625 9.8125 62.3125 
L 9.8125 71.09375 
Q 15.4375 72.65625 20.34375 73.4375 
Q 25.25 74.21875 29.59375 74.21875 
Q 40.828125 74.21875 47.359375 69.109375 
Q 53.90625 64.015625 53.90625 55.328125 
Q 53.90625 49.265625 50.4375 45.09375 
Q 46.96875 40.921875 40.578125 39.3125 
z
" id="DejaVuSans-51"/>
    </defs>
    <g transform="translate(200.664375 28.56)scale(0.12 -0.12)">
     <use xlink:href="#DejaVuSans-116"/>
     <use x="39.208984" xlink:href="#DejaVuSans-32"/>
     <use x="70.996094" xlink:href="#DejaVuSans-61"/>
     <use x="154.785156" xlink:href="#DejaVuSans-32"/>
     <use x="186.572266" xlink:href="#DejaVuSans-50"/>
     <use x="250.195312" xlink:href="#DejaVuSans-46"/>
     <use x="281.982422" xlink:href="#DejaVuSans-51"/>
    </g>
   </g>
  </g>
 </g>
 <defs>
  <clipPath id="p89fb461946">
   <rect height="217.44" width="334.8" x="54" y="34.56"/>
  </clipPath>
 </defs>
</svg>
