<?xml version="1.0" encoding="utf-8" standalone="no"?>
<!DOCTYPE svg PUBLIC "-//W3C//DTD SVG 1.1//EN"
  "http://www.w3.org/Graphics/SVG/1.1/DTD/svg11.dtd">
<!-- Created with matplotlib (https://matplotlib.org/) -->
<svg height="288pt" version="1.1" viewBox="0 0 432 288" width="432pt" xmlns="http://www.w3.org/2000/svg" xmlns:xlink="http://www.w3.org/1999/xlink">
 <defs>
  <style type="text/css">
*{stroke-linecap:butt;stroke-linejoin:round;}
  </style>
 </defs>
 <g id="figure_1">
  <g id="patch_1">
   <path d="M 0 288 
L 432 288 
L 432 0 
L 0 0 
z
" style="fill:#ffffff;"/>
  </g>
  <g id="axes_1">
   <g id="patch_2">
    <path clip-path="url(#pfb3037119e)" d="M 194.740036 132.406256 
L 194.738033 143.278256 
L 193.650833 143.278056 
L 193.652836 132.406056 
z
" style="stroke:#000000;stroke-linejoin:miter;"/>
   </g>
   <g id="patch_3">
    <path clip-path="url(#pfb3037119e)" d="M 249.100036 132.416274 
L 249.098032 143.288274 
L 248.010832 143.288074 
L 248.012836 132.416074 
z
" style="stroke:#000000;stroke-linejoin:miter;"/>
   </g>
   <g id="patch_4">
    <path clip-path="url(#pfb3037119e)" d="M 212.316436 132.409495 
L 212.167773 131.857921 
L 211.724016 131.34237 
L 210.992447 130.896559 
L 209.985074 130.549643 
L 208.718435 130.324305 
L 207.213327 130.235272 
L 205.494462 130.288355 
L 203.590065 130.480066 
L 201.531407 130.797847 
L 199.352295 131.220895 
L 197.088513 131.721518 
L 194.777237 132.266949 
L 192.456423 132.821491 
L 190.164183 133.34885 
L 187.938162 133.81451 
L 185.814914 134.187994 
L 183.829307 134.444851 
L 182.013946 134.568263 
L 180.39864 134.550141 
L 179.009914 134.391656 
L 177.870568 134.103162 
L 176.999307 133.703518 
L 176.410434 133.218859 
L 176.113615 132.68088 
L 176.113718 132.124767 
L 176.410735 131.586898 
L 176.999786 131.102455 
L 177.871194 130.703133 
L 179.010647 130.415059 
L 180.399432 130.257085 
L 182.014743 130.239559 
L 183.830059 130.36364 
L 185.815571 130.621229 
L 187.938682 130.995495 
L 190.164531 131.461976 
L 192.456576 131.99018 
L 194.777185 132.545577 
L 197.08826 133.09186 
L 199.351858 133.593317 
L 201.530814 134.017168 
L 203.589354 134.335709 
L 205.493681 134.528121 
L 207.212526 134.581838 
L 208.717667 134.49336 
L 209.984388 134.268488 
L 210.991889 133.921943 
L 211.723622 133.476402 
L 212.16757 132.961014 
z
" style="fill:#0000ff;stroke:#000000;stroke-linejoin:miter;"/>
   </g>
   <g id="patch_5">
    <path clip-path="url(#pfb3037119e)" d="M 266.676435 132.419513 
L 266.527772 131.867939 
L 266.084015 131.352388 
L 265.352446 130.906577 
L 264.345073 130.559661 
L 263.078434 130.334323 
L 261.573326 130.24529 
L 259.854461 130.298373 
L 257.950064 130.490084 
L 255.891406 130.807865 
L 253.712294 131.230913 
L 251.448512 131.731536 
L 249.137236 132.276967 
L 246.816422 132.831509 
L 244.524182 133.358868 
L 242.298161 133.824529 
L 240.174913 134.198012 
L 238.189306 134.454869 
L 236.373945 134.578281 
L 234.758639 134.560159 
L 233.369913 134.401674 
L 232.230567 134.11318 
L 231.359306 133.713536 
L 230.770434 133.228877 
L 230.473614 132.690898 
L 230.473717 132.134785 
L 230.770734 131.596916 
L 231.359785 131.112473 
L 232.231193 130.713151 
L 233.370646 130.425077 
L 234.759431 130.267103 
L 236.374742 130.249577 
L 238.190058 130.373658 
L 240.175571 130.631247 
L 242.298681 131.005513 
L 244.52453 131.471994 
L 246.816575 132.000198 
L 249.137184 132.555595 
L 251.448259 133.101878 
L 253.711857 133.603335 
L 255.890813 134.027186 
L 257.949353 134.345727 
L 259.85368 134.538139 
L 261.572525 134.591856 
L 263.077666 134.503378 
L 264.344388 134.278506 
L 265.351888 133.931961 
L 266.083622 133.48642 
L 266.527569 132.971033 
z
" style="fill:#0000ff;stroke:#000000;stroke-linejoin:miter;"/>
   </g>
   <g id="patch_6">
    <path clip-path="url(#pfb3037119e)" d="M 253.990933 140.571176 
L 188.758934 140.559154 
L 188.757932 145.995154 
L 253.989931 146.007176 
z
" style="fill:#999999;stroke:#000000;stroke-linejoin:miter;"/>
   </g>
   <g id="text_1">
    <!-- t = 3.3 -->
    <defs>
     <path d="M 18.3125 70.21875 
L 18.3125 54.6875 
L 36.8125 54.6875 
L 36.8125 47.703125 
L 18.3125 47.703125 
L 18.3125 18.015625 
Q 18.3125 11.328125 20.140625 9.421875 
Q 21.96875 7.515625 27.59375 7.515625 
L 36.8125 7.515625 
L 36.8125 0 
L 27.59375 0 
Q 17.1875 0 13.234375 3.875 
Q 9.28125 7.765625 9.28125 18.015625 
L 9.28125 47.703125 
L 2.6875 47.703125 
L 2.6875 54.6875 
L 9.28125 54.6875 
L 9.28125 70.21875 
z
" id="DejaVuSans-116"/>
     <path id="DejaVuSans-32"/>
     <path d="M 10.59375 45.40625 
L 73.1875 45.40625 
L 73.1875 37.203125 
L 10.59375 37.203125 
z
M 10.59375 25.484375 
L 73.1875 25.484375 
L 73.1875 17.1875 
L 10.59375 17.1875 
z
" id="DejaVuSans-61"/>
     <path d="M 40.578125 39.3125 
Q 47.65625 37.796875 51.625 33 
Q 55.609375 28.21875 55.609375 21.1875 
Q 55.609375 10.40625 48.1875 4.484375 
Q 40.765625 -1.421875 27.09375 -1.421875 
Q 22.515625 -1.421875 17.65625 -0.515625 
Q 12.796875 0.390625 7.625 2.203125 
L 7.625 11.71875 
Q 11.71875 9.328125 16.59375 8.109375 
Q 21.484375 6.890625 26.8125 6.890625 
Q 36.078125 6.890625 40.9375 10.546875 
Q 45.796875 14.203125 45.796875 21.1875 
Q 45.796875 27.640625 41.28125 31.265625 
Q 36.765625 34.90625 28.71875 34.90625 
L 20.21875 34.90625 
L 20.21875 43.015625 
L 29.109375 43.015625 
Q 36.375 43.015625 40.234375 45.921875 
Q 44.09375 48.828125 44.09375 54.296875 
Q 44.09375 59.90625 40.109375 62.90625 
Q 36.140625 65.921875 28.71875 65.921875 
Q 24.65625 65.921875 20.015625 65.03125 
Q 15.375 64.15625 9.8125 62.3125 
L 9.8125 71.09375 
Q 15.4375 72.65625 20.34375 73.4375 
Q 25.25 74.21875 29.59375 74.21875 
Q 40.828125 74.21875 47.359375 69.109375 
Q 53.90625 64.015625 53.90625 55.328125 
Q 53.90625 49.265625 50.4375 45.09375 
Q 46.96875 40.921875 40.578125 39.3125 
z
" id="DejaVuSans-51"/>
     <path d="M 10.6875 12.40625 
L 21 12.40625 
L 21 0 
L 10.6875 0 
z
" id="DejaVuSans-46"/>
    </defs>
    <g transform="translate(200.664375 28.56)scale(0.12 -0.12)">
     <use xlink:href="#DejaVuSans-116"/>
     <use x="39.208984" xlink:href="#DejaVuSans-32"/>
     <use x="70.996094" xlink:href="#DejaVuSans-61"/>
     <use x="154.785156" xlink:href="#DejaVuSans-32"/>
     <use x="186.572266" xlink:href="#DejaVuSans-51"/>
     <use x="250.195312" xlink:href="#DejaVuSans-46"/>
     <use x="281.982422" xlink:href="#DejaVuSans-51"/>
    </g>
   </g>
  </g>
 </g>
 <defs>
  <clipPath id="pfb3037119e">
   <rect height="217.44" width="334.8" x="54" y="34.56"/>
  </clipPath>
 </defs>
</svg>
