<?xml version="1.0" encoding="utf-8" standalone="no"?>
<!DOCTYPE svg PUBLIC "-//W3C//DTD SVG 1.1//EN"
  "http://www.w3.org/Graphics/SVG/1.1/DTD/svg11.dtd">
<!-- Created with matplotlib (https://matplotlib.org/) -->
<svg height="288pt" version="1.1" viewBox="0 0 432 288" width="432pt" xmlns="http://www.w3.org/2000/svg" xmlns:xlink="http://www.w3.org/1999/xlink">
 <defs>
  <style type="text/css">
*{stroke-linecap:butt;stroke-linejoin:round;}
  </style>
 </defs>
 <g id="figure_1">
  <g id="patch_1">
   <path d="M 0 288 
L 432 288 
L 432 0 
L 0 0 
z
" style="fill:#ffffff;"/>
  </g>
  <g id="axes_1">
   <g id="patch_2">
    <path clip-path="url(#p02f46d5fe4)" d="M 202.320353 129.992875 
L 201.452215 140.830159 
L 200.368486 140.743345 
L 201.236625 129.906062 
z
" style="stroke:#000000;stroke-linejoin:miter;"/>
   </g>
   <g id="patch_3">
    <path clip-path="url(#p02f46d5fe4)" d="M 256.506772 134.333568 
L 255.638633 145.170852 
L 254.554905 145.084038 
L 255.423044 134.246754 
z
" style="stroke:#000000;stroke-linejoin:miter;"/>
   </g>
   <g id="patch_4">
    <path clip-path="url(#p02f46d5fe4)" d="M 219.840629 131.396366 
L 219.73638 130.834702 
L 219.335106 130.285436 
L 218.641379 129.78276 
L 217.664846 129.356692 
L 216.420185 129.031161 
L 214.926954 128.822503 
L 213.209323 128.73848 
L 211.295706 128.777864 
L 209.218275 128.930628 
L 207.012386 129.178727 
L 204.715916 129.49741 
L 202.368533 129.856974 
L 200.010917 130.224861 
L 197.683951 130.567928 
L 195.427907 130.854768 
L 193.281653 131.057911 
L 191.281894 131.155764 
L 189.462471 131.134159 
L 187.853744 130.987408 
L 186.482057 130.718791 
L 185.369316 130.340445 
L 184.532663 129.872661 
L 183.984274 129.342628 
L 183.731257 128.782712 
L 183.775663 128.228375 
L 184.114587 127.715878 
L 184.74036 127.279903 
L 185.640811 126.951273 
L 186.799592 126.754891 
L 188.196548 126.70806 
L 189.808122 126.819277 
L 191.607782 127.087584 
L 193.566462 127.502535 
L 195.653008 128.044754 
L 197.834619 128.687079 
L 200.077298 129.396205 
L 202.346285 130.134713 
L 204.606493 130.863377 
L 206.822946 131.543574 
L 208.96121 132.139669 
L 210.98783 132.621195 
L 212.870774 132.964708 
L 214.579877 133.15519 
L 216.087282 133.186903 
L 217.367893 133.063662 
L 218.399799 132.798484 
L 219.164702 132.412654 
L 219.648297 131.934272 
z
" style="fill:#0000ff;stroke:#000000;stroke-linejoin:miter;"/>
   </g>
   <g id="patch_5">
    <path clip-path="url(#p02f46d5fe4)" d="M 274.027047 135.737059 
L 273.922799 135.175395 
L 273.521525 134.626129 
L 272.827798 134.123453 
L 271.851264 133.697385 
L 270.606604 133.371854 
L 269.113373 133.163196 
L 267.395742 133.079173 
L 265.482125 133.118557 
L 263.404694 133.271321 
L 261.198805 133.51942 
L 258.902335 133.838103 
L 256.554952 134.197667 
L 254.197336 134.565554 
L 251.870369 134.908621 
L 249.614326 135.19546 
L 247.468072 135.398604 
L 245.468313 135.496457 
L 243.64889 135.474852 
L 242.040163 135.328101 
L 240.668476 135.059483 
L 239.555735 134.681138 
L 238.719082 134.213354 
L 238.170693 133.683321 
L 237.917676 133.123405 
L 237.962082 132.569068 
L 238.301006 132.056571 
L 238.926779 131.620596 
L 239.82723 131.291966 
L 240.986011 131.095584 
L 242.382967 131.048753 
L 243.994541 131.15997 
L 245.794201 131.428277 
L 247.752881 131.843228 
L 249.839426 132.385446 
L 252.021038 133.027772 
L 254.263717 133.736898 
L 256.532704 134.475406 
L 258.792912 135.204069 
L 261.009365 135.884267 
L 263.147628 136.480362 
L 265.174249 136.961888 
L 267.057193 137.305401 
L 268.766296 137.495882 
L 270.273701 137.527596 
L 271.554311 137.404355 
L 272.586218 137.139177 
L 273.351121 136.753347 
L 273.834716 136.274965 
z
" style="fill:#0000ff;stroke:#000000;stroke-linejoin:miter;"/>
   </g>
   <g id="patch_6">
    <path clip-path="url(#p02f46d5fe4)" d="M 260.732446 142.852193 
L 195.708743 137.643362 
L 195.274674 143.062004 
L 260.298377 148.270835 
z
" style="fill:#999999;stroke:#000000;stroke-linejoin:miter;"/>
   </g>
   <g id="text_1">
    <!-- t = 1.4 -->
    <defs>
     <path d="M 18.3125 70.21875 
L 18.3125 54.6875 
L 36.8125 54.6875 
L 36.8125 47.703125 
L 18.3125 47.703125 
L 18.3125 18.015625 
Q 18.3125 11.328125 20.140625 9.421875 
Q 21.96875 7.515625 27.59375 7.515625 
L 36.8125 7.515625 
L 36.8125 0 
L 27.59375 0 
Q 17.1875 0 13.234375 3.875 
Q 9.28125 7.765625 9.28125 18.015625 
L 9.28125 47.703125 
L 2.6875 47.703125 
L 2.6875 54.6875 
L 9.28125 54.6875 
L 9.28125 70.21875 
z
" id="DejaVuSans-116"/>
     <path id="DejaVuSans-32"/>
     <path d="M 10.59375 45.40625 
L 73.1875 45.40625 
L 73.1875 37.203125 
L 10.59375 37.203125 
z
M 10.59375 25.484375 
L 73.1875 25.484375 
L 73.1875 17.1875 
L 10.59375 17.1875 
z
" id="DejaVuSans-61"/>
     <path d="M 12.40625 8.296875 
L 28.515625 8.296875 
L 28.515625 63.921875 
L 10.984375 60.40625 
L 10.984375 69.390625 
L 28.421875 72.90625 
L 38.28125 72.90625 
L 38.28125 8.296875 
L 54.390625 8.296875 
L 54.390625 0 
L 12.40625 0 
z
" id="DejaVuSans-49"/>
     <path d="M 10.6875 12.40625 
L 21 12.40625 
L 21 0 
L 10.6875 0 
z
" id="DejaVuSans-46"/>
     <path d="M 37.796875 64.3125 
L 12.890625 25.390625 
L 37.796875 25.390625 
z
M 35.203125 72.90625 
L 47.609375 72.90625 
L 47.609375 25.390625 
L 58.015625 25.390625 
L 58.015625 17.1875 
L 47.609375 17.1875 
L 47.609375 0 
L 37.796875 0 
L 37.796875 17.1875 
L 4.890625 17.1875 
L 4.890625 26.703125 
z
" id="DejaVuSans-52"/>
    </defs>
    <g transform="translate(200.664375 28.56)scale(0.12 -0.12)">
     <use xlink:href="#DejaVuSans-116"/>
     <use x="39.208984" xlink:href="#DejaVuSans-32"/>
     <use x="70.996094" xlink:href="#DejaVuSans-61"/>
     <use x="154.785156" xlink:href="#DejaVuSans-32"/>
     <use x="186.572266" xlink:href="#DejaVuSans-49"/>
     <use x="250.195312" xlink:href="#DejaVuSans-46"/>
     <use x="281.982422" xlink:href="#DejaVuSans-52"/>
    </g>
   </g>
  </g>
 </g>
 <defs>
  <clipPath id="p02f46d5fe4">
   <rect height="217.44" width="334.8" x="54" y="34.56"/>
  </clipPath>
 </defs>
</svg>
