<?xml version="1.0" encoding="utf-8" standalone="no"?>
<!DOCTYPE svg PUBLIC "-//W3C//DTD SVG 1.1//EN"
  "http://www.w3.org/Graphics/SVG/1.1/DTD/svg11.dtd">
<!-- Created with matplotlib (https://matplotlib.org/) -->
<svg height="288pt" version="1.1" viewBox="0 0 432 288" width="432pt" xmlns="http://www.w3.org/2000/svg" xmlns:xlink="http://www.w3.org/1999/xlink">
 <defs>
  <style type="text/css">
*{stroke-linecap:butt;stroke-linejoin:round;}
  </style>
 </defs>
 <g id="figure_1">
  <g id="patch_1">
   <path d="M 0 288 
L 432 288 
L 432 0 
L 0 0 
z
" style="fill:#ffffff;"/>
  </g>
  <g id="axes_1">
   <g id="patch_2">
    <path clip-path="url(#p390282928c)" d="M 229.946159 111.001762 
L 230.889453 121.832763 
L 229.806353 121.927092 
L 228.863059 111.096091 
z
" style="stroke:#000000;stroke-linejoin:miter;"/>
   </g>
   <g id="patch_3">
    <path clip-path="url(#p390282928c)" d="M 284.101164 106.285292 
L 285.044458 117.116293 
L 283.961357 117.210623 
L 283.018064 106.379622 
z
" style="stroke:#000000;stroke-linejoin:miter;"/>
   </g>
   <g id="patch_4">
    <path clip-path="url(#p390282928c)" d="M 247.456277 109.47677 
L 247.260219 108.940211 
L 246.773317 108.465195 
L 246.005756 108.084681 
L 244.972035 107.826667 
L 243.690601 107.712312 
L 242.183451 107.754482 
L 240.475711 107.956814 
L 238.595195 108.313381 
L 236.571964 108.808953 
L 234.437887 109.419867 
L 232.226206 110.115423 
L 229.971106 110.859747 
L 227.707297 111.613978 
L 225.469591 112.338643 
L 223.292488 112.996087 
L 221.209754 113.552766 
L 219.253999 113.981294 
L 217.456244 114.262079 
L 215.84548 114.384472 
L 214.448233 114.347333 
L 213.288117 114.158994 
L 212.385408 113.836618 
L 211.756626 113.404995 
L 211.414155 112.89486 
L 211.365905 112.340845 
L 211.615032 111.779188 
L 212.159731 111.245364 
L 212.993119 110.771787 
L 214.103209 110.385731 
L 215.472999 110.107605 
L 217.08067 109.949698 
L 218.899899 109.915473 
L 220.900289 109.999452 
L 223.0479 110.187702 
L 225.305879 110.458885 
L 227.63517 110.785802 
L 229.995281 111.137325 
L 232.345101 111.480598 
L 234.643727 111.783342 
L 236.851284 112.016134 
L 238.929724 112.154484 
L 240.843569 112.180592 
L 242.560575 112.084656 
L 244.052323 111.865645 
L 245.294695 111.531488 
L 246.268249 111.098656 
L 246.958473 110.59118 
L 247.355928 110.039144 
z
" style="fill:#0000ff;stroke:#000000;stroke-linejoin:miter;"/>
   </g>
   <g id="patch_5">
    <path clip-path="url(#p390282928c)" d="M 301.611282 104.7603 
L 301.415224 104.223741 
L 300.928321 103.748726 
L 300.160761 103.368211 
L 299.12704 103.110197 
L 297.845605 102.995843 
L 296.338456 103.038012 
L 294.630716 103.240344 
L 292.7502 103.596911 
L 290.726968 104.092484 
L 288.592891 104.703397 
L 286.38121 105.398953 
L 284.126111 106.143278 
L 281.862302 106.897508 
L 279.624596 107.622174 
L 277.447492 108.279617 
L 275.364759 108.836297 
L 273.409004 109.264824 
L 271.611248 109.54561 
L 270.000484 109.668003 
L 268.603237 109.630863 
L 267.443122 109.442525 
L 266.540413 109.120148 
L 265.911631 108.688525 
L 265.56916 108.178391 
L 265.520909 107.624376 
L 265.770036 107.062718 
L 266.314735 106.528894 
L 267.148123 106.055318 
L 268.258213 105.669262 
L 269.628003 105.391136 
L 271.235674 105.233229 
L 273.054903 105.199003 
L 275.055293 105.282982 
L 277.202904 105.471232 
L 279.460884 105.742416 
L 281.790174 106.069332 
L 284.150285 106.420856 
L 286.500106 106.764128 
L 288.798731 107.066873 
L 291.006288 107.299665 
L 293.084729 107.438014 
L 294.998573 107.464122 
L 296.71558 107.368187 
L 298.207328 107.149176 
L 299.4497 106.815018 
L 300.423254 106.382186 
L 301.113478 105.874711 
L 301.510932 105.322674 
z
" style="fill:#0000ff;stroke:#000000;stroke-linejoin:miter;"/>
   </g>
   <g id="patch_6">
    <path clip-path="url(#p390282928c)" d="M 289.682585 113.984061 
L 224.696579 119.643824 
L 225.168226 125.059325 
L 290.154231 119.399561 
z
" style="fill:#999999;stroke:#000000;stroke-linejoin:miter;"/>
   </g>
   <g id="text_1">
    <!-- t = 0.3 -->
    <defs>
     <path d="M 18.3125 70.21875 
L 18.3125 54.6875 
L 36.8125 54.6875 
L 36.8125 47.703125 
L 18.3125 47.703125 
L 18.3125 18.015625 
Q 18.3125 11.328125 20.140625 9.421875 
Q 21.96875 7.515625 27.59375 7.515625 
L 36.8125 7.515625 
L 36.8125 0 
L 27.59375 0 
Q 17.1875 0 13.234375 3.875 
Q 9.28125 7.765625 9.28125 18.015625 
L 9.28125 47.703125 
L 2.6875 47.703125 
L 2.6875 54.6875 
L 9.28125 54.6875 
L 9.28125 70.21875 
z
" id="DejaVuSans-116"/>
     <path id="DejaVuSans-32"/>
     <path d="M 10.59375 45.40625 
L 73.1875 45.40625 
L 73.1875 37.203125 
L 10.59375 37.203125 
z
M 10.59375 25.484375 
L 73.1875 25.484375 
L 73.1875 17.1875 
L 10.59375 17.1875 
z
" id="DejaVuSans-61"/>
     <path d="M 31.78125 66.40625 
Q 24.171875 66.40625 20.328125 58.90625 
Q 16.5 51.421875 16.5 36.375 
Q 16.5 21.390625 20.328125 13.890625 
Q 24.171875 6.390625 31.78125 6.390625 
Q 39.453125 6.390625 43.28125 13.890625 
Q 47.125 21.390625 47.125 36.375 
Q 47.125 51.421875 43.28125 58.90625 
Q 39.453125 66.40625 31.78125 66.40625 
z
M 31.78125 74.21875 
Q 44.046875 74.21875 50.515625 64.515625 
Q 56.984375 54.828125 56.984375 36.375 
Q 56.984375 17.96875 50.515625 8.265625 
Q 44.046875 -1.421875 31.78125 -1.421875 
Q 19.53125 -1.421875 13.0625 8.265625 
Q 6.59375 17.96875 6.59375 36.375 
Q 6.59375 54.828125 13.0625 64.515625 
Q 19.53125 74.21875 31.78125 74.21875 
z
" id="DejaVuSans-48"/>
     <path d="M 10.6875 12.40625 
L 21 12.40625 
L 21 0 
L 10.6875 0 
z
" id="DejaVuSans-46"/>
     <path d="M 40.578125 39.3125 
Q 47.65625 37.796875 51.625 33 
Q 55.609375 28.21875 55.609375 21.1875 
Q 55.609375 10.40625 48.1875 4.484375 
Q 40.765625 -1.421875 27.09375 -1.421875 
Q 22.515625 -1.421875 17.65625 -0.515625 
Q 12.796875 0.390625 7.625 2.203125 
L 7.625 11.71875 
Q 11.71875 9.328125 16.59375 8.109375 
Q 21.484375 6.890625 26.8125 6.890625 
Q 36.078125 6.890625 40.9375 10.546875 
Q 45.796875 14.203125 45.796875 21.1875 
Q 45.796875 27.640625 41.28125 31.265625 
Q 36.765625 34.90625 28.71875 34.90625 
L 20.21875 34.90625 
L 20.21875 43.015625 
L 29.109375 43.015625 
Q 36.375 43.015625 40.234375 45.921875 
Q 44.09375 48.828125 44.09375 54.296875 
Q 44.09375 59.90625 40.109375 62.90625 
Q 36.140625 65.921875 28.71875 65.921875 
Q 24.65625 65.921875 20.015625 65.03125 
Q 15.375 64.15625 9.8125 62.3125 
L 9.8125 71.09375 
Q 15.4375 72.65625 20.34375 73.4375 
Q 25.25 74.21875 29.59375 74.21875 
Q 40.828125 74.21875 47.359375 69.109375 
Q 53.90625 64.015625 53.90625 55.328125 
Q 53.90625 49.265625 50.4375 45.09375 
Q 46.96875 40.921875 40.578125 39.3125 
z
" id="DejaVuSans-51"/>
    </defs>
    <g transform="translate(200.664375 28.56)scale(0.12 -0.12)">
     <use xlink:href="#DejaVuSans-116"/>
     <use x="39.208984" xlink:href="#DejaVuSans-32"/>
     <use x="70.996094" xlink:href="#DejaVuSans-61"/>
     <use x="154.785156" xlink:href="#DejaVuSans-32"/>
     <use x="186.572266" xlink:href="#DejaVuSans-48"/>
     <use x="250.195312" xlink:href="#DejaVuSans-46"/>
     <use x="281.982422" xlink:href="#DejaVuSans-51"/>
    </g>
   </g>
  </g>
 </g>
 <defs>
  <clipPath id="p390282928c">
   <rect height="217.44" width="334.8" x="54" y="34.56"/>
  </clipPath>
 </defs>
</svg>
