<?xml version="1.0" encoding="utf-8" standalone="no"?>
<!DOCTYPE svg PUBLIC "-//W3C//DTD SVG 1.1//EN"
  "http://www.w3.org/Graphics/SVG/1.1/DTD/svg11.dtd">
<!-- Created with matplotlib (https://matplotlib.org/) -->
<svg height="288pt" version="1.1" viewBox="0 0 432 288" width="432pt" xmlns="http://www.w3.org/2000/svg" xmlns:xlink="http://www.w3.org/1999/xlink">
 <defs>
  <style type="text/css">
*{stroke-linecap:butt;stroke-linejoin:round;}
  </style>
 </defs>
 <g id="figure_1">
  <g id="patch_1">
   <path d="M 0 288 
L 432 288 
L 432 0 
L 0 0 
z
" style="fill:#ffffff;"/>
  </g>
  <g id="axes_1">
   <g id="patch_2">
    <path clip-path="url(#pad39311073)" d="M 195.22623 132.388762 
L 195.193571 143.260713 
L 194.106376 143.257447 
L 194.139035 132.385496 
z
" style="stroke:#000000;stroke-linejoin:miter;"/>
   </g>
   <g id="patch_3">
    <path clip-path="url(#pad39311073)" d="M 249.585985 132.552057 
L 249.553325 143.424008 
L 248.46613 143.420742 
L 248.498789 132.548791 
z
" style="stroke:#000000;stroke-linejoin:miter;"/>
   </g>
   <g id="patch_4">
    <path clip-path="url(#pad39311073)" d="M 212.80255 132.44156 
L 212.655443 131.889569 
L 212.213141 131.372769 
L 211.482832 130.924897 
L 210.476442 130.575142 
L 209.210443 130.346233 
L 207.705592 130.252957 
L 205.986585 130.301193 
L 204.081654 130.487533 
L 202.022109 130.799508 
L 199.841812 131.21641 
L 197.576628 131.710648 
L 195.263823 132.24956 
L 192.941454 132.797555 
L 190.647737 133.318449 
L 188.420412 133.777831 
L 186.296119 134.145326 
L 184.309795 134.396584 
L 182.494093 134.514877 
L 180.878846 134.4922 
L 179.490572 134.3298 
L 178.352043 134.038094 
L 177.481913 133.635996 
L 176.894409 133.149678 
L 176.599108 132.610864 
L 176.600779 132.054754 
L 176.899312 131.517724 
L 177.489726 131.034944 
L 178.362257 130.638081 
L 179.502517 130.35322 
L 180.891742 130.199163 
L 182.507097 130.186192 
L 184.322055 130.315391 
L 186.306833 130.578577 
L 188.42888 130.958828 
L 190.653405 131.431584 
L 192.943951 131.966248 
L 195.262986 132.528187 
L 197.572511 133.080984 
L 199.834686 133.588822 
L 202.012438 134.018815 
L 204.070072 134.343158 
L 205.973848 134.54094 
L 207.692535 134.599503 
L 209.19792 134.515269 
L 210.46527 134.29397 
L 211.473744 133.950268 
L 212.206731 133.506792 
L 212.652129 132.992658 
z
" style="fill:#0000ff;stroke:#000000;stroke-linejoin:miter;"/>
   </g>
   <g id="patch_5">
    <path clip-path="url(#pad39311073)" d="M 267.162305 132.604856 
L 267.015198 132.052865 
L 266.572896 131.536064 
L 265.842587 131.088192 
L 264.836196 130.738437 
L 263.570198 130.509528 
L 262.065347 130.416252 
L 260.346339 130.464488 
L 258.441409 130.650828 
L 256.381863 130.962804 
L 254.201567 131.379705 
L 251.936382 131.873943 
L 249.623577 132.412855 
L 247.301209 132.960851 
L 245.007492 133.481744 
L 242.780166 133.941127 
L 240.655874 134.308622 
L 238.66955 134.559879 
L 236.853848 134.678172 
L 235.2386 134.655495 
L 233.850326 134.493095 
L 232.711798 134.201389 
L 231.841668 133.799291 
L 231.254164 133.312973 
L 230.958863 132.774159 
L 230.960533 132.218049 
L 231.259066 131.681019 
L 231.849481 131.198239 
L 232.722012 130.801376 
L 233.862272 130.516515 
L 235.251497 130.362459 
L 236.866851 130.349487 
L 238.68181 130.478686 
L 240.666588 130.741873 
L 242.788635 131.122124 
L 245.01316 131.594879 
L 247.303706 132.129544 
L 249.62274 132.691482 
L 251.932266 133.244279 
L 254.19444 133.752117 
L 256.372193 134.18211 
L 258.429827 134.506454 
L 260.333603 134.704235 
L 262.05229 134.762798 
L 263.557674 134.678564 
L 264.825025 134.457265 
L 265.833499 134.113563 
L 266.566486 133.670087 
L 267.011884 133.155953 
z
" style="fill:#0000ff;stroke:#000000;stroke-linejoin:miter;"/>
   </g>
   <g id="patch_6">
    <path clip-path="url(#pad39311073)" d="M 254.453868 140.720717 
L 189.222162 140.524762 
L 189.205833 145.960738 
L 254.437539 146.156692 
z
" style="fill:#999999;stroke:#000000;stroke-linejoin:miter;"/>
   </g>
   <g id="text_1">
    <!-- t = 2.6 -->
    <defs>
     <path d="M 18.3125 70.21875 
L 18.3125 54.6875 
L 36.8125 54.6875 
L 36.8125 47.703125 
L 18.3125 47.703125 
L 18.3125 18.015625 
Q 18.3125 11.328125 20.140625 9.421875 
Q 21.96875 7.515625 27.59375 7.515625 
L 36.8125 7.515625 
L 36.8125 0 
L 27.59375 0 
Q 17.1875 0 13.234375 3.875 
Q 9.28125 7.765625 9.28125 18.015625 
L 9.28125 47.703125 
L 2.6875 47.703125 
L 2.6875 54.6875 
L 9.28125 54.6875 
L 9.28125 70.21875 
z
" id="DejaVuSans-116"/>
     <path id="DejaVuSans-32"/>
     <path d="M 10.59375 45.40625 
L 73.1875 45.40625 
L 73.1875 37.203125 
L 10.59375 37.203125 
z
M 10.59375 25.484375 
L 73.1875 25.484375 
L 73.1875 17.1875 
L 10.59375 17.1875 
z
" id="DejaVuSans-61"/>
     <path d="M 19.1875 8.296875 
L 53.609375 8.296875 
L 53.609375 0 
L 7.328125 0 
L 7.328125 8.296875 
Q 12.9375 14.109375 22.625 23.890625 
Q 32.328125 33.6875 34.8125 36.53125 
Q 39.546875 41.84375 41.421875 45.53125 
Q 43.3125 49.21875 43.3125 52.78125 
Q 43.3125 58.59375 39.234375 62.25 
Q 35.15625 65.921875 28.609375 65.921875 
Q 23.96875 65.921875 18.8125 64.3125 
Q 13.671875 62.703125 7.8125 59.421875 
L 7.8125 69.390625 
Q 13.765625 71.78125 18.9375 73 
Q 24.125 74.21875 28.421875 74.21875 
Q 39.75 74.21875 46.484375 68.546875 
Q 53.21875 62.890625 53.21875 53.421875 
Q 53.21875 48.921875 51.53125 44.890625 
Q 49.859375 40.875 45.40625 35.40625 
Q 44.1875 33.984375 37.640625 27.21875 
Q 31.109375 20.453125 19.1875 8.296875 
z
" id="DejaVuSans-50"/>
     <path d="M 10.6875 12.40625 
L 21 12.40625 
L 21 0 
L 10.6875 0 
z
" id="DejaVuSans-46"/>
     <path d="M 33.015625 40.375 
Q 26.375 40.375 22.484375 35.828125 
Q 18.609375 31.296875 18.609375 23.390625 
Q 18.609375 15.53125 22.484375 10.953125 
Q 26.375 6.390625 33.015625 6.390625 
Q 39.65625 6.390625 43.53125 10.953125 
Q 47.40625 15.53125 47.40625 23.390625 
Q 47.40625 31.296875 43.53125 35.828125 
Q 39.65625 40.375 33.015625 40.375 
z
M 52.59375 71.296875 
L 52.59375 62.3125 
Q 48.875 64.0625 45.09375 64.984375 
Q 41.3125 65.921875 37.59375 65.921875 
Q 27.828125 65.921875 22.671875 59.328125 
Q 17.53125 52.734375 16.796875 39.40625 
Q 19.671875 43.65625 24.015625 45.921875 
Q 28.375 48.1875 33.59375 48.1875 
Q 44.578125 48.1875 50.953125 41.515625 
Q 57.328125 34.859375 57.328125 23.390625 
Q 57.328125 12.15625 50.6875 5.359375 
Q 44.046875 -1.421875 33.015625 -1.421875 
Q 20.359375 -1.421875 13.671875 8.265625 
Q 6.984375 17.96875 6.984375 36.375 
Q 6.984375 53.65625 15.1875 63.9375 
Q 23.390625 74.21875 37.203125 74.21875 
Q 40.921875 74.21875 44.703125 73.484375 
Q 48.484375 72.75 52.59375 71.296875 
z
" id="DejaVuSans-54"/>
    </defs>
    <g transform="translate(200.664375 28.56)scale(0.12 -0.12)">
     <use xlink:href="#DejaVuSans-116"/>
     <use x="39.208984" xlink:href="#DejaVuSans-32"/>
     <use x="70.996094" xlink:href="#DejaVuSans-61"/>
     <use x="154.785156" xlink:href="#DejaVuSans-32"/>
     <use x="186.572266" xlink:href="#DejaVuSans-50"/>
     <use x="250.195312" xlink:href="#DejaVuSans-46"/>
     <use x="281.982422" xlink:href="#DejaVuSans-54"/>
    </g>
   </g>
  </g>
 </g>
 <defs>
  <clipPath id="pad39311073">
   <rect height="217.44" width="334.8" x="54" y="34.56"/>
  </clipPath>
 </defs>
</svg>
