<?xml version="1.0" encoding="utf-8" standalone="no"?>
<!DOCTYPE svg PUBLIC "-//W3C//DTD SVG 1.1//EN"
  "http://www.w3.org/Graphics/SVG/1.1/DTD/svg11.dtd">
<!-- Created with matplotlib (https://matplotlib.org/) -->
<svg height="288pt" version="1.1" viewBox="0 0 432 288" width="432pt" xmlns="http://www.w3.org/2000/svg" xmlns:xlink="http://www.w3.org/1999/xlink">
 <defs>
  <style type="text/css">
*{stroke-linecap:butt;stroke-linejoin:round;}
  </style>
 </defs>
 <g id="figure_1">
  <g id="patch_1">
   <path d="M 0 288 
L 432 288 
L 432 0 
L 0 0 
z
" style="fill:#ffffff;"/>
  </g>
  <g id="axes_1">
   <g id="patch_2">
    <path clip-path="url(#p5cb5092e3d)" d="M 194.232094 132.54377 
L 194.237846 143.415768 
L 193.150647 143.416344 
L 193.144894 132.544345 
z
" style="stroke:#000000;stroke-linejoin:miter;"/>
   </g>
   <g id="patch_3">
    <path clip-path="url(#p5cb5092e3d)" d="M 248.592086 132.515006 
L 248.597839 143.387005 
L 247.510639 143.38758 
L 247.504886 132.515582 
z
" style="stroke:#000000;stroke-linejoin:miter;"/>
   </g>
   <g id="patch_4">
    <path clip-path="url(#p5cb5092e3d)" d="M 211.808491 132.53447 
L 211.659435 131.983002 
L 211.21531 131.467767 
L 210.483423 131.022478 
L 209.475803 130.676281 
L 208.209004 130.451847 
L 206.703832 130.363888 
L 204.985006 130.418197 
L 203.080746 130.611266 
L 201.022315 130.930516 
L 198.843505 131.355119 
L 196.580081 131.857356 
L 194.269195 132.404436 
L 191.948777 132.960633 
L 189.656914 133.489628 
L 187.431226 133.956876 
L 185.308245 134.331875 
L 183.322821 134.590148 
L 181.507549 134.714855 
L 179.892231 134.697886 
L 178.503392 134.540391 
L 177.36384 134.25271 
L 176.492294 133.853688 
L 175.903076 133.369449 
L 175.605873 132.831682 
L 175.605579 132.27557 
L 175.902213 131.737488 
L 176.490918 131.252625 
L 177.362041 130.852682 
L 178.501287 130.563794 
L 179.889959 130.40483 
L 181.505258 130.386151 
L 183.320662 130.508937 
L 185.306358 130.76511 
L 187.429734 131.137861 
L 189.655916 131.602754 
L 191.948337 132.129323 
L 194.269342 132.683064 
L 196.580806 133.227698 
L 198.844761 133.72754 
L 201.024019 134.149837 
L 203.082786 134.466908 
L 204.987249 134.657963 
L 206.706132 134.710453 
L 208.21121 134.620901 
L 209.47777 134.395126 
L 210.485024 134.047862 
L 211.216439 133.601799 
L 211.660018 133.086095 
z
" style="fill:#0000ff;stroke:#000000;stroke-linejoin:miter;"/>
   </g>
   <g id="patch_5">
    <path clip-path="url(#p5cb5092e3d)" d="M 266.168484 132.505706 
L 266.019427 131.954239 
L 265.575302 131.439004 
L 264.843415 130.993715 
L 263.835795 130.647518 
L 262.568996 130.423083 
L 261.063825 130.335124 
L 259.344998 130.389433 
L 257.440738 130.582503 
L 255.382308 130.901753 
L 253.203498 131.326355 
L 250.940073 131.828593 
L 248.629187 132.375672 
L 246.308769 132.93187 
L 244.016907 133.460864 
L 241.791218 133.928113 
L 239.668237 134.303111 
L 237.682814 134.561385 
L 235.867541 134.686092 
L 234.252223 134.669122 
L 232.863384 134.511628 
L 231.723832 134.223947 
L 230.852287 133.824925 
L 230.263069 133.340686 
L 229.965865 132.802918 
L 229.965571 132.246806 
L 230.262205 131.708725 
L 230.85091 131.223862 
L 231.722033 130.823918 
L 232.86128 130.535031 
L 234.249952 130.376067 
L 235.865251 130.357388 
L 237.680654 130.480174 
L 239.66635 130.736346 
L 241.789727 131.109098 
L 244.015908 131.573991 
L 246.308329 132.100559 
L 248.629334 132.654301 
L 250.940798 133.198935 
L 253.204753 133.698777 
L 255.384011 134.121073 
L 257.442778 134.438145 
L 259.347242 134.629199 
L 261.066125 134.681689 
L 262.571202 134.592137 
L 263.837763 134.366362 
L 264.845016 134.019099 
L 265.576431 133.573036 
L 266.020011 133.057331 
z
" style="fill:#0000ff;stroke:#000000;stroke-linejoin:miter;"/>
   </g>
   <g id="patch_6">
    <path clip-path="url(#p5cb5092e3d)" d="M 253.4888 140.666417 
L 188.256809 140.700933 
L 188.259685 146.136932 
L 253.491676 146.102416 
z
" style="fill:#999999;stroke:#000000;stroke-linejoin:miter;"/>
   </g>
   <g id="text_1">
    <!-- t = 2.3 -->
    <defs>
     <path d="M 18.3125 70.21875 
L 18.3125 54.6875 
L 36.8125 54.6875 
L 36.8125 47.703125 
L 18.3125 47.703125 
L 18.3125 18.015625 
Q 18.3125 11.328125 20.140625 9.421875 
Q 21.96875 7.515625 27.59375 7.515625 
L 36.8125 7.515625 
L 36.8125 0 
L 27.59375 0 
Q 17.1875 0 13.234375 3.875 
Q 9.28125 7.765625 9.28125 18.015625 
L 9.28125 47.703125 
L 2.6875 47.703125 
L 2.6875 54.6875 
L 9.28125 54.6875 
L 9.28125 70.21875 
z
" id="DejaVuSans-116"/>
     <path id="DejaVuSans-32"/>
     <path d="M 10.59375 45.40625 
L 73.1875 45.40625 
L 73.1875 37.203125 
L 10.59375 37.203125 
z
M 10.59375 25.484375 
L 73.1875 25.484375 
L 73.1875 17.1875 
L 10.59375 17.1875 
z
" id="DejaVuSans-61"/>
     <path d="M 19.1875 8.296875 
L 53.609375 8.296875 
L 53.609375 0 
L 7.328125 0 
L 7.328125 8.296875 
Q 12.9375 14.109375 22.625 23.890625 
Q 32.328125 33.6875 34.8125 36.53125 
Q 39.546875 41.84375 41.421875 45.53125 
Q 43.3125 49.21875 43.3125 52.78125 
Q 43.3125 58.59375 39.234375 62.25 
Q 35.15625 65.921875 28.609375 65.921875 
Q 23.96875 65.921875 18.8125 64.3125 
Q 13.671875 62.703125 7.8125 59.421875 
L 7.8125 69.390625 
Q 13.765625 71.78125 18.9375 73 
Q 24.125 74.21875 28.421875 74.21875 
Q 39.75 74.21875 46.484375 68.546875 
Q 53.21875 62.890625 53.21875 53.421875 
Q 53.21875 48.921875 51.53125 44.890625 
Q 49.859375 40.875 45.40625 35.40625 
Q 44.1875 33.984375 37.640625 27.21875 
Q 31.109375 20.453125 19.1875 8.296875 
z
" id="DejaVuSans-50"/>
     <path d="M 10.6875 12.40625 
L 21 12.40625 
L 21 0 
L 10.6875 0 
z
" id="DejaVuSans-46"/>
     <path d="M 40.578125 39.3125 
Q 47.65625 37.796875 51.625 33 
Q 55.609375 28.21875 55.609375 21.1875 
Q 55.609375 10.40625 48.1875 4.484375 
Q 40.765625 -1.421875 27.09375 -1.421875 
Q 22.515625 -1.421875 17.65625 -0.515625 
Q 12.796875 0.390625 7.625 2.203125 
L 7.625 11.71875 
Q 11.71875 9.328125 16.59375 8.109375 
Q 21.484375 6.890625 26.8125 6.890625 
Q 36.078125 6.890625 40.9375 10.546875 
Q 45.796875 14.203125 45.796875 21.1875 
Q 45.796875 27.640625 41.28125 31.265625 
Q 36.765625 34.90625 28.71875 34.90625 
L 20.21875 34.90625 
L 20.21875 43.015625 
L 29.109375 43.015625 
Q 36.375 43.015625 40.234375 45.921875 
Q 44.09375 48.828125 44.09375 54.296875 
Q 44.09375 59.90625 40.109375 62.90625 
Q 36.140625 65.921875 28.71875 65.921875 
Q 24.65625 65.921875 20.015625 65.03125 
Q 15.375 64.15625 9.8125 62.3125 
L 9.8125 71.09375 
Q 15.4375 72.65625 20.34375 73.4375 
Q 25.25 74.21875 29.59375 74.21875 
Q 40.828125 74.21875 47.359375 69.109375 
Q 53.90625 64.015625 53.90625 55.328125 
Q 53.90625 49.265625 50.4375 45.09375 
Q 46.96875 40.921875 40.578125 39.3125 
z
" id="DejaVuSans-51"/>
    </defs>
    <g transform="translate(200.664375 28.56)scale(0.12 -0.12)">
     <use xlink:href="#DejaVuSans-116"/>
     <use x="39.208984" xlink:href="#DejaVuSans-32"/>
     <use x="70.996094" xlink:href="#DejaVuSans-61"/>
     <use x="154.785156" xlink:href="#DejaVuSans-32"/>
     <use x="186.572266" xlink:href="#DejaVuSans-50"/>
     <use x="250.195312" xlink:href="#DejaVuSans-46"/>
     <use x="281.982422" xlink:href="#DejaVuSans-51"/>
    </g>
   </g>
  </g>
 </g>
 <defs>
  <clipPath id="p5cb5092e3d">
   <rect height="217.44" width="334.8" x="54" y="34.56"/>
  </clipPath>
 </defs>
</svg>
