<?xml version="1.0" encoding="utf-8" standalone="no"?>
<!DOCTYPE svg PUBLIC "-//W3C//DTD SVG 1.1//EN"
  "http://www.w3.org/Graphics/SVG/1.1/DTD/svg11.dtd">
<!-- Created with matplotlib (https://matplotlib.org/) -->
<svg height="288pt" version="1.1" viewBox="0 0 432 288" width="432pt" xmlns="http://www.w3.org/2000/svg" xmlns:xlink="http://www.w3.org/1999/xlink">
 <defs>
  <style type="text/css">
*{stroke-linecap:butt;stroke-linejoin:round;}
  </style>
 </defs>
 <g id="figure_1">
  <g id="patch_1">
   <path d="M 0 288 
L 432 288 
L 432 0 
L 0 0 
z
" style="fill:#ffffff;"/>
  </g>
  <g id="axes_1">
   <g id="patch_2">
    <path clip-path="url(#p3db08c3b08)" d="M 204.129477 116.327407 
L 202.767234 127.113726 
L 201.688602 126.977502 
L 203.050845 116.191183 
z
" style="stroke:#000000;stroke-linejoin:miter;"/>
   </g>
   <g id="patch_3">
    <path clip-path="url(#p3db08c3b08)" d="M 258.061072 123.13862 
L 256.69883 133.924939 
L 255.620198 133.788715 
L 256.98244 123.002396 
z
" style="stroke:#000000;stroke-linejoin:miter;"/>
   </g>
   <g id="patch_4">
    <path clip-path="url(#p3db08c3b08)" d="M 221.567359 118.529699 
L 221.488875 117.963859 
L 221.113108 117.396838 
L 220.443065 116.863 
L 219.487013 116.392772 
L 218.25852 116.010728 
L 216.776378 115.734083 
L 215.064378 115.571692 
L 213.15096 115.523627 
L 211.068719 115.581342 
L 208.8538 115.728425 
L 206.545171 115.94188 
L 204.183814 116.193849 
L 201.811855 116.453663 
L 199.471647 116.690084 
L 197.204856 116.873576 
L 195.051564 116.978474 
L 193.049422 116.984883 
L 191.232885 116.880196 
L 189.63254 116.660116 
L 188.274554 116.329125 
L 187.180256 115.900348 
L 186.365843 115.394837 
L 185.842236 114.840309 
L 185.615059 114.26942 
L 185.684738 113.717691 
L 186.046718 113.221209 
L 186.691752 112.814273 
L 187.606274 112.527115 
L 188.772815 112.383867 
L 190.170452 112.400893 
L 191.775264 112.585605 
L 193.56079 112.935835 
L 195.498473 113.439818 
L 197.558074 114.076777 
L 199.708069 114.818081 
L 201.916017 115.628904 
L 204.148903 116.470281 
L 206.373469 117.301423 
L 208.55654 118.08215 
L 210.665344 118.775292 
L 212.667854 119.348884 
L 214.533143 119.778046 
L 216.231761 120.046394 
L 217.736145 120.146927 
L 219.021048 120.082309 
L 220.06399 119.864542 
L 220.845717 119.514053 
L 221.350659 119.058259 
z
" style="fill:#0000ff;stroke:#000000;stroke-linejoin:miter;"/>
   </g>
   <g id="patch_5">
    <path clip-path="url(#p3db08c3b08)" d="M 275.498955 125.340912 
L 275.42047 124.775072 
L 275.044703 124.208051 
L 274.37466 123.674213 
L 273.418608 123.203985 
L 272.190116 122.821941 
L 270.707974 122.545296 
L 268.995974 122.382905 
L 267.082555 122.33484 
L 265.000314 122.392555 
L 262.785395 122.539638 
L 260.476766 122.753093 
L 258.11541 123.005061 
L 255.74345 123.264876 
L 253.403242 123.501297 
L 251.136451 123.684789 
L 248.983159 123.789687 
L 246.981017 123.796096 
L 245.16448 123.691408 
L 243.564135 123.471329 
L 242.20615 123.140338 
L 241.111851 122.711561 
L 240.297438 122.20605 
L 239.773832 121.651522 
L 239.546654 121.080633 
L 239.616334 120.528904 
L 239.978313 120.032422 
L 240.623347 119.625485 
L 241.537869 119.338327 
L 242.70441 119.19508 
L 244.102047 119.212106 
L 245.706859 119.396818 
L 247.492386 119.747048 
L 249.430068 120.251031 
L 251.489669 120.88799 
L 253.639664 121.629294 
L 255.847612 122.440117 
L 258.080498 123.281494 
L 260.305064 124.112636 
L 262.488135 124.893363 
L 264.596939 125.586505 
L 266.59945 126.160097 
L 268.464739 126.589258 
L 270.163357 126.857607 
L 271.66774 126.95814 
L 272.952643 126.893522 
L 273.995585 126.675754 
L 274.777313 126.325265 
L 275.282254 125.869472 
z
" style="fill:#0000ff;stroke:#000000;stroke-linejoin:miter;"/>
   </g>
   <g id="patch_6">
    <path clip-path="url(#p3db08c3b08)" d="M 261.893234 131.841368 
L 197.175319 123.667913 
L 196.494198 129.061073 
L 261.212113 137.234528 
z
" style="fill:#999999;stroke:#000000;stroke-linejoin:miter;"/>
   </g>
   <g id="text_1">
    <!-- t = 0.6 -->
    <defs>
     <path d="M 18.3125 70.21875 
L 18.3125 54.6875 
L 36.8125 54.6875 
L 36.8125 47.703125 
L 18.3125 47.703125 
L 18.3125 18.015625 
Q 18.3125 11.328125 20.140625 9.421875 
Q 21.96875 7.515625 27.59375 7.515625 
L 36.8125 7.515625 
L 36.8125 0 
L 27.59375 0 
Q 17.1875 0 13.234375 3.875 
Q 9.28125 7.765625 9.28125 18.015625 
L 9.28125 47.703125 
L 2.6875 47.703125 
L 2.6875 54.6875 
L 9.28125 54.6875 
L 9.28125 70.21875 
z
" id="DejaVuSans-116"/>
     <path id="DejaVuSans-32"/>
     <path d="M 10.59375 45.40625 
L 73.1875 45.40625 
L 73.1875 37.203125 
L 10.59375 37.203125 
z
M 10.59375 25.484375 
L 73.1875 25.484375 
L 73.1875 17.1875 
L 10.59375 17.1875 
z
" id="DejaVuSans-61"/>
     <path d="M 31.78125 66.40625 
Q 24.171875 66.40625 20.328125 58.90625 
Q 16.5 51.421875 16.5 36.375 
Q 16.5 21.390625 20.328125 13.890625 
Q 24.171875 6.390625 31.78125 6.390625 
Q 39.453125 6.390625 43.28125 13.890625 
Q 47.125 21.390625 47.125 36.375 
Q 47.125 51.421875 43.28125 58.90625 
Q 39.453125 66.40625 31.78125 66.40625 
z
M 31.78125 74.21875 
Q 44.046875 74.21875 50.515625 64.515625 
Q 56.984375 54.828125 56.984375 36.375 
Q 56.984375 17.96875 50.515625 8.265625 
Q 44.046875 -1.421875 31.78125 -1.421875 
Q 19.53125 -1.421875 13.0625 8.265625 
Q 6.59375 17.96875 6.59375 36.375 
Q 6.59375 54.828125 13.0625 64.515625 
Q 19.53125 74.21875 31.78125 74.21875 
z
" id="DejaVuSans-48"/>
     <path d="M 10.6875 12.40625 
L 21 12.40625 
L 21 0 
L 10.6875 0 
z
" id="DejaVuSans-46"/>
     <path d="M 33.015625 40.375 
Q 26.375 40.375 22.484375 35.828125 
Q 18.609375 31.296875 18.609375 23.390625 
Q 18.609375 15.53125 22.484375 10.953125 
Q 26.375 6.390625 33.015625 6.390625 
Q 39.65625 6.390625 43.53125 10.953125 
Q 47.40625 15.53125 47.40625 23.390625 
Q 47.40625 31.296875 43.53125 35.828125 
Q 39.65625 40.375 33.015625 40.375 
z
M 52.59375 71.296875 
L 52.59375 62.3125 
Q 48.875 64.0625 45.09375 64.984375 
Q 41.3125 65.921875 37.59375 65.921875 
Q 27.828125 65.921875 22.671875 59.328125 
Q 17.53125 52.734375 16.796875 39.40625 
Q 19.671875 43.65625 24.015625 45.921875 
Q 28.375 48.1875 33.59375 48.1875 
Q 44.578125 48.1875 50.953125 41.515625 
Q 57.328125 34.859375 57.328125 23.390625 
Q 57.328125 12.15625 50.6875 5.359375 
Q 44.046875 -1.421875 33.015625 -1.421875 
Q 20.359375 -1.421875 13.671875 8.265625 
Q 6.984375 17.96875 6.984375 36.375 
Q 6.984375 53.65625 15.1875 63.9375 
Q 23.390625 74.21875 37.203125 74.21875 
Q 40.921875 74.21875 44.703125 73.484375 
Q 48.484375 72.75 52.59375 71.296875 
z
" id="DejaVuSans-54"/>
    </defs>
    <g transform="translate(200.664375 28.56)scale(0.12 -0.12)">
     <use xlink:href="#DejaVuSans-116"/>
     <use x="39.208984" xlink:href="#DejaVuSans-32"/>
     <use x="70.996094" xlink:href="#DejaVuSans-61"/>
     <use x="154.785156" xlink:href="#DejaVuSans-32"/>
     <use x="186.572266" xlink:href="#DejaVuSans-48"/>
     <use x="250.195312" xlink:href="#DejaVuSans-46"/>
     <use x="281.982422" xlink:href="#DejaVuSans-54"/>
    </g>
   </g>
  </g>
 </g>
 <defs>
  <clipPath id="p3db08c3b08">
   <rect height="217.44" width="334.8" x="54" y="34.56"/>
  </clipPath>
 </defs>
</svg>
