<?xml version="1.0" encoding="utf-8" standalone="no"?>
<!DOCTYPE svg PUBLIC "-//W3C//DTD SVG 1.1//EN"
  "http://www.w3.org/Graphics/SVG/1.1/DTD/svg11.dtd">
<!-- Created with matplotlib (https://matplotlib.org/) -->
<svg height="288pt" version="1.1" viewBox="0 0 432 288" width="432pt" xmlns="http://www.w3.org/2000/svg" xmlns:xlink="http://www.w3.org/1999/xlink">
 <defs>
  <style type="text/css">
*{stroke-linecap:butt;stroke-linejoin:round;}
  </style>
 </defs>
 <g id="figure_1">
  <g id="patch_1">
   <path d="M 0 288 
L 432 288 
L 432 0 
L 0 0 
z
" style="fill:#ffffff;"/>
  </g>
  <g id="axes_1">
   <g id="patch_2">
    <path clip-path="url(#pffa6b3a61c)" d="M 201.367056 130.22118 
L 200.564822 141.063542 
L 199.480586 140.983318 
L 200.28282 130.140957 
z
" style="stroke:#000000;stroke-linejoin:miter;"/>
   </g>
   <g id="patch_3">
    <path clip-path="url(#pffa6b3a61c)" d="M 255.578864 134.232349 
L 254.77663 145.074711 
L 253.692394 144.994487 
L 254.494628 134.152126 
z
" style="stroke:#000000;stroke-linejoin:miter;"/>
   </g>
   <g id="patch_4">
    <path clip-path="url(#pffa6b3a61c)" d="M 218.895541 131.518125 
L 218.787879 130.957105 
L 218.383273 130.410289 
L 217.686503 129.91184 
L 216.707397 129.491717 
L 215.46078 129.173759 
L 213.966308 128.974184 
L 212.248199 128.900605 
L 210.334856 128.951622 
L 208.258392 129.117014 
L 206.054052 129.37852 
L 203.759562 129.711159 
L 201.414409 130.084989 
L 199.059073 130.467202 
L 196.734235 130.82441 
L 194.479977 131.124961 
L 192.334998 131.341149 
L 190.335871 131.451159 
L 188.51635 131.440616 
L 186.906761 131.303648 
L 185.533466 131.043376 
L 184.418445 130.671802 
L 183.578964 130.209113 
L 183.027362 129.682424 
L 182.770946 129.124057 
L 182.811981 128.569461 
L 183.147783 128.054912 
L 183.770894 127.615141 
L 184.66933 127.281042 
L 185.826896 127.077619 
L 187.223541 127.022296 
L 188.835761 127.123712 
L 190.637019 127.381073 
L 192.598186 127.784108 
L 194.68799 128.31363 
L 196.873466 128.94268 
L 199.120415 129.638158 
L 201.39385 130.362858 
L 203.658446 131.077766 
L 205.878994 131.744475 
L 208.020842 132.327559 
L 210.050352 132.796754 
L 211.935351 133.128814 
L 213.645579 133.3089 
L 215.15315 133.331448 
L 216.432987 133.200424 
L 217.463262 132.928977 
L 218.225805 132.538504 
L 218.706483 132.05719 
z
" style="fill:#0000ff;stroke:#000000;stroke-linejoin:miter;"/>
   </g>
   <g id="patch_5">
    <path clip-path="url(#pffa6b3a61c)" d="M 273.107349 135.529294 
L 272.999687 134.968274 
L 272.595081 134.421458 
L 271.89831 133.923009 
L 270.919205 133.502886 
L 269.672588 133.184928 
L 268.178116 132.985353 
L 266.460007 132.911774 
L 264.546664 132.962792 
L 262.4702 133.128183 
L 260.26586 133.38969 
L 257.97137 133.722328 
L 255.626217 134.096158 
L 253.270881 134.478372 
L 250.946043 134.835579 
L 248.691785 135.13613 
L 246.546806 135.352319 
L 244.547679 135.462328 
L 242.728158 135.451785 
L 241.118569 135.314818 
L 239.745274 135.054545 
L 238.630253 134.682971 
L 237.790772 134.220283 
L 237.23917 133.693594 
L 236.982754 133.135226 
L 237.023789 132.58063 
L 237.359591 132.066081 
L 237.982702 131.62631 
L 238.881138 131.292211 
L 240.038703 131.088788 
L 241.435349 131.033465 
L 243.047569 131.134881 
L 244.848827 131.392243 
L 246.809994 131.795277 
L 248.899798 132.3248 
L 251.085274 132.95385 
L 253.332223 133.649327 
L 255.605657 134.374027 
L 257.870254 135.088935 
L 260.090802 135.755644 
L 262.23265 136.338728 
L 264.26216 136.807924 
L 266.147158 137.139983 
L 267.857387 137.320069 
L 269.364958 137.342617 
L 270.644795 137.211593 
L 271.67507 136.940146 
L 272.437613 136.549673 
L 272.918291 136.06836 
z
" style="fill:#0000ff;stroke:#000000;stroke-linejoin:miter;"/>
   </g>
   <g id="patch_6">
    <path clip-path="url(#pffa6b3a61c)" d="M 259.856251 142.725126 
L 194.802082 137.911723 
L 194.400965 143.332903 
L 259.455135 148.146306 
z
" style="fill:#999999;stroke:#000000;stroke-linejoin:miter;"/>
   </g>
   <g id="text_1">
    <!-- t = 1.5 -->
    <defs>
     <path d="M 18.3125 70.21875 
L 18.3125 54.6875 
L 36.8125 54.6875 
L 36.8125 47.703125 
L 18.3125 47.703125 
L 18.3125 18.015625 
Q 18.3125 11.328125 20.140625 9.421875 
Q 21.96875 7.515625 27.59375 7.515625 
L 36.8125 7.515625 
L 36.8125 0 
L 27.59375 0 
Q 17.1875 0 13.234375 3.875 
Q 9.28125 7.765625 9.28125 18.015625 
L 9.28125 47.703125 
L 2.6875 47.703125 
L 2.6875 54.6875 
L 9.28125 54.6875 
L 9.28125 70.21875 
z
" id="DejaVuSans-116"/>
     <path id="DejaVuSans-32"/>
     <path d="M 10.59375 45.40625 
L 73.1875 45.40625 
L 73.1875 37.203125 
L 10.59375 37.203125 
z
M 10.59375 25.484375 
L 73.1875 25.484375 
L 73.1875 17.1875 
L 10.59375 17.1875 
z
" id="DejaVuSans-61"/>
     <path d="M 12.40625 8.296875 
L 28.515625 8.296875 
L 28.515625 63.921875 
L 10.984375 60.40625 
L 10.984375 69.390625 
L 28.421875 72.90625 
L 38.28125 72.90625 
L 38.28125 8.296875 
L 54.390625 8.296875 
L 54.390625 0 
L 12.40625 0 
z
" id="DejaVuSans-49"/>
     <path d="M 10.6875 12.40625 
L 21 12.40625 
L 21 0 
L 10.6875 0 
z
" id="DejaVuSans-46"/>
     <path d="M 10.796875 72.90625 
L 49.515625 72.90625 
L 49.515625 64.59375 
L 19.828125 64.59375 
L 19.828125 46.734375 
Q 21.96875 47.46875 24.109375 47.828125 
Q 26.265625 48.1875 28.421875 48.1875 
Q 40.625 48.1875 47.75 41.5 
Q 54.890625 34.8125 54.890625 23.390625 
Q 54.890625 11.625 47.5625 5.09375 
Q 40.234375 -1.421875 26.90625 -1.421875 
Q 22.3125 -1.421875 17.546875 -0.640625 
Q 12.796875 0.140625 7.71875 1.703125 
L 7.71875 11.625 
Q 12.109375 9.234375 16.796875 8.0625 
Q 21.484375 6.890625 26.703125 6.890625 
Q 35.15625 6.890625 40.078125 11.328125 
Q 45.015625 15.765625 45.015625 23.390625 
Q 45.015625 31 40.078125 35.4375 
Q 35.15625 39.890625 26.703125 39.890625 
Q 22.75 39.890625 18.8125 39.015625 
Q 14.890625 38.140625 10.796875 36.28125 
z
" id="DejaVuSans-53"/>
    </defs>
    <g transform="translate(200.664375 28.56)scale(0.12 -0.12)">
     <use xlink:href="#DejaVuSans-116"/>
     <use x="39.208984" xlink:href="#DejaVuSans-32"/>
     <use x="70.996094" xlink:href="#DejaVuSans-61"/>
     <use x="154.785156" xlink:href="#DejaVuSans-32"/>
     <use x="186.572266" xlink:href="#DejaVuSans-49"/>
     <use x="250.195312" xlink:href="#DejaVuSans-46"/>
     <use x="281.982422" xlink:href="#DejaVuSans-53"/>
    </g>
   </g>
  </g>
 </g>
 <defs>
  <clipPath id="pffa6b3a61c">
   <rect height="217.44" width="334.8" x="54" y="34.56"/>
  </clipPath>
 </defs>
</svg>
