<?xml version="1.0" encoding="utf-8" standalone="no"?>
<!DOCTYPE svg PUBLIC "-//W3C//DTD SVG 1.1//EN"
  "http://www.w3.org/Graphics/SVG/1.1/DTD/svg11.dtd">
<!-- Created with matplotlib (https://matplotlib.org/) -->
<svg height="288pt" version="1.1" viewBox="0 0 432 288" width="432pt" xmlns="http://www.w3.org/2000/svg" xmlns:xlink="http://www.w3.org/1999/xlink">
 <defs>
  <style type="text/css">
*{stroke-linecap:butt;stroke-linejoin:round;}
  </style>
 </defs>
 <g id="figure_1">
  <g id="patch_1">
   <path d="M 0 288 
L 432 288 
L 432 0 
L 0 0 
z
" style="fill:#ffffff;"/>
  </g>
  <g id="axes_1">
   <g id="patch_2">
    <path clip-path="url(#p6d76cb7667)" d="M 126.683993 201.325616 
L 129.933218 211.700727 
L 128.895707 212.025649 
L 125.646482 201.650539 
z
" style="stroke:#000000;stroke-linejoin:miter;"/>
   </g>
   <g id="patch_3">
    <path clip-path="url(#p6d76cb7667)" d="M 178.559545 185.079489 
L 181.808771 195.454599 
L 180.77126 195.779522 
L 177.522034 185.404411 
z
" style="stroke:#000000;stroke-linejoin:miter;"/>
   </g>
   <g id="patch_4">
    <path clip-path="url(#p6d76cb7667)" d="M 143.457088 196.072702 
L 143.150286 195.590823 
L 142.572665 195.231562 
L 141.741258 195.024918 
L 140.67624 194.995119 
L 139.400176 195.158864 
L 137.937316 195.52399 
L 136.312978 196.088649 
L 134.553052 196.841074 
L 132.683624 197.75993 
L 130.730732 198.815257 
L 128.720243 199.969927 
L 126.677832 201.181559 
L 124.629045 202.404736 
L 122.599395 203.59343 
L 120.614484 204.703447 
L 118.700079 205.694771 
L 116.88214 206.533647 
L 115.186753 207.194273 
L 113.639942 207.660017 
L 112.267369 207.924066 
L 111.093887 207.98948 
L 110.142986 207.868663 
L 109.436128 207.582276 
L 108.992015 207.157674 
L 108.825814 206.626979 
L 108.948397 206.024902 
L 109.365627 205.386478 
L 110.077748 204.744845 
L 111.078916 204.129213 
L 112.356912 203.563169 
L 113.893068 203.063406 
L 115.662422 202.638961 
L 117.634109 202.29102 
L 119.771988 202.013271 
L 122.035481 201.792793 
L 124.380598 201.61142 
L 126.761104 201.447453 
L 129.129786 201.27764 
L 131.439759 201.079251 
L 133.645756 200.832117 
L 135.705356 200.5205 
L 137.580082 200.134643 
L 139.236338 199.671902 
L 140.646147 199.137378 
L 141.78766 198.543999 
L 142.645429 197.912031 
L 143.210446 197.268062 
L 143.479958 196.643501 
z
" style="fill:#0000ff;stroke:#000000;stroke-linejoin:miter;"/>
   </g>
   <g id="patch_5">
    <path clip-path="url(#p6d76cb7667)" d="M 195.33264 179.826574 
L 195.025838 179.344696 
L 194.448218 178.985435 
L 193.61681 178.778791 
L 192.551792 178.748992 
L 191.275729 178.912737 
L 189.812868 179.277863 
L 188.18853 179.842522 
L 186.428604 180.594946 
L 184.559177 181.513803 
L 182.606285 182.569129 
L 180.595796 183.7238 
L 178.553385 184.935432 
L 176.504597 186.158609 
L 174.474948 187.347303 
L 172.490037 188.45732 
L 170.575631 189.448644 
L 168.757693 190.28752 
L 167.062305 190.948146 
L 165.515495 191.41389 
L 164.142922 191.677939 
L 162.96944 191.743353 
L 162.018538 191.622536 
L 161.311681 191.336149 
L 160.867567 190.911547 
L 160.701366 190.380851 
L 160.82395 189.778774 
L 161.24118 189.140351 
L 161.953301 188.498717 
L 162.954469 187.883086 
L 164.232464 187.317042 
L 165.768621 186.817278 
L 167.537975 186.392834 
L 169.509662 186.044893 
L 171.647541 185.767143 
L 173.911034 185.546666 
L 176.25615 185.365293 
L 178.636656 185.201326 
L 181.005339 185.031513 
L 183.315311 184.833123 
L 185.521309 184.585989 
L 187.580909 184.274373 
L 189.455634 183.888516 
L 191.111891 183.425775 
L 192.5217 182.891251 
L 193.663213 182.297872 
L 194.520982 181.665904 
L 195.085999 181.021935 
L 195.355511 180.397373 
z
" style="fill:#0000ff;stroke:#000000;stroke-linejoin:miter;"/>
   </g>
   <g id="patch_6">
    <path clip-path="url(#p6d76cb7667)" d="M 185.665264 191.39867 
L 123.414601 210.894023 
L 125.039214 216.081578 
L 187.289877 196.586226 
z
" style="fill:#999999;stroke:#000000;stroke-linejoin:miter;"/>
   </g>
   <g id="text_1">
    <!-- t = 0.2 -->
    <defs>
     <path d="M 18.3125 70.21875 
L 18.3125 54.6875 
L 36.8125 54.6875 
L 36.8125 47.703125 
L 18.3125 47.703125 
L 18.3125 18.015625 
Q 18.3125 11.328125 20.140625 9.421875 
Q 21.96875 7.515625 27.59375 7.515625 
L 36.8125 7.515625 
L 36.8125 0 
L 27.59375 0 
Q 17.1875 0 13.234375 3.875 
Q 9.28125 7.765625 9.28125 18.015625 
L 9.28125 47.703125 
L 2.6875 47.703125 
L 2.6875 54.6875 
L 9.28125 54.6875 
L 9.28125 70.21875 
z
" id="DejaVuSans-116"/>
     <path id="DejaVuSans-32"/>
     <path d="M 10.59375 45.40625 
L 73.1875 45.40625 
L 73.1875 37.203125 
L 10.59375 37.203125 
z
M 10.59375 25.484375 
L 73.1875 25.484375 
L 73.1875 17.1875 
L 10.59375 17.1875 
z
" id="DejaVuSans-61"/>
     <path d="M 31.78125 66.40625 
Q 24.171875 66.40625 20.328125 58.90625 
Q 16.5 51.421875 16.5 36.375 
Q 16.5 21.390625 20.328125 13.890625 
Q 24.171875 6.390625 31.78125 6.390625 
Q 39.453125 6.390625 43.28125 13.890625 
Q 47.125 21.390625 47.125 36.375 
Q 47.125 51.421875 43.28125 58.90625 
Q 39.453125 66.40625 31.78125 66.40625 
z
M 31.78125 74.21875 
Q 44.046875 74.21875 50.515625 64.515625 
Q 56.984375 54.828125 56.984375 36.375 
Q 56.984375 17.96875 50.515625 8.265625 
Q 44.046875 -1.421875 31.78125 -1.421875 
Q 19.53125 -1.421875 13.0625 8.265625 
Q 6.59375 17.96875 6.59375 36.375 
Q 6.59375 54.828125 13.0625 64.515625 
Q 19.53125 74.21875 31.78125 74.21875 
z
" id="DejaVuSans-48"/>
     <path d="M 10.6875 12.40625 
L 21 12.40625 
L 21 0 
L 10.6875 0 
z
" id="DejaVuSans-46"/>
     <path d="M 19.1875 8.296875 
L 53.609375 8.296875 
L 53.609375 0 
L 7.328125 0 
L 7.328125 8.296875 
Q 12.9375 14.109375 22.625 23.890625 
Q 32.328125 33.6875 34.8125 36.53125 
Q 39.546875 41.84375 41.421875 45.53125 
Q 43.3125 49.21875 43.3125 52.78125 
Q 43.3125 58.59375 39.234375 62.25 
Q 35.15625 65.921875 28.609375 65.921875 
Q 23.96875 65.921875 18.8125 64.3125 
Q 13.671875 62.703125 7.8125 59.421875 
L 7.8125 69.390625 
Q 13.765625 71.78125 18.9375 73 
Q 24.125 74.21875 28.421875 74.21875 
Q 39.75 74.21875 46.484375 68.546875 
Q 53.21875 62.890625 53.21875 53.421875 
Q 53.21875 48.921875 51.53125 44.890625 
Q 49.859375 40.875 45.40625 35.40625 
Q 44.1875 33.984375 37.640625 27.21875 
Q 31.109375 20.453125 19.1875 8.296875 
z
" id="DejaVuSans-50"/>
    </defs>
    <g transform="translate(200.664375 28.56)scale(0.12 -0.12)">
     <use xlink:href="#DejaVuSans-116"/>
     <use x="39.208984" xlink:href="#DejaVuSans-32"/>
     <use x="70.996094" xlink:href="#DejaVuSans-61"/>
     <use x="154.785156" xlink:href="#DejaVuSans-32"/>
     <use x="186.572266" xlink:href="#DejaVuSans-48"/>
     <use x="250.195312" xlink:href="#DejaVuSans-46"/>
     <use x="281.982422" xlink:href="#DejaVuSans-50"/>
    </g>
   </g>
  </g>
 </g>
 <defs>
  <clipPath id="p6d76cb7667">
   <rect height="217.44" width="334.8" x="54" y="34.56"/>
  </clipPath>
 </defs>
</svg>
