<?xml version="1.0" encoding="utf-8" standalone="no"?>
<!DOCTYPE svg PUBLIC "-//W3C//DTD SVG 1.1//EN"
  "http://www.w3.org/Graphics/SVG/1.1/DTD/svg11.dtd">
<!-- Created with matplotlib (https://matplotlib.org/) -->
<svg height="288pt" version="1.1" viewBox="0 0 432 288" width="432pt" xmlns="http://www.w3.org/2000/svg" xmlns:xlink="http://www.w3.org/1999/xlink">
 <defs>
  <style type="text/css">
*{stroke-linecap:butt;stroke-linejoin:round;}
  </style>
 </defs>
 <g id="figure_1">
  <g id="patch_1">
   <path d="M 0 288 
L 432 288 
L 432 0 
L 0 0 
z
" style="fill:#ffffff;"/>
  </g>
  <g id="axes_1">
   <g id="patch_2">
    <path clip-path="url(#p0ac00ee065)" d="M 194.738632 132.407999 
L 194.742153 143.279998 
L 193.654953 143.28035 
L 193.651433 132.408351 
z
" style="stroke:#000000;stroke-linejoin:miter;"/>
   </g>
   <g id="patch_3">
    <path clip-path="url(#p0ac00ee065)" d="M 249.09863 132.390397 
L 249.10215 143.262396 
L 248.01495 143.262748 
L 248.01143 132.390749 
z
" style="stroke:#000000;stroke-linejoin:miter;"/>
   </g>
   <g id="patch_4">
    <path clip-path="url(#p0ac00ee065)" d="M 212.315032 132.402307 
L 212.166088 131.850809 
L 211.722069 131.335483 
L 210.990273 130.890044 
L 209.982724 130.54364 
L 208.715972 130.318945 
L 207.210818 130.230677 
L 205.491981 130.284633 
L 203.587681 130.477312 
L 201.529185 130.796139 
L 199.350288 131.220294 
L 197.086761 131.722067 
L 194.775762 132.268672 
L 192.45523 132.824393 
L 190.163259 133.352917 
L 187.937474 133.819709 
L 185.814417 134.194271 
L 183.82894 134.452137 
L 182.013642 134.576472 
L 180.398327 134.55917 
L 179.009521 134.401391 
L 177.870028 134.113475 
L 176.998564 133.714275 
L 176.409446 133.229914 
L 176.112353 132.692086 
L 176.112173 132.135974 
L 176.408917 131.597953 
L 176.997722 131.113212 
L 177.868927 130.713447 
L 179.008233 130.424793 
L 180.396937 130.266114 
L 182.01224 130.247767 
L 183.827618 130.370926 
L 185.813262 130.627506 
L 187.936562 131.000693 
L 190.162648 131.466044 
L 192.454961 131.993083 
L 194.775852 132.547301 
L 197.087204 133.09241 
L 199.351056 133.592716 
L 201.530227 134.01546 
L 203.58893 134.332955 
L 205.493354 134.5244 
L 207.212226 134.577243 
L 208.717322 134.488 
L 209.983929 134.262485 
L 210.991253 133.915428 
L 211.72276 133.469515 
L 212.166445 132.953902 
z
" style="fill:#0000ff;stroke:#000000;stroke-linejoin:miter;"/>
   </g>
   <g id="patch_5">
    <path clip-path="url(#p0ac00ee065)" d="M 266.675029 132.384705 
L 266.526085 131.833207 
L 266.082066 131.317881 
L 265.350271 130.872442 
L 264.342722 130.526038 
L 263.075969 130.301343 
L 261.570815 130.213075 
L 259.851978 130.267031 
L 257.947678 130.45971 
L 255.889182 130.778537 
L 253.710285 131.202692 
L 251.446758 131.704465 
L 249.135759 132.25107 
L 246.815227 132.806791 
L 244.523256 133.335315 
L 242.297472 133.802107 
L 240.174414 134.176669 
L 238.188937 134.434535 
L 236.373639 134.55887 
L 234.758325 134.541568 
L 233.369518 134.383789 
L 232.230025 134.095873 
L 231.358562 133.696673 
L 230.769443 133.212312 
L 230.47235 132.674484 
L 230.47217 132.118372 
L 230.768914 131.580351 
L 231.357719 131.09561 
L 232.228924 130.695845 
L 233.36823 130.407191 
L 234.756935 130.248512 
L 236.372237 130.230165 
L 238.187616 130.353324 
L 240.173259 130.609904 
L 242.296559 130.983091 
L 244.522645 131.448442 
L 246.814958 131.975481 
L 249.135849 132.529699 
L 251.447201 133.074808 
L 253.711053 133.575114 
L 255.890225 133.997858 
L 257.948927 134.315353 
L 259.853351 134.506798 
L 261.572223 134.559641 
L 263.077319 134.470398 
L 264.343926 134.244883 
L 265.35125 133.897826 
L 266.082757 133.451913 
L 266.526442 132.9363 
z
" style="fill:#0000ff;stroke:#000000;stroke-linejoin:miter;"/>
   </g>
   <g id="patch_6">
    <path clip-path="url(#p0ac00ee065)" d="M 253.99367 140.542812 
L 188.761673 140.563934 
L 188.763433 145.999934 
L 253.99543 145.978812 
z
" style="fill:#999999;stroke:#000000;stroke-linejoin:miter;"/>
   </g>
   <g id="text_1">
    <!-- t = 2.7 -->
    <defs>
     <path d="M 18.3125 70.21875 
L 18.3125 54.6875 
L 36.8125 54.6875 
L 36.8125 47.703125 
L 18.3125 47.703125 
L 18.3125 18.015625 
Q 18.3125 11.328125 20.140625 9.421875 
Q 21.96875 7.515625 27.59375 7.515625 
L 36.8125 7.515625 
L 36.8125 0 
L 27.59375 0 
Q 17.1875 0 13.234375 3.875 
Q 9.28125 7.765625 9.28125 18.015625 
L 9.28125 47.703125 
L 2.6875 47.703125 
L 2.6875 54.6875 
L 9.28125 54.6875 
L 9.28125 70.21875 
z
" id="DejaVuSans-116"/>
     <path id="DejaVuSans-32"/>
     <path d="M 10.59375 45.40625 
L 73.1875 45.40625 
L 73.1875 37.203125 
L 10.59375 37.203125 
z
M 10.59375 25.484375 
L 73.1875 25.484375 
L 73.1875 17.1875 
L 10.59375 17.1875 
z
" id="DejaVuSans-61"/>
     <path d="M 19.1875 8.296875 
L 53.609375 8.296875 
L 53.609375 0 
L 7.328125 0 
L 7.328125 8.296875 
Q 12.9375 14.109375 22.625 23.890625 
Q 32.328125 33.6875 34.8125 36.53125 
Q 39.546875 41.84375 41.421875 45.53125 
Q 43.3125 49.21875 43.3125 52.78125 
Q 43.3125 58.59375 39.234375 62.25 
Q 35.15625 65.921875 28.609375 65.921875 
Q 23.96875 65.921875 18.8125 64.3125 
Q 13.671875 62.703125 7.8125 59.421875 
L 7.8125 69.390625 
Q 13.765625 71.78125 18.9375 73 
Q 24.125 74.21875 28.421875 74.21875 
Q 39.75 74.21875 46.484375 68.546875 
Q 53.21875 62.890625 53.21875 53.421875 
Q 53.21875 48.921875 51.53125 44.890625 
Q 49.859375 40.875 45.40625 35.40625 
Q 44.1875 33.984375 37.640625 27.21875 
Q 31.109375 20.453125 19.1875 8.296875 
z
" id="DejaVuSans-50"/>
     <path d="M 10.6875 12.40625 
L 21 12.40625 
L 21 0 
L 10.6875 0 
z
" id="DejaVuSans-46"/>
     <path d="M 8.203125 72.90625 
L 55.078125 72.90625 
L 55.078125 68.703125 
L 28.609375 0 
L 18.3125 0 
L 43.21875 64.59375 
L 8.203125 64.59375 
z
" id="DejaVuSans-55"/>
    </defs>
    <g transform="translate(200.664375 28.56)scale(0.12 -0.12)">
     <use xlink:href="#DejaVuSans-116"/>
     <use x="39.208984" xlink:href="#DejaVuSans-32"/>
     <use x="70.996094" xlink:href="#DejaVuSans-61"/>
     <use x="154.785156" xlink:href="#DejaVuSans-32"/>
     <use x="186.572266" xlink:href="#DejaVuSans-50"/>
     <use x="250.195312" xlink:href="#DejaVuSans-46"/>
     <use x="281.982422" xlink:href="#DejaVuSans-55"/>
    </g>
   </g>
  </g>
 </g>
 <defs>
  <clipPath id="p0ac00ee065">
   <rect height="217.44" width="334.8" x="54" y="34.56"/>
  </clipPath>
 </defs>
</svg>
