<?xml version="1.0" encoding="utf-8" standalone="no"?>
<!DOCTYPE svg PUBLIC "-//W3C//DTD SVG 1.1//EN"
  "http://www.w3.org/Graphics/SVG/1.1/DTD/svg11.dtd">
<!-- Created with matplotlib (https://matplotlib.org/) -->
<svg height="288pt" version="1.1" viewBox="0 0 432 288" width="432pt" xmlns="http://www.w3.org/2000/svg" xmlns:xlink="http://www.w3.org/1999/xlink">
 <defs>
  <style type="text/css">
*{stroke-linecap:butt;stroke-linejoin:round;}
  </style>
 </defs>
 <g id="figure_1">
  <g id="patch_1">
   <path d="M 0 288 
L 432 288 
L 432 0 
L 0 0 
z
" style="fill:#ffffff;"/>
  </g>
  <g id="axes_1">
   <g id="patch_2">
    <path clip-path="url(#pe73d865884)" d="M 181.408834 142.189098 
L 182.447265 153.011392 
L 181.365035 153.115235 
L 180.326605 142.292942 
z
" style="stroke:#000000;stroke-linejoin:miter;"/>
   </g>
   <g id="patch_3">
    <path clip-path="url(#pe73d865884)" d="M 235.520304 136.996946 
L 236.558734 147.81924 
L 235.476505 147.923083 
L 234.438074 137.100789 
z
" style="stroke:#000000;stroke-linejoin:miter;"/>
   </g>
   <g id="patch_4">
    <path clip-path="url(#pe73d865884)" d="M 198.904876 140.510303 
L 198.704111 139.975487 
L 198.213053 139.504768 
L 197.442179 139.131013 
L 196.40623 138.882092 
L 195.12384 138.779002 
L 193.61712 138.834414 
L 191.911224 139.051744 
L 190.033913 139.424821 
L 188.015115 139.938153 
L 185.886488 140.567795 
L 183.681004 141.282759 
L 181.432532 142.04687 
L 179.175438 142.820964 
L 176.944186 143.565264 
L 174.772944 144.241813 
L 172.695182 144.816772 
L 170.743269 145.262469 
L 168.948049 145.55904 
L 167.338423 145.695582 
L 165.940904 145.670722 
L 164.779178 145.492585 
L 163.873672 145.178153 
L 163.241121 144.752072 
L 162.89418 144.244966 
L 162.841064 143.691397 
L 163.085246 143.127572 
L 163.625233 142.588982 
L 164.454427 142.108101 
L 165.561082 141.712305 
L 166.928376 141.422154 
L 168.534597 141.250126 
L 170.353455 141.199916 
L 172.354506 141.266314 
L 174.503688 141.435686 
L 176.763963 141.687017 
L 179.096036 141.993454 
L 181.459145 142.324225 
L 183.811891 142.646836 
L 186.113088 142.929371 
L 188.322605 143.142756 
L 190.402182 143.262837 
L 192.316182 143.272127 
L 194.032279 143.161107 
L 195.522044 142.928997 
L 196.761433 142.583935 
L 197.731146 142.142565 
L 198.416884 141.629044 
L 198.809472 141.073537 
z
" style="fill:#0000ff;stroke:#000000;stroke-linejoin:miter;"/>
   </g>
   <g id="patch_5">
    <path clip-path="url(#pe73d865884)" d="M 253.016346 135.31815 
L 252.81558 134.783334 
L 252.324523 134.312616 
L 251.553648 133.93886 
L 250.5177 133.68994 
L 249.23531 133.58685 
L 247.728589 133.642261 
L 246.022693 133.859592 
L 244.145383 134.232669 
L 242.126584 134.746001 
L 239.997958 135.375643 
L 237.792474 136.090607 
L 235.544002 136.854718 
L 233.286908 137.628811 
L 231.055656 138.373112 
L 228.884414 139.049661 
L 226.806652 139.62462 
L 224.854738 140.070316 
L 223.059519 140.366888 
L 221.449893 140.50343 
L 220.052374 140.47857 
L 218.890648 140.300432 
L 217.985141 139.986001 
L 217.352591 139.559919 
L 217.00565 139.052814 
L 216.952534 138.499244 
L 217.196715 137.935419 
L 217.736703 137.396829 
L 218.565897 136.915948 
L 219.672552 136.520153 
L 221.039845 136.230001 
L 222.646066 136.057973 
L 224.464925 136.007764 
L 226.465975 136.074162 
L 228.615158 136.243533 
L 230.875433 136.494865 
L 233.207506 136.801301 
L 235.570615 137.132073 
L 237.923361 137.454684 
L 240.224558 137.737219 
L 242.434075 137.950603 
L 244.513651 138.070684 
L 246.427651 138.079974 
L 248.143748 137.968955 
L 249.633514 137.736844 
L 250.872902 137.391782 
L 251.842615 136.950413 
L 252.528353 136.436891 
L 252.920941 135.881384 
z
" style="fill:#0000ff;stroke:#000000;stroke-linejoin:miter;"/>
   </g>
   <g id="patch_6">
    <path clip-path="url(#pe73d865884)" d="M 241.169159 144.646373 
L 176.235395 150.876956 
L 176.754611 156.288103 
L 241.688374 150.05752 
z
" style="fill:#999999;stroke:#000000;stroke-linejoin:miter;"/>
   </g>
   <g id="text_1">
    <!-- t = 0.7 -->
    <defs>
     <path d="M 18.3125 70.21875 
L 18.3125 54.6875 
L 36.8125 54.6875 
L 36.8125 47.703125 
L 18.3125 47.703125 
L 18.3125 18.015625 
Q 18.3125 11.328125 20.140625 9.421875 
Q 21.96875 7.515625 27.59375 7.515625 
L 36.8125 7.515625 
L 36.8125 0 
L 27.59375 0 
Q 17.1875 0 13.234375 3.875 
Q 9.28125 7.765625 9.28125 18.015625 
L 9.28125 47.703125 
L 2.6875 47.703125 
L 2.6875 54.6875 
L 9.28125 54.6875 
L 9.28125 70.21875 
z
" id="DejaVuSans-116"/>
     <path id="DejaVuSans-32"/>
     <path d="M 10.59375 45.40625 
L 73.1875 45.40625 
L 73.1875 37.203125 
L 10.59375 37.203125 
z
M 10.59375 25.484375 
L 73.1875 25.484375 
L 73.1875 17.1875 
L 10.59375 17.1875 
z
" id="DejaVuSans-61"/>
     <path d="M 31.78125 66.40625 
Q 24.171875 66.40625 20.328125 58.90625 
Q 16.5 51.421875 16.5 36.375 
Q 16.5 21.390625 20.328125 13.890625 
Q 24.171875 6.390625 31.78125 6.390625 
Q 39.453125 6.390625 43.28125 13.890625 
Q 47.125 21.390625 47.125 36.375 
Q 47.125 51.421875 43.28125 58.90625 
Q 39.453125 66.40625 31.78125 66.40625 
z
M 31.78125 74.21875 
Q 44.046875 74.21875 50.515625 64.515625 
Q 56.984375 54.828125 56.984375 36.375 
Q 56.984375 17.96875 50.515625 8.265625 
Q 44.046875 -1.421875 31.78125 -1.421875 
Q 19.53125 -1.421875 13.0625 8.265625 
Q 6.59375 17.96875 6.59375 36.375 
Q 6.59375 54.828125 13.0625 64.515625 
Q 19.53125 74.21875 31.78125 74.21875 
z
" id="DejaVuSans-48"/>
     <path d="M 10.6875 12.40625 
L 21 12.40625 
L 21 0 
L 10.6875 0 
z
" id="DejaVuSans-46"/>
     <path d="M 8.203125 72.90625 
L 55.078125 72.90625 
L 55.078125 68.703125 
L 28.609375 0 
L 18.3125 0 
L 43.21875 64.59375 
L 8.203125 64.59375 
z
" id="DejaVuSans-55"/>
    </defs>
    <g transform="translate(200.664375 28.56)scale(0.12 -0.12)">
     <use xlink:href="#DejaVuSans-116"/>
     <use x="39.208984" xlink:href="#DejaVuSans-32"/>
     <use x="70.996094" xlink:href="#DejaVuSans-61"/>
     <use x="154.785156" xlink:href="#DejaVuSans-32"/>
     <use x="186.572266" xlink:href="#DejaVuSans-48"/>
     <use x="250.195312" xlink:href="#DejaVuSans-46"/>
     <use x="281.982422" xlink:href="#DejaVuSans-55"/>
    </g>
   </g>
  </g>
 </g>
 <defs>
  <clipPath id="pe73d865884">
   <rect height="217.44" width="334.8" x="54" y="34.56"/>
  </clipPath>
 </defs>
</svg>
