<?xml version="1.0" encoding="utf-8" standalone="no"?>
<!DOCTYPE svg PUBLIC "-//W3C//DTD SVG 1.1//EN"
  "http://www.w3.org/Graphics/SVG/1.1/DTD/svg11.dtd">
<!-- Created with matplotlib (https://matplotlib.org/) -->
<svg height="288pt" version="1.1" viewBox="0 0 432 288" width="432pt" xmlns="http://www.w3.org/2000/svg" xmlns:xlink="http://www.w3.org/1999/xlink">
 <defs>
  <style type="text/css">
*{stroke-linecap:butt;stroke-linejoin:round;}
  </style>
 </defs>
 <g id="figure_1">
  <g id="patch_1">
   <path d="M 0 288 
L 432 288 
L 432 0 
L 0 0 
z
" style="fill:#ffffff;"/>
  </g>
  <g id="axes_1">
   <g id="patch_2">
    <path clip-path="url(#p0078452398)" d="M 191.244432 134.882355 
L 190.5698 145.733403 
L 189.484696 145.66594 
L 190.159327 134.814892 
z
" style="stroke:#000000;stroke-linejoin:miter;"/>
   </g>
   <g id="patch_3">
    <path clip-path="url(#p0078452398)" d="M 245.499675 138.255512 
L 244.825044 149.10656 
L 243.739939 149.039097 
L 244.41457 138.188049 
z
" style="stroke:#000000;stroke-linejoin:miter;"/>
   </g>
   <g id="patch_4">
    <path clip-path="url(#p0078452398)" d="M 208.78696 135.973009 
L 208.672707 135.413294 
L 208.261696 134.871276 
L 207.55911 134.381058 
L 206.57513 133.972482 
L 205.324859 133.669211 
L 203.828143 133.48723 
L 202.109286 133.433868 
L 200.196677 133.50739 
L 198.122302 133.697197 
L 195.921191 133.984617 
L 193.630773 134.344224 
L 191.290179 134.745616 
L 188.939503 135.155511 
L 186.619028 135.540043 
L 184.368461 135.867091 
L 182.226174 136.108498 
L 180.228479 136.242017 
L 178.40896 136.252879 
L 176.797871 136.134856 
L 175.42161 135.890756 
L 174.302295 135.532325 
L 173.457428 135.079544 
L 172.899669 134.55938 
L 172.636702 134.004068 
L 172.67121 133.449028 
L 173.000936 132.930564 
L 173.61883 132.483493 
L 174.513274 132.138849 
L 175.668366 131.921822 
L 177.064264 131.850073 
L 178.677566 131.932516 
L 180.481727 132.16867 
L 182.4475 132.548606 
L 184.543387 133.053508 
L 186.736113 133.656805 
L 188.991087 134.325802 
L 191.27289 135.023707 
L 193.54574 135.711926 
L 195.773977 136.352467 
L 197.922536 136.910314 
L 199.957425 137.355603 
L 201.8462 137.665464 
L 203.558429 137.82542 
L 205.06616 137.830232 
L 206.344368 137.684161 
L 207.371378 137.400612 
L 208.129275 137.001196 
L 208.604257 136.514261 
z
" style="fill:#0000ff;stroke:#000000;stroke-linejoin:miter;"/>
   </g>
   <g id="patch_5">
    <path clip-path="url(#p0078452398)" d="M 263.042204 139.346166 
L 262.92795 138.786451 
L 262.516939 138.244433 
L 261.814353 137.754215 
L 260.830373 137.345639 
L 259.580102 137.042368 
L 258.083386 136.860387 
L 256.36453 136.807025 
L 254.45192 136.880547 
L 252.377545 137.070354 
L 250.176434 137.357774 
L 247.886016 137.717381 
L 245.545423 138.118773 
L 243.194746 138.528668 
L 240.874271 138.9132 
L 238.623704 139.240248 
L 236.481417 139.481655 
L 234.483722 139.615174 
L 232.664204 139.626036 
L 231.053114 139.508013 
L 229.676853 139.263913 
L 228.557538 138.905482 
L 227.712672 138.452701 
L 227.154912 137.932537 
L 226.891945 137.377225 
L 226.926453 136.822184 
L 227.256179 136.303721 
L 227.874073 135.85665 
L 228.768517 135.512005 
L 229.92361 135.294979 
L 231.319507 135.22323 
L 232.932809 135.305673 
L 234.73697 135.541827 
L 236.702743 135.921763 
L 238.798631 136.426665 
L 240.991356 137.029962 
L 243.246331 137.698959 
L 245.528133 138.396864 
L 247.800983 139.085083 
L 250.02922 139.725624 
L 252.177779 140.283471 
L 254.212669 140.72876 
L 256.101443 141.038621 
L 257.813672 141.198577 
L 259.321403 141.203388 
L 260.599611 141.057317 
L 261.626621 140.773769 
L 262.384518 140.374353 
L 262.859501 139.887418 
z
" style="fill:#0000ff;stroke:#000000;stroke-linejoin:miter;"/>
   </g>
   <g id="patch_6">
    <path clip-path="url(#p0078452398)" d="M 249.876673 146.697382 
L 184.770382 142.649594 
L 184.433066 148.075118 
L 249.539358 152.122907 
z
" style="fill:#999999;stroke:#000000;stroke-linejoin:miter;"/>
   </g>
   <g id="text_1">
    <!-- t = 1.2 -->
    <defs>
     <path d="M 18.3125 70.21875 
L 18.3125 54.6875 
L 36.8125 54.6875 
L 36.8125 47.703125 
L 18.3125 47.703125 
L 18.3125 18.015625 
Q 18.3125 11.328125 20.140625 9.421875 
Q 21.96875 7.515625 27.59375 7.515625 
L 36.8125 7.515625 
L 36.8125 0 
L 27.59375 0 
Q 17.1875 0 13.234375 3.875 
Q 9.28125 7.765625 9.28125 18.015625 
L 9.28125 47.703125 
L 2.6875 47.703125 
L 2.6875 54.6875 
L 9.28125 54.6875 
L 9.28125 70.21875 
z
" id="DejaVuSans-116"/>
     <path id="DejaVuSans-32"/>
     <path d="M 10.59375 45.40625 
L 73.1875 45.40625 
L 73.1875 37.203125 
L 10.59375 37.203125 
z
M 10.59375 25.484375 
L 73.1875 25.484375 
L 73.1875 17.1875 
L 10.59375 17.1875 
z
" id="DejaVuSans-61"/>
     <path d="M 12.40625 8.296875 
L 28.515625 8.296875 
L 28.515625 63.921875 
L 10.984375 60.40625 
L 10.984375 69.390625 
L 28.421875 72.90625 
L 38.28125 72.90625 
L 38.28125 8.296875 
L 54.390625 8.296875 
L 54.390625 0 
L 12.40625 0 
z
" id="DejaVuSans-49"/>
     <path d="M 10.6875 12.40625 
L 21 12.40625 
L 21 0 
L 10.6875 0 
z
" id="DejaVuSans-46"/>
     <path d="M 19.1875 8.296875 
L 53.609375 8.296875 
L 53.609375 0 
L 7.328125 0 
L 7.328125 8.296875 
Q 12.9375 14.109375 22.625 23.890625 
Q 32.328125 33.6875 34.8125 36.53125 
Q 39.546875 41.84375 41.421875 45.53125 
Q 43.3125 49.21875 43.3125 52.78125 
Q 43.3125 58.59375 39.234375 62.25 
Q 35.15625 65.921875 28.609375 65.921875 
Q 23.96875 65.921875 18.8125 64.3125 
Q 13.671875 62.703125 7.8125 59.421875 
L 7.8125 69.390625 
Q 13.765625 71.78125 18.9375 73 
Q 24.125 74.21875 28.421875 74.21875 
Q 39.75 74.21875 46.484375 68.546875 
Q 53.21875 62.890625 53.21875 53.421875 
Q 53.21875 48.921875 51.53125 44.890625 
Q 49.859375 40.875 45.40625 35.40625 
Q 44.1875 33.984375 37.640625 27.21875 
Q 31.109375 20.453125 19.1875 8.296875 
z
" id="DejaVuSans-50"/>
    </defs>
    <g transform="translate(200.664375 28.56)scale(0.12 -0.12)">
     <use xlink:href="#DejaVuSans-116"/>
     <use x="39.208984" xlink:href="#DejaVuSans-32"/>
     <use x="70.996094" xlink:href="#DejaVuSans-61"/>
     <use x="154.785156" xlink:href="#DejaVuSans-32"/>
     <use x="186.572266" xlink:href="#DejaVuSans-49"/>
     <use x="250.195312" xlink:href="#DejaVuSans-46"/>
     <use x="281.982422" xlink:href="#DejaVuSans-50"/>
    </g>
   </g>
  </g>
 </g>
 <defs>
  <clipPath id="p0078452398">
   <rect height="217.44" width="334.8" x="54" y="34.56"/>
  </clipPath>
 </defs>
</svg>
