<?xml version="1.0" encoding="utf-8" standalone="no"?>
<!DOCTYPE svg PUBLIC "-//W3C//DTD SVG 1.1//EN"
  "http://www.w3.org/Graphics/SVG/1.1/DTD/svg11.dtd">
<!-- Created with matplotlib (https://matplotlib.org/) -->
<svg height="288pt" version="1.1" viewBox="0 0 432 288" width="432pt" xmlns="http://www.w3.org/2000/svg" xmlns:xlink="http://www.w3.org/1999/xlink">
 <defs>
  <style type="text/css">
*{stroke-linecap:butt;stroke-linejoin:round;}
  </style>
 </defs>
 <g id="figure_1">
  <g id="patch_1">
   <path d="M 0 288 
L 432 288 
L 432 0 
L 0 0 
z
" style="fill:#ffffff;"/>
  </g>
  <g id="axes_1">
   <g id="patch_2">
    <path clip-path="url(#p01b4fdbc43)" d="M 194.764758 132.395389 
L 194.755344 143.267384 
L 193.668145 143.266443 
L 193.677559 132.394447 
z
" style="stroke:#000000;stroke-linejoin:miter;"/>
   </g>
   <g id="patch_3">
    <path clip-path="url(#p01b4fdbc43)" d="M 249.124738 132.442459 
L 249.115324 143.314455 
L 248.028124 143.313513 
L 248.037538 132.441517 
z
" style="stroke:#000000;stroke-linejoin:miter;"/>
   </g>
   <g id="patch_4">
    <path clip-path="url(#p01b4fdbc43)" d="M 212.341152 132.410608 
L 212.192864 131.858933 
L 211.749459 131.343079 
L 211.018194 130.89677 
L 210.011058 130.549167 
L 208.744573 130.322965 
L 207.239526 130.232907 
L 205.520625 130.284818 
L 203.616098 130.475231 
L 201.557224 130.791609 
L 199.377824 131.213171 
L 197.113701 131.712251 
L 194.802053 132.256106 
L 192.480862 132.809066 
L 190.188264 133.334863 
L 187.961926 133.799006 
L 185.838424 134.171042 
L 183.852642 134.426546 
L 182.037197 134.548721 
L 180.421904 134.529498 
L 179.033286 134.370066 
L 177.894137 134.080795 
L 177.023149 133.680558 
L 176.434607 133.195497 
L 176.138154 132.657316 
L 176.138636 132.101204 
L 176.43602 131.563537 
L 177.025401 131.079496 
L 177.897081 130.680768 
L 179.036729 130.39347 
L 180.425622 130.236443 
L 182.040945 130.220018 
L 183.856175 130.345336 
L 185.841512 130.604279 
L 187.964367 130.979992 
L 190.189898 131.44799 
L 192.481582 131.977756 
L 194.801812 132.534735 
L 197.112514 133.082593 
L 199.375769 133.585593 
L 201.554436 134.010929 
L 203.612759 134.330872 
L 205.516954 134.524583 
L 207.235762 134.579471 
L 208.740963 134.492019 
L 210.007837 134.268011 
L 211.015574 133.922153 
L 211.747611 133.477111 
L 212.191909 132.962025 
z
" style="fill:#0000ff;stroke:#000000;stroke-linejoin:miter;"/>
   </g>
   <g id="patch_5">
    <path clip-path="url(#p01b4fdbc43)" d="M 266.701131 132.457678 
L 266.552844 131.906003 
L 266.109438 131.390149 
L 265.378173 130.94384 
L 264.371037 130.596237 
L 263.104552 130.370036 
L 261.599505 130.279977 
L 259.880605 130.331888 
L 257.976077 130.522301 
L 255.917203 130.838679 
L 253.737803 131.260242 
L 251.47368 131.759321 
L 249.162033 132.303177 
L 246.840842 132.856137 
L 244.548243 133.381933 
L 242.321905 133.846076 
L 240.198403 134.218113 
L 238.212621 134.473616 
L 236.397176 134.595791 
L 234.781884 134.576568 
L 233.393266 134.417136 
L 232.254116 134.127865 
L 231.383128 133.727628 
L 230.794586 133.242568 
L 230.498134 132.704386 
L 230.498615 132.148274 
L 230.795999 131.610607 
L 231.385381 131.126566 
L 232.25706 130.727838 
L 233.396709 130.44054 
L 234.785601 130.283514 
L 236.400925 130.267088 
L 238.216155 130.392406 
L 240.201492 130.651349 
L 242.324346 131.027062 
L 244.549877 131.49506 
L 246.841561 132.024826 
L 249.161792 132.581805 
L 251.472494 133.129663 
L 253.735749 133.632663 
L 255.914416 134.057999 
L 257.972739 134.377942 
L 259.876933 134.571653 
L 261.595742 134.626541 
L 263.100943 134.539089 
L 264.367817 134.315081 
L 265.375554 133.969223 
L 266.107591 133.524181 
L 266.551889 133.009095 
z
" style="fill:#0000ff;stroke:#000000;stroke-linejoin:miter;"/>
   </g>
   <g id="patch_6">
    <path clip-path="url(#p01b4fdbc43)" d="M 254.010076 140.600692 
L 188.7781 140.544208 
L 188.773393 145.980206 
L 254.005369 146.03669 
z
" style="fill:#999999;stroke:#000000;stroke-linejoin:miter;"/>
   </g>
   <g id="text_1">
    <!-- t = 3.0 -->
    <defs>
     <path d="M 18.3125 70.21875 
L 18.3125 54.6875 
L 36.8125 54.6875 
L 36.8125 47.703125 
L 18.3125 47.703125 
L 18.3125 18.015625 
Q 18.3125 11.328125 20.140625 9.421875 
Q 21.96875 7.515625 27.59375 7.515625 
L 36.8125 7.515625 
L 36.8125 0 
L 27.59375 0 
Q 17.1875 0 13.234375 3.875 
Q 9.28125 7.765625 9.28125 18.015625 
L 9.28125 47.703125 
L 2.6875 47.703125 
L 2.6875 54.6875 
L 9.28125 54.6875 
L 9.28125 70.21875 
z
" id="DejaVuSans-116"/>
     <path id="DejaVuSans-32"/>
     <path d="M 10.59375 45.40625 
L 73.1875 45.40625 
L 73.1875 37.203125 
L 10.59375 37.203125 
z
M 10.59375 25.484375 
L 73.1875 25.484375 
L 73.1875 17.1875 
L 10.59375 17.1875 
z
" id="DejaVuSans-61"/>
     <path d="M 40.578125 39.3125 
Q 47.65625 37.796875 51.625 33 
Q 55.609375 28.21875 55.609375 21.1875 
Q 55.609375 10.40625 48.1875 4.484375 
Q 40.765625 -1.421875 27.09375 -1.421875 
Q 22.515625 -1.421875 17.65625 -0.515625 
Q 12.796875 0.390625 7.625 2.203125 
L 7.625 11.71875 
Q 11.71875 9.328125 16.59375 8.109375 
Q 21.484375 6.890625 26.8125 6.890625 
Q 36.078125 6.890625 40.9375 10.546875 
Q 45.796875 14.203125 45.796875 21.1875 
Q 45.796875 27.640625 41.28125 31.265625 
Q 36.765625 34.90625 28.71875 34.90625 
L 20.21875 34.90625 
L 20.21875 43.015625 
L 29.109375 43.015625 
Q 36.375 43.015625 40.234375 45.921875 
Q 44.09375 48.828125 44.09375 54.296875 
Q 44.09375 59.90625 40.109375 62.90625 
Q 36.140625 65.921875 28.71875 65.921875 
Q 24.65625 65.921875 20.015625 65.03125 
Q 15.375 64.15625 9.8125 62.3125 
L 9.8125 71.09375 
Q 15.4375 72.65625 20.34375 73.4375 
Q 25.25 74.21875 29.59375 74.21875 
Q 40.828125 74.21875 47.359375 69.109375 
Q 53.90625 64.015625 53.90625 55.328125 
Q 53.90625 49.265625 50.4375 45.09375 
Q 46.96875 40.921875 40.578125 39.3125 
z
" id="DejaVuSans-51"/>
     <path d="M 10.6875 12.40625 
L 21 12.40625 
L 21 0 
L 10.6875 0 
z
" id="DejaVuSans-46"/>
     <path d="M 31.78125 66.40625 
Q 24.171875 66.40625 20.328125 58.90625 
Q 16.5 51.421875 16.5 36.375 
Q 16.5 21.390625 20.328125 13.890625 
Q 24.171875 6.390625 31.78125 6.390625 
Q 39.453125 6.390625 43.28125 13.890625 
Q 47.125 21.390625 47.125 36.375 
Q 47.125 51.421875 43.28125 58.90625 
Q 39.453125 66.40625 31.78125 66.40625 
z
M 31.78125 74.21875 
Q 44.046875 74.21875 50.515625 64.515625 
Q 56.984375 54.828125 56.984375 36.375 
Q 56.984375 17.96875 50.515625 8.265625 
Q 44.046875 -1.421875 31.78125 -1.421875 
Q 19.53125 -1.421875 13.0625 8.265625 
Q 6.59375 17.96875 6.59375 36.375 
Q 6.59375 54.828125 13.0625 64.515625 
Q 19.53125 74.21875 31.78125 74.21875 
z
" id="DejaVuSans-48"/>
    </defs>
    <g transform="translate(200.664375 28.56)scale(0.12 -0.12)">
     <use xlink:href="#DejaVuSans-116"/>
     <use x="39.208984" xlink:href="#DejaVuSans-32"/>
     <use x="70.996094" xlink:href="#DejaVuSans-61"/>
     <use x="154.785156" xlink:href="#DejaVuSans-32"/>
     <use x="186.572266" xlink:href="#DejaVuSans-51"/>
     <use x="250.195312" xlink:href="#DejaVuSans-46"/>
     <use x="281.982422" xlink:href="#DejaVuSans-48"/>
    </g>
   </g>
  </g>
 </g>
 <defs>
  <clipPath id="p01b4fdbc43">
   <rect height="217.44" width="334.8" x="54" y="34.56"/>
  </clipPath>
 </defs>
</svg>
