<?xml version="1.0" encoding="utf-8" standalone="no"?>
<!DOCTYPE svg PUBLIC "-//W3C//DTD SVG 1.1//EN"
  "http://www.w3.org/Graphics/SVG/1.1/DTD/svg11.dtd">
<!-- Created with matplotlib (https://matplotlib.org/) -->
<svg height="288pt" version="1.1" viewBox="0 0 432 288" width="432pt" xmlns="http://www.w3.org/2000/svg" xmlns:xlink="http://www.w3.org/1999/xlink">
 <defs>
  <style type="text/css">
*{stroke-linecap:butt;stroke-linejoin:round;}
  </style>
 </defs>
 <g id="figure_1">
  <g id="patch_1">
   <path d="M 0 288 
L 432 288 
L 432 0 
L 0 0 
z
" style="fill:#ffffff;"/>
  </g>
  <g id="axes_1">
   <g id="patch_2">
    <path clip-path="url(#p224e9643ba)" d="M 300.372385 100.112376 
L 297.754769 110.664554 
L 296.699551 110.402793 
L 299.317167 99.850614 
z
" style="stroke:#000000;stroke-linejoin:miter;"/>
   </g>
   <g id="patch_3">
    <path clip-path="url(#p224e9643ba)" d="M 353.133278 113.200454 
L 350.515662 123.752632 
L 349.460444 123.490871 
L 352.07806 112.938692 
z
" style="stroke:#000000;stroke-linejoin:miter;"/>
   </g>
   <g id="patch_4">
    <path clip-path="url(#p224e9643ba)" d="M 317.43174 104.344187 
L 317.420146 103.773048 
L 317.113458 103.165877 
L 316.510634 102.557154 
L 315.616314 101.978067 
L 314.441093 101.454609 
L 313.001614 101.006081 
L 311.320466 100.644066 
L 309.425883 100.371971 
L 307.351239 100.185131 
L 305.134353 100.071485 
L 302.81662 100.012764 
L 300.442008 99.98611 
L 298.055946 99.966004 
L 295.70416 99.926388 
L 293.43149 99.842818 
L 291.280752 99.694503 
L 289.291671 99.466103 
L 287.49994 99.149136 
L 285.936441 98.742924 
L 284.626634 98.254983 
L 283.590162 97.70085 
L 282.840642 97.10333 
L 282.385669 96.491231 
L 282.226999 95.897642 
L 282.360893 95.357889 
L 282.778591 94.907277 
L 283.466891 94.578782 
L 284.408775 94.400839 
L 285.584067 94.395365 
L 286.970066 94.576156 
L 288.542148 94.947769 
L 290.274291 95.504948 
L 292.139511 96.232662 
L 294.110216 97.106729 
L 296.158456 98.095021 
L 298.256098 99.159148 
L 300.374924 100.256542 
L 302.486687 101.342796 
L 304.563152 102.374118 
L 306.576133 103.309749 
L 308.497572 104.114193 
L 310.299671 104.759112 
L 311.955106 105.224784 
L 313.437324 105.501023 
L 314.72094 105.587514 
L 315.782222 105.493541 
L 316.599654 105.237133 
L 317.154557 104.843692 
z
" style="fill:#0000ff;stroke:#000000;stroke-linejoin:miter;"/>
   </g>
   <g id="patch_5">
    <path clip-path="url(#p224e9643ba)" d="M 370.192633 117.432266 
L 370.181038 116.861126 
L 369.874351 116.253955 
L 369.271527 115.645233 
L 368.377207 115.066145 
L 367.201986 114.542687 
L 365.762507 114.094159 
L 364.081359 113.732145 
L 362.186776 113.460049 
L 360.112132 113.273209 
L 357.895245 113.159563 
L 355.577513 113.100843 
L 353.202901 113.074188 
L 350.816839 113.054082 
L 348.465053 113.014466 
L 346.192383 112.930896 
L 344.041645 112.782581 
L 342.052564 112.554181 
L 340.260833 112.237214 
L 338.697333 111.831002 
L 337.387527 111.343061 
L 336.351055 110.788928 
L 335.601535 110.191408 
L 335.146562 109.579309 
L 334.987892 108.98572 
L 335.121785 108.445967 
L 335.539484 107.995355 
L 336.227784 107.66686 
L 337.169668 107.488917 
L 338.344959 107.483443 
L 339.730958 107.664234 
L 341.303041 108.035847 
L 343.035183 108.593026 
L 344.900404 109.32074 
L 346.871108 110.194807 
L 348.919349 111.183099 
L 351.016991 112.247226 
L 353.135816 113.34462 
L 355.24758 114.430874 
L 357.324045 115.462196 
L 359.337026 116.397827 
L 361.258465 117.202271 
L 363.060564 117.84719 
L 364.715999 118.312862 
L 366.198217 118.589101 
L 367.481833 118.675592 
L 368.543115 118.581619 
L 369.360547 118.325211 
L 369.91545 117.93177 
z
" style="fill:#0000ff;stroke:#000000;stroke-linejoin:miter;"/>
   </g>
   <g id="patch_6">
    <path clip-path="url(#p224e9643ba)" d="M 355.918546 122.292515 
L 292.605475 106.586821 
L 291.296667 111.86291 
L 354.609739 127.568604 
z
" style="fill:#999999;stroke:#000000;stroke-linejoin:miter;"/>
   </g>
   <g id="text_1">
    <!-- t = 0.5 -->
    <defs>
     <path d="M 18.3125 70.21875 
L 18.3125 54.6875 
L 36.8125 54.6875 
L 36.8125 47.703125 
L 18.3125 47.703125 
L 18.3125 18.015625 
Q 18.3125 11.328125 20.140625 9.421875 
Q 21.96875 7.515625 27.59375 7.515625 
L 36.8125 7.515625 
L 36.8125 0 
L 27.59375 0 
Q 17.1875 0 13.234375 3.875 
Q 9.28125 7.765625 9.28125 18.015625 
L 9.28125 47.703125 
L 2.6875 47.703125 
L 2.6875 54.6875 
L 9.28125 54.6875 
L 9.28125 70.21875 
z
" id="DejaVuSans-116"/>
     <path id="DejaVuSans-32"/>
     <path d="M 10.59375 45.40625 
L 73.1875 45.40625 
L 73.1875 37.203125 
L 10.59375 37.203125 
z
M 10.59375 25.484375 
L 73.1875 25.484375 
L 73.1875 17.1875 
L 10.59375 17.1875 
z
" id="DejaVuSans-61"/>
     <path d="M 31.78125 66.40625 
Q 24.171875 66.40625 20.328125 58.90625 
Q 16.5 51.421875 16.5 36.375 
Q 16.5 21.390625 20.328125 13.890625 
Q 24.171875 6.390625 31.78125 6.390625 
Q 39.453125 6.390625 43.28125 13.890625 
Q 47.125 21.390625 47.125 36.375 
Q 47.125 51.421875 43.28125 58.90625 
Q 39.453125 66.40625 31.78125 66.40625 
z
M 31.78125 74.21875 
Q 44.046875 74.21875 50.515625 64.515625 
Q 56.984375 54.828125 56.984375 36.375 
Q 56.984375 17.96875 50.515625 8.265625 
Q 44.046875 -1.421875 31.78125 -1.421875 
Q 19.53125 -1.421875 13.0625 8.265625 
Q 6.59375 17.96875 6.59375 36.375 
Q 6.59375 54.828125 13.0625 64.515625 
Q 19.53125 74.21875 31.78125 74.21875 
z
" id="DejaVuSans-48"/>
     <path d="M 10.6875 12.40625 
L 21 12.40625 
L 21 0 
L 10.6875 0 
z
" id="DejaVuSans-46"/>
     <path d="M 10.796875 72.90625 
L 49.515625 72.90625 
L 49.515625 64.59375 
L 19.828125 64.59375 
L 19.828125 46.734375 
Q 21.96875 47.46875 24.109375 47.828125 
Q 26.265625 48.1875 28.421875 48.1875 
Q 40.625 48.1875 47.75 41.5 
Q 54.890625 34.8125 54.890625 23.390625 
Q 54.890625 11.625 47.5625 5.09375 
Q 40.234375 -1.421875 26.90625 -1.421875 
Q 22.3125 -1.421875 17.546875 -0.640625 
Q 12.796875 0.140625 7.71875 1.703125 
L 7.71875 11.625 
Q 12.109375 9.234375 16.796875 8.0625 
Q 21.484375 6.890625 26.703125 6.890625 
Q 35.15625 6.890625 40.078125 11.328125 
Q 45.015625 15.765625 45.015625 23.390625 
Q 45.015625 31 40.078125 35.4375 
Q 35.15625 39.890625 26.703125 39.890625 
Q 22.75 39.890625 18.8125 39.015625 
Q 14.890625 38.140625 10.796875 36.28125 
z
" id="DejaVuSans-53"/>
    </defs>
    <g transform="translate(200.664375 28.56)scale(0.12 -0.12)">
     <use xlink:href="#DejaVuSans-116"/>
     <use x="39.208984" xlink:href="#DejaVuSans-32"/>
     <use x="70.996094" xlink:href="#DejaVuSans-61"/>
     <use x="154.785156" xlink:href="#DejaVuSans-32"/>
     <use x="186.572266" xlink:href="#DejaVuSans-48"/>
     <use x="250.195312" xlink:href="#DejaVuSans-46"/>
     <use x="281.982422" xlink:href="#DejaVuSans-53"/>
    </g>
   </g>
  </g>
 </g>
 <defs>
  <clipPath id="p224e9643ba">
   <rect height="217.44" width="334.8" x="54" y="34.56"/>
  </clipPath>
 </defs>
</svg>
