<?xml version="1.0" encoding="utf-8" standalone="no"?>
<!DOCTYPE svg PUBLIC "-//W3C//DTD SVG 1.1//EN"
  "http://www.w3.org/Graphics/SVG/1.1/DTD/svg11.dtd">
<!-- Created with matplotlib (https://matplotlib.org/) -->
<svg height="288pt" version="1.1" viewBox="0 0 432 288" width="432pt" xmlns="http://www.w3.org/2000/svg" xmlns:xlink="http://www.w3.org/1999/xlink">
 <defs>
  <style type="text/css">
*{stroke-linecap:butt;stroke-linejoin:round;}
  </style>
 </defs>
 <g id="figure_1">
  <g id="patch_1">
   <path d="M 0 288 
L 432 288 
L 432 0 
L 0 0 
z
" style="fill:#ffffff;"/>
  </g>
  <g id="axes_1">
   <g id="patch_2">
    <path clip-path="url(#p079c07ee8c)" d="M 194.491384 132.544775 
L 194.527368 143.416716 
L 193.440174 143.420314 
L 193.40419 132.548374 
z
" style="stroke:#000000;stroke-linejoin:miter;"/>
   </g>
   <g id="patch_3">
    <path clip-path="url(#p079c07ee8c)" d="M 248.851086 132.364852 
L 248.887071 143.236792 
L 247.799877 143.240391 
L 247.763892 132.36845 
z
" style="stroke:#000000;stroke-linejoin:miter;"/>
   </g>
   <g id="patch_4">
    <path clip-path="url(#p079c07ee8c)" d="M 212.067688 132.4866 
L 211.917098 131.935549 
L 211.471542 131.421551 
L 210.73842 130.978299 
L 209.729841 130.634905 
L 208.462423 130.413994 
L 206.957012 130.330221 
L 205.238344 130.389309 
L 203.334628 130.587673 
L 201.277093 130.912646 
L 199.099472 131.343305 
L 196.837453 131.851835 
L 194.528097 132.405339 
L 192.209235 132.967986 
L 189.918852 133.503352 
L 187.694472 133.976788 
L 185.572542 134.357688 
L 183.587844 134.621481 
L 181.772925 134.751236 
L 180.157566 134.738758 
L 178.768294 134.585126 
L 177.627947 134.300615 
L 176.755295 133.904018 
L 176.164733 133.421419 
L 175.866036 132.88448 
L 175.864195 132.328371 
L 176.159331 131.789467 
L 176.746686 131.302969 
L 177.616694 130.900604 
L 178.755133 130.60855 
L 180.143357 130.445725 
L 181.758598 130.422555 
L 183.574336 130.540292 
L 185.560736 130.790942 
L 187.685141 131.157787 
L 189.912607 131.616488 
L 192.206483 132.13668 
L 194.529019 132.683966 
L 196.841989 133.22217 
L 199.107325 133.715715 
L 201.287748 134.131949 
L 203.347389 134.443295 
L 205.252377 134.629053 
L 206.971399 134.676763 
L 208.476222 134.583026 
L 209.74215 134.35373 
L 210.748433 134.003667 
L 211.478605 133.555572 
L 211.920749 133.038636 
z
" style="fill:#0000ff;stroke:#000000;stroke-linejoin:miter;"/>
   </g>
   <g id="patch_5">
    <path clip-path="url(#p079c07ee8c)" d="M 266.42739 132.306677 
L 266.2768 131.755626 
L 265.831244 131.241628 
L 265.098122 130.798376 
L 264.089543 130.454982 
L 262.822125 130.234071 
L 261.316715 130.150298 
L 259.598046 130.209386 
L 257.69433 130.40775 
L 255.636795 130.732723 
L 253.459174 131.163382 
L 251.197155 131.671912 
L 248.887799 132.225415 
L 246.568937 132.788063 
L 244.278554 133.323428 
L 242.054174 133.796864 
L 239.932244 134.177764 
L 237.947546 134.441558 
L 236.132627 134.571312 
L 234.517268 134.558835 
L 233.127997 134.405203 
L 231.987649 134.120691 
L 231.114998 133.724095 
L 230.524435 133.241496 
L 230.225738 132.704557 
L 230.223897 132.148448 
L 230.519034 131.609543 
L 231.106389 131.123046 
L 231.976396 130.720681 
L 233.114835 130.428627 
L 234.503059 130.265802 
L 236.1183 130.242631 
L 237.934038 130.360369 
L 239.920438 130.611019 
L 242.044843 130.977864 
L 244.272309 131.436565 
L 246.566186 131.956757 
L 248.888722 132.504042 
L 251.201691 133.042247 
L 253.467027 133.535791 
L 255.647451 133.952026 
L 257.707092 134.263372 
L 259.612079 134.449129 
L 261.331101 134.496839 
L 262.835924 134.403103 
L 264.101852 134.173806 
L 265.108135 133.823744 
L 265.838308 133.375649 
L 266.280451 132.858713 
z
" style="fill:#0000ff;stroke:#000000;stroke-linejoin:miter;"/>
   </g>
   <g id="patch_6">
    <path clip-path="url(#p079c07ee8c)" d="M 253.770448 140.502614 
L 188.538805 140.718522 
L 188.556797 146.154492 
L 253.78844 145.938584 
z
" style="fill:#999999;stroke:#000000;stroke-linejoin:miter;"/>
   </g>
   <g id="text_1">
    <!-- t = 2.5 -->
    <defs>
     <path d="M 18.3125 70.21875 
L 18.3125 54.6875 
L 36.8125 54.6875 
L 36.8125 47.703125 
L 18.3125 47.703125 
L 18.3125 18.015625 
Q 18.3125 11.328125 20.140625 9.421875 
Q 21.96875 7.515625 27.59375 7.515625 
L 36.8125 7.515625 
L 36.8125 0 
L 27.59375 0 
Q 17.1875 0 13.234375 3.875 
Q 9.28125 7.765625 9.28125 18.015625 
L 9.28125 47.703125 
L 2.6875 47.703125 
L 2.6875 54.6875 
L 9.28125 54.6875 
L 9.28125 70.21875 
z
" id="DejaVuSans-116"/>
     <path id="DejaVuSans-32"/>
     <path d="M 10.59375 45.40625 
L 73.1875 45.40625 
L 73.1875 37.203125 
L 10.59375 37.203125 
z
M 10.59375 25.484375 
L 73.1875 25.484375 
L 73.1875 17.1875 
L 10.59375 17.1875 
z
" id="DejaVuSans-61"/>
     <path d="M 19.1875 8.296875 
L 53.609375 8.296875 
L 53.609375 0 
L 7.328125 0 
L 7.328125 8.296875 
Q 12.9375 14.109375 22.625 23.890625 
Q 32.328125 33.6875 34.8125 36.53125 
Q 39.546875 41.84375 41.421875 45.53125 
Q 43.3125 49.21875 43.3125 52.78125 
Q 43.3125 58.59375 39.234375 62.25 
Q 35.15625 65.921875 28.609375 65.921875 
Q 23.96875 65.921875 18.8125 64.3125 
Q 13.671875 62.703125 7.8125 59.421875 
L 7.8125 69.390625 
Q 13.765625 71.78125 18.9375 73 
Q 24.125 74.21875 28.421875 74.21875 
Q 39.75 74.21875 46.484375 68.546875 
Q 53.21875 62.890625 53.21875 53.421875 
Q 53.21875 48.921875 51.53125 44.890625 
Q 49.859375 40.875 45.40625 35.40625 
Q 44.1875 33.984375 37.640625 27.21875 
Q 31.109375 20.453125 19.1875 8.296875 
z
" id="DejaVuSans-50"/>
     <path d="M 10.6875 12.40625 
L 21 12.40625 
L 21 0 
L 10.6875 0 
z
" id="DejaVuSans-46"/>
     <path d="M 10.796875 72.90625 
L 49.515625 72.90625 
L 49.515625 64.59375 
L 19.828125 64.59375 
L 19.828125 46.734375 
Q 21.96875 47.46875 24.109375 47.828125 
Q 26.265625 48.1875 28.421875 48.1875 
Q 40.625 48.1875 47.75 41.5 
Q 54.890625 34.8125 54.890625 23.390625 
Q 54.890625 11.625 47.5625 5.09375 
Q 40.234375 -1.421875 26.90625 -1.421875 
Q 22.3125 -1.421875 17.546875 -0.640625 
Q 12.796875 0.140625 7.71875 1.703125 
L 7.71875 11.625 
Q 12.109375 9.234375 16.796875 8.0625 
Q 21.484375 6.890625 26.703125 6.890625 
Q 35.15625 6.890625 40.078125 11.328125 
Q 45.015625 15.765625 45.015625 23.390625 
Q 45.015625 31 40.078125 35.4375 
Q 35.15625 39.890625 26.703125 39.890625 
Q 22.75 39.890625 18.8125 39.015625 
Q 14.890625 38.140625 10.796875 36.28125 
z
" id="DejaVuSans-53"/>
    </defs>
    <g transform="translate(200.664375 28.56)scale(0.12 -0.12)">
     <use xlink:href="#DejaVuSans-116"/>
     <use x="39.208984" xlink:href="#DejaVuSans-32"/>
     <use x="70.996094" xlink:href="#DejaVuSans-61"/>
     <use x="154.785156" xlink:href="#DejaVuSans-32"/>
     <use x="186.572266" xlink:href="#DejaVuSans-50"/>
     <use x="250.195312" xlink:href="#DejaVuSans-46"/>
     <use x="281.982422" xlink:href="#DejaVuSans-53"/>
    </g>
   </g>
  </g>
 </g>
 <defs>
  <clipPath id="p079c07ee8c">
   <rect height="217.44" width="334.8" x="54" y="34.56"/>
  </clipPath>
 </defs>
</svg>
