<?xml version="1.0" encoding="utf-8" standalone="no"?>
<!DOCTYPE svg PUBLIC "-//W3C//DTD SVG 1.1//EN"
  "http://www.w3.org/Graphics/SVG/1.1/DTD/svg11.dtd">
<!-- Created with matplotlib (https://matplotlib.org/) -->
<svg height="288pt" version="1.1" viewBox="0 0 432 288" width="432pt" xmlns="http://www.w3.org/2000/svg" xmlns:xlink="http://www.w3.org/1999/xlink">
 <defs>
  <style type="text/css">
*{stroke-linecap:butt;stroke-linejoin:round;}
  </style>
 </defs>
 <g id="figure_1">
  <g id="patch_1">
   <path d="M 0 288 
L 432 288 
L 432 0 
L 0 0 
z
" style="fill:#ffffff;"/>
  </g>
  <g id="axes_1">
   <g id="patch_2">
    <path clip-path="url(#p0bf2e7099d)" d="M 194.697412 132.469469 
L 194.714835 143.341455 
L 193.627637 143.343197 
L 193.610214 132.471211 
z
" style="stroke:#000000;stroke-linejoin:miter;"/>
   </g>
   <g id="patch_3">
    <path clip-path="url(#p0bf2e7099d)" d="M 249.057342 132.382354 
L 249.074765 143.25434 
L 247.987567 143.256082 
L 247.970144 132.384096 
z
" style="stroke:#000000;stroke-linejoin:miter;"/>
   </g>
   <g id="patch_4">
    <path clip-path="url(#p0bf2e7099d)" d="M 212.27379 132.441302 
L 212.124141 131.889994 
L 211.679463 131.375236 
L 210.947099 130.930734 
L 209.939108 130.585618 
L 208.672069 130.362544 
L 207.166804 130.2762 
L 205.448036 130.332354 
L 203.543985 130.527468 
L 201.485898 130.848927 
L 199.307545 131.275868 
L 197.044661 131.780535 
L 194.734364 132.330095 
L 192.414544 132.888783 
L 190.123251 133.420237 
L 187.898065 133.889875 
L 185.775488 134.267151 
L 183.790343 134.527556 
L 181.975205 134.654212 
L 180.35987 134.638976 
L 178.970862 134.482973 
L 177.831002 134.196515 
L 176.959029 133.798429 
L 176.369291 133.314822 
L 176.071511 132.777374 
L 176.07062 132.221263 
L 176.366676 131.682863 
L 176.954861 131.197369 
L 177.825554 130.79649 
L 178.96449 130.50638 
L 180.35299 130.345926 
L 181.968268 130.325513 
L 183.783802 130.44635 
L 185.769772 130.700391 
L 187.893547 131.070863 
L 190.120227 131.533366 
L 192.413212 132.057473 
L 194.73481 132.608723 
L 197.046857 133.150876 
L 199.311347 133.648287 
L 201.491057 134.068244 
L 203.550164 134.383106 
L 205.454831 134.572115 
L 207.173769 134.62276 
L 208.67875 134.531593 
L 209.945067 134.304458 
L 210.951947 133.956114 
L 211.682883 133.509266 
L 212.125909 132.993086 
z
" style="fill:#0000ff;stroke:#000000;stroke-linejoin:miter;"/>
   </g>
   <g id="patch_5">
    <path clip-path="url(#p0bf2e7099d)" d="M 266.63372 132.354187 
L 266.484071 131.80288 
L 266.039394 131.288122 
L 265.307029 130.843619 
L 264.299038 130.498504 
L 263.031999 130.275429 
L 261.526734 130.189086 
L 259.807967 130.24524 
L 257.903915 130.440353 
L 255.845828 130.761813 
L 253.667475 131.188753 
L 251.404591 131.69342 
L 249.094294 132.24298 
L 246.774474 132.801668 
L 244.483181 133.333122 
L 242.257995 133.80276 
L 240.135418 134.180037 
L 238.150273 134.440442 
L 236.335135 134.567097 
L 234.7198 134.551862 
L 233.330793 134.395858 
L 232.190933 134.1094 
L 231.318959 133.711314 
L 230.729222 133.227707 
L 230.431441 132.69026 
L 230.43055 132.134148 
L 230.726606 131.595748 
L 231.314791 131.110254 
L 232.185484 130.709376 
L 233.32442 130.419266 
L 234.71292 130.258811 
L 236.328198 130.238398 
L 238.143732 130.359235 
L 240.129702 130.613276 
L 242.253478 130.983748 
L 244.480157 131.446251 
L 246.773142 131.970359 
L 249.09474 132.521609 
L 251.406788 133.063761 
L 253.671277 133.561173 
L 255.850987 133.981129 
L 257.910094 134.295991 
L 259.814761 134.485001 
L 261.533699 134.535646 
L 263.03868 134.444478 
L 264.304998 134.217344 
L 265.311877 133.868999 
L 266.042813 133.422152 
L 266.485839 132.905971 
z
" style="fill:#0000ff;stroke:#000000;stroke-linejoin:miter;"/>
   </g>
   <g id="patch_6">
    <path clip-path="url(#p0bf2e7099d)" d="M 253.962803 140.528503 
L 188.730887 140.633041 
L 188.739599 146.069034 
L 253.971515 145.964496 
z
" style="fill:#999999;stroke:#000000;stroke-linejoin:miter;"/>
   </g>
   <g id="text_1">
    <!-- t = 2.8 -->
    <defs>
     <path d="M 18.3125 70.21875 
L 18.3125 54.6875 
L 36.8125 54.6875 
L 36.8125 47.703125 
L 18.3125 47.703125 
L 18.3125 18.015625 
Q 18.3125 11.328125 20.140625 9.421875 
Q 21.96875 7.515625 27.59375 7.515625 
L 36.8125 7.515625 
L 36.8125 0 
L 27.59375 0 
Q 17.1875 0 13.234375 3.875 
Q 9.28125 7.765625 9.28125 18.015625 
L 9.28125 47.703125 
L 2.6875 47.703125 
L 2.6875 54.6875 
L 9.28125 54.6875 
L 9.28125 70.21875 
z
" id="DejaVuSans-116"/>
     <path id="DejaVuSans-32"/>
     <path d="M 10.59375 45.40625 
L 73.1875 45.40625 
L 73.1875 37.203125 
L 10.59375 37.203125 
z
M 10.59375 25.484375 
L 73.1875 25.484375 
L 73.1875 17.1875 
L 10.59375 17.1875 
z
" id="DejaVuSans-61"/>
     <path d="M 19.1875 8.296875 
L 53.609375 8.296875 
L 53.609375 0 
L 7.328125 0 
L 7.328125 8.296875 
Q 12.9375 14.109375 22.625 23.890625 
Q 32.328125 33.6875 34.8125 36.53125 
Q 39.546875 41.84375 41.421875 45.53125 
Q 43.3125 49.21875 43.3125 52.78125 
Q 43.3125 58.59375 39.234375 62.25 
Q 35.15625 65.921875 28.609375 65.921875 
Q 23.96875 65.921875 18.8125 64.3125 
Q 13.671875 62.703125 7.8125 59.421875 
L 7.8125 69.390625 
Q 13.765625 71.78125 18.9375 73 
Q 24.125 74.21875 28.421875 74.21875 
Q 39.75 74.21875 46.484375 68.546875 
Q 53.21875 62.890625 53.21875 53.421875 
Q 53.21875 48.921875 51.53125 44.890625 
Q 49.859375 40.875 45.40625 35.40625 
Q 44.1875 33.984375 37.640625 27.21875 
Q 31.109375 20.453125 19.1875 8.296875 
z
" id="DejaVuSans-50"/>
     <path d="M 10.6875 12.40625 
L 21 12.40625 
L 21 0 
L 10.6875 0 
z
" id="DejaVuSans-46"/>
     <path d="M 31.78125 34.625 
Q 24.75 34.625 20.71875 30.859375 
Q 16.703125 27.09375 16.703125 20.515625 
Q 16.703125 13.921875 20.71875 10.15625 
Q 24.75 6.390625 31.78125 6.390625 
Q 38.8125 6.390625 42.859375 10.171875 
Q 46.921875 13.96875 46.921875 20.515625 
Q 46.921875 27.09375 42.890625 30.859375 
Q 38.875 34.625 31.78125 34.625 
z
M 21.921875 38.8125 
Q 15.578125 40.375 12.03125 44.71875 
Q 8.5 49.078125 8.5 55.328125 
Q 8.5 64.0625 14.71875 69.140625 
Q 20.953125 74.21875 31.78125 74.21875 
Q 42.671875 74.21875 48.875 69.140625 
Q 55.078125 64.0625 55.078125 55.328125 
Q 55.078125 49.078125 51.53125 44.71875 
Q 48 40.375 41.703125 38.8125 
Q 48.828125 37.15625 52.796875 32.3125 
Q 56.78125 27.484375 56.78125 20.515625 
Q 56.78125 9.90625 50.3125 4.234375 
Q 43.84375 -1.421875 31.78125 -1.421875 
Q 19.734375 -1.421875 13.25 4.234375 
Q 6.78125 9.90625 6.78125 20.515625 
Q 6.78125 27.484375 10.78125 32.3125 
Q 14.796875 37.15625 21.921875 38.8125 
z
M 18.3125 54.390625 
Q 18.3125 48.734375 21.84375 45.5625 
Q 25.390625 42.390625 31.78125 42.390625 
Q 38.140625 42.390625 41.71875 45.5625 
Q 45.3125 48.734375 45.3125 54.390625 
Q 45.3125 60.0625 41.71875 63.234375 
Q 38.140625 66.40625 31.78125 66.40625 
Q 25.390625 66.40625 21.84375 63.234375 
Q 18.3125 60.0625 18.3125 54.390625 
z
" id="DejaVuSans-56"/>
    </defs>
    <g transform="translate(200.664375 28.56)scale(0.12 -0.12)">
     <use xlink:href="#DejaVuSans-116"/>
     <use x="39.208984" xlink:href="#DejaVuSans-32"/>
     <use x="70.996094" xlink:href="#DejaVuSans-61"/>
     <use x="154.785156" xlink:href="#DejaVuSans-32"/>
     <use x="186.572266" xlink:href="#DejaVuSans-50"/>
     <use x="250.195312" xlink:href="#DejaVuSans-46"/>
     <use x="281.982422" xlink:href="#DejaVuSans-56"/>
    </g>
   </g>
  </g>
 </g>
 <defs>
  <clipPath id="p0bf2e7099d">
   <rect height="217.44" width="334.8" x="54" y="34.56"/>
  </clipPath>
 </defs>
</svg>
