<?xml version="1.0" encoding="utf-8" standalone="no"?>
<!DOCTYPE svg PUBLIC "-//W3C//DTD SVG 1.1//EN"
  "http://www.w3.org/Graphics/SVG/1.1/DTD/svg11.dtd">
<!-- Created with matplotlib (https://matplotlib.org/) -->
<svg height="288pt" version="1.1" viewBox="0 0 432 288" width="432pt" xmlns="http://www.w3.org/2000/svg" xmlns:xlink="http://www.w3.org/1999/xlink">
 <defs>
  <style type="text/css">
*{stroke-linecap:butt;stroke-linejoin:round;}
  </style>
 </defs>
 <g id="figure_1">
  <g id="patch_1">
   <path d="M 0 288 
L 432 288 
L 432 0 
L 0 0 
z
" style="fill:#ffffff;"/>
  </g>
  <g id="axes_1">
   <g id="patch_2">
    <path clip-path="url(#p21a3bce6e1)" d="M 194.833181 132.399912 
L 194.826766 143.27191 
L 193.739566 143.271269 
L 193.745981 132.399271 
z
" style="stroke:#000000;stroke-linejoin:miter;"/>
   </g>
   <g id="patch_3">
    <path clip-path="url(#p21a3bce6e1)" d="M 249.193171 132.431985 
L 249.186757 143.303983 
L 248.099557 143.303342 
L 248.105972 132.431343 
z
" style="stroke:#000000;stroke-linejoin:miter;"/>
   </g>
   <g id="patch_4">
    <path clip-path="url(#p21a3bce6e1)" d="M 212.409578 132.410282 
L 212.261138 131.858648 
L 211.81759 131.342917 
L 211.086202 130.896809 
L 210.07897 130.549485 
L 208.812423 130.323632 
L 207.307351 130.233989 
L 205.588465 130.286374 
L 203.68399 130.477312 
L 201.625203 130.794259 
L 199.44592 131.216423 
L 197.181935 131.716127 
L 194.870438 132.26062 
L 192.549399 132.81422 
L 190.256946 133.340649 
L 188.030736 133.805407 
L 185.907336 134.178029 
L 183.921625 134.434081 
L 182.106214 134.556756 
L 180.490916 134.537979 
L 179.102254 134.37893 
L 177.963025 134.089974 
L 177.091926 133.689977 
L 176.503251 133.205078 
L 176.206649 132.666979 
L 176.206978 132.110867 
L 176.504213 131.573118 
L 177.093461 131.088914 
L 177.965031 130.689945 
L 179.1046 130.402333 
L 180.493449 130.244923 
L 182.108768 130.228052 
L 183.924033 130.35287 
L 185.909441 130.611264 
L 188.032399 130.986392 
L 190.258059 131.453776 
L 192.549889 131.98291 
L 194.870273 132.539249 
L 197.181126 133.086469 
L 199.44452 133.588844 
L 201.623304 134.013579 
L 203.681715 134.332955 
L 205.585963 134.52614 
L 207.304787 134.580554 
L 208.809963 134.492686 
L 210.076776 134.268329 
L 211.084417 133.922193 
L 211.816331 133.476949 
L 212.260487 132.961741 
z
" style="fill:#0000ff;stroke:#000000;stroke-linejoin:miter;"/>
   </g>
   <g id="patch_5">
    <path clip-path="url(#p21a3bce6e1)" d="M 266.769568 132.442355 
L 266.621129 131.890721 
L 266.177581 131.374989 
L 265.446193 130.928882 
L 264.438961 130.581557 
L 263.172414 130.355705 
L 261.667342 130.266061 
L 259.948455 130.318447 
L 258.043981 130.509385 
L 255.985194 130.826331 
L 253.80591 131.248495 
L 251.541925 131.748199 
L 249.230428 132.292693 
L 246.909389 132.846293 
L 244.616936 133.372722 
L 242.390726 133.837479 
L 240.267327 134.210101 
L 238.281615 134.466153 
L 236.466204 134.588829 
L 234.850907 134.570051 
L 233.462245 134.411003 
L 232.323015 134.122046 
L 231.451917 133.722049 
L 230.863241 133.237151 
L 230.56664 132.699051 
L 230.566968 132.142939 
L 230.864204 131.60519 
L 231.453452 131.120987 
L 232.325021 130.722018 
L 233.464591 130.434406 
L 234.85344 130.276996 
L 236.468758 130.260125 
L 238.284023 130.384942 
L 240.269431 130.643337 
L 242.392389 131.018464 
L 244.618049 131.485849 
L 246.90988 132.014982 
L 249.230264 132.571321 
L 251.541117 133.118542 
L 253.804511 133.620917 
L 255.983295 134.045652 
L 258.041706 134.365027 
L 259.945954 134.558213 
L 261.664777 134.612626 
L 263.169954 134.524759 
L 264.436767 134.300401 
L 265.444408 133.954266 
L 266.176322 133.509021 
L 266.620478 132.993814 
z
" style="fill:#0000ff;stroke:#000000;stroke-linejoin:miter;"/>
   </g>
   <g id="patch_6">
    <path clip-path="url(#p21a3bce6e1)" d="M 254.08076 140.58887 
L 188.848771 140.550383 
L 188.845564 145.986382 
L 254.077552 146.024869 
z
" style="fill:#999999;stroke:#000000;stroke-linejoin:miter;"/>
   </g>
   <g id="text_1">
    <!-- t = 2.7 -->
    <defs>
     <path d="M 18.3125 70.21875 
L 18.3125 54.6875 
L 36.8125 54.6875 
L 36.8125 47.703125 
L 18.3125 47.703125 
L 18.3125 18.015625 
Q 18.3125 11.328125 20.140625 9.421875 
Q 21.96875 7.515625 27.59375 7.515625 
L 36.8125 7.515625 
L 36.8125 0 
L 27.59375 0 
Q 17.1875 0 13.234375 3.875 
Q 9.28125 7.765625 9.28125 18.015625 
L 9.28125 47.703125 
L 2.6875 47.703125 
L 2.6875 54.6875 
L 9.28125 54.6875 
L 9.28125 70.21875 
z
" id="DejaVuSans-116"/>
     <path id="DejaVuSans-32"/>
     <path d="M 10.59375 45.40625 
L 73.1875 45.40625 
L 73.1875 37.203125 
L 10.59375 37.203125 
z
M 10.59375 25.484375 
L 73.1875 25.484375 
L 73.1875 17.1875 
L 10.59375 17.1875 
z
" id="DejaVuSans-61"/>
     <path d="M 19.1875 8.296875 
L 53.609375 8.296875 
L 53.609375 0 
L 7.328125 0 
L 7.328125 8.296875 
Q 12.9375 14.109375 22.625 23.890625 
Q 32.328125 33.6875 34.8125 36.53125 
Q 39.546875 41.84375 41.421875 45.53125 
Q 43.3125 49.21875 43.3125 52.78125 
Q 43.3125 58.59375 39.234375 62.25 
Q 35.15625 65.921875 28.609375 65.921875 
Q 23.96875 65.921875 18.8125 64.3125 
Q 13.671875 62.703125 7.8125 59.421875 
L 7.8125 69.390625 
Q 13.765625 71.78125 18.9375 73 
Q 24.125 74.21875 28.421875 74.21875 
Q 39.75 74.21875 46.484375 68.546875 
Q 53.21875 62.890625 53.21875 53.421875 
Q 53.21875 48.921875 51.53125 44.890625 
Q 49.859375 40.875 45.40625 35.40625 
Q 44.1875 33.984375 37.640625 27.21875 
Q 31.109375 20.453125 19.1875 8.296875 
z
" id="DejaVuSans-50"/>
     <path d="M 10.6875 12.40625 
L 21 12.40625 
L 21 0 
L 10.6875 0 
z
" id="DejaVuSans-46"/>
     <path d="M 8.203125 72.90625 
L 55.078125 72.90625 
L 55.078125 68.703125 
L 28.609375 0 
L 18.3125 0 
L 43.21875 64.59375 
L 8.203125 64.59375 
z
" id="DejaVuSans-55"/>
    </defs>
    <g transform="translate(200.664375 28.56)scale(0.12 -0.12)">
     <use xlink:href="#DejaVuSans-116"/>
     <use x="39.208984" xlink:href="#DejaVuSans-32"/>
     <use x="70.996094" xlink:href="#DejaVuSans-61"/>
     <use x="154.785156" xlink:href="#DejaVuSans-32"/>
     <use x="186.572266" xlink:href="#DejaVuSans-50"/>
     <use x="250.195312" xlink:href="#DejaVuSans-46"/>
     <use x="281.982422" xlink:href="#DejaVuSans-55"/>
    </g>
   </g>
  </g>
 </g>
 <defs>
  <clipPath id="p21a3bce6e1">
   <rect height="217.44" width="334.8" x="54" y="34.56"/>
  </clipPath>
 </defs>
</svg>
