<?xml version="1.0" encoding="utf-8" standalone="no"?>
<!DOCTYPE svg PUBLIC "-//W3C//DTD SVG 1.1//EN"
  "http://www.w3.org/Graphics/SVG/1.1/DTD/svg11.dtd">
<!-- Created with matplotlib (https://matplotlib.org/) -->
<svg height="288pt" version="1.1" viewBox="0 0 432 288" width="432pt" xmlns="http://www.w3.org/2000/svg" xmlns:xlink="http://www.w3.org/1999/xlink">
 <defs>
  <style type="text/css">
*{stroke-linecap:butt;stroke-linejoin:round;}
  </style>
 </defs>
 <g id="figure_1">
  <g id="patch_1">
   <path d="M 0 288 
L 432 288 
L 432 0 
L 0 0 
z
" style="fill:#ffffff;"/>
  </g>
  <g id="axes_1">
   <g id="patch_2">
    <path clip-path="url(#pd56b5ef96c)" d="M 194.76701 132.41027 
L 194.767681 143.28227 
L 193.680481 143.282337 
L 193.67981 132.410337 
z
" style="stroke:#000000;stroke-linejoin:miter;"/>
   </g>
   <g id="patch_3">
    <path clip-path="url(#pd56b5ef96c)" d="M 249.12701 132.406917 
L 249.12768 143.278917 
L 248.040481 143.278984 
L 248.03981 132.406984 
z
" style="stroke:#000000;stroke-linejoin:miter;"/>
   </g>
   <g id="patch_4">
    <path clip-path="url(#pd56b5ef96c)" d="M 212.34341 132.409186 
L 212.194611 131.857649 
L 211.750727 131.342206 
L 211.019048 130.896576 
L 210.01159 130.549907 
L 208.744896 130.324881 
L 207.239766 130.236218 
L 205.520914 130.289724 
L 203.616564 130.481903 
L 201.557985 130.800191 
L 199.378977 131.223775 
L 197.115318 131.724954 
L 194.804176 132.270954 
L 192.483498 132.826066 
L 190.191389 133.353989 
L 187.965482 133.820198 
L 185.842326 134.194203 
L 183.856782 134.451549 
L 182.041451 134.575407 
L 180.426142 134.557683 
L 179.037376 134.399539 
L 177.897959 134.111325 
L 177.0266 133.711896 
L 176.437608 133.227381 
L 176.140657 132.689475 
L 176.140622 132.133363 
L 176.437508 131.59542 
L 177.02644 131.110833 
L 177.897749 130.711296 
L 179.037131 130.422942 
L 180.425877 130.264627 
L 182.041184 130.246703 
L 183.85653 130.370337 
L 185.842106 130.627438 
L 187.965308 131.001182 
L 190.191273 131.467116 
L 192.483447 131.994756 
L 194.804193 132.549582 
L 197.115402 133.095297 
L 199.379123 133.596197 
L 201.558183 134.019512 
L 203.616802 134.337546 
L 205.521176 134.52949 
L 207.240034 134.582784 
L 208.745153 134.493935 
L 210.01182 134.268752 
L 211.019235 133.92196 
L 211.750859 133.476239 
L 212.194679 132.960742 
z
" style="fill:#0000ff;stroke:#000000;stroke-linejoin:miter;"/>
   </g>
   <g id="patch_5">
    <path clip-path="url(#pd56b5ef96c)" d="M 266.70341 132.405833 
L 266.554611 131.854296 
L 266.110727 131.338853 
L 265.379048 130.893223 
L 264.37159 130.546554 
L 263.104896 130.321528 
L 261.599766 130.232865 
L 259.880914 130.286371 
L 257.976564 130.47855 
L 255.917985 130.796838 
L 253.738977 131.220422 
L 251.475318 131.721601 
L 249.164176 132.267601 
L 246.843498 132.822713 
L 244.551389 133.350636 
L 242.325482 133.816845 
L 240.202326 134.19085 
L 238.216782 134.448196 
L 236.401451 134.572054 
L 234.786142 134.55433 
L 233.397376 134.396186 
L 232.257959 134.107972 
L 231.3866 133.708543 
L 230.797608 133.224028 
L 230.500657 132.686122 
L 230.500622 132.13001 
L 230.797508 131.592067 
L 231.38644 131.10748 
L 232.257749 130.707943 
L 233.397131 130.419589 
L 234.785877 130.261274 
L 236.401184 130.24335 
L 238.21653 130.366984 
L 240.202106 130.624085 
L 242.325308 130.997829 
L 244.551272 131.463763 
L 246.843447 131.991403 
L 249.164193 132.546229 
L 251.475402 133.091944 
L 253.739123 133.592844 
L 255.918183 134.016159 
L 257.976802 134.334193 
L 259.881176 134.526137 
L 261.600034 134.579431 
L 263.105153 134.490582 
L 264.371819 134.265399 
L 265.379235 133.918607 
L 266.110859 133.472886 
L 266.554679 132.957389 
z
" style="fill:#0000ff;stroke:#000000;stroke-linejoin:miter;"/>
   </g>
   <g id="patch_6">
    <path clip-path="url(#pd56b5ef96c)" d="M 254.019913 140.560615 
L 188.787913 140.564639 
L 188.788248 146.000639 
L 254.020248 145.996615 
z
" style="fill:#999999;stroke:#000000;stroke-linejoin:miter;"/>
   </g>
   <g id="text_1">
    <!-- t = 3.7 -->
    <defs>
     <path d="M 18.3125 70.21875 
L 18.3125 54.6875 
L 36.8125 54.6875 
L 36.8125 47.703125 
L 18.3125 47.703125 
L 18.3125 18.015625 
Q 18.3125 11.328125 20.140625 9.421875 
Q 21.96875 7.515625 27.59375 7.515625 
L 36.8125 7.515625 
L 36.8125 0 
L 27.59375 0 
Q 17.1875 0 13.234375 3.875 
Q 9.28125 7.765625 9.28125 18.015625 
L 9.28125 47.703125 
L 2.6875 47.703125 
L 2.6875 54.6875 
L 9.28125 54.6875 
L 9.28125 70.21875 
z
" id="DejaVuSans-116"/>
     <path id="DejaVuSans-32"/>
     <path d="M 10.59375 45.40625 
L 73.1875 45.40625 
L 73.1875 37.203125 
L 10.59375 37.203125 
z
M 10.59375 25.484375 
L 73.1875 25.484375 
L 73.1875 17.1875 
L 10.59375 17.1875 
z
" id="DejaVuSans-61"/>
     <path d="M 40.578125 39.3125 
Q 47.65625 37.796875 51.625 33 
Q 55.609375 28.21875 55.609375 21.1875 
Q 55.609375 10.40625 48.1875 4.484375 
Q 40.765625 -1.421875 27.09375 -1.421875 
Q 22.515625 -1.421875 17.65625 -0.515625 
Q 12.796875 0.390625 7.625 2.203125 
L 7.625 11.71875 
Q 11.71875 9.328125 16.59375 8.109375 
Q 21.484375 6.890625 26.8125 6.890625 
Q 36.078125 6.890625 40.9375 10.546875 
Q 45.796875 14.203125 45.796875 21.1875 
Q 45.796875 27.640625 41.28125 31.265625 
Q 36.765625 34.90625 28.71875 34.90625 
L 20.21875 34.90625 
L 20.21875 43.015625 
L 29.109375 43.015625 
Q 36.375 43.015625 40.234375 45.921875 
Q 44.09375 48.828125 44.09375 54.296875 
Q 44.09375 59.90625 40.109375 62.90625 
Q 36.140625 65.921875 28.71875 65.921875 
Q 24.65625 65.921875 20.015625 65.03125 
Q 15.375 64.15625 9.8125 62.3125 
L 9.8125 71.09375 
Q 15.4375 72.65625 20.34375 73.4375 
Q 25.25 74.21875 29.59375 74.21875 
Q 40.828125 74.21875 47.359375 69.109375 
Q 53.90625 64.015625 53.90625 55.328125 
Q 53.90625 49.265625 50.4375 45.09375 
Q 46.96875 40.921875 40.578125 39.3125 
z
" id="DejaVuSans-51"/>
     <path d="M 10.6875 12.40625 
L 21 12.40625 
L 21 0 
L 10.6875 0 
z
" id="DejaVuSans-46"/>
     <path d="M 8.203125 72.90625 
L 55.078125 72.90625 
L 55.078125 68.703125 
L 28.609375 0 
L 18.3125 0 
L 43.21875 64.59375 
L 8.203125 64.59375 
z
" id="DejaVuSans-55"/>
    </defs>
    <g transform="translate(200.664375 28.56)scale(0.12 -0.12)">
     <use xlink:href="#DejaVuSans-116"/>
     <use x="39.208984" xlink:href="#DejaVuSans-32"/>
     <use x="70.996094" xlink:href="#DejaVuSans-61"/>
     <use x="154.785156" xlink:href="#DejaVuSans-32"/>
     <use x="186.572266" xlink:href="#DejaVuSans-51"/>
     <use x="250.195312" xlink:href="#DejaVuSans-46"/>
     <use x="281.982422" xlink:href="#DejaVuSans-55"/>
    </g>
   </g>
  </g>
 </g>
 <defs>
  <clipPath id="pd56b5ef96c">
   <rect height="217.44" width="334.8" x="54" y="34.56"/>
  </clipPath>
 </defs>
</svg>
