<?xml version="1.0" encoding="utf-8" standalone="no"?>
<!DOCTYPE svg PUBLIC "-//W3C//DTD SVG 1.1//EN"
  "http://www.w3.org/Graphics/SVG/1.1/DTD/svg11.dtd">
<!-- Created with matplotlib (https://matplotlib.org/) -->
<svg height="288pt" version="1.1" viewBox="0 0 432 288" width="432pt" xmlns="http://www.w3.org/2000/svg" xmlns:xlink="http://www.w3.org/1999/xlink">
 <defs>
  <style type="text/css">
*{stroke-linecap:butt;stroke-linejoin:round;}
  </style>
 </defs>
 <g id="figure_1">
  <g id="patch_1">
   <path d="M 0 288 
L 432 288 
L 432 0 
L 0 0 
z
" style="fill:#ffffff;"/>
  </g>
  <g id="axes_1">
   <g id="patch_2">
    <path clip-path="url(#p4f71e9037e)" d="M 196.363781 132.527751 
L 196.279069 143.399421 
L 195.191902 143.39095 
L 195.276615 132.51928 
z
" style="stroke:#000000;stroke-linejoin:miter;"/>
   </g>
   <g id="patch_3">
    <path clip-path="url(#p4f71e9037e)" d="M 250.722131 132.951315 
L 250.637418 143.822985 
L 249.550251 143.814514 
L 249.634964 132.942844 
z
" style="stroke:#000000;stroke-linejoin:miter;"/>
   </g>
   <g id="patch_4">
    <path clip-path="url(#p4f71e9037e)" d="M 213.939648 132.664704 
L 213.795185 132.112015 
L 213.355363 131.593102 
L 212.627206 131.141739 
L 211.622502 130.787169 
L 210.357614 130.552201 
L 208.853227 130.451721 
L 207.134008 130.491726 
L 205.228207 130.668943 
L 203.167192 130.971054 
L 200.984924 131.377512 
L 198.717399 131.860899 
L 196.40204 132.388731 
L 194.077075 132.925601 
L 191.78089 133.435506 
L 189.551391 133.884219 
L 187.425363 134.241539 
L 185.437859 134.483283 
L 183.621611 134.592881 
L 182.006491 134.562471 
L 180.61901 134.393426 
L 179.481891 134.096272 
L 178.613696 133.690012 
L 178.028528 133.200887 
L 177.73581 132.660665 
L 177.740143 132.10457 
L 178.041244 131.568975 
L 178.633963 131.089028 
L 179.508384 130.696347 
L 180.649995 130.416949 
L 182.039941 130.269545 
L 183.65534 130.264308 
L 185.469659 130.402196 
L 187.453154 130.674882 
L 189.573356 131.065289 
L 191.795592 131.54869 
L 194.083552 132.094315 
L 196.399869 132.667351 
L 198.706722 133.2312 
L 200.966439 133.749862 
L 203.142107 134.190278 
L 205.198165 134.524469 
L 207.100972 134.731364 
L 208.819359 134.798155 
L 210.32513 134.72113 
L 211.593525 134.505901 
L 212.603633 134.167031 
L 213.338735 133.72707 
L 213.78659 133.215074 
z
" style="fill:#0000ff;stroke:#000000;stroke-linejoin:miter;"/>
   </g>
   <g id="patch_5">
    <path clip-path="url(#p4f71e9037e)" d="M 268.297998 133.088268 
L 268.153535 132.535579 
L 267.713713 132.016666 
L 266.985556 131.565303 
L 265.980852 131.210733 
L 264.715964 130.975766 
L 263.211577 130.875285 
L 261.492358 130.91529 
L 259.586557 131.092507 
L 257.525542 131.394619 
L 255.343274 131.801076 
L 253.075749 132.284463 
L 250.76039 132.812295 
L 248.435425 133.349165 
L 246.13924 133.859071 
L 243.90974 134.307783 
L 241.783713 134.665103 
L 239.796209 134.906847 
L 237.979961 135.016445 
L 236.36484 134.986035 
L 234.97736 134.81699 
L 233.840241 134.519836 
L 232.972046 134.113576 
L 232.386878 133.624451 
L 232.09416 133.084229 
L 232.098493 132.528134 
L 232.399594 131.992539 
L 232.992313 131.512592 
L 233.866734 131.119911 
L 235.008345 130.840513 
L 236.398291 130.69311 
L 238.01369 130.687872 
L 239.828009 130.82576 
L 241.811504 131.098446 
L 243.931706 131.488853 
L 246.153942 131.972254 
L 248.441902 132.51788 
L 250.758219 133.090915 
L 253.065071 133.654764 
L 255.324788 134.173427 
L 257.500457 134.613842 
L 259.556515 134.948033 
L 261.459322 135.154928 
L 263.177709 135.221719 
L 264.68348 135.144694 
L 265.951875 134.929465 
L 266.961983 134.590595 
L 267.697085 134.150634 
L 268.14494 133.638638 
z
" style="fill:#0000ff;stroke:#000000;stroke-linejoin:miter;"/>
   </g>
   <g id="patch_6">
    <path clip-path="url(#p4f71e9037e)" d="M 255.550848 141.143189 
L 190.320828 140.634911 
L 190.278472 146.070746 
L 255.508492 146.579024 
z
" style="fill:#999999;stroke:#000000;stroke-linejoin:miter;"/>
   </g>
   <g id="text_1">
    <!-- t = 2.0 -->
    <defs>
     <path d="M 18.3125 70.21875 
L 18.3125 54.6875 
L 36.8125 54.6875 
L 36.8125 47.703125 
L 18.3125 47.703125 
L 18.3125 18.015625 
Q 18.3125 11.328125 20.140625 9.421875 
Q 21.96875 7.515625 27.59375 7.515625 
L 36.8125 7.515625 
L 36.8125 0 
L 27.59375 0 
Q 17.1875 0 13.234375 3.875 
Q 9.28125 7.765625 9.28125 18.015625 
L 9.28125 47.703125 
L 2.6875 47.703125 
L 2.6875 54.6875 
L 9.28125 54.6875 
L 9.28125 70.21875 
z
" id="DejaVuSans-116"/>
     <path id="DejaVuSans-32"/>
     <path d="M 10.59375 45.40625 
L 73.1875 45.40625 
L 73.1875 37.203125 
L 10.59375 37.203125 
z
M 10.59375 25.484375 
L 73.1875 25.484375 
L 73.1875 17.1875 
L 10.59375 17.1875 
z
" id="DejaVuSans-61"/>
     <path d="M 19.1875 8.296875 
L 53.609375 8.296875 
L 53.609375 0 
L 7.328125 0 
L 7.328125 8.296875 
Q 12.9375 14.109375 22.625 23.890625 
Q 32.328125 33.6875 34.8125 36.53125 
Q 39.546875 41.84375 41.421875 45.53125 
Q 43.3125 49.21875 43.3125 52.78125 
Q 43.3125 58.59375 39.234375 62.25 
Q 35.15625 65.921875 28.609375 65.921875 
Q 23.96875 65.921875 18.8125 64.3125 
Q 13.671875 62.703125 7.8125 59.421875 
L 7.8125 69.390625 
Q 13.765625 71.78125 18.9375 73 
Q 24.125 74.21875 28.421875 74.21875 
Q 39.75 74.21875 46.484375 68.546875 
Q 53.21875 62.890625 53.21875 53.421875 
Q 53.21875 48.921875 51.53125 44.890625 
Q 49.859375 40.875 45.40625 35.40625 
Q 44.1875 33.984375 37.640625 27.21875 
Q 31.109375 20.453125 19.1875 8.296875 
z
" id="DejaVuSans-50"/>
     <path d="M 10.6875 12.40625 
L 21 12.40625 
L 21 0 
L 10.6875 0 
z
" id="DejaVuSans-46"/>
     <path d="M 31.78125 66.40625 
Q 24.171875 66.40625 20.328125 58.90625 
Q 16.5 51.421875 16.5 36.375 
Q 16.5 21.390625 20.328125 13.890625 
Q 24.171875 6.390625 31.78125 6.390625 
Q 39.453125 6.390625 43.28125 13.890625 
Q 47.125 21.390625 47.125 36.375 
Q 47.125 51.421875 43.28125 58.90625 
Q 39.453125 66.40625 31.78125 66.40625 
z
M 31.78125 74.21875 
Q 44.046875 74.21875 50.515625 64.515625 
Q 56.984375 54.828125 56.984375 36.375 
Q 56.984375 17.96875 50.515625 8.265625 
Q 44.046875 -1.421875 31.78125 -1.421875 
Q 19.53125 -1.421875 13.0625 8.265625 
Q 6.59375 17.96875 6.59375 36.375 
Q 6.59375 54.828125 13.0625 64.515625 
Q 19.53125 74.21875 31.78125 74.21875 
z
" id="DejaVuSans-48"/>
    </defs>
    <g transform="translate(200.664375 28.56)scale(0.12 -0.12)">
     <use xlink:href="#DejaVuSans-116"/>
     <use x="39.208984" xlink:href="#DejaVuSans-32"/>
     <use x="70.996094" xlink:href="#DejaVuSans-61"/>
     <use x="154.785156" xlink:href="#DejaVuSans-32"/>
     <use x="186.572266" xlink:href="#DejaVuSans-50"/>
     <use x="250.195312" xlink:href="#DejaVuSans-46"/>
     <use x="281.982422" xlink:href="#DejaVuSans-48"/>
    </g>
   </g>
  </g>
 </g>
 <defs>
  <clipPath id="p4f71e9037e">
   <rect height="217.44" width="334.8" x="54" y="34.56"/>
  </clipPath>
 </defs>
</svg>
