<?xml version="1.0" encoding="utf-8" standalone="no"?>
<!DOCTYPE svg PUBLIC "-//W3C//DTD SVG 1.1//EN"
  "http://www.w3.org/Graphics/SVG/1.1/DTD/svg11.dtd">
<!-- Created with matplotlib (https://matplotlib.org/) -->
<svg height="288pt" version="1.1" viewBox="0 0 432 288" width="432pt" xmlns="http://www.w3.org/2000/svg" xmlns:xlink="http://www.w3.org/1999/xlink">
 <defs>
  <style type="text/css">
*{stroke-linecap:butt;stroke-linejoin:round;}
  </style>
 </defs>
 <g id="figure_1">
  <g id="patch_1">
   <path d="M 0 288 
L 432 288 
L 432 0 
L 0 0 
z
" style="fill:#ffffff;"/>
  </g>
  <g id="axes_1">
   <g id="patch_2">
    <path clip-path="url(#pc3fa4244e1)" d="M 194.47286 132.262881 
L 194.4767 143.134881 
L 193.3895 143.135265 
L 193.38566 132.263265 
z
" style="stroke:#000000;stroke-linejoin:miter;"/>
   </g>
   <g id="patch_3">
    <path clip-path="url(#pc3fa4244e1)" d="M 248.832856 132.24368 
L 248.836697 143.115679 
L 247.749497 143.116063 
L 247.745656 132.244064 
z
" style="stroke:#000000;stroke-linejoin:miter;"/>
   </g>
   <g id="patch_4">
    <path clip-path="url(#pc3fa4244e1)" d="M 212.049259 132.256673 
L 211.900299 131.705179 
L 211.456265 131.189866 
L 210.724456 130.744449 
L 209.716897 130.398074 
L 208.450137 130.173417 
L 206.944981 130.085193 
L 205.226145 130.1392 
L 203.321851 130.331934 
L 201.263365 130.650822 
L 199.08448 131.075041 
L 196.820968 131.57688 
L 194.509985 132.123554 
L 192.189469 132.679343 
L 189.897514 133.207934 
L 187.671743 133.674791 
L 185.548696 134.049416 
L 183.563227 134.307341 
L 181.747933 134.431728 
L 180.132618 134.414475 
L 178.743806 134.256736 
L 177.604305 133.968854 
L 176.73283 133.569679 
L 176.143697 133.085336 
L 175.846589 132.547517 
L 175.846392 131.991404 
L 176.143121 131.453375 
L 176.731911 130.968616 
L 177.603104 130.568826 
L 178.742402 130.280139 
L 180.131102 130.121419 
L 181.746404 130.103024 
L 183.561786 130.226129 
L 185.547436 130.482651 
L 187.670747 130.855776 
L 189.896847 131.321061 
L 192.189176 131.848033 
L 194.510083 132.402182 
L 196.821452 132.947223 
L 199.085318 133.447463 
L 201.264502 133.870143 
L 203.323213 134.187577 
L 205.227643 134.378966 
L 206.946517 134.431758 
L 208.45161 134.342471 
L 209.71821 134.116919 
L 210.725525 133.769833 
L 211.457018 133.323898 
L 211.900688 132.808272 
z
" style="fill:#0000ff;stroke:#000000;stroke-linejoin:miter;"/>
   </g>
   <g id="patch_5">
    <path clip-path="url(#pc3fa4244e1)" d="M 266.409255 132.237472 
L 266.260295 131.685978 
L 265.816261 131.170665 
L 265.084453 130.725247 
L 264.076893 130.378873 
L 262.810134 130.154215 
L 261.304978 130.065992 
L 259.586142 130.119998 
L 257.681848 130.312733 
L 255.623361 130.631621 
L 253.444477 131.05584 
L 251.180964 131.557679 
L 248.869982 132.104353 
L 246.549466 132.660142 
L 244.25751 133.188733 
L 242.03174 133.65559 
L 239.908693 134.030215 
L 237.923224 134.288139 
L 236.107929 134.412527 
L 234.492615 134.395273 
L 233.103803 134.237535 
L 231.964302 133.949653 
L 231.092827 133.550478 
L 230.503694 133.066135 
L 230.206585 132.528315 
L 230.206389 131.972203 
L 230.503117 131.434174 
L 231.091908 130.949415 
L 231.963101 130.549624 
L 233.102398 130.260937 
L 234.491098 130.102218 
L 236.1064 130.083823 
L 237.921782 130.206928 
L 239.907433 130.46345 
L 242.030744 130.836575 
L 244.256844 131.301859 
L 246.549172 131.828831 
L 248.87008 132.382981 
L 251.181448 132.928022 
L 253.445315 133.428262 
L 255.624499 133.850942 
L 257.68321 134.168375 
L 259.58764 134.359765 
L 261.306513 134.412557 
L 262.811607 134.32327 
L 264.078207 134.097717 
L 265.085521 133.750631 
L 265.817015 133.304697 
L 266.260685 132.789071 
z
" style="fill:#0000ff;stroke:#000000;stroke-linejoin:miter;"/>
   </g>
   <g id="patch_6">
    <path clip-path="url(#pc3fa4244e1)" d="M 253.728136 140.395951 
L 188.49614 140.418993 
L 188.49806 145.854993 
L 253.730056 145.831951 
z
" style="fill:#999999;stroke:#000000;stroke-linejoin:miter;"/>
   </g>
   <g id="text_1">
    <!-- t = 1.9 -->
    <defs>
     <path d="M 18.3125 70.21875 
L 18.3125 54.6875 
L 36.8125 54.6875 
L 36.8125 47.703125 
L 18.3125 47.703125 
L 18.3125 18.015625 
Q 18.3125 11.328125 20.140625 9.421875 
Q 21.96875 7.515625 27.59375 7.515625 
L 36.8125 7.515625 
L 36.8125 0 
L 27.59375 0 
Q 17.1875 0 13.234375 3.875 
Q 9.28125 7.765625 9.28125 18.015625 
L 9.28125 47.703125 
L 2.6875 47.703125 
L 2.6875 54.6875 
L 9.28125 54.6875 
L 9.28125 70.21875 
z
" id="DejaVuSans-116"/>
     <path id="DejaVuSans-32"/>
     <path d="M 10.59375 45.40625 
L 73.1875 45.40625 
L 73.1875 37.203125 
L 10.59375 37.203125 
z
M 10.59375 25.484375 
L 73.1875 25.484375 
L 73.1875 17.1875 
L 10.59375 17.1875 
z
" id="DejaVuSans-61"/>
     <path d="M 12.40625 8.296875 
L 28.515625 8.296875 
L 28.515625 63.921875 
L 10.984375 60.40625 
L 10.984375 69.390625 
L 28.421875 72.90625 
L 38.28125 72.90625 
L 38.28125 8.296875 
L 54.390625 8.296875 
L 54.390625 0 
L 12.40625 0 
z
" id="DejaVuSans-49"/>
     <path d="M 10.6875 12.40625 
L 21 12.40625 
L 21 0 
L 10.6875 0 
z
" id="DejaVuSans-46"/>
     <path d="M 10.984375 1.515625 
L 10.984375 10.5 
Q 14.703125 8.734375 18.5 7.8125 
Q 22.3125 6.890625 25.984375 6.890625 
Q 35.75 6.890625 40.890625 13.453125 
Q 46.046875 20.015625 46.78125 33.40625 
Q 43.953125 29.203125 39.59375 26.953125 
Q 35.25 24.703125 29.984375 24.703125 
Q 19.046875 24.703125 12.671875 31.3125 
Q 6.296875 37.9375 6.296875 49.421875 
Q 6.296875 60.640625 12.9375 67.421875 
Q 19.578125 74.21875 30.609375 74.21875 
Q 43.265625 74.21875 49.921875 64.515625 
Q 56.59375 54.828125 56.59375 36.375 
Q 56.59375 19.140625 48.40625 8.859375 
Q 40.234375 -1.421875 26.421875 -1.421875 
Q 22.703125 -1.421875 18.890625 -0.6875 
Q 15.09375 0.046875 10.984375 1.515625 
z
M 30.609375 32.421875 
Q 37.25 32.421875 41.125 36.953125 
Q 45.015625 41.5 45.015625 49.421875 
Q 45.015625 57.28125 41.125 61.84375 
Q 37.25 66.40625 30.609375 66.40625 
Q 23.96875 66.40625 20.09375 61.84375 
Q 16.21875 57.28125 16.21875 49.421875 
Q 16.21875 41.5 20.09375 36.953125 
Q 23.96875 32.421875 30.609375 32.421875 
z
" id="DejaVuSans-57"/>
    </defs>
    <g transform="translate(200.664375 28.56)scale(0.12 -0.12)">
     <use xlink:href="#DejaVuSans-116"/>
     <use x="39.208984" xlink:href="#DejaVuSans-32"/>
     <use x="70.996094" xlink:href="#DejaVuSans-61"/>
     <use x="154.785156" xlink:href="#DejaVuSans-32"/>
     <use x="186.572266" xlink:href="#DejaVuSans-49"/>
     <use x="250.195312" xlink:href="#DejaVuSans-46"/>
     <use x="281.982422" xlink:href="#DejaVuSans-57"/>
    </g>
   </g>
  </g>
 </g>
 <defs>
  <clipPath id="pc3fa4244e1">
   <rect height="217.44" width="334.8" x="54" y="34.56"/>
  </clipPath>
 </defs>
</svg>
