<?xml version="1.0" encoding="utf-8" standalone="no"?>
<!DOCTYPE svg PUBLIC "-//W3C//DTD SVG 1.1//EN"
  "http://www.w3.org/Graphics/SVG/1.1/DTD/svg11.dtd">
<!-- Created with matplotlib (https://matplotlib.org/) -->
<svg height="288pt" version="1.1" viewBox="0 0 432 288" width="432pt" xmlns="http://www.w3.org/2000/svg" xmlns:xlink="http://www.w3.org/1999/xlink">
 <defs>
  <style type="text/css">
*{stroke-linecap:butt;stroke-linejoin:round;}
  </style>
 </defs>
 <g id="figure_1">
  <g id="patch_1">
   <path d="M 0 288 
L 432 288 
L 432 0 
L 0 0 
z
" style="fill:#ffffff;"/>
  </g>
  <g id="axes_1">
   <g id="patch_2">
    <path clip-path="url(#p63dd71e31e)" d="M 202.768389 118.039964 
L 201.555895 128.844141 
L 200.475477 128.722892 
L 201.687971 117.918715 
z
" style="stroke:#000000;stroke-linejoin:miter;"/>
   </g>
   <g id="patch_3">
    <path clip-path="url(#p63dd71e31e)" d="M 256.789274 124.102432 
L 255.576781 134.906609 
L 254.496363 134.785359 
L 255.708857 123.981182 
z
" style="stroke:#000000;stroke-linejoin:miter;"/>
   </g>
   <g id="patch_4">
    <path clip-path="url(#p63dd71e31e)" d="M 220.235142 120.000162 
L 220.148816 119.435465 
L 219.76522 118.873711 
L 219.087837 118.349218 
L 218.125354 117.892297 
L 216.89168 117.527331 
L 215.405843 117.271271 
L 213.691756 117.132643 
L 211.777854 117.111123 
L 209.696615 117.197716 
L 207.483949 117.375508 
L 205.178502 117.620965 
L 202.820868 117.905665 
L 200.452741 118.198356 
L 198.116038 118.467215 
L 195.85201 118.682133 
L 193.70038 118.816889 
L 191.69852 118.851069 
L 189.880705 118.771589 
L 188.277461 118.57373 
L 186.915015 118.261607 
L 185.814875 117.84805 
L 184.993528 117.353884 
L 184.46228 116.806673 
L 184.227205 116.23899 
L 184.289225 115.686347 
L 184.644283 115.184892 
L 185.28361 114.769048 
L 186.194061 114.469232 
L 187.358503 114.309817 
L 188.756242 114.307455 
L 190.363462 114.469888 
L 192.153674 114.795317 
L 194.098161 115.272374 
L 196.166399 115.880703 
L 198.32647 116.592113 
L 200.545453 117.372231 
L 202.789794 118.182555 
L 205.025676 118.982759 
L 207.219366 119.73313 
L 209.337582 120.396954 
L 211.347856 120.942714 
L 213.218918 121.34596 
L 214.921095 121.590721 
L 216.426729 121.670377 
L 217.710612 121.587943 
L 218.750432 121.355729 
L 219.527223 120.99443 
L 220.025794 120.531677 
z
" style="fill:#0000ff;stroke:#000000;stroke-linejoin:miter;"/>
   </g>
   <g id="patch_5">
    <path clip-path="url(#p63dd71e31e)" d="M 274.256027 126.062629 
L 274.169701 125.497933 
L 273.786106 124.936178 
L 273.108722 124.411686 
L 272.146239 123.954765 
L 270.912566 123.589798 
L 269.426729 123.333738 
L 267.712641 123.19511 
L 265.79874 123.173591 
L 263.7175 123.260183 
L 261.504834 123.437975 
L 259.199388 123.683433 
L 256.841754 123.968132 
L 254.473627 124.260824 
L 252.136923 124.529683 
L 249.872896 124.7446 
L 247.721265 124.879356 
L 245.719405 124.913536 
L 243.901591 124.834057 
L 242.298347 124.636197 
L 240.935901 124.324075 
L 239.83576 123.910518 
L 239.014414 123.416352 
L 238.483165 122.86914 
L 238.248091 122.301458 
L 238.310111 121.748815 
L 238.665169 121.24736 
L 239.304496 120.831515 
L 240.214947 120.5317 
L 241.379389 120.372284 
L 242.777127 120.369922 
L 244.384347 120.532356 
L 246.17456 120.857785 
L 248.119047 121.334842 
L 250.187285 121.94317 
L 252.347356 122.65458 
L 254.566338 123.434699 
L 256.81068 124.245023 
L 259.046561 125.045227 
L 261.240251 125.795598 
L 263.358467 126.459421 
L 265.368742 127.005181 
L 267.239804 127.408428 
L 268.941981 127.653189 
L 270.447614 127.732845 
L 271.731497 127.65041 
L 272.771318 127.418197 
L 273.548109 127.056898 
L 274.04668 126.594144 
z
" style="fill:#0000ff;stroke:#000000;stroke-linejoin:miter;"/>
   </g>
   <g id="patch_6">
    <path clip-path="url(#p63dd71e31e)" d="M 260.741784 132.751186 
L 195.916721 125.476225 
L 195.310474 130.878314 
L 260.135537 138.153275 
z
" style="fill:#999999;stroke:#000000;stroke-linejoin:miter;"/>
   </g>
   <g id="text_1">
    <!-- t = 0.7 -->
    <defs>
     <path d="M 18.3125 70.21875 
L 18.3125 54.6875 
L 36.8125 54.6875 
L 36.8125 47.703125 
L 18.3125 47.703125 
L 18.3125 18.015625 
Q 18.3125 11.328125 20.140625 9.421875 
Q 21.96875 7.515625 27.59375 7.515625 
L 36.8125 7.515625 
L 36.8125 0 
L 27.59375 0 
Q 17.1875 0 13.234375 3.875 
Q 9.28125 7.765625 9.28125 18.015625 
L 9.28125 47.703125 
L 2.6875 47.703125 
L 2.6875 54.6875 
L 9.28125 54.6875 
L 9.28125 70.21875 
z
" id="DejaVuSans-116"/>
     <path id="DejaVuSans-32"/>
     <path d="M 10.59375 45.40625 
L 73.1875 45.40625 
L 73.1875 37.203125 
L 10.59375 37.203125 
z
M 10.59375 25.484375 
L 73.1875 25.484375 
L 73.1875 17.1875 
L 10.59375 17.1875 
z
" id="DejaVuSans-61"/>
     <path d="M 31.78125 66.40625 
Q 24.171875 66.40625 20.328125 58.90625 
Q 16.5 51.421875 16.5 36.375 
Q 16.5 21.390625 20.328125 13.890625 
Q 24.171875 6.390625 31.78125 6.390625 
Q 39.453125 6.390625 43.28125 13.890625 
Q 47.125 21.390625 47.125 36.375 
Q 47.125 51.421875 43.28125 58.90625 
Q 39.453125 66.40625 31.78125 66.40625 
z
M 31.78125 74.21875 
Q 44.046875 74.21875 50.515625 64.515625 
Q 56.984375 54.828125 56.984375 36.375 
Q 56.984375 17.96875 50.515625 8.265625 
Q 44.046875 -1.421875 31.78125 -1.421875 
Q 19.53125 -1.421875 13.0625 8.265625 
Q 6.59375 17.96875 6.59375 36.375 
Q 6.59375 54.828125 13.0625 64.515625 
Q 19.53125 74.21875 31.78125 74.21875 
z
" id="DejaVuSans-48"/>
     <path d="M 10.6875 12.40625 
L 21 12.40625 
L 21 0 
L 10.6875 0 
z
" id="DejaVuSans-46"/>
     <path d="M 8.203125 72.90625 
L 55.078125 72.90625 
L 55.078125 68.703125 
L 28.609375 0 
L 18.3125 0 
L 43.21875 64.59375 
L 8.203125 64.59375 
z
" id="DejaVuSans-55"/>
    </defs>
    <g transform="translate(200.664375 28.56)scale(0.12 -0.12)">
     <use xlink:href="#DejaVuSans-116"/>
     <use x="39.208984" xlink:href="#DejaVuSans-32"/>
     <use x="70.996094" xlink:href="#DejaVuSans-61"/>
     <use x="154.785156" xlink:href="#DejaVuSans-32"/>
     <use x="186.572266" xlink:href="#DejaVuSans-48"/>
     <use x="250.195312" xlink:href="#DejaVuSans-46"/>
     <use x="281.982422" xlink:href="#DejaVuSans-55"/>
    </g>
   </g>
  </g>
 </g>
 <defs>
  <clipPath id="p63dd71e31e">
   <rect height="217.44" width="334.8" x="54" y="34.56"/>
  </clipPath>
 </defs>
</svg>
