<?xml version="1.0" encoding="utf-8" standalone="no"?>
<!DOCTYPE svg PUBLIC "-//W3C//DTD SVG 1.1//EN"
  "http://www.w3.org/Graphics/SVG/1.1/DTD/svg11.dtd">
<!-- Created with matplotlib (https://matplotlib.org/) -->
<svg height="288pt" version="1.1" viewBox="0 0 432 288" width="432pt" xmlns="http://www.w3.org/2000/svg" xmlns:xlink="http://www.w3.org/1999/xlink">
 <defs>
  <style type="text/css">
*{stroke-linecap:butt;stroke-linejoin:round;}
  </style>
 </defs>
 <g id="figure_1">
  <g id="patch_1">
   <path d="M 0 288 
L 432 288 
L 432 0 
L 0 0 
z
" style="fill:#ffffff;"/>
  </g>
  <g id="axes_1">
   <g id="patch_2">
    <path clip-path="url(#p92a4a90cdb)" d="M 173.554618 162.106996 
L 176.025072 172.694594 
L 174.966313 172.94164 
L 172.495858 162.354042 
z
" style="stroke:#000000;stroke-linejoin:miter;"/>
   </g>
   <g id="patch_3">
    <path clip-path="url(#p92a4a90cdb)" d="M 226.492609 149.754723 
L 228.963064 160.342321 
L 227.904304 160.589366 
L 225.433849 150.001768 
z
" style="stroke:#000000;stroke-linejoin:miter;"/>
   </g>
   <g id="patch_4">
    <path clip-path="url(#p92a4a90cdb)" d="M 190.671235 158.113094 
L 190.401033 157.60978 
L 189.851661 157.208651 
L 189.037878 156.940888 
L 187.978007 156.832148 
L 186.693311 156.900761 
L 185.207391 157.156338 
L 183.545634 157.598918 
L 181.734731 158.218685 
L 179.802279 158.996301 
L 177.776467 159.903817 
L 175.685845 160.906131 
L 173.559163 161.962879 
L 171.425265 163.030669 
L 169.313012 164.065489 
L 167.251211 165.02517 
L 165.268528 165.871716 
L 163.393358 166.573391 
L 161.653626 167.106402 
L 160.076522 167.456092 
L 158.68814 167.61757 
L 157.51304 167.595734 
L 156.573724 167.404695 
L 155.890064 167.06665 
L 155.478679 166.610266 
L 155.352313 166.068701 
L 155.519232 165.477379 
L 155.982682 164.871674 
L 156.740448 164.284647 
L 157.784534 163.744997 
L 159.101007 163.275338 
L 160.67001 162.890932 
L 162.46598 162.598941 
L 164.458049 162.398255 
L 166.610643 162.279897 
L 168.884256 162.227975 
L 171.236366 162.221104 
L 173.622476 162.234219 
L 175.997229 162.240626 
L 178.315555 162.214179 
L 180.533808 162.131407 
L 182.610852 161.973468 
L 184.50904 161.727776 
L 186.195065 161.389201 
L 187.640649 160.960757 
L 188.823043 160.453712 
L 189.725339 159.887131 
L 190.336579 159.286859 
L 190.65169 158.684017 
z
" style="fill:#0000ff;stroke:#000000;stroke-linejoin:miter;"/>
   </g>
   <g id="patch_5">
    <path clip-path="url(#p92a4a90cdb)" d="M 243.609226 145.760821 
L 243.339024 145.257506 
L 242.789652 144.856378 
L 241.975869 144.588614 
L 240.915998 144.479875 
L 239.631303 144.548487 
L 238.145383 144.804064 
L 236.483625 145.246644 
L 234.672722 145.866412 
L 232.74027 146.644027 
L 230.714458 147.551544 
L 228.623836 148.553857 
L 226.497155 149.610605 
L 224.363257 150.678395 
L 222.251003 151.713216 
L 220.189202 152.672896 
L 218.20652 153.519443 
L 216.331349 154.221118 
L 214.591617 154.754128 
L 213.014514 155.103818 
L 211.626132 155.265297 
L 210.451031 155.24346 
L 209.511715 155.052422 
L 208.828055 154.714376 
L 208.416671 154.257993 
L 208.290305 153.716428 
L 208.457223 153.125106 
L 208.920673 152.5194 
L 209.678439 151.932373 
L 210.722526 151.392723 
L 212.038998 150.923065 
L 213.608002 150.538659 
L 215.403971 150.246667 
L 217.39604 150.045981 
L 219.548635 149.927623 
L 221.822247 149.875701 
L 224.174357 149.868831 
L 226.560468 149.881945 
L 228.935221 149.888353 
L 231.253546 149.861905 
L 233.4718 149.779134 
L 235.548844 149.621194 
L 237.447032 149.375502 
L 239.133057 149.036928 
L 240.578641 148.608483 
L 241.761035 148.101438 
L 242.66333 147.534857 
L 243.274571 146.934586 
L 243.589681 146.331743 
z
" style="fill:#0000ff;stroke:#000000;stroke-linejoin:miter;"/>
   </g>
   <g id="patch_6">
    <path clip-path="url(#p92a4a90cdb)" d="M 233.109869 156.583717 
L 169.58428 171.406445 
L 170.819507 176.700244 
L 234.345097 161.877516 
z
" style="fill:#999999;stroke:#000000;stroke-linejoin:miter;"/>
   </g>
   <g id="text_1">
    <!-- t = 0.6 -->
    <defs>
     <path d="M 18.3125 70.21875 
L 18.3125 54.6875 
L 36.8125 54.6875 
L 36.8125 47.703125 
L 18.3125 47.703125 
L 18.3125 18.015625 
Q 18.3125 11.328125 20.140625 9.421875 
Q 21.96875 7.515625 27.59375 7.515625 
L 36.8125 7.515625 
L 36.8125 0 
L 27.59375 0 
Q 17.1875 0 13.234375 3.875 
Q 9.28125 7.765625 9.28125 18.015625 
L 9.28125 47.703125 
L 2.6875 47.703125 
L 2.6875 54.6875 
L 9.28125 54.6875 
L 9.28125 70.21875 
z
" id="DejaVuSans-116"/>
     <path id="DejaVuSans-32"/>
     <path d="M 10.59375 45.40625 
L 73.1875 45.40625 
L 73.1875 37.203125 
L 10.59375 37.203125 
z
M 10.59375 25.484375 
L 73.1875 25.484375 
L 73.1875 17.1875 
L 10.59375 17.1875 
z
" id="DejaVuSans-61"/>
     <path d="M 31.78125 66.40625 
Q 24.171875 66.40625 20.328125 58.90625 
Q 16.5 51.421875 16.5 36.375 
Q 16.5 21.390625 20.328125 13.890625 
Q 24.171875 6.390625 31.78125 6.390625 
Q 39.453125 6.390625 43.28125 13.890625 
Q 47.125 21.390625 47.125 36.375 
Q 47.125 51.421875 43.28125 58.90625 
Q 39.453125 66.40625 31.78125 66.40625 
z
M 31.78125 74.21875 
Q 44.046875 74.21875 50.515625 64.515625 
Q 56.984375 54.828125 56.984375 36.375 
Q 56.984375 17.96875 50.515625 8.265625 
Q 44.046875 -1.421875 31.78125 -1.421875 
Q 19.53125 -1.421875 13.0625 8.265625 
Q 6.59375 17.96875 6.59375 36.375 
Q 6.59375 54.828125 13.0625 64.515625 
Q 19.53125 74.21875 31.78125 74.21875 
z
" id="DejaVuSans-48"/>
     <path d="M 10.6875 12.40625 
L 21 12.40625 
L 21 0 
L 10.6875 0 
z
" id="DejaVuSans-46"/>
     <path d="M 33.015625 40.375 
Q 26.375 40.375 22.484375 35.828125 
Q 18.609375 31.296875 18.609375 23.390625 
Q 18.609375 15.53125 22.484375 10.953125 
Q 26.375 6.390625 33.015625 6.390625 
Q 39.65625 6.390625 43.53125 10.953125 
Q 47.40625 15.53125 47.40625 23.390625 
Q 47.40625 31.296875 43.53125 35.828125 
Q 39.65625 40.375 33.015625 40.375 
z
M 52.59375 71.296875 
L 52.59375 62.3125 
Q 48.875 64.0625 45.09375 64.984375 
Q 41.3125 65.921875 37.59375 65.921875 
Q 27.828125 65.921875 22.671875 59.328125 
Q 17.53125 52.734375 16.796875 39.40625 
Q 19.671875 43.65625 24.015625 45.921875 
Q 28.375 48.1875 33.59375 48.1875 
Q 44.578125 48.1875 50.953125 41.515625 
Q 57.328125 34.859375 57.328125 23.390625 
Q 57.328125 12.15625 50.6875 5.359375 
Q 44.046875 -1.421875 33.015625 -1.421875 
Q 20.359375 -1.421875 13.671875 8.265625 
Q 6.984375 17.96875 6.984375 36.375 
Q 6.984375 53.65625 15.1875 63.9375 
Q 23.390625 74.21875 37.203125 74.21875 
Q 40.921875 74.21875 44.703125 73.484375 
Q 48.484375 72.75 52.59375 71.296875 
z
" id="DejaVuSans-54"/>
    </defs>
    <g transform="translate(200.664375 28.56)scale(0.12 -0.12)">
     <use xlink:href="#DejaVuSans-116"/>
     <use x="39.208984" xlink:href="#DejaVuSans-32"/>
     <use x="70.996094" xlink:href="#DejaVuSans-61"/>
     <use x="154.785156" xlink:href="#DejaVuSans-32"/>
     <use x="186.572266" xlink:href="#DejaVuSans-48"/>
     <use x="250.195312" xlink:href="#DejaVuSans-46"/>
     <use x="281.982422" xlink:href="#DejaVuSans-54"/>
    </g>
   </g>
  </g>
 </g>
 <defs>
  <clipPath id="p92a4a90cdb">
   <rect height="217.44" width="334.8" x="54" y="34.56"/>
  </clipPath>
 </defs>
</svg>
