<?xml version="1.0" encoding="utf-8" standalone="no"?>
<!DOCTYPE svg PUBLIC "-//W3C//DTD SVG 1.1//EN"
  "http://www.w3.org/Graphics/SVG/1.1/DTD/svg11.dtd">
<!-- Created with matplotlib (https://matplotlib.org/) -->
<svg height="288pt" version="1.1" viewBox="0 0 432 288" width="432pt" xmlns="http://www.w3.org/2000/svg" xmlns:xlink="http://www.w3.org/1999/xlink">
 <defs>
  <style type="text/css">
*{stroke-linecap:butt;stroke-linejoin:round;}
  </style>
 </defs>
 <g id="figure_1">
  <g id="patch_1">
   <path d="M 0 288 
L 432 288 
L 432 0 
L 0 0 
z
" style="fill:#ffffff;"/>
  </g>
  <g id="axes_1">
   <g id="patch_2">
    <path clip-path="url(#peaf805a9e9)" d="M 194.758959 132.402546 
L 194.754838 143.274545 
L 193.667638 143.274133 
L 193.671759 132.402134 
z
" style="stroke:#000000;stroke-linejoin:miter;"/>
   </g>
   <g id="patch_3">
    <path clip-path="url(#peaf805a9e9)" d="M 249.118955 132.423155 
L 249.114834 143.295155 
L 248.027634 143.294742 
L 248.031756 132.422743 
z
" style="stroke:#000000;stroke-linejoin:miter;"/>
   </g>
   <g id="patch_4">
    <path clip-path="url(#peaf805a9e9)" d="M 212.335358 132.40921 
L 212.186802 131.857607 
L 211.743146 131.341969 
L 211.011663 130.896016 
L 210.004358 130.548904 
L 208.737764 130.323318 
L 207.232673 130.233992 
L 205.513798 130.28674 
L 203.609363 130.47808 
L 201.550643 130.79546 
L 199.371449 131.218084 
L 197.107569 131.718265 
L 194.796187 132.263246 
L 192.475265 132.817336 
L 190.182923 133.344248 
L 187.956811 133.809475 
L 185.83349 134.182545 
L 183.847833 134.439015 
L 182.032448 134.562074 
L 180.417146 134.543637 
L 179.02845 134.384881 
L 177.88916 134.096165 
L 177.017977 133.696352 
L 176.429199 133.211578 
L 176.132485 132.673541 
L 176.132696 132.117428 
L 176.429818 131.579617 
L 177.018964 131.095289 
L 177.890449 130.696136 
L 179.029958 130.408284 
L 180.418773 130.250581 
L 182.034089 130.233369 
L 183.84938 130.357804 
L 185.834842 130.61578 
L 187.957879 130.99046 
L 190.183638 131.457375 
L 192.47558 131.986025 
L 194.796081 132.541875 
L 197.10705 133.088608 
L 199.370549 133.590506 
L 201.549423 134.014781 
L 203.607901 134.333723 
L 205.51219 134.526506 
L 207.231025 134.580558 
L 208.736183 134.492373 
L 210.002948 134.267748 
L 211.010516 133.9214 
L 211.742337 133.476001 
L 212.186384 132.9607 
z
" style="fill:#0000ff;stroke:#000000;stroke-linejoin:miter;"/>
   </g>
   <g id="patch_5">
    <path clip-path="url(#peaf805a9e9)" d="M 266.695354 132.429819 
L 266.546798 131.878216 
L 266.103142 131.362578 
L 265.371659 130.916625 
L 264.364354 130.569513 
L 263.09776 130.343927 
L 261.592669 130.254601 
L 259.873794 130.307349 
L 257.969359 130.498689 
L 255.910639 130.81607 
L 253.731445 131.238693 
L 251.467565 131.738874 
L 249.156183 132.283855 
L 246.835261 132.837945 
L 244.542919 133.364857 
L 242.316807 133.830084 
L 240.193486 134.203154 
L 238.207829 134.459625 
L 236.392444 134.582683 
L 234.777142 134.564246 
L 233.388446 134.40549 
L 232.249156 134.116774 
L 231.377974 133.716961 
L 230.789196 133.232187 
L 230.492481 132.69415 
L 230.492692 132.138038 
L 230.789814 131.600226 
L 231.37896 131.115898 
L 232.250445 130.716746 
L 233.389954 130.428893 
L 234.77877 130.27119 
L 236.394085 130.253979 
L 238.209376 130.378413 
L 240.194838 130.636389 
L 242.317876 131.011069 
L 244.543634 131.477984 
L 246.835576 132.006634 
L 249.156077 132.562484 
L 251.467046 133.109217 
L 253.730545 133.611115 
L 255.909419 134.03539 
L 257.967897 134.354332 
L 259.872186 134.547116 
L 261.591021 134.601167 
L 263.096179 134.512982 
L 264.362944 134.288357 
L 265.370512 133.942009 
L 266.102333 133.49661 
L 266.54638 132.981309 
z
" style="fill:#0000ff;stroke:#000000;stroke-linejoin:miter;"/>
   </g>
   <g id="patch_6">
    <path clip-path="url(#peaf805a9e9)" d="M 254.008264 140.57901 
L 188.776268 140.554279 
L 188.774208 145.990278 
L 254.006203 146.015009 
z
" style="fill:#999999;stroke:#000000;stroke-linejoin:miter;"/>
   </g>
   <g id="text_1">
    <!-- t = 3.1 -->
    <defs>
     <path d="M 18.3125 70.21875 
L 18.3125 54.6875 
L 36.8125 54.6875 
L 36.8125 47.703125 
L 18.3125 47.703125 
L 18.3125 18.015625 
Q 18.3125 11.328125 20.140625 9.421875 
Q 21.96875 7.515625 27.59375 7.515625 
L 36.8125 7.515625 
L 36.8125 0 
L 27.59375 0 
Q 17.1875 0 13.234375 3.875 
Q 9.28125 7.765625 9.28125 18.015625 
L 9.28125 47.703125 
L 2.6875 47.703125 
L 2.6875 54.6875 
L 9.28125 54.6875 
L 9.28125 70.21875 
z
" id="DejaVuSans-116"/>
     <path id="DejaVuSans-32"/>
     <path d="M 10.59375 45.40625 
L 73.1875 45.40625 
L 73.1875 37.203125 
L 10.59375 37.203125 
z
M 10.59375 25.484375 
L 73.1875 25.484375 
L 73.1875 17.1875 
L 10.59375 17.1875 
z
" id="DejaVuSans-61"/>
     <path d="M 40.578125 39.3125 
Q 47.65625 37.796875 51.625 33 
Q 55.609375 28.21875 55.609375 21.1875 
Q 55.609375 10.40625 48.1875 4.484375 
Q 40.765625 -1.421875 27.09375 -1.421875 
Q 22.515625 -1.421875 17.65625 -0.515625 
Q 12.796875 0.390625 7.625 2.203125 
L 7.625 11.71875 
Q 11.71875 9.328125 16.59375 8.109375 
Q 21.484375 6.890625 26.8125 6.890625 
Q 36.078125 6.890625 40.9375 10.546875 
Q 45.796875 14.203125 45.796875 21.1875 
Q 45.796875 27.640625 41.28125 31.265625 
Q 36.765625 34.90625 28.71875 34.90625 
L 20.21875 34.90625 
L 20.21875 43.015625 
L 29.109375 43.015625 
Q 36.375 43.015625 40.234375 45.921875 
Q 44.09375 48.828125 44.09375 54.296875 
Q 44.09375 59.90625 40.109375 62.90625 
Q 36.140625 65.921875 28.71875 65.921875 
Q 24.65625 65.921875 20.015625 65.03125 
Q 15.375 64.15625 9.8125 62.3125 
L 9.8125 71.09375 
Q 15.4375 72.65625 20.34375 73.4375 
Q 25.25 74.21875 29.59375 74.21875 
Q 40.828125 74.21875 47.359375 69.109375 
Q 53.90625 64.015625 53.90625 55.328125 
Q 53.90625 49.265625 50.4375 45.09375 
Q 46.96875 40.921875 40.578125 39.3125 
z
" id="DejaVuSans-51"/>
     <path d="M 10.6875 12.40625 
L 21 12.40625 
L 21 0 
L 10.6875 0 
z
" id="DejaVuSans-46"/>
     <path d="M 12.40625 8.296875 
L 28.515625 8.296875 
L 28.515625 63.921875 
L 10.984375 60.40625 
L 10.984375 69.390625 
L 28.421875 72.90625 
L 38.28125 72.90625 
L 38.28125 8.296875 
L 54.390625 8.296875 
L 54.390625 0 
L 12.40625 0 
z
" id="DejaVuSans-49"/>
    </defs>
    <g transform="translate(200.664375 28.56)scale(0.12 -0.12)">
     <use xlink:href="#DejaVuSans-116"/>
     <use x="39.208984" xlink:href="#DejaVuSans-32"/>
     <use x="70.996094" xlink:href="#DejaVuSans-61"/>
     <use x="154.785156" xlink:href="#DejaVuSans-32"/>
     <use x="186.572266" xlink:href="#DejaVuSans-51"/>
     <use x="250.195312" xlink:href="#DejaVuSans-46"/>
     <use x="281.982422" xlink:href="#DejaVuSans-49"/>
    </g>
   </g>
  </g>
 </g>
 <defs>
  <clipPath id="peaf805a9e9">
   <rect height="217.44" width="334.8" x="54" y="34.56"/>
  </clipPath>
 </defs>
</svg>
