<?xml version="1.0" encoding="utf-8" standalone="no"?>
<!DOCTYPE svg PUBLIC "-//W3C//DTD SVG 1.1//EN"
  "http://www.w3.org/Graphics/SVG/1.1/DTD/svg11.dtd">
<!-- Created with matplotlib (https://matplotlib.org/) -->
<svg height="288pt" version="1.1" viewBox="0 0 432 288" width="432pt" xmlns="http://www.w3.org/2000/svg" xmlns:xlink="http://www.w3.org/1999/xlink">
 <defs>
  <style type="text/css">
*{stroke-linecap:butt;stroke-linejoin:round;}
  </style>
 </defs>
 <g id="figure_1">
  <g id="patch_1">
   <path d="M 0 288 
L 432 288 
L 432 0 
L 0 0 
z
" style="fill:#ffffff;"/>
  </g>
  <g id="axes_1">
   <g id="patch_2">
    <path clip-path="url(#p36f0ccdac7)" d="M 195.057684 132.386685 
L 195.039406 143.258669 
L 193.952208 143.256842 
L 193.970485 132.384857 
z
" style="stroke:#000000;stroke-linejoin:miter;"/>
   </g>
   <g id="patch_3">
    <path clip-path="url(#p36f0ccdac7)" d="M 249.417607 132.478072 
L 249.399329 143.350057 
L 248.312131 143.348229 
L 248.330408 132.476245 
z
" style="stroke:#000000;stroke-linejoin:miter;"/>
   </g>
   <g id="patch_4">
    <path clip-path="url(#p36f0ccdac7)" d="M 212.634059 132.416233 
L 212.486221 131.864438 
L 212.043236 131.348222 
L 211.312335 130.901317 
L 210.305483 130.552894 
L 209.039183 130.325659 
L 207.53421 130.234374 
L 205.815268 130.284884 
L 203.910586 130.473744 
L 201.851454 130.788443 
L 199.671711 131.208229 
L 197.407182 131.705462 
L 195.095092 132.247433 
L 192.773451 132.7985 
L 190.480425 133.322428 
L 188.253709 133.784756 
L 186.129904 134.155061 
L 184.143915 134.408945 
L 182.328371 134.52964 
L 180.713095 134.5091 
L 179.324607 134.348536 
L 178.185694 134.058337 
L 177.315032 133.65739 
L 176.726886 133.171849 
L 176.430872 132.633426 
L 176.431807 132.077315 
L 176.729629 131.53989 
L 177.319405 131.05633 
L 178.19141 130.658313 
L 179.331292 130.371944 
L 180.720312 130.21605 
L 182.335648 130.200941 
L 184.150776 130.32774 
L 186.135901 130.588301 
L 188.258448 130.965744 
L 190.483597 131.435557 
L 192.774849 131.967191 
L 195.094624 132.526061 
L 197.404879 133.075803 
L 199.667723 133.580648 
L 201.846042 134.00776 
L 203.904104 134.329381 
L 205.80814 134.524644 
L 207.526903 134.580933 
L 209.032174 134.494708 
L 210.299231 134.271733 
L 211.307249 133.926697 
L 212.039649 133.482252 
L 212.484367 132.967529 
z
" style="fill:#0000ff;stroke:#000000;stroke-linejoin:miter;"/>
   </g>
   <g id="patch_5">
    <path clip-path="url(#p36f0ccdac7)" d="M 266.993982 132.507621 
L 266.846145 131.955825 
L 266.40316 131.43961 
L 265.672259 130.992705 
L 264.665406 130.644281 
L 263.399106 130.417047 
L 261.894133 130.325762 
L 260.175191 130.376271 
L 258.270509 130.565131 
L 256.211378 130.879831 
L 254.031634 131.299617 
L 251.767106 131.79685 
L 249.455016 132.338821 
L 247.133374 132.889888 
L 244.840348 133.413816 
L 242.613632 133.876144 
L 240.489828 134.246449 
L 238.503838 134.500333 
L 236.688294 134.621028 
L 235.073018 134.600488 
L 233.68453 134.439924 
L 232.545617 134.149725 
L 231.674955 133.748778 
L 231.086809 133.263237 
L 230.790795 132.724814 
L 230.79173 132.168703 
L 231.089553 131.631278 
L 231.679328 131.147718 
L 232.551333 130.749701 
L 233.691215 130.463332 
L 235.080235 130.307438 
L 236.695571 130.292329 
L 238.510699 130.419128 
L 240.495824 130.679688 
L 242.618371 131.057132 
L 244.84352 131.526945 
L 247.134772 132.058579 
L 249.454547 132.617449 
L 251.764802 133.167191 
L 254.027646 133.672035 
L 256.205965 134.099148 
L 258.264027 134.420769 
L 260.168063 134.616032 
L 261.886826 134.672321 
L 263.392098 134.586096 
L 264.659154 134.363121 
L 265.667173 134.018085 
L 266.399572 133.57364 
L 266.84429 133.058917 
z
" style="fill:#0000ff;stroke:#000000;stroke-linejoin:miter;"/>
   </g>
   <g id="patch_6">
    <path clip-path="url(#p36f0ccdac7)" d="M 254.296292 140.640286 
L 189.064384 140.53062 
L 189.055245 145.966613 
L 254.287153 146.076278 
z
" style="fill:#999999;stroke:#000000;stroke-linejoin:miter;"/>
   </g>
   <g id="text_1">
    <!-- t = 2.8 -->
    <defs>
     <path d="M 18.3125 70.21875 
L 18.3125 54.6875 
L 36.8125 54.6875 
L 36.8125 47.703125 
L 18.3125 47.703125 
L 18.3125 18.015625 
Q 18.3125 11.328125 20.140625 9.421875 
Q 21.96875 7.515625 27.59375 7.515625 
L 36.8125 7.515625 
L 36.8125 0 
L 27.59375 0 
Q 17.1875 0 13.234375 3.875 
Q 9.28125 7.765625 9.28125 18.015625 
L 9.28125 47.703125 
L 2.6875 47.703125 
L 2.6875 54.6875 
L 9.28125 54.6875 
L 9.28125 70.21875 
z
" id="DejaVuSans-116"/>
     <path id="DejaVuSans-32"/>
     <path d="M 10.59375 45.40625 
L 73.1875 45.40625 
L 73.1875 37.203125 
L 10.59375 37.203125 
z
M 10.59375 25.484375 
L 73.1875 25.484375 
L 73.1875 17.1875 
L 10.59375 17.1875 
z
" id="DejaVuSans-61"/>
     <path d="M 19.1875 8.296875 
L 53.609375 8.296875 
L 53.609375 0 
L 7.328125 0 
L 7.328125 8.296875 
Q 12.9375 14.109375 22.625 23.890625 
Q 32.328125 33.6875 34.8125 36.53125 
Q 39.546875 41.84375 41.421875 45.53125 
Q 43.3125 49.21875 43.3125 52.78125 
Q 43.3125 58.59375 39.234375 62.25 
Q 35.15625 65.921875 28.609375 65.921875 
Q 23.96875 65.921875 18.8125 64.3125 
Q 13.671875 62.703125 7.8125 59.421875 
L 7.8125 69.390625 
Q 13.765625 71.78125 18.9375 73 
Q 24.125 74.21875 28.421875 74.21875 
Q 39.75 74.21875 46.484375 68.546875 
Q 53.21875 62.890625 53.21875 53.421875 
Q 53.21875 48.921875 51.53125 44.890625 
Q 49.859375 40.875 45.40625 35.40625 
Q 44.1875 33.984375 37.640625 27.21875 
Q 31.109375 20.453125 19.1875 8.296875 
z
" id="DejaVuSans-50"/>
     <path d="M 10.6875 12.40625 
L 21 12.40625 
L 21 0 
L 10.6875 0 
z
" id="DejaVuSans-46"/>
     <path d="M 31.78125 34.625 
Q 24.75 34.625 20.71875 30.859375 
Q 16.703125 27.09375 16.703125 20.515625 
Q 16.703125 13.921875 20.71875 10.15625 
Q 24.75 6.390625 31.78125 6.390625 
Q 38.8125 6.390625 42.859375 10.171875 
Q 46.921875 13.96875 46.921875 20.515625 
Q 46.921875 27.09375 42.890625 30.859375 
Q 38.875 34.625 31.78125 34.625 
z
M 21.921875 38.8125 
Q 15.578125 40.375 12.03125 44.71875 
Q 8.5 49.078125 8.5 55.328125 
Q 8.5 64.0625 14.71875 69.140625 
Q 20.953125 74.21875 31.78125 74.21875 
Q 42.671875 74.21875 48.875 69.140625 
Q 55.078125 64.0625 55.078125 55.328125 
Q 55.078125 49.078125 51.53125 44.71875 
Q 48 40.375 41.703125 38.8125 
Q 48.828125 37.15625 52.796875 32.3125 
Q 56.78125 27.484375 56.78125 20.515625 
Q 56.78125 9.90625 50.3125 4.234375 
Q 43.84375 -1.421875 31.78125 -1.421875 
Q 19.734375 -1.421875 13.25 4.234375 
Q 6.78125 9.90625 6.78125 20.515625 
Q 6.78125 27.484375 10.78125 32.3125 
Q 14.796875 37.15625 21.921875 38.8125 
z
M 18.3125 54.390625 
Q 18.3125 48.734375 21.84375 45.5625 
Q 25.390625 42.390625 31.78125 42.390625 
Q 38.140625 42.390625 41.71875 45.5625 
Q 45.3125 48.734375 45.3125 54.390625 
Q 45.3125 60.0625 41.71875 63.234375 
Q 38.140625 66.40625 31.78125 66.40625 
Q 25.390625 66.40625 21.84375 63.234375 
Q 18.3125 60.0625 18.3125 54.390625 
z
" id="DejaVuSans-56"/>
    </defs>
    <g transform="translate(200.664375 28.56)scale(0.12 -0.12)">
     <use xlink:href="#DejaVuSans-116"/>
     <use x="39.208984" xlink:href="#DejaVuSans-32"/>
     <use x="70.996094" xlink:href="#DejaVuSans-61"/>
     <use x="154.785156" xlink:href="#DejaVuSans-32"/>
     <use x="186.572266" xlink:href="#DejaVuSans-50"/>
     <use x="250.195312" xlink:href="#DejaVuSans-46"/>
     <use x="281.982422" xlink:href="#DejaVuSans-56"/>
    </g>
   </g>
  </g>
 </g>
 <defs>
  <clipPath id="p36f0ccdac7">
   <rect height="217.44" width="334.8" x="54" y="34.56"/>
  </clipPath>
 </defs>
</svg>
