<?xml version="1.0" encoding="utf-8" standalone="no"?>
<!DOCTYPE svg PUBLIC "-//W3C//DTD SVG 1.1//EN"
  "http://www.w3.org/Graphics/SVG/1.1/DTD/svg11.dtd">
<!-- Created with matplotlib (https://matplotlib.org/) -->
<svg height="288pt" version="1.1" viewBox="0 0 432 288" width="432pt" xmlns="http://www.w3.org/2000/svg" xmlns:xlink="http://www.w3.org/1999/xlink">
 <defs>
  <style type="text/css">
*{stroke-linecap:butt;stroke-linejoin:round;}
  </style>
 </defs>
 <g id="figure_1">
  <g id="patch_1">
   <path d="M 0 288 
L 432 288 
L 432 0 
L 0 0 
z
" style="fill:#ffffff;"/>
  </g>
  <g id="axes_1">
   <g id="patch_2">
    <path clip-path="url(#pf3bb8407f3)" d="M 200.507272 130.429577 
L 199.767604 141.276387 
L 198.682923 141.20242 
L 199.422591 130.355611 
z
" style="stroke:#000000;stroke-linejoin:miter;"/>
   </g>
   <g id="patch_3">
    <path clip-path="url(#pf3bb8407f3)" d="M 254.741319 134.12792 
L 254.001651 144.97473 
L 252.91697 144.900763 
L 253.656638 134.053953 
z
" style="stroke:#000000;stroke-linejoin:miter;"/>
   </g>
   <g id="patch_4">
    <path clip-path="url(#pf3bb8407f3)" d="M 218.042948 131.625375 
L 217.932051 131.064985 
L 217.524297 130.520513 
L 216.824662 130.026092 
L 215.843149 129.611625 
L 214.594719 129.300864 
L 213.09912 129.109914 
L 211.380615 129.046249 
L 209.467599 129.108304 
L 207.392124 129.285672 
L 205.189329 129.559892 
L 202.896796 129.905762 
L 200.553839 130.293115 
L 198.200747 130.688911 
L 195.878009 131.059525 
L 193.625522 131.373077 
L 191.481826 131.601636 
L 189.483367 131.723177 
L 187.663816 131.723132 
L 186.053462 131.595453 
L 184.678689 131.343107 
L 183.561543 130.977972 
L 182.719406 130.520134 
L 182.164775 129.996637 
L 181.905142 129.439758 
L 181.942977 128.884934 
L 182.275805 128.368457 
L 182.896368 127.925098 
L 183.792862 127.585821 
L 184.949234 127.375723 
L 186.345537 127.312343 
L 187.958316 127.404457 
L 189.761029 127.651422 
L 191.724488 128.043135 
L 193.817312 128.560593 
L 196.006381 129.177024 
L 198.257305 129.859526 
L 200.534883 130.571098 
L 202.803566 131.272929 
L 205.027923 131.926817 
L 207.173099 132.497534 
L 209.205283 132.955013 
L 211.092166 133.276192 
L 212.803405 133.446409 
L 214.311081 133.460259 
L 215.590141 133.321853 
L 216.618833 133.044466 
L 217.37911 132.649601 
L 217.857003 132.165522 
z
" style="fill:#0000ff;stroke:#000000;stroke-linejoin:miter;"/>
   </g>
   <g id="patch_5">
    <path clip-path="url(#pf3bb8407f3)" d="M 272.276995 135.323718 
L 272.166098 134.763328 
L 271.758344 134.218855 
L 271.058709 133.724435 
L 270.077197 133.309968 
L 268.828766 132.999207 
L 267.333167 132.808257 
L 265.614662 132.744592 
L 263.701646 132.806646 
L 261.626171 132.984015 
L 259.423376 133.258234 
L 257.130843 133.604105 
L 254.787886 133.991458 
L 252.434794 134.387254 
L 250.112056 134.757868 
L 247.859569 135.071419 
L 245.715873 135.299979 
L 243.717414 135.42152 
L 241.897863 135.421474 
L 240.287509 135.293795 
L 238.912737 135.04145 
L 237.79559 134.676315 
L 236.953454 134.218477 
L 236.398822 133.694979 
L 236.139189 133.138101 
L 236.177024 132.583277 
L 236.509852 132.066799 
L 237.130415 131.623441 
L 238.026909 131.284164 
L 239.183281 131.074066 
L 240.579584 131.010686 
L 242.192363 131.102799 
L 243.995076 131.349765 
L 245.958536 131.741478 
L 248.051359 132.258935 
L 250.240428 132.875366 
L 252.491352 133.557869 
L 254.76893 134.269441 
L 257.037613 134.971272 
L 259.26197 135.625159 
L 261.407146 136.195877 
L 263.43933 136.653356 
L 265.326213 136.974534 
L 267.037452 137.144751 
L 268.545128 137.158602 
L 269.824188 137.020196 
L 270.85288 136.742809 
L 271.613157 136.347943 
L 272.09105 135.863865 
z
" style="fill:#0000ff;stroke:#000000;stroke-linejoin:miter;"/>
   </g>
   <g id="patch_6">
    <path clip-path="url(#pf3bb8407f3)" d="M 259.067632 142.595878 
L 193.986776 138.157867 
L 193.616941 143.581271 
L 258.697798 148.019283 
z
" style="fill:#999999;stroke:#000000;stroke-linejoin:miter;"/>
   </g>
   <g id="text_1">
    <!-- t = 1.5 -->
    <defs>
     <path d="M 18.3125 70.21875 
L 18.3125 54.6875 
L 36.8125 54.6875 
L 36.8125 47.703125 
L 18.3125 47.703125 
L 18.3125 18.015625 
Q 18.3125 11.328125 20.140625 9.421875 
Q 21.96875 7.515625 27.59375 7.515625 
L 36.8125 7.515625 
L 36.8125 0 
L 27.59375 0 
Q 17.1875 0 13.234375 3.875 
Q 9.28125 7.765625 9.28125 18.015625 
L 9.28125 47.703125 
L 2.6875 47.703125 
L 2.6875 54.6875 
L 9.28125 54.6875 
L 9.28125 70.21875 
z
" id="DejaVuSans-116"/>
     <path id="DejaVuSans-32"/>
     <path d="M 10.59375 45.40625 
L 73.1875 45.40625 
L 73.1875 37.203125 
L 10.59375 37.203125 
z
M 10.59375 25.484375 
L 73.1875 25.484375 
L 73.1875 17.1875 
L 10.59375 17.1875 
z
" id="DejaVuSans-61"/>
     <path d="M 12.40625 8.296875 
L 28.515625 8.296875 
L 28.515625 63.921875 
L 10.984375 60.40625 
L 10.984375 69.390625 
L 28.421875 72.90625 
L 38.28125 72.90625 
L 38.28125 8.296875 
L 54.390625 8.296875 
L 54.390625 0 
L 12.40625 0 
z
" id="DejaVuSans-49"/>
     <path d="M 10.6875 12.40625 
L 21 12.40625 
L 21 0 
L 10.6875 0 
z
" id="DejaVuSans-46"/>
     <path d="M 10.796875 72.90625 
L 49.515625 72.90625 
L 49.515625 64.59375 
L 19.828125 64.59375 
L 19.828125 46.734375 
Q 21.96875 47.46875 24.109375 47.828125 
Q 26.265625 48.1875 28.421875 48.1875 
Q 40.625 48.1875 47.75 41.5 
Q 54.890625 34.8125 54.890625 23.390625 
Q 54.890625 11.625 47.5625 5.09375 
Q 40.234375 -1.421875 26.90625 -1.421875 
Q 22.3125 -1.421875 17.546875 -0.640625 
Q 12.796875 0.140625 7.71875 1.703125 
L 7.71875 11.625 
Q 12.109375 9.234375 16.796875 8.0625 
Q 21.484375 6.890625 26.703125 6.890625 
Q 35.15625 6.890625 40.078125 11.328125 
Q 45.015625 15.765625 45.015625 23.390625 
Q 45.015625 31 40.078125 35.4375 
Q 35.15625 39.890625 26.703125 39.890625 
Q 22.75 39.890625 18.8125 39.015625 
Q 14.890625 38.140625 10.796875 36.28125 
z
" id="DejaVuSans-53"/>
    </defs>
    <g transform="translate(200.664375 28.56)scale(0.12 -0.12)">
     <use xlink:href="#DejaVuSans-116"/>
     <use x="39.208984" xlink:href="#DejaVuSans-32"/>
     <use x="70.996094" xlink:href="#DejaVuSans-61"/>
     <use x="154.785156" xlink:href="#DejaVuSans-32"/>
     <use x="186.572266" xlink:href="#DejaVuSans-49"/>
     <use x="250.195312" xlink:href="#DejaVuSans-46"/>
     <use x="281.982422" xlink:href="#DejaVuSans-53"/>
    </g>
   </g>
  </g>
 </g>
 <defs>
  <clipPath id="pf3bb8407f3">
   <rect height="217.44" width="334.8" x="54" y="34.56"/>
  </clipPath>
 </defs>
</svg>
