<?xml version="1.0" encoding="utf-8" standalone="no"?>
<!DOCTYPE svg PUBLIC "-//W3C//DTD SVG 1.1//EN"
  "http://www.w3.org/Graphics/SVG/1.1/DTD/svg11.dtd">
<!-- Created with matplotlib (https://matplotlib.org/) -->
<svg height="288pt" version="1.1" viewBox="0 0 432 288" width="432pt" xmlns="http://www.w3.org/2000/svg" xmlns:xlink="http://www.w3.org/1999/xlink">
 <defs>
  <style type="text/css">
*{stroke-linecap:butt;stroke-linejoin:round;}
  </style>
 </defs>
 <g id="figure_1">
  <g id="patch_1">
   <path d="M 0 288 
L 432 288 
L 432 0 
L 0 0 
z
" style="fill:#ffffff;"/>
  </g>
  <g id="axes_1">
   <g id="patch_2">
    <path clip-path="url(#p6f0e0eeadc)" d="M 194.756655 132.409291 
L 194.757078 143.281291 
L 193.669878 143.281333 
L 193.669455 132.409333 
z
" style="stroke:#000000;stroke-linejoin:miter;"/>
   </g>
   <g id="patch_3">
    <path clip-path="url(#p6f0e0eeadc)" d="M 249.116655 132.407177 
L 249.117078 143.279177 
L 248.029878 143.279219 
L 248.029455 132.407219 
z
" style="stroke:#000000;stroke-linejoin:miter;"/>
   </g>
   <g id="patch_4">
    <path clip-path="url(#p6f0e0eeadc)" d="M 212.333055 132.408607 
L 212.184268 131.857067 
L 211.740396 131.341614 
L 211.008727 130.895967 
L 210.001277 130.549276 
L 208.734588 130.32422 
L 207.22946 130.235523 
L 205.510607 130.28899 
L 203.606253 130.481125 
L 201.547666 130.799366 
L 199.368648 131.222901 
L 197.104978 131.724028 
L 194.793824 132.269975 
L 192.473134 132.825035 
L 190.181012 133.352906 
L 187.955095 133.819063 
L 185.83193 134.193021 
L 183.84638 134.450321 
L 182.031047 134.574138 
L 180.415737 134.556377 
L 179.026976 134.398202 
L 177.887565 134.109962 
L 177.016215 133.710513 
L 176.427234 133.225985 
L 176.130295 132.688072 
L 176.130273 132.13196 
L 176.427171 131.594024 
L 177.016114 131.10945 
L 177.887433 130.709933 
L 179.026821 130.421604 
L 180.41557 130.263321 
L 182.030878 130.245434 
L 183.846221 130.36911 
L 185.831791 130.626256 
L 187.954985 131.000048 
L 190.180939 131.466032 
L 192.473101 131.993725 
L 194.793835 132.548604 
L 197.105031 133.094371 
L 199.368741 133.595323 
L 201.547791 134.018687 
L 203.606403 134.336768 
L 205.510772 134.528756 
L 207.229629 134.582089 
L 208.734751 134.493275 
L 210.001422 134.268121 
L 211.008845 133.921351 
L 211.740479 133.475647 
L 212.184311 132.96016 
z
" style="fill:#0000ff;stroke:#000000;stroke-linejoin:miter;"/>
   </g>
   <g id="patch_5">
    <path clip-path="url(#p6f0e0eeadc)" d="M 266.693055 132.406493 
L 266.544268 131.854952 
L 266.100396 131.3395 
L 265.368727 130.893852 
L 264.361277 130.547161 
L 263.094588 130.322105 
L 261.58946 130.233409 
L 259.870607 130.286875 
L 257.966253 130.479011 
L 255.907666 130.797252 
L 253.728648 131.220786 
L 251.464978 131.721914 
L 249.153824 132.267861 
L 246.833134 132.822921 
L 244.541012 133.350791 
L 242.315095 133.816949 
L 240.19193 134.190906 
L 238.20638 134.448207 
L 236.391047 134.572024 
L 234.775737 134.554262 
L 233.386975 134.396087 
L 232.247565 134.107847 
L 231.376215 133.708398 
L 230.787234 133.22387 
L 230.490295 132.685957 
L 230.490273 132.129845 
L 230.787171 131.591909 
L 231.376114 131.107335 
L 232.247433 130.707818 
L 233.386821 130.41949 
L 234.77557 130.261206 
L 236.390878 130.243319 
L 238.206221 130.366995 
L 240.191791 130.624141 
L 242.314985 130.997933 
L 244.540939 131.463918 
L 246.833101 131.99161 
L 249.153835 132.546489 
L 251.465031 133.092257 
L 253.728741 133.593208 
L 255.907791 134.016573 
L 257.966403 134.334654 
L 259.870772 134.526642 
L 261.589629 134.579974 
L 263.094751 134.49116 
L 264.361422 134.266006 
L 265.368845 133.919237 
L 266.100479 133.473532 
L 266.544311 132.958045 
z
" style="fill:#0000ff;stroke:#000000;stroke-linejoin:miter;"/>
   </g>
   <g id="patch_6">
    <path clip-path="url(#p6f0e0eeadc)" d="M 254.009372 140.560986 
L 188.777372 140.563524 
L 188.777583 145.999524 
L 254.009583 145.996986 
z
" style="fill:#999999;stroke:#000000;stroke-linejoin:miter;"/>
   </g>
   <g id="text_1">
    <!-- t = 4.0 -->
    <defs>
     <path d="M 18.3125 70.21875 
L 18.3125 54.6875 
L 36.8125 54.6875 
L 36.8125 47.703125 
L 18.3125 47.703125 
L 18.3125 18.015625 
Q 18.3125 11.328125 20.140625 9.421875 
Q 21.96875 7.515625 27.59375 7.515625 
L 36.8125 7.515625 
L 36.8125 0 
L 27.59375 0 
Q 17.1875 0 13.234375 3.875 
Q 9.28125 7.765625 9.28125 18.015625 
L 9.28125 47.703125 
L 2.6875 47.703125 
L 2.6875 54.6875 
L 9.28125 54.6875 
L 9.28125 70.21875 
z
" id="DejaVuSans-116"/>
     <path id="DejaVuSans-32"/>
     <path d="M 10.59375 45.40625 
L 73.1875 45.40625 
L 73.1875 37.203125 
L 10.59375 37.203125 
z
M 10.59375 25.484375 
L 73.1875 25.484375 
L 73.1875 17.1875 
L 10.59375 17.1875 
z
" id="DejaVuSans-61"/>
     <path d="M 37.796875 64.3125 
L 12.890625 25.390625 
L 37.796875 25.390625 
z
M 35.203125 72.90625 
L 47.609375 72.90625 
L 47.609375 25.390625 
L 58.015625 25.390625 
L 58.015625 17.1875 
L 47.609375 17.1875 
L 47.609375 0 
L 37.796875 0 
L 37.796875 17.1875 
L 4.890625 17.1875 
L 4.890625 26.703125 
z
" id="DejaVuSans-52"/>
     <path d="M 10.6875 12.40625 
L 21 12.40625 
L 21 0 
L 10.6875 0 
z
" id="DejaVuSans-46"/>
     <path d="M 31.78125 66.40625 
Q 24.171875 66.40625 20.328125 58.90625 
Q 16.5 51.421875 16.5 36.375 
Q 16.5 21.390625 20.328125 13.890625 
Q 24.171875 6.390625 31.78125 6.390625 
Q 39.453125 6.390625 43.28125 13.890625 
Q 47.125 21.390625 47.125 36.375 
Q 47.125 51.421875 43.28125 58.90625 
Q 39.453125 66.40625 31.78125 66.40625 
z
M 31.78125 74.21875 
Q 44.046875 74.21875 50.515625 64.515625 
Q 56.984375 54.828125 56.984375 36.375 
Q 56.984375 17.96875 50.515625 8.265625 
Q 44.046875 -1.421875 31.78125 -1.421875 
Q 19.53125 -1.421875 13.0625 8.265625 
Q 6.59375 17.96875 6.59375 36.375 
Q 6.59375 54.828125 13.0625 64.515625 
Q 19.53125 74.21875 31.78125 74.21875 
z
" id="DejaVuSans-48"/>
    </defs>
    <g transform="translate(200.664375 28.56)scale(0.12 -0.12)">
     <use xlink:href="#DejaVuSans-116"/>
     <use x="39.208984" xlink:href="#DejaVuSans-32"/>
     <use x="70.996094" xlink:href="#DejaVuSans-61"/>
     <use x="154.785156" xlink:href="#DejaVuSans-32"/>
     <use x="186.572266" xlink:href="#DejaVuSans-52"/>
     <use x="250.195312" xlink:href="#DejaVuSans-46"/>
     <use x="281.982422" xlink:href="#DejaVuSans-48"/>
    </g>
   </g>
  </g>
 </g>
 <defs>
  <clipPath id="p6f0e0eeadc">
   <rect height="217.44" width="334.8" x="54" y="34.56"/>
  </clipPath>
 </defs>
</svg>
