<?xml version="1.0" encoding="utf-8" standalone="no"?>
<!DOCTYPE svg PUBLIC "-//W3C//DTD SVG 1.1//EN"
  "http://www.w3.org/Graphics/SVG/1.1/DTD/svg11.dtd">
<!-- Created with matplotlib (https://matplotlib.org/) -->
<svg height="288pt" version="1.1" viewBox="0 0 432 288" width="432pt" xmlns="http://www.w3.org/2000/svg" xmlns:xlink="http://www.w3.org/1999/xlink">
 <defs>
  <style type="text/css">
*{stroke-linecap:butt;stroke-linejoin:round;}
  </style>
 </defs>
 <g id="figure_1">
  <g id="patch_1">
   <path d="M 0 288 
L 432 288 
L 432 0 
L 0 0 
z
" style="fill:#ffffff;"/>
  </g>
  <g id="axes_1">
   <g id="patch_2">
    <path clip-path="url(#p60a36c481f)" d="M 287.656365 251.462471 
L 290.513772 261.952257 
L 289.464793 262.237998 
L 286.607387 251.748212 
z
" style="stroke:#000000;stroke-linejoin:miter;"/>
   </g>
   <g id="patch_3">
    <path clip-path="url(#p60a36c481f)" d="M 340.105296 237.175439 
L 342.962702 247.665225 
L 341.913723 247.950965 
L 339.056317 237.461179 
z
" style="stroke:#000000;stroke-linejoin:miter;"/>
   </g>
   <g id="patch_4">
    <path clip-path="url(#p60a36c481f)" d="M 304.614853 246.842997 
L 304.326359 246.34994 
L 303.762634 245.969246 
L 302.93957 245.731533 
L 301.876422 245.661769 
L 300.595111 245.77749 
L 299.119573 246.087435 
L 297.475181 246.590711 
L 295.688246 247.27653 
L 293.785639 248.124552 
L 291.794502 249.105814 
L 289.742079 250.184188 
L 287.655618 251.318284 
L 285.562351 252.463679 
L 283.489504 253.575332 
L 281.464317 254.610044 
L 279.514043 255.528794 
L 277.665891 256.298825 
L 275.946896 256.895333 
L 274.38369 257.302674 
L 273.002171 257.515004 
L 271.82706 257.536314 
L 270.881365 257.379882 
L 270.185758 257.067158 
L 269.757899 256.626182 
L 269.61174 256.08962 
L 269.756842 255.49257 
L 270.197747 254.870261 
L 270.933456 254.255816 
L 271.957031 253.678207 
L 273.255378 253.160544 
L 274.809214 252.718807 
L 276.593256 252.361091 
L 278.576617 252.087422 
L 280.723416 251.890133 
L 282.993591 251.754793 
L 285.343864 251.661594 
L 287.728848 251.587117 
L 290.102236 251.506355 
L 292.418028 251.394832 
L 294.631749 251.230695 
L 296.701596 250.996625 
L 298.589487 250.681426 
L 300.261949 250.281194 
L 301.690832 249.799978 
L 302.853819 249.249875 
L 303.73471 248.650557 
L 304.323505 248.028255 
L 304.616276 247.414253 
z
" style="fill:#0000ff;stroke:#000000;stroke-linejoin:miter;"/>
   </g>
   <g id="patch_5">
    <path clip-path="url(#p60a36c481f)" d="M 357.063783 232.555965 
L 356.775289 232.062907 
L 356.211564 231.682213 
L 355.388501 231.4445 
L 354.325353 231.374736 
L 353.044041 231.490457 
L 351.568504 231.800403 
L 349.924111 232.303679 
L 348.137177 232.989498 
L 346.234569 233.83752 
L 344.243432 234.818782 
L 342.191009 235.897156 
L 340.104548 237.031252 
L 338.011281 238.176646 
L 335.938434 239.2883 
L 333.913247 240.323012 
L 331.962973 241.241762 
L 330.114821 242.011792 
L 328.395826 242.6083 
L 326.83262 243.015642 
L 325.451101 243.227972 
L 324.275991 243.249282 
L 323.330296 243.092849 
L 322.634688 242.780126 
L 322.20683 242.339149 
L 322.060671 241.802588 
L 322.205772 241.205537 
L 322.646678 240.583229 
L 323.382386 239.968784 
L 324.405962 239.391174 
L 325.704308 238.873512 
L 327.258145 238.431774 
L 329.042187 238.074059 
L 331.025547 237.800389 
L 333.172347 237.603101 
L 335.442521 237.467761 
L 337.792794 237.374561 
L 340.177778 237.300085 
L 342.551166 237.219323 
L 344.866958 237.1078 
L 347.080679 236.943663 
L 349.150526 236.709593 
L 351.038417 236.394393 
L 352.710879 235.994161 
L 354.139763 235.512946 
L 355.302749 234.962842 
L 356.18364 234.363525 
L 356.772436 233.741222 
L 357.065207 233.12722 
z
" style="fill:#0000ff;stroke:#000000;stroke-linejoin:miter;"/>
   </g>
   <g id="patch_6">
    <path clip-path="url(#p60a36c481f)" d="M 346.968754 243.756945 
L 284.030038 260.901384 
L 285.458741 266.146277 
L 348.397457 249.001838 
z
" style="fill:#999999;stroke:#000000;stroke-linejoin:miter;"/>
   </g>
   <g id="text_1">
    <!-- t = 0.1 -->
    <defs>
     <path d="M 18.3125 70.21875 
L 18.3125 54.6875 
L 36.8125 54.6875 
L 36.8125 47.703125 
L 18.3125 47.703125 
L 18.3125 18.015625 
Q 18.3125 11.328125 20.140625 9.421875 
Q 21.96875 7.515625 27.59375 7.515625 
L 36.8125 7.515625 
L 36.8125 0 
L 27.59375 0 
Q 17.1875 0 13.234375 3.875 
Q 9.28125 7.765625 9.28125 18.015625 
L 9.28125 47.703125 
L 2.6875 47.703125 
L 2.6875 54.6875 
L 9.28125 54.6875 
L 9.28125 70.21875 
z
" id="DejaVuSans-116"/>
     <path id="DejaVuSans-32"/>
     <path d="M 10.59375 45.40625 
L 73.1875 45.40625 
L 73.1875 37.203125 
L 10.59375 37.203125 
z
M 10.59375 25.484375 
L 73.1875 25.484375 
L 73.1875 17.1875 
L 10.59375 17.1875 
z
" id="DejaVuSans-61"/>
     <path d="M 31.78125 66.40625 
Q 24.171875 66.40625 20.328125 58.90625 
Q 16.5 51.421875 16.5 36.375 
Q 16.5 21.390625 20.328125 13.890625 
Q 24.171875 6.390625 31.78125 6.390625 
Q 39.453125 6.390625 43.28125 13.890625 
Q 47.125 21.390625 47.125 36.375 
Q 47.125 51.421875 43.28125 58.90625 
Q 39.453125 66.40625 31.78125 66.40625 
z
M 31.78125 74.21875 
Q 44.046875 74.21875 50.515625 64.515625 
Q 56.984375 54.828125 56.984375 36.375 
Q 56.984375 17.96875 50.515625 8.265625 
Q 44.046875 -1.421875 31.78125 -1.421875 
Q 19.53125 -1.421875 13.0625 8.265625 
Q 6.59375 17.96875 6.59375 36.375 
Q 6.59375 54.828125 13.0625 64.515625 
Q 19.53125 74.21875 31.78125 74.21875 
z
" id="DejaVuSans-48"/>
     <path d="M 10.6875 12.40625 
L 21 12.40625 
L 21 0 
L 10.6875 0 
z
" id="DejaVuSans-46"/>
     <path d="M 12.40625 8.296875 
L 28.515625 8.296875 
L 28.515625 63.921875 
L 10.984375 60.40625 
L 10.984375 69.390625 
L 28.421875 72.90625 
L 38.28125 72.90625 
L 38.28125 8.296875 
L 54.390625 8.296875 
L 54.390625 0 
L 12.40625 0 
z
" id="DejaVuSans-49"/>
    </defs>
    <g transform="translate(200.664375 28.56)scale(0.12 -0.12)">
     <use xlink:href="#DejaVuSans-116"/>
     <use x="39.208984" xlink:href="#DejaVuSans-32"/>
     <use x="70.996094" xlink:href="#DejaVuSans-61"/>
     <use x="154.785156" xlink:href="#DejaVuSans-32"/>
     <use x="186.572266" xlink:href="#DejaVuSans-48"/>
     <use x="250.195312" xlink:href="#DejaVuSans-46"/>
     <use x="281.982422" xlink:href="#DejaVuSans-49"/>
    </g>
   </g>
  </g>
 </g>
 <defs>
  <clipPath id="p60a36c481f">
   <rect height="217.44" width="334.8" x="54" y="34.56"/>
  </clipPath>
 </defs>
</svg>
