<?xml version="1.0" encoding="utf-8" standalone="no"?>
<!DOCTYPE svg PUBLIC "-//W3C//DTD SVG 1.1//EN"
  "http://www.w3.org/Graphics/SVG/1.1/DTD/svg11.dtd">
<!-- Created with matplotlib (https://matplotlib.org/) -->
<svg height="288pt" version="1.1" viewBox="0 0 432 288" width="432pt" xmlns="http://www.w3.org/2000/svg" xmlns:xlink="http://www.w3.org/1999/xlink">
 <defs>
  <style type="text/css">
*{stroke-linecap:butt;stroke-linejoin:round;}
  </style>
 </defs>
 <g id="figure_1">
  <g id="patch_1">
   <path d="M 0 288 
L 432 288 
L 432 0 
L 0 0 
z
" style="fill:#ffffff;"/>
  </g>
  <g id="axes_1">
   <g id="patch_2">
    <path clip-path="url(#pbf048c7017)" d="M 204.038023 136.752106 
L 202.953399 147.569868 
L 201.871622 147.461405 
L 202.956247 136.643643 
z
" style="stroke:#000000;stroke-linejoin:miter;"/>
   </g>
   <g id="patch_3">
    <path clip-path="url(#pbf048c7017)" d="M 258.126833 142.175227 
L 257.042208 152.992989 
L 255.960432 152.884527 
L 257.045057 142.066765 
z
" style="stroke:#000000;stroke-linejoin:miter;"/>
   </g>
   <g id="patch_4">
    <path clip-path="url(#pbf048c7017)" d="M 221.526738 138.505582 
L 221.433739 137.941945 
L 221.043526 137.384767 
L 220.359987 136.868323 
L 219.392167 136.422817 
L 218.154263 136.072468 
L 216.665502 135.833999 
L 214.949895 135.715654 
L 213.035873 135.716772 
L 210.955803 135.827974 
L 208.745394 136.031924 
L 206.443012 136.304631 
L 204.08891 136.617195 
L 201.724411 136.937875 
L 199.39105 137.234352 
L 197.129723 137.476032 
L 194.979837 137.636226 
L 192.978521 137.694081 
L 191.159894 137.636106 
L 189.554422 137.457223 
L 188.18838 137.161236 
L 187.083425 136.76072 
L 186.256291 136.276303 
L 185.718608 135.735413 
L 185.476835 135.17055 
L 185.532315 134.617213 
L 185.881417 134.111593 
L 186.515781 133.688216 
L 187.422622 133.377653 
L 188.585098 133.204477 
L 189.98271 133.185584 
L 191.591739 133.328996 
L 193.385675 133.63323 
L 195.335669 134.087255 
L 197.410957 134.67108 
L 199.579291 135.356892 
L 201.807345 136.110711 
L 204.061114 136.894434 
L 206.306303 137.668138 
L 208.508714 138.39251 
L 210.634633 139.031234 
L 212.651222 139.553181 
L 214.526922 139.934269 
L 216.231875 140.158881 
L 217.738346 140.220724 
L 219.021164 140.12311 
L 220.058165 139.878614 
L 220.830629 139.508153 
L 221.323691 139.039535 
z
" style="fill:#0000ff;stroke:#000000;stroke-linejoin:miter;"/>
   </g>
   <g id="patch_5">
    <path clip-path="url(#pbf048c7017)" d="M 275.615548 143.928703 
L 275.522549 143.365067 
L 275.132336 142.807889 
L 274.448797 142.291444 
L 273.480977 141.845939 
L 272.243073 141.495589 
L 270.754312 141.25712 
L 269.038705 141.138775 
L 267.124682 141.139894 
L 265.044612 141.251096 
L 262.834204 141.455045 
L 260.531822 141.727753 
L 258.17772 142.040317 
L 255.813221 142.360996 
L 253.47986 142.657474 
L 251.218533 142.899153 
L 249.068647 143.059348 
L 247.067331 143.117202 
L 245.248704 143.059228 
L 243.643232 142.880344 
L 242.27719 142.584358 
L 241.172235 142.183842 
L 240.345101 141.699425 
L 239.807418 141.158534 
L 239.565645 140.593672 
L 239.621125 140.040334 
L 239.970227 139.534715 
L 240.604591 139.111338 
L 241.511432 138.800775 
L 242.673907 138.627599 
L 244.07152 138.608705 
L 245.680549 138.752118 
L 247.474485 139.056351 
L 249.424478 139.510377 
L 251.499767 140.094201 
L 253.668101 140.780013 
L 255.896155 141.533833 
L 258.149923 142.317555 
L 260.395113 143.091259 
L 262.597524 143.815632 
L 264.723443 144.454356 
L 266.740032 144.976302 
L 268.615732 145.357391 
L 270.320685 145.582002 
L 271.827155 145.643845 
L 273.109973 145.546231 
L 274.146975 145.301736 
L 274.919438 144.931275 
L 275.412501 144.462657 
z
" style="fill:#0000ff;stroke:#000000;stroke-linejoin:miter;"/>
   </g>
   <g id="patch_6">
    <path clip-path="url(#pbf048c7017)" d="M 262.181357 150.77663 
L 197.274786 144.268884 
L 196.732473 149.677765 
L 261.639045 156.185511 
z
" style="fill:#999999;stroke:#000000;stroke-linejoin:miter;"/>
   </g>
   <g id="text_1">
    <!-- t = 1.1 -->
    <defs>
     <path d="M 18.3125 70.21875 
L 18.3125 54.6875 
L 36.8125 54.6875 
L 36.8125 47.703125 
L 18.3125 47.703125 
L 18.3125 18.015625 
Q 18.3125 11.328125 20.140625 9.421875 
Q 21.96875 7.515625 27.59375 7.515625 
L 36.8125 7.515625 
L 36.8125 0 
L 27.59375 0 
Q 17.1875 0 13.234375 3.875 
Q 9.28125 7.765625 9.28125 18.015625 
L 9.28125 47.703125 
L 2.6875 47.703125 
L 2.6875 54.6875 
L 9.28125 54.6875 
L 9.28125 70.21875 
z
" id="DejaVuSans-116"/>
     <path id="DejaVuSans-32"/>
     <path d="M 10.59375 45.40625 
L 73.1875 45.40625 
L 73.1875 37.203125 
L 10.59375 37.203125 
z
M 10.59375 25.484375 
L 73.1875 25.484375 
L 73.1875 17.1875 
L 10.59375 17.1875 
z
" id="DejaVuSans-61"/>
     <path d="M 12.40625 8.296875 
L 28.515625 8.296875 
L 28.515625 63.921875 
L 10.984375 60.40625 
L 10.984375 69.390625 
L 28.421875 72.90625 
L 38.28125 72.90625 
L 38.28125 8.296875 
L 54.390625 8.296875 
L 54.390625 0 
L 12.40625 0 
z
" id="DejaVuSans-49"/>
     <path d="M 10.6875 12.40625 
L 21 12.40625 
L 21 0 
L 10.6875 0 
z
" id="DejaVuSans-46"/>
    </defs>
    <g transform="translate(200.664375 28.56)scale(0.12 -0.12)">
     <use xlink:href="#DejaVuSans-116"/>
     <use x="39.208984" xlink:href="#DejaVuSans-32"/>
     <use x="70.996094" xlink:href="#DejaVuSans-61"/>
     <use x="154.785156" xlink:href="#DejaVuSans-32"/>
     <use x="186.572266" xlink:href="#DejaVuSans-49"/>
     <use x="250.195312" xlink:href="#DejaVuSans-46"/>
     <use x="281.982422" xlink:href="#DejaVuSans-49"/>
    </g>
   </g>
  </g>
 </g>
 <defs>
  <clipPath id="pbf048c7017">
   <rect height="217.44" width="334.8" x="54" y="34.56"/>
  </clipPath>
 </defs>
</svg>
