<?xml version="1.0" encoding="utf-8" standalone="no"?>
<!DOCTYPE svg PUBLIC "-//W3C//DTD SVG 1.1//EN"
  "http://www.w3.org/Graphics/SVG/1.1/DTD/svg11.dtd">
<!-- Created with matplotlib (https://matplotlib.org/) -->
<svg height="288pt" version="1.1" viewBox="0 0 432 288" width="432pt" xmlns="http://www.w3.org/2000/svg" xmlns:xlink="http://www.w3.org/1999/xlink">
 <defs>
  <style type="text/css">
*{stroke-linecap:butt;stroke-linejoin:round;}
  </style>
 </defs>
 <g id="figure_1">
  <g id="patch_1">
   <path d="M 0 288 
L 432 288 
L 432 0 
L 0 0 
z
" style="fill:#ffffff;"/>
  </g>
  <g id="axes_1">
   <g id="patch_2">
    <path clip-path="url(#p069a9eb5d6)" d="M 194.697332 132.410442 
L 194.699894 143.282441 
L 193.612694 143.282697 
L 193.610132 132.410698 
z
" style="stroke:#000000;stroke-linejoin:miter;"/>
   </g>
   <g id="patch_3">
    <path clip-path="url(#p069a9eb5d6)" d="M 249.057331 132.397635 
L 249.059892 143.269634 
L 247.972692 143.26989 
L 247.970131 132.397891 
z
" style="stroke:#000000;stroke-linejoin:miter;"/>
   </g>
   <g id="patch_4">
    <path clip-path="url(#p069a9eb5d6)" d="M 212.273732 132.406301 
L 212.124837 131.854789 
L 211.680863 131.339424 
L 210.949107 130.89392 
L 209.941589 130.547428 
L 208.674856 130.322621 
L 207.16971 130.23422 
L 205.450868 130.288025 
L 203.546551 130.480535 
L 201.488027 130.799181 
L 199.309093 131.223144 
L 197.045521 131.724717 
L 194.734474 132.271118 
L 192.413893 132.826635 
L 190.121875 133.354956 
L 187.89605 133.821552 
L 185.772959 134.195927 
L 183.787459 134.453618 
L 181.97215 134.577792 
L 180.356838 134.560348 
L 178.968045 134.402446 
L 177.828577 134.11443 
L 176.957149 133.715153 
L 176.368073 133.23074 
L 176.071028 132.692886 
L 176.070897 132.136774 
L 176.367689 131.598779 
L 176.956536 131.11409 
L 177.827776 130.714402 
L 178.967108 130.425849 
L 180.355826 130.267292 
L 181.971131 130.249087 
L 183.786498 130.372406 
L 185.772119 130.629162 
L 187.895386 131.002536 
L 190.121431 131.468083 
L 192.413697 131.995324 
L 194.73454 132.549747 
L 197.045844 133.09506 
L 199.309652 133.595566 
L 201.488786 134.018502 
L 203.54746 134.336178 
L 205.451867 134.527791 
L 207.170734 134.580786 
L 208.675838 134.491676 
L 209.942465 134.266272 
L 210.94982 133.919305 
L 211.681366 133.473456 
L 212.125097 132.957882 
z
" style="fill:#0000ff;stroke:#000000;stroke-linejoin:miter;"/>
   </g>
   <g id="patch_5">
    <path clip-path="url(#p069a9eb5d6)" d="M 266.63373 132.393494 
L 266.484835 131.841982 
L 266.040862 131.326617 
L 265.309106 130.881113 
L 264.301587 130.534621 
L 263.034854 130.309814 
L 261.529709 130.221413 
L 259.810866 130.275218 
L 257.90655 130.467728 
L 255.848026 130.786374 
L 253.669091 131.210337 
L 251.405519 131.71191 
L 249.094473 132.258311 
L 246.773892 132.813828 
L 244.481874 133.342149 
L 242.256048 133.808745 
L 240.132957 134.18312 
L 238.147458 134.440811 
L 236.332149 134.564985 
L 234.716836 134.547541 
L 233.328043 134.389639 
L 232.188576 134.101623 
L 231.317148 133.702346 
L 230.728072 133.217933 
L 230.431026 132.680079 
L 230.430895 132.123967 
L 230.727687 131.585972 
L 231.316535 131.101283 
L 232.187775 130.701594 
L 233.327106 130.413042 
L 234.715825 130.254485 
L 236.331129 130.23628 
L 238.146496 130.359599 
L 240.132117 130.616355 
L 242.255384 130.989729 
L 244.481429 131.455276 
L 246.773696 131.982517 
L 249.094538 132.53694 
L 251.405842 133.082253 
L 253.66965 133.582759 
L 255.848784 134.005695 
L 257.907458 134.323371 
L 259.811865 134.514984 
L 261.530733 134.567979 
L 263.035836 134.478869 
L 264.302463 134.253465 
L 265.309818 133.906498 
L 266.041365 133.460649 
L 266.485095 132.945075 
z
" style="fill:#0000ff;stroke:#000000;stroke-linejoin:miter;"/>
   </g>
   <g id="patch_6">
    <path clip-path="url(#p069a9eb5d6)" d="M 253.951652 140.550482 
L 188.719654 140.56585 
L 188.720934 146.00185 
L 253.952932 145.986482 
z
" style="fill:#999999;stroke:#000000;stroke-linejoin:miter;"/>
   </g>
   <g id="text_1">
    <!-- t = 2.7 -->
    <defs>
     <path d="M 18.3125 70.21875 
L 18.3125 54.6875 
L 36.8125 54.6875 
L 36.8125 47.703125 
L 18.3125 47.703125 
L 18.3125 18.015625 
Q 18.3125 11.328125 20.140625 9.421875 
Q 21.96875 7.515625 27.59375 7.515625 
L 36.8125 7.515625 
L 36.8125 0 
L 27.59375 0 
Q 17.1875 0 13.234375 3.875 
Q 9.28125 7.765625 9.28125 18.015625 
L 9.28125 47.703125 
L 2.6875 47.703125 
L 2.6875 54.6875 
L 9.28125 54.6875 
L 9.28125 70.21875 
z
" id="DejaVuSans-116"/>
     <path id="DejaVuSans-32"/>
     <path d="M 10.59375 45.40625 
L 73.1875 45.40625 
L 73.1875 37.203125 
L 10.59375 37.203125 
z
M 10.59375 25.484375 
L 73.1875 25.484375 
L 73.1875 17.1875 
L 10.59375 17.1875 
z
" id="DejaVuSans-61"/>
     <path d="M 19.1875 8.296875 
L 53.609375 8.296875 
L 53.609375 0 
L 7.328125 0 
L 7.328125 8.296875 
Q 12.9375 14.109375 22.625 23.890625 
Q 32.328125 33.6875 34.8125 36.53125 
Q 39.546875 41.84375 41.421875 45.53125 
Q 43.3125 49.21875 43.3125 52.78125 
Q 43.3125 58.59375 39.234375 62.25 
Q 35.15625 65.921875 28.609375 65.921875 
Q 23.96875 65.921875 18.8125 64.3125 
Q 13.671875 62.703125 7.8125 59.421875 
L 7.8125 69.390625 
Q 13.765625 71.78125 18.9375 73 
Q 24.125 74.21875 28.421875 74.21875 
Q 39.75 74.21875 46.484375 68.546875 
Q 53.21875 62.890625 53.21875 53.421875 
Q 53.21875 48.921875 51.53125 44.890625 
Q 49.859375 40.875 45.40625 35.40625 
Q 44.1875 33.984375 37.640625 27.21875 
Q 31.109375 20.453125 19.1875 8.296875 
z
" id="DejaVuSans-50"/>
     <path d="M 10.6875 12.40625 
L 21 12.40625 
L 21 0 
L 10.6875 0 
z
" id="DejaVuSans-46"/>
     <path d="M 8.203125 72.90625 
L 55.078125 72.90625 
L 55.078125 68.703125 
L 28.609375 0 
L 18.3125 0 
L 43.21875 64.59375 
L 8.203125 64.59375 
z
" id="DejaVuSans-55"/>
    </defs>
    <g transform="translate(200.664375 28.56)scale(0.12 -0.12)">
     <use xlink:href="#DejaVuSans-116"/>
     <use x="39.208984" xlink:href="#DejaVuSans-32"/>
     <use x="70.996094" xlink:href="#DejaVuSans-61"/>
     <use x="154.785156" xlink:href="#DejaVuSans-32"/>
     <use x="186.572266" xlink:href="#DejaVuSans-50"/>
     <use x="250.195312" xlink:href="#DejaVuSans-46"/>
     <use x="281.982422" xlink:href="#DejaVuSans-55"/>
    </g>
   </g>
  </g>
 </g>
 <defs>
  <clipPath id="p069a9eb5d6">
   <rect height="217.44" width="334.8" x="54" y="34.56"/>
  </clipPath>
 </defs>
</svg>
