<?xml version="1.0" encoding="utf-8" standalone="no"?>
<!DOCTYPE svg PUBLIC "-//W3C//DTD SVG 1.1//EN"
  "http://www.w3.org/Graphics/SVG/1.1/DTD/svg11.dtd">
<!-- Created with matplotlib (https://matplotlib.org/) -->
<svg height="288pt" version="1.1" viewBox="0 0 432 288" width="432pt" xmlns="http://www.w3.org/2000/svg" xmlns:xlink="http://www.w3.org/1999/xlink">
 <defs>
  <style type="text/css">
*{stroke-linecap:butt;stroke-linejoin:round;}
  </style>
 </defs>
 <g id="figure_1">
  <g id="patch_1">
   <path d="M 0 288 
L 432 288 
L 432 0 
L 0 0 
z
" style="fill:#ffffff;"/>
  </g>
  <g id="axes_1">
   <g id="patch_2">
    <path clip-path="url(#p035fe6b908)" d="M 194.769775 132.404736 
L 194.767927 143.276736 
L 193.680727 143.276551 
L 193.682575 132.404551 
z
" style="stroke:#000000;stroke-linejoin:miter;"/>
   </g>
   <g id="patch_3">
    <path clip-path="url(#p035fe6b908)" d="M 249.129774 132.413976 
L 249.127926 143.285976 
L 248.040726 143.285791 
L 248.042574 132.413791 
z
" style="stroke:#000000;stroke-linejoin:miter;"/>
   </g>
   <g id="patch_4">
    <path clip-path="url(#p035fe6b908)" d="M 212.346174 132.407724 
L 212.197503 131.856152 
L 211.753739 131.340607 
L 211.022163 130.894806 
L 210.014785 130.547905 
L 208.748144 130.322585 
L 207.243034 130.233573 
L 205.52417 130.286681 
L 203.619776 130.478419 
L 201.561122 130.79623 
L 199.382016 131.219309 
L 197.118241 131.719964 
L 194.806973 132.265428 
L 192.486167 132.820003 
L 190.193935 133.347395 
L 187.96792 133.813088 
L 185.844678 134.186602 
L 183.859074 134.443487 
L 182.043715 134.566925 
L 180.428409 134.548827 
L 179.03968 134.390361 
L 177.90033 134.101883 
L 177.029064 133.702252 
L 176.440184 133.217601 
L 176.143357 132.679626 
L 176.143452 132.123514 
L 176.440462 131.58564 
L 177.029506 131.101189 
L 177.900908 130.701854 
L 179.040356 130.413764 
L 180.429139 130.25577 
L 182.044451 130.238221 
L 183.859768 130.362276 
L 185.845284 130.619837 
L 187.9684 130.994072 
L 190.194256 131.460522 
L 192.486308 131.988693 
L 194.806926 132.544057 
L 197.118008 133.090307 
L 199.381613 133.591731 
L 201.560575 134.015551 
L 203.61912 134.334062 
L 205.523449 134.526447 
L 207.242295 134.580139 
L 208.747435 134.491639 
L 210.014153 134.26675 
L 211.021649 133.920191 
L 211.753376 133.474639 
L 212.197316 132.959245 
z
" style="fill:#0000ff;stroke:#000000;stroke-linejoin:miter;"/>
   </g>
   <g id="patch_5">
    <path clip-path="url(#p035fe6b908)" d="M 266.706174 132.416963 
L 266.557502 131.865392 
L 266.113738 131.349846 
L 265.382162 130.904046 
L 264.374785 130.557145 
L 263.108143 130.331824 
L 261.603033 130.242813 
L 259.884169 130.29592 
L 257.979775 130.487659 
L 255.921122 130.80547 
L 253.742015 131.228549 
L 251.47824 131.729204 
L 249.166972 132.274668 
L 246.846166 132.829243 
L 244.553934 133.356635 
L 242.32792 133.822328 
L 240.204677 134.195841 
L 238.219073 134.452727 
L 236.403714 134.576165 
L 234.788408 134.558066 
L 233.39968 134.399601 
L 232.260329 134.111123 
L 231.389063 133.711492 
L 230.800184 133.226841 
L 230.503356 132.688866 
L 230.503451 132.132754 
L 230.800461 131.59488 
L 231.389505 131.110429 
L 232.260907 130.711094 
L 233.400356 130.423003 
L 234.789138 130.26501 
L 236.40445 130.24746 
L 238.219767 130.371516 
L 240.205283 130.629076 
L 242.328399 131.003312 
L 244.554255 131.469761 
L 246.846307 131.997932 
L 249.166925 132.553296 
L 251.478007 133.099546 
L 253.741612 133.600971 
L 255.920574 134.024791 
L 257.979119 134.343302 
L 259.883449 134.535687 
L 261.602295 134.589379 
L 263.107434 134.500879 
L 264.374153 134.275989 
L 265.381648 133.92943 
L 266.113375 133.483879 
L 266.557315 132.968485 
z
" style="fill:#0000ff;stroke:#000000;stroke-linejoin:miter;"/>
   </g>
   <g id="patch_6">
    <path clip-path="url(#p035fe6b908)" d="M 254.020788 140.568807 
L 188.788789 140.55772 
L 188.787865 145.99372 
L 254.019864 146.004807 
z
" style="fill:#999999;stroke:#000000;stroke-linejoin:miter;"/>
   </g>
   <g id="text_1">
    <!-- t = 3.2 -->
    <defs>
     <path d="M 18.3125 70.21875 
L 18.3125 54.6875 
L 36.8125 54.6875 
L 36.8125 47.703125 
L 18.3125 47.703125 
L 18.3125 18.015625 
Q 18.3125 11.328125 20.140625 9.421875 
Q 21.96875 7.515625 27.59375 7.515625 
L 36.8125 7.515625 
L 36.8125 0 
L 27.59375 0 
Q 17.1875 0 13.234375 3.875 
Q 9.28125 7.765625 9.28125 18.015625 
L 9.28125 47.703125 
L 2.6875 47.703125 
L 2.6875 54.6875 
L 9.28125 54.6875 
L 9.28125 70.21875 
z
" id="DejaVuSans-116"/>
     <path id="DejaVuSans-32"/>
     <path d="M 10.59375 45.40625 
L 73.1875 45.40625 
L 73.1875 37.203125 
L 10.59375 37.203125 
z
M 10.59375 25.484375 
L 73.1875 25.484375 
L 73.1875 17.1875 
L 10.59375 17.1875 
z
" id="DejaVuSans-61"/>
     <path d="M 40.578125 39.3125 
Q 47.65625 37.796875 51.625 33 
Q 55.609375 28.21875 55.609375 21.1875 
Q 55.609375 10.40625 48.1875 4.484375 
Q 40.765625 -1.421875 27.09375 -1.421875 
Q 22.515625 -1.421875 17.65625 -0.515625 
Q 12.796875 0.390625 7.625 2.203125 
L 7.625 11.71875 
Q 11.71875 9.328125 16.59375 8.109375 
Q 21.484375 6.890625 26.8125 6.890625 
Q 36.078125 6.890625 40.9375 10.546875 
Q 45.796875 14.203125 45.796875 21.1875 
Q 45.796875 27.640625 41.28125 31.265625 
Q 36.765625 34.90625 28.71875 34.90625 
L 20.21875 34.90625 
L 20.21875 43.015625 
L 29.109375 43.015625 
Q 36.375 43.015625 40.234375 45.921875 
Q 44.09375 48.828125 44.09375 54.296875 
Q 44.09375 59.90625 40.109375 62.90625 
Q 36.140625 65.921875 28.71875 65.921875 
Q 24.65625 65.921875 20.015625 65.03125 
Q 15.375 64.15625 9.8125 62.3125 
L 9.8125 71.09375 
Q 15.4375 72.65625 20.34375 73.4375 
Q 25.25 74.21875 29.59375 74.21875 
Q 40.828125 74.21875 47.359375 69.109375 
Q 53.90625 64.015625 53.90625 55.328125 
Q 53.90625 49.265625 50.4375 45.09375 
Q 46.96875 40.921875 40.578125 39.3125 
z
" id="DejaVuSans-51"/>
     <path d="M 10.6875 12.40625 
L 21 12.40625 
L 21 0 
L 10.6875 0 
z
" id="DejaVuSans-46"/>
     <path d="M 19.1875 8.296875 
L 53.609375 8.296875 
L 53.609375 0 
L 7.328125 0 
L 7.328125 8.296875 
Q 12.9375 14.109375 22.625 23.890625 
Q 32.328125 33.6875 34.8125 36.53125 
Q 39.546875 41.84375 41.421875 45.53125 
Q 43.3125 49.21875 43.3125 52.78125 
Q 43.3125 58.59375 39.234375 62.25 
Q 35.15625 65.921875 28.609375 65.921875 
Q 23.96875 65.921875 18.8125 64.3125 
Q 13.671875 62.703125 7.8125 59.421875 
L 7.8125 69.390625 
Q 13.765625 71.78125 18.9375 73 
Q 24.125 74.21875 28.421875 74.21875 
Q 39.75 74.21875 46.484375 68.546875 
Q 53.21875 62.890625 53.21875 53.421875 
Q 53.21875 48.921875 51.53125 44.890625 
Q 49.859375 40.875 45.40625 35.40625 
Q 44.1875 33.984375 37.640625 27.21875 
Q 31.109375 20.453125 19.1875 8.296875 
z
" id="DejaVuSans-50"/>
    </defs>
    <g transform="translate(200.664375 28.56)scale(0.12 -0.12)">
     <use xlink:href="#DejaVuSans-116"/>
     <use x="39.208984" xlink:href="#DejaVuSans-32"/>
     <use x="70.996094" xlink:href="#DejaVuSans-61"/>
     <use x="154.785156" xlink:href="#DejaVuSans-32"/>
     <use x="186.572266" xlink:href="#DejaVuSans-51"/>
     <use x="250.195312" xlink:href="#DejaVuSans-46"/>
     <use x="281.982422" xlink:href="#DejaVuSans-50"/>
    </g>
   </g>
  </g>
 </g>
 <defs>
  <clipPath id="p035fe6b908">
   <rect height="217.44" width="334.8" x="54" y="34.56"/>
  </clipPath>
 </defs>
</svg>
