<?xml version="1.0" encoding="utf-8" standalone="no"?>
<!DOCTYPE svg PUBLIC "-//W3C//DTD SVG 1.1//EN"
  "http://www.w3.org/Graphics/SVG/1.1/DTD/svg11.dtd">
<!-- Created with matplotlib (https://matplotlib.org/) -->
<svg height="288pt" version="1.1" viewBox="0 0 432 288" width="432pt" xmlns="http://www.w3.org/2000/svg" xmlns:xlink="http://www.w3.org/1999/xlink">
 <defs>
  <style type="text/css">
*{stroke-linecap:butt;stroke-linejoin:round;}
  </style>
 </defs>
 <g id="figure_1">
  <g id="patch_1">
   <path d="M 0 288 
L 432 288 
L 432 0 
L 0 0 
z
" style="fill:#ffffff;"/>
  </g>
  <g id="axes_1">
   <g id="patch_2">
    <path clip-path="url(#p6bd58c6725)" d="M 197.342781 134.663646 
L 197.549198 145.533686 
L 196.462194 145.554328 
L 196.255777 134.684288 
z
" style="stroke:#000000;stroke-linejoin:miter;"/>
   </g>
   <g id="patch_3">
    <path clip-path="url(#p6bd58c6725)" d="M 251.692983 133.631563 
L 251.899399 144.501603 
L 250.812395 144.522245 
L 250.605979 133.652205 
z
" style="stroke:#000000;stroke-linejoin:miter;"/>
   </g>
   <g id="patch_4">
    <path clip-path="url(#p6bd58c6725)" d="M 214.916013 134.329939 
L 214.756803 133.781316 
L 214.303244 133.274367 
L 213.563263 132.842662 
L 212.549425 132.515122 
L 211.278699 132.314107 
L 209.772161 132.253944 
L 208.05463 132.339968 
L 206.154258 132.568151 
L 204.10207 132.92534 
L 201.931468 133.390084 
L 199.677699 133.934012 
L 197.377304 134.523651 
L 195.067547 135.122582 
L 192.785839 135.693787 
L 190.569153 136.202036 
L 188.453455 136.616154 
L 186.473137 136.911029 
L 184.660475 137.069219 
L 183.04512 137.082066 
L 181.65361 136.950233 
L 180.508943 136.683633 
L 179.630181 136.300765 
L 179.032125 135.827484 
L 178.725047 135.295294 
L 178.714489 134.739282 
L 179.001141 134.195817 
L 179.580797 133.700171 
L 180.444389 133.284217 
L 181.57811 132.974352 
L 182.963611 132.789784 
L 184.57829 132.741295 
L 186.395651 132.830553 
L 188.385737 133.050032 
L 190.515631 133.383528 
L 192.750014 133.807253 
L 195.051764 134.291421 
L 197.382594 134.802229 
L 199.703717 135.304108 
L 201.976511 135.762079 
L 204.163192 136.14408 
L 206.227461 136.423099 
L 208.135126 136.57897 
L 209.854685 136.599726 
L 211.357853 136.48241 
L 212.620031 136.233296 
L 213.620703 135.867501 
L 214.343761 135.408014 
L 214.777747 134.884211 
z
" style="fill:#0000ff;stroke:#000000;stroke-linejoin:miter;"/>
   </g>
   <g id="patch_5">
    <path clip-path="url(#p6bd58c6725)" d="M 269.266214 133.297856 
L 269.107005 132.749233 
L 268.653446 132.242284 
L 267.913465 131.810579 
L 266.899627 131.483039 
L 265.628901 131.282024 
L 264.122363 131.221861 
L 262.404831 131.307885 
L 260.504459 131.536068 
L 258.452272 131.893257 
L 256.28167 132.358001 
L 254.027901 132.901929 
L 251.727506 133.491568 
L 249.417749 134.090499 
L 247.13604 134.661704 
L 244.919355 135.169953 
L 242.803657 135.584071 
L 240.823338 135.878946 
L 239.010677 136.037136 
L 237.395321 136.049983 
L 236.003812 135.91815 
L 234.859144 135.65155 
L 233.980382 135.268682 
L 233.382327 134.795401 
L 233.075249 134.263211 
L 233.06469 133.707199 
L 233.351342 133.163734 
L 233.930998 132.668088 
L 234.794591 132.252134 
L 235.928312 131.942269 
L 237.313813 131.757701 
L 238.928492 131.709212 
L 240.745852 131.79847 
L 242.735938 132.017949 
L 244.865833 132.351445 
L 247.100216 132.77517 
L 249.401965 133.259338 
L 251.732796 133.770146 
L 254.053918 134.272025 
L 256.326713 134.729996 
L 258.513394 135.111997 
L 260.577663 135.391016 
L 262.485328 135.546887 
L 264.204887 135.567643 
L 265.708055 135.450327 
L 266.970233 135.201213 
L 267.970905 134.835418 
L 268.693963 134.375931 
L 269.127948 133.852128 
z
" style="fill:#0000ff;stroke:#000000;stroke-linejoin:miter;"/>
   </g>
   <g id="patch_6">
    <path clip-path="url(#p6bd58c6725)" d="M 256.739313 141.691206 
L 191.519071 142.929705 
L 191.62228 148.364725 
L 256.842522 147.126226 
z
" style="fill:#999999;stroke:#000000;stroke-linejoin:miter;"/>
   </g>
   <g id="text_1">
    <!-- t = 1.4 -->
    <defs>
     <path d="M 18.3125 70.21875 
L 18.3125 54.6875 
L 36.8125 54.6875 
L 36.8125 47.703125 
L 18.3125 47.703125 
L 18.3125 18.015625 
Q 18.3125 11.328125 20.140625 9.421875 
Q 21.96875 7.515625 27.59375 7.515625 
L 36.8125 7.515625 
L 36.8125 0 
L 27.59375 0 
Q 17.1875 0 13.234375 3.875 
Q 9.28125 7.765625 9.28125 18.015625 
L 9.28125 47.703125 
L 2.6875 47.703125 
L 2.6875 54.6875 
L 9.28125 54.6875 
L 9.28125 70.21875 
z
" id="DejaVuSans-116"/>
     <path id="DejaVuSans-32"/>
     <path d="M 10.59375 45.40625 
L 73.1875 45.40625 
L 73.1875 37.203125 
L 10.59375 37.203125 
z
M 10.59375 25.484375 
L 73.1875 25.484375 
L 73.1875 17.1875 
L 10.59375 17.1875 
z
" id="DejaVuSans-61"/>
     <path d="M 12.40625 8.296875 
L 28.515625 8.296875 
L 28.515625 63.921875 
L 10.984375 60.40625 
L 10.984375 69.390625 
L 28.421875 72.90625 
L 38.28125 72.90625 
L 38.28125 8.296875 
L 54.390625 8.296875 
L 54.390625 0 
L 12.40625 0 
z
" id="DejaVuSans-49"/>
     <path d="M 10.6875 12.40625 
L 21 12.40625 
L 21 0 
L 10.6875 0 
z
" id="DejaVuSans-46"/>
     <path d="M 37.796875 64.3125 
L 12.890625 25.390625 
L 37.796875 25.390625 
z
M 35.203125 72.90625 
L 47.609375 72.90625 
L 47.609375 25.390625 
L 58.015625 25.390625 
L 58.015625 17.1875 
L 47.609375 17.1875 
L 47.609375 0 
L 37.796875 0 
L 37.796875 17.1875 
L 4.890625 17.1875 
L 4.890625 26.703125 
z
" id="DejaVuSans-52"/>
    </defs>
    <g transform="translate(200.664375 28.56)scale(0.12 -0.12)">
     <use xlink:href="#DejaVuSans-116"/>
     <use x="39.208984" xlink:href="#DejaVuSans-32"/>
     <use x="70.996094" xlink:href="#DejaVuSans-61"/>
     <use x="154.785156" xlink:href="#DejaVuSans-32"/>
     <use x="186.572266" xlink:href="#DejaVuSans-49"/>
     <use x="250.195312" xlink:href="#DejaVuSans-46"/>
     <use x="281.982422" xlink:href="#DejaVuSans-52"/>
    </g>
   </g>
  </g>
 </g>
 <defs>
  <clipPath id="p6bd58c6725">
   <rect height="217.44" width="334.8" x="54" y="34.56"/>
  </clipPath>
 </defs>
</svg>
