<?xml version="1.0" encoding="utf-8" standalone="no"?>
<!DOCTYPE svg PUBLIC "-//W3C//DTD SVG 1.1//EN"
  "http://www.w3.org/Graphics/SVG/1.1/DTD/svg11.dtd">
<!-- Created with matplotlib (https://matplotlib.org/) -->
<svg height="288pt" version="1.1" viewBox="0 0 432 288" width="432pt" xmlns="http://www.w3.org/2000/svg" xmlns:xlink="http://www.w3.org/1999/xlink">
 <defs>
  <style type="text/css">
*{stroke-linecap:butt;stroke-linejoin:round;}
  </style>
 </defs>
 <g id="figure_1">
  <g id="patch_1">
   <path d="M 0 288 
L 432 288 
L 432 0 
L 0 0 
z
" style="fill:#ffffff;"/>
  </g>
  <g id="axes_1">
   <g id="patch_2">
    <path clip-path="url(#p222d6eb725)" d="M 191.61015 136.031251 
L 192.467835 146.869367 
L 191.384024 146.955136 
L 190.526339 136.11702 
z
" style="stroke:#000000;stroke-linejoin:miter;"/>
   </g>
   <g id="patch_3">
    <path clip-path="url(#p222d6eb725)" d="M 245.800731 131.742826 
L 246.658416 142.580942 
L 245.574604 142.666711 
L 244.716919 131.828594 
z
" style="stroke:#000000;stroke-linejoin:miter;"/>
   </g>
   <g id="patch_4">
    <path clip-path="url(#p222d6eb725)" d="M 209.131771 134.64466 
L 208.939959 134.106569 
L 208.456825 133.627721 
L 207.692295 133.241153 
L 206.660645 132.97498 
L 205.380154 132.850504 
L 203.872718 132.880763 
L 202.163433 133.069596 
L 200.280158 133.411293 
L 198.253074 133.890864 
L 196.114237 134.484896 
L 193.897129 135.162955 
L 191.636219 135.889438 
L 189.366521 136.625758 
L 187.123159 137.33272 
L 184.940929 137.972941 
L 182.853862 138.513147 
L 180.894782 138.926208 
L 179.094864 139.19278 
L 177.483183 139.302442 
L 176.086273 139.254264 
L 174.927682 139.056764 
L 174.027549 138.727265 
L 173.402197 138.290687 
L 173.063767 137.777863 
L 173.019895 137.223484 
L 173.273452 136.663812 
L 173.822352 136.134309 
L 174.659456 135.667332 
L 175.772562 135.290059 
L 177.144507 135.022765 
L 178.753375 134.877566 
L 180.572818 134.857716 
L 182.572482 134.957498 
L 184.718538 135.162711 
L 186.974305 135.451727 
L 189.300939 135.797038 
L 191.658199 136.167199 
L 194.005234 136.529027 
L 196.301396 136.849924 
L 198.507044 137.100152 
L 200.584327 137.254919 
L 202.497905 137.296149 
L 204.215616 137.213782 
L 205.709048 137.006565 
L 206.954022 136.682234 
L 207.930965 136.257109 
L 208.625177 135.755102 
L 209.026981 135.206224 
z
" style="fill:#0000ff;stroke:#000000;stroke-linejoin:miter;"/>
   </g>
   <g id="patch_5">
    <path clip-path="url(#p222d6eb725)" d="M 263.322352 130.356235 
L 263.130539 129.818144 
L 262.647405 129.339296 
L 261.882875 128.952728 
L 260.851225 128.686555 
L 259.570734 128.562079 
L 258.063299 128.592338 
L 256.354013 128.781171 
L 254.470738 129.122868 
L 252.443655 129.602439 
L 250.304817 130.196471 
L 248.087709 130.87453 
L 245.826799 131.601013 
L 243.557101 132.337333 
L 241.313739 133.044295 
L 239.131509 133.684516 
L 237.044442 134.224722 
L 235.085362 134.637783 
L 233.285444 134.904354 
L 231.673764 135.014016 
L 230.276854 134.965838 
L 229.118263 134.768339 
L 228.218129 134.43884 
L 227.592777 134.002262 
L 227.254347 133.489438 
L 227.210476 132.935059 
L 227.464033 132.375387 
L 228.012933 131.845883 
L 228.850037 131.378907 
L 229.963142 131.001634 
L 231.335087 130.73434 
L 232.943955 130.589141 
L 234.763398 130.569291 
L 236.763062 130.669073 
L 238.909119 130.874286 
L 241.164885 131.163302 
L 243.49152 131.508613 
L 245.84878 131.878773 
L 248.195815 132.240602 
L 250.491976 132.561499 
L 252.697625 132.811726 
L 254.774908 132.966494 
L 256.688486 133.007723 
L 258.406197 132.925357 
L 259.899628 132.71814 
L 261.144602 132.393809 
L 262.121546 131.968683 
L 262.815758 131.466677 
L 263.217562 130.917799 
z
" style="fill:#0000ff;stroke:#000000;stroke-linejoin:miter;"/>
   </g>
   <g id="patch_6">
    <path clip-path="url(#p222d6eb725)" d="M 251.321147 139.485455 
L 186.29245 144.631565 
L 186.721293 150.050623 
L 251.749989 144.904513 
z
" style="fill:#999999;stroke:#000000;stroke-linejoin:miter;"/>
   </g>
   <g id="text_1">
    <!-- t = 1.5 -->
    <defs>
     <path d="M 18.3125 70.21875 
L 18.3125 54.6875 
L 36.8125 54.6875 
L 36.8125 47.703125 
L 18.3125 47.703125 
L 18.3125 18.015625 
Q 18.3125 11.328125 20.140625 9.421875 
Q 21.96875 7.515625 27.59375 7.515625 
L 36.8125 7.515625 
L 36.8125 0 
L 27.59375 0 
Q 17.1875 0 13.234375 3.875 
Q 9.28125 7.765625 9.28125 18.015625 
L 9.28125 47.703125 
L 2.6875 47.703125 
L 2.6875 54.6875 
L 9.28125 54.6875 
L 9.28125 70.21875 
z
" id="DejaVuSans-116"/>
     <path id="DejaVuSans-32"/>
     <path d="M 10.59375 45.40625 
L 73.1875 45.40625 
L 73.1875 37.203125 
L 10.59375 37.203125 
z
M 10.59375 25.484375 
L 73.1875 25.484375 
L 73.1875 17.1875 
L 10.59375 17.1875 
z
" id="DejaVuSans-61"/>
     <path d="M 12.40625 8.296875 
L 28.515625 8.296875 
L 28.515625 63.921875 
L 10.984375 60.40625 
L 10.984375 69.390625 
L 28.421875 72.90625 
L 38.28125 72.90625 
L 38.28125 8.296875 
L 54.390625 8.296875 
L 54.390625 0 
L 12.40625 0 
z
" id="DejaVuSans-49"/>
     <path d="M 10.6875 12.40625 
L 21 12.40625 
L 21 0 
L 10.6875 0 
z
" id="DejaVuSans-46"/>
     <path d="M 10.796875 72.90625 
L 49.515625 72.90625 
L 49.515625 64.59375 
L 19.828125 64.59375 
L 19.828125 46.734375 
Q 21.96875 47.46875 24.109375 47.828125 
Q 26.265625 48.1875 28.421875 48.1875 
Q 40.625 48.1875 47.75 41.5 
Q 54.890625 34.8125 54.890625 23.390625 
Q 54.890625 11.625 47.5625 5.09375 
Q 40.234375 -1.421875 26.90625 -1.421875 
Q 22.3125 -1.421875 17.546875 -0.640625 
Q 12.796875 0.140625 7.71875 1.703125 
L 7.71875 11.625 
Q 12.109375 9.234375 16.796875 8.0625 
Q 21.484375 6.890625 26.703125 6.890625 
Q 35.15625 6.890625 40.078125 11.328125 
Q 45.015625 15.765625 45.015625 23.390625 
Q 45.015625 31 40.078125 35.4375 
Q 35.15625 39.890625 26.703125 39.890625 
Q 22.75 39.890625 18.8125 39.015625 
Q 14.890625 38.140625 10.796875 36.28125 
z
" id="DejaVuSans-53"/>
    </defs>
    <g transform="translate(200.664375 28.56)scale(0.12 -0.12)">
     <use xlink:href="#DejaVuSans-116"/>
     <use x="39.208984" xlink:href="#DejaVuSans-32"/>
     <use x="70.996094" xlink:href="#DejaVuSans-61"/>
     <use x="154.785156" xlink:href="#DejaVuSans-32"/>
     <use x="186.572266" xlink:href="#DejaVuSans-49"/>
     <use x="250.195312" xlink:href="#DejaVuSans-46"/>
     <use x="281.982422" xlink:href="#DejaVuSans-53"/>
    </g>
   </g>
  </g>
 </g>
 <defs>
  <clipPath id="p222d6eb725">
   <rect height="217.44" width="334.8" x="54" y="34.56"/>
  </clipPath>
 </defs>
</svg>
