<?xml version="1.0" encoding="utf-8" standalone="no"?>
<!DOCTYPE svg PUBLIC "-//W3C//DTD SVG 1.1//EN"
  "http://www.w3.org/Graphics/SVG/1.1/DTD/svg11.dtd">
<!-- Created with matplotlib (https://matplotlib.org/) -->
<svg height="288pt" version="1.1" viewBox="0 0 432 288" width="432pt" xmlns="http://www.w3.org/2000/svg" xmlns:xlink="http://www.w3.org/1999/xlink">
 <defs>
  <style type="text/css">
*{stroke-linecap:butt;stroke-linejoin:round;}
  </style>
 </defs>
 <g id="figure_1">
  <g id="patch_1">
   <path d="M 0 288 
L 432 288 
L 432 0 
L 0 0 
z
" style="fill:#ffffff;"/>
  </g>
  <g id="axes_1">
   <g id="patch_2">
    <path clip-path="url(#p249a80e3f2)" d="M 195.867088 131.583087 
L 195.677417 142.453433 
L 194.590382 142.434466 
L 194.780053 131.56412 
z
" style="stroke:#000000;stroke-linejoin:miter;"/>
   </g>
   <g id="patch_3">
    <path clip-path="url(#p249a80e3f2)" d="M 250.218815 132.531442 
L 250.029144 143.401787 
L 248.942109 143.38282 
L 249.13178 132.512475 
z
" style="stroke:#000000;stroke-linejoin:miter;"/>
   </g>
   <g id="patch_4">
    <path clip-path="url(#p249a80e3f2)" d="M 213.440813 131.889722 
L 213.301693 131.335664 
L 212.866901 130.812529 
L 212.143136 130.354157 
L 211.141902 129.989904 
L 209.879342 129.742735 
L 208.375995 129.627735 
L 206.65647 129.65114 
L 204.749047 129.809949 
L 202.68521 130.092148 
L 200.49912 130.477518 
L 198.227034 130.938989 
L 195.906687 131.444443 
L 193.576647 131.958841 
L 191.275646 132.446554 
L 189.041918 132.873721 
L 186.91254 133.210498 
L 184.922794 133.433042 
L 183.105574 133.5251 
L 181.490822 133.479098 
L 180.105038 133.296665 
L 178.970841 132.988547 
L 178.106609 132.573923 
L 177.52619 132.079171 
L 177.238701 131.536149 
L 177.248403 130.980121 
L 177.554661 130.447458 
L 178.151987 129.973256 
L 179.030157 129.589035 
L 180.174413 129.320673 
L 181.565718 129.186695 
L 183.181091 129.197054 
L 184.993995 129.352452 
L 186.974765 129.644276 
L 189.091098 130.055134 
L 191.308564 130.559968 
L 193.59115 131.127657 
L 195.901826 131.723029 
L 198.203127 132.309123 
L 200.457731 132.849579 
L 202.629047 133.310979 
L 204.681782 133.665005 
L 206.582503 133.890261 
L 208.300165 133.973639 
L 209.806609 133.911155 
L 211.077024 133.708183 
L 212.090356 133.379081 
L 212.829671 132.946237 
L 213.282448 132.438589 
z
" style="fill:#0000ff;stroke:#000000;stroke-linejoin:miter;"/>
   </g>
   <g id="patch_5">
    <path clip-path="url(#p249a80e3f2)" d="M 267.79254 132.838077 
L 267.65342 132.284019 
L 267.218628 131.760884 
L 266.494863 131.302512 
L 265.493629 130.938259 
L 264.231069 130.69109 
L 262.727722 130.57609 
L 261.008197 130.599494 
L 259.100774 130.758304 
L 257.036937 131.040502 
L 254.850847 131.425872 
L 252.578761 131.887344 
L 250.258414 132.392798 
L 247.928374 132.907196 
L 245.627373 133.394909 
L 243.393645 133.822076 
L 241.264267 134.158853 
L 239.274521 134.381397 
L 237.457301 134.473455 
L 235.842549 134.427453 
L 234.456765 134.24502 
L 233.322568 133.936901 
L 232.458336 133.522278 
L 231.877917 133.027526 
L 231.590428 132.484504 
L 231.60013 131.928476 
L 231.906388 131.395813 
L 232.503713 130.921611 
L 233.381884 130.53739 
L 234.52614 130.269027 
L 235.917445 130.13505 
L 237.532818 130.145409 
L 239.345721 130.300807 
L 241.326492 130.592631 
L 243.442825 131.003489 
L 245.660291 131.508322 
L 247.942877 132.076012 
L 250.253553 132.671384 
L 252.554854 133.257478 
L 254.809458 133.797933 
L 256.980774 134.259333 
L 259.033509 134.61336 
L 260.93423 134.838616 
L 262.651892 134.921994 
L 264.158336 134.85951 
L 265.428751 134.656538 
L 266.442083 134.327436 
L 267.181398 133.894592 
L 267.634175 133.386944 
z
" style="fill:#0000ff;stroke:#000000;stroke-linejoin:miter;"/>
   </g>
   <g id="patch_6">
    <path clip-path="url(#p249a80e3f2)" d="M 254.968217 140.769553 
L 189.746145 139.631527 
L 189.651309 145.0667 
L 254.873382 146.204726 
z
" style="fill:#999999;stroke:#000000;stroke-linejoin:miter;"/>
   </g>
   <g id="text_1">
    <!-- t = 1.5 -->
    <defs>
     <path d="M 18.3125 70.21875 
L 18.3125 54.6875 
L 36.8125 54.6875 
L 36.8125 47.703125 
L 18.3125 47.703125 
L 18.3125 18.015625 
Q 18.3125 11.328125 20.140625 9.421875 
Q 21.96875 7.515625 27.59375 7.515625 
L 36.8125 7.515625 
L 36.8125 0 
L 27.59375 0 
Q 17.1875 0 13.234375 3.875 
Q 9.28125 7.765625 9.28125 18.015625 
L 9.28125 47.703125 
L 2.6875 47.703125 
L 2.6875 54.6875 
L 9.28125 54.6875 
L 9.28125 70.21875 
z
" id="DejaVuSans-116"/>
     <path id="DejaVuSans-32"/>
     <path d="M 10.59375 45.40625 
L 73.1875 45.40625 
L 73.1875 37.203125 
L 10.59375 37.203125 
z
M 10.59375 25.484375 
L 73.1875 25.484375 
L 73.1875 17.1875 
L 10.59375 17.1875 
z
" id="DejaVuSans-61"/>
     <path d="M 12.40625 8.296875 
L 28.515625 8.296875 
L 28.515625 63.921875 
L 10.984375 60.40625 
L 10.984375 69.390625 
L 28.421875 72.90625 
L 38.28125 72.90625 
L 38.28125 8.296875 
L 54.390625 8.296875 
L 54.390625 0 
L 12.40625 0 
z
" id="DejaVuSans-49"/>
     <path d="M 10.6875 12.40625 
L 21 12.40625 
L 21 0 
L 10.6875 0 
z
" id="DejaVuSans-46"/>
     <path d="M 10.796875 72.90625 
L 49.515625 72.90625 
L 49.515625 64.59375 
L 19.828125 64.59375 
L 19.828125 46.734375 
Q 21.96875 47.46875 24.109375 47.828125 
Q 26.265625 48.1875 28.421875 48.1875 
Q 40.625 48.1875 47.75 41.5 
Q 54.890625 34.8125 54.890625 23.390625 
Q 54.890625 11.625 47.5625 5.09375 
Q 40.234375 -1.421875 26.90625 -1.421875 
Q 22.3125 -1.421875 17.546875 -0.640625 
Q 12.796875 0.140625 7.71875 1.703125 
L 7.71875 11.625 
Q 12.109375 9.234375 16.796875 8.0625 
Q 21.484375 6.890625 26.703125 6.890625 
Q 35.15625 6.890625 40.078125 11.328125 
Q 45.015625 15.765625 45.015625 23.390625 
Q 45.015625 31 40.078125 35.4375 
Q 35.15625 39.890625 26.703125 39.890625 
Q 22.75 39.890625 18.8125 39.015625 
Q 14.890625 38.140625 10.796875 36.28125 
z
" id="DejaVuSans-53"/>
    </defs>
    <g transform="translate(200.664375 28.56)scale(0.12 -0.12)">
     <use xlink:href="#DejaVuSans-116"/>
     <use x="39.208984" xlink:href="#DejaVuSans-32"/>
     <use x="70.996094" xlink:href="#DejaVuSans-61"/>
     <use x="154.785156" xlink:href="#DejaVuSans-32"/>
     <use x="186.572266" xlink:href="#DejaVuSans-49"/>
     <use x="250.195312" xlink:href="#DejaVuSans-46"/>
     <use x="281.982422" xlink:href="#DejaVuSans-53"/>
    </g>
   </g>
  </g>
 </g>
 <defs>
  <clipPath id="p249a80e3f2">
   <rect height="217.44" width="334.8" x="54" y="34.56"/>
  </clipPath>
 </defs>
</svg>
