<?xml version="1.0" encoding="utf-8" standalone="no"?>
<!DOCTYPE svg PUBLIC "-//W3C//DTD SVG 1.1//EN"
  "http://www.w3.org/Graphics/SVG/1.1/DTD/svg11.dtd">
<!-- Created with matplotlib (https://matplotlib.org/) -->
<svg height="288pt" version="1.1" viewBox="0 0 432 288" width="432pt" xmlns="http://www.w3.org/2000/svg" xmlns:xlink="http://www.w3.org/1999/xlink">
 <defs>
  <style type="text/css">
*{stroke-linecap:butt;stroke-linejoin:round;}
  </style>
 </defs>
 <g id="figure_1">
  <g id="patch_1">
   <path d="M 0 288 
L 432 288 
L 432 0 
L 0 0 
z
" style="fill:#ffffff;"/>
  </g>
  <g id="axes_1">
   <g id="patch_2">
    <path clip-path="url(#p829e3b0139)" d="M 196.669232 132.616737 
L 196.585154 143.488412 
L 195.497987 143.480004 
L 195.582064 132.608329 
z
" style="stroke:#000000;stroke-linejoin:miter;"/>
   </g>
   <g id="patch_3">
    <path clip-path="url(#p829e3b0139)" d="M 251.027606 133.037123 
L 250.943529 143.908798 
L 249.856361 143.90039 
L 249.940439 133.028715 
z
" style="stroke:#000000;stroke-linejoin:miter;"/>
   </g>
   <g id="patch_4">
    <path clip-path="url(#p829e3b0139)" d="M 214.245106 132.752662 
L 214.100611 132.199981 
L 213.660758 131.681095 
L 212.932575 131.229774 
L 211.92785 130.875263 
L 210.662949 130.640369 
L 209.158556 130.539977 
L 207.439339 130.580082 
L 205.533549 130.757411 
L 203.472551 131.059643 
L 201.290307 131.466228 
L 199.02281 131.949747 
L 196.707482 132.477715 
L 194.382548 133.014721 
L 192.086393 133.52476 
L 189.85692 133.973603 
L 187.730913 134.331048 
L 185.743423 134.572908 
L 183.927182 134.682612 
L 182.31206 134.652297 
L 180.924569 134.483332 
L 179.787433 134.186245 
L 178.919214 133.780036 
L 178.334017 133.290945 
L 178.041268 132.75074 
L 178.045568 132.194645 
L 178.346638 131.659033 
L 178.939329 131.179051 
L 179.813727 130.786318 
L 180.955322 130.506854 
L 182.34526 130.359369 
L 183.960658 130.354037 
L 185.774985 130.491819 
L 187.758496 130.764389 
L 189.87872 131.154672 
L 192.100985 131.637943 
L 194.388977 132.183435 
L 196.705328 132.756335 
L 199.012213 133.320049 
L 201.27196 133.838579 
L 203.447655 134.278867 
L 205.503732 134.612939 
L 207.406551 134.819722 
L 209.124942 134.886412 
L 210.630708 134.809299 
L 211.899091 134.593997 
L 212.909179 134.255068 
L 213.644255 133.815063 
L 214.09208 133.303042 
z
" style="fill:#0000ff;stroke:#000000;stroke-linejoin:miter;"/>
   </g>
   <g id="patch_5">
    <path clip-path="url(#p829e3b0139)" d="M 268.60348 133.173048 
L 268.458985 132.620368 
L 268.019133 132.101481 
L 267.29095 131.65016 
L 266.286225 131.295649 
L 265.021323 131.060755 
L 263.51693 130.960363 
L 261.797714 131.000468 
L 259.891923 131.177797 
L 257.830925 131.480029 
L 255.648681 131.886614 
L 253.381185 132.370133 
L 251.065857 132.898101 
L 248.740923 133.435107 
L 246.444768 133.945146 
L 244.215294 134.393989 
L 242.089288 134.751434 
L 240.101798 134.993294 
L 238.285557 135.102998 
L 236.670434 135.072683 
L 235.282944 134.903718 
L 234.145808 134.606631 
L 233.277589 134.200422 
L 232.692392 133.711331 
L 232.399642 133.171126 
L 232.403943 132.615031 
L 232.705013 132.079419 
L 233.297704 131.599437 
L 234.172101 131.206704 
L 235.313696 130.92724 
L 236.703634 130.779755 
L 238.319032 130.774423 
L 240.133359 130.912205 
L 242.116871 131.184775 
L 244.237095 131.575058 
L 246.45936 132.058329 
L 248.747352 132.603821 
L 251.063702 133.176721 
L 253.370587 133.740435 
L 255.630335 134.258965 
L 257.806029 134.699253 
L 259.862106 135.033325 
L 261.764926 135.240108 
L 263.483317 135.306799 
L 264.989082 135.229685 
L 266.257466 135.014383 
L 267.267554 134.675454 
L 268.002629 134.235449 
L 268.450455 133.723428 
z
" style="fill:#0000ff;stroke:#000000;stroke-linejoin:miter;"/>
   </g>
   <g id="patch_6">
    <path clip-path="url(#p829e3b0139)" d="M 255.856802 141.228714 
L 190.626752 140.724251 
L 190.584714 146.160088 
L 255.814763 146.664552 
z
" style="fill:#999999;stroke:#000000;stroke-linejoin:miter;"/>
   </g>
   <g id="text_1">
    <!-- t = 1.9 -->
    <defs>
     <path d="M 18.3125 70.21875 
L 18.3125 54.6875 
L 36.8125 54.6875 
L 36.8125 47.703125 
L 18.3125 47.703125 
L 18.3125 18.015625 
Q 18.3125 11.328125 20.140625 9.421875 
Q 21.96875 7.515625 27.59375 7.515625 
L 36.8125 7.515625 
L 36.8125 0 
L 27.59375 0 
Q 17.1875 0 13.234375 3.875 
Q 9.28125 7.765625 9.28125 18.015625 
L 9.28125 47.703125 
L 2.6875 47.703125 
L 2.6875 54.6875 
L 9.28125 54.6875 
L 9.28125 70.21875 
z
" id="DejaVuSans-116"/>
     <path id="DejaVuSans-32"/>
     <path d="M 10.59375 45.40625 
L 73.1875 45.40625 
L 73.1875 37.203125 
L 10.59375 37.203125 
z
M 10.59375 25.484375 
L 73.1875 25.484375 
L 73.1875 17.1875 
L 10.59375 17.1875 
z
" id="DejaVuSans-61"/>
     <path d="M 12.40625 8.296875 
L 28.515625 8.296875 
L 28.515625 63.921875 
L 10.984375 60.40625 
L 10.984375 69.390625 
L 28.421875 72.90625 
L 38.28125 72.90625 
L 38.28125 8.296875 
L 54.390625 8.296875 
L 54.390625 0 
L 12.40625 0 
z
" id="DejaVuSans-49"/>
     <path d="M 10.6875 12.40625 
L 21 12.40625 
L 21 0 
L 10.6875 0 
z
" id="DejaVuSans-46"/>
     <path d="M 10.984375 1.515625 
L 10.984375 10.5 
Q 14.703125 8.734375 18.5 7.8125 
Q 22.3125 6.890625 25.984375 6.890625 
Q 35.75 6.890625 40.890625 13.453125 
Q 46.046875 20.015625 46.78125 33.40625 
Q 43.953125 29.203125 39.59375 26.953125 
Q 35.25 24.703125 29.984375 24.703125 
Q 19.046875 24.703125 12.671875 31.3125 
Q 6.296875 37.9375 6.296875 49.421875 
Q 6.296875 60.640625 12.9375 67.421875 
Q 19.578125 74.21875 30.609375 74.21875 
Q 43.265625 74.21875 49.921875 64.515625 
Q 56.59375 54.828125 56.59375 36.375 
Q 56.59375 19.140625 48.40625 8.859375 
Q 40.234375 -1.421875 26.421875 -1.421875 
Q 22.703125 -1.421875 18.890625 -0.6875 
Q 15.09375 0.046875 10.984375 1.515625 
z
M 30.609375 32.421875 
Q 37.25 32.421875 41.125 36.953125 
Q 45.015625 41.5 45.015625 49.421875 
Q 45.015625 57.28125 41.125 61.84375 
Q 37.25 66.40625 30.609375 66.40625 
Q 23.96875 66.40625 20.09375 61.84375 
Q 16.21875 57.28125 16.21875 49.421875 
Q 16.21875 41.5 20.09375 36.953125 
Q 23.96875 32.421875 30.609375 32.421875 
z
" id="DejaVuSans-57"/>
    </defs>
    <g transform="translate(200.664375 28.56)scale(0.12 -0.12)">
     <use xlink:href="#DejaVuSans-116"/>
     <use x="39.208984" xlink:href="#DejaVuSans-32"/>
     <use x="70.996094" xlink:href="#DejaVuSans-61"/>
     <use x="154.785156" xlink:href="#DejaVuSans-32"/>
     <use x="186.572266" xlink:href="#DejaVuSans-49"/>
     <use x="250.195312" xlink:href="#DejaVuSans-46"/>
     <use x="281.982422" xlink:href="#DejaVuSans-57"/>
    </g>
   </g>
  </g>
 </g>
 <defs>
  <clipPath id="p829e3b0139">
   <rect height="217.44" width="334.8" x="54" y="34.56"/>
  </clipPath>
 </defs>
</svg>
