<?xml version="1.0" encoding="utf-8" standalone="no"?>
<!DOCTYPE svg PUBLIC "-//W3C//DTD SVG 1.1//EN"
  "http://www.w3.org/Graphics/SVG/1.1/DTD/svg11.dtd">
<!-- Created with matplotlib (https://matplotlib.org/) -->
<svg height="288pt" version="1.1" viewBox="0 0 432 288" width="432pt" xmlns="http://www.w3.org/2000/svg" xmlns:xlink="http://www.w3.org/1999/xlink">
 <defs>
  <style type="text/css">
*{stroke-linecap:butt;stroke-linejoin:round;}
  </style>
 </defs>
 <g id="figure_1">
  <g id="patch_1">
   <path d="M 0 288 
L 432 288 
L 432 0 
L 0 0 
z
" style="fill:#ffffff;"/>
  </g>
  <g id="axes_1">
   <g id="patch_2">
    <path clip-path="url(#pde461d584a)" d="M 151.479321 161.216937 
L 150.582541 172.051888 
L 149.499046 171.96221 
L 150.395826 161.127259 
z
" style="stroke:#000000;stroke-linejoin:miter;"/>
   </g>
   <g id="patch_3">
    <path clip-path="url(#pde461d584a)" d="M 205.654078 165.70084 
L 204.757297 176.535792 
L 203.673802 176.446114 
L 204.570583 165.611162 
z
" style="stroke:#000000;stroke-linejoin:miter;"/>
   </g>
   <g id="patch_4">
    <path clip-path="url(#pde461d584a)" d="M 168.995826 162.666732 
L 168.893062 162.104794 
L 168.493242 161.55447 
L 167.800845 161.049962 
L 166.825442 160.621315 
L 165.581646 160.292494 
L 164.088972 160.079891 
L 162.371569 159.991328 
L 160.457855 160.025653 
L 158.380027 160.172926 
L 156.17349 160.415194 
L 153.876186 160.727805 
L 151.527861 161.081164 
L 149.16928 161.442817 
L 146.841415 161.779732 
L 144.584621 162.060608 
L 142.437838 162.258077 
L 140.437827 162.350644 
L 138.618468 162.32423 
L 137.010134 162.173228 
L 135.639162 161.900985 
L 134.527425 161.5197 
L 133.692011 161.049706 
L 133.145025 160.518225 
L 132.893489 159.957643 
L 132.93936 159.403425 
L 133.279638 158.891826 
L 133.906561 158.457507 
L 134.807877 158.131257 
L 135.967173 157.937939 
L 137.364248 157.894801 
L 138.975522 158.010277 
L 140.774467 158.28334 
L 142.732044 158.703467 
L 144.817148 159.251199 
L 146.997055 159.899288 
L 149.237851 160.614339 
L 151.504878 161.358843 
L 153.763152 162.093478 
L 155.9778 162.779531 
L 158.11448 163.381276 
L 160.139821 163.868157 
L 162.021851 164.216646 
L 163.730444 164.411644 
L 165.23776 164.447342 
L 166.518692 164.327487 
L 167.551295 164.065037 
L 168.317215 163.68123 
L 168.802073 163.204128 
z
" style="fill:#0000ff;stroke:#000000;stroke-linejoin:miter;"/>
   </g>
   <g id="patch_5">
    <path clip-path="url(#pde461d584a)" d="M 223.170582 167.150636 
L 223.067819 166.588698 
L 222.667998 166.038373 
L 221.975601 165.533866 
L 221.000198 165.105218 
L 219.756402 164.776398 
L 218.263728 164.563794 
L 216.546325 164.475231 
L 214.632611 164.509557 
L 212.554783 164.656829 
L 210.348246 164.899097 
L 208.050942 165.211708 
L 205.702617 165.565067 
L 203.344037 165.926721 
L 201.016171 166.263636 
L 198.759377 166.544511 
L 196.612594 166.741981 
L 194.612583 166.834548 
L 192.793224 166.808134 
L 191.18489 166.657131 
L 189.813918 166.384889 
L 188.702181 166.003603 
L 187.866767 165.53361 
L 187.319781 165.002129 
L 187.068245 164.441546 
L 187.114116 163.887329 
L 187.454394 163.375729 
L 188.081317 162.94141 
L 188.982633 162.615161 
L 190.141929 162.421843 
L 191.539004 162.378705 
L 193.150279 162.49418 
L 194.949223 162.767244 
L 196.9068 163.18737 
L 198.991905 163.735102 
L 201.171811 164.383192 
L 203.412608 165.098243 
L 205.679634 165.842746 
L 207.937909 166.577381 
L 210.152556 167.263435 
L 212.289236 167.86518 
L 214.314577 168.352061 
L 216.196607 168.70055 
L 217.9052 168.895548 
L 219.412516 168.931246 
L 220.693448 168.81139 
L 221.726052 168.54894 
L 222.491971 168.165134 
L 222.97683 167.688032 
z
" style="fill:#0000ff;stroke:#000000;stroke-linejoin:miter;"/>
   </g>
   <g id="patch_6">
    <path clip-path="url(#pde461d584a)" d="M 209.85722 174.230605 
L 144.847513 168.849921 
L 144.399122 174.267396 
L 209.40883 179.648081 
z
" style="fill:#999999;stroke:#000000;stroke-linejoin:miter;"/>
   </g>
   <g id="text_1">
    <!-- t = 0.2 -->
    <defs>
     <path d="M 18.3125 70.21875 
L 18.3125 54.6875 
L 36.8125 54.6875 
L 36.8125 47.703125 
L 18.3125 47.703125 
L 18.3125 18.015625 
Q 18.3125 11.328125 20.140625 9.421875 
Q 21.96875 7.515625 27.59375 7.515625 
L 36.8125 7.515625 
L 36.8125 0 
L 27.59375 0 
Q 17.1875 0 13.234375 3.875 
Q 9.28125 7.765625 9.28125 18.015625 
L 9.28125 47.703125 
L 2.6875 47.703125 
L 2.6875 54.6875 
L 9.28125 54.6875 
L 9.28125 70.21875 
z
" id="DejaVuSans-116"/>
     <path id="DejaVuSans-32"/>
     <path d="M 10.59375 45.40625 
L 73.1875 45.40625 
L 73.1875 37.203125 
L 10.59375 37.203125 
z
M 10.59375 25.484375 
L 73.1875 25.484375 
L 73.1875 17.1875 
L 10.59375 17.1875 
z
" id="DejaVuSans-61"/>
     <path d="M 31.78125 66.40625 
Q 24.171875 66.40625 20.328125 58.90625 
Q 16.5 51.421875 16.5 36.375 
Q 16.5 21.390625 20.328125 13.890625 
Q 24.171875 6.390625 31.78125 6.390625 
Q 39.453125 6.390625 43.28125 13.890625 
Q 47.125 21.390625 47.125 36.375 
Q 47.125 51.421875 43.28125 58.90625 
Q 39.453125 66.40625 31.78125 66.40625 
z
M 31.78125 74.21875 
Q 44.046875 74.21875 50.515625 64.515625 
Q 56.984375 54.828125 56.984375 36.375 
Q 56.984375 17.96875 50.515625 8.265625 
Q 44.046875 -1.421875 31.78125 -1.421875 
Q 19.53125 -1.421875 13.0625 8.265625 
Q 6.59375 17.96875 6.59375 36.375 
Q 6.59375 54.828125 13.0625 64.515625 
Q 19.53125 74.21875 31.78125 74.21875 
z
" id="DejaVuSans-48"/>
     <path d="M 10.6875 12.40625 
L 21 12.40625 
L 21 0 
L 10.6875 0 
z
" id="DejaVuSans-46"/>
     <path d="M 19.1875 8.296875 
L 53.609375 8.296875 
L 53.609375 0 
L 7.328125 0 
L 7.328125 8.296875 
Q 12.9375 14.109375 22.625 23.890625 
Q 32.328125 33.6875 34.8125 36.53125 
Q 39.546875 41.84375 41.421875 45.53125 
Q 43.3125 49.21875 43.3125 52.78125 
Q 43.3125 58.59375 39.234375 62.25 
Q 35.15625 65.921875 28.609375 65.921875 
Q 23.96875 65.921875 18.8125 64.3125 
Q 13.671875 62.703125 7.8125 59.421875 
L 7.8125 69.390625 
Q 13.765625 71.78125 18.9375 73 
Q 24.125 74.21875 28.421875 74.21875 
Q 39.75 74.21875 46.484375 68.546875 
Q 53.21875 62.890625 53.21875 53.421875 
Q 53.21875 48.921875 51.53125 44.890625 
Q 49.859375 40.875 45.40625 35.40625 
Q 44.1875 33.984375 37.640625 27.21875 
Q 31.109375 20.453125 19.1875 8.296875 
z
" id="DejaVuSans-50"/>
    </defs>
    <g transform="translate(200.664375 28.56)scale(0.12 -0.12)">
     <use xlink:href="#DejaVuSans-116"/>
     <use x="39.208984" xlink:href="#DejaVuSans-32"/>
     <use x="70.996094" xlink:href="#DejaVuSans-61"/>
     <use x="154.785156" xlink:href="#DejaVuSans-32"/>
     <use x="186.572266" xlink:href="#DejaVuSans-48"/>
     <use x="250.195312" xlink:href="#DejaVuSans-46"/>
     <use x="281.982422" xlink:href="#DejaVuSans-50"/>
    </g>
   </g>
  </g>
 </g>
 <defs>
  <clipPath id="pde461d584a">
   <rect height="217.44" width="334.8" x="54" y="34.56"/>
  </clipPath>
 </defs>
</svg>
