<?xml version="1.0" encoding="utf-8" standalone="no"?>
<!DOCTYPE svg PUBLIC "-//W3C//DTD SVG 1.1//EN"
  "http://www.w3.org/Graphics/SVG/1.1/DTD/svg11.dtd">
<!-- Created with matplotlib (https://matplotlib.org/) -->
<svg height="288pt" version="1.1" viewBox="0 0 432 288" width="432pt" xmlns="http://www.w3.org/2000/svg" xmlns:xlink="http://www.w3.org/1999/xlink">
 <defs>
  <style type="text/css">
*{stroke-linecap:butt;stroke-linejoin:round;}
  </style>
 </defs>
 <g id="figure_1">
  <g id="patch_1">
   <path d="M 0 288 
L 432 288 
L 432 0 
L 0 0 
z
" style="fill:#ffffff;"/>
  </g>
  <g id="axes_1">
   <g id="patch_2">
    <path clip-path="url(#p14076019a5)" d="M 102.561965 199.178038 
L 101.205867 209.965131 
L 100.127158 209.829521 
L 101.483256 199.042428 
z
" style="stroke:#000000;stroke-linejoin:miter;"/>
   </g>
   <g id="patch_3">
    <path clip-path="url(#p14076019a5)" d="M 156.497432 205.958526 
L 155.141334 216.74562 
L 154.062625 216.61001 
L 155.418722 205.822917 
z
" style="stroke:#000000;stroke-linejoin:miter;"/>
   </g>
   <g id="patch_4">
    <path clip-path="url(#p14076019a5)" d="M 120.001099 201.370396 
L 119.922292 200.804601 
L 119.546203 200.237794 
L 118.875856 199.704337 
L 117.919535 199.234654 
L 116.690826 198.85331 
L 115.208526 198.577509 
L 113.496434 198.416094 
L 111.582988 198.369119 
L 109.500781 198.42802 
L 107.285946 198.576364 
L 104.977439 198.791134 
L 102.616226 199.044448 
L 100.244415 199.305614 
L 97.904342 199.543368 
L 95.637656 199.728152 
L 93.484424 199.834276 
L 91.482286 199.841825 
L 89.66569 199.738173 
L 88.06522 199.519005 
L 86.707046 199.188788 
L 85.612504 198.760634 
L 84.797803 198.255587 
L 84.27388 197.701357 
L 84.046377 197.130598 
L 84.115743 196.578829 
L 84.47744 196.082141 
L 85.122241 195.674838 
L 86.0366 195.387159 
L 87.203059 195.243246 
L 88.600706 195.259477 
L 90.205622 195.443274 
L 91.991348 195.792487 
L 93.929318 196.295366 
L 95.989281 196.931152 
L 98.139698 197.67123 
L 100.348107 198.480796 
L 102.581472 199.320901 
L 104.806512 200.150775 
L 106.990027 200.930259 
L 109.099225 201.622199 
L 111.102062 202.19465 
L 112.967595 202.622749 
L 114.666366 202.89013 
L 116.170807 202.989806 
L 117.455673 202.924456 
L 118.49849 202.706094 
L 119.280018 202.35516 
L 119.7847 201.899079 
z
" style="fill:#0000ff;stroke:#000000;stroke-linejoin:miter;"/>
   </g>
   <g id="patch_5">
    <path clip-path="url(#p14076019a5)" d="M 173.936566 208.150884 
L 173.857759 207.585089 
L 173.481669 207.018282 
L 172.811322 206.484826 
L 171.855002 206.015143 
L 170.626292 205.633799 
L 169.143993 205.357998 
L 167.431901 205.196582 
L 165.518455 205.149607 
L 163.436248 205.208508 
L 161.221413 205.356853 
L 158.912906 205.571623 
L 156.551693 205.824937 
L 154.179882 206.086103 
L 151.839809 206.323857 
L 149.573123 206.50864 
L 147.419891 206.614764 
L 145.417753 206.622314 
L 143.601157 206.518661 
L 142.000686 206.299494 
L 140.642513 205.969277 
L 139.54797 205.541123 
L 138.73327 205.036076 
L 138.209347 204.481846 
L 137.981844 203.911087 
L 138.05121 203.359318 
L 138.412906 202.86263 
L 139.057708 202.455326 
L 139.972066 202.167647 
L 141.138526 202.023735 
L 142.536172 202.039965 
L 144.141089 202.223762 
L 145.926815 202.572975 
L 147.864784 203.075855 
L 149.924748 203.71164 
L 152.075165 204.451719 
L 154.283574 205.261285 
L 156.516939 206.101389 
L 158.741979 206.931264 
L 160.925493 207.710747 
L 163.034692 208.402687 
L 165.037529 208.975139 
L 166.903062 209.403238 
L 168.601833 209.670618 
L 170.106274 209.770295 
L 171.391139 209.704945 
L 172.433957 209.486583 
L 173.215485 209.135649 
L 173.720167 208.679567 
z
" style="fill:#0000ff;stroke:#000000;stroke-linejoin:miter;"/>
   </g>
   <g id="patch_6">
    <path clip-path="url(#p14076019a5)" d="M 160.334551 214.65909 
L 95.61199 206.522504 
L 94.933942 211.916051 
L 159.656502 220.052637 
z
" style="fill:#999999;stroke:#000000;stroke-linejoin:miter;"/>
   </g>
   <g id="text_1">
    <!-- t = 0.1 -->
    <defs>
     <path d="M 18.3125 70.21875 
L 18.3125 54.6875 
L 36.8125 54.6875 
L 36.8125 47.703125 
L 18.3125 47.703125 
L 18.3125 18.015625 
Q 18.3125 11.328125 20.140625 9.421875 
Q 21.96875 7.515625 27.59375 7.515625 
L 36.8125 7.515625 
L 36.8125 0 
L 27.59375 0 
Q 17.1875 0 13.234375 3.875 
Q 9.28125 7.765625 9.28125 18.015625 
L 9.28125 47.703125 
L 2.6875 47.703125 
L 2.6875 54.6875 
L 9.28125 54.6875 
L 9.28125 70.21875 
z
" id="DejaVuSans-116"/>
     <path id="DejaVuSans-32"/>
     <path d="M 10.59375 45.40625 
L 73.1875 45.40625 
L 73.1875 37.203125 
L 10.59375 37.203125 
z
M 10.59375 25.484375 
L 73.1875 25.484375 
L 73.1875 17.1875 
L 10.59375 17.1875 
z
" id="DejaVuSans-61"/>
     <path d="M 31.78125 66.40625 
Q 24.171875 66.40625 20.328125 58.90625 
Q 16.5 51.421875 16.5 36.375 
Q 16.5 21.390625 20.328125 13.890625 
Q 24.171875 6.390625 31.78125 6.390625 
Q 39.453125 6.390625 43.28125 13.890625 
Q 47.125 21.390625 47.125 36.375 
Q 47.125 51.421875 43.28125 58.90625 
Q 39.453125 66.40625 31.78125 66.40625 
z
M 31.78125 74.21875 
Q 44.046875 74.21875 50.515625 64.515625 
Q 56.984375 54.828125 56.984375 36.375 
Q 56.984375 17.96875 50.515625 8.265625 
Q 44.046875 -1.421875 31.78125 -1.421875 
Q 19.53125 -1.421875 13.0625 8.265625 
Q 6.59375 17.96875 6.59375 36.375 
Q 6.59375 54.828125 13.0625 64.515625 
Q 19.53125 74.21875 31.78125 74.21875 
z
" id="DejaVuSans-48"/>
     <path d="M 10.6875 12.40625 
L 21 12.40625 
L 21 0 
L 10.6875 0 
z
" id="DejaVuSans-46"/>
     <path d="M 12.40625 8.296875 
L 28.515625 8.296875 
L 28.515625 63.921875 
L 10.984375 60.40625 
L 10.984375 69.390625 
L 28.421875 72.90625 
L 38.28125 72.90625 
L 38.28125 8.296875 
L 54.390625 8.296875 
L 54.390625 0 
L 12.40625 0 
z
" id="DejaVuSans-49"/>
    </defs>
    <g transform="translate(200.664375 28.56)scale(0.12 -0.12)">
     <use xlink:href="#DejaVuSans-116"/>
     <use x="39.208984" xlink:href="#DejaVuSans-32"/>
     <use x="70.996094" xlink:href="#DejaVuSans-61"/>
     <use x="154.785156" xlink:href="#DejaVuSans-32"/>
     <use x="186.572266" xlink:href="#DejaVuSans-48"/>
     <use x="250.195312" xlink:href="#DejaVuSans-46"/>
     <use x="281.982422" xlink:href="#DejaVuSans-49"/>
    </g>
   </g>
  </g>
 </g>
 <defs>
  <clipPath id="p14076019a5">
   <rect height="217.44" width="334.8" x="54" y="34.56"/>
  </clipPath>
 </defs>
</svg>
