<?xml version="1.0" encoding="utf-8" standalone="no"?>
<!DOCTYPE svg PUBLIC "-//W3C//DTD SVG 1.1//EN"
  "http://www.w3.org/Graphics/SVG/1.1/DTD/svg11.dtd">
<!-- Created with matplotlib (https://matplotlib.org/) -->
<svg height="288pt" version="1.1" viewBox="0 0 432 288" width="432pt" xmlns="http://www.w3.org/2000/svg" xmlns:xlink="http://www.w3.org/1999/xlink">
 <defs>
  <style type="text/css">
*{stroke-linecap:butt;stroke-linejoin:round;}
  </style>
 </defs>
 <g id="figure_1">
  <g id="patch_1">
   <path d="M 0 288 
L 432 288 
L 432 0 
L 0 0 
z
" style="fill:#ffffff;"/>
  </g>
  <g id="axes_1">
   <g id="patch_2">
    <path clip-path="url(#p53da2d2a59)" d="M 237.890675 120.927585 
L 235.577341 131.550619 
L 234.515037 131.319286 
L 236.828372 120.696251 
z
" style="stroke:#000000;stroke-linejoin:miter;"/>
   </g>
   <g id="patch_3">
    <path clip-path="url(#p53da2d2a59)" d="M 291.005849 132.494258 
L 288.692514 143.117293 
L 287.630211 142.88596 
L 289.943545 132.262925 
z
" style="stroke:#000000;stroke-linejoin:miter;"/>
   </g>
   <g id="patch_4">
    <path clip-path="url(#p53da2d2a59)" d="M 255.064582 124.667476 
L 255.036581 124.096905 
L 254.712574 123.498797 
L 254.092508 122.907647 
L 253.181918 122.354495 
L 251.992142 121.865022 
L 250.54037 121.45804 
L 248.849514 121.14448 
L 246.947894 120.926935 
L 244.868738 120.799784 
L 242.649502 120.749883 
L 240.331039 120.757783 
L 237.956642 120.799371 
L 235.570988 120.847833 
L 233.219034 120.875808 
L 230.944902 120.857573 
L 228.79079 120.771118 
L 226.795967 120.599966 
L 224.995869 120.334612 
L 223.421343 119.973492 
L 222.098057 119.523388 
L 221.04609 118.999265 
L 220.279711 118.423528 
L 219.807338 117.824755 
L 219.631678 117.23597 
L 219.750007 116.692593 
L 220.154586 116.230165 
L 220.833163 115.882029 
L 221.769545 115.677096 
L 222.944194 115.637853 
L 224.334815 115.778746 
L 225.916927 116.105034 
L 227.664363 116.612212 
L 229.549723 117.286031 
L 231.544729 118.103112 
L 233.620521 119.032143 
L 235.747873 120.035559 
L 237.897356 121.071619 
L 240.039459 122.096746 
L 242.1447 123.067978 
L 244.183734 123.945383 
L 246.127494 124.694286 
L 247.94738 125.287158 
L 249.615511 125.705071 
L 251.105054 125.938607 
L 252.390625 125.98818 
L 253.448769 125.863751 
L 254.258496 125.583961 
L 254.801866 125.174738 
z
" style="fill:#0000ff;stroke:#000000;stroke-linejoin:miter;"/>
   </g>
   <g id="patch_5">
    <path clip-path="url(#p53da2d2a59)" d="M 308.179755 136.23415 
L 308.151754 135.663579 
L 307.827747 135.065471 
L 307.207681 134.474321 
L 306.297092 133.921169 
L 305.107316 133.431696 
L 303.655543 133.024714 
L 301.964687 132.711154 
L 300.063068 132.493609 
L 297.983912 132.366458 
L 295.764676 132.316557 
L 293.446213 132.324457 
L 291.071815 132.366044 
L 288.686161 132.414506 
L 286.334208 132.442482 
L 284.060075 132.424247 
L 281.905963 132.337792 
L 279.91114 132.166639 
L 278.111042 131.901286 
L 276.536516 131.540166 
L 275.21323 131.090062 
L 274.161264 130.565939 
L 273.394884 129.990202 
L 272.922512 129.391428 
L 272.746852 128.802644 
L 272.865181 128.259267 
L 273.269759 127.796839 
L 273.948336 127.448703 
L 274.884719 127.243769 
L 276.059367 127.204527 
L 277.449989 127.345419 
L 279.0321 127.671707 
L 280.779537 128.178886 
L 282.664897 128.852705 
L 284.659903 129.669786 
L 286.735695 130.598817 
L 288.863047 131.602232 
L 291.012529 132.638293 
L 293.154632 133.66342 
L 295.259874 134.634652 
L 297.298908 135.512057 
L 299.242667 136.260959 
L 301.062553 136.853831 
L 302.730685 137.271745 
L 304.220228 137.505281 
L 305.505799 137.554854 
L 306.563943 137.430425 
L 307.37367 137.150635 
L 307.917039 136.741412 
z
" style="fill:#0000ff;stroke:#000000;stroke-linejoin:miter;"/>
   </g>
   <g id="patch_6">
    <path clip-path="url(#p53da2d2a59)" d="M 294.051213 141.502535 
L 230.313005 127.622527 
L 229.156338 132.934044 
L 292.894546 146.814053 
z
" style="fill:#999999;stroke:#000000;stroke-linejoin:miter;"/>
   </g>
   <g id="text_1">
    <!-- t = 0.9 -->
    <defs>
     <path d="M 18.3125 70.21875 
L 18.3125 54.6875 
L 36.8125 54.6875 
L 36.8125 47.703125 
L 18.3125 47.703125 
L 18.3125 18.015625 
Q 18.3125 11.328125 20.140625 9.421875 
Q 21.96875 7.515625 27.59375 7.515625 
L 36.8125 7.515625 
L 36.8125 0 
L 27.59375 0 
Q 17.1875 0 13.234375 3.875 
Q 9.28125 7.765625 9.28125 18.015625 
L 9.28125 47.703125 
L 2.6875 47.703125 
L 2.6875 54.6875 
L 9.28125 54.6875 
L 9.28125 70.21875 
z
" id="DejaVuSans-116"/>
     <path id="DejaVuSans-32"/>
     <path d="M 10.59375 45.40625 
L 73.1875 45.40625 
L 73.1875 37.203125 
L 10.59375 37.203125 
z
M 10.59375 25.484375 
L 73.1875 25.484375 
L 73.1875 17.1875 
L 10.59375 17.1875 
z
" id="DejaVuSans-61"/>
     <path d="M 31.78125 66.40625 
Q 24.171875 66.40625 20.328125 58.90625 
Q 16.5 51.421875 16.5 36.375 
Q 16.5 21.390625 20.328125 13.890625 
Q 24.171875 6.390625 31.78125 6.390625 
Q 39.453125 6.390625 43.28125 13.890625 
Q 47.125 21.390625 47.125 36.375 
Q 47.125 51.421875 43.28125 58.90625 
Q 39.453125 66.40625 31.78125 66.40625 
z
M 31.78125 74.21875 
Q 44.046875 74.21875 50.515625 64.515625 
Q 56.984375 54.828125 56.984375 36.375 
Q 56.984375 17.96875 50.515625 8.265625 
Q 44.046875 -1.421875 31.78125 -1.421875 
Q 19.53125 -1.421875 13.0625 8.265625 
Q 6.59375 17.96875 6.59375 36.375 
Q 6.59375 54.828125 13.0625 64.515625 
Q 19.53125 74.21875 31.78125 74.21875 
z
" id="DejaVuSans-48"/>
     <path d="M 10.6875 12.40625 
L 21 12.40625 
L 21 0 
L 10.6875 0 
z
" id="DejaVuSans-46"/>
     <path d="M 10.984375 1.515625 
L 10.984375 10.5 
Q 14.703125 8.734375 18.5 7.8125 
Q 22.3125 6.890625 25.984375 6.890625 
Q 35.75 6.890625 40.890625 13.453125 
Q 46.046875 20.015625 46.78125 33.40625 
Q 43.953125 29.203125 39.59375 26.953125 
Q 35.25 24.703125 29.984375 24.703125 
Q 19.046875 24.703125 12.671875 31.3125 
Q 6.296875 37.9375 6.296875 49.421875 
Q 6.296875 60.640625 12.9375 67.421875 
Q 19.578125 74.21875 30.609375 74.21875 
Q 43.265625 74.21875 49.921875 64.515625 
Q 56.59375 54.828125 56.59375 36.375 
Q 56.59375 19.140625 48.40625 8.859375 
Q 40.234375 -1.421875 26.421875 -1.421875 
Q 22.703125 -1.421875 18.890625 -0.6875 
Q 15.09375 0.046875 10.984375 1.515625 
z
M 30.609375 32.421875 
Q 37.25 32.421875 41.125 36.953125 
Q 45.015625 41.5 45.015625 49.421875 
Q 45.015625 57.28125 41.125 61.84375 
Q 37.25 66.40625 30.609375 66.40625 
Q 23.96875 66.40625 20.09375 61.84375 
Q 16.21875 57.28125 16.21875 49.421875 
Q 16.21875 41.5 20.09375 36.953125 
Q 23.96875 32.421875 30.609375 32.421875 
z
" id="DejaVuSans-57"/>
    </defs>
    <g transform="translate(200.664375 28.56)scale(0.12 -0.12)">
     <use xlink:href="#DejaVuSans-116"/>
     <use x="39.208984" xlink:href="#DejaVuSans-32"/>
     <use x="70.996094" xlink:href="#DejaVuSans-61"/>
     <use x="154.785156" xlink:href="#DejaVuSans-32"/>
     <use x="186.572266" xlink:href="#DejaVuSans-48"/>
     <use x="250.195312" xlink:href="#DejaVuSans-46"/>
     <use x="281.982422" xlink:href="#DejaVuSans-57"/>
    </g>
   </g>
  </g>
 </g>
 <defs>
  <clipPath id="p53da2d2a59">
   <rect height="217.44" width="334.8" x="54" y="34.56"/>
  </clipPath>
 </defs>
</svg>
