<?xml version="1.0" encoding="utf-8" standalone="no"?>
<!DOCTYPE svg PUBLIC "-//W3C//DTD SVG 1.1//EN"
  "http://www.w3.org/Graphics/SVG/1.1/DTD/svg11.dtd">
<!-- Created with matplotlib (https://matplotlib.org/) -->
<svg height="288pt" version="1.1" viewBox="0 0 432 288" width="432pt" xmlns="http://www.w3.org/2000/svg" xmlns:xlink="http://www.w3.org/1999/xlink">
 <defs>
  <style type="text/css">
*{stroke-linecap:butt;stroke-linejoin:round;}
  </style>
 </defs>
 <g id="figure_1">
  <g id="patch_1">
   <path d="M 0 288 
L 432 288 
L 432 0 
L 0 0 
z
" style="fill:#ffffff;"/>
  </g>
  <g id="axes_1">
   <g id="patch_2">
    <path clip-path="url(#peaa0a124f5)" d="M 158.829534 155.829513 
L 150.980091 163.351922 
L 150.22785 162.566977 
L 158.077293 155.044568 
z
" style="stroke:#000000;stroke-linejoin:miter;"/>
   </g>
   <g id="patch_3">
    <path clip-path="url(#peaa0a124f5)" d="M 196.441578 195.076725 
L 188.592136 202.599134 
L 187.839895 201.81419 
L 195.689337 194.291781 
z
" style="stroke:#000000;stroke-linejoin:miter;"/>
   </g>
   <g id="patch_4">
    <path clip-path="url(#peaa0a124f5)" d="M 170.990761 168.519445 
L 171.286039 168.03042 
L 171.351098 167.353307 
L 171.166635 166.516699 
L 170.719918 165.549437 
L 170.006017 164.479159 
L 169.028691 163.331068 
L 167.80085 162.127025 
L 166.344544 160.884989 
L 164.690477 159.618845 
L 162.877064 158.338598 
L 160.949058 157.050916 
L 158.955838 155.75996 
L 156.949441 154.468423 
L 154.982442 153.178702 
L 153.105805 151.894083 
L 151.366831 150.619862 
L 149.807297 149.364288 
L 148.461909 148.139258 
L 147.357135 146.960694 
L 146.510485 145.84855 
L 145.930265 144.826453 
L 145.615804 143.920956 
L 145.558137 143.160469 
L 145.741072 142.573904 
L 146.142577 142.189127 
L 146.736392 142.031304 
L 147.493738 142.121263 
L 148.385041 142.47395 
L 149.381537 143.097116 
L 150.456666 143.9903 
L 151.587177 145.144199 
L 152.753878 146.54047 
L 153.941989 148.151993 
L 155.141098 149.943587 
L 156.34474 151.873162 
L 157.549637 153.893234 
L 158.754672 155.952745 
L 159.959688 157.999065 
L 161.164206 159.980093 
L 162.366169 161.846315 
L 163.560819 163.552734 
L 164.739794 165.060547 
L 165.890527 166.338486 
L 166.996013 167.363756 
L 168.03496 168.122531 
L 168.982347 168.609982 
L 169.810354 168.829859 
L 170.489621 168.793657 
z
" style="fill:#0000ff;stroke:#000000;stroke-linejoin:miter;"/>
   </g>
   <g id="patch_5">
    <path clip-path="url(#peaa0a124f5)" d="M 208.602806 207.766658 
L 208.898084 207.277633 
L 208.963142 206.60052 
L 208.77868 205.763911 
L 208.331963 204.79665 
L 207.618061 203.726372 
L 206.640736 202.578281 
L 205.412895 201.374238 
L 203.956588 200.132202 
L 202.302521 198.866058 
L 200.489108 197.585811 
L 198.561102 196.298129 
L 196.567883 195.007173 
L 194.561486 193.715636 
L 192.594486 192.425915 
L 190.71785 191.141296 
L 188.978875 189.867075 
L 187.419341 188.611501 
L 186.073953 187.386471 
L 184.969179 186.207906 
L 184.12253 185.095763 
L 183.542309 184.073666 
L 183.227849 183.168169 
L 183.170182 182.407682 
L 183.353116 181.821117 
L 183.754622 181.436339 
L 184.348436 181.278517 
L 185.105782 181.368476 
L 185.997086 181.721163 
L 186.993581 182.344329 
L 188.06871 183.237512 
L 189.199222 184.391412 
L 190.365923 185.787683 
L 191.554033 187.399206 
L 192.753142 189.1908 
L 193.956784 191.120374 
L 195.161681 193.140447 
L 196.366716 195.199957 
L 197.571732 197.246278 
L 198.77625 199.227306 
L 199.978214 201.093527 
L 201.172864 202.799947 
L 202.351838 204.30776 
L 203.502572 205.585699 
L 204.608058 206.610969 
L 205.647005 207.369744 
L 206.594392 207.857195 
L 207.422398 208.077071 
L 208.101665 208.04087 
z
" style="fill:#0000ff;stroke:#000000;stroke-linejoin:miter;"/>
   </g>
   <g id="patch_6">
    <path clip-path="url(#peaa0a124f5)" d="M 193.93958 204.250781 
L 148.805127 157.154126 
L 144.880406 160.91533 
L 190.014859 208.011986 
z
" style="fill:#999999;stroke:#000000;stroke-linejoin:miter;"/>
   </g>
   <g id="text_1">
    <!-- t = 0.1 -->
    <defs>
     <path d="M 18.3125 70.21875 
L 18.3125 54.6875 
L 36.8125 54.6875 
L 36.8125 47.703125 
L 18.3125 47.703125 
L 18.3125 18.015625 
Q 18.3125 11.328125 20.140625 9.421875 
Q 21.96875 7.515625 27.59375 7.515625 
L 36.8125 7.515625 
L 36.8125 0 
L 27.59375 0 
Q 17.1875 0 13.234375 3.875 
Q 9.28125 7.765625 9.28125 18.015625 
L 9.28125 47.703125 
L 2.6875 47.703125 
L 2.6875 54.6875 
L 9.28125 54.6875 
L 9.28125 70.21875 
z
" id="DejaVuSans-116"/>
     <path id="DejaVuSans-32"/>
     <path d="M 10.59375 45.40625 
L 73.1875 45.40625 
L 73.1875 37.203125 
L 10.59375 37.203125 
z
M 10.59375 25.484375 
L 73.1875 25.484375 
L 73.1875 17.1875 
L 10.59375 17.1875 
z
" id="DejaVuSans-61"/>
     <path d="M 31.78125 66.40625 
Q 24.171875 66.40625 20.328125 58.90625 
Q 16.5 51.421875 16.5 36.375 
Q 16.5 21.390625 20.328125 13.890625 
Q 24.171875 6.390625 31.78125 6.390625 
Q 39.453125 6.390625 43.28125 13.890625 
Q 47.125 21.390625 47.125 36.375 
Q 47.125 51.421875 43.28125 58.90625 
Q 39.453125 66.40625 31.78125 66.40625 
z
M 31.78125 74.21875 
Q 44.046875 74.21875 50.515625 64.515625 
Q 56.984375 54.828125 56.984375 36.375 
Q 56.984375 17.96875 50.515625 8.265625 
Q 44.046875 -1.421875 31.78125 -1.421875 
Q 19.53125 -1.421875 13.0625 8.265625 
Q 6.59375 17.96875 6.59375 36.375 
Q 6.59375 54.828125 13.0625 64.515625 
Q 19.53125 74.21875 31.78125 74.21875 
z
" id="DejaVuSans-48"/>
     <path d="M 10.6875 12.40625 
L 21 12.40625 
L 21 0 
L 10.6875 0 
z
" id="DejaVuSans-46"/>
     <path d="M 12.40625 8.296875 
L 28.515625 8.296875 
L 28.515625 63.921875 
L 10.984375 60.40625 
L 10.984375 69.390625 
L 28.421875 72.90625 
L 38.28125 72.90625 
L 38.28125 8.296875 
L 54.390625 8.296875 
L 54.390625 0 
L 12.40625 0 
z
" id="DejaVuSans-49"/>
    </defs>
    <g transform="translate(200.664375 28.56)scale(0.12 -0.12)">
     <use xlink:href="#DejaVuSans-116"/>
     <use x="39.208984" xlink:href="#DejaVuSans-32"/>
     <use x="70.996094" xlink:href="#DejaVuSans-61"/>
     <use x="154.785156" xlink:href="#DejaVuSans-32"/>
     <use x="186.572266" xlink:href="#DejaVuSans-48"/>
     <use x="250.195312" xlink:href="#DejaVuSans-46"/>
     <use x="281.982422" xlink:href="#DejaVuSans-49"/>
    </g>
   </g>
  </g>
 </g>
 <defs>
  <clipPath id="peaa0a124f5">
   <rect height="217.44" width="334.8" x="54" y="34.56"/>
  </clipPath>
 </defs>
</svg>
