<?xml version="1.0" encoding="utf-8" standalone="no"?>
<!DOCTYPE svg PUBLIC "-//W3C//DTD SVG 1.1//EN"
  "http://www.w3.org/Graphics/SVG/1.1/DTD/svg11.dtd">
<!-- Created with matplotlib (https://matplotlib.org/) -->
<svg height="288pt" version="1.1" viewBox="0 0 432 288" width="432pt" xmlns="http://www.w3.org/2000/svg" xmlns:xlink="http://www.w3.org/1999/xlink">
 <defs>
  <style type="text/css">
*{stroke-linecap:butt;stroke-linejoin:round;}
  </style>
 </defs>
 <g id="figure_1">
  <g id="patch_1">
   <path d="M 0 288 
L 432 288 
L 432 0 
L 0 0 
z
" style="fill:#ffffff;"/>
  </g>
  <g id="axes_1">
   <g id="patch_2">
    <path clip-path="url(#p1c21514894)" d="M 251.029739 117.001275 
L 248.418893 127.555131 
L 247.363507 127.294046 
L 249.974354 116.740191 
z
" style="stroke:#000000;stroke-linejoin:miter;"/>
   </g>
   <g id="patch_3">
    <path clip-path="url(#p1c21514894)" d="M 303.799017 130.055508 
L 301.18817 140.609363 
L 300.132785 140.348278 
L 302.743631 129.794423 
z
" style="stroke:#000000;stroke-linejoin:miter;"/>
   </g>
   <g id="patch_4">
    <path clip-path="url(#p1c21514894)" d="M 268.091806 121.222144 
L 268.079845 120.651012 
L 267.772768 120.044038 
L 267.169553 119.435702 
L 266.274862 118.857188 
L 265.099306 118.334484 
L 263.65954 117.886879 
L 261.97816 117.525944 
L 260.083402 117.255064 
L 258.008639 117.069554 
L 255.79168 116.95733 
L 253.47391 116.900096 
L 251.099282 116.874965 
L 248.713208 116.856389 
L 246.361396 116.818282 
L 244.088674 116.736169 
L 241.937841 116.589235 
L 239.948613 116.36211 
L 238.15668 116.046293 
L 236.59292 115.641084 
L 235.282801 115.153983 
L 234.245973 114.600515 
L 233.49607 114.003476 
L 233.040705 113.391669 
L 232.881654 112.798182 
L 233.015201 112.258343 
L 233.432611 111.807463 
L 234.1207 111.478527 
L 235.06247 111.29998 
L 236.237757 111.293752 
L 237.623872 111.473654 
L 239.196192 111.844258 
L 240.928692 112.400326 
L 242.794378 113.126843 
L 244.765644 113.999646 
L 246.814518 114.986624 
L 248.912842 116.049405 
L 251.032371 117.14544 
L 253.144831 118.230339 
L 255.221957 119.260329 
L 257.235538 120.194669 
L 259.157492 120.99788 
L 260.960005 121.641643 
L 262.615738 122.106253 
L 264.098132 122.381541 
L 265.381803 122.467209 
L 266.443025 122.372555 
L 267.260293 122.115623 
L 267.814943 121.721825 
z
" style="fill:#0000ff;stroke:#000000;stroke-linejoin:miter;"/>
   </g>
   <g id="patch_5">
    <path clip-path="url(#p1c21514894)" d="M 320.861083 134.276376 
L 320.849122 133.705244 
L 320.542045 133.09827 
L 319.93883 132.489934 
L 319.044139 131.91142 
L 317.868583 131.388717 
L 316.428817 130.941112 
L 314.747437 130.580176 
L 312.852679 130.309296 
L 310.777916 130.123787 
L 308.560957 130.011562 
L 306.243187 129.954329 
L 303.868559 129.929197 
L 301.482485 129.910622 
L 299.130674 129.872515 
L 296.857951 129.790402 
L 294.707118 129.643467 
L 292.71789 129.416343 
L 290.925957 129.100525 
L 289.362197 128.695316 
L 288.052078 128.208215 
L 287.01525 127.654747 
L 286.265347 127.057708 
L 285.809982 126.445901 
L 285.650931 125.852414 
L 285.784478 125.312576 
L 286.201888 124.861695 
L 286.889977 124.53276 
L 287.831747 124.354212 
L 289.007034 124.347984 
L 290.393149 124.527886 
L 291.96547 124.898491 
L 293.697969 125.454559 
L 295.563656 126.181075 
L 297.534921 127.053878 
L 299.583795 128.040856 
L 301.682119 129.103638 
L 303.801648 130.199673 
L 305.914108 131.284571 
L 307.991234 132.314561 
L 310.004815 133.248901 
L 311.926769 134.052113 
L 313.729282 134.695875 
L 315.385015 135.160485 
L 316.867409 135.435774 
L 318.151081 135.521442 
L 319.212302 135.426788 
L 320.02957 135.169855 
L 320.584221 134.776058 
z
" style="fill:#0000ff;stroke:#000000;stroke-linejoin:miter;"/>
   </g>
   <g id="patch_6">
    <path clip-path="url(#p1c21514894)" d="M 306.590117 139.14578 
L 243.266984 123.480701 
L 241.961561 128.757629 
L 305.284693 144.422708 
z
" style="fill:#999999;stroke:#000000;stroke-linejoin:miter;"/>
   </g>
   <g id="text_1">
    <!-- t = 0.8 -->
    <defs>
     <path d="M 18.3125 70.21875 
L 18.3125 54.6875 
L 36.8125 54.6875 
L 36.8125 47.703125 
L 18.3125 47.703125 
L 18.3125 18.015625 
Q 18.3125 11.328125 20.140625 9.421875 
Q 21.96875 7.515625 27.59375 7.515625 
L 36.8125 7.515625 
L 36.8125 0 
L 27.59375 0 
Q 17.1875 0 13.234375 3.875 
Q 9.28125 7.765625 9.28125 18.015625 
L 9.28125 47.703125 
L 2.6875 47.703125 
L 2.6875 54.6875 
L 9.28125 54.6875 
L 9.28125 70.21875 
z
" id="DejaVuSans-116"/>
     <path id="DejaVuSans-32"/>
     <path d="M 10.59375 45.40625 
L 73.1875 45.40625 
L 73.1875 37.203125 
L 10.59375 37.203125 
z
M 10.59375 25.484375 
L 73.1875 25.484375 
L 73.1875 17.1875 
L 10.59375 17.1875 
z
" id="DejaVuSans-61"/>
     <path d="M 31.78125 66.40625 
Q 24.171875 66.40625 20.328125 58.90625 
Q 16.5 51.421875 16.5 36.375 
Q 16.5 21.390625 20.328125 13.890625 
Q 24.171875 6.390625 31.78125 6.390625 
Q 39.453125 6.390625 43.28125 13.890625 
Q 47.125 21.390625 47.125 36.375 
Q 47.125 51.421875 43.28125 58.90625 
Q 39.453125 66.40625 31.78125 66.40625 
z
M 31.78125 74.21875 
Q 44.046875 74.21875 50.515625 64.515625 
Q 56.984375 54.828125 56.984375 36.375 
Q 56.984375 17.96875 50.515625 8.265625 
Q 44.046875 -1.421875 31.78125 -1.421875 
Q 19.53125 -1.421875 13.0625 8.265625 
Q 6.59375 17.96875 6.59375 36.375 
Q 6.59375 54.828125 13.0625 64.515625 
Q 19.53125 74.21875 31.78125 74.21875 
z
" id="DejaVuSans-48"/>
     <path d="M 10.6875 12.40625 
L 21 12.40625 
L 21 0 
L 10.6875 0 
z
" id="DejaVuSans-46"/>
     <path d="M 31.78125 34.625 
Q 24.75 34.625 20.71875 30.859375 
Q 16.703125 27.09375 16.703125 20.515625 
Q 16.703125 13.921875 20.71875 10.15625 
Q 24.75 6.390625 31.78125 6.390625 
Q 38.8125 6.390625 42.859375 10.171875 
Q 46.921875 13.96875 46.921875 20.515625 
Q 46.921875 27.09375 42.890625 30.859375 
Q 38.875 34.625 31.78125 34.625 
z
M 21.921875 38.8125 
Q 15.578125 40.375 12.03125 44.71875 
Q 8.5 49.078125 8.5 55.328125 
Q 8.5 64.0625 14.71875 69.140625 
Q 20.953125 74.21875 31.78125 74.21875 
Q 42.671875 74.21875 48.875 69.140625 
Q 55.078125 64.0625 55.078125 55.328125 
Q 55.078125 49.078125 51.53125 44.71875 
Q 48 40.375 41.703125 38.8125 
Q 48.828125 37.15625 52.796875 32.3125 
Q 56.78125 27.484375 56.78125 20.515625 
Q 56.78125 9.90625 50.3125 4.234375 
Q 43.84375 -1.421875 31.78125 -1.421875 
Q 19.734375 -1.421875 13.25 4.234375 
Q 6.78125 9.90625 6.78125 20.515625 
Q 6.78125 27.484375 10.78125 32.3125 
Q 14.796875 37.15625 21.921875 38.8125 
z
M 18.3125 54.390625 
Q 18.3125 48.734375 21.84375 45.5625 
Q 25.390625 42.390625 31.78125 42.390625 
Q 38.140625 42.390625 41.71875 45.5625 
Q 45.3125 48.734375 45.3125 54.390625 
Q 45.3125 60.0625 41.71875 63.234375 
Q 38.140625 66.40625 31.78125 66.40625 
Q 25.390625 66.40625 21.84375 63.234375 
Q 18.3125 60.0625 18.3125 54.390625 
z
" id="DejaVuSans-56"/>
    </defs>
    <g transform="translate(200.664375 28.56)scale(0.12 -0.12)">
     <use xlink:href="#DejaVuSans-116"/>
     <use x="39.208984" xlink:href="#DejaVuSans-32"/>
     <use x="70.996094" xlink:href="#DejaVuSans-61"/>
     <use x="154.785156" xlink:href="#DejaVuSans-32"/>
     <use x="186.572266" xlink:href="#DejaVuSans-48"/>
     <use x="250.195312" xlink:href="#DejaVuSans-46"/>
     <use x="281.982422" xlink:href="#DejaVuSans-56"/>
    </g>
   </g>
  </g>
 </g>
 <defs>
  <clipPath id="p1c21514894">
   <rect height="217.44" width="334.8" x="54" y="34.56"/>
  </clipPath>
 </defs>
</svg>
