<?xml version="1.0" encoding="utf-8" standalone="no"?>
<!DOCTYPE svg PUBLIC "-//W3C//DTD SVG 1.1//EN"
  "http://www.w3.org/Graphics/SVG/1.1/DTD/svg11.dtd">
<!-- Created with matplotlib (https://matplotlib.org/) -->
<svg height="288pt" version="1.1" viewBox="0 0 432 288" width="432pt" xmlns="http://www.w3.org/2000/svg" xmlns:xlink="http://www.w3.org/1999/xlink">
 <defs>
  <style type="text/css">
*{stroke-linecap:butt;stroke-linejoin:round;}
  </style>
 </defs>
 <g id="figure_1">
  <g id="patch_1">
   <path d="M 0 288 
L 432 288 
L 432 0 
L 0 0 
z
" style="fill:#ffffff;"/>
  </g>
  <g id="axes_1">
   <g id="patch_2">
    <path clip-path="url(#p79b5096a2c)" d="M 194.755786 132.408276 
L 194.755753 143.280276 
L 193.668553 143.280272 
L 193.668586 132.408272 
z
" style="stroke:#000000;stroke-linejoin:miter;"/>
   </g>
   <g id="patch_3">
    <path clip-path="url(#p79b5096a2c)" d="M 249.115786 132.408442 
L 249.115753 143.280442 
L 248.028553 143.280438 
L 248.028586 132.408438 
z
" style="stroke:#000000;stroke-linejoin:miter;"/>
   </g>
   <g id="patch_4">
    <path clip-path="url(#p79b5096a2c)" d="M 212.332186 132.408329 
L 212.183423 131.856782 
L 211.739572 131.341311 
L 211.007922 130.895633 
L 210.000486 130.5489 
L 208.733807 130.323791 
L 207.228683 130.235031 
L 205.509827 130.288425 
L 203.605465 130.480481 
L 201.546865 130.798636 
L 199.367829 131.222079 
L 197.104138 131.723112 
L 194.792961 132.268962 
L 192.472247 132.823924 
L 190.180104 133.351699 
L 187.954167 133.817763 
L 185.830987 134.191631 
L 183.845426 134.448848 
L 182.030087 134.572589 
L 180.414778 134.55476 
L 179.026023 134.396527 
L 177.886625 134.108239 
L 177.015292 133.708753 
L 176.426331 133.2242 
L 176.129414 132.686275 
L 176.129416 132.130163 
L 176.426336 131.592239 
L 177.0153 131.10769 
L 177.886635 130.70821 
L 179.026035 130.419929 
L 180.414792 130.261704 
L 182.0301 130.243885 
L 183.845438 130.367637 
L 185.830997 130.624866 
L 187.954175 130.998747 
L 190.180109 131.464825 
L 192.47225 131.992614 
L 194.79296 132.54759 
L 197.104134 133.093454 
L 199.367822 133.594501 
L 201.546855 134.017957 
L 203.605453 134.336124 
L 205.509815 134.528192 
L 207.228669 134.581597 
L 208.733794 134.492846 
L 210.000475 134.267745 
L 211.007913 133.921018 
L 211.739565 133.475344 
L 212.183419 132.959876 
z
" style="fill:#0000ff;stroke:#000000;stroke-linejoin:miter;"/>
   </g>
   <g id="patch_5">
    <path clip-path="url(#p79b5096a2c)" d="M 266.692186 132.408495 
L 266.543423 131.856948 
L 266.099572 131.341477 
L 265.367922 130.895799 
L 264.360486 130.549066 
L 263.093807 130.323957 
L 261.588683 130.235197 
L 259.869827 130.288591 
L 257.965465 130.480647 
L 255.906865 130.798802 
L 253.727829 131.222245 
L 251.464138 131.723278 
L 249.152961 132.269128 
L 246.832247 132.82409 
L 244.540104 133.351865 
L 242.314167 133.817929 
L 240.190987 134.191797 
L 238.205426 134.449014 
L 236.390087 134.572755 
L 234.774778 134.554926 
L 233.386023 134.396693 
L 232.246625 134.108405 
L 231.375292 133.708919 
L 230.786331 133.224366 
L 230.489414 132.686441 
L 230.489416 132.130329 
L 230.786336 131.592405 
L 231.3753 131.107856 
L 232.246635 130.708376 
L 233.386035 130.420095 
L 234.774792 130.26187 
L 236.3901 130.244051 
L 238.205438 130.367803 
L 240.190997 130.625032 
L 242.314175 130.998913 
L 244.540109 131.464991 
L 246.83225 131.99278 
L 249.15296 132.547756 
L 251.464134 133.09362 
L 253.727822 133.594667 
L 255.906855 134.018123 
L 257.965453 134.33629 
L 259.869815 134.528358 
L 261.588669 134.581763 
L 263.093794 134.493012 
L 264.360475 134.267911 
L 265.367913 133.921184 
L 266.099565 133.47551 
L 266.543419 132.960042 
z
" style="fill:#0000ff;stroke:#000000;stroke-linejoin:miter;"/>
   </g>
   <g id="patch_6">
    <path clip-path="url(#p79b5096a2c)" d="M 254.008161 140.562457 
L 188.776161 140.562258 
L 188.776144 145.998258 
L 254.008144 145.998457 
z
" style="fill:#999999;stroke:#000000;stroke-linejoin:miter;"/>
   </g>
   <g id="text_1">
    <!-- t = 4.0 -->
    <defs>
     <path d="M 18.3125 70.21875 
L 18.3125 54.6875 
L 36.8125 54.6875 
L 36.8125 47.703125 
L 18.3125 47.703125 
L 18.3125 18.015625 
Q 18.3125 11.328125 20.140625 9.421875 
Q 21.96875 7.515625 27.59375 7.515625 
L 36.8125 7.515625 
L 36.8125 0 
L 27.59375 0 
Q 17.1875 0 13.234375 3.875 
Q 9.28125 7.765625 9.28125 18.015625 
L 9.28125 47.703125 
L 2.6875 47.703125 
L 2.6875 54.6875 
L 9.28125 54.6875 
L 9.28125 70.21875 
z
" id="DejaVuSans-116"/>
     <path id="DejaVuSans-32"/>
     <path d="M 10.59375 45.40625 
L 73.1875 45.40625 
L 73.1875 37.203125 
L 10.59375 37.203125 
z
M 10.59375 25.484375 
L 73.1875 25.484375 
L 73.1875 17.1875 
L 10.59375 17.1875 
z
" id="DejaVuSans-61"/>
     <path d="M 37.796875 64.3125 
L 12.890625 25.390625 
L 37.796875 25.390625 
z
M 35.203125 72.90625 
L 47.609375 72.90625 
L 47.609375 25.390625 
L 58.015625 25.390625 
L 58.015625 17.1875 
L 47.609375 17.1875 
L 47.609375 0 
L 37.796875 0 
L 37.796875 17.1875 
L 4.890625 17.1875 
L 4.890625 26.703125 
z
" id="DejaVuSans-52"/>
     <path d="M 10.6875 12.40625 
L 21 12.40625 
L 21 0 
L 10.6875 0 
z
" id="DejaVuSans-46"/>
     <path d="M 31.78125 66.40625 
Q 24.171875 66.40625 20.328125 58.90625 
Q 16.5 51.421875 16.5 36.375 
Q 16.5 21.390625 20.328125 13.890625 
Q 24.171875 6.390625 31.78125 6.390625 
Q 39.453125 6.390625 43.28125 13.890625 
Q 47.125 21.390625 47.125 36.375 
Q 47.125 51.421875 43.28125 58.90625 
Q 39.453125 66.40625 31.78125 66.40625 
z
M 31.78125 74.21875 
Q 44.046875 74.21875 50.515625 64.515625 
Q 56.984375 54.828125 56.984375 36.375 
Q 56.984375 17.96875 50.515625 8.265625 
Q 44.046875 -1.421875 31.78125 -1.421875 
Q 19.53125 -1.421875 13.0625 8.265625 
Q 6.59375 17.96875 6.59375 36.375 
Q 6.59375 54.828125 13.0625 64.515625 
Q 19.53125 74.21875 31.78125 74.21875 
z
" id="DejaVuSans-48"/>
    </defs>
    <g transform="translate(200.664375 28.56)scale(0.12 -0.12)">
     <use xlink:href="#DejaVuSans-116"/>
     <use x="39.208984" xlink:href="#DejaVuSans-32"/>
     <use x="70.996094" xlink:href="#DejaVuSans-61"/>
     <use x="154.785156" xlink:href="#DejaVuSans-32"/>
     <use x="186.572266" xlink:href="#DejaVuSans-52"/>
     <use x="250.195312" xlink:href="#DejaVuSans-46"/>
     <use x="281.982422" xlink:href="#DejaVuSans-48"/>
    </g>
   </g>
  </g>
 </g>
 <defs>
  <clipPath id="p79b5096a2c">
   <rect height="217.44" width="334.8" x="54" y="34.56"/>
  </clipPath>
 </defs>
</svg>
