<?xml version="1.0" encoding="utf-8" standalone="no"?>
<!DOCTYPE svg PUBLIC "-//W3C//DTD SVG 1.1//EN"
  "http://www.w3.org/Graphics/SVG/1.1/DTD/svg11.dtd">
<!-- Created with matplotlib (https://matplotlib.org/) -->
<svg height="288pt" version="1.1" viewBox="0 0 432 288" width="432pt" xmlns="http://www.w3.org/2000/svg" xmlns:xlink="http://www.w3.org/1999/xlink">
 <defs>
  <style type="text/css">
*{stroke-linecap:butt;stroke-linejoin:round;}
  </style>
 </defs>
 <g id="figure_1">
  <g id="patch_1">
   <path d="M 0 288 
L 432 288 
L 432 0 
L 0 0 
z
" style="fill:#ffffff;"/>
  </g>
  <g id="axes_1">
   <g id="patch_2">
    <path clip-path="url(#p5dbf8323c5)" d="M 194.733753 132.41753 
L 194.737478 143.289529 
L 193.650278 143.289902 
L 193.646553 132.417902 
z
" style="stroke:#000000;stroke-linejoin:miter;"/>
   </g>
   <g id="patch_3">
    <path clip-path="url(#p5dbf8323c5)" d="M 249.09375 132.398905 
L 249.097475 143.270904 
L 248.010275 143.271276 
L 248.00655 132.399277 
z
" style="stroke:#000000;stroke-linejoin:miter;"/>
   </g>
   <g id="patch_4">
    <path clip-path="url(#p5dbf8323c5)" d="M 212.310152 132.411508 
L 212.161198 131.860012 
L 211.717169 131.344694 
L 210.985366 130.899269 
L 209.97781 130.552884 
L 208.711053 130.328213 
L 207.205898 130.239974 
L 205.487061 130.293962 
L 203.582765 130.486676 
L 201.524275 130.805543 
L 199.345386 131.229739 
L 197.081868 131.731554 
L 194.77088 132.278203 
L 192.450358 132.833968 
L 190.158397 133.362534 
L 187.932622 133.829368 
L 185.809571 134.20397 
L 183.824099 134.461874 
L 182.008803 134.586242 
L 180.393489 134.568971 
L 179.004679 134.411218 
L 177.865181 134.123324 
L 176.99371 133.72414 
L 176.404582 133.239791 
L 176.107479 132.701968 
L 176.107288 132.145856 
L 176.404023 131.607829 
L 176.992818 131.123077 
L 177.864016 130.723295 
L 179.003316 130.434621 
L 180.392018 130.275915 
L 182.00732 130.257538 
L 183.822701 130.380662 
L 185.808349 130.637205 
L 187.931656 131.010352 
L 190.157751 131.475661 
L 192.450074 132.002657 
L 194.770975 132.556831 
L 197.082338 133.101896 
L 199.346199 133.602161 
L 201.525378 134.024863 
L 203.584086 134.342319 
L 205.488514 134.533728 
L 207.207387 134.586539 
L 208.712481 134.497268 
L 209.979084 134.271729 
L 210.986402 133.924653 
L 211.717901 133.478727 
L 212.161576 132.963105 
z
" style="fill:#0000ff;stroke:#000000;stroke-linejoin:miter;"/>
   </g>
   <g id="patch_5">
    <path clip-path="url(#p5dbf8323c5)" d="M 266.670149 132.392882 
L 266.521195 131.841387 
L 266.077166 131.326069 
L 265.345362 130.880644 
L 264.337807 130.534259 
L 263.07105 130.309588 
L 261.565895 130.221348 
L 259.847058 130.275337 
L 257.942762 130.468051 
L 255.884272 130.786917 
L 253.705383 131.211113 
L 251.441865 131.712929 
L 249.130877 132.259578 
L 246.810355 132.815342 
L 244.518394 133.343909 
L 242.292618 133.810743 
L 240.169568 134.185345 
L 238.184096 134.443248 
L 236.3688 134.567617 
L 234.753485 134.550346 
L 233.364676 134.392593 
L 232.225177 134.104699 
L 231.353706 133.705514 
L 230.764579 133.221165 
L 230.467476 132.683343 
L 230.467285 132.12723 
L 230.764019 131.589204 
L 231.352815 131.104451 
L 232.224013 130.70467 
L 233.363313 130.415995 
L 234.752015 130.25729 
L 236.367317 130.238913 
L 238.182698 130.362037 
L 240.168346 130.61858 
L 242.291653 130.991727 
L 244.517748 131.457036 
L 246.81007 131.984032 
L 249.130972 132.538206 
L 251.442335 133.083271 
L 253.706196 133.583535 
L 255.885375 134.006238 
L 257.944083 134.323694 
L 259.848511 134.515103 
L 261.567384 134.567914 
L 263.072478 134.478643 
L 264.339081 134.253104 
L 265.346399 133.906028 
L 266.077897 133.460102 
L 266.521573 132.94448 
z
" style="fill:#0000ff;stroke:#000000;stroke-linejoin:miter;"/>
   </g>
   <g id="patch_6">
    <path clip-path="url(#p5dbf8323c5)" d="M 253.988943 140.551228 
L 188.756947 140.573578 
L 188.75881 146.009578 
L 253.990806 145.987227 
z
" style="fill:#999999;stroke:#000000;stroke-linejoin:miter;"/>
   </g>
   <g id="text_1">
    <!-- t = 3.4 -->
    <defs>
     <path d="M 18.3125 70.21875 
L 18.3125 54.6875 
L 36.8125 54.6875 
L 36.8125 47.703125 
L 18.3125 47.703125 
L 18.3125 18.015625 
Q 18.3125 11.328125 20.140625 9.421875 
Q 21.96875 7.515625 27.59375 7.515625 
L 36.8125 7.515625 
L 36.8125 0 
L 27.59375 0 
Q 17.1875 0 13.234375 3.875 
Q 9.28125 7.765625 9.28125 18.015625 
L 9.28125 47.703125 
L 2.6875 47.703125 
L 2.6875 54.6875 
L 9.28125 54.6875 
L 9.28125 70.21875 
z
" id="DejaVuSans-116"/>
     <path id="DejaVuSans-32"/>
     <path d="M 10.59375 45.40625 
L 73.1875 45.40625 
L 73.1875 37.203125 
L 10.59375 37.203125 
z
M 10.59375 25.484375 
L 73.1875 25.484375 
L 73.1875 17.1875 
L 10.59375 17.1875 
z
" id="DejaVuSans-61"/>
     <path d="M 40.578125 39.3125 
Q 47.65625 37.796875 51.625 33 
Q 55.609375 28.21875 55.609375 21.1875 
Q 55.609375 10.40625 48.1875 4.484375 
Q 40.765625 -1.421875 27.09375 -1.421875 
Q 22.515625 -1.421875 17.65625 -0.515625 
Q 12.796875 0.390625 7.625 2.203125 
L 7.625 11.71875 
Q 11.71875 9.328125 16.59375 8.109375 
Q 21.484375 6.890625 26.8125 6.890625 
Q 36.078125 6.890625 40.9375 10.546875 
Q 45.796875 14.203125 45.796875 21.1875 
Q 45.796875 27.640625 41.28125 31.265625 
Q 36.765625 34.90625 28.71875 34.90625 
L 20.21875 34.90625 
L 20.21875 43.015625 
L 29.109375 43.015625 
Q 36.375 43.015625 40.234375 45.921875 
Q 44.09375 48.828125 44.09375 54.296875 
Q 44.09375 59.90625 40.109375 62.90625 
Q 36.140625 65.921875 28.71875 65.921875 
Q 24.65625 65.921875 20.015625 65.03125 
Q 15.375 64.15625 9.8125 62.3125 
L 9.8125 71.09375 
Q 15.4375 72.65625 20.34375 73.4375 
Q 25.25 74.21875 29.59375 74.21875 
Q 40.828125 74.21875 47.359375 69.109375 
Q 53.90625 64.015625 53.90625 55.328125 
Q 53.90625 49.265625 50.4375 45.09375 
Q 46.96875 40.921875 40.578125 39.3125 
z
" id="DejaVuSans-51"/>
     <path d="M 10.6875 12.40625 
L 21 12.40625 
L 21 0 
L 10.6875 0 
z
" id="DejaVuSans-46"/>
     <path d="M 37.796875 64.3125 
L 12.890625 25.390625 
L 37.796875 25.390625 
z
M 35.203125 72.90625 
L 47.609375 72.90625 
L 47.609375 25.390625 
L 58.015625 25.390625 
L 58.015625 17.1875 
L 47.609375 17.1875 
L 47.609375 0 
L 37.796875 0 
L 37.796875 17.1875 
L 4.890625 17.1875 
L 4.890625 26.703125 
z
" id="DejaVuSans-52"/>
    </defs>
    <g transform="translate(200.664375 28.56)scale(0.12 -0.12)">
     <use xlink:href="#DejaVuSans-116"/>
     <use x="39.208984" xlink:href="#DejaVuSans-32"/>
     <use x="70.996094" xlink:href="#DejaVuSans-61"/>
     <use x="154.785156" xlink:href="#DejaVuSans-32"/>
     <use x="186.572266" xlink:href="#DejaVuSans-51"/>
     <use x="250.195312" xlink:href="#DejaVuSans-46"/>
     <use x="281.982422" xlink:href="#DejaVuSans-52"/>
    </g>
   </g>
  </g>
 </g>
 <defs>
  <clipPath id="p5dbf8323c5">
   <rect height="217.44" width="334.8" x="54" y="34.56"/>
  </clipPath>
 </defs>
</svg>
