<?xml version="1.0" encoding="utf-8" standalone="no"?>
<!DOCTYPE svg PUBLIC "-//W3C//DTD SVG 1.1//EN"
  "http://www.w3.org/Graphics/SVG/1.1/DTD/svg11.dtd">
<!-- Created with matplotlib (https://matplotlib.org/) -->
<svg height="288pt" version="1.1" viewBox="0 0 432 288" width="432pt" xmlns="http://www.w3.org/2000/svg" xmlns:xlink="http://www.w3.org/1999/xlink">
 <defs>
  <style type="text/css">
*{stroke-linecap:butt;stroke-linejoin:round;}
  </style>
 </defs>
 <g id="figure_1">
  <g id="patch_1">
   <path d="M 0 288 
L 432 288 
L 432 0 
L 0 0 
z
" style="fill:#ffffff;"/>
  </g>
  <g id="axes_1">
   <g id="patch_2">
    <path clip-path="url(#p5dc2971b41)" d="M 196.537932 131.278175 
L 196.290953 142.147369 
L 195.204033 142.122671 
L 195.451013 131.253477 
z
" style="stroke:#000000;stroke-linejoin:miter;"/>
   </g>
   <g id="patch_3">
    <path clip-path="url(#p5dc2971b41)" d="M 250.883904 132.513071 
L 250.636924 143.382265 
L 249.550005 143.357567 
L 249.796984 132.488373 
z
" style="stroke:#000000;stroke-linejoin:miter;"/>
   </g>
   <g id="patch_4">
    <path clip-path="url(#p5dc2971b41)" d="M 214.109796 131.677458 
L 213.973599 131.122674 
L 213.541571 130.597254 
L 212.820233 130.135073 
L 211.820933 129.765546 
L 210.559694 129.511724 
L 209.056974 129.388799 
L 207.337349 129.403138 
L 205.429116 129.551889 
L 203.36382 129.823202 
L 201.175729 130.197041 
L 198.901241 130.646528 
L 196.578262 131.139741 
L 194.245542 131.641848 
L 191.942001 132.117422 
L 189.706053 132.532807 
L 187.574928 132.858353 
L 185.584037 133.070403 
L 183.766356 133.152879 
L 182.151869 133.098364 
L 180.767067 132.908628 
L 179.63451 132.594534 
L 178.772476 132.17536 
L 178.194674 131.677555 
L 177.910052 131.133024 
L 177.922685 130.577055 
L 178.231747 130.046015 
L 178.831564 129.574968 
L 179.711749 129.195383 
L 180.857403 128.933056 
L 182.249395 128.806416 
L 183.864691 128.825291 
L 185.67675 128.990245 
L 187.655954 129.292508 
L 189.770092 129.714518 
L 191.984865 130.231036 
L 194.264426 130.810752 
L 196.571932 131.418298 
L 198.870111 132.016517 
L 201.121834 132.568851 
L 203.290687 133.041693 
L 205.341527 133.406537 
L 207.241035 133.64181 
L 208.958233 133.734243 
L 210.464985 133.679703 
L 211.736452 133.483431 
L 212.751506 133.159676 
L 213.493093 132.730736 
L 213.94854 132.225482 
z
" style="fill:#0000ff;stroke:#000000;stroke-linejoin:miter;"/>
   </g>
   <g id="patch_5">
    <path clip-path="url(#p5dc2971b41)" d="M 268.455768 132.912354 
L 268.319571 132.35757 
L 267.887543 131.83215 
L 267.166205 131.369969 
L 266.166905 131.000442 
L 264.905665 130.74662 
L 263.402945 130.623695 
L 261.683321 130.638034 
L 259.775087 130.786785 
L 257.709792 131.058098 
L 255.5217 131.431937 
L 253.247213 131.881424 
L 250.924233 132.374637 
L 248.591513 132.876744 
L 246.287973 133.352318 
L 244.052024 133.767702 
L 241.9209 134.093248 
L 239.930009 134.305299 
L 238.112328 134.387775 
L 236.497841 134.33326 
L 235.113038 134.143524 
L 233.980482 133.82943 
L 233.118447 133.410256 
L 232.540645 132.912451 
L 232.256023 132.36792 
L 232.268656 131.811951 
L 232.577718 131.280911 
L 233.177536 130.809864 
L 234.05772 130.430278 
L 235.203375 130.167952 
L 236.595366 130.041312 
L 238.210663 130.060187 
L 240.022722 130.225141 
L 242.001926 130.527404 
L 244.116064 130.949414 
L 246.330837 131.465932 
L 248.610398 132.045647 
L 250.917904 132.653193 
L 253.216083 133.251413 
L 255.467806 133.803747 
L 257.636659 134.276589 
L 259.687499 134.641433 
L 261.587006 134.876706 
L 263.304205 134.969139 
L 264.810957 134.914599 
L 266.082424 134.718327 
L 267.097477 134.394572 
L 267.839064 133.965632 
L 268.294512 133.460378 
z
" style="fill:#0000ff;stroke:#000000;stroke-linejoin:miter;"/>
   </g>
   <g id="patch_6">
    <path clip-path="url(#p5dc2971b41)" d="M 255.589807 140.776107 
L 190.374641 139.294232 
L 190.251151 144.728829 
L 255.466317 146.210704 
z
" style="fill:#999999;stroke:#000000;stroke-linejoin:miter;"/>
   </g>
   <g id="text_1">
    <!-- t = 1.4 -->
    <defs>
     <path d="M 18.3125 70.21875 
L 18.3125 54.6875 
L 36.8125 54.6875 
L 36.8125 47.703125 
L 18.3125 47.703125 
L 18.3125 18.015625 
Q 18.3125 11.328125 20.140625 9.421875 
Q 21.96875 7.515625 27.59375 7.515625 
L 36.8125 7.515625 
L 36.8125 0 
L 27.59375 0 
Q 17.1875 0 13.234375 3.875 
Q 9.28125 7.765625 9.28125 18.015625 
L 9.28125 47.703125 
L 2.6875 47.703125 
L 2.6875 54.6875 
L 9.28125 54.6875 
L 9.28125 70.21875 
z
" id="DejaVuSans-116"/>
     <path id="DejaVuSans-32"/>
     <path d="M 10.59375 45.40625 
L 73.1875 45.40625 
L 73.1875 37.203125 
L 10.59375 37.203125 
z
M 10.59375 25.484375 
L 73.1875 25.484375 
L 73.1875 17.1875 
L 10.59375 17.1875 
z
" id="DejaVuSans-61"/>
     <path d="M 12.40625 8.296875 
L 28.515625 8.296875 
L 28.515625 63.921875 
L 10.984375 60.40625 
L 10.984375 69.390625 
L 28.421875 72.90625 
L 38.28125 72.90625 
L 38.28125 8.296875 
L 54.390625 8.296875 
L 54.390625 0 
L 12.40625 0 
z
" id="DejaVuSans-49"/>
     <path d="M 10.6875 12.40625 
L 21 12.40625 
L 21 0 
L 10.6875 0 
z
" id="DejaVuSans-46"/>
     <path d="M 37.796875 64.3125 
L 12.890625 25.390625 
L 37.796875 25.390625 
z
M 35.203125 72.90625 
L 47.609375 72.90625 
L 47.609375 25.390625 
L 58.015625 25.390625 
L 58.015625 17.1875 
L 47.609375 17.1875 
L 47.609375 0 
L 37.796875 0 
L 37.796875 17.1875 
L 4.890625 17.1875 
L 4.890625 26.703125 
z
" id="DejaVuSans-52"/>
    </defs>
    <g transform="translate(200.664375 28.56)scale(0.12 -0.12)">
     <use xlink:href="#DejaVuSans-116"/>
     <use x="39.208984" xlink:href="#DejaVuSans-32"/>
     <use x="70.996094" xlink:href="#DejaVuSans-61"/>
     <use x="154.785156" xlink:href="#DejaVuSans-32"/>
     <use x="186.572266" xlink:href="#DejaVuSans-49"/>
     <use x="250.195312" xlink:href="#DejaVuSans-46"/>
     <use x="281.982422" xlink:href="#DejaVuSans-52"/>
    </g>
   </g>
  </g>
 </g>
 <defs>
  <clipPath id="p5dc2971b41">
   <rect height="217.44" width="334.8" x="54" y="34.56"/>
  </clipPath>
 </defs>
</svg>
