<?xml version="1.0" encoding="utf-8" standalone="no"?>
<!DOCTYPE svg PUBLIC "-//W3C//DTD SVG 1.1//EN"
  "http://www.w3.org/Graphics/SVG/1.1/DTD/svg11.dtd">
<!-- Created with matplotlib (https://matplotlib.org/) -->
<svg height="288pt" version="1.1" viewBox="0 0 432 288" width="432pt" xmlns="http://www.w3.org/2000/svg" xmlns:xlink="http://www.w3.org/1999/xlink">
 <defs>
  <style type="text/css">
*{stroke-linecap:butt;stroke-linejoin:round;}
  </style>
 </defs>
 <g id="figure_1">
  <g id="patch_1">
   <path d="M 0 288 
L 432 288 
L 432 0 
L 0 0 
z
" style="fill:#ffffff;"/>
  </g>
  <g id="axes_1">
   <g id="patch_2">
    <path clip-path="url(#p56495e3432)" d="M 194.354347 132.012305 
L 194.339292 142.884294 
L 193.252093 142.882789 
L 193.267148 132.010799 
z
" style="stroke:#000000;stroke-linejoin:miter;"/>
   </g>
   <g id="patch_3">
    <path clip-path="url(#p56495e3432)" d="M 248.714295 132.087577 
L 248.69924 142.959566 
L 247.612041 142.958061 
L 247.627096 132.086071 
z
" style="stroke:#000000;stroke-linejoin:miter;"/>
   </g>
   <g id="patch_4">
    <path clip-path="url(#p56495e3432)" d="M 211.93073 132.036643 
L 211.782729 131.484891 
L 211.339591 130.968807 
L 210.608557 130.522118 
L 209.601602 130.173993 
L 208.335235 129.947135 
L 206.830234 129.856295 
L 205.111307 129.907315 
L 203.206681 130.096739 
L 201.147643 130.41205 
L 198.968025 130.832481 
L 196.703643 131.330386 
L 194.391714 131.873042 
L 192.070236 132.424798 
L 189.777365 132.949405 
L 187.550787 133.412393 
L 185.427092 133.783328 
L 183.441178 134.037801 
L 181.62567 134.159034 
L 180.010387 134.138973 
L 178.621852 133.978821 
L 177.482853 133.688959 
L 176.612073 133.28827 
L 176.023783 132.802904 
L 175.727609 132.264569 
L 175.728379 131.708457 
L 176.026042 131.170944 
L 176.615674 130.687209 
L 177.487561 130.288934 
L 178.627359 130.002227 
L 180.016332 129.845921 
L 181.631664 129.830333 
L 183.446829 129.956594 
L 185.432031 130.216566 
L 187.55469 130.59338 
L 189.779978 131.062533 
L 192.071387 131.593488 
L 194.391328 132.151671 
L 196.701746 132.700727 
L 198.96474 133.204901 
L 201.143186 133.631367 
L 203.201342 133.952379 
L 205.105436 134.147077 
L 206.824216 134.202857 
L 208.329462 134.116186 
L 209.596452 133.892835 
L 210.604368 133.5475 
L 211.336636 133.102837 
L 211.781201 132.587983 
z
" style="fill:#0000ff;stroke:#000000;stroke-linejoin:miter;"/>
   </g>
   <g id="patch_5">
    <path clip-path="url(#p56495e3432)" d="M 266.290678 132.111915 
L 266.142677 131.560163 
L 265.699539 131.044079 
L 264.968505 130.59739 
L 263.96155 130.249265 
L 262.695182 130.022407 
L 261.190182 129.931567 
L 259.471255 129.982587 
L 257.566629 130.172011 
L 255.507591 130.487322 
L 253.327973 130.907753 
L 251.063591 131.405658 
L 248.751662 131.948314 
L 246.430184 132.50007 
L 244.137313 133.024677 
L 241.910735 133.487665 
L 239.78704 133.8586 
L 237.801126 134.113073 
L 235.985618 134.234306 
L 234.370335 134.214245 
L 232.9818 134.054093 
L 231.842801 133.764231 
L 230.972021 133.363542 
L 230.38373 132.878176 
L 230.087557 132.339841 
L 230.088327 131.783729 
L 230.38599 131.246216 
L 230.975622 130.762481 
L 231.847509 130.364206 
L 232.987306 130.077499 
L 234.37628 129.921193 
L 235.991612 129.905605 
L 237.806777 130.031866 
L 239.791979 130.291838 
L 241.914638 130.668652 
L 244.139926 131.137805 
L 246.431335 131.66876 
L 248.751276 132.226943 
L 251.061694 132.775999 
L 253.324688 133.280173 
L 255.503133 133.706639 
L 257.56129 134.027651 
L 259.465384 134.222349 
L 261.184164 134.278129 
L 262.68941 134.191458 
L 263.9564 133.968107 
L 264.964316 133.622772 
L 265.696584 133.178109 
L 266.141149 132.663255 
z
" style="fill:#0000ff;stroke:#000000;stroke-linejoin:miter;"/>
   </g>
   <g id="patch_6">
    <path clip-path="url(#p56495e3432)" d="M 253.595399 140.248344 
L 188.363462 140.158017 
L 188.355934 145.594012 
L 253.587872 145.684338 
z
" style="fill:#999999;stroke:#000000;stroke-linejoin:miter;"/>
   </g>
   <g id="text_1">
    <!-- t = 1.6 -->
    <defs>
     <path d="M 18.3125 70.21875 
L 18.3125 54.6875 
L 36.8125 54.6875 
L 36.8125 47.703125 
L 18.3125 47.703125 
L 18.3125 18.015625 
Q 18.3125 11.328125 20.140625 9.421875 
Q 21.96875 7.515625 27.59375 7.515625 
L 36.8125 7.515625 
L 36.8125 0 
L 27.59375 0 
Q 17.1875 0 13.234375 3.875 
Q 9.28125 7.765625 9.28125 18.015625 
L 9.28125 47.703125 
L 2.6875 47.703125 
L 2.6875 54.6875 
L 9.28125 54.6875 
L 9.28125 70.21875 
z
" id="DejaVuSans-116"/>
     <path id="DejaVuSans-32"/>
     <path d="M 10.59375 45.40625 
L 73.1875 45.40625 
L 73.1875 37.203125 
L 10.59375 37.203125 
z
M 10.59375 25.484375 
L 73.1875 25.484375 
L 73.1875 17.1875 
L 10.59375 17.1875 
z
" id="DejaVuSans-61"/>
     <path d="M 12.40625 8.296875 
L 28.515625 8.296875 
L 28.515625 63.921875 
L 10.984375 60.40625 
L 10.984375 69.390625 
L 28.421875 72.90625 
L 38.28125 72.90625 
L 38.28125 8.296875 
L 54.390625 8.296875 
L 54.390625 0 
L 12.40625 0 
z
" id="DejaVuSans-49"/>
     <path d="M 10.6875 12.40625 
L 21 12.40625 
L 21 0 
L 10.6875 0 
z
" id="DejaVuSans-46"/>
     <path d="M 33.015625 40.375 
Q 26.375 40.375 22.484375 35.828125 
Q 18.609375 31.296875 18.609375 23.390625 
Q 18.609375 15.53125 22.484375 10.953125 
Q 26.375 6.390625 33.015625 6.390625 
Q 39.65625 6.390625 43.53125 10.953125 
Q 47.40625 15.53125 47.40625 23.390625 
Q 47.40625 31.296875 43.53125 35.828125 
Q 39.65625 40.375 33.015625 40.375 
z
M 52.59375 71.296875 
L 52.59375 62.3125 
Q 48.875 64.0625 45.09375 64.984375 
Q 41.3125 65.921875 37.59375 65.921875 
Q 27.828125 65.921875 22.671875 59.328125 
Q 17.53125 52.734375 16.796875 39.40625 
Q 19.671875 43.65625 24.015625 45.921875 
Q 28.375 48.1875 33.59375 48.1875 
Q 44.578125 48.1875 50.953125 41.515625 
Q 57.328125 34.859375 57.328125 23.390625 
Q 57.328125 12.15625 50.6875 5.359375 
Q 44.046875 -1.421875 33.015625 -1.421875 
Q 20.359375 -1.421875 13.671875 8.265625 
Q 6.984375 17.96875 6.984375 36.375 
Q 6.984375 53.65625 15.1875 63.9375 
Q 23.390625 74.21875 37.203125 74.21875 
Q 40.921875 74.21875 44.703125 73.484375 
Q 48.484375 72.75 52.59375 71.296875 
z
" id="DejaVuSans-54"/>
    </defs>
    <g transform="translate(200.664375 28.56)scale(0.12 -0.12)">
     <use xlink:href="#DejaVuSans-116"/>
     <use x="39.208984" xlink:href="#DejaVuSans-32"/>
     <use x="70.996094" xlink:href="#DejaVuSans-61"/>
     <use x="154.785156" xlink:href="#DejaVuSans-32"/>
     <use x="186.572266" xlink:href="#DejaVuSans-49"/>
     <use x="250.195312" xlink:href="#DejaVuSans-46"/>
     <use x="281.982422" xlink:href="#DejaVuSans-54"/>
    </g>
   </g>
  </g>
 </g>
 <defs>
  <clipPath id="p56495e3432">
   <rect height="217.44" width="334.8" x="54" y="34.56"/>
  </clipPath>
 </defs>
</svg>
