<?xml version="1.0" encoding="utf-8" standalone="no"?>
<!DOCTYPE svg PUBLIC "-//W3C//DTD SVG 1.1//EN"
  "http://www.w3.org/Graphics/SVG/1.1/DTD/svg11.dtd">
<!-- Created with matplotlib (https://matplotlib.org/) -->
<svg height="288pt" version="1.1" viewBox="0 0 432 288" width="432pt" xmlns="http://www.w3.org/2000/svg" xmlns:xlink="http://www.w3.org/1999/xlink">
 <defs>
  <style type="text/css">
*{stroke-linecap:butt;stroke-linejoin:round;}
  </style>
 </defs>
 <g id="figure_1">
  <g id="patch_1">
   <path d="M 0 288 
L 432 288 
L 432 0 
L 0 0 
z
" style="fill:#ffffff;"/>
  </g>
  <g id="axes_1">
   <g id="patch_2">
    <path clip-path="url(#p9bc9fa6f70)" d="M 195.165739 129.334568 
L 194.917898 140.203743 
L 193.83098 140.178959 
L 194.078821 129.309784 
z
" style="stroke:#000000;stroke-linejoin:miter;"/>
   </g>
   <g id="patch_3">
    <path clip-path="url(#p9bc9fa6f70)" d="M 249.511612 130.573773 
L 249.263771 141.442948 
L 248.176854 141.418164 
L 248.424695 130.548989 
z
" style="stroke:#000000;stroke-linejoin:miter;"/>
   </g>
   <g id="patch_4">
    <path clip-path="url(#p9bc9fa6f70)" d="M 212.737571 129.735245 
L 212.601418 129.18045 
L 212.169432 128.654996 
L 211.448131 128.192757 
L 210.44886 127.823151 
L 209.18764 127.569229 
L 207.68493 127.446186 
L 205.965305 127.460388 
L 204.057059 127.608987 
L 201.991742 127.880137 
L 199.803621 128.253803 
L 197.529098 128.703109 
L 195.206079 129.196138 
L 192.873319 129.698059 
L 190.569742 130.173452 
L 188.33376 130.588658 
L 186.20261 130.914035 
L 184.211702 131.125928 
L 182.394014 131.20826 
L 180.779532 131.153617 
L 179.394744 130.963771 
L 178.262212 130.649587 
L 177.400211 130.230345 
L 176.822449 129.732494 
L 176.53787 129.18794 
L 176.550547 128.631973 
L 176.859651 128.100957 
L 177.459506 127.629958 
L 178.33972 127.250442 
L 179.485396 126.988206 
L 180.877397 126.861677 
L 182.492693 126.88068 
L 184.304738 127.045777 
L 186.283919 127.348197 
L 188.398023 127.770375 
L 190.612755 128.287068 
L 192.89227 128.866965 
L 195.199728 129.474694 
L 197.497859 130.073095 
L 199.749539 130.625608 
L 201.918354 131.098622 
L 203.969165 131.463628 
L 205.868654 131.699053 
L 207.585845 131.791622 
L 209.092602 131.737201 
L 210.364084 131.54103 
L 211.379163 131.217355 
L 212.120784 130.788474 
L 212.576272 130.283257 
z
" style="fill:#0000ff;stroke:#000000;stroke-linejoin:miter;"/>
   </g>
   <g id="patch_5">
    <path clip-path="url(#p9bc9fa6f70)" d="M 267.083445 130.97445 
L 266.947291 130.419655 
L 266.515305 129.894201 
L 265.794004 129.431962 
L 264.794733 129.062356 
L 263.533514 128.808434 
L 262.030804 128.685391 
L 260.311178 128.699593 
L 258.402933 128.848192 
L 256.337616 129.119342 
L 254.149495 129.493008 
L 251.874971 129.942314 
L 249.551953 130.435343 
L 247.219193 130.937265 
L 244.915615 131.412657 
L 242.679633 131.827864 
L 240.548483 132.153241 
L 238.557575 132.365134 
L 236.739888 132.447465 
L 235.125405 132.392822 
L 233.740618 132.202976 
L 232.608086 131.888792 
L 231.746085 131.46955 
L 231.168322 130.971699 
L 230.883743 130.427146 
L 230.896421 129.871178 
L 231.205525 129.340162 
L 231.805379 128.869163 
L 232.685594 128.489647 
L 233.831269 128.227412 
L 235.223271 128.100882 
L 236.838566 128.119885 
L 238.650612 128.284983 
L 240.629792 128.587402 
L 242.743896 129.009581 
L 244.958629 129.526273 
L 247.238144 130.10617 
L 249.545601 130.713899 
L 251.843733 131.3123 
L 254.095412 131.864814 
L 256.264227 132.337827 
L 258.315039 132.702834 
L 260.214527 132.938258 
L 261.931718 133.030827 
L 263.438475 132.976406 
L 264.709958 132.780235 
L 265.725037 132.45656 
L 266.466658 132.027679 
L 266.922145 131.522462 
z
" style="fill:#0000ff;stroke:#000000;stroke-linejoin:miter;"/>
   </g>
   <g id="patch_6">
    <path clip-path="url(#p9bc9fa6f70)" d="M 254.21686 138.837183 
L 189.001812 137.350137 
L 188.877891 142.784724 
L 254.092939 144.27177 
z
" style="fill:#999999;stroke:#000000;stroke-linejoin:miter;"/>
   </g>
   <g id="text_1">
    <!-- t = 1.1 -->
    <defs>
     <path d="M 18.3125 70.21875 
L 18.3125 54.6875 
L 36.8125 54.6875 
L 36.8125 47.703125 
L 18.3125 47.703125 
L 18.3125 18.015625 
Q 18.3125 11.328125 20.140625 9.421875 
Q 21.96875 7.515625 27.59375 7.515625 
L 36.8125 7.515625 
L 36.8125 0 
L 27.59375 0 
Q 17.1875 0 13.234375 3.875 
Q 9.28125 7.765625 9.28125 18.015625 
L 9.28125 47.703125 
L 2.6875 47.703125 
L 2.6875 54.6875 
L 9.28125 54.6875 
L 9.28125 70.21875 
z
" id="DejaVuSans-116"/>
     <path id="DejaVuSans-32"/>
     <path d="M 10.59375 45.40625 
L 73.1875 45.40625 
L 73.1875 37.203125 
L 10.59375 37.203125 
z
M 10.59375 25.484375 
L 73.1875 25.484375 
L 73.1875 17.1875 
L 10.59375 17.1875 
z
" id="DejaVuSans-61"/>
     <path d="M 12.40625 8.296875 
L 28.515625 8.296875 
L 28.515625 63.921875 
L 10.984375 60.40625 
L 10.984375 69.390625 
L 28.421875 72.90625 
L 38.28125 72.90625 
L 38.28125 8.296875 
L 54.390625 8.296875 
L 54.390625 0 
L 12.40625 0 
z
" id="DejaVuSans-49"/>
     <path d="M 10.6875 12.40625 
L 21 12.40625 
L 21 0 
L 10.6875 0 
z
" id="DejaVuSans-46"/>
    </defs>
    <g transform="translate(200.664375 28.56)scale(0.12 -0.12)">
     <use xlink:href="#DejaVuSans-116"/>
     <use x="39.208984" xlink:href="#DejaVuSans-32"/>
     <use x="70.996094" xlink:href="#DejaVuSans-61"/>
     <use x="154.785156" xlink:href="#DejaVuSans-32"/>
     <use x="186.572266" xlink:href="#DejaVuSans-49"/>
     <use x="250.195312" xlink:href="#DejaVuSans-46"/>
     <use x="281.982422" xlink:href="#DejaVuSans-49"/>
    </g>
   </g>
  </g>
 </g>
 <defs>
  <clipPath id="p9bc9fa6f70">
   <rect height="217.44" width="334.8" x="54" y="34.56"/>
  </clipPath>
 </defs>
</svg>
