<?xml version="1.0" encoding="utf-8" standalone="no"?>
<!DOCTYPE svg PUBLIC "-//W3C//DTD SVG 1.1//EN"
  "http://www.w3.org/Graphics/SVG/1.1/DTD/svg11.dtd">
<!-- Created with matplotlib (https://matplotlib.org/) -->
<svg height="288pt" version="1.1" viewBox="0 0 432 288" width="432pt" xmlns="http://www.w3.org/2000/svg" xmlns:xlink="http://www.w3.org/1999/xlink">
 <defs>
  <style type="text/css">
*{stroke-linecap:butt;stroke-linejoin:round;}
  </style>
 </defs>
 <g id="figure_1">
  <g id="patch_1">
   <path d="M 0 288 
L 432 288 
L 432 0 
L 0 0 
z
" style="fill:#ffffff;"/>
  </g>
  <g id="axes_1">
   <g id="patch_2">
    <path clip-path="url(#p229e34729b)" d="M 194.74331 132.411765 
L 194.745215 143.283765 
L 193.658015 143.283955 
L 193.65611 132.411955 
z
" style="stroke:#000000;stroke-linejoin:miter;"/>
   </g>
   <g id="patch_3">
    <path clip-path="url(#p229e34729b)" d="M 249.103309 132.402238 
L 249.105214 143.274238 
L 248.018014 143.274429 
L 248.016109 132.402429 
z
" style="stroke:#000000;stroke-linejoin:miter;"/>
   </g>
   <g id="patch_4">
    <path clip-path="url(#p229e34729b)" d="M 212.319709 132.408685 
L 212.170848 131.857164 
L 211.726905 131.341772 
L 210.995176 130.896225 
L 209.987678 130.549671 
L 208.720959 130.324788 
L 207.215819 130.236296 
L 205.496973 130.289997 
L 203.592645 130.482393 
L 201.534102 130.800914 
L 199.355142 131.224746 
L 197.09154 131.726182 
L 194.78046 132.272444 
L 192.459845 132.82782 
L 190.167796 133.356004 
L 187.941942 133.822465 
L 185.818828 134.196712 
L 183.833313 134.454283 
L 182.017997 134.578347 
L 180.402685 134.560806 
L 179.013902 134.40282 
L 177.874452 134.114736 
L 177.003048 133.715406 
L 176.414001 133.230958 
L 176.116988 132.693085 
L 176.116891 132.136973 
L 176.413715 131.598997 
L 177.002592 131.114343 
L 177.873856 130.714707 
L 179.013205 130.426223 
L 180.401933 130.26775 
L 182.017238 130.249643 
L 183.832598 130.373071 
L 185.818203 130.629947 
L 187.941448 131.003449 
L 190.167465 131.46913 
L 192.4597 131.99651 
L 194.780509 132.551073 
L 197.09178 133.096525 
L 199.355557 133.597168 
L 201.534666 134.020235 
L 203.593321 134.338036 
L 205.497716 134.529764 
L 207.21658 134.582862 
L 208.72169 134.493843 
L 209.98833 134.268516 
L 210.995706 133.921609 
L 211.727279 133.475805 
L 212.171041 132.960257 
z
" style="fill:#0000ff;stroke:#000000;stroke-linejoin:miter;"/>
   </g>
   <g id="patch_5">
    <path clip-path="url(#p229e34729b)" d="M 266.679708 132.399158 
L 266.530847 131.847637 
L 266.086904 131.332246 
L 265.355175 130.886698 
L 264.347678 130.540144 
L 263.080958 130.315261 
L 261.575818 130.22677 
L 259.856972 130.28047 
L 257.952644 130.472866 
L 255.894101 130.791388 
L 253.715141 131.215219 
L 251.451539 131.716655 
L 249.140459 132.262917 
L 246.819844 132.818294 
L 244.527795 133.346477 
L 242.301941 133.812938 
L 240.178828 134.187185 
L 238.193313 134.444756 
L 236.377996 134.568821 
L 234.762684 134.55128 
L 233.373901 134.393294 
L 232.234451 134.105209 
L 231.363047 133.705879 
L 230.774 133.221431 
L 230.476987 132.683559 
L 230.47689 132.127446 
L 230.773714 131.58947 
L 231.362591 131.104816 
L 232.233855 130.70518 
L 233.373204 130.416696 
L 234.761932 130.258224 
L 236.377238 130.240116 
L 238.192597 130.363545 
L 240.178203 130.62042 
L 242.301447 130.993922 
L 244.527464 131.459603 
L 246.819699 131.986983 
L 249.140508 132.541546 
L 251.451779 133.086998 
L 253.715556 133.587641 
L 255.894665 134.010709 
L 257.95332 134.328509 
L 259.857715 134.520237 
L 261.57658 134.573335 
L 263.081689 134.484316 
L 264.348329 134.258989 
L 265.355705 133.912082 
L 266.087278 133.466278 
L 266.53104 132.950731 
z
" style="fill:#0000ff;stroke:#000000;stroke-linejoin:miter;"/>
   </g>
   <g id="patch_6">
    <path clip-path="url(#p229e34729b)" d="M 253.997138 140.555381 
L 188.765139 140.566813 
L 188.766091 146.002813 
L 253.99809 145.991381 
z
" style="fill:#999999;stroke:#000000;stroke-linejoin:miter;"/>
   </g>
   <g id="text_1">
    <!-- t = 3.1 -->
    <defs>
     <path d="M 18.3125 70.21875 
L 18.3125 54.6875 
L 36.8125 54.6875 
L 36.8125 47.703125 
L 18.3125 47.703125 
L 18.3125 18.015625 
Q 18.3125 11.328125 20.140625 9.421875 
Q 21.96875 7.515625 27.59375 7.515625 
L 36.8125 7.515625 
L 36.8125 0 
L 27.59375 0 
Q 17.1875 0 13.234375 3.875 
Q 9.28125 7.765625 9.28125 18.015625 
L 9.28125 47.703125 
L 2.6875 47.703125 
L 2.6875 54.6875 
L 9.28125 54.6875 
L 9.28125 70.21875 
z
" id="DejaVuSans-116"/>
     <path id="DejaVuSans-32"/>
     <path d="M 10.59375 45.40625 
L 73.1875 45.40625 
L 73.1875 37.203125 
L 10.59375 37.203125 
z
M 10.59375 25.484375 
L 73.1875 25.484375 
L 73.1875 17.1875 
L 10.59375 17.1875 
z
" id="DejaVuSans-61"/>
     <path d="M 40.578125 39.3125 
Q 47.65625 37.796875 51.625 33 
Q 55.609375 28.21875 55.609375 21.1875 
Q 55.609375 10.40625 48.1875 4.484375 
Q 40.765625 -1.421875 27.09375 -1.421875 
Q 22.515625 -1.421875 17.65625 -0.515625 
Q 12.796875 0.390625 7.625 2.203125 
L 7.625 11.71875 
Q 11.71875 9.328125 16.59375 8.109375 
Q 21.484375 6.890625 26.8125 6.890625 
Q 36.078125 6.890625 40.9375 10.546875 
Q 45.796875 14.203125 45.796875 21.1875 
Q 45.796875 27.640625 41.28125 31.265625 
Q 36.765625 34.90625 28.71875 34.90625 
L 20.21875 34.90625 
L 20.21875 43.015625 
L 29.109375 43.015625 
Q 36.375 43.015625 40.234375 45.921875 
Q 44.09375 48.828125 44.09375 54.296875 
Q 44.09375 59.90625 40.109375 62.90625 
Q 36.140625 65.921875 28.71875 65.921875 
Q 24.65625 65.921875 20.015625 65.03125 
Q 15.375 64.15625 9.8125 62.3125 
L 9.8125 71.09375 
Q 15.4375 72.65625 20.34375 73.4375 
Q 25.25 74.21875 29.59375 74.21875 
Q 40.828125 74.21875 47.359375 69.109375 
Q 53.90625 64.015625 53.90625 55.328125 
Q 53.90625 49.265625 50.4375 45.09375 
Q 46.96875 40.921875 40.578125 39.3125 
z
" id="DejaVuSans-51"/>
     <path d="M 10.6875 12.40625 
L 21 12.40625 
L 21 0 
L 10.6875 0 
z
" id="DejaVuSans-46"/>
     <path d="M 12.40625 8.296875 
L 28.515625 8.296875 
L 28.515625 63.921875 
L 10.984375 60.40625 
L 10.984375 69.390625 
L 28.421875 72.90625 
L 38.28125 72.90625 
L 38.28125 8.296875 
L 54.390625 8.296875 
L 54.390625 0 
L 12.40625 0 
z
" id="DejaVuSans-49"/>
    </defs>
    <g transform="translate(200.664375 28.56)scale(0.12 -0.12)">
     <use xlink:href="#DejaVuSans-116"/>
     <use x="39.208984" xlink:href="#DejaVuSans-32"/>
     <use x="70.996094" xlink:href="#DejaVuSans-61"/>
     <use x="154.785156" xlink:href="#DejaVuSans-32"/>
     <use x="186.572266" xlink:href="#DejaVuSans-51"/>
     <use x="250.195312" xlink:href="#DejaVuSans-46"/>
     <use x="281.982422" xlink:href="#DejaVuSans-49"/>
    </g>
   </g>
  </g>
 </g>
 <defs>
  <clipPath id="p229e34729b">
   <rect height="217.44" width="334.8" x="54" y="34.56"/>
  </clipPath>
 </defs>
</svg>
