<?xml version="1.0" encoding="utf-8" standalone="no"?>
<!DOCTYPE svg PUBLIC "-//W3C//DTD SVG 1.1//EN"
  "http://www.w3.org/Graphics/SVG/1.1/DTD/svg11.dtd">
<!-- Created with matplotlib (https://matplotlib.org/) -->
<svg height="288pt" version="1.1" viewBox="0 0 432 288" width="432pt" xmlns="http://www.w3.org/2000/svg" xmlns:xlink="http://www.w3.org/1999/xlink">
 <defs>
  <style type="text/css">
*{stroke-linecap:butt;stroke-linejoin:round;}
  </style>
 </defs>
 <g id="figure_1">
  <g id="patch_1">
   <path d="M 0 288 
L 432 288 
L 432 0 
L 0 0 
z
" style="fill:#ffffff;"/>
  </g>
  <g id="axes_1">
   <g id="patch_2">
    <path clip-path="url(#pfe2b41b406)" d="M 192.708514 133.033429 
L 192.77479 143.905227 
L 191.68761 143.911854 
L 191.621334 133.040056 
z
" style="stroke:#000000;stroke-linejoin:miter;"/>
   </g>
   <g id="patch_3">
    <path clip-path="url(#pfe2b41b406)" d="M 247.067504 132.702047 
L 247.13378 143.573845 
L 246.0466 143.580473 
L 245.980324 132.708675 
z
" style="stroke:#000000;stroke-linejoin:miter;"/>
   </g>
   <g id="patch_4">
    <path clip-path="url(#pfe2b41b406)" d="M 210.284587 132.926282 
L 210.132463 132.375653 
L 209.685476 131.862898 
L 208.951122 131.421691 
L 207.94159 131.081108 
L 206.673561 130.863729 
L 205.167924 130.784151 
L 203.449426 130.848028 
L 201.546271 131.051695 
L 199.489649 131.382399 
L 197.313237 131.819124 
L 195.052643 132.333954 
L 192.744838 132.89389 
L 190.427553 133.462997 
L 188.138671 134.004741 
L 185.915618 134.484373 
L 183.794757 134.871184 
L 181.810802 135.140507 
L 179.996252 135.275317 
L 178.380865 135.26734 
L 176.99117 135.11758 
L 175.850035 134.836247 
L 174.976281 134.442083 
L 174.384377 133.961131 
L 174.084184 133.425027 
L 174.080794 132.868925 
L 174.374428 132.3292 
L 174.960425 131.841068 
L 175.829308 131.436281 
L 176.966929 131.141056 
L 178.354694 130.974364 
L 179.969864 130.946693 
L 181.785923 131.059371 
L 183.773014 131.304485 
L 185.898433 131.66541 
L 188.127168 132.117903 
L 190.422485 132.631702 
L 192.746537 133.172514 
L 195.060997 133.704272 
L 197.327699 134.191502 
L 199.509274 134.60166 
L 201.569775 134.907266 
L 203.475272 135.087715 
L 205.194421 135.130636 
L 206.698976 135.032707 
L 207.96426 134.799884 
L 208.969565 134.447019 
L 209.698486 133.996891 
L 210.139187 133.478725 
z
" style="fill:#0000ff;stroke:#000000;stroke-linejoin:miter;"/>
   </g>
   <g id="patch_5">
    <path clip-path="url(#pfe2b41b406)" d="M 264.643577 132.594901 
L 264.491453 132.044271 
L 264.044466 131.531517 
L 263.310112 131.090309 
L 262.30058 130.749727 
L 261.032551 130.532348 
L 259.526914 130.452769 
L 257.808416 130.516646 
L 255.90526 130.720313 
L 253.848639 131.051018 
L 251.672227 131.487743 
L 249.411633 132.002573 
L 247.103828 132.562509 
L 244.786543 133.131615 
L 242.497661 133.67336 
L 240.274608 134.152992 
L 238.153747 134.539803 
L 236.169792 134.809125 
L 234.355242 134.943936 
L 232.739855 134.935959 
L 231.35016 134.786199 
L 230.209025 134.504865 
L 229.335271 134.110702 
L 228.743367 133.62975 
L 228.443174 133.093645 
L 228.439784 132.537544 
L 228.733418 131.997819 
L 229.319415 131.509687 
L 230.188298 131.1049 
L 231.325919 130.809675 
L 232.713684 130.642983 
L 234.328854 130.615312 
L 236.144913 130.727989 
L 238.132004 130.973104 
L 240.257423 131.334029 
L 242.486158 131.786522 
L 244.781475 132.30032 
L 247.105527 132.841132 
L 249.419987 133.37289 
L 251.686689 133.860121 
L 253.868264 134.270279 
L 255.928765 134.575885 
L 257.834262 134.756334 
L 259.553411 134.799254 
L 261.057966 134.701325 
L 262.32325 134.468503 
L 263.328555 134.115637 
L 264.057476 133.66551 
L 264.498177 133.147344 
z
" style="fill:#0000ff;stroke:#000000;stroke-linejoin:miter;"/>
   </g>
   <g id="patch_6">
    <path clip-path="url(#pfe2b41b406)" d="M 252.00952 140.826071 
L 186.778732 141.223729 
L 186.81187 146.659628 
L 252.042658 146.26197 
z
" style="fill:#999999;stroke:#000000;stroke-linejoin:miter;"/>
   </g>
   <g id="text_1">
    <!-- t = 1.9 -->
    <defs>
     <path d="M 18.3125 70.21875 
L 18.3125 54.6875 
L 36.8125 54.6875 
L 36.8125 47.703125 
L 18.3125 47.703125 
L 18.3125 18.015625 
Q 18.3125 11.328125 20.140625 9.421875 
Q 21.96875 7.515625 27.59375 7.515625 
L 36.8125 7.515625 
L 36.8125 0 
L 27.59375 0 
Q 17.1875 0 13.234375 3.875 
Q 9.28125 7.765625 9.28125 18.015625 
L 9.28125 47.703125 
L 2.6875 47.703125 
L 2.6875 54.6875 
L 9.28125 54.6875 
L 9.28125 70.21875 
z
" id="DejaVuSans-116"/>
     <path id="DejaVuSans-32"/>
     <path d="M 10.59375 45.40625 
L 73.1875 45.40625 
L 73.1875 37.203125 
L 10.59375 37.203125 
z
M 10.59375 25.484375 
L 73.1875 25.484375 
L 73.1875 17.1875 
L 10.59375 17.1875 
z
" id="DejaVuSans-61"/>
     <path d="M 12.40625 8.296875 
L 28.515625 8.296875 
L 28.515625 63.921875 
L 10.984375 60.40625 
L 10.984375 69.390625 
L 28.421875 72.90625 
L 38.28125 72.90625 
L 38.28125 8.296875 
L 54.390625 8.296875 
L 54.390625 0 
L 12.40625 0 
z
" id="DejaVuSans-49"/>
     <path d="M 10.6875 12.40625 
L 21 12.40625 
L 21 0 
L 10.6875 0 
z
" id="DejaVuSans-46"/>
     <path d="M 10.984375 1.515625 
L 10.984375 10.5 
Q 14.703125 8.734375 18.5 7.8125 
Q 22.3125 6.890625 25.984375 6.890625 
Q 35.75 6.890625 40.890625 13.453125 
Q 46.046875 20.015625 46.78125 33.40625 
Q 43.953125 29.203125 39.59375 26.953125 
Q 35.25 24.703125 29.984375 24.703125 
Q 19.046875 24.703125 12.671875 31.3125 
Q 6.296875 37.9375 6.296875 49.421875 
Q 6.296875 60.640625 12.9375 67.421875 
Q 19.578125 74.21875 30.609375 74.21875 
Q 43.265625 74.21875 49.921875 64.515625 
Q 56.59375 54.828125 56.59375 36.375 
Q 56.59375 19.140625 48.40625 8.859375 
Q 40.234375 -1.421875 26.421875 -1.421875 
Q 22.703125 -1.421875 18.890625 -0.6875 
Q 15.09375 0.046875 10.984375 1.515625 
z
M 30.609375 32.421875 
Q 37.25 32.421875 41.125 36.953125 
Q 45.015625 41.5 45.015625 49.421875 
Q 45.015625 57.28125 41.125 61.84375 
Q 37.25 66.40625 30.609375 66.40625 
Q 23.96875 66.40625 20.09375 61.84375 
Q 16.21875 57.28125 16.21875 49.421875 
Q 16.21875 41.5 20.09375 36.953125 
Q 23.96875 32.421875 30.609375 32.421875 
z
" id="DejaVuSans-57"/>
    </defs>
    <g transform="translate(200.664375 28.56)scale(0.12 -0.12)">
     <use xlink:href="#DejaVuSans-116"/>
     <use x="39.208984" xlink:href="#DejaVuSans-32"/>
     <use x="70.996094" xlink:href="#DejaVuSans-61"/>
     <use x="154.785156" xlink:href="#DejaVuSans-32"/>
     <use x="186.572266" xlink:href="#DejaVuSans-49"/>
     <use x="250.195312" xlink:href="#DejaVuSans-46"/>
     <use x="281.982422" xlink:href="#DejaVuSans-57"/>
    </g>
   </g>
  </g>
 </g>
 <defs>
  <clipPath id="pfe2b41b406">
   <rect height="217.44" width="334.8" x="54" y="34.56"/>
  </clipPath>
 </defs>
</svg>
