<?xml version="1.0" encoding="utf-8" standalone="no"?>
<!DOCTYPE svg PUBLIC "-//W3C//DTD SVG 1.1//EN"
  "http://www.w3.org/Graphics/SVG/1.1/DTD/svg11.dtd">
<!-- Created with matplotlib (https://matplotlib.org/) -->
<svg height="288pt" version="1.1" viewBox="0 0 432 288" width="432pt" xmlns="http://www.w3.org/2000/svg" xmlns:xlink="http://www.w3.org/1999/xlink">
 <defs>
  <style type="text/css">
*{stroke-linecap:butt;stroke-linejoin:round;}
  </style>
 </defs>
 <g id="figure_1">
  <g id="patch_1">
   <path d="M 0 288 
L 432 288 
L 432 0 
L 0 0 
z
" style="fill:#ffffff;"/>
  </g>
  <g id="axes_1">
   <g id="patch_2">
    <path clip-path="url(#p4bff078ec1)" d="M 194.865324 132.388081 
L 194.848231 143.260068 
L 193.761033 143.258359 
L 193.778126 132.386372 
z
" style="stroke:#000000;stroke-linejoin:miter;"/>
   </g>
   <g id="patch_3">
    <path clip-path="url(#p4bff078ec1)" d="M 249.225257 132.473547 
L 249.208164 143.345533 
L 248.120965 143.343824 
L 248.138058 132.471837 
z
" style="stroke:#000000;stroke-linejoin:miter;"/>
   </g>
   <g id="patch_4">
    <path clip-path="url(#p4bff078ec1)" d="M 212.441703 132.415715 
L 212.293805 131.863935 
L 211.850764 131.347768 
L 211.119814 130.900943 
L 210.112924 130.552629 
L 208.846599 130.325533 
L 207.341616 130.234411 
L 205.622679 130.285108 
L 203.718018 130.474176 
L 201.658921 130.7891 
L 199.479223 131.209123 
L 197.214749 131.706603 
L 194.902718 132.248826 
L 192.581136 132.800146 
L 190.288167 133.324323 
L 188.061502 133.786894 
L 185.937738 134.15743 
L 183.951776 134.411531 
L 182.136245 134.532423 
L 180.520966 134.51206 
L 179.132461 134.351647 
L 177.993516 134.061572 
L 177.122811 133.660719 
L 176.534612 133.175243 
L 176.23854 132.636852 
L 176.239414 132.080741 
L 176.537178 131.543284 
L 177.126901 131.05966 
L 177.998862 130.661547 
L 179.138713 130.375054 
L 180.527716 130.219009 
L 182.143051 130.203724 
L 183.958192 130.330325 
L 185.943345 130.590669 
L 188.065934 130.967882 
L 190.291134 131.437452 
L 192.582443 131.968836 
L 194.90228 132.527454 
L 197.212594 133.076944 
L 199.475493 133.581542 
L 201.653859 134.008417 
L 203.711956 134.329814 
L 205.616013 134.52487 
L 207.334782 134.580971 
L 208.840045 134.494582 
L 210.107077 134.271469 
L 211.115058 133.926323 
L 211.847409 133.481798 
L 212.292071 132.967027 
z
" style="fill:#0000ff;stroke:#000000;stroke-linejoin:miter;"/>
   </g>
   <g id="patch_5">
    <path clip-path="url(#p4bff078ec1)" d="M 266.801635 132.50118 
L 266.653738 131.949401 
L 266.210697 131.433234 
L 265.479747 130.986408 
L 264.472857 130.638094 
L 263.206532 130.410998 
L 261.701549 130.319877 
L 259.982612 130.370574 
L 258.07795 130.559641 
L 256.018854 130.874565 
L 253.839156 131.294588 
L 251.574682 131.792068 
L 249.262651 132.334291 
L 246.941069 132.885611 
L 244.6481 133.409788 
L 242.421435 133.872359 
L 240.29767 134.242895 
L 238.311708 134.496997 
L 236.496178 134.617889 
L 234.880899 134.597525 
L 233.492394 134.437113 
L 232.353449 134.147037 
L 231.482744 133.746185 
L 230.894545 133.260708 
L 230.598472 132.722318 
L 230.599347 132.166206 
L 230.897111 131.628749 
L 231.486834 131.145125 
L 232.358795 130.747013 
L 233.498646 130.46052 
L 234.887649 130.304474 
L 236.502984 130.28919 
L 238.318125 130.41579 
L 240.303278 130.676135 
L 242.425867 131.053347 
L 244.651067 131.522917 
L 246.942376 132.054302 
L 249.262213 132.612919 
L 251.572527 133.162409 
L 253.835426 133.667007 
L 256.013792 134.093882 
L 258.071889 134.415279 
L 259.975946 134.610335 
L 261.694715 134.666437 
L 263.199977 134.580048 
L 264.46701 134.356935 
L 265.47499 134.011789 
L 266.207341 133.567264 
L 266.652003 133.052492 
z
" style="fill:#0000ff;stroke:#000000;stroke-linejoin:miter;"/>
   </g>
   <g id="patch_6">
    <path clip-path="url(#p4bff078ec1)" d="M 254.104831 140.635228 
L 188.872912 140.53267 
L 188.864365 145.968663 
L 254.096285 146.071222 
z
" style="fill:#999999;stroke:#000000;stroke-linejoin:miter;"/>
   </g>
   <g id="text_1">
    <!-- t = 2.6 -->
    <defs>
     <path d="M 18.3125 70.21875 
L 18.3125 54.6875 
L 36.8125 54.6875 
L 36.8125 47.703125 
L 18.3125 47.703125 
L 18.3125 18.015625 
Q 18.3125 11.328125 20.140625 9.421875 
Q 21.96875 7.515625 27.59375 7.515625 
L 36.8125 7.515625 
L 36.8125 0 
L 27.59375 0 
Q 17.1875 0 13.234375 3.875 
Q 9.28125 7.765625 9.28125 18.015625 
L 9.28125 47.703125 
L 2.6875 47.703125 
L 2.6875 54.6875 
L 9.28125 54.6875 
L 9.28125 70.21875 
z
" id="DejaVuSans-116"/>
     <path id="DejaVuSans-32"/>
     <path d="M 10.59375 45.40625 
L 73.1875 45.40625 
L 73.1875 37.203125 
L 10.59375 37.203125 
z
M 10.59375 25.484375 
L 73.1875 25.484375 
L 73.1875 17.1875 
L 10.59375 17.1875 
z
" id="DejaVuSans-61"/>
     <path d="M 19.1875 8.296875 
L 53.609375 8.296875 
L 53.609375 0 
L 7.328125 0 
L 7.328125 8.296875 
Q 12.9375 14.109375 22.625 23.890625 
Q 32.328125 33.6875 34.8125 36.53125 
Q 39.546875 41.84375 41.421875 45.53125 
Q 43.3125 49.21875 43.3125 52.78125 
Q 43.3125 58.59375 39.234375 62.25 
Q 35.15625 65.921875 28.609375 65.921875 
Q 23.96875 65.921875 18.8125 64.3125 
Q 13.671875 62.703125 7.8125 59.421875 
L 7.8125 69.390625 
Q 13.765625 71.78125 18.9375 73 
Q 24.125 74.21875 28.421875 74.21875 
Q 39.75 74.21875 46.484375 68.546875 
Q 53.21875 62.890625 53.21875 53.421875 
Q 53.21875 48.921875 51.53125 44.890625 
Q 49.859375 40.875 45.40625 35.40625 
Q 44.1875 33.984375 37.640625 27.21875 
Q 31.109375 20.453125 19.1875 8.296875 
z
" id="DejaVuSans-50"/>
     <path d="M 10.6875 12.40625 
L 21 12.40625 
L 21 0 
L 10.6875 0 
z
" id="DejaVuSans-46"/>
     <path d="M 33.015625 40.375 
Q 26.375 40.375 22.484375 35.828125 
Q 18.609375 31.296875 18.609375 23.390625 
Q 18.609375 15.53125 22.484375 10.953125 
Q 26.375 6.390625 33.015625 6.390625 
Q 39.65625 6.390625 43.53125 10.953125 
Q 47.40625 15.53125 47.40625 23.390625 
Q 47.40625 31.296875 43.53125 35.828125 
Q 39.65625 40.375 33.015625 40.375 
z
M 52.59375 71.296875 
L 52.59375 62.3125 
Q 48.875 64.0625 45.09375 64.984375 
Q 41.3125 65.921875 37.59375 65.921875 
Q 27.828125 65.921875 22.671875 59.328125 
Q 17.53125 52.734375 16.796875 39.40625 
Q 19.671875 43.65625 24.015625 45.921875 
Q 28.375 48.1875 33.59375 48.1875 
Q 44.578125 48.1875 50.953125 41.515625 
Q 57.328125 34.859375 57.328125 23.390625 
Q 57.328125 12.15625 50.6875 5.359375 
Q 44.046875 -1.421875 33.015625 -1.421875 
Q 20.359375 -1.421875 13.671875 8.265625 
Q 6.984375 17.96875 6.984375 36.375 
Q 6.984375 53.65625 15.1875 63.9375 
Q 23.390625 74.21875 37.203125 74.21875 
Q 40.921875 74.21875 44.703125 73.484375 
Q 48.484375 72.75 52.59375 71.296875 
z
" id="DejaVuSans-54"/>
    </defs>
    <g transform="translate(200.664375 28.56)scale(0.12 -0.12)">
     <use xlink:href="#DejaVuSans-116"/>
     <use x="39.208984" xlink:href="#DejaVuSans-32"/>
     <use x="70.996094" xlink:href="#DejaVuSans-61"/>
     <use x="154.785156" xlink:href="#DejaVuSans-32"/>
     <use x="186.572266" xlink:href="#DejaVuSans-50"/>
     <use x="250.195312" xlink:href="#DejaVuSans-46"/>
     <use x="281.982422" xlink:href="#DejaVuSans-54"/>
    </g>
   </g>
  </g>
 </g>
 <defs>
  <clipPath id="p4bff078ec1">
   <rect height="217.44" width="334.8" x="54" y="34.56"/>
  </clipPath>
 </defs>
</svg>
