<?xml version="1.0" encoding="utf-8" standalone="no"?>
<!DOCTYPE svg PUBLIC "-//W3C//DTD SVG 1.1//EN"
  "http://www.w3.org/Graphics/SVG/1.1/DTD/svg11.dtd">
<!-- Created with matplotlib (https://matplotlib.org/) -->
<svg height="288pt" version="1.1" viewBox="0 0 432 288" width="432pt" xmlns="http://www.w3.org/2000/svg" xmlns:xlink="http://www.w3.org/1999/xlink">
 <defs>
  <style type="text/css">
*{stroke-linecap:butt;stroke-linejoin:round;}
  </style>
 </defs>
 <g id="figure_1">
  <g id="patch_1">
   <path d="M 0 288 
L 432 288 
L 432 0 
L 0 0 
z
" style="fill:#ffffff;"/>
  </g>
  <g id="axes_1">
   <g id="patch_2">
    <path clip-path="url(#p9d381e3ab6)" d="M 230.499861 92.844916 
L 227.723016 103.356315 
L 226.671876 103.078631 
L 229.448721 92.567232 
z
" style="stroke:#000000;stroke-linejoin:miter;"/>
   </g>
   <g id="patch_3">
    <path clip-path="url(#p9d381e3ab6)" d="M 283.056858 106.72914 
L 280.280013 117.240539 
L 279.228873 116.962855 
L 282.005718 106.451455 
z
" style="stroke:#000000;stroke-linejoin:miter;"/>
   </g>
   <g id="patch_4">
    <path clip-path="url(#p9d381e3ab6)" d="M 247.49329 97.334148 
L 247.490331 96.762899 
L 247.192858 96.151161 
L 246.599305 95.533394 
L 245.713842 94.940852 
L 244.54667 94.399688 
L 243.114136 93.929448 
L 241.438653 93.54206 
L 239.5484 93.241353 
L 237.476817 93.02317 
L 235.261903 92.876022 
L 232.945323 92.782268 
L 230.571385 92.719717 
L 228.1859 92.663541 
L 225.834981 92.588375 
L 223.563835 92.470456 
L 221.415585 92.289644 
L 219.430184 92.031199 
L 217.64345 91.687181 
L 216.08627 91.257378 
L 214.78399 90.749691 
L 213.756013 90.179951 
L 213.015612 89.571169 
L 212.569945 88.952261 
L 212.420268 88.356342 
L 212.562306 87.818675 
L 212.986769 87.374429 
L 213.679956 87.056377 
L 214.624423 86.892694 
L 215.799663 86.904988 
L 217.18277 87.106713 
L 218.749055 87.50205 
L 220.472576 88.085352 
L 222.326581 88.841181 
L 224.283847 89.744941 
L 226.316913 90.764085 
L 228.398227 91.859803 
L 230.50022 92.989104 
L 232.59532 94.10716 
L 234.655956 95.169756 
L 236.654563 96.135713 
L 238.56362 96.969113 
L 240.355763 97.641202 
L 242.003969 98.131848 
L 243.481841 98.430464 
L 244.764003 98.536351 
L 245.826584 98.458433 
L 246.647799 98.214412 
L 247.208587 97.829405 
z
" style="fill:#0000ff;stroke:#000000;stroke-linejoin:miter;"/>
   </g>
   <g id="patch_5">
    <path clip-path="url(#p9d381e3ab6)" d="M 300.050287 111.218372 
L 300.047328 110.647123 
L 299.749855 110.035385 
L 299.156302 109.417618 
L 298.270839 108.825076 
L 297.103667 108.283911 
L 295.671133 107.813672 
L 293.99565 107.426283 
L 292.105397 107.125577 
L 290.033814 106.907393 
L 287.8189 106.760245 
L 285.50232 106.666492 
L 283.128382 106.603941 
L 280.742897 106.547765 
L 278.391978 106.472599 
L 276.120832 106.35468 
L 273.972582 106.173867 
L 271.987181 105.915422 
L 270.200447 105.571404 
L 268.643267 105.141601 
L 267.340987 104.633914 
L 266.31301 104.064175 
L 265.572609 103.455392 
L 265.126942 102.836485 
L 264.977265 102.240565 
L 265.119303 101.702898 
L 265.543766 101.258652 
L 266.236953 100.940601 
L 267.18142 100.776918 
L 268.35666 100.789212 
L 269.739767 100.990936 
L 271.306052 101.386273 
L 273.029573 101.969576 
L 274.883578 102.725404 
L 276.840844 103.629165 
L 278.87391 104.648309 
L 280.955224 105.744027 
L 283.057217 106.873328 
L 285.152317 107.991383 
L 287.212953 109.053979 
L 289.21156 110.019936 
L 291.120617 110.853337 
L 292.912761 111.525426 
L 294.560966 112.016072 
L 296.038838 112.314688 
L 297.321 112.420575 
L 298.383581 112.342657 
L 299.204796 112.098636 
L 299.765584 111.713628 
z
" style="fill:#0000ff;stroke:#000000;stroke-linejoin:miter;"/>
   </g>
   <g id="patch_6">
    <path clip-path="url(#p9d381e3ab6)" d="M 285.704354 115.862269 
L 222.635958 99.201201 
L 221.247535 104.456901 
L 284.315932 121.117969 
z
" style="fill:#999999;stroke:#000000;stroke-linejoin:miter;"/>
   </g>
   <g id="text_1">
    <!-- t = 0.3 -->
    <defs>
     <path d="M 18.3125 70.21875 
L 18.3125 54.6875 
L 36.8125 54.6875 
L 36.8125 47.703125 
L 18.3125 47.703125 
L 18.3125 18.015625 
Q 18.3125 11.328125 20.140625 9.421875 
Q 21.96875 7.515625 27.59375 7.515625 
L 36.8125 7.515625 
L 36.8125 0 
L 27.59375 0 
Q 17.1875 0 13.234375 3.875 
Q 9.28125 7.765625 9.28125 18.015625 
L 9.28125 47.703125 
L 2.6875 47.703125 
L 2.6875 54.6875 
L 9.28125 54.6875 
L 9.28125 70.21875 
z
" id="DejaVuSans-116"/>
     <path id="DejaVuSans-32"/>
     <path d="M 10.59375 45.40625 
L 73.1875 45.40625 
L 73.1875 37.203125 
L 10.59375 37.203125 
z
M 10.59375 25.484375 
L 73.1875 25.484375 
L 73.1875 17.1875 
L 10.59375 17.1875 
z
" id="DejaVuSans-61"/>
     <path d="M 31.78125 66.40625 
Q 24.171875 66.40625 20.328125 58.90625 
Q 16.5 51.421875 16.5 36.375 
Q 16.5 21.390625 20.328125 13.890625 
Q 24.171875 6.390625 31.78125 6.390625 
Q 39.453125 6.390625 43.28125 13.890625 
Q 47.125 21.390625 47.125 36.375 
Q 47.125 51.421875 43.28125 58.90625 
Q 39.453125 66.40625 31.78125 66.40625 
z
M 31.78125 74.21875 
Q 44.046875 74.21875 50.515625 64.515625 
Q 56.984375 54.828125 56.984375 36.375 
Q 56.984375 17.96875 50.515625 8.265625 
Q 44.046875 -1.421875 31.78125 -1.421875 
Q 19.53125 -1.421875 13.0625 8.265625 
Q 6.59375 17.96875 6.59375 36.375 
Q 6.59375 54.828125 13.0625 64.515625 
Q 19.53125 74.21875 31.78125 74.21875 
z
" id="DejaVuSans-48"/>
     <path d="M 10.6875 12.40625 
L 21 12.40625 
L 21 0 
L 10.6875 0 
z
" id="DejaVuSans-46"/>
     <path d="M 40.578125 39.3125 
Q 47.65625 37.796875 51.625 33 
Q 55.609375 28.21875 55.609375 21.1875 
Q 55.609375 10.40625 48.1875 4.484375 
Q 40.765625 -1.421875 27.09375 -1.421875 
Q 22.515625 -1.421875 17.65625 -0.515625 
Q 12.796875 0.390625 7.625 2.203125 
L 7.625 11.71875 
Q 11.71875 9.328125 16.59375 8.109375 
Q 21.484375 6.890625 26.8125 6.890625 
Q 36.078125 6.890625 40.9375 10.546875 
Q 45.796875 14.203125 45.796875 21.1875 
Q 45.796875 27.640625 41.28125 31.265625 
Q 36.765625 34.90625 28.71875 34.90625 
L 20.21875 34.90625 
L 20.21875 43.015625 
L 29.109375 43.015625 
Q 36.375 43.015625 40.234375 45.921875 
Q 44.09375 48.828125 44.09375 54.296875 
Q 44.09375 59.90625 40.109375 62.90625 
Q 36.140625 65.921875 28.71875 65.921875 
Q 24.65625 65.921875 20.015625 65.03125 
Q 15.375 64.15625 9.8125 62.3125 
L 9.8125 71.09375 
Q 15.4375 72.65625 20.34375 73.4375 
Q 25.25 74.21875 29.59375 74.21875 
Q 40.828125 74.21875 47.359375 69.109375 
Q 53.90625 64.015625 53.90625 55.328125 
Q 53.90625 49.265625 50.4375 45.09375 
Q 46.96875 40.921875 40.578125 39.3125 
z
" id="DejaVuSans-51"/>
    </defs>
    <g transform="translate(200.664375 28.56)scale(0.12 -0.12)">
     <use xlink:href="#DejaVuSans-116"/>
     <use x="39.208984" xlink:href="#DejaVuSans-32"/>
     <use x="70.996094" xlink:href="#DejaVuSans-61"/>
     <use x="154.785156" xlink:href="#DejaVuSans-32"/>
     <use x="186.572266" xlink:href="#DejaVuSans-48"/>
     <use x="250.195312" xlink:href="#DejaVuSans-46"/>
     <use x="281.982422" xlink:href="#DejaVuSans-51"/>
    </g>
   </g>
  </g>
 </g>
 <defs>
  <clipPath id="p9d381e3ab6">
   <rect height="217.44" width="334.8" x="54" y="34.56"/>
  </clipPath>
 </defs>
</svg>
