<?xml version="1.0" encoding="utf-8" standalone="no"?>
<!DOCTYPE svg PUBLIC "-//W3C//DTD SVG 1.1//EN"
  "http://www.w3.org/Graphics/SVG/1.1/DTD/svg11.dtd">
<!-- Created with matplotlib (https://matplotlib.org/) -->
<svg height="288pt" version="1.1" viewBox="0 0 432 288" width="432pt" xmlns="http://www.w3.org/2000/svg" xmlns:xlink="http://www.w3.org/1999/xlink">
 <defs>
  <style type="text/css">
*{stroke-linecap:butt;stroke-linejoin:round;}
  </style>
 </defs>
 <g id="figure_1">
  <g id="patch_1">
   <path d="M 0 288 
L 432 288 
L 432 0 
L 0 0 
z
" style="fill:#ffffff;"/>
  </g>
  <g id="axes_1">
   <g id="patch_2">
    <path clip-path="url(#pebc040f7df)" d="M 194.761447 132.407338 
L 194.761054 143.279338 
L 193.673854 143.279299 
L 193.674247 132.407299 
z
" style="stroke:#000000;stroke-linejoin:miter;"/>
   </g>
   <g id="patch_3">
    <path clip-path="url(#pebc040f7df)" d="M 249.121447 132.4093 
L 249.121054 143.2813 
L 248.033854 143.281261 
L 248.034247 132.409261 
z
" style="stroke:#000000;stroke-linejoin:miter;"/>
   </g>
   <g id="patch_4">
    <path clip-path="url(#pebc040f7df)" d="M 212.337847 132.407973 
L 212.189102 131.856421 
L 211.745268 131.340935 
L 211.013633 130.895233 
L 210.006209 130.548466 
L 208.739537 130.323315 
L 207.234415 130.234506 
L 205.515558 130.287843 
L 203.61119 130.479836 
L 201.552579 130.797923 
L 199.373529 131.221294 
L 197.109822 131.722252 
L 194.798626 132.268025 
L 192.477895 132.822911 
L 190.185733 133.35061 
L 187.959781 133.816601 
L 185.836589 134.190399 
L 183.851019 134.44755 
L 182.035677 134.571231 
L 180.420369 134.553349 
L 179.031619 134.39507 
L 177.89223 134.106744 
L 177.02091 133.70723 
L 176.431965 133.222658 
L 176.135066 132.684722 
L 176.135086 132.12861 
L 176.432024 131.590696 
L 177.021004 131.106167 
L 177.892352 130.706715 
L 179.031762 130.418472 
L 180.420523 130.260293 
L 182.035833 130.242527 
L 183.851167 130.366339 
L 185.836717 130.623634 
L 187.959883 130.997585 
L 190.185802 131.463736 
L 192.477925 131.991601 
L 194.798616 132.546654 
L 197.109772 133.092594 
L 199.373444 133.593716 
L 201.552463 134.017244 
L 203.611051 134.335479 
L 205.515405 134.52761 
L 207.234259 134.581071 
L 208.739386 134.49237 
L 210.006075 134.267311 
L 211.013524 133.920617 
L 211.745191 133.474967 
L 212.189062 132.959514 
z
" style="fill:#0000ff;stroke:#000000;stroke-linejoin:miter;"/>
   </g>
   <g id="patch_5">
    <path clip-path="url(#pebc040f7df)" d="M 266.697847 132.409934 
L 266.549102 131.858382 
L 266.105268 131.342896 
L 265.373633 130.897194 
L 264.366209 130.550427 
L 263.099537 130.325277 
L 261.594415 130.236467 
L 259.875558 130.289805 
L 257.97119 130.481798 
L 255.912579 130.799884 
L 253.733529 131.223255 
L 251.469822 131.724213 
L 249.158626 132.269987 
L 246.837895 132.824873 
L 244.545733 133.352572 
L 242.319781 133.818562 
L 240.196589 134.19236 
L 238.211019 134.449512 
L 236.395677 134.573193 
L 234.780369 134.55531 
L 233.391619 134.397031 
L 232.25223 134.108705 
L 231.38091 133.709191 
L 230.791965 133.224619 
L 230.495066 132.686684 
L 230.495086 132.130572 
L 230.792024 131.592658 
L 231.381004 131.108128 
L 232.252352 130.708677 
L 233.391762 130.420433 
L 234.780523 130.262254 
L 236.395833 130.244488 
L 238.211167 130.3683 
L 240.196717 130.625595 
L 242.319883 130.999547 
L 244.545801 131.465698 
L 246.837925 131.993562 
L 249.158616 132.548615 
L 251.469772 133.094556 
L 253.733444 133.595677 
L 255.912463 134.019205 
L 257.971051 134.337441 
L 259.875405 134.529571 
L 261.594259 134.583033 
L 263.099386 134.494332 
L 264.366075 134.269272 
L 265.373524 133.922578 
L 266.105191 133.476929 
L 266.549062 132.961475 
z
" style="fill:#0000ff;stroke:#000000;stroke-linejoin:miter;"/>
   </g>
   <g id="patch_6">
    <path clip-path="url(#pebc040f7df)" d="M 254.013553 140.563476 
L 188.781553 140.561123 
L 188.781356 145.997123 
L 254.013356 145.999476 
z
" style="fill:#999999;stroke:#000000;stroke-linejoin:miter;"/>
   </g>
   <g id="text_1">
    <!-- t = 3.6 -->
    <defs>
     <path d="M 18.3125 70.21875 
L 18.3125 54.6875 
L 36.8125 54.6875 
L 36.8125 47.703125 
L 18.3125 47.703125 
L 18.3125 18.015625 
Q 18.3125 11.328125 20.140625 9.421875 
Q 21.96875 7.515625 27.59375 7.515625 
L 36.8125 7.515625 
L 36.8125 0 
L 27.59375 0 
Q 17.1875 0 13.234375 3.875 
Q 9.28125 7.765625 9.28125 18.015625 
L 9.28125 47.703125 
L 2.6875 47.703125 
L 2.6875 54.6875 
L 9.28125 54.6875 
L 9.28125 70.21875 
z
" id="DejaVuSans-116"/>
     <path id="DejaVuSans-32"/>
     <path d="M 10.59375 45.40625 
L 73.1875 45.40625 
L 73.1875 37.203125 
L 10.59375 37.203125 
z
M 10.59375 25.484375 
L 73.1875 25.484375 
L 73.1875 17.1875 
L 10.59375 17.1875 
z
" id="DejaVuSans-61"/>
     <path d="M 40.578125 39.3125 
Q 47.65625 37.796875 51.625 33 
Q 55.609375 28.21875 55.609375 21.1875 
Q 55.609375 10.40625 48.1875 4.484375 
Q 40.765625 -1.421875 27.09375 -1.421875 
Q 22.515625 -1.421875 17.65625 -0.515625 
Q 12.796875 0.390625 7.625 2.203125 
L 7.625 11.71875 
Q 11.71875 9.328125 16.59375 8.109375 
Q 21.484375 6.890625 26.8125 6.890625 
Q 36.078125 6.890625 40.9375 10.546875 
Q 45.796875 14.203125 45.796875 21.1875 
Q 45.796875 27.640625 41.28125 31.265625 
Q 36.765625 34.90625 28.71875 34.90625 
L 20.21875 34.90625 
L 20.21875 43.015625 
L 29.109375 43.015625 
Q 36.375 43.015625 40.234375 45.921875 
Q 44.09375 48.828125 44.09375 54.296875 
Q 44.09375 59.90625 40.109375 62.90625 
Q 36.140625 65.921875 28.71875 65.921875 
Q 24.65625 65.921875 20.015625 65.03125 
Q 15.375 64.15625 9.8125 62.3125 
L 9.8125 71.09375 
Q 15.4375 72.65625 20.34375 73.4375 
Q 25.25 74.21875 29.59375 74.21875 
Q 40.828125 74.21875 47.359375 69.109375 
Q 53.90625 64.015625 53.90625 55.328125 
Q 53.90625 49.265625 50.4375 45.09375 
Q 46.96875 40.921875 40.578125 39.3125 
z
" id="DejaVuSans-51"/>
     <path d="M 10.6875 12.40625 
L 21 12.40625 
L 21 0 
L 10.6875 0 
z
" id="DejaVuSans-46"/>
     <path d="M 33.015625 40.375 
Q 26.375 40.375 22.484375 35.828125 
Q 18.609375 31.296875 18.609375 23.390625 
Q 18.609375 15.53125 22.484375 10.953125 
Q 26.375 6.390625 33.015625 6.390625 
Q 39.65625 6.390625 43.53125 10.953125 
Q 47.40625 15.53125 47.40625 23.390625 
Q 47.40625 31.296875 43.53125 35.828125 
Q 39.65625 40.375 33.015625 40.375 
z
M 52.59375 71.296875 
L 52.59375 62.3125 
Q 48.875 64.0625 45.09375 64.984375 
Q 41.3125 65.921875 37.59375 65.921875 
Q 27.828125 65.921875 22.671875 59.328125 
Q 17.53125 52.734375 16.796875 39.40625 
Q 19.671875 43.65625 24.015625 45.921875 
Q 28.375 48.1875 33.59375 48.1875 
Q 44.578125 48.1875 50.953125 41.515625 
Q 57.328125 34.859375 57.328125 23.390625 
Q 57.328125 12.15625 50.6875 5.359375 
Q 44.046875 -1.421875 33.015625 -1.421875 
Q 20.359375 -1.421875 13.671875 8.265625 
Q 6.984375 17.96875 6.984375 36.375 
Q 6.984375 53.65625 15.1875 63.9375 
Q 23.390625 74.21875 37.203125 74.21875 
Q 40.921875 74.21875 44.703125 73.484375 
Q 48.484375 72.75 52.59375 71.296875 
z
" id="DejaVuSans-54"/>
    </defs>
    <g transform="translate(200.664375 28.56)scale(0.12 -0.12)">
     <use xlink:href="#DejaVuSans-116"/>
     <use x="39.208984" xlink:href="#DejaVuSans-32"/>
     <use x="70.996094" xlink:href="#DejaVuSans-61"/>
     <use x="154.785156" xlink:href="#DejaVuSans-32"/>
     <use x="186.572266" xlink:href="#DejaVuSans-51"/>
     <use x="250.195312" xlink:href="#DejaVuSans-46"/>
     <use x="281.982422" xlink:href="#DejaVuSans-54"/>
    </g>
   </g>
  </g>
 </g>
 <defs>
  <clipPath id="pebc040f7df">
   <rect height="217.44" width="334.8" x="54" y="34.56"/>
  </clipPath>
 </defs>
</svg>
