<?xml version="1.0" encoding="utf-8" standalone="no"?>
<!DOCTYPE svg PUBLIC "-//W3C//DTD SVG 1.1//EN"
  "http://www.w3.org/Graphics/SVG/1.1/DTD/svg11.dtd">
<!-- Created with matplotlib (https://matplotlib.org/) -->
<svg height="288pt" version="1.1" viewBox="0 0 432 288" width="432pt" xmlns="http://www.w3.org/2000/svg" xmlns:xlink="http://www.w3.org/1999/xlink">
 <defs>
  <style type="text/css">
*{stroke-linecap:butt;stroke-linejoin:round;}
  </style>
 </defs>
 <g id="figure_1">
  <g id="patch_1">
   <path d="M 0 288 
L 432 288 
L 432 0 
L 0 0 
z
" style="fill:#ffffff;"/>
  </g>
  <g id="axes_1">
   <g id="patch_2">
    <path clip-path="url(#pe1682f0411)" d="M 194.707553 132.411517 
L 194.710218 143.283517 
L 193.623018 143.283784 
L 193.620353 132.411784 
z
" style="stroke:#000000;stroke-linejoin:miter;"/>
   </g>
   <g id="patch_3">
    <path clip-path="url(#pe1682f0411)" d="M 249.067551 132.398191 
L 249.070217 143.270191 
L 247.983017 143.270458 
L 247.980351 132.398458 
z
" style="stroke:#000000;stroke-linejoin:miter;"/>
   </g>
   <g id="patch_4">
    <path clip-path="url(#pe1682f0411)" d="M 212.283953 132.407209 
L 212.135052 131.855699 
L 211.691074 131.340338 
L 210.959313 130.894841 
L 209.951792 130.548358 
L 208.685056 130.323563 
L 207.17991 130.235177 
L 205.461068 130.288998 
L 203.556754 130.481526 
L 201.498232 130.800192 
L 199.319302 131.224176 
L 197.055735 131.72577 
L 194.744694 132.272194 
L 192.424118 132.827732 
L 190.132105 133.356076 
L 187.906284 133.822693 
L 185.783197 134.197088 
L 183.7977 134.454798 
L 181.982392 134.578989 
L 180.367079 134.561561 
L 178.978285 134.403672 
L 177.838814 134.115667 
L 176.967382 133.716398 
L 176.378302 133.231991 
L 176.081251 132.69414 
L 176.081115 132.138027 
L 176.377902 131.60003 
L 176.966745 131.115335 
L 177.837981 130.715638 
L 178.97731 130.427075 
L 180.366027 130.268505 
L 181.981331 130.250285 
L 183.796699 130.373586 
L 185.782322 130.630323 
L 187.905593 131.003677 
L 190.131643 131.469202 
L 192.423914 131.996422 
L 194.744762 132.550823 
L 197.056071 133.096113 
L 199.319884 133.596598 
L 201.499022 134.019513 
L 203.557699 134.337169 
L 205.462108 134.528764 
L 207.180976 134.581742 
L 208.686078 134.492618 
L 209.952703 134.267203 
L 210.960055 133.920225 
L 211.691597 133.47437 
L 212.135323 132.958792 
z
" style="fill:#0000ff;stroke:#000000;stroke-linejoin:miter;"/>
   </g>
   <g id="patch_5">
    <path clip-path="url(#pe1682f0411)" d="M 266.643951 132.393883 
L 266.495051 131.842373 
L 266.051072 131.327012 
L 265.319312 130.881515 
L 264.31179 130.535032 
L 263.045055 130.310237 
L 261.539909 130.221851 
L 259.821067 130.275672 
L 257.916752 130.4682 
L 255.858231 130.786866 
L 253.6793 131.21085 
L 251.415734 131.712444 
L 249.104692 132.258868 
L 246.784116 132.814407 
L 244.492104 133.34275 
L 242.266282 133.809367 
L 240.143195 134.183762 
L 238.157698 134.441472 
L 236.34239 134.565663 
L 234.727077 134.548235 
L 233.338283 134.390346 
L 232.198813 134.102341 
L 231.327381 133.703072 
L 230.7383 133.218665 
L 230.44125 132.680814 
L 230.441113 132.124701 
L 230.7379 131.586704 
L 231.326743 131.102009 
L 232.197979 130.702312 
L 233.337308 130.413749 
L 234.726025 130.255179 
L 236.341329 130.236959 
L 238.156698 130.36026 
L 240.142321 130.616997 
L 242.265591 130.990351 
L 244.491641 131.455876 
L 246.783912 131.983096 
L 249.10476 132.537497 
L 251.416069 133.082787 
L 253.679882 133.583272 
L 255.85902 134.006187 
L 257.917697 134.323843 
L 259.822106 134.515438 
L 261.540974 134.568417 
L 263.046077 134.479292 
L 264.312702 134.253877 
L 265.320053 133.906899 
L 266.051595 133.461044 
L 266.495321 132.945466 
z
" style="fill:#0000ff;stroke:#000000;stroke-linejoin:miter;"/>
   </g>
   <g id="patch_6">
    <path clip-path="url(#pe1682f0411)" d="M 253.96195 140.550992 
L 188.729952 140.566983 
L 188.731285 146.002983 
L 253.963283 145.986992 
z
" style="fill:#999999;stroke:#000000;stroke-linejoin:miter;"/>
   </g>
   <g id="text_1">
    <!-- t = 2.8 -->
    <defs>
     <path d="M 18.3125 70.21875 
L 18.3125 54.6875 
L 36.8125 54.6875 
L 36.8125 47.703125 
L 18.3125 47.703125 
L 18.3125 18.015625 
Q 18.3125 11.328125 20.140625 9.421875 
Q 21.96875 7.515625 27.59375 7.515625 
L 36.8125 7.515625 
L 36.8125 0 
L 27.59375 0 
Q 17.1875 0 13.234375 3.875 
Q 9.28125 7.765625 9.28125 18.015625 
L 9.28125 47.703125 
L 2.6875 47.703125 
L 2.6875 54.6875 
L 9.28125 54.6875 
L 9.28125 70.21875 
z
" id="DejaVuSans-116"/>
     <path id="DejaVuSans-32"/>
     <path d="M 10.59375 45.40625 
L 73.1875 45.40625 
L 73.1875 37.203125 
L 10.59375 37.203125 
z
M 10.59375 25.484375 
L 73.1875 25.484375 
L 73.1875 17.1875 
L 10.59375 17.1875 
z
" id="DejaVuSans-61"/>
     <path d="M 19.1875 8.296875 
L 53.609375 8.296875 
L 53.609375 0 
L 7.328125 0 
L 7.328125 8.296875 
Q 12.9375 14.109375 22.625 23.890625 
Q 32.328125 33.6875 34.8125 36.53125 
Q 39.546875 41.84375 41.421875 45.53125 
Q 43.3125 49.21875 43.3125 52.78125 
Q 43.3125 58.59375 39.234375 62.25 
Q 35.15625 65.921875 28.609375 65.921875 
Q 23.96875 65.921875 18.8125 64.3125 
Q 13.671875 62.703125 7.8125 59.421875 
L 7.8125 69.390625 
Q 13.765625 71.78125 18.9375 73 
Q 24.125 74.21875 28.421875 74.21875 
Q 39.75 74.21875 46.484375 68.546875 
Q 53.21875 62.890625 53.21875 53.421875 
Q 53.21875 48.921875 51.53125 44.890625 
Q 49.859375 40.875 45.40625 35.40625 
Q 44.1875 33.984375 37.640625 27.21875 
Q 31.109375 20.453125 19.1875 8.296875 
z
" id="DejaVuSans-50"/>
     <path d="M 10.6875 12.40625 
L 21 12.40625 
L 21 0 
L 10.6875 0 
z
" id="DejaVuSans-46"/>
     <path d="M 31.78125 34.625 
Q 24.75 34.625 20.71875 30.859375 
Q 16.703125 27.09375 16.703125 20.515625 
Q 16.703125 13.921875 20.71875 10.15625 
Q 24.75 6.390625 31.78125 6.390625 
Q 38.8125 6.390625 42.859375 10.171875 
Q 46.921875 13.96875 46.921875 20.515625 
Q 46.921875 27.09375 42.890625 30.859375 
Q 38.875 34.625 31.78125 34.625 
z
M 21.921875 38.8125 
Q 15.578125 40.375 12.03125 44.71875 
Q 8.5 49.078125 8.5 55.328125 
Q 8.5 64.0625 14.71875 69.140625 
Q 20.953125 74.21875 31.78125 74.21875 
Q 42.671875 74.21875 48.875 69.140625 
Q 55.078125 64.0625 55.078125 55.328125 
Q 55.078125 49.078125 51.53125 44.71875 
Q 48 40.375 41.703125 38.8125 
Q 48.828125 37.15625 52.796875 32.3125 
Q 56.78125 27.484375 56.78125 20.515625 
Q 56.78125 9.90625 50.3125 4.234375 
Q 43.84375 -1.421875 31.78125 -1.421875 
Q 19.734375 -1.421875 13.25 4.234375 
Q 6.78125 9.90625 6.78125 20.515625 
Q 6.78125 27.484375 10.78125 32.3125 
Q 14.796875 37.15625 21.921875 38.8125 
z
M 18.3125 54.390625 
Q 18.3125 48.734375 21.84375 45.5625 
Q 25.390625 42.390625 31.78125 42.390625 
Q 38.140625 42.390625 41.71875 45.5625 
Q 45.3125 48.734375 45.3125 54.390625 
Q 45.3125 60.0625 41.71875 63.234375 
Q 38.140625 66.40625 31.78125 66.40625 
Q 25.390625 66.40625 21.84375 63.234375 
Q 18.3125 60.0625 18.3125 54.390625 
z
" id="DejaVuSans-56"/>
    </defs>
    <g transform="translate(200.664375 28.56)scale(0.12 -0.12)">
     <use xlink:href="#DejaVuSans-116"/>
     <use x="39.208984" xlink:href="#DejaVuSans-32"/>
     <use x="70.996094" xlink:href="#DejaVuSans-61"/>
     <use x="154.785156" xlink:href="#DejaVuSans-32"/>
     <use x="186.572266" xlink:href="#DejaVuSans-50"/>
     <use x="250.195312" xlink:href="#DejaVuSans-46"/>
     <use x="281.982422" xlink:href="#DejaVuSans-56"/>
    </g>
   </g>
  </g>
 </g>
 <defs>
  <clipPath id="pe1682f0411">
   <rect height="217.44" width="334.8" x="54" y="34.56"/>
  </clipPath>
 </defs>
</svg>
