<?xml version="1.0" encoding="utf-8" standalone="no"?>
<!DOCTYPE svg PUBLIC "-//W3C//DTD SVG 1.1//EN"
  "http://www.w3.org/Graphics/SVG/1.1/DTD/svg11.dtd">
<!-- Created with matplotlib (https://matplotlib.org/) -->
<svg height="288pt" version="1.1" viewBox="0 0 432 288" width="432pt" xmlns="http://www.w3.org/2000/svg" xmlns:xlink="http://www.w3.org/1999/xlink">
 <defs>
  <style type="text/css">
*{stroke-linecap:butt;stroke-linejoin:round;}
  </style>
 </defs>
 <g id="figure_1">
  <g id="patch_1">
   <path d="M 0 288 
L 432 288 
L 432 0 
L 0 0 
z
" style="fill:#ffffff;"/>
  </g>
  <g id="axes_1">
   <g id="patch_2">
    <path clip-path="url(#p6948866c75)" d="M 241.96845 119.74258 
L 239.552753 130.342806 
L 238.492731 130.101236 
L 240.908428 119.50101 
z
" style="stroke:#000000;stroke-linejoin:miter;"/>
   </g>
   <g id="patch_3">
    <path clip-path="url(#p6948866c75)" d="M 294.969581 131.821063 
L 292.553884 142.42129 
L 291.493861 142.17972 
L 293.909558 131.579494 
z
" style="stroke:#000000;stroke-linejoin:miter;"/>
   </g>
   <g id="patch_4">
    <path clip-path="url(#p6948866c75)" d="M 259.105482 123.647956 
L 259.082987 123.077142 
L 258.764764 122.475937 
L 258.150429 121.878833 
L 257.245217 121.316923 
L 256.060218 120.815996 
L 254.612439 120.395029 
L 252.924686 120.065174 
L 251.025254 119.829296 
L 248.947421 119.682095 
L 246.72877 119.61079 
L 244.410338 119.596326 
L 242.03565 119.615008 
L 239.64964 119.640456 
L 237.297526 119.645743 
L 235.023675 119.605573 
L 232.870497 119.498344 
L 230.877418 119.307957 
L 229.079963 119.025252 
L 227.508994 118.648961 
L 226.190111 118.186113 
L 225.143249 117.651867 
L 224.382459 117.068765 
L 223.915884 116.465463 
L 223.745912 115.875011 
L 223.869477 115.332801 
L 224.278497 114.874297 
L 224.9604 114.532722 
L 225.898716 114.336831 
L 227.073689 114.308921 
L 228.462886 114.463221 
L 230.041777 114.804755 
L 231.78424 115.328766 
L 233.663012 116.020739 
L 235.650044 116.857026 
L 237.716778 117.806037 
L 239.834352 118.829926 
L 241.973741 119.886672 
L 244.105856 120.932414 
L 246.201631 121.923908 
L 248.232106 122.820941 
L 250.168552 123.588558 
L 251.982634 124.198957 
L 253.646657 124.632941 
L 255.133878 124.880835 
L 256.418911 124.942806 
L 257.478206 124.82859 
L 258.290594 124.556624 
L 258.837886 124.152661 
z
" style="fill:#0000ff;stroke:#000000;stroke-linejoin:miter;"/>
   </g>
   <g id="patch_5">
    <path clip-path="url(#p6948866c75)" d="M 312.106613 135.72644 
L 312.084117 135.155626 
L 311.765895 134.55442 
L 311.15156 133.957316 
L 310.246348 133.395407 
L 309.061349 132.89448 
L 307.61357 132.473513 
L 305.925817 132.143658 
L 304.026384 131.90778 
L 301.948552 131.760579 
L 299.7299 131.689274 
L 297.411469 131.67481 
L 295.036781 131.693492 
L 292.65077 131.718939 
L 290.298656 131.724227 
L 288.024805 131.684057 
L 285.871628 131.576827 
L 283.878548 131.38644 
L 282.081094 131.103736 
L 280.510124 130.727445 
L 279.191242 130.264597 
L 278.14438 129.730351 
L 277.383589 129.147249 
L 276.917015 128.543946 
L 276.747042 127.953495 
L 276.870607 127.411284 
L 277.279627 126.95278 
L 277.961531 126.611206 
L 278.899847 126.415315 
L 280.074819 126.387405 
L 281.464017 126.541704 
L 283.042907 126.883238 
L 284.78537 127.407249 
L 286.664143 128.099223 
L 288.651175 128.93551 
L 290.717909 129.88452 
L 292.835483 130.90841 
L 294.974871 131.965155 
L 297.106987 133.010897 
L 299.202761 134.002391 
L 301.233237 134.899424 
L 303.169682 135.667041 
L 304.983765 136.27744 
L 306.647787 136.711425 
L 308.135009 136.959318 
L 309.420042 137.02129 
L 310.479336 136.907073 
L 311.291725 136.635107 
L 311.839016 136.231144 
z
" style="fill:#0000ff;stroke:#000000;stroke-linejoin:miter;"/>
   </g>
   <g id="patch_6">
    <path clip-path="url(#p6948866c75)" d="M 297.92791 140.858297 
L 234.326553 126.364116 
L 233.118705 131.664229 
L 296.720062 146.15841 
z
" style="fill:#999999;stroke:#000000;stroke-linejoin:miter;"/>
   </g>
   <g id="text_1">
    <!-- t = 0.9 -->
    <defs>
     <path d="M 18.3125 70.21875 
L 18.3125 54.6875 
L 36.8125 54.6875 
L 36.8125 47.703125 
L 18.3125 47.703125 
L 18.3125 18.015625 
Q 18.3125 11.328125 20.140625 9.421875 
Q 21.96875 7.515625 27.59375 7.515625 
L 36.8125 7.515625 
L 36.8125 0 
L 27.59375 0 
Q 17.1875 0 13.234375 3.875 
Q 9.28125 7.765625 9.28125 18.015625 
L 9.28125 47.703125 
L 2.6875 47.703125 
L 2.6875 54.6875 
L 9.28125 54.6875 
L 9.28125 70.21875 
z
" id="DejaVuSans-116"/>
     <path id="DejaVuSans-32"/>
     <path d="M 10.59375 45.40625 
L 73.1875 45.40625 
L 73.1875 37.203125 
L 10.59375 37.203125 
z
M 10.59375 25.484375 
L 73.1875 25.484375 
L 73.1875 17.1875 
L 10.59375 17.1875 
z
" id="DejaVuSans-61"/>
     <path d="M 31.78125 66.40625 
Q 24.171875 66.40625 20.328125 58.90625 
Q 16.5 51.421875 16.5 36.375 
Q 16.5 21.390625 20.328125 13.890625 
Q 24.171875 6.390625 31.78125 6.390625 
Q 39.453125 6.390625 43.28125 13.890625 
Q 47.125 21.390625 47.125 36.375 
Q 47.125 51.421875 43.28125 58.90625 
Q 39.453125 66.40625 31.78125 66.40625 
z
M 31.78125 74.21875 
Q 44.046875 74.21875 50.515625 64.515625 
Q 56.984375 54.828125 56.984375 36.375 
Q 56.984375 17.96875 50.515625 8.265625 
Q 44.046875 -1.421875 31.78125 -1.421875 
Q 19.53125 -1.421875 13.0625 8.265625 
Q 6.59375 17.96875 6.59375 36.375 
Q 6.59375 54.828125 13.0625 64.515625 
Q 19.53125 74.21875 31.78125 74.21875 
z
" id="DejaVuSans-48"/>
     <path d="M 10.6875 12.40625 
L 21 12.40625 
L 21 0 
L 10.6875 0 
z
" id="DejaVuSans-46"/>
     <path d="M 10.984375 1.515625 
L 10.984375 10.5 
Q 14.703125 8.734375 18.5 7.8125 
Q 22.3125 6.890625 25.984375 6.890625 
Q 35.75 6.890625 40.890625 13.453125 
Q 46.046875 20.015625 46.78125 33.40625 
Q 43.953125 29.203125 39.59375 26.953125 
Q 35.25 24.703125 29.984375 24.703125 
Q 19.046875 24.703125 12.671875 31.3125 
Q 6.296875 37.9375 6.296875 49.421875 
Q 6.296875 60.640625 12.9375 67.421875 
Q 19.578125 74.21875 30.609375 74.21875 
Q 43.265625 74.21875 49.921875 64.515625 
Q 56.59375 54.828125 56.59375 36.375 
Q 56.59375 19.140625 48.40625 8.859375 
Q 40.234375 -1.421875 26.421875 -1.421875 
Q 22.703125 -1.421875 18.890625 -0.6875 
Q 15.09375 0.046875 10.984375 1.515625 
z
M 30.609375 32.421875 
Q 37.25 32.421875 41.125 36.953125 
Q 45.015625 41.5 45.015625 49.421875 
Q 45.015625 57.28125 41.125 61.84375 
Q 37.25 66.40625 30.609375 66.40625 
Q 23.96875 66.40625 20.09375 61.84375 
Q 16.21875 57.28125 16.21875 49.421875 
Q 16.21875 41.5 20.09375 36.953125 
Q 23.96875 32.421875 30.609375 32.421875 
z
" id="DejaVuSans-57"/>
    </defs>
    <g transform="translate(200.664375 28.56)scale(0.12 -0.12)">
     <use xlink:href="#DejaVuSans-116"/>
     <use x="39.208984" xlink:href="#DejaVuSans-32"/>
     <use x="70.996094" xlink:href="#DejaVuSans-61"/>
     <use x="154.785156" xlink:href="#DejaVuSans-32"/>
     <use x="186.572266" xlink:href="#DejaVuSans-48"/>
     <use x="250.195312" xlink:href="#DejaVuSans-46"/>
     <use x="281.982422" xlink:href="#DejaVuSans-57"/>
    </g>
   </g>
  </g>
 </g>
 <defs>
  <clipPath id="p6948866c75">
   <rect height="217.44" width="334.8" x="54" y="34.56"/>
  </clipPath>
 </defs>
</svg>
