<?xml version="1.0" encoding="utf-8" standalone="no"?>
<!DOCTYPE svg PUBLIC "-//W3C//DTD SVG 1.1//EN"
  "http://www.w3.org/Graphics/SVG/1.1/DTD/svg11.dtd">
<!-- Created with matplotlib (https://matplotlib.org/) -->
<svg height="288pt" version="1.1" viewBox="0 0 432 288" width="432pt" xmlns="http://www.w3.org/2000/svg" xmlns:xlink="http://www.w3.org/1999/xlink">
 <defs>
  <style type="text/css">
*{stroke-linecap:butt;stroke-linejoin:round;}
  </style>
 </defs>
 <g id="figure_1">
  <g id="patch_1">
   <path d="M 0 288 
L 432 288 
L 432 0 
L 0 0 
z
" style="fill:#ffffff;"/>
  </g>
  <g id="axes_1">
   <g id="patch_2">
    <path clip-path="url(#pa5d224c45b)" d="M 194.765669 132.407877 
L 194.765756 143.279877 
L 193.678556 143.279886 
L 193.678469 132.407886 
z
" style="stroke:#000000;stroke-linejoin:miter;"/>
   </g>
   <g id="patch_3">
    <path clip-path="url(#pa5d224c45b)" d="M 249.125669 132.407442 
L 249.125756 143.279442 
L 248.038556 143.279451 
L 248.038469 132.407451 
z
" style="stroke:#000000;stroke-linejoin:miter;"/>
   </g>
   <g id="patch_4">
    <path clip-path="url(#pa5d224c45b)" d="M 212.342069 132.407736 
L 212.193299 131.856191 
L 211.749443 131.340725 
L 211.017788 130.895055 
L 210.010349 130.548333 
L 208.743667 130.323238 
L 207.238542 130.234494 
L 205.519687 130.287908 
L 203.615327 130.479985 
L 201.55673 130.798162 
L 199.377699 131.221629 
L 197.114013 131.722687 
L 194.802842 132.268563 
L 192.482135 132.823551 
L 190.189997 133.351351 
L 187.964065 133.817439 
L 185.840889 134.191331 
L 183.855331 134.44857 
L 182.039994 134.572331 
L 180.424685 134.55452 
L 179.035928 134.396302 
L 177.896526 134.108027 
L 177.025189 133.708551 
L 176.436223 133.224005 
L 176.1393 132.686082 
L 176.139296 132.12997 
L 176.43621 131.592043 
L 177.025168 131.107488 
L 177.896499 130.707998 
L 179.035896 130.419704 
L 180.424651 130.261464 
L 182.039959 130.243627 
L 183.855299 130.367359 
L 185.840861 130.624566 
L 187.964043 130.998424 
L 190.189982 131.464477 
L 192.482128 131.99224 
L 194.802844 132.547191 
L 197.114024 133.09303 
L 199.377718 133.594051 
L 201.556756 134.017483 
L 203.615358 134.335628 
L 205.519721 134.527674 
L 207.238576 134.58106 
L 208.7437 134.492293 
L 210.010379 134.267178 
L 211.017813 133.920439 
L 211.74946 133.474757 
L 212.193308 132.959284 
z
" style="fill:#0000ff;stroke:#000000;stroke-linejoin:miter;"/>
   </g>
   <g id="patch_5">
    <path clip-path="url(#pa5d224c45b)" d="M 266.702069 132.407301 
L 266.553299 131.855756 
L 266.109443 131.34029 
L 265.377788 130.89462 
L 264.370349 130.547897 
L 263.103667 130.322803 
L 261.598542 130.234059 
L 259.879687 130.287473 
L 257.975327 130.479549 
L 255.91673 130.797727 
L 253.737699 131.221194 
L 251.474013 131.722252 
L 249.162842 132.268127 
L 246.842135 132.823115 
L 244.549997 133.350915 
L 242.324065 133.817004 
L 240.200889 134.190896 
L 238.215331 134.448135 
L 236.399994 134.571896 
L 234.784685 134.554085 
L 233.395928 134.395867 
L 232.256526 134.107591 
L 231.385189 133.708115 
L 230.796223 133.223569 
L 230.4993 132.685647 
L 230.499296 132.129535 
L 230.79621 131.591608 
L 231.385168 131.107052 
L 232.256499 130.707563 
L 233.395896 130.419269 
L 234.784651 130.261029 
L 236.399959 130.243191 
L 238.215299 130.366924 
L 240.200861 130.624131 
L 242.324043 130.997989 
L 244.549982 131.464042 
L 246.842128 131.991805 
L 249.162844 132.546756 
L 251.474024 133.092594 
L 253.737718 133.593616 
L 255.916756 134.017048 
L 257.975358 134.335193 
L 259.879721 134.527239 
L 261.598576 134.580625 
L 263.1037 134.491857 
L 264.370379 134.266742 
L 265.377813 133.920004 
L 266.10946 133.474322 
L 266.553308 132.958849 
z
" style="fill:#0000ff;stroke:#000000;stroke-linejoin:miter;"/>
   </g>
   <g id="patch_6">
    <path clip-path="url(#pa5d224c45b)" d="M 254.018134 140.561403 
L 188.786134 140.561925 
L 188.786178 145.997925 
L 254.018178 145.997403 
z
" style="fill:#999999;stroke:#000000;stroke-linejoin:miter;"/>
   </g>
   <g id="text_1">
    <!-- t = 3.6 -->
    <defs>
     <path d="M 18.3125 70.21875 
L 18.3125 54.6875 
L 36.8125 54.6875 
L 36.8125 47.703125 
L 18.3125 47.703125 
L 18.3125 18.015625 
Q 18.3125 11.328125 20.140625 9.421875 
Q 21.96875 7.515625 27.59375 7.515625 
L 36.8125 7.515625 
L 36.8125 0 
L 27.59375 0 
Q 17.1875 0 13.234375 3.875 
Q 9.28125 7.765625 9.28125 18.015625 
L 9.28125 47.703125 
L 2.6875 47.703125 
L 2.6875 54.6875 
L 9.28125 54.6875 
L 9.28125 70.21875 
z
" id="DejaVuSans-116"/>
     <path id="DejaVuSans-32"/>
     <path d="M 10.59375 45.40625 
L 73.1875 45.40625 
L 73.1875 37.203125 
L 10.59375 37.203125 
z
M 10.59375 25.484375 
L 73.1875 25.484375 
L 73.1875 17.1875 
L 10.59375 17.1875 
z
" id="DejaVuSans-61"/>
     <path d="M 40.578125 39.3125 
Q 47.65625 37.796875 51.625 33 
Q 55.609375 28.21875 55.609375 21.1875 
Q 55.609375 10.40625 48.1875 4.484375 
Q 40.765625 -1.421875 27.09375 -1.421875 
Q 22.515625 -1.421875 17.65625 -0.515625 
Q 12.796875 0.390625 7.625 2.203125 
L 7.625 11.71875 
Q 11.71875 9.328125 16.59375 8.109375 
Q 21.484375 6.890625 26.8125 6.890625 
Q 36.078125 6.890625 40.9375 10.546875 
Q 45.796875 14.203125 45.796875 21.1875 
Q 45.796875 27.640625 41.28125 31.265625 
Q 36.765625 34.90625 28.71875 34.90625 
L 20.21875 34.90625 
L 20.21875 43.015625 
L 29.109375 43.015625 
Q 36.375 43.015625 40.234375 45.921875 
Q 44.09375 48.828125 44.09375 54.296875 
Q 44.09375 59.90625 40.109375 62.90625 
Q 36.140625 65.921875 28.71875 65.921875 
Q 24.65625 65.921875 20.015625 65.03125 
Q 15.375 64.15625 9.8125 62.3125 
L 9.8125 71.09375 
Q 15.4375 72.65625 20.34375 73.4375 
Q 25.25 74.21875 29.59375 74.21875 
Q 40.828125 74.21875 47.359375 69.109375 
Q 53.90625 64.015625 53.90625 55.328125 
Q 53.90625 49.265625 50.4375 45.09375 
Q 46.96875 40.921875 40.578125 39.3125 
z
" id="DejaVuSans-51"/>
     <path d="M 10.6875 12.40625 
L 21 12.40625 
L 21 0 
L 10.6875 0 
z
" id="DejaVuSans-46"/>
     <path d="M 33.015625 40.375 
Q 26.375 40.375 22.484375 35.828125 
Q 18.609375 31.296875 18.609375 23.390625 
Q 18.609375 15.53125 22.484375 10.953125 
Q 26.375 6.390625 33.015625 6.390625 
Q 39.65625 6.390625 43.53125 10.953125 
Q 47.40625 15.53125 47.40625 23.390625 
Q 47.40625 31.296875 43.53125 35.828125 
Q 39.65625 40.375 33.015625 40.375 
z
M 52.59375 71.296875 
L 52.59375 62.3125 
Q 48.875 64.0625 45.09375 64.984375 
Q 41.3125 65.921875 37.59375 65.921875 
Q 27.828125 65.921875 22.671875 59.328125 
Q 17.53125 52.734375 16.796875 39.40625 
Q 19.671875 43.65625 24.015625 45.921875 
Q 28.375 48.1875 33.59375 48.1875 
Q 44.578125 48.1875 50.953125 41.515625 
Q 57.328125 34.859375 57.328125 23.390625 
Q 57.328125 12.15625 50.6875 5.359375 
Q 44.046875 -1.421875 33.015625 -1.421875 
Q 20.359375 -1.421875 13.671875 8.265625 
Q 6.984375 17.96875 6.984375 36.375 
Q 6.984375 53.65625 15.1875 63.9375 
Q 23.390625 74.21875 37.203125 74.21875 
Q 40.921875 74.21875 44.703125 73.484375 
Q 48.484375 72.75 52.59375 71.296875 
z
" id="DejaVuSans-54"/>
    </defs>
    <g transform="translate(200.664375 28.56)scale(0.12 -0.12)">
     <use xlink:href="#DejaVuSans-116"/>
     <use x="39.208984" xlink:href="#DejaVuSans-32"/>
     <use x="70.996094" xlink:href="#DejaVuSans-61"/>
     <use x="154.785156" xlink:href="#DejaVuSans-32"/>
     <use x="186.572266" xlink:href="#DejaVuSans-51"/>
     <use x="250.195312" xlink:href="#DejaVuSans-46"/>
     <use x="281.982422" xlink:href="#DejaVuSans-54"/>
    </g>
   </g>
  </g>
 </g>
 <defs>
  <clipPath id="pa5d224c45b">
   <rect height="217.44" width="334.8" x="54" y="34.56"/>
  </clipPath>
 </defs>
</svg>
