<?xml version="1.0" encoding="utf-8" standalone="no"?>
<!DOCTYPE svg PUBLIC "-//W3C//DTD SVG 1.1//EN"
  "http://www.w3.org/Graphics/SVG/1.1/DTD/svg11.dtd">
<!-- Created with matplotlib (https://matplotlib.org/) -->
<svg height="288pt" version="1.1" viewBox="0 0 432 288" width="432pt" xmlns="http://www.w3.org/2000/svg" xmlns:xlink="http://www.w3.org/1999/xlink">
 <defs>
  <style type="text/css">
*{stroke-linecap:butt;stroke-linejoin:round;}
  </style>
 </defs>
 <g id="figure_1">
  <g id="patch_1">
   <path d="M 0 288 
L 432 288 
L 432 0 
L 0 0 
z
" style="fill:#ffffff;"/>
  </g>
  <g id="axes_1">
   <g id="patch_2">
    <path clip-path="url(#p6ddbcdc76d)" d="M 194.761529 132.408633 
L 194.762726 143.280633 
L 193.675526 143.280753 
L 193.674329 132.408753 
z
" style="stroke:#000000;stroke-linejoin:miter;"/>
   </g>
   <g id="patch_3">
    <path clip-path="url(#p6ddbcdc76d)" d="M 249.121529 132.402649 
L 249.122725 143.274649 
L 248.035525 143.274768 
L 248.034329 132.402769 
z
" style="stroke:#000000;stroke-linejoin:miter;"/>
   </g>
   <g id="patch_4">
    <path clip-path="url(#p6ddbcdc76d)" d="M 212.337929 132.406698 
L 212.189103 131.855168 
L 211.745194 131.339747 
L 211.013494 130.894152 
L 210.006019 130.547533 
L 208.739314 130.322567 
L 207.23418 130.233977 
L 205.515331 130.287566 
L 203.61099 130.479837 
L 201.552426 130.798225 
L 199.373438 131.221914 
L 197.109804 131.723203 
L 194.798688 132.269315 
L 192.478037 132.82454 
L 190.185954 133.352574 
L 187.960069 133.81889 
L 185.836932 134.192998 
L 183.8514 134.45044 
L 182.036075 134.574386 
L 180.420765 134.55674 
L 179.031991 134.398664 
L 177.89256 134.110505 
L 177.021182 133.711118 
L 176.432167 133.226632 
L 176.135189 132.68874 
L 176.135128 132.132628 
L 176.431987 131.59467 
L 177.020896 131.110055 
L 177.892186 130.710476 
L 179.031554 130.422066 
L 180.420292 130.263684 
L 182.035599 130.245682 
L 183.85095 130.369229 
L 185.836539 130.626233 
L 187.959759 130.999874 
L 190.185746 131.4657 
L 192.477946 131.993229 
L 194.798719 132.547943 
L 197.109954 133.093546 
L 199.373699 133.594337 
L 201.55278 134.017546 
L 203.611414 134.33548 
L 205.515797 134.527333 
L 207.234658 134.580543 
L 208.739773 134.491622 
L 210.006428 134.266377 
L 211.013827 133.919536 
L 211.745429 133.47378 
L 212.189225 132.958261 
z
" style="fill:#0000ff;stroke:#000000;stroke-linejoin:miter;"/>
   </g>
   <g id="patch_5">
    <path clip-path="url(#p6ddbcdc76d)" d="M 266.697929 132.400714 
L 266.549103 131.849184 
L 266.105194 131.333763 
L 265.373494 130.888168 
L 264.366019 130.541548 
L 263.099314 130.316583 
L 261.59418 130.227993 
L 259.87533 130.281582 
L 257.97099 130.473853 
L 255.912426 130.792241 
L 253.733438 131.21593 
L 251.469803 131.717219 
L 249.158688 132.26333 
L 246.838037 132.818556 
L 244.545953 133.346589 
L 242.320069 133.812905 
L 240.196931 134.187014 
L 238.211399 134.444456 
L 236.396075 134.568402 
L 234.780764 134.550756 
L 233.391991 134.392679 
L 232.25256 134.10452 
L 231.381182 133.705133 
L 230.792167 133.220647 
L 230.495189 132.682755 
L 230.495128 132.126643 
L 230.791987 131.588686 
L 231.380895 131.10407 
L 232.252186 130.704492 
L 233.391553 130.416082 
L 234.780292 130.2577 
L 236.395598 130.239697 
L 238.21095 130.363244 
L 240.196539 130.620249 
L 242.319759 130.99389 
L 244.545745 131.459716 
L 246.837946 131.987245 
L 249.158719 132.541959 
L 251.469954 133.087562 
L 253.733699 133.588352 
L 255.91278 134.011562 
L 257.971414 134.329496 
L 259.875797 134.521348 
L 261.594658 134.574559 
L 263.099773 134.485637 
L 264.366428 134.260393 
L 265.373827 133.913552 
L 266.105429 133.467795 
L 266.549224 132.952277 
z
" style="fill:#0000ff;stroke:#000000;stroke-linejoin:miter;"/>
   </g>
   <g id="patch_6">
    <path clip-path="url(#p6ddbcdc76d)" d="M 254.014826 140.55611 
L 188.782827 140.563291 
L 188.783425 145.999291 
L 254.015425 145.99211 
z
" style="fill:#999999;stroke:#000000;stroke-linejoin:miter;"/>
   </g>
   <g id="text_1">
    <!-- t = 3.0 -->
    <defs>
     <path d="M 18.3125 70.21875 
L 18.3125 54.6875 
L 36.8125 54.6875 
L 36.8125 47.703125 
L 18.3125 47.703125 
L 18.3125 18.015625 
Q 18.3125 11.328125 20.140625 9.421875 
Q 21.96875 7.515625 27.59375 7.515625 
L 36.8125 7.515625 
L 36.8125 0 
L 27.59375 0 
Q 17.1875 0 13.234375 3.875 
Q 9.28125 7.765625 9.28125 18.015625 
L 9.28125 47.703125 
L 2.6875 47.703125 
L 2.6875 54.6875 
L 9.28125 54.6875 
L 9.28125 70.21875 
z
" id="DejaVuSans-116"/>
     <path id="DejaVuSans-32"/>
     <path d="M 10.59375 45.40625 
L 73.1875 45.40625 
L 73.1875 37.203125 
L 10.59375 37.203125 
z
M 10.59375 25.484375 
L 73.1875 25.484375 
L 73.1875 17.1875 
L 10.59375 17.1875 
z
" id="DejaVuSans-61"/>
     <path d="M 40.578125 39.3125 
Q 47.65625 37.796875 51.625 33 
Q 55.609375 28.21875 55.609375 21.1875 
Q 55.609375 10.40625 48.1875 4.484375 
Q 40.765625 -1.421875 27.09375 -1.421875 
Q 22.515625 -1.421875 17.65625 -0.515625 
Q 12.796875 0.390625 7.625 2.203125 
L 7.625 11.71875 
Q 11.71875 9.328125 16.59375 8.109375 
Q 21.484375 6.890625 26.8125 6.890625 
Q 36.078125 6.890625 40.9375 10.546875 
Q 45.796875 14.203125 45.796875 21.1875 
Q 45.796875 27.640625 41.28125 31.265625 
Q 36.765625 34.90625 28.71875 34.90625 
L 20.21875 34.90625 
L 20.21875 43.015625 
L 29.109375 43.015625 
Q 36.375 43.015625 40.234375 45.921875 
Q 44.09375 48.828125 44.09375 54.296875 
Q 44.09375 59.90625 40.109375 62.90625 
Q 36.140625 65.921875 28.71875 65.921875 
Q 24.65625 65.921875 20.015625 65.03125 
Q 15.375 64.15625 9.8125 62.3125 
L 9.8125 71.09375 
Q 15.4375 72.65625 20.34375 73.4375 
Q 25.25 74.21875 29.59375 74.21875 
Q 40.828125 74.21875 47.359375 69.109375 
Q 53.90625 64.015625 53.90625 55.328125 
Q 53.90625 49.265625 50.4375 45.09375 
Q 46.96875 40.921875 40.578125 39.3125 
z
" id="DejaVuSans-51"/>
     <path d="M 10.6875 12.40625 
L 21 12.40625 
L 21 0 
L 10.6875 0 
z
" id="DejaVuSans-46"/>
     <path d="M 31.78125 66.40625 
Q 24.171875 66.40625 20.328125 58.90625 
Q 16.5 51.421875 16.5 36.375 
Q 16.5 21.390625 20.328125 13.890625 
Q 24.171875 6.390625 31.78125 6.390625 
Q 39.453125 6.390625 43.28125 13.890625 
Q 47.125 21.390625 47.125 36.375 
Q 47.125 51.421875 43.28125 58.90625 
Q 39.453125 66.40625 31.78125 66.40625 
z
M 31.78125 74.21875 
Q 44.046875 74.21875 50.515625 64.515625 
Q 56.984375 54.828125 56.984375 36.375 
Q 56.984375 17.96875 50.515625 8.265625 
Q 44.046875 -1.421875 31.78125 -1.421875 
Q 19.53125 -1.421875 13.0625 8.265625 
Q 6.59375 17.96875 6.59375 36.375 
Q 6.59375 54.828125 13.0625 64.515625 
Q 19.53125 74.21875 31.78125 74.21875 
z
" id="DejaVuSans-48"/>
    </defs>
    <g transform="translate(200.664375 28.56)scale(0.12 -0.12)">
     <use xlink:href="#DejaVuSans-116"/>
     <use x="39.208984" xlink:href="#DejaVuSans-32"/>
     <use x="70.996094" xlink:href="#DejaVuSans-61"/>
     <use x="154.785156" xlink:href="#DejaVuSans-32"/>
     <use x="186.572266" xlink:href="#DejaVuSans-51"/>
     <use x="250.195312" xlink:href="#DejaVuSans-46"/>
     <use x="281.982422" xlink:href="#DejaVuSans-48"/>
    </g>
   </g>
  </g>
 </g>
 <defs>
  <clipPath id="p6ddbcdc76d">
   <rect height="217.44" width="334.8" x="54" y="34.56"/>
  </clipPath>
 </defs>
</svg>
