<?xml version="1.0" encoding="utf-8" standalone="no"?>
<!DOCTYPE svg PUBLIC "-//W3C//DTD SVG 1.1//EN"
  "http://www.w3.org/Graphics/SVG/1.1/DTD/svg11.dtd">
<!-- Created with matplotlib (https://matplotlib.org/) -->
<svg height="288pt" version="1.1" viewBox="0 0 432 288" width="432pt" xmlns="http://www.w3.org/2000/svg" xmlns:xlink="http://www.w3.org/1999/xlink">
 <defs>
  <style type="text/css">
*{stroke-linecap:butt;stroke-linejoin:round;}
  </style>
 </defs>
 <g id="figure_1">
  <g id="patch_1">
   <path d="M 0 288 
L 432 288 
L 432 0 
L 0 0 
z
" style="fill:#ffffff;"/>
  </g>
  <g id="axes_1">
   <g id="patch_2">
    <path clip-path="url(#p82482717d1)" d="M 194.720949 132.41224 
L 194.723536 143.28424 
L 193.636336 143.284499 
L 193.633749 132.412499 
z
" style="stroke:#000000;stroke-linejoin:miter;"/>
   </g>
   <g id="patch_3">
    <path clip-path="url(#p82482717d1)" d="M 249.080948 132.399304 
L 249.083535 143.271304 
L 247.996335 143.271563 
L 247.993748 132.399563 
z
" style="stroke:#000000;stroke-linejoin:miter;"/>
   </g>
   <g id="patch_4">
    <path clip-path="url(#p82482717d1)" d="M 212.297349 132.408058 
L 212.148452 131.856546 
L 211.704478 131.341182 
L 210.97272 130.895681 
L 209.965201 130.54919 
L 208.698467 130.324387 
L 207.193322 130.235989 
L 205.47448 130.289798 
L 203.570163 130.482313 
L 201.51164 130.800964 
L 199.332707 131.224932 
L 197.069136 131.72651 
L 194.758091 132.272917 
L 192.437511 132.828439 
L 190.145494 133.356766 
L 187.91967 133.823367 
L 185.79658 134.197747 
L 183.811081 134.455442 
L 181.995772 134.579621 
L 180.38046 134.562181 
L 178.991666 134.404282 
L 177.852198 134.116269 
L 176.980769 133.716993 
L 176.391692 133.232583 
L 176.094645 132.694729 
L 176.094513 132.138617 
L 176.391304 131.600621 
L 176.98015 131.11593 
L 177.851389 130.71624 
L 178.99072 130.427685 
L 180.379438 130.269125 
L 181.994742 130.250916 
L 183.81011 130.374231 
L 185.795731 130.630982 
L 187.918999 131.004351 
L 190.145045 131.469892 
L 192.437313 131.997128 
L 194.758157 132.551546 
L 197.069462 133.096853 
L 199.333271 133.597354 
L 201.512406 134.020285 
L 203.571081 134.337956 
L 205.475488 134.529564 
L 207.194356 134.582555 
L 208.69946 134.493441 
L 209.966086 134.268035 
L 210.97344 133.921065 
L 211.704985 133.475215 
L 212.148715 132.95964 
z
" style="fill:#0000ff;stroke:#000000;stroke-linejoin:miter;"/>
   </g>
   <g id="patch_5">
    <path clip-path="url(#p82482717d1)" d="M 266.657347 132.395122 
L 266.508451 131.843611 
L 266.064476 131.328247 
L 265.332719 130.882745 
L 264.3252 130.536254 
L 263.058466 130.311451 
L 261.55332 130.223053 
L 259.834478 130.276862 
L 257.930162 130.469377 
L 255.871638 130.788028 
L 253.692705 131.211996 
L 251.429135 131.713574 
L 249.118089 132.259981 
L 246.797509 132.815503 
L 244.505493 133.34383 
L 242.279668 133.810431 
L 240.156578 134.184811 
L 238.17108 134.442506 
L 236.355771 134.566685 
L 234.740458 134.549245 
L 233.351665 134.391346 
L 232.212197 134.103333 
L 231.340767 133.704057 
L 230.75169 133.219647 
L 230.454644 132.681793 
L 230.454511 132.125681 
L 230.751302 131.587686 
L 231.340148 131.102994 
L 232.211388 130.703304 
L 233.350718 130.414749 
L 234.739436 130.256189 
L 236.354741 130.23798 
L 238.170108 130.361295 
L 240.15573 130.618046 
L 242.278998 130.991415 
L 244.505044 131.456956 
L 246.797311 131.984192 
L 249.118155 132.53861 
L 251.429461 133.083917 
L 253.69327 133.584418 
L 255.872405 134.007349 
L 257.931079 134.32502 
L 259.835487 134.516628 
L 261.554355 134.569619 
L 263.059458 134.480505 
L 264.326085 134.255099 
L 265.333439 133.908129 
L 266.064984 133.462279 
L 266.508713 132.946704 
z
" style="fill:#0000ff;stroke:#000000;stroke-linejoin:miter;"/>
   </g>
   <g id="patch_6">
    <path clip-path="url(#p82482717d1)" d="M 253.975288 140.55214 
L 188.74329 140.567663 
L 188.744583 146.003663 
L 253.976581 145.98814 
z
" style="fill:#999999;stroke:#000000;stroke-linejoin:miter;"/>
   </g>
   <g id="text_1">
    <!-- t = 2.9 -->
    <defs>
     <path d="M 18.3125 70.21875 
L 18.3125 54.6875 
L 36.8125 54.6875 
L 36.8125 47.703125 
L 18.3125 47.703125 
L 18.3125 18.015625 
Q 18.3125 11.328125 20.140625 9.421875 
Q 21.96875 7.515625 27.59375 7.515625 
L 36.8125 7.515625 
L 36.8125 0 
L 27.59375 0 
Q 17.1875 0 13.234375 3.875 
Q 9.28125 7.765625 9.28125 18.015625 
L 9.28125 47.703125 
L 2.6875 47.703125 
L 2.6875 54.6875 
L 9.28125 54.6875 
L 9.28125 70.21875 
z
" id="DejaVuSans-116"/>
     <path id="DejaVuSans-32"/>
     <path d="M 10.59375 45.40625 
L 73.1875 45.40625 
L 73.1875 37.203125 
L 10.59375 37.203125 
z
M 10.59375 25.484375 
L 73.1875 25.484375 
L 73.1875 17.1875 
L 10.59375 17.1875 
z
" id="DejaVuSans-61"/>
     <path d="M 19.1875 8.296875 
L 53.609375 8.296875 
L 53.609375 0 
L 7.328125 0 
L 7.328125 8.296875 
Q 12.9375 14.109375 22.625 23.890625 
Q 32.328125 33.6875 34.8125 36.53125 
Q 39.546875 41.84375 41.421875 45.53125 
Q 43.3125 49.21875 43.3125 52.78125 
Q 43.3125 58.59375 39.234375 62.25 
Q 35.15625 65.921875 28.609375 65.921875 
Q 23.96875 65.921875 18.8125 64.3125 
Q 13.671875 62.703125 7.8125 59.421875 
L 7.8125 69.390625 
Q 13.765625 71.78125 18.9375 73 
Q 24.125 74.21875 28.421875 74.21875 
Q 39.75 74.21875 46.484375 68.546875 
Q 53.21875 62.890625 53.21875 53.421875 
Q 53.21875 48.921875 51.53125 44.890625 
Q 49.859375 40.875 45.40625 35.40625 
Q 44.1875 33.984375 37.640625 27.21875 
Q 31.109375 20.453125 19.1875 8.296875 
z
" id="DejaVuSans-50"/>
     <path d="M 10.6875 12.40625 
L 21 12.40625 
L 21 0 
L 10.6875 0 
z
" id="DejaVuSans-46"/>
     <path d="M 10.984375 1.515625 
L 10.984375 10.5 
Q 14.703125 8.734375 18.5 7.8125 
Q 22.3125 6.890625 25.984375 6.890625 
Q 35.75 6.890625 40.890625 13.453125 
Q 46.046875 20.015625 46.78125 33.40625 
Q 43.953125 29.203125 39.59375 26.953125 
Q 35.25 24.703125 29.984375 24.703125 
Q 19.046875 24.703125 12.671875 31.3125 
Q 6.296875 37.9375 6.296875 49.421875 
Q 6.296875 60.640625 12.9375 67.421875 
Q 19.578125 74.21875 30.609375 74.21875 
Q 43.265625 74.21875 49.921875 64.515625 
Q 56.59375 54.828125 56.59375 36.375 
Q 56.59375 19.140625 48.40625 8.859375 
Q 40.234375 -1.421875 26.421875 -1.421875 
Q 22.703125 -1.421875 18.890625 -0.6875 
Q 15.09375 0.046875 10.984375 1.515625 
z
M 30.609375 32.421875 
Q 37.25 32.421875 41.125 36.953125 
Q 45.015625 41.5 45.015625 49.421875 
Q 45.015625 57.28125 41.125 61.84375 
Q 37.25 66.40625 30.609375 66.40625 
Q 23.96875 66.40625 20.09375 61.84375 
Q 16.21875 57.28125 16.21875 49.421875 
Q 16.21875 41.5 20.09375 36.953125 
Q 23.96875 32.421875 30.609375 32.421875 
z
" id="DejaVuSans-57"/>
    </defs>
    <g transform="translate(200.664375 28.56)scale(0.12 -0.12)">
     <use xlink:href="#DejaVuSans-116"/>
     <use x="39.208984" xlink:href="#DejaVuSans-32"/>
     <use x="70.996094" xlink:href="#DejaVuSans-61"/>
     <use x="154.785156" xlink:href="#DejaVuSans-32"/>
     <use x="186.572266" xlink:href="#DejaVuSans-50"/>
     <use x="250.195312" xlink:href="#DejaVuSans-46"/>
     <use x="281.982422" xlink:href="#DejaVuSans-57"/>
    </g>
   </g>
  </g>
 </g>
 <defs>
  <clipPath id="p82482717d1">
   <rect height="217.44" width="334.8" x="54" y="34.56"/>
  </clipPath>
 </defs>
</svg>
