<?xml version="1.0" encoding="utf-8" standalone="no"?>
<!DOCTYPE svg PUBLIC "-//W3C//DTD SVG 1.1//EN"
  "http://www.w3.org/Graphics/SVG/1.1/DTD/svg11.dtd">
<!-- Created with matplotlib (https://matplotlib.org/) -->
<svg height="288pt" version="1.1" viewBox="0 0 432 288" width="432pt" xmlns="http://www.w3.org/2000/svg" xmlns:xlink="http://www.w3.org/1999/xlink">
 <defs>
  <style type="text/css">
*{stroke-linecap:butt;stroke-linejoin:round;}
  </style>
 </defs>
 <g id="figure_1">
  <g id="patch_1">
   <path d="M 0 288 
L 432 288 
L 432 0 
L 0 0 
z
" style="fill:#ffffff;"/>
  </g>
  <g id="axes_1">
   <g id="patch_2">
    <path clip-path="url(#pc45df96500)" d="M 160.365874 174.023978 
L 163.135527 184.537274 
L 162.084197 184.814239 
L 159.314544 174.300943 
z
" style="stroke:#000000;stroke-linejoin:miter;"/>
   </g>
   <g id="patch_3">
    <path clip-path="url(#pc45df96500)" d="M 212.932356 160.17571 
L 215.70201 170.689006 
L 214.65068 170.965972 
L 211.881026 160.452675 
z
" style="stroke:#000000;stroke-linejoin:miter;"/>
   </g>
   <g id="patch_4">
    <path clip-path="url(#pc45df96500)" d="M 177.36237 169.546371 
L 177.078006 169.05092 
L 176.517481 168.665529 
L 175.696433 168.420946 
L 174.633905 168.342301 
L 173.351672 168.447312 
L 171.873595 168.744917 
L 170.225055 169.234434 
L 168.432452 169.905298 
L 166.522825 170.737392 
L 164.523558 171.701981 
L 162.462196 172.763168 
L 160.366331 173.879789 
L 158.263566 175.007653 
L 156.181503 176.101946 
L 154.14774 177.1197 
L 152.189857 178.022121 
L 150.335335 178.776681 
L 148.611415 179.358804 
L 147.04486 179.75307 
L 145.661615 179.953848 
L 144.486368 179.965338 
L 143.542013 179.801009 
L 142.849043 179.482484 
L 142.424884 179.037947 
L 142.283214 178.500183 
L 142.433299 177.904366 
L 142.879389 177.285764 
L 143.620207 176.677488 
L 144.648573 176.108452 
L 145.9512 175.601656 
L 147.508673 175.172918 
L 149.295642 174.830122 
L 151.28122 174.573035 
L 153.429593 174.393693 
L 155.70082 174.277327 
L 158.051789 174.20377 
L 160.437312 174.149225 
L 162.811292 174.088298 
L 165.127935 173.99613 
L 167.34295 173.850497 
L 169.414681 173.63373 
L 171.30514 173.334317 
L 172.980888 172.948075 
L 174.413743 172.478815 
L 175.581285 171.938449 
L 176.467153 171.346513 
L 177.061128 170.729153 
L 177.35902 170.117618 
z
" style="fill:#0000ff;stroke:#000000;stroke-linejoin:miter;"/>
   </g>
   <g id="patch_5">
    <path clip-path="url(#pc45df96500)" d="M 229.928852 155.698103 
L 229.644488 155.202652 
L 229.083964 154.817261 
L 228.262916 154.572679 
L 227.200388 154.494034 
L 225.918154 154.599044 
L 224.440078 154.896649 
L 222.791537 155.386167 
L 220.998935 156.05703 
L 219.089307 156.889124 
L 217.090041 157.853714 
L 215.028678 158.9149 
L 212.932814 160.031522 
L 210.830049 161.159385 
L 208.747985 162.253679 
L 206.714223 163.271432 
L 204.756339 164.173853 
L 202.901818 164.928413 
L 201.177898 165.510537 
L 199.611343 165.904802 
L 198.228098 166.10558 
L 197.05285 166.11707 
L 196.108496 165.952741 
L 195.415526 165.634216 
L 194.991367 165.18968 
L 194.849696 164.651915 
L 194.999782 164.056098 
L 195.445872 163.437496 
L 196.186689 162.82922 
L 197.215055 162.260184 
L 198.517682 161.753388 
L 200.075156 161.32465 
L 201.862125 160.981855 
L 203.847702 160.724768 
L 205.996076 160.545425 
L 208.267302 160.429059 
L 210.618272 160.355502 
L 213.003795 160.300957 
L 215.377774 160.24003 
L 217.694418 160.147862 
L 219.909433 160.002229 
L 221.981164 159.785462 
L 223.871622 159.486049 
L 225.54737 159.099807 
L 226.980225 158.630548 
L 228.147768 158.090181 
L 229.033636 157.498245 
L 229.627611 156.880885 
L 229.925502 156.26935 
z
" style="fill:#0000ff;stroke:#000000;stroke-linejoin:miter;"/>
   </g>
   <g id="patch_6">
    <path clip-path="url(#pc45df96500)" d="M 219.74058 166.814338 
L 156.660801 183.432259 
L 158.045627 188.688908 
L 221.125406 172.070986 
z
" style="fill:#999999;stroke:#000000;stroke-linejoin:miter;"/>
   </g>
   <g id="text_1">
    <!-- t = 0.5 -->
    <defs>
     <path d="M 18.3125 70.21875 
L 18.3125 54.6875 
L 36.8125 54.6875 
L 36.8125 47.703125 
L 18.3125 47.703125 
L 18.3125 18.015625 
Q 18.3125 11.328125 20.140625 9.421875 
Q 21.96875 7.515625 27.59375 7.515625 
L 36.8125 7.515625 
L 36.8125 0 
L 27.59375 0 
Q 17.1875 0 13.234375 3.875 
Q 9.28125 7.765625 9.28125 18.015625 
L 9.28125 47.703125 
L 2.6875 47.703125 
L 2.6875 54.6875 
L 9.28125 54.6875 
L 9.28125 70.21875 
z
" id="DejaVuSans-116"/>
     <path id="DejaVuSans-32"/>
     <path d="M 10.59375 45.40625 
L 73.1875 45.40625 
L 73.1875 37.203125 
L 10.59375 37.203125 
z
M 10.59375 25.484375 
L 73.1875 25.484375 
L 73.1875 17.1875 
L 10.59375 17.1875 
z
" id="DejaVuSans-61"/>
     <path d="M 31.78125 66.40625 
Q 24.171875 66.40625 20.328125 58.90625 
Q 16.5 51.421875 16.5 36.375 
Q 16.5 21.390625 20.328125 13.890625 
Q 24.171875 6.390625 31.78125 6.390625 
Q 39.453125 6.390625 43.28125 13.890625 
Q 47.125 21.390625 47.125 36.375 
Q 47.125 51.421875 43.28125 58.90625 
Q 39.453125 66.40625 31.78125 66.40625 
z
M 31.78125 74.21875 
Q 44.046875 74.21875 50.515625 64.515625 
Q 56.984375 54.828125 56.984375 36.375 
Q 56.984375 17.96875 50.515625 8.265625 
Q 44.046875 -1.421875 31.78125 -1.421875 
Q 19.53125 -1.421875 13.0625 8.265625 
Q 6.59375 17.96875 6.59375 36.375 
Q 6.59375 54.828125 13.0625 64.515625 
Q 19.53125 74.21875 31.78125 74.21875 
z
" id="DejaVuSans-48"/>
     <path d="M 10.6875 12.40625 
L 21 12.40625 
L 21 0 
L 10.6875 0 
z
" id="DejaVuSans-46"/>
     <path d="M 10.796875 72.90625 
L 49.515625 72.90625 
L 49.515625 64.59375 
L 19.828125 64.59375 
L 19.828125 46.734375 
Q 21.96875 47.46875 24.109375 47.828125 
Q 26.265625 48.1875 28.421875 48.1875 
Q 40.625 48.1875 47.75 41.5 
Q 54.890625 34.8125 54.890625 23.390625 
Q 54.890625 11.625 47.5625 5.09375 
Q 40.234375 -1.421875 26.90625 -1.421875 
Q 22.3125 -1.421875 17.546875 -0.640625 
Q 12.796875 0.140625 7.71875 1.703125 
L 7.71875 11.625 
Q 12.109375 9.234375 16.796875 8.0625 
Q 21.484375 6.890625 26.703125 6.890625 
Q 35.15625 6.890625 40.078125 11.328125 
Q 45.015625 15.765625 45.015625 23.390625 
Q 45.015625 31 40.078125 35.4375 
Q 35.15625 39.890625 26.703125 39.890625 
Q 22.75 39.890625 18.8125 39.015625 
Q 14.890625 38.140625 10.796875 36.28125 
z
" id="DejaVuSans-53"/>
    </defs>
    <g transform="translate(200.664375 28.56)scale(0.12 -0.12)">
     <use xlink:href="#DejaVuSans-116"/>
     <use x="39.208984" xlink:href="#DejaVuSans-32"/>
     <use x="70.996094" xlink:href="#DejaVuSans-61"/>
     <use x="154.785156" xlink:href="#DejaVuSans-32"/>
     <use x="186.572266" xlink:href="#DejaVuSans-48"/>
     <use x="250.195312" xlink:href="#DejaVuSans-46"/>
     <use x="281.982422" xlink:href="#DejaVuSans-53"/>
    </g>
   </g>
  </g>
 </g>
 <defs>
  <clipPath id="pc45df96500">
   <rect height="217.44" width="334.8" x="54" y="34.56"/>
  </clipPath>
 </defs>
</svg>
