<?xml version="1.0" encoding="utf-8" standalone="no"?>
<!DOCTYPE svg PUBLIC "-//W3C//DTD SVG 1.1//EN"
  "http://www.w3.org/Graphics/SVG/1.1/DTD/svg11.dtd">
<!-- Created with matplotlib (https://matplotlib.org/) -->
<svg height="288pt" version="1.1" viewBox="0 0 432 288" width="432pt" xmlns="http://www.w3.org/2000/svg" xmlns:xlink="http://www.w3.org/1999/xlink">
 <defs>
  <style type="text/css">
*{stroke-linecap:butt;stroke-linejoin:round;}
  </style>
 </defs>
 <g id="figure_1">
  <g id="patch_1">
   <path d="M 0 288 
L 432 288 
L 432 0 
L 0 0 
z
" style="fill:#ffffff;"/>
  </g>
  <g id="axes_1">
   <g id="patch_2">
    <path clip-path="url(#pfe5bcd101d)" d="M 194.711673 132.463152 
L 194.727377 143.33514 
L 193.640179 143.336711 
L 193.624474 132.464722 
z
" style="stroke:#000000;stroke-linejoin:miter;"/>
   </g>
   <g id="patch_3">
    <path clip-path="url(#pfe5bcd101d)" d="M 249.071616 132.384628 
L 249.087321 143.256616 
L 248.000122 143.258187 
L 247.984417 132.386198 
z
" style="stroke:#000000;stroke-linejoin:miter;"/>
   </g>
   <g id="patch_4">
    <path clip-path="url(#pfe5bcd101d)" d="M 212.288054 132.437762 
L 212.138493 131.886431 
L 211.693896 131.371603 
L 210.961602 130.926985 
L 209.953666 130.58171 
L 208.686662 130.358435 
L 207.18141 130.271854 
L 205.462634 130.327736 
L 203.558552 130.522549 
L 201.500414 130.843683 
L 199.321994 131.27028 
L 197.05903 131.774589 
L 194.748646 132.323784 
L 192.428738 132.882105 
L 190.137361 133.413197 
L 187.912101 133.882483 
L 185.789464 134.259425 
L 183.804278 134.519516 
L 181.98912 134.645884 
L 180.373787 134.630393 
L 178.984805 134.47417 
L 177.84499 134.187532 
L 176.97308 133.789308 
L 176.383418 133.305609 
L 176.085723 132.768114 
L 176.08492 132.212002 
L 176.381061 131.673649 
L 176.969322 131.188248 
L 177.840079 130.787507 
L 178.97906 130.497577 
L 180.367586 130.337342 
L 181.982867 130.317184 
L 183.798382 130.438308 
L 185.784312 130.692663 
L 187.908029 131.063471 
L 190.134635 131.526326 
L 192.427537 132.050796 
L 194.749048 132.602412 
L 197.06101 133.14493 
L 199.325421 133.642699 
L 201.505065 134.063001 
L 203.564121 134.378188 
L 205.468759 134.567498 
L 207.187689 134.618415 
L 208.692684 134.527486 
L 209.959038 134.300551 
L 210.965972 133.952366 
L 211.696979 133.505634 
L 212.140086 132.989523 
z
" style="fill:#0000ff;stroke:#000000;stroke-linejoin:miter;"/>
   </g>
   <g id="patch_5">
    <path clip-path="url(#pfe5bcd101d)" d="M 266.647998 132.359238 
L 266.498436 131.807907 
L 266.05384 131.293079 
L 265.321545 130.848461 
L 264.313609 130.503186 
L 263.046605 130.279911 
L 261.541354 130.19333 
L 259.822578 130.249212 
L 257.918495 130.444025 
L 255.860358 130.765159 
L 253.681937 131.191756 
L 251.418974 131.696065 
L 249.108589 132.24526 
L 246.788681 132.803581 
L 244.497304 133.334673 
L 242.272044 133.803959 
L 240.149407 134.180901 
L 238.164221 134.440992 
L 236.349063 134.56736 
L 234.733731 134.551869 
L 233.344748 134.395646 
L 232.204933 134.109008 
L 231.333023 133.710784 
L 230.743362 133.227085 
L 230.445666 132.68959 
L 230.444863 132.133478 
L 230.741004 131.595125 
L 231.329266 131.109724 
L 232.200022 130.708983 
L 233.339004 130.419053 
L 234.727529 130.258818 
L 236.342811 130.23866 
L 238.158326 130.359784 
L 240.144255 130.614139 
L 242.267972 130.984947 
L 244.494578 131.447802 
L 246.787481 131.972272 
L 249.108992 132.523888 
L 251.420953 133.066406 
L 253.685364 133.564176 
L 255.865008 133.984477 
L 257.924065 134.299664 
L 259.828702 134.488974 
L 261.547632 134.539891 
L 263.052627 134.448962 
L 264.318981 134.222027 
L 265.325916 133.873842 
L 266.056922 133.42711 
L 266.500029 132.910999 
z
" style="fill:#0000ff;stroke:#000000;stroke-linejoin:miter;"/>
   </g>
   <g id="patch_6">
    <path clip-path="url(#pfe5bcd101d)" d="M 253.975789 140.531552 
L 188.743857 140.625781 
L 188.75171 146.061775 
L 253.983642 145.967546 
z
" style="fill:#999999;stroke:#000000;stroke-linejoin:miter;"/>
   </g>
   <g id="text_1">
    <!-- t = 2.8 -->
    <defs>
     <path d="M 18.3125 70.21875 
L 18.3125 54.6875 
L 36.8125 54.6875 
L 36.8125 47.703125 
L 18.3125 47.703125 
L 18.3125 18.015625 
Q 18.3125 11.328125 20.140625 9.421875 
Q 21.96875 7.515625 27.59375 7.515625 
L 36.8125 7.515625 
L 36.8125 0 
L 27.59375 0 
Q 17.1875 0 13.234375 3.875 
Q 9.28125 7.765625 9.28125 18.015625 
L 9.28125 47.703125 
L 2.6875 47.703125 
L 2.6875 54.6875 
L 9.28125 54.6875 
L 9.28125 70.21875 
z
" id="DejaVuSans-116"/>
     <path id="DejaVuSans-32"/>
     <path d="M 10.59375 45.40625 
L 73.1875 45.40625 
L 73.1875 37.203125 
L 10.59375 37.203125 
z
M 10.59375 25.484375 
L 73.1875 25.484375 
L 73.1875 17.1875 
L 10.59375 17.1875 
z
" id="DejaVuSans-61"/>
     <path d="M 19.1875 8.296875 
L 53.609375 8.296875 
L 53.609375 0 
L 7.328125 0 
L 7.328125 8.296875 
Q 12.9375 14.109375 22.625 23.890625 
Q 32.328125 33.6875 34.8125 36.53125 
Q 39.546875 41.84375 41.421875 45.53125 
Q 43.3125 49.21875 43.3125 52.78125 
Q 43.3125 58.59375 39.234375 62.25 
Q 35.15625 65.921875 28.609375 65.921875 
Q 23.96875 65.921875 18.8125 64.3125 
Q 13.671875 62.703125 7.8125 59.421875 
L 7.8125 69.390625 
Q 13.765625 71.78125 18.9375 73 
Q 24.125 74.21875 28.421875 74.21875 
Q 39.75 74.21875 46.484375 68.546875 
Q 53.21875 62.890625 53.21875 53.421875 
Q 53.21875 48.921875 51.53125 44.890625 
Q 49.859375 40.875 45.40625 35.40625 
Q 44.1875 33.984375 37.640625 27.21875 
Q 31.109375 20.453125 19.1875 8.296875 
z
" id="DejaVuSans-50"/>
     <path d="M 10.6875 12.40625 
L 21 12.40625 
L 21 0 
L 10.6875 0 
z
" id="DejaVuSans-46"/>
     <path d="M 31.78125 34.625 
Q 24.75 34.625 20.71875 30.859375 
Q 16.703125 27.09375 16.703125 20.515625 
Q 16.703125 13.921875 20.71875 10.15625 
Q 24.75 6.390625 31.78125 6.390625 
Q 38.8125 6.390625 42.859375 10.171875 
Q 46.921875 13.96875 46.921875 20.515625 
Q 46.921875 27.09375 42.890625 30.859375 
Q 38.875 34.625 31.78125 34.625 
z
M 21.921875 38.8125 
Q 15.578125 40.375 12.03125 44.71875 
Q 8.5 49.078125 8.5 55.328125 
Q 8.5 64.0625 14.71875 69.140625 
Q 20.953125 74.21875 31.78125 74.21875 
Q 42.671875 74.21875 48.875 69.140625 
Q 55.078125 64.0625 55.078125 55.328125 
Q 55.078125 49.078125 51.53125 44.71875 
Q 48 40.375 41.703125 38.8125 
Q 48.828125 37.15625 52.796875 32.3125 
Q 56.78125 27.484375 56.78125 20.515625 
Q 56.78125 9.90625 50.3125 4.234375 
Q 43.84375 -1.421875 31.78125 -1.421875 
Q 19.734375 -1.421875 13.25 4.234375 
Q 6.78125 9.90625 6.78125 20.515625 
Q 6.78125 27.484375 10.78125 32.3125 
Q 14.796875 37.15625 21.921875 38.8125 
z
M 18.3125 54.390625 
Q 18.3125 48.734375 21.84375 45.5625 
Q 25.390625 42.390625 31.78125 42.390625 
Q 38.140625 42.390625 41.71875 45.5625 
Q 45.3125 48.734375 45.3125 54.390625 
Q 45.3125 60.0625 41.71875 63.234375 
Q 38.140625 66.40625 31.78125 66.40625 
Q 25.390625 66.40625 21.84375 63.234375 
Q 18.3125 60.0625 18.3125 54.390625 
z
" id="DejaVuSans-56"/>
    </defs>
    <g transform="translate(200.664375 28.56)scale(0.12 -0.12)">
     <use xlink:href="#DejaVuSans-116"/>
     <use x="39.208984" xlink:href="#DejaVuSans-32"/>
     <use x="70.996094" xlink:href="#DejaVuSans-61"/>
     <use x="154.785156" xlink:href="#DejaVuSans-32"/>
     <use x="186.572266" xlink:href="#DejaVuSans-50"/>
     <use x="250.195312" xlink:href="#DejaVuSans-46"/>
     <use x="281.982422" xlink:href="#DejaVuSans-56"/>
    </g>
   </g>
  </g>
 </g>
 <defs>
  <clipPath id="pfe5bcd101d">
   <rect height="217.44" width="334.8" x="54" y="34.56"/>
  </clipPath>
 </defs>
</svg>
