<?xml version="1.0" encoding="utf-8" standalone="no"?>
<!DOCTYPE svg PUBLIC "-//W3C//DTD SVG 1.1//EN"
  "http://www.w3.org/Graphics/SVG/1.1/DTD/svg11.dtd">
<!-- Created with matplotlib (https://matplotlib.org/) -->
<svg height="288pt" version="1.1" viewBox="0 0 432 288" width="432pt" xmlns="http://www.w3.org/2000/svg" xmlns:xlink="http://www.w3.org/1999/xlink">
 <defs>
  <style type="text/css">
*{stroke-linecap:butt;stroke-linejoin:round;}
  </style>
 </defs>
 <g id="figure_1">
  <g id="patch_1">
   <path d="M 0 288 
L 432 288 
L 432 0 
L 0 0 
z
" style="fill:#ffffff;"/>
  </g>
  <g id="axes_1">
   <g id="patch_2">
    <path clip-path="url(#p57215caa40)" d="M 195.391164 132.373376 
L 195.33108 143.24521 
L 194.243897 143.239202 
L 194.30398 132.367368 
z
" style="stroke:#000000;stroke-linejoin:miter;"/>
   </g>
   <g id="patch_3">
    <path clip-path="url(#p57215caa40)" d="M 249.750334 132.673792 
L 249.69025 143.545626 
L 248.603067 143.539618 
L 248.66315 132.667784 
z
" style="stroke:#000000;stroke-linejoin:miter;"/>
   </g>
   <g id="patch_4">
    <path clip-path="url(#p57215caa40)" d="M 212.967295 132.470511 
L 212.821581 131.91815 
L 212.380584 131.400236 
L 211.651407 130.950523 
L 210.645902 130.598231 
L 209.380485 130.366129 
L 207.875874 130.269057 
L 206.15675 130.312956 
L 204.251356 130.494491 
L 202.19103 130.801271 
L 200.009689 131.212671 
L 197.743264 131.701193 
L 195.429108 132.234269 
L 193.105364 132.776405 
L 190.81034 133.291511 
L 188.581863 133.745274 
L 186.45665 134.107409 
L 184.469699 134.353656 
L 182.653705 134.467368 
L 181.038519 134.440617 
L 179.650659 134.274715 
L 178.51287 133.980139 
L 177.643757 133.575846 
L 177.057482 133.088048 
L 176.763541 132.548491 
L 176.766614 131.992387 
L 177.066501 131.456112 
L 177.658132 130.974823 
L 178.53166 130.580162 
L 179.672636 130.298178 
L 181.062244 130.147626 
L 182.677627 130.138729 
L 184.492254 130.272506 
L 186.476362 130.540699 
L 188.597442 130.926301 
L 190.820768 131.404667 
L 193.109958 131.945107 
L 195.427568 132.512894 
L 197.735691 133.071515 
L 199.996578 133.585057 
L 202.173238 134.020542 
L 204.230048 134.350075 
L 206.133319 134.552658 
L 207.851853 134.615556 
L 209.357445 134.53512 
L 210.62535 134.317019 
L 211.634687 133.975861 
L 212.36879 133.534236 
L 212.815484 133.021227 
z
" style="fill:#0000ff;stroke:#000000;stroke-linejoin:miter;"/>
   </g>
   <g id="patch_5">
    <path clip-path="url(#p57215caa40)" d="M 267.326465 132.770927 
L 267.180751 132.218566 
L 266.739754 131.700652 
L 266.010577 131.250939 
L 265.005072 130.898647 
L 263.739655 130.666545 
L 262.235044 130.569473 
L 260.51592 130.613372 
L 258.610526 130.794907 
L 256.5502 131.101687 
L 254.368858 131.513087 
L 252.102434 132.001609 
L 249.788277 132.534685 
L 247.464534 133.076821 
L 245.16951 133.591927 
L 242.941033 134.04569 
L 240.81582 134.407825 
L 238.828869 134.654072 
L 237.012875 134.767784 
L 235.397689 134.741033 
L 234.009829 134.575131 
L 232.87204 134.280555 
L 232.002927 133.876262 
L 231.416652 133.388464 
L 231.122711 132.848907 
L 231.125784 132.292803 
L 231.425671 131.756528 
L 232.017302 131.275239 
L 232.89083 130.880578 
L 234.031805 130.598594 
L 235.421414 130.448042 
L 237.036797 130.439145 
L 238.851423 130.572922 
L 240.835532 130.841115 
L 242.956612 131.226717 
L 245.179938 131.705083 
L 247.469128 132.245523 
L 249.786738 132.81331 
L 252.094861 133.371931 
L 254.355747 133.885473 
L 256.532408 134.320958 
L 258.589218 134.650491 
L 260.492489 134.853074 
L 262.211023 134.915972 
L 263.716615 134.835536 
L 264.98452 134.617435 
L 265.993857 134.276277 
L 266.72796 133.834652 
L 267.174654 133.321643 
z
" style="fill:#0000ff;stroke:#000000;stroke-linejoin:miter;"/>
   </g>
   <g id="patch_6">
    <path clip-path="url(#p57215caa40)" d="M 254.597596 140.854705 
L 189.366593 140.494206 
L 189.336551 145.930123 
L 254.567555 146.290622 
z
" style="fill:#999999;stroke:#000000;stroke-linejoin:miter;"/>
   </g>
   <g id="text_1">
    <!-- t = 2.3 -->
    <defs>
     <path d="M 18.3125 70.21875 
L 18.3125 54.6875 
L 36.8125 54.6875 
L 36.8125 47.703125 
L 18.3125 47.703125 
L 18.3125 18.015625 
Q 18.3125 11.328125 20.140625 9.421875 
Q 21.96875 7.515625 27.59375 7.515625 
L 36.8125 7.515625 
L 36.8125 0 
L 27.59375 0 
Q 17.1875 0 13.234375 3.875 
Q 9.28125 7.765625 9.28125 18.015625 
L 9.28125 47.703125 
L 2.6875 47.703125 
L 2.6875 54.6875 
L 9.28125 54.6875 
L 9.28125 70.21875 
z
" id="DejaVuSans-116"/>
     <path id="DejaVuSans-32"/>
     <path d="M 10.59375 45.40625 
L 73.1875 45.40625 
L 73.1875 37.203125 
L 10.59375 37.203125 
z
M 10.59375 25.484375 
L 73.1875 25.484375 
L 73.1875 17.1875 
L 10.59375 17.1875 
z
" id="DejaVuSans-61"/>
     <path d="M 19.1875 8.296875 
L 53.609375 8.296875 
L 53.609375 0 
L 7.328125 0 
L 7.328125 8.296875 
Q 12.9375 14.109375 22.625 23.890625 
Q 32.328125 33.6875 34.8125 36.53125 
Q 39.546875 41.84375 41.421875 45.53125 
Q 43.3125 49.21875 43.3125 52.78125 
Q 43.3125 58.59375 39.234375 62.25 
Q 35.15625 65.921875 28.609375 65.921875 
Q 23.96875 65.921875 18.8125 64.3125 
Q 13.671875 62.703125 7.8125 59.421875 
L 7.8125 69.390625 
Q 13.765625 71.78125 18.9375 73 
Q 24.125 74.21875 28.421875 74.21875 
Q 39.75 74.21875 46.484375 68.546875 
Q 53.21875 62.890625 53.21875 53.421875 
Q 53.21875 48.921875 51.53125 44.890625 
Q 49.859375 40.875 45.40625 35.40625 
Q 44.1875 33.984375 37.640625 27.21875 
Q 31.109375 20.453125 19.1875 8.296875 
z
" id="DejaVuSans-50"/>
     <path d="M 10.6875 12.40625 
L 21 12.40625 
L 21 0 
L 10.6875 0 
z
" id="DejaVuSans-46"/>
     <path d="M 40.578125 39.3125 
Q 47.65625 37.796875 51.625 33 
Q 55.609375 28.21875 55.609375 21.1875 
Q 55.609375 10.40625 48.1875 4.484375 
Q 40.765625 -1.421875 27.09375 -1.421875 
Q 22.515625 -1.421875 17.65625 -0.515625 
Q 12.796875 0.390625 7.625 2.203125 
L 7.625 11.71875 
Q 11.71875 9.328125 16.59375 8.109375 
Q 21.484375 6.890625 26.8125 6.890625 
Q 36.078125 6.890625 40.9375 10.546875 
Q 45.796875 14.203125 45.796875 21.1875 
Q 45.796875 27.640625 41.28125 31.265625 
Q 36.765625 34.90625 28.71875 34.90625 
L 20.21875 34.90625 
L 20.21875 43.015625 
L 29.109375 43.015625 
Q 36.375 43.015625 40.234375 45.921875 
Q 44.09375 48.828125 44.09375 54.296875 
Q 44.09375 59.90625 40.109375 62.90625 
Q 36.140625 65.921875 28.71875 65.921875 
Q 24.65625 65.921875 20.015625 65.03125 
Q 15.375 64.15625 9.8125 62.3125 
L 9.8125 71.09375 
Q 15.4375 72.65625 20.34375 73.4375 
Q 25.25 74.21875 29.59375 74.21875 
Q 40.828125 74.21875 47.359375 69.109375 
Q 53.90625 64.015625 53.90625 55.328125 
Q 53.90625 49.265625 50.4375 45.09375 
Q 46.96875 40.921875 40.578125 39.3125 
z
" id="DejaVuSans-51"/>
    </defs>
    <g transform="translate(200.664375 28.56)scale(0.12 -0.12)">
     <use xlink:href="#DejaVuSans-116"/>
     <use x="39.208984" xlink:href="#DejaVuSans-32"/>
     <use x="70.996094" xlink:href="#DejaVuSans-61"/>
     <use x="154.785156" xlink:href="#DejaVuSans-32"/>
     <use x="186.572266" xlink:href="#DejaVuSans-50"/>
     <use x="250.195312" xlink:href="#DejaVuSans-46"/>
     <use x="281.982422" xlink:href="#DejaVuSans-51"/>
    </g>
   </g>
  </g>
 </g>
 <defs>
  <clipPath id="p57215caa40">
   <rect height="217.44" width="334.8" x="54" y="34.56"/>
  </clipPath>
 </defs>
</svg>
