<?xml version="1.0" encoding="utf-8" standalone="no"?>
<!DOCTYPE svg PUBLIC "-//W3C//DTD SVG 1.1//EN"
  "http://www.w3.org/Graphics/SVG/1.1/DTD/svg11.dtd">
<!-- Created with matplotlib (https://matplotlib.org/) -->
<svg height="288pt" version="1.1" viewBox="0 0 432 288" width="432pt" xmlns="http://www.w3.org/2000/svg" xmlns:xlink="http://www.w3.org/1999/xlink">
 <defs>
  <style type="text/css">
*{stroke-linecap:butt;stroke-linejoin:round;}
  </style>
 </defs>
 <g id="figure_1">
  <g id="patch_1">
   <path d="M 0 288 
L 432 288 
L 432 0 
L 0 0 
z
" style="fill:#ffffff;"/>
  </g>
  <g id="axes_1">
   <g id="patch_2">
    <path clip-path="url(#peabca8b886)" d="M 194.813328 132.143889 
L 194.747689 143.01569 
L 193.660509 143.009127 
L 193.726148 132.137325 
z
" style="stroke:#000000;stroke-linejoin:miter;"/>
   </g>
   <g id="patch_3">
    <path clip-path="url(#peabca8b886)" d="M 249.172338 132.472085 
L 249.106698 143.343887 
L 248.019518 143.337323 
L 248.085157 132.465521 
z
" style="stroke:#000000;stroke-linejoin:miter;"/>
   </g>
   <g id="patch_4">
    <path clip-path="url(#peabca8b886)" d="M 212.389408 132.250005 
L 212.243976 131.697571 
L 211.803244 131.179431 
L 211.074297 130.729346 
L 210.068972 130.376539 
L 208.803674 130.143791 
L 207.299112 130.04595 
L 205.579966 130.088971 
L 203.67448 130.269532 
L 201.613997 130.575258 
L 199.432446 130.985544 
L 197.165772 131.472908 
L 194.851343 132.004801 
L 192.527323 132.54575 
L 190.232036 133.059683 
L 188.003328 133.512306 
L 185.87793 133.873356 
L 183.890853 134.118586 
L 182.074801 134.231371 
L 180.459629 134.203794 
L 179.071854 134.037183 
L 177.934216 133.742025 
L 177.06531 133.337289 
L 176.479284 132.849191 
L 176.185619 132.309484 
L 176.188976 131.753382 
L 176.489137 131.21726 
L 177.081013 130.736273 
L 177.954744 130.342058 
L 179.095863 130.060658 
L 180.485549 129.910816 
L 182.100935 129.902745 
L 183.915493 130.037449 
L 185.899464 130.306655 
L 188.020347 130.693342 
L 190.243428 131.172844 
L 192.532342 131.714454 
L 194.849661 132.283425 
L 197.157499 132.843225 
L 199.418122 133.357923 
L 201.59456 133.794521 
L 203.651201 134.125105 
L 205.554369 134.32866 
L 207.27287 134.392436 
L 208.778503 134.31277 
L 210.046519 134.095316 
L 211.056031 133.754675 
L 211.79036 133.313424 
L 212.237316 132.800644 
z
" style="fill:#0000ff;stroke:#000000;stroke-linejoin:miter;"/>
   </g>
   <g id="patch_5">
    <path clip-path="url(#peabca8b886)" d="M 266.748417 132.578202 
L 266.602985 132.025767 
L 266.162253 131.507627 
L 265.433306 131.057542 
L 264.427981 130.704736 
L 263.162683 130.471987 
L 261.658122 130.374146 
L 259.938976 130.417167 
L 258.033489 130.597728 
L 255.973006 130.903455 
L 253.791455 131.31374 
L 251.524782 131.801104 
L 249.210353 132.332998 
L 246.886332 132.873946 
L 244.591046 133.387879 
L 242.362337 133.840503 
L 240.236939 134.201552 
L 238.249863 134.446783 
L 236.43381 134.559567 
L 234.818639 134.531991 
L 233.430864 134.36538 
L 232.293225 134.070221 
L 231.424319 133.665485 
L 230.838293 133.177387 
L 230.544628 132.63768 
L 230.547985 132.081578 
L 230.848146 131.545456 
L 231.440023 131.06447 
L 232.313753 130.670255 
L 233.454872 130.388855 
L 234.844558 130.239013 
L 236.459945 130.230941 
L 238.274503 130.365645 
L 240.258474 130.634852 
L 242.379357 131.021538 
L 244.602438 131.50104 
L 246.891351 132.04265 
L 249.20867 132.611621 
L 251.516508 133.171422 
L 253.777132 133.686119 
L 255.95357 134.122717 
L 258.010211 134.453301 
L 259.913378 134.656856 
L 261.631879 134.720633 
L 263.137512 134.640966 
L 264.405528 134.423513 
L 265.41504 134.082871 
L 266.149369 133.641621 
L 266.596325 133.12884 
z
" style="fill:#0000ff;stroke:#000000;stroke-linejoin:miter;"/>
   </g>
   <g id="patch_6">
    <path clip-path="url(#peabca8b886)" d="M 254.015419 140.655474 
L 188.784608 140.261638 
L 188.751788 145.697539 
L 253.982599 146.091375 
z
" style="fill:#999999;stroke:#000000;stroke-linejoin:miter;"/>
   </g>
   <g id="text_1">
    <!-- t = 1.8 -->
    <defs>
     <path d="M 18.3125 70.21875 
L 18.3125 54.6875 
L 36.8125 54.6875 
L 36.8125 47.703125 
L 18.3125 47.703125 
L 18.3125 18.015625 
Q 18.3125 11.328125 20.140625 9.421875 
Q 21.96875 7.515625 27.59375 7.515625 
L 36.8125 7.515625 
L 36.8125 0 
L 27.59375 0 
Q 17.1875 0 13.234375 3.875 
Q 9.28125 7.765625 9.28125 18.015625 
L 9.28125 47.703125 
L 2.6875 47.703125 
L 2.6875 54.6875 
L 9.28125 54.6875 
L 9.28125 70.21875 
z
" id="DejaVuSans-116"/>
     <path id="DejaVuSans-32"/>
     <path d="M 10.59375 45.40625 
L 73.1875 45.40625 
L 73.1875 37.203125 
L 10.59375 37.203125 
z
M 10.59375 25.484375 
L 73.1875 25.484375 
L 73.1875 17.1875 
L 10.59375 17.1875 
z
" id="DejaVuSans-61"/>
     <path d="M 12.40625 8.296875 
L 28.515625 8.296875 
L 28.515625 63.921875 
L 10.984375 60.40625 
L 10.984375 69.390625 
L 28.421875 72.90625 
L 38.28125 72.90625 
L 38.28125 8.296875 
L 54.390625 8.296875 
L 54.390625 0 
L 12.40625 0 
z
" id="DejaVuSans-49"/>
     <path d="M 10.6875 12.40625 
L 21 12.40625 
L 21 0 
L 10.6875 0 
z
" id="DejaVuSans-46"/>
     <path d="M 31.78125 34.625 
Q 24.75 34.625 20.71875 30.859375 
Q 16.703125 27.09375 16.703125 20.515625 
Q 16.703125 13.921875 20.71875 10.15625 
Q 24.75 6.390625 31.78125 6.390625 
Q 38.8125 6.390625 42.859375 10.171875 
Q 46.921875 13.96875 46.921875 20.515625 
Q 46.921875 27.09375 42.890625 30.859375 
Q 38.875 34.625 31.78125 34.625 
z
M 21.921875 38.8125 
Q 15.578125 40.375 12.03125 44.71875 
Q 8.5 49.078125 8.5 55.328125 
Q 8.5 64.0625 14.71875 69.140625 
Q 20.953125 74.21875 31.78125 74.21875 
Q 42.671875 74.21875 48.875 69.140625 
Q 55.078125 64.0625 55.078125 55.328125 
Q 55.078125 49.078125 51.53125 44.71875 
Q 48 40.375 41.703125 38.8125 
Q 48.828125 37.15625 52.796875 32.3125 
Q 56.78125 27.484375 56.78125 20.515625 
Q 56.78125 9.90625 50.3125 4.234375 
Q 43.84375 -1.421875 31.78125 -1.421875 
Q 19.734375 -1.421875 13.25 4.234375 
Q 6.78125 9.90625 6.78125 20.515625 
Q 6.78125 27.484375 10.78125 32.3125 
Q 14.796875 37.15625 21.921875 38.8125 
z
M 18.3125 54.390625 
Q 18.3125 48.734375 21.84375 45.5625 
Q 25.390625 42.390625 31.78125 42.390625 
Q 38.140625 42.390625 41.71875 45.5625 
Q 45.3125 48.734375 45.3125 54.390625 
Q 45.3125 60.0625 41.71875 63.234375 
Q 38.140625 66.40625 31.78125 66.40625 
Q 25.390625 66.40625 21.84375 63.234375 
Q 18.3125 60.0625 18.3125 54.390625 
z
" id="DejaVuSans-56"/>
    </defs>
    <g transform="translate(200.664375 28.56)scale(0.12 -0.12)">
     <use xlink:href="#DejaVuSans-116"/>
     <use x="39.208984" xlink:href="#DejaVuSans-32"/>
     <use x="70.996094" xlink:href="#DejaVuSans-61"/>
     <use x="154.785156" xlink:href="#DejaVuSans-32"/>
     <use x="186.572266" xlink:href="#DejaVuSans-49"/>
     <use x="250.195312" xlink:href="#DejaVuSans-46"/>
     <use x="281.982422" xlink:href="#DejaVuSans-56"/>
    </g>
   </g>
  </g>
 </g>
 <defs>
  <clipPath id="peabca8b886">
   <rect height="217.44" width="334.8" x="54" y="34.56"/>
  </clipPath>
 </defs>
</svg>
