<?xml version="1.0" encoding="utf-8" standalone="no"?>
<!DOCTYPE svg PUBLIC "-//W3C//DTD SVG 1.1//EN"
  "http://www.w3.org/Graphics/SVG/1.1/DTD/svg11.dtd">
<!-- Created with matplotlib (https://matplotlib.org/) -->
<svg height="288pt" version="1.1" viewBox="0 0 432 288" width="432pt" xmlns="http://www.w3.org/2000/svg" xmlns:xlink="http://www.w3.org/1999/xlink">
 <defs>
  <style type="text/css">
*{stroke-linecap:butt;stroke-linejoin:round;}
  </style>
 </defs>
 <g id="figure_1">
  <g id="patch_1">
   <path d="M 0 288 
L 432 288 
L 432 0 
L 0 0 
z
" style="fill:#ffffff;"/>
  </g>
  <g id="axes_1">
   <g id="patch_2">
    <path clip-path="url(#p221bd05d52)" d="M 194.744106 132.408893 
L 194.743912 143.280893 
L 193.656712 143.280873 
L 193.656906 132.408873 
z
" style="stroke:#000000;stroke-linejoin:miter;"/>
   </g>
   <g id="patch_3">
    <path clip-path="url(#p221bd05d52)" d="M 249.104106 132.409863 
L 249.103912 143.281863 
L 248.016712 143.281844 
L 248.016906 132.409844 
z
" style="stroke:#000000;stroke-linejoin:miter;"/>
   </g>
   <g id="patch_4">
    <path clip-path="url(#p221bd05d52)" d="M 212.320506 132.409206 
L 212.171751 131.857657 
L 211.727908 131.34218 
L 210.996264 130.896491 
L 209.988834 130.549742 
L 208.722158 130.324615 
L 207.217035 130.235833 
L 205.498179 130.289201 
L 203.593813 130.481229 
L 201.535209 130.799353 
L 199.356167 131.222764 
L 197.092468 131.723763 
L 194.781283 132.269579 
L 192.460561 132.824507 
L 190.16841 133.352248 
L 187.942466 133.818279 
L 185.81928 134.192116 
L 183.833715 134.449304 
L 182.018375 134.573018 
L 180.403067 134.555165 
L 179.014314 134.396911 
L 177.874919 134.108606 
L 177.003592 133.709107 
L 176.414639 133.224546 
L 176.11773 132.686616 
L 176.11774 132.130504 
L 176.414668 131.592585 
L 177.003639 131.108044 
L 177.87498 130.708577 
L 179.014385 130.420313 
L 180.403143 130.262109 
L 182.018452 130.244313 
L 183.833788 130.368092 
L 185.819344 130.625351 
L 187.942516 130.999263 
L 190.168443 131.465374 
L 192.460576 131.993197 
L 194.781278 132.548208 
L 197.092444 133.094106 
L 199.356124 133.595186 
L 201.535151 134.018674 
L 203.593745 134.336872 
L 205.498103 134.528968 
L 207.216957 134.582398 
L 208.722083 134.49367 
L 209.988767 134.268587 
L 210.99621 133.921875 
L 211.72787 133.476212 
L 212.171731 132.96075 
z
" style="fill:#0000ff;stroke:#000000;stroke-linejoin:miter;"/>
   </g>
   <g id="patch_5">
    <path clip-path="url(#p221bd05d52)" d="M 266.680506 132.410177 
L 266.531751 131.858628 
L 266.087908 131.34315 
L 265.356264 130.897461 
L 264.348834 130.550713 
L 263.082158 130.325585 
L 261.577035 130.236803 
L 259.858179 130.290172 
L 257.953813 130.4822 
L 255.895209 130.800324 
L 253.716167 131.223735 
L 251.452468 131.724734 
L 249.141283 132.27055 
L 246.820561 132.825478 
L 244.52841 133.353218 
L 242.302466 133.81925 
L 240.17928 134.193086 
L 238.193715 134.450274 
L 236.378375 134.573988 
L 234.763067 134.556135 
L 233.374314 134.397881 
L 232.234919 134.109576 
L 231.363592 133.710078 
L 230.774639 133.225517 
L 230.47773 132.687587 
L 230.47774 132.131475 
L 230.774668 131.593555 
L 231.363639 131.109015 
L 232.23498 130.709548 
L 233.374385 130.421284 
L 234.763143 130.263079 
L 236.378452 130.245284 
L 238.193788 130.369063 
L 240.179344 130.626321 
L 242.302516 131.000234 
L 244.528443 131.466345 
L 246.820576 131.994167 
L 249.141278 132.549178 
L 251.452444 133.095076 
L 253.716124 133.596157 
L 255.895151 134.019645 
L 257.953745 134.337843 
L 259.858103 134.529939 
L 261.576957 134.583369 
L 263.082083 134.49464 
L 264.348767 134.269558 
L 265.35621 133.922846 
L 266.08787 133.477183 
L 266.531731 132.961721 
z
" style="fill:#0000ff;stroke:#000000;stroke-linejoin:miter;"/>
   </g>
   <g id="patch_6">
    <path clip-path="url(#p221bd05d52)" d="M 253.99636 140.563951 
L 188.76436 140.562786 
L 188.764263 145.998786 
L 253.996263 145.999951 
z
" style="fill:#999999;stroke:#000000;stroke-linejoin:miter;"/>
   </g>
   <g id="text_1">
    <!-- t = 3.5 -->
    <defs>
     <path d="M 18.3125 70.21875 
L 18.3125 54.6875 
L 36.8125 54.6875 
L 36.8125 47.703125 
L 18.3125 47.703125 
L 18.3125 18.015625 
Q 18.3125 11.328125 20.140625 9.421875 
Q 21.96875 7.515625 27.59375 7.515625 
L 36.8125 7.515625 
L 36.8125 0 
L 27.59375 0 
Q 17.1875 0 13.234375 3.875 
Q 9.28125 7.765625 9.28125 18.015625 
L 9.28125 47.703125 
L 2.6875 47.703125 
L 2.6875 54.6875 
L 9.28125 54.6875 
L 9.28125 70.21875 
z
" id="DejaVuSans-116"/>
     <path id="DejaVuSans-32"/>
     <path d="M 10.59375 45.40625 
L 73.1875 45.40625 
L 73.1875 37.203125 
L 10.59375 37.203125 
z
M 10.59375 25.484375 
L 73.1875 25.484375 
L 73.1875 17.1875 
L 10.59375 17.1875 
z
" id="DejaVuSans-61"/>
     <path d="M 40.578125 39.3125 
Q 47.65625 37.796875 51.625 33 
Q 55.609375 28.21875 55.609375 21.1875 
Q 55.609375 10.40625 48.1875 4.484375 
Q 40.765625 -1.421875 27.09375 -1.421875 
Q 22.515625 -1.421875 17.65625 -0.515625 
Q 12.796875 0.390625 7.625 2.203125 
L 7.625 11.71875 
Q 11.71875 9.328125 16.59375 8.109375 
Q 21.484375 6.890625 26.8125 6.890625 
Q 36.078125 6.890625 40.9375 10.546875 
Q 45.796875 14.203125 45.796875 21.1875 
Q 45.796875 27.640625 41.28125 31.265625 
Q 36.765625 34.90625 28.71875 34.90625 
L 20.21875 34.90625 
L 20.21875 43.015625 
L 29.109375 43.015625 
Q 36.375 43.015625 40.234375 45.921875 
Q 44.09375 48.828125 44.09375 54.296875 
Q 44.09375 59.90625 40.109375 62.90625 
Q 36.140625 65.921875 28.71875 65.921875 
Q 24.65625 65.921875 20.015625 65.03125 
Q 15.375 64.15625 9.8125 62.3125 
L 9.8125 71.09375 
Q 15.4375 72.65625 20.34375 73.4375 
Q 25.25 74.21875 29.59375 74.21875 
Q 40.828125 74.21875 47.359375 69.109375 
Q 53.90625 64.015625 53.90625 55.328125 
Q 53.90625 49.265625 50.4375 45.09375 
Q 46.96875 40.921875 40.578125 39.3125 
z
" id="DejaVuSans-51"/>
     <path d="M 10.6875 12.40625 
L 21 12.40625 
L 21 0 
L 10.6875 0 
z
" id="DejaVuSans-46"/>
     <path d="M 10.796875 72.90625 
L 49.515625 72.90625 
L 49.515625 64.59375 
L 19.828125 64.59375 
L 19.828125 46.734375 
Q 21.96875 47.46875 24.109375 47.828125 
Q 26.265625 48.1875 28.421875 48.1875 
Q 40.625 48.1875 47.75 41.5 
Q 54.890625 34.8125 54.890625 23.390625 
Q 54.890625 11.625 47.5625 5.09375 
Q 40.234375 -1.421875 26.90625 -1.421875 
Q 22.3125 -1.421875 17.546875 -0.640625 
Q 12.796875 0.140625 7.71875 1.703125 
L 7.71875 11.625 
Q 12.109375 9.234375 16.796875 8.0625 
Q 21.484375 6.890625 26.703125 6.890625 
Q 35.15625 6.890625 40.078125 11.328125 
Q 45.015625 15.765625 45.015625 23.390625 
Q 45.015625 31 40.078125 35.4375 
Q 35.15625 39.890625 26.703125 39.890625 
Q 22.75 39.890625 18.8125 39.015625 
Q 14.890625 38.140625 10.796875 36.28125 
z
" id="DejaVuSans-53"/>
    </defs>
    <g transform="translate(200.664375 28.56)scale(0.12 -0.12)">
     <use xlink:href="#DejaVuSans-116"/>
     <use x="39.208984" xlink:href="#DejaVuSans-32"/>
     <use x="70.996094" xlink:href="#DejaVuSans-61"/>
     <use x="154.785156" xlink:href="#DejaVuSans-32"/>
     <use x="186.572266" xlink:href="#DejaVuSans-51"/>
     <use x="250.195312" xlink:href="#DejaVuSans-46"/>
     <use x="281.982422" xlink:href="#DejaVuSans-53"/>
    </g>
   </g>
  </g>
 </g>
 <defs>
  <clipPath id="p221bd05d52">
   <rect height="217.44" width="334.8" x="54" y="34.56"/>
  </clipPath>
 </defs>
</svg>
