<?xml version="1.0" encoding="utf-8" standalone="no"?>
<!DOCTYPE svg PUBLIC "-//W3C//DTD SVG 1.1//EN"
  "http://www.w3.org/Graphics/SVG/1.1/DTD/svg11.dtd">
<!-- Created with matplotlib (https://matplotlib.org/) -->
<svg height="288pt" version="1.1" viewBox="0 0 432 288" width="432pt" xmlns="http://www.w3.org/2000/svg" xmlns:xlink="http://www.w3.org/1999/xlink">
 <defs>
  <style type="text/css">
*{stroke-linecap:butt;stroke-linejoin:round;}
  </style>
 </defs>
 <g id="figure_1">
  <g id="patch_1">
   <path d="M 0 288 
L 432 288 
L 432 0 
L 0 0 
z
" style="fill:#ffffff;"/>
  </g>
  <g id="axes_1">
   <g id="patch_2">
    <path clip-path="url(#p7ce760724f)" d="M 194.761739 132.408071 
L 194.761739 143.280071 
L 193.674539 143.280071 
L 193.674539 132.408071 
z
" style="stroke:#000000;stroke-linejoin:miter;"/>
   </g>
   <g id="patch_3">
    <path clip-path="url(#p7ce760724f)" d="M 249.121739 132.408071 
L 249.121739 143.280071 
L 248.034539 143.280071 
L 248.034539 132.408071 
z
" style="stroke:#000000;stroke-linejoin:miter;"/>
   </g>
   <g id="patch_4">
    <path clip-path="url(#p7ce760724f)" d="M 212.338139 132.408071 
L 212.189374 131.856524 
L 211.745522 131.341055 
L 211.013871 130.895379 
L 210.006434 130.548648 
L 208.739754 130.323543 
L 207.234629 130.234788 
L 205.515774 130.288187 
L 203.611412 130.480249 
L 201.552813 130.79841 
L 199.373779 131.22186 
L 197.110089 131.722899 
L 194.798914 132.268756 
L 192.478202 132.823726 
L 190.18606 133.351507 
L 187.960124 133.817578 
L 185.836945 134.191453 
L 183.851385 134.448676 
L 182.036047 134.572423 
L 180.420738 134.554599 
L 179.031983 134.396369 
L 177.892583 134.108085 
L 177.021249 133.708602 
L 176.432287 133.224051 
L 176.135369 132.686127 
L 176.135369 132.130014 
L 176.432287 131.59209 
L 177.021249 131.107539 
L 177.892583 130.708056 
L 179.031983 130.419772 
L 180.420738 130.261542 
L 182.036047 130.243718 
L 183.851385 130.367465 
L 185.836945 130.624688 
L 187.960124 130.998563 
L 190.18606 131.464634 
L 192.478202 131.992415 
L 194.798914 132.547385 
L 197.110089 133.093242 
L 199.373779 133.594282 
L 201.552813 134.017731 
L 203.611412 134.335892 
L 205.515774 134.527954 
L 207.234629 134.581354 
L 208.739754 134.492598 
L 210.006434 134.267493 
L 211.013871 133.920763 
L 211.745522 133.475087 
L 212.189374 132.959617 
z
" style="fill:#0000ff;stroke:#000000;stroke-linejoin:miter;"/>
   </g>
   <g id="patch_5">
    <path clip-path="url(#p7ce760724f)" d="M 266.698139 132.408071 
L 266.549374 131.856525 
L 266.105522 131.341055 
L 265.373871 130.895379 
L 264.366434 130.548649 
L 263.099754 130.323544 
L 261.594629 130.234788 
L 259.875774 130.288188 
L 257.971412 130.48025 
L 255.912813 130.798411 
L 253.733779 131.22186 
L 251.470089 131.7229 
L 249.158914 132.268757 
L 246.838202 132.823726 
L 244.54606 133.351508 
L 242.320124 133.817579 
L 240.196945 134.191454 
L 238.211385 134.448677 
L 236.396047 134.572423 
L 234.780738 134.554599 
L 233.391983 134.39637 
L 232.252583 134.108085 
L 231.381249 133.708603 
L 230.792287 133.224052 
L 230.495369 132.686127 
L 230.495369 132.130015 
L 230.792287 131.59209 
L 231.381249 131.107539 
L 232.252583 130.708057 
L 233.391983 130.419772 
L 234.780738 130.261543 
L 236.396047 130.243719 
L 238.211385 130.367465 
L 240.196945 130.624689 
L 242.320124 130.998563 
L 244.54606 131.464634 
L 246.838202 131.992416 
L 249.158914 132.547385 
L 251.470089 133.093242 
L 253.733779 133.594282 
L 255.912813 134.017732 
L 257.971412 134.335893 
L 259.875774 134.527955 
L 261.594629 134.581354 
L 263.099754 134.492599 
L 264.366434 134.267494 
L 265.373871 133.920763 
L 266.105522 133.475088 
L 266.549374 132.959618 
z
" style="fill:#0000ff;stroke:#000000;stroke-linejoin:miter;"/>
   </g>
   <g id="patch_6">
    <path clip-path="url(#p7ce760724f)" d="M 254.014139 140.562071 
L 188.782139 140.562071 
L 188.782139 145.998071 
L 254.014139 145.998071 
z
" style="fill:#999999;stroke:#000000;stroke-linejoin:miter;"/>
   </g>
   <g id="text_1">
    <!-- t = 4.0 -->
    <defs>
     <path d="M 18.3125 70.21875 
L 18.3125 54.6875 
L 36.8125 54.6875 
L 36.8125 47.703125 
L 18.3125 47.703125 
L 18.3125 18.015625 
Q 18.3125 11.328125 20.140625 9.421875 
Q 21.96875 7.515625 27.59375 7.515625 
L 36.8125 7.515625 
L 36.8125 0 
L 27.59375 0 
Q 17.1875 0 13.234375 3.875 
Q 9.28125 7.765625 9.28125 18.015625 
L 9.28125 47.703125 
L 2.6875 47.703125 
L 2.6875 54.6875 
L 9.28125 54.6875 
L 9.28125 70.21875 
z
" id="DejaVuSans-116"/>
     <path id="DejaVuSans-32"/>
     <path d="M 10.59375 45.40625 
L 73.1875 45.40625 
L 73.1875 37.203125 
L 10.59375 37.203125 
z
M 10.59375 25.484375 
L 73.1875 25.484375 
L 73.1875 17.1875 
L 10.59375 17.1875 
z
" id="DejaVuSans-61"/>
     <path d="M 37.796875 64.3125 
L 12.890625 25.390625 
L 37.796875 25.390625 
z
M 35.203125 72.90625 
L 47.609375 72.90625 
L 47.609375 25.390625 
L 58.015625 25.390625 
L 58.015625 17.1875 
L 47.609375 17.1875 
L 47.609375 0 
L 37.796875 0 
L 37.796875 17.1875 
L 4.890625 17.1875 
L 4.890625 26.703125 
z
" id="DejaVuSans-52"/>
     <path d="M 10.6875 12.40625 
L 21 12.40625 
L 21 0 
L 10.6875 0 
z
" id="DejaVuSans-46"/>
     <path d="M 31.78125 66.40625 
Q 24.171875 66.40625 20.328125 58.90625 
Q 16.5 51.421875 16.5 36.375 
Q 16.5 21.390625 20.328125 13.890625 
Q 24.171875 6.390625 31.78125 6.390625 
Q 39.453125 6.390625 43.28125 13.890625 
Q 47.125 21.390625 47.125 36.375 
Q 47.125 51.421875 43.28125 58.90625 
Q 39.453125 66.40625 31.78125 66.40625 
z
M 31.78125 74.21875 
Q 44.046875 74.21875 50.515625 64.515625 
Q 56.984375 54.828125 56.984375 36.375 
Q 56.984375 17.96875 50.515625 8.265625 
Q 44.046875 -1.421875 31.78125 -1.421875 
Q 19.53125 -1.421875 13.0625 8.265625 
Q 6.59375 17.96875 6.59375 36.375 
Q 6.59375 54.828125 13.0625 64.515625 
Q 19.53125 74.21875 31.78125 74.21875 
z
" id="DejaVuSans-48"/>
    </defs>
    <g transform="translate(200.664375 28.56)scale(0.12 -0.12)">
     <use xlink:href="#DejaVuSans-116"/>
     <use x="39.208984" xlink:href="#DejaVuSans-32"/>
     <use x="70.996094" xlink:href="#DejaVuSans-61"/>
     <use x="154.785156" xlink:href="#DejaVuSans-32"/>
     <use x="186.572266" xlink:href="#DejaVuSans-52"/>
     <use x="250.195312" xlink:href="#DejaVuSans-46"/>
     <use x="281.982422" xlink:href="#DejaVuSans-48"/>
    </g>
   </g>
  </g>
 </g>
 <defs>
  <clipPath id="p7ce760724f">
   <rect height="217.44" width="334.8" x="54" y="34.56"/>
  </clipPath>
 </defs>
</svg>
