<?xml version="1.0" encoding="utf-8" standalone="no"?>
<!DOCTYPE svg PUBLIC "-//W3C//DTD SVG 1.1//EN"
  "http://www.w3.org/Graphics/SVG/1.1/DTD/svg11.dtd">
<!-- Created with matplotlib (https://matplotlib.org/) -->
<svg height="288pt" version="1.1" viewBox="0 0 432 288" width="432pt" xmlns="http://www.w3.org/2000/svg" xmlns:xlink="http://www.w3.org/1999/xlink">
 <defs>
  <style type="text/css">
*{stroke-linecap:butt;stroke-linejoin:round;}
  </style>
 </defs>
 <g id="figure_1">
  <g id="patch_1">
   <path d="M 0 288 
L 432 288 
L 432 0 
L 0 0 
z
" style="fill:#ffffff;"/>
  </g>
  <g id="axes_1">
   <g id="patch_2">
    <path clip-path="url(#p83fe940418)" d="M 200.059307 139.698306 
L 198.040631 150.381252 
L 196.972337 150.179385 
L 198.991013 139.496439 
z
" style="stroke:#000000;stroke-linejoin:miter;"/>
   </g>
   <g id="patch_3">
    <path clip-path="url(#p83fe940418)" d="M 253.474036 149.791686 
L 251.45536 160.474632 
L 250.387066 160.272765 
L 252.405742 149.589819 
z
" style="stroke:#000000;stroke-linejoin:miter;"/>
   </g>
   <g id="patch_4">
    <path clip-path="url(#p83fe940418)" d="M 217.33007 142.961833 
L 217.286301 142.392255 
L 216.945878 141.803336 
L 216.309701 141.229559 
L 215.384162 140.701801 
L 214.181305 140.245417 
L 212.718833 139.878739 
L 211.019952 139.612059 
L 209.113044 139.447185 
L 207.031167 139.37758 
L 204.8114 139.38907 
L 202.494042 139.461083 
L 200.121703 139.568317 
L 197.738301 139.682734 
L 195.388021 139.775741 
L 193.114254 139.820404 
L 190.958575 139.793552 
L 188.959782 139.67763 
L 187.153034 139.462159 
L 185.569123 139.14472 
L 184.233896 138.731383 
L 183.167838 138.236552 
L 182.38583 137.682229 
L 181.897079 137.096748 
L 181.705204 136.513046 
L 181.808461 135.966604 
L 182.200096 135.493165 
L 182.868786 135.126396 
L 183.799144 134.895646 
L 184.972258 134.823935 
L 186.366244 134.926316 
L 187.956773 135.208727 
L 189.717567 135.667388 
L 191.62084 136.28881 
L 193.637679 137.050408 
L 195.738369 137.921679 
L 197.892656 138.86588 
L 200.069968 139.842101 
L 202.239601 140.807597 
L 204.370896 141.720238 
L 206.433415 142.54092 
L 208.397142 143.235782 
L 210.232727 143.7781 
L 211.911778 144.149722 
L 213.407209 144.341976 
L 214.69366 144.355978 
L 215.747958 144.202335 
L 216.549638 143.900259 
L 217.081482 143.476166 
z
" style="fill:#0000ff;stroke:#000000;stroke-linejoin:miter;"/>
   </g>
   <g id="patch_5">
    <path clip-path="url(#p83fe940418)" d="M 270.744799 153.055213 
L 270.70103 152.485635 
L 270.360607 151.896716 
L 269.72443 151.322939 
L 268.798891 150.795181 
L 267.596034 150.338797 
L 266.133562 149.972119 
L 264.434681 149.705439 
L 262.527773 149.540565 
L 260.445896 149.47096 
L 258.226129 149.48245 
L 255.908771 149.554463 
L 253.536432 149.661697 
L 251.15303 149.776115 
L 248.80275 149.869121 
L 246.528983 149.913784 
L 244.373304 149.886932 
L 242.374511 149.771011 
L 240.567763 149.555539 
L 238.983853 149.2381 
L 237.648625 148.824763 
L 236.582567 148.329932 
L 235.800559 147.775609 
L 235.311808 147.190128 
L 235.119933 146.606426 
L 235.22319 146.059984 
L 235.614825 145.586545 
L 236.283515 145.219776 
L 237.213873 144.989026 
L 238.386987 144.917315 
L 239.780973 145.019696 
L 241.371502 145.302107 
L 243.132296 145.760768 
L 245.035569 146.38219 
L 247.052408 147.143788 
L 249.153098 148.015059 
L 251.307385 148.95926 
L 253.484697 149.935481 
L 255.654331 150.900977 
L 257.785625 151.813618 
L 259.848144 152.6343 
L 261.811871 153.329162 
L 263.647456 153.87148 
L 265.326507 154.243102 
L 266.821938 154.435356 
L 268.108389 154.449358 
L 269.162687 154.295715 
L 269.964367 153.993639 
L 270.496211 153.569546 
z
" style="fill:#0000ff;stroke:#000000;stroke-linejoin:miter;"/>
   </g>
   <g id="patch_6">
    <path clip-path="url(#p83fe940418)" d="M 256.767355 158.7123 
L 192.66968 146.600244 
L 191.660342 151.941717 
L 255.758017 164.053773 
z
" style="fill:#999999;stroke:#000000;stroke-linejoin:miter;"/>
   </g>
   <g id="text_1">
    <!-- t = 0.9 -->
    <defs>
     <path d="M 18.3125 70.21875 
L 18.3125 54.6875 
L 36.8125 54.6875 
L 36.8125 47.703125 
L 18.3125 47.703125 
L 18.3125 18.015625 
Q 18.3125 11.328125 20.140625 9.421875 
Q 21.96875 7.515625 27.59375 7.515625 
L 36.8125 7.515625 
L 36.8125 0 
L 27.59375 0 
Q 17.1875 0 13.234375 3.875 
Q 9.28125 7.765625 9.28125 18.015625 
L 9.28125 47.703125 
L 2.6875 47.703125 
L 2.6875 54.6875 
L 9.28125 54.6875 
L 9.28125 70.21875 
z
" id="DejaVuSans-116"/>
     <path id="DejaVuSans-32"/>
     <path d="M 10.59375 45.40625 
L 73.1875 45.40625 
L 73.1875 37.203125 
L 10.59375 37.203125 
z
M 10.59375 25.484375 
L 73.1875 25.484375 
L 73.1875 17.1875 
L 10.59375 17.1875 
z
" id="DejaVuSans-61"/>
     <path d="M 31.78125 66.40625 
Q 24.171875 66.40625 20.328125 58.90625 
Q 16.5 51.421875 16.5 36.375 
Q 16.5 21.390625 20.328125 13.890625 
Q 24.171875 6.390625 31.78125 6.390625 
Q 39.453125 6.390625 43.28125 13.890625 
Q 47.125 21.390625 47.125 36.375 
Q 47.125 51.421875 43.28125 58.90625 
Q 39.453125 66.40625 31.78125 66.40625 
z
M 31.78125 74.21875 
Q 44.046875 74.21875 50.515625 64.515625 
Q 56.984375 54.828125 56.984375 36.375 
Q 56.984375 17.96875 50.515625 8.265625 
Q 44.046875 -1.421875 31.78125 -1.421875 
Q 19.53125 -1.421875 13.0625 8.265625 
Q 6.59375 17.96875 6.59375 36.375 
Q 6.59375 54.828125 13.0625 64.515625 
Q 19.53125 74.21875 31.78125 74.21875 
z
" id="DejaVuSans-48"/>
     <path d="M 10.6875 12.40625 
L 21 12.40625 
L 21 0 
L 10.6875 0 
z
" id="DejaVuSans-46"/>
     <path d="M 10.984375 1.515625 
L 10.984375 10.5 
Q 14.703125 8.734375 18.5 7.8125 
Q 22.3125 6.890625 25.984375 6.890625 
Q 35.75 6.890625 40.890625 13.453125 
Q 46.046875 20.015625 46.78125 33.40625 
Q 43.953125 29.203125 39.59375 26.953125 
Q 35.25 24.703125 29.984375 24.703125 
Q 19.046875 24.703125 12.671875 31.3125 
Q 6.296875 37.9375 6.296875 49.421875 
Q 6.296875 60.640625 12.9375 67.421875 
Q 19.578125 74.21875 30.609375 74.21875 
Q 43.265625 74.21875 49.921875 64.515625 
Q 56.59375 54.828125 56.59375 36.375 
Q 56.59375 19.140625 48.40625 8.859375 
Q 40.234375 -1.421875 26.421875 -1.421875 
Q 22.703125 -1.421875 18.890625 -0.6875 
Q 15.09375 0.046875 10.984375 1.515625 
z
M 30.609375 32.421875 
Q 37.25 32.421875 41.125 36.953125 
Q 45.015625 41.5 45.015625 49.421875 
Q 45.015625 57.28125 41.125 61.84375 
Q 37.25 66.40625 30.609375 66.40625 
Q 23.96875 66.40625 20.09375 61.84375 
Q 16.21875 57.28125 16.21875 49.421875 
Q 16.21875 41.5 20.09375 36.953125 
Q 23.96875 32.421875 30.609375 32.421875 
z
" id="DejaVuSans-57"/>
    </defs>
    <g transform="translate(200.664375 28.56)scale(0.12 -0.12)">
     <use xlink:href="#DejaVuSans-116"/>
     <use x="39.208984" xlink:href="#DejaVuSans-32"/>
     <use x="70.996094" xlink:href="#DejaVuSans-61"/>
     <use x="154.785156" xlink:href="#DejaVuSans-32"/>
     <use x="186.572266" xlink:href="#DejaVuSans-48"/>
     <use x="250.195312" xlink:href="#DejaVuSans-46"/>
     <use x="281.982422" xlink:href="#DejaVuSans-57"/>
    </g>
   </g>
  </g>
 </g>
 <defs>
  <clipPath id="p83fe940418">
   <rect height="217.44" width="334.8" x="54" y="34.56"/>
  </clipPath>
 </defs>
</svg>
