<?xml version="1.0" encoding="utf-8" standalone="no"?>
<!DOCTYPE svg PUBLIC "-//W3C//DTD SVG 1.1//EN"
  "http://www.w3.org/Graphics/SVG/1.1/DTD/svg11.dtd">
<!-- Created with matplotlib (https://matplotlib.org/) -->
<svg height="288pt" version="1.1" viewBox="0 0 432 288" width="432pt" xmlns="http://www.w3.org/2000/svg" xmlns:xlink="http://www.w3.org/1999/xlink">
 <defs>
  <style type="text/css">
*{stroke-linecap:butt;stroke-linejoin:round;}
  </style>
 </defs>
 <g id="figure_1">
  <g id="patch_1">
   <path d="M 0 288 
L 432 288 
L 432 0 
L 0 0 
z
" style="fill:#ffffff;"/>
  </g>
  <g id="axes_1">
   <g id="patch_2">
    <path clip-path="url(#p4bd33073d0)" d="M 195.750386 133.130218 
L 195.891705 144.001299 
L 194.804597 144.015431 
L 194.663278 133.144349 
z
" style="stroke:#000000;stroke-linejoin:miter;"/>
   </g>
   <g id="patch_3">
    <path clip-path="url(#p4bd33073d0)" d="M 250.105793 132.42362 
L 250.247113 143.294702 
L 249.160004 143.308834 
L 249.018685 132.437752 
z
" style="stroke:#000000;stroke-linejoin:miter;"/>
   </g>
   <g id="patch_4">
    <path clip-path="url(#p4bd33073d0)" d="M 213.325301 132.901751 
L 213.169379 132.352185 
L 212.718864 131.842528 
L 211.981482 131.4064 
L 210.969623 131.072794 
L 209.700124 130.864173 
L 208.193973 130.79499 
L 206.475957 130.870727 
L 204.574253 131.087527 
L 202.519963 131.432419 
L 200.346617 131.884157 
L 198.089631 132.414579 
L 195.785746 132.990432 
L 193.472444 133.57552 
L 191.187356 134.133052 
L 188.967667 134.628017 
L 186.849527 135.029458 
L 184.867478 135.312469 
L 183.053902 135.459802 
L 181.438498 135.462975 
L 180.047803 135.322811 
L 178.904753 135.049362 
L 178.028299 134.661239 
L 177.433089 134.184384 
L 177.129203 133.650365 
L 177.121975 133.094299 
L 177.411876 132.552561 
L 177.994489 132.060395 
L 178.860557 131.64962 
L 179.996113 131.34655 
L 181.382695 131.170282 
L 182.997635 131.131463 
L 184.814429 131.231602 
L 186.803165 131.462994 
L 188.931024 131.809239 
L 191.16283 132.246337 
L 193.461639 132.74428 
L 195.789368 133.269037 
L 198.107444 133.784806 
L 200.377455 134.256379 
L 202.561809 134.651468 
L 204.62437 134.942844 
L 206.531068 135.110136 
L 208.250472 135.141188 
L 209.754315 135.032876 
L 211.017962 134.791325 
L 212.020807 134.431529 
L 212.746603 133.97638 
L 213.183718 133.455185 
z
" style="fill:#0000ff;stroke:#000000;stroke-linejoin:miter;"/>
   </g>
   <g id="patch_5">
    <path clip-path="url(#p4bd33073d0)" d="M 267.680708 132.195154 
L 267.524787 131.645588 
L 267.074272 131.135931 
L 266.336889 130.699803 
L 265.325031 130.366197 
L 264.055531 130.157576 
L 262.54938 130.088393 
L 260.831365 130.16413 
L 258.92966 130.380929 
L 256.87537 130.725822 
L 254.702024 131.17756 
L 252.445039 131.707982 
L 250.141154 132.283835 
L 247.827852 132.868923 
L 245.542764 133.426454 
L 243.323074 133.92142 
L 241.204935 134.322861 
L 239.222886 134.605872 
L 237.409309 134.753204 
L 235.793906 134.756378 
L 234.40321 134.616214 
L 233.26016 134.342764 
L 232.383707 133.954641 
L 231.788496 133.477787 
L 231.484611 132.943767 
L 231.477382 132.387702 
L 231.767283 131.845964 
L 232.349897 131.353798 
L 233.215965 130.943023 
L 234.351521 130.639952 
L 235.738102 130.463685 
L 237.353043 130.424865 
L 239.169836 130.525005 
L 241.158572 130.756397 
L 243.286432 131.102642 
L 245.518237 131.53974 
L 247.817046 132.037683 
L 250.144775 132.56244 
L 252.462851 133.078209 
L 254.732862 133.549782 
L 256.917217 133.944871 
L 258.979778 134.236247 
L 260.886475 134.403538 
L 262.605879 134.434591 
L 264.109723 134.326279 
L 265.37337 134.084728 
L 266.376214 133.724932 
L 267.102011 133.269783 
L 267.539125 132.748588 
z
" style="fill:#0000ff;stroke:#000000;stroke-linejoin:miter;"/>
   </g>
   <g id="patch_6">
    <path clip-path="url(#p4bd33073d0)" d="M 255.103769 140.513338 
L 189.87728 141.361254 
L 189.94794 146.796795 
L 255.174429 145.948878 
z
" style="fill:#999999;stroke:#000000;stroke-linejoin:miter;"/>
   </g>
   <g id="text_1">
    <!-- t = 2.0 -->
    <defs>
     <path d="M 18.3125 70.21875 
L 18.3125 54.6875 
L 36.8125 54.6875 
L 36.8125 47.703125 
L 18.3125 47.703125 
L 18.3125 18.015625 
Q 18.3125 11.328125 20.140625 9.421875 
Q 21.96875 7.515625 27.59375 7.515625 
L 36.8125 7.515625 
L 36.8125 0 
L 27.59375 0 
Q 17.1875 0 13.234375 3.875 
Q 9.28125 7.765625 9.28125 18.015625 
L 9.28125 47.703125 
L 2.6875 47.703125 
L 2.6875 54.6875 
L 9.28125 54.6875 
L 9.28125 70.21875 
z
" id="DejaVuSans-116"/>
     <path id="DejaVuSans-32"/>
     <path d="M 10.59375 45.40625 
L 73.1875 45.40625 
L 73.1875 37.203125 
L 10.59375 37.203125 
z
M 10.59375 25.484375 
L 73.1875 25.484375 
L 73.1875 17.1875 
L 10.59375 17.1875 
z
" id="DejaVuSans-61"/>
     <path d="M 19.1875 8.296875 
L 53.609375 8.296875 
L 53.609375 0 
L 7.328125 0 
L 7.328125 8.296875 
Q 12.9375 14.109375 22.625 23.890625 
Q 32.328125 33.6875 34.8125 36.53125 
Q 39.546875 41.84375 41.421875 45.53125 
Q 43.3125 49.21875 43.3125 52.78125 
Q 43.3125 58.59375 39.234375 62.25 
Q 35.15625 65.921875 28.609375 65.921875 
Q 23.96875 65.921875 18.8125 64.3125 
Q 13.671875 62.703125 7.8125 59.421875 
L 7.8125 69.390625 
Q 13.765625 71.78125 18.9375 73 
Q 24.125 74.21875 28.421875 74.21875 
Q 39.75 74.21875 46.484375 68.546875 
Q 53.21875 62.890625 53.21875 53.421875 
Q 53.21875 48.921875 51.53125 44.890625 
Q 49.859375 40.875 45.40625 35.40625 
Q 44.1875 33.984375 37.640625 27.21875 
Q 31.109375 20.453125 19.1875 8.296875 
z
" id="DejaVuSans-50"/>
     <path d="M 10.6875 12.40625 
L 21 12.40625 
L 21 0 
L 10.6875 0 
z
" id="DejaVuSans-46"/>
     <path d="M 31.78125 66.40625 
Q 24.171875 66.40625 20.328125 58.90625 
Q 16.5 51.421875 16.5 36.375 
Q 16.5 21.390625 20.328125 13.890625 
Q 24.171875 6.390625 31.78125 6.390625 
Q 39.453125 6.390625 43.28125 13.890625 
Q 47.125 21.390625 47.125 36.375 
Q 47.125 51.421875 43.28125 58.90625 
Q 39.453125 66.40625 31.78125 66.40625 
z
M 31.78125 74.21875 
Q 44.046875 74.21875 50.515625 64.515625 
Q 56.984375 54.828125 56.984375 36.375 
Q 56.984375 17.96875 50.515625 8.265625 
Q 44.046875 -1.421875 31.78125 -1.421875 
Q 19.53125 -1.421875 13.0625 8.265625 
Q 6.59375 17.96875 6.59375 36.375 
Q 6.59375 54.828125 13.0625 64.515625 
Q 19.53125 74.21875 31.78125 74.21875 
z
" id="DejaVuSans-48"/>
    </defs>
    <g transform="translate(200.664375 28.56)scale(0.12 -0.12)">
     <use xlink:href="#DejaVuSans-116"/>
     <use x="39.208984" xlink:href="#DejaVuSans-32"/>
     <use x="70.996094" xlink:href="#DejaVuSans-61"/>
     <use x="154.785156" xlink:href="#DejaVuSans-32"/>
     <use x="186.572266" xlink:href="#DejaVuSans-50"/>
     <use x="250.195312" xlink:href="#DejaVuSans-46"/>
     <use x="281.982422" xlink:href="#DejaVuSans-48"/>
    </g>
   </g>
  </g>
 </g>
 <defs>
  <clipPath id="p4bd33073d0">
   <rect height="217.44" width="334.8" x="54" y="34.56"/>
  </clipPath>
 </defs>
</svg>
