<?xml version="1.0" encoding="utf-8" standalone="no"?>
<!DOCTYPE svg PUBLIC "-//W3C//DTD SVG 1.1//EN"
  "http://www.w3.org/Graphics/SVG/1.1/DTD/svg11.dtd">
<!-- Created with matplotlib (https://matplotlib.org/) -->
<svg height="288pt" version="1.1" viewBox="0 0 432 288" width="432pt" xmlns="http://www.w3.org/2000/svg" xmlns:xlink="http://www.w3.org/1999/xlink">
 <defs>
  <style type="text/css">
*{stroke-linecap:butt;stroke-linejoin:round;}
  </style>
 </defs>
 <g id="figure_1">
  <g id="patch_1">
   <path d="M 0 288 
L 432 288 
L 432 0 
L 0 0 
z
" style="fill:#ffffff;"/>
  </g>
  <g id="axes_1">
   <g id="patch_2">
    <path clip-path="url(#p3407c6749b)" d="M 197.123586 131.021588 
L 196.83286 141.8897 
L 195.746048 141.860628 
L 196.036774 130.992515 
z
" style="stroke:#000000;stroke-linejoin:miter;"/>
   </g>
   <g id="patch_3">
    <path clip-path="url(#p3407c6749b)" d="M 251.464147 132.475219 
L 251.17342 143.343331 
L 250.086609 143.314258 
L 250.377335 132.446146 
z
" style="stroke:#000000;stroke-linejoin:miter;"/>
   </g>
   <g id="patch_4">
    <path clip-path="url(#p3407c6749b)" d="M 214.6937 131.491595 
L 214.559737 130.936268 
L 214.129828 130.409114 
L 213.410356 129.944032 
L 212.412552 129.570486 
L 211.152344 129.31159 
L 209.650131 129.182618 
L 207.930463 129.190034 
L 206.021646 129.331103 
L 203.955275 129.594102 
L 201.765697 129.959131 
L 199.489418 130.399458 
L 197.164472 130.883318 
L 194.82975 131.376031 
L 192.524314 131.84233 
L 190.286712 132.248711 
L 188.154294 132.565677 
L 186.162566 132.769712 
L 184.344568 132.844871 
L 182.730313 132.783858 
L 181.346285 132.588549 
L 180.215002 132.269899 
L 179.354662 131.847259 
L 178.778868 131.347132 
L 178.49644 130.80146 
L 178.511311 130.245547 
L 178.822508 129.715755 
L 179.424217 129.247126 
L 180.305922 128.871087 
L 181.452623 128.613374 
L 182.845113 128.492337 
L 184.460321 128.517714 
L 186.271701 128.68996 
L 188.249672 129.000187 
L 190.362095 129.430703 
L 192.574771 129.956131 
L 194.85198 130.545018 
L 197.157022 131.161847 
L 199.452774 131.769311 
L 201.702256 132.330705 
L 203.869188 132.812272 
L 205.918543 133.185368 
L 207.817088 133.428285 
L 209.5339 133.527629 
L 211.04086 133.479153 
L 212.313107 133.288001 
L 213.329455 132.968334 
L 214.072762 132.542383 
L 214.53024 132.038966 
z
" style="fill:#0000ff;stroke:#000000;stroke-linejoin:miter;"/>
   </g>
   <g id="patch_5">
    <path clip-path="url(#p3407c6749b)" d="M 269.034261 132.945226 
L 268.900298 132.389899 
L 268.470389 131.862744 
L 267.750917 131.397663 
L 266.753112 131.024117 
L 265.492905 130.76522 
L 263.990692 130.636248 
L 262.271024 130.643665 
L 260.362207 130.784734 
L 258.295836 131.047733 
L 256.106257 131.412762 
L 253.829979 131.853089 
L 251.505033 132.336948 
L 249.170311 132.829662 
L 246.864875 133.295961 
L 244.627273 133.702342 
L 242.494855 134.019307 
L 240.503127 134.223343 
L 238.685129 134.298502 
L 237.070874 134.237489 
L 235.686846 134.04218 
L 234.555563 133.72353 
L 233.695223 133.30089 
L 233.119429 132.800763 
L 232.837001 132.255091 
L 232.851872 131.699178 
L 233.163069 131.169385 
L 233.764778 130.700757 
L 234.646483 130.324717 
L 235.793184 130.067004 
L 237.185674 129.945968 
L 238.800882 129.971345 
L 240.612262 130.143591 
L 242.590233 130.453818 
L 244.702655 130.884334 
L 246.915332 131.409762 
L 249.192541 131.998648 
L 251.497582 132.615477 
L 253.793335 133.222942 
L 256.042817 133.784335 
L 258.209749 134.265903 
L 260.259104 134.638998 
L 262.157649 134.881916 
L 263.874461 134.98126 
L 265.381421 134.932784 
L 266.653667 134.741632 
L 267.670016 134.421965 
L 268.413323 133.996014 
L 268.870801 133.492597 
z
" style="fill:#0000ff;stroke:#000000;stroke-linejoin:miter;"/>
   </g>
   <g id="patch_6">
    <path clip-path="url(#p3407c6749b)" d="M 256.136752 140.75713 
L 190.928079 139.012773 
L 190.782716 144.446829 
L 255.991389 146.191186 
z
" style="fill:#999999;stroke:#000000;stroke-linejoin:miter;"/>
   </g>
   <g id="text_1">
    <!-- t = 1.3 -->
    <defs>
     <path d="M 18.3125 70.21875 
L 18.3125 54.6875 
L 36.8125 54.6875 
L 36.8125 47.703125 
L 18.3125 47.703125 
L 18.3125 18.015625 
Q 18.3125 11.328125 20.140625 9.421875 
Q 21.96875 7.515625 27.59375 7.515625 
L 36.8125 7.515625 
L 36.8125 0 
L 27.59375 0 
Q 17.1875 0 13.234375 3.875 
Q 9.28125 7.765625 9.28125 18.015625 
L 9.28125 47.703125 
L 2.6875 47.703125 
L 2.6875 54.6875 
L 9.28125 54.6875 
L 9.28125 70.21875 
z
" id="DejaVuSans-116"/>
     <path id="DejaVuSans-32"/>
     <path d="M 10.59375 45.40625 
L 73.1875 45.40625 
L 73.1875 37.203125 
L 10.59375 37.203125 
z
M 10.59375 25.484375 
L 73.1875 25.484375 
L 73.1875 17.1875 
L 10.59375 17.1875 
z
" id="DejaVuSans-61"/>
     <path d="M 12.40625 8.296875 
L 28.515625 8.296875 
L 28.515625 63.921875 
L 10.984375 60.40625 
L 10.984375 69.390625 
L 28.421875 72.90625 
L 38.28125 72.90625 
L 38.28125 8.296875 
L 54.390625 8.296875 
L 54.390625 0 
L 12.40625 0 
z
" id="DejaVuSans-49"/>
     <path d="M 10.6875 12.40625 
L 21 12.40625 
L 21 0 
L 10.6875 0 
z
" id="DejaVuSans-46"/>
     <path d="M 40.578125 39.3125 
Q 47.65625 37.796875 51.625 33 
Q 55.609375 28.21875 55.609375 21.1875 
Q 55.609375 10.40625 48.1875 4.484375 
Q 40.765625 -1.421875 27.09375 -1.421875 
Q 22.515625 -1.421875 17.65625 -0.515625 
Q 12.796875 0.390625 7.625 2.203125 
L 7.625 11.71875 
Q 11.71875 9.328125 16.59375 8.109375 
Q 21.484375 6.890625 26.8125 6.890625 
Q 36.078125 6.890625 40.9375 10.546875 
Q 45.796875 14.203125 45.796875 21.1875 
Q 45.796875 27.640625 41.28125 31.265625 
Q 36.765625 34.90625 28.71875 34.90625 
L 20.21875 34.90625 
L 20.21875 43.015625 
L 29.109375 43.015625 
Q 36.375 43.015625 40.234375 45.921875 
Q 44.09375 48.828125 44.09375 54.296875 
Q 44.09375 59.90625 40.109375 62.90625 
Q 36.140625 65.921875 28.71875 65.921875 
Q 24.65625 65.921875 20.015625 65.03125 
Q 15.375 64.15625 9.8125 62.3125 
L 9.8125 71.09375 
Q 15.4375 72.65625 20.34375 73.4375 
Q 25.25 74.21875 29.59375 74.21875 
Q 40.828125 74.21875 47.359375 69.109375 
Q 53.90625 64.015625 53.90625 55.328125 
Q 53.90625 49.265625 50.4375 45.09375 
Q 46.96875 40.921875 40.578125 39.3125 
z
" id="DejaVuSans-51"/>
    </defs>
    <g transform="translate(200.664375 28.56)scale(0.12 -0.12)">
     <use xlink:href="#DejaVuSans-116"/>
     <use x="39.208984" xlink:href="#DejaVuSans-32"/>
     <use x="70.996094" xlink:href="#DejaVuSans-61"/>
     <use x="154.785156" xlink:href="#DejaVuSans-32"/>
     <use x="186.572266" xlink:href="#DejaVuSans-49"/>
     <use x="250.195312" xlink:href="#DejaVuSans-46"/>
     <use x="281.982422" xlink:href="#DejaVuSans-51"/>
    </g>
   </g>
  </g>
 </g>
 <defs>
  <clipPath id="p3407c6749b">
   <rect height="217.44" width="334.8" x="54" y="34.56"/>
  </clipPath>
 </defs>
</svg>
