<?xml version="1.0" encoding="utf-8" standalone="no"?>
<!DOCTYPE svg PUBLIC "-//W3C//DTD SVG 1.1//EN"
  "http://www.w3.org/Graphics/SVG/1.1/DTD/svg11.dtd">
<!-- Created with matplotlib (https://matplotlib.org/) -->
<svg height="288pt" version="1.1" viewBox="0 0 432 288" width="432pt" xmlns="http://www.w3.org/2000/svg" xmlns:xlink="http://www.w3.org/1999/xlink">
 <defs>
  <style type="text/css">
*{stroke-linecap:butt;stroke-linejoin:round;}
  </style>
 </defs>
 <g id="figure_1">
  <g id="patch_1">
   <path d="M 0 288 
L 432 288 
L 432 0 
L 0 0 
z
" style="fill:#ffffff;"/>
  </g>
  <g id="axes_1">
   <g id="patch_2">
    <path clip-path="url(#p21c4420765)" d="M 195.79229 132.507606 
L 195.760853 143.37956 
L 194.673658 143.376417 
L 194.705095 132.504462 
z
" style="stroke:#000000;stroke-linejoin:miter;"/>
   </g>
   <g id="patch_3">
    <path clip-path="url(#p21c4420765)" d="M 250.152063 132.664791 
L 250.120626 143.536746 
L 249.03343 143.533602 
L 249.064867 132.661648 
z
" style="stroke:#000000;stroke-linejoin:miter;"/>
   </g>
   <g id="patch_4">
    <path clip-path="url(#p21c4420765)" d="M 213.368617 132.558429 
L 213.221447 132.006455 
L 212.779087 131.489704 
L 212.048728 131.041914 
L 211.042298 130.692272 
L 209.776274 130.463505 
L 208.271412 130.370398 
L 206.55241 130.418827 
L 204.647501 130.605382 
L 202.58799 130.917589 
L 200.407741 131.334736 
L 198.142612 131.829228 
L 195.829867 132.3684 
L 193.507561 132.916656 
L 191.213902 133.437808 
L 188.986628 133.89744 
L 186.862377 134.265174 
L 184.876081 134.516655 
L 183.060393 134.635152 
L 181.445143 134.612657 
L 180.05685 134.450413 
L 178.918289 134.158835 
L 178.048114 133.756834 
L 177.460555 133.270582 
L 177.165194 132.731801 
L 177.166802 132.175691 
L 177.465274 131.638628 
L 178.055635 131.155782 
L 178.928121 130.75882 
L 180.068349 130.473832 
L 181.457556 130.319619 
L 183.07291 130.306465 
L 184.887882 130.435461 
L 186.87269 130.698424 
L 188.99478 131.078437 
L 191.219358 131.550942 
L 193.509964 132.085349 
L 195.829062 132.647027 
L 198.138649 133.199565 
L 200.400881 133.707148 
L 202.578682 134.136896 
L 204.636352 134.461009 
L 206.540151 134.658576 
L 208.258844 134.716946 
L 209.764219 134.632543 
L 211.031545 134.411101 
L 212.03998 134.067286 
L 212.772917 133.623727 
L 213.218258 133.109543 
z
" style="fill:#0000ff;stroke:#000000;stroke-linejoin:miter;"/>
   </g>
   <g id="patch_5">
    <path clip-path="url(#p21c4420765)" d="M 267.728389 132.715615 
L 267.58122 132.16364 
L 267.13886 131.646889 
L 266.408501 131.1991 
L 265.402071 130.849458 
L 264.136047 130.620691 
L 262.631185 130.527584 
L 260.912183 130.576013 
L 259.007274 130.762567 
L 256.947763 131.074774 
L 254.767514 131.491921 
L 252.502384 131.986413 
L 250.18964 132.525585 
L 247.867333 133.073842 
L 245.573675 133.594993 
L 243.346401 134.054626 
L 241.22215 134.42236 
L 239.235854 134.673841 
L 237.420166 134.792337 
L 235.804915 134.769843 
L 234.416623 134.607598 
L 233.278062 134.31602 
L 232.407886 133.91402 
L 231.820328 133.427768 
L 231.524966 132.888987 
L 231.526574 132.332877 
L 231.825047 131.795813 
L 232.415408 131.312967 
L 233.287893 130.916006 
L 234.428122 130.631017 
L 235.817329 130.476804 
L 237.432682 130.463651 
L 239.247655 130.592646 
L 241.232463 130.85561 
L 243.354552 131.235622 
L 245.579131 131.708128 
L 247.869737 132.242535 
L 250.188835 132.804213 
L 252.498422 133.35675 
L 254.760654 133.864334 
L 256.938454 134.294082 
L 258.996125 134.618194 
L 260.899923 134.815762 
L 262.618617 134.874131 
L 264.123992 134.789728 
L 265.391317 134.568287 
L 266.399753 134.224471 
L 267.132689 133.780913 
L 267.57803 133.266729 
z
" style="fill:#0000ff;stroke:#000000;stroke-linejoin:miter;"/>
   </g>
   <g id="patch_6">
    <path clip-path="url(#p21c4420765)" d="M 255.020865 140.832904 
L 189.789137 140.644281 
L 189.773419 146.080259 
L 255.005146 146.268881 
z
" style="fill:#999999;stroke:#000000;stroke-linejoin:miter;"/>
   </g>
   <g id="text_1">
    <!-- t = 2.3 -->
    <defs>
     <path d="M 18.3125 70.21875 
L 18.3125 54.6875 
L 36.8125 54.6875 
L 36.8125 47.703125 
L 18.3125 47.703125 
L 18.3125 18.015625 
Q 18.3125 11.328125 20.140625 9.421875 
Q 21.96875 7.515625 27.59375 7.515625 
L 36.8125 7.515625 
L 36.8125 0 
L 27.59375 0 
Q 17.1875 0 13.234375 3.875 
Q 9.28125 7.765625 9.28125 18.015625 
L 9.28125 47.703125 
L 2.6875 47.703125 
L 2.6875 54.6875 
L 9.28125 54.6875 
L 9.28125 70.21875 
z
" id="DejaVuSans-116"/>
     <path id="DejaVuSans-32"/>
     <path d="M 10.59375 45.40625 
L 73.1875 45.40625 
L 73.1875 37.203125 
L 10.59375 37.203125 
z
M 10.59375 25.484375 
L 73.1875 25.484375 
L 73.1875 17.1875 
L 10.59375 17.1875 
z
" id="DejaVuSans-61"/>
     <path d="M 19.1875 8.296875 
L 53.609375 8.296875 
L 53.609375 0 
L 7.328125 0 
L 7.328125 8.296875 
Q 12.9375 14.109375 22.625 23.890625 
Q 32.328125 33.6875 34.8125 36.53125 
Q 39.546875 41.84375 41.421875 45.53125 
Q 43.3125 49.21875 43.3125 52.78125 
Q 43.3125 58.59375 39.234375 62.25 
Q 35.15625 65.921875 28.609375 65.921875 
Q 23.96875 65.921875 18.8125 64.3125 
Q 13.671875 62.703125 7.8125 59.421875 
L 7.8125 69.390625 
Q 13.765625 71.78125 18.9375 73 
Q 24.125 74.21875 28.421875 74.21875 
Q 39.75 74.21875 46.484375 68.546875 
Q 53.21875 62.890625 53.21875 53.421875 
Q 53.21875 48.921875 51.53125 44.890625 
Q 49.859375 40.875 45.40625 35.40625 
Q 44.1875 33.984375 37.640625 27.21875 
Q 31.109375 20.453125 19.1875 8.296875 
z
" id="DejaVuSans-50"/>
     <path d="M 10.6875 12.40625 
L 21 12.40625 
L 21 0 
L 10.6875 0 
z
" id="DejaVuSans-46"/>
     <path d="M 40.578125 39.3125 
Q 47.65625 37.796875 51.625 33 
Q 55.609375 28.21875 55.609375 21.1875 
Q 55.609375 10.40625 48.1875 4.484375 
Q 40.765625 -1.421875 27.09375 -1.421875 
Q 22.515625 -1.421875 17.65625 -0.515625 
Q 12.796875 0.390625 7.625 2.203125 
L 7.625 11.71875 
Q 11.71875 9.328125 16.59375 8.109375 
Q 21.484375 6.890625 26.8125 6.890625 
Q 36.078125 6.890625 40.9375 10.546875 
Q 45.796875 14.203125 45.796875 21.1875 
Q 45.796875 27.640625 41.28125 31.265625 
Q 36.765625 34.90625 28.71875 34.90625 
L 20.21875 34.90625 
L 20.21875 43.015625 
L 29.109375 43.015625 
Q 36.375 43.015625 40.234375 45.921875 
Q 44.09375 48.828125 44.09375 54.296875 
Q 44.09375 59.90625 40.109375 62.90625 
Q 36.140625 65.921875 28.71875 65.921875 
Q 24.65625 65.921875 20.015625 65.03125 
Q 15.375 64.15625 9.8125 62.3125 
L 9.8125 71.09375 
Q 15.4375 72.65625 20.34375 73.4375 
Q 25.25 74.21875 29.59375 74.21875 
Q 40.828125 74.21875 47.359375 69.109375 
Q 53.90625 64.015625 53.90625 55.328125 
Q 53.90625 49.265625 50.4375 45.09375 
Q 46.96875 40.921875 40.578125 39.3125 
z
" id="DejaVuSans-51"/>
    </defs>
    <g transform="translate(200.664375 28.56)scale(0.12 -0.12)">
     <use xlink:href="#DejaVuSans-116"/>
     <use x="39.208984" xlink:href="#DejaVuSans-32"/>
     <use x="70.996094" xlink:href="#DejaVuSans-61"/>
     <use x="154.785156" xlink:href="#DejaVuSans-32"/>
     <use x="186.572266" xlink:href="#DejaVuSans-50"/>
     <use x="250.195312" xlink:href="#DejaVuSans-46"/>
     <use x="281.982422" xlink:href="#DejaVuSans-51"/>
    </g>
   </g>
  </g>
 </g>
 <defs>
  <clipPath id="p21c4420765">
   <rect height="217.44" width="334.8" x="54" y="34.56"/>
  </clipPath>
 </defs>
</svg>
