<?xml version="1.0" encoding="utf-8" standalone="no"?>
<!DOCTYPE svg PUBLIC "-//W3C//DTD SVG 1.1//EN"
  "http://www.w3.org/Graphics/SVG/1.1/DTD/svg11.dtd">
<!-- Created with matplotlib (https://matplotlib.org/) -->
<svg height="288pt" version="1.1" viewBox="0 0 432 288" width="432pt" xmlns="http://www.w3.org/2000/svg" xmlns:xlink="http://www.w3.org/1999/xlink">
 <defs>
  <style type="text/css">
*{stroke-linecap:butt;stroke-linejoin:round;}
  </style>
 </defs>
 <g id="figure_1">
  <g id="patch_1">
   <path d="M 0 288 
L 432 288 
L 432 0 
L 0 0 
z
" style="fill:#ffffff;"/>
  </g>
  <g id="axes_1">
   <g id="patch_2">
    <path clip-path="url(#p0c1fde7461)" d="M 196.442418 132.832409 
L 196.417668 143.704381 
L 195.330471 143.701906 
L 195.355221 132.829934 
z
" style="stroke:#000000;stroke-linejoin:miter;"/>
   </g>
   <g id="patch_3">
    <path clip-path="url(#p0c1fde7461)" d="M 250.802277 132.956161 
L 250.777527 143.828133 
L 249.69033 143.825658 
L 249.71508 132.953686 
z
" style="stroke:#000000;stroke-linejoin:miter;"/>
   </g>
   <g id="patch_4">
    <path clip-path="url(#p0c1fde7461)" d="M 214.018773 132.872422 
L 213.871264 132.320538 
L 213.428586 131.80406 
L 212.697951 131.356719 
L 211.691307 131.007696 
L 210.425142 130.779708 
L 208.920224 130.687527 
L 207.201251 130.737013 
L 205.296457 130.924739 
L 203.237139 131.238213 
L 201.057147 131.6567 
L 198.792322 132.152586 
L 196.47991 132.69318 
L 194.157941 133.242865 
L 191.864603 133.765427 
L 189.637612 134.226429 
L 187.513588 134.595469 
L 185.527447 134.848172 
L 183.711832 134.967785 
L 182.096568 134.946284 
L 180.708176 134.784894 
L 179.569436 134.494016 
L 178.699013 134.092551 
L 178.111156 133.60666 
L 177.815463 133.068061 
L 177.816729 132.51195 
L 178.114871 131.974703 
L 178.704935 131.491494 
L 179.577176 131.093996 
L 180.717229 130.808306 
L 182.106341 130.653239 
L 183.721686 130.639092 
L 185.536738 130.766971 
L 187.521707 131.028714 
L 189.64403 131.407421 
L 191.868898 131.878558 
L 194.159833 132.411556 
L 196.479275 132.971808 
L 198.789202 133.522925 
L 201.051746 134.029117 
L 203.22981 134.457525 
L 205.28768 134.780372 
L 207.1916 134.976769 
L 208.910329 135.034081 
L 210.415651 134.948752 
L 211.682841 134.726532 
L 212.691064 134.382096 
L 213.423728 133.938087 
L 213.868752 133.423629 
z
" style="fill:#0000ff;stroke:#000000;stroke-linejoin:miter;"/>
   </g>
   <g id="patch_5">
    <path clip-path="url(#p0c1fde7461)" d="M 268.378632 132.996174 
L 268.231123 132.44429 
L 267.788445 131.927811 
L 267.05781 131.480471 
L 266.051166 131.131448 
L 264.785001 130.90346 
L 263.280083 130.811279 
L 261.561111 130.860765 
L 259.656316 131.048491 
L 257.596998 131.361965 
L 255.417006 131.780452 
L 253.152181 132.276338 
L 250.839769 132.816932 
L 248.5178 133.366617 
L 246.224462 133.889179 
L 243.997471 134.350181 
L 241.873447 134.719221 
L 239.887306 134.971924 
L 238.071691 135.091537 
L 236.456427 135.070036 
L 235.068035 134.908645 
L 233.929295 134.617768 
L 233.058872 134.216302 
L 232.471015 133.730412 
L 232.175322 133.191813 
L 232.176588 132.635702 
L 232.47473 132.098455 
L 233.064794 131.615246 
L 233.937035 131.217748 
L 235.077088 130.932058 
L 236.4662 130.776991 
L 238.081545 130.762844 
L 239.896597 130.890723 
L 241.881567 131.152466 
L 244.003889 131.531173 
L 246.228758 132.00231 
L 248.519692 132.535308 
L 250.839135 133.09556 
L 253.149061 133.646677 
L 255.411605 134.152868 
L 257.589669 134.581277 
L 259.647539 134.904124 
L 261.551459 135.100521 
L 263.270188 135.157833 
L 264.77551 135.072504 
L 266.0427 134.850283 
L 267.050923 134.505848 
L 267.783587 134.061838 
L 268.228612 133.547381 
z
" style="fill:#0000ff;stroke:#000000;stroke-linejoin:miter;"/>
   </g>
   <g id="patch_6">
    <path clip-path="url(#p0c1fde7461)" d="M 255.676102 141.121278 
L 190.444271 140.972775 
L 190.431896 146.408761 
L 255.663727 146.557263 
z
" style="fill:#999999;stroke:#000000;stroke-linejoin:miter;"/>
   </g>
   <g id="text_1">
    <!-- t = 1.8 -->
    <defs>
     <path d="M 18.3125 70.21875 
L 18.3125 54.6875 
L 36.8125 54.6875 
L 36.8125 47.703125 
L 18.3125 47.703125 
L 18.3125 18.015625 
Q 18.3125 11.328125 20.140625 9.421875 
Q 21.96875 7.515625 27.59375 7.515625 
L 36.8125 7.515625 
L 36.8125 0 
L 27.59375 0 
Q 17.1875 0 13.234375 3.875 
Q 9.28125 7.765625 9.28125 18.015625 
L 9.28125 47.703125 
L 2.6875 47.703125 
L 2.6875 54.6875 
L 9.28125 54.6875 
L 9.28125 70.21875 
z
" id="DejaVuSans-116"/>
     <path id="DejaVuSans-32"/>
     <path d="M 10.59375 45.40625 
L 73.1875 45.40625 
L 73.1875 37.203125 
L 10.59375 37.203125 
z
M 10.59375 25.484375 
L 73.1875 25.484375 
L 73.1875 17.1875 
L 10.59375 17.1875 
z
" id="DejaVuSans-61"/>
     <path d="M 12.40625 8.296875 
L 28.515625 8.296875 
L 28.515625 63.921875 
L 10.984375 60.40625 
L 10.984375 69.390625 
L 28.421875 72.90625 
L 38.28125 72.90625 
L 38.28125 8.296875 
L 54.390625 8.296875 
L 54.390625 0 
L 12.40625 0 
z
" id="DejaVuSans-49"/>
     <path d="M 10.6875 12.40625 
L 21 12.40625 
L 21 0 
L 10.6875 0 
z
" id="DejaVuSans-46"/>
     <path d="M 31.78125 34.625 
Q 24.75 34.625 20.71875 30.859375 
Q 16.703125 27.09375 16.703125 20.515625 
Q 16.703125 13.921875 20.71875 10.15625 
Q 24.75 6.390625 31.78125 6.390625 
Q 38.8125 6.390625 42.859375 10.171875 
Q 46.921875 13.96875 46.921875 20.515625 
Q 46.921875 27.09375 42.890625 30.859375 
Q 38.875 34.625 31.78125 34.625 
z
M 21.921875 38.8125 
Q 15.578125 40.375 12.03125 44.71875 
Q 8.5 49.078125 8.5 55.328125 
Q 8.5 64.0625 14.71875 69.140625 
Q 20.953125 74.21875 31.78125 74.21875 
Q 42.671875 74.21875 48.875 69.140625 
Q 55.078125 64.0625 55.078125 55.328125 
Q 55.078125 49.078125 51.53125 44.71875 
Q 48 40.375 41.703125 38.8125 
Q 48.828125 37.15625 52.796875 32.3125 
Q 56.78125 27.484375 56.78125 20.515625 
Q 56.78125 9.90625 50.3125 4.234375 
Q 43.84375 -1.421875 31.78125 -1.421875 
Q 19.734375 -1.421875 13.25 4.234375 
Q 6.78125 9.90625 6.78125 20.515625 
Q 6.78125 27.484375 10.78125 32.3125 
Q 14.796875 37.15625 21.921875 38.8125 
z
M 18.3125 54.390625 
Q 18.3125 48.734375 21.84375 45.5625 
Q 25.390625 42.390625 31.78125 42.390625 
Q 38.140625 42.390625 41.71875 45.5625 
Q 45.3125 48.734375 45.3125 54.390625 
Q 45.3125 60.0625 41.71875 63.234375 
Q 38.140625 66.40625 31.78125 66.40625 
Q 25.390625 66.40625 21.84375 63.234375 
Q 18.3125 60.0625 18.3125 54.390625 
z
" id="DejaVuSans-56"/>
    </defs>
    <g transform="translate(200.664375 28.56)scale(0.12 -0.12)">
     <use xlink:href="#DejaVuSans-116"/>
     <use x="39.208984" xlink:href="#DejaVuSans-32"/>
     <use x="70.996094" xlink:href="#DejaVuSans-61"/>
     <use x="154.785156" xlink:href="#DejaVuSans-32"/>
     <use x="186.572266" xlink:href="#DejaVuSans-49"/>
     <use x="250.195312" xlink:href="#DejaVuSans-46"/>
     <use x="281.982422" xlink:href="#DejaVuSans-56"/>
    </g>
   </g>
  </g>
 </g>
 <defs>
  <clipPath id="p0c1fde7461">
   <rect height="217.44" width="334.8" x="54" y="34.56"/>
  </clipPath>
 </defs>
</svg>
