<?xml version="1.0" encoding="utf-8" standalone="no"?>
<!DOCTYPE svg PUBLIC "-//W3C//DTD SVG 1.1//EN"
  "http://www.w3.org/Graphics/SVG/1.1/DTD/svg11.dtd">
<!-- Created with matplotlib (https://matplotlib.org/) -->
<svg height="288pt" version="1.1" viewBox="0 0 432 288" width="432pt" xmlns="http://www.w3.org/2000/svg" xmlns:xlink="http://www.w3.org/1999/xlink">
 <defs>
  <style type="text/css">
*{stroke-linecap:butt;stroke-linejoin:round;}
  </style>
 </defs>
 <g id="figure_1">
  <g id="patch_1">
   <path d="M 0 288 
L 432 288 
L 432 0 
L 0 0 
z
" style="fill:#ffffff;"/>
  </g>
  <g id="axes_1">
   <g id="patch_2">
    <path clip-path="url(#p860af52db0)" d="M 175.220122 141.459657 
L 177.437144 152.103209 
L 176.372789 152.324911 
L 174.155767 141.68136 
z
" style="stroke:#000000;stroke-linejoin:miter;"/>
   </g>
   <g id="patch_3">
    <path clip-path="url(#p860af52db0)" d="M 228.437881 130.374544 
L 230.654903 141.018096 
L 229.590548 141.239798 
L 227.373526 130.596247 
z
" style="stroke:#000000;stroke-linejoin:miter;"/>
   </g>
   <g id="patch_4">
    <path clip-path="url(#p860af52db0)" d="M 192.427197 137.875471 
L 192.169087 137.36585 
L 191.629446 136.951722 
L 190.822286 136.66461 
L 189.765313 136.530602 
L 188.479346 136.568529 
L 186.987748 136.788564 
L 185.3159 137.191351 
L 183.490719 137.767715 
L 181.540256 138.498981 
L 179.493358 139.357883 
L 177.379407 140.310007 
L 175.228106 141.31569 
L 173.069328 142.332239 
L 170.932975 143.316345 
L 168.848854 144.226536 
L 166.846529 145.025514 
L 164.955143 145.682229 
L 163.203184 146.17356 
L 161.618183 146.485504 
L 160.226342 146.613795 
L 159.052097 146.563915 
L 158.117609 146.350509 
L 157.442213 145.996241 
L 157.04184 145.530168 
L 156.928437 144.985741 
L 157.109423 144.398572 
L 157.587199 143.804101 
L 158.358762 143.23533 
L 159.415433 142.720756 
L 160.742741 142.282656 
L 162.320473 141.935812 
L 164.122901 141.686774 
L 166.119192 141.533696 
L 168.273999 141.466755 
L 170.548203 141.469119 
L 172.899807 141.518396 
L 175.284924 141.588464 
L 177.658848 141.651555 
L 179.977144 141.680454 
L 182.196741 141.650656 
L 184.276963 141.542342 
L 186.180475 141.342029 
L 187.874102 141.043797 
L 189.329501 140.649981 
L 190.523661 140.171304 
L 191.439224 139.626423 
L 192.064619 139.040913 
L 192.39403 138.445764 
z
" style="fill:#0000ff;stroke:#000000;stroke-linejoin:miter;"/>
   </g>
   <g id="patch_5">
    <path clip-path="url(#p860af52db0)" d="M 245.644956 126.790358 
L 245.386846 126.280737 
L 244.847205 125.866609 
L 244.040045 125.579497 
L 242.983072 125.445489 
L 241.697104 125.483416 
L 240.205507 125.703451 
L 238.533659 126.106238 
L 236.708478 126.682602 
L 234.758015 127.413868 
L 232.711117 128.27277 
L 230.597166 129.224894 
L 228.445865 130.230577 
L 226.287087 131.247126 
L 224.150734 132.231232 
L 222.066612 133.141423 
L 220.064287 133.940401 
L 218.172902 134.597116 
L 216.420943 135.088446 
L 214.835942 135.400391 
L 213.444101 135.528682 
L 212.269856 135.478802 
L 211.335368 135.265396 
L 210.659972 134.911128 
L 210.259599 134.445055 
L 210.146196 133.900628 
L 210.327182 133.313459 
L 210.804958 132.718988 
L 211.576521 132.150217 
L 212.633192 131.635643 
L 213.9605 131.197543 
L 215.538232 130.850699 
L 217.34066 130.601661 
L 219.336951 130.448583 
L 221.491758 130.381642 
L 223.765962 130.384006 
L 226.117566 130.433283 
L 228.502683 130.503351 
L 230.876606 130.566442 
L 233.194903 130.595341 
L 235.4145 130.565543 
L 237.494722 130.457229 
L 239.398234 130.256916 
L 241.091861 129.958684 
L 242.54726 129.564868 
L 243.74142 129.086191 
L 244.656983 128.54131 
L 245.282378 127.9558 
L 245.611789 127.360651 
z
" style="fill:#0000ff;stroke:#000000;stroke-linejoin:miter;"/>
   </g>
   <g id="patch_6">
    <path clip-path="url(#p860af52db0)" d="M 234.890246 137.359548 
L 171.028935 150.661684 
L 172.137447 155.98346 
L 235.998757 142.681324 
z
" style="fill:#999999;stroke:#000000;stroke-linejoin:miter;"/>
   </g>
   <g id="text_1">
    <!-- t = 1.1 -->
    <defs>
     <path d="M 18.3125 70.21875 
L 18.3125 54.6875 
L 36.8125 54.6875 
L 36.8125 47.703125 
L 18.3125 47.703125 
L 18.3125 18.015625 
Q 18.3125 11.328125 20.140625 9.421875 
Q 21.96875 7.515625 27.59375 7.515625 
L 36.8125 7.515625 
L 36.8125 0 
L 27.59375 0 
Q 17.1875 0 13.234375 3.875 
Q 9.28125 7.765625 9.28125 18.015625 
L 9.28125 47.703125 
L 2.6875 47.703125 
L 2.6875 54.6875 
L 9.28125 54.6875 
L 9.28125 70.21875 
z
" id="DejaVuSans-116"/>
     <path id="DejaVuSans-32"/>
     <path d="M 10.59375 45.40625 
L 73.1875 45.40625 
L 73.1875 37.203125 
L 10.59375 37.203125 
z
M 10.59375 25.484375 
L 73.1875 25.484375 
L 73.1875 17.1875 
L 10.59375 17.1875 
z
" id="DejaVuSans-61"/>
     <path d="M 12.40625 8.296875 
L 28.515625 8.296875 
L 28.515625 63.921875 
L 10.984375 60.40625 
L 10.984375 69.390625 
L 28.421875 72.90625 
L 38.28125 72.90625 
L 38.28125 8.296875 
L 54.390625 8.296875 
L 54.390625 0 
L 12.40625 0 
z
" id="DejaVuSans-49"/>
     <path d="M 10.6875 12.40625 
L 21 12.40625 
L 21 0 
L 10.6875 0 
z
" id="DejaVuSans-46"/>
    </defs>
    <g transform="translate(200.664375 28.56)scale(0.12 -0.12)">
     <use xlink:href="#DejaVuSans-116"/>
     <use x="39.208984" xlink:href="#DejaVuSans-32"/>
     <use x="70.996094" xlink:href="#DejaVuSans-61"/>
     <use x="154.785156" xlink:href="#DejaVuSans-32"/>
     <use x="186.572266" xlink:href="#DejaVuSans-49"/>
     <use x="250.195312" xlink:href="#DejaVuSans-46"/>
     <use x="281.982422" xlink:href="#DejaVuSans-49"/>
    </g>
   </g>
  </g>
 </g>
 <defs>
  <clipPath id="p860af52db0">
   <rect height="217.44" width="334.8" x="54" y="34.56"/>
  </clipPath>
 </defs>
</svg>
