<?xml version="1.0" encoding="utf-8" standalone="no"?>
<!DOCTYPE svg PUBLIC "-//W3C//DTD SVG 1.1//EN"
  "http://www.w3.org/Graphics/SVG/1.1/DTD/svg11.dtd">
<!-- Created with matplotlib (https://matplotlib.org/) -->
<svg height="288pt" version="1.1" viewBox="0 0 432 288" width="432pt" xmlns="http://www.w3.org/2000/svg" xmlns:xlink="http://www.w3.org/1999/xlink">
 <defs>
  <style type="text/css">
*{stroke-linecap:butt;stroke-linejoin:round;}
  </style>
 </defs>
 <g id="figure_1">
  <g id="patch_1">
   <path d="M 0 288 
L 432 288 
L 432 0 
L 0 0 
z
" style="fill:#ffffff;"/>
  </g>
  <g id="axes_1">
   <g id="patch_2">
    <path clip-path="url(#pab0abcf476)" d="M 224.042049 156.915096 
L 221.052917 167.368109 
L 220.007616 167.069196 
L 222.996748 156.616183 
z
" style="stroke:#000000;stroke-linejoin:miter;"/>
   </g>
   <g id="patch_3">
    <path clip-path="url(#pab0abcf476)" d="M 276.307112 171.860757 
L 273.31798 182.31377 
L 272.272679 182.014857 
L 275.261811 171.561844 
z
" style="stroke:#000000;stroke-linejoin:miter;"/>
   </g>
   <g id="patch_4">
    <path clip-path="url(#pab0abcf476)" d="M 240.941086 161.747527 
L 240.949696 161.176335 
L 240.664672 160.558698 
L 240.08375 159.929039 
L 239.210468 159.318687 
L 238.054493 158.753998 
L 236.631776 158.254847 
L 234.964481 157.833609 
L 233.080705 157.494686 
L 231.013965 157.234598 
L 228.802485 157.042627 
L 226.488278 156.901982 
L 224.116094 156.791372 
L 221.732236 156.686901 
L 219.383321 156.564144 
L 217.115028 156.400258 
L 214.97088 156.17598 
L 212.99112 155.877384 
L 211.211718 155.497255 
L 209.663562 155.036007 
L 208.371829 154.502053 
L 207.355601 153.911613 
L 206.627679 153.287963 
L 206.194637 152.660157 
L 206.057057 152.061329 
L 206.209954 151.526648 
L 206.643326 151.091089 
L 207.342812 150.78714 
L 208.2904 150.642616 
L 209.465149 150.678706 
L 210.843888 150.908397 
L 212.401846 151.335371 
L 214.113202 151.953455 
L 215.951522 152.746672 
L 217.890085 153.689882 
L 219.902096 154.749987 
L 221.960795 155.887627 
L 224.039488 157.059262 
L 226.111518 158.219514 
L 228.150214 159.323621 
L 230.12885 160.329852 
L 232.020639 161.20174 
L 233.798805 161.909982 
L 235.436737 162.433903 
L 236.908259 162.762385 
L 238.188014 162.894215 
L 239.251955 162.83783 
L 240.077944 162.610489 
L 240.646413 162.236916 
z
" style="fill:#0000ff;stroke:#000000;stroke-linejoin:miter;"/>
   </g>
   <g id="patch_5">
    <path clip-path="url(#pab0abcf476)" d="M 293.206149 176.693188 
L 293.214759 176.121996 
L 292.929735 175.504359 
L 292.348813 174.8747 
L 291.475531 174.264349 
L 290.319556 173.69966 
L 288.896839 173.200508 
L 287.229544 172.77927 
L 285.345768 172.440347 
L 283.279028 172.180259 
L 281.067548 171.988289 
L 278.753341 171.847643 
L 276.381157 171.737033 
L 273.997299 171.632562 
L 271.648384 171.509805 
L 269.380091 171.345919 
L 267.235943 171.121642 
L 265.256183 170.823045 
L 263.476782 170.442916 
L 261.928625 169.981668 
L 260.636892 169.447714 
L 259.620664 168.857275 
L 258.892743 168.233624 
L 258.4597 167.605818 
L 258.32212 167.00699 
L 258.475017 166.472309 
L 258.908389 166.03675 
L 259.607875 165.732801 
L 260.555463 165.588277 
L 261.730212 165.624367 
L 263.108951 165.854058 
L 264.666909 166.281032 
L 266.378265 166.899116 
L 268.216585 167.692333 
L 270.155148 168.635543 
L 272.167159 169.695648 
L 274.225858 170.833288 
L 276.304551 172.004924 
L 278.376581 173.165176 
L 280.415277 174.269282 
L 282.393913 175.275513 
L 284.285703 176.147401 
L 286.063869 176.855643 
L 287.7018 177.379565 
L 289.173322 177.708046 
L 290.453077 177.839876 
L 291.517018 177.783491 
L 292.343007 177.55615 
L 292.911476 177.182578 
z
" style="fill:#0000ff;stroke:#000000;stroke-linejoin:miter;"/>
   </g>
   <g id="patch_6">
    <path clip-path="url(#pab0abcf476)" d="M 278.769119 181.045626 
L 216.051043 163.110833 
L 214.556477 168.337339 
L 277.274553 186.272133 
z
" style="fill:#999999;stroke:#000000;stroke-linejoin:miter;"/>
   </g>
   <g id="text_1">
    <!-- t = 0.6 -->
    <defs>
     <path d="M 18.3125 70.21875 
L 18.3125 54.6875 
L 36.8125 54.6875 
L 36.8125 47.703125 
L 18.3125 47.703125 
L 18.3125 18.015625 
Q 18.3125 11.328125 20.140625 9.421875 
Q 21.96875 7.515625 27.59375 7.515625 
L 36.8125 7.515625 
L 36.8125 0 
L 27.59375 0 
Q 17.1875 0 13.234375 3.875 
Q 9.28125 7.765625 9.28125 18.015625 
L 9.28125 47.703125 
L 2.6875 47.703125 
L 2.6875 54.6875 
L 9.28125 54.6875 
L 9.28125 70.21875 
z
" id="DejaVuSans-116"/>
     <path id="DejaVuSans-32"/>
     <path d="M 10.59375 45.40625 
L 73.1875 45.40625 
L 73.1875 37.203125 
L 10.59375 37.203125 
z
M 10.59375 25.484375 
L 73.1875 25.484375 
L 73.1875 17.1875 
L 10.59375 17.1875 
z
" id="DejaVuSans-61"/>
     <path d="M 31.78125 66.40625 
Q 24.171875 66.40625 20.328125 58.90625 
Q 16.5 51.421875 16.5 36.375 
Q 16.5 21.390625 20.328125 13.890625 
Q 24.171875 6.390625 31.78125 6.390625 
Q 39.453125 6.390625 43.28125 13.890625 
Q 47.125 21.390625 47.125 36.375 
Q 47.125 51.421875 43.28125 58.90625 
Q 39.453125 66.40625 31.78125 66.40625 
z
M 31.78125 74.21875 
Q 44.046875 74.21875 50.515625 64.515625 
Q 56.984375 54.828125 56.984375 36.375 
Q 56.984375 17.96875 50.515625 8.265625 
Q 44.046875 -1.421875 31.78125 -1.421875 
Q 19.53125 -1.421875 13.0625 8.265625 
Q 6.59375 17.96875 6.59375 36.375 
Q 6.59375 54.828125 13.0625 64.515625 
Q 19.53125 74.21875 31.78125 74.21875 
z
" id="DejaVuSans-48"/>
     <path d="M 10.6875 12.40625 
L 21 12.40625 
L 21 0 
L 10.6875 0 
z
" id="DejaVuSans-46"/>
     <path d="M 33.015625 40.375 
Q 26.375 40.375 22.484375 35.828125 
Q 18.609375 31.296875 18.609375 23.390625 
Q 18.609375 15.53125 22.484375 10.953125 
Q 26.375 6.390625 33.015625 6.390625 
Q 39.65625 6.390625 43.53125 10.953125 
Q 47.40625 15.53125 47.40625 23.390625 
Q 47.40625 31.296875 43.53125 35.828125 
Q 39.65625 40.375 33.015625 40.375 
z
M 52.59375 71.296875 
L 52.59375 62.3125 
Q 48.875 64.0625 45.09375 64.984375 
Q 41.3125 65.921875 37.59375 65.921875 
Q 27.828125 65.921875 22.671875 59.328125 
Q 17.53125 52.734375 16.796875 39.40625 
Q 19.671875 43.65625 24.015625 45.921875 
Q 28.375 48.1875 33.59375 48.1875 
Q 44.578125 48.1875 50.953125 41.515625 
Q 57.328125 34.859375 57.328125 23.390625 
Q 57.328125 12.15625 50.6875 5.359375 
Q 44.046875 -1.421875 33.015625 -1.421875 
Q 20.359375 -1.421875 13.671875 8.265625 
Q 6.984375 17.96875 6.984375 36.375 
Q 6.984375 53.65625 15.1875 63.9375 
Q 23.390625 74.21875 37.203125 74.21875 
Q 40.921875 74.21875 44.703125 73.484375 
Q 48.484375 72.75 52.59375 71.296875 
z
" id="DejaVuSans-54"/>
    </defs>
    <g transform="translate(200.664375 28.56)scale(0.12 -0.12)">
     <use xlink:href="#DejaVuSans-116"/>
     <use x="39.208984" xlink:href="#DejaVuSans-32"/>
     <use x="70.996094" xlink:href="#DejaVuSans-61"/>
     <use x="154.785156" xlink:href="#DejaVuSans-32"/>
     <use x="186.572266" xlink:href="#DejaVuSans-48"/>
     <use x="250.195312" xlink:href="#DejaVuSans-46"/>
     <use x="281.982422" xlink:href="#DejaVuSans-54"/>
    </g>
   </g>
  </g>
 </g>
 <defs>
  <clipPath id="pab0abcf476">
   <rect height="217.44" width="334.8" x="54" y="34.56"/>
  </clipPath>
 </defs>
</svg>
