<?xml version="1.0" encoding="utf-8" standalone="no"?>
<!DOCTYPE svg PUBLIC "-//W3C//DTD SVG 1.1//EN"
  "http://www.w3.org/Graphics/SVG/1.1/DTD/svg11.dtd">
<!-- Created with matplotlib (https://matplotlib.org/) -->
<svg height="288pt" version="1.1" viewBox="0 0 432 288" width="432pt" xmlns="http://www.w3.org/2000/svg" xmlns:xlink="http://www.w3.org/1999/xlink">
 <defs>
  <style type="text/css">
*{stroke-linecap:butt;stroke-linejoin:round;}
  </style>
 </defs>
 <g id="figure_1">
  <g id="patch_1">
   <path d="M 0 288 
L 432 288 
L 432 0 
L 0 0 
z
" style="fill:#ffffff;"/>
  </g>
  <g id="axes_1">
   <g id="patch_2">
    <path clip-path="url(#p004f572d86)" d="M 194.77622 132.42656 
L 194.781468 143.298558 
L 193.694268 143.299083 
L 193.68902 132.427084 
z
" style="stroke:#000000;stroke-linejoin:miter;"/>
   </g>
   <g id="patch_3">
    <path clip-path="url(#p004f572d86)" d="M 249.136214 132.400319 
L 249.141462 143.272318 
L 248.054262 143.272842 
L 248.049014 132.400844 
z
" style="stroke:#000000;stroke-linejoin:miter;"/>
   </g>
   <g id="patch_4">
    <path clip-path="url(#p004f572d86)" d="M 212.352618 132.418075 
L 212.203587 131.8666 
L 211.759486 131.351345 
L 211.02762 130.906022 
L 210.020016 130.559778 
L 208.753227 130.335285 
L 207.24806 130.247256 
L 205.529231 130.301485 
L 203.624962 130.494466 
L 201.566516 130.813621 
L 199.387687 131.238122 
L 197.124239 131.740255 
L 194.813327 132.287227 
L 192.492884 132.843317 
L 190.200997 133.372205 
L 187.975286 133.83935 
L 185.852288 134.21425 
L 183.866852 134.472432 
L 182.051574 134.597055 
L 180.436257 134.58001 
L 179.047425 134.422451 
L 177.907887 134.134717 
L 177.03636 133.735655 
L 176.447164 133.251388 
L 176.149986 132.713607 
L 176.149717 132.157495 
L 176.446376 131.619427 
L 177.035104 131.134592 
L 177.906245 130.734688 
L 179.045506 130.445854 
L 180.434185 130.286954 
L 182.049485 130.26835 
L 183.864882 130.391221 
L 185.850566 130.647485 
L 187.973926 131.020335 
L 190.200086 131.485332 
L 192.492482 132.012007 
L 194.813462 132.565856 
L 197.124901 133.110597 
L 199.388832 133.610544 
L 201.56807 134.032942 
L 203.626823 134.350109 
L 205.531277 134.541251 
L 207.250158 134.593821 
L 208.755239 134.504339 
L 210.021811 134.278623 
L 211.02908 133.931406 
L 211.760516 133.485377 
L 212.204119 132.969693 
z
" style="fill:#0000ff;stroke:#000000;stroke-linejoin:miter;"/>
   </g>
   <g id="patch_5">
    <path clip-path="url(#p004f572d86)" d="M 266.712612 132.391834 
L 266.56358 131.84036 
L 266.11948 131.325104 
L 265.387613 130.879782 
L 264.380009 130.533538 
L 263.113221 130.309044 
L 261.608053 130.221015 
L 259.889224 130.275245 
L 257.984955 130.468226 
L 255.92651 130.78738 
L 253.74768 131.211882 
L 251.484233 131.714014 
L 249.173321 132.260987 
L 246.852877 132.817076 
L 244.56099 133.345964 
L 242.33528 133.81311 
L 240.212282 134.188009 
L 238.226846 134.446191 
L 236.411568 134.570814 
L 234.796251 134.553769 
L 233.407419 134.39621 
L 232.26788 134.108476 
L 231.396353 133.709414 
L 230.807158 133.225147 
L 230.50998 132.687366 
L 230.509711 132.131254 
L 230.80637 131.593186 
L 231.395098 131.108351 
L 232.266239 130.708448 
L 233.405499 130.419613 
L 234.794178 130.260714 
L 236.409478 130.24211 
L 238.224876 130.36498 
L 240.21056 130.621245 
L 242.333919 130.994094 
L 244.560079 131.459091 
L 246.852476 131.985766 
L 249.173455 132.539615 
L 251.484894 133.084356 
L 253.748826 133.584303 
L 255.928064 134.006701 
L 257.986817 134.323868 
L 259.891271 134.515011 
L 261.610151 134.56758 
L 263.115233 134.478098 
L 264.381804 134.252382 
L 265.389074 133.905166 
L 266.12051 133.459136 
L 266.564113 132.943453 
z
" style="fill:#0000ff;stroke:#000000;stroke-linejoin:miter;"/>
   </g>
   <g id="patch_6">
    <path clip-path="url(#p004f572d86)" d="M 254.032549 140.551956 
L 188.800557 140.583445 
L 188.803181 146.019444 
L 254.035173 145.987956 
z
" style="fill:#999999;stroke:#000000;stroke-linejoin:miter;"/>
   </g>
   <g id="text_1">
    <!-- t = 3.1 -->
    <defs>
     <path d="M 18.3125 70.21875 
L 18.3125 54.6875 
L 36.8125 54.6875 
L 36.8125 47.703125 
L 18.3125 47.703125 
L 18.3125 18.015625 
Q 18.3125 11.328125 20.140625 9.421875 
Q 21.96875 7.515625 27.59375 7.515625 
L 36.8125 7.515625 
L 36.8125 0 
L 27.59375 0 
Q 17.1875 0 13.234375 3.875 
Q 9.28125 7.765625 9.28125 18.015625 
L 9.28125 47.703125 
L 2.6875 47.703125 
L 2.6875 54.6875 
L 9.28125 54.6875 
L 9.28125 70.21875 
z
" id="DejaVuSans-116"/>
     <path id="DejaVuSans-32"/>
     <path d="M 10.59375 45.40625 
L 73.1875 45.40625 
L 73.1875 37.203125 
L 10.59375 37.203125 
z
M 10.59375 25.484375 
L 73.1875 25.484375 
L 73.1875 17.1875 
L 10.59375 17.1875 
z
" id="DejaVuSans-61"/>
     <path d="M 40.578125 39.3125 
Q 47.65625 37.796875 51.625 33 
Q 55.609375 28.21875 55.609375 21.1875 
Q 55.609375 10.40625 48.1875 4.484375 
Q 40.765625 -1.421875 27.09375 -1.421875 
Q 22.515625 -1.421875 17.65625 -0.515625 
Q 12.796875 0.390625 7.625 2.203125 
L 7.625 11.71875 
Q 11.71875 9.328125 16.59375 8.109375 
Q 21.484375 6.890625 26.8125 6.890625 
Q 36.078125 6.890625 40.9375 10.546875 
Q 45.796875 14.203125 45.796875 21.1875 
Q 45.796875 27.640625 41.28125 31.265625 
Q 36.765625 34.90625 28.71875 34.90625 
L 20.21875 34.90625 
L 20.21875 43.015625 
L 29.109375 43.015625 
Q 36.375 43.015625 40.234375 45.921875 
Q 44.09375 48.828125 44.09375 54.296875 
Q 44.09375 59.90625 40.109375 62.90625 
Q 36.140625 65.921875 28.71875 65.921875 
Q 24.65625 65.921875 20.015625 65.03125 
Q 15.375 64.15625 9.8125 62.3125 
L 9.8125 71.09375 
Q 15.4375 72.65625 20.34375 73.4375 
Q 25.25 74.21875 29.59375 74.21875 
Q 40.828125 74.21875 47.359375 69.109375 
Q 53.90625 64.015625 53.90625 55.328125 
Q 53.90625 49.265625 50.4375 45.09375 
Q 46.96875 40.921875 40.578125 39.3125 
z
" id="DejaVuSans-51"/>
     <path d="M 10.6875 12.40625 
L 21 12.40625 
L 21 0 
L 10.6875 0 
z
" id="DejaVuSans-46"/>
     <path d="M 12.40625 8.296875 
L 28.515625 8.296875 
L 28.515625 63.921875 
L 10.984375 60.40625 
L 10.984375 69.390625 
L 28.421875 72.90625 
L 38.28125 72.90625 
L 38.28125 8.296875 
L 54.390625 8.296875 
L 54.390625 0 
L 12.40625 0 
z
" id="DejaVuSans-49"/>
    </defs>
    <g transform="translate(200.664375 28.56)scale(0.12 -0.12)">
     <use xlink:href="#DejaVuSans-116"/>
     <use x="39.208984" xlink:href="#DejaVuSans-32"/>
     <use x="70.996094" xlink:href="#DejaVuSans-61"/>
     <use x="154.785156" xlink:href="#DejaVuSans-32"/>
     <use x="186.572266" xlink:href="#DejaVuSans-51"/>
     <use x="250.195312" xlink:href="#DejaVuSans-46"/>
     <use x="281.982422" xlink:href="#DejaVuSans-49"/>
    </g>
   </g>
  </g>
 </g>
 <defs>
  <clipPath id="p004f572d86">
   <rect height="217.44" width="334.8" x="54" y="34.56"/>
  </clipPath>
 </defs>
</svg>
