<?xml version="1.0" encoding="utf-8" standalone="no"?>
<!DOCTYPE svg PUBLIC "-//W3C//DTD SVG 1.1//EN"
  "http://www.w3.org/Graphics/SVG/1.1/DTD/svg11.dtd">
<!-- Created with matplotlib (https://matplotlib.org/) -->
<svg height="288pt" version="1.1" viewBox="0 0 432 288" width="432pt" xmlns="http://www.w3.org/2000/svg" xmlns:xlink="http://www.w3.org/1999/xlink">
 <defs>
  <style type="text/css">
*{stroke-linecap:butt;stroke-linejoin:round;}
  </style>
 </defs>
 <g id="figure_1">
  <g id="patch_1">
   <path d="M 0 288 
L 432 288 
L 432 0 
L 0 0 
z
" style="fill:#ffffff;"/>
  </g>
  <g id="axes_1">
   <g id="patch_2">
    <path clip-path="url(#p9fc4771447)" d="M 104.738245 226.635572 
L 107.964708 237.017783 
L 106.926487 237.34043 
L 103.700023 226.958218 
z
" style="stroke:#000000;stroke-linejoin:miter;"/>
   </g>
   <g id="patch_3">
    <path clip-path="url(#p9fc4771447)" d="M 156.649303 210.503255 
L 159.875766 220.885467 
L 158.837545 221.208113 
L 155.611082 210.825902 
z
" style="stroke:#000000;stroke-linejoin:miter;"/>
   </g>
   <g id="patch_4">
    <path clip-path="url(#p9fc4771447)" d="M 121.52282 221.419456 
L 121.217076 220.936906 
L 120.640244 220.576379 
L 119.809292 220.367912 
L 118.744342 220.335777 
L 117.467922 220.496724 
L 116.004265 220.85864 
L 114.378692 221.419735 
L 112.61712 222.168298 
L 110.745682 223.083053 
L 108.79048 224.134093 
L 106.777463 225.284352 
L 104.7324 226.491501 
L 102.680935 227.710183 
L 100.648684 228.894422 
L 98.661342 230.000083 
L 96.744768 230.987206 
L 94.924994 231.822093 
L 93.228161 232.478999 
L 91.680333 232.94135 
L 90.307184 233.202387 
L 89.133562 233.265228 
L 88.182928 233.142326 
L 87.476699 232.854389 
L 87.033518 232.428815 
L 86.868482 231.897755 
L 86.992385 231.295949 
L 87.411015 230.658442 
L 88.124541 230.018372 
L 89.127057 229.404937 
L 90.406291 228.841698 
L 91.94354 228.345304 
L 93.71382 227.924741 
L 95.686265 227.581126 
L 97.824748 227.308065 
L 100.08872 227.092553 
L 102.434228 226.916323 
L 104.815088 226.757578 
L 107.184137 226.59296 
L 109.49454 226.399637 
L 111.701074 226.157342 
L 113.761352 225.850243 
L 115.63692 225.468498 
L 117.294187 225.009391 
L 118.705165 224.477961 
L 119.847977 223.887086 
L 120.707129 223.257001 
L 121.273557 222.614273 
L 121.544438 221.990304 
z
" style="fill:#0000ff;stroke:#000000;stroke-linejoin:miter;"/>
   </g>
   <g id="patch_5">
    <path clip-path="url(#p9fc4771447)" d="M 173.433878 205.28714 
L 173.128134 204.80459 
L 172.551303 204.444063 
L 171.72035 204.235596 
L 170.6554 204.203461 
L 169.378981 204.364408 
L 167.915323 204.726324 
L 166.28975 205.287419 
L 164.528179 206.035982 
L 162.65674 206.950736 
L 160.701539 208.001777 
L 158.688522 209.152036 
L 156.643459 210.359185 
L 154.591993 211.577866 
L 152.559742 212.762106 
L 150.572401 213.867767 
L 148.655826 214.85489 
L 146.836052 215.689776 
L 145.13922 216.346683 
L 143.591392 216.809034 
L 142.218243 217.070071 
L 141.04462 217.132912 
L 140.093986 217.01001 
L 139.387758 216.722073 
L 138.944577 216.296498 
L 138.77954 215.765439 
L 138.903444 215.163633 
L 139.322073 214.526126 
L 140.0356 213.886056 
L 141.038115 213.272621 
L 142.317349 212.709382 
L 143.854598 212.212988 
L 145.624878 211.792425 
L 147.597324 211.44881 
L 149.735807 211.175749 
L 151.999778 210.960237 
L 154.345287 210.784007 
L 156.726147 210.625261 
L 159.095196 210.460644 
L 161.405598 210.267321 
L 163.612132 210.025026 
L 165.672411 209.717927 
L 167.547978 209.336182 
L 169.205245 208.877075 
L 170.616223 208.345645 
L 171.759035 207.75477 
L 172.618188 207.124685 
L 173.184615 206.481957 
L 173.455497 205.857988 
z
" style="fill:#0000ff;stroke:#000000;stroke-linejoin:miter;"/>
   </g>
   <g id="patch_6">
    <path clip-path="url(#p9fc4771447)" d="M 163.741146 216.838006 
L 101.447876 236.196785 
L 103.061107 241.387891 
L 165.354377 222.029112 
z
" style="fill:#999999;stroke:#000000;stroke-linejoin:miter;"/>
   </g>
   <g id="text_1">
    <!-- t = 0.2 -->
    <defs>
     <path d="M 18.3125 70.21875 
L 18.3125 54.6875 
L 36.8125 54.6875 
L 36.8125 47.703125 
L 18.3125 47.703125 
L 18.3125 18.015625 
Q 18.3125 11.328125 20.140625 9.421875 
Q 21.96875 7.515625 27.59375 7.515625 
L 36.8125 7.515625 
L 36.8125 0 
L 27.59375 0 
Q 17.1875 0 13.234375 3.875 
Q 9.28125 7.765625 9.28125 18.015625 
L 9.28125 47.703125 
L 2.6875 47.703125 
L 2.6875 54.6875 
L 9.28125 54.6875 
L 9.28125 70.21875 
z
" id="DejaVuSans-116"/>
     <path id="DejaVuSans-32"/>
     <path d="M 10.59375 45.40625 
L 73.1875 45.40625 
L 73.1875 37.203125 
L 10.59375 37.203125 
z
M 10.59375 25.484375 
L 73.1875 25.484375 
L 73.1875 17.1875 
L 10.59375 17.1875 
z
" id="DejaVuSans-61"/>
     <path d="M 31.78125 66.40625 
Q 24.171875 66.40625 20.328125 58.90625 
Q 16.5 51.421875 16.5 36.375 
Q 16.5 21.390625 20.328125 13.890625 
Q 24.171875 6.390625 31.78125 6.390625 
Q 39.453125 6.390625 43.28125 13.890625 
Q 47.125 21.390625 47.125 36.375 
Q 47.125 51.421875 43.28125 58.90625 
Q 39.453125 66.40625 31.78125 66.40625 
z
M 31.78125 74.21875 
Q 44.046875 74.21875 50.515625 64.515625 
Q 56.984375 54.828125 56.984375 36.375 
Q 56.984375 17.96875 50.515625 8.265625 
Q 44.046875 -1.421875 31.78125 -1.421875 
Q 19.53125 -1.421875 13.0625 8.265625 
Q 6.59375 17.96875 6.59375 36.375 
Q 6.59375 54.828125 13.0625 64.515625 
Q 19.53125 74.21875 31.78125 74.21875 
z
" id="DejaVuSans-48"/>
     <path d="M 10.6875 12.40625 
L 21 12.40625 
L 21 0 
L 10.6875 0 
z
" id="DejaVuSans-46"/>
     <path d="M 19.1875 8.296875 
L 53.609375 8.296875 
L 53.609375 0 
L 7.328125 0 
L 7.328125 8.296875 
Q 12.9375 14.109375 22.625 23.890625 
Q 32.328125 33.6875 34.8125 36.53125 
Q 39.546875 41.84375 41.421875 45.53125 
Q 43.3125 49.21875 43.3125 52.78125 
Q 43.3125 58.59375 39.234375 62.25 
Q 35.15625 65.921875 28.609375 65.921875 
Q 23.96875 65.921875 18.8125 64.3125 
Q 13.671875 62.703125 7.8125 59.421875 
L 7.8125 69.390625 
Q 13.765625 71.78125 18.9375 73 
Q 24.125 74.21875 28.421875 74.21875 
Q 39.75 74.21875 46.484375 68.546875 
Q 53.21875 62.890625 53.21875 53.421875 
Q 53.21875 48.921875 51.53125 44.890625 
Q 49.859375 40.875 45.40625 35.40625 
Q 44.1875 33.984375 37.640625 27.21875 
Q 31.109375 20.453125 19.1875 8.296875 
z
" id="DejaVuSans-50"/>
    </defs>
    <g transform="translate(200.664375 28.56)scale(0.12 -0.12)">
     <use xlink:href="#DejaVuSans-116"/>
     <use x="39.208984" xlink:href="#DejaVuSans-32"/>
     <use x="70.996094" xlink:href="#DejaVuSans-61"/>
     <use x="154.785156" xlink:href="#DejaVuSans-32"/>
     <use x="186.572266" xlink:href="#DejaVuSans-48"/>
     <use x="250.195312" xlink:href="#DejaVuSans-46"/>
     <use x="281.982422" xlink:href="#DejaVuSans-50"/>
    </g>
   </g>
  </g>
 </g>
 <defs>
  <clipPath id="p9fc4771447">
   <rect height="217.44" width="334.8" x="54" y="34.56"/>
  </clipPath>
 </defs>
</svg>
