<?xml version="1.0" encoding="utf-8" standalone="no"?>
<!DOCTYPE svg PUBLIC "-//W3C//DTD SVG 1.1//EN"
  "http://www.w3.org/Graphics/SVG/1.1/DTD/svg11.dtd">
<!-- Created with matplotlib (https://matplotlib.org/) -->
<svg height="288pt" version="1.1" viewBox="0 0 432 288" width="432pt" xmlns="http://www.w3.org/2000/svg" xmlns:xlink="http://www.w3.org/1999/xlink">
 <defs>
  <style type="text/css">
*{stroke-linecap:butt;stroke-linejoin:round;}
  </style>
 </defs>
 <g id="figure_1">
  <g id="patch_1">
   <path d="M 0 288 
L 432 288 
L 432 0 
L 0 0 
z
" style="fill:#ffffff;"/>
  </g>
  <g id="axes_1">
   <g id="patch_2">
    <path clip-path="url(#p82e07bf247)" d="M 194.77682 132.40813 
L 194.776603 143.28013 
L 193.689403 143.280108 
L 193.68962 132.408108 
z
" style="stroke:#000000;stroke-linejoin:miter;"/>
   </g>
   <g id="patch_3">
    <path clip-path="url(#p82e07bf247)" d="M 249.13682 132.409213 
L 249.136603 143.281213 
L 248.049403 143.281191 
L 248.04962 132.409191 
z
" style="stroke:#000000;stroke-linejoin:miter;"/>
   </g>
   <g id="patch_4">
    <path clip-path="url(#p82e07bf247)" d="M 212.35322 132.40848 
L 212.204466 131.85693 
L 211.760624 131.341452 
L 211.028982 130.895761 
L 210.021552 130.549011 
L 208.754876 130.323881 
L 207.249754 130.235095 
L 205.530898 130.288461 
L 203.626532 130.480484 
L 201.567926 130.798604 
L 199.388884 131.22201 
L 197.125184 131.723005 
L 194.813997 132.268816 
L 192.493275 132.823739 
L 190.201122 133.351475 
L 187.975177 133.817502 
L 185.851991 134.191334 
L 183.866426 134.448518 
L 182.051085 134.572228 
L 180.435777 134.554372 
L 179.047024 134.396115 
L 177.90763 134.107808 
L 177.036304 133.708308 
L 176.447352 133.223745 
L 176.150444 132.685815 
L 176.150455 132.129702 
L 176.447384 131.591784 
L 177.036356 131.107245 
L 177.907698 130.707779 
L 179.047103 130.419517 
L 180.435862 130.261316 
L 182.051171 130.243524 
L 183.866507 130.367307 
L 185.852062 130.624569 
L 187.975233 130.998486 
L 190.20116 131.464602 
L 192.493291 131.992429 
L 194.813992 132.547445 
L 197.125157 133.093348 
L 199.388836 133.594433 
L 201.567862 134.017925 
L 203.626455 134.336127 
L 205.530813 134.528227 
L 207.249667 134.581661 
L 208.754793 134.492935 
L 210.021478 134.267856 
L 211.028922 133.921146 
L 211.760582 133.475484 
L 212.204444 132.960023 
z
" style="fill:#0000ff;stroke:#000000;stroke-linejoin:miter;"/>
   </g>
   <g id="patch_5">
    <path clip-path="url(#p82e07bf247)" d="M 266.71322 132.409563 
L 266.564466 131.858013 
L 266.120624 131.342535 
L 265.388982 130.896844 
L 264.381552 130.550094 
L 263.114876 130.324964 
L 261.609754 130.236178 
L 259.890898 130.289544 
L 257.986532 130.481567 
L 255.927926 130.799687 
L 253.748884 131.223093 
L 251.485184 131.724088 
L 249.173997 132.269899 
L 246.853275 132.824822 
L 244.561122 133.352558 
L 242.335177 133.818585 
L 240.211991 134.192417 
L 238.226426 134.449601 
L 236.411085 134.573311 
L 234.795777 134.555455 
L 233.407024 134.397198 
L 232.26763 134.108891 
L 231.396304 133.709391 
L 230.807352 133.224828 
L 230.510444 132.686898 
L 230.510455 132.130785 
L 230.807384 131.592867 
L 231.396356 131.108328 
L 232.267698 130.708862 
L 233.407103 130.4206 
L 234.795862 130.262399 
L 236.411171 130.244607 
L 238.226507 130.368389 
L 240.212062 130.625652 
L 242.335233 130.999569 
L 244.56116 131.465685 
L 246.853291 131.993512 
L 249.173992 132.548528 
L 251.485157 133.094431 
L 253.748836 133.595516 
L 255.927862 134.019008 
L 257.986455 134.33721 
L 259.890813 134.52931 
L 261.609667 134.582744 
L 263.114793 134.494018 
L 264.381478 134.268939 
L 265.388922 133.922228 
L 266.120582 133.476567 
L 266.564444 132.961106 
z
" style="fill:#0000ff;stroke:#000000;stroke-linejoin:miter;"/>
   </g>
   <g id="patch_6">
    <path clip-path="url(#p82e07bf247)" d="M 254.029058 140.56331 
L 188.797058 140.56201 
L 188.796949 145.99801 
L 254.028949 145.99931 
z
" style="fill:#999999;stroke:#000000;stroke-linejoin:miter;"/>
   </g>
   <g id="text_1">
    <!-- t = 3.7 -->
    <defs>
     <path d="M 18.3125 70.21875 
L 18.3125 54.6875 
L 36.8125 54.6875 
L 36.8125 47.703125 
L 18.3125 47.703125 
L 18.3125 18.015625 
Q 18.3125 11.328125 20.140625 9.421875 
Q 21.96875 7.515625 27.59375 7.515625 
L 36.8125 7.515625 
L 36.8125 0 
L 27.59375 0 
Q 17.1875 0 13.234375 3.875 
Q 9.28125 7.765625 9.28125 18.015625 
L 9.28125 47.703125 
L 2.6875 47.703125 
L 2.6875 54.6875 
L 9.28125 54.6875 
L 9.28125 70.21875 
z
" id="DejaVuSans-116"/>
     <path id="DejaVuSans-32"/>
     <path d="M 10.59375 45.40625 
L 73.1875 45.40625 
L 73.1875 37.203125 
L 10.59375 37.203125 
z
M 10.59375 25.484375 
L 73.1875 25.484375 
L 73.1875 17.1875 
L 10.59375 17.1875 
z
" id="DejaVuSans-61"/>
     <path d="M 40.578125 39.3125 
Q 47.65625 37.796875 51.625 33 
Q 55.609375 28.21875 55.609375 21.1875 
Q 55.609375 10.40625 48.1875 4.484375 
Q 40.765625 -1.421875 27.09375 -1.421875 
Q 22.515625 -1.421875 17.65625 -0.515625 
Q 12.796875 0.390625 7.625 2.203125 
L 7.625 11.71875 
Q 11.71875 9.328125 16.59375 8.109375 
Q 21.484375 6.890625 26.8125 6.890625 
Q 36.078125 6.890625 40.9375 10.546875 
Q 45.796875 14.203125 45.796875 21.1875 
Q 45.796875 27.640625 41.28125 31.265625 
Q 36.765625 34.90625 28.71875 34.90625 
L 20.21875 34.90625 
L 20.21875 43.015625 
L 29.109375 43.015625 
Q 36.375 43.015625 40.234375 45.921875 
Q 44.09375 48.828125 44.09375 54.296875 
Q 44.09375 59.90625 40.109375 62.90625 
Q 36.140625 65.921875 28.71875 65.921875 
Q 24.65625 65.921875 20.015625 65.03125 
Q 15.375 64.15625 9.8125 62.3125 
L 9.8125 71.09375 
Q 15.4375 72.65625 20.34375 73.4375 
Q 25.25 74.21875 29.59375 74.21875 
Q 40.828125 74.21875 47.359375 69.109375 
Q 53.90625 64.015625 53.90625 55.328125 
Q 53.90625 49.265625 50.4375 45.09375 
Q 46.96875 40.921875 40.578125 39.3125 
z
" id="DejaVuSans-51"/>
     <path d="M 10.6875 12.40625 
L 21 12.40625 
L 21 0 
L 10.6875 0 
z
" id="DejaVuSans-46"/>
     <path d="M 8.203125 72.90625 
L 55.078125 72.90625 
L 55.078125 68.703125 
L 28.609375 0 
L 18.3125 0 
L 43.21875 64.59375 
L 8.203125 64.59375 
z
" id="DejaVuSans-55"/>
    </defs>
    <g transform="translate(200.664375 28.56)scale(0.12 -0.12)">
     <use xlink:href="#DejaVuSans-116"/>
     <use x="39.208984" xlink:href="#DejaVuSans-32"/>
     <use x="70.996094" xlink:href="#DejaVuSans-61"/>
     <use x="154.785156" xlink:href="#DejaVuSans-32"/>
     <use x="186.572266" xlink:href="#DejaVuSans-51"/>
     <use x="250.195312" xlink:href="#DejaVuSans-46"/>
     <use x="281.982422" xlink:href="#DejaVuSans-55"/>
    </g>
   </g>
  </g>
 </g>
 <defs>
  <clipPath id="p82e07bf247">
   <rect height="217.44" width="334.8" x="54" y="34.56"/>
  </clipPath>
 </defs>
</svg>
