<?xml version="1.0" encoding="utf-8" standalone="no"?>
<!DOCTYPE svg PUBLIC "-//W3C//DTD SVG 1.1//EN"
  "http://www.w3.org/Graphics/SVG/1.1/DTD/svg11.dtd">
<!-- Created with matplotlib (https://matplotlib.org/) -->
<svg height="288pt" version="1.1" viewBox="0 0 432 288" width="432pt" xmlns="http://www.w3.org/2000/svg" xmlns:xlink="http://www.w3.org/1999/xlink">
 <defs>
  <style type="text/css">
*{stroke-linecap:butt;stroke-linejoin:round;}
  </style>
 </defs>
 <g id="figure_1">
  <g id="patch_1">
   <path d="M 0 288 
L 432 288 
L 432 0 
L 0 0 
z
" style="fill:#ffffff;"/>
  </g>
  <g id="axes_1">
   <g id="patch_2">
    <path clip-path="url(#p95e13623c6)" d="M 155.223243 145.535753 
L 158.35526 155.946846 
L 157.314151 156.260048 
L 154.182134 145.848955 
z
" style="stroke:#000000;stroke-linejoin:miter;"/>
   </g>
   <g id="patch_3">
    <path clip-path="url(#p95e13623c6)" d="M 207.278708 129.875669 
L 210.410724 140.286762 
L 209.369615 140.599964 
L 206.237598 130.188871 
z
" style="stroke:#000000;stroke-linejoin:miter;"/>
   </g>
   <g id="patch_4">
    <path clip-path="url(#p95e13623c6)" d="M 172.05451 140.472326 
L 171.753162 139.987018 
L 171.179629 139.621266 
L 170.350605 139.405259 
L 169.285991 139.363452 
L 168.008162 139.512796 
L 166.541277 139.861401 
L 164.910674 140.407707 
L 163.142375 141.140237 
L 161.262704 142.037953 
L 159.298036 143.071189 
L 157.274653 144.203114 
L 155.218708 145.391636 
L 153.156257 146.591631 
L 151.113331 147.75736 
L 149.116028 148.844922 
L 147.190565 149.814595 
L 145.363282 150.632915 
L 143.660552 151.27438 
L 142.108588 151.722651 
L 140.733124 151.971204 
L 139.558979 152.023381 
L 138.609501 151.891848 
L 137.905918 151.597508 
L 137.466621 151.167925 
L 137.306416 150.635388 
L 137.435781 150.034732 
L 137.860184 149.401054 
L 138.579496 148.767492 
L 139.587542 148.16319 
L 140.87184 147.611595 
L 142.413535 147.129186 
L 144.187563 146.724722 
L 146.163048 146.399039 
L 148.303923 146.145416 
L 150.569759 145.950479 
L 152.916772 145.795563 
L 155.298976 145.658452 
L 157.669422 145.515362 
L 159.981485 145.343035 
L 162.190129 145.120794 
L 164.253113 144.832424 
L 166.13207 144.467733 
L 167.79344 144.023699 
L 169.209187 143.505108 
L 170.357319 142.92464 
L 171.22216 142.302386 
L 171.794403 141.664829 
L 172.070942 141.043347 
z
" style="fill:#0000ff;stroke:#000000;stroke-linejoin:miter;"/>
   </g>
   <g id="patch_5">
    <path clip-path="url(#p95e13623c6)" d="M 224.109974 124.812242 
L 223.808626 124.326934 
L 223.235094 123.961183 
L 222.406069 123.745176 
L 221.341455 123.703368 
L 220.063626 123.852713 
L 218.596741 124.201318 
L 216.966139 124.747623 
L 215.197839 125.480153 
L 213.318169 126.377869 
L 211.3535 127.411105 
L 209.330117 128.54303 
L 207.274172 129.731552 
L 205.211721 130.931547 
L 203.168796 132.097276 
L 201.171493 133.184839 
L 199.24603 134.154511 
L 197.418747 134.972831 
L 195.716017 135.614296 
L 194.164053 136.062568 
L 192.788589 136.31112 
L 191.614444 136.363297 
L 190.664965 136.231765 
L 189.961382 135.937424 
L 189.522085 135.507841 
L 189.36188 134.975305 
L 189.491245 134.374648 
L 189.915649 133.740971 
L 190.63496 133.107409 
L 191.643007 132.503107 
L 192.927305 131.951511 
L 194.468999 131.469103 
L 196.243027 131.064639 
L 198.218512 130.738955 
L 200.359388 130.485332 
L 202.625223 130.290395 
L 204.972236 130.135479 
L 207.35444 129.998368 
L 209.724887 129.855278 
L 212.03695 129.682951 
L 214.245594 129.46071 
L 216.308577 129.17234 
L 218.187535 128.807649 
L 219.848904 128.363615 
L 221.264652 127.845025 
L 222.412784 127.264556 
L 223.277625 126.642302 
L 223.849868 126.004745 
L 224.126406 125.383263 
z
" style="fill:#0000ff;stroke:#000000;stroke-linejoin:miter;"/>
   </g>
   <g id="patch_6">
    <path clip-path="url(#p95e13623c6)" d="M 214.312712 136.274581 
L 151.846155 155.066682 
L 153.412163 160.272228 
L 215.87872 141.480128 
z
" style="fill:#999999;stroke:#000000;stroke-linejoin:miter;"/>
   </g>
   <g id="text_1">
    <!-- t = 0.9 -->
    <defs>
     <path d="M 18.3125 70.21875 
L 18.3125 54.6875 
L 36.8125 54.6875 
L 36.8125 47.703125 
L 18.3125 47.703125 
L 18.3125 18.015625 
Q 18.3125 11.328125 20.140625 9.421875 
Q 21.96875 7.515625 27.59375 7.515625 
L 36.8125 7.515625 
L 36.8125 0 
L 27.59375 0 
Q 17.1875 0 13.234375 3.875 
Q 9.28125 7.765625 9.28125 18.015625 
L 9.28125 47.703125 
L 2.6875 47.703125 
L 2.6875 54.6875 
L 9.28125 54.6875 
L 9.28125 70.21875 
z
" id="DejaVuSans-116"/>
     <path id="DejaVuSans-32"/>
     <path d="M 10.59375 45.40625 
L 73.1875 45.40625 
L 73.1875 37.203125 
L 10.59375 37.203125 
z
M 10.59375 25.484375 
L 73.1875 25.484375 
L 73.1875 17.1875 
L 10.59375 17.1875 
z
" id="DejaVuSans-61"/>
     <path d="M 31.78125 66.40625 
Q 24.171875 66.40625 20.328125 58.90625 
Q 16.5 51.421875 16.5 36.375 
Q 16.5 21.390625 20.328125 13.890625 
Q 24.171875 6.390625 31.78125 6.390625 
Q 39.453125 6.390625 43.28125 13.890625 
Q 47.125 21.390625 47.125 36.375 
Q 47.125 51.421875 43.28125 58.90625 
Q 39.453125 66.40625 31.78125 66.40625 
z
M 31.78125 74.21875 
Q 44.046875 74.21875 50.515625 64.515625 
Q 56.984375 54.828125 56.984375 36.375 
Q 56.984375 17.96875 50.515625 8.265625 
Q 44.046875 -1.421875 31.78125 -1.421875 
Q 19.53125 -1.421875 13.0625 8.265625 
Q 6.59375 17.96875 6.59375 36.375 
Q 6.59375 54.828125 13.0625 64.515625 
Q 19.53125 74.21875 31.78125 74.21875 
z
" id="DejaVuSans-48"/>
     <path d="M 10.6875 12.40625 
L 21 12.40625 
L 21 0 
L 10.6875 0 
z
" id="DejaVuSans-46"/>
     <path d="M 10.984375 1.515625 
L 10.984375 10.5 
Q 14.703125 8.734375 18.5 7.8125 
Q 22.3125 6.890625 25.984375 6.890625 
Q 35.75 6.890625 40.890625 13.453125 
Q 46.046875 20.015625 46.78125 33.40625 
Q 43.953125 29.203125 39.59375 26.953125 
Q 35.25 24.703125 29.984375 24.703125 
Q 19.046875 24.703125 12.671875 31.3125 
Q 6.296875 37.9375 6.296875 49.421875 
Q 6.296875 60.640625 12.9375 67.421875 
Q 19.578125 74.21875 30.609375 74.21875 
Q 43.265625 74.21875 49.921875 64.515625 
Q 56.59375 54.828125 56.59375 36.375 
Q 56.59375 19.140625 48.40625 8.859375 
Q 40.234375 -1.421875 26.421875 -1.421875 
Q 22.703125 -1.421875 18.890625 -0.6875 
Q 15.09375 0.046875 10.984375 1.515625 
z
M 30.609375 32.421875 
Q 37.25 32.421875 41.125 36.953125 
Q 45.015625 41.5 45.015625 49.421875 
Q 45.015625 57.28125 41.125 61.84375 
Q 37.25 66.40625 30.609375 66.40625 
Q 23.96875 66.40625 20.09375 61.84375 
Q 16.21875 57.28125 16.21875 49.421875 
Q 16.21875 41.5 20.09375 36.953125 
Q 23.96875 32.421875 30.609375 32.421875 
z
" id="DejaVuSans-57"/>
    </defs>
    <g transform="translate(200.664375 28.56)scale(0.12 -0.12)">
     <use xlink:href="#DejaVuSans-116"/>
     <use x="39.208984" xlink:href="#DejaVuSans-32"/>
     <use x="70.996094" xlink:href="#DejaVuSans-61"/>
     <use x="154.785156" xlink:href="#DejaVuSans-32"/>
     <use x="186.572266" xlink:href="#DejaVuSans-48"/>
     <use x="250.195312" xlink:href="#DejaVuSans-46"/>
     <use x="281.982422" xlink:href="#DejaVuSans-57"/>
    </g>
   </g>
  </g>
 </g>
 <defs>
  <clipPath id="p95e13623c6">
   <rect height="217.44" width="334.8" x="54" y="34.56"/>
  </clipPath>
 </defs>
</svg>
