<?xml version="1.0" encoding="utf-8" standalone="no"?>
<!DOCTYPE svg PUBLIC "-//W3C//DTD SVG 1.1//EN"
  "http://www.w3.org/Graphics/SVG/1.1/DTD/svg11.dtd">
<!-- Created with matplotlib (https://matplotlib.org/) -->
<svg height="288pt" version="1.1" viewBox="0 0 432 288" width="432pt" xmlns="http://www.w3.org/2000/svg" xmlns:xlink="http://www.w3.org/1999/xlink">
 <defs>
  <style type="text/css">
*{stroke-linecap:butt;stroke-linejoin:round;}
  </style>
 </defs>
 <g id="figure_1">
  <g id="patch_1">
   <path d="M 0 288 
L 432 288 
L 432 0 
L 0 0 
z
" style="fill:#ffffff;"/>
  </g>
  <g id="axes_1">
   <g id="patch_2">
    <path clip-path="url(#pfb92fc43a3)" d="M 190.728839 134.058031 
L 190.440457 144.926206 
L 189.35364 144.897368 
L 189.642021 134.029193 
z
" style="stroke:#000000;stroke-linejoin:miter;"/>
   </g>
   <g id="patch_3">
    <path clip-path="url(#pfb92fc43a3)" d="M 245.069712 135.499939 
L 244.78133 146.368114 
L 243.694513 146.339276 
L 243.982895 135.471101 
z
" style="stroke:#000000;stroke-linejoin:miter;"/>
   </g>
   <g id="patch_4">
    <path clip-path="url(#pfb92fc43a3)" d="M 208.299054 134.524248 
L 208.164972 133.96895 
L 207.734949 133.441888 
L 207.015376 132.976962 
L 206.017491 132.603631 
L 204.757228 132.345007 
L 203.254987 132.216359 
L 201.53532 132.224147 
L 199.626534 132.365627 
L 197.56022 132.629072 
L 195.37072 132.994573 
L 193.094537 133.435392 
L 190.769696 133.919752 
L 188.43508 134.412969 
L 186.129745 134.879766 
L 183.89223 135.286629 
L 181.759881 135.604055 
L 179.768196 135.80852 
L 177.950214 135.884071 
L 176.335947 135.823407 
L 174.951877 135.628396 
L 173.820525 135.309991 
L 172.960094 134.887536 
L 172.384192 134.387533 
L 172.101647 133.841922 
L 172.116398 133.286006 
L 172.42748 132.756146 
L 173.029088 132.287388 
L 173.910712 131.911158 
L 175.057357 131.653198 
L 176.449821 131.531861 
L 178.065034 131.55689 
L 179.876451 131.728745 
L 181.85449 132.038545 
L 183.967005 132.468606 
L 186.179794 132.993556 
L 188.45713 133.581951 
L 190.762305 134.198283 
L 193.058188 134.805252 
L 195.307791 135.36616 
L 197.474827 135.84726 
L 199.524263 136.219914 
L 201.42286 136.462421 
L 203.139694 136.561395 
L 204.646643 136.512595 
L 205.918848 136.321168 
L 206.935128 136.001282 
L 207.678343 135.57517 
L 208.135712 135.071655 
z
" style="fill:#0000ff;stroke:#000000;stroke-linejoin:miter;"/>
   </g>
   <g id="patch_5">
    <path clip-path="url(#pfb92fc43a3)" d="M 262.639928 135.966156 
L 262.505845 135.410858 
L 262.075822 134.883796 
L 261.35625 134.41887 
L 260.358365 134.045539 
L 259.098101 133.786915 
L 257.59586 133.658267 
L 255.876194 133.666055 
L 253.967407 133.807535 
L 251.901093 134.07098 
L 249.711594 134.436481 
L 247.43541 134.877299 
L 245.110569 135.36166 
L 242.775953 135.854877 
L 240.470618 136.321674 
L 238.233103 136.728537 
L 236.100754 137.045963 
L 234.10907 137.250428 
L 232.291088 137.325979 
L 230.67682 137.265315 
L 229.29275 137.070304 
L 228.161398 136.751898 
L 227.300967 136.329444 
L 226.725065 135.829441 
L 226.44252 135.28383 
L 226.457271 134.727914 
L 226.768353 134.198054 
L 227.369961 133.729296 
L 228.251585 133.353066 
L 229.39823 133.095106 
L 230.790694 132.973769 
L 232.405907 132.998797 
L 234.217324 133.170653 
L 236.195363 133.480453 
L 238.307878 133.910514 
L 240.520667 134.435464 
L 242.798004 135.023859 
L 245.103178 135.640191 
L 247.399062 136.24716 
L 249.648665 136.808068 
L 251.8157 137.289168 
L 253.865136 137.661822 
L 255.763733 137.904329 
L 257.480567 138.003303 
L 258.987516 137.954502 
L 260.259722 137.763076 
L 261.276001 137.44319 
L 262.019216 137.017078 
L 262.476585 136.513563 
z
" style="fill:#0000ff;stroke:#000000;stroke-linejoin:miter;"/>
   </g>
   <g id="patch_6">
    <path clip-path="url(#pfb92fc43a3)" d="M 249.744104 143.780842 
L 184.535057 142.050553 
L 184.390866 147.48464 
L 249.599914 149.214929 
z
" style="fill:#999999;stroke:#000000;stroke-linejoin:miter;"/>
   </g>
   <g id="text_1">
    <!-- t = 1.4 -->
    <defs>
     <path d="M 18.3125 70.21875 
L 18.3125 54.6875 
L 36.8125 54.6875 
L 36.8125 47.703125 
L 18.3125 47.703125 
L 18.3125 18.015625 
Q 18.3125 11.328125 20.140625 9.421875 
Q 21.96875 7.515625 27.59375 7.515625 
L 36.8125 7.515625 
L 36.8125 0 
L 27.59375 0 
Q 17.1875 0 13.234375 3.875 
Q 9.28125 7.765625 9.28125 18.015625 
L 9.28125 47.703125 
L 2.6875 47.703125 
L 2.6875 54.6875 
L 9.28125 54.6875 
L 9.28125 70.21875 
z
" id="DejaVuSans-116"/>
     <path id="DejaVuSans-32"/>
     <path d="M 10.59375 45.40625 
L 73.1875 45.40625 
L 73.1875 37.203125 
L 10.59375 37.203125 
z
M 10.59375 25.484375 
L 73.1875 25.484375 
L 73.1875 17.1875 
L 10.59375 17.1875 
z
" id="DejaVuSans-61"/>
     <path d="M 12.40625 8.296875 
L 28.515625 8.296875 
L 28.515625 63.921875 
L 10.984375 60.40625 
L 10.984375 69.390625 
L 28.421875 72.90625 
L 38.28125 72.90625 
L 38.28125 8.296875 
L 54.390625 8.296875 
L 54.390625 0 
L 12.40625 0 
z
" id="DejaVuSans-49"/>
     <path d="M 10.6875 12.40625 
L 21 12.40625 
L 21 0 
L 10.6875 0 
z
" id="DejaVuSans-46"/>
     <path d="M 37.796875 64.3125 
L 12.890625 25.390625 
L 37.796875 25.390625 
z
M 35.203125 72.90625 
L 47.609375 72.90625 
L 47.609375 25.390625 
L 58.015625 25.390625 
L 58.015625 17.1875 
L 47.609375 17.1875 
L 47.609375 0 
L 37.796875 0 
L 37.796875 17.1875 
L 4.890625 17.1875 
L 4.890625 26.703125 
z
" id="DejaVuSans-52"/>
    </defs>
    <g transform="translate(200.664375 28.56)scale(0.12 -0.12)">
     <use xlink:href="#DejaVuSans-116"/>
     <use x="39.208984" xlink:href="#DejaVuSans-32"/>
     <use x="70.996094" xlink:href="#DejaVuSans-61"/>
     <use x="154.785156" xlink:href="#DejaVuSans-32"/>
     <use x="186.572266" xlink:href="#DejaVuSans-49"/>
     <use x="250.195312" xlink:href="#DejaVuSans-46"/>
     <use x="281.982422" xlink:href="#DejaVuSans-52"/>
    </g>
   </g>
  </g>
 </g>
 <defs>
  <clipPath id="pfb92fc43a3">
   <rect height="217.44" width="334.8" x="54" y="34.56"/>
  </clipPath>
 </defs>
</svg>
