<?xml version="1.0" encoding="utf-8" standalone="no"?>
<!DOCTYPE svg PUBLIC "-//W3C//DTD SVG 1.1//EN"
  "http://www.w3.org/Graphics/SVG/1.1/DTD/svg11.dtd">
<!-- Created with matplotlib (https://matplotlib.org/) -->
<svg height="288pt" version="1.1" viewBox="0 0 432 288" width="432pt" xmlns="http://www.w3.org/2000/svg" xmlns:xlink="http://www.w3.org/1999/xlink">
 <defs>
  <style type="text/css">
*{stroke-linecap:butt;stroke-linejoin:round;}
  </style>
 </defs>
 <g id="figure_1">
  <g id="patch_1">
   <path d="M 0 288 
L 432 288 
L 432 0 
L 0 0 
z
" style="fill:#ffffff;"/>
  </g>
  <g id="axes_1">
   <g id="patch_2">
    <path clip-path="url(#p34c7def922)" d="M 194.760833 132.409447 
L 194.761501 143.281447 
L 193.674301 143.281514 
L 193.673633 132.409514 
z
" style="stroke:#000000;stroke-linejoin:miter;"/>
   </g>
   <g id="patch_3">
    <path clip-path="url(#p34c7def922)" d="M 249.120833 132.406108 
L 249.1215 143.278108 
L 248.0343 143.278175 
L 248.033633 132.406175 
z
" style="stroke:#000000;stroke-linejoin:miter;"/>
   </g>
   <g id="patch_4">
    <path clip-path="url(#p34c7def922)" d="M 212.337233 132.408368 
L 212.188434 131.85683 
L 211.74455 131.341388 
L 211.012871 130.895757 
L 210.005413 130.549089 
L 208.738719 130.324061 
L 207.233589 130.235398 
L 205.514738 130.288904 
L 203.610388 130.481082 
L 201.551808 130.79937 
L 199.3728 131.222953 
L 197.109141 131.724132 
L 194.797999 132.270131 
L 192.477321 132.825243 
L 190.185211 133.353165 
L 187.959305 133.819373 
L 185.836148 134.193378 
L 183.850604 134.450723 
L 182.035274 134.574582 
L 180.419964 134.556857 
L 179.031198 134.398713 
L 177.891781 134.110498 
L 177.020422 133.711069 
L 176.431431 133.226554 
L 176.134479 132.688648 
L 176.134445 132.132536 
L 176.431331 131.594593 
L 177.020263 131.110006 
L 177.891572 130.710469 
L 179.030954 130.422115 
L 180.4197 130.2638 
L 182.035008 130.245877 
L 183.850353 130.369512 
L 185.835929 130.626613 
L 187.959131 131.000358 
L 190.185095 131.466292 
L 192.47727 131.993932 
L 194.798016 132.548759 
L 197.109225 133.094475 
L 199.372945 133.595375 
L 201.552006 134.018691 
L 203.610624 134.336725 
L 205.514998 134.52867 
L 207.233856 134.581964 
L 208.738976 134.493116 
L 210.005642 134.267933 
L 211.013057 133.921141 
L 211.744681 133.47542 
L 212.188502 132.959923 
z
" style="fill:#0000ff;stroke:#000000;stroke-linejoin:miter;"/>
   </g>
   <g id="patch_5">
    <path clip-path="url(#p34c7def922)" d="M 266.697233 132.405028 
L 266.548434 131.853491 
L 266.10455 131.338048 
L 265.372871 130.892417 
L 264.365413 130.545749 
L 263.098719 130.320722 
L 261.593589 130.232059 
L 259.874738 130.285564 
L 257.970387 130.477743 
L 255.911808 130.79603 
L 253.7328 131.219614 
L 251.469141 131.720792 
L 249.157999 132.266791 
L 246.837321 132.821904 
L 244.545211 133.349826 
L 242.319304 133.816034 
L 240.196148 134.190039 
L 238.210604 134.447384 
L 236.395273 134.571242 
L 234.779964 134.553517 
L 233.391198 134.395373 
L 232.251781 134.107159 
L 231.380422 133.707729 
L 230.791431 133.223215 
L 230.494479 132.685308 
L 230.494445 132.129196 
L 230.791331 131.591253 
L 231.380263 131.106666 
L 232.251572 130.70713 
L 233.390954 130.418775 
L 234.7797 130.260461 
L 236.395008 130.242537 
L 238.210353 130.366172 
L 240.195929 130.623274 
L 242.319131 130.997018 
L 244.545095 131.462952 
L 246.83727 131.990593 
L 249.158016 132.54542 
L 251.469225 133.091135 
L 253.732945 133.592036 
L 255.912006 134.015351 
L 257.970624 134.333386 
L 259.874998 134.525331 
L 261.593856 134.578625 
L 263.098975 134.489777 
L 264.365642 134.264594 
L 265.373057 133.917802 
L 266.104681 133.472081 
L 266.548501 132.956584 
z
" style="fill:#0000ff;stroke:#000000;stroke-linejoin:miter;"/>
   </g>
   <g id="patch_6">
    <path clip-path="url(#p34c7def922)" d="M 254.013734 140.559807 
L 188.781734 140.563815 
L 188.782068 145.999815 
L 254.014067 145.995807 
z
" style="fill:#999999;stroke:#000000;stroke-linejoin:miter;"/>
   </g>
   <g id="text_1">
    <!-- t = 3.6 -->
    <defs>
     <path d="M 18.3125 70.21875 
L 18.3125 54.6875 
L 36.8125 54.6875 
L 36.8125 47.703125 
L 18.3125 47.703125 
L 18.3125 18.015625 
Q 18.3125 11.328125 20.140625 9.421875 
Q 21.96875 7.515625 27.59375 7.515625 
L 36.8125 7.515625 
L 36.8125 0 
L 27.59375 0 
Q 17.1875 0 13.234375 3.875 
Q 9.28125 7.765625 9.28125 18.015625 
L 9.28125 47.703125 
L 2.6875 47.703125 
L 2.6875 54.6875 
L 9.28125 54.6875 
L 9.28125 70.21875 
z
" id="DejaVuSans-116"/>
     <path id="DejaVuSans-32"/>
     <path d="M 10.59375 45.40625 
L 73.1875 45.40625 
L 73.1875 37.203125 
L 10.59375 37.203125 
z
M 10.59375 25.484375 
L 73.1875 25.484375 
L 73.1875 17.1875 
L 10.59375 17.1875 
z
" id="DejaVuSans-61"/>
     <path d="M 40.578125 39.3125 
Q 47.65625 37.796875 51.625 33 
Q 55.609375 28.21875 55.609375 21.1875 
Q 55.609375 10.40625 48.1875 4.484375 
Q 40.765625 -1.421875 27.09375 -1.421875 
Q 22.515625 -1.421875 17.65625 -0.515625 
Q 12.796875 0.390625 7.625 2.203125 
L 7.625 11.71875 
Q 11.71875 9.328125 16.59375 8.109375 
Q 21.484375 6.890625 26.8125 6.890625 
Q 36.078125 6.890625 40.9375 10.546875 
Q 45.796875 14.203125 45.796875 21.1875 
Q 45.796875 27.640625 41.28125 31.265625 
Q 36.765625 34.90625 28.71875 34.90625 
L 20.21875 34.90625 
L 20.21875 43.015625 
L 29.109375 43.015625 
Q 36.375 43.015625 40.234375 45.921875 
Q 44.09375 48.828125 44.09375 54.296875 
Q 44.09375 59.90625 40.109375 62.90625 
Q 36.140625 65.921875 28.71875 65.921875 
Q 24.65625 65.921875 20.015625 65.03125 
Q 15.375 64.15625 9.8125 62.3125 
L 9.8125 71.09375 
Q 15.4375 72.65625 20.34375 73.4375 
Q 25.25 74.21875 29.59375 74.21875 
Q 40.828125 74.21875 47.359375 69.109375 
Q 53.90625 64.015625 53.90625 55.328125 
Q 53.90625 49.265625 50.4375 45.09375 
Q 46.96875 40.921875 40.578125 39.3125 
z
" id="DejaVuSans-51"/>
     <path d="M 10.6875 12.40625 
L 21 12.40625 
L 21 0 
L 10.6875 0 
z
" id="DejaVuSans-46"/>
     <path d="M 33.015625 40.375 
Q 26.375 40.375 22.484375 35.828125 
Q 18.609375 31.296875 18.609375 23.390625 
Q 18.609375 15.53125 22.484375 10.953125 
Q 26.375 6.390625 33.015625 6.390625 
Q 39.65625 6.390625 43.53125 10.953125 
Q 47.40625 15.53125 47.40625 23.390625 
Q 47.40625 31.296875 43.53125 35.828125 
Q 39.65625 40.375 33.015625 40.375 
z
M 52.59375 71.296875 
L 52.59375 62.3125 
Q 48.875 64.0625 45.09375 64.984375 
Q 41.3125 65.921875 37.59375 65.921875 
Q 27.828125 65.921875 22.671875 59.328125 
Q 17.53125 52.734375 16.796875 39.40625 
Q 19.671875 43.65625 24.015625 45.921875 
Q 28.375 48.1875 33.59375 48.1875 
Q 44.578125 48.1875 50.953125 41.515625 
Q 57.328125 34.859375 57.328125 23.390625 
Q 57.328125 12.15625 50.6875 5.359375 
Q 44.046875 -1.421875 33.015625 -1.421875 
Q 20.359375 -1.421875 13.671875 8.265625 
Q 6.984375 17.96875 6.984375 36.375 
Q 6.984375 53.65625 15.1875 63.9375 
Q 23.390625 74.21875 37.203125 74.21875 
Q 40.921875 74.21875 44.703125 73.484375 
Q 48.484375 72.75 52.59375 71.296875 
z
" id="DejaVuSans-54"/>
    </defs>
    <g transform="translate(200.664375 28.56)scale(0.12 -0.12)">
     <use xlink:href="#DejaVuSans-116"/>
     <use x="39.208984" xlink:href="#DejaVuSans-32"/>
     <use x="70.996094" xlink:href="#DejaVuSans-61"/>
     <use x="154.785156" xlink:href="#DejaVuSans-32"/>
     <use x="186.572266" xlink:href="#DejaVuSans-51"/>
     <use x="250.195312" xlink:href="#DejaVuSans-46"/>
     <use x="281.982422" xlink:href="#DejaVuSans-54"/>
    </g>
   </g>
  </g>
 </g>
 <defs>
  <clipPath id="p34c7def922">
   <rect height="217.44" width="334.8" x="54" y="34.56"/>
  </clipPath>
 </defs>
</svg>
