<?xml version="1.0" encoding="utf-8" standalone="no"?>
<!DOCTYPE svg PUBLIC "-//W3C//DTD SVG 1.1//EN"
  "http://www.w3.org/Graphics/SVG/1.1/DTD/svg11.dtd">
<!-- Created with matplotlib (https://matplotlib.org/) -->
<svg height="288pt" version="1.1" viewBox="0 0 432 288" width="432pt" xmlns="http://www.w3.org/2000/svg" xmlns:xlink="http://www.w3.org/1999/xlink">
 <defs>
  <style type="text/css">
*{stroke-linecap:butt;stroke-linejoin:round;}
  </style>
 </defs>
 <g id="figure_1">
  <g id="patch_1">
   <path d="M 0 288 
L 432 288 
L 432 0 
L 0 0 
z
" style="fill:#ffffff;"/>
  </g>
  <g id="axes_1">
   <g id="patch_2">
    <path clip-path="url(#p82ee95e149)" d="M 194.420309 132.401306 
L 194.413902 143.273304 
L 193.326702 143.272663 
L 193.333109 132.400665 
z
" style="stroke:#000000;stroke-linejoin:miter;"/>
   </g>
   <g id="patch_3">
    <path clip-path="url(#p82ee95e149)" d="M 248.780299 132.433339 
L 248.773893 143.305337 
L 247.686693 143.304697 
L 247.693099 132.432699 
z
" style="stroke:#000000;stroke-linejoin:miter;"/>
   </g>
   <g id="patch_4">
    <path clip-path="url(#p82ee95e149)" d="M 211.996706 132.411663 
L 211.848266 131.860029 
L 211.404717 131.344298 
L 210.673329 130.898191 
L 209.666097 130.550867 
L 208.399549 130.325016 
L 206.894477 130.235373 
L 205.175591 130.28776 
L 203.271117 130.478699 
L 201.21233 130.795647 
L 199.033047 131.217813 
L 196.769062 131.717518 
L 194.457565 132.262013 
L 192.136527 132.815615 
L 189.844074 133.342046 
L 187.617864 133.806805 
L 185.494465 134.179429 
L 183.508754 134.435482 
L 181.693343 134.558159 
L 180.078045 134.539382 
L 178.689383 134.380335 
L 177.550154 134.091379 
L 176.679055 133.691383 
L 176.090379 133.206485 
L 175.793778 132.668386 
L 175.794105 132.112273 
L 176.091341 131.574524 
L 176.680588 131.09032 
L 177.552158 130.691351 
L 178.691727 130.403738 
L 180.080575 130.246327 
L 181.695894 130.229455 
L 183.511159 130.354271 
L 185.496567 130.612664 
L 187.619526 130.98779 
L 189.845186 131.455173 
L 192.137017 131.984305 
L 194.457401 132.540642 
L 196.768255 133.087861 
L 199.031649 133.590234 
L 201.210433 134.014968 
L 203.268844 134.334342 
L 205.173093 134.527526 
L 206.891916 134.581938 
L 208.397093 134.49407 
L 209.663905 134.269711 
L 210.671546 133.923575 
L 211.40346 133.47833 
L 211.847616 132.963122 
z
" style="fill:#0000ff;stroke:#000000;stroke-linejoin:miter;"/>
   </g>
   <g id="patch_5">
    <path clip-path="url(#p82ee95e149)" d="M 266.356696 132.443697 
L 266.208256 131.892063 
L 265.764708 131.376331 
L 265.033319 130.930224 
L 264.026087 130.582901 
L 262.75954 130.357049 
L 261.254468 130.267407 
L 259.535582 130.319793 
L 257.631107 130.510733 
L 255.572321 130.827681 
L 253.393037 131.249846 
L 251.129053 131.749552 
L 248.817556 132.294047 
L 246.496517 132.847649 
L 244.204065 133.374079 
L 241.977855 133.838839 
L 239.854456 134.211462 
L 237.868745 134.467515 
L 236.053334 134.590192 
L 234.438036 134.571416 
L 233.049374 134.412368 
L 231.910144 134.123413 
L 231.039046 133.723416 
L 230.45037 133.238518 
L 230.153768 132.700419 
L 230.154096 132.144307 
L 230.451331 131.606558 
L 231.040579 131.122354 
L 231.912148 130.723384 
L 233.051717 130.435771 
L 234.440566 130.278361 
L 236.055885 130.261488 
L 237.87115 130.386305 
L 239.856558 130.644698 
L 241.979516 131.019824 
L 244.205177 131.487206 
L 246.497007 132.016338 
L 248.817392 132.572675 
L 251.128245 133.119894 
L 253.391639 133.622268 
L 255.570424 134.047001 
L 257.628835 134.366375 
L 259.533083 134.559559 
L 261.251907 134.613972 
L 262.757083 134.526103 
L 264.023896 134.301745 
L 265.031537 133.955608 
L 265.76345 133.510364 
L 266.207606 132.995155 
z
" style="fill:#0000ff;stroke:#000000;stroke-linejoin:miter;"/>
   </g>
   <g id="patch_6">
    <path clip-path="url(#p82ee95e149)" d="M 253.667893 140.590221 
L 188.435905 140.551781 
L 188.432701 145.98778 
L 253.66469 146.02622 
z
" style="fill:#999999;stroke:#000000;stroke-linejoin:miter;"/>
   </g>
   <g id="text_1">
    <!-- t = 2.5 -->
    <defs>
     <path d="M 18.3125 70.21875 
L 18.3125 54.6875 
L 36.8125 54.6875 
L 36.8125 47.703125 
L 18.3125 47.703125 
L 18.3125 18.015625 
Q 18.3125 11.328125 20.140625 9.421875 
Q 21.96875 7.515625 27.59375 7.515625 
L 36.8125 7.515625 
L 36.8125 0 
L 27.59375 0 
Q 17.1875 0 13.234375 3.875 
Q 9.28125 7.765625 9.28125 18.015625 
L 9.28125 47.703125 
L 2.6875 47.703125 
L 2.6875 54.6875 
L 9.28125 54.6875 
L 9.28125 70.21875 
z
" id="DejaVuSans-116"/>
     <path id="DejaVuSans-32"/>
     <path d="M 10.59375 45.40625 
L 73.1875 45.40625 
L 73.1875 37.203125 
L 10.59375 37.203125 
z
M 10.59375 25.484375 
L 73.1875 25.484375 
L 73.1875 17.1875 
L 10.59375 17.1875 
z
" id="DejaVuSans-61"/>
     <path d="M 19.1875 8.296875 
L 53.609375 8.296875 
L 53.609375 0 
L 7.328125 0 
L 7.328125 8.296875 
Q 12.9375 14.109375 22.625 23.890625 
Q 32.328125 33.6875 34.8125 36.53125 
Q 39.546875 41.84375 41.421875 45.53125 
Q 43.3125 49.21875 43.3125 52.78125 
Q 43.3125 58.59375 39.234375 62.25 
Q 35.15625 65.921875 28.609375 65.921875 
Q 23.96875 65.921875 18.8125 64.3125 
Q 13.671875 62.703125 7.8125 59.421875 
L 7.8125 69.390625 
Q 13.765625 71.78125 18.9375 73 
Q 24.125 74.21875 28.421875 74.21875 
Q 39.75 74.21875 46.484375 68.546875 
Q 53.21875 62.890625 53.21875 53.421875 
Q 53.21875 48.921875 51.53125 44.890625 
Q 49.859375 40.875 45.40625 35.40625 
Q 44.1875 33.984375 37.640625 27.21875 
Q 31.109375 20.453125 19.1875 8.296875 
z
" id="DejaVuSans-50"/>
     <path d="M 10.6875 12.40625 
L 21 12.40625 
L 21 0 
L 10.6875 0 
z
" id="DejaVuSans-46"/>
     <path d="M 10.796875 72.90625 
L 49.515625 72.90625 
L 49.515625 64.59375 
L 19.828125 64.59375 
L 19.828125 46.734375 
Q 21.96875 47.46875 24.109375 47.828125 
Q 26.265625 48.1875 28.421875 48.1875 
Q 40.625 48.1875 47.75 41.5 
Q 54.890625 34.8125 54.890625 23.390625 
Q 54.890625 11.625 47.5625 5.09375 
Q 40.234375 -1.421875 26.90625 -1.421875 
Q 22.3125 -1.421875 17.546875 -0.640625 
Q 12.796875 0.140625 7.71875 1.703125 
L 7.71875 11.625 
Q 12.109375 9.234375 16.796875 8.0625 
Q 21.484375 6.890625 26.703125 6.890625 
Q 35.15625 6.890625 40.078125 11.328125 
Q 45.015625 15.765625 45.015625 23.390625 
Q 45.015625 31 40.078125 35.4375 
Q 35.15625 39.890625 26.703125 39.890625 
Q 22.75 39.890625 18.8125 39.015625 
Q 14.890625 38.140625 10.796875 36.28125 
z
" id="DejaVuSans-53"/>
    </defs>
    <g transform="translate(200.664375 28.56)scale(0.12 -0.12)">
     <use xlink:href="#DejaVuSans-116"/>
     <use x="39.208984" xlink:href="#DejaVuSans-32"/>
     <use x="70.996094" xlink:href="#DejaVuSans-61"/>
     <use x="154.785156" xlink:href="#DejaVuSans-32"/>
     <use x="186.572266" xlink:href="#DejaVuSans-50"/>
     <use x="250.195312" xlink:href="#DejaVuSans-46"/>
     <use x="281.982422" xlink:href="#DejaVuSans-53"/>
    </g>
   </g>
  </g>
 </g>
 <defs>
  <clipPath id="p82ee95e149">
   <rect height="217.44" width="334.8" x="54" y="34.56"/>
  </clipPath>
 </defs>
</svg>
