<?xml version="1.0" encoding="utf-8" standalone="no"?>
<!DOCTYPE svg PUBLIC "-//W3C//DTD SVG 1.1//EN"
  "http://www.w3.org/Graphics/SVG/1.1/DTD/svg11.dtd">
<!-- Created with matplotlib (https://matplotlib.org/) -->
<svg height="288pt" version="1.1" viewBox="0 0 432 288" width="432pt" xmlns="http://www.w3.org/2000/svg" xmlns:xlink="http://www.w3.org/1999/xlink">
 <defs>
  <style type="text/css">
*{stroke-linecap:butt;stroke-linejoin:round;}
  </style>
 </defs>
 <g id="figure_1">
  <g id="patch_1">
   <path d="M 0 288 
L 432 288 
L 432 0 
L 0 0 
z
" style="fill:#ffffff;"/>
  </g>
  <g id="axes_1">
   <g id="patch_2">
    <path clip-path="url(#p4c911893e6)" d="M 194.365712 131.40819 
L 194.298023 142.279979 
L 193.210844 142.273211 
L 193.278533 131.401421 
z
" style="stroke:#000000;stroke-linejoin:miter;"/>
   </g>
   <g id="patch_3">
    <path clip-path="url(#p4c911893e6)" d="M 248.724658 131.746633 
L 248.65697 142.618423 
L 247.569791 142.611654 
L 247.637479 131.739864 
z
" style="stroke:#000000;stroke-linejoin:miter;"/>
   </g>
   <g id="patch_4">
    <path clip-path="url(#p4c911893e6)" d="M 211.941771 131.51762 
L 211.796443 130.965158 
L 211.355809 130.446935 
L 210.626947 129.996712 
L 209.621688 129.643717 
L 208.356434 129.41073 
L 206.851891 129.312605 
L 205.132737 129.355302 
L 203.227216 129.535504 
L 201.166676 129.840842 
L 198.985048 130.250716 
L 196.718282 130.737653 
L 194.403753 131.26911 
L 192.079631 131.80962 
L 189.784248 132.323121 
L 187.555453 132.775324 
L 185.429988 133.135973 
L 183.442865 133.380829 
L 181.626791 133.493271 
L 180.011625 133.46539 
L 178.623881 133.298518 
L 177.486299 133.003145 
L 176.617469 132.598245 
L 176.031535 132.110036 
L 175.737971 131.570274 
L 175.741434 131.014172 
L 176.041696 130.478107 
L 176.633663 129.997232 
L 177.507467 129.603182 
L 178.648639 129.321997 
L 180.038353 129.172417 
L 181.653742 129.16465 
L 183.468274 129.299697 
L 185.452194 129.569277 
L 187.573005 129.956363 
L 189.795995 130.436284 
L 192.084807 130.978326 
L 194.402018 131.547733 
L 196.709751 132.107969 
L 198.970277 132.623093 
L 201.146633 133.0601 
L 203.203211 133.391072 
L 205.10634 133.594986 
L 206.82483 133.659087 
L 208.330478 133.579704 
L 209.598535 133.362489 
L 210.608111 133.022038 
L 211.342523 132.580926 
L 211.789575 132.06823 
z
" style="fill:#0000ff;stroke:#000000;stroke-linejoin:miter;"/>
   </g>
   <g id="patch_5">
    <path clip-path="url(#p4c911893e6)" d="M 266.300718 131.856063 
L 266.15539 131.303601 
L 265.714755 130.785378 
L 264.985893 130.335156 
L 263.980635 129.98216 
L 262.71538 129.749173 
L 261.210838 129.651048 
L 259.491683 129.693745 
L 257.586163 129.873947 
L 255.525623 130.179285 
L 253.343994 130.58916 
L 251.077229 131.076096 
L 248.7627 131.607553 
L 246.438578 132.148063 
L 244.143194 132.661564 
L 241.9144 133.113767 
L 239.788934 133.474416 
L 237.801811 133.719272 
L 235.985738 133.831714 
L 234.370571 133.803833 
L 232.982828 133.636961 
L 231.845245 133.341588 
L 230.976415 132.936688 
L 230.390481 132.44848 
L 230.096918 131.908717 
L 230.10038 131.352616 
L 230.400642 130.81655 
L 230.992609 130.335675 
L 231.866414 129.941625 
L 233.007586 129.66044 
L 234.3973 129.51086 
L 236.012688 129.503093 
L 237.827221 129.63814 
L 239.811141 129.90772 
L 241.931951 130.294806 
L 244.154942 130.774727 
L 246.443753 131.316769 
L 248.760965 131.886176 
L 251.068697 132.446412 
L 253.329224 132.961536 
L 255.505579 133.398544 
L 257.562158 133.729515 
L 259.465287 133.93343 
L 261.183776 133.99753 
L 262.689424 133.918147 
L 263.957481 133.700933 
L 264.967057 133.360481 
L 265.701469 132.919369 
L 266.148522 132.406673 
z
" style="fill:#0000ff;stroke:#000000;stroke-linejoin:miter;"/>
   </g>
   <g id="patch_6">
    <path clip-path="url(#p4c911893e6)" d="M 253.566197 139.930935 
L 188.335461 139.524803 
L 188.301617 144.960698 
L 253.532353 145.36683 
z
" style="fill:#999999;stroke:#000000;stroke-linejoin:miter;"/>
   </g>
   <g id="text_1">
    <!-- t = 1.4 -->
    <defs>
     <path d="M 18.3125 70.21875 
L 18.3125 54.6875 
L 36.8125 54.6875 
L 36.8125 47.703125 
L 18.3125 47.703125 
L 18.3125 18.015625 
Q 18.3125 11.328125 20.140625 9.421875 
Q 21.96875 7.515625 27.59375 7.515625 
L 36.8125 7.515625 
L 36.8125 0 
L 27.59375 0 
Q 17.1875 0 13.234375 3.875 
Q 9.28125 7.765625 9.28125 18.015625 
L 9.28125 47.703125 
L 2.6875 47.703125 
L 2.6875 54.6875 
L 9.28125 54.6875 
L 9.28125 70.21875 
z
" id="DejaVuSans-116"/>
     <path id="DejaVuSans-32"/>
     <path d="M 10.59375 45.40625 
L 73.1875 45.40625 
L 73.1875 37.203125 
L 10.59375 37.203125 
z
M 10.59375 25.484375 
L 73.1875 25.484375 
L 73.1875 17.1875 
L 10.59375 17.1875 
z
" id="DejaVuSans-61"/>
     <path d="M 12.40625 8.296875 
L 28.515625 8.296875 
L 28.515625 63.921875 
L 10.984375 60.40625 
L 10.984375 69.390625 
L 28.421875 72.90625 
L 38.28125 72.90625 
L 38.28125 8.296875 
L 54.390625 8.296875 
L 54.390625 0 
L 12.40625 0 
z
" id="DejaVuSans-49"/>
     <path d="M 10.6875 12.40625 
L 21 12.40625 
L 21 0 
L 10.6875 0 
z
" id="DejaVuSans-46"/>
     <path d="M 37.796875 64.3125 
L 12.890625 25.390625 
L 37.796875 25.390625 
z
M 35.203125 72.90625 
L 47.609375 72.90625 
L 47.609375 25.390625 
L 58.015625 25.390625 
L 58.015625 17.1875 
L 47.609375 17.1875 
L 47.609375 0 
L 37.796875 0 
L 37.796875 17.1875 
L 4.890625 17.1875 
L 4.890625 26.703125 
z
" id="DejaVuSans-52"/>
    </defs>
    <g transform="translate(200.664375 28.56)scale(0.12 -0.12)">
     <use xlink:href="#DejaVuSans-116"/>
     <use x="39.208984" xlink:href="#DejaVuSans-32"/>
     <use x="70.996094" xlink:href="#DejaVuSans-61"/>
     <use x="154.785156" xlink:href="#DejaVuSans-32"/>
     <use x="186.572266" xlink:href="#DejaVuSans-49"/>
     <use x="250.195312" xlink:href="#DejaVuSans-46"/>
     <use x="281.982422" xlink:href="#DejaVuSans-52"/>
    </g>
   </g>
  </g>
 </g>
 <defs>
  <clipPath id="p4c911893e6">
   <rect height="217.44" width="334.8" x="54" y="34.56"/>
  </clipPath>
 </defs>
</svg>
