<?xml version="1.0" encoding="utf-8" standalone="no"?>
<!DOCTYPE svg PUBLIC "-//W3C//DTD SVG 1.1//EN"
  "http://www.w3.org/Graphics/SVG/1.1/DTD/svg11.dtd">
<!-- Created with matplotlib (https://matplotlib.org/) -->
<svg height="288pt" version="1.1" viewBox="0 0 432 288" width="432pt" xmlns="http://www.w3.org/2000/svg" xmlns:xlink="http://www.w3.org/1999/xlink">
 <defs>
  <style type="text/css">
*{stroke-linecap:butt;stroke-linejoin:round;}
  </style>
 </defs>
 <g id="figure_1">
  <g id="patch_1">
   <path d="M 0 288 
L 432 288 
L 432 0 
L 0 0 
z
" style="fill:#ffffff;"/>
  </g>
  <g id="axes_1">
   <g id="patch_2">
    <path clip-path="url(#p648e95cdd8)" d="M 194.800599 132.40098 
L 194.796023 143.27298 
L 193.708823 143.272522 
L 193.713399 132.400523 
z
" style="stroke:#000000;stroke-linejoin:miter;"/>
   </g>
   <g id="patch_3">
    <path clip-path="url(#p648e95cdd8)" d="M 249.160594 132.423857 
L 249.156019 143.295856 
L 248.068819 143.295399 
L 248.073394 132.4234 
z
" style="stroke:#000000;stroke-linejoin:miter;"/>
   </g>
   <g id="patch_4">
    <path clip-path="url(#p648e95cdd8)" d="M 212.376997 132.408377 
L 212.228464 131.856768 
L 211.784829 131.341112 
L 211.053365 130.895128 
L 210.046075 130.547974 
L 208.77949 130.322336 
L 207.274402 130.232947 
L 205.555525 130.285623 
L 203.651083 130.476883 
L 201.59235 130.794178 
L 199.413137 131.21671 
L 197.149237 131.716797 
L 194.837832 132.261682 
L 192.516887 132.815675 
L 190.224523 133.342492 
L 187.998391 133.807626 
L 185.875055 134.180607 
L 183.889387 134.436995 
L 182.073997 134.559977 
L 180.458696 134.541473 
L 179.070007 134.382659 
L 177.930729 134.093896 
L 177.059563 133.694046 
L 176.470805 133.209247 
L 176.174113 132.671198 
L 176.174347 132.115086 
L 176.471492 131.577286 
L 177.060657 131.092983 
L 177.93216 130.693867 
L 179.07168 130.406062 
L 180.460503 130.248417 
L 182.075819 130.231273 
L 183.891105 130.355783 
L 185.876556 130.613842 
L 187.999578 130.98861 
L 190.225317 131.455618 
L 192.517237 131.984364 
L 194.837715 132.54031 
L 197.14866 133.08714 
L 199.412139 133.589132 
L 201.590995 134.013499 
L 203.64946 134.332526 
L 205.553741 134.525389 
L 207.272573 134.579512 
L 208.777735 134.49139 
L 210.04451 134.266818 
L 211.052092 133.920512 
L 211.783931 133.475144 
L 212.228 132.959861 
z
" style="fill:#0000ff;stroke:#000000;stroke-linejoin:miter;"/>
   </g>
   <g id="patch_5">
    <path clip-path="url(#p648e95cdd8)" d="M 266.736992 132.431254 
L 266.588459 131.879645 
L 266.144824 131.363988 
L 265.413361 130.918005 
L 264.40607 130.57085 
L 263.139485 130.345212 
L 261.634398 130.255824 
L 259.91552 130.3085 
L 258.011078 130.49976 
L 255.952345 130.817055 
L 253.773133 131.239587 
L 251.509232 131.739674 
L 249.197827 132.284558 
L 246.876882 132.838551 
L 244.584518 133.365368 
L 242.358387 133.830502 
L 240.23505 134.203484 
L 238.249382 134.459871 
L 236.433992 134.582854 
L 234.818691 134.56435 
L 233.430002 134.405536 
L 232.290724 134.116772 
L 231.419558 133.716923 
L 230.8308 133.232124 
L 230.534108 132.694075 
L 230.534342 132.137962 
L 230.831487 131.600163 
L 231.420653 131.11586 
L 232.292155 130.716744 
L 233.431676 130.428939 
L 234.820498 130.271294 
L 236.435814 130.25415 
L 238.2511 130.37866 
L 240.236551 130.636719 
L 242.359573 131.011487 
L 244.585312 131.478495 
L 246.877232 132.007241 
L 249.19771 132.563187 
L 251.508655 133.110017 
L 253.772134 133.612009 
L 255.95099 134.036375 
L 258.009455 134.355403 
L 259.913736 134.548266 
L 261.632568 134.602389 
L 263.13773 134.514267 
L 264.404505 134.289695 
L 265.412087 133.943389 
L 266.143926 133.498021 
L 266.587995 132.982738 
z
" style="fill:#0000ff;stroke:#000000;stroke-linejoin:miter;"/>
   </g>
   <g id="patch_6">
    <path clip-path="url(#p648e95cdd8)" d="M 254.049562 140.579915 
L 188.817568 140.552463 
L 188.81528 145.988463 
L 254.047274 146.015915 
z
" style="fill:#999999;stroke:#000000;stroke-linejoin:miter;"/>
   </g>
   <g id="text_1">
    <!-- t = 2.9 -->
    <defs>
     <path d="M 18.3125 70.21875 
L 18.3125 54.6875 
L 36.8125 54.6875 
L 36.8125 47.703125 
L 18.3125 47.703125 
L 18.3125 18.015625 
Q 18.3125 11.328125 20.140625 9.421875 
Q 21.96875 7.515625 27.59375 7.515625 
L 36.8125 7.515625 
L 36.8125 0 
L 27.59375 0 
Q 17.1875 0 13.234375 3.875 
Q 9.28125 7.765625 9.28125 18.015625 
L 9.28125 47.703125 
L 2.6875 47.703125 
L 2.6875 54.6875 
L 9.28125 54.6875 
L 9.28125 70.21875 
z
" id="DejaVuSans-116"/>
     <path id="DejaVuSans-32"/>
     <path d="M 10.59375 45.40625 
L 73.1875 45.40625 
L 73.1875 37.203125 
L 10.59375 37.203125 
z
M 10.59375 25.484375 
L 73.1875 25.484375 
L 73.1875 17.1875 
L 10.59375 17.1875 
z
" id="DejaVuSans-61"/>
     <path d="M 19.1875 8.296875 
L 53.609375 8.296875 
L 53.609375 0 
L 7.328125 0 
L 7.328125 8.296875 
Q 12.9375 14.109375 22.625 23.890625 
Q 32.328125 33.6875 34.8125 36.53125 
Q 39.546875 41.84375 41.421875 45.53125 
Q 43.3125 49.21875 43.3125 52.78125 
Q 43.3125 58.59375 39.234375 62.25 
Q 35.15625 65.921875 28.609375 65.921875 
Q 23.96875 65.921875 18.8125 64.3125 
Q 13.671875 62.703125 7.8125 59.421875 
L 7.8125 69.390625 
Q 13.765625 71.78125 18.9375 73 
Q 24.125 74.21875 28.421875 74.21875 
Q 39.75 74.21875 46.484375 68.546875 
Q 53.21875 62.890625 53.21875 53.421875 
Q 53.21875 48.921875 51.53125 44.890625 
Q 49.859375 40.875 45.40625 35.40625 
Q 44.1875 33.984375 37.640625 27.21875 
Q 31.109375 20.453125 19.1875 8.296875 
z
" id="DejaVuSans-50"/>
     <path d="M 10.6875 12.40625 
L 21 12.40625 
L 21 0 
L 10.6875 0 
z
" id="DejaVuSans-46"/>
     <path d="M 10.984375 1.515625 
L 10.984375 10.5 
Q 14.703125 8.734375 18.5 7.8125 
Q 22.3125 6.890625 25.984375 6.890625 
Q 35.75 6.890625 40.890625 13.453125 
Q 46.046875 20.015625 46.78125 33.40625 
Q 43.953125 29.203125 39.59375 26.953125 
Q 35.25 24.703125 29.984375 24.703125 
Q 19.046875 24.703125 12.671875 31.3125 
Q 6.296875 37.9375 6.296875 49.421875 
Q 6.296875 60.640625 12.9375 67.421875 
Q 19.578125 74.21875 30.609375 74.21875 
Q 43.265625 74.21875 49.921875 64.515625 
Q 56.59375 54.828125 56.59375 36.375 
Q 56.59375 19.140625 48.40625 8.859375 
Q 40.234375 -1.421875 26.421875 -1.421875 
Q 22.703125 -1.421875 18.890625 -0.6875 
Q 15.09375 0.046875 10.984375 1.515625 
z
M 30.609375 32.421875 
Q 37.25 32.421875 41.125 36.953125 
Q 45.015625 41.5 45.015625 49.421875 
Q 45.015625 57.28125 41.125 61.84375 
Q 37.25 66.40625 30.609375 66.40625 
Q 23.96875 66.40625 20.09375 61.84375 
Q 16.21875 57.28125 16.21875 49.421875 
Q 16.21875 41.5 20.09375 36.953125 
Q 23.96875 32.421875 30.609375 32.421875 
z
" id="DejaVuSans-57"/>
    </defs>
    <g transform="translate(200.664375 28.56)scale(0.12 -0.12)">
     <use xlink:href="#DejaVuSans-116"/>
     <use x="39.208984" xlink:href="#DejaVuSans-32"/>
     <use x="70.996094" xlink:href="#DejaVuSans-61"/>
     <use x="154.785156" xlink:href="#DejaVuSans-32"/>
     <use x="186.572266" xlink:href="#DejaVuSans-50"/>
     <use x="250.195312" xlink:href="#DejaVuSans-46"/>
     <use x="281.982422" xlink:href="#DejaVuSans-57"/>
    </g>
   </g>
  </g>
 </g>
 <defs>
  <clipPath id="p648e95cdd8">
   <rect height="217.44" width="334.8" x="54" y="34.56"/>
  </clipPath>
 </defs>
</svg>
