<?xml version="1.0" encoding="utf-8" standalone="no"?>
<!DOCTYPE svg PUBLIC "-//W3C//DTD SVG 1.1//EN"
  "http://www.w3.org/Graphics/SVG/1.1/DTD/svg11.dtd">
<!-- Created with matplotlib (https://matplotlib.org/) -->
<svg height="288pt" version="1.1" viewBox="0 0 432 288" width="432pt" xmlns="http://www.w3.org/2000/svg" xmlns:xlink="http://www.w3.org/1999/xlink">
 <defs>
  <style type="text/css">
*{stroke-linecap:butt;stroke-linejoin:round;}
  </style>
 </defs>
 <g id="figure_1">
  <g id="patch_1">
   <path d="M 0 288 
L 432 288 
L 432 0 
L 0 0 
z
" style="fill:#ffffff;"/>
  </g>
  <g id="axes_1">
   <g id="patch_2">
    <path clip-path="url(#p41219d468c)" d="M 191.729974 135.87423 
L 192.272555 146.732682 
L 191.18671 146.78694 
L 190.644129 135.928488 
z
" style="stroke:#000000;stroke-linejoin:miter;"/>
   </g>
   <g id="patch_3">
    <path clip-path="url(#p41219d468c)" d="M 246.022236 133.161323 
L 246.564817 144.019776 
L 245.478972 144.074034 
L 244.936391 133.215582 
z
" style="stroke:#000000;stroke-linejoin:miter;"/>
   </g>
   <g id="patch_4">
    <path clip-path="url(#p41219d468c)" d="M 209.284472 134.997057 
L 209.108367 134.453622 
L 208.639342 133.960945 
L 207.886361 133.552339 
L 206.862875 133.256318 
L 205.58654 133.094709 
L 204.078861 133.081179 
L 202.364813 133.220294 
L 200.472409 133.507156 
L 198.432253 133.927658 
L 196.277067 134.459327 
L 194.041203 135.072715 
L 191.760149 135.733234 
L 189.470026 136.40333 
L 187.20708 137.044846 
L 185.007178 137.621424 
L 182.905303 138.100793 
L 180.935054 138.456788 
L 179.128154 138.670977 
L 177.513969 138.733789 
L 176.119047 138.645065 
L 174.96668 138.414003 
L 174.076495 138.058503 
L 173.464085 137.603948 
L 173.14069 137.081512 
L 173.112937 136.526093 
L 173.38264 135.974021 
L 173.946685 135.460681 
L 174.796997 135.018211 
L 175.920589 134.673422 
L 177.299718 134.446082 
L 178.912124 134.347666 
L 180.731376 134.380662 
L 182.727299 134.538473 
L 184.866491 134.805922 
L 187.112913 135.160324 
L 189.428538 135.573055 
L 191.774055 136.011515 
L 194.109592 136.44135 
L 196.395466 136.828793 
L 198.592918 137.142967 
L 200.66483 137.357994 
L 202.576404 137.454777 
L 204.295782 137.422329 
L 205.794602 137.258568 
L 207.048469 136.970529 
L 208.037347 136.573953 
L 208.745844 136.092319 
L 209.163418 135.55534 
z
" style="fill:#0000ff;stroke:#000000;stroke-linejoin:miter;"/>
   </g>
   <g id="patch_5">
    <path clip-path="url(#p41219d468c)" d="M 263.576734 132.28415 
L 263.400629 131.740715 
L 262.931605 131.248039 
L 262.178623 130.839433 
L 261.155138 130.543412 
L 259.878802 130.381803 
L 258.371123 130.368273 
L 256.657075 130.507388 
L 254.764671 130.79425 
L 252.724516 131.214751 
L 250.569329 131.746421 
L 248.333465 132.359808 
L 246.052412 133.020327 
L 243.762288 133.690424 
L 241.499342 134.33194 
L 239.29944 134.908518 
L 237.197565 135.387887 
L 235.227317 135.743882 
L 233.420416 135.958071 
L 231.806231 136.020883 
L 230.411309 135.932158 
L 229.258942 135.701096 
L 228.368757 135.345596 
L 227.756347 134.891042 
L 227.432952 134.368606 
L 227.405199 133.813187 
L 227.674902 133.261115 
L 228.238947 132.747775 
L 229.089259 132.305304 
L 230.212852 131.960516 
L 231.59198 131.733176 
L 233.204386 131.63476 
L 235.023638 131.667756 
L 237.019561 131.825566 
L 239.158753 132.093015 
L 241.405175 132.447417 
L 243.7208 132.860149 
L 246.066317 133.298609 
L 248.401854 133.728443 
L 250.687728 134.115887 
L 252.88518 134.430061 
L 254.957092 134.645088 
L 256.868666 134.741871 
L 258.588044 134.709422 
L 260.086864 134.545662 
L 261.340731 134.257623 
L 262.329609 133.861047 
L 263.038106 133.379412 
L 263.45568 132.842434 
z
" style="fill:#0000ff;stroke:#000000;stroke-linejoin:miter;"/>
   </g>
   <g id="patch_6">
    <path clip-path="url(#p41219d468c)" d="M 251.315476 141.061001 
L 186.164761 144.316489 
L 186.436051 149.745715 
L 251.586766 146.490227 
z
" style="fill:#999999;stroke:#000000;stroke-linejoin:miter;"/>
   </g>
   <g id="text_1">
    <!-- t = 1.1 -->
    <defs>
     <path d="M 18.3125 70.21875 
L 18.3125 54.6875 
L 36.8125 54.6875 
L 36.8125 47.703125 
L 18.3125 47.703125 
L 18.3125 18.015625 
Q 18.3125 11.328125 20.140625 9.421875 
Q 21.96875 7.515625 27.59375 7.515625 
L 36.8125 7.515625 
L 36.8125 0 
L 27.59375 0 
Q 17.1875 0 13.234375 3.875 
Q 9.28125 7.765625 9.28125 18.015625 
L 9.28125 47.703125 
L 2.6875 47.703125 
L 2.6875 54.6875 
L 9.28125 54.6875 
L 9.28125 70.21875 
z
" id="DejaVuSans-116"/>
     <path id="DejaVuSans-32"/>
     <path d="M 10.59375 45.40625 
L 73.1875 45.40625 
L 73.1875 37.203125 
L 10.59375 37.203125 
z
M 10.59375 25.484375 
L 73.1875 25.484375 
L 73.1875 17.1875 
L 10.59375 17.1875 
z
" id="DejaVuSans-61"/>
     <path d="M 12.40625 8.296875 
L 28.515625 8.296875 
L 28.515625 63.921875 
L 10.984375 60.40625 
L 10.984375 69.390625 
L 28.421875 72.90625 
L 38.28125 72.90625 
L 38.28125 8.296875 
L 54.390625 8.296875 
L 54.390625 0 
L 12.40625 0 
z
" id="DejaVuSans-49"/>
     <path d="M 10.6875 12.40625 
L 21 12.40625 
L 21 0 
L 10.6875 0 
z
" id="DejaVuSans-46"/>
    </defs>
    <g transform="translate(200.664375 28.56)scale(0.12 -0.12)">
     <use xlink:href="#DejaVuSans-116"/>
     <use x="39.208984" xlink:href="#DejaVuSans-32"/>
     <use x="70.996094" xlink:href="#DejaVuSans-61"/>
     <use x="154.785156" xlink:href="#DejaVuSans-32"/>
     <use x="186.572266" xlink:href="#DejaVuSans-49"/>
     <use x="250.195312" xlink:href="#DejaVuSans-46"/>
     <use x="281.982422" xlink:href="#DejaVuSans-49"/>
    </g>
   </g>
  </g>
 </g>
 <defs>
  <clipPath id="p41219d468c">
   <rect height="217.44" width="334.8" x="54" y="34.56"/>
  </clipPath>
 </defs>
</svg>
