<?xml version="1.0" encoding="utf-8" standalone="no"?>
<!DOCTYPE svg PUBLIC "-//W3C//DTD SVG 1.1//EN"
  "http://www.w3.org/Graphics/SVG/1.1/DTD/svg11.dtd">
<!-- Created with matplotlib (https://matplotlib.org/) -->
<svg height="288pt" version="1.1" viewBox="0 0 432 288" width="432pt" xmlns="http://www.w3.org/2000/svg" xmlns:xlink="http://www.w3.org/1999/xlink">
 <defs>
  <style type="text/css">
*{stroke-linecap:butt;stroke-linejoin:round;}
  </style>
 </defs>
 <g id="figure_1">
  <g id="patch_1">
   <path d="M 0 288 
L 432 288 
L 432 0 
L 0 0 
z
" style="fill:#ffffff;"/>
  </g>
  <g id="axes_1">
   <g id="patch_2">
    <path clip-path="url(#p2062da2618)" d="M 194.632506 132.453382 
L 194.643691 143.325376 
L 193.556492 143.326495 
L 193.545307 132.4545 
z
" style="stroke:#000000;stroke-linejoin:miter;"/>
   </g>
   <g id="patch_3">
    <path clip-path="url(#p2062da2618)" d="M 248.992477 132.397457 
L 249.003662 143.269452 
L 247.916463 143.27057 
L 247.905278 132.398576 
z
" style="stroke:#000000;stroke-linejoin:miter;"/>
   </g>
   <g id="patch_4">
    <path clip-path="url(#p2062da2618)" d="M 212.208897 132.4353 
L 212.059564 131.883906 
L 211.615182 131.368894 
L 210.883073 130.923971 
L 209.87528 130.578277 
L 208.608369 130.354475 
L 207.103154 130.267268 
L 205.384355 130.322436 
L 203.480191 130.516457 
L 201.421921 130.836736 
L 199.243323 131.262427 
L 196.98015 131.765795 
L 194.669537 132.314029 
L 192.349398 132.871386 
L 190.0578 133.401526 
L 187.832345 133.869886 
L 185.709552 134.245945 
L 183.724257 134.505211 
L 181.909047 134.630825 
L 180.293721 134.614663 
L 178.904803 134.457862 
L 177.765108 134.17075 
L 176.893363 133.772164 
L 176.303903 133.288219 
L 176.006431 132.7506 
L 176.005859 132.194488 
L 176.302224 131.656259 
L 176.890687 131.171102 
L 177.76161 130.770723 
L 178.900712 130.481267 
L 180.289305 130.321609 
L 181.904594 130.302123 
L 183.720059 130.424002 
L 185.705882 130.679182 
L 187.829445 131.050872 
L 190.055859 131.514653 
L 192.348542 132.040076 
L 194.669824 132.592658 
L 196.98156 133.136137 
L 199.245764 133.634848 
L 201.425233 134.056055 
L 203.484158 134.372098 
L 205.388716 134.5622 
L 207.107626 134.613832 
L 208.612658 134.523528 
L 209.879106 134.29712 
L 210.886185 133.949353 
L 211.617378 133.502925 
L 212.060699 132.986999 
z
" style="fill:#0000ff;stroke:#000000;stroke-linejoin:miter;"/>
   </g>
   <g id="patch_5">
    <path clip-path="url(#p2062da2618)" d="M 266.568868 132.379375 
L 266.419536 131.827982 
L 265.975154 131.312969 
L 265.243044 130.868046 
L 264.235251 130.522352 
L 262.96834 130.298551 
L 261.463125 130.211344 
L 259.744326 130.266512 
L 257.840163 130.460532 
L 255.781892 130.780811 
L 253.603294 131.206502 
L 251.340121 131.70987 
L 249.029509 132.258105 
L 246.709369 132.815462 
L 244.417771 133.345601 
L 242.192316 133.813962 
L 240.069523 134.190021 
L 238.084229 134.449286 
L 236.269019 134.5749 
L 234.653692 134.558738 
L 233.264775 134.401938 
L 232.125079 134.114825 
L 231.253335 133.716239 
L 230.663875 133.232294 
L 230.366403 132.694676 
L 230.365831 132.138564 
L 230.662196 131.600334 
L 231.250659 131.115178 
L 232.121581 130.714799 
L 233.260684 130.425342 
L 234.649276 130.265684 
L 236.264565 130.246198 
L 238.08003 130.368077 
L 240.065853 130.623257 
L 242.189416 130.994948 
L 244.41583 131.458728 
L 246.708514 131.984151 
L 249.029795 132.536733 
L 251.341531 133.080212 
L 253.605735 133.578923 
L 255.785204 134.00013 
L 257.844129 134.316173 
L 259.748688 134.506276 
L 261.467597 134.557907 
L 262.972629 134.467603 
L 264.239077 134.241195 
L 265.246157 133.893429 
L 265.977349 133.447 
L 266.420671 132.931074 
z
" style="fill:#0000ff;stroke:#000000;stroke-linejoin:miter;"/>
   </g>
   <g id="patch_6">
    <path clip-path="url(#p2062da2618)" d="M 253.893263 140.54642 
L 188.661298 140.613529 
L 188.66689 146.049526 
L 253.898856 145.982417 
z
" style="fill:#999999;stroke:#000000;stroke-linejoin:miter;"/>
   </g>
   <g id="text_1">
    <!-- t = 2.8 -->
    <defs>
     <path d="M 18.3125 70.21875 
L 18.3125 54.6875 
L 36.8125 54.6875 
L 36.8125 47.703125 
L 18.3125 47.703125 
L 18.3125 18.015625 
Q 18.3125 11.328125 20.140625 9.421875 
Q 21.96875 7.515625 27.59375 7.515625 
L 36.8125 7.515625 
L 36.8125 0 
L 27.59375 0 
Q 17.1875 0 13.234375 3.875 
Q 9.28125 7.765625 9.28125 18.015625 
L 9.28125 47.703125 
L 2.6875 47.703125 
L 2.6875 54.6875 
L 9.28125 54.6875 
L 9.28125 70.21875 
z
" id="DejaVuSans-116"/>
     <path id="DejaVuSans-32"/>
     <path d="M 10.59375 45.40625 
L 73.1875 45.40625 
L 73.1875 37.203125 
L 10.59375 37.203125 
z
M 10.59375 25.484375 
L 73.1875 25.484375 
L 73.1875 17.1875 
L 10.59375 17.1875 
z
" id="DejaVuSans-61"/>
     <path d="M 19.1875 8.296875 
L 53.609375 8.296875 
L 53.609375 0 
L 7.328125 0 
L 7.328125 8.296875 
Q 12.9375 14.109375 22.625 23.890625 
Q 32.328125 33.6875 34.8125 36.53125 
Q 39.546875 41.84375 41.421875 45.53125 
Q 43.3125 49.21875 43.3125 52.78125 
Q 43.3125 58.59375 39.234375 62.25 
Q 35.15625 65.921875 28.609375 65.921875 
Q 23.96875 65.921875 18.8125 64.3125 
Q 13.671875 62.703125 7.8125 59.421875 
L 7.8125 69.390625 
Q 13.765625 71.78125 18.9375 73 
Q 24.125 74.21875 28.421875 74.21875 
Q 39.75 74.21875 46.484375 68.546875 
Q 53.21875 62.890625 53.21875 53.421875 
Q 53.21875 48.921875 51.53125 44.890625 
Q 49.859375 40.875 45.40625 35.40625 
Q 44.1875 33.984375 37.640625 27.21875 
Q 31.109375 20.453125 19.1875 8.296875 
z
" id="DejaVuSans-50"/>
     <path d="M 10.6875 12.40625 
L 21 12.40625 
L 21 0 
L 10.6875 0 
z
" id="DejaVuSans-46"/>
     <path d="M 31.78125 34.625 
Q 24.75 34.625 20.71875 30.859375 
Q 16.703125 27.09375 16.703125 20.515625 
Q 16.703125 13.921875 20.71875 10.15625 
Q 24.75 6.390625 31.78125 6.390625 
Q 38.8125 6.390625 42.859375 10.171875 
Q 46.921875 13.96875 46.921875 20.515625 
Q 46.921875 27.09375 42.890625 30.859375 
Q 38.875 34.625 31.78125 34.625 
z
M 21.921875 38.8125 
Q 15.578125 40.375 12.03125 44.71875 
Q 8.5 49.078125 8.5 55.328125 
Q 8.5 64.0625 14.71875 69.140625 
Q 20.953125 74.21875 31.78125 74.21875 
Q 42.671875 74.21875 48.875 69.140625 
Q 55.078125 64.0625 55.078125 55.328125 
Q 55.078125 49.078125 51.53125 44.71875 
Q 48 40.375 41.703125 38.8125 
Q 48.828125 37.15625 52.796875 32.3125 
Q 56.78125 27.484375 56.78125 20.515625 
Q 56.78125 9.90625 50.3125 4.234375 
Q 43.84375 -1.421875 31.78125 -1.421875 
Q 19.734375 -1.421875 13.25 4.234375 
Q 6.78125 9.90625 6.78125 20.515625 
Q 6.78125 27.484375 10.78125 32.3125 
Q 14.796875 37.15625 21.921875 38.8125 
z
M 18.3125 54.390625 
Q 18.3125 48.734375 21.84375 45.5625 
Q 25.390625 42.390625 31.78125 42.390625 
Q 38.140625 42.390625 41.71875 45.5625 
Q 45.3125 48.734375 45.3125 54.390625 
Q 45.3125 60.0625 41.71875 63.234375 
Q 38.140625 66.40625 31.78125 66.40625 
Q 25.390625 66.40625 21.84375 63.234375 
Q 18.3125 60.0625 18.3125 54.390625 
z
" id="DejaVuSans-56"/>
    </defs>
    <g transform="translate(200.664375 28.56)scale(0.12 -0.12)">
     <use xlink:href="#DejaVuSans-116"/>
     <use x="39.208984" xlink:href="#DejaVuSans-32"/>
     <use x="70.996094" xlink:href="#DejaVuSans-61"/>
     <use x="154.785156" xlink:href="#DejaVuSans-32"/>
     <use x="186.572266" xlink:href="#DejaVuSans-50"/>
     <use x="250.195312" xlink:href="#DejaVuSans-46"/>
     <use x="281.982422" xlink:href="#DejaVuSans-56"/>
    </g>
   </g>
  </g>
 </g>
 <defs>
  <clipPath id="p2062da2618">
   <rect height="217.44" width="334.8" x="54" y="34.56"/>
  </clipPath>
 </defs>
</svg>
