<?xml version="1.0" encoding="utf-8" standalone="no"?>
<!DOCTYPE svg PUBLIC "-//W3C//DTD SVG 1.1//EN"
  "http://www.w3.org/Graphics/SVG/1.1/DTD/svg11.dtd">
<!-- Created with matplotlib (https://matplotlib.org/) -->
<svg height="288pt" version="1.1" viewBox="0 0 432 288" width="432pt" xmlns="http://www.w3.org/2000/svg" xmlns:xlink="http://www.w3.org/1999/xlink">
 <defs>
  <style type="text/css">
*{stroke-linecap:butt;stroke-linejoin:round;}
  </style>
 </defs>
 <g id="figure_1">
  <g id="patch_1">
   <path d="M 0 288 
L 432 288 
L 432 0 
L 0 0 
z
" style="fill:#ffffff;"/>
  </g>
  <g id="axes_1">
   <g id="patch_2">
    <path clip-path="url(#p1d84628da9)" d="M 194.762992 132.408839 
L 194.763376 143.280839 
L 193.676176 143.280877 
L 193.675792 132.408877 
z
" style="stroke:#000000;stroke-linejoin:miter;"/>
   </g>
   <g id="patch_3">
    <path clip-path="url(#p1d84628da9)" d="M 249.122992 132.406916 
L 249.123376 143.278916 
L 248.036176 143.278954 
L 248.035792 132.406954 
z
" style="stroke:#000000;stroke-linejoin:miter;"/>
   </g>
   <g id="patch_4">
    <path clip-path="url(#p1d84628da9)" d="M 212.339392 132.408217 
L 212.190607 131.856676 
L 211.746737 131.341222 
L 211.01507 130.895572 
L 210.007621 130.548877 
L 208.740933 130.323817 
L 207.235805 130.235115 
L 205.516952 130.288575 
L 203.612597 130.480704 
L 201.554009 130.798938 
L 199.37499 131.222464 
L 197.111318 131.723584 
L 194.800161 132.269523 
L 192.479469 132.824575 
L 190.187346 133.352437 
L 187.961427 133.818587 
L 185.838261 134.192537 
L 183.85271 134.44983 
L 182.037376 134.573641 
L 180.422067 134.555874 
L 179.033306 134.397694 
L 177.893896 134.10945 
L 177.022548 133.709998 
L 176.433569 133.225467 
L 176.136631 132.687553 
L 176.136611 132.131441 
L 176.433511 131.593506 
L 177.022456 131.108934 
L 177.893776 130.709421 
L 179.033165 130.421096 
L 180.421915 130.262818 
L 182.037223 130.244936 
L 183.852566 130.368619 
L 185.838135 130.625772 
L 187.961327 130.999571 
L 190.187279 131.465564 
L 192.47944 131.993264 
L 194.800171 132.548152 
L 197.111366 133.093927 
L 199.375074 133.594887 
L 201.554123 134.018259 
L 203.612733 134.336347 
L 205.517102 134.528341 
L 207.235959 134.58168 
L 208.74108 134.492872 
L 210.007752 134.267722 
L 211.015177 133.920956 
L 211.746812 133.475254 
L 212.190646 132.959769 
z
" style="fill:#0000ff;stroke:#000000;stroke-linejoin:miter;"/>
   </g>
   <g id="patch_5">
    <path clip-path="url(#p1d84628da9)" d="M 266.699392 132.406294 
L 266.550607 131.854753 
L 266.106737 131.339299 
L 265.37507 130.893649 
L 264.367621 130.546954 
L 263.100933 130.321894 
L 261.595805 130.233192 
L 259.876952 130.286652 
L 257.972597 130.478781 
L 255.914009 130.797015 
L 253.73499 131.220542 
L 251.471318 131.721662 
L 249.160161 132.2676 
L 246.839469 132.822652 
L 244.547346 133.350515 
L 242.321427 133.816664 
L 240.198261 134.190614 
L 238.21271 134.447908 
L 236.397376 134.571718 
L 234.782067 134.553951 
L 233.393306 134.395771 
L 232.253896 134.107527 
L 231.382548 133.708075 
L 230.793569 133.223545 
L 230.496631 132.685631 
L 230.496611 132.129519 
L 230.793511 131.591584 
L 231.382456 131.107012 
L 232.253776 130.707498 
L 233.393165 130.419173 
L 234.781915 130.260895 
L 236.397223 130.243014 
L 238.212566 130.366696 
L 240.198135 130.623849 
L 242.321327 130.997649 
L 244.547279 131.463641 
L 246.83944 131.991341 
L 249.160171 132.546229 
L 251.471366 133.092004 
L 253.735074 133.592964 
L 255.914123 134.016336 
L 257.972733 134.334425 
L 259.877102 134.526419 
L 261.595959 134.579758 
L 263.10108 134.490949 
L 264.367752 134.265799 
L 265.375177 133.919033 
L 266.106812 133.473332 
L 266.550646 132.957846 
z
" style="fill:#0000ff;stroke:#000000;stroke-linejoin:miter;"/>
   </g>
   <g id="patch_6">
    <path clip-path="url(#p1d84628da9)" d="M 254.01568 140.560743 
L 188.78368 140.56305 
L 188.783872 145.99905 
L 254.015872 145.996743 
z
" style="fill:#999999;stroke:#000000;stroke-linejoin:miter;"/>
   </g>
   <g id="text_1">
    <!-- t = 3.7 -->
    <defs>
     <path d="M 18.3125 70.21875 
L 18.3125 54.6875 
L 36.8125 54.6875 
L 36.8125 47.703125 
L 18.3125 47.703125 
L 18.3125 18.015625 
Q 18.3125 11.328125 20.140625 9.421875 
Q 21.96875 7.515625 27.59375 7.515625 
L 36.8125 7.515625 
L 36.8125 0 
L 27.59375 0 
Q 17.1875 0 13.234375 3.875 
Q 9.28125 7.765625 9.28125 18.015625 
L 9.28125 47.703125 
L 2.6875 47.703125 
L 2.6875 54.6875 
L 9.28125 54.6875 
L 9.28125 70.21875 
z
" id="DejaVuSans-116"/>
     <path id="DejaVuSans-32"/>
     <path d="M 10.59375 45.40625 
L 73.1875 45.40625 
L 73.1875 37.203125 
L 10.59375 37.203125 
z
M 10.59375 25.484375 
L 73.1875 25.484375 
L 73.1875 17.1875 
L 10.59375 17.1875 
z
" id="DejaVuSans-61"/>
     <path d="M 40.578125 39.3125 
Q 47.65625 37.796875 51.625 33 
Q 55.609375 28.21875 55.609375 21.1875 
Q 55.609375 10.40625 48.1875 4.484375 
Q 40.765625 -1.421875 27.09375 -1.421875 
Q 22.515625 -1.421875 17.65625 -0.515625 
Q 12.796875 0.390625 7.625 2.203125 
L 7.625 11.71875 
Q 11.71875 9.328125 16.59375 8.109375 
Q 21.484375 6.890625 26.8125 6.890625 
Q 36.078125 6.890625 40.9375 10.546875 
Q 45.796875 14.203125 45.796875 21.1875 
Q 45.796875 27.640625 41.28125 31.265625 
Q 36.765625 34.90625 28.71875 34.90625 
L 20.21875 34.90625 
L 20.21875 43.015625 
L 29.109375 43.015625 
Q 36.375 43.015625 40.234375 45.921875 
Q 44.09375 48.828125 44.09375 54.296875 
Q 44.09375 59.90625 40.109375 62.90625 
Q 36.140625 65.921875 28.71875 65.921875 
Q 24.65625 65.921875 20.015625 65.03125 
Q 15.375 64.15625 9.8125 62.3125 
L 9.8125 71.09375 
Q 15.4375 72.65625 20.34375 73.4375 
Q 25.25 74.21875 29.59375 74.21875 
Q 40.828125 74.21875 47.359375 69.109375 
Q 53.90625 64.015625 53.90625 55.328125 
Q 53.90625 49.265625 50.4375 45.09375 
Q 46.96875 40.921875 40.578125 39.3125 
z
" id="DejaVuSans-51"/>
     <path d="M 10.6875 12.40625 
L 21 12.40625 
L 21 0 
L 10.6875 0 
z
" id="DejaVuSans-46"/>
     <path d="M 8.203125 72.90625 
L 55.078125 72.90625 
L 55.078125 68.703125 
L 28.609375 0 
L 18.3125 0 
L 43.21875 64.59375 
L 8.203125 64.59375 
z
" id="DejaVuSans-55"/>
    </defs>
    <g transform="translate(200.664375 28.56)scale(0.12 -0.12)">
     <use xlink:href="#DejaVuSans-116"/>
     <use x="39.208984" xlink:href="#DejaVuSans-32"/>
     <use x="70.996094" xlink:href="#DejaVuSans-61"/>
     <use x="154.785156" xlink:href="#DejaVuSans-32"/>
     <use x="186.572266" xlink:href="#DejaVuSans-51"/>
     <use x="250.195312" xlink:href="#DejaVuSans-46"/>
     <use x="281.982422" xlink:href="#DejaVuSans-55"/>
    </g>
   </g>
  </g>
 </g>
 <defs>
  <clipPath id="p1d84628da9">
   <rect height="217.44" width="334.8" x="54" y="34.56"/>
  </clipPath>
 </defs>
</svg>
