<?xml version="1.0" encoding="utf-8" standalone="no"?>
<!DOCTYPE svg PUBLIC "-//W3C//DTD SVG 1.1//EN"
  "http://www.w3.org/Graphics/SVG/1.1/DTD/svg11.dtd">
<!-- Created with matplotlib (https://matplotlib.org/) -->
<svg height="288pt" version="1.1" viewBox="0 0 432 288" width="432pt" xmlns="http://www.w3.org/2000/svg" xmlns:xlink="http://www.w3.org/1999/xlink">
 <defs>
  <style type="text/css">
*{stroke-linecap:butt;stroke-linejoin:round;}
  </style>
 </defs>
 <g id="figure_1">
  <g id="patch_1">
   <path d="M 0 288 
L 432 288 
L 432 0 
L 0 0 
z
" style="fill:#ffffff;"/>
  </g>
  <g id="axes_1">
   <g id="patch_2">
    <path clip-path="url(#p798e18e33c)" d="M 203.870626 141.874734 
L 201.548088 152.495761 
L 200.485986 152.263507 
L 202.808524 141.642481 
z
" style="stroke:#000000;stroke-linejoin:miter;"/>
   </g>
   <g id="patch_3">
    <path clip-path="url(#p798e18e33c)" d="M 256.975758 153.487424 
L 254.65322 164.10845 
L 253.591118 163.876196 
L 255.913656 153.25517 
z
" style="stroke:#000000;stroke-linejoin:miter;"/>
   </g>
   <g id="patch_4">
    <path clip-path="url(#p798e18e33c)" d="M 221.041286 145.629504 
L 221.013779 145.058909 
L 220.690291 144.460521 
L 220.070737 143.868834 
L 219.160627 143.314893 
L 217.971275 142.824389 
L 216.519856 142.41615 
L 214.829272 142.101125 
L 212.927842 141.881933 
L 210.848797 141.752979 
L 208.629605 141.701156 
L 206.311136 141.707048 
L 203.936704 141.746578 
L 201.551008 141.792973 
L 199.199031 141.81891 
L 196.924916 141.798705 
L 194.77088 141.710384 
L 192.776206 141.537503 
L 190.976338 141.27059 
L 189.402125 140.908106 
L 188.07923 140.456855 
L 187.027718 139.931821 
L 186.261838 139.355421 
L 185.789984 138.756238 
L 185.614834 138.167302 
L 185.733634 137.624027 
L 186.138613 137.16195 
L 186.817492 136.814402 
L 187.754051 136.61028 
L 188.928733 136.572055 
L 190.319232 136.714152 
L 191.90106 137.041811 
L 193.648057 137.550504 
L 195.532832 138.225956 
L 197.52713 139.044765 
L 199.602116 139.975594 
L 201.728598 140.980852 
L 203.877182 142.018774 
L 206.018396 143.045757 
L 208.122795 144.018812 
L 210.161068 144.897984 
L 212.104178 145.64857 
L 213.92355 146.243019 
L 215.591318 146.662377 
L 217.080659 146.897204 
L 218.366186 146.947891 
L 219.424437 146.824379 
L 220.234407 146.545291 
L 220.77813 146.136538 
z
" style="fill:#0000ff;stroke:#000000;stroke-linejoin:miter;"/>
   </g>
   <g id="patch_5">
    <path clip-path="url(#p798e18e33c)" d="M 274.146418 157.242193 
L 274.118911 156.671599 
L 273.795423 156.07321 
L 273.175869 155.481523 
L 272.265759 154.927582 
L 271.076408 154.437078 
L 269.624988 154.028839 
L 267.934404 153.713814 
L 266.032974 153.494622 
L 263.953929 153.365669 
L 261.734737 153.313845 
L 259.416268 153.319737 
L 257.041836 153.359267 
L 254.656141 153.405662 
L 252.304163 153.431599 
L 250.030048 153.411395 
L 247.876012 153.323073 
L 245.881338 153.150192 
L 244.08147 152.883279 
L 242.507257 152.520795 
L 241.184362 152.069545 
L 240.13285 151.54451 
L 239.36697 150.96811 
L 238.895116 150.368927 
L 238.719966 149.779991 
L 238.838766 149.236716 
L 239.243745 148.774639 
L 239.922624 148.427091 
L 240.859183 148.222969 
L 242.033865 148.184744 
L 243.424364 148.326842 
L 245.006192 148.6545 
L 246.753189 149.163193 
L 248.637964 149.838645 
L 250.632262 150.657454 
L 252.707248 151.588283 
L 254.83373 152.593541 
L 256.982314 153.631463 
L 259.123528 154.658446 
L 261.227927 155.631502 
L 263.2662 156.510673 
L 265.20931 157.26126 
L 267.028682 157.855708 
L 268.69645 158.275066 
L 270.185791 158.509893 
L 271.471318 158.56058 
L 272.529569 158.437068 
L 273.339539 158.15798 
L 273.883262 157.749227 
z
" style="fill:#0000ff;stroke:#000000;stroke-linejoin:miter;"/>
   </g>
   <g id="patch_6">
    <path clip-path="url(#p798e18e33c)" d="M 260.013317 162.498335 
L 196.287158 148.563108 
L 195.125889 153.873622 
L 258.852048 167.808849 
z
" style="fill:#999999;stroke:#000000;stroke-linejoin:miter;"/>
   </g>
   <g id="text_1">
    <!-- t = 0.8 -->
    <defs>
     <path d="M 18.3125 70.21875 
L 18.3125 54.6875 
L 36.8125 54.6875 
L 36.8125 47.703125 
L 18.3125 47.703125 
L 18.3125 18.015625 
Q 18.3125 11.328125 20.140625 9.421875 
Q 21.96875 7.515625 27.59375 7.515625 
L 36.8125 7.515625 
L 36.8125 0 
L 27.59375 0 
Q 17.1875 0 13.234375 3.875 
Q 9.28125 7.765625 9.28125 18.015625 
L 9.28125 47.703125 
L 2.6875 47.703125 
L 2.6875 54.6875 
L 9.28125 54.6875 
L 9.28125 70.21875 
z
" id="DejaVuSans-116"/>
     <path id="DejaVuSans-32"/>
     <path d="M 10.59375 45.40625 
L 73.1875 45.40625 
L 73.1875 37.203125 
L 10.59375 37.203125 
z
M 10.59375 25.484375 
L 73.1875 25.484375 
L 73.1875 17.1875 
L 10.59375 17.1875 
z
" id="DejaVuSans-61"/>
     <path d="M 31.78125 66.40625 
Q 24.171875 66.40625 20.328125 58.90625 
Q 16.5 51.421875 16.5 36.375 
Q 16.5 21.390625 20.328125 13.890625 
Q 24.171875 6.390625 31.78125 6.390625 
Q 39.453125 6.390625 43.28125 13.890625 
Q 47.125 21.390625 47.125 36.375 
Q 47.125 51.421875 43.28125 58.90625 
Q 39.453125 66.40625 31.78125 66.40625 
z
M 31.78125 74.21875 
Q 44.046875 74.21875 50.515625 64.515625 
Q 56.984375 54.828125 56.984375 36.375 
Q 56.984375 17.96875 50.515625 8.265625 
Q 44.046875 -1.421875 31.78125 -1.421875 
Q 19.53125 -1.421875 13.0625 8.265625 
Q 6.59375 17.96875 6.59375 36.375 
Q 6.59375 54.828125 13.0625 64.515625 
Q 19.53125 74.21875 31.78125 74.21875 
z
" id="DejaVuSans-48"/>
     <path d="M 10.6875 12.40625 
L 21 12.40625 
L 21 0 
L 10.6875 0 
z
" id="DejaVuSans-46"/>
     <path d="M 31.78125 34.625 
Q 24.75 34.625 20.71875 30.859375 
Q 16.703125 27.09375 16.703125 20.515625 
Q 16.703125 13.921875 20.71875 10.15625 
Q 24.75 6.390625 31.78125 6.390625 
Q 38.8125 6.390625 42.859375 10.171875 
Q 46.921875 13.96875 46.921875 20.515625 
Q 46.921875 27.09375 42.890625 30.859375 
Q 38.875 34.625 31.78125 34.625 
z
M 21.921875 38.8125 
Q 15.578125 40.375 12.03125 44.71875 
Q 8.5 49.078125 8.5 55.328125 
Q 8.5 64.0625 14.71875 69.140625 
Q 20.953125 74.21875 31.78125 74.21875 
Q 42.671875 74.21875 48.875 69.140625 
Q 55.078125 64.0625 55.078125 55.328125 
Q 55.078125 49.078125 51.53125 44.71875 
Q 48 40.375 41.703125 38.8125 
Q 48.828125 37.15625 52.796875 32.3125 
Q 56.78125 27.484375 56.78125 20.515625 
Q 56.78125 9.90625 50.3125 4.234375 
Q 43.84375 -1.421875 31.78125 -1.421875 
Q 19.734375 -1.421875 13.25 4.234375 
Q 6.78125 9.90625 6.78125 20.515625 
Q 6.78125 27.484375 10.78125 32.3125 
Q 14.796875 37.15625 21.921875 38.8125 
z
M 18.3125 54.390625 
Q 18.3125 48.734375 21.84375 45.5625 
Q 25.390625 42.390625 31.78125 42.390625 
Q 38.140625 42.390625 41.71875 45.5625 
Q 45.3125 48.734375 45.3125 54.390625 
Q 45.3125 60.0625 41.71875 63.234375 
Q 38.140625 66.40625 31.78125 66.40625 
Q 25.390625 66.40625 21.84375 63.234375 
Q 18.3125 60.0625 18.3125 54.390625 
z
" id="DejaVuSans-56"/>
    </defs>
    <g transform="translate(200.664375 28.56)scale(0.12 -0.12)">
     <use xlink:href="#DejaVuSans-116"/>
     <use x="39.208984" xlink:href="#DejaVuSans-32"/>
     <use x="70.996094" xlink:href="#DejaVuSans-61"/>
     <use x="154.785156" xlink:href="#DejaVuSans-32"/>
     <use x="186.572266" xlink:href="#DejaVuSans-48"/>
     <use x="250.195312" xlink:href="#DejaVuSans-46"/>
     <use x="281.982422" xlink:href="#DejaVuSans-56"/>
    </g>
   </g>
  </g>
 </g>
 <defs>
  <clipPath id="p798e18e33c">
   <rect height="217.44" width="334.8" x="54" y="34.56"/>
  </clipPath>
 </defs>
</svg>
