<?xml version="1.0" encoding="utf-8" standalone="no"?>
<!DOCTYPE svg PUBLIC "-//W3C//DTD SVG 1.1//EN"
  "http://www.w3.org/Graphics/SVG/1.1/DTD/svg11.dtd">
<!-- Created with matplotlib (https://matplotlib.org/) -->
<svg height="288pt" version="1.1" viewBox="0 0 432 288" width="432pt" xmlns="http://www.w3.org/2000/svg" xmlns:xlink="http://www.w3.org/1999/xlink">
 <defs>
  <style type="text/css">
*{stroke-linecap:butt;stroke-linejoin:round;}
  </style>
 </defs>
 <g id="figure_1">
  <g id="patch_1">
   <path d="M 0 288 
L 432 288 
L 432 0 
L 0 0 
z
" style="fill:#ffffff;"/>
  </g>
  <g id="axes_1">
   <g id="patch_2">
    <path clip-path="url(#pa6bee7c1e6)" d="M 194.765133 132.411961 
L 194.766336 143.283961 
L 193.679136 143.284081 
L 193.677933 132.412081 
z
" style="stroke:#000000;stroke-linejoin:miter;"/>
   </g>
   <g id="patch_3">
    <path clip-path="url(#pa6bee7c1e6)" d="M 249.125133 132.405946 
L 249.126336 143.277946 
L 248.039136 143.278066 
L 248.037933 132.406066 
z
" style="stroke:#000000;stroke-linejoin:miter;"/>
   </g>
   <g id="patch_4">
    <path clip-path="url(#pa6bee7c1e6)" d="M 212.341533 132.410016 
L 212.192707 131.858486 
L 211.748798 131.343065 
L 211.017097 130.89747 
L 210.009622 130.550852 
L 208.742917 130.325887 
L 207.237783 130.237298 
L 205.518933 130.290888 
L 203.614593 130.48316 
L 201.556029 130.801549 
L 199.377041 131.225239 
L 197.113407 131.72653 
L 194.802292 132.272642 
L 192.481642 132.827869 
L 190.189558 133.355904 
L 187.963674 133.822221 
L 185.840536 134.196331 
L 183.855005 134.453774 
L 182.03968 134.577721 
L 180.42437 134.560076 
L 179.035597 134.402 
L 177.896165 134.113842 
L 177.024787 133.714455 
L 176.435771 133.22997 
L 176.138793 132.692078 
L 176.138732 132.135966 
L 176.435591 131.598009 
L 177.024499 131.113392 
L 177.895789 130.713813 
L 179.035157 130.425403 
L 180.423895 130.26702 
L 182.039201 130.249017 
L 183.854553 130.372562 
L 185.840142 130.629566 
L 187.963362 131.003206 
L 190.189349 131.46903 
L 192.48155 131.996558 
L 194.802323 132.551271 
L 197.113559 133.096872 
L 199.377304 133.597662 
L 201.556385 134.02087 
L 203.615019 134.338803 
L 205.519403 134.530654 
L 207.238264 134.583864 
L 208.743378 134.494942 
L 210.010033 134.269696 
L 211.017432 133.922855 
L 211.749034 133.477098 
L 212.192829 132.961579 
z
" style="fill:#0000ff;stroke:#000000;stroke-linejoin:miter;"/>
   </g>
   <g id="patch_5">
    <path clip-path="url(#pa6bee7c1e6)" d="M 266.701532 132.404001 
L 266.552706 131.852471 
L 266.108797 131.33705 
L 265.377097 130.891455 
L 264.369622 130.544837 
L 263.102917 130.319872 
L 261.597782 130.231283 
L 259.878933 130.284873 
L 257.974593 130.477145 
L 255.916029 130.795534 
L 253.737041 131.219224 
L 251.473407 131.720515 
L 249.162292 132.266627 
L 246.841641 132.821854 
L 244.549558 133.349889 
L 242.323674 133.816206 
L 240.200536 134.190316 
L 238.215005 134.447759 
L 236.39968 134.571706 
L 234.784369 134.554061 
L 233.395596 134.395985 
L 232.256165 134.107827 
L 231.384786 133.70844 
L 230.795771 133.223955 
L 230.498793 132.686063 
L 230.498731 132.129951 
L 230.79559 131.591993 
L 231.384499 131.107377 
L 232.255789 130.707798 
L 233.395156 130.419388 
L 234.783894 130.261005 
L 236.399201 130.243002 
L 238.214553 130.366547 
L 240.200141 130.623551 
L 242.323362 130.997191 
L 244.549349 131.463015 
L 246.841549 131.990543 
L 249.162323 132.545256 
L 251.473558 133.090857 
L 253.737304 133.591647 
L 255.916385 134.014855 
L 257.975019 134.332788 
L 259.879402 134.524639 
L 261.598263 134.577848 
L 263.103378 134.488926 
L 264.370033 134.263681 
L 265.377431 133.91684 
L 266.109033 133.471083 
L 266.552829 132.955564 
z
" style="fill:#0000ff;stroke:#000000;stroke-linejoin:miter;"/>
   </g>
   <g id="patch_6">
    <path clip-path="url(#pa6bee7c1e6)" d="M 254.018435 140.559404 
L 188.786435 140.566622 
L 188.787037 146.002622 
L 254.019036 145.995404 
z
" style="fill:#999999;stroke:#000000;stroke-linejoin:miter;"/>
   </g>
   <g id="text_1">
    <!-- t = 3.6 -->
    <defs>
     <path d="M 18.3125 70.21875 
L 18.3125 54.6875 
L 36.8125 54.6875 
L 36.8125 47.703125 
L 18.3125 47.703125 
L 18.3125 18.015625 
Q 18.3125 11.328125 20.140625 9.421875 
Q 21.96875 7.515625 27.59375 7.515625 
L 36.8125 7.515625 
L 36.8125 0 
L 27.59375 0 
Q 17.1875 0 13.234375 3.875 
Q 9.28125 7.765625 9.28125 18.015625 
L 9.28125 47.703125 
L 2.6875 47.703125 
L 2.6875 54.6875 
L 9.28125 54.6875 
L 9.28125 70.21875 
z
" id="DejaVuSans-116"/>
     <path id="DejaVuSans-32"/>
     <path d="M 10.59375 45.40625 
L 73.1875 45.40625 
L 73.1875 37.203125 
L 10.59375 37.203125 
z
M 10.59375 25.484375 
L 73.1875 25.484375 
L 73.1875 17.1875 
L 10.59375 17.1875 
z
" id="DejaVuSans-61"/>
     <path d="M 40.578125 39.3125 
Q 47.65625 37.796875 51.625 33 
Q 55.609375 28.21875 55.609375 21.1875 
Q 55.609375 10.40625 48.1875 4.484375 
Q 40.765625 -1.421875 27.09375 -1.421875 
Q 22.515625 -1.421875 17.65625 -0.515625 
Q 12.796875 0.390625 7.625 2.203125 
L 7.625 11.71875 
Q 11.71875 9.328125 16.59375 8.109375 
Q 21.484375 6.890625 26.8125 6.890625 
Q 36.078125 6.890625 40.9375 10.546875 
Q 45.796875 14.203125 45.796875 21.1875 
Q 45.796875 27.640625 41.28125 31.265625 
Q 36.765625 34.90625 28.71875 34.90625 
L 20.21875 34.90625 
L 20.21875 43.015625 
L 29.109375 43.015625 
Q 36.375 43.015625 40.234375 45.921875 
Q 44.09375 48.828125 44.09375 54.296875 
Q 44.09375 59.90625 40.109375 62.90625 
Q 36.140625 65.921875 28.71875 65.921875 
Q 24.65625 65.921875 20.015625 65.03125 
Q 15.375 64.15625 9.8125 62.3125 
L 9.8125 71.09375 
Q 15.4375 72.65625 20.34375 73.4375 
Q 25.25 74.21875 29.59375 74.21875 
Q 40.828125 74.21875 47.359375 69.109375 
Q 53.90625 64.015625 53.90625 55.328125 
Q 53.90625 49.265625 50.4375 45.09375 
Q 46.96875 40.921875 40.578125 39.3125 
z
" id="DejaVuSans-51"/>
     <path d="M 10.6875 12.40625 
L 21 12.40625 
L 21 0 
L 10.6875 0 
z
" id="DejaVuSans-46"/>
     <path d="M 33.015625 40.375 
Q 26.375 40.375 22.484375 35.828125 
Q 18.609375 31.296875 18.609375 23.390625 
Q 18.609375 15.53125 22.484375 10.953125 
Q 26.375 6.390625 33.015625 6.390625 
Q 39.65625 6.390625 43.53125 10.953125 
Q 47.40625 15.53125 47.40625 23.390625 
Q 47.40625 31.296875 43.53125 35.828125 
Q 39.65625 40.375 33.015625 40.375 
z
M 52.59375 71.296875 
L 52.59375 62.3125 
Q 48.875 64.0625 45.09375 64.984375 
Q 41.3125 65.921875 37.59375 65.921875 
Q 27.828125 65.921875 22.671875 59.328125 
Q 17.53125 52.734375 16.796875 39.40625 
Q 19.671875 43.65625 24.015625 45.921875 
Q 28.375 48.1875 33.59375 48.1875 
Q 44.578125 48.1875 50.953125 41.515625 
Q 57.328125 34.859375 57.328125 23.390625 
Q 57.328125 12.15625 50.6875 5.359375 
Q 44.046875 -1.421875 33.015625 -1.421875 
Q 20.359375 -1.421875 13.671875 8.265625 
Q 6.984375 17.96875 6.984375 36.375 
Q 6.984375 53.65625 15.1875 63.9375 
Q 23.390625 74.21875 37.203125 74.21875 
Q 40.921875 74.21875 44.703125 73.484375 
Q 48.484375 72.75 52.59375 71.296875 
z
" id="DejaVuSans-54"/>
    </defs>
    <g transform="translate(200.664375 28.56)scale(0.12 -0.12)">
     <use xlink:href="#DejaVuSans-116"/>
     <use x="39.208984" xlink:href="#DejaVuSans-32"/>
     <use x="70.996094" xlink:href="#DejaVuSans-61"/>
     <use x="154.785156" xlink:href="#DejaVuSans-32"/>
     <use x="186.572266" xlink:href="#DejaVuSans-51"/>
     <use x="250.195312" xlink:href="#DejaVuSans-46"/>
     <use x="281.982422" xlink:href="#DejaVuSans-54"/>
    </g>
   </g>
  </g>
 </g>
 <defs>
  <clipPath id="pa6bee7c1e6">
   <rect height="217.44" width="334.8" x="54" y="34.56"/>
  </clipPath>
 </defs>
</svg>
