<?xml version="1.0" encoding="utf-8" standalone="no"?>
<!DOCTYPE svg PUBLIC "-//W3C//DTD SVG 1.1//EN"
  "http://www.w3.org/Graphics/SVG/1.1/DTD/svg11.dtd">
<!-- Created with matplotlib (https://matplotlib.org/) -->
<svg height="288pt" version="1.1" viewBox="0 0 432 288" width="432pt" xmlns="http://www.w3.org/2000/svg" xmlns:xlink="http://www.w3.org/1999/xlink">
 <defs>
  <style type="text/css">
*{stroke-linecap:butt;stroke-linejoin:round;}
  </style>
 </defs>
 <g id="figure_1">
  <g id="patch_1">
   <path d="M 0 288 
L 432 288 
L 432 0 
L 0 0 
z
" style="fill:#ffffff;"/>
  </g>
  <g id="axes_1">
   <g id="patch_2">
    <path clip-path="url(#pfe8e9af5d3)" d="M 194.947297 132.380326 
L 194.926427 143.252306 
L 193.839229 143.250219 
L 193.860099 132.378239 
z
" style="stroke:#000000;stroke-linejoin:miter;"/>
   </g>
   <g id="patch_3">
    <path clip-path="url(#pfe8e9af5d3)" d="M 249.307196 132.484676 
L 249.286326 143.356656 
L 248.199128 143.354569 
L 248.219998 132.482589 
z
" style="stroke:#000000;stroke-linejoin:miter;"/>
   </g>
   <g id="patch_4">
    <path clip-path="url(#pfe8e9af5d3)" d="M 212.523664 132.414066 
L 212.375958 131.862235 
L 211.933097 131.345914 
L 211.202302 130.898834 
L 210.195533 130.550171 
L 208.929287 130.322635 
L 207.424336 130.23099 
L 205.705381 130.28109 
L 203.800654 130.469496 
L 201.741448 130.783705 
L 199.561605 131.20297 
L 197.296958 131.699664 
L 194.984739 132.241083 
L 192.662966 132.791597 
L 190.369815 133.314977 
L 188.142989 133.776775 
L 186.019096 134.146573 
L 184.033046 134.399984 
L 182.217473 134.520246 
L 180.602202 134.499321 
L 179.213752 134.338426 
L 178.074908 134.047955 
L 177.204343 133.6468 
L 176.616312 133.16112 
L 176.320427 132.622626 
L 176.321494 132.066515 
L 176.619445 131.529161 
L 177.209336 131.045742 
L 178.081435 130.647933 
L 179.221386 130.361836 
L 180.610443 130.206273 
L 182.225783 130.191549 
L 184.04088 130.31878 
L 186.025943 130.579815 
L 188.1484 130.957764 
L 190.373437 131.428107 
L 192.664562 131.960288 
L 194.984204 132.519711 
L 197.294327 133.070004 
L 199.557051 133.575388 
L 201.735268 134.00302 
L 203.793253 134.325132 
L 205.697243 134.520849 
L 207.415992 134.577548 
L 208.921284 134.491682 
L 210.188394 134.269009 
L 211.196495 133.924213 
L 211.929 133.479942 
L 212.373841 132.965326 
z
" style="fill:#0000ff;stroke:#000000;stroke-linejoin:miter;"/>
   </g>
   <g id="patch_5">
    <path clip-path="url(#pfe8e9af5d3)" d="M 266.883564 132.518416 
L 266.735858 131.966585 
L 266.292996 131.450264 
L 265.562202 131.003184 
L 264.555433 130.654521 
L 263.289187 130.426985 
L 261.784236 130.33534 
L 260.065281 130.38544 
L 258.160554 130.573846 
L 256.101348 130.888055 
L 253.921505 131.30732 
L 251.656858 131.804014 
L 249.344638 132.345433 
L 247.022866 132.895947 
L 244.729715 133.419327 
L 242.502889 133.881125 
L 240.378996 134.250923 
L 238.392946 134.504334 
L 236.577373 134.624596 
L 234.962102 134.603671 
L 233.573652 134.442776 
L 232.434808 134.152305 
L 231.564243 133.75115 
L 230.976212 133.26547 
L 230.680327 132.726976 
L 230.681394 132.170865 
L 230.979345 131.633511 
L 231.569236 131.150092 
L 232.441335 130.752282 
L 233.581286 130.466186 
L 234.970343 130.310623 
L 236.585682 130.295899 
L 238.40078 130.42313 
L 240.385842 130.684164 
L 242.5083 131.062114 
L 244.733337 131.532457 
L 247.024461 132.064638 
L 249.344104 132.624061 
L 251.654227 133.174354 
L 253.916951 133.679738 
L 256.095168 134.10737 
L 258.153153 134.429482 
L 260.057143 134.625199 
L 261.775892 134.681898 
L 263.281184 134.596032 
L 264.548294 134.373359 
L 265.556394 134.028563 
L 266.2889 133.584292 
L 266.733741 133.069676 
z
" style="fill:#0000ff;stroke:#000000;stroke-linejoin:miter;"/>
   </g>
   <g id="patch_6">
    <path clip-path="url(#pfe8e9af5d3)" d="M 254.183935 140.648052 
L 188.952055 140.522832 
L 188.94162 145.958822 
L 254.1735 146.084042 
z
" style="fill:#999999;stroke:#000000;stroke-linejoin:miter;"/>
   </g>
   <g id="text_1">
    <!-- t = 2.8 -->
    <defs>
     <path d="M 18.3125 70.21875 
L 18.3125 54.6875 
L 36.8125 54.6875 
L 36.8125 47.703125 
L 18.3125 47.703125 
L 18.3125 18.015625 
Q 18.3125 11.328125 20.140625 9.421875 
Q 21.96875 7.515625 27.59375 7.515625 
L 36.8125 7.515625 
L 36.8125 0 
L 27.59375 0 
Q 17.1875 0 13.234375 3.875 
Q 9.28125 7.765625 9.28125 18.015625 
L 9.28125 47.703125 
L 2.6875 47.703125 
L 2.6875 54.6875 
L 9.28125 54.6875 
L 9.28125 70.21875 
z
" id="DejaVuSans-116"/>
     <path id="DejaVuSans-32"/>
     <path d="M 10.59375 45.40625 
L 73.1875 45.40625 
L 73.1875 37.203125 
L 10.59375 37.203125 
z
M 10.59375 25.484375 
L 73.1875 25.484375 
L 73.1875 17.1875 
L 10.59375 17.1875 
z
" id="DejaVuSans-61"/>
     <path d="M 19.1875 8.296875 
L 53.609375 8.296875 
L 53.609375 0 
L 7.328125 0 
L 7.328125 8.296875 
Q 12.9375 14.109375 22.625 23.890625 
Q 32.328125 33.6875 34.8125 36.53125 
Q 39.546875 41.84375 41.421875 45.53125 
Q 43.3125 49.21875 43.3125 52.78125 
Q 43.3125 58.59375 39.234375 62.25 
Q 35.15625 65.921875 28.609375 65.921875 
Q 23.96875 65.921875 18.8125 64.3125 
Q 13.671875 62.703125 7.8125 59.421875 
L 7.8125 69.390625 
Q 13.765625 71.78125 18.9375 73 
Q 24.125 74.21875 28.421875 74.21875 
Q 39.75 74.21875 46.484375 68.546875 
Q 53.21875 62.890625 53.21875 53.421875 
Q 53.21875 48.921875 51.53125 44.890625 
Q 49.859375 40.875 45.40625 35.40625 
Q 44.1875 33.984375 37.640625 27.21875 
Q 31.109375 20.453125 19.1875 8.296875 
z
" id="DejaVuSans-50"/>
     <path d="M 10.6875 12.40625 
L 21 12.40625 
L 21 0 
L 10.6875 0 
z
" id="DejaVuSans-46"/>
     <path d="M 31.78125 34.625 
Q 24.75 34.625 20.71875 30.859375 
Q 16.703125 27.09375 16.703125 20.515625 
Q 16.703125 13.921875 20.71875 10.15625 
Q 24.75 6.390625 31.78125 6.390625 
Q 38.8125 6.390625 42.859375 10.171875 
Q 46.921875 13.96875 46.921875 20.515625 
Q 46.921875 27.09375 42.890625 30.859375 
Q 38.875 34.625 31.78125 34.625 
z
M 21.921875 38.8125 
Q 15.578125 40.375 12.03125 44.71875 
Q 8.5 49.078125 8.5 55.328125 
Q 8.5 64.0625 14.71875 69.140625 
Q 20.953125 74.21875 31.78125 74.21875 
Q 42.671875 74.21875 48.875 69.140625 
Q 55.078125 64.0625 55.078125 55.328125 
Q 55.078125 49.078125 51.53125 44.71875 
Q 48 40.375 41.703125 38.8125 
Q 48.828125 37.15625 52.796875 32.3125 
Q 56.78125 27.484375 56.78125 20.515625 
Q 56.78125 9.90625 50.3125 4.234375 
Q 43.84375 -1.421875 31.78125 -1.421875 
Q 19.734375 -1.421875 13.25 4.234375 
Q 6.78125 9.90625 6.78125 20.515625 
Q 6.78125 27.484375 10.78125 32.3125 
Q 14.796875 37.15625 21.921875 38.8125 
z
M 18.3125 54.390625 
Q 18.3125 48.734375 21.84375 45.5625 
Q 25.390625 42.390625 31.78125 42.390625 
Q 38.140625 42.390625 41.71875 45.5625 
Q 45.3125 48.734375 45.3125 54.390625 
Q 45.3125 60.0625 41.71875 63.234375 
Q 38.140625 66.40625 31.78125 66.40625 
Q 25.390625 66.40625 21.84375 63.234375 
Q 18.3125 60.0625 18.3125 54.390625 
z
" id="DejaVuSans-56"/>
    </defs>
    <g transform="translate(200.664375 28.56)scale(0.12 -0.12)">
     <use xlink:href="#DejaVuSans-116"/>
     <use x="39.208984" xlink:href="#DejaVuSans-32"/>
     <use x="70.996094" xlink:href="#DejaVuSans-61"/>
     <use x="154.785156" xlink:href="#DejaVuSans-32"/>
     <use x="186.572266" xlink:href="#DejaVuSans-50"/>
     <use x="250.195312" xlink:href="#DejaVuSans-46"/>
     <use x="281.982422" xlink:href="#DejaVuSans-56"/>
    </g>
   </g>
  </g>
 </g>
 <defs>
  <clipPath id="pfe8e9af5d3">
   <rect height="217.44" width="334.8" x="54" y="34.56"/>
  </clipPath>
 </defs>
</svg>
