<?xml version="1.0" encoding="utf-8" standalone="no"?>
<!DOCTYPE svg PUBLIC "-//W3C//DTD SVG 1.1//EN"
  "http://www.w3.org/Graphics/SVG/1.1/DTD/svg11.dtd">
<!-- Created with matplotlib (https://matplotlib.org/) -->
<svg height="288pt" version="1.1" viewBox="0 0 432 288" width="432pt" xmlns="http://www.w3.org/2000/svg" xmlns:xlink="http://www.w3.org/1999/xlink">
 <defs>
  <style type="text/css">
*{stroke-linecap:butt;stroke-linejoin:round;}
  </style>
 </defs>
 <g id="figure_1">
  <g id="patch_1">
   <path d="M 0 288 
L 432 288 
L 432 0 
L 0 0 
z
" style="fill:#ffffff;"/>
  </g>
  <g id="axes_1">
   <g id="patch_2">
    <path clip-path="url(#p7c6f91ad34)" d="M 193.708762 134.457714 
L 194.049434 145.324375 
L 192.962768 145.358442 
L 192.622096 134.491781 
z
" style="stroke:#000000;stroke-linejoin:miter;"/>
   </g>
   <g id="patch_3">
    <path clip-path="url(#p7c6f91ad34)" d="M 248.042068 132.75435 
L 248.382741 143.621011 
L 247.296074 143.655078 
L 246.955402 132.788417 
z
" style="stroke:#000000;stroke-linejoin:miter;"/>
   </g>
   <g id="patch_4">
    <path clip-path="url(#p7c6f91ad34)" d="M 211.276531 133.906959 
L 211.110556 133.360345 
L 210.65077 132.859037 
L 209.905513 132.436506 
L 208.887706 132.121514 
L 207.614594 131.93621 
L 206.107428 131.894661 
L 204.39109 132.001895 
L 202.493681 132.253535 
L 200.446063 132.636046 
L 198.281367 133.127567 
L 196.034489 133.699293 
L 193.741553 134.317303 
L 191.43937 134.944719 
L 189.164892 135.544065 
L 186.954654 136.079657 
L 184.844233 136.519878 
L 182.867708 136.839192 
L 181.057138 137.019761 
L 179.442064 137.052561 
L 178.049033 136.937926 
L 176.901159 136.685486 
L 176.017735 136.313502 
L 175.413879 135.847644 
L 175.100251 135.319288 
L 175.082825 134.763449 
L 175.362742 134.216485 
L 175.936231 133.713717 
L 176.79462 133.287127 
L 177.924426 132.963281 
L 179.307542 132.761613 
L 180.921499 132.693182 
L 182.739823 132.759984 
L 184.732468 132.954864 
L 186.86632 133.262026 
L 189.105767 133.658118 
L 191.413321 134.113817 
L 193.750283 134.595795 
L 196.077428 135.068963 
L 198.355707 135.498824 
L 200.54694 135.853786 
L 202.614497 136.107285 
L 204.523942 136.239579 
L 206.243627 136.239093 
L 207.745231 136.103218 
L 209.004235 135.838532 
L 210.000313 135.460404 
L 210.717639 134.992021 
L 211.145121 134.462896 
z
" style="fill:#0000ff;stroke:#000000;stroke-linejoin:miter;"/>
   </g>
   <g id="patch_5">
    <path clip-path="url(#p7c6f91ad34)" d="M 265.609837 132.203595 
L 265.443862 131.656981 
L 264.984076 131.155673 
L 264.238819 130.733142 
L 263.221012 130.41815 
L 261.9479 130.232847 
L 260.440734 130.191298 
L 258.724396 130.298531 
L 256.826987 130.550172 
L 254.779369 130.932682 
L 252.614673 131.424203 
L 250.367795 131.99593 
L 248.074859 132.613939 
L 245.772676 133.241355 
L 243.498198 133.840702 
L 241.28796 134.376293 
L 239.177539 134.816514 
L 237.201014 135.135828 
L 235.390444 135.316397 
L 233.775371 135.349197 
L 232.382339 135.234562 
L 231.234465 134.982122 
L 230.351041 134.610139 
L 229.747185 134.144281 
L 229.433557 133.615924 
L 229.416131 133.060085 
L 229.696048 132.513121 
L 230.269537 132.010353 
L 231.127926 131.583763 
L 232.257733 131.259917 
L 233.640848 131.058249 
L 235.254805 130.989818 
L 237.073129 131.056621 
L 239.065775 131.2515 
L 241.199626 131.558662 
L 243.439073 131.954755 
L 245.746627 132.410453 
L 248.08359 132.892431 
L 250.410735 133.365599 
L 252.689013 133.795461 
L 254.880246 134.150422 
L 256.947804 134.403921 
L 258.857248 134.536216 
L 260.576933 134.535729 
L 262.078537 134.399854 
L 263.337541 134.135169 
L 264.333619 133.757041 
L 265.050946 133.288657 
L 265.478428 132.759533 
z
" style="fill:#0000ff;stroke:#000000;stroke-linejoin:miter;"/>
   </g>
   <g id="patch_6">
    <path clip-path="url(#p7c6f91ad34)" d="M 253.18757 140.751043 
L 187.987603 142.795079 
L 188.157939 148.22841 
L 253.357906 146.184374 
z
" style="fill:#999999;stroke:#000000;stroke-linejoin:miter;"/>
   </g>
   <g id="text_1">
    <!-- t = 1.3 -->
    <defs>
     <path d="M 18.3125 70.21875 
L 18.3125 54.6875 
L 36.8125 54.6875 
L 36.8125 47.703125 
L 18.3125 47.703125 
L 18.3125 18.015625 
Q 18.3125 11.328125 20.140625 9.421875 
Q 21.96875 7.515625 27.59375 7.515625 
L 36.8125 7.515625 
L 36.8125 0 
L 27.59375 0 
Q 17.1875 0 13.234375 3.875 
Q 9.28125 7.765625 9.28125 18.015625 
L 9.28125 47.703125 
L 2.6875 47.703125 
L 2.6875 54.6875 
L 9.28125 54.6875 
L 9.28125 70.21875 
z
" id="DejaVuSans-116"/>
     <path id="DejaVuSans-32"/>
     <path d="M 10.59375 45.40625 
L 73.1875 45.40625 
L 73.1875 37.203125 
L 10.59375 37.203125 
z
M 10.59375 25.484375 
L 73.1875 25.484375 
L 73.1875 17.1875 
L 10.59375 17.1875 
z
" id="DejaVuSans-61"/>
     <path d="M 12.40625 8.296875 
L 28.515625 8.296875 
L 28.515625 63.921875 
L 10.984375 60.40625 
L 10.984375 69.390625 
L 28.421875 72.90625 
L 38.28125 72.90625 
L 38.28125 8.296875 
L 54.390625 8.296875 
L 54.390625 0 
L 12.40625 0 
z
" id="DejaVuSans-49"/>
     <path d="M 10.6875 12.40625 
L 21 12.40625 
L 21 0 
L 10.6875 0 
z
" id="DejaVuSans-46"/>
     <path d="M 40.578125 39.3125 
Q 47.65625 37.796875 51.625 33 
Q 55.609375 28.21875 55.609375 21.1875 
Q 55.609375 10.40625 48.1875 4.484375 
Q 40.765625 -1.421875 27.09375 -1.421875 
Q 22.515625 -1.421875 17.65625 -0.515625 
Q 12.796875 0.390625 7.625 2.203125 
L 7.625 11.71875 
Q 11.71875 9.328125 16.59375 8.109375 
Q 21.484375 6.890625 26.8125 6.890625 
Q 36.078125 6.890625 40.9375 10.546875 
Q 45.796875 14.203125 45.796875 21.1875 
Q 45.796875 27.640625 41.28125 31.265625 
Q 36.765625 34.90625 28.71875 34.90625 
L 20.21875 34.90625 
L 20.21875 43.015625 
L 29.109375 43.015625 
Q 36.375 43.015625 40.234375 45.921875 
Q 44.09375 48.828125 44.09375 54.296875 
Q 44.09375 59.90625 40.109375 62.90625 
Q 36.140625 65.921875 28.71875 65.921875 
Q 24.65625 65.921875 20.015625 65.03125 
Q 15.375 64.15625 9.8125 62.3125 
L 9.8125 71.09375 
Q 15.4375 72.65625 20.34375 73.4375 
Q 25.25 74.21875 29.59375 74.21875 
Q 40.828125 74.21875 47.359375 69.109375 
Q 53.90625 64.015625 53.90625 55.328125 
Q 53.90625 49.265625 50.4375 45.09375 
Q 46.96875 40.921875 40.578125 39.3125 
z
" id="DejaVuSans-51"/>
    </defs>
    <g transform="translate(200.664375 28.56)scale(0.12 -0.12)">
     <use xlink:href="#DejaVuSans-116"/>
     <use x="39.208984" xlink:href="#DejaVuSans-32"/>
     <use x="70.996094" xlink:href="#DejaVuSans-61"/>
     <use x="154.785156" xlink:href="#DejaVuSans-32"/>
     <use x="186.572266" xlink:href="#DejaVuSans-49"/>
     <use x="250.195312" xlink:href="#DejaVuSans-46"/>
     <use x="281.982422" xlink:href="#DejaVuSans-51"/>
    </g>
   </g>
  </g>
 </g>
 <defs>
  <clipPath id="p7c6f91ad34">
   <rect height="217.44" width="334.8" x="54" y="34.56"/>
  </clipPath>
 </defs>
</svg>
