<?xml version="1.0" encoding="utf-8" standalone="no"?>
<!DOCTYPE svg PUBLIC "-//W3C//DTD SVG 1.1//EN"
  "http://www.w3.org/Graphics/SVG/1.1/DTD/svg11.dtd">
<!-- Created with matplotlib (https://matplotlib.org/) -->
<svg height="288pt" version="1.1" viewBox="0 0 432 288" width="432pt" xmlns="http://www.w3.org/2000/svg" xmlns:xlink="http://www.w3.org/1999/xlink">
 <defs>
  <style type="text/css">
*{stroke-linecap:butt;stroke-linejoin:round;}
  </style>
 </defs>
 <g id="figure_1">
  <g id="patch_1">
   <path d="M 0 288 
L 432 288 
L 432 0 
L 0 0 
z
" style="fill:#ffffff;"/>
  </g>
  <g id="axes_1">
   <g id="patch_2">
    <path clip-path="url(#p4ad342078e)" d="M 194.781099 132.409838 
L 194.781358 143.281838 
L 193.694158 143.281863 
L 193.693899 132.409863 
z
" style="stroke:#000000;stroke-linejoin:miter;"/>
   </g>
   <g id="patch_3">
    <path clip-path="url(#p4ad342078e)" d="M 249.141099 132.408542 
L 249.141358 143.280542 
L 248.054158 143.280568 
L 248.053899 132.408568 
z
" style="stroke:#000000;stroke-linejoin:miter;"/>
   </g>
   <g id="patch_4">
    <path clip-path="url(#p4ad342078e)" d="M 212.357499 132.409419 
L 212.208721 131.857876 
L 211.764857 131.342417 
L 211.033195 130.896758 
L 210.02575 130.550052 
L 208.759064 130.324977 
L 207.253938 130.236257 
L 205.535084 130.289698 
L 203.630727 130.481805 
L 201.572135 130.800015 
L 199.393111 131.223517 
L 197.129433 131.72461 
L 194.818271 132.270522 
L 192.497572 132.825547 
L 190.205442 133.353383 
L 187.979518 133.819507 
L 185.856348 134.193433 
L 183.870794 134.450703 
L 182.055459 134.574493 
L 180.44015 134.556707 
L 179.05139 134.398511 
L 177.911984 134.110254 
L 177.04064 133.710792 
L 176.451667 133.226255 
L 176.154735 132.688338 
L 176.154722 132.132225 
L 176.451628 131.594294 
L 177.040578 131.109729 
L 177.911903 130.710225 
L 179.051295 130.421914 
L 180.440047 130.263651 
L 182.055356 130.245788 
L 183.870697 130.369492 
L 185.856263 130.626668 
L 187.979451 131.000492 
L 190.205398 131.46651 
L 192.497552 131.994237 
L 194.818277 132.549151 
L 197.129466 133.094953 
L 199.393167 133.595939 
L 201.572212 134.019336 
L 203.630819 134.337448 
L 205.535185 134.529465 
L 207.254041 134.582823 
L 208.759164 134.494032 
L 210.025839 134.268897 
L 211.033267 133.922142 
L 211.764908 133.476449 
L 212.208748 132.960969 
z
" style="fill:#0000ff;stroke:#000000;stroke-linejoin:miter;"/>
   </g>
   <g id="patch_5">
    <path clip-path="url(#p4ad342078e)" d="M 266.717499 132.408123 
L 266.568721 131.85658 
L 266.124857 131.341121 
L 265.393195 130.895463 
L 264.38575 130.548756 
L 263.119064 130.323682 
L 261.613938 130.234962 
L 259.895084 130.288403 
L 257.990727 130.48051 
L 255.932135 130.79872 
L 253.753111 131.222221 
L 251.489433 131.723315 
L 249.178271 132.269227 
L 246.857572 132.824252 
L 244.565442 133.352088 
L 242.339518 133.818212 
L 240.216348 134.192137 
L 238.230794 134.449408 
L 236.415459 134.573198 
L 234.80015 134.555412 
L 233.41139 134.397216 
L 232.271984 134.108958 
L 231.40064 133.709496 
L 230.811667 133.224959 
L 230.514735 132.687042 
L 230.514722 132.13093 
L 230.811628 131.592998 
L 231.400578 131.108433 
L 232.271903 130.70893 
L 233.411295 130.420618 
L 234.800047 130.262356 
L 236.415356 130.244493 
L 238.230697 130.368196 
L 240.216263 130.625372 
L 242.339451 130.999196 
L 244.565398 131.465214 
L 246.857552 131.992941 
L 249.178277 132.547855 
L 251.489466 133.093657 
L 253.753167 133.594643 
L 255.932212 134.018041 
L 257.990819 134.336153 
L 259.895185 134.528169 
L 261.614041 134.581528 
L 263.119164 134.492736 
L 264.385839 134.267601 
L 265.393267 133.920847 
L 266.124908 133.475154 
L 266.568748 132.959673 
z
" style="fill:#0000ff;stroke:#000000;stroke-linejoin:miter;"/>
   </g>
   <g id="patch_6">
    <path clip-path="url(#p4ad342078e)" d="M 254.033694 140.562425 
L 188.801694 140.56398 
L 188.801823 145.99998 
L 254.033823 145.998425 
z
" style="fill:#999999;stroke:#000000;stroke-linejoin:miter;"/>
   </g>
   <g id="text_1">
    <!-- t = 3.5 -->
    <defs>
     <path d="M 18.3125 70.21875 
L 18.3125 54.6875 
L 36.8125 54.6875 
L 36.8125 47.703125 
L 18.3125 47.703125 
L 18.3125 18.015625 
Q 18.3125 11.328125 20.140625 9.421875 
Q 21.96875 7.515625 27.59375 7.515625 
L 36.8125 7.515625 
L 36.8125 0 
L 27.59375 0 
Q 17.1875 0 13.234375 3.875 
Q 9.28125 7.765625 9.28125 18.015625 
L 9.28125 47.703125 
L 2.6875 47.703125 
L 2.6875 54.6875 
L 9.28125 54.6875 
L 9.28125 70.21875 
z
" id="DejaVuSans-116"/>
     <path id="DejaVuSans-32"/>
     <path d="M 10.59375 45.40625 
L 73.1875 45.40625 
L 73.1875 37.203125 
L 10.59375 37.203125 
z
M 10.59375 25.484375 
L 73.1875 25.484375 
L 73.1875 17.1875 
L 10.59375 17.1875 
z
" id="DejaVuSans-61"/>
     <path d="M 40.578125 39.3125 
Q 47.65625 37.796875 51.625 33 
Q 55.609375 28.21875 55.609375 21.1875 
Q 55.609375 10.40625 48.1875 4.484375 
Q 40.765625 -1.421875 27.09375 -1.421875 
Q 22.515625 -1.421875 17.65625 -0.515625 
Q 12.796875 0.390625 7.625 2.203125 
L 7.625 11.71875 
Q 11.71875 9.328125 16.59375 8.109375 
Q 21.484375 6.890625 26.8125 6.890625 
Q 36.078125 6.890625 40.9375 10.546875 
Q 45.796875 14.203125 45.796875 21.1875 
Q 45.796875 27.640625 41.28125 31.265625 
Q 36.765625 34.90625 28.71875 34.90625 
L 20.21875 34.90625 
L 20.21875 43.015625 
L 29.109375 43.015625 
Q 36.375 43.015625 40.234375 45.921875 
Q 44.09375 48.828125 44.09375 54.296875 
Q 44.09375 59.90625 40.109375 62.90625 
Q 36.140625 65.921875 28.71875 65.921875 
Q 24.65625 65.921875 20.015625 65.03125 
Q 15.375 64.15625 9.8125 62.3125 
L 9.8125 71.09375 
Q 15.4375 72.65625 20.34375 73.4375 
Q 25.25 74.21875 29.59375 74.21875 
Q 40.828125 74.21875 47.359375 69.109375 
Q 53.90625 64.015625 53.90625 55.328125 
Q 53.90625 49.265625 50.4375 45.09375 
Q 46.96875 40.921875 40.578125 39.3125 
z
" id="DejaVuSans-51"/>
     <path d="M 10.6875 12.40625 
L 21 12.40625 
L 21 0 
L 10.6875 0 
z
" id="DejaVuSans-46"/>
     <path d="M 10.796875 72.90625 
L 49.515625 72.90625 
L 49.515625 64.59375 
L 19.828125 64.59375 
L 19.828125 46.734375 
Q 21.96875 47.46875 24.109375 47.828125 
Q 26.265625 48.1875 28.421875 48.1875 
Q 40.625 48.1875 47.75 41.5 
Q 54.890625 34.8125 54.890625 23.390625 
Q 54.890625 11.625 47.5625 5.09375 
Q 40.234375 -1.421875 26.90625 -1.421875 
Q 22.3125 -1.421875 17.546875 -0.640625 
Q 12.796875 0.140625 7.71875 1.703125 
L 7.71875 11.625 
Q 12.109375 9.234375 16.796875 8.0625 
Q 21.484375 6.890625 26.703125 6.890625 
Q 35.15625 6.890625 40.078125 11.328125 
Q 45.015625 15.765625 45.015625 23.390625 
Q 45.015625 31 40.078125 35.4375 
Q 35.15625 39.890625 26.703125 39.890625 
Q 22.75 39.890625 18.8125 39.015625 
Q 14.890625 38.140625 10.796875 36.28125 
z
" id="DejaVuSans-53"/>
    </defs>
    <g transform="translate(200.664375 28.56)scale(0.12 -0.12)">
     <use xlink:href="#DejaVuSans-116"/>
     <use x="39.208984" xlink:href="#DejaVuSans-32"/>
     <use x="70.996094" xlink:href="#DejaVuSans-61"/>
     <use x="154.785156" xlink:href="#DejaVuSans-32"/>
     <use x="186.572266" xlink:href="#DejaVuSans-51"/>
     <use x="250.195312" xlink:href="#DejaVuSans-46"/>
     <use x="281.982422" xlink:href="#DejaVuSans-53"/>
    </g>
   </g>
  </g>
 </g>
 <defs>
  <clipPath id="p4ad342078e">
   <rect height="217.44" width="334.8" x="54" y="34.56"/>
  </clipPath>
 </defs>
</svg>
