<?xml version="1.0" encoding="utf-8" standalone="no"?>
<!DOCTYPE svg PUBLIC "-//W3C//DTD SVG 1.1//EN"
  "http://www.w3.org/Graphics/SVG/1.1/DTD/svg11.dtd">
<!-- Created with matplotlib (https://matplotlib.org/) -->
<svg height="288pt" version="1.1" viewBox="0 0 432 288" width="432pt" xmlns="http://www.w3.org/2000/svg" xmlns:xlink="http://www.w3.org/1999/xlink">
 <defs>
  <style type="text/css">
*{stroke-linecap:butt;stroke-linejoin:round;}
  </style>
 </defs>
 <g id="figure_1">
  <g id="patch_1">
   <path d="M 0 288 
L 432 288 
L 432 0 
L 0 0 
z
" style="fill:#ffffff;"/>
  </g>
  <g id="axes_1">
   <g id="patch_2">
    <path clip-path="url(#pdbd17f088a)" d="M 163.073397 144.13579 
L 165.917893 154.629084 
L 164.868564 154.913534 
L 162.024067 144.420239 
z
" style="stroke:#000000;stroke-linejoin:miter;"/>
   </g>
   <g id="patch_3">
    <path clip-path="url(#pdbd17f088a)" d="M 215.539868 129.913307 
L 218.384364 140.406601 
L 217.335035 140.691051 
L 214.490538 130.197756 
z
" style="stroke:#000000;stroke-linejoin:miter;"/>
   </g>
   <g id="patch_4">
    <path clip-path="url(#pdbd17f088a)" d="M 180.037556 139.537187 
L 179.749669 139.043775 
L 179.186412 138.662388 
L 178.363642 138.423662 
L 177.300581 138.35259 
L 176.019128 138.466734 
L 174.54321 138.774864 
L 172.898199 139.276116 
L 171.110422 139.959735 
L 169.206773 140.805416 
L 167.21443 141.784227 
L 165.160682 142.860074 
L 163.072827 143.991602 
L 160.978152 145.13442 
L 158.903939 146.243522 
L 156.87748 147.275741 
L 154.926077 148.192091 
L 153.076979 148.959846 
L 151.357251 149.554239 
L 149.793545 149.959657 
L 148.411766 150.170286 
L 147.23663 150.19015 
L 146.291128 150.032554 
L 145.595906 149.718975 
L 145.16859 149.277472 
L 145.023092 148.740731 
L 145.168928 148.14386 
L 145.610599 147.522095 
L 146.347063 146.908555 
L 147.371348 146.332206 
L 148.670331 145.816141 
L 150.22471 145.376316 
L 152.009191 145.020796 
L 153.992886 144.749567 
L 156.139927 144.554921 
L 158.410266 144.422374 
L 160.760652 144.332067 
L 163.145726 144.260525 
L 165.519211 144.182684 
L 167.835139 144.07401 
L 170.04906 143.912598 
L 172.119194 143.681074 
L 174.007471 143.368198 
L 175.680424 142.970025 
L 177.109899 142.490568 
L 178.273561 141.941896 
L 179.155189 141.343662 
L 179.74475 140.722085 
L 180.038277 140.108444 
z
" style="fill:#0000ff;stroke:#000000;stroke-linejoin:miter;"/>
   </g>
   <g id="patch_5">
    <path clip-path="url(#pdbd17f088a)" d="M 232.504027 125.314704 
L 232.21614 124.821291 
L 231.652883 124.439904 
L 230.830113 124.201179 
L 229.767052 124.130107 
L 228.485599 124.244251 
L 227.009681 124.55238 
L 225.36467 125.053633 
L 223.576893 125.737252 
L 221.673244 126.582932 
L 219.680901 127.561744 
L 217.627153 128.637591 
L 215.539298 129.769119 
L 213.444623 130.911937 
L 211.37041 132.021039 
L 209.343951 133.053258 
L 207.392548 133.969608 
L 205.54345 134.737363 
L 203.823722 135.331755 
L 202.260016 135.737173 
L 200.878237 135.947803 
L 199.703101 135.967667 
L 198.757599 135.810071 
L 198.062377 135.496492 
L 197.635061 135.054989 
L 197.489563 134.518248 
L 197.635399 133.921377 
L 198.07707 133.299611 
L 198.813534 132.686072 
L 199.837819 132.109723 
L 201.136802 131.593658 
L 202.691181 131.153833 
L 204.475662 130.798313 
L 206.459357 130.527084 
L 208.606398 130.332437 
L 210.876737 130.199891 
L 213.227123 130.109583 
L 215.612197 130.038042 
L 217.985682 129.960201 
L 220.30161 129.851527 
L 222.515531 129.690114 
L 224.585665 129.458591 
L 226.473942 129.145715 
L 228.146895 128.747542 
L 229.57637 128.268084 
L 230.740032 127.719413 
L 231.62166 127.121179 
L 232.211221 126.499602 
L 232.504748 125.88596 
z
" style="fill:#0000ff;stroke:#000000;stroke-linejoin:miter;"/>
   </g>
   <g id="patch_6">
    <path clip-path="url(#pdbd17f088a)" d="M 222.395223 136.503254 
L 159.435457 153.570234 
L 160.857706 158.816881 
L 223.817471 141.749901 
z
" style="fill:#999999;stroke:#000000;stroke-linejoin:miter;"/>
   </g>
   <g id="text_1">
    <!-- t = 1.0 -->
    <defs>
     <path d="M 18.3125 70.21875 
L 18.3125 54.6875 
L 36.8125 54.6875 
L 36.8125 47.703125 
L 18.3125 47.703125 
L 18.3125 18.015625 
Q 18.3125 11.328125 20.140625 9.421875 
Q 21.96875 7.515625 27.59375 7.515625 
L 36.8125 7.515625 
L 36.8125 0 
L 27.59375 0 
Q 17.1875 0 13.234375 3.875 
Q 9.28125 7.765625 9.28125 18.015625 
L 9.28125 47.703125 
L 2.6875 47.703125 
L 2.6875 54.6875 
L 9.28125 54.6875 
L 9.28125 70.21875 
z
" id="DejaVuSans-116"/>
     <path id="DejaVuSans-32"/>
     <path d="M 10.59375 45.40625 
L 73.1875 45.40625 
L 73.1875 37.203125 
L 10.59375 37.203125 
z
M 10.59375 25.484375 
L 73.1875 25.484375 
L 73.1875 17.1875 
L 10.59375 17.1875 
z
" id="DejaVuSans-61"/>
     <path d="M 12.40625 8.296875 
L 28.515625 8.296875 
L 28.515625 63.921875 
L 10.984375 60.40625 
L 10.984375 69.390625 
L 28.421875 72.90625 
L 38.28125 72.90625 
L 38.28125 8.296875 
L 54.390625 8.296875 
L 54.390625 0 
L 12.40625 0 
z
" id="DejaVuSans-49"/>
     <path d="M 10.6875 12.40625 
L 21 12.40625 
L 21 0 
L 10.6875 0 
z
" id="DejaVuSans-46"/>
     <path d="M 31.78125 66.40625 
Q 24.171875 66.40625 20.328125 58.90625 
Q 16.5 51.421875 16.5 36.375 
Q 16.5 21.390625 20.328125 13.890625 
Q 24.171875 6.390625 31.78125 6.390625 
Q 39.453125 6.390625 43.28125 13.890625 
Q 47.125 21.390625 47.125 36.375 
Q 47.125 51.421875 43.28125 58.90625 
Q 39.453125 66.40625 31.78125 66.40625 
z
M 31.78125 74.21875 
Q 44.046875 74.21875 50.515625 64.515625 
Q 56.984375 54.828125 56.984375 36.375 
Q 56.984375 17.96875 50.515625 8.265625 
Q 44.046875 -1.421875 31.78125 -1.421875 
Q 19.53125 -1.421875 13.0625 8.265625 
Q 6.59375 17.96875 6.59375 36.375 
Q 6.59375 54.828125 13.0625 64.515625 
Q 19.53125 74.21875 31.78125 74.21875 
z
" id="DejaVuSans-48"/>
    </defs>
    <g transform="translate(200.664375 28.56)scale(0.12 -0.12)">
     <use xlink:href="#DejaVuSans-116"/>
     <use x="39.208984" xlink:href="#DejaVuSans-32"/>
     <use x="70.996094" xlink:href="#DejaVuSans-61"/>
     <use x="154.785156" xlink:href="#DejaVuSans-32"/>
     <use x="186.572266" xlink:href="#DejaVuSans-49"/>
     <use x="250.195312" xlink:href="#DejaVuSans-46"/>
     <use x="281.982422" xlink:href="#DejaVuSans-48"/>
    </g>
   </g>
  </g>
 </g>
 <defs>
  <clipPath id="pdbd17f088a">
   <rect height="217.44" width="334.8" x="54" y="34.56"/>
  </clipPath>
 </defs>
</svg>
