<?xml version="1.0" encoding="utf-8" standalone="no"?>
<!DOCTYPE svg PUBLIC "-//W3C//DTD SVG 1.1//EN"
  "http://www.w3.org/Graphics/SVG/1.1/DTD/svg11.dtd">
<!-- Created with matplotlib (https://matplotlib.org/) -->
<svg height="288pt" version="1.1" viewBox="0 0 432 288" width="432pt" xmlns="http://www.w3.org/2000/svg" xmlns:xlink="http://www.w3.org/1999/xlink">
 <defs>
  <style type="text/css">
*{stroke-linecap:butt;stroke-linejoin:round;}
  </style>
 </defs>
 <g id="figure_1">
  <g id="patch_1">
   <path d="M 0 288 
L 432 288 
L 432 0 
L 0 0 
z
" style="fill:#ffffff;"/>
  </g>
  <g id="axes_1">
   <g id="patch_2">
    <path clip-path="url(#pb201741ae6)" d="M 194.537624 132.923403 
L 194.285723 143.792484 
L 193.198814 143.767294 
L 193.450716 132.898213 
z
" style="stroke:#000000;stroke-linejoin:miter;"/>
   </g>
   <g id="patch_3">
    <path clip-path="url(#pb201741ae6)" d="M 248.883031 134.182911 
L 248.631129 145.051993 
L 247.544221 145.026802 
L 247.796123 134.157721 
z
" style="stroke:#000000;stroke-linejoin:miter;"/>
   </g>
   <g id="patch_4">
    <path clip-path="url(#pb201741ae6)" d="M 212.109306 133.330644 
L 211.97336 132.775799 
L 211.54157 132.250183 
L 210.820442 131.787675 
L 209.821309 131.417696 
L 208.560185 131.163302 
L 207.057521 131.039697 
L 205.33789 131.053257 
L 203.429589 131.201144 
L 201.364171 131.471522 
L 199.17591 131.84437 
L 196.901219 132.292826 
L 194.578017 132.784987 
L 192.245069 133.286038 
L 189.941314 133.760569 
L 187.705177 134.174941 
L 185.573906 134.499521 
L 183.582919 134.71067 
L 181.765201 134.792323 
L 180.150739 134.737077 
L 178.766022 134.546713 
L 177.633608 134.232107 
L 176.771764 133.812542 
L 176.194187 133.314475 
L 175.909812 132.769816 
L 175.922697 132.213853 
L 176.231999 131.682952 
L 176.83203 131.212178 
L 177.712386 130.832991 
L 178.858159 130.571183 
L 180.250208 130.445173 
L 181.865496 130.46478 
L 183.67748 130.630555 
L 185.656547 130.933714 
L 187.770493 131.356682 
L 189.985033 131.874202 
L 192.264331 132.45495 
L 194.571561 133.063541 
L 196.869469 133.662801 
L 199.120942 134.216155 
L 201.28958 134.689979 
L 203.340255 135.055752 
L 205.239655 135.291886 
L 206.956812 135.385096 
L 208.463589 135.331238 
L 209.735144 135.135542 
L 210.750344 134.812247 
L 211.492125 134.383643 
L 211.947802 133.878596 
z
" style="fill:#0000ff;stroke:#000000;stroke-linejoin:miter;"/>
   </g>
   <g id="patch_5">
    <path clip-path="url(#pb201741ae6)" d="M 266.454713 134.590152 
L 266.318767 134.035307 
L 265.886977 133.509692 
L 265.165848 133.047183 
L 264.166716 132.677204 
L 262.905591 132.422811 
L 261.402927 132.299206 
L 259.683296 132.312766 
L 257.774996 132.460652 
L 255.709578 132.73103 
L 253.521317 133.103878 
L 251.246626 133.552335 
L 248.923424 134.044496 
L 246.590476 134.545546 
L 244.286721 135.020077 
L 242.050584 135.434449 
L 239.919313 135.75903 
L 237.928326 135.970179 
L 236.110608 136.051831 
L 234.496146 135.996585 
L 233.111429 135.806222 
L 231.979015 135.491615 
L 231.11717 135.072051 
L 230.539594 134.573984 
L 230.255218 134.029324 
L 230.268103 133.473361 
L 230.577406 132.942461 
L 231.177436 132.471686 
L 232.057793 132.092499 
L 233.203566 131.830691 
L 234.595615 131.704682 
L 236.210903 131.724289 
L 238.022886 131.890063 
L 240.001954 132.193222 
L 242.1159 132.61619 
L 244.330439 133.13371 
L 246.609737 133.714458 
L 248.916968 134.323049 
L 251.214875 134.922309 
L 253.466349 135.475664 
L 255.634987 135.949487 
L 257.685661 136.31526 
L 259.585062 136.551394 
L 261.302218 136.644605 
L 262.808995 136.590746 
L 264.080551 136.39505 
L 265.095751 136.071755 
L 265.837532 135.643151 
L 266.293208 135.138104 
z
" style="fill:#0000ff;stroke:#000000;stroke-linejoin:miter;"/>
   </g>
   <g id="patch_6">
    <path clip-path="url(#pb201741ae6)" d="M 253.585191 142.448078 
L 188.370703 140.936668 
L 188.244752 146.371209 
L 253.459241 147.882619 
z
" style="fill:#999999;stroke:#000000;stroke-linejoin:miter;"/>
   </g>
   <g id="text_1">
    <!-- t = 1.6 -->
    <defs>
     <path d="M 18.3125 70.21875 
L 18.3125 54.6875 
L 36.8125 54.6875 
L 36.8125 47.703125 
L 18.3125 47.703125 
L 18.3125 18.015625 
Q 18.3125 11.328125 20.140625 9.421875 
Q 21.96875 7.515625 27.59375 7.515625 
L 36.8125 7.515625 
L 36.8125 0 
L 27.59375 0 
Q 17.1875 0 13.234375 3.875 
Q 9.28125 7.765625 9.28125 18.015625 
L 9.28125 47.703125 
L 2.6875 47.703125 
L 2.6875 54.6875 
L 9.28125 54.6875 
L 9.28125 70.21875 
z
" id="DejaVuSans-116"/>
     <path id="DejaVuSans-32"/>
     <path d="M 10.59375 45.40625 
L 73.1875 45.40625 
L 73.1875 37.203125 
L 10.59375 37.203125 
z
M 10.59375 25.484375 
L 73.1875 25.484375 
L 73.1875 17.1875 
L 10.59375 17.1875 
z
" id="DejaVuSans-61"/>
     <path d="M 12.40625 8.296875 
L 28.515625 8.296875 
L 28.515625 63.921875 
L 10.984375 60.40625 
L 10.984375 69.390625 
L 28.421875 72.90625 
L 38.28125 72.90625 
L 38.28125 8.296875 
L 54.390625 8.296875 
L 54.390625 0 
L 12.40625 0 
z
" id="DejaVuSans-49"/>
     <path d="M 10.6875 12.40625 
L 21 12.40625 
L 21 0 
L 10.6875 0 
z
" id="DejaVuSans-46"/>
     <path d="M 33.015625 40.375 
Q 26.375 40.375 22.484375 35.828125 
Q 18.609375 31.296875 18.609375 23.390625 
Q 18.609375 15.53125 22.484375 10.953125 
Q 26.375 6.390625 33.015625 6.390625 
Q 39.65625 6.390625 43.53125 10.953125 
Q 47.40625 15.53125 47.40625 23.390625 
Q 47.40625 31.296875 43.53125 35.828125 
Q 39.65625 40.375 33.015625 40.375 
z
M 52.59375 71.296875 
L 52.59375 62.3125 
Q 48.875 64.0625 45.09375 64.984375 
Q 41.3125 65.921875 37.59375 65.921875 
Q 27.828125 65.921875 22.671875 59.328125 
Q 17.53125 52.734375 16.796875 39.40625 
Q 19.671875 43.65625 24.015625 45.921875 
Q 28.375 48.1875 33.59375 48.1875 
Q 44.578125 48.1875 50.953125 41.515625 
Q 57.328125 34.859375 57.328125 23.390625 
Q 57.328125 12.15625 50.6875 5.359375 
Q 44.046875 -1.421875 33.015625 -1.421875 
Q 20.359375 -1.421875 13.671875 8.265625 
Q 6.984375 17.96875 6.984375 36.375 
Q 6.984375 53.65625 15.1875 63.9375 
Q 23.390625 74.21875 37.203125 74.21875 
Q 40.921875 74.21875 44.703125 73.484375 
Q 48.484375 72.75 52.59375 71.296875 
z
" id="DejaVuSans-54"/>
    </defs>
    <g transform="translate(200.664375 28.56)scale(0.12 -0.12)">
     <use xlink:href="#DejaVuSans-116"/>
     <use x="39.208984" xlink:href="#DejaVuSans-32"/>
     <use x="70.996094" xlink:href="#DejaVuSans-61"/>
     <use x="154.785156" xlink:href="#DejaVuSans-32"/>
     <use x="186.572266" xlink:href="#DejaVuSans-49"/>
     <use x="250.195312" xlink:href="#DejaVuSans-46"/>
     <use x="281.982422" xlink:href="#DejaVuSans-54"/>
    </g>
   </g>
  </g>
 </g>
 <defs>
  <clipPath id="pb201741ae6">
   <rect height="217.44" width="334.8" x="54" y="34.56"/>
  </clipPath>
 </defs>
</svg>
