<?xml version="1.0" encoding="utf-8" standalone="no"?>
<!DOCTYPE svg PUBLIC "-//W3C//DTD SVG 1.1//EN"
  "http://www.w3.org/Graphics/SVG/1.1/DTD/svg11.dtd">
<!-- Created with matplotlib (https://matplotlib.org/) -->
<svg height="288pt" version="1.1" viewBox="0 0 432 288" width="432pt" xmlns="http://www.w3.org/2000/svg" xmlns:xlink="http://www.w3.org/1999/xlink">
 <defs>
  <style type="text/css">
*{stroke-linecap:butt;stroke-linejoin:round;}
  </style>
 </defs>
 <g id="figure_1">
  <g id="patch_1">
   <path d="M 0 288 
L 432 288 
L 432 0 
L 0 0 
z
" style="fill:#ffffff;"/>
  </g>
  <g id="axes_1">
   <g id="patch_2">
    <path clip-path="url(#p2e9072e6f9)" d="M 103.936781 182.958339 
L 96.288003 190.684695 
L 95.515368 189.919817 
L 103.164145 182.193461 
z
" style="stroke:#000000;stroke-linejoin:miter;"/>
   </g>
   <g id="patch_3">
    <path clip-path="url(#p2e9072e6f9)" d="M 142.568563 221.202228 
L 134.919785 228.928584 
L 134.147149 228.163706 
L 141.795927 220.43735 
z
" style="stroke:#000000;stroke-linejoin:miter;"/>
   </g>
   <g id="patch_4">
    <path clip-path="url(#p2e9072e6f9)" d="M 116.427724 195.323863 
L 116.710031 194.827237 
L 116.757249 194.148647 
L 116.550836 193.317182 
L 116.078821 192.362011 
L 115.337003 191.310889 
L 114.329805 190.188913 
L 113.070705 189.017597 
L 111.58222 187.814313 
L 109.895408 186.592133 
L 108.048934 185.360048 
L 106.087711 184.123546 
L 104.061211 182.885486 
L 102.021524 181.647194 
L 100.021267 180.409679 
L 98.111476 179.174888 
L 96.339574 177.946868 
L 94.747541 176.732766 
L 93.370383 175.543564 
L 92.234978 174.394479 
L 91.359356 173.304999 
L 90.752441 172.298524 
L 90.414262 171.401615 
L 90.336603 170.642909 
L 90.504039 170.051734 
L 90.895281 169.656524 
L 91.484737 169.483131 
L 92.244188 169.553129 
L 93.144463 169.88224 
L 94.157012 170.478968 
L 95.255272 171.343551 
L 96.415756 172.467302 
L 97.618795 173.83239 
L 98.8489 175.41209 
L 100.094738 177.17151 
L 101.348739 179.068743 
L 102.606376 181.05641 
L 103.865188 183.083498 
L 105.123634 185.097401 
L 106.379864 187.046046 
L 107.630519 188.879993 
L 108.869659 190.554386 
L 110.087902 192.030653 
L 111.271865 193.277868 
L 112.403948 194.273693 
L 113.462502 195.004866 
L 114.422388 195.467219 
L 115.255893 195.665231 
L 115.933972 195.611167 
z
" style="fill:#0000ff;stroke:#000000;stroke-linejoin:miter;"/>
   </g>
   <g id="patch_5">
    <path clip-path="url(#p2e9072e6f9)" d="M 155.059506 233.567752 
L 155.341813 233.071126 
L 155.389031 232.392536 
L 155.182618 231.561071 
L 154.710603 230.6059 
L 153.968785 229.554778 
L 152.961586 228.432802 
L 151.702487 227.261485 
L 150.214001 226.058201 
L 148.52719 224.836021 
L 146.680716 223.603936 
L 144.719493 222.367434 
L 142.692993 221.129375 
L 140.653306 219.891083 
L 138.653049 218.653568 
L 136.743258 217.418776 
L 134.971356 216.190756 
L 133.379322 214.976655 
L 132.002165 213.787453 
L 130.86676 212.638367 
L 129.991138 211.548888 
L 129.384223 210.542413 
L 129.046044 209.645504 
L 128.968385 208.886798 
L 129.135821 208.295623 
L 129.527063 207.900413 
L 130.116519 207.72702 
L 130.87597 207.797018 
L 131.776245 208.126129 
L 132.788794 208.722857 
L 133.887054 209.58744 
L 135.047538 210.711191 
L 136.250577 212.076278 
L 137.480682 213.655979 
L 138.72652 215.415399 
L 139.980521 217.312632 
L 141.238158 219.300299 
L 142.49697 221.327387 
L 143.755416 223.34129 
L 145.011646 225.289935 
L 146.262301 227.123882 
L 147.501441 228.798274 
L 148.719684 230.274542 
L 149.903647 231.521757 
L 151.03573 232.517582 
L 152.094284 233.248755 
L 153.054169 233.711107 
L 153.887675 233.909119 
L 154.565754 233.855056 
z
" style="fill:#0000ff;stroke:#000000;stroke-linejoin:miter;"/>
   </g>
   <g id="patch_6">
    <path clip-path="url(#p2e9072e6f9)" d="M 140.30884 230.438945 
L 93.950702 184.546278 
L 90.126313 188.409456 
L 136.484451 234.302123 
z
" style="fill:#999999;stroke:#000000;stroke-linejoin:miter;"/>
   </g>
   <g id="text_1">
    <!-- t = 0.0 -->
    <defs>
     <path d="M 18.3125 70.21875 
L 18.3125 54.6875 
L 36.8125 54.6875 
L 36.8125 47.703125 
L 18.3125 47.703125 
L 18.3125 18.015625 
Q 18.3125 11.328125 20.140625 9.421875 
Q 21.96875 7.515625 27.59375 7.515625 
L 36.8125 7.515625 
L 36.8125 0 
L 27.59375 0 
Q 17.1875 0 13.234375 3.875 
Q 9.28125 7.765625 9.28125 18.015625 
L 9.28125 47.703125 
L 2.6875 47.703125 
L 2.6875 54.6875 
L 9.28125 54.6875 
L 9.28125 70.21875 
z
" id="DejaVuSans-116"/>
     <path id="DejaVuSans-32"/>
     <path d="M 10.59375 45.40625 
L 73.1875 45.40625 
L 73.1875 37.203125 
L 10.59375 37.203125 
z
M 10.59375 25.484375 
L 73.1875 25.484375 
L 73.1875 17.1875 
L 10.59375 17.1875 
z
" id="DejaVuSans-61"/>
     <path d="M 31.78125 66.40625 
Q 24.171875 66.40625 20.328125 58.90625 
Q 16.5 51.421875 16.5 36.375 
Q 16.5 21.390625 20.328125 13.890625 
Q 24.171875 6.390625 31.78125 6.390625 
Q 39.453125 6.390625 43.28125 13.890625 
Q 47.125 21.390625 47.125 36.375 
Q 47.125 51.421875 43.28125 58.90625 
Q 39.453125 66.40625 31.78125 66.40625 
z
M 31.78125 74.21875 
Q 44.046875 74.21875 50.515625 64.515625 
Q 56.984375 54.828125 56.984375 36.375 
Q 56.984375 17.96875 50.515625 8.265625 
Q 44.046875 -1.421875 31.78125 -1.421875 
Q 19.53125 -1.421875 13.0625 8.265625 
Q 6.59375 17.96875 6.59375 36.375 
Q 6.59375 54.828125 13.0625 64.515625 
Q 19.53125 74.21875 31.78125 74.21875 
z
" id="DejaVuSans-48"/>
     <path d="M 10.6875 12.40625 
L 21 12.40625 
L 21 0 
L 10.6875 0 
z
" id="DejaVuSans-46"/>
    </defs>
    <g transform="translate(200.664375 28.56)scale(0.12 -0.12)">
     <use xlink:href="#DejaVuSans-116"/>
     <use x="39.208984" xlink:href="#DejaVuSans-32"/>
     <use x="70.996094" xlink:href="#DejaVuSans-61"/>
     <use x="154.785156" xlink:href="#DejaVuSans-32"/>
     <use x="186.572266" xlink:href="#DejaVuSans-48"/>
     <use x="250.195312" xlink:href="#DejaVuSans-46"/>
     <use x="281.982422" xlink:href="#DejaVuSans-48"/>
    </g>
   </g>
  </g>
 </g>
 <defs>
  <clipPath id="p2e9072e6f9">
   <rect height="217.44" width="334.8" x="54" y="34.56"/>
  </clipPath>
 </defs>
</svg>
