<?xml version="1.0" encoding="utf-8" standalone="no"?>
<!DOCTYPE svg PUBLIC "-//W3C//DTD SVG 1.1//EN"
  "http://www.w3.org/Graphics/SVG/1.1/DTD/svg11.dtd">
<!-- Created with matplotlib (https://matplotlib.org/) -->
<svg height="288pt" version="1.1" viewBox="0 0 432 288" width="432pt" xmlns="http://www.w3.org/2000/svg" xmlns:xlink="http://www.w3.org/1999/xlink">
 <defs>
  <style type="text/css">
*{stroke-linecap:butt;stroke-linejoin:round;}
  </style>
 </defs>
 <g id="figure_1">
  <g id="patch_1">
   <path d="M 0 288 
L 432 288 
L 432 0 
L 0 0 
z
" style="fill:#ffffff;"/>
  </g>
  <g id="axes_1">
   <g id="patch_2">
    <path clip-path="url(#p91aeddb543)" d="M 194.764647 132.407832 
L 194.764611 143.279832 
L 193.677411 143.279829 
L 193.677447 132.407829 
z
" style="stroke:#000000;stroke-linejoin:miter;"/>
   </g>
   <g id="patch_3">
    <path clip-path="url(#p91aeddb543)" d="M 249.124647 132.408012 
L 249.124611 143.280012 
L 248.037411 143.280009 
L 248.037447 132.408009 
z
" style="stroke:#000000;stroke-linejoin:miter;"/>
   </g>
   <g id="patch_4">
    <path clip-path="url(#p91aeddb543)" d="M 212.341047 132.407891 
L 212.192283 131.856344 
L 211.748433 131.340872 
L 211.016783 130.895194 
L 210.009348 130.54846 
L 208.742668 130.323351 
L 207.237544 130.234591 
L 205.518689 130.287985 
L 203.614326 130.48004 
L 201.555726 130.798194 
L 199.37669 131.221637 
L 197.112999 131.722669 
L 194.801822 132.268518 
L 192.481108 132.82348 
L 190.188964 133.351254 
L 187.963027 133.817318 
L 185.839847 134.191185 
L 183.854286 134.448402 
L 182.038947 134.572143 
L 180.423639 134.554313 
L 179.034883 134.396079 
L 177.895485 134.107791 
L 177.024152 133.708305 
L 176.435192 133.223752 
L 176.138275 132.685827 
L 176.138277 132.129715 
L 176.435197 131.591791 
L 177.024161 131.107242 
L 177.895496 130.707762 
L 179.034897 130.419482 
L 180.423653 130.261257 
L 182.038962 130.243438 
L 183.854299 130.367191 
L 185.839859 130.62442 
L 187.963036 130.998302 
L 190.18897 131.46438 
L 192.481111 131.99217 
L 194.801821 132.547147 
L 197.112994 133.093011 
L 199.376682 133.594059 
L 201.555715 134.017515 
L 203.614313 134.335683 
L 205.518675 134.527751 
L 207.23753 134.581156 
L 208.742654 134.492406 
L 210.009335 134.267305 
L 211.016773 133.920578 
L 211.748426 133.474905 
L 212.19228 132.959437 
z
" style="fill:#0000ff;stroke:#000000;stroke-linejoin:miter;"/>
   </g>
   <g id="patch_5">
    <path clip-path="url(#p91aeddb543)" d="M 266.701047 132.40807 
L 266.552283 131.856523 
L 266.108433 131.341052 
L 265.376783 130.895374 
L 264.369348 130.54864 
L 263.102668 130.323531 
L 261.597544 130.234771 
L 259.878689 130.288165 
L 257.974326 130.48022 
L 255.915726 130.798374 
L 253.73669 131.221816 
L 251.472999 131.722849 
L 249.161822 132.268698 
L 246.841108 132.82366 
L 244.548964 133.351434 
L 242.323027 133.817498 
L 240.199847 134.191365 
L 238.214286 134.448582 
L 236.398947 134.572322 
L 234.783639 134.554493 
L 233.394883 134.396259 
L 232.255485 134.107971 
L 231.384152 133.708485 
L 230.795192 133.223932 
L 230.498275 132.686007 
L 230.498277 132.129894 
L 230.795197 131.591971 
L 231.384161 131.107422 
L 232.255496 130.707942 
L 233.394897 130.419661 
L 234.783653 130.261437 
L 236.398962 130.243618 
L 238.214299 130.36737 
L 240.199859 130.6246 
L 242.323036 130.998482 
L 244.54897 131.46456 
L 246.841111 131.992349 
L 249.161821 132.547327 
L 251.472994 133.093191 
L 253.736682 133.594239 
L 255.915715 134.017695 
L 257.974313 134.335863 
L 259.878675 134.527931 
L 261.59753 134.581336 
L 263.102654 134.492586 
L 264.369335 134.267485 
L 265.376773 133.920758 
L 266.108426 133.475085 
L 266.55228 132.959616 
z
" style="fill:#0000ff;stroke:#000000;stroke-linejoin:miter;"/>
   </g>
   <g id="patch_6">
    <path clip-path="url(#p91aeddb543)" d="M 254.01702 140.562028 
L 188.78502 140.561813 
L 188.785002 145.997813 
L 254.017002 145.998028 
z
" style="fill:#999999;stroke:#000000;stroke-linejoin:miter;"/>
   </g>
   <g id="text_1">
    <!-- t = 4.0 -->
    <defs>
     <path d="M 18.3125 70.21875 
L 18.3125 54.6875 
L 36.8125 54.6875 
L 36.8125 47.703125 
L 18.3125 47.703125 
L 18.3125 18.015625 
Q 18.3125 11.328125 20.140625 9.421875 
Q 21.96875 7.515625 27.59375 7.515625 
L 36.8125 7.515625 
L 36.8125 0 
L 27.59375 0 
Q 17.1875 0 13.234375 3.875 
Q 9.28125 7.765625 9.28125 18.015625 
L 9.28125 47.703125 
L 2.6875 47.703125 
L 2.6875 54.6875 
L 9.28125 54.6875 
L 9.28125 70.21875 
z
" id="DejaVuSans-116"/>
     <path id="DejaVuSans-32"/>
     <path d="M 10.59375 45.40625 
L 73.1875 45.40625 
L 73.1875 37.203125 
L 10.59375 37.203125 
z
M 10.59375 25.484375 
L 73.1875 25.484375 
L 73.1875 17.1875 
L 10.59375 17.1875 
z
" id="DejaVuSans-61"/>
     <path d="M 37.796875 64.3125 
L 12.890625 25.390625 
L 37.796875 25.390625 
z
M 35.203125 72.90625 
L 47.609375 72.90625 
L 47.609375 25.390625 
L 58.015625 25.390625 
L 58.015625 17.1875 
L 47.609375 17.1875 
L 47.609375 0 
L 37.796875 0 
L 37.796875 17.1875 
L 4.890625 17.1875 
L 4.890625 26.703125 
z
" id="DejaVuSans-52"/>
     <path d="M 10.6875 12.40625 
L 21 12.40625 
L 21 0 
L 10.6875 0 
z
" id="DejaVuSans-46"/>
     <path d="M 31.78125 66.40625 
Q 24.171875 66.40625 20.328125 58.90625 
Q 16.5 51.421875 16.5 36.375 
Q 16.5 21.390625 20.328125 13.890625 
Q 24.171875 6.390625 31.78125 6.390625 
Q 39.453125 6.390625 43.28125 13.890625 
Q 47.125 21.390625 47.125 36.375 
Q 47.125 51.421875 43.28125 58.90625 
Q 39.453125 66.40625 31.78125 66.40625 
z
M 31.78125 74.21875 
Q 44.046875 74.21875 50.515625 64.515625 
Q 56.984375 54.828125 56.984375 36.375 
Q 56.984375 17.96875 50.515625 8.265625 
Q 44.046875 -1.421875 31.78125 -1.421875 
Q 19.53125 -1.421875 13.0625 8.265625 
Q 6.59375 17.96875 6.59375 36.375 
Q 6.59375 54.828125 13.0625 64.515625 
Q 19.53125 74.21875 31.78125 74.21875 
z
" id="DejaVuSans-48"/>
    </defs>
    <g transform="translate(200.664375 28.56)scale(0.12 -0.12)">
     <use xlink:href="#DejaVuSans-116"/>
     <use x="39.208984" xlink:href="#DejaVuSans-32"/>
     <use x="70.996094" xlink:href="#DejaVuSans-61"/>
     <use x="154.785156" xlink:href="#DejaVuSans-32"/>
     <use x="186.572266" xlink:href="#DejaVuSans-52"/>
     <use x="250.195312" xlink:href="#DejaVuSans-46"/>
     <use x="281.982422" xlink:href="#DejaVuSans-48"/>
    </g>
   </g>
  </g>
 </g>
 <defs>
  <clipPath id="p91aeddb543">
   <rect height="217.44" width="334.8" x="54" y="34.56"/>
  </clipPath>
 </defs>
</svg>
