<?xml version="1.0" encoding="utf-8" standalone="no"?>
<!DOCTYPE svg PUBLIC "-//W3C//DTD SVG 1.1//EN"
  "http://www.w3.org/Graphics/SVG/1.1/DTD/svg11.dtd">
<!-- Created with matplotlib (https://matplotlib.org/) -->
<svg height="288pt" version="1.1" viewBox="0 0 432 288" width="432pt" xmlns="http://www.w3.org/2000/svg" xmlns:xlink="http://www.w3.org/1999/xlink">
 <defs>
  <style type="text/css">
*{stroke-linecap:butt;stroke-linejoin:round;}
  </style>
 </defs>
 <g id="figure_1">
  <g id="patch_1">
   <path d="M 0 288 
L 432 288 
L 432 0 
L 0 0 
z
" style="fill:#ffffff;"/>
  </g>
  <g id="axes_1">
   <g id="patch_2">
    <path clip-path="url(#pd66e2dc06b)" d="M 194.722928 132.428796 
L 194.728919 143.300794 
L 193.641719 143.301393 
L 193.635729 132.429395 
z
" style="stroke:#000000;stroke-linejoin:miter;"/>
   </g>
   <g id="patch_3">
    <path clip-path="url(#pd66e2dc06b)" d="M 249.08292 132.398843 
L 249.088911 143.270841 
L 248.001711 143.27144 
L 247.99572 132.399442 
z
" style="stroke:#000000;stroke-linejoin:miter;"/>
   </g>
   <g id="patch_4">
    <path clip-path="url(#pd66e2dc06b)" d="M 212.299326 132.419111 
L 212.150257 131.867647 
L 211.706121 131.352422 
L 210.974224 130.907149 
L 209.966596 130.560974 
L 208.699792 130.336567 
L 207.194619 130.248641 
L 205.475794 130.302987 
L 203.571538 130.496099 
L 201.513115 130.815394 
L 199.334314 131.240044 
L 197.070901 131.742331 
L 194.760026 132.289461 
L 192.439621 132.84571 
L 190.14777 133.374754 
L 187.922091 133.842051 
L 185.799119 134.217096 
L 183.813701 134.475413 
L 181.998431 134.60016 
L 180.383113 134.583226 
L 178.99427 134.425762 
L 177.854712 134.138105 
L 176.983158 133.739103 
L 176.393929 133.254876 
L 176.096714 132.717116 
L 176.096407 132.161003 
L 176.39303 131.622915 
L 176.981724 131.13804 
L 177.852838 130.738077 
L 178.992079 130.449165 
L 180.380747 130.29017 
L 181.996046 130.271456 
L 183.811452 130.394202 
L 185.797153 130.650331 
L 187.920538 131.023036 
L 190.14673 131.487881 
L 192.439162 132.014399 
L 194.76018 132.56809 
L 197.071656 133.112673 
L 199.335621 133.612466 
L 201.514888 134.034714 
L 203.573663 134.351741 
L 205.47813 134.542753 
L 207.197014 134.595206 
L 208.70209 134.505621 
L 209.968646 134.279818 
L 210.975891 133.932533 
L 211.707297 133.486454 
L 212.150865 132.97074 
z
" style="fill:#0000ff;stroke:#000000;stroke-linejoin:miter;"/>
   </g>
   <g id="patch_5">
    <path clip-path="url(#pd66e2dc06b)" d="M 266.659317 132.389158 
L 266.510249 131.837693 
L 266.066113 131.322468 
L 265.334216 130.877196 
L 264.326588 130.531021 
L 263.059784 130.306614 
L 261.554611 130.218688 
L 259.835786 130.273034 
L 257.93153 130.466145 
L 255.873106 130.785441 
L 253.694306 131.210091 
L 251.430892 131.712378 
L 249.120018 132.259508 
L 246.799612 132.815756 
L 244.507761 133.344801 
L 242.282083 133.812098 
L 240.15911 134.187143 
L 238.173692 134.44546 
L 236.358423 134.570207 
L 234.743104 134.553273 
L 233.354262 134.395809 
L 232.214704 134.108152 
L 231.343149 133.709149 
L 230.753921 133.224923 
L 230.456706 132.687162 
L 230.456399 132.13105 
L 230.753021 131.592962 
L 231.341716 131.108087 
L 232.21283 130.708124 
L 233.35207 130.419212 
L 234.740739 130.260217 
L 236.356037 130.241503 
L 238.171444 130.364249 
L 240.157145 130.620378 
L 242.28053 130.993083 
L 244.506722 131.457927 
L 246.799154 131.984446 
L 249.120171 132.538137 
L 251.431647 133.08272 
L 253.695613 133.582512 
L 255.87488 134.004761 
L 257.933654 134.321788 
L 259.838122 134.5128 
L 261.557006 134.565253 
L 263.062081 134.475668 
L 264.328637 134.249865 
L 265.335883 133.90258 
L 266.067288 133.456501 
L 266.510856 132.940786 
z
" style="fill:#0000ff;stroke:#000000;stroke-linejoin:miter;"/>
   </g>
   <g id="patch_6">
    <path clip-path="url(#pd66e2dc06b)" d="M 253.979812 140.550146 
L 188.747822 140.58609 
L 188.750818 146.022089 
L 253.982808 145.986145 
z
" style="fill:#999999;stroke:#000000;stroke-linejoin:miter;"/>
   </g>
   <g id="text_1">
    <!-- t = 3.1 -->
    <defs>
     <path d="M 18.3125 70.21875 
L 18.3125 54.6875 
L 36.8125 54.6875 
L 36.8125 47.703125 
L 18.3125 47.703125 
L 18.3125 18.015625 
Q 18.3125 11.328125 20.140625 9.421875 
Q 21.96875 7.515625 27.59375 7.515625 
L 36.8125 7.515625 
L 36.8125 0 
L 27.59375 0 
Q 17.1875 0 13.234375 3.875 
Q 9.28125 7.765625 9.28125 18.015625 
L 9.28125 47.703125 
L 2.6875 47.703125 
L 2.6875 54.6875 
L 9.28125 54.6875 
L 9.28125 70.21875 
z
" id="DejaVuSans-116"/>
     <path id="DejaVuSans-32"/>
     <path d="M 10.59375 45.40625 
L 73.1875 45.40625 
L 73.1875 37.203125 
L 10.59375 37.203125 
z
M 10.59375 25.484375 
L 73.1875 25.484375 
L 73.1875 17.1875 
L 10.59375 17.1875 
z
" id="DejaVuSans-61"/>
     <path d="M 40.578125 39.3125 
Q 47.65625 37.796875 51.625 33 
Q 55.609375 28.21875 55.609375 21.1875 
Q 55.609375 10.40625 48.1875 4.484375 
Q 40.765625 -1.421875 27.09375 -1.421875 
Q 22.515625 -1.421875 17.65625 -0.515625 
Q 12.796875 0.390625 7.625 2.203125 
L 7.625 11.71875 
Q 11.71875 9.328125 16.59375 8.109375 
Q 21.484375 6.890625 26.8125 6.890625 
Q 36.078125 6.890625 40.9375 10.546875 
Q 45.796875 14.203125 45.796875 21.1875 
Q 45.796875 27.640625 41.28125 31.265625 
Q 36.765625 34.90625 28.71875 34.90625 
L 20.21875 34.90625 
L 20.21875 43.015625 
L 29.109375 43.015625 
Q 36.375 43.015625 40.234375 45.921875 
Q 44.09375 48.828125 44.09375 54.296875 
Q 44.09375 59.90625 40.109375 62.90625 
Q 36.140625 65.921875 28.71875 65.921875 
Q 24.65625 65.921875 20.015625 65.03125 
Q 15.375 64.15625 9.8125 62.3125 
L 9.8125 71.09375 
Q 15.4375 72.65625 20.34375 73.4375 
Q 25.25 74.21875 29.59375 74.21875 
Q 40.828125 74.21875 47.359375 69.109375 
Q 53.90625 64.015625 53.90625 55.328125 
Q 53.90625 49.265625 50.4375 45.09375 
Q 46.96875 40.921875 40.578125 39.3125 
z
" id="DejaVuSans-51"/>
     <path d="M 10.6875 12.40625 
L 21 12.40625 
L 21 0 
L 10.6875 0 
z
" id="DejaVuSans-46"/>
     <path d="M 12.40625 8.296875 
L 28.515625 8.296875 
L 28.515625 63.921875 
L 10.984375 60.40625 
L 10.984375 69.390625 
L 28.421875 72.90625 
L 38.28125 72.90625 
L 38.28125 8.296875 
L 54.390625 8.296875 
L 54.390625 0 
L 12.40625 0 
z
" id="DejaVuSans-49"/>
    </defs>
    <g transform="translate(200.664375 28.56)scale(0.12 -0.12)">
     <use xlink:href="#DejaVuSans-116"/>
     <use x="39.208984" xlink:href="#DejaVuSans-32"/>
     <use x="70.996094" xlink:href="#DejaVuSans-61"/>
     <use x="154.785156" xlink:href="#DejaVuSans-32"/>
     <use x="186.572266" xlink:href="#DejaVuSans-51"/>
     <use x="250.195312" xlink:href="#DejaVuSans-46"/>
     <use x="281.982422" xlink:href="#DejaVuSans-49"/>
    </g>
   </g>
  </g>
 </g>
 <defs>
  <clipPath id="pd66e2dc06b">
   <rect height="217.44" width="334.8" x="54" y="34.56"/>
  </clipPath>
 </defs>
</svg>
