<?xml version="1.0" encoding="utf-8" standalone="no"?>
<!DOCTYPE svg PUBLIC "-//W3C//DTD SVG 1.1//EN"
  "http://www.w3.org/Graphics/SVG/1.1/DTD/svg11.dtd">
<!-- Created with matplotlib (https://matplotlib.org/) -->
<svg height="288pt" version="1.1" viewBox="0 0 432 288" width="432pt" xmlns="http://www.w3.org/2000/svg" xmlns:xlink="http://www.w3.org/1999/xlink">
 <defs>
  <style type="text/css">
*{stroke-linecap:butt;stroke-linejoin:round;}
  </style>
 </defs>
 <g id="figure_1">
  <g id="patch_1">
   <path d="M 0 288 
L 432 288 
L 432 0 
L 0 0 
z
" style="fill:#ffffff;"/>
  </g>
  <g id="axes_1">
   <g id="patch_2">
    <path clip-path="url(#p1469dc0e7d)" d="M 194.760901 132.411061 
L 194.76211 143.283061 
L 193.67491 143.283182 
L 193.673701 132.411182 
z
" style="stroke:#000000;stroke-linejoin:miter;"/>
   </g>
   <g id="patch_3">
    <path clip-path="url(#p1469dc0e7d)" d="M 249.1209 132.405013 
L 249.12211 143.277013 
L 248.03491 143.277134 
L 248.0337 132.405134 
z
" style="stroke:#000000;stroke-linejoin:miter;"/>
   </g>
   <g id="patch_4">
    <path clip-path="url(#p1469dc0e7d)" d="M 212.337301 132.409105 
L 212.188474 131.857575 
L 211.744565 131.342155 
L 211.012864 130.896561 
L 210.005389 130.549942 
L 208.738683 130.324978 
L 207.233549 130.23639 
L 205.5147 130.289981 
L 203.610359 130.482255 
L 201.551796 130.800645 
L 199.372809 131.224337 
L 197.109175 131.725628 
L 194.79806 132.271742 
L 192.47741 132.82697 
L 190.185326 133.355007 
L 187.959443 133.821325 
L 185.836305 134.195436 
L 183.850774 134.45288 
L 182.035449 134.576829 
L 180.420139 134.559184 
L 179.031366 134.40111 
L 177.891934 134.112952 
L 177.020555 133.713566 
L 176.43154 133.229081 
L 176.134561 132.691189 
L 176.134499 132.135077 
L 176.431358 131.59712 
L 177.020266 131.112503 
L 177.891556 130.712923 
L 179.030923 130.424512 
L 180.419661 130.266128 
L 182.034968 130.248124 
L 183.85032 130.371669 
L 185.835908 130.628671 
L 187.959129 131.00231 
L 190.185116 131.468133 
L 192.477317 131.99566 
L 194.798091 132.550371 
L 197.109327 133.095971 
L 199.373072 133.596759 
L 201.552154 134.019966 
L 203.610788 134.337898 
L 205.515172 134.529748 
L 207.234033 134.582956 
L 208.739147 134.494033 
L 210.005802 134.268787 
L 211.0132 133.921945 
L 211.744802 133.476188 
L 212.188597 132.960669 
z
" style="fill:#0000ff;stroke:#000000;stroke-linejoin:miter;"/>
   </g>
   <g id="patch_5">
    <path clip-path="url(#p1469dc0e7d)" d="M 266.6973 132.403058 
L 266.548474 131.851528 
L 266.104564 131.336107 
L 265.372864 130.890513 
L 264.365388 130.543895 
L 263.098683 130.318931 
L 261.593549 130.230343 
L 259.8747 130.283933 
L 257.970359 130.476207 
L 255.911795 130.794597 
L 253.732808 131.218289 
L 251.469174 131.719581 
L 249.158059 132.265695 
L 246.837409 132.820923 
L 244.545326 133.348959 
L 242.319442 133.815278 
L 240.196305 134.189389 
L 238.210774 134.446833 
L 236.395449 134.570781 
L 234.780138 134.553137 
L 233.391365 134.395062 
L 232.251934 134.106904 
L 231.380555 133.707518 
L 230.791539 133.223033 
L 230.494561 132.685141 
L 230.494499 132.129029 
L 230.791358 131.591072 
L 231.380266 131.106455 
L 232.251555 130.706876 
L 233.390923 130.418464 
L 234.779661 130.260081 
L 236.394967 130.242077 
L 238.210319 130.365621 
L 240.195908 130.622624 
L 242.319129 130.996262 
L 244.545116 131.462085 
L 246.837317 131.989612 
L 249.15809 132.544323 
L 251.469327 133.089923 
L 253.733072 133.590711 
L 255.912154 134.013918 
L 257.970788 134.33185 
L 259.875171 134.5237 
L 261.594032 134.576908 
L 263.099147 134.487985 
L 264.365802 134.26274 
L 265.3732 133.915897 
L 266.104802 133.47014 
L 266.548597 132.954621 
z
" style="fill:#0000ff;stroke:#000000;stroke-linejoin:miter;"/>
   </g>
   <g id="patch_6">
    <path clip-path="url(#p1469dc0e7d)" d="M 254.014207 140.558469 
L 188.782208 140.565726 
L 188.782813 146.001726 
L 254.014812 145.994469 
z
" style="fill:#999999;stroke:#000000;stroke-linejoin:miter;"/>
   </g>
   <g id="text_1">
    <!-- t = 3.8 -->
    <defs>
     <path d="M 18.3125 70.21875 
L 18.3125 54.6875 
L 36.8125 54.6875 
L 36.8125 47.703125 
L 18.3125 47.703125 
L 18.3125 18.015625 
Q 18.3125 11.328125 20.140625 9.421875 
Q 21.96875 7.515625 27.59375 7.515625 
L 36.8125 7.515625 
L 36.8125 0 
L 27.59375 0 
Q 17.1875 0 13.234375 3.875 
Q 9.28125 7.765625 9.28125 18.015625 
L 9.28125 47.703125 
L 2.6875 47.703125 
L 2.6875 54.6875 
L 9.28125 54.6875 
L 9.28125 70.21875 
z
" id="DejaVuSans-116"/>
     <path id="DejaVuSans-32"/>
     <path d="M 10.59375 45.40625 
L 73.1875 45.40625 
L 73.1875 37.203125 
L 10.59375 37.203125 
z
M 10.59375 25.484375 
L 73.1875 25.484375 
L 73.1875 17.1875 
L 10.59375 17.1875 
z
" id="DejaVuSans-61"/>
     <path d="M 40.578125 39.3125 
Q 47.65625 37.796875 51.625 33 
Q 55.609375 28.21875 55.609375 21.1875 
Q 55.609375 10.40625 48.1875 4.484375 
Q 40.765625 -1.421875 27.09375 -1.421875 
Q 22.515625 -1.421875 17.65625 -0.515625 
Q 12.796875 0.390625 7.625 2.203125 
L 7.625 11.71875 
Q 11.71875 9.328125 16.59375 8.109375 
Q 21.484375 6.890625 26.8125 6.890625 
Q 36.078125 6.890625 40.9375 10.546875 
Q 45.796875 14.203125 45.796875 21.1875 
Q 45.796875 27.640625 41.28125 31.265625 
Q 36.765625 34.90625 28.71875 34.90625 
L 20.21875 34.90625 
L 20.21875 43.015625 
L 29.109375 43.015625 
Q 36.375 43.015625 40.234375 45.921875 
Q 44.09375 48.828125 44.09375 54.296875 
Q 44.09375 59.90625 40.109375 62.90625 
Q 36.140625 65.921875 28.71875 65.921875 
Q 24.65625 65.921875 20.015625 65.03125 
Q 15.375 64.15625 9.8125 62.3125 
L 9.8125 71.09375 
Q 15.4375 72.65625 20.34375 73.4375 
Q 25.25 74.21875 29.59375 74.21875 
Q 40.828125 74.21875 47.359375 69.109375 
Q 53.90625 64.015625 53.90625 55.328125 
Q 53.90625 49.265625 50.4375 45.09375 
Q 46.96875 40.921875 40.578125 39.3125 
z
" id="DejaVuSans-51"/>
     <path d="M 10.6875 12.40625 
L 21 12.40625 
L 21 0 
L 10.6875 0 
z
" id="DejaVuSans-46"/>
     <path d="M 31.78125 34.625 
Q 24.75 34.625 20.71875 30.859375 
Q 16.703125 27.09375 16.703125 20.515625 
Q 16.703125 13.921875 20.71875 10.15625 
Q 24.75 6.390625 31.78125 6.390625 
Q 38.8125 6.390625 42.859375 10.171875 
Q 46.921875 13.96875 46.921875 20.515625 
Q 46.921875 27.09375 42.890625 30.859375 
Q 38.875 34.625 31.78125 34.625 
z
M 21.921875 38.8125 
Q 15.578125 40.375 12.03125 44.71875 
Q 8.5 49.078125 8.5 55.328125 
Q 8.5 64.0625 14.71875 69.140625 
Q 20.953125 74.21875 31.78125 74.21875 
Q 42.671875 74.21875 48.875 69.140625 
Q 55.078125 64.0625 55.078125 55.328125 
Q 55.078125 49.078125 51.53125 44.71875 
Q 48 40.375 41.703125 38.8125 
Q 48.828125 37.15625 52.796875 32.3125 
Q 56.78125 27.484375 56.78125 20.515625 
Q 56.78125 9.90625 50.3125 4.234375 
Q 43.84375 -1.421875 31.78125 -1.421875 
Q 19.734375 -1.421875 13.25 4.234375 
Q 6.78125 9.90625 6.78125 20.515625 
Q 6.78125 27.484375 10.78125 32.3125 
Q 14.796875 37.15625 21.921875 38.8125 
z
M 18.3125 54.390625 
Q 18.3125 48.734375 21.84375 45.5625 
Q 25.390625 42.390625 31.78125 42.390625 
Q 38.140625 42.390625 41.71875 45.5625 
Q 45.3125 48.734375 45.3125 54.390625 
Q 45.3125 60.0625 41.71875 63.234375 
Q 38.140625 66.40625 31.78125 66.40625 
Q 25.390625 66.40625 21.84375 63.234375 
Q 18.3125 60.0625 18.3125 54.390625 
z
" id="DejaVuSans-56"/>
    </defs>
    <g transform="translate(200.664375 28.56)scale(0.12 -0.12)">
     <use xlink:href="#DejaVuSans-116"/>
     <use x="39.208984" xlink:href="#DejaVuSans-32"/>
     <use x="70.996094" xlink:href="#DejaVuSans-61"/>
     <use x="154.785156" xlink:href="#DejaVuSans-32"/>
     <use x="186.572266" xlink:href="#DejaVuSans-51"/>
     <use x="250.195312" xlink:href="#DejaVuSans-46"/>
     <use x="281.982422" xlink:href="#DejaVuSans-56"/>
    </g>
   </g>
  </g>
 </g>
 <defs>
  <clipPath id="p1469dc0e7d">
   <rect height="217.44" width="334.8" x="54" y="34.56"/>
  </clipPath>
 </defs>
</svg>
