<?xml version="1.0" encoding="utf-8" standalone="no"?>
<!DOCTYPE svg PUBLIC "-//W3C//DTD SVG 1.1//EN"
  "http://www.w3.org/Graphics/SVG/1.1/DTD/svg11.dtd">
<!-- Created with matplotlib (https://matplotlib.org/) -->
<svg height="288pt" version="1.1" viewBox="0 0 432 288" width="432pt" xmlns="http://www.w3.org/2000/svg" xmlns:xlink="http://www.w3.org/1999/xlink">
 <defs>
  <style type="text/css">
*{stroke-linecap:butt;stroke-linejoin:round;}
  </style>
 </defs>
 <g id="figure_1">
  <g id="patch_1">
   <path d="M 0 288 
L 432 288 
L 432 0 
L 0 0 
z
" style="fill:#ffffff;"/>
  </g>
  <g id="axes_1">
   <g id="patch_2">
    <path clip-path="url(#p40b31f75e3)" d="M 194.787488 132.402105 
L 194.783888 143.274105 
L 193.696688 143.273745 
L 193.700288 132.401745 
z
" style="stroke:#000000;stroke-linejoin:miter;"/>
   </g>
   <g id="patch_3">
    <path clip-path="url(#p40b31f75e3)" d="M 249.147485 132.420104 
L 249.143885 143.292103 
L 248.056685 143.291743 
L 248.060285 132.419744 
z
" style="stroke:#000000;stroke-linejoin:miter;"/>
   </g>
   <g id="patch_4">
    <path clip-path="url(#p40b31f75e3)" d="M 212.363887 132.407925 
L 212.215304 131.856329 
L 211.771623 131.340712 
L 211.040119 130.894794 
L 210.032797 130.54773 
L 208.766192 130.322206 
L 207.261097 130.232952 
L 205.542224 130.285783 
L 203.637799 130.477214 
L 201.579094 130.794693 
L 199.39992 131.217421 
L 197.136064 131.717712 
L 194.824708 132.262803 
L 192.503813 132.817004 
L 190.211496 133.344027 
L 187.985407 133.809361 
L 185.862104 134.182533 
L 183.876459 134.439098 
L 182.06108 134.562244 
L 180.445777 134.543885 
L 179.057074 134.385196 
L 177.91777 134.096534 
L 177.046568 133.696763 
L 176.457767 133.212017 
L 176.161026 132.673994 
L 176.16121 132.117882 
L 176.458307 131.580056 
L 177.047429 131.0957 
L 177.918896 130.696506 
L 179.05839 130.408598 
L 180.447198 130.250829 
L 182.062513 130.23354 
L 183.87781 130.357887 
L 185.863285 130.615768 
L 187.98634 130.990346 
L 190.212121 131.457154 
L 192.504088 131.985694 
L 194.824616 132.541432 
L 197.135611 133.088054 
L 199.399134 133.589843 
L 201.578028 134.014014 
L 203.636522 134.332857 
L 205.54082 134.525549 
L 207.259658 134.579518 
L 208.764811 134.491261 
L 210.031566 134.266575 
L 211.039118 133.920178 
L 211.770916 133.474745 
L 212.214939 132.959422 
z
" style="fill:#0000ff;stroke:#000000;stroke-linejoin:miter;"/>
   </g>
   <g id="patch_5">
    <path clip-path="url(#p40b31f75e3)" d="M 266.723884 132.425923 
L 266.575301 131.874328 
L 266.13162 131.358711 
L 265.400116 130.912793 
L 264.392794 130.565729 
L 263.126189 130.340205 
L 261.621094 130.250951 
L 259.902221 130.303781 
L 257.997796 130.495213 
L 255.939091 130.812692 
L 253.759917 131.23542 
L 251.496061 131.73571 
L 249.184705 132.280802 
L 246.86381 132.835003 
L 244.571493 133.362026 
L 242.345404 133.82736 
L 240.222101 134.200531 
L 238.236456 134.457097 
L 236.421077 134.580243 
L 234.805774 134.561884 
L 233.417071 134.403194 
L 232.277767 134.114533 
L 231.406565 133.714761 
L 230.817764 133.230016 
L 230.521023 132.691993 
L 230.521207 132.135881 
L 230.818304 131.598054 
L 231.407426 131.113699 
L 232.278893 130.714504 
L 233.418387 130.426597 
L 234.807195 130.268828 
L 236.42251 130.251538 
L 238.237807 130.375886 
L 240.223282 130.633766 
L 242.346337 131.008344 
L 244.572118 131.475152 
L 246.864085 132.003693 
L 249.184613 132.55943 
L 251.495608 133.106053 
L 253.759131 133.607842 
L 255.938025 134.032013 
L 257.996519 134.350855 
L 259.900817 134.543548 
L 261.619655 134.597516 
L 263.124808 134.509259 
L 264.391563 134.284574 
L 265.399115 133.938177 
L 266.130913 133.492743 
L 266.574936 132.977421 
z
" style="fill:#0000ff;stroke:#000000;stroke-linejoin:miter;"/>
   </g>
   <g id="patch_6">
    <path clip-path="url(#p40b31f75e3)" d="M 254.037185 140.575723 
L 188.805188 140.554125 
L 188.803388 145.990125 
L 254.035385 146.011723 
z
" style="fill:#999999;stroke:#000000;stroke-linejoin:miter;"/>
   </g>
   <g id="text_1">
    <!-- t = 3.0 -->
    <defs>
     <path d="M 18.3125 70.21875 
L 18.3125 54.6875 
L 36.8125 54.6875 
L 36.8125 47.703125 
L 18.3125 47.703125 
L 18.3125 18.015625 
Q 18.3125 11.328125 20.140625 9.421875 
Q 21.96875 7.515625 27.59375 7.515625 
L 36.8125 7.515625 
L 36.8125 0 
L 27.59375 0 
Q 17.1875 0 13.234375 3.875 
Q 9.28125 7.765625 9.28125 18.015625 
L 9.28125 47.703125 
L 2.6875 47.703125 
L 2.6875 54.6875 
L 9.28125 54.6875 
L 9.28125 70.21875 
z
" id="DejaVuSans-116"/>
     <path id="DejaVuSans-32"/>
     <path d="M 10.59375 45.40625 
L 73.1875 45.40625 
L 73.1875 37.203125 
L 10.59375 37.203125 
z
M 10.59375 25.484375 
L 73.1875 25.484375 
L 73.1875 17.1875 
L 10.59375 17.1875 
z
" id="DejaVuSans-61"/>
     <path d="M 40.578125 39.3125 
Q 47.65625 37.796875 51.625 33 
Q 55.609375 28.21875 55.609375 21.1875 
Q 55.609375 10.40625 48.1875 4.484375 
Q 40.765625 -1.421875 27.09375 -1.421875 
Q 22.515625 -1.421875 17.65625 -0.515625 
Q 12.796875 0.390625 7.625 2.203125 
L 7.625 11.71875 
Q 11.71875 9.328125 16.59375 8.109375 
Q 21.484375 6.890625 26.8125 6.890625 
Q 36.078125 6.890625 40.9375 10.546875 
Q 45.796875 14.203125 45.796875 21.1875 
Q 45.796875 27.640625 41.28125 31.265625 
Q 36.765625 34.90625 28.71875 34.90625 
L 20.21875 34.90625 
L 20.21875 43.015625 
L 29.109375 43.015625 
Q 36.375 43.015625 40.234375 45.921875 
Q 44.09375 48.828125 44.09375 54.296875 
Q 44.09375 59.90625 40.109375 62.90625 
Q 36.140625 65.921875 28.71875 65.921875 
Q 24.65625 65.921875 20.015625 65.03125 
Q 15.375 64.15625 9.8125 62.3125 
L 9.8125 71.09375 
Q 15.4375 72.65625 20.34375 73.4375 
Q 25.25 74.21875 29.59375 74.21875 
Q 40.828125 74.21875 47.359375 69.109375 
Q 53.90625 64.015625 53.90625 55.328125 
Q 53.90625 49.265625 50.4375 45.09375 
Q 46.96875 40.921875 40.578125 39.3125 
z
" id="DejaVuSans-51"/>
     <path d="M 10.6875 12.40625 
L 21 12.40625 
L 21 0 
L 10.6875 0 
z
" id="DejaVuSans-46"/>
     <path d="M 31.78125 66.40625 
Q 24.171875 66.40625 20.328125 58.90625 
Q 16.5 51.421875 16.5 36.375 
Q 16.5 21.390625 20.328125 13.890625 
Q 24.171875 6.390625 31.78125 6.390625 
Q 39.453125 6.390625 43.28125 13.890625 
Q 47.125 21.390625 47.125 36.375 
Q 47.125 51.421875 43.28125 58.90625 
Q 39.453125 66.40625 31.78125 66.40625 
z
M 31.78125 74.21875 
Q 44.046875 74.21875 50.515625 64.515625 
Q 56.984375 54.828125 56.984375 36.375 
Q 56.984375 17.96875 50.515625 8.265625 
Q 44.046875 -1.421875 31.78125 -1.421875 
Q 19.53125 -1.421875 13.0625 8.265625 
Q 6.59375 17.96875 6.59375 36.375 
Q 6.59375 54.828125 13.0625 64.515625 
Q 19.53125 74.21875 31.78125 74.21875 
z
" id="DejaVuSans-48"/>
    </defs>
    <g transform="translate(200.664375 28.56)scale(0.12 -0.12)">
     <use xlink:href="#DejaVuSans-116"/>
     <use x="39.208984" xlink:href="#DejaVuSans-32"/>
     <use x="70.996094" xlink:href="#DejaVuSans-61"/>
     <use x="154.785156" xlink:href="#DejaVuSans-32"/>
     <use x="186.572266" xlink:href="#DejaVuSans-51"/>
     <use x="250.195312" xlink:href="#DejaVuSans-46"/>
     <use x="281.982422" xlink:href="#DejaVuSans-48"/>
    </g>
   </g>
  </g>
 </g>
 <defs>
  <clipPath id="p40b31f75e3">
   <rect height="217.44" width="334.8" x="54" y="34.56"/>
  </clipPath>
 </defs>
</svg>
