<?xml version="1.0" encoding="utf-8" standalone="no"?>
<!DOCTYPE svg PUBLIC "-//W3C//DTD SVG 1.1//EN"
  "http://www.w3.org/Graphics/SVG/1.1/DTD/svg11.dtd">
<!-- Created with matplotlib (https://matplotlib.org/) -->
<svg height="288pt" version="1.1" viewBox="0 0 432 288" width="432pt" xmlns="http://www.w3.org/2000/svg" xmlns:xlink="http://www.w3.org/1999/xlink">
 <defs>
  <style type="text/css">
*{stroke-linecap:butt;stroke-linejoin:round;}
  </style>
 </defs>
 <g id="figure_1">
  <g id="patch_1">
   <path d="M 0 288 
L 432 288 
L 432 0 
L 0 0 
z
" style="fill:#ffffff;"/>
  </g>
  <g id="axes_1">
   <g id="patch_2">
    <path clip-path="url(#p43d3e0855e)" d="M 195.745378 132.40756 
L 195.671347 143.279308 
L 194.584172 143.271905 
L 194.658204 132.400157 
z
" style="stroke:#000000;stroke-linejoin:miter;"/>
   </g>
   <g id="patch_3">
    <path clip-path="url(#p43d3e0855e)" d="M 250.104118 132.777716 
L 250.030087 143.649464 
L 248.942912 143.642061 
L 249.016943 132.770313 
z
" style="stroke:#000000;stroke-linejoin:miter;"/>
   </g>
   <g id="patch_4">
    <path clip-path="url(#p43d3e0855e)" d="M 213.321371 132.527244 
L 213.176365 131.974697 
L 212.736033 131.456217 
L 212.007434 131.00557 
L 211.002381 130.651987 
L 209.737263 130.418262 
L 208.232778 130.31926 
L 206.513599 130.360954 
L 204.607974 130.540044 
L 202.547256 130.84418 
L 200.365389 131.252782 
L 198.09834 131.738396 
L 195.783501 132.268502 
L 193.459064 132.807657 
L 191.163381 133.319818 
L 188.934323 133.770721 
L 186.808648 134.13013 
L 184.821382 134.373826 
L 183.005243 134.485209 
L 181.390094 134.456386 
L 180.002448 134.288704 
L 178.865038 133.992667 
L 177.996444 133.587261 
L 177.410795 133.098711 
L 177.117546 132.558777 
L 177.121333 132.002677 
L 177.421908 131.466787 
L 178.014155 130.986258 
L 178.888189 130.592718 
L 180.029526 130.312198 
L 181.419326 130.163429 
L 183.034719 130.156605 
L 184.849173 130.29271 
L 186.832935 130.563447 
L 188.953519 130.951771 
L 191.176229 131.432988 
L 193.464724 131.976365 
L 195.781603 132.547125 
L 198.089008 133.108707 
L 200.349234 133.625149 
L 202.525334 134.063426 
L 204.581719 134.395598 
L 206.484729 134.600622 
L 208.203181 134.665725 
L 209.708875 134.58722 
L 210.977058 134.370746 
L 211.986833 134.030884 
L 212.721502 133.5902 
L 213.168854 133.077765 
z
" style="fill:#0000ff;stroke:#000000;stroke-linejoin:miter;"/>
   </g>
   <g id="patch_5">
    <path clip-path="url(#p43d3e0855e)" d="M 267.680111 132.8974 
L 267.535105 132.344853 
L 267.094773 131.826373 
L 266.366173 131.375725 
L 265.361121 131.022143 
L 264.096003 130.788418 
L 262.591518 130.689416 
L 260.872339 130.73111 
L 258.966713 130.9102 
L 256.905995 131.214336 
L 254.724128 131.622938 
L 252.457079 132.108551 
L 250.14224 132.638658 
L 247.817803 133.177812 
L 245.522121 133.689974 
L 243.293063 134.140877 
L 241.167387 134.500285 
L 239.180122 134.743982 
L 237.363983 134.855365 
L 235.748833 134.826542 
L 234.361187 134.65886 
L 233.223777 134.362823 
L 232.355183 133.957417 
L 231.769535 133.468866 
L 231.476286 132.928933 
L 231.480073 132.372833 
L 231.780647 131.836943 
L 232.372895 131.356414 
L 233.246929 130.962873 
L 234.388265 130.682354 
L 235.778066 130.533585 
L 237.393459 130.52676 
L 239.207912 130.662865 
L 241.191675 130.933603 
L 243.312259 131.321927 
L 245.534969 131.803144 
L 247.823464 132.346521 
L 250.140343 132.91728 
L 252.447748 133.478862 
L 254.707974 133.995305 
L 256.884074 134.433582 
L 258.940459 134.765753 
L 260.843469 134.970778 
L 262.56192 135.035881 
L 264.067615 134.957376 
L 265.335798 134.740902 
L 266.345572 134.40104 
L 267.080242 133.960356 
L 267.527593 133.447921 
z
" style="fill:#0000ff;stroke:#000000;stroke-linejoin:miter;"/>
   </g>
   <g id="patch_6">
    <path clip-path="url(#p43d3e0855e)" d="M 254.940881 140.964841 
L 189.710394 140.520654 
L 189.673378 145.956528 
L 254.903866 146.400715 
z
" style="fill:#999999;stroke:#000000;stroke-linejoin:miter;"/>
   </g>
   <g id="text_1">
    <!-- t = 2.2 -->
    <defs>
     <path d="M 18.3125 70.21875 
L 18.3125 54.6875 
L 36.8125 54.6875 
L 36.8125 47.703125 
L 18.3125 47.703125 
L 18.3125 18.015625 
Q 18.3125 11.328125 20.140625 9.421875 
Q 21.96875 7.515625 27.59375 7.515625 
L 36.8125 7.515625 
L 36.8125 0 
L 27.59375 0 
Q 17.1875 0 13.234375 3.875 
Q 9.28125 7.765625 9.28125 18.015625 
L 9.28125 47.703125 
L 2.6875 47.703125 
L 2.6875 54.6875 
L 9.28125 54.6875 
L 9.28125 70.21875 
z
" id="DejaVuSans-116"/>
     <path id="DejaVuSans-32"/>
     <path d="M 10.59375 45.40625 
L 73.1875 45.40625 
L 73.1875 37.203125 
L 10.59375 37.203125 
z
M 10.59375 25.484375 
L 73.1875 25.484375 
L 73.1875 17.1875 
L 10.59375 17.1875 
z
" id="DejaVuSans-61"/>
     <path d="M 19.1875 8.296875 
L 53.609375 8.296875 
L 53.609375 0 
L 7.328125 0 
L 7.328125 8.296875 
Q 12.9375 14.109375 22.625 23.890625 
Q 32.328125 33.6875 34.8125 36.53125 
Q 39.546875 41.84375 41.421875 45.53125 
Q 43.3125 49.21875 43.3125 52.78125 
Q 43.3125 58.59375 39.234375 62.25 
Q 35.15625 65.921875 28.609375 65.921875 
Q 23.96875 65.921875 18.8125 64.3125 
Q 13.671875 62.703125 7.8125 59.421875 
L 7.8125 69.390625 
Q 13.765625 71.78125 18.9375 73 
Q 24.125 74.21875 28.421875 74.21875 
Q 39.75 74.21875 46.484375 68.546875 
Q 53.21875 62.890625 53.21875 53.421875 
Q 53.21875 48.921875 51.53125 44.890625 
Q 49.859375 40.875 45.40625 35.40625 
Q 44.1875 33.984375 37.640625 27.21875 
Q 31.109375 20.453125 19.1875 8.296875 
z
" id="DejaVuSans-50"/>
     <path d="M 10.6875 12.40625 
L 21 12.40625 
L 21 0 
L 10.6875 0 
z
" id="DejaVuSans-46"/>
    </defs>
    <g transform="translate(200.664375 28.56)scale(0.12 -0.12)">
     <use xlink:href="#DejaVuSans-116"/>
     <use x="39.208984" xlink:href="#DejaVuSans-32"/>
     <use x="70.996094" xlink:href="#DejaVuSans-61"/>
     <use x="154.785156" xlink:href="#DejaVuSans-32"/>
     <use x="186.572266" xlink:href="#DejaVuSans-50"/>
     <use x="250.195312" xlink:href="#DejaVuSans-46"/>
     <use x="281.982422" xlink:href="#DejaVuSans-50"/>
    </g>
   </g>
  </g>
 </g>
 <defs>
  <clipPath id="p43d3e0855e">
   <rect height="217.44" width="334.8" x="54" y="34.56"/>
  </clipPath>
 </defs>
</svg>
