<?xml version="1.0" encoding="utf-8" standalone="no"?>
<!DOCTYPE svg PUBLIC "-//W3C//DTD SVG 1.1//EN"
  "http://www.w3.org/Graphics/SVG/1.1/DTD/svg11.dtd">
<!-- Created with matplotlib (https://matplotlib.org/) -->
<svg height="288pt" version="1.1" viewBox="0 0 432 288" width="432pt" xmlns="http://www.w3.org/2000/svg" xmlns:xlink="http://www.w3.org/1999/xlink">
 <defs>
  <style type="text/css">
*{stroke-linecap:butt;stroke-linejoin:round;}
  </style>
 </defs>
 <g id="figure_1">
  <g id="patch_1">
   <path d="M 0 288 
L 432 288 
L 432 0 
L 0 0 
z
" style="fill:#ffffff;"/>
  </g>
  <g id="axes_1">
   <g id="patch_2">
    <path clip-path="url(#pa4895fdf53)" d="M 194.798979 132.393574 
L 194.790184 143.26557 
L 193.702984 143.264691 
L 193.71178 132.392694 
z
" style="stroke:#000000;stroke-linejoin:miter;"/>
   </g>
   <g id="patch_3">
    <path clip-path="url(#pa4895fdf53)" d="M 249.158961 132.437549 
L 249.150166 143.309546 
L 248.062967 143.308666 
L 248.071762 132.43667 
z
" style="stroke:#000000;stroke-linejoin:miter;"/>
   </g>
   <g id="patch_4">
    <path clip-path="url(#pa4895fdf53)" d="M 212.375373 132.407793 
L 212.227055 131.856126 
L 211.78362 131.340297 
L 211.052329 130.89403 
L 210.045173 130.546484 
L 208.778676 130.320355 
L 207.273623 130.230382 
L 205.554726 130.282391 
L 203.650209 130.472912 
L 201.591353 130.789408 
L 199.411977 131.211094 
L 197.147883 131.710303 
L 194.836266 132.25429 
L 192.515106 132.807382 
L 190.222538 133.333309 
L 187.996226 133.797579 
L 185.872746 134.169736 
L 183.886978 134.425353 
L 182.07154 134.547631 
L 180.456247 134.5285 
L 179.067619 134.369147 
L 177.928454 134.079941 
L 177.057443 133.679754 
L 176.468873 133.194726 
L 176.17239 132.656562 
L 176.17284 132.10045 
L 176.470193 131.562766 
L 177.059547 131.078691 
L 177.931204 130.679914 
L 179.070836 130.392551 
L 180.45972 130.235445 
L 182.075042 130.218928 
L 183.89028 130.344143 
L 185.875631 130.602972 
L 187.998507 130.978564 
L 190.224065 131.446436 
L 192.515779 131.976071 
L 194.836041 132.532918 
L 197.146774 133.080645 
L 199.410058 133.583516 
L 201.588749 134.008728 
L 203.64709 134.328554 
L 205.551296 134.522156 
L 207.270107 134.576946 
L 208.775303 134.489408 
L 210.042165 134.265328 
L 211.049882 133.919413 
L 211.781893 133.474329 
L 212.226162 132.959219 
z
" style="fill:#0000ff;stroke:#000000;stroke-linejoin:miter;"/>
   </g>
   <g id="patch_5">
    <path clip-path="url(#pa4895fdf53)" d="M 266.735356 132.451768 
L 266.587037 131.900101 
L 266.143602 131.384272 
L 265.412311 130.938005 
L 264.405156 130.59046 
L 263.138658 130.36433 
L 261.633606 130.274357 
L 259.914708 130.326366 
L 258.010191 130.516887 
L 255.951335 130.833383 
L 253.771959 131.255069 
L 251.507865 131.754278 
L 249.196249 132.298265 
L 246.875089 132.851357 
L 244.58252 133.377284 
L 242.356209 133.841554 
L 240.232728 134.213711 
L 238.24696 134.469328 
L 236.431523 134.591606 
L 234.816229 134.572475 
L 233.427602 134.413122 
L 232.288436 134.123916 
L 231.417425 133.723729 
L 230.828855 133.238702 
L 230.532372 132.700537 
L 230.532822 132.144425 
L 230.830176 131.606741 
L 231.419529 131.122667 
L 232.291186 130.723889 
L 233.430819 130.436526 
L 234.819702 130.27942 
L 236.435024 130.262903 
L 238.250262 130.388118 
L 240.235613 130.646947 
L 242.358489 131.022539 
L 244.584047 131.490411 
L 246.875761 132.020047 
L 249.196023 132.576893 
L 251.506756 133.12462 
L 253.77004 133.627491 
L 255.948731 134.052703 
L 258.007072 134.372529 
L 259.911278 134.566131 
L 261.630089 134.620921 
L 263.135285 134.533383 
L 264.402147 134.309303 
L 265.409864 133.963388 
L 266.141876 133.518304 
L 266.586145 133.003194 
z
" style="fill:#0000ff;stroke:#000000;stroke-linejoin:miter;"/>
   </g>
   <g id="patch_6">
    <path clip-path="url(#pa4895fdf53)" d="M 254.044763 140.595504 
L 188.812785 140.542734 
L 188.808387 145.978732 
L 254.040366 146.031502 
z
" style="fill:#999999;stroke:#000000;stroke-linejoin:miter;"/>
   </g>
   <g id="text_1">
    <!-- t = 3.2 -->
    <defs>
     <path d="M 18.3125 70.21875 
L 18.3125 54.6875 
L 36.8125 54.6875 
L 36.8125 47.703125 
L 18.3125 47.703125 
L 18.3125 18.015625 
Q 18.3125 11.328125 20.140625 9.421875 
Q 21.96875 7.515625 27.59375 7.515625 
L 36.8125 7.515625 
L 36.8125 0 
L 27.59375 0 
Q 17.1875 0 13.234375 3.875 
Q 9.28125 7.765625 9.28125 18.015625 
L 9.28125 47.703125 
L 2.6875 47.703125 
L 2.6875 54.6875 
L 9.28125 54.6875 
L 9.28125 70.21875 
z
" id="DejaVuSans-116"/>
     <path id="DejaVuSans-32"/>
     <path d="M 10.59375 45.40625 
L 73.1875 45.40625 
L 73.1875 37.203125 
L 10.59375 37.203125 
z
M 10.59375 25.484375 
L 73.1875 25.484375 
L 73.1875 17.1875 
L 10.59375 17.1875 
z
" id="DejaVuSans-61"/>
     <path d="M 40.578125 39.3125 
Q 47.65625 37.796875 51.625 33 
Q 55.609375 28.21875 55.609375 21.1875 
Q 55.609375 10.40625 48.1875 4.484375 
Q 40.765625 -1.421875 27.09375 -1.421875 
Q 22.515625 -1.421875 17.65625 -0.515625 
Q 12.796875 0.390625 7.625 2.203125 
L 7.625 11.71875 
Q 11.71875 9.328125 16.59375 8.109375 
Q 21.484375 6.890625 26.8125 6.890625 
Q 36.078125 6.890625 40.9375 10.546875 
Q 45.796875 14.203125 45.796875 21.1875 
Q 45.796875 27.640625 41.28125 31.265625 
Q 36.765625 34.90625 28.71875 34.90625 
L 20.21875 34.90625 
L 20.21875 43.015625 
L 29.109375 43.015625 
Q 36.375 43.015625 40.234375 45.921875 
Q 44.09375 48.828125 44.09375 54.296875 
Q 44.09375 59.90625 40.109375 62.90625 
Q 36.140625 65.921875 28.71875 65.921875 
Q 24.65625 65.921875 20.015625 65.03125 
Q 15.375 64.15625 9.8125 62.3125 
L 9.8125 71.09375 
Q 15.4375 72.65625 20.34375 73.4375 
Q 25.25 74.21875 29.59375 74.21875 
Q 40.828125 74.21875 47.359375 69.109375 
Q 53.90625 64.015625 53.90625 55.328125 
Q 53.90625 49.265625 50.4375 45.09375 
Q 46.96875 40.921875 40.578125 39.3125 
z
" id="DejaVuSans-51"/>
     <path d="M 10.6875 12.40625 
L 21 12.40625 
L 21 0 
L 10.6875 0 
z
" id="DejaVuSans-46"/>
     <path d="M 19.1875 8.296875 
L 53.609375 8.296875 
L 53.609375 0 
L 7.328125 0 
L 7.328125 8.296875 
Q 12.9375 14.109375 22.625 23.890625 
Q 32.328125 33.6875 34.8125 36.53125 
Q 39.546875 41.84375 41.421875 45.53125 
Q 43.3125 49.21875 43.3125 52.78125 
Q 43.3125 58.59375 39.234375 62.25 
Q 35.15625 65.921875 28.609375 65.921875 
Q 23.96875 65.921875 18.8125 64.3125 
Q 13.671875 62.703125 7.8125 59.421875 
L 7.8125 69.390625 
Q 13.765625 71.78125 18.9375 73 
Q 24.125 74.21875 28.421875 74.21875 
Q 39.75 74.21875 46.484375 68.546875 
Q 53.21875 62.890625 53.21875 53.421875 
Q 53.21875 48.921875 51.53125 44.890625 
Q 49.859375 40.875 45.40625 35.40625 
Q 44.1875 33.984375 37.640625 27.21875 
Q 31.109375 20.453125 19.1875 8.296875 
z
" id="DejaVuSans-50"/>
    </defs>
    <g transform="translate(200.664375 28.56)scale(0.12 -0.12)">
     <use xlink:href="#DejaVuSans-116"/>
     <use x="39.208984" xlink:href="#DejaVuSans-32"/>
     <use x="70.996094" xlink:href="#DejaVuSans-61"/>
     <use x="154.785156" xlink:href="#DejaVuSans-32"/>
     <use x="186.572266" xlink:href="#DejaVuSans-51"/>
     <use x="250.195312" xlink:href="#DejaVuSans-46"/>
     <use x="281.982422" xlink:href="#DejaVuSans-50"/>
    </g>
   </g>
  </g>
 </g>
 <defs>
  <clipPath id="pa4895fdf53">
   <rect height="217.44" width="334.8" x="54" y="34.56"/>
  </clipPath>
 </defs>
</svg>
