<?xml version="1.0" encoding="utf-8" standalone="no"?>
<!DOCTYPE svg PUBLIC "-//W3C//DTD SVG 1.1//EN"
  "http://www.w3.org/Graphics/SVG/1.1/DTD/svg11.dtd">
<!-- Created with matplotlib (https://matplotlib.org/) -->
<svg height="288pt" version="1.1" viewBox="0 0 432 288" width="432pt" xmlns="http://www.w3.org/2000/svg" xmlns:xlink="http://www.w3.org/1999/xlink">
 <defs>
  <style type="text/css">
*{stroke-linecap:butt;stroke-linejoin:round;}
  </style>
 </defs>
 <g id="figure_1">
  <g id="patch_1">
   <path d="M 0 288 
L 432 288 
L 432 0 
L 0 0 
z
" style="fill:#ffffff;"/>
  </g>
  <g id="axes_1">
   <g id="patch_2">
    <path clip-path="url(#pebc2442d5c)" d="M 194.747219 132.414829 
L 194.749904 143.286829 
L 193.662704 143.287097 
L 193.660019 132.415098 
z
" style="stroke:#000000;stroke-linejoin:miter;"/>
   </g>
   <g id="patch_3">
    <path clip-path="url(#pebc2442d5c)" d="M 249.107218 132.401405 
L 249.109902 143.273405 
L 248.022702 143.273674 
L 248.020018 132.401674 
z
" style="stroke:#000000;stroke-linejoin:miter;"/>
   </g>
   <g id="patch_4">
    <path clip-path="url(#pebc2442d5c)" d="M 212.323619 132.410489 
L 212.174718 131.858979 
L 211.730738 131.343619 
L 210.998977 130.898124 
L 209.991455 130.551642 
L 208.724719 130.32685 
L 207.219572 130.238466 
L 205.500731 130.29229 
L 203.596416 130.484822 
L 201.537896 130.803492 
L 199.358966 131.227479 
L 197.0954 131.729078 
L 194.784359 132.275506 
L 192.463785 132.831048 
L 190.171773 133.359396 
L 187.945953 133.826017 
L 185.822866 134.200416 
L 183.83737 134.458129 
L 182.022062 134.582324 
L 180.406749 134.564899 
L 179.017954 134.407012 
L 177.878484 134.119009 
L 177.007051 133.719742 
L 176.417969 133.235336 
L 176.120918 132.697485 
L 176.120781 132.141373 
L 176.417566 131.603375 
L 177.006409 131.118679 
L 177.877644 130.718981 
L 179.016972 130.430415 
L 180.405689 130.271843 
L 182.020993 130.25362 
L 183.836362 130.376918 
L 185.821985 130.633651 
L 187.945257 131.007001 
L 190.171307 131.472522 
L 192.463579 131.999738 
L 194.784428 132.554134 
L 197.095739 133.099421 
L 199.359552 133.599901 
L 201.538691 134.022813 
L 203.597368 134.340465 
L 205.501778 134.532057 
L 207.220646 134.585032 
L 208.725748 134.495905 
L 209.992373 134.270487 
L 210.999724 133.923508 
L 211.731265 133.477651 
L 212.17499 132.962072 
z
" style="fill:#0000ff;stroke:#000000;stroke-linejoin:miter;"/>
   </g>
   <g id="patch_5">
    <path clip-path="url(#pebc2442d5c)" d="M 266.683617 132.397065 
L 266.534716 131.845555 
L 266.090737 131.330195 
L 265.358975 130.8847 
L 264.351453 130.538218 
L 263.084717 130.313426 
L 261.579571 130.225043 
L 259.860729 130.278867 
L 257.956415 130.471399 
L 255.897894 130.790068 
L 253.718964 131.214055 
L 251.455398 131.715654 
L 249.144358 132.262082 
L 246.823783 132.817625 
L 244.531771 133.345972 
L 242.305951 133.812593 
L 240.182864 134.186992 
L 238.197368 134.444705 
L 236.38206 134.5689 
L 234.766747 134.551475 
L 233.377953 134.393588 
L 232.238482 134.105585 
L 231.367049 133.706318 
L 230.777968 133.221912 
L 230.480916 132.684061 
L 230.480779 132.127949 
L 230.777565 131.589951 
L 231.366407 131.105255 
L 232.237642 130.705557 
L 233.376971 130.416991 
L 234.765687 130.258419 
L 236.380991 130.240196 
L 238.19636 130.363494 
L 240.181984 130.620227 
L 242.305255 130.993577 
L 244.531305 131.459099 
L 246.823578 131.986314 
L 249.144427 132.54071 
L 251.455737 133.085997 
L 253.71955 133.586478 
L 255.898689 134.009389 
L 257.957367 134.327041 
L 259.861776 134.518633 
L 261.580644 134.571608 
L 263.085747 134.482481 
L 264.352371 134.257063 
L 265.359722 133.910084 
L 266.091264 133.464228 
L 266.534988 132.948648 
z
" style="fill:#0000ff;stroke:#000000;stroke-linejoin:miter;"/>
   </g>
   <g id="patch_6">
    <path clip-path="url(#pebc2442d5c)" d="M 254.001631 140.554197 
L 188.769633 140.570306 
L 188.770975 146.006305 
L 254.002973 145.990197 
z
" style="fill:#999999;stroke:#000000;stroke-linejoin:miter;"/>
   </g>
   <g id="text_1">
    <!-- t = 3.6 -->
    <defs>
     <path d="M 18.3125 70.21875 
L 18.3125 54.6875 
L 36.8125 54.6875 
L 36.8125 47.703125 
L 18.3125 47.703125 
L 18.3125 18.015625 
Q 18.3125 11.328125 20.140625 9.421875 
Q 21.96875 7.515625 27.59375 7.515625 
L 36.8125 7.515625 
L 36.8125 0 
L 27.59375 0 
Q 17.1875 0 13.234375 3.875 
Q 9.28125 7.765625 9.28125 18.015625 
L 9.28125 47.703125 
L 2.6875 47.703125 
L 2.6875 54.6875 
L 9.28125 54.6875 
L 9.28125 70.21875 
z
" id="DejaVuSans-116"/>
     <path id="DejaVuSans-32"/>
     <path d="M 10.59375 45.40625 
L 73.1875 45.40625 
L 73.1875 37.203125 
L 10.59375 37.203125 
z
M 10.59375 25.484375 
L 73.1875 25.484375 
L 73.1875 17.1875 
L 10.59375 17.1875 
z
" id="DejaVuSans-61"/>
     <path d="M 40.578125 39.3125 
Q 47.65625 37.796875 51.625 33 
Q 55.609375 28.21875 55.609375 21.1875 
Q 55.609375 10.40625 48.1875 4.484375 
Q 40.765625 -1.421875 27.09375 -1.421875 
Q 22.515625 -1.421875 17.65625 -0.515625 
Q 12.796875 0.390625 7.625 2.203125 
L 7.625 11.71875 
Q 11.71875 9.328125 16.59375 8.109375 
Q 21.484375 6.890625 26.8125 6.890625 
Q 36.078125 6.890625 40.9375 10.546875 
Q 45.796875 14.203125 45.796875 21.1875 
Q 45.796875 27.640625 41.28125 31.265625 
Q 36.765625 34.90625 28.71875 34.90625 
L 20.21875 34.90625 
L 20.21875 43.015625 
L 29.109375 43.015625 
Q 36.375 43.015625 40.234375 45.921875 
Q 44.09375 48.828125 44.09375 54.296875 
Q 44.09375 59.90625 40.109375 62.90625 
Q 36.140625 65.921875 28.71875 65.921875 
Q 24.65625 65.921875 20.015625 65.03125 
Q 15.375 64.15625 9.8125 62.3125 
L 9.8125 71.09375 
Q 15.4375 72.65625 20.34375 73.4375 
Q 25.25 74.21875 29.59375 74.21875 
Q 40.828125 74.21875 47.359375 69.109375 
Q 53.90625 64.015625 53.90625 55.328125 
Q 53.90625 49.265625 50.4375 45.09375 
Q 46.96875 40.921875 40.578125 39.3125 
z
" id="DejaVuSans-51"/>
     <path d="M 10.6875 12.40625 
L 21 12.40625 
L 21 0 
L 10.6875 0 
z
" id="DejaVuSans-46"/>
     <path d="M 33.015625 40.375 
Q 26.375 40.375 22.484375 35.828125 
Q 18.609375 31.296875 18.609375 23.390625 
Q 18.609375 15.53125 22.484375 10.953125 
Q 26.375 6.390625 33.015625 6.390625 
Q 39.65625 6.390625 43.53125 10.953125 
Q 47.40625 15.53125 47.40625 23.390625 
Q 47.40625 31.296875 43.53125 35.828125 
Q 39.65625 40.375 33.015625 40.375 
z
M 52.59375 71.296875 
L 52.59375 62.3125 
Q 48.875 64.0625 45.09375 64.984375 
Q 41.3125 65.921875 37.59375 65.921875 
Q 27.828125 65.921875 22.671875 59.328125 
Q 17.53125 52.734375 16.796875 39.40625 
Q 19.671875 43.65625 24.015625 45.921875 
Q 28.375 48.1875 33.59375 48.1875 
Q 44.578125 48.1875 50.953125 41.515625 
Q 57.328125 34.859375 57.328125 23.390625 
Q 57.328125 12.15625 50.6875 5.359375 
Q 44.046875 -1.421875 33.015625 -1.421875 
Q 20.359375 -1.421875 13.671875 8.265625 
Q 6.984375 17.96875 6.984375 36.375 
Q 6.984375 53.65625 15.1875 63.9375 
Q 23.390625 74.21875 37.203125 74.21875 
Q 40.921875 74.21875 44.703125 73.484375 
Q 48.484375 72.75 52.59375 71.296875 
z
" id="DejaVuSans-54"/>
    </defs>
    <g transform="translate(200.664375 28.56)scale(0.12 -0.12)">
     <use xlink:href="#DejaVuSans-116"/>
     <use x="39.208984" xlink:href="#DejaVuSans-32"/>
     <use x="70.996094" xlink:href="#DejaVuSans-61"/>
     <use x="154.785156" xlink:href="#DejaVuSans-32"/>
     <use x="186.572266" xlink:href="#DejaVuSans-51"/>
     <use x="250.195312" xlink:href="#DejaVuSans-46"/>
     <use x="281.982422" xlink:href="#DejaVuSans-54"/>
    </g>
   </g>
  </g>
 </g>
 <defs>
  <clipPath id="pebc2442d5c">
   <rect height="217.44" width="334.8" x="54" y="34.56"/>
  </clipPath>
 </defs>
</svg>
