<?xml version="1.0" encoding="utf-8" standalone="no"?>
<!DOCTYPE svg PUBLIC "-//W3C//DTD SVG 1.1//EN"
  "http://www.w3.org/Graphics/SVG/1.1/DTD/svg11.dtd">
<!-- Created with matplotlib (https://matplotlib.org/) -->
<svg height="288pt" version="1.1" viewBox="0 0 432 288" width="432pt" xmlns="http://www.w3.org/2000/svg" xmlns:xlink="http://www.w3.org/1999/xlink">
 <defs>
  <style type="text/css">
*{stroke-linecap:butt;stroke-linejoin:round;}
  </style>
 </defs>
 <g id="figure_1">
  <g id="patch_1">
   <path d="M 0 288 
L 432 288 
L 432 0 
L 0 0 
z
" style="fill:#ffffff;"/>
  </g>
  <g id="axes_1">
   <g id="patch_2">
    <path clip-path="url(#p89354250c5)" d="M 194.756568 132.408819 
L 194.75842 143.280819 
L 193.67122 143.281004 
L 193.669368 132.409004 
z
" style="stroke:#000000;stroke-linejoin:miter;"/>
   </g>
   <g id="patch_3">
    <path clip-path="url(#p89354250c5)" d="M 249.116567 132.399559 
L 249.118419 143.271558 
L 248.031219 143.271744 
L 248.029367 132.399744 
z
" style="stroke:#000000;stroke-linejoin:miter;"/>
   </g>
   <g id="patch_4">
    <path clip-path="url(#p89354250c5)" d="M 212.332968 132.405825 
L 212.184109 131.854304 
L 211.740169 131.33891 
L 211.008442 130.893358 
L 210.000946 130.5468 
L 208.734227 130.32191 
L 207.229088 130.233411 
L 205.510242 130.287104 
L 203.605913 130.47949 
L 201.547368 130.798002 
L 199.368406 131.221822 
L 197.104801 131.723248 
L 194.793719 132.269498 
L 192.473102 132.824863 
L 190.181049 133.353035 
L 187.955193 133.819486 
L 185.832078 134.193722 
L 183.846562 134.451283 
L 182.031245 134.575339 
L 180.415933 134.55779 
L 179.02715 134.399797 
L 177.887702 134.111707 
L 177.0163 133.712373 
L 176.427255 133.227922 
L 176.130245 132.690048 
L 176.13015 132.133936 
L 176.426977 131.595961 
L 177.015857 131.11131 
L 177.887123 130.711678 
L 179.026473 130.4232 
L 180.415202 130.264734 
L 182.030507 130.246635 
L 183.845867 130.370072 
L 185.83147 130.626957 
L 187.954713 131.00047 
L 190.180728 131.466162 
L 192.47296 131.993553 
L 194.793766 132.548127 
L 197.105035 133.09359 
L 199.36881 133.594244 
L 201.547916 134.017323 
L 203.60657 134.335133 
L 205.510964 134.52687 
L 207.229828 134.579977 
L 208.734938 134.490965 
L 210.001579 134.265644 
L 211.008957 133.918743 
L 211.740532 133.472942 
L 212.184297 132.957397 
z
" style="fill:#0000ff;stroke:#000000;stroke-linejoin:miter;"/>
   </g>
   <g id="patch_5">
    <path clip-path="url(#p89354250c5)" d="M 266.692967 132.396564 
L 266.544108 131.845043 
L 266.100168 131.329649 
L 265.368441 130.884098 
L 264.360945 130.537539 
L 263.094227 130.31265 
L 261.589087 130.224151 
L 259.870241 130.277843 
L 257.965912 130.47023 
L 255.907367 130.788741 
L 253.728405 131.212562 
L 251.464801 131.713987 
L 249.153718 132.260238 
L 246.833101 132.815603 
L 244.541049 133.343775 
L 242.315193 133.810225 
L 240.192077 134.184462 
L 238.206561 134.442023 
L 236.391244 134.566079 
L 234.775932 134.54853 
L 233.38715 134.390537 
L 232.247701 134.102447 
L 231.376299 133.703112 
L 230.787255 133.218662 
L 230.490244 132.680788 
L 230.49015 132.124676 
L 230.786977 131.586701 
L 231.375856 131.102049 
L 232.247122 130.702418 
L 233.386472 130.413939 
L 234.775201 130.255474 
L 236.390507 130.237374 
L 238.205866 130.360812 
L 240.19147 130.617696 
L 242.314712 130.99121 
L 244.540727 131.456901 
L 246.832959 131.984292 
L 249.153766 132.538867 
L 251.465034 133.08433 
L 253.728809 133.584984 
L 255.907915 134.008062 
L 257.966569 134.325873 
L 259.870963 134.51761 
L 261.589827 134.570717 
L 263.094937 134.481705 
L 264.361579 134.256384 
L 265.368956 133.909482 
L 266.100532 133.463682 
L 266.544296 132.948136 
z
" style="fill:#0000ff;stroke:#000000;stroke-linejoin:miter;"/>
   </g>
   <g id="patch_6">
    <path clip-path="url(#p89354250c5)" d="M 254.010356 140.552725 
L 188.778357 140.563838 
L 188.779283 145.999837 
L 254.011282 145.988725 
z
" style="fill:#999999;stroke:#000000;stroke-linejoin:miter;"/>
   </g>
   <g id="text_1">
    <!-- t = 2.9 -->
    <defs>
     <path d="M 18.3125 70.21875 
L 18.3125 54.6875 
L 36.8125 54.6875 
L 36.8125 47.703125 
L 18.3125 47.703125 
L 18.3125 18.015625 
Q 18.3125 11.328125 20.140625 9.421875 
Q 21.96875 7.515625 27.59375 7.515625 
L 36.8125 7.515625 
L 36.8125 0 
L 27.59375 0 
Q 17.1875 0 13.234375 3.875 
Q 9.28125 7.765625 9.28125 18.015625 
L 9.28125 47.703125 
L 2.6875 47.703125 
L 2.6875 54.6875 
L 9.28125 54.6875 
L 9.28125 70.21875 
z
" id="DejaVuSans-116"/>
     <path id="DejaVuSans-32"/>
     <path d="M 10.59375 45.40625 
L 73.1875 45.40625 
L 73.1875 37.203125 
L 10.59375 37.203125 
z
M 10.59375 25.484375 
L 73.1875 25.484375 
L 73.1875 17.1875 
L 10.59375 17.1875 
z
" id="DejaVuSans-61"/>
     <path d="M 19.1875 8.296875 
L 53.609375 8.296875 
L 53.609375 0 
L 7.328125 0 
L 7.328125 8.296875 
Q 12.9375 14.109375 22.625 23.890625 
Q 32.328125 33.6875 34.8125 36.53125 
Q 39.546875 41.84375 41.421875 45.53125 
Q 43.3125 49.21875 43.3125 52.78125 
Q 43.3125 58.59375 39.234375 62.25 
Q 35.15625 65.921875 28.609375 65.921875 
Q 23.96875 65.921875 18.8125 64.3125 
Q 13.671875 62.703125 7.8125 59.421875 
L 7.8125 69.390625 
Q 13.765625 71.78125 18.9375 73 
Q 24.125 74.21875 28.421875 74.21875 
Q 39.75 74.21875 46.484375 68.546875 
Q 53.21875 62.890625 53.21875 53.421875 
Q 53.21875 48.921875 51.53125 44.890625 
Q 49.859375 40.875 45.40625 35.40625 
Q 44.1875 33.984375 37.640625 27.21875 
Q 31.109375 20.453125 19.1875 8.296875 
z
" id="DejaVuSans-50"/>
     <path d="M 10.6875 12.40625 
L 21 12.40625 
L 21 0 
L 10.6875 0 
z
" id="DejaVuSans-46"/>
     <path d="M 10.984375 1.515625 
L 10.984375 10.5 
Q 14.703125 8.734375 18.5 7.8125 
Q 22.3125 6.890625 25.984375 6.890625 
Q 35.75 6.890625 40.890625 13.453125 
Q 46.046875 20.015625 46.78125 33.40625 
Q 43.953125 29.203125 39.59375 26.953125 
Q 35.25 24.703125 29.984375 24.703125 
Q 19.046875 24.703125 12.671875 31.3125 
Q 6.296875 37.9375 6.296875 49.421875 
Q 6.296875 60.640625 12.9375 67.421875 
Q 19.578125 74.21875 30.609375 74.21875 
Q 43.265625 74.21875 49.921875 64.515625 
Q 56.59375 54.828125 56.59375 36.375 
Q 56.59375 19.140625 48.40625 8.859375 
Q 40.234375 -1.421875 26.421875 -1.421875 
Q 22.703125 -1.421875 18.890625 -0.6875 
Q 15.09375 0.046875 10.984375 1.515625 
z
M 30.609375 32.421875 
Q 37.25 32.421875 41.125 36.953125 
Q 45.015625 41.5 45.015625 49.421875 
Q 45.015625 57.28125 41.125 61.84375 
Q 37.25 66.40625 30.609375 66.40625 
Q 23.96875 66.40625 20.09375 61.84375 
Q 16.21875 57.28125 16.21875 49.421875 
Q 16.21875 41.5 20.09375 36.953125 
Q 23.96875 32.421875 30.609375 32.421875 
z
" id="DejaVuSans-57"/>
    </defs>
    <g transform="translate(200.664375 28.56)scale(0.12 -0.12)">
     <use xlink:href="#DejaVuSans-116"/>
     <use x="39.208984" xlink:href="#DejaVuSans-32"/>
     <use x="70.996094" xlink:href="#DejaVuSans-61"/>
     <use x="154.785156" xlink:href="#DejaVuSans-32"/>
     <use x="186.572266" xlink:href="#DejaVuSans-50"/>
     <use x="250.195312" xlink:href="#DejaVuSans-46"/>
     <use x="281.982422" xlink:href="#DejaVuSans-57"/>
    </g>
   </g>
  </g>
 </g>
 <defs>
  <clipPath id="p89354250c5">
   <rect height="217.44" width="334.8" x="54" y="34.56"/>
  </clipPath>
 </defs>
</svg>
