<?xml version="1.0" encoding="utf-8" standalone="no"?>
<!DOCTYPE svg PUBLIC "-//W3C//DTD SVG 1.1//EN"
  "http://www.w3.org/Graphics/SVG/1.1/DTD/svg11.dtd">
<!-- Created with matplotlib (https://matplotlib.org/) -->
<svg height="288pt" version="1.1" viewBox="0 0 432 288" width="432pt" xmlns="http://www.w3.org/2000/svg" xmlns:xlink="http://www.w3.org/1999/xlink">
 <defs>
  <style type="text/css">
*{stroke-linecap:butt;stroke-linejoin:round;}
  </style>
 </defs>
 <g id="figure_1">
  <g id="patch_1">
   <path d="M 0 288 
L 432 288 
L 432 0 
L 0 0 
z
" style="fill:#ffffff;"/>
  </g>
  <g id="axes_1">
   <g id="patch_2">
    <path clip-path="url(#p69a1e56444)" d="M 194.747684 132.411399 
L 194.749361 143.283399 
L 193.662161 143.283567 
L 193.660484 132.411567 
z
" style="stroke:#000000;stroke-linejoin:miter;"/>
   </g>
   <g id="patch_3">
    <path clip-path="url(#p69a1e56444)" d="M 249.107683 132.403013 
L 249.109361 143.275013 
L 248.022161 143.275181 
L 248.020483 132.403181 
z
" style="stroke:#000000;stroke-linejoin:miter;"/>
   </g>
   <g id="patch_4">
    <path clip-path="url(#p69a1e56444)" d="M 212.324084 132.408688 
L 212.175234 131.857164 
L 211.731302 131.341763 
L 210.999582 130.8962 
L 209.992092 130.549625 
L 208.725377 130.324715 
L 207.220239 130.236192 
L 205.501392 130.289857 
L 203.59706 130.482212 
L 201.53851 130.800691 
L 199.359541 131.224477 
L 197.095928 131.725866 
L 194.784837 132.272079 
L 192.464211 132.827407 
L 190.17215 133.355542 
L 187.946287 133.821956 
L 185.823165 134.196158 
L 183.837645 134.453688 
L 182.022326 134.577714 
L 180.407015 134.560139 
L 179.018235 134.402124 
L 177.878791 134.114016 
L 177.007395 133.714667 
L 176.418358 133.230207 
L 176.121357 132.692329 
L 176.121271 132.136216 
L 176.418107 131.598246 
L 177.006994 131.113604 
L 177.878266 130.713987 
L 179.017621 130.425527 
L 180.406352 130.267083 
L 182.021658 130.24901 
L 183.837016 130.372476 
L 185.822615 130.629393 
L 187.945852 131.002941 
L 190.171859 131.468668 
L 192.464083 131.996096 
L 194.78488 132.550708 
L 197.09614 133.096208 
L 199.359907 133.596899 
L 201.539007 134.020012 
L 203.597655 134.337855 
L 205.502046 134.529623 
L 207.220909 134.582758 
L 208.72602 134.49377 
L 209.992666 134.26847 
L 211.000049 133.921584 
L 211.731631 133.475795 
L 212.175404 132.960257 
z
" style="fill:#0000ff;stroke:#000000;stroke-linejoin:miter;"/>
   </g>
   <g id="patch_5">
    <path clip-path="url(#p69a1e56444)" d="M 266.684083 132.400302 
L 266.535233 131.848779 
L 266.091302 131.333377 
L 265.359582 130.887814 
L 264.352091 130.541239 
L 263.085377 130.31633 
L 261.580238 130.227807 
L 259.861392 130.281471 
L 257.957059 130.473827 
L 255.898509 130.792305 
L 253.71954 131.216091 
L 251.455928 131.71748 
L 249.144837 132.263693 
L 246.82421 132.819021 
L 244.53215 133.347156 
L 242.306286 133.81357 
L 240.183165 134.187773 
L 238.197644 134.445302 
L 236.382325 134.569329 
L 234.767014 134.551754 
L 233.378234 134.393739 
L 232.23879 134.10563 
L 231.367394 133.706282 
L 230.778358 133.221822 
L 230.481356 132.683943 
L 230.48127 132.127831 
L 230.778106 131.58986 
L 231.366993 131.105219 
L 232.238266 130.705601 
L 233.37762 130.417141 
L 234.766352 130.258698 
L 236.381658 130.240624 
L 238.197015 130.364091 
L 240.182615 130.621008 
L 242.305851 130.994555 
L 244.531859 131.460283 
L 246.824082 131.98771 
L 249.14488 132.542322 
L 251.456139 133.087823 
L 253.719906 133.588513 
L 255.899006 134.011626 
L 257.957654 134.32947 
L 259.862046 134.521238 
L 261.580909 134.574372 
L 263.08602 134.485385 
L 264.352665 134.260084 
L 265.360048 133.913199 
L 266.091631 133.46741 
L 266.535403 132.951872 
z
" style="fill:#0000ff;stroke:#000000;stroke-linejoin:miter;"/>
   </g>
   <g id="patch_6">
    <path clip-path="url(#p69a1e56444)" d="M 254.001341 140.556259 
L 188.769342 140.566321 
L 188.770181 146.002321 
L 254.00218 145.992259 
z
" style="fill:#999999;stroke:#000000;stroke-linejoin:miter;"/>
   </g>
   <g id="text_1">
    <!-- t = 3.2 -->
    <defs>
     <path d="M 18.3125 70.21875 
L 18.3125 54.6875 
L 36.8125 54.6875 
L 36.8125 47.703125 
L 18.3125 47.703125 
L 18.3125 18.015625 
Q 18.3125 11.328125 20.140625 9.421875 
Q 21.96875 7.515625 27.59375 7.515625 
L 36.8125 7.515625 
L 36.8125 0 
L 27.59375 0 
Q 17.1875 0 13.234375 3.875 
Q 9.28125 7.765625 9.28125 18.015625 
L 9.28125 47.703125 
L 2.6875 47.703125 
L 2.6875 54.6875 
L 9.28125 54.6875 
L 9.28125 70.21875 
z
" id="DejaVuSans-116"/>
     <path id="DejaVuSans-32"/>
     <path d="M 10.59375 45.40625 
L 73.1875 45.40625 
L 73.1875 37.203125 
L 10.59375 37.203125 
z
M 10.59375 25.484375 
L 73.1875 25.484375 
L 73.1875 17.1875 
L 10.59375 17.1875 
z
" id="DejaVuSans-61"/>
     <path d="M 40.578125 39.3125 
Q 47.65625 37.796875 51.625 33 
Q 55.609375 28.21875 55.609375 21.1875 
Q 55.609375 10.40625 48.1875 4.484375 
Q 40.765625 -1.421875 27.09375 -1.421875 
Q 22.515625 -1.421875 17.65625 -0.515625 
Q 12.796875 0.390625 7.625 2.203125 
L 7.625 11.71875 
Q 11.71875 9.328125 16.59375 8.109375 
Q 21.484375 6.890625 26.8125 6.890625 
Q 36.078125 6.890625 40.9375 10.546875 
Q 45.796875 14.203125 45.796875 21.1875 
Q 45.796875 27.640625 41.28125 31.265625 
Q 36.765625 34.90625 28.71875 34.90625 
L 20.21875 34.90625 
L 20.21875 43.015625 
L 29.109375 43.015625 
Q 36.375 43.015625 40.234375 45.921875 
Q 44.09375 48.828125 44.09375 54.296875 
Q 44.09375 59.90625 40.109375 62.90625 
Q 36.140625 65.921875 28.71875 65.921875 
Q 24.65625 65.921875 20.015625 65.03125 
Q 15.375 64.15625 9.8125 62.3125 
L 9.8125 71.09375 
Q 15.4375 72.65625 20.34375 73.4375 
Q 25.25 74.21875 29.59375 74.21875 
Q 40.828125 74.21875 47.359375 69.109375 
Q 53.90625 64.015625 53.90625 55.328125 
Q 53.90625 49.265625 50.4375 45.09375 
Q 46.96875 40.921875 40.578125 39.3125 
z
" id="DejaVuSans-51"/>
     <path d="M 10.6875 12.40625 
L 21 12.40625 
L 21 0 
L 10.6875 0 
z
" id="DejaVuSans-46"/>
     <path d="M 19.1875 8.296875 
L 53.609375 8.296875 
L 53.609375 0 
L 7.328125 0 
L 7.328125 8.296875 
Q 12.9375 14.109375 22.625 23.890625 
Q 32.328125 33.6875 34.8125 36.53125 
Q 39.546875 41.84375 41.421875 45.53125 
Q 43.3125 49.21875 43.3125 52.78125 
Q 43.3125 58.59375 39.234375 62.25 
Q 35.15625 65.921875 28.609375 65.921875 
Q 23.96875 65.921875 18.8125 64.3125 
Q 13.671875 62.703125 7.8125 59.421875 
L 7.8125 69.390625 
Q 13.765625 71.78125 18.9375 73 
Q 24.125 74.21875 28.421875 74.21875 
Q 39.75 74.21875 46.484375 68.546875 
Q 53.21875 62.890625 53.21875 53.421875 
Q 53.21875 48.921875 51.53125 44.890625 
Q 49.859375 40.875 45.40625 35.40625 
Q 44.1875 33.984375 37.640625 27.21875 
Q 31.109375 20.453125 19.1875 8.296875 
z
" id="DejaVuSans-50"/>
    </defs>
    <g transform="translate(200.664375 28.56)scale(0.12 -0.12)">
     <use xlink:href="#DejaVuSans-116"/>
     <use x="39.208984" xlink:href="#DejaVuSans-32"/>
     <use x="70.996094" xlink:href="#DejaVuSans-61"/>
     <use x="154.785156" xlink:href="#DejaVuSans-32"/>
     <use x="186.572266" xlink:href="#DejaVuSans-51"/>
     <use x="250.195312" xlink:href="#DejaVuSans-46"/>
     <use x="281.982422" xlink:href="#DejaVuSans-50"/>
    </g>
   </g>
  </g>
 </g>
 <defs>
  <clipPath id="p69a1e56444">
   <rect height="217.44" width="334.8" x="54" y="34.56"/>
  </clipPath>
 </defs>
</svg>
