<?xml version="1.0" encoding="utf-8" standalone="no"?>
<!DOCTYPE svg PUBLIC "-//W3C//DTD SVG 1.1//EN"
  "http://www.w3.org/Graphics/SVG/1.1/DTD/svg11.dtd">
<!-- Created with matplotlib (https://matplotlib.org/) -->
<svg height="288pt" version="1.1" viewBox="0 0 432 288" width="432pt" xmlns="http://www.w3.org/2000/svg" xmlns:xlink="http://www.w3.org/1999/xlink">
 <defs>
  <style type="text/css">
*{stroke-linecap:butt;stroke-linejoin:round;}
  </style>
 </defs>
 <g id="figure_1">
  <g id="patch_1">
   <path d="M 0 288 
L 432 288 
L 432 0 
L 0 0 
z
" style="fill:#ffffff;"/>
  </g>
  <g id="axes_1">
   <g id="patch_2">
    <path clip-path="url(#p0ca0d3841e)" d="M 221.478007 125.370883 
L 219.67758 136.092769 
L 218.605392 135.912727 
L 220.405818 125.19084 
z
" style="stroke:#000000;stroke-linejoin:miter;"/>
   </g>
   <g id="patch_3">
    <path clip-path="url(#p0ca0d3841e)" d="M 275.087439 134.373017 
L 273.287012 145.094904 
L 272.214823 144.914861 
L 274.01525 134.192975 
z
" style="stroke:#000000;stroke-linejoin:miter;"/>
   </g>
   <g id="patch_4">
    <path clip-path="url(#p0ca0d3841e)" d="M 238.811723 128.281573 
L 238.75635 127.713006 
L 238.403989 127.131151 
L 237.756245 126.570466 
L 236.820137 126.061689 
L 235.608225 125.629927 
L 234.13858 125.293145 
L 232.434615 125.061162 
L 230.524741 124.935205 
L 228.441878 124.908064 
L 226.222806 124.964814 
L 223.907398 125.084064 
L 221.537739 125.239649 
L 219.157166 125.402641 
L 216.809271 125.543551 
L 214.536887 125.634567 
L 212.381109 125.651677 
L 210.380368 125.576535 
L 208.569602 125.397949 
L 206.979548 125.112872 
L 205.63617 124.726847 
L 204.560244 124.253856 
L 203.767095 123.715594 
L 203.266508 123.1402 
L 203.062771 122.560533 
L 203.154864 122.012099 
L 203.536765 121.530772 
L 204.197837 121.150445 
L 205.123296 120.900773 
L 206.294704 120.805156 
L 207.690487 120.879092 
L 209.286445 121.129012 
L 211.056225 121.551674 
L 212.971773 122.134159 
L 215.003722 122.854475 
L 217.121741 123.68273 
L 219.294833 124.582808 
L 221.491598 125.51443 
L 223.680467 126.435486 
L 225.829928 127.30448 
L 227.908751 128.082935 
L 229.886238 128.737612 
L 231.7325 129.242388 
L 233.418779 129.579696 
L 234.91782 129.741418 
L 236.204289 129.729186 
L 237.255234 129.554077 
L 238.050588 129.235718 
L 238.573675 128.800869 
z
" style="fill:#0000ff;stroke:#000000;stroke-linejoin:miter;"/>
   </g>
   <g id="patch_5">
    <path clip-path="url(#p0ca0d3841e)" d="M 292.421155 137.283707 
L 292.365782 136.715141 
L 292.013421 136.133285 
L 291.365677 135.5726 
L 290.429569 135.063823 
L 289.217656 134.632061 
L 287.748012 134.29528 
L 286.044046 134.063296 
L 284.134173 133.937339 
L 282.051309 133.910199 
L 279.832238 133.966949 
L 277.51683 134.086198 
L 275.147171 134.241783 
L 272.766598 134.404775 
L 270.418702 134.545685 
L 268.146319 134.636701 
L 265.990541 134.653811 
L 263.989799 134.578669 
L 262.179033 134.400083 
L 260.58898 134.115007 
L 259.245602 133.728981 
L 258.169675 133.25599 
L 257.376527 132.717728 
L 256.87594 132.142334 
L 256.672203 131.562667 
L 256.764296 131.014233 
L 257.146196 130.532906 
L 257.807269 130.152579 
L 258.732728 129.902907 
L 259.904135 129.80729 
L 261.299919 129.881226 
L 262.895876 130.131147 
L 264.665657 130.553809 
L 266.581205 131.136293 
L 268.613154 131.856609 
L 270.731173 132.684865 
L 272.904265 133.584942 
L 275.101029 134.516564 
L 277.289899 135.43762 
L 279.439359 136.306614 
L 281.518183 137.085069 
L 283.49567 137.739746 
L 285.341932 138.244522 
L 287.028211 138.581831 
L 288.527252 138.743553 
L 289.81372 138.731321 
L 290.864666 138.556212 
L 291.66002 138.237852 
L 292.183107 137.803003 
z
" style="fill:#0000ff;stroke:#000000;stroke-linejoin:miter;"/>
   </g>
   <g id="patch_6">
    <path clip-path="url(#p0ca0d3841e)" d="M 278.561968 143.224624 
L 214.230649 132.422063 
L 213.330436 137.783006 
L 277.661754 148.585567 
z
" style="fill:#999999;stroke:#000000;stroke-linejoin:miter;"/>
   </g>
   <g id="text_1">
    <!-- t = 1.1 -->
    <defs>
     <path d="M 18.3125 70.21875 
L 18.3125 54.6875 
L 36.8125 54.6875 
L 36.8125 47.703125 
L 18.3125 47.703125 
L 18.3125 18.015625 
Q 18.3125 11.328125 20.140625 9.421875 
Q 21.96875 7.515625 27.59375 7.515625 
L 36.8125 7.515625 
L 36.8125 0 
L 27.59375 0 
Q 17.1875 0 13.234375 3.875 
Q 9.28125 7.765625 9.28125 18.015625 
L 9.28125 47.703125 
L 2.6875 47.703125 
L 2.6875 54.6875 
L 9.28125 54.6875 
L 9.28125 70.21875 
z
" id="DejaVuSans-116"/>
     <path id="DejaVuSans-32"/>
     <path d="M 10.59375 45.40625 
L 73.1875 45.40625 
L 73.1875 37.203125 
L 10.59375 37.203125 
z
M 10.59375 25.484375 
L 73.1875 25.484375 
L 73.1875 17.1875 
L 10.59375 17.1875 
z
" id="DejaVuSans-61"/>
     <path d="M 12.40625 8.296875 
L 28.515625 8.296875 
L 28.515625 63.921875 
L 10.984375 60.40625 
L 10.984375 69.390625 
L 28.421875 72.90625 
L 38.28125 72.90625 
L 38.28125 8.296875 
L 54.390625 8.296875 
L 54.390625 0 
L 12.40625 0 
z
" id="DejaVuSans-49"/>
     <path d="M 10.6875 12.40625 
L 21 12.40625 
L 21 0 
L 10.6875 0 
z
" id="DejaVuSans-46"/>
    </defs>
    <g transform="translate(200.664375 28.56)scale(0.12 -0.12)">
     <use xlink:href="#DejaVuSans-116"/>
     <use x="39.208984" xlink:href="#DejaVuSans-32"/>
     <use x="70.996094" xlink:href="#DejaVuSans-61"/>
     <use x="154.785156" xlink:href="#DejaVuSans-32"/>
     <use x="186.572266" xlink:href="#DejaVuSans-49"/>
     <use x="250.195312" xlink:href="#DejaVuSans-46"/>
     <use x="281.982422" xlink:href="#DejaVuSans-49"/>
    </g>
   </g>
  </g>
 </g>
 <defs>
  <clipPath id="p0ca0d3841e">
   <rect height="217.44" width="334.8" x="54" y="34.56"/>
  </clipPath>
 </defs>
</svg>
