<?xml version="1.0" encoding="utf-8" standalone="no"?>
<!DOCTYPE svg PUBLIC "-//W3C//DTD SVG 1.1//EN"
  "http://www.w3.org/Graphics/SVG/1.1/DTD/svg11.dtd">
<!-- Created with matplotlib (https://matplotlib.org/) -->
<svg height="288pt" version="1.1" viewBox="0 0 432 288" width="432pt" xmlns="http://www.w3.org/2000/svg" xmlns:xlink="http://www.w3.org/1999/xlink">
 <defs>
  <style type="text/css">
*{stroke-linecap:butt;stroke-linejoin:round;}
  </style>
 </defs>
 <g id="figure_1">
  <g id="patch_1">
   <path d="M 0 288 
L 432 288 
L 432 0 
L 0 0 
z
" style="fill:#ffffff;"/>
  </g>
  <g id="axes_1">
   <g id="patch_2">
    <path clip-path="url(#pb21db925a0)" d="M -19.723063 186.03694 
L -18.21321 196.803589 
L -19.289875 196.954574 
L -20.799727 186.187925 
z
" style="stroke:#000000;stroke-linejoin:miter;"/>
   </g>
   <g id="patch_3">
    <path clip-path="url(#pb21db925a0)" d="M 34.110182 178.487677 
L 35.620035 189.254326 
L 34.54337 189.405312 
L 33.033517 178.638663 
z
" style="stroke:#000000;stroke-linejoin:miter;"/>
   </g>
   <g id="patch_4">
    <path clip-path="url(#pb21db925a0)" d="M -2.31698 183.596012 
L -2.5409 183.070469 
L -3.052037 182.621635 
L -3.838492 182.281886 
L -4.884318 182.078423 
L -6.169986 182.03141 
L -7.672852 182.15254 
L -9.367635 182.444128 
L -11.22687 182.898798 
L -13.221337 183.499764 
L -15.320449 184.221725 
L -17.492622 185.03228 
L -19.705595 185.893813 
L -21.926748 186.765694 
L -24.123383 187.606683 
L -26.263023 188.377366 
L -28.313706 189.042475 
L -30.244304 189.572951 
L -32.024866 189.947604 
L -33.626997 190.154279 
L -35.02427 190.190447 
L -36.192664 190.06319 
L -37.111033 189.788585 
L -37.76158 189.390522 
L -38.130326 188.899045 
L -38.207556 188.348321 
L -37.988219 187.774375 
L -37.472257 187.212727 
L -36.664844 186.696108 
L -35.576521 186.252383 
L -34.223197 185.902823 
L -32.626016 185.660845 
L -30.811083 185.531287 
L -28.809042 185.510272 
L -26.654515 185.585667 
L -24.385423 185.738094 
L -22.042196 185.942439 
L -19.666901 186.169741 
L -17.302315 186.389344 
L -14.990978 186.571158 
L -12.774253 186.68789 
L -10.691417 186.717079 
L -8.778836 186.642811 
L -7.069221 186.456987 
L -5.591007 186.160066 
L -4.367863 185.761232 
L -3.41834 185.277954 
L -2.755672 184.734988 
L -2.387707 184.162873 
z
" style="fill:#0000ff;stroke:#000000;stroke-linejoin:miter;"/>
   </g>
   <g id="patch_5">
    <path clip-path="url(#pb21db925a0)" d="M 51.516265 176.046749 
L 51.292345 175.521207 
L 50.781208 175.072372 
L 49.994753 174.732623 
L 48.948926 174.529161 
L 47.663259 174.482148 
L 46.160393 174.603277 
L 44.46561 174.894866 
L 42.606374 175.349535 
L 40.611908 175.950502 
L 38.512795 176.672462 
L 36.340623 177.483018 
L 34.127649 178.34455 
L 31.906497 179.216432 
L 29.709862 180.057421 
L 27.570222 180.828103 
L 25.519539 181.493212 
L 23.588941 182.023688 
L 21.808379 182.398341 
L 20.206247 182.605016 
L 18.808975 182.641184 
L 17.640581 182.513928 
L 16.722211 182.239323 
L 16.071665 181.841259 
L 15.702919 181.349782 
L 15.625688 180.799059 
L 15.845025 180.225112 
L 16.360988 179.663464 
L 17.168401 179.146846 
L 18.256723 178.70312 
L 19.610048 178.35356 
L 21.207229 178.111582 
L 23.022161 177.982024 
L 25.024203 177.96101 
L 27.17873 178.036404 
L 29.447822 178.188832 
L 31.791049 178.393177 
L 34.166344 178.620479 
L 36.53093 178.840081 
L 38.842266 179.021895 
L 41.058992 179.138627 
L 43.141828 179.167817 
L 45.054409 179.093549 
L 46.764024 178.907724 
L 48.242238 178.610804 
L 49.465382 178.21197 
L 50.414904 177.728691 
L 51.077572 177.185726 
L 51.445537 176.613611 
z
" style="fill:#0000ff;stroke:#000000;stroke-linejoin:miter;"/>
   </g>
   <g id="patch_6">
    <path clip-path="url(#pb21db925a0)" d="M 40.087564 185.88323 
L -24.51233 194.942345 
L -23.757404 200.32567 
L 40.84249 191.266555 
z
" style="fill:#999999;stroke:#000000;stroke-linejoin:miter;"/>
   </g>
   <g id="text_1">
    <!-- t = 0.0 -->
    <defs>
     <path d="M 18.3125 70.21875 
L 18.3125 54.6875 
L 36.8125 54.6875 
L 36.8125 47.703125 
L 18.3125 47.703125 
L 18.3125 18.015625 
Q 18.3125 11.328125 20.140625 9.421875 
Q 21.96875 7.515625 27.59375 7.515625 
L 36.8125 7.515625 
L 36.8125 0 
L 27.59375 0 
Q 17.1875 0 13.234375 3.875 
Q 9.28125 7.765625 9.28125 18.015625 
L 9.28125 47.703125 
L 2.6875 47.703125 
L 2.6875 54.6875 
L 9.28125 54.6875 
L 9.28125 70.21875 
z
" id="DejaVuSans-116"/>
     <path id="DejaVuSans-32"/>
     <path d="M 10.59375 45.40625 
L 73.1875 45.40625 
L 73.1875 37.203125 
L 10.59375 37.203125 
z
M 10.59375 25.484375 
L 73.1875 25.484375 
L 73.1875 17.1875 
L 10.59375 17.1875 
z
" id="DejaVuSans-61"/>
     <path d="M 31.78125 66.40625 
Q 24.171875 66.40625 20.328125 58.90625 
Q 16.5 51.421875 16.5 36.375 
Q 16.5 21.390625 20.328125 13.890625 
Q 24.171875 6.390625 31.78125 6.390625 
Q 39.453125 6.390625 43.28125 13.890625 
Q 47.125 21.390625 47.125 36.375 
Q 47.125 51.421875 43.28125 58.90625 
Q 39.453125 66.40625 31.78125 66.40625 
z
M 31.78125 74.21875 
Q 44.046875 74.21875 50.515625 64.515625 
Q 56.984375 54.828125 56.984375 36.375 
Q 56.984375 17.96875 50.515625 8.265625 
Q 44.046875 -1.421875 31.78125 -1.421875 
Q 19.53125 -1.421875 13.0625 8.265625 
Q 6.59375 17.96875 6.59375 36.375 
Q 6.59375 54.828125 13.0625 64.515625 
Q 19.53125 74.21875 31.78125 74.21875 
z
" id="DejaVuSans-48"/>
     <path d="M 10.6875 12.40625 
L 21 12.40625 
L 21 0 
L 10.6875 0 
z
" id="DejaVuSans-46"/>
    </defs>
    <g transform="translate(200.664375 28.56)scale(0.12 -0.12)">
     <use xlink:href="#DejaVuSans-116"/>
     <use x="39.208984" xlink:href="#DejaVuSans-32"/>
     <use x="70.996094" xlink:href="#DejaVuSans-61"/>
     <use x="154.785156" xlink:href="#DejaVuSans-32"/>
     <use x="186.572266" xlink:href="#DejaVuSans-48"/>
     <use x="250.195312" xlink:href="#DejaVuSans-46"/>
     <use x="281.982422" xlink:href="#DejaVuSans-48"/>
    </g>
   </g>
  </g>
 </g>
 <defs>
  <clipPath id="pb21db925a0">
   <rect height="217.44" width="334.8" x="54" y="34.56"/>
  </clipPath>
 </defs>
</svg>
