<?xml version="1.0" encoding="utf-8" standalone="no"?>
<!DOCTYPE svg PUBLIC "-//W3C//DTD SVG 1.1//EN"
  "http://www.w3.org/Graphics/SVG/1.1/DTD/svg11.dtd">
<!-- Created with matplotlib (https://matplotlib.org/) -->
<svg height="288pt" version="1.1" viewBox="0 0 432 288" width="432pt" xmlns="http://www.w3.org/2000/svg" xmlns:xlink="http://www.w3.org/1999/xlink">
 <defs>
  <style type="text/css">
*{stroke-linecap:butt;stroke-linejoin:round;}
  </style>
 </defs>
 <g id="figure_1">
  <g id="patch_1">
   <path d="M 0 288 
L 432 288 
L 432 0 
L 0 0 
z
" style="fill:#ffffff;"/>
  </g>
  <g id="axes_1">
   <g id="patch_2">
    <path clip-path="url(#pe36e5a7a51)" d="M 156.454625 177.533485 
L 159.292823 188.028484 
L 158.243323 188.312304 
L 155.405125 177.817305 
z
" style="stroke:#000000;stroke-linejoin:miter;"/>
   </g>
   <g id="patch_3">
    <path clip-path="url(#pe36e5a7a51)" d="M 208.929622 163.342492 
L 211.76782 173.837492 
L 210.71832 174.121311 
L 207.880122 163.626312 
z
" style="stroke:#000000;stroke-linejoin:miter;"/>
   </g>
   <g id="patch_4">
    <path clip-path="url(#pe36e5a7a51)" d="M 173.42154 172.945064 
L 173.13395 172.451479 
L 172.570922 172.069754 
L 171.748296 171.830534 
L 170.685277 171.758824 
L 169.403756 171.872199 
L 167.927653 172.179443 
L 166.282342 172.679708 
L 164.494155 173.362254 
L 162.589998 174.206792 
L 160.597069 175.184407 
L 158.542675 176.259022 
L 156.454141 177.389297 
L 154.358781 178.530857 
L 152.283903 179.638714 
L 150.256825 180.669717 
L 148.304872 181.584895 
L 146.455313 182.351541 
L 144.735229 182.944901 
L 143.17128 183.34938 
L 141.789375 183.559181 
L 140.614227 183.57834 
L 139.66882 183.420176 
L 138.973786 183.10618 
L 138.546736 182.664421 
L 138.401559 182.127592 
L 138.547754 181.530809 
L 138.989797 180.909308 
L 139.72663 180.296211 
L 140.751261 179.720477 
L 142.050553 179.205191 
L 143.605196 178.7663 
L 145.389889 178.411851 
L 147.373747 178.141812 
L 149.520904 177.948454 
L 151.791323 177.81727 
L 154.141763 177.728373 
L 156.526879 177.658263 
L 158.900411 177.581846 
L 161.216403 177.474563 
L 163.430421 177.314479 
L 165.500693 177.084198 
L 167.389158 176.772455 
L 169.062349 176.375286 
L 170.492112 175.896687 
L 171.656103 175.348713 
L 172.53809 174.751009 
L 173.128024 174.129786 
L 173.421918 173.516321 
z
" style="fill:#0000ff;stroke:#000000;stroke-linejoin:miter;"/>
   </g>
   <g id="patch_5">
    <path clip-path="url(#pe36e5a7a51)" d="M 225.896538 158.754071 
L 225.608947 158.260486 
L 225.04592 157.878761 
L 224.223293 157.639542 
L 223.160274 157.567832 
L 221.878753 157.681207 
L 220.402651 157.988451 
L 218.757339 158.488715 
L 216.969152 159.171262 
L 215.064996 160.0158 
L 213.072066 160.993415 
L 211.017672 162.06803 
L 208.929139 163.198304 
L 206.833778 164.339865 
L 204.7589 165.447722 
L 202.731822 166.478724 
L 200.779869 167.393903 
L 198.93031 168.160548 
L 197.210226 168.753908 
L 195.646277 169.158388 
L 194.264372 169.368188 
L 193.089224 169.387347 
L 192.143817 169.229184 
L 191.448784 168.915187 
L 191.021733 168.473428 
L 190.876556 167.9366 
L 191.022751 167.339816 
L 191.464795 166.718316 
L 192.201627 166.105219 
L 193.226258 165.529484 
L 194.52555 165.014199 
L 196.080193 164.575307 
L 197.864887 164.220858 
L 199.848744 163.95082 
L 201.995902 163.757462 
L 204.26632 163.626278 
L 206.61676 163.537381 
L 209.001876 163.467271 
L 211.375408 163.390854 
L 213.691401 163.28357 
L 215.905418 163.123486 
L 217.97569 162.893206 
L 219.864155 162.581463 
L 221.537347 162.184293 
L 222.967109 161.705694 
L 224.1311 161.157721 
L 225.013087 160.560017 
L 225.603021 159.938793 
L 225.896916 159.325328 
z
" style="fill:#0000ff;stroke:#000000;stroke-linejoin:miter;"/>
   </g>
   <g id="patch_6">
    <path clip-path="url(#pe36e5a7a51)" d="M 215.78102 169.936552 
L 152.811024 186.965743 
L 154.230123 192.213243 
L 217.20012 175.184052 
z
" style="fill:#999999;stroke:#000000;stroke-linejoin:miter;"/>
   </g>
   <g id="text_1">
    <!-- t = 0.4 -->
    <defs>
     <path d="M 18.3125 70.21875 
L 18.3125 54.6875 
L 36.8125 54.6875 
L 36.8125 47.703125 
L 18.3125 47.703125 
L 18.3125 18.015625 
Q 18.3125 11.328125 20.140625 9.421875 
Q 21.96875 7.515625 27.59375 7.515625 
L 36.8125 7.515625 
L 36.8125 0 
L 27.59375 0 
Q 17.1875 0 13.234375 3.875 
Q 9.28125 7.765625 9.28125 18.015625 
L 9.28125 47.703125 
L 2.6875 47.703125 
L 2.6875 54.6875 
L 9.28125 54.6875 
L 9.28125 70.21875 
z
" id="DejaVuSans-116"/>
     <path id="DejaVuSans-32"/>
     <path d="M 10.59375 45.40625 
L 73.1875 45.40625 
L 73.1875 37.203125 
L 10.59375 37.203125 
z
M 10.59375 25.484375 
L 73.1875 25.484375 
L 73.1875 17.1875 
L 10.59375 17.1875 
z
" id="DejaVuSans-61"/>
     <path d="M 31.78125 66.40625 
Q 24.171875 66.40625 20.328125 58.90625 
Q 16.5 51.421875 16.5 36.375 
Q 16.5 21.390625 20.328125 13.890625 
Q 24.171875 6.390625 31.78125 6.390625 
Q 39.453125 6.390625 43.28125 13.890625 
Q 47.125 21.390625 47.125 36.375 
Q 47.125 51.421875 43.28125 58.90625 
Q 39.453125 66.40625 31.78125 66.40625 
z
M 31.78125 74.21875 
Q 44.046875 74.21875 50.515625 64.515625 
Q 56.984375 54.828125 56.984375 36.375 
Q 56.984375 17.96875 50.515625 8.265625 
Q 44.046875 -1.421875 31.78125 -1.421875 
Q 19.53125 -1.421875 13.0625 8.265625 
Q 6.59375 17.96875 6.59375 36.375 
Q 6.59375 54.828125 13.0625 64.515625 
Q 19.53125 74.21875 31.78125 74.21875 
z
" id="DejaVuSans-48"/>
     <path d="M 10.6875 12.40625 
L 21 12.40625 
L 21 0 
L 10.6875 0 
z
" id="DejaVuSans-46"/>
     <path d="M 37.796875 64.3125 
L 12.890625 25.390625 
L 37.796875 25.390625 
z
M 35.203125 72.90625 
L 47.609375 72.90625 
L 47.609375 25.390625 
L 58.015625 25.390625 
L 58.015625 17.1875 
L 47.609375 17.1875 
L 47.609375 0 
L 37.796875 0 
L 37.796875 17.1875 
L 4.890625 17.1875 
L 4.890625 26.703125 
z
" id="DejaVuSans-52"/>
    </defs>
    <g transform="translate(200.664375 28.56)scale(0.12 -0.12)">
     <use xlink:href="#DejaVuSans-116"/>
     <use x="39.208984" xlink:href="#DejaVuSans-32"/>
     <use x="70.996094" xlink:href="#DejaVuSans-61"/>
     <use x="154.785156" xlink:href="#DejaVuSans-32"/>
     <use x="186.572266" xlink:href="#DejaVuSans-48"/>
     <use x="250.195312" xlink:href="#DejaVuSans-46"/>
     <use x="281.982422" xlink:href="#DejaVuSans-52"/>
    </g>
   </g>
  </g>
 </g>
 <defs>
  <clipPath id="pe36e5a7a51">
   <rect height="217.44" width="334.8" x="54" y="34.56"/>
  </clipPath>
 </defs>
</svg>
