<?xml version="1.0" encoding="utf-8" standalone="no"?>
<!DOCTYPE svg PUBLIC "-//W3C//DTD SVG 1.1//EN"
  "http://www.w3.org/Graphics/SVG/1.1/DTD/svg11.dtd">
<!-- Created with matplotlib (https://matplotlib.org/) -->
<svg height="288pt" version="1.1" viewBox="0 0 432 288" width="432pt" xmlns="http://www.w3.org/2000/svg" xmlns:xlink="http://www.w3.org/1999/xlink">
 <defs>
  <style type="text/css">
*{stroke-linecap:butt;stroke-linejoin:round;}
  </style>
 </defs>
 <g id="figure_1">
  <g id="patch_1">
   <path d="M 0 288 
L 432 288 
L 432 0 
L 0 0 
z
" style="fill:#ffffff;"/>
  </g>
  <g id="axes_1">
   <g id="patch_2">
    <path clip-path="url(#pb125a49c8a)" d="M 194.740214 132.40562 
L 194.737787 143.27762 
L 193.650587 143.277377 
L 193.653014 132.405378 
z
" style="stroke:#000000;stroke-linejoin:miter;"/>
   </g>
   <g id="patch_3">
    <path clip-path="url(#pb125a49c8a)" d="M 249.100213 132.417757 
L 249.097785 143.289757 
L 248.010585 143.289514 
L 248.013013 132.417514 
z
" style="stroke:#000000;stroke-linejoin:miter;"/>
   </g>
   <g id="patch_4">
    <path clip-path="url(#pb125a49c8a)" d="M 212.316613 132.409545 
L 212.167972 131.857965 
L 211.724235 131.342396 
L 210.992683 130.896557 
L 209.985324 130.549602 
L 208.718694 130.324214 
L 207.213589 130.235122 
L 205.494722 130.288138 
L 203.590317 130.479775 
L 201.531647 130.797476 
L 199.352518 131.220439 
L 197.088717 131.720973 
L 194.77742 132.266314 
L 192.456584 132.820766 
L 190.164324 133.348035 
L 187.938285 133.813609 
L 185.815022 134.18701 
L 183.829405 134.44379 
L 182.014039 134.567131 
L 180.398734 134.548946 
L 179.010014 134.390407 
L 177.870679 134.101868 
L 176.999434 133.702191 
L 176.41058 133.217508 
L 176.113782 132.679518 
L 176.113906 132.123405 
L 176.410945 131.585547 
L 177.000015 131.101128 
L 177.871438 130.70184 
L 179.010902 130.41381 
L 180.399693 130.25589 
L 182.015005 130.238427 
L 183.830316 130.362579 
L 185.815818 130.620245 
L 187.938914 130.994594 
L 190.164745 131.461162 
L 192.45677 131.989455 
L 194.777357 132.544943 
L 197.088411 133.091316 
L 199.351989 133.592861 
L 201.530929 134.016797 
L 203.589457 134.335418 
L 205.493776 134.527905 
L 207.212619 134.581688 
L 208.717763 134.493268 
L 209.984493 134.268446 
L 210.992007 133.921941 
L 211.723758 133.476428 
L 212.167725 132.961058 
z
" style="fill:#0000ff;stroke:#000000;stroke-linejoin:miter;"/>
   </g>
   <g id="patch_5">
    <path clip-path="url(#pb125a49c8a)" d="M 266.676612 132.421682 
L 266.52797 131.870102 
L 266.084233 131.354533 
L 265.352682 130.908694 
L 264.345322 130.561739 
L 263.078692 130.336351 
L 261.573588 130.247259 
L 259.854721 130.300275 
L 257.950316 130.491912 
L 255.891646 130.809613 
L 253.712517 131.232576 
L 251.448716 131.73311 
L 249.137418 132.278451 
L 246.816583 132.832903 
L 244.524323 133.360172 
L 242.298283 133.825746 
L 240.175021 134.199147 
L 238.189403 134.455927 
L 236.374037 134.579268 
L 234.758733 134.561083 
L 233.370013 134.402544 
L 232.230678 134.114005 
L 231.359432 133.714328 
L 230.770579 133.229645 
L 230.47378 132.691655 
L 230.473905 132.135542 
L 230.770943 131.597684 
L 231.360013 131.113265 
L 232.231437 130.713977 
L 233.3709 130.425946 
L 234.759691 130.268027 
L 236.375004 130.250564 
L 238.190315 130.374716 
L 240.175817 130.632382 
L 242.298913 131.006731 
L 244.524744 131.473299 
L 246.816768 132.001592 
L 249.137356 132.55708 
L 251.44841 133.103453 
L 253.711987 133.604998 
L 255.890927 134.028934 
L 257.949455 134.347555 
L 259.853774 134.540041 
L 261.572617 134.593825 
L 263.077762 134.505405 
L 264.344492 134.280583 
L 265.352006 133.934078 
L 266.083757 133.488565 
L 266.527724 132.973195 
z
" style="fill:#0000ff;stroke:#000000;stroke-linejoin:miter;"/>
   </g>
   <g id="patch_6">
    <path clip-path="url(#pb125a49c8a)" d="M 253.990792 140.572849 
L 188.758793 140.558285 
L 188.75758 145.994285 
L 253.989578 146.008849 
z
" style="fill:#999999;stroke:#000000;stroke-linejoin:miter;"/>
   </g>
   <g id="text_1">
    <!-- t = 3.3 -->
    <defs>
     <path d="M 18.3125 70.21875 
L 18.3125 54.6875 
L 36.8125 54.6875 
L 36.8125 47.703125 
L 18.3125 47.703125 
L 18.3125 18.015625 
Q 18.3125 11.328125 20.140625 9.421875 
Q 21.96875 7.515625 27.59375 7.515625 
L 36.8125 7.515625 
L 36.8125 0 
L 27.59375 0 
Q 17.1875 0 13.234375 3.875 
Q 9.28125 7.765625 9.28125 18.015625 
L 9.28125 47.703125 
L 2.6875 47.703125 
L 2.6875 54.6875 
L 9.28125 54.6875 
L 9.28125 70.21875 
z
" id="DejaVuSans-116"/>
     <path id="DejaVuSans-32"/>
     <path d="M 10.59375 45.40625 
L 73.1875 45.40625 
L 73.1875 37.203125 
L 10.59375 37.203125 
z
M 10.59375 25.484375 
L 73.1875 25.484375 
L 73.1875 17.1875 
L 10.59375 17.1875 
z
" id="DejaVuSans-61"/>
     <path d="M 40.578125 39.3125 
Q 47.65625 37.796875 51.625 33 
Q 55.609375 28.21875 55.609375 21.1875 
Q 55.609375 10.40625 48.1875 4.484375 
Q 40.765625 -1.421875 27.09375 -1.421875 
Q 22.515625 -1.421875 17.65625 -0.515625 
Q 12.796875 0.390625 7.625 2.203125 
L 7.625 11.71875 
Q 11.71875 9.328125 16.59375 8.109375 
Q 21.484375 6.890625 26.8125 6.890625 
Q 36.078125 6.890625 40.9375 10.546875 
Q 45.796875 14.203125 45.796875 21.1875 
Q 45.796875 27.640625 41.28125 31.265625 
Q 36.765625 34.90625 28.71875 34.90625 
L 20.21875 34.90625 
L 20.21875 43.015625 
L 29.109375 43.015625 
Q 36.375 43.015625 40.234375 45.921875 
Q 44.09375 48.828125 44.09375 54.296875 
Q 44.09375 59.90625 40.109375 62.90625 
Q 36.140625 65.921875 28.71875 65.921875 
Q 24.65625 65.921875 20.015625 65.03125 
Q 15.375 64.15625 9.8125 62.3125 
L 9.8125 71.09375 
Q 15.4375 72.65625 20.34375 73.4375 
Q 25.25 74.21875 29.59375 74.21875 
Q 40.828125 74.21875 47.359375 69.109375 
Q 53.90625 64.015625 53.90625 55.328125 
Q 53.90625 49.265625 50.4375 45.09375 
Q 46.96875 40.921875 40.578125 39.3125 
z
" id="DejaVuSans-51"/>
     <path d="M 10.6875 12.40625 
L 21 12.40625 
L 21 0 
L 10.6875 0 
z
" id="DejaVuSans-46"/>
    </defs>
    <g transform="translate(200.664375 28.56)scale(0.12 -0.12)">
     <use xlink:href="#DejaVuSans-116"/>
     <use x="39.208984" xlink:href="#DejaVuSans-32"/>
     <use x="70.996094" xlink:href="#DejaVuSans-61"/>
     <use x="154.785156" xlink:href="#DejaVuSans-32"/>
     <use x="186.572266" xlink:href="#DejaVuSans-51"/>
     <use x="250.195312" xlink:href="#DejaVuSans-46"/>
     <use x="281.982422" xlink:href="#DejaVuSans-51"/>
    </g>
   </g>
  </g>
 </g>
 <defs>
  <clipPath id="pb125a49c8a">
   <rect height="217.44" width="334.8" x="54" y="34.56"/>
  </clipPath>
 </defs>
</svg>
