<?xml version="1.0" encoding="utf-8" standalone="no"?>
<!DOCTYPE svg PUBLIC "-//W3C//DTD SVG 1.1//EN"
  "http://www.w3.org/Graphics/SVG/1.1/DTD/svg11.dtd">
<!-- Created with matplotlib (https://matplotlib.org/) -->
<svg height="288pt" version="1.1" viewBox="0 0 432 288" width="432pt" xmlns="http://www.w3.org/2000/svg" xmlns:xlink="http://www.w3.org/1999/xlink">
 <defs>
  <style type="text/css">
*{stroke-linecap:butt;stroke-linejoin:round;}
  </style>
 </defs>
 <g id="figure_1">
  <g id="patch_1">
   <path d="M 0 288 
L 432 288 
L 432 0 
L 0 0 
z
" style="fill:#ffffff;"/>
  </g>
  <g id="axes_1">
   <g id="patch_2">
    <path clip-path="url(#p42846d4054)" d="M 199.633696 122.245156 
L 198.786351 133.084085 
L 197.702458 132.999351 
L 198.549803 122.160422 
z
" style="stroke:#000000;stroke-linejoin:miter;"/>
   </g>
   <g id="patch_3">
    <path clip-path="url(#p42846d4054)" d="M 253.828343 126.481882 
L 252.980998 137.320811 
L 251.897105 137.236077 
L 252.74445 126.397147 
z
" style="stroke:#000000;stroke-linejoin:miter;"/>
   </g>
   <g id="patch_4">
    <path clip-path="url(#p42846d4054)" d="M 217.156632 123.615031 
L 217.051306 123.053567 
L 216.648979 122.505073 
L 215.954289 122.003729 
L 214.97694 121.579535 
L 213.731657 121.256392 
L 212.238028 121.0506 
L 210.52024 120.969872 
L 208.606702 121.012927 
L 206.529568 121.169677 
L 204.324159 121.422008 
L 202.028304 121.745095 
L 199.681616 122.109163 
L 197.32471 122.481572 
L 194.998406 122.829102 
L 192.742916 123.12027 
L 190.597056 123.327531 
L 188.597488 123.42922 
L 186.778028 123.411106 
L 185.169022 123.267442 
L 183.796822 123.001456 
L 182.683357 122.625246 
L 181.845808 122.159068 
L 181.296403 121.630088 
L 181.042313 121.070659 
L 181.085655 120.516238 
L 181.423595 120.003091 
L 182.048531 119.565917 
L 182.94835 119.23556 
L 184.106752 119.036955 
L 185.503615 118.987444 
L 187.115399 119.095569 
L 188.915571 119.360423 
L 190.875044 119.771615 
L 192.962626 120.309829 
L 195.145465 120.947968 
L 197.389501 121.65279 
L 199.6599 122.386944 
L 201.921502 123.11127 
L 204.139256 123.787213 
L 206.278659 124.379205 
L 208.3062 124.856842 
L 210.1898 125.196742 
L 211.899264 125.383944 
L 213.406728 125.412765 
L 214.6871 125.287068 
L 215.718495 125.01991 
L 216.482656 124.632614 
L 216.965333 124.153305 
z
" style="fill:#0000ff;stroke:#000000;stroke-linejoin:miter;"/>
   </g>
   <g id="patch_5">
    <path clip-path="url(#p42846d4054)" d="M 271.351279 127.851756 
L 271.245953 127.290293 
L 270.843626 126.741798 
L 270.148936 126.240454 
L 269.171587 125.816261 
L 267.926304 125.493118 
L 266.432675 125.287325 
L 264.714887 125.206598 
L 262.801349 125.249653 
L 260.724215 125.406402 
L 258.518806 125.658733 
L 256.222951 125.981821 
L 253.876263 126.345889 
L 251.519357 126.718298 
L 249.193053 127.065828 
L 246.937563 127.356996 
L 244.791703 127.564256 
L 242.792135 127.665946 
L 240.972674 127.647832 
L 239.363669 127.504167 
L 237.991469 127.238182 
L 236.878004 126.861972 
L 236.040455 126.395794 
L 235.49105 125.866814 
L 235.23696 125.307384 
L 235.280302 124.752964 
L 235.618242 124.239817 
L 236.243178 123.802643 
L 237.142997 123.472285 
L 238.301399 123.273681 
L 239.698262 123.22417 
L 241.310046 123.332294 
L 243.110218 123.597149 
L 245.069691 124.008341 
L 247.157272 124.546555 
L 249.340112 125.184694 
L 251.584148 125.889516 
L 253.854547 126.62367 
L 256.116149 127.347995 
L 258.333903 128.023939 
L 260.473306 128.615931 
L 262.500846 129.093568 
L 264.384447 129.433468 
L 266.093911 129.62067 
L 267.601375 129.649491 
L 268.881747 129.523794 
L 269.913142 129.256636 
L 270.677303 128.869339 
L 271.15998 128.390031 
z
" style="fill:#0000ff;stroke:#000000;stroke-linejoin:miter;"/>
   </g>
   <g id="patch_6">
    <path clip-path="url(#p42846d4054)" d="M 258.070353 134.992384 
L 193.036776 129.908313 
L 192.613104 135.327778 
L 257.64668 140.411849 
z
" style="fill:#999999;stroke:#000000;stroke-linejoin:miter;"/>
   </g>
   <g id="text_1">
    <!-- t = 0.8 -->
    <defs>
     <path d="M 18.3125 70.21875 
L 18.3125 54.6875 
L 36.8125 54.6875 
L 36.8125 47.703125 
L 18.3125 47.703125 
L 18.3125 18.015625 
Q 18.3125 11.328125 20.140625 9.421875 
Q 21.96875 7.515625 27.59375 7.515625 
L 36.8125 7.515625 
L 36.8125 0 
L 27.59375 0 
Q 17.1875 0 13.234375 3.875 
Q 9.28125 7.765625 9.28125 18.015625 
L 9.28125 47.703125 
L 2.6875 47.703125 
L 2.6875 54.6875 
L 9.28125 54.6875 
L 9.28125 70.21875 
z
" id="DejaVuSans-116"/>
     <path id="DejaVuSans-32"/>
     <path d="M 10.59375 45.40625 
L 73.1875 45.40625 
L 73.1875 37.203125 
L 10.59375 37.203125 
z
M 10.59375 25.484375 
L 73.1875 25.484375 
L 73.1875 17.1875 
L 10.59375 17.1875 
z
" id="DejaVuSans-61"/>
     <path d="M 31.78125 66.40625 
Q 24.171875 66.40625 20.328125 58.90625 
Q 16.5 51.421875 16.5 36.375 
Q 16.5 21.390625 20.328125 13.890625 
Q 24.171875 6.390625 31.78125 6.390625 
Q 39.453125 6.390625 43.28125 13.890625 
Q 47.125 21.390625 47.125 36.375 
Q 47.125 51.421875 43.28125 58.90625 
Q 39.453125 66.40625 31.78125 66.40625 
z
M 31.78125 74.21875 
Q 44.046875 74.21875 50.515625 64.515625 
Q 56.984375 54.828125 56.984375 36.375 
Q 56.984375 17.96875 50.515625 8.265625 
Q 44.046875 -1.421875 31.78125 -1.421875 
Q 19.53125 -1.421875 13.0625 8.265625 
Q 6.59375 17.96875 6.59375 36.375 
Q 6.59375 54.828125 13.0625 64.515625 
Q 19.53125 74.21875 31.78125 74.21875 
z
" id="DejaVuSans-48"/>
     <path d="M 10.6875 12.40625 
L 21 12.40625 
L 21 0 
L 10.6875 0 
z
" id="DejaVuSans-46"/>
     <path d="M 31.78125 34.625 
Q 24.75 34.625 20.71875 30.859375 
Q 16.703125 27.09375 16.703125 20.515625 
Q 16.703125 13.921875 20.71875 10.15625 
Q 24.75 6.390625 31.78125 6.390625 
Q 38.8125 6.390625 42.859375 10.171875 
Q 46.921875 13.96875 46.921875 20.515625 
Q 46.921875 27.09375 42.890625 30.859375 
Q 38.875 34.625 31.78125 34.625 
z
M 21.921875 38.8125 
Q 15.578125 40.375 12.03125 44.71875 
Q 8.5 49.078125 8.5 55.328125 
Q 8.5 64.0625 14.71875 69.140625 
Q 20.953125 74.21875 31.78125 74.21875 
Q 42.671875 74.21875 48.875 69.140625 
Q 55.078125 64.0625 55.078125 55.328125 
Q 55.078125 49.078125 51.53125 44.71875 
Q 48 40.375 41.703125 38.8125 
Q 48.828125 37.15625 52.796875 32.3125 
Q 56.78125 27.484375 56.78125 20.515625 
Q 56.78125 9.90625 50.3125 4.234375 
Q 43.84375 -1.421875 31.78125 -1.421875 
Q 19.734375 -1.421875 13.25 4.234375 
Q 6.78125 9.90625 6.78125 20.515625 
Q 6.78125 27.484375 10.78125 32.3125 
Q 14.796875 37.15625 21.921875 38.8125 
z
M 18.3125 54.390625 
Q 18.3125 48.734375 21.84375 45.5625 
Q 25.390625 42.390625 31.78125 42.390625 
Q 38.140625 42.390625 41.71875 45.5625 
Q 45.3125 48.734375 45.3125 54.390625 
Q 45.3125 60.0625 41.71875 63.234375 
Q 38.140625 66.40625 31.78125 66.40625 
Q 25.390625 66.40625 21.84375 63.234375 
Q 18.3125 60.0625 18.3125 54.390625 
z
" id="DejaVuSans-56"/>
    </defs>
    <g transform="translate(200.664375 28.56)scale(0.12 -0.12)">
     <use xlink:href="#DejaVuSans-116"/>
     <use x="39.208984" xlink:href="#DejaVuSans-32"/>
     <use x="70.996094" xlink:href="#DejaVuSans-61"/>
     <use x="154.785156" xlink:href="#DejaVuSans-32"/>
     <use x="186.572266" xlink:href="#DejaVuSans-48"/>
     <use x="250.195312" xlink:href="#DejaVuSans-46"/>
     <use x="281.982422" xlink:href="#DejaVuSans-56"/>
    </g>
   </g>
  </g>
 </g>
 <defs>
  <clipPath id="p42846d4054">
   <rect height="217.44" width="334.8" x="54" y="34.56"/>
  </clipPath>
 </defs>
</svg>
