<?xml version="1.0" encoding="utf-8" standalone="no"?>
<!DOCTYPE svg PUBLIC "-//W3C//DTD SVG 1.1//EN"
  "http://www.w3.org/Graphics/SVG/1.1/DTD/svg11.dtd">
<!-- Created with matplotlib (https://matplotlib.org/) -->
<svg height="288pt" version="1.1" viewBox="0 0 432 288" width="432pt" xmlns="http://www.w3.org/2000/svg" xmlns:xlink="http://www.w3.org/1999/xlink">
 <defs>
  <style type="text/css">
*{stroke-linecap:butt;stroke-linejoin:round;}
  </style>
 </defs>
 <g id="figure_1">
  <g id="patch_1">
   <path d="M 0 288 
L 432 288 
L 432 0 
L 0 0 
z
" style="fill:#ffffff;"/>
  </g>
  <g id="axes_1">
   <g id="patch_2">
    <path clip-path="url(#pca560efcbf)" d="M 191.556739 135.115611 
L 190.780483 145.959863 
L 189.696058 145.882238 
L 190.472314 135.037985 
z
" style="stroke:#000000;stroke-linejoin:miter;"/>
   </g>
   <g id="patch_3">
    <path clip-path="url(#pca560efcbf)" d="M 245.778001 138.996891 
L 245.001745 149.841144 
L 243.91732 149.763518 
L 244.693576 138.919266 
z
" style="stroke:#000000;stroke-linejoin:miter;"/>
   </g>
   <g id="patch_4">
    <path clip-path="url(#pca560efcbf)" d="M 209.08828 136.370558 
L 208.979275 135.809798 
L 208.57336 135.263953 
L 207.875397 134.767175 
L 206.895288 134.349399 
L 205.647913 134.034428 
L 204.152967 133.838434 
L 202.434686 133.768971 
L 200.521472 133.824572 
L 198.44541 133.994938 
L 196.241703 134.261725 
L 193.948016 134.599859 
L 191.603766 134.979306 
L 189.249352 135.367162 
L 186.925377 135.729938 
L 184.671845 136.035889 
L 182.52739 136.257215 
L 180.528532 136.372014 
L 178.708991 136.36583 
L 177.099078 136.232719 
L 175.725164 135.975737 
L 174.609256 135.606836 
L 173.768669 135.14616 
L 173.215807 134.620794 
L 172.958054 134.063042 
L 172.99776 133.50835 
L 173.332328 132.992998 
L 173.954384 132.551735 
L 174.852017 132.215485 
L 176.009092 132.009289 
L 177.4056 131.95062 
L 179.018059 132.048173 
L 180.819929 132.301219 
L 182.782056 132.699553 
L 184.873121 133.224068 
L 187.060099 133.84788 
L 189.308707 134.537973 
L 191.583872 135.257224 
L 193.850175 135.966705 
L 196.072313 136.628092 
L 198.215552 137.206043 
L 200.24618 137.670375 
L 202.131969 137.997917 
L 203.842624 138.173906 
L 205.350245 138.192842 
L 206.629764 138.058752 
L 207.659386 137.784837 
L 208.420991 137.392539 
L 208.900515 136.910075 
z
" style="fill:#0000ff;stroke:#000000;stroke-linejoin:miter;"/>
   </g>
   <g id="patch_5">
    <path clip-path="url(#pca560efcbf)" d="M 263.309542 140.251839 
L 263.200537 139.691078 
L 262.794622 139.145233 
L 262.096659 138.648455 
L 261.11655 138.230679 
L 259.869175 137.915708 
L 258.374229 137.719714 
L 256.655948 137.650252 
L 254.742734 137.705853 
L 252.666672 137.876219 
L 250.462965 138.143005 
L 248.169279 138.48114 
L 245.825028 138.860587 
L 243.470614 139.248442 
L 241.146639 139.611219 
L 238.893107 139.917169 
L 236.748652 140.138496 
L 234.749794 140.253294 
L 232.930254 140.247111 
L 231.32034 140.114 
L 229.946426 139.857018 
L 228.830518 139.488116 
L 227.989931 139.02744 
L 227.437069 138.502074 
L 227.179316 137.944323 
L 227.219022 137.38963 
L 227.55359 136.874278 
L 228.175646 136.433016 
L 229.073279 136.096765 
L 230.230354 135.890569 
L 231.626863 135.8319 
L 233.239321 135.929454 
L 235.041191 136.182499 
L 237.003318 136.580834 
L 239.094384 137.105348 
L 241.281361 137.729161 
L 243.529969 138.419253 
L 245.805134 139.138504 
L 248.071437 139.847985 
L 250.293575 140.509373 
L 252.436814 141.087323 
L 254.467442 141.551655 
L 256.353231 141.879198 
L 258.063886 142.055186 
L 259.571507 142.074123 
L 260.851026 141.940033 
L 261.880648 141.666118 
L 262.642253 141.273819 
L 263.121777 140.791356 
z
" style="fill:#0000ff;stroke:#000000;stroke-linejoin:miter;"/>
   </g>
   <g id="patch_6">
    <path clip-path="url(#pca560efcbf)" d="M 250.075722 147.479396 
L 185.010208 142.821859 
L 184.62208 148.243985 
L 249.687594 152.901522 
z
" style="fill:#999999;stroke:#000000;stroke-linejoin:miter;"/>
   </g>
   <g id="text_1">
    <!-- t = 1.2 -->
    <defs>
     <path d="M 18.3125 70.21875 
L 18.3125 54.6875 
L 36.8125 54.6875 
L 36.8125 47.703125 
L 18.3125 47.703125 
L 18.3125 18.015625 
Q 18.3125 11.328125 20.140625 9.421875 
Q 21.96875 7.515625 27.59375 7.515625 
L 36.8125 7.515625 
L 36.8125 0 
L 27.59375 0 
Q 17.1875 0 13.234375 3.875 
Q 9.28125 7.765625 9.28125 18.015625 
L 9.28125 47.703125 
L 2.6875 47.703125 
L 2.6875 54.6875 
L 9.28125 54.6875 
L 9.28125 70.21875 
z
" id="DejaVuSans-116"/>
     <path id="DejaVuSans-32"/>
     <path d="M 10.59375 45.40625 
L 73.1875 45.40625 
L 73.1875 37.203125 
L 10.59375 37.203125 
z
M 10.59375 25.484375 
L 73.1875 25.484375 
L 73.1875 17.1875 
L 10.59375 17.1875 
z
" id="DejaVuSans-61"/>
     <path d="M 12.40625 8.296875 
L 28.515625 8.296875 
L 28.515625 63.921875 
L 10.984375 60.40625 
L 10.984375 69.390625 
L 28.421875 72.90625 
L 38.28125 72.90625 
L 38.28125 8.296875 
L 54.390625 8.296875 
L 54.390625 0 
L 12.40625 0 
z
" id="DejaVuSans-49"/>
     <path d="M 10.6875 12.40625 
L 21 12.40625 
L 21 0 
L 10.6875 0 
z
" id="DejaVuSans-46"/>
     <path d="M 19.1875 8.296875 
L 53.609375 8.296875 
L 53.609375 0 
L 7.328125 0 
L 7.328125 8.296875 
Q 12.9375 14.109375 22.625 23.890625 
Q 32.328125 33.6875 34.8125 36.53125 
Q 39.546875 41.84375 41.421875 45.53125 
Q 43.3125 49.21875 43.3125 52.78125 
Q 43.3125 58.59375 39.234375 62.25 
Q 35.15625 65.921875 28.609375 65.921875 
Q 23.96875 65.921875 18.8125 64.3125 
Q 13.671875 62.703125 7.8125 59.421875 
L 7.8125 69.390625 
Q 13.765625 71.78125 18.9375 73 
Q 24.125 74.21875 28.421875 74.21875 
Q 39.75 74.21875 46.484375 68.546875 
Q 53.21875 62.890625 53.21875 53.421875 
Q 53.21875 48.921875 51.53125 44.890625 
Q 49.859375 40.875 45.40625 35.40625 
Q 44.1875 33.984375 37.640625 27.21875 
Q 31.109375 20.453125 19.1875 8.296875 
z
" id="DejaVuSans-50"/>
    </defs>
    <g transform="translate(200.664375 28.56)scale(0.12 -0.12)">
     <use xlink:href="#DejaVuSans-116"/>
     <use x="39.208984" xlink:href="#DejaVuSans-32"/>
     <use x="70.996094" xlink:href="#DejaVuSans-61"/>
     <use x="154.785156" xlink:href="#DejaVuSans-32"/>
     <use x="186.572266" xlink:href="#DejaVuSans-49"/>
     <use x="250.195312" xlink:href="#DejaVuSans-46"/>
     <use x="281.982422" xlink:href="#DejaVuSans-50"/>
    </g>
   </g>
  </g>
 </g>
 <defs>
  <clipPath id="pca560efcbf">
   <rect height="217.44" width="334.8" x="54" y="34.56"/>
  </clipPath>
 </defs>
</svg>
