<?xml version="1.0" encoding="utf-8" standalone="no"?>
<!DOCTYPE svg PUBLIC "-//W3C//DTD SVG 1.1//EN"
  "http://www.w3.org/Graphics/SVG/1.1/DTD/svg11.dtd">
<!-- Created with matplotlib (https://matplotlib.org/) -->
<svg height="288pt" version="1.1" viewBox="0 0 432 288" width="432pt" xmlns="http://www.w3.org/2000/svg" xmlns:xlink="http://www.w3.org/1999/xlink">
 <defs>
  <style type="text/css">
*{stroke-linecap:butt;stroke-linejoin:round;}
  </style>
 </defs>
 <g id="figure_1">
  <g id="patch_1">
   <path d="M 0 288 
L 432 288 
L 432 0 
L 0 0 
z
" style="fill:#ffffff;"/>
  </g>
  <g id="axes_1">
   <g id="patch_2">
    <path clip-path="url(#pdbb222dd06)" d="M 194.764374 132.401279 
L 194.76037 143.273278 
L 193.673171 143.272878 
L 193.677174 132.400878 
z
" style="stroke:#000000;stroke-linejoin:miter;"/>
   </g>
   <g id="patch_3">
    <path clip-path="url(#pdbb222dd06)" d="M 249.12437 132.421294 
L 249.120367 143.293294 
L 248.033167 143.292893 
L 248.03717 132.420894 
z
" style="stroke:#000000;stroke-linejoin:miter;"/>
   </g>
   <g id="patch_4">
    <path clip-path="url(#pdbb222dd06)" d="M 212.340772 132.407751 
L 212.192211 131.856149 
L 211.748548 131.340516 
L 211.017061 130.894571 
L 210.009752 130.54747 
L 208.743155 130.321898 
L 207.238063 130.232589 
L 205.519189 130.285355 
L 203.614756 130.476716 
L 201.55604 130.794119 
L 199.37685 131.216766 
L 197.112976 131.716972 
L 194.801599 132.261978 
L 192.480683 132.816093 
L 190.188347 133.343031 
L 187.96224 133.808282 
L 185.838924 134.181375 
L 183.853269 134.437867 
L 182.037885 134.560945 
L 180.422583 134.542526 
L 179.033886 134.383786 
L 177.894593 134.095082 
L 177.023406 133.695278 
L 176.434622 133.21051 
L 176.137902 132.672477 
L 176.138107 132.116364 
L 176.435223 131.578549 
L 177.024363 131.094215 
L 177.895845 130.695053 
L 179.03535 130.407188 
L 180.424164 130.24947 
L 182.039479 130.232241 
L 183.854772 130.356656 
L 185.840237 130.61461 
L 187.963278 130.989267 
L 190.189042 131.456157 
L 192.48099 131.984783 
L 194.801497 132.540607 
L 197.112471 133.087315 
L 199.375976 133.589188 
L 201.554855 134.01344 
L 203.613336 134.332359 
L 205.517627 134.525122 
L 207.236463 134.579154 
L 208.74162 134.490953 
L 210.008383 134.266314 
L 211.015947 133.919955 
L 211.747762 133.474548 
L 212.191804 132.959242 
z
" style="fill:#0000ff;stroke:#000000;stroke-linejoin:miter;"/>
   </g>
   <g id="patch_5">
    <path clip-path="url(#pdbb222dd06)" d="M 266.700769 132.427766 
L 266.552207 131.876165 
L 266.108545 131.360532 
L 265.377057 130.914587 
L 264.369748 130.567485 
L 263.103151 130.341914 
L 261.598059 130.252604 
L 259.879185 130.305371 
L 257.974752 130.496732 
L 255.916036 130.814135 
L 253.736846 131.236782 
L 251.472972 131.736988 
L 249.161596 132.281994 
L 246.84068 132.836109 
L 244.548343 133.363046 
L 242.322237 133.828298 
L 240.19892 134.201391 
L 238.213265 134.457883 
L 236.397882 134.580961 
L 234.78258 134.562542 
L 233.393882 134.403801 
L 232.254589 134.115097 
L 231.383402 133.715294 
L 230.794619 133.230526 
L 230.497898 132.692492 
L 230.498103 132.13638 
L 230.79522 131.598565 
L 231.38436 131.114231 
L 232.255841 130.715069 
L 233.395347 130.427204 
L 234.78416 130.269486 
L 236.399476 130.252257 
L 238.214768 130.376672 
L 240.200233 130.634626 
L 242.323275 131.009282 
L 244.549038 131.476173 
L 246.840986 132.004798 
L 249.161493 132.560622 
L 251.472468 133.10733 
L 253.735973 133.609204 
L 255.914851 134.033455 
L 257.973333 134.352374 
L 259.877624 134.545137 
L 261.596459 134.59917 
L 263.101616 134.510968 
L 264.368379 134.28633 
L 265.375943 133.939971 
L 266.107759 133.494564 
L 266.551801 132.979258 
z
" style="fill:#0000ff;stroke:#000000;stroke-linejoin:miter;"/>
   </g>
   <g id="patch_6">
    <path clip-path="url(#pdbb222dd06)" d="M 254.013767 140.577095 
L 188.781772 140.553077 
L 188.77977 145.989076 
L 254.011766 146.013095 
z
" style="fill:#999999;stroke:#000000;stroke-linejoin:miter;"/>
   </g>
   <g id="text_1">
    <!-- t = 3.4 -->
    <defs>
     <path d="M 18.3125 70.21875 
L 18.3125 54.6875 
L 36.8125 54.6875 
L 36.8125 47.703125 
L 18.3125 47.703125 
L 18.3125 18.015625 
Q 18.3125 11.328125 20.140625 9.421875 
Q 21.96875 7.515625 27.59375 7.515625 
L 36.8125 7.515625 
L 36.8125 0 
L 27.59375 0 
Q 17.1875 0 13.234375 3.875 
Q 9.28125 7.765625 9.28125 18.015625 
L 9.28125 47.703125 
L 2.6875 47.703125 
L 2.6875 54.6875 
L 9.28125 54.6875 
L 9.28125 70.21875 
z
" id="DejaVuSans-116"/>
     <path id="DejaVuSans-32"/>
     <path d="M 10.59375 45.40625 
L 73.1875 45.40625 
L 73.1875 37.203125 
L 10.59375 37.203125 
z
M 10.59375 25.484375 
L 73.1875 25.484375 
L 73.1875 17.1875 
L 10.59375 17.1875 
z
" id="DejaVuSans-61"/>
     <path d="M 40.578125 39.3125 
Q 47.65625 37.796875 51.625 33 
Q 55.609375 28.21875 55.609375 21.1875 
Q 55.609375 10.40625 48.1875 4.484375 
Q 40.765625 -1.421875 27.09375 -1.421875 
Q 22.515625 -1.421875 17.65625 -0.515625 
Q 12.796875 0.390625 7.625 2.203125 
L 7.625 11.71875 
Q 11.71875 9.328125 16.59375 8.109375 
Q 21.484375 6.890625 26.8125 6.890625 
Q 36.078125 6.890625 40.9375 10.546875 
Q 45.796875 14.203125 45.796875 21.1875 
Q 45.796875 27.640625 41.28125 31.265625 
Q 36.765625 34.90625 28.71875 34.90625 
L 20.21875 34.90625 
L 20.21875 43.015625 
L 29.109375 43.015625 
Q 36.375 43.015625 40.234375 45.921875 
Q 44.09375 48.828125 44.09375 54.296875 
Q 44.09375 59.90625 40.109375 62.90625 
Q 36.140625 65.921875 28.71875 65.921875 
Q 24.65625 65.921875 20.015625 65.03125 
Q 15.375 64.15625 9.8125 62.3125 
L 9.8125 71.09375 
Q 15.4375 72.65625 20.34375 73.4375 
Q 25.25 74.21875 29.59375 74.21875 
Q 40.828125 74.21875 47.359375 69.109375 
Q 53.90625 64.015625 53.90625 55.328125 
Q 53.90625 49.265625 50.4375 45.09375 
Q 46.96875 40.921875 40.578125 39.3125 
z
" id="DejaVuSans-51"/>
     <path d="M 10.6875 12.40625 
L 21 12.40625 
L 21 0 
L 10.6875 0 
z
" id="DejaVuSans-46"/>
     <path d="M 37.796875 64.3125 
L 12.890625 25.390625 
L 37.796875 25.390625 
z
M 35.203125 72.90625 
L 47.609375 72.90625 
L 47.609375 25.390625 
L 58.015625 25.390625 
L 58.015625 17.1875 
L 47.609375 17.1875 
L 47.609375 0 
L 37.796875 0 
L 37.796875 17.1875 
L 4.890625 17.1875 
L 4.890625 26.703125 
z
" id="DejaVuSans-52"/>
    </defs>
    <g transform="translate(200.664375 28.56)scale(0.12 -0.12)">
     <use xlink:href="#DejaVuSans-116"/>
     <use x="39.208984" xlink:href="#DejaVuSans-32"/>
     <use x="70.996094" xlink:href="#DejaVuSans-61"/>
     <use x="154.785156" xlink:href="#DejaVuSans-32"/>
     <use x="186.572266" xlink:href="#DejaVuSans-51"/>
     <use x="250.195312" xlink:href="#DejaVuSans-46"/>
     <use x="281.982422" xlink:href="#DejaVuSans-52"/>
    </g>
   </g>
  </g>
 </g>
 <defs>
  <clipPath id="pdbb222dd06">
   <rect height="217.44" width="334.8" x="54" y="34.56"/>
  </clipPath>
 </defs>
</svg>
