<?xml version="1.0" encoding="utf-8" standalone="no"?>
<!DOCTYPE svg PUBLIC "-//W3C//DTD SVG 1.1//EN"
  "http://www.w3.org/Graphics/SVG/1.1/DTD/svg11.dtd">
<!-- Created with matplotlib (https://matplotlib.org/) -->
<svg height="288pt" version="1.1" viewBox="0 0 432 288" width="432pt" xmlns="http://www.w3.org/2000/svg" xmlns:xlink="http://www.w3.org/1999/xlink">
 <defs>
  <style type="text/css">
*{stroke-linecap:butt;stroke-linejoin:round;}
  </style>
 </defs>
 <g id="figure_1">
  <g id="patch_1">
   <path d="M 0 288 
L 432 288 
L 432 0 
L 0 0 
z
" style="fill:#ffffff;"/>
  </g>
  <g id="axes_1">
   <g id="patch_2">
    <path clip-path="url(#p753677dd53)" d="M 194.750621 132.406958 
L 194.749469 143.278958 
L 193.662269 143.278842 
L 193.663421 132.406843 
z
" style="stroke:#000000;stroke-linejoin:miter;"/>
   </g>
   <g id="patch_3">
    <path clip-path="url(#p753677dd53)" d="M 249.110621 132.41272 
L 249.109469 143.28472 
L 248.022269 143.284605 
L 248.023421 132.412605 
z
" style="stroke:#000000;stroke-linejoin:miter;"/>
   </g>
   <g id="patch_4">
    <path clip-path="url(#p753677dd53)" d="M 212.327021 132.408821 
L 212.178315 131.857259 
L 211.734517 131.341742 
L 211.002913 130.895989 
L 209.995513 130.549151 
L 208.728857 130.323912 
L 207.223742 130.234997 
L 205.504881 130.288215 
L 203.600499 130.480074 
L 201.541866 130.798017 
L 199.362787 131.221236 
L 197.099044 131.722035 
L 194.787811 132.267647 
L 192.46704 132.822371 
L 190.174842 133.34991 
L 187.948857 133.815745 
L 185.825639 134.189394 
L 183.840051 134.446407 
L 182.0247 134.569961 
L 180.409393 134.551966 
L 179.020654 134.393589 
L 177.881285 134.105184 
L 177.009993 133.705609 
L 176.421083 133.220995 
L 176.124221 132.683039 
L 176.12428 132.126927 
L 176.421256 131.589034 
L 177.010269 131.104546 
L 177.881646 130.705155 
L 179.021076 130.416992 
L 180.409848 130.258909 
L 182.025159 130.241256 
L 183.840484 130.365195 
L 185.826017 130.622629 
L 187.949156 130.996729 
L 190.175042 131.463036 
L 192.467128 131.99106 
L 194.787781 132.546276 
L 197.098899 133.092378 
L 199.362535 133.593658 
L 201.541525 134.017338 
L 203.60009 134.335717 
L 205.504432 134.527981 
L 207.223281 134.581563 
L 208.728415 134.492967 
L 209.995119 134.267996 
L 211.002593 133.921373 
L 211.734291 133.475774 
L 212.178198 132.960352 
z
" style="fill:#0000ff;stroke:#000000;stroke-linejoin:miter;"/>
   </g>
   <g id="patch_5">
    <path clip-path="url(#p753677dd53)" d="M 266.687021 132.414584 
L 266.538314 131.863021 
L 266.094517 131.347505 
L 265.362913 130.901751 
L 264.355513 130.554914 
L 263.088857 130.329675 
L 261.583742 130.24076 
L 259.864881 130.293977 
L 257.960499 130.485837 
L 255.901866 130.80378 
L 253.722787 131.226998 
L 251.459044 131.727798 
L 249.14781 132.27341 
L 246.82704 132.828134 
L 244.534842 133.355672 
L 242.308857 133.821507 
L 240.185638 134.195157 
L 238.200051 134.45217 
L 236.3847 134.575724 
L 234.769393 134.557728 
L 233.380654 134.399352 
L 232.241285 134.110947 
L 231.369993 133.711371 
L 230.781083 133.226758 
L 230.484221 132.688802 
L 230.48428 132.13269 
L 230.781256 131.594797 
L 231.370269 131.110308 
L 232.241645 130.710918 
L 233.381075 130.422754 
L 234.769848 130.264672 
L 236.385158 130.247019 
L 238.200484 130.370958 
L 240.186016 130.628392 
L 242.309156 131.002492 
L 244.535042 131.468799 
L 246.827128 131.996823 
L 249.147781 132.552039 
L 251.458899 133.098141 
L 253.722535 133.59942 
L 255.901525 134.023101 
L 257.96009 134.34148 
L 259.864431 134.533744 
L 261.583281 134.587325 
L 263.088415 134.49873 
L 264.355119 134.273759 
L 265.362592 133.927135 
L 266.094291 133.481537 
L 266.538198 132.966114 
z
" style="fill:#0000ff;stroke:#000000;stroke-linejoin:miter;"/>
   </g>
   <g id="patch_6">
    <path clip-path="url(#p753677dd53)" d="M 254.002157 140.567239 
L 188.770157 140.560324 
L 188.769581 145.996324 
L 254.00158 146.003239 
z
" style="fill:#999999;stroke:#000000;stroke-linejoin:miter;"/>
   </g>
   <g id="text_1">
    <!-- t = 3.3 -->
    <defs>
     <path d="M 18.3125 70.21875 
L 18.3125 54.6875 
L 36.8125 54.6875 
L 36.8125 47.703125 
L 18.3125 47.703125 
L 18.3125 18.015625 
Q 18.3125 11.328125 20.140625 9.421875 
Q 21.96875 7.515625 27.59375 7.515625 
L 36.8125 7.515625 
L 36.8125 0 
L 27.59375 0 
Q 17.1875 0 13.234375 3.875 
Q 9.28125 7.765625 9.28125 18.015625 
L 9.28125 47.703125 
L 2.6875 47.703125 
L 2.6875 54.6875 
L 9.28125 54.6875 
L 9.28125 70.21875 
z
" id="DejaVuSans-116"/>
     <path id="DejaVuSans-32"/>
     <path d="M 10.59375 45.40625 
L 73.1875 45.40625 
L 73.1875 37.203125 
L 10.59375 37.203125 
z
M 10.59375 25.484375 
L 73.1875 25.484375 
L 73.1875 17.1875 
L 10.59375 17.1875 
z
" id="DejaVuSans-61"/>
     <path d="M 40.578125 39.3125 
Q 47.65625 37.796875 51.625 33 
Q 55.609375 28.21875 55.609375 21.1875 
Q 55.609375 10.40625 48.1875 4.484375 
Q 40.765625 -1.421875 27.09375 -1.421875 
Q 22.515625 -1.421875 17.65625 -0.515625 
Q 12.796875 0.390625 7.625 2.203125 
L 7.625 11.71875 
Q 11.71875 9.328125 16.59375 8.109375 
Q 21.484375 6.890625 26.8125 6.890625 
Q 36.078125 6.890625 40.9375 10.546875 
Q 45.796875 14.203125 45.796875 21.1875 
Q 45.796875 27.640625 41.28125 31.265625 
Q 36.765625 34.90625 28.71875 34.90625 
L 20.21875 34.90625 
L 20.21875 43.015625 
L 29.109375 43.015625 
Q 36.375 43.015625 40.234375 45.921875 
Q 44.09375 48.828125 44.09375 54.296875 
Q 44.09375 59.90625 40.109375 62.90625 
Q 36.140625 65.921875 28.71875 65.921875 
Q 24.65625 65.921875 20.015625 65.03125 
Q 15.375 64.15625 9.8125 62.3125 
L 9.8125 71.09375 
Q 15.4375 72.65625 20.34375 73.4375 
Q 25.25 74.21875 29.59375 74.21875 
Q 40.828125 74.21875 47.359375 69.109375 
Q 53.90625 64.015625 53.90625 55.328125 
Q 53.90625 49.265625 50.4375 45.09375 
Q 46.96875 40.921875 40.578125 39.3125 
z
" id="DejaVuSans-51"/>
     <path d="M 10.6875 12.40625 
L 21 12.40625 
L 21 0 
L 10.6875 0 
z
" id="DejaVuSans-46"/>
    </defs>
    <g transform="translate(200.664375 28.56)scale(0.12 -0.12)">
     <use xlink:href="#DejaVuSans-116"/>
     <use x="39.208984" xlink:href="#DejaVuSans-32"/>
     <use x="70.996094" xlink:href="#DejaVuSans-61"/>
     <use x="154.785156" xlink:href="#DejaVuSans-32"/>
     <use x="186.572266" xlink:href="#DejaVuSans-51"/>
     <use x="250.195312" xlink:href="#DejaVuSans-46"/>
     <use x="281.982422" xlink:href="#DejaVuSans-51"/>
    </g>
   </g>
  </g>
 </g>
 <defs>
  <clipPath id="p753677dd53">
   <rect height="217.44" width="334.8" x="54" y="34.56"/>
  </clipPath>
 </defs>
</svg>
