<?xml version="1.0" encoding="utf-8" standalone="no"?>
<!DOCTYPE svg PUBLIC "-//W3C//DTD SVG 1.1//EN"
  "http://www.w3.org/Graphics/SVG/1.1/DTD/svg11.dtd">
<!-- Created with matplotlib (https://matplotlib.org/) -->
<svg height="288pt" version="1.1" viewBox="0 0 432 288" width="432pt" xmlns="http://www.w3.org/2000/svg" xmlns:xlink="http://www.w3.org/1999/xlink">
 <defs>
  <style type="text/css">
*{stroke-linecap:butt;stroke-linejoin:round;}
  </style>
 </defs>
 <g id="figure_1">
  <g id="patch_1">
   <path d="M 0 288 
L 432 288 
L 432 0 
L 0 0 
z
" style="fill:#ffffff;"/>
  </g>
  <g id="axes_1">
   <g id="patch_2">
    <path clip-path="url(#p96bd716277)" d="M 194.811836 132.400371 
L 194.806549 143.27237 
L 193.719349 143.271841 
L 193.724636 132.399842 
z
" style="stroke:#000000;stroke-linejoin:miter;"/>
   </g>
   <g id="patch_3">
    <path clip-path="url(#p96bd716277)" d="M 249.17183 132.426807 
L 249.166542 143.298806 
L 248.079343 143.298277 
L 248.08463 132.426279 
z
" style="stroke:#000000;stroke-linejoin:miter;"/>
   </g>
   <g id="patch_4">
    <path clip-path="url(#p96bd716277)" d="M 212.388234 132.408919 
L 212.239737 131.8573 
L 211.796136 131.341614 
L 211.064702 130.895583 
L 210.057434 130.548363 
L 208.790863 130.322642 
L 207.285782 130.233154 
L 205.566901 130.285718 
L 203.662446 130.476853 
L 201.603692 130.794013 
L 199.424452 131.216403 
L 197.160519 131.716342 
L 194.849079 132.261075 
L 192.528097 132.814916 
L 190.235699 133.341582 
L 188.009537 133.806571 
L 185.886176 134.179413 
L 183.900491 134.435671 
L 182.085093 134.558534 
L 180.469793 134.539925 
L 179.081115 134.38102 
L 177.941856 134.092181 
L 177.070716 133.692275 
L 176.48199 133.207438 
L 176.185333 132.669369 
L 176.185603 132.113257 
L 176.482783 131.575477 
L 177.071981 131.091212 
L 177.943509 130.692153 
L 179.083049 130.404423 
L 180.471881 130.246869 
L 182.087198 130.22983 
L 183.902476 130.35446 
L 185.887911 130.612648 
L 188.010908 130.987556 
L 190.236616 131.454709 
L 192.528501 131.983605 
L 194.848943 132.539703 
L 197.159853 133.086684 
L 199.423299 133.588825 
L 201.602127 134.013334 
L 203.660571 134.332496 
L 205.564839 134.525484 
L 207.283668 134.579719 
L 208.788836 134.491696 
L 210.055625 134.267207 
L 211.06323 133.920967 
L 211.795098 133.475647 
L 212.239201 132.960393 
z
" style="fill:#0000ff;stroke:#000000;stroke-linejoin:miter;"/>
   </g>
   <g id="patch_5">
    <path clip-path="url(#p96bd716277)" d="M 266.748228 132.435355 
L 266.599731 131.883736 
L 266.15613 131.368051 
L 265.424695 130.922019 
L 264.417427 130.574799 
L 263.150857 130.349078 
L 261.645775 130.25959 
L 259.926895 130.312154 
L 258.02244 130.50329 
L 255.963686 130.82045 
L 253.784446 131.242839 
L 251.520513 131.742778 
L 249.209072 132.287511 
L 246.888091 132.841352 
L 244.595692 133.368019 
L 242.36953 133.833007 
L 240.24617 134.205849 
L 238.260485 134.462107 
L 236.445087 134.584971 
L 234.829787 134.566361 
L 233.441108 134.407456 
L 232.301849 134.118618 
L 231.430709 133.718711 
L 230.841983 133.233874 
L 230.545326 132.695805 
L 230.545597 132.139693 
L 230.842777 131.601913 
L 231.431974 131.117648 
L 232.303503 130.718589 
L 233.443042 130.430859 
L 234.831875 130.273305 
L 236.447192 130.256266 
L 238.26247 130.380896 
L 240.247904 130.639085 
L 242.370901 131.013992 
L 244.59661 131.481145 
L 246.888495 132.010041 
L 249.208937 132.56614 
L 251.519846 133.113121 
L 253.783292 133.615261 
L 255.96212 134.03977 
L 258.020564 134.358932 
L 259.924833 134.55192 
L 261.643662 134.606156 
L 263.148829 134.518132 
L 264.415619 134.293643 
L 265.423224 133.947403 
L 266.155092 133.502083 
L 266.599195 132.986829 
z
" style="fill:#0000ff;stroke:#000000;stroke-linejoin:miter;"/>
   </g>
   <g id="patch_6">
    <path clip-path="url(#p96bd716277)" d="M 254.060264 140.583186 
L 188.828271 140.551462 
L 188.825628 145.987461 
L 254.05762 146.019185 
z
" style="fill:#999999;stroke:#000000;stroke-linejoin:miter;"/>
   </g>
   <g id="text_1">
    <!-- t = 2.8 -->
    <defs>
     <path d="M 18.3125 70.21875 
L 18.3125 54.6875 
L 36.8125 54.6875 
L 36.8125 47.703125 
L 18.3125 47.703125 
L 18.3125 18.015625 
Q 18.3125 11.328125 20.140625 9.421875 
Q 21.96875 7.515625 27.59375 7.515625 
L 36.8125 7.515625 
L 36.8125 0 
L 27.59375 0 
Q 17.1875 0 13.234375 3.875 
Q 9.28125 7.765625 9.28125 18.015625 
L 9.28125 47.703125 
L 2.6875 47.703125 
L 2.6875 54.6875 
L 9.28125 54.6875 
L 9.28125 70.21875 
z
" id="DejaVuSans-116"/>
     <path id="DejaVuSans-32"/>
     <path d="M 10.59375 45.40625 
L 73.1875 45.40625 
L 73.1875 37.203125 
L 10.59375 37.203125 
z
M 10.59375 25.484375 
L 73.1875 25.484375 
L 73.1875 17.1875 
L 10.59375 17.1875 
z
" id="DejaVuSans-61"/>
     <path d="M 19.1875 8.296875 
L 53.609375 8.296875 
L 53.609375 0 
L 7.328125 0 
L 7.328125 8.296875 
Q 12.9375 14.109375 22.625 23.890625 
Q 32.328125 33.6875 34.8125 36.53125 
Q 39.546875 41.84375 41.421875 45.53125 
Q 43.3125 49.21875 43.3125 52.78125 
Q 43.3125 58.59375 39.234375 62.25 
Q 35.15625 65.921875 28.609375 65.921875 
Q 23.96875 65.921875 18.8125 64.3125 
Q 13.671875 62.703125 7.8125 59.421875 
L 7.8125 69.390625 
Q 13.765625 71.78125 18.9375 73 
Q 24.125 74.21875 28.421875 74.21875 
Q 39.75 74.21875 46.484375 68.546875 
Q 53.21875 62.890625 53.21875 53.421875 
Q 53.21875 48.921875 51.53125 44.890625 
Q 49.859375 40.875 45.40625 35.40625 
Q 44.1875 33.984375 37.640625 27.21875 
Q 31.109375 20.453125 19.1875 8.296875 
z
" id="DejaVuSans-50"/>
     <path d="M 10.6875 12.40625 
L 21 12.40625 
L 21 0 
L 10.6875 0 
z
" id="DejaVuSans-46"/>
     <path d="M 31.78125 34.625 
Q 24.75 34.625 20.71875 30.859375 
Q 16.703125 27.09375 16.703125 20.515625 
Q 16.703125 13.921875 20.71875 10.15625 
Q 24.75 6.390625 31.78125 6.390625 
Q 38.8125 6.390625 42.859375 10.171875 
Q 46.921875 13.96875 46.921875 20.515625 
Q 46.921875 27.09375 42.890625 30.859375 
Q 38.875 34.625 31.78125 34.625 
z
M 21.921875 38.8125 
Q 15.578125 40.375 12.03125 44.71875 
Q 8.5 49.078125 8.5 55.328125 
Q 8.5 64.0625 14.71875 69.140625 
Q 20.953125 74.21875 31.78125 74.21875 
Q 42.671875 74.21875 48.875 69.140625 
Q 55.078125 64.0625 55.078125 55.328125 
Q 55.078125 49.078125 51.53125 44.71875 
Q 48 40.375 41.703125 38.8125 
Q 48.828125 37.15625 52.796875 32.3125 
Q 56.78125 27.484375 56.78125 20.515625 
Q 56.78125 9.90625 50.3125 4.234375 
Q 43.84375 -1.421875 31.78125 -1.421875 
Q 19.734375 -1.421875 13.25 4.234375 
Q 6.78125 9.90625 6.78125 20.515625 
Q 6.78125 27.484375 10.78125 32.3125 
Q 14.796875 37.15625 21.921875 38.8125 
z
M 18.3125 54.390625 
Q 18.3125 48.734375 21.84375 45.5625 
Q 25.390625 42.390625 31.78125 42.390625 
Q 38.140625 42.390625 41.71875 45.5625 
Q 45.3125 48.734375 45.3125 54.390625 
Q 45.3125 60.0625 41.71875 63.234375 
Q 38.140625 66.40625 31.78125 66.40625 
Q 25.390625 66.40625 21.84375 63.234375 
Q 18.3125 60.0625 18.3125 54.390625 
z
" id="DejaVuSans-56"/>
    </defs>
    <g transform="translate(200.664375 28.56)scale(0.12 -0.12)">
     <use xlink:href="#DejaVuSans-116"/>
     <use x="39.208984" xlink:href="#DejaVuSans-32"/>
     <use x="70.996094" xlink:href="#DejaVuSans-61"/>
     <use x="154.785156" xlink:href="#DejaVuSans-32"/>
     <use x="186.572266" xlink:href="#DejaVuSans-50"/>
     <use x="250.195312" xlink:href="#DejaVuSans-46"/>
     <use x="281.982422" xlink:href="#DejaVuSans-56"/>
    </g>
   </g>
  </g>
 </g>
 <defs>
  <clipPath id="p96bd716277">
   <rect height="217.44" width="334.8" x="54" y="34.56"/>
  </clipPath>
 </defs>
</svg>
