<?xml version="1.0" encoding="utf-8" standalone="no"?>
<!DOCTYPE svg PUBLIC "-//W3C//DTD SVG 1.1//EN"
  "http://www.w3.org/Graphics/SVG/1.1/DTD/svg11.dtd">
<!-- Created with matplotlib (https://matplotlib.org/) -->
<svg height="288pt" version="1.1" viewBox="0 0 432 288" width="432pt" xmlns="http://www.w3.org/2000/svg" xmlns:xlink="http://www.w3.org/1999/xlink">
 <defs>
  <style type="text/css">
*{stroke-linecap:butt;stroke-linejoin:round;}
  </style>
 </defs>
 <g id="figure_1">
  <g id="patch_1">
   <path d="M 0 288 
L 432 288 
L 432 0 
L 0 0 
z
" style="fill:#ffffff;"/>
  </g>
  <g id="axes_1">
   <g id="patch_2">
    <path clip-path="url(#p44217a9e19)" d="M 195.443161 132.417635 
L 195.407201 143.289575 
L 194.320007 143.285979 
L 194.355967 132.414039 
z
" style="stroke:#000000;stroke-linejoin:miter;"/>
   </g>
   <g id="patch_3">
    <path clip-path="url(#p44217a9e19)" d="M 249.802864 132.597435 
L 249.766904 143.469376 
L 248.67971 143.46578 
L 248.71567 132.593839 
z
" style="stroke:#000000;stroke-linejoin:miter;"/>
   </g>
   <g id="patch_4">
    <path clip-path="url(#p44217a9e19)" d="M 213.019465 132.47577 
L 212.872525 131.923735 
L 212.43038 131.4068 
L 211.700207 130.958706 
L 210.693923 130.608646 
L 209.427994 130.379352 
L 207.923171 130.285619 
L 206.204149 130.333333 
L 204.299162 130.519095 
L 202.239522 130.830445 
L 200.059099 131.246685 
L 197.793765 131.740234 
L 195.480796 132.278444 
L 193.158261 132.825735 
L 190.864386 133.345932 
L 188.636921 133.804638 
L 186.512517 134.171488 
L 184.526117 134.422142 
L 182.71038 134.539884 
L 181.095139 134.516717 
L 179.706914 134.353895 
L 178.568474 134.061843 
L 177.698466 133.659481 
L 177.11111 133.172984 
L 176.815973 132.634081 
L 176.817812 132.077972 
L 177.116508 131.541032 
L 177.70707 131.058432 
L 178.57972 130.661833 
L 179.720067 130.377319 
L 181.109339 130.223684 
L 182.724697 130.211203 
L 184.539616 130.340953 
L 186.524315 130.604742 
L 188.646246 130.985638 
L 190.870627 131.459068 
L 193.161011 131.994429 
L 195.479875 132.557071 
L 197.789232 133.11057 
L 200.051252 133.619094 
L 202.228874 134.049748 
L 204.28641 134.374717 
L 206.190126 134.573076 
L 207.908795 134.632161 
L 209.414205 134.548384 
L 210.681622 134.32747 
L 211.6902 133.984074 
L 212.423322 133.54082 
L 212.868876 133.026822 
z
" style="fill:#0000ff;stroke:#000000;stroke-linejoin:miter;"/>
   </g>
   <g id="patch_5">
    <path clip-path="url(#p44217a9e19)" d="M 267.379168 132.655571 
L 267.232228 132.103535 
L 266.790083 131.5866 
L 266.05991 131.138507 
L 265.053625 130.788446 
L 263.787697 130.559153 
L 262.282874 130.465419 
L 260.563852 130.513133 
L 258.658865 130.698895 
L 256.599225 131.010246 
L 254.418802 131.426485 
L 252.153467 131.920035 
L 249.840499 132.458245 
L 247.517964 133.005535 
L 245.224089 133.525732 
L 242.996624 133.984438 
L 240.87222 134.351288 
L 238.88582 134.601943 
L 237.070082 134.719684 
L 235.454842 134.696517 
L 234.066617 134.533696 
L 232.928177 134.241644 
L 232.058169 133.839281 
L 231.470813 133.352785 
L 231.175675 132.813881 
L 231.177515 132.257772 
L 231.476211 131.720833 
L 232.066772 131.238232 
L 232.939423 130.841634 
L 234.07977 130.55712 
L 235.469041 130.403485 
L 237.0844 130.391003 
L 238.899319 130.520754 
L 240.884017 130.784543 
L 243.005948 131.165438 
L 245.23033 131.638869 
L 247.520714 132.174229 
L 249.839577 132.736872 
L 252.148935 133.29037 
L 254.410955 133.798894 
L 256.588577 134.229549 
L 258.646112 134.554517 
L 260.549828 134.752877 
L 262.268497 134.811961 
L 263.773907 134.728185 
L 265.041325 134.507271 
L 266.049903 134.163874 
L 266.783024 133.720621 
L 267.228579 133.206622 
z
" style="fill:#0000ff;stroke:#000000;stroke-linejoin:miter;"/>
   </g>
   <g id="patch_6">
    <path clip-path="url(#p44217a9e19)" d="M 254.668267 140.767573 
L 189.436624 140.551812 
L 189.418644 145.987782 
L 254.650287 146.203543 
z
" style="fill:#999999;stroke:#000000;stroke-linejoin:miter;"/>
   </g>
   <g id="text_1">
    <!-- t = 2.4 -->
    <defs>
     <path d="M 18.3125 70.21875 
L 18.3125 54.6875 
L 36.8125 54.6875 
L 36.8125 47.703125 
L 18.3125 47.703125 
L 18.3125 18.015625 
Q 18.3125 11.328125 20.140625 9.421875 
Q 21.96875 7.515625 27.59375 7.515625 
L 36.8125 7.515625 
L 36.8125 0 
L 27.59375 0 
Q 17.1875 0 13.234375 3.875 
Q 9.28125 7.765625 9.28125 18.015625 
L 9.28125 47.703125 
L 2.6875 47.703125 
L 2.6875 54.6875 
L 9.28125 54.6875 
L 9.28125 70.21875 
z
" id="DejaVuSans-116"/>
     <path id="DejaVuSans-32"/>
     <path d="M 10.59375 45.40625 
L 73.1875 45.40625 
L 73.1875 37.203125 
L 10.59375 37.203125 
z
M 10.59375 25.484375 
L 73.1875 25.484375 
L 73.1875 17.1875 
L 10.59375 17.1875 
z
" id="DejaVuSans-61"/>
     <path d="M 19.1875 8.296875 
L 53.609375 8.296875 
L 53.609375 0 
L 7.328125 0 
L 7.328125 8.296875 
Q 12.9375 14.109375 22.625 23.890625 
Q 32.328125 33.6875 34.8125 36.53125 
Q 39.546875 41.84375 41.421875 45.53125 
Q 43.3125 49.21875 43.3125 52.78125 
Q 43.3125 58.59375 39.234375 62.25 
Q 35.15625 65.921875 28.609375 65.921875 
Q 23.96875 65.921875 18.8125 64.3125 
Q 13.671875 62.703125 7.8125 59.421875 
L 7.8125 69.390625 
Q 13.765625 71.78125 18.9375 73 
Q 24.125 74.21875 28.421875 74.21875 
Q 39.75 74.21875 46.484375 68.546875 
Q 53.21875 62.890625 53.21875 53.421875 
Q 53.21875 48.921875 51.53125 44.890625 
Q 49.859375 40.875 45.40625 35.40625 
Q 44.1875 33.984375 37.640625 27.21875 
Q 31.109375 20.453125 19.1875 8.296875 
z
" id="DejaVuSans-50"/>
     <path d="M 10.6875 12.40625 
L 21 12.40625 
L 21 0 
L 10.6875 0 
z
" id="DejaVuSans-46"/>
     <path d="M 37.796875 64.3125 
L 12.890625 25.390625 
L 37.796875 25.390625 
z
M 35.203125 72.90625 
L 47.609375 72.90625 
L 47.609375 25.390625 
L 58.015625 25.390625 
L 58.015625 17.1875 
L 47.609375 17.1875 
L 47.609375 0 
L 37.796875 0 
L 37.796875 17.1875 
L 4.890625 17.1875 
L 4.890625 26.703125 
z
" id="DejaVuSans-52"/>
    </defs>
    <g transform="translate(200.664375 28.56)scale(0.12 -0.12)">
     <use xlink:href="#DejaVuSans-116"/>
     <use x="39.208984" xlink:href="#DejaVuSans-32"/>
     <use x="70.996094" xlink:href="#DejaVuSans-61"/>
     <use x="154.785156" xlink:href="#DejaVuSans-32"/>
     <use x="186.572266" xlink:href="#DejaVuSans-50"/>
     <use x="250.195312" xlink:href="#DejaVuSans-46"/>
     <use x="281.982422" xlink:href="#DejaVuSans-52"/>
    </g>
   </g>
  </g>
 </g>
 <defs>
  <clipPath id="p44217a9e19">
   <rect height="217.44" width="334.8" x="54" y="34.56"/>
  </clipPath>
 </defs>
</svg>
