<?xml version="1.0" encoding="utf-8" standalone="no"?>
<!DOCTYPE svg PUBLIC "-//W3C//DTD SVG 1.1//EN"
  "http://www.w3.org/Graphics/SVG/1.1/DTD/svg11.dtd">
<!-- Created with matplotlib (https://matplotlib.org/) -->
<svg height="288pt" version="1.1" viewBox="0 0 432 288" width="432pt" xmlns="http://www.w3.org/2000/svg" xmlns:xlink="http://www.w3.org/1999/xlink">
 <defs>
  <style type="text/css">
*{stroke-linecap:butt;stroke-linejoin:round;}
  </style>
 </defs>
 <g id="figure_1">
  <g id="patch_1">
   <path d="M 0 288 
L 432 288 
L 432 0 
L 0 0 
z
" style="fill:#ffffff;"/>
  </g>
  <g id="axes_1">
   <g id="patch_2">
    <path clip-path="url(#pcb509e9fa9)" d="M 194.765724 132.407886 
L 194.765832 143.279886 
L 193.678632 143.279897 
L 193.678524 132.407897 
z
" style="stroke:#000000;stroke-linejoin:miter;"/>
   </g>
   <g id="patch_3">
    <path clip-path="url(#pcb509e9fa9)" d="M 249.125724 132.407345 
L 249.125832 143.279345 
L 248.038632 143.279356 
L 248.038524 132.407356 
z
" style="stroke:#000000;stroke-linejoin:miter;"/>
   </g>
   <g id="patch_4">
    <path clip-path="url(#pcb509e9fa9)" d="M 212.342124 132.407711 
L 212.193353 131.856166 
L 211.749496 131.340701 
L 211.01784 130.895032 
L 210.0104 130.548312 
L 208.743718 130.32322 
L 207.238592 130.234479 
L 205.519738 130.287896 
L 203.615378 130.479976 
L 201.556782 130.798158 
L 199.377752 131.221629 
L 197.114067 131.722691 
L 194.802897 132.268571 
L 192.482191 132.823564 
L 190.190054 133.351368 
L 187.964123 133.817462 
L 185.840948 134.191357 
L 183.85539 134.4486 
L 182.040053 134.572365 
L 180.424744 134.554557 
L 179.035987 134.396341 
L 177.896585 134.108068 
L 177.025247 133.708594 
L 176.43628 133.224049 
L 176.139356 132.686128 
L 176.139351 132.130015 
L 176.436264 131.592088 
L 177.025221 131.107531 
L 177.896551 130.70804 
L 179.035948 130.419744 
L 180.424702 130.261501 
L 182.04001 130.24366 
L 183.85535 130.367389 
L 185.840912 130.624592 
L 187.964095 130.998446 
L 190.190035 131.464495 
L 192.482182 131.992253 
L 194.8029 132.5472 
L 197.114081 133.093034 
L 199.377776 133.594051 
L 201.556814 134.017479 
L 203.615416 134.33562 
L 205.51978 134.527662 
L 207.238636 134.581045 
L 208.743759 134.492274 
L 210.010437 134.267157 
L 211.017871 133.920416 
L 211.749517 133.474733 
L 212.193364 132.959259 
z
" style="fill:#0000ff;stroke:#000000;stroke-linejoin:miter;"/>
   </g>
   <g id="patch_5">
    <path clip-path="url(#pcb509e9fa9)" d="M 266.702124 132.40717 
L 266.553353 131.855625 
L 266.109496 131.34016 
L 265.37784 130.894491 
L 264.3704 130.547771 
L 263.103718 130.322679 
L 261.598592 130.233938 
L 259.879738 130.287355 
L 257.975378 130.479435 
L 255.916782 130.797617 
L 253.737752 131.221088 
L 251.474067 131.72215 
L 249.162897 132.26803 
L 246.842191 132.823023 
L 244.550054 133.350827 
L 242.324123 133.816921 
L 240.200948 134.190816 
L 238.21539 134.448059 
L 236.400053 134.571824 
L 234.784744 134.554016 
L 233.395987 134.3958 
L 232.256585 134.107527 
L 231.385247 133.708053 
L 230.79628 133.223508 
L 230.499356 132.685587 
L 230.499351 132.129474 
L 230.796264 131.591547 
L 231.385221 131.10699 
L 232.256551 130.707499 
L 233.395948 130.419203 
L 234.784702 130.26096 
L 236.40001 130.243119 
L 238.21535 130.366848 
L 240.200912 130.624051 
L 242.324095 130.997905 
L 244.550035 131.463954 
L 246.842182 131.991712 
L 249.1629 132.546659 
L 251.474081 133.092493 
L 253.737776 133.59351 
L 255.916814 134.016938 
L 257.975416 134.335078 
L 259.87978 134.527121 
L 261.598636 134.580504 
L 263.103759 134.491733 
L 264.370437 134.266616 
L 265.377871 133.919875 
L 266.109517 133.474192 
L 266.553364 132.958718 
z
" style="fill:#0000ff;stroke:#000000;stroke-linejoin:miter;"/>
   </g>
   <g id="patch_6">
    <path clip-path="url(#pcb509e9fa9)" d="M 254.018205 140.561296 
L 188.786205 140.561946 
L 188.786259 145.997946 
L 254.018259 145.997296 
z
" style="fill:#999999;stroke:#000000;stroke-linejoin:miter;"/>
   </g>
   <g id="text_1">
    <!-- t = 3.5 -->
    <defs>
     <path d="M 18.3125 70.21875 
L 18.3125 54.6875 
L 36.8125 54.6875 
L 36.8125 47.703125 
L 18.3125 47.703125 
L 18.3125 18.015625 
Q 18.3125 11.328125 20.140625 9.421875 
Q 21.96875 7.515625 27.59375 7.515625 
L 36.8125 7.515625 
L 36.8125 0 
L 27.59375 0 
Q 17.1875 0 13.234375 3.875 
Q 9.28125 7.765625 9.28125 18.015625 
L 9.28125 47.703125 
L 2.6875 47.703125 
L 2.6875 54.6875 
L 9.28125 54.6875 
L 9.28125 70.21875 
z
" id="DejaVuSans-116"/>
     <path id="DejaVuSans-32"/>
     <path d="M 10.59375 45.40625 
L 73.1875 45.40625 
L 73.1875 37.203125 
L 10.59375 37.203125 
z
M 10.59375 25.484375 
L 73.1875 25.484375 
L 73.1875 17.1875 
L 10.59375 17.1875 
z
" id="DejaVuSans-61"/>
     <path d="M 40.578125 39.3125 
Q 47.65625 37.796875 51.625 33 
Q 55.609375 28.21875 55.609375 21.1875 
Q 55.609375 10.40625 48.1875 4.484375 
Q 40.765625 -1.421875 27.09375 -1.421875 
Q 22.515625 -1.421875 17.65625 -0.515625 
Q 12.796875 0.390625 7.625 2.203125 
L 7.625 11.71875 
Q 11.71875 9.328125 16.59375 8.109375 
Q 21.484375 6.890625 26.8125 6.890625 
Q 36.078125 6.890625 40.9375 10.546875 
Q 45.796875 14.203125 45.796875 21.1875 
Q 45.796875 27.640625 41.28125 31.265625 
Q 36.765625 34.90625 28.71875 34.90625 
L 20.21875 34.90625 
L 20.21875 43.015625 
L 29.109375 43.015625 
Q 36.375 43.015625 40.234375 45.921875 
Q 44.09375 48.828125 44.09375 54.296875 
Q 44.09375 59.90625 40.109375 62.90625 
Q 36.140625 65.921875 28.71875 65.921875 
Q 24.65625 65.921875 20.015625 65.03125 
Q 15.375 64.15625 9.8125 62.3125 
L 9.8125 71.09375 
Q 15.4375 72.65625 20.34375 73.4375 
Q 25.25 74.21875 29.59375 74.21875 
Q 40.828125 74.21875 47.359375 69.109375 
Q 53.90625 64.015625 53.90625 55.328125 
Q 53.90625 49.265625 50.4375 45.09375 
Q 46.96875 40.921875 40.578125 39.3125 
z
" id="DejaVuSans-51"/>
     <path d="M 10.6875 12.40625 
L 21 12.40625 
L 21 0 
L 10.6875 0 
z
" id="DejaVuSans-46"/>
     <path d="M 10.796875 72.90625 
L 49.515625 72.90625 
L 49.515625 64.59375 
L 19.828125 64.59375 
L 19.828125 46.734375 
Q 21.96875 47.46875 24.109375 47.828125 
Q 26.265625 48.1875 28.421875 48.1875 
Q 40.625 48.1875 47.75 41.5 
Q 54.890625 34.8125 54.890625 23.390625 
Q 54.890625 11.625 47.5625 5.09375 
Q 40.234375 -1.421875 26.90625 -1.421875 
Q 22.3125 -1.421875 17.546875 -0.640625 
Q 12.796875 0.140625 7.71875 1.703125 
L 7.71875 11.625 
Q 12.109375 9.234375 16.796875 8.0625 
Q 21.484375 6.890625 26.703125 6.890625 
Q 35.15625 6.890625 40.078125 11.328125 
Q 45.015625 15.765625 45.015625 23.390625 
Q 45.015625 31 40.078125 35.4375 
Q 35.15625 39.890625 26.703125 39.890625 
Q 22.75 39.890625 18.8125 39.015625 
Q 14.890625 38.140625 10.796875 36.28125 
z
" id="DejaVuSans-53"/>
    </defs>
    <g transform="translate(200.664375 28.56)scale(0.12 -0.12)">
     <use xlink:href="#DejaVuSans-116"/>
     <use x="39.208984" xlink:href="#DejaVuSans-32"/>
     <use x="70.996094" xlink:href="#DejaVuSans-61"/>
     <use x="154.785156" xlink:href="#DejaVuSans-32"/>
     <use x="186.572266" xlink:href="#DejaVuSans-51"/>
     <use x="250.195312" xlink:href="#DejaVuSans-46"/>
     <use x="281.982422" xlink:href="#DejaVuSans-53"/>
    </g>
   </g>
  </g>
 </g>
 <defs>
  <clipPath id="pcb509e9fa9">
   <rect height="217.44" width="334.8" x="54" y="34.56"/>
  </clipPath>
 </defs>
</svg>
