<?xml version="1.0" encoding="utf-8" standalone="no"?>
<!DOCTYPE svg PUBLIC "-//W3C//DTD SVG 1.1//EN"
  "http://www.w3.org/Graphics/SVG/1.1/DTD/svg11.dtd">
<!-- Created with matplotlib (https://matplotlib.org/) -->
<svg height="288pt" version="1.1" viewBox="0 0 432 288" width="432pt" xmlns="http://www.w3.org/2000/svg" xmlns:xlink="http://www.w3.org/1999/xlink">
 <defs>
  <style type="text/css">
*{stroke-linecap:butt;stroke-linejoin:round;}
  </style>
 </defs>
 <g id="figure_1">
  <g id="patch_1">
   <path d="M 0 288 
L 432 288 
L 432 0 
L 0 0 
z
" style="fill:#ffffff;"/>
  </g>
  <g id="axes_1">
   <g id="patch_2">
    <path clip-path="url(#pc8e0e9c651)" d="M 195.683381 132.611588 
L 195.70387 143.483569 
L 194.616672 143.485618 
L 194.596183 132.613637 
z
" style="stroke:#000000;stroke-linejoin:miter;"/>
   </g>
   <g id="patch_3">
    <path clip-path="url(#pc8e0e9c651)" d="M 250.043284 132.509143 
L 250.063773 143.381123 
L 248.976575 143.383172 
L 248.956086 132.511192 
z
" style="stroke:#000000;stroke-linejoin:miter;"/>
   </g>
   <g id="patch_4">
    <path clip-path="url(#pc8e0e9c651)" d="M 213.25975 132.578464 
L 213.109945 132.027199 
L 212.665123 131.512567 
L 211.932633 131.06827 
L 210.924544 130.723439 
L 209.657442 130.500722 
L 208.152153 130.414803 
L 206.433402 130.471442 
L 204.529405 130.667092 
L 202.471409 130.989132 
L 200.293177 131.416687 
L 198.030435 131.921992 
L 195.720293 132.472204 
L 193.400631 133.031546 
L 191.109488 133.563647 
L 188.884434 134.033912 
L 186.761964 134.411787 
L 184.776892 134.672752 
L 182.96179 134.799919 
L 181.346451 134.785139 
L 179.957399 134.629527 
L 178.817459 134.343391 
L 177.945373 133.945551 
L 177.355499 133.462111 
L 177.057567 132.924747 
L 177.056519 132.368635 
L 177.352424 131.830152 
L 177.940471 131.344492 
L 178.811051 130.943368 
L 179.949905 130.652937 
L 181.33836 130.492091 
L 182.953632 130.471222 
L 184.769201 130.591547 
L 186.755242 130.845028 
L 188.879122 131.214901 
L 191.105932 131.676776 
L 193.399064 132.200237 
L 195.720818 132.750832 
L 198.033018 133.292333 
L 200.297648 133.789105 
L 202.477476 134.208448 
L 204.536672 134.522728 
L 206.441392 134.711201 
L 208.160345 134.761361 
L 209.665299 134.669769 
L 210.931553 134.442278 
L 211.938334 134.093649 
L 212.669144 133.646595 
L 213.112024 133.13029 
z
" style="fill:#0000ff;stroke:#000000;stroke-linejoin:miter;"/>
   </g>
   <g id="patch_5">
    <path clip-path="url(#pc8e0e9c651)" d="M 267.619653 132.476019 
L 267.469849 131.924753 
L 267.025026 131.410121 
L 266.292536 130.965825 
L 265.284448 130.620994 
L 264.017346 130.398276 
L 262.512057 130.312358 
L 260.793305 130.368996 
L 258.889309 130.564647 
L 256.831313 130.886687 
L 254.65308 131.314242 
L 252.390339 131.819547 
L 250.080196 132.369759 
L 247.760534 132.929101 
L 245.469391 133.461201 
L 243.244338 133.931466 
L 241.121867 134.309342 
L 239.136795 134.570306 
L 237.321694 134.697474 
L 235.706354 134.682694 
L 234.317303 134.527082 
L 233.177362 134.240945 
L 232.305277 133.843105 
L 231.715403 133.359665 
L 231.417471 132.822301 
L 231.416423 132.26619 
L 231.712327 131.727707 
L 232.300375 131.242047 
L 233.170955 130.840923 
L 234.309809 130.550491 
L 235.698264 130.389645 
L 237.313536 130.368777 
L 239.129104 130.489102 
L 241.115145 130.742583 
L 243.239025 131.112456 
L 245.465835 131.574331 
L 247.758968 132.097792 
L 250.080721 132.648387 
L 252.392921 133.189887 
L 254.657551 133.68666 
L 256.83738 134.106002 
L 258.896575 134.420283 
L 260.801295 134.608755 
L 262.520248 134.658916 
L 264.025203 134.567324 
L 265.291456 134.339832 
L 266.298238 133.991204 
L 267.029048 133.54415 
L 267.471928 133.027845 
z
" style="fill:#0000ff;stroke:#000000;stroke-linejoin:miter;"/>
   </g>
   <g id="patch_6">
    <path clip-path="url(#pc8e0e9c651)" d="M 254.951042 140.653908 
L 189.719158 140.776843 
L 189.729403 146.212833 
L 254.961287 146.089898 
z
" style="fill:#999999;stroke:#000000;stroke-linejoin:miter;"/>
   </g>
   <g id="text_1">
    <!-- t = 2.2 -->
    <defs>
     <path d="M 18.3125 70.21875 
L 18.3125 54.6875 
L 36.8125 54.6875 
L 36.8125 47.703125 
L 18.3125 47.703125 
L 18.3125 18.015625 
Q 18.3125 11.328125 20.140625 9.421875 
Q 21.96875 7.515625 27.59375 7.515625 
L 36.8125 7.515625 
L 36.8125 0 
L 27.59375 0 
Q 17.1875 0 13.234375 3.875 
Q 9.28125 7.765625 9.28125 18.015625 
L 9.28125 47.703125 
L 2.6875 47.703125 
L 2.6875 54.6875 
L 9.28125 54.6875 
L 9.28125 70.21875 
z
" id="DejaVuSans-116"/>
     <path id="DejaVuSans-32"/>
     <path d="M 10.59375 45.40625 
L 73.1875 45.40625 
L 73.1875 37.203125 
L 10.59375 37.203125 
z
M 10.59375 25.484375 
L 73.1875 25.484375 
L 73.1875 17.1875 
L 10.59375 17.1875 
z
" id="DejaVuSans-61"/>
     <path d="M 19.1875 8.296875 
L 53.609375 8.296875 
L 53.609375 0 
L 7.328125 0 
L 7.328125 8.296875 
Q 12.9375 14.109375 22.625 23.890625 
Q 32.328125 33.6875 34.8125 36.53125 
Q 39.546875 41.84375 41.421875 45.53125 
Q 43.3125 49.21875 43.3125 52.78125 
Q 43.3125 58.59375 39.234375 62.25 
Q 35.15625 65.921875 28.609375 65.921875 
Q 23.96875 65.921875 18.8125 64.3125 
Q 13.671875 62.703125 7.8125 59.421875 
L 7.8125 69.390625 
Q 13.765625 71.78125 18.9375 73 
Q 24.125 74.21875 28.421875 74.21875 
Q 39.75 74.21875 46.484375 68.546875 
Q 53.21875 62.890625 53.21875 53.421875 
Q 53.21875 48.921875 51.53125 44.890625 
Q 49.859375 40.875 45.40625 35.40625 
Q 44.1875 33.984375 37.640625 27.21875 
Q 31.109375 20.453125 19.1875 8.296875 
z
" id="DejaVuSans-50"/>
     <path d="M 10.6875 12.40625 
L 21 12.40625 
L 21 0 
L 10.6875 0 
z
" id="DejaVuSans-46"/>
    </defs>
    <g transform="translate(200.664375 28.56)scale(0.12 -0.12)">
     <use xlink:href="#DejaVuSans-116"/>
     <use x="39.208984" xlink:href="#DejaVuSans-32"/>
     <use x="70.996094" xlink:href="#DejaVuSans-61"/>
     <use x="154.785156" xlink:href="#DejaVuSans-32"/>
     <use x="186.572266" xlink:href="#DejaVuSans-50"/>
     <use x="250.195312" xlink:href="#DejaVuSans-46"/>
     <use x="281.982422" xlink:href="#DejaVuSans-50"/>
    </g>
   </g>
  </g>
 </g>
 <defs>
  <clipPath id="pc8e0e9c651">
   <rect height="217.44" width="334.8" x="54" y="34.56"/>
  </clipPath>
 </defs>
</svg>
