<?xml version="1.0" encoding="utf-8" standalone="no"?>
<!DOCTYPE svg PUBLIC "-//W3C//DTD SVG 1.1//EN"
  "http://www.w3.org/Graphics/SVG/1.1/DTD/svg11.dtd">
<!-- Created with matplotlib (https://matplotlib.org/) -->
<svg height="288pt" version="1.1" viewBox="0 0 432 288" width="432pt" xmlns="http://www.w3.org/2000/svg" xmlns:xlink="http://www.w3.org/1999/xlink">
 <defs>
  <style type="text/css">
*{stroke-linecap:butt;stroke-linejoin:round;}
  </style>
 </defs>
 <g id="figure_1">
  <g id="patch_1">
   <path d="M 0 288 
L 432 288 
L 432 0 
L 0 0 
z
" style="fill:#ffffff;"/>
  </g>
  <g id="axes_1">
   <g id="patch_2">
    <path clip-path="url(#p1cb88b8e27)" d="M 315.475087 94.621667 
L 313.53573 105.319296 
L 312.465967 105.12536 
L 314.405324 94.427731 
z
" style="stroke:#000000;stroke-linejoin:miter;"/>
   </g>
   <g id="patch_3">
    <path clip-path="url(#p1cb88b8e27)" d="M 368.963234 104.318455 
L 367.023877 115.016084 
L 365.954114 114.822148 
L 367.893471 104.124519 
z
" style="stroke:#000000;stroke-linejoin:miter;"/>
   </g>
   <g id="patch_4">
    <path clip-path="url(#p1cb88b8e27)" d="M 332.769588 97.756961 
L 332.721595 97.187724 
L 332.376811 96.601347 
L 331.736394 96.032306 
L 330.806966 95.51143 
L 329.600756 95.063983 
L 328.135603 94.708166 
L 326.434791 94.454098 
L 324.526712 94.303378 
L 322.444375 94.249221 
L 320.224754 94.277181 
L 317.907995 94.366385 
L 315.536517 94.491218 
L 313.154029 94.623316 
L 310.804504 94.733758 
L 308.531131 94.79529 
L 306.375312 94.784433 
L 304.375714 94.683345 
L 302.567417 94.481285 
L 300.981195 94.175606 
L 299.642938 93.772187 
L 298.573237 93.285279 
L 297.787138 92.736774 
L 297.294057 92.154935 
L 297.097856 91.572674 
L 297.197056 91.025481 
L 297.585167 90.549148 
L 298.251118 90.177428 
L 299.179737 89.939782 
L 300.352287 89.859368 
L 301.746994 89.951404 
L 303.339575 90.222006 
L 305.103724 90.66759 
L 307.011555 91.274874 
L 309.033989 92.021487 
L 311.141086 92.877147 
L 313.302319 93.805338 
L 315.486815 94.765378 
L 317.663552 95.71475 
L 319.801559 96.611553 
L 321.87011 97.416909 
L 323.838938 98.097182 
L 325.678497 98.625865 
L 327.360259 98.985019 
L 328.857076 99.166173 
L 330.143595 99.17063 
L 331.196724 99.009168 
L 331.99614 98.701153 
L 332.524824 98.273125 
z
" style="fill:#0000ff;stroke:#000000;stroke-linejoin:miter;"/>
   </g>
   <g id="patch_5">
    <path clip-path="url(#p1cb88b8e27)" d="M 386.257735 107.45375 
L 386.209742 106.884512 
L 385.864958 106.298135 
L 385.224542 105.729095 
L 384.295113 105.208218 
L 383.088903 104.760772 
L 381.62375 104.404954 
L 379.922938 104.150886 
L 378.014859 104.000166 
L 375.932523 103.946009 
L 373.712902 103.973969 
L 371.396142 104.063174 
L 369.024664 104.188006 
L 366.642177 104.320104 
L 364.292651 104.430546 
L 362.019278 104.492078 
L 359.863459 104.481221 
L 357.863861 104.380133 
L 356.055564 104.178073 
L 354.469342 103.872395 
L 353.131085 103.468975 
L 352.061384 102.982068 
L 351.275285 102.433562 
L 350.782204 101.851723 
L 350.586003 101.269462 
L 350.685203 100.722269 
L 351.073315 100.245936 
L 351.739265 99.874216 
L 352.667885 99.63657 
L 353.840434 99.556156 
L 355.235141 99.648193 
L 356.827723 99.918794 
L 358.591871 100.364378 
L 360.499702 100.971662 
L 362.522137 101.718275 
L 364.629233 102.573935 
L 366.790467 103.502126 
L 368.974962 104.462166 
L 371.151699 105.411538 
L 373.289707 106.308341 
L 375.358257 107.113697 
L 377.327086 107.79397 
L 379.166644 108.322653 
L 380.848406 108.681807 
L 382.345223 108.862961 
L 383.631742 108.867418 
L 384.684871 108.705956 
L 385.484288 108.397941 
L 386.012971 107.969913 
z
" style="fill:#0000ff;stroke:#000000;stroke-linejoin:miter;"/>
   </g>
   <g id="patch_6">
    <path clip-path="url(#p1cb88b8e27)" d="M 372.322649 113.214388 
L 308.136873 101.578242 
L 307.167194 106.927057 
L 371.352971 118.563203 
z
" style="fill:#999999;stroke:#000000;stroke-linejoin:miter;"/>
   </g>
   <g id="text_1">
    <!-- t = 0.5 -->
    <defs>
     <path d="M 18.3125 70.21875 
L 18.3125 54.6875 
L 36.8125 54.6875 
L 36.8125 47.703125 
L 18.3125 47.703125 
L 18.3125 18.015625 
Q 18.3125 11.328125 20.140625 9.421875 
Q 21.96875 7.515625 27.59375 7.515625 
L 36.8125 7.515625 
L 36.8125 0 
L 27.59375 0 
Q 17.1875 0 13.234375 3.875 
Q 9.28125 7.765625 9.28125 18.015625 
L 9.28125 47.703125 
L 2.6875 47.703125 
L 2.6875 54.6875 
L 9.28125 54.6875 
L 9.28125 70.21875 
z
" id="DejaVuSans-116"/>
     <path id="DejaVuSans-32"/>
     <path d="M 10.59375 45.40625 
L 73.1875 45.40625 
L 73.1875 37.203125 
L 10.59375 37.203125 
z
M 10.59375 25.484375 
L 73.1875 25.484375 
L 73.1875 17.1875 
L 10.59375 17.1875 
z
" id="DejaVuSans-61"/>
     <path d="M 31.78125 66.40625 
Q 24.171875 66.40625 20.328125 58.90625 
Q 16.5 51.421875 16.5 36.375 
Q 16.5 21.390625 20.328125 13.890625 
Q 24.171875 6.390625 31.78125 6.390625 
Q 39.453125 6.390625 43.28125 13.890625 
Q 47.125 21.390625 47.125 36.375 
Q 47.125 51.421875 43.28125 58.90625 
Q 39.453125 66.40625 31.78125 66.40625 
z
M 31.78125 74.21875 
Q 44.046875 74.21875 50.515625 64.515625 
Q 56.984375 54.828125 56.984375 36.375 
Q 56.984375 17.96875 50.515625 8.265625 
Q 44.046875 -1.421875 31.78125 -1.421875 
Q 19.53125 -1.421875 13.0625 8.265625 
Q 6.59375 17.96875 6.59375 36.375 
Q 6.59375 54.828125 13.0625 64.515625 
Q 19.53125 74.21875 31.78125 74.21875 
z
" id="DejaVuSans-48"/>
     <path d="M 10.6875 12.40625 
L 21 12.40625 
L 21 0 
L 10.6875 0 
z
" id="DejaVuSans-46"/>
     <path d="M 10.796875 72.90625 
L 49.515625 72.90625 
L 49.515625 64.59375 
L 19.828125 64.59375 
L 19.828125 46.734375 
Q 21.96875 47.46875 24.109375 47.828125 
Q 26.265625 48.1875 28.421875 48.1875 
Q 40.625 48.1875 47.75 41.5 
Q 54.890625 34.8125 54.890625 23.390625 
Q 54.890625 11.625 47.5625 5.09375 
Q 40.234375 -1.421875 26.90625 -1.421875 
Q 22.3125 -1.421875 17.546875 -0.640625 
Q 12.796875 0.140625 7.71875 1.703125 
L 7.71875 11.625 
Q 12.109375 9.234375 16.796875 8.0625 
Q 21.484375 6.890625 26.703125 6.890625 
Q 35.15625 6.890625 40.078125 11.328125 
Q 45.015625 15.765625 45.015625 23.390625 
Q 45.015625 31 40.078125 35.4375 
Q 35.15625 39.890625 26.703125 39.890625 
Q 22.75 39.890625 18.8125 39.015625 
Q 14.890625 38.140625 10.796875 36.28125 
z
" id="DejaVuSans-53"/>
    </defs>
    <g transform="translate(200.664375 28.56)scale(0.12 -0.12)">
     <use xlink:href="#DejaVuSans-116"/>
     <use x="39.208984" xlink:href="#DejaVuSans-32"/>
     <use x="70.996094" xlink:href="#DejaVuSans-61"/>
     <use x="154.785156" xlink:href="#DejaVuSans-32"/>
     <use x="186.572266" xlink:href="#DejaVuSans-48"/>
     <use x="250.195312" xlink:href="#DejaVuSans-46"/>
     <use x="281.982422" xlink:href="#DejaVuSans-53"/>
    </g>
   </g>
  </g>
 </g>
 <defs>
  <clipPath id="p1cb88b8e27">
   <rect height="217.44" width="334.8" x="54" y="34.56"/>
  </clipPath>
 </defs>
</svg>
