<?xml version="1.0" encoding="utf-8" standalone="no"?>
<!DOCTYPE svg PUBLIC "-//W3C//DTD SVG 1.1//EN"
  "http://www.w3.org/Graphics/SVG/1.1/DTD/svg11.dtd">
<!-- Created with matplotlib (https://matplotlib.org/) -->
<svg height="288pt" version="1.1" viewBox="0 0 432 288" width="432pt" xmlns="http://www.w3.org/2000/svg" xmlns:xlink="http://www.w3.org/1999/xlink">
 <defs>
  <style type="text/css">
*{stroke-linecap:butt;stroke-linejoin:round;}
  </style>
 </defs>
 <g id="figure_1">
  <g id="patch_1">
   <path d="M 0 288 
L 432 288 
L 432 0 
L 0 0 
z
" style="fill:#ffffff;"/>
  </g>
  <g id="axes_1">
   <g id="patch_2">
    <path clip-path="url(#pb5bb5591f6)" d="M 194.767476 132.40901 
L 194.767747 143.28101 
L 193.680547 143.281037 
L 193.680276 132.409037 
z
" style="stroke:#000000;stroke-linejoin:miter;"/>
   </g>
   <g id="patch_3">
    <path clip-path="url(#pb5bb5591f6)" d="M 249.127476 132.407652 
L 249.127747 143.279652 
L 248.040547 143.279679 
L 248.040276 132.407679 
z
" style="stroke:#000000;stroke-linejoin:miter;"/>
   </g>
   <g id="patch_4">
    <path clip-path="url(#pb5bb5591f6)" d="M 212.343876 132.408571 
L 212.195097 131.857028 
L 211.751232 131.341569 
L 211.01957 130.895911 
L 210.012124 130.549206 
L 208.745438 130.324133 
L 207.240312 130.235415 
L 205.521458 130.288858 
L 203.617101 130.480967 
L 201.55851 130.799179 
L 199.379486 131.222683 
L 197.115809 131.72378 
L 194.804647 132.269694 
L 192.483949 132.824722 
L 190.19182 133.352561 
L 187.965896 133.818687 
L 185.842726 134.192615 
L 183.857173 134.449888 
L 182.041838 134.57368 
L 180.426529 134.555896 
L 179.037769 134.397701 
L 177.898362 134.109445 
L 177.027018 133.709984 
L 176.438044 133.225448 
L 176.141112 132.687531 
L 176.141098 132.131419 
L 176.438003 131.593487 
L 177.026953 131.108921 
L 177.898277 130.709417 
L 179.03767 130.421104 
L 180.426421 130.26284 
L 182.041729 130.244975 
L 183.857071 130.368676 
L 185.842637 130.62585 
L 187.965826 130.999672 
L 190.191773 131.465687 
L 192.483928 131.993411 
L 194.804654 132.548323 
L 197.115843 133.094122 
L 199.379545 133.595105 
L 201.55859 134.0185 
L 203.617197 134.33661 
L 205.521564 134.528624 
L 207.24042 134.581981 
L 208.745543 134.493188 
L 210.012217 134.268051 
L 211.019645 133.921296 
L 211.751285 133.475602 
L 212.195125 132.960121 
z
" style="fill:#0000ff;stroke:#000000;stroke-linejoin:miter;"/>
   </g>
   <g id="patch_5">
    <path clip-path="url(#pb5bb5591f6)" d="M 266.703876 132.407213 
L 266.555097 131.85567 
L 266.111232 131.340211 
L 265.37957 130.894553 
L 264.372124 130.547848 
L 263.105438 130.322775 
L 261.600312 130.234057 
L 259.881458 130.2875 
L 257.977101 130.479609 
L 255.91851 130.797821 
L 253.739486 131.221325 
L 251.475809 131.722422 
L 249.164647 132.268336 
L 246.843949 132.823364 
L 244.55182 133.351203 
L 242.325896 133.817329 
L 240.202726 134.191257 
L 238.217173 134.44853 
L 236.401838 134.572322 
L 234.786529 134.554538 
L 233.397769 134.396343 
L 232.258362 134.108087 
L 231.387018 133.708626 
L 230.798044 133.22409 
L 230.501112 132.686173 
L 230.501098 132.130061 
L 230.798003 131.592129 
L 231.386953 131.107563 
L 232.258277 130.708059 
L 233.39767 130.419746 
L 234.786421 130.261482 
L 236.401729 130.243617 
L 238.217071 130.367318 
L 240.202637 130.624492 
L 242.325826 130.998314 
L 244.551773 131.464329 
L 246.843928 131.992053 
L 249.164654 132.546965 
L 251.475843 133.092764 
L 253.739545 133.593747 
L 255.91859 134.017142 
L 257.977197 134.335252 
L 259.881564 134.527266 
L 261.60042 134.580623 
L 263.105543 134.49183 
L 264.372217 134.266693 
L 265.379645 133.919938 
L 266.111285 133.474244 
L 266.555125 132.958763 
z
" style="fill:#0000ff;stroke:#000000;stroke-linejoin:miter;"/>
   </g>
   <g id="patch_6">
    <path clip-path="url(#pb5bb5591f6)" d="M 254.020079 140.561529 
L 188.788079 140.563159 
L 188.788215 145.999159 
L 254.020215 145.997529 
z
" style="fill:#999999;stroke:#000000;stroke-linejoin:miter;"/>
   </g>
   <g id="text_1">
    <!-- t = 3.9 -->
    <defs>
     <path d="M 18.3125 70.21875 
L 18.3125 54.6875 
L 36.8125 54.6875 
L 36.8125 47.703125 
L 18.3125 47.703125 
L 18.3125 18.015625 
Q 18.3125 11.328125 20.140625 9.421875 
Q 21.96875 7.515625 27.59375 7.515625 
L 36.8125 7.515625 
L 36.8125 0 
L 27.59375 0 
Q 17.1875 0 13.234375 3.875 
Q 9.28125 7.765625 9.28125 18.015625 
L 9.28125 47.703125 
L 2.6875 47.703125 
L 2.6875 54.6875 
L 9.28125 54.6875 
L 9.28125 70.21875 
z
" id="DejaVuSans-116"/>
     <path id="DejaVuSans-32"/>
     <path d="M 10.59375 45.40625 
L 73.1875 45.40625 
L 73.1875 37.203125 
L 10.59375 37.203125 
z
M 10.59375 25.484375 
L 73.1875 25.484375 
L 73.1875 17.1875 
L 10.59375 17.1875 
z
" id="DejaVuSans-61"/>
     <path d="M 40.578125 39.3125 
Q 47.65625 37.796875 51.625 33 
Q 55.609375 28.21875 55.609375 21.1875 
Q 55.609375 10.40625 48.1875 4.484375 
Q 40.765625 -1.421875 27.09375 -1.421875 
Q 22.515625 -1.421875 17.65625 -0.515625 
Q 12.796875 0.390625 7.625 2.203125 
L 7.625 11.71875 
Q 11.71875 9.328125 16.59375 8.109375 
Q 21.484375 6.890625 26.8125 6.890625 
Q 36.078125 6.890625 40.9375 10.546875 
Q 45.796875 14.203125 45.796875 21.1875 
Q 45.796875 27.640625 41.28125 31.265625 
Q 36.765625 34.90625 28.71875 34.90625 
L 20.21875 34.90625 
L 20.21875 43.015625 
L 29.109375 43.015625 
Q 36.375 43.015625 40.234375 45.921875 
Q 44.09375 48.828125 44.09375 54.296875 
Q 44.09375 59.90625 40.109375 62.90625 
Q 36.140625 65.921875 28.71875 65.921875 
Q 24.65625 65.921875 20.015625 65.03125 
Q 15.375 64.15625 9.8125 62.3125 
L 9.8125 71.09375 
Q 15.4375 72.65625 20.34375 73.4375 
Q 25.25 74.21875 29.59375 74.21875 
Q 40.828125 74.21875 47.359375 69.109375 
Q 53.90625 64.015625 53.90625 55.328125 
Q 53.90625 49.265625 50.4375 45.09375 
Q 46.96875 40.921875 40.578125 39.3125 
z
" id="DejaVuSans-51"/>
     <path d="M 10.6875 12.40625 
L 21 12.40625 
L 21 0 
L 10.6875 0 
z
" id="DejaVuSans-46"/>
     <path d="M 10.984375 1.515625 
L 10.984375 10.5 
Q 14.703125 8.734375 18.5 7.8125 
Q 22.3125 6.890625 25.984375 6.890625 
Q 35.75 6.890625 40.890625 13.453125 
Q 46.046875 20.015625 46.78125 33.40625 
Q 43.953125 29.203125 39.59375 26.953125 
Q 35.25 24.703125 29.984375 24.703125 
Q 19.046875 24.703125 12.671875 31.3125 
Q 6.296875 37.9375 6.296875 49.421875 
Q 6.296875 60.640625 12.9375 67.421875 
Q 19.578125 74.21875 30.609375 74.21875 
Q 43.265625 74.21875 49.921875 64.515625 
Q 56.59375 54.828125 56.59375 36.375 
Q 56.59375 19.140625 48.40625 8.859375 
Q 40.234375 -1.421875 26.421875 -1.421875 
Q 22.703125 -1.421875 18.890625 -0.6875 
Q 15.09375 0.046875 10.984375 1.515625 
z
M 30.609375 32.421875 
Q 37.25 32.421875 41.125 36.953125 
Q 45.015625 41.5 45.015625 49.421875 
Q 45.015625 57.28125 41.125 61.84375 
Q 37.25 66.40625 30.609375 66.40625 
Q 23.96875 66.40625 20.09375 61.84375 
Q 16.21875 57.28125 16.21875 49.421875 
Q 16.21875 41.5 20.09375 36.953125 
Q 23.96875 32.421875 30.609375 32.421875 
z
" id="DejaVuSans-57"/>
    </defs>
    <g transform="translate(200.664375 28.56)scale(0.12 -0.12)">
     <use xlink:href="#DejaVuSans-116"/>
     <use x="39.208984" xlink:href="#DejaVuSans-32"/>
     <use x="70.996094" xlink:href="#DejaVuSans-61"/>
     <use x="154.785156" xlink:href="#DejaVuSans-32"/>
     <use x="186.572266" xlink:href="#DejaVuSans-51"/>
     <use x="250.195312" xlink:href="#DejaVuSans-46"/>
     <use x="281.982422" xlink:href="#DejaVuSans-57"/>
    </g>
   </g>
  </g>
 </g>
 <defs>
  <clipPath id="pb5bb5591f6">
   <rect height="217.44" width="334.8" x="54" y="34.56"/>
  </clipPath>
 </defs>
</svg>
