<?xml version="1.0" encoding="utf-8" standalone="no"?>
<!DOCTYPE svg PUBLIC "-//W3C//DTD SVG 1.1//EN"
  "http://www.w3.org/Graphics/SVG/1.1/DTD/svg11.dtd">
<!-- Created with matplotlib (https://matplotlib.org/) -->
<svg height="288pt" version="1.1" viewBox="0 0 432 288" width="432pt" xmlns="http://www.w3.org/2000/svg" xmlns:xlink="http://www.w3.org/1999/xlink">
 <defs>
  <style type="text/css">
*{stroke-linecap:butt;stroke-linejoin:round;}
  </style>
 </defs>
 <g id="figure_1">
  <g id="patch_1">
   <path d="M 0 288 
L 432 288 
L 432 0 
L 0 0 
z
" style="fill:#ffffff;"/>
  </g>
  <g id="axes_1">
   <g id="patch_2">
    <path clip-path="url(#pfdff09998f)" d="M 194.370418 132.33977 
L 194.33584 143.211715 
L 193.248646 143.208257 
L 193.283224 132.336312 
z
" style="stroke:#000000;stroke-linejoin:miter;"/>
   </g>
   <g id="patch_3">
    <path clip-path="url(#pfdff09998f)" d="M 248.730143 132.512659 
L 248.695566 143.384604 
L 247.608371 143.381146 
L 247.642949 132.509201 
z
" style="stroke:#000000;stroke-linejoin:miter;"/>
   </g>
   <g id="patch_4">
    <path clip-path="url(#pfdff09998f)" d="M 211.946729 132.39567 
L 211.799719 131.843653 
L 211.357509 131.326775 
L 210.627279 130.878774 
L 209.62095 130.528841 
L 208.354992 130.299709 
L 206.850157 130.206167 
L 205.131141 130.2541 
L 203.226178 130.440104 
L 201.166578 130.751716 
L 198.986208 131.168233 
L 196.720936 131.662071 
L 194.408036 132.200574 
L 192.085571 132.74816 
L 189.791762 133.268649 
L 187.564355 133.727638 
L 185.439998 134.094758 
L 183.45363 134.345665 
L 181.637907 134.463638 
L 180.022663 134.440676 
L 178.634418 134.278031 
L 177.495941 133.986124 
L 176.625882 133.583872 
L 176.038464 133.09745 
L 175.743258 132.558584 
L 175.745026 132.002475 
L 176.043654 131.465497 
L 176.634154 130.982822 
L 177.506755 130.586112 
L 178.647065 130.301453 
L 180.036317 130.147642 
L 181.651674 130.134955 
L 183.46661 130.264474 
L 185.451342 130.528011 
L 187.573321 130.908637 
L 189.797763 131.381785 
L 192.088215 131.916854 
L 194.40715 132.479201 
L 196.716577 133.032406 
L 198.978662 133.540643 
L 201.156339 133.971021 
L 203.213916 134.295727 
L 205.117657 134.493845 
L 206.836333 134.552711 
L 208.341733 134.468743 
L 209.609122 134.247667 
L 210.617657 133.904143 
L 211.350722 133.460796 
L 211.796211 132.946741 
z
" style="fill:#0000ff;stroke:#000000;stroke-linejoin:miter;"/>
   </g>
   <g id="patch_5">
    <path clip-path="url(#pfdff09998f)" d="M 266.306454 132.568559 
L 266.159444 132.016542 
L 265.717234 131.499664 
L 264.987004 131.051663 
L 263.980675 130.70173 
L 262.714717 130.472598 
L 261.209882 130.379056 
L 259.490866 130.426989 
L 257.585903 130.612993 
L 255.526303 130.924605 
L 253.345933 131.341122 
L 251.080661 131.834959 
L 248.767761 132.373463 
L 246.445296 132.921049 
L 244.151487 133.441538 
L 241.92408 133.900527 
L 239.799723 134.267647 
L 237.813355 134.518554 
L 235.997632 134.636527 
L 234.382388 134.613565 
L 232.994143 134.45092 
L 231.855666 134.159013 
L 230.985607 133.756761 
L 230.398189 133.270339 
L 230.102983 132.731473 
L 230.104751 132.175364 
L 230.403379 131.638386 
L 230.993879 131.155711 
L 231.86648 130.759001 
L 233.00679 130.474342 
L 234.396042 130.320531 
L 236.011399 130.307844 
L 237.826335 130.437363 
L 239.811067 130.7009 
L 241.933046 131.081526 
L 244.157488 131.554674 
L 246.44794 132.089743 
L 248.766875 132.65209 
L 251.076302 133.205295 
L 253.338387 133.713532 
L 255.516064 134.14391 
L 257.573641 134.468616 
L 259.477382 134.666734 
L 261.196058 134.7256 
L 262.701458 134.641632 
L 263.968847 134.420556 
L 264.977382 134.077032 
L 265.710447 133.633685 
L 266.155936 133.11963 
z
" style="fill:#0000ff;stroke:#000000;stroke-linejoin:miter;"/>
   </g>
   <g id="patch_6">
    <path clip-path="url(#pfdff09998f)" d="M 253.596585 140.682177 
L 188.364915 140.474711 
L 188.347626 145.910683 
L 253.579296 146.11815 
z
" style="fill:#999999;stroke:#000000;stroke-linejoin:miter;"/>
   </g>
   <g id="text_1">
    <!-- t = 2.3 -->
    <defs>
     <path d="M 18.3125 70.21875 
L 18.3125 54.6875 
L 36.8125 54.6875 
L 36.8125 47.703125 
L 18.3125 47.703125 
L 18.3125 18.015625 
Q 18.3125 11.328125 20.140625 9.421875 
Q 21.96875 7.515625 27.59375 7.515625 
L 36.8125 7.515625 
L 36.8125 0 
L 27.59375 0 
Q 17.1875 0 13.234375 3.875 
Q 9.28125 7.765625 9.28125 18.015625 
L 9.28125 47.703125 
L 2.6875 47.703125 
L 2.6875 54.6875 
L 9.28125 54.6875 
L 9.28125 70.21875 
z
" id="DejaVuSans-116"/>
     <path id="DejaVuSans-32"/>
     <path d="M 10.59375 45.40625 
L 73.1875 45.40625 
L 73.1875 37.203125 
L 10.59375 37.203125 
z
M 10.59375 25.484375 
L 73.1875 25.484375 
L 73.1875 17.1875 
L 10.59375 17.1875 
z
" id="DejaVuSans-61"/>
     <path d="M 19.1875 8.296875 
L 53.609375 8.296875 
L 53.609375 0 
L 7.328125 0 
L 7.328125 8.296875 
Q 12.9375 14.109375 22.625 23.890625 
Q 32.328125 33.6875 34.8125 36.53125 
Q 39.546875 41.84375 41.421875 45.53125 
Q 43.3125 49.21875 43.3125 52.78125 
Q 43.3125 58.59375 39.234375 62.25 
Q 35.15625 65.921875 28.609375 65.921875 
Q 23.96875 65.921875 18.8125 64.3125 
Q 13.671875 62.703125 7.8125 59.421875 
L 7.8125 69.390625 
Q 13.765625 71.78125 18.9375 73 
Q 24.125 74.21875 28.421875 74.21875 
Q 39.75 74.21875 46.484375 68.546875 
Q 53.21875 62.890625 53.21875 53.421875 
Q 53.21875 48.921875 51.53125 44.890625 
Q 49.859375 40.875 45.40625 35.40625 
Q 44.1875 33.984375 37.640625 27.21875 
Q 31.109375 20.453125 19.1875 8.296875 
z
" id="DejaVuSans-50"/>
     <path d="M 10.6875 12.40625 
L 21 12.40625 
L 21 0 
L 10.6875 0 
z
" id="DejaVuSans-46"/>
     <path d="M 40.578125 39.3125 
Q 47.65625 37.796875 51.625 33 
Q 55.609375 28.21875 55.609375 21.1875 
Q 55.609375 10.40625 48.1875 4.484375 
Q 40.765625 -1.421875 27.09375 -1.421875 
Q 22.515625 -1.421875 17.65625 -0.515625 
Q 12.796875 0.390625 7.625 2.203125 
L 7.625 11.71875 
Q 11.71875 9.328125 16.59375 8.109375 
Q 21.484375 6.890625 26.8125 6.890625 
Q 36.078125 6.890625 40.9375 10.546875 
Q 45.796875 14.203125 45.796875 21.1875 
Q 45.796875 27.640625 41.28125 31.265625 
Q 36.765625 34.90625 28.71875 34.90625 
L 20.21875 34.90625 
L 20.21875 43.015625 
L 29.109375 43.015625 
Q 36.375 43.015625 40.234375 45.921875 
Q 44.09375 48.828125 44.09375 54.296875 
Q 44.09375 59.90625 40.109375 62.90625 
Q 36.140625 65.921875 28.71875 65.921875 
Q 24.65625 65.921875 20.015625 65.03125 
Q 15.375 64.15625 9.8125 62.3125 
L 9.8125 71.09375 
Q 15.4375 72.65625 20.34375 73.4375 
Q 25.25 74.21875 29.59375 74.21875 
Q 40.828125 74.21875 47.359375 69.109375 
Q 53.90625 64.015625 53.90625 55.328125 
Q 53.90625 49.265625 50.4375 45.09375 
Q 46.96875 40.921875 40.578125 39.3125 
z
" id="DejaVuSans-51"/>
    </defs>
    <g transform="translate(200.664375 28.56)scale(0.12 -0.12)">
     <use xlink:href="#DejaVuSans-116"/>
     <use x="39.208984" xlink:href="#DejaVuSans-32"/>
     <use x="70.996094" xlink:href="#DejaVuSans-61"/>
     <use x="154.785156" xlink:href="#DejaVuSans-32"/>
     <use x="186.572266" xlink:href="#DejaVuSans-50"/>
     <use x="250.195312" xlink:href="#DejaVuSans-46"/>
     <use x="281.982422" xlink:href="#DejaVuSans-51"/>
    </g>
   </g>
  </g>
 </g>
 <defs>
  <clipPath id="pfdff09998f">
   <rect height="217.44" width="334.8" x="54" y="34.56"/>
  </clipPath>
 </defs>
</svg>
