<?xml version="1.0" encoding="utf-8" standalone="no"?>
<!DOCTYPE svg PUBLIC "-//W3C//DTD SVG 1.1//EN"
  "http://www.w3.org/Graphics/SVG/1.1/DTD/svg11.dtd">
<!-- Created with matplotlib (https://matplotlib.org/) -->
<svg height="288pt" version="1.1" viewBox="0 0 432 288" width="432pt" xmlns="http://www.w3.org/2000/svg" xmlns:xlink="http://www.w3.org/1999/xlink">
 <defs>
  <style type="text/css">
*{stroke-linecap:butt;stroke-linejoin:round;}
  </style>
 </defs>
 <g id="figure_1">
  <g id="patch_1">
   <path d="M 0 288 
L 432 288 
L 432 0 
L 0 0 
z
" style="fill:#ffffff;"/>
  </g>
  <g id="axes_1">
   <g id="patch_2">
    <path clip-path="url(#pea346782e1)" d="M 119.545647 217.865013 
L 123.451222 228.011286 
L 122.436595 228.401844 
L 118.531019 218.25557 
z
" style="stroke:#000000;stroke-linejoin:miter;"/>
   </g>
   <g id="patch_3">
    <path clip-path="url(#pea346782e1)" d="M 170.277013 198.337135 
L 174.182589 208.483408 
L 173.167962 208.873966 
L 169.262386 198.727692 
z
" style="stroke:#000000;stroke-linejoin:miter;"/>
   </g>
   <g id="patch_4">
    <path clip-path="url(#pea346782e1)" d="M 135.948788 211.550999 
L 135.61182 211.08971 
L 135.012423 210.768095 
L 134.169509 210.615002 
L 133.104764 210.653321 
L 131.841772 210.898274 
L 130.405234 211.356133 
L 128.820299 212.023437 
L 127.112051 212.886787 
L 125.305161 213.923226 
L 123.423698 215.101189 
L 121.491104 216.381974 
L 119.530293 217.721644 
L 117.563857 219.073243 
L 115.614316 220.389206 
L 113.704393 221.623794 
L 111.857249 222.735427 
L 110.096631 223.688758 
L 108.446924 224.456372 
L 106.933037 225.020009 
L 105.580143 225.371228 
L 104.413239 225.511497 
L 103.456561 225.451692 
L 102.732847 225.21106 
L 102.262508 224.815705 
L 102.062735 224.296715 
L 102.146594 223.688035 
L 102.522175 223.024254 
L 103.191838 222.338426 
L 104.15162 221.660076 
L 105.390832 221.013523 
L 106.891913 220.416617 
L 108.630528 219.879975 
L 110.575951 219.40675 
L 112.691711 218.992953 
L 114.936489 218.628285 
L 117.265223 218.297424 
L 119.630386 217.981673 
L 121.983376 217.660844 
L 124.27595 217.315247 
L 126.461646 216.927651 
L 128.497124 216.485058 
L 130.34336 215.980191 
L 131.966661 215.412557 
L 133.339432 214.789037 
L 134.440694 214.123925 
L 135.256326 213.438436 
L 135.779037 212.759677 
L 136.008087 212.11917 
z
" style="fill:#0000ff;stroke:#000000;stroke-linejoin:miter;"/>
   </g>
   <g id="patch_5">
    <path clip-path="url(#pea346782e1)" d="M 186.680155 192.023121 
L 186.343187 191.561832 
L 185.74379 191.240217 
L 184.900876 191.087124 
L 183.836131 191.125443 
L 182.573139 191.370397 
L 181.136601 191.828255 
L 179.551665 192.495559 
L 177.843418 193.358909 
L 176.036528 194.395348 
L 174.155065 195.573311 
L 172.222471 196.854096 
L 170.26166 198.193766 
L 168.295224 199.545365 
L 166.345683 200.861328 
L 164.43576 202.095916 
L 162.588615 203.207549 
L 160.827998 204.16088 
L 159.178291 204.928494 
L 157.664404 205.492131 
L 156.31151 205.84335 
L 155.144606 205.983619 
L 154.187928 205.923814 
L 153.464214 205.683182 
L 152.993875 205.287827 
L 152.794102 204.768837 
L 152.87796 204.160157 
L 153.253541 203.496377 
L 153.923205 202.810548 
L 154.882987 202.132198 
L 156.122199 201.485645 
L 157.62328 200.888739 
L 159.361894 200.352097 
L 161.307318 199.878872 
L 163.423078 199.465075 
L 165.667856 199.100407 
L 167.99659 198.769546 
L 170.361753 198.453795 
L 172.714742 198.132966 
L 175.007316 197.787369 
L 177.193013 197.399773 
L 179.22849 196.95718 
L 181.074727 196.452313 
L 182.698028 195.88468 
L 184.070799 195.261159 
L 185.172061 194.596048 
L 185.987693 193.910558 
L 186.510404 193.231799 
L 186.739454 192.591292 
z
" style="fill:#0000ff;stroke:#000000;stroke-linejoin:miter;"/>
   </g>
   <g id="patch_6">
    <path clip-path="url(#pea346782e1)" d="M 177.772018 204.189331 
L 116.894378 227.622784 
L 118.847166 232.695921 
L 179.724806 209.262467 
z
" style="fill:#999999;stroke:#000000;stroke-linejoin:miter;"/>
   </g>
   <g id="text_1">
    <!-- t = 0.3 -->
    <defs>
     <path d="M 18.3125 70.21875 
L 18.3125 54.6875 
L 36.8125 54.6875 
L 36.8125 47.703125 
L 18.3125 47.703125 
L 18.3125 18.015625 
Q 18.3125 11.328125 20.140625 9.421875 
Q 21.96875 7.515625 27.59375 7.515625 
L 36.8125 7.515625 
L 36.8125 0 
L 27.59375 0 
Q 17.1875 0 13.234375 3.875 
Q 9.28125 7.765625 9.28125 18.015625 
L 9.28125 47.703125 
L 2.6875 47.703125 
L 2.6875 54.6875 
L 9.28125 54.6875 
L 9.28125 70.21875 
z
" id="DejaVuSans-116"/>
     <path id="DejaVuSans-32"/>
     <path d="M 10.59375 45.40625 
L 73.1875 45.40625 
L 73.1875 37.203125 
L 10.59375 37.203125 
z
M 10.59375 25.484375 
L 73.1875 25.484375 
L 73.1875 17.1875 
L 10.59375 17.1875 
z
" id="DejaVuSans-61"/>
     <path d="M 31.78125 66.40625 
Q 24.171875 66.40625 20.328125 58.90625 
Q 16.5 51.421875 16.5 36.375 
Q 16.5 21.390625 20.328125 13.890625 
Q 24.171875 6.390625 31.78125 6.390625 
Q 39.453125 6.390625 43.28125 13.890625 
Q 47.125 21.390625 47.125 36.375 
Q 47.125 51.421875 43.28125 58.90625 
Q 39.453125 66.40625 31.78125 66.40625 
z
M 31.78125 74.21875 
Q 44.046875 74.21875 50.515625 64.515625 
Q 56.984375 54.828125 56.984375 36.375 
Q 56.984375 17.96875 50.515625 8.265625 
Q 44.046875 -1.421875 31.78125 -1.421875 
Q 19.53125 -1.421875 13.0625 8.265625 
Q 6.59375 17.96875 6.59375 36.375 
Q 6.59375 54.828125 13.0625 64.515625 
Q 19.53125 74.21875 31.78125 74.21875 
z
" id="DejaVuSans-48"/>
     <path d="M 10.6875 12.40625 
L 21 12.40625 
L 21 0 
L 10.6875 0 
z
" id="DejaVuSans-46"/>
     <path d="M 40.578125 39.3125 
Q 47.65625 37.796875 51.625 33 
Q 55.609375 28.21875 55.609375 21.1875 
Q 55.609375 10.40625 48.1875 4.484375 
Q 40.765625 -1.421875 27.09375 -1.421875 
Q 22.515625 -1.421875 17.65625 -0.515625 
Q 12.796875 0.390625 7.625 2.203125 
L 7.625 11.71875 
Q 11.71875 9.328125 16.59375 8.109375 
Q 21.484375 6.890625 26.8125 6.890625 
Q 36.078125 6.890625 40.9375 10.546875 
Q 45.796875 14.203125 45.796875 21.1875 
Q 45.796875 27.640625 41.28125 31.265625 
Q 36.765625 34.90625 28.71875 34.90625 
L 20.21875 34.90625 
L 20.21875 43.015625 
L 29.109375 43.015625 
Q 36.375 43.015625 40.234375 45.921875 
Q 44.09375 48.828125 44.09375 54.296875 
Q 44.09375 59.90625 40.109375 62.90625 
Q 36.140625 65.921875 28.71875 65.921875 
Q 24.65625 65.921875 20.015625 65.03125 
Q 15.375 64.15625 9.8125 62.3125 
L 9.8125 71.09375 
Q 15.4375 72.65625 20.34375 73.4375 
Q 25.25 74.21875 29.59375 74.21875 
Q 40.828125 74.21875 47.359375 69.109375 
Q 53.90625 64.015625 53.90625 55.328125 
Q 53.90625 49.265625 50.4375 45.09375 
Q 46.96875 40.921875 40.578125 39.3125 
z
" id="DejaVuSans-51"/>
    </defs>
    <g transform="translate(200.664375 28.56)scale(0.12 -0.12)">
     <use xlink:href="#DejaVuSans-116"/>
     <use x="39.208984" xlink:href="#DejaVuSans-32"/>
     <use x="70.996094" xlink:href="#DejaVuSans-61"/>
     <use x="154.785156" xlink:href="#DejaVuSans-32"/>
     <use x="186.572266" xlink:href="#DejaVuSans-48"/>
     <use x="250.195312" xlink:href="#DejaVuSans-46"/>
     <use x="281.982422" xlink:href="#DejaVuSans-51"/>
    </g>
   </g>
  </g>
 </g>
 <defs>
  <clipPath id="pea346782e1">
   <rect height="217.44" width="334.8" x="54" y="34.56"/>
  </clipPath>
 </defs>
</svg>
