<?xml version="1.0" encoding="utf-8" standalone="no"?>
<!DOCTYPE svg PUBLIC "-//W3C//DTD SVG 1.1//EN"
  "http://www.w3.org/Graphics/SVG/1.1/DTD/svg11.dtd">
<!-- Created with matplotlib (https://matplotlib.org/) -->
<svg height="288pt" version="1.1" viewBox="0 0 432 288" width="432pt" xmlns="http://www.w3.org/2000/svg" xmlns:xlink="http://www.w3.org/1999/xlink">
 <defs>
  <style type="text/css">
*{stroke-linecap:butt;stroke-linejoin:round;}
  </style>
 </defs>
 <g id="figure_1">
  <g id="patch_1">
   <path d="M 0 288 
L 432 288 
L 432 0 
L 0 0 
z
" style="fill:#ffffff;"/>
  </g>
  <g id="axes_1">
   <g id="patch_2">
    <path clip-path="url(#p8f8eb0614a)" d="M 209.703392 125.286945 
L 209.011876 136.136931 
L 207.926877 136.067779 
L 208.618393 125.217794 
z
" style="stroke:#000000;stroke-linejoin:miter;"/>
   </g>
   <g id="patch_3">
    <path clip-path="url(#p8f8eb0614a)" d="M 263.95332 128.744526 
L 263.261804 139.594511 
L 262.176806 139.52536 
L 262.868322 128.675374 
z
" style="stroke:#000000;stroke-linejoin:miter;"/>
   </g>
   <g id="patch_4">
    <path clip-path="url(#p8f8eb0614a)" d="M 227.244202 126.404896 
L 227.130819 125.845004 
L 226.720653 125.302347 
L 226.01883 124.811037 
L 225.035487 124.40093 
L 223.78569 124.095714 
L 222.289258 123.911404 
L 220.570487 123.855367 
L 218.657765 123.925913 
L 216.583098 124.112492 
L 214.381542 124.396486 
L 212.090567 124.752529 
L 209.749352 125.150277 
L 207.39804 125.556514 
L 205.07697 125.937434 
L 202.825897 126.260981 
L 200.683237 126.499053 
L 198.685337 126.629463 
L 196.865803 126.637494 
L 195.254899 126.516964 
L 193.87902 126.270723 
L 192.760264 125.910551 
L 191.916103 125.456455 
L 191.359154 124.935424 
L 191.097051 124.379704 
L 191.132423 123.824717 
L 191.462955 123.306768 
L 192.081544 122.860659 
L 192.976523 122.517406 
L 194.131952 122.302178 
L 195.52796 122.232601 
L 197.141131 122.317555 
L 198.944923 122.556516 
L 200.910102 122.93951 
L 203.005201 123.447673 
L 205.196985 124.054381 
L 207.450916 124.726887 
L 209.73163 125.428342 
L 212.003406 126.120096 
L 214.230644 126.764104 
L 216.378332 127.325294 
L 218.412526 127.773749 
L 220.300816 128.086549 
L 222.012794 128.249168 
L 223.520516 128.256326 
L 224.798949 128.112245 
L 225.8264 127.830295 
L 226.584917 127.432058 
L 227.060657 126.945864 
z
" style="fill:#0000ff;stroke:#000000;stroke-linejoin:miter;"/>
   </g>
   <g id="patch_5">
    <path clip-path="url(#p8f8eb0614a)" d="M 281.49413 129.862477 
L 281.380748 129.302585 
L 280.970581 128.759927 
L 280.268759 128.268617 
L 279.285416 127.858511 
L 278.035618 127.553294 
L 276.539187 127.368984 
L 274.820416 127.312948 
L 272.907694 127.383493 
L 270.833026 127.570072 
L 268.631471 127.854066 
L 266.340496 128.210109 
L 263.999281 128.607858 
L 261.647969 129.014094 
L 259.326898 129.395015 
L 257.075826 129.718561 
L 254.933165 129.956633 
L 252.935265 130.087044 
L 251.115732 130.095075 
L 249.504828 129.974545 
L 248.128948 129.728304 
L 247.010192 129.368131 
L 246.166031 128.914036 
L 245.609082 128.393005 
L 245.34698 127.837284 
L 245.382351 127.282298 
L 245.712884 126.764348 
L 246.331473 126.318239 
L 247.226452 125.974987 
L 248.381881 125.759758 
L 249.777888 125.690181 
L 251.39106 125.775135 
L 253.194851 126.014096 
L 255.16003 126.397091 
L 257.25513 126.905254 
L 259.446913 127.511962 
L 261.700845 128.184467 
L 263.981558 128.885922 
L 266.253335 129.577677 
L 268.480572 130.221685 
L 270.628261 130.782875 
L 272.662455 131.231329 
L 274.550744 131.544129 
L 276.262722 131.706749 
L 277.770445 131.713907 
L 279.048878 131.569825 
L 280.076328 131.287875 
L 280.834845 130.889639 
L 281.310585 130.403444 
z
" style="fill:#0000ff;stroke:#000000;stroke-linejoin:miter;"/>
   </g>
   <g id="patch_6">
    <path clip-path="url(#p8f8eb0614a)" d="M 268.317177 137.193197 
L 203.217263 133.044101 
L 202.871504 138.469093 
L 267.971419 142.61819 
z
" style="fill:#999999;stroke:#000000;stroke-linejoin:miter;"/>
   </g>
   <g id="text_1">
    <!-- t = 0.8 -->
    <defs>
     <path d="M 18.3125 70.21875 
L 18.3125 54.6875 
L 36.8125 54.6875 
L 36.8125 47.703125 
L 18.3125 47.703125 
L 18.3125 18.015625 
Q 18.3125 11.328125 20.140625 9.421875 
Q 21.96875 7.515625 27.59375 7.515625 
L 36.8125 7.515625 
L 36.8125 0 
L 27.59375 0 
Q 17.1875 0 13.234375 3.875 
Q 9.28125 7.765625 9.28125 18.015625 
L 9.28125 47.703125 
L 2.6875 47.703125 
L 2.6875 54.6875 
L 9.28125 54.6875 
L 9.28125 70.21875 
z
" id="DejaVuSans-116"/>
     <path id="DejaVuSans-32"/>
     <path d="M 10.59375 45.40625 
L 73.1875 45.40625 
L 73.1875 37.203125 
L 10.59375 37.203125 
z
M 10.59375 25.484375 
L 73.1875 25.484375 
L 73.1875 17.1875 
L 10.59375 17.1875 
z
" id="DejaVuSans-61"/>
     <path d="M 31.78125 66.40625 
Q 24.171875 66.40625 20.328125 58.90625 
Q 16.5 51.421875 16.5 36.375 
Q 16.5 21.390625 20.328125 13.890625 
Q 24.171875 6.390625 31.78125 6.390625 
Q 39.453125 6.390625 43.28125 13.890625 
Q 47.125 21.390625 47.125 36.375 
Q 47.125 51.421875 43.28125 58.90625 
Q 39.453125 66.40625 31.78125 66.40625 
z
M 31.78125 74.21875 
Q 44.046875 74.21875 50.515625 64.515625 
Q 56.984375 54.828125 56.984375 36.375 
Q 56.984375 17.96875 50.515625 8.265625 
Q 44.046875 -1.421875 31.78125 -1.421875 
Q 19.53125 -1.421875 13.0625 8.265625 
Q 6.59375 17.96875 6.59375 36.375 
Q 6.59375 54.828125 13.0625 64.515625 
Q 19.53125 74.21875 31.78125 74.21875 
z
" id="DejaVuSans-48"/>
     <path d="M 10.6875 12.40625 
L 21 12.40625 
L 21 0 
L 10.6875 0 
z
" id="DejaVuSans-46"/>
     <path d="M 31.78125 34.625 
Q 24.75 34.625 20.71875 30.859375 
Q 16.703125 27.09375 16.703125 20.515625 
Q 16.703125 13.921875 20.71875 10.15625 
Q 24.75 6.390625 31.78125 6.390625 
Q 38.8125 6.390625 42.859375 10.171875 
Q 46.921875 13.96875 46.921875 20.515625 
Q 46.921875 27.09375 42.890625 30.859375 
Q 38.875 34.625 31.78125 34.625 
z
M 21.921875 38.8125 
Q 15.578125 40.375 12.03125 44.71875 
Q 8.5 49.078125 8.5 55.328125 
Q 8.5 64.0625 14.71875 69.140625 
Q 20.953125 74.21875 31.78125 74.21875 
Q 42.671875 74.21875 48.875 69.140625 
Q 55.078125 64.0625 55.078125 55.328125 
Q 55.078125 49.078125 51.53125 44.71875 
Q 48 40.375 41.703125 38.8125 
Q 48.828125 37.15625 52.796875 32.3125 
Q 56.78125 27.484375 56.78125 20.515625 
Q 56.78125 9.90625 50.3125 4.234375 
Q 43.84375 -1.421875 31.78125 -1.421875 
Q 19.734375 -1.421875 13.25 4.234375 
Q 6.78125 9.90625 6.78125 20.515625 
Q 6.78125 27.484375 10.78125 32.3125 
Q 14.796875 37.15625 21.921875 38.8125 
z
M 18.3125 54.390625 
Q 18.3125 48.734375 21.84375 45.5625 
Q 25.390625 42.390625 31.78125 42.390625 
Q 38.140625 42.390625 41.71875 45.5625 
Q 45.3125 48.734375 45.3125 54.390625 
Q 45.3125 60.0625 41.71875 63.234375 
Q 38.140625 66.40625 31.78125 66.40625 
Q 25.390625 66.40625 21.84375 63.234375 
Q 18.3125 60.0625 18.3125 54.390625 
z
" id="DejaVuSans-56"/>
    </defs>
    <g transform="translate(200.664375 28.56)scale(0.12 -0.12)">
     <use xlink:href="#DejaVuSans-116"/>
     <use x="39.208984" xlink:href="#DejaVuSans-32"/>
     <use x="70.996094" xlink:href="#DejaVuSans-61"/>
     <use x="154.785156" xlink:href="#DejaVuSans-32"/>
     <use x="186.572266" xlink:href="#DejaVuSans-48"/>
     <use x="250.195312" xlink:href="#DejaVuSans-46"/>
     <use x="281.982422" xlink:href="#DejaVuSans-56"/>
    </g>
   </g>
  </g>
 </g>
 <defs>
  <clipPath id="p8f8eb0614a">
   <rect height="217.44" width="334.8" x="54" y="34.56"/>
  </clipPath>
 </defs>
</svg>
