<?xml version="1.0" encoding="utf-8" standalone="no"?>
<!DOCTYPE svg PUBLIC "-//W3C//DTD SVG 1.1//EN"
  "http://www.w3.org/Graphics/SVG/1.1/DTD/svg11.dtd">
<!-- Created with matplotlib (https://matplotlib.org/) -->
<svg height="288pt" version="1.1" viewBox="0 0 432 288" width="432pt" xmlns="http://www.w3.org/2000/svg" xmlns:xlink="http://www.w3.org/1999/xlink">
 <defs>
  <style type="text/css">
*{stroke-linecap:butt;stroke-linejoin:round;}
  </style>
 </defs>
 <g id="figure_1">
  <g id="patch_1">
   <path d="M 0 288 
L 432 288 
L 432 0 
L 0 0 
z
" style="fill:#ffffff;"/>
  </g>
  <g id="axes_1">
   <g id="patch_2">
    <path clip-path="url(#p12c7c8275a)" d="M -0.879897 184.782802 
L 1.130667 195.467277 
L 0.06222 195.668334 
L -1.948345 184.983858 
z
" style="stroke:#000000;stroke-linejoin:miter;"/>
   </g>
   <g id="patch_3">
    <path clip-path="url(#p12c7c8275a)" d="M 52.54248 174.729979 
L 54.553044 185.414455 
L 53.484597 185.615511 
L 51.474032 174.931036 
z
" style="stroke:#000000;stroke-linejoin:miter;"/>
   </g>
   <g id="patch_4">
    <path clip-path="url(#p12c7c8275a)" d="M 16.393338 181.532389 
L 16.145141 181.017867 
L 15.613619 180.59337 
L 14.812168 180.290686 
L 13.757987 180.136242 
L 12.471527 180.149268 
L 10.975949 180.340387 
L 9.296617 180.710734 
L 7.460621 181.251658 
L 5.496367 181.945029 
L 3.433226 182.764144 
L 1.301239 183.675167 
L -0.869127 184.639016 
L -3.04718 185.613584 
L -5.202183 186.556149 
L -7.303534 187.425824 
L -9.320951 188.185891 
L -11.224695 188.805868 
L -12.985837 189.263191 
L -14.57658 189.544394 
L -15.970643 189.645718 
L -17.143702 189.573115 
L -18.073884 189.341659 
L -18.742296 188.974383 
L -19.133571 188.500646 
L -19.236414 187.954126 
L -19.044095 187.370571 
L -18.5549 186.78546 
L -17.772472 186.231732 
L -16.706037 185.73771 
L -15.370497 185.325387 
L -13.786346 185.00915 
L -11.979435 184.795051 
L -9.980554 184.680647 
L -7.824856 184.655432 
L -5.551123 184.701821 
L -3.200914 184.796612 
L -0.8176 184.912839 
L 1.554657 185.021874 
L 3.871959 185.095646 
L 6.091717 185.108822 
L 8.173647 185.040797 
L 10.080679 184.877371 
L 11.779762 184.611981 
L 13.242512 184.246413 
L 14.445715 183.790943 
L 15.371654 183.263888 
L 16.008267 182.690594 
L 16.349137 182.101934 
z
" style="fill:#0000ff;stroke:#000000;stroke-linejoin:miter;"/>
   </g>
   <g id="patch_5">
    <path clip-path="url(#p12c7c8275a)" d="M 69.815715 171.479567 
L 69.567518 170.965045 
L 69.035996 170.540548 
L 68.234545 170.237864 
L 67.180364 170.08342 
L 65.893904 170.096445 
L 64.398326 170.287564 
L 62.718994 170.657912 
L 60.882998 171.198835 
L 58.918744 171.892206 
L 56.855603 172.711322 
L 54.723616 173.622345 
L 52.55325 174.586193 
L 50.375197 175.560761 
L 48.220194 176.503326 
L 46.118843 177.373002 
L 44.101426 178.133068 
L 42.197682 178.753045 
L 40.43654 179.210369 
L 38.845797 179.491572 
L 37.451734 179.592895 
L 36.278675 179.520293 
L 35.348493 179.288837 
L 34.680081 178.921561 
L 34.288806 178.447824 
L 34.185963 177.901304 
L 34.378282 177.317748 
L 34.867477 176.732638 
L 35.649905 176.178909 
L 36.716339 175.684887 
L 38.05188 175.272564 
L 39.636031 174.956327 
L 41.442942 174.742228 
L 43.441823 174.627824 
L 45.597521 174.602609 
L 47.871253 174.648998 
L 50.221463 174.743789 
L 52.604777 174.860016 
L 54.977034 174.969051 
L 57.294336 175.042823 
L 59.514094 175.055999 
L 61.596024 174.987975 
L 63.503056 174.824549 
L 65.202139 174.559159 
L 66.664889 174.193591 
L 67.868092 173.738121 
L 68.794031 173.211065 
L 69.430644 172.637772 
L 69.771514 172.049111 
z
" style="fill:#0000ff;stroke:#000000;stroke-linejoin:miter;"/>
   </g>
   <g id="patch_6">
    <path clip-path="url(#p12c7c8275a)" d="M 58.858417 181.838582 
L -5.248435 193.901969 
L -4.243153 199.244207 
L 59.863699 187.18082 
z
" style="fill:#999999;stroke:#000000;stroke-linejoin:miter;"/>
   </g>
   <g id="text_1">
    <!-- t = 0.2 -->
    <defs>
     <path d="M 18.3125 70.21875 
L 18.3125 54.6875 
L 36.8125 54.6875 
L 36.8125 47.703125 
L 18.3125 47.703125 
L 18.3125 18.015625 
Q 18.3125 11.328125 20.140625 9.421875 
Q 21.96875 7.515625 27.59375 7.515625 
L 36.8125 7.515625 
L 36.8125 0 
L 27.59375 0 
Q 17.1875 0 13.234375 3.875 
Q 9.28125 7.765625 9.28125 18.015625 
L 9.28125 47.703125 
L 2.6875 47.703125 
L 2.6875 54.6875 
L 9.28125 54.6875 
L 9.28125 70.21875 
z
" id="DejaVuSans-116"/>
     <path id="DejaVuSans-32"/>
     <path d="M 10.59375 45.40625 
L 73.1875 45.40625 
L 73.1875 37.203125 
L 10.59375 37.203125 
z
M 10.59375 25.484375 
L 73.1875 25.484375 
L 73.1875 17.1875 
L 10.59375 17.1875 
z
" id="DejaVuSans-61"/>
     <path d="M 31.78125 66.40625 
Q 24.171875 66.40625 20.328125 58.90625 
Q 16.5 51.421875 16.5 36.375 
Q 16.5 21.390625 20.328125 13.890625 
Q 24.171875 6.390625 31.78125 6.390625 
Q 39.453125 6.390625 43.28125 13.890625 
Q 47.125 21.390625 47.125 36.375 
Q 47.125 51.421875 43.28125 58.90625 
Q 39.453125 66.40625 31.78125 66.40625 
z
M 31.78125 74.21875 
Q 44.046875 74.21875 50.515625 64.515625 
Q 56.984375 54.828125 56.984375 36.375 
Q 56.984375 17.96875 50.515625 8.265625 
Q 44.046875 -1.421875 31.78125 -1.421875 
Q 19.53125 -1.421875 13.0625 8.265625 
Q 6.59375 17.96875 6.59375 36.375 
Q 6.59375 54.828125 13.0625 64.515625 
Q 19.53125 74.21875 31.78125 74.21875 
z
" id="DejaVuSans-48"/>
     <path d="M 10.6875 12.40625 
L 21 12.40625 
L 21 0 
L 10.6875 0 
z
" id="DejaVuSans-46"/>
     <path d="M 19.1875 8.296875 
L 53.609375 8.296875 
L 53.609375 0 
L 7.328125 0 
L 7.328125 8.296875 
Q 12.9375 14.109375 22.625 23.890625 
Q 32.328125 33.6875 34.8125 36.53125 
Q 39.546875 41.84375 41.421875 45.53125 
Q 43.3125 49.21875 43.3125 52.78125 
Q 43.3125 58.59375 39.234375 62.25 
Q 35.15625 65.921875 28.609375 65.921875 
Q 23.96875 65.921875 18.8125 64.3125 
Q 13.671875 62.703125 7.8125 59.421875 
L 7.8125 69.390625 
Q 13.765625 71.78125 18.9375 73 
Q 24.125 74.21875 28.421875 74.21875 
Q 39.75 74.21875 46.484375 68.546875 
Q 53.21875 62.890625 53.21875 53.421875 
Q 53.21875 48.921875 51.53125 44.890625 
Q 49.859375 40.875 45.40625 35.40625 
Q 44.1875 33.984375 37.640625 27.21875 
Q 31.109375 20.453125 19.1875 8.296875 
z
" id="DejaVuSans-50"/>
    </defs>
    <g transform="translate(200.664375 28.56)scale(0.12 -0.12)">
     <use xlink:href="#DejaVuSans-116"/>
     <use x="39.208984" xlink:href="#DejaVuSans-32"/>
     <use x="70.996094" xlink:href="#DejaVuSans-61"/>
     <use x="154.785156" xlink:href="#DejaVuSans-32"/>
     <use x="186.572266" xlink:href="#DejaVuSans-48"/>
     <use x="250.195312" xlink:href="#DejaVuSans-46"/>
     <use x="281.982422" xlink:href="#DejaVuSans-50"/>
    </g>
   </g>
  </g>
 </g>
 <defs>
  <clipPath id="p12c7c8275a">
   <rect height="217.44" width="334.8" x="54" y="34.56"/>
  </clipPath>
 </defs>
</svg>
