<?xml version="1.0" encoding="utf-8" standalone="no"?>
<!DOCTYPE svg PUBLIC "-//W3C//DTD SVG 1.1//EN"
  "http://www.w3.org/Graphics/SVG/1.1/DTD/svg11.dtd">
<!-- Created with matplotlib (https://matplotlib.org/) -->
<svg height="288pt" version="1.1" viewBox="0 0 432 288" width="432pt" xmlns="http://www.w3.org/2000/svg" xmlns:xlink="http://www.w3.org/1999/xlink">
 <defs>
  <style type="text/css">
*{stroke-linecap:butt;stroke-linejoin:round;}
  </style>
 </defs>
 <g id="figure_1">
  <g id="patch_1">
   <path d="M 0 288 
L 432 288 
L 432 0 
L 0 0 
z
" style="fill:#ffffff;"/>
  </g>
  <g id="axes_1">
   <g id="patch_2">
    <path clip-path="url(#peaf57d21b0)" d="M 195.790821 132.810068 
L 195.856328 143.68187 
L 194.769148 143.688421 
L 194.703641 132.816618 
z
" style="stroke:#000000;stroke-linejoin:miter;"/>
   </g>
   <g id="patch_3">
    <path clip-path="url(#peaf57d21b0)" d="M 250.149834 132.482532 
L 250.215341 143.354334 
L 249.128161 143.360885 
L 249.062654 132.489082 
z
" style="stroke:#000000;stroke-linejoin:miter;"/>
   </g>
   <g id="patch_4">
    <path clip-path="url(#peaf57d21b0)" d="M 213.366902 132.704164 
L 213.214816 132.153524 
L 212.767867 131.640738 
L 212.033543 131.199479 
L 211.024036 130.858825 
L 209.756022 130.641356 
L 208.25039 130.561671 
L 206.531888 130.625426 
L 204.628718 130.828959 
L 202.572073 131.159518 
L 200.39563 131.596089 
L 198.135 132.110759 
L 195.827156 132.670532 
L 193.50983 133.239474 
L 191.220909 133.781057 
L 188.997822 134.260532 
L 186.876935 134.647192 
L 184.89296 134.916375 
L 183.078401 135.051057 
L 181.463014 135.042966 
L 180.07333 134.893107 
L 178.932214 134.611693 
L 178.058489 134.217468 
L 177.466618 133.736474 
L 177.166464 133.200348 
L 177.163113 132.644246 
L 177.456785 132.104542 
L 178.042817 131.616452 
L 178.911728 131.211726 
L 180.04937 130.916582 
L 181.437147 130.749987 
L 183.052319 130.722431 
L 184.86837 130.835237 
L 186.855444 131.080492 
L 188.980837 131.441567 
L 191.20954 131.894218 
L 193.504821 132.408179 
L 195.828834 132.949155 
L 198.143257 133.481077 
L 200.409924 133.968468 
L 202.591471 134.378781 
L 204.651949 134.684532 
L 206.557434 134.865116 
L 208.27658 134.908158 
L 209.781142 134.810335 
L 211.046443 134.577602 
L 212.051772 134.224808 
L 212.780725 133.774732 
L 213.221463 133.256597 
z
" style="fill:#0000ff;stroke:#000000;stroke-linejoin:miter;"/>
   </g>
   <g id="patch_5">
    <path clip-path="url(#peaf57d21b0)" d="M 267.725915 132.376628 
L 267.57383 131.825988 
L 267.12688 131.313202 
L 266.392556 130.871943 
L 265.383049 130.531289 
L 264.115035 130.31382 
L 262.609403 130.234135 
L 260.890901 130.297891 
L 258.987731 130.501423 
L 256.931086 130.831982 
L 254.754643 131.268553 
L 252.494013 131.783223 
L 250.186169 132.342996 
L 247.868843 132.911939 
L 245.579922 133.453521 
L 243.356836 133.932996 
L 241.235948 134.319657 
L 239.251974 134.588839 
L 237.437414 134.723521 
L 235.822027 134.71543 
L 234.432343 134.565571 
L 233.291228 134.284157 
L 232.417502 133.889932 
L 231.825632 133.408938 
L 231.525477 132.872812 
L 231.522126 132.31671 
L 231.815799 131.777007 
L 232.40183 131.288916 
L 233.270741 130.88419 
L 234.408383 130.589046 
L 235.79616 130.422452 
L 237.411332 130.394895 
L 239.227383 130.507701 
L 241.214457 130.752956 
L 243.33985 131.114031 
L 245.568553 131.566682 
L 247.863834 132.080643 
L 250.187848 132.621619 
L 252.50227 133.153541 
L 254.768938 133.640932 
L 256.950484 134.051245 
L 259.010963 134.356996 
L 260.916447 134.53758 
L 262.635593 134.580622 
L 264.140155 134.482799 
L 265.405456 134.250066 
L 266.410785 133.897272 
L 267.139738 133.447196 
L 267.580476 132.929061 
z
" style="fill:#0000ff;stroke:#000000;stroke-linejoin:miter;"/>
   </g>
   <g id="patch_6">
    <path clip-path="url(#peaf57d21b0)" d="M 255.091276 140.606905 
L 189.86046 140.999949 
L 189.893214 146.43585 
L 255.124029 146.042807 
z
" style="fill:#999999;stroke:#000000;stroke-linejoin:miter;"/>
   </g>
   <g id="text_1">
    <!-- t = 2.1 -->
    <defs>
     <path d="M 18.3125 70.21875 
L 18.3125 54.6875 
L 36.8125 54.6875 
L 36.8125 47.703125 
L 18.3125 47.703125 
L 18.3125 18.015625 
Q 18.3125 11.328125 20.140625 9.421875 
Q 21.96875 7.515625 27.59375 7.515625 
L 36.8125 7.515625 
L 36.8125 0 
L 27.59375 0 
Q 17.1875 0 13.234375 3.875 
Q 9.28125 7.765625 9.28125 18.015625 
L 9.28125 47.703125 
L 2.6875 47.703125 
L 2.6875 54.6875 
L 9.28125 54.6875 
L 9.28125 70.21875 
z
" id="DejaVuSans-116"/>
     <path id="DejaVuSans-32"/>
     <path d="M 10.59375 45.40625 
L 73.1875 45.40625 
L 73.1875 37.203125 
L 10.59375 37.203125 
z
M 10.59375 25.484375 
L 73.1875 25.484375 
L 73.1875 17.1875 
L 10.59375 17.1875 
z
" id="DejaVuSans-61"/>
     <path d="M 19.1875 8.296875 
L 53.609375 8.296875 
L 53.609375 0 
L 7.328125 0 
L 7.328125 8.296875 
Q 12.9375 14.109375 22.625 23.890625 
Q 32.328125 33.6875 34.8125 36.53125 
Q 39.546875 41.84375 41.421875 45.53125 
Q 43.3125 49.21875 43.3125 52.78125 
Q 43.3125 58.59375 39.234375 62.25 
Q 35.15625 65.921875 28.609375 65.921875 
Q 23.96875 65.921875 18.8125 64.3125 
Q 13.671875 62.703125 7.8125 59.421875 
L 7.8125 69.390625 
Q 13.765625 71.78125 18.9375 73 
Q 24.125 74.21875 28.421875 74.21875 
Q 39.75 74.21875 46.484375 68.546875 
Q 53.21875 62.890625 53.21875 53.421875 
Q 53.21875 48.921875 51.53125 44.890625 
Q 49.859375 40.875 45.40625 35.40625 
Q 44.1875 33.984375 37.640625 27.21875 
Q 31.109375 20.453125 19.1875 8.296875 
z
" id="DejaVuSans-50"/>
     <path d="M 10.6875 12.40625 
L 21 12.40625 
L 21 0 
L 10.6875 0 
z
" id="DejaVuSans-46"/>
     <path d="M 12.40625 8.296875 
L 28.515625 8.296875 
L 28.515625 63.921875 
L 10.984375 60.40625 
L 10.984375 69.390625 
L 28.421875 72.90625 
L 38.28125 72.90625 
L 38.28125 8.296875 
L 54.390625 8.296875 
L 54.390625 0 
L 12.40625 0 
z
" id="DejaVuSans-49"/>
    </defs>
    <g transform="translate(200.664375 28.56)scale(0.12 -0.12)">
     <use xlink:href="#DejaVuSans-116"/>
     <use x="39.208984" xlink:href="#DejaVuSans-32"/>
     <use x="70.996094" xlink:href="#DejaVuSans-61"/>
     <use x="154.785156" xlink:href="#DejaVuSans-32"/>
     <use x="186.572266" xlink:href="#DejaVuSans-50"/>
     <use x="250.195312" xlink:href="#DejaVuSans-46"/>
     <use x="281.982422" xlink:href="#DejaVuSans-49"/>
    </g>
   </g>
  </g>
 </g>
 <defs>
  <clipPath id="peaf57d21b0">
   <rect height="217.44" width="334.8" x="54" y="34.56"/>
  </clipPath>
 </defs>
</svg>
