<?xml version="1.0" encoding="utf-8" standalone="no"?>
<!DOCTYPE svg PUBLIC "-//W3C//DTD SVG 1.1//EN"
  "http://www.w3.org/Graphics/SVG/1.1/DTD/svg11.dtd">
<!-- Created with matplotlib (https://matplotlib.org/) -->
<svg height="288pt" version="1.1" viewBox="0 0 432 288" width="432pt" xmlns="http://www.w3.org/2000/svg" xmlns:xlink="http://www.w3.org/1999/xlink">
 <defs>
  <style type="text/css">
*{stroke-linecap:butt;stroke-linejoin:round;}
  </style>
 </defs>
 <g id="figure_1">
  <g id="patch_1">
   <path d="M 0 288 
L 432 288 
L 432 0 
L 0 0 
z
" style="fill:#ffffff;"/>
  </g>
  <g id="axes_1">
   <g id="patch_2">
    <path clip-path="url(#p7522ece1b4)" d="M 194.68145 132.249657 
L 194.642516 143.121587 
L 193.555323 143.117693 
L 193.594257 132.245763 
z
" style="stroke:#000000;stroke-linejoin:miter;"/>
   </g>
   <g id="patch_3">
    <path clip-path="url(#p7522ece1b4)" d="M 249.041101 132.444327 
L 249.002167 143.316257 
L 247.914974 143.312364 
L 247.953908 132.440434 
z
" style="stroke:#000000;stroke-linejoin:miter;"/>
   </g>
   <g id="patch_4">
    <path clip-path="url(#p7522ece1b4)" d="M 212.257737 132.3126 
L 212.110948 131.760524 
L 211.668945 131.243468 
L 210.938895 130.795175 
L 209.932706 130.444839 
L 208.66684 130.2152 
L 207.162043 130.121055 
L 205.443008 130.168299 
L 203.53797 130.353539 
L 201.478245 130.664326 
L 199.297708 131.079969 
L 197.032239 131.572899 
L 194.719123 132.110476 
L 192.396439 132.657132 
L 190.102421 133.176701 
L 187.874831 133.634798 
L 185.750327 134.001067 
L 183.763858 134.251178 
L 181.948089 134.368423 
L 180.332854 134.344814 
L 178.944674 134.181612 
L 177.806314 133.889249 
L 176.936416 133.486649 
L 176.349193 132.999992 
L 176.054203 132.461007 
L 176.056195 131.904899 
L 176.355038 131.368041 
L 176.945731 130.885602 
L 177.81849 130.489242 
L 178.958915 130.20504 
L 180.348228 130.051785 
L 181.96359 130.039746 
L 183.778474 130.169992 
L 185.7631 130.434324 
L 187.884926 130.8158 
L 190.109179 131.28984 
L 192.399416 131.825826 
L 194.718125 132.389103 
L 197.027331 132.943233 
L 199.289212 133.452376 
L 201.466716 133.883626 
L 203.524163 134.209158 
L 205.427825 134.408038 
L 207.146477 134.467593 
L 208.65191 134.384228 
L 209.919388 134.16366 
L 210.92806 133.82054 
L 211.661303 133.377487 
L 212.106998 132.86361 
z
" style="fill:#0000ff;stroke:#000000;stroke-linejoin:miter;"/>
   </g>
   <g id="patch_5">
    <path clip-path="url(#p7522ece1b4)" d="M 266.617389 132.507271 
L 266.4706 131.955195 
L 266.028597 131.438139 
L 265.298546 130.989846 
L 264.292357 130.63951 
L 263.026492 130.40987 
L 261.521694 130.315725 
L 259.802659 130.362969 
L 257.897622 130.54821 
L 255.837896 130.858997 
L 253.65736 131.27464 
L 251.39189 131.76757 
L 249.078775 132.305147 
L 246.75609 132.851802 
L 244.462073 133.371372 
L 242.234483 133.829468 
L 240.109978 134.195737 
L 238.12351 134.445848 
L 236.30774 134.563093 
L 234.692506 134.539484 
L 233.304325 134.376283 
L 232.165966 134.08392 
L 231.296068 133.681319 
L 230.708845 133.194662 
L 230.413855 132.655678 
L 230.415846 132.099569 
L 230.714689 131.562711 
L 231.305382 131.080273 
L 232.178142 130.683913 
L 233.318566 130.399711 
L 234.70788 130.246456 
L 236.323242 130.234416 
L 238.138125 130.364663 
L 240.122751 130.628995 
L 242.244578 131.010471 
L 244.46883 131.48451 
L 246.759067 132.020497 
L 249.077777 132.583774 
L 251.386983 133.137904 
L 253.648864 133.647047 
L 255.826368 134.078297 
L 257.883814 134.403828 
L 259.787476 134.602708 
L 261.506129 134.662263 
L 263.011562 134.578898 
L 264.27904 134.358331 
L 265.287712 134.015211 
L 266.020954 133.572158 
L 266.46665 133.058281 
z
" style="fill:#0000ff;stroke:#000000;stroke-linejoin:miter;"/>
   </g>
   <g id="patch_6">
    <path clip-path="url(#p7522ece1b4)" d="M 253.904269 140.615795 
L 188.672688 140.38219 
L 188.653221 145.818156 
L 253.884802 146.05176 
z
" style="fill:#999999;stroke:#000000;stroke-linejoin:miter;"/>
   </g>
   <g id="text_1">
    <!-- t = 2.0 -->
    <defs>
     <path d="M 18.3125 70.21875 
L 18.3125 54.6875 
L 36.8125 54.6875 
L 36.8125 47.703125 
L 18.3125 47.703125 
L 18.3125 18.015625 
Q 18.3125 11.328125 20.140625 9.421875 
Q 21.96875 7.515625 27.59375 7.515625 
L 36.8125 7.515625 
L 36.8125 0 
L 27.59375 0 
Q 17.1875 0 13.234375 3.875 
Q 9.28125 7.765625 9.28125 18.015625 
L 9.28125 47.703125 
L 2.6875 47.703125 
L 2.6875 54.6875 
L 9.28125 54.6875 
L 9.28125 70.21875 
z
" id="DejaVuSans-116"/>
     <path id="DejaVuSans-32"/>
     <path d="M 10.59375 45.40625 
L 73.1875 45.40625 
L 73.1875 37.203125 
L 10.59375 37.203125 
z
M 10.59375 25.484375 
L 73.1875 25.484375 
L 73.1875 17.1875 
L 10.59375 17.1875 
z
" id="DejaVuSans-61"/>
     <path d="M 19.1875 8.296875 
L 53.609375 8.296875 
L 53.609375 0 
L 7.328125 0 
L 7.328125 8.296875 
Q 12.9375 14.109375 22.625 23.890625 
Q 32.328125 33.6875 34.8125 36.53125 
Q 39.546875 41.84375 41.421875 45.53125 
Q 43.3125 49.21875 43.3125 52.78125 
Q 43.3125 58.59375 39.234375 62.25 
Q 35.15625 65.921875 28.609375 65.921875 
Q 23.96875 65.921875 18.8125 64.3125 
Q 13.671875 62.703125 7.8125 59.421875 
L 7.8125 69.390625 
Q 13.765625 71.78125 18.9375 73 
Q 24.125 74.21875 28.421875 74.21875 
Q 39.75 74.21875 46.484375 68.546875 
Q 53.21875 62.890625 53.21875 53.421875 
Q 53.21875 48.921875 51.53125 44.890625 
Q 49.859375 40.875 45.40625 35.40625 
Q 44.1875 33.984375 37.640625 27.21875 
Q 31.109375 20.453125 19.1875 8.296875 
z
" id="DejaVuSans-50"/>
     <path d="M 10.6875 12.40625 
L 21 12.40625 
L 21 0 
L 10.6875 0 
z
" id="DejaVuSans-46"/>
     <path d="M 31.78125 66.40625 
Q 24.171875 66.40625 20.328125 58.90625 
Q 16.5 51.421875 16.5 36.375 
Q 16.5 21.390625 20.328125 13.890625 
Q 24.171875 6.390625 31.78125 6.390625 
Q 39.453125 6.390625 43.28125 13.890625 
Q 47.125 21.390625 47.125 36.375 
Q 47.125 51.421875 43.28125 58.90625 
Q 39.453125 66.40625 31.78125 66.40625 
z
M 31.78125 74.21875 
Q 44.046875 74.21875 50.515625 64.515625 
Q 56.984375 54.828125 56.984375 36.375 
Q 56.984375 17.96875 50.515625 8.265625 
Q 44.046875 -1.421875 31.78125 -1.421875 
Q 19.53125 -1.421875 13.0625 8.265625 
Q 6.59375 17.96875 6.59375 36.375 
Q 6.59375 54.828125 13.0625 64.515625 
Q 19.53125 74.21875 31.78125 74.21875 
z
" id="DejaVuSans-48"/>
    </defs>
    <g transform="translate(200.664375 28.56)scale(0.12 -0.12)">
     <use xlink:href="#DejaVuSans-116"/>
     <use x="39.208984" xlink:href="#DejaVuSans-32"/>
     <use x="70.996094" xlink:href="#DejaVuSans-61"/>
     <use x="154.785156" xlink:href="#DejaVuSans-32"/>
     <use x="186.572266" xlink:href="#DejaVuSans-50"/>
     <use x="250.195312" xlink:href="#DejaVuSans-46"/>
     <use x="281.982422" xlink:href="#DejaVuSans-48"/>
    </g>
   </g>
  </g>
 </g>
 <defs>
  <clipPath id="p7522ece1b4">
   <rect height="217.44" width="334.8" x="54" y="34.56"/>
  </clipPath>
 </defs>
</svg>
