<?xml version="1.0" encoding="utf-8" standalone="no"?>
<!DOCTYPE svg PUBLIC "-//W3C//DTD SVG 1.1//EN"
  "http://www.w3.org/Graphics/SVG/1.1/DTD/svg11.dtd">
<!-- Created with matplotlib (https://matplotlib.org/) -->
<svg height="288pt" version="1.1" viewBox="0 0 432 288" width="432pt" xmlns="http://www.w3.org/2000/svg" xmlns:xlink="http://www.w3.org/1999/xlink">
 <defs>
  <style type="text/css">
*{stroke-linecap:butt;stroke-linejoin:round;}
  </style>
 </defs>
 <g id="figure_1">
  <g id="patch_1">
   <path d="M 0 288 
L 432 288 
L 432 0 
L 0 0 
z
" style="fill:#ffffff;"/>
  </g>
  <g id="axes_1">
   <g id="patch_2">
    <path clip-path="url(#pecbe9f179d)" d="M 194.581069 132.427874 
L 194.587977 143.299872 
L 193.500777 143.300562 
L 193.493869 132.428565 
z
" style="stroke:#000000;stroke-linejoin:miter;"/>
   </g>
   <g id="patch_3">
    <path clip-path="url(#pecbe9f179d)" d="M 248.941058 132.393333 
L 248.947966 143.26533 
L 247.860766 143.266021 
L 247.853858 132.394023 
z
" style="stroke:#000000;stroke-linejoin:miter;"/>
   </g>
   <g id="patch_4">
    <path clip-path="url(#pecbe9f179d)" d="M 212.157465 132.416705 
L 212.00835 131.865254 
L 211.56417 131.350066 
L 210.832236 130.904855 
L 209.824579 130.558765 
L 208.557756 130.334465 
L 207.052576 130.246666 
L 205.333755 130.301158 
L 203.429516 130.494429 
L 201.371119 130.813898 
L 199.192354 131.238732 
L 196.928983 131.74121 
L 194.618155 132.288536 
L 192.297796 132.84498 
L 190.00599 133.374218 
L 187.780351 133.841703 
L 185.65741 134.216927 
L 183.672014 134.475412 
L 181.856755 134.600312 
L 180.241435 134.583514 
L 178.852579 134.426167 
L 177.712997 134.138607 
L 176.841409 133.739678 
L 176.252139 133.255501 
L 175.954879 132.717765 
L 175.954526 132.161653 
L 176.251102 131.62354 
L 176.839756 131.138615 
L 177.710836 130.738579 
L 178.850052 130.44957 
L 180.238707 130.290459 
L 181.854004 130.271608 
L 183.669421 130.394201 
L 185.655144 130.650163 
L 187.77856 131.022688 
L 190.004791 131.487345 
L 192.297268 132.01367 
L 194.618332 132.567164 
L 196.929854 133.111553 
L 199.193862 133.611154 
L 201.373165 134.033219 
L 203.431965 134.350072 
L 205.336449 134.540923 
L 207.055338 134.593231 
L 208.560405 134.503519 
L 209.826942 134.277609 
L 210.834159 133.930239 
L 211.565526 133.484098 
L 212.009051 132.968346 
z
" style="fill:#0000ff;stroke:#000000;stroke-linejoin:miter;"/>
   </g>
   <g id="patch_5">
    <path clip-path="url(#pecbe9f179d)" d="M 266.517454 132.382164 
L 266.368339 131.830712 
L 265.924159 131.315525 
L 265.192225 130.870314 
L 264.184568 130.524224 
L 262.917745 130.299924 
L 261.412565 130.212125 
L 259.693744 130.266616 
L 257.789505 130.459888 
L 255.731108 130.779357 
L 253.552343 131.204191 
L 251.288972 131.706669 
L 248.978144 132.253995 
L 246.657785 132.810439 
L 244.365979 133.339677 
L 242.14034 133.807162 
L 240.017399 134.182386 
L 238.032003 134.44087 
L 236.216744 134.565771 
L 234.601424 134.548973 
L 233.212568 134.391626 
L 232.072986 134.104066 
L 231.201398 133.705136 
L 230.612128 133.22096 
L 230.314868 132.683224 
L 230.314515 132.127112 
L 230.611091 131.588999 
L 231.199745 131.104074 
L 232.070825 130.704037 
L 233.210041 130.415029 
L 234.598696 130.255917 
L 236.213993 130.237067 
L 238.02941 130.35966 
L 240.015133 130.615621 
L 242.138549 130.988147 
L 244.36478 131.452803 
L 246.657257 131.979128 
L 248.978321 132.532623 
L 251.289843 133.077012 
L 253.553851 133.576613 
L 255.733154 133.998678 
L 257.791954 134.31553 
L 259.696438 134.506382 
L 261.415327 134.558689 
L 262.920395 134.468978 
L 264.186931 134.243068 
L 265.194148 133.895698 
L 265.925515 133.449557 
L 266.36904 132.933805 
z
" style="fill:#0000ff;stroke:#000000;stroke-linejoin:miter;"/>
   </g>
   <g id="patch_6">
    <path clip-path="url(#pecbe9f179d)" d="M 253.838638 140.544222 
L 188.606651 140.585672 
L 188.610105 146.021671 
L 253.842092 145.980221 
z
" style="fill:#999999;stroke:#000000;stroke-linejoin:miter;"/>
   </g>
   <g id="text_1">
    <!-- t = 2.9 -->
    <defs>
     <path d="M 18.3125 70.21875 
L 18.3125 54.6875 
L 36.8125 54.6875 
L 36.8125 47.703125 
L 18.3125 47.703125 
L 18.3125 18.015625 
Q 18.3125 11.328125 20.140625 9.421875 
Q 21.96875 7.515625 27.59375 7.515625 
L 36.8125 7.515625 
L 36.8125 0 
L 27.59375 0 
Q 17.1875 0 13.234375 3.875 
Q 9.28125 7.765625 9.28125 18.015625 
L 9.28125 47.703125 
L 2.6875 47.703125 
L 2.6875 54.6875 
L 9.28125 54.6875 
L 9.28125 70.21875 
z
" id="DejaVuSans-116"/>
     <path id="DejaVuSans-32"/>
     <path d="M 10.59375 45.40625 
L 73.1875 45.40625 
L 73.1875 37.203125 
L 10.59375 37.203125 
z
M 10.59375 25.484375 
L 73.1875 25.484375 
L 73.1875 17.1875 
L 10.59375 17.1875 
z
" id="DejaVuSans-61"/>
     <path d="M 19.1875 8.296875 
L 53.609375 8.296875 
L 53.609375 0 
L 7.328125 0 
L 7.328125 8.296875 
Q 12.9375 14.109375 22.625 23.890625 
Q 32.328125 33.6875 34.8125 36.53125 
Q 39.546875 41.84375 41.421875 45.53125 
Q 43.3125 49.21875 43.3125 52.78125 
Q 43.3125 58.59375 39.234375 62.25 
Q 35.15625 65.921875 28.609375 65.921875 
Q 23.96875 65.921875 18.8125 64.3125 
Q 13.671875 62.703125 7.8125 59.421875 
L 7.8125 69.390625 
Q 13.765625 71.78125 18.9375 73 
Q 24.125 74.21875 28.421875 74.21875 
Q 39.75 74.21875 46.484375 68.546875 
Q 53.21875 62.890625 53.21875 53.421875 
Q 53.21875 48.921875 51.53125 44.890625 
Q 49.859375 40.875 45.40625 35.40625 
Q 44.1875 33.984375 37.640625 27.21875 
Q 31.109375 20.453125 19.1875 8.296875 
z
" id="DejaVuSans-50"/>
     <path d="M 10.6875 12.40625 
L 21 12.40625 
L 21 0 
L 10.6875 0 
z
" id="DejaVuSans-46"/>
     <path d="M 10.984375 1.515625 
L 10.984375 10.5 
Q 14.703125 8.734375 18.5 7.8125 
Q 22.3125 6.890625 25.984375 6.890625 
Q 35.75 6.890625 40.890625 13.453125 
Q 46.046875 20.015625 46.78125 33.40625 
Q 43.953125 29.203125 39.59375 26.953125 
Q 35.25 24.703125 29.984375 24.703125 
Q 19.046875 24.703125 12.671875 31.3125 
Q 6.296875 37.9375 6.296875 49.421875 
Q 6.296875 60.640625 12.9375 67.421875 
Q 19.578125 74.21875 30.609375 74.21875 
Q 43.265625 74.21875 49.921875 64.515625 
Q 56.59375 54.828125 56.59375 36.375 
Q 56.59375 19.140625 48.40625 8.859375 
Q 40.234375 -1.421875 26.421875 -1.421875 
Q 22.703125 -1.421875 18.890625 -0.6875 
Q 15.09375 0.046875 10.984375 1.515625 
z
M 30.609375 32.421875 
Q 37.25 32.421875 41.125 36.953125 
Q 45.015625 41.5 45.015625 49.421875 
Q 45.015625 57.28125 41.125 61.84375 
Q 37.25 66.40625 30.609375 66.40625 
Q 23.96875 66.40625 20.09375 61.84375 
Q 16.21875 57.28125 16.21875 49.421875 
Q 16.21875 41.5 20.09375 36.953125 
Q 23.96875 32.421875 30.609375 32.421875 
z
" id="DejaVuSans-57"/>
    </defs>
    <g transform="translate(200.664375 28.56)scale(0.12 -0.12)">
     <use xlink:href="#DejaVuSans-116"/>
     <use x="39.208984" xlink:href="#DejaVuSans-32"/>
     <use x="70.996094" xlink:href="#DejaVuSans-61"/>
     <use x="154.785156" xlink:href="#DejaVuSans-32"/>
     <use x="186.572266" xlink:href="#DejaVuSans-50"/>
     <use x="250.195312" xlink:href="#DejaVuSans-46"/>
     <use x="281.982422" xlink:href="#DejaVuSans-57"/>
    </g>
   </g>
  </g>
 </g>
 <defs>
  <clipPath id="pecbe9f179d">
   <rect height="217.44" width="334.8" x="54" y="34.56"/>
  </clipPath>
 </defs>
</svg>
