<?xml version="1.0" encoding="utf-8" standalone="no"?>
<!DOCTYPE svg PUBLIC "-//W3C//DTD SVG 1.1//EN"
  "http://www.w3.org/Graphics/SVG/1.1/DTD/svg11.dtd">
<!-- Created with matplotlib (https://matplotlib.org/) -->
<svg height="288pt" version="1.1" viewBox="0 0 432 288" width="432pt" xmlns="http://www.w3.org/2000/svg" xmlns:xlink="http://www.w3.org/1999/xlink">
 <defs>
  <style type="text/css">
*{stroke-linecap:butt;stroke-linejoin:round;}
  </style>
 </defs>
 <g id="figure_1">
  <g id="patch_1">
   <path d="M 0 288 
L 432 288 
L 432 0 
L 0 0 
z
" style="fill:#ffffff;"/>
  </g>
  <g id="axes_1">
   <g id="patch_2">
    <path clip-path="url(#p0a8c7675aa)" d="M 196.170162 133.440078 
L 195.672292 144.300672 
L 194.586233 144.250885 
L 195.084102 133.390291 
z
" style="stroke:#000000;stroke-linejoin:miter;"/>
   </g>
   <g id="patch_3">
    <path clip-path="url(#p0a8c7675aa)" d="M 250.473133 135.929426 
L 249.975264 146.79002 
L 248.889204 146.740233 
L 249.387074 135.879639 
z
" style="stroke:#000000;stroke-linejoin:miter;"/>
   </g>
   <g id="patch_4">
    <path clip-path="url(#p0a8c7675aa)" d="M 213.728123 134.244967 
L 213.604771 133.687187 
L 213.18499 133.151932 
L 212.474515 132.673219 
L 211.484014 132.280718 
L 210.228971 131.997843 
L 208.72949 131.840255 
L 207.009992 131.814886 
L 205.098833 131.919538 
L 203.027824 132.143095 
L 200.831684 132.466314 
L 198.547425 132.863165 
L 196.213677 133.302612 
L 193.869986 133.750725 
L 191.556079 134.172987 
L 189.311136 134.536635 
L 187.173063 134.812889 
L 185.177807 134.978917 
L 183.358706 135.019402 
L 181.745908 134.927626 
L 180.365855 134.705966 
L 179.240853 134.365807 
L 178.388727 133.926841 
L 177.822572 133.415828 
L 177.550599 132.864871 
L 177.576065 132.309342 
L 177.897306 131.785579 
L 178.507839 131.328507 
L 179.396553 130.969345 
L 180.547959 130.73354 
L 181.942503 130.639073 
L 183.556934 130.695239 
L 185.364701 130.901987 
L 187.336398 131.249866 
L 189.440229 131.720577 
L 191.642486 132.288093 
L 193.908054 132.920287 
L 196.200918 133.580948 
L 198.484672 134.23207 
L 200.723042 134.836247 
L 202.880399 135.359038 
L 204.922269 135.771137 
L 206.815838 136.050205 
L 208.530444 136.182261 
L 210.038054 136.162524 
L 211.313714 135.995661 
L 212.335972 135.695429 
L 213.087264 135.283726 
L 213.554256 134.789122 
z
" style="fill:#0000ff;stroke:#000000;stroke-linejoin:miter;"/>
   </g>
   <g id="patch_5">
    <path clip-path="url(#p0a8c7675aa)" d="M 268.031094 136.734315 
L 267.907743 136.176535 
L 267.487962 135.64128 
L 266.777487 135.162567 
L 265.786985 134.770066 
L 264.531942 134.487191 
L 263.032461 134.329604 
L 261.312964 134.304234 
L 259.401805 134.408887 
L 257.330796 134.632443 
L 255.134656 134.955662 
L 252.850396 135.352513 
L 250.516649 135.79196 
L 248.172957 136.240074 
L 245.859051 136.662336 
L 243.614107 137.025984 
L 241.476035 137.302238 
L 239.480778 137.468265 
L 237.661678 137.508751 
L 236.04888 137.416974 
L 234.668827 137.195314 
L 233.543825 136.855155 
L 232.691698 136.41619 
L 232.125544 135.905176 
L 231.85357 135.354219 
L 231.879037 134.79869 
L 232.200277 134.274927 
L 232.810811 133.817855 
L 233.699525 133.458693 
L 234.85093 133.222889 
L 236.245475 133.128422 
L 237.859905 133.184587 
L 239.667672 133.391335 
L 241.63937 133.739215 
L 243.743201 134.209925 
L 245.945458 134.777441 
L 248.211026 135.409635 
L 250.503889 136.070297 
L 252.787643 136.721418 
L 255.026014 137.325595 
L 257.183371 137.848387 
L 259.225241 138.260485 
L 261.118809 138.539553 
L 262.833416 138.671609 
L 264.341026 138.651872 
L 265.616685 138.48501 
L 266.638943 138.184777 
L 267.390236 137.773074 
L 267.857228 137.278471 
z
" style="fill:#0000ff;stroke:#000000;stroke-linejoin:miter;"/>
   </g>
   <g id="patch_6">
    <path clip-path="url(#p0a8c7675aa)" d="M 254.986999 144.298913 
L 189.823432 141.311695 
L 189.574498 146.741992 
L 254.738064 149.72921 
z
" style="fill:#999999;stroke:#000000;stroke-linejoin:miter;"/>
   </g>
   <g id="text_1">
    <!-- t = 1.4 -->
    <defs>
     <path d="M 18.3125 70.21875 
L 18.3125 54.6875 
L 36.8125 54.6875 
L 36.8125 47.703125 
L 18.3125 47.703125 
L 18.3125 18.015625 
Q 18.3125 11.328125 20.140625 9.421875 
Q 21.96875 7.515625 27.59375 7.515625 
L 36.8125 7.515625 
L 36.8125 0 
L 27.59375 0 
Q 17.1875 0 13.234375 3.875 
Q 9.28125 7.765625 9.28125 18.015625 
L 9.28125 47.703125 
L 2.6875 47.703125 
L 2.6875 54.6875 
L 9.28125 54.6875 
L 9.28125 70.21875 
z
" id="DejaVuSans-116"/>
     <path id="DejaVuSans-32"/>
     <path d="M 10.59375 45.40625 
L 73.1875 45.40625 
L 73.1875 37.203125 
L 10.59375 37.203125 
z
M 10.59375 25.484375 
L 73.1875 25.484375 
L 73.1875 17.1875 
L 10.59375 17.1875 
z
" id="DejaVuSans-61"/>
     <path d="M 12.40625 8.296875 
L 28.515625 8.296875 
L 28.515625 63.921875 
L 10.984375 60.40625 
L 10.984375 69.390625 
L 28.421875 72.90625 
L 38.28125 72.90625 
L 38.28125 8.296875 
L 54.390625 8.296875 
L 54.390625 0 
L 12.40625 0 
z
" id="DejaVuSans-49"/>
     <path d="M 10.6875 12.40625 
L 21 12.40625 
L 21 0 
L 10.6875 0 
z
" id="DejaVuSans-46"/>
     <path d="M 37.796875 64.3125 
L 12.890625 25.390625 
L 37.796875 25.390625 
z
M 35.203125 72.90625 
L 47.609375 72.90625 
L 47.609375 25.390625 
L 58.015625 25.390625 
L 58.015625 17.1875 
L 47.609375 17.1875 
L 47.609375 0 
L 37.796875 0 
L 37.796875 17.1875 
L 4.890625 17.1875 
L 4.890625 26.703125 
z
" id="DejaVuSans-52"/>
    </defs>
    <g transform="translate(200.664375 28.56)scale(0.12 -0.12)">
     <use xlink:href="#DejaVuSans-116"/>
     <use x="39.208984" xlink:href="#DejaVuSans-32"/>
     <use x="70.996094" xlink:href="#DejaVuSans-61"/>
     <use x="154.785156" xlink:href="#DejaVuSans-32"/>
     <use x="186.572266" xlink:href="#DejaVuSans-49"/>
     <use x="250.195312" xlink:href="#DejaVuSans-46"/>
     <use x="281.982422" xlink:href="#DejaVuSans-52"/>
    </g>
   </g>
  </g>
 </g>
 <defs>
  <clipPath id="p0a8c7675aa">
   <rect height="217.44" width="334.8" x="54" y="34.56"/>
  </clipPath>
 </defs>
</svg>
