<?xml version="1.0" encoding="utf-8" standalone="no"?>
<!DOCTYPE svg PUBLIC "-//W3C//DTD SVG 1.1//EN"
  "http://www.w3.org/Graphics/SVG/1.1/DTD/svg11.dtd">
<!-- Created with matplotlib (https://matplotlib.org/) -->
<svg height="288pt" version="1.1" viewBox="0 0 432 288" width="432pt" xmlns="http://www.w3.org/2000/svg" xmlns:xlink="http://www.w3.org/1999/xlink">
 <defs>
  <style type="text/css">
*{stroke-linecap:butt;stroke-linejoin:round;}
  </style>
 </defs>
 <g id="figure_1">
  <g id="patch_1">
   <path d="M 0 288 
L 432 288 
L 432 0 
L 0 0 
z
" style="fill:#ffffff;"/>
  </g>
  <g id="axes_1">
   <g id="patch_2">
    <path clip-path="url(#p27182e0df7)" d="M 194.8878 132.376673 
L 194.862561 143.248644 
L 193.775364 143.24612 
L 193.800603 132.374149 
z
" style="stroke:#000000;stroke-linejoin:miter;"/>
   </g>
   <g id="patch_3">
    <path clip-path="url(#p27182e0df7)" d="M 249.247653 132.502869 
L 249.222414 143.37484 
L 248.135217 143.372316 
L 248.160456 132.500345 
z
" style="stroke:#000000;stroke-linejoin:miter;"/>
   </g>
   <g id="patch_4">
    <path clip-path="url(#p27182e0df7)" d="M 212.464152 132.417476 
L 212.316668 131.865586 
L 211.874014 131.349087 
L 211.143399 130.901714 
L 210.13677 130.552646 
L 208.870616 130.324601 
L 207.365702 130.232352 
L 205.646727 130.281761 
L 203.741925 130.469401 
L 201.682593 130.782782 
L 199.502581 131.201172 
L 197.237734 131.696955 
L 194.925298 132.237445 
L 192.603304 132.787026 
L 190.309943 133.309485 
L 188.082931 133.770387 
L 185.95889 134.139332 
L 183.972738 134.391945 
L 182.157117 134.511477 
L 180.541855 134.489903 
L 179.15347 134.32845 
L 178.014743 134.037521 
L 177.144338 133.636017 
L 176.556503 133.1501 
L 176.260834 132.611487 
L 176.262125 132.055377 
L 176.560292 131.518143 
L 177.150377 131.034961 
L 178.022636 130.637502 
L 179.162702 130.351863 
L 180.551821 130.196858 
L 182.167167 130.182784 
L 183.982213 130.310744 
L 185.96717 130.572576 
L 188.089476 130.951379 
L 190.314323 131.422616 
L 192.605234 131.955718 
L 194.924651 132.516073 
L 197.234553 133.067294 
L 199.497074 133.573588 
L 201.675119 134.002095 
L 203.732974 134.325034 
L 205.636885 134.521516 
L 207.355611 134.578906 
L 208.860938 134.493645 
L 210.128137 134.271481 
L 211.136376 133.92709 
L 211.86906 133.483114 
L 212.314108 132.968676 
z
" style="fill:#0000ff;stroke:#000000;stroke-linejoin:miter;"/>
   </g>
   <g id="patch_5">
    <path clip-path="url(#p27182e0df7)" d="M 266.824006 132.543673 
L 266.676522 131.991782 
L 266.233868 131.475284 
L 265.503253 131.02791 
L 264.496624 130.678842 
L 263.23047 130.450797 
L 261.725555 130.358548 
L 260.006581 130.407957 
L 258.101778 130.595597 
L 256.042446 130.908979 
L 253.862435 131.327368 
L 251.597588 131.823152 
L 249.285151 132.363642 
L 246.963157 132.913222 
L 244.669796 133.435681 
L 242.442785 133.896583 
L 240.318743 134.265528 
L 238.332592 134.518141 
L 236.516971 134.637673 
L 234.901708 134.616099 
L 233.513323 134.454646 
L 232.374596 134.163717 
L 231.504192 133.762213 
L 230.916357 133.276296 
L 230.620688 132.737684 
L 230.621979 132.181573 
L 230.920145 131.644339 
L 231.51023 131.161157 
L 232.382489 130.763698 
L 233.522555 130.478059 
L 234.911674 130.323055 
L 236.52702 130.30898 
L 238.342066 130.436941 
L 240.327024 130.698773 
L 242.449329 131.077575 
L 244.674177 131.548813 
L 246.965087 132.081914 
L 249.284504 132.64227 
L 251.594407 133.19349 
L 253.856927 133.699784 
L 256.034972 134.128291 
L 258.092827 134.45123 
L 259.996738 134.647712 
L 261.715465 134.705102 
L 263.220791 134.619841 
L 264.487991 134.397677 
L 265.49623 134.053287 
L 266.228913 133.60931 
L 266.673961 133.094872 
z
" style="fill:#0000ff;stroke:#000000;stroke-linejoin:miter;"/>
   </g>
   <g id="patch_6">
    <path clip-path="url(#p27182e0df7)" d="M 254.121111 140.668205 
L 188.889287 140.516769 
L 188.876667 145.952755 
L 254.108491 146.10419 
z
" style="fill:#999999;stroke:#000000;stroke-linejoin:miter;"/>
   </g>
   <g id="text_1">
    <!-- t = 2.7 -->
    <defs>
     <path d="M 18.3125 70.21875 
L 18.3125 54.6875 
L 36.8125 54.6875 
L 36.8125 47.703125 
L 18.3125 47.703125 
L 18.3125 18.015625 
Q 18.3125 11.328125 20.140625 9.421875 
Q 21.96875 7.515625 27.59375 7.515625 
L 36.8125 7.515625 
L 36.8125 0 
L 27.59375 0 
Q 17.1875 0 13.234375 3.875 
Q 9.28125 7.765625 9.28125 18.015625 
L 9.28125 47.703125 
L 2.6875 47.703125 
L 2.6875 54.6875 
L 9.28125 54.6875 
L 9.28125 70.21875 
z
" id="DejaVuSans-116"/>
     <path id="DejaVuSans-32"/>
     <path d="M 10.59375 45.40625 
L 73.1875 45.40625 
L 73.1875 37.203125 
L 10.59375 37.203125 
z
M 10.59375 25.484375 
L 73.1875 25.484375 
L 73.1875 17.1875 
L 10.59375 17.1875 
z
" id="DejaVuSans-61"/>
     <path d="M 19.1875 8.296875 
L 53.609375 8.296875 
L 53.609375 0 
L 7.328125 0 
L 7.328125 8.296875 
Q 12.9375 14.109375 22.625 23.890625 
Q 32.328125 33.6875 34.8125 36.53125 
Q 39.546875 41.84375 41.421875 45.53125 
Q 43.3125 49.21875 43.3125 52.78125 
Q 43.3125 58.59375 39.234375 62.25 
Q 35.15625 65.921875 28.609375 65.921875 
Q 23.96875 65.921875 18.8125 64.3125 
Q 13.671875 62.703125 7.8125 59.421875 
L 7.8125 69.390625 
Q 13.765625 71.78125 18.9375 73 
Q 24.125 74.21875 28.421875 74.21875 
Q 39.75 74.21875 46.484375 68.546875 
Q 53.21875 62.890625 53.21875 53.421875 
Q 53.21875 48.921875 51.53125 44.890625 
Q 49.859375 40.875 45.40625 35.40625 
Q 44.1875 33.984375 37.640625 27.21875 
Q 31.109375 20.453125 19.1875 8.296875 
z
" id="DejaVuSans-50"/>
     <path d="M 10.6875 12.40625 
L 21 12.40625 
L 21 0 
L 10.6875 0 
z
" id="DejaVuSans-46"/>
     <path d="M 8.203125 72.90625 
L 55.078125 72.90625 
L 55.078125 68.703125 
L 28.609375 0 
L 18.3125 0 
L 43.21875 64.59375 
L 8.203125 64.59375 
z
" id="DejaVuSans-55"/>
    </defs>
    <g transform="translate(200.664375 28.56)scale(0.12 -0.12)">
     <use xlink:href="#DejaVuSans-116"/>
     <use x="39.208984" xlink:href="#DejaVuSans-32"/>
     <use x="70.996094" xlink:href="#DejaVuSans-61"/>
     <use x="154.785156" xlink:href="#DejaVuSans-32"/>
     <use x="186.572266" xlink:href="#DejaVuSans-50"/>
     <use x="250.195312" xlink:href="#DejaVuSans-46"/>
     <use x="281.982422" xlink:href="#DejaVuSans-55"/>
    </g>
   </g>
  </g>
 </g>
 <defs>
  <clipPath id="p27182e0df7">
   <rect height="217.44" width="334.8" x="54" y="34.56"/>
  </clipPath>
 </defs>
</svg>
