<?xml version="1.0" encoding="utf-8" standalone="no"?>
<!DOCTYPE svg PUBLIC "-//W3C//DTD SVG 1.1//EN"
  "http://www.w3.org/Graphics/SVG/1.1/DTD/svg11.dtd">
<!-- Created with matplotlib (https://matplotlib.org/) -->
<svg height="288pt" version="1.1" viewBox="0 0 432 288" width="432pt" xmlns="http://www.w3.org/2000/svg" xmlns:xlink="http://www.w3.org/1999/xlink">
 <defs>
  <style type="text/css">
*{stroke-linecap:butt;stroke-linejoin:round;}
  </style>
 </defs>
 <g id="figure_1">
  <g id="patch_1">
   <path d="M 0 288 
L 432 288 
L 432 0 
L 0 0 
z
" style="fill:#ffffff;"/>
  </g>
  <g id="axes_1">
   <g id="patch_2">
    <path clip-path="url(#p3f6f57a1cb)" d="M 194.763183 132.410139 
L 194.764028 143.282139 
L 193.676828 143.282223 
L 193.675983 132.410223 
z
" style="stroke:#000000;stroke-linejoin:miter;"/>
   </g>
   <g id="patch_3">
    <path clip-path="url(#p3f6f57a1cb)" d="M 249.123183 132.405913 
L 249.124028 143.277913 
L 248.036828 143.277998 
L 248.035983 132.405998 
z
" style="stroke:#000000;stroke-linejoin:miter;"/>
   </g>
   <g id="patch_4">
    <path clip-path="url(#p3f6f57a1cb)" d="M 212.339583 132.408773 
L 212.190775 131.857238 
L 211.746883 131.341802 
L 211.015197 130.896183 
L 210.007733 130.549531 
L 208.741036 130.324525 
L 207.235904 130.235886 
L 205.517054 130.28942 
L 203.612707 130.481629 
L 201.554132 130.79995 
L 199.375131 131.223569 
L 197.11148 131.724785 
L 194.800347 132.270822 
L 192.479678 132.825972 
L 190.187577 133.353931 
L 187.961678 133.820175 
L 185.838528 134.194215 
L 183.852988 134.451593 
L 182.037659 134.57548 
L 180.422349 134.557782 
L 179.033581 134.39966 
L 177.894159 134.111464 
L 177.022794 133.712049 
L 176.433795 133.227544 
L 176.136834 132.689643 
L 176.136791 132.133531 
L 176.433668 131.595583 
L 177.022592 131.110986 
L 177.893895 130.711436 
L 179.033272 130.423063 
L 180.422016 130.264725 
L 182.037323 130.246776 
L 183.852671 130.370381 
L 185.838251 130.62745 
L 187.961459 131.00116 
L 190.18743 131.467058 
L 192.479614 131.994661 
L 194.800369 132.54945 
L 197.111586 133.095128 
L 199.375315 133.595991 
L 201.554382 134.019271 
L 203.613006 134.337272 
L 205.517383 134.529186 
L 207.236242 134.582452 
L 208.74136 134.49358 
L 210.008023 134.268376 
L 211.015432 133.921568 
L 211.747049 133.475835 
L 212.190861 132.960331 
z
" style="fill:#0000ff;stroke:#000000;stroke-linejoin:miter;"/>
   </g>
   <g id="patch_5">
    <path clip-path="url(#p3f6f57a1cb)" d="M 266.699583 132.404547 
L 266.550775 131.853012 
L 266.106883 131.337577 
L 265.375197 130.891958 
L 264.367733 130.545306 
L 263.101036 130.320299 
L 261.595904 130.231661 
L 259.877053 130.285194 
L 257.972706 130.477404 
L 255.914132 130.795725 
L 253.735131 131.219344 
L 251.47148 131.720559 
L 249.160347 132.266596 
L 246.839678 132.821746 
L 244.547577 133.349706 
L 242.321678 133.81595 
L 240.198528 134.18999 
L 238.212988 134.447367 
L 236.397659 134.571255 
L 234.782349 134.553556 
L 233.393581 134.395435 
L 232.254159 134.107239 
L 231.382794 133.707824 
L 230.793795 133.223319 
L 230.496834 132.685417 
L 230.496791 132.129305 
L 230.793668 131.591357 
L 231.382592 131.106761 
L 232.253895 130.70721 
L 233.393272 130.418837 
L 234.782015 130.2605 
L 236.397323 130.24255 
L 238.21267 130.366156 
L 240.198251 130.623224 
L 242.321459 130.996934 
L 244.54743 131.462832 
L 246.839613 131.990435 
L 249.160368 132.545225 
L 251.471586 133.090902 
L 253.735315 133.591766 
L 255.914382 134.015046 
L 257.973006 134.333047 
L 259.877383 134.524961 
L 261.596242 134.578227 
L 263.10136 134.489354 
L 264.368022 134.264151 
L 265.375432 133.917342 
L 266.107049 133.471609 
L 266.550861 132.956105 
z
" style="fill:#0000ff;stroke:#000000;stroke-linejoin:miter;"/>
   </g>
   <g id="patch_6">
    <path clip-path="url(#p3f6f57a1cb)" d="M 254.016217 140.559533 
L 188.784217 140.564604 
L 188.78464 146.000604 
L 254.016639 145.995533 
z
" style="fill:#999999;stroke:#000000;stroke-linejoin:miter;"/>
   </g>
   <g id="text_1">
    <!-- t = 3.9 -->
    <defs>
     <path d="M 18.3125 70.21875 
L 18.3125 54.6875 
L 36.8125 54.6875 
L 36.8125 47.703125 
L 18.3125 47.703125 
L 18.3125 18.015625 
Q 18.3125 11.328125 20.140625 9.421875 
Q 21.96875 7.515625 27.59375 7.515625 
L 36.8125 7.515625 
L 36.8125 0 
L 27.59375 0 
Q 17.1875 0 13.234375 3.875 
Q 9.28125 7.765625 9.28125 18.015625 
L 9.28125 47.703125 
L 2.6875 47.703125 
L 2.6875 54.6875 
L 9.28125 54.6875 
L 9.28125 70.21875 
z
" id="DejaVuSans-116"/>
     <path id="DejaVuSans-32"/>
     <path d="M 10.59375 45.40625 
L 73.1875 45.40625 
L 73.1875 37.203125 
L 10.59375 37.203125 
z
M 10.59375 25.484375 
L 73.1875 25.484375 
L 73.1875 17.1875 
L 10.59375 17.1875 
z
" id="DejaVuSans-61"/>
     <path d="M 40.578125 39.3125 
Q 47.65625 37.796875 51.625 33 
Q 55.609375 28.21875 55.609375 21.1875 
Q 55.609375 10.40625 48.1875 4.484375 
Q 40.765625 -1.421875 27.09375 -1.421875 
Q 22.515625 -1.421875 17.65625 -0.515625 
Q 12.796875 0.390625 7.625 2.203125 
L 7.625 11.71875 
Q 11.71875 9.328125 16.59375 8.109375 
Q 21.484375 6.890625 26.8125 6.890625 
Q 36.078125 6.890625 40.9375 10.546875 
Q 45.796875 14.203125 45.796875 21.1875 
Q 45.796875 27.640625 41.28125 31.265625 
Q 36.765625 34.90625 28.71875 34.90625 
L 20.21875 34.90625 
L 20.21875 43.015625 
L 29.109375 43.015625 
Q 36.375 43.015625 40.234375 45.921875 
Q 44.09375 48.828125 44.09375 54.296875 
Q 44.09375 59.90625 40.109375 62.90625 
Q 36.140625 65.921875 28.71875 65.921875 
Q 24.65625 65.921875 20.015625 65.03125 
Q 15.375 64.15625 9.8125 62.3125 
L 9.8125 71.09375 
Q 15.4375 72.65625 20.34375 73.4375 
Q 25.25 74.21875 29.59375 74.21875 
Q 40.828125 74.21875 47.359375 69.109375 
Q 53.90625 64.015625 53.90625 55.328125 
Q 53.90625 49.265625 50.4375 45.09375 
Q 46.96875 40.921875 40.578125 39.3125 
z
" id="DejaVuSans-51"/>
     <path d="M 10.6875 12.40625 
L 21 12.40625 
L 21 0 
L 10.6875 0 
z
" id="DejaVuSans-46"/>
     <path d="M 10.984375 1.515625 
L 10.984375 10.5 
Q 14.703125 8.734375 18.5 7.8125 
Q 22.3125 6.890625 25.984375 6.890625 
Q 35.75 6.890625 40.890625 13.453125 
Q 46.046875 20.015625 46.78125 33.40625 
Q 43.953125 29.203125 39.59375 26.953125 
Q 35.25 24.703125 29.984375 24.703125 
Q 19.046875 24.703125 12.671875 31.3125 
Q 6.296875 37.9375 6.296875 49.421875 
Q 6.296875 60.640625 12.9375 67.421875 
Q 19.578125 74.21875 30.609375 74.21875 
Q 43.265625 74.21875 49.921875 64.515625 
Q 56.59375 54.828125 56.59375 36.375 
Q 56.59375 19.140625 48.40625 8.859375 
Q 40.234375 -1.421875 26.421875 -1.421875 
Q 22.703125 -1.421875 18.890625 -0.6875 
Q 15.09375 0.046875 10.984375 1.515625 
z
M 30.609375 32.421875 
Q 37.25 32.421875 41.125 36.953125 
Q 45.015625 41.5 45.015625 49.421875 
Q 45.015625 57.28125 41.125 61.84375 
Q 37.25 66.40625 30.609375 66.40625 
Q 23.96875 66.40625 20.09375 61.84375 
Q 16.21875 57.28125 16.21875 49.421875 
Q 16.21875 41.5 20.09375 36.953125 
Q 23.96875 32.421875 30.609375 32.421875 
z
" id="DejaVuSans-57"/>
    </defs>
    <g transform="translate(200.664375 28.56)scale(0.12 -0.12)">
     <use xlink:href="#DejaVuSans-116"/>
     <use x="39.208984" xlink:href="#DejaVuSans-32"/>
     <use x="70.996094" xlink:href="#DejaVuSans-61"/>
     <use x="154.785156" xlink:href="#DejaVuSans-32"/>
     <use x="186.572266" xlink:href="#DejaVuSans-51"/>
     <use x="250.195312" xlink:href="#DejaVuSans-46"/>
     <use x="281.982422" xlink:href="#DejaVuSans-57"/>
    </g>
   </g>
  </g>
 </g>
 <defs>
  <clipPath id="p3f6f57a1cb">
   <rect height="217.44" width="334.8" x="54" y="34.56"/>
  </clipPath>
 </defs>
</svg>
