<?xml version="1.0" encoding="utf-8" standalone="no"?>
<!DOCTYPE svg PUBLIC "-//W3C//DTD SVG 1.1//EN"
  "http://www.w3.org/Graphics/SVG/1.1/DTD/svg11.dtd">
<!-- Created with matplotlib (https://matplotlib.org/) -->
<svg height="288pt" version="1.1" viewBox="0 0 432 288" width="432pt" xmlns="http://www.w3.org/2000/svg" xmlns:xlink="http://www.w3.org/1999/xlink">
 <defs>
  <style type="text/css">
*{stroke-linecap:butt;stroke-linejoin:round;}
  </style>
 </defs>
 <g id="figure_1">
  <g id="patch_1">
   <path d="M 0 288 
L 432 288 
L 432 0 
L 0 0 
z
" style="fill:#ffffff;"/>
  </g>
  <g id="axes_1">
   <g id="patch_2">
    <path clip-path="url(#p372d3a7f6f)" d="M 194.202932 134.050993 
L 194.47856 144.919498 
L 193.391709 144.947061 
L 193.116081 134.078556 
z
" style="stroke:#000000;stroke-linejoin:miter;"/>
   </g>
   <g id="patch_3">
    <path clip-path="url(#p372d3a7f6f)" d="M 248.545459 132.672852 
L 248.821088 143.541357 
L 247.734237 143.56892 
L 247.458609 132.700415 
z
" style="stroke:#000000;stroke-linejoin:miter;"/>
   </g>
   <g id="patch_4">
    <path clip-path="url(#p372d3a7f6f)" d="M 211.773682 133.605394 
L 211.610982 133.057796 
L 211.154205 132.553745 
L 210.41149 132.126761 
L 209.395586 131.805683 
L 208.123607 131.612763 
L 206.616716 131.562194 
L 204.899767 131.659153 
L 203.000886 131.899433 
L 200.951015 132.269682 
L 198.783416 132.748238 
L 196.533156 133.306506 
L 194.236562 133.910781 
L 191.930666 134.524407 
L 189.652641 135.11013 
L 187.439237 135.632483 
L 185.326219 136.060065 
L 183.347818 136.367543 
L 181.536201 136.537273 
L 179.920959 136.560406 
L 178.528639 136.437435 
L 177.382297 136.17813 
L 176.501115 135.800865 
L 175.900058 135.331402 
L 175.589597 134.801177 
L 175.575499 134.245244 
L 175.858684 133.699965 
L 176.435172 133.200638 
L 177.296099 132.779194 
L 178.427823 132.462116 
L 179.812121 132.268729 
L 181.426459 132.209959 
L 183.244351 132.287644 
L 185.235794 132.494446 
L 187.367769 132.814373 
L 189.604805 133.223862 
L 191.909591 133.693364 
L 194.243626 134.18932 
L 196.567898 134.676408 
L 198.843562 135.119898 
L 201.032631 135.487968 
L 203.098635 135.753837 
L 205.007254 135.897557 
L 206.72691 135.907363 
L 208.229301 135.780478 
L 209.489867 135.523332 
L 210.48819 135.151173 
L 211.208307 134.687091 
L 211.638948 134.160535 
z
" style="fill:#0000ff;stroke:#000000;stroke-linejoin:miter;"/>
   </g>
   <g id="patch_5">
    <path clip-path="url(#p372d3a7f6f)" d="M 266.11621 132.227253 
L 265.95351 131.679655 
L 265.496732 131.175604 
L 264.754017 130.74862 
L 263.738114 130.427542 
L 262.466134 130.234622 
L 260.959243 130.184053 
L 259.242295 130.281012 
L 257.343414 130.521292 
L 255.293543 130.891541 
L 253.125944 131.370097 
L 250.875684 131.928365 
L 248.57909 132.53264 
L 246.273194 133.146266 
L 243.995169 133.731988 
L 241.781765 134.254342 
L 239.668747 134.681923 
L 237.690346 134.989402 
L 235.878729 135.159132 
L 234.263487 135.182265 
L 232.871166 135.059294 
L 231.724825 134.799988 
L 230.843643 134.422724 
L 230.242586 133.95326 
L 229.932125 133.423036 
L 229.918026 132.867103 
L 230.201212 132.321824 
L 230.7777 131.822497 
L 231.638627 131.401053 
L 232.770351 131.083975 
L 234.154649 130.890588 
L 235.768987 130.831818 
L 237.586879 130.909502 
L 239.578322 131.116305 
L 241.710297 131.436232 
L 243.947333 131.845721 
L 246.252118 132.315222 
L 248.586154 132.811179 
L 250.910425 133.298267 
L 253.18609 133.741757 
L 255.375159 134.109827 
L 257.441163 134.375696 
L 259.349782 134.519416 
L 261.069438 134.529222 
L 262.571829 134.402337 
L 263.832395 134.145191 
L 264.830717 133.773032 
L 265.550835 133.30895 
L 265.981476 132.782394 
z
" style="fill:#0000ff;stroke:#000000;stroke-linejoin:miter;"/>
   </g>
   <g id="patch_6">
    <path clip-path="url(#p372d3a7f6f)" d="M 253.643008 140.700198 
L 188.431975 142.353968 
L 188.569789 147.78822 
L 253.780822 146.134451 
z
" style="fill:#999999;stroke:#000000;stroke-linejoin:miter;"/>
   </g>
   <g id="text_1">
    <!-- t = 1.3 -->
    <defs>
     <path d="M 18.3125 70.21875 
L 18.3125 54.6875 
L 36.8125 54.6875 
L 36.8125 47.703125 
L 18.3125 47.703125 
L 18.3125 18.015625 
Q 18.3125 11.328125 20.140625 9.421875 
Q 21.96875 7.515625 27.59375 7.515625 
L 36.8125 7.515625 
L 36.8125 0 
L 27.59375 0 
Q 17.1875 0 13.234375 3.875 
Q 9.28125 7.765625 9.28125 18.015625 
L 9.28125 47.703125 
L 2.6875 47.703125 
L 2.6875 54.6875 
L 9.28125 54.6875 
L 9.28125 70.21875 
z
" id="DejaVuSans-116"/>
     <path id="DejaVuSans-32"/>
     <path d="M 10.59375 45.40625 
L 73.1875 45.40625 
L 73.1875 37.203125 
L 10.59375 37.203125 
z
M 10.59375 25.484375 
L 73.1875 25.484375 
L 73.1875 17.1875 
L 10.59375 17.1875 
z
" id="DejaVuSans-61"/>
     <path d="M 12.40625 8.296875 
L 28.515625 8.296875 
L 28.515625 63.921875 
L 10.984375 60.40625 
L 10.984375 69.390625 
L 28.421875 72.90625 
L 38.28125 72.90625 
L 38.28125 8.296875 
L 54.390625 8.296875 
L 54.390625 0 
L 12.40625 0 
z
" id="DejaVuSans-49"/>
     <path d="M 10.6875 12.40625 
L 21 12.40625 
L 21 0 
L 10.6875 0 
z
" id="DejaVuSans-46"/>
     <path d="M 40.578125 39.3125 
Q 47.65625 37.796875 51.625 33 
Q 55.609375 28.21875 55.609375 21.1875 
Q 55.609375 10.40625 48.1875 4.484375 
Q 40.765625 -1.421875 27.09375 -1.421875 
Q 22.515625 -1.421875 17.65625 -0.515625 
Q 12.796875 0.390625 7.625 2.203125 
L 7.625 11.71875 
Q 11.71875 9.328125 16.59375 8.109375 
Q 21.484375 6.890625 26.8125 6.890625 
Q 36.078125 6.890625 40.9375 10.546875 
Q 45.796875 14.203125 45.796875 21.1875 
Q 45.796875 27.640625 41.28125 31.265625 
Q 36.765625 34.90625 28.71875 34.90625 
L 20.21875 34.90625 
L 20.21875 43.015625 
L 29.109375 43.015625 
Q 36.375 43.015625 40.234375 45.921875 
Q 44.09375 48.828125 44.09375 54.296875 
Q 44.09375 59.90625 40.109375 62.90625 
Q 36.140625 65.921875 28.71875 65.921875 
Q 24.65625 65.921875 20.015625 65.03125 
Q 15.375 64.15625 9.8125 62.3125 
L 9.8125 71.09375 
Q 15.4375 72.65625 20.34375 73.4375 
Q 25.25 74.21875 29.59375 74.21875 
Q 40.828125 74.21875 47.359375 69.109375 
Q 53.90625 64.015625 53.90625 55.328125 
Q 53.90625 49.265625 50.4375 45.09375 
Q 46.96875 40.921875 40.578125 39.3125 
z
" id="DejaVuSans-51"/>
    </defs>
    <g transform="translate(200.664375 28.56)scale(0.12 -0.12)">
     <use xlink:href="#DejaVuSans-116"/>
     <use x="39.208984" xlink:href="#DejaVuSans-32"/>
     <use x="70.996094" xlink:href="#DejaVuSans-61"/>
     <use x="154.785156" xlink:href="#DejaVuSans-32"/>
     <use x="186.572266" xlink:href="#DejaVuSans-49"/>
     <use x="250.195312" xlink:href="#DejaVuSans-46"/>
     <use x="281.982422" xlink:href="#DejaVuSans-51"/>
    </g>
   </g>
  </g>
 </g>
 <defs>
  <clipPath id="p372d3a7f6f">
   <rect height="217.44" width="334.8" x="54" y="34.56"/>
  </clipPath>
 </defs>
</svg>
