<?xml version="1.0" encoding="utf-8" standalone="no"?>
<!DOCTYPE svg PUBLIC "-//W3C//DTD SVG 1.1//EN"
  "http://www.w3.org/Graphics/SVG/1.1/DTD/svg11.dtd">
<!-- Created with matplotlib (https://matplotlib.org/) -->
<svg height="288pt" version="1.1" viewBox="0 0 432 288" width="432pt" xmlns="http://www.w3.org/2000/svg" xmlns:xlink="http://www.w3.org/1999/xlink">
 <defs>
  <style type="text/css">
*{stroke-linecap:butt;stroke-linejoin:round;}
  </style>
 </defs>
 <g id="figure_1">
  <g id="patch_1">
   <path d="M 0 288 
L 432 288 
L 432 0 
L 0 0 
z
" style="fill:#ffffff;"/>
  </g>
  <g id="axes_1">
   <g id="patch_2">
    <path clip-path="url(#p988f5fc9fc)" d="M 194.760868 132.414504 
L 194.762855 143.286504 
L 193.675655 143.286703 
L 193.673668 132.414703 
z
" style="stroke:#000000;stroke-linejoin:miter;"/>
   </g>
   <g id="patch_3">
    <path clip-path="url(#p988f5fc9fc)" d="M 249.120867 132.404572 
L 249.122854 143.276572 
L 248.035654 143.27677 
L 248.033667 132.404771 
z
" style="stroke:#000000;stroke-linejoin:miter;"/>
   </g>
   <g id="patch_4">
    <path clip-path="url(#p988f5fc9fc)" d="M 212.337268 132.411293 
L 212.188402 131.859773 
L 211.744456 131.344385 
L 211.012723 130.898843 
L 210.005223 130.552296 
L 208.738502 130.327423 
L 207.233361 130.238943 
L 205.514516 130.292656 
L 203.610189 130.485066 
L 201.551648 130.803603 
L 199.372691 131.227451 
L 197.109093 131.728904 
L 194.798017 132.275183 
L 192.477407 132.830577 
L 190.185361 133.358777 
L 187.959511 133.825255 
L 185.8364 134.199518 
L 183.850887 134.457104 
L 182.035572 134.581182 
L 180.42026 134.563653 
L 179.031475 134.405677 
L 177.892023 134.117601 
L 177.020616 133.718277 
L 176.431566 133.233834 
L 176.134549 132.695964 
L 176.134447 132.139852 
L 176.431267 131.601873 
L 177.020141 131.117214 
L 177.891402 130.717572 
L 179.030749 130.42908 
L 180.419475 130.270597 
L 182.034781 130.252477 
L 183.850142 130.375892 
L 185.835749 130.632753 
L 187.958996 131.006239 
L 190.185016 131.471904 
L 192.477255 131.999266 
L 194.798068 132.553812 
L 197.109343 133.099247 
L 199.373125 133.599873 
L 201.552236 134.022924 
L 203.610894 134.340709 
L 205.51529 134.532423 
L 207.234155 134.585508 
L 208.739264 134.496478 
L 210.005903 134.271141 
L 211.013276 133.924227 
L 211.744846 133.478417 
L 212.188604 132.962867 
z
" style="fill:#0000ff;stroke:#000000;stroke-linejoin:miter;"/>
   </g>
   <g id="patch_5">
    <path clip-path="url(#p988f5fc9fc)" d="M 266.697267 132.40136 
L 266.548401 131.849841 
L 266.104455 131.334452 
L 265.372722 130.88891 
L 264.365222 130.542364 
L 263.098501 130.317491 
L 261.59336 130.22901 
L 259.874515 130.282724 
L 257.970188 130.475133 
L 255.911647 130.793671 
L 253.73269 131.217518 
L 251.469092 131.718971 
L 249.158016 132.265251 
L 246.837406 132.820644 
L 244.54536 133.348845 
L 242.31951 133.815322 
L 240.196399 134.189585 
L 238.210886 134.447171 
L 236.395571 134.571249 
L 234.780259 134.55372 
L 233.391474 134.395745 
L 232.252022 134.107668 
L 231.380615 133.708345 
L 230.791565 133.223902 
L 230.494548 132.686031 
L 230.494446 132.129919 
L 230.791266 131.59194 
L 231.38014 131.107282 
L 232.251401 130.70764 
L 233.390748 130.419147 
L 234.779474 130.260664 
L 236.39478 130.242545 
L 238.210141 130.36596 
L 240.195748 130.62282 
L 242.318995 130.996307 
L 244.545016 131.461971 
L 246.837254 131.989334 
L 249.158067 132.543879 
L 251.469342 133.089314 
L 253.733124 133.58994 
L 255.912235 134.012991 
L 257.970893 134.330776 
L 259.87529 134.52249 
L 261.594154 134.575576 
L 263.099263 134.486545 
L 264.365902 134.261209 
L 265.373275 133.914294 
L 266.104845 133.468485 
L 266.548603 132.952934 
z
" style="fill:#0000ff;stroke:#000000;stroke-linejoin:miter;"/>
   </g>
   <g id="patch_6">
    <path clip-path="url(#p988f5fc9fc)" d="M 254.014757 140.557678 
L 188.782758 140.569597 
L 188.783751 146.005597 
L 254.01575 145.993678 
z
" style="fill:#999999;stroke:#000000;stroke-linejoin:miter;"/>
   </g>
   <g id="text_1">
    <!-- t = 3.5 -->
    <defs>
     <path d="M 18.3125 70.21875 
L 18.3125 54.6875 
L 36.8125 54.6875 
L 36.8125 47.703125 
L 18.3125 47.703125 
L 18.3125 18.015625 
Q 18.3125 11.328125 20.140625 9.421875 
Q 21.96875 7.515625 27.59375 7.515625 
L 36.8125 7.515625 
L 36.8125 0 
L 27.59375 0 
Q 17.1875 0 13.234375 3.875 
Q 9.28125 7.765625 9.28125 18.015625 
L 9.28125 47.703125 
L 2.6875 47.703125 
L 2.6875 54.6875 
L 9.28125 54.6875 
L 9.28125 70.21875 
z
" id="DejaVuSans-116"/>
     <path id="DejaVuSans-32"/>
     <path d="M 10.59375 45.40625 
L 73.1875 45.40625 
L 73.1875 37.203125 
L 10.59375 37.203125 
z
M 10.59375 25.484375 
L 73.1875 25.484375 
L 73.1875 17.1875 
L 10.59375 17.1875 
z
" id="DejaVuSans-61"/>
     <path d="M 40.578125 39.3125 
Q 47.65625 37.796875 51.625 33 
Q 55.609375 28.21875 55.609375 21.1875 
Q 55.609375 10.40625 48.1875 4.484375 
Q 40.765625 -1.421875 27.09375 -1.421875 
Q 22.515625 -1.421875 17.65625 -0.515625 
Q 12.796875 0.390625 7.625 2.203125 
L 7.625 11.71875 
Q 11.71875 9.328125 16.59375 8.109375 
Q 21.484375 6.890625 26.8125 6.890625 
Q 36.078125 6.890625 40.9375 10.546875 
Q 45.796875 14.203125 45.796875 21.1875 
Q 45.796875 27.640625 41.28125 31.265625 
Q 36.765625 34.90625 28.71875 34.90625 
L 20.21875 34.90625 
L 20.21875 43.015625 
L 29.109375 43.015625 
Q 36.375 43.015625 40.234375 45.921875 
Q 44.09375 48.828125 44.09375 54.296875 
Q 44.09375 59.90625 40.109375 62.90625 
Q 36.140625 65.921875 28.71875 65.921875 
Q 24.65625 65.921875 20.015625 65.03125 
Q 15.375 64.15625 9.8125 62.3125 
L 9.8125 71.09375 
Q 15.4375 72.65625 20.34375 73.4375 
Q 25.25 74.21875 29.59375 74.21875 
Q 40.828125 74.21875 47.359375 69.109375 
Q 53.90625 64.015625 53.90625 55.328125 
Q 53.90625 49.265625 50.4375 45.09375 
Q 46.96875 40.921875 40.578125 39.3125 
z
" id="DejaVuSans-51"/>
     <path d="M 10.6875 12.40625 
L 21 12.40625 
L 21 0 
L 10.6875 0 
z
" id="DejaVuSans-46"/>
     <path d="M 10.796875 72.90625 
L 49.515625 72.90625 
L 49.515625 64.59375 
L 19.828125 64.59375 
L 19.828125 46.734375 
Q 21.96875 47.46875 24.109375 47.828125 
Q 26.265625 48.1875 28.421875 48.1875 
Q 40.625 48.1875 47.75 41.5 
Q 54.890625 34.8125 54.890625 23.390625 
Q 54.890625 11.625 47.5625 5.09375 
Q 40.234375 -1.421875 26.90625 -1.421875 
Q 22.3125 -1.421875 17.546875 -0.640625 
Q 12.796875 0.140625 7.71875 1.703125 
L 7.71875 11.625 
Q 12.109375 9.234375 16.796875 8.0625 
Q 21.484375 6.890625 26.703125 6.890625 
Q 35.15625 6.890625 40.078125 11.328125 
Q 45.015625 15.765625 45.015625 23.390625 
Q 45.015625 31 40.078125 35.4375 
Q 35.15625 39.890625 26.703125 39.890625 
Q 22.75 39.890625 18.8125 39.015625 
Q 14.890625 38.140625 10.796875 36.28125 
z
" id="DejaVuSans-53"/>
    </defs>
    <g transform="translate(200.664375 28.56)scale(0.12 -0.12)">
     <use xlink:href="#DejaVuSans-116"/>
     <use x="39.208984" xlink:href="#DejaVuSans-32"/>
     <use x="70.996094" xlink:href="#DejaVuSans-61"/>
     <use x="154.785156" xlink:href="#DejaVuSans-32"/>
     <use x="186.572266" xlink:href="#DejaVuSans-51"/>
     <use x="250.195312" xlink:href="#DejaVuSans-46"/>
     <use x="281.982422" xlink:href="#DejaVuSans-53"/>
    </g>
   </g>
  </g>
 </g>
 <defs>
  <clipPath id="p988f5fc9fc">
   <rect height="217.44" width="334.8" x="54" y="34.56"/>
  </clipPath>
 </defs>
</svg>
