<?xml version="1.0" encoding="utf-8" standalone="no"?>
<!DOCTYPE svg PUBLIC "-//W3C//DTD SVG 1.1//EN"
  "http://www.w3.org/Graphics/SVG/1.1/DTD/svg11.dtd">
<!-- Created with matplotlib (https://matplotlib.org/) -->
<svg height="288pt" version="1.1" viewBox="0 0 432 288" width="432pt" xmlns="http://www.w3.org/2000/svg" xmlns:xlink="http://www.w3.org/1999/xlink">
 <defs>
  <style type="text/css">
*{stroke-linecap:butt;stroke-linejoin:round;}
  </style>
 </defs>
 <g id="figure_1">
  <g id="patch_1">
   <path d="M 0 288 
L 432 288 
L 432 0 
L 0 0 
z
" style="fill:#ffffff;"/>
  </g>
  <g id="axes_1">
   <g id="patch_2">
    <path clip-path="url(#p8e28bc2374)" d="M 166.807282 151.453091 
L 167.733389 162.285575 
L 166.65014 162.378186 
L 165.724033 151.545702 
z
" style="stroke:#000000;stroke-linejoin:miter;"/>
   </g>
   <g id="patch_3">
    <path clip-path="url(#p8e28bc2374)" d="M 220.969702 146.822558 
L 221.895809 157.655042 
L 220.81256 157.747653 
L 219.886454 146.915169 
z
" style="stroke:#000000;stroke-linejoin:miter;"/>
   </g>
   <g id="patch_4">
    <path clip-path="url(#p8e28bc2374)" d="M 184.319798 149.955886 
L 184.124591 149.419016 
L 183.638443 148.943228 
L 182.871487 148.561496 
L 181.838177 148.301843 
L 180.556926 148.185455 
L 179.049711 148.225233 
L 177.341652 148.424855 
L 175.460573 148.778437 
L 173.436558 149.270799 
L 171.301514 149.878326 
L 169.088732 150.570372 
L 166.832454 151.311117 
L 164.567451 152.061754 
L 162.328598 152.782868 
L 160.150454 153.436856 
L 158.06684 153.99023 
L 156.110408 154.415654 
L 154.312209 154.693586 
L 152.701253 154.813423 
L 151.304066 154.774067 
L 150.144251 154.583887 
L 149.242055 154.260079 
L 148.613959 153.827459 
L 148.272297 153.316782 
L 148.224926 152.762691 
L 148.474944 152.201429 
L 149.020489 151.66847 
L 149.854628 151.196217 
L 150.965329 150.811923 
L 152.335559 150.535971 
L 153.943478 150.380615 
L 155.762759 150.349276 
L 157.763013 150.436429 
L 159.910323 150.628087 
L 162.167869 150.902852 
L 164.496638 151.233465 
L 166.856189 151.588733 
L 169.205461 151.935733 
L 171.503603 152.242125 
L 173.710788 152.478419 
L 175.789007 152.620067 
L 177.702807 152.649211 
L 179.419964 152.556 
L 180.912057 152.339357 
L 182.154958 152.007171 
L 183.129198 151.575884 
L 183.820226 151.069504 
L 184.218556 150.5181 
z
" style="fill:#0000ff;stroke:#000000;stroke-linejoin:miter;"/>
   </g>
   <g id="patch_5">
    <path clip-path="url(#p8e28bc2374)" d="M 238.482218 145.325352 
L 238.287011 144.788483 
L 237.800863 144.312695 
L 237.033908 143.930963 
L 236.000597 143.671309 
L 234.719346 143.554922 
L 233.212131 143.5947 
L 231.504073 143.794322 
L 229.622993 144.147904 
L 227.598978 144.640266 
L 225.463934 145.247792 
L 223.251152 145.939838 
L 220.994874 146.680584 
L 218.729871 147.431221 
L 216.491018 148.152335 
L 214.312875 148.806323 
L 212.22926 149.359697 
L 210.272828 149.785121 
L 208.474629 150.063053 
L 206.863673 150.18289 
L 205.466487 150.143534 
L 204.306672 149.953354 
L 203.404475 149.629546 
L 202.776379 149.196926 
L 202.434718 148.686249 
L 202.387346 148.132158 
L 202.637364 147.570896 
L 203.18291 147.037937 
L 204.017048 146.565683 
L 205.127749 146.18139 
L 206.497979 145.905438 
L 208.105898 145.750082 
L 209.925179 145.718743 
L 211.925433 145.805896 
L 214.072743 145.997554 
L 216.330289 146.272319 
L 218.659058 146.602932 
L 221.018609 146.958199 
L 223.367881 147.3052 
L 225.666023 147.611592 
L 227.873208 147.847886 
L 229.951427 147.989533 
L 231.865228 148.018678 
L 233.582384 147.925467 
L 235.074477 147.708824 
L 236.317378 147.376637 
L 237.291618 146.945351 
L 237.982646 146.438971 
L 238.380976 145.887566 
z
" style="fill:#0000ff;stroke:#000000;stroke-linejoin:miter;"/>
   </g>
   <g id="patch_6">
    <path clip-path="url(#p8e28bc2374)" d="M 226.5389 154.530173 
L 161.543996 160.086813 
L 162.007049 165.503055 
L 227.001953 159.946415 
z
" style="fill:#999999;stroke:#000000;stroke-linejoin:miter;"/>
   </g>
   <g id="text_1">
    <!-- t = 0.5 -->
    <defs>
     <path d="M 18.3125 70.21875 
L 18.3125 54.6875 
L 36.8125 54.6875 
L 36.8125 47.703125 
L 18.3125 47.703125 
L 18.3125 18.015625 
Q 18.3125 11.328125 20.140625 9.421875 
Q 21.96875 7.515625 27.59375 7.515625 
L 36.8125 7.515625 
L 36.8125 0 
L 27.59375 0 
Q 17.1875 0 13.234375 3.875 
Q 9.28125 7.765625 9.28125 18.015625 
L 9.28125 47.703125 
L 2.6875 47.703125 
L 2.6875 54.6875 
L 9.28125 54.6875 
L 9.28125 70.21875 
z
" id="DejaVuSans-116"/>
     <path id="DejaVuSans-32"/>
     <path d="M 10.59375 45.40625 
L 73.1875 45.40625 
L 73.1875 37.203125 
L 10.59375 37.203125 
z
M 10.59375 25.484375 
L 73.1875 25.484375 
L 73.1875 17.1875 
L 10.59375 17.1875 
z
" id="DejaVuSans-61"/>
     <path d="M 31.78125 66.40625 
Q 24.171875 66.40625 20.328125 58.90625 
Q 16.5 51.421875 16.5 36.375 
Q 16.5 21.390625 20.328125 13.890625 
Q 24.171875 6.390625 31.78125 6.390625 
Q 39.453125 6.390625 43.28125 13.890625 
Q 47.125 21.390625 47.125 36.375 
Q 47.125 51.421875 43.28125 58.90625 
Q 39.453125 66.40625 31.78125 66.40625 
z
M 31.78125 74.21875 
Q 44.046875 74.21875 50.515625 64.515625 
Q 56.984375 54.828125 56.984375 36.375 
Q 56.984375 17.96875 50.515625 8.265625 
Q 44.046875 -1.421875 31.78125 -1.421875 
Q 19.53125 -1.421875 13.0625 8.265625 
Q 6.59375 17.96875 6.59375 36.375 
Q 6.59375 54.828125 13.0625 64.515625 
Q 19.53125 74.21875 31.78125 74.21875 
z
" id="DejaVuSans-48"/>
     <path d="M 10.6875 12.40625 
L 21 12.40625 
L 21 0 
L 10.6875 0 
z
" id="DejaVuSans-46"/>
     <path d="M 10.796875 72.90625 
L 49.515625 72.90625 
L 49.515625 64.59375 
L 19.828125 64.59375 
L 19.828125 46.734375 
Q 21.96875 47.46875 24.109375 47.828125 
Q 26.265625 48.1875 28.421875 48.1875 
Q 40.625 48.1875 47.75 41.5 
Q 54.890625 34.8125 54.890625 23.390625 
Q 54.890625 11.625 47.5625 5.09375 
Q 40.234375 -1.421875 26.90625 -1.421875 
Q 22.3125 -1.421875 17.546875 -0.640625 
Q 12.796875 0.140625 7.71875 1.703125 
L 7.71875 11.625 
Q 12.109375 9.234375 16.796875 8.0625 
Q 21.484375 6.890625 26.703125 6.890625 
Q 35.15625 6.890625 40.078125 11.328125 
Q 45.015625 15.765625 45.015625 23.390625 
Q 45.015625 31 40.078125 35.4375 
Q 35.15625 39.890625 26.703125 39.890625 
Q 22.75 39.890625 18.8125 39.015625 
Q 14.890625 38.140625 10.796875 36.28125 
z
" id="DejaVuSans-53"/>
    </defs>
    <g transform="translate(200.664375 28.56)scale(0.12 -0.12)">
     <use xlink:href="#DejaVuSans-116"/>
     <use x="39.208984" xlink:href="#DejaVuSans-32"/>
     <use x="70.996094" xlink:href="#DejaVuSans-61"/>
     <use x="154.785156" xlink:href="#DejaVuSans-32"/>
     <use x="186.572266" xlink:href="#DejaVuSans-48"/>
     <use x="250.195312" xlink:href="#DejaVuSans-46"/>
     <use x="281.982422" xlink:href="#DejaVuSans-53"/>
    </g>
   </g>
  </g>
 </g>
 <defs>
  <clipPath id="p8e28bc2374">
   <rect height="217.44" width="334.8" x="54" y="34.56"/>
  </clipPath>
 </defs>
</svg>
