<?xml version="1.0" encoding="utf-8" standalone="no"?>
<!DOCTYPE svg PUBLIC "-//W3C//DTD SVG 1.1//EN"
  "http://www.w3.org/Graphics/SVG/1.1/DTD/svg11.dtd">
<!-- Created with matplotlib (https://matplotlib.org/) -->
<svg height="288pt" version="1.1" viewBox="0 0 432 288" width="432pt" xmlns="http://www.w3.org/2000/svg" xmlns:xlink="http://www.w3.org/1999/xlink">
 <defs>
  <style type="text/css">
*{stroke-linecap:butt;stroke-linejoin:round;}
  </style>
 </defs>
 <g id="figure_1">
  <g id="patch_1">
   <path d="M 0 288 
L 432 288 
L 432 0 
L 0 0 
z
" style="fill:#ffffff;"/>
  </g>
  <g id="axes_1">
   <g id="patch_2">
    <path clip-path="url(#pf73a88db34)" d="M 194.774281 132.407659 
L 194.773954 143.279659 
L 193.686754 143.279626 
L 193.687081 132.407626 
z
" style="stroke:#000000;stroke-linejoin:miter;"/>
   </g>
   <g id="patch_3">
    <path clip-path="url(#pf73a88db34)" d="M 249.134281 132.409295 
L 249.133954 143.281295 
L 248.046754 143.281263 
L 248.047081 132.409263 
z
" style="stroke:#000000;stroke-linejoin:miter;"/>
   </g>
   <g id="patch_4">
    <path clip-path="url(#pf73a88db34)" d="M 212.350681 132.408188 
L 212.201933 131.856637 
L 211.758096 131.341154 
L 211.026458 130.895456 
L 210.019032 130.548695 
L 208.752359 130.323552 
L 207.247237 130.234751 
L 205.52838 130.288099 
L 203.624013 130.480104 
L 201.565404 130.798203 
L 199.386357 131.221587 
L 197.122652 131.722558 
L 194.81146 132.268346 
L 192.490732 132.823245 
L 190.198574 133.350958 
L 187.972624 133.816962 
L 185.849434 134.190773 
L 183.863866 134.447936 
L 182.048524 134.571628 
L 180.433216 134.553755 
L 179.044465 134.395484 
L 177.905074 134.107165 
L 177.033752 133.707656 
L 176.444805 133.223088 
L 176.147902 132.685154 
L 176.147919 132.129042 
L 176.444854 131.591126 
L 177.03383 131.106593 
L 177.905177 130.707137 
L 179.044585 130.418886 
L 180.433345 130.260699 
L 182.048654 130.242923 
L 183.863989 130.366725 
L 185.849541 130.624008 
L 187.972709 130.997946 
L 190.19863 131.464084 
L 192.490757 131.991935 
L 194.811452 132.546974 
L 197.122611 133.092901 
L 199.386285 133.594009 
L 201.565307 134.017524 
L 203.623897 134.335747 
L 205.528253 134.527866 
L 207.247106 134.581317 
L 208.752233 134.492607 
L 210.01892 134.26754 
L 211.026367 133.92084 
L 211.758032 133.475186 
L 212.2019 132.95973 
z
" style="fill:#0000ff;stroke:#000000;stroke-linejoin:miter;"/>
   </g>
   <g id="patch_5">
    <path clip-path="url(#pf73a88db34)" d="M 266.710681 132.409824 
L 266.561933 131.858273 
L 266.118096 131.34279 
L 265.386458 130.897092 
L 264.379032 130.550332 
L 263.112359 130.325189 
L 261.607237 130.236388 
L 259.88838 130.289736 
L 257.984013 130.48174 
L 255.925404 130.799839 
L 253.746357 131.223223 
L 251.482652 131.724195 
L 249.17146 132.269982 
L 246.850732 132.824882 
L 244.558574 133.352594 
L 242.332624 133.818598 
L 240.209434 134.192409 
L 238.223866 134.449573 
L 236.408524 134.573264 
L 234.793216 134.555392 
L 233.404465 134.397121 
L 232.265074 134.108802 
L 231.393752 133.709293 
L 230.804805 133.224724 
L 230.507902 132.686791 
L 230.507919 132.130678 
L 230.804854 131.592763 
L 231.39383 131.10823 
L 232.265177 130.708773 
L 233.404585 130.420523 
L 234.793345 130.262335 
L 236.408654 130.24456 
L 238.223989 130.368361 
L 240.209541 130.625644 
L 242.332709 130.999583 
L 244.55863 131.465721 
L 246.850757 131.993571 
L 249.171452 132.548611 
L 251.482611 133.094537 
L 253.746285 133.595645 
L 255.925307 134.01916 
L 257.983897 134.337383 
L 259.888253 134.529502 
L 261.607106 134.582954 
L 263.112233 134.494243 
L 264.37892 134.269177 
L 265.386367 133.922477 
L 266.118032 133.476823 
L 266.5619 132.961366 
z
" style="fill:#0000ff;stroke:#000000;stroke-linejoin:miter;"/>
   </g>
   <g id="patch_6">
    <path clip-path="url(#pf73a88db34)" d="M 254.026436 140.563443 
L 188.794436 140.561479 
L 188.794272 145.997479 
L 254.026272 145.999443 
z
" style="fill:#999999;stroke:#000000;stroke-linejoin:miter;"/>
   </g>
   <g id="text_1">
    <!-- t = 3.8 -->
    <defs>
     <path d="M 18.3125 70.21875 
L 18.3125 54.6875 
L 36.8125 54.6875 
L 36.8125 47.703125 
L 18.3125 47.703125 
L 18.3125 18.015625 
Q 18.3125 11.328125 20.140625 9.421875 
Q 21.96875 7.515625 27.59375 7.515625 
L 36.8125 7.515625 
L 36.8125 0 
L 27.59375 0 
Q 17.1875 0 13.234375 3.875 
Q 9.28125 7.765625 9.28125 18.015625 
L 9.28125 47.703125 
L 2.6875 47.703125 
L 2.6875 54.6875 
L 9.28125 54.6875 
L 9.28125 70.21875 
z
" id="DejaVuSans-116"/>
     <path id="DejaVuSans-32"/>
     <path d="M 10.59375 45.40625 
L 73.1875 45.40625 
L 73.1875 37.203125 
L 10.59375 37.203125 
z
M 10.59375 25.484375 
L 73.1875 25.484375 
L 73.1875 17.1875 
L 10.59375 17.1875 
z
" id="DejaVuSans-61"/>
     <path d="M 40.578125 39.3125 
Q 47.65625 37.796875 51.625 33 
Q 55.609375 28.21875 55.609375 21.1875 
Q 55.609375 10.40625 48.1875 4.484375 
Q 40.765625 -1.421875 27.09375 -1.421875 
Q 22.515625 -1.421875 17.65625 -0.515625 
Q 12.796875 0.390625 7.625 2.203125 
L 7.625 11.71875 
Q 11.71875 9.328125 16.59375 8.109375 
Q 21.484375 6.890625 26.8125 6.890625 
Q 36.078125 6.890625 40.9375 10.546875 
Q 45.796875 14.203125 45.796875 21.1875 
Q 45.796875 27.640625 41.28125 31.265625 
Q 36.765625 34.90625 28.71875 34.90625 
L 20.21875 34.90625 
L 20.21875 43.015625 
L 29.109375 43.015625 
Q 36.375 43.015625 40.234375 45.921875 
Q 44.09375 48.828125 44.09375 54.296875 
Q 44.09375 59.90625 40.109375 62.90625 
Q 36.140625 65.921875 28.71875 65.921875 
Q 24.65625 65.921875 20.015625 65.03125 
Q 15.375 64.15625 9.8125 62.3125 
L 9.8125 71.09375 
Q 15.4375 72.65625 20.34375 73.4375 
Q 25.25 74.21875 29.59375 74.21875 
Q 40.828125 74.21875 47.359375 69.109375 
Q 53.90625 64.015625 53.90625 55.328125 
Q 53.90625 49.265625 50.4375 45.09375 
Q 46.96875 40.921875 40.578125 39.3125 
z
" id="DejaVuSans-51"/>
     <path d="M 10.6875 12.40625 
L 21 12.40625 
L 21 0 
L 10.6875 0 
z
" id="DejaVuSans-46"/>
     <path d="M 31.78125 34.625 
Q 24.75 34.625 20.71875 30.859375 
Q 16.703125 27.09375 16.703125 20.515625 
Q 16.703125 13.921875 20.71875 10.15625 
Q 24.75 6.390625 31.78125 6.390625 
Q 38.8125 6.390625 42.859375 10.171875 
Q 46.921875 13.96875 46.921875 20.515625 
Q 46.921875 27.09375 42.890625 30.859375 
Q 38.875 34.625 31.78125 34.625 
z
M 21.921875 38.8125 
Q 15.578125 40.375 12.03125 44.71875 
Q 8.5 49.078125 8.5 55.328125 
Q 8.5 64.0625 14.71875 69.140625 
Q 20.953125 74.21875 31.78125 74.21875 
Q 42.671875 74.21875 48.875 69.140625 
Q 55.078125 64.0625 55.078125 55.328125 
Q 55.078125 49.078125 51.53125 44.71875 
Q 48 40.375 41.703125 38.8125 
Q 48.828125 37.15625 52.796875 32.3125 
Q 56.78125 27.484375 56.78125 20.515625 
Q 56.78125 9.90625 50.3125 4.234375 
Q 43.84375 -1.421875 31.78125 -1.421875 
Q 19.734375 -1.421875 13.25 4.234375 
Q 6.78125 9.90625 6.78125 20.515625 
Q 6.78125 27.484375 10.78125 32.3125 
Q 14.796875 37.15625 21.921875 38.8125 
z
M 18.3125 54.390625 
Q 18.3125 48.734375 21.84375 45.5625 
Q 25.390625 42.390625 31.78125 42.390625 
Q 38.140625 42.390625 41.71875 45.5625 
Q 45.3125 48.734375 45.3125 54.390625 
Q 45.3125 60.0625 41.71875 63.234375 
Q 38.140625 66.40625 31.78125 66.40625 
Q 25.390625 66.40625 21.84375 63.234375 
Q 18.3125 60.0625 18.3125 54.390625 
z
" id="DejaVuSans-56"/>
    </defs>
    <g transform="translate(200.664375 28.56)scale(0.12 -0.12)">
     <use xlink:href="#DejaVuSans-116"/>
     <use x="39.208984" xlink:href="#DejaVuSans-32"/>
     <use x="70.996094" xlink:href="#DejaVuSans-61"/>
     <use x="154.785156" xlink:href="#DejaVuSans-32"/>
     <use x="186.572266" xlink:href="#DejaVuSans-51"/>
     <use x="250.195312" xlink:href="#DejaVuSans-46"/>
     <use x="281.982422" xlink:href="#DejaVuSans-56"/>
    </g>
   </g>
  </g>
 </g>
 <defs>
  <clipPath id="pf73a88db34">
   <rect height="217.44" width="334.8" x="54" y="34.56"/>
  </clipPath>
 </defs>
</svg>
