<?xml version="1.0" encoding="utf-8" standalone="no"?>
<!DOCTYPE svg PUBLIC "-//W3C//DTD SVG 1.1//EN"
  "http://www.w3.org/Graphics/SVG/1.1/DTD/svg11.dtd">
<!-- Created with matplotlib (https://matplotlib.org/) -->
<svg height="288pt" version="1.1" viewBox="0 0 432 288" width="432pt" xmlns="http://www.w3.org/2000/svg" xmlns:xlink="http://www.w3.org/1999/xlink">
 <defs>
  <style type="text/css">
*{stroke-linecap:butt;stroke-linejoin:round;}
  </style>
 </defs>
 <g id="figure_1">
  <g id="patch_1">
   <path d="M 0 288 
L 432 288 
L 432 0 
L 0 0 
z
" style="fill:#ffffff;"/>
  </g>
  <g id="axes_1">
   <g id="patch_2">
    <path clip-path="url(#p30d7090024)" d="M 164.02265 170.73255 
L 166.724454 181.263488 
L 165.67136 181.533668 
L 162.969556 171.002731 
z
" style="stroke:#000000;stroke-linejoin:miter;"/>
   </g>
   <g id="patch_3">
    <path clip-path="url(#p30d7090024)" d="M 216.677336 157.223531 
L 219.37914 167.754469 
L 218.326046 168.024649 
L 215.624242 157.493712 
z
" style="stroke:#000000;stroke-linejoin:miter;"/>
   </g>
   <g id="patch_4">
    <path clip-path="url(#p30d7090024)" d="M 181.047665 166.364634 
L 180.766502 165.86736 
L 180.208474 165.478363 
L 179.38902 165.228491 
L 178.327022 165.142996 
L 177.044137 165.239736 
L 175.564173 165.527804 
L 173.91251 166.006681 
L 172.115619 166.665971 
L 170.200666 167.485734 
L 168.195221 168.437412 
L 166.127058 169.485284 
L 164.024037 170.588368 
L 161.914043 171.702649 
L 159.824967 172.783494 
L 157.784684 173.788112 
L 155.821022 174.67789 
L 153.961673 175.420476 
L 152.234036 175.991471 
L 150.664971 176.375627 
L 149.28046 176.567481 
L 148.105163 176.571393 
L 147.161887 176.400978 
L 146.470986 176.07799 
L 146.049702 175.630728 
L 145.911503 175.092062 
L 146.065427 174.497225 
L 146.515497 173.881512 
L 147.260221 173.278026 
L 148.292235 172.715632 
L 149.598103 172.217247 
L 151.158308 171.798561 
L 152.94745 171.467295 
L 154.934644 171.223017 
L 157.08413 171.057531 
L 159.356059 170.955813 
L 161.707454 170.897417 
L 164.093279 170.858256 
L 166.467603 170.812638 
L 168.784792 170.73541 
L 171.0007 170.604063 
L 173.073786 170.40066 
L 174.966136 170.113443 
L 176.644339 169.738014 
L 178.08019 169.278004 
L 179.251193 168.745178 
L 180.14086 168.158966 
L 180.738803 167.545449 
L 181.040632 166.935848 
z
" style="fill:#0000ff;stroke:#000000;stroke-linejoin:miter;"/>
   </g>
   <g id="patch_5">
    <path clip-path="url(#p30d7090024)" d="M 233.702352 152.855615 
L 233.421188 152.358341 
L 232.863161 151.969344 
L 232.043707 151.719472 
L 230.981708 151.633977 
L 229.698824 151.730717 
L 228.218859 152.018785 
L 226.567197 152.497662 
L 224.770305 153.156952 
L 222.855352 153.976715 
L 220.849907 154.928393 
L 218.781745 155.976265 
L 216.678724 157.079349 
L 214.56873 158.19363 
L 212.479653 159.274475 
L 210.43937 160.279093 
L 208.475709 161.168871 
L 206.61636 161.911457 
L 204.888722 162.482452 
L 203.319658 162.866607 
L 201.935147 163.058462 
L 200.759849 163.062374 
L 199.816574 162.891959 
L 199.125672 162.568971 
L 198.704389 162.121709 
L 198.566189 161.583043 
L 198.720113 160.988206 
L 199.170183 160.372493 
L 199.914907 159.769006 
L 200.946921 159.206613 
L 202.252789 158.708228 
L 203.812995 158.289542 
L 205.602137 157.958276 
L 207.589331 157.713998 
L 209.738816 157.548512 
L 212.010746 157.446794 
L 214.362141 157.388398 
L 216.747966 157.349237 
L 219.122289 157.303619 
L 221.439479 157.226391 
L 223.655387 157.095044 
L 225.728472 156.891641 
L 227.620822 156.604424 
L 229.299026 156.228995 
L 230.734877 155.768985 
L 231.905879 155.236159 
L 232.795546 154.649947 
L 233.39349 154.03643 
L 233.695318 153.426829 
z
" style="fill:#0000ff;stroke:#000000;stroke-linejoin:miter;"/>
   </g>
   <g id="patch_6">
    <path clip-path="url(#p30d7090024)" d="M 223.442611 163.905923 
L 160.256987 180.116746 
L 161.607889 185.382214 
L 224.793513 169.171391 
z
" style="fill:#999999;stroke:#000000;stroke-linejoin:miter;"/>
   </g>
   <g id="text_1">
    <!-- t = 0.5 -->
    <defs>
     <path d="M 18.3125 70.21875 
L 18.3125 54.6875 
L 36.8125 54.6875 
L 36.8125 47.703125 
L 18.3125 47.703125 
L 18.3125 18.015625 
Q 18.3125 11.328125 20.140625 9.421875 
Q 21.96875 7.515625 27.59375 7.515625 
L 36.8125 7.515625 
L 36.8125 0 
L 27.59375 0 
Q 17.1875 0 13.234375 3.875 
Q 9.28125 7.765625 9.28125 18.015625 
L 9.28125 47.703125 
L 2.6875 47.703125 
L 2.6875 54.6875 
L 9.28125 54.6875 
L 9.28125 70.21875 
z
" id="DejaVuSans-116"/>
     <path id="DejaVuSans-32"/>
     <path d="M 10.59375 45.40625 
L 73.1875 45.40625 
L 73.1875 37.203125 
L 10.59375 37.203125 
z
M 10.59375 25.484375 
L 73.1875 25.484375 
L 73.1875 17.1875 
L 10.59375 17.1875 
z
" id="DejaVuSans-61"/>
     <path d="M 31.78125 66.40625 
Q 24.171875 66.40625 20.328125 58.90625 
Q 16.5 51.421875 16.5 36.375 
Q 16.5 21.390625 20.328125 13.890625 
Q 24.171875 6.390625 31.78125 6.390625 
Q 39.453125 6.390625 43.28125 13.890625 
Q 47.125 21.390625 47.125 36.375 
Q 47.125 51.421875 43.28125 58.90625 
Q 39.453125 66.40625 31.78125 66.40625 
z
M 31.78125 74.21875 
Q 44.046875 74.21875 50.515625 64.515625 
Q 56.984375 54.828125 56.984375 36.375 
Q 56.984375 17.96875 50.515625 8.265625 
Q 44.046875 -1.421875 31.78125 -1.421875 
Q 19.53125 -1.421875 13.0625 8.265625 
Q 6.59375 17.96875 6.59375 36.375 
Q 6.59375 54.828125 13.0625 64.515625 
Q 19.53125 74.21875 31.78125 74.21875 
z
" id="DejaVuSans-48"/>
     <path d="M 10.6875 12.40625 
L 21 12.40625 
L 21 0 
L 10.6875 0 
z
" id="DejaVuSans-46"/>
     <path d="M 10.796875 72.90625 
L 49.515625 72.90625 
L 49.515625 64.59375 
L 19.828125 64.59375 
L 19.828125 46.734375 
Q 21.96875 47.46875 24.109375 47.828125 
Q 26.265625 48.1875 28.421875 48.1875 
Q 40.625 48.1875 47.75 41.5 
Q 54.890625 34.8125 54.890625 23.390625 
Q 54.890625 11.625 47.5625 5.09375 
Q 40.234375 -1.421875 26.90625 -1.421875 
Q 22.3125 -1.421875 17.546875 -0.640625 
Q 12.796875 0.140625 7.71875 1.703125 
L 7.71875 11.625 
Q 12.109375 9.234375 16.796875 8.0625 
Q 21.484375 6.890625 26.703125 6.890625 
Q 35.15625 6.890625 40.078125 11.328125 
Q 45.015625 15.765625 45.015625 23.390625 
Q 45.015625 31 40.078125 35.4375 
Q 35.15625 39.890625 26.703125 39.890625 
Q 22.75 39.890625 18.8125 39.015625 
Q 14.890625 38.140625 10.796875 36.28125 
z
" id="DejaVuSans-53"/>
    </defs>
    <g transform="translate(200.664375 28.56)scale(0.12 -0.12)">
     <use xlink:href="#DejaVuSans-116"/>
     <use x="39.208984" xlink:href="#DejaVuSans-32"/>
     <use x="70.996094" xlink:href="#DejaVuSans-61"/>
     <use x="154.785156" xlink:href="#DejaVuSans-32"/>
     <use x="186.572266" xlink:href="#DejaVuSans-48"/>
     <use x="250.195312" xlink:href="#DejaVuSans-46"/>
     <use x="281.982422" xlink:href="#DejaVuSans-53"/>
    </g>
   </g>
  </g>
 </g>
 <defs>
  <clipPath id="p30d7090024">
   <rect height="217.44" width="334.8" x="54" y="34.56"/>
  </clipPath>
 </defs>
</svg>
