<?xml version="1.0" encoding="utf-8" standalone="no"?>
<!DOCTYPE svg PUBLIC "-//W3C//DTD SVG 1.1//EN"
  "http://www.w3.org/Graphics/SVG/1.1/DTD/svg11.dtd">
<!-- Created with matplotlib (https://matplotlib.org/) -->
<svg height="288pt" version="1.1" viewBox="0 0 432 288" width="432pt" xmlns="http://www.w3.org/2000/svg" xmlns:xlink="http://www.w3.org/1999/xlink">
 <defs>
  <style type="text/css">
*{stroke-linecap:butt;stroke-linejoin:round;}
  </style>
 </defs>
 <g id="figure_1">
  <g id="patch_1">
   <path d="M 0 288 
L 432 288 
L 432 0 
L 0 0 
z
" style="fill:#ffffff;"/>
  </g>
  <g id="axes_1">
   <g id="patch_2">
    <path clip-path="url(#p4f9e2d0beb)" d="M 194.57017 133.715905 
L 194.789785 144.585687 
L 193.702807 144.607648 
L 193.483192 133.737867 
z
" style="stroke:#000000;stroke-linejoin:miter;"/>
   </g>
   <g id="patch_3">
    <path clip-path="url(#p4f9e2d0beb)" d="M 248.919078 132.61783 
L 249.138693 143.487611 
L 248.051715 143.509573 
L 247.8321 132.639791 
z
" style="stroke:#000000;stroke-linejoin:miter;"/>
   </g>
   <g id="patch_4">
    <path clip-path="url(#p4f9e2d0beb)" d="M 212.142984 133.360861 
L 211.983108 132.812432 
L 211.528934 132.306033 
L 210.788429 131.875228 
L 209.774194 131.548918 
L 208.503225 131.349446 
L 206.996615 131.291113 
L 205.279189 131.379222 
L 203.379096 131.609713 
L 201.327343 131.969393 
L 199.157307 132.436773 
L 196.904201 132.983437 
L 194.604523 133.575868 
L 192.295495 134.177603 
L 190.014482 134.751578 
L 187.798415 135.262518 
L 185.683222 135.679205 
L 183.703263 135.976484 
L 181.890795 136.136876 
L 180.275456 136.151684 
L 178.883787 136.02154 
L 177.738797 135.756331 
L 176.859571 135.37453 
L 176.260941 134.901975 
L 175.953217 134.370158 
L 175.941983 133.81416 
L 176.227975 133.270347 
L 176.807029 132.773998 
L 177.670116 132.356996 
L 178.803459 132.045754 
L 180.188736 131.859504 
L 181.803354 131.809054 
L 183.620822 131.896106 
L 185.611173 132.113168 
L 187.741471 132.444078 
L 189.976367 132.86509 
L 192.278703 133.346462 
L 194.610151 133.85444 
L 196.931882 134.3535 
L 199.20523 134.808711 
L 201.392374 135.188057 
L 203.45698 135.464569 
L 205.364833 135.618124 
L 207.084416 135.636791 
L 208.58744 135.51765 
L 209.849315 135.267004 
L 210.849542 134.899995 
L 211.572041 134.43963 
L 212.00539 133.9153 
z
" style="fill:#0000ff;stroke:#000000;stroke-linejoin:miter;"/>
   </g>
   <g id="patch_5">
    <path clip-path="url(#p4f9e2d0beb)" d="M 266.491892 132.262785 
L 266.332016 131.714356 
L 265.877842 131.207958 
L 265.137337 130.777152 
L 264.123102 130.450843 
L 262.852134 130.251371 
L 261.345523 130.193037 
L 259.628098 130.281147 
L 257.728004 130.511637 
L 255.676252 130.871317 
L 253.506216 131.338697 
L 251.253109 131.885361 
L 248.953431 132.477793 
L 246.644403 133.079528 
L 244.36339 133.653503 
L 242.147324 134.164443 
L 240.03213 134.58113 
L 238.052171 134.878409 
L 236.239703 135.0388 
L 234.624364 135.053609 
L 233.232695 134.923465 
L 232.087705 134.658255 
L 231.208479 134.276455 
L 230.609849 133.8039 
L 230.302125 133.272083 
L 230.290892 132.716084 
L 230.576884 132.172272 
L 231.155937 131.675922 
L 232.019024 131.25892 
L 233.152368 130.947679 
L 234.537644 130.761429 
L 236.152263 130.710979 
L 237.96973 130.79803 
L 239.960081 131.015092 
L 242.090379 131.346002 
L 244.325275 131.767014 
L 246.627611 132.248387 
L 248.95906 132.756365 
L 251.28079 133.255424 
L 253.554139 133.710635 
L 255.741282 134.089981 
L 257.805888 134.366494 
L 259.713741 134.520048 
L 261.433324 134.538716 
L 262.936349 134.419575 
L 264.198223 134.168929 
L 265.19845 133.801919 
L 265.92095 133.341555 
L 266.354299 132.817224 
z
" style="fill:#0000ff;stroke:#000000;stroke-linejoin:miter;"/>
   </g>
   <g id="patch_6">
    <path clip-path="url(#p4f9e2d0beb)" d="M 253.975191 140.671339 
L 188.756502 141.98903 
L 188.866309 147.423921 
L 254.084999 146.10623 
z
" style="fill:#999999;stroke:#000000;stroke-linejoin:miter;"/>
   </g>
   <g id="text_1">
    <!-- t = 1.4 -->
    <defs>
     <path d="M 18.3125 70.21875 
L 18.3125 54.6875 
L 36.8125 54.6875 
L 36.8125 47.703125 
L 18.3125 47.703125 
L 18.3125 18.015625 
Q 18.3125 11.328125 20.140625 9.421875 
Q 21.96875 7.515625 27.59375 7.515625 
L 36.8125 7.515625 
L 36.8125 0 
L 27.59375 0 
Q 17.1875 0 13.234375 3.875 
Q 9.28125 7.765625 9.28125 18.015625 
L 9.28125 47.703125 
L 2.6875 47.703125 
L 2.6875 54.6875 
L 9.28125 54.6875 
L 9.28125 70.21875 
z
" id="DejaVuSans-116"/>
     <path id="DejaVuSans-32"/>
     <path d="M 10.59375 45.40625 
L 73.1875 45.40625 
L 73.1875 37.203125 
L 10.59375 37.203125 
z
M 10.59375 25.484375 
L 73.1875 25.484375 
L 73.1875 17.1875 
L 10.59375 17.1875 
z
" id="DejaVuSans-61"/>
     <path d="M 12.40625 8.296875 
L 28.515625 8.296875 
L 28.515625 63.921875 
L 10.984375 60.40625 
L 10.984375 69.390625 
L 28.421875 72.90625 
L 38.28125 72.90625 
L 38.28125 8.296875 
L 54.390625 8.296875 
L 54.390625 0 
L 12.40625 0 
z
" id="DejaVuSans-49"/>
     <path d="M 10.6875 12.40625 
L 21 12.40625 
L 21 0 
L 10.6875 0 
z
" id="DejaVuSans-46"/>
     <path d="M 37.796875 64.3125 
L 12.890625 25.390625 
L 37.796875 25.390625 
z
M 35.203125 72.90625 
L 47.609375 72.90625 
L 47.609375 25.390625 
L 58.015625 25.390625 
L 58.015625 17.1875 
L 47.609375 17.1875 
L 47.609375 0 
L 37.796875 0 
L 37.796875 17.1875 
L 4.890625 17.1875 
L 4.890625 26.703125 
z
" id="DejaVuSans-52"/>
    </defs>
    <g transform="translate(200.664375 28.56)scale(0.12 -0.12)">
     <use xlink:href="#DejaVuSans-116"/>
     <use x="39.208984" xlink:href="#DejaVuSans-32"/>
     <use x="70.996094" xlink:href="#DejaVuSans-61"/>
     <use x="154.785156" xlink:href="#DejaVuSans-32"/>
     <use x="186.572266" xlink:href="#DejaVuSans-49"/>
     <use x="250.195312" xlink:href="#DejaVuSans-46"/>
     <use x="281.982422" xlink:href="#DejaVuSans-52"/>
    </g>
   </g>
  </g>
 </g>
 <defs>
  <clipPath id="p4f9e2d0beb">
   <rect height="217.44" width="334.8" x="54" y="34.56"/>
  </clipPath>
 </defs>
</svg>
