<?xml version="1.0" encoding="utf-8" standalone="no"?>
<!DOCTYPE svg PUBLIC "-//W3C//DTD SVG 1.1//EN"
  "http://www.w3.org/Graphics/SVG/1.1/DTD/svg11.dtd">
<!-- Created with matplotlib (https://matplotlib.org/) -->
<svg height="288pt" version="1.1" viewBox="0 0 432 288" width="432pt" xmlns="http://www.w3.org/2000/svg" xmlns:xlink="http://www.w3.org/1999/xlink">
 <defs>
  <style type="text/css">
*{stroke-linecap:butt;stroke-linejoin:round;}
  </style>
 </defs>
 <g id="figure_1">
  <g id="patch_1">
   <path d="M 0 288 
L 432 288 
L 432 0 
L 0 0 
z
" style="fill:#ffffff;"/>
  </g>
  <g id="axes_1">
   <g id="patch_2">
    <path clip-path="url(#p3051654a28)" d="M 213.858485 123.045441 
L 213.190739 133.896915 
L 212.105592 133.830141 
L 212.773337 122.978666 
z
" style="stroke:#000000;stroke-linejoin:miter;"/>
   </g>
   <g id="patch_3">
    <path clip-path="url(#p3051654a28)" d="M 268.115858 126.384168 
L 267.448112 137.235642 
L 266.362965 137.168868 
L 267.03071 126.317393 
z
" style="stroke:#000000;stroke-linejoin:miter;"/>
   </g>
   <g id="patch_4">
    <path clip-path="url(#p3051654a28)" d="M 231.401702 124.124963 
L 231.287093 123.56532 
L 230.875739 123.023563 
L 230.172842 122.533791 
L 229.188603 122.12584 
L 227.938139 121.823362 
L 226.441308 121.642331 
L 224.722418 121.59006 
L 222.809855 121.664795 
L 220.735601 121.855919 
L 218.534673 122.144735 
L 216.244484 122.505796 
L 213.904146 122.908673 
L 211.55373 123.320059 
L 209.233499 123.706064 
L 206.983141 124.034541 
L 204.841007 124.277306 
L 202.843397 124.412093 
L 201.023886 124.42411 
L 199.412721 124.307109 
L 198.036306 124.063883 
L 196.916764 123.706162 
L 196.07161 123.253917 
L 195.513521 122.734108 
L 195.250201 122.178962 
L 195.284357 121.6239 
L 195.613754 121.105228 
L 196.231364 120.657765 
L 197.125589 120.312552 
L 198.280544 120.094793 
L 199.676396 120.022158 
L 201.28975 120.103578 
L 203.09406 120.338587 
L 205.060074 120.717275 
L 207.156281 121.220847 
L 209.349389 121.822752 
L 211.604788 122.490318 
L 213.887033 123.186775 
L 216.160319 123.873552 
L 218.388962 124.512679 
L 220.537875 125.069162 
L 222.573046 125.513159 
L 224.462017 125.821822 
L 226.174347 125.980691 
L 227.682081 125.984546 
L 228.960195 125.837664 
L 229.987026 125.553464 
L 230.744669 125.153567 
L 231.219343 124.666331 
z
" style="fill:#0000ff;stroke:#000000;stroke-linejoin:miter;"/>
   </g>
   <g id="patch_5">
    <path clip-path="url(#p3051654a28)" d="M 285.659075 127.46369 
L 285.544466 126.904047 
L 285.133111 126.36229 
L 284.430214 125.872518 
L 283.445975 125.464567 
L 282.195512 125.162089 
L 280.69868 124.981058 
L 278.979791 124.928787 
L 277.067228 125.003522 
L 274.992974 125.194646 
L 272.792046 125.483462 
L 270.501857 125.844523 
L 268.161519 126.2474 
L 265.811102 126.658786 
L 263.490872 127.044791 
L 261.240513 127.373267 
L 259.09838 127.616033 
L 257.10077 127.75082 
L 255.281259 127.762837 
L 253.670094 127.645836 
L 252.293679 127.40261 
L 251.174136 127.044889 
L 250.328983 126.592644 
L 249.770894 126.072835 
L 249.507574 125.517689 
L 249.54173 124.962627 
L 249.871127 124.443955 
L 250.488737 123.996492 
L 251.382962 123.651279 
L 252.537917 123.43352 
L 253.933769 123.360885 
L 255.547122 123.442305 
L 257.351433 123.677314 
L 259.317446 124.056002 
L 261.413654 124.559574 
L 263.606762 125.161479 
L 265.862161 125.829045 
L 268.144405 126.525502 
L 270.417692 127.212278 
L 272.646335 127.851406 
L 274.795247 128.407889 
L 276.830419 128.851886 
L 278.719389 129.160549 
L 280.43172 129.319418 
L 281.939454 129.323273 
L 283.217568 129.176391 
L 284.244399 128.892191 
L 285.002042 128.492294 
L 285.476715 128.005058 
z
" style="fill:#0000ff;stroke:#000000;stroke-linejoin:miter;"/>
   </g>
   <g id="patch_6">
    <path clip-path="url(#p3051654a28)" d="M 272.498212 134.823259 
L 207.389365 130.816787 
L 207.055492 136.242524 
L 272.164339 140.248996 
z
" style="fill:#999999;stroke:#000000;stroke-linejoin:miter;"/>
   </g>
   <g id="text_1">
    <!-- t = 0.7 -->
    <defs>
     <path d="M 18.3125 70.21875 
L 18.3125 54.6875 
L 36.8125 54.6875 
L 36.8125 47.703125 
L 18.3125 47.703125 
L 18.3125 18.015625 
Q 18.3125 11.328125 20.140625 9.421875 
Q 21.96875 7.515625 27.59375 7.515625 
L 36.8125 7.515625 
L 36.8125 0 
L 27.59375 0 
Q 17.1875 0 13.234375 3.875 
Q 9.28125 7.765625 9.28125 18.015625 
L 9.28125 47.703125 
L 2.6875 47.703125 
L 2.6875 54.6875 
L 9.28125 54.6875 
L 9.28125 70.21875 
z
" id="DejaVuSans-116"/>
     <path id="DejaVuSans-32"/>
     <path d="M 10.59375 45.40625 
L 73.1875 45.40625 
L 73.1875 37.203125 
L 10.59375 37.203125 
z
M 10.59375 25.484375 
L 73.1875 25.484375 
L 73.1875 17.1875 
L 10.59375 17.1875 
z
" id="DejaVuSans-61"/>
     <path d="M 31.78125 66.40625 
Q 24.171875 66.40625 20.328125 58.90625 
Q 16.5 51.421875 16.5 36.375 
Q 16.5 21.390625 20.328125 13.890625 
Q 24.171875 6.390625 31.78125 6.390625 
Q 39.453125 6.390625 43.28125 13.890625 
Q 47.125 21.390625 47.125 36.375 
Q 47.125 51.421875 43.28125 58.90625 
Q 39.453125 66.40625 31.78125 66.40625 
z
M 31.78125 74.21875 
Q 44.046875 74.21875 50.515625 64.515625 
Q 56.984375 54.828125 56.984375 36.375 
Q 56.984375 17.96875 50.515625 8.265625 
Q 44.046875 -1.421875 31.78125 -1.421875 
Q 19.53125 -1.421875 13.0625 8.265625 
Q 6.59375 17.96875 6.59375 36.375 
Q 6.59375 54.828125 13.0625 64.515625 
Q 19.53125 74.21875 31.78125 74.21875 
z
" id="DejaVuSans-48"/>
     <path d="M 10.6875 12.40625 
L 21 12.40625 
L 21 0 
L 10.6875 0 
z
" id="DejaVuSans-46"/>
     <path d="M 8.203125 72.90625 
L 55.078125 72.90625 
L 55.078125 68.703125 
L 28.609375 0 
L 18.3125 0 
L 43.21875 64.59375 
L 8.203125 64.59375 
z
" id="DejaVuSans-55"/>
    </defs>
    <g transform="translate(200.664375 28.56)scale(0.12 -0.12)">
     <use xlink:href="#DejaVuSans-116"/>
     <use x="39.208984" xlink:href="#DejaVuSans-32"/>
     <use x="70.996094" xlink:href="#DejaVuSans-61"/>
     <use x="154.785156" xlink:href="#DejaVuSans-32"/>
     <use x="186.572266" xlink:href="#DejaVuSans-48"/>
     <use x="250.195312" xlink:href="#DejaVuSans-46"/>
     <use x="281.982422" xlink:href="#DejaVuSans-55"/>
    </g>
   </g>
  </g>
 </g>
 <defs>
  <clipPath id="p3051654a28">
   <rect height="217.44" width="334.8" x="54" y="34.56"/>
  </clipPath>
 </defs>
</svg>
