<?xml version="1.0" encoding="utf-8" standalone="no"?>
<!DOCTYPE svg PUBLIC "-//W3C//DTD SVG 1.1//EN"
  "http://www.w3.org/Graphics/SVG/1.1/DTD/svg11.dtd">
<!-- Created with matplotlib (https://matplotlib.org/) -->
<svg height="288pt" version="1.1" viewBox="0 0 432 288" width="432pt" xmlns="http://www.w3.org/2000/svg" xmlns:xlink="http://www.w3.org/1999/xlink">
 <defs>
  <style type="text/css">
*{stroke-linecap:butt;stroke-linejoin:round;}
  </style>
 </defs>
 <g id="figure_1">
  <g id="patch_1">
   <path d="M 0 288 
L 432 288 
L 432 0 
L 0 0 
z
" style="fill:#ffffff;"/>
  </g>
  <g id="axes_1">
   <g id="patch_2">
    <path clip-path="url(#p9960ccaa57)" d="M 194.166245 132.560913 
L 194.165656 143.432913 
L 193.078456 143.432854 
L 193.079045 132.560854 
z
" style="stroke:#000000;stroke-linejoin:miter;"/>
   </g>
   <g id="patch_3">
    <path clip-path="url(#p9960ccaa57)" d="M 248.526245 132.563857 
L 248.525656 143.435857 
L 247.438456 143.435798 
L 247.439045 132.563798 
z
" style="stroke:#000000;stroke-linejoin:miter;"/>
   </g>
   <g id="patch_4">
    <path clip-path="url(#p9960ccaa57)" d="M 211.742645 132.561865 
L 211.59391 132.010311 
L 211.150086 131.494817 
L 210.418459 131.049101 
L 209.411041 130.702316 
L 208.144373 130.477143 
L 206.639253 130.388306 
L 204.920395 130.441612 
L 203.016023 130.633571 
L 200.957407 130.951621 
L 198.778349 131.374952 
L 196.514632 131.875869 
L 194.203427 132.421601 
L 191.882685 132.976445 
L 189.590515 133.504102 
L 187.364554 133.970053 
L 185.241355 134.343813 
L 183.255781 134.600928 
L 181.440436 134.724577 
L 179.825128 134.706665 
L 178.436381 134.54836 
L 177.296997 134.260014 
L 176.425685 133.860484 
L 175.836749 133.375901 
L 175.53986 132.837961 
L 175.53989 132.281849 
L 175.836837 131.74394 
L 176.425826 131.259421 
L 177.297181 130.859985 
L 178.436596 130.571763 
L 179.825361 130.413609 
L 181.44067 130.395872 
L 183.256002 130.519717 
L 185.241548 130.777047 
L 187.364707 131.151037 
L 189.590617 131.617229 
L 191.88273 132.145134 
L 194.203412 132.70023 
L 196.514558 133.246212 
L 198.778221 133.747374 
L 200.957232 134.170942 
L 203.015814 134.489214 
L 204.920166 134.681379 
L 206.639018 134.734872 
L 208.144147 134.646198 
L 209.410839 134.421161 
L 210.418295 134.074486 
L 211.14997 133.628849 
L 211.59385 133.113404 
z
" style="fill:#0000ff;stroke:#000000;stroke-linejoin:miter;"/>
   </g>
   <g id="patch_5">
    <path clip-path="url(#p9960ccaa57)" d="M 266.102645 132.564809 
L 265.95391 132.013254 
L 265.510086 131.497761 
L 264.778459 131.052045 
L 263.771041 130.70526 
L 262.504373 130.480087 
L 260.999253 130.39125 
L 259.280395 130.444556 
L 257.376023 130.636515 
L 255.317406 130.954564 
L 253.138349 131.377896 
L 250.874632 131.878813 
L 248.563427 132.424545 
L 246.242685 132.979389 
L 243.950515 133.507046 
L 241.724554 133.972997 
L 239.601355 134.346756 
L 237.615781 134.603872 
L 235.800436 134.72752 
L 234.185128 134.709609 
L 232.796381 134.551304 
L 231.656997 134.262958 
L 230.785685 133.863428 
L 230.196749 133.378845 
L 229.89986 132.840905 
L 229.89989 132.284792 
L 230.196837 131.746884 
L 230.785825 131.262365 
L 231.657181 130.862929 
L 232.796596 130.574707 
L 234.185361 130.416552 
L 235.80067 130.398816 
L 237.616002 130.522661 
L 239.601548 130.779991 
L 241.724707 131.153981 
L 243.950617 131.620173 
L 246.24273 132.148078 
L 248.563412 132.703173 
L 250.874558 133.249156 
L 253.138221 133.750318 
L 255.317232 134.173885 
L 257.375814 134.492158 
L 259.280166 134.684323 
L 260.999018 134.737815 
L 262.504147 134.649141 
L 263.770839 134.424105 
L 264.778295 134.077429 
L 265.50997 133.631793 
L 265.95385 133.116347 
z
" style="fill:#0000ff;stroke:#000000;stroke-linejoin:miter;"/>
   </g>
   <g id="patch_6">
    <path clip-path="url(#p9960ccaa57)" d="M 253.418204 140.718122 
L 188.186204 140.714589 
L 188.185909 146.150589 
L 253.417909 146.154122 
z
" style="fill:#999999;stroke:#000000;stroke-linejoin:miter;"/>
   </g>
   <g id="text_1">
    <!-- t = 2.2 -->
    <defs>
     <path d="M 18.3125 70.21875 
L 18.3125 54.6875 
L 36.8125 54.6875 
L 36.8125 47.703125 
L 18.3125 47.703125 
L 18.3125 18.015625 
Q 18.3125 11.328125 20.140625 9.421875 
Q 21.96875 7.515625 27.59375 7.515625 
L 36.8125 7.515625 
L 36.8125 0 
L 27.59375 0 
Q 17.1875 0 13.234375 3.875 
Q 9.28125 7.765625 9.28125 18.015625 
L 9.28125 47.703125 
L 2.6875 47.703125 
L 2.6875 54.6875 
L 9.28125 54.6875 
L 9.28125 70.21875 
z
" id="DejaVuSans-116"/>
     <path id="DejaVuSans-32"/>
     <path d="M 10.59375 45.40625 
L 73.1875 45.40625 
L 73.1875 37.203125 
L 10.59375 37.203125 
z
M 10.59375 25.484375 
L 73.1875 25.484375 
L 73.1875 17.1875 
L 10.59375 17.1875 
z
" id="DejaVuSans-61"/>
     <path d="M 19.1875 8.296875 
L 53.609375 8.296875 
L 53.609375 0 
L 7.328125 0 
L 7.328125 8.296875 
Q 12.9375 14.109375 22.625 23.890625 
Q 32.328125 33.6875 34.8125 36.53125 
Q 39.546875 41.84375 41.421875 45.53125 
Q 43.3125 49.21875 43.3125 52.78125 
Q 43.3125 58.59375 39.234375 62.25 
Q 35.15625 65.921875 28.609375 65.921875 
Q 23.96875 65.921875 18.8125 64.3125 
Q 13.671875 62.703125 7.8125 59.421875 
L 7.8125 69.390625 
Q 13.765625 71.78125 18.9375 73 
Q 24.125 74.21875 28.421875 74.21875 
Q 39.75 74.21875 46.484375 68.546875 
Q 53.21875 62.890625 53.21875 53.421875 
Q 53.21875 48.921875 51.53125 44.890625 
Q 49.859375 40.875 45.40625 35.40625 
Q 44.1875 33.984375 37.640625 27.21875 
Q 31.109375 20.453125 19.1875 8.296875 
z
" id="DejaVuSans-50"/>
     <path d="M 10.6875 12.40625 
L 21 12.40625 
L 21 0 
L 10.6875 0 
z
" id="DejaVuSans-46"/>
    </defs>
    <g transform="translate(200.664375 28.56)scale(0.12 -0.12)">
     <use xlink:href="#DejaVuSans-116"/>
     <use x="39.208984" xlink:href="#DejaVuSans-32"/>
     <use x="70.996094" xlink:href="#DejaVuSans-61"/>
     <use x="154.785156" xlink:href="#DejaVuSans-32"/>
     <use x="186.572266" xlink:href="#DejaVuSans-50"/>
     <use x="250.195312" xlink:href="#DejaVuSans-46"/>
     <use x="281.982422" xlink:href="#DejaVuSans-50"/>
    </g>
   </g>
  </g>
 </g>
 <defs>
  <clipPath id="p9960ccaa57">
   <rect height="217.44" width="334.8" x="54" y="34.56"/>
  </clipPath>
 </defs>
</svg>
