<?xml version="1.0" encoding="utf-8" standalone="no"?>
<!DOCTYPE svg PUBLIC "-//W3C//DTD SVG 1.1//EN"
  "http://www.w3.org/Graphics/SVG/1.1/DTD/svg11.dtd">
<!-- Created with matplotlib (https://matplotlib.org/) -->
<svg height="288pt" version="1.1" viewBox="0 0 432 288" width="432pt" xmlns="http://www.w3.org/2000/svg" xmlns:xlink="http://www.w3.org/1999/xlink">
 <defs>
  <style type="text/css">
*{stroke-linecap:butt;stroke-linejoin:round;}
  </style>
 </defs>
 <g id="figure_1">
  <g id="patch_1">
   <path d="M 0 288 
L 432 288 
L 432 0 
L 0 0 
z
" style="fill:#ffffff;"/>
  </g>
  <g id="axes_1">
   <g id="patch_2">
    <path clip-path="url(#pd75c0b6d77)" d="M 194.756539 132.408826 
L 194.756741 143.280826 
L 193.669541 143.280846 
L 193.669339 132.408846 
z
" style="stroke:#000000;stroke-linejoin:miter;"/>
   </g>
   <g id="patch_3">
    <path clip-path="url(#pd75c0b6d77)" d="M 249.116539 132.407818 
L 249.116741 143.279818 
L 248.029541 143.279838 
L 248.029339 132.407838 
z
" style="stroke:#000000;stroke-linejoin:miter;"/>
   </g>
   <g id="patch_4">
    <path clip-path="url(#pd75c0b6d77)" d="M 212.332939 132.4085 
L 212.184164 131.856956 
L 211.740302 131.341495 
L 211.008643 130.895833 
L 210.001199 130.549121 
L 208.734515 130.32404 
L 207.229389 130.235312 
L 205.510535 130.288744 
L 203.606177 130.480841 
L 201.547583 130.79904 
L 199.368557 131.22253 
L 197.104876 131.723611 
L 194.793711 132.269511 
L 192.473009 132.824524 
L 190.180877 133.352348 
L 187.95495 133.81846 
L 185.831778 134.192374 
L 183.846223 134.449634 
L 182.030887 134.573415 
L 180.415578 134.55562 
L 179.026819 134.397417 
L 177.887415 134.109154 
L 177.016073 133.709687 
L 176.427102 133.225147 
L 176.130174 132.687228 
L 176.130163 132.131116 
L 176.427072 131.593186 
L 177.016025 131.108624 
L 177.887352 130.709125 
L 179.026746 130.420819 
L 180.415498 130.262564 
L 182.030807 130.24471 
L 183.846147 130.368423 
L 185.831712 130.625609 
L 187.954898 130.999445 
L 190.180842 131.465474 
L 192.472994 131.993213 
L 194.793716 132.54814 
L 197.104902 133.093954 
L 199.368601 133.594952 
L 201.547643 134.018361 
L 203.606248 134.336484 
L 205.510614 134.52851 
L 207.22947 134.581878 
L 208.734593 134.493094 
L 210.001268 134.267966 
L 211.008699 133.921217 
L 211.740342 133.475527 
L 212.184184 132.960049 
z
" style="fill:#0000ff;stroke:#000000;stroke-linejoin:miter;"/>
   </g>
   <g id="patch_5">
    <path clip-path="url(#pd75c0b6d77)" d="M 266.692939 132.407491 
L 266.544164 131.855948 
L 266.100302 131.340486 
L 265.368643 130.894824 
L 264.361199 130.548112 
L 263.094515 130.323031 
L 261.589389 130.234303 
L 259.870535 130.287735 
L 257.966177 130.479832 
L 255.907583 130.798031 
L 253.728557 131.221521 
L 251.464876 131.722603 
L 249.153711 132.268503 
L 246.833009 132.823515 
L 244.540877 133.351339 
L 242.31495 133.817452 
L 240.191778 134.191366 
L 238.206223 134.448626 
L 236.390887 134.572406 
L 234.775578 134.554612 
L 233.386819 134.396408 
L 232.247415 134.108145 
L 231.376073 133.708678 
L 230.787102 133.224138 
L 230.490174 132.686219 
L 230.490163 132.130107 
L 230.787072 131.592177 
L 231.376025 131.107615 
L 232.247352 130.708116 
L 233.386746 130.419811 
L 234.775498 130.261556 
L 236.390807 130.243701 
L 238.206147 130.367414 
L 240.191712 130.624601 
L 242.314898 130.998436 
L 244.540842 131.464466 
L 246.832994 131.992205 
L 249.153716 132.547131 
L 251.464902 133.092945 
L 253.728601 133.593943 
L 255.907643 134.017352 
L 257.966248 134.335475 
L 259.870614 134.527501 
L 261.58947 134.580869 
L 263.094593 134.492086 
L 264.361268 134.266957 
L 265.368699 133.920208 
L 266.100342 133.474519 
L 266.544184 132.959041 
z
" style="fill:#0000ff;stroke:#000000;stroke-linejoin:miter;"/>
   </g>
   <g id="patch_6">
    <path clip-path="url(#pd75c0b6d77)" d="M 254.00909 140.561727 
L 188.77709 140.562937 
L 188.777191 145.998937 
L 254.009191 145.997727 
z
" style="fill:#999999;stroke:#000000;stroke-linejoin:miter;"/>
   </g>
   <g id="text_1">
    <!-- t = 3.8 -->
    <defs>
     <path d="M 18.3125 70.21875 
L 18.3125 54.6875 
L 36.8125 54.6875 
L 36.8125 47.703125 
L 18.3125 47.703125 
L 18.3125 18.015625 
Q 18.3125 11.328125 20.140625 9.421875 
Q 21.96875 7.515625 27.59375 7.515625 
L 36.8125 7.515625 
L 36.8125 0 
L 27.59375 0 
Q 17.1875 0 13.234375 3.875 
Q 9.28125 7.765625 9.28125 18.015625 
L 9.28125 47.703125 
L 2.6875 47.703125 
L 2.6875 54.6875 
L 9.28125 54.6875 
L 9.28125 70.21875 
z
" id="DejaVuSans-116"/>
     <path id="DejaVuSans-32"/>
     <path d="M 10.59375 45.40625 
L 73.1875 45.40625 
L 73.1875 37.203125 
L 10.59375 37.203125 
z
M 10.59375 25.484375 
L 73.1875 25.484375 
L 73.1875 17.1875 
L 10.59375 17.1875 
z
" id="DejaVuSans-61"/>
     <path d="M 40.578125 39.3125 
Q 47.65625 37.796875 51.625 33 
Q 55.609375 28.21875 55.609375 21.1875 
Q 55.609375 10.40625 48.1875 4.484375 
Q 40.765625 -1.421875 27.09375 -1.421875 
Q 22.515625 -1.421875 17.65625 -0.515625 
Q 12.796875 0.390625 7.625 2.203125 
L 7.625 11.71875 
Q 11.71875 9.328125 16.59375 8.109375 
Q 21.484375 6.890625 26.8125 6.890625 
Q 36.078125 6.890625 40.9375 10.546875 
Q 45.796875 14.203125 45.796875 21.1875 
Q 45.796875 27.640625 41.28125 31.265625 
Q 36.765625 34.90625 28.71875 34.90625 
L 20.21875 34.90625 
L 20.21875 43.015625 
L 29.109375 43.015625 
Q 36.375 43.015625 40.234375 45.921875 
Q 44.09375 48.828125 44.09375 54.296875 
Q 44.09375 59.90625 40.109375 62.90625 
Q 36.140625 65.921875 28.71875 65.921875 
Q 24.65625 65.921875 20.015625 65.03125 
Q 15.375 64.15625 9.8125 62.3125 
L 9.8125 71.09375 
Q 15.4375 72.65625 20.34375 73.4375 
Q 25.25 74.21875 29.59375 74.21875 
Q 40.828125 74.21875 47.359375 69.109375 
Q 53.90625 64.015625 53.90625 55.328125 
Q 53.90625 49.265625 50.4375 45.09375 
Q 46.96875 40.921875 40.578125 39.3125 
z
" id="DejaVuSans-51"/>
     <path d="M 10.6875 12.40625 
L 21 12.40625 
L 21 0 
L 10.6875 0 
z
" id="DejaVuSans-46"/>
     <path d="M 31.78125 34.625 
Q 24.75 34.625 20.71875 30.859375 
Q 16.703125 27.09375 16.703125 20.515625 
Q 16.703125 13.921875 20.71875 10.15625 
Q 24.75 6.390625 31.78125 6.390625 
Q 38.8125 6.390625 42.859375 10.171875 
Q 46.921875 13.96875 46.921875 20.515625 
Q 46.921875 27.09375 42.890625 30.859375 
Q 38.875 34.625 31.78125 34.625 
z
M 21.921875 38.8125 
Q 15.578125 40.375 12.03125 44.71875 
Q 8.5 49.078125 8.5 55.328125 
Q 8.5 64.0625 14.71875 69.140625 
Q 20.953125 74.21875 31.78125 74.21875 
Q 42.671875 74.21875 48.875 69.140625 
Q 55.078125 64.0625 55.078125 55.328125 
Q 55.078125 49.078125 51.53125 44.71875 
Q 48 40.375 41.703125 38.8125 
Q 48.828125 37.15625 52.796875 32.3125 
Q 56.78125 27.484375 56.78125 20.515625 
Q 56.78125 9.90625 50.3125 4.234375 
Q 43.84375 -1.421875 31.78125 -1.421875 
Q 19.734375 -1.421875 13.25 4.234375 
Q 6.78125 9.90625 6.78125 20.515625 
Q 6.78125 27.484375 10.78125 32.3125 
Q 14.796875 37.15625 21.921875 38.8125 
z
M 18.3125 54.390625 
Q 18.3125 48.734375 21.84375 45.5625 
Q 25.390625 42.390625 31.78125 42.390625 
Q 38.140625 42.390625 41.71875 45.5625 
Q 45.3125 48.734375 45.3125 54.390625 
Q 45.3125 60.0625 41.71875 63.234375 
Q 38.140625 66.40625 31.78125 66.40625 
Q 25.390625 66.40625 21.84375 63.234375 
Q 18.3125 60.0625 18.3125 54.390625 
z
" id="DejaVuSans-56"/>
    </defs>
    <g transform="translate(200.664375 28.56)scale(0.12 -0.12)">
     <use xlink:href="#DejaVuSans-116"/>
     <use x="39.208984" xlink:href="#DejaVuSans-32"/>
     <use x="70.996094" xlink:href="#DejaVuSans-61"/>
     <use x="154.785156" xlink:href="#DejaVuSans-32"/>
     <use x="186.572266" xlink:href="#DejaVuSans-51"/>
     <use x="250.195312" xlink:href="#DejaVuSans-46"/>
     <use x="281.982422" xlink:href="#DejaVuSans-56"/>
    </g>
   </g>
  </g>
 </g>
 <defs>
  <clipPath id="pd75c0b6d77">
   <rect height="217.44" width="334.8" x="54" y="34.56"/>
  </clipPath>
 </defs>
</svg>
