<?xml version="1.0" encoding="utf-8" standalone="no"?>
<!DOCTYPE svg PUBLIC "-//W3C//DTD SVG 1.1//EN"
  "http://www.w3.org/Graphics/SVG/1.1/DTD/svg11.dtd">
<!-- Created with matplotlib (https://matplotlib.org/) -->
<svg height="288pt" version="1.1" viewBox="0 0 432 288" width="432pt" xmlns="http://www.w3.org/2000/svg" xmlns:xlink="http://www.w3.org/1999/xlink">
 <defs>
  <style type="text/css">
*{stroke-linecap:butt;stroke-linejoin:round;}
  </style>
 </defs>
 <g id="figure_1">
  <g id="patch_1">
   <path d="M 0 288 
L 432 288 
L 432 0 
L 0 0 
z
" style="fill:#ffffff;"/>
  </g>
  <g id="axes_1">
   <g id="patch_2">
    <path clip-path="url(#pd261629e44)" d="M 194.746059 132.409209 
L 194.746113 143.281209 
L 193.658913 143.281215 
L 193.658859 132.409215 
z
" style="stroke:#000000;stroke-linejoin:miter;"/>
   </g>
   <g id="patch_3">
    <path clip-path="url(#pd261629e44)" d="M 249.106059 132.408938 
L 249.106113 143.280938 
L 248.018913 143.280944 
L 248.018859 132.408944 
z
" style="stroke:#000000;stroke-linejoin:miter;"/>
   </g>
   <g id="patch_4">
    <path clip-path="url(#pd261629e44)" d="M 212.322459 132.409122 
L 212.173691 131.857576 
L 211.729837 131.342108 
L 210.998183 130.896436 
L 209.990745 130.549711 
L 208.724064 130.324612 
L 207.218939 130.235864 
L 205.500084 130.289272 
L 203.595723 130.481344 
L 201.537125 130.799515 
L 199.358093 131.222975 
L 197.094406 131.724026 
L 194.783233 132.269895 
L 192.462524 132.824876 
L 190.170385 133.352669 
L 187.944451 133.818751 
L 185.821274 134.192636 
L 183.835715 134.449869 
L 182.020378 134.573625 
L 180.405069 134.555809 
L 179.016313 134.397586 
L 177.876912 134.109307 
L 177.005575 133.709829 
L 176.416611 133.225281 
L 176.11969 132.687358 
L 176.119687 132.131246 
L 176.416603 131.59332 
L 177.005563 131.108766 
L 177.876895 130.709279 
L 179.016293 130.420989 
L 180.405048 130.262752 
L 182.020356 130.24492 
L 183.835695 130.368658 
L 185.821256 130.625871 
L 187.944437 130.999735 
L 190.170375 131.465795 
L 192.46252 131.993565 
L 194.783234 132.548523 
L 197.094413 133.094369 
L 199.358105 133.595397 
L 201.537141 134.018836 
L 203.595742 134.336987 
L 205.500105 134.529039 
L 207.21896 134.58243 
L 208.724084 134.493667 
L 209.990763 134.268556 
L 210.998198 133.92182 
L 211.729847 133.476141 
L 212.173697 132.960669 
z
" style="fill:#0000ff;stroke:#000000;stroke-linejoin:miter;"/>
   </g>
   <g id="patch_5">
    <path clip-path="url(#pd261629e44)" d="M 266.682459 132.408851 
L 266.533691 131.857305 
L 266.089837 131.341838 
L 265.358183 130.896165 
L 264.350745 130.54944 
L 263.084064 130.324341 
L 261.578939 130.235594 
L 259.860084 130.289002 
L 257.955723 130.481073 
L 255.897125 130.799244 
L 253.718093 131.222704 
L 251.454406 131.723755 
L 249.143233 132.269624 
L 246.822524 132.824605 
L 244.530385 133.352398 
L 242.304451 133.81848 
L 240.181274 134.192365 
L 238.195715 134.449598 
L 236.380378 134.573354 
L 234.765069 134.555538 
L 233.376313 134.397316 
L 232.236912 134.109037 
L 231.365575 133.709558 
L 230.776611 133.22501 
L 230.47969 132.687087 
L 230.479687 132.130975 
L 230.776603 131.593049 
L 231.365563 131.108495 
L 232.236895 130.709008 
L 233.376293 130.420718 
L 234.765048 130.262482 
L 236.380356 130.244649 
L 238.195695 130.368387 
L 240.181256 130.6256 
L 242.304437 130.999464 
L 244.530375 131.465524 
L 246.82252 131.993294 
L 249.143234 132.548253 
L 251.454413 133.094098 
L 253.718105 133.595127 
L 255.897141 134.018565 
L 257.955742 134.336716 
L 259.860105 134.528768 
L 261.57896 134.582159 
L 263.084084 134.493396 
L 264.350763 134.268285 
L 265.358198 133.92155 
L 266.089847 133.47587 
L 266.533697 132.960398 
z
" style="fill:#0000ff;stroke:#000000;stroke-linejoin:miter;"/>
   </g>
   <g id="patch_6">
    <path clip-path="url(#pd261629e44)" d="M 253.9985 140.562914 
L 188.7665 140.563239 
L 188.766527 145.999239 
L 253.998527 145.998914 
z
" style="fill:#999999;stroke:#000000;stroke-linejoin:miter;"/>
   </g>
   <g id="text_1">
    <!-- t = 3.6 -->
    <defs>
     <path d="M 18.3125 70.21875 
L 18.3125 54.6875 
L 36.8125 54.6875 
L 36.8125 47.703125 
L 18.3125 47.703125 
L 18.3125 18.015625 
Q 18.3125 11.328125 20.140625 9.421875 
Q 21.96875 7.515625 27.59375 7.515625 
L 36.8125 7.515625 
L 36.8125 0 
L 27.59375 0 
Q 17.1875 0 13.234375 3.875 
Q 9.28125 7.765625 9.28125 18.015625 
L 9.28125 47.703125 
L 2.6875 47.703125 
L 2.6875 54.6875 
L 9.28125 54.6875 
L 9.28125 70.21875 
z
" id="DejaVuSans-116"/>
     <path id="DejaVuSans-32"/>
     <path d="M 10.59375 45.40625 
L 73.1875 45.40625 
L 73.1875 37.203125 
L 10.59375 37.203125 
z
M 10.59375 25.484375 
L 73.1875 25.484375 
L 73.1875 17.1875 
L 10.59375 17.1875 
z
" id="DejaVuSans-61"/>
     <path d="M 40.578125 39.3125 
Q 47.65625 37.796875 51.625 33 
Q 55.609375 28.21875 55.609375 21.1875 
Q 55.609375 10.40625 48.1875 4.484375 
Q 40.765625 -1.421875 27.09375 -1.421875 
Q 22.515625 -1.421875 17.65625 -0.515625 
Q 12.796875 0.390625 7.625 2.203125 
L 7.625 11.71875 
Q 11.71875 9.328125 16.59375 8.109375 
Q 21.484375 6.890625 26.8125 6.890625 
Q 36.078125 6.890625 40.9375 10.546875 
Q 45.796875 14.203125 45.796875 21.1875 
Q 45.796875 27.640625 41.28125 31.265625 
Q 36.765625 34.90625 28.71875 34.90625 
L 20.21875 34.90625 
L 20.21875 43.015625 
L 29.109375 43.015625 
Q 36.375 43.015625 40.234375 45.921875 
Q 44.09375 48.828125 44.09375 54.296875 
Q 44.09375 59.90625 40.109375 62.90625 
Q 36.140625 65.921875 28.71875 65.921875 
Q 24.65625 65.921875 20.015625 65.03125 
Q 15.375 64.15625 9.8125 62.3125 
L 9.8125 71.09375 
Q 15.4375 72.65625 20.34375 73.4375 
Q 25.25 74.21875 29.59375 74.21875 
Q 40.828125 74.21875 47.359375 69.109375 
Q 53.90625 64.015625 53.90625 55.328125 
Q 53.90625 49.265625 50.4375 45.09375 
Q 46.96875 40.921875 40.578125 39.3125 
z
" id="DejaVuSans-51"/>
     <path d="M 10.6875 12.40625 
L 21 12.40625 
L 21 0 
L 10.6875 0 
z
" id="DejaVuSans-46"/>
     <path d="M 33.015625 40.375 
Q 26.375 40.375 22.484375 35.828125 
Q 18.609375 31.296875 18.609375 23.390625 
Q 18.609375 15.53125 22.484375 10.953125 
Q 26.375 6.390625 33.015625 6.390625 
Q 39.65625 6.390625 43.53125 10.953125 
Q 47.40625 15.53125 47.40625 23.390625 
Q 47.40625 31.296875 43.53125 35.828125 
Q 39.65625 40.375 33.015625 40.375 
z
M 52.59375 71.296875 
L 52.59375 62.3125 
Q 48.875 64.0625 45.09375 64.984375 
Q 41.3125 65.921875 37.59375 65.921875 
Q 27.828125 65.921875 22.671875 59.328125 
Q 17.53125 52.734375 16.796875 39.40625 
Q 19.671875 43.65625 24.015625 45.921875 
Q 28.375 48.1875 33.59375 48.1875 
Q 44.578125 48.1875 50.953125 41.515625 
Q 57.328125 34.859375 57.328125 23.390625 
Q 57.328125 12.15625 50.6875 5.359375 
Q 44.046875 -1.421875 33.015625 -1.421875 
Q 20.359375 -1.421875 13.671875 8.265625 
Q 6.984375 17.96875 6.984375 36.375 
Q 6.984375 53.65625 15.1875 63.9375 
Q 23.390625 74.21875 37.203125 74.21875 
Q 40.921875 74.21875 44.703125 73.484375 
Q 48.484375 72.75 52.59375 71.296875 
z
" id="DejaVuSans-54"/>
    </defs>
    <g transform="translate(200.664375 28.56)scale(0.12 -0.12)">
     <use xlink:href="#DejaVuSans-116"/>
     <use x="39.208984" xlink:href="#DejaVuSans-32"/>
     <use x="70.996094" xlink:href="#DejaVuSans-61"/>
     <use x="154.785156" xlink:href="#DejaVuSans-32"/>
     <use x="186.572266" xlink:href="#DejaVuSans-51"/>
     <use x="250.195312" xlink:href="#DejaVuSans-46"/>
     <use x="281.982422" xlink:href="#DejaVuSans-54"/>
    </g>
   </g>
  </g>
 </g>
 <defs>
  <clipPath id="pd261629e44">
   <rect height="217.44" width="334.8" x="54" y="34.56"/>
  </clipPath>
 </defs>
</svg>
