<?xml version="1.0" encoding="utf-8" standalone="no"?>
<!DOCTYPE svg PUBLIC "-//W3C//DTD SVG 1.1//EN"
  "http://www.w3.org/Graphics/SVG/1.1/DTD/svg11.dtd">
<!-- Created with matplotlib (https://matplotlib.org/) -->
<svg height="288pt" version="1.1" viewBox="0 0 432 288" width="432pt" xmlns="http://www.w3.org/2000/svg" xmlns:xlink="http://www.w3.org/1999/xlink">
 <defs>
  <style type="text/css">
*{stroke-linecap:butt;stroke-linejoin:round;}
  </style>
 </defs>
 <g id="figure_1">
  <g id="patch_1">
   <path d="M 0 288 
L 432 288 
L 432 0 
L 0 0 
z
" style="fill:#ffffff;"/>
  </g>
  <g id="axes_1">
   <g id="patch_2">
    <path clip-path="url(#p40b4bcdf28)" d="M 194.619953 132.375064 
L 194.62788 143.247061 
L 193.540681 143.247854 
L 193.532753 132.375857 
z
" style="stroke:#000000;stroke-linejoin:miter;"/>
   </g>
   <g id="patch_3">
    <path clip-path="url(#p40b4bcdf28)" d="M 248.979938 132.335425 
L 248.987866 143.207422 
L 247.900666 143.208215 
L 247.892738 132.336218 
z
" style="stroke:#000000;stroke-linejoin:miter;"/>
   </g>
   <g id="patch_4">
    <path clip-path="url(#p40b4bcdf28)" d="M 212.196348 132.362248 
L 212.047181 131.81081 
L 211.602953 131.295664 
L 210.870977 130.850522 
L 209.863288 130.504526 
L 208.596444 130.280345 
L 207.091255 130.192687 
L 205.372439 130.24734 
L 203.468218 130.44079 
L 201.409851 130.760452 
L 199.231126 131.185491 
L 196.967802 131.688181 
L 194.657026 132.235723 
L 192.336719 132.792385 
L 190.044962 133.321838 
L 187.819367 133.789532 
L 185.696462 134.164954 
L 183.71109 134.423625 
L 181.895842 134.548696 
L 180.280521 134.532049 
L 178.89165 134.374833 
L 177.752041 134.087379 
L 176.880415 133.688532 
L 176.2911 133.204411 
L 175.99379 132.666703 
L 175.993384 132.110591 
L 176.28991 131.57245 
L 176.878519 131.08747 
L 177.749561 130.687351 
L 178.88875 130.398236 
L 180.27739 130.238994 
L 181.892686 130.219992 
L 183.708114 130.342415 
L 185.693861 130.59819 
L 187.817312 130.970517 
L 190.043586 131.434964 
L 192.336113 131.961074 
L 194.657229 132.514352 
L 196.968802 133.058523 
L 199.232856 133.557912 
L 201.412199 133.979772 
L 203.471029 134.296432 
L 205.375531 134.487105 
L 207.094424 134.539251 
L 208.599484 134.449398 
L 209.865999 134.22337 
L 210.873183 133.875905 
L 211.604509 133.429696 
L 212.047985 132.913903 
z
" style="fill:#0000ff;stroke:#000000;stroke-linejoin:miter;"/>
   </g>
   <g id="patch_5">
    <path clip-path="url(#p40b4bcdf28)" d="M 266.556333 132.322608 
L 266.407166 131.77117 
L 265.962938 131.256024 
L 265.230962 130.810882 
L 264.223273 130.464887 
L 262.956429 130.240705 
L 261.45124 130.153048 
L 259.732425 130.2077 
L 257.828203 130.401151 
L 255.769837 130.720813 
L 253.591112 131.145851 
L 251.327788 131.648541 
L 249.017011 132.196084 
L 246.696705 132.752745 
L 244.404948 133.282198 
L 242.179353 133.749892 
L 240.056447 134.125315 
L 238.071075 134.383986 
L 236.255828 134.509056 
L 234.640506 134.49241 
L 233.251636 134.335193 
L 232.112026 134.04774 
L 231.240401 133.648893 
L 230.651086 133.164771 
L 230.353775 132.627063 
L 230.35337 132.070951 
L 230.649896 131.532811 
L 231.238504 131.04783 
L 232.109547 130.647712 
L 233.248736 130.358597 
L 234.637376 130.199355 
L 236.252671 130.180353 
L 238.068099 130.302776 
L 240.053846 130.558551 
L 242.177297 130.930877 
L 244.403572 131.395325 
L 246.696098 131.921435 
L 249.017214 132.474712 
L 251.328787 133.018884 
L 253.592842 133.518273 
L 255.772184 133.940133 
L 257.831015 134.256793 
L 259.735516 134.447466 
L 261.45441 134.499612 
L 262.959469 134.409759 
L 264.225985 134.183731 
L 265.233168 133.836266 
L 265.964495 133.390056 
L 266.407971 132.874263 
z
" style="fill:#0000ff;stroke:#000000;stroke-linejoin:miter;"/>
   </g>
   <g id="patch_6">
    <path clip-path="url(#p40b4bcdf28)" d="M 253.878283 140.485855 
L 188.6463 140.533423 
L 188.650264 145.969421 
L 253.882247 145.921854 
z
" style="fill:#999999;stroke:#000000;stroke-linejoin:miter;"/>
   </g>
   <g id="text_1">
    <!-- t = 2.2 -->
    <defs>
     <path d="M 18.3125 70.21875 
L 18.3125 54.6875 
L 36.8125 54.6875 
L 36.8125 47.703125 
L 18.3125 47.703125 
L 18.3125 18.015625 
Q 18.3125 11.328125 20.140625 9.421875 
Q 21.96875 7.515625 27.59375 7.515625 
L 36.8125 7.515625 
L 36.8125 0 
L 27.59375 0 
Q 17.1875 0 13.234375 3.875 
Q 9.28125 7.765625 9.28125 18.015625 
L 9.28125 47.703125 
L 2.6875 47.703125 
L 2.6875 54.6875 
L 9.28125 54.6875 
L 9.28125 70.21875 
z
" id="DejaVuSans-116"/>
     <path id="DejaVuSans-32"/>
     <path d="M 10.59375 45.40625 
L 73.1875 45.40625 
L 73.1875 37.203125 
L 10.59375 37.203125 
z
M 10.59375 25.484375 
L 73.1875 25.484375 
L 73.1875 17.1875 
L 10.59375 17.1875 
z
" id="DejaVuSans-61"/>
     <path d="M 19.1875 8.296875 
L 53.609375 8.296875 
L 53.609375 0 
L 7.328125 0 
L 7.328125 8.296875 
Q 12.9375 14.109375 22.625 23.890625 
Q 32.328125 33.6875 34.8125 36.53125 
Q 39.546875 41.84375 41.421875 45.53125 
Q 43.3125 49.21875 43.3125 52.78125 
Q 43.3125 58.59375 39.234375 62.25 
Q 35.15625 65.921875 28.609375 65.921875 
Q 23.96875 65.921875 18.8125 64.3125 
Q 13.671875 62.703125 7.8125 59.421875 
L 7.8125 69.390625 
Q 13.765625 71.78125 18.9375 73 
Q 24.125 74.21875 28.421875 74.21875 
Q 39.75 74.21875 46.484375 68.546875 
Q 53.21875 62.890625 53.21875 53.421875 
Q 53.21875 48.921875 51.53125 44.890625 
Q 49.859375 40.875 45.40625 35.40625 
Q 44.1875 33.984375 37.640625 27.21875 
Q 31.109375 20.453125 19.1875 8.296875 
z
" id="DejaVuSans-50"/>
     <path d="M 10.6875 12.40625 
L 21 12.40625 
L 21 0 
L 10.6875 0 
z
" id="DejaVuSans-46"/>
    </defs>
    <g transform="translate(200.664375 28.56)scale(0.12 -0.12)">
     <use xlink:href="#DejaVuSans-116"/>
     <use x="39.208984" xlink:href="#DejaVuSans-32"/>
     <use x="70.996094" xlink:href="#DejaVuSans-61"/>
     <use x="154.785156" xlink:href="#DejaVuSans-32"/>
     <use x="186.572266" xlink:href="#DejaVuSans-50"/>
     <use x="250.195312" xlink:href="#DejaVuSans-46"/>
     <use x="281.982422" xlink:href="#DejaVuSans-50"/>
    </g>
   </g>
  </g>
 </g>
 <defs>
  <clipPath id="p40b4bcdf28">
   <rect height="217.44" width="334.8" x="54" y="34.56"/>
  </clipPath>
 </defs>
</svg>
