<?xml version="1.0" encoding="utf-8" standalone="no"?>
<!DOCTYPE svg PUBLIC "-//W3C//DTD SVG 1.1//EN"
  "http://www.w3.org/Graphics/SVG/1.1/DTD/svg11.dtd">
<!-- Created with matplotlib (https://matplotlib.org/) -->
<svg height="288pt" version="1.1" viewBox="0 0 432 288" width="432pt" xmlns="http://www.w3.org/2000/svg" xmlns:xlink="http://www.w3.org/1999/xlink">
 <defs>
  <style type="text/css">
*{stroke-linecap:butt;stroke-linejoin:round;}
  </style>
 </defs>
 <g id="figure_1">
  <g id="patch_1">
   <path d="M 0 288 
L 432 288 
L 432 0 
L 0 0 
z
" style="fill:#ffffff;"/>
  </g>
  <g id="axes_1">
   <g id="patch_2">
    <path clip-path="url(#pc3384b1991)" d="M 198.491833 140.471287 
L 199.411591 151.304312 
L 198.328288 151.396288 
L 197.40853 140.563263 
z
" style="stroke:#000000;stroke-linejoin:miter;"/>
   </g>
   <g id="patch_3">
    <path clip-path="url(#pc3384b1991)" d="M 252.656957 135.872498 
L 253.576715 146.705523 
L 252.493413 146.797498 
L 251.573655 135.964473 
z
" style="stroke:#000000;stroke-linejoin:miter;"/>
   </g>
   <g id="patch_4">
    <path clip-path="url(#pc3384b1991)" d="M 216.005223 138.984345 
L 215.810331 138.447361 
L 215.324462 137.971289 
L 214.55773 137.589108 
L 213.524572 137.328848 
L 212.243389 137.21171 
L 210.736152 137.250604 
L 209.027976 137.449225 
L 207.146689 137.801705 
L 205.122386 138.292881 
L 202.986987 138.899156 
L 200.773799 139.589905 
L 198.517088 140.329328 
L 196.251646 141.078637 
L 194.01237 141.798439 
L 191.833844 142.451151 
L 189.749905 143.003303 
L 187.793224 143.42758 
L 185.994862 143.704459 
L 184.383837 143.823352 
L 182.986673 143.783177 
L 181.82697 143.592317 
L 180.924964 143.267981 
L 180.297121 142.834992 
L 179.955759 142.324115 
L 179.908713 141.769996 
L 180.159059 141.208881 
L 180.704917 140.676242 
L 181.539332 140.204477 
L 182.650258 139.820835 
L 184.020649 139.545686 
L 185.628659 139.391272 
L 187.447959 139.361 
L 189.448161 139.449325 
L 191.595358 139.642241 
L 193.852743 139.91833 
L 196.181318 140.250307 
L 198.54066 140.606957 
L 200.889729 140.955335 
L 203.187691 141.263073 
L 205.394737 141.500661 
L 207.472872 141.643526 
L 209.386655 141.673793 
L 211.103866 141.581588 
L 212.596086 141.365819 
L 213.839182 141.034361 
L 214.813674 140.603646 
L 215.504999 140.097671 
L 215.903651 139.5465 
z
" style="fill:#0000ff;stroke:#000000;stroke-linejoin:miter;"/>
   </g>
   <g id="patch_5">
    <path clip-path="url(#pc3384b1991)" d="M 270.170348 134.385556 
L 269.975456 133.848572 
L 269.489587 133.372499 
L 268.722855 132.990318 
L 267.689697 132.730058 
L 266.408514 132.61292 
L 264.901276 132.651815 
L 263.193101 132.850436 
L 261.311814 133.202916 
L 259.287511 133.694091 
L 257.152111 134.300366 
L 254.938924 134.991115 
L 252.682213 135.730538 
L 250.41677 136.479847 
L 248.177495 137.199649 
L 245.998968 137.852361 
L 243.91503 138.404514 
L 241.958349 138.828791 
L 240.159987 139.105669 
L 238.548961 139.224562 
L 237.151798 139.184387 
L 235.992095 138.993528 
L 235.090088 138.669191 
L 234.462246 138.236202 
L 234.120884 137.725325 
L 234.073837 137.171207 
L 234.324184 136.610092 
L 234.870042 136.077452 
L 235.704457 135.605688 
L 236.815383 135.222045 
L 238.185774 134.946896 
L 239.793784 134.792482 
L 241.613083 134.76221 
L 243.613286 134.850535 
L 245.760483 135.043451 
L 248.017868 135.31954 
L 250.346442 135.651517 
L 252.705784 136.008168 
L 255.054853 136.356545 
L 257.352815 136.664283 
L 259.559861 136.901871 
L 261.637997 137.044737 
L 263.55178 137.075003 
L 265.26899 136.982798 
L 266.761211 136.767029 
L 268.004306 136.435572 
L 268.978799 136.004856 
L 269.670123 135.498881 
L 270.068776 134.94771 
z
" style="fill:#0000ff;stroke:#000000;stroke-linejoin:miter;"/>
   </g>
   <g id="patch_6">
    <path clip-path="url(#pc3384b1991)" d="M 258.221637 143.583375 
L 193.223487 149.101923 
L 193.683366 154.518435 
L 258.681516 148.999888 
z
" style="fill:#999999;stroke:#000000;stroke-linejoin:miter;"/>
   </g>
   <g id="text_1">
    <!-- t = 1.2 -->
    <defs>
     <path d="M 18.3125 70.21875 
L 18.3125 54.6875 
L 36.8125 54.6875 
L 36.8125 47.703125 
L 18.3125 47.703125 
L 18.3125 18.015625 
Q 18.3125 11.328125 20.140625 9.421875 
Q 21.96875 7.515625 27.59375 7.515625 
L 36.8125 7.515625 
L 36.8125 0 
L 27.59375 0 
Q 17.1875 0 13.234375 3.875 
Q 9.28125 7.765625 9.28125 18.015625 
L 9.28125 47.703125 
L 2.6875 47.703125 
L 2.6875 54.6875 
L 9.28125 54.6875 
L 9.28125 70.21875 
z
" id="DejaVuSans-116"/>
     <path id="DejaVuSans-32"/>
     <path d="M 10.59375 45.40625 
L 73.1875 45.40625 
L 73.1875 37.203125 
L 10.59375 37.203125 
z
M 10.59375 25.484375 
L 73.1875 25.484375 
L 73.1875 17.1875 
L 10.59375 17.1875 
z
" id="DejaVuSans-61"/>
     <path d="M 12.40625 8.296875 
L 28.515625 8.296875 
L 28.515625 63.921875 
L 10.984375 60.40625 
L 10.984375 69.390625 
L 28.421875 72.90625 
L 38.28125 72.90625 
L 38.28125 8.296875 
L 54.390625 8.296875 
L 54.390625 0 
L 12.40625 0 
z
" id="DejaVuSans-49"/>
     <path d="M 10.6875 12.40625 
L 21 12.40625 
L 21 0 
L 10.6875 0 
z
" id="DejaVuSans-46"/>
     <path d="M 19.1875 8.296875 
L 53.609375 8.296875 
L 53.609375 0 
L 7.328125 0 
L 7.328125 8.296875 
Q 12.9375 14.109375 22.625 23.890625 
Q 32.328125 33.6875 34.8125 36.53125 
Q 39.546875 41.84375 41.421875 45.53125 
Q 43.3125 49.21875 43.3125 52.78125 
Q 43.3125 58.59375 39.234375 62.25 
Q 35.15625 65.921875 28.609375 65.921875 
Q 23.96875 65.921875 18.8125 64.3125 
Q 13.671875 62.703125 7.8125 59.421875 
L 7.8125 69.390625 
Q 13.765625 71.78125 18.9375 73 
Q 24.125 74.21875 28.421875 74.21875 
Q 39.75 74.21875 46.484375 68.546875 
Q 53.21875 62.890625 53.21875 53.421875 
Q 53.21875 48.921875 51.53125 44.890625 
Q 49.859375 40.875 45.40625 35.40625 
Q 44.1875 33.984375 37.640625 27.21875 
Q 31.109375 20.453125 19.1875 8.296875 
z
" id="DejaVuSans-50"/>
    </defs>
    <g transform="translate(200.664375 28.56)scale(0.12 -0.12)">
     <use xlink:href="#DejaVuSans-116"/>
     <use x="39.208984" xlink:href="#DejaVuSans-32"/>
     <use x="70.996094" xlink:href="#DejaVuSans-61"/>
     <use x="154.785156" xlink:href="#DejaVuSans-32"/>
     <use x="186.572266" xlink:href="#DejaVuSans-49"/>
     <use x="250.195312" xlink:href="#DejaVuSans-46"/>
     <use x="281.982422" xlink:href="#DejaVuSans-50"/>
    </g>
   </g>
  </g>
 </g>
 <defs>
  <clipPath id="pc3384b1991">
   <rect height="217.44" width="334.8" x="54" y="34.56"/>
  </clipPath>
 </defs>
</svg>
