<?xml version="1.0" encoding="utf-8" standalone="no"?>
<!DOCTYPE svg PUBLIC "-//W3C//DTD SVG 1.1//EN"
  "http://www.w3.org/Graphics/SVG/1.1/DTD/svg11.dtd">
<!-- Created with matplotlib (https://matplotlib.org/) -->
<svg height="288pt" version="1.1" viewBox="0 0 432 288" width="432pt" xmlns="http://www.w3.org/2000/svg" xmlns:xlink="http://www.w3.org/1999/xlink">
 <defs>
  <style type="text/css">
*{stroke-linecap:butt;stroke-linejoin:round;}
  </style>
 </defs>
 <g id="figure_1">
  <g id="patch_1">
   <path d="M 0 288 
L 432 288 
L 432 0 
L 0 0 
z
" style="fill:#ffffff;"/>
  </g>
  <g id="axes_1">
   <g id="patch_2">
    <path clip-path="url(#p538063c8ca)" d="M 382.614664 68.017186 
L 390.970863 74.972351 
L 390.275347 75.807971 
L 381.919148 68.852806 
z
" style="stroke:#000000;stroke-linejoin:miter;"/>
   </g>
   <g id="patch_3">
    <path clip-path="url(#p538063c8ca)" d="M 417.390492 26.236192 
L 425.746691 33.191358 
L 425.051174 34.026978 
L 416.694976 27.071812 
z
" style="stroke:#000000;stroke-linejoin:miter;"/>
   </g>
   <g id="patch_4">
    <path clip-path="url(#p538063c8ca)" d="M 393.858849 54.507998 
L 393.339761 54.269496 
L 392.659626 54.280878 
L 391.84902 54.558111 
L 390.938034 55.11061 
L 389.954683 55.940171 
L 388.92359 57.040227 
L 387.865026 58.395498 
L 386.794363 59.982054 
L 385.721949 61.767828 
L 384.653414 63.713523 
L 383.590358 65.773922 
L 382.53137 67.89949 
L 381.473285 70.038216 
L 380.41258 72.137591 
L 379.346799 74.146601 
L 378.275893 76.017652 
L 377.203368 77.708304 
L 376.13715 79.182734 
L 375.090086 80.412854 
L 374.08004 81.379025 
L 373.129555 82.070341 
L 372.265093 82.484484 
L 371.51589 82.627177 
L 370.912494 82.51126 
L 370.485067 82.155498 
L 370.261568 81.583159 
L 370.26592 80.820501 
L 370.516299 79.895234 
L 371.023634 78.835069 
L 371.790451 77.666449 
L 372.810116 76.413523 
L 374.066557 75.097422 
L 375.534484 73.735879 
L 377.180109 72.343187 
L 378.962333 70.930498 
L 380.834341 69.5064 
L 382.745523 68.077737 
L 384.6436 66.650574 
L 386.476853 65.231238 
L 388.196313 63.82733 
L 389.757803 62.448632 
L 391.123702 61.107812 
L 392.264352 59.820864 
L 393.159011 58.607249 
L 393.796331 57.489674 
L 394.174324 56.493545 
L 394.299839 55.646087 
L 394.187597 54.97518 
z
" style="fill:#0000ff;stroke:#000000;stroke-linejoin:miter;"/>
   </g>
   <g id="patch_5">
    <path clip-path="url(#p538063c8ca)" d="M 428.634677 12.727004 
L 428.115589 12.488503 
L 427.435454 12.499885 
L 426.624847 12.777117 
L 425.713862 13.329617 
L 424.730511 14.159178 
L 423.699417 15.259234 
L 422.640854 16.614504 
L 421.570191 18.201061 
L 420.497777 19.986834 
L 419.429242 21.93253 
L 418.366185 23.992929 
L 417.307197 26.118496 
L 416.249112 28.257223 
L 415.188408 30.356597 
L 414.122627 32.365608 
L 413.051721 34.236659 
L 411.979196 35.92731 
L 410.912978 37.401741 
L 409.865914 38.631861 
L 408.855867 39.598032 
L 407.905382 40.289347 
L 407.04092 40.703491 
L 406.291718 40.846183 
L 405.688322 40.730267 
L 405.260895 40.374504 
L 405.037395 39.802166 
L 405.041748 39.039508 
L 405.292127 38.11424 
L 405.799462 37.054075 
L 406.566279 35.885456 
L 407.585943 34.63253 
L 408.842385 33.316429 
L 410.310312 31.954885 
L 411.955937 30.562193 
L 413.73816 29.149504 
L 415.610169 27.725407 
L 417.521351 26.296744 
L 419.419428 24.869581 
L 421.252681 23.450244 
L 422.972141 22.046337 
L 424.533631 20.667639 
L 425.89953 19.326818 
L 427.040179 18.039871 
L 427.934838 16.826255 
L 428.572159 15.708681 
L 428.950152 14.712552 
L 429.075667 13.865093 
L 428.963424 13.194187 
z
" style="fill:#0000ff;stroke:#000000;stroke-linejoin:miter;"/>
   </g>
   <g id="patch_6">
    <path clip-path="url(#p538063c8ca)" d="M 426.787466 27.692277 
L 385.056472 77.829469 
L 389.234572 81.307052 
L 430.965565 31.16986 
z
" style="fill:#999999;stroke:#000000;stroke-linejoin:miter;"/>
   </g>
   <g id="text_1">
    <!-- t = 0.2 -->
    <defs>
     <path d="M 18.3125 70.21875 
L 18.3125 54.6875 
L 36.8125 54.6875 
L 36.8125 47.703125 
L 18.3125 47.703125 
L 18.3125 18.015625 
Q 18.3125 11.328125 20.140625 9.421875 
Q 21.96875 7.515625 27.59375 7.515625 
L 36.8125 7.515625 
L 36.8125 0 
L 27.59375 0 
Q 17.1875 0 13.234375 3.875 
Q 9.28125 7.765625 9.28125 18.015625 
L 9.28125 47.703125 
L 2.6875 47.703125 
L 2.6875 54.6875 
L 9.28125 54.6875 
L 9.28125 70.21875 
z
" id="DejaVuSans-116"/>
     <path id="DejaVuSans-32"/>
     <path d="M 10.59375 45.40625 
L 73.1875 45.40625 
L 73.1875 37.203125 
L 10.59375 37.203125 
z
M 10.59375 25.484375 
L 73.1875 25.484375 
L 73.1875 17.1875 
L 10.59375 17.1875 
z
" id="DejaVuSans-61"/>
     <path d="M 31.78125 66.40625 
Q 24.171875 66.40625 20.328125 58.90625 
Q 16.5 51.421875 16.5 36.375 
Q 16.5 21.390625 20.328125 13.890625 
Q 24.171875 6.390625 31.78125 6.390625 
Q 39.453125 6.390625 43.28125 13.890625 
Q 47.125 21.390625 47.125 36.375 
Q 47.125 51.421875 43.28125 58.90625 
Q 39.453125 66.40625 31.78125 66.40625 
z
M 31.78125 74.21875 
Q 44.046875 74.21875 50.515625 64.515625 
Q 56.984375 54.828125 56.984375 36.375 
Q 56.984375 17.96875 50.515625 8.265625 
Q 44.046875 -1.421875 31.78125 -1.421875 
Q 19.53125 -1.421875 13.0625 8.265625 
Q 6.59375 17.96875 6.59375 36.375 
Q 6.59375 54.828125 13.0625 64.515625 
Q 19.53125 74.21875 31.78125 74.21875 
z
" id="DejaVuSans-48"/>
     <path d="M 10.6875 12.40625 
L 21 12.40625 
L 21 0 
L 10.6875 0 
z
" id="DejaVuSans-46"/>
     <path d="M 19.1875 8.296875 
L 53.609375 8.296875 
L 53.609375 0 
L 7.328125 0 
L 7.328125 8.296875 
Q 12.9375 14.109375 22.625 23.890625 
Q 32.328125 33.6875 34.8125 36.53125 
Q 39.546875 41.84375 41.421875 45.53125 
Q 43.3125 49.21875 43.3125 52.78125 
Q 43.3125 58.59375 39.234375 62.25 
Q 35.15625 65.921875 28.609375 65.921875 
Q 23.96875 65.921875 18.8125 64.3125 
Q 13.671875 62.703125 7.8125 59.421875 
L 7.8125 69.390625 
Q 13.765625 71.78125 18.9375 73 
Q 24.125 74.21875 28.421875 74.21875 
Q 39.75 74.21875 46.484375 68.546875 
Q 53.21875 62.890625 53.21875 53.421875 
Q 53.21875 48.921875 51.53125 44.890625 
Q 49.859375 40.875 45.40625 35.40625 
Q 44.1875 33.984375 37.640625 27.21875 
Q 31.109375 20.453125 19.1875 8.296875 
z
" id="DejaVuSans-50"/>
    </defs>
    <g transform="translate(200.664375 28.56)scale(0.12 -0.12)">
     <use xlink:href="#DejaVuSans-116"/>
     <use x="39.208984" xlink:href="#DejaVuSans-32"/>
     <use x="70.996094" xlink:href="#DejaVuSans-61"/>
     <use x="154.785156" xlink:href="#DejaVuSans-32"/>
     <use x="186.572266" xlink:href="#DejaVuSans-48"/>
     <use x="250.195312" xlink:href="#DejaVuSans-46"/>
     <use x="281.982422" xlink:href="#DejaVuSans-50"/>
    </g>
   </g>
  </g>
 </g>
 <defs>
  <clipPath id="p538063c8ca">
   <rect height="217.44" width="334.8" x="54" y="34.56"/>
  </clipPath>
 </defs>
</svg>
