<?xml version="1.0" encoding="utf-8" standalone="no"?>
<!DOCTYPE svg PUBLIC "-//W3C//DTD SVG 1.1//EN"
  "http://www.w3.org/Graphics/SVG/1.1/DTD/svg11.dtd">
<!-- Created with matplotlib (https://matplotlib.org/) -->
<svg height="288pt" version="1.1" viewBox="0 0 432 288" width="432pt" xmlns="http://www.w3.org/2000/svg" xmlns:xlink="http://www.w3.org/1999/xlink">
 <defs>
  <style type="text/css">
*{stroke-linecap:butt;stroke-linejoin:round;}
  </style>
 </defs>
 <g id="figure_1">
  <g id="patch_1">
   <path d="M 0 288 
L 432 288 
L 432 0 
L 0 0 
z
" style="fill:#ffffff;"/>
  </g>
  <g id="axes_1">
   <g id="patch_2">
    <path clip-path="url(#pdd43af1656)" d="M 194.547062 130.749014 
L 194.421243 141.620286 
L 193.334116 141.607704 
L 193.459934 130.736432 
z
" style="stroke:#000000;stroke-linejoin:miter;"/>
   </g>
   <g id="patch_3">
    <path clip-path="url(#pdd43af1656)" d="M 248.903421 131.378108 
L 248.777603 142.24938 
L 247.690475 142.236798 
L 247.816294 131.365526 
z
" style="stroke:#000000;stroke-linejoin:miter;"/>
   </g>
   <g id="patch_4">
    <path clip-path="url(#pdd43af1656)" d="M 212.122284 130.952421 
L 211.979912 130.39919 
L 211.542055 129.878618 
L 210.815611 129.424505 
L 209.812254 129.066139 
L 208.548264 128.82639 
L 207.044267 128.720222 
L 205.324909 128.753727 
L 203.418452 128.923737 
L 201.356309 129.218053 
L 199.17252 129.616257 
L 196.903184 130.091066 
L 194.585846 130.61014 
L 192.258867 131.138215 
L 189.96077 131.639435 
L 187.72959 132.079715 
L 185.602227 132.428993 
L 183.613823 132.663221 
L 181.797174 132.765951 
L 180.18218 132.729434 
L 178.795348 132.555144 
L 177.659361 132.253693 
L 176.792709 131.844153 
L 176.209394 131.352819 
L 175.91872 130.811494 
L 175.925156 130.255419 
L 176.22828 129.720967 
L 176.82281 129.243264 
L 177.698709 128.853892 
L 178.841368 128.578813 
L 180.231862 128.436666 
L 181.847269 128.437536 
L 183.661054 128.582283 
L 185.643504 128.862467 
L 187.762214 129.260888 
L 189.982607 129.752688 
L 192.268487 130.30696 
L 194.582621 130.88875 
L 196.887325 131.461317 
L 199.145065 131.98852 
L 201.319053 132.437158 
L 203.373832 132.779122 
L 205.275844 132.993209 
L 206.993966 133.066497 
L 208.500017 132.995166 
L 209.769217 132.784735 
L 210.780599 132.449687 
L 211.517359 132.012508 
L 211.967147 131.502209 
z
" style="fill:#0000ff;stroke:#000000;stroke-linejoin:miter;"/>
   </g>
   <g id="patch_5">
    <path clip-path="url(#pdd43af1656)" d="M 266.478644 131.581515 
L 266.336272 131.028283 
L 265.898415 130.507712 
L 265.171971 130.053598 
L 264.168614 129.695233 
L 262.904624 129.455484 
L 261.400627 129.349316 
L 259.681269 129.38282 
L 257.774812 129.55283 
L 255.712669 129.847146 
L 253.52888 130.24535 
L 251.259543 130.720159 
L 248.942206 131.239233 
L 246.615227 131.767309 
L 244.31713 132.268528 
L 242.08595 132.708808 
L 239.958586 133.058087 
L 237.970183 133.292314 
L 236.153534 133.395044 
L 234.53854 133.358528 
L 233.151708 133.184237 
L 232.015721 132.882786 
L 231.149068 132.473246 
L 230.565754 131.981912 
L 230.27508 131.440587 
L 230.281516 130.884512 
L 230.58464 130.35006 
L 231.17917 129.872357 
L 232.055069 129.482985 
L 233.197728 129.207906 
L 234.588222 129.065759 
L 236.203629 129.066629 
L 238.017413 129.211376 
L 239.999864 129.49156 
L 242.118574 129.889981 
L 244.338966 130.381781 
L 246.624847 130.936054 
L 248.938981 131.517843 
L 251.243685 132.09041 
L 253.501425 132.617613 
L 255.675412 133.066252 
L 257.730192 133.408215 
L 259.632203 133.622303 
L 261.350325 133.69559 
L 262.856376 133.624259 
L 264.125577 133.413828 
L 265.136959 133.07878 
L 265.873719 132.641601 
L 266.323506 132.131303 
z
" style="fill:#0000ff;stroke:#000000;stroke-linejoin:miter;"/>
   </g>
   <g id="patch_6">
    <path clip-path="url(#pdd43af1656)" d="M 253.70113 139.58818 
L 188.473498 138.833268 
L 188.410589 144.268904 
L 253.63822 145.023816 
z
" style="fill:#999999;stroke:#000000;stroke-linejoin:miter;"/>
   </g>
   <g id="text_1">
    <!-- t = 1.3 -->
    <defs>
     <path d="M 18.3125 70.21875 
L 18.3125 54.6875 
L 36.8125 54.6875 
L 36.8125 47.703125 
L 18.3125 47.703125 
L 18.3125 18.015625 
Q 18.3125 11.328125 20.140625 9.421875 
Q 21.96875 7.515625 27.59375 7.515625 
L 36.8125 7.515625 
L 36.8125 0 
L 27.59375 0 
Q 17.1875 0 13.234375 3.875 
Q 9.28125 7.765625 9.28125 18.015625 
L 9.28125 47.703125 
L 2.6875 47.703125 
L 2.6875 54.6875 
L 9.28125 54.6875 
L 9.28125 70.21875 
z
" id="DejaVuSans-116"/>
     <path id="DejaVuSans-32"/>
     <path d="M 10.59375 45.40625 
L 73.1875 45.40625 
L 73.1875 37.203125 
L 10.59375 37.203125 
z
M 10.59375 25.484375 
L 73.1875 25.484375 
L 73.1875 17.1875 
L 10.59375 17.1875 
z
" id="DejaVuSans-61"/>
     <path d="M 12.40625 8.296875 
L 28.515625 8.296875 
L 28.515625 63.921875 
L 10.984375 60.40625 
L 10.984375 69.390625 
L 28.421875 72.90625 
L 38.28125 72.90625 
L 38.28125 8.296875 
L 54.390625 8.296875 
L 54.390625 0 
L 12.40625 0 
z
" id="DejaVuSans-49"/>
     <path d="M 10.6875 12.40625 
L 21 12.40625 
L 21 0 
L 10.6875 0 
z
" id="DejaVuSans-46"/>
     <path d="M 40.578125 39.3125 
Q 47.65625 37.796875 51.625 33 
Q 55.609375 28.21875 55.609375 21.1875 
Q 55.609375 10.40625 48.1875 4.484375 
Q 40.765625 -1.421875 27.09375 -1.421875 
Q 22.515625 -1.421875 17.65625 -0.515625 
Q 12.796875 0.390625 7.625 2.203125 
L 7.625 11.71875 
Q 11.71875 9.328125 16.59375 8.109375 
Q 21.484375 6.890625 26.8125 6.890625 
Q 36.078125 6.890625 40.9375 10.546875 
Q 45.796875 14.203125 45.796875 21.1875 
Q 45.796875 27.640625 41.28125 31.265625 
Q 36.765625 34.90625 28.71875 34.90625 
L 20.21875 34.90625 
L 20.21875 43.015625 
L 29.109375 43.015625 
Q 36.375 43.015625 40.234375 45.921875 
Q 44.09375 48.828125 44.09375 54.296875 
Q 44.09375 59.90625 40.109375 62.90625 
Q 36.140625 65.921875 28.71875 65.921875 
Q 24.65625 65.921875 20.015625 65.03125 
Q 15.375 64.15625 9.8125 62.3125 
L 9.8125 71.09375 
Q 15.4375 72.65625 20.34375 73.4375 
Q 25.25 74.21875 29.59375 74.21875 
Q 40.828125 74.21875 47.359375 69.109375 
Q 53.90625 64.015625 53.90625 55.328125 
Q 53.90625 49.265625 50.4375 45.09375 
Q 46.96875 40.921875 40.578125 39.3125 
z
" id="DejaVuSans-51"/>
    </defs>
    <g transform="translate(200.664375 28.56)scale(0.12 -0.12)">
     <use xlink:href="#DejaVuSans-116"/>
     <use x="39.208984" xlink:href="#DejaVuSans-32"/>
     <use x="70.996094" xlink:href="#DejaVuSans-61"/>
     <use x="154.785156" xlink:href="#DejaVuSans-32"/>
     <use x="186.572266" xlink:href="#DejaVuSans-49"/>
     <use x="250.195312" xlink:href="#DejaVuSans-46"/>
     <use x="281.982422" xlink:href="#DejaVuSans-51"/>
    </g>
   </g>
  </g>
 </g>
 <defs>
  <clipPath id="pdd43af1656">
   <rect height="217.44" width="334.8" x="54" y="34.56"/>
  </clipPath>
 </defs>
</svg>
