<?xml version="1.0" encoding="utf-8" standalone="no"?>
<!DOCTYPE svg PUBLIC "-//W3C//DTD SVG 1.1//EN"
  "http://www.w3.org/Graphics/SVG/1.1/DTD/svg11.dtd">
<!-- Created with matplotlib (https://matplotlib.org/) -->
<svg height="288pt" version="1.1" viewBox="0 0 432 288" width="432pt" xmlns="http://www.w3.org/2000/svg" xmlns:xlink="http://www.w3.org/1999/xlink">
 <defs>
  <style type="text/css">
*{stroke-linecap:butt;stroke-linejoin:round;}
  </style>
 </defs>
 <g id="figure_1">
  <g id="patch_1">
   <path d="M 0 288 
L 432 288 
L 432 0 
L 0 0 
z
" style="fill:#ffffff;"/>
  </g>
  <g id="axes_1">
   <g id="patch_2">
    <path clip-path="url(#p6387e08f6d)" d="M 82.836772 181.412495 
L 87.698527 191.136883 
L 86.726089 191.623059 
L 81.864334 181.898671 
z
" style="stroke:#000000;stroke-linejoin:miter;"/>
   </g>
   <g id="patch_3">
    <path clip-path="url(#p6387e08f6d)" d="M 131.458712 157.10372 
L 136.320467 166.828108 
L 135.348029 167.314284 
L 130.486274 157.589896 
z
" style="stroke:#000000;stroke-linejoin:miter;"/>
   </g>
   <g id="patch_4">
    <path clip-path="url(#p6387e08f6d)" d="M 98.557866 173.552658 
L 98.178163 173.125856 
L 97.550654 172.86328 
L 96.696936 172.791829 
L 95.640789 172.932205 
L 94.407153 173.297297 
L 93.021215 173.890974 
L 91.507675 174.707376 
L 89.890218 175.73076 
L 88.191193 176.935904 
L 86.431529 178.289079 
L 84.630843 179.74951 
L 82.807724 181.271263 
L 80.980151 182.80543 
L 79.165974 184.302504 
L 77.383419 185.714775 
L 75.651545 186.998631 
L 73.9906 188.116608 
L 72.42222 189.039077 
L 70.969447 189.74547 
L 69.656526 190.224969 
L 68.508483 190.476633 
L 67.550482 190.508962 
L 66.807007 190.338932 
L 66.300881 189.990565 
L 66.052198 189.493154 
L 66.077225 188.879235 
L 66.387336 188.182459 
L 66.988054 187.4355 
L 67.878266 186.668127 
L 69.049673 185.905575 
L 70.486504 185.167296 
L 72.165558 184.466195 
L 74.056555 183.808361 
L 76.122808 183.193325 
L 78.322199 182.614803 
L 80.608404 182.06187 
L 82.932322 181.52048 
L 85.243634 180.975204 
L 87.492432 180.411076 
L 89.630814 179.815404 
L 91.614389 179.179414 
L 93.40362 178.499607 
L 94.964917 177.77873 
L 96.271476 177.02628 
L 97.303787 176.258501 
L 98.049831 175.497863 
L 98.504954 174.772051 
L 98.671446 174.11251 
z
" style="fill:#0000ff;stroke:#000000;stroke-linejoin:miter;"/>
   </g>
   <g id="patch_5">
    <path clip-path="url(#p6387e08f6d)" d="M 147.179806 149.243883 
L 146.800103 148.817081 
L 146.172594 148.554504 
L 145.318876 148.483053 
L 144.262729 148.62343 
L 143.029093 148.988522 
L 141.643155 149.582199 
L 140.129615 150.398601 
L 138.512158 151.421985 
L 136.813133 152.627129 
L 135.053469 153.980304 
L 133.252783 155.440735 
L 131.429664 156.962488 
L 129.602091 158.496655 
L 127.787914 159.993729 
L 126.005359 161.406 
L 124.273485 162.689856 
L 122.61254 163.807832 
L 121.04416 164.730302 
L 119.591387 165.436695 
L 118.278467 165.916194 
L 117.130423 166.167858 
L 116.172423 166.200187 
L 115.428947 166.030156 
L 114.922821 165.68179 
L 114.674138 165.184379 
L 114.699165 164.57046 
L 115.009276 163.873684 
L 115.609994 163.126724 
L 116.500206 162.359352 
L 117.671613 161.5968 
L 119.108444 160.858521 
L 120.787498 160.15742 
L 122.678495 159.499586 
L 124.744748 158.88455 
L 126.944139 158.306028 
L 129.230344 157.753095 
L 131.554262 157.211705 
L 133.865574 156.666429 
L 136.114372 156.102301 
L 138.252754 155.506629 
L 140.23633 154.870639 
L 142.02556 154.190832 
L 143.586857 153.469955 
L 144.893416 152.717505 
L 145.925727 151.949726 
L 146.671771 151.189088 
L 147.126894 150.463276 
L 147.293386 149.803735 
z
" style="fill:#0000ff;stroke:#000000;stroke-linejoin:miter;"/>
   </g>
   <g id="patch_6">
    <path clip-path="url(#p6387e08f6d)" d="M 139.481003 162.209221 
L 81.134675 191.379751 
L 83.565553 196.241945 
L 141.911881 167.071415 
z
" style="fill:#999999;stroke:#000000;stroke-linejoin:miter;"/>
   </g>
   <g id="text_1">
    <!-- t = 0.5 -->
    <defs>
     <path d="M 18.3125 70.21875 
L 18.3125 54.6875 
L 36.8125 54.6875 
L 36.8125 47.703125 
L 18.3125 47.703125 
L 18.3125 18.015625 
Q 18.3125 11.328125 20.140625 9.421875 
Q 21.96875 7.515625 27.59375 7.515625 
L 36.8125 7.515625 
L 36.8125 0 
L 27.59375 0 
Q 17.1875 0 13.234375 3.875 
Q 9.28125 7.765625 9.28125 18.015625 
L 9.28125 47.703125 
L 2.6875 47.703125 
L 2.6875 54.6875 
L 9.28125 54.6875 
L 9.28125 70.21875 
z
" id="DejaVuSans-116"/>
     <path id="DejaVuSans-32"/>
     <path d="M 10.59375 45.40625 
L 73.1875 45.40625 
L 73.1875 37.203125 
L 10.59375 37.203125 
z
M 10.59375 25.484375 
L 73.1875 25.484375 
L 73.1875 17.1875 
L 10.59375 17.1875 
z
" id="DejaVuSans-61"/>
     <path d="M 31.78125 66.40625 
Q 24.171875 66.40625 20.328125 58.90625 
Q 16.5 51.421875 16.5 36.375 
Q 16.5 21.390625 20.328125 13.890625 
Q 24.171875 6.390625 31.78125 6.390625 
Q 39.453125 6.390625 43.28125 13.890625 
Q 47.125 21.390625 47.125 36.375 
Q 47.125 51.421875 43.28125 58.90625 
Q 39.453125 66.40625 31.78125 66.40625 
z
M 31.78125 74.21875 
Q 44.046875 74.21875 50.515625 64.515625 
Q 56.984375 54.828125 56.984375 36.375 
Q 56.984375 17.96875 50.515625 8.265625 
Q 44.046875 -1.421875 31.78125 -1.421875 
Q 19.53125 -1.421875 13.0625 8.265625 
Q 6.59375 17.96875 6.59375 36.375 
Q 6.59375 54.828125 13.0625 64.515625 
Q 19.53125 74.21875 31.78125 74.21875 
z
" id="DejaVuSans-48"/>
     <path d="M 10.6875 12.40625 
L 21 12.40625 
L 21 0 
L 10.6875 0 
z
" id="DejaVuSans-46"/>
     <path d="M 10.796875 72.90625 
L 49.515625 72.90625 
L 49.515625 64.59375 
L 19.828125 64.59375 
L 19.828125 46.734375 
Q 21.96875 47.46875 24.109375 47.828125 
Q 26.265625 48.1875 28.421875 48.1875 
Q 40.625 48.1875 47.75 41.5 
Q 54.890625 34.8125 54.890625 23.390625 
Q 54.890625 11.625 47.5625 5.09375 
Q 40.234375 -1.421875 26.90625 -1.421875 
Q 22.3125 -1.421875 17.546875 -0.640625 
Q 12.796875 0.140625 7.71875 1.703125 
L 7.71875 11.625 
Q 12.109375 9.234375 16.796875 8.0625 
Q 21.484375 6.890625 26.703125 6.890625 
Q 35.15625 6.890625 40.078125 11.328125 
Q 45.015625 15.765625 45.015625 23.390625 
Q 45.015625 31 40.078125 35.4375 
Q 35.15625 39.890625 26.703125 39.890625 
Q 22.75 39.890625 18.8125 39.015625 
Q 14.890625 38.140625 10.796875 36.28125 
z
" id="DejaVuSans-53"/>
    </defs>
    <g transform="translate(200.664375 28.56)scale(0.12 -0.12)">
     <use xlink:href="#DejaVuSans-116"/>
     <use x="39.208984" xlink:href="#DejaVuSans-32"/>
     <use x="70.996094" xlink:href="#DejaVuSans-61"/>
     <use x="154.785156" xlink:href="#DejaVuSans-32"/>
     <use x="186.572266" xlink:href="#DejaVuSans-48"/>
     <use x="250.195312" xlink:href="#DejaVuSans-46"/>
     <use x="281.982422" xlink:href="#DejaVuSans-53"/>
    </g>
   </g>
  </g>
 </g>
 <defs>
  <clipPath id="p6387e08f6d">
   <rect height="217.44" width="334.8" x="54" y="34.56"/>
  </clipPath>
 </defs>
</svg>
