<?xml version="1.0" encoding="utf-8" standalone="no"?>
<!DOCTYPE svg PUBLIC "-//W3C//DTD SVG 1.1//EN"
  "http://www.w3.org/Graphics/SVG/1.1/DTD/svg11.dtd">
<!-- Created with matplotlib (https://matplotlib.org/) -->
<svg height="288pt" version="1.1" viewBox="0 0 432 288" width="432pt" xmlns="http://www.w3.org/2000/svg" xmlns:xlink="http://www.w3.org/1999/xlink">
 <defs>
  <style type="text/css">
*{stroke-linecap:butt;stroke-linejoin:round;}
  </style>
 </defs>
 <g id="figure_1">
  <g id="patch_1">
   <path d="M 0 288 
L 432 288 
L 432 0 
L 0 0 
z
" style="fill:#ffffff;"/>
  </g>
  <g id="axes_1">
   <g id="patch_2">
    <path clip-path="url(#pe676fff52e)" d="M 205.681693 114.447645 
L 204.155719 125.212021 
L 203.079281 125.059423 
L 204.605256 114.295047 
z
" style="stroke:#000000;stroke-linejoin:miter;"/>
   </g>
   <g id="patch_3">
    <path clip-path="url(#pe676fff52e)" d="M 259.503572 122.077516 
L 257.977598 132.841892 
L 256.90116 132.689295 
L 258.427135 121.924919 
z
" style="stroke:#000000;stroke-linejoin:miter;"/>
   </g>
   <g id="patch_4">
    <path clip-path="url(#pe676fff52e)" d="M 223.084101 116.914637 
L 223.014222 116.34767 
L 222.647115 115.775004 
L 221.98526 115.231047 
L 221.036463 114.746347 
L 219.813917 114.345682 
L 218.33615 114.046548 
L 216.626815 113.858164 
L 214.714347 113.781031 
L 212.63147 113.807102 
L 210.414572 113.920514 
L 208.102966 114.098866 
L 205.738054 114.314927 
L 203.362421 114.538672 
L 201.01889 114.739508 
L 198.749573 114.888537 
L 196.594935 114.960705 
L 194.592927 114.936693 
L 192.778191 114.804417 
L 191.181374 114.560047 
L 189.828575 114.208461 
L 188.740918 113.763106 
L 187.93428 113.245279 
L 187.419159 112.682859 
L 187.200682 112.108585 
L 187.278736 111.557978 
L 187.648218 111.067053 
L 188.29936 110.669964 
L 189.21814 110.396735 
L 190.386723 110.271228 
L 191.78394 110.309489 
L 193.38576 110.518563 
L 195.165759 110.895882 
L 197.09556 111.429248 
L 199.145245 112.097428 
L 201.283729 112.871313 
L 203.479102 113.715591 
L 205.698946 114.590798 
L 207.910627 115.455644 
L 210.081583 116.269451 
L 212.179612 116.994554 
L 214.173176 117.598507 
L 216.031729 118.05596 
L 217.726074 118.350086 
L 219.228756 118.473466 
L 220.514492 118.428378 
L 221.560623 118.226482 
L 222.347586 117.887912 
L 222.859394 117.439843 
z
" style="fill:#0000ff;stroke:#000000;stroke-linejoin:miter;"/>
   </g>
   <g id="patch_5">
    <path clip-path="url(#pe676fff52e)" d="M 276.90598 124.544508 
L 276.836101 123.977541 
L 276.468994 123.404876 
L 275.807139 122.860919 
L 274.858342 122.376219 
L 273.635796 121.975553 
L 272.158029 121.67642 
L 270.448694 121.488035 
L 268.536226 121.410903 
L 266.453349 121.436973 
L 264.236451 121.550385 
L 261.924845 121.728738 
L 259.559933 121.944799 
L 257.1843 122.168544 
L 254.840769 122.36938 
L 252.571452 122.518409 
L 250.416814 122.590577 
L 248.414806 122.566564 
L 246.60007 122.434288 
L 245.003253 122.189919 
L 243.650454 121.838332 
L 242.562797 121.392978 
L 241.756159 120.875151 
L 241.241038 120.312731 
L 241.022561 119.738456 
L 241.100615 119.187849 
L 241.470097 118.696925 
L 242.121239 118.299836 
L 243.040019 118.026607 
L 244.208602 117.9011 
L 245.605819 117.93936 
L 247.207639 118.148434 
L 248.987638 118.525753 
L 250.917439 119.05912 
L 252.967124 119.727299 
L 255.105608 120.501185 
L 257.300981 121.345463 
L 259.520825 122.220669 
L 261.732506 123.085515 
L 263.903462 123.899323 
L 266.001491 124.624425 
L 267.995055 125.228378 
L 269.853608 125.685831 
L 271.547953 125.979958 
L 273.050635 126.103338 
L 274.336371 126.05825 
L 275.382502 125.856354 
L 276.169465 125.517783 
L 276.681273 125.069714 
z
" style="fill:#0000ff;stroke:#000000;stroke-linejoin:miter;"/>
   </g>
   <g id="patch_6">
    <path clip-path="url(#pe676fff52e)" d="M 263.203061 130.837487 
L 198.616806 121.681641 
L 197.853819 127.063829 
L 262.440073 136.219675 
z
" style="fill:#999999;stroke:#000000;stroke-linejoin:miter;"/>
   </g>
   <g id="text_1">
    <!-- t = 0.6 -->
    <defs>
     <path d="M 18.3125 70.21875 
L 18.3125 54.6875 
L 36.8125 54.6875 
L 36.8125 47.703125 
L 18.3125 47.703125 
L 18.3125 18.015625 
Q 18.3125 11.328125 20.140625 9.421875 
Q 21.96875 7.515625 27.59375 7.515625 
L 36.8125 7.515625 
L 36.8125 0 
L 27.59375 0 
Q 17.1875 0 13.234375 3.875 
Q 9.28125 7.765625 9.28125 18.015625 
L 9.28125 47.703125 
L 2.6875 47.703125 
L 2.6875 54.6875 
L 9.28125 54.6875 
L 9.28125 70.21875 
z
" id="DejaVuSans-116"/>
     <path id="DejaVuSans-32"/>
     <path d="M 10.59375 45.40625 
L 73.1875 45.40625 
L 73.1875 37.203125 
L 10.59375 37.203125 
z
M 10.59375 25.484375 
L 73.1875 25.484375 
L 73.1875 17.1875 
L 10.59375 17.1875 
z
" id="DejaVuSans-61"/>
     <path d="M 31.78125 66.40625 
Q 24.171875 66.40625 20.328125 58.90625 
Q 16.5 51.421875 16.5 36.375 
Q 16.5 21.390625 20.328125 13.890625 
Q 24.171875 6.390625 31.78125 6.390625 
Q 39.453125 6.390625 43.28125 13.890625 
Q 47.125 21.390625 47.125 36.375 
Q 47.125 51.421875 43.28125 58.90625 
Q 39.453125 66.40625 31.78125 66.40625 
z
M 31.78125 74.21875 
Q 44.046875 74.21875 50.515625 64.515625 
Q 56.984375 54.828125 56.984375 36.375 
Q 56.984375 17.96875 50.515625 8.265625 
Q 44.046875 -1.421875 31.78125 -1.421875 
Q 19.53125 -1.421875 13.0625 8.265625 
Q 6.59375 17.96875 6.59375 36.375 
Q 6.59375 54.828125 13.0625 64.515625 
Q 19.53125 74.21875 31.78125 74.21875 
z
" id="DejaVuSans-48"/>
     <path d="M 10.6875 12.40625 
L 21 12.40625 
L 21 0 
L 10.6875 0 
z
" id="DejaVuSans-46"/>
     <path d="M 33.015625 40.375 
Q 26.375 40.375 22.484375 35.828125 
Q 18.609375 31.296875 18.609375 23.390625 
Q 18.609375 15.53125 22.484375 10.953125 
Q 26.375 6.390625 33.015625 6.390625 
Q 39.65625 6.390625 43.53125 10.953125 
Q 47.40625 15.53125 47.40625 23.390625 
Q 47.40625 31.296875 43.53125 35.828125 
Q 39.65625 40.375 33.015625 40.375 
z
M 52.59375 71.296875 
L 52.59375 62.3125 
Q 48.875 64.0625 45.09375 64.984375 
Q 41.3125 65.921875 37.59375 65.921875 
Q 27.828125 65.921875 22.671875 59.328125 
Q 17.53125 52.734375 16.796875 39.40625 
Q 19.671875 43.65625 24.015625 45.921875 
Q 28.375 48.1875 33.59375 48.1875 
Q 44.578125 48.1875 50.953125 41.515625 
Q 57.328125 34.859375 57.328125 23.390625 
Q 57.328125 12.15625 50.6875 5.359375 
Q 44.046875 -1.421875 33.015625 -1.421875 
Q 20.359375 -1.421875 13.671875 8.265625 
Q 6.984375 17.96875 6.984375 36.375 
Q 6.984375 53.65625 15.1875 63.9375 
Q 23.390625 74.21875 37.203125 74.21875 
Q 40.921875 74.21875 44.703125 73.484375 
Q 48.484375 72.75 52.59375 71.296875 
z
" id="DejaVuSans-54"/>
    </defs>
    <g transform="translate(200.664375 28.56)scale(0.12 -0.12)">
     <use xlink:href="#DejaVuSans-116"/>
     <use x="39.208984" xlink:href="#DejaVuSans-32"/>
     <use x="70.996094" xlink:href="#DejaVuSans-61"/>
     <use x="154.785156" xlink:href="#DejaVuSans-32"/>
     <use x="186.572266" xlink:href="#DejaVuSans-48"/>
     <use x="250.195312" xlink:href="#DejaVuSans-46"/>
     <use x="281.982422" xlink:href="#DejaVuSans-54"/>
    </g>
   </g>
  </g>
 </g>
 <defs>
  <clipPath id="pe676fff52e">
   <rect height="217.44" width="334.8" x="54" y="34.56"/>
  </clipPath>
 </defs>
</svg>
