<?xml version="1.0" encoding="utf-8" standalone="no"?>
<!DOCTYPE svg PUBLIC "-//W3C//DTD SVG 1.1//EN"
  "http://www.w3.org/Graphics/SVG/1.1/DTD/svg11.dtd">
<!-- Created with matplotlib (https://matplotlib.org/) -->
<svg height="288pt" version="1.1" viewBox="0 0 432 288" width="432pt" xmlns="http://www.w3.org/2000/svg" xmlns:xlink="http://www.w3.org/1999/xlink">
 <defs>
  <style type="text/css">
*{stroke-linecap:butt;stroke-linejoin:round;}
  </style>
 </defs>
 <g id="figure_1">
  <g id="patch_1">
   <path d="M 0 288 
L 432 288 
L 432 0 
L 0 0 
z
" style="fill:#ffffff;"/>
  </g>
  <g id="axes_1">
   <g id="patch_2">
    <path clip-path="url(#p3fbab178d3)" d="M 194.69336 132.400451 
L 194.699491 143.27245 
L 193.612291 143.273063 
L 193.60616 132.401064 
z
" style="stroke:#000000;stroke-linejoin:miter;"/>
   </g>
   <g id="patch_3">
    <path clip-path="url(#p3fbab178d3)" d="M 249.053352 132.369798 
L 249.059482 143.241796 
L 247.972282 143.242409 
L 247.966152 132.370411 
z
" style="stroke:#000000;stroke-linejoin:miter;"/>
   </g>
   <g id="patch_4">
    <path clip-path="url(#p3fbab178d3)" d="M 212.269758 132.39054 
L 212.120682 131.839077 
L 211.676539 131.323858 
L 210.944636 130.878595 
L 209.937004 130.532433 
L 208.670197 130.308042 
L 207.165023 130.220135 
L 205.446198 130.274504 
L 203.541945 130.46764 
L 201.483526 130.786962 
L 199.304731 131.21164 
L 197.041324 131.713956 
L 194.730456 132.261116 
L 192.410058 132.817394 
L 190.118214 133.346468 
L 187.892541 133.813794 
L 185.769574 134.188866 
L 183.784159 134.447209 
L 181.968891 134.571979 
L 180.353572 134.555066 
L 178.964728 134.39762 
L 177.825166 134.109978 
L 176.953606 133.710986 
L 176.364371 133.226768 
L 176.06715 132.689011 
L 176.066836 132.132898 
L 176.363451 131.594807 
L 176.95214 131.109924 
L 177.823248 130.70995 
L 178.962485 130.421023 
L 180.351151 130.26201 
L 181.96645 130.243275 
L 183.781857 130.365998 
L 185.767562 130.622102 
L 187.890952 130.994779 
L 190.11715 131.459595 
L 192.409589 131.986084 
L 194.730613 132.539745 
L 197.042096 133.084298 
L 199.306068 133.584061 
L 201.485341 134.006282 
L 203.544119 134.323282 
L 205.448589 134.51427 
L 207.167474 134.5667 
L 208.672548 134.477096 
L 209.939101 134.251277 
L 210.946342 133.903979 
L 211.677742 133.45789 
L 212.121304 132.94217 
z
" style="fill:#0000ff;stroke:#000000;stroke-linejoin:miter;"/>
   </g>
   <g id="patch_5">
    <path clip-path="url(#p3fbab178d3)" d="M 266.629749 132.359887 
L 266.480673 131.808424 
L 266.03653 131.293205 
L 265.304628 130.847942 
L 264.296996 130.50178 
L 263.030189 130.277389 
L 261.525014 130.189482 
L 259.80619 130.243851 
L 257.901937 130.436987 
L 255.843517 130.756308 
L 253.664722 131.180986 
L 251.401315 131.683303 
L 249.090448 132.230463 
L 246.770049 132.786741 
L 244.478205 133.315815 
L 242.252533 133.783141 
L 240.129565 134.158213 
L 238.14415 134.416556 
L 236.328882 134.541326 
L 234.713564 134.524413 
L 233.324719 134.366966 
L 232.185157 134.079325 
L 231.313598 133.680333 
L 230.724363 133.196114 
L 230.427141 132.658357 
L 230.426827 132.102245 
L 230.723443 131.564153 
L 231.312131 131.07927 
L 232.18324 130.679296 
L 233.322477 130.390369 
L 234.711143 130.231357 
L 236.326441 130.212622 
L 238.141849 130.335345 
L 240.127554 130.591448 
L 242.250943 130.964126 
L 244.477141 131.428942 
L 246.76958 131.95543 
L 249.090605 132.509091 
L 251.402088 133.053645 
L 253.66606 133.553408 
L 255.845332 133.975629 
L 257.904111 134.292629 
L 259.808581 134.483617 
L 261.527465 134.536047 
L 263.03254 134.446443 
L 264.299093 134.220624 
L 265.306334 133.873325 
L 266.037734 133.427237 
L 266.481295 132.911517 
z
" style="fill:#0000ff;stroke:#000000;stroke-linejoin:miter;"/>
   </g>
   <g id="patch_6">
    <path clip-path="url(#p3fbab178d3)" d="M 253.950349 140.521038 
L 188.718359 140.557822 
L 188.721425 145.993821 
L 253.953414 145.957037 
z
" style="fill:#999999;stroke:#000000;stroke-linejoin:miter;"/>
   </g>
   <g id="text_1">
    <!-- t = 2.4 -->
    <defs>
     <path d="M 18.3125 70.21875 
L 18.3125 54.6875 
L 36.8125 54.6875 
L 36.8125 47.703125 
L 18.3125 47.703125 
L 18.3125 18.015625 
Q 18.3125 11.328125 20.140625 9.421875 
Q 21.96875 7.515625 27.59375 7.515625 
L 36.8125 7.515625 
L 36.8125 0 
L 27.59375 0 
Q 17.1875 0 13.234375 3.875 
Q 9.28125 7.765625 9.28125 18.015625 
L 9.28125 47.703125 
L 2.6875 47.703125 
L 2.6875 54.6875 
L 9.28125 54.6875 
L 9.28125 70.21875 
z
" id="DejaVuSans-116"/>
     <path id="DejaVuSans-32"/>
     <path d="M 10.59375 45.40625 
L 73.1875 45.40625 
L 73.1875 37.203125 
L 10.59375 37.203125 
z
M 10.59375 25.484375 
L 73.1875 25.484375 
L 73.1875 17.1875 
L 10.59375 17.1875 
z
" id="DejaVuSans-61"/>
     <path d="M 19.1875 8.296875 
L 53.609375 8.296875 
L 53.609375 0 
L 7.328125 0 
L 7.328125 8.296875 
Q 12.9375 14.109375 22.625 23.890625 
Q 32.328125 33.6875 34.8125 36.53125 
Q 39.546875 41.84375 41.421875 45.53125 
Q 43.3125 49.21875 43.3125 52.78125 
Q 43.3125 58.59375 39.234375 62.25 
Q 35.15625 65.921875 28.609375 65.921875 
Q 23.96875 65.921875 18.8125 64.3125 
Q 13.671875 62.703125 7.8125 59.421875 
L 7.8125 69.390625 
Q 13.765625 71.78125 18.9375 73 
Q 24.125 74.21875 28.421875 74.21875 
Q 39.75 74.21875 46.484375 68.546875 
Q 53.21875 62.890625 53.21875 53.421875 
Q 53.21875 48.921875 51.53125 44.890625 
Q 49.859375 40.875 45.40625 35.40625 
Q 44.1875 33.984375 37.640625 27.21875 
Q 31.109375 20.453125 19.1875 8.296875 
z
" id="DejaVuSans-50"/>
     <path d="M 10.6875 12.40625 
L 21 12.40625 
L 21 0 
L 10.6875 0 
z
" id="DejaVuSans-46"/>
     <path d="M 37.796875 64.3125 
L 12.890625 25.390625 
L 37.796875 25.390625 
z
M 35.203125 72.90625 
L 47.609375 72.90625 
L 47.609375 25.390625 
L 58.015625 25.390625 
L 58.015625 17.1875 
L 47.609375 17.1875 
L 47.609375 0 
L 37.796875 0 
L 37.796875 17.1875 
L 4.890625 17.1875 
L 4.890625 26.703125 
z
" id="DejaVuSans-52"/>
    </defs>
    <g transform="translate(200.664375 28.56)scale(0.12 -0.12)">
     <use xlink:href="#DejaVuSans-116"/>
     <use x="39.208984" xlink:href="#DejaVuSans-32"/>
     <use x="70.996094" xlink:href="#DejaVuSans-61"/>
     <use x="154.785156" xlink:href="#DejaVuSans-32"/>
     <use x="186.572266" xlink:href="#DejaVuSans-50"/>
     <use x="250.195312" xlink:href="#DejaVuSans-46"/>
     <use x="281.982422" xlink:href="#DejaVuSans-52"/>
    </g>
   </g>
  </g>
 </g>
 <defs>
  <clipPath id="p3fbab178d3">
   <rect height="217.44" width="334.8" x="54" y="34.56"/>
  </clipPath>
 </defs>
</svg>
