<?xml version="1.0" encoding="utf-8" standalone="no"?>
<!DOCTYPE svg PUBLIC "-//W3C//DTD SVG 1.1//EN"
  "http://www.w3.org/Graphics/SVG/1.1/DTD/svg11.dtd">
<!-- Created with matplotlib (https://matplotlib.org/) -->
<svg height="288pt" version="1.1" viewBox="0 0 432 288" width="432pt" xmlns="http://www.w3.org/2000/svg" xmlns:xlink="http://www.w3.org/1999/xlink">
 <defs>
  <style type="text/css">
*{stroke-linecap:butt;stroke-linejoin:round;}
  </style>
 </defs>
 <g id="figure_1">
  <g id="patch_1">
   <path d="M 0 288 
L 432 288 
L 432 0 
L 0 0 
z
" style="fill:#ffffff;"/>
  </g>
  <g id="axes_1">
   <g id="patch_2">
    <path clip-path="url(#p21f69f2a3a)" d="M 147.817081 185.185919 
L 150.811759 195.637344 
L 149.766617 195.936812 
L 146.771938 185.485387 
z
" style="stroke:#000000;stroke-linejoin:miter;"/>
   </g>
   <g id="patch_3">
    <path clip-path="url(#p21f69f2a3a)" d="M 200.074206 170.212527 
L 203.068885 180.663952 
L 202.023742 180.963419 
L 199.029064 170.511994 
z
" style="stroke:#000000;stroke-linejoin:miter;"/>
   </g>
   <g id="patch_4">
    <path clip-path="url(#p21f69f2a3a)" d="M 164.713551 180.344522 
L 164.418619 179.855289 
L 163.849951 179.482018 
L 163.023842 179.255115 
L 161.959871 179.199295 
L 160.680187 179.331804 
L 159.208839 179.661066 
L 157.571185 180.185856 
L 155.793395 180.895042 
L 153.902069 181.767934 
L 151.923967 182.775215 
L 149.885857 183.880403 
L 147.814444 185.041754 
L 145.736372 186.214492 
L 143.678277 187.353225 
L 141.666829 188.414397 
L 139.728766 189.358636 
L 137.890868 190.152828 
L 136.179841 190.77182 
L 134.622109 191.19962 
L 133.243492 191.430043 
L 132.068762 191.466757 
L 131.121098 191.322736 
L 130.421451 191.019158 
L 129.987847 190.583828 
L 129.834667 190.049229 
L 129.971929 189.450328 
L 130.404638 188.822293 
L 131.132229 188.198256 
L 132.148144 187.607277 
L 133.439592 187.072638 
L 134.987504 186.610568 
L 136.766704 186.229495 
L 138.746306 185.929848 
L 140.890334 185.704433 
L 143.15854 185.539343 
L 145.507389 185.41534 
L 147.891191 185.309604 
L 150.263316 185.197735 
L 152.577448 185.055862 
L 154.788827 184.862718 
L 156.855427 184.601533 
L 158.739024 184.261611 
L 160.406095 183.839488 
L 161.828547 183.339582 
L 162.984222 182.774279 
L 163.85718 182.163465 
L 164.437768 181.533497 
L 164.722464 180.91571 
z
" style="fill:#0000ff;stroke:#000000;stroke-linejoin:miter;"/>
   </g>
   <g id="patch_5">
    <path clip-path="url(#p21f69f2a3a)" d="M 216.970676 165.37113 
L 216.675744 164.881896 
L 216.107076 164.508626 
L 215.280967 164.281723 
L 214.216996 164.225903 
L 212.937312 164.358411 
L 211.465964 164.687674 
L 209.828311 165.212464 
L 208.050521 165.92165 
L 206.159194 166.794542 
L 204.181092 167.801823 
L 202.142982 168.907011 
L 200.071569 170.068362 
L 197.993497 171.2411 
L 195.935402 172.379832 
L 193.923954 173.441005 
L 191.985891 174.385243 
L 190.147993 175.179436 
L 188.436966 175.798428 
L 186.879234 176.226228 
L 185.500618 176.456651 
L 184.325887 176.493365 
L 183.378223 176.349343 
L 182.678576 176.045766 
L 182.244973 175.610436 
L 182.091792 175.075837 
L 182.229054 174.476936 
L 182.661763 173.8489 
L 183.389354 173.224863 
L 184.405269 172.633885 
L 185.696717 172.099246 
L 187.244629 171.637176 
L 189.023829 171.256103 
L 191.003431 170.956456 
L 193.147459 170.731041 
L 195.415665 170.565951 
L 197.764514 170.441948 
L 200.148317 170.336212 
L 202.520442 170.224343 
L 204.834573 170.08247 
L 207.045952 169.889326 
L 209.112553 169.628141 
L 210.996149 169.288219 
L 212.66322 168.866096 
L 214.085672 168.366189 
L 215.241347 167.800887 
L 216.114306 167.190073 
L 216.694893 166.560105 
L 216.979589 165.942317 
z
" style="fill:#0000ff;stroke:#000000;stroke-linejoin:miter;"/>
   </g>
   <g id="patch_6">
    <path clip-path="url(#p21f69f2a3a)" d="M 207.023356 176.70349 
L 144.314806 194.671561 
L 145.812145 199.897273 
L 208.520695 181.929203 
z
" style="fill:#999999;stroke:#000000;stroke-linejoin:miter;"/>
   </g>
   <g id="text_1">
    <!-- t = 0.4 -->
    <defs>
     <path d="M 18.3125 70.21875 
L 18.3125 54.6875 
L 36.8125 54.6875 
L 36.8125 47.703125 
L 18.3125 47.703125 
L 18.3125 18.015625 
Q 18.3125 11.328125 20.140625 9.421875 
Q 21.96875 7.515625 27.59375 7.515625 
L 36.8125 7.515625 
L 36.8125 0 
L 27.59375 0 
Q 17.1875 0 13.234375 3.875 
Q 9.28125 7.765625 9.28125 18.015625 
L 9.28125 47.703125 
L 2.6875 47.703125 
L 2.6875 54.6875 
L 9.28125 54.6875 
L 9.28125 70.21875 
z
" id="DejaVuSans-116"/>
     <path id="DejaVuSans-32"/>
     <path d="M 10.59375 45.40625 
L 73.1875 45.40625 
L 73.1875 37.203125 
L 10.59375 37.203125 
z
M 10.59375 25.484375 
L 73.1875 25.484375 
L 73.1875 17.1875 
L 10.59375 17.1875 
z
" id="DejaVuSans-61"/>
     <path d="M 31.78125 66.40625 
Q 24.171875 66.40625 20.328125 58.90625 
Q 16.5 51.421875 16.5 36.375 
Q 16.5 21.390625 20.328125 13.890625 
Q 24.171875 6.390625 31.78125 6.390625 
Q 39.453125 6.390625 43.28125 13.890625 
Q 47.125 21.390625 47.125 36.375 
Q 47.125 51.421875 43.28125 58.90625 
Q 39.453125 66.40625 31.78125 66.40625 
z
M 31.78125 74.21875 
Q 44.046875 74.21875 50.515625 64.515625 
Q 56.984375 54.828125 56.984375 36.375 
Q 56.984375 17.96875 50.515625 8.265625 
Q 44.046875 -1.421875 31.78125 -1.421875 
Q 19.53125 -1.421875 13.0625 8.265625 
Q 6.59375 17.96875 6.59375 36.375 
Q 6.59375 54.828125 13.0625 64.515625 
Q 19.53125 74.21875 31.78125 74.21875 
z
" id="DejaVuSans-48"/>
     <path d="M 10.6875 12.40625 
L 21 12.40625 
L 21 0 
L 10.6875 0 
z
" id="DejaVuSans-46"/>
     <path d="M 37.796875 64.3125 
L 12.890625 25.390625 
L 37.796875 25.390625 
z
M 35.203125 72.90625 
L 47.609375 72.90625 
L 47.609375 25.390625 
L 58.015625 25.390625 
L 58.015625 17.1875 
L 47.609375 17.1875 
L 47.609375 0 
L 37.796875 0 
L 37.796875 17.1875 
L 4.890625 17.1875 
L 4.890625 26.703125 
z
" id="DejaVuSans-52"/>
    </defs>
    <g transform="translate(200.664375 28.56)scale(0.12 -0.12)">
     <use xlink:href="#DejaVuSans-116"/>
     <use x="39.208984" xlink:href="#DejaVuSans-32"/>
     <use x="70.996094" xlink:href="#DejaVuSans-61"/>
     <use x="154.785156" xlink:href="#DejaVuSans-32"/>
     <use x="186.572266" xlink:href="#DejaVuSans-48"/>
     <use x="250.195312" xlink:href="#DejaVuSans-46"/>
     <use x="281.982422" xlink:href="#DejaVuSans-52"/>
    </g>
   </g>
  </g>
 </g>
 <defs>
  <clipPath id="p21f69f2a3a">
   <rect height="217.44" width="334.8" x="54" y="34.56"/>
  </clipPath>
 </defs>
</svg>
