<?xml version="1.0" encoding="utf-8" standalone="no"?>
<!DOCTYPE svg PUBLIC "-//W3C//DTD SVG 1.1//EN"
  "http://www.w3.org/Graphics/SVG/1.1/DTD/svg11.dtd">
<!-- Created with matplotlib (https://matplotlib.org/) -->
<svg height="288pt" version="1.1" viewBox="0 0 432 288" width="432pt" xmlns="http://www.w3.org/2000/svg" xmlns:xlink="http://www.w3.org/1999/xlink">
 <defs>
  <style type="text/css">
*{stroke-linecap:butt;stroke-linejoin:round;}
  </style>
 </defs>
 <g id="figure_1">
  <g id="patch_1">
   <path d="M 0 288 
L 432 288 
L 432 0 
L 0 0 
z
" style="fill:#ffffff;"/>
  </g>
  <g id="axes_1">
   <g id="patch_2">
    <path clip-path="url(#p1cb0278aff)" d="M 195.042085 132.386096 
L 195.012486 143.258055 
L 193.92529 143.255095 
L 193.954889 132.383136 
z
" style="stroke:#000000;stroke-linejoin:miter;"/>
   </g>
   <g id="patch_3">
    <path clip-path="url(#p1cb0278aff)" d="M 249.401884 132.53409 
L 249.372285 143.40605 
L 248.285089 143.40309 
L 248.314688 132.53113 
z
" style="stroke:#000000;stroke-linejoin:miter;"/>
   </g>
   <g id="patch_4">
    <path clip-path="url(#p1cb0278aff)" d="M 212.61842 132.433947 
L 212.471157 131.881998 
L 212.02871 131.365322 
L 211.298275 130.917655 
L 210.291786 130.568184 
L 209.025723 130.339631 
L 207.520846 130.246778 
L 205.801852 130.295498 
L 203.896974 130.482374 
L 201.837517 130.79493 
L 199.657338 131.212445 
L 197.392292 131.70732 
L 195.079639 132.246883 
L 192.757425 132.795533 
L 190.463854 133.317072 
L 188.236658 133.777081 
L 186.112469 134.145174 
L 184.126216 134.39699 
L 182.310548 134.515794 
L 180.695294 134.493572 
L 179.306974 134.331563 
L 178.168364 134.040178 
L 177.29812 133.638324 
L 176.71048 133.152171 
L 176.415027 132.613441 
L 176.416541 132.05733 
L 176.714923 131.520216 
L 177.305202 131.037271 
L 178.17762 130.640161 
L 179.3178 130.35498 
L 180.706982 130.200532 
L 182.322333 130.187106 
L 184.137327 130.315794 
L 186.12218 130.578422 
L 188.244333 130.958076 
L 190.468991 131.430205 
L 192.759688 131.964225 
L 195.078881 132.525511 
L 197.388561 133.077658 
L 199.650879 133.584859 
L 201.828752 134.014239 
L 203.886477 134.338003 
L 205.790309 134.535249 
L 207.509013 134.593328 
L 209.014373 134.50867 
L 210.281662 134.287015 
L 211.290038 133.943028 
L 212.0229 133.499346 
L 212.468154 132.985087 
z
" style="fill:#0000ff;stroke:#000000;stroke-linejoin:miter;"/>
   </g>
   <g id="patch_5">
    <path clip-path="url(#p1cb0278aff)" d="M 266.978219 132.581942 
L 266.830956 132.029993 
L 266.388509 131.513316 
L 265.658074 131.06565 
L 264.651585 130.716178 
L 263.385522 130.487626 
L 261.880645 130.394773 
L 260.161651 130.443493 
L 258.256773 130.630369 
L 256.197315 130.942925 
L 254.017136 131.36044 
L 251.752091 131.855315 
L 249.439438 132.394878 
L 247.117224 132.943527 
L 244.823653 133.465066 
L 242.596457 133.925076 
L 240.472268 134.293169 
L 238.486015 134.544985 
L 236.670346 134.663789 
L 235.055092 134.641567 
L 233.666773 134.479558 
L 232.528162 134.188172 
L 231.657919 133.786319 
L 231.070278 133.300166 
L 230.774825 132.761435 
L 230.776339 132.205325 
L 231.074721 131.668211 
L 231.665 131.185265 
L 232.537419 130.788156 
L 233.677599 130.502975 
L 235.06678 130.348527 
L 236.682131 130.3351 
L 238.497126 130.463789 
L 240.481978 130.726417 
L 242.604132 131.10607 
L 244.82879 131.5782 
L 247.119487 132.11222 
L 249.438679 132.673505 
L 251.74836 133.225653 
L 254.010677 133.732853 
L 256.188551 134.162234 
L 258.246276 134.485998 
L 260.150108 134.683244 
L 261.868811 134.741323 
L 263.374172 134.656665 
L 264.64146 134.43501 
L 265.649837 134.091023 
L 266.382699 133.647341 
L 266.827953 133.133081 
z
" style="fill:#0000ff;stroke:#000000;stroke-linejoin:miter;"/>
   </g>
   <g id="patch_6">
    <path clip-path="url(#p1cb0278aff)" d="M 254.272067 140.70138 
L 189.040308 140.523786 
L 189.025509 145.959766 
L 254.257267 146.13736 
z
" style="fill:#999999;stroke:#000000;stroke-linejoin:miter;"/>
   </g>
   <g id="text_1">
    <!-- t = 2.4 -->
    <defs>
     <path d="M 18.3125 70.21875 
L 18.3125 54.6875 
L 36.8125 54.6875 
L 36.8125 47.703125 
L 18.3125 47.703125 
L 18.3125 18.015625 
Q 18.3125 11.328125 20.140625 9.421875 
Q 21.96875 7.515625 27.59375 7.515625 
L 36.8125 7.515625 
L 36.8125 0 
L 27.59375 0 
Q 17.1875 0 13.234375 3.875 
Q 9.28125 7.765625 9.28125 18.015625 
L 9.28125 47.703125 
L 2.6875 47.703125 
L 2.6875 54.6875 
L 9.28125 54.6875 
L 9.28125 70.21875 
z
" id="DejaVuSans-116"/>
     <path id="DejaVuSans-32"/>
     <path d="M 10.59375 45.40625 
L 73.1875 45.40625 
L 73.1875 37.203125 
L 10.59375 37.203125 
z
M 10.59375 25.484375 
L 73.1875 25.484375 
L 73.1875 17.1875 
L 10.59375 17.1875 
z
" id="DejaVuSans-61"/>
     <path d="M 19.1875 8.296875 
L 53.609375 8.296875 
L 53.609375 0 
L 7.328125 0 
L 7.328125 8.296875 
Q 12.9375 14.109375 22.625 23.890625 
Q 32.328125 33.6875 34.8125 36.53125 
Q 39.546875 41.84375 41.421875 45.53125 
Q 43.3125 49.21875 43.3125 52.78125 
Q 43.3125 58.59375 39.234375 62.25 
Q 35.15625 65.921875 28.609375 65.921875 
Q 23.96875 65.921875 18.8125 64.3125 
Q 13.671875 62.703125 7.8125 59.421875 
L 7.8125 69.390625 
Q 13.765625 71.78125 18.9375 73 
Q 24.125 74.21875 28.421875 74.21875 
Q 39.75 74.21875 46.484375 68.546875 
Q 53.21875 62.890625 53.21875 53.421875 
Q 53.21875 48.921875 51.53125 44.890625 
Q 49.859375 40.875 45.40625 35.40625 
Q 44.1875 33.984375 37.640625 27.21875 
Q 31.109375 20.453125 19.1875 8.296875 
z
" id="DejaVuSans-50"/>
     <path d="M 10.6875 12.40625 
L 21 12.40625 
L 21 0 
L 10.6875 0 
z
" id="DejaVuSans-46"/>
     <path d="M 37.796875 64.3125 
L 12.890625 25.390625 
L 37.796875 25.390625 
z
M 35.203125 72.90625 
L 47.609375 72.90625 
L 47.609375 25.390625 
L 58.015625 25.390625 
L 58.015625 17.1875 
L 47.609375 17.1875 
L 47.609375 0 
L 37.796875 0 
L 37.796875 17.1875 
L 4.890625 17.1875 
L 4.890625 26.703125 
z
" id="DejaVuSans-52"/>
    </defs>
    <g transform="translate(200.664375 28.56)scale(0.12 -0.12)">
     <use xlink:href="#DejaVuSans-116"/>
     <use x="39.208984" xlink:href="#DejaVuSans-32"/>
     <use x="70.996094" xlink:href="#DejaVuSans-61"/>
     <use x="154.785156" xlink:href="#DejaVuSans-32"/>
     <use x="186.572266" xlink:href="#DejaVuSans-50"/>
     <use x="250.195312" xlink:href="#DejaVuSans-46"/>
     <use x="281.982422" xlink:href="#DejaVuSans-52"/>
    </g>
   </g>
  </g>
 </g>
 <defs>
  <clipPath id="p1cb0278aff">
   <rect height="217.44" width="334.8" x="54" y="34.56"/>
  </clipPath>
 </defs>
</svg>
