<?xml version="1.0" encoding="utf-8" standalone="no"?>
<!DOCTYPE svg PUBLIC "-//W3C//DTD SVG 1.1//EN"
  "http://www.w3.org/Graphics/SVG/1.1/DTD/svg11.dtd">
<!-- Created with matplotlib (https://matplotlib.org/) -->
<svg height="288pt" version="1.1" viewBox="0 0 432 288" width="432pt" xmlns="http://www.w3.org/2000/svg" xmlns:xlink="http://www.w3.org/1999/xlink">
 <defs>
  <style type="text/css">
*{stroke-linecap:butt;stroke-linejoin:round;}
  </style>
 </defs>
 <g id="figure_1">
  <g id="patch_1">
   <path d="M 0 288 
L 432 288 
L 432 0 
L 0 0 
z
" style="fill:#ffffff;"/>
  </g>
  <g id="axes_1">
   <g id="patch_2">
    <path clip-path="url(#pa5e3a013a7)" d="M 39.255565 149.936894 
L 37.583312 160.679517 
L 36.50905 160.512292 
L 38.181303 149.769668 
z
" style="stroke:#000000;stroke-linejoin:miter;"/>
   </g>
   <g id="patch_3">
    <path clip-path="url(#pa5e3a013a7)" d="M 92.968681 158.298157 
L 91.296429 169.04078 
L 90.222166 168.873555 
L 91.894419 158.130932 
z
" style="stroke:#000000;stroke-linejoin:miter;"/>
   </g>
   <g id="patch_4">
    <path clip-path="url(#pa5e3a013a7)" d="M 56.622806 152.640369 
L 56.560646 152.072504 
L 56.201362 151.494898 
L 55.546968 150.941988 
L 54.604851 150.444427 
L 53.387868 150.02717 
L 51.914307 149.707963 
L 50.207692 149.496345 
L 48.296451 149.393206 
L 46.213412 149.390942 
L 43.995176 149.474189 
L 41.681358 149.621082 
L 39.313725 149.804955 
L 36.935269 149.996365 
L 34.589224 150.165306 
L 32.318089 150.283453 
L 30.162669 150.326307 
L 28.161173 150.275064 
L 26.348403 150.118116 
L 24.755058 149.852049 
L 23.407167 149.482094 
L 22.325668 149.021986 
L 21.526148 148.493235 
L 21.018725 147.92386 
L 20.808079 147.346667 
L 20.893617 146.797172 
L 21.269742 146.311319 
L 21.926225 145.923124 
L 22.848636 145.662417 
L 24.018818 145.552818 
L 25.415385 145.61008 
L 27.014214 145.840923 
L 28.788915 146.242419 
L 30.711283 146.801986 
L 32.75169 147.497984 
L 34.879449 148.300886 
L 37.063135 149.174947 
L 39.270869 150.080268 
L 41.470582 150.975118 
L 43.630267 151.81838 
L 45.718239 152.571953 
L 47.703404 153.202967 
L 49.555562 153.685658 
L 51.245749 154.002804 
L 52.746615 154.146613 
L 54.032845 154.119018 
L 55.081625 153.931371 
L 55.87312 153.603535 
L 56.390976 153.16247 
z
" style="fill:#0000ff;stroke:#000000;stroke-linejoin:miter;"/>
   </g>
   <g id="patch_5">
    <path clip-path="url(#pa5e3a013a7)" d="M 110.335922 161.001632 
L 110.273763 160.433767 
L 109.914478 159.856161 
L 109.260084 159.303252 
L 108.317967 158.805691 
L 107.100985 158.388433 
L 105.627423 158.069226 
L 103.920809 157.857609 
L 102.009567 157.754469 
L 99.926528 157.752206 
L 97.708292 157.835453 
L 95.394474 157.982346 
L 93.026842 158.166218 
L 90.648385 158.357629 
L 88.30234 158.526569 
L 86.031205 158.644716 
L 83.875785 158.68757 
L 81.874289 158.636328 
L 80.06152 158.479379 
L 78.468175 158.213312 
L 77.120283 157.843357 
L 76.038784 157.383249 
L 75.239265 156.854498 
L 74.731842 156.285123 
L 74.521196 155.70793 
L 74.606733 155.158436 
L 74.982858 154.672582 
L 75.639341 154.284387 
L 76.561752 154.023681 
L 77.731935 153.914081 
L 79.128502 153.971343 
L 80.72733 154.202186 
L 82.502032 154.603682 
L 84.4244 155.163249 
L 86.464806 155.859247 
L 88.592565 156.662149 
L 90.776251 157.536211 
L 92.983985 158.441531 
L 95.183698 159.336381 
L 97.343384 160.179643 
L 99.431355 160.933217 
L 101.41652 161.56423 
L 103.268678 162.046922 
L 104.958866 162.364068 
L 106.459731 162.507876 
L 107.745962 162.480281 
L 108.794741 162.292634 
L 109.586237 161.964799 
L 110.104093 161.523733 
z
" style="fill:#0000ff;stroke:#000000;stroke-linejoin:miter;"/>
   </g>
   <g id="patch_6">
    <path clip-path="url(#pa5e3a013a7)" d="M 96.548672 167.107638 
L 32.092933 157.074122 
L 31.256806 162.445434 
L 95.712546 172.47895 
z
" style="fill:#999999;stroke:#000000;stroke-linejoin:miter;"/>
   </g>
   <g id="text_1">
    <!-- t = 0.4 -->
    <defs>
     <path d="M 18.3125 70.21875 
L 18.3125 54.6875 
L 36.8125 54.6875 
L 36.8125 47.703125 
L 18.3125 47.703125 
L 18.3125 18.015625 
Q 18.3125 11.328125 20.140625 9.421875 
Q 21.96875 7.515625 27.59375 7.515625 
L 36.8125 7.515625 
L 36.8125 0 
L 27.59375 0 
Q 17.1875 0 13.234375 3.875 
Q 9.28125 7.765625 9.28125 18.015625 
L 9.28125 47.703125 
L 2.6875 47.703125 
L 2.6875 54.6875 
L 9.28125 54.6875 
L 9.28125 70.21875 
z
" id="DejaVuSans-116"/>
     <path id="DejaVuSans-32"/>
     <path d="M 10.59375 45.40625 
L 73.1875 45.40625 
L 73.1875 37.203125 
L 10.59375 37.203125 
z
M 10.59375 25.484375 
L 73.1875 25.484375 
L 73.1875 17.1875 
L 10.59375 17.1875 
z
" id="DejaVuSans-61"/>
     <path d="M 31.78125 66.40625 
Q 24.171875 66.40625 20.328125 58.90625 
Q 16.5 51.421875 16.5 36.375 
Q 16.5 21.390625 20.328125 13.890625 
Q 24.171875 6.390625 31.78125 6.390625 
Q 39.453125 6.390625 43.28125 13.890625 
Q 47.125 21.390625 47.125 36.375 
Q 47.125 51.421875 43.28125 58.90625 
Q 39.453125 66.40625 31.78125 66.40625 
z
M 31.78125 74.21875 
Q 44.046875 74.21875 50.515625 64.515625 
Q 56.984375 54.828125 56.984375 36.375 
Q 56.984375 17.96875 50.515625 8.265625 
Q 44.046875 -1.421875 31.78125 -1.421875 
Q 19.53125 -1.421875 13.0625 8.265625 
Q 6.59375 17.96875 6.59375 36.375 
Q 6.59375 54.828125 13.0625 64.515625 
Q 19.53125 74.21875 31.78125 74.21875 
z
" id="DejaVuSans-48"/>
     <path d="M 10.6875 12.40625 
L 21 12.40625 
L 21 0 
L 10.6875 0 
z
" id="DejaVuSans-46"/>
     <path d="M 37.796875 64.3125 
L 12.890625 25.390625 
L 37.796875 25.390625 
z
M 35.203125 72.90625 
L 47.609375 72.90625 
L 47.609375 25.390625 
L 58.015625 25.390625 
L 58.015625 17.1875 
L 47.609375 17.1875 
L 47.609375 0 
L 37.796875 0 
L 37.796875 17.1875 
L 4.890625 17.1875 
L 4.890625 26.703125 
z
" id="DejaVuSans-52"/>
    </defs>
    <g transform="translate(200.664375 28.56)scale(0.12 -0.12)">
     <use xlink:href="#DejaVuSans-116"/>
     <use x="39.208984" xlink:href="#DejaVuSans-32"/>
     <use x="70.996094" xlink:href="#DejaVuSans-61"/>
     <use x="154.785156" xlink:href="#DejaVuSans-32"/>
     <use x="186.572266" xlink:href="#DejaVuSans-48"/>
     <use x="250.195312" xlink:href="#DejaVuSans-46"/>
     <use x="281.982422" xlink:href="#DejaVuSans-52"/>
    </g>
   </g>
  </g>
 </g>
 <defs>
  <clipPath id="pa5e3a013a7">
   <rect height="217.44" width="334.8" x="54" y="34.56"/>
  </clipPath>
 </defs>
</svg>
