<?xml version="1.0" encoding="utf-8" standalone="no"?>
<!DOCTYPE svg PUBLIC "-//W3C//DTD SVG 1.1//EN"
  "http://www.w3.org/Graphics/SVG/1.1/DTD/svg11.dtd">
<!-- Created with matplotlib (https://matplotlib.org/) -->
<svg height="288pt" version="1.1" viewBox="0 0 432 288" width="432pt" xmlns="http://www.w3.org/2000/svg" xmlns:xlink="http://www.w3.org/1999/xlink">
 <defs>
  <style type="text/css">
*{stroke-linecap:butt;stroke-linejoin:round;}
  </style>
 </defs>
 <g id="figure_1">
  <g id="patch_1">
   <path d="M 0 288 
L 432 288 
L 432 0 
L 0 0 
z
" style="fill:#ffffff;"/>
  </g>
  <g id="axes_1">
   <g id="patch_2">
    <path clip-path="url(#p9aa271833d)" d="M 194.864 132.109647 
L 194.789963 142.981395 
L 193.702788 142.973991 
L 193.776825 132.102243 
z
" style="stroke:#000000;stroke-linejoin:miter;"/>
   </g>
   <g id="patch_3">
    <path clip-path="url(#p9aa271833d)" d="M 249.222739 132.479832 
L 249.148702 143.35158 
L 248.061527 143.344177 
L 248.135564 132.472429 
z
" style="stroke:#000000;stroke-linejoin:miter;"/>
   </g>
   <g id="patch_4">
    <path clip-path="url(#p9aa271833d)" d="M 212.439992 132.22934 
L 212.294987 131.676793 
L 211.854655 131.158313 
L 211.126056 130.707665 
L 210.121004 130.354082 
L 208.855886 130.120356 
L 207.351401 130.021353 
L 205.632222 130.063046 
L 203.726596 130.242135 
L 201.665878 130.54627 
L 199.484011 130.954871 
L 197.216961 131.440483 
L 194.902122 131.970589 
L 192.577685 132.509742 
L 190.282002 133.021902 
L 188.052944 133.472804 
L 185.927268 133.832211 
L 183.940002 134.075907 
L 182.123864 134.187288 
L 180.508714 134.158464 
L 179.121068 133.990782 
L 177.983658 133.694745 
L 177.115064 133.289337 
L 176.529416 132.800787 
L 176.236168 132.260853 
L 176.239955 131.704754 
L 176.54053 131.168864 
L 177.132777 130.688335 
L 178.006812 130.294795 
L 179.148148 130.014276 
L 180.537949 129.865508 
L 182.153342 129.858684 
L 183.967795 129.99479 
L 185.951557 130.265529 
L 188.072141 130.653853 
L 190.294851 131.135072 
L 192.583346 131.67845 
L 194.900225 132.249211 
L 197.207629 132.810794 
L 199.467855 133.327238 
L 201.643955 133.765516 
L 203.70034 134.097689 
L 205.603349 134.302715 
L 207.321801 134.367818 
L 208.827495 134.289315 
L 210.095679 134.072841 
L 211.105453 133.732979 
L 211.840123 133.292296 
L 212.287475 132.779861 
z
" style="fill:#0000ff;stroke:#000000;stroke-linejoin:miter;"/>
   </g>
   <g id="patch_5">
    <path clip-path="url(#p9aa271833d)" d="M 266.798732 132.599526 
L 266.653726 132.046979 
L 266.213395 131.528499 
L 265.484795 131.077851 
L 264.479743 130.724268 
L 263.214625 130.490542 
L 261.71014 130.391539 
L 259.990961 130.433232 
L 258.085336 130.612321 
L 256.024618 130.916456 
L 253.84275 131.325056 
L 251.575701 131.810669 
L 249.260862 132.340775 
L 246.936424 132.879927 
L 244.640741 133.392087 
L 242.411684 133.842989 
L 240.286008 134.202397 
L 238.298742 134.446093 
L 236.482603 134.557474 
L 234.867453 134.52865 
L 233.479807 134.360967 
L 232.342398 134.06493 
L 231.473804 133.659523 
L 230.888156 133.170973 
L 230.594907 132.631039 
L 230.598694 132.074939 
L 230.899269 131.539049 
L 231.491517 131.05852 
L 232.365551 130.66498 
L 233.506888 130.384462 
L 234.896689 130.235693 
L 236.512081 130.22887 
L 238.326535 130.364976 
L 240.310297 130.635714 
L 242.430881 131.024039 
L 244.653591 131.505258 
L 246.942085 132.048636 
L 249.258964 132.619397 
L 251.566369 133.18098 
L 253.826594 133.697423 
L 256.002694 134.135702 
L 258.059079 134.467875 
L 259.962089 134.6729 
L 261.68054 134.738004 
L 263.186235 134.6595 
L 264.454418 134.443026 
L 265.464193 134.103165 
L 266.198862 133.662482 
L 266.646214 133.150046 
z
" style="fill:#0000ff;stroke:#000000;stroke-linejoin:miter;"/>
   </g>
   <g id="patch_6">
    <path clip-path="url(#p9aa271833d)" d="M 254.059498 140.66696 
L 188.82901 140.222737 
L 188.791992 145.658611 
L 254.022479 146.102834 
z
" style="fill:#999999;stroke:#000000;stroke-linejoin:miter;"/>
   </g>
   <g id="text_1">
    <!-- t = 1.8 -->
    <defs>
     <path d="M 18.3125 70.21875 
L 18.3125 54.6875 
L 36.8125 54.6875 
L 36.8125 47.703125 
L 18.3125 47.703125 
L 18.3125 18.015625 
Q 18.3125 11.328125 20.140625 9.421875 
Q 21.96875 7.515625 27.59375 7.515625 
L 36.8125 7.515625 
L 36.8125 0 
L 27.59375 0 
Q 17.1875 0 13.234375 3.875 
Q 9.28125 7.765625 9.28125 18.015625 
L 9.28125 47.703125 
L 2.6875 47.703125 
L 2.6875 54.6875 
L 9.28125 54.6875 
L 9.28125 70.21875 
z
" id="DejaVuSans-116"/>
     <path id="DejaVuSans-32"/>
     <path d="M 10.59375 45.40625 
L 73.1875 45.40625 
L 73.1875 37.203125 
L 10.59375 37.203125 
z
M 10.59375 25.484375 
L 73.1875 25.484375 
L 73.1875 17.1875 
L 10.59375 17.1875 
z
" id="DejaVuSans-61"/>
     <path d="M 12.40625 8.296875 
L 28.515625 8.296875 
L 28.515625 63.921875 
L 10.984375 60.40625 
L 10.984375 69.390625 
L 28.421875 72.90625 
L 38.28125 72.90625 
L 38.28125 8.296875 
L 54.390625 8.296875 
L 54.390625 0 
L 12.40625 0 
z
" id="DejaVuSans-49"/>
     <path d="M 10.6875 12.40625 
L 21 12.40625 
L 21 0 
L 10.6875 0 
z
" id="DejaVuSans-46"/>
     <path d="M 31.78125 34.625 
Q 24.75 34.625 20.71875 30.859375 
Q 16.703125 27.09375 16.703125 20.515625 
Q 16.703125 13.921875 20.71875 10.15625 
Q 24.75 6.390625 31.78125 6.390625 
Q 38.8125 6.390625 42.859375 10.171875 
Q 46.921875 13.96875 46.921875 20.515625 
Q 46.921875 27.09375 42.890625 30.859375 
Q 38.875 34.625 31.78125 34.625 
z
M 21.921875 38.8125 
Q 15.578125 40.375 12.03125 44.71875 
Q 8.5 49.078125 8.5 55.328125 
Q 8.5 64.0625 14.71875 69.140625 
Q 20.953125 74.21875 31.78125 74.21875 
Q 42.671875 74.21875 48.875 69.140625 
Q 55.078125 64.0625 55.078125 55.328125 
Q 55.078125 49.078125 51.53125 44.71875 
Q 48 40.375 41.703125 38.8125 
Q 48.828125 37.15625 52.796875 32.3125 
Q 56.78125 27.484375 56.78125 20.515625 
Q 56.78125 9.90625 50.3125 4.234375 
Q 43.84375 -1.421875 31.78125 -1.421875 
Q 19.734375 -1.421875 13.25 4.234375 
Q 6.78125 9.90625 6.78125 20.515625 
Q 6.78125 27.484375 10.78125 32.3125 
Q 14.796875 37.15625 21.921875 38.8125 
z
M 18.3125 54.390625 
Q 18.3125 48.734375 21.84375 45.5625 
Q 25.390625 42.390625 31.78125 42.390625 
Q 38.140625 42.390625 41.71875 45.5625 
Q 45.3125 48.734375 45.3125 54.390625 
Q 45.3125 60.0625 41.71875 63.234375 
Q 38.140625 66.40625 31.78125 66.40625 
Q 25.390625 66.40625 21.84375 63.234375 
Q 18.3125 60.0625 18.3125 54.390625 
z
" id="DejaVuSans-56"/>
    </defs>
    <g transform="translate(200.664375 28.56)scale(0.12 -0.12)">
     <use xlink:href="#DejaVuSans-116"/>
     <use x="39.208984" xlink:href="#DejaVuSans-32"/>
     <use x="70.996094" xlink:href="#DejaVuSans-61"/>
     <use x="154.785156" xlink:href="#DejaVuSans-32"/>
     <use x="186.572266" xlink:href="#DejaVuSans-49"/>
     <use x="250.195312" xlink:href="#DejaVuSans-46"/>
     <use x="281.982422" xlink:href="#DejaVuSans-56"/>
    </g>
   </g>
  </g>
 </g>
 <defs>
  <clipPath id="p9aa271833d">
   <rect height="217.44" width="334.8" x="54" y="34.56"/>
  </clipPath>
 </defs>
</svg>
