<?xml version="1.0" encoding="utf-8" standalone="no"?>
<!DOCTYPE svg PUBLIC "-//W3C//DTD SVG 1.1//EN"
  "http://www.w3.org/Graphics/SVG/1.1/DTD/svg11.dtd">
<!-- Created with matplotlib (https://matplotlib.org/) -->
<svg height="288pt" version="1.1" viewBox="0 0 432 288" width="432pt" xmlns="http://www.w3.org/2000/svg" xmlns:xlink="http://www.w3.org/1999/xlink">
 <defs>
  <style type="text/css">
*{stroke-linecap:butt;stroke-linejoin:round;}
  </style>
 </defs>
 <g id="figure_1">
  <g id="patch_1">
   <path d="M 0 288 
L 432 288 
L 432 0 
L 0 0 
z
" style="fill:#ffffff;"/>
  </g>
  <g id="axes_1">
   <g id="patch_2">
    <path clip-path="url(#p0d051412ac)" d="M 194.755379 132.408191 
L 194.755293 143.280191 
L 193.668093 143.280182 
L 193.668179 132.408182 
z
" style="stroke:#000000;stroke-linejoin:miter;"/>
   </g>
   <g id="patch_3">
    <path clip-path="url(#p0d051412ac)" d="M 249.115379 132.408624 
L 249.115293 143.280624 
L 248.028093 143.280615 
L 248.028179 132.408615 
z
" style="stroke:#000000;stroke-linejoin:miter;"/>
   </g>
   <g id="patch_4">
    <path clip-path="url(#p0d051412ac)" d="M 212.331779 132.408331 
L 212.183019 131.856783 
L 211.739171 131.34131 
L 211.007523 130.895628 
L 210.000089 130.54889 
L 208.733411 130.323774 
L 207.228287 130.235007 
L 205.509432 130.288393 
L 203.605068 130.480439 
L 201.546466 130.798584 
L 199.367429 131.222016 
L 197.103735 131.723038 
L 194.792555 132.268877 
L 192.471839 132.823828 
L 190.179693 133.351591 
L 187.953753 133.817644 
L 185.830571 134.191502 
L 183.845009 134.448709 
L 182.02967 134.572441 
L 180.414362 134.554604 
L 179.025607 134.396364 
L 177.88621 134.108071 
L 177.014879 133.708581 
L 176.425921 133.224025 
L 176.129007 132.686098 
L 176.129011 132.129986 
L 176.425934 131.592064 
L 177.0149 131.107518 
L 177.886237 130.708042 
L 179.025639 130.419766 
L 180.414396 130.261548 
L 182.029705 130.243737 
L 183.845042 130.367498 
L 185.8306 130.624737 
L 187.953776 130.998629 
L 190.179708 131.464717 
L 192.471846 131.992517 
L 194.792553 132.547505 
L 197.103724 133.093381 
L 199.36741 133.594438 
L 201.546441 134.017905 
L 203.605037 134.336083 
L 205.509398 134.528159 
L 207.228252 134.581573 
L 208.733378 134.492829 
L 210.00006 134.267734 
L 211.007499 133.921012 
L 211.739154 133.475342 
L 212.18301 132.959876 
z
" style="fill:#0000ff;stroke:#000000;stroke-linejoin:miter;"/>
   </g>
   <g id="patch_5">
    <path clip-path="url(#p0d051412ac)" d="M 266.691779 132.408764 
L 266.543019 131.857216 
L 266.099171 131.341743 
L 265.367523 130.896061 
L 264.360089 130.549323 
L 263.093411 130.324207 
L 261.588287 130.23544 
L 259.869432 130.288826 
L 257.965068 130.480872 
L 255.906466 130.799017 
L 253.727429 131.222449 
L 251.463735 131.723471 
L 249.152555 132.26931 
L 246.831839 132.824261 
L 244.539693 133.352024 
L 242.313753 133.818077 
L 240.190571 134.191935 
L 238.205009 134.449142 
L 236.38967 134.572874 
L 234.774362 134.555037 
L 233.385607 134.396797 
L 232.24621 134.108504 
L 231.374879 133.709014 
L 230.785921 133.224458 
L 230.489007 132.686531 
L 230.489011 132.130419 
L 230.785934 131.592497 
L 231.3749 131.107951 
L 232.246237 130.708475 
L 233.385639 130.420199 
L 234.774396 130.261981 
L 236.389705 130.24417 
L 238.205042 130.367931 
L 240.1906 130.62517 
L 242.313776 130.999062 
L 244.539708 131.46515 
L 246.831846 131.99295 
L 249.152553 132.547938 
L 251.463724 133.093814 
L 253.72741 133.594871 
L 255.906441 134.018338 
L 257.965037 134.336516 
L 259.869398 134.528592 
L 261.588252 134.582006 
L 263.093378 134.493262 
L 264.36006 134.268167 
L 265.367499 133.921445 
L 266.099154 133.475775 
L 266.54301 132.960309 
z
" style="fill:#0000ff;stroke:#000000;stroke-linejoin:miter;"/>
   </g>
   <g id="patch_6">
    <path clip-path="url(#p0d051412ac)" d="M 254.007715 140.562662 
L 188.775715 140.562143 
L 188.775671 145.998143 
L 254.007671 145.998662 
z
" style="fill:#999999;stroke:#000000;stroke-linejoin:miter;"/>
   </g>
   <g id="text_1">
    <!-- t = 4.0 -->
    <defs>
     <path d="M 18.3125 70.21875 
L 18.3125 54.6875 
L 36.8125 54.6875 
L 36.8125 47.703125 
L 18.3125 47.703125 
L 18.3125 18.015625 
Q 18.3125 11.328125 20.140625 9.421875 
Q 21.96875 7.515625 27.59375 7.515625 
L 36.8125 7.515625 
L 36.8125 0 
L 27.59375 0 
Q 17.1875 0 13.234375 3.875 
Q 9.28125 7.765625 9.28125 18.015625 
L 9.28125 47.703125 
L 2.6875 47.703125 
L 2.6875 54.6875 
L 9.28125 54.6875 
L 9.28125 70.21875 
z
" id="DejaVuSans-116"/>
     <path id="DejaVuSans-32"/>
     <path d="M 10.59375 45.40625 
L 73.1875 45.40625 
L 73.1875 37.203125 
L 10.59375 37.203125 
z
M 10.59375 25.484375 
L 73.1875 25.484375 
L 73.1875 17.1875 
L 10.59375 17.1875 
z
" id="DejaVuSans-61"/>
     <path d="M 37.796875 64.3125 
L 12.890625 25.390625 
L 37.796875 25.390625 
z
M 35.203125 72.90625 
L 47.609375 72.90625 
L 47.609375 25.390625 
L 58.015625 25.390625 
L 58.015625 17.1875 
L 47.609375 17.1875 
L 47.609375 0 
L 37.796875 0 
L 37.796875 17.1875 
L 4.890625 17.1875 
L 4.890625 26.703125 
z
" id="DejaVuSans-52"/>
     <path d="M 10.6875 12.40625 
L 21 12.40625 
L 21 0 
L 10.6875 0 
z
" id="DejaVuSans-46"/>
     <path d="M 31.78125 66.40625 
Q 24.171875 66.40625 20.328125 58.90625 
Q 16.5 51.421875 16.5 36.375 
Q 16.5 21.390625 20.328125 13.890625 
Q 24.171875 6.390625 31.78125 6.390625 
Q 39.453125 6.390625 43.28125 13.890625 
Q 47.125 21.390625 47.125 36.375 
Q 47.125 51.421875 43.28125 58.90625 
Q 39.453125 66.40625 31.78125 66.40625 
z
M 31.78125 74.21875 
Q 44.046875 74.21875 50.515625 64.515625 
Q 56.984375 54.828125 56.984375 36.375 
Q 56.984375 17.96875 50.515625 8.265625 
Q 44.046875 -1.421875 31.78125 -1.421875 
Q 19.53125 -1.421875 13.0625 8.265625 
Q 6.59375 17.96875 6.59375 36.375 
Q 6.59375 54.828125 13.0625 64.515625 
Q 19.53125 74.21875 31.78125 74.21875 
z
" id="DejaVuSans-48"/>
    </defs>
    <g transform="translate(200.664375 28.56)scale(0.12 -0.12)">
     <use xlink:href="#DejaVuSans-116"/>
     <use x="39.208984" xlink:href="#DejaVuSans-32"/>
     <use x="70.996094" xlink:href="#DejaVuSans-61"/>
     <use x="154.785156" xlink:href="#DejaVuSans-32"/>
     <use x="186.572266" xlink:href="#DejaVuSans-52"/>
     <use x="250.195312" xlink:href="#DejaVuSans-46"/>
     <use x="281.982422" xlink:href="#DejaVuSans-48"/>
    </g>
   </g>
  </g>
 </g>
 <defs>
  <clipPath id="p0d051412ac">
   <rect height="217.44" width="334.8" x="54" y="34.56"/>
  </clipPath>
 </defs>
</svg>
