<?xml version="1.0" encoding="utf-8" standalone="no"?>
<!DOCTYPE svg PUBLIC "-//W3C//DTD SVG 1.1//EN"
  "http://www.w3.org/Graphics/SVG/1.1/DTD/svg11.dtd">
<!-- Created with matplotlib (https://matplotlib.org/) -->
<svg height="288pt" version="1.1" viewBox="0 0 432 288" width="432pt" xmlns="http://www.w3.org/2000/svg" xmlns:xlink="http://www.w3.org/1999/xlink">
 <defs>
  <style type="text/css">
*{stroke-linecap:butt;stroke-linejoin:round;}
  </style>
 </defs>
 <g id="figure_1">
  <g id="patch_1">
   <path d="M 0 288 
L 432 288 
L 432 0 
L 0 0 
z
" style="fill:#ffffff;"/>
  </g>
  <g id="axes_1">
   <g id="patch_2">
    <path clip-path="url(#pc3a5afdd32)" d="M 202.486736 128.714286 
L 201.93067 139.572056 
L 200.844893 139.516449 
L 201.400959 128.658679 
z
" style="stroke:#000000;stroke-linejoin:miter;"/>
   </g>
   <g id="patch_3">
    <path clip-path="url(#pc3a5afdd32)" d="M 256.775587 131.494619 
L 256.219521 142.35239 
L 255.133744 142.296783 
L 255.68981 131.439013 
z
" style="stroke:#000000;stroke-linejoin:miter;"/>
   </g>
   <g id="patch_4">
    <path clip-path="url(#pc3a5afdd32)" d="M 220.040131 129.61326 
L 219.919771 129.054827 
L 219.502864 128.51733 
L 218.794966 128.034816 
L 217.806582 127.637013 
L 216.553073 127.347416 
L 215.054458 127.181794 
L 213.335121 127.14721 
L 211.423428 127.241619 
L 209.351251 127.454073 
L 207.15341 127.765518 
L 204.867057 128.150122 
L 202.530988 128.577055 
L 200.184928 129.012602 
L 197.868792 129.422457 
L 195.621932 129.774069 
L 193.48241 130.038861 
L 191.486292 130.194192 
L 189.667001 130.224929 
L 188.054718 130.12451 
L 186.675873 129.895458 
L 185.552709 129.549274 
L 184.702948 129.105748 
L 184.13954 128.591708 
L 183.870523 128.039301 
L 183.898967 127.483917 
L 184.22301 126.961883 
L 184.835984 126.508089 
L 185.72661 126.153695 
L 186.879263 125.924065 
L 188.274294 125.837073 
L 189.8884 125.901889 
L 191.695033 126.118323 
L 193.664838 126.476764 
L 195.766115 126.958743 
L 197.9653 127.538053 
L 200.227447 128.182379 
L 202.516737 128.855319 
L 204.796969 129.518671 
L 207.032069 130.134835 
L 209.186593 130.66918 
L 211.226225 131.092216 
L 213.118271 131.381428 
L 214.832145 131.522671 
L 216.339839 131.511014 
L 217.616375 131.35099 
L 218.640227 131.056241 
L 219.393716 130.64857 
L 219.863351 130.156476 
z
" style="fill:#0000ff;stroke:#000000;stroke-linejoin:miter;"/>
   </g>
   <g id="patch_5">
    <path clip-path="url(#pc3a5afdd32)" d="M 274.328983 132.393594 
L 274.208622 131.83516 
L 273.791715 131.297664 
L 273.083817 130.81515 
L 272.095433 130.417346 
L 270.841924 130.127749 
L 269.343309 129.962128 
L 267.623972 129.927544 
L 265.712279 130.021952 
L 263.640102 130.234407 
L 261.442262 130.545851 
L 259.155908 130.930455 
L 256.819839 131.357389 
L 254.47378 131.792935 
L 252.157643 132.202791 
L 249.910783 132.554402 
L 247.771261 132.819194 
L 245.775143 132.974526 
L 243.955852 133.005262 
L 242.343569 132.904843 
L 240.964724 132.675791 
L 239.841561 132.329607 
L 238.991799 131.886082 
L 238.428391 131.372041 
L 238.159374 130.819635 
L 238.187818 130.26425 
L 238.511861 129.742216 
L 239.124835 129.288423 
L 240.015461 128.934029 
L 241.168114 128.704398 
L 242.563145 128.617406 
L 244.177251 128.682223 
L 245.983884 128.898656 
L 247.953689 129.257097 
L 250.054966 129.739076 
L 252.254151 130.318387 
L 254.516298 130.962713 
L 256.805588 131.635653 
L 259.08582 132.299004 
L 261.32092 132.915168 
L 263.475444 133.449514 
L 265.515076 133.872549 
L 267.407122 134.161761 
L 269.120996 134.303005 
L 270.62869 134.291347 
L 271.905226 134.131324 
L 272.929078 133.836574 
L 273.682567 133.428903 
L 274.152202 132.93681 
z
" style="fill:#0000ff;stroke:#000000;stroke-linejoin:miter;"/>
   </g>
   <g id="patch_6">
    <path clip-path="url(#pc3a5afdd32)" d="M 261.244534 139.888177 
L 196.097913 136.551777 
L 195.819879 141.980662 
L 260.966501 145.317062 
z
" style="fill:#999999;stroke:#000000;stroke-linejoin:miter;"/>
   </g>
   <g id="text_1">
    <!-- t = 1.0 -->
    <defs>
     <path d="M 18.3125 70.21875 
L 18.3125 54.6875 
L 36.8125 54.6875 
L 36.8125 47.703125 
L 18.3125 47.703125 
L 18.3125 18.015625 
Q 18.3125 11.328125 20.140625 9.421875 
Q 21.96875 7.515625 27.59375 7.515625 
L 36.8125 7.515625 
L 36.8125 0 
L 27.59375 0 
Q 17.1875 0 13.234375 3.875 
Q 9.28125 7.765625 9.28125 18.015625 
L 9.28125 47.703125 
L 2.6875 47.703125 
L 2.6875 54.6875 
L 9.28125 54.6875 
L 9.28125 70.21875 
z
" id="DejaVuSans-116"/>
     <path id="DejaVuSans-32"/>
     <path d="M 10.59375 45.40625 
L 73.1875 45.40625 
L 73.1875 37.203125 
L 10.59375 37.203125 
z
M 10.59375 25.484375 
L 73.1875 25.484375 
L 73.1875 17.1875 
L 10.59375 17.1875 
z
" id="DejaVuSans-61"/>
     <path d="M 12.40625 8.296875 
L 28.515625 8.296875 
L 28.515625 63.921875 
L 10.984375 60.40625 
L 10.984375 69.390625 
L 28.421875 72.90625 
L 38.28125 72.90625 
L 38.28125 8.296875 
L 54.390625 8.296875 
L 54.390625 0 
L 12.40625 0 
z
" id="DejaVuSans-49"/>
     <path d="M 10.6875 12.40625 
L 21 12.40625 
L 21 0 
L 10.6875 0 
z
" id="DejaVuSans-46"/>
     <path d="M 31.78125 66.40625 
Q 24.171875 66.40625 20.328125 58.90625 
Q 16.5 51.421875 16.5 36.375 
Q 16.5 21.390625 20.328125 13.890625 
Q 24.171875 6.390625 31.78125 6.390625 
Q 39.453125 6.390625 43.28125 13.890625 
Q 47.125 21.390625 47.125 36.375 
Q 47.125 51.421875 43.28125 58.90625 
Q 39.453125 66.40625 31.78125 66.40625 
z
M 31.78125 74.21875 
Q 44.046875 74.21875 50.515625 64.515625 
Q 56.984375 54.828125 56.984375 36.375 
Q 56.984375 17.96875 50.515625 8.265625 
Q 44.046875 -1.421875 31.78125 -1.421875 
Q 19.53125 -1.421875 13.0625 8.265625 
Q 6.59375 17.96875 6.59375 36.375 
Q 6.59375 54.828125 13.0625 64.515625 
Q 19.53125 74.21875 31.78125 74.21875 
z
" id="DejaVuSans-48"/>
    </defs>
    <g transform="translate(200.664375 28.56)scale(0.12 -0.12)">
     <use xlink:href="#DejaVuSans-116"/>
     <use x="39.208984" xlink:href="#DejaVuSans-32"/>
     <use x="70.996094" xlink:href="#DejaVuSans-61"/>
     <use x="154.785156" xlink:href="#DejaVuSans-32"/>
     <use x="186.572266" xlink:href="#DejaVuSans-49"/>
     <use x="250.195312" xlink:href="#DejaVuSans-46"/>
     <use x="281.982422" xlink:href="#DejaVuSans-48"/>
    </g>
   </g>
  </g>
 </g>
 <defs>
  <clipPath id="pc3a5afdd32">
   <rect height="217.44" width="334.8" x="54" y="34.56"/>
  </clipPath>
 </defs>
</svg>
