<?xml version="1.0" encoding="utf-8" standalone="no"?>
<!DOCTYPE svg PUBLIC "-//W3C//DTD SVG 1.1//EN"
  "http://www.w3.org/Graphics/SVG/1.1/DTD/svg11.dtd">
<!-- Created with matplotlib (https://matplotlib.org/) -->
<svg height="288pt" version="1.1" viewBox="0 0 432 288" width="432pt" xmlns="http://www.w3.org/2000/svg" xmlns:xlink="http://www.w3.org/1999/xlink">
 <defs>
  <style type="text/css">
*{stroke-linecap:butt;stroke-linejoin:round;}
  </style>
 </defs>
 <g id="figure_1">
  <g id="patch_1">
   <path d="M 0 288 
L 432 288 
L 432 0 
L 0 0 
z
" style="fill:#ffffff;"/>
  </g>
  <g id="axes_1">
   <g id="patch_2">
    <path clip-path="url(#p8659ee4394)" d="M 194.749905 132.419406 
L 194.753343 143.291405 
L 193.666143 143.291749 
L 193.662705 132.419749 
z
" style="stroke:#000000;stroke-linejoin:miter;"/>
   </g>
   <g id="patch_3">
    <path clip-path="url(#p8659ee4394)" d="M 249.109902 132.402214 
L 249.11334 143.274214 
L 248.02614 143.274557 
L 248.022702 132.402558 
z
" style="stroke:#000000;stroke-linejoin:miter;"/>
   </g>
   <g id="patch_4">
    <path clip-path="url(#p8659ee4394)" d="M 212.326304 132.413847 
L 212.177364 131.862347 
L 211.733349 131.347018 
L 211.001557 130.901574 
L 209.994011 130.555162 
L 208.72726 130.330458 
L 207.222107 130.242178 
L 205.503269 130.296121 
L 203.598968 130.488785 
L 201.540469 130.807597 
L 199.361569 131.231736 
L 197.098038 131.733492 
L 194.787035 132.280079 
L 192.466499 132.835783 
L 190.174524 133.364289 
L 187.948736 133.831064 
L 185.825675 134.20561 
L 183.840197 134.463462 
L 182.024898 134.587782 
L 180.409583 134.570469 
L 179.020778 134.412679 
L 177.881287 134.124755 
L 177.009827 133.725547 
L 176.420712 133.241183 
L 176.123623 132.703352 
L 176.123447 132.14724 
L 176.420196 131.609222 
L 177.009004 131.124484 
L 177.880212 130.724726 
L 179.01952 130.436081 
L 180.408226 130.277413 
L 182.023529 130.259078 
L 183.838906 130.38225 
L 185.824547 130.638846 
L 187.947844 131.012049 
L 190.173927 131.477416 
L 192.466236 132.004472 
L 194.787123 132.558708 
L 197.098471 133.103834 
L 199.362319 133.604158 
L 201.541488 134.026918 
L 203.600187 134.344428 
L 205.50461 134.535888 
L 207.223482 134.588744 
L 208.728578 134.499512 
L 209.995187 134.274007 
L 211.002514 133.926958 
L 211.734024 133.481051 
L 212.177713 132.96544 
z
" style="fill:#0000ff;stroke:#000000;stroke-linejoin:miter;"/>
   </g>
   <g id="patch_5">
    <path clip-path="url(#p8659ee4394)" d="M 266.686301 132.396656 
L 266.537362 131.845156 
L 266.093347 131.329827 
L 265.361554 130.884382 
L 264.354008 130.537971 
L 263.087257 130.313266 
L 261.582104 130.224987 
L 259.863266 130.27893 
L 257.958965 130.471594 
L 255.900467 130.790406 
L 253.721566 131.214545 
L 251.458035 131.7163 
L 249.147032 132.262888 
L 246.826496 132.818592 
L 244.534521 133.347098 
L 242.308733 133.813873 
L 240.185673 134.188419 
L 238.200194 134.44627 
L 236.384895 134.570591 
L 234.769581 134.553277 
L 233.380775 134.395487 
L 232.241284 134.107563 
L 231.369824 133.708356 
L 230.780709 133.223991 
L 230.48362 132.686161 
L 230.483444 132.130049 
L 230.780193 131.59203 
L 231.369001 131.107293 
L 232.240209 130.707535 
L 233.379517 130.41889 
L 234.768223 130.260221 
L 236.383526 130.241886 
L 238.198903 130.365059 
L 240.184545 130.621654 
L 242.307842 130.994857 
L 244.533924 131.460224 
L 246.826233 131.987281 
L 249.147121 132.541517 
L 251.458469 133.086643 
L 253.722317 133.586967 
L 255.901485 134.009727 
L 257.960184 134.327237 
L 259.864607 134.518696 
L 261.583479 134.571552 
L 263.088575 134.482321 
L 264.355184 134.256815 
L 265.362511 133.909766 
L 266.094021 133.463859 
L 266.53771 132.948249 
z
" style="fill:#0000ff;stroke:#000000;stroke-linejoin:miter;"/>
   </g>
   <g id="patch_6">
    <path clip-path="url(#p8659ee4394)" d="M 254.00488 140.554666 
L 188.772884 140.575296 
L 188.774603 146.011296 
L 254.006599 145.990666 
z
" style="fill:#999999;stroke:#000000;stroke-linejoin:miter;"/>
   </g>
   <g id="text_1">
    <!-- t = 3.3 -->
    <defs>
     <path d="M 18.3125 70.21875 
L 18.3125 54.6875 
L 36.8125 54.6875 
L 36.8125 47.703125 
L 18.3125 47.703125 
L 18.3125 18.015625 
Q 18.3125 11.328125 20.140625 9.421875 
Q 21.96875 7.515625 27.59375 7.515625 
L 36.8125 7.515625 
L 36.8125 0 
L 27.59375 0 
Q 17.1875 0 13.234375 3.875 
Q 9.28125 7.765625 9.28125 18.015625 
L 9.28125 47.703125 
L 2.6875 47.703125 
L 2.6875 54.6875 
L 9.28125 54.6875 
L 9.28125 70.21875 
z
" id="DejaVuSans-116"/>
     <path id="DejaVuSans-32"/>
     <path d="M 10.59375 45.40625 
L 73.1875 45.40625 
L 73.1875 37.203125 
L 10.59375 37.203125 
z
M 10.59375 25.484375 
L 73.1875 25.484375 
L 73.1875 17.1875 
L 10.59375 17.1875 
z
" id="DejaVuSans-61"/>
     <path d="M 40.578125 39.3125 
Q 47.65625 37.796875 51.625 33 
Q 55.609375 28.21875 55.609375 21.1875 
Q 55.609375 10.40625 48.1875 4.484375 
Q 40.765625 -1.421875 27.09375 -1.421875 
Q 22.515625 -1.421875 17.65625 -0.515625 
Q 12.796875 0.390625 7.625 2.203125 
L 7.625 11.71875 
Q 11.71875 9.328125 16.59375 8.109375 
Q 21.484375 6.890625 26.8125 6.890625 
Q 36.078125 6.890625 40.9375 10.546875 
Q 45.796875 14.203125 45.796875 21.1875 
Q 45.796875 27.640625 41.28125 31.265625 
Q 36.765625 34.90625 28.71875 34.90625 
L 20.21875 34.90625 
L 20.21875 43.015625 
L 29.109375 43.015625 
Q 36.375 43.015625 40.234375 45.921875 
Q 44.09375 48.828125 44.09375 54.296875 
Q 44.09375 59.90625 40.109375 62.90625 
Q 36.140625 65.921875 28.71875 65.921875 
Q 24.65625 65.921875 20.015625 65.03125 
Q 15.375 64.15625 9.8125 62.3125 
L 9.8125 71.09375 
Q 15.4375 72.65625 20.34375 73.4375 
Q 25.25 74.21875 29.59375 74.21875 
Q 40.828125 74.21875 47.359375 69.109375 
Q 53.90625 64.015625 53.90625 55.328125 
Q 53.90625 49.265625 50.4375 45.09375 
Q 46.96875 40.921875 40.578125 39.3125 
z
" id="DejaVuSans-51"/>
     <path d="M 10.6875 12.40625 
L 21 12.40625 
L 21 0 
L 10.6875 0 
z
" id="DejaVuSans-46"/>
    </defs>
    <g transform="translate(200.664375 28.56)scale(0.12 -0.12)">
     <use xlink:href="#DejaVuSans-116"/>
     <use x="39.208984" xlink:href="#DejaVuSans-32"/>
     <use x="70.996094" xlink:href="#DejaVuSans-61"/>
     <use x="154.785156" xlink:href="#DejaVuSans-32"/>
     <use x="186.572266" xlink:href="#DejaVuSans-51"/>
     <use x="250.195312" xlink:href="#DejaVuSans-46"/>
     <use x="281.982422" xlink:href="#DejaVuSans-51"/>
    </g>
   </g>
  </g>
 </g>
 <defs>
  <clipPath id="p8659ee4394">
   <rect height="217.44" width="334.8" x="54" y="34.56"/>
  </clipPath>
 </defs>
</svg>
