<?xml version="1.0" encoding="utf-8" standalone="no"?>
<!DOCTYPE svg PUBLIC "-//W3C//DTD SVG 1.1//EN"
  "http://www.w3.org/Graphics/SVG/1.1/DTD/svg11.dtd">
<!-- Created with matplotlib (https://matplotlib.org/) -->
<svg height="288pt" version="1.1" viewBox="0 0 432 288" width="432pt" xmlns="http://www.w3.org/2000/svg" xmlns:xlink="http://www.w3.org/1999/xlink">
 <defs>
  <style type="text/css">
*{stroke-linecap:butt;stroke-linejoin:round;}
  </style>
 </defs>
 <g id="figure_1">
  <g id="patch_1">
   <path d="M 0 288 
L 432 288 
L 432 0 
L 0 0 
z
" style="fill:#ffffff;"/>
  </g>
  <g id="axes_1">
   <g id="patch_2">
    <path clip-path="url(#pefd792a0c2)" d="M 195.716126 132.482824 
L 195.682602 143.354772 
L 194.595408 143.351419 
L 194.628931 132.479471 
z
" style="stroke:#000000;stroke-linejoin:miter;"/>
   </g>
   <g id="patch_3">
    <path clip-path="url(#pefd792a0c2)" d="M 250.075867 132.65044 
L 250.042344 143.522388 
L 248.955149 143.519036 
L 248.988672 132.647088 
z
" style="stroke:#000000;stroke-linejoin:miter;"/>
   </g>
   <g id="patch_4">
    <path clip-path="url(#pefd792a0c2)" d="M 213.292442 132.53702 
L 213.145379 131.985017 
L 212.703118 131.468181 
L 211.972844 131.020251 
L 210.966482 130.670416 
L 209.700502 130.441407 
L 208.195658 130.348011 
L 206.476646 130.39611 
L 204.571701 130.582299 
L 202.512131 130.894111 
L 200.331801 131.310839 
L 198.066577 131.804896 
L 195.75373 132.343625 
L 193.431318 132.891436 
L 191.137559 133.412147 
L 188.910197 133.871352 
L 186.785875 134.238678 
L 184.799532 134.489778 
L 182.98382 134.607926 
L 181.368574 134.585122 
L 179.980313 134.422611 
L 178.841808 134.130815 
L 177.97171 133.728647 
L 177.384245 133.242282 
L 177.088986 132.703445 
L 177.090701 132.147335 
L 177.389277 131.610329 
L 177.97973 131.127596 
L 178.852292 130.730802 
L 179.992575 130.446032 
L 181.381812 130.292086 
L 182.997168 130.279242 
L 184.812116 130.408586 
L 186.796873 130.67193 
L 188.918889 131.05235 
L 191.143377 131.525282 
L 193.433881 132.060129 
L 195.752871 132.622252 
L 198.062352 133.175233 
L 200.324486 133.68325 
L 202.502204 134.113416 
L 204.559813 134.437923 
L 206.463573 134.635856 
L 208.182255 134.694556 
L 209.687647 134.610442 
L 210.955015 134.389243 
L 211.963516 134.045621 
L 212.696538 133.602203 
L 213.141977 133.088105 
z
" style="fill:#0000ff;stroke:#000000;stroke-linejoin:miter;"/>
   </g>
   <g id="patch_5">
    <path clip-path="url(#pefd792a0c2)" d="M 267.652184 132.704636 
L 267.50512 132.152634 
L 267.06286 131.635798 
L 266.332586 131.187868 
L 265.326223 130.838033 
L 264.060243 130.609023 
L 262.555399 130.515627 
L 260.836388 130.563727 
L 258.931443 130.749915 
L 256.871873 131.061727 
L 254.691543 131.478456 
L 252.426319 131.972513 
L 250.113471 132.511241 
L 247.791059 133.059052 
L 245.497301 133.579764 
L 243.269939 134.038969 
L 241.145617 134.406295 
L 239.159273 134.657395 
L 237.343562 134.775543 
L 235.728316 134.752738 
L 234.340055 134.590228 
L 233.20155 134.298431 
L 232.331451 133.896264 
L 231.743986 133.409899 
L 231.448728 132.871061 
L 231.450443 132.314952 
L 231.749019 131.777945 
L 232.339472 131.295213 
L 233.212034 130.898419 
L 234.352316 130.613649 
L 235.741553 130.459702 
L 237.356909 130.446859 
L 239.171857 130.576203 
L 241.156615 130.839547 
L 243.278631 131.219967 
L 245.503119 131.692899 
L 247.793623 132.227746 
L 250.112612 132.789868 
L 252.422094 133.342849 
L 254.684228 133.850867 
L 256.861946 134.281033 
L 258.919554 134.60554 
L 260.823315 134.803473 
L 262.541997 134.862172 
L 264.047388 134.778058 
L 265.314756 134.55686 
L 266.323257 134.213238 
L 267.056279 133.76982 
L 267.501719 133.255721 
z
" style="fill:#0000ff;stroke:#000000;stroke-linejoin:miter;"/>
   </g>
   <g id="patch_6">
    <path clip-path="url(#pefd792a0c2)" d="M 254.943102 140.819487 
L 189.711412 140.618347 
L 189.69465 146.054321 
L 254.92634 146.255461 
z
" style="fill:#999999;stroke:#000000;stroke-linejoin:miter;"/>
   </g>
   <g id="text_1">
    <!-- t = 2.3 -->
    <defs>
     <path d="M 18.3125 70.21875 
L 18.3125 54.6875 
L 36.8125 54.6875 
L 36.8125 47.703125 
L 18.3125 47.703125 
L 18.3125 18.015625 
Q 18.3125 11.328125 20.140625 9.421875 
Q 21.96875 7.515625 27.59375 7.515625 
L 36.8125 7.515625 
L 36.8125 0 
L 27.59375 0 
Q 17.1875 0 13.234375 3.875 
Q 9.28125 7.765625 9.28125 18.015625 
L 9.28125 47.703125 
L 2.6875 47.703125 
L 2.6875 54.6875 
L 9.28125 54.6875 
L 9.28125 70.21875 
z
" id="DejaVuSans-116"/>
     <path id="DejaVuSans-32"/>
     <path d="M 10.59375 45.40625 
L 73.1875 45.40625 
L 73.1875 37.203125 
L 10.59375 37.203125 
z
M 10.59375 25.484375 
L 73.1875 25.484375 
L 73.1875 17.1875 
L 10.59375 17.1875 
z
" id="DejaVuSans-61"/>
     <path d="M 19.1875 8.296875 
L 53.609375 8.296875 
L 53.609375 0 
L 7.328125 0 
L 7.328125 8.296875 
Q 12.9375 14.109375 22.625 23.890625 
Q 32.328125 33.6875 34.8125 36.53125 
Q 39.546875 41.84375 41.421875 45.53125 
Q 43.3125 49.21875 43.3125 52.78125 
Q 43.3125 58.59375 39.234375 62.25 
Q 35.15625 65.921875 28.609375 65.921875 
Q 23.96875 65.921875 18.8125 64.3125 
Q 13.671875 62.703125 7.8125 59.421875 
L 7.8125 69.390625 
Q 13.765625 71.78125 18.9375 73 
Q 24.125 74.21875 28.421875 74.21875 
Q 39.75 74.21875 46.484375 68.546875 
Q 53.21875 62.890625 53.21875 53.421875 
Q 53.21875 48.921875 51.53125 44.890625 
Q 49.859375 40.875 45.40625 35.40625 
Q 44.1875 33.984375 37.640625 27.21875 
Q 31.109375 20.453125 19.1875 8.296875 
z
" id="DejaVuSans-50"/>
     <path d="M 10.6875 12.40625 
L 21 12.40625 
L 21 0 
L 10.6875 0 
z
" id="DejaVuSans-46"/>
     <path d="M 40.578125 39.3125 
Q 47.65625 37.796875 51.625 33 
Q 55.609375 28.21875 55.609375 21.1875 
Q 55.609375 10.40625 48.1875 4.484375 
Q 40.765625 -1.421875 27.09375 -1.421875 
Q 22.515625 -1.421875 17.65625 -0.515625 
Q 12.796875 0.390625 7.625 2.203125 
L 7.625 11.71875 
Q 11.71875 9.328125 16.59375 8.109375 
Q 21.484375 6.890625 26.8125 6.890625 
Q 36.078125 6.890625 40.9375 10.546875 
Q 45.796875 14.203125 45.796875 21.1875 
Q 45.796875 27.640625 41.28125 31.265625 
Q 36.765625 34.90625 28.71875 34.90625 
L 20.21875 34.90625 
L 20.21875 43.015625 
L 29.109375 43.015625 
Q 36.375 43.015625 40.234375 45.921875 
Q 44.09375 48.828125 44.09375 54.296875 
Q 44.09375 59.90625 40.109375 62.90625 
Q 36.140625 65.921875 28.71875 65.921875 
Q 24.65625 65.921875 20.015625 65.03125 
Q 15.375 64.15625 9.8125 62.3125 
L 9.8125 71.09375 
Q 15.4375 72.65625 20.34375 73.4375 
Q 25.25 74.21875 29.59375 74.21875 
Q 40.828125 74.21875 47.359375 69.109375 
Q 53.90625 64.015625 53.90625 55.328125 
Q 53.90625 49.265625 50.4375 45.09375 
Q 46.96875 40.921875 40.578125 39.3125 
z
" id="DejaVuSans-51"/>
    </defs>
    <g transform="translate(200.664375 28.56)scale(0.12 -0.12)">
     <use xlink:href="#DejaVuSans-116"/>
     <use x="39.208984" xlink:href="#DejaVuSans-32"/>
     <use x="70.996094" xlink:href="#DejaVuSans-61"/>
     <use x="154.785156" xlink:href="#DejaVuSans-32"/>
     <use x="186.572266" xlink:href="#DejaVuSans-50"/>
     <use x="250.195312" xlink:href="#DejaVuSans-46"/>
     <use x="281.982422" xlink:href="#DejaVuSans-51"/>
    </g>
   </g>
  </g>
 </g>
 <defs>
  <clipPath id="pefd792a0c2">
   <rect height="217.44" width="334.8" x="54" y="34.56"/>
  </clipPath>
 </defs>
</svg>
