<?xml version="1.0" encoding="utf-8" standalone="no"?>
<!DOCTYPE svg PUBLIC "-//W3C//DTD SVG 1.1//EN"
  "http://www.w3.org/Graphics/SVG/1.1/DTD/svg11.dtd">
<!-- Created with matplotlib (https://matplotlib.org/) -->
<svg height="288pt" version="1.1" viewBox="0 0 432 288" width="432pt" xmlns="http://www.w3.org/2000/svg" xmlns:xlink="http://www.w3.org/1999/xlink">
 <defs>
  <style type="text/css">
*{stroke-linecap:butt;stroke-linejoin:round;}
  </style>
 </defs>
 <g id="figure_1">
  <g id="patch_1">
   <path d="M 0 288 
L 432 288 
L 432 0 
L 0 0 
z
" style="fill:#ffffff;"/>
  </g>
  <g id="axes_1">
   <g id="patch_2">
    <path clip-path="url(#p6d9e709d53)" d="M 194.725527 132.406531 
L 194.729978 143.27853 
L 193.642778 143.278975 
L 193.638328 132.406976 
z
" style="stroke:#000000;stroke-linejoin:miter;"/>
   </g>
   <g id="patch_3">
    <path clip-path="url(#p6d9e709d53)" d="M 249.085523 132.384279 
L 249.089973 143.256278 
L 248.002773 143.256723 
L 247.998323 132.384724 
z
" style="stroke:#000000;stroke-linejoin:miter;"/>
   </g>
   <g id="patch_4">
    <path clip-path="url(#p6d9e709d53)" d="M 212.301926 132.399336 
L 212.152935 131.847851 
L 211.708872 131.332563 
L 210.977039 130.887186 
L 209.96946 130.540868 
L 208.702688 130.316282 
L 207.197527 130.228143 
L 205.478694 130.282246 
L 203.574411 130.475087 
L 201.515942 130.794091 
L 199.337081 131.218432 
L 197.073597 131.720398 
L 194.762645 132.267201 
L 192.442161 132.823121 
L 190.150235 133.351841 
L 187.92449 133.818823 
L 185.801464 134.193567 
L 183.81601 134.451603 
L 182.000722 134.576092 
L 180.385407 134.558929 
L 178.996586 134.401269 
L 177.857069 134.113451 
L 176.985571 133.714324 
L 176.396411 133.230015 
L 176.099272 132.692212 
L 176.099045 132.136099 
L 176.395743 131.598054 
L 176.984506 131.113262 
L 177.855677 130.713422 
L 178.994958 130.424671 
L 180.383649 130.265873 
L 181.99895 130.247388 
L 183.814339 130.370392 
L 185.800004 130.626802 
L 187.923336 130.999807 
L 190.149462 131.464967 
L 192.44182 131.99181 
L 194.762759 132.54583 
L 197.074158 133.090741 
L 199.338053 133.590854 
L 201.51726 134.013411 
L 203.575989 134.33073 
L 205.48043 134.522012 
L 207.199306 134.574708 
L 208.704394 134.485336 
L 209.970982 134.259713 
L 210.978277 133.91257 
L 211.709746 133.466595 
L 212.153387 132.950944 
z
" style="fill:#0000ff;stroke:#000000;stroke-linejoin:miter;"/>
   </g>
   <g id="patch_5">
    <path clip-path="url(#p6d9e709d53)" d="M 266.661921 132.377084 
L 266.512931 131.825599 
L 266.068868 131.310311 
L 265.337034 130.864934 
L 264.329455 130.518616 
L 263.062683 130.29403 
L 261.557522 130.205891 
L 259.838689 130.259994 
L 257.934406 130.452835 
L 255.875938 130.771839 
L 253.697077 131.19618 
L 251.433592 131.698146 
L 249.12264 132.24495 
L 246.802156 132.800869 
L 244.51023 133.329589 
L 242.284486 133.796571 
L 240.16146 134.171315 
L 238.176005 134.429351 
L 236.360718 134.55384 
L 234.745402 134.536677 
L 233.356582 134.379017 
L 232.217064 134.091199 
L 231.345567 133.692072 
L 230.756407 133.207763 
L 230.459268 132.66996 
L 230.45904 132.113848 
L 230.755738 131.575802 
L 231.344502 131.09101 
L 232.215673 130.69117 
L 233.354954 130.402419 
L 234.743645 130.243622 
L 236.358946 130.225136 
L 238.174335 130.34814 
L 240.16 130.60455 
L 242.283332 130.977556 
L 244.509458 131.442715 
L 246.801816 131.969558 
L 249.122755 132.523578 
L 251.434153 133.068489 
L 253.698048 133.568602 
L 255.877255 133.991159 
L 257.935985 134.308478 
L 259.840425 134.49976 
L 261.559302 134.552456 
L 263.06439 134.463084 
L 264.330978 134.237461 
L 265.338272 133.890318 
L 266.069741 133.444343 
L 266.513382 132.928692 
z
" style="fill:#0000ff;stroke:#000000;stroke-linejoin:miter;"/>
   </g>
   <g id="patch_6">
    <path clip-path="url(#p6d9e709d53)" d="M 253.98126 140.536276 
L 188.749266 140.562978 
L 188.751491 145.998978 
L 253.983485 145.972275 
z
" style="fill:#999999;stroke:#000000;stroke-linejoin:miter;"/>
   </g>
   <g id="text_1">
    <!-- t = 2.6 -->
    <defs>
     <path d="M 18.3125 70.21875 
L 18.3125 54.6875 
L 36.8125 54.6875 
L 36.8125 47.703125 
L 18.3125 47.703125 
L 18.3125 18.015625 
Q 18.3125 11.328125 20.140625 9.421875 
Q 21.96875 7.515625 27.59375 7.515625 
L 36.8125 7.515625 
L 36.8125 0 
L 27.59375 0 
Q 17.1875 0 13.234375 3.875 
Q 9.28125 7.765625 9.28125 18.015625 
L 9.28125 47.703125 
L 2.6875 47.703125 
L 2.6875 54.6875 
L 9.28125 54.6875 
L 9.28125 70.21875 
z
" id="DejaVuSans-116"/>
     <path id="DejaVuSans-32"/>
     <path d="M 10.59375 45.40625 
L 73.1875 45.40625 
L 73.1875 37.203125 
L 10.59375 37.203125 
z
M 10.59375 25.484375 
L 73.1875 25.484375 
L 73.1875 17.1875 
L 10.59375 17.1875 
z
" id="DejaVuSans-61"/>
     <path d="M 19.1875 8.296875 
L 53.609375 8.296875 
L 53.609375 0 
L 7.328125 0 
L 7.328125 8.296875 
Q 12.9375 14.109375 22.625 23.890625 
Q 32.328125 33.6875 34.8125 36.53125 
Q 39.546875 41.84375 41.421875 45.53125 
Q 43.3125 49.21875 43.3125 52.78125 
Q 43.3125 58.59375 39.234375 62.25 
Q 35.15625 65.921875 28.609375 65.921875 
Q 23.96875 65.921875 18.8125 64.3125 
Q 13.671875 62.703125 7.8125 59.421875 
L 7.8125 69.390625 
Q 13.765625 71.78125 18.9375 73 
Q 24.125 74.21875 28.421875 74.21875 
Q 39.75 74.21875 46.484375 68.546875 
Q 53.21875 62.890625 53.21875 53.421875 
Q 53.21875 48.921875 51.53125 44.890625 
Q 49.859375 40.875 45.40625 35.40625 
Q 44.1875 33.984375 37.640625 27.21875 
Q 31.109375 20.453125 19.1875 8.296875 
z
" id="DejaVuSans-50"/>
     <path d="M 10.6875 12.40625 
L 21 12.40625 
L 21 0 
L 10.6875 0 
z
" id="DejaVuSans-46"/>
     <path d="M 33.015625 40.375 
Q 26.375 40.375 22.484375 35.828125 
Q 18.609375 31.296875 18.609375 23.390625 
Q 18.609375 15.53125 22.484375 10.953125 
Q 26.375 6.390625 33.015625 6.390625 
Q 39.65625 6.390625 43.53125 10.953125 
Q 47.40625 15.53125 47.40625 23.390625 
Q 47.40625 31.296875 43.53125 35.828125 
Q 39.65625 40.375 33.015625 40.375 
z
M 52.59375 71.296875 
L 52.59375 62.3125 
Q 48.875 64.0625 45.09375 64.984375 
Q 41.3125 65.921875 37.59375 65.921875 
Q 27.828125 65.921875 22.671875 59.328125 
Q 17.53125 52.734375 16.796875 39.40625 
Q 19.671875 43.65625 24.015625 45.921875 
Q 28.375 48.1875 33.59375 48.1875 
Q 44.578125 48.1875 50.953125 41.515625 
Q 57.328125 34.859375 57.328125 23.390625 
Q 57.328125 12.15625 50.6875 5.359375 
Q 44.046875 -1.421875 33.015625 -1.421875 
Q 20.359375 -1.421875 13.671875 8.265625 
Q 6.984375 17.96875 6.984375 36.375 
Q 6.984375 53.65625 15.1875 63.9375 
Q 23.390625 74.21875 37.203125 74.21875 
Q 40.921875 74.21875 44.703125 73.484375 
Q 48.484375 72.75 52.59375 71.296875 
z
" id="DejaVuSans-54"/>
    </defs>
    <g transform="translate(200.664375 28.56)scale(0.12 -0.12)">
     <use xlink:href="#DejaVuSans-116"/>
     <use x="39.208984" xlink:href="#DejaVuSans-32"/>
     <use x="70.996094" xlink:href="#DejaVuSans-61"/>
     <use x="154.785156" xlink:href="#DejaVuSans-32"/>
     <use x="186.572266" xlink:href="#DejaVuSans-50"/>
     <use x="250.195312" xlink:href="#DejaVuSans-46"/>
     <use x="281.982422" xlink:href="#DejaVuSans-54"/>
    </g>
   </g>
  </g>
 </g>
 <defs>
  <clipPath id="p6d9e709d53">
   <rect height="217.44" width="334.8" x="54" y="34.56"/>
  </clipPath>
 </defs>
</svg>
