<?xml version="1.0" encoding="utf-8" standalone="no"?>
<!DOCTYPE svg PUBLIC "-//W3C//DTD SVG 1.1//EN"
  "http://www.w3.org/Graphics/SVG/1.1/DTD/svg11.dtd">
<!-- Created with matplotlib (https://matplotlib.org/) -->
<svg height="288pt" version="1.1" viewBox="0 0 432 288" width="432pt" xmlns="http://www.w3.org/2000/svg" xmlns:xlink="http://www.w3.org/1999/xlink">
 <defs>
  <style type="text/css">
*{stroke-linecap:butt;stroke-linejoin:round;}
  </style>
 </defs>
 <g id="figure_1">
  <g id="patch_1">
   <path d="M 0 288 
L 432 288 
L 432 0 
L 0 0 
z
" style="fill:#ffffff;"/>
  </g>
  <g id="axes_1">
   <g id="patch_2">
    <path clip-path="url(#p667ef7f60f)" d="M 194.671346 132.443513 
L 194.680718 143.315509 
L 193.593518 143.316446 
L 193.584147 132.44445 
z
" style="stroke:#000000;stroke-linejoin:miter;"/>
   </g>
   <g id="patch_3">
    <path clip-path="url(#p667ef7f60f)" d="M 249.031326 132.396656 
L 249.040698 143.268652 
L 247.953498 143.269589 
L 247.944127 132.397593 
z
" style="stroke:#000000;stroke-linejoin:miter;"/>
   </g>
   <g id="patch_4">
    <path clip-path="url(#p667ef7f60f)" d="M 212.24774 132.428363 
L 212.098499 131.876945 
L 211.654203 131.361858 
L 210.922168 130.916813 
L 209.914433 130.570951 
L 208.647559 130.346938 
L 207.142359 130.25948 
L 205.42355 130.314361 
L 203.519355 130.508064 
L 201.46103 130.828 
L 199.282362 131.253327 
L 197.019105 131.756318 
L 194.708401 132.304167 
L 192.388168 132.861137 
L 190.096482 133.390894 
L 187.870949 133.858883 
L 185.748093 134.234588 
L 183.762755 134.493523 
L 181.947525 134.618834 
L 180.332201 134.602402 
L 178.94331 134.44537 
L 177.803662 134.158068 
L 176.931984 133.759336 
L 176.342605 133.275293 
L 176.045222 132.737625 
L 176.044743 132.181513 
L 176.341198 131.643333 
L 176.929742 131.158274 
L 177.800731 130.75804 
L 178.939882 130.468774 
L 180.328501 130.309348 
L 181.943793 130.290131 
L 183.759238 130.412313 
L 185.745019 130.667824 
L 187.868519 131.039869 
L 190.094855 131.504021 
L 192.387452 132.029827 
L 194.708641 132.582796 
L 197.020286 133.12666 
L 199.284407 133.625749 
L 201.463805 134.047319 
L 203.522678 134.363706 
L 205.427205 134.554126 
L 207.146105 134.606044 
L 208.651153 134.515991 
L 209.917638 134.289794 
L 210.924776 133.942196 
L 211.656043 133.49589 
L 212.09945 132.980037 
z
" style="fill:#0000ff;stroke:#000000;stroke-linejoin:miter;"/>
   </g>
   <g id="patch_5">
    <path clip-path="url(#p667ef7f60f)" d="M 266.60772 132.381506 
L 266.458479 131.830088 
L 266.014183 131.315001 
L 265.282148 130.869956 
L 264.274413 130.524094 
L 263.007539 130.300081 
L 261.502338 130.212623 
L 259.78353 130.267504 
L 257.879334 130.461207 
L 255.82101 130.781143 
L 253.642342 131.20647 
L 251.379085 131.709461 
L 249.068381 132.25731 
L 246.748148 132.81428 
L 244.456462 133.344037 
L 242.230929 133.812026 
L 240.108073 134.187731 
L 238.122735 134.446666 
L 236.307504 134.571977 
L 234.692181 134.555545 
L 233.303289 134.398513 
L 232.163642 134.111211 
L 231.291964 133.712479 
L 230.702584 133.228436 
L 230.405202 132.690768 
L 230.404723 132.134656 
L 230.701178 131.596476 
L 231.289722 131.111417 
L 232.160711 130.711183 
L 233.299862 130.421917 
L 234.68848 130.262491 
L 236.303773 130.243274 
L 238.119217 130.365456 
L 240.104998 130.620967 
L 242.228499 130.993012 
L 244.454835 131.457164 
L 246.747431 131.982969 
L 249.068621 132.535938 
L 251.380266 133.079803 
L 253.644387 133.578891 
L 255.823785 134.000462 
L 257.882658 134.316849 
L 259.787185 134.507269 
L 261.506085 134.559187 
L 263.011133 134.469134 
L 264.277618 134.242937 
L 265.284756 133.895339 
L 266.016022 133.449033 
L 266.45943 132.93318 
z
" style="fill:#0000ff;stroke:#000000;stroke-linejoin:miter;"/>
   </g>
   <g id="patch_6">
    <path clip-path="url(#p667ef7f60f)" d="M 253.930753 140.546436 
L 188.698777 140.602665 
L 188.703463 146.038663 
L 253.935439 145.982434 
z
" style="fill:#999999;stroke:#000000;stroke-linejoin:miter;"/>
   </g>
   <g id="text_1">
    <!-- t = 2.9 -->
    <defs>
     <path d="M 18.3125 70.21875 
L 18.3125 54.6875 
L 36.8125 54.6875 
L 36.8125 47.703125 
L 18.3125 47.703125 
L 18.3125 18.015625 
Q 18.3125 11.328125 20.140625 9.421875 
Q 21.96875 7.515625 27.59375 7.515625 
L 36.8125 7.515625 
L 36.8125 0 
L 27.59375 0 
Q 17.1875 0 13.234375 3.875 
Q 9.28125 7.765625 9.28125 18.015625 
L 9.28125 47.703125 
L 2.6875 47.703125 
L 2.6875 54.6875 
L 9.28125 54.6875 
L 9.28125 70.21875 
z
" id="DejaVuSans-116"/>
     <path id="DejaVuSans-32"/>
     <path d="M 10.59375 45.40625 
L 73.1875 45.40625 
L 73.1875 37.203125 
L 10.59375 37.203125 
z
M 10.59375 25.484375 
L 73.1875 25.484375 
L 73.1875 17.1875 
L 10.59375 17.1875 
z
" id="DejaVuSans-61"/>
     <path d="M 19.1875 8.296875 
L 53.609375 8.296875 
L 53.609375 0 
L 7.328125 0 
L 7.328125 8.296875 
Q 12.9375 14.109375 22.625 23.890625 
Q 32.328125 33.6875 34.8125 36.53125 
Q 39.546875 41.84375 41.421875 45.53125 
Q 43.3125 49.21875 43.3125 52.78125 
Q 43.3125 58.59375 39.234375 62.25 
Q 35.15625 65.921875 28.609375 65.921875 
Q 23.96875 65.921875 18.8125 64.3125 
Q 13.671875 62.703125 7.8125 59.421875 
L 7.8125 69.390625 
Q 13.765625 71.78125 18.9375 73 
Q 24.125 74.21875 28.421875 74.21875 
Q 39.75 74.21875 46.484375 68.546875 
Q 53.21875 62.890625 53.21875 53.421875 
Q 53.21875 48.921875 51.53125 44.890625 
Q 49.859375 40.875 45.40625 35.40625 
Q 44.1875 33.984375 37.640625 27.21875 
Q 31.109375 20.453125 19.1875 8.296875 
z
" id="DejaVuSans-50"/>
     <path d="M 10.6875 12.40625 
L 21 12.40625 
L 21 0 
L 10.6875 0 
z
" id="DejaVuSans-46"/>
     <path d="M 10.984375 1.515625 
L 10.984375 10.5 
Q 14.703125 8.734375 18.5 7.8125 
Q 22.3125 6.890625 25.984375 6.890625 
Q 35.75 6.890625 40.890625 13.453125 
Q 46.046875 20.015625 46.78125 33.40625 
Q 43.953125 29.203125 39.59375 26.953125 
Q 35.25 24.703125 29.984375 24.703125 
Q 19.046875 24.703125 12.671875 31.3125 
Q 6.296875 37.9375 6.296875 49.421875 
Q 6.296875 60.640625 12.9375 67.421875 
Q 19.578125 74.21875 30.609375 74.21875 
Q 43.265625 74.21875 49.921875 64.515625 
Q 56.59375 54.828125 56.59375 36.375 
Q 56.59375 19.140625 48.40625 8.859375 
Q 40.234375 -1.421875 26.421875 -1.421875 
Q 22.703125 -1.421875 18.890625 -0.6875 
Q 15.09375 0.046875 10.984375 1.515625 
z
M 30.609375 32.421875 
Q 37.25 32.421875 41.125 36.953125 
Q 45.015625 41.5 45.015625 49.421875 
Q 45.015625 57.28125 41.125 61.84375 
Q 37.25 66.40625 30.609375 66.40625 
Q 23.96875 66.40625 20.09375 61.84375 
Q 16.21875 57.28125 16.21875 49.421875 
Q 16.21875 41.5 20.09375 36.953125 
Q 23.96875 32.421875 30.609375 32.421875 
z
" id="DejaVuSans-57"/>
    </defs>
    <g transform="translate(200.664375 28.56)scale(0.12 -0.12)">
     <use xlink:href="#DejaVuSans-116"/>
     <use x="39.208984" xlink:href="#DejaVuSans-32"/>
     <use x="70.996094" xlink:href="#DejaVuSans-61"/>
     <use x="154.785156" xlink:href="#DejaVuSans-32"/>
     <use x="186.572266" xlink:href="#DejaVuSans-50"/>
     <use x="250.195312" xlink:href="#DejaVuSans-46"/>
     <use x="281.982422" xlink:href="#DejaVuSans-57"/>
    </g>
   </g>
  </g>
 </g>
 <defs>
  <clipPath id="p667ef7f60f">
   <rect height="217.44" width="334.8" x="54" y="34.56"/>
  </clipPath>
 </defs>
</svg>
