<?xml version="1.0" encoding="utf-8" standalone="no"?>
<!DOCTYPE svg PUBLIC "-//W3C//DTD SVG 1.1//EN"
  "http://www.w3.org/Graphics/SVG/1.1/DTD/svg11.dtd">
<!-- Created with matplotlib (https://matplotlib.org/) -->
<svg height="288pt" version="1.1" viewBox="0 0 432 288" width="432pt" xmlns="http://www.w3.org/2000/svg" xmlns:xlink="http://www.w3.org/1999/xlink">
 <defs>
  <style type="text/css">
*{stroke-linecap:butt;stroke-linejoin:round;}
  </style>
 </defs>
 <g id="figure_1">
  <g id="patch_1">
   <path d="M 0 288 
L 432 288 
L 432 0 
L 0 0 
z
" style="fill:#ffffff;"/>
  </g>
  <g id="axes_1">
   <g id="patch_2">
    <path clip-path="url(#pb482b7b4df)" d="M 194.543135 132.474257 
L 194.556828 143.346248 
L 193.469629 143.347618 
L 193.455936 132.475626 
z
" style="stroke:#000000;stroke-linejoin:miter;"/>
   </g>
   <g id="patch_3">
    <path clip-path="url(#pb482b7b4df)" d="M 248.903092 132.405792 
L 248.916785 143.277783 
L 247.829586 143.279152 
L 247.815893 132.407161 
z
" style="stroke:#000000;stroke-linejoin:miter;"/>
   </g>
   <g id="patch_4">
    <path clip-path="url(#pb482b7b4df)" d="M 212.119521 132.45212 
L 211.970062 131.900761 
L 211.525561 131.385851 
L 210.793349 130.941097 
L 209.785476 130.595636 
L 208.518513 130.372126 
L 207.013278 130.285267 
L 205.294492 130.340831 
L 203.390373 130.535291 
L 201.332177 130.856045 
L 199.153677 131.282238 
L 196.89062 131.786129 
L 194.580134 132.334896 
L 192.260123 132.892788 
L 189.968648 133.423456 
L 187.743301 133.89233 
L 185.620594 134.268879 
L 183.63536 134.528603 
L 181.820179 134.654636 
L 180.204849 134.638846 
L 178.815895 134.482366 
L 177.676134 134.195517 
L 176.804297 133.797131 
L 176.214725 133.313323 
L 175.91713 132.775773 
L 175.916429 132.219661 
L 176.21267 131.681363 
L 176.801021 131.19607 
L 177.671851 130.79549 
L 178.810887 130.505771 
L 180.199442 130.345793 
L 181.814727 130.325934 
L 183.63022 130.447394 
L 185.616102 130.702117 
L 187.73975 131.073317 
L 189.966271 131.536584 
L 192.259076 132.061478 
L 194.580485 132.613524 
L 196.892346 133.15647 
L 199.156665 133.654658 
L 201.336231 134.075363 
L 203.395229 134.390931 
L 205.299832 134.580594 
L 207.018753 134.631829 
L 208.523764 134.541178 
L 209.79016 134.314478 
L 210.797159 133.966479 
L 211.528248 133.519882 
L 211.971451 133.003853 
z
" style="fill:#0000ff;stroke:#000000;stroke-linejoin:miter;"/>
   </g>
   <g id="patch_5">
    <path clip-path="url(#pb482b7b4df)" d="M 266.479478 132.383654 
L 266.330019 131.832296 
L 265.885518 131.317385 
L 265.153306 130.872631 
L 264.145433 130.52717 
L 262.87847 130.303661 
L 261.373235 130.216801 
L 259.654449 130.272366 
L 257.75033 130.466826 
L 255.692133 130.787579 
L 253.513634 131.213773 
L 251.250577 131.717663 
L 248.940091 132.266431 
L 246.62008 132.824323 
L 244.328605 133.354991 
L 242.103258 133.823865 
L 239.980551 134.200413 
L 237.995317 134.460137 
L 236.180136 134.58617 
L 234.564806 134.57038 
L 233.175852 134.4139 
L 232.036091 134.127051 
L 231.164254 133.728666 
L 230.574682 133.244857 
L 230.277086 132.707307 
L 230.276386 132.151195 
L 230.572627 131.612897 
L 231.160978 131.127605 
L 232.031808 130.727025 
L 233.170844 130.437306 
L 234.559399 130.277328 
L 236.174684 130.257469 
L 237.990177 130.378929 
L 239.976059 130.633651 
L 242.099707 131.004851 
L 244.326228 131.468119 
L 246.619033 131.993013 
L 248.940442 132.545059 
L 251.252303 133.088005 
L 253.516622 133.586193 
L 255.696188 134.006898 
L 257.755186 134.322466 
L 259.659789 134.512129 
L 261.37871 134.563363 
L 262.883721 134.472712 
L 264.150117 134.246012 
L 265.157116 133.898013 
L 265.888205 133.451416 
L 266.331408 132.935388 
z
" style="fill:#0000ff;stroke:#000000;stroke-linejoin:miter;"/>
   </g>
   <g id="patch_6">
    <path clip-path="url(#pb482b7b4df)" d="M 253.805758 140.553623 
L 188.57381 140.635782 
L 188.580656 146.071778 
L 253.812604 145.989619 
z
" style="fill:#999999;stroke:#000000;stroke-linejoin:miter;"/>
   </g>
   <g id="text_1">
    <!-- t = 2.6 -->
    <defs>
     <path d="M 18.3125 70.21875 
L 18.3125 54.6875 
L 36.8125 54.6875 
L 36.8125 47.703125 
L 18.3125 47.703125 
L 18.3125 18.015625 
Q 18.3125 11.328125 20.140625 9.421875 
Q 21.96875 7.515625 27.59375 7.515625 
L 36.8125 7.515625 
L 36.8125 0 
L 27.59375 0 
Q 17.1875 0 13.234375 3.875 
Q 9.28125 7.765625 9.28125 18.015625 
L 9.28125 47.703125 
L 2.6875 47.703125 
L 2.6875 54.6875 
L 9.28125 54.6875 
L 9.28125 70.21875 
z
" id="DejaVuSans-116"/>
     <path id="DejaVuSans-32"/>
     <path d="M 10.59375 45.40625 
L 73.1875 45.40625 
L 73.1875 37.203125 
L 10.59375 37.203125 
z
M 10.59375 25.484375 
L 73.1875 25.484375 
L 73.1875 17.1875 
L 10.59375 17.1875 
z
" id="DejaVuSans-61"/>
     <path d="M 19.1875 8.296875 
L 53.609375 8.296875 
L 53.609375 0 
L 7.328125 0 
L 7.328125 8.296875 
Q 12.9375 14.109375 22.625 23.890625 
Q 32.328125 33.6875 34.8125 36.53125 
Q 39.546875 41.84375 41.421875 45.53125 
Q 43.3125 49.21875 43.3125 52.78125 
Q 43.3125 58.59375 39.234375 62.25 
Q 35.15625 65.921875 28.609375 65.921875 
Q 23.96875 65.921875 18.8125 64.3125 
Q 13.671875 62.703125 7.8125 59.421875 
L 7.8125 69.390625 
Q 13.765625 71.78125 18.9375 73 
Q 24.125 74.21875 28.421875 74.21875 
Q 39.75 74.21875 46.484375 68.546875 
Q 53.21875 62.890625 53.21875 53.421875 
Q 53.21875 48.921875 51.53125 44.890625 
Q 49.859375 40.875 45.40625 35.40625 
Q 44.1875 33.984375 37.640625 27.21875 
Q 31.109375 20.453125 19.1875 8.296875 
z
" id="DejaVuSans-50"/>
     <path d="M 10.6875 12.40625 
L 21 12.40625 
L 21 0 
L 10.6875 0 
z
" id="DejaVuSans-46"/>
     <path d="M 33.015625 40.375 
Q 26.375 40.375 22.484375 35.828125 
Q 18.609375 31.296875 18.609375 23.390625 
Q 18.609375 15.53125 22.484375 10.953125 
Q 26.375 6.390625 33.015625 6.390625 
Q 39.65625 6.390625 43.53125 10.953125 
Q 47.40625 15.53125 47.40625 23.390625 
Q 47.40625 31.296875 43.53125 35.828125 
Q 39.65625 40.375 33.015625 40.375 
z
M 52.59375 71.296875 
L 52.59375 62.3125 
Q 48.875 64.0625 45.09375 64.984375 
Q 41.3125 65.921875 37.59375 65.921875 
Q 27.828125 65.921875 22.671875 59.328125 
Q 17.53125 52.734375 16.796875 39.40625 
Q 19.671875 43.65625 24.015625 45.921875 
Q 28.375 48.1875 33.59375 48.1875 
Q 44.578125 48.1875 50.953125 41.515625 
Q 57.328125 34.859375 57.328125 23.390625 
Q 57.328125 12.15625 50.6875 5.359375 
Q 44.046875 -1.421875 33.015625 -1.421875 
Q 20.359375 -1.421875 13.671875 8.265625 
Q 6.984375 17.96875 6.984375 36.375 
Q 6.984375 53.65625 15.1875 63.9375 
Q 23.390625 74.21875 37.203125 74.21875 
Q 40.921875 74.21875 44.703125 73.484375 
Q 48.484375 72.75 52.59375 71.296875 
z
" id="DejaVuSans-54"/>
    </defs>
    <g transform="translate(200.664375 28.56)scale(0.12 -0.12)">
     <use xlink:href="#DejaVuSans-116"/>
     <use x="39.208984" xlink:href="#DejaVuSans-32"/>
     <use x="70.996094" xlink:href="#DejaVuSans-61"/>
     <use x="154.785156" xlink:href="#DejaVuSans-32"/>
     <use x="186.572266" xlink:href="#DejaVuSans-50"/>
     <use x="250.195312" xlink:href="#DejaVuSans-46"/>
     <use x="281.982422" xlink:href="#DejaVuSans-54"/>
    </g>
   </g>
  </g>
 </g>
 <defs>
  <clipPath id="pb482b7b4df">
   <rect height="217.44" width="334.8" x="54" y="34.56"/>
  </clipPath>
 </defs>
</svg>
