<?xml version="1.0" encoding="utf-8" standalone="no"?>
<!DOCTYPE svg PUBLIC "-//W3C//DTD SVG 1.1//EN"
  "http://www.w3.org/Graphics/SVG/1.1/DTD/svg11.dtd">
<!-- Created with matplotlib (https://matplotlib.org/) -->
<svg height="288pt" version="1.1" viewBox="0 0 432 288" width="432pt" xmlns="http://www.w3.org/2000/svg" xmlns:xlink="http://www.w3.org/1999/xlink">
 <defs>
  <style type="text/css">
*{stroke-linecap:butt;stroke-linejoin:round;}
  </style>
 </defs>
 <g id="figure_1">
  <g id="patch_1">
   <path d="M 0 288 
L 432 288 
L 432 0 
L 0 0 
z
" style="fill:#ffffff;"/>
  </g>
  <g id="axes_1">
   <g id="patch_2">
    <path clip-path="url(#p759a1ae945)" d="M 194.406326 132.394498 
L 194.396731 143.266494 
L 193.309532 143.265535 
L 193.319126 132.393539 
z
" style="stroke:#000000;stroke-linejoin:miter;"/>
   </g>
   <g id="patch_3">
    <path clip-path="url(#p759a1ae945)" d="M 248.766305 132.442472 
L 248.75671 143.314468 
L 247.66951 143.313508 
L 247.679105 132.441513 
z
" style="stroke:#000000;stroke-linejoin:miter;"/>
   </g>
   <g id="patch_4">
    <path clip-path="url(#p759a1ae945)" d="M 211.982719 132.41001 
L 211.834441 131.858332 
L 211.391044 131.342471 
L 210.659786 130.89615 
L 209.652656 130.54853 
L 208.386175 130.322308 
L 206.881129 130.232224 
L 205.162228 130.284106 
L 203.257697 130.474487 
L 201.198818 130.790832 
L 199.019411 131.212358 
L 196.75528 131.7114 
L 194.443623 132.255217 
L 192.122423 132.808138 
L 189.829816 133.333897 
L 187.60347 133.798003 
L 185.479962 134.170004 
L 183.494175 134.425475 
L 181.678729 134.547619 
L 180.063436 134.528369 
L 178.674821 134.368914 
L 177.535676 134.079625 
L 176.664695 133.679373 
L 176.076161 133.194302 
L 175.779717 132.656116 
L 175.780208 132.100004 
L 176.077601 131.562342 
L 176.66699 131.078311 
L 177.538677 130.679597 
L 178.67833 130.392318 
L 180.067225 130.235315 
L 181.682549 130.218916 
L 183.497777 130.344265 
L 185.483109 130.60324 
L 187.605958 130.978988 
L 189.831481 131.447024 
L 192.123156 131.976828 
L 194.443378 132.533845 
L 196.75407 133.081742 
L 199.017317 133.584779 
L 201.195977 134.010151 
L 203.254294 134.330129 
L 205.158486 134.523871 
L 206.877293 134.578788 
L 208.382496 134.491361 
L 209.649374 134.267374 
L 210.657116 133.921533 
L 211.389161 133.476503 
L 211.833467 132.961425 
z
" style="fill:#0000ff;stroke:#000000;stroke-linejoin:miter;"/>
   </g>
   <g id="patch_5">
    <path clip-path="url(#p759a1ae945)" d="M 266.342698 132.457983 
L 266.19442 131.906306 
L 265.751023 131.390445 
L 265.019765 130.944123 
L 264.012635 130.596504 
L 262.746154 130.370281 
L 261.241108 130.280198 
L 259.522207 130.33208 
L 257.617676 130.522461 
L 255.558797 130.838805 
L 253.37939 131.260332 
L 251.115259 131.759373 
L 248.803602 132.303191 
L 246.482402 132.856112 
L 244.189795 133.38187 
L 241.963449 133.845977 
L 239.839941 134.217978 
L 237.854154 134.473448 
L 236.038708 134.595593 
L 234.423415 134.576343 
L 233.0348 134.416888 
L 231.895655 134.127598 
L 231.024674 133.727347 
L 230.43614 133.242276 
L 230.139696 132.70409 
L 230.140187 132.147978 
L 230.43758 131.610316 
L 231.026969 131.126285 
L 231.898656 130.727571 
L 233.038309 130.440292 
L 234.427204 130.283289 
L 236.042528 130.26689 
L 237.857756 130.392238 
L 239.843088 130.651214 
L 241.965937 131.026962 
L 244.19146 131.494997 
L 246.483135 132.024802 
L 248.803356 132.581819 
L 251.114049 133.129715 
L 253.377296 133.632753 
L 255.555956 134.058125 
L 257.614273 134.378103 
L 259.518465 134.571845 
L 261.237272 134.626762 
L 262.742475 134.539334 
L 264.009353 134.315347 
L 265.017095 133.969506 
L 265.749139 133.524476 
L 266.193446 133.009399 
z
" style="fill:#0000ff;stroke:#000000;stroke-linejoin:miter;"/>
   </g>
   <g id="patch_6">
    <path clip-path="url(#p759a1ae945)" d="M 253.651507 140.600786 
L 188.419532 140.543218 
L 188.414735 145.979216 
L 253.646709 146.036784 
z
" style="fill:#999999;stroke:#000000;stroke-linejoin:miter;"/>
   </g>
   <g id="text_1">
    <!-- t = 2.5 -->
    <defs>
     <path d="M 18.3125 70.21875 
L 18.3125 54.6875 
L 36.8125 54.6875 
L 36.8125 47.703125 
L 18.3125 47.703125 
L 18.3125 18.015625 
Q 18.3125 11.328125 20.140625 9.421875 
Q 21.96875 7.515625 27.59375 7.515625 
L 36.8125 7.515625 
L 36.8125 0 
L 27.59375 0 
Q 17.1875 0 13.234375 3.875 
Q 9.28125 7.765625 9.28125 18.015625 
L 9.28125 47.703125 
L 2.6875 47.703125 
L 2.6875 54.6875 
L 9.28125 54.6875 
L 9.28125 70.21875 
z
" id="DejaVuSans-116"/>
     <path id="DejaVuSans-32"/>
     <path d="M 10.59375 45.40625 
L 73.1875 45.40625 
L 73.1875 37.203125 
L 10.59375 37.203125 
z
M 10.59375 25.484375 
L 73.1875 25.484375 
L 73.1875 17.1875 
L 10.59375 17.1875 
z
" id="DejaVuSans-61"/>
     <path d="M 19.1875 8.296875 
L 53.609375 8.296875 
L 53.609375 0 
L 7.328125 0 
L 7.328125 8.296875 
Q 12.9375 14.109375 22.625 23.890625 
Q 32.328125 33.6875 34.8125 36.53125 
Q 39.546875 41.84375 41.421875 45.53125 
Q 43.3125 49.21875 43.3125 52.78125 
Q 43.3125 58.59375 39.234375 62.25 
Q 35.15625 65.921875 28.609375 65.921875 
Q 23.96875 65.921875 18.8125 64.3125 
Q 13.671875 62.703125 7.8125 59.421875 
L 7.8125 69.390625 
Q 13.765625 71.78125 18.9375 73 
Q 24.125 74.21875 28.421875 74.21875 
Q 39.75 74.21875 46.484375 68.546875 
Q 53.21875 62.890625 53.21875 53.421875 
Q 53.21875 48.921875 51.53125 44.890625 
Q 49.859375 40.875 45.40625 35.40625 
Q 44.1875 33.984375 37.640625 27.21875 
Q 31.109375 20.453125 19.1875 8.296875 
z
" id="DejaVuSans-50"/>
     <path d="M 10.6875 12.40625 
L 21 12.40625 
L 21 0 
L 10.6875 0 
z
" id="DejaVuSans-46"/>
     <path d="M 10.796875 72.90625 
L 49.515625 72.90625 
L 49.515625 64.59375 
L 19.828125 64.59375 
L 19.828125 46.734375 
Q 21.96875 47.46875 24.109375 47.828125 
Q 26.265625 48.1875 28.421875 48.1875 
Q 40.625 48.1875 47.75 41.5 
Q 54.890625 34.8125 54.890625 23.390625 
Q 54.890625 11.625 47.5625 5.09375 
Q 40.234375 -1.421875 26.90625 -1.421875 
Q 22.3125 -1.421875 17.546875 -0.640625 
Q 12.796875 0.140625 7.71875 1.703125 
L 7.71875 11.625 
Q 12.109375 9.234375 16.796875 8.0625 
Q 21.484375 6.890625 26.703125 6.890625 
Q 35.15625 6.890625 40.078125 11.328125 
Q 45.015625 15.765625 45.015625 23.390625 
Q 45.015625 31 40.078125 35.4375 
Q 35.15625 39.890625 26.703125 39.890625 
Q 22.75 39.890625 18.8125 39.015625 
Q 14.890625 38.140625 10.796875 36.28125 
z
" id="DejaVuSans-53"/>
    </defs>
    <g transform="translate(200.664375 28.56)scale(0.12 -0.12)">
     <use xlink:href="#DejaVuSans-116"/>
     <use x="39.208984" xlink:href="#DejaVuSans-32"/>
     <use x="70.996094" xlink:href="#DejaVuSans-61"/>
     <use x="154.785156" xlink:href="#DejaVuSans-32"/>
     <use x="186.572266" xlink:href="#DejaVuSans-50"/>
     <use x="250.195312" xlink:href="#DejaVuSans-46"/>
     <use x="281.982422" xlink:href="#DejaVuSans-53"/>
    </g>
   </g>
  </g>
 </g>
 <defs>
  <clipPath id="p759a1ae945">
   <rect height="217.44" width="334.8" x="54" y="34.56"/>
  </clipPath>
 </defs>
</svg>
