<?xml version="1.0" encoding="utf-8" standalone="no"?>
<!DOCTYPE svg PUBLIC "-//W3C//DTD SVG 1.1//EN"
  "http://www.w3.org/Graphics/SVG/1.1/DTD/svg11.dtd">
<!-- Created with matplotlib (https://matplotlib.org/) -->
<svg height="288pt" version="1.1" viewBox="0 0 432 288" width="432pt" xmlns="http://www.w3.org/2000/svg" xmlns:xlink="http://www.w3.org/1999/xlink">
 <defs>
  <style type="text/css">
*{stroke-linecap:butt;stroke-linejoin:round;}
  </style>
 </defs>
 <g id="figure_1">
  <g id="patch_1">
   <path d="M 0 288 
L 432 288 
L 432 0 
L 0 0 
z
" style="fill:#ffffff;"/>
  </g>
  <g id="axes_1">
   <g id="patch_2">
    <path clip-path="url(#p443027197c)" d="M 194.134221 132.570212 
L 194.129483 143.442211 
L 193.042283 143.441737 
L 193.047021 132.569739 
z
" style="stroke:#000000;stroke-linejoin:miter;"/>
   </g>
   <g id="patch_3">
    <path clip-path="url(#p443027197c)" d="M 248.494216 132.593905 
L 248.489478 143.465904 
L 247.402278 143.46543 
L 247.407016 132.593431 
z
" style="stroke:#000000;stroke-linejoin:miter;"/>
   </g>
   <g id="patch_4">
    <path clip-path="url(#p443027197c)" d="M 211.71062 132.577873 
L 211.562095 132.026262 
L 211.118468 131.510599 
L 210.387011 131.064604 
L 209.379725 130.717435 
L 208.113143 130.491777 
L 206.608058 130.402366 
L 204.889179 130.455016 
L 202.984734 130.646248 
L 200.925996 130.963512 
L 198.746778 131.386012 
L 196.48287 131.886065 
L 194.171457 132.430914 
L 191.850503 132.984872 
L 189.558131 133.511655 
L 187.331993 133.976756 
L 185.208651 134.349705 
L 183.222979 134.606063 
L 181.407587 134.729018 
L 179.792286 134.71049 
L 178.4036 134.551655 
L 177.264326 134.262874 
L 176.393166 133.863012 
L 175.804415 133.378204 
L 175.507731 132.84015 
L 175.507974 132.284038 
L 175.805127 131.746243 
L 176.3943 131.261949 
L 177.265808 130.862846 
L 178.405333 130.575058 
L 179.794157 130.417434 
L 181.409474 130.400314 
L 183.224758 130.524852 
L 185.210206 130.78294 
L 187.333221 131.15774 
L 189.558954 131.624781 
L 191.850865 132.153562 
L 194.171335 132.709543 
L 196.482273 133.256407 
L 198.745744 133.758433 
L 200.924593 134.182833 
L 202.983054 134.501891 
L 204.887331 134.694783 
L 206.606163 134.748931 
L 208.111326 134.660832 
L 209.378104 134.436279 
L 210.385692 134.089988 
L 211.117538 133.644631 
L 211.561614 133.129355 
z
" style="fill:#0000ff;stroke:#000000;stroke-linejoin:miter;"/>
   </g>
   <g id="patch_5">
    <path clip-path="url(#p443027197c)" d="M 266.070614 132.601566 
L 265.92209 132.049955 
L 265.478462 131.534291 
L 264.747006 131.088297 
L 263.73972 130.741127 
L 262.473138 130.51547 
L 260.968052 130.426059 
L 259.249174 130.478709 
L 257.344729 130.669941 
L 255.285991 130.987205 
L 253.106773 131.409704 
L 250.842865 131.909757 
L 248.531451 132.454607 
L 246.210498 133.008565 
L 243.918126 133.535348 
L 241.691988 134.000448 
L 239.568646 134.373398 
L 237.582974 134.629755 
L 235.767582 134.752711 
L 234.152281 134.734182 
L 232.763595 134.575348 
L 231.624321 134.286567 
L 230.753161 133.886704 
L 230.16441 133.401897 
L 229.867726 132.863843 
L 229.867969 132.307731 
L 230.165122 131.769936 
L 230.754294 131.285642 
L 231.625803 130.886539 
L 232.765328 130.598751 
L 234.154152 130.441127 
L 235.769469 130.424007 
L 237.584753 130.548544 
L 239.5702 130.806633 
L 241.693216 131.181433 
L 243.918948 131.648474 
L 246.21086 132.177255 
L 248.53133 132.733236 
L 250.842267 133.2801 
L 253.105739 133.782126 
L 255.284588 134.206525 
L 257.343048 134.525584 
L 259.247326 134.718475 
L 260.966158 134.772624 
L 262.471321 134.684525 
L 263.738099 134.459972 
L 264.745687 134.113681 
L 265.477532 133.668324 
L 265.921609 133.153047 
z
" style="fill:#0000ff;stroke:#000000;stroke-linejoin:miter;"/>
   </g>
   <g id="patch_6">
    <path clip-path="url(#p443027197c)" d="M 253.383062 140.750037 
L 188.151068 140.721605 
L 188.148699 146.157605 
L 253.380692 146.186036 
z
" style="fill:#999999;stroke:#000000;stroke-linejoin:miter;"/>
   </g>
   <g id="text_1">
    <!-- t = 2.2 -->
    <defs>
     <path d="M 18.3125 70.21875 
L 18.3125 54.6875 
L 36.8125 54.6875 
L 36.8125 47.703125 
L 18.3125 47.703125 
L 18.3125 18.015625 
Q 18.3125 11.328125 20.140625 9.421875 
Q 21.96875 7.515625 27.59375 7.515625 
L 36.8125 7.515625 
L 36.8125 0 
L 27.59375 0 
Q 17.1875 0 13.234375 3.875 
Q 9.28125 7.765625 9.28125 18.015625 
L 9.28125 47.703125 
L 2.6875 47.703125 
L 2.6875 54.6875 
L 9.28125 54.6875 
L 9.28125 70.21875 
z
" id="DejaVuSans-116"/>
     <path id="DejaVuSans-32"/>
     <path d="M 10.59375 45.40625 
L 73.1875 45.40625 
L 73.1875 37.203125 
L 10.59375 37.203125 
z
M 10.59375 25.484375 
L 73.1875 25.484375 
L 73.1875 17.1875 
L 10.59375 17.1875 
z
" id="DejaVuSans-61"/>
     <path d="M 19.1875 8.296875 
L 53.609375 8.296875 
L 53.609375 0 
L 7.328125 0 
L 7.328125 8.296875 
Q 12.9375 14.109375 22.625 23.890625 
Q 32.328125 33.6875 34.8125 36.53125 
Q 39.546875 41.84375 41.421875 45.53125 
Q 43.3125 49.21875 43.3125 52.78125 
Q 43.3125 58.59375 39.234375 62.25 
Q 35.15625 65.921875 28.609375 65.921875 
Q 23.96875 65.921875 18.8125 64.3125 
Q 13.671875 62.703125 7.8125 59.421875 
L 7.8125 69.390625 
Q 13.765625 71.78125 18.9375 73 
Q 24.125 74.21875 28.421875 74.21875 
Q 39.75 74.21875 46.484375 68.546875 
Q 53.21875 62.890625 53.21875 53.421875 
Q 53.21875 48.921875 51.53125 44.890625 
Q 49.859375 40.875 45.40625 35.40625 
Q 44.1875 33.984375 37.640625 27.21875 
Q 31.109375 20.453125 19.1875 8.296875 
z
" id="DejaVuSans-50"/>
     <path d="M 10.6875 12.40625 
L 21 12.40625 
L 21 0 
L 10.6875 0 
z
" id="DejaVuSans-46"/>
    </defs>
    <g transform="translate(200.664375 28.56)scale(0.12 -0.12)">
     <use xlink:href="#DejaVuSans-116"/>
     <use x="39.208984" xlink:href="#DejaVuSans-32"/>
     <use x="70.996094" xlink:href="#DejaVuSans-61"/>
     <use x="154.785156" xlink:href="#DejaVuSans-32"/>
     <use x="186.572266" xlink:href="#DejaVuSans-50"/>
     <use x="250.195312" xlink:href="#DejaVuSans-46"/>
     <use x="281.982422" xlink:href="#DejaVuSans-50"/>
    </g>
   </g>
  </g>
 </g>
 <defs>
  <clipPath id="p443027197c">
   <rect height="217.44" width="334.8" x="54" y="34.56"/>
  </clipPath>
 </defs>
</svg>
