<?xml version="1.0" encoding="utf-8" standalone="no"?>
<!DOCTYPE svg PUBLIC "-//W3C//DTD SVG 1.1//EN"
  "http://www.w3.org/Graphics/SVG/1.1/DTD/svg11.dtd">
<!-- Created with matplotlib (https://matplotlib.org/) -->
<svg height="288pt" version="1.1" viewBox="0 0 432 288" width="432pt" xmlns="http://www.w3.org/2000/svg" xmlns:xlink="http://www.w3.org/1999/xlink">
 <defs>
  <style type="text/css">
*{stroke-linecap:butt;stroke-linejoin:round;}
  </style>
 </defs>
 <g id="figure_1">
  <g id="patch_1">
   <path d="M 0 288 
L 432 288 
L 432 0 
L 0 0 
z
" style="fill:#ffffff;"/>
  </g>
  <g id="axes_1">
   <g id="patch_2">
    <path clip-path="url(#p9698b3b66c)" d="M 187.798909 137.633346 
L 189.058515 148.432132 
L 187.978636 148.558092 
L 186.719031 137.759306 
z
" style="stroke:#000000;stroke-linejoin:miter;"/>
   </g>
   <g id="patch_3">
    <path clip-path="url(#p9698b3b66c)" d="M 241.792839 131.335319 
L 243.052444 142.134105 
L 241.972566 142.260065 
L 240.71296 131.461279 
z
" style="stroke:#000000;stroke-linejoin:miter;"/>
   </g>
   <g id="patch_4">
    <path clip-path="url(#p9698b3b66c)" d="M 205.256947 135.596984 
L 205.045282 135.066387 
L 204.544698 134.605812 
L 203.766339 134.247905 
L 202.725515 134.020229 
L 201.441285 133.943395 
L 199.936013 134.029617 
L 198.23492 134.2818 
L 196.365634 134.693203 
L 194.357759 135.247727 
L 192.242459 135.920782 
L 190.052063 136.680714 
L 187.819693 137.490663 
L 185.578907 138.310768 
L 183.363348 139.100557 
L 181.2064 139.821382 
L 179.140835 140.438725 
L 177.198448 140.924259 
L 175.409671 141.257493 
L 173.803175 141.426935 
L 172.40544 141.430669 
L 171.240313 141.276334 
L 170.328563 140.980493 
L 169.687429 140.56744 
L 169.330187 140.067539 
L 169.265757 139.515172 
L 169.498353 138.946469 
L 170.02721 138.396946 
L 170.846393 137.899202 
L 171.94472 137.480851 
L 173.305791 137.162789 
L 174.908157 136.957939 
L 176.725608 136.870531 
L 178.727598 136.895979 
L 180.879795 137.02135 
L 183.144739 137.22639 
L 185.482593 137.485055 
L 187.851974 137.767415 
L 190.210827 138.041829 
L 192.517322 138.277228 
L 194.730743 138.445368 
L 196.81234 138.522882 
L 198.72613 138.493015 
L 200.439596 138.346912 
L 201.924302 138.084374 
L 203.156372 137.714031 
L 204.116853 137.252916 
L 204.791942 136.725474 
L 205.173084 136.162052 
z
" style="fill:#0000ff;stroke:#000000;stroke-linejoin:miter;"/>
   </g>
   <g id="patch_5">
    <path clip-path="url(#p9698b3b66c)" d="M 259.250876 129.298957 
L 259.039212 128.76836 
L 258.538628 128.307785 
L 257.760269 127.949878 
L 256.719445 127.722202 
L 255.435215 127.645368 
L 253.929943 127.73159 
L 252.22885 127.983773 
L 250.359564 128.395176 
L 248.351689 128.949699 
L 246.236389 129.622755 
L 244.045992 130.382687 
L 241.813623 131.192636 
L 239.572836 132.01274 
L 237.357278 132.80253 
L 235.20033 133.523354 
L 233.134765 134.140698 
L 231.192377 134.626232 
L 229.403601 134.959466 
L 227.797105 135.128908 
L 226.399369 135.132642 
L 225.234243 134.978307 
L 224.322493 134.682465 
L 223.681359 134.269413 
L 223.324117 133.769512 
L 223.259687 133.217144 
L 223.492283 132.648442 
L 224.02114 132.098918 
L 224.840323 131.601175 
L 225.93865 131.182824 
L 227.299721 130.864762 
L 228.902087 130.659912 
L 230.719537 130.572504 
L 232.721528 130.597952 
L 234.873725 130.723323 
L 237.138669 130.928363 
L 239.476523 131.187028 
L 241.845904 131.469388 
L 244.204757 131.743801 
L 246.511252 131.979201 
L 248.724672 132.147341 
L 250.80627 132.224855 
L 252.720059 132.194988 
L 254.433526 132.048885 
L 255.918232 131.786347 
L 257.150302 131.416003 
L 258.110783 130.954889 
L 258.785872 130.427447 
L 259.167014 129.864025 
z
" style="fill:#0000ff;stroke:#000000;stroke-linejoin:miter;"/>
   </g>
   <g id="patch_6">
    <path clip-path="url(#p9698b3b66c)" d="M 247.596997 138.867586 
L 182.804281 146.425218 
L 183.434084 151.824611 
L 248.226799 144.266979 
z
" style="fill:#999999;stroke:#000000;stroke-linejoin:miter;"/>
   </g>
   <g id="text_1">
    <!-- t = 1.4 -->
    <defs>
     <path d="M 18.3125 70.21875 
L 18.3125 54.6875 
L 36.8125 54.6875 
L 36.8125 47.703125 
L 18.3125 47.703125 
L 18.3125 18.015625 
Q 18.3125 11.328125 20.140625 9.421875 
Q 21.96875 7.515625 27.59375 7.515625 
L 36.8125 7.515625 
L 36.8125 0 
L 27.59375 0 
Q 17.1875 0 13.234375 3.875 
Q 9.28125 7.765625 9.28125 18.015625 
L 9.28125 47.703125 
L 2.6875 47.703125 
L 2.6875 54.6875 
L 9.28125 54.6875 
L 9.28125 70.21875 
z
" id="DejaVuSans-116"/>
     <path id="DejaVuSans-32"/>
     <path d="M 10.59375 45.40625 
L 73.1875 45.40625 
L 73.1875 37.203125 
L 10.59375 37.203125 
z
M 10.59375 25.484375 
L 73.1875 25.484375 
L 73.1875 17.1875 
L 10.59375 17.1875 
z
" id="DejaVuSans-61"/>
     <path d="M 12.40625 8.296875 
L 28.515625 8.296875 
L 28.515625 63.921875 
L 10.984375 60.40625 
L 10.984375 69.390625 
L 28.421875 72.90625 
L 38.28125 72.90625 
L 38.28125 8.296875 
L 54.390625 8.296875 
L 54.390625 0 
L 12.40625 0 
z
" id="DejaVuSans-49"/>
     <path d="M 10.6875 12.40625 
L 21 12.40625 
L 21 0 
L 10.6875 0 
z
" id="DejaVuSans-46"/>
     <path d="M 37.796875 64.3125 
L 12.890625 25.390625 
L 37.796875 25.390625 
z
M 35.203125 72.90625 
L 47.609375 72.90625 
L 47.609375 25.390625 
L 58.015625 25.390625 
L 58.015625 17.1875 
L 47.609375 17.1875 
L 47.609375 0 
L 37.796875 0 
L 37.796875 17.1875 
L 4.890625 17.1875 
L 4.890625 26.703125 
z
" id="DejaVuSans-52"/>
    </defs>
    <g transform="translate(200.664375 28.56)scale(0.12 -0.12)">
     <use xlink:href="#DejaVuSans-116"/>
     <use x="39.208984" xlink:href="#DejaVuSans-32"/>
     <use x="70.996094" xlink:href="#DejaVuSans-61"/>
     <use x="154.785156" xlink:href="#DejaVuSans-32"/>
     <use x="186.572266" xlink:href="#DejaVuSans-49"/>
     <use x="250.195312" xlink:href="#DejaVuSans-46"/>
     <use x="281.982422" xlink:href="#DejaVuSans-52"/>
    </g>
   </g>
  </g>
 </g>
 <defs>
  <clipPath id="p9698b3b66c">
   <rect height="217.44" width="334.8" x="54" y="34.56"/>
  </clipPath>
 </defs>
</svg>
