<?xml version="1.0" encoding="utf-8" standalone="no"?>
<!DOCTYPE svg PUBLIC "-//W3C//DTD SVG 1.1//EN"
  "http://www.w3.org/Graphics/SVG/1.1/DTD/svg11.dtd">
<!-- Created with matplotlib (https://matplotlib.org/) -->
<svg height="288pt" version="1.1" viewBox="0 0 432 288" width="432pt" xmlns="http://www.w3.org/2000/svg" xmlns:xlink="http://www.w3.org/1999/xlink">
 <defs>
  <style type="text/css">
*{stroke-linecap:butt;stroke-linejoin:round;}
  </style>
 </defs>
 <g id="figure_1">
  <g id="patch_1">
   <path d="M 0 288 
L 432 288 
L 432 0 
L 0 0 
z
" style="fill:#ffffff;"/>
  </g>
  <g id="axes_1">
   <g id="patch_2">
    <path clip-path="url(#p89ea682356)" d="M 232.420502 107.793367 
L 234.25668 118.509189 
L 233.185098 118.692806 
L 231.34892 107.976985 
z
" style="stroke:#000000;stroke-linejoin:miter;"/>
   </g>
   <g id="patch_3">
    <path clip-path="url(#p89ea682356)" d="M 285.999611 98.612478 
L 287.835789 109.3283 
L 286.764206 109.511918 
L 284.928029 98.796096 
z
" style="stroke:#000000;stroke-linejoin:miter;"/>
   </g>
   <g id="patch_4">
    <path clip-path="url(#p89ea682356)" d="M 249.744414 104.82488 
L 249.504635 104.306381 
L 248.980101 103.873279 
L 248.18369 103.557574 
L 247.132166 103.385971 
L 245.845663 103.37803 
L 244.34717 103.544751 
L 242.662026 103.887682 
L 240.817458 104.398613 
L 238.842165 105.059881 
L 236.765949 105.845266 
L 234.619399 106.721424 
L 232.433614 107.649775 
L 230.239969 108.588719 
L 228.069891 109.49604 
L 225.954646 110.331355 
L 223.925111 111.058444 
L 222.011517 111.647314 
L 220.243156 112.075877 
L 218.648041 112.331119 
L 217.252511 112.40971 
L 216.080791 112.318001 
L 215.154505 112.071417 
L 214.492168 111.693296 
L 214.108664 111.213246 
L 214.014742 110.665122 
L 214.216545 110.084779 
L 214.71521 109.507718 
L 215.506559 108.966814 
L 216.580902 108.490237 
L 217.922984 108.099733 
L 219.512078 107.809355 
L 221.322239 107.62473 
L 223.322718 107.542916 
L 225.478541 107.552835 
L 227.751216 107.636272 
L 230.099568 107.76935 
L 232.480672 107.924401 
L 234.850837 108.072081 
L 237.166629 108.183608 
L 239.385878 108.232956 
L 241.468639 108.198869 
L 243.378082 108.066543 
L 245.081264 107.828877 
L 246.549777 107.487195 
L 247.760243 107.051394 
L 248.694648 106.539498 
L 249.340519 105.976655 
L 249.690937 105.393628 
z
" style="fill:#0000ff;stroke:#000000;stroke-linejoin:miter;"/>
   </g>
   <g id="patch_5">
    <path clip-path="url(#p89ea682356)" d="M 303.323523 95.643991 
L 303.083744 95.125493 
L 302.55921 94.69239 
L 301.762798 94.376685 
L 300.711274 94.205082 
L 299.424772 94.197141 
L 297.926279 94.363862 
L 296.241134 94.706793 
L 294.396566 95.217724 
L 292.421274 95.878993 
L 290.345058 96.664378 
L 288.198508 97.540536 
L 286.012723 98.468887 
L 283.819077 99.40783 
L 281.649 100.315151 
L 279.533755 101.150467 
L 277.50422 101.877555 
L 275.590625 102.466426 
L 273.822264 102.894988 
L 272.227149 103.15023 
L 270.83162 103.228822 
L 269.6599 103.137112 
L 268.733614 102.890528 
L 268.071276 102.512408 
L 267.687773 102.032357 
L 267.593851 101.484234 
L 267.795654 100.90389 
L 268.294319 100.32683 
L 269.085667 99.785925 
L 270.16001 99.309348 
L 271.502093 98.918845 
L 273.091187 98.628466 
L 274.901347 98.443842 
L 276.901827 98.362027 
L 279.05765 98.371947 
L 281.330325 98.455383 
L 283.678677 98.588462 
L 286.05978 98.743513 
L 288.429945 98.891193 
L 290.745738 99.002719 
L 292.964986 99.052068 
L 295.047748 99.01798 
L 296.957191 98.885654 
L 298.660373 98.647989 
L 300.128886 98.306307 
L 301.339352 97.870505 
L 302.273757 97.358609 
L 302.919628 96.795767 
L 303.270046 96.212739 
z
" style="fill:#0000ff;stroke:#000000;stroke-linejoin:miter;"/>
   </g>
   <g id="patch_6">
    <path clip-path="url(#p89ea682356)" d="M 292.198864 105.823065 
L 227.903934 116.840131 
L 228.822022 122.198042 
L 293.116953 111.180975 
z
" style="fill:#999999;stroke:#000000;stroke-linejoin:miter;"/>
   </g>
   <g id="text_1">
    <!-- t = 0.3 -->
    <defs>
     <path d="M 18.3125 70.21875 
L 18.3125 54.6875 
L 36.8125 54.6875 
L 36.8125 47.703125 
L 18.3125 47.703125 
L 18.3125 18.015625 
Q 18.3125 11.328125 20.140625 9.421875 
Q 21.96875 7.515625 27.59375 7.515625 
L 36.8125 7.515625 
L 36.8125 0 
L 27.59375 0 
Q 17.1875 0 13.234375 3.875 
Q 9.28125 7.765625 9.28125 18.015625 
L 9.28125 47.703125 
L 2.6875 47.703125 
L 2.6875 54.6875 
L 9.28125 54.6875 
L 9.28125 70.21875 
z
" id="DejaVuSans-116"/>
     <path id="DejaVuSans-32"/>
     <path d="M 10.59375 45.40625 
L 73.1875 45.40625 
L 73.1875 37.203125 
L 10.59375 37.203125 
z
M 10.59375 25.484375 
L 73.1875 25.484375 
L 73.1875 17.1875 
L 10.59375 17.1875 
z
" id="DejaVuSans-61"/>
     <path d="M 31.78125 66.40625 
Q 24.171875 66.40625 20.328125 58.90625 
Q 16.5 51.421875 16.5 36.375 
Q 16.5 21.390625 20.328125 13.890625 
Q 24.171875 6.390625 31.78125 6.390625 
Q 39.453125 6.390625 43.28125 13.890625 
Q 47.125 21.390625 47.125 36.375 
Q 47.125 51.421875 43.28125 58.90625 
Q 39.453125 66.40625 31.78125 66.40625 
z
M 31.78125 74.21875 
Q 44.046875 74.21875 50.515625 64.515625 
Q 56.984375 54.828125 56.984375 36.375 
Q 56.984375 17.96875 50.515625 8.265625 
Q 44.046875 -1.421875 31.78125 -1.421875 
Q 19.53125 -1.421875 13.0625 8.265625 
Q 6.59375 17.96875 6.59375 36.375 
Q 6.59375 54.828125 13.0625 64.515625 
Q 19.53125 74.21875 31.78125 74.21875 
z
" id="DejaVuSans-48"/>
     <path d="M 10.6875 12.40625 
L 21 12.40625 
L 21 0 
L 10.6875 0 
z
" id="DejaVuSans-46"/>
     <path d="M 40.578125 39.3125 
Q 47.65625 37.796875 51.625 33 
Q 55.609375 28.21875 55.609375 21.1875 
Q 55.609375 10.40625 48.1875 4.484375 
Q 40.765625 -1.421875 27.09375 -1.421875 
Q 22.515625 -1.421875 17.65625 -0.515625 
Q 12.796875 0.390625 7.625 2.203125 
L 7.625 11.71875 
Q 11.71875 9.328125 16.59375 8.109375 
Q 21.484375 6.890625 26.8125 6.890625 
Q 36.078125 6.890625 40.9375 10.546875 
Q 45.796875 14.203125 45.796875 21.1875 
Q 45.796875 27.640625 41.28125 31.265625 
Q 36.765625 34.90625 28.71875 34.90625 
L 20.21875 34.90625 
L 20.21875 43.015625 
L 29.109375 43.015625 
Q 36.375 43.015625 40.234375 45.921875 
Q 44.09375 48.828125 44.09375 54.296875 
Q 44.09375 59.90625 40.109375 62.90625 
Q 36.140625 65.921875 28.71875 65.921875 
Q 24.65625 65.921875 20.015625 65.03125 
Q 15.375 64.15625 9.8125 62.3125 
L 9.8125 71.09375 
Q 15.4375 72.65625 20.34375 73.4375 
Q 25.25 74.21875 29.59375 74.21875 
Q 40.828125 74.21875 47.359375 69.109375 
Q 53.90625 64.015625 53.90625 55.328125 
Q 53.90625 49.265625 50.4375 45.09375 
Q 46.96875 40.921875 40.578125 39.3125 
z
" id="DejaVuSans-51"/>
    </defs>
    <g transform="translate(200.664375 28.56)scale(0.12 -0.12)">
     <use xlink:href="#DejaVuSans-116"/>
     <use x="39.208984" xlink:href="#DejaVuSans-32"/>
     <use x="70.996094" xlink:href="#DejaVuSans-61"/>
     <use x="154.785156" xlink:href="#DejaVuSans-32"/>
     <use x="186.572266" xlink:href="#DejaVuSans-48"/>
     <use x="250.195312" xlink:href="#DejaVuSans-46"/>
     <use x="281.982422" xlink:href="#DejaVuSans-51"/>
    </g>
   </g>
  </g>
 </g>
 <defs>
  <clipPath id="p89ea682356">
   <rect height="217.44" width="334.8" x="54" y="34.56"/>
  </clipPath>
 </defs>
</svg>
