<?xml version="1.0" encoding="utf-8" standalone="no"?>
<!DOCTYPE svg PUBLIC "-//W3C//DTD SVG 1.1//EN"
  "http://www.w3.org/Graphics/SVG/1.1/DTD/svg11.dtd">
<!-- Created with matplotlib (https://matplotlib.org/) -->
<svg height="288pt" version="1.1" viewBox="0 0 432 288" width="432pt" xmlns="http://www.w3.org/2000/svg" xmlns:xlink="http://www.w3.org/1999/xlink">
 <defs>
  <style type="text/css">
*{stroke-linecap:butt;stroke-linejoin:round;}
  </style>
 </defs>
 <g id="figure_1">
  <g id="patch_1">
   <path d="M 0 288 
L 432 288 
L 432 0 
L 0 0 
z
" style="fill:#ffffff;"/>
  </g>
  <g id="axes_1">
   <g id="patch_2">
    <path clip-path="url(#p071204eccb)" d="M 195.89456 127.9874 
L 195.532896 138.853383 
L 194.446298 138.817217 
L 194.807962 127.951234 
z
" style="stroke:#000000;stroke-linejoin:miter;"/>
   </g>
   <g id="patch_3">
    <path clip-path="url(#p071204eccb)" d="M 250.224474 129.79572 
L 249.86281 140.661703 
L 248.776212 140.625537 
L 249.137876 129.759554 
z
" style="stroke:#000000;stroke-linejoin:miter;"/>
   </g>
   <g id="patch_4">
    <path clip-path="url(#p071204eccb)" d="M 213.461232 128.572091 
L 213.330897 128.0159 
L 212.904438 127.485951 
L 212.188017 127.016183 
L 211.192672 126.636132 
L 209.934182 126.369014 
L 208.432843 126.230239 
L 206.713162 126.22643 
L 204.803466 126.355036 
L 202.735422 126.60454 
L 200.543507 126.955268 
L 198.264403 127.380728 
L 195.936348 127.8494 
L 193.598459 128.326862 
L 191.290029 128.778102 
L 189.049821 129.169868 
L 186.91538 129.472907 
L 184.922362 129.663937 
L 183.103912 129.727227 
L 181.490091 129.655678 
L 180.107367 129.451338 
L 178.978188 129.125311 
L 178.120625 128.697064 
L 177.548108 128.193189 
L 177.269248 127.645685 
L 177.287748 127.08988 
L 177.602397 126.562131 
L 178.207151 126.09744 
L 179.091292 125.727164 
L 180.239651 125.476942 
L 181.632902 125.364998 
L 183.247909 125.400918 
L 185.058126 125.584984 
L 187.034031 125.908116 
L 189.143598 126.352413 
L 191.352797 126.892273 
L 193.626113 127.496012 
L 195.927079 128.127874 
L 198.218818 128.750312 
L 200.464587 129.326377 
L 202.628329 129.822079 
L 204.675205 130.208545 
L 206.572124 130.46385 
L 208.288251 130.574399 
L 209.795495 130.535762 
L 211.068963 130.352918 
L 212.087376 130.039893 
L 212.833448 129.618802 
L 213.294202 129.118383 
z
" style="fill:#0000ff;stroke:#000000;stroke-linejoin:miter;"/>
   </g>
   <g id="patch_5">
    <path clip-path="url(#p071204eccb)" d="M 267.791146 130.38041 
L 267.660811 129.82422 
L 267.234352 129.294271 
L 266.517932 128.824503 
L 265.522587 128.444451 
L 264.264096 128.177334 
L 262.762757 128.038559 
L 261.043077 128.03475 
L 259.13338 128.163356 
L 257.065336 128.41286 
L 254.873421 128.763588 
L 252.594317 129.189048 
L 250.266262 129.65772 
L 247.928374 130.135182 
L 245.619943 130.586422 
L 243.379736 130.978188 
L 241.245294 131.281227 
L 239.252277 131.472257 
L 237.433826 131.535547 
L 235.820005 131.463998 
L 234.437281 131.259658 
L 233.308102 130.933631 
L 232.450539 130.505383 
L 231.878023 130.001508 
L 231.599163 129.454004 
L 231.617662 128.8982 
L 231.932311 128.37045 
L 232.537065 127.90576 
L 233.421207 127.535484 
L 234.569565 127.285262 
L 235.962816 127.173318 
L 237.577824 127.209238 
L 239.388041 127.393304 
L 241.363945 127.716436 
L 243.473512 128.160733 
L 245.682711 128.700593 
L 247.956028 129.304332 
L 250.256994 129.936194 
L 252.548732 130.558632 
L 254.794501 131.134697 
L 256.958243 131.630399 
L 259.005119 132.016865 
L 260.902038 132.27217 
L 262.618165 132.382719 
L 264.12541 132.344081 
L 265.398877 132.161238 
L 266.41729 131.848213 
L 267.163362 131.427122 
L 267.624116 130.926703 
z
" style="fill:#0000ff;stroke:#000000;stroke-linejoin:miter;"/>
   </g>
   <g id="patch_6">
    <path clip-path="url(#p071204eccb)" d="M 254.842918 138.107956 
L 189.647021 135.937972 
L 189.466189 141.370964 
L 254.662086 143.540948 
z
" style="fill:#999999;stroke:#000000;stroke-linejoin:miter;"/>
   </g>
   <g id="text_1">
    <!-- t = 1.0 -->
    <defs>
     <path d="M 18.3125 70.21875 
L 18.3125 54.6875 
L 36.8125 54.6875 
L 36.8125 47.703125 
L 18.3125 47.703125 
L 18.3125 18.015625 
Q 18.3125 11.328125 20.140625 9.421875 
Q 21.96875 7.515625 27.59375 7.515625 
L 36.8125 7.515625 
L 36.8125 0 
L 27.59375 0 
Q 17.1875 0 13.234375 3.875 
Q 9.28125 7.765625 9.28125 18.015625 
L 9.28125 47.703125 
L 2.6875 47.703125 
L 2.6875 54.6875 
L 9.28125 54.6875 
L 9.28125 70.21875 
z
" id="DejaVuSans-116"/>
     <path id="DejaVuSans-32"/>
     <path d="M 10.59375 45.40625 
L 73.1875 45.40625 
L 73.1875 37.203125 
L 10.59375 37.203125 
z
M 10.59375 25.484375 
L 73.1875 25.484375 
L 73.1875 17.1875 
L 10.59375 17.1875 
z
" id="DejaVuSans-61"/>
     <path d="M 12.40625 8.296875 
L 28.515625 8.296875 
L 28.515625 63.921875 
L 10.984375 60.40625 
L 10.984375 69.390625 
L 28.421875 72.90625 
L 38.28125 72.90625 
L 38.28125 8.296875 
L 54.390625 8.296875 
L 54.390625 0 
L 12.40625 0 
z
" id="DejaVuSans-49"/>
     <path d="M 10.6875 12.40625 
L 21 12.40625 
L 21 0 
L 10.6875 0 
z
" id="DejaVuSans-46"/>
     <path d="M 31.78125 66.40625 
Q 24.171875 66.40625 20.328125 58.90625 
Q 16.5 51.421875 16.5 36.375 
Q 16.5 21.390625 20.328125 13.890625 
Q 24.171875 6.390625 31.78125 6.390625 
Q 39.453125 6.390625 43.28125 13.890625 
Q 47.125 21.390625 47.125 36.375 
Q 47.125 51.421875 43.28125 58.90625 
Q 39.453125 66.40625 31.78125 66.40625 
z
M 31.78125 74.21875 
Q 44.046875 74.21875 50.515625 64.515625 
Q 56.984375 54.828125 56.984375 36.375 
Q 56.984375 17.96875 50.515625 8.265625 
Q 44.046875 -1.421875 31.78125 -1.421875 
Q 19.53125 -1.421875 13.0625 8.265625 
Q 6.59375 17.96875 6.59375 36.375 
Q 6.59375 54.828125 13.0625 64.515625 
Q 19.53125 74.21875 31.78125 74.21875 
z
" id="DejaVuSans-48"/>
    </defs>
    <g transform="translate(200.664375 28.56)scale(0.12 -0.12)">
     <use xlink:href="#DejaVuSans-116"/>
     <use x="39.208984" xlink:href="#DejaVuSans-32"/>
     <use x="70.996094" xlink:href="#DejaVuSans-61"/>
     <use x="154.785156" xlink:href="#DejaVuSans-32"/>
     <use x="186.572266" xlink:href="#DejaVuSans-49"/>
     <use x="250.195312" xlink:href="#DejaVuSans-46"/>
     <use x="281.982422" xlink:href="#DejaVuSans-48"/>
    </g>
   </g>
  </g>
 </g>
 <defs>
  <clipPath id="p071204eccb">
   <rect height="217.44" width="334.8" x="54" y="34.56"/>
  </clipPath>
 </defs>
</svg>
