<?xml version="1.0" encoding="utf-8" standalone="no"?>
<!DOCTYPE svg PUBLIC "-//W3C//DTD SVG 1.1//EN"
  "http://www.w3.org/Graphics/SVG/1.1/DTD/svg11.dtd">
<!-- Created with matplotlib (https://matplotlib.org/) -->
<svg height="288pt" version="1.1" viewBox="0 0 432 288" width="432pt" xmlns="http://www.w3.org/2000/svg" xmlns:xlink="http://www.w3.org/1999/xlink">
 <defs>
  <style type="text/css">
*{stroke-linecap:butt;stroke-linejoin:round;}
  </style>
 </defs>
 <g id="figure_1">
  <g id="patch_1">
   <path d="M 0 288 
L 432 288 
L 432 0 
L 0 0 
z
" style="fill:#ffffff;"/>
  </g>
  <g id="axes_1">
   <g id="patch_2">
    <path clip-path="url(#pc9a77d842a)" d="M 197.225998 133.902701 
L 197.33071 144.774196 
L 196.243561 144.784668 
L 196.138849 133.913172 
z
" style="stroke:#000000;stroke-linejoin:miter;"/>
   </g>
   <g id="patch_3">
    <path clip-path="url(#pc9a77d842a)" d="M 251.583477 133.379141 
L 251.688189 144.250637 
L 250.601039 144.261108 
L 250.496327 133.389612 
z
" style="stroke:#000000;stroke-linejoin:miter;"/>
   </g>
   <g id="patch_4">
    <path clip-path="url(#pc9a77d842a)" d="M 214.801583 133.733416 
L 214.647513 133.183328 
L 214.198717 132.672157 
L 213.462807 132.233549 
L 212.452078 131.896538 
L 211.183288 131.683643 
L 209.677378 131.609388 
L 207.959118 131.67934 
L 206.056694 131.889734 
L 204.001254 132.227708 
L 201.8264 132.672124 
L 199.56764 133.194943 
L 197.261829 133.763035 
L 194.94657 134.34033 
L 192.659618 134.890164 
L 190.438275 135.377652 
L 188.318795 135.771958 
L 186.335804 136.048293 
L 184.521742 136.189518 
L 182.906337 136.187252 
L 181.516121 136.042406 
L 180.373998 135.765109 
L 179.498857 135.374036 
L 178.905256 134.89518 
L 178.60317 134.360141 
L 178.597814 133.804054 
L 178.889538 133.263295 
L 179.473805 132.773094 
L 180.341252 132.365238 
L 181.477822 132.065993 
L 182.864989 131.894395 
L 184.480051 131.861014 
L 186.296497 131.967271 
L 188.284442 132.205358 
L 190.411124 132.558767 
L 192.641445 133.003377 
L 194.938564 133.509058 
L 197.264513 134.04165 
L 199.580839 134.565222 
L 201.849249 135.044437 
L 204.032261 135.446879 
L 206.093829 135.745199 
L 207.999952 135.91891 
L 209.719242 135.955752 
L 211.223442 135.852504 
L 212.487895 135.61521 
L 213.491945 135.258793 
L 214.21927 134.806091 
L 214.658137 134.28637 
z
" style="fill:#0000ff;stroke:#000000;stroke-linejoin:miter;"/>
   </g>
   <g id="patch_5">
    <path clip-path="url(#pc9a77d842a)" d="M 269.159062 133.209857 
L 269.004992 132.659769 
L 268.556195 132.148598 
L 267.820286 131.709989 
L 266.809556 131.372978 
L 265.540767 131.160084 
L 264.034857 131.085829 
L 262.316596 131.155781 
L 260.414172 131.366175 
L 258.358733 131.704148 
L 256.183878 132.148565 
L 253.925119 132.671384 
L 251.619308 133.239475 
L 249.304049 133.816771 
L 247.017097 134.366604 
L 244.795753 134.854092 
L 242.676274 135.248399 
L 240.693283 135.524734 
L 238.879221 135.665959 
L 237.263815 135.663693 
L 235.8736 135.518846 
L 234.731477 135.241549 
L 233.856336 134.850477 
L 233.262734 134.371621 
L 232.960649 133.836581 
L 232.955292 133.280495 
L 233.247016 132.739736 
L 233.831284 132.249535 
L 234.69873 131.841678 
L 235.8353 131.542433 
L 237.222468 131.370836 
L 238.83753 131.337455 
L 240.653975 131.443711 
L 242.641921 131.681799 
L 244.768602 132.035207 
L 246.998923 132.479818 
L 249.296042 132.985499 
L 251.621992 133.518091 
L 253.938317 134.041663 
L 256.206728 134.520877 
L 258.389739 134.92332 
L 260.451307 135.221639 
L 262.357431 135.39535 
L 264.07672 135.432193 
L 265.58092 135.328945 
L 266.845374 135.091651 
L 267.849424 134.735233 
L 268.576749 134.282531 
L 269.015616 133.762811 
z
" style="fill:#0000ff;stroke:#000000;stroke-linejoin:miter;"/>
   </g>
   <g id="patch_6">
    <path clip-path="url(#pc9a77d842a)" d="M 256.554184 141.485643 
L 191.32521 142.113914 
L 191.377566 147.549662 
L 256.60654 146.92139 
z
" style="fill:#999999;stroke:#000000;stroke-linejoin:miter;"/>
   </g>
   <g id="text_1">
    <!-- t = 1.5 -->
    <defs>
     <path d="M 18.3125 70.21875 
L 18.3125 54.6875 
L 36.8125 54.6875 
L 36.8125 47.703125 
L 18.3125 47.703125 
L 18.3125 18.015625 
Q 18.3125 11.328125 20.140625 9.421875 
Q 21.96875 7.515625 27.59375 7.515625 
L 36.8125 7.515625 
L 36.8125 0 
L 27.59375 0 
Q 17.1875 0 13.234375 3.875 
Q 9.28125 7.765625 9.28125 18.015625 
L 9.28125 47.703125 
L 2.6875 47.703125 
L 2.6875 54.6875 
L 9.28125 54.6875 
L 9.28125 70.21875 
z
" id="DejaVuSans-116"/>
     <path id="DejaVuSans-32"/>
     <path d="M 10.59375 45.40625 
L 73.1875 45.40625 
L 73.1875 37.203125 
L 10.59375 37.203125 
z
M 10.59375 25.484375 
L 73.1875 25.484375 
L 73.1875 17.1875 
L 10.59375 17.1875 
z
" id="DejaVuSans-61"/>
     <path d="M 12.40625 8.296875 
L 28.515625 8.296875 
L 28.515625 63.921875 
L 10.984375 60.40625 
L 10.984375 69.390625 
L 28.421875 72.90625 
L 38.28125 72.90625 
L 38.28125 8.296875 
L 54.390625 8.296875 
L 54.390625 0 
L 12.40625 0 
z
" id="DejaVuSans-49"/>
     <path d="M 10.6875 12.40625 
L 21 12.40625 
L 21 0 
L 10.6875 0 
z
" id="DejaVuSans-46"/>
     <path d="M 10.796875 72.90625 
L 49.515625 72.90625 
L 49.515625 64.59375 
L 19.828125 64.59375 
L 19.828125 46.734375 
Q 21.96875 47.46875 24.109375 47.828125 
Q 26.265625 48.1875 28.421875 48.1875 
Q 40.625 48.1875 47.75 41.5 
Q 54.890625 34.8125 54.890625 23.390625 
Q 54.890625 11.625 47.5625 5.09375 
Q 40.234375 -1.421875 26.90625 -1.421875 
Q 22.3125 -1.421875 17.546875 -0.640625 
Q 12.796875 0.140625 7.71875 1.703125 
L 7.71875 11.625 
Q 12.109375 9.234375 16.796875 8.0625 
Q 21.484375 6.890625 26.703125 6.890625 
Q 35.15625 6.890625 40.078125 11.328125 
Q 45.015625 15.765625 45.015625 23.390625 
Q 45.015625 31 40.078125 35.4375 
Q 35.15625 39.890625 26.703125 39.890625 
Q 22.75 39.890625 18.8125 39.015625 
Q 14.890625 38.140625 10.796875 36.28125 
z
" id="DejaVuSans-53"/>
    </defs>
    <g transform="translate(200.664375 28.56)scale(0.12 -0.12)">
     <use xlink:href="#DejaVuSans-116"/>
     <use x="39.208984" xlink:href="#DejaVuSans-32"/>
     <use x="70.996094" xlink:href="#DejaVuSans-61"/>
     <use x="154.785156" xlink:href="#DejaVuSans-32"/>
     <use x="186.572266" xlink:href="#DejaVuSans-49"/>
     <use x="250.195312" xlink:href="#DejaVuSans-46"/>
     <use x="281.982422" xlink:href="#DejaVuSans-53"/>
    </g>
   </g>
  </g>
 </g>
 <defs>
  <clipPath id="pc9a77d842a">
   <rect height="217.44" width="334.8" x="54" y="34.56"/>
  </clipPath>
 </defs>
</svg>
