<?xml version="1.0" encoding="utf-8" standalone="no"?>
<!DOCTYPE svg PUBLIC "-//W3C//DTD SVG 1.1//EN"
  "http://www.w3.org/Graphics/SVG/1.1/DTD/svg11.dtd">
<!-- Created with matplotlib (https://matplotlib.org/) -->
<svg height="288pt" version="1.1" viewBox="0 0 432 288" width="432pt" xmlns="http://www.w3.org/2000/svg" xmlns:xlink="http://www.w3.org/1999/xlink">
 <defs>
  <style type="text/css">
*{stroke-linecap:butt;stroke-linejoin:round;}
  </style>
 </defs>
 <g id="figure_1">
  <g id="patch_1">
   <path d="M 0 288 
L 432 288 
L 432 0 
L 0 0 
z
" style="fill:#ffffff;"/>
  </g>
  <g id="axes_1">
   <g id="patch_2">
    <path clip-path="url(#pa42c4a650f)" d="M 170.609464 164.782816 
L 173.163815 175.350487 
L 172.107048 175.605923 
L 169.552697 165.038251 
z
" style="stroke:#000000;stroke-linejoin:miter;"/>
   </g>
   <g id="patch_3">
    <path clip-path="url(#pa42c4a650f)" d="M 223.447819 152.011059 
L 226.002171 162.57873 
L 224.945404 162.834165 
L 222.391052 152.266494 
z
" style="stroke:#000000;stroke-linejoin:miter;"/>
   </g>
   <g id="patch_4">
    <path clip-path="url(#pa42c4a650f)" d="M 187.693866 160.653282 
L 187.41968 160.152126 
L 186.867144 159.755367 
L 186.051263 159.494066 
L 184.990562 159.393737 
L 183.706451 159.472537 
L 182.222605 159.739891 
L 180.564411 160.195637 
L 178.75848 160.829748 
L 176.832256 161.622666 
L 174.813706 162.546221 
L 172.7311 163.565085 
L 170.612866 164.638668 
L 168.487505 165.723348 
L 166.383525 166.77489 
L 164.3294 167.750893 
L 162.353494 168.613138 
L 160.483948 169.329664 
L 158.748499 169.876456 
L 157.174218 170.238644 
L 155.787161 170.411129 
L 154.611924 170.398613 
L 153.671122 170.215031 
L 152.984803 169.882419 
L 152.569811 169.429312 
L 152.439154 168.888767 
L 152.601377 168.296139 
L 153.060008 167.686777 
L 153.813095 167.093758 
L 154.852868 166.545844 
L 156.165574 166.065759 
L 157.73148 165.668921 
L 159.525077 165.362694 
L 161.515491 165.146214 
L 163.667079 165.010787 
L 165.940209 164.940834 
L 168.29219 164.915308 
L 170.678329 164.909497 
L 173.053058 164.897069 
L 175.371101 164.852235 
L 177.588628 164.751872 
L 179.664355 164.577464 
L 181.560534 164.316724 
L 183.243821 163.964788 
L 184.685961 163.524891 
L 185.864297 163.008484 
L 186.76207 162.434764 
L 187.36853 161.829664 
L 187.678849 161.224341 
z
" style="fill:#0000ff;stroke:#000000;stroke-linejoin:miter;"/>
   </g>
   <g id="patch_5">
    <path clip-path="url(#pa42c4a650f)" d="M 240.532221 147.881524 
L 240.258036 147.380369 
L 239.7055 146.98361 
L 238.889618 146.722309 
L 237.828918 146.62198 
L 236.544807 146.700779 
L 235.060961 146.968134 
L 233.402766 147.42388 
L 231.596836 148.057991 
L 229.670612 148.850909 
L 227.652062 149.774464 
L 225.569455 150.793328 
L 223.451222 151.86691 
L 221.32586 152.951591 
L 219.221881 154.003133 
L 217.167756 154.979136 
L 215.19185 155.841381 
L 213.322304 156.557907 
L 211.586854 157.104699 
L 210.012574 157.466887 
L 208.625516 157.639372 
L 207.450279 157.626856 
L 206.509478 157.443274 
L 205.823158 157.110661 
L 205.408167 156.657555 
L 205.277509 156.117009 
L 205.439733 155.524382 
L 205.898364 154.91502 
L 206.65145 154.322001 
L 207.691224 153.774087 
L 209.00393 153.294002 
L 210.569835 152.897163 
L 212.363432 152.590937 
L 214.353847 152.374457 
L 216.505435 152.23903 
L 218.778564 152.169076 
L 221.130546 152.143551 
L 223.516685 152.13774 
L 225.891414 152.125312 
L 228.209457 152.080478 
L 230.426984 151.980115 
L 232.50271 151.805707 
L 234.39889 151.544967 
L 236.082177 151.193031 
L 237.524317 150.753134 
L 238.702652 150.236727 
L 239.600425 149.663007 
L 240.206886 149.057907 
L 240.517205 148.452584 
z
" style="fill:#0000ff;stroke:#000000;stroke-linejoin:miter;"/>
   </g>
   <g id="patch_6">
    <path clip-path="url(#pa42c4a650f)" d="M 230.119035 158.787354 
L 166.713008 174.113463 
L 167.990184 179.397299 
L 231.396211 164.07119 
z
" style="fill:#999999;stroke:#000000;stroke-linejoin:miter;"/>
   </g>
   <g id="text_1">
    <!-- t = 0.6 -->
    <defs>
     <path d="M 18.3125 70.21875 
L 18.3125 54.6875 
L 36.8125 54.6875 
L 36.8125 47.703125 
L 18.3125 47.703125 
L 18.3125 18.015625 
Q 18.3125 11.328125 20.140625 9.421875 
Q 21.96875 7.515625 27.59375 7.515625 
L 36.8125 7.515625 
L 36.8125 0 
L 27.59375 0 
Q 17.1875 0 13.234375 3.875 
Q 9.28125 7.765625 9.28125 18.015625 
L 9.28125 47.703125 
L 2.6875 47.703125 
L 2.6875 54.6875 
L 9.28125 54.6875 
L 9.28125 70.21875 
z
" id="DejaVuSans-116"/>
     <path id="DejaVuSans-32"/>
     <path d="M 10.59375 45.40625 
L 73.1875 45.40625 
L 73.1875 37.203125 
L 10.59375 37.203125 
z
M 10.59375 25.484375 
L 73.1875 25.484375 
L 73.1875 17.1875 
L 10.59375 17.1875 
z
" id="DejaVuSans-61"/>
     <path d="M 31.78125 66.40625 
Q 24.171875 66.40625 20.328125 58.90625 
Q 16.5 51.421875 16.5 36.375 
Q 16.5 21.390625 20.328125 13.890625 
Q 24.171875 6.390625 31.78125 6.390625 
Q 39.453125 6.390625 43.28125 13.890625 
Q 47.125 21.390625 47.125 36.375 
Q 47.125 51.421875 43.28125 58.90625 
Q 39.453125 66.40625 31.78125 66.40625 
z
M 31.78125 74.21875 
Q 44.046875 74.21875 50.515625 64.515625 
Q 56.984375 54.828125 56.984375 36.375 
Q 56.984375 17.96875 50.515625 8.265625 
Q 44.046875 -1.421875 31.78125 -1.421875 
Q 19.53125 -1.421875 13.0625 8.265625 
Q 6.59375 17.96875 6.59375 36.375 
Q 6.59375 54.828125 13.0625 64.515625 
Q 19.53125 74.21875 31.78125 74.21875 
z
" id="DejaVuSans-48"/>
     <path d="M 10.6875 12.40625 
L 21 12.40625 
L 21 0 
L 10.6875 0 
z
" id="DejaVuSans-46"/>
     <path d="M 33.015625 40.375 
Q 26.375 40.375 22.484375 35.828125 
Q 18.609375 31.296875 18.609375 23.390625 
Q 18.609375 15.53125 22.484375 10.953125 
Q 26.375 6.390625 33.015625 6.390625 
Q 39.65625 6.390625 43.53125 10.953125 
Q 47.40625 15.53125 47.40625 23.390625 
Q 47.40625 31.296875 43.53125 35.828125 
Q 39.65625 40.375 33.015625 40.375 
z
M 52.59375 71.296875 
L 52.59375 62.3125 
Q 48.875 64.0625 45.09375 64.984375 
Q 41.3125 65.921875 37.59375 65.921875 
Q 27.828125 65.921875 22.671875 59.328125 
Q 17.53125 52.734375 16.796875 39.40625 
Q 19.671875 43.65625 24.015625 45.921875 
Q 28.375 48.1875 33.59375 48.1875 
Q 44.578125 48.1875 50.953125 41.515625 
Q 57.328125 34.859375 57.328125 23.390625 
Q 57.328125 12.15625 50.6875 5.359375 
Q 44.046875 -1.421875 33.015625 -1.421875 
Q 20.359375 -1.421875 13.671875 8.265625 
Q 6.984375 17.96875 6.984375 36.375 
Q 6.984375 53.65625 15.1875 63.9375 
Q 23.390625 74.21875 37.203125 74.21875 
Q 40.921875 74.21875 44.703125 73.484375 
Q 48.484375 72.75 52.59375 71.296875 
z
" id="DejaVuSans-54"/>
    </defs>
    <g transform="translate(200.664375 28.56)scale(0.12 -0.12)">
     <use xlink:href="#DejaVuSans-116"/>
     <use x="39.208984" xlink:href="#DejaVuSans-32"/>
     <use x="70.996094" xlink:href="#DejaVuSans-61"/>
     <use x="154.785156" xlink:href="#DejaVuSans-32"/>
     <use x="186.572266" xlink:href="#DejaVuSans-48"/>
     <use x="250.195312" xlink:href="#DejaVuSans-46"/>
     <use x="281.982422" xlink:href="#DejaVuSans-54"/>
    </g>
   </g>
  </g>
 </g>
 <defs>
  <clipPath id="pa42c4a650f">
   <rect height="217.44" width="334.8" x="54" y="34.56"/>
  </clipPath>
 </defs>
</svg>
