<?xml version="1.0" encoding="utf-8" standalone="no"?>
<!DOCTYPE svg PUBLIC "-//W3C//DTD SVG 1.1//EN"
  "http://www.w3.org/Graphics/SVG/1.1/DTD/svg11.dtd">
<!-- Created with matplotlib (https://matplotlib.org/) -->
<svg height="288pt" version="1.1" viewBox="0 0 432 288" width="432pt" xmlns="http://www.w3.org/2000/svg" xmlns:xlink="http://www.w3.org/1999/xlink">
 <defs>
  <style type="text/css">
*{stroke-linecap:butt;stroke-linejoin:round;}
  </style>
 </defs>
 <g id="figure_1">
  <g id="patch_1">
   <path d="M 0 288 
L 432 288 
L 432 0 
L 0 0 
z
" style="fill:#ffffff;"/>
  </g>
  <g id="axes_1">
   <g id="patch_2">
    <path clip-path="url(#paae5093342)" d="M 197.295838 135.335077 
L 197.592956 146.203017 
L 196.506162 146.232729 
L 196.209044 135.364789 
z
" style="stroke:#000000;stroke-linejoin:miter;"/>
   </g>
   <g id="patch_3">
    <path clip-path="url(#paae5093342)" d="M 251.635535 133.849486 
L 251.932653 144.717426 
L 250.845859 144.747137 
L 250.548741 133.879198 
z
" style="stroke:#000000;stroke-linejoin:miter;"/>
   </g>
   <g id="patch_4">
    <path clip-path="url(#paae5093342)" d="M 214.865673 134.854736 
L 214.701891 134.307461 
L 214.244117 133.804314 
L 213.50056 133.3788 
L 212.484023 133.059731 
L 211.211665 132.869327 
L 209.704677 132.821738 
L 207.987923 132.922092 
L 206.089521 133.166125 
L 204.040386 133.540427 
L 201.873738 134.023268 
L 199.624586 134.585985 
L 197.329191 135.194799 
L 195.024513 135.812984 
L 192.747651 136.40321 
L 190.535284 136.929939 
L 188.423115 137.361697 
L 186.445326 137.673087 
L 184.634048 137.846399 
L 183.018856 137.872726 
L 181.626294 137.752508 
L 180.479442 137.49547 
L 179.597516 137.119949 
L 178.995532 136.651674 
L 178.684023 136.122065 
L 178.668826 135.566161 
L 178.950932 135.020323 
L 179.526432 134.519857 
L 180.386524 134.096711 
L 181.517619 133.777396 
L 182.901532 133.581273 
L 184.51575 133.519311 
L 186.333792 133.5934 
L 188.32564 133.796265 
L 190.458244 134.111976 
L 192.696085 134.517041 
L 195.001794 134.981984 
L 197.336806 135.473324 
L 199.662036 135.955815 
L 201.938573 136.394804 
L 204.128366 136.758545 
L 206.194891 137.020328 
L 208.10379 137.160275 
L 209.823463 137.16668 
L 211.3256 137.036825 
L 212.585655 136.777187 
L 213.58324 136.403054 
L 214.302438 135.93755 
L 214.732037 135.410142 
z
" style="fill:#0000ff;stroke:#000000;stroke-linejoin:miter;"/>
   </g>
   <g id="patch_5">
    <path clip-path="url(#paae5093342)" d="M 269.20537 133.369145 
L 269.041587 132.82187 
L 268.583814 132.318723 
L 267.840256 131.893209 
L 266.82372 131.57414 
L 265.551361 131.383736 
L 264.044373 131.336147 
L 262.327619 131.4365 
L 260.429218 131.680534 
L 258.380082 132.054835 
L 256.213434 132.537677 
L 253.964283 133.100393 
L 251.668888 133.709208 
L 249.36421 134.327393 
L 247.087347 134.917618 
L 244.87498 135.444347 
L 242.762812 135.876106 
L 240.785023 136.187496 
L 238.973745 136.360808 
L 237.358552 136.387134 
L 235.965991 136.266917 
L 234.819139 136.009879 
L 233.937212 135.634358 
L 233.335228 135.166083 
L 233.02372 134.636474 
L 233.008522 134.08057 
L 233.290629 133.534732 
L 233.866129 133.034266 
L 234.72622 132.61112 
L 235.857315 132.291805 
L 237.241228 132.095682 
L 238.855446 132.03372 
L 240.673489 132.107809 
L 242.665337 132.310673 
L 244.79794 132.626385 
L 247.035781 133.031449 
L 249.341491 133.496392 
L 251.676503 133.987733 
L 254.001732 134.470224 
L 256.27827 134.909213 
L 258.468062 135.272954 
L 260.534588 135.534737 
L 262.443487 135.674683 
L 264.163159 135.681089 
L 265.665296 135.551233 
L 266.925351 135.291596 
L 267.922936 134.917463 
L 268.642134 134.451958 
L 269.071734 133.924551 
z
" style="fill:#0000ff;stroke:#000000;stroke-linejoin:miter;"/>
   </g>
   <g id="patch_6">
    <path clip-path="url(#paae5093342)" d="M 256.748946 141.866738 
L 191.54131 143.649447 
L 191.689869 149.083417 
L 256.897505 147.300707 
z
" style="fill:#999999;stroke:#000000;stroke-linejoin:miter;"/>
   </g>
   <g id="text_1">
    <!-- t = 1.3 -->
    <defs>
     <path d="M 18.3125 70.21875 
L 18.3125 54.6875 
L 36.8125 54.6875 
L 36.8125 47.703125 
L 18.3125 47.703125 
L 18.3125 18.015625 
Q 18.3125 11.328125 20.140625 9.421875 
Q 21.96875 7.515625 27.59375 7.515625 
L 36.8125 7.515625 
L 36.8125 0 
L 27.59375 0 
Q 17.1875 0 13.234375 3.875 
Q 9.28125 7.765625 9.28125 18.015625 
L 9.28125 47.703125 
L 2.6875 47.703125 
L 2.6875 54.6875 
L 9.28125 54.6875 
L 9.28125 70.21875 
z
" id="DejaVuSans-116"/>
     <path id="DejaVuSans-32"/>
     <path d="M 10.59375 45.40625 
L 73.1875 45.40625 
L 73.1875 37.203125 
L 10.59375 37.203125 
z
M 10.59375 25.484375 
L 73.1875 25.484375 
L 73.1875 17.1875 
L 10.59375 17.1875 
z
" id="DejaVuSans-61"/>
     <path d="M 12.40625 8.296875 
L 28.515625 8.296875 
L 28.515625 63.921875 
L 10.984375 60.40625 
L 10.984375 69.390625 
L 28.421875 72.90625 
L 38.28125 72.90625 
L 38.28125 8.296875 
L 54.390625 8.296875 
L 54.390625 0 
L 12.40625 0 
z
" id="DejaVuSans-49"/>
     <path d="M 10.6875 12.40625 
L 21 12.40625 
L 21 0 
L 10.6875 0 
z
" id="DejaVuSans-46"/>
     <path d="M 40.578125 39.3125 
Q 47.65625 37.796875 51.625 33 
Q 55.609375 28.21875 55.609375 21.1875 
Q 55.609375 10.40625 48.1875 4.484375 
Q 40.765625 -1.421875 27.09375 -1.421875 
Q 22.515625 -1.421875 17.65625 -0.515625 
Q 12.796875 0.390625 7.625 2.203125 
L 7.625 11.71875 
Q 11.71875 9.328125 16.59375 8.109375 
Q 21.484375 6.890625 26.8125 6.890625 
Q 36.078125 6.890625 40.9375 10.546875 
Q 45.796875 14.203125 45.796875 21.1875 
Q 45.796875 27.640625 41.28125 31.265625 
Q 36.765625 34.90625 28.71875 34.90625 
L 20.21875 34.90625 
L 20.21875 43.015625 
L 29.109375 43.015625 
Q 36.375 43.015625 40.234375 45.921875 
Q 44.09375 48.828125 44.09375 54.296875 
Q 44.09375 59.90625 40.109375 62.90625 
Q 36.140625 65.921875 28.71875 65.921875 
Q 24.65625 65.921875 20.015625 65.03125 
Q 15.375 64.15625 9.8125 62.3125 
L 9.8125 71.09375 
Q 15.4375 72.65625 20.34375 73.4375 
Q 25.25 74.21875 29.59375 74.21875 
Q 40.828125 74.21875 47.359375 69.109375 
Q 53.90625 64.015625 53.90625 55.328125 
Q 53.90625 49.265625 50.4375 45.09375 
Q 46.96875 40.921875 40.578125 39.3125 
z
" id="DejaVuSans-51"/>
    </defs>
    <g transform="translate(200.664375 28.56)scale(0.12 -0.12)">
     <use xlink:href="#DejaVuSans-116"/>
     <use x="39.208984" xlink:href="#DejaVuSans-32"/>
     <use x="70.996094" xlink:href="#DejaVuSans-61"/>
     <use x="154.785156" xlink:href="#DejaVuSans-32"/>
     <use x="186.572266" xlink:href="#DejaVuSans-49"/>
     <use x="250.195312" xlink:href="#DejaVuSans-46"/>
     <use x="281.982422" xlink:href="#DejaVuSans-51"/>
    </g>
   </g>
  </g>
 </g>
 <defs>
  <clipPath id="paae5093342">
   <rect height="217.44" width="334.8" x="54" y="34.56"/>
  </clipPath>
 </defs>
</svg>
