<?xml version="1.0" encoding="utf-8" standalone="no"?>
<!DOCTYPE svg PUBLIC "-//W3C//DTD SVG 1.1//EN"
  "http://www.w3.org/Graphics/SVG/1.1/DTD/svg11.dtd">
<!-- Created with matplotlib (https://matplotlib.org/) -->
<svg height="288pt" version="1.1" viewBox="0 0 432 288" width="432pt" xmlns="http://www.w3.org/2000/svg" xmlns:xlink="http://www.w3.org/1999/xlink">
 <defs>
  <style type="text/css">
*{stroke-linecap:butt;stroke-linejoin:round;}
  </style>
 </defs>
 <g id="figure_1">
  <g id="patch_1">
   <path d="M 0 288 
L 432 288 
L 432 0 
L 0 0 
z
" style="fill:#ffffff;"/>
  </g>
  <g id="axes_1">
   <g id="patch_2">
    <path clip-path="url(#peb57feb714)" d="M 123.236105 149.485905 
L 126.743671 159.77655 
L 125.714606 160.127307 
L 122.207041 149.836662 
z
" style="stroke:#000000;stroke-linejoin:miter;"/>
   </g>
   <g id="patch_3">
    <path clip-path="url(#peb57feb714)" d="M 174.689329 131.948078 
L 178.196894 142.238723 
L 177.16783 142.589479 
L 173.660264 132.298835 
z
" style="stroke:#000000;stroke-linejoin:miter;"/>
   </g>
   <g id="patch_4">
    <path clip-path="url(#peb57feb714)" d="M 139.872648 143.815341 
L 139.553896 143.341283 
L 138.967475 142.996574 
L 138.131161 142.810777 
L 137.065731 142.807611 
L 135.79416 143.003204 
L 134.340884 143.404783 
L 132.731168 144.009871 
L 130.990602 144.806055 
L 129.144728 145.771356 
L 127.218827 146.875171 
L 125.23783 148.079739 
L 123.226346 149.342047 
L 121.208775 150.616058 
L 119.209475 151.855117 
L 117.252932 153.014406 
L 115.363906 154.053276 
L 113.567506 154.937334 
L 111.889162 155.640135 
L 110.354478 156.1444 
L 108.988934 156.442678 
L 107.817454 156.537406 
L 106.86383 156.440398 
L 106.150034 156.17177 
L 105.695445 155.758403 
L 105.51603 155.232027 
L 105.623524 154.627074 
L 106.024665 153.97842 
L 106.720524 153.319186 
L 107.705989 152.67872 
L 108.969436 152.080906 
L 110.492619 151.542898 
L 112.25081 151.074356 
L 114.213183 150.677236 
L 116.343451 150.34613 
L 118.600725 150.06914 
L 120.940575 149.8292 
L 123.316238 149.605777 
L 125.679935 149.376805 
L 127.984227 149.120733 
L 130.183357 148.818531 
L 132.234524 148.455526 
L 134.099018 148.022926 
L 135.743189 147.518926 
L 137.139196 146.949328 
L 138.265519 146.327599 
L 139.107222 145.674386 
L 139.655964 145.016494 
L 139.90978 144.38539 
z
" style="fill:#0000ff;stroke:#000000;stroke-linejoin:miter;"/>
   </g>
   <g id="patch_5">
    <path clip-path="url(#peb57feb714)" d="M 191.325871 126.277514 
L 191.007119 125.803455 
L 190.420698 125.458746 
L 189.584385 125.27295 
L 188.518955 125.269783 
L 187.247383 125.465376 
L 185.794107 125.866956 
L 184.184392 126.472043 
L 182.443825 127.268227 
L 180.597951 128.233529 
L 178.672051 129.337343 
L 176.691054 130.541911 
L 174.679569 131.80422 
L 172.661999 133.07823 
L 170.662699 134.31729 
L 168.706156 135.476578 
L 166.81713 136.515449 
L 165.020729 137.399506 
L 163.342385 138.102307 
L 161.807701 138.606573 
L 160.442158 138.90485 
L 159.270677 138.999578 
L 158.317053 138.90257 
L 157.603257 138.633943 
L 157.148668 138.220575 
L 156.969253 137.6942 
L 157.076748 137.089247 
L 157.477888 136.440593 
L 158.173747 135.781358 
L 159.159213 135.140892 
L 160.422659 134.543078 
L 161.945842 134.00507 
L 163.704033 133.536528 
L 165.666406 133.139408 
L 167.796674 132.808303 
L 170.053948 132.531312 
L 172.393798 132.291372 
L 174.769462 132.067949 
L 177.133159 131.838978 
L 179.43745 131.582906 
L 181.636581 131.280704 
L 183.687747 130.917699 
L 185.552241 130.485098 
L 187.196412 129.981099 
L 188.592419 129.4115 
L 189.718742 128.789771 
L 190.560445 128.136559 
L 191.109188 127.478666 
L 191.363003 126.847563 
z
" style="fill:#0000ff;stroke:#000000;stroke-linejoin:miter;"/>
   </g>
   <g id="patch_6">
    <path clip-path="url(#peb57feb714)" d="M 181.950793 138.087657 
L 120.206925 159.13305 
L 121.960708 164.278372 
L 183.704576 143.232979 
z
" style="fill:#999999;stroke:#000000;stroke-linejoin:miter;"/>
   </g>
   <g id="text_1">
    <!-- t = 0.7 -->
    <defs>
     <path d="M 18.3125 70.21875 
L 18.3125 54.6875 
L 36.8125 54.6875 
L 36.8125 47.703125 
L 18.3125 47.703125 
L 18.3125 18.015625 
Q 18.3125 11.328125 20.140625 9.421875 
Q 21.96875 7.515625 27.59375 7.515625 
L 36.8125 7.515625 
L 36.8125 0 
L 27.59375 0 
Q 17.1875 0 13.234375 3.875 
Q 9.28125 7.765625 9.28125 18.015625 
L 9.28125 47.703125 
L 2.6875 47.703125 
L 2.6875 54.6875 
L 9.28125 54.6875 
L 9.28125 70.21875 
z
" id="DejaVuSans-116"/>
     <path id="DejaVuSans-32"/>
     <path d="M 10.59375 45.40625 
L 73.1875 45.40625 
L 73.1875 37.203125 
L 10.59375 37.203125 
z
M 10.59375 25.484375 
L 73.1875 25.484375 
L 73.1875 17.1875 
L 10.59375 17.1875 
z
" id="DejaVuSans-61"/>
     <path d="M 31.78125 66.40625 
Q 24.171875 66.40625 20.328125 58.90625 
Q 16.5 51.421875 16.5 36.375 
Q 16.5 21.390625 20.328125 13.890625 
Q 24.171875 6.390625 31.78125 6.390625 
Q 39.453125 6.390625 43.28125 13.890625 
Q 47.125 21.390625 47.125 36.375 
Q 47.125 51.421875 43.28125 58.90625 
Q 39.453125 66.40625 31.78125 66.40625 
z
M 31.78125 74.21875 
Q 44.046875 74.21875 50.515625 64.515625 
Q 56.984375 54.828125 56.984375 36.375 
Q 56.984375 17.96875 50.515625 8.265625 
Q 44.046875 -1.421875 31.78125 -1.421875 
Q 19.53125 -1.421875 13.0625 8.265625 
Q 6.59375 17.96875 6.59375 36.375 
Q 6.59375 54.828125 13.0625 64.515625 
Q 19.53125 74.21875 31.78125 74.21875 
z
" id="DejaVuSans-48"/>
     <path d="M 10.6875 12.40625 
L 21 12.40625 
L 21 0 
L 10.6875 0 
z
" id="DejaVuSans-46"/>
     <path d="M 8.203125 72.90625 
L 55.078125 72.90625 
L 55.078125 68.703125 
L 28.609375 0 
L 18.3125 0 
L 43.21875 64.59375 
L 8.203125 64.59375 
z
" id="DejaVuSans-55"/>
    </defs>
    <g transform="translate(200.664375 28.56)scale(0.12 -0.12)">
     <use xlink:href="#DejaVuSans-116"/>
     <use x="39.208984" xlink:href="#DejaVuSans-32"/>
     <use x="70.996094" xlink:href="#DejaVuSans-61"/>
     <use x="154.785156" xlink:href="#DejaVuSans-32"/>
     <use x="186.572266" xlink:href="#DejaVuSans-48"/>
     <use x="250.195312" xlink:href="#DejaVuSans-46"/>
     <use x="281.982422" xlink:href="#DejaVuSans-55"/>
    </g>
   </g>
  </g>
 </g>
 <defs>
  <clipPath id="peb57feb714">
   <rect height="217.44" width="334.8" x="54" y="34.56"/>
  </clipPath>
 </defs>
</svg>
