<?xml version="1.0" encoding="utf-8" standalone="no"?>
<!DOCTYPE svg PUBLIC "-//W3C//DTD SVG 1.1//EN"
  "http://www.w3.org/Graphics/SVG/1.1/DTD/svg11.dtd">
<!-- Created with matplotlib (https://matplotlib.org/) -->
<svg height="288pt" version="1.1" viewBox="0 0 432 288" width="432pt" xmlns="http://www.w3.org/2000/svg" xmlns:xlink="http://www.w3.org/1999/xlink">
 <defs>
  <style type="text/css">
*{stroke-linecap:butt;stroke-linejoin:round;}
  </style>
 </defs>
 <g id="figure_1">
  <g id="patch_1">
   <path d="M 0 288 
L 432 288 
L 432 0 
L 0 0 
z
" style="fill:#ffffff;"/>
  </g>
  <g id="axes_1">
   <g id="patch_2">
    <path clip-path="url(#pdcf36b2ff1)" d="M 194.772727 132.407467 
L 194.772361 143.279467 
L 193.685161 143.27943 
L 193.685527 132.40743 
z
" style="stroke:#000000;stroke-linejoin:miter;"/>
   </g>
   <g id="patch_3">
    <path clip-path="url(#pdcf36b2ff1)" d="M 249.132727 132.409295 
L 249.132361 143.281295 
L 248.045161 143.281258 
L 248.045527 132.409258 
z
" style="stroke:#000000;stroke-linejoin:miter;"/>
   </g>
   <g id="patch_4">
    <path clip-path="url(#pdcf36b2ff1)" d="M 212.349127 132.408058 
L 212.200381 131.856506 
L 211.756546 131.341021 
L 211.024909 130.895321 
L 210.017484 130.548557 
L 208.750812 130.323409 
L 207.24569 130.234603 
L 205.526833 130.287945 
L 203.622465 130.479943 
L 201.563855 130.798035 
L 199.384807 131.221411 
L 197.1211 131.722374 
L 194.809906 132.268154 
L 192.489176 132.823045 
L 190.197016 133.35075 
L 187.971065 133.816746 
L 185.847873 134.190549 
L 183.862304 134.447706 
L 182.046962 134.571391 
L 180.431654 134.553512 
L 179.042904 134.395237 
L 177.903514 134.106914 
L 177.032193 133.707402 
L 176.443248 133.222831 
L 176.146347 132.684896 
L 176.146366 132.128784 
L 176.443302 131.59087 
L 177.032281 131.106339 
L 177.903628 130.706885 
L 179.043037 130.418639 
L 180.431798 130.260456 
L 182.047108 130.242686 
L 183.862442 130.366494 
L 185.847993 130.623784 
L 187.97116 130.99773 
L 190.197079 131.463876 
L 192.489204 131.991735 
L 194.809897 132.546782 
L 197.121054 133.092717 
L 199.384727 133.593833 
L 201.563747 134.017355 
L 203.622335 134.335586 
L 205.526691 134.527712 
L 207.245544 134.581169 
L 208.750672 134.492464 
L 210.017359 134.267402 
L 211.024808 133.920705 
L 211.756474 133.475054 
L 212.200343 132.959599 
z
" style="fill:#0000ff;stroke:#000000;stroke-linejoin:miter;"/>
   </g>
   <g id="patch_5">
    <path clip-path="url(#pdcf36b2ff1)" d="M 266.709127 132.409886 
L 266.56038 131.858334 
L 266.116546 131.342849 
L 265.384909 130.897149 
L 264.377484 130.550385 
L 263.110812 130.325237 
L 261.60569 130.236431 
L 259.886833 130.289773 
L 257.982465 130.481771 
L 255.923855 130.799862 
L 253.744807 131.223239 
L 251.4811 131.724202 
L 249.169906 132.269982 
L 246.849176 132.824873 
L 244.557016 133.352577 
L 242.331065 133.818574 
L 240.207873 134.192377 
L 238.222304 134.449533 
L 236.406962 134.573219 
L 234.791654 134.55534 
L 233.402904 134.397064 
L 232.263514 134.108742 
L 231.392193 133.70923 
L 230.803248 133.224659 
L 230.506347 132.686724 
L 230.506366 132.130612 
L 230.803302 131.592698 
L 231.392281 131.108166 
L 232.263628 130.708713 
L 233.403037 130.420467 
L 234.791798 130.262284 
L 236.407108 130.244514 
L 238.222442 130.368322 
L 240.207993 130.625612 
L 242.33116 130.999558 
L 244.557079 131.465704 
L 246.849204 131.993562 
L 249.169897 132.54861 
L 251.481054 133.094545 
L 253.744727 133.595661 
L 255.923747 134.019183 
L 257.982335 134.337414 
L 259.886691 134.529539 
L 261.605544 134.582997 
L 263.110672 134.494292 
L 264.377359 134.26923 
L 265.384808 133.922533 
L 266.116474 133.476882 
L 266.560343 132.961427 
z
" style="fill:#0000ff;stroke:#000000;stroke-linejoin:miter;"/>
   </g>
   <g id="patch_6">
    <path clip-path="url(#pdcf36b2ff1)" d="M 254.024853 140.563459 
L 188.792853 140.561266 
L 188.79267 145.997266 
L 254.02467 145.999459 
z
" style="fill:#999999;stroke:#000000;stroke-linejoin:miter;"/>
   </g>
   <g id="text_1">
    <!-- t = 3.9 -->
    <defs>
     <path d="M 18.3125 70.21875 
L 18.3125 54.6875 
L 36.8125 54.6875 
L 36.8125 47.703125 
L 18.3125 47.703125 
L 18.3125 18.015625 
Q 18.3125 11.328125 20.140625 9.421875 
Q 21.96875 7.515625 27.59375 7.515625 
L 36.8125 7.515625 
L 36.8125 0 
L 27.59375 0 
Q 17.1875 0 13.234375 3.875 
Q 9.28125 7.765625 9.28125 18.015625 
L 9.28125 47.703125 
L 2.6875 47.703125 
L 2.6875 54.6875 
L 9.28125 54.6875 
L 9.28125 70.21875 
z
" id="DejaVuSans-116"/>
     <path id="DejaVuSans-32"/>
     <path d="M 10.59375 45.40625 
L 73.1875 45.40625 
L 73.1875 37.203125 
L 10.59375 37.203125 
z
M 10.59375 25.484375 
L 73.1875 25.484375 
L 73.1875 17.1875 
L 10.59375 17.1875 
z
" id="DejaVuSans-61"/>
     <path d="M 40.578125 39.3125 
Q 47.65625 37.796875 51.625 33 
Q 55.609375 28.21875 55.609375 21.1875 
Q 55.609375 10.40625 48.1875 4.484375 
Q 40.765625 -1.421875 27.09375 -1.421875 
Q 22.515625 -1.421875 17.65625 -0.515625 
Q 12.796875 0.390625 7.625 2.203125 
L 7.625 11.71875 
Q 11.71875 9.328125 16.59375 8.109375 
Q 21.484375 6.890625 26.8125 6.890625 
Q 36.078125 6.890625 40.9375 10.546875 
Q 45.796875 14.203125 45.796875 21.1875 
Q 45.796875 27.640625 41.28125 31.265625 
Q 36.765625 34.90625 28.71875 34.90625 
L 20.21875 34.90625 
L 20.21875 43.015625 
L 29.109375 43.015625 
Q 36.375 43.015625 40.234375 45.921875 
Q 44.09375 48.828125 44.09375 54.296875 
Q 44.09375 59.90625 40.109375 62.90625 
Q 36.140625 65.921875 28.71875 65.921875 
Q 24.65625 65.921875 20.015625 65.03125 
Q 15.375 64.15625 9.8125 62.3125 
L 9.8125 71.09375 
Q 15.4375 72.65625 20.34375 73.4375 
Q 25.25 74.21875 29.59375 74.21875 
Q 40.828125 74.21875 47.359375 69.109375 
Q 53.90625 64.015625 53.90625 55.328125 
Q 53.90625 49.265625 50.4375 45.09375 
Q 46.96875 40.921875 40.578125 39.3125 
z
" id="DejaVuSans-51"/>
     <path d="M 10.6875 12.40625 
L 21 12.40625 
L 21 0 
L 10.6875 0 
z
" id="DejaVuSans-46"/>
     <path d="M 10.984375 1.515625 
L 10.984375 10.5 
Q 14.703125 8.734375 18.5 7.8125 
Q 22.3125 6.890625 25.984375 6.890625 
Q 35.75 6.890625 40.890625 13.453125 
Q 46.046875 20.015625 46.78125 33.40625 
Q 43.953125 29.203125 39.59375 26.953125 
Q 35.25 24.703125 29.984375 24.703125 
Q 19.046875 24.703125 12.671875 31.3125 
Q 6.296875 37.9375 6.296875 49.421875 
Q 6.296875 60.640625 12.9375 67.421875 
Q 19.578125 74.21875 30.609375 74.21875 
Q 43.265625 74.21875 49.921875 64.515625 
Q 56.59375 54.828125 56.59375 36.375 
Q 56.59375 19.140625 48.40625 8.859375 
Q 40.234375 -1.421875 26.421875 -1.421875 
Q 22.703125 -1.421875 18.890625 -0.6875 
Q 15.09375 0.046875 10.984375 1.515625 
z
M 30.609375 32.421875 
Q 37.25 32.421875 41.125 36.953125 
Q 45.015625 41.5 45.015625 49.421875 
Q 45.015625 57.28125 41.125 61.84375 
Q 37.25 66.40625 30.609375 66.40625 
Q 23.96875 66.40625 20.09375 61.84375 
Q 16.21875 57.28125 16.21875 49.421875 
Q 16.21875 41.5 20.09375 36.953125 
Q 23.96875 32.421875 30.609375 32.421875 
z
" id="DejaVuSans-57"/>
    </defs>
    <g transform="translate(200.664375 28.56)scale(0.12 -0.12)">
     <use xlink:href="#DejaVuSans-116"/>
     <use x="39.208984" xlink:href="#DejaVuSans-32"/>
     <use x="70.996094" xlink:href="#DejaVuSans-61"/>
     <use x="154.785156" xlink:href="#DejaVuSans-32"/>
     <use x="186.572266" xlink:href="#DejaVuSans-51"/>
     <use x="250.195312" xlink:href="#DejaVuSans-46"/>
     <use x="281.982422" xlink:href="#DejaVuSans-57"/>
    </g>
   </g>
  </g>
 </g>
 <defs>
  <clipPath id="pdcf36b2ff1">
   <rect height="217.44" width="334.8" x="54" y="34.56"/>
  </clipPath>
 </defs>
</svg>
