<?xml version="1.0" encoding="utf-8" standalone="no"?>
<!DOCTYPE svg PUBLIC "-//W3C//DTD SVG 1.1//EN"
  "http://www.w3.org/Graphics/SVG/1.1/DTD/svg11.dtd">
<!-- Created with matplotlib (https://matplotlib.org/) -->
<svg height="288pt" version="1.1" viewBox="0 0 432 288" width="432pt" xmlns="http://www.w3.org/2000/svg" xmlns:xlink="http://www.w3.org/1999/xlink">
 <defs>
  <style type="text/css">
*{stroke-linecap:butt;stroke-linejoin:round;}
  </style>
 </defs>
 <g id="figure_1">
  <g id="patch_1">
   <path d="M 0 288 
L 432 288 
L 432 0 
L 0 0 
z
" style="fill:#ffffff;"/>
  </g>
  <g id="axes_1">
   <g id="patch_2">
    <path clip-path="url(#p955de47a83)" d="M 234.062691 104.218489 
L 236.945492 114.701325 
L 235.897209 114.989605 
L 233.014407 104.50677 
z
" style="stroke:#000000;stroke-linejoin:miter;"/>
   </g>
   <g id="patch_3">
    <path clip-path="url(#p955de47a83)" d="M 286.476867 89.80448 
L 289.359669 100.287316 
L 288.311386 100.575596 
L 285.428584 90.09276 
z
" style="stroke:#000000;stroke-linejoin:miter;"/>
   </g>
   <g id="patch_4">
    <path clip-path="url(#p955de47a83)" d="M 251.009941 99.55796 
L 250.720254 99.065602 
L 250.155609 98.686275 
L 249.331972 98.450556 
L 248.268658 98.383367 
L 246.987631 98.50219 
L 245.512848 98.815708 
L 243.869679 99.322965 
L 242.084411 100.01311 
L 240.183862 100.865737 
L 238.195108 101.851818 
L 236.145302 102.935159 
L 234.061594 104.074305 
L 231.971107 105.224765 
L 229.900958 106.341436 
L 227.878283 107.381049 
L 225.93024 108.304519 
L 224.083958 109.079023 
L 222.366412 109.679692 
L 220.804198 110.090819 
L 219.423197 110.306494 
L 218.248141 110.33065 
L 217.30207 110.176508 
L 216.605708 109.86547 
L 216.176782 109.425531 
L 216.029324 108.889325 
L 216.17298 108.291925 
L 216.612377 107.66855 
L 217.346595 107.052325 
L 218.368769 106.472239 
L 219.665858 105.951433 
L 221.21862 105.505934 
L 223.001791 105.143899 
L 224.984482 104.865427 
L 227.130798 104.66294 
L 229.400638 104.522103 
L 231.750678 104.423212 
L 234.135475 104.34296 
L 236.50866 104.25645 
L 238.824176 104.139319 
L 241.037492 103.969822 
L 243.106767 103.730739 
L 244.993889 103.410969 
L 246.665376 103.006688 
L 248.09309 102.522013 
L 249.254741 101.969095 
L 250.134178 101.367646 
L 250.721465 100.743919 
L 251.012748 100.12921 
z
" style="fill:#0000ff;stroke:#000000;stroke-linejoin:miter;"/>
   </g>
   <g id="patch_5">
    <path clip-path="url(#p955de47a83)" d="M 303.424118 85.143951 
L 303.134431 84.651593 
L 302.569785 84.272266 
L 301.746149 84.036546 
L 300.682835 83.969357 
L 299.401808 84.088181 
L 297.927025 84.401699 
L 296.283856 84.908956 
L 294.498588 85.5991 
L 292.598039 86.451728 
L 290.609285 87.437809 
L 288.559479 88.52115 
L 286.475771 89.660296 
L 284.385284 90.810756 
L 282.315135 91.927426 
L 280.29246 92.96704 
L 278.344417 93.89051 
L 276.498135 94.665014 
L 274.780589 95.265683 
L 273.218375 95.676809 
L 271.837374 95.892484 
L 270.662318 95.91664 
L 269.716247 95.762499 
L 269.019885 95.45146 
L 268.590959 95.011521 
L 268.443501 94.475315 
L 268.587157 93.877915 
L 269.026554 93.254541 
L 269.760772 92.638316 
L 270.782946 92.058229 
L 272.080035 91.537424 
L 273.632797 91.091925 
L 275.415967 90.72989 
L 277.398659 90.451418 
L 279.544975 90.248931 
L 281.814815 90.108094 
L 284.164855 90.009202 
L 286.549652 89.928951 
L 288.922837 89.842441 
L 291.238353 89.72531 
L 293.451669 89.555812 
L 295.520944 89.31673 
L 297.408065 88.996959 
L 299.079553 88.592679 
L 300.507267 88.108004 
L 301.668918 87.555086 
L 302.548355 86.953636 
L 303.135642 86.32991 
L 303.426925 85.715201 
z
" style="fill:#0000ff;stroke:#000000;stroke-linejoin:miter;"/>
   </g>
   <g id="patch_6">
    <path clip-path="url(#p955de47a83)" d="M 293.356245 96.369346 
L 230.459233 113.666157 
L 231.900633 118.907575 
L 294.797646 101.610764 
z
" style="fill:#999999;stroke:#000000;stroke-linejoin:miter;"/>
   </g>
   <g id="text_1">
    <!-- t = 0.2 -->
    <defs>
     <path d="M 18.3125 70.21875 
L 18.3125 54.6875 
L 36.8125 54.6875 
L 36.8125 47.703125 
L 18.3125 47.703125 
L 18.3125 18.015625 
Q 18.3125 11.328125 20.140625 9.421875 
Q 21.96875 7.515625 27.59375 7.515625 
L 36.8125 7.515625 
L 36.8125 0 
L 27.59375 0 
Q 17.1875 0 13.234375 3.875 
Q 9.28125 7.765625 9.28125 18.015625 
L 9.28125 47.703125 
L 2.6875 47.703125 
L 2.6875 54.6875 
L 9.28125 54.6875 
L 9.28125 70.21875 
z
" id="DejaVuSans-116"/>
     <path id="DejaVuSans-32"/>
     <path d="M 10.59375 45.40625 
L 73.1875 45.40625 
L 73.1875 37.203125 
L 10.59375 37.203125 
z
M 10.59375 25.484375 
L 73.1875 25.484375 
L 73.1875 17.1875 
L 10.59375 17.1875 
z
" id="DejaVuSans-61"/>
     <path d="M 31.78125 66.40625 
Q 24.171875 66.40625 20.328125 58.90625 
Q 16.5 51.421875 16.5 36.375 
Q 16.5 21.390625 20.328125 13.890625 
Q 24.171875 6.390625 31.78125 6.390625 
Q 39.453125 6.390625 43.28125 13.890625 
Q 47.125 21.390625 47.125 36.375 
Q 47.125 51.421875 43.28125 58.90625 
Q 39.453125 66.40625 31.78125 66.40625 
z
M 31.78125 74.21875 
Q 44.046875 74.21875 50.515625 64.515625 
Q 56.984375 54.828125 56.984375 36.375 
Q 56.984375 17.96875 50.515625 8.265625 
Q 44.046875 -1.421875 31.78125 -1.421875 
Q 19.53125 -1.421875 13.0625 8.265625 
Q 6.59375 17.96875 6.59375 36.375 
Q 6.59375 54.828125 13.0625 64.515625 
Q 19.53125 74.21875 31.78125 74.21875 
z
" id="DejaVuSans-48"/>
     <path d="M 10.6875 12.40625 
L 21 12.40625 
L 21 0 
L 10.6875 0 
z
" id="DejaVuSans-46"/>
     <path d="M 19.1875 8.296875 
L 53.609375 8.296875 
L 53.609375 0 
L 7.328125 0 
L 7.328125 8.296875 
Q 12.9375 14.109375 22.625 23.890625 
Q 32.328125 33.6875 34.8125 36.53125 
Q 39.546875 41.84375 41.421875 45.53125 
Q 43.3125 49.21875 43.3125 52.78125 
Q 43.3125 58.59375 39.234375 62.25 
Q 35.15625 65.921875 28.609375 65.921875 
Q 23.96875 65.921875 18.8125 64.3125 
Q 13.671875 62.703125 7.8125 59.421875 
L 7.8125 69.390625 
Q 13.765625 71.78125 18.9375 73 
Q 24.125 74.21875 28.421875 74.21875 
Q 39.75 74.21875 46.484375 68.546875 
Q 53.21875 62.890625 53.21875 53.421875 
Q 53.21875 48.921875 51.53125 44.890625 
Q 49.859375 40.875 45.40625 35.40625 
Q 44.1875 33.984375 37.640625 27.21875 
Q 31.109375 20.453125 19.1875 8.296875 
z
" id="DejaVuSans-50"/>
    </defs>
    <g transform="translate(200.664375 28.56)scale(0.12 -0.12)">
     <use xlink:href="#DejaVuSans-116"/>
     <use x="39.208984" xlink:href="#DejaVuSans-32"/>
     <use x="70.996094" xlink:href="#DejaVuSans-61"/>
     <use x="154.785156" xlink:href="#DejaVuSans-32"/>
     <use x="186.572266" xlink:href="#DejaVuSans-48"/>
     <use x="250.195312" xlink:href="#DejaVuSans-46"/>
     <use x="281.982422" xlink:href="#DejaVuSans-50"/>
    </g>
   </g>
  </g>
 </g>
 <defs>
  <clipPath id="p955de47a83">
   <rect height="217.44" width="334.8" x="54" y="34.56"/>
  </clipPath>
 </defs>
</svg>
