<?xml version="1.0" encoding="utf-8" standalone="no"?>
<!DOCTYPE svg PUBLIC "-//W3C//DTD SVG 1.1//EN"
  "http://www.w3.org/Graphics/SVG/1.1/DTD/svg11.dtd">
<!-- Created with matplotlib (https://matplotlib.org/) -->
<svg height="288pt" version="1.1" viewBox="0 0 432 288" width="432pt" xmlns="http://www.w3.org/2000/svg" xmlns:xlink="http://www.w3.org/1999/xlink">
 <defs>
  <style type="text/css">
*{stroke-linecap:butt;stroke-linejoin:round;}
  </style>
 </defs>
 <g id="figure_1">
  <g id="patch_1">
   <path d="M 0 288 
L 432 288 
L 432 0 
L 0 0 
z
" style="fill:#ffffff;"/>
  </g>
  <g id="axes_1">
   <g id="patch_2">
    <path clip-path="url(#pd1d100e0e1)" d="M 167.20325 174.9764 
L 170.622542 185.296712 
L 169.590511 185.638641 
L 166.171219 175.318329 
z
" style="stroke:#000000;stroke-linejoin:miter;"/>
   </g>
   <g id="patch_3">
    <path clip-path="url(#pd1d100e0e1)" d="M 218.804807 157.87994 
L 222.224099 168.200252 
L 221.192068 168.542181 
L 217.772776 158.221869 
z
" style="stroke:#000000;stroke-linejoin:miter;"/>
   </g>
   <g id="patch_4">
    <path clip-path="url(#pd1d100e0e1)" d="M 183.887754 169.448545 
L 183.573074 168.971773 
L 182.989627 168.622054 
L 182.154936 168.429101 
L 181.089572 168.416808 
L 179.816372 168.601503 
L 178.359709 168.990619 
L 176.74487 169.581897 
L 174.997548 170.363143 
L 173.143473 171.312598 
L 171.208188 172.399875 
L 169.216946 173.587431 
L 167.194724 174.832464 
L 165.166314 176.089146 
L 163.156474 177.311035 
L 161.190073 178.453522 
L 159.292218 179.476174 
L 157.488311 180.344812 
L 155.804009 181.033211 
L 154.265062 181.524313 
L 152.897013 181.810883 
L 151.724765 181.895573 
L 150.772006 181.7904 
L 150.060537 181.515668 
L 149.609506 181.098422 
L 149.434606 180.57053 
L 149.547278 179.966519 
L 149.953961 179.321325 
L 150.655441 178.668075 
L 151.646356 178.036074 
L 152.914877 177.449104 
L 154.442612 176.924162 
L 156.204752 176.470697 
L 158.170454 176.090401 
L 160.30348 175.777554 
L 162.563044 175.519909 
L 164.904863 175.300019 
L 167.282353 175.096954 
L 169.647925 174.888237 
L 171.954326 174.651911 
L 174.155964 174.368557 
L 176.210164 174.023135 
L 178.078296 173.606521 
L 179.726723 173.116623 
L 181.127558 172.559003 
L 182.259165 171.946944 
L 183.106432 171.300965 
L 183.66079 170.647797 
L 183.920001 170.018891 
z
" style="fill:#0000ff;stroke:#000000;stroke-linejoin:miter;"/>
   </g>
   <g id="patch_5">
    <path clip-path="url(#pd1d100e0e1)" d="M 235.48931 152.352085 
L 235.174631 151.875313 
L 234.591184 151.525594 
L 233.756492 151.332641 
L 232.691129 151.320348 
L 231.417929 151.505043 
L 229.961266 151.894159 
L 228.346427 152.485437 
L 226.599104 153.266683 
L 224.74503 154.216137 
L 222.809745 155.303415 
L 220.818503 156.490971 
L 218.79628 157.736004 
L 216.767871 158.992686 
L 214.758031 160.214575 
L 212.79163 161.357062 
L 210.893775 162.379714 
L 209.089868 163.248352 
L 207.405566 163.936751 
L 205.866618 164.427853 
L 204.49857 164.714423 
L 203.326321 164.799113 
L 202.373563 164.69394 
L 201.662094 164.419208 
L 201.211063 164.001962 
L 201.036163 163.47407 
L 201.148835 162.870059 
L 201.555517 162.224865 
L 202.256997 161.571615 
L 203.247912 160.939613 
L 204.516433 160.352644 
L 206.044169 159.827702 
L 207.806309 159.374237 
L 209.772011 158.993941 
L 211.905037 158.681094 
L 214.164601 158.423448 
L 216.50642 158.203559 
L 218.88391 158.000494 
L 221.249482 157.791777 
L 223.555882 157.555451 
L 225.75752 157.272097 
L 227.811721 156.926675 
L 229.679852 156.510061 
L 231.32828 156.020163 
L 232.729115 155.462543 
L 233.860722 154.850484 
L 234.707989 154.204505 
L 235.262346 153.551337 
L 235.521558 152.922431 
z
" style="fill:#0000ff;stroke:#000000;stroke-linejoin:miter;"/>
   </g>
   <g id="patch_6">
    <path clip-path="url(#pd1d100e0e1)" d="M 226.013416 164.081492 
L 164.091548 184.597244 
L 165.801194 189.7574 
L 227.723062 169.241648 
z
" style="fill:#999999;stroke:#000000;stroke-linejoin:miter;"/>
   </g>
   <g id="text_1">
    <!-- t = 0.6 -->
    <defs>
     <path d="M 18.3125 70.21875 
L 18.3125 54.6875 
L 36.8125 54.6875 
L 36.8125 47.703125 
L 18.3125 47.703125 
L 18.3125 18.015625 
Q 18.3125 11.328125 20.140625 9.421875 
Q 21.96875 7.515625 27.59375 7.515625 
L 36.8125 7.515625 
L 36.8125 0 
L 27.59375 0 
Q 17.1875 0 13.234375 3.875 
Q 9.28125 7.765625 9.28125 18.015625 
L 9.28125 47.703125 
L 2.6875 47.703125 
L 2.6875 54.6875 
L 9.28125 54.6875 
L 9.28125 70.21875 
z
" id="DejaVuSans-116"/>
     <path id="DejaVuSans-32"/>
     <path d="M 10.59375 45.40625 
L 73.1875 45.40625 
L 73.1875 37.203125 
L 10.59375 37.203125 
z
M 10.59375 25.484375 
L 73.1875 25.484375 
L 73.1875 17.1875 
L 10.59375 17.1875 
z
" id="DejaVuSans-61"/>
     <path d="M 31.78125 66.40625 
Q 24.171875 66.40625 20.328125 58.90625 
Q 16.5 51.421875 16.5 36.375 
Q 16.5 21.390625 20.328125 13.890625 
Q 24.171875 6.390625 31.78125 6.390625 
Q 39.453125 6.390625 43.28125 13.890625 
Q 47.125 21.390625 47.125 36.375 
Q 47.125 51.421875 43.28125 58.90625 
Q 39.453125 66.40625 31.78125 66.40625 
z
M 31.78125 74.21875 
Q 44.046875 74.21875 50.515625 64.515625 
Q 56.984375 54.828125 56.984375 36.375 
Q 56.984375 17.96875 50.515625 8.265625 
Q 44.046875 -1.421875 31.78125 -1.421875 
Q 19.53125 -1.421875 13.0625 8.265625 
Q 6.59375 17.96875 6.59375 36.375 
Q 6.59375 54.828125 13.0625 64.515625 
Q 19.53125 74.21875 31.78125 74.21875 
z
" id="DejaVuSans-48"/>
     <path d="M 10.6875 12.40625 
L 21 12.40625 
L 21 0 
L 10.6875 0 
z
" id="DejaVuSans-46"/>
     <path d="M 33.015625 40.375 
Q 26.375 40.375 22.484375 35.828125 
Q 18.609375 31.296875 18.609375 23.390625 
Q 18.609375 15.53125 22.484375 10.953125 
Q 26.375 6.390625 33.015625 6.390625 
Q 39.65625 6.390625 43.53125 10.953125 
Q 47.40625 15.53125 47.40625 23.390625 
Q 47.40625 31.296875 43.53125 35.828125 
Q 39.65625 40.375 33.015625 40.375 
z
M 52.59375 71.296875 
L 52.59375 62.3125 
Q 48.875 64.0625 45.09375 64.984375 
Q 41.3125 65.921875 37.59375 65.921875 
Q 27.828125 65.921875 22.671875 59.328125 
Q 17.53125 52.734375 16.796875 39.40625 
Q 19.671875 43.65625 24.015625 45.921875 
Q 28.375 48.1875 33.59375 48.1875 
Q 44.578125 48.1875 50.953125 41.515625 
Q 57.328125 34.859375 57.328125 23.390625 
Q 57.328125 12.15625 50.6875 5.359375 
Q 44.046875 -1.421875 33.015625 -1.421875 
Q 20.359375 -1.421875 13.671875 8.265625 
Q 6.984375 17.96875 6.984375 36.375 
Q 6.984375 53.65625 15.1875 63.9375 
Q 23.390625 74.21875 37.203125 74.21875 
Q 40.921875 74.21875 44.703125 73.484375 
Q 48.484375 72.75 52.59375 71.296875 
z
" id="DejaVuSans-54"/>
    </defs>
    <g transform="translate(200.664375 28.56)scale(0.12 -0.12)">
     <use xlink:href="#DejaVuSans-116"/>
     <use x="39.208984" xlink:href="#DejaVuSans-32"/>
     <use x="70.996094" xlink:href="#DejaVuSans-61"/>
     <use x="154.785156" xlink:href="#DejaVuSans-32"/>
     <use x="186.572266" xlink:href="#DejaVuSans-48"/>
     <use x="250.195312" xlink:href="#DejaVuSans-46"/>
     <use x="281.982422" xlink:href="#DejaVuSans-54"/>
    </g>
   </g>
  </g>
 </g>
 <defs>
  <clipPath id="pd1d100e0e1">
   <rect height="217.44" width="334.8" x="54" y="34.56"/>
  </clipPath>
 </defs>
</svg>
