<?xml version="1.0" encoding="utf-8" standalone="no"?>
<!DOCTYPE svg PUBLIC "-//W3C//DTD SVG 1.1//EN"
  "http://www.w3.org/Graphics/SVG/1.1/DTD/svg11.dtd">
<!-- Created with matplotlib (https://matplotlib.org/) -->
<svg height="288pt" version="1.1" viewBox="0 0 432 288" width="432pt" xmlns="http://www.w3.org/2000/svg" xmlns:xlink="http://www.w3.org/1999/xlink">
 <defs>
  <style type="text/css">
*{stroke-linecap:butt;stroke-linejoin:round;}
  </style>
 </defs>
 <g id="figure_1">
  <g id="patch_1">
   <path d="M 0 288 
L 432 288 
L 432 0 
L 0 0 
z
" style="fill:#ffffff;"/>
  </g>
  <g id="axes_1">
   <g id="patch_2">
    <path clip-path="url(#p3b6a5d9fa6)" d="M 203.374816 129.742634 
L 202.437424 140.574147 
L 201.354273 140.480408 
L 202.291665 129.648895 
z
" style="stroke:#000000;stroke-linejoin:miter;"/>
   </g>
   <g id="patch_3">
    <path clip-path="url(#p3b6a5d9fa6)" d="M 257.532383 134.429592 
L 256.594991 145.261106 
L 255.511839 145.167366 
L 256.449231 134.335853 
z
" style="stroke:#000000;stroke-linejoin:miter;"/>
   </g>
   <g id="patch_4">
    <path clip-path="url(#p3b6a5d9fa6)" d="M 220.885762 131.258084 
L 220.785106 130.695765 
L 220.387351 130.143945 
L 219.696851 129.636845 
L 218.723061 129.204544 
L 217.480507 128.871064 
L 215.98864 128.652866 
L 214.271582 128.557866 
L 212.357752 128.585017 
L 210.279387 128.724499 
L 208.071957 128.958494 
L 205.773497 129.26249 
L 203.423864 129.607044 
L 201.063944 129.959853 
L 198.734832 130.288039 
L 196.477001 130.560453 
L 194.329493 130.749873 
L 192.329149 130.834942 
L 190.509901 130.801708 
L 188.902145 130.644677 
L 187.532204 130.367297 
L 186.421903 129.981847 
L 185.588258 129.508724 
L 185.043267 128.975197 
L 184.793835 128.413675 
L 184.841783 127.859634 
L 185.183976 127.349313 
L 185.812523 126.917347 
L 186.715056 126.594479 
L 187.875069 126.405508 
L 189.272295 126.367608 
L 190.883126 126.489123 
L 192.681034 126.768929 
L 194.637022 127.19639 
L 196.720059 127.751935 
L 198.89752 128.408192 
L 201.135621 129.131638 
L 203.39984 129.884635 
L 205.655345 130.62773 
L 207.867405 131.322081 
L 210.001814 131.931831 
L 212.025315 132.426301 
L 213.906026 132.781843 
L 215.613876 132.983245 
L 217.121048 133.024593 
L 218.40242 132.90954 
L 219.436 132.650963 
L 220.203353 132.270031 
L 220.689997 131.79475 
z
" style="fill:#0000ff;stroke:#000000;stroke-linejoin:miter;"/>
   </g>
   <g id="patch_5">
    <path clip-path="url(#p3b6a5d9fa6)" d="M 275.043329 135.945042 
L 274.942673 135.382723 
L 274.544918 134.830904 
L 273.854418 134.323804 
L 272.880628 133.891503 
L 271.638074 133.558022 
L 270.146206 133.339824 
L 268.429148 133.244824 
L 266.515318 133.271975 
L 264.436953 133.411457 
L 262.229523 133.645452 
L 259.931063 133.949449 
L 257.58143 134.294002 
L 255.221511 134.646812 
L 252.892399 134.974997 
L 250.634568 135.247411 
L 248.48706 135.436831 
L 246.486716 135.5219 
L 244.667468 135.488666 
L 243.059712 135.331635 
L 241.68977 135.054256 
L 240.57947 134.668805 
L 239.745824 134.195683 
L 239.200834 133.662156 
L 238.951401 133.100634 
L 238.99935 132.546593 
L 239.341543 132.036272 
L 239.97009 131.604306 
L 240.872623 131.281438 
L 242.032635 131.092467 
L 243.429862 131.054566 
L 245.040692 131.176082 
L 246.838601 131.455887 
L 248.794589 131.883349 
L 250.877625 132.438893 
L 253.055087 133.09515 
L 255.293187 133.818597 
L 257.557407 134.571593 
L 259.812912 135.314689 
L 262.024971 136.009039 
L 264.159381 136.61879 
L 266.182882 137.11326 
L 268.063592 137.468802 
L 269.771442 137.670204 
L 271.278615 137.711552 
L 272.559986 137.596499 
L 273.593567 137.337922 
L 274.36092 136.956989 
L 274.847563 136.481708 
z
" style="fill:#0000ff;stroke:#000000;stroke-linejoin:miter;"/>
   </g>
   <g id="patch_6">
    <path clip-path="url(#p3b6a5d9fa6)" d="M 261.70352 142.975054 
L 196.71444 137.350703 
L 196.245744 142.76646 
L 261.234824 148.39081 
z
" style="fill:#999999;stroke:#000000;stroke-linejoin:miter;"/>
   </g>
   <g id="text_1">
    <!-- t = 1.4 -->
    <defs>
     <path d="M 18.3125 70.21875 
L 18.3125 54.6875 
L 36.8125 54.6875 
L 36.8125 47.703125 
L 18.3125 47.703125 
L 18.3125 18.015625 
Q 18.3125 11.328125 20.140625 9.421875 
Q 21.96875 7.515625 27.59375 7.515625 
L 36.8125 7.515625 
L 36.8125 0 
L 27.59375 0 
Q 17.1875 0 13.234375 3.875 
Q 9.28125 7.765625 9.28125 18.015625 
L 9.28125 47.703125 
L 2.6875 47.703125 
L 2.6875 54.6875 
L 9.28125 54.6875 
L 9.28125 70.21875 
z
" id="DejaVuSans-116"/>
     <path id="DejaVuSans-32"/>
     <path d="M 10.59375 45.40625 
L 73.1875 45.40625 
L 73.1875 37.203125 
L 10.59375 37.203125 
z
M 10.59375 25.484375 
L 73.1875 25.484375 
L 73.1875 17.1875 
L 10.59375 17.1875 
z
" id="DejaVuSans-61"/>
     <path d="M 12.40625 8.296875 
L 28.515625 8.296875 
L 28.515625 63.921875 
L 10.984375 60.40625 
L 10.984375 69.390625 
L 28.421875 72.90625 
L 38.28125 72.90625 
L 38.28125 8.296875 
L 54.390625 8.296875 
L 54.390625 0 
L 12.40625 0 
z
" id="DejaVuSans-49"/>
     <path d="M 10.6875 12.40625 
L 21 12.40625 
L 21 0 
L 10.6875 0 
z
" id="DejaVuSans-46"/>
     <path d="M 37.796875 64.3125 
L 12.890625 25.390625 
L 37.796875 25.390625 
z
M 35.203125 72.90625 
L 47.609375 72.90625 
L 47.609375 25.390625 
L 58.015625 25.390625 
L 58.015625 17.1875 
L 47.609375 17.1875 
L 47.609375 0 
L 37.796875 0 
L 37.796875 17.1875 
L 4.890625 17.1875 
L 4.890625 26.703125 
z
" id="DejaVuSans-52"/>
    </defs>
    <g transform="translate(200.664375 28.56)scale(0.12 -0.12)">
     <use xlink:href="#DejaVuSans-116"/>
     <use x="39.208984" xlink:href="#DejaVuSans-32"/>
     <use x="70.996094" xlink:href="#DejaVuSans-61"/>
     <use x="154.785156" xlink:href="#DejaVuSans-32"/>
     <use x="186.572266" xlink:href="#DejaVuSans-49"/>
     <use x="250.195312" xlink:href="#DejaVuSans-46"/>
     <use x="281.982422" xlink:href="#DejaVuSans-52"/>
    </g>
   </g>
  </g>
 </g>
 <defs>
  <clipPath id="p3b6a5d9fa6">
   <rect height="217.44" width="334.8" x="54" y="34.56"/>
  </clipPath>
 </defs>
</svg>
