<?xml version="1.0" encoding="utf-8" standalone="no"?>
<!DOCTYPE svg PUBLIC "-//W3C//DTD SVG 1.1//EN"
  "http://www.w3.org/Graphics/SVG/1.1/DTD/svg11.dtd">
<!-- Created with matplotlib (https://matplotlib.org/) -->
<svg height="288pt" version="1.1" viewBox="0 0 432 288" width="432pt" xmlns="http://www.w3.org/2000/svg" xmlns:xlink="http://www.w3.org/1999/xlink">
 <defs>
  <style type="text/css">
*{stroke-linecap:butt;stroke-linejoin:round;}
  </style>
 </defs>
 <g id="figure_1">
  <g id="patch_1">
   <path d="M 0 288 
L 432 288 
L 432 0 
L 0 0 
z
" style="fill:#ffffff;"/>
  </g>
  <g id="axes_1">
   <g id="patch_2">
    <path clip-path="url(#padb7ed8f9c)" d="M 195.051668 146.358118 
L 196.685888 157.106592 
L 195.61104 157.270014 
L 193.976821 146.52154 
z
" style="stroke:#000000;stroke-linejoin:miter;"/>
   </g>
   <g id="patch_3">
    <path clip-path="url(#padb7ed8f9c)" d="M 248.794042 138.18702 
L 250.428262 148.935495 
L 249.353414 149.098917 
L 247.719195 138.350442 
z
" style="stroke:#000000;stroke-linejoin:miter;"/>
   </g>
   <g id="patch_4">
    <path clip-path="url(#padb7ed8f9c)" d="M 212.428369 143.716129 
L 212.198389 143.193211 
L 211.682097 142.750315 
L 210.891767 142.419681 
L 209.843658 142.228322 
L 208.557533 142.196175 
L 207.056168 142.33467 
L 205.364869 142.645832 
L 203.511014 143.121965 
L 201.523629 143.745949 
L 199.433003 144.492127 
L 197.270346 145.32774 
L 195.06748 146.214798 
L 192.856555 147.112299 
L 190.669789 147.978626 
L 188.539201 148.773992 
L 186.496344 149.462764 
L 184.572008 150.015523 
L 182.795896 150.410735 
L 181.196261 150.635918 
L 179.7995 150.688237 
L 178.629713 150.574496 
L 177.70823 150.310526 
L 177.053125 149.92001 
L 176.678722 149.432829 
L 176.595131 148.883035 
L 176.807818 148.306591 
L 177.317253 147.739016 
L 178.118639 147.213098 
L 179.20176 146.75682 
L 180.550952 146.391639 
L 182.145229 146.131213 
L 183.958543 145.980681 
L 185.960208 145.936524 
L 188.115462 145.987006 
L 190.386165 146.113191 
L 192.731597 146.290434 
L 195.109362 146.490261 
L 197.476328 146.682513 
L 199.789612 146.837595 
L 202.007539 146.928692 
L 204.090573 146.933801 
L 206.002168 146.837427 
L 207.70952 146.631851 
L 209.184203 146.317862 
L 210.402655 145.904915 
L 211.346527 145.410691 
L 212.002873 144.860101 
L 212.3642 144.283771 
z
" style="fill:#0000ff;stroke:#000000;stroke-linejoin:miter;"/>
   </g>
   <g id="patch_5">
    <path clip-path="url(#padb7ed8f9c)" d="M 266.170743 135.545031 
L 265.940763 135.022113 
L 265.424471 134.579217 
L 264.634141 134.248583 
L 263.586032 134.057225 
L 262.299907 134.025078 
L 260.798542 134.163573 
L 259.107243 134.474734 
L 257.253388 134.950867 
L 255.266002 135.574851 
L 253.175376 136.32103 
L 251.01272 137.156642 
L 248.809854 138.0437 
L 246.598929 138.941201 
L 244.412163 139.807529 
L 242.281575 140.602895 
L 240.238718 141.291666 
L 238.314382 141.844425 
L 236.53827 142.239638 
L 234.938635 142.46482 
L 233.541874 142.517139 
L 232.372087 142.403398 
L 231.450604 142.139428 
L 230.795499 141.748912 
L 230.421096 141.261731 
L 230.337505 140.711937 
L 230.550192 140.135493 
L 231.059627 139.567918 
L 231.861013 139.042 
L 232.944134 138.585723 
L 234.293326 138.220541 
L 235.887603 137.960115 
L 237.700917 137.809584 
L 239.702582 137.765426 
L 241.857836 137.815908 
L 244.128539 137.942093 
L 246.473971 138.119336 
L 248.851736 138.319163 
L 251.218702 138.511415 
L 253.531986 138.666497 
L 255.749913 138.757595 
L 257.832947 138.762703 
L 259.744542 138.66633 
L 261.451894 138.460754 
L 262.926577 138.146765 
L 264.145029 137.733817 
L 265.088901 137.239594 
L 265.745247 136.689003 
L 266.106574 136.112673 
z
" style="fill:#0000ff;stroke:#000000;stroke-linejoin:miter;"/>
   </g>
   <g id="patch_6">
    <path clip-path="url(#padb7ed8f9c)" d="M 254.856521 145.512977 
L 190.365672 155.318294 
L 191.182782 160.692532 
L 255.67363 150.887214 
z
" style="fill:#999999;stroke:#000000;stroke-linejoin:miter;"/>
   </g>
   <g id="text_1">
    <!-- t = 1.0 -->
    <defs>
     <path d="M 18.3125 70.21875 
L 18.3125 54.6875 
L 36.8125 54.6875 
L 36.8125 47.703125 
L 18.3125 47.703125 
L 18.3125 18.015625 
Q 18.3125 11.328125 20.140625 9.421875 
Q 21.96875 7.515625 27.59375 7.515625 
L 36.8125 7.515625 
L 36.8125 0 
L 27.59375 0 
Q 17.1875 0 13.234375 3.875 
Q 9.28125 7.765625 9.28125 18.015625 
L 9.28125 47.703125 
L 2.6875 47.703125 
L 2.6875 54.6875 
L 9.28125 54.6875 
L 9.28125 70.21875 
z
" id="DejaVuSans-116"/>
     <path id="DejaVuSans-32"/>
     <path d="M 10.59375 45.40625 
L 73.1875 45.40625 
L 73.1875 37.203125 
L 10.59375 37.203125 
z
M 10.59375 25.484375 
L 73.1875 25.484375 
L 73.1875 17.1875 
L 10.59375 17.1875 
z
" id="DejaVuSans-61"/>
     <path d="M 12.40625 8.296875 
L 28.515625 8.296875 
L 28.515625 63.921875 
L 10.984375 60.40625 
L 10.984375 69.390625 
L 28.421875 72.90625 
L 38.28125 72.90625 
L 38.28125 8.296875 
L 54.390625 8.296875 
L 54.390625 0 
L 12.40625 0 
z
" id="DejaVuSans-49"/>
     <path d="M 10.6875 12.40625 
L 21 12.40625 
L 21 0 
L 10.6875 0 
z
" id="DejaVuSans-46"/>
     <path d="M 31.78125 66.40625 
Q 24.171875 66.40625 20.328125 58.90625 
Q 16.5 51.421875 16.5 36.375 
Q 16.5 21.390625 20.328125 13.890625 
Q 24.171875 6.390625 31.78125 6.390625 
Q 39.453125 6.390625 43.28125 13.890625 
Q 47.125 21.390625 47.125 36.375 
Q 47.125 51.421875 43.28125 58.90625 
Q 39.453125 66.40625 31.78125 66.40625 
z
M 31.78125 74.21875 
Q 44.046875 74.21875 50.515625 64.515625 
Q 56.984375 54.828125 56.984375 36.375 
Q 56.984375 17.96875 50.515625 8.265625 
Q 44.046875 -1.421875 31.78125 -1.421875 
Q 19.53125 -1.421875 13.0625 8.265625 
Q 6.59375 17.96875 6.59375 36.375 
Q 6.59375 54.828125 13.0625 64.515625 
Q 19.53125 74.21875 31.78125 74.21875 
z
" id="DejaVuSans-48"/>
    </defs>
    <g transform="translate(200.664375 28.56)scale(0.12 -0.12)">
     <use xlink:href="#DejaVuSans-116"/>
     <use x="39.208984" xlink:href="#DejaVuSans-32"/>
     <use x="70.996094" xlink:href="#DejaVuSans-61"/>
     <use x="154.785156" xlink:href="#DejaVuSans-32"/>
     <use x="186.572266" xlink:href="#DejaVuSans-49"/>
     <use x="250.195312" xlink:href="#DejaVuSans-46"/>
     <use x="281.982422" xlink:href="#DejaVuSans-48"/>
    </g>
   </g>
  </g>
 </g>
 <defs>
  <clipPath id="padb7ed8f9c">
   <rect height="217.44" width="334.8" x="54" y="34.56"/>
  </clipPath>
 </defs>
</svg>
