<?xml version="1.0" encoding="utf-8" standalone="no"?>
<!DOCTYPE svg PUBLIC "-//W3C//DTD SVG 1.1//EN"
  "http://www.w3.org/Graphics/SVG/1.1/DTD/svg11.dtd">
<!-- Created with matplotlib (https://matplotlib.org/) -->
<svg height="288pt" version="1.1" viewBox="0 0 432 288" width="432pt" xmlns="http://www.w3.org/2000/svg" xmlns:xlink="http://www.w3.org/1999/xlink">
 <defs>
  <style type="text/css">
*{stroke-linecap:butt;stroke-linejoin:round;}
  </style>
 </defs>
 <g id="figure_1">
  <g id="patch_1">
   <path d="M 0 288 
L 432 288 
L 432 0 
L 0 0 
z
" style="fill:#ffffff;"/>
  </g>
  <g id="axes_1">
   <g id="patch_2">
    <path clip-path="url(#pb1cf934de7)" d="M 194.656619 132.426283 
L 194.663482 143.298281 
L 193.576282 143.298967 
L 193.56942 132.426969 
z
" style="stroke:#000000;stroke-linejoin:miter;"/>
   </g>
   <g id="patch_3">
    <path clip-path="url(#pb1cf934de7)" d="M 249.016609 132.391969 
L 249.023471 143.263967 
L 247.936271 143.264653 
L 247.929409 132.392656 
z
" style="stroke:#000000;stroke-linejoin:miter;"/>
   </g>
   <g id="patch_4">
    <path clip-path="url(#pb1cf934de7)" d="M 212.233016 132.415188 
L 212.083903 131.863736 
L 211.639725 131.348546 
L 210.907793 130.903332 
L 209.900137 130.557238 
L 208.633316 130.332933 
L 207.128135 130.245127 
L 205.409314 130.299612 
L 203.505074 130.492876 
L 201.446676 130.812336 
L 199.26791 131.237161 
L 197.004536 131.739629 
L 194.693706 132.286945 
L 192.373345 132.84338 
L 190.081536 133.372608 
L 187.855896 133.840084 
L 185.732953 134.215299 
L 183.747556 134.473775 
L 181.932296 134.598668 
L 180.316976 134.581863 
L 178.928121 134.424511 
L 177.78854 134.136945 
L 176.916954 133.738013 
L 176.327686 133.253834 
L 176.030428 132.716097 
L 176.030077 132.159985 
L 176.326656 131.621873 
L 176.915312 131.13695 
L 177.786394 130.736917 
L 178.925611 130.447914 
L 180.314266 130.288808 
L 181.929564 130.269964 
L 183.74498 130.392565 
L 185.730702 130.648534 
L 187.854116 131.021069 
L 190.080345 131.485735 
L 192.37282 132.012069 
L 194.693882 132.565574 
L 197.005401 133.109972 
L 199.269407 133.609583 
L 201.448708 134.031656 
L 203.507508 134.348518 
L 205.411991 134.539378 
L 207.130879 134.591692 
L 208.635947 134.501987 
L 209.902485 134.276082 
L 210.909703 133.928716 
L 211.641072 133.482578 
L 212.084599 132.966829 
z
" style="fill:#0000ff;stroke:#000000;stroke-linejoin:miter;"/>
   </g>
   <g id="patch_5">
    <path clip-path="url(#pb1cf934de7)" d="M 266.593005 132.380874 
L 266.443892 131.829422 
L 265.999715 131.314232 
L 265.267782 130.869019 
L 264.260127 130.522924 
L 262.993305 130.298619 
L 261.488124 130.210814 
L 259.769303 130.265298 
L 257.865063 130.458562 
L 255.806665 130.778022 
L 253.627899 131.202847 
L 251.364526 131.705316 
L 249.053695 132.252632 
L 246.733334 132.809066 
L 244.441526 133.338294 
L 242.215885 133.80577 
L 240.092942 134.180985 
L 238.107545 134.439462 
L 236.292285 134.564354 
L 234.676966 134.547549 
L 233.28811 134.390197 
L 232.148529 134.102632 
L 231.276943 133.703699 
L 230.687675 133.21952 
L 230.390417 132.681783 
L 230.390066 132.125671 
L 230.686645 131.587559 
L 231.275301 131.102636 
L 232.146383 130.702604 
L 233.2856 130.4136 
L 234.674256 130.254494 
L 236.289553 130.23565 
L 238.104969 130.358251 
L 240.090691 130.614221 
L 242.214105 130.986755 
L 244.440335 131.451421 
L 246.732809 131.977755 
L 249.053871 132.53126 
L 251.365391 133.075658 
L 253.629396 133.575269 
L 255.808697 133.997343 
L 257.867497 134.314204 
L 259.77198 134.505064 
L 261.490868 134.557378 
L 262.995936 134.467673 
L 264.262474 134.241768 
L 265.269692 133.894402 
L 266.001062 133.448265 
L 266.444588 132.932515 
z
" style="fill:#0000ff;stroke:#000000;stroke-linejoin:miter;"/>
   </g>
   <g id="patch_6">
    <path clip-path="url(#pb1cf934de7)" d="M 253.914155 140.542879 
L 188.682168 140.584056 
L 188.685599 146.020055 
L 253.917586 145.978878 
z
" style="fill:#999999;stroke:#000000;stroke-linejoin:miter;"/>
   </g>
   <g id="text_1">
    <!-- t = 3.1 -->
    <defs>
     <path d="M 18.3125 70.21875 
L 18.3125 54.6875 
L 36.8125 54.6875 
L 36.8125 47.703125 
L 18.3125 47.703125 
L 18.3125 18.015625 
Q 18.3125 11.328125 20.140625 9.421875 
Q 21.96875 7.515625 27.59375 7.515625 
L 36.8125 7.515625 
L 36.8125 0 
L 27.59375 0 
Q 17.1875 0 13.234375 3.875 
Q 9.28125 7.765625 9.28125 18.015625 
L 9.28125 47.703125 
L 2.6875 47.703125 
L 2.6875 54.6875 
L 9.28125 54.6875 
L 9.28125 70.21875 
z
" id="DejaVuSans-116"/>
     <path id="DejaVuSans-32"/>
     <path d="M 10.59375 45.40625 
L 73.1875 45.40625 
L 73.1875 37.203125 
L 10.59375 37.203125 
z
M 10.59375 25.484375 
L 73.1875 25.484375 
L 73.1875 17.1875 
L 10.59375 17.1875 
z
" id="DejaVuSans-61"/>
     <path d="M 40.578125 39.3125 
Q 47.65625 37.796875 51.625 33 
Q 55.609375 28.21875 55.609375 21.1875 
Q 55.609375 10.40625 48.1875 4.484375 
Q 40.765625 -1.421875 27.09375 -1.421875 
Q 22.515625 -1.421875 17.65625 -0.515625 
Q 12.796875 0.390625 7.625 2.203125 
L 7.625 11.71875 
Q 11.71875 9.328125 16.59375 8.109375 
Q 21.484375 6.890625 26.8125 6.890625 
Q 36.078125 6.890625 40.9375 10.546875 
Q 45.796875 14.203125 45.796875 21.1875 
Q 45.796875 27.640625 41.28125 31.265625 
Q 36.765625 34.90625 28.71875 34.90625 
L 20.21875 34.90625 
L 20.21875 43.015625 
L 29.109375 43.015625 
Q 36.375 43.015625 40.234375 45.921875 
Q 44.09375 48.828125 44.09375 54.296875 
Q 44.09375 59.90625 40.109375 62.90625 
Q 36.140625 65.921875 28.71875 65.921875 
Q 24.65625 65.921875 20.015625 65.03125 
Q 15.375 64.15625 9.8125 62.3125 
L 9.8125 71.09375 
Q 15.4375 72.65625 20.34375 73.4375 
Q 25.25 74.21875 29.59375 74.21875 
Q 40.828125 74.21875 47.359375 69.109375 
Q 53.90625 64.015625 53.90625 55.328125 
Q 53.90625 49.265625 50.4375 45.09375 
Q 46.96875 40.921875 40.578125 39.3125 
z
" id="DejaVuSans-51"/>
     <path d="M 10.6875 12.40625 
L 21 12.40625 
L 21 0 
L 10.6875 0 
z
" id="DejaVuSans-46"/>
     <path d="M 12.40625 8.296875 
L 28.515625 8.296875 
L 28.515625 63.921875 
L 10.984375 60.40625 
L 10.984375 69.390625 
L 28.421875 72.90625 
L 38.28125 72.90625 
L 38.28125 8.296875 
L 54.390625 8.296875 
L 54.390625 0 
L 12.40625 0 
z
" id="DejaVuSans-49"/>
    </defs>
    <g transform="translate(200.664375 28.56)scale(0.12 -0.12)">
     <use xlink:href="#DejaVuSans-116"/>
     <use x="39.208984" xlink:href="#DejaVuSans-32"/>
     <use x="70.996094" xlink:href="#DejaVuSans-61"/>
     <use x="154.785156" xlink:href="#DejaVuSans-32"/>
     <use x="186.572266" xlink:href="#DejaVuSans-51"/>
     <use x="250.195312" xlink:href="#DejaVuSans-46"/>
     <use x="281.982422" xlink:href="#DejaVuSans-49"/>
    </g>
   </g>
  </g>
 </g>
 <defs>
  <clipPath id="pb1cf934de7">
   <rect height="217.44" width="334.8" x="54" y="34.56"/>
  </clipPath>
 </defs>
</svg>
