<?xml version="1.0" encoding="utf-8" standalone="no"?>
<!DOCTYPE svg PUBLIC "-//W3C//DTD SVG 1.1//EN"
  "http://www.w3.org/Graphics/SVG/1.1/DTD/svg11.dtd">
<!-- Created with matplotlib (https://matplotlib.org/) -->
<svg height="288pt" version="1.1" viewBox="0 0 432 288" width="432pt" xmlns="http://www.w3.org/2000/svg" xmlns:xlink="http://www.w3.org/1999/xlink">
 <defs>
  <style type="text/css">
*{stroke-linecap:butt;stroke-linejoin:round;}
  </style>
 </defs>
 <g id="figure_1">
  <g id="patch_1">
   <path d="M 0 288 
L 432 288 
L 432 0 
L 0 0 
z
" style="fill:#ffffff;"/>
  </g>
  <g id="axes_1">
   <g id="patch_2">
    <path clip-path="url(#p1223aa52f9)" d="M 195.025292 132.430842 
L 195.017987 143.302839 
L 193.930787 143.302109 
L 193.938092 132.430111 
z
" style="stroke:#000000;stroke-linejoin:miter;"/>
   </g>
   <g id="patch_3">
    <path clip-path="url(#p1223aa52f9)" d="M 249.38528 132.467369 
L 249.377974 143.339367 
L 248.290774 143.338636 
L 248.29808 132.466638 
z
" style="stroke:#000000;stroke-linejoin:miter;"/>
   </g>
   <g id="patch_4">
    <path clip-path="url(#p1223aa52f9)" d="M 212.601688 132.442652 
L 212.453294 131.891006 
L 212.009788 131.375238 
L 211.278436 130.929071 
L 210.271233 130.581663 
L 209.004704 130.355707 
L 207.49964 130.265941 
L 205.780749 130.318185 
L 203.876259 130.508967 
L 201.817446 130.825745 
L 199.638128 131.24773 
L 197.374102 131.747249 
L 195.06256 132.291552 
L 192.741476 132.844963 
L 190.44898 133.371204 
L 188.222732 133.835779 
L 186.099302 134.208227 
L 184.113569 134.464116 
L 182.298148 134.586643 
L 180.682852 134.567733 
L 179.294203 134.40857 
L 178.154998 134.11952 
L 177.283932 133.719452 
L 176.695296 133.234506 
L 176.398739 132.696382 
L 176.399113 132.14027 
L 176.696392 131.602545 
L 177.28568 131.11839 
L 178.157282 130.719493 
L 179.296875 130.431974 
L 180.685737 130.274678 
L 182.301057 130.257939 
L 184.116312 130.382905 
L 186.101699 130.641463 
L 188.224626 131.016764 
L 190.450248 131.484331 
L 192.742035 132.013652 
L 195.062373 132.570181 
L 197.373181 133.117591 
L 199.636534 133.620152 
L 201.815283 134.045065 
L 203.873668 134.364609 
L 205.7779 134.557951 
L 207.496719 134.612505 
L 209.001903 134.524761 
L 210.268734 134.300507 
L 211.276404 133.954454 
L 212.008354 133.50927 
L 212.452552 132.994099 
z
" style="fill:#0000ff;stroke:#000000;stroke-linejoin:miter;"/>
   </g>
   <g id="patch_5">
    <path clip-path="url(#p1223aa52f9)" d="M 266.961676 132.47918 
L 266.813281 131.927533 
L 266.369776 131.411765 
L 265.638424 130.965598 
L 264.631221 130.618191 
L 263.364692 130.392235 
L 261.859627 130.302468 
L 260.140737 130.354712 
L 258.236246 130.545494 
L 256.177434 130.862272 
L 253.998116 131.284257 
L 251.73409 131.783776 
L 249.422548 132.32808 
L 247.101464 132.88149 
L 244.808967 133.407731 
L 242.582719 133.872306 
L 240.45929 134.244754 
L 238.473557 134.500643 
L 236.658136 134.62317 
L 235.04284 134.60426 
L 233.654191 134.445098 
L 232.514985 134.156048 
L 231.64392 133.75598 
L 231.055284 133.271033 
L 230.758727 132.732909 
L 230.7591 132.176797 
L 231.05638 131.639072 
L 231.645667 131.154917 
L 232.51727 130.75602 
L 233.656863 130.468501 
L 235.045725 130.311205 
L 236.661045 130.294466 
L 238.476299 130.419433 
L 240.461686 130.67799 
L 242.584614 131.053291 
L 244.810235 131.520858 
L 247.102022 132.050179 
L 249.422361 132.606708 
L 251.733169 133.154118 
L 253.996521 133.656679 
L 256.175271 134.081592 
L 258.233656 134.401137 
L 260.137888 134.594478 
L 261.856707 134.649033 
L 263.361891 134.561288 
L 264.628722 134.337035 
L 265.636391 133.990981 
L 266.368342 133.545797 
L 266.81254 133.030626 
z
" style="fill:#0000ff;stroke:#000000;stroke-linejoin:miter;"/>
   </g>
   <g id="patch_6">
    <path clip-path="url(#p1223aa52f9)" d="M 254.2722 140.624655 
L 189.040214 140.580822 
L 189.036562 146.016821 
L 254.268547 146.060653 
z
" style="fill:#999999;stroke:#000000;stroke-linejoin:miter;"/>
   </g>
   <g id="text_1">
    <!-- t = 2.2 -->
    <defs>
     <path d="M 18.3125 70.21875 
L 18.3125 54.6875 
L 36.8125 54.6875 
L 36.8125 47.703125 
L 18.3125 47.703125 
L 18.3125 18.015625 
Q 18.3125 11.328125 20.140625 9.421875 
Q 21.96875 7.515625 27.59375 7.515625 
L 36.8125 7.515625 
L 36.8125 0 
L 27.59375 0 
Q 17.1875 0 13.234375 3.875 
Q 9.28125 7.765625 9.28125 18.015625 
L 9.28125 47.703125 
L 2.6875 47.703125 
L 2.6875 54.6875 
L 9.28125 54.6875 
L 9.28125 70.21875 
z
" id="DejaVuSans-116"/>
     <path id="DejaVuSans-32"/>
     <path d="M 10.59375 45.40625 
L 73.1875 45.40625 
L 73.1875 37.203125 
L 10.59375 37.203125 
z
M 10.59375 25.484375 
L 73.1875 25.484375 
L 73.1875 17.1875 
L 10.59375 17.1875 
z
" id="DejaVuSans-61"/>
     <path d="M 19.1875 8.296875 
L 53.609375 8.296875 
L 53.609375 0 
L 7.328125 0 
L 7.328125 8.296875 
Q 12.9375 14.109375 22.625 23.890625 
Q 32.328125 33.6875 34.8125 36.53125 
Q 39.546875 41.84375 41.421875 45.53125 
Q 43.3125 49.21875 43.3125 52.78125 
Q 43.3125 58.59375 39.234375 62.25 
Q 35.15625 65.921875 28.609375 65.921875 
Q 23.96875 65.921875 18.8125 64.3125 
Q 13.671875 62.703125 7.8125 59.421875 
L 7.8125 69.390625 
Q 13.765625 71.78125 18.9375 73 
Q 24.125 74.21875 28.421875 74.21875 
Q 39.75 74.21875 46.484375 68.546875 
Q 53.21875 62.890625 53.21875 53.421875 
Q 53.21875 48.921875 51.53125 44.890625 
Q 49.859375 40.875 45.40625 35.40625 
Q 44.1875 33.984375 37.640625 27.21875 
Q 31.109375 20.453125 19.1875 8.296875 
z
" id="DejaVuSans-50"/>
     <path d="M 10.6875 12.40625 
L 21 12.40625 
L 21 0 
L 10.6875 0 
z
" id="DejaVuSans-46"/>
    </defs>
    <g transform="translate(200.664375 28.56)scale(0.12 -0.12)">
     <use xlink:href="#DejaVuSans-116"/>
     <use x="39.208984" xlink:href="#DejaVuSans-32"/>
     <use x="70.996094" xlink:href="#DejaVuSans-61"/>
     <use x="154.785156" xlink:href="#DejaVuSans-32"/>
     <use x="186.572266" xlink:href="#DejaVuSans-50"/>
     <use x="250.195312" xlink:href="#DejaVuSans-46"/>
     <use x="281.982422" xlink:href="#DejaVuSans-50"/>
    </g>
   </g>
  </g>
 </g>
 <defs>
  <clipPath id="p1223aa52f9">
   <rect height="217.44" width="334.8" x="54" y="34.56"/>
  </clipPath>
 </defs>
</svg>
