<?xml version="1.0" encoding="utf-8" standalone="no"?>
<!DOCTYPE svg PUBLIC "-//W3C//DTD SVG 1.1//EN"
  "http://www.w3.org/Graphics/SVG/1.1/DTD/svg11.dtd">
<!-- Created with matplotlib (https://matplotlib.org/) -->
<svg height="288pt" version="1.1" viewBox="0 0 432 288" width="432pt" xmlns="http://www.w3.org/2000/svg" xmlns:xlink="http://www.w3.org/1999/xlink">
 <defs>
  <style type="text/css">
*{stroke-linecap:butt;stroke-linejoin:round;}
  </style>
 </defs>
 <g id="figure_1">
  <g id="patch_1">
   <path d="M 0 288 
L 432 288 
L 432 0 
L 0 0 
z
" style="fill:#ffffff;"/>
  </g>
  <g id="axes_1">
   <g id="patch_2">
    <path clip-path="url(#p4afc2ae310)" d="M 194.750289 132.399803 
L 194.74396 143.271801 
L 193.656761 143.271168 
L 193.663089 132.39917 
z
" style="stroke:#000000;stroke-linejoin:miter;"/>
   </g>
   <g id="patch_3">
    <path clip-path="url(#p4afc2ae310)" d="M 249.11028 132.431446 
L 249.103951 143.303444 
L 248.016751 143.302811 
L 248.02308 132.430813 
z
" style="stroke:#000000;stroke-linejoin:miter;"/>
   </g>
   <g id="patch_4">
    <path clip-path="url(#p4afc2ae310)" d="M 212.326686 132.410034 
L 212.178242 131.858401 
L 211.73469 131.342673 
L 211.003298 130.896571 
L 209.996064 130.549255 
L 208.729515 130.323412 
L 207.224442 130.233781 
L 205.505556 130.28618 
L 203.601083 130.477133 
L 201.542299 130.794096 
L 199.363019 131.216277 
L 197.099037 131.715999 
L 194.787545 132.26051 
L 192.46651 132.814129 
L 190.174061 133.340576 
L 187.947855 133.805351 
L 185.824459 134.17799 
L 183.838749 134.434057 
L 182.023339 134.556747 
L 180.408041 134.537983 
L 179.019378 134.378945 
L 177.880146 134.089997 
L 177.009045 133.690007 
L 176.420365 133.205114 
L 176.12376 132.667016 
L 176.124083 132.110904 
L 176.421315 131.573153 
L 177.010559 131.088945 
L 177.882125 130.689969 
L 179.021693 130.402348 
L 180.41054 130.244927 
L 182.025859 130.228043 
L 183.841125 130.352847 
L 185.826535 130.611225 
L 187.949496 130.986336 
L 190.17516 131.453703 
L 192.466994 131.982818 
L 194.787382 132.539139 
L 197.09824 133.086341 
L 199.361638 133.588698 
L 201.540425 134.013416 
L 203.598839 134.332775 
L 205.503088 134.525946 
L 207.221912 134.580346 
L 208.727088 134.492466 
L 209.993899 134.268099 
L 211.001537 133.921955 
L 211.733448 133.476705 
L 212.1776 132.961494 
z
" style="fill:#0000ff;stroke:#000000;stroke-linejoin:miter;"/>
   </g>
   <g id="patch_5">
    <path clip-path="url(#p4afc2ae310)" d="M 266.686677 132.441677 
L 266.538233 131.890044 
L 266.094681 131.374316 
L 265.363289 130.928214 
L 264.356054 130.580898 
L 263.089506 130.355055 
L 261.584433 130.265424 
L 259.865547 130.317823 
L 257.961074 130.508776 
L 255.90229 130.825739 
L 253.723009 131.24792 
L 251.459028 131.747642 
L 249.147535 132.292153 
L 246.826501 132.845772 
L 244.534052 133.372219 
L 242.307846 133.836994 
L 240.184449 134.209633 
L 238.19874 134.4657 
L 236.38333 134.58839 
L 234.768032 134.569626 
L 233.379369 134.410588 
L 232.240137 134.12164 
L 231.369036 133.72165 
L 230.780356 133.236757 
L 230.483751 132.698659 
L 230.484074 132.142547 
L 230.781306 131.604796 
L 231.37055 131.120588 
L 232.242116 130.721612 
L 233.381683 130.433991 
L 234.770531 130.27657 
L 236.38585 130.259686 
L 238.201116 130.38449 
L 240.186526 130.642868 
L 242.309487 131.017979 
L 244.53515 131.485346 
L 246.826985 132.014461 
L 249.147373 132.570782 
L 251.458231 133.117984 
L 253.721628 133.620341 
L 255.900416 134.045059 
L 257.958829 134.364418 
L 259.863079 134.557589 
L 261.581903 134.611989 
L 263.087079 134.524109 
L 264.35389 134.299742 
L 265.361528 133.953598 
L 266.093439 133.508348 
L 266.537591 132.993137 
z
" style="fill:#0000ff;stroke:#000000;stroke-linejoin:miter;"/>
   </g>
   <g id="patch_6">
    <path clip-path="url(#p4afc2ae310)" d="M 253.997932 140.588292 
L 188.765944 140.550321 
L 188.762779 145.98632 
L 253.994768 146.024291 
z
" style="fill:#999999;stroke:#000000;stroke-linejoin:miter;"/>
   </g>
   <g id="text_1">
    <!-- t = 3.1 -->
    <defs>
     <path d="M 18.3125 70.21875 
L 18.3125 54.6875 
L 36.8125 54.6875 
L 36.8125 47.703125 
L 18.3125 47.703125 
L 18.3125 18.015625 
Q 18.3125 11.328125 20.140625 9.421875 
Q 21.96875 7.515625 27.59375 7.515625 
L 36.8125 7.515625 
L 36.8125 0 
L 27.59375 0 
Q 17.1875 0 13.234375 3.875 
Q 9.28125 7.765625 9.28125 18.015625 
L 9.28125 47.703125 
L 2.6875 47.703125 
L 2.6875 54.6875 
L 9.28125 54.6875 
L 9.28125 70.21875 
z
" id="DejaVuSans-116"/>
     <path id="DejaVuSans-32"/>
     <path d="M 10.59375 45.40625 
L 73.1875 45.40625 
L 73.1875 37.203125 
L 10.59375 37.203125 
z
M 10.59375 25.484375 
L 73.1875 25.484375 
L 73.1875 17.1875 
L 10.59375 17.1875 
z
" id="DejaVuSans-61"/>
     <path d="M 40.578125 39.3125 
Q 47.65625 37.796875 51.625 33 
Q 55.609375 28.21875 55.609375 21.1875 
Q 55.609375 10.40625 48.1875 4.484375 
Q 40.765625 -1.421875 27.09375 -1.421875 
Q 22.515625 -1.421875 17.65625 -0.515625 
Q 12.796875 0.390625 7.625 2.203125 
L 7.625 11.71875 
Q 11.71875 9.328125 16.59375 8.109375 
Q 21.484375 6.890625 26.8125 6.890625 
Q 36.078125 6.890625 40.9375 10.546875 
Q 45.796875 14.203125 45.796875 21.1875 
Q 45.796875 27.640625 41.28125 31.265625 
Q 36.765625 34.90625 28.71875 34.90625 
L 20.21875 34.90625 
L 20.21875 43.015625 
L 29.109375 43.015625 
Q 36.375 43.015625 40.234375 45.921875 
Q 44.09375 48.828125 44.09375 54.296875 
Q 44.09375 59.90625 40.109375 62.90625 
Q 36.140625 65.921875 28.71875 65.921875 
Q 24.65625 65.921875 20.015625 65.03125 
Q 15.375 64.15625 9.8125 62.3125 
L 9.8125 71.09375 
Q 15.4375 72.65625 20.34375 73.4375 
Q 25.25 74.21875 29.59375 74.21875 
Q 40.828125 74.21875 47.359375 69.109375 
Q 53.90625 64.015625 53.90625 55.328125 
Q 53.90625 49.265625 50.4375 45.09375 
Q 46.96875 40.921875 40.578125 39.3125 
z
" id="DejaVuSans-51"/>
     <path d="M 10.6875 12.40625 
L 21 12.40625 
L 21 0 
L 10.6875 0 
z
" id="DejaVuSans-46"/>
     <path d="M 12.40625 8.296875 
L 28.515625 8.296875 
L 28.515625 63.921875 
L 10.984375 60.40625 
L 10.984375 69.390625 
L 28.421875 72.90625 
L 38.28125 72.90625 
L 38.28125 8.296875 
L 54.390625 8.296875 
L 54.390625 0 
L 12.40625 0 
z
" id="DejaVuSans-49"/>
    </defs>
    <g transform="translate(200.664375 28.56)scale(0.12 -0.12)">
     <use xlink:href="#DejaVuSans-116"/>
     <use x="39.208984" xlink:href="#DejaVuSans-32"/>
     <use x="70.996094" xlink:href="#DejaVuSans-61"/>
     <use x="154.785156" xlink:href="#DejaVuSans-32"/>
     <use x="186.572266" xlink:href="#DejaVuSans-51"/>
     <use x="250.195312" xlink:href="#DejaVuSans-46"/>
     <use x="281.982422" xlink:href="#DejaVuSans-49"/>
    </g>
   </g>
  </g>
 </g>
 <defs>
  <clipPath id="p4afc2ae310">
   <rect height="217.44" width="334.8" x="54" y="34.56"/>
  </clipPath>
 </defs>
</svg>
