<?xml version="1.0" encoding="utf-8" standalone="no"?>
<!DOCTYPE svg PUBLIC "-//W3C//DTD SVG 1.1//EN"
  "http://www.w3.org/Graphics/SVG/1.1/DTD/svg11.dtd">
<!-- Created with matplotlib (https://matplotlib.org/) -->
<svg height="288pt" version="1.1" viewBox="0 0 432 288" width="432pt" xmlns="http://www.w3.org/2000/svg" xmlns:xlink="http://www.w3.org/1999/xlink">
 <defs>
  <style type="text/css">
*{stroke-linecap:butt;stroke-linejoin:round;}
  </style>
 </defs>
 <g id="figure_1">
  <g id="patch_1">
   <path d="M 0 288 
L 432 288 
L 432 0 
L 0 0 
z
" style="fill:#ffffff;"/>
  </g>
  <g id="axes_1">
   <g id="patch_2">
    <path clip-path="url(#p2430cd9834)" d="M 70.686973 151.901346 
L 72.364154 162.643201 
L 71.289969 162.810919 
L 69.612788 152.069064 
z
" style="stroke:#000000;stroke-linejoin:miter;"/>
   </g>
   <g id="patch_3">
    <path clip-path="url(#p2430cd9834)" d="M 124.396248 143.51544 
L 126.073429 154.257295 
L 124.999244 154.425013 
L 123.322062 143.683158 
z
" style="stroke:#000000;stroke-linejoin:miter;"/>
   </g>
   <g id="patch_4">
    <path clip-path="url(#p2430cd9834)" d="M 88.052972 149.189903 
L 87.820903 148.667908 
L 87.302845 148.22708 
L 86.511199 147.899608 
L 85.462333 147.712442 
L 84.17609 147.685438 
L 82.675291 147.829934 
L 80.985249 148.147856 
L 79.133313 148.631397 
L 77.148438 149.263322 
L 75.060812 150.017853 
L 72.901513 150.862106 
L 70.702211 151.757965 
L 68.494893 152.664298 
L 66.311608 153.539361 
L 64.184218 154.34324 
L 62.144131 155.040173 
L 60.22202 155.600622 
L 58.447502 156.002933 
L 56.84878 156.234509 
L 55.45224 156.292412 
L 54.282007 156.183349 
L 53.359477 155.923066 
L 52.702815 155.535172 
L 52.326467 155.049491 
L 52.240678 154.500036 
L 52.451059 153.922746 
L 52.958221 153.353139 
L 53.757498 152.824021 
L 54.838785 152.363417 
L 56.186507 151.992844 
L 57.77973 151.726045 
L 59.592427 151.568265 
L 61.5939 151.516105 
L 63.749339 151.55797 
L 66.020528 151.675075 
L 68.36665 151.842939 
L 70.745194 152.033258 
L 73.112911 152.216044 
L 75.426796 152.361876 
L 77.64507 152.444105 
L 79.728108 152.440885 
L 81.639302 152.33687 
L 83.345819 152.124469 
L 84.819234 151.804586 
L 86.036025 151.38677 
L 86.977913 150.888777 
L 87.632053 150.335567 
L 87.991073 149.757797 
z
" style="fill:#0000ff;stroke:#000000;stroke-linejoin:miter;"/>
   </g>
   <g id="patch_5">
    <path clip-path="url(#p2430cd9834)" d="M 141.762247 140.803997 
L 141.530178 140.282002 
L 141.012119 139.841174 
L 140.220474 139.513702 
L 139.171608 139.326536 
L 137.885365 139.299532 
L 136.384565 139.444028 
L 134.694524 139.76195 
L 132.842587 140.245491 
L 130.857712 140.877416 
L 128.770086 141.631947 
L 126.610788 142.4762 
L 124.411486 143.372059 
L 122.204168 144.278392 
L 120.020883 145.153455 
L 117.893492 145.957334 
L 115.853405 146.654267 
L 113.931294 147.214716 
L 112.156777 147.617027 
L 110.558055 147.848603 
L 109.161514 147.906506 
L 107.991282 147.797443 
L 107.068751 147.53716 
L 106.41209 147.149266 
L 106.035742 146.663585 
L 105.949953 146.11413 
L 106.160334 145.53684 
L 106.667495 144.967233 
L 107.466772 144.438115 
L 108.54806 143.977511 
L 109.895782 143.606938 
L 111.489005 143.340139 
L 113.301702 143.182359 
L 115.303174 143.130199 
L 117.458614 143.172064 
L 119.729802 143.289169 
L 122.075925 143.457033 
L 124.454469 143.647352 
L 126.822185 143.830138 
L 129.136071 143.97597 
L 131.354344 144.058199 
L 133.437382 144.054979 
L 135.348576 143.950964 
L 137.055093 143.738563 
L 138.528508 143.41868 
L 139.7453 143.000864 
L 140.687188 142.502871 
L 141.341328 141.949661 
L 141.700347 141.371891 
z
" style="fill:#0000ff;stroke:#000000;stroke-linejoin:miter;"/>
   </g>
   <g id="patch_6">
    <path clip-path="url(#p2430cd9834)" d="M 130.487968 150.8171 
L 66.036839 160.880187 
L 66.87543 166.251114 
L 131.326559 156.188027 
z
" style="fill:#999999;stroke:#000000;stroke-linejoin:miter;"/>
   </g>
   <g id="text_1">
    <!-- t = 0.5 -->
    <defs>
     <path d="M 18.3125 70.21875 
L 18.3125 54.6875 
L 36.8125 54.6875 
L 36.8125 47.703125 
L 18.3125 47.703125 
L 18.3125 18.015625 
Q 18.3125 11.328125 20.140625 9.421875 
Q 21.96875 7.515625 27.59375 7.515625 
L 36.8125 7.515625 
L 36.8125 0 
L 27.59375 0 
Q 17.1875 0 13.234375 3.875 
Q 9.28125 7.765625 9.28125 18.015625 
L 9.28125 47.703125 
L 2.6875 47.703125 
L 2.6875 54.6875 
L 9.28125 54.6875 
L 9.28125 70.21875 
z
" id="DejaVuSans-116"/>
     <path id="DejaVuSans-32"/>
     <path d="M 10.59375 45.40625 
L 73.1875 45.40625 
L 73.1875 37.203125 
L 10.59375 37.203125 
z
M 10.59375 25.484375 
L 73.1875 25.484375 
L 73.1875 17.1875 
L 10.59375 17.1875 
z
" id="DejaVuSans-61"/>
     <path d="M 31.78125 66.40625 
Q 24.171875 66.40625 20.328125 58.90625 
Q 16.5 51.421875 16.5 36.375 
Q 16.5 21.390625 20.328125 13.890625 
Q 24.171875 6.390625 31.78125 6.390625 
Q 39.453125 6.390625 43.28125 13.890625 
Q 47.125 21.390625 47.125 36.375 
Q 47.125 51.421875 43.28125 58.90625 
Q 39.453125 66.40625 31.78125 66.40625 
z
M 31.78125 74.21875 
Q 44.046875 74.21875 50.515625 64.515625 
Q 56.984375 54.828125 56.984375 36.375 
Q 56.984375 17.96875 50.515625 8.265625 
Q 44.046875 -1.421875 31.78125 -1.421875 
Q 19.53125 -1.421875 13.0625 8.265625 
Q 6.59375 17.96875 6.59375 36.375 
Q 6.59375 54.828125 13.0625 64.515625 
Q 19.53125 74.21875 31.78125 74.21875 
z
" id="DejaVuSans-48"/>
     <path d="M 10.6875 12.40625 
L 21 12.40625 
L 21 0 
L 10.6875 0 
z
" id="DejaVuSans-46"/>
     <path d="M 10.796875 72.90625 
L 49.515625 72.90625 
L 49.515625 64.59375 
L 19.828125 64.59375 
L 19.828125 46.734375 
Q 21.96875 47.46875 24.109375 47.828125 
Q 26.265625 48.1875 28.421875 48.1875 
Q 40.625 48.1875 47.75 41.5 
Q 54.890625 34.8125 54.890625 23.390625 
Q 54.890625 11.625 47.5625 5.09375 
Q 40.234375 -1.421875 26.90625 -1.421875 
Q 22.3125 -1.421875 17.546875 -0.640625 
Q 12.796875 0.140625 7.71875 1.703125 
L 7.71875 11.625 
Q 12.109375 9.234375 16.796875 8.0625 
Q 21.484375 6.890625 26.703125 6.890625 
Q 35.15625 6.890625 40.078125 11.328125 
Q 45.015625 15.765625 45.015625 23.390625 
Q 45.015625 31 40.078125 35.4375 
Q 35.15625 39.890625 26.703125 39.890625 
Q 22.75 39.890625 18.8125 39.015625 
Q 14.890625 38.140625 10.796875 36.28125 
z
" id="DejaVuSans-53"/>
    </defs>
    <g transform="translate(200.664375 28.56)scale(0.12 -0.12)">
     <use xlink:href="#DejaVuSans-116"/>
     <use x="39.208984" xlink:href="#DejaVuSans-32"/>
     <use x="70.996094" xlink:href="#DejaVuSans-61"/>
     <use x="154.785156" xlink:href="#DejaVuSans-32"/>
     <use x="186.572266" xlink:href="#DejaVuSans-48"/>
     <use x="250.195312" xlink:href="#DejaVuSans-46"/>
     <use x="281.982422" xlink:href="#DejaVuSans-53"/>
    </g>
   </g>
  </g>
 </g>
 <defs>
  <clipPath id="p2430cd9834">
   <rect height="217.44" width="334.8" x="54" y="34.56"/>
  </clipPath>
 </defs>
</svg>
