<?xml version="1.0" encoding="utf-8" standalone="no"?>
<!DOCTYPE svg PUBLIC "-//W3C//DTD SVG 1.1//EN"
  "http://www.w3.org/Graphics/SVG/1.1/DTD/svg11.dtd">
<!-- Created with matplotlib (https://matplotlib.org/) -->
<svg height="288pt" version="1.1" viewBox="0 0 432 288" width="432pt" xmlns="http://www.w3.org/2000/svg" xmlns:xlink="http://www.w3.org/1999/xlink">
 <defs>
  <style type="text/css">
*{stroke-linecap:butt;stroke-linejoin:round;}
  </style>
 </defs>
 <g id="figure_1">
  <g id="patch_1">
   <path d="M 0 288 
L 432 288 
L 432 0 
L 0 0 
z
" style="fill:#ffffff;"/>
  </g>
  <g id="axes_1">
   <g id="patch_2">
    <path clip-path="url(#pa67635b235)" d="M 201.720833 129.050692 
L 201.192234 139.909834 
L 200.10632 139.856974 
L 200.634919 128.997832 
z
" style="stroke:#000000;stroke-linejoin:miter;"/>
   </g>
   <g id="patch_3">
    <path clip-path="url(#pa67635b235)" d="M 256.016543 131.693687 
L 255.487944 142.552829 
L 254.40203 142.499969 
L 254.930629 131.640827 
z
" style="stroke:#000000;stroke-linejoin:miter;"/>
   </g>
   <g id="patch_4">
    <path clip-path="url(#pa67635b235)" d="M 219.276446 129.905261 
L 219.154673 129.347133 
L 218.736408 128.810693 
L 218.027291 128.329971 
L 217.037904 127.934669 
L 215.783666 127.648244 
L 214.284637 127.486414 
L 212.565219 127.45618 
L 210.653771 127.555424 
L 208.582137 127.773119 
L 206.385092 128.090122 
L 204.099719 128.480508 
L 201.764737 128.91335 
L 199.419787 129.35483 
L 197.104695 129.770543 
L 194.858731 130.127837 
L 192.719886 130.39804 
L 190.724167 130.558421 
L 188.90496 130.593759 
L 187.292428 130.497419 
L 185.913008 130.271855 
L 184.788972 129.928514 
L 183.938092 129.487139 
L 183.373385 128.974526 
L 183.102972 128.422801 
L 183.13001 127.867347 
L 183.452732 127.344495 
L 184.064556 126.889152 
L 184.954282 126.532506 
L 186.106351 126.299961 
L 187.501157 126.20944 
L 189.115422 126.270174 
L 190.922597 126.482036 
L 192.893302 126.835493 
L 194.995793 127.312155 
L 197.196435 127.885901 
L 199.460205 128.524502 
L 201.75119 129.191649 
L 204.033092 129.84923 
L 206.269744 130.459739 
L 208.425613 130.988632 
L 210.466309 131.406507 
L 212.35908 131.690932 
L 214.073306 131.827839 
L 215.580966 131.812368 
L 216.857093 131.649116 
L 217.880196 131.351777 
L 218.632651 130.942202 
L 219.101041 130.448922 
z
" style="fill:#0000ff;stroke:#000000;stroke-linejoin:miter;"/>
   </g>
   <g id="patch_5">
    <path clip-path="url(#pa67635b235)" d="M 273.572156 132.548255 
L 273.450384 131.990128 
L 273.032119 131.453688 
L 272.323002 130.972966 
L 271.333614 130.577664 
L 270.079377 130.291239 
L 268.580348 130.129409 
L 266.860929 130.099174 
L 264.949482 130.198418 
L 262.877848 130.416114 
L 260.680802 130.733117 
L 258.395429 131.123503 
L 256.060447 131.556345 
L 253.715497 131.997825 
L 251.400405 132.413538 
L 249.154442 132.770832 
L 247.015596 133.041035 
L 245.019878 133.201416 
L 243.20067 133.236754 
L 241.588138 133.140414 
L 240.208718 132.91485 
L 239.084683 132.571509 
L 238.233802 132.130134 
L 237.669096 131.617521 
L 237.398682 131.065796 
L 237.425721 130.510342 
L 237.748442 129.98749 
L 238.360266 129.532147 
L 239.249993 129.175501 
L 240.402061 128.942956 
L 241.796868 128.852435 
L 243.411133 128.913168 
L 245.218307 129.125031 
L 247.189013 129.478488 
L 249.291503 129.95515 
L 251.492146 130.528895 
L 253.755916 131.167497 
L 256.0469 131.834644 
L 258.328803 132.492225 
L 260.565455 133.102734 
L 262.721324 133.631627 
L 264.762019 134.049502 
L 266.654791 134.333927 
L 268.369017 134.470834 
L 269.876677 134.455363 
L 271.152803 134.292111 
L 272.175907 133.994772 
L 272.928362 133.585196 
L 273.396751 133.091917 
z
" style="fill:#0000ff;stroke:#000000;stroke-linejoin:miter;"/>
   </g>
   <g id="patch_6">
    <path clip-path="url(#pa67635b235)" d="M 260.506708 140.075913 
L 195.351855 136.904319 
L 195.087556 142.33389 
L 260.242409 145.505484 
z
" style="fill:#999999;stroke:#000000;stroke-linejoin:miter;"/>
   </g>
   <g id="text_1">
    <!-- t = 1.0 -->
    <defs>
     <path d="M 18.3125 70.21875 
L 18.3125 54.6875 
L 36.8125 54.6875 
L 36.8125 47.703125 
L 18.3125 47.703125 
L 18.3125 18.015625 
Q 18.3125 11.328125 20.140625 9.421875 
Q 21.96875 7.515625 27.59375 7.515625 
L 36.8125 7.515625 
L 36.8125 0 
L 27.59375 0 
Q 17.1875 0 13.234375 3.875 
Q 9.28125 7.765625 9.28125 18.015625 
L 9.28125 47.703125 
L 2.6875 47.703125 
L 2.6875 54.6875 
L 9.28125 54.6875 
L 9.28125 70.21875 
z
" id="DejaVuSans-116"/>
     <path id="DejaVuSans-32"/>
     <path d="M 10.59375 45.40625 
L 73.1875 45.40625 
L 73.1875 37.203125 
L 10.59375 37.203125 
z
M 10.59375 25.484375 
L 73.1875 25.484375 
L 73.1875 17.1875 
L 10.59375 17.1875 
z
" id="DejaVuSans-61"/>
     <path d="M 12.40625 8.296875 
L 28.515625 8.296875 
L 28.515625 63.921875 
L 10.984375 60.40625 
L 10.984375 69.390625 
L 28.421875 72.90625 
L 38.28125 72.90625 
L 38.28125 8.296875 
L 54.390625 8.296875 
L 54.390625 0 
L 12.40625 0 
z
" id="DejaVuSans-49"/>
     <path d="M 10.6875 12.40625 
L 21 12.40625 
L 21 0 
L 10.6875 0 
z
" id="DejaVuSans-46"/>
     <path d="M 31.78125 66.40625 
Q 24.171875 66.40625 20.328125 58.90625 
Q 16.5 51.421875 16.5 36.375 
Q 16.5 21.390625 20.328125 13.890625 
Q 24.171875 6.390625 31.78125 6.390625 
Q 39.453125 6.390625 43.28125 13.890625 
Q 47.125 21.390625 47.125 36.375 
Q 47.125 51.421875 43.28125 58.90625 
Q 39.453125 66.40625 31.78125 66.40625 
z
M 31.78125 74.21875 
Q 44.046875 74.21875 50.515625 64.515625 
Q 56.984375 54.828125 56.984375 36.375 
Q 56.984375 17.96875 50.515625 8.265625 
Q 44.046875 -1.421875 31.78125 -1.421875 
Q 19.53125 -1.421875 13.0625 8.265625 
Q 6.59375 17.96875 6.59375 36.375 
Q 6.59375 54.828125 13.0625 64.515625 
Q 19.53125 74.21875 31.78125 74.21875 
z
" id="DejaVuSans-48"/>
    </defs>
    <g transform="translate(200.664375 28.56)scale(0.12 -0.12)">
     <use xlink:href="#DejaVuSans-116"/>
     <use x="39.208984" xlink:href="#DejaVuSans-32"/>
     <use x="70.996094" xlink:href="#DejaVuSans-61"/>
     <use x="154.785156" xlink:href="#DejaVuSans-32"/>
     <use x="186.572266" xlink:href="#DejaVuSans-49"/>
     <use x="250.195312" xlink:href="#DejaVuSans-46"/>
     <use x="281.982422" xlink:href="#DejaVuSans-48"/>
    </g>
   </g>
  </g>
 </g>
 <defs>
  <clipPath id="pa67635b235">
   <rect height="217.44" width="334.8" x="54" y="34.56"/>
  </clipPath>
 </defs>
</svg>
