<?xml version="1.0" encoding="utf-8" standalone="no"?>
<!DOCTYPE svg PUBLIC "-//W3C//DTD SVG 1.1//EN"
  "http://www.w3.org/Graphics/SVG/1.1/DTD/svg11.dtd">
<!-- Created with matplotlib (https://matplotlib.org/) -->
<svg height="288pt" version="1.1" viewBox="0 0 432 288" width="432pt" xmlns="http://www.w3.org/2000/svg" xmlns:xlink="http://www.w3.org/1999/xlink">
 <defs>
  <style type="text/css">
*{stroke-linecap:butt;stroke-linejoin:round;}
  </style>
 </defs>
 <g id="figure_1">
  <g id="patch_1">
   <path d="M 0 288 
L 432 288 
L 432 0 
L 0 0 
z
" style="fill:#ffffff;"/>
  </g>
  <g id="axes_1">
   <g id="patch_2">
    <path clip-path="url(#pcf4aa0e4fe)" d="M 73.03201 184.123038 
L 78.011306 193.787767 
L 77.044833 194.285697 
L 72.065537 184.620967 
z
" style="stroke:#000000;stroke-linejoin:miter;"/>
   </g>
   <g id="patch_3">
    <path clip-path="url(#pcf4aa0e4fe)" d="M 121.355656 159.226555 
L 126.334952 168.891284 
L 125.368479 169.389214 
L 120.389183 159.724485 
z
" style="stroke:#000000;stroke-linejoin:miter;"/>
   </g>
   <g id="patch_4">
    <path clip-path="url(#pcf4aa0e4fe)" d="M 88.656655 176.073175 
L 88.271806 175.651008 
L 87.641159 175.396059 
L 86.786637 175.334964 
L 85.73227 175.488134 
L 84.503151 175.868156 
L 83.124512 176.478592 
L 81.620983 177.313285 
L 80.016052 178.356204 
L 78.331763 179.581858 
L 76.588634 180.956268 
L 74.805786 182.438423 
L 73.001252 183.982168 
L 71.192413 185.53838 
L 69.39652 187.057339 
L 67.631218 188.491118 
L 65.915037 189.795877 
L 64.267768 190.933909 
L 62.710688 191.875326 
L 61.266586 192.59928 
L 59.959575 193.094661 
L 58.814667 193.360226 
L 57.857129 193.404168 
L 57.111647 193.243163 
L 56.601334 192.900959 
L 56.346639 192.4066 
L 56.364221 191.792422 
L 56.665861 191.091937 
L 57.257479 190.33775 
L 58.138323 189.559641 
L 59.300398 188.782942 
L 60.728172 188.027298 
L 62.398603 187.305891 
L 64.281485 186.625179 
L 66.34013 185.985137 
L 68.532345 185.379992 
L 70.811679 184.799382 
L 73.128861 184.229856 
L 75.433393 183.656598 
L 77.675186 183.065247 
L 79.806188 182.443693 
L 81.781908 181.7837 
L 83.562765 181.082251 
L 85.115208 180.342498 
L 86.412548 179.574262 
L 87.435474 178.794024 
L 88.172241 178.024397 
L 88.618531 177.29312 
L 88.777014 176.631609 
z
" style="fill:#0000ff;stroke:#000000;stroke-linejoin:miter;"/>
   </g>
   <g id="patch_5">
    <path clip-path="url(#pcf4aa0e4fe)" d="M 136.980301 151.176693 
L 136.595452 150.754525 
L 135.964805 150.499576 
L 135.110283 150.438481 
L 134.055916 150.591652 
L 132.826797 150.971674 
L 131.448158 151.58211 
L 129.944629 152.416803 
L 128.339698 153.459721 
L 126.655409 154.685376 
L 124.91228 156.059785 
L 123.129432 157.541941 
L 121.324898 159.085685 
L 119.516059 160.641898 
L 117.720166 162.160857 
L 115.954864 163.594635 
L 114.238683 164.899394 
L 112.591414 166.037426 
L 111.034334 166.978843 
L 109.590232 167.702798 
L 108.283221 168.198179 
L 107.138313 168.463743 
L 106.180775 168.507685 
L 105.435293 168.346681 
L 104.92498 168.004476 
L 104.670285 167.510117 
L 104.687867 166.895939 
L 104.989508 166.195455 
L 105.581125 165.441267 
L 106.461969 164.663159 
L 107.624044 163.88646 
L 109.051818 163.130815 
L 110.722249 162.409409 
L 112.605131 161.728697 
L 114.663776 161.088655 
L 116.855991 160.483509 
L 119.135325 159.902899 
L 121.452507 159.333374 
L 123.757039 158.760115 
L 125.998832 158.168764 
L 128.129834 157.54721 
L 130.105554 156.887218 
L 131.886411 156.185769 
L 133.438854 155.446016 
L 134.736194 154.67778 
L 135.75912 153.897541 
L 136.495887 153.127915 
L 136.942177 152.396637 
L 137.10066 151.735126 
z
" style="fill:#0000ff;stroke:#000000;stroke-linejoin:miter;"/>
   </g>
   <g id="patch_6">
    <path clip-path="url(#pcf4aa0e4fe)" d="M 129.439256 164.234419 
L 71.450881 194.110198 
L 73.940529 198.942562 
L 131.928905 169.066783 
z
" style="fill:#999999;stroke:#000000;stroke-linejoin:miter;"/>
   </g>
   <g id="text_1">
    <!-- t = 0.4 -->
    <defs>
     <path d="M 18.3125 70.21875 
L 18.3125 54.6875 
L 36.8125 54.6875 
L 36.8125 47.703125 
L 18.3125 47.703125 
L 18.3125 18.015625 
Q 18.3125 11.328125 20.140625 9.421875 
Q 21.96875 7.515625 27.59375 7.515625 
L 36.8125 7.515625 
L 36.8125 0 
L 27.59375 0 
Q 17.1875 0 13.234375 3.875 
Q 9.28125 7.765625 9.28125 18.015625 
L 9.28125 47.703125 
L 2.6875 47.703125 
L 2.6875 54.6875 
L 9.28125 54.6875 
L 9.28125 70.21875 
z
" id="DejaVuSans-116"/>
     <path id="DejaVuSans-32"/>
     <path d="M 10.59375 45.40625 
L 73.1875 45.40625 
L 73.1875 37.203125 
L 10.59375 37.203125 
z
M 10.59375 25.484375 
L 73.1875 25.484375 
L 73.1875 17.1875 
L 10.59375 17.1875 
z
" id="DejaVuSans-61"/>
     <path d="M 31.78125 66.40625 
Q 24.171875 66.40625 20.328125 58.90625 
Q 16.5 51.421875 16.5 36.375 
Q 16.5 21.390625 20.328125 13.890625 
Q 24.171875 6.390625 31.78125 6.390625 
Q 39.453125 6.390625 43.28125 13.890625 
Q 47.125 21.390625 47.125 36.375 
Q 47.125 51.421875 43.28125 58.90625 
Q 39.453125 66.40625 31.78125 66.40625 
z
M 31.78125 74.21875 
Q 44.046875 74.21875 50.515625 64.515625 
Q 56.984375 54.828125 56.984375 36.375 
Q 56.984375 17.96875 50.515625 8.265625 
Q 44.046875 -1.421875 31.78125 -1.421875 
Q 19.53125 -1.421875 13.0625 8.265625 
Q 6.59375 17.96875 6.59375 36.375 
Q 6.59375 54.828125 13.0625 64.515625 
Q 19.53125 74.21875 31.78125 74.21875 
z
" id="DejaVuSans-48"/>
     <path d="M 10.6875 12.40625 
L 21 12.40625 
L 21 0 
L 10.6875 0 
z
" id="DejaVuSans-46"/>
     <path d="M 37.796875 64.3125 
L 12.890625 25.390625 
L 37.796875 25.390625 
z
M 35.203125 72.90625 
L 47.609375 72.90625 
L 47.609375 25.390625 
L 58.015625 25.390625 
L 58.015625 17.1875 
L 47.609375 17.1875 
L 47.609375 0 
L 37.796875 0 
L 37.796875 17.1875 
L 4.890625 17.1875 
L 4.890625 26.703125 
z
" id="DejaVuSans-52"/>
    </defs>
    <g transform="translate(200.664375 28.56)scale(0.12 -0.12)">
     <use xlink:href="#DejaVuSans-116"/>
     <use x="39.208984" xlink:href="#DejaVuSans-32"/>
     <use x="70.996094" xlink:href="#DejaVuSans-61"/>
     <use x="154.785156" xlink:href="#DejaVuSans-32"/>
     <use x="186.572266" xlink:href="#DejaVuSans-48"/>
     <use x="250.195312" xlink:href="#DejaVuSans-46"/>
     <use x="281.982422" xlink:href="#DejaVuSans-52"/>
    </g>
   </g>
  </g>
 </g>
 <defs>
  <clipPath id="pcf4aa0e4fe">
   <rect height="217.44" width="334.8" x="54" y="34.56"/>
  </clipPath>
 </defs>
</svg>
