<?xml version="1.0" encoding="utf-8" standalone="no"?>
<!DOCTYPE svg PUBLIC "-//W3C//DTD SVG 1.1//EN"
  "http://www.w3.org/Graphics/SVG/1.1/DTD/svg11.dtd">
<!-- Created with matplotlib (https://matplotlib.org/) -->
<svg height="288pt" version="1.1" viewBox="0 0 432 288" width="432pt" xmlns="http://www.w3.org/2000/svg" xmlns:xlink="http://www.w3.org/1999/xlink">
 <defs>
  <style type="text/css">
*{stroke-linecap:butt;stroke-linejoin:round;}
  </style>
 </defs>
 <g id="figure_1">
  <g id="patch_1">
   <path d="M 0 288 
L 432 288 
L 432 0 
L 0 0 
z
" style="fill:#ffffff;"/>
  </g>
  <g id="axes_1">
   <g id="patch_2">
    <path clip-path="url(#pe3751bbadd)" d="M 0.564121 157.7427 
L -7.226309 165.326207 
L -7.984659 164.547164 
L -0.19423 156.963657 
z
" style="stroke:#000000;stroke-linejoin:miter;"/>
   </g>
   <g id="patch_3">
    <path clip-path="url(#pe3751bbadd)" d="M 38.48166 196.694848 
L 30.691231 204.278355 
L 29.93288 203.499312 
L 37.723309 195.915805 
z
" style="stroke:#000000;stroke-linejoin:miter;"/>
   </g>
   <g id="patch_4">
    <path clip-path="url(#pe3751bbadd)" d="M 12.824125 170.337227 
L 13.115573 169.84591 
L 13.175339 169.16831 
L 12.984346 168.333168 
L 12.530085 167.369427 
L 11.807843 166.304759 
L 10.821578 165.164339 
L 9.584367 163.969926 
L 8.1184 162.739306 
L 6.454492 161.486124 
L 4.631131 160.220085 
L 2.693123 158.947506 
L 0.689878 157.672162 
L -1.326548 156.396341 
L -3.303565 155.122027 
L -5.190181 153.85211 
L -6.939058 152.591515 
L -8.508354 151.348164 
L -9.863272 150.133683 
L -10.977221 148.963786 
L -11.832534 147.858292 
L -12.420722 146.840759 
L -12.742248 145.937747 
L -12.805855 145.177734 
L -12.627509 144.589757 
L -12.229022 144.201854 
L -11.636459 144.039398 
L -10.878433 144.123436 
L -9.984401 144.469149 
L -8.983067 145.08451 
L -7.900993 145.969266 
L -6.7615 147.114297 
L -5.583925 148.501411 
L -4.38326 150.103602 
L -3.17019 151.885772 
L -1.951508 153.805883 
L -0.730865 155.81648 
L 0.490224 157.866513 
L 1.711192 159.903356 
L 2.931151 161.874912 
L 4.147658 163.731686 
L 5.355605 165.428719 
L 6.546324 166.927275 
L 7.707007 168.196184 
L 8.82047 169.212785 
L 9.865313 169.96342 
L 10.81648 170.443454 
L 11.646179 170.656854 
L 12.325142 170.615347 
z
" style="fill:#0000ff;stroke:#000000;stroke-linejoin:miter;"/>
   </g>
   <g id="patch_5">
    <path clip-path="url(#pe3751bbadd)" d="M 50.741664 209.289375 
L 51.033113 208.798058 
L 51.092878 208.120458 
L 50.901885 207.285316 
L 50.447624 206.321575 
L 49.725382 205.256907 
L 48.739117 204.116487 
L 47.501906 202.922074 
L 46.035939 201.691454 
L 44.372031 200.438272 
L 42.54867 199.172233 
L 40.610662 197.899654 
L 38.607417 196.62431 
L 36.590991 195.348489 
L 34.613974 194.074175 
L 32.727358 192.804258 
L 30.978481 191.543663 
L 29.409185 190.300312 
L 28.054267 189.085831 
L 26.940318 187.915934 
L 26.085005 186.81044 
L 25.496817 185.792907 
L 25.175291 184.889895 
L 25.111684 184.129882 
L 25.29003 183.541905 
L 25.688517 183.154002 
L 26.28108 182.991546 
L 27.039106 183.075584 
L 27.933138 183.421297 
L 28.934472 184.036658 
L 30.016546 184.921414 
L 31.156039 186.066445 
L 32.333614 187.453559 
L 33.534279 189.05575 
L 34.747349 190.83792 
L 35.966031 192.758031 
L 37.186674 194.768628 
L 38.407763 196.818661 
L 39.628731 198.855504 
L 40.84869 200.82706 
L 42.065197 202.683834 
L 43.273144 204.380867 
L 44.463863 205.879423 
L 45.624546 207.148332 
L 46.738009 208.164933 
L 47.782852 208.915567 
L 48.734019 209.395602 
L 49.563718 209.609002 
L 50.242681 209.567495 
z
" style="fill:#0000ff;stroke:#000000;stroke-linejoin:miter;"/>
   </g>
   <g id="patch_6">
    <path clip-path="url(#pe3751bbadd)" d="M 36.051416 205.888172 
L -9.44963 159.145594 
L -13.344845 162.937348 
L 32.156202 209.679926 
z
" style="fill:#999999;stroke:#000000;stroke-linejoin:miter;"/>
   </g>
   <g id="text_1">
    <!-- t = 0.1 -->
    <defs>
     <path d="M 18.3125 70.21875 
L 18.3125 54.6875 
L 36.8125 54.6875 
L 36.8125 47.703125 
L 18.3125 47.703125 
L 18.3125 18.015625 
Q 18.3125 11.328125 20.140625 9.421875 
Q 21.96875 7.515625 27.59375 7.515625 
L 36.8125 7.515625 
L 36.8125 0 
L 27.59375 0 
Q 17.1875 0 13.234375 3.875 
Q 9.28125 7.765625 9.28125 18.015625 
L 9.28125 47.703125 
L 2.6875 47.703125 
L 2.6875 54.6875 
L 9.28125 54.6875 
L 9.28125 70.21875 
z
" id="DejaVuSans-116"/>
     <path id="DejaVuSans-32"/>
     <path d="M 10.59375 45.40625 
L 73.1875 45.40625 
L 73.1875 37.203125 
L 10.59375 37.203125 
z
M 10.59375 25.484375 
L 73.1875 25.484375 
L 73.1875 17.1875 
L 10.59375 17.1875 
z
" id="DejaVuSans-61"/>
     <path d="M 31.78125 66.40625 
Q 24.171875 66.40625 20.328125 58.90625 
Q 16.5 51.421875 16.5 36.375 
Q 16.5 21.390625 20.328125 13.890625 
Q 24.171875 6.390625 31.78125 6.390625 
Q 39.453125 6.390625 43.28125 13.890625 
Q 47.125 21.390625 47.125 36.375 
Q 47.125 51.421875 43.28125 58.90625 
Q 39.453125 66.40625 31.78125 66.40625 
z
M 31.78125 74.21875 
Q 44.046875 74.21875 50.515625 64.515625 
Q 56.984375 54.828125 56.984375 36.375 
Q 56.984375 17.96875 50.515625 8.265625 
Q 44.046875 -1.421875 31.78125 -1.421875 
Q 19.53125 -1.421875 13.0625 8.265625 
Q 6.59375 17.96875 6.59375 36.375 
Q 6.59375 54.828125 13.0625 64.515625 
Q 19.53125 74.21875 31.78125 74.21875 
z
" id="DejaVuSans-48"/>
     <path d="M 10.6875 12.40625 
L 21 12.40625 
L 21 0 
L 10.6875 0 
z
" id="DejaVuSans-46"/>
     <path d="M 12.40625 8.296875 
L 28.515625 8.296875 
L 28.515625 63.921875 
L 10.984375 60.40625 
L 10.984375 69.390625 
L 28.421875 72.90625 
L 38.28125 72.90625 
L 38.28125 8.296875 
L 54.390625 8.296875 
L 54.390625 0 
L 12.40625 0 
z
" id="DejaVuSans-49"/>
    </defs>
    <g transform="translate(200.664375 28.56)scale(0.12 -0.12)">
     <use xlink:href="#DejaVuSans-116"/>
     <use x="39.208984" xlink:href="#DejaVuSans-32"/>
     <use x="70.996094" xlink:href="#DejaVuSans-61"/>
     <use x="154.785156" xlink:href="#DejaVuSans-32"/>
     <use x="186.572266" xlink:href="#DejaVuSans-48"/>
     <use x="250.195312" xlink:href="#DejaVuSans-46"/>
     <use x="281.982422" xlink:href="#DejaVuSans-49"/>
    </g>
   </g>
  </g>
 </g>
 <defs>
  <clipPath id="pe3751bbadd">
   <rect height="217.44" width="334.8" x="54" y="34.56"/>
  </clipPath>
 </defs>
</svg>
