<?xml version="1.0" encoding="utf-8" standalone="no"?>
<!DOCTYPE svg PUBLIC "-//W3C//DTD SVG 1.1//EN"
  "http://www.w3.org/Graphics/SVG/1.1/DTD/svg11.dtd">
<!-- Created with matplotlib (https://matplotlib.org/) -->
<svg height="288pt" version="1.1" viewBox="0 0 432 288" width="432pt" xmlns="http://www.w3.org/2000/svg" xmlns:xlink="http://www.w3.org/1999/xlink">
 <defs>
  <style type="text/css">
*{stroke-linecap:butt;stroke-linejoin:round;}
  </style>
 </defs>
 <g id="figure_1">
  <g id="patch_1">
   <path d="M 0 288 
L 432 288 
L 432 0 
L 0 0 
z
" style="fill:#ffffff;"/>
  </g>
  <g id="axes_1">
   <g id="patch_2">
    <path clip-path="url(#pc0444493fc)" d="M 194.779437 132.408987 
L 194.779454 143.280987 
L 193.692254 143.280989 
L 193.692237 132.408989 
z
" style="stroke:#000000;stroke-linejoin:miter;"/>
   </g>
   <g id="patch_3">
    <path clip-path="url(#pc0444493fc)" d="M 249.139437 132.408903 
L 249.139454 143.280903 
L 248.052254 143.280905 
L 248.052237 132.408905 
z
" style="stroke:#000000;stroke-linejoin:miter;"/>
   </g>
   <g id="patch_4">
    <path clip-path="url(#pc0444493fc)" d="M 212.355837 132.40896 
L 212.207071 131.857414 
L 211.763218 131.341945 
L 211.031566 130.89627 
L 210.024129 130.549541 
L 208.757449 130.324438 
L 207.252324 130.235685 
L 205.533469 130.289088 
L 203.629108 130.481152 
L 201.570509 130.799316 
L 199.391475 131.222769 
L 197.127786 131.723812 
L 194.816612 132.269673 
L 192.495901 132.824646 
L 190.203759 133.352431 
L 187.977825 133.818506 
L 185.854646 134.192384 
L 183.869086 134.44961 
L 182.053748 134.573359 
L 180.43844 134.555538 
L 179.049684 134.397311 
L 177.910284 134.109028 
L 177.038949 133.709546 
L 176.449987 133.224996 
L 176.153067 132.687072 
L 176.153066 132.13096 
L 176.449984 131.593035 
L 177.038945 131.108483 
L 177.910279 130.708999 
L 179.049678 130.420713 
L 180.438433 130.262482 
L 182.053742 130.244655 
L 183.86908 130.368399 
L 185.854641 130.625619 
L 187.97782 130.99949 
L 190.203756 131.465558 
L 192.495899 131.993336 
L 194.816612 132.548302 
L 197.127788 133.094155 
L 199.391479 133.595191 
L 201.570514 134.018637 
L 203.629113 134.336795 
L 205.533476 134.528854 
L 207.252331 134.582251 
L 208.757455 134.493493 
L 210.024135 134.268386 
L 211.031571 133.921654 
L 211.763222 133.475977 
L 212.207073 132.960507 
z
" style="fill:#0000ff;stroke:#000000;stroke-linejoin:miter;"/>
   </g>
   <g id="patch_5">
    <path clip-path="url(#pc0444493fc)" d="M 266.715837 132.408876 
L 266.567071 131.85733 
L 266.123218 131.341861 
L 265.391566 130.896186 
L 264.384129 130.549457 
L 263.117449 130.324354 
L 261.612324 130.235601 
L 259.893469 130.289004 
L 257.989108 130.481068 
L 255.930509 130.799232 
L 253.751475 131.222685 
L 251.487786 131.723729 
L 249.176612 132.269589 
L 246.855901 132.824562 
L 244.563759 133.352347 
L 242.337825 133.818422 
L 240.214646 134.1923 
L 238.229086 134.449526 
L 236.413748 134.573275 
L 234.79844 134.555454 
L 233.409684 134.397227 
L 232.270284 134.108944 
L 231.398949 133.709462 
L 230.809987 133.224912 
L 230.513067 132.686988 
L 230.513066 132.130876 
L 230.809984 131.592951 
L 231.398945 131.108399 
L 232.270279 130.708915 
L 233.409678 130.420629 
L 234.798433 130.262398 
L 236.413742 130.244571 
L 238.22908 130.368315 
L 240.214641 130.625535 
L 242.33782 130.999406 
L 244.563756 131.465474 
L 246.855899 131.993252 
L 249.176612 132.548218 
L 251.487788 133.094071 
L 253.751479 133.595107 
L 255.930514 134.018553 
L 257.989113 134.336711 
L 259.893476 134.52877 
L 261.612331 134.582167 
L 263.117455 134.493409 
L 264.384135 134.268302 
L 265.391571 133.92157 
L 266.123222 133.475893 
L 266.567073 132.960423 
z
" style="fill:#0000ff;stroke:#000000;stroke-linejoin:miter;"/>
   </g>
   <g id="patch_6">
    <path clip-path="url(#pc0444493fc)" d="M 254.03185 140.562896 
L 188.79985 140.562997 
L 188.799858 145.998997 
L 254.031858 145.998896 
z
" style="fill:#999999;stroke:#000000;stroke-linejoin:miter;"/>
   </g>
   <g id="text_1">
    <!-- t = 3.6 -->
    <defs>
     <path d="M 18.3125 70.21875 
L 18.3125 54.6875 
L 36.8125 54.6875 
L 36.8125 47.703125 
L 18.3125 47.703125 
L 18.3125 18.015625 
Q 18.3125 11.328125 20.140625 9.421875 
Q 21.96875 7.515625 27.59375 7.515625 
L 36.8125 7.515625 
L 36.8125 0 
L 27.59375 0 
Q 17.1875 0 13.234375 3.875 
Q 9.28125 7.765625 9.28125 18.015625 
L 9.28125 47.703125 
L 2.6875 47.703125 
L 2.6875 54.6875 
L 9.28125 54.6875 
L 9.28125 70.21875 
z
" id="DejaVuSans-116"/>
     <path id="DejaVuSans-32"/>
     <path d="M 10.59375 45.40625 
L 73.1875 45.40625 
L 73.1875 37.203125 
L 10.59375 37.203125 
z
M 10.59375 25.484375 
L 73.1875 25.484375 
L 73.1875 17.1875 
L 10.59375 17.1875 
z
" id="DejaVuSans-61"/>
     <path d="M 40.578125 39.3125 
Q 47.65625 37.796875 51.625 33 
Q 55.609375 28.21875 55.609375 21.1875 
Q 55.609375 10.40625 48.1875 4.484375 
Q 40.765625 -1.421875 27.09375 -1.421875 
Q 22.515625 -1.421875 17.65625 -0.515625 
Q 12.796875 0.390625 7.625 2.203125 
L 7.625 11.71875 
Q 11.71875 9.328125 16.59375 8.109375 
Q 21.484375 6.890625 26.8125 6.890625 
Q 36.078125 6.890625 40.9375 10.546875 
Q 45.796875 14.203125 45.796875 21.1875 
Q 45.796875 27.640625 41.28125 31.265625 
Q 36.765625 34.90625 28.71875 34.90625 
L 20.21875 34.90625 
L 20.21875 43.015625 
L 29.109375 43.015625 
Q 36.375 43.015625 40.234375 45.921875 
Q 44.09375 48.828125 44.09375 54.296875 
Q 44.09375 59.90625 40.109375 62.90625 
Q 36.140625 65.921875 28.71875 65.921875 
Q 24.65625 65.921875 20.015625 65.03125 
Q 15.375 64.15625 9.8125 62.3125 
L 9.8125 71.09375 
Q 15.4375 72.65625 20.34375 73.4375 
Q 25.25 74.21875 29.59375 74.21875 
Q 40.828125 74.21875 47.359375 69.109375 
Q 53.90625 64.015625 53.90625 55.328125 
Q 53.90625 49.265625 50.4375 45.09375 
Q 46.96875 40.921875 40.578125 39.3125 
z
" id="DejaVuSans-51"/>
     <path d="M 10.6875 12.40625 
L 21 12.40625 
L 21 0 
L 10.6875 0 
z
" id="DejaVuSans-46"/>
     <path d="M 33.015625 40.375 
Q 26.375 40.375 22.484375 35.828125 
Q 18.609375 31.296875 18.609375 23.390625 
Q 18.609375 15.53125 22.484375 10.953125 
Q 26.375 6.390625 33.015625 6.390625 
Q 39.65625 6.390625 43.53125 10.953125 
Q 47.40625 15.53125 47.40625 23.390625 
Q 47.40625 31.296875 43.53125 35.828125 
Q 39.65625 40.375 33.015625 40.375 
z
M 52.59375 71.296875 
L 52.59375 62.3125 
Q 48.875 64.0625 45.09375 64.984375 
Q 41.3125 65.921875 37.59375 65.921875 
Q 27.828125 65.921875 22.671875 59.328125 
Q 17.53125 52.734375 16.796875 39.40625 
Q 19.671875 43.65625 24.015625 45.921875 
Q 28.375 48.1875 33.59375 48.1875 
Q 44.578125 48.1875 50.953125 41.515625 
Q 57.328125 34.859375 57.328125 23.390625 
Q 57.328125 12.15625 50.6875 5.359375 
Q 44.046875 -1.421875 33.015625 -1.421875 
Q 20.359375 -1.421875 13.671875 8.265625 
Q 6.984375 17.96875 6.984375 36.375 
Q 6.984375 53.65625 15.1875 63.9375 
Q 23.390625 74.21875 37.203125 74.21875 
Q 40.921875 74.21875 44.703125 73.484375 
Q 48.484375 72.75 52.59375 71.296875 
z
" id="DejaVuSans-54"/>
    </defs>
    <g transform="translate(200.664375 28.56)scale(0.12 -0.12)">
     <use xlink:href="#DejaVuSans-116"/>
     <use x="39.208984" xlink:href="#DejaVuSans-32"/>
     <use x="70.996094" xlink:href="#DejaVuSans-61"/>
     <use x="154.785156" xlink:href="#DejaVuSans-32"/>
     <use x="186.572266" xlink:href="#DejaVuSans-51"/>
     <use x="250.195312" xlink:href="#DejaVuSans-46"/>
     <use x="281.982422" xlink:href="#DejaVuSans-54"/>
    </g>
   </g>
  </g>
 </g>
 <defs>
  <clipPath id="pc0444493fc">
   <rect height="217.44" width="334.8" x="54" y="34.56"/>
  </clipPath>
 </defs>
</svg>
