<?xml version="1.0" encoding="utf-8" standalone="no"?>
<!DOCTYPE svg PUBLIC "-//W3C//DTD SVG 1.1//EN"
  "http://www.w3.org/Graphics/SVG/1.1/DTD/svg11.dtd">
<!-- Created with matplotlib (https://matplotlib.org/) -->
<svg height="288pt" version="1.1" viewBox="0 0 432 288" width="432pt" xmlns="http://www.w3.org/2000/svg" xmlns:xlink="http://www.w3.org/1999/xlink">
 <defs>
  <style type="text/css">
*{stroke-linecap:butt;stroke-linejoin:round;}
  </style>
 </defs>
 <g id="figure_1">
  <g id="patch_1">
   <path d="M 0 288 
L 432 288 
L 432 0 
L 0 0 
z
" style="fill:#ffffff;"/>
  </g>
  <g id="axes_1">
   <g id="patch_2">
    <path clip-path="url(#p136651e1d1)" d="M 194.048514 132.601766 
L 194.026374 143.473744 
L 192.939176 143.47153 
L 192.961316 132.599552 
z
" style="stroke:#000000;stroke-linejoin:miter;"/>
   </g>
   <g id="patch_3">
    <path clip-path="url(#p136651e1d1)" d="M 248.408401 132.712469 
L 248.386261 143.584446 
L 247.299063 143.582232 
L 247.321204 132.710255 
z
" style="stroke:#000000;stroke-linejoin:miter;"/>
   </g>
   <g id="patch_4">
    <path clip-path="url(#p136651e1d1)" d="M 211.624878 132.63756 
L 211.477236 132.085712 
L 211.034435 131.569339 
L 210.303693 131.122174 
L 209.296964 130.773393 
L 208.030745 130.545709 
L 206.525804 130.453889 
L 204.806844 130.503788 
L 202.902095 130.691971 
L 200.842852 131.005939 
L 198.66296 131.42495 
L 196.398255 131.921379 
L 194.085972 132.462528 
L 191.764135 133.01277 
L 189.470923 133.535883 
L 187.244043 133.99742 
L 185.120107 134.36697 
L 183.134027 134.620149 
L 181.318441 134.740199 
L 179.703172 134.719085 
L 178.314741 134.558028 
L 177.175931 134.267423 
L 176.305412 133.866167 
L 175.717438 133.380418 
L 175.421616 132.84189 
L 175.422748 132.285779 
L 175.720762 131.74846 
L 176.310709 131.265109 
L 177.182855 130.867402 
L 178.322839 130.581438 
L 179.711914 130.426038 
L 181.327256 130.411503 
L 183.142338 130.538946 
L 185.127371 130.800212 
L 187.249784 131.17841 
L 189.474766 131.649013 
L 191.765828 132.181461 
L 194.085405 132.741156 
L 196.395464 133.291718 
L 198.658129 133.797367 
L 200.836296 134.225253 
L 202.894243 134.547606 
L 204.79821 134.743545 
L 206.516953 134.800445 
L 208.022255 134.714755 
L 209.289391 134.49223 
L 210.297531 134.147552 
L 211.030089 133.703367 
L 211.47499 133.188802 
z
" style="fill:#0000ff;stroke:#000000;stroke-linejoin:miter;"/>
   </g>
   <g id="patch_5">
    <path clip-path="url(#p136651e1d1)" d="M 265.984765 132.748262 
L 265.837123 132.196414 
L 265.394322 131.680042 
L 264.66358 131.232877 
L 263.656851 130.884095 
L 262.390632 130.656411 
L 260.885692 130.564591 
L 259.166731 130.61449 
L 257.261982 130.802673 
L 255.202739 131.116641 
L 253.022847 131.535652 
L 250.758142 132.032081 
L 248.44586 132.57323 
L 246.124022 133.123473 
L 243.83081 133.646585 
L 241.60393 134.108122 
L 239.479994 134.477672 
L 237.493914 134.730852 
L 235.678328 134.850901 
L 234.063059 134.829787 
L 232.674628 134.66873 
L 231.535818 134.378126 
L 230.665299 133.97687 
L 230.077326 133.49112 
L 229.781503 132.952592 
L 229.782636 132.396481 
L 230.080649 131.859162 
L 230.670596 131.375812 
L 231.542742 130.978104 
L 232.682727 130.692141 
L 234.071802 130.53674 
L 235.687143 130.522205 
L 237.502226 130.649649 
L 239.487258 130.910915 
L 241.609671 131.289112 
L 243.834653 131.759716 
L 246.125715 132.292164 
L 248.445292 132.851858 
L 250.755351 133.402421 
L 253.018016 133.90807 
L 255.196183 134.335956 
L 257.25413 134.658308 
L 259.158097 134.854248 
L 260.87684 134.911148 
L 262.382142 134.825458 
L 263.649278 134.602933 
L 264.657419 134.258255 
L 265.389976 133.81407 
L 265.834877 133.299505 
z
" style="fill:#0000ff;stroke:#000000;stroke-linejoin:miter;"/>
   </g>
   <g id="patch_6">
    <path clip-path="url(#p136651e1d1)" d="M 253.284186 140.876415 
L 188.052321 140.743572 
L 188.041251 146.179561 
L 253.273116 146.312404 
z
" style="fill:#999999;stroke:#000000;stroke-linejoin:miter;"/>
   </g>
   <g id="text_1">
    <!-- t = 2.1 -->
    <defs>
     <path d="M 18.3125 70.21875 
L 18.3125 54.6875 
L 36.8125 54.6875 
L 36.8125 47.703125 
L 18.3125 47.703125 
L 18.3125 18.015625 
Q 18.3125 11.328125 20.140625 9.421875 
Q 21.96875 7.515625 27.59375 7.515625 
L 36.8125 7.515625 
L 36.8125 0 
L 27.59375 0 
Q 17.1875 0 13.234375 3.875 
Q 9.28125 7.765625 9.28125 18.015625 
L 9.28125 47.703125 
L 2.6875 47.703125 
L 2.6875 54.6875 
L 9.28125 54.6875 
L 9.28125 70.21875 
z
" id="DejaVuSans-116"/>
     <path id="DejaVuSans-32"/>
     <path d="M 10.59375 45.40625 
L 73.1875 45.40625 
L 73.1875 37.203125 
L 10.59375 37.203125 
z
M 10.59375 25.484375 
L 73.1875 25.484375 
L 73.1875 17.1875 
L 10.59375 17.1875 
z
" id="DejaVuSans-61"/>
     <path d="M 19.1875 8.296875 
L 53.609375 8.296875 
L 53.609375 0 
L 7.328125 0 
L 7.328125 8.296875 
Q 12.9375 14.109375 22.625 23.890625 
Q 32.328125 33.6875 34.8125 36.53125 
Q 39.546875 41.84375 41.421875 45.53125 
Q 43.3125 49.21875 43.3125 52.78125 
Q 43.3125 58.59375 39.234375 62.25 
Q 35.15625 65.921875 28.609375 65.921875 
Q 23.96875 65.921875 18.8125 64.3125 
Q 13.671875 62.703125 7.8125 59.421875 
L 7.8125 69.390625 
Q 13.765625 71.78125 18.9375 73 
Q 24.125 74.21875 28.421875 74.21875 
Q 39.75 74.21875 46.484375 68.546875 
Q 53.21875 62.890625 53.21875 53.421875 
Q 53.21875 48.921875 51.53125 44.890625 
Q 49.859375 40.875 45.40625 35.40625 
Q 44.1875 33.984375 37.640625 27.21875 
Q 31.109375 20.453125 19.1875 8.296875 
z
" id="DejaVuSans-50"/>
     <path d="M 10.6875 12.40625 
L 21 12.40625 
L 21 0 
L 10.6875 0 
z
" id="DejaVuSans-46"/>
     <path d="M 12.40625 8.296875 
L 28.515625 8.296875 
L 28.515625 63.921875 
L 10.984375 60.40625 
L 10.984375 69.390625 
L 28.421875 72.90625 
L 38.28125 72.90625 
L 38.28125 8.296875 
L 54.390625 8.296875 
L 54.390625 0 
L 12.40625 0 
z
" id="DejaVuSans-49"/>
    </defs>
    <g transform="translate(200.664375 28.56)scale(0.12 -0.12)">
     <use xlink:href="#DejaVuSans-116"/>
     <use x="39.208984" xlink:href="#DejaVuSans-32"/>
     <use x="70.996094" xlink:href="#DejaVuSans-61"/>
     <use x="154.785156" xlink:href="#DejaVuSans-32"/>
     <use x="186.572266" xlink:href="#DejaVuSans-50"/>
     <use x="250.195312" xlink:href="#DejaVuSans-46"/>
     <use x="281.982422" xlink:href="#DejaVuSans-49"/>
    </g>
   </g>
  </g>
 </g>
 <defs>
  <clipPath id="p136651e1d1">
   <rect height="217.44" width="334.8" x="54" y="34.56"/>
  </clipPath>
 </defs>
</svg>
