<?xml version="1.0" encoding="utf-8" standalone="no"?>
<!DOCTYPE svg PUBLIC "-//W3C//DTD SVG 1.1//EN"
  "http://www.w3.org/Graphics/SVG/1.1/DTD/svg11.dtd">
<!-- Created with matplotlib (https://matplotlib.org/) -->
<svg height="288pt" version="1.1" viewBox="0 0 432 288" width="432pt" xmlns="http://www.w3.org/2000/svg" xmlns:xlink="http://www.w3.org/1999/xlink">
 <defs>
  <style type="text/css">
*{stroke-linecap:butt;stroke-linejoin:round;}
  </style>
 </defs>
 <g id="figure_1">
  <g id="patch_1">
   <path d="M 0 288 
L 432 288 
L 432 0 
L 0 0 
z
" style="fill:#ffffff;"/>
  </g>
  <g id="axes_1">
   <g id="patch_2">
    <path clip-path="url(#pdc7f9ddf3e)" d="M 194.811304 132.392971 
L 194.79961 143.264965 
L 193.712411 143.263796 
L 193.724105 132.391802 
z
" style="stroke:#000000;stroke-linejoin:miter;"/>
   </g>
   <g id="patch_3">
    <path clip-path="url(#pdc7f9ddf3e)" d="M 249.171273 132.451442 
L 249.159579 143.323435 
L 248.07238 143.322266 
L 248.084074 132.450272 
z
" style="stroke:#000000;stroke-linejoin:miter;"/>
   </g>
   <g id="patch_4">
    <path clip-path="url(#pdc7f9ddf3e)" d="M 212.387694 132.411877 
L 212.239523 131.86017 
L 211.796225 131.344224 
L 211.065054 130.897761 
L 210.057991 130.549947 
L 208.791553 130.32348 
L 207.286525 130.233106 
L 205.567614 130.284656 
L 203.663046 130.47467 
L 201.604106 130.790616 
L 199.424618 131.211722 
L 197.16039 131.710326 
L 194.848629 132.253697 
L 192.527321 132.80617 
L 190.234613 133.331486 
L 188.008178 133.795162 
L 185.884598 134.166753 
L 183.898762 134.421841 
L 182.083292 134.543634 
L 180.468003 134.524073 
L 179.079418 134.36435 
L 177.94033 134.07484 
L 177.069426 133.67442 
L 176.480985 133.189236 
L 176.184646 132.650992 
L 176.185244 132.094881 
L 176.482741 131.557276 
L 177.072223 131.073359 
L 177.943987 130.674813 
L 179.083696 130.387755 
L 180.472621 130.231019 
L 182.087948 130.214932 
L 183.903152 130.340631 
L 185.888434 130.59999 
L 188.01121 130.976148 
L 190.236643 131.444613 
L 192.528216 131.97486 
L 194.848329 132.532326 
L 197.158916 133.080668 
L 199.422066 133.584142 
L 201.600643 134.009935 
L 203.658899 134.330311 
L 205.563053 134.524421 
L 207.28185 134.579669 
L 208.787069 134.492532 
L 210.053991 134.26879 
L 211.0618 133.923144 
L 211.79393 133.478255 
L 212.238336 132.963263 
z
" style="fill:#0000ff;stroke:#000000;stroke-linejoin:miter;"/>
   </g>
   <g id="patch_5">
    <path clip-path="url(#pdc7f9ddf3e)" d="M 266.747663 132.470347 
L 266.599491 131.918641 
L 266.156194 131.402694 
L 265.425022 130.956231 
L 264.417959 130.608418 
L 263.151522 130.38195 
L 261.646494 130.291576 
L 259.927582 130.343127 
L 258.023015 130.53314 
L 255.964075 130.849087 
L 253.784586 131.270192 
L 251.520359 131.768797 
L 249.208597 132.312167 
L 246.88729 132.86464 
L 244.594582 133.389956 
L 242.368146 133.853633 
L 240.244566 134.225223 
L 238.258731 134.480311 
L 236.44326 134.602105 
L 234.827972 134.582543 
L 233.439387 134.42282 
L 232.300298 134.13331 
L 231.429394 133.73289 
L 230.840954 133.247706 
L 230.544614 132.709463 
L 230.545212 132.153351 
L 230.842709 131.615746 
L 231.432192 131.131829 
L 232.303955 130.733284 
L 233.443664 130.446225 
L 234.832589 130.289489 
L 236.447916 130.273403 
L 238.26312 130.399102 
L 240.248403 130.65846 
L 242.371178 131.034619 
L 244.596611 131.503084 
L 246.888184 132.03333 
L 249.208298 132.590796 
L 251.518885 133.139138 
L 253.782034 133.642613 
L 255.960612 134.068406 
L 258.018868 134.388781 
L 259.923022 134.582891 
L 261.641818 134.638139 
L 263.147038 134.551003 
L 264.413959 134.32726 
L 265.421768 133.981614 
L 266.153898 133.536725 
L 266.598305 133.021733 
z
" style="fill:#0000ff;stroke:#000000;stroke-linejoin:miter;"/>
   </g>
   <g id="patch_6">
    <path clip-path="url(#pdc7f9ddf3e)" d="M 254.0549 140.610699 
L 188.822937 140.540535 
L 188.81709 145.976532 
L 254.049053 146.046696 
z
" style="fill:#999999;stroke:#000000;stroke-linejoin:miter;"/>
   </g>
   <g id="text_1">
    <!-- t = 2.8 -->
    <defs>
     <path d="M 18.3125 70.21875 
L 18.3125 54.6875 
L 36.8125 54.6875 
L 36.8125 47.703125 
L 18.3125 47.703125 
L 18.3125 18.015625 
Q 18.3125 11.328125 20.140625 9.421875 
Q 21.96875 7.515625 27.59375 7.515625 
L 36.8125 7.515625 
L 36.8125 0 
L 27.59375 0 
Q 17.1875 0 13.234375 3.875 
Q 9.28125 7.765625 9.28125 18.015625 
L 9.28125 47.703125 
L 2.6875 47.703125 
L 2.6875 54.6875 
L 9.28125 54.6875 
L 9.28125 70.21875 
z
" id="DejaVuSans-116"/>
     <path id="DejaVuSans-32"/>
     <path d="M 10.59375 45.40625 
L 73.1875 45.40625 
L 73.1875 37.203125 
L 10.59375 37.203125 
z
M 10.59375 25.484375 
L 73.1875 25.484375 
L 73.1875 17.1875 
L 10.59375 17.1875 
z
" id="DejaVuSans-61"/>
     <path d="M 19.1875 8.296875 
L 53.609375 8.296875 
L 53.609375 0 
L 7.328125 0 
L 7.328125 8.296875 
Q 12.9375 14.109375 22.625 23.890625 
Q 32.328125 33.6875 34.8125 36.53125 
Q 39.546875 41.84375 41.421875 45.53125 
Q 43.3125 49.21875 43.3125 52.78125 
Q 43.3125 58.59375 39.234375 62.25 
Q 35.15625 65.921875 28.609375 65.921875 
Q 23.96875 65.921875 18.8125 64.3125 
Q 13.671875 62.703125 7.8125 59.421875 
L 7.8125 69.390625 
Q 13.765625 71.78125 18.9375 73 
Q 24.125 74.21875 28.421875 74.21875 
Q 39.75 74.21875 46.484375 68.546875 
Q 53.21875 62.890625 53.21875 53.421875 
Q 53.21875 48.921875 51.53125 44.890625 
Q 49.859375 40.875 45.40625 35.40625 
Q 44.1875 33.984375 37.640625 27.21875 
Q 31.109375 20.453125 19.1875 8.296875 
z
" id="DejaVuSans-50"/>
     <path d="M 10.6875 12.40625 
L 21 12.40625 
L 21 0 
L 10.6875 0 
z
" id="DejaVuSans-46"/>
     <path d="M 31.78125 34.625 
Q 24.75 34.625 20.71875 30.859375 
Q 16.703125 27.09375 16.703125 20.515625 
Q 16.703125 13.921875 20.71875 10.15625 
Q 24.75 6.390625 31.78125 6.390625 
Q 38.8125 6.390625 42.859375 10.171875 
Q 46.921875 13.96875 46.921875 20.515625 
Q 46.921875 27.09375 42.890625 30.859375 
Q 38.875 34.625 31.78125 34.625 
z
M 21.921875 38.8125 
Q 15.578125 40.375 12.03125 44.71875 
Q 8.5 49.078125 8.5 55.328125 
Q 8.5 64.0625 14.71875 69.140625 
Q 20.953125 74.21875 31.78125 74.21875 
Q 42.671875 74.21875 48.875 69.140625 
Q 55.078125 64.0625 55.078125 55.328125 
Q 55.078125 49.078125 51.53125 44.71875 
Q 48 40.375 41.703125 38.8125 
Q 48.828125 37.15625 52.796875 32.3125 
Q 56.78125 27.484375 56.78125 20.515625 
Q 56.78125 9.90625 50.3125 4.234375 
Q 43.84375 -1.421875 31.78125 -1.421875 
Q 19.734375 -1.421875 13.25 4.234375 
Q 6.78125 9.90625 6.78125 20.515625 
Q 6.78125 27.484375 10.78125 32.3125 
Q 14.796875 37.15625 21.921875 38.8125 
z
M 18.3125 54.390625 
Q 18.3125 48.734375 21.84375 45.5625 
Q 25.390625 42.390625 31.78125 42.390625 
Q 38.140625 42.390625 41.71875 45.5625 
Q 45.3125 48.734375 45.3125 54.390625 
Q 45.3125 60.0625 41.71875 63.234375 
Q 38.140625 66.40625 31.78125 66.40625 
Q 25.390625 66.40625 21.84375 63.234375 
Q 18.3125 60.0625 18.3125 54.390625 
z
" id="DejaVuSans-56"/>
    </defs>
    <g transform="translate(200.664375 28.56)scale(0.12 -0.12)">
     <use xlink:href="#DejaVuSans-116"/>
     <use x="39.208984" xlink:href="#DejaVuSans-32"/>
     <use x="70.996094" xlink:href="#DejaVuSans-61"/>
     <use x="154.785156" xlink:href="#DejaVuSans-32"/>
     <use x="186.572266" xlink:href="#DejaVuSans-50"/>
     <use x="250.195312" xlink:href="#DejaVuSans-46"/>
     <use x="281.982422" xlink:href="#DejaVuSans-56"/>
    </g>
   </g>
  </g>
 </g>
 <defs>
  <clipPath id="pdc7f9ddf3e">
   <rect height="217.44" width="334.8" x="54" y="34.56"/>
  </clipPath>
 </defs>
</svg>
