<?xml version="1.0" encoding="utf-8" standalone="no"?>
<!DOCTYPE svg PUBLIC "-//W3C//DTD SVG 1.1//EN"
  "http://www.w3.org/Graphics/SVG/1.1/DTD/svg11.dtd">
<!-- Created with matplotlib (https://matplotlib.org/) -->
<svg height="288pt" version="1.1" viewBox="0 0 432 288" width="432pt" xmlns="http://www.w3.org/2000/svg" xmlns:xlink="http://www.w3.org/1999/xlink">
 <defs>
  <style type="text/css">
*{stroke-linecap:butt;stroke-linejoin:round;}
  </style>
 </defs>
 <g id="figure_1">
  <g id="patch_1">
   <path d="M 0 288 
L 432 288 
L 432 0 
L 0 0 
z
" style="fill:#ffffff;"/>
  </g>
  <g id="axes_1">
   <g id="patch_2">
    <path clip-path="url(#pd99da5191b)" d="M 210.462012 128.073218 
L 209.129463 138.863245 
L 208.05046 138.72999 
L 209.383009 127.939963 
z
" style="stroke:#000000;stroke-linejoin:miter;"/>
   </g>
   <g id="patch_3">
    <path clip-path="url(#pd99da5191b)" d="M 264.41215 134.735964 
L 263.079601 145.525992 
L 262.000598 145.392737 
L 263.333147 134.602709 
z
" style="stroke:#000000;stroke-linejoin:miter;"/>
   </g>
   <g id="patch_4">
    <path clip-path="url(#pd99da5191b)" d="M 227.90589 130.227506 
L 227.825848 129.661884 
L 227.448522 129.095899 
L 226.777013 128.563907 
L 225.819669 128.096313 
L 224.59013 127.717652 
L 223.107233 127.445087 
L 221.394792 127.287409 
L 219.481248 127.24461 
L 217.399174 127.308056 
L 215.184669 127.461235 
L 212.876636 127.681043 
L 210.515982 127.93951 
L 208.144747 128.205853 
L 205.805198 128.448714 
L 203.538921 128.638444 
L 201.385925 128.749268 
L 199.383809 128.761188 
L 197.56699 128.6615 
L 195.966045 128.445827 
L 194.607154 128.118575 
L 193.51168 127.692811 
L 192.695879 127.189543 
L 192.170748 126.636459 
L 191.942 126.066198 
L 192.010161 125.514278 
L 192.370772 125.016802 
L 193.014683 124.608092 
L 193.928412 124.318418 
L 195.094554 124.17196 
L 196.492233 124.185139 
L 198.097547 124.365433 
L 199.884031 124.710747 
L 201.823093 125.209396 
L 203.884439 125.840683 
L 206.036467 126.576067 
L 208.246638 127.38081 
L 210.481831 128.216038 
L 212.708677 129.041053 
L 214.893888 129.815769 
L 217.004592 130.503104 
L 219.008673 131.071183 
L 220.875136 131.495208 
L 222.574487 131.75888 
L 224.079141 131.855273 
L 225.363862 131.787118 
L 226.4062 131.566481 
L 227.18696 131.213842 
L 227.690645 130.75666 
z
" style="fill:#0000ff;stroke:#000000;stroke-linejoin:miter;"/>
   </g>
   <g id="patch_5">
    <path clip-path="url(#pd99da5191b)" d="M 281.856028 136.890252 
L 281.775986 136.324631 
L 281.39866 135.758646 
L 280.727151 135.226654 
L 279.769808 134.759059 
L 278.540268 134.380398 
L 277.057371 134.107833 
L 275.34493 133.950155 
L 273.431387 133.907357 
L 271.349313 133.970803 
L 269.134807 134.123981 
L 266.826774 134.34379 
L 264.46612 134.602257 
L 262.094885 134.868599 
L 259.755336 135.11146 
L 257.489059 135.301191 
L 255.336063 135.412015 
L 253.333947 135.423934 
L 251.517129 135.324247 
L 249.916184 135.108574 
L 248.557293 134.781322 
L 247.461818 134.355558 
L 246.646017 133.85229 
L 246.120886 133.299205 
L 245.892138 132.728944 
L 245.960299 132.177025 
L 246.32091 131.679549 
L 246.964822 131.270838 
L 247.87855 130.981165 
L 249.044692 130.834707 
L 250.442371 130.847886 
L 252.047685 131.02818 
L 253.834169 131.373494 
L 255.773231 131.872142 
L 257.834577 132.50343 
L 259.986605 133.238813 
L 262.196776 134.043557 
L 264.431969 134.878785 
L 266.658815 135.7038 
L 268.844026 136.478516 
L 270.95473 137.165851 
L 272.958812 137.733929 
L 274.825275 138.157955 
L 276.524625 138.421627 
L 278.02928 138.518019 
L 279.314 138.449865 
L 280.356338 138.229228 
L 281.137098 137.876588 
L 281.640783 137.419407 
z
" style="fill:#0000ff;stroke:#000000;stroke-linejoin:miter;"/>
   </g>
   <g id="patch_6">
    <path clip-path="url(#pd99da5191b)" d="M 268.268251 143.428132 
L 203.528085 135.432836 
L 202.86181 140.82785 
L 267.601976 148.823146 
z
" style="fill:#999999;stroke:#000000;stroke-linejoin:miter;"/>
   </g>
   <g id="text_1">
    <!-- t = 1.2 -->
    <defs>
     <path d="M 18.3125 70.21875 
L 18.3125 54.6875 
L 36.8125 54.6875 
L 36.8125 47.703125 
L 18.3125 47.703125 
L 18.3125 18.015625 
Q 18.3125 11.328125 20.140625 9.421875 
Q 21.96875 7.515625 27.59375 7.515625 
L 36.8125 7.515625 
L 36.8125 0 
L 27.59375 0 
Q 17.1875 0 13.234375 3.875 
Q 9.28125 7.765625 9.28125 18.015625 
L 9.28125 47.703125 
L 2.6875 47.703125 
L 2.6875 54.6875 
L 9.28125 54.6875 
L 9.28125 70.21875 
z
" id="DejaVuSans-116"/>
     <path id="DejaVuSans-32"/>
     <path d="M 10.59375 45.40625 
L 73.1875 45.40625 
L 73.1875 37.203125 
L 10.59375 37.203125 
z
M 10.59375 25.484375 
L 73.1875 25.484375 
L 73.1875 17.1875 
L 10.59375 17.1875 
z
" id="DejaVuSans-61"/>
     <path d="M 12.40625 8.296875 
L 28.515625 8.296875 
L 28.515625 63.921875 
L 10.984375 60.40625 
L 10.984375 69.390625 
L 28.421875 72.90625 
L 38.28125 72.90625 
L 38.28125 8.296875 
L 54.390625 8.296875 
L 54.390625 0 
L 12.40625 0 
z
" id="DejaVuSans-49"/>
     <path d="M 10.6875 12.40625 
L 21 12.40625 
L 21 0 
L 10.6875 0 
z
" id="DejaVuSans-46"/>
     <path d="M 19.1875 8.296875 
L 53.609375 8.296875 
L 53.609375 0 
L 7.328125 0 
L 7.328125 8.296875 
Q 12.9375 14.109375 22.625 23.890625 
Q 32.328125 33.6875 34.8125 36.53125 
Q 39.546875 41.84375 41.421875 45.53125 
Q 43.3125 49.21875 43.3125 52.78125 
Q 43.3125 58.59375 39.234375 62.25 
Q 35.15625 65.921875 28.609375 65.921875 
Q 23.96875 65.921875 18.8125 64.3125 
Q 13.671875 62.703125 7.8125 59.421875 
L 7.8125 69.390625 
Q 13.765625 71.78125 18.9375 73 
Q 24.125 74.21875 28.421875 74.21875 
Q 39.75 74.21875 46.484375 68.546875 
Q 53.21875 62.890625 53.21875 53.421875 
Q 53.21875 48.921875 51.53125 44.890625 
Q 49.859375 40.875 45.40625 35.40625 
Q 44.1875 33.984375 37.640625 27.21875 
Q 31.109375 20.453125 19.1875 8.296875 
z
" id="DejaVuSans-50"/>
    </defs>
    <g transform="translate(200.664375 28.56)scale(0.12 -0.12)">
     <use xlink:href="#DejaVuSans-116"/>
     <use x="39.208984" xlink:href="#DejaVuSans-32"/>
     <use x="70.996094" xlink:href="#DejaVuSans-61"/>
     <use x="154.785156" xlink:href="#DejaVuSans-32"/>
     <use x="186.572266" xlink:href="#DejaVuSans-49"/>
     <use x="250.195312" xlink:href="#DejaVuSans-46"/>
     <use x="281.982422" xlink:href="#DejaVuSans-50"/>
    </g>
   </g>
  </g>
 </g>
 <defs>
  <clipPath id="pd99da5191b">
   <rect height="217.44" width="334.8" x="54" y="34.56"/>
  </clipPath>
 </defs>
</svg>
