<?xml version="1.0" encoding="utf-8" standalone="no"?>
<!DOCTYPE svg PUBLIC "-//W3C//DTD SVG 1.1//EN"
  "http://www.w3.org/Graphics/SVG/1.1/DTD/svg11.dtd">
<!-- Created with matplotlib (https://matplotlib.org/) -->
<svg height="288pt" version="1.1" viewBox="0 0 432 288" width="432pt" xmlns="http://www.w3.org/2000/svg" xmlns:xlink="http://www.w3.org/1999/xlink">
 <defs>
  <style type="text/css">
*{stroke-linecap:butt;stroke-linejoin:round;}
  </style>
 </defs>
 <g id="figure_1">
  <g id="patch_1">
   <path d="M 0 288 
L 432 288 
L 432 0 
L 0 0 
z
" style="fill:#ffffff;"/>
  </g>
  <g id="axes_1">
   <g id="patch_2">
    <path clip-path="url(#p02e31daa0a)" d="M 194.27977 132.833607 
L 194.086554 143.70389 
L 192.999525 143.684568 
L 193.192741 132.814285 
z
" style="stroke:#000000;stroke-linejoin:miter;"/>
   </g>
   <g id="patch_3">
    <path clip-path="url(#p02e31daa0a)" d="M 248.631184 133.799686 
L 248.437969 144.669969 
L 247.35094 144.650647 
L 247.544156 133.780364 
z
" style="stroke:#000000;stroke-linejoin:miter;"/>
   </g>
   <g id="patch_4">
    <path clip-path="url(#p02e31daa0a)" d="M 211.853394 133.145972 
L 211.714454 132.591869 
L 211.279833 132.068593 
L 210.556218 131.609984 
L 209.555102 131.245405 
L 208.292623 130.997824 
L 206.789313 130.882334 
L 205.069781 130.905178 
L 203.162306 131.063365 
L 201.098378 131.344891 
L 198.912162 131.729548 
L 196.639926 132.190278 
L 194.319414 132.694975 
L 191.989206 133.208614 
L 189.688046 133.695576 
L 187.454179 134.122014 
L 185.324691 134.458097 
L 183.334873 134.679993 
L 181.517623 134.771458 
L 179.902886 134.724929 
L 178.517162 134.542044 
L 177.383065 134.233556 
L 176.518968 133.818651 
L 175.938711 133.32371 
L 175.651399 132.780593 
L 175.661282 132.224569 
L 175.967714 131.692006 
L 176.565194 131.217999 
L 177.44349 130.834064 
L 178.587833 130.566075 
L 179.979182 130.432551 
L 181.594552 130.443437 
L 183.407404 130.599426 
L 185.388079 130.891895 
L 187.504279 131.303444 
L 189.72158 131.809 
L 192.00398 132.377434 
L 194.314462 132.97356 
L 196.615572 133.560404 
L 198.87 134.101595 
L 201.041165 134.563703 
L 203.093784 134.918399 
L 204.994432 135.144275 
L 206.712067 135.228213 
L 208.218531 135.16622 
L 209.489011 134.963662 
L 210.502451 134.634891 
L 211.241907 134.202288 
L 211.69485 133.694788 
z
" style="fill:#0000ff;stroke:#000000;stroke-linejoin:miter;"/>
   </g>
   <g id="patch_5">
    <path clip-path="url(#p02e31daa0a)" d="M 266.204809 134.112051 
L 266.065869 133.557948 
L 265.631248 133.034672 
L 264.907633 132.576063 
L 263.906517 132.211484 
L 262.644038 131.963903 
L 261.140728 131.848413 
L 259.421196 131.871257 
L 257.513721 132.029444 
L 255.449793 132.31097 
L 253.263577 132.695627 
L 250.99134 133.156357 
L 248.670829 133.661054 
L 246.340621 134.174693 
L 244.039461 134.661655 
L 241.805594 135.088094 
L 239.676106 135.424176 
L 237.686288 135.646072 
L 235.869037 135.737537 
L 234.254301 135.691008 
L 232.868576 135.508123 
L 231.73448 135.199635 
L 230.870383 134.78473 
L 230.290126 134.289789 
L 230.002814 133.746672 
L 230.012697 133.190648 
L 230.319129 132.658085 
L 230.916609 132.184078 
L 231.794905 131.800143 
L 232.939248 131.532154 
L 234.330596 131.39863 
L 235.945967 131.409516 
L 237.758819 131.565505 
L 239.739494 131.857975 
L 241.855693 132.269523 
L 244.072994 132.77508 
L 246.355395 133.343513 
L 248.665877 133.939639 
L 250.966987 134.526484 
L 253.221415 135.067674 
L 255.392579 135.529782 
L 257.445199 135.884478 
L 259.345847 136.110354 
L 261.063481 136.194292 
L 262.569946 136.1323 
L 263.840426 135.929741 
L 264.853866 135.60097 
L 265.593322 135.168367 
L 266.046265 134.660867 
z
" style="fill:#0000ff;stroke:#000000;stroke-linejoin:miter;"/>
   </g>
   <g id="patch_6">
    <path clip-path="url(#p02e31daa0a)" d="M 253.3779 142.039345 
L 188.156202 140.88005 
L 188.059594 146.315192 
L 253.281292 147.474487 
z
" style="fill:#999999;stroke:#000000;stroke-linejoin:miter;"/>
   </g>
   <g id="text_1">
    <!-- t = 1.7 -->
    <defs>
     <path d="M 18.3125 70.21875 
L 18.3125 54.6875 
L 36.8125 54.6875 
L 36.8125 47.703125 
L 18.3125 47.703125 
L 18.3125 18.015625 
Q 18.3125 11.328125 20.140625 9.421875 
Q 21.96875 7.515625 27.59375 7.515625 
L 36.8125 7.515625 
L 36.8125 0 
L 27.59375 0 
Q 17.1875 0 13.234375 3.875 
Q 9.28125 7.765625 9.28125 18.015625 
L 9.28125 47.703125 
L 2.6875 47.703125 
L 2.6875 54.6875 
L 9.28125 54.6875 
L 9.28125 70.21875 
z
" id="DejaVuSans-116"/>
     <path id="DejaVuSans-32"/>
     <path d="M 10.59375 45.40625 
L 73.1875 45.40625 
L 73.1875 37.203125 
L 10.59375 37.203125 
z
M 10.59375 25.484375 
L 73.1875 25.484375 
L 73.1875 17.1875 
L 10.59375 17.1875 
z
" id="DejaVuSans-61"/>
     <path d="M 12.40625 8.296875 
L 28.515625 8.296875 
L 28.515625 63.921875 
L 10.984375 60.40625 
L 10.984375 69.390625 
L 28.421875 72.90625 
L 38.28125 72.90625 
L 38.28125 8.296875 
L 54.390625 8.296875 
L 54.390625 0 
L 12.40625 0 
z
" id="DejaVuSans-49"/>
     <path d="M 10.6875 12.40625 
L 21 12.40625 
L 21 0 
L 10.6875 0 
z
" id="DejaVuSans-46"/>
     <path d="M 8.203125 72.90625 
L 55.078125 72.90625 
L 55.078125 68.703125 
L 28.609375 0 
L 18.3125 0 
L 43.21875 64.59375 
L 8.203125 64.59375 
z
" id="DejaVuSans-55"/>
    </defs>
    <g transform="translate(200.664375 28.56)scale(0.12 -0.12)">
     <use xlink:href="#DejaVuSans-116"/>
     <use x="39.208984" xlink:href="#DejaVuSans-32"/>
     <use x="70.996094" xlink:href="#DejaVuSans-61"/>
     <use x="154.785156" xlink:href="#DejaVuSans-32"/>
     <use x="186.572266" xlink:href="#DejaVuSans-49"/>
     <use x="250.195312" xlink:href="#DejaVuSans-46"/>
     <use x="281.982422" xlink:href="#DejaVuSans-55"/>
    </g>
   </g>
  </g>
 </g>
 <defs>
  <clipPath id="p02e31daa0a">
   <rect height="217.44" width="334.8" x="54" y="34.56"/>
  </clipPath>
 </defs>
</svg>
