<?xml version="1.0" encoding="utf-8" standalone="no"?>
<!DOCTYPE svg PUBLIC "-//W3C//DTD SVG 1.1//EN"
  "http://www.w3.org/Graphics/SVG/1.1/DTD/svg11.dtd">
<!-- Created with matplotlib (https://matplotlib.org/) -->
<svg height="288pt" version="1.1" viewBox="0 0 432 288" width="432pt" xmlns="http://www.w3.org/2000/svg" xmlns:xlink="http://www.w3.org/1999/xlink">
 <defs>
  <style type="text/css">
*{stroke-linecap:butt;stroke-linejoin:round;}
  </style>
 </defs>
 <g id="figure_1">
  <g id="patch_1">
   <path d="M 0 288 
L 432 288 
L 432 0 
L 0 0 
z
" style="fill:#ffffff;"/>
  </g>
  <g id="axes_1">
   <g id="patch_2">
    <path clip-path="url(#pd637ac5cba)" d="M 196.020275 135.5262 
L 196.509418 146.387191 
L 195.423319 146.436106 
L 194.934176 135.575115 
z
" style="stroke:#000000;stroke-linejoin:miter;"/>
   </g>
   <g id="patch_3">
    <path clip-path="url(#pd637ac5cba)" d="M 250.325229 133.080486 
L 250.814372 143.941476 
L 249.728273 143.990391 
L 249.23913 133.1294 
z
" style="stroke:#000000;stroke-linejoin:miter;"/>
   </g>
   <g id="patch_4">
    <path clip-path="url(#pd637ac5cba)" d="M 213.578877 134.735419 
L 213.405448 134.191124 
L 212.938854 133.696146 
L 212.187892 133.283839 
L 211.165875 132.982786 
L 209.89035 132.814898 
L 208.382757 132.79395 
L 206.668045 132.924628 
L 204.774252 133.202175 
L 202.732052 133.612632 
L 200.574276 134.13369 
L 198.33542 134.736068 
L 196.051144 135.385355 
L 193.757751 136.044174 
L 191.491675 136.674547 
L 189.288963 137.240293 
L 187.184755 137.709313 
L 185.212778 138.055608 
L 183.404845 138.260904 
L 181.790371 138.315772 
L 180.395902 138.220185 
L 179.244686 137.983455 
L 178.356261 137.623579 
L 177.746095 137.166017 
L 177.425276 136.641995 
L 177.400256 136.086446 
L 177.672672 135.535708 
L 178.239237 135.02515 
L 179.091715 134.586869 
L 180.216991 134.247614 
L 181.597221 134.027063 
L 183.210092 133.936582 
L 185.02916 133.97853 
L 187.024282 134.14616 
L 189.162132 134.424132 
L 191.406783 134.789584 
L 193.720349 135.213705 
L 196.06368 135.663701 
L 198.397074 136.105023 
L 200.681013 136.50371 
L 202.876893 136.828693 
L 204.947722 137.053914 
L 206.858796 137.160101 
L 208.578313 137.136114 
L 210.077921 136.979731 
L 211.33319 136.697865 
L 212.324007 136.30616 
L 213.034866 135.828018 
L 213.455077 135.2931 
z
" style="fill:#0000ff;stroke:#000000;stroke-linejoin:miter;"/>
   </g>
   <g id="patch_5">
    <path clip-path="url(#pd637ac5cba)" d="M 267.883831 132.289704 
L 267.710402 131.745409 
L 267.243808 131.250431 
L 266.492846 130.838124 
L 265.47083 130.537071 
L 264.195305 130.369183 
L 262.687711 130.348235 
L 260.972999 130.478913 
L 259.079207 130.75646 
L 257.037006 131.166917 
L 254.87923 131.687975 
L 252.640375 132.290353 
L 250.356098 132.93964 
L 248.062705 133.598459 
L 245.79663 134.228832 
L 243.593917 134.794578 
L 241.489709 135.263598 
L 239.517732 135.609894 
L 237.7098 135.815189 
L 236.095325 135.870057 
L 234.700857 135.77447 
L 233.549641 135.53774 
L 232.661216 135.177864 
L 232.05105 134.720302 
L 231.73023 134.196281 
L 231.70521 133.640731 
L 231.977626 133.089993 
L 232.544191 132.579435 
L 233.39667 132.141154 
L 234.521945 131.801899 
L 235.902176 131.581348 
L 237.515047 131.490867 
L 239.334114 131.532815 
L 241.329237 131.700445 
L 243.467087 131.978417 
L 245.711737 132.343869 
L 248.025304 132.76799 
L 250.368634 133.217986 
L 252.702028 133.659308 
L 254.985968 134.057995 
L 257.181847 134.382978 
L 259.252676 134.608199 
L 261.163751 134.714387 
L 262.883268 134.690399 
L 264.382875 134.534016 
L 265.638145 134.25215 
L 266.628962 133.860445 
L 267.339821 133.382303 
L 267.760032 132.847386 
z
" style="fill:#0000ff;stroke:#000000;stroke-linejoin:miter;"/>
   </g>
   <g id="patch_6">
    <path clip-path="url(#pd637ac5cba)" d="M 255.579532 141.006114 
L 190.413587 143.940972 
L 190.658159 149.371468 
L 255.824104 146.43661 
z
" style="fill:#999999;stroke:#000000;stroke-linejoin:miter;"/>
   </g>
   <g id="text_1">
    <!-- t = 1.6 -->
    <defs>
     <path d="M 18.3125 70.21875 
L 18.3125 54.6875 
L 36.8125 54.6875 
L 36.8125 47.703125 
L 18.3125 47.703125 
L 18.3125 18.015625 
Q 18.3125 11.328125 20.140625 9.421875 
Q 21.96875 7.515625 27.59375 7.515625 
L 36.8125 7.515625 
L 36.8125 0 
L 27.59375 0 
Q 17.1875 0 13.234375 3.875 
Q 9.28125 7.765625 9.28125 18.015625 
L 9.28125 47.703125 
L 2.6875 47.703125 
L 2.6875 54.6875 
L 9.28125 54.6875 
L 9.28125 70.21875 
z
" id="DejaVuSans-116"/>
     <path id="DejaVuSans-32"/>
     <path d="M 10.59375 45.40625 
L 73.1875 45.40625 
L 73.1875 37.203125 
L 10.59375 37.203125 
z
M 10.59375 25.484375 
L 73.1875 25.484375 
L 73.1875 17.1875 
L 10.59375 17.1875 
z
" id="DejaVuSans-61"/>
     <path d="M 12.40625 8.296875 
L 28.515625 8.296875 
L 28.515625 63.921875 
L 10.984375 60.40625 
L 10.984375 69.390625 
L 28.421875 72.90625 
L 38.28125 72.90625 
L 38.28125 8.296875 
L 54.390625 8.296875 
L 54.390625 0 
L 12.40625 0 
z
" id="DejaVuSans-49"/>
     <path d="M 10.6875 12.40625 
L 21 12.40625 
L 21 0 
L 10.6875 0 
z
" id="DejaVuSans-46"/>
     <path d="M 33.015625 40.375 
Q 26.375 40.375 22.484375 35.828125 
Q 18.609375 31.296875 18.609375 23.390625 
Q 18.609375 15.53125 22.484375 10.953125 
Q 26.375 6.390625 33.015625 6.390625 
Q 39.65625 6.390625 43.53125 10.953125 
Q 47.40625 15.53125 47.40625 23.390625 
Q 47.40625 31.296875 43.53125 35.828125 
Q 39.65625 40.375 33.015625 40.375 
z
M 52.59375 71.296875 
L 52.59375 62.3125 
Q 48.875 64.0625 45.09375 64.984375 
Q 41.3125 65.921875 37.59375 65.921875 
Q 27.828125 65.921875 22.671875 59.328125 
Q 17.53125 52.734375 16.796875 39.40625 
Q 19.671875 43.65625 24.015625 45.921875 
Q 28.375 48.1875 33.59375 48.1875 
Q 44.578125 48.1875 50.953125 41.515625 
Q 57.328125 34.859375 57.328125 23.390625 
Q 57.328125 12.15625 50.6875 5.359375 
Q 44.046875 -1.421875 33.015625 -1.421875 
Q 20.359375 -1.421875 13.671875 8.265625 
Q 6.984375 17.96875 6.984375 36.375 
Q 6.984375 53.65625 15.1875 63.9375 
Q 23.390625 74.21875 37.203125 74.21875 
Q 40.921875 74.21875 44.703125 73.484375 
Q 48.484375 72.75 52.59375 71.296875 
z
" id="DejaVuSans-54"/>
    </defs>
    <g transform="translate(200.664375 28.56)scale(0.12 -0.12)">
     <use xlink:href="#DejaVuSans-116"/>
     <use x="39.208984" xlink:href="#DejaVuSans-32"/>
     <use x="70.996094" xlink:href="#DejaVuSans-61"/>
     <use x="154.785156" xlink:href="#DejaVuSans-32"/>
     <use x="186.572266" xlink:href="#DejaVuSans-49"/>
     <use x="250.195312" xlink:href="#DejaVuSans-46"/>
     <use x="281.982422" xlink:href="#DejaVuSans-54"/>
    </g>
   </g>
  </g>
 </g>
 <defs>
  <clipPath id="pd637ac5cba">
   <rect height="217.44" width="334.8" x="54" y="34.56"/>
  </clipPath>
 </defs>
</svg>
