<?xml version="1.0" encoding="utf-8" standalone="no"?>
<!DOCTYPE svg PUBLIC "-//W3C//DTD SVG 1.1//EN"
  "http://www.w3.org/Graphics/SVG/1.1/DTD/svg11.dtd">
<!-- Created with matplotlib (https://matplotlib.org/) -->
<svg height="288pt" version="1.1" viewBox="0 0 432 288" width="432pt" xmlns="http://www.w3.org/2000/svg" xmlns:xlink="http://www.w3.org/1999/xlink">
 <defs>
  <style type="text/css">
*{stroke-linecap:butt;stroke-linejoin:round;}
  </style>
 </defs>
 <g id="figure_1">
  <g id="patch_1">
   <path d="M 0 288 
L 432 288 
L 432 0 
L 0 0 
z
" style="fill:#ffffff;"/>
  </g>
  <g id="axes_1">
   <g id="patch_2">
    <path clip-path="url(#p087ddb38af)" d="M 184.071817 140.594657 
L 185.040012 151.42346 
L 183.957131 151.520279 
L 182.988937 140.691476 
z
" style="stroke:#000000;stroke-linejoin:miter;"/>
   </g>
   <g id="patch_3">
    <path clip-path="url(#p087ddb38af)" d="M 238.215834 135.753683 
L 239.184029 146.582486 
L 238.101148 146.679306 
L 237.132954 135.850502 
z
" style="stroke:#000000;stroke-linejoin:miter;"/>
   </g>
   <g id="patch_4">
    <path clip-path="url(#p087ddb38af)" d="M 201.578382 139.029408 
L 201.381091 138.493301 
L 200.893098 138.019406 
L 200.124664 137.640658 
L 199.090353 137.385021 
L 197.808659 137.273614 
L 196.30161 137.319248 
L 194.59434 137.525506 
L 192.714649 137.886396 
L 190.692562 138.386619 
L 188.559895 139.002438 
L 186.349819 139.703078 
L 184.096437 140.452585 
L 181.834368 141.212018 
L 179.598334 141.941827 
L 177.422749 142.604275 
L 175.3413 143.165742 
L 173.386536 143.598765 
L 171.589431 143.883683 
L 169.978953 144.009779 
L 168.581624 143.975853 
L 167.421079 143.790182 
L 166.517631 143.469882 
L 165.887858 143.039705 
L 165.544215 142.53036 
L 165.494691 141.976457 
L 165.742525 141.414228 
L 166.285996 140.879153 
L 167.118293 140.403662 
L 168.227492 140.015055 
L 169.596639 139.73378 
L 171.203942 139.572177 
L 173.023088 139.533769 
L 175.023666 139.613148 
L 177.171704 139.79646 
L 179.430301 140.062451 
L 181.760337 140.384011 
L 184.12125 140.730107 
L 186.471854 141.067976 
L 188.771169 141.365434 
L 190.979255 141.593149 
L 193.058009 141.72672 
L 194.971908 141.748428 
L 196.688689 141.648544 
L 198.17993 141.426104 
L 199.421531 141.089091 
L 200.394087 140.654022 
L 201.083142 140.14496 
L 201.479326 139.592012 
z
" style="fill:#0000ff;stroke:#000000;stroke-linejoin:miter;"/>
   </g>
   <g id="patch_5">
    <path clip-path="url(#p087ddb38af)" d="M 255.722399 134.188435 
L 255.525108 133.652328 
L 255.037115 133.178433 
L 254.268681 132.799684 
L 253.23437 132.544048 
L 251.952676 132.43264 
L 250.445627 132.478275 
L 248.738357 132.684533 
L 246.858666 133.045422 
L 244.836579 133.545646 
L 242.703912 134.161464 
L 240.493836 134.862104 
L 238.240454 135.611612 
L 235.978385 136.371045 
L 233.742351 137.100854 
L 231.566766 137.763301 
L 229.485317 138.324768 
L 227.530553 138.757791 
L 225.733448 139.042709 
L 224.12297 139.168805 
L 222.725641 139.134879 
L 221.565096 138.949208 
L 220.661648 138.628908 
L 220.031875 138.198732 
L 219.688232 137.689386 
L 219.638708 137.135484 
L 219.886542 136.573255 
L 220.430013 136.03818 
L 221.26231 135.562688 
L 222.371509 135.174081 
L 223.740656 134.892806 
L 225.347959 134.731203 
L 227.167105 134.692795 
L 229.167683 134.772174 
L 231.315721 134.955486 
L 233.574318 135.221477 
L 235.904354 135.543037 
L 238.265267 135.889133 
L 240.615871 136.227002 
L 242.915186 136.524461 
L 245.123272 136.752176 
L 247.202026 136.885746 
L 249.115925 136.907454 
L 250.832706 136.807571 
L 252.323947 136.58513 
L 253.565548 136.248117 
L 254.538104 135.813048 
L 255.227159 135.303986 
L 255.623343 134.751038 
z
" style="fill:#0000ff;stroke:#000000;stroke-linejoin:miter;"/>
   </g>
   <g id="patch_6">
    <path clip-path="url(#p087ddb38af)" d="M 243.814941 143.439598 
L 178.842121 149.248766 
L 179.326218 154.663168 
L 244.299039 148.854 
z
" style="fill:#999999;stroke:#000000;stroke-linejoin:miter;"/>
   </g>
   <g id="text_1">
    <!-- t = 0.8 -->
    <defs>
     <path d="M 18.3125 70.21875 
L 18.3125 54.6875 
L 36.8125 54.6875 
L 36.8125 47.703125 
L 18.3125 47.703125 
L 18.3125 18.015625 
Q 18.3125 11.328125 20.140625 9.421875 
Q 21.96875 7.515625 27.59375 7.515625 
L 36.8125 7.515625 
L 36.8125 0 
L 27.59375 0 
Q 17.1875 0 13.234375 3.875 
Q 9.28125 7.765625 9.28125 18.015625 
L 9.28125 47.703125 
L 2.6875 47.703125 
L 2.6875 54.6875 
L 9.28125 54.6875 
L 9.28125 70.21875 
z
" id="DejaVuSans-116"/>
     <path id="DejaVuSans-32"/>
     <path d="M 10.59375 45.40625 
L 73.1875 45.40625 
L 73.1875 37.203125 
L 10.59375 37.203125 
z
M 10.59375 25.484375 
L 73.1875 25.484375 
L 73.1875 17.1875 
L 10.59375 17.1875 
z
" id="DejaVuSans-61"/>
     <path d="M 31.78125 66.40625 
Q 24.171875 66.40625 20.328125 58.90625 
Q 16.5 51.421875 16.5 36.375 
Q 16.5 21.390625 20.328125 13.890625 
Q 24.171875 6.390625 31.78125 6.390625 
Q 39.453125 6.390625 43.28125 13.890625 
Q 47.125 21.390625 47.125 36.375 
Q 47.125 51.421875 43.28125 58.90625 
Q 39.453125 66.40625 31.78125 66.40625 
z
M 31.78125 74.21875 
Q 44.046875 74.21875 50.515625 64.515625 
Q 56.984375 54.828125 56.984375 36.375 
Q 56.984375 17.96875 50.515625 8.265625 
Q 44.046875 -1.421875 31.78125 -1.421875 
Q 19.53125 -1.421875 13.0625 8.265625 
Q 6.59375 17.96875 6.59375 36.375 
Q 6.59375 54.828125 13.0625 64.515625 
Q 19.53125 74.21875 31.78125 74.21875 
z
" id="DejaVuSans-48"/>
     <path d="M 10.6875 12.40625 
L 21 12.40625 
L 21 0 
L 10.6875 0 
z
" id="DejaVuSans-46"/>
     <path d="M 31.78125 34.625 
Q 24.75 34.625 20.71875 30.859375 
Q 16.703125 27.09375 16.703125 20.515625 
Q 16.703125 13.921875 20.71875 10.15625 
Q 24.75 6.390625 31.78125 6.390625 
Q 38.8125 6.390625 42.859375 10.171875 
Q 46.921875 13.96875 46.921875 20.515625 
Q 46.921875 27.09375 42.890625 30.859375 
Q 38.875 34.625 31.78125 34.625 
z
M 21.921875 38.8125 
Q 15.578125 40.375 12.03125 44.71875 
Q 8.5 49.078125 8.5 55.328125 
Q 8.5 64.0625 14.71875 69.140625 
Q 20.953125 74.21875 31.78125 74.21875 
Q 42.671875 74.21875 48.875 69.140625 
Q 55.078125 64.0625 55.078125 55.328125 
Q 55.078125 49.078125 51.53125 44.71875 
Q 48 40.375 41.703125 38.8125 
Q 48.828125 37.15625 52.796875 32.3125 
Q 56.78125 27.484375 56.78125 20.515625 
Q 56.78125 9.90625 50.3125 4.234375 
Q 43.84375 -1.421875 31.78125 -1.421875 
Q 19.734375 -1.421875 13.25 4.234375 
Q 6.78125 9.90625 6.78125 20.515625 
Q 6.78125 27.484375 10.78125 32.3125 
Q 14.796875 37.15625 21.921875 38.8125 
z
M 18.3125 54.390625 
Q 18.3125 48.734375 21.84375 45.5625 
Q 25.390625 42.390625 31.78125 42.390625 
Q 38.140625 42.390625 41.71875 45.5625 
Q 45.3125 48.734375 45.3125 54.390625 
Q 45.3125 60.0625 41.71875 63.234375 
Q 38.140625 66.40625 31.78125 66.40625 
Q 25.390625 66.40625 21.84375 63.234375 
Q 18.3125 60.0625 18.3125 54.390625 
z
" id="DejaVuSans-56"/>
    </defs>
    <g transform="translate(200.664375 28.56)scale(0.12 -0.12)">
     <use xlink:href="#DejaVuSans-116"/>
     <use x="39.208984" xlink:href="#DejaVuSans-32"/>
     <use x="70.996094" xlink:href="#DejaVuSans-61"/>
     <use x="154.785156" xlink:href="#DejaVuSans-32"/>
     <use x="186.572266" xlink:href="#DejaVuSans-48"/>
     <use x="250.195312" xlink:href="#DejaVuSans-46"/>
     <use x="281.982422" xlink:href="#DejaVuSans-56"/>
    </g>
   </g>
  </g>
 </g>
 <defs>
  <clipPath id="p087ddb38af">
   <rect height="217.44" width="334.8" x="54" y="34.56"/>
  </clipPath>
 </defs>
</svg>
