<?xml version="1.0" encoding="utf-8" standalone="no"?>
<!DOCTYPE svg PUBLIC "-//W3C//DTD SVG 1.1//EN"
  "http://www.w3.org/Graphics/SVG/1.1/DTD/svg11.dtd">
<!-- Created with matplotlib (https://matplotlib.org/) -->
<svg height="288pt" version="1.1" viewBox="0 0 432 288" width="432pt" xmlns="http://www.w3.org/2000/svg" xmlns:xlink="http://www.w3.org/1999/xlink">
 <defs>
  <style type="text/css">
*{stroke-linecap:butt;stroke-linejoin:round;}
  </style>
 </defs>
 <g id="figure_1">
  <g id="patch_1">
   <path d="M 0 288 
L 432 288 
L 432 0 
L 0 0 
z
" style="fill:#ffffff;"/>
  </g>
  <g id="axes_1">
   <g id="patch_2">
    <path clip-path="url(#p1127be0b59)" d="M 292.048099 86.68774 
L 281.446269 89.096386 
L 281.205405 88.036203 
L 291.807235 85.627557 
z
" style="stroke:#000000;stroke-linejoin:miter;"/>
   </g>
   <g id="patch_3">
    <path clip-path="url(#p1127be0b59)" d="M 304.091333 139.696891 
L 293.489502 142.105538 
L 293.248638 141.045355 
L 303.850468 138.636708 
z
" style="stroke:#000000;stroke-linejoin:miter;"/>
   </g>
   <g id="patch_4">
    <path clip-path="url(#p1127be0b59)" d="M 295.942078 103.827365 
L 296.446961 103.560104 
L 296.851287 103.013082 
L 297.123794 102.200874 
L 297.238714 101.141656 
L 297.177598 99.856582 
L 296.930693 98.369196 
L 296.497816 96.704885 
L 295.888623 94.890397 
L 295.122294 92.953442 
L 294.226612 90.92237 
L 293.236512 88.825936 
L 292.192188 86.693126 
L 291.136865 84.553035 
L 290.114384 82.434781 
L 289.166748 80.367416 
L 288.331783 78.379828 
L 287.641059 76.500596 
L 287.118207 74.757785 
L 286.777723 73.178668 
L 286.624348 71.789368 
L 286.653039 70.614414 
L 286.849554 69.676229 
L 287.191582 68.994553 
L 287.650358 68.585837 
L 288.192651 68.462633 
L 288.782989 68.632998 
L 289.385981 69.099974 
L 289.968577 69.861152 
L 290.502126 70.908369 
L 290.964097 72.227559 
L 291.339343 73.798778 
L 291.620852 75.596421 
L 291.809914 77.589626 
L 291.915711 79.742875 
L 291.954369 82.016752 
L 291.947518 84.368862 
L 291.920483 86.754855 
L 291.900222 89.12953 
L 291.913144 91.44797 
L 291.982974 93.666669 
L 292.128793 95.744599 
L 292.363407 97.644188 
L 292.69214 99.33216 
L 293.112144 100.780219 
L 293.612283 101.965551 
L 294.17359 102.871136 
L 294.770286 103.485868 
L 295.371279 103.80449 
z
" style="fill:#0000ff;stroke:#000000;stroke-linejoin:miter;"/>
   </g>
   <g id="patch_5">
    <path clip-path="url(#p1127be0b59)" d="M 307.985311 156.836517 
L 308.490194 156.569256 
L 308.89452 156.022233 
L 309.167027 155.210026 
L 309.281947 154.150807 
L 309.220831 152.865733 
L 308.973927 151.378348 
L 308.541049 149.714037 
L 307.931856 147.899549 
L 307.165527 145.962593 
L 306.269845 143.931521 
L 305.279745 141.835088 
L 304.235421 139.702277 
L 303.180098 137.562187 
L 302.157617 135.443932 
L 301.209982 133.376567 
L 300.375016 131.38898 
L 299.684292 129.509748 
L 299.16144 127.766936 
L 298.820957 126.187819 
L 298.667581 124.798519 
L 298.696272 123.623566 
L 298.892787 122.68538 
L 299.234815 122.003704 
L 299.693591 121.594989 
L 300.235884 121.471785 
L 300.826222 121.64215 
L 301.429214 122.109126 
L 302.01181 122.870303 
L 302.54536 123.91752 
L 303.00733 125.23671 
L 303.382576 126.80793 
L 303.664085 128.605572 
L 303.853147 130.598778 
L 303.958945 132.752026 
L 303.997602 135.025903 
L 303.990751 137.378013 
L 303.963716 139.764006 
L 303.943455 142.138681 
L 303.956377 144.457122 
L 304.026207 146.67582 
L 304.172026 148.75375 
L 304.406641 150.653339 
L 304.735373 152.341311 
L 305.155377 153.78937 
L 305.655516 154.974702 
L 306.216824 155.880287 
L 306.813519 156.495019 
L 307.414513 156.813641 
z
" style="fill:#0000ff;stroke:#000000;stroke-linejoin:miter;"/>
   </g>
   <g id="patch_6">
    <path clip-path="url(#p1127be0b59)" d="M 297.223851 146.2742 
L 282.771971 82.663218 
L 277.471056 83.867541 
L 291.922936 147.478523 
z
" style="fill:#999999;stroke:#000000;stroke-linejoin:miter;"/>
   </g>
   <g id="text_1">
    <!-- t = 0.0 -->
    <defs>
     <path d="M 18.3125 70.21875 
L 18.3125 54.6875 
L 36.8125 54.6875 
L 36.8125 47.703125 
L 18.3125 47.703125 
L 18.3125 18.015625 
Q 18.3125 11.328125 20.140625 9.421875 
Q 21.96875 7.515625 27.59375 7.515625 
L 36.8125 7.515625 
L 36.8125 0 
L 27.59375 0 
Q 17.1875 0 13.234375 3.875 
Q 9.28125 7.765625 9.28125 18.015625 
L 9.28125 47.703125 
L 2.6875 47.703125 
L 2.6875 54.6875 
L 9.28125 54.6875 
L 9.28125 70.21875 
z
" id="DejaVuSans-116"/>
     <path id="DejaVuSans-32"/>
     <path d="M 10.59375 45.40625 
L 73.1875 45.40625 
L 73.1875 37.203125 
L 10.59375 37.203125 
z
M 10.59375 25.484375 
L 73.1875 25.484375 
L 73.1875 17.1875 
L 10.59375 17.1875 
z
" id="DejaVuSans-61"/>
     <path d="M 31.78125 66.40625 
Q 24.171875 66.40625 20.328125 58.90625 
Q 16.5 51.421875 16.5 36.375 
Q 16.5 21.390625 20.328125 13.890625 
Q 24.171875 6.390625 31.78125 6.390625 
Q 39.453125 6.390625 43.28125 13.890625 
Q 47.125 21.390625 47.125 36.375 
Q 47.125 51.421875 43.28125 58.90625 
Q 39.453125 66.40625 31.78125 66.40625 
z
M 31.78125 74.21875 
Q 44.046875 74.21875 50.515625 64.515625 
Q 56.984375 54.828125 56.984375 36.375 
Q 56.984375 17.96875 50.515625 8.265625 
Q 44.046875 -1.421875 31.78125 -1.421875 
Q 19.53125 -1.421875 13.0625 8.265625 
Q 6.59375 17.96875 6.59375 36.375 
Q 6.59375 54.828125 13.0625 64.515625 
Q 19.53125 74.21875 31.78125 74.21875 
z
" id="DejaVuSans-48"/>
     <path d="M 10.6875 12.40625 
L 21 12.40625 
L 21 0 
L 10.6875 0 
z
" id="DejaVuSans-46"/>
    </defs>
    <g transform="translate(200.664375 28.56)scale(0.12 -0.12)">
     <use xlink:href="#DejaVuSans-116"/>
     <use x="39.208984" xlink:href="#DejaVuSans-32"/>
     <use x="70.996094" xlink:href="#DejaVuSans-61"/>
     <use x="154.785156" xlink:href="#DejaVuSans-32"/>
     <use x="186.572266" xlink:href="#DejaVuSans-48"/>
     <use x="250.195312" xlink:href="#DejaVuSans-46"/>
     <use x="281.982422" xlink:href="#DejaVuSans-48"/>
    </g>
   </g>
  </g>
 </g>
 <defs>
  <clipPath id="p1127be0b59">
   <rect height="217.44" width="334.8" x="54" y="34.56"/>
  </clipPath>
 </defs>
</svg>
