<?xml version="1.0" encoding="utf-8" standalone="no"?>
<!DOCTYPE svg PUBLIC "-//W3C//DTD SVG 1.1//EN"
  "http://www.w3.org/Graphics/SVG/1.1/DTD/svg11.dtd">
<!-- Created with matplotlib (https://matplotlib.org/) -->
<svg height="288pt" version="1.1" viewBox="0 0 432 288" width="432pt" xmlns="http://www.w3.org/2000/svg" xmlns:xlink="http://www.w3.org/1999/xlink">
 <defs>
  <style type="text/css">
*{stroke-linecap:butt;stroke-linejoin:round;}
  </style>
 </defs>
 <g id="figure_1">
  <g id="patch_1">
   <path d="M 0 288 
L 432 288 
L 432 0 
L 0 0 
z
" style="fill:#ffffff;"/>
  </g>
  <g id="axes_1">
   <g id="patch_2">
    <path clip-path="url(#p970110d4a8)" d="M 195.261319 132.412147 
L 195.243519 143.284133 
L 194.15632 143.282353 
L 194.17412 132.410368 
z
" style="stroke:#000000;stroke-linejoin:miter;"/>
   </g>
   <g id="patch_3">
    <path clip-path="url(#p970110d4a8)" d="M 249.621246 132.501147 
L 249.603446 143.373133 
L 248.516247 143.371353 
L 248.534047 132.499367 
z
" style="stroke:#000000;stroke-linejoin:miter;"/>
   </g>
   <g id="patch_4">
    <path clip-path="url(#p970110d4a8)" d="M 212.837695 132.440924 
L 212.689833 131.889135 
L 212.246826 131.372939 
L 211.515905 130.926066 
L 210.509037 130.577687 
L 209.242727 130.350508 
L 207.73775 130.259289 
L 206.01881 130.309874 
L 204.114136 130.498818 
L 202.055019 130.813608 
L 199.875294 131.233489 
L 197.610787 131.730822 
L 195.298721 132.272894 
L 192.977104 132.824064 
L 190.684101 133.348092 
L 188.457405 133.810518 
L 186.333617 134.180916 
L 184.347638 134.434888 
L 182.5321 134.555662 
L 180.916823 134.535193 
L 179.528328 134.37469 
L 178.389402 134.084541 
L 177.518723 133.683632 
L 176.930555 133.198117 
L 176.634518 132.659708 
L 176.635428 132.103596 
L 176.933227 131.566158 
L 177.522981 131.082572 
L 178.394969 130.684517 
L 179.534838 130.398098 
L 180.923851 130.242143 
L 182.539187 130.226963 
L 184.35432 130.353682 
L 186.339456 130.614155 
L 188.462021 130.991506 
L 190.68719 131.461221 
L 192.978465 131.992754 
L 195.298265 132.551522 
L 197.608544 133.101163 
L 199.87141 133.605908 
L 202.049748 134.032924 
L 204.107824 134.354455 
L 206.011869 134.549635 
L 207.730634 134.605848 
L 209.235902 134.519557 
L 210.502949 134.296527 
L 211.510952 133.951446 
L 212.243332 133.506969 
L 212.688027 132.992226 
z
" style="fill:#0000ff;stroke:#000000;stroke-linejoin:miter;"/>
   </g>
   <g id="patch_5">
    <path clip-path="url(#p970110d4a8)" d="M 267.197622 132.529924 
L 267.04976 131.978135 
L 266.606753 131.461939 
L 265.875832 131.015066 
L 264.868964 130.666686 
L 263.602655 130.439508 
L 262.097677 130.348288 
L 260.378737 130.398874 
L 258.474063 130.587817 
L 256.414946 130.902608 
L 254.235221 131.322489 
L 251.970714 131.819822 
L 249.658648 132.361894 
L 247.337031 132.913063 
L 245.044028 133.437091 
L 242.817332 133.899517 
L 240.693544 134.269916 
L 238.707565 134.523888 
L 236.892027 134.644662 
L 235.27675 134.624193 
L 233.888255 134.46369 
L 232.749329 134.173541 
L 231.87865 133.772632 
L 231.290482 133.287117 
L 230.994445 132.748707 
L 230.995355 132.192596 
L 231.293154 131.655158 
L 231.882909 131.171572 
L 232.754896 130.773517 
L 233.894766 130.487098 
L 235.283778 130.331143 
L 236.899114 130.315963 
L 238.714247 130.442682 
L 240.699384 130.703155 
L 242.821948 131.080506 
L 245.047117 131.55022 
L 247.338392 132.081754 
L 249.658192 132.640522 
L 251.968471 133.190163 
L 254.231337 133.694908 
L 256.409675 134.121924 
L 258.467751 134.443455 
L 260.371796 134.638635 
L 262.090561 134.694848 
L 263.595829 134.608557 
L 264.862876 134.385526 
L 265.870879 134.040446 
L 266.603259 133.595969 
L 267.047954 133.081226 
z
" style="fill:#0000ff;stroke:#000000;stroke-linejoin:miter;"/>
   </g>
   <g id="patch_6">
    <path clip-path="url(#p970110d4a8)" d="M 254.500289 140.663146 
L 189.268377 140.556347 
L 189.259477 145.992339 
L 254.491389 146.099139 
z
" style="fill:#999999;stroke:#000000;stroke-linejoin:miter;"/>
   </g>
   <g id="text_1">
    <!-- t = 2.6 -->
    <defs>
     <path d="M 18.3125 70.21875 
L 18.3125 54.6875 
L 36.8125 54.6875 
L 36.8125 47.703125 
L 18.3125 47.703125 
L 18.3125 18.015625 
Q 18.3125 11.328125 20.140625 9.421875 
Q 21.96875 7.515625 27.59375 7.515625 
L 36.8125 7.515625 
L 36.8125 0 
L 27.59375 0 
Q 17.1875 0 13.234375 3.875 
Q 9.28125 7.765625 9.28125 18.015625 
L 9.28125 47.703125 
L 2.6875 47.703125 
L 2.6875 54.6875 
L 9.28125 54.6875 
L 9.28125 70.21875 
z
" id="DejaVuSans-116"/>
     <path id="DejaVuSans-32"/>
     <path d="M 10.59375 45.40625 
L 73.1875 45.40625 
L 73.1875 37.203125 
L 10.59375 37.203125 
z
M 10.59375 25.484375 
L 73.1875 25.484375 
L 73.1875 17.1875 
L 10.59375 17.1875 
z
" id="DejaVuSans-61"/>
     <path d="M 19.1875 8.296875 
L 53.609375 8.296875 
L 53.609375 0 
L 7.328125 0 
L 7.328125 8.296875 
Q 12.9375 14.109375 22.625 23.890625 
Q 32.328125 33.6875 34.8125 36.53125 
Q 39.546875 41.84375 41.421875 45.53125 
Q 43.3125 49.21875 43.3125 52.78125 
Q 43.3125 58.59375 39.234375 62.25 
Q 35.15625 65.921875 28.609375 65.921875 
Q 23.96875 65.921875 18.8125 64.3125 
Q 13.671875 62.703125 7.8125 59.421875 
L 7.8125 69.390625 
Q 13.765625 71.78125 18.9375 73 
Q 24.125 74.21875 28.421875 74.21875 
Q 39.75 74.21875 46.484375 68.546875 
Q 53.21875 62.890625 53.21875 53.421875 
Q 53.21875 48.921875 51.53125 44.890625 
Q 49.859375 40.875 45.40625 35.40625 
Q 44.1875 33.984375 37.640625 27.21875 
Q 31.109375 20.453125 19.1875 8.296875 
z
" id="DejaVuSans-50"/>
     <path d="M 10.6875 12.40625 
L 21 12.40625 
L 21 0 
L 10.6875 0 
z
" id="DejaVuSans-46"/>
     <path d="M 33.015625 40.375 
Q 26.375 40.375 22.484375 35.828125 
Q 18.609375 31.296875 18.609375 23.390625 
Q 18.609375 15.53125 22.484375 10.953125 
Q 26.375 6.390625 33.015625 6.390625 
Q 39.65625 6.390625 43.53125 10.953125 
Q 47.40625 15.53125 47.40625 23.390625 
Q 47.40625 31.296875 43.53125 35.828125 
Q 39.65625 40.375 33.015625 40.375 
z
M 52.59375 71.296875 
L 52.59375 62.3125 
Q 48.875 64.0625 45.09375 64.984375 
Q 41.3125 65.921875 37.59375 65.921875 
Q 27.828125 65.921875 22.671875 59.328125 
Q 17.53125 52.734375 16.796875 39.40625 
Q 19.671875 43.65625 24.015625 45.921875 
Q 28.375 48.1875 33.59375 48.1875 
Q 44.578125 48.1875 50.953125 41.515625 
Q 57.328125 34.859375 57.328125 23.390625 
Q 57.328125 12.15625 50.6875 5.359375 
Q 44.046875 -1.421875 33.015625 -1.421875 
Q 20.359375 -1.421875 13.671875 8.265625 
Q 6.984375 17.96875 6.984375 36.375 
Q 6.984375 53.65625 15.1875 63.9375 
Q 23.390625 74.21875 37.203125 74.21875 
Q 40.921875 74.21875 44.703125 73.484375 
Q 48.484375 72.75 52.59375 71.296875 
z
" id="DejaVuSans-54"/>
    </defs>
    <g transform="translate(200.664375 28.56)scale(0.12 -0.12)">
     <use xlink:href="#DejaVuSans-116"/>
     <use x="39.208984" xlink:href="#DejaVuSans-32"/>
     <use x="70.996094" xlink:href="#DejaVuSans-61"/>
     <use x="154.785156" xlink:href="#DejaVuSans-32"/>
     <use x="186.572266" xlink:href="#DejaVuSans-50"/>
     <use x="250.195312" xlink:href="#DejaVuSans-46"/>
     <use x="281.982422" xlink:href="#DejaVuSans-54"/>
    </g>
   </g>
  </g>
 </g>
 <defs>
  <clipPath id="p970110d4a8">
   <rect height="217.44" width="334.8" x="54" y="34.56"/>
  </clipPath>
 </defs>
</svg>
