<?xml version="1.0" encoding="utf-8" standalone="no"?>
<!DOCTYPE svg PUBLIC "-//W3C//DTD SVG 1.1//EN"
  "http://www.w3.org/Graphics/SVG/1.1/DTD/svg11.dtd">
<!-- Created with matplotlib (https://matplotlib.org/) -->
<svg height="288pt" version="1.1" viewBox="0 0 432 288" width="432pt" xmlns="http://www.w3.org/2000/svg" xmlns:xlink="http://www.w3.org/1999/xlink">
 <defs>
  <style type="text/css">
*{stroke-linecap:butt;stroke-linejoin:round;}
  </style>
 </defs>
 <g id="figure_1">
  <g id="patch_1">
   <path d="M 0 288 
L 432 288 
L 432 0 
L 0 0 
z
" style="fill:#ffffff;"/>
  </g>
  <g id="axes_1">
   <g id="patch_2">
    <path clip-path="url(#pa73e673a8c)" d="M 194.074674 132.590562 
L 194.059257 143.462551 
L 192.972058 143.461009 
L 192.987476 132.58902 
z
" style="stroke:#000000;stroke-linejoin:miter;"/>
   </g>
   <g id="patch_3">
    <path clip-path="url(#pa73e673a8c)" d="M 248.43462 132.66765 
L 248.419202 143.539639 
L 247.332003 143.538097 
L 247.347421 132.666108 
z
" style="stroke:#000000;stroke-linejoin:miter;"/>
   </g>
   <g id="patch_4">
    <path clip-path="url(#pa73e673a8c)" d="M 211.651057 132.615487 
L 211.503074 132.06373 
L 211.059953 131.547631 
L 210.328935 131.100918 
L 209.321991 130.75276 
L 208.055631 130.525859 
L 206.550634 130.434969 
L 204.831705 130.485931 
L 202.927073 130.675292 
L 200.868024 130.990533 
L 198.688392 131.410892 
L 196.423994 131.908721 
L 194.112047 132.4513 
L 191.79055 133.002978 
L 189.497662 133.527509 
L 187.271068 133.990423 
L 185.147361 134.361286 
L 183.161438 134.615693 
L 181.345926 134.736865 
L 179.730644 134.71675 
L 178.342114 134.556552 
L 177.203125 134.266652 
L 176.332358 133.865934 
L 175.744084 133.380548 
L 175.447928 132.842203 
L 175.448717 132.286092 
L 175.746398 131.748589 
L 176.336046 131.264873 
L 177.207946 130.866627 
L 178.347753 130.579958 
L 179.736732 130.423699 
L 181.352064 130.408165 
L 183.167225 130.534486 
L 185.152419 130.794524 
L 187.275065 131.17141 
L 189.500338 131.640637 
L 191.791729 132.171668 
L 194.111651 132.729928 
L 196.422051 133.279062 
L 198.685028 133.783312 
L 200.863459 134.209851 
L 202.921605 134.530931 
L 204.825693 134.725693 
L 206.54447 134.78153 
L 208.049719 134.694909 
L 209.316717 134.471601 
L 210.324645 134.126299 
L 211.056927 133.681662 
L 211.50151 133.166822 
z
" style="fill:#0000ff;stroke:#000000;stroke-linejoin:miter;"/>
   </g>
   <g id="patch_5">
    <path clip-path="url(#pa73e673a8c)" d="M 266.011002 132.692575 
L 265.863019 132.140818 
L 265.419899 131.624719 
L 264.68888 131.178006 
L 263.681936 130.829848 
L 262.415577 130.602947 
L 260.910579 130.512057 
L 259.19165 130.563019 
L 257.287018 130.75238 
L 255.22797 131.067621 
L 253.048337 131.48798 
L 250.783939 131.985809 
L 248.471992 132.528388 
L 246.150495 133.080066 
L 243.857607 133.604597 
L 241.631013 134.067511 
L 239.507306 134.438374 
L 237.521383 134.692781 
L 235.705871 134.813954 
L 234.090589 134.793839 
L 232.70206 134.63364 
L 231.56307 134.34374 
L 230.692303 133.943022 
L 230.104029 133.457636 
L 229.807874 132.919291 
L 229.808662 132.36318 
L 230.106343 131.825677 
L 230.695992 131.341962 
L 231.567892 130.943715 
L 232.707699 130.657047 
L 234.096677 130.500787 
L 235.71201 130.485253 
L 237.527171 130.611574 
L 239.512364 130.871613 
L 241.635011 131.248498 
L 243.860283 131.717725 
L 246.151674 132.248757 
L 248.471597 132.807017 
L 250.781996 133.356151 
L 253.044973 133.8604 
L 255.223404 134.286939 
L 257.28155 134.608019 
L 259.185638 134.802781 
L 260.904416 134.858618 
L 262.409664 134.771997 
L 263.676663 134.548689 
L 264.68459 134.203388 
L 265.416873 133.75875 
L 265.861455 133.24391 
z
" style="fill:#0000ff;stroke:#000000;stroke-linejoin:miter;"/>
   </g>
   <g id="patch_6">
    <path clip-path="url(#pa73e673a8c)" d="M 253.315452 140.82858 
L 188.083517 140.736074 
L 188.075808 146.172068 
L 253.307743 146.264574 
z
" style="fill:#999999;stroke:#000000;stroke-linejoin:miter;"/>
   </g>
   <g id="text_1">
    <!-- t = 2.1 -->
    <defs>
     <path d="M 18.3125 70.21875 
L 18.3125 54.6875 
L 36.8125 54.6875 
L 36.8125 47.703125 
L 18.3125 47.703125 
L 18.3125 18.015625 
Q 18.3125 11.328125 20.140625 9.421875 
Q 21.96875 7.515625 27.59375 7.515625 
L 36.8125 7.515625 
L 36.8125 0 
L 27.59375 0 
Q 17.1875 0 13.234375 3.875 
Q 9.28125 7.765625 9.28125 18.015625 
L 9.28125 47.703125 
L 2.6875 47.703125 
L 2.6875 54.6875 
L 9.28125 54.6875 
L 9.28125 70.21875 
z
" id="DejaVuSans-116"/>
     <path id="DejaVuSans-32"/>
     <path d="M 10.59375 45.40625 
L 73.1875 45.40625 
L 73.1875 37.203125 
L 10.59375 37.203125 
z
M 10.59375 25.484375 
L 73.1875 25.484375 
L 73.1875 17.1875 
L 10.59375 17.1875 
z
" id="DejaVuSans-61"/>
     <path d="M 19.1875 8.296875 
L 53.609375 8.296875 
L 53.609375 0 
L 7.328125 0 
L 7.328125 8.296875 
Q 12.9375 14.109375 22.625 23.890625 
Q 32.328125 33.6875 34.8125 36.53125 
Q 39.546875 41.84375 41.421875 45.53125 
Q 43.3125 49.21875 43.3125 52.78125 
Q 43.3125 58.59375 39.234375 62.25 
Q 35.15625 65.921875 28.609375 65.921875 
Q 23.96875 65.921875 18.8125 64.3125 
Q 13.671875 62.703125 7.8125 59.421875 
L 7.8125 69.390625 
Q 13.765625 71.78125 18.9375 73 
Q 24.125 74.21875 28.421875 74.21875 
Q 39.75 74.21875 46.484375 68.546875 
Q 53.21875 62.890625 53.21875 53.421875 
Q 53.21875 48.921875 51.53125 44.890625 
Q 49.859375 40.875 45.40625 35.40625 
Q 44.1875 33.984375 37.640625 27.21875 
Q 31.109375 20.453125 19.1875 8.296875 
z
" id="DejaVuSans-50"/>
     <path d="M 10.6875 12.40625 
L 21 12.40625 
L 21 0 
L 10.6875 0 
z
" id="DejaVuSans-46"/>
     <path d="M 12.40625 8.296875 
L 28.515625 8.296875 
L 28.515625 63.921875 
L 10.984375 60.40625 
L 10.984375 69.390625 
L 28.421875 72.90625 
L 38.28125 72.90625 
L 38.28125 8.296875 
L 54.390625 8.296875 
L 54.390625 0 
L 12.40625 0 
z
" id="DejaVuSans-49"/>
    </defs>
    <g transform="translate(200.664375 28.56)scale(0.12 -0.12)">
     <use xlink:href="#DejaVuSans-116"/>
     <use x="39.208984" xlink:href="#DejaVuSans-32"/>
     <use x="70.996094" xlink:href="#DejaVuSans-61"/>
     <use x="154.785156" xlink:href="#DejaVuSans-32"/>
     <use x="186.572266" xlink:href="#DejaVuSans-50"/>
     <use x="250.195312" xlink:href="#DejaVuSans-46"/>
     <use x="281.982422" xlink:href="#DejaVuSans-49"/>
    </g>
   </g>
  </g>
 </g>
 <defs>
  <clipPath id="pa73e673a8c">
   <rect height="217.44" width="334.8" x="54" y="34.56"/>
  </clipPath>
 </defs>
</svg>
