<?xml version="1.0" encoding="utf-8" standalone="no"?>
<!DOCTYPE svg PUBLIC "-//W3C//DTD SVG 1.1//EN"
  "http://www.w3.org/Graphics/SVG/1.1/DTD/svg11.dtd">
<!-- Created with matplotlib (https://matplotlib.org/) -->
<svg height="288pt" version="1.1" viewBox="0 0 432 288" width="432pt" xmlns="http://www.w3.org/2000/svg" xmlns:xlink="http://www.w3.org/1999/xlink">
 <defs>
  <style type="text/css">
*{stroke-linecap:butt;stroke-linejoin:round;}
  </style>
 </defs>
 <g id="figure_1">
  <g id="patch_1">
   <path d="M 0 288 
L 432 288 
L 432 0 
L 0 0 
z
" style="fill:#ffffff;"/>
  </g>
  <g id="axes_1">
   <g id="patch_2">
    <path clip-path="url(#p0a88044574)" d="M 149.337146 191.496474 
L 153.028439 201.722653 
L 152.005821 202.091782 
L 148.314529 191.865603 
z
" style="stroke:#000000;stroke-linejoin:miter;"/>
   </g>
   <g id="patch_3">
    <path clip-path="url(#p0a88044574)" d="M 200.468043 173.040012 
L 204.159336 183.266191 
L 203.136718 183.63532 
L 199.445425 173.409141 
z
" style="stroke:#000000;stroke-linejoin:miter;"/>
   </g>
   <g id="patch_4">
    <path clip-path="url(#p0a88044574)" d="M 165.86947 185.528884 
L 165.542279 185.06061 
L 164.949779 184.726458 
L 164.110272 184.555669 
L 163.044957 184.571583 
L 161.777092 184.789916 
L 160.33124 185.217457 
L 158.73262 185.851276 
L 157.00659 186.678503 
L 155.178299 187.676706 
L 153.272475 188.814833 
L 151.313368 190.054685 
L 149.324812 191.352813 
L 147.330381 192.662751 
L 145.353591 193.937416 
L 143.418123 195.131557 
L 141.548004 196.204091 
L 139.767724 197.120178 
L 138.102235 197.852922 
L 136.576828 198.384591 
L 135.216845 198.707275 
L 134.047249 198.822967 
L 133.092041 198.743053 
L 132.373548 198.487251 
L 131.91163 198.082091 
L 131.722817 197.559013 
L 131.81946 196.952232 
L 132.20892 196.296498 
L 132.892862 195.624908 
L 133.866699 194.966896 
L 135.119237 194.346552 
L 136.632541 193.781352 
L 138.382059 193.281399 
L 140.337006 192.849199 
L 142.461002 192.479997 
L 144.712954 192.162627 
L 147.048132 191.880822 
L 149.419413 191.614891 
L 151.778631 191.343626 
L 154.077967 191.046328 
L 156.271332 190.704792 
L 158.315669 190.305112 
L 160.172117 189.839191 
L 161.806999 189.305828 
L 163.192581 188.71132 
L 164.307589 188.06952 
L 165.137459 187.401339 
L 165.674332 186.733725 
L 165.916804 186.098177 
z
" style="fill:#0000ff;stroke:#000000;stroke-linejoin:miter;"/>
   </g>
   <g id="patch_5">
    <path clip-path="url(#p0a88044574)" d="M 217.000366 167.072422 
L 216.673176 166.604148 
L 216.080676 166.269996 
L 215.241169 166.099207 
L 214.175853 166.115121 
L 212.907989 166.333454 
L 211.462137 166.760995 
L 209.863516 167.394813 
L 208.137487 168.222041 
L 206.309196 169.220244 
L 204.403372 170.358371 
L 202.444265 171.598222 
L 200.455709 172.896351 
L 198.461278 174.206289 
L 196.484488 175.480954 
L 194.549019 176.675095 
L 192.678901 177.747629 
L 190.898621 178.663715 
L 189.233132 179.39646 
L 187.707725 179.928129 
L 186.347742 180.250813 
L 185.178146 180.366505 
L 184.222937 180.28659 
L 183.504445 180.030789 
L 183.042526 179.625629 
L 182.853714 179.102551 
L 182.950357 178.49577 
L 183.339817 177.840036 
L 184.023758 177.168446 
L 184.997596 176.510434 
L 186.250134 175.890089 
L 187.763438 175.32489 
L 189.512956 174.824937 
L 191.467903 174.392737 
L 193.591899 174.023535 
L 195.843851 173.706165 
L 198.179029 173.42436 
L 200.55031 173.158429 
L 202.909527 172.887164 
L 205.208864 172.589866 
L 207.402229 172.24833 
L 209.446566 171.84865 
L 211.303014 171.382728 
L 212.937896 170.849365 
L 214.323478 170.254858 
L 215.438486 169.613058 
L 216.268356 168.944876 
L 216.805229 168.277262 
L 217.047701 167.641715 
z
" style="fill:#0000ff;stroke:#000000;stroke-linejoin:miter;"/>
   </g>
   <g id="patch_6">
    <path clip-path="url(#p0a88044574)" d="M 207.838293 179.048564 
L 146.481217 201.196319 
L 148.326863 206.309409 
L 209.683939 184.161654 
z
" style="fill:#999999;stroke:#000000;stroke-linejoin:miter;"/>
   </g>
   <g id="text_1">
    <!-- t = 0.5 -->
    <defs>
     <path d="M 18.3125 70.21875 
L 18.3125 54.6875 
L 36.8125 54.6875 
L 36.8125 47.703125 
L 18.3125 47.703125 
L 18.3125 18.015625 
Q 18.3125 11.328125 20.140625 9.421875 
Q 21.96875 7.515625 27.59375 7.515625 
L 36.8125 7.515625 
L 36.8125 0 
L 27.59375 0 
Q 17.1875 0 13.234375 3.875 
Q 9.28125 7.765625 9.28125 18.015625 
L 9.28125 47.703125 
L 2.6875 47.703125 
L 2.6875 54.6875 
L 9.28125 54.6875 
L 9.28125 70.21875 
z
" id="DejaVuSans-116"/>
     <path id="DejaVuSans-32"/>
     <path d="M 10.59375 45.40625 
L 73.1875 45.40625 
L 73.1875 37.203125 
L 10.59375 37.203125 
z
M 10.59375 25.484375 
L 73.1875 25.484375 
L 73.1875 17.1875 
L 10.59375 17.1875 
z
" id="DejaVuSans-61"/>
     <path d="M 31.78125 66.40625 
Q 24.171875 66.40625 20.328125 58.90625 
Q 16.5 51.421875 16.5 36.375 
Q 16.5 21.390625 20.328125 13.890625 
Q 24.171875 6.390625 31.78125 6.390625 
Q 39.453125 6.390625 43.28125 13.890625 
Q 47.125 21.390625 47.125 36.375 
Q 47.125 51.421875 43.28125 58.90625 
Q 39.453125 66.40625 31.78125 66.40625 
z
M 31.78125 74.21875 
Q 44.046875 74.21875 50.515625 64.515625 
Q 56.984375 54.828125 56.984375 36.375 
Q 56.984375 17.96875 50.515625 8.265625 
Q 44.046875 -1.421875 31.78125 -1.421875 
Q 19.53125 -1.421875 13.0625 8.265625 
Q 6.59375 17.96875 6.59375 36.375 
Q 6.59375 54.828125 13.0625 64.515625 
Q 19.53125 74.21875 31.78125 74.21875 
z
" id="DejaVuSans-48"/>
     <path d="M 10.6875 12.40625 
L 21 12.40625 
L 21 0 
L 10.6875 0 
z
" id="DejaVuSans-46"/>
     <path d="M 10.796875 72.90625 
L 49.515625 72.90625 
L 49.515625 64.59375 
L 19.828125 64.59375 
L 19.828125 46.734375 
Q 21.96875 47.46875 24.109375 47.828125 
Q 26.265625 48.1875 28.421875 48.1875 
Q 40.625 48.1875 47.75 41.5 
Q 54.890625 34.8125 54.890625 23.390625 
Q 54.890625 11.625 47.5625 5.09375 
Q 40.234375 -1.421875 26.90625 -1.421875 
Q 22.3125 -1.421875 17.546875 -0.640625 
Q 12.796875 0.140625 7.71875 1.703125 
L 7.71875 11.625 
Q 12.109375 9.234375 16.796875 8.0625 
Q 21.484375 6.890625 26.703125 6.890625 
Q 35.15625 6.890625 40.078125 11.328125 
Q 45.015625 15.765625 45.015625 23.390625 
Q 45.015625 31 40.078125 35.4375 
Q 35.15625 39.890625 26.703125 39.890625 
Q 22.75 39.890625 18.8125 39.015625 
Q 14.890625 38.140625 10.796875 36.28125 
z
" id="DejaVuSans-53"/>
    </defs>
    <g transform="translate(200.664375 28.56)scale(0.12 -0.12)">
     <use xlink:href="#DejaVuSans-116"/>
     <use x="39.208984" xlink:href="#DejaVuSans-32"/>
     <use x="70.996094" xlink:href="#DejaVuSans-61"/>
     <use x="154.785156" xlink:href="#DejaVuSans-32"/>
     <use x="186.572266" xlink:href="#DejaVuSans-48"/>
     <use x="250.195312" xlink:href="#DejaVuSans-46"/>
     <use x="281.982422" xlink:href="#DejaVuSans-53"/>
    </g>
   </g>
  </g>
 </g>
 <defs>
  <clipPath id="p0a88044574">
   <rect height="217.44" width="334.8" x="54" y="34.56"/>
  </clipPath>
 </defs>
</svg>
