<?xml version="1.0" encoding="utf-8" standalone="no"?>
<!DOCTYPE svg PUBLIC "-//W3C//DTD SVG 1.1//EN"
  "http://www.w3.org/Graphics/SVG/1.1/DTD/svg11.dtd">
<!-- Created with matplotlib (https://matplotlib.org/) -->
<svg height="288pt" version="1.1" viewBox="0 0 432 288" width="432pt" xmlns="http://www.w3.org/2000/svg" xmlns:xlink="http://www.w3.org/1999/xlink">
 <defs>
  <style type="text/css">
*{stroke-linecap:butt;stroke-linejoin:round;}
  </style>
 </defs>
 <g id="figure_1">
  <g id="patch_1">
   <path d="M 0 288 
L 432 288 
L 432 0 
L 0 0 
z
" style="fill:#ffffff;"/>
  </g>
  <g id="axes_1">
   <g id="patch_2">
    <path clip-path="url(#p4b07e5206e)" d="M 197.334778 134.980837 
L 197.584034 145.849979 
L 196.49712 145.874905 
L 196.247864 135.005762 
z
" style="stroke:#000000;stroke-linejoin:miter;"/>
   </g>
   <g id="patch_3">
    <path clip-path="url(#p4b07e5206e)" d="M 251.68049 133.734556 
L 251.929746 144.603698 
L 250.842832 144.628624 
L 250.593575 133.759482 
z
" style="stroke:#000000;stroke-linejoin:miter;"/>
   </g>
   <g id="patch_4">
    <path clip-path="url(#p4b07e5206e)" d="M 214.906558 134.577873 
L 214.745187 134.029882 
L 214.289634 133.524724 
L 213.547957 133.095939 
L 212.532836 132.772397 
L 211.261328 132.576391 
L 209.754564 132.522166 
L 208.037385 132.614959 
L 206.137927 132.850631 
L 204.087163 133.215904 
L 201.91841 133.6892 
L 199.666802 134.242006 
L 197.368749 134.840707 
L 195.06137 135.448736 
L 192.781931 136.02893 
L 190.567266 136.545911 
L 188.453217 136.968364 
L 186.474076 137.271042 
L 184.662052 137.436375 
L 183.046759 137.455589 
L 181.654741 137.32924 
L 180.509031 137.067154 
L 179.628767 136.687753 
L 179.028851 136.216832 
L 178.719678 135.685856 
L 178.706928 135.12989 
L 178.991436 134.5853 
L 179.569134 134.087373 
L 180.431081 133.668019 
L 181.563571 133.353688 
L 182.948334 133.163661 
L 184.56281 133.108808 
L 186.380508 133.190903 
L 188.371443 133.402537 
L 190.502636 133.727636 
L 192.738672 134.142552 
L 195.042311 134.617644 
L 197.375137 135.119262 
L 199.698219 135.611989 
L 201.972801 136.060999 
L 204.160971 136.434379 
L 206.226323 136.70526 
L 208.134588 136.853611 
L 209.854215 136.86759 
L 211.356909 136.74435 
L 212.618096 136.490264 
L 213.617318 136.120528 
L 214.33856 135.658195 
L 214.770477 135.132685 
z
" style="fill:#0000ff;stroke:#000000;stroke-linejoin:miter;"/>
   </g>
   <g id="patch_5">
    <path clip-path="url(#p4b07e5206e)" d="M 269.25227 133.331592 
L 269.090899 132.783601 
L 268.635346 132.278443 
L 267.893669 131.849658 
L 266.878548 131.526116 
L 265.60704 131.330111 
L 264.100276 131.275886 
L 262.383097 131.368678 
L 260.483639 131.60435 
L 258.432875 131.969624 
L 256.264122 132.442919 
L 254.012514 132.995726 
L 251.71446 133.594426 
L 249.407082 134.202455 
L 247.127643 134.782649 
L 244.912978 135.29963 
L 242.798928 135.722083 
L 240.819787 136.024761 
L 239.007763 136.190094 
L 237.392471 136.209308 
L 236.000452 136.082959 
L 234.854743 135.820873 
L 233.974479 135.441472 
L 233.374563 134.970551 
L 233.06539 134.439575 
L 233.05264 133.883609 
L 233.337148 133.339019 
L 233.914846 132.841092 
L 234.776792 132.421738 
L 235.909283 132.107407 
L 237.294046 131.91738 
L 238.908522 131.862527 
L 240.72622 131.944622 
L 242.717155 132.156256 
L 244.848348 132.481355 
L 247.084383 132.896271 
L 249.388023 133.371363 
L 251.720848 133.872981 
L 254.043931 134.365708 
L 256.318513 134.814718 
L 258.506683 135.188098 
L 260.572035 135.458979 
L 262.4803 135.60733 
L 264.199927 135.621309 
L 265.702621 135.49807 
L 266.963808 135.243983 
L 267.96303 134.874247 
L 268.684271 134.411914 
L 269.116189 133.886404 
z
" style="fill:#0000ff;stroke:#000000;stroke-linejoin:miter;"/>
   </g>
   <g id="patch_6">
    <path clip-path="url(#p4b07e5206e)" d="M 256.758546 141.774248 
L 191.543692 143.269784 
L 191.66832 148.704356 
L 256.883174 147.208819 
z
" style="fill:#999999;stroke:#000000;stroke-linejoin:miter;"/>
   </g>
   <g id="text_1">
    <!-- t = 1.4 -->
    <defs>
     <path d="M 18.3125 70.21875 
L 18.3125 54.6875 
L 36.8125 54.6875 
L 36.8125 47.703125 
L 18.3125 47.703125 
L 18.3125 18.015625 
Q 18.3125 11.328125 20.140625 9.421875 
Q 21.96875 7.515625 27.59375 7.515625 
L 36.8125 7.515625 
L 36.8125 0 
L 27.59375 0 
Q 17.1875 0 13.234375 3.875 
Q 9.28125 7.765625 9.28125 18.015625 
L 9.28125 47.703125 
L 2.6875 47.703125 
L 2.6875 54.6875 
L 9.28125 54.6875 
L 9.28125 70.21875 
z
" id="DejaVuSans-116"/>
     <path id="DejaVuSans-32"/>
     <path d="M 10.59375 45.40625 
L 73.1875 45.40625 
L 73.1875 37.203125 
L 10.59375 37.203125 
z
M 10.59375 25.484375 
L 73.1875 25.484375 
L 73.1875 17.1875 
L 10.59375 17.1875 
z
" id="DejaVuSans-61"/>
     <path d="M 12.40625 8.296875 
L 28.515625 8.296875 
L 28.515625 63.921875 
L 10.984375 60.40625 
L 10.984375 69.390625 
L 28.421875 72.90625 
L 38.28125 72.90625 
L 38.28125 8.296875 
L 54.390625 8.296875 
L 54.390625 0 
L 12.40625 0 
z
" id="DejaVuSans-49"/>
     <path d="M 10.6875 12.40625 
L 21 12.40625 
L 21 0 
L 10.6875 0 
z
" id="DejaVuSans-46"/>
     <path d="M 37.796875 64.3125 
L 12.890625 25.390625 
L 37.796875 25.390625 
z
M 35.203125 72.90625 
L 47.609375 72.90625 
L 47.609375 25.390625 
L 58.015625 25.390625 
L 58.015625 17.1875 
L 47.609375 17.1875 
L 47.609375 0 
L 37.796875 0 
L 37.796875 17.1875 
L 4.890625 17.1875 
L 4.890625 26.703125 
z
" id="DejaVuSans-52"/>
    </defs>
    <g transform="translate(200.664375 28.56)scale(0.12 -0.12)">
     <use xlink:href="#DejaVuSans-116"/>
     <use x="39.208984" xlink:href="#DejaVuSans-32"/>
     <use x="70.996094" xlink:href="#DejaVuSans-61"/>
     <use x="154.785156" xlink:href="#DejaVuSans-32"/>
     <use x="186.572266" xlink:href="#DejaVuSans-49"/>
     <use x="250.195312" xlink:href="#DejaVuSans-46"/>
     <use x="281.982422" xlink:href="#DejaVuSans-52"/>
    </g>
   </g>
  </g>
 </g>
 <defs>
  <clipPath id="p4b07e5206e">
   <rect height="217.44" width="334.8" x="54" y="34.56"/>
  </clipPath>
 </defs>
</svg>
