<?xml version="1.0" encoding="utf-8" standalone="no"?>
<!DOCTYPE svg PUBLIC "-//W3C//DTD SVG 1.1//EN"
  "http://www.w3.org/Graphics/SVG/1.1/DTD/svg11.dtd">
<!-- Created with matplotlib (https://matplotlib.org/) -->
<svg height="460.8pt" version="1.1" viewBox="0 0 460.8 460.8" width="460.8pt" xmlns="http://www.w3.org/2000/svg" xmlns:xlink="http://www.w3.org/1999/xlink">
 <defs>
  <style type="text/css">
*{stroke-linecap:butt;stroke-linejoin:round;}
  </style>
 </defs>
 <g id="figure_1">
  <g id="patch_1">
   <path d="M 0 460.8 
L 460.8 460.8 
L 460.8 0 
L 0 0 
z
" style="fill:#ffffff;"/>
  </g>
  <g id="axes_1">
   <g id="patch_2">
    <path clip-path="url(#p54cd739a9f)" d="M 316.254805 320.889495 
L 316.398145 322.708344 
L 316.884829 323.964205 
L 317.85604 325.506822 
L 318.915829 326.375067 
L 320.477125 327.263764 
L 321.850545 327.531818 
L 323.619666 327.549012 
L 324.970457 327.151244 
L 326.514261 326.292725 
L 327.511701 325.326524 
L 328.452211 323.802487 
L 328.852093 322.504413 
L 328.959038 320.687995 
L 328.663457 319.375861 
L 327.910654 317.711786 
L 326.991978 316.706847 
L 325.563739 315.602538 
L 324.246892 315.15084 
L 322.492901 314.87667 
L 321.100293 315.088804 
L 319.449987 315.711899 
L 318.322577 316.535927 
L 317.180009 317.903732 
L 316.460383 319.553497 
L 316.460383 319.553497 
L 316.460383 319.553497 
L 316.460383 319.553497 
L 316.460383 319.553497 
L 316.460383 319.553497 
L 316.460383 319.553497 
L 316.460383 319.553497 
L 316.460383 319.553497 
L 316.460383 319.553497 
L 316.460383 319.553497 
L 316.460383 319.553497 
L 316.460383 319.553497 
L 316.460383 319.553497 
L 316.460383 319.553497 
L 316.460383 319.553497 
L 316.460383 319.553497 
L 316.460383 319.553497 
L 316.460383 319.553497 
L 316.460383 319.553497 
L 316.460383 319.553497 
L 316.460383 319.553497 
L 316.460383 319.553497 
L 316.460383 319.553497 
L 316.460383 319.553497 
L 316.460383 319.553497 
L 316.460383 319.553497 
L 316.460383 319.553497 
L 316.460383 319.553497 
L 316.460383 319.553497 
L 316.460383 319.553497 
L 316.460383 319.553497 
L 316.460383 319.553497 
L 316.460383 319.553497 
L 316.460383 319.553497 
L 316.460383 319.553497 
L 316.460383 319.553497 
L 316.460383 319.553497 
L 316.460383 319.553497 
L 316.460383 319.553497 
L 316.460383 319.553497 
L 316.460383 319.553497 
L 316.460383 319.553497 
L 316.460383 319.553497 
L 316.460383 319.553497 
L 316.460383 319.553497 
L 316.460383 319.553497 
L 316.460383 319.553497 
L 316.460383 319.553497 
L 316.460383 319.553497 
L 316.460383 319.553497 
L 316.460383 319.553497 
L 316.460383 319.553497 
L 316.460383 319.553497 
L 316.460383 319.553497 
L 316.460383 319.553497 
L 316.460383 319.553497 
L 316.460383 319.553497 
L 316.460383 319.553497 
L 316.460383 319.553497 
L 316.460383 319.553497 
L 316.460383 319.553497 
L 316.460383 319.553497 
L 316.460383 319.553497 
L 316.460383 319.553497 
L 316.460383 319.553497 
L 316.460383 319.553497 
L 316.460383 319.553497 
L 316.460383 319.553497 
L 316.460383 319.553497 
L 316.460383 319.553497 
L 316.460383 319.553497 
L 316.460383 319.553497 
L 316.460383 319.553497 
L 316.460383 319.553497 
L 316.460383 319.553497 
L 316.460383 319.553497 
L 316.460383 319.553497 
L 316.460383 319.553497 
L 316.460383 319.553497 
L 316.460383 319.553497 
L 316.460383 319.553497 
L 316.460383 319.553497 
L 316.460383 319.553497 
L 316.460383 319.553497 
L 316.460383 319.553497 
L 316.460383 319.553497 
L 316.460383 319.553497 
L 316.460383 319.553497 
L 316.460383 319.553497 
L 316.460383 319.553497 
L 316.460383 319.553497 
L 316.460383 319.553497 
L 316.460383 319.553497 
L 316.460383 319.553497 
L 316.460383 319.553497 
L 316.460383 319.553497 
L 316.460383 319.553497 
L 316.460383 319.553497 
L 316.460383 319.553497 
L 316.460383 319.553497 
L 316.460383 319.553497 
L 316.460383 319.553497 
L 316.460383 319.553497 
L 316.460383 319.553497 
L 316.460383 319.553497 
L 316.460383 319.553497 
L 316.460383 319.553497 
L 316.460383 319.553497 
L 316.460383 319.553497 
L 316.460383 319.553497 
L 316.460383 319.553497 
L 316.460383 319.553497 
L 316.460383 319.553497 
L 316.460383 319.553497 
L 316.460383 319.553497 
L 316.460383 319.553497 
L 316.460383 319.553497 
L 316.460383 319.553497 
L 316.460383 319.553497 
L 316.460383 319.553497 
L 316.460383 319.553497 
L 316.460383 319.553497 
L 316.460383 319.553497 
L 316.460383 319.553497 
L 316.460383 319.553497 
L 316.460383 319.553497 
L 316.460383 319.553497 
L 316.460383 319.553497 
L 316.460383 319.553497 
L 316.460383 319.553497 
L 316.460383 319.553497 
L 316.460383 319.553497 
L 316.460383 319.553497 
L 316.460383 319.553497 
L 316.460383 319.553497 
L 316.460383 319.553497 
L 316.460383 319.553497 
L 316.460383 319.553497 
L 316.460383 319.553497 
L 316.460383 319.553497 
L 316.460383 319.553497 
L 316.460383 319.553497 
L 316.460383 319.553497 
L 316.460383 319.553497 
z
" style="fill:#993333;stroke:#000000;stroke-linejoin:miter;"/>
   </g>
   <g id="patch_3">
    <path clip-path="url(#p54cd739a9f)" d="M 268.004554 288.301696 
L 322.274015 321.792302 
L 322.941861 320.710098 
L 268.6724 287.219493 
L 268.6724 287.219493 
L 268.6724 287.219493 
L 268.6724 287.219493 
L 268.6724 287.219493 
L 268.6724 287.219493 
L 268.6724 287.219493 
L 268.6724 287.219493 
L 268.6724 287.219493 
L 268.6724 287.219493 
L 268.6724 287.219493 
L 268.6724 287.219493 
L 268.6724 287.219493 
L 268.6724 287.219493 
L 268.6724 287.219493 
L 268.6724 287.219493 
L 268.6724 287.219493 
L 268.6724 287.219493 
L 268.6724 287.219493 
L 268.6724 287.219493 
L 268.6724 287.219493 
L 268.6724 287.219493 
L 268.6724 287.219493 
L 268.6724 287.219493 
L 268.6724 287.219493 
L 268.6724 287.219493 
L 268.6724 287.219493 
L 268.6724 287.219493 
L 268.6724 287.219493 
L 268.6724 287.219493 
L 268.6724 287.219493 
L 268.6724 287.219493 
L 268.6724 287.219493 
L 268.6724 287.219493 
L 268.6724 287.219493 
L 268.6724 287.219493 
L 268.6724 287.219493 
L 268.6724 287.219493 
L 268.6724 287.219493 
L 268.6724 287.219493 
L 268.6724 287.219493 
L 268.6724 287.219493 
L 268.6724 287.219493 
L 268.6724 287.219493 
L 268.6724 287.219493 
L 268.6724 287.219493 
L 268.6724 287.219493 
L 268.6724 287.219493 
L 268.6724 287.219493 
z
" style="stroke:#000000;stroke-linejoin:miter;"/>
   </g>
   <g id="patch_4">
    <path clip-path="url(#p54cd739a9f)" d="M 262.012314 287.467927 
L 262.145077 289.285973 
L 262.672814 290.550289 
L 263.633678 292.068238 
L 264.720225 292.950027 
L 266.273938 293.796232 
L 267.653269 294.079601 
L 269.419428 294.046881 
L 270.753836 293.662451 
L 272.300023 292.758818 
L 273.262798 291.800712 
L 274.210452 290.247406 
L 274.565873 288.9502 
L 274.682977 287.127525 
L 274.344024 285.808822 
L 273.601906 284.163032 
L 272.651567 283.145696 
L 271.231923 282.079738 
L 269.902874 281.612848 
L 268.153283 281.387706 
L 266.770922 281.585572 
L 265.119744 282.256369 
L 263.709495 283.374753 
L 262.900439 284.45761 
L 262.172595 286.130632 
L 262.172595 286.130632 
L 262.172595 286.130632 
L 262.172595 286.130632 
L 262.172595 286.130632 
L 262.172595 286.130632 
L 262.172595 286.130632 
L 262.172595 286.130632 
L 262.172595 286.130632 
L 262.172595 286.130632 
L 262.172595 286.130632 
L 262.172595 286.130632 
L 262.172595 286.130632 
L 262.172595 286.130632 
L 262.172595 286.130632 
L 262.172595 286.130632 
L 262.172595 286.130632 
L 262.172595 286.130632 
L 262.172595 286.130632 
L 262.172595 286.130632 
L 262.172595 286.130632 
L 262.172595 286.130632 
L 262.172595 286.130632 
L 262.172595 286.130632 
L 262.172595 286.130632 
L 262.172595 286.130632 
L 262.172595 286.130632 
L 262.172595 286.130632 
L 262.172595 286.130632 
L 262.172595 286.130632 
L 262.172595 286.130632 
L 262.172595 286.130632 
L 262.172595 286.130632 
L 262.172595 286.130632 
L 262.172595 286.130632 
L 262.172595 286.130632 
L 262.172595 286.130632 
L 262.172595 286.130632 
L 262.172595 286.130632 
L 262.172595 286.130632 
L 262.172595 286.130632 
L 262.172595 286.130632 
L 262.172595 286.130632 
L 262.172595 286.130632 
L 262.172595 286.130632 
L 262.172595 286.130632 
L 262.172595 286.130632 
L 262.172595 286.130632 
L 262.172595 286.130632 
L 262.172595 286.130632 
L 262.172595 286.130632 
L 262.172595 286.130632 
L 262.172595 286.130632 
L 262.172595 286.130632 
L 262.172595 286.130632 
L 262.172595 286.130632 
L 262.172595 286.130632 
L 262.172595 286.130632 
L 262.172595 286.130632 
L 262.172595 286.130632 
L 262.172595 286.130632 
L 262.172595 286.130632 
L 262.172595 286.130632 
L 262.172595 286.130632 
L 262.172595 286.130632 
L 262.172595 286.130632 
L 262.172595 286.130632 
L 262.172595 286.130632 
L 262.172595 286.130632 
L 262.172595 286.130632 
L 262.172595 286.130632 
L 262.172595 286.130632 
L 262.172595 286.130632 
L 262.172595 286.130632 
L 262.172595 286.130632 
L 262.172595 286.130632 
L 262.172595 286.130632 
L 262.172595 286.130632 
L 262.172595 286.130632 
L 262.172595 286.130632 
L 262.172595 286.130632 
L 262.172595 286.130632 
L 262.172595 286.130632 
L 262.172595 286.130632 
L 262.172595 286.130632 
L 262.172595 286.130632 
L 262.172595 286.130632 
L 262.172595 286.130632 
L 262.172595 286.130632 
L 262.172595 286.130632 
L 262.172595 286.130632 
L 262.172595 286.130632 
L 262.172595 286.130632 
L 262.172595 286.130632 
L 262.172595 286.130632 
L 262.172595 286.130632 
L 262.172595 286.130632 
L 262.172595 286.130632 
L 262.172595 286.130632 
L 262.172595 286.130632 
L 262.172595 286.130632 
L 262.172595 286.130632 
L 262.172595 286.130632 
L 262.172595 286.130632 
L 262.172595 286.130632 
L 262.172595 286.130632 
L 262.172595 286.130632 
L 262.172595 286.130632 
L 262.172595 286.130632 
L 262.172595 286.130632 
L 262.172595 286.130632 
L 262.172595 286.130632 
L 262.172595 286.130632 
L 262.172595 286.130632 
L 262.172595 286.130632 
L 262.172595 286.130632 
L 262.172595 286.130632 
L 262.172595 286.130632 
L 262.172595 286.130632 
L 262.172595 286.130632 
L 262.172595 286.130632 
L 262.172595 286.130632 
L 262.172595 286.130632 
L 262.172595 286.130632 
L 262.172595 286.130632 
L 262.172595 286.130632 
L 262.172595 286.130632 
L 262.172595 286.130632 
L 262.172595 286.130632 
L 262.172595 286.130632 
L 262.172595 286.130632 
L 262.172595 286.130632 
L 262.172595 286.130632 
L 262.172595 286.130632 
L 262.172595 286.130632 
L 262.172595 286.130632 
L 262.172595 286.130632 
L 262.172595 286.130632 
L 262.172595 286.130632 
L 262.172595 286.130632 
L 262.172595 286.130632 
L 262.172595 286.130632 
L 262.172595 286.130632 
L 262.172595 286.130632 
L 262.172595 286.130632 
z
" style="fill:#993333;stroke:#000000;stroke-linejoin:miter;"/>
   </g>
   <g id="patch_5">
    <path clip-path="url(#p54cd739a9f)" d="M 235.61265 233.023886 
L 267.790144 288.082073 
L 268.888076 287.440412 
L 236.710582 232.382225 
L 236.710582 232.382225 
L 236.710582 232.382225 
L 236.710582 232.382225 
L 236.710582 232.382225 
L 236.710582 232.382225 
L 236.710582 232.382225 
L 236.710582 232.382225 
L 236.710582 232.382225 
L 236.710582 232.382225 
L 236.710582 232.382225 
L 236.710582 232.382225 
L 236.710582 232.382225 
L 236.710582 232.382225 
L 236.710582 232.382225 
L 236.710582 232.382225 
L 236.710582 232.382225 
L 236.710582 232.382225 
L 236.710582 232.382225 
L 236.710582 232.382225 
L 236.710582 232.382225 
L 236.710582 232.382225 
L 236.710582 232.382225 
L 236.710582 232.382225 
L 236.710582 232.382225 
L 236.710582 232.382225 
L 236.710582 232.382225 
L 236.710582 232.382225 
L 236.710582 232.382225 
L 236.710582 232.382225 
L 236.710582 232.382225 
L 236.710582 232.382225 
L 236.710582 232.382225 
L 236.710582 232.382225 
L 236.710582 232.382225 
L 236.710582 232.382225 
L 236.710582 232.382225 
L 236.710582 232.382225 
L 236.710582 232.382225 
L 236.710582 232.382225 
L 236.710582 232.382225 
L 236.710582 232.382225 
L 236.710582 232.382225 
L 236.710582 232.382225 
L 236.710582 232.382225 
L 236.710582 232.382225 
L 236.710582 232.382225 
L 236.710582 232.382225 
L 236.710582 232.382225 
z
" style="stroke:#000000;stroke-linejoin:miter;"/>
   </g>
   <g id="text_1">
    <!-- t = 3.9 -->
    <defs>
     <path d="M 18.3125 70.21875 
L 18.3125 54.6875 
L 36.8125 54.6875 
L 36.8125 47.703125 
L 18.3125 47.703125 
L 18.3125 18.015625 
Q 18.3125 11.328125 20.140625 9.421875 
Q 21.96875 7.515625 27.59375 7.515625 
L 36.8125 7.515625 
L 36.8125 0 
L 27.59375 0 
Q 17.1875 0 13.234375 3.875 
Q 9.28125 7.765625 9.28125 18.015625 
L 9.28125 47.703125 
L 2.6875 47.703125 
L 2.6875 54.6875 
L 9.28125 54.6875 
L 9.28125 70.21875 
z
" id="DejaVuSans-116"/>
     <path id="DejaVuSans-32"/>
     <path d="M 10.59375 45.40625 
L 73.1875 45.40625 
L 73.1875 37.203125 
L 10.59375 37.203125 
z
M 10.59375 25.484375 
L 73.1875 25.484375 
L 73.1875 17.1875 
L 10.59375 17.1875 
z
" id="DejaVuSans-61"/>
     <path d="M 40.578125 39.3125 
Q 47.65625 37.796875 51.625 33 
Q 55.609375 28.21875 55.609375 21.1875 
Q 55.609375 10.40625 48.1875 4.484375 
Q 40.765625 -1.421875 27.09375 -1.421875 
Q 22.515625 -1.421875 17.65625 -0.515625 
Q 12.796875 0.390625 7.625 2.203125 
L 7.625 11.71875 
Q 11.71875 9.328125 16.59375 8.109375 
Q 21.484375 6.890625 26.8125 6.890625 
Q 36.078125 6.890625 40.9375 10.546875 
Q 45.796875 14.203125 45.796875 21.1875 
Q 45.796875 27.640625 41.28125 31.265625 
Q 36.765625 34.90625 28.71875 34.90625 
L 20.21875 34.90625 
L 20.21875 43.015625 
L 29.109375 43.015625 
Q 36.375 43.015625 40.234375 45.921875 
Q 44.09375 48.828125 44.09375 54.296875 
Q 44.09375 59.90625 40.109375 62.90625 
Q 36.140625 65.921875 28.71875 65.921875 
Q 24.65625 65.921875 20.015625 65.03125 
Q 15.375 64.15625 9.8125 62.3125 
L 9.8125 71.09375 
Q 15.4375 72.65625 20.34375 73.4375 
Q 25.25 74.21875 29.59375 74.21875 
Q 40.828125 74.21875 47.359375 69.109375 
Q 53.90625 64.015625 53.90625 55.328125 
Q 53.90625 49.265625 50.4375 45.09375 
Q 46.96875 40.921875 40.578125 39.3125 
z
" id="DejaVuSans-51"/>
     <path d="M 10.6875 12.40625 
L 21 12.40625 
L 21 0 
L 10.6875 0 
z
" id="DejaVuSans-46"/>
     <path d="M 10.984375 1.515625 
L 10.984375 10.5 
Q 14.703125 8.734375 18.5 7.8125 
Q 22.3125 6.890625 25.984375 6.890625 
Q 35.75 6.890625 40.890625 13.453125 
Q 46.046875 20.015625 46.78125 33.40625 
Q 43.953125 29.203125 39.59375 26.953125 
Q 35.25 24.703125 29.984375 24.703125 
Q 19.046875 24.703125 12.671875 31.3125 
Q 6.296875 37.9375 6.296875 49.421875 
Q 6.296875 60.640625 12.9375 67.421875 
Q 19.578125 74.21875 30.609375 74.21875 
Q 43.265625 74.21875 49.921875 64.515625 
Q 56.59375 54.828125 56.59375 36.375 
Q 56.59375 19.140625 48.40625 8.859375 
Q 40.234375 -1.421875 26.421875 -1.421875 
Q 22.703125 -1.421875 18.890625 -0.6875 
Q 15.09375 0.046875 10.984375 1.515625 
z
M 30.609375 32.421875 
Q 37.25 32.421875 41.125 36.953125 
Q 45.015625 41.5 45.015625 49.421875 
Q 45.015625 57.28125 41.125 61.84375 
Q 37.25 66.40625 30.609375 66.40625 
Q 23.96875 66.40625 20.09375 61.84375 
Q 16.21875 57.28125 16.21875 49.421875 
Q 16.21875 41.5 20.09375 36.953125 
Q 23.96875 32.421875 30.609375 32.421875 
z
" id="DejaVuSans-57"/>
    </defs>
    <g transform="translate(215.424375 49.296)scale(0.12 -0.12)">
     <use xlink:href="#DejaVuSans-116"/>
     <use x="39.208984" xlink:href="#DejaVuSans-32"/>
     <use x="70.996094" xlink:href="#DejaVuSans-61"/>
     <use x="154.785156" xlink:href="#DejaVuSans-32"/>
     <use x="186.572266" xlink:href="#DejaVuSans-51"/>
     <use x="250.195312" xlink:href="#DejaVuSans-46"/>
     <use x="281.982422" xlink:href="#DejaVuSans-57"/>
    </g>
   </g>
  </g>
 </g>
 <defs>
  <clipPath id="p54cd739a9f">
   <rect height="354.816" width="357.12" x="57.6" y="55.296"/>
  </clipPath>
 </defs>
</svg>
