<?xml version="1.0" encoding="utf-8" standalone="no"?>
<!DOCTYPE svg PUBLIC "-//W3C//DTD SVG 1.1//EN"
  "http://www.w3.org/Graphics/SVG/1.1/DTD/svg11.dtd">
<!-- Created with matplotlib (https://matplotlib.org/) -->
<svg height="460.8pt" version="1.1" viewBox="0 0 460.8 460.8" width="460.8pt" xmlns="http://www.w3.org/2000/svg" xmlns:xlink="http://www.w3.org/1999/xlink">
 <defs>
  <style type="text/css">
*{stroke-linecap:butt;stroke-linejoin:round;}
  </style>
 </defs>
 <g id="figure_1">
  <g id="patch_1">
   <path d="M 0 460.8 
L 460.8 460.8 
L 460.8 0 
L 0 0 
z
" style="fill:#ffffff;"/>
  </g>
  <g id="axes_1">
   <g id="patch_2">
    <path clip-path="url(#p69f2946d07)" d="M 314.143281 322.082136 
L 313.288255 323.665966 
L 312.971709 324.980101 
L 312.962493 326.804566 
L 313.342485 328.096717 
L 314.181335 329.715126 
L 315.164829 330.66893 
L 316.646366 331.685038 
L 317.99257 332.06697 
L 319.754061 332.232 
L 321.133376 331.948551 
L 322.743547 331.222097 
L 323.818269 330.342663 
L 324.882894 328.902587 
L 325.389894 327.642486 
L 325.648316 325.841367 
L 325.463462 324.509116 
L 324.852409 322.787932 
L 324.020961 321.709711 
L 322.690041 320.489868 
L 321.415565 319.929664 
L 319.690634 319.509822 
L 318.285167 319.604793 
L 316.588548 320.087743 
L 315.396197 320.814636 
L 315.396197 320.814636 
L 315.396197 320.814636 
L 315.396197 320.814636 
L 315.396197 320.814636 
L 315.396197 320.814636 
L 315.396197 320.814636 
L 315.396197 320.814636 
L 315.396197 320.814636 
L 315.396197 320.814636 
L 315.396197 320.814636 
L 315.396197 320.814636 
L 315.396197 320.814636 
L 315.396197 320.814636 
L 315.396197 320.814636 
L 315.396197 320.814636 
L 315.396197 320.814636 
L 315.396197 320.814636 
L 315.396197 320.814636 
L 315.396197 320.814636 
L 315.396197 320.814636 
L 315.396197 320.814636 
L 315.396197 320.814636 
L 315.396197 320.814636 
L 315.396197 320.814636 
L 315.396197 320.814636 
L 315.396197 320.814636 
L 315.396197 320.814636 
L 315.396197 320.814636 
L 315.396197 320.814636 
L 315.396197 320.814636 
L 315.396197 320.814636 
L 315.396197 320.814636 
L 315.396197 320.814636 
L 315.396197 320.814636 
L 315.396197 320.814636 
L 315.396197 320.814636 
L 315.396197 320.814636 
L 315.396197 320.814636 
L 315.396197 320.814636 
L 315.396197 320.814636 
L 315.396197 320.814636 
L 315.396197 320.814636 
L 315.396197 320.814636 
L 315.396197 320.814636 
L 315.396197 320.814636 
L 315.396197 320.814636 
L 315.396197 320.814636 
L 315.396197 320.814636 
L 315.396197 320.814636 
L 315.396197 320.814636 
L 315.396197 320.814636 
L 315.396197 320.814636 
L 315.396197 320.814636 
L 315.396197 320.814636 
L 315.396197 320.814636 
L 315.396197 320.814636 
L 315.396197 320.814636 
L 315.396197 320.814636 
L 315.396197 320.814636 
L 315.396197 320.814636 
L 315.396197 320.814636 
L 315.396197 320.814636 
L 315.396197 320.814636 
L 315.396197 320.814636 
L 315.396197 320.814636 
L 315.396197 320.814636 
L 315.396197 320.814636 
L 315.396197 320.814636 
L 315.396197 320.814636 
L 315.396197 320.814636 
L 315.396197 320.814636 
L 315.396197 320.814636 
L 315.396197 320.814636 
L 315.396197 320.814636 
L 315.396197 320.814636 
L 315.396197 320.814636 
L 315.396197 320.814636 
L 315.396197 320.814636 
L 315.396197 320.814636 
L 315.396197 320.814636 
L 315.396197 320.814636 
L 315.396197 320.814636 
L 315.396197 320.814636 
L 315.396197 320.814636 
L 315.396197 320.814636 
L 315.396197 320.814636 
L 315.396197 320.814636 
L 315.396197 320.814636 
L 315.396197 320.814636 
L 315.396197 320.814636 
L 315.396197 320.814636 
L 315.396197 320.814636 
L 315.396197 320.814636 
L 315.396197 320.814636 
L 315.396197 320.814636 
L 315.396197 320.814636 
L 315.396197 320.814636 
L 315.396197 320.814636 
L 315.396197 320.814636 
L 315.396197 320.814636 
L 315.396197 320.814636 
L 315.396197 320.814636 
L 315.396197 320.814636 
L 315.396197 320.814636 
L 315.396197 320.814636 
L 315.396197 320.814636 
L 315.396197 320.814636 
L 315.396197 320.814636 
L 315.396197 320.814636 
L 315.396197 320.814636 
L 315.396197 320.814636 
L 315.396197 320.814636 
L 315.396197 320.814636 
L 315.396197 320.814636 
L 315.396197 320.814636 
L 315.396197 320.814636 
L 315.396197 320.814636 
L 315.396197 320.814636 
L 315.396197 320.814636 
L 315.396197 320.814636 
L 315.396197 320.814636 
L 315.396197 320.814636 
L 315.396197 320.814636 
L 315.396197 320.814636 
L 315.396197 320.814636 
L 315.396197 320.814636 
L 315.396197 320.814636 
L 315.396197 320.814636 
L 315.396197 320.814636 
L 315.396197 320.814636 
L 315.396197 320.814636 
L 315.396197 320.814636 
L 315.396197 320.814636 
L 315.396197 320.814636 
L 315.396197 320.814636 
L 315.396197 320.814636 
L 315.396197 320.814636 
L 315.396197 320.814636 
L 315.396197 320.814636 
L 315.396197 320.814636 
L 315.396197 320.814636 
L 315.396197 320.814636 
L 315.396197 320.814636 
L 315.396197 320.814636 
z
" style="fill:#993333;stroke:#000000;stroke-linejoin:miter;"/>
   </g>
   <g id="patch_3">
    <path clip-path="url(#p69f2946d07)" d="M 268.370644 287.450121 
L 267.614665 288.472705 
L 318.894375 326.382947 
L 319.650354 325.360363 
L 319.650354 325.360363 
L 319.650354 325.360363 
L 319.650354 325.360363 
L 319.650354 325.360363 
L 319.650354 325.360363 
L 319.650354 325.360363 
L 319.650354 325.360363 
L 319.650354 325.360363 
L 319.650354 325.360363 
L 319.650354 325.360363 
L 319.650354 325.360363 
L 319.650354 325.360363 
L 319.650354 325.360363 
L 319.650354 325.360363 
L 319.650354 325.360363 
L 319.650354 325.360363 
L 319.650354 325.360363 
L 319.650354 325.360363 
L 319.650354 325.360363 
L 319.650354 325.360363 
L 319.650354 325.360363 
L 319.650354 325.360363 
L 319.650354 325.360363 
L 319.650354 325.360363 
L 319.650354 325.360363 
L 319.650354 325.360363 
L 319.650354 325.360363 
L 319.650354 325.360363 
L 319.650354 325.360363 
L 319.650354 325.360363 
L 319.650354 325.360363 
L 319.650354 325.360363 
L 319.650354 325.360363 
L 319.650354 325.360363 
L 319.650354 325.360363 
L 319.650354 325.360363 
L 319.650354 325.360363 
L 319.650354 325.360363 
L 319.650354 325.360363 
L 319.650354 325.360363 
L 319.650354 325.360363 
L 319.650354 325.360363 
L 319.650354 325.360363 
L 319.650354 325.360363 
L 319.650354 325.360363 
L 319.650354 325.360363 
L 319.650354 325.360363 
L 319.650354 325.360363 
z
" style="stroke:#000000;stroke-linejoin:miter;"/>
   </g>
   <g id="patch_4">
    <path clip-path="url(#p69f2946d07)" d="M 261.668332 287.628993 
L 261.78969 289.447835 
L 262.309487 290.715437 
L 263.260812 292.239382 
L 264.341807 293.127968 
L 265.890182 293.983901 
L 267.267709 294.275916 
L 269.034038 294.254274 
L 270.370831 293.878221 
L 271.922655 292.984303 
L 272.89142 292.032254 
L 273.848798 290.484922 
L 274.212348 289.189971 
L 274.340881 287.368067 
L 274.010206 286.047263 
L 273.278424 284.396852 
L 272.334485 283.373575 
L 270.921554 282.298734 
L 269.59546 281.823517 
L 267.847315 281.587406 
L 266.46374 281.776599 
L 264.808388 282.437026 
L 263.391152 283.546544 
L 262.57532 284.624305 
L 261.836997 286.292729 
L 261.836997 286.292729 
L 261.836997 286.292729 
L 261.836997 286.292729 
L 261.836997 286.292729 
L 261.836997 286.292729 
L 261.836997 286.292729 
L 261.836997 286.292729 
L 261.836997 286.292729 
L 261.836997 286.292729 
L 261.836997 286.292729 
L 261.836997 286.292729 
L 261.836997 286.292729 
L 261.836997 286.292729 
L 261.836997 286.292729 
L 261.836997 286.292729 
L 261.836997 286.292729 
L 261.836997 286.292729 
L 261.836997 286.292729 
L 261.836997 286.292729 
L 261.836997 286.292729 
L 261.836997 286.292729 
L 261.836997 286.292729 
L 261.836997 286.292729 
L 261.836997 286.292729 
L 261.836997 286.292729 
L 261.836997 286.292729 
L 261.836997 286.292729 
L 261.836997 286.292729 
L 261.836997 286.292729 
L 261.836997 286.292729 
L 261.836997 286.292729 
L 261.836997 286.292729 
L 261.836997 286.292729 
L 261.836997 286.292729 
L 261.836997 286.292729 
L 261.836997 286.292729 
L 261.836997 286.292729 
L 261.836997 286.292729 
L 261.836997 286.292729 
L 261.836997 286.292729 
L 261.836997 286.292729 
L 261.836997 286.292729 
L 261.836997 286.292729 
L 261.836997 286.292729 
L 261.836997 286.292729 
L 261.836997 286.292729 
L 261.836997 286.292729 
L 261.836997 286.292729 
L 261.836997 286.292729 
L 261.836997 286.292729 
L 261.836997 286.292729 
L 261.836997 286.292729 
L 261.836997 286.292729 
L 261.836997 286.292729 
L 261.836997 286.292729 
L 261.836997 286.292729 
L 261.836997 286.292729 
L 261.836997 286.292729 
L 261.836997 286.292729 
L 261.836997 286.292729 
L 261.836997 286.292729 
L 261.836997 286.292729 
L 261.836997 286.292729 
L 261.836997 286.292729 
L 261.836997 286.292729 
L 261.836997 286.292729 
L 261.836997 286.292729 
L 261.836997 286.292729 
L 261.836997 286.292729 
L 261.836997 286.292729 
L 261.836997 286.292729 
L 261.836997 286.292729 
L 261.836997 286.292729 
L 261.836997 286.292729 
L 261.836997 286.292729 
L 261.836997 286.292729 
L 261.836997 286.292729 
L 261.836997 286.292729 
L 261.836997 286.292729 
L 261.836997 286.292729 
L 261.836997 286.292729 
L 261.836997 286.292729 
L 261.836997 286.292729 
L 261.836997 286.292729 
L 261.836997 286.292729 
L 261.836997 286.292729 
L 261.836997 286.292729 
L 261.836997 286.292729 
L 261.836997 286.292729 
L 261.836997 286.292729 
L 261.836997 286.292729 
L 261.836997 286.292729 
L 261.836997 286.292729 
L 261.836997 286.292729 
L 261.836997 286.292729 
L 261.836997 286.292729 
L 261.836997 286.292729 
L 261.836997 286.292729 
L 261.836997 286.292729 
L 261.836997 286.292729 
L 261.836997 286.292729 
L 261.836997 286.292729 
L 261.836997 286.292729 
L 261.836997 286.292729 
L 261.836997 286.292729 
L 261.836997 286.292729 
L 261.836997 286.292729 
L 261.836997 286.292729 
L 261.836997 286.292729 
L 261.836997 286.292729 
L 261.836997 286.292729 
L 261.836997 286.292729 
L 261.836997 286.292729 
L 261.836997 286.292729 
L 261.836997 286.292729 
L 261.836997 286.292729 
L 261.836997 286.292729 
L 261.836997 286.292729 
L 261.836997 286.292729 
L 261.836997 286.292729 
L 261.836997 286.292729 
L 261.836997 286.292729 
L 261.836997 286.292729 
L 261.836997 286.292729 
L 261.836997 286.292729 
L 261.836997 286.292729 
L 261.836997 286.292729 
L 261.836997 286.292729 
L 261.836997 286.292729 
L 261.836997 286.292729 
L 261.836997 286.292729 
L 261.836997 286.292729 
L 261.836997 286.292729 
L 261.836997 286.292729 
L 261.836997 286.292729 
L 261.836997 286.292729 
L 261.836997 286.292729 
L 261.836997 286.292729 
L 261.836997 286.292729 
L 261.836997 286.292729 
L 261.836997 286.292729 
L 261.836997 286.292729 
L 261.836997 286.292729 
L 261.836997 286.292729 
z
" style="fill:#993333;stroke:#000000;stroke-linejoin:miter;"/>
   </g>
   <g id="patch_5">
    <path clip-path="url(#p69f2946d07)" d="M 236.712589 232.385685 
L 235.610655 233.020447 
L 267.442197 288.279365 
L 268.544131 287.644603 
L 268.544131 287.644603 
L 268.544131 287.644603 
L 268.544131 287.644603 
L 268.544131 287.644603 
L 268.544131 287.644603 
L 268.544131 287.644603 
L 268.544131 287.644603 
L 268.544131 287.644603 
L 268.544131 287.644603 
L 268.544131 287.644603 
L 268.544131 287.644603 
L 268.544131 287.644603 
L 268.544131 287.644603 
L 268.544131 287.644603 
L 268.544131 287.644603 
L 268.544131 287.644603 
L 268.544131 287.644603 
L 268.544131 287.644603 
L 268.544131 287.644603 
L 268.544131 287.644603 
L 268.544131 287.644603 
L 268.544131 287.644603 
L 268.544131 287.644603 
L 268.544131 287.644603 
L 268.544131 287.644603 
L 268.544131 287.644603 
L 268.544131 287.644603 
L 268.544131 287.644603 
L 268.544131 287.644603 
L 268.544131 287.644603 
L 268.544131 287.644603 
L 268.544131 287.644603 
L 268.544131 287.644603 
L 268.544131 287.644603 
L 268.544131 287.644603 
L 268.544131 287.644603 
L 268.544131 287.644603 
L 268.544131 287.644603 
L 268.544131 287.644603 
L 268.544131 287.644603 
L 268.544131 287.644603 
L 268.544131 287.644603 
L 268.544131 287.644603 
L 268.544131 287.644603 
L 268.544131 287.644603 
L 268.544131 287.644603 
L 268.544131 287.644603 
L 268.544131 287.644603 
z
" style="stroke:#000000;stroke-linejoin:miter;"/>
   </g>
   <g id="text_1">
    <!-- t = 4.7 -->
    <defs>
     <path d="M 18.3125 70.21875 
L 18.3125 54.6875 
L 36.8125 54.6875 
L 36.8125 47.703125 
L 18.3125 47.703125 
L 18.3125 18.015625 
Q 18.3125 11.328125 20.140625 9.421875 
Q 21.96875 7.515625 27.59375 7.515625 
L 36.8125 7.515625 
L 36.8125 0 
L 27.59375 0 
Q 17.1875 0 13.234375 3.875 
Q 9.28125 7.765625 9.28125 18.015625 
L 9.28125 47.703125 
L 2.6875 47.703125 
L 2.6875 54.6875 
L 9.28125 54.6875 
L 9.28125 70.21875 
z
" id="DejaVuSans-116"/>
     <path id="DejaVuSans-32"/>
     <path d="M 10.59375 45.40625 
L 73.1875 45.40625 
L 73.1875 37.203125 
L 10.59375 37.203125 
z
M 10.59375 25.484375 
L 73.1875 25.484375 
L 73.1875 17.1875 
L 10.59375 17.1875 
z
" id="DejaVuSans-61"/>
     <path d="M 37.796875 64.3125 
L 12.890625 25.390625 
L 37.796875 25.390625 
z
M 35.203125 72.90625 
L 47.609375 72.90625 
L 47.609375 25.390625 
L 58.015625 25.390625 
L 58.015625 17.1875 
L 47.609375 17.1875 
L 47.609375 0 
L 37.796875 0 
L 37.796875 17.1875 
L 4.890625 17.1875 
L 4.890625 26.703125 
z
" id="DejaVuSans-52"/>
     <path d="M 10.6875 12.40625 
L 21 12.40625 
L 21 0 
L 10.6875 0 
z
" id="DejaVuSans-46"/>
     <path d="M 8.203125 72.90625 
L 55.078125 72.90625 
L 55.078125 68.703125 
L 28.609375 0 
L 18.3125 0 
L 43.21875 64.59375 
L 8.203125 64.59375 
z
" id="DejaVuSans-55"/>
    </defs>
    <g transform="translate(215.424375 49.296)scale(0.12 -0.12)">
     <use xlink:href="#DejaVuSans-116"/>
     <use x="39.208984" xlink:href="#DejaVuSans-32"/>
     <use x="70.996094" xlink:href="#DejaVuSans-61"/>
     <use x="154.785156" xlink:href="#DejaVuSans-32"/>
     <use x="186.572266" xlink:href="#DejaVuSans-52"/>
     <use x="250.195312" xlink:href="#DejaVuSans-46"/>
     <use x="281.982422" xlink:href="#DejaVuSans-55"/>
    </g>
   </g>
  </g>
 </g>
 <defs>
  <clipPath id="p69f2946d07">
   <rect height="354.816" width="357.12" x="57.6" y="55.296"/>
  </clipPath>
 </defs>
</svg>
