<?xml version="1.0" encoding="utf-8" standalone="no"?>
<!DOCTYPE svg PUBLIC "-//W3C//DTD SVG 1.1//EN"
  "http://www.w3.org/Graphics/SVG/1.1/DTD/svg11.dtd">
<!-- Created with matplotlib (https://matplotlib.org/) -->
<svg height="460.8pt" version="1.1" viewBox="0 0 460.8 460.8" width="460.8pt" xmlns="http://www.w3.org/2000/svg" xmlns:xlink="http://www.w3.org/1999/xlink">
 <defs>
  <style type="text/css">
*{stroke-linecap:butt;stroke-linejoin:round;}
  </style>
 </defs>
 <g id="figure_1">
  <g id="patch_1">
   <path d="M 0 460.8 
L 460.8 460.8 
L 460.8 0 
L 0 0 
z
" style="fill:#ffffff;"/>
  </g>
  <g id="axes_1">
   <g id="patch_2">
    <path clip-path="url(#peb9cb51bf6)" d="M 144.560384 323.967534 
L 144.463862 325.37236 
L 144.732282 327.118309 
L 145.291567 328.389384 
L 146.393698 329.800962 
L 147.471858 330.627082 
L 149.13786 331.358687 
L 150.470924 331.537588 
L 152.292902 331.410097 
L 153.55449 330.897979 
L 155.086359 329.942606 
L 155.967589 328.864853 
L 156.834296 327.315507 
L 157.119413 325.93599 
L 157.108756 324.172005 
L 156.727954 322.828478 
L 155.842543 321.281739 
L 154.545751 320.033574 
L 153.364498 319.376464 
L 151.609224 318.878695 
L 150.262505 318.89854 
L 148.478501 319.273038 
L 147.296039 319.964981 
L 145.920092 321.120056 
L 145.191394 322.314684 
L 145.191394 322.314684 
L 145.191394 322.314684 
L 145.191394 322.314684 
L 145.191394 322.314684 
L 145.191394 322.314684 
L 145.191394 322.314684 
L 145.191394 322.314684 
L 145.191394 322.314684 
L 145.191394 322.314684 
L 145.191394 322.314684 
L 145.191394 322.314684 
L 145.191394 322.314684 
L 145.191394 322.314684 
L 145.191394 322.314684 
L 145.191394 322.314684 
L 145.191394 322.314684 
L 145.191394 322.314684 
L 145.191394 322.314684 
L 145.191394 322.314684 
L 145.191394 322.314684 
L 145.191394 322.314684 
L 145.191394 322.314684 
L 145.191394 322.314684 
L 145.191394 322.314684 
L 145.191394 322.314684 
L 145.191394 322.314684 
L 145.191394 322.314684 
L 145.191394 322.314684 
L 145.191394 322.314684 
L 145.191394 322.314684 
L 145.191394 322.314684 
L 145.191394 322.314684 
L 145.191394 322.314684 
L 145.191394 322.314684 
L 145.191394 322.314684 
L 145.191394 322.314684 
L 145.191394 322.314684 
L 145.191394 322.314684 
L 145.191394 322.314684 
L 145.191394 322.314684 
L 145.191394 322.314684 
L 145.191394 322.314684 
L 145.191394 322.314684 
L 145.191394 322.314684 
L 145.191394 322.314684 
L 145.191394 322.314684 
L 145.191394 322.314684 
L 145.191394 322.314684 
L 145.191394 322.314684 
L 145.191394 322.314684 
L 145.191394 322.314684 
L 145.191394 322.314684 
L 145.191394 322.314684 
L 145.191394 322.314684 
L 145.191394 322.314684 
L 145.191394 322.314684 
L 145.191394 322.314684 
L 145.191394 322.314684 
L 145.191394 322.314684 
L 145.191394 322.314684 
L 145.191394 322.314684 
L 145.191394 322.314684 
L 145.191394 322.314684 
L 145.191394 322.314684 
L 145.191394 322.314684 
L 145.191394 322.314684 
L 145.191394 322.314684 
L 145.191394 322.314684 
L 145.191394 322.314684 
L 145.191394 322.314684 
L 145.191394 322.314684 
L 145.191394 322.314684 
L 145.191394 322.314684 
L 145.191394 322.314684 
L 145.191394 322.314684 
L 145.191394 322.314684 
L 145.191394 322.314684 
L 145.191394 322.314684 
L 145.191394 322.314684 
L 145.191394 322.314684 
L 145.191394 322.314684 
L 145.191394 322.314684 
L 145.191394 322.314684 
L 145.191394 322.314684 
L 145.191394 322.314684 
L 145.191394 322.314684 
L 145.191394 322.314684 
L 145.191394 322.314684 
L 145.191394 322.314684 
L 145.191394 322.314684 
L 145.191394 322.314684 
L 145.191394 322.314684 
L 145.191394 322.314684 
L 145.191394 322.314684 
L 145.191394 322.314684 
L 145.191394 322.314684 
L 145.191394 322.314684 
L 145.191394 322.314684 
L 145.191394 322.314684 
L 145.191394 322.314684 
L 145.191394 322.314684 
L 145.191394 322.314684 
L 145.191394 322.314684 
L 145.191394 322.314684 
L 145.191394 322.314684 
L 145.191394 322.314684 
L 145.191394 322.314684 
L 145.191394 322.314684 
L 145.191394 322.314684 
L 145.191394 322.314684 
L 145.191394 322.314684 
L 145.191394 322.314684 
L 145.191394 322.314684 
L 145.191394 322.314684 
L 145.191394 322.314684 
L 145.191394 322.314684 
L 145.191394 322.314684 
L 145.191394 322.314684 
L 145.191394 322.314684 
L 145.191394 322.314684 
L 145.191394 322.314684 
L 145.191394 322.314684 
L 145.191394 322.314684 
L 145.191394 322.314684 
L 145.191394 322.314684 
L 145.191394 322.314684 
L 145.191394 322.314684 
L 145.191394 322.314684 
L 145.191394 322.314684 
L 145.191394 322.314684 
L 145.191394 322.314684 
L 145.191394 322.314684 
L 145.191394 322.314684 
L 145.191394 322.314684 
L 145.191394 322.314684 
L 145.191394 322.314684 
L 145.191394 322.314684 
L 145.191394 322.314684 
L 145.191394 322.314684 
L 145.191394 322.314684 
L 145.191394 322.314684 
L 145.191394 322.314684 
L 145.191394 322.314684 
L 145.191394 322.314684 
z
" style="fill:#993333;stroke:#000000;stroke-linejoin:miter;"/>
   </g>
   <g id="patch_3">
    <path clip-path="url(#peb9cb51bf6)" d="M 200.690819 285.460822 
L 150.425897 324.70662 
L 151.208509 325.708968 
L 201.473431 286.463169 
L 201.473431 286.463169 
L 201.473431 286.463169 
L 201.473431 286.463169 
L 201.473431 286.463169 
L 201.473431 286.463169 
L 201.473431 286.463169 
L 201.473431 286.463169 
L 201.473431 286.463169 
L 201.473431 286.463169 
L 201.473431 286.463169 
L 201.473431 286.463169 
L 201.473431 286.463169 
L 201.473431 286.463169 
L 201.473431 286.463169 
L 201.473431 286.463169 
L 201.473431 286.463169 
L 201.473431 286.463169 
L 201.473431 286.463169 
L 201.473431 286.463169 
L 201.473431 286.463169 
L 201.473431 286.463169 
L 201.473431 286.463169 
L 201.473431 286.463169 
L 201.473431 286.463169 
L 201.473431 286.463169 
L 201.473431 286.463169 
L 201.473431 286.463169 
L 201.473431 286.463169 
L 201.473431 286.463169 
L 201.473431 286.463169 
L 201.473431 286.463169 
L 201.473431 286.463169 
L 201.473431 286.463169 
L 201.473431 286.463169 
L 201.473431 286.463169 
L 201.473431 286.463169 
L 201.473431 286.463169 
L 201.473431 286.463169 
L 201.473431 286.463169 
L 201.473431 286.463169 
L 201.473431 286.463169 
L 201.473431 286.463169 
L 201.473431 286.463169 
L 201.473431 286.463169 
L 201.473431 286.463169 
L 201.473431 286.463169 
L 201.473431 286.463169 
L 201.473431 286.463169 
z
" style="stroke:#000000;stroke-linejoin:miter;"/>
   </g>
   <g id="patch_4">
    <path clip-path="url(#peb9cb51bf6)" d="M 201.631745 279.621873 
L 199.809455 279.711425 
L 198.539766 280.1608 
L 196.969135 281.086021 
L 196.069964 282.119701 
L 195.135536 283.654065 
L 194.827031 285.018968 
L 194.757588 286.786809 
L 195.115281 288.14876 
L 195.927824 289.717249 
L 196.86414 290.742795 
L 198.359731 291.727911 
L 199.645428 292.165962 
L 201.457893 292.326515 
L 202.778186 292.069821 
L 204.463772 291.366501 
L 205.495408 290.477909 
L 206.641423 289.082914 
L 207.131822 287.779984 
L 207.457682 286.034857 
L 207.286777 284.63659 
L 206.712701 282.968599 
L 205.922335 281.817341 
L 204.588876 280.634868 
L 202.961087 279.866825 
L 202.961087 279.866825 
L 202.961087 279.866825 
L 202.961087 279.866825 
L 202.961087 279.866825 
L 202.961087 279.866825 
L 202.961087 279.866825 
L 202.961087 279.866825 
L 202.961087 279.866825 
L 202.961087 279.866825 
L 202.961087 279.866825 
L 202.961087 279.866825 
L 202.961087 279.866825 
L 202.961087 279.866825 
L 202.961087 279.866825 
L 202.961087 279.866825 
L 202.961087 279.866825 
L 202.961087 279.866825 
L 202.961087 279.866825 
L 202.961087 279.866825 
L 202.961087 279.866825 
L 202.961087 279.866825 
L 202.961087 279.866825 
L 202.961087 279.866825 
L 202.961087 279.866825 
L 202.961087 279.866825 
L 202.961087 279.866825 
L 202.961087 279.866825 
L 202.961087 279.866825 
L 202.961087 279.866825 
L 202.961087 279.866825 
L 202.961087 279.866825 
L 202.961087 279.866825 
L 202.961087 279.866825 
L 202.961087 279.866825 
L 202.961087 279.866825 
L 202.961087 279.866825 
L 202.961087 279.866825 
L 202.961087 279.866825 
L 202.961087 279.866825 
L 202.961087 279.866825 
L 202.961087 279.866825 
L 202.961087 279.866825 
L 202.961087 279.866825 
L 202.961087 279.866825 
L 202.961087 279.866825 
L 202.961087 279.866825 
L 202.961087 279.866825 
L 202.961087 279.866825 
L 202.961087 279.866825 
L 202.961087 279.866825 
L 202.961087 279.866825 
L 202.961087 279.866825 
L 202.961087 279.866825 
L 202.961087 279.866825 
L 202.961087 279.866825 
L 202.961087 279.866825 
L 202.961087 279.866825 
L 202.961087 279.866825 
L 202.961087 279.866825 
L 202.961087 279.866825 
L 202.961087 279.866825 
L 202.961087 279.866825 
L 202.961087 279.866825 
L 202.961087 279.866825 
L 202.961087 279.866825 
L 202.961087 279.866825 
L 202.961087 279.866825 
L 202.961087 279.866825 
L 202.961087 279.866825 
L 202.961087 279.866825 
L 202.961087 279.866825 
L 202.961087 279.866825 
L 202.961087 279.866825 
L 202.961087 279.866825 
L 202.961087 279.866825 
L 202.961087 279.866825 
L 202.961087 279.866825 
L 202.961087 279.866825 
L 202.961087 279.866825 
L 202.961087 279.866825 
L 202.961087 279.866825 
L 202.961087 279.866825 
L 202.961087 279.866825 
L 202.961087 279.866825 
L 202.961087 279.866825 
L 202.961087 279.866825 
L 202.961087 279.866825 
L 202.961087 279.866825 
L 202.961087 279.866825 
L 202.961087 279.866825 
L 202.961087 279.866825 
L 202.961087 279.866825 
L 202.961087 279.866825 
L 202.961087 279.866825 
L 202.961087 279.866825 
L 202.961087 279.866825 
L 202.961087 279.866825 
L 202.961087 279.866825 
L 202.961087 279.866825 
L 202.961087 279.866825 
L 202.961087 279.866825 
L 202.961087 279.866825 
L 202.961087 279.866825 
L 202.961087 279.866825 
L 202.961087 279.866825 
L 202.961087 279.866825 
L 202.961087 279.866825 
L 202.961087 279.866825 
L 202.961087 279.866825 
L 202.961087 279.866825 
L 202.961087 279.866825 
L 202.961087 279.866825 
L 202.961087 279.866825 
L 202.961087 279.866825 
L 202.961087 279.866825 
L 202.961087 279.866825 
L 202.961087 279.866825 
L 202.961087 279.866825 
L 202.961087 279.866825 
L 202.961087 279.866825 
L 202.961087 279.866825 
L 202.961087 279.866825 
L 202.961087 279.866825 
L 202.961087 279.866825 
L 202.961087 279.866825 
L 202.961087 279.866825 
L 202.961087 279.866825 
L 202.961087 279.866825 
L 202.961087 279.866825 
L 202.961087 279.866825 
L 202.961087 279.866825 
L 202.961087 279.866825 
L 202.961087 279.866825 
L 202.961087 279.866825 
L 202.961087 279.866825 
L 202.961087 279.866825 
L 202.961087 279.866825 
L 202.961087 279.866825 
L 202.961087 279.866825 
L 202.961087 279.866825 
L 202.961087 279.866825 
L 202.961087 279.866825 
L 202.961087 279.866825 
L 202.961087 279.866825 
z
" style="fill:#993333;stroke:#000000;stroke-linejoin:miter;"/>
   </g>
   <g id="patch_5">
    <path clip-path="url(#peb9cb51bf6)" d="M 235.630561 232.355269 
L 200.551534 285.611789 
L 201.613538 286.311311 
L 236.692565 233.05479 
L 236.692565 233.05479 
L 236.692565 233.05479 
L 236.692565 233.05479 
L 236.692565 233.05479 
L 236.692565 233.05479 
L 236.692565 233.05479 
L 236.692565 233.05479 
L 236.692565 233.05479 
L 236.692565 233.05479 
L 236.692565 233.05479 
L 236.692565 233.05479 
L 236.692565 233.05479 
L 236.692565 233.05479 
L 236.692565 233.05479 
L 236.692565 233.05479 
L 236.692565 233.05479 
L 236.692565 233.05479 
L 236.692565 233.05479 
L 236.692565 233.05479 
L 236.692565 233.05479 
L 236.692565 233.05479 
L 236.692565 233.05479 
L 236.692565 233.05479 
L 236.692565 233.05479 
L 236.692565 233.05479 
L 236.692565 233.05479 
L 236.692565 233.05479 
L 236.692565 233.05479 
L 236.692565 233.05479 
L 236.692565 233.05479 
L 236.692565 233.05479 
L 236.692565 233.05479 
L 236.692565 233.05479 
L 236.692565 233.05479 
L 236.692565 233.05479 
L 236.692565 233.05479 
L 236.692565 233.05479 
L 236.692565 233.05479 
L 236.692565 233.05479 
L 236.692565 233.05479 
L 236.692565 233.05479 
L 236.692565 233.05479 
L 236.692565 233.05479 
L 236.692565 233.05479 
L 236.692565 233.05479 
L 236.692565 233.05479 
L 236.692565 233.05479 
L 236.692565 233.05479 
z
" style="stroke:#000000;stroke-linejoin:miter;"/>
   </g>
   <g id="text_1">
    <!-- t = 3.3 -->
    <defs>
     <path d="M 18.3125 70.21875 
L 18.3125 54.6875 
L 36.8125 54.6875 
L 36.8125 47.703125 
L 18.3125 47.703125 
L 18.3125 18.015625 
Q 18.3125 11.328125 20.140625 9.421875 
Q 21.96875 7.515625 27.59375 7.515625 
L 36.8125 7.515625 
L 36.8125 0 
L 27.59375 0 
Q 17.1875 0 13.234375 3.875 
Q 9.28125 7.765625 9.28125 18.015625 
L 9.28125 47.703125 
L 2.6875 47.703125 
L 2.6875 54.6875 
L 9.28125 54.6875 
L 9.28125 70.21875 
z
" id="DejaVuSans-116"/>
     <path id="DejaVuSans-32"/>
     <path d="M 10.59375 45.40625 
L 73.1875 45.40625 
L 73.1875 37.203125 
L 10.59375 37.203125 
z
M 10.59375 25.484375 
L 73.1875 25.484375 
L 73.1875 17.1875 
L 10.59375 17.1875 
z
" id="DejaVuSans-61"/>
     <path d="M 40.578125 39.3125 
Q 47.65625 37.796875 51.625 33 
Q 55.609375 28.21875 55.609375 21.1875 
Q 55.609375 10.40625 48.1875 4.484375 
Q 40.765625 -1.421875 27.09375 -1.421875 
Q 22.515625 -1.421875 17.65625 -0.515625 
Q 12.796875 0.390625 7.625 2.203125 
L 7.625 11.71875 
Q 11.71875 9.328125 16.59375 8.109375 
Q 21.484375 6.890625 26.8125 6.890625 
Q 36.078125 6.890625 40.9375 10.546875 
Q 45.796875 14.203125 45.796875 21.1875 
Q 45.796875 27.640625 41.28125 31.265625 
Q 36.765625 34.90625 28.71875 34.90625 
L 20.21875 34.90625 
L 20.21875 43.015625 
L 29.109375 43.015625 
Q 36.375 43.015625 40.234375 45.921875 
Q 44.09375 48.828125 44.09375 54.296875 
Q 44.09375 59.90625 40.109375 62.90625 
Q 36.140625 65.921875 28.71875 65.921875 
Q 24.65625 65.921875 20.015625 65.03125 
Q 15.375 64.15625 9.8125 62.3125 
L 9.8125 71.09375 
Q 15.4375 72.65625 20.34375 73.4375 
Q 25.25 74.21875 29.59375 74.21875 
Q 40.828125 74.21875 47.359375 69.109375 
Q 53.90625 64.015625 53.90625 55.328125 
Q 53.90625 49.265625 50.4375 45.09375 
Q 46.96875 40.921875 40.578125 39.3125 
z
" id="DejaVuSans-51"/>
     <path d="M 10.6875 12.40625 
L 21 12.40625 
L 21 0 
L 10.6875 0 
z
" id="DejaVuSans-46"/>
    </defs>
    <g transform="translate(215.424375 49.296)scale(0.12 -0.12)">
     <use xlink:href="#DejaVuSans-116"/>
     <use x="39.208984" xlink:href="#DejaVuSans-32"/>
     <use x="70.996094" xlink:href="#DejaVuSans-61"/>
     <use x="154.785156" xlink:href="#DejaVuSans-32"/>
     <use x="186.572266" xlink:href="#DejaVuSans-51"/>
     <use x="250.195312" xlink:href="#DejaVuSans-46"/>
     <use x="281.982422" xlink:href="#DejaVuSans-51"/>
    </g>
   </g>
  </g>
 </g>
 <defs>
  <clipPath id="peb9cb51bf6">
   <rect height="354.816" width="357.12" x="57.6" y="55.296"/>
  </clipPath>
 </defs>
</svg>
