<?xml version="1.0" encoding="utf-8" standalone="no"?>
<!DOCTYPE svg PUBLIC "-//W3C//DTD SVG 1.1//EN"
  "http://www.w3.org/Graphics/SVG/1.1/DTD/svg11.dtd">
<!-- Created with matplotlib (https://matplotlib.org/) -->
<svg height="460.8pt" version="1.1" viewBox="0 0 460.8 460.8" width="460.8pt" xmlns="http://www.w3.org/2000/svg" xmlns:xlink="http://www.w3.org/1999/xlink">
 <defs>
  <style type="text/css">
*{stroke-linecap:butt;stroke-linejoin:round;}
  </style>
 </defs>
 <g id="figure_1">
  <g id="patch_1">
   <path d="M 0 460.8 
L 460.8 460.8 
L 460.8 0 
L 0 0 
z
" style="fill:#ffffff;"/>
  </g>
  <g id="axes_1">
   <g id="patch_2">
    <path clip-path="url(#p1e29c3f6d2)" d="M 306.631041 325.901949 
L 305.769747 327.482379 
L 305.447996 328.795249 
L 305.431552 330.619664 
L 305.806421 331.91331 
L 306.638853 333.53503 
L 307.61856 334.492722 
L 309.096059 335.514693 
L 310.440739 335.901956 
L 312.201563 336.073964 
L 313.58199 335.795981 
L 315.195026 335.075912 
L 316.273225 334.200744 
L 317.343547 332.764897 
L 317.855536 331.506815 
L 318.121091 329.706734 
L 317.941518 328.373761 
L 317.337289 326.65017 
L 316.510119 325.568663 
L 315.184043 324.343557 
L 313.911797 323.778307 
L 312.188543 323.351634 
L 310.78271 323.441035 
L 309.084191 323.91726 
L 307.888969 324.639423 
L 307.888969 324.639423 
L 307.888969 324.639423 
L 307.888969 324.639423 
L 307.888969 324.639423 
L 307.888969 324.639423 
L 307.888969 324.639423 
L 307.888969 324.639423 
L 307.888969 324.639423 
L 307.888969 324.639423 
L 307.888969 324.639423 
L 307.888969 324.639423 
L 307.888969 324.639423 
L 307.888969 324.639423 
L 307.888969 324.639423 
L 307.888969 324.639423 
L 307.888969 324.639423 
L 307.888969 324.639423 
L 307.888969 324.639423 
L 307.888969 324.639423 
L 307.888969 324.639423 
L 307.888969 324.639423 
L 307.888969 324.639423 
L 307.888969 324.639423 
L 307.888969 324.639423 
L 307.888969 324.639423 
L 307.888969 324.639423 
L 307.888969 324.639423 
L 307.888969 324.639423 
L 307.888969 324.639423 
L 307.888969 324.639423 
L 307.888969 324.639423 
L 307.888969 324.639423 
L 307.888969 324.639423 
L 307.888969 324.639423 
L 307.888969 324.639423 
L 307.888969 324.639423 
L 307.888969 324.639423 
L 307.888969 324.639423 
L 307.888969 324.639423 
L 307.888969 324.639423 
L 307.888969 324.639423 
L 307.888969 324.639423 
L 307.888969 324.639423 
L 307.888969 324.639423 
L 307.888969 324.639423 
L 307.888969 324.639423 
L 307.888969 324.639423 
L 307.888969 324.639423 
L 307.888969 324.639423 
L 307.888969 324.639423 
L 307.888969 324.639423 
L 307.888969 324.639423 
L 307.888969 324.639423 
L 307.888969 324.639423 
L 307.888969 324.639423 
L 307.888969 324.639423 
L 307.888969 324.639423 
L 307.888969 324.639423 
L 307.888969 324.639423 
L 307.888969 324.639423 
L 307.888969 324.639423 
L 307.888969 324.639423 
L 307.888969 324.639423 
L 307.888969 324.639423 
L 307.888969 324.639423 
L 307.888969 324.639423 
L 307.888969 324.639423 
L 307.888969 324.639423 
L 307.888969 324.639423 
L 307.888969 324.639423 
L 307.888969 324.639423 
L 307.888969 324.639423 
L 307.888969 324.639423 
L 307.888969 324.639423 
L 307.888969 324.639423 
L 307.888969 324.639423 
L 307.888969 324.639423 
L 307.888969 324.639423 
L 307.888969 324.639423 
L 307.888969 324.639423 
L 307.888969 324.639423 
L 307.888969 324.639423 
L 307.888969 324.639423 
L 307.888969 324.639423 
L 307.888969 324.639423 
L 307.888969 324.639423 
L 307.888969 324.639423 
L 307.888969 324.639423 
L 307.888969 324.639423 
L 307.888969 324.639423 
L 307.888969 324.639423 
L 307.888969 324.639423 
L 307.888969 324.639423 
L 307.888969 324.639423 
L 307.888969 324.639423 
L 307.888969 324.639423 
L 307.888969 324.639423 
L 307.888969 324.639423 
L 307.888969 324.639423 
L 307.888969 324.639423 
L 307.888969 324.639423 
L 307.888969 324.639423 
L 307.888969 324.639423 
L 307.888969 324.639423 
L 307.888969 324.639423 
L 307.888969 324.639423 
L 307.888969 324.639423 
L 307.888969 324.639423 
L 307.888969 324.639423 
L 307.888969 324.639423 
L 307.888969 324.639423 
L 307.888969 324.639423 
L 307.888969 324.639423 
L 307.888969 324.639423 
L 307.888969 324.639423 
L 307.888969 324.639423 
L 307.888969 324.639423 
L 307.888969 324.639423 
L 307.888969 324.639423 
L 307.888969 324.639423 
L 307.888969 324.639423 
L 307.888969 324.639423 
L 307.888969 324.639423 
L 307.888969 324.639423 
L 307.888969 324.639423 
L 307.888969 324.639423 
L 307.888969 324.639423 
L 307.888969 324.639423 
L 307.888969 324.639423 
L 307.888969 324.639423 
L 307.888969 324.639423 
L 307.888969 324.639423 
L 307.888969 324.639423 
L 307.888969 324.639423 
L 307.888969 324.639423 
L 307.888969 324.639423 
L 307.888969 324.639423 
L 307.888969 324.639423 
L 307.888969 324.639423 
L 307.888969 324.639423 
L 307.888969 324.639423 
L 307.888969 324.639423 
L 307.888969 324.639423 
L 307.888969 324.639423 
z
" style="fill:#993333;stroke:#000000;stroke-linejoin:miter;"/>
   </g>
   <g id="patch_3">
    <path clip-path="url(#p1e29c3f6d2)" d="M 260.995979 291.088851 
L 260.235954 292.108432 
L 311.365058 330.22155 
L 312.125083 329.20197 
L 312.125083 329.20197 
L 312.125083 329.20197 
L 312.125083 329.20197 
L 312.125083 329.20197 
L 312.125083 329.20197 
L 312.125083 329.20197 
L 312.125083 329.20197 
L 312.125083 329.20197 
L 312.125083 329.20197 
L 312.125083 329.20197 
L 312.125083 329.20197 
L 312.125083 329.20197 
L 312.125083 329.20197 
L 312.125083 329.20197 
L 312.125083 329.20197 
L 312.125083 329.20197 
L 312.125083 329.20197 
L 312.125083 329.20197 
L 312.125083 329.20197 
L 312.125083 329.20197 
L 312.125083 329.20197 
L 312.125083 329.20197 
L 312.125083 329.20197 
L 312.125083 329.20197 
L 312.125083 329.20197 
L 312.125083 329.20197 
L 312.125083 329.20197 
L 312.125083 329.20197 
L 312.125083 329.20197 
L 312.125083 329.20197 
L 312.125083 329.20197 
L 312.125083 329.20197 
L 312.125083 329.20197 
L 312.125083 329.20197 
L 312.125083 329.20197 
L 312.125083 329.20197 
L 312.125083 329.20197 
L 312.125083 329.20197 
L 312.125083 329.20197 
L 312.125083 329.20197 
L 312.125083 329.20197 
L 312.125083 329.20197 
L 312.125083 329.20197 
L 312.125083 329.20197 
L 312.125083 329.20197 
L 312.125083 329.20197 
L 312.125083 329.20197 
L 312.125083 329.20197 
z
" style="stroke:#000000;stroke-linejoin:miter;"/>
   </g>
   <g id="patch_4">
    <path clip-path="url(#p1e29c3f6d2)" d="M 258.169363 285.710528 
L 256.621116 286.628416 
L 255.673359 287.592214 
L 254.726446 289.151738 
L 254.387203 290.455181 
L 254.273462 292.274516 
L 254.625793 293.598474 
L 255.37307 295.232183 
L 256.330711 296.252506 
L 257.756048 297.3006 
L 259.084536 297.767477 
L 260.83896 297.973346 
L 262.213034 297.772469 
L 263.867001 297.085709 
L 264.950241 296.26626 
L 266.098802 294.855014 
L 266.625992 293.617623 
L 266.987939 291.827413 
L 266.830005 290.475036 
L 266.316721 288.744168 
L 265.512331 287.607914 
L 264.249486 286.360165 
L 262.995582 285.718229 
L 261.292364 285.259091 
L 259.895946 285.268641 
L 259.895946 285.268641 
L 259.895946 285.268641 
L 259.895946 285.268641 
L 259.895946 285.268641 
L 259.895946 285.268641 
L 259.895946 285.268641 
L 259.895946 285.268641 
L 259.895946 285.268641 
L 259.895946 285.268641 
L 259.895946 285.268641 
L 259.895946 285.268641 
L 259.895946 285.268641 
L 259.895946 285.268641 
L 259.895946 285.268641 
L 259.895946 285.268641 
L 259.895946 285.268641 
L 259.895946 285.268641 
L 259.895946 285.268641 
L 259.895946 285.268641 
L 259.895946 285.268641 
L 259.895946 285.268641 
L 259.895946 285.268641 
L 259.895946 285.268641 
L 259.895946 285.268641 
L 259.895946 285.268641 
L 259.895946 285.268641 
L 259.895946 285.268641 
L 259.895946 285.268641 
L 259.895946 285.268641 
L 259.895946 285.268641 
L 259.895946 285.268641 
L 259.895946 285.268641 
L 259.895946 285.268641 
L 259.895946 285.268641 
L 259.895946 285.268641 
L 259.895946 285.268641 
L 259.895946 285.268641 
L 259.895946 285.268641 
L 259.895946 285.268641 
L 259.895946 285.268641 
L 259.895946 285.268641 
L 259.895946 285.268641 
L 259.895946 285.268641 
L 259.895946 285.268641 
L 259.895946 285.268641 
L 259.895946 285.268641 
L 259.895946 285.268641 
L 259.895946 285.268641 
L 259.895946 285.268641 
L 259.895946 285.268641 
L 259.895946 285.268641 
L 259.895946 285.268641 
L 259.895946 285.268641 
L 259.895946 285.268641 
L 259.895946 285.268641 
L 259.895946 285.268641 
L 259.895946 285.268641 
L 259.895946 285.268641 
L 259.895946 285.268641 
L 259.895946 285.268641 
L 259.895946 285.268641 
L 259.895946 285.268641 
L 259.895946 285.268641 
L 259.895946 285.268641 
L 259.895946 285.268641 
L 259.895946 285.268641 
L 259.895946 285.268641 
L 259.895946 285.268641 
L 259.895946 285.268641 
L 259.895946 285.268641 
L 259.895946 285.268641 
L 259.895946 285.268641 
L 259.895946 285.268641 
L 259.895946 285.268641 
L 259.895946 285.268641 
L 259.895946 285.268641 
L 259.895946 285.268641 
L 259.895946 285.268641 
L 259.895946 285.268641 
L 259.895946 285.268641 
L 259.895946 285.268641 
L 259.895946 285.268641 
L 259.895946 285.268641 
L 259.895946 285.268641 
L 259.895946 285.268641 
L 259.895946 285.268641 
L 259.895946 285.268641 
L 259.895946 285.268641 
L 259.895946 285.268641 
L 259.895946 285.268641 
L 259.895946 285.268641 
L 259.895946 285.268641 
L 259.895946 285.268641 
L 259.895946 285.268641 
L 259.895946 285.268641 
L 259.895946 285.268641 
L 259.895946 285.268641 
L 259.895946 285.268641 
L 259.895946 285.268641 
L 259.895946 285.268641 
L 259.895946 285.268641 
L 259.895946 285.268641 
L 259.895946 285.268641 
L 259.895946 285.268641 
L 259.895946 285.268641 
L 259.895946 285.268641 
L 259.895946 285.268641 
L 259.895946 285.268641 
L 259.895946 285.268641 
L 259.895946 285.268641 
L 259.895946 285.268641 
L 259.895946 285.268641 
L 259.895946 285.268641 
L 259.895946 285.268641 
L 259.895946 285.268641 
L 259.895946 285.268641 
L 259.895946 285.268641 
L 259.895946 285.268641 
L 259.895946 285.268641 
L 259.895946 285.268641 
L 259.895946 285.268641 
L 259.895946 285.268641 
L 259.895946 285.268641 
L 259.895946 285.268641 
L 259.895946 285.268641 
L 259.895946 285.268641 
L 259.895946 285.268641 
L 259.895946 285.268641 
L 259.895946 285.268641 
L 259.895946 285.268641 
L 259.895946 285.268641 
L 259.895946 285.268641 
L 259.895946 285.268641 
L 259.895946 285.268641 
L 259.895946 285.268641 
L 259.895946 285.268641 
L 259.895946 285.268641 
L 259.895946 285.268641 
L 259.895946 285.268641 
L 259.895946 285.268641 
L 259.895946 285.268641 
L 259.895946 285.268641 
L 259.895946 285.268641 
L 259.895946 285.268641 
z
" style="fill:#993333;stroke:#000000;stroke-linejoin:miter;"/>
   </g>
   <g id="patch_5">
    <path clip-path="url(#p1e29c3f6d2)" d="M 235.574496 232.947113 
L 260.029343 291.843255 
L 261.203809 291.355593 
L 236.748961 232.459452 
L 236.748961 232.459452 
L 236.748961 232.459452 
L 236.748961 232.459452 
L 236.748961 232.459452 
L 236.748961 232.459452 
L 236.748961 232.459452 
L 236.748961 232.459452 
L 236.748961 232.459452 
L 236.748961 232.459452 
L 236.748961 232.459452 
L 236.748961 232.459452 
L 236.748961 232.459452 
L 236.748961 232.459452 
L 236.748961 232.459452 
L 236.748961 232.459452 
L 236.748961 232.459452 
L 236.748961 232.459452 
L 236.748961 232.459452 
L 236.748961 232.459452 
L 236.748961 232.459452 
L 236.748961 232.459452 
L 236.748961 232.459452 
L 236.748961 232.459452 
L 236.748961 232.459452 
L 236.748961 232.459452 
L 236.748961 232.459452 
L 236.748961 232.459452 
L 236.748961 232.459452 
L 236.748961 232.459452 
L 236.748961 232.459452 
L 236.748961 232.459452 
L 236.748961 232.459452 
L 236.748961 232.459452 
L 236.748961 232.459452 
L 236.748961 232.459452 
L 236.748961 232.459452 
L 236.748961 232.459452 
L 236.748961 232.459452 
L 236.748961 232.459452 
L 236.748961 232.459452 
L 236.748961 232.459452 
L 236.748961 232.459452 
L 236.748961 232.459452 
L 236.748961 232.459452 
L 236.748961 232.459452 
L 236.748961 232.459452 
L 236.748961 232.459452 
L 236.748961 232.459452 
z
" style="stroke:#000000;stroke-linejoin:miter;"/>
   </g>
   <g id="text_1">
    <!-- t = 7.6 -->
    <defs>
     <path d="M 18.3125 70.21875 
L 18.3125 54.6875 
L 36.8125 54.6875 
L 36.8125 47.703125 
L 18.3125 47.703125 
L 18.3125 18.015625 
Q 18.3125 11.328125 20.140625 9.421875 
Q 21.96875 7.515625 27.59375 7.515625 
L 36.8125 7.515625 
L 36.8125 0 
L 27.59375 0 
Q 17.1875 0 13.234375 3.875 
Q 9.28125 7.765625 9.28125 18.015625 
L 9.28125 47.703125 
L 2.6875 47.703125 
L 2.6875 54.6875 
L 9.28125 54.6875 
L 9.28125 70.21875 
z
" id="DejaVuSans-116"/>
     <path id="DejaVuSans-32"/>
     <path d="M 10.59375 45.40625 
L 73.1875 45.40625 
L 73.1875 37.203125 
L 10.59375 37.203125 
z
M 10.59375 25.484375 
L 73.1875 25.484375 
L 73.1875 17.1875 
L 10.59375 17.1875 
z
" id="DejaVuSans-61"/>
     <path d="M 8.203125 72.90625 
L 55.078125 72.90625 
L 55.078125 68.703125 
L 28.609375 0 
L 18.3125 0 
L 43.21875 64.59375 
L 8.203125 64.59375 
z
" id="DejaVuSans-55"/>
     <path d="M 10.6875 12.40625 
L 21 12.40625 
L 21 0 
L 10.6875 0 
z
" id="DejaVuSans-46"/>
     <path d="M 33.015625 40.375 
Q 26.375 40.375 22.484375 35.828125 
Q 18.609375 31.296875 18.609375 23.390625 
Q 18.609375 15.53125 22.484375 10.953125 
Q 26.375 6.390625 33.015625 6.390625 
Q 39.65625 6.390625 43.53125 10.953125 
Q 47.40625 15.53125 47.40625 23.390625 
Q 47.40625 31.296875 43.53125 35.828125 
Q 39.65625 40.375 33.015625 40.375 
z
M 52.59375 71.296875 
L 52.59375 62.3125 
Q 48.875 64.0625 45.09375 64.984375 
Q 41.3125 65.921875 37.59375 65.921875 
Q 27.828125 65.921875 22.671875 59.328125 
Q 17.53125 52.734375 16.796875 39.40625 
Q 19.671875 43.65625 24.015625 45.921875 
Q 28.375 48.1875 33.59375 48.1875 
Q 44.578125 48.1875 50.953125 41.515625 
Q 57.328125 34.859375 57.328125 23.390625 
Q 57.328125 12.15625 50.6875 5.359375 
Q 44.046875 -1.421875 33.015625 -1.421875 
Q 20.359375 -1.421875 13.671875 8.265625 
Q 6.984375 17.96875 6.984375 36.375 
Q 6.984375 53.65625 15.1875 63.9375 
Q 23.390625 74.21875 37.203125 74.21875 
Q 40.921875 74.21875 44.703125 73.484375 
Q 48.484375 72.75 52.59375 71.296875 
z
" id="DejaVuSans-54"/>
    </defs>
    <g transform="translate(215.424375 49.296)scale(0.12 -0.12)">
     <use xlink:href="#DejaVuSans-116"/>
     <use x="39.208984" xlink:href="#DejaVuSans-32"/>
     <use x="70.996094" xlink:href="#DejaVuSans-61"/>
     <use x="154.785156" xlink:href="#DejaVuSans-32"/>
     <use x="186.572266" xlink:href="#DejaVuSans-55"/>
     <use x="250.195312" xlink:href="#DejaVuSans-46"/>
     <use x="281.982422" xlink:href="#DejaVuSans-54"/>
    </g>
   </g>
  </g>
 </g>
 <defs>
  <clipPath id="p1e29c3f6d2">
   <rect height="354.816" width="357.12" x="57.6" y="55.296"/>
  </clipPath>
 </defs>
</svg>
