<?xml version="1.0" encoding="utf-8" standalone="no"?>
<!DOCTYPE svg PUBLIC "-//W3C//DTD SVG 1.1//EN"
  "http://www.w3.org/Graphics/SVG/1.1/DTD/svg11.dtd">
<!-- Created with matplotlib (https://matplotlib.org/) -->
<svg height="460.8pt" version="1.1" viewBox="0 0 460.8 460.8" width="460.8pt" xmlns="http://www.w3.org/2000/svg" xmlns:xlink="http://www.w3.org/1999/xlink">
 <defs>
  <style type="text/css">
*{stroke-linecap:butt;stroke-linejoin:round;}
  </style>
 </defs>
 <g id="figure_1">
  <g id="patch_1">
   <path d="M 0 460.8 
L 460.8 460.8 
L 460.8 0 
L 0 0 
z
" style="fill:#ffffff;"/>
  </g>
  <g id="axes_1">
   <g id="patch_2">
    <path clip-path="url(#pa22444e9b6)" d="M 334.316234 289.981544 
L 334.293798 291.781289 
L 334.623205 293.092259 
L 335.461664 294.712675 
L 336.397874 295.680951 
L 337.891944 296.725303 
L 339.20574 297.113817 
L 340.989621 297.326412 
L 342.35934 297.040043 
L 343.996275 296.368829 
L 345.086562 295.47769 
L 346.175773 294.087005 
L 346.719687 292.809277 
L 346.994497 291.039608 
L 346.85887 289.688124 
L 346.251995 287.972749 
L 345.470033 286.8784 
L 344.130058 285.637301 
L 342.893213 285.068021 
L 341.14821 284.605064 
L 339.759304 284.700233 
L 338.036511 285.128765 
L 336.835597 285.865082 
L 335.556814 287.080183 
L 334.837917 288.277372 
L 334.837917 288.277372 
L 334.837917 288.277372 
L 334.837917 288.277372 
L 334.837917 288.277372 
L 334.837917 288.277372 
L 334.837917 288.277372 
L 334.837917 288.277372 
L 334.837917 288.277372 
L 334.837917 288.277372 
L 334.837917 288.277372 
L 334.837917 288.277372 
L 334.837917 288.277372 
L 334.837917 288.277372 
L 334.837917 288.277372 
L 334.837917 288.277372 
L 334.837917 288.277372 
L 334.837917 288.277372 
L 334.837917 288.277372 
L 334.837917 288.277372 
L 334.837917 288.277372 
L 334.837917 288.277372 
L 334.837917 288.277372 
L 334.837917 288.277372 
L 334.837917 288.277372 
L 334.837917 288.277372 
L 334.837917 288.277372 
L 334.837917 288.277372 
L 334.837917 288.277372 
L 334.837917 288.277372 
L 334.837917 288.277372 
L 334.837917 288.277372 
L 334.837917 288.277372 
L 334.837917 288.277372 
L 334.837917 288.277372 
L 334.837917 288.277372 
L 334.837917 288.277372 
L 334.837917 288.277372 
L 334.837917 288.277372 
L 334.837917 288.277372 
L 334.837917 288.277372 
L 334.837917 288.277372 
L 334.837917 288.277372 
L 334.837917 288.277372 
L 334.837917 288.277372 
L 334.837917 288.277372 
L 334.837917 288.277372 
L 334.837917 288.277372 
L 334.837917 288.277372 
L 334.837917 288.277372 
L 334.837917 288.277372 
L 334.837917 288.277372 
L 334.837917 288.277372 
L 334.837917 288.277372 
L 334.837917 288.277372 
L 334.837917 288.277372 
L 334.837917 288.277372 
L 334.837917 288.277372 
L 334.837917 288.277372 
L 334.837917 288.277372 
L 334.837917 288.277372 
L 334.837917 288.277372 
L 334.837917 288.277372 
L 334.837917 288.277372 
L 334.837917 288.277372 
L 334.837917 288.277372 
L 334.837917 288.277372 
L 334.837917 288.277372 
L 334.837917 288.277372 
L 334.837917 288.277372 
L 334.837917 288.277372 
L 334.837917 288.277372 
L 334.837917 288.277372 
L 334.837917 288.277372 
L 334.837917 288.277372 
L 334.837917 288.277372 
L 334.837917 288.277372 
L 334.837917 288.277372 
L 334.837917 288.277372 
L 334.837917 288.277372 
L 334.837917 288.277372 
L 334.837917 288.277372 
L 334.837917 288.277372 
L 334.837917 288.277372 
L 334.837917 288.277372 
L 334.837917 288.277372 
L 334.837917 288.277372 
L 334.837917 288.277372 
L 334.837917 288.277372 
L 334.837917 288.277372 
L 334.837917 288.277372 
L 334.837917 288.277372 
L 334.837917 288.277372 
L 334.837917 288.277372 
L 334.837917 288.277372 
L 334.837917 288.277372 
L 334.837917 288.277372 
L 334.837917 288.277372 
L 334.837917 288.277372 
L 334.837917 288.277372 
L 334.837917 288.277372 
L 334.837917 288.277372 
L 334.837917 288.277372 
L 334.837917 288.277372 
L 334.837917 288.277372 
L 334.837917 288.277372 
L 334.837917 288.277372 
L 334.837917 288.277372 
L 334.837917 288.277372 
L 334.837917 288.277372 
L 334.837917 288.277372 
L 334.837917 288.277372 
L 334.837917 288.277372 
L 334.837917 288.277372 
L 334.837917 288.277372 
L 334.837917 288.277372 
L 334.837917 288.277372 
L 334.837917 288.277372 
L 334.837917 288.277372 
L 334.837917 288.277372 
L 334.837917 288.277372 
L 334.837917 288.277372 
L 334.837917 288.277372 
L 334.837917 288.277372 
L 334.837917 288.277372 
L 334.837917 288.277372 
L 334.837917 288.277372 
L 334.837917 288.277372 
L 334.837917 288.277372 
L 334.837917 288.277372 
L 334.837917 288.277372 
L 334.837917 288.277372 
L 334.837917 288.277372 
L 334.837917 288.277372 
L 334.837917 288.277372 
L 334.837917 288.277372 
L 334.837917 288.277372 
L 334.837917 288.277372 
L 334.837917 288.277372 
L 334.837917 288.277372 
L 334.837917 288.277372 
L 334.837917 288.277372 
L 334.837917 288.277372 
L 334.837917 288.277372 
L 334.837917 288.277372 
z
" style="fill:#993333;stroke:#000000;stroke-linejoin:miter;"/>
   </g>
   <g id="patch_3">
    <path clip-path="url(#pa22444e9b6)" d="M 277.504417 281.800872 
L 340.520567 291.586577 
L 340.715706 290.329953 
L 277.699557 280.544248 
L 277.699557 280.544248 
L 277.699557 280.544248 
L 277.699557 280.544248 
L 277.699557 280.544248 
L 277.699557 280.544248 
L 277.699557 280.544248 
L 277.699557 280.544248 
L 277.699557 280.544248 
L 277.699557 280.544248 
L 277.699557 280.544248 
L 277.699557 280.544248 
L 277.699557 280.544248 
L 277.699557 280.544248 
L 277.699557 280.544248 
L 277.699557 280.544248 
L 277.699557 280.544248 
L 277.699557 280.544248 
L 277.699557 280.544248 
L 277.699557 280.544248 
L 277.699557 280.544248 
L 277.699557 280.544248 
L 277.699557 280.544248 
L 277.699557 280.544248 
L 277.699557 280.544248 
L 277.699557 280.544248 
L 277.699557 280.544248 
L 277.699557 280.544248 
L 277.699557 280.544248 
L 277.699557 280.544248 
L 277.699557 280.544248 
L 277.699557 280.544248 
L 277.699557 280.544248 
L 277.699557 280.544248 
L 277.699557 280.544248 
L 277.699557 280.544248 
L 277.699557 280.544248 
L 277.699557 280.544248 
L 277.699557 280.544248 
L 277.699557 280.544248 
L 277.699557 280.544248 
L 277.699557 280.544248 
L 277.699557 280.544248 
L 277.699557 280.544248 
L 277.699557 280.544248 
L 277.699557 280.544248 
L 277.699557 280.544248 
L 277.699557 280.544248 
L 277.699557 280.544248 
z
" style="stroke:#000000;stroke-linejoin:miter;"/>
   </g>
   <g id="patch_4">
    <path clip-path="url(#pa22444e9b6)" d="M 276.642258 287.478965 
L 278.049986 287.512936 
L 279.782275 287.167159 
L 281.027228 286.551916 
L 282.388412 285.388118 
L 283.165781 284.274296 
L 283.822594 282.577415 
L 283.942053 281.237715 
L 283.733685 279.423207 
L 283.165985 278.185635 
L 282.143452 276.697755 
L 281.027587 275.865311 
L 279.44124 275.068343 
L 278.050411 274.84484 
L 276.288644 274.93391 
L 274.963376 275.374068 
L 273.45753 276.327368 
L 272.268253 277.67837 
L 271.664309 278.887669 
L 271.245069 280.663337 
L 271.324768 282.007843 
L 271.77821 283.773433 
L 272.522039 284.923963 
L 273.737145 286.247196 
L 274.962988 286.922062 
L 274.962988 286.922062 
L 274.962988 286.922062 
L 274.962988 286.922062 
L 274.962988 286.922062 
L 274.962988 286.922062 
L 274.962988 286.922062 
L 274.962988 286.922062 
L 274.962988 286.922062 
L 274.962988 286.922062 
L 274.962988 286.922062 
L 274.962988 286.922062 
L 274.962988 286.922062 
L 274.962988 286.922062 
L 274.962988 286.922062 
L 274.962988 286.922062 
L 274.962988 286.922062 
L 274.962988 286.922062 
L 274.962988 286.922062 
L 274.962988 286.922062 
L 274.962988 286.922062 
L 274.962988 286.922062 
L 274.962988 286.922062 
L 274.962988 286.922062 
L 274.962988 286.922062 
L 274.962988 286.922062 
L 274.962988 286.922062 
L 274.962988 286.922062 
L 274.962988 286.922062 
L 274.962988 286.922062 
L 274.962988 286.922062 
L 274.962988 286.922062 
L 274.962988 286.922062 
L 274.962988 286.922062 
L 274.962988 286.922062 
L 274.962988 286.922062 
L 274.962988 286.922062 
L 274.962988 286.922062 
L 274.962988 286.922062 
L 274.962988 286.922062 
L 274.962988 286.922062 
L 274.962988 286.922062 
L 274.962988 286.922062 
L 274.962988 286.922062 
L 274.962988 286.922062 
L 274.962988 286.922062 
L 274.962988 286.922062 
L 274.962988 286.922062 
L 274.962988 286.922062 
L 274.962988 286.922062 
L 274.962988 286.922062 
L 274.962988 286.922062 
L 274.962988 286.922062 
L 274.962988 286.922062 
L 274.962988 286.922062 
L 274.962988 286.922062 
L 274.962988 286.922062 
L 274.962988 286.922062 
L 274.962988 286.922062 
L 274.962988 286.922062 
L 274.962988 286.922062 
L 274.962988 286.922062 
L 274.962988 286.922062 
L 274.962988 286.922062 
L 274.962988 286.922062 
L 274.962988 286.922062 
L 274.962988 286.922062 
L 274.962988 286.922062 
L 274.962988 286.922062 
L 274.962988 286.922062 
L 274.962988 286.922062 
L 274.962988 286.922062 
L 274.962988 286.922062 
L 274.962988 286.922062 
L 274.962988 286.922062 
L 274.962988 286.922062 
L 274.962988 286.922062 
L 274.962988 286.922062 
L 274.962988 286.922062 
L 274.962988 286.922062 
L 274.962988 286.922062 
L 274.962988 286.922062 
L 274.962988 286.922062 
L 274.962988 286.922062 
L 274.962988 286.922062 
L 274.962988 286.922062 
L 274.962988 286.922062 
L 274.962988 286.922062 
L 274.962988 286.922062 
L 274.962988 286.922062 
L 274.962988 286.922062 
L 274.962988 286.922062 
L 274.962988 286.922062 
L 274.962988 286.922062 
L 274.962988 286.922062 
L 274.962988 286.922062 
L 274.962988 286.922062 
L 274.962988 286.922062 
L 274.962988 286.922062 
L 274.962988 286.922062 
L 274.962988 286.922062 
L 274.962988 286.922062 
L 274.962988 286.922062 
L 274.962988 286.922062 
L 274.962988 286.922062 
L 274.962988 286.922062 
L 274.962988 286.922062 
L 274.962988 286.922062 
L 274.962988 286.922062 
L 274.962988 286.922062 
L 274.962988 286.922062 
L 274.962988 286.922062 
L 274.962988 286.922062 
L 274.962988 286.922062 
L 274.962988 286.922062 
L 274.962988 286.922062 
L 274.962988 286.922062 
L 274.962988 286.922062 
L 274.962988 286.922062 
L 274.962988 286.922062 
L 274.962988 286.922062 
L 274.962988 286.922062 
L 274.962988 286.922062 
L 274.962988 286.922062 
L 274.962988 286.922062 
L 274.962988 286.922062 
L 274.962988 286.922062 
L 274.962988 286.922062 
L 274.962988 286.922062 
L 274.962988 286.922062 
L 274.962988 286.922062 
L 274.962988 286.922062 
L 274.962988 286.922062 
L 274.962988 286.922062 
L 274.962988 286.922062 
L 274.962988 286.922062 
L 274.962988 286.922062 
L 274.962988 286.922062 
L 274.962988 286.922062 
L 274.962988 286.922062 
L 274.962988 286.922062 
L 274.962988 286.922062 
L 274.962988 286.922062 
L 274.962988 286.922062 
L 274.962988 286.922062 
z
" style="fill:#993333;stroke:#000000;stroke-linejoin:miter;"/>
   </g>
   <g id="patch_5">
    <path clip-path="url(#pa22444e9b6)" d="M 236.644704 232.289583 
L 235.678141 233.115984 
L 277.119841 281.586394 
L 278.086404 280.759993 
L 278.086404 280.759993 
L 278.086404 280.759993 
L 278.086404 280.759993 
L 278.086404 280.759993 
L 278.086404 280.759993 
L 278.086404 280.759993 
L 278.086404 280.759993 
L 278.086404 280.759993 
L 278.086404 280.759993 
L 278.086404 280.759993 
L 278.086404 280.759993 
L 278.086404 280.759993 
L 278.086404 280.759993 
L 278.086404 280.759993 
L 278.086404 280.759993 
L 278.086404 280.759993 
L 278.086404 280.759993 
L 278.086404 280.759993 
L 278.086404 280.759993 
L 278.086404 280.759993 
L 278.086404 280.759993 
L 278.086404 280.759993 
L 278.086404 280.759993 
L 278.086404 280.759993 
L 278.086404 280.759993 
L 278.086404 280.759993 
L 278.086404 280.759993 
L 278.086404 280.759993 
L 278.086404 280.759993 
L 278.086404 280.759993 
L 278.086404 280.759993 
L 278.086404 280.759993 
L 278.086404 280.759993 
L 278.086404 280.759993 
L 278.086404 280.759993 
L 278.086404 280.759993 
L 278.086404 280.759993 
L 278.086404 280.759993 
L 278.086404 280.759993 
L 278.086404 280.759993 
L 278.086404 280.759993 
L 278.086404 280.759993 
L 278.086404 280.759993 
L 278.086404 280.759993 
L 278.086404 280.759993 
L 278.086404 280.759993 
L 278.086404 280.759993 
L 278.086404 280.759993 
z
" style="stroke:#000000;stroke-linejoin:miter;"/>
   </g>
   <g id="text_1">
    <!-- t = 1.8 -->
    <defs>
     <path d="M 18.3125 70.21875 
L 18.3125 54.6875 
L 36.8125 54.6875 
L 36.8125 47.703125 
L 18.3125 47.703125 
L 18.3125 18.015625 
Q 18.3125 11.328125 20.140625 9.421875 
Q 21.96875 7.515625 27.59375 7.515625 
L 36.8125 7.515625 
L 36.8125 0 
L 27.59375 0 
Q 17.1875 0 13.234375 3.875 
Q 9.28125 7.765625 9.28125 18.015625 
L 9.28125 47.703125 
L 2.6875 47.703125 
L 2.6875 54.6875 
L 9.28125 54.6875 
L 9.28125 70.21875 
z
" id="DejaVuSans-116"/>
     <path id="DejaVuSans-32"/>
     <path d="M 10.59375 45.40625 
L 73.1875 45.40625 
L 73.1875 37.203125 
L 10.59375 37.203125 
z
M 10.59375 25.484375 
L 73.1875 25.484375 
L 73.1875 17.1875 
L 10.59375 17.1875 
z
" id="DejaVuSans-61"/>
     <path d="M 12.40625 8.296875 
L 28.515625 8.296875 
L 28.515625 63.921875 
L 10.984375 60.40625 
L 10.984375 69.390625 
L 28.421875 72.90625 
L 38.28125 72.90625 
L 38.28125 8.296875 
L 54.390625 8.296875 
L 54.390625 0 
L 12.40625 0 
z
" id="DejaVuSans-49"/>
     <path d="M 10.6875 12.40625 
L 21 12.40625 
L 21 0 
L 10.6875 0 
z
" id="DejaVuSans-46"/>
     <path d="M 31.78125 34.625 
Q 24.75 34.625 20.71875 30.859375 
Q 16.703125 27.09375 16.703125 20.515625 
Q 16.703125 13.921875 20.71875 10.15625 
Q 24.75 6.390625 31.78125 6.390625 
Q 38.8125 6.390625 42.859375 10.171875 
Q 46.921875 13.96875 46.921875 20.515625 
Q 46.921875 27.09375 42.890625 30.859375 
Q 38.875 34.625 31.78125 34.625 
z
M 21.921875 38.8125 
Q 15.578125 40.375 12.03125 44.71875 
Q 8.5 49.078125 8.5 55.328125 
Q 8.5 64.0625 14.71875 69.140625 
Q 20.953125 74.21875 31.78125 74.21875 
Q 42.671875 74.21875 48.875 69.140625 
Q 55.078125 64.0625 55.078125 55.328125 
Q 55.078125 49.078125 51.53125 44.71875 
Q 48 40.375 41.703125 38.8125 
Q 48.828125 37.15625 52.796875 32.3125 
Q 56.78125 27.484375 56.78125 20.515625 
Q 56.78125 9.90625 50.3125 4.234375 
Q 43.84375 -1.421875 31.78125 -1.421875 
Q 19.734375 -1.421875 13.25 4.234375 
Q 6.78125 9.90625 6.78125 20.515625 
Q 6.78125 27.484375 10.78125 32.3125 
Q 14.796875 37.15625 21.921875 38.8125 
z
M 18.3125 54.390625 
Q 18.3125 48.734375 21.84375 45.5625 
Q 25.390625 42.390625 31.78125 42.390625 
Q 38.140625 42.390625 41.71875 45.5625 
Q 45.3125 48.734375 45.3125 54.390625 
Q 45.3125 60.0625 41.71875 63.234375 
Q 38.140625 66.40625 31.78125 66.40625 
Q 25.390625 66.40625 21.84375 63.234375 
Q 18.3125 60.0625 18.3125 54.390625 
z
" id="DejaVuSans-56"/>
    </defs>
    <g transform="translate(215.424375 49.296)scale(0.12 -0.12)">
     <use xlink:href="#DejaVuSans-116"/>
     <use x="39.208984" xlink:href="#DejaVuSans-32"/>
     <use x="70.996094" xlink:href="#DejaVuSans-61"/>
     <use x="154.785156" xlink:href="#DejaVuSans-32"/>
     <use x="186.572266" xlink:href="#DejaVuSans-49"/>
     <use x="250.195312" xlink:href="#DejaVuSans-46"/>
     <use x="281.982422" xlink:href="#DejaVuSans-56"/>
    </g>
   </g>
  </g>
 </g>
 <defs>
  <clipPath id="pa22444e9b6">
   <rect height="354.816" width="357.12" x="57.6" y="55.296"/>
  </clipPath>
 </defs>
</svg>
