<?xml version="1.0" encoding="utf-8" standalone="no"?>
<!DOCTYPE svg PUBLIC "-//W3C//DTD SVG 1.1//EN"
  "http://www.w3.org/Graphics/SVG/1.1/DTD/svg11.dtd">
<!-- Created with matplotlib (https://matplotlib.org/) -->
<svg height="460.8pt" version="1.1" viewBox="0 0 460.8 460.8" width="460.8pt" xmlns="http://www.w3.org/2000/svg" xmlns:xlink="http://www.w3.org/1999/xlink">
 <defs>
  <style type="text/css">
*{stroke-linecap:butt;stroke-linejoin:round;}
  </style>
 </defs>
 <g id="figure_1">
  <g id="patch_1">
   <path d="M 0 460.8 
L 460.8 460.8 
L 460.8 0 
L 0 0 
z
" style="fill:#ffffff;"/>
  </g>
  <g id="axes_1">
   <g id="patch_2">
    <path clip-path="url(#p24251a255b)" d="M 342.502572 291.426789 
L 342.648294 293.24545 
L 343.136621 294.500672 
L 344.109852 296.042016 
L 345.170776 296.908873 
L 346.733235 297.795525 
L 348.107005 298.06178 
L 349.876147 298.076657 
L 351.226416 297.677121 
L 352.769094 296.816581 
L 353.765269 295.849075 
L 354.703782 294.323808 
L 355.101964 293.025211 
L 355.20653 291.208655 
L 354.909231 289.896908 
L 354.15425 288.233821 
L 353.234259 287.230086 
L 351.804576 286.127648 
L 350.487138 285.677675 
L 348.732789 285.405801 
L 347.34046 285.619758 
L 345.690972 286.245014 
L 344.564642 287.070517 
L 343.423866 288.439818 
L 342.706401 290.090524 
L 342.706401 290.090524 
L 342.706401 290.090524 
L 342.706401 290.090524 
L 342.706401 290.090524 
L 342.706401 290.090524 
L 342.706401 290.090524 
L 342.706401 290.090524 
L 342.706401 290.090524 
L 342.706401 290.090524 
L 342.706401 290.090524 
L 342.706401 290.090524 
L 342.706401 290.090524 
L 342.706401 290.090524 
L 342.706401 290.090524 
L 342.706401 290.090524 
L 342.706401 290.090524 
L 342.706401 290.090524 
L 342.706401 290.090524 
L 342.706401 290.090524 
L 342.706401 290.090524 
L 342.706401 290.090524 
L 342.706401 290.090524 
L 342.706401 290.090524 
L 342.706401 290.090524 
L 342.706401 290.090524 
L 342.706401 290.090524 
L 342.706401 290.090524 
L 342.706401 290.090524 
L 342.706401 290.090524 
L 342.706401 290.090524 
L 342.706401 290.090524 
L 342.706401 290.090524 
L 342.706401 290.090524 
L 342.706401 290.090524 
L 342.706401 290.090524 
L 342.706401 290.090524 
L 342.706401 290.090524 
L 342.706401 290.090524 
L 342.706401 290.090524 
L 342.706401 290.090524 
L 342.706401 290.090524 
L 342.706401 290.090524 
L 342.706401 290.090524 
L 342.706401 290.090524 
L 342.706401 290.090524 
L 342.706401 290.090524 
L 342.706401 290.090524 
L 342.706401 290.090524 
L 342.706401 290.090524 
L 342.706401 290.090524 
L 342.706401 290.090524 
L 342.706401 290.090524 
L 342.706401 290.090524 
L 342.706401 290.090524 
L 342.706401 290.090524 
L 342.706401 290.090524 
L 342.706401 290.090524 
L 342.706401 290.090524 
L 342.706401 290.090524 
L 342.706401 290.090524 
L 342.706401 290.090524 
L 342.706401 290.090524 
L 342.706401 290.090524 
L 342.706401 290.090524 
L 342.706401 290.090524 
L 342.706401 290.090524 
L 342.706401 290.090524 
L 342.706401 290.090524 
L 342.706401 290.090524 
L 342.706401 290.090524 
L 342.706401 290.090524 
L 342.706401 290.090524 
L 342.706401 290.090524 
L 342.706401 290.090524 
L 342.706401 290.090524 
L 342.706401 290.090524 
L 342.706401 290.090524 
L 342.706401 290.090524 
L 342.706401 290.090524 
L 342.706401 290.090524 
L 342.706401 290.090524 
L 342.706401 290.090524 
L 342.706401 290.090524 
L 342.706401 290.090524 
L 342.706401 290.090524 
L 342.706401 290.090524 
L 342.706401 290.090524 
L 342.706401 290.090524 
L 342.706401 290.090524 
L 342.706401 290.090524 
L 342.706401 290.090524 
L 342.706401 290.090524 
L 342.706401 290.090524 
L 342.706401 290.090524 
L 342.706401 290.090524 
L 342.706401 290.090524 
L 342.706401 290.090524 
L 342.706401 290.090524 
L 342.706401 290.090524 
L 342.706401 290.090524 
L 342.706401 290.090524 
L 342.706401 290.090524 
L 342.706401 290.090524 
L 342.706401 290.090524 
L 342.706401 290.090524 
L 342.706401 290.090524 
L 342.706401 290.090524 
L 342.706401 290.090524 
L 342.706401 290.090524 
L 342.706401 290.090524 
L 342.706401 290.090524 
L 342.706401 290.090524 
L 342.706401 290.090524 
L 342.706401 290.090524 
L 342.706401 290.090524 
L 342.706401 290.090524 
L 342.706401 290.090524 
L 342.706401 290.090524 
L 342.706401 290.090524 
L 342.706401 290.090524 
L 342.706401 290.090524 
L 342.706401 290.090524 
L 342.706401 290.090524 
L 342.706401 290.090524 
L 342.706401 290.090524 
L 342.706401 290.090524 
L 342.706401 290.090524 
L 342.706401 290.090524 
L 342.706401 290.090524 
L 342.706401 290.090524 
L 342.706401 290.090524 
L 342.706401 290.090524 
L 342.706401 290.090524 
L 342.706401 290.090524 
L 342.706401 290.090524 
L 342.706401 290.090524 
L 342.706401 290.090524 
L 342.706401 290.090524 
L 342.706401 290.090524 
L 342.706401 290.090524 
L 342.706401 290.090524 
L 342.706401 290.090524 
L 342.706401 290.090524 
L 342.706401 290.090524 
z
" style="fill:#993333;stroke:#000000;stroke-linejoin:miter;"/>
   </g>
   <g id="patch_3">
    <path clip-path="url(#p24251a255b)" d="M 294.209691 258.902198 
L 348.522959 292.321714 
L 349.189388 291.238637 
L 294.87612 257.819122 
L 294.87612 257.819122 
L 294.87612 257.819122 
L 294.87612 257.819122 
L 294.87612 257.819122 
L 294.87612 257.819122 
L 294.87612 257.819122 
L 294.87612 257.819122 
L 294.87612 257.819122 
L 294.87612 257.819122 
L 294.87612 257.819122 
L 294.87612 257.819122 
L 294.87612 257.819122 
L 294.87612 257.819122 
L 294.87612 257.819122 
L 294.87612 257.819122 
L 294.87612 257.819122 
L 294.87612 257.819122 
L 294.87612 257.819122 
L 294.87612 257.819122 
L 294.87612 257.819122 
L 294.87612 257.819122 
L 294.87612 257.819122 
L 294.87612 257.819122 
L 294.87612 257.819122 
L 294.87612 257.819122 
L 294.87612 257.819122 
L 294.87612 257.819122 
L 294.87612 257.819122 
L 294.87612 257.819122 
L 294.87612 257.819122 
L 294.87612 257.819122 
L 294.87612 257.819122 
L 294.87612 257.819122 
L 294.87612 257.819122 
L 294.87612 257.819122 
L 294.87612 257.819122 
L 294.87612 257.819122 
L 294.87612 257.819122 
L 294.87612 257.819122 
L 294.87612 257.819122 
L 294.87612 257.819122 
L 294.87612 257.819122 
L 294.87612 257.819122 
L 294.87612 257.819122 
L 294.87612 257.819122 
L 294.87612 257.819122 
L 294.87612 257.819122 
L 294.87612 257.819122 
z
" style="stroke:#000000;stroke-linejoin:miter;"/>
   </g>
   <g id="patch_4">
    <path clip-path="url(#p24251a255b)" d="M 289.646022 254.283668 
L 288.703732 255.796429 
L 288.219334 257.529906 
L 288.200617 258.881498 
L 288.59428 260.663011 
L 289.250075 261.839439 
L 290.425418 263.232811 
L 291.595162 263.946043 
L 293.264419 264.610128 
L 294.66172 264.685541 
L 296.416199 264.457748 
L 297.698947 263.876878 
L 299.10909 262.812979 
L 299.963225 261.718043 
L 300.68378 260.078516 
L 300.90018 258.737593 
L 300.75473 256.923853 
L 300.280412 255.665248 
L 299.304568 254.121361 
L 298.255662 253.253223 
L 296.688345 252.357187 
L 295.321659 252.092068 
L 293.546603 252.063263 
L 292.196751 252.466073 
L 290.648551 253.311552 
L 290.648551 253.311552 
L 290.648551 253.311552 
L 290.648551 253.311552 
L 290.648551 253.311552 
L 290.648551 253.311552 
L 290.648551 253.311552 
L 290.648551 253.311552 
L 290.648551 253.311552 
L 290.648551 253.311552 
L 290.648551 253.311552 
L 290.648551 253.311552 
L 290.648551 253.311552 
L 290.648551 253.311552 
L 290.648551 253.311552 
L 290.648551 253.311552 
L 290.648551 253.311552 
L 290.648551 253.311552 
L 290.648551 253.311552 
L 290.648551 253.311552 
L 290.648551 253.311552 
L 290.648551 253.311552 
L 290.648551 253.311552 
L 290.648551 253.311552 
L 290.648551 253.311552 
L 290.648551 253.311552 
L 290.648551 253.311552 
L 290.648551 253.311552 
L 290.648551 253.311552 
L 290.648551 253.311552 
L 290.648551 253.311552 
L 290.648551 253.311552 
L 290.648551 253.311552 
L 290.648551 253.311552 
L 290.648551 253.311552 
L 290.648551 253.311552 
L 290.648551 253.311552 
L 290.648551 253.311552 
L 290.648551 253.311552 
L 290.648551 253.311552 
L 290.648551 253.311552 
L 290.648551 253.311552 
L 290.648551 253.311552 
L 290.648551 253.311552 
L 290.648551 253.311552 
L 290.648551 253.311552 
L 290.648551 253.311552 
L 290.648551 253.311552 
L 290.648551 253.311552 
L 290.648551 253.311552 
L 290.648551 253.311552 
L 290.648551 253.311552 
L 290.648551 253.311552 
L 290.648551 253.311552 
L 290.648551 253.311552 
L 290.648551 253.311552 
L 290.648551 253.311552 
L 290.648551 253.311552 
L 290.648551 253.311552 
L 290.648551 253.311552 
L 290.648551 253.311552 
L 290.648551 253.311552 
L 290.648551 253.311552 
L 290.648551 253.311552 
L 290.648551 253.311552 
L 290.648551 253.311552 
L 290.648551 253.311552 
L 290.648551 253.311552 
L 290.648551 253.311552 
L 290.648551 253.311552 
L 290.648551 253.311552 
L 290.648551 253.311552 
L 290.648551 253.311552 
L 290.648551 253.311552 
L 290.648551 253.311552 
L 290.648551 253.311552 
L 290.648551 253.311552 
L 290.648551 253.311552 
L 290.648551 253.311552 
L 290.648551 253.311552 
L 290.648551 253.311552 
L 290.648551 253.311552 
L 290.648551 253.311552 
L 290.648551 253.311552 
L 290.648551 253.311552 
L 290.648551 253.311552 
L 290.648551 253.311552 
L 290.648551 253.311552 
L 290.648551 253.311552 
L 290.648551 253.311552 
L 290.648551 253.311552 
L 290.648551 253.311552 
L 290.648551 253.311552 
L 290.648551 253.311552 
L 290.648551 253.311552 
L 290.648551 253.311552 
L 290.648551 253.311552 
L 290.648551 253.311552 
L 290.648551 253.311552 
L 290.648551 253.311552 
L 290.648551 253.311552 
L 290.648551 253.311552 
L 290.648551 253.311552 
L 290.648551 253.311552 
L 290.648551 253.311552 
L 290.648551 253.311552 
L 290.648551 253.311552 
L 290.648551 253.311552 
L 290.648551 253.311552 
L 290.648551 253.311552 
L 290.648551 253.311552 
L 290.648551 253.311552 
L 290.648551 253.311552 
L 290.648551 253.311552 
L 290.648551 253.311552 
L 290.648551 253.311552 
L 290.648551 253.311552 
L 290.648551 253.311552 
L 290.648551 253.311552 
L 290.648551 253.311552 
L 290.648551 253.311552 
L 290.648551 253.311552 
L 290.648551 253.311552 
L 290.648551 253.311552 
L 290.648551 253.311552 
L 290.648551 253.311552 
L 290.648551 253.311552 
L 290.648551 253.311552 
L 290.648551 253.311552 
L 290.648551 253.311552 
L 290.648551 253.311552 
L 290.648551 253.311552 
L 290.648551 253.311552 
L 290.648551 253.311552 
L 290.648551 253.311552 
L 290.648551 253.311552 
L 290.648551 253.311552 
L 290.648551 253.311552 
L 290.648551 253.311552 
L 290.648551 253.311552 
L 290.648551 253.311552 
L 290.648551 253.311552 
L 290.648551 253.311552 
L 290.648551 253.311552 
L 290.648551 253.311552 
z
" style="fill:#993333;stroke:#000000;stroke-linejoin:miter;"/>
   </g>
   <g id="patch_5">
    <path clip-path="url(#p24251a255b)" d="M 235.904924 233.284392 
L 294.286848 258.942646 
L 294.798507 257.778435 
L 236.416583 232.120181 
L 236.416583 232.120181 
L 236.416583 232.120181 
L 236.416583 232.120181 
L 236.416583 232.120181 
L 236.416583 232.120181 
L 236.416583 232.120181 
L 236.416583 232.120181 
L 236.416583 232.120181 
L 236.416583 232.120181 
L 236.416583 232.120181 
L 236.416583 232.120181 
L 236.416583 232.120181 
L 236.416583 232.120181 
L 236.416583 232.120181 
L 236.416583 232.120181 
L 236.416583 232.120181 
L 236.416583 232.120181 
L 236.416583 232.120181 
L 236.416583 232.120181 
L 236.416583 232.120181 
L 236.416583 232.120181 
L 236.416583 232.120181 
L 236.416583 232.120181 
L 236.416583 232.120181 
L 236.416583 232.120181 
L 236.416583 232.120181 
L 236.416583 232.120181 
L 236.416583 232.120181 
L 236.416583 232.120181 
L 236.416583 232.120181 
L 236.416583 232.120181 
L 236.416583 232.120181 
L 236.416583 232.120181 
L 236.416583 232.120181 
L 236.416583 232.120181 
L 236.416583 232.120181 
L 236.416583 232.120181 
L 236.416583 232.120181 
L 236.416583 232.120181 
L 236.416583 232.120181 
L 236.416583 232.120181 
L 236.416583 232.120181 
L 236.416583 232.120181 
L 236.416583 232.120181 
L 236.416583 232.120181 
L 236.416583 232.120181 
L 236.416583 232.120181 
L 236.416583 232.120181 
z
" style="stroke:#000000;stroke-linejoin:miter;"/>
   </g>
   <g id="text_1">
    <!-- t = 7.0 -->
    <defs>
     <path d="M 18.3125 70.21875 
L 18.3125 54.6875 
L 36.8125 54.6875 
L 36.8125 47.703125 
L 18.3125 47.703125 
L 18.3125 18.015625 
Q 18.3125 11.328125 20.140625 9.421875 
Q 21.96875 7.515625 27.59375 7.515625 
L 36.8125 7.515625 
L 36.8125 0 
L 27.59375 0 
Q 17.1875 0 13.234375 3.875 
Q 9.28125 7.765625 9.28125 18.015625 
L 9.28125 47.703125 
L 2.6875 47.703125 
L 2.6875 54.6875 
L 9.28125 54.6875 
L 9.28125 70.21875 
z
" id="DejaVuSans-116"/>
     <path id="DejaVuSans-32"/>
     <path d="M 10.59375 45.40625 
L 73.1875 45.40625 
L 73.1875 37.203125 
L 10.59375 37.203125 
z
M 10.59375 25.484375 
L 73.1875 25.484375 
L 73.1875 17.1875 
L 10.59375 17.1875 
z
" id="DejaVuSans-61"/>
     <path d="M 8.203125 72.90625 
L 55.078125 72.90625 
L 55.078125 68.703125 
L 28.609375 0 
L 18.3125 0 
L 43.21875 64.59375 
L 8.203125 64.59375 
z
" id="DejaVuSans-55"/>
     <path d="M 10.6875 12.40625 
L 21 12.40625 
L 21 0 
L 10.6875 0 
z
" id="DejaVuSans-46"/>
     <path d="M 31.78125 66.40625 
Q 24.171875 66.40625 20.328125 58.90625 
Q 16.5 51.421875 16.5 36.375 
Q 16.5 21.390625 20.328125 13.890625 
Q 24.171875 6.390625 31.78125 6.390625 
Q 39.453125 6.390625 43.28125 13.890625 
Q 47.125 21.390625 47.125 36.375 
Q 47.125 51.421875 43.28125 58.90625 
Q 39.453125 66.40625 31.78125 66.40625 
z
M 31.78125 74.21875 
Q 44.046875 74.21875 50.515625 64.515625 
Q 56.984375 54.828125 56.984375 36.375 
Q 56.984375 17.96875 50.515625 8.265625 
Q 44.046875 -1.421875 31.78125 -1.421875 
Q 19.53125 -1.421875 13.0625 8.265625 
Q 6.59375 17.96875 6.59375 36.375 
Q 6.59375 54.828125 13.0625 64.515625 
Q 19.53125 74.21875 31.78125 74.21875 
z
" id="DejaVuSans-48"/>
    </defs>
    <g transform="translate(215.424375 49.296)scale(0.12 -0.12)">
     <use xlink:href="#DejaVuSans-116"/>
     <use x="39.208984" xlink:href="#DejaVuSans-32"/>
     <use x="70.996094" xlink:href="#DejaVuSans-61"/>
     <use x="154.785156" xlink:href="#DejaVuSans-32"/>
     <use x="186.572266" xlink:href="#DejaVuSans-55"/>
     <use x="250.195312" xlink:href="#DejaVuSans-46"/>
     <use x="281.982422" xlink:href="#DejaVuSans-48"/>
    </g>
   </g>
  </g>
 </g>
 <defs>
  <clipPath id="p24251a255b">
   <rect height="354.816" width="357.12" x="57.6" y="55.296"/>
  </clipPath>
 </defs>
</svg>
