<?xml version="1.0" encoding="utf-8" standalone="no"?>
<!DOCTYPE svg PUBLIC "-//W3C//DTD SVG 1.1//EN"
  "http://www.w3.org/Graphics/SVG/1.1/DTD/svg11.dtd">
<!-- Created with matplotlib (https://matplotlib.org/) -->
<svg height="460.8pt" version="1.1" viewBox="0 0 460.8 460.8" width="460.8pt" xmlns="http://www.w3.org/2000/svg" xmlns:xlink="http://www.w3.org/1999/xlink">
 <defs>
  <style type="text/css">
*{stroke-linecap:butt;stroke-linejoin:round;}
  </style>
 </defs>
 <g id="figure_1">
  <g id="patch_1">
   <path d="M 0 460.8 
L 460.8 460.8 
L 460.8 0 
L 0 0 
z
" style="fill:#ffffff;"/>
  </g>
  <g id="axes_1">
   <g id="patch_2">
    <path clip-path="url(#p83cdac9408)" d="M 268.463028 350.275229 
L 267.467103 351.803919 
L 267.086669 353.09594 
L 266.915251 354.910749 
L 267.225391 356.245221 
L 267.920449 357.901821 
L 268.845229 358.952019 
L 270.236589 360.044816 
L 271.549592 360.553615 
L 273.2966 360.815054 
L 274.676356 360.657883 
L 276.351284 360.023954 
L 277.459981 359.239293 
L 278.652748 357.865206 
L 279.218938 356.645167 
L 279.637513 354.867345 
L 279.522573 353.510637 
L 279.064475 351.764353 
L 278.296546 350.603145 
L 277.073933 349.31595 
L 275.841031 348.634546 
L 274.153241 348.121591 
L 272.757224 348.086823 
L 271.017487 348.473697 
L 269.440892 349.341991 
L 269.440892 349.341991 
L 269.440892 349.341991 
L 269.440892 349.341991 
L 269.440892 349.341991 
L 269.440892 349.341991 
L 269.440892 349.341991 
L 269.440892 349.341991 
L 269.440892 349.341991 
L 269.440892 349.341991 
L 269.440892 349.341991 
L 269.440892 349.341991 
L 269.440892 349.341991 
L 269.440892 349.341991 
L 269.440892 349.341991 
L 269.440892 349.341991 
L 269.440892 349.341991 
L 269.440892 349.341991 
L 269.440892 349.341991 
L 269.440892 349.341991 
L 269.440892 349.341991 
L 269.440892 349.341991 
L 269.440892 349.341991 
L 269.440892 349.341991 
L 269.440892 349.341991 
L 269.440892 349.341991 
L 269.440892 349.341991 
L 269.440892 349.341991 
L 269.440892 349.341991 
L 269.440892 349.341991 
L 269.440892 349.341991 
L 269.440892 349.341991 
L 269.440892 349.341991 
L 269.440892 349.341991 
L 269.440892 349.341991 
L 269.440892 349.341991 
L 269.440892 349.341991 
L 269.440892 349.341991 
L 269.440892 349.341991 
L 269.440892 349.341991 
L 269.440892 349.341991 
L 269.440892 349.341991 
L 269.440892 349.341991 
L 269.440892 349.341991 
L 269.440892 349.341991 
L 269.440892 349.341991 
L 269.440892 349.341991 
L 269.440892 349.341991 
L 269.440892 349.341991 
L 269.440892 349.341991 
L 269.440892 349.341991 
L 269.440892 349.341991 
L 269.440892 349.341991 
L 269.440892 349.341991 
L 269.440892 349.341991 
L 269.440892 349.341991 
L 269.440892 349.341991 
L 269.440892 349.341991 
L 269.440892 349.341991 
L 269.440892 349.341991 
L 269.440892 349.341991 
L 269.440892 349.341991 
L 269.440892 349.341991 
L 269.440892 349.341991 
L 269.440892 349.341991 
L 269.440892 349.341991 
L 269.440892 349.341991 
L 269.440892 349.341991 
L 269.440892 349.341991 
L 269.440892 349.341991 
L 269.440892 349.341991 
L 269.440892 349.341991 
L 269.440892 349.341991 
L 269.440892 349.341991 
L 269.440892 349.341991 
L 269.440892 349.341991 
L 269.440892 349.341991 
L 269.440892 349.341991 
L 269.440892 349.341991 
L 269.440892 349.341991 
L 269.440892 349.341991 
L 269.440892 349.341991 
L 269.440892 349.341991 
L 269.440892 349.341991 
L 269.440892 349.341991 
L 269.440892 349.341991 
L 269.440892 349.341991 
L 269.440892 349.341991 
L 269.440892 349.341991 
L 269.440892 349.341991 
L 269.440892 349.341991 
L 269.440892 349.341991 
L 269.440892 349.341991 
L 269.440892 349.341991 
L 269.440892 349.341991 
L 269.440892 349.341991 
L 269.440892 349.341991 
L 269.440892 349.341991 
L 269.440892 349.341991 
L 269.440892 349.341991 
L 269.440892 349.341991 
L 269.440892 349.341991 
L 269.440892 349.341991 
L 269.440892 349.341991 
L 269.440892 349.341991 
L 269.440892 349.341991 
L 269.440892 349.341991 
L 269.440892 349.341991 
L 269.440892 349.341991 
L 269.440892 349.341991 
L 269.440892 349.341991 
L 269.440892 349.341991 
L 269.440892 349.341991 
L 269.440892 349.341991 
L 269.440892 349.341991 
L 269.440892 349.341991 
L 269.440892 349.341991 
L 269.440892 349.341991 
L 269.440892 349.341991 
L 269.440892 349.341991 
L 269.440892 349.341991 
L 269.440892 349.341991 
L 269.440892 349.341991 
L 269.440892 349.341991 
L 269.440892 349.341991 
L 269.440892 349.341991 
L 269.440892 349.341991 
L 269.440892 349.341991 
L 269.440892 349.341991 
L 269.440892 349.341991 
L 269.440892 349.341991 
L 269.440892 349.341991 
L 269.440892 349.341991 
L 269.440892 349.341991 
L 269.440892 349.341991 
L 269.440892 349.341991 
L 269.440892 349.341991 
L 269.440892 349.341991 
L 269.440892 349.341991 
L 269.440892 349.341991 
L 269.440892 349.341991 
L 269.440892 349.341991 
L 269.440892 349.341991 
L 269.440892 349.341991 
L 269.440892 349.341991 
z
" style="fill:#993333;stroke:#000000;stroke-linejoin:miter;"/>
   </g>
   <g id="patch_3">
    <path clip-path="url(#p83cdac9408)" d="M 251.297708 294.569698 
L 250.108359 295.019845 
L 272.681919 354.662359 
L 273.871268 354.212213 
L 273.871268 354.212213 
L 273.871268 354.212213 
L 273.871268 354.212213 
L 273.871268 354.212213 
L 273.871268 354.212213 
L 273.871268 354.212213 
L 273.871268 354.212213 
L 273.871268 354.212213 
L 273.871268 354.212213 
L 273.871268 354.212213 
L 273.871268 354.212213 
L 273.871268 354.212213 
L 273.871268 354.212213 
L 273.871268 354.212213 
L 273.871268 354.212213 
L 273.871268 354.212213 
L 273.871268 354.212213 
L 273.871268 354.212213 
L 273.871268 354.212213 
L 273.871268 354.212213 
L 273.871268 354.212213 
L 273.871268 354.212213 
L 273.871268 354.212213 
L 273.871268 354.212213 
L 273.871268 354.212213 
L 273.871268 354.212213 
L 273.871268 354.212213 
L 273.871268 354.212213 
L 273.871268 354.212213 
L 273.871268 354.212213 
L 273.871268 354.212213 
L 273.871268 354.212213 
L 273.871268 354.212213 
L 273.871268 354.212213 
L 273.871268 354.212213 
L 273.871268 354.212213 
L 273.871268 354.212213 
L 273.871268 354.212213 
L 273.871268 354.212213 
L 273.871268 354.212213 
L 273.871268 354.212213 
L 273.871268 354.212213 
L 273.871268 354.212213 
L 273.871268 354.212213 
L 273.871268 354.212213 
L 273.871268 354.212213 
L 273.871268 354.212213 
L 273.871268 354.212213 
z
" style="stroke:#000000;stroke-linejoin:miter;"/>
   </g>
   <g id="patch_4">
    <path clip-path="url(#p83cdac9408)" d="M 249.884948 301.120112 
L 251.273394 301.145593 
L 253.017094 300.737233 
L 254.219278 300.105049 
L 255.582248 298.899594 
L 256.303834 297.764526 
L 256.952372 296.057114 
L 257.01669 294.697066 
L 256.792012 292.905731 
L 256.183315 291.65369 
L 255.140428 290.217013 
L 254.007747 289.379523 
L 252.401988 288.649252 
L 251.022641 288.431359 
L 249.247155 288.586291 
L 247.570142 289.239905 
L 246.478134 290.036568 
L 245.289985 291.421148 
L 244.743088 292.651981 
L 244.334704 294.428534 
L 244.466815 295.792187 
L 244.938183 297.52575 
L 245.716958 298.688352 
L 246.95267 299.954489 
L 248.187437 300.631396 
L 248.187437 300.631396 
L 248.187437 300.631396 
L 248.187437 300.631396 
L 248.187437 300.631396 
L 248.187437 300.631396 
L 248.187437 300.631396 
L 248.187437 300.631396 
L 248.187437 300.631396 
L 248.187437 300.631396 
L 248.187437 300.631396 
L 248.187437 300.631396 
L 248.187437 300.631396 
L 248.187437 300.631396 
L 248.187437 300.631396 
L 248.187437 300.631396 
L 248.187437 300.631396 
L 248.187437 300.631396 
L 248.187437 300.631396 
L 248.187437 300.631396 
L 248.187437 300.631396 
L 248.187437 300.631396 
L 248.187437 300.631396 
L 248.187437 300.631396 
L 248.187437 300.631396 
L 248.187437 300.631396 
L 248.187437 300.631396 
L 248.187437 300.631396 
L 248.187437 300.631396 
L 248.187437 300.631396 
L 248.187437 300.631396 
L 248.187437 300.631396 
L 248.187437 300.631396 
L 248.187437 300.631396 
L 248.187437 300.631396 
L 248.187437 300.631396 
L 248.187437 300.631396 
L 248.187437 300.631396 
L 248.187437 300.631396 
L 248.187437 300.631396 
L 248.187437 300.631396 
L 248.187437 300.631396 
L 248.187437 300.631396 
L 248.187437 300.631396 
L 248.187437 300.631396 
L 248.187437 300.631396 
L 248.187437 300.631396 
L 248.187437 300.631396 
L 248.187437 300.631396 
L 248.187437 300.631396 
L 248.187437 300.631396 
L 248.187437 300.631396 
L 248.187437 300.631396 
L 248.187437 300.631396 
L 248.187437 300.631396 
L 248.187437 300.631396 
L 248.187437 300.631396 
L 248.187437 300.631396 
L 248.187437 300.631396 
L 248.187437 300.631396 
L 248.187437 300.631396 
L 248.187437 300.631396 
L 248.187437 300.631396 
L 248.187437 300.631396 
L 248.187437 300.631396 
L 248.187437 300.631396 
L 248.187437 300.631396 
L 248.187437 300.631396 
L 248.187437 300.631396 
L 248.187437 300.631396 
L 248.187437 300.631396 
L 248.187437 300.631396 
L 248.187437 300.631396 
L 248.187437 300.631396 
L 248.187437 300.631396 
L 248.187437 300.631396 
L 248.187437 300.631396 
L 248.187437 300.631396 
L 248.187437 300.631396 
L 248.187437 300.631396 
L 248.187437 300.631396 
L 248.187437 300.631396 
L 248.187437 300.631396 
L 248.187437 300.631396 
L 248.187437 300.631396 
L 248.187437 300.631396 
L 248.187437 300.631396 
L 248.187437 300.631396 
L 248.187437 300.631396 
L 248.187437 300.631396 
L 248.187437 300.631396 
L 248.187437 300.631396 
L 248.187437 300.631396 
L 248.187437 300.631396 
L 248.187437 300.631396 
L 248.187437 300.631396 
L 248.187437 300.631396 
L 248.187437 300.631396 
L 248.187437 300.631396 
L 248.187437 300.631396 
L 248.187437 300.631396 
L 248.187437 300.631396 
L 248.187437 300.631396 
L 248.187437 300.631396 
L 248.187437 300.631396 
L 248.187437 300.631396 
L 248.187437 300.631396 
L 248.187437 300.631396 
L 248.187437 300.631396 
L 248.187437 300.631396 
L 248.187437 300.631396 
L 248.187437 300.631396 
L 248.187437 300.631396 
L 248.187437 300.631396 
L 248.187437 300.631396 
L 248.187437 300.631396 
L 248.187437 300.631396 
L 248.187437 300.631396 
L 248.187437 300.631396 
L 248.187437 300.631396 
L 248.187437 300.631396 
L 248.187437 300.631396 
L 248.187437 300.631396 
L 248.187437 300.631396 
L 248.187437 300.631396 
L 248.187437 300.631396 
L 248.187437 300.631396 
L 248.187437 300.631396 
L 248.187437 300.631396 
L 248.187437 300.631396 
L 248.187437 300.631396 
L 248.187437 300.631396 
L 248.187437 300.631396 
L 248.187437 300.631396 
L 248.187437 300.631396 
L 248.187437 300.631396 
L 248.187437 300.631396 
L 248.187437 300.631396 
L 248.187437 300.631396 
L 248.187437 300.631396 
L 248.187437 300.631396 
L 248.187437 300.631396 
L 248.187437 300.631396 
L 248.187437 300.631396 
L 248.187437 300.631396 
z
" style="fill:#993333;stroke:#000000;stroke-linejoin:miter;"/>
   </g>
   <g id="patch_5">
    <path clip-path="url(#p83cdac9408)" d="M 235.542731 232.848559 
L 250.084014 294.939993 
L 251.322198 294.650021 
L 236.780914 232.558587 
L 236.780914 232.558587 
L 236.780914 232.558587 
L 236.780914 232.558587 
L 236.780914 232.558587 
L 236.780914 232.558587 
L 236.780914 232.558587 
L 236.780914 232.558587 
L 236.780914 232.558587 
L 236.780914 232.558587 
L 236.780914 232.558587 
L 236.780914 232.558587 
L 236.780914 232.558587 
L 236.780914 232.558587 
L 236.780914 232.558587 
L 236.780914 232.558587 
L 236.780914 232.558587 
L 236.780914 232.558587 
L 236.780914 232.558587 
L 236.780914 232.558587 
L 236.780914 232.558587 
L 236.780914 232.558587 
L 236.780914 232.558587 
L 236.780914 232.558587 
L 236.780914 232.558587 
L 236.780914 232.558587 
L 236.780914 232.558587 
L 236.780914 232.558587 
L 236.780914 232.558587 
L 236.780914 232.558587 
L 236.780914 232.558587 
L 236.780914 232.558587 
L 236.780914 232.558587 
L 236.780914 232.558587 
L 236.780914 232.558587 
L 236.780914 232.558587 
L 236.780914 232.558587 
L 236.780914 232.558587 
L 236.780914 232.558587 
L 236.780914 232.558587 
L 236.780914 232.558587 
L 236.780914 232.558587 
L 236.780914 232.558587 
L 236.780914 232.558587 
L 236.780914 232.558587 
L 236.780914 232.558587 
L 236.780914 232.558587 
L 236.780914 232.558587 
L 236.780914 232.558587 
z
" style="stroke:#000000;stroke-linejoin:miter;"/>
   </g>
   <g id="text_1">
    <!-- t = 4.9 -->
    <defs>
     <path d="M 18.3125 70.21875 
L 18.3125 54.6875 
L 36.8125 54.6875 
L 36.8125 47.703125 
L 18.3125 47.703125 
L 18.3125 18.015625 
Q 18.3125 11.328125 20.140625 9.421875 
Q 21.96875 7.515625 27.59375 7.515625 
L 36.8125 7.515625 
L 36.8125 0 
L 27.59375 0 
Q 17.1875 0 13.234375 3.875 
Q 9.28125 7.765625 9.28125 18.015625 
L 9.28125 47.703125 
L 2.6875 47.703125 
L 2.6875 54.6875 
L 9.28125 54.6875 
L 9.28125 70.21875 
z
" id="DejaVuSans-116"/>
     <path id="DejaVuSans-32"/>
     <path d="M 10.59375 45.40625 
L 73.1875 45.40625 
L 73.1875 37.203125 
L 10.59375 37.203125 
z
M 10.59375 25.484375 
L 73.1875 25.484375 
L 73.1875 17.1875 
L 10.59375 17.1875 
z
" id="DejaVuSans-61"/>
     <path d="M 37.796875 64.3125 
L 12.890625 25.390625 
L 37.796875 25.390625 
z
M 35.203125 72.90625 
L 47.609375 72.90625 
L 47.609375 25.390625 
L 58.015625 25.390625 
L 58.015625 17.1875 
L 47.609375 17.1875 
L 47.609375 0 
L 37.796875 0 
L 37.796875 17.1875 
L 4.890625 17.1875 
L 4.890625 26.703125 
z
" id="DejaVuSans-52"/>
     <path d="M 10.6875 12.40625 
L 21 12.40625 
L 21 0 
L 10.6875 0 
z
" id="DejaVuSans-46"/>
     <path d="M 10.984375 1.515625 
L 10.984375 10.5 
Q 14.703125 8.734375 18.5 7.8125 
Q 22.3125 6.890625 25.984375 6.890625 
Q 35.75 6.890625 40.890625 13.453125 
Q 46.046875 20.015625 46.78125 33.40625 
Q 43.953125 29.203125 39.59375 26.953125 
Q 35.25 24.703125 29.984375 24.703125 
Q 19.046875 24.703125 12.671875 31.3125 
Q 6.296875 37.9375 6.296875 49.421875 
Q 6.296875 60.640625 12.9375 67.421875 
Q 19.578125 74.21875 30.609375 74.21875 
Q 43.265625 74.21875 49.921875 64.515625 
Q 56.59375 54.828125 56.59375 36.375 
Q 56.59375 19.140625 48.40625 8.859375 
Q 40.234375 -1.421875 26.421875 -1.421875 
Q 22.703125 -1.421875 18.890625 -0.6875 
Q 15.09375 0.046875 10.984375 1.515625 
z
M 30.609375 32.421875 
Q 37.25 32.421875 41.125 36.953125 
Q 45.015625 41.5 45.015625 49.421875 
Q 45.015625 57.28125 41.125 61.84375 
Q 37.25 66.40625 30.609375 66.40625 
Q 23.96875 66.40625 20.09375 61.84375 
Q 16.21875 57.28125 16.21875 49.421875 
Q 16.21875 41.5 20.09375 36.953125 
Q 23.96875 32.421875 30.609375 32.421875 
z
" id="DejaVuSans-57"/>
    </defs>
    <g transform="translate(215.424375 49.296)scale(0.12 -0.12)">
     <use xlink:href="#DejaVuSans-116"/>
     <use x="39.208984" xlink:href="#DejaVuSans-32"/>
     <use x="70.996094" xlink:href="#DejaVuSans-61"/>
     <use x="154.785156" xlink:href="#DejaVuSans-32"/>
     <use x="186.572266" xlink:href="#DejaVuSans-52"/>
     <use x="250.195312" xlink:href="#DejaVuSans-46"/>
     <use x="281.982422" xlink:href="#DejaVuSans-57"/>
    </g>
   </g>
  </g>
 </g>
 <defs>
  <clipPath id="p83cdac9408">
   <rect height="354.816" width="357.12" x="57.6" y="55.296"/>
  </clipPath>
 </defs>
</svg>
