<?xml version="1.0" encoding="utf-8" standalone="no"?>
<!DOCTYPE svg PUBLIC "-//W3C//DTD SVG 1.1//EN"
  "http://www.w3.org/Graphics/SVG/1.1/DTD/svg11.dtd">
<!-- Created with matplotlib (https://matplotlib.org/) -->
<svg height="460.8pt" version="1.1" viewBox="0 0 460.8 460.8" width="460.8pt" xmlns="http://www.w3.org/2000/svg" xmlns:xlink="http://www.w3.org/1999/xlink">
 <defs>
  <style type="text/css">
*{stroke-linecap:butt;stroke-linejoin:round;}
  </style>
 </defs>
 <g id="figure_1">
  <g id="patch_1">
   <path d="M 0 460.8 
L 460.8 460.8 
L 460.8 0 
L 0 0 
z
" style="fill:#ffffff;"/>
  </g>
  <g id="axes_1">
   <g id="patch_2">
    <path clip-path="url(#p33db789cb6)" d="M 208.338455 349.305818 
L 206.541964 349.416295 
L 205.258886 349.841575 
L 203.704784 350.797361 
L 202.808258 351.802492 
L 201.877043 353.369577 
L 201.586569 354.708468 
L 201.506236 356.503175 
L 201.892932 357.848018 
L 202.683148 359.430941 
L 203.652338 360.452471 
L 205.119632 361.436054 
L 206.434024 361.884167 
L 208.21915 362.027595 
L 209.556935 361.792575 
L 211.222833 361.060732 
L 212.256474 360.200122 
L 213.395274 358.772188 
L 213.8717 357.496694 
L 214.204584 355.722278 
L 214.007149 354.344186 
L 213.452615 352.657727 
L 212.629659 351.514442 
L 211.323476 350.328843 
L 210.076486 349.700281 
L 210.076486 349.700281 
L 210.076486 349.700281 
L 210.076486 349.700281 
L 210.076486 349.700281 
L 210.076486 349.700281 
L 210.076486 349.700281 
L 210.076486 349.700281 
L 210.076486 349.700281 
L 210.076486 349.700281 
L 210.076486 349.700281 
L 210.076486 349.700281 
L 210.076486 349.700281 
L 210.076486 349.700281 
L 210.076486 349.700281 
L 210.076486 349.700281 
L 210.076486 349.700281 
L 210.076486 349.700281 
L 210.076486 349.700281 
L 210.076486 349.700281 
L 210.076486 349.700281 
L 210.076486 349.700281 
L 210.076486 349.700281 
L 210.076486 349.700281 
L 210.076486 349.700281 
L 210.076486 349.700281 
L 210.076486 349.700281 
L 210.076486 349.700281 
L 210.076486 349.700281 
L 210.076486 349.700281 
L 210.076486 349.700281 
L 210.076486 349.700281 
L 210.076486 349.700281 
L 210.076486 349.700281 
L 210.076486 349.700281 
L 210.076486 349.700281 
L 210.076486 349.700281 
L 210.076486 349.700281 
L 210.076486 349.700281 
L 210.076486 349.700281 
L 210.076486 349.700281 
L 210.076486 349.700281 
L 210.076486 349.700281 
L 210.076486 349.700281 
L 210.076486 349.700281 
L 210.076486 349.700281 
L 210.076486 349.700281 
L 210.076486 349.700281 
L 210.076486 349.700281 
L 210.076486 349.700281 
L 210.076486 349.700281 
L 210.076486 349.700281 
L 210.076486 349.700281 
L 210.076486 349.700281 
L 210.076486 349.700281 
L 210.076486 349.700281 
L 210.076486 349.700281 
L 210.076486 349.700281 
L 210.076486 349.700281 
L 210.076486 349.700281 
L 210.076486 349.700281 
L 210.076486 349.700281 
L 210.076486 349.700281 
L 210.076486 349.700281 
L 210.076486 349.700281 
L 210.076486 349.700281 
L 210.076486 349.700281 
L 210.076486 349.700281 
L 210.076486 349.700281 
L 210.076486 349.700281 
L 210.076486 349.700281 
L 210.076486 349.700281 
L 210.076486 349.700281 
L 210.076486 349.700281 
L 210.076486 349.700281 
L 210.076486 349.700281 
L 210.076486 349.700281 
L 210.076486 349.700281 
L 210.076486 349.700281 
L 210.076486 349.700281 
L 210.076486 349.700281 
L 210.076486 349.700281 
L 210.076486 349.700281 
L 210.076486 349.700281 
L 210.076486 349.700281 
L 210.076486 349.700281 
L 210.076486 349.700281 
L 210.076486 349.700281 
L 210.076486 349.700281 
L 210.076486 349.700281 
L 210.076486 349.700281 
L 210.076486 349.700281 
L 210.076486 349.700281 
L 210.076486 349.700281 
L 210.076486 349.700281 
L 210.076486 349.700281 
L 210.076486 349.700281 
L 210.076486 349.700281 
L 210.076486 349.700281 
L 210.076486 349.700281 
L 210.076486 349.700281 
L 210.076486 349.700281 
L 210.076486 349.700281 
L 210.076486 349.700281 
L 210.076486 349.700281 
L 210.076486 349.700281 
L 210.076486 349.700281 
L 210.076486 349.700281 
L 210.076486 349.700281 
L 210.076486 349.700281 
L 210.076486 349.700281 
L 210.076486 349.700281 
L 210.076486 349.700281 
L 210.076486 349.700281 
L 210.076486 349.700281 
L 210.076486 349.700281 
L 210.076486 349.700281 
L 210.076486 349.700281 
L 210.076486 349.700281 
L 210.076486 349.700281 
L 210.076486 349.700281 
L 210.076486 349.700281 
L 210.076486 349.700281 
L 210.076486 349.700281 
L 210.076486 349.700281 
L 210.076486 349.700281 
L 210.076486 349.700281 
L 210.076486 349.700281 
L 210.076486 349.700281 
L 210.076486 349.700281 
L 210.076486 349.700281 
L 210.076486 349.700281 
L 210.076486 349.700281 
L 210.076486 349.700281 
L 210.076486 349.700281 
L 210.076486 349.700281 
L 210.076486 349.700281 
L 210.076486 349.700281 
L 210.076486 349.700281 
L 210.076486 349.700281 
L 210.076486 349.700281 
L 210.076486 349.700281 
L 210.076486 349.700281 
L 210.076486 349.700281 
L 210.076486 349.700281 
z
" style="fill:#993333;stroke:#000000;stroke-linejoin:miter;"/>
   </g>
   <g id="patch_3">
    <path clip-path="url(#p33db789cb6)" d="M 207.195787 355.611703 
L 208.463387 355.713549 
L 213.570725 292.146969 
L 212.303125 292.045122 
L 212.303125 292.045122 
L 212.303125 292.045122 
L 212.303125 292.045122 
L 212.303125 292.045122 
L 212.303125 292.045122 
L 212.303125 292.045122 
L 212.303125 292.045122 
L 212.303125 292.045122 
L 212.303125 292.045122 
L 212.303125 292.045122 
L 212.303125 292.045122 
L 212.303125 292.045122 
L 212.303125 292.045122 
L 212.303125 292.045122 
L 212.303125 292.045122 
L 212.303125 292.045122 
L 212.303125 292.045122 
L 212.303125 292.045122 
L 212.303125 292.045122 
L 212.303125 292.045122 
L 212.303125 292.045122 
L 212.303125 292.045122 
L 212.303125 292.045122 
L 212.303125 292.045122 
L 212.303125 292.045122 
L 212.303125 292.045122 
L 212.303125 292.045122 
L 212.303125 292.045122 
L 212.303125 292.045122 
L 212.303125 292.045122 
L 212.303125 292.045122 
L 212.303125 292.045122 
L 212.303125 292.045122 
L 212.303125 292.045122 
L 212.303125 292.045122 
L 212.303125 292.045122 
L 212.303125 292.045122 
L 212.303125 292.045122 
L 212.303125 292.045122 
L 212.303125 292.045122 
L 212.303125 292.045122 
L 212.303125 292.045122 
L 212.303125 292.045122 
L 212.303125 292.045122 
L 212.303125 292.045122 
L 212.303125 292.045122 
L 212.303125 292.045122 
L 212.303125 292.045122 
z
" style="stroke:#000000;stroke-linejoin:miter;"/>
   </g>
   <g id="patch_4">
    <path clip-path="url(#p33db789cb6)" d="M 206.63975 291.077544 
L 206.622116 292.476767 
L 206.922182 294.220339 
L 207.555539 295.478001 
L 208.676776 296.842997 
L 209.806057 297.651178 
L 211.473946 298.303399 
L 212.822663 298.464228 
L 214.628847 298.243987 
L 215.866787 297.718088 
L 217.36905 296.679308 
L 218.193123 295.595439 
L 219.023658 293.99245 
L 219.232101 292.61598 
L 219.187564 290.841249 
L 218.729343 289.509186 
L 217.820639 287.997229 
L 216.807943 287.035708 
L 215.257553 286.156706 
L 213.505547 285.744321 
L 212.154336 285.781446 
L 210.390603 286.248358 
L 209.242266 286.952184 
L 207.89863 288.184076 
L 207.234322 289.382281 
L 207.234322 289.382281 
L 207.234322 289.382281 
L 207.234322 289.382281 
L 207.234322 289.382281 
L 207.234322 289.382281 
L 207.234322 289.382281 
L 207.234322 289.382281 
L 207.234322 289.382281 
L 207.234322 289.382281 
L 207.234322 289.382281 
L 207.234322 289.382281 
L 207.234322 289.382281 
L 207.234322 289.382281 
L 207.234322 289.382281 
L 207.234322 289.382281 
L 207.234322 289.382281 
L 207.234322 289.382281 
L 207.234322 289.382281 
L 207.234322 289.382281 
L 207.234322 289.382281 
L 207.234322 289.382281 
L 207.234322 289.382281 
L 207.234322 289.382281 
L 207.234322 289.382281 
L 207.234322 289.382281 
L 207.234322 289.382281 
L 207.234322 289.382281 
L 207.234322 289.382281 
L 207.234322 289.382281 
L 207.234322 289.382281 
L 207.234322 289.382281 
L 207.234322 289.382281 
L 207.234322 289.382281 
L 207.234322 289.382281 
L 207.234322 289.382281 
L 207.234322 289.382281 
L 207.234322 289.382281 
L 207.234322 289.382281 
L 207.234322 289.382281 
L 207.234322 289.382281 
L 207.234322 289.382281 
L 207.234322 289.382281 
L 207.234322 289.382281 
L 207.234322 289.382281 
L 207.234322 289.382281 
L 207.234322 289.382281 
L 207.234322 289.382281 
L 207.234322 289.382281 
L 207.234322 289.382281 
L 207.234322 289.382281 
L 207.234322 289.382281 
L 207.234322 289.382281 
L 207.234322 289.382281 
L 207.234322 289.382281 
L 207.234322 289.382281 
L 207.234322 289.382281 
L 207.234322 289.382281 
L 207.234322 289.382281 
L 207.234322 289.382281 
L 207.234322 289.382281 
L 207.234322 289.382281 
L 207.234322 289.382281 
L 207.234322 289.382281 
L 207.234322 289.382281 
L 207.234322 289.382281 
L 207.234322 289.382281 
L 207.234322 289.382281 
L 207.234322 289.382281 
L 207.234322 289.382281 
L 207.234322 289.382281 
L 207.234322 289.382281 
L 207.234322 289.382281 
L 207.234322 289.382281 
L 207.234322 289.382281 
L 207.234322 289.382281 
L 207.234322 289.382281 
L 207.234322 289.382281 
L 207.234322 289.382281 
L 207.234322 289.382281 
L 207.234322 289.382281 
L 207.234322 289.382281 
L 207.234322 289.382281 
L 207.234322 289.382281 
L 207.234322 289.382281 
L 207.234322 289.382281 
L 207.234322 289.382281 
L 207.234322 289.382281 
L 207.234322 289.382281 
L 207.234322 289.382281 
L 207.234322 289.382281 
L 207.234322 289.382281 
L 207.234322 289.382281 
L 207.234322 289.382281 
L 207.234322 289.382281 
L 207.234322 289.382281 
L 207.234322 289.382281 
L 207.234322 289.382281 
L 207.234322 289.382281 
L 207.234322 289.382281 
L 207.234322 289.382281 
L 207.234322 289.382281 
L 207.234322 289.382281 
L 207.234322 289.382281 
L 207.234322 289.382281 
L 207.234322 289.382281 
L 207.234322 289.382281 
L 207.234322 289.382281 
L 207.234322 289.382281 
L 207.234322 289.382281 
L 207.234322 289.382281 
L 207.234322 289.382281 
L 207.234322 289.382281 
L 207.234322 289.382281 
L 207.234322 289.382281 
L 207.234322 289.382281 
L 207.234322 289.382281 
L 207.234322 289.382281 
L 207.234322 289.382281 
L 207.234322 289.382281 
L 207.234322 289.382281 
L 207.234322 289.382281 
L 207.234322 289.382281 
L 207.234322 289.382281 
L 207.234322 289.382281 
L 207.234322 289.382281 
L 207.234322 289.382281 
L 207.234322 289.382281 
L 207.234322 289.382281 
L 207.234322 289.382281 
L 207.234322 289.382281 
L 207.234322 289.382281 
L 207.234322 289.382281 
L 207.234322 289.382281 
L 207.234322 289.382281 
L 207.234322 289.382281 
L 207.234322 289.382281 
L 207.234322 289.382281 
L 207.234322 289.382281 
L 207.234322 289.382281 
L 207.234322 289.382281 
L 207.234322 289.382281 
L 207.234322 289.382281 
L 207.234322 289.382281 
L 207.234322 289.382281 
z
" style="fill:#993333;stroke:#000000;stroke-linejoin:miter;"/>
   </g>
   <g id="patch_5">
    <path clip-path="url(#p33db789cb6)" d="M 235.569568 232.473114 
L 212.344627 291.865009 
L 213.528978 292.328145 
L 236.753919 232.936249 
L 236.753919 232.936249 
L 236.753919 232.936249 
L 236.753919 232.936249 
L 236.753919 232.936249 
L 236.753919 232.936249 
L 236.753919 232.936249 
L 236.753919 232.936249 
L 236.753919 232.936249 
L 236.753919 232.936249 
L 236.753919 232.936249 
L 236.753919 232.936249 
L 236.753919 232.936249 
L 236.753919 232.936249 
L 236.753919 232.936249 
L 236.753919 232.936249 
L 236.753919 232.936249 
L 236.753919 232.936249 
L 236.753919 232.936249 
L 236.753919 232.936249 
L 236.753919 232.936249 
L 236.753919 232.936249 
L 236.753919 232.936249 
L 236.753919 232.936249 
L 236.753919 232.936249 
L 236.753919 232.936249 
L 236.753919 232.936249 
L 236.753919 232.936249 
L 236.753919 232.936249 
L 236.753919 232.936249 
L 236.753919 232.936249 
L 236.753919 232.936249 
L 236.753919 232.936249 
L 236.753919 232.936249 
L 236.753919 232.936249 
L 236.753919 232.936249 
L 236.753919 232.936249 
L 236.753919 232.936249 
L 236.753919 232.936249 
L 236.753919 232.936249 
L 236.753919 232.936249 
L 236.753919 232.936249 
L 236.753919 232.936249 
L 236.753919 232.936249 
L 236.753919 232.936249 
L 236.753919 232.936249 
L 236.753919 232.936249 
L 236.753919 232.936249 
L 236.753919 232.936249 
z
" style="stroke:#000000;stroke-linejoin:miter;"/>
   </g>
   <g id="text_1">
    <!-- t = 0.7 -->
    <defs>
     <path d="M 18.3125 70.21875 
L 18.3125 54.6875 
L 36.8125 54.6875 
L 36.8125 47.703125 
L 18.3125 47.703125 
L 18.3125 18.015625 
Q 18.3125 11.328125 20.140625 9.421875 
Q 21.96875 7.515625 27.59375 7.515625 
L 36.8125 7.515625 
L 36.8125 0 
L 27.59375 0 
Q 17.1875 0 13.234375 3.875 
Q 9.28125 7.765625 9.28125 18.015625 
L 9.28125 47.703125 
L 2.6875 47.703125 
L 2.6875 54.6875 
L 9.28125 54.6875 
L 9.28125 70.21875 
z
" id="DejaVuSans-116"/>
     <path id="DejaVuSans-32"/>
     <path d="M 10.59375 45.40625 
L 73.1875 45.40625 
L 73.1875 37.203125 
L 10.59375 37.203125 
z
M 10.59375 25.484375 
L 73.1875 25.484375 
L 73.1875 17.1875 
L 10.59375 17.1875 
z
" id="DejaVuSans-61"/>
     <path d="M 31.78125 66.40625 
Q 24.171875 66.40625 20.328125 58.90625 
Q 16.5 51.421875 16.5 36.375 
Q 16.5 21.390625 20.328125 13.890625 
Q 24.171875 6.390625 31.78125 6.390625 
Q 39.453125 6.390625 43.28125 13.890625 
Q 47.125 21.390625 47.125 36.375 
Q 47.125 51.421875 43.28125 58.90625 
Q 39.453125 66.40625 31.78125 66.40625 
z
M 31.78125 74.21875 
Q 44.046875 74.21875 50.515625 64.515625 
Q 56.984375 54.828125 56.984375 36.375 
Q 56.984375 17.96875 50.515625 8.265625 
Q 44.046875 -1.421875 31.78125 -1.421875 
Q 19.53125 -1.421875 13.0625 8.265625 
Q 6.59375 17.96875 6.59375 36.375 
Q 6.59375 54.828125 13.0625 64.515625 
Q 19.53125 74.21875 31.78125 74.21875 
z
" id="DejaVuSans-48"/>
     <path d="M 10.6875 12.40625 
L 21 12.40625 
L 21 0 
L 10.6875 0 
z
" id="DejaVuSans-46"/>
     <path d="M 8.203125 72.90625 
L 55.078125 72.90625 
L 55.078125 68.703125 
L 28.609375 0 
L 18.3125 0 
L 43.21875 64.59375 
L 8.203125 64.59375 
z
" id="DejaVuSans-55"/>
    </defs>
    <g transform="translate(215.424375 49.296)scale(0.12 -0.12)">
     <use xlink:href="#DejaVuSans-116"/>
     <use x="39.208984" xlink:href="#DejaVuSans-32"/>
     <use x="70.996094" xlink:href="#DejaVuSans-61"/>
     <use x="154.785156" xlink:href="#DejaVuSans-32"/>
     <use x="186.572266" xlink:href="#DejaVuSans-48"/>
     <use x="250.195312" xlink:href="#DejaVuSans-46"/>
     <use x="281.982422" xlink:href="#DejaVuSans-55"/>
    </g>
   </g>
  </g>
 </g>
 <defs>
  <clipPath id="p33db789cb6">
   <rect height="354.816" width="357.12" x="57.6" y="55.296"/>
  </clipPath>
 </defs>
</svg>
