<?xml version="1.0" encoding="utf-8" standalone="no"?>
<!DOCTYPE svg PUBLIC "-//W3C//DTD SVG 1.1//EN"
  "http://www.w3.org/Graphics/SVG/1.1/DTD/svg11.dtd">
<!-- Created with matplotlib (https://matplotlib.org/) -->
<svg height="460.8pt" version="1.1" viewBox="0 0 460.8 460.8" width="460.8pt" xmlns="http://www.w3.org/2000/svg" xmlns:xlink="http://www.w3.org/1999/xlink">
 <defs>
  <style type="text/css">
*{stroke-linecap:butt;stroke-linejoin:round;}
  </style>
 </defs>
 <g id="figure_1">
  <g id="patch_1">
   <path d="M 0 460.8 
L 460.8 460.8 
L 460.8 0 
L 0 0 
z
" style="fill:#ffffff;"/>
  </g>
  <g id="axes_1">
   <g id="patch_2">
    <path clip-path="url(#p708b3fe2c8)" d="M 319.374973 319.019061 
L 319.512954 320.838325 
L 319.995936 322.095614 
L 320.962599 323.641085 
L 322.019825 324.512449 
L 323.578497 325.405741 
L 324.951122 325.67784 
L 326.720185 325.700245 
L 328.072141 325.306458 
L 329.618467 324.45249 
L 330.61875 323.489232 
L 331.563744 321.967972 
L 331.967449 320.671081 
L 332.079744 318.854987 
L 331.788029 317.541987 
L 331.040132 315.875702 
L 330.12442 314.868062 
L 328.699441 313.75955 
L 327.38393 313.303975 
L 325.630754 313.024639 
L 324.237528 313.232669 
L 322.585393 313.8509 
L 321.455561 314.671603 
L 320.308968 316.036037 
L 319.584486 317.683675 
L 319.584486 317.683675 
L 319.584486 317.683675 
L 319.584486 317.683675 
L 319.584486 317.683675 
L 319.584486 317.683675 
L 319.584486 317.683675 
L 319.584486 317.683675 
L 319.584486 317.683675 
L 319.584486 317.683675 
L 319.584486 317.683675 
L 319.584486 317.683675 
L 319.584486 317.683675 
L 319.584486 317.683675 
L 319.584486 317.683675 
L 319.584486 317.683675 
L 319.584486 317.683675 
L 319.584486 317.683675 
L 319.584486 317.683675 
L 319.584486 317.683675 
L 319.584486 317.683675 
L 319.584486 317.683675 
L 319.584486 317.683675 
L 319.584486 317.683675 
L 319.584486 317.683675 
L 319.584486 317.683675 
L 319.584486 317.683675 
L 319.584486 317.683675 
L 319.584486 317.683675 
L 319.584486 317.683675 
L 319.584486 317.683675 
L 319.584486 317.683675 
L 319.584486 317.683675 
L 319.584486 317.683675 
L 319.584486 317.683675 
L 319.584486 317.683675 
L 319.584486 317.683675 
L 319.584486 317.683675 
L 319.584486 317.683675 
L 319.584486 317.683675 
L 319.584486 317.683675 
L 319.584486 317.683675 
L 319.584486 317.683675 
L 319.584486 317.683675 
L 319.584486 317.683675 
L 319.584486 317.683675 
L 319.584486 317.683675 
L 319.584486 317.683675 
L 319.584486 317.683675 
L 319.584486 317.683675 
L 319.584486 317.683675 
L 319.584486 317.683675 
L 319.584486 317.683675 
L 319.584486 317.683675 
L 319.584486 317.683675 
L 319.584486 317.683675 
L 319.584486 317.683675 
L 319.584486 317.683675 
L 319.584486 317.683675 
L 319.584486 317.683675 
L 319.584486 317.683675 
L 319.584486 317.683675 
L 319.584486 317.683675 
L 319.584486 317.683675 
L 319.584486 317.683675 
L 319.584486 317.683675 
L 319.584486 317.683675 
L 319.584486 317.683675 
L 319.584486 317.683675 
L 319.584486 317.683675 
L 319.584486 317.683675 
L 319.584486 317.683675 
L 319.584486 317.683675 
L 319.584486 317.683675 
L 319.584486 317.683675 
L 319.584486 317.683675 
L 319.584486 317.683675 
L 319.584486 317.683675 
L 319.584486 317.683675 
L 319.584486 317.683675 
L 319.584486 317.683675 
L 319.584486 317.683675 
L 319.584486 317.683675 
L 319.584486 317.683675 
L 319.584486 317.683675 
L 319.584486 317.683675 
L 319.584486 317.683675 
L 319.584486 317.683675 
L 319.584486 317.683675 
L 319.584486 317.683675 
L 319.584486 317.683675 
L 319.584486 317.683675 
L 319.584486 317.683675 
L 319.584486 317.683675 
L 319.584486 317.683675 
L 319.584486 317.683675 
L 319.584486 317.683675 
L 319.584486 317.683675 
L 319.584486 317.683675 
L 319.584486 317.683675 
L 319.584486 317.683675 
L 319.584486 317.683675 
L 319.584486 317.683675 
L 319.584486 317.683675 
L 319.584486 317.683675 
L 319.584486 317.683675 
L 319.584486 317.683675 
L 319.584486 317.683675 
L 319.584486 317.683675 
L 319.584486 317.683675 
L 319.584486 317.683675 
L 319.584486 317.683675 
L 319.584486 317.683675 
L 319.584486 317.683675 
L 319.584486 317.683675 
L 319.584486 317.683675 
L 319.584486 317.683675 
L 319.584486 317.683675 
L 319.584486 317.683675 
L 319.584486 317.683675 
L 319.584486 317.683675 
L 319.584486 317.683675 
L 319.584486 317.683675 
L 319.584486 317.683675 
L 319.584486 317.683675 
L 319.584486 317.683675 
L 319.584486 317.683675 
L 319.584486 317.683675 
L 319.584486 317.683675 
L 319.584486 317.683675 
L 319.584486 317.683675 
L 319.584486 317.683675 
L 319.584486 317.683675 
L 319.584486 317.683675 
L 319.584486 317.683675 
L 319.584486 317.683675 
L 319.584486 317.683675 
L 319.584486 317.683675 
L 319.584486 317.683675 
L 319.584486 317.683675 
L 319.584486 317.683675 
L 319.584486 317.683675 
L 319.584486 317.683675 
L 319.584486 317.683675 
L 319.584486 317.683675 
z
" style="fill:#993333;stroke:#000000;stroke-linejoin:miter;"/>
   </g>
   <g id="patch_3">
    <path clip-path="url(#p708b3fe2c8)" d="M 271.89196 285.209035 
L 271.220929 286.289267 
L 325.391497 319.939596 
L 326.062528 318.859364 
L 326.062528 318.859364 
L 326.062528 318.859364 
L 326.062528 318.859364 
L 326.062528 318.859364 
L 326.062528 318.859364 
L 326.062528 318.859364 
L 326.062528 318.859364 
L 326.062528 318.859364 
L 326.062528 318.859364 
L 326.062528 318.859364 
L 326.062528 318.859364 
L 326.062528 318.859364 
L 326.062528 318.859364 
L 326.062528 318.859364 
L 326.062528 318.859364 
L 326.062528 318.859364 
L 326.062528 318.859364 
L 326.062528 318.859364 
L 326.062528 318.859364 
L 326.062528 318.859364 
L 326.062528 318.859364 
L 326.062528 318.859364 
L 326.062528 318.859364 
L 326.062528 318.859364 
L 326.062528 318.859364 
L 326.062528 318.859364 
L 326.062528 318.859364 
L 326.062528 318.859364 
L 326.062528 318.859364 
L 326.062528 318.859364 
L 326.062528 318.859364 
L 326.062528 318.859364 
L 326.062528 318.859364 
L 326.062528 318.859364 
L 326.062528 318.859364 
L 326.062528 318.859364 
L 326.062528 318.859364 
L 326.062528 318.859364 
L 326.062528 318.859364 
L 326.062528 318.859364 
L 326.062528 318.859364 
L 326.062528 318.859364 
L 326.062528 318.859364 
L 326.062528 318.859364 
L 326.062528 318.859364 
L 326.062528 318.859364 
L 326.062528 318.859364 
L 326.062528 318.859364 
z
" style="stroke:#000000;stroke-linejoin:miter;"/>
   </g>
   <g id="patch_4">
    <path clip-path="url(#p708b3fe2c8)" d="M 265.223974 285.833232 
L 265.464641 287.640162 
L 266.066647 288.870849 
L 267.1161 290.328957 
L 268.253173 291.144555 
L 269.854468 291.896844 
L 271.248213 292.097667 
L 273.009298 291.959952 
L 274.318477 291.496831 
L 275.808176 290.502828 
L 276.712257 289.489151 
L 277.565841 287.882227 
L 277.843473 286.566178 
L 277.851954 284.739764 
L 277.435164 283.443557 
L 276.596465 281.844824 
L 275.587297 280.885816 
L 274.106762 279.906188 
L 272.752295 279.519178 
L 270.99241 279.398503 
L 269.624265 279.678244 
L 268.015911 280.446067 
L 266.674682 281.646354 
L 265.931468 282.775418 
L 265.304426 284.488771 
L 265.304426 284.488771 
L 265.304426 284.488771 
L 265.304426 284.488771 
L 265.304426 284.488771 
L 265.304426 284.488771 
L 265.304426 284.488771 
L 265.304426 284.488771 
L 265.304426 284.488771 
L 265.304426 284.488771 
L 265.304426 284.488771 
L 265.304426 284.488771 
L 265.304426 284.488771 
L 265.304426 284.488771 
L 265.304426 284.488771 
L 265.304426 284.488771 
L 265.304426 284.488771 
L 265.304426 284.488771 
L 265.304426 284.488771 
L 265.304426 284.488771 
L 265.304426 284.488771 
L 265.304426 284.488771 
L 265.304426 284.488771 
L 265.304426 284.488771 
L 265.304426 284.488771 
L 265.304426 284.488771 
L 265.304426 284.488771 
L 265.304426 284.488771 
L 265.304426 284.488771 
L 265.304426 284.488771 
L 265.304426 284.488771 
L 265.304426 284.488771 
L 265.304426 284.488771 
L 265.304426 284.488771 
L 265.304426 284.488771 
L 265.304426 284.488771 
L 265.304426 284.488771 
L 265.304426 284.488771 
L 265.304426 284.488771 
L 265.304426 284.488771 
L 265.304426 284.488771 
L 265.304426 284.488771 
L 265.304426 284.488771 
L 265.304426 284.488771 
L 265.304426 284.488771 
L 265.304426 284.488771 
L 265.304426 284.488771 
L 265.304426 284.488771 
L 265.304426 284.488771 
L 265.304426 284.488771 
L 265.304426 284.488771 
L 265.304426 284.488771 
L 265.304426 284.488771 
L 265.304426 284.488771 
L 265.304426 284.488771 
L 265.304426 284.488771 
L 265.304426 284.488771 
L 265.304426 284.488771 
L 265.304426 284.488771 
L 265.304426 284.488771 
L 265.304426 284.488771 
L 265.304426 284.488771 
L 265.304426 284.488771 
L 265.304426 284.488771 
L 265.304426 284.488771 
L 265.304426 284.488771 
L 265.304426 284.488771 
L 265.304426 284.488771 
L 265.304426 284.488771 
L 265.304426 284.488771 
L 265.304426 284.488771 
L 265.304426 284.488771 
L 265.304426 284.488771 
L 265.304426 284.488771 
L 265.304426 284.488771 
L 265.304426 284.488771 
L 265.304426 284.488771 
L 265.304426 284.488771 
L 265.304426 284.488771 
L 265.304426 284.488771 
L 265.304426 284.488771 
L 265.304426 284.488771 
L 265.304426 284.488771 
L 265.304426 284.488771 
L 265.304426 284.488771 
L 265.304426 284.488771 
L 265.304426 284.488771 
L 265.304426 284.488771 
L 265.304426 284.488771 
L 265.304426 284.488771 
L 265.304426 284.488771 
L 265.304426 284.488771 
L 265.304426 284.488771 
L 265.304426 284.488771 
L 265.304426 284.488771 
L 265.304426 284.488771 
L 265.304426 284.488771 
L 265.304426 284.488771 
L 265.304426 284.488771 
L 265.304426 284.488771 
L 265.304426 284.488771 
L 265.304426 284.488771 
L 265.304426 284.488771 
L 265.304426 284.488771 
L 265.304426 284.488771 
L 265.304426 284.488771 
L 265.304426 284.488771 
L 265.304426 284.488771 
L 265.304426 284.488771 
L 265.304426 284.488771 
L 265.304426 284.488771 
L 265.304426 284.488771 
L 265.304426 284.488771 
L 265.304426 284.488771 
L 265.304426 284.488771 
L 265.304426 284.488771 
L 265.304426 284.488771 
L 265.304426 284.488771 
L 265.304426 284.488771 
L 265.304426 284.488771 
L 265.304426 284.488771 
L 265.304426 284.488771 
L 265.304426 284.488771 
L 265.304426 284.488771 
L 265.304426 284.488771 
L 265.304426 284.488771 
L 265.304426 284.488771 
L 265.304426 284.488771 
L 265.304426 284.488771 
L 265.304426 284.488771 
L 265.304426 284.488771 
L 265.304426 284.488771 
L 265.304426 284.488771 
L 265.304426 284.488771 
L 265.304426 284.488771 
L 265.304426 284.488771 
L 265.304426 284.488771 
L 265.304426 284.488771 
L 265.304426 284.488771 
L 265.304426 284.488771 
L 265.304426 284.488771 
L 265.304426 284.488771 
L 265.304426 284.488771 
L 265.304426 284.488771 
L 265.304426 284.488771 
z
" style="fill:#993333;stroke:#000000;stroke-linejoin:miter;"/>
   </g>
   <g id="patch_5">
    <path clip-path="url(#p708b3fe2c8)" d="M 235.632647 233.055877 
L 271.028104 286.102618 
L 272.085924 285.396786 
L 236.690467 232.350045 
L 236.690467 232.350045 
L 236.690467 232.350045 
L 236.690467 232.350045 
L 236.690467 232.350045 
L 236.690467 232.350045 
L 236.690467 232.350045 
L 236.690467 232.350045 
L 236.690467 232.350045 
L 236.690467 232.350045 
L 236.690467 232.350045 
L 236.690467 232.350045 
L 236.690467 232.350045 
L 236.690467 232.350045 
L 236.690467 232.350045 
L 236.690467 232.350045 
L 236.690467 232.350045 
L 236.690467 232.350045 
L 236.690467 232.350045 
L 236.690467 232.350045 
L 236.690467 232.350045 
L 236.690467 232.350045 
L 236.690467 232.350045 
L 236.690467 232.350045 
L 236.690467 232.350045 
L 236.690467 232.350045 
L 236.690467 232.350045 
L 236.690467 232.350045 
L 236.690467 232.350045 
L 236.690467 232.350045 
L 236.690467 232.350045 
L 236.690467 232.350045 
L 236.690467 232.350045 
L 236.690467 232.350045 
L 236.690467 232.350045 
L 236.690467 232.350045 
L 236.690467 232.350045 
L 236.690467 232.350045 
L 236.690467 232.350045 
L 236.690467 232.350045 
L 236.690467 232.350045 
L 236.690467 232.350045 
L 236.690467 232.350045 
L 236.690467 232.350045 
L 236.690467 232.350045 
L 236.690467 232.350045 
L 236.690467 232.350045 
L 236.690467 232.350045 
L 236.690467 232.350045 
z
" style="stroke:#000000;stroke-linejoin:miter;"/>
   </g>
   <g id="text_1">
    <!-- t = 4.7 -->
    <defs>
     <path d="M 18.3125 70.21875 
L 18.3125 54.6875 
L 36.8125 54.6875 
L 36.8125 47.703125 
L 18.3125 47.703125 
L 18.3125 18.015625 
Q 18.3125 11.328125 20.140625 9.421875 
Q 21.96875 7.515625 27.59375 7.515625 
L 36.8125 7.515625 
L 36.8125 0 
L 27.59375 0 
Q 17.1875 0 13.234375 3.875 
Q 9.28125 7.765625 9.28125 18.015625 
L 9.28125 47.703125 
L 2.6875 47.703125 
L 2.6875 54.6875 
L 9.28125 54.6875 
L 9.28125 70.21875 
z
" id="DejaVuSans-116"/>
     <path id="DejaVuSans-32"/>
     <path d="M 10.59375 45.40625 
L 73.1875 45.40625 
L 73.1875 37.203125 
L 10.59375 37.203125 
z
M 10.59375 25.484375 
L 73.1875 25.484375 
L 73.1875 17.1875 
L 10.59375 17.1875 
z
" id="DejaVuSans-61"/>
     <path d="M 37.796875 64.3125 
L 12.890625 25.390625 
L 37.796875 25.390625 
z
M 35.203125 72.90625 
L 47.609375 72.90625 
L 47.609375 25.390625 
L 58.015625 25.390625 
L 58.015625 17.1875 
L 47.609375 17.1875 
L 47.609375 0 
L 37.796875 0 
L 37.796875 17.1875 
L 4.890625 17.1875 
L 4.890625 26.703125 
z
" id="DejaVuSans-52"/>
     <path d="M 10.6875 12.40625 
L 21 12.40625 
L 21 0 
L 10.6875 0 
z
" id="DejaVuSans-46"/>
     <path d="M 8.203125 72.90625 
L 55.078125 72.90625 
L 55.078125 68.703125 
L 28.609375 0 
L 18.3125 0 
L 43.21875 64.59375 
L 8.203125 64.59375 
z
" id="DejaVuSans-55"/>
    </defs>
    <g transform="translate(215.424375 49.296)scale(0.12 -0.12)">
     <use xlink:href="#DejaVuSans-116"/>
     <use x="39.208984" xlink:href="#DejaVuSans-32"/>
     <use x="70.996094" xlink:href="#DejaVuSans-61"/>
     <use x="154.785156" xlink:href="#DejaVuSans-32"/>
     <use x="186.572266" xlink:href="#DejaVuSans-52"/>
     <use x="250.195312" xlink:href="#DejaVuSans-46"/>
     <use x="281.982422" xlink:href="#DejaVuSans-55"/>
    </g>
   </g>
  </g>
 </g>
 <defs>
  <clipPath id="p708b3fe2c8">
   <rect height="354.816" width="357.12" x="57.6" y="55.296"/>
  </clipPath>
 </defs>
</svg>
