<?xml version="1.0" encoding="utf-8" standalone="no"?>
<!DOCTYPE svg PUBLIC "-//W3C//DTD SVG 1.1//EN"
  "http://www.w3.org/Graphics/SVG/1.1/DTD/svg11.dtd">
<!-- Created with matplotlib (https://matplotlib.org/) -->
<svg height="460.8pt" version="1.1" viewBox="0 0 460.8 460.8" width="460.8pt" xmlns="http://www.w3.org/2000/svg" xmlns:xlink="http://www.w3.org/1999/xlink">
 <defs>
  <style type="text/css">
*{stroke-linecap:butt;stroke-linejoin:round;}
  </style>
 </defs>
 <g id="figure_1">
  <g id="patch_1">
   <path d="M 0 460.8 
L 460.8 460.8 
L 460.8 0 
L 0 0 
z
" style="fill:#ffffff;"/>
  </g>
  <g id="axes_1">
   <g id="patch_2">
    <path clip-path="url(#pa7a357479a)" d="M 143.55405 324.698945 
L 143.530115 326.10688 
L 143.888231 327.83666 
L 144.512332 329.077196 
L 145.685803 330.430049 
L 146.805138 331.19946 
L 148.506658 331.844161 
L 149.847175 331.954067 
L 151.660152 331.73277 
L 152.893646 331.156263 
L 154.3742 330.12315 
L 155.198668 329.00138 
L 155.984309 327.409392 
L 156.197892 326.017006 
L 156.096266 324.255918 
L 155.646673 322.933821 
L 154.682663 321.434809 
L 153.323218 320.255192 
L 152.109645 319.659883 
L 150.331034 319.253311 
L 148.98713 319.342592 
L 147.224818 319.808608 
L 146.079618 320.560619 
L 144.76508 321.785126 
L 144.098969 323.015749 
L 144.098969 323.015749 
L 144.098969 323.015749 
L 144.098969 323.015749 
L 144.098969 323.015749 
L 144.098969 323.015749 
L 144.098969 323.015749 
L 144.098969 323.015749 
L 144.098969 323.015749 
L 144.098969 323.015749 
L 144.098969 323.015749 
L 144.098969 323.015749 
L 144.098969 323.015749 
L 144.098969 323.015749 
L 144.098969 323.015749 
L 144.098969 323.015749 
L 144.098969 323.015749 
L 144.098969 323.015749 
L 144.098969 323.015749 
L 144.098969 323.015749 
L 144.098969 323.015749 
L 144.098969 323.015749 
L 144.098969 323.015749 
L 144.098969 323.015749 
L 144.098969 323.015749 
L 144.098969 323.015749 
L 144.098969 323.015749 
L 144.098969 323.015749 
L 144.098969 323.015749 
L 144.098969 323.015749 
L 144.098969 323.015749 
L 144.098969 323.015749 
L 144.098969 323.015749 
L 144.098969 323.015749 
L 144.098969 323.015749 
L 144.098969 323.015749 
L 144.098969 323.015749 
L 144.098969 323.015749 
L 144.098969 323.015749 
L 144.098969 323.015749 
L 144.098969 323.015749 
L 144.098969 323.015749 
L 144.098969 323.015749 
L 144.098969 323.015749 
L 144.098969 323.015749 
L 144.098969 323.015749 
L 144.098969 323.015749 
L 144.098969 323.015749 
L 144.098969 323.015749 
L 144.098969 323.015749 
L 144.098969 323.015749 
L 144.098969 323.015749 
L 144.098969 323.015749 
L 144.098969 323.015749 
L 144.098969 323.015749 
L 144.098969 323.015749 
L 144.098969 323.015749 
L 144.098969 323.015749 
L 144.098969 323.015749 
L 144.098969 323.015749 
L 144.098969 323.015749 
L 144.098969 323.015749 
L 144.098969 323.015749 
L 144.098969 323.015749 
L 144.098969 323.015749 
L 144.098969 323.015749 
L 144.098969 323.015749 
L 144.098969 323.015749 
L 144.098969 323.015749 
L 144.098969 323.015749 
L 144.098969 323.015749 
L 144.098969 323.015749 
L 144.098969 323.015749 
L 144.098969 323.015749 
L 144.098969 323.015749 
L 144.098969 323.015749 
L 144.098969 323.015749 
L 144.098969 323.015749 
L 144.098969 323.015749 
L 144.098969 323.015749 
L 144.098969 323.015749 
L 144.098969 323.015749 
L 144.098969 323.015749 
L 144.098969 323.015749 
L 144.098969 323.015749 
L 144.098969 323.015749 
L 144.098969 323.015749 
L 144.098969 323.015749 
L 144.098969 323.015749 
L 144.098969 323.015749 
L 144.098969 323.015749 
L 144.098969 323.015749 
L 144.098969 323.015749 
L 144.098969 323.015749 
L 144.098969 323.015749 
L 144.098969 323.015749 
L 144.098969 323.015749 
L 144.098969 323.015749 
L 144.098969 323.015749 
L 144.098969 323.015749 
L 144.098969 323.015749 
L 144.098969 323.015749 
L 144.098969 323.015749 
L 144.098969 323.015749 
L 144.098969 323.015749 
L 144.098969 323.015749 
L 144.098969 323.015749 
L 144.098969 323.015749 
L 144.098969 323.015749 
L 144.098969 323.015749 
L 144.098969 323.015749 
L 144.098969 323.015749 
L 144.098969 323.015749 
L 144.098969 323.015749 
L 144.098969 323.015749 
L 144.098969 323.015749 
L 144.098969 323.015749 
L 144.098969 323.015749 
L 144.098969 323.015749 
L 144.098969 323.015749 
L 144.098969 323.015749 
L 144.098969 323.015749 
L 144.098969 323.015749 
L 144.098969 323.015749 
L 144.098969 323.015749 
L 144.098969 323.015749 
L 144.098969 323.015749 
L 144.098969 323.015749 
L 144.098969 323.015749 
L 144.098969 323.015749 
L 144.098969 323.015749 
L 144.098969 323.015749 
L 144.098969 323.015749 
L 144.098969 323.015749 
L 144.098969 323.015749 
L 144.098969 323.015749 
L 144.098969 323.015749 
L 144.098969 323.015749 
L 144.098969 323.015749 
L 144.098969 323.015749 
L 144.098969 323.015749 
L 144.098969 323.015749 
L 144.098969 323.015749 
L 144.098969 323.015749 
L 144.098969 323.015749 
z
" style="fill:#993333;stroke:#000000;stroke-linejoin:miter;"/>
   </g>
   <g id="patch_3">
    <path clip-path="url(#pa7a357479a)" d="M 197.623655 283.348366 
L 149.449876 325.134514 
L 150.283146 326.095161 
L 198.456925 284.309013 
L 198.456925 284.309013 
L 198.456925 284.309013 
L 198.456925 284.309013 
L 198.456925 284.309013 
L 198.456925 284.309013 
L 198.456925 284.309013 
L 198.456925 284.309013 
L 198.456925 284.309013 
L 198.456925 284.309013 
L 198.456925 284.309013 
L 198.456925 284.309013 
L 198.456925 284.309013 
L 198.456925 284.309013 
L 198.456925 284.309013 
L 198.456925 284.309013 
L 198.456925 284.309013 
L 198.456925 284.309013 
L 198.456925 284.309013 
L 198.456925 284.309013 
L 198.456925 284.309013 
L 198.456925 284.309013 
L 198.456925 284.309013 
L 198.456925 284.309013 
L 198.456925 284.309013 
L 198.456925 284.309013 
L 198.456925 284.309013 
L 198.456925 284.309013 
L 198.456925 284.309013 
L 198.456925 284.309013 
L 198.456925 284.309013 
L 198.456925 284.309013 
L 198.456925 284.309013 
L 198.456925 284.309013 
L 198.456925 284.309013 
L 198.456925 284.309013 
L 198.456925 284.309013 
L 198.456925 284.309013 
L 198.456925 284.309013 
L 198.456925 284.309013 
L 198.456925 284.309013 
L 198.456925 284.309013 
L 198.456925 284.309013 
L 198.456925 284.309013 
L 198.456925 284.309013 
L 198.456925 284.309013 
L 198.456925 284.309013 
L 198.456925 284.309013 
L 198.456925 284.309013 
z
" style="stroke:#000000;stroke-linejoin:miter;"/>
   </g>
   <g id="patch_4">
    <path clip-path="url(#pa7a357479a)" d="M 193.260232 279.701153 
L 192.238036 281.178496 
L 191.850567 282.523117 
L 191.67829 284.283914 
L 191.956062 285.664384 
L 192.675884 287.27753 
L 193.550887 288.355862 
L 194.986571 289.426404 
L 196.244575 289.938585 
L 198.044614 290.204416 
L 199.377616 290.025046 
L 201.101299 289.421081 
L 202.182932 288.594077 
L 203.408241 287.268188 
L 203.973685 285.996028 
L 204.400622 284.272839 
L 204.311436 282.866993 
L 203.835471 281.168401 
L 203.113491 279.973069 
L 201.851157 278.714948 
L 200.270859 277.853412 
L 198.958038 277.531461 
L 197.133626 277.514737 
L 195.839922 277.889408 
L 194.218075 278.721592 
L 194.218075 278.721592 
L 194.218075 278.721592 
L 194.218075 278.721592 
L 194.218075 278.721592 
L 194.218075 278.721592 
L 194.218075 278.721592 
L 194.218075 278.721592 
L 194.218075 278.721592 
L 194.218075 278.721592 
L 194.218075 278.721592 
L 194.218075 278.721592 
L 194.218075 278.721592 
L 194.218075 278.721592 
L 194.218075 278.721592 
L 194.218075 278.721592 
L 194.218075 278.721592 
L 194.218075 278.721592 
L 194.218075 278.721592 
L 194.218075 278.721592 
L 194.218075 278.721592 
L 194.218075 278.721592 
L 194.218075 278.721592 
L 194.218075 278.721592 
L 194.218075 278.721592 
L 194.218075 278.721592 
L 194.218075 278.721592 
L 194.218075 278.721592 
L 194.218075 278.721592 
L 194.218075 278.721592 
L 194.218075 278.721592 
L 194.218075 278.721592 
L 194.218075 278.721592 
L 194.218075 278.721592 
L 194.218075 278.721592 
L 194.218075 278.721592 
L 194.218075 278.721592 
L 194.218075 278.721592 
L 194.218075 278.721592 
L 194.218075 278.721592 
L 194.218075 278.721592 
L 194.218075 278.721592 
L 194.218075 278.721592 
L 194.218075 278.721592 
L 194.218075 278.721592 
L 194.218075 278.721592 
L 194.218075 278.721592 
L 194.218075 278.721592 
L 194.218075 278.721592 
L 194.218075 278.721592 
L 194.218075 278.721592 
L 194.218075 278.721592 
L 194.218075 278.721592 
L 194.218075 278.721592 
L 194.218075 278.721592 
L 194.218075 278.721592 
L 194.218075 278.721592 
L 194.218075 278.721592 
L 194.218075 278.721592 
L 194.218075 278.721592 
L 194.218075 278.721592 
L 194.218075 278.721592 
L 194.218075 278.721592 
L 194.218075 278.721592 
L 194.218075 278.721592 
L 194.218075 278.721592 
L 194.218075 278.721592 
L 194.218075 278.721592 
L 194.218075 278.721592 
L 194.218075 278.721592 
L 194.218075 278.721592 
L 194.218075 278.721592 
L 194.218075 278.721592 
L 194.218075 278.721592 
L 194.218075 278.721592 
L 194.218075 278.721592 
L 194.218075 278.721592 
L 194.218075 278.721592 
L 194.218075 278.721592 
L 194.218075 278.721592 
L 194.218075 278.721592 
L 194.218075 278.721592 
L 194.218075 278.721592 
L 194.218075 278.721592 
L 194.218075 278.721592 
L 194.218075 278.721592 
L 194.218075 278.721592 
L 194.218075 278.721592 
L 194.218075 278.721592 
L 194.218075 278.721592 
L 194.218075 278.721592 
L 194.218075 278.721592 
L 194.218075 278.721592 
L 194.218075 278.721592 
L 194.218075 278.721592 
L 194.218075 278.721592 
L 194.218075 278.721592 
L 194.218075 278.721592 
L 194.218075 278.721592 
L 194.218075 278.721592 
L 194.218075 278.721592 
L 194.218075 278.721592 
L 194.218075 278.721592 
L 194.218075 278.721592 
L 194.218075 278.721592 
L 194.218075 278.721592 
L 194.218075 278.721592 
L 194.218075 278.721592 
L 194.218075 278.721592 
L 194.218075 278.721592 
L 194.218075 278.721592 
L 194.218075 278.721592 
L 194.218075 278.721592 
L 194.218075 278.721592 
L 194.218075 278.721592 
L 194.218075 278.721592 
L 194.218075 278.721592 
L 194.218075 278.721592 
L 194.218075 278.721592 
L 194.218075 278.721592 
L 194.218075 278.721592 
L 194.218075 278.721592 
L 194.218075 278.721592 
L 194.218075 278.721592 
L 194.218075 278.721592 
L 194.218075 278.721592 
L 194.218075 278.721592 
L 194.218075 278.721592 
L 194.218075 278.721592 
L 194.218075 278.721592 
L 194.218075 278.721592 
L 194.218075 278.721592 
L 194.218075 278.721592 
L 194.218075 278.721592 
L 194.218075 278.721592 
L 194.218075 278.721592 
L 194.218075 278.721592 
L 194.218075 278.721592 
L 194.218075 278.721592 
L 194.218075 278.721592 
L 194.218075 278.721592 
L 194.218075 278.721592 
L 194.218075 278.721592 
L 194.218075 278.721592 
L 194.218075 278.721592 
z
" style="fill:#993333;stroke:#000000;stroke-linejoin:miter;"/>
   </g>
   <g id="patch_5">
    <path clip-path="url(#pa7a357479a)" d="M 235.651768 232.325028 
L 197.530832 283.448304 
L 198.550296 284.208485 
L 236.671233 233.085209 
L 236.671233 233.085209 
L 236.671233 233.085209 
L 236.671233 233.085209 
L 236.671233 233.085209 
L 236.671233 233.085209 
L 236.671233 233.085209 
L 236.671233 233.085209 
L 236.671233 233.085209 
L 236.671233 233.085209 
L 236.671233 233.085209 
L 236.671233 233.085209 
L 236.671233 233.085209 
L 236.671233 233.085209 
L 236.671233 233.085209 
L 236.671233 233.085209 
L 236.671233 233.085209 
L 236.671233 233.085209 
L 236.671233 233.085209 
L 236.671233 233.085209 
L 236.671233 233.085209 
L 236.671233 233.085209 
L 236.671233 233.085209 
L 236.671233 233.085209 
L 236.671233 233.085209 
L 236.671233 233.085209 
L 236.671233 233.085209 
L 236.671233 233.085209 
L 236.671233 233.085209 
L 236.671233 233.085209 
L 236.671233 233.085209 
L 236.671233 233.085209 
L 236.671233 233.085209 
L 236.671233 233.085209 
L 236.671233 233.085209 
L 236.671233 233.085209 
L 236.671233 233.085209 
L 236.671233 233.085209 
L 236.671233 233.085209 
L 236.671233 233.085209 
L 236.671233 233.085209 
L 236.671233 233.085209 
L 236.671233 233.085209 
L 236.671233 233.085209 
L 236.671233 233.085209 
L 236.671233 233.085209 
L 236.671233 233.085209 
L 236.671233 233.085209 
L 236.671233 233.085209 
z
" style="stroke:#000000;stroke-linejoin:miter;"/>
   </g>
   <g id="text_1">
    <!-- t = 5.3 -->
    <defs>
     <path d="M 18.3125 70.21875 
L 18.3125 54.6875 
L 36.8125 54.6875 
L 36.8125 47.703125 
L 18.3125 47.703125 
L 18.3125 18.015625 
Q 18.3125 11.328125 20.140625 9.421875 
Q 21.96875 7.515625 27.59375 7.515625 
L 36.8125 7.515625 
L 36.8125 0 
L 27.59375 0 
Q 17.1875 0 13.234375 3.875 
Q 9.28125 7.765625 9.28125 18.015625 
L 9.28125 47.703125 
L 2.6875 47.703125 
L 2.6875 54.6875 
L 9.28125 54.6875 
L 9.28125 70.21875 
z
" id="DejaVuSans-116"/>
     <path id="DejaVuSans-32"/>
     <path d="M 10.59375 45.40625 
L 73.1875 45.40625 
L 73.1875 37.203125 
L 10.59375 37.203125 
z
M 10.59375 25.484375 
L 73.1875 25.484375 
L 73.1875 17.1875 
L 10.59375 17.1875 
z
" id="DejaVuSans-61"/>
     <path d="M 10.796875 72.90625 
L 49.515625 72.90625 
L 49.515625 64.59375 
L 19.828125 64.59375 
L 19.828125 46.734375 
Q 21.96875 47.46875 24.109375 47.828125 
Q 26.265625 48.1875 28.421875 48.1875 
Q 40.625 48.1875 47.75 41.5 
Q 54.890625 34.8125 54.890625 23.390625 
Q 54.890625 11.625 47.5625 5.09375 
Q 40.234375 -1.421875 26.90625 -1.421875 
Q 22.3125 -1.421875 17.546875 -0.640625 
Q 12.796875 0.140625 7.71875 1.703125 
L 7.71875 11.625 
Q 12.109375 9.234375 16.796875 8.0625 
Q 21.484375 6.890625 26.703125 6.890625 
Q 35.15625 6.890625 40.078125 11.328125 
Q 45.015625 15.765625 45.015625 23.390625 
Q 45.015625 31 40.078125 35.4375 
Q 35.15625 39.890625 26.703125 39.890625 
Q 22.75 39.890625 18.8125 39.015625 
Q 14.890625 38.140625 10.796875 36.28125 
z
" id="DejaVuSans-53"/>
     <path d="M 10.6875 12.40625 
L 21 12.40625 
L 21 0 
L 10.6875 0 
z
" id="DejaVuSans-46"/>
     <path d="M 40.578125 39.3125 
Q 47.65625 37.796875 51.625 33 
Q 55.609375 28.21875 55.609375 21.1875 
Q 55.609375 10.40625 48.1875 4.484375 
Q 40.765625 -1.421875 27.09375 -1.421875 
Q 22.515625 -1.421875 17.65625 -0.515625 
Q 12.796875 0.390625 7.625 2.203125 
L 7.625 11.71875 
Q 11.71875 9.328125 16.59375 8.109375 
Q 21.484375 6.890625 26.8125 6.890625 
Q 36.078125 6.890625 40.9375 10.546875 
Q 45.796875 14.203125 45.796875 21.1875 
Q 45.796875 27.640625 41.28125 31.265625 
Q 36.765625 34.90625 28.71875 34.90625 
L 20.21875 34.90625 
L 20.21875 43.015625 
L 29.109375 43.015625 
Q 36.375 43.015625 40.234375 45.921875 
Q 44.09375 48.828125 44.09375 54.296875 
Q 44.09375 59.90625 40.109375 62.90625 
Q 36.140625 65.921875 28.71875 65.921875 
Q 24.65625 65.921875 20.015625 65.03125 
Q 15.375 64.15625 9.8125 62.3125 
L 9.8125 71.09375 
Q 15.4375 72.65625 20.34375 73.4375 
Q 25.25 74.21875 29.59375 74.21875 
Q 40.828125 74.21875 47.359375 69.109375 
Q 53.90625 64.015625 53.90625 55.328125 
Q 53.90625 49.265625 50.4375 45.09375 
Q 46.96875 40.921875 40.578125 39.3125 
z
" id="DejaVuSans-51"/>
    </defs>
    <g transform="translate(215.424375 49.296)scale(0.12 -0.12)">
     <use xlink:href="#DejaVuSans-116"/>
     <use x="39.208984" xlink:href="#DejaVuSans-32"/>
     <use x="70.996094" xlink:href="#DejaVuSans-61"/>
     <use x="154.785156" xlink:href="#DejaVuSans-32"/>
     <use x="186.572266" xlink:href="#DejaVuSans-53"/>
     <use x="250.195312" xlink:href="#DejaVuSans-46"/>
     <use x="281.982422" xlink:href="#DejaVuSans-51"/>
    </g>
   </g>
  </g>
 </g>
 <defs>
  <clipPath id="pa7a357479a">
   <rect height="354.816" width="357.12" x="57.6" y="55.296"/>
  </clipPath>
 </defs>
</svg>
