<?xml version="1.0" encoding="utf-8" standalone="no"?>
<!DOCTYPE svg PUBLIC "-//W3C//DTD SVG 1.1//EN"
  "http://www.w3.org/Graphics/SVG/1.1/DTD/svg11.dtd">
<!-- Created with matplotlib (https://matplotlib.org/) -->
<svg height="460.8pt" version="1.1" viewBox="0 0 460.8 460.8" width="460.8pt" xmlns="http://www.w3.org/2000/svg" xmlns:xlink="http://www.w3.org/1999/xlink">
 <defs>
  <style type="text/css">
*{stroke-linecap:butt;stroke-linejoin:round;}
  </style>
 </defs>
 <g id="figure_1">
  <g id="patch_1">
   <path d="M 0 460.8 
L 460.8 460.8 
L 460.8 0 
L 0 0 
z
" style="fill:#ffffff;"/>
  </g>
  <g id="axes_1">
   <g id="patch_2">
    <path clip-path="url(#pfaa9bc8c45)" d="M 343.379581 289.084723 
L 342.398536 290.572643 
L 341.86953 292.293032 
L 341.815912 293.643689 
L 342.163434 295.434775 
L 342.788626 296.627747 
L 343.927591 298.05101 
L 345.078524 298.794215 
L 346.730074 299.50119 
L 348.12496 299.612665 
L 349.884737 299.43026 
L 351.18206 298.882713 
L 352.61921 297.855588 
L 353.501338 296.783077 
L 354.263996 295.162707 
L 354.514956 293.82782 
L 354.416397 292.010928 
L 353.974743 290.740492 
L 353.039098 289.171918 
L 352.012962 288.27698 
L 350.46931 287.340764 
L 349.109927 287.040436 
L 347.336207 286.965798 
L 345.976402 287.333611 
L 344.406882 288.138823 
L 344.406882 288.138823 
L 344.406882 288.138823 
L 344.406882 288.138823 
L 344.406882 288.138823 
L 344.406882 288.138823 
L 344.406882 288.138823 
L 344.406882 288.138823 
L 344.406882 288.138823 
L 344.406882 288.138823 
L 344.406882 288.138823 
L 344.406882 288.138823 
L 344.406882 288.138823 
L 344.406882 288.138823 
L 344.406882 288.138823 
L 344.406882 288.138823 
L 344.406882 288.138823 
L 344.406882 288.138823 
L 344.406882 288.138823 
L 344.406882 288.138823 
L 344.406882 288.138823 
L 344.406882 288.138823 
L 344.406882 288.138823 
L 344.406882 288.138823 
L 344.406882 288.138823 
L 344.406882 288.138823 
L 344.406882 288.138823 
L 344.406882 288.138823 
L 344.406882 288.138823 
L 344.406882 288.138823 
L 344.406882 288.138823 
L 344.406882 288.138823 
L 344.406882 288.138823 
L 344.406882 288.138823 
L 344.406882 288.138823 
L 344.406882 288.138823 
L 344.406882 288.138823 
L 344.406882 288.138823 
L 344.406882 288.138823 
L 344.406882 288.138823 
L 344.406882 288.138823 
L 344.406882 288.138823 
L 344.406882 288.138823 
L 344.406882 288.138823 
L 344.406882 288.138823 
L 344.406882 288.138823 
L 344.406882 288.138823 
L 344.406882 288.138823 
L 344.406882 288.138823 
L 344.406882 288.138823 
L 344.406882 288.138823 
L 344.406882 288.138823 
L 344.406882 288.138823 
L 344.406882 288.138823 
L 344.406882 288.138823 
L 344.406882 288.138823 
L 344.406882 288.138823 
L 344.406882 288.138823 
L 344.406882 288.138823 
L 344.406882 288.138823 
L 344.406882 288.138823 
L 344.406882 288.138823 
L 344.406882 288.138823 
L 344.406882 288.138823 
L 344.406882 288.138823 
L 344.406882 288.138823 
L 344.406882 288.138823 
L 344.406882 288.138823 
L 344.406882 288.138823 
L 344.406882 288.138823 
L 344.406882 288.138823 
L 344.406882 288.138823 
L 344.406882 288.138823 
L 344.406882 288.138823 
L 344.406882 288.138823 
L 344.406882 288.138823 
L 344.406882 288.138823 
L 344.406882 288.138823 
L 344.406882 288.138823 
L 344.406882 288.138823 
L 344.406882 288.138823 
L 344.406882 288.138823 
L 344.406882 288.138823 
L 344.406882 288.138823 
L 344.406882 288.138823 
L 344.406882 288.138823 
L 344.406882 288.138823 
L 344.406882 288.138823 
L 344.406882 288.138823 
L 344.406882 288.138823 
L 344.406882 288.138823 
L 344.406882 288.138823 
L 344.406882 288.138823 
L 344.406882 288.138823 
L 344.406882 288.138823 
L 344.406882 288.138823 
L 344.406882 288.138823 
L 344.406882 288.138823 
L 344.406882 288.138823 
L 344.406882 288.138823 
L 344.406882 288.138823 
L 344.406882 288.138823 
L 344.406882 288.138823 
L 344.406882 288.138823 
L 344.406882 288.138823 
L 344.406882 288.138823 
L 344.406882 288.138823 
L 344.406882 288.138823 
L 344.406882 288.138823 
L 344.406882 288.138823 
L 344.406882 288.138823 
L 344.406882 288.138823 
L 344.406882 288.138823 
L 344.406882 288.138823 
L 344.406882 288.138823 
L 344.406882 288.138823 
L 344.406882 288.138823 
L 344.406882 288.138823 
L 344.406882 288.138823 
L 344.406882 288.138823 
L 344.406882 288.138823 
L 344.406882 288.138823 
L 344.406882 288.138823 
L 344.406882 288.138823 
L 344.406882 288.138823 
L 344.406882 288.138823 
L 344.406882 288.138823 
L 344.406882 288.138823 
L 344.406882 288.138823 
L 344.406882 288.138823 
L 344.406882 288.138823 
L 344.406882 288.138823 
L 344.406882 288.138823 
L 344.406882 288.138823 
L 344.406882 288.138823 
L 344.406882 288.138823 
L 344.406882 288.138823 
L 344.406882 288.138823 
L 344.406882 288.138823 
L 344.406882 288.138823 
L 344.406882 288.138823 
L 344.406882 288.138823 
L 344.406882 288.138823 
L 344.406882 288.138823 
L 344.406882 288.138823 
z
" style="fill:#993333;stroke:#000000;stroke-linejoin:miter;"/>
   </g>
   <g id="patch_3">
    <path clip-path="url(#pfaa9bc8c45)" d="M 290.740306 265.55389 
L 290.19875 266.704498 
L 347.898534 293.862004 
L 348.440089 292.711396 
L 348.440089 292.711396 
L 348.440089 292.711396 
L 348.440089 292.711396 
L 348.440089 292.711396 
L 348.440089 292.711396 
L 348.440089 292.711396 
L 348.440089 292.711396 
L 348.440089 292.711396 
L 348.440089 292.711396 
L 348.440089 292.711396 
L 348.440089 292.711396 
L 348.440089 292.711396 
L 348.440089 292.711396 
L 348.440089 292.711396 
L 348.440089 292.711396 
L 348.440089 292.711396 
L 348.440089 292.711396 
L 348.440089 292.711396 
L 348.440089 292.711396 
L 348.440089 292.711396 
L 348.440089 292.711396 
L 348.440089 292.711396 
L 348.440089 292.711396 
L 348.440089 292.711396 
L 348.440089 292.711396 
L 348.440089 292.711396 
L 348.440089 292.711396 
L 348.440089 292.711396 
L 348.440089 292.711396 
L 348.440089 292.711396 
L 348.440089 292.711396 
L 348.440089 292.711396 
L 348.440089 292.711396 
L 348.440089 292.711396 
L 348.440089 292.711396 
L 348.440089 292.711396 
L 348.440089 292.711396 
L 348.440089 292.711396 
L 348.440089 292.711396 
L 348.440089 292.711396 
L 348.440089 292.711396 
L 348.440089 292.711396 
L 348.440089 292.711396 
L 348.440089 292.711396 
L 348.440089 292.711396 
L 348.440089 292.711396 
L 348.440089 292.711396 
L 348.440089 292.711396 
z
" style="stroke:#000000;stroke-linejoin:miter;"/>
   </g>
   <g id="patch_4">
    <path clip-path="url(#pfaa9bc8c45)" d="M 284.116159 265.775045 
L 284.261634 267.593725 
L 284.749791 268.849014 
L 285.722812 270.39049 
L 286.783619 271.257491 
L 288.345957 272.144355 
L 289.719691 272.410796 
L 291.488831 272.425913 
L 292.839154 272.026561 
L 294.381949 271.16623 
L 295.378255 270.19886 
L 296.316975 268.67372 
L 296.715333 267.375177 
L 296.820147 265.558635 
L 296.523025 264.246848 
L 295.76827 262.583658 
L 294.848415 261.579799 
L 293.418882 260.477167 
L 292.101505 260.027014 
L 290.347193 259.754903 
L 288.954835 259.968671 
L 287.305262 260.593703 
L 286.17882 261.419053 
L 285.037858 262.788199 
L 284.320169 264.438807 
L 284.320169 264.438807 
L 284.320169 264.438807 
L 284.320169 264.438807 
L 284.320169 264.438807 
L 284.320169 264.438807 
L 284.320169 264.438807 
L 284.320169 264.438807 
L 284.320169 264.438807 
L 284.320169 264.438807 
L 284.320169 264.438807 
L 284.320169 264.438807 
L 284.320169 264.438807 
L 284.320169 264.438807 
L 284.320169 264.438807 
L 284.320169 264.438807 
L 284.320169 264.438807 
L 284.320169 264.438807 
L 284.320169 264.438807 
L 284.320169 264.438807 
L 284.320169 264.438807 
L 284.320169 264.438807 
L 284.320169 264.438807 
L 284.320169 264.438807 
L 284.320169 264.438807 
L 284.320169 264.438807 
L 284.320169 264.438807 
L 284.320169 264.438807 
L 284.320169 264.438807 
L 284.320169 264.438807 
L 284.320169 264.438807 
L 284.320169 264.438807 
L 284.320169 264.438807 
L 284.320169 264.438807 
L 284.320169 264.438807 
L 284.320169 264.438807 
L 284.320169 264.438807 
L 284.320169 264.438807 
L 284.320169 264.438807 
L 284.320169 264.438807 
L 284.320169 264.438807 
L 284.320169 264.438807 
L 284.320169 264.438807 
L 284.320169 264.438807 
L 284.320169 264.438807 
L 284.320169 264.438807 
L 284.320169 264.438807 
L 284.320169 264.438807 
L 284.320169 264.438807 
L 284.320169 264.438807 
L 284.320169 264.438807 
L 284.320169 264.438807 
L 284.320169 264.438807 
L 284.320169 264.438807 
L 284.320169 264.438807 
L 284.320169 264.438807 
L 284.320169 264.438807 
L 284.320169 264.438807 
L 284.320169 264.438807 
L 284.320169 264.438807 
L 284.320169 264.438807 
L 284.320169 264.438807 
L 284.320169 264.438807 
L 284.320169 264.438807 
L 284.320169 264.438807 
L 284.320169 264.438807 
L 284.320169 264.438807 
L 284.320169 264.438807 
L 284.320169 264.438807 
L 284.320169 264.438807 
L 284.320169 264.438807 
L 284.320169 264.438807 
L 284.320169 264.438807 
L 284.320169 264.438807 
L 284.320169 264.438807 
L 284.320169 264.438807 
L 284.320169 264.438807 
L 284.320169 264.438807 
L 284.320169 264.438807 
L 284.320169 264.438807 
L 284.320169 264.438807 
L 284.320169 264.438807 
L 284.320169 264.438807 
L 284.320169 264.438807 
L 284.320169 264.438807 
L 284.320169 264.438807 
L 284.320169 264.438807 
L 284.320169 264.438807 
L 284.320169 264.438807 
L 284.320169 264.438807 
L 284.320169 264.438807 
L 284.320169 264.438807 
L 284.320169 264.438807 
L 284.320169 264.438807 
L 284.320169 264.438807 
L 284.320169 264.438807 
L 284.320169 264.438807 
L 284.320169 264.438807 
L 284.320169 264.438807 
L 284.320169 264.438807 
L 284.320169 264.438807 
L 284.320169 264.438807 
L 284.320169 264.438807 
L 284.320169 264.438807 
L 284.320169 264.438807 
L 284.320169 264.438807 
L 284.320169 264.438807 
L 284.320169 264.438807 
L 284.320169 264.438807 
L 284.320169 264.438807 
L 284.320169 264.438807 
L 284.320169 264.438807 
L 284.320169 264.438807 
L 284.320169 264.438807 
L 284.320169 264.438807 
L 284.320169 264.438807 
L 284.320169 264.438807 
L 284.320169 264.438807 
L 284.320169 264.438807 
L 284.320169 264.438807 
L 284.320169 264.438807 
L 284.320169 264.438807 
L 284.320169 264.438807 
L 284.320169 264.438807 
L 284.320169 264.438807 
L 284.320169 264.438807 
L 284.320169 264.438807 
L 284.320169 264.438807 
L 284.320169 264.438807 
L 284.320169 264.438807 
L 284.320169 264.438807 
L 284.320169 264.438807 
L 284.320169 264.438807 
L 284.320169 264.438807 
L 284.320169 264.438807 
L 284.320169 264.438807 
L 284.320169 264.438807 
L 284.320169 264.438807 
L 284.320169 264.438807 
L 284.320169 264.438807 
L 284.320169 264.438807 
L 284.320169 264.438807 
L 284.320169 264.438807 
L 284.320169 264.438807 
L 284.320169 264.438807 
z
" style="fill:#993333;stroke:#000000;stroke-linejoin:miter;"/>
   </g>
   <g id="patch_5">
    <path clip-path="url(#pfaa9bc8c45)" d="M 236.494269 232.160913 
L 235.827693 233.243899 
L 290.136425 266.670787 
L 290.803 265.5878 
L 290.803 265.5878 
L 290.803 265.5878 
L 290.803 265.5878 
L 290.803 265.5878 
L 290.803 265.5878 
L 290.803 265.5878 
L 290.803 265.5878 
L 290.803 265.5878 
L 290.803 265.5878 
L 290.803 265.5878 
L 290.803 265.5878 
L 290.803 265.5878 
L 290.803 265.5878 
L 290.803 265.5878 
L 290.803 265.5878 
L 290.803 265.5878 
L 290.803 265.5878 
L 290.803 265.5878 
L 290.803 265.5878 
L 290.803 265.5878 
L 290.803 265.5878 
L 290.803 265.5878 
L 290.803 265.5878 
L 290.803 265.5878 
L 290.803 265.5878 
L 290.803 265.5878 
L 290.803 265.5878 
L 290.803 265.5878 
L 290.803 265.5878 
L 290.803 265.5878 
L 290.803 265.5878 
L 290.803 265.5878 
L 290.803 265.5878 
L 290.803 265.5878 
L 290.803 265.5878 
L 290.803 265.5878 
L 290.803 265.5878 
L 290.803 265.5878 
L 290.803 265.5878 
L 290.803 265.5878 
L 290.803 265.5878 
L 290.803 265.5878 
L 290.803 265.5878 
L 290.803 265.5878 
L 290.803 265.5878 
L 290.803 265.5878 
L 290.803 265.5878 
L 290.803 265.5878 
z
" style="stroke:#000000;stroke-linejoin:miter;"/>
   </g>
   <g id="text_1">
    <!-- t = 9.8 -->
    <defs>
     <path d="M 18.3125 70.21875 
L 18.3125 54.6875 
L 36.8125 54.6875 
L 36.8125 47.703125 
L 18.3125 47.703125 
L 18.3125 18.015625 
Q 18.3125 11.328125 20.140625 9.421875 
Q 21.96875 7.515625 27.59375 7.515625 
L 36.8125 7.515625 
L 36.8125 0 
L 27.59375 0 
Q 17.1875 0 13.234375 3.875 
Q 9.28125 7.765625 9.28125 18.015625 
L 9.28125 47.703125 
L 2.6875 47.703125 
L 2.6875 54.6875 
L 9.28125 54.6875 
L 9.28125 70.21875 
z
" id="DejaVuSans-116"/>
     <path id="DejaVuSans-32"/>
     <path d="M 10.59375 45.40625 
L 73.1875 45.40625 
L 73.1875 37.203125 
L 10.59375 37.203125 
z
M 10.59375 25.484375 
L 73.1875 25.484375 
L 73.1875 17.1875 
L 10.59375 17.1875 
z
" id="DejaVuSans-61"/>
     <path d="M 10.984375 1.515625 
L 10.984375 10.5 
Q 14.703125 8.734375 18.5 7.8125 
Q 22.3125 6.890625 25.984375 6.890625 
Q 35.75 6.890625 40.890625 13.453125 
Q 46.046875 20.015625 46.78125 33.40625 
Q 43.953125 29.203125 39.59375 26.953125 
Q 35.25 24.703125 29.984375 24.703125 
Q 19.046875 24.703125 12.671875 31.3125 
Q 6.296875 37.9375 6.296875 49.421875 
Q 6.296875 60.640625 12.9375 67.421875 
Q 19.578125 74.21875 30.609375 74.21875 
Q 43.265625 74.21875 49.921875 64.515625 
Q 56.59375 54.828125 56.59375 36.375 
Q 56.59375 19.140625 48.40625 8.859375 
Q 40.234375 -1.421875 26.421875 -1.421875 
Q 22.703125 -1.421875 18.890625 -0.6875 
Q 15.09375 0.046875 10.984375 1.515625 
z
M 30.609375 32.421875 
Q 37.25 32.421875 41.125 36.953125 
Q 45.015625 41.5 45.015625 49.421875 
Q 45.015625 57.28125 41.125 61.84375 
Q 37.25 66.40625 30.609375 66.40625 
Q 23.96875 66.40625 20.09375 61.84375 
Q 16.21875 57.28125 16.21875 49.421875 
Q 16.21875 41.5 20.09375 36.953125 
Q 23.96875 32.421875 30.609375 32.421875 
z
" id="DejaVuSans-57"/>
     <path d="M 10.6875 12.40625 
L 21 12.40625 
L 21 0 
L 10.6875 0 
z
" id="DejaVuSans-46"/>
     <path d="M 31.78125 34.625 
Q 24.75 34.625 20.71875 30.859375 
Q 16.703125 27.09375 16.703125 20.515625 
Q 16.703125 13.921875 20.71875 10.15625 
Q 24.75 6.390625 31.78125 6.390625 
Q 38.8125 6.390625 42.859375 10.171875 
Q 46.921875 13.96875 46.921875 20.515625 
Q 46.921875 27.09375 42.890625 30.859375 
Q 38.875 34.625 31.78125 34.625 
z
M 21.921875 38.8125 
Q 15.578125 40.375 12.03125 44.71875 
Q 8.5 49.078125 8.5 55.328125 
Q 8.5 64.0625 14.71875 69.140625 
Q 20.953125 74.21875 31.78125 74.21875 
Q 42.671875 74.21875 48.875 69.140625 
Q 55.078125 64.0625 55.078125 55.328125 
Q 55.078125 49.078125 51.53125 44.71875 
Q 48 40.375 41.703125 38.8125 
Q 48.828125 37.15625 52.796875 32.3125 
Q 56.78125 27.484375 56.78125 20.515625 
Q 56.78125 9.90625 50.3125 4.234375 
Q 43.84375 -1.421875 31.78125 -1.421875 
Q 19.734375 -1.421875 13.25 4.234375 
Q 6.78125 9.90625 6.78125 20.515625 
Q 6.78125 27.484375 10.78125 32.3125 
Q 14.796875 37.15625 21.921875 38.8125 
z
M 18.3125 54.390625 
Q 18.3125 48.734375 21.84375 45.5625 
Q 25.390625 42.390625 31.78125 42.390625 
Q 38.140625 42.390625 41.71875 45.5625 
Q 45.3125 48.734375 45.3125 54.390625 
Q 45.3125 60.0625 41.71875 63.234375 
Q 38.140625 66.40625 31.78125 66.40625 
Q 25.390625 66.40625 21.84375 63.234375 
Q 18.3125 60.0625 18.3125 54.390625 
z
" id="DejaVuSans-56"/>
    </defs>
    <g transform="translate(215.424375 49.296)scale(0.12 -0.12)">
     <use xlink:href="#DejaVuSans-116"/>
     <use x="39.208984" xlink:href="#DejaVuSans-32"/>
     <use x="70.996094" xlink:href="#DejaVuSans-61"/>
     <use x="154.785156" xlink:href="#DejaVuSans-32"/>
     <use x="186.572266" xlink:href="#DejaVuSans-57"/>
     <use x="250.195312" xlink:href="#DejaVuSans-46"/>
     <use x="281.982422" xlink:href="#DejaVuSans-56"/>
    </g>
   </g>
  </g>
 </g>
 <defs>
  <clipPath id="pfaa9bc8c45">
   <rect height="354.816" width="357.12" x="57.6" y="55.296"/>
  </clipPath>
 </defs>
</svg>
