<?xml version="1.0" encoding="utf-8" standalone="no"?>
<!DOCTYPE svg PUBLIC "-//W3C//DTD SVG 1.1//EN"
  "http://www.w3.org/Graphics/SVG/1.1/DTD/svg11.dtd">
<!-- Created with matplotlib (https://matplotlib.org/) -->
<svg height="460.8pt" version="1.1" viewBox="0 0 460.8 460.8" width="460.8pt" xmlns="http://www.w3.org/2000/svg" xmlns:xlink="http://www.w3.org/1999/xlink">
 <defs>
  <style type="text/css">
*{stroke-linecap:butt;stroke-linejoin:round;}
  </style>
 </defs>
 <g id="figure_1">
  <g id="patch_1">
   <path d="M 0 460.8 
L 460.8 460.8 
L 460.8 0 
L 0 0 
z
" style="fill:#ffffff;"/>
  </g>
  <g id="axes_1">
   <g id="patch_2">
    <path clip-path="url(#pebab202f06)" d="M 114.570668 287.920157 
L 115.969206 289.084159 
L 117.200729 289.624916 
L 118.986853 290.006517 
L 120.340884 289.863454 
L 122.077288 289.369225 
L 123.222314 288.57737 
L 124.483867 287.328315 
L 125.139545 286.081542 
L 125.617374 284.383473 
L 125.623171 282.987034 
L 125.200287 281.255698 
L 124.29947 279.697458 
L 123.346146 278.739165 
L 121.797122 277.77517 
L 120.497487 277.421623 
L 118.679512 277.287893 
L 117.351762 277.625652 
L 115.709939 278.35493 
L 114.679153 279.3013 
L 113.615457 280.715031 
L 113.134008 282.038308 
L 112.90887 283.790364 
L 113.094633 285.166562 
L 113.763174 286.827977 
L 113.763174 286.827977 
L 113.763174 286.827977 
L 113.763174 286.827977 
L 113.763174 286.827977 
L 113.763174 286.827977 
L 113.763174 286.827977 
L 113.763174 286.827977 
L 113.763174 286.827977 
L 113.763174 286.827977 
L 113.763174 286.827977 
L 113.763174 286.827977 
L 113.763174 286.827977 
L 113.763174 286.827977 
L 113.763174 286.827977 
L 113.763174 286.827977 
L 113.763174 286.827977 
L 113.763174 286.827977 
L 113.763174 286.827977 
L 113.763174 286.827977 
L 113.763174 286.827977 
L 113.763174 286.827977 
L 113.763174 286.827977 
L 113.763174 286.827977 
L 113.763174 286.827977 
L 113.763174 286.827977 
L 113.763174 286.827977 
L 113.763174 286.827977 
L 113.763174 286.827977 
L 113.763174 286.827977 
L 113.763174 286.827977 
L 113.763174 286.827977 
L 113.763174 286.827977 
L 113.763174 286.827977 
L 113.763174 286.827977 
L 113.763174 286.827977 
L 113.763174 286.827977 
L 113.763174 286.827977 
L 113.763174 286.827977 
L 113.763174 286.827977 
L 113.763174 286.827977 
L 113.763174 286.827977 
L 113.763174 286.827977 
L 113.763174 286.827977 
L 113.763174 286.827977 
L 113.763174 286.827977 
L 113.763174 286.827977 
L 113.763174 286.827977 
L 113.763174 286.827977 
L 113.763174 286.827977 
L 113.763174 286.827977 
L 113.763174 286.827977 
L 113.763174 286.827977 
L 113.763174 286.827977 
L 113.763174 286.827977 
L 113.763174 286.827977 
L 113.763174 286.827977 
L 113.763174 286.827977 
L 113.763174 286.827977 
L 113.763174 286.827977 
L 113.763174 286.827977 
L 113.763174 286.827977 
L 113.763174 286.827977 
L 113.763174 286.827977 
L 113.763174 286.827977 
L 113.763174 286.827977 
L 113.763174 286.827977 
L 113.763174 286.827977 
L 113.763174 286.827977 
L 113.763174 286.827977 
L 113.763174 286.827977 
L 113.763174 286.827977 
L 113.763174 286.827977 
L 113.763174 286.827977 
L 113.763174 286.827977 
L 113.763174 286.827977 
L 113.763174 286.827977 
L 113.763174 286.827977 
L 113.763174 286.827977 
L 113.763174 286.827977 
L 113.763174 286.827977 
L 113.763174 286.827977 
L 113.763174 286.827977 
L 113.763174 286.827977 
L 113.763174 286.827977 
L 113.763174 286.827977 
L 113.763174 286.827977 
L 113.763174 286.827977 
L 113.763174 286.827977 
L 113.763174 286.827977 
L 113.763174 286.827977 
L 113.763174 286.827977 
L 113.763174 286.827977 
L 113.763174 286.827977 
L 113.763174 286.827977 
L 113.763174 286.827977 
L 113.763174 286.827977 
L 113.763174 286.827977 
L 113.763174 286.827977 
L 113.763174 286.827977 
L 113.763174 286.827977 
L 113.763174 286.827977 
L 113.763174 286.827977 
L 113.763174 286.827977 
L 113.763174 286.827977 
L 113.763174 286.827977 
L 113.763174 286.827977 
L 113.763174 286.827977 
L 113.763174 286.827977 
L 113.763174 286.827977 
L 113.763174 286.827977 
L 113.763174 286.827977 
L 113.763174 286.827977 
L 113.763174 286.827977 
L 113.763174 286.827977 
L 113.763174 286.827977 
L 113.763174 286.827977 
L 113.763174 286.827977 
L 113.763174 286.827977 
L 113.763174 286.827977 
L 113.763174 286.827977 
L 113.763174 286.827977 
L 113.763174 286.827977 
L 113.763174 286.827977 
L 113.763174 286.827977 
L 113.763174 286.827977 
L 113.763174 286.827977 
L 113.763174 286.827977 
L 113.763174 286.827977 
L 113.763174 286.827977 
L 113.763174 286.827977 
L 113.763174 286.827977 
L 113.763174 286.827977 
L 113.763174 286.827977 
L 113.763174 286.827977 
L 113.763174 286.827977 
L 113.763174 286.827977 
L 113.763174 286.827977 
L 113.763174 286.827977 
L 113.763174 286.827977 
L 113.763174 286.827977 
L 113.763174 286.827977 
L 113.763174 286.827977 
L 113.763174 286.827977 
L 113.763174 286.827977 
z
" style="fill:#993333;stroke:#000000;stroke-linejoin:miter;"/>
   </g>
   <g id="patch_3">
    <path clip-path="url(#pebab202f06)" d="M 119.047489 283.048167 
L 119.522213 284.227921 
L 178.683562 260.421832 
L 178.208838 259.242078 
L 178.208838 259.242078 
L 178.208838 259.242078 
L 178.208838 259.242078 
L 178.208838 259.242078 
L 178.208838 259.242078 
L 178.208838 259.242078 
L 178.208838 259.242078 
L 178.208838 259.242078 
L 178.208838 259.242078 
L 178.208838 259.242078 
L 178.208838 259.242078 
L 178.208838 259.242078 
L 178.208838 259.242078 
L 178.208838 259.242078 
L 178.208838 259.242078 
L 178.208838 259.242078 
L 178.208838 259.242078 
L 178.208838 259.242078 
L 178.208838 259.242078 
L 178.208838 259.242078 
L 178.208838 259.242078 
L 178.208838 259.242078 
L 178.208838 259.242078 
L 178.208838 259.242078 
L 178.208838 259.242078 
L 178.208838 259.242078 
L 178.208838 259.242078 
L 178.208838 259.242078 
L 178.208838 259.242078 
L 178.208838 259.242078 
L 178.208838 259.242078 
L 178.208838 259.242078 
L 178.208838 259.242078 
L 178.208838 259.242078 
L 178.208838 259.242078 
L 178.208838 259.242078 
L 178.208838 259.242078 
L 178.208838 259.242078 
L 178.208838 259.242078 
L 178.208838 259.242078 
L 178.208838 259.242078 
L 178.208838 259.242078 
L 178.208838 259.242078 
L 178.208838 259.242078 
L 178.208838 259.242078 
L 178.208838 259.242078 
L 178.208838 259.242078 
L 178.208838 259.242078 
z
" style="stroke:#000000;stroke-linejoin:miter;"/>
   </g>
   <g id="patch_4">
    <path clip-path="url(#pebab202f06)" d="M 173.601835 255.763622 
L 172.620111 257.235459 
L 172.214559 258.583932 
L 172.089246 260.345943 
L 172.352835 261.709377 
L 173.114614 263.330161 
L 173.982808 264.374739 
L 175.445169 265.45747 
L 176.705404 265.927443 
L 178.510311 266.207032 
L 179.854037 265.987334 
L 181.559584 265.395328 
L 182.657811 264.539748 
L 183.846421 263.22109 
L 184.430264 261.939105 
L 184.810925 260.216649 
L 184.737439 258.822134 
L 184.216951 257.117596 
L 183.229127 255.613007 
L 182.22294 254.710379 
L 180.621689 253.835875 
L 179.304079 253.556676 
L 177.481444 253.526367 
L 176.175009 253.938956 
L 174.577234 254.760262 
L 174.577234 254.760262 
L 174.577234 254.760262 
L 174.577234 254.760262 
L 174.577234 254.760262 
L 174.577234 254.760262 
L 174.577234 254.760262 
L 174.577234 254.760262 
L 174.577234 254.760262 
L 174.577234 254.760262 
L 174.577234 254.760262 
L 174.577234 254.760262 
L 174.577234 254.760262 
L 174.577234 254.760262 
L 174.577234 254.760262 
L 174.577234 254.760262 
L 174.577234 254.760262 
L 174.577234 254.760262 
L 174.577234 254.760262 
L 174.577234 254.760262 
L 174.577234 254.760262 
L 174.577234 254.760262 
L 174.577234 254.760262 
L 174.577234 254.760262 
L 174.577234 254.760262 
L 174.577234 254.760262 
L 174.577234 254.760262 
L 174.577234 254.760262 
L 174.577234 254.760262 
L 174.577234 254.760262 
L 174.577234 254.760262 
L 174.577234 254.760262 
L 174.577234 254.760262 
L 174.577234 254.760262 
L 174.577234 254.760262 
L 174.577234 254.760262 
L 174.577234 254.760262 
L 174.577234 254.760262 
L 174.577234 254.760262 
L 174.577234 254.760262 
L 174.577234 254.760262 
L 174.577234 254.760262 
L 174.577234 254.760262 
L 174.577234 254.760262 
L 174.577234 254.760262 
L 174.577234 254.760262 
L 174.577234 254.760262 
L 174.577234 254.760262 
L 174.577234 254.760262 
L 174.577234 254.760262 
L 174.577234 254.760262 
L 174.577234 254.760262 
L 174.577234 254.760262 
L 174.577234 254.760262 
L 174.577234 254.760262 
L 174.577234 254.760262 
L 174.577234 254.760262 
L 174.577234 254.760262 
L 174.577234 254.760262 
L 174.577234 254.760262 
L 174.577234 254.760262 
L 174.577234 254.760262 
L 174.577234 254.760262 
L 174.577234 254.760262 
L 174.577234 254.760262 
L 174.577234 254.760262 
L 174.577234 254.760262 
L 174.577234 254.760262 
L 174.577234 254.760262 
L 174.577234 254.760262 
L 174.577234 254.760262 
L 174.577234 254.760262 
L 174.577234 254.760262 
L 174.577234 254.760262 
L 174.577234 254.760262 
L 174.577234 254.760262 
L 174.577234 254.760262 
L 174.577234 254.760262 
L 174.577234 254.760262 
L 174.577234 254.760262 
L 174.577234 254.760262 
L 174.577234 254.760262 
L 174.577234 254.760262 
L 174.577234 254.760262 
L 174.577234 254.760262 
L 174.577234 254.760262 
L 174.577234 254.760262 
L 174.577234 254.760262 
L 174.577234 254.760262 
L 174.577234 254.760262 
L 174.577234 254.760262 
L 174.577234 254.760262 
L 174.577234 254.760262 
L 174.577234 254.760262 
L 174.577234 254.760262 
L 174.577234 254.760262 
L 174.577234 254.760262 
L 174.577234 254.760262 
L 174.577234 254.760262 
L 174.577234 254.760262 
L 174.577234 254.760262 
L 174.577234 254.760262 
L 174.577234 254.760262 
L 174.577234 254.760262 
L 174.577234 254.760262 
L 174.577234 254.760262 
L 174.577234 254.760262 
L 174.577234 254.760262 
L 174.577234 254.760262 
L 174.577234 254.760262 
L 174.577234 254.760262 
L 174.577234 254.760262 
L 174.577234 254.760262 
L 174.577234 254.760262 
L 174.577234 254.760262 
L 174.577234 254.760262 
L 174.577234 254.760262 
L 174.577234 254.760262 
L 174.577234 254.760262 
L 174.577234 254.760262 
L 174.577234 254.760262 
L 174.577234 254.760262 
L 174.577234 254.760262 
L 174.577234 254.760262 
L 174.577234 254.760262 
L 174.577234 254.760262 
L 174.577234 254.760262 
L 174.577234 254.760262 
L 174.577234 254.760262 
L 174.577234 254.760262 
L 174.577234 254.760262 
L 174.577234 254.760262 
L 174.577234 254.760262 
L 174.577234 254.760262 
L 174.577234 254.760262 
L 174.577234 254.760262 
L 174.577234 254.760262 
L 174.577234 254.760262 
L 174.577234 254.760262 
L 174.577234 254.760262 
L 174.577234 254.760262 
L 174.577234 254.760262 
L 174.577234 254.760262 
L 174.577234 254.760262 
L 174.577234 254.760262 
z
" style="fill:#993333;stroke:#000000;stroke-linejoin:miter;"/>
   </g>
   <g id="patch_5">
    <path clip-path="url(#pebab202f06)" d="M 235.89033 232.130243 
L 178.175831 259.256461 
L 178.716763 260.407363 
L 236.431262 233.281145 
L 236.431262 233.281145 
L 236.431262 233.281145 
L 236.431262 233.281145 
L 236.431262 233.281145 
L 236.431262 233.281145 
L 236.431262 233.281145 
L 236.431262 233.281145 
L 236.431262 233.281145 
L 236.431262 233.281145 
L 236.431262 233.281145 
L 236.431262 233.281145 
L 236.431262 233.281145 
L 236.431262 233.281145 
L 236.431262 233.281145 
L 236.431262 233.281145 
L 236.431262 233.281145 
L 236.431262 233.281145 
L 236.431262 233.281145 
L 236.431262 233.281145 
L 236.431262 233.281145 
L 236.431262 233.281145 
L 236.431262 233.281145 
L 236.431262 233.281145 
L 236.431262 233.281145 
L 236.431262 233.281145 
L 236.431262 233.281145 
L 236.431262 233.281145 
L 236.431262 233.281145 
L 236.431262 233.281145 
L 236.431262 233.281145 
L 236.431262 233.281145 
L 236.431262 233.281145 
L 236.431262 233.281145 
L 236.431262 233.281145 
L 236.431262 233.281145 
L 236.431262 233.281145 
L 236.431262 233.281145 
L 236.431262 233.281145 
L 236.431262 233.281145 
L 236.431262 233.281145 
L 236.431262 233.281145 
L 236.431262 233.281145 
L 236.431262 233.281145 
L 236.431262 233.281145 
L 236.431262 233.281145 
L 236.431262 233.281145 
L 236.431262 233.281145 
L 236.431262 233.281145 
z
" style="stroke:#000000;stroke-linejoin:miter;"/>
   </g>
   <g id="text_1">
    <!-- t = 5.6 -->
    <defs>
     <path d="M 18.3125 70.21875 
L 18.3125 54.6875 
L 36.8125 54.6875 
L 36.8125 47.703125 
L 18.3125 47.703125 
L 18.3125 18.015625 
Q 18.3125 11.328125 20.140625 9.421875 
Q 21.96875 7.515625 27.59375 7.515625 
L 36.8125 7.515625 
L 36.8125 0 
L 27.59375 0 
Q 17.1875 0 13.234375 3.875 
Q 9.28125 7.765625 9.28125 18.015625 
L 9.28125 47.703125 
L 2.6875 47.703125 
L 2.6875 54.6875 
L 9.28125 54.6875 
L 9.28125 70.21875 
z
" id="DejaVuSans-116"/>
     <path id="DejaVuSans-32"/>
     <path d="M 10.59375 45.40625 
L 73.1875 45.40625 
L 73.1875 37.203125 
L 10.59375 37.203125 
z
M 10.59375 25.484375 
L 73.1875 25.484375 
L 73.1875 17.1875 
L 10.59375 17.1875 
z
" id="DejaVuSans-61"/>
     <path d="M 10.796875 72.90625 
L 49.515625 72.90625 
L 49.515625 64.59375 
L 19.828125 64.59375 
L 19.828125 46.734375 
Q 21.96875 47.46875 24.109375 47.828125 
Q 26.265625 48.1875 28.421875 48.1875 
Q 40.625 48.1875 47.75 41.5 
Q 54.890625 34.8125 54.890625 23.390625 
Q 54.890625 11.625 47.5625 5.09375 
Q 40.234375 -1.421875 26.90625 -1.421875 
Q 22.3125 -1.421875 17.546875 -0.640625 
Q 12.796875 0.140625 7.71875 1.703125 
L 7.71875 11.625 
Q 12.109375 9.234375 16.796875 8.0625 
Q 21.484375 6.890625 26.703125 6.890625 
Q 35.15625 6.890625 40.078125 11.328125 
Q 45.015625 15.765625 45.015625 23.390625 
Q 45.015625 31 40.078125 35.4375 
Q 35.15625 39.890625 26.703125 39.890625 
Q 22.75 39.890625 18.8125 39.015625 
Q 14.890625 38.140625 10.796875 36.28125 
z
" id="DejaVuSans-53"/>
     <path d="M 10.6875 12.40625 
L 21 12.40625 
L 21 0 
L 10.6875 0 
z
" id="DejaVuSans-46"/>
     <path d="M 33.015625 40.375 
Q 26.375 40.375 22.484375 35.828125 
Q 18.609375 31.296875 18.609375 23.390625 
Q 18.609375 15.53125 22.484375 10.953125 
Q 26.375 6.390625 33.015625 6.390625 
Q 39.65625 6.390625 43.53125 10.953125 
Q 47.40625 15.53125 47.40625 23.390625 
Q 47.40625 31.296875 43.53125 35.828125 
Q 39.65625 40.375 33.015625 40.375 
z
M 52.59375 71.296875 
L 52.59375 62.3125 
Q 48.875 64.0625 45.09375 64.984375 
Q 41.3125 65.921875 37.59375 65.921875 
Q 27.828125 65.921875 22.671875 59.328125 
Q 17.53125 52.734375 16.796875 39.40625 
Q 19.671875 43.65625 24.015625 45.921875 
Q 28.375 48.1875 33.59375 48.1875 
Q 44.578125 48.1875 50.953125 41.515625 
Q 57.328125 34.859375 57.328125 23.390625 
Q 57.328125 12.15625 50.6875 5.359375 
Q 44.046875 -1.421875 33.015625 -1.421875 
Q 20.359375 -1.421875 13.671875 8.265625 
Q 6.984375 17.96875 6.984375 36.375 
Q 6.984375 53.65625 15.1875 63.9375 
Q 23.390625 74.21875 37.203125 74.21875 
Q 40.921875 74.21875 44.703125 73.484375 
Q 48.484375 72.75 52.59375 71.296875 
z
" id="DejaVuSans-54"/>
    </defs>
    <g transform="translate(215.424375 49.296)scale(0.12 -0.12)">
     <use xlink:href="#DejaVuSans-116"/>
     <use x="39.208984" xlink:href="#DejaVuSans-32"/>
     <use x="70.996094" xlink:href="#DejaVuSans-61"/>
     <use x="154.785156" xlink:href="#DejaVuSans-32"/>
     <use x="186.572266" xlink:href="#DejaVuSans-53"/>
     <use x="250.195312" xlink:href="#DejaVuSans-46"/>
     <use x="281.982422" xlink:href="#DejaVuSans-54"/>
    </g>
   </g>
  </g>
 </g>
 <defs>
  <clipPath id="pebab202f06">
   <rect height="354.816" width="357.12" x="57.6" y="55.296"/>
  </clipPath>
 </defs>
</svg>
