<?xml version="1.0" encoding="utf-8" standalone="no"?>
<!DOCTYPE svg PUBLIC "-//W3C//DTD SVG 1.1//EN"
  "http://www.w3.org/Graphics/SVG/1.1/DTD/svg11.dtd">
<!-- Created with matplotlib (https://matplotlib.org/) -->
<svg height="460.8pt" version="1.1" viewBox="0 0 460.8 460.8" width="460.8pt" xmlns="http://www.w3.org/2000/svg" xmlns:xlink="http://www.w3.org/1999/xlink">
 <defs>
  <style type="text/css">
*{stroke-linecap:butt;stroke-linejoin:round;}
  </style>
 </defs>
 <g id="figure_1">
  <g id="patch_1">
   <path d="M 0 460.8 
L 460.8 460.8 
L 460.8 0 
L 0 0 
z
" style="fill:#ffffff;"/>
  </g>
  <g id="axes_1">
   <g id="patch_2">
    <path clip-path="url(#p41c8b120ab)" d="M 342.386065 290.865066 
L 341.385993 292.340264 
L 340.834938 294.053718 
L 340.763979 295.403576 
L 341.088472 297.198977 
L 341.698293 298.399879 
L 342.818886 299.837651 
L 343.960181 300.595574 
L 345.602515 301.3237 
L 346.995856 301.453079 
L 348.75783 301.293288 
L 350.062077 300.762446 
L 351.512298 299.75386 
L 352.408127 298.692766 
L 353.191531 297.082323 
L 353.459611 295.750769 
L 353.384393 293.932762 
L 352.95909 292.656759 
L 352.043665 291.076298 
L 351.029107 290.168257 
L 349.497604 289.212295 
L 348.142191 288.894535 
L 346.369575 288.797125 
L 345.005158 289.147445 
L 343.425428 289.932436 
L 343.425428 289.932436 
L 343.425428 289.932436 
L 343.425428 289.932436 
L 343.425428 289.932436 
L 343.425428 289.932436 
L 343.425428 289.932436 
L 343.425428 289.932436 
L 343.425428 289.932436 
L 343.425428 289.932436 
L 343.425428 289.932436 
L 343.425428 289.932436 
L 343.425428 289.932436 
L 343.425428 289.932436 
L 343.425428 289.932436 
L 343.425428 289.932436 
L 343.425428 289.932436 
L 343.425428 289.932436 
L 343.425428 289.932436 
L 343.425428 289.932436 
L 343.425428 289.932436 
L 343.425428 289.932436 
L 343.425428 289.932436 
L 343.425428 289.932436 
L 343.425428 289.932436 
L 343.425428 289.932436 
L 343.425428 289.932436 
L 343.425428 289.932436 
L 343.425428 289.932436 
L 343.425428 289.932436 
L 343.425428 289.932436 
L 343.425428 289.932436 
L 343.425428 289.932436 
L 343.425428 289.932436 
L 343.425428 289.932436 
L 343.425428 289.932436 
L 343.425428 289.932436 
L 343.425428 289.932436 
L 343.425428 289.932436 
L 343.425428 289.932436 
L 343.425428 289.932436 
L 343.425428 289.932436 
L 343.425428 289.932436 
L 343.425428 289.932436 
L 343.425428 289.932436 
L 343.425428 289.932436 
L 343.425428 289.932436 
L 343.425428 289.932436 
L 343.425428 289.932436 
L 343.425428 289.932436 
L 343.425428 289.932436 
L 343.425428 289.932436 
L 343.425428 289.932436 
L 343.425428 289.932436 
L 343.425428 289.932436 
L 343.425428 289.932436 
L 343.425428 289.932436 
L 343.425428 289.932436 
L 343.425428 289.932436 
L 343.425428 289.932436 
L 343.425428 289.932436 
L 343.425428 289.932436 
L 343.425428 289.932436 
L 343.425428 289.932436 
L 343.425428 289.932436 
L 343.425428 289.932436 
L 343.425428 289.932436 
L 343.425428 289.932436 
L 343.425428 289.932436 
L 343.425428 289.932436 
L 343.425428 289.932436 
L 343.425428 289.932436 
L 343.425428 289.932436 
L 343.425428 289.932436 
L 343.425428 289.932436 
L 343.425428 289.932436 
L 343.425428 289.932436 
L 343.425428 289.932436 
L 343.425428 289.932436 
L 343.425428 289.932436 
L 343.425428 289.932436 
L 343.425428 289.932436 
L 343.425428 289.932436 
L 343.425428 289.932436 
L 343.425428 289.932436 
L 343.425428 289.932436 
L 343.425428 289.932436 
L 343.425428 289.932436 
L 343.425428 289.932436 
L 343.425428 289.932436 
L 343.425428 289.932436 
L 343.425428 289.932436 
L 343.425428 289.932436 
L 343.425428 289.932436 
L 343.425428 289.932436 
L 343.425428 289.932436 
L 343.425428 289.932436 
L 343.425428 289.932436 
L 343.425428 289.932436 
L 343.425428 289.932436 
L 343.425428 289.932436 
L 343.425428 289.932436 
L 343.425428 289.932436 
L 343.425428 289.932436 
L 343.425428 289.932436 
L 343.425428 289.932436 
L 343.425428 289.932436 
L 343.425428 289.932436 
L 343.425428 289.932436 
L 343.425428 289.932436 
L 343.425428 289.932436 
L 343.425428 289.932436 
L 343.425428 289.932436 
L 343.425428 289.932436 
L 343.425428 289.932436 
L 343.425428 289.932436 
L 343.425428 289.932436 
L 343.425428 289.932436 
L 343.425428 289.932436 
L 343.425428 289.932436 
L 343.425428 289.932436 
L 343.425428 289.932436 
L 343.425428 289.932436 
L 343.425428 289.932436 
L 343.425428 289.932436 
L 343.425428 289.932436 
L 343.425428 289.932436 
L 343.425428 289.932436 
L 343.425428 289.932436 
L 343.425428 289.932436 
L 343.425428 289.932436 
L 343.425428 289.932436 
L 343.425428 289.932436 
L 343.425428 289.932436 
L 343.425428 289.932436 
L 343.425428 289.932436 
L 343.425428 289.932436 
L 343.425428 289.932436 
L 343.425428 289.932436 
L 343.425428 289.932436 
L 343.425428 289.932436 
L 343.425428 289.932436 
L 343.425428 289.932436 
L 343.425428 289.932436 
L 343.425428 289.932436 
z
" style="fill:#993333;stroke:#000000;stroke-linejoin:miter;"/>
   </g>
   <g id="patch_3">
    <path clip-path="url(#p41c8b120ab)" d="M 289.49702 267.803752 
L 346.843296 295.699984 
L 347.399583 294.556425 
L 290.053307 266.660193 
L 290.053307 266.660193 
L 290.053307 266.660193 
L 290.053307 266.660193 
L 290.053307 266.660193 
L 290.053307 266.660193 
L 290.053307 266.660193 
L 290.053307 266.660193 
L 290.053307 266.660193 
L 290.053307 266.660193 
L 290.053307 266.660193 
L 290.053307 266.660193 
L 290.053307 266.660193 
L 290.053307 266.660193 
L 290.053307 266.660193 
L 290.053307 266.660193 
L 290.053307 266.660193 
L 290.053307 266.660193 
L 290.053307 266.660193 
L 290.053307 266.660193 
L 290.053307 266.660193 
L 290.053307 266.660193 
L 290.053307 266.660193 
L 290.053307 266.660193 
L 290.053307 266.660193 
L 290.053307 266.660193 
L 290.053307 266.660193 
L 290.053307 266.660193 
L 290.053307 266.660193 
L 290.053307 266.660193 
L 290.053307 266.660193 
L 290.053307 266.660193 
L 290.053307 266.660193 
L 290.053307 266.660193 
L 290.053307 266.660193 
L 290.053307 266.660193 
L 290.053307 266.660193 
L 290.053307 266.660193 
L 290.053307 266.660193 
L 290.053307 266.660193 
L 290.053307 266.660193 
L 290.053307 266.660193 
L 290.053307 266.660193 
L 290.053307 266.660193 
L 290.053307 266.660193 
L 290.053307 266.660193 
L 290.053307 266.660193 
L 290.053307 266.660193 
L 290.053307 266.660193 
z
" style="stroke:#000000;stroke-linejoin:miter;"/>
   </g>
   <g id="patch_4">
    <path clip-path="url(#p41c8b120ab)" d="M 283.430371 266.748078 
L 283.538652 268.569351 
L 284.001057 269.834353 
L 284.942376 271.395389 
L 285.985245 272.283886 
L 287.529135 273.20249 
L 288.897138 273.496947 
L 290.6656 273.548211 
L 292.023801 273.176535 
L 293.583854 272.347909 
L 294.599719 271.401099 
L 295.569408 269.89546 
L 295.994217 268.605328 
L 296.136128 266.791308 
L 295.865874 265.473723 
L 295.145262 263.795457 
L 294.246112 262.773011 
L 292.839408 261.641398 
L 291.531505 261.164421 
L 289.78312 260.856519 
L 288.386685 261.04179 
L 286.724683 261.632984 
L 285.581612 262.435144 
L 284.41291 263.78069 
L 283.661643 265.416288 
L 283.661643 265.416288 
L 283.661643 265.416288 
L 283.661643 265.416288 
L 283.661643 265.416288 
L 283.661643 265.416288 
L 283.661643 265.416288 
L 283.661643 265.416288 
L 283.661643 265.416288 
L 283.661643 265.416288 
L 283.661643 265.416288 
L 283.661643 265.416288 
L 283.661643 265.416288 
L 283.661643 265.416288 
L 283.661643 265.416288 
L 283.661643 265.416288 
L 283.661643 265.416288 
L 283.661643 265.416288 
L 283.661643 265.416288 
L 283.661643 265.416288 
L 283.661643 265.416288 
L 283.661643 265.416288 
L 283.661643 265.416288 
L 283.661643 265.416288 
L 283.661643 265.416288 
L 283.661643 265.416288 
L 283.661643 265.416288 
L 283.661643 265.416288 
L 283.661643 265.416288 
L 283.661643 265.416288 
L 283.661643 265.416288 
L 283.661643 265.416288 
L 283.661643 265.416288 
L 283.661643 265.416288 
L 283.661643 265.416288 
L 283.661643 265.416288 
L 283.661643 265.416288 
L 283.661643 265.416288 
L 283.661643 265.416288 
L 283.661643 265.416288 
L 283.661643 265.416288 
L 283.661643 265.416288 
L 283.661643 265.416288 
L 283.661643 265.416288 
L 283.661643 265.416288 
L 283.661643 265.416288 
L 283.661643 265.416288 
L 283.661643 265.416288 
L 283.661643 265.416288 
L 283.661643 265.416288 
L 283.661643 265.416288 
L 283.661643 265.416288 
L 283.661643 265.416288 
L 283.661643 265.416288 
L 283.661643 265.416288 
L 283.661643 265.416288 
L 283.661643 265.416288 
L 283.661643 265.416288 
L 283.661643 265.416288 
L 283.661643 265.416288 
L 283.661643 265.416288 
L 283.661643 265.416288 
L 283.661643 265.416288 
L 283.661643 265.416288 
L 283.661643 265.416288 
L 283.661643 265.416288 
L 283.661643 265.416288 
L 283.661643 265.416288 
L 283.661643 265.416288 
L 283.661643 265.416288 
L 283.661643 265.416288 
L 283.661643 265.416288 
L 283.661643 265.416288 
L 283.661643 265.416288 
L 283.661643 265.416288 
L 283.661643 265.416288 
L 283.661643 265.416288 
L 283.661643 265.416288 
L 283.661643 265.416288 
L 283.661643 265.416288 
L 283.661643 265.416288 
L 283.661643 265.416288 
L 283.661643 265.416288 
L 283.661643 265.416288 
L 283.661643 265.416288 
L 283.661643 265.416288 
L 283.661643 265.416288 
L 283.661643 265.416288 
L 283.661643 265.416288 
L 283.661643 265.416288 
L 283.661643 265.416288 
L 283.661643 265.416288 
L 283.661643 265.416288 
L 283.661643 265.416288 
L 283.661643 265.416288 
L 283.661643 265.416288 
L 283.661643 265.416288 
L 283.661643 265.416288 
L 283.661643 265.416288 
L 283.661643 265.416288 
L 283.661643 265.416288 
L 283.661643 265.416288 
L 283.661643 265.416288 
L 283.661643 265.416288 
L 283.661643 265.416288 
L 283.661643 265.416288 
L 283.661643 265.416288 
L 283.661643 265.416288 
L 283.661643 265.416288 
L 283.661643 265.416288 
L 283.661643 265.416288 
L 283.661643 265.416288 
L 283.661643 265.416288 
L 283.661643 265.416288 
L 283.661643 265.416288 
L 283.661643 265.416288 
L 283.661643 265.416288 
L 283.661643 265.416288 
L 283.661643 265.416288 
L 283.661643 265.416288 
L 283.661643 265.416288 
L 283.661643 265.416288 
L 283.661643 265.416288 
L 283.661643 265.416288 
L 283.661643 265.416288 
L 283.661643 265.416288 
L 283.661643 265.416288 
L 283.661643 265.416288 
L 283.661643 265.416288 
L 283.661643 265.416288 
L 283.661643 265.416288 
L 283.661643 265.416288 
L 283.661643 265.416288 
L 283.661643 265.416288 
L 283.661643 265.416288 
L 283.661643 265.416288 
L 283.661643 265.416288 
L 283.661643 265.416288 
L 283.661643 265.416288 
L 283.661643 265.416288 
L 283.661643 265.416288 
L 283.661643 265.416288 
L 283.661643 265.416288 
L 283.661643 265.416288 
L 283.661643 265.416288 
z
" style="fill:#993333;stroke:#000000;stroke-linejoin:miter;"/>
   </g>
   <g id="patch_5">
    <path clip-path="url(#p41c8b120ab)" d="M 235.81673 233.236996 
L 289.431076 267.766652 
L 290.119642 266.697512 
L 236.505297 232.167857 
L 236.505297 232.167857 
L 236.505297 232.167857 
L 236.505297 232.167857 
L 236.505297 232.167857 
L 236.505297 232.167857 
L 236.505297 232.167857 
L 236.505297 232.167857 
L 236.505297 232.167857 
L 236.505297 232.167857 
L 236.505297 232.167857 
L 236.505297 232.167857 
L 236.505297 232.167857 
L 236.505297 232.167857 
L 236.505297 232.167857 
L 236.505297 232.167857 
L 236.505297 232.167857 
L 236.505297 232.167857 
L 236.505297 232.167857 
L 236.505297 232.167857 
L 236.505297 232.167857 
L 236.505297 232.167857 
L 236.505297 232.167857 
L 236.505297 232.167857 
L 236.505297 232.167857 
L 236.505297 232.167857 
L 236.505297 232.167857 
L 236.505297 232.167857 
L 236.505297 232.167857 
L 236.505297 232.167857 
L 236.505297 232.167857 
L 236.505297 232.167857 
L 236.505297 232.167857 
L 236.505297 232.167857 
L 236.505297 232.167857 
L 236.505297 232.167857 
L 236.505297 232.167857 
L 236.505297 232.167857 
L 236.505297 232.167857 
L 236.505297 232.167857 
L 236.505297 232.167857 
L 236.505297 232.167857 
L 236.505297 232.167857 
L 236.505297 232.167857 
L 236.505297 232.167857 
L 236.505297 232.167857 
L 236.505297 232.167857 
L 236.505297 232.167857 
L 236.505297 232.167857 
z
" style="stroke:#000000;stroke-linejoin:miter;"/>
   </g>
   <g id="text_1">
    <!-- t = 9.8 -->
    <defs>
     <path d="M 18.3125 70.21875 
L 18.3125 54.6875 
L 36.8125 54.6875 
L 36.8125 47.703125 
L 18.3125 47.703125 
L 18.3125 18.015625 
Q 18.3125 11.328125 20.140625 9.421875 
Q 21.96875 7.515625 27.59375 7.515625 
L 36.8125 7.515625 
L 36.8125 0 
L 27.59375 0 
Q 17.1875 0 13.234375 3.875 
Q 9.28125 7.765625 9.28125 18.015625 
L 9.28125 47.703125 
L 2.6875 47.703125 
L 2.6875 54.6875 
L 9.28125 54.6875 
L 9.28125 70.21875 
z
" id="DejaVuSans-116"/>
     <path id="DejaVuSans-32"/>
     <path d="M 10.59375 45.40625 
L 73.1875 45.40625 
L 73.1875 37.203125 
L 10.59375 37.203125 
z
M 10.59375 25.484375 
L 73.1875 25.484375 
L 73.1875 17.1875 
L 10.59375 17.1875 
z
" id="DejaVuSans-61"/>
     <path d="M 10.984375 1.515625 
L 10.984375 10.5 
Q 14.703125 8.734375 18.5 7.8125 
Q 22.3125 6.890625 25.984375 6.890625 
Q 35.75 6.890625 40.890625 13.453125 
Q 46.046875 20.015625 46.78125 33.40625 
Q 43.953125 29.203125 39.59375 26.953125 
Q 35.25 24.703125 29.984375 24.703125 
Q 19.046875 24.703125 12.671875 31.3125 
Q 6.296875 37.9375 6.296875 49.421875 
Q 6.296875 60.640625 12.9375 67.421875 
Q 19.578125 74.21875 30.609375 74.21875 
Q 43.265625 74.21875 49.921875 64.515625 
Q 56.59375 54.828125 56.59375 36.375 
Q 56.59375 19.140625 48.40625 8.859375 
Q 40.234375 -1.421875 26.421875 -1.421875 
Q 22.703125 -1.421875 18.890625 -0.6875 
Q 15.09375 0.046875 10.984375 1.515625 
z
M 30.609375 32.421875 
Q 37.25 32.421875 41.125 36.953125 
Q 45.015625 41.5 45.015625 49.421875 
Q 45.015625 57.28125 41.125 61.84375 
Q 37.25 66.40625 30.609375 66.40625 
Q 23.96875 66.40625 20.09375 61.84375 
Q 16.21875 57.28125 16.21875 49.421875 
Q 16.21875 41.5 20.09375 36.953125 
Q 23.96875 32.421875 30.609375 32.421875 
z
" id="DejaVuSans-57"/>
     <path d="M 10.6875 12.40625 
L 21 12.40625 
L 21 0 
L 10.6875 0 
z
" id="DejaVuSans-46"/>
     <path d="M 31.78125 34.625 
Q 24.75 34.625 20.71875 30.859375 
Q 16.703125 27.09375 16.703125 20.515625 
Q 16.703125 13.921875 20.71875 10.15625 
Q 24.75 6.390625 31.78125 6.390625 
Q 38.8125 6.390625 42.859375 10.171875 
Q 46.921875 13.96875 46.921875 20.515625 
Q 46.921875 27.09375 42.890625 30.859375 
Q 38.875 34.625 31.78125 34.625 
z
M 21.921875 38.8125 
Q 15.578125 40.375 12.03125 44.71875 
Q 8.5 49.078125 8.5 55.328125 
Q 8.5 64.0625 14.71875 69.140625 
Q 20.953125 74.21875 31.78125 74.21875 
Q 42.671875 74.21875 48.875 69.140625 
Q 55.078125 64.0625 55.078125 55.328125 
Q 55.078125 49.078125 51.53125 44.71875 
Q 48 40.375 41.703125 38.8125 
Q 48.828125 37.15625 52.796875 32.3125 
Q 56.78125 27.484375 56.78125 20.515625 
Q 56.78125 9.90625 50.3125 4.234375 
Q 43.84375 -1.421875 31.78125 -1.421875 
Q 19.734375 -1.421875 13.25 4.234375 
Q 6.78125 9.90625 6.78125 20.515625 
Q 6.78125 27.484375 10.78125 32.3125 
Q 14.796875 37.15625 21.921875 38.8125 
z
M 18.3125 54.390625 
Q 18.3125 48.734375 21.84375 45.5625 
Q 25.390625 42.390625 31.78125 42.390625 
Q 38.140625 42.390625 41.71875 45.5625 
Q 45.3125 48.734375 45.3125 54.390625 
Q 45.3125 60.0625 41.71875 63.234375 
Q 38.140625 66.40625 31.78125 66.40625 
Q 25.390625 66.40625 21.84375 63.234375 
Q 18.3125 60.0625 18.3125 54.390625 
z
" id="DejaVuSans-56"/>
    </defs>
    <g transform="translate(215.424375 49.296)scale(0.12 -0.12)">
     <use xlink:href="#DejaVuSans-116"/>
     <use x="39.208984" xlink:href="#DejaVuSans-32"/>
     <use x="70.996094" xlink:href="#DejaVuSans-61"/>
     <use x="154.785156" xlink:href="#DejaVuSans-32"/>
     <use x="186.572266" xlink:href="#DejaVuSans-57"/>
     <use x="250.195312" xlink:href="#DejaVuSans-46"/>
     <use x="281.982422" xlink:href="#DejaVuSans-56"/>
    </g>
   </g>
  </g>
 </g>
 <defs>
  <clipPath id="p41c8b120ab">
   <rect height="354.816" width="357.12" x="57.6" y="55.296"/>
  </clipPath>
 </defs>
</svg>
