<?xml version="1.0" encoding="utf-8" standalone="no"?>
<!DOCTYPE svg PUBLIC "-//W3C//DTD SVG 1.1//EN"
  "http://www.w3.org/Graphics/SVG/1.1/DTD/svg11.dtd">
<!-- Created with matplotlib (https://matplotlib.org/) -->
<svg height="460.8pt" version="1.1" viewBox="0 0 460.8 460.8" width="460.8pt" xmlns="http://www.w3.org/2000/svg" xmlns:xlink="http://www.w3.org/1999/xlink">
 <defs>
  <style type="text/css">
*{stroke-linecap:butt;stroke-linejoin:round;}
  </style>
 </defs>
 <g id="figure_1">
  <g id="patch_1">
   <path d="M 0 460.8 
L 460.8 460.8 
L 460.8 0 
L 0 0 
z
" style="fill:#ffffff;"/>
  </g>
  <g id="axes_1">
   <g id="patch_2">
    <path clip-path="url(#p492cbb8dc9)" d="M 324.562181 299.915522 
L 324.43027 301.710567 
L 324.679292 303.039152 
L 325.417593 304.707586 
L 326.293147 305.731037 
L 327.720899 306.86437 
L 329.008618 307.332111 
L 330.776257 307.652863 
L 332.160863 307.450373 
L 333.835609 306.880013 
L 334.978102 306.056871 
L 336.14992 304.735043 
L 336.770577 303.492781 
L 337.152565 301.743114 
L 337.099428 300.385882 
L 336.598061 298.636756 
L 335.884141 297.496851 
L 334.622172 296.176514 
L 333.422259 295.533025 
L 331.708662 294.96474 
L 330.316539 294.975216 
L 328.570862 295.298119 
L 327.327367 295.959994 
L 325.977013 297.095029 
L 325.186599 298.246253 
L 325.186599 298.246253 
L 325.186599 298.246253 
L 325.186599 298.246253 
L 325.186599 298.246253 
L 325.186599 298.246253 
L 325.186599 298.246253 
L 325.186599 298.246253 
L 325.186599 298.246253 
L 325.186599 298.246253 
L 325.186599 298.246253 
L 325.186599 298.246253 
L 325.186599 298.246253 
L 325.186599 298.246253 
L 325.186599 298.246253 
L 325.186599 298.246253 
L 325.186599 298.246253 
L 325.186599 298.246253 
L 325.186599 298.246253 
L 325.186599 298.246253 
L 325.186599 298.246253 
L 325.186599 298.246253 
L 325.186599 298.246253 
L 325.186599 298.246253 
L 325.186599 298.246253 
L 325.186599 298.246253 
L 325.186599 298.246253 
L 325.186599 298.246253 
L 325.186599 298.246253 
L 325.186599 298.246253 
L 325.186599 298.246253 
L 325.186599 298.246253 
L 325.186599 298.246253 
L 325.186599 298.246253 
L 325.186599 298.246253 
L 325.186599 298.246253 
L 325.186599 298.246253 
L 325.186599 298.246253 
L 325.186599 298.246253 
L 325.186599 298.246253 
L 325.186599 298.246253 
L 325.186599 298.246253 
L 325.186599 298.246253 
L 325.186599 298.246253 
L 325.186599 298.246253 
L 325.186599 298.246253 
L 325.186599 298.246253 
L 325.186599 298.246253 
L 325.186599 298.246253 
L 325.186599 298.246253 
L 325.186599 298.246253 
L 325.186599 298.246253 
L 325.186599 298.246253 
L 325.186599 298.246253 
L 325.186599 298.246253 
L 325.186599 298.246253 
L 325.186599 298.246253 
L 325.186599 298.246253 
L 325.186599 298.246253 
L 325.186599 298.246253 
L 325.186599 298.246253 
L 325.186599 298.246253 
L 325.186599 298.246253 
L 325.186599 298.246253 
L 325.186599 298.246253 
L 325.186599 298.246253 
L 325.186599 298.246253 
L 325.186599 298.246253 
L 325.186599 298.246253 
L 325.186599 298.246253 
L 325.186599 298.246253 
L 325.186599 298.246253 
L 325.186599 298.246253 
L 325.186599 298.246253 
L 325.186599 298.246253 
L 325.186599 298.246253 
L 325.186599 298.246253 
L 325.186599 298.246253 
L 325.186599 298.246253 
L 325.186599 298.246253 
L 325.186599 298.246253 
L 325.186599 298.246253 
L 325.186599 298.246253 
L 325.186599 298.246253 
L 325.186599 298.246253 
L 325.186599 298.246253 
L 325.186599 298.246253 
L 325.186599 298.246253 
L 325.186599 298.246253 
L 325.186599 298.246253 
L 325.186599 298.246253 
L 325.186599 298.246253 
L 325.186599 298.246253 
L 325.186599 298.246253 
L 325.186599 298.246253 
L 325.186599 298.246253 
L 325.186599 298.246253 
L 325.186599 298.246253 
L 325.186599 298.246253 
L 325.186599 298.246253 
L 325.186599 298.246253 
L 325.186599 298.246253 
L 325.186599 298.246253 
L 325.186599 298.246253 
L 325.186599 298.246253 
L 325.186599 298.246253 
L 325.186599 298.246253 
L 325.186599 298.246253 
L 325.186599 298.246253 
L 325.186599 298.246253 
L 325.186599 298.246253 
L 325.186599 298.246253 
L 325.186599 298.246253 
L 325.186599 298.246253 
L 325.186599 298.246253 
L 325.186599 298.246253 
L 325.186599 298.246253 
L 325.186599 298.246253 
L 325.186599 298.246253 
L 325.186599 298.246253 
L 325.186599 298.246253 
L 325.186599 298.246253 
L 325.186599 298.246253 
L 325.186599 298.246253 
L 325.186599 298.246253 
L 325.186599 298.246253 
L 325.186599 298.246253 
L 325.186599 298.246253 
L 325.186599 298.246253 
L 325.186599 298.246253 
L 325.186599 298.246253 
L 325.186599 298.246253 
L 325.186599 298.246253 
L 325.186599 298.246253 
L 325.186599 298.246253 
L 325.186599 298.246253 
L 325.186599 298.246253 
L 325.186599 298.246253 
L 325.186599 298.246253 
L 325.186599 298.246253 
L 325.186599 298.246253 
L 325.186599 298.246253 
L 325.186599 298.246253 
L 325.186599 298.246253 
L 325.186599 298.246253 
z
" style="fill:#993333;stroke:#000000;stroke-linejoin:miter;"/>
   </g>
   <g id="patch_3">
    <path clip-path="url(#p492cbb8dc9)" d="M 268.624696 287.050516 
L 268.35345 288.292936 
L 330.657348 301.895122 
L 330.928593 300.652702 
L 330.928593 300.652702 
L 330.928593 300.652702 
L 330.928593 300.652702 
L 330.928593 300.652702 
L 330.928593 300.652702 
L 330.928593 300.652702 
L 330.928593 300.652702 
L 330.928593 300.652702 
L 330.928593 300.652702 
L 330.928593 300.652702 
L 330.928593 300.652702 
L 330.928593 300.652702 
L 330.928593 300.652702 
L 330.928593 300.652702 
L 330.928593 300.652702 
L 330.928593 300.652702 
L 330.928593 300.652702 
L 330.928593 300.652702 
L 330.928593 300.652702 
L 330.928593 300.652702 
L 330.928593 300.652702 
L 330.928593 300.652702 
L 330.928593 300.652702 
L 330.928593 300.652702 
L 330.928593 300.652702 
L 330.928593 300.652702 
L 330.928593 300.652702 
L 330.928593 300.652702 
L 330.928593 300.652702 
L 330.928593 300.652702 
L 330.928593 300.652702 
L 330.928593 300.652702 
L 330.928593 300.652702 
L 330.928593 300.652702 
L 330.928593 300.652702 
L 330.928593 300.652702 
L 330.928593 300.652702 
L 330.928593 300.652702 
L 330.928593 300.652702 
L 330.928593 300.652702 
L 330.928593 300.652702 
L 330.928593 300.652702 
L 330.928593 300.652702 
L 330.928593 300.652702 
L 330.928593 300.652702 
L 330.928593 300.652702 
L 330.928593 300.652702 
L 330.928593 300.652702 
z
" style="stroke:#000000;stroke-linejoin:miter;"/>
   </g>
   <g id="patch_4">
    <path clip-path="url(#p492cbb8dc9)" d="M 262.162709 287.396677 
L 262.300467 289.214351 
L 262.831677 290.477213 
L 263.796709 291.992515 
L 264.885675 292.871315 
L 266.441707 293.713247 
L 267.821813 293.992824 
L 269.587874 293.955251 
L 270.921221 293.567156 
L 272.464919 292.659277 
L 273.425057 291.698529 
L 274.36844 290.142625 
L 274.720294 288.844447 
L 274.832389 287.021457 
L 274.489814 285.703691 
L 273.743175 284.059946 
L 272.790045 283.045225 
L 271.367477 281.983173 
L 270.03715 281.519936 
L 268.286947 281.299603 
L 266.905134 281.501268 
L 265.255806 282.176599 
L 263.848636 283.298855 
L 263.042558 284.383931 
L 262.319315 286.058947 
L 262.319315 286.058947 
L 262.319315 286.058947 
L 262.319315 286.058947 
L 262.319315 286.058947 
L 262.319315 286.058947 
L 262.319315 286.058947 
L 262.319315 286.058947 
L 262.319315 286.058947 
L 262.319315 286.058947 
L 262.319315 286.058947 
L 262.319315 286.058947 
L 262.319315 286.058947 
L 262.319315 286.058947 
L 262.319315 286.058947 
L 262.319315 286.058947 
L 262.319315 286.058947 
L 262.319315 286.058947 
L 262.319315 286.058947 
L 262.319315 286.058947 
L 262.319315 286.058947 
L 262.319315 286.058947 
L 262.319315 286.058947 
L 262.319315 286.058947 
L 262.319315 286.058947 
L 262.319315 286.058947 
L 262.319315 286.058947 
L 262.319315 286.058947 
L 262.319315 286.058947 
L 262.319315 286.058947 
L 262.319315 286.058947 
L 262.319315 286.058947 
L 262.319315 286.058947 
L 262.319315 286.058947 
L 262.319315 286.058947 
L 262.319315 286.058947 
L 262.319315 286.058947 
L 262.319315 286.058947 
L 262.319315 286.058947 
L 262.319315 286.058947 
L 262.319315 286.058947 
L 262.319315 286.058947 
L 262.319315 286.058947 
L 262.319315 286.058947 
L 262.319315 286.058947 
L 262.319315 286.058947 
L 262.319315 286.058947 
L 262.319315 286.058947 
L 262.319315 286.058947 
L 262.319315 286.058947 
L 262.319315 286.058947 
L 262.319315 286.058947 
L 262.319315 286.058947 
L 262.319315 286.058947 
L 262.319315 286.058947 
L 262.319315 286.058947 
L 262.319315 286.058947 
L 262.319315 286.058947 
L 262.319315 286.058947 
L 262.319315 286.058947 
L 262.319315 286.058947 
L 262.319315 286.058947 
L 262.319315 286.058947 
L 262.319315 286.058947 
L 262.319315 286.058947 
L 262.319315 286.058947 
L 262.319315 286.058947 
L 262.319315 286.058947 
L 262.319315 286.058947 
L 262.319315 286.058947 
L 262.319315 286.058947 
L 262.319315 286.058947 
L 262.319315 286.058947 
L 262.319315 286.058947 
L 262.319315 286.058947 
L 262.319315 286.058947 
L 262.319315 286.058947 
L 262.319315 286.058947 
L 262.319315 286.058947 
L 262.319315 286.058947 
L 262.319315 286.058947 
L 262.319315 286.058947 
L 262.319315 286.058947 
L 262.319315 286.058947 
L 262.319315 286.058947 
L 262.319315 286.058947 
L 262.319315 286.058947 
L 262.319315 286.058947 
L 262.319315 286.058947 
L 262.319315 286.058947 
L 262.319315 286.058947 
L 262.319315 286.058947 
L 262.319315 286.058947 
L 262.319315 286.058947 
L 262.319315 286.058947 
L 262.319315 286.058947 
L 262.319315 286.058947 
L 262.319315 286.058947 
L 262.319315 286.058947 
L 262.319315 286.058947 
L 262.319315 286.058947 
L 262.319315 286.058947 
L 262.319315 286.058947 
L 262.319315 286.058947 
L 262.319315 286.058947 
L 262.319315 286.058947 
L 262.319315 286.058947 
L 262.319315 286.058947 
L 262.319315 286.058947 
L 262.319315 286.058947 
L 262.319315 286.058947 
L 262.319315 286.058947 
L 262.319315 286.058947 
L 262.319315 286.058947 
L 262.319315 286.058947 
L 262.319315 286.058947 
L 262.319315 286.058947 
L 262.319315 286.058947 
L 262.319315 286.058947 
L 262.319315 286.058947 
L 262.319315 286.058947 
L 262.319315 286.058947 
L 262.319315 286.058947 
L 262.319315 286.058947 
L 262.319315 286.058947 
L 262.319315 286.058947 
L 262.319315 286.058947 
L 262.319315 286.058947 
L 262.319315 286.058947 
L 262.319315 286.058947 
L 262.319315 286.058947 
L 262.319315 286.058947 
L 262.319315 286.058947 
L 262.319315 286.058947 
L 262.319315 286.058947 
L 262.319315 286.058947 
L 262.319315 286.058947 
L 262.319315 286.058947 
L 262.319315 286.058947 
L 262.319315 286.058947 
L 262.319315 286.058947 
L 262.319315 286.058947 
L 262.319315 286.058947 
L 262.319315 286.058947 
L 262.319315 286.058947 
z
" style="fill:#993333;stroke:#000000;stroke-linejoin:miter;"/>
   </g>
   <g id="patch_5">
    <path clip-path="url(#p492cbb8dc9)" d="M 236.709696 232.380713 
L 235.613531 233.025389 
L 267.942205 287.994944 
L 269.038369 287.350268 
L 269.038369 287.350268 
L 269.038369 287.350268 
L 269.038369 287.350268 
L 269.038369 287.350268 
L 269.038369 287.350268 
L 269.038369 287.350268 
L 269.038369 287.350268 
L 269.038369 287.350268 
L 269.038369 287.350268 
L 269.038369 287.350268 
L 269.038369 287.350268 
L 269.038369 287.350268 
L 269.038369 287.350268 
L 269.038369 287.350268 
L 269.038369 287.350268 
L 269.038369 287.350268 
L 269.038369 287.350268 
L 269.038369 287.350268 
L 269.038369 287.350268 
L 269.038369 287.350268 
L 269.038369 287.350268 
L 269.038369 287.350268 
L 269.038369 287.350268 
L 269.038369 287.350268 
L 269.038369 287.350268 
L 269.038369 287.350268 
L 269.038369 287.350268 
L 269.038369 287.350268 
L 269.038369 287.350268 
L 269.038369 287.350268 
L 269.038369 287.350268 
L 269.038369 287.350268 
L 269.038369 287.350268 
L 269.038369 287.350268 
L 269.038369 287.350268 
L 269.038369 287.350268 
L 269.038369 287.350268 
L 269.038369 287.350268 
L 269.038369 287.350268 
L 269.038369 287.350268 
L 269.038369 287.350268 
L 269.038369 287.350268 
L 269.038369 287.350268 
L 269.038369 287.350268 
L 269.038369 287.350268 
L 269.038369 287.350268 
L 269.038369 287.350268 
L 269.038369 287.350268 
z
" style="stroke:#000000;stroke-linejoin:miter;"/>
   </g>
   <g id="text_1">
    <!-- t = 1.8 -->
    <defs>
     <path d="M 18.3125 70.21875 
L 18.3125 54.6875 
L 36.8125 54.6875 
L 36.8125 47.703125 
L 18.3125 47.703125 
L 18.3125 18.015625 
Q 18.3125 11.328125 20.140625 9.421875 
Q 21.96875 7.515625 27.59375 7.515625 
L 36.8125 7.515625 
L 36.8125 0 
L 27.59375 0 
Q 17.1875 0 13.234375 3.875 
Q 9.28125 7.765625 9.28125 18.015625 
L 9.28125 47.703125 
L 2.6875 47.703125 
L 2.6875 54.6875 
L 9.28125 54.6875 
L 9.28125 70.21875 
z
" id="DejaVuSans-116"/>
     <path id="DejaVuSans-32"/>
     <path d="M 10.59375 45.40625 
L 73.1875 45.40625 
L 73.1875 37.203125 
L 10.59375 37.203125 
z
M 10.59375 25.484375 
L 73.1875 25.484375 
L 73.1875 17.1875 
L 10.59375 17.1875 
z
" id="DejaVuSans-61"/>
     <path d="M 12.40625 8.296875 
L 28.515625 8.296875 
L 28.515625 63.921875 
L 10.984375 60.40625 
L 10.984375 69.390625 
L 28.421875 72.90625 
L 38.28125 72.90625 
L 38.28125 8.296875 
L 54.390625 8.296875 
L 54.390625 0 
L 12.40625 0 
z
" id="DejaVuSans-49"/>
     <path d="M 10.6875 12.40625 
L 21 12.40625 
L 21 0 
L 10.6875 0 
z
" id="DejaVuSans-46"/>
     <path d="M 31.78125 34.625 
Q 24.75 34.625 20.71875 30.859375 
Q 16.703125 27.09375 16.703125 20.515625 
Q 16.703125 13.921875 20.71875 10.15625 
Q 24.75 6.390625 31.78125 6.390625 
Q 38.8125 6.390625 42.859375 10.171875 
Q 46.921875 13.96875 46.921875 20.515625 
Q 46.921875 27.09375 42.890625 30.859375 
Q 38.875 34.625 31.78125 34.625 
z
M 21.921875 38.8125 
Q 15.578125 40.375 12.03125 44.71875 
Q 8.5 49.078125 8.5 55.328125 
Q 8.5 64.0625 14.71875 69.140625 
Q 20.953125 74.21875 31.78125 74.21875 
Q 42.671875 74.21875 48.875 69.140625 
Q 55.078125 64.0625 55.078125 55.328125 
Q 55.078125 49.078125 51.53125 44.71875 
Q 48 40.375 41.703125 38.8125 
Q 48.828125 37.15625 52.796875 32.3125 
Q 56.78125 27.484375 56.78125 20.515625 
Q 56.78125 9.90625 50.3125 4.234375 
Q 43.84375 -1.421875 31.78125 -1.421875 
Q 19.734375 -1.421875 13.25 4.234375 
Q 6.78125 9.90625 6.78125 20.515625 
Q 6.78125 27.484375 10.78125 32.3125 
Q 14.796875 37.15625 21.921875 38.8125 
z
M 18.3125 54.390625 
Q 18.3125 48.734375 21.84375 45.5625 
Q 25.390625 42.390625 31.78125 42.390625 
Q 38.140625 42.390625 41.71875 45.5625 
Q 45.3125 48.734375 45.3125 54.390625 
Q 45.3125 60.0625 41.71875 63.234375 
Q 38.140625 66.40625 31.78125 66.40625 
Q 25.390625 66.40625 21.84375 63.234375 
Q 18.3125 60.0625 18.3125 54.390625 
z
" id="DejaVuSans-56"/>
    </defs>
    <g transform="translate(215.424375 49.296)scale(0.12 -0.12)">
     <use xlink:href="#DejaVuSans-116"/>
     <use x="39.208984" xlink:href="#DejaVuSans-32"/>
     <use x="70.996094" xlink:href="#DejaVuSans-61"/>
     <use x="154.785156" xlink:href="#DejaVuSans-32"/>
     <use x="186.572266" xlink:href="#DejaVuSans-49"/>
     <use x="250.195312" xlink:href="#DejaVuSans-46"/>
     <use x="281.982422" xlink:href="#DejaVuSans-56"/>
    </g>
   </g>
  </g>
 </g>
 <defs>
  <clipPath id="p492cbb8dc9">
   <rect height="354.816" width="357.12" x="57.6" y="55.296"/>
  </clipPath>
 </defs>
</svg>
