<?xml version="1.0" encoding="utf-8" standalone="no"?>
<!DOCTYPE svg PUBLIC "-//W3C//DTD SVG 1.1//EN"
  "http://www.w3.org/Graphics/SVG/1.1/DTD/svg11.dtd">
<!-- Created with matplotlib (https://matplotlib.org/) -->
<svg height="460.8pt" version="1.1" viewBox="0 0 460.8 460.8" width="460.8pt" xmlns="http://www.w3.org/2000/svg" xmlns:xlink="http://www.w3.org/1999/xlink">
 <defs>
  <style type="text/css">
*{stroke-linecap:butt;stroke-linejoin:round;}
  </style>
 </defs>
 <g id="figure_1">
  <g id="patch_1">
   <path d="M 0 460.8 
L 460.8 460.8 
L 460.8 0 
L 0 0 
z
" style="fill:#ffffff;"/>
  </g>
  <g id="axes_1">
   <g id="patch_2">
    <path clip-path="url(#p8fe45f9762)" d="M 119.054247 273.924865 
L 117.231968 273.97193 
L 115.944219 274.439589 
L 114.382738 275.327961 
L 113.450797 276.37181 
L 112.532418 277.883983 
L 112.184457 279.248453 
L 112.134033 281.014194 
L 112.455245 282.365214 
L 113.28512 283.952209 
L 114.19686 284.959002 
L 115.703853 285.978699 
L 116.982897 286.394768 
L 118.798042 286.597509 
L 120.131234 286.320985 
L 121.810122 285.657133 
L 122.871051 284.755719 
L 124.00263 283.387807 
L 124.531543 282.0822 
L 124.838764 280.345141 
L 124.706165 278.955001 
L 124.11381 277.274087 
L 123.063025 275.812774 
L 122.019438 274.953659 
L 120.382519 274.147895 
L 120.382519 274.147895 
L 120.382519 274.147895 
L 120.382519 274.147895 
L 120.382519 274.147895 
L 120.382519 274.147895 
L 120.382519 274.147895 
L 120.382519 274.147895 
L 120.382519 274.147895 
L 120.382519 274.147895 
L 120.382519 274.147895 
L 120.382519 274.147895 
L 120.382519 274.147895 
L 120.382519 274.147895 
L 120.382519 274.147895 
L 120.382519 274.147895 
L 120.382519 274.147895 
L 120.382519 274.147895 
L 120.382519 274.147895 
L 120.382519 274.147895 
L 120.382519 274.147895 
L 120.382519 274.147895 
L 120.382519 274.147895 
L 120.382519 274.147895 
L 120.382519 274.147895 
L 120.382519 274.147895 
L 120.382519 274.147895 
L 120.382519 274.147895 
L 120.382519 274.147895 
L 120.382519 274.147895 
L 120.382519 274.147895 
L 120.382519 274.147895 
L 120.382519 274.147895 
L 120.382519 274.147895 
L 120.382519 274.147895 
L 120.382519 274.147895 
L 120.382519 274.147895 
L 120.382519 274.147895 
L 120.382519 274.147895 
L 120.382519 274.147895 
L 120.382519 274.147895 
L 120.382519 274.147895 
L 120.382519 274.147895 
L 120.382519 274.147895 
L 120.382519 274.147895 
L 120.382519 274.147895 
L 120.382519 274.147895 
L 120.382519 274.147895 
L 120.382519 274.147895 
L 120.382519 274.147895 
L 120.382519 274.147895 
L 120.382519 274.147895 
L 120.382519 274.147895 
L 120.382519 274.147895 
L 120.382519 274.147895 
L 120.382519 274.147895 
L 120.382519 274.147895 
L 120.382519 274.147895 
L 120.382519 274.147895 
L 120.382519 274.147895 
L 120.382519 274.147895 
L 120.382519 274.147895 
L 120.382519 274.147895 
L 120.382519 274.147895 
L 120.382519 274.147895 
L 120.382519 274.147895 
L 120.382519 274.147895 
L 120.382519 274.147895 
L 120.382519 274.147895 
L 120.382519 274.147895 
L 120.382519 274.147895 
L 120.382519 274.147895 
L 120.382519 274.147895 
L 120.382519 274.147895 
L 120.382519 274.147895 
L 120.382519 274.147895 
L 120.382519 274.147895 
L 120.382519 274.147895 
L 120.382519 274.147895 
L 120.382519 274.147895 
L 120.382519 274.147895 
L 120.382519 274.147895 
L 120.382519 274.147895 
L 120.382519 274.147895 
L 120.382519 274.147895 
L 120.382519 274.147895 
L 120.382519 274.147895 
L 120.382519 274.147895 
L 120.382519 274.147895 
L 120.382519 274.147895 
L 120.382519 274.147895 
L 120.382519 274.147895 
L 120.382519 274.147895 
L 120.382519 274.147895 
L 120.382519 274.147895 
L 120.382519 274.147895 
L 120.382519 274.147895 
L 120.382519 274.147895 
L 120.382519 274.147895 
L 120.382519 274.147895 
L 120.382519 274.147895 
L 120.382519 274.147895 
L 120.382519 274.147895 
L 120.382519 274.147895 
L 120.382519 274.147895 
L 120.382519 274.147895 
L 120.382519 274.147895 
L 120.382519 274.147895 
L 120.382519 274.147895 
L 120.382519 274.147895 
L 120.382519 274.147895 
L 120.382519 274.147895 
L 120.382519 274.147895 
L 120.382519 274.147895 
L 120.382519 274.147895 
L 120.382519 274.147895 
L 120.382519 274.147895 
L 120.382519 274.147895 
L 120.382519 274.147895 
L 120.382519 274.147895 
L 120.382519 274.147895 
L 120.382519 274.147895 
L 120.382519 274.147895 
L 120.382519 274.147895 
L 120.382519 274.147895 
L 120.382519 274.147895 
L 120.382519 274.147895 
L 120.382519 274.147895 
L 120.382519 274.147895 
L 120.382519 274.147895 
L 120.382519 274.147895 
L 120.382519 274.147895 
L 120.382519 274.147895 
L 120.382519 274.147895 
L 120.382519 274.147895 
L 120.382519 274.147895 
L 120.382519 274.147895 
L 120.382519 274.147895 
L 120.382519 274.147895 
L 120.382519 274.147895 
L 120.382519 274.147895 
L 120.382519 274.147895 
L 120.382519 274.147895 
L 120.382519 274.147895 
L 120.382519 274.147895 
z
" style="fill:#993333;stroke:#000000;stroke-linejoin:miter;"/>
   </g>
   <g id="patch_3">
    <path clip-path="url(#p8fe45f9762)" d="M 118.1689 279.667395 
L 118.758186 280.794304 
L 175.269525 251.243269 
L 174.680239 250.116359 
L 174.680239 250.116359 
L 174.680239 250.116359 
L 174.680239 250.116359 
L 174.680239 250.116359 
L 174.680239 250.116359 
L 174.680239 250.116359 
L 174.680239 250.116359 
L 174.680239 250.116359 
L 174.680239 250.116359 
L 174.680239 250.116359 
L 174.680239 250.116359 
L 174.680239 250.116359 
L 174.680239 250.116359 
L 174.680239 250.116359 
L 174.680239 250.116359 
L 174.680239 250.116359 
L 174.680239 250.116359 
L 174.680239 250.116359 
L 174.680239 250.116359 
L 174.680239 250.116359 
L 174.680239 250.116359 
L 174.680239 250.116359 
L 174.680239 250.116359 
L 174.680239 250.116359 
L 174.680239 250.116359 
L 174.680239 250.116359 
L 174.680239 250.116359 
L 174.680239 250.116359 
L 174.680239 250.116359 
L 174.680239 250.116359 
L 174.680239 250.116359 
L 174.680239 250.116359 
L 174.680239 250.116359 
L 174.680239 250.116359 
L 174.680239 250.116359 
L 174.680239 250.116359 
L 174.680239 250.116359 
L 174.680239 250.116359 
L 174.680239 250.116359 
L 174.680239 250.116359 
L 174.680239 250.116359 
L 174.680239 250.116359 
L 174.680239 250.116359 
L 174.680239 250.116359 
L 174.680239 250.116359 
L 174.680239 250.116359 
L 174.680239 250.116359 
L 174.680239 250.116359 
z
" style="stroke:#000000;stroke-linejoin:miter;"/>
   </g>
   <g id="patch_4">
    <path clip-path="url(#p8fe45f9762)" d="M 169.868405 254.48618 
L 171.147841 255.779954 
L 172.321307 256.437255 
L 174.062164 256.98977 
L 175.423684 256.978302 
L 177.19974 256.654283 
L 178.415966 255.976853 
L 179.79238 254.855631 
L 180.565538 253.678098 
L 181.205317 252.034187 
L 181.346111 250.644853 
L 181.092613 248.88074 
L 180.346685 247.242699 
L 179.490487 246.196719 
L 178.041931 245.087463 
L 176.78257 244.609909 
L 174.986044 244.301024 
L 173.631856 244.508818 
L 171.927212 245.075929 
L 170.80975 245.918196 
L 169.614343 247.222454 
L 169.0072 248.492978 
L 168.613709 250.215056 
L 168.665535 251.602768 
L 169.170299 253.32104 
L 169.170299 253.32104 
L 169.170299 253.32104 
L 169.170299 253.32104 
L 169.170299 253.32104 
L 169.170299 253.32104 
L 169.170299 253.32104 
L 169.170299 253.32104 
L 169.170299 253.32104 
L 169.170299 253.32104 
L 169.170299 253.32104 
L 169.170299 253.32104 
L 169.170299 253.32104 
L 169.170299 253.32104 
L 169.170299 253.32104 
L 169.170299 253.32104 
L 169.170299 253.32104 
L 169.170299 253.32104 
L 169.170299 253.32104 
L 169.170299 253.32104 
L 169.170299 253.32104 
L 169.170299 253.32104 
L 169.170299 253.32104 
L 169.170299 253.32104 
L 169.170299 253.32104 
L 169.170299 253.32104 
L 169.170299 253.32104 
L 169.170299 253.32104 
L 169.170299 253.32104 
L 169.170299 253.32104 
L 169.170299 253.32104 
L 169.170299 253.32104 
L 169.170299 253.32104 
L 169.170299 253.32104 
L 169.170299 253.32104 
L 169.170299 253.32104 
L 169.170299 253.32104 
L 169.170299 253.32104 
L 169.170299 253.32104 
L 169.170299 253.32104 
L 169.170299 253.32104 
L 169.170299 253.32104 
L 169.170299 253.32104 
L 169.170299 253.32104 
L 169.170299 253.32104 
L 169.170299 253.32104 
L 169.170299 253.32104 
L 169.170299 253.32104 
L 169.170299 253.32104 
L 169.170299 253.32104 
L 169.170299 253.32104 
L 169.170299 253.32104 
L 169.170299 253.32104 
L 169.170299 253.32104 
L 169.170299 253.32104 
L 169.170299 253.32104 
L 169.170299 253.32104 
L 169.170299 253.32104 
L 169.170299 253.32104 
L 169.170299 253.32104 
L 169.170299 253.32104 
L 169.170299 253.32104 
L 169.170299 253.32104 
L 169.170299 253.32104 
L 169.170299 253.32104 
L 169.170299 253.32104 
L 169.170299 253.32104 
L 169.170299 253.32104 
L 169.170299 253.32104 
L 169.170299 253.32104 
L 169.170299 253.32104 
L 169.170299 253.32104 
L 169.170299 253.32104 
L 169.170299 253.32104 
L 169.170299 253.32104 
L 169.170299 253.32104 
L 169.170299 253.32104 
L 169.170299 253.32104 
L 169.170299 253.32104 
L 169.170299 253.32104 
L 169.170299 253.32104 
L 169.170299 253.32104 
L 169.170299 253.32104 
L 169.170299 253.32104 
L 169.170299 253.32104 
L 169.170299 253.32104 
L 169.170299 253.32104 
L 169.170299 253.32104 
L 169.170299 253.32104 
L 169.170299 253.32104 
L 169.170299 253.32104 
L 169.170299 253.32104 
L 169.170299 253.32104 
L 169.170299 253.32104 
L 169.170299 253.32104 
L 169.170299 253.32104 
L 169.170299 253.32104 
L 169.170299 253.32104 
L 169.170299 253.32104 
L 169.170299 253.32104 
L 169.170299 253.32104 
L 169.170299 253.32104 
L 169.170299 253.32104 
L 169.170299 253.32104 
L 169.170299 253.32104 
L 169.170299 253.32104 
L 169.170299 253.32104 
L 169.170299 253.32104 
L 169.170299 253.32104 
L 169.170299 253.32104 
L 169.170299 253.32104 
L 169.170299 253.32104 
L 169.170299 253.32104 
L 169.170299 253.32104 
L 169.170299 253.32104 
L 169.170299 253.32104 
L 169.170299 253.32104 
L 169.170299 253.32104 
L 169.170299 253.32104 
L 169.170299 253.32104 
L 169.170299 253.32104 
L 169.170299 253.32104 
L 169.170299 253.32104 
L 169.170299 253.32104 
L 169.170299 253.32104 
L 169.170299 253.32104 
L 169.170299 253.32104 
L 169.170299 253.32104 
L 169.170299 253.32104 
L 169.170299 253.32104 
L 169.170299 253.32104 
L 169.170299 253.32104 
L 169.170299 253.32104 
L 169.170299 253.32104 
L 169.170299 253.32104 
L 169.170299 253.32104 
L 169.170299 253.32104 
L 169.170299 253.32104 
L 169.170299 253.32104 
L 169.170299 253.32104 
L 169.170299 253.32104 
L 169.170299 253.32104 
L 169.170299 253.32104 
L 169.170299 253.32104 
L 169.170299 253.32104 
z
" style="fill:#993333;stroke:#000000;stroke-linejoin:miter;"/>
   </g>
   <g id="patch_5">
    <path clip-path="url(#p8fe45f9762)" d="M 235.981314 232.095732 
L 174.795328 250.069887 
L 175.153756 251.290015 
L 236.339742 233.31586 
L 236.339742 233.31586 
L 236.339742 233.31586 
L 236.339742 233.31586 
L 236.339742 233.31586 
L 236.339742 233.31586 
L 236.339742 233.31586 
L 236.339742 233.31586 
L 236.339742 233.31586 
L 236.339742 233.31586 
L 236.339742 233.31586 
L 236.339742 233.31586 
L 236.339742 233.31586 
L 236.339742 233.31586 
L 236.339742 233.31586 
L 236.339742 233.31586 
L 236.339742 233.31586 
L 236.339742 233.31586 
L 236.339742 233.31586 
L 236.339742 233.31586 
L 236.339742 233.31586 
L 236.339742 233.31586 
L 236.339742 233.31586 
L 236.339742 233.31586 
L 236.339742 233.31586 
L 236.339742 233.31586 
L 236.339742 233.31586 
L 236.339742 233.31586 
L 236.339742 233.31586 
L 236.339742 233.31586 
L 236.339742 233.31586 
L 236.339742 233.31586 
L 236.339742 233.31586 
L 236.339742 233.31586 
L 236.339742 233.31586 
L 236.339742 233.31586 
L 236.339742 233.31586 
L 236.339742 233.31586 
L 236.339742 233.31586 
L 236.339742 233.31586 
L 236.339742 233.31586 
L 236.339742 233.31586 
L 236.339742 233.31586 
L 236.339742 233.31586 
L 236.339742 233.31586 
L 236.339742 233.31586 
L 236.339742 233.31586 
L 236.339742 233.31586 
L 236.339742 233.31586 
z
" style="stroke:#000000;stroke-linejoin:miter;"/>
   </g>
   <g id="text_1">
    <!-- t = 2.9 -->
    <defs>
     <path d="M 18.3125 70.21875 
L 18.3125 54.6875 
L 36.8125 54.6875 
L 36.8125 47.703125 
L 18.3125 47.703125 
L 18.3125 18.015625 
Q 18.3125 11.328125 20.140625 9.421875 
Q 21.96875 7.515625 27.59375 7.515625 
L 36.8125 7.515625 
L 36.8125 0 
L 27.59375 0 
Q 17.1875 0 13.234375 3.875 
Q 9.28125 7.765625 9.28125 18.015625 
L 9.28125 47.703125 
L 2.6875 47.703125 
L 2.6875 54.6875 
L 9.28125 54.6875 
L 9.28125 70.21875 
z
" id="DejaVuSans-116"/>
     <path id="DejaVuSans-32"/>
     <path d="M 10.59375 45.40625 
L 73.1875 45.40625 
L 73.1875 37.203125 
L 10.59375 37.203125 
z
M 10.59375 25.484375 
L 73.1875 25.484375 
L 73.1875 17.1875 
L 10.59375 17.1875 
z
" id="DejaVuSans-61"/>
     <path d="M 19.1875 8.296875 
L 53.609375 8.296875 
L 53.609375 0 
L 7.328125 0 
L 7.328125 8.296875 
Q 12.9375 14.109375 22.625 23.890625 
Q 32.328125 33.6875 34.8125 36.53125 
Q 39.546875 41.84375 41.421875 45.53125 
Q 43.3125 49.21875 43.3125 52.78125 
Q 43.3125 58.59375 39.234375 62.25 
Q 35.15625 65.921875 28.609375 65.921875 
Q 23.96875 65.921875 18.8125 64.3125 
Q 13.671875 62.703125 7.8125 59.421875 
L 7.8125 69.390625 
Q 13.765625 71.78125 18.9375 73 
Q 24.125 74.21875 28.421875 74.21875 
Q 39.75 74.21875 46.484375 68.546875 
Q 53.21875 62.890625 53.21875 53.421875 
Q 53.21875 48.921875 51.53125 44.890625 
Q 49.859375 40.875 45.40625 35.40625 
Q 44.1875 33.984375 37.640625 27.21875 
Q 31.109375 20.453125 19.1875 8.296875 
z
" id="DejaVuSans-50"/>
     <path d="M 10.6875 12.40625 
L 21 12.40625 
L 21 0 
L 10.6875 0 
z
" id="DejaVuSans-46"/>
     <path d="M 10.984375 1.515625 
L 10.984375 10.5 
Q 14.703125 8.734375 18.5 7.8125 
Q 22.3125 6.890625 25.984375 6.890625 
Q 35.75 6.890625 40.890625 13.453125 
Q 46.046875 20.015625 46.78125 33.40625 
Q 43.953125 29.203125 39.59375 26.953125 
Q 35.25 24.703125 29.984375 24.703125 
Q 19.046875 24.703125 12.671875 31.3125 
Q 6.296875 37.9375 6.296875 49.421875 
Q 6.296875 60.640625 12.9375 67.421875 
Q 19.578125 74.21875 30.609375 74.21875 
Q 43.265625 74.21875 49.921875 64.515625 
Q 56.59375 54.828125 56.59375 36.375 
Q 56.59375 19.140625 48.40625 8.859375 
Q 40.234375 -1.421875 26.421875 -1.421875 
Q 22.703125 -1.421875 18.890625 -0.6875 
Q 15.09375 0.046875 10.984375 1.515625 
z
M 30.609375 32.421875 
Q 37.25 32.421875 41.125 36.953125 
Q 45.015625 41.5 45.015625 49.421875 
Q 45.015625 57.28125 41.125 61.84375 
Q 37.25 66.40625 30.609375 66.40625 
Q 23.96875 66.40625 20.09375 61.84375 
Q 16.21875 57.28125 16.21875 49.421875 
Q 16.21875 41.5 20.09375 36.953125 
Q 23.96875 32.421875 30.609375 32.421875 
z
" id="DejaVuSans-57"/>
    </defs>
    <g transform="translate(215.424375 49.296)scale(0.12 -0.12)">
     <use xlink:href="#DejaVuSans-116"/>
     <use x="39.208984" xlink:href="#DejaVuSans-32"/>
     <use x="70.996094" xlink:href="#DejaVuSans-61"/>
     <use x="154.785156" xlink:href="#DejaVuSans-32"/>
     <use x="186.572266" xlink:href="#DejaVuSans-50"/>
     <use x="250.195312" xlink:href="#DejaVuSans-46"/>
     <use x="281.982422" xlink:href="#DejaVuSans-57"/>
    </g>
   </g>
  </g>
 </g>
 <defs>
  <clipPath id="p8fe45f9762">
   <rect height="354.816" width="357.12" x="57.6" y="55.296"/>
  </clipPath>
 </defs>
</svg>
