<?xml version="1.0" encoding="utf-8" standalone="no"?>
<!DOCTYPE svg PUBLIC "-//W3C//DTD SVG 1.1//EN"
  "http://www.w3.org/Graphics/SVG/1.1/DTD/svg11.dtd">
<!-- Created with matplotlib (https://matplotlib.org/) -->
<svg height="460.8pt" version="1.1" viewBox="0 0 460.8 460.8" width="460.8pt" xmlns="http://www.w3.org/2000/svg" xmlns:xlink="http://www.w3.org/1999/xlink">
 <defs>
  <style type="text/css">
*{stroke-linecap:butt;stroke-linejoin:round;}
  </style>
 </defs>
 <g id="figure_1">
  <g id="patch_1">
   <path d="M 0 460.8 
L 460.8 460.8 
L 460.8 0 
L 0 0 
z
" style="fill:#ffffff;"/>
  </g>
  <g id="axes_1">
   <g id="patch_2">
    <path clip-path="url(#p14b2851418)" d="M 182.07453 339.762161 
L 180.250489 339.802581 
L 178.969154 340.217583 
L 177.374163 341.10015 
L 176.447467 342.109227 
L 175.472038 343.617858 
L 175.126869 344.973953 
L 175.009819 346.739281 
L 175.330686 348.110375 
L 176.100674 349.700188 
L 177.009018 350.750589 
L 178.477523 351.775644 
L 179.75095 352.248178 
L 181.558432 352.457506 
L 182.885162 352.236479 
L 184.589086 351.57883 
L 185.644289 350.718358 
L 186.827475 349.354747 
L 187.352801 348.065503 
L 187.725563 346.329789 
L 187.592394 344.927425 
L 187.063468 343.244572 
L 186.304408 342.072436 
L 185.003293 340.854465 
L 183.39679 340.042842 
L 183.39679 340.042842 
L 183.39679 340.042842 
L 183.39679 340.042842 
L 183.39679 340.042842 
L 183.39679 340.042842 
L 183.39679 340.042842 
L 183.39679 340.042842 
L 183.39679 340.042842 
L 183.39679 340.042842 
L 183.39679 340.042842 
L 183.39679 340.042842 
L 183.39679 340.042842 
L 183.39679 340.042842 
L 183.39679 340.042842 
L 183.39679 340.042842 
L 183.39679 340.042842 
L 183.39679 340.042842 
L 183.39679 340.042842 
L 183.39679 340.042842 
L 183.39679 340.042842 
L 183.39679 340.042842 
L 183.39679 340.042842 
L 183.39679 340.042842 
L 183.39679 340.042842 
L 183.39679 340.042842 
L 183.39679 340.042842 
L 183.39679 340.042842 
L 183.39679 340.042842 
L 183.39679 340.042842 
L 183.39679 340.042842 
L 183.39679 340.042842 
L 183.39679 340.042842 
L 183.39679 340.042842 
L 183.39679 340.042842 
L 183.39679 340.042842 
L 183.39679 340.042842 
L 183.39679 340.042842 
L 183.39679 340.042842 
L 183.39679 340.042842 
L 183.39679 340.042842 
L 183.39679 340.042842 
L 183.39679 340.042842 
L 183.39679 340.042842 
L 183.39679 340.042842 
L 183.39679 340.042842 
L 183.39679 340.042842 
L 183.39679 340.042842 
L 183.39679 340.042842 
L 183.39679 340.042842 
L 183.39679 340.042842 
L 183.39679 340.042842 
L 183.39679 340.042842 
L 183.39679 340.042842 
L 183.39679 340.042842 
L 183.39679 340.042842 
L 183.39679 340.042842 
L 183.39679 340.042842 
L 183.39679 340.042842 
L 183.39679 340.042842 
L 183.39679 340.042842 
L 183.39679 340.042842 
L 183.39679 340.042842 
L 183.39679 340.042842 
L 183.39679 340.042842 
L 183.39679 340.042842 
L 183.39679 340.042842 
L 183.39679 340.042842 
L 183.39679 340.042842 
L 183.39679 340.042842 
L 183.39679 340.042842 
L 183.39679 340.042842 
L 183.39679 340.042842 
L 183.39679 340.042842 
L 183.39679 340.042842 
L 183.39679 340.042842 
L 183.39679 340.042842 
L 183.39679 340.042842 
L 183.39679 340.042842 
L 183.39679 340.042842 
L 183.39679 340.042842 
L 183.39679 340.042842 
L 183.39679 340.042842 
L 183.39679 340.042842 
L 183.39679 340.042842 
L 183.39679 340.042842 
L 183.39679 340.042842 
L 183.39679 340.042842 
L 183.39679 340.042842 
L 183.39679 340.042842 
L 183.39679 340.042842 
L 183.39679 340.042842 
L 183.39679 340.042842 
L 183.39679 340.042842 
L 183.39679 340.042842 
L 183.39679 340.042842 
L 183.39679 340.042842 
L 183.39679 340.042842 
L 183.39679 340.042842 
L 183.39679 340.042842 
L 183.39679 340.042842 
L 183.39679 340.042842 
L 183.39679 340.042842 
L 183.39679 340.042842 
L 183.39679 340.042842 
L 183.39679 340.042842 
L 183.39679 340.042842 
L 183.39679 340.042842 
L 183.39679 340.042842 
L 183.39679 340.042842 
L 183.39679 340.042842 
L 183.39679 340.042842 
L 183.39679 340.042842 
L 183.39679 340.042842 
L 183.39679 340.042842 
L 183.39679 340.042842 
L 183.39679 340.042842 
L 183.39679 340.042842 
L 183.39679 340.042842 
L 183.39679 340.042842 
L 183.39679 340.042842 
L 183.39679 340.042842 
L 183.39679 340.042842 
L 183.39679 340.042842 
L 183.39679 340.042842 
L 183.39679 340.042842 
L 183.39679 340.042842 
L 183.39679 340.042842 
L 183.39679 340.042842 
L 183.39679 340.042842 
L 183.39679 340.042842 
L 183.39679 340.042842 
L 183.39679 340.042842 
L 183.39679 340.042842 
L 183.39679 340.042842 
L 183.39679 340.042842 
L 183.39679 340.042842 
L 183.39679 340.042842 
L 183.39679 340.042842 
L 183.39679 340.042842 
L 183.39679 340.042842 
L 183.39679 340.042842 
L 183.39679 340.042842 
L 183.39679 340.042842 
L 183.39679 340.042842 
z
" style="fill:#993333;stroke:#000000;stroke-linejoin:miter;"/>
   </g>
   <g id="patch_3">
    <path clip-path="url(#p14b2851418)" d="M 217.334539 293.42877 
L 180.833321 345.720798 
L 181.876092 346.44868 
L 218.37731 294.156652 
L 218.37731 294.156652 
L 218.37731 294.156652 
L 218.37731 294.156652 
L 218.37731 294.156652 
L 218.37731 294.156652 
L 218.37731 294.156652 
L 218.37731 294.156652 
L 218.37731 294.156652 
L 218.37731 294.156652 
L 218.37731 294.156652 
L 218.37731 294.156652 
L 218.37731 294.156652 
L 218.37731 294.156652 
L 218.37731 294.156652 
L 218.37731 294.156652 
L 218.37731 294.156652 
L 218.37731 294.156652 
L 218.37731 294.156652 
L 218.37731 294.156652 
L 218.37731 294.156652 
L 218.37731 294.156652 
L 218.37731 294.156652 
L 218.37731 294.156652 
L 218.37731 294.156652 
L 218.37731 294.156652 
L 218.37731 294.156652 
L 218.37731 294.156652 
L 218.37731 294.156652 
L 218.37731 294.156652 
L 218.37731 294.156652 
L 218.37731 294.156652 
L 218.37731 294.156652 
L 218.37731 294.156652 
L 218.37731 294.156652 
L 218.37731 294.156652 
L 218.37731 294.156652 
L 218.37731 294.156652 
L 218.37731 294.156652 
L 218.37731 294.156652 
L 218.37731 294.156652 
L 218.37731 294.156652 
L 218.37731 294.156652 
L 218.37731 294.156652 
L 218.37731 294.156652 
L 218.37731 294.156652 
L 218.37731 294.156652 
L 218.37731 294.156652 
L 218.37731 294.156652 
z
" style="stroke:#000000;stroke-linejoin:miter;"/>
   </g>
   <g id="patch_4">
    <path clip-path="url(#p14b2851418)" d="M 216.904217 300.097599 
L 218.261556 300.147937 
L 220.043772 299.781177 
L 221.234717 299.156103 
L 222.647291 297.998307 
L 223.380256 296.850862 
L 224.07734 295.185498 
L 224.17287 293.796617 
L 223.983794 292.031424 
L 223.4185 290.741153 
L 222.389556 289.308313 
L 221.301842 288.432554 
L 219.684951 287.682876 
L 217.905157 287.414699 
L 216.561469 287.56186 
L 214.841673 288.171009 
L 213.75454 288.966112 
L 212.515808 290.303445 
L 211.951397 291.551821 
L 211.497014 293.289913 
L 211.593512 294.685916 
L 212.034727 296.399221 
L 212.768509 297.601061 
L 213.997296 298.870103 
L 215.188706 299.583527 
L 215.188706 299.583527 
L 215.188706 299.583527 
L 215.188706 299.583527 
L 215.188706 299.583527 
L 215.188706 299.583527 
L 215.188706 299.583527 
L 215.188706 299.583527 
L 215.188706 299.583527 
L 215.188706 299.583527 
L 215.188706 299.583527 
L 215.188706 299.583527 
L 215.188706 299.583527 
L 215.188706 299.583527 
L 215.188706 299.583527 
L 215.188706 299.583527 
L 215.188706 299.583527 
L 215.188706 299.583527 
L 215.188706 299.583527 
L 215.188706 299.583527 
L 215.188706 299.583527 
L 215.188706 299.583527 
L 215.188706 299.583527 
L 215.188706 299.583527 
L 215.188706 299.583527 
L 215.188706 299.583527 
L 215.188706 299.583527 
L 215.188706 299.583527 
L 215.188706 299.583527 
L 215.188706 299.583527 
L 215.188706 299.583527 
L 215.188706 299.583527 
L 215.188706 299.583527 
L 215.188706 299.583527 
L 215.188706 299.583527 
L 215.188706 299.583527 
L 215.188706 299.583527 
L 215.188706 299.583527 
L 215.188706 299.583527 
L 215.188706 299.583527 
L 215.188706 299.583527 
L 215.188706 299.583527 
L 215.188706 299.583527 
L 215.188706 299.583527 
L 215.188706 299.583527 
L 215.188706 299.583527 
L 215.188706 299.583527 
L 215.188706 299.583527 
L 215.188706 299.583527 
L 215.188706 299.583527 
L 215.188706 299.583527 
L 215.188706 299.583527 
L 215.188706 299.583527 
L 215.188706 299.583527 
L 215.188706 299.583527 
L 215.188706 299.583527 
L 215.188706 299.583527 
L 215.188706 299.583527 
L 215.188706 299.583527 
L 215.188706 299.583527 
L 215.188706 299.583527 
L 215.188706 299.583527 
L 215.188706 299.583527 
L 215.188706 299.583527 
L 215.188706 299.583527 
L 215.188706 299.583527 
L 215.188706 299.583527 
L 215.188706 299.583527 
L 215.188706 299.583527 
L 215.188706 299.583527 
L 215.188706 299.583527 
L 215.188706 299.583527 
L 215.188706 299.583527 
L 215.188706 299.583527 
L 215.188706 299.583527 
L 215.188706 299.583527 
L 215.188706 299.583527 
L 215.188706 299.583527 
L 215.188706 299.583527 
L 215.188706 299.583527 
L 215.188706 299.583527 
L 215.188706 299.583527 
L 215.188706 299.583527 
L 215.188706 299.583527 
L 215.188706 299.583527 
L 215.188706 299.583527 
L 215.188706 299.583527 
L 215.188706 299.583527 
L 215.188706 299.583527 
L 215.188706 299.583527 
L 215.188706 299.583527 
L 215.188706 299.583527 
L 215.188706 299.583527 
L 215.188706 299.583527 
L 215.188706 299.583527 
L 215.188706 299.583527 
L 215.188706 299.583527 
L 215.188706 299.583527 
L 215.188706 299.583527 
L 215.188706 299.583527 
L 215.188706 299.583527 
L 215.188706 299.583527 
L 215.188706 299.583527 
L 215.188706 299.583527 
L 215.188706 299.583527 
L 215.188706 299.583527 
L 215.188706 299.583527 
L 215.188706 299.583527 
L 215.188706 299.583527 
L 215.188706 299.583527 
L 215.188706 299.583527 
L 215.188706 299.583527 
L 215.188706 299.583527 
L 215.188706 299.583527 
L 215.188706 299.583527 
L 215.188706 299.583527 
L 215.188706 299.583527 
L 215.188706 299.583527 
L 215.188706 299.583527 
L 215.188706 299.583527 
L 215.188706 299.583527 
L 215.188706 299.583527 
L 215.188706 299.583527 
L 215.188706 299.583527 
L 215.188706 299.583527 
L 215.188706 299.583527 
L 215.188706 299.583527 
L 215.188706 299.583527 
L 215.188706 299.583527 
L 215.188706 299.583527 
L 215.188706 299.583527 
L 215.188706 299.583527 
L 215.188706 299.583527 
L 215.188706 299.583527 
L 215.188706 299.583527 
L 215.188706 299.583527 
L 215.188706 299.583527 
L 215.188706 299.583527 
L 215.188706 299.583527 
L 215.188706 299.583527 
L 215.188706 299.583527 
L 215.188706 299.583527 
L 215.188706 299.583527 
L 215.188706 299.583527 
L 215.188706 299.583527 
z
" style="fill:#993333;stroke:#000000;stroke-linejoin:miter;"/>
   </g>
   <g id="patch_5">
    <path clip-path="url(#p14b2851418)" d="M 217.247099 293.609658 
L 218.465266 293.974696 
L 236.770876 232.887056 
L 235.55271 232.522018 
L 235.55271 232.522018 
L 235.55271 232.522018 
L 235.55271 232.522018 
L 235.55271 232.522018 
L 235.55271 232.522018 
L 235.55271 232.522018 
L 235.55271 232.522018 
L 235.55271 232.522018 
L 235.55271 232.522018 
L 235.55271 232.522018 
L 235.55271 232.522018 
L 235.55271 232.522018 
L 235.55271 232.522018 
L 235.55271 232.522018 
L 235.55271 232.522018 
L 235.55271 232.522018 
L 235.55271 232.522018 
L 235.55271 232.522018 
L 235.55271 232.522018 
L 235.55271 232.522018 
L 235.55271 232.522018 
L 235.55271 232.522018 
L 235.55271 232.522018 
L 235.55271 232.522018 
L 235.55271 232.522018 
L 235.55271 232.522018 
L 235.55271 232.522018 
L 235.55271 232.522018 
L 235.55271 232.522018 
L 235.55271 232.522018 
L 235.55271 232.522018 
L 235.55271 232.522018 
L 235.55271 232.522018 
L 235.55271 232.522018 
L 235.55271 232.522018 
L 235.55271 232.522018 
L 235.55271 232.522018 
L 235.55271 232.522018 
L 235.55271 232.522018 
L 235.55271 232.522018 
L 235.55271 232.522018 
L 235.55271 232.522018 
L 235.55271 232.522018 
L 235.55271 232.522018 
L 235.55271 232.522018 
L 235.55271 232.522018 
L 235.55271 232.522018 
L 235.55271 232.522018 
z
" style="stroke:#000000;stroke-linejoin:miter;"/>
   </g>
   <g id="text_1">
    <!-- t = 5.2 -->
    <defs>
     <path d="M 18.3125 70.21875 
L 18.3125 54.6875 
L 36.8125 54.6875 
L 36.8125 47.703125 
L 18.3125 47.703125 
L 18.3125 18.015625 
Q 18.3125 11.328125 20.140625 9.421875 
Q 21.96875 7.515625 27.59375 7.515625 
L 36.8125 7.515625 
L 36.8125 0 
L 27.59375 0 
Q 17.1875 0 13.234375 3.875 
Q 9.28125 7.765625 9.28125 18.015625 
L 9.28125 47.703125 
L 2.6875 47.703125 
L 2.6875 54.6875 
L 9.28125 54.6875 
L 9.28125 70.21875 
z
" id="DejaVuSans-116"/>
     <path id="DejaVuSans-32"/>
     <path d="M 10.59375 45.40625 
L 73.1875 45.40625 
L 73.1875 37.203125 
L 10.59375 37.203125 
z
M 10.59375 25.484375 
L 73.1875 25.484375 
L 73.1875 17.1875 
L 10.59375 17.1875 
z
" id="DejaVuSans-61"/>
     <path d="M 10.796875 72.90625 
L 49.515625 72.90625 
L 49.515625 64.59375 
L 19.828125 64.59375 
L 19.828125 46.734375 
Q 21.96875 47.46875 24.109375 47.828125 
Q 26.265625 48.1875 28.421875 48.1875 
Q 40.625 48.1875 47.75 41.5 
Q 54.890625 34.8125 54.890625 23.390625 
Q 54.890625 11.625 47.5625 5.09375 
Q 40.234375 -1.421875 26.90625 -1.421875 
Q 22.3125 -1.421875 17.546875 -0.640625 
Q 12.796875 0.140625 7.71875 1.703125 
L 7.71875 11.625 
Q 12.109375 9.234375 16.796875 8.0625 
Q 21.484375 6.890625 26.703125 6.890625 
Q 35.15625 6.890625 40.078125 11.328125 
Q 45.015625 15.765625 45.015625 23.390625 
Q 45.015625 31 40.078125 35.4375 
Q 35.15625 39.890625 26.703125 39.890625 
Q 22.75 39.890625 18.8125 39.015625 
Q 14.890625 38.140625 10.796875 36.28125 
z
" id="DejaVuSans-53"/>
     <path d="M 10.6875 12.40625 
L 21 12.40625 
L 21 0 
L 10.6875 0 
z
" id="DejaVuSans-46"/>
     <path d="M 19.1875 8.296875 
L 53.609375 8.296875 
L 53.609375 0 
L 7.328125 0 
L 7.328125 8.296875 
Q 12.9375 14.109375 22.625 23.890625 
Q 32.328125 33.6875 34.8125 36.53125 
Q 39.546875 41.84375 41.421875 45.53125 
Q 43.3125 49.21875 43.3125 52.78125 
Q 43.3125 58.59375 39.234375 62.25 
Q 35.15625 65.921875 28.609375 65.921875 
Q 23.96875 65.921875 18.8125 64.3125 
Q 13.671875 62.703125 7.8125 59.421875 
L 7.8125 69.390625 
Q 13.765625 71.78125 18.9375 73 
Q 24.125 74.21875 28.421875 74.21875 
Q 39.75 74.21875 46.484375 68.546875 
Q 53.21875 62.890625 53.21875 53.421875 
Q 53.21875 48.921875 51.53125 44.890625 
Q 49.859375 40.875 45.40625 35.40625 
Q 44.1875 33.984375 37.640625 27.21875 
Q 31.109375 20.453125 19.1875 8.296875 
z
" id="DejaVuSans-50"/>
    </defs>
    <g transform="translate(215.424375 49.296)scale(0.12 -0.12)">
     <use xlink:href="#DejaVuSans-116"/>
     <use x="39.208984" xlink:href="#DejaVuSans-32"/>
     <use x="70.996094" xlink:href="#DejaVuSans-61"/>
     <use x="154.785156" xlink:href="#DejaVuSans-32"/>
     <use x="186.572266" xlink:href="#DejaVuSans-53"/>
     <use x="250.195312" xlink:href="#DejaVuSans-46"/>
     <use x="281.982422" xlink:href="#DejaVuSans-50"/>
    </g>
   </g>
  </g>
 </g>
 <defs>
  <clipPath id="p14b2851418">
   <rect height="354.816" width="357.12" x="57.6" y="55.296"/>
  </clipPath>
 </defs>
</svg>
