<?xml version="1.0" encoding="utf-8" standalone="no"?>
<!DOCTYPE svg PUBLIC "-//W3C//DTD SVG 1.1//EN"
  "http://www.w3.org/Graphics/SVG/1.1/DTD/svg11.dtd">
<!-- Created with matplotlib (https://matplotlib.org/) -->
<svg height="460.8pt" version="1.1" viewBox="0 0 460.8 460.8" width="460.8pt" xmlns="http://www.w3.org/2000/svg" xmlns:xlink="http://www.w3.org/1999/xlink">
 <defs>
  <style type="text/css">
*{stroke-linecap:butt;stroke-linejoin:round;}
  </style>
 </defs>
 <g id="figure_1">
  <g id="patch_1">
   <path d="M 0 460.8 
L 460.8 460.8 
L 460.8 0 
L 0 0 
z
" style="fill:#ffffff;"/>
  </g>
  <g id="axes_1">
   <g id="patch_2">
    <path clip-path="url(#pdc0cf22cc7)" d="M 297.647679 327.953801 
L 297.799405 329.77197 
L 298.291874 331.025573 
L 299.270188 332.563695 
L 300.333969 333.427045 
L 301.899347 334.308533 
L 303.273988 334.570251 
L 305.04317 334.579287 
L 306.392112 334.175295 
L 307.931941 333.309666 
L 308.924916 332.338876 
L 309.858387 330.810519 
L 310.25228 329.510614 
L 310.350848 327.693723 
L 310.049219 326.382965 
L 309.288751 324.722379 
L 308.365451 323.721688 
L 306.932136 322.623976 
L 305.61322 322.178355 
L 303.857983 321.912275 
L 302.466368 322.130828 
L 300.818953 322.761527 
L 299.695355 323.590744 
L 298.559106 324.963804 
L 297.847095 326.61687 
L 297.847095 326.61687 
L 297.847095 326.61687 
L 297.847095 326.61687 
L 297.847095 326.61687 
L 297.847095 326.61687 
L 297.847095 326.61687 
L 297.847095 326.61687 
L 297.847095 326.61687 
L 297.847095 326.61687 
L 297.847095 326.61687 
L 297.847095 326.61687 
L 297.847095 326.61687 
L 297.847095 326.61687 
L 297.847095 326.61687 
L 297.847095 326.61687 
L 297.847095 326.61687 
L 297.847095 326.61687 
L 297.847095 326.61687 
L 297.847095 326.61687 
L 297.847095 326.61687 
L 297.847095 326.61687 
L 297.847095 326.61687 
L 297.847095 326.61687 
L 297.847095 326.61687 
L 297.847095 326.61687 
L 297.847095 326.61687 
L 297.847095 326.61687 
L 297.847095 326.61687 
L 297.847095 326.61687 
L 297.847095 326.61687 
L 297.847095 326.61687 
L 297.847095 326.61687 
L 297.847095 326.61687 
L 297.847095 326.61687 
L 297.847095 326.61687 
L 297.847095 326.61687 
L 297.847095 326.61687 
L 297.847095 326.61687 
L 297.847095 326.61687 
L 297.847095 326.61687 
L 297.847095 326.61687 
L 297.847095 326.61687 
L 297.847095 326.61687 
L 297.847095 326.61687 
L 297.847095 326.61687 
L 297.847095 326.61687 
L 297.847095 326.61687 
L 297.847095 326.61687 
L 297.847095 326.61687 
L 297.847095 326.61687 
L 297.847095 326.61687 
L 297.847095 326.61687 
L 297.847095 326.61687 
L 297.847095 326.61687 
L 297.847095 326.61687 
L 297.847095 326.61687 
L 297.847095 326.61687 
L 297.847095 326.61687 
L 297.847095 326.61687 
L 297.847095 326.61687 
L 297.847095 326.61687 
L 297.847095 326.61687 
L 297.847095 326.61687 
L 297.847095 326.61687 
L 297.847095 326.61687 
L 297.847095 326.61687 
L 297.847095 326.61687 
L 297.847095 326.61687 
L 297.847095 326.61687 
L 297.847095 326.61687 
L 297.847095 326.61687 
L 297.847095 326.61687 
L 297.847095 326.61687 
L 297.847095 326.61687 
L 297.847095 326.61687 
L 297.847095 326.61687 
L 297.847095 326.61687 
L 297.847095 326.61687 
L 297.847095 326.61687 
L 297.847095 326.61687 
L 297.847095 326.61687 
L 297.847095 326.61687 
L 297.847095 326.61687 
L 297.847095 326.61687 
L 297.847095 326.61687 
L 297.847095 326.61687 
L 297.847095 326.61687 
L 297.847095 326.61687 
L 297.847095 326.61687 
L 297.847095 326.61687 
L 297.847095 326.61687 
L 297.847095 326.61687 
L 297.847095 326.61687 
L 297.847095 326.61687 
L 297.847095 326.61687 
L 297.847095 326.61687 
L 297.847095 326.61687 
L 297.847095 326.61687 
L 297.847095 326.61687 
L 297.847095 326.61687 
L 297.847095 326.61687 
L 297.847095 326.61687 
L 297.847095 326.61687 
L 297.847095 326.61687 
L 297.847095 326.61687 
L 297.847095 326.61687 
L 297.847095 326.61687 
L 297.847095 326.61687 
L 297.847095 326.61687 
L 297.847095 326.61687 
L 297.847095 326.61687 
L 297.847095 326.61687 
L 297.847095 326.61687 
L 297.847095 326.61687 
L 297.847095 326.61687 
L 297.847095 326.61687 
L 297.847095 326.61687 
L 297.847095 326.61687 
L 297.847095 326.61687 
L 297.847095 326.61687 
L 297.847095 326.61687 
L 297.847095 326.61687 
L 297.847095 326.61687 
L 297.847095 326.61687 
L 297.847095 326.61687 
L 297.847095 326.61687 
L 297.847095 326.61687 
L 297.847095 326.61687 
L 297.847095 326.61687 
L 297.847095 326.61687 
L 297.847095 326.61687 
L 297.847095 326.61687 
L 297.847095 326.61687 
L 297.847095 326.61687 
L 297.847095 326.61687 
L 297.847095 326.61687 
L 297.847095 326.61687 
L 297.847095 326.61687 
L 297.847095 326.61687 
L 297.847095 326.61687 
L 297.847095 326.61687 
L 297.847095 326.61687 
L 297.847095 326.61687 
L 297.847095 326.61687 
z
" style="fill:#993333;stroke:#000000;stroke-linejoin:miter;"/>
   </g>
   <g id="patch_3">
    <path clip-path="url(#pdc0cf22cc7)" d="M 249.247675 295.588836 
L 303.670988 328.828843 
L 304.333837 327.743571 
L 249.910524 294.503564 
L 249.910524 294.503564 
L 249.910524 294.503564 
L 249.910524 294.503564 
L 249.910524 294.503564 
L 249.910524 294.503564 
L 249.910524 294.503564 
L 249.910524 294.503564 
L 249.910524 294.503564 
L 249.910524 294.503564 
L 249.910524 294.503564 
L 249.910524 294.503564 
L 249.910524 294.503564 
L 249.910524 294.503564 
L 249.910524 294.503564 
L 249.910524 294.503564 
L 249.910524 294.503564 
L 249.910524 294.503564 
L 249.910524 294.503564 
L 249.910524 294.503564 
L 249.910524 294.503564 
L 249.910524 294.503564 
L 249.910524 294.503564 
L 249.910524 294.503564 
L 249.910524 294.503564 
L 249.910524 294.503564 
L 249.910524 294.503564 
L 249.910524 294.503564 
L 249.910524 294.503564 
L 249.910524 294.503564 
L 249.910524 294.503564 
L 249.910524 294.503564 
L 249.910524 294.503564 
L 249.910524 294.503564 
L 249.910524 294.503564 
L 249.910524 294.503564 
L 249.910524 294.503564 
L 249.910524 294.503564 
L 249.910524 294.503564 
L 249.910524 294.503564 
L 249.910524 294.503564 
L 249.910524 294.503564 
L 249.910524 294.503564 
L 249.910524 294.503564 
L 249.910524 294.503564 
L 249.910524 294.503564 
L 249.910524 294.503564 
L 249.910524 294.503564 
L 249.910524 294.503564 
z
" style="stroke:#000000;stroke-linejoin:miter;"/>
   </g>
   <g id="patch_4">
    <path clip-path="url(#pdc0cf22cc7)" d="M 248.647757 301.356709 
L 250.035517 301.407248 
L 251.786304 301.03043 
L 252.999703 300.420049 
L 254.384211 299.239393 
L 255.126168 298.117535 
L 255.80542 296.422108 
L 255.894278 295.063443 
L 255.70197 293.268343 
L 255.115973 292.00552 
L 254.099189 290.550251 
L 252.981809 289.692452 
L 251.389494 288.933315 
L 250.014305 288.69056 
L 248.236312 288.813417 
L 246.547773 289.436654 
L 245.441563 290.213476 
L 244.228616 291.576383 
L 243.65959 292.797144 
L 243.219204 294.566036 
L 243.32668 295.931851 
L 243.766678 297.67364 
L 244.524341 298.850111 
L 245.736997 300.138347 
L 246.959345 300.837432 
L 246.959345 300.837432 
L 246.959345 300.837432 
L 246.959345 300.837432 
L 246.959345 300.837432 
L 246.959345 300.837432 
L 246.959345 300.837432 
L 246.959345 300.837432 
L 246.959345 300.837432 
L 246.959345 300.837432 
L 246.959345 300.837432 
L 246.959345 300.837432 
L 246.959345 300.837432 
L 246.959345 300.837432 
L 246.959345 300.837432 
L 246.959345 300.837432 
L 246.959345 300.837432 
L 246.959345 300.837432 
L 246.959345 300.837432 
L 246.959345 300.837432 
L 246.959345 300.837432 
L 246.959345 300.837432 
L 246.959345 300.837432 
L 246.959345 300.837432 
L 246.959345 300.837432 
L 246.959345 300.837432 
L 246.959345 300.837432 
L 246.959345 300.837432 
L 246.959345 300.837432 
L 246.959345 300.837432 
L 246.959345 300.837432 
L 246.959345 300.837432 
L 246.959345 300.837432 
L 246.959345 300.837432 
L 246.959345 300.837432 
L 246.959345 300.837432 
L 246.959345 300.837432 
L 246.959345 300.837432 
L 246.959345 300.837432 
L 246.959345 300.837432 
L 246.959345 300.837432 
L 246.959345 300.837432 
L 246.959345 300.837432 
L 246.959345 300.837432 
L 246.959345 300.837432 
L 246.959345 300.837432 
L 246.959345 300.837432 
L 246.959345 300.837432 
L 246.959345 300.837432 
L 246.959345 300.837432 
L 246.959345 300.837432 
L 246.959345 300.837432 
L 246.959345 300.837432 
L 246.959345 300.837432 
L 246.959345 300.837432 
L 246.959345 300.837432 
L 246.959345 300.837432 
L 246.959345 300.837432 
L 246.959345 300.837432 
L 246.959345 300.837432 
L 246.959345 300.837432 
L 246.959345 300.837432 
L 246.959345 300.837432 
L 246.959345 300.837432 
L 246.959345 300.837432 
L 246.959345 300.837432 
L 246.959345 300.837432 
L 246.959345 300.837432 
L 246.959345 300.837432 
L 246.959345 300.837432 
L 246.959345 300.837432 
L 246.959345 300.837432 
L 246.959345 300.837432 
L 246.959345 300.837432 
L 246.959345 300.837432 
L 246.959345 300.837432 
L 246.959345 300.837432 
L 246.959345 300.837432 
L 246.959345 300.837432 
L 246.959345 300.837432 
L 246.959345 300.837432 
L 246.959345 300.837432 
L 246.959345 300.837432 
L 246.959345 300.837432 
L 246.959345 300.837432 
L 246.959345 300.837432 
L 246.959345 300.837432 
L 246.959345 300.837432 
L 246.959345 300.837432 
L 246.959345 300.837432 
L 246.959345 300.837432 
L 246.959345 300.837432 
L 246.959345 300.837432 
L 246.959345 300.837432 
L 246.959345 300.837432 
L 246.959345 300.837432 
L 246.959345 300.837432 
L 246.959345 300.837432 
L 246.959345 300.837432 
L 246.959345 300.837432 
L 246.959345 300.837432 
L 246.959345 300.837432 
L 246.959345 300.837432 
L 246.959345 300.837432 
L 246.959345 300.837432 
L 246.959345 300.837432 
L 246.959345 300.837432 
L 246.959345 300.837432 
L 246.959345 300.837432 
L 246.959345 300.837432 
L 246.959345 300.837432 
L 246.959345 300.837432 
L 246.959345 300.837432 
L 246.959345 300.837432 
L 246.959345 300.837432 
L 246.959345 300.837432 
L 246.959345 300.837432 
L 246.959345 300.837432 
L 246.959345 300.837432 
L 246.959345 300.837432 
L 246.959345 300.837432 
L 246.959345 300.837432 
L 246.959345 300.837432 
L 246.959345 300.837432 
L 246.959345 300.837432 
L 246.959345 300.837432 
L 246.959345 300.837432 
L 246.959345 300.837432 
L 246.959345 300.837432 
L 246.959345 300.837432 
L 246.959345 300.837432 
L 246.959345 300.837432 
L 246.959345 300.837432 
L 246.959345 300.837432 
L 246.959345 300.837432 
L 246.959345 300.837432 
L 246.959345 300.837432 
L 246.959345 300.837432 
L 246.959345 300.837432 
L 246.959345 300.837432 
L 246.959345 300.837432 
L 246.959345 300.837432 
L 246.959345 300.837432 
L 246.959345 300.837432 
L 246.959345 300.837432 
z
" style="fill:#993333;stroke:#000000;stroke-linejoin:miter;"/>
   </g>
   <g id="patch_5">
    <path clip-path="url(#pdc0cf22cc7)" d="M 236.783438 232.569819 
L 235.540222 232.837394 
L 248.958346 295.181191 
L 250.201562 294.913616 
L 250.201562 294.913616 
L 250.201562 294.913616 
L 250.201562 294.913616 
L 250.201562 294.913616 
L 250.201562 294.913616 
L 250.201562 294.913616 
L 250.201562 294.913616 
L 250.201562 294.913616 
L 250.201562 294.913616 
L 250.201562 294.913616 
L 250.201562 294.913616 
L 250.201562 294.913616 
L 250.201562 294.913616 
L 250.201562 294.913616 
L 250.201562 294.913616 
L 250.201562 294.913616 
L 250.201562 294.913616 
L 250.201562 294.913616 
L 250.201562 294.913616 
L 250.201562 294.913616 
L 250.201562 294.913616 
L 250.201562 294.913616 
L 250.201562 294.913616 
L 250.201562 294.913616 
L 250.201562 294.913616 
L 250.201562 294.913616 
L 250.201562 294.913616 
L 250.201562 294.913616 
L 250.201562 294.913616 
L 250.201562 294.913616 
L 250.201562 294.913616 
L 250.201562 294.913616 
L 250.201562 294.913616 
L 250.201562 294.913616 
L 250.201562 294.913616 
L 250.201562 294.913616 
L 250.201562 294.913616 
L 250.201562 294.913616 
L 250.201562 294.913616 
L 250.201562 294.913616 
L 250.201562 294.913616 
L 250.201562 294.913616 
L 250.201562 294.913616 
L 250.201562 294.913616 
L 250.201562 294.913616 
L 250.201562 294.913616 
L 250.201562 294.913616 
L 250.201562 294.913616 
z
" style="stroke:#000000;stroke-linejoin:miter;"/>
   </g>
   <g id="text_1">
    <!-- t = 2.0 -->
    <defs>
     <path d="M 18.3125 70.21875 
L 18.3125 54.6875 
L 36.8125 54.6875 
L 36.8125 47.703125 
L 18.3125 47.703125 
L 18.3125 18.015625 
Q 18.3125 11.328125 20.140625 9.421875 
Q 21.96875 7.515625 27.59375 7.515625 
L 36.8125 7.515625 
L 36.8125 0 
L 27.59375 0 
Q 17.1875 0 13.234375 3.875 
Q 9.28125 7.765625 9.28125 18.015625 
L 9.28125 47.703125 
L 2.6875 47.703125 
L 2.6875 54.6875 
L 9.28125 54.6875 
L 9.28125 70.21875 
z
" id="DejaVuSans-116"/>
     <path id="DejaVuSans-32"/>
     <path d="M 10.59375 45.40625 
L 73.1875 45.40625 
L 73.1875 37.203125 
L 10.59375 37.203125 
z
M 10.59375 25.484375 
L 73.1875 25.484375 
L 73.1875 17.1875 
L 10.59375 17.1875 
z
" id="DejaVuSans-61"/>
     <path d="M 19.1875 8.296875 
L 53.609375 8.296875 
L 53.609375 0 
L 7.328125 0 
L 7.328125 8.296875 
Q 12.9375 14.109375 22.625 23.890625 
Q 32.328125 33.6875 34.8125 36.53125 
Q 39.546875 41.84375 41.421875 45.53125 
Q 43.3125 49.21875 43.3125 52.78125 
Q 43.3125 58.59375 39.234375 62.25 
Q 35.15625 65.921875 28.609375 65.921875 
Q 23.96875 65.921875 18.8125 64.3125 
Q 13.671875 62.703125 7.8125 59.421875 
L 7.8125 69.390625 
Q 13.765625 71.78125 18.9375 73 
Q 24.125 74.21875 28.421875 74.21875 
Q 39.75 74.21875 46.484375 68.546875 
Q 53.21875 62.890625 53.21875 53.421875 
Q 53.21875 48.921875 51.53125 44.890625 
Q 49.859375 40.875 45.40625 35.40625 
Q 44.1875 33.984375 37.640625 27.21875 
Q 31.109375 20.453125 19.1875 8.296875 
z
" id="DejaVuSans-50"/>
     <path d="M 10.6875 12.40625 
L 21 12.40625 
L 21 0 
L 10.6875 0 
z
" id="DejaVuSans-46"/>
     <path d="M 31.78125 66.40625 
Q 24.171875 66.40625 20.328125 58.90625 
Q 16.5 51.421875 16.5 36.375 
Q 16.5 21.390625 20.328125 13.890625 
Q 24.171875 6.390625 31.78125 6.390625 
Q 39.453125 6.390625 43.28125 13.890625 
Q 47.125 21.390625 47.125 36.375 
Q 47.125 51.421875 43.28125 58.90625 
Q 39.453125 66.40625 31.78125 66.40625 
z
M 31.78125 74.21875 
Q 44.046875 74.21875 50.515625 64.515625 
Q 56.984375 54.828125 56.984375 36.375 
Q 56.984375 17.96875 50.515625 8.265625 
Q 44.046875 -1.421875 31.78125 -1.421875 
Q 19.53125 -1.421875 13.0625 8.265625 
Q 6.59375 17.96875 6.59375 36.375 
Q 6.59375 54.828125 13.0625 64.515625 
Q 19.53125 74.21875 31.78125 74.21875 
z
" id="DejaVuSans-48"/>
    </defs>
    <g transform="translate(215.424375 49.296)scale(0.12 -0.12)">
     <use xlink:href="#DejaVuSans-116"/>
     <use x="39.208984" xlink:href="#DejaVuSans-32"/>
     <use x="70.996094" xlink:href="#DejaVuSans-61"/>
     <use x="154.785156" xlink:href="#DejaVuSans-32"/>
     <use x="186.572266" xlink:href="#DejaVuSans-50"/>
     <use x="250.195312" xlink:href="#DejaVuSans-46"/>
     <use x="281.982422" xlink:href="#DejaVuSans-48"/>
    </g>
   </g>
  </g>
 </g>
 <defs>
  <clipPath id="pdc0cf22cc7">
   <rect height="354.816" width="357.12" x="57.6" y="55.296"/>
  </clipPath>
 </defs>
</svg>
