<?xml version="1.0" encoding="utf-8" standalone="no"?>
<!DOCTYPE svg PUBLIC "-//W3C//DTD SVG 1.1//EN"
  "http://www.w3.org/Graphics/SVG/1.1/DTD/svg11.dtd">
<!-- Created with matplotlib (https://matplotlib.org/) -->
<svg height="460.8pt" version="1.1" viewBox="0 0 460.8 460.8" width="460.8pt" xmlns="http://www.w3.org/2000/svg" xmlns:xlink="http://www.w3.org/1999/xlink">
 <defs>
  <style type="text/css">
*{stroke-linecap:butt;stroke-linejoin:round;}
  </style>
 </defs>
 <g id="figure_1">
  <g id="patch_1">
   <path d="M 0 460.8 
L 460.8 460.8 
L 460.8 0 
L 0 0 
z
" style="fill:#ffffff;"/>
  </g>
  <g id="axes_1">
   <g id="patch_2">
    <path clip-path="url(#pe59cce9f3f)" d="M 215.284695 354.255586 
L 214.154895 355.686134 
L 213.690338 356.975006 
L 213.373956 358.743432 
L 213.579866 360.127533 
L 214.154363 361.800865 
L 214.980327 362.94132 
L 216.305047 364.109867 
L 217.548839 364.727453 
L 219.299445 365.105115 
L 220.656542 365.048624 
L 222.404423 364.542936 
L 223.54256 363.826201 
L 224.859774 362.560972 
L 225.500296 361.359473 
L 226.064344 359.644477 
L 226.050428 358.252383 
L 225.723211 356.50751 
L 225.058265 355.265655 
L 223.919897 353.91811 
L 222.766722 353.130543 
L 221.095915 352.510253 
L 219.30055 352.382779 
L 217.972584 352.635084 
L 216.30598 353.377506 
L 216.30598 353.377506 
L 216.30598 353.377506 
L 216.30598 353.377506 
L 216.30598 353.377506 
L 216.30598 353.377506 
L 216.30598 353.377506 
L 216.30598 353.377506 
L 216.30598 353.377506 
L 216.30598 353.377506 
L 216.30598 353.377506 
L 216.30598 353.377506 
L 216.30598 353.377506 
L 216.30598 353.377506 
L 216.30598 353.377506 
L 216.30598 353.377506 
L 216.30598 353.377506 
L 216.30598 353.377506 
L 216.30598 353.377506 
L 216.30598 353.377506 
L 216.30598 353.377506 
L 216.30598 353.377506 
L 216.30598 353.377506 
L 216.30598 353.377506 
L 216.30598 353.377506 
L 216.30598 353.377506 
L 216.30598 353.377506 
L 216.30598 353.377506 
L 216.30598 353.377506 
L 216.30598 353.377506 
L 216.30598 353.377506 
L 216.30598 353.377506 
L 216.30598 353.377506 
L 216.30598 353.377506 
L 216.30598 353.377506 
L 216.30598 353.377506 
L 216.30598 353.377506 
L 216.30598 353.377506 
L 216.30598 353.377506 
L 216.30598 353.377506 
L 216.30598 353.377506 
L 216.30598 353.377506 
L 216.30598 353.377506 
L 216.30598 353.377506 
L 216.30598 353.377506 
L 216.30598 353.377506 
L 216.30598 353.377506 
L 216.30598 353.377506 
L 216.30598 353.377506 
L 216.30598 353.377506 
L 216.30598 353.377506 
L 216.30598 353.377506 
L 216.30598 353.377506 
L 216.30598 353.377506 
L 216.30598 353.377506 
L 216.30598 353.377506 
L 216.30598 353.377506 
L 216.30598 353.377506 
L 216.30598 353.377506 
L 216.30598 353.377506 
L 216.30598 353.377506 
L 216.30598 353.377506 
L 216.30598 353.377506 
L 216.30598 353.377506 
L 216.30598 353.377506 
L 216.30598 353.377506 
L 216.30598 353.377506 
L 216.30598 353.377506 
L 216.30598 353.377506 
L 216.30598 353.377506 
L 216.30598 353.377506 
L 216.30598 353.377506 
L 216.30598 353.377506 
L 216.30598 353.377506 
L 216.30598 353.377506 
L 216.30598 353.377506 
L 216.30598 353.377506 
L 216.30598 353.377506 
L 216.30598 353.377506 
L 216.30598 353.377506 
L 216.30598 353.377506 
L 216.30598 353.377506 
L 216.30598 353.377506 
L 216.30598 353.377506 
L 216.30598 353.377506 
L 216.30598 353.377506 
L 216.30598 353.377506 
L 216.30598 353.377506 
L 216.30598 353.377506 
L 216.30598 353.377506 
L 216.30598 353.377506 
L 216.30598 353.377506 
L 216.30598 353.377506 
L 216.30598 353.377506 
L 216.30598 353.377506 
L 216.30598 353.377506 
L 216.30598 353.377506 
L 216.30598 353.377506 
L 216.30598 353.377506 
L 216.30598 353.377506 
L 216.30598 353.377506 
L 216.30598 353.377506 
L 216.30598 353.377506 
L 216.30598 353.377506 
L 216.30598 353.377506 
L 216.30598 353.377506 
L 216.30598 353.377506 
L 216.30598 353.377506 
L 216.30598 353.377506 
L 216.30598 353.377506 
L 216.30598 353.377506 
L 216.30598 353.377506 
L 216.30598 353.377506 
L 216.30598 353.377506 
L 216.30598 353.377506 
L 216.30598 353.377506 
L 216.30598 353.377506 
L 216.30598 353.377506 
L 216.30598 353.377506 
L 216.30598 353.377506 
L 216.30598 353.377506 
L 216.30598 353.377506 
L 216.30598 353.377506 
L 216.30598 353.377506 
L 216.30598 353.377506 
L 216.30598 353.377506 
L 216.30598 353.377506 
L 216.30598 353.377506 
L 216.30598 353.377506 
L 216.30598 353.377506 
L 216.30598 353.377506 
L 216.30598 353.377506 
L 216.30598 353.377506 
L 216.30598 353.377506 
L 216.30598 353.377506 
L 216.30598 353.377506 
L 216.30598 353.377506 
L 216.30598 353.377506 
L 216.30598 353.377506 
L 216.30598 353.377506 
L 216.30598 353.377506 
L 216.30598 353.377506 
L 216.30598 353.377506 
L 216.30598 353.377506 
L 216.30598 353.377506 
z
" style="fill:#993333;stroke:#000000;stroke-linejoin:miter;"/>
   </g>
   <g id="patch_3">
    <path clip-path="url(#pe59cce9f3f)" d="M 232.57955 296.27297 
L 219.131385 358.610294 
L 220.374472 358.878467 
L 233.822638 296.541144 
L 233.822638 296.541144 
L 233.822638 296.541144 
L 233.822638 296.541144 
L 233.822638 296.541144 
L 233.822638 296.541144 
L 233.822638 296.541144 
L 233.822638 296.541144 
L 233.822638 296.541144 
L 233.822638 296.541144 
L 233.822638 296.541144 
L 233.822638 296.541144 
L 233.822638 296.541144 
L 233.822638 296.541144 
L 233.822638 296.541144 
L 233.822638 296.541144 
L 233.822638 296.541144 
L 233.822638 296.541144 
L 233.822638 296.541144 
L 233.822638 296.541144 
L 233.822638 296.541144 
L 233.822638 296.541144 
L 233.822638 296.541144 
L 233.822638 296.541144 
L 233.822638 296.541144 
L 233.822638 296.541144 
L 233.822638 296.541144 
L 233.822638 296.541144 
L 233.822638 296.541144 
L 233.822638 296.541144 
L 233.822638 296.541144 
L 233.822638 296.541144 
L 233.822638 296.541144 
L 233.822638 296.541144 
L 233.822638 296.541144 
L 233.822638 296.541144 
L 233.822638 296.541144 
L 233.822638 296.541144 
L 233.822638 296.541144 
L 233.822638 296.541144 
L 233.822638 296.541144 
L 233.822638 296.541144 
L 233.822638 296.541144 
L 233.822638 296.541144 
L 233.822638 296.541144 
L 233.822638 296.541144 
L 233.822638 296.541144 
L 233.822638 296.541144 
L 233.822638 296.541144 
z
" style="stroke:#000000;stroke-linejoin:miter;"/>
   </g>
   <g id="patch_4">
    <path clip-path="url(#pe59cce9f3f)" d="M 233.495338 290.036396 
L 231.703594 290.207394 
L 230.435589 290.675703 
L 228.914603 291.683355 
L 228.052483 292.718148 
L 227.174646 294.315746 
L 226.92949 295.663671 
L 226.909726 297.460067 
L 227.341556 298.791103 
L 228.184704 300.346477 
L 229.187793 301.334742 
L 230.687422 302.268283 
L 232.016178 302.671814 
L 233.805126 302.75496 
L 235.134224 302.474959 
L 236.774494 301.687352 
L 237.778525 300.792373 
L 238.868521 299.326847 
L 239.301662 298.036012 
L 239.574516 296.251379 
L 239.33072 294.880729 
L 238.719628 293.21393 
L 237.858584 292.099048 
L 236.513162 290.958173 
L 235.245684 290.372021 
L 235.245684 290.372021 
L 235.245684 290.372021 
L 235.245684 290.372021 
L 235.245684 290.372021 
L 235.245684 290.372021 
L 235.245684 290.372021 
L 235.245684 290.372021 
L 235.245684 290.372021 
L 235.245684 290.372021 
L 235.245684 290.372021 
L 235.245684 290.372021 
L 235.245684 290.372021 
L 235.245684 290.372021 
L 235.245684 290.372021 
L 235.245684 290.372021 
L 235.245684 290.372021 
L 235.245684 290.372021 
L 235.245684 290.372021 
L 235.245684 290.372021 
L 235.245684 290.372021 
L 235.245684 290.372021 
L 235.245684 290.372021 
L 235.245684 290.372021 
L 235.245684 290.372021 
L 235.245684 290.372021 
L 235.245684 290.372021 
L 235.245684 290.372021 
L 235.245684 290.372021 
L 235.245684 290.372021 
L 235.245684 290.372021 
L 235.245684 290.372021 
L 235.245684 290.372021 
L 235.245684 290.372021 
L 235.245684 290.372021 
L 235.245684 290.372021 
L 235.245684 290.372021 
L 235.245684 290.372021 
L 235.245684 290.372021 
L 235.245684 290.372021 
L 235.245684 290.372021 
L 235.245684 290.372021 
L 235.245684 290.372021 
L 235.245684 290.372021 
L 235.245684 290.372021 
L 235.245684 290.372021 
L 235.245684 290.372021 
L 235.245684 290.372021 
L 235.245684 290.372021 
L 235.245684 290.372021 
L 235.245684 290.372021 
L 235.245684 290.372021 
L 235.245684 290.372021 
L 235.245684 290.372021 
L 235.245684 290.372021 
L 235.245684 290.372021 
L 235.245684 290.372021 
L 235.245684 290.372021 
L 235.245684 290.372021 
L 235.245684 290.372021 
L 235.245684 290.372021 
L 235.245684 290.372021 
L 235.245684 290.372021 
L 235.245684 290.372021 
L 235.245684 290.372021 
L 235.245684 290.372021 
L 235.245684 290.372021 
L 235.245684 290.372021 
L 235.245684 290.372021 
L 235.245684 290.372021 
L 235.245684 290.372021 
L 235.245684 290.372021 
L 235.245684 290.372021 
L 235.245684 290.372021 
L 235.245684 290.372021 
L 235.245684 290.372021 
L 235.245684 290.372021 
L 235.245684 290.372021 
L 235.245684 290.372021 
L 235.245684 290.372021 
L 235.245684 290.372021 
L 235.245684 290.372021 
L 235.245684 290.372021 
L 235.245684 290.372021 
L 235.245684 290.372021 
L 235.245684 290.372021 
L 235.245684 290.372021 
L 235.245684 290.372021 
L 235.245684 290.372021 
L 235.245684 290.372021 
L 235.245684 290.372021 
L 235.245684 290.372021 
L 235.245684 290.372021 
L 235.245684 290.372021 
L 235.245684 290.372021 
L 235.245684 290.372021 
L 235.245684 290.372021 
L 235.245684 290.372021 
L 235.245684 290.372021 
L 235.245684 290.372021 
L 235.245684 290.372021 
L 235.245684 290.372021 
L 235.245684 290.372021 
L 235.245684 290.372021 
L 235.245684 290.372021 
L 235.245684 290.372021 
L 235.245684 290.372021 
L 235.245684 290.372021 
L 235.245684 290.372021 
L 235.245684 290.372021 
L 235.245684 290.372021 
L 235.245684 290.372021 
L 235.245684 290.372021 
L 235.245684 290.372021 
L 235.245684 290.372021 
L 235.245684 290.372021 
L 235.245684 290.372021 
L 235.245684 290.372021 
L 235.245684 290.372021 
L 235.245684 290.372021 
L 235.245684 290.372021 
L 235.245684 290.372021 
L 235.245684 290.372021 
L 235.245684 290.372021 
L 235.245684 290.372021 
L 235.245684 290.372021 
L 235.245684 290.372021 
L 235.245684 290.372021 
L 235.245684 290.372021 
L 235.245684 290.372021 
L 235.245684 290.372021 
L 235.245684 290.372021 
L 235.245684 290.372021 
L 235.245684 290.372021 
L 235.245684 290.372021 
L 235.245684 290.372021 
L 235.245684 290.372021 
L 235.245684 290.372021 
L 235.245684 290.372021 
L 235.245684 290.372021 
L 235.245684 290.372021 
L 235.245684 290.372021 
L 235.245684 290.372021 
L 235.245684 290.372021 
L 235.245684 290.372021 
z
" style="fill:#993333;stroke:#000000;stroke-linejoin:miter;"/>
   </g>
   <g id="patch_5">
    <path clip-path="url(#pe59cce9f3f)" d="M 235.526713 232.674566 
L 232.565977 296.377228 
L 233.836291 296.436269 
L 236.797027 232.733607 
L 236.797027 232.733607 
L 236.797027 232.733607 
L 236.797027 232.733607 
L 236.797027 232.733607 
L 236.797027 232.733607 
L 236.797027 232.733607 
L 236.797027 232.733607 
L 236.797027 232.733607 
L 236.797027 232.733607 
L 236.797027 232.733607 
L 236.797027 232.733607 
L 236.797027 232.733607 
L 236.797027 232.733607 
L 236.797027 232.733607 
L 236.797027 232.733607 
L 236.797027 232.733607 
L 236.797027 232.733607 
L 236.797027 232.733607 
L 236.797027 232.733607 
L 236.797027 232.733607 
L 236.797027 232.733607 
L 236.797027 232.733607 
L 236.797027 232.733607 
L 236.797027 232.733607 
L 236.797027 232.733607 
L 236.797027 232.733607 
L 236.797027 232.733607 
L 236.797027 232.733607 
L 236.797027 232.733607 
L 236.797027 232.733607 
L 236.797027 232.733607 
L 236.797027 232.733607 
L 236.797027 232.733607 
L 236.797027 232.733607 
L 236.797027 232.733607 
L 236.797027 232.733607 
L 236.797027 232.733607 
L 236.797027 232.733607 
L 236.797027 232.733607 
L 236.797027 232.733607 
L 236.797027 232.733607 
L 236.797027 232.733607 
L 236.797027 232.733607 
L 236.797027 232.733607 
L 236.797027 232.733607 
L 236.797027 232.733607 
L 236.797027 232.733607 
L 236.797027 232.733607 
z
" style="stroke:#000000;stroke-linejoin:miter;"/>
   </g>
   <g id="text_1">
    <!-- t = 7.9 -->
    <defs>
     <path d="M 18.3125 70.21875 
L 18.3125 54.6875 
L 36.8125 54.6875 
L 36.8125 47.703125 
L 18.3125 47.703125 
L 18.3125 18.015625 
Q 18.3125 11.328125 20.140625 9.421875 
Q 21.96875 7.515625 27.59375 7.515625 
L 36.8125 7.515625 
L 36.8125 0 
L 27.59375 0 
Q 17.1875 0 13.234375 3.875 
Q 9.28125 7.765625 9.28125 18.015625 
L 9.28125 47.703125 
L 2.6875 47.703125 
L 2.6875 54.6875 
L 9.28125 54.6875 
L 9.28125 70.21875 
z
" id="DejaVuSans-116"/>
     <path id="DejaVuSans-32"/>
     <path d="M 10.59375 45.40625 
L 73.1875 45.40625 
L 73.1875 37.203125 
L 10.59375 37.203125 
z
M 10.59375 25.484375 
L 73.1875 25.484375 
L 73.1875 17.1875 
L 10.59375 17.1875 
z
" id="DejaVuSans-61"/>
     <path d="M 8.203125 72.90625 
L 55.078125 72.90625 
L 55.078125 68.703125 
L 28.609375 0 
L 18.3125 0 
L 43.21875 64.59375 
L 8.203125 64.59375 
z
" id="DejaVuSans-55"/>
     <path d="M 10.6875 12.40625 
L 21 12.40625 
L 21 0 
L 10.6875 0 
z
" id="DejaVuSans-46"/>
     <path d="M 10.984375 1.515625 
L 10.984375 10.5 
Q 14.703125 8.734375 18.5 7.8125 
Q 22.3125 6.890625 25.984375 6.890625 
Q 35.75 6.890625 40.890625 13.453125 
Q 46.046875 20.015625 46.78125 33.40625 
Q 43.953125 29.203125 39.59375 26.953125 
Q 35.25 24.703125 29.984375 24.703125 
Q 19.046875 24.703125 12.671875 31.3125 
Q 6.296875 37.9375 6.296875 49.421875 
Q 6.296875 60.640625 12.9375 67.421875 
Q 19.578125 74.21875 30.609375 74.21875 
Q 43.265625 74.21875 49.921875 64.515625 
Q 56.59375 54.828125 56.59375 36.375 
Q 56.59375 19.140625 48.40625 8.859375 
Q 40.234375 -1.421875 26.421875 -1.421875 
Q 22.703125 -1.421875 18.890625 -0.6875 
Q 15.09375 0.046875 10.984375 1.515625 
z
M 30.609375 32.421875 
Q 37.25 32.421875 41.125 36.953125 
Q 45.015625 41.5 45.015625 49.421875 
Q 45.015625 57.28125 41.125 61.84375 
Q 37.25 66.40625 30.609375 66.40625 
Q 23.96875 66.40625 20.09375 61.84375 
Q 16.21875 57.28125 16.21875 49.421875 
Q 16.21875 41.5 20.09375 36.953125 
Q 23.96875 32.421875 30.609375 32.421875 
z
" id="DejaVuSans-57"/>
    </defs>
    <g transform="translate(215.424375 49.296)scale(0.12 -0.12)">
     <use xlink:href="#DejaVuSans-116"/>
     <use x="39.208984" xlink:href="#DejaVuSans-32"/>
     <use x="70.996094" xlink:href="#DejaVuSans-61"/>
     <use x="154.785156" xlink:href="#DejaVuSans-32"/>
     <use x="186.572266" xlink:href="#DejaVuSans-55"/>
     <use x="250.195312" xlink:href="#DejaVuSans-46"/>
     <use x="281.982422" xlink:href="#DejaVuSans-57"/>
    </g>
   </g>
  </g>
 </g>
 <defs>
  <clipPath id="pe59cce9f3f">
   <rect height="354.816" width="357.12" x="57.6" y="55.296"/>
  </clipPath>
 </defs>
</svg>
