<?xml version="1.0" encoding="utf-8" standalone="no"?>
<!DOCTYPE svg PUBLIC "-//W3C//DTD SVG 1.1//EN"
  "http://www.w3.org/Graphics/SVG/1.1/DTD/svg11.dtd">
<!-- Created with matplotlib (https://matplotlib.org/) -->
<svg height="460.8pt" version="1.1" viewBox="0 0 460.8 460.8" width="460.8pt" xmlns="http://www.w3.org/2000/svg" xmlns:xlink="http://www.w3.org/1999/xlink">
 <defs>
  <style type="text/css">
*{stroke-linecap:butt;stroke-linejoin:round;}
  </style>
 </defs>
 <g id="figure_1">
  <g id="patch_1">
   <path d="M 0 460.8 
L 460.8 460.8 
L 460.8 0 
L 0 0 
z
" style="fill:#ffffff;"/>
  </g>
  <g id="axes_1">
   <g id="patch_2">
    <path clip-path="url(#peb2eee1c6b)" d="M 114.035664 285.783006 
L 114.202719 287.161601 
L 114.848634 288.831943 
L 115.64122 289.934989 
L 117.02382 291.117878 
L 118.247884 291.67531 
L 120.028661 292.081134 
L 121.38451 291.956475 
L 123.127467 291.485874 
L 124.283142 290.709644 
L 125.561542 289.477837 
L 126.234093 288.240084 
L 126.73494 286.548661 
L 126.759702 285.15243 
L 126.360371 283.415511 
L 125.480801 281.845179 
L 124.54058 280.874028 
L 123.004791 279.889083 
L 121.710078 279.517918 
L 119.894087 279.35951 
L 118.561871 279.679205 
L 116.910295 280.386116 
L 115.866751 281.3184 
L 114.783953 282.717554 
L 114.284576 284.03417 
L 114.284576 284.03417 
L 114.284576 284.03417 
L 114.284576 284.03417 
L 114.284576 284.03417 
L 114.284576 284.03417 
L 114.284576 284.03417 
L 114.284576 284.03417 
L 114.284576 284.03417 
L 114.284576 284.03417 
L 114.284576 284.03417 
L 114.284576 284.03417 
L 114.284576 284.03417 
L 114.284576 284.03417 
L 114.284576 284.03417 
L 114.284576 284.03417 
L 114.284576 284.03417 
L 114.284576 284.03417 
L 114.284576 284.03417 
L 114.284576 284.03417 
L 114.284576 284.03417 
L 114.284576 284.03417 
L 114.284576 284.03417 
L 114.284576 284.03417 
L 114.284576 284.03417 
L 114.284576 284.03417 
L 114.284576 284.03417 
L 114.284576 284.03417 
L 114.284576 284.03417 
L 114.284576 284.03417 
L 114.284576 284.03417 
L 114.284576 284.03417 
L 114.284576 284.03417 
L 114.284576 284.03417 
L 114.284576 284.03417 
L 114.284576 284.03417 
L 114.284576 284.03417 
L 114.284576 284.03417 
L 114.284576 284.03417 
L 114.284576 284.03417 
L 114.284576 284.03417 
L 114.284576 284.03417 
L 114.284576 284.03417 
L 114.284576 284.03417 
L 114.284576 284.03417 
L 114.284576 284.03417 
L 114.284576 284.03417 
L 114.284576 284.03417 
L 114.284576 284.03417 
L 114.284576 284.03417 
L 114.284576 284.03417 
L 114.284576 284.03417 
L 114.284576 284.03417 
L 114.284576 284.03417 
L 114.284576 284.03417 
L 114.284576 284.03417 
L 114.284576 284.03417 
L 114.284576 284.03417 
L 114.284576 284.03417 
L 114.284576 284.03417 
L 114.284576 284.03417 
L 114.284576 284.03417 
L 114.284576 284.03417 
L 114.284576 284.03417 
L 114.284576 284.03417 
L 114.284576 284.03417 
L 114.284576 284.03417 
L 114.284576 284.03417 
L 114.284576 284.03417 
L 114.284576 284.03417 
L 114.284576 284.03417 
L 114.284576 284.03417 
L 114.284576 284.03417 
L 114.284576 284.03417 
L 114.284576 284.03417 
L 114.284576 284.03417 
L 114.284576 284.03417 
L 114.284576 284.03417 
L 114.284576 284.03417 
L 114.284576 284.03417 
L 114.284576 284.03417 
L 114.284576 284.03417 
L 114.284576 284.03417 
L 114.284576 284.03417 
L 114.284576 284.03417 
L 114.284576 284.03417 
L 114.284576 284.03417 
L 114.284576 284.03417 
L 114.284576 284.03417 
L 114.284576 284.03417 
L 114.284576 284.03417 
L 114.284576 284.03417 
L 114.284576 284.03417 
L 114.284576 284.03417 
L 114.284576 284.03417 
L 114.284576 284.03417 
L 114.284576 284.03417 
L 114.284576 284.03417 
L 114.284576 284.03417 
L 114.284576 284.03417 
L 114.284576 284.03417 
L 114.284576 284.03417 
L 114.284576 284.03417 
L 114.284576 284.03417 
L 114.284576 284.03417 
L 114.284576 284.03417 
L 114.284576 284.03417 
L 114.284576 284.03417 
L 114.284576 284.03417 
L 114.284576 284.03417 
L 114.284576 284.03417 
L 114.284576 284.03417 
L 114.284576 284.03417 
L 114.284576 284.03417 
L 114.284576 284.03417 
L 114.284576 284.03417 
L 114.284576 284.03417 
L 114.284576 284.03417 
L 114.284576 284.03417 
L 114.284576 284.03417 
L 114.284576 284.03417 
L 114.284576 284.03417 
L 114.284576 284.03417 
L 114.284576 284.03417 
L 114.284576 284.03417 
L 114.284576 284.03417 
L 114.284576 284.03417 
L 114.284576 284.03417 
L 114.284576 284.03417 
L 114.284576 284.03417 
L 114.284576 284.03417 
L 114.284576 284.03417 
L 114.284576 284.03417 
L 114.284576 284.03417 
L 114.284576 284.03417 
L 114.284576 284.03417 
L 114.284576 284.03417 
L 114.284576 284.03417 
L 114.284576 284.03417 
L 114.284576 284.03417 
L 114.284576 284.03417 
L 114.284576 284.03417 
L 114.284576 284.03417 
L 114.284576 284.03417 
L 114.284576 284.03417 
z
" style="fill:#993333;stroke:#000000;stroke-linejoin:miter;"/>
   </g>
   <g id="patch_3">
    <path clip-path="url(#peb2eee1c6b)" d="M 120.183796 285.12425 
L 120.642454 286.310342 
L 180.121669 263.309949 
L 179.663011 262.123856 
L 179.663011 262.123856 
L 179.663011 262.123856 
L 179.663011 262.123856 
L 179.663011 262.123856 
L 179.663011 262.123856 
L 179.663011 262.123856 
L 179.663011 262.123856 
L 179.663011 262.123856 
L 179.663011 262.123856 
L 179.663011 262.123856 
L 179.663011 262.123856 
L 179.663011 262.123856 
L 179.663011 262.123856 
L 179.663011 262.123856 
L 179.663011 262.123856 
L 179.663011 262.123856 
L 179.663011 262.123856 
L 179.663011 262.123856 
L 179.663011 262.123856 
L 179.663011 262.123856 
L 179.663011 262.123856 
L 179.663011 262.123856 
L 179.663011 262.123856 
L 179.663011 262.123856 
L 179.663011 262.123856 
L 179.663011 262.123856 
L 179.663011 262.123856 
L 179.663011 262.123856 
L 179.663011 262.123856 
L 179.663011 262.123856 
L 179.663011 262.123856 
L 179.663011 262.123856 
L 179.663011 262.123856 
L 179.663011 262.123856 
L 179.663011 262.123856 
L 179.663011 262.123856 
L 179.663011 262.123856 
L 179.663011 262.123856 
L 179.663011 262.123856 
L 179.663011 262.123856 
L 179.663011 262.123856 
L 179.663011 262.123856 
L 179.663011 262.123856 
L 179.663011 262.123856 
L 179.663011 262.123856 
L 179.663011 262.123856 
L 179.663011 262.123856 
L 179.663011 262.123856 
z
" style="stroke:#000000;stroke-linejoin:miter;"/>
   </g>
   <g id="patch_4">
    <path clip-path="url(#peb2eee1c6b)" d="M 180.431776 256.406214 
L 178.609942 256.468146 
L 177.326052 256.946297 
L 175.771871 257.84738 
L 174.848478 258.898799 
L 173.942469 260.418415 
L 173.605653 261.785679 
L 173.569638 263.551773 
L 173.901862 264.900127 
L 174.744659 266.480298 
L 175.664584 267.479618 
L 177.179847 268.486985 
L 178.462243 268.892603 
L 180.278982 269.080527 
L 181.609874 268.793133 
L 183.283289 268.115605 
L 184.336827 267.205564 
L 185.457208 265.828464 
L 185.97545 264.518585 
L 186.268487 262.779078 
L 186.124549 261.390065 
L 185.518498 259.714041 
L 184.455825 258.26135 
L 183.405263 257.410779 
L 181.761823 256.618399 
L 181.761823 256.618399 
L 181.761823 256.618399 
L 181.761823 256.618399 
L 181.761823 256.618399 
L 181.761823 256.618399 
L 181.761823 256.618399 
L 181.761823 256.618399 
L 181.761823 256.618399 
L 181.761823 256.618399 
L 181.761823 256.618399 
L 181.761823 256.618399 
L 181.761823 256.618399 
L 181.761823 256.618399 
L 181.761823 256.618399 
L 181.761823 256.618399 
L 181.761823 256.618399 
L 181.761823 256.618399 
L 181.761823 256.618399 
L 181.761823 256.618399 
L 181.761823 256.618399 
L 181.761823 256.618399 
L 181.761823 256.618399 
L 181.761823 256.618399 
L 181.761823 256.618399 
L 181.761823 256.618399 
L 181.761823 256.618399 
L 181.761823 256.618399 
L 181.761823 256.618399 
L 181.761823 256.618399 
L 181.761823 256.618399 
L 181.761823 256.618399 
L 181.761823 256.618399 
L 181.761823 256.618399 
L 181.761823 256.618399 
L 181.761823 256.618399 
L 181.761823 256.618399 
L 181.761823 256.618399 
L 181.761823 256.618399 
L 181.761823 256.618399 
L 181.761823 256.618399 
L 181.761823 256.618399 
L 181.761823 256.618399 
L 181.761823 256.618399 
L 181.761823 256.618399 
L 181.761823 256.618399 
L 181.761823 256.618399 
L 181.761823 256.618399 
L 181.761823 256.618399 
L 181.761823 256.618399 
L 181.761823 256.618399 
L 181.761823 256.618399 
L 181.761823 256.618399 
L 181.761823 256.618399 
L 181.761823 256.618399 
L 181.761823 256.618399 
L 181.761823 256.618399 
L 181.761823 256.618399 
L 181.761823 256.618399 
L 181.761823 256.618399 
L 181.761823 256.618399 
L 181.761823 256.618399 
L 181.761823 256.618399 
L 181.761823 256.618399 
L 181.761823 256.618399 
L 181.761823 256.618399 
L 181.761823 256.618399 
L 181.761823 256.618399 
L 181.761823 256.618399 
L 181.761823 256.618399 
L 181.761823 256.618399 
L 181.761823 256.618399 
L 181.761823 256.618399 
L 181.761823 256.618399 
L 181.761823 256.618399 
L 181.761823 256.618399 
L 181.761823 256.618399 
L 181.761823 256.618399 
L 181.761823 256.618399 
L 181.761823 256.618399 
L 181.761823 256.618399 
L 181.761823 256.618399 
L 181.761823 256.618399 
L 181.761823 256.618399 
L 181.761823 256.618399 
L 181.761823 256.618399 
L 181.761823 256.618399 
L 181.761823 256.618399 
L 181.761823 256.618399 
L 181.761823 256.618399 
L 181.761823 256.618399 
L 181.761823 256.618399 
L 181.761823 256.618399 
L 181.761823 256.618399 
L 181.761823 256.618399 
L 181.761823 256.618399 
L 181.761823 256.618399 
L 181.761823 256.618399 
L 181.761823 256.618399 
L 181.761823 256.618399 
L 181.761823 256.618399 
L 181.761823 256.618399 
L 181.761823 256.618399 
L 181.761823 256.618399 
L 181.761823 256.618399 
L 181.761823 256.618399 
L 181.761823 256.618399 
L 181.761823 256.618399 
L 181.761823 256.618399 
L 181.761823 256.618399 
L 181.761823 256.618399 
L 181.761823 256.618399 
L 181.761823 256.618399 
L 181.761823 256.618399 
L 181.761823 256.618399 
L 181.761823 256.618399 
L 181.761823 256.618399 
L 181.761823 256.618399 
L 181.761823 256.618399 
L 181.761823 256.618399 
L 181.761823 256.618399 
L 181.761823 256.618399 
L 181.761823 256.618399 
L 181.761823 256.618399 
L 181.761823 256.618399 
L 181.761823 256.618399 
L 181.761823 256.618399 
L 181.761823 256.618399 
L 181.761823 256.618399 
L 181.761823 256.618399 
L 181.761823 256.618399 
L 181.761823 256.618399 
L 181.761823 256.618399 
L 181.761823 256.618399 
L 181.761823 256.618399 
L 181.761823 256.618399 
L 181.761823 256.618399 
L 181.761823 256.618399 
L 181.761823 256.618399 
L 181.761823 256.618399 
L 181.761823 256.618399 
L 181.761823 256.618399 
L 181.761823 256.618399 
L 181.761823 256.618399 
L 181.761823 256.618399 
z
" style="fill:#993333;stroke:#000000;stroke-linejoin:miter;"/>
   </g>
   <g id="patch_5">
    <path clip-path="url(#peb2eee1c6b)" d="M 235.86165 232.14462 
L 179.593315 262.155777 
L 180.191776 263.27784 
L 236.460112 233.266683 
L 236.460112 233.266683 
L 236.460112 233.266683 
L 236.460112 233.266683 
L 236.460112 233.266683 
L 236.460112 233.266683 
L 236.460112 233.266683 
L 236.460112 233.266683 
L 236.460112 233.266683 
L 236.460112 233.266683 
L 236.460112 233.266683 
L 236.460112 233.266683 
L 236.460112 233.266683 
L 236.460112 233.266683 
L 236.460112 233.266683 
L 236.460112 233.266683 
L 236.460112 233.266683 
L 236.460112 233.266683 
L 236.460112 233.266683 
L 236.460112 233.266683 
L 236.460112 233.266683 
L 236.460112 233.266683 
L 236.460112 233.266683 
L 236.460112 233.266683 
L 236.460112 233.266683 
L 236.460112 233.266683 
L 236.460112 233.266683 
L 236.460112 233.266683 
L 236.460112 233.266683 
L 236.460112 233.266683 
L 236.460112 233.266683 
L 236.460112 233.266683 
L 236.460112 233.266683 
L 236.460112 233.266683 
L 236.460112 233.266683 
L 236.460112 233.266683 
L 236.460112 233.266683 
L 236.460112 233.266683 
L 236.460112 233.266683 
L 236.460112 233.266683 
L 236.460112 233.266683 
L 236.460112 233.266683 
L 236.460112 233.266683 
L 236.460112 233.266683 
L 236.460112 233.266683 
L 236.460112 233.266683 
L 236.460112 233.266683 
L 236.460112 233.266683 
L 236.460112 233.266683 
z
" style="stroke:#000000;stroke-linejoin:miter;"/>
   </g>
   <g id="text_1">
    <!-- t = 2.7 -->
    <defs>
     <path d="M 18.3125 70.21875 
L 18.3125 54.6875 
L 36.8125 54.6875 
L 36.8125 47.703125 
L 18.3125 47.703125 
L 18.3125 18.015625 
Q 18.3125 11.328125 20.140625 9.421875 
Q 21.96875 7.515625 27.59375 7.515625 
L 36.8125 7.515625 
L 36.8125 0 
L 27.59375 0 
Q 17.1875 0 13.234375 3.875 
Q 9.28125 7.765625 9.28125 18.015625 
L 9.28125 47.703125 
L 2.6875 47.703125 
L 2.6875 54.6875 
L 9.28125 54.6875 
L 9.28125 70.21875 
z
" id="DejaVuSans-116"/>
     <path id="DejaVuSans-32"/>
     <path d="M 10.59375 45.40625 
L 73.1875 45.40625 
L 73.1875 37.203125 
L 10.59375 37.203125 
z
M 10.59375 25.484375 
L 73.1875 25.484375 
L 73.1875 17.1875 
L 10.59375 17.1875 
z
" id="DejaVuSans-61"/>
     <path d="M 19.1875 8.296875 
L 53.609375 8.296875 
L 53.609375 0 
L 7.328125 0 
L 7.328125 8.296875 
Q 12.9375 14.109375 22.625 23.890625 
Q 32.328125 33.6875 34.8125 36.53125 
Q 39.546875 41.84375 41.421875 45.53125 
Q 43.3125 49.21875 43.3125 52.78125 
Q 43.3125 58.59375 39.234375 62.25 
Q 35.15625 65.921875 28.609375 65.921875 
Q 23.96875 65.921875 18.8125 64.3125 
Q 13.671875 62.703125 7.8125 59.421875 
L 7.8125 69.390625 
Q 13.765625 71.78125 18.9375 73 
Q 24.125 74.21875 28.421875 74.21875 
Q 39.75 74.21875 46.484375 68.546875 
Q 53.21875 62.890625 53.21875 53.421875 
Q 53.21875 48.921875 51.53125 44.890625 
Q 49.859375 40.875 45.40625 35.40625 
Q 44.1875 33.984375 37.640625 27.21875 
Q 31.109375 20.453125 19.1875 8.296875 
z
" id="DejaVuSans-50"/>
     <path d="M 10.6875 12.40625 
L 21 12.40625 
L 21 0 
L 10.6875 0 
z
" id="DejaVuSans-46"/>
     <path d="M 8.203125 72.90625 
L 55.078125 72.90625 
L 55.078125 68.703125 
L 28.609375 0 
L 18.3125 0 
L 43.21875 64.59375 
L 8.203125 64.59375 
z
" id="DejaVuSans-55"/>
    </defs>
    <g transform="translate(215.424375 49.296)scale(0.12 -0.12)">
     <use xlink:href="#DejaVuSans-116"/>
     <use x="39.208984" xlink:href="#DejaVuSans-32"/>
     <use x="70.996094" xlink:href="#DejaVuSans-61"/>
     <use x="154.785156" xlink:href="#DejaVuSans-32"/>
     <use x="186.572266" xlink:href="#DejaVuSans-50"/>
     <use x="250.195312" xlink:href="#DejaVuSans-46"/>
     <use x="281.982422" xlink:href="#DejaVuSans-55"/>
    </g>
   </g>
  </g>
 </g>
 <defs>
  <clipPath id="peb2eee1c6b">
   <rect height="354.816" width="357.12" x="57.6" y="55.296"/>
  </clipPath>
 </defs>
</svg>
