<?xml version="1.0" encoding="utf-8" standalone="no"?>
<!DOCTYPE svg PUBLIC "-//W3C//DTD SVG 1.1//EN"
  "http://www.w3.org/Graphics/SVG/1.1/DTD/svg11.dtd">
<!-- Created with matplotlib (https://matplotlib.org/) -->
<svg height="460.8pt" version="1.1" viewBox="0 0 460.8 460.8" width="460.8pt" xmlns="http://www.w3.org/2000/svg" xmlns:xlink="http://www.w3.org/1999/xlink">
 <defs>
  <style type="text/css">
*{stroke-linecap:butt;stroke-linejoin:round;}
  </style>
 </defs>
 <g id="figure_1">
  <g id="patch_1">
   <path d="M 0 460.8 
L 460.8 460.8 
L 460.8 0 
L 0 0 
z
" style="fill:#ffffff;"/>
  </g>
  <g id="axes_1">
   <g id="patch_2">
    <path clip-path="url(#pf3e9fdde1c)" d="M 113.394202 276.776989 
L 112.414968 278.250484 
L 112.011696 279.599641 
L 111.889363 281.361862 
L 112.155257 282.724848 
L 112.919775 284.344341 
L 113.789734 285.387449 
L 115.253924 286.467707 
L 116.514952 286.935548 
L 118.320328 287.212085 
L 119.663681 286.990115 
L 121.368225 286.395226 
L 122.465003 285.537791 
L 123.651383 284.217125 
L 124.233057 282.934155 
L 124.610805 281.211058 
L 124.534962 279.816669 
L 124.011592 278.113014 
L 123.021226 276.610097 
L 122.013514 275.709171 
L 120.410787 274.837375 
L 119.092707 274.560405 
L 117.270023 274.533177 
L 115.964288 274.947975 
L 114.367903 275.771981 
L 114.367903 275.771981 
L 114.367903 275.771981 
L 114.367903 275.771981 
L 114.367903 275.771981 
L 114.367903 275.771981 
L 114.367903 275.771981 
L 114.367903 275.771981 
L 114.367903 275.771981 
L 114.367903 275.771981 
L 114.367903 275.771981 
L 114.367903 275.771981 
L 114.367903 275.771981 
L 114.367903 275.771981 
L 114.367903 275.771981 
L 114.367903 275.771981 
L 114.367903 275.771981 
L 114.367903 275.771981 
L 114.367903 275.771981 
L 114.367903 275.771981 
L 114.367903 275.771981 
L 114.367903 275.771981 
L 114.367903 275.771981 
L 114.367903 275.771981 
L 114.367903 275.771981 
L 114.367903 275.771981 
L 114.367903 275.771981 
L 114.367903 275.771981 
L 114.367903 275.771981 
L 114.367903 275.771981 
L 114.367903 275.771981 
L 114.367903 275.771981 
L 114.367903 275.771981 
L 114.367903 275.771981 
L 114.367903 275.771981 
L 114.367903 275.771981 
L 114.367903 275.771981 
L 114.367903 275.771981 
L 114.367903 275.771981 
L 114.367903 275.771981 
L 114.367903 275.771981 
L 114.367903 275.771981 
L 114.367903 275.771981 
L 114.367903 275.771981 
L 114.367903 275.771981 
L 114.367903 275.771981 
L 114.367903 275.771981 
L 114.367903 275.771981 
L 114.367903 275.771981 
L 114.367903 275.771981 
L 114.367903 275.771981 
L 114.367903 275.771981 
L 114.367903 275.771981 
L 114.367903 275.771981 
L 114.367903 275.771981 
L 114.367903 275.771981 
L 114.367903 275.771981 
L 114.367903 275.771981 
L 114.367903 275.771981 
L 114.367903 275.771981 
L 114.367903 275.771981 
L 114.367903 275.771981 
L 114.367903 275.771981 
L 114.367903 275.771981 
L 114.367903 275.771981 
L 114.367903 275.771981 
L 114.367903 275.771981 
L 114.367903 275.771981 
L 114.367903 275.771981 
L 114.367903 275.771981 
L 114.367903 275.771981 
L 114.367903 275.771981 
L 114.367903 275.771981 
L 114.367903 275.771981 
L 114.367903 275.771981 
L 114.367903 275.771981 
L 114.367903 275.771981 
L 114.367903 275.771981 
L 114.367903 275.771981 
L 114.367903 275.771981 
L 114.367903 275.771981 
L 114.367903 275.771981 
L 114.367903 275.771981 
L 114.367903 275.771981 
L 114.367903 275.771981 
L 114.367903 275.771981 
L 114.367903 275.771981 
L 114.367903 275.771981 
L 114.367903 275.771981 
L 114.367903 275.771981 
L 114.367903 275.771981 
L 114.367903 275.771981 
L 114.367903 275.771981 
L 114.367903 275.771981 
L 114.367903 275.771981 
L 114.367903 275.771981 
L 114.367903 275.771981 
L 114.367903 275.771981 
L 114.367903 275.771981 
L 114.367903 275.771981 
L 114.367903 275.771981 
L 114.367903 275.771981 
L 114.367903 275.771981 
L 114.367903 275.771981 
L 114.367903 275.771981 
L 114.367903 275.771981 
L 114.367903 275.771981 
L 114.367903 275.771981 
L 114.367903 275.771981 
L 114.367903 275.771981 
L 114.367903 275.771981 
L 114.367903 275.771981 
L 114.367903 275.771981 
L 114.367903 275.771981 
L 114.367903 275.771981 
L 114.367903 275.771981 
L 114.367903 275.771981 
L 114.367903 275.771981 
L 114.367903 275.771981 
L 114.367903 275.771981 
L 114.367903 275.771981 
L 114.367903 275.771981 
L 114.367903 275.771981 
L 114.367903 275.771981 
L 114.367903 275.771981 
L 114.367903 275.771981 
L 114.367903 275.771981 
L 114.367903 275.771981 
L 114.367903 275.771981 
L 114.367903 275.771981 
L 114.367903 275.771981 
L 114.367903 275.771981 
L 114.367903 275.771981 
L 114.367903 275.771981 
L 114.367903 275.771981 
L 114.367903 275.771981 
L 114.367903 275.771981 
L 114.367903 275.771981 
L 114.367903 275.771981 
L 114.367903 275.771981 
L 114.367903 275.771981 
L 114.367903 275.771981 
L 114.367903 275.771981 
L 114.367903 275.771981 
L 114.367903 275.771981 
z
" style="fill:#993333;stroke:#000000;stroke-linejoin:miter;"/>
   </g>
   <g id="patch_3">
    <path clip-path="url(#pf3e9fdde1c)" d="M 175.642649 253.038328 
L 117.974098 280.26209 
L 118.516975 281.412076 
L 176.185526 254.188313 
L 176.185526 254.188313 
L 176.185526 254.188313 
L 176.185526 254.188313 
L 176.185526 254.188313 
L 176.185526 254.188313 
L 176.185526 254.188313 
L 176.185526 254.188313 
L 176.185526 254.188313 
L 176.185526 254.188313 
L 176.185526 254.188313 
L 176.185526 254.188313 
L 176.185526 254.188313 
L 176.185526 254.188313 
L 176.185526 254.188313 
L 176.185526 254.188313 
L 176.185526 254.188313 
L 176.185526 254.188313 
L 176.185526 254.188313 
L 176.185526 254.188313 
L 176.185526 254.188313 
L 176.185526 254.188313 
L 176.185526 254.188313 
L 176.185526 254.188313 
L 176.185526 254.188313 
L 176.185526 254.188313 
L 176.185526 254.188313 
L 176.185526 254.188313 
L 176.185526 254.188313 
L 176.185526 254.188313 
L 176.185526 254.188313 
L 176.185526 254.188313 
L 176.185526 254.188313 
L 176.185526 254.188313 
L 176.185526 254.188313 
L 176.185526 254.188313 
L 176.185526 254.188313 
L 176.185526 254.188313 
L 176.185526 254.188313 
L 176.185526 254.188313 
L 176.185526 254.188313 
L 176.185526 254.188313 
L 176.185526 254.188313 
L 176.185526 254.188313 
L 176.185526 254.188313 
L 176.185526 254.188313 
L 176.185526 254.188313 
L 176.185526 254.188313 
L 176.185526 254.188313 
z
" style="stroke:#000000;stroke-linejoin:miter;"/>
   </g>
   <g id="patch_4">
    <path clip-path="url(#pf3e9fdde1c)" d="M 170.99751 257.661741 
L 172.337925 258.892227 
L 173.541761 259.492099 
L 175.307266 259.95991 
L 176.666644 259.882712 
L 178.424983 259.473312 
L 179.60708 258.737946 
L 180.927749 257.55157 
L 181.643146 256.338078 
L 182.2028 254.665192 
L 182.276344 253.270679 
L 181.93796 251.520865 
L 181.113808 249.920753 
L 180.208101 248.917335 
L 178.707674 247.879319 
L 177.426723 247.463132 
L 175.617377 247.241354 
L 174.274803 247.514295 
L 172.59953 248.163054 
L 171.524041 249.058297 
L 170.393006 250.418755 
L 169.847921 251.717114 
L 169.538041 253.456183 
L 169.656814 254.839774 
L 170.243958 256.531669 
L 170.243958 256.531669 
L 170.243958 256.531669 
L 170.243958 256.531669 
L 170.243958 256.531669 
L 170.243958 256.531669 
L 170.243958 256.531669 
L 170.243958 256.531669 
L 170.243958 256.531669 
L 170.243958 256.531669 
L 170.243958 256.531669 
L 170.243958 256.531669 
L 170.243958 256.531669 
L 170.243958 256.531669 
L 170.243958 256.531669 
L 170.243958 256.531669 
L 170.243958 256.531669 
L 170.243958 256.531669 
L 170.243958 256.531669 
L 170.243958 256.531669 
L 170.243958 256.531669 
L 170.243958 256.531669 
L 170.243958 256.531669 
L 170.243958 256.531669 
L 170.243958 256.531669 
L 170.243958 256.531669 
L 170.243958 256.531669 
L 170.243958 256.531669 
L 170.243958 256.531669 
L 170.243958 256.531669 
L 170.243958 256.531669 
L 170.243958 256.531669 
L 170.243958 256.531669 
L 170.243958 256.531669 
L 170.243958 256.531669 
L 170.243958 256.531669 
L 170.243958 256.531669 
L 170.243958 256.531669 
L 170.243958 256.531669 
L 170.243958 256.531669 
L 170.243958 256.531669 
L 170.243958 256.531669 
L 170.243958 256.531669 
L 170.243958 256.531669 
L 170.243958 256.531669 
L 170.243958 256.531669 
L 170.243958 256.531669 
L 170.243958 256.531669 
L 170.243958 256.531669 
L 170.243958 256.531669 
L 170.243958 256.531669 
L 170.243958 256.531669 
L 170.243958 256.531669 
L 170.243958 256.531669 
L 170.243958 256.531669 
L 170.243958 256.531669 
L 170.243958 256.531669 
L 170.243958 256.531669 
L 170.243958 256.531669 
L 170.243958 256.531669 
L 170.243958 256.531669 
L 170.243958 256.531669 
L 170.243958 256.531669 
L 170.243958 256.531669 
L 170.243958 256.531669 
L 170.243958 256.531669 
L 170.243958 256.531669 
L 170.243958 256.531669 
L 170.243958 256.531669 
L 170.243958 256.531669 
L 170.243958 256.531669 
L 170.243958 256.531669 
L 170.243958 256.531669 
L 170.243958 256.531669 
L 170.243958 256.531669 
L 170.243958 256.531669 
L 170.243958 256.531669 
L 170.243958 256.531669 
L 170.243958 256.531669 
L 170.243958 256.531669 
L 170.243958 256.531669 
L 170.243958 256.531669 
L 170.243958 256.531669 
L 170.243958 256.531669 
L 170.243958 256.531669 
L 170.243958 256.531669 
L 170.243958 256.531669 
L 170.243958 256.531669 
L 170.243958 256.531669 
L 170.243958 256.531669 
L 170.243958 256.531669 
L 170.243958 256.531669 
L 170.243958 256.531669 
L 170.243958 256.531669 
L 170.243958 256.531669 
L 170.243958 256.531669 
L 170.243958 256.531669 
L 170.243958 256.531669 
L 170.243958 256.531669 
L 170.243958 256.531669 
L 170.243958 256.531669 
L 170.243958 256.531669 
L 170.243958 256.531669 
L 170.243958 256.531669 
L 170.243958 256.531669 
L 170.243958 256.531669 
L 170.243958 256.531669 
L 170.243958 256.531669 
L 170.243958 256.531669 
L 170.243958 256.531669 
L 170.243958 256.531669 
L 170.243958 256.531669 
L 170.243958 256.531669 
L 170.243958 256.531669 
L 170.243958 256.531669 
L 170.243958 256.531669 
L 170.243958 256.531669 
L 170.243958 256.531669 
L 170.243958 256.531669 
L 170.243958 256.531669 
L 170.243958 256.531669 
L 170.243958 256.531669 
L 170.243958 256.531669 
L 170.243958 256.531669 
L 170.243958 256.531669 
L 170.243958 256.531669 
L 170.243958 256.531669 
L 170.243958 256.531669 
L 170.243958 256.531669 
L 170.243958 256.531669 
L 170.243958 256.531669 
L 170.243958 256.531669 
L 170.243958 256.531669 
L 170.243958 256.531669 
L 170.243958 256.531669 
L 170.243958 256.531669 
L 170.243958 256.531669 
L 170.243958 256.531669 
L 170.243958 256.531669 
L 170.243958 256.531669 
L 170.243958 256.531669 
L 170.243958 256.531669 
L 170.243958 256.531669 
L 170.243958 256.531669 
L 170.243958 256.531669 
z
" style="fill:#993333;stroke:#000000;stroke-linejoin:miter;"/>
   </g>
   <g id="patch_5">
    <path clip-path="url(#pf3e9fdde1c)" d="M 175.70544 253.012697 
L 176.122365 254.214095 
L 236.369076 233.306467 
L 235.952151 232.10507 
L 235.952151 232.10507 
L 235.952151 232.10507 
L 235.952151 232.10507 
L 235.952151 232.10507 
L 235.952151 232.10507 
L 235.952151 232.10507 
L 235.952151 232.10507 
L 235.952151 232.10507 
L 235.952151 232.10507 
L 235.952151 232.10507 
L 235.952151 232.10507 
L 235.952151 232.10507 
L 235.952151 232.10507 
L 235.952151 232.10507 
L 235.952151 232.10507 
L 235.952151 232.10507 
L 235.952151 232.10507 
L 235.952151 232.10507 
L 235.952151 232.10507 
L 235.952151 232.10507 
L 235.952151 232.10507 
L 235.952151 232.10507 
L 235.952151 232.10507 
L 235.952151 232.10507 
L 235.952151 232.10507 
L 235.952151 232.10507 
L 235.952151 232.10507 
L 235.952151 232.10507 
L 235.952151 232.10507 
L 235.952151 232.10507 
L 235.952151 232.10507 
L 235.952151 232.10507 
L 235.952151 232.10507 
L 235.952151 232.10507 
L 235.952151 232.10507 
L 235.952151 232.10507 
L 235.952151 232.10507 
L 235.952151 232.10507 
L 235.952151 232.10507 
L 235.952151 232.10507 
L 235.952151 232.10507 
L 235.952151 232.10507 
L 235.952151 232.10507 
L 235.952151 232.10507 
L 235.952151 232.10507 
L 235.952151 232.10507 
L 235.952151 232.10507 
L 235.952151 232.10507 
z
" style="stroke:#000000;stroke-linejoin:miter;"/>
   </g>
   <g id="text_1">
    <!-- t = 2.8 -->
    <defs>
     <path d="M 18.3125 70.21875 
L 18.3125 54.6875 
L 36.8125 54.6875 
L 36.8125 47.703125 
L 18.3125 47.703125 
L 18.3125 18.015625 
Q 18.3125 11.328125 20.140625 9.421875 
Q 21.96875 7.515625 27.59375 7.515625 
L 36.8125 7.515625 
L 36.8125 0 
L 27.59375 0 
Q 17.1875 0 13.234375 3.875 
Q 9.28125 7.765625 9.28125 18.015625 
L 9.28125 47.703125 
L 2.6875 47.703125 
L 2.6875 54.6875 
L 9.28125 54.6875 
L 9.28125 70.21875 
z
" id="DejaVuSans-116"/>
     <path id="DejaVuSans-32"/>
     <path d="M 10.59375 45.40625 
L 73.1875 45.40625 
L 73.1875 37.203125 
L 10.59375 37.203125 
z
M 10.59375 25.484375 
L 73.1875 25.484375 
L 73.1875 17.1875 
L 10.59375 17.1875 
z
" id="DejaVuSans-61"/>
     <path d="M 19.1875 8.296875 
L 53.609375 8.296875 
L 53.609375 0 
L 7.328125 0 
L 7.328125 8.296875 
Q 12.9375 14.109375 22.625 23.890625 
Q 32.328125 33.6875 34.8125 36.53125 
Q 39.546875 41.84375 41.421875 45.53125 
Q 43.3125 49.21875 43.3125 52.78125 
Q 43.3125 58.59375 39.234375 62.25 
Q 35.15625 65.921875 28.609375 65.921875 
Q 23.96875 65.921875 18.8125 64.3125 
Q 13.671875 62.703125 7.8125 59.421875 
L 7.8125 69.390625 
Q 13.765625 71.78125 18.9375 73 
Q 24.125 74.21875 28.421875 74.21875 
Q 39.75 74.21875 46.484375 68.546875 
Q 53.21875 62.890625 53.21875 53.421875 
Q 53.21875 48.921875 51.53125 44.890625 
Q 49.859375 40.875 45.40625 35.40625 
Q 44.1875 33.984375 37.640625 27.21875 
Q 31.109375 20.453125 19.1875 8.296875 
z
" id="DejaVuSans-50"/>
     <path d="M 10.6875 12.40625 
L 21 12.40625 
L 21 0 
L 10.6875 0 
z
" id="DejaVuSans-46"/>
     <path d="M 31.78125 34.625 
Q 24.75 34.625 20.71875 30.859375 
Q 16.703125 27.09375 16.703125 20.515625 
Q 16.703125 13.921875 20.71875 10.15625 
Q 24.75 6.390625 31.78125 6.390625 
Q 38.8125 6.390625 42.859375 10.171875 
Q 46.921875 13.96875 46.921875 20.515625 
Q 46.921875 27.09375 42.890625 30.859375 
Q 38.875 34.625 31.78125 34.625 
z
M 21.921875 38.8125 
Q 15.578125 40.375 12.03125 44.71875 
Q 8.5 49.078125 8.5 55.328125 
Q 8.5 64.0625 14.71875 69.140625 
Q 20.953125 74.21875 31.78125 74.21875 
Q 42.671875 74.21875 48.875 69.140625 
Q 55.078125 64.0625 55.078125 55.328125 
Q 55.078125 49.078125 51.53125 44.71875 
Q 48 40.375 41.703125 38.8125 
Q 48.828125 37.15625 52.796875 32.3125 
Q 56.78125 27.484375 56.78125 20.515625 
Q 56.78125 9.90625 50.3125 4.234375 
Q 43.84375 -1.421875 31.78125 -1.421875 
Q 19.734375 -1.421875 13.25 4.234375 
Q 6.78125 9.90625 6.78125 20.515625 
Q 6.78125 27.484375 10.78125 32.3125 
Q 14.796875 37.15625 21.921875 38.8125 
z
M 18.3125 54.390625 
Q 18.3125 48.734375 21.84375 45.5625 
Q 25.390625 42.390625 31.78125 42.390625 
Q 38.140625 42.390625 41.71875 45.5625 
Q 45.3125 48.734375 45.3125 54.390625 
Q 45.3125 60.0625 41.71875 63.234375 
Q 38.140625 66.40625 31.78125 66.40625 
Q 25.390625 66.40625 21.84375 63.234375 
Q 18.3125 60.0625 18.3125 54.390625 
z
" id="DejaVuSans-56"/>
    </defs>
    <g transform="translate(215.424375 49.296)scale(0.12 -0.12)">
     <use xlink:href="#DejaVuSans-116"/>
     <use x="39.208984" xlink:href="#DejaVuSans-32"/>
     <use x="70.996094" xlink:href="#DejaVuSans-61"/>
     <use x="154.785156" xlink:href="#DejaVuSans-32"/>
     <use x="186.572266" xlink:href="#DejaVuSans-50"/>
     <use x="250.195312" xlink:href="#DejaVuSans-46"/>
     <use x="281.982422" xlink:href="#DejaVuSans-56"/>
    </g>
   </g>
  </g>
 </g>
 <defs>
  <clipPath id="pf3e9fdde1c">
   <rect height="354.816" width="357.12" x="57.6" y="55.296"/>
  </clipPath>
 </defs>
</svg>
