<?xml version="1.0" encoding="utf-8" standalone="no"?>
<!DOCTYPE svg PUBLIC "-//W3C//DTD SVG 1.1//EN"
  "http://www.w3.org/Graphics/SVG/1.1/DTD/svg11.dtd">
<!-- Created with matplotlib (https://matplotlib.org/) -->
<svg height="460.8pt" version="1.1" viewBox="0 0 460.8 460.8" width="460.8pt" xmlns="http://www.w3.org/2000/svg" xmlns:xlink="http://www.w3.org/1999/xlink">
 <defs>
  <style type="text/css">
*{stroke-linecap:butt;stroke-linejoin:round;}
  </style>
 </defs>
 <g id="figure_1">
  <g id="patch_1">
   <path d="M 0 460.8 
L 460.8 460.8 
L 460.8 0 
L 0 0 
z
" style="fill:#ffffff;"/>
  </g>
  <g id="axes_1">
   <g id="patch_2">
    <path clip-path="url(#p97742194f4)" d="M 335.189786 303.557082 
L 335.42747 305.366023 
L 335.978771 306.59489 
L 337.028849 308.084941 
L 338.132333 308.896929 
L 339.73771 309.703274 
L 341.123207 309.89958 
L 342.89083 309.824798 
L 344.219121 309.357359 
L 345.716215 308.419759 
L 346.662087 307.403021 
L 347.522111 305.832159 
L 347.853984 304.515055 
L 347.866373 302.695534 
L 347.502991 301.400537 
L 346.664714 299.777839 
L 345.695046 298.822008 
L 344.21134 297.793427 
L 342.872795 297.410784 
L 341.106925 297.228151 
L 339.727225 297.51238 
L 338.111536 298.220411 
L 337.02848 299.101923 
L 335.95855 300.527267 
L 335.325646 302.212205 
L 335.325646 302.212205 
L 335.325646 302.212205 
L 335.325646 302.212205 
L 335.325646 302.212205 
L 335.325646 302.212205 
L 335.325646 302.212205 
L 335.325646 302.212205 
L 335.325646 302.212205 
L 335.325646 302.212205 
L 335.325646 302.212205 
L 335.325646 302.212205 
L 335.325646 302.212205 
L 335.325646 302.212205 
L 335.325646 302.212205 
L 335.325646 302.212205 
L 335.325646 302.212205 
L 335.325646 302.212205 
L 335.325646 302.212205 
L 335.325646 302.212205 
L 335.325646 302.212205 
L 335.325646 302.212205 
L 335.325646 302.212205 
L 335.325646 302.212205 
L 335.325646 302.212205 
L 335.325646 302.212205 
L 335.325646 302.212205 
L 335.325646 302.212205 
L 335.325646 302.212205 
L 335.325646 302.212205 
L 335.325646 302.212205 
L 335.325646 302.212205 
L 335.325646 302.212205 
L 335.325646 302.212205 
L 335.325646 302.212205 
L 335.325646 302.212205 
L 335.325646 302.212205 
L 335.325646 302.212205 
L 335.325646 302.212205 
L 335.325646 302.212205 
L 335.325646 302.212205 
L 335.325646 302.212205 
L 335.325646 302.212205 
L 335.325646 302.212205 
L 335.325646 302.212205 
L 335.325646 302.212205 
L 335.325646 302.212205 
L 335.325646 302.212205 
L 335.325646 302.212205 
L 335.325646 302.212205 
L 335.325646 302.212205 
L 335.325646 302.212205 
L 335.325646 302.212205 
L 335.325646 302.212205 
L 335.325646 302.212205 
L 335.325646 302.212205 
L 335.325646 302.212205 
L 335.325646 302.212205 
L 335.325646 302.212205 
L 335.325646 302.212205 
L 335.325646 302.212205 
L 335.325646 302.212205 
L 335.325646 302.212205 
L 335.325646 302.212205 
L 335.325646 302.212205 
L 335.325646 302.212205 
L 335.325646 302.212205 
L 335.325646 302.212205 
L 335.325646 302.212205 
L 335.325646 302.212205 
L 335.325646 302.212205 
L 335.325646 302.212205 
L 335.325646 302.212205 
L 335.325646 302.212205 
L 335.325646 302.212205 
L 335.325646 302.212205 
L 335.325646 302.212205 
L 335.325646 302.212205 
L 335.325646 302.212205 
L 335.325646 302.212205 
L 335.325646 302.212205 
L 335.325646 302.212205 
L 335.325646 302.212205 
L 335.325646 302.212205 
L 335.325646 302.212205 
L 335.325646 302.212205 
L 335.325646 302.212205 
L 335.325646 302.212205 
L 335.325646 302.212205 
L 335.325646 302.212205 
L 335.325646 302.212205 
L 335.325646 302.212205 
L 335.325646 302.212205 
L 335.325646 302.212205 
L 335.325646 302.212205 
L 335.325646 302.212205 
L 335.325646 302.212205 
L 335.325646 302.212205 
L 335.325646 302.212205 
L 335.325646 302.212205 
L 335.325646 302.212205 
L 335.325646 302.212205 
L 335.325646 302.212205 
L 335.325646 302.212205 
L 335.325646 302.212205 
L 335.325646 302.212205 
L 335.325646 302.212205 
L 335.325646 302.212205 
L 335.325646 302.212205 
L 335.325646 302.212205 
L 335.325646 302.212205 
L 335.325646 302.212205 
L 335.325646 302.212205 
L 335.325646 302.212205 
L 335.325646 302.212205 
L 335.325646 302.212205 
L 335.325646 302.212205 
L 335.325646 302.212205 
L 335.325646 302.212205 
L 335.325646 302.212205 
L 335.325646 302.212205 
L 335.325646 302.212205 
L 335.325646 302.212205 
L 335.325646 302.212205 
L 335.325646 302.212205 
L 335.325646 302.212205 
L 335.325646 302.212205 
L 335.325646 302.212205 
L 335.325646 302.212205 
L 335.325646 302.212205 
L 335.325646 302.212205 
L 335.325646 302.212205 
L 335.325646 302.212205 
L 335.325646 302.212205 
L 335.325646 302.212205 
L 335.325646 302.212205 
L 335.325646 302.212205 
L 335.325646 302.212205 
L 335.325646 302.212205 
L 335.325646 302.212205 
L 335.325646 302.212205 
L 335.325646 302.212205 
L 335.325646 302.212205 
L 335.325646 302.212205 
L 335.325646 302.212205 
z
" style="fill:#993333;stroke:#000000;stroke-linejoin:miter;"/>
   </g>
   <g id="patch_3">
    <path clip-path="url(#p97742194f4)" d="M 285.921651 272.405755 
L 285.310956 273.521208 
L 341.247785 304.145812 
L 341.858479 303.030359 
L 341.858479 303.030359 
L 341.858479 303.030359 
L 341.858479 303.030359 
L 341.858479 303.030359 
L 341.858479 303.030359 
L 341.858479 303.030359 
L 341.858479 303.030359 
L 341.858479 303.030359 
L 341.858479 303.030359 
L 341.858479 303.030359 
L 341.858479 303.030359 
L 341.858479 303.030359 
L 341.858479 303.030359 
L 341.858479 303.030359 
L 341.858479 303.030359 
L 341.858479 303.030359 
L 341.858479 303.030359 
L 341.858479 303.030359 
L 341.858479 303.030359 
L 341.858479 303.030359 
L 341.858479 303.030359 
L 341.858479 303.030359 
L 341.858479 303.030359 
L 341.858479 303.030359 
L 341.858479 303.030359 
L 341.858479 303.030359 
L 341.858479 303.030359 
L 341.858479 303.030359 
L 341.858479 303.030359 
L 341.858479 303.030359 
L 341.858479 303.030359 
L 341.858479 303.030359 
L 341.858479 303.030359 
L 341.858479 303.030359 
L 341.858479 303.030359 
L 341.858479 303.030359 
L 341.858479 303.030359 
L 341.858479 303.030359 
L 341.858479 303.030359 
L 341.858479 303.030359 
L 341.858479 303.030359 
L 341.858479 303.030359 
L 341.858479 303.030359 
L 341.858479 303.030359 
L 341.858479 303.030359 
L 341.858479 303.030359 
L 341.858479 303.030359 
L 341.858479 303.030359 
z
" style="stroke:#000000;stroke-linejoin:miter;"/>
   </g>
   <g id="patch_4">
    <path clip-path="url(#p97742194f4)" d="M 280.669864 268.939011 
L 279.741885 270.481231 
L 279.36438 271.779168 
L 279.270065 273.601218 
L 279.589365 274.909688 
L 280.351805 276.565466 
L 281.289734 277.564111 
L 282.722258 278.648226 
L 284.049179 279.092541 
L 285.801054 279.339564 
L 287.19209 279.120766 
L 288.834396 278.470216 
L 289.948974 277.641875 
L 291.079618 276.25303 
L 291.644848 275.017952 
L 291.987009 273.230849 
L 291.864505 271.891425 
L 291.334409 270.14361 
L 290.554164 269.027777 
L 289.281598 267.747176 
L 288.034642 267.128128 
L 286.331174 266.628277 
L 284.922807 266.65758 
L 283.205506 267.060859 
L 281.980544 267.731338 
L 281.980544 267.731338 
L 281.980544 267.731338 
L 281.980544 267.731338 
L 281.980544 267.731338 
L 281.980544 267.731338 
L 281.980544 267.731338 
L 281.980544 267.731338 
L 281.980544 267.731338 
L 281.980544 267.731338 
L 281.980544 267.731338 
L 281.980544 267.731338 
L 281.980544 267.731338 
L 281.980544 267.731338 
L 281.980544 267.731338 
L 281.980544 267.731338 
L 281.980544 267.731338 
L 281.980544 267.731338 
L 281.980544 267.731338 
L 281.980544 267.731338 
L 281.980544 267.731338 
L 281.980544 267.731338 
L 281.980544 267.731338 
L 281.980544 267.731338 
L 281.980544 267.731338 
L 281.980544 267.731338 
L 281.980544 267.731338 
L 281.980544 267.731338 
L 281.980544 267.731338 
L 281.980544 267.731338 
L 281.980544 267.731338 
L 281.980544 267.731338 
L 281.980544 267.731338 
L 281.980544 267.731338 
L 281.980544 267.731338 
L 281.980544 267.731338 
L 281.980544 267.731338 
L 281.980544 267.731338 
L 281.980544 267.731338 
L 281.980544 267.731338 
L 281.980544 267.731338 
L 281.980544 267.731338 
L 281.980544 267.731338 
L 281.980544 267.731338 
L 281.980544 267.731338 
L 281.980544 267.731338 
L 281.980544 267.731338 
L 281.980544 267.731338 
L 281.980544 267.731338 
L 281.980544 267.731338 
L 281.980544 267.731338 
L 281.980544 267.731338 
L 281.980544 267.731338 
L 281.980544 267.731338 
L 281.980544 267.731338 
L 281.980544 267.731338 
L 281.980544 267.731338 
L 281.980544 267.731338 
L 281.980544 267.731338 
L 281.980544 267.731338 
L 281.980544 267.731338 
L 281.980544 267.731338 
L 281.980544 267.731338 
L 281.980544 267.731338 
L 281.980544 267.731338 
L 281.980544 267.731338 
L 281.980544 267.731338 
L 281.980544 267.731338 
L 281.980544 267.731338 
L 281.980544 267.731338 
L 281.980544 267.731338 
L 281.980544 267.731338 
L 281.980544 267.731338 
L 281.980544 267.731338 
L 281.980544 267.731338 
L 281.980544 267.731338 
L 281.980544 267.731338 
L 281.980544 267.731338 
L 281.980544 267.731338 
L 281.980544 267.731338 
L 281.980544 267.731338 
L 281.980544 267.731338 
L 281.980544 267.731338 
L 281.980544 267.731338 
L 281.980544 267.731338 
L 281.980544 267.731338 
L 281.980544 267.731338 
L 281.980544 267.731338 
L 281.980544 267.731338 
L 281.980544 267.731338 
L 281.980544 267.731338 
L 281.980544 267.731338 
L 281.980544 267.731338 
L 281.980544 267.731338 
L 281.980544 267.731338 
L 281.980544 267.731338 
L 281.980544 267.731338 
L 281.980544 267.731338 
L 281.980544 267.731338 
L 281.980544 267.731338 
L 281.980544 267.731338 
L 281.980544 267.731338 
L 281.980544 267.731338 
L 281.980544 267.731338 
L 281.980544 267.731338 
L 281.980544 267.731338 
L 281.980544 267.731338 
L 281.980544 267.731338 
L 281.980544 267.731338 
L 281.980544 267.731338 
L 281.980544 267.731338 
L 281.980544 267.731338 
L 281.980544 267.731338 
L 281.980544 267.731338 
L 281.980544 267.731338 
L 281.980544 267.731338 
L 281.980544 267.731338 
L 281.980544 267.731338 
L 281.980544 267.731338 
L 281.980544 267.731338 
L 281.980544 267.731338 
L 281.980544 267.731338 
L 281.980544 267.731338 
L 281.980544 267.731338 
L 281.980544 267.731338 
L 281.980544 267.731338 
L 281.980544 267.731338 
L 281.980544 267.731338 
L 281.980544 267.731338 
L 281.980544 267.731338 
L 281.980544 267.731338 
L 281.980544 267.731338 
L 281.980544 267.731338 
L 281.980544 267.731338 
L 281.980544 267.731338 
L 281.980544 267.731338 
L 281.980544 267.731338 
L 281.980544 267.731338 
L 281.980544 267.731338 
L 281.980544 267.731338 
L 281.980544 267.731338 
L 281.980544 267.731338 
L 281.980544 267.731338 
L 281.980544 267.731338 
L 281.980544 267.731338 
z
" style="fill:#993333;stroke:#000000;stroke-linejoin:miter;"/>
   </g>
   <g id="patch_5">
    <path clip-path="url(#p97742194f4)" d="M 236.562611 232.209446 
L 235.759752 233.195651 
L 285.215157 273.456774 
L 286.018016 272.470569 
L 286.018016 272.470569 
L 286.018016 272.470569 
L 286.018016 272.470569 
L 286.018016 272.470569 
L 286.018016 272.470569 
L 286.018016 272.470569 
L 286.018016 272.470569 
L 286.018016 272.470569 
L 286.018016 272.470569 
L 286.018016 272.470569 
L 286.018016 272.470569 
L 286.018016 272.470569 
L 286.018016 272.470569 
L 286.018016 272.470569 
L 286.018016 272.470569 
L 286.018016 272.470569 
L 286.018016 272.470569 
L 286.018016 272.470569 
L 286.018016 272.470569 
L 286.018016 272.470569 
L 286.018016 272.470569 
L 286.018016 272.470569 
L 286.018016 272.470569 
L 286.018016 272.470569 
L 286.018016 272.470569 
L 286.018016 272.470569 
L 286.018016 272.470569 
L 286.018016 272.470569 
L 286.018016 272.470569 
L 286.018016 272.470569 
L 286.018016 272.470569 
L 286.018016 272.470569 
L 286.018016 272.470569 
L 286.018016 272.470569 
L 286.018016 272.470569 
L 286.018016 272.470569 
L 286.018016 272.470569 
L 286.018016 272.470569 
L 286.018016 272.470569 
L 286.018016 272.470569 
L 286.018016 272.470569 
L 286.018016 272.470569 
L 286.018016 272.470569 
L 286.018016 272.470569 
L 286.018016 272.470569 
L 286.018016 272.470569 
L 286.018016 272.470569 
L 286.018016 272.470569 
z
" style="stroke:#000000;stroke-linejoin:miter;"/>
   </g>
   <g id="text_1">
    <!-- t = 9.7 -->
    <defs>
     <path d="M 18.3125 70.21875 
L 18.3125 54.6875 
L 36.8125 54.6875 
L 36.8125 47.703125 
L 18.3125 47.703125 
L 18.3125 18.015625 
Q 18.3125 11.328125 20.140625 9.421875 
Q 21.96875 7.515625 27.59375 7.515625 
L 36.8125 7.515625 
L 36.8125 0 
L 27.59375 0 
Q 17.1875 0 13.234375 3.875 
Q 9.28125 7.765625 9.28125 18.015625 
L 9.28125 47.703125 
L 2.6875 47.703125 
L 2.6875 54.6875 
L 9.28125 54.6875 
L 9.28125 70.21875 
z
" id="DejaVuSans-116"/>
     <path id="DejaVuSans-32"/>
     <path d="M 10.59375 45.40625 
L 73.1875 45.40625 
L 73.1875 37.203125 
L 10.59375 37.203125 
z
M 10.59375 25.484375 
L 73.1875 25.484375 
L 73.1875 17.1875 
L 10.59375 17.1875 
z
" id="DejaVuSans-61"/>
     <path d="M 10.984375 1.515625 
L 10.984375 10.5 
Q 14.703125 8.734375 18.5 7.8125 
Q 22.3125 6.890625 25.984375 6.890625 
Q 35.75 6.890625 40.890625 13.453125 
Q 46.046875 20.015625 46.78125 33.40625 
Q 43.953125 29.203125 39.59375 26.953125 
Q 35.25 24.703125 29.984375 24.703125 
Q 19.046875 24.703125 12.671875 31.3125 
Q 6.296875 37.9375 6.296875 49.421875 
Q 6.296875 60.640625 12.9375 67.421875 
Q 19.578125 74.21875 30.609375 74.21875 
Q 43.265625 74.21875 49.921875 64.515625 
Q 56.59375 54.828125 56.59375 36.375 
Q 56.59375 19.140625 48.40625 8.859375 
Q 40.234375 -1.421875 26.421875 -1.421875 
Q 22.703125 -1.421875 18.890625 -0.6875 
Q 15.09375 0.046875 10.984375 1.515625 
z
M 30.609375 32.421875 
Q 37.25 32.421875 41.125 36.953125 
Q 45.015625 41.5 45.015625 49.421875 
Q 45.015625 57.28125 41.125 61.84375 
Q 37.25 66.40625 30.609375 66.40625 
Q 23.96875 66.40625 20.09375 61.84375 
Q 16.21875 57.28125 16.21875 49.421875 
Q 16.21875 41.5 20.09375 36.953125 
Q 23.96875 32.421875 30.609375 32.421875 
z
" id="DejaVuSans-57"/>
     <path d="M 10.6875 12.40625 
L 21 12.40625 
L 21 0 
L 10.6875 0 
z
" id="DejaVuSans-46"/>
     <path d="M 8.203125 72.90625 
L 55.078125 72.90625 
L 55.078125 68.703125 
L 28.609375 0 
L 18.3125 0 
L 43.21875 64.59375 
L 8.203125 64.59375 
z
" id="DejaVuSans-55"/>
    </defs>
    <g transform="translate(215.424375 49.296)scale(0.12 -0.12)">
     <use xlink:href="#DejaVuSans-116"/>
     <use x="39.208984" xlink:href="#DejaVuSans-32"/>
     <use x="70.996094" xlink:href="#DejaVuSans-61"/>
     <use x="154.785156" xlink:href="#DejaVuSans-32"/>
     <use x="186.572266" xlink:href="#DejaVuSans-57"/>
     <use x="250.195312" xlink:href="#DejaVuSans-46"/>
     <use x="281.982422" xlink:href="#DejaVuSans-55"/>
    </g>
   </g>
  </g>
 </g>
 <defs>
  <clipPath id="p97742194f4">
   <rect height="354.816" width="357.12" x="57.6" y="55.296"/>
  </clipPath>
 </defs>
</svg>
