<?xml version="1.0" encoding="utf-8" standalone="no"?>
<!DOCTYPE svg PUBLIC "-//W3C//DTD SVG 1.1//EN"
  "http://www.w3.org/Graphics/SVG/1.1/DTD/svg11.dtd">
<!-- Created with matplotlib (https://matplotlib.org/) -->
<svg height="460.8pt" version="1.1" viewBox="0 0 460.8 460.8" width="460.8pt" xmlns="http://www.w3.org/2000/svg" xmlns:xlink="http://www.w3.org/1999/xlink">
 <defs>
  <style type="text/css">
*{stroke-linecap:butt;stroke-linejoin:round;}
  </style>
 </defs>
 <g id="figure_1">
  <g id="patch_1">
   <path d="M 0 460.8 
L 460.8 460.8 
L 460.8 0 
L 0 0 
z
" style="fill:#ffffff;"/>
  </g>
  <g id="axes_1">
   <g id="patch_2">
    <path clip-path="url(#p438fb5c7b8)" d="M 148.856612 326.602915 
L 148.761751 328.007855 
L 149.032234 329.753485 
L 149.593021 331.023898 
L 150.69682 332.434173 
L 151.775956 333.259017 
L 153.442821 333.988652 
L 154.776096 334.165978 
L 156.597922 334.036333 
L 157.858903 333.522725 
L 159.389643 332.565542 
L 160.269598 331.486748 
L 161.134473 329.936378 
L 161.417959 328.556526 
L 161.405217 326.792554 
L 161.022827 325.449479 
L 160.135589 323.903787 
L 158.837322 322.657156 
L 157.655294 322.001442 
L 155.899433 321.505748 
L 154.552737 321.527185 
L 152.769178 321.903792 
L 151.587534 322.597132 
L 150.212954 323.753833 
L 149.485668 324.949321 
L 149.485668 324.949321 
L 149.485668 324.949321 
L 149.485668 324.949321 
L 149.485668 324.949321 
L 149.485668 324.949321 
L 149.485668 324.949321 
L 149.485668 324.949321 
L 149.485668 324.949321 
L 149.485668 324.949321 
L 149.485668 324.949321 
L 149.485668 324.949321 
L 149.485668 324.949321 
L 149.485668 324.949321 
L 149.485668 324.949321 
L 149.485668 324.949321 
L 149.485668 324.949321 
L 149.485668 324.949321 
L 149.485668 324.949321 
L 149.485668 324.949321 
L 149.485668 324.949321 
L 149.485668 324.949321 
L 149.485668 324.949321 
L 149.485668 324.949321 
L 149.485668 324.949321 
L 149.485668 324.949321 
L 149.485668 324.949321 
L 149.485668 324.949321 
L 149.485668 324.949321 
L 149.485668 324.949321 
L 149.485668 324.949321 
L 149.485668 324.949321 
L 149.485668 324.949321 
L 149.485668 324.949321 
L 149.485668 324.949321 
L 149.485668 324.949321 
L 149.485668 324.949321 
L 149.485668 324.949321 
L 149.485668 324.949321 
L 149.485668 324.949321 
L 149.485668 324.949321 
L 149.485668 324.949321 
L 149.485668 324.949321 
L 149.485668 324.949321 
L 149.485668 324.949321 
L 149.485668 324.949321 
L 149.485668 324.949321 
L 149.485668 324.949321 
L 149.485668 324.949321 
L 149.485668 324.949321 
L 149.485668 324.949321 
L 149.485668 324.949321 
L 149.485668 324.949321 
L 149.485668 324.949321 
L 149.485668 324.949321 
L 149.485668 324.949321 
L 149.485668 324.949321 
L 149.485668 324.949321 
L 149.485668 324.949321 
L 149.485668 324.949321 
L 149.485668 324.949321 
L 149.485668 324.949321 
L 149.485668 324.949321 
L 149.485668 324.949321 
L 149.485668 324.949321 
L 149.485668 324.949321 
L 149.485668 324.949321 
L 149.485668 324.949321 
L 149.485668 324.949321 
L 149.485668 324.949321 
L 149.485668 324.949321 
L 149.485668 324.949321 
L 149.485668 324.949321 
L 149.485668 324.949321 
L 149.485668 324.949321 
L 149.485668 324.949321 
L 149.485668 324.949321 
L 149.485668 324.949321 
L 149.485668 324.949321 
L 149.485668 324.949321 
L 149.485668 324.949321 
L 149.485668 324.949321 
L 149.485668 324.949321 
L 149.485668 324.949321 
L 149.485668 324.949321 
L 149.485668 324.949321 
L 149.485668 324.949321 
L 149.485668 324.949321 
L 149.485668 324.949321 
L 149.485668 324.949321 
L 149.485668 324.949321 
L 149.485668 324.949321 
L 149.485668 324.949321 
L 149.485668 324.949321 
L 149.485668 324.949321 
L 149.485668 324.949321 
L 149.485668 324.949321 
L 149.485668 324.949321 
L 149.485668 324.949321 
L 149.485668 324.949321 
L 149.485668 324.949321 
L 149.485668 324.949321 
L 149.485668 324.949321 
L 149.485668 324.949321 
L 149.485668 324.949321 
L 149.485668 324.949321 
L 149.485668 324.949321 
L 149.485668 324.949321 
L 149.485668 324.949321 
L 149.485668 324.949321 
L 149.485668 324.949321 
L 149.485668 324.949321 
L 149.485668 324.949321 
L 149.485668 324.949321 
L 149.485668 324.949321 
L 149.485668 324.949321 
L 149.485668 324.949321 
L 149.485668 324.949321 
L 149.485668 324.949321 
L 149.485668 324.949321 
L 149.485668 324.949321 
L 149.485668 324.949321 
L 149.485668 324.949321 
L 149.485668 324.949321 
L 149.485668 324.949321 
L 149.485668 324.949321 
L 149.485668 324.949321 
L 149.485668 324.949321 
L 149.485668 324.949321 
L 149.485668 324.949321 
L 149.485668 324.949321 
L 149.485668 324.949321 
L 149.485668 324.949321 
L 149.485668 324.949321 
L 149.485668 324.949321 
L 149.485668 324.949321 
L 149.485668 324.949321 
L 149.485668 324.949321 
L 149.485668 324.949321 
L 149.485668 324.949321 
L 149.485668 324.949321 
L 149.485668 324.949321 
L 149.485668 324.949321 
L 149.485668 324.949321 
L 149.485668 324.949321 
z
" style="fill:#993333;stroke:#000000;stroke-linejoin:miter;"/>
   </g>
   <g id="patch_3">
    <path clip-path="url(#p438fb5c7b8)" d="M 154.722994 327.335068 
L 155.50679 328.33649 
L 205.725289 289.031306 
L 204.941493 288.029884 
L 204.941493 288.029884 
L 204.941493 288.029884 
L 204.941493 288.029884 
L 204.941493 288.029884 
L 204.941493 288.029884 
L 204.941493 288.029884 
L 204.941493 288.029884 
L 204.941493 288.029884 
L 204.941493 288.029884 
L 204.941493 288.029884 
L 204.941493 288.029884 
L 204.941493 288.029884 
L 204.941493 288.029884 
L 204.941493 288.029884 
L 204.941493 288.029884 
L 204.941493 288.029884 
L 204.941493 288.029884 
L 204.941493 288.029884 
L 204.941493 288.029884 
L 204.941493 288.029884 
L 204.941493 288.029884 
L 204.941493 288.029884 
L 204.941493 288.029884 
L 204.941493 288.029884 
L 204.941493 288.029884 
L 204.941493 288.029884 
L 204.941493 288.029884 
L 204.941493 288.029884 
L 204.941493 288.029884 
L 204.941493 288.029884 
L 204.941493 288.029884 
L 204.941493 288.029884 
L 204.941493 288.029884 
L 204.941493 288.029884 
L 204.941493 288.029884 
L 204.941493 288.029884 
L 204.941493 288.029884 
L 204.941493 288.029884 
L 204.941493 288.029884 
L 204.941493 288.029884 
L 204.941493 288.029884 
L 204.941493 288.029884 
L 204.941493 288.029884 
L 204.941493 288.029884 
L 204.941493 288.029884 
L 204.941493 288.029884 
L 204.941493 288.029884 
L 204.941493 288.029884 
z
" style="stroke:#000000;stroke-linejoin:miter;"/>
   </g>
   <g id="patch_4">
    <path clip-path="url(#p438fb5c7b8)" d="M 199.023985 288.077158 
L 199.092341 289.845042 
L 199.554947 291.175023 
L 200.487099 292.675516 
L 201.500391 293.625078 
L 203.068116 294.490808 
L 204.384005 294.827466 
L 206.203468 294.846471 
L 207.499779 294.487799 
L 209.125513 293.655426 
L 210.084863 292.68924 
L 211.118832 291.209284 
L 211.506338 289.872139 
L 211.69539 288.106944 
L 211.416178 286.72622 
L 210.714027 285.107967 
L 209.836458 284.021714 
L 208.415013 282.946609 
L 206.732387 282.307583 
L 205.388013 282.166835 
L 203.57822 282.39794 
L 202.347357 282.94477 
L 200.853498 283.989424 
L 200.037503 285.089949 
L 199.225327 286.692384 
L 199.225327 286.692384 
L 199.225327 286.692384 
L 199.225327 286.692384 
L 199.225327 286.692384 
L 199.225327 286.692384 
L 199.225327 286.692384 
L 199.225327 286.692384 
L 199.225327 286.692384 
L 199.225327 286.692384 
L 199.225327 286.692384 
L 199.225327 286.692384 
L 199.225327 286.692384 
L 199.225327 286.692384 
L 199.225327 286.692384 
L 199.225327 286.692384 
L 199.225327 286.692384 
L 199.225327 286.692384 
L 199.225327 286.692384 
L 199.225327 286.692384 
L 199.225327 286.692384 
L 199.225327 286.692384 
L 199.225327 286.692384 
L 199.225327 286.692384 
L 199.225327 286.692384 
L 199.225327 286.692384 
L 199.225327 286.692384 
L 199.225327 286.692384 
L 199.225327 286.692384 
L 199.225327 286.692384 
L 199.225327 286.692384 
L 199.225327 286.692384 
L 199.225327 286.692384 
L 199.225327 286.692384 
L 199.225327 286.692384 
L 199.225327 286.692384 
L 199.225327 286.692384 
L 199.225327 286.692384 
L 199.225327 286.692384 
L 199.225327 286.692384 
L 199.225327 286.692384 
L 199.225327 286.692384 
L 199.225327 286.692384 
L 199.225327 286.692384 
L 199.225327 286.692384 
L 199.225327 286.692384 
L 199.225327 286.692384 
L 199.225327 286.692384 
L 199.225327 286.692384 
L 199.225327 286.692384 
L 199.225327 286.692384 
L 199.225327 286.692384 
L 199.225327 286.692384 
L 199.225327 286.692384 
L 199.225327 286.692384 
L 199.225327 286.692384 
L 199.225327 286.692384 
L 199.225327 286.692384 
L 199.225327 286.692384 
L 199.225327 286.692384 
L 199.225327 286.692384 
L 199.225327 286.692384 
L 199.225327 286.692384 
L 199.225327 286.692384 
L 199.225327 286.692384 
L 199.225327 286.692384 
L 199.225327 286.692384 
L 199.225327 286.692384 
L 199.225327 286.692384 
L 199.225327 286.692384 
L 199.225327 286.692384 
L 199.225327 286.692384 
L 199.225327 286.692384 
L 199.225327 286.692384 
L 199.225327 286.692384 
L 199.225327 286.692384 
L 199.225327 286.692384 
L 199.225327 286.692384 
L 199.225327 286.692384 
L 199.225327 286.692384 
L 199.225327 286.692384 
L 199.225327 286.692384 
L 199.225327 286.692384 
L 199.225327 286.692384 
L 199.225327 286.692384 
L 199.225327 286.692384 
L 199.225327 286.692384 
L 199.225327 286.692384 
L 199.225327 286.692384 
L 199.225327 286.692384 
L 199.225327 286.692384 
L 199.225327 286.692384 
L 199.225327 286.692384 
L 199.225327 286.692384 
L 199.225327 286.692384 
L 199.225327 286.692384 
L 199.225327 286.692384 
L 199.225327 286.692384 
L 199.225327 286.692384 
L 199.225327 286.692384 
L 199.225327 286.692384 
L 199.225327 286.692384 
L 199.225327 286.692384 
L 199.225327 286.692384 
L 199.225327 286.692384 
L 199.225327 286.692384 
L 199.225327 286.692384 
L 199.225327 286.692384 
L 199.225327 286.692384 
L 199.225327 286.692384 
L 199.225327 286.692384 
L 199.225327 286.692384 
L 199.225327 286.692384 
L 199.225327 286.692384 
L 199.225327 286.692384 
L 199.225327 286.692384 
L 199.225327 286.692384 
L 199.225327 286.692384 
L 199.225327 286.692384 
L 199.225327 286.692384 
L 199.225327 286.692384 
L 199.225327 286.692384 
L 199.225327 286.692384 
L 199.225327 286.692384 
L 199.225327 286.692384 
L 199.225327 286.692384 
L 199.225327 286.692384 
L 199.225327 286.692384 
L 199.225327 286.692384 
L 199.225327 286.692384 
L 199.225327 286.692384 
L 199.225327 286.692384 
L 199.225327 286.692384 
L 199.225327 286.692384 
L 199.225327 286.692384 
L 199.225327 286.692384 
L 199.225327 286.692384 
L 199.225327 286.692384 
L 199.225327 286.692384 
L 199.225327 286.692384 
L 199.225327 286.692384 
L 199.225327 286.692384 
L 199.225327 286.692384 
L 199.225327 286.692384 
L 199.225327 286.692384 
z
" style="fill:#993333;stroke:#000000;stroke-linejoin:miter;"/>
   </g>
   <g id="patch_5">
    <path clip-path="url(#p438fb5c7b8)" d="M 235.605026 232.397532 
L 204.777263 288.222653 
L 205.890488 288.837399 
L 236.718251 233.012278 
L 236.718251 233.012278 
L 236.718251 233.012278 
L 236.718251 233.012278 
L 236.718251 233.012278 
L 236.718251 233.012278 
L 236.718251 233.012278 
L 236.718251 233.012278 
L 236.718251 233.012278 
L 236.718251 233.012278 
L 236.718251 233.012278 
L 236.718251 233.012278 
L 236.718251 233.012278 
L 236.718251 233.012278 
L 236.718251 233.012278 
L 236.718251 233.012278 
L 236.718251 233.012278 
L 236.718251 233.012278 
L 236.718251 233.012278 
L 236.718251 233.012278 
L 236.718251 233.012278 
L 236.718251 233.012278 
L 236.718251 233.012278 
L 236.718251 233.012278 
L 236.718251 233.012278 
L 236.718251 233.012278 
L 236.718251 233.012278 
L 236.718251 233.012278 
L 236.718251 233.012278 
L 236.718251 233.012278 
L 236.718251 233.012278 
L 236.718251 233.012278 
L 236.718251 233.012278 
L 236.718251 233.012278 
L 236.718251 233.012278 
L 236.718251 233.012278 
L 236.718251 233.012278 
L 236.718251 233.012278 
L 236.718251 233.012278 
L 236.718251 233.012278 
L 236.718251 233.012278 
L 236.718251 233.012278 
L 236.718251 233.012278 
L 236.718251 233.012278 
L 236.718251 233.012278 
L 236.718251 233.012278 
L 236.718251 233.012278 
L 236.718251 233.012278 
L 236.718251 233.012278 
z
" style="stroke:#000000;stroke-linejoin:miter;"/>
   </g>
   <g id="text_1">
    <!-- t = 8.9 -->
    <defs>
     <path d="M 18.3125 70.21875 
L 18.3125 54.6875 
L 36.8125 54.6875 
L 36.8125 47.703125 
L 18.3125 47.703125 
L 18.3125 18.015625 
Q 18.3125 11.328125 20.140625 9.421875 
Q 21.96875 7.515625 27.59375 7.515625 
L 36.8125 7.515625 
L 36.8125 0 
L 27.59375 0 
Q 17.1875 0 13.234375 3.875 
Q 9.28125 7.765625 9.28125 18.015625 
L 9.28125 47.703125 
L 2.6875 47.703125 
L 2.6875 54.6875 
L 9.28125 54.6875 
L 9.28125 70.21875 
z
" id="DejaVuSans-116"/>
     <path id="DejaVuSans-32"/>
     <path d="M 10.59375 45.40625 
L 73.1875 45.40625 
L 73.1875 37.203125 
L 10.59375 37.203125 
z
M 10.59375 25.484375 
L 73.1875 25.484375 
L 73.1875 17.1875 
L 10.59375 17.1875 
z
" id="DejaVuSans-61"/>
     <path d="M 31.78125 34.625 
Q 24.75 34.625 20.71875 30.859375 
Q 16.703125 27.09375 16.703125 20.515625 
Q 16.703125 13.921875 20.71875 10.15625 
Q 24.75 6.390625 31.78125 6.390625 
Q 38.8125 6.390625 42.859375 10.171875 
Q 46.921875 13.96875 46.921875 20.515625 
Q 46.921875 27.09375 42.890625 30.859375 
Q 38.875 34.625 31.78125 34.625 
z
M 21.921875 38.8125 
Q 15.578125 40.375 12.03125 44.71875 
Q 8.5 49.078125 8.5 55.328125 
Q 8.5 64.0625 14.71875 69.140625 
Q 20.953125 74.21875 31.78125 74.21875 
Q 42.671875 74.21875 48.875 69.140625 
Q 55.078125 64.0625 55.078125 55.328125 
Q 55.078125 49.078125 51.53125 44.71875 
Q 48 40.375 41.703125 38.8125 
Q 48.828125 37.15625 52.796875 32.3125 
Q 56.78125 27.484375 56.78125 20.515625 
Q 56.78125 9.90625 50.3125 4.234375 
Q 43.84375 -1.421875 31.78125 -1.421875 
Q 19.734375 -1.421875 13.25 4.234375 
Q 6.78125 9.90625 6.78125 20.515625 
Q 6.78125 27.484375 10.78125 32.3125 
Q 14.796875 37.15625 21.921875 38.8125 
z
M 18.3125 54.390625 
Q 18.3125 48.734375 21.84375 45.5625 
Q 25.390625 42.390625 31.78125 42.390625 
Q 38.140625 42.390625 41.71875 45.5625 
Q 45.3125 48.734375 45.3125 54.390625 
Q 45.3125 60.0625 41.71875 63.234375 
Q 38.140625 66.40625 31.78125 66.40625 
Q 25.390625 66.40625 21.84375 63.234375 
Q 18.3125 60.0625 18.3125 54.390625 
z
" id="DejaVuSans-56"/>
     <path d="M 10.6875 12.40625 
L 21 12.40625 
L 21 0 
L 10.6875 0 
z
" id="DejaVuSans-46"/>
     <path d="M 10.984375 1.515625 
L 10.984375 10.5 
Q 14.703125 8.734375 18.5 7.8125 
Q 22.3125 6.890625 25.984375 6.890625 
Q 35.75 6.890625 40.890625 13.453125 
Q 46.046875 20.015625 46.78125 33.40625 
Q 43.953125 29.203125 39.59375 26.953125 
Q 35.25 24.703125 29.984375 24.703125 
Q 19.046875 24.703125 12.671875 31.3125 
Q 6.296875 37.9375 6.296875 49.421875 
Q 6.296875 60.640625 12.9375 67.421875 
Q 19.578125 74.21875 30.609375 74.21875 
Q 43.265625 74.21875 49.921875 64.515625 
Q 56.59375 54.828125 56.59375 36.375 
Q 56.59375 19.140625 48.40625 8.859375 
Q 40.234375 -1.421875 26.421875 -1.421875 
Q 22.703125 -1.421875 18.890625 -0.6875 
Q 15.09375 0.046875 10.984375 1.515625 
z
M 30.609375 32.421875 
Q 37.25 32.421875 41.125 36.953125 
Q 45.015625 41.5 45.015625 49.421875 
Q 45.015625 57.28125 41.125 61.84375 
Q 37.25 66.40625 30.609375 66.40625 
Q 23.96875 66.40625 20.09375 61.84375 
Q 16.21875 57.28125 16.21875 49.421875 
Q 16.21875 41.5 20.09375 36.953125 
Q 23.96875 32.421875 30.609375 32.421875 
z
" id="DejaVuSans-57"/>
    </defs>
    <g transform="translate(215.424375 49.296)scale(0.12 -0.12)">
     <use xlink:href="#DejaVuSans-116"/>
     <use x="39.208984" xlink:href="#DejaVuSans-32"/>
     <use x="70.996094" xlink:href="#DejaVuSans-61"/>
     <use x="154.785156" xlink:href="#DejaVuSans-32"/>
     <use x="186.572266" xlink:href="#DejaVuSans-56"/>
     <use x="250.195312" xlink:href="#DejaVuSans-46"/>
     <use x="281.982422" xlink:href="#DejaVuSans-57"/>
    </g>
   </g>
  </g>
 </g>
 <defs>
  <clipPath id="p438fb5c7b8">
   <rect height="354.816" width="357.12" x="57.6" y="55.296"/>
  </clipPath>
 </defs>
</svg>
