<?xml version="1.0" encoding="utf-8" standalone="no"?>
<!DOCTYPE svg PUBLIC "-//W3C//DTD SVG 1.1//EN"
  "http://www.w3.org/Graphics/SVG/1.1/DTD/svg11.dtd">
<!-- Created with matplotlib (https://matplotlib.org/) -->
<svg height="460.8pt" version="1.1" viewBox="0 0 460.8 460.8" width="460.8pt" xmlns="http://www.w3.org/2000/svg" xmlns:xlink="http://www.w3.org/1999/xlink">
 <defs>
  <style type="text/css">
*{stroke-linecap:butt;stroke-linejoin:round;}
  </style>
 </defs>
 <g id="figure_1">
  <g id="patch_1">
   <path d="M 0 460.8 
L 460.8 460.8 
L 460.8 0 
L 0 0 
z
" style="fill:#ffffff;"/>
  </g>
  <g id="axes_1">
   <g id="patch_2">
    <path clip-path="url(#p8c52ee5d09)" d="M 155.441095 337.280147 
L 156.785352 337.325304 
L 158.585553 337.016869 
L 159.789822 336.38157 
L 161.218853 335.278287 
L 161.988286 334.118076 
L 162.69627 332.490067 
L 162.842484 331.089003 
L 162.656081 329.334862 
L 162.143277 328.035975 
L 161.108126 326.585176 
L 159.693398 325.472464 
L 158.452538 324.936349 
L 156.656395 324.61599 
L 155.318358 324.769951 
L 153.580559 325.320379 
L 152.472942 326.126721 
L 151.218961 327.413174 
L 150.612948 328.674476 
L 150.149803 330.381984 
L 150.193767 331.789436 
L 150.634852 333.499942 
L 151.318028 334.70895 
L 152.555351 336.003662 
L 153.710475 336.718219 
L 153.710475 336.718219 
L 153.710475 336.718219 
L 153.710475 336.718219 
L 153.710475 336.718219 
L 153.710475 336.718219 
L 153.710475 336.718219 
L 153.710475 336.718219 
L 153.710475 336.718219 
L 153.710475 336.718219 
L 153.710475 336.718219 
L 153.710475 336.718219 
L 153.710475 336.718219 
L 153.710475 336.718219 
L 153.710475 336.718219 
L 153.710475 336.718219 
L 153.710475 336.718219 
L 153.710475 336.718219 
L 153.710475 336.718219 
L 153.710475 336.718219 
L 153.710475 336.718219 
L 153.710475 336.718219 
L 153.710475 336.718219 
L 153.710475 336.718219 
L 153.710475 336.718219 
L 153.710475 336.718219 
L 153.710475 336.718219 
L 153.710475 336.718219 
L 153.710475 336.718219 
L 153.710475 336.718219 
L 153.710475 336.718219 
L 153.710475 336.718219 
L 153.710475 336.718219 
L 153.710475 336.718219 
L 153.710475 336.718219 
L 153.710475 336.718219 
L 153.710475 336.718219 
L 153.710475 336.718219 
L 153.710475 336.718219 
L 153.710475 336.718219 
L 153.710475 336.718219 
L 153.710475 336.718219 
L 153.710475 336.718219 
L 153.710475 336.718219 
L 153.710475 336.718219 
L 153.710475 336.718219 
L 153.710475 336.718219 
L 153.710475 336.718219 
L 153.710475 336.718219 
L 153.710475 336.718219 
L 153.710475 336.718219 
L 153.710475 336.718219 
L 153.710475 336.718219 
L 153.710475 336.718219 
L 153.710475 336.718219 
L 153.710475 336.718219 
L 153.710475 336.718219 
L 153.710475 336.718219 
L 153.710475 336.718219 
L 153.710475 336.718219 
L 153.710475 336.718219 
L 153.710475 336.718219 
L 153.710475 336.718219 
L 153.710475 336.718219 
L 153.710475 336.718219 
L 153.710475 336.718219 
L 153.710475 336.718219 
L 153.710475 336.718219 
L 153.710475 336.718219 
L 153.710475 336.718219 
L 153.710475 336.718219 
L 153.710475 336.718219 
L 153.710475 336.718219 
L 153.710475 336.718219 
L 153.710475 336.718219 
L 153.710475 336.718219 
L 153.710475 336.718219 
L 153.710475 336.718219 
L 153.710475 336.718219 
L 153.710475 336.718219 
L 153.710475 336.718219 
L 153.710475 336.718219 
L 153.710475 336.718219 
L 153.710475 336.718219 
L 153.710475 336.718219 
L 153.710475 336.718219 
L 153.710475 336.718219 
L 153.710475 336.718219 
L 153.710475 336.718219 
L 153.710475 336.718219 
L 153.710475 336.718219 
L 153.710475 336.718219 
L 153.710475 336.718219 
L 153.710475 336.718219 
L 153.710475 336.718219 
L 153.710475 336.718219 
L 153.710475 336.718219 
L 153.710475 336.718219 
L 153.710475 336.718219 
L 153.710475 336.718219 
L 153.710475 336.718219 
L 153.710475 336.718219 
L 153.710475 336.718219 
L 153.710475 336.718219 
L 153.710475 336.718219 
L 153.710475 336.718219 
L 153.710475 336.718219 
L 153.710475 336.718219 
L 153.710475 336.718219 
L 153.710475 336.718219 
L 153.710475 336.718219 
L 153.710475 336.718219 
L 153.710475 336.718219 
L 153.710475 336.718219 
L 153.710475 336.718219 
L 153.710475 336.718219 
L 153.710475 336.718219 
L 153.710475 336.718219 
L 153.710475 336.718219 
L 153.710475 336.718219 
L 153.710475 336.718219 
L 153.710475 336.718219 
L 153.710475 336.718219 
L 153.710475 336.718219 
L 153.710475 336.718219 
L 153.710475 336.718219 
L 153.710475 336.718219 
L 153.710475 336.718219 
L 153.710475 336.718219 
L 153.710475 336.718219 
L 153.710475 336.718219 
L 153.710475 336.718219 
L 153.710475 336.718219 
L 153.710475 336.718219 
L 153.710475 336.718219 
L 153.710475 336.718219 
L 153.710475 336.718219 
L 153.710475 336.718219 
L 153.710475 336.718219 
L 153.710475 336.718219 
L 153.710475 336.718219 
L 153.710475 336.718219 
L 153.710475 336.718219 
L 153.710475 336.718219 
L 153.710475 336.718219 
z
" style="fill:#993333;stroke:#000000;stroke-linejoin:miter;"/>
   </g>
   <g id="patch_3">
    <path clip-path="url(#p8c52ee5d09)" d="M 156.059771 330.532832 
L 156.938382 331.452194 
L 203.04181 287.39236 
L 202.1632 286.472998 
L 202.1632 286.472998 
L 202.1632 286.472998 
L 202.1632 286.472998 
L 202.1632 286.472998 
L 202.1632 286.472998 
L 202.1632 286.472998 
L 202.1632 286.472998 
L 202.1632 286.472998 
L 202.1632 286.472998 
L 202.1632 286.472998 
L 202.1632 286.472998 
L 202.1632 286.472998 
L 202.1632 286.472998 
L 202.1632 286.472998 
L 202.1632 286.472998 
L 202.1632 286.472998 
L 202.1632 286.472998 
L 202.1632 286.472998 
L 202.1632 286.472998 
L 202.1632 286.472998 
L 202.1632 286.472998 
L 202.1632 286.472998 
L 202.1632 286.472998 
L 202.1632 286.472998 
L 202.1632 286.472998 
L 202.1632 286.472998 
L 202.1632 286.472998 
L 202.1632 286.472998 
L 202.1632 286.472998 
L 202.1632 286.472998 
L 202.1632 286.472998 
L 202.1632 286.472998 
L 202.1632 286.472998 
L 202.1632 286.472998 
L 202.1632 286.472998 
L 202.1632 286.472998 
L 202.1632 286.472998 
L 202.1632 286.472998 
L 202.1632 286.472998 
L 202.1632 286.472998 
L 202.1632 286.472998 
L 202.1632 286.472998 
L 202.1632 286.472998 
L 202.1632 286.472998 
L 202.1632 286.472998 
L 202.1632 286.472998 
L 202.1632 286.472998 
L 202.1632 286.472998 
z
" style="stroke:#000000;stroke-linejoin:miter;"/>
   </g>
   <g id="patch_4">
    <path clip-path="url(#p8c52ee5d09)" d="M 202.972493 280.579637 
L 201.153465 280.720691 
L 199.896994 281.205796 
L 198.353158 282.175068 
L 197.483581 283.233764 
L 196.592922 284.793942 
L 196.323142 286.167024 
L 196.303725 287.936123 
L 196.699794 289.287412 
L 197.556373 290.832294 
L 198.521319 291.830948 
L 200.044173 292.773372 
L 201.341744 293.174885 
L 203.158025 293.284113 
L 204.47053 292.990181 
L 206.13555 292.239471 
L 207.141642 291.322058 
L 208.247746 289.895209 
L 208.701099 288.578931 
L 208.977473 286.825285 
L 208.76709 285.432412 
L 208.146069 283.781324 
L 207.323459 282.652879 
L 205.957091 281.508593 
L 204.308231 280.786894 
L 204.308231 280.786894 
L 204.308231 280.786894 
L 204.308231 280.786894 
L 204.308231 280.786894 
L 204.308231 280.786894 
L 204.308231 280.786894 
L 204.308231 280.786894 
L 204.308231 280.786894 
L 204.308231 280.786894 
L 204.308231 280.786894 
L 204.308231 280.786894 
L 204.308231 280.786894 
L 204.308231 280.786894 
L 204.308231 280.786894 
L 204.308231 280.786894 
L 204.308231 280.786894 
L 204.308231 280.786894 
L 204.308231 280.786894 
L 204.308231 280.786894 
L 204.308231 280.786894 
L 204.308231 280.786894 
L 204.308231 280.786894 
L 204.308231 280.786894 
L 204.308231 280.786894 
L 204.308231 280.786894 
L 204.308231 280.786894 
L 204.308231 280.786894 
L 204.308231 280.786894 
L 204.308231 280.786894 
L 204.308231 280.786894 
L 204.308231 280.786894 
L 204.308231 280.786894 
L 204.308231 280.786894 
L 204.308231 280.786894 
L 204.308231 280.786894 
L 204.308231 280.786894 
L 204.308231 280.786894 
L 204.308231 280.786894 
L 204.308231 280.786894 
L 204.308231 280.786894 
L 204.308231 280.786894 
L 204.308231 280.786894 
L 204.308231 280.786894 
L 204.308231 280.786894 
L 204.308231 280.786894 
L 204.308231 280.786894 
L 204.308231 280.786894 
L 204.308231 280.786894 
L 204.308231 280.786894 
L 204.308231 280.786894 
L 204.308231 280.786894 
L 204.308231 280.786894 
L 204.308231 280.786894 
L 204.308231 280.786894 
L 204.308231 280.786894 
L 204.308231 280.786894 
L 204.308231 280.786894 
L 204.308231 280.786894 
L 204.308231 280.786894 
L 204.308231 280.786894 
L 204.308231 280.786894 
L 204.308231 280.786894 
L 204.308231 280.786894 
L 204.308231 280.786894 
L 204.308231 280.786894 
L 204.308231 280.786894 
L 204.308231 280.786894 
L 204.308231 280.786894 
L 204.308231 280.786894 
L 204.308231 280.786894 
L 204.308231 280.786894 
L 204.308231 280.786894 
L 204.308231 280.786894 
L 204.308231 280.786894 
L 204.308231 280.786894 
L 204.308231 280.786894 
L 204.308231 280.786894 
L 204.308231 280.786894 
L 204.308231 280.786894 
L 204.308231 280.786894 
L 204.308231 280.786894 
L 204.308231 280.786894 
L 204.308231 280.786894 
L 204.308231 280.786894 
L 204.308231 280.786894 
L 204.308231 280.786894 
L 204.308231 280.786894 
L 204.308231 280.786894 
L 204.308231 280.786894 
L 204.308231 280.786894 
L 204.308231 280.786894 
L 204.308231 280.786894 
L 204.308231 280.786894 
L 204.308231 280.786894 
L 204.308231 280.786894 
L 204.308231 280.786894 
L 204.308231 280.786894 
L 204.308231 280.786894 
L 204.308231 280.786894 
L 204.308231 280.786894 
L 204.308231 280.786894 
L 204.308231 280.786894 
L 204.308231 280.786894 
L 204.308231 280.786894 
L 204.308231 280.786894 
L 204.308231 280.786894 
L 204.308231 280.786894 
L 204.308231 280.786894 
L 204.308231 280.786894 
L 204.308231 280.786894 
L 204.308231 280.786894 
L 204.308231 280.786894 
L 204.308231 280.786894 
L 204.308231 280.786894 
L 204.308231 280.786894 
L 204.308231 280.786894 
L 204.308231 280.786894 
L 204.308231 280.786894 
L 204.308231 280.786894 
L 204.308231 280.786894 
L 204.308231 280.786894 
L 204.308231 280.786894 
L 204.308231 280.786894 
L 204.308231 280.786894 
L 204.308231 280.786894 
L 204.308231 280.786894 
L 204.308231 280.786894 
L 204.308231 280.786894 
L 204.308231 280.786894 
L 204.308231 280.786894 
L 204.308231 280.786894 
L 204.308231 280.786894 
L 204.308231 280.786894 
L 204.308231 280.786894 
L 204.308231 280.786894 
L 204.308231 280.786894 
L 204.308231 280.786894 
L 204.308231 280.786894 
L 204.308231 280.786894 
L 204.308231 280.786894 
L 204.308231 280.786894 
L 204.308231 280.786894 
L 204.308231 280.786894 
L 204.308231 280.786894 
z
" style="fill:#993333;stroke:#000000;stroke-linejoin:miter;"/>
   </g>
   <g id="patch_5">
    <path clip-path="url(#p8c52ee5d09)" d="M 235.62091 232.370382 
L 202.062122 286.597708 
L 203.143485 287.266913 
L 236.702273 233.039588 
L 236.702273 233.039588 
L 236.702273 233.039588 
L 236.702273 233.039588 
L 236.702273 233.039588 
L 236.702273 233.039588 
L 236.702273 233.039588 
L 236.702273 233.039588 
L 236.702273 233.039588 
L 236.702273 233.039588 
L 236.702273 233.039588 
L 236.702273 233.039588 
L 236.702273 233.039588 
L 236.702273 233.039588 
L 236.702273 233.039588 
L 236.702273 233.039588 
L 236.702273 233.039588 
L 236.702273 233.039588 
L 236.702273 233.039588 
L 236.702273 233.039588 
L 236.702273 233.039588 
L 236.702273 233.039588 
L 236.702273 233.039588 
L 236.702273 233.039588 
L 236.702273 233.039588 
L 236.702273 233.039588 
L 236.702273 233.039588 
L 236.702273 233.039588 
L 236.702273 233.039588 
L 236.702273 233.039588 
L 236.702273 233.039588 
L 236.702273 233.039588 
L 236.702273 233.039588 
L 236.702273 233.039588 
L 236.702273 233.039588 
L 236.702273 233.039588 
L 236.702273 233.039588 
L 236.702273 233.039588 
L 236.702273 233.039588 
L 236.702273 233.039588 
L 236.702273 233.039588 
L 236.702273 233.039588 
L 236.702273 233.039588 
L 236.702273 233.039588 
L 236.702273 233.039588 
L 236.702273 233.039588 
L 236.702273 233.039588 
L 236.702273 233.039588 
L 236.702273 233.039588 
z
" style="stroke:#000000;stroke-linejoin:miter;"/>
   </g>
   <g id="text_1">
    <!-- t = 5.3 -->
    <defs>
     <path d="M 18.3125 70.21875 
L 18.3125 54.6875 
L 36.8125 54.6875 
L 36.8125 47.703125 
L 18.3125 47.703125 
L 18.3125 18.015625 
Q 18.3125 11.328125 20.140625 9.421875 
Q 21.96875 7.515625 27.59375 7.515625 
L 36.8125 7.515625 
L 36.8125 0 
L 27.59375 0 
Q 17.1875 0 13.234375 3.875 
Q 9.28125 7.765625 9.28125 18.015625 
L 9.28125 47.703125 
L 2.6875 47.703125 
L 2.6875 54.6875 
L 9.28125 54.6875 
L 9.28125 70.21875 
z
" id="DejaVuSans-116"/>
     <path id="DejaVuSans-32"/>
     <path d="M 10.59375 45.40625 
L 73.1875 45.40625 
L 73.1875 37.203125 
L 10.59375 37.203125 
z
M 10.59375 25.484375 
L 73.1875 25.484375 
L 73.1875 17.1875 
L 10.59375 17.1875 
z
" id="DejaVuSans-61"/>
     <path d="M 10.796875 72.90625 
L 49.515625 72.90625 
L 49.515625 64.59375 
L 19.828125 64.59375 
L 19.828125 46.734375 
Q 21.96875 47.46875 24.109375 47.828125 
Q 26.265625 48.1875 28.421875 48.1875 
Q 40.625 48.1875 47.75 41.5 
Q 54.890625 34.8125 54.890625 23.390625 
Q 54.890625 11.625 47.5625 5.09375 
Q 40.234375 -1.421875 26.90625 -1.421875 
Q 22.3125 -1.421875 17.546875 -0.640625 
Q 12.796875 0.140625 7.71875 1.703125 
L 7.71875 11.625 
Q 12.109375 9.234375 16.796875 8.0625 
Q 21.484375 6.890625 26.703125 6.890625 
Q 35.15625 6.890625 40.078125 11.328125 
Q 45.015625 15.765625 45.015625 23.390625 
Q 45.015625 31 40.078125 35.4375 
Q 35.15625 39.890625 26.703125 39.890625 
Q 22.75 39.890625 18.8125 39.015625 
Q 14.890625 38.140625 10.796875 36.28125 
z
" id="DejaVuSans-53"/>
     <path d="M 10.6875 12.40625 
L 21 12.40625 
L 21 0 
L 10.6875 0 
z
" id="DejaVuSans-46"/>
     <path d="M 40.578125 39.3125 
Q 47.65625 37.796875 51.625 33 
Q 55.609375 28.21875 55.609375 21.1875 
Q 55.609375 10.40625 48.1875 4.484375 
Q 40.765625 -1.421875 27.09375 -1.421875 
Q 22.515625 -1.421875 17.65625 -0.515625 
Q 12.796875 0.390625 7.625 2.203125 
L 7.625 11.71875 
Q 11.71875 9.328125 16.59375 8.109375 
Q 21.484375 6.890625 26.8125 6.890625 
Q 36.078125 6.890625 40.9375 10.546875 
Q 45.796875 14.203125 45.796875 21.1875 
Q 45.796875 27.640625 41.28125 31.265625 
Q 36.765625 34.90625 28.71875 34.90625 
L 20.21875 34.90625 
L 20.21875 43.015625 
L 29.109375 43.015625 
Q 36.375 43.015625 40.234375 45.921875 
Q 44.09375 48.828125 44.09375 54.296875 
Q 44.09375 59.90625 40.109375 62.90625 
Q 36.140625 65.921875 28.71875 65.921875 
Q 24.65625 65.921875 20.015625 65.03125 
Q 15.375 64.15625 9.8125 62.3125 
L 9.8125 71.09375 
Q 15.4375 72.65625 20.34375 73.4375 
Q 25.25 74.21875 29.59375 74.21875 
Q 40.828125 74.21875 47.359375 69.109375 
Q 53.90625 64.015625 53.90625 55.328125 
Q 53.90625 49.265625 50.4375 45.09375 
Q 46.96875 40.921875 40.578125 39.3125 
z
" id="DejaVuSans-51"/>
    </defs>
    <g transform="translate(215.424375 49.296)scale(0.12 -0.12)">
     <use xlink:href="#DejaVuSans-116"/>
     <use x="39.208984" xlink:href="#DejaVuSans-32"/>
     <use x="70.996094" xlink:href="#DejaVuSans-61"/>
     <use x="154.785156" xlink:href="#DejaVuSans-32"/>
     <use x="186.572266" xlink:href="#DejaVuSans-53"/>
     <use x="250.195312" xlink:href="#DejaVuSans-46"/>
     <use x="281.982422" xlink:href="#DejaVuSans-51"/>
    </g>
   </g>
  </g>
 </g>
 <defs>
  <clipPath id="p8c52ee5d09">
   <rect height="354.816" width="357.12" x="57.6" y="55.296"/>
  </clipPath>
 </defs>
</svg>
