<?xml version="1.0" encoding="utf-8" standalone="no"?>
<!DOCTYPE svg PUBLIC "-//W3C//DTD SVG 1.1//EN"
  "http://www.w3.org/Graphics/SVG/1.1/DTD/svg11.dtd">
<!-- Created with matplotlib (https://matplotlib.org/) -->
<svg height="460.8pt" version="1.1" viewBox="0 0 460.8 460.8" width="460.8pt" xmlns="http://www.w3.org/2000/svg" xmlns:xlink="http://www.w3.org/1999/xlink">
 <defs>
  <style type="text/css">
*{stroke-linecap:butt;stroke-linejoin:round;}
  </style>
 </defs>
 <g id="figure_1">
  <g id="patch_1">
   <path d="M 0 460.8 
L 460.8 460.8 
L 460.8 0 
L 0 0 
z
" style="fill:#ffffff;"/>
  </g>
  <g id="axes_1">
   <g id="patch_2">
    <path clip-path="url(#p2ba2e4a3c1)" d="M 325.128075 310.106237 
L 324.070162 311.540523 
L 323.451442 313.230722 
L 323.32689 314.576693 
L 323.57977 316.383572 
L 324.14138 317.607762 
L 325.203945 319.088935 
L 326.314215 319.89162 
L 327.926313 320.684443 
L 329.31341 320.869097 
L 331.080343 320.779461 
L 332.404657 320.300874 
L 333.893818 319.350724 
L 334.831112 318.326072 
L 335.677902 316.748037 
L 335.998693 315.42819 
L 335.995789 313.60863 
L 335.621536 312.316732 
L 334.769649 310.701137 
L 333.791982 309.75349 
L 332.299683 308.737415 
L 330.957969 308.366037 
L 329.190626 308.198252 
L 327.813364 308.494068 
L 326.203683 309.215653 
L 326.203683 309.215653 
L 326.203683 309.215653 
L 326.203683 309.215653 
L 326.203683 309.215653 
L 326.203683 309.215653 
L 326.203683 309.215653 
L 326.203683 309.215653 
L 326.203683 309.215653 
L 326.203683 309.215653 
L 326.203683 309.215653 
L 326.203683 309.215653 
L 326.203683 309.215653 
L 326.203683 309.215653 
L 326.203683 309.215653 
L 326.203683 309.215653 
L 326.203683 309.215653 
L 326.203683 309.215653 
L 326.203683 309.215653 
L 326.203683 309.215653 
L 326.203683 309.215653 
L 326.203683 309.215653 
L 326.203683 309.215653 
L 326.203683 309.215653 
L 326.203683 309.215653 
L 326.203683 309.215653 
L 326.203683 309.215653 
L 326.203683 309.215653 
L 326.203683 309.215653 
L 326.203683 309.215653 
L 326.203683 309.215653 
L 326.203683 309.215653 
L 326.203683 309.215653 
L 326.203683 309.215653 
L 326.203683 309.215653 
L 326.203683 309.215653 
L 326.203683 309.215653 
L 326.203683 309.215653 
L 326.203683 309.215653 
L 326.203683 309.215653 
L 326.203683 309.215653 
L 326.203683 309.215653 
L 326.203683 309.215653 
L 326.203683 309.215653 
L 326.203683 309.215653 
L 326.203683 309.215653 
L 326.203683 309.215653 
L 326.203683 309.215653 
L 326.203683 309.215653 
L 326.203683 309.215653 
L 326.203683 309.215653 
L 326.203683 309.215653 
L 326.203683 309.215653 
L 326.203683 309.215653 
L 326.203683 309.215653 
L 326.203683 309.215653 
L 326.203683 309.215653 
L 326.203683 309.215653 
L 326.203683 309.215653 
L 326.203683 309.215653 
L 326.203683 309.215653 
L 326.203683 309.215653 
L 326.203683 309.215653 
L 326.203683 309.215653 
L 326.203683 309.215653 
L 326.203683 309.215653 
L 326.203683 309.215653 
L 326.203683 309.215653 
L 326.203683 309.215653 
L 326.203683 309.215653 
L 326.203683 309.215653 
L 326.203683 309.215653 
L 326.203683 309.215653 
L 326.203683 309.215653 
L 326.203683 309.215653 
L 326.203683 309.215653 
L 326.203683 309.215653 
L 326.203683 309.215653 
L 326.203683 309.215653 
L 326.203683 309.215653 
L 326.203683 309.215653 
L 326.203683 309.215653 
L 326.203683 309.215653 
L 326.203683 309.215653 
L 326.203683 309.215653 
L 326.203683 309.215653 
L 326.203683 309.215653 
L 326.203683 309.215653 
L 326.203683 309.215653 
L 326.203683 309.215653 
L 326.203683 309.215653 
L 326.203683 309.215653 
L 326.203683 309.215653 
L 326.203683 309.215653 
L 326.203683 309.215653 
L 326.203683 309.215653 
L 326.203683 309.215653 
L 326.203683 309.215653 
L 326.203683 309.215653 
L 326.203683 309.215653 
L 326.203683 309.215653 
L 326.203683 309.215653 
L 326.203683 309.215653 
L 326.203683 309.215653 
L 326.203683 309.215653 
L 326.203683 309.215653 
L 326.203683 309.215653 
L 326.203683 309.215653 
L 326.203683 309.215653 
L 326.203683 309.215653 
L 326.203683 309.215653 
L 326.203683 309.215653 
L 326.203683 309.215653 
L 326.203683 309.215653 
L 326.203683 309.215653 
L 326.203683 309.215653 
L 326.203683 309.215653 
L 326.203683 309.215653 
L 326.203683 309.215653 
L 326.203683 309.215653 
L 326.203683 309.215653 
L 326.203683 309.215653 
L 326.203683 309.215653 
L 326.203683 309.215653 
L 326.203683 309.215653 
L 326.203683 309.215653 
L 326.203683 309.215653 
L 326.203683 309.215653 
L 326.203683 309.215653 
L 326.203683 309.215653 
L 326.203683 309.215653 
L 326.203683 309.215653 
L 326.203683 309.215653 
L 326.203683 309.215653 
L 326.203683 309.215653 
L 326.203683 309.215653 
L 326.203683 309.215653 
L 326.203683 309.215653 
L 326.203683 309.215653 
L 326.203683 309.215653 
L 326.203683 309.215653 
L 326.203683 309.215653 
L 326.203683 309.215653 
L 326.203683 309.215653 
L 326.203683 309.215653 
z
" style="fill:#993333;stroke:#000000;stroke-linejoin:miter;"/>
   </g>
   <g id="patch_3">
    <path clip-path="url(#p2ba2e4a3c1)" d="M 273.197373 284.961109 
L 329.389623 315.114485 
L 329.990921 313.993938 
L 273.79867 283.840562 
L 273.79867 283.840562 
L 273.79867 283.840562 
L 273.79867 283.840562 
L 273.79867 283.840562 
L 273.79867 283.840562 
L 273.79867 283.840562 
L 273.79867 283.840562 
L 273.79867 283.840562 
L 273.79867 283.840562 
L 273.79867 283.840562 
L 273.79867 283.840562 
L 273.79867 283.840562 
L 273.79867 283.840562 
L 273.79867 283.840562 
L 273.79867 283.840562 
L 273.79867 283.840562 
L 273.79867 283.840562 
L 273.79867 283.840562 
L 273.79867 283.840562 
L 273.79867 283.840562 
L 273.79867 283.840562 
L 273.79867 283.840562 
L 273.79867 283.840562 
L 273.79867 283.840562 
L 273.79867 283.840562 
L 273.79867 283.840562 
L 273.79867 283.840562 
L 273.79867 283.840562 
L 273.79867 283.840562 
L 273.79867 283.840562 
L 273.79867 283.840562 
L 273.79867 283.840562 
L 273.79867 283.840562 
L 273.79867 283.840562 
L 273.79867 283.840562 
L 273.79867 283.840562 
L 273.79867 283.840562 
L 273.79867 283.840562 
L 273.79867 283.840562 
L 273.79867 283.840562 
L 273.79867 283.840562 
L 273.79867 283.840562 
L 273.79867 283.840562 
L 273.79867 283.840562 
L 273.79867 283.840562 
L 273.79867 283.840562 
L 273.79867 283.840562 
L 273.79867 283.840562 
z
" style="stroke:#000000;stroke-linejoin:miter;"/>
   </g>
   <g id="patch_4">
    <path clip-path="url(#p2ba2e4a3c1)" d="M 267.20363 283.373055 
L 267.17306 284.719574 
L 267.48053 286.516343 
L 268.127734 287.723873 
L 269.230505 289.142085 
L 270.397024 289.914981 
L 272.0251 290.607407 
L 273.42533 290.756438 
L 275.180102 290.553548 
L 276.471217 290.042225 
L 277.923054 288.993694 
L 278.788945 287.947207 
L 279.582388 286.309752 
L 279.811054 284.984318 
L 279.75184 283.158845 
L 279.287296 281.878975 
L 278.389922 280.312424 
L 277.345904 279.391476 
L 275.83008 278.467392 
L 274.4622 278.130846 
L 272.699052 278.075478 
L 271.342215 278.405733 
L 269.763423 279.232636 
L 268.4676 280.481807 
L 267.766741 281.63764 
L 267.766741 281.63764 
L 267.766741 281.63764 
L 267.766741 281.63764 
L 267.766741 281.63764 
L 267.766741 281.63764 
L 267.766741 281.63764 
L 267.766741 281.63764 
L 267.766741 281.63764 
L 267.766741 281.63764 
L 267.766741 281.63764 
L 267.766741 281.63764 
L 267.766741 281.63764 
L 267.766741 281.63764 
L 267.766741 281.63764 
L 267.766741 281.63764 
L 267.766741 281.63764 
L 267.766741 281.63764 
L 267.766741 281.63764 
L 267.766741 281.63764 
L 267.766741 281.63764 
L 267.766741 281.63764 
L 267.766741 281.63764 
L 267.766741 281.63764 
L 267.766741 281.63764 
L 267.766741 281.63764 
L 267.766741 281.63764 
L 267.766741 281.63764 
L 267.766741 281.63764 
L 267.766741 281.63764 
L 267.766741 281.63764 
L 267.766741 281.63764 
L 267.766741 281.63764 
L 267.766741 281.63764 
L 267.766741 281.63764 
L 267.766741 281.63764 
L 267.766741 281.63764 
L 267.766741 281.63764 
L 267.766741 281.63764 
L 267.766741 281.63764 
L 267.766741 281.63764 
L 267.766741 281.63764 
L 267.766741 281.63764 
L 267.766741 281.63764 
L 267.766741 281.63764 
L 267.766741 281.63764 
L 267.766741 281.63764 
L 267.766741 281.63764 
L 267.766741 281.63764 
L 267.766741 281.63764 
L 267.766741 281.63764 
L 267.766741 281.63764 
L 267.766741 281.63764 
L 267.766741 281.63764 
L 267.766741 281.63764 
L 267.766741 281.63764 
L 267.766741 281.63764 
L 267.766741 281.63764 
L 267.766741 281.63764 
L 267.766741 281.63764 
L 267.766741 281.63764 
L 267.766741 281.63764 
L 267.766741 281.63764 
L 267.766741 281.63764 
L 267.766741 281.63764 
L 267.766741 281.63764 
L 267.766741 281.63764 
L 267.766741 281.63764 
L 267.766741 281.63764 
L 267.766741 281.63764 
L 267.766741 281.63764 
L 267.766741 281.63764 
L 267.766741 281.63764 
L 267.766741 281.63764 
L 267.766741 281.63764 
L 267.766741 281.63764 
L 267.766741 281.63764 
L 267.766741 281.63764 
L 267.766741 281.63764 
L 267.766741 281.63764 
L 267.766741 281.63764 
L 267.766741 281.63764 
L 267.766741 281.63764 
L 267.766741 281.63764 
L 267.766741 281.63764 
L 267.766741 281.63764 
L 267.766741 281.63764 
L 267.766741 281.63764 
L 267.766741 281.63764 
L 267.766741 281.63764 
L 267.766741 281.63764 
L 267.766741 281.63764 
L 267.766741 281.63764 
L 267.766741 281.63764 
L 267.766741 281.63764 
L 267.766741 281.63764 
L 267.766741 281.63764 
L 267.766741 281.63764 
L 267.766741 281.63764 
L 267.766741 281.63764 
L 267.766741 281.63764 
L 267.766741 281.63764 
L 267.766741 281.63764 
L 267.766741 281.63764 
L 267.766741 281.63764 
L 267.766741 281.63764 
L 267.766741 281.63764 
L 267.766741 281.63764 
L 267.766741 281.63764 
L 267.766741 281.63764 
L 267.766741 281.63764 
L 267.766741 281.63764 
L 267.766741 281.63764 
L 267.766741 281.63764 
L 267.766741 281.63764 
L 267.766741 281.63764 
L 267.766741 281.63764 
L 267.766741 281.63764 
L 267.766741 281.63764 
L 267.766741 281.63764 
L 267.766741 281.63764 
L 267.766741 281.63764 
L 267.766741 281.63764 
L 267.766741 281.63764 
L 267.766741 281.63764 
L 267.766741 281.63764 
L 267.766741 281.63764 
L 267.766741 281.63764 
L 267.766741 281.63764 
L 267.766741 281.63764 
L 267.766741 281.63764 
L 267.766741 281.63764 
L 267.766741 281.63764 
L 267.766741 281.63764 
L 267.766741 281.63764 
L 267.766741 281.63764 
L 267.766741 281.63764 
L 267.766741 281.63764 
L 267.766741 281.63764 
L 267.766741 281.63764 
L 267.766741 281.63764 
L 267.766741 281.63764 
L 267.766741 281.63764 
L 267.766741 281.63764 
L 267.766741 281.63764 
z
" style="fill:#993333;stroke:#000000;stroke-linejoin:miter;"/>
   </g>
   <g id="patch_5">
    <path clip-path="url(#p2ba2e4a3c1)" d="M 235.64605 233.07518 
L 272.983187 284.773664 
L 274.014121 284.029114 
L 236.676985 232.330629 
L 236.676985 232.330629 
L 236.676985 232.330629 
L 236.676985 232.330629 
L 236.676985 232.330629 
L 236.676985 232.330629 
L 236.676985 232.330629 
L 236.676985 232.330629 
L 236.676985 232.330629 
L 236.676985 232.330629 
L 236.676985 232.330629 
L 236.676985 232.330629 
L 236.676985 232.330629 
L 236.676985 232.330629 
L 236.676985 232.330629 
L 236.676985 232.330629 
L 236.676985 232.330629 
L 236.676985 232.330629 
L 236.676985 232.330629 
L 236.676985 232.330629 
L 236.676985 232.330629 
L 236.676985 232.330629 
L 236.676985 232.330629 
L 236.676985 232.330629 
L 236.676985 232.330629 
L 236.676985 232.330629 
L 236.676985 232.330629 
L 236.676985 232.330629 
L 236.676985 232.330629 
L 236.676985 232.330629 
L 236.676985 232.330629 
L 236.676985 232.330629 
L 236.676985 232.330629 
L 236.676985 232.330629 
L 236.676985 232.330629 
L 236.676985 232.330629 
L 236.676985 232.330629 
L 236.676985 232.330629 
L 236.676985 232.330629 
L 236.676985 232.330629 
L 236.676985 232.330629 
L 236.676985 232.330629 
L 236.676985 232.330629 
L 236.676985 232.330629 
L 236.676985 232.330629 
L 236.676985 232.330629 
L 236.676985 232.330629 
L 236.676985 232.330629 
L 236.676985 232.330629 
z
" style="stroke:#000000;stroke-linejoin:miter;"/>
   </g>
   <g id="text_1">
    <!-- t = 7.5 -->
    <defs>
     <path d="M 18.3125 70.21875 
L 18.3125 54.6875 
L 36.8125 54.6875 
L 36.8125 47.703125 
L 18.3125 47.703125 
L 18.3125 18.015625 
Q 18.3125 11.328125 20.140625 9.421875 
Q 21.96875 7.515625 27.59375 7.515625 
L 36.8125 7.515625 
L 36.8125 0 
L 27.59375 0 
Q 17.1875 0 13.234375 3.875 
Q 9.28125 7.765625 9.28125 18.015625 
L 9.28125 47.703125 
L 2.6875 47.703125 
L 2.6875 54.6875 
L 9.28125 54.6875 
L 9.28125 70.21875 
z
" id="DejaVuSans-116"/>
     <path id="DejaVuSans-32"/>
     <path d="M 10.59375 45.40625 
L 73.1875 45.40625 
L 73.1875 37.203125 
L 10.59375 37.203125 
z
M 10.59375 25.484375 
L 73.1875 25.484375 
L 73.1875 17.1875 
L 10.59375 17.1875 
z
" id="DejaVuSans-61"/>
     <path d="M 8.203125 72.90625 
L 55.078125 72.90625 
L 55.078125 68.703125 
L 28.609375 0 
L 18.3125 0 
L 43.21875 64.59375 
L 8.203125 64.59375 
z
" id="DejaVuSans-55"/>
     <path d="M 10.6875 12.40625 
L 21 12.40625 
L 21 0 
L 10.6875 0 
z
" id="DejaVuSans-46"/>
     <path d="M 10.796875 72.90625 
L 49.515625 72.90625 
L 49.515625 64.59375 
L 19.828125 64.59375 
L 19.828125 46.734375 
Q 21.96875 47.46875 24.109375 47.828125 
Q 26.265625 48.1875 28.421875 48.1875 
Q 40.625 48.1875 47.75 41.5 
Q 54.890625 34.8125 54.890625 23.390625 
Q 54.890625 11.625 47.5625 5.09375 
Q 40.234375 -1.421875 26.90625 -1.421875 
Q 22.3125 -1.421875 17.546875 -0.640625 
Q 12.796875 0.140625 7.71875 1.703125 
L 7.71875 11.625 
Q 12.109375 9.234375 16.796875 8.0625 
Q 21.484375 6.890625 26.703125 6.890625 
Q 35.15625 6.890625 40.078125 11.328125 
Q 45.015625 15.765625 45.015625 23.390625 
Q 45.015625 31 40.078125 35.4375 
Q 35.15625 39.890625 26.703125 39.890625 
Q 22.75 39.890625 18.8125 39.015625 
Q 14.890625 38.140625 10.796875 36.28125 
z
" id="DejaVuSans-53"/>
    </defs>
    <g transform="translate(215.424375 49.296)scale(0.12 -0.12)">
     <use xlink:href="#DejaVuSans-116"/>
     <use x="39.208984" xlink:href="#DejaVuSans-32"/>
     <use x="70.996094" xlink:href="#DejaVuSans-61"/>
     <use x="154.785156" xlink:href="#DejaVuSans-32"/>
     <use x="186.572266" xlink:href="#DejaVuSans-55"/>
     <use x="250.195312" xlink:href="#DejaVuSans-46"/>
     <use x="281.982422" xlink:href="#DejaVuSans-53"/>
    </g>
   </g>
  </g>
 </g>
 <defs>
  <clipPath id="p2ba2e4a3c1">
   <rect height="354.816" width="357.12" x="57.6" y="55.296"/>
  </clipPath>
 </defs>
</svg>
