<?xml version="1.0" encoding="utf-8" standalone="no"?>
<!DOCTYPE svg PUBLIC "-//W3C//DTD SVG 1.1//EN"
  "http://www.w3.org/Graphics/SVG/1.1/DTD/svg11.dtd">
<!-- Created with matplotlib (https://matplotlib.org/) -->
<svg height="460.8pt" version="1.1" viewBox="0 0 460.8 460.8" width="460.8pt" xmlns="http://www.w3.org/2000/svg" xmlns:xlink="http://www.w3.org/1999/xlink">
 <defs>
  <style type="text/css">
*{stroke-linecap:butt;stroke-linejoin:round;}
  </style>
 </defs>
 <g id="figure_1">
  <g id="patch_1">
   <path d="M 0 460.8 
L 460.8 460.8 
L 460.8 0 
L 0 0 
z
" style="fill:#ffffff;"/>
  </g>
  <g id="axes_1">
   <g id="patch_2">
    <path clip-path="url(#p9ec0228963)" d="M 331.262094 311.64813 
L 332.084146 312.744138 
L 333.388345 313.979651 
L 334.65816 314.56762 
L 336.372097 315.006374 
L 337.778779 314.942348 
L 339.482822 314.476921 
L 340.681968 313.776577 
L 341.958908 312.520922 
L 342.656924 311.355728 
L 343.194121 309.617272 
L 343.220109 308.272508 
L 342.886039 306.476887 
L 342.233636 305.281798 
L 341.110091 303.868642 
L 339.939028 303.115828 
L 338.30109 302.431127 
L 336.898085 302.304903 
L 335.146779 302.516296 
L 333.855335 303.047565 
L 332.419442 304.103295 
L 331.327013 305.533744 
L 330.808643 306.782121 
L 330.513924 308.582649 
L 330.686946 309.918355 
L 330.686946 309.918355 
L 330.686946 309.918355 
L 330.686946 309.918355 
L 330.686946 309.918355 
L 330.686946 309.918355 
L 330.686946 309.918355 
L 330.686946 309.918355 
L 330.686946 309.918355 
L 330.686946 309.918355 
L 330.686946 309.918355 
L 330.686946 309.918355 
L 330.686946 309.918355 
L 330.686946 309.918355 
L 330.686946 309.918355 
L 330.686946 309.918355 
L 330.686946 309.918355 
L 330.686946 309.918355 
L 330.686946 309.918355 
L 330.686946 309.918355 
L 330.686946 309.918355 
L 330.686946 309.918355 
L 330.686946 309.918355 
L 330.686946 309.918355 
L 330.686946 309.918355 
L 330.686946 309.918355 
L 330.686946 309.918355 
L 330.686946 309.918355 
L 330.686946 309.918355 
L 330.686946 309.918355 
L 330.686946 309.918355 
L 330.686946 309.918355 
L 330.686946 309.918355 
L 330.686946 309.918355 
L 330.686946 309.918355 
L 330.686946 309.918355 
L 330.686946 309.918355 
L 330.686946 309.918355 
L 330.686946 309.918355 
L 330.686946 309.918355 
L 330.686946 309.918355 
L 330.686946 309.918355 
L 330.686946 309.918355 
L 330.686946 309.918355 
L 330.686946 309.918355 
L 330.686946 309.918355 
L 330.686946 309.918355 
L 330.686946 309.918355 
L 330.686946 309.918355 
L 330.686946 309.918355 
L 330.686946 309.918355 
L 330.686946 309.918355 
L 330.686946 309.918355 
L 330.686946 309.918355 
L 330.686946 309.918355 
L 330.686946 309.918355 
L 330.686946 309.918355 
L 330.686946 309.918355 
L 330.686946 309.918355 
L 330.686946 309.918355 
L 330.686946 309.918355 
L 330.686946 309.918355 
L 330.686946 309.918355 
L 330.686946 309.918355 
L 330.686946 309.918355 
L 330.686946 309.918355 
L 330.686946 309.918355 
L 330.686946 309.918355 
L 330.686946 309.918355 
L 330.686946 309.918355 
L 330.686946 309.918355 
L 330.686946 309.918355 
L 330.686946 309.918355 
L 330.686946 309.918355 
L 330.686946 309.918355 
L 330.686946 309.918355 
L 330.686946 309.918355 
L 330.686946 309.918355 
L 330.686946 309.918355 
L 330.686946 309.918355 
L 330.686946 309.918355 
L 330.686946 309.918355 
L 330.686946 309.918355 
L 330.686946 309.918355 
L 330.686946 309.918355 
L 330.686946 309.918355 
L 330.686946 309.918355 
L 330.686946 309.918355 
L 330.686946 309.918355 
L 330.686946 309.918355 
L 330.686946 309.918355 
L 330.686946 309.918355 
L 330.686946 309.918355 
L 330.686946 309.918355 
L 330.686946 309.918355 
L 330.686946 309.918355 
L 330.686946 309.918355 
L 330.686946 309.918355 
L 330.686946 309.918355 
L 330.686946 309.918355 
L 330.686946 309.918355 
L 330.686946 309.918355 
L 330.686946 309.918355 
L 330.686946 309.918355 
L 330.686946 309.918355 
L 330.686946 309.918355 
L 330.686946 309.918355 
L 330.686946 309.918355 
L 330.686946 309.918355 
L 330.686946 309.918355 
L 330.686946 309.918355 
L 330.686946 309.918355 
L 330.686946 309.918355 
L 330.686946 309.918355 
L 330.686946 309.918355 
L 330.686946 309.918355 
L 330.686946 309.918355 
L 330.686946 309.918355 
L 330.686946 309.918355 
L 330.686946 309.918355 
L 330.686946 309.918355 
L 330.686946 309.918355 
L 330.686946 309.918355 
L 330.686946 309.918355 
L 330.686946 309.918355 
L 330.686946 309.918355 
L 330.686946 309.918355 
L 330.686946 309.918355 
L 330.686946 309.918355 
L 330.686946 309.918355 
L 330.686946 309.918355 
L 330.686946 309.918355 
L 330.686946 309.918355 
L 330.686946 309.918355 
L 330.686946 309.918355 
L 330.686946 309.918355 
L 330.686946 309.918355 
L 330.686946 309.918355 
L 330.686946 309.918355 
L 330.686946 309.918355 
L 330.686946 309.918355 
L 330.686946 309.918355 
L 330.686946 309.918355 
L 330.686946 309.918355 
L 330.686946 309.918355 
z
" style="fill:#993333;stroke:#000000;stroke-linejoin:miter;"/>
   </g>
   <g id="patch_3">
    <path clip-path="url(#p9ec0228963)" d="M 291.726018 263.624275 
L 336.438671 309.094855 
L 337.345414 308.203227 
L 292.63276 262.732646 
L 292.63276 262.732646 
L 292.63276 262.732646 
L 292.63276 262.732646 
L 292.63276 262.732646 
L 292.63276 262.732646 
L 292.63276 262.732646 
L 292.63276 262.732646 
L 292.63276 262.732646 
L 292.63276 262.732646 
L 292.63276 262.732646 
L 292.63276 262.732646 
L 292.63276 262.732646 
L 292.63276 262.732646 
L 292.63276 262.732646 
L 292.63276 262.732646 
L 292.63276 262.732646 
L 292.63276 262.732646 
L 292.63276 262.732646 
L 292.63276 262.732646 
L 292.63276 262.732646 
L 292.63276 262.732646 
L 292.63276 262.732646 
L 292.63276 262.732646 
L 292.63276 262.732646 
L 292.63276 262.732646 
L 292.63276 262.732646 
L 292.63276 262.732646 
L 292.63276 262.732646 
L 292.63276 262.732646 
L 292.63276 262.732646 
L 292.63276 262.732646 
L 292.63276 262.732646 
L 292.63276 262.732646 
L 292.63276 262.732646 
L 292.63276 262.732646 
L 292.63276 262.732646 
L 292.63276 262.732646 
L 292.63276 262.732646 
L 292.63276 262.732646 
L 292.63276 262.732646 
L 292.63276 262.732646 
L 292.63276 262.732646 
L 292.63276 262.732646 
L 292.63276 262.732646 
L 292.63276 262.732646 
L 292.63276 262.732646 
L 292.63276 262.732646 
L 292.63276 262.732646 
z
" style="stroke:#000000;stroke-linejoin:miter;"/>
   </g>
   <g id="patch_4">
    <path clip-path="url(#p9ec0228963)" d="M 285.815543 263.164044 
L 286.058035 264.972346 
L 286.612601 266.199744 
L 287.666638 267.686998 
L 288.772277 268.496049 
L 290.379792 269.298123 
L 291.765806 269.490744 
L 293.533224 269.411263 
L 294.860267 268.940294 
L 296.354863 267.998716 
L 297.298029 266.979467 
L 298.153874 265.406325 
L 298.482243 264.088342 
L 298.489795 262.268795 
L 298.122971 260.974768 
L 297.280382 259.354305 
L 296.308176 258.401056 
L 294.821741 257.376423 
L 293.482184 256.99734 
L 291.715833 256.819403 
L 290.336894 257.1073 
L 288.723094 257.819623 
L 287.642385 258.704012 
L 286.576249 260.132195 
L 285.947827 261.818811 
L 285.947827 261.818811 
L 285.947827 261.818811 
L 285.947827 261.818811 
L 285.947827 261.818811 
L 285.947827 261.818811 
L 285.947827 261.818811 
L 285.947827 261.818811 
L 285.947827 261.818811 
L 285.947827 261.818811 
L 285.947827 261.818811 
L 285.947827 261.818811 
L 285.947827 261.818811 
L 285.947827 261.818811 
L 285.947827 261.818811 
L 285.947827 261.818811 
L 285.947827 261.818811 
L 285.947827 261.818811 
L 285.947827 261.818811 
L 285.947827 261.818811 
L 285.947827 261.818811 
L 285.947827 261.818811 
L 285.947827 261.818811 
L 285.947827 261.818811 
L 285.947827 261.818811 
L 285.947827 261.818811 
L 285.947827 261.818811 
L 285.947827 261.818811 
L 285.947827 261.818811 
L 285.947827 261.818811 
L 285.947827 261.818811 
L 285.947827 261.818811 
L 285.947827 261.818811 
L 285.947827 261.818811 
L 285.947827 261.818811 
L 285.947827 261.818811 
L 285.947827 261.818811 
L 285.947827 261.818811 
L 285.947827 261.818811 
L 285.947827 261.818811 
L 285.947827 261.818811 
L 285.947827 261.818811 
L 285.947827 261.818811 
L 285.947827 261.818811 
L 285.947827 261.818811 
L 285.947827 261.818811 
L 285.947827 261.818811 
L 285.947827 261.818811 
L 285.947827 261.818811 
L 285.947827 261.818811 
L 285.947827 261.818811 
L 285.947827 261.818811 
L 285.947827 261.818811 
L 285.947827 261.818811 
L 285.947827 261.818811 
L 285.947827 261.818811 
L 285.947827 261.818811 
L 285.947827 261.818811 
L 285.947827 261.818811 
L 285.947827 261.818811 
L 285.947827 261.818811 
L 285.947827 261.818811 
L 285.947827 261.818811 
L 285.947827 261.818811 
L 285.947827 261.818811 
L 285.947827 261.818811 
L 285.947827 261.818811 
L 285.947827 261.818811 
L 285.947827 261.818811 
L 285.947827 261.818811 
L 285.947827 261.818811 
L 285.947827 261.818811 
L 285.947827 261.818811 
L 285.947827 261.818811 
L 285.947827 261.818811 
L 285.947827 261.818811 
L 285.947827 261.818811 
L 285.947827 261.818811 
L 285.947827 261.818811 
L 285.947827 261.818811 
L 285.947827 261.818811 
L 285.947827 261.818811 
L 285.947827 261.818811 
L 285.947827 261.818811 
L 285.947827 261.818811 
L 285.947827 261.818811 
L 285.947827 261.818811 
L 285.947827 261.818811 
L 285.947827 261.818811 
L 285.947827 261.818811 
L 285.947827 261.818811 
L 285.947827 261.818811 
L 285.947827 261.818811 
L 285.947827 261.818811 
L 285.947827 261.818811 
L 285.947827 261.818811 
L 285.947827 261.818811 
L 285.947827 261.818811 
L 285.947827 261.818811 
L 285.947827 261.818811 
L 285.947827 261.818811 
L 285.947827 261.818811 
L 285.947827 261.818811 
L 285.947827 261.818811 
L 285.947827 261.818811 
L 285.947827 261.818811 
L 285.947827 261.818811 
L 285.947827 261.818811 
L 285.947827 261.818811 
L 285.947827 261.818811 
L 285.947827 261.818811 
L 285.947827 261.818811 
L 285.947827 261.818811 
L 285.947827 261.818811 
L 285.947827 261.818811 
L 285.947827 261.818811 
L 285.947827 261.818811 
L 285.947827 261.818811 
L 285.947827 261.818811 
L 285.947827 261.818811 
L 285.947827 261.818811 
L 285.947827 261.818811 
L 285.947827 261.818811 
L 285.947827 261.818811 
L 285.947827 261.818811 
L 285.947827 261.818811 
L 285.947827 261.818811 
L 285.947827 261.818811 
L 285.947827 261.818811 
L 285.947827 261.818811 
L 285.947827 261.818811 
L 285.947827 261.818811 
L 285.947827 261.818811 
L 285.947827 261.818811 
L 285.947827 261.818811 
L 285.947827 261.818811 
L 285.947827 261.818811 
L 285.947827 261.818811 
L 285.947827 261.818811 
L 285.947827 261.818811 
L 285.947827 261.818811 
L 285.947827 261.818811 
L 285.947827 261.818811 
L 285.947827 261.818811 
L 285.947827 261.818811 
z
" style="fill:#993333;stroke:#000000;stroke-linejoin:miter;"/>
   </g>
   <g id="patch_5">
    <path clip-path="url(#p9ec0228963)" d="M 235.857031 233.260892 
L 291.875085 263.736665 
L 292.482812 262.619592 
L 236.464758 232.143819 
L 236.464758 232.143819 
L 236.464758 232.143819 
L 236.464758 232.143819 
L 236.464758 232.143819 
L 236.464758 232.143819 
L 236.464758 232.143819 
L 236.464758 232.143819 
L 236.464758 232.143819 
L 236.464758 232.143819 
L 236.464758 232.143819 
L 236.464758 232.143819 
L 236.464758 232.143819 
L 236.464758 232.143819 
L 236.464758 232.143819 
L 236.464758 232.143819 
L 236.464758 232.143819 
L 236.464758 232.143819 
L 236.464758 232.143819 
L 236.464758 232.143819 
L 236.464758 232.143819 
L 236.464758 232.143819 
L 236.464758 232.143819 
L 236.464758 232.143819 
L 236.464758 232.143819 
L 236.464758 232.143819 
L 236.464758 232.143819 
L 236.464758 232.143819 
L 236.464758 232.143819 
L 236.464758 232.143819 
L 236.464758 232.143819 
L 236.464758 232.143819 
L 236.464758 232.143819 
L 236.464758 232.143819 
L 236.464758 232.143819 
L 236.464758 232.143819 
L 236.464758 232.143819 
L 236.464758 232.143819 
L 236.464758 232.143819 
L 236.464758 232.143819 
L 236.464758 232.143819 
L 236.464758 232.143819 
L 236.464758 232.143819 
L 236.464758 232.143819 
L 236.464758 232.143819 
L 236.464758 232.143819 
L 236.464758 232.143819 
L 236.464758 232.143819 
L 236.464758 232.143819 
z
" style="stroke:#000000;stroke-linejoin:miter;"/>
   </g>
   <g id="text_1">
    <!-- t = 1.1 -->
    <defs>
     <path d="M 18.3125 70.21875 
L 18.3125 54.6875 
L 36.8125 54.6875 
L 36.8125 47.703125 
L 18.3125 47.703125 
L 18.3125 18.015625 
Q 18.3125 11.328125 20.140625 9.421875 
Q 21.96875 7.515625 27.59375 7.515625 
L 36.8125 7.515625 
L 36.8125 0 
L 27.59375 0 
Q 17.1875 0 13.234375 3.875 
Q 9.28125 7.765625 9.28125 18.015625 
L 9.28125 47.703125 
L 2.6875 47.703125 
L 2.6875 54.6875 
L 9.28125 54.6875 
L 9.28125 70.21875 
z
" id="DejaVuSans-116"/>
     <path id="DejaVuSans-32"/>
     <path d="M 10.59375 45.40625 
L 73.1875 45.40625 
L 73.1875 37.203125 
L 10.59375 37.203125 
z
M 10.59375 25.484375 
L 73.1875 25.484375 
L 73.1875 17.1875 
L 10.59375 17.1875 
z
" id="DejaVuSans-61"/>
     <path d="M 12.40625 8.296875 
L 28.515625 8.296875 
L 28.515625 63.921875 
L 10.984375 60.40625 
L 10.984375 69.390625 
L 28.421875 72.90625 
L 38.28125 72.90625 
L 38.28125 8.296875 
L 54.390625 8.296875 
L 54.390625 0 
L 12.40625 0 
z
" id="DejaVuSans-49"/>
     <path d="M 10.6875 12.40625 
L 21 12.40625 
L 21 0 
L 10.6875 0 
z
" id="DejaVuSans-46"/>
    </defs>
    <g transform="translate(215.424375 49.296)scale(0.12 -0.12)">
     <use xlink:href="#DejaVuSans-116"/>
     <use x="39.208984" xlink:href="#DejaVuSans-32"/>
     <use x="70.996094" xlink:href="#DejaVuSans-61"/>
     <use x="154.785156" xlink:href="#DejaVuSans-32"/>
     <use x="186.572266" xlink:href="#DejaVuSans-49"/>
     <use x="250.195312" xlink:href="#DejaVuSans-46"/>
     <use x="281.982422" xlink:href="#DejaVuSans-49"/>
    </g>
   </g>
  </g>
 </g>
 <defs>
  <clipPath id="p9ec0228963">
   <rect height="354.816" width="357.12" x="57.6" y="55.296"/>
  </clipPath>
 </defs>
</svg>
