<?xml version="1.0" encoding="utf-8" standalone="no"?>
<!DOCTYPE svg PUBLIC "-//W3C//DTD SVG 1.1//EN"
  "http://www.w3.org/Graphics/SVG/1.1/DTD/svg11.dtd">
<!-- Created with matplotlib (https://matplotlib.org/) -->
<svg height="460.8pt" version="1.1" viewBox="0 0 460.8 460.8" width="460.8pt" xmlns="http://www.w3.org/2000/svg" xmlns:xlink="http://www.w3.org/1999/xlink">
 <defs>
  <style type="text/css">
*{stroke-linecap:butt;stroke-linejoin:round;}
  </style>
 </defs>
 <g id="figure_1">
  <g id="patch_1">
   <path d="M 0 460.8 
L 460.8 460.8 
L 460.8 0 
L 0 0 
z
" style="fill:#ffffff;"/>
  </g>
  <g id="axes_1">
   <g id="patch_2">
    <path clip-path="url(#p7ee929b157)" d="M 279.969367 345.914644 
L 280.753971 347.037764 
L 282.015742 348.316576 
L 283.264996 348.947054 
L 284.963154 349.443386 
L 286.371195 349.426859 
L 288.089972 349.019191 
L 289.312064 348.359704 
L 290.630642 347.147848 
L 291.367574 346.006868 
L 291.963121 344.287527 
L 292.034466 342.944405 
L 291.761171 341.138535 
L 291.149461 339.922115 
L 290.074235 338.471855 
L 288.929239 337.679958 
L 287.315336 336.940383 
L 285.917388 336.766894 
L 284.159947 336.919077 
L 282.851313 337.406471 
L 281.380618 338.413153 
L 280.240547 339.805929 
L 279.680353 341.036106 
L 279.325052 342.825665 
L 279.452909 344.166448 
L 279.452909 344.166448 
L 279.452909 344.166448 
L 279.452909 344.166448 
L 279.452909 344.166448 
L 279.452909 344.166448 
L 279.452909 344.166448 
L 279.452909 344.166448 
L 279.452909 344.166448 
L 279.452909 344.166448 
L 279.452909 344.166448 
L 279.452909 344.166448 
L 279.452909 344.166448 
L 279.452909 344.166448 
L 279.452909 344.166448 
L 279.452909 344.166448 
L 279.452909 344.166448 
L 279.452909 344.166448 
L 279.452909 344.166448 
L 279.452909 344.166448 
L 279.452909 344.166448 
L 279.452909 344.166448 
L 279.452909 344.166448 
L 279.452909 344.166448 
L 279.452909 344.166448 
L 279.452909 344.166448 
L 279.452909 344.166448 
L 279.452909 344.166448 
L 279.452909 344.166448 
L 279.452909 344.166448 
L 279.452909 344.166448 
L 279.452909 344.166448 
L 279.452909 344.166448 
L 279.452909 344.166448 
L 279.452909 344.166448 
L 279.452909 344.166448 
L 279.452909 344.166448 
L 279.452909 344.166448 
L 279.452909 344.166448 
L 279.452909 344.166448 
L 279.452909 344.166448 
L 279.452909 344.166448 
L 279.452909 344.166448 
L 279.452909 344.166448 
L 279.452909 344.166448 
L 279.452909 344.166448 
L 279.452909 344.166448 
L 279.452909 344.166448 
L 279.452909 344.166448 
L 279.452909 344.166448 
L 279.452909 344.166448 
L 279.452909 344.166448 
L 279.452909 344.166448 
L 279.452909 344.166448 
L 279.452909 344.166448 
L 279.452909 344.166448 
L 279.452909 344.166448 
L 279.452909 344.166448 
L 279.452909 344.166448 
L 279.452909 344.166448 
L 279.452909 344.166448 
L 279.452909 344.166448 
L 279.452909 344.166448 
L 279.452909 344.166448 
L 279.452909 344.166448 
L 279.452909 344.166448 
L 279.452909 344.166448 
L 279.452909 344.166448 
L 279.452909 344.166448 
L 279.452909 344.166448 
L 279.452909 344.166448 
L 279.452909 344.166448 
L 279.452909 344.166448 
L 279.452909 344.166448 
L 279.452909 344.166448 
L 279.452909 344.166448 
L 279.452909 344.166448 
L 279.452909 344.166448 
L 279.452909 344.166448 
L 279.452909 344.166448 
L 279.452909 344.166448 
L 279.452909 344.166448 
L 279.452909 344.166448 
L 279.452909 344.166448 
L 279.452909 344.166448 
L 279.452909 344.166448 
L 279.452909 344.166448 
L 279.452909 344.166448 
L 279.452909 344.166448 
L 279.452909 344.166448 
L 279.452909 344.166448 
L 279.452909 344.166448 
L 279.452909 344.166448 
L 279.452909 344.166448 
L 279.452909 344.166448 
L 279.452909 344.166448 
L 279.452909 344.166448 
L 279.452909 344.166448 
L 279.452909 344.166448 
L 279.452909 344.166448 
L 279.452909 344.166448 
L 279.452909 344.166448 
L 279.452909 344.166448 
L 279.452909 344.166448 
L 279.452909 344.166448 
L 279.452909 344.166448 
L 279.452909 344.166448 
L 279.452909 344.166448 
L 279.452909 344.166448 
L 279.452909 344.166448 
L 279.452909 344.166448 
L 279.452909 344.166448 
L 279.452909 344.166448 
L 279.452909 344.166448 
L 279.452909 344.166448 
L 279.452909 344.166448 
L 279.452909 344.166448 
L 279.452909 344.166448 
L 279.452909 344.166448 
L 279.452909 344.166448 
L 279.452909 344.166448 
L 279.452909 344.166448 
L 279.452909 344.166448 
L 279.452909 344.166448 
L 279.452909 344.166448 
L 279.452909 344.166448 
L 279.452909 344.166448 
L 279.452909 344.166448 
L 279.452909 344.166448 
L 279.452909 344.166448 
L 279.452909 344.166448 
L 279.452909 344.166448 
L 279.452909 344.166448 
L 279.452909 344.166448 
L 279.452909 344.166448 
L 279.452909 344.166448 
L 279.452909 344.166448 
L 279.452909 344.166448 
L 279.452909 344.166448 
L 279.452909 344.166448 
L 279.452909 344.166448 
L 279.452909 344.166448 
L 279.452909 344.166448 
L 279.452909 344.166448 
L 279.452909 344.166448 
z
" style="fill:#993333;stroke:#000000;stroke-linejoin:miter;"/>
   </g>
   <g id="patch_3">
    <path clip-path="url(#p7ee929b157)" d="M 243.012428 295.723662 
L 242.076118 296.584189 
L 285.229144 343.53748 
L 286.165453 342.676952 
L 286.165453 342.676952 
L 286.165453 342.676952 
L 286.165453 342.676952 
L 286.165453 342.676952 
L 286.165453 342.676952 
L 286.165453 342.676952 
L 286.165453 342.676952 
L 286.165453 342.676952 
L 286.165453 342.676952 
L 286.165453 342.676952 
L 286.165453 342.676952 
L 286.165453 342.676952 
L 286.165453 342.676952 
L 286.165453 342.676952 
L 286.165453 342.676952 
L 286.165453 342.676952 
L 286.165453 342.676952 
L 286.165453 342.676952 
L 286.165453 342.676952 
L 286.165453 342.676952 
L 286.165453 342.676952 
L 286.165453 342.676952 
L 286.165453 342.676952 
L 286.165453 342.676952 
L 286.165453 342.676952 
L 286.165453 342.676952 
L 286.165453 342.676952 
L 286.165453 342.676952 
L 286.165453 342.676952 
L 286.165453 342.676952 
L 286.165453 342.676952 
L 286.165453 342.676952 
L 286.165453 342.676952 
L 286.165453 342.676952 
L 286.165453 342.676952 
L 286.165453 342.676952 
L 286.165453 342.676952 
L 286.165453 342.676952 
L 286.165453 342.676952 
L 286.165453 342.676952 
L 286.165453 342.676952 
L 286.165453 342.676952 
L 286.165453 342.676952 
L 286.165453 342.676952 
L 286.165453 342.676952 
L 286.165453 342.676952 
L 286.165453 342.676952 
L 286.165453 342.676952 
z
" style="stroke:#000000;stroke-linejoin:miter;"/>
   </g>
   <g id="patch_4">
    <path clip-path="url(#p7ee929b157)" d="M 236.231859 296.336675 
L 236.474898 298.116664 
L 237.096656 299.37028 
L 238.158107 300.785698 
L 239.294882 301.616719 
L 240.914864 302.321023 
L 242.288334 302.525986 
L 244.07022 302.346737 
L 245.344112 301.875461 
L 246.851634 300.856545 
L 247.714055 299.824414 
L 248.578118 298.215298 
L 248.817917 296.875013 
L 248.826969 295.069665 
L 248.385435 293.749376 
L 247.537259 292.189807 
L 246.522495 291.212765 
L 245.024755 290.280814 
L 243.68521 289.886234 
L 241.904605 289.810073 
L 240.157104 290.241145 
L 238.971174 290.889776 
L 237.613821 292.108937 
L 236.912224 293.258636 
L 236.277347 294.967393 
L 236.277347 294.967393 
L 236.277347 294.967393 
L 236.277347 294.967393 
L 236.277347 294.967393 
L 236.277347 294.967393 
L 236.277347 294.967393 
L 236.277347 294.967393 
L 236.277347 294.967393 
L 236.277347 294.967393 
L 236.277347 294.967393 
L 236.277347 294.967393 
L 236.277347 294.967393 
L 236.277347 294.967393 
L 236.277347 294.967393 
L 236.277347 294.967393 
L 236.277347 294.967393 
L 236.277347 294.967393 
L 236.277347 294.967393 
L 236.277347 294.967393 
L 236.277347 294.967393 
L 236.277347 294.967393 
L 236.277347 294.967393 
L 236.277347 294.967393 
L 236.277347 294.967393 
L 236.277347 294.967393 
L 236.277347 294.967393 
L 236.277347 294.967393 
L 236.277347 294.967393 
L 236.277347 294.967393 
L 236.277347 294.967393 
L 236.277347 294.967393 
L 236.277347 294.967393 
L 236.277347 294.967393 
L 236.277347 294.967393 
L 236.277347 294.967393 
L 236.277347 294.967393 
L 236.277347 294.967393 
L 236.277347 294.967393 
L 236.277347 294.967393 
L 236.277347 294.967393 
L 236.277347 294.967393 
L 236.277347 294.967393 
L 236.277347 294.967393 
L 236.277347 294.967393 
L 236.277347 294.967393 
L 236.277347 294.967393 
L 236.277347 294.967393 
L 236.277347 294.967393 
L 236.277347 294.967393 
L 236.277347 294.967393 
L 236.277347 294.967393 
L 236.277347 294.967393 
L 236.277347 294.967393 
L 236.277347 294.967393 
L 236.277347 294.967393 
L 236.277347 294.967393 
L 236.277347 294.967393 
L 236.277347 294.967393 
L 236.277347 294.967393 
L 236.277347 294.967393 
L 236.277347 294.967393 
L 236.277347 294.967393 
L 236.277347 294.967393 
L 236.277347 294.967393 
L 236.277347 294.967393 
L 236.277347 294.967393 
L 236.277347 294.967393 
L 236.277347 294.967393 
L 236.277347 294.967393 
L 236.277347 294.967393 
L 236.277347 294.967393 
L 236.277347 294.967393 
L 236.277347 294.967393 
L 236.277347 294.967393 
L 236.277347 294.967393 
L 236.277347 294.967393 
L 236.277347 294.967393 
L 236.277347 294.967393 
L 236.277347 294.967393 
L 236.277347 294.967393 
L 236.277347 294.967393 
L 236.277347 294.967393 
L 236.277347 294.967393 
L 236.277347 294.967393 
L 236.277347 294.967393 
L 236.277347 294.967393 
L 236.277347 294.967393 
L 236.277347 294.967393 
L 236.277347 294.967393 
L 236.277347 294.967393 
L 236.277347 294.967393 
L 236.277347 294.967393 
L 236.277347 294.967393 
L 236.277347 294.967393 
L 236.277347 294.967393 
L 236.277347 294.967393 
L 236.277347 294.967393 
L 236.277347 294.967393 
L 236.277347 294.967393 
L 236.277347 294.967393 
L 236.277347 294.967393 
L 236.277347 294.967393 
L 236.277347 294.967393 
L 236.277347 294.967393 
L 236.277347 294.967393 
L 236.277347 294.967393 
L 236.277347 294.967393 
L 236.277347 294.967393 
L 236.277347 294.967393 
L 236.277347 294.967393 
L 236.277347 294.967393 
L 236.277347 294.967393 
L 236.277347 294.967393 
L 236.277347 294.967393 
L 236.277347 294.967393 
L 236.277347 294.967393 
L 236.277347 294.967393 
L 236.277347 294.967393 
L 236.277347 294.967393 
L 236.277347 294.967393 
L 236.277347 294.967393 
L 236.277347 294.967393 
L 236.277347 294.967393 
L 236.277347 294.967393 
L 236.277347 294.967393 
L 236.277347 294.967393 
L 236.277347 294.967393 
L 236.277347 294.967393 
L 236.277347 294.967393 
L 236.277347 294.967393 
L 236.277347 294.967393 
L 236.277347 294.967393 
L 236.277347 294.967393 
L 236.277347 294.967393 
L 236.277347 294.967393 
L 236.277347 294.967393 
L 236.277347 294.967393 
L 236.277347 294.967393 
L 236.277347 294.967393 
L 236.277347 294.967393 
L 236.277347 294.967393 
L 236.277347 294.967393 
L 236.277347 294.967393 
L 236.277347 294.967393 
z
" style="fill:#993333;stroke:#000000;stroke-linejoin:miter;"/>
   </g>
   <g id="patch_5">
    <path clip-path="url(#p7ee929b157)" d="M 236.794512 232.640171 
L 235.529213 232.767454 
L 241.912108 296.218646 
L 243.177407 296.091363 
L 243.177407 296.091363 
L 243.177407 296.091363 
L 243.177407 296.091363 
L 243.177407 296.091363 
L 243.177407 296.091363 
L 243.177407 296.091363 
L 243.177407 296.091363 
L 243.177407 296.091363 
L 243.177407 296.091363 
L 243.177407 296.091363 
L 243.177407 296.091363 
L 243.177407 296.091363 
L 243.177407 296.091363 
L 243.177407 296.091363 
L 243.177407 296.091363 
L 243.177407 296.091363 
L 243.177407 296.091363 
L 243.177407 296.091363 
L 243.177407 296.091363 
L 243.177407 296.091363 
L 243.177407 296.091363 
L 243.177407 296.091363 
L 243.177407 296.091363 
L 243.177407 296.091363 
L 243.177407 296.091363 
L 243.177407 296.091363 
L 243.177407 296.091363 
L 243.177407 296.091363 
L 243.177407 296.091363 
L 243.177407 296.091363 
L 243.177407 296.091363 
L 243.177407 296.091363 
L 243.177407 296.091363 
L 243.177407 296.091363 
L 243.177407 296.091363 
L 243.177407 296.091363 
L 243.177407 296.091363 
L 243.177407 296.091363 
L 243.177407 296.091363 
L 243.177407 296.091363 
L 243.177407 296.091363 
L 243.177407 296.091363 
L 243.177407 296.091363 
L 243.177407 296.091363 
L 243.177407 296.091363 
L 243.177407 296.091363 
L 243.177407 296.091363 
L 243.177407 296.091363 
z
" style="stroke:#000000;stroke-linejoin:miter;"/>
   </g>
   <g id="text_1">
    <!-- t = 2.0 -->
    <defs>
     <path d="M 18.3125 70.21875 
L 18.3125 54.6875 
L 36.8125 54.6875 
L 36.8125 47.703125 
L 18.3125 47.703125 
L 18.3125 18.015625 
Q 18.3125 11.328125 20.140625 9.421875 
Q 21.96875 7.515625 27.59375 7.515625 
L 36.8125 7.515625 
L 36.8125 0 
L 27.59375 0 
Q 17.1875 0 13.234375 3.875 
Q 9.28125 7.765625 9.28125 18.015625 
L 9.28125 47.703125 
L 2.6875 47.703125 
L 2.6875 54.6875 
L 9.28125 54.6875 
L 9.28125 70.21875 
z
" id="DejaVuSans-116"/>
     <path id="DejaVuSans-32"/>
     <path d="M 10.59375 45.40625 
L 73.1875 45.40625 
L 73.1875 37.203125 
L 10.59375 37.203125 
z
M 10.59375 25.484375 
L 73.1875 25.484375 
L 73.1875 17.1875 
L 10.59375 17.1875 
z
" id="DejaVuSans-61"/>
     <path d="M 19.1875 8.296875 
L 53.609375 8.296875 
L 53.609375 0 
L 7.328125 0 
L 7.328125 8.296875 
Q 12.9375 14.109375 22.625 23.890625 
Q 32.328125 33.6875 34.8125 36.53125 
Q 39.546875 41.84375 41.421875 45.53125 
Q 43.3125 49.21875 43.3125 52.78125 
Q 43.3125 58.59375 39.234375 62.25 
Q 35.15625 65.921875 28.609375 65.921875 
Q 23.96875 65.921875 18.8125 64.3125 
Q 13.671875 62.703125 7.8125 59.421875 
L 7.8125 69.390625 
Q 13.765625 71.78125 18.9375 73 
Q 24.125 74.21875 28.421875 74.21875 
Q 39.75 74.21875 46.484375 68.546875 
Q 53.21875 62.890625 53.21875 53.421875 
Q 53.21875 48.921875 51.53125 44.890625 
Q 49.859375 40.875 45.40625 35.40625 
Q 44.1875 33.984375 37.640625 27.21875 
Q 31.109375 20.453125 19.1875 8.296875 
z
" id="DejaVuSans-50"/>
     <path d="M 10.6875 12.40625 
L 21 12.40625 
L 21 0 
L 10.6875 0 
z
" id="DejaVuSans-46"/>
     <path d="M 31.78125 66.40625 
Q 24.171875 66.40625 20.328125 58.90625 
Q 16.5 51.421875 16.5 36.375 
Q 16.5 21.390625 20.328125 13.890625 
Q 24.171875 6.390625 31.78125 6.390625 
Q 39.453125 6.390625 43.28125 13.890625 
Q 47.125 21.390625 47.125 36.375 
Q 47.125 51.421875 43.28125 58.90625 
Q 39.453125 66.40625 31.78125 66.40625 
z
M 31.78125 74.21875 
Q 44.046875 74.21875 50.515625 64.515625 
Q 56.984375 54.828125 56.984375 36.375 
Q 56.984375 17.96875 50.515625 8.265625 
Q 44.046875 -1.421875 31.78125 -1.421875 
Q 19.53125 -1.421875 13.0625 8.265625 
Q 6.59375 17.96875 6.59375 36.375 
Q 6.59375 54.828125 13.0625 64.515625 
Q 19.53125 74.21875 31.78125 74.21875 
z
" id="DejaVuSans-48"/>
    </defs>
    <g transform="translate(215.424375 49.296)scale(0.12 -0.12)">
     <use xlink:href="#DejaVuSans-116"/>
     <use x="39.208984" xlink:href="#DejaVuSans-32"/>
     <use x="70.996094" xlink:href="#DejaVuSans-61"/>
     <use x="154.785156" xlink:href="#DejaVuSans-32"/>
     <use x="186.572266" xlink:href="#DejaVuSans-50"/>
     <use x="250.195312" xlink:href="#DejaVuSans-46"/>
     <use x="281.982422" xlink:href="#DejaVuSans-48"/>
    </g>
   </g>
  </g>
 </g>
 <defs>
  <clipPath id="p7ee929b157">
   <rect height="354.816" width="357.12" x="57.6" y="55.296"/>
  </clipPath>
 </defs>
</svg>
