<?xml version="1.0" encoding="utf-8" standalone="no"?>
<!DOCTYPE svg PUBLIC "-//W3C//DTD SVG 1.1//EN"
  "http://www.w3.org/Graphics/SVG/1.1/DTD/svg11.dtd">
<!-- Created with matplotlib (https://matplotlib.org/) -->
<svg height="460.8pt" version="1.1" viewBox="0 0 460.8 460.8" width="460.8pt" xmlns="http://www.w3.org/2000/svg" xmlns:xlink="http://www.w3.org/1999/xlink">
 <defs>
  <style type="text/css">
*{stroke-linecap:butt;stroke-linejoin:round;}
  </style>
 </defs>
 <g id="figure_1">
  <g id="patch_1">
   <path d="M 0 460.8 
L 460.8 460.8 
L 460.8 0 
L 0 0 
z
" style="fill:#ffffff;"/>
  </g>
  <g id="axes_1">
   <g id="patch_2">
    <path clip-path="url(#p3e5c4662af)" d="M 329.000611 310.997222 
L 329.155324 312.81514 
L 329.649854 314.067932 
L 330.630695 315.604444 
L 331.695893 316.466044 
L 333.262717 317.344958 
L 334.637787 317.604416 
L 336.406981 317.610544 
L 337.755258 317.204336 
L 339.293662 316.336177 
L 340.285039 315.363757 
L 341.215998 313.833867 
L 341.607753 312.533316 
L 341.703335 310.716266 
L 341.399552 309.406006 
L 340.636356 307.746672 
L 339.711412 306.747499 
L 338.276295 305.652145 
L 336.956648 305.208692 
L 335.200976 304.945498 
L 333.809722 305.166338 
L 332.163346 305.799743 
L 331.041112 306.630806 
L 329.907122 308.005732 
L 329.197829 309.659965 
L 329.197829 309.659965 
L 329.197829 309.659965 
L 329.197829 309.659965 
L 329.197829 309.659965 
L 329.197829 309.659965 
L 329.197829 309.659965 
L 329.197829 309.659965 
L 329.197829 309.659965 
L 329.197829 309.659965 
L 329.197829 309.659965 
L 329.197829 309.659965 
L 329.197829 309.659965 
L 329.197829 309.659965 
L 329.197829 309.659965 
L 329.197829 309.659965 
L 329.197829 309.659965 
L 329.197829 309.659965 
L 329.197829 309.659965 
L 329.197829 309.659965 
L 329.197829 309.659965 
L 329.197829 309.659965 
L 329.197829 309.659965 
L 329.197829 309.659965 
L 329.197829 309.659965 
L 329.197829 309.659965 
L 329.197829 309.659965 
L 329.197829 309.659965 
L 329.197829 309.659965 
L 329.197829 309.659965 
L 329.197829 309.659965 
L 329.197829 309.659965 
L 329.197829 309.659965 
L 329.197829 309.659965 
L 329.197829 309.659965 
L 329.197829 309.659965 
L 329.197829 309.659965 
L 329.197829 309.659965 
L 329.197829 309.659965 
L 329.197829 309.659965 
L 329.197829 309.659965 
L 329.197829 309.659965 
L 329.197829 309.659965 
L 329.197829 309.659965 
L 329.197829 309.659965 
L 329.197829 309.659965 
L 329.197829 309.659965 
L 329.197829 309.659965 
L 329.197829 309.659965 
L 329.197829 309.659965 
L 329.197829 309.659965 
L 329.197829 309.659965 
L 329.197829 309.659965 
L 329.197829 309.659965 
L 329.197829 309.659965 
L 329.197829 309.659965 
L 329.197829 309.659965 
L 329.197829 309.659965 
L 329.197829 309.659965 
L 329.197829 309.659965 
L 329.197829 309.659965 
L 329.197829 309.659965 
L 329.197829 309.659965 
L 329.197829 309.659965 
L 329.197829 309.659965 
L 329.197829 309.659965 
L 329.197829 309.659965 
L 329.197829 309.659965 
L 329.197829 309.659965 
L 329.197829 309.659965 
L 329.197829 309.659965 
L 329.197829 309.659965 
L 329.197829 309.659965 
L 329.197829 309.659965 
L 329.197829 309.659965 
L 329.197829 309.659965 
L 329.197829 309.659965 
L 329.197829 309.659965 
L 329.197829 309.659965 
L 329.197829 309.659965 
L 329.197829 309.659965 
L 329.197829 309.659965 
L 329.197829 309.659965 
L 329.197829 309.659965 
L 329.197829 309.659965 
L 329.197829 309.659965 
L 329.197829 309.659965 
L 329.197829 309.659965 
L 329.197829 309.659965 
L 329.197829 309.659965 
L 329.197829 309.659965 
L 329.197829 309.659965 
L 329.197829 309.659965 
L 329.197829 309.659965 
L 329.197829 309.659965 
L 329.197829 309.659965 
L 329.197829 309.659965 
L 329.197829 309.659965 
L 329.197829 309.659965 
L 329.197829 309.659965 
L 329.197829 309.659965 
L 329.197829 309.659965 
L 329.197829 309.659965 
L 329.197829 309.659965 
L 329.197829 309.659965 
L 329.197829 309.659965 
L 329.197829 309.659965 
L 329.197829 309.659965 
L 329.197829 309.659965 
L 329.197829 309.659965 
L 329.197829 309.659965 
L 329.197829 309.659965 
L 329.197829 309.659965 
L 329.197829 309.659965 
L 329.197829 309.659965 
L 329.197829 309.659965 
L 329.197829 309.659965 
L 329.197829 309.659965 
L 329.197829 309.659965 
L 329.197829 309.659965 
L 329.197829 309.659965 
L 329.197829 309.659965 
L 329.197829 309.659965 
L 329.197829 309.659965 
L 329.197829 309.659965 
L 329.197829 309.659965 
L 329.197829 309.659965 
L 329.197829 309.659965 
L 329.197829 309.659965 
L 329.197829 309.659965 
L 329.197829 309.659965 
L 329.197829 309.659965 
L 329.197829 309.659965 
L 329.197829 309.659965 
L 329.197829 309.659965 
L 329.197829 309.659965 
L 329.197829 309.659965 
L 329.197829 309.659965 
L 329.197829 309.659965 
L 329.197829 309.659965 
L 329.197829 309.659965 
L 329.197829 309.659965 
L 329.197829 309.659965 
L 329.197829 309.659965 
L 329.197829 309.659965 
z
" style="fill:#993333;stroke:#000000;stroke-linejoin:miter;"/>
   </g>
   <g id="patch_3">
    <path clip-path="url(#p3e5c4662af)" d="M 281.208541 277.625493 
L 280.547476 278.711852 
L 335.02535 311.862363 
L 335.686414 310.776004 
L 335.686414 310.776004 
L 335.686414 310.776004 
L 335.686414 310.776004 
L 335.686414 310.776004 
L 335.686414 310.776004 
L 335.686414 310.776004 
L 335.686414 310.776004 
L 335.686414 310.776004 
L 335.686414 310.776004 
L 335.686414 310.776004 
L 335.686414 310.776004 
L 335.686414 310.776004 
L 335.686414 310.776004 
L 335.686414 310.776004 
L 335.686414 310.776004 
L 335.686414 310.776004 
L 335.686414 310.776004 
L 335.686414 310.776004 
L 335.686414 310.776004 
L 335.686414 310.776004 
L 335.686414 310.776004 
L 335.686414 310.776004 
L 335.686414 310.776004 
L 335.686414 310.776004 
L 335.686414 310.776004 
L 335.686414 310.776004 
L 335.686414 310.776004 
L 335.686414 310.776004 
L 335.686414 310.776004 
L 335.686414 310.776004 
L 335.686414 310.776004 
L 335.686414 310.776004 
L 335.686414 310.776004 
L 335.686414 310.776004 
L 335.686414 310.776004 
L 335.686414 310.776004 
L 335.686414 310.776004 
L 335.686414 310.776004 
L 335.686414 310.776004 
L 335.686414 310.776004 
L 335.686414 310.776004 
L 335.686414 310.776004 
L 335.686414 310.776004 
L 335.686414 310.776004 
L 335.686414 310.776004 
L 335.686414 310.776004 
L 335.686414 310.776004 
L 335.686414 310.776004 
z
" style="stroke:#000000;stroke-linejoin:miter;"/>
   </g>
   <g id="patch_4">
    <path clip-path="url(#p3e5c4662af)" d="M 275.248711 281.16859 
L 276.070868 282.264519 
L 277.375187 283.499906 
L 278.645058 284.087753 
L 280.359037 284.526342 
L 281.765713 284.462181 
L 283.469712 283.99659 
L 284.668789 283.29613 
L 285.945609 282.040351 
L 286.643512 280.87509 
L 287.180542 279.136583 
L 287.2064 277.791816 
L 286.872157 275.996227 
L 286.219639 274.801201 
L 285.095958 273.388154 
L 283.924822 272.635453 
L 282.286819 271.950909 
L 280.883801 271.82482 
L 279.132516 272.036382 
L 277.841123 272.567776 
L 276.405332 273.623644 
L 275.31304 275.054198 
L 274.794791 276.302625 
L 274.500245 278.103181 
L 274.673396 279.438871 
L 274.673396 279.438871 
L 274.673396 279.438871 
L 274.673396 279.438871 
L 274.673396 279.438871 
L 274.673396 279.438871 
L 274.673396 279.438871 
L 274.673396 279.438871 
L 274.673396 279.438871 
L 274.673396 279.438871 
L 274.673396 279.438871 
L 274.673396 279.438871 
L 274.673396 279.438871 
L 274.673396 279.438871 
L 274.673396 279.438871 
L 274.673396 279.438871 
L 274.673396 279.438871 
L 274.673396 279.438871 
L 274.673396 279.438871 
L 274.673396 279.438871 
L 274.673396 279.438871 
L 274.673396 279.438871 
L 274.673396 279.438871 
L 274.673396 279.438871 
L 274.673396 279.438871 
L 274.673396 279.438871 
L 274.673396 279.438871 
L 274.673396 279.438871 
L 274.673396 279.438871 
L 274.673396 279.438871 
L 274.673396 279.438871 
L 274.673396 279.438871 
L 274.673396 279.438871 
L 274.673396 279.438871 
L 274.673396 279.438871 
L 274.673396 279.438871 
L 274.673396 279.438871 
L 274.673396 279.438871 
L 274.673396 279.438871 
L 274.673396 279.438871 
L 274.673396 279.438871 
L 274.673396 279.438871 
L 274.673396 279.438871 
L 274.673396 279.438871 
L 274.673396 279.438871 
L 274.673396 279.438871 
L 274.673396 279.438871 
L 274.673396 279.438871 
L 274.673396 279.438871 
L 274.673396 279.438871 
L 274.673396 279.438871 
L 274.673396 279.438871 
L 274.673396 279.438871 
L 274.673396 279.438871 
L 274.673396 279.438871 
L 274.673396 279.438871 
L 274.673396 279.438871 
L 274.673396 279.438871 
L 274.673396 279.438871 
L 274.673396 279.438871 
L 274.673396 279.438871 
L 274.673396 279.438871 
L 274.673396 279.438871 
L 274.673396 279.438871 
L 274.673396 279.438871 
L 274.673396 279.438871 
L 274.673396 279.438871 
L 274.673396 279.438871 
L 274.673396 279.438871 
L 274.673396 279.438871 
L 274.673396 279.438871 
L 274.673396 279.438871 
L 274.673396 279.438871 
L 274.673396 279.438871 
L 274.673396 279.438871 
L 274.673396 279.438871 
L 274.673396 279.438871 
L 274.673396 279.438871 
L 274.673396 279.438871 
L 274.673396 279.438871 
L 274.673396 279.438871 
L 274.673396 279.438871 
L 274.673396 279.438871 
L 274.673396 279.438871 
L 274.673396 279.438871 
L 274.673396 279.438871 
L 274.673396 279.438871 
L 274.673396 279.438871 
L 274.673396 279.438871 
L 274.673396 279.438871 
L 274.673396 279.438871 
L 274.673396 279.438871 
L 274.673396 279.438871 
L 274.673396 279.438871 
L 274.673396 279.438871 
L 274.673396 279.438871 
L 274.673396 279.438871 
L 274.673396 279.438871 
L 274.673396 279.438871 
L 274.673396 279.438871 
L 274.673396 279.438871 
L 274.673396 279.438871 
L 274.673396 279.438871 
L 274.673396 279.438871 
L 274.673396 279.438871 
L 274.673396 279.438871 
L 274.673396 279.438871 
L 274.673396 279.438871 
L 274.673396 279.438871 
L 274.673396 279.438871 
L 274.673396 279.438871 
L 274.673396 279.438871 
L 274.673396 279.438871 
L 274.673396 279.438871 
L 274.673396 279.438871 
L 274.673396 279.438871 
L 274.673396 279.438871 
L 274.673396 279.438871 
L 274.673396 279.438871 
L 274.673396 279.438871 
L 274.673396 279.438871 
L 274.673396 279.438871 
L 274.673396 279.438871 
L 274.673396 279.438871 
L 274.673396 279.438871 
L 274.673396 279.438871 
L 274.673396 279.438871 
L 274.673396 279.438871 
L 274.673396 279.438871 
L 274.673396 279.438871 
L 274.673396 279.438871 
L 274.673396 279.438871 
L 274.673396 279.438871 
L 274.673396 279.438871 
L 274.673396 279.438871 
L 274.673396 279.438871 
L 274.673396 279.438871 
L 274.673396 279.438871 
L 274.673396 279.438871 
L 274.673396 279.438871 
L 274.673396 279.438871 
L 274.673396 279.438871 
L 274.673396 279.438871 
L 274.673396 279.438871 
L 274.673396 279.438871 
z
" style="fill:#993333;stroke:#000000;stroke-linejoin:miter;"/>
   </g>
   <g id="patch_5">
    <path clip-path="url(#p3e5c4662af)" d="M 236.614663 232.25683 
L 235.708006 233.148545 
L 280.425042 278.614817 
L 281.331698 277.723101 
L 281.331698 277.723101 
L 281.331698 277.723101 
L 281.331698 277.723101 
L 281.331698 277.723101 
L 281.331698 277.723101 
L 281.331698 277.723101 
L 281.331698 277.723101 
L 281.331698 277.723101 
L 281.331698 277.723101 
L 281.331698 277.723101 
L 281.331698 277.723101 
L 281.331698 277.723101 
L 281.331698 277.723101 
L 281.331698 277.723101 
L 281.331698 277.723101 
L 281.331698 277.723101 
L 281.331698 277.723101 
L 281.331698 277.723101 
L 281.331698 277.723101 
L 281.331698 277.723101 
L 281.331698 277.723101 
L 281.331698 277.723101 
L 281.331698 277.723101 
L 281.331698 277.723101 
L 281.331698 277.723101 
L 281.331698 277.723101 
L 281.331698 277.723101 
L 281.331698 277.723101 
L 281.331698 277.723101 
L 281.331698 277.723101 
L 281.331698 277.723101 
L 281.331698 277.723101 
L 281.331698 277.723101 
L 281.331698 277.723101 
L 281.331698 277.723101 
L 281.331698 277.723101 
L 281.331698 277.723101 
L 281.331698 277.723101 
L 281.331698 277.723101 
L 281.331698 277.723101 
L 281.331698 277.723101 
L 281.331698 277.723101 
L 281.331698 277.723101 
L 281.331698 277.723101 
L 281.331698 277.723101 
L 281.331698 277.723101 
L 281.331698 277.723101 
L 281.331698 277.723101 
z
" style="stroke:#000000;stroke-linejoin:miter;"/>
   </g>
   <g id="text_1">
    <!-- t = 9.6 -->
    <defs>
     <path d="M 18.3125 70.21875 
L 18.3125 54.6875 
L 36.8125 54.6875 
L 36.8125 47.703125 
L 18.3125 47.703125 
L 18.3125 18.015625 
Q 18.3125 11.328125 20.140625 9.421875 
Q 21.96875 7.515625 27.59375 7.515625 
L 36.8125 7.515625 
L 36.8125 0 
L 27.59375 0 
Q 17.1875 0 13.234375 3.875 
Q 9.28125 7.765625 9.28125 18.015625 
L 9.28125 47.703125 
L 2.6875 47.703125 
L 2.6875 54.6875 
L 9.28125 54.6875 
L 9.28125 70.21875 
z
" id="DejaVuSans-116"/>
     <path id="DejaVuSans-32"/>
     <path d="M 10.59375 45.40625 
L 73.1875 45.40625 
L 73.1875 37.203125 
L 10.59375 37.203125 
z
M 10.59375 25.484375 
L 73.1875 25.484375 
L 73.1875 17.1875 
L 10.59375 17.1875 
z
" id="DejaVuSans-61"/>
     <path d="M 10.984375 1.515625 
L 10.984375 10.5 
Q 14.703125 8.734375 18.5 7.8125 
Q 22.3125 6.890625 25.984375 6.890625 
Q 35.75 6.890625 40.890625 13.453125 
Q 46.046875 20.015625 46.78125 33.40625 
Q 43.953125 29.203125 39.59375 26.953125 
Q 35.25 24.703125 29.984375 24.703125 
Q 19.046875 24.703125 12.671875 31.3125 
Q 6.296875 37.9375 6.296875 49.421875 
Q 6.296875 60.640625 12.9375 67.421875 
Q 19.578125 74.21875 30.609375 74.21875 
Q 43.265625 74.21875 49.921875 64.515625 
Q 56.59375 54.828125 56.59375 36.375 
Q 56.59375 19.140625 48.40625 8.859375 
Q 40.234375 -1.421875 26.421875 -1.421875 
Q 22.703125 -1.421875 18.890625 -0.6875 
Q 15.09375 0.046875 10.984375 1.515625 
z
M 30.609375 32.421875 
Q 37.25 32.421875 41.125 36.953125 
Q 45.015625 41.5 45.015625 49.421875 
Q 45.015625 57.28125 41.125 61.84375 
Q 37.25 66.40625 30.609375 66.40625 
Q 23.96875 66.40625 20.09375 61.84375 
Q 16.21875 57.28125 16.21875 49.421875 
Q 16.21875 41.5 20.09375 36.953125 
Q 23.96875 32.421875 30.609375 32.421875 
z
" id="DejaVuSans-57"/>
     <path d="M 10.6875 12.40625 
L 21 12.40625 
L 21 0 
L 10.6875 0 
z
" id="DejaVuSans-46"/>
     <path d="M 33.015625 40.375 
Q 26.375 40.375 22.484375 35.828125 
Q 18.609375 31.296875 18.609375 23.390625 
Q 18.609375 15.53125 22.484375 10.953125 
Q 26.375 6.390625 33.015625 6.390625 
Q 39.65625 6.390625 43.53125 10.953125 
Q 47.40625 15.53125 47.40625 23.390625 
Q 47.40625 31.296875 43.53125 35.828125 
Q 39.65625 40.375 33.015625 40.375 
z
M 52.59375 71.296875 
L 52.59375 62.3125 
Q 48.875 64.0625 45.09375 64.984375 
Q 41.3125 65.921875 37.59375 65.921875 
Q 27.828125 65.921875 22.671875 59.328125 
Q 17.53125 52.734375 16.796875 39.40625 
Q 19.671875 43.65625 24.015625 45.921875 
Q 28.375 48.1875 33.59375 48.1875 
Q 44.578125 48.1875 50.953125 41.515625 
Q 57.328125 34.859375 57.328125 23.390625 
Q 57.328125 12.15625 50.6875 5.359375 
Q 44.046875 -1.421875 33.015625 -1.421875 
Q 20.359375 -1.421875 13.671875 8.265625 
Q 6.984375 17.96875 6.984375 36.375 
Q 6.984375 53.65625 15.1875 63.9375 
Q 23.390625 74.21875 37.203125 74.21875 
Q 40.921875 74.21875 44.703125 73.484375 
Q 48.484375 72.75 52.59375 71.296875 
z
" id="DejaVuSans-54"/>
    </defs>
    <g transform="translate(215.424375 49.296)scale(0.12 -0.12)">
     <use xlink:href="#DejaVuSans-116"/>
     <use x="39.208984" xlink:href="#DejaVuSans-32"/>
     <use x="70.996094" xlink:href="#DejaVuSans-61"/>
     <use x="154.785156" xlink:href="#DejaVuSans-32"/>
     <use x="186.572266" xlink:href="#DejaVuSans-57"/>
     <use x="250.195312" xlink:href="#DejaVuSans-46"/>
     <use x="281.982422" xlink:href="#DejaVuSans-54"/>
    </g>
   </g>
  </g>
 </g>
 <defs>
  <clipPath id="p3e5c4662af">
   <rect height="354.816" width="357.12" x="57.6" y="55.296"/>
  </clipPath>
 </defs>
</svg>
