<?xml version="1.0" encoding="utf-8" standalone="no"?>
<!DOCTYPE svg PUBLIC "-//W3C//DTD SVG 1.1//EN"
  "http://www.w3.org/Graphics/SVG/1.1/DTD/svg11.dtd">
<!-- Created with matplotlib (https://matplotlib.org/) -->
<svg height="460.8pt" version="1.1" viewBox="0 0 460.8 460.8" width="460.8pt" xmlns="http://www.w3.org/2000/svg" xmlns:xlink="http://www.w3.org/1999/xlink">
 <defs>
  <style type="text/css">
*{stroke-linecap:butt;stroke-linejoin:round;}
  </style>
 </defs>
 <g id="figure_1">
  <g id="patch_1">
   <path d="M 0 460.8 
L 460.8 460.8 
L 460.8 0 
L 0 0 
z
" style="fill:#ffffff;"/>
  </g>
  <g id="axes_1">
   <g id="patch_2">
    <path clip-path="url(#p7d8264b613)" d="M 339.35019 307.773578 
L 340.749274 307.800013 
L 342.4947 307.510919 
L 343.75632 306.885484 
L 345.128341 305.772855 
L 345.943608 304.64868 
L 346.606307 302.984926 
L 346.775615 301.637247 
L 346.566739 299.829713 
L 346.048636 298.588489 
L 345.019325 297.079723 
L 343.940661 296.24885 
L 342.342927 295.408249 
L 340.967795 295.191153 
L 339.192819 295.224527 
L 337.8579 295.67436 
L 336.340258 296.573538 
L 335.372387 297.580166 
L 334.483651 299.124997 
L 334.060255 300.874374 
L 334.088881 302.225793 
L 334.54469 303.992427 
L 335.24128 305.145168 
L 336.464697 306.496526 
L 337.658701 307.168357 
L 337.658701 307.168357 
L 337.658701 307.168357 
L 337.658701 307.168357 
L 337.658701 307.168357 
L 337.658701 307.168357 
L 337.658701 307.168357 
L 337.658701 307.168357 
L 337.658701 307.168357 
L 337.658701 307.168357 
L 337.658701 307.168357 
L 337.658701 307.168357 
L 337.658701 307.168357 
L 337.658701 307.168357 
L 337.658701 307.168357 
L 337.658701 307.168357 
L 337.658701 307.168357 
L 337.658701 307.168357 
L 337.658701 307.168357 
L 337.658701 307.168357 
L 337.658701 307.168357 
L 337.658701 307.168357 
L 337.658701 307.168357 
L 337.658701 307.168357 
L 337.658701 307.168357 
L 337.658701 307.168357 
L 337.658701 307.168357 
L 337.658701 307.168357 
L 337.658701 307.168357 
L 337.658701 307.168357 
L 337.658701 307.168357 
L 337.658701 307.168357 
L 337.658701 307.168357 
L 337.658701 307.168357 
L 337.658701 307.168357 
L 337.658701 307.168357 
L 337.658701 307.168357 
L 337.658701 307.168357 
L 337.658701 307.168357 
L 337.658701 307.168357 
L 337.658701 307.168357 
L 337.658701 307.168357 
L 337.658701 307.168357 
L 337.658701 307.168357 
L 337.658701 307.168357 
L 337.658701 307.168357 
L 337.658701 307.168357 
L 337.658701 307.168357 
L 337.658701 307.168357 
L 337.658701 307.168357 
L 337.658701 307.168357 
L 337.658701 307.168357 
L 337.658701 307.168357 
L 337.658701 307.168357 
L 337.658701 307.168357 
L 337.658701 307.168357 
L 337.658701 307.168357 
L 337.658701 307.168357 
L 337.658701 307.168357 
L 337.658701 307.168357 
L 337.658701 307.168357 
L 337.658701 307.168357 
L 337.658701 307.168357 
L 337.658701 307.168357 
L 337.658701 307.168357 
L 337.658701 307.168357 
L 337.658701 307.168357 
L 337.658701 307.168357 
L 337.658701 307.168357 
L 337.658701 307.168357 
L 337.658701 307.168357 
L 337.658701 307.168357 
L 337.658701 307.168357 
L 337.658701 307.168357 
L 337.658701 307.168357 
L 337.658701 307.168357 
L 337.658701 307.168357 
L 337.658701 307.168357 
L 337.658701 307.168357 
L 337.658701 307.168357 
L 337.658701 307.168357 
L 337.658701 307.168357 
L 337.658701 307.168357 
L 337.658701 307.168357 
L 337.658701 307.168357 
L 337.658701 307.168357 
L 337.658701 307.168357 
L 337.658701 307.168357 
L 337.658701 307.168357 
L 337.658701 307.168357 
L 337.658701 307.168357 
L 337.658701 307.168357 
L 337.658701 307.168357 
L 337.658701 307.168357 
L 337.658701 307.168357 
L 337.658701 307.168357 
L 337.658701 307.168357 
L 337.658701 307.168357 
L 337.658701 307.168357 
L 337.658701 307.168357 
L 337.658701 307.168357 
L 337.658701 307.168357 
L 337.658701 307.168357 
L 337.658701 307.168357 
L 337.658701 307.168357 
L 337.658701 307.168357 
L 337.658701 307.168357 
L 337.658701 307.168357 
L 337.658701 307.168357 
L 337.658701 307.168357 
L 337.658701 307.168357 
L 337.658701 307.168357 
L 337.658701 307.168357 
L 337.658701 307.168357 
L 337.658701 307.168357 
L 337.658701 307.168357 
L 337.658701 307.168357 
L 337.658701 307.168357 
L 337.658701 307.168357 
L 337.658701 307.168357 
L 337.658701 307.168357 
L 337.658701 307.168357 
L 337.658701 307.168357 
L 337.658701 307.168357 
L 337.658701 307.168357 
L 337.658701 307.168357 
L 337.658701 307.168357 
L 337.658701 307.168357 
L 337.658701 307.168357 
L 337.658701 307.168357 
L 337.658701 307.168357 
L 337.658701 307.168357 
L 337.658701 307.168357 
L 337.658701 307.168357 
L 337.658701 307.168357 
L 337.658701 307.168357 
L 337.658701 307.168357 
L 337.658701 307.168357 
L 337.658701 307.168357 
L 337.658701 307.168357 
L 337.658701 307.168357 
L 337.658701 307.168357 
L 337.658701 307.168357 
L 337.658701 307.168357 
L 337.658701 307.168357 
z
" style="fill:#993333;stroke:#000000;stroke-linejoin:miter;"/>
   </g>
   <g id="patch_3">
    <path clip-path="url(#p7d8264b613)" d="M 280.928873 278.475742 
L 340.17352 302.073768 
L 340.644096 300.892353 
L 281.399448 277.294327 
L 281.399448 277.294327 
L 281.399448 277.294327 
L 281.399448 277.294327 
L 281.399448 277.294327 
L 281.399448 277.294327 
L 281.399448 277.294327 
L 281.399448 277.294327 
L 281.399448 277.294327 
L 281.399448 277.294327 
L 281.399448 277.294327 
L 281.399448 277.294327 
L 281.399448 277.294327 
L 281.399448 277.294327 
L 281.399448 277.294327 
L 281.399448 277.294327 
L 281.399448 277.294327 
L 281.399448 277.294327 
L 281.399448 277.294327 
L 281.399448 277.294327 
L 281.399448 277.294327 
L 281.399448 277.294327 
L 281.399448 277.294327 
L 281.399448 277.294327 
L 281.399448 277.294327 
L 281.399448 277.294327 
L 281.399448 277.294327 
L 281.399448 277.294327 
L 281.399448 277.294327 
L 281.399448 277.294327 
L 281.399448 277.294327 
L 281.399448 277.294327 
L 281.399448 277.294327 
L 281.399448 277.294327 
L 281.399448 277.294327 
L 281.399448 277.294327 
L 281.399448 277.294327 
L 281.399448 277.294327 
L 281.399448 277.294327 
L 281.399448 277.294327 
L 281.399448 277.294327 
L 281.399448 277.294327 
L 281.399448 277.294327 
L 281.399448 277.294327 
L 281.399448 277.294327 
L 281.399448 277.294327 
L 281.399448 277.294327 
L 281.399448 277.294327 
L 281.399448 277.294327 
z
" style="stroke:#000000;stroke-linejoin:miter;"/>
   </g>
   <g id="patch_4">
    <path clip-path="url(#p7d8264b613)" d="M 275.554204 280.9206 
L 276.38327 282.011312 
L 277.69537 283.238432 
L 278.96893 283.818241 
L 280.685647 284.24599 
L 282.09189 284.172941 
L 283.792912 283.69659 
L 284.987539 282.988567 
L 286.256397 281.724745 
L 286.946922 280.555096 
L 287.472955 278.81323 
L 287.490314 277.468327 
L 287.144731 275.674886 
L 286.484674 274.484008 
L 285.352085 273.078089 
L 284.176216 272.332804 
L 282.533919 271.658626 
L 281.130133 271.541406 
L 279.38022 271.76403 
L 278.092211 272.303575 
L 276.663121 273.368496 
L 275.579892 274.805924 
L 275.069542 276.057601 
L 274.786381 277.859983 
L 274.967969 279.194551 
L 274.967969 279.194551 
L 274.967969 279.194551 
L 274.967969 279.194551 
L 274.967969 279.194551 
L 274.967969 279.194551 
L 274.967969 279.194551 
L 274.967969 279.194551 
L 274.967969 279.194551 
L 274.967969 279.194551 
L 274.967969 279.194551 
L 274.967969 279.194551 
L 274.967969 279.194551 
L 274.967969 279.194551 
L 274.967969 279.194551 
L 274.967969 279.194551 
L 274.967969 279.194551 
L 274.967969 279.194551 
L 274.967969 279.194551 
L 274.967969 279.194551 
L 274.967969 279.194551 
L 274.967969 279.194551 
L 274.967969 279.194551 
L 274.967969 279.194551 
L 274.967969 279.194551 
L 274.967969 279.194551 
L 274.967969 279.194551 
L 274.967969 279.194551 
L 274.967969 279.194551 
L 274.967969 279.194551 
L 274.967969 279.194551 
L 274.967969 279.194551 
L 274.967969 279.194551 
L 274.967969 279.194551 
L 274.967969 279.194551 
L 274.967969 279.194551 
L 274.967969 279.194551 
L 274.967969 279.194551 
L 274.967969 279.194551 
L 274.967969 279.194551 
L 274.967969 279.194551 
L 274.967969 279.194551 
L 274.967969 279.194551 
L 274.967969 279.194551 
L 274.967969 279.194551 
L 274.967969 279.194551 
L 274.967969 279.194551 
L 274.967969 279.194551 
L 274.967969 279.194551 
L 274.967969 279.194551 
L 274.967969 279.194551 
L 274.967969 279.194551 
L 274.967969 279.194551 
L 274.967969 279.194551 
L 274.967969 279.194551 
L 274.967969 279.194551 
L 274.967969 279.194551 
L 274.967969 279.194551 
L 274.967969 279.194551 
L 274.967969 279.194551 
L 274.967969 279.194551 
L 274.967969 279.194551 
L 274.967969 279.194551 
L 274.967969 279.194551 
L 274.967969 279.194551 
L 274.967969 279.194551 
L 274.967969 279.194551 
L 274.967969 279.194551 
L 274.967969 279.194551 
L 274.967969 279.194551 
L 274.967969 279.194551 
L 274.967969 279.194551 
L 274.967969 279.194551 
L 274.967969 279.194551 
L 274.967969 279.194551 
L 274.967969 279.194551 
L 274.967969 279.194551 
L 274.967969 279.194551 
L 274.967969 279.194551 
L 274.967969 279.194551 
L 274.967969 279.194551 
L 274.967969 279.194551 
L 274.967969 279.194551 
L 274.967969 279.194551 
L 274.967969 279.194551 
L 274.967969 279.194551 
L 274.967969 279.194551 
L 274.967969 279.194551 
L 274.967969 279.194551 
L 274.967969 279.194551 
L 274.967969 279.194551 
L 274.967969 279.194551 
L 274.967969 279.194551 
L 274.967969 279.194551 
L 274.967969 279.194551 
L 274.967969 279.194551 
L 274.967969 279.194551 
L 274.967969 279.194551 
L 274.967969 279.194551 
L 274.967969 279.194551 
L 274.967969 279.194551 
L 274.967969 279.194551 
L 274.967969 279.194551 
L 274.967969 279.194551 
L 274.967969 279.194551 
L 274.967969 279.194551 
L 274.967969 279.194551 
L 274.967969 279.194551 
L 274.967969 279.194551 
L 274.967969 279.194551 
L 274.967969 279.194551 
L 274.967969 279.194551 
L 274.967969 279.194551 
L 274.967969 279.194551 
L 274.967969 279.194551 
L 274.967969 279.194551 
L 274.967969 279.194551 
L 274.967969 279.194551 
L 274.967969 279.194551 
L 274.967969 279.194551 
L 274.967969 279.194551 
L 274.967969 279.194551 
L 274.967969 279.194551 
L 274.967969 279.194551 
L 274.967969 279.194551 
L 274.967969 279.194551 
L 274.967969 279.194551 
L 274.967969 279.194551 
L 274.967969 279.194551 
L 274.967969 279.194551 
L 274.967969 279.194551 
L 274.967969 279.194551 
L 274.967969 279.194551 
L 274.967969 279.194551 
L 274.967969 279.194551 
L 274.967969 279.194551 
L 274.967969 279.194551 
L 274.967969 279.194551 
L 274.967969 279.194551 
L 274.967969 279.194551 
L 274.967969 279.194551 
L 274.967969 279.194551 
L 274.967969 279.194551 
L 274.967969 279.194551 
L 274.967969 279.194551 
z
" style="fill:#993333;stroke:#000000;stroke-linejoin:miter;"/>
   </g>
   <g id="patch_5">
    <path clip-path="url(#p7d8264b613)" d="M 235.710825 233.151393 
L 280.714293 278.334166 
L 281.615296 277.436738 
L 236.611828 232.253965 
L 236.611828 232.253965 
L 236.611828 232.253965 
L 236.611828 232.253965 
L 236.611828 232.253965 
L 236.611828 232.253965 
L 236.611828 232.253965 
L 236.611828 232.253965 
L 236.611828 232.253965 
L 236.611828 232.253965 
L 236.611828 232.253965 
L 236.611828 232.253965 
L 236.611828 232.253965 
L 236.611828 232.253965 
L 236.611828 232.253965 
L 236.611828 232.253965 
L 236.611828 232.253965 
L 236.611828 232.253965 
L 236.611828 232.253965 
L 236.611828 232.253965 
L 236.611828 232.253965 
L 236.611828 232.253965 
L 236.611828 232.253965 
L 236.611828 232.253965 
L 236.611828 232.253965 
L 236.611828 232.253965 
L 236.611828 232.253965 
L 236.611828 232.253965 
L 236.611828 232.253965 
L 236.611828 232.253965 
L 236.611828 232.253965 
L 236.611828 232.253965 
L 236.611828 232.253965 
L 236.611828 232.253965 
L 236.611828 232.253965 
L 236.611828 232.253965 
L 236.611828 232.253965 
L 236.611828 232.253965 
L 236.611828 232.253965 
L 236.611828 232.253965 
L 236.611828 232.253965 
L 236.611828 232.253965 
L 236.611828 232.253965 
L 236.611828 232.253965 
L 236.611828 232.253965 
L 236.611828 232.253965 
L 236.611828 232.253965 
L 236.611828 232.253965 
L 236.611828 232.253965 
z
" style="stroke:#000000;stroke-linejoin:miter;"/>
   </g>
   <g id="text_1">
    <!-- t = 4.6 -->
    <defs>
     <path d="M 18.3125 70.21875 
L 18.3125 54.6875 
L 36.8125 54.6875 
L 36.8125 47.703125 
L 18.3125 47.703125 
L 18.3125 18.015625 
Q 18.3125 11.328125 20.140625 9.421875 
Q 21.96875 7.515625 27.59375 7.515625 
L 36.8125 7.515625 
L 36.8125 0 
L 27.59375 0 
Q 17.1875 0 13.234375 3.875 
Q 9.28125 7.765625 9.28125 18.015625 
L 9.28125 47.703125 
L 2.6875 47.703125 
L 2.6875 54.6875 
L 9.28125 54.6875 
L 9.28125 70.21875 
z
" id="DejaVuSans-116"/>
     <path id="DejaVuSans-32"/>
     <path d="M 10.59375 45.40625 
L 73.1875 45.40625 
L 73.1875 37.203125 
L 10.59375 37.203125 
z
M 10.59375 25.484375 
L 73.1875 25.484375 
L 73.1875 17.1875 
L 10.59375 17.1875 
z
" id="DejaVuSans-61"/>
     <path d="M 37.796875 64.3125 
L 12.890625 25.390625 
L 37.796875 25.390625 
z
M 35.203125 72.90625 
L 47.609375 72.90625 
L 47.609375 25.390625 
L 58.015625 25.390625 
L 58.015625 17.1875 
L 47.609375 17.1875 
L 47.609375 0 
L 37.796875 0 
L 37.796875 17.1875 
L 4.890625 17.1875 
L 4.890625 26.703125 
z
" id="DejaVuSans-52"/>
     <path d="M 10.6875 12.40625 
L 21 12.40625 
L 21 0 
L 10.6875 0 
z
" id="DejaVuSans-46"/>
     <path d="M 33.015625 40.375 
Q 26.375 40.375 22.484375 35.828125 
Q 18.609375 31.296875 18.609375 23.390625 
Q 18.609375 15.53125 22.484375 10.953125 
Q 26.375 6.390625 33.015625 6.390625 
Q 39.65625 6.390625 43.53125 10.953125 
Q 47.40625 15.53125 47.40625 23.390625 
Q 47.40625 31.296875 43.53125 35.828125 
Q 39.65625 40.375 33.015625 40.375 
z
M 52.59375 71.296875 
L 52.59375 62.3125 
Q 48.875 64.0625 45.09375 64.984375 
Q 41.3125 65.921875 37.59375 65.921875 
Q 27.828125 65.921875 22.671875 59.328125 
Q 17.53125 52.734375 16.796875 39.40625 
Q 19.671875 43.65625 24.015625 45.921875 
Q 28.375 48.1875 33.59375 48.1875 
Q 44.578125 48.1875 50.953125 41.515625 
Q 57.328125 34.859375 57.328125 23.390625 
Q 57.328125 12.15625 50.6875 5.359375 
Q 44.046875 -1.421875 33.015625 -1.421875 
Q 20.359375 -1.421875 13.671875 8.265625 
Q 6.984375 17.96875 6.984375 36.375 
Q 6.984375 53.65625 15.1875 63.9375 
Q 23.390625 74.21875 37.203125 74.21875 
Q 40.921875 74.21875 44.703125 73.484375 
Q 48.484375 72.75 52.59375 71.296875 
z
" id="DejaVuSans-54"/>
    </defs>
    <g transform="translate(215.424375 49.296)scale(0.12 -0.12)">
     <use xlink:href="#DejaVuSans-116"/>
     <use x="39.208984" xlink:href="#DejaVuSans-32"/>
     <use x="70.996094" xlink:href="#DejaVuSans-61"/>
     <use x="154.785156" xlink:href="#DejaVuSans-32"/>
     <use x="186.572266" xlink:href="#DejaVuSans-52"/>
     <use x="250.195312" xlink:href="#DejaVuSans-46"/>
     <use x="281.982422" xlink:href="#DejaVuSans-54"/>
    </g>
   </g>
  </g>
 </g>
 <defs>
  <clipPath id="p7d8264b613">
   <rect height="354.816" width="357.12" x="57.6" y="55.296"/>
  </clipPath>
 </defs>
</svg>
