<?xml version="1.0" encoding="utf-8" standalone="no"?>
<!DOCTYPE svg PUBLIC "-//W3C//DTD SVG 1.1//EN"
  "http://www.w3.org/Graphics/SVG/1.1/DTD/svg11.dtd">
<!-- Created with matplotlib (https://matplotlib.org/) -->
<svg height="460.8pt" version="1.1" viewBox="0 0 460.8 460.8" width="460.8pt" xmlns="http://www.w3.org/2000/svg" xmlns:xlink="http://www.w3.org/1999/xlink">
 <defs>
  <style type="text/css">
*{stroke-linecap:butt;stroke-linejoin:round;}
  </style>
 </defs>
 <g id="figure_1">
  <g id="patch_1">
   <path d="M 0 460.8 
L 460.8 460.8 
L 460.8 0 
L 0 0 
z
" style="fill:#ffffff;"/>
  </g>
  <g id="axes_1">
   <g id="patch_2">
    <path clip-path="url(#p76b50cea7e)" d="M 214.491486 357.786719 
L 214.678462 356.407169 
L 214.606284 354.633347 
L 214.12737 353.308584 
L 213.195223 351.810966 
L 212.167672 350.865337 
L 210.603777 350.010592 
L 208.84556 349.625549 
L 207.495091 349.683718 
L 205.738845 350.178048 
L 204.601612 350.899677 
L 203.277328 352.15235 
L 202.631766 353.360758 
L 202.063674 355.065077 
L 202.067839 356.464404 
L 202.395029 358.203091 
L 203.0479 359.450734 
L 204.190264 360.798099 
L 205.331997 361.58859 
L 207.009844 362.21475 
L 208.360903 362.354551 
L 210.163437 362.106201 
L 211.393035 361.561081 
L 212.878934 360.499026 
L 213.686023 359.402452 
L 213.686023 359.402452 
L 213.686023 359.402452 
L 213.686023 359.402452 
L 213.686023 359.402452 
L 213.686023 359.402452 
L 213.686023 359.402452 
L 213.686023 359.402452 
L 213.686023 359.402452 
L 213.686023 359.402452 
L 213.686023 359.402452 
L 213.686023 359.402452 
L 213.686023 359.402452 
L 213.686023 359.402452 
L 213.686023 359.402452 
L 213.686023 359.402452 
L 213.686023 359.402452 
L 213.686023 359.402452 
L 213.686023 359.402452 
L 213.686023 359.402452 
L 213.686023 359.402452 
L 213.686023 359.402452 
L 213.686023 359.402452 
L 213.686023 359.402452 
L 213.686023 359.402452 
L 213.686023 359.402452 
L 213.686023 359.402452 
L 213.686023 359.402452 
L 213.686023 359.402452 
L 213.686023 359.402452 
L 213.686023 359.402452 
L 213.686023 359.402452 
L 213.686023 359.402452 
L 213.686023 359.402452 
L 213.686023 359.402452 
L 213.686023 359.402452 
L 213.686023 359.402452 
L 213.686023 359.402452 
L 213.686023 359.402452 
L 213.686023 359.402452 
L 213.686023 359.402452 
L 213.686023 359.402452 
L 213.686023 359.402452 
L 213.686023 359.402452 
L 213.686023 359.402452 
L 213.686023 359.402452 
L 213.686023 359.402452 
L 213.686023 359.402452 
L 213.686023 359.402452 
L 213.686023 359.402452 
L 213.686023 359.402452 
L 213.686023 359.402452 
L 213.686023 359.402452 
L 213.686023 359.402452 
L 213.686023 359.402452 
L 213.686023 359.402452 
L 213.686023 359.402452 
L 213.686023 359.402452 
L 213.686023 359.402452 
L 213.686023 359.402452 
L 213.686023 359.402452 
L 213.686023 359.402452 
L 213.686023 359.402452 
L 213.686023 359.402452 
L 213.686023 359.402452 
L 213.686023 359.402452 
L 213.686023 359.402452 
L 213.686023 359.402452 
L 213.686023 359.402452 
L 213.686023 359.402452 
L 213.686023 359.402452 
L 213.686023 359.402452 
L 213.686023 359.402452 
L 213.686023 359.402452 
L 213.686023 359.402452 
L 213.686023 359.402452 
L 213.686023 359.402452 
L 213.686023 359.402452 
L 213.686023 359.402452 
L 213.686023 359.402452 
L 213.686023 359.402452 
L 213.686023 359.402452 
L 213.686023 359.402452 
L 213.686023 359.402452 
L 213.686023 359.402452 
L 213.686023 359.402452 
L 213.686023 359.402452 
L 213.686023 359.402452 
L 213.686023 359.402452 
L 213.686023 359.402452 
L 213.686023 359.402452 
L 213.686023 359.402452 
L 213.686023 359.402452 
L 213.686023 359.402452 
L 213.686023 359.402452 
L 213.686023 359.402452 
L 213.686023 359.402452 
L 213.686023 359.402452 
L 213.686023 359.402452 
L 213.686023 359.402452 
L 213.686023 359.402452 
L 213.686023 359.402452 
L 213.686023 359.402452 
L 213.686023 359.402452 
L 213.686023 359.402452 
L 213.686023 359.402452 
L 213.686023 359.402452 
L 213.686023 359.402452 
L 213.686023 359.402452 
L 213.686023 359.402452 
L 213.686023 359.402452 
L 213.686023 359.402452 
L 213.686023 359.402452 
L 213.686023 359.402452 
L 213.686023 359.402452 
L 213.686023 359.402452 
L 213.686023 359.402452 
L 213.686023 359.402452 
L 213.686023 359.402452 
L 213.686023 359.402452 
L 213.686023 359.402452 
L 213.686023 359.402452 
L 213.686023 359.402452 
L 213.686023 359.402452 
L 213.686023 359.402452 
L 213.686023 359.402452 
L 213.686023 359.402452 
L 213.686023 359.402452 
L 213.686023 359.402452 
L 213.686023 359.402452 
L 213.686023 359.402452 
L 213.686023 359.402452 
L 213.686023 359.402452 
L 213.686023 359.402452 
L 213.686023 359.402452 
L 213.686023 359.402452 
L 213.686023 359.402452 
L 213.686023 359.402452 
L 213.686023 359.402452 
L 213.686023 359.402452 
L 213.686023 359.402452 
L 213.686023 359.402452 
L 213.686023 359.402452 
L 213.686023 359.402452 
L 213.686023 359.402452 
z
" style="fill:#993333;stroke:#000000;stroke-linejoin:miter;"/>
   </g>
   <g id="patch_3">
    <path clip-path="url(#p76b50cea7e)" d="M 207.780125 355.763579 
L 208.971547 356.208209 
L 231.268494 296.461734 
L 230.077072 296.017104 
L 230.077072 296.017104 
L 230.077072 296.017104 
L 230.077072 296.017104 
L 230.077072 296.017104 
L 230.077072 296.017104 
L 230.077072 296.017104 
L 230.077072 296.017104 
L 230.077072 296.017104 
L 230.077072 296.017104 
L 230.077072 296.017104 
L 230.077072 296.017104 
L 230.077072 296.017104 
L 230.077072 296.017104 
L 230.077072 296.017104 
L 230.077072 296.017104 
L 230.077072 296.017104 
L 230.077072 296.017104 
L 230.077072 296.017104 
L 230.077072 296.017104 
L 230.077072 296.017104 
L 230.077072 296.017104 
L 230.077072 296.017104 
L 230.077072 296.017104 
L 230.077072 296.017104 
L 230.077072 296.017104 
L 230.077072 296.017104 
L 230.077072 296.017104 
L 230.077072 296.017104 
L 230.077072 296.017104 
L 230.077072 296.017104 
L 230.077072 296.017104 
L 230.077072 296.017104 
L 230.077072 296.017104 
L 230.077072 296.017104 
L 230.077072 296.017104 
L 230.077072 296.017104 
L 230.077072 296.017104 
L 230.077072 296.017104 
L 230.077072 296.017104 
L 230.077072 296.017104 
L 230.077072 296.017104 
L 230.077072 296.017104 
L 230.077072 296.017104 
L 230.077072 296.017104 
L 230.077072 296.017104 
L 230.077072 296.017104 
L 230.077072 296.017104 
L 230.077072 296.017104 
z
" style="stroke:#000000;stroke-linejoin:miter;"/>
   </g>
   <g id="patch_4">
    <path clip-path="url(#p76b50cea7e)" d="M 231.219926 289.885288 
L 229.422804 289.984975 
L 228.137196 290.402543 
L 226.577382 291.348979 
L 225.674836 292.348708 
L 224.734227 293.910173 
L 224.435719 295.247295 
L 224.344609 297.041487 
L 224.723223 298.388628 
L 225.503919 299.976267 
L 226.466957 301.003599 
L 227.928318 301.995976 
L 229.239995 302.451973 
L 231.024228 302.606119 
L 232.3634 302.379137 
L 234.033662 301.657311 
L 235.072453 300.802923 
L 236.219807 299.381854 
L 236.703885 298.109244 
L 237.047417 296.336859 
L 236.858263 294.957607 
L 236.313866 293.267847 
L 235.49779 292.119641 
L 234.19875 290.92622 
L 232.955558 290.290181 
L 232.955558 290.290181 
L 232.955558 290.290181 
L 232.955558 290.290181 
L 232.955558 290.290181 
L 232.955558 290.290181 
L 232.955558 290.290181 
L 232.955558 290.290181 
L 232.955558 290.290181 
L 232.955558 290.290181 
L 232.955558 290.290181 
L 232.955558 290.290181 
L 232.955558 290.290181 
L 232.955558 290.290181 
L 232.955558 290.290181 
L 232.955558 290.290181 
L 232.955558 290.290181 
L 232.955558 290.290181 
L 232.955558 290.290181 
L 232.955558 290.290181 
L 232.955558 290.290181 
L 232.955558 290.290181 
L 232.955558 290.290181 
L 232.955558 290.290181 
L 232.955558 290.290181 
L 232.955558 290.290181 
L 232.955558 290.290181 
L 232.955558 290.290181 
L 232.955558 290.290181 
L 232.955558 290.290181 
L 232.955558 290.290181 
L 232.955558 290.290181 
L 232.955558 290.290181 
L 232.955558 290.290181 
L 232.955558 290.290181 
L 232.955558 290.290181 
L 232.955558 290.290181 
L 232.955558 290.290181 
L 232.955558 290.290181 
L 232.955558 290.290181 
L 232.955558 290.290181 
L 232.955558 290.290181 
L 232.955558 290.290181 
L 232.955558 290.290181 
L 232.955558 290.290181 
L 232.955558 290.290181 
L 232.955558 290.290181 
L 232.955558 290.290181 
L 232.955558 290.290181 
L 232.955558 290.290181 
L 232.955558 290.290181 
L 232.955558 290.290181 
L 232.955558 290.290181 
L 232.955558 290.290181 
L 232.955558 290.290181 
L 232.955558 290.290181 
L 232.955558 290.290181 
L 232.955558 290.290181 
L 232.955558 290.290181 
L 232.955558 290.290181 
L 232.955558 290.290181 
L 232.955558 290.290181 
L 232.955558 290.290181 
L 232.955558 290.290181 
L 232.955558 290.290181 
L 232.955558 290.290181 
L 232.955558 290.290181 
L 232.955558 290.290181 
L 232.955558 290.290181 
L 232.955558 290.290181 
L 232.955558 290.290181 
L 232.955558 290.290181 
L 232.955558 290.290181 
L 232.955558 290.290181 
L 232.955558 290.290181 
L 232.955558 290.290181 
L 232.955558 290.290181 
L 232.955558 290.290181 
L 232.955558 290.290181 
L 232.955558 290.290181 
L 232.955558 290.290181 
L 232.955558 290.290181 
L 232.955558 290.290181 
L 232.955558 290.290181 
L 232.955558 290.290181 
L 232.955558 290.290181 
L 232.955558 290.290181 
L 232.955558 290.290181 
L 232.955558 290.290181 
L 232.955558 290.290181 
L 232.955558 290.290181 
L 232.955558 290.290181 
L 232.955558 290.290181 
L 232.955558 290.290181 
L 232.955558 290.290181 
L 232.955558 290.290181 
L 232.955558 290.290181 
L 232.955558 290.290181 
L 232.955558 290.290181 
L 232.955558 290.290181 
L 232.955558 290.290181 
L 232.955558 290.290181 
L 232.955558 290.290181 
L 232.955558 290.290181 
L 232.955558 290.290181 
L 232.955558 290.290181 
L 232.955558 290.290181 
L 232.955558 290.290181 
L 232.955558 290.290181 
L 232.955558 290.290181 
L 232.955558 290.290181 
L 232.955558 290.290181 
L 232.955558 290.290181 
L 232.955558 290.290181 
L 232.955558 290.290181 
L 232.955558 290.290181 
L 232.955558 290.290181 
L 232.955558 290.290181 
L 232.955558 290.290181 
L 232.955558 290.290181 
L 232.955558 290.290181 
L 232.955558 290.290181 
L 232.955558 290.290181 
L 232.955558 290.290181 
L 232.955558 290.290181 
L 232.955558 290.290181 
L 232.955558 290.290181 
L 232.955558 290.290181 
L 232.955558 290.290181 
L 232.955558 290.290181 
L 232.955558 290.290181 
L 232.955558 290.290181 
L 232.955558 290.290181 
L 232.955558 290.290181 
L 232.955558 290.290181 
L 232.955558 290.290181 
L 232.955558 290.290181 
L 232.955558 290.290181 
L 232.955558 290.290181 
L 232.955558 290.290181 
L 232.955558 290.290181 
L 232.955558 290.290181 
L 232.955558 290.290181 
L 232.955558 290.290181 
L 232.955558 290.290181 
z
" style="fill:#993333;stroke:#000000;stroke-linejoin:miter;"/>
   </g>
   <g id="patch_5">
    <path clip-path="url(#p76b50cea7e)" d="M 235.528382 232.649433 
L 230.039411 296.184197 
L 231.306377 296.293654 
L 236.795348 232.75889 
L 236.795348 232.75889 
L 236.795348 232.75889 
L 236.795348 232.75889 
L 236.795348 232.75889 
L 236.795348 232.75889 
L 236.795348 232.75889 
L 236.795348 232.75889 
L 236.795348 232.75889 
L 236.795348 232.75889 
L 236.795348 232.75889 
L 236.795348 232.75889 
L 236.795348 232.75889 
L 236.795348 232.75889 
L 236.795348 232.75889 
L 236.795348 232.75889 
L 236.795348 232.75889 
L 236.795348 232.75889 
L 236.795348 232.75889 
L 236.795348 232.75889 
L 236.795348 232.75889 
L 236.795348 232.75889 
L 236.795348 232.75889 
L 236.795348 232.75889 
L 236.795348 232.75889 
L 236.795348 232.75889 
L 236.795348 232.75889 
L 236.795348 232.75889 
L 236.795348 232.75889 
L 236.795348 232.75889 
L 236.795348 232.75889 
L 236.795348 232.75889 
L 236.795348 232.75889 
L 236.795348 232.75889 
L 236.795348 232.75889 
L 236.795348 232.75889 
L 236.795348 232.75889 
L 236.795348 232.75889 
L 236.795348 232.75889 
L 236.795348 232.75889 
L 236.795348 232.75889 
L 236.795348 232.75889 
L 236.795348 232.75889 
L 236.795348 232.75889 
L 236.795348 232.75889 
L 236.795348 232.75889 
L 236.795348 232.75889 
L 236.795348 232.75889 
L 236.795348 232.75889 
z
" style="stroke:#000000;stroke-linejoin:miter;"/>
   </g>
   <g id="text_1">
    <!-- t = 7.9 -->
    <defs>
     <path d="M 18.3125 70.21875 
L 18.3125 54.6875 
L 36.8125 54.6875 
L 36.8125 47.703125 
L 18.3125 47.703125 
L 18.3125 18.015625 
Q 18.3125 11.328125 20.140625 9.421875 
Q 21.96875 7.515625 27.59375 7.515625 
L 36.8125 7.515625 
L 36.8125 0 
L 27.59375 0 
Q 17.1875 0 13.234375 3.875 
Q 9.28125 7.765625 9.28125 18.015625 
L 9.28125 47.703125 
L 2.6875 47.703125 
L 2.6875 54.6875 
L 9.28125 54.6875 
L 9.28125 70.21875 
z
" id="DejaVuSans-116"/>
     <path id="DejaVuSans-32"/>
     <path d="M 10.59375 45.40625 
L 73.1875 45.40625 
L 73.1875 37.203125 
L 10.59375 37.203125 
z
M 10.59375 25.484375 
L 73.1875 25.484375 
L 73.1875 17.1875 
L 10.59375 17.1875 
z
" id="DejaVuSans-61"/>
     <path d="M 8.203125 72.90625 
L 55.078125 72.90625 
L 55.078125 68.703125 
L 28.609375 0 
L 18.3125 0 
L 43.21875 64.59375 
L 8.203125 64.59375 
z
" id="DejaVuSans-55"/>
     <path d="M 10.6875 12.40625 
L 21 12.40625 
L 21 0 
L 10.6875 0 
z
" id="DejaVuSans-46"/>
     <path d="M 10.984375 1.515625 
L 10.984375 10.5 
Q 14.703125 8.734375 18.5 7.8125 
Q 22.3125 6.890625 25.984375 6.890625 
Q 35.75 6.890625 40.890625 13.453125 
Q 46.046875 20.015625 46.78125 33.40625 
Q 43.953125 29.203125 39.59375 26.953125 
Q 35.25 24.703125 29.984375 24.703125 
Q 19.046875 24.703125 12.671875 31.3125 
Q 6.296875 37.9375 6.296875 49.421875 
Q 6.296875 60.640625 12.9375 67.421875 
Q 19.578125 74.21875 30.609375 74.21875 
Q 43.265625 74.21875 49.921875 64.515625 
Q 56.59375 54.828125 56.59375 36.375 
Q 56.59375 19.140625 48.40625 8.859375 
Q 40.234375 -1.421875 26.421875 -1.421875 
Q 22.703125 -1.421875 18.890625 -0.6875 
Q 15.09375 0.046875 10.984375 1.515625 
z
M 30.609375 32.421875 
Q 37.25 32.421875 41.125 36.953125 
Q 45.015625 41.5 45.015625 49.421875 
Q 45.015625 57.28125 41.125 61.84375 
Q 37.25 66.40625 30.609375 66.40625 
Q 23.96875 66.40625 20.09375 61.84375 
Q 16.21875 57.28125 16.21875 49.421875 
Q 16.21875 41.5 20.09375 36.953125 
Q 23.96875 32.421875 30.609375 32.421875 
z
" id="DejaVuSans-57"/>
    </defs>
    <g transform="translate(215.424375 49.296)scale(0.12 -0.12)">
     <use xlink:href="#DejaVuSans-116"/>
     <use x="39.208984" xlink:href="#DejaVuSans-32"/>
     <use x="70.996094" xlink:href="#DejaVuSans-61"/>
     <use x="154.785156" xlink:href="#DejaVuSans-32"/>
     <use x="186.572266" xlink:href="#DejaVuSans-55"/>
     <use x="250.195312" xlink:href="#DejaVuSans-46"/>
     <use x="281.982422" xlink:href="#DejaVuSans-57"/>
    </g>
   </g>
  </g>
 </g>
 <defs>
  <clipPath id="p76b50cea7e">
   <rect height="354.816" width="357.12" x="57.6" y="55.296"/>
  </clipPath>
 </defs>
</svg>
