<?xml version="1.0" encoding="utf-8" standalone="no"?>
<!DOCTYPE svg PUBLIC "-//W3C//DTD SVG 1.1//EN"
  "http://www.w3.org/Graphics/SVG/1.1/DTD/svg11.dtd">
<!-- Created with matplotlib (https://matplotlib.org/) -->
<svg height="460.8pt" version="1.1" viewBox="0 0 460.8 460.8" width="460.8pt" xmlns="http://www.w3.org/2000/svg" xmlns:xlink="http://www.w3.org/1999/xlink">
 <defs>
  <style type="text/css">
*{stroke-linecap:butt;stroke-linejoin:round;}
  </style>
 </defs>
 <g id="figure_1">
  <g id="patch_1">
   <path d="M 0 460.8 
L 460.8 460.8 
L 460.8 0 
L 0 0 
z
" style="fill:#ffffff;"/>
  </g>
  <g id="axes_1">
   <g id="patch_2">
    <path clip-path="url(#pb6306a8b8f)" d="M 338.186527 299.045234 
L 338.928574 300.16925 
L 340.204958 301.470697 
L 341.424827 302.094332 
L 343.139126 302.631553 
L 344.538151 302.60212 
L 346.270646 302.243585 
L 347.506295 301.56829 
L 348.832811 300.401781 
L 349.602555 299.245959 
L 350.198314 297.557078 
L 350.313693 296.203715 
L 350.032833 294.40596 
L 349.465598 293.186406 
L 348.376883 291.719929 
L 347.265913 290.932774 
L 345.635898 290.15662 
L 344.253197 289.994587 
L 342.480967 290.098785 
L 341.165068 290.601545 
L 339.684528 291.560585 
L 338.757609 292.605044 
L 337.931245 294.184119 
L 337.578016 295.949003 
L 337.660563 297.298202 
L 337.660563 297.298202 
L 337.660563 297.298202 
L 337.660563 297.298202 
L 337.660563 297.298202 
L 337.660563 297.298202 
L 337.660563 297.298202 
L 337.660563 297.298202 
L 337.660563 297.298202 
L 337.660563 297.298202 
L 337.660563 297.298202 
L 337.660563 297.298202 
L 337.660563 297.298202 
L 337.660563 297.298202 
L 337.660563 297.298202 
L 337.660563 297.298202 
L 337.660563 297.298202 
L 337.660563 297.298202 
L 337.660563 297.298202 
L 337.660563 297.298202 
L 337.660563 297.298202 
L 337.660563 297.298202 
L 337.660563 297.298202 
L 337.660563 297.298202 
L 337.660563 297.298202 
L 337.660563 297.298202 
L 337.660563 297.298202 
L 337.660563 297.298202 
L 337.660563 297.298202 
L 337.660563 297.298202 
L 337.660563 297.298202 
L 337.660563 297.298202 
L 337.660563 297.298202 
L 337.660563 297.298202 
L 337.660563 297.298202 
L 337.660563 297.298202 
L 337.660563 297.298202 
L 337.660563 297.298202 
L 337.660563 297.298202 
L 337.660563 297.298202 
L 337.660563 297.298202 
L 337.660563 297.298202 
L 337.660563 297.298202 
L 337.660563 297.298202 
L 337.660563 297.298202 
L 337.660563 297.298202 
L 337.660563 297.298202 
L 337.660563 297.298202 
L 337.660563 297.298202 
L 337.660563 297.298202 
L 337.660563 297.298202 
L 337.660563 297.298202 
L 337.660563 297.298202 
L 337.660563 297.298202 
L 337.660563 297.298202 
L 337.660563 297.298202 
L 337.660563 297.298202 
L 337.660563 297.298202 
L 337.660563 297.298202 
L 337.660563 297.298202 
L 337.660563 297.298202 
L 337.660563 297.298202 
L 337.660563 297.298202 
L 337.660563 297.298202 
L 337.660563 297.298202 
L 337.660563 297.298202 
L 337.660563 297.298202 
L 337.660563 297.298202 
L 337.660563 297.298202 
L 337.660563 297.298202 
L 337.660563 297.298202 
L 337.660563 297.298202 
L 337.660563 297.298202 
L 337.660563 297.298202 
L 337.660563 297.298202 
L 337.660563 297.298202 
L 337.660563 297.298202 
L 337.660563 297.298202 
L 337.660563 297.298202 
L 337.660563 297.298202 
L 337.660563 297.298202 
L 337.660563 297.298202 
L 337.660563 297.298202 
L 337.660563 297.298202 
L 337.660563 297.298202 
L 337.660563 297.298202 
L 337.660563 297.298202 
L 337.660563 297.298202 
L 337.660563 297.298202 
L 337.660563 297.298202 
L 337.660563 297.298202 
L 337.660563 297.298202 
L 337.660563 297.298202 
L 337.660563 297.298202 
L 337.660563 297.298202 
L 337.660563 297.298202 
L 337.660563 297.298202 
L 337.660563 297.298202 
L 337.660563 297.298202 
L 337.660563 297.298202 
L 337.660563 297.298202 
L 337.660563 297.298202 
L 337.660563 297.298202 
L 337.660563 297.298202 
L 337.660563 297.298202 
L 337.660563 297.298202 
L 337.660563 297.298202 
L 337.660563 297.298202 
L 337.660563 297.298202 
L 337.660563 297.298202 
L 337.660563 297.298202 
L 337.660563 297.298202 
L 337.660563 297.298202 
L 337.660563 297.298202 
L 337.660563 297.298202 
L 337.660563 297.298202 
L 337.660563 297.298202 
L 337.660563 297.298202 
L 337.660563 297.298202 
L 337.660563 297.298202 
L 337.660563 297.298202 
L 337.660563 297.298202 
L 337.660563 297.298202 
L 337.660563 297.298202 
L 337.660563 297.298202 
L 337.660563 297.298202 
L 337.660563 297.298202 
L 337.660563 297.298202 
L 337.660563 297.298202 
L 337.660563 297.298202 
L 337.660563 297.298202 
L 337.660563 297.298202 
L 337.660563 297.298202 
L 337.660563 297.298202 
L 337.660563 297.298202 
L 337.660563 297.298202 
L 337.660563 297.298202 
L 337.660563 297.298202 
L 337.660563 297.298202 
L 337.660563 297.298202 
L 337.660563 297.298202 
L 337.660563 297.298202 
L 337.660563 297.298202 
L 337.660563 297.298202 
L 337.660563 297.298202 
z
" style="fill:#993333;stroke:#000000;stroke-linejoin:miter;"/>
   </g>
   <g id="patch_3">
    <path clip-path="url(#pb6306a8b8f)" d="M 284.017946 274.489781 
L 283.594904 275.689038 
L 343.734285 296.903421 
L 344.157327 295.704164 
L 344.157327 295.704164 
L 344.157327 295.704164 
L 344.157327 295.704164 
L 344.157327 295.704164 
L 344.157327 295.704164 
L 344.157327 295.704164 
L 344.157327 295.704164 
L 344.157327 295.704164 
L 344.157327 295.704164 
L 344.157327 295.704164 
L 344.157327 295.704164 
L 344.157327 295.704164 
L 344.157327 295.704164 
L 344.157327 295.704164 
L 344.157327 295.704164 
L 344.157327 295.704164 
L 344.157327 295.704164 
L 344.157327 295.704164 
L 344.157327 295.704164 
L 344.157327 295.704164 
L 344.157327 295.704164 
L 344.157327 295.704164 
L 344.157327 295.704164 
L 344.157327 295.704164 
L 344.157327 295.704164 
L 344.157327 295.704164 
L 344.157327 295.704164 
L 344.157327 295.704164 
L 344.157327 295.704164 
L 344.157327 295.704164 
L 344.157327 295.704164 
L 344.157327 295.704164 
L 344.157327 295.704164 
L 344.157327 295.704164 
L 344.157327 295.704164 
L 344.157327 295.704164 
L 344.157327 295.704164 
L 344.157327 295.704164 
L 344.157327 295.704164 
L 344.157327 295.704164 
L 344.157327 295.704164 
L 344.157327 295.704164 
L 344.157327 295.704164 
L 344.157327 295.704164 
L 344.157327 295.704164 
L 344.157327 295.704164 
L 344.157327 295.704164 
L 344.157327 295.704164 
z
" style="stroke:#000000;stroke-linejoin:miter;"/>
   </g>
   <g id="patch_4">
    <path clip-path="url(#pb6306a8b8f)" d="M 279.041222 270.852457 
L 278.046631 272.352582 
L 277.612677 273.632752 
L 277.438702 275.448927 
L 277.700425 276.770119 
L 278.389662 278.457683 
L 279.282983 279.496423 
L 280.666682 280.642199 
L 281.972884 281.144168 
L 283.712268 281.467632 
L 285.111548 281.309929 
L 286.780755 280.731885 
L 287.93052 279.953122 
L 289.120869 278.615096 
L 289.739617 277.405941 
L 290.15967 275.635528 
L 290.095909 274.292025 
L 289.642823 272.522683 
L 288.912164 271.373768 
L 287.696869 270.038695 
L 286.478204 269.365662 
L 284.798247 268.79173 
L 283.389946 268.759362 
L 281.656639 269.087089 
L 280.403505 269.70331 
L 280.403505 269.70331 
L 280.403505 269.70331 
L 280.403505 269.70331 
L 280.403505 269.70331 
L 280.403505 269.70331 
L 280.403505 269.70331 
L 280.403505 269.70331 
L 280.403505 269.70331 
L 280.403505 269.70331 
L 280.403505 269.70331 
L 280.403505 269.70331 
L 280.403505 269.70331 
L 280.403505 269.70331 
L 280.403505 269.70331 
L 280.403505 269.70331 
L 280.403505 269.70331 
L 280.403505 269.70331 
L 280.403505 269.70331 
L 280.403505 269.70331 
L 280.403505 269.70331 
L 280.403505 269.70331 
L 280.403505 269.70331 
L 280.403505 269.70331 
L 280.403505 269.70331 
L 280.403505 269.70331 
L 280.403505 269.70331 
L 280.403505 269.70331 
L 280.403505 269.70331 
L 280.403505 269.70331 
L 280.403505 269.70331 
L 280.403505 269.70331 
L 280.403505 269.70331 
L 280.403505 269.70331 
L 280.403505 269.70331 
L 280.403505 269.70331 
L 280.403505 269.70331 
L 280.403505 269.70331 
L 280.403505 269.70331 
L 280.403505 269.70331 
L 280.403505 269.70331 
L 280.403505 269.70331 
L 280.403505 269.70331 
L 280.403505 269.70331 
L 280.403505 269.70331 
L 280.403505 269.70331 
L 280.403505 269.70331 
L 280.403505 269.70331 
L 280.403505 269.70331 
L 280.403505 269.70331 
L 280.403505 269.70331 
L 280.403505 269.70331 
L 280.403505 269.70331 
L 280.403505 269.70331 
L 280.403505 269.70331 
L 280.403505 269.70331 
L 280.403505 269.70331 
L 280.403505 269.70331 
L 280.403505 269.70331 
L 280.403505 269.70331 
L 280.403505 269.70331 
L 280.403505 269.70331 
L 280.403505 269.70331 
L 280.403505 269.70331 
L 280.403505 269.70331 
L 280.403505 269.70331 
L 280.403505 269.70331 
L 280.403505 269.70331 
L 280.403505 269.70331 
L 280.403505 269.70331 
L 280.403505 269.70331 
L 280.403505 269.70331 
L 280.403505 269.70331 
L 280.403505 269.70331 
L 280.403505 269.70331 
L 280.403505 269.70331 
L 280.403505 269.70331 
L 280.403505 269.70331 
L 280.403505 269.70331 
L 280.403505 269.70331 
L 280.403505 269.70331 
L 280.403505 269.70331 
L 280.403505 269.70331 
L 280.403505 269.70331 
L 280.403505 269.70331 
L 280.403505 269.70331 
L 280.403505 269.70331 
L 280.403505 269.70331 
L 280.403505 269.70331 
L 280.403505 269.70331 
L 280.403505 269.70331 
L 280.403505 269.70331 
L 280.403505 269.70331 
L 280.403505 269.70331 
L 280.403505 269.70331 
L 280.403505 269.70331 
L 280.403505 269.70331 
L 280.403505 269.70331 
L 280.403505 269.70331 
L 280.403505 269.70331 
L 280.403505 269.70331 
L 280.403505 269.70331 
L 280.403505 269.70331 
L 280.403505 269.70331 
L 280.403505 269.70331 
L 280.403505 269.70331 
L 280.403505 269.70331 
L 280.403505 269.70331 
L 280.403505 269.70331 
L 280.403505 269.70331 
L 280.403505 269.70331 
L 280.403505 269.70331 
L 280.403505 269.70331 
L 280.403505 269.70331 
L 280.403505 269.70331 
L 280.403505 269.70331 
L 280.403505 269.70331 
L 280.403505 269.70331 
L 280.403505 269.70331 
L 280.403505 269.70331 
L 280.403505 269.70331 
L 280.403505 269.70331 
L 280.403505 269.70331 
L 280.403505 269.70331 
L 280.403505 269.70331 
L 280.403505 269.70331 
L 280.403505 269.70331 
L 280.403505 269.70331 
L 280.403505 269.70331 
L 280.403505 269.70331 
L 280.403505 269.70331 
L 280.403505 269.70331 
L 280.403505 269.70331 
L 280.403505 269.70331 
L 280.403505 269.70331 
L 280.403505 269.70331 
L 280.403505 269.70331 
L 280.403505 269.70331 
L 280.403505 269.70331 
L 280.403505 269.70331 
L 280.403505 269.70331 
L 280.403505 269.70331 
L 280.403505 269.70331 
L 280.403505 269.70331 
L 280.403505 269.70331 
z
" style="fill:#993333;stroke:#000000;stroke-linejoin:miter;"/>
   </g>
   <g id="patch_5">
    <path clip-path="url(#pb6306a8b8f)" d="M 235.738617 233.177661 
L 283.384419 275.564836 
L 284.229674 274.614717 
L 236.583872 232.227542 
L 236.583872 232.227542 
L 236.583872 232.227542 
L 236.583872 232.227542 
L 236.583872 232.227542 
L 236.583872 232.227542 
L 236.583872 232.227542 
L 236.583872 232.227542 
L 236.583872 232.227542 
L 236.583872 232.227542 
L 236.583872 232.227542 
L 236.583872 232.227542 
L 236.583872 232.227542 
L 236.583872 232.227542 
L 236.583872 232.227542 
L 236.583872 232.227542 
L 236.583872 232.227542 
L 236.583872 232.227542 
L 236.583872 232.227542 
L 236.583872 232.227542 
L 236.583872 232.227542 
L 236.583872 232.227542 
L 236.583872 232.227542 
L 236.583872 232.227542 
L 236.583872 232.227542 
L 236.583872 232.227542 
L 236.583872 232.227542 
L 236.583872 232.227542 
L 236.583872 232.227542 
L 236.583872 232.227542 
L 236.583872 232.227542 
L 236.583872 232.227542 
L 236.583872 232.227542 
L 236.583872 232.227542 
L 236.583872 232.227542 
L 236.583872 232.227542 
L 236.583872 232.227542 
L 236.583872 232.227542 
L 236.583872 232.227542 
L 236.583872 232.227542 
L 236.583872 232.227542 
L 236.583872 232.227542 
L 236.583872 232.227542 
L 236.583872 232.227542 
L 236.583872 232.227542 
L 236.583872 232.227542 
L 236.583872 232.227542 
L 236.583872 232.227542 
L 236.583872 232.227542 
z
" style="stroke:#000000;stroke-linejoin:miter;"/>
   </g>
   <g id="text_1">
    <!-- t = 4.6 -->
    <defs>
     <path d="M 18.3125 70.21875 
L 18.3125 54.6875 
L 36.8125 54.6875 
L 36.8125 47.703125 
L 18.3125 47.703125 
L 18.3125 18.015625 
Q 18.3125 11.328125 20.140625 9.421875 
Q 21.96875 7.515625 27.59375 7.515625 
L 36.8125 7.515625 
L 36.8125 0 
L 27.59375 0 
Q 17.1875 0 13.234375 3.875 
Q 9.28125 7.765625 9.28125 18.015625 
L 9.28125 47.703125 
L 2.6875 47.703125 
L 2.6875 54.6875 
L 9.28125 54.6875 
L 9.28125 70.21875 
z
" id="DejaVuSans-116"/>
     <path id="DejaVuSans-32"/>
     <path d="M 10.59375 45.40625 
L 73.1875 45.40625 
L 73.1875 37.203125 
L 10.59375 37.203125 
z
M 10.59375 25.484375 
L 73.1875 25.484375 
L 73.1875 17.1875 
L 10.59375 17.1875 
z
" id="DejaVuSans-61"/>
     <path d="M 37.796875 64.3125 
L 12.890625 25.390625 
L 37.796875 25.390625 
z
M 35.203125 72.90625 
L 47.609375 72.90625 
L 47.609375 25.390625 
L 58.015625 25.390625 
L 58.015625 17.1875 
L 47.609375 17.1875 
L 47.609375 0 
L 37.796875 0 
L 37.796875 17.1875 
L 4.890625 17.1875 
L 4.890625 26.703125 
z
" id="DejaVuSans-52"/>
     <path d="M 10.6875 12.40625 
L 21 12.40625 
L 21 0 
L 10.6875 0 
z
" id="DejaVuSans-46"/>
     <path d="M 33.015625 40.375 
Q 26.375 40.375 22.484375 35.828125 
Q 18.609375 31.296875 18.609375 23.390625 
Q 18.609375 15.53125 22.484375 10.953125 
Q 26.375 6.390625 33.015625 6.390625 
Q 39.65625 6.390625 43.53125 10.953125 
Q 47.40625 15.53125 47.40625 23.390625 
Q 47.40625 31.296875 43.53125 35.828125 
Q 39.65625 40.375 33.015625 40.375 
z
M 52.59375 71.296875 
L 52.59375 62.3125 
Q 48.875 64.0625 45.09375 64.984375 
Q 41.3125 65.921875 37.59375 65.921875 
Q 27.828125 65.921875 22.671875 59.328125 
Q 17.53125 52.734375 16.796875 39.40625 
Q 19.671875 43.65625 24.015625 45.921875 
Q 28.375 48.1875 33.59375 48.1875 
Q 44.578125 48.1875 50.953125 41.515625 
Q 57.328125 34.859375 57.328125 23.390625 
Q 57.328125 12.15625 50.6875 5.359375 
Q 44.046875 -1.421875 33.015625 -1.421875 
Q 20.359375 -1.421875 13.671875 8.265625 
Q 6.984375 17.96875 6.984375 36.375 
Q 6.984375 53.65625 15.1875 63.9375 
Q 23.390625 74.21875 37.203125 74.21875 
Q 40.921875 74.21875 44.703125 73.484375 
Q 48.484375 72.75 52.59375 71.296875 
z
" id="DejaVuSans-54"/>
    </defs>
    <g transform="translate(215.424375 49.296)scale(0.12 -0.12)">
     <use xlink:href="#DejaVuSans-116"/>
     <use x="39.208984" xlink:href="#DejaVuSans-32"/>
     <use x="70.996094" xlink:href="#DejaVuSans-61"/>
     <use x="154.785156" xlink:href="#DejaVuSans-32"/>
     <use x="186.572266" xlink:href="#DejaVuSans-52"/>
     <use x="250.195312" xlink:href="#DejaVuSans-46"/>
     <use x="281.982422" xlink:href="#DejaVuSans-54"/>
    </g>
   </g>
  </g>
 </g>
 <defs>
  <clipPath id="pb6306a8b8f">
   <rect height="354.816" width="357.12" x="57.6" y="55.296"/>
  </clipPath>
 </defs>
</svg>
