<?xml version="1.0" encoding="utf-8" standalone="no"?>
<!DOCTYPE svg PUBLIC "-//W3C//DTD SVG 1.1//EN"
  "http://www.w3.org/Graphics/SVG/1.1/DTD/svg11.dtd">
<!-- Created with matplotlib (https://matplotlib.org/) -->
<svg height="460.8pt" version="1.1" viewBox="0 0 460.8 460.8" width="460.8pt" xmlns="http://www.w3.org/2000/svg" xmlns:xlink="http://www.w3.org/1999/xlink">
 <defs>
  <style type="text/css">
*{stroke-linecap:butt;stroke-linejoin:round;}
  </style>
 </defs>
 <g id="figure_1">
  <g id="patch_1">
   <path d="M 0 460.8 
L 460.8 460.8 
L 460.8 0 
L 0 0 
z
" style="fill:#ffffff;"/>
  </g>
  <g id="axes_1">
   <g id="patch_2">
    <path clip-path="url(#p60f767e929)" d="M 163.515968 341.069083 
L 164.2513 342.247098 
L 165.543992 343.486531 
L 166.729224 344.149952 
L 168.482737 344.635754 
L 169.827683 344.622154 
L 171.612694 344.235384 
L 172.788065 343.548091 
L 174.167543 342.383444 
L 174.885567 341.190732 
L 175.521766 339.533354 
L 175.606645 338.127241 
L 175.343803 336.382915 
L 174.774756 335.107666 
L 173.677225 333.703466 
L 172.215246 332.653608 
L 170.952154 332.172203 
L 169.143732 331.930601 
L 167.813697 332.142858 
L 166.101598 332.768664 
L 165.030258 333.622615 
L 163.833663 334.962611 
L 163.283319 336.249179 
L 162.895196 337.975287 
L 163.000593 339.379475 
L 163.000593 339.379475 
L 163.000593 339.379475 
L 163.000593 339.379475 
L 163.000593 339.379475 
L 163.000593 339.379475 
L 163.000593 339.379475 
L 163.000593 339.379475 
L 163.000593 339.379475 
L 163.000593 339.379475 
L 163.000593 339.379475 
L 163.000593 339.379475 
L 163.000593 339.379475 
L 163.000593 339.379475 
L 163.000593 339.379475 
L 163.000593 339.379475 
L 163.000593 339.379475 
L 163.000593 339.379475 
L 163.000593 339.379475 
L 163.000593 339.379475 
L 163.000593 339.379475 
L 163.000593 339.379475 
L 163.000593 339.379475 
L 163.000593 339.379475 
L 163.000593 339.379475 
L 163.000593 339.379475 
L 163.000593 339.379475 
L 163.000593 339.379475 
L 163.000593 339.379475 
L 163.000593 339.379475 
L 163.000593 339.379475 
L 163.000593 339.379475 
L 163.000593 339.379475 
L 163.000593 339.379475 
L 163.000593 339.379475 
L 163.000593 339.379475 
L 163.000593 339.379475 
L 163.000593 339.379475 
L 163.000593 339.379475 
L 163.000593 339.379475 
L 163.000593 339.379475 
L 163.000593 339.379475 
L 163.000593 339.379475 
L 163.000593 339.379475 
L 163.000593 339.379475 
L 163.000593 339.379475 
L 163.000593 339.379475 
L 163.000593 339.379475 
L 163.000593 339.379475 
L 163.000593 339.379475 
L 163.000593 339.379475 
L 163.000593 339.379475 
L 163.000593 339.379475 
L 163.000593 339.379475 
L 163.000593 339.379475 
L 163.000593 339.379475 
L 163.000593 339.379475 
L 163.000593 339.379475 
L 163.000593 339.379475 
L 163.000593 339.379475 
L 163.000593 339.379475 
L 163.000593 339.379475 
L 163.000593 339.379475 
L 163.000593 339.379475 
L 163.000593 339.379475 
L 163.000593 339.379475 
L 163.000593 339.379475 
L 163.000593 339.379475 
L 163.000593 339.379475 
L 163.000593 339.379475 
L 163.000593 339.379475 
L 163.000593 339.379475 
L 163.000593 339.379475 
L 163.000593 339.379475 
L 163.000593 339.379475 
L 163.000593 339.379475 
L 163.000593 339.379475 
L 163.000593 339.379475 
L 163.000593 339.379475 
L 163.000593 339.379475 
L 163.000593 339.379475 
L 163.000593 339.379475 
L 163.000593 339.379475 
L 163.000593 339.379475 
L 163.000593 339.379475 
L 163.000593 339.379475 
L 163.000593 339.379475 
L 163.000593 339.379475 
L 163.000593 339.379475 
L 163.000593 339.379475 
L 163.000593 339.379475 
L 163.000593 339.379475 
L 163.000593 339.379475 
L 163.000593 339.379475 
L 163.000593 339.379475 
L 163.000593 339.379475 
L 163.000593 339.379475 
L 163.000593 339.379475 
L 163.000593 339.379475 
L 163.000593 339.379475 
L 163.000593 339.379475 
L 163.000593 339.379475 
L 163.000593 339.379475 
L 163.000593 339.379475 
L 163.000593 339.379475 
L 163.000593 339.379475 
L 163.000593 339.379475 
L 163.000593 339.379475 
L 163.000593 339.379475 
L 163.000593 339.379475 
L 163.000593 339.379475 
L 163.000593 339.379475 
L 163.000593 339.379475 
L 163.000593 339.379475 
L 163.000593 339.379475 
L 163.000593 339.379475 
L 163.000593 339.379475 
L 163.000593 339.379475 
L 163.000593 339.379475 
L 163.000593 339.379475 
L 163.000593 339.379475 
L 163.000593 339.379475 
L 163.000593 339.379475 
L 163.000593 339.379475 
L 163.000593 339.379475 
L 163.000593 339.379475 
L 163.000593 339.379475 
L 163.000593 339.379475 
L 163.000593 339.379475 
L 163.000593 339.379475 
L 163.000593 339.379475 
L 163.000593 339.379475 
L 163.000593 339.379475 
L 163.000593 339.379475 
L 163.000593 339.379475 
L 163.000593 339.379475 
L 163.000593 339.379475 
L 163.000593 339.379475 
L 163.000593 339.379475 
L 163.000593 339.379475 
L 163.000593 339.379475 
L 163.000593 339.379475 
L 163.000593 339.379475 
L 163.000593 339.379475 
L 163.000593 339.379475 
z
" style="fill:#993333;stroke:#000000;stroke-linejoin:miter;"/>
   </g>
   <g id="patch_3">
    <path clip-path="url(#p60f767e929)" d="M 212.941101 291.836366 
L 168.806114 337.867856 
L 169.724041 338.747964 
L 213.859028 292.716475 
L 213.859028 292.716475 
L 213.859028 292.716475 
L 213.859028 292.716475 
L 213.859028 292.716475 
L 213.859028 292.716475 
L 213.859028 292.716475 
L 213.859028 292.716475 
L 213.859028 292.716475 
L 213.859028 292.716475 
L 213.859028 292.716475 
L 213.859028 292.716475 
L 213.859028 292.716475 
L 213.859028 292.716475 
L 213.859028 292.716475 
L 213.859028 292.716475 
L 213.859028 292.716475 
L 213.859028 292.716475 
L 213.859028 292.716475 
L 213.859028 292.716475 
L 213.859028 292.716475 
L 213.859028 292.716475 
L 213.859028 292.716475 
L 213.859028 292.716475 
L 213.859028 292.716475 
L 213.859028 292.716475 
L 213.859028 292.716475 
L 213.859028 292.716475 
L 213.859028 292.716475 
L 213.859028 292.716475 
L 213.859028 292.716475 
L 213.859028 292.716475 
L 213.859028 292.716475 
L 213.859028 292.716475 
L 213.859028 292.716475 
L 213.859028 292.716475 
L 213.859028 292.716475 
L 213.859028 292.716475 
L 213.859028 292.716475 
L 213.859028 292.716475 
L 213.859028 292.716475 
L 213.859028 292.716475 
L 213.859028 292.716475 
L 213.859028 292.716475 
L 213.859028 292.716475 
L 213.859028 292.716475 
L 213.859028 292.716475 
L 213.859028 292.716475 
L 213.859028 292.716475 
z
" style="stroke:#000000;stroke-linejoin:miter;"/>
   </g>
   <g id="patch_4">
    <path clip-path="url(#p60f767e929)" d="M 207.095658 291.305875 
L 207.088931 292.705193 
L 207.402579 294.446374 
L 208.04572 295.69906 
L 209.177562 297.055275 
L 210.313108 297.854629 
L 211.986031 298.493829 
L 213.33596 298.64414 
L 215.140373 298.409827 
L 216.374177 297.874295 
L 217.868297 296.823837 
L 218.683896 295.733577 
L 219.50191 294.124162 
L 219.699618 292.74611 
L 219.641248 290.97178 
L 219.172659 289.643329 
L 218.252196 288.138501 
L 217.232036 287.184903 
L 215.674842 286.318012 
L 213.919675 285.919297 
L 212.568794 285.966953 
L 210.808754 286.447599 
L 209.665938 287.160354 
L 208.331945 288.402682 
L 207.676997 289.60603 
L 207.676997 289.60603 
L 207.676997 289.60603 
L 207.676997 289.60603 
L 207.676997 289.60603 
L 207.676997 289.60603 
L 207.676997 289.60603 
L 207.676997 289.60603 
L 207.676997 289.60603 
L 207.676997 289.60603 
L 207.676997 289.60603 
L 207.676997 289.60603 
L 207.676997 289.60603 
L 207.676997 289.60603 
L 207.676997 289.60603 
L 207.676997 289.60603 
L 207.676997 289.60603 
L 207.676997 289.60603 
L 207.676997 289.60603 
L 207.676997 289.60603 
L 207.676997 289.60603 
L 207.676997 289.60603 
L 207.676997 289.60603 
L 207.676997 289.60603 
L 207.676997 289.60603 
L 207.676997 289.60603 
L 207.676997 289.60603 
L 207.676997 289.60603 
L 207.676997 289.60603 
L 207.676997 289.60603 
L 207.676997 289.60603 
L 207.676997 289.60603 
L 207.676997 289.60603 
L 207.676997 289.60603 
L 207.676997 289.60603 
L 207.676997 289.60603 
L 207.676997 289.60603 
L 207.676997 289.60603 
L 207.676997 289.60603 
L 207.676997 289.60603 
L 207.676997 289.60603 
L 207.676997 289.60603 
L 207.676997 289.60603 
L 207.676997 289.60603 
L 207.676997 289.60603 
L 207.676997 289.60603 
L 207.676997 289.60603 
L 207.676997 289.60603 
L 207.676997 289.60603 
L 207.676997 289.60603 
L 207.676997 289.60603 
L 207.676997 289.60603 
L 207.676997 289.60603 
L 207.676997 289.60603 
L 207.676997 289.60603 
L 207.676997 289.60603 
L 207.676997 289.60603 
L 207.676997 289.60603 
L 207.676997 289.60603 
L 207.676997 289.60603 
L 207.676997 289.60603 
L 207.676997 289.60603 
L 207.676997 289.60603 
L 207.676997 289.60603 
L 207.676997 289.60603 
L 207.676997 289.60603 
L 207.676997 289.60603 
L 207.676997 289.60603 
L 207.676997 289.60603 
L 207.676997 289.60603 
L 207.676997 289.60603 
L 207.676997 289.60603 
L 207.676997 289.60603 
L 207.676997 289.60603 
L 207.676997 289.60603 
L 207.676997 289.60603 
L 207.676997 289.60603 
L 207.676997 289.60603 
L 207.676997 289.60603 
L 207.676997 289.60603 
L 207.676997 289.60603 
L 207.676997 289.60603 
L 207.676997 289.60603 
L 207.676997 289.60603 
L 207.676997 289.60603 
L 207.676997 289.60603 
L 207.676997 289.60603 
L 207.676997 289.60603 
L 207.676997 289.60603 
L 207.676997 289.60603 
L 207.676997 289.60603 
L 207.676997 289.60603 
L 207.676997 289.60603 
L 207.676997 289.60603 
L 207.676997 289.60603 
L 207.676997 289.60603 
L 207.676997 289.60603 
L 207.676997 289.60603 
L 207.676997 289.60603 
L 207.676997 289.60603 
L 207.676997 289.60603 
L 207.676997 289.60603 
L 207.676997 289.60603 
L 207.676997 289.60603 
L 207.676997 289.60603 
L 207.676997 289.60603 
L 207.676997 289.60603 
L 207.676997 289.60603 
L 207.676997 289.60603 
L 207.676997 289.60603 
L 207.676997 289.60603 
L 207.676997 289.60603 
L 207.676997 289.60603 
L 207.676997 289.60603 
L 207.676997 289.60603 
L 207.676997 289.60603 
L 207.676997 289.60603 
L 207.676997 289.60603 
L 207.676997 289.60603 
L 207.676997 289.60603 
L 207.676997 289.60603 
L 207.676997 289.60603 
L 207.676997 289.60603 
L 207.676997 289.60603 
L 207.676997 289.60603 
L 207.676997 289.60603 
L 207.676997 289.60603 
L 207.676997 289.60603 
L 207.676997 289.60603 
L 207.676997 289.60603 
L 207.676997 289.60603 
L 207.676997 289.60603 
L 207.676997 289.60603 
L 207.676997 289.60603 
L 207.676997 289.60603 
L 207.676997 289.60603 
L 207.676997 289.60603 
L 207.676997 289.60603 
L 207.676997 289.60603 
L 207.676997 289.60603 
L 207.676997 289.60603 
L 207.676997 289.60603 
L 207.676997 289.60603 
L 207.676997 289.60603 
L 207.676997 289.60603 
z
" style="fill:#993333;stroke:#000000;stroke-linejoin:miter;"/>
   </g>
   <g id="patch_5">
    <path clip-path="url(#p60f767e929)" d="M 212.806499 292.048848 
L 213.994425 292.502738 
L 236.755711 232.931613 
L 235.567786 232.477723 
L 235.567786 232.477723 
L 235.567786 232.477723 
L 235.567786 232.477723 
L 235.567786 232.477723 
L 235.567786 232.477723 
L 235.567786 232.477723 
L 235.567786 232.477723 
L 235.567786 232.477723 
L 235.567786 232.477723 
L 235.567786 232.477723 
L 235.567786 232.477723 
L 235.567786 232.477723 
L 235.567786 232.477723 
L 235.567786 232.477723 
L 235.567786 232.477723 
L 235.567786 232.477723 
L 235.567786 232.477723 
L 235.567786 232.477723 
L 235.567786 232.477723 
L 235.567786 232.477723 
L 235.567786 232.477723 
L 235.567786 232.477723 
L 235.567786 232.477723 
L 235.567786 232.477723 
L 235.567786 232.477723 
L 235.567786 232.477723 
L 235.567786 232.477723 
L 235.567786 232.477723 
L 235.567786 232.477723 
L 235.567786 232.477723 
L 235.567786 232.477723 
L 235.567786 232.477723 
L 235.567786 232.477723 
L 235.567786 232.477723 
L 235.567786 232.477723 
L 235.567786 232.477723 
L 235.567786 232.477723 
L 235.567786 232.477723 
L 235.567786 232.477723 
L 235.567786 232.477723 
L 235.567786 232.477723 
L 235.567786 232.477723 
L 235.567786 232.477723 
L 235.567786 232.477723 
L 235.567786 232.477723 
L 235.567786 232.477723 
L 235.567786 232.477723 
L 235.567786 232.477723 
z
" style="stroke:#000000;stroke-linejoin:miter;"/>
   </g>
   <g id="text_1">
    <!-- t = 9.0 -->
    <defs>
     <path d="M 18.3125 70.21875 
L 18.3125 54.6875 
L 36.8125 54.6875 
L 36.8125 47.703125 
L 18.3125 47.703125 
L 18.3125 18.015625 
Q 18.3125 11.328125 20.140625 9.421875 
Q 21.96875 7.515625 27.59375 7.515625 
L 36.8125 7.515625 
L 36.8125 0 
L 27.59375 0 
Q 17.1875 0 13.234375 3.875 
Q 9.28125 7.765625 9.28125 18.015625 
L 9.28125 47.703125 
L 2.6875 47.703125 
L 2.6875 54.6875 
L 9.28125 54.6875 
L 9.28125 70.21875 
z
" id="DejaVuSans-116"/>
     <path id="DejaVuSans-32"/>
     <path d="M 10.59375 45.40625 
L 73.1875 45.40625 
L 73.1875 37.203125 
L 10.59375 37.203125 
z
M 10.59375 25.484375 
L 73.1875 25.484375 
L 73.1875 17.1875 
L 10.59375 17.1875 
z
" id="DejaVuSans-61"/>
     <path d="M 10.984375 1.515625 
L 10.984375 10.5 
Q 14.703125 8.734375 18.5 7.8125 
Q 22.3125 6.890625 25.984375 6.890625 
Q 35.75 6.890625 40.890625 13.453125 
Q 46.046875 20.015625 46.78125 33.40625 
Q 43.953125 29.203125 39.59375 26.953125 
Q 35.25 24.703125 29.984375 24.703125 
Q 19.046875 24.703125 12.671875 31.3125 
Q 6.296875 37.9375 6.296875 49.421875 
Q 6.296875 60.640625 12.9375 67.421875 
Q 19.578125 74.21875 30.609375 74.21875 
Q 43.265625 74.21875 49.921875 64.515625 
Q 56.59375 54.828125 56.59375 36.375 
Q 56.59375 19.140625 48.40625 8.859375 
Q 40.234375 -1.421875 26.421875 -1.421875 
Q 22.703125 -1.421875 18.890625 -0.6875 
Q 15.09375 0.046875 10.984375 1.515625 
z
M 30.609375 32.421875 
Q 37.25 32.421875 41.125 36.953125 
Q 45.015625 41.5 45.015625 49.421875 
Q 45.015625 57.28125 41.125 61.84375 
Q 37.25 66.40625 30.609375 66.40625 
Q 23.96875 66.40625 20.09375 61.84375 
Q 16.21875 57.28125 16.21875 49.421875 
Q 16.21875 41.5 20.09375 36.953125 
Q 23.96875 32.421875 30.609375 32.421875 
z
" id="DejaVuSans-57"/>
     <path d="M 10.6875 12.40625 
L 21 12.40625 
L 21 0 
L 10.6875 0 
z
" id="DejaVuSans-46"/>
     <path d="M 31.78125 66.40625 
Q 24.171875 66.40625 20.328125 58.90625 
Q 16.5 51.421875 16.5 36.375 
Q 16.5 21.390625 20.328125 13.890625 
Q 24.171875 6.390625 31.78125 6.390625 
Q 39.453125 6.390625 43.28125 13.890625 
Q 47.125 21.390625 47.125 36.375 
Q 47.125 51.421875 43.28125 58.90625 
Q 39.453125 66.40625 31.78125 66.40625 
z
M 31.78125 74.21875 
Q 44.046875 74.21875 50.515625 64.515625 
Q 56.984375 54.828125 56.984375 36.375 
Q 56.984375 17.96875 50.515625 8.265625 
Q 44.046875 -1.421875 31.78125 -1.421875 
Q 19.53125 -1.421875 13.0625 8.265625 
Q 6.59375 17.96875 6.59375 36.375 
Q 6.59375 54.828125 13.0625 64.515625 
Q 19.53125 74.21875 31.78125 74.21875 
z
" id="DejaVuSans-48"/>
    </defs>
    <g transform="translate(215.424375 49.296)scale(0.12 -0.12)">
     <use xlink:href="#DejaVuSans-116"/>
     <use x="39.208984" xlink:href="#DejaVuSans-32"/>
     <use x="70.996094" xlink:href="#DejaVuSans-61"/>
     <use x="154.785156" xlink:href="#DejaVuSans-32"/>
     <use x="186.572266" xlink:href="#DejaVuSans-57"/>
     <use x="250.195312" xlink:href="#DejaVuSans-46"/>
     <use x="281.982422" xlink:href="#DejaVuSans-48"/>
    </g>
   </g>
  </g>
 </g>
 <defs>
  <clipPath id="p60f767e929">
   <rect height="354.816" width="357.12" x="57.6" y="55.296"/>
  </clipPath>
 </defs>
</svg>
