<?xml version="1.0" encoding="utf-8" standalone="no"?>
<!DOCTYPE svg PUBLIC "-//W3C//DTD SVG 1.1//EN"
  "http://www.w3.org/Graphics/SVG/1.1/DTD/svg11.dtd">
<!-- Created with matplotlib (https://matplotlib.org/) -->
<svg height="460.8pt" version="1.1" viewBox="0 0 460.8 460.8" width="460.8pt" xmlns="http://www.w3.org/2000/svg" xmlns:xlink="http://www.w3.org/1999/xlink">
 <defs>
  <style type="text/css">
*{stroke-linecap:butt;stroke-linejoin:round;}
  </style>
 </defs>
 <g id="figure_1">
  <g id="patch_1">
   <path d="M 0 460.8 
L 460.8 460.8 
L 460.8 0 
L 0 0 
z
" style="fill:#ffffff;"/>
  </g>
  <g id="axes_1">
   <g id="patch_2">
    <path clip-path="url(#p4568abe2e2)" d="M 339.251238 295.906371 
L 338.207217 297.3508 
L 337.604838 299.046891 
L 337.493282 300.394001 
L 337.763588 302.198356 
L 338.336986 303.417069 
L 339.413797 304.887918 
L 340.531762 305.67985 
L 342.151436 306.457078 
L 343.540251 306.628337 
L 345.306236 306.521652 
L 346.62587 306.030307 
L 348.105792 305.065829 
L 349.033153 304.032179 
L 349.864674 302.446045 
L 350.172712 301.123164 
L 350.152248 299.303716 
L 349.765544 298.01549 
L 348.898104 296.408192 
L 347.911337 295.470025 
L 346.409302 294.4684 
L 345.064067 294.109987 
L 343.295186 293.959267 
L 341.920843 294.268361 
L 340.318201 295.005447 
L 340.318201 295.005447 
L 340.318201 295.005447 
L 340.318201 295.005447 
L 340.318201 295.005447 
L 340.318201 295.005447 
L 340.318201 295.005447 
L 340.318201 295.005447 
L 340.318201 295.005447 
L 340.318201 295.005447 
L 340.318201 295.005447 
L 340.318201 295.005447 
L 340.318201 295.005447 
L 340.318201 295.005447 
L 340.318201 295.005447 
L 340.318201 295.005447 
L 340.318201 295.005447 
L 340.318201 295.005447 
L 340.318201 295.005447 
L 340.318201 295.005447 
L 340.318201 295.005447 
L 340.318201 295.005447 
L 340.318201 295.005447 
L 340.318201 295.005447 
L 340.318201 295.005447 
L 340.318201 295.005447 
L 340.318201 295.005447 
L 340.318201 295.005447 
L 340.318201 295.005447 
L 340.318201 295.005447 
L 340.318201 295.005447 
L 340.318201 295.005447 
L 340.318201 295.005447 
L 340.318201 295.005447 
L 340.318201 295.005447 
L 340.318201 295.005447 
L 340.318201 295.005447 
L 340.318201 295.005447 
L 340.318201 295.005447 
L 340.318201 295.005447 
L 340.318201 295.005447 
L 340.318201 295.005447 
L 340.318201 295.005447 
L 340.318201 295.005447 
L 340.318201 295.005447 
L 340.318201 295.005447 
L 340.318201 295.005447 
L 340.318201 295.005447 
L 340.318201 295.005447 
L 340.318201 295.005447 
L 340.318201 295.005447 
L 340.318201 295.005447 
L 340.318201 295.005447 
L 340.318201 295.005447 
L 340.318201 295.005447 
L 340.318201 295.005447 
L 340.318201 295.005447 
L 340.318201 295.005447 
L 340.318201 295.005447 
L 340.318201 295.005447 
L 340.318201 295.005447 
L 340.318201 295.005447 
L 340.318201 295.005447 
L 340.318201 295.005447 
L 340.318201 295.005447 
L 340.318201 295.005447 
L 340.318201 295.005447 
L 340.318201 295.005447 
L 340.318201 295.005447 
L 340.318201 295.005447 
L 340.318201 295.005447 
L 340.318201 295.005447 
L 340.318201 295.005447 
L 340.318201 295.005447 
L 340.318201 295.005447 
L 340.318201 295.005447 
L 340.318201 295.005447 
L 340.318201 295.005447 
L 340.318201 295.005447 
L 340.318201 295.005447 
L 340.318201 295.005447 
L 340.318201 295.005447 
L 340.318201 295.005447 
L 340.318201 295.005447 
L 340.318201 295.005447 
L 340.318201 295.005447 
L 340.318201 295.005447 
L 340.318201 295.005447 
L 340.318201 295.005447 
L 340.318201 295.005447 
L 340.318201 295.005447 
L 340.318201 295.005447 
L 340.318201 295.005447 
L 340.318201 295.005447 
L 340.318201 295.005447 
L 340.318201 295.005447 
L 340.318201 295.005447 
L 340.318201 295.005447 
L 340.318201 295.005447 
L 340.318201 295.005447 
L 340.318201 295.005447 
L 340.318201 295.005447 
L 340.318201 295.005447 
L 340.318201 295.005447 
L 340.318201 295.005447 
L 340.318201 295.005447 
L 340.318201 295.005447 
L 340.318201 295.005447 
L 340.318201 295.005447 
L 340.318201 295.005447 
L 340.318201 295.005447 
L 340.318201 295.005447 
L 340.318201 295.005447 
L 340.318201 295.005447 
L 340.318201 295.005447 
L 340.318201 295.005447 
L 340.318201 295.005447 
L 340.318201 295.005447 
L 340.318201 295.005447 
L 340.318201 295.005447 
L 340.318201 295.005447 
L 340.318201 295.005447 
L 340.318201 295.005447 
L 340.318201 295.005447 
L 340.318201 295.005447 
L 340.318201 295.005447 
L 340.318201 295.005447 
L 340.318201 295.005447 
L 340.318201 295.005447 
L 340.318201 295.005447 
L 340.318201 295.005447 
L 340.318201 295.005447 
L 340.318201 295.005447 
L 340.318201 295.005447 
L 340.318201 295.005447 
L 340.318201 295.005447 
L 340.318201 295.005447 
L 340.318201 295.005447 
L 340.318201 295.005447 
L 340.318201 295.005447 
L 340.318201 295.005447 
L 340.318201 295.005447 
L 340.318201 295.005447 
L 340.318201 295.005447 
L 340.318201 295.005447 
z
" style="fill:#993333;stroke:#000000;stroke-linejoin:miter;"/>
   </g>
   <g id="patch_3">
    <path clip-path="url(#p4568abe2e2)" d="M 287.08028 271.263595 
L 343.560923 300.873257 
L 344.151378 299.74696 
L 287.670735 270.137298 
L 287.670735 270.137298 
L 287.670735 270.137298 
L 287.670735 270.137298 
L 287.670735 270.137298 
L 287.670735 270.137298 
L 287.670735 270.137298 
L 287.670735 270.137298 
L 287.670735 270.137298 
L 287.670735 270.137298 
L 287.670735 270.137298 
L 287.670735 270.137298 
L 287.670735 270.137298 
L 287.670735 270.137298 
L 287.670735 270.137298 
L 287.670735 270.137298 
L 287.670735 270.137298 
L 287.670735 270.137298 
L 287.670735 270.137298 
L 287.670735 270.137298 
L 287.670735 270.137298 
L 287.670735 270.137298 
L 287.670735 270.137298 
L 287.670735 270.137298 
L 287.670735 270.137298 
L 287.670735 270.137298 
L 287.670735 270.137298 
L 287.670735 270.137298 
L 287.670735 270.137298 
L 287.670735 270.137298 
L 287.670735 270.137298 
L 287.670735 270.137298 
L 287.670735 270.137298 
L 287.670735 270.137298 
L 287.670735 270.137298 
L 287.670735 270.137298 
L 287.670735 270.137298 
L 287.670735 270.137298 
L 287.670735 270.137298 
L 287.670735 270.137298 
L 287.670735 270.137298 
L 287.670735 270.137298 
L 287.670735 270.137298 
L 287.670735 270.137298 
L 287.670735 270.137298 
L 287.670735 270.137298 
L 287.670735 270.137298 
L 287.670735 270.137298 
L 287.670735 270.137298 
z
" style="stroke:#000000;stroke-linejoin:miter;"/>
   </g>
   <g id="patch_4">
    <path clip-path="url(#p4568abe2e2)" d="M 282.253174 266.902294 
L 281.395435 268.484655 
L 281.076636 269.798245 
L 281.064292 271.622693 
L 281.442068 272.915493 
L 282.278142 274.535338 
L 283.26 275.490826 
L 284.739792 276.509474 
L 286.085339 276.893713 
L 287.846544 277.061763 
L 289.226344 276.780678 
L 290.837758 276.056986 
L 291.913986 275.179396 
L 292.981078 273.741147 
L 293.490238 272.481917 
L 293.751747 270.681245 
L 293.569178 269.348678 
L 292.961077 267.626449 
L 292.131478 266.546805 
L 290.802652 265.324682 
L 289.529139 264.762293 
L 287.80493 264.339495 
L 286.399302 264.432055 
L 284.701857 264.912096 
L 283.508262 265.636944 
L 283.508262 265.636944 
L 283.508262 265.636944 
L 283.508262 265.636944 
L 283.508262 265.636944 
L 283.508262 265.636944 
L 283.508262 265.636944 
L 283.508262 265.636944 
L 283.508262 265.636944 
L 283.508262 265.636944 
L 283.508262 265.636944 
L 283.508262 265.636944 
L 283.508262 265.636944 
L 283.508262 265.636944 
L 283.508262 265.636944 
L 283.508262 265.636944 
L 283.508262 265.636944 
L 283.508262 265.636944 
L 283.508262 265.636944 
L 283.508262 265.636944 
L 283.508262 265.636944 
L 283.508262 265.636944 
L 283.508262 265.636944 
L 283.508262 265.636944 
L 283.508262 265.636944 
L 283.508262 265.636944 
L 283.508262 265.636944 
L 283.508262 265.636944 
L 283.508262 265.636944 
L 283.508262 265.636944 
L 283.508262 265.636944 
L 283.508262 265.636944 
L 283.508262 265.636944 
L 283.508262 265.636944 
L 283.508262 265.636944 
L 283.508262 265.636944 
L 283.508262 265.636944 
L 283.508262 265.636944 
L 283.508262 265.636944 
L 283.508262 265.636944 
L 283.508262 265.636944 
L 283.508262 265.636944 
L 283.508262 265.636944 
L 283.508262 265.636944 
L 283.508262 265.636944 
L 283.508262 265.636944 
L 283.508262 265.636944 
L 283.508262 265.636944 
L 283.508262 265.636944 
L 283.508262 265.636944 
L 283.508262 265.636944 
L 283.508262 265.636944 
L 283.508262 265.636944 
L 283.508262 265.636944 
L 283.508262 265.636944 
L 283.508262 265.636944 
L 283.508262 265.636944 
L 283.508262 265.636944 
L 283.508262 265.636944 
L 283.508262 265.636944 
L 283.508262 265.636944 
L 283.508262 265.636944 
L 283.508262 265.636944 
L 283.508262 265.636944 
L 283.508262 265.636944 
L 283.508262 265.636944 
L 283.508262 265.636944 
L 283.508262 265.636944 
L 283.508262 265.636944 
L 283.508262 265.636944 
L 283.508262 265.636944 
L 283.508262 265.636944 
L 283.508262 265.636944 
L 283.508262 265.636944 
L 283.508262 265.636944 
L 283.508262 265.636944 
L 283.508262 265.636944 
L 283.508262 265.636944 
L 283.508262 265.636944 
L 283.508262 265.636944 
L 283.508262 265.636944 
L 283.508262 265.636944 
L 283.508262 265.636944 
L 283.508262 265.636944 
L 283.508262 265.636944 
L 283.508262 265.636944 
L 283.508262 265.636944 
L 283.508262 265.636944 
L 283.508262 265.636944 
L 283.508262 265.636944 
L 283.508262 265.636944 
L 283.508262 265.636944 
L 283.508262 265.636944 
L 283.508262 265.636944 
L 283.508262 265.636944 
L 283.508262 265.636944 
L 283.508262 265.636944 
L 283.508262 265.636944 
L 283.508262 265.636944 
L 283.508262 265.636944 
L 283.508262 265.636944 
L 283.508262 265.636944 
L 283.508262 265.636944 
L 283.508262 265.636944 
L 283.508262 265.636944 
L 283.508262 265.636944 
L 283.508262 265.636944 
L 283.508262 265.636944 
L 283.508262 265.636944 
L 283.508262 265.636944 
L 283.508262 265.636944 
L 283.508262 265.636944 
L 283.508262 265.636944 
L 283.508262 265.636944 
L 283.508262 265.636944 
L 283.508262 265.636944 
L 283.508262 265.636944 
L 283.508262 265.636944 
L 283.508262 265.636944 
L 283.508262 265.636944 
L 283.508262 265.636944 
L 283.508262 265.636944 
L 283.508262 265.636944 
L 283.508262 265.636944 
L 283.508262 265.636944 
L 283.508262 265.636944 
L 283.508262 265.636944 
L 283.508262 265.636944 
L 283.508262 265.636944 
L 283.508262 265.636944 
L 283.508262 265.636944 
L 283.508262 265.636944 
L 283.508262 265.636944 
L 283.508262 265.636944 
L 283.508262 265.636944 
L 283.508262 265.636944 
L 283.508262 265.636944 
L 283.508262 265.636944 
L 283.508262 265.636944 
L 283.508262 265.636944 
L 283.508262 265.636944 
L 283.508262 265.636944 
L 283.508262 265.636944 
L 283.508262 265.636944 
L 283.508262 265.636944 
z
" style="fill:#993333;stroke:#000000;stroke-linejoin:miter;"/>
   </g>
   <g id="patch_5">
    <path clip-path="url(#p4568abe2e2)" d="M 235.78225 233.21314 
L 286.996888 271.211244 
L 287.754619 270.189958 
L 236.539981 232.191854 
L 236.539981 232.191854 
L 236.539981 232.191854 
L 236.539981 232.191854 
L 236.539981 232.191854 
L 236.539981 232.191854 
L 236.539981 232.191854 
L 236.539981 232.191854 
L 236.539981 232.191854 
L 236.539981 232.191854 
L 236.539981 232.191854 
L 236.539981 232.191854 
L 236.539981 232.191854 
L 236.539981 232.191854 
L 236.539981 232.191854 
L 236.539981 232.191854 
L 236.539981 232.191854 
L 236.539981 232.191854 
L 236.539981 232.191854 
L 236.539981 232.191854 
L 236.539981 232.191854 
L 236.539981 232.191854 
L 236.539981 232.191854 
L 236.539981 232.191854 
L 236.539981 232.191854 
L 236.539981 232.191854 
L 236.539981 232.191854 
L 236.539981 232.191854 
L 236.539981 232.191854 
L 236.539981 232.191854 
L 236.539981 232.191854 
L 236.539981 232.191854 
L 236.539981 232.191854 
L 236.539981 232.191854 
L 236.539981 232.191854 
L 236.539981 232.191854 
L 236.539981 232.191854 
L 236.539981 232.191854 
L 236.539981 232.191854 
L 236.539981 232.191854 
L 236.539981 232.191854 
L 236.539981 232.191854 
L 236.539981 232.191854 
L 236.539981 232.191854 
L 236.539981 232.191854 
L 236.539981 232.191854 
L 236.539981 232.191854 
L 236.539981 232.191854 
L 236.539981 232.191854 
z
" style="stroke:#000000;stroke-linejoin:miter;"/>
   </g>
   <g id="text_1">
    <!-- t = 9.7 -->
    <defs>
     <path d="M 18.3125 70.21875 
L 18.3125 54.6875 
L 36.8125 54.6875 
L 36.8125 47.703125 
L 18.3125 47.703125 
L 18.3125 18.015625 
Q 18.3125 11.328125 20.140625 9.421875 
Q 21.96875 7.515625 27.59375 7.515625 
L 36.8125 7.515625 
L 36.8125 0 
L 27.59375 0 
Q 17.1875 0 13.234375 3.875 
Q 9.28125 7.765625 9.28125 18.015625 
L 9.28125 47.703125 
L 2.6875 47.703125 
L 2.6875 54.6875 
L 9.28125 54.6875 
L 9.28125 70.21875 
z
" id="DejaVuSans-116"/>
     <path id="DejaVuSans-32"/>
     <path d="M 10.59375 45.40625 
L 73.1875 45.40625 
L 73.1875 37.203125 
L 10.59375 37.203125 
z
M 10.59375 25.484375 
L 73.1875 25.484375 
L 73.1875 17.1875 
L 10.59375 17.1875 
z
" id="DejaVuSans-61"/>
     <path d="M 10.984375 1.515625 
L 10.984375 10.5 
Q 14.703125 8.734375 18.5 7.8125 
Q 22.3125 6.890625 25.984375 6.890625 
Q 35.75 6.890625 40.890625 13.453125 
Q 46.046875 20.015625 46.78125 33.40625 
Q 43.953125 29.203125 39.59375 26.953125 
Q 35.25 24.703125 29.984375 24.703125 
Q 19.046875 24.703125 12.671875 31.3125 
Q 6.296875 37.9375 6.296875 49.421875 
Q 6.296875 60.640625 12.9375 67.421875 
Q 19.578125 74.21875 30.609375 74.21875 
Q 43.265625 74.21875 49.921875 64.515625 
Q 56.59375 54.828125 56.59375 36.375 
Q 56.59375 19.140625 48.40625 8.859375 
Q 40.234375 -1.421875 26.421875 -1.421875 
Q 22.703125 -1.421875 18.890625 -0.6875 
Q 15.09375 0.046875 10.984375 1.515625 
z
M 30.609375 32.421875 
Q 37.25 32.421875 41.125 36.953125 
Q 45.015625 41.5 45.015625 49.421875 
Q 45.015625 57.28125 41.125 61.84375 
Q 37.25 66.40625 30.609375 66.40625 
Q 23.96875 66.40625 20.09375 61.84375 
Q 16.21875 57.28125 16.21875 49.421875 
Q 16.21875 41.5 20.09375 36.953125 
Q 23.96875 32.421875 30.609375 32.421875 
z
" id="DejaVuSans-57"/>
     <path d="M 10.6875 12.40625 
L 21 12.40625 
L 21 0 
L 10.6875 0 
z
" id="DejaVuSans-46"/>
     <path d="M 8.203125 72.90625 
L 55.078125 72.90625 
L 55.078125 68.703125 
L 28.609375 0 
L 18.3125 0 
L 43.21875 64.59375 
L 8.203125 64.59375 
z
" id="DejaVuSans-55"/>
    </defs>
    <g transform="translate(215.424375 49.296)scale(0.12 -0.12)">
     <use xlink:href="#DejaVuSans-116"/>
     <use x="39.208984" xlink:href="#DejaVuSans-32"/>
     <use x="70.996094" xlink:href="#DejaVuSans-61"/>
     <use x="154.785156" xlink:href="#DejaVuSans-32"/>
     <use x="186.572266" xlink:href="#DejaVuSans-57"/>
     <use x="250.195312" xlink:href="#DejaVuSans-46"/>
     <use x="281.982422" xlink:href="#DejaVuSans-55"/>
    </g>
   </g>
  </g>
 </g>
 <defs>
  <clipPath id="p4568abe2e2">
   <rect height="354.816" width="357.12" x="57.6" y="55.296"/>
  </clipPath>
 </defs>
</svg>
