<?xml version="1.0" encoding="utf-8" standalone="no"?>
<!DOCTYPE svg PUBLIC "-//W3C//DTD SVG 1.1//EN"
  "http://www.w3.org/Graphics/SVG/1.1/DTD/svg11.dtd">
<!-- Created with matplotlib (https://matplotlib.org/) -->
<svg height="460.8pt" version="1.1" viewBox="0 0 460.8 460.8" width="460.8pt" xmlns="http://www.w3.org/2000/svg" xmlns:xlink="http://www.w3.org/1999/xlink">
 <defs>
  <style type="text/css">
*{stroke-linecap:butt;stroke-linejoin:round;}
  </style>
 </defs>
 <g id="figure_1">
  <g id="patch_1">
   <path d="M 0 460.8 
L 460.8 460.8 
L 460.8 0 
L 0 0 
z
" style="fill:#ffffff;"/>
  </g>
  <g id="axes_1">
   <g id="patch_2">
    <path clip-path="url(#pdc250aea40)" d="M 290.455597 343.539864 
L 291.259371 344.649346 
L 292.542914 345.906305 
L 293.802809 346.515239 
L 295.509239 346.98234 
L 296.916789 346.941637 
L 298.628312 346.504517 
L 299.8389 345.824143 
L 301.136476 344.589824 
L 301.853708 343.436359 
L 302.419644 341.707046 
L 302.467917 340.362897 
L 302.163653 338.561986 
L 301.531147 337.356248 
L 300.431177 335.924665 
L 299.272752 335.152545 
L 297.646388 334.440791 
L 296.245667 334.291331 
L 294.491099 334.473669 
L 293.191027 334.983461 
L 291.737834 336.015248 
L 290.621846 337.427394 
L 290.082858 338.667008 
L 289.758337 340.462404 
L 289.909197 341.800794 
L 289.909197 341.800794 
L 289.909197 341.800794 
L 289.909197 341.800794 
L 289.909197 341.800794 
L 289.909197 341.800794 
L 289.909197 341.800794 
L 289.909197 341.800794 
L 289.909197 341.800794 
L 289.909197 341.800794 
L 289.909197 341.800794 
L 289.909197 341.800794 
L 289.909197 341.800794 
L 289.909197 341.800794 
L 289.909197 341.800794 
L 289.909197 341.800794 
L 289.909197 341.800794 
L 289.909197 341.800794 
L 289.909197 341.800794 
L 289.909197 341.800794 
L 289.909197 341.800794 
L 289.909197 341.800794 
L 289.909197 341.800794 
L 289.909197 341.800794 
L 289.909197 341.800794 
L 289.909197 341.800794 
L 289.909197 341.800794 
L 289.909197 341.800794 
L 289.909197 341.800794 
L 289.909197 341.800794 
L 289.909197 341.800794 
L 289.909197 341.800794 
L 289.909197 341.800794 
L 289.909197 341.800794 
L 289.909197 341.800794 
L 289.909197 341.800794 
L 289.909197 341.800794 
L 289.909197 341.800794 
L 289.909197 341.800794 
L 289.909197 341.800794 
L 289.909197 341.800794 
L 289.909197 341.800794 
L 289.909197 341.800794 
L 289.909197 341.800794 
L 289.909197 341.800794 
L 289.909197 341.800794 
L 289.909197 341.800794 
L 289.909197 341.800794 
L 289.909197 341.800794 
L 289.909197 341.800794 
L 289.909197 341.800794 
L 289.909197 341.800794 
L 289.909197 341.800794 
L 289.909197 341.800794 
L 289.909197 341.800794 
L 289.909197 341.800794 
L 289.909197 341.800794 
L 289.909197 341.800794 
L 289.909197 341.800794 
L 289.909197 341.800794 
L 289.909197 341.800794 
L 289.909197 341.800794 
L 289.909197 341.800794 
L 289.909197 341.800794 
L 289.909197 341.800794 
L 289.909197 341.800794 
L 289.909197 341.800794 
L 289.909197 341.800794 
L 289.909197 341.800794 
L 289.909197 341.800794 
L 289.909197 341.800794 
L 289.909197 341.800794 
L 289.909197 341.800794 
L 289.909197 341.800794 
L 289.909197 341.800794 
L 289.909197 341.800794 
L 289.909197 341.800794 
L 289.909197 341.800794 
L 289.909197 341.800794 
L 289.909197 341.800794 
L 289.909197 341.800794 
L 289.909197 341.800794 
L 289.909197 341.800794 
L 289.909197 341.800794 
L 289.909197 341.800794 
L 289.909197 341.800794 
L 289.909197 341.800794 
L 289.909197 341.800794 
L 289.909197 341.800794 
L 289.909197 341.800794 
L 289.909197 341.800794 
L 289.909197 341.800794 
L 289.909197 341.800794 
L 289.909197 341.800794 
L 289.909197 341.800794 
L 289.909197 341.800794 
L 289.909197 341.800794 
L 289.909197 341.800794 
L 289.909197 341.800794 
L 289.909197 341.800794 
L 289.909197 341.800794 
L 289.909197 341.800794 
L 289.909197 341.800794 
L 289.909197 341.800794 
L 289.909197 341.800794 
L 289.909197 341.800794 
L 289.909197 341.800794 
L 289.909197 341.800794 
L 289.909197 341.800794 
L 289.909197 341.800794 
L 289.909197 341.800794 
L 289.909197 341.800794 
L 289.909197 341.800794 
L 289.909197 341.800794 
L 289.909197 341.800794 
L 289.909197 341.800794 
L 289.909197 341.800794 
L 289.909197 341.800794 
L 289.909197 341.800794 
L 289.909197 341.800794 
L 289.909197 341.800794 
L 289.909197 341.800794 
L 289.909197 341.800794 
L 289.909197 341.800794 
L 289.909197 341.800794 
L 289.909197 341.800794 
L 289.909197 341.800794 
L 289.909197 341.800794 
L 289.909197 341.800794 
L 289.909197 341.800794 
L 289.909197 341.800794 
L 289.909197 341.800794 
L 289.909197 341.800794 
L 289.909197 341.800794 
L 289.909197 341.800794 
L 289.909197 341.800794 
L 289.909197 341.800794 
L 289.909197 341.800794 
L 289.909197 341.800794 
L 289.909197 341.800794 
L 289.909197 341.800794 
L 289.909197 341.800794 
L 289.909197 341.800794 
L 289.909197 341.800794 
L 289.909197 341.800794 
z
" style="fill:#993333;stroke:#000000;stroke-linejoin:miter;"/>
   </g>
   <g id="patch_3">
    <path clip-path="url(#pdc250aea40)" d="M 252.642289 293.990861 
L 251.720894 294.867338 
L 295.673781 341.072736 
L 296.595177 340.196259 
L 296.595177 340.196259 
L 296.595177 340.196259 
L 296.595177 340.196259 
L 296.595177 340.196259 
L 296.595177 340.196259 
L 296.595177 340.196259 
L 296.595177 340.196259 
L 296.595177 340.196259 
L 296.595177 340.196259 
L 296.595177 340.196259 
L 296.595177 340.196259 
L 296.595177 340.196259 
L 296.595177 340.196259 
L 296.595177 340.196259 
L 296.595177 340.196259 
L 296.595177 340.196259 
L 296.595177 340.196259 
L 296.595177 340.196259 
L 296.595177 340.196259 
L 296.595177 340.196259 
L 296.595177 340.196259 
L 296.595177 340.196259 
L 296.595177 340.196259 
L 296.595177 340.196259 
L 296.595177 340.196259 
L 296.595177 340.196259 
L 296.595177 340.196259 
L 296.595177 340.196259 
L 296.595177 340.196259 
L 296.595177 340.196259 
L 296.595177 340.196259 
L 296.595177 340.196259 
L 296.595177 340.196259 
L 296.595177 340.196259 
L 296.595177 340.196259 
L 296.595177 340.196259 
L 296.595177 340.196259 
L 296.595177 340.196259 
L 296.595177 340.196259 
L 296.595177 340.196259 
L 296.595177 340.196259 
L 296.595177 340.196259 
L 296.595177 340.196259 
L 296.595177 340.196259 
L 296.595177 340.196259 
L 296.595177 340.196259 
L 296.595177 340.196259 
L 296.595177 340.196259 
z
" style="stroke:#000000;stroke-linejoin:miter;"/>
   </g>
   <g id="patch_4">
    <path clip-path="url(#pdc250aea40)" d="M 246.483995 297.297582 
L 247.290318 298.441251 
L 248.555919 299.677511 
L 249.806503 300.324731 
L 251.515203 300.772762 
L 252.903861 300.765071 
L 254.63731 300.315178 
L 255.824051 299.654459 
L 257.157839 298.416793 
L 257.852107 297.264813 
L 258.459677 295.542398 
L 258.491491 294.181202 
L 258.224089 292.395744 
L 257.58566 291.1586 
L 256.508755 289.747242 
L 255.356392 288.937046 
L 253.733648 288.245338 
L 252.349491 288.060454 
L 250.578212 288.25775 
L 248.917289 288.951235 
L 247.844622 289.773754 
L 246.689884 291.186319 
L 246.172542 292.429864 
L 245.806709 294.215664 
L 245.971354 295.575773 
L 245.971354 295.575773 
L 245.971354 295.575773 
L 245.971354 295.575773 
L 245.971354 295.575773 
L 245.971354 295.575773 
L 245.971354 295.575773 
L 245.971354 295.575773 
L 245.971354 295.575773 
L 245.971354 295.575773 
L 245.971354 295.575773 
L 245.971354 295.575773 
L 245.971354 295.575773 
L 245.971354 295.575773 
L 245.971354 295.575773 
L 245.971354 295.575773 
L 245.971354 295.575773 
L 245.971354 295.575773 
L 245.971354 295.575773 
L 245.971354 295.575773 
L 245.971354 295.575773 
L 245.971354 295.575773 
L 245.971354 295.575773 
L 245.971354 295.575773 
L 245.971354 295.575773 
L 245.971354 295.575773 
L 245.971354 295.575773 
L 245.971354 295.575773 
L 245.971354 295.575773 
L 245.971354 295.575773 
L 245.971354 295.575773 
L 245.971354 295.575773 
L 245.971354 295.575773 
L 245.971354 295.575773 
L 245.971354 295.575773 
L 245.971354 295.575773 
L 245.971354 295.575773 
L 245.971354 295.575773 
L 245.971354 295.575773 
L 245.971354 295.575773 
L 245.971354 295.575773 
L 245.971354 295.575773 
L 245.971354 295.575773 
L 245.971354 295.575773 
L 245.971354 295.575773 
L 245.971354 295.575773 
L 245.971354 295.575773 
L 245.971354 295.575773 
L 245.971354 295.575773 
L 245.971354 295.575773 
L 245.971354 295.575773 
L 245.971354 295.575773 
L 245.971354 295.575773 
L 245.971354 295.575773 
L 245.971354 295.575773 
L 245.971354 295.575773 
L 245.971354 295.575773 
L 245.971354 295.575773 
L 245.971354 295.575773 
L 245.971354 295.575773 
L 245.971354 295.575773 
L 245.971354 295.575773 
L 245.971354 295.575773 
L 245.971354 295.575773 
L 245.971354 295.575773 
L 245.971354 295.575773 
L 245.971354 295.575773 
L 245.971354 295.575773 
L 245.971354 295.575773 
L 245.971354 295.575773 
L 245.971354 295.575773 
L 245.971354 295.575773 
L 245.971354 295.575773 
L 245.971354 295.575773 
L 245.971354 295.575773 
L 245.971354 295.575773 
L 245.971354 295.575773 
L 245.971354 295.575773 
L 245.971354 295.575773 
L 245.971354 295.575773 
L 245.971354 295.575773 
L 245.971354 295.575773 
L 245.971354 295.575773 
L 245.971354 295.575773 
L 245.971354 295.575773 
L 245.971354 295.575773 
L 245.971354 295.575773 
L 245.971354 295.575773 
L 245.971354 295.575773 
L 245.971354 295.575773 
L 245.971354 295.575773 
L 245.971354 295.575773 
L 245.971354 295.575773 
L 245.971354 295.575773 
L 245.971354 295.575773 
L 245.971354 295.575773 
L 245.971354 295.575773 
L 245.971354 295.575773 
L 245.971354 295.575773 
L 245.971354 295.575773 
L 245.971354 295.575773 
L 245.971354 295.575773 
L 245.971354 295.575773 
L 245.971354 295.575773 
L 245.971354 295.575773 
L 245.971354 295.575773 
L 245.971354 295.575773 
L 245.971354 295.575773 
L 245.971354 295.575773 
L 245.971354 295.575773 
L 245.971354 295.575773 
L 245.971354 295.575773 
L 245.971354 295.575773 
L 245.971354 295.575773 
L 245.971354 295.575773 
L 245.971354 295.575773 
L 245.971354 295.575773 
L 245.971354 295.575773 
L 245.971354 295.575773 
L 245.971354 295.575773 
L 245.971354 295.575773 
L 245.971354 295.575773 
L 245.971354 295.575773 
L 245.971354 295.575773 
L 245.971354 295.575773 
L 245.971354 295.575773 
L 245.971354 295.575773 
L 245.971354 295.575773 
L 245.971354 295.575773 
L 245.971354 295.575773 
L 245.971354 295.575773 
L 245.971354 295.575773 
L 245.971354 295.575773 
L 245.971354 295.575773 
L 245.971354 295.575773 
L 245.971354 295.575773 
L 245.971354 295.575773 
L 245.971354 295.575773 
L 245.971354 295.575773 
L 245.971354 295.575773 
L 245.971354 295.575773 
L 245.971354 295.575773 
L 245.971354 295.575773 
L 245.971354 295.575773 
L 245.971354 295.575773 
z
" style="fill:#993333;stroke:#000000;stroke-linejoin:miter;"/>
   </g>
   <g id="patch_5">
    <path clip-path="url(#pdc250aea40)" d="M 235.54636 232.863262 
L 251.566595 294.589651 
L 252.797499 294.270187 
L 236.777264 232.543798 
L 236.777264 232.543798 
L 236.777264 232.543798 
L 236.777264 232.543798 
L 236.777264 232.543798 
L 236.777264 232.543798 
L 236.777264 232.543798 
L 236.777264 232.543798 
L 236.777264 232.543798 
L 236.777264 232.543798 
L 236.777264 232.543798 
L 236.777264 232.543798 
L 236.777264 232.543798 
L 236.777264 232.543798 
L 236.777264 232.543798 
L 236.777264 232.543798 
L 236.777264 232.543798 
L 236.777264 232.543798 
L 236.777264 232.543798 
L 236.777264 232.543798 
L 236.777264 232.543798 
L 236.777264 232.543798 
L 236.777264 232.543798 
L 236.777264 232.543798 
L 236.777264 232.543798 
L 236.777264 232.543798 
L 236.777264 232.543798 
L 236.777264 232.543798 
L 236.777264 232.543798 
L 236.777264 232.543798 
L 236.777264 232.543798 
L 236.777264 232.543798 
L 236.777264 232.543798 
L 236.777264 232.543798 
L 236.777264 232.543798 
L 236.777264 232.543798 
L 236.777264 232.543798 
L 236.777264 232.543798 
L 236.777264 232.543798 
L 236.777264 232.543798 
L 236.777264 232.543798 
L 236.777264 232.543798 
L 236.777264 232.543798 
L 236.777264 232.543798 
L 236.777264 232.543798 
L 236.777264 232.543798 
L 236.777264 232.543798 
L 236.777264 232.543798 
L 236.777264 232.543798 
z
" style="stroke:#000000;stroke-linejoin:miter;"/>
   </g>
   <g id="text_1">
    <!-- t = 7.6 -->
    <defs>
     <path d="M 18.3125 70.21875 
L 18.3125 54.6875 
L 36.8125 54.6875 
L 36.8125 47.703125 
L 18.3125 47.703125 
L 18.3125 18.015625 
Q 18.3125 11.328125 20.140625 9.421875 
Q 21.96875 7.515625 27.59375 7.515625 
L 36.8125 7.515625 
L 36.8125 0 
L 27.59375 0 
Q 17.1875 0 13.234375 3.875 
Q 9.28125 7.765625 9.28125 18.015625 
L 9.28125 47.703125 
L 2.6875 47.703125 
L 2.6875 54.6875 
L 9.28125 54.6875 
L 9.28125 70.21875 
z
" id="DejaVuSans-116"/>
     <path id="DejaVuSans-32"/>
     <path d="M 10.59375 45.40625 
L 73.1875 45.40625 
L 73.1875 37.203125 
L 10.59375 37.203125 
z
M 10.59375 25.484375 
L 73.1875 25.484375 
L 73.1875 17.1875 
L 10.59375 17.1875 
z
" id="DejaVuSans-61"/>
     <path d="M 8.203125 72.90625 
L 55.078125 72.90625 
L 55.078125 68.703125 
L 28.609375 0 
L 18.3125 0 
L 43.21875 64.59375 
L 8.203125 64.59375 
z
" id="DejaVuSans-55"/>
     <path d="M 10.6875 12.40625 
L 21 12.40625 
L 21 0 
L 10.6875 0 
z
" id="DejaVuSans-46"/>
     <path d="M 33.015625 40.375 
Q 26.375 40.375 22.484375 35.828125 
Q 18.609375 31.296875 18.609375 23.390625 
Q 18.609375 15.53125 22.484375 10.953125 
Q 26.375 6.390625 33.015625 6.390625 
Q 39.65625 6.390625 43.53125 10.953125 
Q 47.40625 15.53125 47.40625 23.390625 
Q 47.40625 31.296875 43.53125 35.828125 
Q 39.65625 40.375 33.015625 40.375 
z
M 52.59375 71.296875 
L 52.59375 62.3125 
Q 48.875 64.0625 45.09375 64.984375 
Q 41.3125 65.921875 37.59375 65.921875 
Q 27.828125 65.921875 22.671875 59.328125 
Q 17.53125 52.734375 16.796875 39.40625 
Q 19.671875 43.65625 24.015625 45.921875 
Q 28.375 48.1875 33.59375 48.1875 
Q 44.578125 48.1875 50.953125 41.515625 
Q 57.328125 34.859375 57.328125 23.390625 
Q 57.328125 12.15625 50.6875 5.359375 
Q 44.046875 -1.421875 33.015625 -1.421875 
Q 20.359375 -1.421875 13.671875 8.265625 
Q 6.984375 17.96875 6.984375 36.375 
Q 6.984375 53.65625 15.1875 63.9375 
Q 23.390625 74.21875 37.203125 74.21875 
Q 40.921875 74.21875 44.703125 73.484375 
Q 48.484375 72.75 52.59375 71.296875 
z
" id="DejaVuSans-54"/>
    </defs>
    <g transform="translate(215.424375 49.296)scale(0.12 -0.12)">
     <use xlink:href="#DejaVuSans-116"/>
     <use x="39.208984" xlink:href="#DejaVuSans-32"/>
     <use x="70.996094" xlink:href="#DejaVuSans-61"/>
     <use x="154.785156" xlink:href="#DejaVuSans-32"/>
     <use x="186.572266" xlink:href="#DejaVuSans-55"/>
     <use x="250.195312" xlink:href="#DejaVuSans-46"/>
     <use x="281.982422" xlink:href="#DejaVuSans-54"/>
    </g>
   </g>
  </g>
 </g>
 <defs>
  <clipPath id="pdc250aea40">
   <rect height="354.816" width="357.12" x="57.6" y="55.296"/>
  </clipPath>
 </defs>
</svg>
