<?xml version="1.0" encoding="utf-8" standalone="no"?>
<!DOCTYPE svg PUBLIC "-//W3C//DTD SVG 1.1//EN"
  "http://www.w3.org/Graphics/SVG/1.1/DTD/svg11.dtd">
<!-- Created with matplotlib (https://matplotlib.org/) -->
<svg height="460.8pt" version="1.1" viewBox="0 0 460.8 460.8" width="460.8pt" xmlns="http://www.w3.org/2000/svg" xmlns:xlink="http://www.w3.org/1999/xlink">
 <defs>
  <style type="text/css">
*{stroke-linecap:butt;stroke-linejoin:round;}
  </style>
 </defs>
 <g id="figure_1">
  <g id="patch_1">
   <path d="M 0 460.8 
L 460.8 460.8 
L 460.8 0 
L 0 0 
z
" style="fill:#ffffff;"/>
  </g>
  <g id="axes_1">
   <g id="patch_2">
    <path clip-path="url(#p1e31b7e8b6)" d="M 123.312725 292.725656 
L 123.301248 294.114288 
L 123.727172 295.853781 
L 124.371448 297.049528 
L 125.590587 298.400272 
L 126.732874 299.110374 
L 128.44674 299.74166 
L 129.807368 299.792259 
L 131.596346 299.549526 
L 132.842184 298.928233 
L 134.268271 297.870911 
L 135.094296 296.729841 
L 135.808335 295.116798 
L 136.012306 293.735324 
L 135.839477 291.961491 
L 135.168983 290.291155 
L 134.361348 289.207237 
L 132.964856 288.033112 
L 131.728569 287.498655 
L 129.947989 287.108209 
L 128.585737 287.254066 
L 126.857016 287.742892 
L 125.702327 288.533353 
L 124.448717 289.781771 
L 123.784297 291.023302 
L 123.784297 291.023302 
L 123.784297 291.023302 
L 123.784297 291.023302 
L 123.784297 291.023302 
L 123.784297 291.023302 
L 123.784297 291.023302 
L 123.784297 291.023302 
L 123.784297 291.023302 
L 123.784297 291.023302 
L 123.784297 291.023302 
L 123.784297 291.023302 
L 123.784297 291.023302 
L 123.784297 291.023302 
L 123.784297 291.023302 
L 123.784297 291.023302 
L 123.784297 291.023302 
L 123.784297 291.023302 
L 123.784297 291.023302 
L 123.784297 291.023302 
L 123.784297 291.023302 
L 123.784297 291.023302 
L 123.784297 291.023302 
L 123.784297 291.023302 
L 123.784297 291.023302 
L 123.784297 291.023302 
L 123.784297 291.023302 
L 123.784297 291.023302 
L 123.784297 291.023302 
L 123.784297 291.023302 
L 123.784297 291.023302 
L 123.784297 291.023302 
L 123.784297 291.023302 
L 123.784297 291.023302 
L 123.784297 291.023302 
L 123.784297 291.023302 
L 123.784297 291.023302 
L 123.784297 291.023302 
L 123.784297 291.023302 
L 123.784297 291.023302 
L 123.784297 291.023302 
L 123.784297 291.023302 
L 123.784297 291.023302 
L 123.784297 291.023302 
L 123.784297 291.023302 
L 123.784297 291.023302 
L 123.784297 291.023302 
L 123.784297 291.023302 
L 123.784297 291.023302 
L 123.784297 291.023302 
L 123.784297 291.023302 
L 123.784297 291.023302 
L 123.784297 291.023302 
L 123.784297 291.023302 
L 123.784297 291.023302 
L 123.784297 291.023302 
L 123.784297 291.023302 
L 123.784297 291.023302 
L 123.784297 291.023302 
L 123.784297 291.023302 
L 123.784297 291.023302 
L 123.784297 291.023302 
L 123.784297 291.023302 
L 123.784297 291.023302 
L 123.784297 291.023302 
L 123.784297 291.023302 
L 123.784297 291.023302 
L 123.784297 291.023302 
L 123.784297 291.023302 
L 123.784297 291.023302 
L 123.784297 291.023302 
L 123.784297 291.023302 
L 123.784297 291.023302 
L 123.784297 291.023302 
L 123.784297 291.023302 
L 123.784297 291.023302 
L 123.784297 291.023302 
L 123.784297 291.023302 
L 123.784297 291.023302 
L 123.784297 291.023302 
L 123.784297 291.023302 
L 123.784297 291.023302 
L 123.784297 291.023302 
L 123.784297 291.023302 
L 123.784297 291.023302 
L 123.784297 291.023302 
L 123.784297 291.023302 
L 123.784297 291.023302 
L 123.784297 291.023302 
L 123.784297 291.023302 
L 123.784297 291.023302 
L 123.784297 291.023302 
L 123.784297 291.023302 
L 123.784297 291.023302 
L 123.784297 291.023302 
L 123.784297 291.023302 
L 123.784297 291.023302 
L 123.784297 291.023302 
L 123.784297 291.023302 
L 123.784297 291.023302 
L 123.784297 291.023302 
L 123.784297 291.023302 
L 123.784297 291.023302 
L 123.784297 291.023302 
L 123.784297 291.023302 
L 123.784297 291.023302 
L 123.784297 291.023302 
L 123.784297 291.023302 
L 123.784297 291.023302 
L 123.784297 291.023302 
L 123.784297 291.023302 
L 123.784297 291.023302 
L 123.784297 291.023302 
L 123.784297 291.023302 
L 123.784297 291.023302 
L 123.784297 291.023302 
L 123.784297 291.023302 
L 123.784297 291.023302 
L 123.784297 291.023302 
L 123.784297 291.023302 
L 123.784297 291.023302 
L 123.784297 291.023302 
L 123.784297 291.023302 
L 123.784297 291.023302 
L 123.784297 291.023302 
L 123.784297 291.023302 
L 123.784297 291.023302 
L 123.784297 291.023302 
L 123.784297 291.023302 
L 123.784297 291.023302 
L 123.784297 291.023302 
L 123.784297 291.023302 
L 123.784297 291.023302 
L 123.784297 291.023302 
L 123.784297 291.023302 
L 123.784297 291.023302 
L 123.784297 291.023302 
L 123.784297 291.023302 
L 123.784297 291.023302 
L 123.784297 291.023302 
L 123.784297 291.023302 
L 123.784297 291.023302 
L 123.784297 291.023302 
L 123.784297 291.023302 
L 123.784297 291.023302 
z
" style="fill:#993333;stroke:#000000;stroke-linejoin:miter;"/>
   </g>
   <g id="patch_3">
    <path clip-path="url(#p1e31b7e8b6)" d="M 129.494537 292.862385 
L 129.796981 294.097581 
L 191.738609 278.930845 
L 191.436164 277.695649 
L 191.436164 277.695649 
L 191.436164 277.695649 
L 191.436164 277.695649 
L 191.436164 277.695649 
L 191.436164 277.695649 
L 191.436164 277.695649 
L 191.436164 277.695649 
L 191.436164 277.695649 
L 191.436164 277.695649 
L 191.436164 277.695649 
L 191.436164 277.695649 
L 191.436164 277.695649 
L 191.436164 277.695649 
L 191.436164 277.695649 
L 191.436164 277.695649 
L 191.436164 277.695649 
L 191.436164 277.695649 
L 191.436164 277.695649 
L 191.436164 277.695649 
L 191.436164 277.695649 
L 191.436164 277.695649 
L 191.436164 277.695649 
L 191.436164 277.695649 
L 191.436164 277.695649 
L 191.436164 277.695649 
L 191.436164 277.695649 
L 191.436164 277.695649 
L 191.436164 277.695649 
L 191.436164 277.695649 
L 191.436164 277.695649 
L 191.436164 277.695649 
L 191.436164 277.695649 
L 191.436164 277.695649 
L 191.436164 277.695649 
L 191.436164 277.695649 
L 191.436164 277.695649 
L 191.436164 277.695649 
L 191.436164 277.695649 
L 191.436164 277.695649 
L 191.436164 277.695649 
L 191.436164 277.695649 
L 191.436164 277.695649 
L 191.436164 277.695649 
L 191.436164 277.695649 
L 191.436164 277.695649 
L 191.436164 277.695649 
L 191.436164 277.695649 
L 191.436164 277.695649 
z
" style="stroke:#000000;stroke-linejoin:miter;"/>
   </g>
   <g id="patch_4">
    <path clip-path="url(#p1e31b7e8b6)" d="M 185.813035 281.018819 
L 186.537071 282.20381 
L 187.817854 283.455545 
L 188.996689 284.130268 
L 190.745477 284.632812 
L 192.090492 284.632071 
L 193.879119 284.262384 
L 195.061008 283.586361 
L 196.451557 282.434955 
L 197.180951 281.249163 
L 197.832967 279.597942 
L 197.931285 278.192705 
L 197.685132 276.445947 
L 197.128303 275.165315 
L 196.044247 273.750686 
L 194.592372 272.686898 
L 193.333941 272.193439 
L 191.527911 271.934559 
L 190.195907 272.13409 
L 188.477903 272.7435 
L 187.398448 273.587169 
L 186.189096 274.915663 
L 185.626478 276.196911 
L 185.22187 277.919229 
L 185.313837 279.324361 
L 185.313837 279.324361 
L 185.313837 279.324361 
L 185.313837 279.324361 
L 185.313837 279.324361 
L 185.313837 279.324361 
L 185.313837 279.324361 
L 185.313837 279.324361 
L 185.313837 279.324361 
L 185.313837 279.324361 
L 185.313837 279.324361 
L 185.313837 279.324361 
L 185.313837 279.324361 
L 185.313837 279.324361 
L 185.313837 279.324361 
L 185.313837 279.324361 
L 185.313837 279.324361 
L 185.313837 279.324361 
L 185.313837 279.324361 
L 185.313837 279.324361 
L 185.313837 279.324361 
L 185.313837 279.324361 
L 185.313837 279.324361 
L 185.313837 279.324361 
L 185.313837 279.324361 
L 185.313837 279.324361 
L 185.313837 279.324361 
L 185.313837 279.324361 
L 185.313837 279.324361 
L 185.313837 279.324361 
L 185.313837 279.324361 
L 185.313837 279.324361 
L 185.313837 279.324361 
L 185.313837 279.324361 
L 185.313837 279.324361 
L 185.313837 279.324361 
L 185.313837 279.324361 
L 185.313837 279.324361 
L 185.313837 279.324361 
L 185.313837 279.324361 
L 185.313837 279.324361 
L 185.313837 279.324361 
L 185.313837 279.324361 
L 185.313837 279.324361 
L 185.313837 279.324361 
L 185.313837 279.324361 
L 185.313837 279.324361 
L 185.313837 279.324361 
L 185.313837 279.324361 
L 185.313837 279.324361 
L 185.313837 279.324361 
L 185.313837 279.324361 
L 185.313837 279.324361 
L 185.313837 279.324361 
L 185.313837 279.324361 
L 185.313837 279.324361 
L 185.313837 279.324361 
L 185.313837 279.324361 
L 185.313837 279.324361 
L 185.313837 279.324361 
L 185.313837 279.324361 
L 185.313837 279.324361 
L 185.313837 279.324361 
L 185.313837 279.324361 
L 185.313837 279.324361 
L 185.313837 279.324361 
L 185.313837 279.324361 
L 185.313837 279.324361 
L 185.313837 279.324361 
L 185.313837 279.324361 
L 185.313837 279.324361 
L 185.313837 279.324361 
L 185.313837 279.324361 
L 185.313837 279.324361 
L 185.313837 279.324361 
L 185.313837 279.324361 
L 185.313837 279.324361 
L 185.313837 279.324361 
L 185.313837 279.324361 
L 185.313837 279.324361 
L 185.313837 279.324361 
L 185.313837 279.324361 
L 185.313837 279.324361 
L 185.313837 279.324361 
L 185.313837 279.324361 
L 185.313837 279.324361 
L 185.313837 279.324361 
L 185.313837 279.324361 
L 185.313837 279.324361 
L 185.313837 279.324361 
L 185.313837 279.324361 
L 185.313837 279.324361 
L 185.313837 279.324361 
L 185.313837 279.324361 
L 185.313837 279.324361 
L 185.313837 279.324361 
L 185.313837 279.324361 
L 185.313837 279.324361 
L 185.313837 279.324361 
L 185.313837 279.324361 
L 185.313837 279.324361 
L 185.313837 279.324361 
L 185.313837 279.324361 
L 185.313837 279.324361 
L 185.313837 279.324361 
L 185.313837 279.324361 
L 185.313837 279.324361 
L 185.313837 279.324361 
L 185.313837 279.324361 
L 185.313837 279.324361 
L 185.313837 279.324361 
L 185.313837 279.324361 
L 185.313837 279.324361 
L 185.313837 279.324361 
L 185.313837 279.324361 
L 185.313837 279.324361 
L 185.313837 279.324361 
L 185.313837 279.324361 
L 185.313837 279.324361 
L 185.313837 279.324361 
L 185.313837 279.324361 
L 185.313837 279.324361 
L 185.313837 279.324361 
L 185.313837 279.324361 
L 185.313837 279.324361 
L 185.313837 279.324361 
L 185.313837 279.324361 
L 185.313837 279.324361 
L 185.313837 279.324361 
L 185.313837 279.324361 
L 185.313837 279.324361 
L 185.313837 279.324361 
L 185.313837 279.324361 
L 185.313837 279.324361 
L 185.313837 279.324361 
L 185.313837 279.324361 
L 185.313837 279.324361 
L 185.313837 279.324361 
L 185.313837 279.324361 
L 185.313837 279.324361 
L 185.313837 279.324361 
L 185.313837 279.324361 
L 185.313837 279.324361 
L 185.313837 279.324361 
L 185.313837 279.324361 
z
" style="fill:#993333;stroke:#000000;stroke-linejoin:miter;"/>
   </g>
   <g id="patch_5">
    <path clip-path="url(#p1e31b7e8b6)" d="M 191.133544 277.868315 
L 192.043016 278.757159 
L 236.616074 233.149731 
L 235.706603 232.260886 
L 235.706603 232.260886 
L 235.706603 232.260886 
L 235.706603 232.260886 
L 235.706603 232.260886 
L 235.706603 232.260886 
L 235.706603 232.260886 
L 235.706603 232.260886 
L 235.706603 232.260886 
L 235.706603 232.260886 
L 235.706603 232.260886 
L 235.706603 232.260886 
L 235.706603 232.260886 
L 235.706603 232.260886 
L 235.706603 232.260886 
L 235.706603 232.260886 
L 235.706603 232.260886 
L 235.706603 232.260886 
L 235.706603 232.260886 
L 235.706603 232.260886 
L 235.706603 232.260886 
L 235.706603 232.260886 
L 235.706603 232.260886 
L 235.706603 232.260886 
L 235.706603 232.260886 
L 235.706603 232.260886 
L 235.706603 232.260886 
L 235.706603 232.260886 
L 235.706603 232.260886 
L 235.706603 232.260886 
L 235.706603 232.260886 
L 235.706603 232.260886 
L 235.706603 232.260886 
L 235.706603 232.260886 
L 235.706603 232.260886 
L 235.706603 232.260886 
L 235.706603 232.260886 
L 235.706603 232.260886 
L 235.706603 232.260886 
L 235.706603 232.260886 
L 235.706603 232.260886 
L 235.706603 232.260886 
L 235.706603 232.260886 
L 235.706603 232.260886 
L 235.706603 232.260886 
L 235.706603 232.260886 
L 235.706603 232.260886 
L 235.706603 232.260886 
L 235.706603 232.260886 
z
" style="stroke:#000000;stroke-linejoin:miter;"/>
   </g>
   <g id="text_1">
    <!-- t = 6.0 -->
    <defs>
     <path d="M 18.3125 70.21875 
L 18.3125 54.6875 
L 36.8125 54.6875 
L 36.8125 47.703125 
L 18.3125 47.703125 
L 18.3125 18.015625 
Q 18.3125 11.328125 20.140625 9.421875 
Q 21.96875 7.515625 27.59375 7.515625 
L 36.8125 7.515625 
L 36.8125 0 
L 27.59375 0 
Q 17.1875 0 13.234375 3.875 
Q 9.28125 7.765625 9.28125 18.015625 
L 9.28125 47.703125 
L 2.6875 47.703125 
L 2.6875 54.6875 
L 9.28125 54.6875 
L 9.28125 70.21875 
z
" id="DejaVuSans-116"/>
     <path id="DejaVuSans-32"/>
     <path d="M 10.59375 45.40625 
L 73.1875 45.40625 
L 73.1875 37.203125 
L 10.59375 37.203125 
z
M 10.59375 25.484375 
L 73.1875 25.484375 
L 73.1875 17.1875 
L 10.59375 17.1875 
z
" id="DejaVuSans-61"/>
     <path d="M 33.015625 40.375 
Q 26.375 40.375 22.484375 35.828125 
Q 18.609375 31.296875 18.609375 23.390625 
Q 18.609375 15.53125 22.484375 10.953125 
Q 26.375 6.390625 33.015625 6.390625 
Q 39.65625 6.390625 43.53125 10.953125 
Q 47.40625 15.53125 47.40625 23.390625 
Q 47.40625 31.296875 43.53125 35.828125 
Q 39.65625 40.375 33.015625 40.375 
z
M 52.59375 71.296875 
L 52.59375 62.3125 
Q 48.875 64.0625 45.09375 64.984375 
Q 41.3125 65.921875 37.59375 65.921875 
Q 27.828125 65.921875 22.671875 59.328125 
Q 17.53125 52.734375 16.796875 39.40625 
Q 19.671875 43.65625 24.015625 45.921875 
Q 28.375 48.1875 33.59375 48.1875 
Q 44.578125 48.1875 50.953125 41.515625 
Q 57.328125 34.859375 57.328125 23.390625 
Q 57.328125 12.15625 50.6875 5.359375 
Q 44.046875 -1.421875 33.015625 -1.421875 
Q 20.359375 -1.421875 13.671875 8.265625 
Q 6.984375 17.96875 6.984375 36.375 
Q 6.984375 53.65625 15.1875 63.9375 
Q 23.390625 74.21875 37.203125 74.21875 
Q 40.921875 74.21875 44.703125 73.484375 
Q 48.484375 72.75 52.59375 71.296875 
z
" id="DejaVuSans-54"/>
     <path d="M 10.6875 12.40625 
L 21 12.40625 
L 21 0 
L 10.6875 0 
z
" id="DejaVuSans-46"/>
     <path d="M 31.78125 66.40625 
Q 24.171875 66.40625 20.328125 58.90625 
Q 16.5 51.421875 16.5 36.375 
Q 16.5 21.390625 20.328125 13.890625 
Q 24.171875 6.390625 31.78125 6.390625 
Q 39.453125 6.390625 43.28125 13.890625 
Q 47.125 21.390625 47.125 36.375 
Q 47.125 51.421875 43.28125 58.90625 
Q 39.453125 66.40625 31.78125 66.40625 
z
M 31.78125 74.21875 
Q 44.046875 74.21875 50.515625 64.515625 
Q 56.984375 54.828125 56.984375 36.375 
Q 56.984375 17.96875 50.515625 8.265625 
Q 44.046875 -1.421875 31.78125 -1.421875 
Q 19.53125 -1.421875 13.0625 8.265625 
Q 6.59375 17.96875 6.59375 36.375 
Q 6.59375 54.828125 13.0625 64.515625 
Q 19.53125 74.21875 31.78125 74.21875 
z
" id="DejaVuSans-48"/>
    </defs>
    <g transform="translate(215.424375 49.296)scale(0.12 -0.12)">
     <use xlink:href="#DejaVuSans-116"/>
     <use x="39.208984" xlink:href="#DejaVuSans-32"/>
     <use x="70.996094" xlink:href="#DejaVuSans-61"/>
     <use x="154.785156" xlink:href="#DejaVuSans-32"/>
     <use x="186.572266" xlink:href="#DejaVuSans-54"/>
     <use x="250.195312" xlink:href="#DejaVuSans-46"/>
     <use x="281.982422" xlink:href="#DejaVuSans-48"/>
    </g>
   </g>
  </g>
 </g>
 <defs>
  <clipPath id="p1e31b7e8b6">
   <rect height="354.816" width="357.12" x="57.6" y="55.296"/>
  </clipPath>
 </defs>
</svg>
