<?xml version="1.0" encoding="utf-8" standalone="no"?>
<!DOCTYPE svg PUBLIC "-//W3C//DTD SVG 1.1//EN"
  "http://www.w3.org/Graphics/SVG/1.1/DTD/svg11.dtd">
<!-- Created with matplotlib (https://matplotlib.org/) -->
<svg height="460.8pt" version="1.1" viewBox="0 0 460.8 460.8" width="460.8pt" xmlns="http://www.w3.org/2000/svg" xmlns:xlink="http://www.w3.org/1999/xlink">
 <defs>
  <style type="text/css">
*{stroke-linecap:butt;stroke-linejoin:round;}
  </style>
 </defs>
 <g id="figure_1">
  <g id="patch_1">
   <path d="M 0 460.8 
L 460.8 460.8 
L 460.8 0 
L 0 0 
z
" style="fill:#ffffff;"/>
  </g>
  <g id="axes_1">
   <g id="patch_2">
    <path clip-path="url(#pa49294e83f)" d="M 231.970585 353.76354 
L 230.176768 353.911209 
L 228.902776 354.362979 
L 227.368807 355.350755 
L 226.493296 356.374243 
L 225.594745 357.960283 
L 225.33207 359.304903 
L 225.288933 361.10089 
L 225.703406 362.437433 
L 226.526245 364.003646 
L 227.516389 365.004879 
L 229.003744 365.957855 
L 230.327137 366.378642 
L 232.114851 366.485058 
L 233.44748 366.222375 
L 235.09786 365.456179 
L 236.113451 364.57434 
L 237.222425 363.123121 
L 237.672326 361.838031 
L 237.968379 360.0571 
L 237.742438 358.683394 
L 237.153086 357.008784 
L 236.306622 355.882793 
L 234.976159 354.724507 
L 233.716415 354.121913 
L 233.716415 354.121913 
L 233.716415 354.121913 
L 233.716415 354.121913 
L 233.716415 354.121913 
L 233.716415 354.121913 
L 233.716415 354.121913 
L 233.716415 354.121913 
L 233.716415 354.121913 
L 233.716415 354.121913 
L 233.716415 354.121913 
L 233.716415 354.121913 
L 233.716415 354.121913 
L 233.716415 354.121913 
L 233.716415 354.121913 
L 233.716415 354.121913 
L 233.716415 354.121913 
L 233.716415 354.121913 
L 233.716415 354.121913 
L 233.716415 354.121913 
L 233.716415 354.121913 
L 233.716415 354.121913 
L 233.716415 354.121913 
L 233.716415 354.121913 
L 233.716415 354.121913 
L 233.716415 354.121913 
L 233.716415 354.121913 
L 233.716415 354.121913 
L 233.716415 354.121913 
L 233.716415 354.121913 
L 233.716415 354.121913 
L 233.716415 354.121913 
L 233.716415 354.121913 
L 233.716415 354.121913 
L 233.716415 354.121913 
L 233.716415 354.121913 
L 233.716415 354.121913 
L 233.716415 354.121913 
L 233.716415 354.121913 
L 233.716415 354.121913 
L 233.716415 354.121913 
L 233.716415 354.121913 
L 233.716415 354.121913 
L 233.716415 354.121913 
L 233.716415 354.121913 
L 233.716415 354.121913 
L 233.716415 354.121913 
L 233.716415 354.121913 
L 233.716415 354.121913 
L 233.716415 354.121913 
L 233.716415 354.121913 
L 233.716415 354.121913 
L 233.716415 354.121913 
L 233.716415 354.121913 
L 233.716415 354.121913 
L 233.716415 354.121913 
L 233.716415 354.121913 
L 233.716415 354.121913 
L 233.716415 354.121913 
L 233.716415 354.121913 
L 233.716415 354.121913 
L 233.716415 354.121913 
L 233.716415 354.121913 
L 233.716415 354.121913 
L 233.716415 354.121913 
L 233.716415 354.121913 
L 233.716415 354.121913 
L 233.716415 354.121913 
L 233.716415 354.121913 
L 233.716415 354.121913 
L 233.716415 354.121913 
L 233.716415 354.121913 
L 233.716415 354.121913 
L 233.716415 354.121913 
L 233.716415 354.121913 
L 233.716415 354.121913 
L 233.716415 354.121913 
L 233.716415 354.121913 
L 233.716415 354.121913 
L 233.716415 354.121913 
L 233.716415 354.121913 
L 233.716415 354.121913 
L 233.716415 354.121913 
L 233.716415 354.121913 
L 233.716415 354.121913 
L 233.716415 354.121913 
L 233.716415 354.121913 
L 233.716415 354.121913 
L 233.716415 354.121913 
L 233.716415 354.121913 
L 233.716415 354.121913 
L 233.716415 354.121913 
L 233.716415 354.121913 
L 233.716415 354.121913 
L 233.716415 354.121913 
L 233.716415 354.121913 
L 233.716415 354.121913 
L 233.716415 354.121913 
L 233.716415 354.121913 
L 233.716415 354.121913 
L 233.716415 354.121913 
L 233.716415 354.121913 
L 233.716415 354.121913 
L 233.716415 354.121913 
L 233.716415 354.121913 
L 233.716415 354.121913 
L 233.716415 354.121913 
L 233.716415 354.121913 
L 233.716415 354.121913 
L 233.716415 354.121913 
L 233.716415 354.121913 
L 233.716415 354.121913 
L 233.716415 354.121913 
L 233.716415 354.121913 
L 233.716415 354.121913 
L 233.716415 354.121913 
L 233.716415 354.121913 
L 233.716415 354.121913 
L 233.716415 354.121913 
L 233.716415 354.121913 
L 233.716415 354.121913 
L 233.716415 354.121913 
L 233.716415 354.121913 
L 233.716415 354.121913 
L 233.716415 354.121913 
L 233.716415 354.121913 
L 233.716415 354.121913 
L 233.716415 354.121913 
L 233.716415 354.121913 
L 233.716415 354.121913 
L 233.716415 354.121913 
L 233.716415 354.121913 
L 233.716415 354.121913 
L 233.716415 354.121913 
L 233.716415 354.121913 
L 233.716415 354.121913 
L 233.716415 354.121913 
L 233.716415 354.121913 
L 233.716415 354.121913 
L 233.716415 354.121913 
L 233.716415 354.121913 
L 233.716415 354.121913 
L 233.716415 354.121913 
L 233.716415 354.121913 
L 233.716415 354.121913 
z
" style="fill:#993333;stroke:#000000;stroke-linejoin:miter;"/>
   </g>
   <g id="patch_3">
    <path clip-path="url(#pa49294e83f)" d="M 234.748186 296.432999 
L 230.958795 360.091743 
L 232.228233 360.167308 
L 236.017624 296.508565 
L 236.017624 296.508565 
L 236.017624 296.508565 
L 236.017624 296.508565 
L 236.017624 296.508565 
L 236.017624 296.508565 
L 236.017624 296.508565 
L 236.017624 296.508565 
L 236.017624 296.508565 
L 236.017624 296.508565 
L 236.017624 296.508565 
L 236.017624 296.508565 
L 236.017624 296.508565 
L 236.017624 296.508565 
L 236.017624 296.508565 
L 236.017624 296.508565 
L 236.017624 296.508565 
L 236.017624 296.508565 
L 236.017624 296.508565 
L 236.017624 296.508565 
L 236.017624 296.508565 
L 236.017624 296.508565 
L 236.017624 296.508565 
L 236.017624 296.508565 
L 236.017624 296.508565 
L 236.017624 296.508565 
L 236.017624 296.508565 
L 236.017624 296.508565 
L 236.017624 296.508565 
L 236.017624 296.508565 
L 236.017624 296.508565 
L 236.017624 296.508565 
L 236.017624 296.508565 
L 236.017624 296.508565 
L 236.017624 296.508565 
L 236.017624 296.508565 
L 236.017624 296.508565 
L 236.017624 296.508565 
L 236.017624 296.508565 
L 236.017624 296.508565 
L 236.017624 296.508565 
L 236.017624 296.508565 
L 236.017624 296.508565 
L 236.017624 296.508565 
L 236.017624 296.508565 
L 236.017624 296.508565 
L 236.017624 296.508565 
L 236.017624 296.508565 
L 236.017624 296.508565 
z
" style="stroke:#000000;stroke-linejoin:miter;"/>
   </g>
   <g id="patch_4">
    <path clip-path="url(#pa49294e83f)" d="M 229.089508 295.94268 
L 229.131232 297.7387 
L 229.60836 299.054179 
L 230.504243 300.579787 
L 231.540564 301.533145 
L 233.071262 302.414819 
L 234.41305 302.772641 
L 236.203795 302.794516 
L 237.522533 302.469195 
L 239.134888 301.625916 
L 240.107703 300.697101 
L 241.146907 299.195132 
L 241.53562 297.89023 
L 241.74724 296.097305 
L 241.456681 294.735801 
L 240.788905 293.09089 
L 239.890212 292.006129 
L 238.506534 290.911964 
L 237.219739 290.369532 
L 235.458933 290.094004 
L 233.674091 290.326219 
L 232.422854 290.837647 
L 230.937244 291.896761 
L 230.111042 292.960451 
L 229.288392 294.587155 
L 229.288392 294.587155 
L 229.288392 294.587155 
L 229.288392 294.587155 
L 229.288392 294.587155 
L 229.288392 294.587155 
L 229.288392 294.587155 
L 229.288392 294.587155 
L 229.288392 294.587155 
L 229.288392 294.587155 
L 229.288392 294.587155 
L 229.288392 294.587155 
L 229.288392 294.587155 
L 229.288392 294.587155 
L 229.288392 294.587155 
L 229.288392 294.587155 
L 229.288392 294.587155 
L 229.288392 294.587155 
L 229.288392 294.587155 
L 229.288392 294.587155 
L 229.288392 294.587155 
L 229.288392 294.587155 
L 229.288392 294.587155 
L 229.288392 294.587155 
L 229.288392 294.587155 
L 229.288392 294.587155 
L 229.288392 294.587155 
L 229.288392 294.587155 
L 229.288392 294.587155 
L 229.288392 294.587155 
L 229.288392 294.587155 
L 229.288392 294.587155 
L 229.288392 294.587155 
L 229.288392 294.587155 
L 229.288392 294.587155 
L 229.288392 294.587155 
L 229.288392 294.587155 
L 229.288392 294.587155 
L 229.288392 294.587155 
L 229.288392 294.587155 
L 229.288392 294.587155 
L 229.288392 294.587155 
L 229.288392 294.587155 
L 229.288392 294.587155 
L 229.288392 294.587155 
L 229.288392 294.587155 
L 229.288392 294.587155 
L 229.288392 294.587155 
L 229.288392 294.587155 
L 229.288392 294.587155 
L 229.288392 294.587155 
L 229.288392 294.587155 
L 229.288392 294.587155 
L 229.288392 294.587155 
L 229.288392 294.587155 
L 229.288392 294.587155 
L 229.288392 294.587155 
L 229.288392 294.587155 
L 229.288392 294.587155 
L 229.288392 294.587155 
L 229.288392 294.587155 
L 229.288392 294.587155 
L 229.288392 294.587155 
L 229.288392 294.587155 
L 229.288392 294.587155 
L 229.288392 294.587155 
L 229.288392 294.587155 
L 229.288392 294.587155 
L 229.288392 294.587155 
L 229.288392 294.587155 
L 229.288392 294.587155 
L 229.288392 294.587155 
L 229.288392 294.587155 
L 229.288392 294.587155 
L 229.288392 294.587155 
L 229.288392 294.587155 
L 229.288392 294.587155 
L 229.288392 294.587155 
L 229.288392 294.587155 
L 229.288392 294.587155 
L 229.288392 294.587155 
L 229.288392 294.587155 
L 229.288392 294.587155 
L 229.288392 294.587155 
L 229.288392 294.587155 
L 229.288392 294.587155 
L 229.288392 294.587155 
L 229.288392 294.587155 
L 229.288392 294.587155 
L 229.288392 294.587155 
L 229.288392 294.587155 
L 229.288392 294.587155 
L 229.288392 294.587155 
L 229.288392 294.587155 
L 229.288392 294.587155 
L 229.288392 294.587155 
L 229.288392 294.587155 
L 229.288392 294.587155 
L 229.288392 294.587155 
L 229.288392 294.587155 
L 229.288392 294.587155 
L 229.288392 294.587155 
L 229.288392 294.587155 
L 229.288392 294.587155 
L 229.288392 294.587155 
L 229.288392 294.587155 
L 229.288392 294.587155 
L 229.288392 294.587155 
L 229.288392 294.587155 
L 229.288392 294.587155 
L 229.288392 294.587155 
L 229.288392 294.587155 
L 229.288392 294.587155 
L 229.288392 294.587155 
L 229.288392 294.587155 
L 229.288392 294.587155 
L 229.288392 294.587155 
L 229.288392 294.587155 
L 229.288392 294.587155 
L 229.288392 294.587155 
L 229.288392 294.587155 
L 229.288392 294.587155 
L 229.288392 294.587155 
L 229.288392 294.587155 
L 229.288392 294.587155 
L 229.288392 294.587155 
L 229.288392 294.587155 
L 229.288392 294.587155 
L 229.288392 294.587155 
L 229.288392 294.587155 
L 229.288392 294.587155 
L 229.288392 294.587155 
L 229.288392 294.587155 
L 229.288392 294.587155 
L 229.288392 294.587155 
L 229.288392 294.587155 
L 229.288392 294.587155 
L 229.288392 294.587155 
L 229.288392 294.587155 
L 229.288392 294.587155 
L 229.288392 294.587155 
L 229.288392 294.587155 
L 229.288392 294.587155 
L 229.288392 294.587155 
L 229.288392 294.587155 
z
" style="fill:#993333;stroke:#000000;stroke-linejoin:miter;"/>
   </g>
   <g id="patch_5">
    <path clip-path="url(#pa49294e83f)" d="M 235.526077 232.696256 
L 234.747113 296.462927 
L 236.018703 296.478461 
L 236.797667 232.71179 
L 236.797667 232.71179 
L 236.797667 232.71179 
L 236.797667 232.71179 
L 236.797667 232.71179 
L 236.797667 232.71179 
L 236.797667 232.71179 
L 236.797667 232.71179 
L 236.797667 232.71179 
L 236.797667 232.71179 
L 236.797667 232.71179 
L 236.797667 232.71179 
L 236.797667 232.71179 
L 236.797667 232.71179 
L 236.797667 232.71179 
L 236.797667 232.71179 
L 236.797667 232.71179 
L 236.797667 232.71179 
L 236.797667 232.71179 
L 236.797667 232.71179 
L 236.797667 232.71179 
L 236.797667 232.71179 
L 236.797667 232.71179 
L 236.797667 232.71179 
L 236.797667 232.71179 
L 236.797667 232.71179 
L 236.797667 232.71179 
L 236.797667 232.71179 
L 236.797667 232.71179 
L 236.797667 232.71179 
L 236.797667 232.71179 
L 236.797667 232.71179 
L 236.797667 232.71179 
L 236.797667 232.71179 
L 236.797667 232.71179 
L 236.797667 232.71179 
L 236.797667 232.71179 
L 236.797667 232.71179 
L 236.797667 232.71179 
L 236.797667 232.71179 
L 236.797667 232.71179 
L 236.797667 232.71179 
L 236.797667 232.71179 
L 236.797667 232.71179 
L 236.797667 232.71179 
L 236.797667 232.71179 
L 236.797667 232.71179 
L 236.797667 232.71179 
L 236.797667 232.71179 
z
" style="stroke:#000000;stroke-linejoin:miter;"/>
   </g>
   <g id="text_1">
    <!-- t = 7.8 -->
    <defs>
     <path d="M 18.3125 70.21875 
L 18.3125 54.6875 
L 36.8125 54.6875 
L 36.8125 47.703125 
L 18.3125 47.703125 
L 18.3125 18.015625 
Q 18.3125 11.328125 20.140625 9.421875 
Q 21.96875 7.515625 27.59375 7.515625 
L 36.8125 7.515625 
L 36.8125 0 
L 27.59375 0 
Q 17.1875 0 13.234375 3.875 
Q 9.28125 7.765625 9.28125 18.015625 
L 9.28125 47.703125 
L 2.6875 47.703125 
L 2.6875 54.6875 
L 9.28125 54.6875 
L 9.28125 70.21875 
z
" id="DejaVuSans-116"/>
     <path id="DejaVuSans-32"/>
     <path d="M 10.59375 45.40625 
L 73.1875 45.40625 
L 73.1875 37.203125 
L 10.59375 37.203125 
z
M 10.59375 25.484375 
L 73.1875 25.484375 
L 73.1875 17.1875 
L 10.59375 17.1875 
z
" id="DejaVuSans-61"/>
     <path d="M 8.203125 72.90625 
L 55.078125 72.90625 
L 55.078125 68.703125 
L 28.609375 0 
L 18.3125 0 
L 43.21875 64.59375 
L 8.203125 64.59375 
z
" id="DejaVuSans-55"/>
     <path d="M 10.6875 12.40625 
L 21 12.40625 
L 21 0 
L 10.6875 0 
z
" id="DejaVuSans-46"/>
     <path d="M 31.78125 34.625 
Q 24.75 34.625 20.71875 30.859375 
Q 16.703125 27.09375 16.703125 20.515625 
Q 16.703125 13.921875 20.71875 10.15625 
Q 24.75 6.390625 31.78125 6.390625 
Q 38.8125 6.390625 42.859375 10.171875 
Q 46.921875 13.96875 46.921875 20.515625 
Q 46.921875 27.09375 42.890625 30.859375 
Q 38.875 34.625 31.78125 34.625 
z
M 21.921875 38.8125 
Q 15.578125 40.375 12.03125 44.71875 
Q 8.5 49.078125 8.5 55.328125 
Q 8.5 64.0625 14.71875 69.140625 
Q 20.953125 74.21875 31.78125 74.21875 
Q 42.671875 74.21875 48.875 69.140625 
Q 55.078125 64.0625 55.078125 55.328125 
Q 55.078125 49.078125 51.53125 44.71875 
Q 48 40.375 41.703125 38.8125 
Q 48.828125 37.15625 52.796875 32.3125 
Q 56.78125 27.484375 56.78125 20.515625 
Q 56.78125 9.90625 50.3125 4.234375 
Q 43.84375 -1.421875 31.78125 -1.421875 
Q 19.734375 -1.421875 13.25 4.234375 
Q 6.78125 9.90625 6.78125 20.515625 
Q 6.78125 27.484375 10.78125 32.3125 
Q 14.796875 37.15625 21.921875 38.8125 
z
M 18.3125 54.390625 
Q 18.3125 48.734375 21.84375 45.5625 
Q 25.390625 42.390625 31.78125 42.390625 
Q 38.140625 42.390625 41.71875 45.5625 
Q 45.3125 48.734375 45.3125 54.390625 
Q 45.3125 60.0625 41.71875 63.234375 
Q 38.140625 66.40625 31.78125 66.40625 
Q 25.390625 66.40625 21.84375 63.234375 
Q 18.3125 60.0625 18.3125 54.390625 
z
" id="DejaVuSans-56"/>
    </defs>
    <g transform="translate(215.424375 49.296)scale(0.12 -0.12)">
     <use xlink:href="#DejaVuSans-116"/>
     <use x="39.208984" xlink:href="#DejaVuSans-32"/>
     <use x="70.996094" xlink:href="#DejaVuSans-61"/>
     <use x="154.785156" xlink:href="#DejaVuSans-32"/>
     <use x="186.572266" xlink:href="#DejaVuSans-55"/>
     <use x="250.195312" xlink:href="#DejaVuSans-46"/>
     <use x="281.982422" xlink:href="#DejaVuSans-56"/>
    </g>
   </g>
  </g>
 </g>
 <defs>
  <clipPath id="pa49294e83f">
   <rect height="354.816" width="357.12" x="57.6" y="55.296"/>
  </clipPath>
 </defs>
</svg>
