<?xml version="1.0" encoding="utf-8" standalone="no"?>
<!DOCTYPE svg PUBLIC "-//W3C//DTD SVG 1.1//EN"
  "http://www.w3.org/Graphics/SVG/1.1/DTD/svg11.dtd">
<!-- Created with matplotlib (https://matplotlib.org/) -->
<svg height="460.8pt" version="1.1" viewBox="0 0 460.8 460.8" width="460.8pt" xmlns="http://www.w3.org/2000/svg" xmlns:xlink="http://www.w3.org/1999/xlink">
 <defs>
  <style type="text/css">
*{stroke-linecap:butt;stroke-linejoin:round;}
  </style>
 </defs>
 <g id="figure_1">
  <g id="patch_1">
   <path d="M 0 460.8 
L 460.8 460.8 
L 460.8 0 
L 0 0 
z
" style="fill:#ffffff;"/>
  </g>
  <g id="axes_1">
   <g id="patch_2">
    <path clip-path="url(#p393850373c)" d="M 249.352104 352.648711 
L 248.289824 354.132059 
L 247.85286 355.406072 
L 247.601687 357.211572 
L 247.852758 358.558408 
L 248.474187 360.244009 
L 249.351822 361.333915 
L 250.693706 362.486925 
L 251.983029 363.053053 
L 253.716828 363.391174 
L 255.102168 363.294917 
L 256.803388 362.735365 
L 257.945565 362.000291 
L 259.197687 360.680064 
L 259.817057 359.486143 
L 260.313518 357.728479 
L 260.258437 356.368026 
L 259.877687 354.603261 
L 259.161641 353.409362 
L 257.9969 352.069574 
L 256.795202 351.334536 
L 255.13164 350.747751 
L 253.738508 350.651538 
L 251.983421 350.961421 
L 250.370118 351.759442 
L 250.370118 351.759442 
L 250.370118 351.759442 
L 250.370118 351.759442 
L 250.370118 351.759442 
L 250.370118 351.759442 
L 250.370118 351.759442 
L 250.370118 351.759442 
L 250.370118 351.759442 
L 250.370118 351.759442 
L 250.370118 351.759442 
L 250.370118 351.759442 
L 250.370118 351.759442 
L 250.370118 351.759442 
L 250.370118 351.759442 
L 250.370118 351.759442 
L 250.370118 351.759442 
L 250.370118 351.759442 
L 250.370118 351.759442 
L 250.370118 351.759442 
L 250.370118 351.759442 
L 250.370118 351.759442 
L 250.370118 351.759442 
L 250.370118 351.759442 
L 250.370118 351.759442 
L 250.370118 351.759442 
L 250.370118 351.759442 
L 250.370118 351.759442 
L 250.370118 351.759442 
L 250.370118 351.759442 
L 250.370118 351.759442 
L 250.370118 351.759442 
L 250.370118 351.759442 
L 250.370118 351.759442 
L 250.370118 351.759442 
L 250.370118 351.759442 
L 250.370118 351.759442 
L 250.370118 351.759442 
L 250.370118 351.759442 
L 250.370118 351.759442 
L 250.370118 351.759442 
L 250.370118 351.759442 
L 250.370118 351.759442 
L 250.370118 351.759442 
L 250.370118 351.759442 
L 250.370118 351.759442 
L 250.370118 351.759442 
L 250.370118 351.759442 
L 250.370118 351.759442 
L 250.370118 351.759442 
L 250.370118 351.759442 
L 250.370118 351.759442 
L 250.370118 351.759442 
L 250.370118 351.759442 
L 250.370118 351.759442 
L 250.370118 351.759442 
L 250.370118 351.759442 
L 250.370118 351.759442 
L 250.370118 351.759442 
L 250.370118 351.759442 
L 250.370118 351.759442 
L 250.370118 351.759442 
L 250.370118 351.759442 
L 250.370118 351.759442 
L 250.370118 351.759442 
L 250.370118 351.759442 
L 250.370118 351.759442 
L 250.370118 351.759442 
L 250.370118 351.759442 
L 250.370118 351.759442 
L 250.370118 351.759442 
L 250.370118 351.759442 
L 250.370118 351.759442 
L 250.370118 351.759442 
L 250.370118 351.759442 
L 250.370118 351.759442 
L 250.370118 351.759442 
L 250.370118 351.759442 
L 250.370118 351.759442 
L 250.370118 351.759442 
L 250.370118 351.759442 
L 250.370118 351.759442 
L 250.370118 351.759442 
L 250.370118 351.759442 
L 250.370118 351.759442 
L 250.370118 351.759442 
L 250.370118 351.759442 
L 250.370118 351.759442 
L 250.370118 351.759442 
L 250.370118 351.759442 
L 250.370118 351.759442 
L 250.370118 351.759442 
L 250.370118 351.759442 
L 250.370118 351.759442 
L 250.370118 351.759442 
L 250.370118 351.759442 
L 250.370118 351.759442 
L 250.370118 351.759442 
L 250.370118 351.759442 
L 250.370118 351.759442 
L 250.370118 351.759442 
L 250.370118 351.759442 
L 250.370118 351.759442 
L 250.370118 351.759442 
L 250.370118 351.759442 
L 250.370118 351.759442 
L 250.370118 351.759442 
L 250.370118 351.759442 
L 250.370118 351.759442 
L 250.370118 351.759442 
L 250.370118 351.759442 
L 250.370118 351.759442 
L 250.370118 351.759442 
L 250.370118 351.759442 
L 250.370118 351.759442 
L 250.370118 351.759442 
L 250.370118 351.759442 
L 250.370118 351.759442 
L 250.370118 351.759442 
L 250.370118 351.759442 
L 250.370118 351.759442 
L 250.370118 351.759442 
L 250.370118 351.759442 
L 250.370118 351.759442 
L 250.370118 351.759442 
L 250.370118 351.759442 
L 250.370118 351.759442 
L 250.370118 351.759442 
L 250.370118 351.759442 
L 250.370118 351.759442 
L 250.370118 351.759442 
L 250.370118 351.759442 
L 250.370118 351.759442 
L 250.370118 351.759442 
L 250.370118 351.759442 
L 250.370118 351.759442 
L 250.370118 351.759442 
L 250.370118 351.759442 
L 250.370118 351.759442 
L 250.370118 351.759442 
L 250.370118 351.759442 
L 250.370118 351.759442 
L 250.370118 351.759442 
L 250.370118 351.759442 
L 250.370118 351.759442 
z
" style="fill:#993333;stroke:#000000;stroke-linejoin:miter;"/>
   </g>
   <g id="patch_3">
    <path clip-path="url(#p393850373c)" d="M 234.656625 296.241289 
L 233.448606 296.638621 
L 253.373699 357.217378 
L 254.581718 356.820046 
L 254.581718 356.820046 
L 254.581718 356.820046 
L 254.581718 356.820046 
L 254.581718 356.820046 
L 254.581718 356.820046 
L 254.581718 356.820046 
L 254.581718 356.820046 
L 254.581718 356.820046 
L 254.581718 356.820046 
L 254.581718 356.820046 
L 254.581718 356.820046 
L 254.581718 356.820046 
L 254.581718 356.820046 
L 254.581718 356.820046 
L 254.581718 356.820046 
L 254.581718 356.820046 
L 254.581718 356.820046 
L 254.581718 356.820046 
L 254.581718 356.820046 
L 254.581718 356.820046 
L 254.581718 356.820046 
L 254.581718 356.820046 
L 254.581718 356.820046 
L 254.581718 356.820046 
L 254.581718 356.820046 
L 254.581718 356.820046 
L 254.581718 356.820046 
L 254.581718 356.820046 
L 254.581718 356.820046 
L 254.581718 356.820046 
L 254.581718 356.820046 
L 254.581718 356.820046 
L 254.581718 356.820046 
L 254.581718 356.820046 
L 254.581718 356.820046 
L 254.581718 356.820046 
L 254.581718 356.820046 
L 254.581718 356.820046 
L 254.581718 356.820046 
L 254.581718 356.820046 
L 254.581718 356.820046 
L 254.581718 356.820046 
L 254.581718 356.820046 
L 254.581718 356.820046 
L 254.581718 356.820046 
L 254.581718 356.820046 
L 254.581718 356.820046 
L 254.581718 356.820046 
z
" style="stroke:#000000;stroke-linejoin:miter;"/>
   </g>
   <g id="patch_4">
    <path clip-path="url(#p393850373c)" d="M 227.771694 295.781403 
L 227.775938 297.577903 
L 228.225517 298.90305 
L 229.089376 300.447016 
L 230.105582 301.421788 
L 231.617553 302.335205 
L 232.951583 302.720943 
L 234.741482 302.780174 
L 236.06672 302.482437 
L 237.696318 301.67298 
L 238.688299 300.764663 
L 239.758613 299.284702 
L 240.174465 297.988193 
L 240.423445 296.200073 
L 240.161354 294.832804 
L 239.528041 293.17432 
L 238.652175 292.071045 
L 237.291626 290.948251 
L 236.016428 290.37909 
L 234.261754 290.066886 
L 232.472455 290.261813 
L 231.210821 290.747026 
L 229.703437 291.774914 
L 228.855224 292.821136 
L 227.998815 294.430323 
L 227.998815 294.430323 
L 227.998815 294.430323 
L 227.998815 294.430323 
L 227.998815 294.430323 
L 227.998815 294.430323 
L 227.998815 294.430323 
L 227.998815 294.430323 
L 227.998815 294.430323 
L 227.998815 294.430323 
L 227.998815 294.430323 
L 227.998815 294.430323 
L 227.998815 294.430323 
L 227.998815 294.430323 
L 227.998815 294.430323 
L 227.998815 294.430323 
L 227.998815 294.430323 
L 227.998815 294.430323 
L 227.998815 294.430323 
L 227.998815 294.430323 
L 227.998815 294.430323 
L 227.998815 294.430323 
L 227.998815 294.430323 
L 227.998815 294.430323 
L 227.998815 294.430323 
L 227.998815 294.430323 
L 227.998815 294.430323 
L 227.998815 294.430323 
L 227.998815 294.430323 
L 227.998815 294.430323 
L 227.998815 294.430323 
L 227.998815 294.430323 
L 227.998815 294.430323 
L 227.998815 294.430323 
L 227.998815 294.430323 
L 227.998815 294.430323 
L 227.998815 294.430323 
L 227.998815 294.430323 
L 227.998815 294.430323 
L 227.998815 294.430323 
L 227.998815 294.430323 
L 227.998815 294.430323 
L 227.998815 294.430323 
L 227.998815 294.430323 
L 227.998815 294.430323 
L 227.998815 294.430323 
L 227.998815 294.430323 
L 227.998815 294.430323 
L 227.998815 294.430323 
L 227.998815 294.430323 
L 227.998815 294.430323 
L 227.998815 294.430323 
L 227.998815 294.430323 
L 227.998815 294.430323 
L 227.998815 294.430323 
L 227.998815 294.430323 
L 227.998815 294.430323 
L 227.998815 294.430323 
L 227.998815 294.430323 
L 227.998815 294.430323 
L 227.998815 294.430323 
L 227.998815 294.430323 
L 227.998815 294.430323 
L 227.998815 294.430323 
L 227.998815 294.430323 
L 227.998815 294.430323 
L 227.998815 294.430323 
L 227.998815 294.430323 
L 227.998815 294.430323 
L 227.998815 294.430323 
L 227.998815 294.430323 
L 227.998815 294.430323 
L 227.998815 294.430323 
L 227.998815 294.430323 
L 227.998815 294.430323 
L 227.998815 294.430323 
L 227.998815 294.430323 
L 227.998815 294.430323 
L 227.998815 294.430323 
L 227.998815 294.430323 
L 227.998815 294.430323 
L 227.998815 294.430323 
L 227.998815 294.430323 
L 227.998815 294.430323 
L 227.998815 294.430323 
L 227.998815 294.430323 
L 227.998815 294.430323 
L 227.998815 294.430323 
L 227.998815 294.430323 
L 227.998815 294.430323 
L 227.998815 294.430323 
L 227.998815 294.430323 
L 227.998815 294.430323 
L 227.998815 294.430323 
L 227.998815 294.430323 
L 227.998815 294.430323 
L 227.998815 294.430323 
L 227.998815 294.430323 
L 227.998815 294.430323 
L 227.998815 294.430323 
L 227.998815 294.430323 
L 227.998815 294.430323 
L 227.998815 294.430323 
L 227.998815 294.430323 
L 227.998815 294.430323 
L 227.998815 294.430323 
L 227.998815 294.430323 
L 227.998815 294.430323 
L 227.998815 294.430323 
L 227.998815 294.430323 
L 227.998815 294.430323 
L 227.998815 294.430323 
L 227.998815 294.430323 
L 227.998815 294.430323 
L 227.998815 294.430323 
L 227.998815 294.430323 
L 227.998815 294.430323 
L 227.998815 294.430323 
L 227.998815 294.430323 
L 227.998815 294.430323 
L 227.998815 294.430323 
L 227.998815 294.430323 
L 227.998815 294.430323 
L 227.998815 294.430323 
L 227.998815 294.430323 
L 227.998815 294.430323 
L 227.998815 294.430323 
L 227.998815 294.430323 
L 227.998815 294.430323 
L 227.998815 294.430323 
L 227.998815 294.430323 
L 227.998815 294.430323 
L 227.998815 294.430323 
L 227.998815 294.430323 
L 227.998815 294.430323 
L 227.998815 294.430323 
L 227.998815 294.430323 
L 227.998815 294.430323 
L 227.998815 294.430323 
L 227.998815 294.430323 
L 227.998815 294.430323 
L 227.998815 294.430323 
L 227.998815 294.430323 
L 227.998815 294.430323 
L 227.998815 294.430323 
z
" style="fill:#993333;stroke:#000000;stroke-linejoin:miter;"/>
   </g>
   <g id="patch_5">
    <path clip-path="url(#p393850373c)" d="M 233.417214 296.419572 
L 234.688203 296.461632 
L 236.797365 232.725092 
L 235.526376 232.683032 
L 235.526376 232.683032 
L 235.526376 232.683032 
L 235.526376 232.683032 
L 235.526376 232.683032 
L 235.526376 232.683032 
L 235.526376 232.683032 
L 235.526376 232.683032 
L 235.526376 232.683032 
L 235.526376 232.683032 
L 235.526376 232.683032 
L 235.526376 232.683032 
L 235.526376 232.683032 
L 235.526376 232.683032 
L 235.526376 232.683032 
L 235.526376 232.683032 
L 235.526376 232.683032 
L 235.526376 232.683032 
L 235.526376 232.683032 
L 235.526376 232.683032 
L 235.526376 232.683032 
L 235.526376 232.683032 
L 235.526376 232.683032 
L 235.526376 232.683032 
L 235.526376 232.683032 
L 235.526376 232.683032 
L 235.526376 232.683032 
L 235.526376 232.683032 
L 235.526376 232.683032 
L 235.526376 232.683032 
L 235.526376 232.683032 
L 235.526376 232.683032 
L 235.526376 232.683032 
L 235.526376 232.683032 
L 235.526376 232.683032 
L 235.526376 232.683032 
L 235.526376 232.683032 
L 235.526376 232.683032 
L 235.526376 232.683032 
L 235.526376 232.683032 
L 235.526376 232.683032 
L 235.526376 232.683032 
L 235.526376 232.683032 
L 235.526376 232.683032 
L 235.526376 232.683032 
L 235.526376 232.683032 
L 235.526376 232.683032 
L 235.526376 232.683032 
L 235.526376 232.683032 
z
" style="stroke:#000000;stroke-linejoin:miter;"/>
   </g>
   <g id="text_1">
    <!-- t = 6.5 -->
    <defs>
     <path d="M 18.3125 70.21875 
L 18.3125 54.6875 
L 36.8125 54.6875 
L 36.8125 47.703125 
L 18.3125 47.703125 
L 18.3125 18.015625 
Q 18.3125 11.328125 20.140625 9.421875 
Q 21.96875 7.515625 27.59375 7.515625 
L 36.8125 7.515625 
L 36.8125 0 
L 27.59375 0 
Q 17.1875 0 13.234375 3.875 
Q 9.28125 7.765625 9.28125 18.015625 
L 9.28125 47.703125 
L 2.6875 47.703125 
L 2.6875 54.6875 
L 9.28125 54.6875 
L 9.28125 70.21875 
z
" id="DejaVuSans-116"/>
     <path id="DejaVuSans-32"/>
     <path d="M 10.59375 45.40625 
L 73.1875 45.40625 
L 73.1875 37.203125 
L 10.59375 37.203125 
z
M 10.59375 25.484375 
L 73.1875 25.484375 
L 73.1875 17.1875 
L 10.59375 17.1875 
z
" id="DejaVuSans-61"/>
     <path d="M 33.015625 40.375 
Q 26.375 40.375 22.484375 35.828125 
Q 18.609375 31.296875 18.609375 23.390625 
Q 18.609375 15.53125 22.484375 10.953125 
Q 26.375 6.390625 33.015625 6.390625 
Q 39.65625 6.390625 43.53125 10.953125 
Q 47.40625 15.53125 47.40625 23.390625 
Q 47.40625 31.296875 43.53125 35.828125 
Q 39.65625 40.375 33.015625 40.375 
z
M 52.59375 71.296875 
L 52.59375 62.3125 
Q 48.875 64.0625 45.09375 64.984375 
Q 41.3125 65.921875 37.59375 65.921875 
Q 27.828125 65.921875 22.671875 59.328125 
Q 17.53125 52.734375 16.796875 39.40625 
Q 19.671875 43.65625 24.015625 45.921875 
Q 28.375 48.1875 33.59375 48.1875 
Q 44.578125 48.1875 50.953125 41.515625 
Q 57.328125 34.859375 57.328125 23.390625 
Q 57.328125 12.15625 50.6875 5.359375 
Q 44.046875 -1.421875 33.015625 -1.421875 
Q 20.359375 -1.421875 13.671875 8.265625 
Q 6.984375 17.96875 6.984375 36.375 
Q 6.984375 53.65625 15.1875 63.9375 
Q 23.390625 74.21875 37.203125 74.21875 
Q 40.921875 74.21875 44.703125 73.484375 
Q 48.484375 72.75 52.59375 71.296875 
z
" id="DejaVuSans-54"/>
     <path d="M 10.6875 12.40625 
L 21 12.40625 
L 21 0 
L 10.6875 0 
z
" id="DejaVuSans-46"/>
     <path d="M 10.796875 72.90625 
L 49.515625 72.90625 
L 49.515625 64.59375 
L 19.828125 64.59375 
L 19.828125 46.734375 
Q 21.96875 47.46875 24.109375 47.828125 
Q 26.265625 48.1875 28.421875 48.1875 
Q 40.625 48.1875 47.75 41.5 
Q 54.890625 34.8125 54.890625 23.390625 
Q 54.890625 11.625 47.5625 5.09375 
Q 40.234375 -1.421875 26.90625 -1.421875 
Q 22.3125 -1.421875 17.546875 -0.640625 
Q 12.796875 0.140625 7.71875 1.703125 
L 7.71875 11.625 
Q 12.109375 9.234375 16.796875 8.0625 
Q 21.484375 6.890625 26.703125 6.890625 
Q 35.15625 6.890625 40.078125 11.328125 
Q 45.015625 15.765625 45.015625 23.390625 
Q 45.015625 31 40.078125 35.4375 
Q 35.15625 39.890625 26.703125 39.890625 
Q 22.75 39.890625 18.8125 39.015625 
Q 14.890625 38.140625 10.796875 36.28125 
z
" id="DejaVuSans-53"/>
    </defs>
    <g transform="translate(215.424375 49.296)scale(0.12 -0.12)">
     <use xlink:href="#DejaVuSans-116"/>
     <use x="39.208984" xlink:href="#DejaVuSans-32"/>
     <use x="70.996094" xlink:href="#DejaVuSans-61"/>
     <use x="154.785156" xlink:href="#DejaVuSans-32"/>
     <use x="186.572266" xlink:href="#DejaVuSans-54"/>
     <use x="250.195312" xlink:href="#DejaVuSans-46"/>
     <use x="281.982422" xlink:href="#DejaVuSans-53"/>
    </g>
   </g>
  </g>
 </g>
 <defs>
  <clipPath id="p393850373c">
   <rect height="354.816" width="357.12" x="57.6" y="55.296"/>
  </clipPath>
 </defs>
</svg>
