<?xml version="1.0" encoding="utf-8" standalone="no"?>
<!DOCTYPE svg PUBLIC "-//W3C//DTD SVG 1.1//EN"
  "http://www.w3.org/Graphics/SVG/1.1/DTD/svg11.dtd">
<!-- Created with matplotlib (https://matplotlib.org/) -->
<svg height="460.8pt" version="1.1" viewBox="0 0 460.8 460.8" width="460.8pt" xmlns="http://www.w3.org/2000/svg" xmlns:xlink="http://www.w3.org/1999/xlink">
 <defs>
  <style type="text/css">
*{stroke-linecap:butt;stroke-linejoin:round;}
  </style>
 </defs>
 <g id="figure_1">
  <g id="patch_1">
   <path d="M 0 460.8 
L 460.8 460.8 
L 460.8 0 
L 0 0 
z
" style="fill:#ffffff;"/>
  </g>
  <g id="axes_1">
   <g id="patch_2">
    <path clip-path="url(#pdb58e7b7dc)" d="M 253.712855 365.083633 
L 255.094937 365.218839 
L 256.86547 364.949659 
L 258.113885 364.41453 
L 259.56792 363.320641 
L 260.377012 362.246195 
L 261.15855 360.59542 
L 261.330226 359.244719 
L 261.247919 357.441225 
L 260.740146 356.144968 
L 259.814146 354.630313 
L 258.751244 353.705868 
L 257.208268 352.850893 
L 255.850474 352.524597 
L 254.068296 352.538629 
L 252.344844 353.05757 
L 251.193253 353.765376 
L 249.899326 355.051655 
L 249.256801 356.235382 
L 248.709198 357.974073 
L 248.733051 359.343903 
L 249.065843 361.109314 
L 249.750235 362.329865 
L 250.881944 363.689762 
L 252.059311 364.4622 
L 252.059311 364.4622 
L 252.059311 364.4622 
L 252.059311 364.4622 
L 252.059311 364.4622 
L 252.059311 364.4622 
L 252.059311 364.4622 
L 252.059311 364.4622 
L 252.059311 364.4622 
L 252.059311 364.4622 
L 252.059311 364.4622 
L 252.059311 364.4622 
L 252.059311 364.4622 
L 252.059311 364.4622 
L 252.059311 364.4622 
L 252.059311 364.4622 
L 252.059311 364.4622 
L 252.059311 364.4622 
L 252.059311 364.4622 
L 252.059311 364.4622 
L 252.059311 364.4622 
L 252.059311 364.4622 
L 252.059311 364.4622 
L 252.059311 364.4622 
L 252.059311 364.4622 
L 252.059311 364.4622 
L 252.059311 364.4622 
L 252.059311 364.4622 
L 252.059311 364.4622 
L 252.059311 364.4622 
L 252.059311 364.4622 
L 252.059311 364.4622 
L 252.059311 364.4622 
L 252.059311 364.4622 
L 252.059311 364.4622 
L 252.059311 364.4622 
L 252.059311 364.4622 
L 252.059311 364.4622 
L 252.059311 364.4622 
L 252.059311 364.4622 
L 252.059311 364.4622 
L 252.059311 364.4622 
L 252.059311 364.4622 
L 252.059311 364.4622 
L 252.059311 364.4622 
L 252.059311 364.4622 
L 252.059311 364.4622 
L 252.059311 364.4622 
L 252.059311 364.4622 
L 252.059311 364.4622 
L 252.059311 364.4622 
L 252.059311 364.4622 
L 252.059311 364.4622 
L 252.059311 364.4622 
L 252.059311 364.4622 
L 252.059311 364.4622 
L 252.059311 364.4622 
L 252.059311 364.4622 
L 252.059311 364.4622 
L 252.059311 364.4622 
L 252.059311 364.4622 
L 252.059311 364.4622 
L 252.059311 364.4622 
L 252.059311 364.4622 
L 252.059311 364.4622 
L 252.059311 364.4622 
L 252.059311 364.4622 
L 252.059311 364.4622 
L 252.059311 364.4622 
L 252.059311 364.4622 
L 252.059311 364.4622 
L 252.059311 364.4622 
L 252.059311 364.4622 
L 252.059311 364.4622 
L 252.059311 364.4622 
L 252.059311 364.4622 
L 252.059311 364.4622 
L 252.059311 364.4622 
L 252.059311 364.4622 
L 252.059311 364.4622 
L 252.059311 364.4622 
L 252.059311 364.4622 
L 252.059311 364.4622 
L 252.059311 364.4622 
L 252.059311 364.4622 
L 252.059311 364.4622 
L 252.059311 364.4622 
L 252.059311 364.4622 
L 252.059311 364.4622 
L 252.059311 364.4622 
L 252.059311 364.4622 
L 252.059311 364.4622 
L 252.059311 364.4622 
L 252.059311 364.4622 
L 252.059311 364.4622 
L 252.059311 364.4622 
L 252.059311 364.4622 
L 252.059311 364.4622 
L 252.059311 364.4622 
L 252.059311 364.4622 
L 252.059311 364.4622 
L 252.059311 364.4622 
L 252.059311 364.4622 
L 252.059311 364.4622 
L 252.059311 364.4622 
L 252.059311 364.4622 
L 252.059311 364.4622 
L 252.059311 364.4622 
L 252.059311 364.4622 
L 252.059311 364.4622 
L 252.059311 364.4622 
L 252.059311 364.4622 
L 252.059311 364.4622 
L 252.059311 364.4622 
L 252.059311 364.4622 
L 252.059311 364.4622 
L 252.059311 364.4622 
L 252.059311 364.4622 
L 252.059311 364.4622 
L 252.059311 364.4622 
L 252.059311 364.4622 
L 252.059311 364.4622 
L 252.059311 364.4622 
L 252.059311 364.4622 
L 252.059311 364.4622 
L 252.059311 364.4622 
L 252.059311 364.4622 
L 252.059311 364.4622 
L 252.059311 364.4622 
L 252.059311 364.4622 
L 252.059311 364.4622 
L 252.059311 364.4622 
L 252.059311 364.4622 
L 252.059311 364.4622 
L 252.059311 364.4622 
L 252.059311 364.4622 
L 252.059311 364.4622 
L 252.059311 364.4622 
L 252.059311 364.4622 
L 252.059311 364.4622 
L 252.059311 364.4622 
L 252.059311 364.4622 
L 252.059311 364.4622 
L 252.059311 364.4622 
L 252.059311 364.4622 
z
" style="fill:#993333;stroke:#000000;stroke-linejoin:miter;"/>
   </g>
   <g id="patch_3">
    <path clip-path="url(#pdb58e7b7dc)" d="M 244.814813 295.891661 
L 254.400052 358.938614 
L 255.65729 358.747472 
L 246.072051 295.700519 
L 246.072051 295.700519 
L 246.072051 295.700519 
L 246.072051 295.700519 
L 246.072051 295.700519 
L 246.072051 295.700519 
L 246.072051 295.700519 
L 246.072051 295.700519 
L 246.072051 295.700519 
L 246.072051 295.700519 
L 246.072051 295.700519 
L 246.072051 295.700519 
L 246.072051 295.700519 
L 246.072051 295.700519 
L 246.072051 295.700519 
L 246.072051 295.700519 
L 246.072051 295.700519 
L 246.072051 295.700519 
L 246.072051 295.700519 
L 246.072051 295.700519 
L 246.072051 295.700519 
L 246.072051 295.700519 
L 246.072051 295.700519 
L 246.072051 295.700519 
L 246.072051 295.700519 
L 246.072051 295.700519 
L 246.072051 295.700519 
L 246.072051 295.700519 
L 246.072051 295.700519 
L 246.072051 295.700519 
L 246.072051 295.700519 
L 246.072051 295.700519 
L 246.072051 295.700519 
L 246.072051 295.700519 
L 246.072051 295.700519 
L 246.072051 295.700519 
L 246.072051 295.700519 
L 246.072051 295.700519 
L 246.072051 295.700519 
L 246.072051 295.700519 
L 246.072051 295.700519 
L 246.072051 295.700519 
L 246.072051 295.700519 
L 246.072051 295.700519 
L 246.072051 295.700519 
L 246.072051 295.700519 
L 246.072051 295.700519 
L 246.072051 295.700519 
L 246.072051 295.700519 
z
" style="stroke:#000000;stroke-linejoin:miter;"/>
   </g>
   <g id="patch_4">
    <path clip-path="url(#pdb58e7b7dc)" d="M 244.097586 302.030281 
L 245.479001 302.17214 
L 247.25081 301.911487 
L 248.501787 301.382375 
L 249.961072 300.2955 
L 250.775328 299.224962 
L 251.564804 297.577969 
L 251.742981 296.22811 
L 251.669358 294.424241 
L 251.167832 293.125553 
L 250.249135 291.606458 
L 249.190697 290.676906 
L 247.651855 289.814512 
L 246.295648 289.481683 
L 244.513423 289.487134 
L 242.787493 289.997771 
L 241.632507 290.700025 
L 240.332402 291.980059 
L 239.684185 293.160678 
L 239.128217 294.896713 
L 239.145475 296.266642 
L 239.469763 298.033635 
L 240.148271 299.257466 
L 241.273419 300.622797 
L 242.447054 301.400895 
L 242.447054 301.400895 
L 242.447054 301.400895 
L 242.447054 301.400895 
L 242.447054 301.400895 
L 242.447054 301.400895 
L 242.447054 301.400895 
L 242.447054 301.400895 
L 242.447054 301.400895 
L 242.447054 301.400895 
L 242.447054 301.400895 
L 242.447054 301.400895 
L 242.447054 301.400895 
L 242.447054 301.400895 
L 242.447054 301.400895 
L 242.447054 301.400895 
L 242.447054 301.400895 
L 242.447054 301.400895 
L 242.447054 301.400895 
L 242.447054 301.400895 
L 242.447054 301.400895 
L 242.447054 301.400895 
L 242.447054 301.400895 
L 242.447054 301.400895 
L 242.447054 301.400895 
L 242.447054 301.400895 
L 242.447054 301.400895 
L 242.447054 301.400895 
L 242.447054 301.400895 
L 242.447054 301.400895 
L 242.447054 301.400895 
L 242.447054 301.400895 
L 242.447054 301.400895 
L 242.447054 301.400895 
L 242.447054 301.400895 
L 242.447054 301.400895 
L 242.447054 301.400895 
L 242.447054 301.400895 
L 242.447054 301.400895 
L 242.447054 301.400895 
L 242.447054 301.400895 
L 242.447054 301.400895 
L 242.447054 301.400895 
L 242.447054 301.400895 
L 242.447054 301.400895 
L 242.447054 301.400895 
L 242.447054 301.400895 
L 242.447054 301.400895 
L 242.447054 301.400895 
L 242.447054 301.400895 
L 242.447054 301.400895 
L 242.447054 301.400895 
L 242.447054 301.400895 
L 242.447054 301.400895 
L 242.447054 301.400895 
L 242.447054 301.400895 
L 242.447054 301.400895 
L 242.447054 301.400895 
L 242.447054 301.400895 
L 242.447054 301.400895 
L 242.447054 301.400895 
L 242.447054 301.400895 
L 242.447054 301.400895 
L 242.447054 301.400895 
L 242.447054 301.400895 
L 242.447054 301.400895 
L 242.447054 301.400895 
L 242.447054 301.400895 
L 242.447054 301.400895 
L 242.447054 301.400895 
L 242.447054 301.400895 
L 242.447054 301.400895 
L 242.447054 301.400895 
L 242.447054 301.400895 
L 242.447054 301.400895 
L 242.447054 301.400895 
L 242.447054 301.400895 
L 242.447054 301.400895 
L 242.447054 301.400895 
L 242.447054 301.400895 
L 242.447054 301.400895 
L 242.447054 301.400895 
L 242.447054 301.400895 
L 242.447054 301.400895 
L 242.447054 301.400895 
L 242.447054 301.400895 
L 242.447054 301.400895 
L 242.447054 301.400895 
L 242.447054 301.400895 
L 242.447054 301.400895 
L 242.447054 301.400895 
L 242.447054 301.400895 
L 242.447054 301.400895 
L 242.447054 301.400895 
L 242.447054 301.400895 
L 242.447054 301.400895 
L 242.447054 301.400895 
L 242.447054 301.400895 
L 242.447054 301.400895 
L 242.447054 301.400895 
L 242.447054 301.400895 
L 242.447054 301.400895 
L 242.447054 301.400895 
L 242.447054 301.400895 
L 242.447054 301.400895 
L 242.447054 301.400895 
L 242.447054 301.400895 
L 242.447054 301.400895 
L 242.447054 301.400895 
L 242.447054 301.400895 
L 242.447054 301.400895 
L 242.447054 301.400895 
L 242.447054 301.400895 
L 242.447054 301.400895 
L 242.447054 301.400895 
L 242.447054 301.400895 
L 242.447054 301.400895 
L 242.447054 301.400895 
L 242.447054 301.400895 
L 242.447054 301.400895 
L 242.447054 301.400895 
L 242.447054 301.400895 
L 242.447054 301.400895 
L 242.447054 301.400895 
L 242.447054 301.400895 
L 242.447054 301.400895 
L 242.447054 301.400895 
L 242.447054 301.400895 
L 242.447054 301.400895 
L 242.447054 301.400895 
L 242.447054 301.400895 
L 242.447054 301.400895 
L 242.447054 301.400895 
L 242.447054 301.400895 
L 242.447054 301.400895 
L 242.447054 301.400895 
L 242.447054 301.400895 
L 242.447054 301.400895 
L 242.447054 301.400895 
L 242.447054 301.400895 
L 242.447054 301.400895 
L 242.447054 301.400895 
L 242.447054 301.400895 
L 242.447054 301.400895 
L 242.447054 301.400895 
z
" style="fill:#993333;stroke:#000000;stroke-linejoin:miter;"/>
   </g>
   <g id="patch_5">
    <path clip-path="url(#pdb58e7b7dc)" d="M 236.790924 232.611184 
L 235.53278 232.796271 
L 244.814361 295.888643 
L 246.072505 295.703556 
L 246.072505 295.703556 
L 246.072505 295.703556 
L 246.072505 295.703556 
L 246.072505 295.703556 
L 246.072505 295.703556 
L 246.072505 295.703556 
L 246.072505 295.703556 
L 246.072505 295.703556 
L 246.072505 295.703556 
L 246.072505 295.703556 
L 246.072505 295.703556 
L 246.072505 295.703556 
L 246.072505 295.703556 
L 246.072505 295.703556 
L 246.072505 295.703556 
L 246.072505 295.703556 
L 246.072505 295.703556 
L 246.072505 295.703556 
L 246.072505 295.703556 
L 246.072505 295.703556 
L 246.072505 295.703556 
L 246.072505 295.703556 
L 246.072505 295.703556 
L 246.072505 295.703556 
L 246.072505 295.703556 
L 246.072505 295.703556 
L 246.072505 295.703556 
L 246.072505 295.703556 
L 246.072505 295.703556 
L 246.072505 295.703556 
L 246.072505 295.703556 
L 246.072505 295.703556 
L 246.072505 295.703556 
L 246.072505 295.703556 
L 246.072505 295.703556 
L 246.072505 295.703556 
L 246.072505 295.703556 
L 246.072505 295.703556 
L 246.072505 295.703556 
L 246.072505 295.703556 
L 246.072505 295.703556 
L 246.072505 295.703556 
L 246.072505 295.703556 
L 246.072505 295.703556 
L 246.072505 295.703556 
L 246.072505 295.703556 
L 246.072505 295.703556 
L 246.072505 295.703556 
z
" style="stroke:#000000;stroke-linejoin:miter;"/>
   </g>
   <g id="text_1">
    <!-- t = 3.6 -->
    <defs>
     <path d="M 18.3125 70.21875 
L 18.3125 54.6875 
L 36.8125 54.6875 
L 36.8125 47.703125 
L 18.3125 47.703125 
L 18.3125 18.015625 
Q 18.3125 11.328125 20.140625 9.421875 
Q 21.96875 7.515625 27.59375 7.515625 
L 36.8125 7.515625 
L 36.8125 0 
L 27.59375 0 
Q 17.1875 0 13.234375 3.875 
Q 9.28125 7.765625 9.28125 18.015625 
L 9.28125 47.703125 
L 2.6875 47.703125 
L 2.6875 54.6875 
L 9.28125 54.6875 
L 9.28125 70.21875 
z
" id="DejaVuSans-116"/>
     <path id="DejaVuSans-32"/>
     <path d="M 10.59375 45.40625 
L 73.1875 45.40625 
L 73.1875 37.203125 
L 10.59375 37.203125 
z
M 10.59375 25.484375 
L 73.1875 25.484375 
L 73.1875 17.1875 
L 10.59375 17.1875 
z
" id="DejaVuSans-61"/>
     <path d="M 40.578125 39.3125 
Q 47.65625 37.796875 51.625 33 
Q 55.609375 28.21875 55.609375 21.1875 
Q 55.609375 10.40625 48.1875 4.484375 
Q 40.765625 -1.421875 27.09375 -1.421875 
Q 22.515625 -1.421875 17.65625 -0.515625 
Q 12.796875 0.390625 7.625 2.203125 
L 7.625 11.71875 
Q 11.71875 9.328125 16.59375 8.109375 
Q 21.484375 6.890625 26.8125 6.890625 
Q 36.078125 6.890625 40.9375 10.546875 
Q 45.796875 14.203125 45.796875 21.1875 
Q 45.796875 27.640625 41.28125 31.265625 
Q 36.765625 34.90625 28.71875 34.90625 
L 20.21875 34.90625 
L 20.21875 43.015625 
L 29.109375 43.015625 
Q 36.375 43.015625 40.234375 45.921875 
Q 44.09375 48.828125 44.09375 54.296875 
Q 44.09375 59.90625 40.109375 62.90625 
Q 36.140625 65.921875 28.71875 65.921875 
Q 24.65625 65.921875 20.015625 65.03125 
Q 15.375 64.15625 9.8125 62.3125 
L 9.8125 71.09375 
Q 15.4375 72.65625 20.34375 73.4375 
Q 25.25 74.21875 29.59375 74.21875 
Q 40.828125 74.21875 47.359375 69.109375 
Q 53.90625 64.015625 53.90625 55.328125 
Q 53.90625 49.265625 50.4375 45.09375 
Q 46.96875 40.921875 40.578125 39.3125 
z
" id="DejaVuSans-51"/>
     <path d="M 10.6875 12.40625 
L 21 12.40625 
L 21 0 
L 10.6875 0 
z
" id="DejaVuSans-46"/>
     <path d="M 33.015625 40.375 
Q 26.375 40.375 22.484375 35.828125 
Q 18.609375 31.296875 18.609375 23.390625 
Q 18.609375 15.53125 22.484375 10.953125 
Q 26.375 6.390625 33.015625 6.390625 
Q 39.65625 6.390625 43.53125 10.953125 
Q 47.40625 15.53125 47.40625 23.390625 
Q 47.40625 31.296875 43.53125 35.828125 
Q 39.65625 40.375 33.015625 40.375 
z
M 52.59375 71.296875 
L 52.59375 62.3125 
Q 48.875 64.0625 45.09375 64.984375 
Q 41.3125 65.921875 37.59375 65.921875 
Q 27.828125 65.921875 22.671875 59.328125 
Q 17.53125 52.734375 16.796875 39.40625 
Q 19.671875 43.65625 24.015625 45.921875 
Q 28.375 48.1875 33.59375 48.1875 
Q 44.578125 48.1875 50.953125 41.515625 
Q 57.328125 34.859375 57.328125 23.390625 
Q 57.328125 12.15625 50.6875 5.359375 
Q 44.046875 -1.421875 33.015625 -1.421875 
Q 20.359375 -1.421875 13.671875 8.265625 
Q 6.984375 17.96875 6.984375 36.375 
Q 6.984375 53.65625 15.1875 63.9375 
Q 23.390625 74.21875 37.203125 74.21875 
Q 40.921875 74.21875 44.703125 73.484375 
Q 48.484375 72.75 52.59375 71.296875 
z
" id="DejaVuSans-54"/>
    </defs>
    <g transform="translate(215.424375 49.296)scale(0.12 -0.12)">
     <use xlink:href="#DejaVuSans-116"/>
     <use x="39.208984" xlink:href="#DejaVuSans-32"/>
     <use x="70.996094" xlink:href="#DejaVuSans-61"/>
     <use x="154.785156" xlink:href="#DejaVuSans-32"/>
     <use x="186.572266" xlink:href="#DejaVuSans-51"/>
     <use x="250.195312" xlink:href="#DejaVuSans-46"/>
     <use x="281.982422" xlink:href="#DejaVuSans-54"/>
    </g>
   </g>
  </g>
 </g>
 <defs>
  <clipPath id="pdb58e7b7dc">
   <rect height="354.816" width="357.12" x="57.6" y="55.296"/>
  </clipPath>
 </defs>
</svg>
