<?xml version="1.0" encoding="utf-8" standalone="no"?>
<!DOCTYPE svg PUBLIC "-//W3C//DTD SVG 1.1//EN"
  "http://www.w3.org/Graphics/SVG/1.1/DTD/svg11.dtd">
<!-- Created with matplotlib (https://matplotlib.org/) -->
<svg height="460.8pt" version="1.1" viewBox="0 0 460.8 460.8" width="460.8pt" xmlns="http://www.w3.org/2000/svg" xmlns:xlink="http://www.w3.org/1999/xlink">
 <defs>
  <style type="text/css">
*{stroke-linecap:butt;stroke-linejoin:round;}
  </style>
 </defs>
 <g id="figure_1">
  <g id="patch_1">
   <path d="M 0 460.8 
L 460.8 460.8 
L 460.8 0 
L 0 0 
z
" style="fill:#ffffff;"/>
  </g>
  <g id="axes_1">
   <g id="patch_2">
    <path clip-path="url(#pc8cb4f2684)" d="M 117.316836 292.377818 
L 118.671336 293.592782 
L 119.882002 294.178748 
L 121.652779 294.626191 
L 123.011177 294.53334 
L 124.764683 294.103713 
L 125.938231 293.354779 
L 127.245147 292.153269 
L 127.946519 290.931617 
L 128.486866 289.252396 
L 128.544342 287.857129 
L 128.185825 286.111328 
L 127.343295 284.520816 
L 126.426091 283.527897 
L 124.913806 282.507233 
L 123.628146 282.105828 
L 121.816366 281.904907 
L 120.477025 282.193294 
L 118.809336 282.861308 
L 117.744231 283.76888 
L 116.628942 285.142276 
L 116.098848 286.446828 
L 115.80902 288.189351 
L 115.943723 289.571482 
L 116.550317 291.256501 
L 116.550317 291.256501 
L 116.550317 291.256501 
L 116.550317 291.256501 
L 116.550317 291.256501 
L 116.550317 291.256501 
L 116.550317 291.256501 
L 116.550317 291.256501 
L 116.550317 291.256501 
L 116.550317 291.256501 
L 116.550317 291.256501 
L 116.550317 291.256501 
L 116.550317 291.256501 
L 116.550317 291.256501 
L 116.550317 291.256501 
L 116.550317 291.256501 
L 116.550317 291.256501 
L 116.550317 291.256501 
L 116.550317 291.256501 
L 116.550317 291.256501 
L 116.550317 291.256501 
L 116.550317 291.256501 
L 116.550317 291.256501 
L 116.550317 291.256501 
L 116.550317 291.256501 
L 116.550317 291.256501 
L 116.550317 291.256501 
L 116.550317 291.256501 
L 116.550317 291.256501 
L 116.550317 291.256501 
L 116.550317 291.256501 
L 116.550317 291.256501 
L 116.550317 291.256501 
L 116.550317 291.256501 
L 116.550317 291.256501 
L 116.550317 291.256501 
L 116.550317 291.256501 
L 116.550317 291.256501 
L 116.550317 291.256501 
L 116.550317 291.256501 
L 116.550317 291.256501 
L 116.550317 291.256501 
L 116.550317 291.256501 
L 116.550317 291.256501 
L 116.550317 291.256501 
L 116.550317 291.256501 
L 116.550317 291.256501 
L 116.550317 291.256501 
L 116.550317 291.256501 
L 116.550317 291.256501 
L 116.550317 291.256501 
L 116.550317 291.256501 
L 116.550317 291.256501 
L 116.550317 291.256501 
L 116.550317 291.256501 
L 116.550317 291.256501 
L 116.550317 291.256501 
L 116.550317 291.256501 
L 116.550317 291.256501 
L 116.550317 291.256501 
L 116.550317 291.256501 
L 116.550317 291.256501 
L 116.550317 291.256501 
L 116.550317 291.256501 
L 116.550317 291.256501 
L 116.550317 291.256501 
L 116.550317 291.256501 
L 116.550317 291.256501 
L 116.550317 291.256501 
L 116.550317 291.256501 
L 116.550317 291.256501 
L 116.550317 291.256501 
L 116.550317 291.256501 
L 116.550317 291.256501 
L 116.550317 291.256501 
L 116.550317 291.256501 
L 116.550317 291.256501 
L 116.550317 291.256501 
L 116.550317 291.256501 
L 116.550317 291.256501 
L 116.550317 291.256501 
L 116.550317 291.256501 
L 116.550317 291.256501 
L 116.550317 291.256501 
L 116.550317 291.256501 
L 116.550317 291.256501 
L 116.550317 291.256501 
L 116.550317 291.256501 
L 116.550317 291.256501 
L 116.550317 291.256501 
L 116.550317 291.256501 
L 116.550317 291.256501 
L 116.550317 291.256501 
L 116.550317 291.256501 
L 116.550317 291.256501 
L 116.550317 291.256501 
L 116.550317 291.256501 
L 116.550317 291.256501 
L 116.550317 291.256501 
L 116.550317 291.256501 
L 116.550317 291.256501 
L 116.550317 291.256501 
L 116.550317 291.256501 
L 116.550317 291.256501 
L 116.550317 291.256501 
L 116.550317 291.256501 
L 116.550317 291.256501 
L 116.550317 291.256501 
L 116.550317 291.256501 
L 116.550317 291.256501 
L 116.550317 291.256501 
L 116.550317 291.256501 
L 116.550317 291.256501 
L 116.550317 291.256501 
L 116.550317 291.256501 
L 116.550317 291.256501 
L 116.550317 291.256501 
L 116.550317 291.256501 
L 116.550317 291.256501 
L 116.550317 291.256501 
L 116.550317 291.256501 
L 116.550317 291.256501 
L 116.550317 291.256501 
L 116.550317 291.256501 
L 116.550317 291.256501 
L 116.550317 291.256501 
L 116.550317 291.256501 
L 116.550317 291.256501 
L 116.550317 291.256501 
L 116.550317 291.256501 
L 116.550317 291.256501 
L 116.550317 291.256501 
L 116.550317 291.256501 
L 116.550317 291.256501 
L 116.550317 291.256501 
L 116.550317 291.256501 
L 116.550317 291.256501 
L 116.550317 291.256501 
L 116.550317 291.256501 
L 116.550317 291.256501 
L 116.550317 291.256501 
L 116.550317 291.256501 
L 116.550317 291.256501 
L 116.550317 291.256501 
L 116.550317 291.256501 
z
" style="fill:#993333;stroke:#000000;stroke-linejoin:miter;"/>
   </g>
   <g id="patch_3">
    <path clip-path="url(#pc8cb4f2684)" d="M 121.970902 287.674853 
L 122.401638 288.871368 
L 182.403521 267.271155 
L 181.972785 266.07464 
L 181.972785 266.07464 
L 181.972785 266.07464 
L 181.972785 266.07464 
L 181.972785 266.07464 
L 181.972785 266.07464 
L 181.972785 266.07464 
L 181.972785 266.07464 
L 181.972785 266.07464 
L 181.972785 266.07464 
L 181.972785 266.07464 
L 181.972785 266.07464 
L 181.972785 266.07464 
L 181.972785 266.07464 
L 181.972785 266.07464 
L 181.972785 266.07464 
L 181.972785 266.07464 
L 181.972785 266.07464 
L 181.972785 266.07464 
L 181.972785 266.07464 
L 181.972785 266.07464 
L 181.972785 266.07464 
L 181.972785 266.07464 
L 181.972785 266.07464 
L 181.972785 266.07464 
L 181.972785 266.07464 
L 181.972785 266.07464 
L 181.972785 266.07464 
L 181.972785 266.07464 
L 181.972785 266.07464 
L 181.972785 266.07464 
L 181.972785 266.07464 
L 181.972785 266.07464 
L 181.972785 266.07464 
L 181.972785 266.07464 
L 181.972785 266.07464 
L 181.972785 266.07464 
L 181.972785 266.07464 
L 181.972785 266.07464 
L 181.972785 266.07464 
L 181.972785 266.07464 
L 181.972785 266.07464 
L 181.972785 266.07464 
L 181.972785 266.07464 
L 181.972785 266.07464 
L 181.972785 266.07464 
L 181.972785 266.07464 
L 181.972785 266.07464 
L 181.972785 266.07464 
z
" style="stroke:#000000;stroke-linejoin:miter;"/>
   </g>
   <g id="patch_4">
    <path clip-path="url(#pc8cb4f2684)" d="M 175.851053 266.194615 
L 175.941719 267.958748 
L 176.369736 269.27982 
L 177.323628 270.795517 
L 178.312816 271.726329 
L 179.896386 272.622495 
L 181.204557 272.93515 
L 183.030094 272.992372 
L 184.336963 272.610323 
L 185.95751 271.81459 
L 186.943109 270.831375 
L 187.9619 269.377512 
L 188.384921 268.033856 
L 188.552521 266.277818 
L 188.309392 264.902696 
L 187.584767 263.274423 
L 186.420702 261.901638 
L 185.311875 261.128556 
L 183.615867 260.456012 
L 182.274032 260.339707 
L 180.461323 260.532065 
L 179.215007 261.101012 
L 177.729411 262.111177 
L 176.883757 263.226078 
L 176.089 264.806726 
L 176.089 264.806726 
L 176.089 264.806726 
L 176.089 264.806726 
L 176.089 264.806726 
L 176.089 264.806726 
L 176.089 264.806726 
L 176.089 264.806726 
L 176.089 264.806726 
L 176.089 264.806726 
L 176.089 264.806726 
L 176.089 264.806726 
L 176.089 264.806726 
L 176.089 264.806726 
L 176.089 264.806726 
L 176.089 264.806726 
L 176.089 264.806726 
L 176.089 264.806726 
L 176.089 264.806726 
L 176.089 264.806726 
L 176.089 264.806726 
L 176.089 264.806726 
L 176.089 264.806726 
L 176.089 264.806726 
L 176.089 264.806726 
L 176.089 264.806726 
L 176.089 264.806726 
L 176.089 264.806726 
L 176.089 264.806726 
L 176.089 264.806726 
L 176.089 264.806726 
L 176.089 264.806726 
L 176.089 264.806726 
L 176.089 264.806726 
L 176.089 264.806726 
L 176.089 264.806726 
L 176.089 264.806726 
L 176.089 264.806726 
L 176.089 264.806726 
L 176.089 264.806726 
L 176.089 264.806726 
L 176.089 264.806726 
L 176.089 264.806726 
L 176.089 264.806726 
L 176.089 264.806726 
L 176.089 264.806726 
L 176.089 264.806726 
L 176.089 264.806726 
L 176.089 264.806726 
L 176.089 264.806726 
L 176.089 264.806726 
L 176.089 264.806726 
L 176.089 264.806726 
L 176.089 264.806726 
L 176.089 264.806726 
L 176.089 264.806726 
L 176.089 264.806726 
L 176.089 264.806726 
L 176.089 264.806726 
L 176.089 264.806726 
L 176.089 264.806726 
L 176.089 264.806726 
L 176.089 264.806726 
L 176.089 264.806726 
L 176.089 264.806726 
L 176.089 264.806726 
L 176.089 264.806726 
L 176.089 264.806726 
L 176.089 264.806726 
L 176.089 264.806726 
L 176.089 264.806726 
L 176.089 264.806726 
L 176.089 264.806726 
L 176.089 264.806726 
L 176.089 264.806726 
L 176.089 264.806726 
L 176.089 264.806726 
L 176.089 264.806726 
L 176.089 264.806726 
L 176.089 264.806726 
L 176.089 264.806726 
L 176.089 264.806726 
L 176.089 264.806726 
L 176.089 264.806726 
L 176.089 264.806726 
L 176.089 264.806726 
L 176.089 264.806726 
L 176.089 264.806726 
L 176.089 264.806726 
L 176.089 264.806726 
L 176.089 264.806726 
L 176.089 264.806726 
L 176.089 264.806726 
L 176.089 264.806726 
L 176.089 264.806726 
L 176.089 264.806726 
L 176.089 264.806726 
L 176.089 264.806726 
L 176.089 264.806726 
L 176.089 264.806726 
L 176.089 264.806726 
L 176.089 264.806726 
L 176.089 264.806726 
L 176.089 264.806726 
L 176.089 264.806726 
L 176.089 264.806726 
L 176.089 264.806726 
L 176.089 264.806726 
L 176.089 264.806726 
L 176.089 264.806726 
L 176.089 264.806726 
L 176.089 264.806726 
L 176.089 264.806726 
L 176.089 264.806726 
L 176.089 264.806726 
L 176.089 264.806726 
L 176.089 264.806726 
L 176.089 264.806726 
L 176.089 264.806726 
L 176.089 264.806726 
L 176.089 264.806726 
L 176.089 264.806726 
L 176.089 264.806726 
L 176.089 264.806726 
L 176.089 264.806726 
L 176.089 264.806726 
L 176.089 264.806726 
L 176.089 264.806726 
L 176.089 264.806726 
L 176.089 264.806726 
L 176.089 264.806726 
L 176.089 264.806726 
L 176.089 264.806726 
L 176.089 264.806726 
L 176.089 264.806726 
L 176.089 264.806726 
L 176.089 264.806726 
L 176.089 264.806726 
L 176.089 264.806726 
L 176.089 264.806726 
L 176.089 264.806726 
L 176.089 264.806726 
L 176.089 264.806726 
L 176.089 264.806726 
L 176.089 264.806726 
z
" style="fill:#993333;stroke:#000000;stroke-linejoin:miter;"/>
   </g>
   <g id="patch_5">
    <path clip-path="url(#pc8cb4f2684)" d="M 235.822323 232.167444 
L 181.849841 266.13458 
L 182.52719 267.210861 
L 236.499671 233.243725 
L 236.499671 233.243725 
L 236.499671 233.243725 
L 236.499671 233.243725 
L 236.499671 233.243725 
L 236.499671 233.243725 
L 236.499671 233.243725 
L 236.499671 233.243725 
L 236.499671 233.243725 
L 236.499671 233.243725 
L 236.499671 233.243725 
L 236.499671 233.243725 
L 236.499671 233.243725 
L 236.499671 233.243725 
L 236.499671 233.243725 
L 236.499671 233.243725 
L 236.499671 233.243725 
L 236.499671 233.243725 
L 236.499671 233.243725 
L 236.499671 233.243725 
L 236.499671 233.243725 
L 236.499671 233.243725 
L 236.499671 233.243725 
L 236.499671 233.243725 
L 236.499671 233.243725 
L 236.499671 233.243725 
L 236.499671 233.243725 
L 236.499671 233.243725 
L 236.499671 233.243725 
L 236.499671 233.243725 
L 236.499671 233.243725 
L 236.499671 233.243725 
L 236.499671 233.243725 
L 236.499671 233.243725 
L 236.499671 233.243725 
L 236.499671 233.243725 
L 236.499671 233.243725 
L 236.499671 233.243725 
L 236.499671 233.243725 
L 236.499671 233.243725 
L 236.499671 233.243725 
L 236.499671 233.243725 
L 236.499671 233.243725 
L 236.499671 233.243725 
L 236.499671 233.243725 
L 236.499671 233.243725 
L 236.499671 233.243725 
L 236.499671 233.243725 
L 236.499671 233.243725 
z
" style="stroke:#000000;stroke-linejoin:miter;"/>
   </g>
   <g id="text_1">
    <!-- t = 2.7 -->
    <defs>
     <path d="M 18.3125 70.21875 
L 18.3125 54.6875 
L 36.8125 54.6875 
L 36.8125 47.703125 
L 18.3125 47.703125 
L 18.3125 18.015625 
Q 18.3125 11.328125 20.140625 9.421875 
Q 21.96875 7.515625 27.59375 7.515625 
L 36.8125 7.515625 
L 36.8125 0 
L 27.59375 0 
Q 17.1875 0 13.234375 3.875 
Q 9.28125 7.765625 9.28125 18.015625 
L 9.28125 47.703125 
L 2.6875 47.703125 
L 2.6875 54.6875 
L 9.28125 54.6875 
L 9.28125 70.21875 
z
" id="DejaVuSans-116"/>
     <path id="DejaVuSans-32"/>
     <path d="M 10.59375 45.40625 
L 73.1875 45.40625 
L 73.1875 37.203125 
L 10.59375 37.203125 
z
M 10.59375 25.484375 
L 73.1875 25.484375 
L 73.1875 17.1875 
L 10.59375 17.1875 
z
" id="DejaVuSans-61"/>
     <path d="M 19.1875 8.296875 
L 53.609375 8.296875 
L 53.609375 0 
L 7.328125 0 
L 7.328125 8.296875 
Q 12.9375 14.109375 22.625 23.890625 
Q 32.328125 33.6875 34.8125 36.53125 
Q 39.546875 41.84375 41.421875 45.53125 
Q 43.3125 49.21875 43.3125 52.78125 
Q 43.3125 58.59375 39.234375 62.25 
Q 35.15625 65.921875 28.609375 65.921875 
Q 23.96875 65.921875 18.8125 64.3125 
Q 13.671875 62.703125 7.8125 59.421875 
L 7.8125 69.390625 
Q 13.765625 71.78125 18.9375 73 
Q 24.125 74.21875 28.421875 74.21875 
Q 39.75 74.21875 46.484375 68.546875 
Q 53.21875 62.890625 53.21875 53.421875 
Q 53.21875 48.921875 51.53125 44.890625 
Q 49.859375 40.875 45.40625 35.40625 
Q 44.1875 33.984375 37.640625 27.21875 
Q 31.109375 20.453125 19.1875 8.296875 
z
" id="DejaVuSans-50"/>
     <path d="M 10.6875 12.40625 
L 21 12.40625 
L 21 0 
L 10.6875 0 
z
" id="DejaVuSans-46"/>
     <path d="M 8.203125 72.90625 
L 55.078125 72.90625 
L 55.078125 68.703125 
L 28.609375 0 
L 18.3125 0 
L 43.21875 64.59375 
L 8.203125 64.59375 
z
" id="DejaVuSans-55"/>
    </defs>
    <g transform="translate(215.424375 49.296)scale(0.12 -0.12)">
     <use xlink:href="#DejaVuSans-116"/>
     <use x="39.208984" xlink:href="#DejaVuSans-32"/>
     <use x="70.996094" xlink:href="#DejaVuSans-61"/>
     <use x="154.785156" xlink:href="#DejaVuSans-32"/>
     <use x="186.572266" xlink:href="#DejaVuSans-50"/>
     <use x="250.195312" xlink:href="#DejaVuSans-46"/>
     <use x="281.982422" xlink:href="#DejaVuSans-55"/>
    </g>
   </g>
  </g>
 </g>
 <defs>
  <clipPath id="pc8cb4f2684">
   <rect height="354.816" width="357.12" x="57.6" y="55.296"/>
  </clipPath>
 </defs>
</svg>
