<?xml version="1.0" encoding="utf-8" standalone="no"?>
<!DOCTYPE svg PUBLIC "-//W3C//DTD SVG 1.1//EN"
  "http://www.w3.org/Graphics/SVG/1.1/DTD/svg11.dtd">
<!-- Created with matplotlib (https://matplotlib.org/) -->
<svg height="460.8pt" version="1.1" viewBox="0 0 460.8 460.8" width="460.8pt" xmlns="http://www.w3.org/2000/svg" xmlns:xlink="http://www.w3.org/1999/xlink">
 <defs>
  <style type="text/css">
*{stroke-linecap:butt;stroke-linejoin:round;}
  </style>
 </defs>
 <g id="figure_1">
  <g id="patch_1">
   <path d="M 0 460.8 
L 460.8 460.8 
L 460.8 0 
L 0 0 
z
" style="fill:#ffffff;"/>
  </g>
  <g id="axes_1">
   <g id="patch_2">
    <path clip-path="url(#p18716a4bc2)" d="M 311.97544 333.31797 
L 312.793989 334.416597 
L 314.094238 335.656266 
L 315.362169 336.248285 
L 317.074697 336.692508 
L 318.481576 336.632973 
L 320.187097 336.172987 
L 321.388471 335.476474 
L 322.669413 334.224901 
L 323.371144 333.061941 
L 323.913888 331.325209 
L 323.944168 329.980535 
L 323.615831 328.183857 
L 322.967246 326.986691 
L 321.848217 325.569956 
L 320.679563 324.813408 
L 319.04382 324.123483 
L 317.641224 323.992781 
L 315.889253 324.198582 
L 314.59612 324.725727 
L 313.156864 325.776868 
L 312.059875 327.203823 
L 311.537523 328.450539 
L 311.237058 330.250117 
L 311.405816 331.586368 
L 311.405816 331.586368 
L 311.405816 331.586368 
L 311.405816 331.586368 
L 311.405816 331.586368 
L 311.405816 331.586368 
L 311.405816 331.586368 
L 311.405816 331.586368 
L 311.405816 331.586368 
L 311.405816 331.586368 
L 311.405816 331.586368 
L 311.405816 331.586368 
L 311.405816 331.586368 
L 311.405816 331.586368 
L 311.405816 331.586368 
L 311.405816 331.586368 
L 311.405816 331.586368 
L 311.405816 331.586368 
L 311.405816 331.586368 
L 311.405816 331.586368 
L 311.405816 331.586368 
L 311.405816 331.586368 
L 311.405816 331.586368 
L 311.405816 331.586368 
L 311.405816 331.586368 
L 311.405816 331.586368 
L 311.405816 331.586368 
L 311.405816 331.586368 
L 311.405816 331.586368 
L 311.405816 331.586368 
L 311.405816 331.586368 
L 311.405816 331.586368 
L 311.405816 331.586368 
L 311.405816 331.586368 
L 311.405816 331.586368 
L 311.405816 331.586368 
L 311.405816 331.586368 
L 311.405816 331.586368 
L 311.405816 331.586368 
L 311.405816 331.586368 
L 311.405816 331.586368 
L 311.405816 331.586368 
L 311.405816 331.586368 
L 311.405816 331.586368 
L 311.405816 331.586368 
L 311.405816 331.586368 
L 311.405816 331.586368 
L 311.405816 331.586368 
L 311.405816 331.586368 
L 311.405816 331.586368 
L 311.405816 331.586368 
L 311.405816 331.586368 
L 311.405816 331.586368 
L 311.405816 331.586368 
L 311.405816 331.586368 
L 311.405816 331.586368 
L 311.405816 331.586368 
L 311.405816 331.586368 
L 311.405816 331.586368 
L 311.405816 331.586368 
L 311.405816 331.586368 
L 311.405816 331.586368 
L 311.405816 331.586368 
L 311.405816 331.586368 
L 311.405816 331.586368 
L 311.405816 331.586368 
L 311.405816 331.586368 
L 311.405816 331.586368 
L 311.405816 331.586368 
L 311.405816 331.586368 
L 311.405816 331.586368 
L 311.405816 331.586368 
L 311.405816 331.586368 
L 311.405816 331.586368 
L 311.405816 331.586368 
L 311.405816 331.586368 
L 311.405816 331.586368 
L 311.405816 331.586368 
L 311.405816 331.586368 
L 311.405816 331.586368 
L 311.405816 331.586368 
L 311.405816 331.586368 
L 311.405816 331.586368 
L 311.405816 331.586368 
L 311.405816 331.586368 
L 311.405816 331.586368 
L 311.405816 331.586368 
L 311.405816 331.586368 
L 311.405816 331.586368 
L 311.405816 331.586368 
L 311.405816 331.586368 
L 311.405816 331.586368 
L 311.405816 331.586368 
L 311.405816 331.586368 
L 311.405816 331.586368 
L 311.405816 331.586368 
L 311.405816 331.586368 
L 311.405816 331.586368 
L 311.405816 331.586368 
L 311.405816 331.586368 
L 311.405816 331.586368 
L 311.405816 331.586368 
L 311.405816 331.586368 
L 311.405816 331.586368 
L 311.405816 331.586368 
L 311.405816 331.586368 
L 311.405816 331.586368 
L 311.405816 331.586368 
L 311.405816 331.586368 
L 311.405816 331.586368 
L 311.405816 331.586368 
L 311.405816 331.586368 
L 311.405816 331.586368 
L 311.405816 331.586368 
L 311.405816 331.586368 
L 311.405816 331.586368 
L 311.405816 331.586368 
L 311.405816 331.586368 
L 311.405816 331.586368 
L 311.405816 331.586368 
L 311.405816 331.586368 
L 311.405816 331.586368 
L 311.405816 331.586368 
L 311.405816 331.586368 
L 311.405816 331.586368 
L 311.405816 331.586368 
L 311.405816 331.586368 
L 311.405816 331.586368 
L 311.405816 331.586368 
L 311.405816 331.586368 
L 311.405816 331.586368 
L 311.405816 331.586368 
L 311.405816 331.586368 
L 311.405816 331.586368 
L 311.405816 331.586368 
L 311.405816 331.586368 
L 311.405816 331.586368 
L 311.405816 331.586368 
L 311.405816 331.586368 
L 311.405816 331.586368 
L 311.405816 331.586368 
L 311.405816 331.586368 
L 311.405816 331.586368 
L 311.405816 331.586368 
L 311.405816 331.586368 
z
" style="fill:#993333;stroke:#000000;stroke-linejoin:miter;"/>
   </g>
   <g id="patch_3">
    <path clip-path="url(#p18716a4bc2)" d="M 273.502436 284.279434 
L 272.592853 285.168164 
L 317.16014 330.781232 
L 318.069724 329.892502 
L 318.069724 329.892502 
L 318.069724 329.892502 
L 318.069724 329.892502 
L 318.069724 329.892502 
L 318.069724 329.892502 
L 318.069724 329.892502 
L 318.069724 329.892502 
L 318.069724 329.892502 
L 318.069724 329.892502 
L 318.069724 329.892502 
L 318.069724 329.892502 
L 318.069724 329.892502 
L 318.069724 329.892502 
L 318.069724 329.892502 
L 318.069724 329.892502 
L 318.069724 329.892502 
L 318.069724 329.892502 
L 318.069724 329.892502 
L 318.069724 329.892502 
L 318.069724 329.892502 
L 318.069724 329.892502 
L 318.069724 329.892502 
L 318.069724 329.892502 
L 318.069724 329.892502 
L 318.069724 329.892502 
L 318.069724 329.892502 
L 318.069724 329.892502 
L 318.069724 329.892502 
L 318.069724 329.892502 
L 318.069724 329.892502 
L 318.069724 329.892502 
L 318.069724 329.892502 
L 318.069724 329.892502 
L 318.069724 329.892502 
L 318.069724 329.892502 
L 318.069724 329.892502 
L 318.069724 329.892502 
L 318.069724 329.892502 
L 318.069724 329.892502 
L 318.069724 329.892502 
L 318.069724 329.892502 
L 318.069724 329.892502 
L 318.069724 329.892502 
L 318.069724 329.892502 
L 318.069724 329.892502 
L 318.069724 329.892502 
L 318.069724 329.892502 
L 318.069724 329.892502 
z
" style="stroke:#000000;stroke-linejoin:miter;"/>
   </g>
   <g id="patch_4">
    <path clip-path="url(#p18716a4bc2)" d="M 266.761986 283.641006 
L 266.719712 284.987208 
L 267.01155 286.786582 
L 267.648232 287.999693 
L 268.738633 289.427438 
L 269.89839 290.210445 
L 271.520385 290.916998 
L 272.919267 291.078195 
L 274.675735 290.890568 
L 275.971247 290.390488 
L 277.432144 289.354618 
L 278.3071 288.315697 
L 279.114747 286.685202 
L 279.354927 285.361805 
L 279.311583 283.535887 
L 278.858183 282.252027 
L 277.974462 280.677734 
L 276.938489 279.747745 
L 275.430755 278.810519 
L 274.065853 278.462095 
L 272.303252 278.391401 
L 270.943596 278.709848 
L 269.357675 279.522996 
L 268.051042 280.760855 
L 267.340162 281.910551 
L 267.340162 281.910551 
L 267.340162 281.910551 
L 267.340162 281.910551 
L 267.340162 281.910551 
L 267.340162 281.910551 
L 267.340162 281.910551 
L 267.340162 281.910551 
L 267.340162 281.910551 
L 267.340162 281.910551 
L 267.340162 281.910551 
L 267.340162 281.910551 
L 267.340162 281.910551 
L 267.340162 281.910551 
L 267.340162 281.910551 
L 267.340162 281.910551 
L 267.340162 281.910551 
L 267.340162 281.910551 
L 267.340162 281.910551 
L 267.340162 281.910551 
L 267.340162 281.910551 
L 267.340162 281.910551 
L 267.340162 281.910551 
L 267.340162 281.910551 
L 267.340162 281.910551 
L 267.340162 281.910551 
L 267.340162 281.910551 
L 267.340162 281.910551 
L 267.340162 281.910551 
L 267.340162 281.910551 
L 267.340162 281.910551 
L 267.340162 281.910551 
L 267.340162 281.910551 
L 267.340162 281.910551 
L 267.340162 281.910551 
L 267.340162 281.910551 
L 267.340162 281.910551 
L 267.340162 281.910551 
L 267.340162 281.910551 
L 267.340162 281.910551 
L 267.340162 281.910551 
L 267.340162 281.910551 
L 267.340162 281.910551 
L 267.340162 281.910551 
L 267.340162 281.910551 
L 267.340162 281.910551 
L 267.340162 281.910551 
L 267.340162 281.910551 
L 267.340162 281.910551 
L 267.340162 281.910551 
L 267.340162 281.910551 
L 267.340162 281.910551 
L 267.340162 281.910551 
L 267.340162 281.910551 
L 267.340162 281.910551 
L 267.340162 281.910551 
L 267.340162 281.910551 
L 267.340162 281.910551 
L 267.340162 281.910551 
L 267.340162 281.910551 
L 267.340162 281.910551 
L 267.340162 281.910551 
L 267.340162 281.910551 
L 267.340162 281.910551 
L 267.340162 281.910551 
L 267.340162 281.910551 
L 267.340162 281.910551 
L 267.340162 281.910551 
L 267.340162 281.910551 
L 267.340162 281.910551 
L 267.340162 281.910551 
L 267.340162 281.910551 
L 267.340162 281.910551 
L 267.340162 281.910551 
L 267.340162 281.910551 
L 267.340162 281.910551 
L 267.340162 281.910551 
L 267.340162 281.910551 
L 267.340162 281.910551 
L 267.340162 281.910551 
L 267.340162 281.910551 
L 267.340162 281.910551 
L 267.340162 281.910551 
L 267.340162 281.910551 
L 267.340162 281.910551 
L 267.340162 281.910551 
L 267.340162 281.910551 
L 267.340162 281.910551 
L 267.340162 281.910551 
L 267.340162 281.910551 
L 267.340162 281.910551 
L 267.340162 281.910551 
L 267.340162 281.910551 
L 267.340162 281.910551 
L 267.340162 281.910551 
L 267.340162 281.910551 
L 267.340162 281.910551 
L 267.340162 281.910551 
L 267.340162 281.910551 
L 267.340162 281.910551 
L 267.340162 281.910551 
L 267.340162 281.910551 
L 267.340162 281.910551 
L 267.340162 281.910551 
L 267.340162 281.910551 
L 267.340162 281.910551 
L 267.340162 281.910551 
L 267.340162 281.910551 
L 267.340162 281.910551 
L 267.340162 281.910551 
L 267.340162 281.910551 
L 267.340162 281.910551 
L 267.340162 281.910551 
L 267.340162 281.910551 
L 267.340162 281.910551 
L 267.340162 281.910551 
L 267.340162 281.910551 
L 267.340162 281.910551 
L 267.340162 281.910551 
L 267.340162 281.910551 
L 267.340162 281.910551 
L 267.340162 281.910551 
L 267.340162 281.910551 
L 267.340162 281.910551 
L 267.340162 281.910551 
L 267.340162 281.910551 
L 267.340162 281.910551 
L 267.340162 281.910551 
L 267.340162 281.910551 
L 267.340162 281.910551 
L 267.340162 281.910551 
L 267.340162 281.910551 
L 267.340162 281.910551 
L 267.340162 281.910551 
L 267.340162 281.910551 
L 267.340162 281.910551 
L 267.340162 281.910551 
L 267.340162 281.910551 
L 267.340162 281.910551 
L 267.340162 281.910551 
L 267.340162 281.910551 
L 267.340162 281.910551 
L 267.340162 281.910551 
L 267.340162 281.910551 
L 267.340162 281.910551 
z
" style="fill:#993333;stroke:#000000;stroke-linejoin:miter;"/>
   </g>
   <g id="patch_5">
    <path clip-path="url(#p18716a4bc2)" d="M 235.642843 233.070698 
L 272.529148 285.091805 
L 273.566517 284.356244 
L 236.680211 232.335137 
L 236.680211 232.335137 
L 236.680211 232.335137 
L 236.680211 232.335137 
L 236.680211 232.335137 
L 236.680211 232.335137 
L 236.680211 232.335137 
L 236.680211 232.335137 
L 236.680211 232.335137 
L 236.680211 232.335137 
L 236.680211 232.335137 
L 236.680211 232.335137 
L 236.680211 232.335137 
L 236.680211 232.335137 
L 236.680211 232.335137 
L 236.680211 232.335137 
L 236.680211 232.335137 
L 236.680211 232.335137 
L 236.680211 232.335137 
L 236.680211 232.335137 
L 236.680211 232.335137 
L 236.680211 232.335137 
L 236.680211 232.335137 
L 236.680211 232.335137 
L 236.680211 232.335137 
L 236.680211 232.335137 
L 236.680211 232.335137 
L 236.680211 232.335137 
L 236.680211 232.335137 
L 236.680211 232.335137 
L 236.680211 232.335137 
L 236.680211 232.335137 
L 236.680211 232.335137 
L 236.680211 232.335137 
L 236.680211 232.335137 
L 236.680211 232.335137 
L 236.680211 232.335137 
L 236.680211 232.335137 
L 236.680211 232.335137 
L 236.680211 232.335137 
L 236.680211 232.335137 
L 236.680211 232.335137 
L 236.680211 232.335137 
L 236.680211 232.335137 
L 236.680211 232.335137 
L 236.680211 232.335137 
L 236.680211 232.335137 
L 236.680211 232.335137 
L 236.680211 232.335137 
z
" style="stroke:#000000;stroke-linejoin:miter;"/>
   </g>
   <g id="text_1">
    <!-- t = 1.0 -->
    <defs>
     <path d="M 18.3125 70.21875 
L 18.3125 54.6875 
L 36.8125 54.6875 
L 36.8125 47.703125 
L 18.3125 47.703125 
L 18.3125 18.015625 
Q 18.3125 11.328125 20.140625 9.421875 
Q 21.96875 7.515625 27.59375 7.515625 
L 36.8125 7.515625 
L 36.8125 0 
L 27.59375 0 
Q 17.1875 0 13.234375 3.875 
Q 9.28125 7.765625 9.28125 18.015625 
L 9.28125 47.703125 
L 2.6875 47.703125 
L 2.6875 54.6875 
L 9.28125 54.6875 
L 9.28125 70.21875 
z
" id="DejaVuSans-116"/>
     <path id="DejaVuSans-32"/>
     <path d="M 10.59375 45.40625 
L 73.1875 45.40625 
L 73.1875 37.203125 
L 10.59375 37.203125 
z
M 10.59375 25.484375 
L 73.1875 25.484375 
L 73.1875 17.1875 
L 10.59375 17.1875 
z
" id="DejaVuSans-61"/>
     <path d="M 12.40625 8.296875 
L 28.515625 8.296875 
L 28.515625 63.921875 
L 10.984375 60.40625 
L 10.984375 69.390625 
L 28.421875 72.90625 
L 38.28125 72.90625 
L 38.28125 8.296875 
L 54.390625 8.296875 
L 54.390625 0 
L 12.40625 0 
z
" id="DejaVuSans-49"/>
     <path d="M 10.6875 12.40625 
L 21 12.40625 
L 21 0 
L 10.6875 0 
z
" id="DejaVuSans-46"/>
     <path d="M 31.78125 66.40625 
Q 24.171875 66.40625 20.328125 58.90625 
Q 16.5 51.421875 16.5 36.375 
Q 16.5 21.390625 20.328125 13.890625 
Q 24.171875 6.390625 31.78125 6.390625 
Q 39.453125 6.390625 43.28125 13.890625 
Q 47.125 21.390625 47.125 36.375 
Q 47.125 51.421875 43.28125 58.90625 
Q 39.453125 66.40625 31.78125 66.40625 
z
M 31.78125 74.21875 
Q 44.046875 74.21875 50.515625 64.515625 
Q 56.984375 54.828125 56.984375 36.375 
Q 56.984375 17.96875 50.515625 8.265625 
Q 44.046875 -1.421875 31.78125 -1.421875 
Q 19.53125 -1.421875 13.0625 8.265625 
Q 6.59375 17.96875 6.59375 36.375 
Q 6.59375 54.828125 13.0625 64.515625 
Q 19.53125 74.21875 31.78125 74.21875 
z
" id="DejaVuSans-48"/>
    </defs>
    <g transform="translate(215.424375 49.296)scale(0.12 -0.12)">
     <use xlink:href="#DejaVuSans-116"/>
     <use x="39.208984" xlink:href="#DejaVuSans-32"/>
     <use x="70.996094" xlink:href="#DejaVuSans-61"/>
     <use x="154.785156" xlink:href="#DejaVuSans-32"/>
     <use x="186.572266" xlink:href="#DejaVuSans-49"/>
     <use x="250.195312" xlink:href="#DejaVuSans-46"/>
     <use x="281.982422" xlink:href="#DejaVuSans-48"/>
    </g>
   </g>
  </g>
 </g>
 <defs>
  <clipPath id="p18716a4bc2">
   <rect height="354.816" width="357.12" x="57.6" y="55.296"/>
  </clipPath>
 </defs>
</svg>
