<?xml version="1.0" encoding="utf-8" standalone="no"?>
<!DOCTYPE svg PUBLIC "-//W3C//DTD SVG 1.1//EN"
  "http://www.w3.org/Graphics/SVG/1.1/DTD/svg11.dtd">
<!-- Created with matplotlib (https://matplotlib.org/) -->
<svg height="460.8pt" version="1.1" viewBox="0 0 460.8 460.8" width="460.8pt" xmlns="http://www.w3.org/2000/svg" xmlns:xlink="http://www.w3.org/1999/xlink">
 <defs>
  <style type="text/css">
*{stroke-linecap:butt;stroke-linejoin:round;}
  </style>
 </defs>
 <g id="figure_1">
  <g id="patch_1">
   <path d="M 0 460.8 
L 460.8 460.8 
L 460.8 0 
L 0 0 
z
" style="fill:#ffffff;"/>
  </g>
  <g id="axes_1">
   <g id="patch_2">
    <path clip-path="url(#p29e471b8b3)" d="M 114.5808 279.321069 
L 113.532953 280.746587 
L 113.066305 282.075155 
L 112.86074 283.829615 
L 113.061854 285.203654 
L 113.7489 286.857503 
L 114.568536 287.9406 
L 115.979981 289.088917 
L 117.217463 289.615893 
L 119.007735 289.977531 
L 120.360085 289.819363 
L 122.090864 289.30578 
L 123.226979 288.501193 
L 124.47451 287.238132 
L 125.116229 285.984117 
L 125.575072 284.28082 
L 125.565281 282.884404 
L 125.123096 281.157897 
L 124.20494 279.609809 
L 123.240978 278.662218 
L 121.68129 277.715575 
L 120.377789 277.376558 
L 118.558434 277.263131 
L 117.234537 277.615691 
L 115.600957 278.363251 
L 115.600957 278.363251 
L 115.600957 278.363251 
L 115.600957 278.363251 
L 115.600957 278.363251 
L 115.600957 278.363251 
L 115.600957 278.363251 
L 115.600957 278.363251 
L 115.600957 278.363251 
L 115.600957 278.363251 
L 115.600957 278.363251 
L 115.600957 278.363251 
L 115.600957 278.363251 
L 115.600957 278.363251 
L 115.600957 278.363251 
L 115.600957 278.363251 
L 115.600957 278.363251 
L 115.600957 278.363251 
L 115.600957 278.363251 
L 115.600957 278.363251 
L 115.600957 278.363251 
L 115.600957 278.363251 
L 115.600957 278.363251 
L 115.600957 278.363251 
L 115.600957 278.363251 
L 115.600957 278.363251 
L 115.600957 278.363251 
L 115.600957 278.363251 
L 115.600957 278.363251 
L 115.600957 278.363251 
L 115.600957 278.363251 
L 115.600957 278.363251 
L 115.600957 278.363251 
L 115.600957 278.363251 
L 115.600957 278.363251 
L 115.600957 278.363251 
L 115.600957 278.363251 
L 115.600957 278.363251 
L 115.600957 278.363251 
L 115.600957 278.363251 
L 115.600957 278.363251 
L 115.600957 278.363251 
L 115.600957 278.363251 
L 115.600957 278.363251 
L 115.600957 278.363251 
L 115.600957 278.363251 
L 115.600957 278.363251 
L 115.600957 278.363251 
L 115.600957 278.363251 
L 115.600957 278.363251 
L 115.600957 278.363251 
L 115.600957 278.363251 
L 115.600957 278.363251 
L 115.600957 278.363251 
L 115.600957 278.363251 
L 115.600957 278.363251 
L 115.600957 278.363251 
L 115.600957 278.363251 
L 115.600957 278.363251 
L 115.600957 278.363251 
L 115.600957 278.363251 
L 115.600957 278.363251 
L 115.600957 278.363251 
L 115.600957 278.363251 
L 115.600957 278.363251 
L 115.600957 278.363251 
L 115.600957 278.363251 
L 115.600957 278.363251 
L 115.600957 278.363251 
L 115.600957 278.363251 
L 115.600957 278.363251 
L 115.600957 278.363251 
L 115.600957 278.363251 
L 115.600957 278.363251 
L 115.600957 278.363251 
L 115.600957 278.363251 
L 115.600957 278.363251 
L 115.600957 278.363251 
L 115.600957 278.363251 
L 115.600957 278.363251 
L 115.600957 278.363251 
L 115.600957 278.363251 
L 115.600957 278.363251 
L 115.600957 278.363251 
L 115.600957 278.363251 
L 115.600957 278.363251 
L 115.600957 278.363251 
L 115.600957 278.363251 
L 115.600957 278.363251 
L 115.600957 278.363251 
L 115.600957 278.363251 
L 115.600957 278.363251 
L 115.600957 278.363251 
L 115.600957 278.363251 
L 115.600957 278.363251 
L 115.600957 278.363251 
L 115.600957 278.363251 
L 115.600957 278.363251 
L 115.600957 278.363251 
L 115.600957 278.363251 
L 115.600957 278.363251 
L 115.600957 278.363251 
L 115.600957 278.363251 
L 115.600957 278.363251 
L 115.600957 278.363251 
L 115.600957 278.363251 
L 115.600957 278.363251 
L 115.600957 278.363251 
L 115.600957 278.363251 
L 115.600957 278.363251 
L 115.600957 278.363251 
L 115.600957 278.363251 
L 115.600957 278.363251 
L 115.600957 278.363251 
L 115.600957 278.363251 
L 115.600957 278.363251 
L 115.600957 278.363251 
L 115.600957 278.363251 
L 115.600957 278.363251 
L 115.600957 278.363251 
L 115.600957 278.363251 
L 115.600957 278.363251 
L 115.600957 278.363251 
L 115.600957 278.363251 
L 115.600957 278.363251 
L 115.600957 278.363251 
L 115.600957 278.363251 
L 115.600957 278.363251 
L 115.600957 278.363251 
L 115.600957 278.363251 
L 115.600957 278.363251 
L 115.600957 278.363251 
L 115.600957 278.363251 
L 115.600957 278.363251 
L 115.600957 278.363251 
L 115.600957 278.363251 
L 115.600957 278.363251 
L 115.600957 278.363251 
L 115.600957 278.363251 
L 115.600957 278.363251 
L 115.600957 278.363251 
L 115.600957 278.363251 
L 115.600957 278.363251 
L 115.600957 278.363251 
L 115.600957 278.363251 
z
" style="fill:#993333;stroke:#000000;stroke-linejoin:miter;"/>
   </g>
   <g id="patch_3">
    <path clip-path="url(#p29e471b8b3)" d="M 118.990691 283.018938 
L 119.478555 284.193319 
L 178.370467 259.728287 
L 177.882603 258.553906 
L 177.882603 258.553906 
L 177.882603 258.553906 
L 177.882603 258.553906 
L 177.882603 258.553906 
L 177.882603 258.553906 
L 177.882603 258.553906 
L 177.882603 258.553906 
L 177.882603 258.553906 
L 177.882603 258.553906 
L 177.882603 258.553906 
L 177.882603 258.553906 
L 177.882603 258.553906 
L 177.882603 258.553906 
L 177.882603 258.553906 
L 177.882603 258.553906 
L 177.882603 258.553906 
L 177.882603 258.553906 
L 177.882603 258.553906 
L 177.882603 258.553906 
L 177.882603 258.553906 
L 177.882603 258.553906 
L 177.882603 258.553906 
L 177.882603 258.553906 
L 177.882603 258.553906 
L 177.882603 258.553906 
L 177.882603 258.553906 
L 177.882603 258.553906 
L 177.882603 258.553906 
L 177.882603 258.553906 
L 177.882603 258.553906 
L 177.882603 258.553906 
L 177.882603 258.553906 
L 177.882603 258.553906 
L 177.882603 258.553906 
L 177.882603 258.553906 
L 177.882603 258.553906 
L 177.882603 258.553906 
L 177.882603 258.553906 
L 177.882603 258.553906 
L 177.882603 258.553906 
L 177.882603 258.553906 
L 177.882603 258.553906 
L 177.882603 258.553906 
L 177.882603 258.553906 
L 177.882603 258.553906 
L 177.882603 258.553906 
L 177.882603 258.553906 
L 177.882603 258.553906 
z
" style="stroke:#000000;stroke-linejoin:miter;"/>
   </g>
   <g id="patch_4">
    <path clip-path="url(#p29e471b8b3)" d="M 173.331037 255.015244 
L 172.331814 256.475257 
L 171.910195 257.818794 
L 171.763858 259.579184 
L 172.011153 260.945667 
L 172.753532 262.575428 
L 173.609195 263.630295 
L 175.058528 264.730405 
L 176.313063 265.215387 
L 178.114504 265.516501 
L 179.460757 265.312858 
L 181.173249 264.741252 
L 182.28161 263.898843 
L 183.485877 262.594467 
L 184.084981 261.319543 
L 184.486175 259.601753 
L 184.42934 258.206459 
L 183.929235 256.495831 
L 182.959441 254.979557 
L 181.9641 254.064983 
L 180.373402 253.171427 
L 179.059219 252.876521 
L 177.237075 252.824458 
L 175.925808 253.221423 
L 174.318344 254.023598 
L 174.318344 254.023598 
L 174.318344 254.023598 
L 174.318344 254.023598 
L 174.318344 254.023598 
L 174.318344 254.023598 
L 174.318344 254.023598 
L 174.318344 254.023598 
L 174.318344 254.023598 
L 174.318344 254.023598 
L 174.318344 254.023598 
L 174.318344 254.023598 
L 174.318344 254.023598 
L 174.318344 254.023598 
L 174.318344 254.023598 
L 174.318344 254.023598 
L 174.318344 254.023598 
L 174.318344 254.023598 
L 174.318344 254.023598 
L 174.318344 254.023598 
L 174.318344 254.023598 
L 174.318344 254.023598 
L 174.318344 254.023598 
L 174.318344 254.023598 
L 174.318344 254.023598 
L 174.318344 254.023598 
L 174.318344 254.023598 
L 174.318344 254.023598 
L 174.318344 254.023598 
L 174.318344 254.023598 
L 174.318344 254.023598 
L 174.318344 254.023598 
L 174.318344 254.023598 
L 174.318344 254.023598 
L 174.318344 254.023598 
L 174.318344 254.023598 
L 174.318344 254.023598 
L 174.318344 254.023598 
L 174.318344 254.023598 
L 174.318344 254.023598 
L 174.318344 254.023598 
L 174.318344 254.023598 
L 174.318344 254.023598 
L 174.318344 254.023598 
L 174.318344 254.023598 
L 174.318344 254.023598 
L 174.318344 254.023598 
L 174.318344 254.023598 
L 174.318344 254.023598 
L 174.318344 254.023598 
L 174.318344 254.023598 
L 174.318344 254.023598 
L 174.318344 254.023598 
L 174.318344 254.023598 
L 174.318344 254.023598 
L 174.318344 254.023598 
L 174.318344 254.023598 
L 174.318344 254.023598 
L 174.318344 254.023598 
L 174.318344 254.023598 
L 174.318344 254.023598 
L 174.318344 254.023598 
L 174.318344 254.023598 
L 174.318344 254.023598 
L 174.318344 254.023598 
L 174.318344 254.023598 
L 174.318344 254.023598 
L 174.318344 254.023598 
L 174.318344 254.023598 
L 174.318344 254.023598 
L 174.318344 254.023598 
L 174.318344 254.023598 
L 174.318344 254.023598 
L 174.318344 254.023598 
L 174.318344 254.023598 
L 174.318344 254.023598 
L 174.318344 254.023598 
L 174.318344 254.023598 
L 174.318344 254.023598 
L 174.318344 254.023598 
L 174.318344 254.023598 
L 174.318344 254.023598 
L 174.318344 254.023598 
L 174.318344 254.023598 
L 174.318344 254.023598 
L 174.318344 254.023598 
L 174.318344 254.023598 
L 174.318344 254.023598 
L 174.318344 254.023598 
L 174.318344 254.023598 
L 174.318344 254.023598 
L 174.318344 254.023598 
L 174.318344 254.023598 
L 174.318344 254.023598 
L 174.318344 254.023598 
L 174.318344 254.023598 
L 174.318344 254.023598 
L 174.318344 254.023598 
L 174.318344 254.023598 
L 174.318344 254.023598 
L 174.318344 254.023598 
L 174.318344 254.023598 
L 174.318344 254.023598 
L 174.318344 254.023598 
L 174.318344 254.023598 
L 174.318344 254.023598 
L 174.318344 254.023598 
L 174.318344 254.023598 
L 174.318344 254.023598 
L 174.318344 254.023598 
L 174.318344 254.023598 
L 174.318344 254.023598 
L 174.318344 254.023598 
L 174.318344 254.023598 
L 174.318344 254.023598 
L 174.318344 254.023598 
L 174.318344 254.023598 
L 174.318344 254.023598 
L 174.318344 254.023598 
L 174.318344 254.023598 
L 174.318344 254.023598 
L 174.318344 254.023598 
L 174.318344 254.023598 
L 174.318344 254.023598 
L 174.318344 254.023598 
L 174.318344 254.023598 
L 174.318344 254.023598 
L 174.318344 254.023598 
L 174.318344 254.023598 
L 174.318344 254.023598 
L 174.318344 254.023598 
L 174.318344 254.023598 
L 174.318344 254.023598 
L 174.318344 254.023598 
L 174.318344 254.023598 
L 174.318344 254.023598 
L 174.318344 254.023598 
L 174.318344 254.023598 
L 174.318344 254.023598 
L 174.318344 254.023598 
L 174.318344 254.023598 
L 174.318344 254.023598 
L 174.318344 254.023598 
L 174.318344 254.023598 
L 174.318344 254.023598 
z
" style="fill:#993333;stroke:#000000;stroke-linejoin:miter;"/>
   </g>
   <g id="patch_5">
    <path clip-path="url(#p29e471b8b3)" d="M 235.897198 232.127065 
L 177.863015 258.562433 
L 178.39017 259.71971 
L 236.424354 233.284342 
L 236.424354 233.284342 
L 236.424354 233.284342 
L 236.424354 233.284342 
L 236.424354 233.284342 
L 236.424354 233.284342 
L 236.424354 233.284342 
L 236.424354 233.284342 
L 236.424354 233.284342 
L 236.424354 233.284342 
L 236.424354 233.284342 
L 236.424354 233.284342 
L 236.424354 233.284342 
L 236.424354 233.284342 
L 236.424354 233.284342 
L 236.424354 233.284342 
L 236.424354 233.284342 
L 236.424354 233.284342 
L 236.424354 233.284342 
L 236.424354 233.284342 
L 236.424354 233.284342 
L 236.424354 233.284342 
L 236.424354 233.284342 
L 236.424354 233.284342 
L 236.424354 233.284342 
L 236.424354 233.284342 
L 236.424354 233.284342 
L 236.424354 233.284342 
L 236.424354 233.284342 
L 236.424354 233.284342 
L 236.424354 233.284342 
L 236.424354 233.284342 
L 236.424354 233.284342 
L 236.424354 233.284342 
L 236.424354 233.284342 
L 236.424354 233.284342 
L 236.424354 233.284342 
L 236.424354 233.284342 
L 236.424354 233.284342 
L 236.424354 233.284342 
L 236.424354 233.284342 
L 236.424354 233.284342 
L 236.424354 233.284342 
L 236.424354 233.284342 
L 236.424354 233.284342 
L 236.424354 233.284342 
L 236.424354 233.284342 
L 236.424354 233.284342 
L 236.424354 233.284342 
z
" style="stroke:#000000;stroke-linejoin:miter;"/>
   </g>
   <g id="text_1">
    <!-- t = 2.7 -->
    <defs>
     <path d="M 18.3125 70.21875 
L 18.3125 54.6875 
L 36.8125 54.6875 
L 36.8125 47.703125 
L 18.3125 47.703125 
L 18.3125 18.015625 
Q 18.3125 11.328125 20.140625 9.421875 
Q 21.96875 7.515625 27.59375 7.515625 
L 36.8125 7.515625 
L 36.8125 0 
L 27.59375 0 
Q 17.1875 0 13.234375 3.875 
Q 9.28125 7.765625 9.28125 18.015625 
L 9.28125 47.703125 
L 2.6875 47.703125 
L 2.6875 54.6875 
L 9.28125 54.6875 
L 9.28125 70.21875 
z
" id="DejaVuSans-116"/>
     <path id="DejaVuSans-32"/>
     <path d="M 10.59375 45.40625 
L 73.1875 45.40625 
L 73.1875 37.203125 
L 10.59375 37.203125 
z
M 10.59375 25.484375 
L 73.1875 25.484375 
L 73.1875 17.1875 
L 10.59375 17.1875 
z
" id="DejaVuSans-61"/>
     <path d="M 19.1875 8.296875 
L 53.609375 8.296875 
L 53.609375 0 
L 7.328125 0 
L 7.328125 8.296875 
Q 12.9375 14.109375 22.625 23.890625 
Q 32.328125 33.6875 34.8125 36.53125 
Q 39.546875 41.84375 41.421875 45.53125 
Q 43.3125 49.21875 43.3125 52.78125 
Q 43.3125 58.59375 39.234375 62.25 
Q 35.15625 65.921875 28.609375 65.921875 
Q 23.96875 65.921875 18.8125 64.3125 
Q 13.671875 62.703125 7.8125 59.421875 
L 7.8125 69.390625 
Q 13.765625 71.78125 18.9375 73 
Q 24.125 74.21875 28.421875 74.21875 
Q 39.75 74.21875 46.484375 68.546875 
Q 53.21875 62.890625 53.21875 53.421875 
Q 53.21875 48.921875 51.53125 44.890625 
Q 49.859375 40.875 45.40625 35.40625 
Q 44.1875 33.984375 37.640625 27.21875 
Q 31.109375 20.453125 19.1875 8.296875 
z
" id="DejaVuSans-50"/>
     <path d="M 10.6875 12.40625 
L 21 12.40625 
L 21 0 
L 10.6875 0 
z
" id="DejaVuSans-46"/>
     <path d="M 8.203125 72.90625 
L 55.078125 72.90625 
L 55.078125 68.703125 
L 28.609375 0 
L 18.3125 0 
L 43.21875 64.59375 
L 8.203125 64.59375 
z
" id="DejaVuSans-55"/>
    </defs>
    <g transform="translate(215.424375 49.296)scale(0.12 -0.12)">
     <use xlink:href="#DejaVuSans-116"/>
     <use x="39.208984" xlink:href="#DejaVuSans-32"/>
     <use x="70.996094" xlink:href="#DejaVuSans-61"/>
     <use x="154.785156" xlink:href="#DejaVuSans-32"/>
     <use x="186.572266" xlink:href="#DejaVuSans-50"/>
     <use x="250.195312" xlink:href="#DejaVuSans-46"/>
     <use x="281.982422" xlink:href="#DejaVuSans-55"/>
    </g>
   </g>
  </g>
 </g>
 <defs>
  <clipPath id="p29e471b8b3">
   <rect height="354.816" width="357.12" x="57.6" y="55.296"/>
  </clipPath>
 </defs>
</svg>
