<?xml version="1.0" encoding="utf-8" standalone="no"?>
<!DOCTYPE svg PUBLIC "-//W3C//DTD SVG 1.1//EN"
  "http://www.w3.org/Graphics/SVG/1.1/DTD/svg11.dtd">
<!-- Created with matplotlib (https://matplotlib.org/) -->
<svg height="460.8pt" version="1.1" viewBox="0 0 460.8 460.8" width="460.8pt" xmlns="http://www.w3.org/2000/svg" xmlns:xlink="http://www.w3.org/1999/xlink">
 <defs>
  <style type="text/css">
*{stroke-linecap:butt;stroke-linejoin:round;}
  </style>
 </defs>
 <g id="figure_1">
  <g id="patch_1">
   <path d="M 0 460.8 
L 460.8 460.8 
L 460.8 0 
L 0 0 
z
" style="fill:#ffffff;"/>
  </g>
  <g id="axes_1">
   <g id="patch_2">
    <path clip-path="url(#p6eb02cf191)" d="M 155.044664 331.608823 
L 155.024219 333.016813 
L 155.38662 334.7457 
L 156.013794 335.984685 
L 157.190614 337.334626 
L 158.311853 338.10126 
L 160.014965 338.741742 
L 161.355751 338.848326 
L 163.168174 338.622536 
L 164.400235 338.042974 
L 165.878224 337.006195 
L 166.699909 335.882384 
L 167.481602 334.288455 
L 167.691734 332.895543 
L 167.585744 331.134713 
L 167.132876 329.813734 
L 166.165153 328.317116 
L 164.802789 327.140871 
L 163.587745 326.548572 
L 161.808131 326.14641 
L 160.464453 326.239021 
L 158.7033 326.709403 
L 157.559968 327.46425 
L 156.248469 328.692011 
L 155.58541 329.924281 
L 155.58541 329.924281 
L 155.58541 329.924281 
L 155.58541 329.924281 
L 155.58541 329.924281 
L 155.58541 329.924281 
L 155.58541 329.924281 
L 155.58541 329.924281 
L 155.58541 329.924281 
L 155.58541 329.924281 
L 155.58541 329.924281 
L 155.58541 329.924281 
L 155.58541 329.924281 
L 155.58541 329.924281 
L 155.58541 329.924281 
L 155.58541 329.924281 
L 155.58541 329.924281 
L 155.58541 329.924281 
L 155.58541 329.924281 
L 155.58541 329.924281 
L 155.58541 329.924281 
L 155.58541 329.924281 
L 155.58541 329.924281 
L 155.58541 329.924281 
L 155.58541 329.924281 
L 155.58541 329.924281 
L 155.58541 329.924281 
L 155.58541 329.924281 
L 155.58541 329.924281 
L 155.58541 329.924281 
L 155.58541 329.924281 
L 155.58541 329.924281 
L 155.58541 329.924281 
L 155.58541 329.924281 
L 155.58541 329.924281 
L 155.58541 329.924281 
L 155.58541 329.924281 
L 155.58541 329.924281 
L 155.58541 329.924281 
L 155.58541 329.924281 
L 155.58541 329.924281 
L 155.58541 329.924281 
L 155.58541 329.924281 
L 155.58541 329.924281 
L 155.58541 329.924281 
L 155.58541 329.924281 
L 155.58541 329.924281 
L 155.58541 329.924281 
L 155.58541 329.924281 
L 155.58541 329.924281 
L 155.58541 329.924281 
L 155.58541 329.924281 
L 155.58541 329.924281 
L 155.58541 329.924281 
L 155.58541 329.924281 
L 155.58541 329.924281 
L 155.58541 329.924281 
L 155.58541 329.924281 
L 155.58541 329.924281 
L 155.58541 329.924281 
L 155.58541 329.924281 
L 155.58541 329.924281 
L 155.58541 329.924281 
L 155.58541 329.924281 
L 155.58541 329.924281 
L 155.58541 329.924281 
L 155.58541 329.924281 
L 155.58541 329.924281 
L 155.58541 329.924281 
L 155.58541 329.924281 
L 155.58541 329.924281 
L 155.58541 329.924281 
L 155.58541 329.924281 
L 155.58541 329.924281 
L 155.58541 329.924281 
L 155.58541 329.924281 
L 155.58541 329.924281 
L 155.58541 329.924281 
L 155.58541 329.924281 
L 155.58541 329.924281 
L 155.58541 329.924281 
L 155.58541 329.924281 
L 155.58541 329.924281 
L 155.58541 329.924281 
L 155.58541 329.924281 
L 155.58541 329.924281 
L 155.58541 329.924281 
L 155.58541 329.924281 
L 155.58541 329.924281 
L 155.58541 329.924281 
L 155.58541 329.924281 
L 155.58541 329.924281 
L 155.58541 329.924281 
L 155.58541 329.924281 
L 155.58541 329.924281 
L 155.58541 329.924281 
L 155.58541 329.924281 
L 155.58541 329.924281 
L 155.58541 329.924281 
L 155.58541 329.924281 
L 155.58541 329.924281 
L 155.58541 329.924281 
L 155.58541 329.924281 
L 155.58541 329.924281 
L 155.58541 329.924281 
L 155.58541 329.924281 
L 155.58541 329.924281 
L 155.58541 329.924281 
L 155.58541 329.924281 
L 155.58541 329.924281 
L 155.58541 329.924281 
L 155.58541 329.924281 
L 155.58541 329.924281 
L 155.58541 329.924281 
L 155.58541 329.924281 
L 155.58541 329.924281 
L 155.58541 329.924281 
L 155.58541 329.924281 
L 155.58541 329.924281 
L 155.58541 329.924281 
L 155.58541 329.924281 
L 155.58541 329.924281 
L 155.58541 329.924281 
L 155.58541 329.924281 
L 155.58541 329.924281 
L 155.58541 329.924281 
L 155.58541 329.924281 
L 155.58541 329.924281 
L 155.58541 329.924281 
L 155.58541 329.924281 
L 155.58541 329.924281 
L 155.58541 329.924281 
L 155.58541 329.924281 
L 155.58541 329.924281 
L 155.58541 329.924281 
L 155.58541 329.924281 
L 155.58541 329.924281 
L 155.58541 329.924281 
L 155.58541 329.924281 
L 155.58541 329.924281 
L 155.58541 329.924281 
L 155.58541 329.924281 
L 155.58541 329.924281 
L 155.58541 329.924281 
L 155.58541 329.924281 
z
" style="fill:#993333;stroke:#000000;stroke-linejoin:miter;"/>
   </g>
   <g id="patch_3">
    <path clip-path="url(#p6eb02cf191)" d="M 160.941552 332.029778 
L 161.7772 332.988358 
L 209.847269 291.082946 
L 209.011621 290.124366 
L 209.011621 290.124366 
L 209.011621 290.124366 
L 209.011621 290.124366 
L 209.011621 290.124366 
L 209.011621 290.124366 
L 209.011621 290.124366 
L 209.011621 290.124366 
L 209.011621 290.124366 
L 209.011621 290.124366 
L 209.011621 290.124366 
L 209.011621 290.124366 
L 209.011621 290.124366 
L 209.011621 290.124366 
L 209.011621 290.124366 
L 209.011621 290.124366 
L 209.011621 290.124366 
L 209.011621 290.124366 
L 209.011621 290.124366 
L 209.011621 290.124366 
L 209.011621 290.124366 
L 209.011621 290.124366 
L 209.011621 290.124366 
L 209.011621 290.124366 
L 209.011621 290.124366 
L 209.011621 290.124366 
L 209.011621 290.124366 
L 209.011621 290.124366 
L 209.011621 290.124366 
L 209.011621 290.124366 
L 209.011621 290.124366 
L 209.011621 290.124366 
L 209.011621 290.124366 
L 209.011621 290.124366 
L 209.011621 290.124366 
L 209.011621 290.124366 
L 209.011621 290.124366 
L 209.011621 290.124366 
L 209.011621 290.124366 
L 209.011621 290.124366 
L 209.011621 290.124366 
L 209.011621 290.124366 
L 209.011621 290.124366 
L 209.011621 290.124366 
L 209.011621 290.124366 
L 209.011621 290.124366 
L 209.011621 290.124366 
L 209.011621 290.124366 
L 209.011621 290.124366 
z
" style="stroke:#000000;stroke-linejoin:miter;"/>
   </g>
   <g id="patch_4">
    <path clip-path="url(#p6eb02cf191)" d="M 203.103794 290.605273 
L 203.299155 292.363659 
L 203.856243 293.656913 
L 204.893926 295.086459 
L 205.972905 295.960664 
L 207.598849 296.711367 
L 208.935548 296.952487 
L 210.751664 296.840549 
L 212.018812 296.389549 
L 213.580453 295.442377 
L 214.467809 294.409678 
L 215.392629 292.859171 
L 215.682936 291.497614 
L 215.744509 289.723392 
L 215.366691 288.366332 
L 214.54994 286.802786 
L 213.596499 285.78248 
L 212.101394 284.81242 
L 210.377155 284.2961 
L 209.026139 284.252431 
L 207.237661 284.613136 
L 206.049327 285.247098 
L 204.634491 286.396515 
L 203.899784 287.552892 
L 203.204992 289.209603 
L 203.204992 289.209603 
L 203.204992 289.209603 
L 203.204992 289.209603 
L 203.204992 289.209603 
L 203.204992 289.209603 
L 203.204992 289.209603 
L 203.204992 289.209603 
L 203.204992 289.209603 
L 203.204992 289.209603 
L 203.204992 289.209603 
L 203.204992 289.209603 
L 203.204992 289.209603 
L 203.204992 289.209603 
L 203.204992 289.209603 
L 203.204992 289.209603 
L 203.204992 289.209603 
L 203.204992 289.209603 
L 203.204992 289.209603 
L 203.204992 289.209603 
L 203.204992 289.209603 
L 203.204992 289.209603 
L 203.204992 289.209603 
L 203.204992 289.209603 
L 203.204992 289.209603 
L 203.204992 289.209603 
L 203.204992 289.209603 
L 203.204992 289.209603 
L 203.204992 289.209603 
L 203.204992 289.209603 
L 203.204992 289.209603 
L 203.204992 289.209603 
L 203.204992 289.209603 
L 203.204992 289.209603 
L 203.204992 289.209603 
L 203.204992 289.209603 
L 203.204992 289.209603 
L 203.204992 289.209603 
L 203.204992 289.209603 
L 203.204992 289.209603 
L 203.204992 289.209603 
L 203.204992 289.209603 
L 203.204992 289.209603 
L 203.204992 289.209603 
L 203.204992 289.209603 
L 203.204992 289.209603 
L 203.204992 289.209603 
L 203.204992 289.209603 
L 203.204992 289.209603 
L 203.204992 289.209603 
L 203.204992 289.209603 
L 203.204992 289.209603 
L 203.204992 289.209603 
L 203.204992 289.209603 
L 203.204992 289.209603 
L 203.204992 289.209603 
L 203.204992 289.209603 
L 203.204992 289.209603 
L 203.204992 289.209603 
L 203.204992 289.209603 
L 203.204992 289.209603 
L 203.204992 289.209603 
L 203.204992 289.209603 
L 203.204992 289.209603 
L 203.204992 289.209603 
L 203.204992 289.209603 
L 203.204992 289.209603 
L 203.204992 289.209603 
L 203.204992 289.209603 
L 203.204992 289.209603 
L 203.204992 289.209603 
L 203.204992 289.209603 
L 203.204992 289.209603 
L 203.204992 289.209603 
L 203.204992 289.209603 
L 203.204992 289.209603 
L 203.204992 289.209603 
L 203.204992 289.209603 
L 203.204992 289.209603 
L 203.204992 289.209603 
L 203.204992 289.209603 
L 203.204992 289.209603 
L 203.204992 289.209603 
L 203.204992 289.209603 
L 203.204992 289.209603 
L 203.204992 289.209603 
L 203.204992 289.209603 
L 203.204992 289.209603 
L 203.204992 289.209603 
L 203.204992 289.209603 
L 203.204992 289.209603 
L 203.204992 289.209603 
L 203.204992 289.209603 
L 203.204992 289.209603 
L 203.204992 289.209603 
L 203.204992 289.209603 
L 203.204992 289.209603 
L 203.204992 289.209603 
L 203.204992 289.209603 
L 203.204992 289.209603 
L 203.204992 289.209603 
L 203.204992 289.209603 
L 203.204992 289.209603 
L 203.204992 289.209603 
L 203.204992 289.209603 
L 203.204992 289.209603 
L 203.204992 289.209603 
L 203.204992 289.209603 
L 203.204992 289.209603 
L 203.204992 289.209603 
L 203.204992 289.209603 
L 203.204992 289.209603 
L 203.204992 289.209603 
L 203.204992 289.209603 
L 203.204992 289.209603 
L 203.204992 289.209603 
L 203.204992 289.209603 
L 203.204992 289.209603 
L 203.204992 289.209603 
L 203.204992 289.209603 
L 203.204992 289.209603 
L 203.204992 289.209603 
L 203.204992 289.209603 
L 203.204992 289.209603 
L 203.204992 289.209603 
L 203.204992 289.209603 
L 203.204992 289.209603 
L 203.204992 289.209603 
L 203.204992 289.209603 
L 203.204992 289.209603 
L 203.204992 289.209603 
L 203.204992 289.209603 
L 203.204992 289.209603 
L 203.204992 289.209603 
L 203.204992 289.209603 
L 203.204992 289.209603 
L 203.204992 289.209603 
L 203.204992 289.209603 
L 203.204992 289.209603 
L 203.204992 289.209603 
L 203.204992 289.209603 
L 203.204992 289.209603 
L 203.204992 289.209603 
L 203.204992 289.209603 
L 203.204992 289.209603 
z
" style="fill:#993333;stroke:#000000;stroke-linejoin:miter;"/>
   </g>
   <g id="patch_5">
    <path clip-path="url(#p6eb02cf191)" d="M 235.584416 232.438251 
L 208.852632 290.336496 
L 210.007198 290.869563 
L 236.738982 232.971318 
L 236.738982 232.971318 
L 236.738982 232.971318 
L 236.738982 232.971318 
L 236.738982 232.971318 
L 236.738982 232.971318 
L 236.738982 232.971318 
L 236.738982 232.971318 
L 236.738982 232.971318 
L 236.738982 232.971318 
L 236.738982 232.971318 
L 236.738982 232.971318 
L 236.738982 232.971318 
L 236.738982 232.971318 
L 236.738982 232.971318 
L 236.738982 232.971318 
L 236.738982 232.971318 
L 236.738982 232.971318 
L 236.738982 232.971318 
L 236.738982 232.971318 
L 236.738982 232.971318 
L 236.738982 232.971318 
L 236.738982 232.971318 
L 236.738982 232.971318 
L 236.738982 232.971318 
L 236.738982 232.971318 
L 236.738982 232.971318 
L 236.738982 232.971318 
L 236.738982 232.971318 
L 236.738982 232.971318 
L 236.738982 232.971318 
L 236.738982 232.971318 
L 236.738982 232.971318 
L 236.738982 232.971318 
L 236.738982 232.971318 
L 236.738982 232.971318 
L 236.738982 232.971318 
L 236.738982 232.971318 
L 236.738982 232.971318 
L 236.738982 232.971318 
L 236.738982 232.971318 
L 236.738982 232.971318 
L 236.738982 232.971318 
L 236.738982 232.971318 
L 236.738982 232.971318 
L 236.738982 232.971318 
L 236.738982 232.971318 
L 236.738982 232.971318 
L 236.738982 232.971318 
z
" style="stroke:#000000;stroke-linejoin:miter;"/>
   </g>
   <g id="text_1">
    <!-- t = 0.5 -->
    <defs>
     <path d="M 18.3125 70.21875 
L 18.3125 54.6875 
L 36.8125 54.6875 
L 36.8125 47.703125 
L 18.3125 47.703125 
L 18.3125 18.015625 
Q 18.3125 11.328125 20.140625 9.421875 
Q 21.96875 7.515625 27.59375 7.515625 
L 36.8125 7.515625 
L 36.8125 0 
L 27.59375 0 
Q 17.1875 0 13.234375 3.875 
Q 9.28125 7.765625 9.28125 18.015625 
L 9.28125 47.703125 
L 2.6875 47.703125 
L 2.6875 54.6875 
L 9.28125 54.6875 
L 9.28125 70.21875 
z
" id="DejaVuSans-116"/>
     <path id="DejaVuSans-32"/>
     <path d="M 10.59375 45.40625 
L 73.1875 45.40625 
L 73.1875 37.203125 
L 10.59375 37.203125 
z
M 10.59375 25.484375 
L 73.1875 25.484375 
L 73.1875 17.1875 
L 10.59375 17.1875 
z
" id="DejaVuSans-61"/>
     <path d="M 31.78125 66.40625 
Q 24.171875 66.40625 20.328125 58.90625 
Q 16.5 51.421875 16.5 36.375 
Q 16.5 21.390625 20.328125 13.890625 
Q 24.171875 6.390625 31.78125 6.390625 
Q 39.453125 6.390625 43.28125 13.890625 
Q 47.125 21.390625 47.125 36.375 
Q 47.125 51.421875 43.28125 58.90625 
Q 39.453125 66.40625 31.78125 66.40625 
z
M 31.78125 74.21875 
Q 44.046875 74.21875 50.515625 64.515625 
Q 56.984375 54.828125 56.984375 36.375 
Q 56.984375 17.96875 50.515625 8.265625 
Q 44.046875 -1.421875 31.78125 -1.421875 
Q 19.53125 -1.421875 13.0625 8.265625 
Q 6.59375 17.96875 6.59375 36.375 
Q 6.59375 54.828125 13.0625 64.515625 
Q 19.53125 74.21875 31.78125 74.21875 
z
" id="DejaVuSans-48"/>
     <path d="M 10.6875 12.40625 
L 21 12.40625 
L 21 0 
L 10.6875 0 
z
" id="DejaVuSans-46"/>
     <path d="M 10.796875 72.90625 
L 49.515625 72.90625 
L 49.515625 64.59375 
L 19.828125 64.59375 
L 19.828125 46.734375 
Q 21.96875 47.46875 24.109375 47.828125 
Q 26.265625 48.1875 28.421875 48.1875 
Q 40.625 48.1875 47.75 41.5 
Q 54.890625 34.8125 54.890625 23.390625 
Q 54.890625 11.625 47.5625 5.09375 
Q 40.234375 -1.421875 26.90625 -1.421875 
Q 22.3125 -1.421875 17.546875 -0.640625 
Q 12.796875 0.140625 7.71875 1.703125 
L 7.71875 11.625 
Q 12.109375 9.234375 16.796875 8.0625 
Q 21.484375 6.890625 26.703125 6.890625 
Q 35.15625 6.890625 40.078125 11.328125 
Q 45.015625 15.765625 45.015625 23.390625 
Q 45.015625 31 40.078125 35.4375 
Q 35.15625 39.890625 26.703125 39.890625 
Q 22.75 39.890625 18.8125 39.015625 
Q 14.890625 38.140625 10.796875 36.28125 
z
" id="DejaVuSans-53"/>
    </defs>
    <g transform="translate(215.424375 49.296)scale(0.12 -0.12)">
     <use xlink:href="#DejaVuSans-116"/>
     <use x="39.208984" xlink:href="#DejaVuSans-32"/>
     <use x="70.996094" xlink:href="#DejaVuSans-61"/>
     <use x="154.785156" xlink:href="#DejaVuSans-32"/>
     <use x="186.572266" xlink:href="#DejaVuSans-48"/>
     <use x="250.195312" xlink:href="#DejaVuSans-46"/>
     <use x="281.982422" xlink:href="#DejaVuSans-53"/>
    </g>
   </g>
  </g>
 </g>
 <defs>
  <clipPath id="p6eb02cf191">
   <rect height="354.816" width="357.12" x="57.6" y="55.296"/>
  </clipPath>
 </defs>
</svg>
