<?xml version="1.0" encoding="utf-8" standalone="no"?>
<!DOCTYPE svg PUBLIC "-//W3C//DTD SVG 1.1//EN"
  "http://www.w3.org/Graphics/SVG/1.1/DTD/svg11.dtd">
<!-- Created with matplotlib (https://matplotlib.org/) -->
<svg height="460.8pt" version="1.1" viewBox="0 0 460.8 460.8" width="460.8pt" xmlns="http://www.w3.org/2000/svg" xmlns:xlink="http://www.w3.org/1999/xlink">
 <defs>
  <style type="text/css">
*{stroke-linecap:butt;stroke-linejoin:round;}
  </style>
 </defs>
 <g id="figure_1">
  <g id="patch_1">
   <path d="M 0 460.8 
L 460.8 460.8 
L 460.8 0 
L 0 0 
z
" style="fill:#ffffff;"/>
  </g>
  <g id="axes_1">
   <g id="patch_2">
    <path clip-path="url(#p9f3006b1ac)" d="M 344.7379 280.959179 
L 344.783007 282.78311 
L 345.201301 284.063375 
L 346.087964 285.656092 
L 347.09942 286.580191 
L 348.610552 287.55174 
L 349.96753 287.893423 
L 351.733153 288.005935 
L 353.103418 287.681545 
L 354.691247 286.907474 
L 355.73931 285.996433 
L 356.760588 284.525298 
L 357.229846 283.250661 
L 357.434529 281.442647 
L 357.210093 280.11649 
L 356.548067 278.414262 
L 355.684885 277.361273 
L 354.318237 276.181596 
L 353.027648 275.659585 
L 351.290981 275.291285 
L 349.888965 275.428058 
L 348.207476 275.961307 
L 347.037296 276.723377 
L 345.822672 278.027618 
L 345.015181 279.636203 
L 345.015181 279.636203 
L 345.015181 279.636203 
L 345.015181 279.636203 
L 345.015181 279.636203 
L 345.015181 279.636203 
L 345.015181 279.636203 
L 345.015181 279.636203 
L 345.015181 279.636203 
L 345.015181 279.636203 
L 345.015181 279.636203 
L 345.015181 279.636203 
L 345.015181 279.636203 
L 345.015181 279.636203 
L 345.015181 279.636203 
L 345.015181 279.636203 
L 345.015181 279.636203 
L 345.015181 279.636203 
L 345.015181 279.636203 
L 345.015181 279.636203 
L 345.015181 279.636203 
L 345.015181 279.636203 
L 345.015181 279.636203 
L 345.015181 279.636203 
L 345.015181 279.636203 
L 345.015181 279.636203 
L 345.015181 279.636203 
L 345.015181 279.636203 
L 345.015181 279.636203 
L 345.015181 279.636203 
L 345.015181 279.636203 
L 345.015181 279.636203 
L 345.015181 279.636203 
L 345.015181 279.636203 
L 345.015181 279.636203 
L 345.015181 279.636203 
L 345.015181 279.636203 
L 345.015181 279.636203 
L 345.015181 279.636203 
L 345.015181 279.636203 
L 345.015181 279.636203 
L 345.015181 279.636203 
L 345.015181 279.636203 
L 345.015181 279.636203 
L 345.015181 279.636203 
L 345.015181 279.636203 
L 345.015181 279.636203 
L 345.015181 279.636203 
L 345.015181 279.636203 
L 345.015181 279.636203 
L 345.015181 279.636203 
L 345.015181 279.636203 
L 345.015181 279.636203 
L 345.015181 279.636203 
L 345.015181 279.636203 
L 345.015181 279.636203 
L 345.015181 279.636203 
L 345.015181 279.636203 
L 345.015181 279.636203 
L 345.015181 279.636203 
L 345.015181 279.636203 
L 345.015181 279.636203 
L 345.015181 279.636203 
L 345.015181 279.636203 
L 345.015181 279.636203 
L 345.015181 279.636203 
L 345.015181 279.636203 
L 345.015181 279.636203 
L 345.015181 279.636203 
L 345.015181 279.636203 
L 345.015181 279.636203 
L 345.015181 279.636203 
L 345.015181 279.636203 
L 345.015181 279.636203 
L 345.015181 279.636203 
L 345.015181 279.636203 
L 345.015181 279.636203 
L 345.015181 279.636203 
L 345.015181 279.636203 
L 345.015181 279.636203 
L 345.015181 279.636203 
L 345.015181 279.636203 
L 345.015181 279.636203 
L 345.015181 279.636203 
L 345.015181 279.636203 
L 345.015181 279.636203 
L 345.015181 279.636203 
L 345.015181 279.636203 
L 345.015181 279.636203 
L 345.015181 279.636203 
L 345.015181 279.636203 
L 345.015181 279.636203 
L 345.015181 279.636203 
L 345.015181 279.636203 
L 345.015181 279.636203 
L 345.015181 279.636203 
L 345.015181 279.636203 
L 345.015181 279.636203 
L 345.015181 279.636203 
L 345.015181 279.636203 
L 345.015181 279.636203 
L 345.015181 279.636203 
L 345.015181 279.636203 
L 345.015181 279.636203 
L 345.015181 279.636203 
L 345.015181 279.636203 
L 345.015181 279.636203 
L 345.015181 279.636203 
L 345.015181 279.636203 
L 345.015181 279.636203 
L 345.015181 279.636203 
L 345.015181 279.636203 
L 345.015181 279.636203 
L 345.015181 279.636203 
L 345.015181 279.636203 
L 345.015181 279.636203 
L 345.015181 279.636203 
L 345.015181 279.636203 
L 345.015181 279.636203 
L 345.015181 279.636203 
L 345.015181 279.636203 
L 345.015181 279.636203 
L 345.015181 279.636203 
L 345.015181 279.636203 
L 345.015181 279.636203 
L 345.015181 279.636203 
L 345.015181 279.636203 
L 345.015181 279.636203 
L 345.015181 279.636203 
L 345.015181 279.636203 
L 345.015181 279.636203 
L 345.015181 279.636203 
L 345.015181 279.636203 
L 345.015181 279.636203 
L 345.015181 279.636203 
L 345.015181 279.636203 
L 345.015181 279.636203 
L 345.015181 279.636203 
L 345.015181 279.636203 
L 345.015181 279.636203 
L 345.015181 279.636203 
L 345.015181 279.636203 
L 345.015181 279.636203 
L 345.015181 279.636203 
L 345.015181 279.636203 
z
" style="fill:#993333;stroke:#000000;stroke-linejoin:miter;"/>
   </g>
   <g id="patch_3">
    <path clip-path="url(#p9f3006b1ac)" d="M 298.314039 245.818369 
L 350.699707 282.18507 
L 351.424906 281.140432 
L 299.039238 244.773731 
L 299.039238 244.773731 
L 299.039238 244.773731 
L 299.039238 244.773731 
L 299.039238 244.773731 
L 299.039238 244.773731 
L 299.039238 244.773731 
L 299.039238 244.773731 
L 299.039238 244.773731 
L 299.039238 244.773731 
L 299.039238 244.773731 
L 299.039238 244.773731 
L 299.039238 244.773731 
L 299.039238 244.773731 
L 299.039238 244.773731 
L 299.039238 244.773731 
L 299.039238 244.773731 
L 299.039238 244.773731 
L 299.039238 244.773731 
L 299.039238 244.773731 
L 299.039238 244.773731 
L 299.039238 244.773731 
L 299.039238 244.773731 
L 299.039238 244.773731 
L 299.039238 244.773731 
L 299.039238 244.773731 
L 299.039238 244.773731 
L 299.039238 244.773731 
L 299.039238 244.773731 
L 299.039238 244.773731 
L 299.039238 244.773731 
L 299.039238 244.773731 
L 299.039238 244.773731 
L 299.039238 244.773731 
L 299.039238 244.773731 
L 299.039238 244.773731 
L 299.039238 244.773731 
L 299.039238 244.773731 
L 299.039238 244.773731 
L 299.039238 244.773731 
L 299.039238 244.773731 
L 299.039238 244.773731 
L 299.039238 244.773731 
L 299.039238 244.773731 
L 299.039238 244.773731 
L 299.039238 244.773731 
L 299.039238 244.773731 
L 299.039238 244.773731 
L 299.039238 244.773731 
z
" style="stroke:#000000;stroke-linejoin:miter;"/>
   </g>
   <g id="patch_4">
    <path clip-path="url(#p9f3006b1ac)" d="M 292.424014 244.038229 
L 292.321127 245.83517 
L 292.591587 247.159558 
L 293.356753 248.815844 
L 294.248732 249.825012 
L 295.694611 250.935125 
L 296.989721 251.381995 
L 298.762312 251.67414 
L 300.143465 251.449302 
L 301.808776 250.851953 
L 302.937818 250.010456 
L 304.088122 248.669864 
L 304.688624 247.417734 
L 305.042287 245.662123 
L 304.967225 244.305927 
L 304.437658 242.565132 
L 303.70541 241.436912 
L 302.422269 240.137141 
L 301.212115 239.513126 
L 299.489558 238.972607 
L 298.097785 239.005578 
L 296.357554 239.356649 
L 295.124918 240.038532 
L 293.793082 241.19524 
L 293.021375 242.359087 
L 293.021375 242.359087 
L 293.021375 242.359087 
L 293.021375 242.359087 
L 293.021375 242.359087 
L 293.021375 242.359087 
L 293.021375 242.359087 
L 293.021375 242.359087 
L 293.021375 242.359087 
L 293.021375 242.359087 
L 293.021375 242.359087 
L 293.021375 242.359087 
L 293.021375 242.359087 
L 293.021375 242.359087 
L 293.021375 242.359087 
L 293.021375 242.359087 
L 293.021375 242.359087 
L 293.021375 242.359087 
L 293.021375 242.359087 
L 293.021375 242.359087 
L 293.021375 242.359087 
L 293.021375 242.359087 
L 293.021375 242.359087 
L 293.021375 242.359087 
L 293.021375 242.359087 
L 293.021375 242.359087 
L 293.021375 242.359087 
L 293.021375 242.359087 
L 293.021375 242.359087 
L 293.021375 242.359087 
L 293.021375 242.359087 
L 293.021375 242.359087 
L 293.021375 242.359087 
L 293.021375 242.359087 
L 293.021375 242.359087 
L 293.021375 242.359087 
L 293.021375 242.359087 
L 293.021375 242.359087 
L 293.021375 242.359087 
L 293.021375 242.359087 
L 293.021375 242.359087 
L 293.021375 242.359087 
L 293.021375 242.359087 
L 293.021375 242.359087 
L 293.021375 242.359087 
L 293.021375 242.359087 
L 293.021375 242.359087 
L 293.021375 242.359087 
L 293.021375 242.359087 
L 293.021375 242.359087 
L 293.021375 242.359087 
L 293.021375 242.359087 
L 293.021375 242.359087 
L 293.021375 242.359087 
L 293.021375 242.359087 
L 293.021375 242.359087 
L 293.021375 242.359087 
L 293.021375 242.359087 
L 293.021375 242.359087 
L 293.021375 242.359087 
L 293.021375 242.359087 
L 293.021375 242.359087 
L 293.021375 242.359087 
L 293.021375 242.359087 
L 293.021375 242.359087 
L 293.021375 242.359087 
L 293.021375 242.359087 
L 293.021375 242.359087 
L 293.021375 242.359087 
L 293.021375 242.359087 
L 293.021375 242.359087 
L 293.021375 242.359087 
L 293.021375 242.359087 
L 293.021375 242.359087 
L 293.021375 242.359087 
L 293.021375 242.359087 
L 293.021375 242.359087 
L 293.021375 242.359087 
L 293.021375 242.359087 
L 293.021375 242.359087 
L 293.021375 242.359087 
L 293.021375 242.359087 
L 293.021375 242.359087 
L 293.021375 242.359087 
L 293.021375 242.359087 
L 293.021375 242.359087 
L 293.021375 242.359087 
L 293.021375 242.359087 
L 293.021375 242.359087 
L 293.021375 242.359087 
L 293.021375 242.359087 
L 293.021375 242.359087 
L 293.021375 242.359087 
L 293.021375 242.359087 
L 293.021375 242.359087 
L 293.021375 242.359087 
L 293.021375 242.359087 
L 293.021375 242.359087 
L 293.021375 242.359087 
L 293.021375 242.359087 
L 293.021375 242.359087 
L 293.021375 242.359087 
L 293.021375 242.359087 
L 293.021375 242.359087 
L 293.021375 242.359087 
L 293.021375 242.359087 
L 293.021375 242.359087 
L 293.021375 242.359087 
L 293.021375 242.359087 
L 293.021375 242.359087 
L 293.021375 242.359087 
L 293.021375 242.359087 
L 293.021375 242.359087 
L 293.021375 242.359087 
L 293.021375 242.359087 
L 293.021375 242.359087 
L 293.021375 242.359087 
L 293.021375 242.359087 
L 293.021375 242.359087 
L 293.021375 242.359087 
L 293.021375 242.359087 
L 293.021375 242.359087 
L 293.021375 242.359087 
L 293.021375 242.359087 
L 293.021375 242.359087 
L 293.021375 242.359087 
L 293.021375 242.359087 
L 293.021375 242.359087 
L 293.021375 242.359087 
L 293.021375 242.359087 
L 293.021375 242.359087 
L 293.021375 242.359087 
L 293.021375 242.359087 
L 293.021375 242.359087 
L 293.021375 242.359087 
L 293.021375 242.359087 
L 293.021375 242.359087 
L 293.021375 242.359087 
L 293.021375 242.359087 
L 293.021375 242.359087 
L 293.021375 242.359087 
L 293.021375 242.359087 
L 293.021375 242.359087 
L 293.021375 242.359087 
L 293.021375 242.359087 
z
" style="fill:#993333;stroke:#000000;stroke-linejoin:miter;"/>
   </g>
   <g id="patch_5">
    <path clip-path="url(#p9f3006b1ac)" d="M 236.285936 232.078844 
L 236.034803 233.325486 
L 298.550375 245.919073 
L 298.801507 244.672432 
L 298.801507 244.672432 
L 298.801507 244.672432 
L 298.801507 244.672432 
L 298.801507 244.672432 
L 298.801507 244.672432 
L 298.801507 244.672432 
L 298.801507 244.672432 
L 298.801507 244.672432 
L 298.801507 244.672432 
L 298.801507 244.672432 
L 298.801507 244.672432 
L 298.801507 244.672432 
L 298.801507 244.672432 
L 298.801507 244.672432 
L 298.801507 244.672432 
L 298.801507 244.672432 
L 298.801507 244.672432 
L 298.801507 244.672432 
L 298.801507 244.672432 
L 298.801507 244.672432 
L 298.801507 244.672432 
L 298.801507 244.672432 
L 298.801507 244.672432 
L 298.801507 244.672432 
L 298.801507 244.672432 
L 298.801507 244.672432 
L 298.801507 244.672432 
L 298.801507 244.672432 
L 298.801507 244.672432 
L 298.801507 244.672432 
L 298.801507 244.672432 
L 298.801507 244.672432 
L 298.801507 244.672432 
L 298.801507 244.672432 
L 298.801507 244.672432 
L 298.801507 244.672432 
L 298.801507 244.672432 
L 298.801507 244.672432 
L 298.801507 244.672432 
L 298.801507 244.672432 
L 298.801507 244.672432 
L 298.801507 244.672432 
L 298.801507 244.672432 
L 298.801507 244.672432 
L 298.801507 244.672432 
L 298.801507 244.672432 
L 298.801507 244.672432 
L 298.801507 244.672432 
z
" style="stroke:#000000;stroke-linejoin:miter;"/>
   </g>
   <g id="text_1">
    <!-- t = 1.3 -->
    <defs>
     <path d="M 18.3125 70.21875 
L 18.3125 54.6875 
L 36.8125 54.6875 
L 36.8125 47.703125 
L 18.3125 47.703125 
L 18.3125 18.015625 
Q 18.3125 11.328125 20.140625 9.421875 
Q 21.96875 7.515625 27.59375 7.515625 
L 36.8125 7.515625 
L 36.8125 0 
L 27.59375 0 
Q 17.1875 0 13.234375 3.875 
Q 9.28125 7.765625 9.28125 18.015625 
L 9.28125 47.703125 
L 2.6875 47.703125 
L 2.6875 54.6875 
L 9.28125 54.6875 
L 9.28125 70.21875 
z
" id="DejaVuSans-116"/>
     <path id="DejaVuSans-32"/>
     <path d="M 10.59375 45.40625 
L 73.1875 45.40625 
L 73.1875 37.203125 
L 10.59375 37.203125 
z
M 10.59375 25.484375 
L 73.1875 25.484375 
L 73.1875 17.1875 
L 10.59375 17.1875 
z
" id="DejaVuSans-61"/>
     <path d="M 12.40625 8.296875 
L 28.515625 8.296875 
L 28.515625 63.921875 
L 10.984375 60.40625 
L 10.984375 69.390625 
L 28.421875 72.90625 
L 38.28125 72.90625 
L 38.28125 8.296875 
L 54.390625 8.296875 
L 54.390625 0 
L 12.40625 0 
z
" id="DejaVuSans-49"/>
     <path d="M 10.6875 12.40625 
L 21 12.40625 
L 21 0 
L 10.6875 0 
z
" id="DejaVuSans-46"/>
     <path d="M 40.578125 39.3125 
Q 47.65625 37.796875 51.625 33 
Q 55.609375 28.21875 55.609375 21.1875 
Q 55.609375 10.40625 48.1875 4.484375 
Q 40.765625 -1.421875 27.09375 -1.421875 
Q 22.515625 -1.421875 17.65625 -0.515625 
Q 12.796875 0.390625 7.625 2.203125 
L 7.625 11.71875 
Q 11.71875 9.328125 16.59375 8.109375 
Q 21.484375 6.890625 26.8125 6.890625 
Q 36.078125 6.890625 40.9375 10.546875 
Q 45.796875 14.203125 45.796875 21.1875 
Q 45.796875 27.640625 41.28125 31.265625 
Q 36.765625 34.90625 28.71875 34.90625 
L 20.21875 34.90625 
L 20.21875 43.015625 
L 29.109375 43.015625 
Q 36.375 43.015625 40.234375 45.921875 
Q 44.09375 48.828125 44.09375 54.296875 
Q 44.09375 59.90625 40.109375 62.90625 
Q 36.140625 65.921875 28.71875 65.921875 
Q 24.65625 65.921875 20.015625 65.03125 
Q 15.375 64.15625 9.8125 62.3125 
L 9.8125 71.09375 
Q 15.4375 72.65625 20.34375 73.4375 
Q 25.25 74.21875 29.59375 74.21875 
Q 40.828125 74.21875 47.359375 69.109375 
Q 53.90625 64.015625 53.90625 55.328125 
Q 53.90625 49.265625 50.4375 45.09375 
Q 46.96875 40.921875 40.578125 39.3125 
z
" id="DejaVuSans-51"/>
    </defs>
    <g transform="translate(215.424375 49.296)scale(0.12 -0.12)">
     <use xlink:href="#DejaVuSans-116"/>
     <use x="39.208984" xlink:href="#DejaVuSans-32"/>
     <use x="70.996094" xlink:href="#DejaVuSans-61"/>
     <use x="154.785156" xlink:href="#DejaVuSans-32"/>
     <use x="186.572266" xlink:href="#DejaVuSans-49"/>
     <use x="250.195312" xlink:href="#DejaVuSans-46"/>
     <use x="281.982422" xlink:href="#DejaVuSans-51"/>
    </g>
   </g>
  </g>
 </g>
 <defs>
  <clipPath id="p9f3006b1ac">
   <rect height="354.816" width="357.12" x="57.6" y="55.296"/>
  </clipPath>
 </defs>
</svg>
