<?xml version="1.0" encoding="utf-8" standalone="no"?>
<!DOCTYPE svg PUBLIC "-//W3C//DTD SVG 1.1//EN"
  "http://www.w3.org/Graphics/SVG/1.1/DTD/svg11.dtd">
<!-- Created with matplotlib (https://matplotlib.org/) -->
<svg height="460.8pt" version="1.1" viewBox="0 0 460.8 460.8" width="460.8pt" xmlns="http://www.w3.org/2000/svg" xmlns:xlink="http://www.w3.org/1999/xlink">
 <defs>
  <style type="text/css">
*{stroke-linecap:butt;stroke-linejoin:round;}
  </style>
 </defs>
 <g id="figure_1">
  <g id="patch_1">
   <path d="M 0 460.8 
L 460.8 460.8 
L 460.8 0 
L 0 0 
z
" style="fill:#ffffff;"/>
  </g>
  <g id="axes_1">
   <g id="patch_2">
    <path clip-path="url(#p4c22cb1854)" d="M 118.648982 243.676677 
L 118.815697 245.488586 
L 119.304747 246.741541 
L 120.298634 248.273875 
L 121.357652 249.129648 
L 122.935372 250.007238 
L 124.305073 250.256307 
L 126.080345 250.264288 
L 127.42538 249.845671 
L 128.963555 248.982089 
L 129.954612 247.99828 
L 130.879092 246.47457 
L 131.343122 244.73553 
L 131.345983 243.383811 
L 130.931449 241.607038 
L 130.2619 240.438385 
L 129.070293 239.058895 
L 127.892262 238.359434 
L 126.21533 237.714975 
L 124.817241 237.655959 
L 123.065555 237.904317 
L 121.789708 238.500194 
L 120.392142 239.580562 
L 119.55091 240.685442 
L 118.849637 242.333308 
L 118.849637 242.333308 
L 118.849637 242.333308 
L 118.849637 242.333308 
L 118.849637 242.333308 
L 118.849637 242.333308 
L 118.849637 242.333308 
L 118.849637 242.333308 
L 118.849637 242.333308 
L 118.849637 242.333308 
L 118.849637 242.333308 
L 118.849637 242.333308 
L 118.849637 242.333308 
L 118.849637 242.333308 
L 118.849637 242.333308 
L 118.849637 242.333308 
L 118.849637 242.333308 
L 118.849637 242.333308 
L 118.849637 242.333308 
L 118.849637 242.333308 
L 118.849637 242.333308 
L 118.849637 242.333308 
L 118.849637 242.333308 
L 118.849637 242.333308 
L 118.849637 242.333308 
L 118.849637 242.333308 
L 118.849637 242.333308 
L 118.849637 242.333308 
L 118.849637 242.333308 
L 118.849637 242.333308 
L 118.849637 242.333308 
L 118.849637 242.333308 
L 118.849637 242.333308 
L 118.849637 242.333308 
L 118.849637 242.333308 
L 118.849637 242.333308 
L 118.849637 242.333308 
L 118.849637 242.333308 
L 118.849637 242.333308 
L 118.849637 242.333308 
L 118.849637 242.333308 
L 118.849637 242.333308 
L 118.849637 242.333308 
L 118.849637 242.333308 
L 118.849637 242.333308 
L 118.849637 242.333308 
L 118.849637 242.333308 
L 118.849637 242.333308 
L 118.849637 242.333308 
L 118.849637 242.333308 
L 118.849637 242.333308 
L 118.849637 242.333308 
L 118.849637 242.333308 
L 118.849637 242.333308 
L 118.849637 242.333308 
L 118.849637 242.333308 
L 118.849637 242.333308 
L 118.849637 242.333308 
L 118.849637 242.333308 
L 118.849637 242.333308 
L 118.849637 242.333308 
L 118.849637 242.333308 
L 118.849637 242.333308 
L 118.849637 242.333308 
L 118.849637 242.333308 
L 118.849637 242.333308 
L 118.849637 242.333308 
L 118.849637 242.333308 
L 118.849637 242.333308 
L 118.849637 242.333308 
L 118.849637 242.333308 
L 118.849637 242.333308 
L 118.849637 242.333308 
L 118.849637 242.333308 
L 118.849637 242.333308 
L 118.849637 242.333308 
L 118.849637 242.333308 
L 118.849637 242.333308 
L 118.849637 242.333308 
L 118.849637 242.333308 
L 118.849637 242.333308 
L 118.849637 242.333308 
L 118.849637 242.333308 
L 118.849637 242.333308 
L 118.849637 242.333308 
L 118.849637 242.333308 
L 118.849637 242.333308 
L 118.849637 242.333308 
L 118.849637 242.333308 
L 118.849637 242.333308 
L 118.849637 242.333308 
L 118.849637 242.333308 
L 118.849637 242.333308 
L 118.849637 242.333308 
L 118.849637 242.333308 
L 118.849637 242.333308 
L 118.849637 242.333308 
L 118.849637 242.333308 
L 118.849637 242.333308 
L 118.849637 242.333308 
L 118.849637 242.333308 
L 118.849637 242.333308 
L 118.849637 242.333308 
L 118.849637 242.333308 
L 118.849637 242.333308 
L 118.849637 242.333308 
L 118.849637 242.333308 
L 118.849637 242.333308 
L 118.849637 242.333308 
L 118.849637 242.333308 
L 118.849637 242.333308 
L 118.849637 242.333308 
L 118.849637 242.333308 
L 118.849637 242.333308 
L 118.849637 242.333308 
L 118.849637 242.333308 
L 118.849637 242.333308 
L 118.849637 242.333308 
L 118.849637 242.333308 
L 118.849637 242.333308 
L 118.849637 242.333308 
L 118.849637 242.333308 
L 118.849637 242.333308 
L 118.849637 242.333308 
L 118.849637 242.333308 
L 118.849637 242.333308 
L 118.849637 242.333308 
L 118.849637 242.333308 
L 118.849637 242.333308 
L 118.849637 242.333308 
L 118.849637 242.333308 
L 118.849637 242.333308 
L 118.849637 242.333308 
L 118.849637 242.333308 
L 118.849637 242.333308 
L 118.849637 242.333308 
L 118.849637 242.333308 
L 118.849637 242.333308 
L 118.849637 242.333308 
L 118.849637 242.333308 
L 118.849637 242.333308 
L 118.849637 242.333308 
L 118.849637 242.333308 
L 118.849637 242.333308 
L 118.849637 242.333308 
z
" style="fill:#993333;stroke:#000000;stroke-linejoin:miter;"/>
   </g>
   <g id="patch_3">
    <path clip-path="url(#p4c22cb1854)" d="M 124.761486 244.564194 
L 183.440375 269.535841 
L 183.938342 268.365708 
L 125.259453 243.394061 
L 125.259453 243.394061 
L 125.259453 243.394061 
L 125.259453 243.394061 
L 125.259453 243.394061 
L 125.259453 243.394061 
L 125.259453 243.394061 
L 125.259453 243.394061 
L 125.259453 243.394061 
L 125.259453 243.394061 
L 125.259453 243.394061 
L 125.259453 243.394061 
L 125.259453 243.394061 
L 125.259453 243.394061 
L 125.259453 243.394061 
L 125.259453 243.394061 
L 125.259453 243.394061 
L 125.259453 243.394061 
L 125.259453 243.394061 
L 125.259453 243.394061 
L 125.259453 243.394061 
L 125.259453 243.394061 
L 125.259453 243.394061 
L 125.259453 243.394061 
L 125.259453 243.394061 
L 125.259453 243.394061 
L 125.259453 243.394061 
L 125.259453 243.394061 
L 125.259453 243.394061 
L 125.259453 243.394061 
L 125.259453 243.394061 
L 125.259453 243.394061 
L 125.259453 243.394061 
L 125.259453 243.394061 
L 125.259453 243.394061 
L 125.259453 243.394061 
L 125.259453 243.394061 
L 125.259453 243.394061 
L 125.259453 243.394061 
L 125.259453 243.394061 
L 125.259453 243.394061 
L 125.259453 243.394061 
L 125.259453 243.394061 
L 125.259453 243.394061 
L 125.259453 243.394061 
L 125.259453 243.394061 
L 125.259453 243.394061 
L 125.259453 243.394061 
L 125.259453 243.394061 
z
" style="stroke:#000000;stroke-linejoin:miter;"/>
   </g>
   <g id="patch_4">
    <path clip-path="url(#p4c22cb1854)" d="M 177.339041 268.744049 
L 177.505096 270.502688 
L 177.989238 271.80424 
L 179.0071 273.27774 
L 180.035204 274.165381 
L 181.655664 274.992979 
L 182.976013 275.249383 
L 184.802326 275.228454 
L 186.091654 274.790845 
L 187.676675 273.926512 
L 188.619308 272.902031 
L 189.574969 271.405914 
L 189.940118 270.045391 
L 190.03244 268.283791 
L 189.730704 266.920328 
L 188.937082 265.324547 
L 187.715353 264.002819 
L 186.574469 263.277882 
L 184.851241 262.678511 
L 183.505659 262.619718 
L 181.702838 262.88945 
L 180.482004 263.511195 
L 179.040985 264.583991 
L 178.243802 265.73405 
L 177.517395 267.347251 
L 177.517395 267.347251 
L 177.517395 267.347251 
L 177.517395 267.347251 
L 177.517395 267.347251 
L 177.517395 267.347251 
L 177.517395 267.347251 
L 177.517395 267.347251 
L 177.517395 267.347251 
L 177.517395 267.347251 
L 177.517395 267.347251 
L 177.517395 267.347251 
L 177.517395 267.347251 
L 177.517395 267.347251 
L 177.517395 267.347251 
L 177.517395 267.347251 
L 177.517395 267.347251 
L 177.517395 267.347251 
L 177.517395 267.347251 
L 177.517395 267.347251 
L 177.517395 267.347251 
L 177.517395 267.347251 
L 177.517395 267.347251 
L 177.517395 267.347251 
L 177.517395 267.347251 
L 177.517395 267.347251 
L 177.517395 267.347251 
L 177.517395 267.347251 
L 177.517395 267.347251 
L 177.517395 267.347251 
L 177.517395 267.347251 
L 177.517395 267.347251 
L 177.517395 267.347251 
L 177.517395 267.347251 
L 177.517395 267.347251 
L 177.517395 267.347251 
L 177.517395 267.347251 
L 177.517395 267.347251 
L 177.517395 267.347251 
L 177.517395 267.347251 
L 177.517395 267.347251 
L 177.517395 267.347251 
L 177.517395 267.347251 
L 177.517395 267.347251 
L 177.517395 267.347251 
L 177.517395 267.347251 
L 177.517395 267.347251 
L 177.517395 267.347251 
L 177.517395 267.347251 
L 177.517395 267.347251 
L 177.517395 267.347251 
L 177.517395 267.347251 
L 177.517395 267.347251 
L 177.517395 267.347251 
L 177.517395 267.347251 
L 177.517395 267.347251 
L 177.517395 267.347251 
L 177.517395 267.347251 
L 177.517395 267.347251 
L 177.517395 267.347251 
L 177.517395 267.347251 
L 177.517395 267.347251 
L 177.517395 267.347251 
L 177.517395 267.347251 
L 177.517395 267.347251 
L 177.517395 267.347251 
L 177.517395 267.347251 
L 177.517395 267.347251 
L 177.517395 267.347251 
L 177.517395 267.347251 
L 177.517395 267.347251 
L 177.517395 267.347251 
L 177.517395 267.347251 
L 177.517395 267.347251 
L 177.517395 267.347251 
L 177.517395 267.347251 
L 177.517395 267.347251 
L 177.517395 267.347251 
L 177.517395 267.347251 
L 177.517395 267.347251 
L 177.517395 267.347251 
L 177.517395 267.347251 
L 177.517395 267.347251 
L 177.517395 267.347251 
L 177.517395 267.347251 
L 177.517395 267.347251 
L 177.517395 267.347251 
L 177.517395 267.347251 
L 177.517395 267.347251 
L 177.517395 267.347251 
L 177.517395 267.347251 
L 177.517395 267.347251 
L 177.517395 267.347251 
L 177.517395 267.347251 
L 177.517395 267.347251 
L 177.517395 267.347251 
L 177.517395 267.347251 
L 177.517395 267.347251 
L 177.517395 267.347251 
L 177.517395 267.347251 
L 177.517395 267.347251 
L 177.517395 267.347251 
L 177.517395 267.347251 
L 177.517395 267.347251 
L 177.517395 267.347251 
L 177.517395 267.347251 
L 177.517395 267.347251 
L 177.517395 267.347251 
L 177.517395 267.347251 
L 177.517395 267.347251 
L 177.517395 267.347251 
L 177.517395 267.347251 
L 177.517395 267.347251 
L 177.517395 267.347251 
L 177.517395 267.347251 
L 177.517395 267.347251 
L 177.517395 267.347251 
L 177.517395 267.347251 
L 177.517395 267.347251 
L 177.517395 267.347251 
L 177.517395 267.347251 
L 177.517395 267.347251 
L 177.517395 267.347251 
L 177.517395 267.347251 
L 177.517395 267.347251 
L 177.517395 267.347251 
L 177.517395 267.347251 
L 177.517395 267.347251 
L 177.517395 267.347251 
L 177.517395 267.347251 
L 177.517395 267.347251 
L 177.517395 267.347251 
L 177.517395 267.347251 
L 177.517395 267.347251 
L 177.517395 267.347251 
L 177.517395 267.347251 
L 177.517395 267.347251 
L 177.517395 267.347251 
L 177.517395 267.347251 
L 177.517395 267.347251 
L 177.517395 267.347251 
L 177.517395 267.347251 
L 177.517395 267.347251 
L 177.517395 267.347251 
L 177.517395 267.347251 
z
" style="fill:#993333;stroke:#000000;stroke-linejoin:miter;"/>
   </g>
   <g id="patch_5">
    <path clip-path="url(#p4c22cb1854)" d="M 183.329769 268.427433 
L 184.052542 269.473751 
L 236.522451 233.228699 
L 235.799677 232.182381 
L 235.799677 232.182381 
L 235.799677 232.182381 
L 235.799677 232.182381 
L 235.799677 232.182381 
L 235.799677 232.182381 
L 235.799677 232.182381 
L 235.799677 232.182381 
L 235.799677 232.182381 
L 235.799677 232.182381 
L 235.799677 232.182381 
L 235.799677 232.182381 
L 235.799677 232.182381 
L 235.799677 232.182381 
L 235.799677 232.182381 
L 235.799677 232.182381 
L 235.799677 232.182381 
L 235.799677 232.182381 
L 235.799677 232.182381 
L 235.799677 232.182381 
L 235.799677 232.182381 
L 235.799677 232.182381 
L 235.799677 232.182381 
L 235.799677 232.182381 
L 235.799677 232.182381 
L 235.799677 232.182381 
L 235.799677 232.182381 
L 235.799677 232.182381 
L 235.799677 232.182381 
L 235.799677 232.182381 
L 235.799677 232.182381 
L 235.799677 232.182381 
L 235.799677 232.182381 
L 235.799677 232.182381 
L 235.799677 232.182381 
L 235.799677 232.182381 
L 235.799677 232.182381 
L 235.799677 232.182381 
L 235.799677 232.182381 
L 235.799677 232.182381 
L 235.799677 232.182381 
L 235.799677 232.182381 
L 235.799677 232.182381 
L 235.799677 232.182381 
L 235.799677 232.182381 
L 235.799677 232.182381 
L 235.799677 232.182381 
L 235.799677 232.182381 
L 235.799677 232.182381 
z
" style="stroke:#000000;stroke-linejoin:miter;"/>
   </g>
   <g id="text_1">
    <!-- t = 0.1 -->
    <defs>
     <path d="M 18.3125 70.21875 
L 18.3125 54.6875 
L 36.8125 54.6875 
L 36.8125 47.703125 
L 18.3125 47.703125 
L 18.3125 18.015625 
Q 18.3125 11.328125 20.140625 9.421875 
Q 21.96875 7.515625 27.59375 7.515625 
L 36.8125 7.515625 
L 36.8125 0 
L 27.59375 0 
Q 17.1875 0 13.234375 3.875 
Q 9.28125 7.765625 9.28125 18.015625 
L 9.28125 47.703125 
L 2.6875 47.703125 
L 2.6875 54.6875 
L 9.28125 54.6875 
L 9.28125 70.21875 
z
" id="DejaVuSans-116"/>
     <path id="DejaVuSans-32"/>
     <path d="M 10.59375 45.40625 
L 73.1875 45.40625 
L 73.1875 37.203125 
L 10.59375 37.203125 
z
M 10.59375 25.484375 
L 73.1875 25.484375 
L 73.1875 17.1875 
L 10.59375 17.1875 
z
" id="DejaVuSans-61"/>
     <path d="M 31.78125 66.40625 
Q 24.171875 66.40625 20.328125 58.90625 
Q 16.5 51.421875 16.5 36.375 
Q 16.5 21.390625 20.328125 13.890625 
Q 24.171875 6.390625 31.78125 6.390625 
Q 39.453125 6.390625 43.28125 13.890625 
Q 47.125 21.390625 47.125 36.375 
Q 47.125 51.421875 43.28125 58.90625 
Q 39.453125 66.40625 31.78125 66.40625 
z
M 31.78125 74.21875 
Q 44.046875 74.21875 50.515625 64.515625 
Q 56.984375 54.828125 56.984375 36.375 
Q 56.984375 17.96875 50.515625 8.265625 
Q 44.046875 -1.421875 31.78125 -1.421875 
Q 19.53125 -1.421875 13.0625 8.265625 
Q 6.59375 17.96875 6.59375 36.375 
Q 6.59375 54.828125 13.0625 64.515625 
Q 19.53125 74.21875 31.78125 74.21875 
z
" id="DejaVuSans-48"/>
     <path d="M 10.6875 12.40625 
L 21 12.40625 
L 21 0 
L 10.6875 0 
z
" id="DejaVuSans-46"/>
     <path d="M 12.40625 8.296875 
L 28.515625 8.296875 
L 28.515625 63.921875 
L 10.984375 60.40625 
L 10.984375 69.390625 
L 28.421875 72.90625 
L 38.28125 72.90625 
L 38.28125 8.296875 
L 54.390625 8.296875 
L 54.390625 0 
L 12.40625 0 
z
" id="DejaVuSans-49"/>
    </defs>
    <g transform="translate(215.424375 49.296)scale(0.12 -0.12)">
     <use xlink:href="#DejaVuSans-116"/>
     <use x="39.208984" xlink:href="#DejaVuSans-32"/>
     <use x="70.996094" xlink:href="#DejaVuSans-61"/>
     <use x="154.785156" xlink:href="#DejaVuSans-32"/>
     <use x="186.572266" xlink:href="#DejaVuSans-48"/>
     <use x="250.195312" xlink:href="#DejaVuSans-46"/>
     <use x="281.982422" xlink:href="#DejaVuSans-49"/>
    </g>
   </g>
  </g>
 </g>
 <defs>
  <clipPath id="p4c22cb1854">
   <rect height="354.816" width="357.12" x="57.6" y="55.296"/>
  </clipPath>
 </defs>
</svg>
