<?xml version="1.0" encoding="utf-8" standalone="no"?>
<!DOCTYPE svg PUBLIC "-//W3C//DTD SVG 1.1//EN"
  "http://www.w3.org/Graphics/SVG/1.1/DTD/svg11.dtd">
<!-- Created with matplotlib (https://matplotlib.org/) -->
<svg height="460.8pt" version="1.1" viewBox="0 0 460.8 460.8" width="460.8pt" xmlns="http://www.w3.org/2000/svg" xmlns:xlink="http://www.w3.org/1999/xlink">
 <defs>
  <style type="text/css">
*{stroke-linecap:butt;stroke-linejoin:round;}
  </style>
 </defs>
 <g id="figure_1">
  <g id="patch_1">
   <path d="M 0 460.8 
L 460.8 460.8 
L 460.8 0 
L 0 0 
z
" style="fill:#ffffff;"/>
  </g>
  <g id="axes_1">
   <g id="patch_2">
    <path clip-path="url(#pe9279f4c41)" d="M 156.403184 331.093218 
L 156.341149 332.499989 
L 156.652314 334.238828 
L 157.242609 335.495802 
L 158.379033 336.879922 
L 159.477132 337.679347 
L 161.160579 338.369867 
L 162.49763 338.516017 
L 164.315932 338.343873 
L 165.564579 337.800964 
L 167.072553 336.808303 
L 167.927082 335.709259 
L 168.755525 334.13912 
L 169.006718 332.753025 
L 168.952796 330.989832 
L 168.539153 329.65605 
L 167.616069 328.131494 
L 166.289051 326.915513 
L 165.092036 326.287575 
L 163.325081 325.833011 
L 161.979253 325.885883 
L 160.204973 326.304029 
L 159.039838 327.024767 
L 157.692638 328.213245 
L 156.993462 329.425387 
L 156.993462 329.425387 
L 156.993462 329.425387 
L 156.993462 329.425387 
L 156.993462 329.425387 
L 156.993462 329.425387 
L 156.993462 329.425387 
L 156.993462 329.425387 
L 156.993462 329.425387 
L 156.993462 329.425387 
L 156.993462 329.425387 
L 156.993462 329.425387 
L 156.993462 329.425387 
L 156.993462 329.425387 
L 156.993462 329.425387 
L 156.993462 329.425387 
L 156.993462 329.425387 
L 156.993462 329.425387 
L 156.993462 329.425387 
L 156.993462 329.425387 
L 156.993462 329.425387 
L 156.993462 329.425387 
L 156.993462 329.425387 
L 156.993462 329.425387 
L 156.993462 329.425387 
L 156.993462 329.425387 
L 156.993462 329.425387 
L 156.993462 329.425387 
L 156.993462 329.425387 
L 156.993462 329.425387 
L 156.993462 329.425387 
L 156.993462 329.425387 
L 156.993462 329.425387 
L 156.993462 329.425387 
L 156.993462 329.425387 
L 156.993462 329.425387 
L 156.993462 329.425387 
L 156.993462 329.425387 
L 156.993462 329.425387 
L 156.993462 329.425387 
L 156.993462 329.425387 
L 156.993462 329.425387 
L 156.993462 329.425387 
L 156.993462 329.425387 
L 156.993462 329.425387 
L 156.993462 329.425387 
L 156.993462 329.425387 
L 156.993462 329.425387 
L 156.993462 329.425387 
L 156.993462 329.425387 
L 156.993462 329.425387 
L 156.993462 329.425387 
L 156.993462 329.425387 
L 156.993462 329.425387 
L 156.993462 329.425387 
L 156.993462 329.425387 
L 156.993462 329.425387 
L 156.993462 329.425387 
L 156.993462 329.425387 
L 156.993462 329.425387 
L 156.993462 329.425387 
L 156.993462 329.425387 
L 156.993462 329.425387 
L 156.993462 329.425387 
L 156.993462 329.425387 
L 156.993462 329.425387 
L 156.993462 329.425387 
L 156.993462 329.425387 
L 156.993462 329.425387 
L 156.993462 329.425387 
L 156.993462 329.425387 
L 156.993462 329.425387 
L 156.993462 329.425387 
L 156.993462 329.425387 
L 156.993462 329.425387 
L 156.993462 329.425387 
L 156.993462 329.425387 
L 156.993462 329.425387 
L 156.993462 329.425387 
L 156.993462 329.425387 
L 156.993462 329.425387 
L 156.993462 329.425387 
L 156.993462 329.425387 
L 156.993462 329.425387 
L 156.993462 329.425387 
L 156.993462 329.425387 
L 156.993462 329.425387 
L 156.993462 329.425387 
L 156.993462 329.425387 
L 156.993462 329.425387 
L 156.993462 329.425387 
L 156.993462 329.425387 
L 156.993462 329.425387 
L 156.993462 329.425387 
L 156.993462 329.425387 
L 156.993462 329.425387 
L 156.993462 329.425387 
L 156.993462 329.425387 
L 156.993462 329.425387 
L 156.993462 329.425387 
L 156.993462 329.425387 
L 156.993462 329.425387 
L 156.993462 329.425387 
L 156.993462 329.425387 
L 156.993462 329.425387 
L 156.993462 329.425387 
L 156.993462 329.425387 
L 156.993462 329.425387 
L 156.993462 329.425387 
L 156.993462 329.425387 
L 156.993462 329.425387 
L 156.993462 329.425387 
L 156.993462 329.425387 
L 156.993462 329.425387 
L 156.993462 329.425387 
L 156.993462 329.425387 
L 156.993462 329.425387 
L 156.993462 329.425387 
L 156.993462 329.425387 
L 156.993462 329.425387 
L 156.993462 329.425387 
L 156.993462 329.425387 
L 156.993462 329.425387 
L 156.993462 329.425387 
L 156.993462 329.425387 
L 156.993462 329.425387 
L 156.993462 329.425387 
L 156.993462 329.425387 
L 156.993462 329.425387 
L 156.993462 329.425387 
L 156.993462 329.425387 
L 156.993462 329.425387 
L 156.993462 329.425387 
L 156.993462 329.425387 
L 156.993462 329.425387 
L 156.993462 329.425387 
L 156.993462 329.425387 
L 156.993462 329.425387 
L 156.993462 329.425387 
L 156.993462 329.425387 
L 156.993462 329.425387 
L 156.993462 329.425387 
L 156.993462 329.425387 
L 156.993462 329.425387 
L 156.993462 329.425387 
z
" style="fill:#993333;stroke:#000000;stroke-linejoin:miter;"/>
   </g>
   <g id="patch_3">
    <path clip-path="url(#pe9279f4c41)" d="M 162.285061 331.688208 
L 163.092024 332.671058 
L 212.379172 292.204132 
L 211.572209 291.221283 
L 211.572209 291.221283 
L 211.572209 291.221283 
L 211.572209 291.221283 
L 211.572209 291.221283 
L 211.572209 291.221283 
L 211.572209 291.221283 
L 211.572209 291.221283 
L 211.572209 291.221283 
L 211.572209 291.221283 
L 211.572209 291.221283 
L 211.572209 291.221283 
L 211.572209 291.221283 
L 211.572209 291.221283 
L 211.572209 291.221283 
L 211.572209 291.221283 
L 211.572209 291.221283 
L 211.572209 291.221283 
L 211.572209 291.221283 
L 211.572209 291.221283 
L 211.572209 291.221283 
L 211.572209 291.221283 
L 211.572209 291.221283 
L 211.572209 291.221283 
L 211.572209 291.221283 
L 211.572209 291.221283 
L 211.572209 291.221283 
L 211.572209 291.221283 
L 211.572209 291.221283 
L 211.572209 291.221283 
L 211.572209 291.221283 
L 211.572209 291.221283 
L 211.572209 291.221283 
L 211.572209 291.221283 
L 211.572209 291.221283 
L 211.572209 291.221283 
L 211.572209 291.221283 
L 211.572209 291.221283 
L 211.572209 291.221283 
L 211.572209 291.221283 
L 211.572209 291.221283 
L 211.572209 291.221283 
L 211.572209 291.221283 
L 211.572209 291.221283 
L 211.572209 291.221283 
L 211.572209 291.221283 
L 211.572209 291.221283 
L 211.572209 291.221283 
L 211.572209 291.221283 
z
" style="stroke:#000000;stroke-linejoin:miter;"/>
   </g>
   <g id="patch_4">
    <path clip-path="url(#pe9279f4c41)" d="M 205.696545 290.590904 
L 205.656211 291.989657 
L 205.927949 293.737868 
L 206.540818 295.005641 
L 207.63976 296.388649 
L 208.75578 297.215045 
L 210.412867 297.894241 
L 211.758797 298.076932 
L 213.568317 297.886025 
L 214.814627 297.38028 
L 216.333546 296.36601 
L 217.175096 295.295655 
L 218.031529 293.706351 
L 218.262278 292.333445 
L 218.246541 290.558224 
L 217.809993 289.218902 
L 216.925939 287.692401 
L 215.928977 286.714576 
L 214.393053 285.810535 
L 212.647968 285.369779 
L 211.296332 285.384976 
L 209.525256 285.82321 
L 208.365651 286.508312 
L 207.002204 287.718242 
L 206.318543 288.905512 
L 206.318543 288.905512 
L 206.318543 288.905512 
L 206.318543 288.905512 
L 206.318543 288.905512 
L 206.318543 288.905512 
L 206.318543 288.905512 
L 206.318543 288.905512 
L 206.318543 288.905512 
L 206.318543 288.905512 
L 206.318543 288.905512 
L 206.318543 288.905512 
L 206.318543 288.905512 
L 206.318543 288.905512 
L 206.318543 288.905512 
L 206.318543 288.905512 
L 206.318543 288.905512 
L 206.318543 288.905512 
L 206.318543 288.905512 
L 206.318543 288.905512 
L 206.318543 288.905512 
L 206.318543 288.905512 
L 206.318543 288.905512 
L 206.318543 288.905512 
L 206.318543 288.905512 
L 206.318543 288.905512 
L 206.318543 288.905512 
L 206.318543 288.905512 
L 206.318543 288.905512 
L 206.318543 288.905512 
L 206.318543 288.905512 
L 206.318543 288.905512 
L 206.318543 288.905512 
L 206.318543 288.905512 
L 206.318543 288.905512 
L 206.318543 288.905512 
L 206.318543 288.905512 
L 206.318543 288.905512 
L 206.318543 288.905512 
L 206.318543 288.905512 
L 206.318543 288.905512 
L 206.318543 288.905512 
L 206.318543 288.905512 
L 206.318543 288.905512 
L 206.318543 288.905512 
L 206.318543 288.905512 
L 206.318543 288.905512 
L 206.318543 288.905512 
L 206.318543 288.905512 
L 206.318543 288.905512 
L 206.318543 288.905512 
L 206.318543 288.905512 
L 206.318543 288.905512 
L 206.318543 288.905512 
L 206.318543 288.905512 
L 206.318543 288.905512 
L 206.318543 288.905512 
L 206.318543 288.905512 
L 206.318543 288.905512 
L 206.318543 288.905512 
L 206.318543 288.905512 
L 206.318543 288.905512 
L 206.318543 288.905512 
L 206.318543 288.905512 
L 206.318543 288.905512 
L 206.318543 288.905512 
L 206.318543 288.905512 
L 206.318543 288.905512 
L 206.318543 288.905512 
L 206.318543 288.905512 
L 206.318543 288.905512 
L 206.318543 288.905512 
L 206.318543 288.905512 
L 206.318543 288.905512 
L 206.318543 288.905512 
L 206.318543 288.905512 
L 206.318543 288.905512 
L 206.318543 288.905512 
L 206.318543 288.905512 
L 206.318543 288.905512 
L 206.318543 288.905512 
L 206.318543 288.905512 
L 206.318543 288.905512 
L 206.318543 288.905512 
L 206.318543 288.905512 
L 206.318543 288.905512 
L 206.318543 288.905512 
L 206.318543 288.905512 
L 206.318543 288.905512 
L 206.318543 288.905512 
L 206.318543 288.905512 
L 206.318543 288.905512 
L 206.318543 288.905512 
L 206.318543 288.905512 
L 206.318543 288.905512 
L 206.318543 288.905512 
L 206.318543 288.905512 
L 206.318543 288.905512 
L 206.318543 288.905512 
L 206.318543 288.905512 
L 206.318543 288.905512 
L 206.318543 288.905512 
L 206.318543 288.905512 
L 206.318543 288.905512 
L 206.318543 288.905512 
L 206.318543 288.905512 
L 206.318543 288.905512 
L 206.318543 288.905512 
L 206.318543 288.905512 
L 206.318543 288.905512 
L 206.318543 288.905512 
L 206.318543 288.905512 
L 206.318543 288.905512 
L 206.318543 288.905512 
L 206.318543 288.905512 
L 206.318543 288.905512 
L 206.318543 288.905512 
L 206.318543 288.905512 
L 206.318543 288.905512 
L 206.318543 288.905512 
L 206.318543 288.905512 
L 206.318543 288.905512 
L 206.318543 288.905512 
L 206.318543 288.905512 
L 206.318543 288.905512 
L 206.318543 288.905512 
L 206.318543 288.905512 
L 206.318543 288.905512 
L 206.318543 288.905512 
L 206.318543 288.905512 
L 206.318543 288.905512 
L 206.318543 288.905512 
L 206.318543 288.905512 
L 206.318543 288.905512 
L 206.318543 288.905512 
L 206.318543 288.905512 
L 206.318543 288.905512 
L 206.318543 288.905512 
L 206.318543 288.905512 
L 206.318543 288.905512 
L 206.318543 288.905512 
L 206.318543 288.905512 
L 206.318543 288.905512 
L 206.318543 288.905512 
L 206.318543 288.905512 
z
" style="fill:#993333;stroke:#000000;stroke-linejoin:miter;"/>
   </g>
   <g id="patch_5">
    <path clip-path="url(#pe9279f4c41)" d="M 211.387894 291.470826 
L 212.564576 291.953116 
L 236.750073 232.945855 
L 235.573391 232.463565 
L 235.573391 232.463565 
L 235.573391 232.463565 
L 235.573391 232.463565 
L 235.573391 232.463565 
L 235.573391 232.463565 
L 235.573391 232.463565 
L 235.573391 232.463565 
L 235.573391 232.463565 
L 235.573391 232.463565 
L 235.573391 232.463565 
L 235.573391 232.463565 
L 235.573391 232.463565 
L 235.573391 232.463565 
L 235.573391 232.463565 
L 235.573391 232.463565 
L 235.573391 232.463565 
L 235.573391 232.463565 
L 235.573391 232.463565 
L 235.573391 232.463565 
L 235.573391 232.463565 
L 235.573391 232.463565 
L 235.573391 232.463565 
L 235.573391 232.463565 
L 235.573391 232.463565 
L 235.573391 232.463565 
L 235.573391 232.463565 
L 235.573391 232.463565 
L 235.573391 232.463565 
L 235.573391 232.463565 
L 235.573391 232.463565 
L 235.573391 232.463565 
L 235.573391 232.463565 
L 235.573391 232.463565 
L 235.573391 232.463565 
L 235.573391 232.463565 
L 235.573391 232.463565 
L 235.573391 232.463565 
L 235.573391 232.463565 
L 235.573391 232.463565 
L 235.573391 232.463565 
L 235.573391 232.463565 
L 235.573391 232.463565 
L 235.573391 232.463565 
L 235.573391 232.463565 
L 235.573391 232.463565 
L 235.573391 232.463565 
L 235.573391 232.463565 
L 235.573391 232.463565 
z
" style="stroke:#000000;stroke-linejoin:miter;"/>
   </g>
   <g id="text_1">
    <!-- t = 8.1 -->
    <defs>
     <path d="M 18.3125 70.21875 
L 18.3125 54.6875 
L 36.8125 54.6875 
L 36.8125 47.703125 
L 18.3125 47.703125 
L 18.3125 18.015625 
Q 18.3125 11.328125 20.140625 9.421875 
Q 21.96875 7.515625 27.59375 7.515625 
L 36.8125 7.515625 
L 36.8125 0 
L 27.59375 0 
Q 17.1875 0 13.234375 3.875 
Q 9.28125 7.765625 9.28125 18.015625 
L 9.28125 47.703125 
L 2.6875 47.703125 
L 2.6875 54.6875 
L 9.28125 54.6875 
L 9.28125 70.21875 
z
" id="DejaVuSans-116"/>
     <path id="DejaVuSans-32"/>
     <path d="M 10.59375 45.40625 
L 73.1875 45.40625 
L 73.1875 37.203125 
L 10.59375 37.203125 
z
M 10.59375 25.484375 
L 73.1875 25.484375 
L 73.1875 17.1875 
L 10.59375 17.1875 
z
" id="DejaVuSans-61"/>
     <path d="M 31.78125 34.625 
Q 24.75 34.625 20.71875 30.859375 
Q 16.703125 27.09375 16.703125 20.515625 
Q 16.703125 13.921875 20.71875 10.15625 
Q 24.75 6.390625 31.78125 6.390625 
Q 38.8125 6.390625 42.859375 10.171875 
Q 46.921875 13.96875 46.921875 20.515625 
Q 46.921875 27.09375 42.890625 30.859375 
Q 38.875 34.625 31.78125 34.625 
z
M 21.921875 38.8125 
Q 15.578125 40.375 12.03125 44.71875 
Q 8.5 49.078125 8.5 55.328125 
Q 8.5 64.0625 14.71875 69.140625 
Q 20.953125 74.21875 31.78125 74.21875 
Q 42.671875 74.21875 48.875 69.140625 
Q 55.078125 64.0625 55.078125 55.328125 
Q 55.078125 49.078125 51.53125 44.71875 
Q 48 40.375 41.703125 38.8125 
Q 48.828125 37.15625 52.796875 32.3125 
Q 56.78125 27.484375 56.78125 20.515625 
Q 56.78125 9.90625 50.3125 4.234375 
Q 43.84375 -1.421875 31.78125 -1.421875 
Q 19.734375 -1.421875 13.25 4.234375 
Q 6.78125 9.90625 6.78125 20.515625 
Q 6.78125 27.484375 10.78125 32.3125 
Q 14.796875 37.15625 21.921875 38.8125 
z
M 18.3125 54.390625 
Q 18.3125 48.734375 21.84375 45.5625 
Q 25.390625 42.390625 31.78125 42.390625 
Q 38.140625 42.390625 41.71875 45.5625 
Q 45.3125 48.734375 45.3125 54.390625 
Q 45.3125 60.0625 41.71875 63.234375 
Q 38.140625 66.40625 31.78125 66.40625 
Q 25.390625 66.40625 21.84375 63.234375 
Q 18.3125 60.0625 18.3125 54.390625 
z
" id="DejaVuSans-56"/>
     <path d="M 10.6875 12.40625 
L 21 12.40625 
L 21 0 
L 10.6875 0 
z
" id="DejaVuSans-46"/>
     <path d="M 12.40625 8.296875 
L 28.515625 8.296875 
L 28.515625 63.921875 
L 10.984375 60.40625 
L 10.984375 69.390625 
L 28.421875 72.90625 
L 38.28125 72.90625 
L 38.28125 8.296875 
L 54.390625 8.296875 
L 54.390625 0 
L 12.40625 0 
z
" id="DejaVuSans-49"/>
    </defs>
    <g transform="translate(215.424375 49.296)scale(0.12 -0.12)">
     <use xlink:href="#DejaVuSans-116"/>
     <use x="39.208984" xlink:href="#DejaVuSans-32"/>
     <use x="70.996094" xlink:href="#DejaVuSans-61"/>
     <use x="154.785156" xlink:href="#DejaVuSans-32"/>
     <use x="186.572266" xlink:href="#DejaVuSans-56"/>
     <use x="250.195312" xlink:href="#DejaVuSans-46"/>
     <use x="281.982422" xlink:href="#DejaVuSans-49"/>
    </g>
   </g>
  </g>
 </g>
 <defs>
  <clipPath id="pe9279f4c41">
   <rect height="354.816" width="357.12" x="57.6" y="55.296"/>
  </clipPath>
 </defs>
</svg>
