<?xml version="1.0" encoding="utf-8" standalone="no"?>
<!DOCTYPE svg PUBLIC "-//W3C//DTD SVG 1.1//EN"
  "http://www.w3.org/Graphics/SVG/1.1/DTD/svg11.dtd">
<!-- Created with matplotlib (https://matplotlib.org/) -->
<svg height="460.8pt" version="1.1" viewBox="0 0 460.8 460.8" width="460.8pt" xmlns="http://www.w3.org/2000/svg" xmlns:xlink="http://www.w3.org/1999/xlink">
 <defs>
  <style type="text/css">
*{stroke-linecap:butt;stroke-linejoin:round;}
  </style>
 </defs>
 <g id="figure_1">
  <g id="patch_1">
   <path d="M 0 460.8 
L 460.8 460.8 
L 460.8 0 
L 0 0 
z
" style="fill:#ffffff;"/>
  </g>
  <g id="axes_1">
   <g id="patch_2">
    <path clip-path="url(#p22bc1ed84d)" d="M 119.228481 289.438738 
L 118.268981 290.925158 
L 117.883735 292.279573 
L 117.78491 294.043268 
L 118.068954 295.402588 
L 118.854999 297.011743 
L 119.738789 298.043158 
L 121.217253 299.103796 
L 122.484407 299.554782 
L 124.29331 299.807221 
L 125.633584 299.567359 
L 127.330044 298.949794 
L 128.415292 298.077811 
L 129.583957 296.741444 
L 130.148472 295.450832 
L 130.503211 293.722851 
L 130.408781 292.329596 
L 129.862742 290.633072 
L 128.852424 289.143494 
L 127.832788 288.256085 
L 126.218579 287.405738 
L 124.896923 287.146367 
L 123.074039 287.143445 
L 121.77395 287.575617 
L 120.188695 288.420836 
L 120.188695 288.420836 
L 120.188695 288.420836 
L 120.188695 288.420836 
L 120.188695 288.420836 
L 120.188695 288.420836 
L 120.188695 288.420836 
L 120.188695 288.420836 
L 120.188695 288.420836 
L 120.188695 288.420836 
L 120.188695 288.420836 
L 120.188695 288.420836 
L 120.188695 288.420836 
L 120.188695 288.420836 
L 120.188695 288.420836 
L 120.188695 288.420836 
L 120.188695 288.420836 
L 120.188695 288.420836 
L 120.188695 288.420836 
L 120.188695 288.420836 
L 120.188695 288.420836 
L 120.188695 288.420836 
L 120.188695 288.420836 
L 120.188695 288.420836 
L 120.188695 288.420836 
L 120.188695 288.420836 
L 120.188695 288.420836 
L 120.188695 288.420836 
L 120.188695 288.420836 
L 120.188695 288.420836 
L 120.188695 288.420836 
L 120.188695 288.420836 
L 120.188695 288.420836 
L 120.188695 288.420836 
L 120.188695 288.420836 
L 120.188695 288.420836 
L 120.188695 288.420836 
L 120.188695 288.420836 
L 120.188695 288.420836 
L 120.188695 288.420836 
L 120.188695 288.420836 
L 120.188695 288.420836 
L 120.188695 288.420836 
L 120.188695 288.420836 
L 120.188695 288.420836 
L 120.188695 288.420836 
L 120.188695 288.420836 
L 120.188695 288.420836 
L 120.188695 288.420836 
L 120.188695 288.420836 
L 120.188695 288.420836 
L 120.188695 288.420836 
L 120.188695 288.420836 
L 120.188695 288.420836 
L 120.188695 288.420836 
L 120.188695 288.420836 
L 120.188695 288.420836 
L 120.188695 288.420836 
L 120.188695 288.420836 
L 120.188695 288.420836 
L 120.188695 288.420836 
L 120.188695 288.420836 
L 120.188695 288.420836 
L 120.188695 288.420836 
L 120.188695 288.420836 
L 120.188695 288.420836 
L 120.188695 288.420836 
L 120.188695 288.420836 
L 120.188695 288.420836 
L 120.188695 288.420836 
L 120.188695 288.420836 
L 120.188695 288.420836 
L 120.188695 288.420836 
L 120.188695 288.420836 
L 120.188695 288.420836 
L 120.188695 288.420836 
L 120.188695 288.420836 
L 120.188695 288.420836 
L 120.188695 288.420836 
L 120.188695 288.420836 
L 120.188695 288.420836 
L 120.188695 288.420836 
L 120.188695 288.420836 
L 120.188695 288.420836 
L 120.188695 288.420836 
L 120.188695 288.420836 
L 120.188695 288.420836 
L 120.188695 288.420836 
L 120.188695 288.420836 
L 120.188695 288.420836 
L 120.188695 288.420836 
L 120.188695 288.420836 
L 120.188695 288.420836 
L 120.188695 288.420836 
L 120.188695 288.420836 
L 120.188695 288.420836 
L 120.188695 288.420836 
L 120.188695 288.420836 
L 120.188695 288.420836 
L 120.188695 288.420836 
L 120.188695 288.420836 
L 120.188695 288.420836 
L 120.188695 288.420836 
L 120.188695 288.420836 
L 120.188695 288.420836 
L 120.188695 288.420836 
L 120.188695 288.420836 
L 120.188695 288.420836 
L 120.188695 288.420836 
L 120.188695 288.420836 
L 120.188695 288.420836 
L 120.188695 288.420836 
L 120.188695 288.420836 
L 120.188695 288.420836 
L 120.188695 288.420836 
L 120.188695 288.420836 
L 120.188695 288.420836 
L 120.188695 288.420836 
L 120.188695 288.420836 
L 120.188695 288.420836 
L 120.188695 288.420836 
L 120.188695 288.420836 
L 120.188695 288.420836 
L 120.188695 288.420836 
L 120.188695 288.420836 
L 120.188695 288.420836 
L 120.188695 288.420836 
L 120.188695 288.420836 
L 120.188695 288.420836 
L 120.188695 288.420836 
L 120.188695 288.420836 
L 120.188695 288.420836 
L 120.188695 288.420836 
L 120.188695 288.420836 
L 120.188695 288.420836 
L 120.188695 288.420836 
L 120.188695 288.420836 
L 120.188695 288.420836 
L 120.188695 288.420836 
L 120.188695 288.420836 
L 120.188695 288.420836 
L 120.188695 288.420836 
L 120.188695 288.420836 
L 120.188695 288.420836 
L 120.188695 288.420836 
z
" style="fill:#993333;stroke:#000000;stroke-linejoin:miter;"/>
   </g>
   <g id="patch_3">
    <path clip-path="url(#p22bc1ed84d)" d="M 181.154864 264.872169 
L 123.85444 292.862461 
L 124.412602 294.005105 
L 181.713027 266.014813 
L 181.713027 266.014813 
L 181.713027 266.014813 
L 181.713027 266.014813 
L 181.713027 266.014813 
L 181.713027 266.014813 
L 181.713027 266.014813 
L 181.713027 266.014813 
L 181.713027 266.014813 
L 181.713027 266.014813 
L 181.713027 266.014813 
L 181.713027 266.014813 
L 181.713027 266.014813 
L 181.713027 266.014813 
L 181.713027 266.014813 
L 181.713027 266.014813 
L 181.713027 266.014813 
L 181.713027 266.014813 
L 181.713027 266.014813 
L 181.713027 266.014813 
L 181.713027 266.014813 
L 181.713027 266.014813 
L 181.713027 266.014813 
L 181.713027 266.014813 
L 181.713027 266.014813 
L 181.713027 266.014813 
L 181.713027 266.014813 
L 181.713027 266.014813 
L 181.713027 266.014813 
L 181.713027 266.014813 
L 181.713027 266.014813 
L 181.713027 266.014813 
L 181.713027 266.014813 
L 181.713027 266.014813 
L 181.713027 266.014813 
L 181.713027 266.014813 
L 181.713027 266.014813 
L 181.713027 266.014813 
L 181.713027 266.014813 
L 181.713027 266.014813 
L 181.713027 266.014813 
L 181.713027 266.014813 
L 181.713027 266.014813 
L 181.713027 266.014813 
L 181.713027 266.014813 
L 181.713027 266.014813 
L 181.713027 266.014813 
L 181.713027 266.014813 
L 181.713027 266.014813 
z
" style="stroke:#000000;stroke-linejoin:miter;"/>
   </g>
   <g id="patch_4">
    <path clip-path="url(#p22bc1ed84d)" d="M 175.109056 264.822104 
L 175.159802 266.587836 
L 175.557832 267.918251 
L 176.4772 269.455134 
L 177.445084 270.408079 
L 179.007982 271.339829 
L 180.308748 271.68199 
L 182.132523 271.780484 
L 183.447698 271.428088 
L 185.085827 270.66921 
L 186.09341 269.708536 
L 187.144822 268.278086 
L 187.598122 266.94434 
L 187.805394 265.192542 
L 187.593427 263.812273 
L 186.905812 262.168028 
L 185.773091 260.769268 
L 184.682032 259.971307 
L 183.001668 259.260578 
L 181.662807 259.113956 
L 179.846211 259.265268 
L 178.587347 259.805883 
L 177.079285 260.782192 
L 176.208633 261.877682 
L 175.378331 263.439952 
L 175.378331 263.439952 
L 175.378331 263.439952 
L 175.378331 263.439952 
L 175.378331 263.439952 
L 175.378331 263.439952 
L 175.378331 263.439952 
L 175.378331 263.439952 
L 175.378331 263.439952 
L 175.378331 263.439952 
L 175.378331 263.439952 
L 175.378331 263.439952 
L 175.378331 263.439952 
L 175.378331 263.439952 
L 175.378331 263.439952 
L 175.378331 263.439952 
L 175.378331 263.439952 
L 175.378331 263.439952 
L 175.378331 263.439952 
L 175.378331 263.439952 
L 175.378331 263.439952 
L 175.378331 263.439952 
L 175.378331 263.439952 
L 175.378331 263.439952 
L 175.378331 263.439952 
L 175.378331 263.439952 
L 175.378331 263.439952 
L 175.378331 263.439952 
L 175.378331 263.439952 
L 175.378331 263.439952 
L 175.378331 263.439952 
L 175.378331 263.439952 
L 175.378331 263.439952 
L 175.378331 263.439952 
L 175.378331 263.439952 
L 175.378331 263.439952 
L 175.378331 263.439952 
L 175.378331 263.439952 
L 175.378331 263.439952 
L 175.378331 263.439952 
L 175.378331 263.439952 
L 175.378331 263.439952 
L 175.378331 263.439952 
L 175.378331 263.439952 
L 175.378331 263.439952 
L 175.378331 263.439952 
L 175.378331 263.439952 
L 175.378331 263.439952 
L 175.378331 263.439952 
L 175.378331 263.439952 
L 175.378331 263.439952 
L 175.378331 263.439952 
L 175.378331 263.439952 
L 175.378331 263.439952 
L 175.378331 263.439952 
L 175.378331 263.439952 
L 175.378331 263.439952 
L 175.378331 263.439952 
L 175.378331 263.439952 
L 175.378331 263.439952 
L 175.378331 263.439952 
L 175.378331 263.439952 
L 175.378331 263.439952 
L 175.378331 263.439952 
L 175.378331 263.439952 
L 175.378331 263.439952 
L 175.378331 263.439952 
L 175.378331 263.439952 
L 175.378331 263.439952 
L 175.378331 263.439952 
L 175.378331 263.439952 
L 175.378331 263.439952 
L 175.378331 263.439952 
L 175.378331 263.439952 
L 175.378331 263.439952 
L 175.378331 263.439952 
L 175.378331 263.439952 
L 175.378331 263.439952 
L 175.378331 263.439952 
L 175.378331 263.439952 
L 175.378331 263.439952 
L 175.378331 263.439952 
L 175.378331 263.439952 
L 175.378331 263.439952 
L 175.378331 263.439952 
L 175.378331 263.439952 
L 175.378331 263.439952 
L 175.378331 263.439952 
L 175.378331 263.439952 
L 175.378331 263.439952 
L 175.378331 263.439952 
L 175.378331 263.439952 
L 175.378331 263.439952 
L 175.378331 263.439952 
L 175.378331 263.439952 
L 175.378331 263.439952 
L 175.378331 263.439952 
L 175.378331 263.439952 
L 175.378331 263.439952 
L 175.378331 263.439952 
L 175.378331 263.439952 
L 175.378331 263.439952 
L 175.378331 263.439952 
L 175.378331 263.439952 
L 175.378331 263.439952 
L 175.378331 263.439952 
L 175.378331 263.439952 
L 175.378331 263.439952 
L 175.378331 263.439952 
L 175.378331 263.439952 
L 175.378331 263.439952 
L 175.378331 263.439952 
L 175.378331 263.439952 
L 175.378331 263.439952 
L 175.378331 263.439952 
L 175.378331 263.439952 
L 175.378331 263.439952 
L 175.378331 263.439952 
L 175.378331 263.439952 
L 175.378331 263.439952 
L 175.378331 263.439952 
L 175.378331 263.439952 
L 175.378331 263.439952 
L 175.378331 263.439952 
L 175.378331 263.439952 
L 175.378331 263.439952 
L 175.378331 263.439952 
L 175.378331 263.439952 
L 175.378331 263.439952 
L 175.378331 263.439952 
L 175.378331 263.439952 
L 175.378331 263.439952 
L 175.378331 263.439952 
L 175.378331 263.439952 
L 175.378331 263.439952 
L 175.378331 263.439952 
L 175.378331 263.439952 
L 175.378331 263.439952 
L 175.378331 263.439952 
L 175.378331 263.439952 
L 175.378331 263.439952 
L 175.378331 263.439952 
L 175.378331 263.439952 
L 175.378331 263.439952 
L 175.378331 263.439952 
z
" style="fill:#993333;stroke:#000000;stroke-linejoin:miter;"/>
   </g>
   <g id="patch_5">
    <path clip-path="url(#p22bc1ed84d)" d="M 235.834544 232.159944 
L 181.107668 264.897753 
L 181.760502 265.989078 
L 236.487378 233.251269 
L 236.487378 233.251269 
L 236.487378 233.251269 
L 236.487378 233.251269 
L 236.487378 233.251269 
L 236.487378 233.251269 
L 236.487378 233.251269 
L 236.487378 233.251269 
L 236.487378 233.251269 
L 236.487378 233.251269 
L 236.487378 233.251269 
L 236.487378 233.251269 
L 236.487378 233.251269 
L 236.487378 233.251269 
L 236.487378 233.251269 
L 236.487378 233.251269 
L 236.487378 233.251269 
L 236.487378 233.251269 
L 236.487378 233.251269 
L 236.487378 233.251269 
L 236.487378 233.251269 
L 236.487378 233.251269 
L 236.487378 233.251269 
L 236.487378 233.251269 
L 236.487378 233.251269 
L 236.487378 233.251269 
L 236.487378 233.251269 
L 236.487378 233.251269 
L 236.487378 233.251269 
L 236.487378 233.251269 
L 236.487378 233.251269 
L 236.487378 233.251269 
L 236.487378 233.251269 
L 236.487378 233.251269 
L 236.487378 233.251269 
L 236.487378 233.251269 
L 236.487378 233.251269 
L 236.487378 233.251269 
L 236.487378 233.251269 
L 236.487378 233.251269 
L 236.487378 233.251269 
L 236.487378 233.251269 
L 236.487378 233.251269 
L 236.487378 233.251269 
L 236.487378 233.251269 
L 236.487378 233.251269 
L 236.487378 233.251269 
L 236.487378 233.251269 
L 236.487378 233.251269 
z
" style="stroke:#000000;stroke-linejoin:miter;"/>
   </g>
   <g id="text_1">
    <!-- t = 8.6 -->
    <defs>
     <path d="M 18.3125 70.21875 
L 18.3125 54.6875 
L 36.8125 54.6875 
L 36.8125 47.703125 
L 18.3125 47.703125 
L 18.3125 18.015625 
Q 18.3125 11.328125 20.140625 9.421875 
Q 21.96875 7.515625 27.59375 7.515625 
L 36.8125 7.515625 
L 36.8125 0 
L 27.59375 0 
Q 17.1875 0 13.234375 3.875 
Q 9.28125 7.765625 9.28125 18.015625 
L 9.28125 47.703125 
L 2.6875 47.703125 
L 2.6875 54.6875 
L 9.28125 54.6875 
L 9.28125 70.21875 
z
" id="DejaVuSans-116"/>
     <path id="DejaVuSans-32"/>
     <path d="M 10.59375 45.40625 
L 73.1875 45.40625 
L 73.1875 37.203125 
L 10.59375 37.203125 
z
M 10.59375 25.484375 
L 73.1875 25.484375 
L 73.1875 17.1875 
L 10.59375 17.1875 
z
" id="DejaVuSans-61"/>
     <path d="M 31.78125 34.625 
Q 24.75 34.625 20.71875 30.859375 
Q 16.703125 27.09375 16.703125 20.515625 
Q 16.703125 13.921875 20.71875 10.15625 
Q 24.75 6.390625 31.78125 6.390625 
Q 38.8125 6.390625 42.859375 10.171875 
Q 46.921875 13.96875 46.921875 20.515625 
Q 46.921875 27.09375 42.890625 30.859375 
Q 38.875 34.625 31.78125 34.625 
z
M 21.921875 38.8125 
Q 15.578125 40.375 12.03125 44.71875 
Q 8.5 49.078125 8.5 55.328125 
Q 8.5 64.0625 14.71875 69.140625 
Q 20.953125 74.21875 31.78125 74.21875 
Q 42.671875 74.21875 48.875 69.140625 
Q 55.078125 64.0625 55.078125 55.328125 
Q 55.078125 49.078125 51.53125 44.71875 
Q 48 40.375 41.703125 38.8125 
Q 48.828125 37.15625 52.796875 32.3125 
Q 56.78125 27.484375 56.78125 20.515625 
Q 56.78125 9.90625 50.3125 4.234375 
Q 43.84375 -1.421875 31.78125 -1.421875 
Q 19.734375 -1.421875 13.25 4.234375 
Q 6.78125 9.90625 6.78125 20.515625 
Q 6.78125 27.484375 10.78125 32.3125 
Q 14.796875 37.15625 21.921875 38.8125 
z
M 18.3125 54.390625 
Q 18.3125 48.734375 21.84375 45.5625 
Q 25.390625 42.390625 31.78125 42.390625 
Q 38.140625 42.390625 41.71875 45.5625 
Q 45.3125 48.734375 45.3125 54.390625 
Q 45.3125 60.0625 41.71875 63.234375 
Q 38.140625 66.40625 31.78125 66.40625 
Q 25.390625 66.40625 21.84375 63.234375 
Q 18.3125 60.0625 18.3125 54.390625 
z
" id="DejaVuSans-56"/>
     <path d="M 10.6875 12.40625 
L 21 12.40625 
L 21 0 
L 10.6875 0 
z
" id="DejaVuSans-46"/>
     <path d="M 33.015625 40.375 
Q 26.375 40.375 22.484375 35.828125 
Q 18.609375 31.296875 18.609375 23.390625 
Q 18.609375 15.53125 22.484375 10.953125 
Q 26.375 6.390625 33.015625 6.390625 
Q 39.65625 6.390625 43.53125 10.953125 
Q 47.40625 15.53125 47.40625 23.390625 
Q 47.40625 31.296875 43.53125 35.828125 
Q 39.65625 40.375 33.015625 40.375 
z
M 52.59375 71.296875 
L 52.59375 62.3125 
Q 48.875 64.0625 45.09375 64.984375 
Q 41.3125 65.921875 37.59375 65.921875 
Q 27.828125 65.921875 22.671875 59.328125 
Q 17.53125 52.734375 16.796875 39.40625 
Q 19.671875 43.65625 24.015625 45.921875 
Q 28.375 48.1875 33.59375 48.1875 
Q 44.578125 48.1875 50.953125 41.515625 
Q 57.328125 34.859375 57.328125 23.390625 
Q 57.328125 12.15625 50.6875 5.359375 
Q 44.046875 -1.421875 33.015625 -1.421875 
Q 20.359375 -1.421875 13.671875 8.265625 
Q 6.984375 17.96875 6.984375 36.375 
Q 6.984375 53.65625 15.1875 63.9375 
Q 23.390625 74.21875 37.203125 74.21875 
Q 40.921875 74.21875 44.703125 73.484375 
Q 48.484375 72.75 52.59375 71.296875 
z
" id="DejaVuSans-54"/>
    </defs>
    <g transform="translate(215.424375 49.296)scale(0.12 -0.12)">
     <use xlink:href="#DejaVuSans-116"/>
     <use x="39.208984" xlink:href="#DejaVuSans-32"/>
     <use x="70.996094" xlink:href="#DejaVuSans-61"/>
     <use x="154.785156" xlink:href="#DejaVuSans-32"/>
     <use x="186.572266" xlink:href="#DejaVuSans-56"/>
     <use x="250.195312" xlink:href="#DejaVuSans-46"/>
     <use x="281.982422" xlink:href="#DejaVuSans-54"/>
    </g>
   </g>
  </g>
 </g>
 <defs>
  <clipPath id="p22bc1ed84d">
   <rect height="354.816" width="357.12" x="57.6" y="55.296"/>
  </clipPath>
 </defs>
</svg>
