<?xml version="1.0" encoding="utf-8" standalone="no"?>
<!DOCTYPE svg PUBLIC "-//W3C//DTD SVG 1.1//EN"
  "http://www.w3.org/Graphics/SVG/1.1/DTD/svg11.dtd">
<!-- Created with matplotlib (https://matplotlib.org/) -->
<svg height="460.8pt" version="1.1" viewBox="0 0 460.8 460.8" width="460.8pt" xmlns="http://www.w3.org/2000/svg" xmlns:xlink="http://www.w3.org/1999/xlink">
 <defs>
  <style type="text/css">
*{stroke-linecap:butt;stroke-linejoin:round;}
  </style>
 </defs>
 <g id="figure_1">
  <g id="patch_1">
   <path d="M 0 460.8 
L 460.8 460.8 
L 460.8 0 
L 0 0 
z
" style="fill:#ffffff;"/>
  </g>
  <g id="axes_1">
   <g id="patch_2">
    <path clip-path="url(#p7b65eaf182)" d="M 124.805128 304.776297 
L 124.945227 306.537194 
L 125.41012 307.845745 
L 126.406139 309.334098 
L 127.421039 310.236805 
L 129.029117 311.088213 
L 130.345541 311.364063 
L 132.171964 311.370072 
L 133.467605 310.951526 
L 135.065202 310.110665 
L 136.022843 309.100199 
L 137.000465 307.618339 
L 137.385641 306.263349 
L 137.503934 304.503302 
L 137.222341 303.135538 
L 136.452342 301.528225 
L 135.250239 300.188622 
L 134.120171 299.446937 
L 132.40597 298.822215 
L 131.061402 298.743583 
L 129.254799 298.986696 
L 128.024928 299.590368 
L 126.568243 300.641793 
L 125.754184 301.77997 
L 125.004063 303.382282 
L 125.004063 303.382282 
L 125.004063 303.382282 
L 125.004063 303.382282 
L 125.004063 303.382282 
L 125.004063 303.382282 
L 125.004063 303.382282 
L 125.004063 303.382282 
L 125.004063 303.382282 
L 125.004063 303.382282 
L 125.004063 303.382282 
L 125.004063 303.382282 
L 125.004063 303.382282 
L 125.004063 303.382282 
L 125.004063 303.382282 
L 125.004063 303.382282 
L 125.004063 303.382282 
L 125.004063 303.382282 
L 125.004063 303.382282 
L 125.004063 303.382282 
L 125.004063 303.382282 
L 125.004063 303.382282 
L 125.004063 303.382282 
L 125.004063 303.382282 
L 125.004063 303.382282 
L 125.004063 303.382282 
L 125.004063 303.382282 
L 125.004063 303.382282 
L 125.004063 303.382282 
L 125.004063 303.382282 
L 125.004063 303.382282 
L 125.004063 303.382282 
L 125.004063 303.382282 
L 125.004063 303.382282 
L 125.004063 303.382282 
L 125.004063 303.382282 
L 125.004063 303.382282 
L 125.004063 303.382282 
L 125.004063 303.382282 
L 125.004063 303.382282 
L 125.004063 303.382282 
L 125.004063 303.382282 
L 125.004063 303.382282 
L 125.004063 303.382282 
L 125.004063 303.382282 
L 125.004063 303.382282 
L 125.004063 303.382282 
L 125.004063 303.382282 
L 125.004063 303.382282 
L 125.004063 303.382282 
L 125.004063 303.382282 
L 125.004063 303.382282 
L 125.004063 303.382282 
L 125.004063 303.382282 
L 125.004063 303.382282 
L 125.004063 303.382282 
L 125.004063 303.382282 
L 125.004063 303.382282 
L 125.004063 303.382282 
L 125.004063 303.382282 
L 125.004063 303.382282 
L 125.004063 303.382282 
L 125.004063 303.382282 
L 125.004063 303.382282 
L 125.004063 303.382282 
L 125.004063 303.382282 
L 125.004063 303.382282 
L 125.004063 303.382282 
L 125.004063 303.382282 
L 125.004063 303.382282 
L 125.004063 303.382282 
L 125.004063 303.382282 
L 125.004063 303.382282 
L 125.004063 303.382282 
L 125.004063 303.382282 
L 125.004063 303.382282 
L 125.004063 303.382282 
L 125.004063 303.382282 
L 125.004063 303.382282 
L 125.004063 303.382282 
L 125.004063 303.382282 
L 125.004063 303.382282 
L 125.004063 303.382282 
L 125.004063 303.382282 
L 125.004063 303.382282 
L 125.004063 303.382282 
L 125.004063 303.382282 
L 125.004063 303.382282 
L 125.004063 303.382282 
L 125.004063 303.382282 
L 125.004063 303.382282 
L 125.004063 303.382282 
L 125.004063 303.382282 
L 125.004063 303.382282 
L 125.004063 303.382282 
L 125.004063 303.382282 
L 125.004063 303.382282 
L 125.004063 303.382282 
L 125.004063 303.382282 
L 125.004063 303.382282 
L 125.004063 303.382282 
L 125.004063 303.382282 
L 125.004063 303.382282 
L 125.004063 303.382282 
L 125.004063 303.382282 
L 125.004063 303.382282 
L 125.004063 303.382282 
L 125.004063 303.382282 
L 125.004063 303.382282 
L 125.004063 303.382282 
L 125.004063 303.382282 
L 125.004063 303.382282 
L 125.004063 303.382282 
L 125.004063 303.382282 
L 125.004063 303.382282 
L 125.004063 303.382282 
L 125.004063 303.382282 
L 125.004063 303.382282 
L 125.004063 303.382282 
L 125.004063 303.382282 
L 125.004063 303.382282 
L 125.004063 303.382282 
L 125.004063 303.382282 
L 125.004063 303.382282 
L 125.004063 303.382282 
L 125.004063 303.382282 
L 125.004063 303.382282 
L 125.004063 303.382282 
L 125.004063 303.382282 
L 125.004063 303.382282 
L 125.004063 303.382282 
L 125.004063 303.382282 
L 125.004063 303.382282 
L 125.004063 303.382282 
L 125.004063 303.382282 
L 125.004063 303.382282 
L 125.004063 303.382282 
L 125.004063 303.382282 
L 125.004063 303.382282 
L 125.004063 303.382282 
L 125.004063 303.382282 
L 125.004063 303.382282 
L 125.004063 303.382282 
L 125.004063 303.382282 
L 125.004063 303.382282 
z
" style="fill:#993333;stroke:#000000;stroke-linejoin:miter;"/>
   </g>
   <g id="patch_3">
    <path clip-path="url(#p7b65eaf182)" d="M 130.799874 304.548072 
L 131.507136 305.604937 
L 184.505911 270.137698 
L 183.798648 269.080833 
L 183.798648 269.080833 
L 183.798648 269.080833 
L 183.798648 269.080833 
L 183.798648 269.080833 
L 183.798648 269.080833 
L 183.798648 269.080833 
L 183.798648 269.080833 
L 183.798648 269.080833 
L 183.798648 269.080833 
L 183.798648 269.080833 
L 183.798648 269.080833 
L 183.798648 269.080833 
L 183.798648 269.080833 
L 183.798648 269.080833 
L 183.798648 269.080833 
L 183.798648 269.080833 
L 183.798648 269.080833 
L 183.798648 269.080833 
L 183.798648 269.080833 
L 183.798648 269.080833 
L 183.798648 269.080833 
L 183.798648 269.080833 
L 183.798648 269.080833 
L 183.798648 269.080833 
L 183.798648 269.080833 
L 183.798648 269.080833 
L 183.798648 269.080833 
L 183.798648 269.080833 
L 183.798648 269.080833 
L 183.798648 269.080833 
L 183.798648 269.080833 
L 183.798648 269.080833 
L 183.798648 269.080833 
L 183.798648 269.080833 
L 183.798648 269.080833 
L 183.798648 269.080833 
L 183.798648 269.080833 
L 183.798648 269.080833 
L 183.798648 269.080833 
L 183.798648 269.080833 
L 183.798648 269.080833 
L 183.798648 269.080833 
L 183.798648 269.080833 
L 183.798648 269.080833 
L 183.798648 269.080833 
L 183.798648 269.080833 
L 183.798648 269.080833 
L 183.798648 269.080833 
z
" style="stroke:#000000;stroke-linejoin:miter;"/>
   </g>
   <g id="patch_4">
    <path clip-path="url(#p7b65eaf182)" d="M 177.798108 269.482797 
L 177.986323 271.239202 
L 178.486836 272.534547 
L 179.523195 273.995097 
L 180.562408 274.869705 
L 182.193174 275.676807 
L 183.516651 275.916544 
L 185.342555 275.872589 
L 186.626263 275.418759 
L 188.20026 274.534511 
L 189.129902 273.498228 
L 190.066624 271.99018 
L 190.414591 270.625161 
L 190.484695 268.862537 
L 190.165793 267.502988 
L 189.352114 265.917339 
L 188.113818 264.61112 
L 186.963884 263.900625 
L 185.233236 263.323027 
L 183.88702 263.281204 
L 182.087744 263.573645 
L 180.874846 264.210733 
L 179.447466 265.301611 
L 178.664847 266.46163 
L 177.958837 268.083861 
L 177.958837 268.083861 
L 177.958837 268.083861 
L 177.958837 268.083861 
L 177.958837 268.083861 
L 177.958837 268.083861 
L 177.958837 268.083861 
L 177.958837 268.083861 
L 177.958837 268.083861 
L 177.958837 268.083861 
L 177.958837 268.083861 
L 177.958837 268.083861 
L 177.958837 268.083861 
L 177.958837 268.083861 
L 177.958837 268.083861 
L 177.958837 268.083861 
L 177.958837 268.083861 
L 177.958837 268.083861 
L 177.958837 268.083861 
L 177.958837 268.083861 
L 177.958837 268.083861 
L 177.958837 268.083861 
L 177.958837 268.083861 
L 177.958837 268.083861 
L 177.958837 268.083861 
L 177.958837 268.083861 
L 177.958837 268.083861 
L 177.958837 268.083861 
L 177.958837 268.083861 
L 177.958837 268.083861 
L 177.958837 268.083861 
L 177.958837 268.083861 
L 177.958837 268.083861 
L 177.958837 268.083861 
L 177.958837 268.083861 
L 177.958837 268.083861 
L 177.958837 268.083861 
L 177.958837 268.083861 
L 177.958837 268.083861 
L 177.958837 268.083861 
L 177.958837 268.083861 
L 177.958837 268.083861 
L 177.958837 268.083861 
L 177.958837 268.083861 
L 177.958837 268.083861 
L 177.958837 268.083861 
L 177.958837 268.083861 
L 177.958837 268.083861 
L 177.958837 268.083861 
L 177.958837 268.083861 
L 177.958837 268.083861 
L 177.958837 268.083861 
L 177.958837 268.083861 
L 177.958837 268.083861 
L 177.958837 268.083861 
L 177.958837 268.083861 
L 177.958837 268.083861 
L 177.958837 268.083861 
L 177.958837 268.083861 
L 177.958837 268.083861 
L 177.958837 268.083861 
L 177.958837 268.083861 
L 177.958837 268.083861 
L 177.958837 268.083861 
L 177.958837 268.083861 
L 177.958837 268.083861 
L 177.958837 268.083861 
L 177.958837 268.083861 
L 177.958837 268.083861 
L 177.958837 268.083861 
L 177.958837 268.083861 
L 177.958837 268.083861 
L 177.958837 268.083861 
L 177.958837 268.083861 
L 177.958837 268.083861 
L 177.958837 268.083861 
L 177.958837 268.083861 
L 177.958837 268.083861 
L 177.958837 268.083861 
L 177.958837 268.083861 
L 177.958837 268.083861 
L 177.958837 268.083861 
L 177.958837 268.083861 
L 177.958837 268.083861 
L 177.958837 268.083861 
L 177.958837 268.083861 
L 177.958837 268.083861 
L 177.958837 268.083861 
L 177.958837 268.083861 
L 177.958837 268.083861 
L 177.958837 268.083861 
L 177.958837 268.083861 
L 177.958837 268.083861 
L 177.958837 268.083861 
L 177.958837 268.083861 
L 177.958837 268.083861 
L 177.958837 268.083861 
L 177.958837 268.083861 
L 177.958837 268.083861 
L 177.958837 268.083861 
L 177.958837 268.083861 
L 177.958837 268.083861 
L 177.958837 268.083861 
L 177.958837 268.083861 
L 177.958837 268.083861 
L 177.958837 268.083861 
L 177.958837 268.083861 
L 177.958837 268.083861 
L 177.958837 268.083861 
L 177.958837 268.083861 
L 177.958837 268.083861 
L 177.958837 268.083861 
L 177.958837 268.083861 
L 177.958837 268.083861 
L 177.958837 268.083861 
L 177.958837 268.083861 
L 177.958837 268.083861 
L 177.958837 268.083861 
L 177.958837 268.083861 
L 177.958837 268.083861 
L 177.958837 268.083861 
L 177.958837 268.083861 
L 177.958837 268.083861 
L 177.958837 268.083861 
L 177.958837 268.083861 
L 177.958837 268.083861 
L 177.958837 268.083861 
L 177.958837 268.083861 
L 177.958837 268.083861 
L 177.958837 268.083861 
L 177.958837 268.083861 
L 177.958837 268.083861 
L 177.958837 268.083861 
L 177.958837 268.083861 
L 177.958837 268.083861 
L 177.958837 268.083861 
L 177.958837 268.083861 
L 177.958837 268.083861 
L 177.958837 268.083861 
L 177.958837 268.083861 
L 177.958837 268.083861 
L 177.958837 268.083861 
L 177.958837 268.083861 
L 177.958837 268.083861 
L 177.958837 268.083861 
z
" style="fill:#993333;stroke:#000000;stroke-linejoin:miter;"/>
   </g>
   <g id="patch_5">
    <path clip-path="url(#p7b65eaf182)" d="M 183.784367 269.090675 
L 184.520275 270.127797 
L 236.529037 233.224088 
L 235.793129 232.186965 
L 235.793129 232.186965 
L 235.793129 232.186965 
L 235.793129 232.186965 
L 235.793129 232.186965 
L 235.793129 232.186965 
L 235.793129 232.186965 
L 235.793129 232.186965 
L 235.793129 232.186965 
L 235.793129 232.186965 
L 235.793129 232.186965 
L 235.793129 232.186965 
L 235.793129 232.186965 
L 235.793129 232.186965 
L 235.793129 232.186965 
L 235.793129 232.186965 
L 235.793129 232.186965 
L 235.793129 232.186965 
L 235.793129 232.186965 
L 235.793129 232.186965 
L 235.793129 232.186965 
L 235.793129 232.186965 
L 235.793129 232.186965 
L 235.793129 232.186965 
L 235.793129 232.186965 
L 235.793129 232.186965 
L 235.793129 232.186965 
L 235.793129 232.186965 
L 235.793129 232.186965 
L 235.793129 232.186965 
L 235.793129 232.186965 
L 235.793129 232.186965 
L 235.793129 232.186965 
L 235.793129 232.186965 
L 235.793129 232.186965 
L 235.793129 232.186965 
L 235.793129 232.186965 
L 235.793129 232.186965 
L 235.793129 232.186965 
L 235.793129 232.186965 
L 235.793129 232.186965 
L 235.793129 232.186965 
L 235.793129 232.186965 
L 235.793129 232.186965 
L 235.793129 232.186965 
L 235.793129 232.186965 
L 235.793129 232.186965 
L 235.793129 232.186965 
L 235.793129 232.186965 
z
" style="stroke:#000000;stroke-linejoin:miter;"/>
   </g>
   <g id="text_1">
    <!-- t = 3.2 -->
    <defs>
     <path d="M 18.3125 70.21875 
L 18.3125 54.6875 
L 36.8125 54.6875 
L 36.8125 47.703125 
L 18.3125 47.703125 
L 18.3125 18.015625 
Q 18.3125 11.328125 20.140625 9.421875 
Q 21.96875 7.515625 27.59375 7.515625 
L 36.8125 7.515625 
L 36.8125 0 
L 27.59375 0 
Q 17.1875 0 13.234375 3.875 
Q 9.28125 7.765625 9.28125 18.015625 
L 9.28125 47.703125 
L 2.6875 47.703125 
L 2.6875 54.6875 
L 9.28125 54.6875 
L 9.28125 70.21875 
z
" id="DejaVuSans-116"/>
     <path id="DejaVuSans-32"/>
     <path d="M 10.59375 45.40625 
L 73.1875 45.40625 
L 73.1875 37.203125 
L 10.59375 37.203125 
z
M 10.59375 25.484375 
L 73.1875 25.484375 
L 73.1875 17.1875 
L 10.59375 17.1875 
z
" id="DejaVuSans-61"/>
     <path d="M 40.578125 39.3125 
Q 47.65625 37.796875 51.625 33 
Q 55.609375 28.21875 55.609375 21.1875 
Q 55.609375 10.40625 48.1875 4.484375 
Q 40.765625 -1.421875 27.09375 -1.421875 
Q 22.515625 -1.421875 17.65625 -0.515625 
Q 12.796875 0.390625 7.625 2.203125 
L 7.625 11.71875 
Q 11.71875 9.328125 16.59375 8.109375 
Q 21.484375 6.890625 26.8125 6.890625 
Q 36.078125 6.890625 40.9375 10.546875 
Q 45.796875 14.203125 45.796875 21.1875 
Q 45.796875 27.640625 41.28125 31.265625 
Q 36.765625 34.90625 28.71875 34.90625 
L 20.21875 34.90625 
L 20.21875 43.015625 
L 29.109375 43.015625 
Q 36.375 43.015625 40.234375 45.921875 
Q 44.09375 48.828125 44.09375 54.296875 
Q 44.09375 59.90625 40.109375 62.90625 
Q 36.140625 65.921875 28.71875 65.921875 
Q 24.65625 65.921875 20.015625 65.03125 
Q 15.375 64.15625 9.8125 62.3125 
L 9.8125 71.09375 
Q 15.4375 72.65625 20.34375 73.4375 
Q 25.25 74.21875 29.59375 74.21875 
Q 40.828125 74.21875 47.359375 69.109375 
Q 53.90625 64.015625 53.90625 55.328125 
Q 53.90625 49.265625 50.4375 45.09375 
Q 46.96875 40.921875 40.578125 39.3125 
z
" id="DejaVuSans-51"/>
     <path d="M 10.6875 12.40625 
L 21 12.40625 
L 21 0 
L 10.6875 0 
z
" id="DejaVuSans-46"/>
     <path d="M 19.1875 8.296875 
L 53.609375 8.296875 
L 53.609375 0 
L 7.328125 0 
L 7.328125 8.296875 
Q 12.9375 14.109375 22.625 23.890625 
Q 32.328125 33.6875 34.8125 36.53125 
Q 39.546875 41.84375 41.421875 45.53125 
Q 43.3125 49.21875 43.3125 52.78125 
Q 43.3125 58.59375 39.234375 62.25 
Q 35.15625 65.921875 28.609375 65.921875 
Q 23.96875 65.921875 18.8125 64.3125 
Q 13.671875 62.703125 7.8125 59.421875 
L 7.8125 69.390625 
Q 13.765625 71.78125 18.9375 73 
Q 24.125 74.21875 28.421875 74.21875 
Q 39.75 74.21875 46.484375 68.546875 
Q 53.21875 62.890625 53.21875 53.421875 
Q 53.21875 48.921875 51.53125 44.890625 
Q 49.859375 40.875 45.40625 35.40625 
Q 44.1875 33.984375 37.640625 27.21875 
Q 31.109375 20.453125 19.1875 8.296875 
z
" id="DejaVuSans-50"/>
    </defs>
    <g transform="translate(215.424375 49.296)scale(0.12 -0.12)">
     <use xlink:href="#DejaVuSans-116"/>
     <use x="39.208984" xlink:href="#DejaVuSans-32"/>
     <use x="70.996094" xlink:href="#DejaVuSans-61"/>
     <use x="154.785156" xlink:href="#DejaVuSans-32"/>
     <use x="186.572266" xlink:href="#DejaVuSans-51"/>
     <use x="250.195312" xlink:href="#DejaVuSans-46"/>
     <use x="281.982422" xlink:href="#DejaVuSans-50"/>
    </g>
   </g>
  </g>
 </g>
 <defs>
  <clipPath id="p7b65eaf182">
   <rect height="354.816" width="357.12" x="57.6" y="55.296"/>
  </clipPath>
 </defs>
</svg>
