<?xml version="1.0" encoding="utf-8" standalone="no"?>
<!DOCTYPE svg PUBLIC "-//W3C//DTD SVG 1.1//EN"
  "http://www.w3.org/Graphics/SVG/1.1/DTD/svg11.dtd">
<!-- Created with matplotlib (https://matplotlib.org/) -->
<svg height="460.8pt" version="1.1" viewBox="0 0 460.8 460.8" width="460.8pt" xmlns="http://www.w3.org/2000/svg" xmlns:xlink="http://www.w3.org/1999/xlink">
 <defs>
  <style type="text/css">
*{stroke-linecap:butt;stroke-linejoin:round;}
  </style>
 </defs>
 <g id="figure_1">
  <g id="patch_1">
   <path d="M 0 460.8 
L 460.8 460.8 
L 460.8 0 
L 0 0 
z
" style="fill:#ffffff;"/>
  </g>
  <g id="axes_1">
   <g id="patch_2">
    <path clip-path="url(#p31c7b1a71f)" d="M 348.875937 274.466978 
L 348.731535 276.261061 
L 348.971304 277.591347 
L 349.697974 279.26488 
L 350.566383 280.2944 
L 351.986211 281.437643 
L 353.270644 281.914335 
L 355.036007 282.247383 
L 356.421989 282.054536 
L 358.100665 281.495847 
L 359.24886 280.680676 
L 360.429849 279.367036 
L 361.059138 278.129124 
L 361.453295 276.382159 
L 361.409607 275.024589 
L 360.920426 273.272017 
L 360.214457 272.12717 
L 358.961708 270.798081 
L 357.766304 270.146256 
L 356.056704 269.566057 
L 354.664541 269.566843 
L 352.916659 269.877588 
L 351.668588 270.530793 
L 350.310366 271.6564 
L 349.511958 272.802096 
L 349.511958 272.802096 
L 349.511958 272.802096 
L 349.511958 272.802096 
L 349.511958 272.802096 
L 349.511958 272.802096 
L 349.511958 272.802096 
L 349.511958 272.802096 
L 349.511958 272.802096 
L 349.511958 272.802096 
L 349.511958 272.802096 
L 349.511958 272.802096 
L 349.511958 272.802096 
L 349.511958 272.802096 
L 349.511958 272.802096 
L 349.511958 272.802096 
L 349.511958 272.802096 
L 349.511958 272.802096 
L 349.511958 272.802096 
L 349.511958 272.802096 
L 349.511958 272.802096 
L 349.511958 272.802096 
L 349.511958 272.802096 
L 349.511958 272.802096 
L 349.511958 272.802096 
L 349.511958 272.802096 
L 349.511958 272.802096 
L 349.511958 272.802096 
L 349.511958 272.802096 
L 349.511958 272.802096 
L 349.511958 272.802096 
L 349.511958 272.802096 
L 349.511958 272.802096 
L 349.511958 272.802096 
L 349.511958 272.802096 
L 349.511958 272.802096 
L 349.511958 272.802096 
L 349.511958 272.802096 
L 349.511958 272.802096 
L 349.511958 272.802096 
L 349.511958 272.802096 
L 349.511958 272.802096 
L 349.511958 272.802096 
L 349.511958 272.802096 
L 349.511958 272.802096 
L 349.511958 272.802096 
L 349.511958 272.802096 
L 349.511958 272.802096 
L 349.511958 272.802096 
L 349.511958 272.802096 
L 349.511958 272.802096 
L 349.511958 272.802096 
L 349.511958 272.802096 
L 349.511958 272.802096 
L 349.511958 272.802096 
L 349.511958 272.802096 
L 349.511958 272.802096 
L 349.511958 272.802096 
L 349.511958 272.802096 
L 349.511958 272.802096 
L 349.511958 272.802096 
L 349.511958 272.802096 
L 349.511958 272.802096 
L 349.511958 272.802096 
L 349.511958 272.802096 
L 349.511958 272.802096 
L 349.511958 272.802096 
L 349.511958 272.802096 
L 349.511958 272.802096 
L 349.511958 272.802096 
L 349.511958 272.802096 
L 349.511958 272.802096 
L 349.511958 272.802096 
L 349.511958 272.802096 
L 349.511958 272.802096 
L 349.511958 272.802096 
L 349.511958 272.802096 
L 349.511958 272.802096 
L 349.511958 272.802096 
L 349.511958 272.802096 
L 349.511958 272.802096 
L 349.511958 272.802096 
L 349.511958 272.802096 
L 349.511958 272.802096 
L 349.511958 272.802096 
L 349.511958 272.802096 
L 349.511958 272.802096 
L 349.511958 272.802096 
L 349.511958 272.802096 
L 349.511958 272.802096 
L 349.511958 272.802096 
L 349.511958 272.802096 
L 349.511958 272.802096 
L 349.511958 272.802096 
L 349.511958 272.802096 
L 349.511958 272.802096 
L 349.511958 272.802096 
L 349.511958 272.802096 
L 349.511958 272.802096 
L 349.511958 272.802096 
L 349.511958 272.802096 
L 349.511958 272.802096 
L 349.511958 272.802096 
L 349.511958 272.802096 
L 349.511958 272.802096 
L 349.511958 272.802096 
L 349.511958 272.802096 
L 349.511958 272.802096 
L 349.511958 272.802096 
L 349.511958 272.802096 
L 349.511958 272.802096 
L 349.511958 272.802096 
L 349.511958 272.802096 
L 349.511958 272.802096 
L 349.511958 272.802096 
L 349.511958 272.802096 
L 349.511958 272.802096 
L 349.511958 272.802096 
L 349.511958 272.802096 
L 349.511958 272.802096 
L 349.511958 272.802096 
L 349.511958 272.802096 
L 349.511958 272.802096 
L 349.511958 272.802096 
L 349.511958 272.802096 
L 349.511958 272.802096 
L 349.511958 272.802096 
L 349.511958 272.802096 
L 349.511958 272.802096 
L 349.511958 272.802096 
L 349.511958 272.802096 
L 349.511958 272.802096 
L 349.511958 272.802096 
L 349.511958 272.802096 
L 349.511958 272.802096 
L 349.511958 272.802096 
L 349.511958 272.802096 
L 349.511958 272.802096 
L 349.511958 272.802096 
L 349.511958 272.802096 
L 349.511958 272.802096 
L 349.511958 272.802096 
L 349.511958 272.802096 
L 349.511958 272.802096 
L 349.511958 272.802096 
z
" style="fill:#993333;stroke:#000000;stroke-linejoin:miter;"/>
   </g>
   <g id="patch_3">
    <path clip-path="url(#p31c7b1a71f)" d="M 292.749465 262.453442 
L 354.957177 276.488954 
L 355.237064 275.248452 
L 293.029351 261.212939 
L 293.029351 261.212939 
L 293.029351 261.212939 
L 293.029351 261.212939 
L 293.029351 261.212939 
L 293.029351 261.212939 
L 293.029351 261.212939 
L 293.029351 261.212939 
L 293.029351 261.212939 
L 293.029351 261.212939 
L 293.029351 261.212939 
L 293.029351 261.212939 
L 293.029351 261.212939 
L 293.029351 261.212939 
L 293.029351 261.212939 
L 293.029351 261.212939 
L 293.029351 261.212939 
L 293.029351 261.212939 
L 293.029351 261.212939 
L 293.029351 261.212939 
L 293.029351 261.212939 
L 293.029351 261.212939 
L 293.029351 261.212939 
L 293.029351 261.212939 
L 293.029351 261.212939 
L 293.029351 261.212939 
L 293.029351 261.212939 
L 293.029351 261.212939 
L 293.029351 261.212939 
L 293.029351 261.212939 
L 293.029351 261.212939 
L 293.029351 261.212939 
L 293.029351 261.212939 
L 293.029351 261.212939 
L 293.029351 261.212939 
L 293.029351 261.212939 
L 293.029351 261.212939 
L 293.029351 261.212939 
L 293.029351 261.212939 
L 293.029351 261.212939 
L 293.029351 261.212939 
L 293.029351 261.212939 
L 293.029351 261.212939 
L 293.029351 261.212939 
L 293.029351 261.212939 
L 293.029351 261.212939 
L 293.029351 261.212939 
L 293.029351 261.212939 
L 293.029351 261.212939 
z
" style="stroke:#000000;stroke-linejoin:miter;"/>
   </g>
   <g id="patch_4">
    <path clip-path="url(#p31c7b1a71f)" d="M 288.247866 257.468709 
L 287.216096 258.921915 
L 286.628081 260.623039 
L 286.527919 261.971044 
L 286.813473 263.773049 
L 287.397156 264.98687 
L 288.486365 266.448561 
L 289.610987 267.231011 
L 291.237175 267.994516 
L 292.627388 268.154025 
L 294.392408 268.032411 
L 295.70784 267.529925 
L 297.179554 266.552968 
L 298.098141 265.511513 
L 298.916221 263.918405 
L 299.213062 262.592966 
L 299.177214 260.773757 
L 298.77963 259.488847 
L 297.898631 257.888941 
L 296.903966 256.959151 
L 295.393515 255.970263 
L 294.045297 255.623238 
L 292.275206 255.48748 
L 290.903526 255.808184 
L 289.307174 256.558796 
L 289.307174 256.558796 
L 289.307174 256.558796 
L 289.307174 256.558796 
L 289.307174 256.558796 
L 289.307174 256.558796 
L 289.307174 256.558796 
L 289.307174 256.558796 
L 289.307174 256.558796 
L 289.307174 256.558796 
L 289.307174 256.558796 
L 289.307174 256.558796 
L 289.307174 256.558796 
L 289.307174 256.558796 
L 289.307174 256.558796 
L 289.307174 256.558796 
L 289.307174 256.558796 
L 289.307174 256.558796 
L 289.307174 256.558796 
L 289.307174 256.558796 
L 289.307174 256.558796 
L 289.307174 256.558796 
L 289.307174 256.558796 
L 289.307174 256.558796 
L 289.307174 256.558796 
L 289.307174 256.558796 
L 289.307174 256.558796 
L 289.307174 256.558796 
L 289.307174 256.558796 
L 289.307174 256.558796 
L 289.307174 256.558796 
L 289.307174 256.558796 
L 289.307174 256.558796 
L 289.307174 256.558796 
L 289.307174 256.558796 
L 289.307174 256.558796 
L 289.307174 256.558796 
L 289.307174 256.558796 
L 289.307174 256.558796 
L 289.307174 256.558796 
L 289.307174 256.558796 
L 289.307174 256.558796 
L 289.307174 256.558796 
L 289.307174 256.558796 
L 289.307174 256.558796 
L 289.307174 256.558796 
L 289.307174 256.558796 
L 289.307174 256.558796 
L 289.307174 256.558796 
L 289.307174 256.558796 
L 289.307174 256.558796 
L 289.307174 256.558796 
L 289.307174 256.558796 
L 289.307174 256.558796 
L 289.307174 256.558796 
L 289.307174 256.558796 
L 289.307174 256.558796 
L 289.307174 256.558796 
L 289.307174 256.558796 
L 289.307174 256.558796 
L 289.307174 256.558796 
L 289.307174 256.558796 
L 289.307174 256.558796 
L 289.307174 256.558796 
L 289.307174 256.558796 
L 289.307174 256.558796 
L 289.307174 256.558796 
L 289.307174 256.558796 
L 289.307174 256.558796 
L 289.307174 256.558796 
L 289.307174 256.558796 
L 289.307174 256.558796 
L 289.307174 256.558796 
L 289.307174 256.558796 
L 289.307174 256.558796 
L 289.307174 256.558796 
L 289.307174 256.558796 
L 289.307174 256.558796 
L 289.307174 256.558796 
L 289.307174 256.558796 
L 289.307174 256.558796 
L 289.307174 256.558796 
L 289.307174 256.558796 
L 289.307174 256.558796 
L 289.307174 256.558796 
L 289.307174 256.558796 
L 289.307174 256.558796 
L 289.307174 256.558796 
L 289.307174 256.558796 
L 289.307174 256.558796 
L 289.307174 256.558796 
L 289.307174 256.558796 
L 289.307174 256.558796 
L 289.307174 256.558796 
L 289.307174 256.558796 
L 289.307174 256.558796 
L 289.307174 256.558796 
L 289.307174 256.558796 
L 289.307174 256.558796 
L 289.307174 256.558796 
L 289.307174 256.558796 
L 289.307174 256.558796 
L 289.307174 256.558796 
L 289.307174 256.558796 
L 289.307174 256.558796 
L 289.307174 256.558796 
L 289.307174 256.558796 
L 289.307174 256.558796 
L 289.307174 256.558796 
L 289.307174 256.558796 
L 289.307174 256.558796 
L 289.307174 256.558796 
L 289.307174 256.558796 
L 289.307174 256.558796 
L 289.307174 256.558796 
L 289.307174 256.558796 
L 289.307174 256.558796 
L 289.307174 256.558796 
L 289.307174 256.558796 
L 289.307174 256.558796 
L 289.307174 256.558796 
L 289.307174 256.558796 
L 289.307174 256.558796 
L 289.307174 256.558796 
L 289.307174 256.558796 
L 289.307174 256.558796 
L 289.307174 256.558796 
L 289.307174 256.558796 
L 289.307174 256.558796 
L 289.307174 256.558796 
L 289.307174 256.558796 
L 289.307174 256.558796 
L 289.307174 256.558796 
L 289.307174 256.558796 
L 289.307174 256.558796 
L 289.307174 256.558796 
L 289.307174 256.558796 
L 289.307174 256.558796 
L 289.307174 256.558796 
L 289.307174 256.558796 
L 289.307174 256.558796 
L 289.307174 256.558796 
L 289.307174 256.558796 
L 289.307174 256.558796 
L 289.307174 256.558796 
z
" style="fill:#993333;stroke:#000000;stroke-linejoin:miter;"/>
   </g>
   <g id="patch_5">
    <path clip-path="url(#p31c7b1a71f)" d="M 235.8704 233.26796 
L 292.599396 262.398976 
L 293.180306 261.267726 
L 236.45131 232.13671 
L 236.45131 232.13671 
L 236.45131 232.13671 
L 236.45131 232.13671 
L 236.45131 232.13671 
L 236.45131 232.13671 
L 236.45131 232.13671 
L 236.45131 232.13671 
L 236.45131 232.13671 
L 236.45131 232.13671 
L 236.45131 232.13671 
L 236.45131 232.13671 
L 236.45131 232.13671 
L 236.45131 232.13671 
L 236.45131 232.13671 
L 236.45131 232.13671 
L 236.45131 232.13671 
L 236.45131 232.13671 
L 236.45131 232.13671 
L 236.45131 232.13671 
L 236.45131 232.13671 
L 236.45131 232.13671 
L 236.45131 232.13671 
L 236.45131 232.13671 
L 236.45131 232.13671 
L 236.45131 232.13671 
L 236.45131 232.13671 
L 236.45131 232.13671 
L 236.45131 232.13671 
L 236.45131 232.13671 
L 236.45131 232.13671 
L 236.45131 232.13671 
L 236.45131 232.13671 
L 236.45131 232.13671 
L 236.45131 232.13671 
L 236.45131 232.13671 
L 236.45131 232.13671 
L 236.45131 232.13671 
L 236.45131 232.13671 
L 236.45131 232.13671 
L 236.45131 232.13671 
L 236.45131 232.13671 
L 236.45131 232.13671 
L 236.45131 232.13671 
L 236.45131 232.13671 
L 236.45131 232.13671 
L 236.45131 232.13671 
L 236.45131 232.13671 
L 236.45131 232.13671 
z
" style="stroke:#000000;stroke-linejoin:miter;"/>
   </g>
   <g id="text_1">
    <!-- t = 4.2 -->
    <defs>
     <path d="M 18.3125 70.21875 
L 18.3125 54.6875 
L 36.8125 54.6875 
L 36.8125 47.703125 
L 18.3125 47.703125 
L 18.3125 18.015625 
Q 18.3125 11.328125 20.140625 9.421875 
Q 21.96875 7.515625 27.59375 7.515625 
L 36.8125 7.515625 
L 36.8125 0 
L 27.59375 0 
Q 17.1875 0 13.234375 3.875 
Q 9.28125 7.765625 9.28125 18.015625 
L 9.28125 47.703125 
L 2.6875 47.703125 
L 2.6875 54.6875 
L 9.28125 54.6875 
L 9.28125 70.21875 
z
" id="DejaVuSans-116"/>
     <path id="DejaVuSans-32"/>
     <path d="M 10.59375 45.40625 
L 73.1875 45.40625 
L 73.1875 37.203125 
L 10.59375 37.203125 
z
M 10.59375 25.484375 
L 73.1875 25.484375 
L 73.1875 17.1875 
L 10.59375 17.1875 
z
" id="DejaVuSans-61"/>
     <path d="M 37.796875 64.3125 
L 12.890625 25.390625 
L 37.796875 25.390625 
z
M 35.203125 72.90625 
L 47.609375 72.90625 
L 47.609375 25.390625 
L 58.015625 25.390625 
L 58.015625 17.1875 
L 47.609375 17.1875 
L 47.609375 0 
L 37.796875 0 
L 37.796875 17.1875 
L 4.890625 17.1875 
L 4.890625 26.703125 
z
" id="DejaVuSans-52"/>
     <path d="M 10.6875 12.40625 
L 21 12.40625 
L 21 0 
L 10.6875 0 
z
" id="DejaVuSans-46"/>
     <path d="M 19.1875 8.296875 
L 53.609375 8.296875 
L 53.609375 0 
L 7.328125 0 
L 7.328125 8.296875 
Q 12.9375 14.109375 22.625 23.890625 
Q 32.328125 33.6875 34.8125 36.53125 
Q 39.546875 41.84375 41.421875 45.53125 
Q 43.3125 49.21875 43.3125 52.78125 
Q 43.3125 58.59375 39.234375 62.25 
Q 35.15625 65.921875 28.609375 65.921875 
Q 23.96875 65.921875 18.8125 64.3125 
Q 13.671875 62.703125 7.8125 59.421875 
L 7.8125 69.390625 
Q 13.765625 71.78125 18.9375 73 
Q 24.125 74.21875 28.421875 74.21875 
Q 39.75 74.21875 46.484375 68.546875 
Q 53.21875 62.890625 53.21875 53.421875 
Q 53.21875 48.921875 51.53125 44.890625 
Q 49.859375 40.875 45.40625 35.40625 
Q 44.1875 33.984375 37.640625 27.21875 
Q 31.109375 20.453125 19.1875 8.296875 
z
" id="DejaVuSans-50"/>
    </defs>
    <g transform="translate(215.424375 49.296)scale(0.12 -0.12)">
     <use xlink:href="#DejaVuSans-116"/>
     <use x="39.208984" xlink:href="#DejaVuSans-32"/>
     <use x="70.996094" xlink:href="#DejaVuSans-61"/>
     <use x="154.785156" xlink:href="#DejaVuSans-32"/>
     <use x="186.572266" xlink:href="#DejaVuSans-52"/>
     <use x="250.195312" xlink:href="#DejaVuSans-46"/>
     <use x="281.982422" xlink:href="#DejaVuSans-50"/>
    </g>
   </g>
  </g>
 </g>
 <defs>
  <clipPath id="p31c7b1a71f">
   <rect height="354.816" width="357.12" x="57.6" y="55.296"/>
  </clipPath>
 </defs>
</svg>
