<?xml version="1.0" encoding="utf-8" standalone="no"?>
<!DOCTYPE svg PUBLIC "-//W3C//DTD SVG 1.1//EN"
  "http://www.w3.org/Graphics/SVG/1.1/DTD/svg11.dtd">
<!-- Created with matplotlib (https://matplotlib.org/) -->
<svg height="460.8pt" version="1.1" viewBox="0 0 460.8 460.8" width="460.8pt" xmlns="http://www.w3.org/2000/svg" xmlns:xlink="http://www.w3.org/1999/xlink">
 <defs>
  <style type="text/css">
*{stroke-linecap:butt;stroke-linejoin:round;}
  </style>
 </defs>
 <g id="figure_1">
  <g id="patch_1">
   <path d="M 0 460.8 
L 460.8 460.8 
L 460.8 0 
L 0 0 
z
" style="fill:#ffffff;"/>
  </g>
  <g id="axes_1">
   <g id="patch_2">
    <path clip-path="url(#p89515c9e3b)" d="M 342.006894 282.166399 
L 341.984437 283.966143 
L 342.313828 285.277117 
L 343.152268 286.897543 
L 344.088467 287.86583 
L 345.582525 288.910199 
L 346.896316 289.298729 
L 348.680194 289.511345 
L 350.049916 289.224992 
L 351.68686 288.553798 
L 352.777157 287.662671 
L 353.866384 286.271999 
L 354.410314 284.994277 
L 354.685144 283.224612 
L 354.549533 281.873127 
L 353.942679 280.157744 
L 353.160729 279.063386 
L 351.820769 277.822271 
L 350.58393 277.252977 
L 348.838933 276.789999 
L 347.450026 276.885151 
L 345.727228 277.313663 
L 344.526305 278.049966 
L 343.247508 279.265052 
L 342.528597 280.462233 
L 342.528597 280.462233 
L 342.528597 280.462233 
L 342.528597 280.462233 
L 342.528597 280.462233 
L 342.528597 280.462233 
L 342.528597 280.462233 
L 342.528597 280.462233 
L 342.528597 280.462233 
L 342.528597 280.462233 
L 342.528597 280.462233 
L 342.528597 280.462233 
L 342.528597 280.462233 
L 342.528597 280.462233 
L 342.528597 280.462233 
L 342.528597 280.462233 
L 342.528597 280.462233 
L 342.528597 280.462233 
L 342.528597 280.462233 
L 342.528597 280.462233 
L 342.528597 280.462233 
L 342.528597 280.462233 
L 342.528597 280.462233 
L 342.528597 280.462233 
L 342.528597 280.462233 
L 342.528597 280.462233 
L 342.528597 280.462233 
L 342.528597 280.462233 
L 342.528597 280.462233 
L 342.528597 280.462233 
L 342.528597 280.462233 
L 342.528597 280.462233 
L 342.528597 280.462233 
L 342.528597 280.462233 
L 342.528597 280.462233 
L 342.528597 280.462233 
L 342.528597 280.462233 
L 342.528597 280.462233 
L 342.528597 280.462233 
L 342.528597 280.462233 
L 342.528597 280.462233 
L 342.528597 280.462233 
L 342.528597 280.462233 
L 342.528597 280.462233 
L 342.528597 280.462233 
L 342.528597 280.462233 
L 342.528597 280.462233 
L 342.528597 280.462233 
L 342.528597 280.462233 
L 342.528597 280.462233 
L 342.528597 280.462233 
L 342.528597 280.462233 
L 342.528597 280.462233 
L 342.528597 280.462233 
L 342.528597 280.462233 
L 342.528597 280.462233 
L 342.528597 280.462233 
L 342.528597 280.462233 
L 342.528597 280.462233 
L 342.528597 280.462233 
L 342.528597 280.462233 
L 342.528597 280.462233 
L 342.528597 280.462233 
L 342.528597 280.462233 
L 342.528597 280.462233 
L 342.528597 280.462233 
L 342.528597 280.462233 
L 342.528597 280.462233 
L 342.528597 280.462233 
L 342.528597 280.462233 
L 342.528597 280.462233 
L 342.528597 280.462233 
L 342.528597 280.462233 
L 342.528597 280.462233 
L 342.528597 280.462233 
L 342.528597 280.462233 
L 342.528597 280.462233 
L 342.528597 280.462233 
L 342.528597 280.462233 
L 342.528597 280.462233 
L 342.528597 280.462233 
L 342.528597 280.462233 
L 342.528597 280.462233 
L 342.528597 280.462233 
L 342.528597 280.462233 
L 342.528597 280.462233 
L 342.528597 280.462233 
L 342.528597 280.462233 
L 342.528597 280.462233 
L 342.528597 280.462233 
L 342.528597 280.462233 
L 342.528597 280.462233 
L 342.528597 280.462233 
L 342.528597 280.462233 
L 342.528597 280.462233 
L 342.528597 280.462233 
L 342.528597 280.462233 
L 342.528597 280.462233 
L 342.528597 280.462233 
L 342.528597 280.462233 
L 342.528597 280.462233 
L 342.528597 280.462233 
L 342.528597 280.462233 
L 342.528597 280.462233 
L 342.528597 280.462233 
L 342.528597 280.462233 
L 342.528597 280.462233 
L 342.528597 280.462233 
L 342.528597 280.462233 
L 342.528597 280.462233 
L 342.528597 280.462233 
L 342.528597 280.462233 
L 342.528597 280.462233 
L 342.528597 280.462233 
L 342.528597 280.462233 
L 342.528597 280.462233 
L 342.528597 280.462233 
L 342.528597 280.462233 
L 342.528597 280.462233 
L 342.528597 280.462233 
L 342.528597 280.462233 
L 342.528597 280.462233 
L 342.528597 280.462233 
L 342.528597 280.462233 
L 342.528597 280.462233 
L 342.528597 280.462233 
L 342.528597 280.462233 
L 342.528597 280.462233 
L 342.528597 280.462233 
L 342.528597 280.462233 
L 342.528597 280.462233 
L 342.528597 280.462233 
L 342.528597 280.462233 
L 342.528597 280.462233 
L 342.528597 280.462233 
L 342.528597 280.462233 
L 342.528597 280.462233 
L 342.528597 280.462233 
L 342.528597 280.462233 
L 342.528597 280.462233 
L 342.528597 280.462233 
L 342.528597 280.462233 
L 342.528597 280.462233 
L 342.528597 280.462233 
L 342.528597 280.462233 
z
" style="fill:#993333;stroke:#000000;stroke-linejoin:miter;"/>
   </g>
   <g id="patch_3">
    <path clip-path="url(#p89515c9e3b)" d="M 285.390328 272.728435 
L 285.195174 273.985056 
L 348.211208 283.771504 
L 348.406362 282.514883 
L 348.406362 282.514883 
L 348.406362 282.514883 
L 348.406362 282.514883 
L 348.406362 282.514883 
L 348.406362 282.514883 
L 348.406362 282.514883 
L 348.406362 282.514883 
L 348.406362 282.514883 
L 348.406362 282.514883 
L 348.406362 282.514883 
L 348.406362 282.514883 
L 348.406362 282.514883 
L 348.406362 282.514883 
L 348.406362 282.514883 
L 348.406362 282.514883 
L 348.406362 282.514883 
L 348.406362 282.514883 
L 348.406362 282.514883 
L 348.406362 282.514883 
L 348.406362 282.514883 
L 348.406362 282.514883 
L 348.406362 282.514883 
L 348.406362 282.514883 
L 348.406362 282.514883 
L 348.406362 282.514883 
L 348.406362 282.514883 
L 348.406362 282.514883 
L 348.406362 282.514883 
L 348.406362 282.514883 
L 348.406362 282.514883 
L 348.406362 282.514883 
L 348.406362 282.514883 
L 348.406362 282.514883 
L 348.406362 282.514883 
L 348.406362 282.514883 
L 348.406362 282.514883 
L 348.406362 282.514883 
L 348.406362 282.514883 
L 348.406362 282.514883 
L 348.406362 282.514883 
L 348.406362 282.514883 
L 348.406362 282.514883 
L 348.406362 282.514883 
L 348.406362 282.514883 
L 348.406362 282.514883 
L 348.406362 282.514883 
L 348.406362 282.514883 
L 348.406362 282.514883 
z
" style="stroke:#000000;stroke-linejoin:miter;"/>
   </g>
   <g id="patch_4">
    <path clip-path="url(#p89515c9e3b)" d="M 280.379217 269.293136 
L 279.438958 270.827899 
L 279.051105 272.122782 
L 278.942249 273.94402 
L 279.251094 275.254998 
L 280.000294 276.916809 
L 280.930222 277.922908 
L 282.354046 279.018423 
L 283.677379 279.473316 
L 285.427226 279.734314 
L 286.819964 279.526627 
L 288.467411 278.889206 
L 289.588565 278.069788 
L 290.730259 276.690012 
L 291.30533 275.459485 
L 291.661744 273.675171 
L 291.549935 272.334811 
L 291.033808 270.582821 
L 290.262494 269.460795 
L 289.00019 268.170077 
L 287.758215 267.541096 
L 286.058792 267.027664 
L 284.650235 267.045724 
L 282.929769 267.435283 
L 281.699495 268.095963 
L 281.699495 268.095963 
L 281.699495 268.095963 
L 281.699495 268.095963 
L 281.699495 268.095963 
L 281.699495 268.095963 
L 281.699495 268.095963 
L 281.699495 268.095963 
L 281.699495 268.095963 
L 281.699495 268.095963 
L 281.699495 268.095963 
L 281.699495 268.095963 
L 281.699495 268.095963 
L 281.699495 268.095963 
L 281.699495 268.095963 
L 281.699495 268.095963 
L 281.699495 268.095963 
L 281.699495 268.095963 
L 281.699495 268.095963 
L 281.699495 268.095963 
L 281.699495 268.095963 
L 281.699495 268.095963 
L 281.699495 268.095963 
L 281.699495 268.095963 
L 281.699495 268.095963 
L 281.699495 268.095963 
L 281.699495 268.095963 
L 281.699495 268.095963 
L 281.699495 268.095963 
L 281.699495 268.095963 
L 281.699495 268.095963 
L 281.699495 268.095963 
L 281.699495 268.095963 
L 281.699495 268.095963 
L 281.699495 268.095963 
L 281.699495 268.095963 
L 281.699495 268.095963 
L 281.699495 268.095963 
L 281.699495 268.095963 
L 281.699495 268.095963 
L 281.699495 268.095963 
L 281.699495 268.095963 
L 281.699495 268.095963 
L 281.699495 268.095963 
L 281.699495 268.095963 
L 281.699495 268.095963 
L 281.699495 268.095963 
L 281.699495 268.095963 
L 281.699495 268.095963 
L 281.699495 268.095963 
L 281.699495 268.095963 
L 281.699495 268.095963 
L 281.699495 268.095963 
L 281.699495 268.095963 
L 281.699495 268.095963 
L 281.699495 268.095963 
L 281.699495 268.095963 
L 281.699495 268.095963 
L 281.699495 268.095963 
L 281.699495 268.095963 
L 281.699495 268.095963 
L 281.699495 268.095963 
L 281.699495 268.095963 
L 281.699495 268.095963 
L 281.699495 268.095963 
L 281.699495 268.095963 
L 281.699495 268.095963 
L 281.699495 268.095963 
L 281.699495 268.095963 
L 281.699495 268.095963 
L 281.699495 268.095963 
L 281.699495 268.095963 
L 281.699495 268.095963 
L 281.699495 268.095963 
L 281.699495 268.095963 
L 281.699495 268.095963 
L 281.699495 268.095963 
L 281.699495 268.095963 
L 281.699495 268.095963 
L 281.699495 268.095963 
L 281.699495 268.095963 
L 281.699495 268.095963 
L 281.699495 268.095963 
L 281.699495 268.095963 
L 281.699495 268.095963 
L 281.699495 268.095963 
L 281.699495 268.095963 
L 281.699495 268.095963 
L 281.699495 268.095963 
L 281.699495 268.095963 
L 281.699495 268.095963 
L 281.699495 268.095963 
L 281.699495 268.095963 
L 281.699495 268.095963 
L 281.699495 268.095963 
L 281.699495 268.095963 
L 281.699495 268.095963 
L 281.699495 268.095963 
L 281.699495 268.095963 
L 281.699495 268.095963 
L 281.699495 268.095963 
L 281.699495 268.095963 
L 281.699495 268.095963 
L 281.699495 268.095963 
L 281.699495 268.095963 
L 281.699495 268.095963 
L 281.699495 268.095963 
L 281.699495 268.095963 
L 281.699495 268.095963 
L 281.699495 268.095963 
L 281.699495 268.095963 
L 281.699495 268.095963 
L 281.699495 268.095963 
L 281.699495 268.095963 
L 281.699495 268.095963 
L 281.699495 268.095963 
L 281.699495 268.095963 
L 281.699495 268.095963 
L 281.699495 268.095963 
L 281.699495 268.095963 
L 281.699495 268.095963 
L 281.699495 268.095963 
L 281.699495 268.095963 
L 281.699495 268.095963 
L 281.699495 268.095963 
L 281.699495 268.095963 
L 281.699495 268.095963 
L 281.699495 268.095963 
L 281.699495 268.095963 
L 281.699495 268.095963 
L 281.699495 268.095963 
L 281.699495 268.095963 
L 281.699495 268.095963 
L 281.699495 268.095963 
L 281.699495 268.095963 
L 281.699495 268.095963 
L 281.699495 268.095963 
L 281.699495 268.095963 
L 281.699495 268.095963 
L 281.699495 268.095963 
L 281.699495 268.095963 
L 281.699495 268.095963 
L 281.699495 268.095963 
L 281.699495 268.095963 
L 281.699495 268.095963 
z
" style="fill:#993333;stroke:#000000;stroke-linejoin:miter;"/>
   </g>
   <g id="patch_5">
    <path clip-path="url(#p89515c9e3b)" d="M 236.566546 232.212675 
L 235.755841 233.19244 
L 284.888304 273.847036 
L 285.69901 272.867271 
L 285.69901 272.867271 
L 285.69901 272.867271 
L 285.69901 272.867271 
L 285.69901 272.867271 
L 285.69901 272.867271 
L 285.69901 272.867271 
L 285.69901 272.867271 
L 285.69901 272.867271 
L 285.69901 272.867271 
L 285.69901 272.867271 
L 285.69901 272.867271 
L 285.69901 272.867271 
L 285.69901 272.867271 
L 285.69901 272.867271 
L 285.69901 272.867271 
L 285.69901 272.867271 
L 285.69901 272.867271 
L 285.69901 272.867271 
L 285.69901 272.867271 
L 285.69901 272.867271 
L 285.69901 272.867271 
L 285.69901 272.867271 
L 285.69901 272.867271 
L 285.69901 272.867271 
L 285.69901 272.867271 
L 285.69901 272.867271 
L 285.69901 272.867271 
L 285.69901 272.867271 
L 285.69901 272.867271 
L 285.69901 272.867271 
L 285.69901 272.867271 
L 285.69901 272.867271 
L 285.69901 272.867271 
L 285.69901 272.867271 
L 285.69901 272.867271 
L 285.69901 272.867271 
L 285.69901 272.867271 
L 285.69901 272.867271 
L 285.69901 272.867271 
L 285.69901 272.867271 
L 285.69901 272.867271 
L 285.69901 272.867271 
L 285.69901 272.867271 
L 285.69901 272.867271 
L 285.69901 272.867271 
L 285.69901 272.867271 
L 285.69901 272.867271 
L 285.69901 272.867271 
z
" style="stroke:#000000;stroke-linejoin:miter;"/>
   </g>
   <g id="text_1">
    <!-- t = 1.7 -->
    <defs>
     <path d="M 18.3125 70.21875 
L 18.3125 54.6875 
L 36.8125 54.6875 
L 36.8125 47.703125 
L 18.3125 47.703125 
L 18.3125 18.015625 
Q 18.3125 11.328125 20.140625 9.421875 
Q 21.96875 7.515625 27.59375 7.515625 
L 36.8125 7.515625 
L 36.8125 0 
L 27.59375 0 
Q 17.1875 0 13.234375 3.875 
Q 9.28125 7.765625 9.28125 18.015625 
L 9.28125 47.703125 
L 2.6875 47.703125 
L 2.6875 54.6875 
L 9.28125 54.6875 
L 9.28125 70.21875 
z
" id="DejaVuSans-116"/>
     <path id="DejaVuSans-32"/>
     <path d="M 10.59375 45.40625 
L 73.1875 45.40625 
L 73.1875 37.203125 
L 10.59375 37.203125 
z
M 10.59375 25.484375 
L 73.1875 25.484375 
L 73.1875 17.1875 
L 10.59375 17.1875 
z
" id="DejaVuSans-61"/>
     <path d="M 12.40625 8.296875 
L 28.515625 8.296875 
L 28.515625 63.921875 
L 10.984375 60.40625 
L 10.984375 69.390625 
L 28.421875 72.90625 
L 38.28125 72.90625 
L 38.28125 8.296875 
L 54.390625 8.296875 
L 54.390625 0 
L 12.40625 0 
z
" id="DejaVuSans-49"/>
     <path d="M 10.6875 12.40625 
L 21 12.40625 
L 21 0 
L 10.6875 0 
z
" id="DejaVuSans-46"/>
     <path d="M 8.203125 72.90625 
L 55.078125 72.90625 
L 55.078125 68.703125 
L 28.609375 0 
L 18.3125 0 
L 43.21875 64.59375 
L 8.203125 64.59375 
z
" id="DejaVuSans-55"/>
    </defs>
    <g transform="translate(215.424375 49.296)scale(0.12 -0.12)">
     <use xlink:href="#DejaVuSans-116"/>
     <use x="39.208984" xlink:href="#DejaVuSans-32"/>
     <use x="70.996094" xlink:href="#DejaVuSans-61"/>
     <use x="154.785156" xlink:href="#DejaVuSans-32"/>
     <use x="186.572266" xlink:href="#DejaVuSans-49"/>
     <use x="250.195312" xlink:href="#DejaVuSans-46"/>
     <use x="281.982422" xlink:href="#DejaVuSans-55"/>
    </g>
   </g>
  </g>
 </g>
 <defs>
  <clipPath id="p89515c9e3b">
   <rect height="354.816" width="357.12" x="57.6" y="55.296"/>
  </clipPath>
 </defs>
</svg>
