<?xml version="1.0" encoding="utf-8" standalone="no"?>
<!DOCTYPE svg PUBLIC "-//W3C//DTD SVG 1.1//EN"
  "http://www.w3.org/Graphics/SVG/1.1/DTD/svg11.dtd">
<!-- Created with matplotlib (https://matplotlib.org/) -->
<svg height="460.8pt" version="1.1" viewBox="0 0 460.8 460.8" width="460.8pt" xmlns="http://www.w3.org/2000/svg" xmlns:xlink="http://www.w3.org/1999/xlink">
 <defs>
  <style type="text/css">
*{stroke-linecap:butt;stroke-linejoin:round;}
  </style>
 </defs>
 <g id="figure_1">
  <g id="patch_1">
   <path d="M 0 460.8 
L 460.8 460.8 
L 460.8 0 
L 0 0 
z
" style="fill:#ffffff;"/>
  </g>
  <g id="axes_1">
   <g id="patch_2">
    <path clip-path="url(#pa927e7906a)" d="M 344.051312 287.32174 
L 343.127369 288.845775 
L 342.663952 290.584979 
L 342.661567 291.936699 
L 343.076727 293.713325 
L 343.746688 294.881743 
L 344.938781 296.260812 
L 346.117058 296.959859 
L 347.794217 297.603726 
L 349.192327 297.66225 
L 350.943925 297.413275 
L 352.219562 296.816948 
L 353.616747 295.736088 
L 354.45759 294.630912 
L 355.158283 292.982799 
L 355.358464 291.639359 
L 355.19111 289.827509 
L 354.701619 288.574726 
L 353.707192 287.042743 
L 352.647873 286.187342 
L 351.069844 285.310309 
L 349.700055 285.061722 
L 347.92478 285.054367 
L 346.579893 285.473457 
L 345.042022 286.337581 
L 345.042022 286.337581 
L 345.042022 286.337581 
L 345.042022 286.337581 
L 345.042022 286.337581 
L 345.042022 286.337581 
L 345.042022 286.337581 
L 345.042022 286.337581 
L 345.042022 286.337581 
L 345.042022 286.337581 
L 345.042022 286.337581 
L 345.042022 286.337581 
L 345.042022 286.337581 
L 345.042022 286.337581 
L 345.042022 286.337581 
L 345.042022 286.337581 
L 345.042022 286.337581 
L 345.042022 286.337581 
L 345.042022 286.337581 
L 345.042022 286.337581 
L 345.042022 286.337581 
L 345.042022 286.337581 
L 345.042022 286.337581 
L 345.042022 286.337581 
L 345.042022 286.337581 
L 345.042022 286.337581 
L 345.042022 286.337581 
L 345.042022 286.337581 
L 345.042022 286.337581 
L 345.042022 286.337581 
L 345.042022 286.337581 
L 345.042022 286.337581 
L 345.042022 286.337581 
L 345.042022 286.337581 
L 345.042022 286.337581 
L 345.042022 286.337581 
L 345.042022 286.337581 
L 345.042022 286.337581 
L 345.042022 286.337581 
L 345.042022 286.337581 
L 345.042022 286.337581 
L 345.042022 286.337581 
L 345.042022 286.337581 
L 345.042022 286.337581 
L 345.042022 286.337581 
L 345.042022 286.337581 
L 345.042022 286.337581 
L 345.042022 286.337581 
L 345.042022 286.337581 
L 345.042022 286.337581 
L 345.042022 286.337581 
L 345.042022 286.337581 
L 345.042022 286.337581 
L 345.042022 286.337581 
L 345.042022 286.337581 
L 345.042022 286.337581 
L 345.042022 286.337581 
L 345.042022 286.337581 
L 345.042022 286.337581 
L 345.042022 286.337581 
L 345.042022 286.337581 
L 345.042022 286.337581 
L 345.042022 286.337581 
L 345.042022 286.337581 
L 345.042022 286.337581 
L 345.042022 286.337581 
L 345.042022 286.337581 
L 345.042022 286.337581 
L 345.042022 286.337581 
L 345.042022 286.337581 
L 345.042022 286.337581 
L 345.042022 286.337581 
L 345.042022 286.337581 
L 345.042022 286.337581 
L 345.042022 286.337581 
L 345.042022 286.337581 
L 345.042022 286.337581 
L 345.042022 286.337581 
L 345.042022 286.337581 
L 345.042022 286.337581 
L 345.042022 286.337581 
L 345.042022 286.337581 
L 345.042022 286.337581 
L 345.042022 286.337581 
L 345.042022 286.337581 
L 345.042022 286.337581 
L 345.042022 286.337581 
L 345.042022 286.337581 
L 345.042022 286.337581 
L 345.042022 286.337581 
L 345.042022 286.337581 
L 345.042022 286.337581 
L 345.042022 286.337581 
L 345.042022 286.337581 
L 345.042022 286.337581 
L 345.042022 286.337581 
L 345.042022 286.337581 
L 345.042022 286.337581 
L 345.042022 286.337581 
L 345.042022 286.337581 
L 345.042022 286.337581 
L 345.042022 286.337581 
L 345.042022 286.337581 
L 345.042022 286.337581 
L 345.042022 286.337581 
L 345.042022 286.337581 
L 345.042022 286.337581 
L 345.042022 286.337581 
L 345.042022 286.337581 
L 345.042022 286.337581 
L 345.042022 286.337581 
L 345.042022 286.337581 
L 345.042022 286.337581 
L 345.042022 286.337581 
L 345.042022 286.337581 
L 345.042022 286.337581 
L 345.042022 286.337581 
L 345.042022 286.337581 
L 345.042022 286.337581 
L 345.042022 286.337581 
L 345.042022 286.337581 
L 345.042022 286.337581 
L 345.042022 286.337581 
L 345.042022 286.337581 
L 345.042022 286.337581 
L 345.042022 286.337581 
L 345.042022 286.337581 
L 345.042022 286.337581 
L 345.042022 286.337581 
L 345.042022 286.337581 
L 345.042022 286.337581 
L 345.042022 286.337581 
L 345.042022 286.337581 
L 345.042022 286.337581 
L 345.042022 286.337581 
L 345.042022 286.337581 
L 345.042022 286.337581 
L 345.042022 286.337581 
L 345.042022 286.337581 
L 345.042022 286.337581 
L 345.042022 286.337581 
L 345.042022 286.337581 
L 345.042022 286.337581 
L 345.042022 286.337581 
L 345.042022 286.337581 
z
" style="fill:#993333;stroke:#000000;stroke-linejoin:miter;"/>
   </g>
   <g id="patch_3">
    <path clip-path="url(#pa927e7906a)" d="M 290.060409 266.973334 
L 348.748093 291.924304 
L 349.245647 290.753995 
L 290.557964 265.803026 
L 290.557964 265.803026 
L 290.557964 265.803026 
L 290.557964 265.803026 
L 290.557964 265.803026 
L 290.557964 265.803026 
L 290.557964 265.803026 
L 290.557964 265.803026 
L 290.557964 265.803026 
L 290.557964 265.803026 
L 290.557964 265.803026 
L 290.557964 265.803026 
L 290.557964 265.803026 
L 290.557964 265.803026 
L 290.557964 265.803026 
L 290.557964 265.803026 
L 290.557964 265.803026 
L 290.557964 265.803026 
L 290.557964 265.803026 
L 290.557964 265.803026 
L 290.557964 265.803026 
L 290.557964 265.803026 
L 290.557964 265.803026 
L 290.557964 265.803026 
L 290.557964 265.803026 
L 290.557964 265.803026 
L 290.557964 265.803026 
L 290.557964 265.803026 
L 290.557964 265.803026 
L 290.557964 265.803026 
L 290.557964 265.803026 
L 290.557964 265.803026 
L 290.557964 265.803026 
L 290.557964 265.803026 
L 290.557964 265.803026 
L 290.557964 265.803026 
L 290.557964 265.803026 
L 290.557964 265.803026 
L 290.557964 265.803026 
L 290.557964 265.803026 
L 290.557964 265.803026 
L 290.557964 265.803026 
L 290.557964 265.803026 
L 290.557964 265.803026 
L 290.557964 265.803026 
L 290.557964 265.803026 
L 290.557964 265.803026 
L 290.557964 265.803026 
L 290.557964 265.803026 
z
" style="stroke:#000000;stroke-linejoin:miter;"/>
   </g>
   <g id="patch_4">
    <path clip-path="url(#pa927e7906a)" d="M 283.957654 266.003722 
L 284.09444 267.823076 
L 284.576596 269.080682 
L 285.542244 270.626788 
L 286.598898 271.498846 
L 288.156982 272.393162 
L 289.529428 272.666162 
L 291.298476 272.689729 
L 292.65069 272.296831 
L 294.197577 271.443879 
L 295.198492 270.481278 
L 296.144486 268.960639 
L 296.549042 267.664013 
L 296.66253 265.847993 
L 296.371678 264.534802 
L 295.624875 262.868026 
L 294.709825 261.859784 
L 293.285575 260.750337 
L 291.970364 260.293898 
L 290.217371 260.01341 
L 288.824008 260.220525 
L 287.171468 260.837671 
L 286.041097 261.657632 
L 284.893608 263.021312 
L 284.168044 264.668474 
L 284.168044 264.668474 
L 284.168044 264.668474 
L 284.168044 264.668474 
L 284.168044 264.668474 
L 284.168044 264.668474 
L 284.168044 264.668474 
L 284.168044 264.668474 
L 284.168044 264.668474 
L 284.168044 264.668474 
L 284.168044 264.668474 
L 284.168044 264.668474 
L 284.168044 264.668474 
L 284.168044 264.668474 
L 284.168044 264.668474 
L 284.168044 264.668474 
L 284.168044 264.668474 
L 284.168044 264.668474 
L 284.168044 264.668474 
L 284.168044 264.668474 
L 284.168044 264.668474 
L 284.168044 264.668474 
L 284.168044 264.668474 
L 284.168044 264.668474 
L 284.168044 264.668474 
L 284.168044 264.668474 
L 284.168044 264.668474 
L 284.168044 264.668474 
L 284.168044 264.668474 
L 284.168044 264.668474 
L 284.168044 264.668474 
L 284.168044 264.668474 
L 284.168044 264.668474 
L 284.168044 264.668474 
L 284.168044 264.668474 
L 284.168044 264.668474 
L 284.168044 264.668474 
L 284.168044 264.668474 
L 284.168044 264.668474 
L 284.168044 264.668474 
L 284.168044 264.668474 
L 284.168044 264.668474 
L 284.168044 264.668474 
L 284.168044 264.668474 
L 284.168044 264.668474 
L 284.168044 264.668474 
L 284.168044 264.668474 
L 284.168044 264.668474 
L 284.168044 264.668474 
L 284.168044 264.668474 
L 284.168044 264.668474 
L 284.168044 264.668474 
L 284.168044 264.668474 
L 284.168044 264.668474 
L 284.168044 264.668474 
L 284.168044 264.668474 
L 284.168044 264.668474 
L 284.168044 264.668474 
L 284.168044 264.668474 
L 284.168044 264.668474 
L 284.168044 264.668474 
L 284.168044 264.668474 
L 284.168044 264.668474 
L 284.168044 264.668474 
L 284.168044 264.668474 
L 284.168044 264.668474 
L 284.168044 264.668474 
L 284.168044 264.668474 
L 284.168044 264.668474 
L 284.168044 264.668474 
L 284.168044 264.668474 
L 284.168044 264.668474 
L 284.168044 264.668474 
L 284.168044 264.668474 
L 284.168044 264.668474 
L 284.168044 264.668474 
L 284.168044 264.668474 
L 284.168044 264.668474 
L 284.168044 264.668474 
L 284.168044 264.668474 
L 284.168044 264.668474 
L 284.168044 264.668474 
L 284.168044 264.668474 
L 284.168044 264.668474 
L 284.168044 264.668474 
L 284.168044 264.668474 
L 284.168044 264.668474 
L 284.168044 264.668474 
L 284.168044 264.668474 
L 284.168044 264.668474 
L 284.168044 264.668474 
L 284.168044 264.668474 
L 284.168044 264.668474 
L 284.168044 264.668474 
L 284.168044 264.668474 
L 284.168044 264.668474 
L 284.168044 264.668474 
L 284.168044 264.668474 
L 284.168044 264.668474 
L 284.168044 264.668474 
L 284.168044 264.668474 
L 284.168044 264.668474 
L 284.168044 264.668474 
L 284.168044 264.668474 
L 284.168044 264.668474 
L 284.168044 264.668474 
L 284.168044 264.668474 
L 284.168044 264.668474 
L 284.168044 264.668474 
L 284.168044 264.668474 
L 284.168044 264.668474 
L 284.168044 264.668474 
L 284.168044 264.668474 
L 284.168044 264.668474 
L 284.168044 264.668474 
L 284.168044 264.668474 
L 284.168044 264.668474 
L 284.168044 264.668474 
L 284.168044 264.668474 
L 284.168044 264.668474 
L 284.168044 264.668474 
L 284.168044 264.668474 
L 284.168044 264.668474 
L 284.168044 264.668474 
L 284.168044 264.668474 
L 284.168044 264.668474 
L 284.168044 264.668474 
L 284.168044 264.668474 
L 284.168044 264.668474 
L 284.168044 264.668474 
L 284.168044 264.668474 
L 284.168044 264.668474 
L 284.168044 264.668474 
L 284.168044 264.668474 
L 284.168044 264.668474 
L 284.168044 264.668474 
L 284.168044 264.668474 
L 284.168044 264.668474 
L 284.168044 264.668474 
L 284.168044 264.668474 
L 284.168044 264.668474 
L 284.168044 264.668474 
L 284.168044 264.668474 
L 284.168044 264.668474 
L 284.168044 264.668474 
z
" style="fill:#993333;stroke:#000000;stroke-linejoin:miter;"/>
   </g>
   <g id="patch_5">
    <path clip-path="url(#pa927e7906a)" d="M 235.825118 233.242306 
L 289.973572 266.928209 
L 290.645313 265.848418 
L 236.496859 232.162515 
L 236.496859 232.162515 
L 236.496859 232.162515 
L 236.496859 232.162515 
L 236.496859 232.162515 
L 236.496859 232.162515 
L 236.496859 232.162515 
L 236.496859 232.162515 
L 236.496859 232.162515 
L 236.496859 232.162515 
L 236.496859 232.162515 
L 236.496859 232.162515 
L 236.496859 232.162515 
L 236.496859 232.162515 
L 236.496859 232.162515 
L 236.496859 232.162515 
L 236.496859 232.162515 
L 236.496859 232.162515 
L 236.496859 232.162515 
L 236.496859 232.162515 
L 236.496859 232.162515 
L 236.496859 232.162515 
L 236.496859 232.162515 
L 236.496859 232.162515 
L 236.496859 232.162515 
L 236.496859 232.162515 
L 236.496859 232.162515 
L 236.496859 232.162515 
L 236.496859 232.162515 
L 236.496859 232.162515 
L 236.496859 232.162515 
L 236.496859 232.162515 
L 236.496859 232.162515 
L 236.496859 232.162515 
L 236.496859 232.162515 
L 236.496859 232.162515 
L 236.496859 232.162515 
L 236.496859 232.162515 
L 236.496859 232.162515 
L 236.496859 232.162515 
L 236.496859 232.162515 
L 236.496859 232.162515 
L 236.496859 232.162515 
L 236.496859 232.162515 
L 236.496859 232.162515 
L 236.496859 232.162515 
L 236.496859 232.162515 
L 236.496859 232.162515 
L 236.496859 232.162515 
z
" style="stroke:#000000;stroke-linejoin:miter;"/>
   </g>
   <g id="text_1">
    <!-- t = 10.0 -->
    <defs>
     <path d="M 18.3125 70.21875 
L 18.3125 54.6875 
L 36.8125 54.6875 
L 36.8125 47.703125 
L 18.3125 47.703125 
L 18.3125 18.015625 
Q 18.3125 11.328125 20.140625 9.421875 
Q 21.96875 7.515625 27.59375 7.515625 
L 36.8125 7.515625 
L 36.8125 0 
L 27.59375 0 
Q 17.1875 0 13.234375 3.875 
Q 9.28125 7.765625 9.28125 18.015625 
L 9.28125 47.703125 
L 2.6875 47.703125 
L 2.6875 54.6875 
L 9.28125 54.6875 
L 9.28125 70.21875 
z
" id="DejaVuSans-116"/>
     <path id="DejaVuSans-32"/>
     <path d="M 10.59375 45.40625 
L 73.1875 45.40625 
L 73.1875 37.203125 
L 10.59375 37.203125 
z
M 10.59375 25.484375 
L 73.1875 25.484375 
L 73.1875 17.1875 
L 10.59375 17.1875 
z
" id="DejaVuSans-61"/>
     <path d="M 12.40625 8.296875 
L 28.515625 8.296875 
L 28.515625 63.921875 
L 10.984375 60.40625 
L 10.984375 69.390625 
L 28.421875 72.90625 
L 38.28125 72.90625 
L 38.28125 8.296875 
L 54.390625 8.296875 
L 54.390625 0 
L 12.40625 0 
z
" id="DejaVuSans-49"/>
     <path d="M 31.78125 66.40625 
Q 24.171875 66.40625 20.328125 58.90625 
Q 16.5 51.421875 16.5 36.375 
Q 16.5 21.390625 20.328125 13.890625 
Q 24.171875 6.390625 31.78125 6.390625 
Q 39.453125 6.390625 43.28125 13.890625 
Q 47.125 21.390625 47.125 36.375 
Q 47.125 51.421875 43.28125 58.90625 
Q 39.453125 66.40625 31.78125 66.40625 
z
M 31.78125 74.21875 
Q 44.046875 74.21875 50.515625 64.515625 
Q 56.984375 54.828125 56.984375 36.375 
Q 56.984375 17.96875 50.515625 8.265625 
Q 44.046875 -1.421875 31.78125 -1.421875 
Q 19.53125 -1.421875 13.0625 8.265625 
Q 6.59375 17.96875 6.59375 36.375 
Q 6.59375 54.828125 13.0625 64.515625 
Q 19.53125 74.21875 31.78125 74.21875 
z
" id="DejaVuSans-48"/>
     <path d="M 10.6875 12.40625 
L 21 12.40625 
L 21 0 
L 10.6875 0 
z
" id="DejaVuSans-46"/>
    </defs>
    <g transform="translate(211.606875 49.296)scale(0.12 -0.12)">
     <use xlink:href="#DejaVuSans-116"/>
     <use x="39.208984" xlink:href="#DejaVuSans-32"/>
     <use x="70.996094" xlink:href="#DejaVuSans-61"/>
     <use x="154.785156" xlink:href="#DejaVuSans-32"/>
     <use x="186.572266" xlink:href="#DejaVuSans-49"/>
     <use x="250.195312" xlink:href="#DejaVuSans-48"/>
     <use x="313.818359" xlink:href="#DejaVuSans-46"/>
     <use x="345.605469" xlink:href="#DejaVuSans-48"/>
    </g>
   </g>
  </g>
 </g>
 <defs>
  <clipPath id="pa927e7906a">
   <rect height="354.816" width="357.12" x="57.6" y="55.296"/>
  </clipPath>
 </defs>
</svg>
