<?xml version="1.0" encoding="utf-8" standalone="no"?>
<!DOCTYPE svg PUBLIC "-//W3C//DTD SVG 1.1//EN"
  "http://www.w3.org/Graphics/SVG/1.1/DTD/svg11.dtd">
<!-- Created with matplotlib (https://matplotlib.org/) -->
<svg height="460.8pt" version="1.1" viewBox="0 0 460.8 460.8" width="460.8pt" xmlns="http://www.w3.org/2000/svg" xmlns:xlink="http://www.w3.org/1999/xlink">
 <defs>
  <style type="text/css">
*{stroke-linecap:butt;stroke-linejoin:round;}
  </style>
 </defs>
 <g id="figure_1">
  <g id="patch_1">
   <path d="M 0 460.8 
L 460.8 460.8 
L 460.8 0 
L 0 0 
z
" style="fill:#ffffff;"/>
  </g>
  <g id="axes_1">
   <g id="patch_2">
    <path clip-path="url(#pffca883c0a)" d="M 319.511849 310.44926 
L 320.328798 311.520074 
L 321.690935 312.731478 
L 322.950482 313.2705 
L 324.697417 313.689602 
L 326.09118 313.564861 
L 327.795202 313.089051 
L 328.98194 312.331089 
L 330.225844 311.076861 
L 330.915002 309.871252 
L 331.394239 308.145686 
L 331.417086 306.787606 
L 331.014321 305.01318 
L 330.365265 303.835134 
L 329.179108 302.446289 
L 328.01706 301.736704 
L 326.337925 301.073478 
L 324.947394 301.006086 
L 323.186391 301.23086 
L 321.907828 301.822159 
L 320.496113 302.879901 
L 319.642555 303.985121 
L 318.925764 305.616858 
L 318.693674 307.401717 
L 318.868008 308.742149 
L 318.868008 308.742149 
L 318.868008 308.742149 
L 318.868008 308.742149 
L 318.868008 308.742149 
L 318.868008 308.742149 
L 318.868008 308.742149 
L 318.868008 308.742149 
L 318.868008 308.742149 
L 318.868008 308.742149 
L 318.868008 308.742149 
L 318.868008 308.742149 
L 318.868008 308.742149 
L 318.868008 308.742149 
L 318.868008 308.742149 
L 318.868008 308.742149 
L 318.868008 308.742149 
L 318.868008 308.742149 
L 318.868008 308.742149 
L 318.868008 308.742149 
L 318.868008 308.742149 
L 318.868008 308.742149 
L 318.868008 308.742149 
L 318.868008 308.742149 
L 318.868008 308.742149 
L 318.868008 308.742149 
L 318.868008 308.742149 
L 318.868008 308.742149 
L 318.868008 308.742149 
L 318.868008 308.742149 
L 318.868008 308.742149 
L 318.868008 308.742149 
L 318.868008 308.742149 
L 318.868008 308.742149 
L 318.868008 308.742149 
L 318.868008 308.742149 
L 318.868008 308.742149 
L 318.868008 308.742149 
L 318.868008 308.742149 
L 318.868008 308.742149 
L 318.868008 308.742149 
L 318.868008 308.742149 
L 318.868008 308.742149 
L 318.868008 308.742149 
L 318.868008 308.742149 
L 318.868008 308.742149 
L 318.868008 308.742149 
L 318.868008 308.742149 
L 318.868008 308.742149 
L 318.868008 308.742149 
L 318.868008 308.742149 
L 318.868008 308.742149 
L 318.868008 308.742149 
L 318.868008 308.742149 
L 318.868008 308.742149 
L 318.868008 308.742149 
L 318.868008 308.742149 
L 318.868008 308.742149 
L 318.868008 308.742149 
L 318.868008 308.742149 
L 318.868008 308.742149 
L 318.868008 308.742149 
L 318.868008 308.742149 
L 318.868008 308.742149 
L 318.868008 308.742149 
L 318.868008 308.742149 
L 318.868008 308.742149 
L 318.868008 308.742149 
L 318.868008 308.742149 
L 318.868008 308.742149 
L 318.868008 308.742149 
L 318.868008 308.742149 
L 318.868008 308.742149 
L 318.868008 308.742149 
L 318.868008 308.742149 
L 318.868008 308.742149 
L 318.868008 308.742149 
L 318.868008 308.742149 
L 318.868008 308.742149 
L 318.868008 308.742149 
L 318.868008 308.742149 
L 318.868008 308.742149 
L 318.868008 308.742149 
L 318.868008 308.742149 
L 318.868008 308.742149 
L 318.868008 308.742149 
L 318.868008 308.742149 
L 318.868008 308.742149 
L 318.868008 308.742149 
L 318.868008 308.742149 
L 318.868008 308.742149 
L 318.868008 308.742149 
L 318.868008 308.742149 
L 318.868008 308.742149 
L 318.868008 308.742149 
L 318.868008 308.742149 
L 318.868008 308.742149 
L 318.868008 308.742149 
L 318.868008 308.742149 
L 318.868008 308.742149 
L 318.868008 308.742149 
L 318.868008 308.742149 
L 318.868008 308.742149 
L 318.868008 308.742149 
L 318.868008 308.742149 
L 318.868008 308.742149 
L 318.868008 308.742149 
L 318.868008 308.742149 
L 318.868008 308.742149 
L 318.868008 308.742149 
L 318.868008 308.742149 
L 318.868008 308.742149 
L 318.868008 308.742149 
L 318.868008 308.742149 
L 318.868008 308.742149 
L 318.868008 308.742149 
L 318.868008 308.742149 
L 318.868008 308.742149 
L 318.868008 308.742149 
L 318.868008 308.742149 
L 318.868008 308.742149 
L 318.868008 308.742149 
L 318.868008 308.742149 
L 318.868008 308.742149 
L 318.868008 308.742149 
L 318.868008 308.742149 
L 318.868008 308.742149 
L 318.868008 308.742149 
L 318.868008 308.742149 
L 318.868008 308.742149 
L 318.868008 308.742149 
L 318.868008 308.742149 
L 318.868008 308.742149 
L 318.868008 308.742149 
L 318.868008 308.742149 
L 318.868008 308.742149 
L 318.868008 308.742149 
L 318.868008 308.742149 
L 318.868008 308.742149 
L 318.868008 308.742149 
L 318.868008 308.742149 
L 318.868008 308.742149 
L 318.868008 308.742149 
L 318.868008 308.742149 
L 318.868008 308.742149 
z
" style="fill:#993333;stroke:#000000;stroke-linejoin:miter;"/>
   </g>
   <g id="patch_3">
    <path clip-path="url(#pffca883c0a)" d="M 263.454969 290.869084 
L 324.900686 307.934222 
L 325.240987 306.708915 
L 263.795269 289.643777 
L 263.795269 289.643777 
L 263.795269 289.643777 
L 263.795269 289.643777 
L 263.795269 289.643777 
L 263.795269 289.643777 
L 263.795269 289.643777 
L 263.795269 289.643777 
L 263.795269 289.643777 
L 263.795269 289.643777 
L 263.795269 289.643777 
L 263.795269 289.643777 
L 263.795269 289.643777 
L 263.795269 289.643777 
L 263.795269 289.643777 
L 263.795269 289.643777 
L 263.795269 289.643777 
L 263.795269 289.643777 
L 263.795269 289.643777 
L 263.795269 289.643777 
L 263.795269 289.643777 
L 263.795269 289.643777 
L 263.795269 289.643777 
L 263.795269 289.643777 
L 263.795269 289.643777 
L 263.795269 289.643777 
L 263.795269 289.643777 
L 263.795269 289.643777 
L 263.795269 289.643777 
L 263.795269 289.643777 
L 263.795269 289.643777 
L 263.795269 289.643777 
L 263.795269 289.643777 
L 263.795269 289.643777 
L 263.795269 289.643777 
L 263.795269 289.643777 
L 263.795269 289.643777 
L 263.795269 289.643777 
L 263.795269 289.643777 
L 263.795269 289.643777 
L 263.795269 289.643777 
L 263.795269 289.643777 
L 263.795269 289.643777 
L 263.795269 289.643777 
L 263.795269 289.643777 
L 263.795269 289.643777 
L 263.795269 289.643777 
L 263.795269 289.643777 
L 263.795269 289.643777 
z
" style="stroke:#000000;stroke-linejoin:miter;"/>
   </g>
   <g id="patch_4">
    <path clip-path="url(#pffca883c0a)" d="M 260.878156 284.502811 
L 259.379393 285.499451 
L 258.482688 286.510922 
L 257.6176 288.117279 
L 257.346143 289.436505 
L 257.326535 291.259287 
L 257.746788 292.563277 
L 258.577461 294.156202 
L 259.586531 295.125694 
L 261.064107 296.098759 
L 262.414938 296.496387 
L 264.177655 296.611352 
L 265.539517 296.339762 
L 267.1558 295.568479 
L 268.195262 294.694167 
L 269.269389 293.225474 
L 269.731954 291.962502 
L 270.000941 290.155985 
L 269.773357 288.813572 
L 269.171347 287.11153 
L 268.309334 286.018345 
L 266.98372 284.837497 
L 265.69833 284.261192 
L 263.973668 283.890651 
L 262.579608 283.972323 
L 262.579608 283.972323 
L 262.579608 283.972323 
L 262.579608 283.972323 
L 262.579608 283.972323 
L 262.579608 283.972323 
L 262.579608 283.972323 
L 262.579608 283.972323 
L 262.579608 283.972323 
L 262.579608 283.972323 
L 262.579608 283.972323 
L 262.579608 283.972323 
L 262.579608 283.972323 
L 262.579608 283.972323 
L 262.579608 283.972323 
L 262.579608 283.972323 
L 262.579608 283.972323 
L 262.579608 283.972323 
L 262.579608 283.972323 
L 262.579608 283.972323 
L 262.579608 283.972323 
L 262.579608 283.972323 
L 262.579608 283.972323 
L 262.579608 283.972323 
L 262.579608 283.972323 
L 262.579608 283.972323 
L 262.579608 283.972323 
L 262.579608 283.972323 
L 262.579608 283.972323 
L 262.579608 283.972323 
L 262.579608 283.972323 
L 262.579608 283.972323 
L 262.579608 283.972323 
L 262.579608 283.972323 
L 262.579608 283.972323 
L 262.579608 283.972323 
L 262.579608 283.972323 
L 262.579608 283.972323 
L 262.579608 283.972323 
L 262.579608 283.972323 
L 262.579608 283.972323 
L 262.579608 283.972323 
L 262.579608 283.972323 
L 262.579608 283.972323 
L 262.579608 283.972323 
L 262.579608 283.972323 
L 262.579608 283.972323 
L 262.579608 283.972323 
L 262.579608 283.972323 
L 262.579608 283.972323 
L 262.579608 283.972323 
L 262.579608 283.972323 
L 262.579608 283.972323 
L 262.579608 283.972323 
L 262.579608 283.972323 
L 262.579608 283.972323 
L 262.579608 283.972323 
L 262.579608 283.972323 
L 262.579608 283.972323 
L 262.579608 283.972323 
L 262.579608 283.972323 
L 262.579608 283.972323 
L 262.579608 283.972323 
L 262.579608 283.972323 
L 262.579608 283.972323 
L 262.579608 283.972323 
L 262.579608 283.972323 
L 262.579608 283.972323 
L 262.579608 283.972323 
L 262.579608 283.972323 
L 262.579608 283.972323 
L 262.579608 283.972323 
L 262.579608 283.972323 
L 262.579608 283.972323 
L 262.579608 283.972323 
L 262.579608 283.972323 
L 262.579608 283.972323 
L 262.579608 283.972323 
L 262.579608 283.972323 
L 262.579608 283.972323 
L 262.579608 283.972323 
L 262.579608 283.972323 
L 262.579608 283.972323 
L 262.579608 283.972323 
L 262.579608 283.972323 
L 262.579608 283.972323 
L 262.579608 283.972323 
L 262.579608 283.972323 
L 262.579608 283.972323 
L 262.579608 283.972323 
L 262.579608 283.972323 
L 262.579608 283.972323 
L 262.579608 283.972323 
L 262.579608 283.972323 
L 262.579608 283.972323 
L 262.579608 283.972323 
L 262.579608 283.972323 
L 262.579608 283.972323 
L 262.579608 283.972323 
L 262.579608 283.972323 
L 262.579608 283.972323 
L 262.579608 283.972323 
L 262.579608 283.972323 
L 262.579608 283.972323 
L 262.579608 283.972323 
L 262.579608 283.972323 
L 262.579608 283.972323 
L 262.579608 283.972323 
L 262.579608 283.972323 
L 262.579608 283.972323 
L 262.579608 283.972323 
L 262.579608 283.972323 
L 262.579608 283.972323 
L 262.579608 283.972323 
L 262.579608 283.972323 
L 262.579608 283.972323 
L 262.579608 283.972323 
L 262.579608 283.972323 
L 262.579608 283.972323 
L 262.579608 283.972323 
L 262.579608 283.972323 
L 262.579608 283.972323 
L 262.579608 283.972323 
L 262.579608 283.972323 
L 262.579608 283.972323 
L 262.579608 283.972323 
L 262.579608 283.972323 
L 262.579608 283.972323 
L 262.579608 283.972323 
L 262.579608 283.972323 
L 262.579608 283.972323 
L 262.579608 283.972323 
L 262.579608 283.972323 
L 262.579608 283.972323 
L 262.579608 283.972323 
L 262.579608 283.972323 
L 262.579608 283.972323 
L 262.579608 283.972323 
L 262.579608 283.972323 
L 262.579608 283.972323 
L 262.579608 283.972323 
L 262.579608 283.972323 
L 262.579608 283.972323 
L 262.579608 283.972323 
L 262.579608 283.972323 
z
" style="fill:#993333;stroke:#000000;stroke-linejoin:miter;"/>
   </g>
   <g id="patch_5">
    <path clip-path="url(#pffca883c0a)" d="M 236.735542 232.429354 
L 235.587836 232.977034 
L 263.052454 290.531268 
L 264.20016 289.983588 
L 264.20016 289.983588 
L 264.20016 289.983588 
L 264.20016 289.983588 
L 264.20016 289.983588 
L 264.20016 289.983588 
L 264.20016 289.983588 
L 264.20016 289.983588 
L 264.20016 289.983588 
L 264.20016 289.983588 
L 264.20016 289.983588 
L 264.20016 289.983588 
L 264.20016 289.983588 
L 264.20016 289.983588 
L 264.20016 289.983588 
L 264.20016 289.983588 
L 264.20016 289.983588 
L 264.20016 289.983588 
L 264.20016 289.983588 
L 264.20016 289.983588 
L 264.20016 289.983588 
L 264.20016 289.983588 
L 264.20016 289.983588 
L 264.20016 289.983588 
L 264.20016 289.983588 
L 264.20016 289.983588 
L 264.20016 289.983588 
L 264.20016 289.983588 
L 264.20016 289.983588 
L 264.20016 289.983588 
L 264.20016 289.983588 
L 264.20016 289.983588 
L 264.20016 289.983588 
L 264.20016 289.983588 
L 264.20016 289.983588 
L 264.20016 289.983588 
L 264.20016 289.983588 
L 264.20016 289.983588 
L 264.20016 289.983588 
L 264.20016 289.983588 
L 264.20016 289.983588 
L 264.20016 289.983588 
L 264.20016 289.983588 
L 264.20016 289.983588 
L 264.20016 289.983588 
L 264.20016 289.983588 
L 264.20016 289.983588 
L 264.20016 289.983588 
L 264.20016 289.983588 
z
" style="stroke:#000000;stroke-linejoin:miter;"/>
   </g>
   <g id="text_1">
    <!-- t = 1.9 -->
    <defs>
     <path d="M 18.3125 70.21875 
L 18.3125 54.6875 
L 36.8125 54.6875 
L 36.8125 47.703125 
L 18.3125 47.703125 
L 18.3125 18.015625 
Q 18.3125 11.328125 20.140625 9.421875 
Q 21.96875 7.515625 27.59375 7.515625 
L 36.8125 7.515625 
L 36.8125 0 
L 27.59375 0 
Q 17.1875 0 13.234375 3.875 
Q 9.28125 7.765625 9.28125 18.015625 
L 9.28125 47.703125 
L 2.6875 47.703125 
L 2.6875 54.6875 
L 9.28125 54.6875 
L 9.28125 70.21875 
z
" id="DejaVuSans-116"/>
     <path id="DejaVuSans-32"/>
     <path d="M 10.59375 45.40625 
L 73.1875 45.40625 
L 73.1875 37.203125 
L 10.59375 37.203125 
z
M 10.59375 25.484375 
L 73.1875 25.484375 
L 73.1875 17.1875 
L 10.59375 17.1875 
z
" id="DejaVuSans-61"/>
     <path d="M 12.40625 8.296875 
L 28.515625 8.296875 
L 28.515625 63.921875 
L 10.984375 60.40625 
L 10.984375 69.390625 
L 28.421875 72.90625 
L 38.28125 72.90625 
L 38.28125 8.296875 
L 54.390625 8.296875 
L 54.390625 0 
L 12.40625 0 
z
" id="DejaVuSans-49"/>
     <path d="M 10.6875 12.40625 
L 21 12.40625 
L 21 0 
L 10.6875 0 
z
" id="DejaVuSans-46"/>
     <path d="M 10.984375 1.515625 
L 10.984375 10.5 
Q 14.703125 8.734375 18.5 7.8125 
Q 22.3125 6.890625 25.984375 6.890625 
Q 35.75 6.890625 40.890625 13.453125 
Q 46.046875 20.015625 46.78125 33.40625 
Q 43.953125 29.203125 39.59375 26.953125 
Q 35.25 24.703125 29.984375 24.703125 
Q 19.046875 24.703125 12.671875 31.3125 
Q 6.296875 37.9375 6.296875 49.421875 
Q 6.296875 60.640625 12.9375 67.421875 
Q 19.578125 74.21875 30.609375 74.21875 
Q 43.265625 74.21875 49.921875 64.515625 
Q 56.59375 54.828125 56.59375 36.375 
Q 56.59375 19.140625 48.40625 8.859375 
Q 40.234375 -1.421875 26.421875 -1.421875 
Q 22.703125 -1.421875 18.890625 -0.6875 
Q 15.09375 0.046875 10.984375 1.515625 
z
M 30.609375 32.421875 
Q 37.25 32.421875 41.125 36.953125 
Q 45.015625 41.5 45.015625 49.421875 
Q 45.015625 57.28125 41.125 61.84375 
Q 37.25 66.40625 30.609375 66.40625 
Q 23.96875 66.40625 20.09375 61.84375 
Q 16.21875 57.28125 16.21875 49.421875 
Q 16.21875 41.5 20.09375 36.953125 
Q 23.96875 32.421875 30.609375 32.421875 
z
" id="DejaVuSans-57"/>
    </defs>
    <g transform="translate(215.424375 49.296)scale(0.12 -0.12)">
     <use xlink:href="#DejaVuSans-116"/>
     <use x="39.208984" xlink:href="#DejaVuSans-32"/>
     <use x="70.996094" xlink:href="#DejaVuSans-61"/>
     <use x="154.785156" xlink:href="#DejaVuSans-32"/>
     <use x="186.572266" xlink:href="#DejaVuSans-49"/>
     <use x="250.195312" xlink:href="#DejaVuSans-46"/>
     <use x="281.982422" xlink:href="#DejaVuSans-57"/>
    </g>
   </g>
  </g>
 </g>
 <defs>
  <clipPath id="pffca883c0a">
   <rect height="354.816" width="357.12" x="57.6" y="55.296"/>
  </clipPath>
 </defs>
</svg>
