<?xml version="1.0" encoding="utf-8" standalone="no"?>
<!DOCTYPE svg PUBLIC "-//W3C//DTD SVG 1.1//EN"
  "http://www.w3.org/Graphics/SVG/1.1/DTD/svg11.dtd">
<!-- Created with matplotlib (https://matplotlib.org/) -->
<svg height="460.8pt" version="1.1" viewBox="0 0 460.8 460.8" width="460.8pt" xmlns="http://www.w3.org/2000/svg" xmlns:xlink="http://www.w3.org/1999/xlink">
 <defs>
  <style type="text/css">
*{stroke-linecap:butt;stroke-linejoin:round;}
  </style>
 </defs>
 <g id="figure_1">
  <g id="patch_1">
   <path d="M 0 460.8 
L 460.8 460.8 
L 460.8 0 
L 0 0 
z
" style="fill:#ffffff;"/>
  </g>
  <g id="axes_1">
   <g id="patch_2">
    <path clip-path="url(#pf824ea7d12)" d="M 153.128228 313.715169 
L 151.305995 313.763988 
L 150.018696 314.232886 
L 148.458071 315.12276 
L 147.527135 316.167506 
L 146.610212 317.680562 
L 146.263565 319.045366 
L 146.214839 320.811155 
L 146.537351 322.161865 
L 147.368753 323.748061 
L 148.281463 324.753976 
L 149.789436 325.772222 
L 151.06888 326.187059 
L 152.884219 326.388054 
L 154.217145 326.110247 
L 155.895393 325.444779 
L 156.955453 324.542344 
L 158.085716 323.173344 
L 158.613372 321.867229 
L 158.918921 320.129875 
L 158.784984 318.739863 
L 158.191011 317.05952 
L 157.13882 315.599219 
L 156.094407 314.741108 
L 154.456713 313.936921 
L 154.456713 313.936921 
L 154.456713 313.936921 
L 154.456713 313.936921 
L 154.456713 313.936921 
L 154.456713 313.936921 
L 154.456713 313.936921 
L 154.456713 313.936921 
L 154.456713 313.936921 
L 154.456713 313.936921 
L 154.456713 313.936921 
L 154.456713 313.936921 
L 154.456713 313.936921 
L 154.456713 313.936921 
L 154.456713 313.936921 
L 154.456713 313.936921 
L 154.456713 313.936921 
L 154.456713 313.936921 
L 154.456713 313.936921 
L 154.456713 313.936921 
L 154.456713 313.936921 
L 154.456713 313.936921 
L 154.456713 313.936921 
L 154.456713 313.936921 
L 154.456713 313.936921 
L 154.456713 313.936921 
L 154.456713 313.936921 
L 154.456713 313.936921 
L 154.456713 313.936921 
L 154.456713 313.936921 
L 154.456713 313.936921 
L 154.456713 313.936921 
L 154.456713 313.936921 
L 154.456713 313.936921 
L 154.456713 313.936921 
L 154.456713 313.936921 
L 154.456713 313.936921 
L 154.456713 313.936921 
L 154.456713 313.936921 
L 154.456713 313.936921 
L 154.456713 313.936921 
L 154.456713 313.936921 
L 154.456713 313.936921 
L 154.456713 313.936921 
L 154.456713 313.936921 
L 154.456713 313.936921 
L 154.456713 313.936921 
L 154.456713 313.936921 
L 154.456713 313.936921 
L 154.456713 313.936921 
L 154.456713 313.936921 
L 154.456713 313.936921 
L 154.456713 313.936921 
L 154.456713 313.936921 
L 154.456713 313.936921 
L 154.456713 313.936921 
L 154.456713 313.936921 
L 154.456713 313.936921 
L 154.456713 313.936921 
L 154.456713 313.936921 
L 154.456713 313.936921 
L 154.456713 313.936921 
L 154.456713 313.936921 
L 154.456713 313.936921 
L 154.456713 313.936921 
L 154.456713 313.936921 
L 154.456713 313.936921 
L 154.456713 313.936921 
L 154.456713 313.936921 
L 154.456713 313.936921 
L 154.456713 313.936921 
L 154.456713 313.936921 
L 154.456713 313.936921 
L 154.456713 313.936921 
L 154.456713 313.936921 
L 154.456713 313.936921 
L 154.456713 313.936921 
L 154.456713 313.936921 
L 154.456713 313.936921 
L 154.456713 313.936921 
L 154.456713 313.936921 
L 154.456713 313.936921 
L 154.456713 313.936921 
L 154.456713 313.936921 
L 154.456713 313.936921 
L 154.456713 313.936921 
L 154.456713 313.936921 
L 154.456713 313.936921 
L 154.456713 313.936921 
L 154.456713 313.936921 
L 154.456713 313.936921 
L 154.456713 313.936921 
L 154.456713 313.936921 
L 154.456713 313.936921 
L 154.456713 313.936921 
L 154.456713 313.936921 
L 154.456713 313.936921 
L 154.456713 313.936921 
L 154.456713 313.936921 
L 154.456713 313.936921 
L 154.456713 313.936921 
L 154.456713 313.936921 
L 154.456713 313.936921 
L 154.456713 313.936921 
L 154.456713 313.936921 
L 154.456713 313.936921 
L 154.456713 313.936921 
L 154.456713 313.936921 
L 154.456713 313.936921 
L 154.456713 313.936921 
L 154.456713 313.936921 
L 154.456713 313.936921 
L 154.456713 313.936921 
L 154.456713 313.936921 
L 154.456713 313.936921 
L 154.456713 313.936921 
L 154.456713 313.936921 
L 154.456713 313.936921 
L 154.456713 313.936921 
L 154.456713 313.936921 
L 154.456713 313.936921 
L 154.456713 313.936921 
L 154.456713 313.936921 
L 154.456713 313.936921 
L 154.456713 313.936921 
L 154.456713 313.936921 
L 154.456713 313.936921 
L 154.456713 313.936921 
L 154.456713 313.936921 
L 154.456713 313.936921 
L 154.456713 313.936921 
L 154.456713 313.936921 
L 154.456713 313.936921 
L 154.456713 313.936921 
L 154.456713 313.936921 
L 154.456713 313.936921 
L 154.456713 313.936921 
L 154.456713 313.936921 
L 154.456713 313.936921 
L 154.456713 313.936921 
L 154.456713 313.936921 
L 154.456713 313.936921 
L 154.456713 313.936921 
L 154.456713 313.936921 
L 154.456713 313.936921 
z
" style="fill:#993333;stroke:#000000;stroke-linejoin:miter;"/>
   </g>
   <g id="patch_3">
    <path clip-path="url(#pf824ea7d12)" d="M 152.248408 319.458548 
L 152.838778 320.58489 
L 209.321649 290.979479 
L 208.731279 289.853138 
L 208.731279 289.853138 
L 208.731279 289.853138 
L 208.731279 289.853138 
L 208.731279 289.853138 
L 208.731279 289.853138 
L 208.731279 289.853138 
L 208.731279 289.853138 
L 208.731279 289.853138 
L 208.731279 289.853138 
L 208.731279 289.853138 
L 208.731279 289.853138 
L 208.731279 289.853138 
L 208.731279 289.853138 
L 208.731279 289.853138 
L 208.731279 289.853138 
L 208.731279 289.853138 
L 208.731279 289.853138 
L 208.731279 289.853138 
L 208.731279 289.853138 
L 208.731279 289.853138 
L 208.731279 289.853138 
L 208.731279 289.853138 
L 208.731279 289.853138 
L 208.731279 289.853138 
L 208.731279 289.853138 
L 208.731279 289.853138 
L 208.731279 289.853138 
L 208.731279 289.853138 
L 208.731279 289.853138 
L 208.731279 289.853138 
L 208.731279 289.853138 
L 208.731279 289.853138 
L 208.731279 289.853138 
L 208.731279 289.853138 
L 208.731279 289.853138 
L 208.731279 289.853138 
L 208.731279 289.853138 
L 208.731279 289.853138 
L 208.731279 289.853138 
L 208.731279 289.853138 
L 208.731279 289.853138 
L 208.731279 289.853138 
L 208.731279 289.853138 
L 208.731279 289.853138 
L 208.731279 289.853138 
L 208.731279 289.853138 
L 208.731279 289.853138 
L 208.731279 289.853138 
z
" style="stroke:#000000;stroke-linejoin:miter;"/>
   </g>
   <g id="patch_4">
    <path clip-path="url(#pf824ea7d12)" d="M 202.701306 290.373628 
L 202.884416 292.133332 
L 203.432482 293.430435 
L 204.460183 294.867174 
L 205.533047 295.748873 
L 207.153722 296.510882 
L 208.488709 296.761307 
L 210.305561 296.662021 
L 211.57582 296.219858 
L 213.14402 295.283585 
L 214.038547 294.257092 
L 214.974145 292.713065 
L 215.273928 291.353562 
L 215.347857 289.579812 
L 214.9795 288.220154 
L 214.173659 286.650957 
L 213.227348 285.624035 
L 211.739036 284.643585 
L 210.018435 284.115268 
L 208.667756 284.06219 
L 206.876809 284.410429 
L 205.684088 285.036099 
L 204.261281 286.175634 
L 203.518537 287.326865 
L 202.812223 288.978697 
L 202.812223 288.978697 
L 202.812223 288.978697 
L 202.812223 288.978697 
L 202.812223 288.978697 
L 202.812223 288.978697 
L 202.812223 288.978697 
L 202.812223 288.978697 
L 202.812223 288.978697 
L 202.812223 288.978697 
L 202.812223 288.978697 
L 202.812223 288.978697 
L 202.812223 288.978697 
L 202.812223 288.978697 
L 202.812223 288.978697 
L 202.812223 288.978697 
L 202.812223 288.978697 
L 202.812223 288.978697 
L 202.812223 288.978697 
L 202.812223 288.978697 
L 202.812223 288.978697 
L 202.812223 288.978697 
L 202.812223 288.978697 
L 202.812223 288.978697 
L 202.812223 288.978697 
L 202.812223 288.978697 
L 202.812223 288.978697 
L 202.812223 288.978697 
L 202.812223 288.978697 
L 202.812223 288.978697 
L 202.812223 288.978697 
L 202.812223 288.978697 
L 202.812223 288.978697 
L 202.812223 288.978697 
L 202.812223 288.978697 
L 202.812223 288.978697 
L 202.812223 288.978697 
L 202.812223 288.978697 
L 202.812223 288.978697 
L 202.812223 288.978697 
L 202.812223 288.978697 
L 202.812223 288.978697 
L 202.812223 288.978697 
L 202.812223 288.978697 
L 202.812223 288.978697 
L 202.812223 288.978697 
L 202.812223 288.978697 
L 202.812223 288.978697 
L 202.812223 288.978697 
L 202.812223 288.978697 
L 202.812223 288.978697 
L 202.812223 288.978697 
L 202.812223 288.978697 
L 202.812223 288.978697 
L 202.812223 288.978697 
L 202.812223 288.978697 
L 202.812223 288.978697 
L 202.812223 288.978697 
L 202.812223 288.978697 
L 202.812223 288.978697 
L 202.812223 288.978697 
L 202.812223 288.978697 
L 202.812223 288.978697 
L 202.812223 288.978697 
L 202.812223 288.978697 
L 202.812223 288.978697 
L 202.812223 288.978697 
L 202.812223 288.978697 
L 202.812223 288.978697 
L 202.812223 288.978697 
L 202.812223 288.978697 
L 202.812223 288.978697 
L 202.812223 288.978697 
L 202.812223 288.978697 
L 202.812223 288.978697 
L 202.812223 288.978697 
L 202.812223 288.978697 
L 202.812223 288.978697 
L 202.812223 288.978697 
L 202.812223 288.978697 
L 202.812223 288.978697 
L 202.812223 288.978697 
L 202.812223 288.978697 
L 202.812223 288.978697 
L 202.812223 288.978697 
L 202.812223 288.978697 
L 202.812223 288.978697 
L 202.812223 288.978697 
L 202.812223 288.978697 
L 202.812223 288.978697 
L 202.812223 288.978697 
L 202.812223 288.978697 
L 202.812223 288.978697 
L 202.812223 288.978697 
L 202.812223 288.978697 
L 202.812223 288.978697 
L 202.812223 288.978697 
L 202.812223 288.978697 
L 202.812223 288.978697 
L 202.812223 288.978697 
L 202.812223 288.978697 
L 202.812223 288.978697 
L 202.812223 288.978697 
L 202.812223 288.978697 
L 202.812223 288.978697 
L 202.812223 288.978697 
L 202.812223 288.978697 
L 202.812223 288.978697 
L 202.812223 288.978697 
L 202.812223 288.978697 
L 202.812223 288.978697 
L 202.812223 288.978697 
L 202.812223 288.978697 
L 202.812223 288.978697 
L 202.812223 288.978697 
L 202.812223 288.978697 
L 202.812223 288.978697 
L 202.812223 288.978697 
L 202.812223 288.978697 
L 202.812223 288.978697 
L 202.812223 288.978697 
L 202.812223 288.978697 
L 202.812223 288.978697 
L 202.812223 288.978697 
L 202.812223 288.978697 
L 202.812223 288.978697 
L 202.812223 288.978697 
L 202.812223 288.978697 
L 202.812223 288.978697 
L 202.812223 288.978697 
L 202.812223 288.978697 
L 202.812223 288.978697 
L 202.812223 288.978697 
L 202.812223 288.978697 
L 202.812223 288.978697 
L 202.812223 288.978697 
L 202.812223 288.978697 
L 202.812223 288.978697 
L 202.812223 288.978697 
L 202.812223 288.978697 
L 202.812223 288.978697 
L 202.812223 288.978697 
L 202.812223 288.978697 
L 202.812223 288.978697 
L 202.812223 288.978697 
z
" style="fill:#993333;stroke:#000000;stroke-linejoin:miter;"/>
   </g>
   <g id="patch_5">
    <path clip-path="url(#pf824ea7d12)" d="M 208.451877 290.144899 
L 209.602702 290.685995 
L 236.737106 232.975344 
L 235.586281 232.434249 
L 235.586281 232.434249 
L 235.586281 232.434249 
L 235.586281 232.434249 
L 235.586281 232.434249 
L 235.586281 232.434249 
L 235.586281 232.434249 
L 235.586281 232.434249 
L 235.586281 232.434249 
L 235.586281 232.434249 
L 235.586281 232.434249 
L 235.586281 232.434249 
L 235.586281 232.434249 
L 235.586281 232.434249 
L 235.586281 232.434249 
L 235.586281 232.434249 
L 235.586281 232.434249 
L 235.586281 232.434249 
L 235.586281 232.434249 
L 235.586281 232.434249 
L 235.586281 232.434249 
L 235.586281 232.434249 
L 235.586281 232.434249 
L 235.586281 232.434249 
L 235.586281 232.434249 
L 235.586281 232.434249 
L 235.586281 232.434249 
L 235.586281 232.434249 
L 235.586281 232.434249 
L 235.586281 232.434249 
L 235.586281 232.434249 
L 235.586281 232.434249 
L 235.586281 232.434249 
L 235.586281 232.434249 
L 235.586281 232.434249 
L 235.586281 232.434249 
L 235.586281 232.434249 
L 235.586281 232.434249 
L 235.586281 232.434249 
L 235.586281 232.434249 
L 235.586281 232.434249 
L 235.586281 232.434249 
L 235.586281 232.434249 
L 235.586281 232.434249 
L 235.586281 232.434249 
L 235.586281 232.434249 
L 235.586281 232.434249 
L 235.586281 232.434249 
L 235.586281 232.434249 
z
" style="stroke:#000000;stroke-linejoin:miter;"/>
   </g>
   <g id="text_1">
    <!-- t = 6.1 -->
    <defs>
     <path d="M 18.3125 70.21875 
L 18.3125 54.6875 
L 36.8125 54.6875 
L 36.8125 47.703125 
L 18.3125 47.703125 
L 18.3125 18.015625 
Q 18.3125 11.328125 20.140625 9.421875 
Q 21.96875 7.515625 27.59375 7.515625 
L 36.8125 7.515625 
L 36.8125 0 
L 27.59375 0 
Q 17.1875 0 13.234375 3.875 
Q 9.28125 7.765625 9.28125 18.015625 
L 9.28125 47.703125 
L 2.6875 47.703125 
L 2.6875 54.6875 
L 9.28125 54.6875 
L 9.28125 70.21875 
z
" id="DejaVuSans-116"/>
     <path id="DejaVuSans-32"/>
     <path d="M 10.59375 45.40625 
L 73.1875 45.40625 
L 73.1875 37.203125 
L 10.59375 37.203125 
z
M 10.59375 25.484375 
L 73.1875 25.484375 
L 73.1875 17.1875 
L 10.59375 17.1875 
z
" id="DejaVuSans-61"/>
     <path d="M 33.015625 40.375 
Q 26.375 40.375 22.484375 35.828125 
Q 18.609375 31.296875 18.609375 23.390625 
Q 18.609375 15.53125 22.484375 10.953125 
Q 26.375 6.390625 33.015625 6.390625 
Q 39.65625 6.390625 43.53125 10.953125 
Q 47.40625 15.53125 47.40625 23.390625 
Q 47.40625 31.296875 43.53125 35.828125 
Q 39.65625 40.375 33.015625 40.375 
z
M 52.59375 71.296875 
L 52.59375 62.3125 
Q 48.875 64.0625 45.09375 64.984375 
Q 41.3125 65.921875 37.59375 65.921875 
Q 27.828125 65.921875 22.671875 59.328125 
Q 17.53125 52.734375 16.796875 39.40625 
Q 19.671875 43.65625 24.015625 45.921875 
Q 28.375 48.1875 33.59375 48.1875 
Q 44.578125 48.1875 50.953125 41.515625 
Q 57.328125 34.859375 57.328125 23.390625 
Q 57.328125 12.15625 50.6875 5.359375 
Q 44.046875 -1.421875 33.015625 -1.421875 
Q 20.359375 -1.421875 13.671875 8.265625 
Q 6.984375 17.96875 6.984375 36.375 
Q 6.984375 53.65625 15.1875 63.9375 
Q 23.390625 74.21875 37.203125 74.21875 
Q 40.921875 74.21875 44.703125 73.484375 
Q 48.484375 72.75 52.59375 71.296875 
z
" id="DejaVuSans-54"/>
     <path d="M 10.6875 12.40625 
L 21 12.40625 
L 21 0 
L 10.6875 0 
z
" id="DejaVuSans-46"/>
     <path d="M 12.40625 8.296875 
L 28.515625 8.296875 
L 28.515625 63.921875 
L 10.984375 60.40625 
L 10.984375 69.390625 
L 28.421875 72.90625 
L 38.28125 72.90625 
L 38.28125 8.296875 
L 54.390625 8.296875 
L 54.390625 0 
L 12.40625 0 
z
" id="DejaVuSans-49"/>
    </defs>
    <g transform="translate(215.424375 49.296)scale(0.12 -0.12)">
     <use xlink:href="#DejaVuSans-116"/>
     <use x="39.208984" xlink:href="#DejaVuSans-32"/>
     <use x="70.996094" xlink:href="#DejaVuSans-61"/>
     <use x="154.785156" xlink:href="#DejaVuSans-32"/>
     <use x="186.572266" xlink:href="#DejaVuSans-54"/>
     <use x="250.195312" xlink:href="#DejaVuSans-46"/>
     <use x="281.982422" xlink:href="#DejaVuSans-49"/>
    </g>
   </g>
  </g>
 </g>
 <defs>
  <clipPath id="pf824ea7d12">
   <rect height="354.816" width="357.12" x="57.6" y="55.296"/>
  </clipPath>
 </defs>
</svg>
