<?xml version="1.0" encoding="utf-8" standalone="no"?>
<!DOCTYPE svg PUBLIC "-//W3C//DTD SVG 1.1//EN"
  "http://www.w3.org/Graphics/SVG/1.1/DTD/svg11.dtd">
<!-- Created with matplotlib (https://matplotlib.org/) -->
<svg height="460.8pt" version="1.1" viewBox="0 0 460.8 460.8" width="460.8pt" xmlns="http://www.w3.org/2000/svg" xmlns:xlink="http://www.w3.org/1999/xlink">
 <defs>
  <style type="text/css">
*{stroke-linecap:butt;stroke-linejoin:round;}
  </style>
 </defs>
 <g id="figure_1">
  <g id="patch_1">
   <path d="M 0 460.8 
L 460.8 460.8 
L 460.8 0 
L 0 0 
z
" style="fill:#ffffff;"/>
  </g>
  <g id="axes_1">
   <g id="patch_2">
    <path clip-path="url(#pbf421a4970)" d="M 199.494736 343.149162 
L 197.67192 343.227283 
L 196.399438 343.668685 
L 194.823034 344.584037 
L 193.917397 345.612056 
L 192.973365 347.140529 
L 192.656304 348.503471 
L 192.575774 350.270842 
L 192.924918 351.635009 
L 193.727608 353.208564 
L 194.657473 354.239962 
L 196.146856 355.23444 
L 197.429779 355.680546 
L 199.241202 355.852464 
L 200.563079 355.604056 
L 202.253043 354.911322 
L 203.290232 354.029219 
L 204.444974 352.641439 
L 204.943536 351.34161 
L 205.280336 349.598561 
L 205.118204 348.19925 
L 204.554601 346.527691 
L 203.771471 345.371498 
L 202.445455 344.180685 
L 200.822516 343.402447 
L 200.822516 343.402447 
L 200.822516 343.402447 
L 200.822516 343.402447 
L 200.822516 343.402447 
L 200.822516 343.402447 
L 200.822516 343.402447 
L 200.822516 343.402447 
L 200.822516 343.402447 
L 200.822516 343.402447 
L 200.822516 343.402447 
L 200.822516 343.402447 
L 200.822516 343.402447 
L 200.822516 343.402447 
L 200.822516 343.402447 
L 200.822516 343.402447 
L 200.822516 343.402447 
L 200.822516 343.402447 
L 200.822516 343.402447 
L 200.822516 343.402447 
L 200.822516 343.402447 
L 200.822516 343.402447 
L 200.822516 343.402447 
L 200.822516 343.402447 
L 200.822516 343.402447 
L 200.822516 343.402447 
L 200.822516 343.402447 
L 200.822516 343.402447 
L 200.822516 343.402447 
L 200.822516 343.402447 
L 200.822516 343.402447 
L 200.822516 343.402447 
L 200.822516 343.402447 
L 200.822516 343.402447 
L 200.822516 343.402447 
L 200.822516 343.402447 
L 200.822516 343.402447 
L 200.822516 343.402447 
L 200.822516 343.402447 
L 200.822516 343.402447 
L 200.822516 343.402447 
L 200.822516 343.402447 
L 200.822516 343.402447 
L 200.822516 343.402447 
L 200.822516 343.402447 
L 200.822516 343.402447 
L 200.822516 343.402447 
L 200.822516 343.402447 
L 200.822516 343.402447 
L 200.822516 343.402447 
L 200.822516 343.402447 
L 200.822516 343.402447 
L 200.822516 343.402447 
L 200.822516 343.402447 
L 200.822516 343.402447 
L 200.822516 343.402447 
L 200.822516 343.402447 
L 200.822516 343.402447 
L 200.822516 343.402447 
L 200.822516 343.402447 
L 200.822516 343.402447 
L 200.822516 343.402447 
L 200.822516 343.402447 
L 200.822516 343.402447 
L 200.822516 343.402447 
L 200.822516 343.402447 
L 200.822516 343.402447 
L 200.822516 343.402447 
L 200.822516 343.402447 
L 200.822516 343.402447 
L 200.822516 343.402447 
L 200.822516 343.402447 
L 200.822516 343.402447 
L 200.822516 343.402447 
L 200.822516 343.402447 
L 200.822516 343.402447 
L 200.822516 343.402447 
L 200.822516 343.402447 
L 200.822516 343.402447 
L 200.822516 343.402447 
L 200.822516 343.402447 
L 200.822516 343.402447 
L 200.822516 343.402447 
L 200.822516 343.402447 
L 200.822516 343.402447 
L 200.822516 343.402447 
L 200.822516 343.402447 
L 200.822516 343.402447 
L 200.822516 343.402447 
L 200.822516 343.402447 
L 200.822516 343.402447 
L 200.822516 343.402447 
L 200.822516 343.402447 
L 200.822516 343.402447 
L 200.822516 343.402447 
L 200.822516 343.402447 
L 200.822516 343.402447 
L 200.822516 343.402447 
L 200.822516 343.402447 
L 200.822516 343.402447 
L 200.822516 343.402447 
L 200.822516 343.402447 
L 200.822516 343.402447 
L 200.822516 343.402447 
L 200.822516 343.402447 
L 200.822516 343.402447 
L 200.822516 343.402447 
L 200.822516 343.402447 
L 200.822516 343.402447 
L 200.822516 343.402447 
L 200.822516 343.402447 
L 200.822516 343.402447 
L 200.822516 343.402447 
L 200.822516 343.402447 
L 200.822516 343.402447 
L 200.822516 343.402447 
L 200.822516 343.402447 
L 200.822516 343.402447 
L 200.822516 343.402447 
L 200.822516 343.402447 
L 200.822516 343.402447 
L 200.822516 343.402447 
L 200.822516 343.402447 
L 200.822516 343.402447 
L 200.822516 343.402447 
L 200.822516 343.402447 
L 200.822516 343.402447 
L 200.822516 343.402447 
L 200.822516 343.402447 
L 200.822516 343.402447 
L 200.822516 343.402447 
L 200.822516 343.402447 
L 200.822516 343.402447 
L 200.822516 343.402447 
L 200.822516 343.402447 
L 200.822516 343.402447 
L 200.822516 343.402447 
L 200.822516 343.402447 
L 200.822516 343.402447 
L 200.822516 343.402447 
L 200.822516 343.402447 
L 200.822516 343.402447 
L 200.822516 343.402447 
L 200.822516 343.402447 
L 200.822516 343.402447 
z
" style="fill:#993333;stroke:#000000;stroke-linejoin:miter;"/>
   </g>
   <g id="patch_3">
    <path clip-path="url(#pbf421a4970)" d="M 198.376976 349.132185 
L 199.434572 349.838354 
L 234.846944 296.802903 
L 233.789348 296.096735 
L 233.789348 296.096735 
L 233.789348 296.096735 
L 233.789348 296.096735 
L 233.789348 296.096735 
L 233.789348 296.096735 
L 233.789348 296.096735 
L 233.789348 296.096735 
L 233.789348 296.096735 
L 233.789348 296.096735 
L 233.789348 296.096735 
L 233.789348 296.096735 
L 233.789348 296.096735 
L 233.789348 296.096735 
L 233.789348 296.096735 
L 233.789348 296.096735 
L 233.789348 296.096735 
L 233.789348 296.096735 
L 233.789348 296.096735 
L 233.789348 296.096735 
L 233.789348 296.096735 
L 233.789348 296.096735 
L 233.789348 296.096735 
L 233.789348 296.096735 
L 233.789348 296.096735 
L 233.789348 296.096735 
L 233.789348 296.096735 
L 233.789348 296.096735 
L 233.789348 296.096735 
L 233.789348 296.096735 
L 233.789348 296.096735 
L 233.789348 296.096735 
L 233.789348 296.096735 
L 233.789348 296.096735 
L 233.789348 296.096735 
L 233.789348 296.096735 
L 233.789348 296.096735 
L 233.789348 296.096735 
L 233.789348 296.096735 
L 233.789348 296.096735 
L 233.789348 296.096735 
L 233.789348 296.096735 
L 233.789348 296.096735 
L 233.789348 296.096735 
L 233.789348 296.096735 
L 233.789348 296.096735 
L 233.789348 296.096735 
L 233.789348 296.096735 
L 233.789348 296.096735 
z
" style="stroke:#000000;stroke-linejoin:miter;"/>
   </g>
   <g id="patch_4">
    <path clip-path="url(#pbf421a4970)" d="M 228.034752 295.815828 
L 228.046487 297.612294 
L 228.501586 298.935555 
L 229.371875 300.475907 
L 230.392136 301.446433 
L 231.907902 302.353539 
L 233.243529 302.733711 
L 235.033659 302.785479 
L 236.357645 302.482219 
L 237.983853 301.665975 
L 238.972038 300.75353 
L 240.036173 299.269119 
L 240.446616 297.970889 
L 240.688139 296.181746 
L 240.420349 294.815581 
L 239.780128 293.159752 
L 238.899669 292.060138 
L 237.534451 290.943027 
L 236.256891 290.379188 
L 234.50093 290.074302 
L 232.71246 290.276688 
L 231.45286 290.767156 
L 229.949775 291.80132 
L 229.105931 292.851069 
L 228.256238 294.463812 
L 228.256238 294.463812 
L 228.256238 294.463812 
L 228.256238 294.463812 
L 228.256238 294.463812 
L 228.256238 294.463812 
L 228.256238 294.463812 
L 228.256238 294.463812 
L 228.256238 294.463812 
L 228.256238 294.463812 
L 228.256238 294.463812 
L 228.256238 294.463812 
L 228.256238 294.463812 
L 228.256238 294.463812 
L 228.256238 294.463812 
L 228.256238 294.463812 
L 228.256238 294.463812 
L 228.256238 294.463812 
L 228.256238 294.463812 
L 228.256238 294.463812 
L 228.256238 294.463812 
L 228.256238 294.463812 
L 228.256238 294.463812 
L 228.256238 294.463812 
L 228.256238 294.463812 
L 228.256238 294.463812 
L 228.256238 294.463812 
L 228.256238 294.463812 
L 228.256238 294.463812 
L 228.256238 294.463812 
L 228.256238 294.463812 
L 228.256238 294.463812 
L 228.256238 294.463812 
L 228.256238 294.463812 
L 228.256238 294.463812 
L 228.256238 294.463812 
L 228.256238 294.463812 
L 228.256238 294.463812 
L 228.256238 294.463812 
L 228.256238 294.463812 
L 228.256238 294.463812 
L 228.256238 294.463812 
L 228.256238 294.463812 
L 228.256238 294.463812 
L 228.256238 294.463812 
L 228.256238 294.463812 
L 228.256238 294.463812 
L 228.256238 294.463812 
L 228.256238 294.463812 
L 228.256238 294.463812 
L 228.256238 294.463812 
L 228.256238 294.463812 
L 228.256238 294.463812 
L 228.256238 294.463812 
L 228.256238 294.463812 
L 228.256238 294.463812 
L 228.256238 294.463812 
L 228.256238 294.463812 
L 228.256238 294.463812 
L 228.256238 294.463812 
L 228.256238 294.463812 
L 228.256238 294.463812 
L 228.256238 294.463812 
L 228.256238 294.463812 
L 228.256238 294.463812 
L 228.256238 294.463812 
L 228.256238 294.463812 
L 228.256238 294.463812 
L 228.256238 294.463812 
L 228.256238 294.463812 
L 228.256238 294.463812 
L 228.256238 294.463812 
L 228.256238 294.463812 
L 228.256238 294.463812 
L 228.256238 294.463812 
L 228.256238 294.463812 
L 228.256238 294.463812 
L 228.256238 294.463812 
L 228.256238 294.463812 
L 228.256238 294.463812 
L 228.256238 294.463812 
L 228.256238 294.463812 
L 228.256238 294.463812 
L 228.256238 294.463812 
L 228.256238 294.463812 
L 228.256238 294.463812 
L 228.256238 294.463812 
L 228.256238 294.463812 
L 228.256238 294.463812 
L 228.256238 294.463812 
L 228.256238 294.463812 
L 228.256238 294.463812 
L 228.256238 294.463812 
L 228.256238 294.463812 
L 228.256238 294.463812 
L 228.256238 294.463812 
L 228.256238 294.463812 
L 228.256238 294.463812 
L 228.256238 294.463812 
L 228.256238 294.463812 
L 228.256238 294.463812 
L 228.256238 294.463812 
L 228.256238 294.463812 
L 228.256238 294.463812 
L 228.256238 294.463812 
L 228.256238 294.463812 
L 228.256238 294.463812 
L 228.256238 294.463812 
L 228.256238 294.463812 
L 228.256238 294.463812 
L 228.256238 294.463812 
L 228.256238 294.463812 
L 228.256238 294.463812 
L 228.256238 294.463812 
L 228.256238 294.463812 
L 228.256238 294.463812 
L 228.256238 294.463812 
L 228.256238 294.463812 
L 228.256238 294.463812 
L 228.256238 294.463812 
L 228.256238 294.463812 
L 228.256238 294.463812 
L 228.256238 294.463812 
L 228.256238 294.463812 
L 228.256238 294.463812 
L 228.256238 294.463812 
L 228.256238 294.463812 
L 228.256238 294.463812 
L 228.256238 294.463812 
L 228.256238 294.463812 
L 228.256238 294.463812 
L 228.256238 294.463812 
L 228.256238 294.463812 
L 228.256238 294.463812 
L 228.256238 294.463812 
L 228.256238 294.463812 
L 228.256238 294.463812 
L 228.256238 294.463812 
L 228.256238 294.463812 
L 228.256238 294.463812 
L 228.256238 294.463812 
L 228.256238 294.463812 
L 228.256238 294.463812 
L 228.256238 294.463812 
L 228.256238 294.463812 
z
" style="fill:#993333;stroke:#000000;stroke-linejoin:miter;"/>
   </g>
   <g id="patch_5">
    <path clip-path="url(#pbf421a4970)" d="M 235.526294 232.685674 
L 233.682884 296.430454 
L 234.954037 296.467214 
L 236.797448 232.722434 
L 236.797448 232.722434 
L 236.797448 232.722434 
L 236.797448 232.722434 
L 236.797448 232.722434 
L 236.797448 232.722434 
L 236.797448 232.722434 
L 236.797448 232.722434 
L 236.797448 232.722434 
L 236.797448 232.722434 
L 236.797448 232.722434 
L 236.797448 232.722434 
L 236.797448 232.722434 
L 236.797448 232.722434 
L 236.797448 232.722434 
L 236.797448 232.722434 
L 236.797448 232.722434 
L 236.797448 232.722434 
L 236.797448 232.722434 
L 236.797448 232.722434 
L 236.797448 232.722434 
L 236.797448 232.722434 
L 236.797448 232.722434 
L 236.797448 232.722434 
L 236.797448 232.722434 
L 236.797448 232.722434 
L 236.797448 232.722434 
L 236.797448 232.722434 
L 236.797448 232.722434 
L 236.797448 232.722434 
L 236.797448 232.722434 
L 236.797448 232.722434 
L 236.797448 232.722434 
L 236.797448 232.722434 
L 236.797448 232.722434 
L 236.797448 232.722434 
L 236.797448 232.722434 
L 236.797448 232.722434 
L 236.797448 232.722434 
L 236.797448 232.722434 
L 236.797448 232.722434 
L 236.797448 232.722434 
L 236.797448 232.722434 
L 236.797448 232.722434 
L 236.797448 232.722434 
L 236.797448 232.722434 
L 236.797448 232.722434 
L 236.797448 232.722434 
L 236.797448 232.722434 
z
" style="stroke:#000000;stroke-linejoin:miter;"/>
   </g>
   <g id="text_1">
    <!-- t = 2.3 -->
    <defs>
     <path d="M 18.3125 70.21875 
L 18.3125 54.6875 
L 36.8125 54.6875 
L 36.8125 47.703125 
L 18.3125 47.703125 
L 18.3125 18.015625 
Q 18.3125 11.328125 20.140625 9.421875 
Q 21.96875 7.515625 27.59375 7.515625 
L 36.8125 7.515625 
L 36.8125 0 
L 27.59375 0 
Q 17.1875 0 13.234375 3.875 
Q 9.28125 7.765625 9.28125 18.015625 
L 9.28125 47.703125 
L 2.6875 47.703125 
L 2.6875 54.6875 
L 9.28125 54.6875 
L 9.28125 70.21875 
z
" id="DejaVuSans-116"/>
     <path id="DejaVuSans-32"/>
     <path d="M 10.59375 45.40625 
L 73.1875 45.40625 
L 73.1875 37.203125 
L 10.59375 37.203125 
z
M 10.59375 25.484375 
L 73.1875 25.484375 
L 73.1875 17.1875 
L 10.59375 17.1875 
z
" id="DejaVuSans-61"/>
     <path d="M 19.1875 8.296875 
L 53.609375 8.296875 
L 53.609375 0 
L 7.328125 0 
L 7.328125 8.296875 
Q 12.9375 14.109375 22.625 23.890625 
Q 32.328125 33.6875 34.8125 36.53125 
Q 39.546875 41.84375 41.421875 45.53125 
Q 43.3125 49.21875 43.3125 52.78125 
Q 43.3125 58.59375 39.234375 62.25 
Q 35.15625 65.921875 28.609375 65.921875 
Q 23.96875 65.921875 18.8125 64.3125 
Q 13.671875 62.703125 7.8125 59.421875 
L 7.8125 69.390625 
Q 13.765625 71.78125 18.9375 73 
Q 24.125 74.21875 28.421875 74.21875 
Q 39.75 74.21875 46.484375 68.546875 
Q 53.21875 62.890625 53.21875 53.421875 
Q 53.21875 48.921875 51.53125 44.890625 
Q 49.859375 40.875 45.40625 35.40625 
Q 44.1875 33.984375 37.640625 27.21875 
Q 31.109375 20.453125 19.1875 8.296875 
z
" id="DejaVuSans-50"/>
     <path d="M 10.6875 12.40625 
L 21 12.40625 
L 21 0 
L 10.6875 0 
z
" id="DejaVuSans-46"/>
     <path d="M 40.578125 39.3125 
Q 47.65625 37.796875 51.625 33 
Q 55.609375 28.21875 55.609375 21.1875 
Q 55.609375 10.40625 48.1875 4.484375 
Q 40.765625 -1.421875 27.09375 -1.421875 
Q 22.515625 -1.421875 17.65625 -0.515625 
Q 12.796875 0.390625 7.625 2.203125 
L 7.625 11.71875 
Q 11.71875 9.328125 16.59375 8.109375 
Q 21.484375 6.890625 26.8125 6.890625 
Q 36.078125 6.890625 40.9375 10.546875 
Q 45.796875 14.203125 45.796875 21.1875 
Q 45.796875 27.640625 41.28125 31.265625 
Q 36.765625 34.90625 28.71875 34.90625 
L 20.21875 34.90625 
L 20.21875 43.015625 
L 29.109375 43.015625 
Q 36.375 43.015625 40.234375 45.921875 
Q 44.09375 48.828125 44.09375 54.296875 
Q 44.09375 59.90625 40.109375 62.90625 
Q 36.140625 65.921875 28.71875 65.921875 
Q 24.65625 65.921875 20.015625 65.03125 
Q 15.375 64.15625 9.8125 62.3125 
L 9.8125 71.09375 
Q 15.4375 72.65625 20.34375 73.4375 
Q 25.25 74.21875 29.59375 74.21875 
Q 40.828125 74.21875 47.359375 69.109375 
Q 53.90625 64.015625 53.90625 55.328125 
Q 53.90625 49.265625 50.4375 45.09375 
Q 46.96875 40.921875 40.578125 39.3125 
z
" id="DejaVuSans-51"/>
    </defs>
    <g transform="translate(215.424375 49.296)scale(0.12 -0.12)">
     <use xlink:href="#DejaVuSans-116"/>
     <use x="39.208984" xlink:href="#DejaVuSans-32"/>
     <use x="70.996094" xlink:href="#DejaVuSans-61"/>
     <use x="154.785156" xlink:href="#DejaVuSans-32"/>
     <use x="186.572266" xlink:href="#DejaVuSans-50"/>
     <use x="250.195312" xlink:href="#DejaVuSans-46"/>
     <use x="281.982422" xlink:href="#DejaVuSans-51"/>
    </g>
   </g>
  </g>
 </g>
 <defs>
  <clipPath id="pbf421a4970">
   <rect height="354.816" width="357.12" x="57.6" y="55.296"/>
  </clipPath>
 </defs>
</svg>
