<?xml version="1.0" encoding="utf-8" standalone="no"?>
<!DOCTYPE svg PUBLIC "-//W3C//DTD SVG 1.1//EN"
  "http://www.w3.org/Graphics/SVG/1.1/DTD/svg11.dtd">
<!-- Created with matplotlib (https://matplotlib.org/) -->
<svg height="460.8pt" version="1.1" viewBox="0 0 460.8 460.8" width="460.8pt" xmlns="http://www.w3.org/2000/svg" xmlns:xlink="http://www.w3.org/1999/xlink">
 <defs>
  <style type="text/css">
*{stroke-linecap:butt;stroke-linejoin:round;}
  </style>
 </defs>
 <g id="figure_1">
  <g id="patch_1">
   <path d="M 0 460.8 
L 460.8 460.8 
L 460.8 0 
L 0 0 
z
" style="fill:#ffffff;"/>
  </g>
  <g id="axes_1">
   <g id="patch_2">
    <path clip-path="url(#pf7b6478cae)" d="M 131.866983 294.72255 
L 132.107499 296.497205 
L 132.622372 297.75411 
L 133.692607 299.225642 
L 134.75383 300.052002 
L 136.391752 300.860129 
L 137.739501 301.053623 
L 139.544089 301.000488 
L 140.848388 300.513741 
L 142.377817 299.612353 
L 143.319328 298.564539 
L 144.199141 297.035589 
L 144.547349 295.683248 
L 144.562135 293.901076 
L 144.07113 292.169459 
L 143.382037 291.006574 
L 142.116848 289.692017 
L 140.943666 289.030436 
L 139.214056 288.45479 
L 137.84402 288.456491 
L 136.073458 288.760694 
L 134.842001 289.425261 
L 133.463982 290.534833 
L 132.672607 291.699556 
L 132.024519 293.342835 
L 132.024519 293.342835 
L 132.024519 293.342835 
L 132.024519 293.342835 
L 132.024519 293.342835 
L 132.024519 293.342835 
L 132.024519 293.342835 
L 132.024519 293.342835 
L 132.024519 293.342835 
L 132.024519 293.342835 
L 132.024519 293.342835 
L 132.024519 293.342835 
L 132.024519 293.342835 
L 132.024519 293.342835 
L 132.024519 293.342835 
L 132.024519 293.342835 
L 132.024519 293.342835 
L 132.024519 293.342835 
L 132.024519 293.342835 
L 132.024519 293.342835 
L 132.024519 293.342835 
L 132.024519 293.342835 
L 132.024519 293.342835 
L 132.024519 293.342835 
L 132.024519 293.342835 
L 132.024519 293.342835 
L 132.024519 293.342835 
L 132.024519 293.342835 
L 132.024519 293.342835 
L 132.024519 293.342835 
L 132.024519 293.342835 
L 132.024519 293.342835 
L 132.024519 293.342835 
L 132.024519 293.342835 
L 132.024519 293.342835 
L 132.024519 293.342835 
L 132.024519 293.342835 
L 132.024519 293.342835 
L 132.024519 293.342835 
L 132.024519 293.342835 
L 132.024519 293.342835 
L 132.024519 293.342835 
L 132.024519 293.342835 
L 132.024519 293.342835 
L 132.024519 293.342835 
L 132.024519 293.342835 
L 132.024519 293.342835 
L 132.024519 293.342835 
L 132.024519 293.342835 
L 132.024519 293.342835 
L 132.024519 293.342835 
L 132.024519 293.342835 
L 132.024519 293.342835 
L 132.024519 293.342835 
L 132.024519 293.342835 
L 132.024519 293.342835 
L 132.024519 293.342835 
L 132.024519 293.342835 
L 132.024519 293.342835 
L 132.024519 293.342835 
L 132.024519 293.342835 
L 132.024519 293.342835 
L 132.024519 293.342835 
L 132.024519 293.342835 
L 132.024519 293.342835 
L 132.024519 293.342835 
L 132.024519 293.342835 
L 132.024519 293.342835 
L 132.024519 293.342835 
L 132.024519 293.342835 
L 132.024519 293.342835 
L 132.024519 293.342835 
L 132.024519 293.342835 
L 132.024519 293.342835 
L 132.024519 293.342835 
L 132.024519 293.342835 
L 132.024519 293.342835 
L 132.024519 293.342835 
L 132.024519 293.342835 
L 132.024519 293.342835 
L 132.024519 293.342835 
L 132.024519 293.342835 
L 132.024519 293.342835 
L 132.024519 293.342835 
L 132.024519 293.342835 
L 132.024519 293.342835 
L 132.024519 293.342835 
L 132.024519 293.342835 
L 132.024519 293.342835 
L 132.024519 293.342835 
L 132.024519 293.342835 
L 132.024519 293.342835 
L 132.024519 293.342835 
L 132.024519 293.342835 
L 132.024519 293.342835 
L 132.024519 293.342835 
L 132.024519 293.342835 
L 132.024519 293.342835 
L 132.024519 293.342835 
L 132.024519 293.342835 
L 132.024519 293.342835 
L 132.024519 293.342835 
L 132.024519 293.342835 
L 132.024519 293.342835 
L 132.024519 293.342835 
L 132.024519 293.342835 
L 132.024519 293.342835 
L 132.024519 293.342835 
L 132.024519 293.342835 
L 132.024519 293.342835 
L 132.024519 293.342835 
L 132.024519 293.342835 
L 132.024519 293.342835 
L 132.024519 293.342835 
L 132.024519 293.342835 
L 132.024519 293.342835 
L 132.024519 293.342835 
L 132.024519 293.342835 
L 132.024519 293.342835 
L 132.024519 293.342835 
L 132.024519 293.342835 
L 132.024519 293.342835 
L 132.024519 293.342835 
L 132.024519 293.342835 
L 132.024519 293.342835 
L 132.024519 293.342835 
L 132.024519 293.342835 
L 132.024519 293.342835 
L 132.024519 293.342835 
L 132.024519 293.342835 
L 132.024519 293.342835 
L 132.024519 293.342835 
L 132.024519 293.342835 
L 132.024519 293.342835 
L 132.024519 293.342835 
L 132.024519 293.342835 
L 132.024519 293.342835 
L 132.024519 293.342835 
L 132.024519 293.342835 
L 132.024519 293.342835 
L 132.024519 293.342835 
L 132.024519 293.342835 
L 132.024519 293.342835 
L 132.024519 293.342835 
L 132.024519 293.342835 
z
" style="fill:#993333;stroke:#000000;stroke-linejoin:miter;"/>
   </g>
   <g id="patch_3">
    <path clip-path="url(#pf7b6478cae)" d="M 138.157623 294.129304 
L 138.328411 295.389468 
L 201.52211 286.824919 
L 201.351322 285.564754 
L 201.351322 285.564754 
L 201.351322 285.564754 
L 201.351322 285.564754 
L 201.351322 285.564754 
L 201.351322 285.564754 
L 201.351322 285.564754 
L 201.351322 285.564754 
L 201.351322 285.564754 
L 201.351322 285.564754 
L 201.351322 285.564754 
L 201.351322 285.564754 
L 201.351322 285.564754 
L 201.351322 285.564754 
L 201.351322 285.564754 
L 201.351322 285.564754 
L 201.351322 285.564754 
L 201.351322 285.564754 
L 201.351322 285.564754 
L 201.351322 285.564754 
L 201.351322 285.564754 
L 201.351322 285.564754 
L 201.351322 285.564754 
L 201.351322 285.564754 
L 201.351322 285.564754 
L 201.351322 285.564754 
L 201.351322 285.564754 
L 201.351322 285.564754 
L 201.351322 285.564754 
L 201.351322 285.564754 
L 201.351322 285.564754 
L 201.351322 285.564754 
L 201.351322 285.564754 
L 201.351322 285.564754 
L 201.351322 285.564754 
L 201.351322 285.564754 
L 201.351322 285.564754 
L 201.351322 285.564754 
L 201.351322 285.564754 
L 201.351322 285.564754 
L 201.351322 285.564754 
L 201.351322 285.564754 
L 201.351322 285.564754 
L 201.351322 285.564754 
L 201.351322 285.564754 
L 201.351322 285.564754 
L 201.351322 285.564754 
L 201.351322 285.564754 
L 201.351322 285.564754 
z
" style="stroke:#000000;stroke-linejoin:miter;"/>
   </g>
   <g id="patch_4">
    <path clip-path="url(#pf7b6478cae)" d="M 201.945006 279.850807 
L 200.123353 279.952494 
L 198.856685 280.410316 
L 197.292251 281.345977 
L 196.399985 282.385623 
L 195.475798 283.926177 
L 195.17639 285.293104 
L 195.118723 287.061369 
L 195.485479 288.420907 
L 196.308452 289.98395 
L 197.251578 291.003236 
L 198.753697 291.978369 
L 200.042282 292.407847 
L 201.855777 292.556324 
L 203.174331 292.290842 
L 204.855195 291.576311 
L 205.88089 290.680869 
L 207.017588 289.278271 
L 207.499298 287.972104 
L 207.813528 286.224845 
L 207.633313 284.827747 
L 207.04814 283.163617 
L 206.250123 282.017648 
L 204.908818 280.844083 
L 203.27595 280.086899 
L 203.27595 280.086899 
L 203.27595 280.086899 
L 203.27595 280.086899 
L 203.27595 280.086899 
L 203.27595 280.086899 
L 203.27595 280.086899 
L 203.27595 280.086899 
L 203.27595 280.086899 
L 203.27595 280.086899 
L 203.27595 280.086899 
L 203.27595 280.086899 
L 203.27595 280.086899 
L 203.27595 280.086899 
L 203.27595 280.086899 
L 203.27595 280.086899 
L 203.27595 280.086899 
L 203.27595 280.086899 
L 203.27595 280.086899 
L 203.27595 280.086899 
L 203.27595 280.086899 
L 203.27595 280.086899 
L 203.27595 280.086899 
L 203.27595 280.086899 
L 203.27595 280.086899 
L 203.27595 280.086899 
L 203.27595 280.086899 
L 203.27595 280.086899 
L 203.27595 280.086899 
L 203.27595 280.086899 
L 203.27595 280.086899 
L 203.27595 280.086899 
L 203.27595 280.086899 
L 203.27595 280.086899 
L 203.27595 280.086899 
L 203.27595 280.086899 
L 203.27595 280.086899 
L 203.27595 280.086899 
L 203.27595 280.086899 
L 203.27595 280.086899 
L 203.27595 280.086899 
L 203.27595 280.086899 
L 203.27595 280.086899 
L 203.27595 280.086899 
L 203.27595 280.086899 
L 203.27595 280.086899 
L 203.27595 280.086899 
L 203.27595 280.086899 
L 203.27595 280.086899 
L 203.27595 280.086899 
L 203.27595 280.086899 
L 203.27595 280.086899 
L 203.27595 280.086899 
L 203.27595 280.086899 
L 203.27595 280.086899 
L 203.27595 280.086899 
L 203.27595 280.086899 
L 203.27595 280.086899 
L 203.27595 280.086899 
L 203.27595 280.086899 
L 203.27595 280.086899 
L 203.27595 280.086899 
L 203.27595 280.086899 
L 203.27595 280.086899 
L 203.27595 280.086899 
L 203.27595 280.086899 
L 203.27595 280.086899 
L 203.27595 280.086899 
L 203.27595 280.086899 
L 203.27595 280.086899 
L 203.27595 280.086899 
L 203.27595 280.086899 
L 203.27595 280.086899 
L 203.27595 280.086899 
L 203.27595 280.086899 
L 203.27595 280.086899 
L 203.27595 280.086899 
L 203.27595 280.086899 
L 203.27595 280.086899 
L 203.27595 280.086899 
L 203.27595 280.086899 
L 203.27595 280.086899 
L 203.27595 280.086899 
L 203.27595 280.086899 
L 203.27595 280.086899 
L 203.27595 280.086899 
L 203.27595 280.086899 
L 203.27595 280.086899 
L 203.27595 280.086899 
L 203.27595 280.086899 
L 203.27595 280.086899 
L 203.27595 280.086899 
L 203.27595 280.086899 
L 203.27595 280.086899 
L 203.27595 280.086899 
L 203.27595 280.086899 
L 203.27595 280.086899 
L 203.27595 280.086899 
L 203.27595 280.086899 
L 203.27595 280.086899 
L 203.27595 280.086899 
L 203.27595 280.086899 
L 203.27595 280.086899 
L 203.27595 280.086899 
L 203.27595 280.086899 
L 203.27595 280.086899 
L 203.27595 280.086899 
L 203.27595 280.086899 
L 203.27595 280.086899 
L 203.27595 280.086899 
L 203.27595 280.086899 
L 203.27595 280.086899 
L 203.27595 280.086899 
L 203.27595 280.086899 
L 203.27595 280.086899 
L 203.27595 280.086899 
L 203.27595 280.086899 
L 203.27595 280.086899 
L 203.27595 280.086899 
L 203.27595 280.086899 
L 203.27595 280.086899 
L 203.27595 280.086899 
L 203.27595 280.086899 
L 203.27595 280.086899 
L 203.27595 280.086899 
L 203.27595 280.086899 
L 203.27595 280.086899 
L 203.27595 280.086899 
L 203.27595 280.086899 
L 203.27595 280.086899 
L 203.27595 280.086899 
L 203.27595 280.086899 
L 203.27595 280.086899 
L 203.27595 280.086899 
L 203.27595 280.086899 
L 203.27595 280.086899 
L 203.27595 280.086899 
L 203.27595 280.086899 
L 203.27595 280.086899 
L 203.27595 280.086899 
L 203.27595 280.086899 
L 203.27595 280.086899 
L 203.27595 280.086899 
L 203.27595 280.086899 
L 203.27595 280.086899 
z
" style="fill:#993333;stroke:#000000;stroke-linejoin:miter;"/>
   </g>
   <g id="patch_5">
    <path clip-path="url(#pf7b6478cae)" d="M 235.62825 232.358803 
L 200.904714 285.847785 
L 201.971354 286.540217 
L 236.69489 233.051235 
L 236.69489 233.051235 
L 236.69489 233.051235 
L 236.69489 233.051235 
L 236.69489 233.051235 
L 236.69489 233.051235 
L 236.69489 233.051235 
L 236.69489 233.051235 
L 236.69489 233.051235 
L 236.69489 233.051235 
L 236.69489 233.051235 
L 236.69489 233.051235 
L 236.69489 233.051235 
L 236.69489 233.051235 
L 236.69489 233.051235 
L 236.69489 233.051235 
L 236.69489 233.051235 
L 236.69489 233.051235 
L 236.69489 233.051235 
L 236.69489 233.051235 
L 236.69489 233.051235 
L 236.69489 233.051235 
L 236.69489 233.051235 
L 236.69489 233.051235 
L 236.69489 233.051235 
L 236.69489 233.051235 
L 236.69489 233.051235 
L 236.69489 233.051235 
L 236.69489 233.051235 
L 236.69489 233.051235 
L 236.69489 233.051235 
L 236.69489 233.051235 
L 236.69489 233.051235 
L 236.69489 233.051235 
L 236.69489 233.051235 
L 236.69489 233.051235 
L 236.69489 233.051235 
L 236.69489 233.051235 
L 236.69489 233.051235 
L 236.69489 233.051235 
L 236.69489 233.051235 
L 236.69489 233.051235 
L 236.69489 233.051235 
L 236.69489 233.051235 
L 236.69489 233.051235 
L 236.69489 233.051235 
L 236.69489 233.051235 
L 236.69489 233.051235 
L 236.69489 233.051235 
z
" style="stroke:#000000;stroke-linejoin:miter;"/>
   </g>
   <g id="text_1">
    <!-- t = 0.4 -->
    <defs>
     <path d="M 18.3125 70.21875 
L 18.3125 54.6875 
L 36.8125 54.6875 
L 36.8125 47.703125 
L 18.3125 47.703125 
L 18.3125 18.015625 
Q 18.3125 11.328125 20.140625 9.421875 
Q 21.96875 7.515625 27.59375 7.515625 
L 36.8125 7.515625 
L 36.8125 0 
L 27.59375 0 
Q 17.1875 0 13.234375 3.875 
Q 9.28125 7.765625 9.28125 18.015625 
L 9.28125 47.703125 
L 2.6875 47.703125 
L 2.6875 54.6875 
L 9.28125 54.6875 
L 9.28125 70.21875 
z
" id="DejaVuSans-116"/>
     <path id="DejaVuSans-32"/>
     <path d="M 10.59375 45.40625 
L 73.1875 45.40625 
L 73.1875 37.203125 
L 10.59375 37.203125 
z
M 10.59375 25.484375 
L 73.1875 25.484375 
L 73.1875 17.1875 
L 10.59375 17.1875 
z
" id="DejaVuSans-61"/>
     <path d="M 31.78125 66.40625 
Q 24.171875 66.40625 20.328125 58.90625 
Q 16.5 51.421875 16.5 36.375 
Q 16.5 21.390625 20.328125 13.890625 
Q 24.171875 6.390625 31.78125 6.390625 
Q 39.453125 6.390625 43.28125 13.890625 
Q 47.125 21.390625 47.125 36.375 
Q 47.125 51.421875 43.28125 58.90625 
Q 39.453125 66.40625 31.78125 66.40625 
z
M 31.78125 74.21875 
Q 44.046875 74.21875 50.515625 64.515625 
Q 56.984375 54.828125 56.984375 36.375 
Q 56.984375 17.96875 50.515625 8.265625 
Q 44.046875 -1.421875 31.78125 -1.421875 
Q 19.53125 -1.421875 13.0625 8.265625 
Q 6.59375 17.96875 6.59375 36.375 
Q 6.59375 54.828125 13.0625 64.515625 
Q 19.53125 74.21875 31.78125 74.21875 
z
" id="DejaVuSans-48"/>
     <path d="M 10.6875 12.40625 
L 21 12.40625 
L 21 0 
L 10.6875 0 
z
" id="DejaVuSans-46"/>
     <path d="M 37.796875 64.3125 
L 12.890625 25.390625 
L 37.796875 25.390625 
z
M 35.203125 72.90625 
L 47.609375 72.90625 
L 47.609375 25.390625 
L 58.015625 25.390625 
L 58.015625 17.1875 
L 47.609375 17.1875 
L 47.609375 0 
L 37.796875 0 
L 37.796875 17.1875 
L 4.890625 17.1875 
L 4.890625 26.703125 
z
" id="DejaVuSans-52"/>
    </defs>
    <g transform="translate(215.424375 49.296)scale(0.12 -0.12)">
     <use xlink:href="#DejaVuSans-116"/>
     <use x="39.208984" xlink:href="#DejaVuSans-32"/>
     <use x="70.996094" xlink:href="#DejaVuSans-61"/>
     <use x="154.785156" xlink:href="#DejaVuSans-32"/>
     <use x="186.572266" xlink:href="#DejaVuSans-48"/>
     <use x="250.195312" xlink:href="#DejaVuSans-46"/>
     <use x="281.982422" xlink:href="#DejaVuSans-52"/>
    </g>
   </g>
  </g>
 </g>
 <defs>
  <clipPath id="pf7b6478cae">
   <rect height="354.816" width="357.12" x="57.6" y="55.296"/>
  </clipPath>
 </defs>
</svg>
