<?xml version="1.0" encoding="utf-8" standalone="no"?>
<!DOCTYPE svg PUBLIC "-//W3C//DTD SVG 1.1//EN"
  "http://www.w3.org/Graphics/SVG/1.1/DTD/svg11.dtd">
<!-- Created with matplotlib (https://matplotlib.org/) -->
<svg height="460.8pt" version="1.1" viewBox="0 0 460.8 460.8" width="460.8pt" xmlns="http://www.w3.org/2000/svg" xmlns:xlink="http://www.w3.org/1999/xlink">
 <defs>
  <style type="text/css">
*{stroke-linecap:butt;stroke-linejoin:round;}
  </style>
 </defs>
 <g id="figure_1">
  <g id="patch_1">
   <path d="M 0 460.8 
L 460.8 460.8 
L 460.8 0 
L 0 0 
z
" style="fill:#ffffff;"/>
  </g>
  <g id="axes_1">
   <g id="patch_2">
    <path clip-path="url(#p9ae0dce3e4)" d="M 125.092656 240.279172 
L 123.346809 240.565709 
L 122.084275 241.189296 
L 120.710626 242.299915 
L 119.893713 243.422895 
L 119.228579 245.085677 
L 119.057297 246.433107 
L 119.263527 248.240945 
L 119.779812 249.482925 
L 120.806912 250.993197 
L 121.884359 251.825649 
L 123.48086 252.668588 
L 124.855673 252.887698 
L 126.630696 252.856923 
L 127.966272 252.409045 
L 129.485229 251.512091 
L 130.454573 250.506881 
L 131.34557 248.963353 
L 131.771527 247.214597 
L 131.74488 245.863139 
L 131.291658 244.095838 
L 130.596757 242.942079 
L 129.37532 241.588931 
L 128.182302 240.915352 
L 126.491701 240.307654 
L 126.491701 240.307654 
L 126.491701 240.307654 
L 126.491701 240.307654 
L 126.491701 240.307654 
L 126.491701 240.307654 
L 126.491701 240.307654 
L 126.491701 240.307654 
L 126.491701 240.307654 
L 126.491701 240.307654 
L 126.491701 240.307654 
L 126.491701 240.307654 
L 126.491701 240.307654 
L 126.491701 240.307654 
L 126.491701 240.307654 
L 126.491701 240.307654 
L 126.491701 240.307654 
L 126.491701 240.307654 
L 126.491701 240.307654 
L 126.491701 240.307654 
L 126.491701 240.307654 
L 126.491701 240.307654 
L 126.491701 240.307654 
L 126.491701 240.307654 
L 126.491701 240.307654 
L 126.491701 240.307654 
L 126.491701 240.307654 
L 126.491701 240.307654 
L 126.491701 240.307654 
L 126.491701 240.307654 
L 126.491701 240.307654 
L 126.491701 240.307654 
L 126.491701 240.307654 
L 126.491701 240.307654 
L 126.491701 240.307654 
L 126.491701 240.307654 
L 126.491701 240.307654 
L 126.491701 240.307654 
L 126.491701 240.307654 
L 126.491701 240.307654 
L 126.491701 240.307654 
L 126.491701 240.307654 
L 126.491701 240.307654 
L 126.491701 240.307654 
L 126.491701 240.307654 
L 126.491701 240.307654 
L 126.491701 240.307654 
L 126.491701 240.307654 
L 126.491701 240.307654 
L 126.491701 240.307654 
L 126.491701 240.307654 
L 126.491701 240.307654 
L 126.491701 240.307654 
L 126.491701 240.307654 
L 126.491701 240.307654 
L 126.491701 240.307654 
L 126.491701 240.307654 
L 126.491701 240.307654 
L 126.491701 240.307654 
L 126.491701 240.307654 
L 126.491701 240.307654 
L 126.491701 240.307654 
L 126.491701 240.307654 
L 126.491701 240.307654 
L 126.491701 240.307654 
L 126.491701 240.307654 
L 126.491701 240.307654 
L 126.491701 240.307654 
L 126.491701 240.307654 
L 126.491701 240.307654 
L 126.491701 240.307654 
L 126.491701 240.307654 
L 126.491701 240.307654 
L 126.491701 240.307654 
L 126.491701 240.307654 
L 126.491701 240.307654 
L 126.491701 240.307654 
L 126.491701 240.307654 
L 126.491701 240.307654 
L 126.491701 240.307654 
L 126.491701 240.307654 
L 126.491701 240.307654 
L 126.491701 240.307654 
L 126.491701 240.307654 
L 126.491701 240.307654 
L 126.491701 240.307654 
L 126.491701 240.307654 
L 126.491701 240.307654 
L 126.491701 240.307654 
L 126.491701 240.307654 
L 126.491701 240.307654 
L 126.491701 240.307654 
L 126.491701 240.307654 
L 126.491701 240.307654 
L 126.491701 240.307654 
L 126.491701 240.307654 
L 126.491701 240.307654 
L 126.491701 240.307654 
L 126.491701 240.307654 
L 126.491701 240.307654 
L 126.491701 240.307654 
L 126.491701 240.307654 
L 126.491701 240.307654 
L 126.491701 240.307654 
L 126.491701 240.307654 
L 126.491701 240.307654 
L 126.491701 240.307654 
L 126.491701 240.307654 
L 126.491701 240.307654 
L 126.491701 240.307654 
L 126.491701 240.307654 
L 126.491701 240.307654 
L 126.491701 240.307654 
L 126.491701 240.307654 
L 126.491701 240.307654 
L 126.491701 240.307654 
L 126.491701 240.307654 
L 126.491701 240.307654 
L 126.491701 240.307654 
L 126.491701 240.307654 
L 126.491701 240.307654 
L 126.491701 240.307654 
L 126.491701 240.307654 
L 126.491701 240.307654 
L 126.491701 240.307654 
L 126.491701 240.307654 
L 126.491701 240.307654 
L 126.491701 240.307654 
L 126.491701 240.307654 
L 126.491701 240.307654 
L 126.491701 240.307654 
L 126.491701 240.307654 
L 126.491701 240.307654 
L 126.491701 240.307654 
L 126.491701 240.307654 
L 126.491701 240.307654 
L 126.491701 240.307654 
L 126.491701 240.307654 
L 126.491701 240.307654 
L 126.491701 240.307654 
L 126.491701 240.307654 
L 126.491701 240.307654 
L 126.491701 240.307654 
L 126.491701 240.307654 
L 126.491701 240.307654 
z
" style="fill:#993333;stroke:#000000;stroke-linejoin:miter;"/>
   </g>
   <g id="patch_3">
    <path clip-path="url(#p9ae0dce3e4)" d="M 125.18772 247.186978 
L 184.39775 270.87173 
L 184.870054 269.691005 
L 125.660024 246.006253 
L 125.660024 246.006253 
L 125.660024 246.006253 
L 125.660024 246.006253 
L 125.660024 246.006253 
L 125.660024 246.006253 
L 125.660024 246.006253 
L 125.660024 246.006253 
L 125.660024 246.006253 
L 125.660024 246.006253 
L 125.660024 246.006253 
L 125.660024 246.006253 
L 125.660024 246.006253 
L 125.660024 246.006253 
L 125.660024 246.006253 
L 125.660024 246.006253 
L 125.660024 246.006253 
L 125.660024 246.006253 
L 125.660024 246.006253 
L 125.660024 246.006253 
L 125.660024 246.006253 
L 125.660024 246.006253 
L 125.660024 246.006253 
L 125.660024 246.006253 
L 125.660024 246.006253 
L 125.660024 246.006253 
L 125.660024 246.006253 
L 125.660024 246.006253 
L 125.660024 246.006253 
L 125.660024 246.006253 
L 125.660024 246.006253 
L 125.660024 246.006253 
L 125.660024 246.006253 
L 125.660024 246.006253 
L 125.660024 246.006253 
L 125.660024 246.006253 
L 125.660024 246.006253 
L 125.660024 246.006253 
L 125.660024 246.006253 
L 125.660024 246.006253 
L 125.660024 246.006253 
L 125.660024 246.006253 
L 125.660024 246.006253 
L 125.660024 246.006253 
L 125.660024 246.006253 
L 125.660024 246.006253 
L 125.660024 246.006253 
L 125.660024 246.006253 
L 125.660024 246.006253 
z
" style="stroke:#000000;stroke-linejoin:miter;"/>
   </g>
   <g id="patch_4">
    <path clip-path="url(#p9ae0dce3e4)" d="M 178.28038 270.237185 
L 178.491376 271.991 
L 179.00866 273.279739 
L 180.063888 274.726716 
L 181.114366 275.587762 
L 182.755469 276.373629 
L 184.081946 276.596169 
L 185.907126 276.52852 
L 187.184835 276.058066 
L 188.747224 275.153464 
L 189.663337 274.105201 
L 190.580407 272.585123 
L 190.910628 271.215703 
L 190.957848 269.452317 
L 190.621328 268.097021 
L 189.787137 266.522067 
L 188.531992 265.23203 
L 187.372933 264.53652 
L 185.634934 263.981433 
L 184.288289 263.957086 
L 182.49296 264.272855 
L 181.288433 264.925632 
L 179.875332 266.034945 
L 179.107834 267.205023 
L 178.422939 268.836282 
L 178.422939 268.836282 
L 178.422939 268.836282 
L 178.422939 268.836282 
L 178.422939 268.836282 
L 178.422939 268.836282 
L 178.422939 268.836282 
L 178.422939 268.836282 
L 178.422939 268.836282 
L 178.422939 268.836282 
L 178.422939 268.836282 
L 178.422939 268.836282 
L 178.422939 268.836282 
L 178.422939 268.836282 
L 178.422939 268.836282 
L 178.422939 268.836282 
L 178.422939 268.836282 
L 178.422939 268.836282 
L 178.422939 268.836282 
L 178.422939 268.836282 
L 178.422939 268.836282 
L 178.422939 268.836282 
L 178.422939 268.836282 
L 178.422939 268.836282 
L 178.422939 268.836282 
L 178.422939 268.836282 
L 178.422939 268.836282 
L 178.422939 268.836282 
L 178.422939 268.836282 
L 178.422939 268.836282 
L 178.422939 268.836282 
L 178.422939 268.836282 
L 178.422939 268.836282 
L 178.422939 268.836282 
L 178.422939 268.836282 
L 178.422939 268.836282 
L 178.422939 268.836282 
L 178.422939 268.836282 
L 178.422939 268.836282 
L 178.422939 268.836282 
L 178.422939 268.836282 
L 178.422939 268.836282 
L 178.422939 268.836282 
L 178.422939 268.836282 
L 178.422939 268.836282 
L 178.422939 268.836282 
L 178.422939 268.836282 
L 178.422939 268.836282 
L 178.422939 268.836282 
L 178.422939 268.836282 
L 178.422939 268.836282 
L 178.422939 268.836282 
L 178.422939 268.836282 
L 178.422939 268.836282 
L 178.422939 268.836282 
L 178.422939 268.836282 
L 178.422939 268.836282 
L 178.422939 268.836282 
L 178.422939 268.836282 
L 178.422939 268.836282 
L 178.422939 268.836282 
L 178.422939 268.836282 
L 178.422939 268.836282 
L 178.422939 268.836282 
L 178.422939 268.836282 
L 178.422939 268.836282 
L 178.422939 268.836282 
L 178.422939 268.836282 
L 178.422939 268.836282 
L 178.422939 268.836282 
L 178.422939 268.836282 
L 178.422939 268.836282 
L 178.422939 268.836282 
L 178.422939 268.836282 
L 178.422939 268.836282 
L 178.422939 268.836282 
L 178.422939 268.836282 
L 178.422939 268.836282 
L 178.422939 268.836282 
L 178.422939 268.836282 
L 178.422939 268.836282 
L 178.422939 268.836282 
L 178.422939 268.836282 
L 178.422939 268.836282 
L 178.422939 268.836282 
L 178.422939 268.836282 
L 178.422939 268.836282 
L 178.422939 268.836282 
L 178.422939 268.836282 
L 178.422939 268.836282 
L 178.422939 268.836282 
L 178.422939 268.836282 
L 178.422939 268.836282 
L 178.422939 268.836282 
L 178.422939 268.836282 
L 178.422939 268.836282 
L 178.422939 268.836282 
L 178.422939 268.836282 
L 178.422939 268.836282 
L 178.422939 268.836282 
L 178.422939 268.836282 
L 178.422939 268.836282 
L 178.422939 268.836282 
L 178.422939 268.836282 
L 178.422939 268.836282 
L 178.422939 268.836282 
L 178.422939 268.836282 
L 178.422939 268.836282 
L 178.422939 268.836282 
L 178.422939 268.836282 
L 178.422939 268.836282 
L 178.422939 268.836282 
L 178.422939 268.836282 
L 178.422939 268.836282 
L 178.422939 268.836282 
L 178.422939 268.836282 
L 178.422939 268.836282 
L 178.422939 268.836282 
L 178.422939 268.836282 
L 178.422939 268.836282 
L 178.422939 268.836282 
L 178.422939 268.836282 
L 178.422939 268.836282 
L 178.422939 268.836282 
L 178.422939 268.836282 
L 178.422939 268.836282 
L 178.422939 268.836282 
L 178.422939 268.836282 
L 178.422939 268.836282 
L 178.422939 268.836282 
L 178.422939 268.836282 
L 178.422939 268.836282 
L 178.422939 268.836282 
L 178.422939 268.836282 
L 178.422939 268.836282 
L 178.422939 268.836282 
L 178.422939 268.836282 
L 178.422939 268.836282 
L 178.422939 268.836282 
L 178.422939 268.836282 
L 178.422939 268.836282 
L 178.422939 268.836282 
L 178.422939 268.836282 
L 178.422939 268.836282 
L 178.422939 268.836282 
z
" style="fill:#993333;stroke:#000000;stroke-linejoin:miter;"/>
   </g>
   <g id="patch_5">
    <path clip-path="url(#p9ae0dce3e4)" d="M 235.78645 232.191771 
L 184.261047 269.767401 
L 185.010353 270.794884 
L 236.535756 233.219254 
L 236.535756 233.219254 
L 236.535756 233.219254 
L 236.535756 233.219254 
L 236.535756 233.219254 
L 236.535756 233.219254 
L 236.535756 233.219254 
L 236.535756 233.219254 
L 236.535756 233.219254 
L 236.535756 233.219254 
L 236.535756 233.219254 
L 236.535756 233.219254 
L 236.535756 233.219254 
L 236.535756 233.219254 
L 236.535756 233.219254 
L 236.535756 233.219254 
L 236.535756 233.219254 
L 236.535756 233.219254 
L 236.535756 233.219254 
L 236.535756 233.219254 
L 236.535756 233.219254 
L 236.535756 233.219254 
L 236.535756 233.219254 
L 236.535756 233.219254 
L 236.535756 233.219254 
L 236.535756 233.219254 
L 236.535756 233.219254 
L 236.535756 233.219254 
L 236.535756 233.219254 
L 236.535756 233.219254 
L 236.535756 233.219254 
L 236.535756 233.219254 
L 236.535756 233.219254 
L 236.535756 233.219254 
L 236.535756 233.219254 
L 236.535756 233.219254 
L 236.535756 233.219254 
L 236.535756 233.219254 
L 236.535756 233.219254 
L 236.535756 233.219254 
L 236.535756 233.219254 
L 236.535756 233.219254 
L 236.535756 233.219254 
L 236.535756 233.219254 
L 236.535756 233.219254 
L 236.535756 233.219254 
L 236.535756 233.219254 
L 236.535756 233.219254 
L 236.535756 233.219254 
z
" style="stroke:#000000;stroke-linejoin:miter;"/>
   </g>
   <g id="text_1">
    <!-- t = 0.1 -->
    <defs>
     <path d="M 18.3125 70.21875 
L 18.3125 54.6875 
L 36.8125 54.6875 
L 36.8125 47.703125 
L 18.3125 47.703125 
L 18.3125 18.015625 
Q 18.3125 11.328125 20.140625 9.421875 
Q 21.96875 7.515625 27.59375 7.515625 
L 36.8125 7.515625 
L 36.8125 0 
L 27.59375 0 
Q 17.1875 0 13.234375 3.875 
Q 9.28125 7.765625 9.28125 18.015625 
L 9.28125 47.703125 
L 2.6875 47.703125 
L 2.6875 54.6875 
L 9.28125 54.6875 
L 9.28125 70.21875 
z
" id="DejaVuSans-116"/>
     <path id="DejaVuSans-32"/>
     <path d="M 10.59375 45.40625 
L 73.1875 45.40625 
L 73.1875 37.203125 
L 10.59375 37.203125 
z
M 10.59375 25.484375 
L 73.1875 25.484375 
L 73.1875 17.1875 
L 10.59375 17.1875 
z
" id="DejaVuSans-61"/>
     <path d="M 31.78125 66.40625 
Q 24.171875 66.40625 20.328125 58.90625 
Q 16.5 51.421875 16.5 36.375 
Q 16.5 21.390625 20.328125 13.890625 
Q 24.171875 6.390625 31.78125 6.390625 
Q 39.453125 6.390625 43.28125 13.890625 
Q 47.125 21.390625 47.125 36.375 
Q 47.125 51.421875 43.28125 58.90625 
Q 39.453125 66.40625 31.78125 66.40625 
z
M 31.78125 74.21875 
Q 44.046875 74.21875 50.515625 64.515625 
Q 56.984375 54.828125 56.984375 36.375 
Q 56.984375 17.96875 50.515625 8.265625 
Q 44.046875 -1.421875 31.78125 -1.421875 
Q 19.53125 -1.421875 13.0625 8.265625 
Q 6.59375 17.96875 6.59375 36.375 
Q 6.59375 54.828125 13.0625 64.515625 
Q 19.53125 74.21875 31.78125 74.21875 
z
" id="DejaVuSans-48"/>
     <path d="M 10.6875 12.40625 
L 21 12.40625 
L 21 0 
L 10.6875 0 
z
" id="DejaVuSans-46"/>
     <path d="M 12.40625 8.296875 
L 28.515625 8.296875 
L 28.515625 63.921875 
L 10.984375 60.40625 
L 10.984375 69.390625 
L 28.421875 72.90625 
L 38.28125 72.90625 
L 38.28125 8.296875 
L 54.390625 8.296875 
L 54.390625 0 
L 12.40625 0 
z
" id="DejaVuSans-49"/>
    </defs>
    <g transform="translate(215.424375 49.296)scale(0.12 -0.12)">
     <use xlink:href="#DejaVuSans-116"/>
     <use x="39.208984" xlink:href="#DejaVuSans-32"/>
     <use x="70.996094" xlink:href="#DejaVuSans-61"/>
     <use x="154.785156" xlink:href="#DejaVuSans-32"/>
     <use x="186.572266" xlink:href="#DejaVuSans-48"/>
     <use x="250.195312" xlink:href="#DejaVuSans-46"/>
     <use x="281.982422" xlink:href="#DejaVuSans-49"/>
    </g>
   </g>
  </g>
 </g>
 <defs>
  <clipPath id="p9ae0dce3e4">
   <rect height="354.816" width="357.12" x="57.6" y="55.296"/>
  </clipPath>
 </defs>
</svg>
