<?xml version="1.0" encoding="utf-8" standalone="no"?>
<!DOCTYPE svg PUBLIC "-//W3C//DTD SVG 1.1//EN"
  "http://www.w3.org/Graphics/SVG/1.1/DTD/svg11.dtd">
<!-- Created with matplotlib (https://matplotlib.org/) -->
<svg height="460.8pt" version="1.1" viewBox="0 0 460.8 460.8" width="460.8pt" xmlns="http://www.w3.org/2000/svg" xmlns:xlink="http://www.w3.org/1999/xlink">
 <defs>
  <style type="text/css">
*{stroke-linecap:butt;stroke-linejoin:round;}
  </style>
 </defs>
 <g id="figure_1">
  <g id="patch_1">
   <path d="M 0 460.8 
L 460.8 460.8 
L 460.8 0 
L 0 0 
z
" style="fill:#ffffff;"/>
  </g>
  <g id="axes_1">
   <g id="patch_2">
    <path clip-path="url(#p7f317d8488)" d="M 336.523502 300.590017 
L 337.275061 301.707696 
L 338.562442 302.998264 
L 339.78756 303.611526 
L 341.506356 304.13418 
L 342.905081 304.092876 
L 344.634471 303.719653 
L 345.864345 303.033896 
L 347.180914 301.856173 
L 347.940823 300.693861 
L 348.522229 298.999985 
L 348.62612 297.645692 
L 348.330014 295.850384 
L 347.752451 294.635688 
L 346.651331 293.178502 
L 345.533721 292.400803 
L 343.897179 291.638509 
L 342.513152 291.488215 
L 340.741871 291.607448 
L 339.430285 292.121356 
L 337.957936 293.092925 
L 337.039914 294.145213 
L 336.226979 295.731243 
L 335.888739 297.499061 
L 335.982732 298.84751 
L 335.982732 298.84751 
L 335.982732 298.84751 
L 335.982732 298.84751 
L 335.982732 298.84751 
L 335.982732 298.84751 
L 335.982732 298.84751 
L 335.982732 298.84751 
L 335.982732 298.84751 
L 335.982732 298.84751 
L 335.982732 298.84751 
L 335.982732 298.84751 
L 335.982732 298.84751 
L 335.982732 298.84751 
L 335.982732 298.84751 
L 335.982732 298.84751 
L 335.982732 298.84751 
L 335.982732 298.84751 
L 335.982732 298.84751 
L 335.982732 298.84751 
L 335.982732 298.84751 
L 335.982732 298.84751 
L 335.982732 298.84751 
L 335.982732 298.84751 
L 335.982732 298.84751 
L 335.982732 298.84751 
L 335.982732 298.84751 
L 335.982732 298.84751 
L 335.982732 298.84751 
L 335.982732 298.84751 
L 335.982732 298.84751 
L 335.982732 298.84751 
L 335.982732 298.84751 
L 335.982732 298.84751 
L 335.982732 298.84751 
L 335.982732 298.84751 
L 335.982732 298.84751 
L 335.982732 298.84751 
L 335.982732 298.84751 
L 335.982732 298.84751 
L 335.982732 298.84751 
L 335.982732 298.84751 
L 335.982732 298.84751 
L 335.982732 298.84751 
L 335.982732 298.84751 
L 335.982732 298.84751 
L 335.982732 298.84751 
L 335.982732 298.84751 
L 335.982732 298.84751 
L 335.982732 298.84751 
L 335.982732 298.84751 
L 335.982732 298.84751 
L 335.982732 298.84751 
L 335.982732 298.84751 
L 335.982732 298.84751 
L 335.982732 298.84751 
L 335.982732 298.84751 
L 335.982732 298.84751 
L 335.982732 298.84751 
L 335.982732 298.84751 
L 335.982732 298.84751 
L 335.982732 298.84751 
L 335.982732 298.84751 
L 335.982732 298.84751 
L 335.982732 298.84751 
L 335.982732 298.84751 
L 335.982732 298.84751 
L 335.982732 298.84751 
L 335.982732 298.84751 
L 335.982732 298.84751 
L 335.982732 298.84751 
L 335.982732 298.84751 
L 335.982732 298.84751 
L 335.982732 298.84751 
L 335.982732 298.84751 
L 335.982732 298.84751 
L 335.982732 298.84751 
L 335.982732 298.84751 
L 335.982732 298.84751 
L 335.982732 298.84751 
L 335.982732 298.84751 
L 335.982732 298.84751 
L 335.982732 298.84751 
L 335.982732 298.84751 
L 335.982732 298.84751 
L 335.982732 298.84751 
L 335.982732 298.84751 
L 335.982732 298.84751 
L 335.982732 298.84751 
L 335.982732 298.84751 
L 335.982732 298.84751 
L 335.982732 298.84751 
L 335.982732 298.84751 
L 335.982732 298.84751 
L 335.982732 298.84751 
L 335.982732 298.84751 
L 335.982732 298.84751 
L 335.982732 298.84751 
L 335.982732 298.84751 
L 335.982732 298.84751 
L 335.982732 298.84751 
L 335.982732 298.84751 
L 335.982732 298.84751 
L 335.982732 298.84751 
L 335.982732 298.84751 
L 335.982732 298.84751 
L 335.982732 298.84751 
L 335.982732 298.84751 
L 335.982732 298.84751 
L 335.982732 298.84751 
L 335.982732 298.84751 
L 335.982732 298.84751 
L 335.982732 298.84751 
L 335.982732 298.84751 
L 335.982732 298.84751 
L 335.982732 298.84751 
L 335.982732 298.84751 
L 335.982732 298.84751 
L 335.982732 298.84751 
L 335.982732 298.84751 
L 335.982732 298.84751 
L 335.982732 298.84751 
L 335.982732 298.84751 
L 335.982732 298.84751 
L 335.982732 298.84751 
L 335.982732 298.84751 
L 335.982732 298.84751 
L 335.982732 298.84751 
L 335.982732 298.84751 
L 335.982732 298.84751 
L 335.982732 298.84751 
L 335.982732 298.84751 
L 335.982732 298.84751 
L 335.982732 298.84751 
L 335.982732 298.84751 
L 335.982732 298.84751 
L 335.982732 298.84751 
L 335.982732 298.84751 
L 335.982732 298.84751 
L 335.982732 298.84751 
L 335.982732 298.84751 
L 335.982732 298.84751 
L 335.982732 298.84751 
L 335.982732 298.84751 
L 335.982732 298.84751 
z
" style="fill:#993333;stroke:#000000;stroke-linejoin:miter;"/>
   </g>
   <g id="patch_3">
    <path clip-path="url(#p7f317d8488)" d="M 281.73565 277.697914 
L 342.052886 298.401204 
L 342.465736 297.1984 
L 282.1485 276.49511 
L 282.1485 276.49511 
L 282.1485 276.49511 
L 282.1485 276.49511 
L 282.1485 276.49511 
L 282.1485 276.49511 
L 282.1485 276.49511 
L 282.1485 276.49511 
L 282.1485 276.49511 
L 282.1485 276.49511 
L 282.1485 276.49511 
L 282.1485 276.49511 
L 282.1485 276.49511 
L 282.1485 276.49511 
L 282.1485 276.49511 
L 282.1485 276.49511 
L 282.1485 276.49511 
L 282.1485 276.49511 
L 282.1485 276.49511 
L 282.1485 276.49511 
L 282.1485 276.49511 
L 282.1485 276.49511 
L 282.1485 276.49511 
L 282.1485 276.49511 
L 282.1485 276.49511 
L 282.1485 276.49511 
L 282.1485 276.49511 
L 282.1485 276.49511 
L 282.1485 276.49511 
L 282.1485 276.49511 
L 282.1485 276.49511 
L 282.1485 276.49511 
L 282.1485 276.49511 
L 282.1485 276.49511 
L 282.1485 276.49511 
L 282.1485 276.49511 
L 282.1485 276.49511 
L 282.1485 276.49511 
L 282.1485 276.49511 
L 282.1485 276.49511 
L 282.1485 276.49511 
L 282.1485 276.49511 
L 282.1485 276.49511 
L 282.1485 276.49511 
L 282.1485 276.49511 
L 282.1485 276.49511 
L 282.1485 276.49511 
L 282.1485 276.49511 
L 282.1485 276.49511 
z
" style="stroke:#000000;stroke-linejoin:miter;"/>
   </g>
   <g id="patch_4">
    <path clip-path="url(#p7f317d8488)" d="M 277.363321 272.658854 
L 276.305222 274.114881 
L 275.81669 275.375233 
L 275.564877 277.182261 
L 275.769619 278.513474 
L 276.385745 280.229081 
L 277.233631 281.305227 
L 278.566847 282.509372 
L 279.850286 283.066974 
L 281.574173 283.46484 
L 282.978935 283.367376 
L 284.671427 282.861552 
L 285.853576 282.132886 
L 287.100291 280.847215 
L 287.770396 279.665749 
L 288.266095 277.915009 
L 288.260091 276.570007 
L 287.88341 274.78284 
L 287.202767 273.603606 
L 286.04593 272.217571 
L 284.857293 271.492823 
L 283.203534 270.847272 
L 281.797923 270.754452 
L 280.052141 271.007437 
L 278.773698 271.569272 
L 278.773698 271.569272 
L 278.773698 271.569272 
L 278.773698 271.569272 
L 278.773698 271.569272 
L 278.773698 271.569272 
L 278.773698 271.569272 
L 278.773698 271.569272 
L 278.773698 271.569272 
L 278.773698 271.569272 
L 278.773698 271.569272 
L 278.773698 271.569272 
L 278.773698 271.569272 
L 278.773698 271.569272 
L 278.773698 271.569272 
L 278.773698 271.569272 
L 278.773698 271.569272 
L 278.773698 271.569272 
L 278.773698 271.569272 
L 278.773698 271.569272 
L 278.773698 271.569272 
L 278.773698 271.569272 
L 278.773698 271.569272 
L 278.773698 271.569272 
L 278.773698 271.569272 
L 278.773698 271.569272 
L 278.773698 271.569272 
L 278.773698 271.569272 
L 278.773698 271.569272 
L 278.773698 271.569272 
L 278.773698 271.569272 
L 278.773698 271.569272 
L 278.773698 271.569272 
L 278.773698 271.569272 
L 278.773698 271.569272 
L 278.773698 271.569272 
L 278.773698 271.569272 
L 278.773698 271.569272 
L 278.773698 271.569272 
L 278.773698 271.569272 
L 278.773698 271.569272 
L 278.773698 271.569272 
L 278.773698 271.569272 
L 278.773698 271.569272 
L 278.773698 271.569272 
L 278.773698 271.569272 
L 278.773698 271.569272 
L 278.773698 271.569272 
L 278.773698 271.569272 
L 278.773698 271.569272 
L 278.773698 271.569272 
L 278.773698 271.569272 
L 278.773698 271.569272 
L 278.773698 271.569272 
L 278.773698 271.569272 
L 278.773698 271.569272 
L 278.773698 271.569272 
L 278.773698 271.569272 
L 278.773698 271.569272 
L 278.773698 271.569272 
L 278.773698 271.569272 
L 278.773698 271.569272 
L 278.773698 271.569272 
L 278.773698 271.569272 
L 278.773698 271.569272 
L 278.773698 271.569272 
L 278.773698 271.569272 
L 278.773698 271.569272 
L 278.773698 271.569272 
L 278.773698 271.569272 
L 278.773698 271.569272 
L 278.773698 271.569272 
L 278.773698 271.569272 
L 278.773698 271.569272 
L 278.773698 271.569272 
L 278.773698 271.569272 
L 278.773698 271.569272 
L 278.773698 271.569272 
L 278.773698 271.569272 
L 278.773698 271.569272 
L 278.773698 271.569272 
L 278.773698 271.569272 
L 278.773698 271.569272 
L 278.773698 271.569272 
L 278.773698 271.569272 
L 278.773698 271.569272 
L 278.773698 271.569272 
L 278.773698 271.569272 
L 278.773698 271.569272 
L 278.773698 271.569272 
L 278.773698 271.569272 
L 278.773698 271.569272 
L 278.773698 271.569272 
L 278.773698 271.569272 
L 278.773698 271.569272 
L 278.773698 271.569272 
L 278.773698 271.569272 
L 278.773698 271.569272 
L 278.773698 271.569272 
L 278.773698 271.569272 
L 278.773698 271.569272 
L 278.773698 271.569272 
L 278.773698 271.569272 
L 278.773698 271.569272 
L 278.773698 271.569272 
L 278.773698 271.569272 
L 278.773698 271.569272 
L 278.773698 271.569272 
L 278.773698 271.569272 
L 278.773698 271.569272 
L 278.773698 271.569272 
L 278.773698 271.569272 
L 278.773698 271.569272 
L 278.773698 271.569272 
L 278.773698 271.569272 
L 278.773698 271.569272 
L 278.773698 271.569272 
L 278.773698 271.569272 
L 278.773698 271.569272 
L 278.773698 271.569272 
L 278.773698 271.569272 
L 278.773698 271.569272 
L 278.773698 271.569272 
L 278.773698 271.569272 
L 278.773698 271.569272 
L 278.773698 271.569272 
L 278.773698 271.569272 
L 278.773698 271.569272 
L 278.773698 271.569272 
L 278.773698 271.569272 
L 278.773698 271.569272 
L 278.773698 271.569272 
L 278.773698 271.569272 
L 278.773698 271.569272 
L 278.773698 271.569272 
L 278.773698 271.569272 
L 278.773698 271.569272 
L 278.773698 271.569272 
L 278.773698 271.569272 
L 278.773698 271.569272 
L 278.773698 271.569272 
L 278.773698 271.569272 
L 278.773698 271.569272 
L 278.773698 271.569272 
L 278.773698 271.569272 
z
" style="fill:#993333;stroke:#000000;stroke-linejoin:miter;"/>
   </g>
   <g id="patch_5">
    <path clip-path="url(#p7f317d8488)" d="M 236.603943 232.246185 
L 235.718663 233.159127 
L 281.500131 277.55341 
L 282.38541 276.640468 
L 282.38541 276.640468 
L 282.38541 276.640468 
L 282.38541 276.640468 
L 282.38541 276.640468 
L 282.38541 276.640468 
L 282.38541 276.640468 
L 282.38541 276.640468 
L 282.38541 276.640468 
L 282.38541 276.640468 
L 282.38541 276.640468 
L 282.38541 276.640468 
L 282.38541 276.640468 
L 282.38541 276.640468 
L 282.38541 276.640468 
L 282.38541 276.640468 
L 282.38541 276.640468 
L 282.38541 276.640468 
L 282.38541 276.640468 
L 282.38541 276.640468 
L 282.38541 276.640468 
L 282.38541 276.640468 
L 282.38541 276.640468 
L 282.38541 276.640468 
L 282.38541 276.640468 
L 282.38541 276.640468 
L 282.38541 276.640468 
L 282.38541 276.640468 
L 282.38541 276.640468 
L 282.38541 276.640468 
L 282.38541 276.640468 
L 282.38541 276.640468 
L 282.38541 276.640468 
L 282.38541 276.640468 
L 282.38541 276.640468 
L 282.38541 276.640468 
L 282.38541 276.640468 
L 282.38541 276.640468 
L 282.38541 276.640468 
L 282.38541 276.640468 
L 282.38541 276.640468 
L 282.38541 276.640468 
L 282.38541 276.640468 
L 282.38541 276.640468 
L 282.38541 276.640468 
L 282.38541 276.640468 
L 282.38541 276.640468 
L 282.38541 276.640468 
L 282.38541 276.640468 
z
" style="stroke:#000000;stroke-linejoin:miter;"/>
   </g>
   <g id="text_1">
    <!-- t = 4.0 -->
    <defs>
     <path d="M 18.3125 70.21875 
L 18.3125 54.6875 
L 36.8125 54.6875 
L 36.8125 47.703125 
L 18.3125 47.703125 
L 18.3125 18.015625 
Q 18.3125 11.328125 20.140625 9.421875 
Q 21.96875 7.515625 27.59375 7.515625 
L 36.8125 7.515625 
L 36.8125 0 
L 27.59375 0 
Q 17.1875 0 13.234375 3.875 
Q 9.28125 7.765625 9.28125 18.015625 
L 9.28125 47.703125 
L 2.6875 47.703125 
L 2.6875 54.6875 
L 9.28125 54.6875 
L 9.28125 70.21875 
z
" id="DejaVuSans-116"/>
     <path id="DejaVuSans-32"/>
     <path d="M 10.59375 45.40625 
L 73.1875 45.40625 
L 73.1875 37.203125 
L 10.59375 37.203125 
z
M 10.59375 25.484375 
L 73.1875 25.484375 
L 73.1875 17.1875 
L 10.59375 17.1875 
z
" id="DejaVuSans-61"/>
     <path d="M 37.796875 64.3125 
L 12.890625 25.390625 
L 37.796875 25.390625 
z
M 35.203125 72.90625 
L 47.609375 72.90625 
L 47.609375 25.390625 
L 58.015625 25.390625 
L 58.015625 17.1875 
L 47.609375 17.1875 
L 47.609375 0 
L 37.796875 0 
L 37.796875 17.1875 
L 4.890625 17.1875 
L 4.890625 26.703125 
z
" id="DejaVuSans-52"/>
     <path d="M 10.6875 12.40625 
L 21 12.40625 
L 21 0 
L 10.6875 0 
z
" id="DejaVuSans-46"/>
     <path d="M 31.78125 66.40625 
Q 24.171875 66.40625 20.328125 58.90625 
Q 16.5 51.421875 16.5 36.375 
Q 16.5 21.390625 20.328125 13.890625 
Q 24.171875 6.390625 31.78125 6.390625 
Q 39.453125 6.390625 43.28125 13.890625 
Q 47.125 21.390625 47.125 36.375 
Q 47.125 51.421875 43.28125 58.90625 
Q 39.453125 66.40625 31.78125 66.40625 
z
M 31.78125 74.21875 
Q 44.046875 74.21875 50.515625 64.515625 
Q 56.984375 54.828125 56.984375 36.375 
Q 56.984375 17.96875 50.515625 8.265625 
Q 44.046875 -1.421875 31.78125 -1.421875 
Q 19.53125 -1.421875 13.0625 8.265625 
Q 6.59375 17.96875 6.59375 36.375 
Q 6.59375 54.828125 13.0625 64.515625 
Q 19.53125 74.21875 31.78125 74.21875 
z
" id="DejaVuSans-48"/>
    </defs>
    <g transform="translate(215.424375 49.296)scale(0.12 -0.12)">
     <use xlink:href="#DejaVuSans-116"/>
     <use x="39.208984" xlink:href="#DejaVuSans-32"/>
     <use x="70.996094" xlink:href="#DejaVuSans-61"/>
     <use x="154.785156" xlink:href="#DejaVuSans-32"/>
     <use x="186.572266" xlink:href="#DejaVuSans-52"/>
     <use x="250.195312" xlink:href="#DejaVuSans-46"/>
     <use x="281.982422" xlink:href="#DejaVuSans-48"/>
    </g>
   </g>
  </g>
 </g>
 <defs>
  <clipPath id="p7f317d8488">
   <rect height="354.816" width="357.12" x="57.6" y="55.296"/>
  </clipPath>
 </defs>
</svg>
