<?xml version="1.0" encoding="utf-8" standalone="no"?>
<!DOCTYPE svg PUBLIC "-//W3C//DTD SVG 1.1//EN"
  "http://www.w3.org/Graphics/SVG/1.1/DTD/svg11.dtd">
<!-- Created with matplotlib (https://matplotlib.org/) -->
<svg height="460.8pt" version="1.1" viewBox="0 0 460.8 460.8" width="460.8pt" xmlns="http://www.w3.org/2000/svg" xmlns:xlink="http://www.w3.org/1999/xlink">
 <defs>
  <style type="text/css">
*{stroke-linecap:butt;stroke-linejoin:round;}
  </style>
 </defs>
 <g id="figure_1">
  <g id="patch_1">
   <path d="M 0 460.8 
L 460.8 460.8 
L 460.8 0 
L 0 0 
z
" style="fill:#ffffff;"/>
  </g>
  <g id="axes_1">
   <g id="patch_2">
    <path clip-path="url(#p664956127d)" d="M 113.798232 286.085668 
L 115.162045 287.29017 
L 116.377184 287.866798 
L 118.151353 288.300598 
L 119.508997 288.197293 
L 121.259144 287.754181 
L 122.426892 286.996236 
L 123.724521 285.784701 
L 124.416468 284.557686 
L 124.943873 282.874356 
L 124.990607 281.478687 
L 124.618662 279.735698 
L 123.763914 278.151718 
L 122.839094 277.165889 
L 121.318997 276.156896 
L 120.030285 275.7654 
L 118.217012 275.578431 
L 116.879931 275.87712 
L 115.217433 276.557951 
L 114.159346 277.473695 
L 113.054662 278.855635 
L 112.534626 280.164229 
L 112.25822 281.908931 
L 112.403558 283.289984 
L 113.023104 284.970284 
L 113.023104 284.970284 
L 113.023104 284.970284 
L 113.023104 284.970284 
L 113.023104 284.970284 
L 113.023104 284.970284 
L 113.023104 284.970284 
L 113.023104 284.970284 
L 113.023104 284.970284 
L 113.023104 284.970284 
L 113.023104 284.970284 
L 113.023104 284.970284 
L 113.023104 284.970284 
L 113.023104 284.970284 
L 113.023104 284.970284 
L 113.023104 284.970284 
L 113.023104 284.970284 
L 113.023104 284.970284 
L 113.023104 284.970284 
L 113.023104 284.970284 
L 113.023104 284.970284 
L 113.023104 284.970284 
L 113.023104 284.970284 
L 113.023104 284.970284 
L 113.023104 284.970284 
L 113.023104 284.970284 
L 113.023104 284.970284 
L 113.023104 284.970284 
L 113.023104 284.970284 
L 113.023104 284.970284 
L 113.023104 284.970284 
L 113.023104 284.970284 
L 113.023104 284.970284 
L 113.023104 284.970284 
L 113.023104 284.970284 
L 113.023104 284.970284 
L 113.023104 284.970284 
L 113.023104 284.970284 
L 113.023104 284.970284 
L 113.023104 284.970284 
L 113.023104 284.970284 
L 113.023104 284.970284 
L 113.023104 284.970284 
L 113.023104 284.970284 
L 113.023104 284.970284 
L 113.023104 284.970284 
L 113.023104 284.970284 
L 113.023104 284.970284 
L 113.023104 284.970284 
L 113.023104 284.970284 
L 113.023104 284.970284 
L 113.023104 284.970284 
L 113.023104 284.970284 
L 113.023104 284.970284 
L 113.023104 284.970284 
L 113.023104 284.970284 
L 113.023104 284.970284 
L 113.023104 284.970284 
L 113.023104 284.970284 
L 113.023104 284.970284 
L 113.023104 284.970284 
L 113.023104 284.970284 
L 113.023104 284.970284 
L 113.023104 284.970284 
L 113.023104 284.970284 
L 113.023104 284.970284 
L 113.023104 284.970284 
L 113.023104 284.970284 
L 113.023104 284.970284 
L 113.023104 284.970284 
L 113.023104 284.970284 
L 113.023104 284.970284 
L 113.023104 284.970284 
L 113.023104 284.970284 
L 113.023104 284.970284 
L 113.023104 284.970284 
L 113.023104 284.970284 
L 113.023104 284.970284 
L 113.023104 284.970284 
L 113.023104 284.970284 
L 113.023104 284.970284 
L 113.023104 284.970284 
L 113.023104 284.970284 
L 113.023104 284.970284 
L 113.023104 284.970284 
L 113.023104 284.970284 
L 113.023104 284.970284 
L 113.023104 284.970284 
L 113.023104 284.970284 
L 113.023104 284.970284 
L 113.023104 284.970284 
L 113.023104 284.970284 
L 113.023104 284.970284 
L 113.023104 284.970284 
L 113.023104 284.970284 
L 113.023104 284.970284 
L 113.023104 284.970284 
L 113.023104 284.970284 
L 113.023104 284.970284 
L 113.023104 284.970284 
L 113.023104 284.970284 
L 113.023104 284.970284 
L 113.023104 284.970284 
L 113.023104 284.970284 
L 113.023104 284.970284 
L 113.023104 284.970284 
L 113.023104 284.970284 
L 113.023104 284.970284 
L 113.023104 284.970284 
L 113.023104 284.970284 
L 113.023104 284.970284 
L 113.023104 284.970284 
L 113.023104 284.970284 
L 113.023104 284.970284 
L 113.023104 284.970284 
L 113.023104 284.970284 
L 113.023104 284.970284 
L 113.023104 284.970284 
L 113.023104 284.970284 
L 113.023104 284.970284 
L 113.023104 284.970284 
L 113.023104 284.970284 
L 113.023104 284.970284 
L 113.023104 284.970284 
L 113.023104 284.970284 
L 113.023104 284.970284 
L 113.023104 284.970284 
L 113.023104 284.970284 
L 113.023104 284.970284 
L 113.023104 284.970284 
L 113.023104 284.970284 
L 113.023104 284.970284 
L 113.023104 284.970284 
L 113.023104 284.970284 
L 113.023104 284.970284 
L 113.023104 284.970284 
L 113.023104 284.970284 
L 113.023104 284.970284 
L 113.023104 284.970284 
L 113.023104 284.970284 
L 113.023104 284.970284 
L 113.023104 284.970284 
L 113.023104 284.970284 
L 113.023104 284.970284 
L 113.023104 284.970284 
z
" style="fill:#993333;stroke:#000000;stroke-linejoin:miter;"/>
   </g>
   <g id="patch_3">
    <path clip-path="url(#p664956127d)" d="M 118.415959 281.347017 
L 118.855892 282.540181 
L 178.689727 260.478737 
L 178.249793 259.285573 
L 178.249793 259.285573 
L 178.249793 259.285573 
L 178.249793 259.285573 
L 178.249793 259.285573 
L 178.249793 259.285573 
L 178.249793 259.285573 
L 178.249793 259.285573 
L 178.249793 259.285573 
L 178.249793 259.285573 
L 178.249793 259.285573 
L 178.249793 259.285573 
L 178.249793 259.285573 
L 178.249793 259.285573 
L 178.249793 259.285573 
L 178.249793 259.285573 
L 178.249793 259.285573 
L 178.249793 259.285573 
L 178.249793 259.285573 
L 178.249793 259.285573 
L 178.249793 259.285573 
L 178.249793 259.285573 
L 178.249793 259.285573 
L 178.249793 259.285573 
L 178.249793 259.285573 
L 178.249793 259.285573 
L 178.249793 259.285573 
L 178.249793 259.285573 
L 178.249793 259.285573 
L 178.249793 259.285573 
L 178.249793 259.285573 
L 178.249793 259.285573 
L 178.249793 259.285573 
L 178.249793 259.285573 
L 178.249793 259.285573 
L 178.249793 259.285573 
L 178.249793 259.285573 
L 178.249793 259.285573 
L 178.249793 259.285573 
L 178.249793 259.285573 
L 178.249793 259.285573 
L 178.249793 259.285573 
L 178.249793 259.285573 
L 178.249793 259.285573 
L 178.249793 259.285573 
L 178.249793 259.285573 
L 178.249793 259.285573 
L 178.249793 259.285573 
L 178.249793 259.285573 
z
" style="stroke:#000000;stroke-linejoin:miter;"/>
   </g>
   <g id="patch_4">
    <path clip-path="url(#p664956127d)" d="M 173.621912 255.818016 
L 172.641468 257.290706 
L 172.237089 258.639532 
L 172.113309 260.401651 
L 172.378083 261.764855 
L 173.141272 263.384976 
L 174.010373 264.428798 
L 175.473676 265.510257 
L 176.734319 265.979134 
L 178.539468 266.257153 
L 179.883002 266.036287 
L 181.588034 265.442797 
L 182.685516 264.586263 
L 183.87298 263.266572 
L 184.455708 261.98408 
L 184.834871 260.261294 
L 184.760172 258.866842 
L 184.238202 257.162759 
L 183.24907 255.659029 
L 182.242097 254.757276 
L 180.640087 253.884165 
L 179.322235 253.606112 
L 177.499574 253.577388 
L 176.193499 253.991113 
L 174.596438 254.813808 
L 174.596438 254.813808 
L 174.596438 254.813808 
L 174.596438 254.813808 
L 174.596438 254.813808 
L 174.596438 254.813808 
L 174.596438 254.813808 
L 174.596438 254.813808 
L 174.596438 254.813808 
L 174.596438 254.813808 
L 174.596438 254.813808 
L 174.596438 254.813808 
L 174.596438 254.813808 
L 174.596438 254.813808 
L 174.596438 254.813808 
L 174.596438 254.813808 
L 174.596438 254.813808 
L 174.596438 254.813808 
L 174.596438 254.813808 
L 174.596438 254.813808 
L 174.596438 254.813808 
L 174.596438 254.813808 
L 174.596438 254.813808 
L 174.596438 254.813808 
L 174.596438 254.813808 
L 174.596438 254.813808 
L 174.596438 254.813808 
L 174.596438 254.813808 
L 174.596438 254.813808 
L 174.596438 254.813808 
L 174.596438 254.813808 
L 174.596438 254.813808 
L 174.596438 254.813808 
L 174.596438 254.813808 
L 174.596438 254.813808 
L 174.596438 254.813808 
L 174.596438 254.813808 
L 174.596438 254.813808 
L 174.596438 254.813808 
L 174.596438 254.813808 
L 174.596438 254.813808 
L 174.596438 254.813808 
L 174.596438 254.813808 
L 174.596438 254.813808 
L 174.596438 254.813808 
L 174.596438 254.813808 
L 174.596438 254.813808 
L 174.596438 254.813808 
L 174.596438 254.813808 
L 174.596438 254.813808 
L 174.596438 254.813808 
L 174.596438 254.813808 
L 174.596438 254.813808 
L 174.596438 254.813808 
L 174.596438 254.813808 
L 174.596438 254.813808 
L 174.596438 254.813808 
L 174.596438 254.813808 
L 174.596438 254.813808 
L 174.596438 254.813808 
L 174.596438 254.813808 
L 174.596438 254.813808 
L 174.596438 254.813808 
L 174.596438 254.813808 
L 174.596438 254.813808 
L 174.596438 254.813808 
L 174.596438 254.813808 
L 174.596438 254.813808 
L 174.596438 254.813808 
L 174.596438 254.813808 
L 174.596438 254.813808 
L 174.596438 254.813808 
L 174.596438 254.813808 
L 174.596438 254.813808 
L 174.596438 254.813808 
L 174.596438 254.813808 
L 174.596438 254.813808 
L 174.596438 254.813808 
L 174.596438 254.813808 
L 174.596438 254.813808 
L 174.596438 254.813808 
L 174.596438 254.813808 
L 174.596438 254.813808 
L 174.596438 254.813808 
L 174.596438 254.813808 
L 174.596438 254.813808 
L 174.596438 254.813808 
L 174.596438 254.813808 
L 174.596438 254.813808 
L 174.596438 254.813808 
L 174.596438 254.813808 
L 174.596438 254.813808 
L 174.596438 254.813808 
L 174.596438 254.813808 
L 174.596438 254.813808 
L 174.596438 254.813808 
L 174.596438 254.813808 
L 174.596438 254.813808 
L 174.596438 254.813808 
L 174.596438 254.813808 
L 174.596438 254.813808 
L 174.596438 254.813808 
L 174.596438 254.813808 
L 174.596438 254.813808 
L 174.596438 254.813808 
L 174.596438 254.813808 
L 174.596438 254.813808 
L 174.596438 254.813808 
L 174.596438 254.813808 
L 174.596438 254.813808 
L 174.596438 254.813808 
L 174.596438 254.813808 
L 174.596438 254.813808 
L 174.596438 254.813808 
L 174.596438 254.813808 
L 174.596438 254.813808 
L 174.596438 254.813808 
L 174.596438 254.813808 
L 174.596438 254.813808 
L 174.596438 254.813808 
L 174.596438 254.813808 
L 174.596438 254.813808 
L 174.596438 254.813808 
L 174.596438 254.813808 
L 174.596438 254.813808 
L 174.596438 254.813808 
L 174.596438 254.813808 
L 174.596438 254.813808 
L 174.596438 254.813808 
L 174.596438 254.813808 
L 174.596438 254.813808 
L 174.596438 254.813808 
L 174.596438 254.813808 
L 174.596438 254.813808 
L 174.596438 254.813808 
L 174.596438 254.813808 
L 174.596438 254.813808 
L 174.596438 254.813808 
L 174.596438 254.813808 
L 174.596438 254.813808 
L 174.596438 254.813808 
L 174.596438 254.813808 
L 174.596438 254.813808 
L 174.596438 254.813808 
L 174.596438 254.813808 
z
" style="fill:#993333;stroke:#000000;stroke-linejoin:miter;"/>
   </g>
   <g id="patch_5">
    <path clip-path="url(#p664956127d)" d="M 235.889831 232.130478 
L 178.198944 259.306876 
L 178.740877 260.457307 
L 236.431764 233.280909 
L 236.431764 233.280909 
L 236.431764 233.280909 
L 236.431764 233.280909 
L 236.431764 233.280909 
L 236.431764 233.280909 
L 236.431764 233.280909 
L 236.431764 233.280909 
L 236.431764 233.280909 
L 236.431764 233.280909 
L 236.431764 233.280909 
L 236.431764 233.280909 
L 236.431764 233.280909 
L 236.431764 233.280909 
L 236.431764 233.280909 
L 236.431764 233.280909 
L 236.431764 233.280909 
L 236.431764 233.280909 
L 236.431764 233.280909 
L 236.431764 233.280909 
L 236.431764 233.280909 
L 236.431764 233.280909 
L 236.431764 233.280909 
L 236.431764 233.280909 
L 236.431764 233.280909 
L 236.431764 233.280909 
L 236.431764 233.280909 
L 236.431764 233.280909 
L 236.431764 233.280909 
L 236.431764 233.280909 
L 236.431764 233.280909 
L 236.431764 233.280909 
L 236.431764 233.280909 
L 236.431764 233.280909 
L 236.431764 233.280909 
L 236.431764 233.280909 
L 236.431764 233.280909 
L 236.431764 233.280909 
L 236.431764 233.280909 
L 236.431764 233.280909 
L 236.431764 233.280909 
L 236.431764 233.280909 
L 236.431764 233.280909 
L 236.431764 233.280909 
L 236.431764 233.280909 
L 236.431764 233.280909 
L 236.431764 233.280909 
L 236.431764 233.280909 
L 236.431764 233.280909 
z
" style="stroke:#000000;stroke-linejoin:miter;"/>
   </g>
   <g id="text_1">
    <!-- t = 5.7 -->
    <defs>
     <path d="M 18.3125 70.21875 
L 18.3125 54.6875 
L 36.8125 54.6875 
L 36.8125 47.703125 
L 18.3125 47.703125 
L 18.3125 18.015625 
Q 18.3125 11.328125 20.140625 9.421875 
Q 21.96875 7.515625 27.59375 7.515625 
L 36.8125 7.515625 
L 36.8125 0 
L 27.59375 0 
Q 17.1875 0 13.234375 3.875 
Q 9.28125 7.765625 9.28125 18.015625 
L 9.28125 47.703125 
L 2.6875 47.703125 
L 2.6875 54.6875 
L 9.28125 54.6875 
L 9.28125 70.21875 
z
" id="DejaVuSans-116"/>
     <path id="DejaVuSans-32"/>
     <path d="M 10.59375 45.40625 
L 73.1875 45.40625 
L 73.1875 37.203125 
L 10.59375 37.203125 
z
M 10.59375 25.484375 
L 73.1875 25.484375 
L 73.1875 17.1875 
L 10.59375 17.1875 
z
" id="DejaVuSans-61"/>
     <path d="M 10.796875 72.90625 
L 49.515625 72.90625 
L 49.515625 64.59375 
L 19.828125 64.59375 
L 19.828125 46.734375 
Q 21.96875 47.46875 24.109375 47.828125 
Q 26.265625 48.1875 28.421875 48.1875 
Q 40.625 48.1875 47.75 41.5 
Q 54.890625 34.8125 54.890625 23.390625 
Q 54.890625 11.625 47.5625 5.09375 
Q 40.234375 -1.421875 26.90625 -1.421875 
Q 22.3125 -1.421875 17.546875 -0.640625 
Q 12.796875 0.140625 7.71875 1.703125 
L 7.71875 11.625 
Q 12.109375 9.234375 16.796875 8.0625 
Q 21.484375 6.890625 26.703125 6.890625 
Q 35.15625 6.890625 40.078125 11.328125 
Q 45.015625 15.765625 45.015625 23.390625 
Q 45.015625 31 40.078125 35.4375 
Q 35.15625 39.890625 26.703125 39.890625 
Q 22.75 39.890625 18.8125 39.015625 
Q 14.890625 38.140625 10.796875 36.28125 
z
" id="DejaVuSans-53"/>
     <path d="M 10.6875 12.40625 
L 21 12.40625 
L 21 0 
L 10.6875 0 
z
" id="DejaVuSans-46"/>
     <path d="M 8.203125 72.90625 
L 55.078125 72.90625 
L 55.078125 68.703125 
L 28.609375 0 
L 18.3125 0 
L 43.21875 64.59375 
L 8.203125 64.59375 
z
" id="DejaVuSans-55"/>
    </defs>
    <g transform="translate(215.424375 49.296)scale(0.12 -0.12)">
     <use xlink:href="#DejaVuSans-116"/>
     <use x="39.208984" xlink:href="#DejaVuSans-32"/>
     <use x="70.996094" xlink:href="#DejaVuSans-61"/>
     <use x="154.785156" xlink:href="#DejaVuSans-32"/>
     <use x="186.572266" xlink:href="#DejaVuSans-53"/>
     <use x="250.195312" xlink:href="#DejaVuSans-46"/>
     <use x="281.982422" xlink:href="#DejaVuSans-55"/>
    </g>
   </g>
  </g>
 </g>
 <defs>
  <clipPath id="p664956127d">
   <rect height="354.816" width="357.12" x="57.6" y="55.296"/>
  </clipPath>
 </defs>
</svg>
