<?xml version="1.0" encoding="utf-8" standalone="no"?>
<!DOCTYPE svg PUBLIC "-//W3C//DTD SVG 1.1//EN"
  "http://www.w3.org/Graphics/SVG/1.1/DTD/svg11.dtd">
<!-- Created with matplotlib (https://matplotlib.org/) -->
<svg height="460.8pt" version="1.1" viewBox="0 0 460.8 460.8" width="460.8pt" xmlns="http://www.w3.org/2000/svg" xmlns:xlink="http://www.w3.org/1999/xlink">
 <defs>
  <style type="text/css">
*{stroke-linecap:butt;stroke-linejoin:round;}
  </style>
 </defs>
 <g id="figure_1">
  <g id="patch_1">
   <path d="M 0 460.8 
L 460.8 460.8 
L 460.8 0 
L 0 0 
z
" style="fill:#ffffff;"/>
  </g>
  <g id="axes_1">
   <g id="patch_2">
    <path clip-path="url(#p5aa287be7d)" d="M 118.953461 273.955449 
L 117.13061 273.96696 
L 115.833984 274.409411 
L 114.255471 275.267155 
L 113.303346 276.292628 
L 112.355646 277.786599 
L 111.981136 279.144022 
L 111.896279 280.908444 
L 112.191076 282.265472 
L 112.989838 283.868353 
L 113.881767 284.892739 
L 115.368582 285.941638 
L 116.639267 286.382576 
L 118.450112 286.620685 
L 119.788445 286.370218 
L 121.479962 285.739241 
L 122.558272 284.858692 
L 123.716318 283.513113 
L 124.270598 282.218072 
L 124.611644 280.487336 
L 124.506186 279.094874 
L 123.946731 277.402726 
L 122.92465 275.921194 
L 121.89802 275.041886 
L 120.277129 274.204346 
L 120.277129 274.204346 
L 120.277129 274.204346 
L 120.277129 274.204346 
L 120.277129 274.204346 
L 120.277129 274.204346 
L 120.277129 274.204346 
L 120.277129 274.204346 
L 120.277129 274.204346 
L 120.277129 274.204346 
L 120.277129 274.204346 
L 120.277129 274.204346 
L 120.277129 274.204346 
L 120.277129 274.204346 
L 120.277129 274.204346 
L 120.277129 274.204346 
L 120.277129 274.204346 
L 120.277129 274.204346 
L 120.277129 274.204346 
L 120.277129 274.204346 
L 120.277129 274.204346 
L 120.277129 274.204346 
L 120.277129 274.204346 
L 120.277129 274.204346 
L 120.277129 274.204346 
L 120.277129 274.204346 
L 120.277129 274.204346 
L 120.277129 274.204346 
L 120.277129 274.204346 
L 120.277129 274.204346 
L 120.277129 274.204346 
L 120.277129 274.204346 
L 120.277129 274.204346 
L 120.277129 274.204346 
L 120.277129 274.204346 
L 120.277129 274.204346 
L 120.277129 274.204346 
L 120.277129 274.204346 
L 120.277129 274.204346 
L 120.277129 274.204346 
L 120.277129 274.204346 
L 120.277129 274.204346 
L 120.277129 274.204346 
L 120.277129 274.204346 
L 120.277129 274.204346 
L 120.277129 274.204346 
L 120.277129 274.204346 
L 120.277129 274.204346 
L 120.277129 274.204346 
L 120.277129 274.204346 
L 120.277129 274.204346 
L 120.277129 274.204346 
L 120.277129 274.204346 
L 120.277129 274.204346 
L 120.277129 274.204346 
L 120.277129 274.204346 
L 120.277129 274.204346 
L 120.277129 274.204346 
L 120.277129 274.204346 
L 120.277129 274.204346 
L 120.277129 274.204346 
L 120.277129 274.204346 
L 120.277129 274.204346 
L 120.277129 274.204346 
L 120.277129 274.204346 
L 120.277129 274.204346 
L 120.277129 274.204346 
L 120.277129 274.204346 
L 120.277129 274.204346 
L 120.277129 274.204346 
L 120.277129 274.204346 
L 120.277129 274.204346 
L 120.277129 274.204346 
L 120.277129 274.204346 
L 120.277129 274.204346 
L 120.277129 274.204346 
L 120.277129 274.204346 
L 120.277129 274.204346 
L 120.277129 274.204346 
L 120.277129 274.204346 
L 120.277129 274.204346 
L 120.277129 274.204346 
L 120.277129 274.204346 
L 120.277129 274.204346 
L 120.277129 274.204346 
L 120.277129 274.204346 
L 120.277129 274.204346 
L 120.277129 274.204346 
L 120.277129 274.204346 
L 120.277129 274.204346 
L 120.277129 274.204346 
L 120.277129 274.204346 
L 120.277129 274.204346 
L 120.277129 274.204346 
L 120.277129 274.204346 
L 120.277129 274.204346 
L 120.277129 274.204346 
L 120.277129 274.204346 
L 120.277129 274.204346 
L 120.277129 274.204346 
L 120.277129 274.204346 
L 120.277129 274.204346 
L 120.277129 274.204346 
L 120.277129 274.204346 
L 120.277129 274.204346 
L 120.277129 274.204346 
L 120.277129 274.204346 
L 120.277129 274.204346 
L 120.277129 274.204346 
L 120.277129 274.204346 
L 120.277129 274.204346 
L 120.277129 274.204346 
L 120.277129 274.204346 
L 120.277129 274.204346 
L 120.277129 274.204346 
L 120.277129 274.204346 
L 120.277129 274.204346 
L 120.277129 274.204346 
L 120.277129 274.204346 
L 120.277129 274.204346 
L 120.277129 274.204346 
L 120.277129 274.204346 
L 120.277129 274.204346 
L 120.277129 274.204346 
L 120.277129 274.204346 
L 120.277129 274.204346 
L 120.277129 274.204346 
L 120.277129 274.204346 
L 120.277129 274.204346 
L 120.277129 274.204346 
L 120.277129 274.204346 
L 120.277129 274.204346 
L 120.277129 274.204346 
L 120.277129 274.204346 
L 120.277129 274.204346 
L 120.277129 274.204346 
L 120.277129 274.204346 
L 120.277129 274.204346 
L 120.277129 274.204346 
L 120.277129 274.204346 
L 120.277129 274.204346 
L 120.277129 274.204346 
L 120.277129 274.204346 
L 120.277129 274.204346 
L 120.277129 274.204346 
z
" style="fill:#993333;stroke:#000000;stroke-linejoin:miter;"/>
   </g>
   <g id="patch_3">
    <path clip-path="url(#p5aa287be7d)" d="M 175.033276 251.236511 
L 117.956268 279.679617 
L 118.523461 280.817806 
L 175.600469 252.374701 
L 175.600469 252.374701 
L 175.600469 252.374701 
L 175.600469 252.374701 
L 175.600469 252.374701 
L 175.600469 252.374701 
L 175.600469 252.374701 
L 175.600469 252.374701 
L 175.600469 252.374701 
L 175.600469 252.374701 
L 175.600469 252.374701 
L 175.600469 252.374701 
L 175.600469 252.374701 
L 175.600469 252.374701 
L 175.600469 252.374701 
L 175.600469 252.374701 
L 175.600469 252.374701 
L 175.600469 252.374701 
L 175.600469 252.374701 
L 175.600469 252.374701 
L 175.600469 252.374701 
L 175.600469 252.374701 
L 175.600469 252.374701 
L 175.600469 252.374701 
L 175.600469 252.374701 
L 175.600469 252.374701 
L 175.600469 252.374701 
L 175.600469 252.374701 
L 175.600469 252.374701 
L 175.600469 252.374701 
L 175.600469 252.374701 
L 175.600469 252.374701 
L 175.600469 252.374701 
L 175.600469 252.374701 
L 175.600469 252.374701 
L 175.600469 252.374701 
L 175.600469 252.374701 
L 175.600469 252.374701 
L 175.600469 252.374701 
L 175.600469 252.374701 
L 175.600469 252.374701 
L 175.600469 252.374701 
L 175.600469 252.374701 
L 175.600469 252.374701 
L 175.600469 252.374701 
L 175.600469 252.374701 
L 175.600469 252.374701 
L 175.600469 252.374701 
L 175.600469 252.374701 
z
" style="stroke:#000000;stroke-linejoin:miter;"/>
   </g>
   <g id="patch_4">
    <path clip-path="url(#p5aa287be7d)" d="M 169.562069 254.553439 
L 170.281553 255.705501 
L 171.58464 256.975451 
L 172.770033 257.61099 
L 174.520787 258.131294 
L 175.881863 258.094708 
L 177.651639 257.737978 
L 178.85516 257.038225 
L 180.210655 255.8918 
L 180.961957 254.700203 
L 181.571297 253.044769 
L 181.686435 251.653073 
L 181.400434 249.893937 
L 180.624413 248.269937 
L 179.749062 247.239931 
L 178.280288 246.157589 
L 177.012331 245.703351 
L 175.210412 245.427662 
L 173.860289 245.660405 
L 172.166397 246.258868 
L 171.064664 247.121609 
L 169.893523 248.447699 
L 169.309924 249.729208 
L 168.94827 251.458252 
L 169.02569 252.844772 
L 169.02569 252.844772 
L 169.02569 252.844772 
L 169.02569 252.844772 
L 169.02569 252.844772 
L 169.02569 252.844772 
L 169.02569 252.844772 
L 169.02569 252.844772 
L 169.02569 252.844772 
L 169.02569 252.844772 
L 169.02569 252.844772 
L 169.02569 252.844772 
L 169.02569 252.844772 
L 169.02569 252.844772 
L 169.02569 252.844772 
L 169.02569 252.844772 
L 169.02569 252.844772 
L 169.02569 252.844772 
L 169.02569 252.844772 
L 169.02569 252.844772 
L 169.02569 252.844772 
L 169.02569 252.844772 
L 169.02569 252.844772 
L 169.02569 252.844772 
L 169.02569 252.844772 
L 169.02569 252.844772 
L 169.02569 252.844772 
L 169.02569 252.844772 
L 169.02569 252.844772 
L 169.02569 252.844772 
L 169.02569 252.844772 
L 169.02569 252.844772 
L 169.02569 252.844772 
L 169.02569 252.844772 
L 169.02569 252.844772 
L 169.02569 252.844772 
L 169.02569 252.844772 
L 169.02569 252.844772 
L 169.02569 252.844772 
L 169.02569 252.844772 
L 169.02569 252.844772 
L 169.02569 252.844772 
L 169.02569 252.844772 
L 169.02569 252.844772 
L 169.02569 252.844772 
L 169.02569 252.844772 
L 169.02569 252.844772 
L 169.02569 252.844772 
L 169.02569 252.844772 
L 169.02569 252.844772 
L 169.02569 252.844772 
L 169.02569 252.844772 
L 169.02569 252.844772 
L 169.02569 252.844772 
L 169.02569 252.844772 
L 169.02569 252.844772 
L 169.02569 252.844772 
L 169.02569 252.844772 
L 169.02569 252.844772 
L 169.02569 252.844772 
L 169.02569 252.844772 
L 169.02569 252.844772 
L 169.02569 252.844772 
L 169.02569 252.844772 
L 169.02569 252.844772 
L 169.02569 252.844772 
L 169.02569 252.844772 
L 169.02569 252.844772 
L 169.02569 252.844772 
L 169.02569 252.844772 
L 169.02569 252.844772 
L 169.02569 252.844772 
L 169.02569 252.844772 
L 169.02569 252.844772 
L 169.02569 252.844772 
L 169.02569 252.844772 
L 169.02569 252.844772 
L 169.02569 252.844772 
L 169.02569 252.844772 
L 169.02569 252.844772 
L 169.02569 252.844772 
L 169.02569 252.844772 
L 169.02569 252.844772 
L 169.02569 252.844772 
L 169.02569 252.844772 
L 169.02569 252.844772 
L 169.02569 252.844772 
L 169.02569 252.844772 
L 169.02569 252.844772 
L 169.02569 252.844772 
L 169.02569 252.844772 
L 169.02569 252.844772 
L 169.02569 252.844772 
L 169.02569 252.844772 
L 169.02569 252.844772 
L 169.02569 252.844772 
L 169.02569 252.844772 
L 169.02569 252.844772 
L 169.02569 252.844772 
L 169.02569 252.844772 
L 169.02569 252.844772 
L 169.02569 252.844772 
L 169.02569 252.844772 
L 169.02569 252.844772 
L 169.02569 252.844772 
L 169.02569 252.844772 
L 169.02569 252.844772 
L 169.02569 252.844772 
L 169.02569 252.844772 
L 169.02569 252.844772 
L 169.02569 252.844772 
L 169.02569 252.844772 
L 169.02569 252.844772 
L 169.02569 252.844772 
L 169.02569 252.844772 
L 169.02569 252.844772 
L 169.02569 252.844772 
L 169.02569 252.844772 
L 169.02569 252.844772 
L 169.02569 252.844772 
L 169.02569 252.844772 
L 169.02569 252.844772 
L 169.02569 252.844772 
L 169.02569 252.844772 
L 169.02569 252.844772 
L 169.02569 252.844772 
L 169.02569 252.844772 
L 169.02569 252.844772 
L 169.02569 252.844772 
L 169.02569 252.844772 
L 169.02569 252.844772 
L 169.02569 252.844772 
L 169.02569 252.844772 
L 169.02569 252.844772 
L 169.02569 252.844772 
L 169.02569 252.844772 
L 169.02569 252.844772 
L 169.02569 252.844772 
L 169.02569 252.844772 
L 169.02569 252.844772 
L 169.02569 252.844772 
L 169.02569 252.844772 
L 169.02569 252.844772 
L 169.02569 252.844772 
L 169.02569 252.844772 
z
" style="fill:#993333;stroke:#000000;stroke-linejoin:miter;"/>
   </g>
   <g id="patch_5">
    <path clip-path="url(#p5aa287be7d)" d="M 235.970122 232.099132 
L 175.12616 251.199063 
L 175.507037 252.41237 
L 236.350999 233.31244 
L 236.350999 233.31244 
L 236.350999 233.31244 
L 236.350999 233.31244 
L 236.350999 233.31244 
L 236.350999 233.31244 
L 236.350999 233.31244 
L 236.350999 233.31244 
L 236.350999 233.31244 
L 236.350999 233.31244 
L 236.350999 233.31244 
L 236.350999 233.31244 
L 236.350999 233.31244 
L 236.350999 233.31244 
L 236.350999 233.31244 
L 236.350999 233.31244 
L 236.350999 233.31244 
L 236.350999 233.31244 
L 236.350999 233.31244 
L 236.350999 233.31244 
L 236.350999 233.31244 
L 236.350999 233.31244 
L 236.350999 233.31244 
L 236.350999 233.31244 
L 236.350999 233.31244 
L 236.350999 233.31244 
L 236.350999 233.31244 
L 236.350999 233.31244 
L 236.350999 233.31244 
L 236.350999 233.31244 
L 236.350999 233.31244 
L 236.350999 233.31244 
L 236.350999 233.31244 
L 236.350999 233.31244 
L 236.350999 233.31244 
L 236.350999 233.31244 
L 236.350999 233.31244 
L 236.350999 233.31244 
L 236.350999 233.31244 
L 236.350999 233.31244 
L 236.350999 233.31244 
L 236.350999 233.31244 
L 236.350999 233.31244 
L 236.350999 233.31244 
L 236.350999 233.31244 
L 236.350999 233.31244 
L 236.350999 233.31244 
L 236.350999 233.31244 
L 236.350999 233.31244 
z
" style="stroke:#000000;stroke-linejoin:miter;"/>
   </g>
   <g id="text_1">
    <!-- t = 2.8 -->
    <defs>
     <path d="M 18.3125 70.21875 
L 18.3125 54.6875 
L 36.8125 54.6875 
L 36.8125 47.703125 
L 18.3125 47.703125 
L 18.3125 18.015625 
Q 18.3125 11.328125 20.140625 9.421875 
Q 21.96875 7.515625 27.59375 7.515625 
L 36.8125 7.515625 
L 36.8125 0 
L 27.59375 0 
Q 17.1875 0 13.234375 3.875 
Q 9.28125 7.765625 9.28125 18.015625 
L 9.28125 47.703125 
L 2.6875 47.703125 
L 2.6875 54.6875 
L 9.28125 54.6875 
L 9.28125 70.21875 
z
" id="DejaVuSans-116"/>
     <path id="DejaVuSans-32"/>
     <path d="M 10.59375 45.40625 
L 73.1875 45.40625 
L 73.1875 37.203125 
L 10.59375 37.203125 
z
M 10.59375 25.484375 
L 73.1875 25.484375 
L 73.1875 17.1875 
L 10.59375 17.1875 
z
" id="DejaVuSans-61"/>
     <path d="M 19.1875 8.296875 
L 53.609375 8.296875 
L 53.609375 0 
L 7.328125 0 
L 7.328125 8.296875 
Q 12.9375 14.109375 22.625 23.890625 
Q 32.328125 33.6875 34.8125 36.53125 
Q 39.546875 41.84375 41.421875 45.53125 
Q 43.3125 49.21875 43.3125 52.78125 
Q 43.3125 58.59375 39.234375 62.25 
Q 35.15625 65.921875 28.609375 65.921875 
Q 23.96875 65.921875 18.8125 64.3125 
Q 13.671875 62.703125 7.8125 59.421875 
L 7.8125 69.390625 
Q 13.765625 71.78125 18.9375 73 
Q 24.125 74.21875 28.421875 74.21875 
Q 39.75 74.21875 46.484375 68.546875 
Q 53.21875 62.890625 53.21875 53.421875 
Q 53.21875 48.921875 51.53125 44.890625 
Q 49.859375 40.875 45.40625 35.40625 
Q 44.1875 33.984375 37.640625 27.21875 
Q 31.109375 20.453125 19.1875 8.296875 
z
" id="DejaVuSans-50"/>
     <path d="M 10.6875 12.40625 
L 21 12.40625 
L 21 0 
L 10.6875 0 
z
" id="DejaVuSans-46"/>
     <path d="M 31.78125 34.625 
Q 24.75 34.625 20.71875 30.859375 
Q 16.703125 27.09375 16.703125 20.515625 
Q 16.703125 13.921875 20.71875 10.15625 
Q 24.75 6.390625 31.78125 6.390625 
Q 38.8125 6.390625 42.859375 10.171875 
Q 46.921875 13.96875 46.921875 20.515625 
Q 46.921875 27.09375 42.890625 30.859375 
Q 38.875 34.625 31.78125 34.625 
z
M 21.921875 38.8125 
Q 15.578125 40.375 12.03125 44.71875 
Q 8.5 49.078125 8.5 55.328125 
Q 8.5 64.0625 14.71875 69.140625 
Q 20.953125 74.21875 31.78125 74.21875 
Q 42.671875 74.21875 48.875 69.140625 
Q 55.078125 64.0625 55.078125 55.328125 
Q 55.078125 49.078125 51.53125 44.71875 
Q 48 40.375 41.703125 38.8125 
Q 48.828125 37.15625 52.796875 32.3125 
Q 56.78125 27.484375 56.78125 20.515625 
Q 56.78125 9.90625 50.3125 4.234375 
Q 43.84375 -1.421875 31.78125 -1.421875 
Q 19.734375 -1.421875 13.25 4.234375 
Q 6.78125 9.90625 6.78125 20.515625 
Q 6.78125 27.484375 10.78125 32.3125 
Q 14.796875 37.15625 21.921875 38.8125 
z
M 18.3125 54.390625 
Q 18.3125 48.734375 21.84375 45.5625 
Q 25.390625 42.390625 31.78125 42.390625 
Q 38.140625 42.390625 41.71875 45.5625 
Q 45.3125 48.734375 45.3125 54.390625 
Q 45.3125 60.0625 41.71875 63.234375 
Q 38.140625 66.40625 31.78125 66.40625 
Q 25.390625 66.40625 21.84375 63.234375 
Q 18.3125 60.0625 18.3125 54.390625 
z
" id="DejaVuSans-56"/>
    </defs>
    <g transform="translate(215.424375 49.296)scale(0.12 -0.12)">
     <use xlink:href="#DejaVuSans-116"/>
     <use x="39.208984" xlink:href="#DejaVuSans-32"/>
     <use x="70.996094" xlink:href="#DejaVuSans-61"/>
     <use x="154.785156" xlink:href="#DejaVuSans-32"/>
     <use x="186.572266" xlink:href="#DejaVuSans-50"/>
     <use x="250.195312" xlink:href="#DejaVuSans-46"/>
     <use x="281.982422" xlink:href="#DejaVuSans-56"/>
    </g>
   </g>
  </g>
 </g>
 <defs>
  <clipPath id="p5aa287be7d">
   <rect height="354.816" width="357.12" x="57.6" y="55.296"/>
  </clipPath>
 </defs>
</svg>
