<?xml version="1.0" encoding="utf-8" standalone="no"?>
<!DOCTYPE svg PUBLIC "-//W3C//DTD SVG 1.1//EN"
  "http://www.w3.org/Graphics/SVG/1.1/DTD/svg11.dtd">
<!-- Created with matplotlib (https://matplotlib.org/) -->
<svg height="460.8pt" version="1.1" viewBox="0 0 460.8 460.8" width="460.8pt" xmlns="http://www.w3.org/2000/svg" xmlns:xlink="http://www.w3.org/1999/xlink">
 <defs>
  <style type="text/css">
*{stroke-linecap:butt;stroke-linejoin:round;}
  </style>
 </defs>
 <g id="figure_1">
  <g id="patch_1">
   <path d="M 0 460.8 
L 460.8 460.8 
L 460.8 0 
L 0 0 
z
" style="fill:#ffffff;"/>
  </g>
  <g id="axes_1">
   <g id="patch_2">
    <path clip-path="url(#pdf4a164fd4)" d="M 318.15541 328.305188 
L 318.969406 329.407192 
L 320.264514 330.652231 
L 321.529985 331.249492 
L 323.24066 331.700797 
L 324.647774 331.647084 
L 326.355183 331.194159 
L 327.559429 330.502624 
L 328.845539 329.256362 
L 329.552076 328.096315 
L 330.102002 326.361844 
L 330.137845 325.017306 
L 329.816946 323.219285 
L 329.17332 322.019446 
L 328.060163 320.598093 
L 326.89465 319.836715 
L 325.261775 319.140027 
L 323.859732 319.003523 
L 322.106924 319.202073 
L 320.811621 319.723862 
L 319.368029 320.769039 
L 318.265144 322.191442 
L 317.737638 323.435986 
L 317.429729 325.234305 
L 317.592956 326.571244 
L 317.592956 326.571244 
L 317.592956 326.571244 
L 317.592956 326.571244 
L 317.592956 326.571244 
L 317.592956 326.571244 
L 317.592956 326.571244 
L 317.592956 326.571244 
L 317.592956 326.571244 
L 317.592956 326.571244 
L 317.592956 326.571244 
L 317.592956 326.571244 
L 317.592956 326.571244 
L 317.592956 326.571244 
L 317.592956 326.571244 
L 317.592956 326.571244 
L 317.592956 326.571244 
L 317.592956 326.571244 
L 317.592956 326.571244 
L 317.592956 326.571244 
L 317.592956 326.571244 
L 317.592956 326.571244 
L 317.592956 326.571244 
L 317.592956 326.571244 
L 317.592956 326.571244 
L 317.592956 326.571244 
L 317.592956 326.571244 
L 317.592956 326.571244 
L 317.592956 326.571244 
L 317.592956 326.571244 
L 317.592956 326.571244 
L 317.592956 326.571244 
L 317.592956 326.571244 
L 317.592956 326.571244 
L 317.592956 326.571244 
L 317.592956 326.571244 
L 317.592956 326.571244 
L 317.592956 326.571244 
L 317.592956 326.571244 
L 317.592956 326.571244 
L 317.592956 326.571244 
L 317.592956 326.571244 
L 317.592956 326.571244 
L 317.592956 326.571244 
L 317.592956 326.571244 
L 317.592956 326.571244 
L 317.592956 326.571244 
L 317.592956 326.571244 
L 317.592956 326.571244 
L 317.592956 326.571244 
L 317.592956 326.571244 
L 317.592956 326.571244 
L 317.592956 326.571244 
L 317.592956 326.571244 
L 317.592956 326.571244 
L 317.592956 326.571244 
L 317.592956 326.571244 
L 317.592956 326.571244 
L 317.592956 326.571244 
L 317.592956 326.571244 
L 317.592956 326.571244 
L 317.592956 326.571244 
L 317.592956 326.571244 
L 317.592956 326.571244 
L 317.592956 326.571244 
L 317.592956 326.571244 
L 317.592956 326.571244 
L 317.592956 326.571244 
L 317.592956 326.571244 
L 317.592956 326.571244 
L 317.592956 326.571244 
L 317.592956 326.571244 
L 317.592956 326.571244 
L 317.592956 326.571244 
L 317.592956 326.571244 
L 317.592956 326.571244 
L 317.592956 326.571244 
L 317.592956 326.571244 
L 317.592956 326.571244 
L 317.592956 326.571244 
L 317.592956 326.571244 
L 317.592956 326.571244 
L 317.592956 326.571244 
L 317.592956 326.571244 
L 317.592956 326.571244 
L 317.592956 326.571244 
L 317.592956 326.571244 
L 317.592956 326.571244 
L 317.592956 326.571244 
L 317.592956 326.571244 
L 317.592956 326.571244 
L 317.592956 326.571244 
L 317.592956 326.571244 
L 317.592956 326.571244 
L 317.592956 326.571244 
L 317.592956 326.571244 
L 317.592956 326.571244 
L 317.592956 326.571244 
L 317.592956 326.571244 
L 317.592956 326.571244 
L 317.592956 326.571244 
L 317.592956 326.571244 
L 317.592956 326.571244 
L 317.592956 326.571244 
L 317.592956 326.571244 
L 317.592956 326.571244 
L 317.592956 326.571244 
L 317.592956 326.571244 
L 317.592956 326.571244 
L 317.592956 326.571244 
L 317.592956 326.571244 
L 317.592956 326.571244 
L 317.592956 326.571244 
L 317.592956 326.571244 
L 317.592956 326.571244 
L 317.592956 326.571244 
L 317.592956 326.571244 
L 317.592956 326.571244 
L 317.592956 326.571244 
L 317.592956 326.571244 
L 317.592956 326.571244 
L 317.592956 326.571244 
L 317.592956 326.571244 
L 317.592956 326.571244 
L 317.592956 326.571244 
L 317.592956 326.571244 
L 317.592956 326.571244 
L 317.592956 326.571244 
L 317.592956 326.571244 
L 317.592956 326.571244 
L 317.592956 326.571244 
L 317.592956 326.571244 
L 317.592956 326.571244 
L 317.592956 326.571244 
L 317.592956 326.571244 
L 317.592956 326.571244 
L 317.592956 326.571244 
L 317.592956 326.571244 
L 317.592956 326.571244 
L 317.592956 326.571244 
L 317.592956 326.571244 
L 317.592956 326.571244 
L 317.592956 326.571244 
L 317.592956 326.571244 
L 317.592956 326.571244 
z
" style="fill:#993333;stroke:#000000;stroke-linejoin:miter;"/>
   </g>
   <g id="patch_3">
    <path clip-path="url(#pdf4a164fd4)" d="M 278.972399 279.992832 
L 323.350562 325.789925 
L 324.263816 324.904967 
L 279.885653 279.107874 
L 279.885653 279.107874 
L 279.885653 279.107874 
L 279.885653 279.107874 
L 279.885653 279.107874 
L 279.885653 279.107874 
L 279.885653 279.107874 
L 279.885653 279.107874 
L 279.885653 279.107874 
L 279.885653 279.107874 
L 279.885653 279.107874 
L 279.885653 279.107874 
L 279.885653 279.107874 
L 279.885653 279.107874 
L 279.885653 279.107874 
L 279.885653 279.107874 
L 279.885653 279.107874 
L 279.885653 279.107874 
L 279.885653 279.107874 
L 279.885653 279.107874 
L 279.885653 279.107874 
L 279.885653 279.107874 
L 279.885653 279.107874 
L 279.885653 279.107874 
L 279.885653 279.107874 
L 279.885653 279.107874 
L 279.885653 279.107874 
L 279.885653 279.107874 
L 279.885653 279.107874 
L 279.885653 279.107874 
L 279.885653 279.107874 
L 279.885653 279.107874 
L 279.885653 279.107874 
L 279.885653 279.107874 
L 279.885653 279.107874 
L 279.885653 279.107874 
L 279.885653 279.107874 
L 279.885653 279.107874 
L 279.885653 279.107874 
L 279.885653 279.107874 
L 279.885653 279.107874 
L 279.885653 279.107874 
L 279.885653 279.107874 
L 279.885653 279.107874 
L 279.885653 279.107874 
L 279.885653 279.107874 
L 279.885653 279.107874 
L 279.885653 279.107874 
L 279.885653 279.107874 
z
" style="stroke:#000000;stroke-linejoin:miter;"/>
   </g>
   <g id="patch_4">
    <path clip-path="url(#pdf4a164fd4)" d="M 273.708006 282.371808 
L 274.495353 283.493006 
L 275.760247 284.768731 
L 277.011038 285.396152 
L 278.710404 285.888332 
L 280.118401 285.868362 
L 281.836175 285.456493 
L 283.056652 284.794021 
L 284.372264 283.578945 
L 285.106404 282.436167 
L 285.697746 280.715375 
L 285.765807 279.372083 
L 285.488098 277.566887 
L 284.873416 276.351965 
L 283.794648 274.904339 
L 282.64772 274.115243 
L 281.032013 273.379616 
L 279.633645 273.209544 
L 277.876582 273.366024 
L 276.569144 273.856615 
L 275.100913 274.86689 
L 273.964251 276.262449 
L 273.407066 277.493991 
L 273.056141 279.284413 
L 273.187275 280.62488 
L 273.187275 280.62488 
L 273.187275 280.62488 
L 273.187275 280.62488 
L 273.187275 280.62488 
L 273.187275 280.62488 
L 273.187275 280.62488 
L 273.187275 280.62488 
L 273.187275 280.62488 
L 273.187275 280.62488 
L 273.187275 280.62488 
L 273.187275 280.62488 
L 273.187275 280.62488 
L 273.187275 280.62488 
L 273.187275 280.62488 
L 273.187275 280.62488 
L 273.187275 280.62488 
L 273.187275 280.62488 
L 273.187275 280.62488 
L 273.187275 280.62488 
L 273.187275 280.62488 
L 273.187275 280.62488 
L 273.187275 280.62488 
L 273.187275 280.62488 
L 273.187275 280.62488 
L 273.187275 280.62488 
L 273.187275 280.62488 
L 273.187275 280.62488 
L 273.187275 280.62488 
L 273.187275 280.62488 
L 273.187275 280.62488 
L 273.187275 280.62488 
L 273.187275 280.62488 
L 273.187275 280.62488 
L 273.187275 280.62488 
L 273.187275 280.62488 
L 273.187275 280.62488 
L 273.187275 280.62488 
L 273.187275 280.62488 
L 273.187275 280.62488 
L 273.187275 280.62488 
L 273.187275 280.62488 
L 273.187275 280.62488 
L 273.187275 280.62488 
L 273.187275 280.62488 
L 273.187275 280.62488 
L 273.187275 280.62488 
L 273.187275 280.62488 
L 273.187275 280.62488 
L 273.187275 280.62488 
L 273.187275 280.62488 
L 273.187275 280.62488 
L 273.187275 280.62488 
L 273.187275 280.62488 
L 273.187275 280.62488 
L 273.187275 280.62488 
L 273.187275 280.62488 
L 273.187275 280.62488 
L 273.187275 280.62488 
L 273.187275 280.62488 
L 273.187275 280.62488 
L 273.187275 280.62488 
L 273.187275 280.62488 
L 273.187275 280.62488 
L 273.187275 280.62488 
L 273.187275 280.62488 
L 273.187275 280.62488 
L 273.187275 280.62488 
L 273.187275 280.62488 
L 273.187275 280.62488 
L 273.187275 280.62488 
L 273.187275 280.62488 
L 273.187275 280.62488 
L 273.187275 280.62488 
L 273.187275 280.62488 
L 273.187275 280.62488 
L 273.187275 280.62488 
L 273.187275 280.62488 
L 273.187275 280.62488 
L 273.187275 280.62488 
L 273.187275 280.62488 
L 273.187275 280.62488 
L 273.187275 280.62488 
L 273.187275 280.62488 
L 273.187275 280.62488 
L 273.187275 280.62488 
L 273.187275 280.62488 
L 273.187275 280.62488 
L 273.187275 280.62488 
L 273.187275 280.62488 
L 273.187275 280.62488 
L 273.187275 280.62488 
L 273.187275 280.62488 
L 273.187275 280.62488 
L 273.187275 280.62488 
L 273.187275 280.62488 
L 273.187275 280.62488 
L 273.187275 280.62488 
L 273.187275 280.62488 
L 273.187275 280.62488 
L 273.187275 280.62488 
L 273.187275 280.62488 
L 273.187275 280.62488 
L 273.187275 280.62488 
L 273.187275 280.62488 
L 273.187275 280.62488 
L 273.187275 280.62488 
L 273.187275 280.62488 
L 273.187275 280.62488 
L 273.187275 280.62488 
L 273.187275 280.62488 
L 273.187275 280.62488 
L 273.187275 280.62488 
L 273.187275 280.62488 
L 273.187275 280.62488 
L 273.187275 280.62488 
L 273.187275 280.62488 
L 273.187275 280.62488 
L 273.187275 280.62488 
L 273.187275 280.62488 
L 273.187275 280.62488 
L 273.187275 280.62488 
L 273.187275 280.62488 
L 273.187275 280.62488 
L 273.187275 280.62488 
L 273.187275 280.62488 
L 273.187275 280.62488 
L 273.187275 280.62488 
L 273.187275 280.62488 
L 273.187275 280.62488 
L 273.187275 280.62488 
L 273.187275 280.62488 
L 273.187275 280.62488 
L 273.187275 280.62488 
L 273.187275 280.62488 
L 273.187275 280.62488 
L 273.187275 280.62488 
L 273.187275 280.62488 
L 273.187275 280.62488 
L 273.187275 280.62488 
L 273.187275 280.62488 
L 273.187275 280.62488 
L 273.187275 280.62488 
L 273.187275 280.62488 
L 273.187275 280.62488 
z
" style="fill:#993333;stroke:#000000;stroke-linejoin:miter;"/>
   </g>
   <g id="patch_5">
    <path clip-path="url(#pdf4a164fd4)" d="M 235.694274 233.134137 
L 278.961955 279.981792 
L 279.896158 279.118979 
L 236.628477 232.271323 
L 236.628477 232.271323 
L 236.628477 232.271323 
L 236.628477 232.271323 
L 236.628477 232.271323 
L 236.628477 232.271323 
L 236.628477 232.271323 
L 236.628477 232.271323 
L 236.628477 232.271323 
L 236.628477 232.271323 
L 236.628477 232.271323 
L 236.628477 232.271323 
L 236.628477 232.271323 
L 236.628477 232.271323 
L 236.628477 232.271323 
L 236.628477 232.271323 
L 236.628477 232.271323 
L 236.628477 232.271323 
L 236.628477 232.271323 
L 236.628477 232.271323 
L 236.628477 232.271323 
L 236.628477 232.271323 
L 236.628477 232.271323 
L 236.628477 232.271323 
L 236.628477 232.271323 
L 236.628477 232.271323 
L 236.628477 232.271323 
L 236.628477 232.271323 
L 236.628477 232.271323 
L 236.628477 232.271323 
L 236.628477 232.271323 
L 236.628477 232.271323 
L 236.628477 232.271323 
L 236.628477 232.271323 
L 236.628477 232.271323 
L 236.628477 232.271323 
L 236.628477 232.271323 
L 236.628477 232.271323 
L 236.628477 232.271323 
L 236.628477 232.271323 
L 236.628477 232.271323 
L 236.628477 232.271323 
L 236.628477 232.271323 
L 236.628477 232.271323 
L 236.628477 232.271323 
L 236.628477 232.271323 
L 236.628477 232.271323 
L 236.628477 232.271323 
L 236.628477 232.271323 
z
" style="stroke:#000000;stroke-linejoin:miter;"/>
   </g>
   <g id="text_1">
    <!-- t = 1.0 -->
    <defs>
     <path d="M 18.3125 70.21875 
L 18.3125 54.6875 
L 36.8125 54.6875 
L 36.8125 47.703125 
L 18.3125 47.703125 
L 18.3125 18.015625 
Q 18.3125 11.328125 20.140625 9.421875 
Q 21.96875 7.515625 27.59375 7.515625 
L 36.8125 7.515625 
L 36.8125 0 
L 27.59375 0 
Q 17.1875 0 13.234375 3.875 
Q 9.28125 7.765625 9.28125 18.015625 
L 9.28125 47.703125 
L 2.6875 47.703125 
L 2.6875 54.6875 
L 9.28125 54.6875 
L 9.28125 70.21875 
z
" id="DejaVuSans-116"/>
     <path id="DejaVuSans-32"/>
     <path d="M 10.59375 45.40625 
L 73.1875 45.40625 
L 73.1875 37.203125 
L 10.59375 37.203125 
z
M 10.59375 25.484375 
L 73.1875 25.484375 
L 73.1875 17.1875 
L 10.59375 17.1875 
z
" id="DejaVuSans-61"/>
     <path d="M 12.40625 8.296875 
L 28.515625 8.296875 
L 28.515625 63.921875 
L 10.984375 60.40625 
L 10.984375 69.390625 
L 28.421875 72.90625 
L 38.28125 72.90625 
L 38.28125 8.296875 
L 54.390625 8.296875 
L 54.390625 0 
L 12.40625 0 
z
" id="DejaVuSans-49"/>
     <path d="M 10.6875 12.40625 
L 21 12.40625 
L 21 0 
L 10.6875 0 
z
" id="DejaVuSans-46"/>
     <path d="M 31.78125 66.40625 
Q 24.171875 66.40625 20.328125 58.90625 
Q 16.5 51.421875 16.5 36.375 
Q 16.5 21.390625 20.328125 13.890625 
Q 24.171875 6.390625 31.78125 6.390625 
Q 39.453125 6.390625 43.28125 13.890625 
Q 47.125 21.390625 47.125 36.375 
Q 47.125 51.421875 43.28125 58.90625 
Q 39.453125 66.40625 31.78125 66.40625 
z
M 31.78125 74.21875 
Q 44.046875 74.21875 50.515625 64.515625 
Q 56.984375 54.828125 56.984375 36.375 
Q 56.984375 17.96875 50.515625 8.265625 
Q 44.046875 -1.421875 31.78125 -1.421875 
Q 19.53125 -1.421875 13.0625 8.265625 
Q 6.59375 17.96875 6.59375 36.375 
Q 6.59375 54.828125 13.0625 64.515625 
Q 19.53125 74.21875 31.78125 74.21875 
z
" id="DejaVuSans-48"/>
    </defs>
    <g transform="translate(215.424375 49.296)scale(0.12 -0.12)">
     <use xlink:href="#DejaVuSans-116"/>
     <use x="39.208984" xlink:href="#DejaVuSans-32"/>
     <use x="70.996094" xlink:href="#DejaVuSans-61"/>
     <use x="154.785156" xlink:href="#DejaVuSans-32"/>
     <use x="186.572266" xlink:href="#DejaVuSans-49"/>
     <use x="250.195312" xlink:href="#DejaVuSans-46"/>
     <use x="281.982422" xlink:href="#DejaVuSans-48"/>
    </g>
   </g>
  </g>
 </g>
 <defs>
  <clipPath id="pdf4a164fd4">
   <rect height="354.816" width="357.12" x="57.6" y="55.296"/>
  </clipPath>
 </defs>
</svg>
