<?xml version="1.0" encoding="utf-8" standalone="no"?>
<!DOCTYPE svg PUBLIC "-//W3C//DTD SVG 1.1//EN"
  "http://www.w3.org/Graphics/SVG/1.1/DTD/svg11.dtd">
<!-- Created with matplotlib (https://matplotlib.org/) -->
<svg height="460.8pt" version="1.1" viewBox="0 0 460.8 460.8" width="460.8pt" xmlns="http://www.w3.org/2000/svg" xmlns:xlink="http://www.w3.org/1999/xlink">
 <defs>
  <style type="text/css">
*{stroke-linecap:butt;stroke-linejoin:round;}
  </style>
 </defs>
 <g id="figure_1">
  <g id="patch_1">
   <path d="M 0 460.8 
L 460.8 460.8 
L 460.8 0 
L 0 0 
z
" style="fill:#ffffff;"/>
  </g>
  <g id="axes_1">
   <g id="patch_2">
    <path clip-path="url(#pad3d2b9b31)" d="M 172.865199 339.13314 
L 171.792758 340.574424 
L 171.359238 341.904911 
L 171.126457 343.658735 
L 171.356548 345.047948 
L 172.02042 346.684915 
L 172.857789 347.792725 
L 174.255774 348.912049 
L 175.495403 349.467226 
L 177.285226 349.794857 
L 178.623612 349.661475 
L 180.367062 349.117197 
L 181.47652 348.327911 
L 182.746739 347.044983 
L 183.355636 345.79304 
L 183.841631 344.085567 
L 183.800887 342.677484 
L 183.383669 340.963516 
L 182.70326 339.744041 
L 181.484978 338.443217 
L 179.93527 337.527798 
L 178.634309 337.16085 
L 176.811553 337.081341 
L 175.50572 337.411261 
L 173.85619 338.187128 
L 173.85619 338.187128 
L 173.85619 338.187128 
L 173.85619 338.187128 
L 173.85619 338.187128 
L 173.85619 338.187128 
L 173.85619 338.187128 
L 173.85619 338.187128 
L 173.85619 338.187128 
L 173.85619 338.187128 
L 173.85619 338.187128 
L 173.85619 338.187128 
L 173.85619 338.187128 
L 173.85619 338.187128 
L 173.85619 338.187128 
L 173.85619 338.187128 
L 173.85619 338.187128 
L 173.85619 338.187128 
L 173.85619 338.187128 
L 173.85619 338.187128 
L 173.85619 338.187128 
L 173.85619 338.187128 
L 173.85619 338.187128 
L 173.85619 338.187128 
L 173.85619 338.187128 
L 173.85619 338.187128 
L 173.85619 338.187128 
L 173.85619 338.187128 
L 173.85619 338.187128 
L 173.85619 338.187128 
L 173.85619 338.187128 
L 173.85619 338.187128 
L 173.85619 338.187128 
L 173.85619 338.187128 
L 173.85619 338.187128 
L 173.85619 338.187128 
L 173.85619 338.187128 
L 173.85619 338.187128 
L 173.85619 338.187128 
L 173.85619 338.187128 
L 173.85619 338.187128 
L 173.85619 338.187128 
L 173.85619 338.187128 
L 173.85619 338.187128 
L 173.85619 338.187128 
L 173.85619 338.187128 
L 173.85619 338.187128 
L 173.85619 338.187128 
L 173.85619 338.187128 
L 173.85619 338.187128 
L 173.85619 338.187128 
L 173.85619 338.187128 
L 173.85619 338.187128 
L 173.85619 338.187128 
L 173.85619 338.187128 
L 173.85619 338.187128 
L 173.85619 338.187128 
L 173.85619 338.187128 
L 173.85619 338.187128 
L 173.85619 338.187128 
L 173.85619 338.187128 
L 173.85619 338.187128 
L 173.85619 338.187128 
L 173.85619 338.187128 
L 173.85619 338.187128 
L 173.85619 338.187128 
L 173.85619 338.187128 
L 173.85619 338.187128 
L 173.85619 338.187128 
L 173.85619 338.187128 
L 173.85619 338.187128 
L 173.85619 338.187128 
L 173.85619 338.187128 
L 173.85619 338.187128 
L 173.85619 338.187128 
L 173.85619 338.187128 
L 173.85619 338.187128 
L 173.85619 338.187128 
L 173.85619 338.187128 
L 173.85619 338.187128 
L 173.85619 338.187128 
L 173.85619 338.187128 
L 173.85619 338.187128 
L 173.85619 338.187128 
L 173.85619 338.187128 
L 173.85619 338.187128 
L 173.85619 338.187128 
L 173.85619 338.187128 
L 173.85619 338.187128 
L 173.85619 338.187128 
L 173.85619 338.187128 
L 173.85619 338.187128 
L 173.85619 338.187128 
L 173.85619 338.187128 
L 173.85619 338.187128 
L 173.85619 338.187128 
L 173.85619 338.187128 
L 173.85619 338.187128 
L 173.85619 338.187128 
L 173.85619 338.187128 
L 173.85619 338.187128 
L 173.85619 338.187128 
L 173.85619 338.187128 
L 173.85619 338.187128 
L 173.85619 338.187128 
L 173.85619 338.187128 
L 173.85619 338.187128 
L 173.85619 338.187128 
L 173.85619 338.187128 
L 173.85619 338.187128 
L 173.85619 338.187128 
L 173.85619 338.187128 
L 173.85619 338.187128 
L 173.85619 338.187128 
L 173.85619 338.187128 
L 173.85619 338.187128 
L 173.85619 338.187128 
L 173.85619 338.187128 
L 173.85619 338.187128 
L 173.85619 338.187128 
L 173.85619 338.187128 
L 173.85619 338.187128 
L 173.85619 338.187128 
L 173.85619 338.187128 
L 173.85619 338.187128 
L 173.85619 338.187128 
L 173.85619 338.187128 
L 173.85619 338.187128 
L 173.85619 338.187128 
L 173.85619 338.187128 
L 173.85619 338.187128 
L 173.85619 338.187128 
L 173.85619 338.187128 
L 173.85619 338.187128 
L 173.85619 338.187128 
L 173.85619 338.187128 
L 173.85619 338.187128 
L 173.85619 338.187128 
L 173.85619 338.187128 
L 173.85619 338.187128 
L 173.85619 338.187128 
L 173.85619 338.187128 
L 173.85619 338.187128 
L 173.85619 338.187128 
L 173.85619 338.187128 
z
" style="fill:#993333;stroke:#000000;stroke-linejoin:miter;"/>
   </g>
   <g id="patch_3">
    <path clip-path="url(#pad3d2b9b31)" d="M 216.862291 293.244194 
L 177.004292 343.025064 
L 177.996987 343.819884 
L 217.854986 294.039014 
L 217.854986 294.039014 
L 217.854986 294.039014 
L 217.854986 294.039014 
L 217.854986 294.039014 
L 217.854986 294.039014 
L 217.854986 294.039014 
L 217.854986 294.039014 
L 217.854986 294.039014 
L 217.854986 294.039014 
L 217.854986 294.039014 
L 217.854986 294.039014 
L 217.854986 294.039014 
L 217.854986 294.039014 
L 217.854986 294.039014 
L 217.854986 294.039014 
L 217.854986 294.039014 
L 217.854986 294.039014 
L 217.854986 294.039014 
L 217.854986 294.039014 
L 217.854986 294.039014 
L 217.854986 294.039014 
L 217.854986 294.039014 
L 217.854986 294.039014 
L 217.854986 294.039014 
L 217.854986 294.039014 
L 217.854986 294.039014 
L 217.854986 294.039014 
L 217.854986 294.039014 
L 217.854986 294.039014 
L 217.854986 294.039014 
L 217.854986 294.039014 
L 217.854986 294.039014 
L 217.854986 294.039014 
L 217.854986 294.039014 
L 217.854986 294.039014 
L 217.854986 294.039014 
L 217.854986 294.039014 
L 217.854986 294.039014 
L 217.854986 294.039014 
L 217.854986 294.039014 
L 217.854986 294.039014 
L 217.854986 294.039014 
L 217.854986 294.039014 
L 217.854986 294.039014 
L 217.854986 294.039014 
L 217.854986 294.039014 
L 217.854986 294.039014 
L 217.854986 294.039014 
z
" style="stroke:#000000;stroke-linejoin:miter;"/>
   </g>
   <g id="patch_4">
    <path clip-path="url(#pad3d2b9b31)" d="M 223.568562 295.084959 
L 223.675408 293.696902 
L 223.500722 291.930227 
L 222.945962 290.635392 
L 221.928728 289.194214 
L 220.848187 288.309621 
L 219.23746 287.54679 
L 217.45991 287.264118 
L 216.115068 287.400324 
L 214.390365 287.995438 
L 213.296789 288.781655 
L 212.0472 290.108849 
L 211.472634 291.352584 
L 211.004102 293.086916 
L 211.08922 294.483659 
L 211.516458 296.200503 
L 212.240421 297.408282 
L 213.458826 298.687295 
L 214.644383 299.410405 
L 216.355647 299.938441 
L 217.712531 299.999838 
L 219.497677 299.647614 
L 220.693676 299.032267 
L 222.115638 297.88602 
L 222.85793 296.744587 
L 222.85793 296.744587 
L 222.85793 296.744587 
L 222.85793 296.744587 
L 222.85793 296.744587 
L 222.85793 296.744587 
L 222.85793 296.744587 
L 222.85793 296.744587 
L 222.85793 296.744587 
L 222.85793 296.744587 
L 222.85793 296.744587 
L 222.85793 296.744587 
L 222.85793 296.744587 
L 222.85793 296.744587 
L 222.85793 296.744587 
L 222.85793 296.744587 
L 222.85793 296.744587 
L 222.85793 296.744587 
L 222.85793 296.744587 
L 222.85793 296.744587 
L 222.85793 296.744587 
L 222.85793 296.744587 
L 222.85793 296.744587 
L 222.85793 296.744587 
L 222.85793 296.744587 
L 222.85793 296.744587 
L 222.85793 296.744587 
L 222.85793 296.744587 
L 222.85793 296.744587 
L 222.85793 296.744587 
L 222.85793 296.744587 
L 222.85793 296.744587 
L 222.85793 296.744587 
L 222.85793 296.744587 
L 222.85793 296.744587 
L 222.85793 296.744587 
L 222.85793 296.744587 
L 222.85793 296.744587 
L 222.85793 296.744587 
L 222.85793 296.744587 
L 222.85793 296.744587 
L 222.85793 296.744587 
L 222.85793 296.744587 
L 222.85793 296.744587 
L 222.85793 296.744587 
L 222.85793 296.744587 
L 222.85793 296.744587 
L 222.85793 296.744587 
L 222.85793 296.744587 
L 222.85793 296.744587 
L 222.85793 296.744587 
L 222.85793 296.744587 
L 222.85793 296.744587 
L 222.85793 296.744587 
L 222.85793 296.744587 
L 222.85793 296.744587 
L 222.85793 296.744587 
L 222.85793 296.744587 
L 222.85793 296.744587 
L 222.85793 296.744587 
L 222.85793 296.744587 
L 222.85793 296.744587 
L 222.85793 296.744587 
L 222.85793 296.744587 
L 222.85793 296.744587 
L 222.85793 296.744587 
L 222.85793 296.744587 
L 222.85793 296.744587 
L 222.85793 296.744587 
L 222.85793 296.744587 
L 222.85793 296.744587 
L 222.85793 296.744587 
L 222.85793 296.744587 
L 222.85793 296.744587 
L 222.85793 296.744587 
L 222.85793 296.744587 
L 222.85793 296.744587 
L 222.85793 296.744587 
L 222.85793 296.744587 
L 222.85793 296.744587 
L 222.85793 296.744587 
L 222.85793 296.744587 
L 222.85793 296.744587 
L 222.85793 296.744587 
L 222.85793 296.744587 
L 222.85793 296.744587 
L 222.85793 296.744587 
L 222.85793 296.744587 
L 222.85793 296.744587 
L 222.85793 296.744587 
L 222.85793 296.744587 
L 222.85793 296.744587 
L 222.85793 296.744587 
L 222.85793 296.744587 
L 222.85793 296.744587 
L 222.85793 296.744587 
L 222.85793 296.744587 
L 222.85793 296.744587 
L 222.85793 296.744587 
L 222.85793 296.744587 
L 222.85793 296.744587 
L 222.85793 296.744587 
L 222.85793 296.744587 
L 222.85793 296.744587 
L 222.85793 296.744587 
L 222.85793 296.744587 
L 222.85793 296.744587 
L 222.85793 296.744587 
L 222.85793 296.744587 
L 222.85793 296.744587 
L 222.85793 296.744587 
L 222.85793 296.744587 
L 222.85793 296.744587 
L 222.85793 296.744587 
L 222.85793 296.744587 
L 222.85793 296.744587 
L 222.85793 296.744587 
L 222.85793 296.744587 
L 222.85793 296.744587 
L 222.85793 296.744587 
L 222.85793 296.744587 
L 222.85793 296.744587 
L 222.85793 296.744587 
L 222.85793 296.744587 
L 222.85793 296.744587 
L 222.85793 296.744587 
L 222.85793 296.744587 
L 222.85793 296.744587 
L 222.85793 296.744587 
L 222.85793 296.744587 
L 222.85793 296.744587 
L 222.85793 296.744587 
L 222.85793 296.744587 
L 222.85793 296.744587 
L 222.85793 296.744587 
L 222.85793 296.744587 
L 222.85793 296.744587 
L 222.85793 296.744587 
L 222.85793 296.744587 
L 222.85793 296.744587 
L 222.85793 296.744587 
L 222.85793 296.744587 
L 222.85793 296.744587 
L 222.85793 296.744587 
L 222.85793 296.744587 
z
" style="fill:#993333;stroke:#000000;stroke-linejoin:miter;"/>
   </g>
   <g id="patch_5">
    <path clip-path="url(#pad3d2b9b31)" d="M 235.554213 232.517076 
L 216.75139 293.453509 
L 217.966542 293.828462 
L 236.769364 232.892028 
L 236.769364 232.892028 
L 236.769364 232.892028 
L 236.769364 232.892028 
L 236.769364 232.892028 
L 236.769364 232.892028 
L 236.769364 232.892028 
L 236.769364 232.892028 
L 236.769364 232.892028 
L 236.769364 232.892028 
L 236.769364 232.892028 
L 236.769364 232.892028 
L 236.769364 232.892028 
L 236.769364 232.892028 
L 236.769364 232.892028 
L 236.769364 232.892028 
L 236.769364 232.892028 
L 236.769364 232.892028 
L 236.769364 232.892028 
L 236.769364 232.892028 
L 236.769364 232.892028 
L 236.769364 232.892028 
L 236.769364 232.892028 
L 236.769364 232.892028 
L 236.769364 232.892028 
L 236.769364 232.892028 
L 236.769364 232.892028 
L 236.769364 232.892028 
L 236.769364 232.892028 
L 236.769364 232.892028 
L 236.769364 232.892028 
L 236.769364 232.892028 
L 236.769364 232.892028 
L 236.769364 232.892028 
L 236.769364 232.892028 
L 236.769364 232.892028 
L 236.769364 232.892028 
L 236.769364 232.892028 
L 236.769364 232.892028 
L 236.769364 232.892028 
L 236.769364 232.892028 
L 236.769364 232.892028 
L 236.769364 232.892028 
L 236.769364 232.892028 
L 236.769364 232.892028 
L 236.769364 232.892028 
L 236.769364 232.892028 
L 236.769364 232.892028 
L 236.769364 232.892028 
z
" style="stroke:#000000;stroke-linejoin:miter;"/>
   </g>
   <g id="text_1">
    <!-- t = 9.0 -->
    <defs>
     <path d="M 18.3125 70.21875 
L 18.3125 54.6875 
L 36.8125 54.6875 
L 36.8125 47.703125 
L 18.3125 47.703125 
L 18.3125 18.015625 
Q 18.3125 11.328125 20.140625 9.421875 
Q 21.96875 7.515625 27.59375 7.515625 
L 36.8125 7.515625 
L 36.8125 0 
L 27.59375 0 
Q 17.1875 0 13.234375 3.875 
Q 9.28125 7.765625 9.28125 18.015625 
L 9.28125 47.703125 
L 2.6875 47.703125 
L 2.6875 54.6875 
L 9.28125 54.6875 
L 9.28125 70.21875 
z
" id="DejaVuSans-116"/>
     <path id="DejaVuSans-32"/>
     <path d="M 10.59375 45.40625 
L 73.1875 45.40625 
L 73.1875 37.203125 
L 10.59375 37.203125 
z
M 10.59375 25.484375 
L 73.1875 25.484375 
L 73.1875 17.1875 
L 10.59375 17.1875 
z
" id="DejaVuSans-61"/>
     <path d="M 10.984375 1.515625 
L 10.984375 10.5 
Q 14.703125 8.734375 18.5 7.8125 
Q 22.3125 6.890625 25.984375 6.890625 
Q 35.75 6.890625 40.890625 13.453125 
Q 46.046875 20.015625 46.78125 33.40625 
Q 43.953125 29.203125 39.59375 26.953125 
Q 35.25 24.703125 29.984375 24.703125 
Q 19.046875 24.703125 12.671875 31.3125 
Q 6.296875 37.9375 6.296875 49.421875 
Q 6.296875 60.640625 12.9375 67.421875 
Q 19.578125 74.21875 30.609375 74.21875 
Q 43.265625 74.21875 49.921875 64.515625 
Q 56.59375 54.828125 56.59375 36.375 
Q 56.59375 19.140625 48.40625 8.859375 
Q 40.234375 -1.421875 26.421875 -1.421875 
Q 22.703125 -1.421875 18.890625 -0.6875 
Q 15.09375 0.046875 10.984375 1.515625 
z
M 30.609375 32.421875 
Q 37.25 32.421875 41.125 36.953125 
Q 45.015625 41.5 45.015625 49.421875 
Q 45.015625 57.28125 41.125 61.84375 
Q 37.25 66.40625 30.609375 66.40625 
Q 23.96875 66.40625 20.09375 61.84375 
Q 16.21875 57.28125 16.21875 49.421875 
Q 16.21875 41.5 20.09375 36.953125 
Q 23.96875 32.421875 30.609375 32.421875 
z
" id="DejaVuSans-57"/>
     <path d="M 10.6875 12.40625 
L 21 12.40625 
L 21 0 
L 10.6875 0 
z
" id="DejaVuSans-46"/>
     <path d="M 31.78125 66.40625 
Q 24.171875 66.40625 20.328125 58.90625 
Q 16.5 51.421875 16.5 36.375 
Q 16.5 21.390625 20.328125 13.890625 
Q 24.171875 6.390625 31.78125 6.390625 
Q 39.453125 6.390625 43.28125 13.890625 
Q 47.125 21.390625 47.125 36.375 
Q 47.125 51.421875 43.28125 58.90625 
Q 39.453125 66.40625 31.78125 66.40625 
z
M 31.78125 74.21875 
Q 44.046875 74.21875 50.515625 64.515625 
Q 56.984375 54.828125 56.984375 36.375 
Q 56.984375 17.96875 50.515625 8.265625 
Q 44.046875 -1.421875 31.78125 -1.421875 
Q 19.53125 -1.421875 13.0625 8.265625 
Q 6.59375 17.96875 6.59375 36.375 
Q 6.59375 54.828125 13.0625 64.515625 
Q 19.53125 74.21875 31.78125 74.21875 
z
" id="DejaVuSans-48"/>
    </defs>
    <g transform="translate(215.424375 49.296)scale(0.12 -0.12)">
     <use xlink:href="#DejaVuSans-116"/>
     <use x="39.208984" xlink:href="#DejaVuSans-32"/>
     <use x="70.996094" xlink:href="#DejaVuSans-61"/>
     <use x="154.785156" xlink:href="#DejaVuSans-32"/>
     <use x="186.572266" xlink:href="#DejaVuSans-57"/>
     <use x="250.195312" xlink:href="#DejaVuSans-46"/>
     <use x="281.982422" xlink:href="#DejaVuSans-48"/>
    </g>
   </g>
  </g>
 </g>
 <defs>
  <clipPath id="pad3d2b9b31">
   <rect height="354.816" width="357.12" x="57.6" y="55.296"/>
  </clipPath>
 </defs>
</svg>
