<?xml version="1.0" encoding="utf-8" standalone="no"?>
<!DOCTYPE svg PUBLIC "-//W3C//DTD SVG 1.1//EN"
  "http://www.w3.org/Graphics/SVG/1.1/DTD/svg11.dtd">
<!-- Created with matplotlib (https://matplotlib.org/) -->
<svg height="460.8pt" version="1.1" viewBox="0 0 460.8 460.8" width="460.8pt" xmlns="http://www.w3.org/2000/svg" xmlns:xlink="http://www.w3.org/1999/xlink">
 <defs>
  <style type="text/css">
*{stroke-linecap:butt;stroke-linejoin:round;}
  </style>
 </defs>
 <g id="figure_1">
  <g id="patch_1">
   <path d="M 0 460.8 
L 460.8 460.8 
L 460.8 0 
L 0 0 
z
" style="fill:#ffffff;"/>
  </g>
  <g id="axes_1">
   <g id="patch_2">
    <path clip-path="url(#pffeabd32e0)" d="M 316.31984 321.230747 
L 315.434212 322.797671 
L 315.0922 324.105409 
L 315.047547 325.929351 
L 315.402368 327.228639 
L 316.209625 328.863037 
L 317.174407 329.835764 
L 318.635927 330.880458 
L 319.974458 331.288467 
L 321.732411 331.48768 
L 323.116972 331.231076 
L 324.74095 330.536035 
L 325.832552 329.677643 
L 326.924947 328.258517 
L 327.456328 327.008502 
L 327.749685 325.212743 
L 327.590744 323.877152 
L 327.013239 322.144424 
L 326.202891 321.050256 
L 324.895917 319.804792 
L 323.632562 319.219938 
L 321.916112 318.766671 
L 320.509065 318.834323 
L 318.803385 319.284228 
L 317.59714 319.987823 
L 317.59714 319.987823 
L 317.59714 319.987823 
L 317.59714 319.987823 
L 317.59714 319.987823 
L 317.59714 319.987823 
L 317.59714 319.987823 
L 317.59714 319.987823 
L 317.59714 319.987823 
L 317.59714 319.987823 
L 317.59714 319.987823 
L 317.59714 319.987823 
L 317.59714 319.987823 
L 317.59714 319.987823 
L 317.59714 319.987823 
L 317.59714 319.987823 
L 317.59714 319.987823 
L 317.59714 319.987823 
L 317.59714 319.987823 
L 317.59714 319.987823 
L 317.59714 319.987823 
L 317.59714 319.987823 
L 317.59714 319.987823 
L 317.59714 319.987823 
L 317.59714 319.987823 
L 317.59714 319.987823 
L 317.59714 319.987823 
L 317.59714 319.987823 
L 317.59714 319.987823 
L 317.59714 319.987823 
L 317.59714 319.987823 
L 317.59714 319.987823 
L 317.59714 319.987823 
L 317.59714 319.987823 
L 317.59714 319.987823 
L 317.59714 319.987823 
L 317.59714 319.987823 
L 317.59714 319.987823 
L 317.59714 319.987823 
L 317.59714 319.987823 
L 317.59714 319.987823 
L 317.59714 319.987823 
L 317.59714 319.987823 
L 317.59714 319.987823 
L 317.59714 319.987823 
L 317.59714 319.987823 
L 317.59714 319.987823 
L 317.59714 319.987823 
L 317.59714 319.987823 
L 317.59714 319.987823 
L 317.59714 319.987823 
L 317.59714 319.987823 
L 317.59714 319.987823 
L 317.59714 319.987823 
L 317.59714 319.987823 
L 317.59714 319.987823 
L 317.59714 319.987823 
L 317.59714 319.987823 
L 317.59714 319.987823 
L 317.59714 319.987823 
L 317.59714 319.987823 
L 317.59714 319.987823 
L 317.59714 319.987823 
L 317.59714 319.987823 
L 317.59714 319.987823 
L 317.59714 319.987823 
L 317.59714 319.987823 
L 317.59714 319.987823 
L 317.59714 319.987823 
L 317.59714 319.987823 
L 317.59714 319.987823 
L 317.59714 319.987823 
L 317.59714 319.987823 
L 317.59714 319.987823 
L 317.59714 319.987823 
L 317.59714 319.987823 
L 317.59714 319.987823 
L 317.59714 319.987823 
L 317.59714 319.987823 
L 317.59714 319.987823 
L 317.59714 319.987823 
L 317.59714 319.987823 
L 317.59714 319.987823 
L 317.59714 319.987823 
L 317.59714 319.987823 
L 317.59714 319.987823 
L 317.59714 319.987823 
L 317.59714 319.987823 
L 317.59714 319.987823 
L 317.59714 319.987823 
L 317.59714 319.987823 
L 317.59714 319.987823 
L 317.59714 319.987823 
L 317.59714 319.987823 
L 317.59714 319.987823 
L 317.59714 319.987823 
L 317.59714 319.987823 
L 317.59714 319.987823 
L 317.59714 319.987823 
L 317.59714 319.987823 
L 317.59714 319.987823 
L 317.59714 319.987823 
L 317.59714 319.987823 
L 317.59714 319.987823 
L 317.59714 319.987823 
L 317.59714 319.987823 
L 317.59714 319.987823 
L 317.59714 319.987823 
L 317.59714 319.987823 
L 317.59714 319.987823 
L 317.59714 319.987823 
L 317.59714 319.987823 
L 317.59714 319.987823 
L 317.59714 319.987823 
L 317.59714 319.987823 
L 317.59714 319.987823 
L 317.59714 319.987823 
L 317.59714 319.987823 
L 317.59714 319.987823 
L 317.59714 319.987823 
L 317.59714 319.987823 
L 317.59714 319.987823 
L 317.59714 319.987823 
L 317.59714 319.987823 
L 317.59714 319.987823 
L 317.59714 319.987823 
L 317.59714 319.987823 
L 317.59714 319.987823 
L 317.59714 319.987823 
L 317.59714 319.987823 
L 317.59714 319.987823 
L 317.59714 319.987823 
L 317.59714 319.987823 
L 317.59714 319.987823 
L 317.59714 319.987823 
L 317.59714 319.987823 
L 317.59714 319.987823 
L 317.59714 319.987823 
L 317.59714 319.987823 
L 317.59714 319.987823 
L 317.59714 319.987823 
L 317.59714 319.987823 
L 317.59714 319.987823 
L 317.59714 319.987823 
L 317.59714 319.987823 
z
" style="fill:#993333;stroke:#000000;stroke-linejoin:miter;"/>
   </g>
   <g id="patch_3">
    <path clip-path="url(#pffeabd32e0)" d="M 270.452831 286.723888 
L 320.986499 325.623032 
L 321.762199 324.615325 
L 271.22853 285.716181 
L 271.22853 285.716181 
L 271.22853 285.716181 
L 271.22853 285.716181 
L 271.22853 285.716181 
L 271.22853 285.716181 
L 271.22853 285.716181 
L 271.22853 285.716181 
L 271.22853 285.716181 
L 271.22853 285.716181 
L 271.22853 285.716181 
L 271.22853 285.716181 
L 271.22853 285.716181 
L 271.22853 285.716181 
L 271.22853 285.716181 
L 271.22853 285.716181 
L 271.22853 285.716181 
L 271.22853 285.716181 
L 271.22853 285.716181 
L 271.22853 285.716181 
L 271.22853 285.716181 
L 271.22853 285.716181 
L 271.22853 285.716181 
L 271.22853 285.716181 
L 271.22853 285.716181 
L 271.22853 285.716181 
L 271.22853 285.716181 
L 271.22853 285.716181 
L 271.22853 285.716181 
L 271.22853 285.716181 
L 271.22853 285.716181 
L 271.22853 285.716181 
L 271.22853 285.716181 
L 271.22853 285.716181 
L 271.22853 285.716181 
L 271.22853 285.716181 
L 271.22853 285.716181 
L 271.22853 285.716181 
L 271.22853 285.716181 
L 271.22853 285.716181 
L 271.22853 285.716181 
L 271.22853 285.716181 
L 271.22853 285.716181 
L 271.22853 285.716181 
L 271.22853 285.716181 
L 271.22853 285.716181 
L 271.22853 285.716181 
L 271.22853 285.716181 
L 271.22853 285.716181 
z
" style="stroke:#000000;stroke-linejoin:miter;"/>
   </g>
   <g id="patch_4">
    <path clip-path="url(#pffeabd32e0)" d="M 264.507518 286.218933 
L 264.723886 288.028933 
L 265.309303 289.267598 
L 266.33907 290.739674 
L 267.465082 291.570476 
L 269.056125 292.344212 
L 270.447046 292.563743 
L 272.209822 292.449702 
L 273.525106 292.004212 
L 275.028026 291.030314 
L 275.945645 290.028876 
L 276.820742 288.433566 
L 277.116031 287.121365 
L 277.149051 285.295231 
L 276.749713 283.993541 
L 275.932571 282.383683 
L 274.936378 281.411203 
L 273.469139 280.411771 
L 272.119994 280.006598 
L 270.361889 279.862288 
L 268.99011 280.123622 
L 267.371585 280.869766 
L 266.01435 282.051925 
L 265.256033 283.170901 
L 264.606028 284.875674 
L 264.606028 284.875674 
L 264.606028 284.875674 
L 264.606028 284.875674 
L 264.606028 284.875674 
L 264.606028 284.875674 
L 264.606028 284.875674 
L 264.606028 284.875674 
L 264.606028 284.875674 
L 264.606028 284.875674 
L 264.606028 284.875674 
L 264.606028 284.875674 
L 264.606028 284.875674 
L 264.606028 284.875674 
L 264.606028 284.875674 
L 264.606028 284.875674 
L 264.606028 284.875674 
L 264.606028 284.875674 
L 264.606028 284.875674 
L 264.606028 284.875674 
L 264.606028 284.875674 
L 264.606028 284.875674 
L 264.606028 284.875674 
L 264.606028 284.875674 
L 264.606028 284.875674 
L 264.606028 284.875674 
L 264.606028 284.875674 
L 264.606028 284.875674 
L 264.606028 284.875674 
L 264.606028 284.875674 
L 264.606028 284.875674 
L 264.606028 284.875674 
L 264.606028 284.875674 
L 264.606028 284.875674 
L 264.606028 284.875674 
L 264.606028 284.875674 
L 264.606028 284.875674 
L 264.606028 284.875674 
L 264.606028 284.875674 
L 264.606028 284.875674 
L 264.606028 284.875674 
L 264.606028 284.875674 
L 264.606028 284.875674 
L 264.606028 284.875674 
L 264.606028 284.875674 
L 264.606028 284.875674 
L 264.606028 284.875674 
L 264.606028 284.875674 
L 264.606028 284.875674 
L 264.606028 284.875674 
L 264.606028 284.875674 
L 264.606028 284.875674 
L 264.606028 284.875674 
L 264.606028 284.875674 
L 264.606028 284.875674 
L 264.606028 284.875674 
L 264.606028 284.875674 
L 264.606028 284.875674 
L 264.606028 284.875674 
L 264.606028 284.875674 
L 264.606028 284.875674 
L 264.606028 284.875674 
L 264.606028 284.875674 
L 264.606028 284.875674 
L 264.606028 284.875674 
L 264.606028 284.875674 
L 264.606028 284.875674 
L 264.606028 284.875674 
L 264.606028 284.875674 
L 264.606028 284.875674 
L 264.606028 284.875674 
L 264.606028 284.875674 
L 264.606028 284.875674 
L 264.606028 284.875674 
L 264.606028 284.875674 
L 264.606028 284.875674 
L 264.606028 284.875674 
L 264.606028 284.875674 
L 264.606028 284.875674 
L 264.606028 284.875674 
L 264.606028 284.875674 
L 264.606028 284.875674 
L 264.606028 284.875674 
L 264.606028 284.875674 
L 264.606028 284.875674 
L 264.606028 284.875674 
L 264.606028 284.875674 
L 264.606028 284.875674 
L 264.606028 284.875674 
L 264.606028 284.875674 
L 264.606028 284.875674 
L 264.606028 284.875674 
L 264.606028 284.875674 
L 264.606028 284.875674 
L 264.606028 284.875674 
L 264.606028 284.875674 
L 264.606028 284.875674 
L 264.606028 284.875674 
L 264.606028 284.875674 
L 264.606028 284.875674 
L 264.606028 284.875674 
L 264.606028 284.875674 
L 264.606028 284.875674 
L 264.606028 284.875674 
L 264.606028 284.875674 
L 264.606028 284.875674 
L 264.606028 284.875674 
L 264.606028 284.875674 
L 264.606028 284.875674 
L 264.606028 284.875674 
L 264.606028 284.875674 
L 264.606028 284.875674 
L 264.606028 284.875674 
L 264.606028 284.875674 
L 264.606028 284.875674 
L 264.606028 284.875674 
L 264.606028 284.875674 
L 264.606028 284.875674 
L 264.606028 284.875674 
L 264.606028 284.875674 
L 264.606028 284.875674 
L 264.606028 284.875674 
L 264.606028 284.875674 
L 264.606028 284.875674 
L 264.606028 284.875674 
L 264.606028 284.875674 
L 264.606028 284.875674 
L 264.606028 284.875674 
L 264.606028 284.875674 
L 264.606028 284.875674 
L 264.606028 284.875674 
L 264.606028 284.875674 
L 264.606028 284.875674 
L 264.606028 284.875674 
L 264.606028 284.875674 
L 264.606028 284.875674 
L 264.606028 284.875674 
L 264.606028 284.875674 
L 264.606028 284.875674 
L 264.606028 284.875674 
L 264.606028 284.875674 
L 264.606028 284.875674 
L 264.606028 284.875674 
L 264.606028 284.875674 
L 264.606028 284.875674 
z
" style="fill:#993333;stroke:#000000;stroke-linejoin:miter;"/>
   </g>
   <g id="patch_5">
    <path clip-path="url(#pffeabd32e0)" d="M 236.695175 232.357205 
L 235.627966 233.04876 
L 270.307505 286.566277 
L 271.374714 285.874722 
L 271.374714 285.874722 
L 271.374714 285.874722 
L 271.374714 285.874722 
L 271.374714 285.874722 
L 271.374714 285.874722 
L 271.374714 285.874722 
L 271.374714 285.874722 
L 271.374714 285.874722 
L 271.374714 285.874722 
L 271.374714 285.874722 
L 271.374714 285.874722 
L 271.374714 285.874722 
L 271.374714 285.874722 
L 271.374714 285.874722 
L 271.374714 285.874722 
L 271.374714 285.874722 
L 271.374714 285.874722 
L 271.374714 285.874722 
L 271.374714 285.874722 
L 271.374714 285.874722 
L 271.374714 285.874722 
L 271.374714 285.874722 
L 271.374714 285.874722 
L 271.374714 285.874722 
L 271.374714 285.874722 
L 271.374714 285.874722 
L 271.374714 285.874722 
L 271.374714 285.874722 
L 271.374714 285.874722 
L 271.374714 285.874722 
L 271.374714 285.874722 
L 271.374714 285.874722 
L 271.374714 285.874722 
L 271.374714 285.874722 
L 271.374714 285.874722 
L 271.374714 285.874722 
L 271.374714 285.874722 
L 271.374714 285.874722 
L 271.374714 285.874722 
L 271.374714 285.874722 
L 271.374714 285.874722 
L 271.374714 285.874722 
L 271.374714 285.874722 
L 271.374714 285.874722 
L 271.374714 285.874722 
L 271.374714 285.874722 
L 271.374714 285.874722 
L 271.374714 285.874722 
z
" style="stroke:#000000;stroke-linejoin:miter;"/>
   </g>
   <g id="text_1">
    <!-- t = 9.5 -->
    <defs>
     <path d="M 18.3125 70.21875 
L 18.3125 54.6875 
L 36.8125 54.6875 
L 36.8125 47.703125 
L 18.3125 47.703125 
L 18.3125 18.015625 
Q 18.3125 11.328125 20.140625 9.421875 
Q 21.96875 7.515625 27.59375 7.515625 
L 36.8125 7.515625 
L 36.8125 0 
L 27.59375 0 
Q 17.1875 0 13.234375 3.875 
Q 9.28125 7.765625 9.28125 18.015625 
L 9.28125 47.703125 
L 2.6875 47.703125 
L 2.6875 54.6875 
L 9.28125 54.6875 
L 9.28125 70.21875 
z
" id="DejaVuSans-116"/>
     <path id="DejaVuSans-32"/>
     <path d="M 10.59375 45.40625 
L 73.1875 45.40625 
L 73.1875 37.203125 
L 10.59375 37.203125 
z
M 10.59375 25.484375 
L 73.1875 25.484375 
L 73.1875 17.1875 
L 10.59375 17.1875 
z
" id="DejaVuSans-61"/>
     <path d="M 10.984375 1.515625 
L 10.984375 10.5 
Q 14.703125 8.734375 18.5 7.8125 
Q 22.3125 6.890625 25.984375 6.890625 
Q 35.75 6.890625 40.890625 13.453125 
Q 46.046875 20.015625 46.78125 33.40625 
Q 43.953125 29.203125 39.59375 26.953125 
Q 35.25 24.703125 29.984375 24.703125 
Q 19.046875 24.703125 12.671875 31.3125 
Q 6.296875 37.9375 6.296875 49.421875 
Q 6.296875 60.640625 12.9375 67.421875 
Q 19.578125 74.21875 30.609375 74.21875 
Q 43.265625 74.21875 49.921875 64.515625 
Q 56.59375 54.828125 56.59375 36.375 
Q 56.59375 19.140625 48.40625 8.859375 
Q 40.234375 -1.421875 26.421875 -1.421875 
Q 22.703125 -1.421875 18.890625 -0.6875 
Q 15.09375 0.046875 10.984375 1.515625 
z
M 30.609375 32.421875 
Q 37.25 32.421875 41.125 36.953125 
Q 45.015625 41.5 45.015625 49.421875 
Q 45.015625 57.28125 41.125 61.84375 
Q 37.25 66.40625 30.609375 66.40625 
Q 23.96875 66.40625 20.09375 61.84375 
Q 16.21875 57.28125 16.21875 49.421875 
Q 16.21875 41.5 20.09375 36.953125 
Q 23.96875 32.421875 30.609375 32.421875 
z
" id="DejaVuSans-57"/>
     <path d="M 10.6875 12.40625 
L 21 12.40625 
L 21 0 
L 10.6875 0 
z
" id="DejaVuSans-46"/>
     <path d="M 10.796875 72.90625 
L 49.515625 72.90625 
L 49.515625 64.59375 
L 19.828125 64.59375 
L 19.828125 46.734375 
Q 21.96875 47.46875 24.109375 47.828125 
Q 26.265625 48.1875 28.421875 48.1875 
Q 40.625 48.1875 47.75 41.5 
Q 54.890625 34.8125 54.890625 23.390625 
Q 54.890625 11.625 47.5625 5.09375 
Q 40.234375 -1.421875 26.90625 -1.421875 
Q 22.3125 -1.421875 17.546875 -0.640625 
Q 12.796875 0.140625 7.71875 1.703125 
L 7.71875 11.625 
Q 12.109375 9.234375 16.796875 8.0625 
Q 21.484375 6.890625 26.703125 6.890625 
Q 35.15625 6.890625 40.078125 11.328125 
Q 45.015625 15.765625 45.015625 23.390625 
Q 45.015625 31 40.078125 35.4375 
Q 35.15625 39.890625 26.703125 39.890625 
Q 22.75 39.890625 18.8125 39.015625 
Q 14.890625 38.140625 10.796875 36.28125 
z
" id="DejaVuSans-53"/>
    </defs>
    <g transform="translate(215.424375 49.296)scale(0.12 -0.12)">
     <use xlink:href="#DejaVuSans-116"/>
     <use x="39.208984" xlink:href="#DejaVuSans-32"/>
     <use x="70.996094" xlink:href="#DejaVuSans-61"/>
     <use x="154.785156" xlink:href="#DejaVuSans-32"/>
     <use x="186.572266" xlink:href="#DejaVuSans-57"/>
     <use x="250.195312" xlink:href="#DejaVuSans-46"/>
     <use x="281.982422" xlink:href="#DejaVuSans-53"/>
    </g>
   </g>
  </g>
 </g>
 <defs>
  <clipPath id="pffeabd32e0">
   <rect height="354.816" width="357.12" x="57.6" y="55.296"/>
  </clipPath>
 </defs>
</svg>
