<?xml version="1.0" encoding="utf-8" standalone="no"?>
<!DOCTYPE svg PUBLIC "-//W3C//DTD SVG 1.1//EN"
  "http://www.w3.org/Graphics/SVG/1.1/DTD/svg11.dtd">
<!-- Created with matplotlib (https://matplotlib.org/) -->
<svg height="460.8pt" version="1.1" viewBox="0 0 460.8 460.8" width="460.8pt" xmlns="http://www.w3.org/2000/svg" xmlns:xlink="http://www.w3.org/1999/xlink">
 <defs>
  <style type="text/css">
*{stroke-linecap:butt;stroke-linejoin:round;}
  </style>
 </defs>
 <g id="figure_1">
  <g id="patch_1">
   <path d="M 0 460.8 
L 460.8 460.8 
L 460.8 0 
L 0 0 
z
" style="fill:#ffffff;"/>
  </g>
  <g id="axes_1">
   <g id="patch_2">
    <path clip-path="url(#p157b2f54fc)" d="M 229.729911 353.675942 
L 227.93418 353.798149 
L 226.653907 354.2318 
L 225.10608 355.197715 
L 224.216137 356.20868 
L 223.295177 357.781813 
L 223.013453 359.122572 
L 222.944842 360.917766 
L 223.340314 362.260055 
L 224.140851 363.837783 
L 225.116692 364.852962 
L 226.590377 365.826941 
L 227.907668 366.26646 
L 229.693693 366.398227 
L 231.029914 366.154475 
L 232.690997 365.411768 
L 233.718996 364.544426 
L 234.848445 363.109085 
L 235.316532 361.830507 
L 235.63782 360.053955 
L 235.43139 358.677182 
L 234.865853 356.99438 
L 234.035448 355.856494 
L 232.72155 354.67945 
L 231.470482 354.059046 
L 231.470482 354.059046 
L 231.470482 354.059046 
L 231.470482 354.059046 
L 231.470482 354.059046 
L 231.470482 354.059046 
L 231.470482 354.059046 
L 231.470482 354.059046 
L 231.470482 354.059046 
L 231.470482 354.059046 
L 231.470482 354.059046 
L 231.470482 354.059046 
L 231.470482 354.059046 
L 231.470482 354.059046 
L 231.470482 354.059046 
L 231.470482 354.059046 
L 231.470482 354.059046 
L 231.470482 354.059046 
L 231.470482 354.059046 
L 231.470482 354.059046 
L 231.470482 354.059046 
L 231.470482 354.059046 
L 231.470482 354.059046 
L 231.470482 354.059046 
L 231.470482 354.059046 
L 231.470482 354.059046 
L 231.470482 354.059046 
L 231.470482 354.059046 
L 231.470482 354.059046 
L 231.470482 354.059046 
L 231.470482 354.059046 
L 231.470482 354.059046 
L 231.470482 354.059046 
L 231.470482 354.059046 
L 231.470482 354.059046 
L 231.470482 354.059046 
L 231.470482 354.059046 
L 231.470482 354.059046 
L 231.470482 354.059046 
L 231.470482 354.059046 
L 231.470482 354.059046 
L 231.470482 354.059046 
L 231.470482 354.059046 
L 231.470482 354.059046 
L 231.470482 354.059046 
L 231.470482 354.059046 
L 231.470482 354.059046 
L 231.470482 354.059046 
L 231.470482 354.059046 
L 231.470482 354.059046 
L 231.470482 354.059046 
L 231.470482 354.059046 
L 231.470482 354.059046 
L 231.470482 354.059046 
L 231.470482 354.059046 
L 231.470482 354.059046 
L 231.470482 354.059046 
L 231.470482 354.059046 
L 231.470482 354.059046 
L 231.470482 354.059046 
L 231.470482 354.059046 
L 231.470482 354.059046 
L 231.470482 354.059046 
L 231.470482 354.059046 
L 231.470482 354.059046 
L 231.470482 354.059046 
L 231.470482 354.059046 
L 231.470482 354.059046 
L 231.470482 354.059046 
L 231.470482 354.059046 
L 231.470482 354.059046 
L 231.470482 354.059046 
L 231.470482 354.059046 
L 231.470482 354.059046 
L 231.470482 354.059046 
L 231.470482 354.059046 
L 231.470482 354.059046 
L 231.470482 354.059046 
L 231.470482 354.059046 
L 231.470482 354.059046 
L 231.470482 354.059046 
L 231.470482 354.059046 
L 231.470482 354.059046 
L 231.470482 354.059046 
L 231.470482 354.059046 
L 231.470482 354.059046 
L 231.470482 354.059046 
L 231.470482 354.059046 
L 231.470482 354.059046 
L 231.470482 354.059046 
L 231.470482 354.059046 
L 231.470482 354.059046 
L 231.470482 354.059046 
L 231.470482 354.059046 
L 231.470482 354.059046 
L 231.470482 354.059046 
L 231.470482 354.059046 
L 231.470482 354.059046 
L 231.470482 354.059046 
L 231.470482 354.059046 
L 231.470482 354.059046 
L 231.470482 354.059046 
L 231.470482 354.059046 
L 231.470482 354.059046 
L 231.470482 354.059046 
L 231.470482 354.059046 
L 231.470482 354.059046 
L 231.470482 354.059046 
L 231.470482 354.059046 
L 231.470482 354.059046 
L 231.470482 354.059046 
L 231.470482 354.059046 
L 231.470482 354.059046 
L 231.470482 354.059046 
L 231.470482 354.059046 
L 231.470482 354.059046 
L 231.470482 354.059046 
L 231.470482 354.059046 
L 231.470482 354.059046 
L 231.470482 354.059046 
L 231.470482 354.059046 
L 231.470482 354.059046 
L 231.470482 354.059046 
L 231.470482 354.059046 
L 231.470482 354.059046 
L 231.470482 354.059046 
L 231.470482 354.059046 
L 231.470482 354.059046 
L 231.470482 354.059046 
L 231.470482 354.059046 
L 231.470482 354.059046 
L 231.470482 354.059046 
L 231.470482 354.059046 
L 231.470482 354.059046 
L 231.470482 354.059046 
L 231.470482 354.059046 
L 231.470482 354.059046 
L 231.470482 354.059046 
L 231.470482 354.059046 
L 231.470482 354.059046 
L 231.470482 354.059046 
L 231.470482 354.059046 
L 231.470482 354.059046 
L 231.470482 354.059046 
L 231.470482 354.059046 
z
" style="fill:#993333;stroke:#000000;stroke-linejoin:miter;"/>
   </g>
   <g id="patch_3">
    <path clip-path="url(#p157b2f54fc)" d="M 228.62845 359.989155 
L 229.896688 360.082721 
L 234.588776 296.484141 
L 233.320538 296.390575 
L 233.320538 296.390575 
L 233.320538 296.390575 
L 233.320538 296.390575 
L 233.320538 296.390575 
L 233.320538 296.390575 
L 233.320538 296.390575 
L 233.320538 296.390575 
L 233.320538 296.390575 
L 233.320538 296.390575 
L 233.320538 296.390575 
L 233.320538 296.390575 
L 233.320538 296.390575 
L 233.320538 296.390575 
L 233.320538 296.390575 
L 233.320538 296.390575 
L 233.320538 296.390575 
L 233.320538 296.390575 
L 233.320538 296.390575 
L 233.320538 296.390575 
L 233.320538 296.390575 
L 233.320538 296.390575 
L 233.320538 296.390575 
L 233.320538 296.390575 
L 233.320538 296.390575 
L 233.320538 296.390575 
L 233.320538 296.390575 
L 233.320538 296.390575 
L 233.320538 296.390575 
L 233.320538 296.390575 
L 233.320538 296.390575 
L 233.320538 296.390575 
L 233.320538 296.390575 
L 233.320538 296.390575 
L 233.320538 296.390575 
L 233.320538 296.390575 
L 233.320538 296.390575 
L 233.320538 296.390575 
L 233.320538 296.390575 
L 233.320538 296.390575 
L 233.320538 296.390575 
L 233.320538 296.390575 
L 233.320538 296.390575 
L 233.320538 296.390575 
L 233.320538 296.390575 
L 233.320538 296.390575 
L 233.320538 296.390575 
L 233.320538 296.390575 
L 233.320538 296.390575 
z
" style="stroke:#000000;stroke-linejoin:miter;"/>
   </g>
   <g id="patch_4">
    <path clip-path="url(#p157b2f54fc)" d="M 227.674668 295.768424 
L 227.676149 297.564928 
L 228.123688 298.890765 
L 228.985171 300.436059 
L 229.999876 301.412393 
L 231.51044 302.328135 
L 232.843875 302.715925 
L 234.633681 302.777909 
L 235.959375 302.48221 
L 237.590216 301.675262 
L 238.583593 300.768472 
L 239.656183 299.290159 
L 240.074029 297.994292 
L 240.32576 296.206557 
L 240.065772 294.838886 
L 239.435012 293.17943 
L 238.560844 292.074808 
L 237.202024 290.949923 
L 235.927703 290.378801 
L 234.173511 290.063898 
L 232.383915 290.256073 
L 231.121536 290.739343 
L 229.612572 291.764912 
L 228.76275 292.809828 
L 227.903867 294.417695 
L 227.903867 294.417695 
L 227.903867 294.417695 
L 227.903867 294.417695 
L 227.903867 294.417695 
L 227.903867 294.417695 
L 227.903867 294.417695 
L 227.903867 294.417695 
L 227.903867 294.417695 
L 227.903867 294.417695 
L 227.903867 294.417695 
L 227.903867 294.417695 
L 227.903867 294.417695 
L 227.903867 294.417695 
L 227.903867 294.417695 
L 227.903867 294.417695 
L 227.903867 294.417695 
L 227.903867 294.417695 
L 227.903867 294.417695 
L 227.903867 294.417695 
L 227.903867 294.417695 
L 227.903867 294.417695 
L 227.903867 294.417695 
L 227.903867 294.417695 
L 227.903867 294.417695 
L 227.903867 294.417695 
L 227.903867 294.417695 
L 227.903867 294.417695 
L 227.903867 294.417695 
L 227.903867 294.417695 
L 227.903867 294.417695 
L 227.903867 294.417695 
L 227.903867 294.417695 
L 227.903867 294.417695 
L 227.903867 294.417695 
L 227.903867 294.417695 
L 227.903867 294.417695 
L 227.903867 294.417695 
L 227.903867 294.417695 
L 227.903867 294.417695 
L 227.903867 294.417695 
L 227.903867 294.417695 
L 227.903867 294.417695 
L 227.903867 294.417695 
L 227.903867 294.417695 
L 227.903867 294.417695 
L 227.903867 294.417695 
L 227.903867 294.417695 
L 227.903867 294.417695 
L 227.903867 294.417695 
L 227.903867 294.417695 
L 227.903867 294.417695 
L 227.903867 294.417695 
L 227.903867 294.417695 
L 227.903867 294.417695 
L 227.903867 294.417695 
L 227.903867 294.417695 
L 227.903867 294.417695 
L 227.903867 294.417695 
L 227.903867 294.417695 
L 227.903867 294.417695 
L 227.903867 294.417695 
L 227.903867 294.417695 
L 227.903867 294.417695 
L 227.903867 294.417695 
L 227.903867 294.417695 
L 227.903867 294.417695 
L 227.903867 294.417695 
L 227.903867 294.417695 
L 227.903867 294.417695 
L 227.903867 294.417695 
L 227.903867 294.417695 
L 227.903867 294.417695 
L 227.903867 294.417695 
L 227.903867 294.417695 
L 227.903867 294.417695 
L 227.903867 294.417695 
L 227.903867 294.417695 
L 227.903867 294.417695 
L 227.903867 294.417695 
L 227.903867 294.417695 
L 227.903867 294.417695 
L 227.903867 294.417695 
L 227.903867 294.417695 
L 227.903867 294.417695 
L 227.903867 294.417695 
L 227.903867 294.417695 
L 227.903867 294.417695 
L 227.903867 294.417695 
L 227.903867 294.417695 
L 227.903867 294.417695 
L 227.903867 294.417695 
L 227.903867 294.417695 
L 227.903867 294.417695 
L 227.903867 294.417695 
L 227.903867 294.417695 
L 227.903867 294.417695 
L 227.903867 294.417695 
L 227.903867 294.417695 
L 227.903867 294.417695 
L 227.903867 294.417695 
L 227.903867 294.417695 
L 227.903867 294.417695 
L 227.903867 294.417695 
L 227.903867 294.417695 
L 227.903867 294.417695 
L 227.903867 294.417695 
L 227.903867 294.417695 
L 227.903867 294.417695 
L 227.903867 294.417695 
L 227.903867 294.417695 
L 227.903867 294.417695 
L 227.903867 294.417695 
L 227.903867 294.417695 
L 227.903867 294.417695 
L 227.903867 294.417695 
L 227.903867 294.417695 
L 227.903867 294.417695 
L 227.903867 294.417695 
L 227.903867 294.417695 
L 227.903867 294.417695 
L 227.903867 294.417695 
L 227.903867 294.417695 
L 227.903867 294.417695 
L 227.903867 294.417695 
L 227.903867 294.417695 
L 227.903867 294.417695 
L 227.903867 294.417695 
L 227.903867 294.417695 
L 227.903867 294.417695 
L 227.903867 294.417695 
L 227.903867 294.417695 
L 227.903867 294.417695 
L 227.903867 294.417695 
L 227.903867 294.417695 
L 227.903867 294.417695 
L 227.903867 294.417695 
L 227.903867 294.417695 
L 227.903867 294.417695 
L 227.903867 294.417695 
L 227.903867 294.417695 
L 227.903867 294.417695 
L 227.903867 294.417695 
L 227.903867 294.417695 
L 227.903867 294.417695 
z
" style="fill:#993333;stroke:#000000;stroke-linejoin:miter;"/>
   </g>
   <g id="patch_5">
    <path clip-path="url(#p157b2f54fc)" d="M 235.526409 232.682057 
L 233.319199 296.415277 
L 234.590122 296.459292 
L 236.797332 232.726072 
L 236.797332 232.726072 
L 236.797332 232.726072 
L 236.797332 232.726072 
L 236.797332 232.726072 
L 236.797332 232.726072 
L 236.797332 232.726072 
L 236.797332 232.726072 
L 236.797332 232.726072 
L 236.797332 232.726072 
L 236.797332 232.726072 
L 236.797332 232.726072 
L 236.797332 232.726072 
L 236.797332 232.726072 
L 236.797332 232.726072 
L 236.797332 232.726072 
L 236.797332 232.726072 
L 236.797332 232.726072 
L 236.797332 232.726072 
L 236.797332 232.726072 
L 236.797332 232.726072 
L 236.797332 232.726072 
L 236.797332 232.726072 
L 236.797332 232.726072 
L 236.797332 232.726072 
L 236.797332 232.726072 
L 236.797332 232.726072 
L 236.797332 232.726072 
L 236.797332 232.726072 
L 236.797332 232.726072 
L 236.797332 232.726072 
L 236.797332 232.726072 
L 236.797332 232.726072 
L 236.797332 232.726072 
L 236.797332 232.726072 
L 236.797332 232.726072 
L 236.797332 232.726072 
L 236.797332 232.726072 
L 236.797332 232.726072 
L 236.797332 232.726072 
L 236.797332 232.726072 
L 236.797332 232.726072 
L 236.797332 232.726072 
L 236.797332 232.726072 
L 236.797332 232.726072 
L 236.797332 232.726072 
L 236.797332 232.726072 
L 236.797332 232.726072 
L 236.797332 232.726072 
z
" style="stroke:#000000;stroke-linejoin:miter;"/>
   </g>
   <g id="text_1">
    <!-- t = 9.2 -->
    <defs>
     <path d="M 18.3125 70.21875 
L 18.3125 54.6875 
L 36.8125 54.6875 
L 36.8125 47.703125 
L 18.3125 47.703125 
L 18.3125 18.015625 
Q 18.3125 11.328125 20.140625 9.421875 
Q 21.96875 7.515625 27.59375 7.515625 
L 36.8125 7.515625 
L 36.8125 0 
L 27.59375 0 
Q 17.1875 0 13.234375 3.875 
Q 9.28125 7.765625 9.28125 18.015625 
L 9.28125 47.703125 
L 2.6875 47.703125 
L 2.6875 54.6875 
L 9.28125 54.6875 
L 9.28125 70.21875 
z
" id="DejaVuSans-116"/>
     <path id="DejaVuSans-32"/>
     <path d="M 10.59375 45.40625 
L 73.1875 45.40625 
L 73.1875 37.203125 
L 10.59375 37.203125 
z
M 10.59375 25.484375 
L 73.1875 25.484375 
L 73.1875 17.1875 
L 10.59375 17.1875 
z
" id="DejaVuSans-61"/>
     <path d="M 10.984375 1.515625 
L 10.984375 10.5 
Q 14.703125 8.734375 18.5 7.8125 
Q 22.3125 6.890625 25.984375 6.890625 
Q 35.75 6.890625 40.890625 13.453125 
Q 46.046875 20.015625 46.78125 33.40625 
Q 43.953125 29.203125 39.59375 26.953125 
Q 35.25 24.703125 29.984375 24.703125 
Q 19.046875 24.703125 12.671875 31.3125 
Q 6.296875 37.9375 6.296875 49.421875 
Q 6.296875 60.640625 12.9375 67.421875 
Q 19.578125 74.21875 30.609375 74.21875 
Q 43.265625 74.21875 49.921875 64.515625 
Q 56.59375 54.828125 56.59375 36.375 
Q 56.59375 19.140625 48.40625 8.859375 
Q 40.234375 -1.421875 26.421875 -1.421875 
Q 22.703125 -1.421875 18.890625 -0.6875 
Q 15.09375 0.046875 10.984375 1.515625 
z
M 30.609375 32.421875 
Q 37.25 32.421875 41.125 36.953125 
Q 45.015625 41.5 45.015625 49.421875 
Q 45.015625 57.28125 41.125 61.84375 
Q 37.25 66.40625 30.609375 66.40625 
Q 23.96875 66.40625 20.09375 61.84375 
Q 16.21875 57.28125 16.21875 49.421875 
Q 16.21875 41.5 20.09375 36.953125 
Q 23.96875 32.421875 30.609375 32.421875 
z
" id="DejaVuSans-57"/>
     <path d="M 10.6875 12.40625 
L 21 12.40625 
L 21 0 
L 10.6875 0 
z
" id="DejaVuSans-46"/>
     <path d="M 19.1875 8.296875 
L 53.609375 8.296875 
L 53.609375 0 
L 7.328125 0 
L 7.328125 8.296875 
Q 12.9375 14.109375 22.625 23.890625 
Q 32.328125 33.6875 34.8125 36.53125 
Q 39.546875 41.84375 41.421875 45.53125 
Q 43.3125 49.21875 43.3125 52.78125 
Q 43.3125 58.59375 39.234375 62.25 
Q 35.15625 65.921875 28.609375 65.921875 
Q 23.96875 65.921875 18.8125 64.3125 
Q 13.671875 62.703125 7.8125 59.421875 
L 7.8125 69.390625 
Q 13.765625 71.78125 18.9375 73 
Q 24.125 74.21875 28.421875 74.21875 
Q 39.75 74.21875 46.484375 68.546875 
Q 53.21875 62.890625 53.21875 53.421875 
Q 53.21875 48.921875 51.53125 44.890625 
Q 49.859375 40.875 45.40625 35.40625 
Q 44.1875 33.984375 37.640625 27.21875 
Q 31.109375 20.453125 19.1875 8.296875 
z
" id="DejaVuSans-50"/>
    </defs>
    <g transform="translate(215.424375 49.296)scale(0.12 -0.12)">
     <use xlink:href="#DejaVuSans-116"/>
     <use x="39.208984" xlink:href="#DejaVuSans-32"/>
     <use x="70.996094" xlink:href="#DejaVuSans-61"/>
     <use x="154.785156" xlink:href="#DejaVuSans-32"/>
     <use x="186.572266" xlink:href="#DejaVuSans-57"/>
     <use x="250.195312" xlink:href="#DejaVuSans-46"/>
     <use x="281.982422" xlink:href="#DejaVuSans-50"/>
    </g>
   </g>
  </g>
 </g>
 <defs>
  <clipPath id="p157b2f54fc">
   <rect height="354.816" width="357.12" x="57.6" y="55.296"/>
  </clipPath>
 </defs>
</svg>
