<?xml version="1.0" encoding="utf-8" standalone="no"?>
<!DOCTYPE svg PUBLIC "-//W3C//DTD SVG 1.1//EN"
  "http://www.w3.org/Graphics/SVG/1.1/DTD/svg11.dtd">
<!-- Created with matplotlib (https://matplotlib.org/) -->
<svg height="460.8pt" version="1.1" viewBox="0 0 460.8 460.8" width="460.8pt" xmlns="http://www.w3.org/2000/svg" xmlns:xlink="http://www.w3.org/1999/xlink">
 <defs>
  <style type="text/css">
*{stroke-linecap:butt;stroke-linejoin:round;}
  </style>
 </defs>
 <g id="figure_1">
  <g id="patch_1">
   <path d="M 0 460.8 
L 460.8 460.8 
L 460.8 0 
L 0 0 
z
" style="fill:#ffffff;"/>
  </g>
  <g id="axes_1">
   <g id="patch_2">
    <path clip-path="url(#p285759daec)" d="M 349.27857 273.626 
L 349.136699 275.420285 
L 349.378344 276.750232 
L 350.107373 278.422738 
L 350.977234 279.451033 
L 352.398673 280.592272 
L 353.683777 281.067152 
L 355.449608 281.397709 
L 356.835317 281.202908 
L 358.513203 280.641851 
L 359.660246 279.825062 
L 360.839382 278.509758 
L 361.466925 277.270959 
L 361.858617 275.52344 
L 361.813014 274.165934 
L 361.321362 272.414052 
L 360.613779 271.270203 
L 359.359157 269.942882 
L 358.162835 269.292743 
L 356.452418 268.714957 
L 355.060257 268.717706 
L 353.312815 269.030916 
L 352.065667 269.68588 
L 350.709034 270.813402 
L 349.912242 271.960223 
L 349.912242 271.960223 
L 349.912242 271.960223 
L 349.912242 271.960223 
L 349.912242 271.960223 
L 349.912242 271.960223 
L 349.912242 271.960223 
L 349.912242 271.960223 
L 349.912242 271.960223 
L 349.912242 271.960223 
L 349.912242 271.960223 
L 349.912242 271.960223 
L 349.912242 271.960223 
L 349.912242 271.960223 
L 349.912242 271.960223 
L 349.912242 271.960223 
L 349.912242 271.960223 
L 349.912242 271.960223 
L 349.912242 271.960223 
L 349.912242 271.960223 
L 349.912242 271.960223 
L 349.912242 271.960223 
L 349.912242 271.960223 
L 349.912242 271.960223 
L 349.912242 271.960223 
L 349.912242 271.960223 
L 349.912242 271.960223 
L 349.912242 271.960223 
L 349.912242 271.960223 
L 349.912242 271.960223 
L 349.912242 271.960223 
L 349.912242 271.960223 
L 349.912242 271.960223 
L 349.912242 271.960223 
L 349.912242 271.960223 
L 349.912242 271.960223 
L 349.912242 271.960223 
L 349.912242 271.960223 
L 349.912242 271.960223 
L 349.912242 271.960223 
L 349.912242 271.960223 
L 349.912242 271.960223 
L 349.912242 271.960223 
L 349.912242 271.960223 
L 349.912242 271.960223 
L 349.912242 271.960223 
L 349.912242 271.960223 
L 349.912242 271.960223 
L 349.912242 271.960223 
L 349.912242 271.960223 
L 349.912242 271.960223 
L 349.912242 271.960223 
L 349.912242 271.960223 
L 349.912242 271.960223 
L 349.912242 271.960223 
L 349.912242 271.960223 
L 349.912242 271.960223 
L 349.912242 271.960223 
L 349.912242 271.960223 
L 349.912242 271.960223 
L 349.912242 271.960223 
L 349.912242 271.960223 
L 349.912242 271.960223 
L 349.912242 271.960223 
L 349.912242 271.960223 
L 349.912242 271.960223 
L 349.912242 271.960223 
L 349.912242 271.960223 
L 349.912242 271.960223 
L 349.912242 271.960223 
L 349.912242 271.960223 
L 349.912242 271.960223 
L 349.912242 271.960223 
L 349.912242 271.960223 
L 349.912242 271.960223 
L 349.912242 271.960223 
L 349.912242 271.960223 
L 349.912242 271.960223 
L 349.912242 271.960223 
L 349.912242 271.960223 
L 349.912242 271.960223 
L 349.912242 271.960223 
L 349.912242 271.960223 
L 349.912242 271.960223 
L 349.912242 271.960223 
L 349.912242 271.960223 
L 349.912242 271.960223 
L 349.912242 271.960223 
L 349.912242 271.960223 
L 349.912242 271.960223 
L 349.912242 271.960223 
L 349.912242 271.960223 
L 349.912242 271.960223 
L 349.912242 271.960223 
L 349.912242 271.960223 
L 349.912242 271.960223 
L 349.912242 271.960223 
L 349.912242 271.960223 
L 349.912242 271.960223 
L 349.912242 271.960223 
L 349.912242 271.960223 
L 349.912242 271.960223 
L 349.912242 271.960223 
L 349.912242 271.960223 
L 349.912242 271.960223 
L 349.912242 271.960223 
L 349.912242 271.960223 
L 349.912242 271.960223 
L 349.912242 271.960223 
L 349.912242 271.960223 
L 349.912242 271.960223 
L 349.912242 271.960223 
L 349.912242 271.960223 
L 349.912242 271.960223 
L 349.912242 271.960223 
L 349.912242 271.960223 
L 349.912242 271.960223 
L 349.912242 271.960223 
L 349.912242 271.960223 
L 349.912242 271.960223 
L 349.912242 271.960223 
L 349.912242 271.960223 
L 349.912242 271.960223 
L 349.912242 271.960223 
L 349.912242 271.960223 
L 349.912242 271.960223 
L 349.912242 271.960223 
L 349.912242 271.960223 
L 349.912242 271.960223 
L 349.912242 271.960223 
L 349.912242 271.960223 
L 349.912242 271.960223 
L 349.912242 271.960223 
L 349.912242 271.960223 
L 349.912242 271.960223 
L 349.912242 271.960223 
L 349.912242 271.960223 
L 349.912242 271.960223 
L 349.912242 271.960223 
L 349.912242 271.960223 
L 349.912242 271.960223 
L 349.912242 271.960223 
L 349.912242 271.960223 
L 349.912242 271.960223 
L 349.912242 271.960223 
z
" style="fill:#993333;stroke:#000000;stroke-linejoin:miter;"/>
   </g>
   <g id="patch_3">
    <path clip-path="url(#p285759daec)" d="M 293.413346 260.450743 
L 293.13521 261.691639 
L 355.362656 275.639398 
L 355.640793 274.398502 
L 355.640793 274.398502 
L 355.640793 274.398502 
L 355.640793 274.398502 
L 355.640793 274.398502 
L 355.640793 274.398502 
L 355.640793 274.398502 
L 355.640793 274.398502 
L 355.640793 274.398502 
L 355.640793 274.398502 
L 355.640793 274.398502 
L 355.640793 274.398502 
L 355.640793 274.398502 
L 355.640793 274.398502 
L 355.640793 274.398502 
L 355.640793 274.398502 
L 355.640793 274.398502 
L 355.640793 274.398502 
L 355.640793 274.398502 
L 355.640793 274.398502 
L 355.640793 274.398502 
L 355.640793 274.398502 
L 355.640793 274.398502 
L 355.640793 274.398502 
L 355.640793 274.398502 
L 355.640793 274.398502 
L 355.640793 274.398502 
L 355.640793 274.398502 
L 355.640793 274.398502 
L 355.640793 274.398502 
L 355.640793 274.398502 
L 355.640793 274.398502 
L 355.640793 274.398502 
L 355.640793 274.398502 
L 355.640793 274.398502 
L 355.640793 274.398502 
L 355.640793 274.398502 
L 355.640793 274.398502 
L 355.640793 274.398502 
L 355.640793 274.398502 
L 355.640793 274.398502 
L 355.640793 274.398502 
L 355.640793 274.398502 
L 355.640793 274.398502 
L 355.640793 274.398502 
L 355.640793 274.398502 
L 355.640793 274.398502 
L 355.640793 274.398502 
L 355.640793 274.398502 
z
" style="stroke:#000000;stroke-linejoin:miter;"/>
   </g>
   <g id="patch_4">
    <path clip-path="url(#p285759daec)" d="M 288.574706 256.769229 
L 287.562482 258.236115 
L 286.99729 259.944958 
L 286.915183 261.294184 
L 287.224833 263.092204 
L 287.824712 264.298103 
L 288.93339 265.745083 
L 290.068385 266.512409 
L 291.704648 267.254077 
L 293.096872 267.394962 
L 294.860106 267.249732 
L 296.168694 266.729682 
L 297.627197 265.733111 
L 298.531762 264.679454 
L 299.328442 263.075538 
L 299.607514 261.746244 
L 299.547316 259.927677 
L 299.132569 258.648204 
L 298.230232 257.060235 
L 297.223209 256.143844 
L 295.699656 255.175263 
L 294.346914 254.846317 
L 292.575163 254.734266 
L 291.207899 255.073303 
L 289.621738 255.845217 
L 289.621738 255.845217 
L 289.621738 255.845217 
L 289.621738 255.845217 
L 289.621738 255.845217 
L 289.621738 255.845217 
L 289.621738 255.845217 
L 289.621738 255.845217 
L 289.621738 255.845217 
L 289.621738 255.845217 
L 289.621738 255.845217 
L 289.621738 255.845217 
L 289.621738 255.845217 
L 289.621738 255.845217 
L 289.621738 255.845217 
L 289.621738 255.845217 
L 289.621738 255.845217 
L 289.621738 255.845217 
L 289.621738 255.845217 
L 289.621738 255.845217 
L 289.621738 255.845217 
L 289.621738 255.845217 
L 289.621738 255.845217 
L 289.621738 255.845217 
L 289.621738 255.845217 
L 289.621738 255.845217 
L 289.621738 255.845217 
L 289.621738 255.845217 
L 289.621738 255.845217 
L 289.621738 255.845217 
L 289.621738 255.845217 
L 289.621738 255.845217 
L 289.621738 255.845217 
L 289.621738 255.845217 
L 289.621738 255.845217 
L 289.621738 255.845217 
L 289.621738 255.845217 
L 289.621738 255.845217 
L 289.621738 255.845217 
L 289.621738 255.845217 
L 289.621738 255.845217 
L 289.621738 255.845217 
L 289.621738 255.845217 
L 289.621738 255.845217 
L 289.621738 255.845217 
L 289.621738 255.845217 
L 289.621738 255.845217 
L 289.621738 255.845217 
L 289.621738 255.845217 
L 289.621738 255.845217 
L 289.621738 255.845217 
L 289.621738 255.845217 
L 289.621738 255.845217 
L 289.621738 255.845217 
L 289.621738 255.845217 
L 289.621738 255.845217 
L 289.621738 255.845217 
L 289.621738 255.845217 
L 289.621738 255.845217 
L 289.621738 255.845217 
L 289.621738 255.845217 
L 289.621738 255.845217 
L 289.621738 255.845217 
L 289.621738 255.845217 
L 289.621738 255.845217 
L 289.621738 255.845217 
L 289.621738 255.845217 
L 289.621738 255.845217 
L 289.621738 255.845217 
L 289.621738 255.845217 
L 289.621738 255.845217 
L 289.621738 255.845217 
L 289.621738 255.845217 
L 289.621738 255.845217 
L 289.621738 255.845217 
L 289.621738 255.845217 
L 289.621738 255.845217 
L 289.621738 255.845217 
L 289.621738 255.845217 
L 289.621738 255.845217 
L 289.621738 255.845217 
L 289.621738 255.845217 
L 289.621738 255.845217 
L 289.621738 255.845217 
L 289.621738 255.845217 
L 289.621738 255.845217 
L 289.621738 255.845217 
L 289.621738 255.845217 
L 289.621738 255.845217 
L 289.621738 255.845217 
L 289.621738 255.845217 
L 289.621738 255.845217 
L 289.621738 255.845217 
L 289.621738 255.845217 
L 289.621738 255.845217 
L 289.621738 255.845217 
L 289.621738 255.845217 
L 289.621738 255.845217 
L 289.621738 255.845217 
L 289.621738 255.845217 
L 289.621738 255.845217 
L 289.621738 255.845217 
L 289.621738 255.845217 
L 289.621738 255.845217 
L 289.621738 255.845217 
L 289.621738 255.845217 
L 289.621738 255.845217 
L 289.621738 255.845217 
L 289.621738 255.845217 
L 289.621738 255.845217 
L 289.621738 255.845217 
L 289.621738 255.845217 
L 289.621738 255.845217 
L 289.621738 255.845217 
L 289.621738 255.845217 
L 289.621738 255.845217 
L 289.621738 255.845217 
L 289.621738 255.845217 
L 289.621738 255.845217 
L 289.621738 255.845217 
L 289.621738 255.845217 
L 289.621738 255.845217 
L 289.621738 255.845217 
L 289.621738 255.845217 
L 289.621738 255.845217 
L 289.621738 255.845217 
L 289.621738 255.845217 
L 289.621738 255.845217 
L 289.621738 255.845217 
L 289.621738 255.845217 
L 289.621738 255.845217 
L 289.621738 255.845217 
L 289.621738 255.845217 
L 289.621738 255.845217 
L 289.621738 255.845217 
L 289.621738 255.845217 
L 289.621738 255.845217 
L 289.621738 255.845217 
L 289.621738 255.845217 
L 289.621738 255.845217 
L 289.621738 255.845217 
L 289.621738 255.845217 
L 289.621738 255.845217 
L 289.621738 255.845217 
L 289.621738 255.845217 
z
" style="fill:#993333;stroke:#000000;stroke-linejoin:miter;"/>
   </g>
   <g id="patch_5">
    <path clip-path="url(#p285759daec)" d="M 235.877975 233.271786 
L 292.991844 261.640803 
L 293.557559 260.501878 
L 236.44369 232.132861 
L 236.44369 232.132861 
L 236.44369 232.132861 
L 236.44369 232.132861 
L 236.44369 232.132861 
L 236.44369 232.132861 
L 236.44369 232.132861 
L 236.44369 232.132861 
L 236.44369 232.132861 
L 236.44369 232.132861 
L 236.44369 232.132861 
L 236.44369 232.132861 
L 236.44369 232.132861 
L 236.44369 232.132861 
L 236.44369 232.132861 
L 236.44369 232.132861 
L 236.44369 232.132861 
L 236.44369 232.132861 
L 236.44369 232.132861 
L 236.44369 232.132861 
L 236.44369 232.132861 
L 236.44369 232.132861 
L 236.44369 232.132861 
L 236.44369 232.132861 
L 236.44369 232.132861 
L 236.44369 232.132861 
L 236.44369 232.132861 
L 236.44369 232.132861 
L 236.44369 232.132861 
L 236.44369 232.132861 
L 236.44369 232.132861 
L 236.44369 232.132861 
L 236.44369 232.132861 
L 236.44369 232.132861 
L 236.44369 232.132861 
L 236.44369 232.132861 
L 236.44369 232.132861 
L 236.44369 232.132861 
L 236.44369 232.132861 
L 236.44369 232.132861 
L 236.44369 232.132861 
L 236.44369 232.132861 
L 236.44369 232.132861 
L 236.44369 232.132861 
L 236.44369 232.132861 
L 236.44369 232.132861 
L 236.44369 232.132861 
L 236.44369 232.132861 
L 236.44369 232.132861 
z
" style="stroke:#000000;stroke-linejoin:miter;"/>
   </g>
   <g id="text_1">
    <!-- t = 4.3 -->
    <defs>
     <path d="M 18.3125 70.21875 
L 18.3125 54.6875 
L 36.8125 54.6875 
L 36.8125 47.703125 
L 18.3125 47.703125 
L 18.3125 18.015625 
Q 18.3125 11.328125 20.140625 9.421875 
Q 21.96875 7.515625 27.59375 7.515625 
L 36.8125 7.515625 
L 36.8125 0 
L 27.59375 0 
Q 17.1875 0 13.234375 3.875 
Q 9.28125 7.765625 9.28125 18.015625 
L 9.28125 47.703125 
L 2.6875 47.703125 
L 2.6875 54.6875 
L 9.28125 54.6875 
L 9.28125 70.21875 
z
" id="DejaVuSans-116"/>
     <path id="DejaVuSans-32"/>
     <path d="M 10.59375 45.40625 
L 73.1875 45.40625 
L 73.1875 37.203125 
L 10.59375 37.203125 
z
M 10.59375 25.484375 
L 73.1875 25.484375 
L 73.1875 17.1875 
L 10.59375 17.1875 
z
" id="DejaVuSans-61"/>
     <path d="M 37.796875 64.3125 
L 12.890625 25.390625 
L 37.796875 25.390625 
z
M 35.203125 72.90625 
L 47.609375 72.90625 
L 47.609375 25.390625 
L 58.015625 25.390625 
L 58.015625 17.1875 
L 47.609375 17.1875 
L 47.609375 0 
L 37.796875 0 
L 37.796875 17.1875 
L 4.890625 17.1875 
L 4.890625 26.703125 
z
" id="DejaVuSans-52"/>
     <path d="M 10.6875 12.40625 
L 21 12.40625 
L 21 0 
L 10.6875 0 
z
" id="DejaVuSans-46"/>
     <path d="M 40.578125 39.3125 
Q 47.65625 37.796875 51.625 33 
Q 55.609375 28.21875 55.609375 21.1875 
Q 55.609375 10.40625 48.1875 4.484375 
Q 40.765625 -1.421875 27.09375 -1.421875 
Q 22.515625 -1.421875 17.65625 -0.515625 
Q 12.796875 0.390625 7.625 2.203125 
L 7.625 11.71875 
Q 11.71875 9.328125 16.59375 8.109375 
Q 21.484375 6.890625 26.8125 6.890625 
Q 36.078125 6.890625 40.9375 10.546875 
Q 45.796875 14.203125 45.796875 21.1875 
Q 45.796875 27.640625 41.28125 31.265625 
Q 36.765625 34.90625 28.71875 34.90625 
L 20.21875 34.90625 
L 20.21875 43.015625 
L 29.109375 43.015625 
Q 36.375 43.015625 40.234375 45.921875 
Q 44.09375 48.828125 44.09375 54.296875 
Q 44.09375 59.90625 40.109375 62.90625 
Q 36.140625 65.921875 28.71875 65.921875 
Q 24.65625 65.921875 20.015625 65.03125 
Q 15.375 64.15625 9.8125 62.3125 
L 9.8125 71.09375 
Q 15.4375 72.65625 20.34375 73.4375 
Q 25.25 74.21875 29.59375 74.21875 
Q 40.828125 74.21875 47.359375 69.109375 
Q 53.90625 64.015625 53.90625 55.328125 
Q 53.90625 49.265625 50.4375 45.09375 
Q 46.96875 40.921875 40.578125 39.3125 
z
" id="DejaVuSans-51"/>
    </defs>
    <g transform="translate(215.424375 49.296)scale(0.12 -0.12)">
     <use xlink:href="#DejaVuSans-116"/>
     <use x="39.208984" xlink:href="#DejaVuSans-32"/>
     <use x="70.996094" xlink:href="#DejaVuSans-61"/>
     <use x="154.785156" xlink:href="#DejaVuSans-32"/>
     <use x="186.572266" xlink:href="#DejaVuSans-52"/>
     <use x="250.195312" xlink:href="#DejaVuSans-46"/>
     <use x="281.982422" xlink:href="#DejaVuSans-51"/>
    </g>
   </g>
  </g>
 </g>
 <defs>
  <clipPath id="p285759daec">
   <rect height="354.816" width="357.12" x="57.6" y="55.296"/>
  </clipPath>
 </defs>
</svg>
