<?xml version="1.0" encoding="utf-8" standalone="no"?>
<!DOCTYPE svg PUBLIC "-//W3C//DTD SVG 1.1//EN"
  "http://www.w3.org/Graphics/SVG/1.1/DTD/svg11.dtd">
<!-- Created with matplotlib (https://matplotlib.org/) -->
<svg height="460.8pt" version="1.1" viewBox="0 0 460.8 460.8" width="460.8pt" xmlns="http://www.w3.org/2000/svg" xmlns:xlink="http://www.w3.org/1999/xlink">
 <defs>
  <style type="text/css">
*{stroke-linecap:butt;stroke-linejoin:round;}
  </style>
 </defs>
 <g id="figure_1">
  <g id="patch_1">
   <path d="M 0 460.8 
L 460.8 460.8 
L 460.8 0 
L 0 0 
z
" style="fill:#ffffff;"/>
  </g>
  <g id="axes_1">
   <g id="patch_2">
    <path clip-path="url(#p339f9b425d)" d="M 215.030071 356.598485 
L 215.263617 358.379744 
L 215.878683 359.636657 
L 216.932573 361.057714 
L 218.064902 361.894784 
L 219.681106 362.607713 
L 221.053465 362.819996 
L 222.83628 362.650248 
L 224.112667 362.18577 
L 225.625599 361.174905 
L 226.49351 360.147386 
L 227.366139 358.5429 
L 227.61308 357.203912 
L 227.631756 355.398638 
L 227.197266 354.076013 
L 226.357417 352.511946 
L 225.347876 351.529508 
L 223.855126 350.589585 
L 222.517703 350.18787 
L 220.73753 350.102217 
L 218.987755 350.523967 
L 217.798384 351.166267 
L 216.434551 352.378174 
L 215.726835 353.524118 
L 215.082858 355.229465 
L 215.082858 355.229465 
L 215.082858 355.229465 
L 215.082858 355.229465 
L 215.082858 355.229465 
L 215.082858 355.229465 
L 215.082858 355.229465 
L 215.082858 355.229465 
L 215.082858 355.229465 
L 215.082858 355.229465 
L 215.082858 355.229465 
L 215.082858 355.229465 
L 215.082858 355.229465 
L 215.082858 355.229465 
L 215.082858 355.229465 
L 215.082858 355.229465 
L 215.082858 355.229465 
L 215.082858 355.229465 
L 215.082858 355.229465 
L 215.082858 355.229465 
L 215.082858 355.229465 
L 215.082858 355.229465 
L 215.082858 355.229465 
L 215.082858 355.229465 
L 215.082858 355.229465 
L 215.082858 355.229465 
L 215.082858 355.229465 
L 215.082858 355.229465 
L 215.082858 355.229465 
L 215.082858 355.229465 
L 215.082858 355.229465 
L 215.082858 355.229465 
L 215.082858 355.229465 
L 215.082858 355.229465 
L 215.082858 355.229465 
L 215.082858 355.229465 
L 215.082858 355.229465 
L 215.082858 355.229465 
L 215.082858 355.229465 
L 215.082858 355.229465 
L 215.082858 355.229465 
L 215.082858 355.229465 
L 215.082858 355.229465 
L 215.082858 355.229465 
L 215.082858 355.229465 
L 215.082858 355.229465 
L 215.082858 355.229465 
L 215.082858 355.229465 
L 215.082858 355.229465 
L 215.082858 355.229465 
L 215.082858 355.229465 
L 215.082858 355.229465 
L 215.082858 355.229465 
L 215.082858 355.229465 
L 215.082858 355.229465 
L 215.082858 355.229465 
L 215.082858 355.229465 
L 215.082858 355.229465 
L 215.082858 355.229465 
L 215.082858 355.229465 
L 215.082858 355.229465 
L 215.082858 355.229465 
L 215.082858 355.229465 
L 215.082858 355.229465 
L 215.082858 355.229465 
L 215.082858 355.229465 
L 215.082858 355.229465 
L 215.082858 355.229465 
L 215.082858 355.229465 
L 215.082858 355.229465 
L 215.082858 355.229465 
L 215.082858 355.229465 
L 215.082858 355.229465 
L 215.082858 355.229465 
L 215.082858 355.229465 
L 215.082858 355.229465 
L 215.082858 355.229465 
L 215.082858 355.229465 
L 215.082858 355.229465 
L 215.082858 355.229465 
L 215.082858 355.229465 
L 215.082858 355.229465 
L 215.082858 355.229465 
L 215.082858 355.229465 
L 215.082858 355.229465 
L 215.082858 355.229465 
L 215.082858 355.229465 
L 215.082858 355.229465 
L 215.082858 355.229465 
L 215.082858 355.229465 
L 215.082858 355.229465 
L 215.082858 355.229465 
L 215.082858 355.229465 
L 215.082858 355.229465 
L 215.082858 355.229465 
L 215.082858 355.229465 
L 215.082858 355.229465 
L 215.082858 355.229465 
L 215.082858 355.229465 
L 215.082858 355.229465 
L 215.082858 355.229465 
L 215.082858 355.229465 
L 215.082858 355.229465 
L 215.082858 355.229465 
L 215.082858 355.229465 
L 215.082858 355.229465 
L 215.082858 355.229465 
L 215.082858 355.229465 
L 215.082858 355.229465 
L 215.082858 355.229465 
L 215.082858 355.229465 
L 215.082858 355.229465 
L 215.082858 355.229465 
L 215.082858 355.229465 
L 215.082858 355.229465 
L 215.082858 355.229465 
L 215.082858 355.229465 
L 215.082858 355.229465 
L 215.082858 355.229465 
L 215.082858 355.229465 
L 215.082858 355.229465 
L 215.082858 355.229465 
L 215.082858 355.229465 
L 215.082858 355.229465 
L 215.082858 355.229465 
L 215.082858 355.229465 
L 215.082858 355.229465 
L 215.082858 355.229465 
L 215.082858 355.229465 
L 215.082858 355.229465 
L 215.082858 355.229465 
L 215.082858 355.229465 
L 215.082858 355.229465 
L 215.082858 355.229465 
L 215.082858 355.229465 
L 215.082858 355.229465 
L 215.082858 355.229465 
L 215.082858 355.229465 
L 215.082858 355.229465 
L 215.082858 355.229465 
L 215.082858 355.229465 
L 215.082858 355.229465 
L 215.082858 355.229465 
L 215.082858 355.229465 
L 215.082858 355.229465 
z
" style="fill:#993333;stroke:#000000;stroke-linejoin:miter;"/>
   </g>
   <g id="patch_3">
    <path clip-path="url(#p339f9b425d)" d="M 214.666321 293.026422 
L 220.710868 356.51074 
L 221.976827 356.390204 
L 215.932281 292.905886 
L 215.932281 292.905886 
L 215.932281 292.905886 
L 215.932281 292.905886 
L 215.932281 292.905886 
L 215.932281 292.905886 
L 215.932281 292.905886 
L 215.932281 292.905886 
L 215.932281 292.905886 
L 215.932281 292.905886 
L 215.932281 292.905886 
L 215.932281 292.905886 
L 215.932281 292.905886 
L 215.932281 292.905886 
L 215.932281 292.905886 
L 215.932281 292.905886 
L 215.932281 292.905886 
L 215.932281 292.905886 
L 215.932281 292.905886 
L 215.932281 292.905886 
L 215.932281 292.905886 
L 215.932281 292.905886 
L 215.932281 292.905886 
L 215.932281 292.905886 
L 215.932281 292.905886 
L 215.932281 292.905886 
L 215.932281 292.905886 
L 215.932281 292.905886 
L 215.932281 292.905886 
L 215.932281 292.905886 
L 215.932281 292.905886 
L 215.932281 292.905886 
L 215.932281 292.905886 
L 215.932281 292.905886 
L 215.932281 292.905886 
L 215.932281 292.905886 
L 215.932281 292.905886 
L 215.932281 292.905886 
L 215.932281 292.905886 
L 215.932281 292.905886 
L 215.932281 292.905886 
L 215.932281 292.905886 
L 215.932281 292.905886 
L 215.932281 292.905886 
L 215.932281 292.905886 
L 215.932281 292.905886 
L 215.932281 292.905886 
L 215.932281 292.905886 
L 215.932281 292.905886 
z
" style="stroke:#000000;stroke-linejoin:miter;"/>
   </g>
   <g id="patch_4">
    <path clip-path="url(#p339f9b425d)" d="M 221.456151 294.621083 
L 221.610101 293.237458 
L 221.495547 291.465868 
L 220.985106 290.15293 
L 220.01743 288.678019 
L 218.967571 287.75722 
L 217.383694 286.940098 
L 215.616776 286.597189 
L 214.268083 286.687619 
L 212.524154 287.223784 
L 211.404493 287.972388 
L 210.110528 289.256355 
L 209.494033 290.479848 
L 208.966839 292.197258 
L 209.004448 293.596086 
L 209.373101 295.326457 
L 210.055607 296.558139 
L 211.229848 297.877814 
L 212.390148 298.640791 
L 214.082482 299.22667 
L 215.436496 299.334138 
L 217.23258 299.042776 
L 218.448797 298.468424 
L 219.908887 297.371157 
L 220.689536 296.255605 
L 220.689536 296.255605 
L 220.689536 296.255605 
L 220.689536 296.255605 
L 220.689536 296.255605 
L 220.689536 296.255605 
L 220.689536 296.255605 
L 220.689536 296.255605 
L 220.689536 296.255605 
L 220.689536 296.255605 
L 220.689536 296.255605 
L 220.689536 296.255605 
L 220.689536 296.255605 
L 220.689536 296.255605 
L 220.689536 296.255605 
L 220.689536 296.255605 
L 220.689536 296.255605 
L 220.689536 296.255605 
L 220.689536 296.255605 
L 220.689536 296.255605 
L 220.689536 296.255605 
L 220.689536 296.255605 
L 220.689536 296.255605 
L 220.689536 296.255605 
L 220.689536 296.255605 
L 220.689536 296.255605 
L 220.689536 296.255605 
L 220.689536 296.255605 
L 220.689536 296.255605 
L 220.689536 296.255605 
L 220.689536 296.255605 
L 220.689536 296.255605 
L 220.689536 296.255605 
L 220.689536 296.255605 
L 220.689536 296.255605 
L 220.689536 296.255605 
L 220.689536 296.255605 
L 220.689536 296.255605 
L 220.689536 296.255605 
L 220.689536 296.255605 
L 220.689536 296.255605 
L 220.689536 296.255605 
L 220.689536 296.255605 
L 220.689536 296.255605 
L 220.689536 296.255605 
L 220.689536 296.255605 
L 220.689536 296.255605 
L 220.689536 296.255605 
L 220.689536 296.255605 
L 220.689536 296.255605 
L 220.689536 296.255605 
L 220.689536 296.255605 
L 220.689536 296.255605 
L 220.689536 296.255605 
L 220.689536 296.255605 
L 220.689536 296.255605 
L 220.689536 296.255605 
L 220.689536 296.255605 
L 220.689536 296.255605 
L 220.689536 296.255605 
L 220.689536 296.255605 
L 220.689536 296.255605 
L 220.689536 296.255605 
L 220.689536 296.255605 
L 220.689536 296.255605 
L 220.689536 296.255605 
L 220.689536 296.255605 
L 220.689536 296.255605 
L 220.689536 296.255605 
L 220.689536 296.255605 
L 220.689536 296.255605 
L 220.689536 296.255605 
L 220.689536 296.255605 
L 220.689536 296.255605 
L 220.689536 296.255605 
L 220.689536 296.255605 
L 220.689536 296.255605 
L 220.689536 296.255605 
L 220.689536 296.255605 
L 220.689536 296.255605 
L 220.689536 296.255605 
L 220.689536 296.255605 
L 220.689536 296.255605 
L 220.689536 296.255605 
L 220.689536 296.255605 
L 220.689536 296.255605 
L 220.689536 296.255605 
L 220.689536 296.255605 
L 220.689536 296.255605 
L 220.689536 296.255605 
L 220.689536 296.255605 
L 220.689536 296.255605 
L 220.689536 296.255605 
L 220.689536 296.255605 
L 220.689536 296.255605 
L 220.689536 296.255605 
L 220.689536 296.255605 
L 220.689536 296.255605 
L 220.689536 296.255605 
L 220.689536 296.255605 
L 220.689536 296.255605 
L 220.689536 296.255605 
L 220.689536 296.255605 
L 220.689536 296.255605 
L 220.689536 296.255605 
L 220.689536 296.255605 
L 220.689536 296.255605 
L 220.689536 296.255605 
L 220.689536 296.255605 
L 220.689536 296.255605 
L 220.689536 296.255605 
L 220.689536 296.255605 
L 220.689536 296.255605 
L 220.689536 296.255605 
L 220.689536 296.255605 
L 220.689536 296.255605 
L 220.689536 296.255605 
L 220.689536 296.255605 
L 220.689536 296.255605 
L 220.689536 296.255605 
L 220.689536 296.255605 
L 220.689536 296.255605 
L 220.689536 296.255605 
L 220.689536 296.255605 
L 220.689536 296.255605 
L 220.689536 296.255605 
L 220.689536 296.255605 
L 220.689536 296.255605 
L 220.689536 296.255605 
L 220.689536 296.255605 
L 220.689536 296.255605 
L 220.689536 296.255605 
L 220.689536 296.255605 
L 220.689536 296.255605 
L 220.689536 296.255605 
L 220.689536 296.255605 
L 220.689536 296.255605 
L 220.689536 296.255605 
L 220.689536 296.255605 
L 220.689536 296.255605 
L 220.689536 296.255605 
L 220.689536 296.255605 
L 220.689536 296.255605 
L 220.689536 296.255605 
L 220.689536 296.255605 
z
" style="fill:#993333;stroke:#000000;stroke-linejoin:miter;"/>
   </g>
   <g id="patch_5">
    <path clip-path="url(#p339f9b425d)" d="M 214.698352 292.758931 
L 215.900061 293.174957 
L 236.762623 232.912626 
L 235.560914 232.496599 
L 235.560914 232.496599 
L 235.560914 232.496599 
L 235.560914 232.496599 
L 235.560914 232.496599 
L 235.560914 232.496599 
L 235.560914 232.496599 
L 235.560914 232.496599 
L 235.560914 232.496599 
L 235.560914 232.496599 
L 235.560914 232.496599 
L 235.560914 232.496599 
L 235.560914 232.496599 
L 235.560914 232.496599 
L 235.560914 232.496599 
L 235.560914 232.496599 
L 235.560914 232.496599 
L 235.560914 232.496599 
L 235.560914 232.496599 
L 235.560914 232.496599 
L 235.560914 232.496599 
L 235.560914 232.496599 
L 235.560914 232.496599 
L 235.560914 232.496599 
L 235.560914 232.496599 
L 235.560914 232.496599 
L 235.560914 232.496599 
L 235.560914 232.496599 
L 235.560914 232.496599 
L 235.560914 232.496599 
L 235.560914 232.496599 
L 235.560914 232.496599 
L 235.560914 232.496599 
L 235.560914 232.496599 
L 235.560914 232.496599 
L 235.560914 232.496599 
L 235.560914 232.496599 
L 235.560914 232.496599 
L 235.560914 232.496599 
L 235.560914 232.496599 
L 235.560914 232.496599 
L 235.560914 232.496599 
L 235.560914 232.496599 
L 235.560914 232.496599 
L 235.560914 232.496599 
L 235.560914 232.496599 
L 235.560914 232.496599 
L 235.560914 232.496599 
L 235.560914 232.496599 
z
" style="stroke:#000000;stroke-linejoin:miter;"/>
   </g>
   <g id="text_1">
    <!-- t = 0.7 -->
    <defs>
     <path d="M 18.3125 70.21875 
L 18.3125 54.6875 
L 36.8125 54.6875 
L 36.8125 47.703125 
L 18.3125 47.703125 
L 18.3125 18.015625 
Q 18.3125 11.328125 20.140625 9.421875 
Q 21.96875 7.515625 27.59375 7.515625 
L 36.8125 7.515625 
L 36.8125 0 
L 27.59375 0 
Q 17.1875 0 13.234375 3.875 
Q 9.28125 7.765625 9.28125 18.015625 
L 9.28125 47.703125 
L 2.6875 47.703125 
L 2.6875 54.6875 
L 9.28125 54.6875 
L 9.28125 70.21875 
z
" id="DejaVuSans-116"/>
     <path id="DejaVuSans-32"/>
     <path d="M 10.59375 45.40625 
L 73.1875 45.40625 
L 73.1875 37.203125 
L 10.59375 37.203125 
z
M 10.59375 25.484375 
L 73.1875 25.484375 
L 73.1875 17.1875 
L 10.59375 17.1875 
z
" id="DejaVuSans-61"/>
     <path d="M 31.78125 66.40625 
Q 24.171875 66.40625 20.328125 58.90625 
Q 16.5 51.421875 16.5 36.375 
Q 16.5 21.390625 20.328125 13.890625 
Q 24.171875 6.390625 31.78125 6.390625 
Q 39.453125 6.390625 43.28125 13.890625 
Q 47.125 21.390625 47.125 36.375 
Q 47.125 51.421875 43.28125 58.90625 
Q 39.453125 66.40625 31.78125 66.40625 
z
M 31.78125 74.21875 
Q 44.046875 74.21875 50.515625 64.515625 
Q 56.984375 54.828125 56.984375 36.375 
Q 56.984375 17.96875 50.515625 8.265625 
Q 44.046875 -1.421875 31.78125 -1.421875 
Q 19.53125 -1.421875 13.0625 8.265625 
Q 6.59375 17.96875 6.59375 36.375 
Q 6.59375 54.828125 13.0625 64.515625 
Q 19.53125 74.21875 31.78125 74.21875 
z
" id="DejaVuSans-48"/>
     <path d="M 10.6875 12.40625 
L 21 12.40625 
L 21 0 
L 10.6875 0 
z
" id="DejaVuSans-46"/>
     <path d="M 8.203125 72.90625 
L 55.078125 72.90625 
L 55.078125 68.703125 
L 28.609375 0 
L 18.3125 0 
L 43.21875 64.59375 
L 8.203125 64.59375 
z
" id="DejaVuSans-55"/>
    </defs>
    <g transform="translate(215.424375 49.296)scale(0.12 -0.12)">
     <use xlink:href="#DejaVuSans-116"/>
     <use x="39.208984" xlink:href="#DejaVuSans-32"/>
     <use x="70.996094" xlink:href="#DejaVuSans-61"/>
     <use x="154.785156" xlink:href="#DejaVuSans-32"/>
     <use x="186.572266" xlink:href="#DejaVuSans-48"/>
     <use x="250.195312" xlink:href="#DejaVuSans-46"/>
     <use x="281.982422" xlink:href="#DejaVuSans-55"/>
    </g>
   </g>
  </g>
 </g>
 <defs>
  <clipPath id="p339f9b425d">
   <rect height="354.816" width="357.12" x="57.6" y="55.296"/>
  </clipPath>
 </defs>
</svg>
