<?xml version="1.0" encoding="utf-8" standalone="no"?>
<!DOCTYPE svg PUBLIC "-//W3C//DTD SVG 1.1//EN"
  "http://www.w3.org/Graphics/SVG/1.1/DTD/svg11.dtd">
<!-- Created with matplotlib (https://matplotlib.org/) -->
<svg height="460.8pt" version="1.1" viewBox="0 0 460.8 460.8" width="460.8pt" xmlns="http://www.w3.org/2000/svg" xmlns:xlink="http://www.w3.org/1999/xlink">
 <defs>
  <style type="text/css">
*{stroke-linecap:butt;stroke-linejoin:round;}
  </style>
 </defs>
 <g id="figure_1">
  <g id="patch_1">
   <path d="M 0 460.8 
L 460.8 460.8 
L 460.8 0 
L 0 0 
z
" style="fill:#ffffff;"/>
  </g>
  <g id="axes_1">
   <g id="patch_2">
    <path clip-path="url(#p8cfb179eb1)" d="M 212.930569 357.781702 
L 213.092424 356.398979 
L 212.987997 354.626763 
L 212.485068 353.310929 
L 211.525838 351.830512 
L 210.481259 350.903728 
L 208.902077 350.077567 
L 207.137148 349.724565 
L 205.78796 349.807286 
L 204.040995 350.333475 
L 202.917075 351.075668 
L 201.615793 352.352218 
L 200.992314 353.572168 
L 200.455314 355.286536 
L 200.484927 356.685557 
L 200.843685 358.418006 
L 201.51914 359.653569 
L 202.685819 360.979934 
L 203.84174 361.74953 
L 205.530698 362.345071 
L 206.884076 362.460276 
L 208.681795 362.179184 
L 209.901276 361.611792 
L 211.367613 360.522888 
L 212.154624 359.411816 
L 212.154624 359.411816 
L 212.154624 359.411816 
L 212.154624 359.411816 
L 212.154624 359.411816 
L 212.154624 359.411816 
L 212.154624 359.411816 
L 212.154624 359.411816 
L 212.154624 359.411816 
L 212.154624 359.411816 
L 212.154624 359.411816 
L 212.154624 359.411816 
L 212.154624 359.411816 
L 212.154624 359.411816 
L 212.154624 359.411816 
L 212.154624 359.411816 
L 212.154624 359.411816 
L 212.154624 359.411816 
L 212.154624 359.411816 
L 212.154624 359.411816 
L 212.154624 359.411816 
L 212.154624 359.411816 
L 212.154624 359.411816 
L 212.154624 359.411816 
L 212.154624 359.411816 
L 212.154624 359.411816 
L 212.154624 359.411816 
L 212.154624 359.411816 
L 212.154624 359.411816 
L 212.154624 359.411816 
L 212.154624 359.411816 
L 212.154624 359.411816 
L 212.154624 359.411816 
L 212.154624 359.411816 
L 212.154624 359.411816 
L 212.154624 359.411816 
L 212.154624 359.411816 
L 212.154624 359.411816 
L 212.154624 359.411816 
L 212.154624 359.411816 
L 212.154624 359.411816 
L 212.154624 359.411816 
L 212.154624 359.411816 
L 212.154624 359.411816 
L 212.154624 359.411816 
L 212.154624 359.411816 
L 212.154624 359.411816 
L 212.154624 359.411816 
L 212.154624 359.411816 
L 212.154624 359.411816 
L 212.154624 359.411816 
L 212.154624 359.411816 
L 212.154624 359.411816 
L 212.154624 359.411816 
L 212.154624 359.411816 
L 212.154624 359.411816 
L 212.154624 359.411816 
L 212.154624 359.411816 
L 212.154624 359.411816 
L 212.154624 359.411816 
L 212.154624 359.411816 
L 212.154624 359.411816 
L 212.154624 359.411816 
L 212.154624 359.411816 
L 212.154624 359.411816 
L 212.154624 359.411816 
L 212.154624 359.411816 
L 212.154624 359.411816 
L 212.154624 359.411816 
L 212.154624 359.411816 
L 212.154624 359.411816 
L 212.154624 359.411816 
L 212.154624 359.411816 
L 212.154624 359.411816 
L 212.154624 359.411816 
L 212.154624 359.411816 
L 212.154624 359.411816 
L 212.154624 359.411816 
L 212.154624 359.411816 
L 212.154624 359.411816 
L 212.154624 359.411816 
L 212.154624 359.411816 
L 212.154624 359.411816 
L 212.154624 359.411816 
L 212.154624 359.411816 
L 212.154624 359.411816 
L 212.154624 359.411816 
L 212.154624 359.411816 
L 212.154624 359.411816 
L 212.154624 359.411816 
L 212.154624 359.411816 
L 212.154624 359.411816 
L 212.154624 359.411816 
L 212.154624 359.411816 
L 212.154624 359.411816 
L 212.154624 359.411816 
L 212.154624 359.411816 
L 212.154624 359.411816 
L 212.154624 359.411816 
L 212.154624 359.411816 
L 212.154624 359.411816 
L 212.154624 359.411816 
L 212.154624 359.411816 
L 212.154624 359.411816 
L 212.154624 359.411816 
L 212.154624 359.411816 
L 212.154624 359.411816 
L 212.154624 359.411816 
L 212.154624 359.411816 
L 212.154624 359.411816 
L 212.154624 359.411816 
L 212.154624 359.411816 
L 212.154624 359.411816 
L 212.154624 359.411816 
L 212.154624 359.411816 
L 212.154624 359.411816 
L 212.154624 359.411816 
L 212.154624 359.411816 
L 212.154624 359.411816 
L 212.154624 359.411816 
L 212.154624 359.411816 
L 212.154624 359.411816 
L 212.154624 359.411816 
L 212.154624 359.411816 
L 212.154624 359.411816 
L 212.154624 359.411816 
L 212.154624 359.411816 
L 212.154624 359.411816 
L 212.154624 359.411816 
L 212.154624 359.411816 
L 212.154624 359.411816 
L 212.154624 359.411816 
L 212.154624 359.411816 
L 212.154624 359.411816 
L 212.154624 359.411816 
L 212.154624 359.411816 
L 212.154624 359.411816 
L 212.154624 359.411816 
L 212.154624 359.411816 
L 212.154624 359.411816 
L 212.154624 359.411816 
L 212.154624 359.411816 
L 212.154624 359.411816 
L 212.154624 359.411816 
L 212.154624 359.411816 
z
" style="fill:#993333;stroke:#000000;stroke-linejoin:miter;"/>
   </g>
   <g id="patch_3">
    <path clip-path="url(#p8cfb179eb1)" d="M 227.39016 295.738845 
L 206.183523 355.880957 
L 207.382835 356.303845 
L 228.589472 296.161733 
L 228.589472 296.161733 
L 228.589472 296.161733 
L 228.589472 296.161733 
L 228.589472 296.161733 
L 228.589472 296.161733 
L 228.589472 296.161733 
L 228.589472 296.161733 
L 228.589472 296.161733 
L 228.589472 296.161733 
L 228.589472 296.161733 
L 228.589472 296.161733 
L 228.589472 296.161733 
L 228.589472 296.161733 
L 228.589472 296.161733 
L 228.589472 296.161733 
L 228.589472 296.161733 
L 228.589472 296.161733 
L 228.589472 296.161733 
L 228.589472 296.161733 
L 228.589472 296.161733 
L 228.589472 296.161733 
L 228.589472 296.161733 
L 228.589472 296.161733 
L 228.589472 296.161733 
L 228.589472 296.161733 
L 228.589472 296.161733 
L 228.589472 296.161733 
L 228.589472 296.161733 
L 228.589472 296.161733 
L 228.589472 296.161733 
L 228.589472 296.161733 
L 228.589472 296.161733 
L 228.589472 296.161733 
L 228.589472 296.161733 
L 228.589472 296.161733 
L 228.589472 296.161733 
L 228.589472 296.161733 
L 228.589472 296.161733 
L 228.589472 296.161733 
L 228.589472 296.161733 
L 228.589472 296.161733 
L 228.589472 296.161733 
L 228.589472 296.161733 
L 228.589472 296.161733 
L 228.589472 296.161733 
L 228.589472 296.161733 
L 228.589472 296.161733 
L 228.589472 296.161733 
z
" style="stroke:#000000;stroke-linejoin:miter;"/>
   </g>
   <g id="patch_4">
    <path clip-path="url(#p8cfb179eb1)" d="M 228.805246 289.6251 
L 227.005515 289.648669 
L 225.703392 290.011474 
L 224.104935 290.891073 
L 223.160903 291.851724 
L 222.155078 293.371998 
L 221.800268 294.695294 
L 221.633335 296.484026 
L 221.954618 297.845978 
L 222.667449 299.465224 
L 223.586162 300.532379 
L 225.004231 301.585691 
L 226.295443 302.096772 
L 228.071557 302.326263 
L 229.419133 302.156139 
L 231.118437 301.505621 
L 232.192444 300.695945 
L 233.39889 299.324688 
L 233.936373 298.073697 
L 234.354581 296.317432 
L 234.223945 294.931412 
L 233.751523 293.220134 
L 232.984753 292.038431 
L 231.737366 290.791121 
L 230.522194 290.103057 
L 230.522194 290.103057 
L 230.522194 290.103057 
L 230.522194 290.103057 
L 230.522194 290.103057 
L 230.522194 290.103057 
L 230.522194 290.103057 
L 230.522194 290.103057 
L 230.522194 290.103057 
L 230.522194 290.103057 
L 230.522194 290.103057 
L 230.522194 290.103057 
L 230.522194 290.103057 
L 230.522194 290.103057 
L 230.522194 290.103057 
L 230.522194 290.103057 
L 230.522194 290.103057 
L 230.522194 290.103057 
L 230.522194 290.103057 
L 230.522194 290.103057 
L 230.522194 290.103057 
L 230.522194 290.103057 
L 230.522194 290.103057 
L 230.522194 290.103057 
L 230.522194 290.103057 
L 230.522194 290.103057 
L 230.522194 290.103057 
L 230.522194 290.103057 
L 230.522194 290.103057 
L 230.522194 290.103057 
L 230.522194 290.103057 
L 230.522194 290.103057 
L 230.522194 290.103057 
L 230.522194 290.103057 
L 230.522194 290.103057 
L 230.522194 290.103057 
L 230.522194 290.103057 
L 230.522194 290.103057 
L 230.522194 290.103057 
L 230.522194 290.103057 
L 230.522194 290.103057 
L 230.522194 290.103057 
L 230.522194 290.103057 
L 230.522194 290.103057 
L 230.522194 290.103057 
L 230.522194 290.103057 
L 230.522194 290.103057 
L 230.522194 290.103057 
L 230.522194 290.103057 
L 230.522194 290.103057 
L 230.522194 290.103057 
L 230.522194 290.103057 
L 230.522194 290.103057 
L 230.522194 290.103057 
L 230.522194 290.103057 
L 230.522194 290.103057 
L 230.522194 290.103057 
L 230.522194 290.103057 
L 230.522194 290.103057 
L 230.522194 290.103057 
L 230.522194 290.103057 
L 230.522194 290.103057 
L 230.522194 290.103057 
L 230.522194 290.103057 
L 230.522194 290.103057 
L 230.522194 290.103057 
L 230.522194 290.103057 
L 230.522194 290.103057 
L 230.522194 290.103057 
L 230.522194 290.103057 
L 230.522194 290.103057 
L 230.522194 290.103057 
L 230.522194 290.103057 
L 230.522194 290.103057 
L 230.522194 290.103057 
L 230.522194 290.103057 
L 230.522194 290.103057 
L 230.522194 290.103057 
L 230.522194 290.103057 
L 230.522194 290.103057 
L 230.522194 290.103057 
L 230.522194 290.103057 
L 230.522194 290.103057 
L 230.522194 290.103057 
L 230.522194 290.103057 
L 230.522194 290.103057 
L 230.522194 290.103057 
L 230.522194 290.103057 
L 230.522194 290.103057 
L 230.522194 290.103057 
L 230.522194 290.103057 
L 230.522194 290.103057 
L 230.522194 290.103057 
L 230.522194 290.103057 
L 230.522194 290.103057 
L 230.522194 290.103057 
L 230.522194 290.103057 
L 230.522194 290.103057 
L 230.522194 290.103057 
L 230.522194 290.103057 
L 230.522194 290.103057 
L 230.522194 290.103057 
L 230.522194 290.103057 
L 230.522194 290.103057 
L 230.522194 290.103057 
L 230.522194 290.103057 
L 230.522194 290.103057 
L 230.522194 290.103057 
L 230.522194 290.103057 
L 230.522194 290.103057 
L 230.522194 290.103057 
L 230.522194 290.103057 
L 230.522194 290.103057 
L 230.522194 290.103057 
L 230.522194 290.103057 
L 230.522194 290.103057 
L 230.522194 290.103057 
L 230.522194 290.103057 
L 230.522194 290.103057 
L 230.522194 290.103057 
L 230.522194 290.103057 
L 230.522194 290.103057 
L 230.522194 290.103057 
L 230.522194 290.103057 
L 230.522194 290.103057 
L 230.522194 290.103057 
L 230.522194 290.103057 
L 230.522194 290.103057 
L 230.522194 290.103057 
L 230.522194 290.103057 
L 230.522194 290.103057 
L 230.522194 290.103057 
L 230.522194 290.103057 
L 230.522194 290.103057 
L 230.522194 290.103057 
L 230.522194 290.103057 
L 230.522194 290.103057 
L 230.522194 290.103057 
L 230.522194 290.103057 
L 230.522194 290.103057 
L 230.522194 290.103057 
L 230.522194 290.103057 
L 230.522194 290.103057 
L 230.522194 290.103057 
L 230.522194 290.103057 
z
" style="fill:#993333;stroke:#000000;stroke-linejoin:miter;"/>
   </g>
   <g id="patch_5">
    <path clip-path="url(#p8cfb179eb1)" d="M 235.531256 232.62276 
L 227.359307 295.868427 
L 228.620507 296.031386 
L 236.792457 232.785719 
L 236.792457 232.785719 
L 236.792457 232.785719 
L 236.792457 232.785719 
L 236.792457 232.785719 
L 236.792457 232.785719 
L 236.792457 232.785719 
L 236.792457 232.785719 
L 236.792457 232.785719 
L 236.792457 232.785719 
L 236.792457 232.785719 
L 236.792457 232.785719 
L 236.792457 232.785719 
L 236.792457 232.785719 
L 236.792457 232.785719 
L 236.792457 232.785719 
L 236.792457 232.785719 
L 236.792457 232.785719 
L 236.792457 232.785719 
L 236.792457 232.785719 
L 236.792457 232.785719 
L 236.792457 232.785719 
L 236.792457 232.785719 
L 236.792457 232.785719 
L 236.792457 232.785719 
L 236.792457 232.785719 
L 236.792457 232.785719 
L 236.792457 232.785719 
L 236.792457 232.785719 
L 236.792457 232.785719 
L 236.792457 232.785719 
L 236.792457 232.785719 
L 236.792457 232.785719 
L 236.792457 232.785719 
L 236.792457 232.785719 
L 236.792457 232.785719 
L 236.792457 232.785719 
L 236.792457 232.785719 
L 236.792457 232.785719 
L 236.792457 232.785719 
L 236.792457 232.785719 
L 236.792457 232.785719 
L 236.792457 232.785719 
L 236.792457 232.785719 
L 236.792457 232.785719 
L 236.792457 232.785719 
L 236.792457 232.785719 
L 236.792457 232.785719 
L 236.792457 232.785719 
z
" style="stroke:#000000;stroke-linejoin:miter;"/>
   </g>
   <g id="text_1">
    <!-- t = 9.1 -->
    <defs>
     <path d="M 18.3125 70.21875 
L 18.3125 54.6875 
L 36.8125 54.6875 
L 36.8125 47.703125 
L 18.3125 47.703125 
L 18.3125 18.015625 
Q 18.3125 11.328125 20.140625 9.421875 
Q 21.96875 7.515625 27.59375 7.515625 
L 36.8125 7.515625 
L 36.8125 0 
L 27.59375 0 
Q 17.1875 0 13.234375 3.875 
Q 9.28125 7.765625 9.28125 18.015625 
L 9.28125 47.703125 
L 2.6875 47.703125 
L 2.6875 54.6875 
L 9.28125 54.6875 
L 9.28125 70.21875 
z
" id="DejaVuSans-116"/>
     <path id="DejaVuSans-32"/>
     <path d="M 10.59375 45.40625 
L 73.1875 45.40625 
L 73.1875 37.203125 
L 10.59375 37.203125 
z
M 10.59375 25.484375 
L 73.1875 25.484375 
L 73.1875 17.1875 
L 10.59375 17.1875 
z
" id="DejaVuSans-61"/>
     <path d="M 10.984375 1.515625 
L 10.984375 10.5 
Q 14.703125 8.734375 18.5 7.8125 
Q 22.3125 6.890625 25.984375 6.890625 
Q 35.75 6.890625 40.890625 13.453125 
Q 46.046875 20.015625 46.78125 33.40625 
Q 43.953125 29.203125 39.59375 26.953125 
Q 35.25 24.703125 29.984375 24.703125 
Q 19.046875 24.703125 12.671875 31.3125 
Q 6.296875 37.9375 6.296875 49.421875 
Q 6.296875 60.640625 12.9375 67.421875 
Q 19.578125 74.21875 30.609375 74.21875 
Q 43.265625 74.21875 49.921875 64.515625 
Q 56.59375 54.828125 56.59375 36.375 
Q 56.59375 19.140625 48.40625 8.859375 
Q 40.234375 -1.421875 26.421875 -1.421875 
Q 22.703125 -1.421875 18.890625 -0.6875 
Q 15.09375 0.046875 10.984375 1.515625 
z
M 30.609375 32.421875 
Q 37.25 32.421875 41.125 36.953125 
Q 45.015625 41.5 45.015625 49.421875 
Q 45.015625 57.28125 41.125 61.84375 
Q 37.25 66.40625 30.609375 66.40625 
Q 23.96875 66.40625 20.09375 61.84375 
Q 16.21875 57.28125 16.21875 49.421875 
Q 16.21875 41.5 20.09375 36.953125 
Q 23.96875 32.421875 30.609375 32.421875 
z
" id="DejaVuSans-57"/>
     <path d="M 10.6875 12.40625 
L 21 12.40625 
L 21 0 
L 10.6875 0 
z
" id="DejaVuSans-46"/>
     <path d="M 12.40625 8.296875 
L 28.515625 8.296875 
L 28.515625 63.921875 
L 10.984375 60.40625 
L 10.984375 69.390625 
L 28.421875 72.90625 
L 38.28125 72.90625 
L 38.28125 8.296875 
L 54.390625 8.296875 
L 54.390625 0 
L 12.40625 0 
z
" id="DejaVuSans-49"/>
    </defs>
    <g transform="translate(215.424375 49.296)scale(0.12 -0.12)">
     <use xlink:href="#DejaVuSans-116"/>
     <use x="39.208984" xlink:href="#DejaVuSans-32"/>
     <use x="70.996094" xlink:href="#DejaVuSans-61"/>
     <use x="154.785156" xlink:href="#DejaVuSans-32"/>
     <use x="186.572266" xlink:href="#DejaVuSans-57"/>
     <use x="250.195312" xlink:href="#DejaVuSans-46"/>
     <use x="281.982422" xlink:href="#DejaVuSans-49"/>
    </g>
   </g>
  </g>
 </g>
 <defs>
  <clipPath id="p8cfb179eb1">
   <rect height="354.816" width="357.12" x="57.6" y="55.296"/>
  </clipPath>
 </defs>
</svg>
