<?xml version="1.0" encoding="utf-8" standalone="no"?>
<!DOCTYPE svg PUBLIC "-//W3C//DTD SVG 1.1//EN"
  "http://www.w3.org/Graphics/SVG/1.1/DTD/svg11.dtd">
<!-- Created with matplotlib (https://matplotlib.org/) -->
<svg height="460.8pt" version="1.1" viewBox="0 0 460.8 460.8" width="460.8pt" xmlns="http://www.w3.org/2000/svg" xmlns:xlink="http://www.w3.org/1999/xlink">
 <defs>
  <style type="text/css">
*{stroke-linecap:butt;stroke-linejoin:round;}
  </style>
 </defs>
 <g id="figure_1">
  <g id="patch_1">
   <path d="M 0 460.8 
L 460.8 460.8 
L 460.8 0 
L 0 0 
z
" style="fill:#ffffff;"/>
  </g>
  <g id="axes_1">
   <g id="patch_2">
    <path clip-path="url(#p03215390fc)" d="M 113.276071 284.182135 
L 114.572405 285.458977 
L 115.75441 286.100794 
L 117.502381 286.630375 
L 118.863632 286.601008 
L 120.635275 286.253669 
L 121.84249 285.560308 
L 123.204045 284.421088 
L 123.961656 283.233492 
L 124.579767 281.581313 
L 124.702284 280.190247 
L 124.425617 278.42962 
L 123.658219 276.801527 
L 122.788343 275.766893 
L 121.32533 274.676777 
L 120.0598 274.21582 
L 118.259368 273.93058 
L 116.908029 274.156159 
L 115.210987 274.74563 
L 114.104695 275.602516 
L 112.926538 276.922376 
L 112.33615 278.200773 
L 111.965332 279.927874 
L 112.035397 281.314785 
L 112.562707 283.026273 
L 112.562707 283.026273 
L 112.562707 283.026273 
L 112.562707 283.026273 
L 112.562707 283.026273 
L 112.562707 283.026273 
L 112.562707 283.026273 
L 112.562707 283.026273 
L 112.562707 283.026273 
L 112.562707 283.026273 
L 112.562707 283.026273 
L 112.562707 283.026273 
L 112.562707 283.026273 
L 112.562707 283.026273 
L 112.562707 283.026273 
L 112.562707 283.026273 
L 112.562707 283.026273 
L 112.562707 283.026273 
L 112.562707 283.026273 
L 112.562707 283.026273 
L 112.562707 283.026273 
L 112.562707 283.026273 
L 112.562707 283.026273 
L 112.562707 283.026273 
L 112.562707 283.026273 
L 112.562707 283.026273 
L 112.562707 283.026273 
L 112.562707 283.026273 
L 112.562707 283.026273 
L 112.562707 283.026273 
L 112.562707 283.026273 
L 112.562707 283.026273 
L 112.562707 283.026273 
L 112.562707 283.026273 
L 112.562707 283.026273 
L 112.562707 283.026273 
L 112.562707 283.026273 
L 112.562707 283.026273 
L 112.562707 283.026273 
L 112.562707 283.026273 
L 112.562707 283.026273 
L 112.562707 283.026273 
L 112.562707 283.026273 
L 112.562707 283.026273 
L 112.562707 283.026273 
L 112.562707 283.026273 
L 112.562707 283.026273 
L 112.562707 283.026273 
L 112.562707 283.026273 
L 112.562707 283.026273 
L 112.562707 283.026273 
L 112.562707 283.026273 
L 112.562707 283.026273 
L 112.562707 283.026273 
L 112.562707 283.026273 
L 112.562707 283.026273 
L 112.562707 283.026273 
L 112.562707 283.026273 
L 112.562707 283.026273 
L 112.562707 283.026273 
L 112.562707 283.026273 
L 112.562707 283.026273 
L 112.562707 283.026273 
L 112.562707 283.026273 
L 112.562707 283.026273 
L 112.562707 283.026273 
L 112.562707 283.026273 
L 112.562707 283.026273 
L 112.562707 283.026273 
L 112.562707 283.026273 
L 112.562707 283.026273 
L 112.562707 283.026273 
L 112.562707 283.026273 
L 112.562707 283.026273 
L 112.562707 283.026273 
L 112.562707 283.026273 
L 112.562707 283.026273 
L 112.562707 283.026273 
L 112.562707 283.026273 
L 112.562707 283.026273 
L 112.562707 283.026273 
L 112.562707 283.026273 
L 112.562707 283.026273 
L 112.562707 283.026273 
L 112.562707 283.026273 
L 112.562707 283.026273 
L 112.562707 283.026273 
L 112.562707 283.026273 
L 112.562707 283.026273 
L 112.562707 283.026273 
L 112.562707 283.026273 
L 112.562707 283.026273 
L 112.562707 283.026273 
L 112.562707 283.026273 
L 112.562707 283.026273 
L 112.562707 283.026273 
L 112.562707 283.026273 
L 112.562707 283.026273 
L 112.562707 283.026273 
L 112.562707 283.026273 
L 112.562707 283.026273 
L 112.562707 283.026273 
L 112.562707 283.026273 
L 112.562707 283.026273 
L 112.562707 283.026273 
L 112.562707 283.026273 
L 112.562707 283.026273 
L 112.562707 283.026273 
L 112.562707 283.026273 
L 112.562707 283.026273 
L 112.562707 283.026273 
L 112.562707 283.026273 
L 112.562707 283.026273 
L 112.562707 283.026273 
L 112.562707 283.026273 
L 112.562707 283.026273 
L 112.562707 283.026273 
L 112.562707 283.026273 
L 112.562707 283.026273 
L 112.562707 283.026273 
L 112.562707 283.026273 
L 112.562707 283.026273 
L 112.562707 283.026273 
L 112.562707 283.026273 
L 112.562707 283.026273 
L 112.562707 283.026273 
L 112.562707 283.026273 
L 112.562707 283.026273 
L 112.562707 283.026273 
L 112.562707 283.026273 
L 112.562707 283.026273 
L 112.562707 283.026273 
L 112.562707 283.026273 
L 112.562707 283.026273 
L 112.562707 283.026273 
L 112.562707 283.026273 
L 112.562707 283.026273 
L 112.562707 283.026273 
L 112.562707 283.026273 
L 112.562707 283.026273 
L 112.562707 283.026273 
L 112.562707 283.026273 
L 112.562707 283.026273 
L 112.562707 283.026273 
L 112.562707 283.026273 
z
" style="fill:#993333;stroke:#000000;stroke-linejoin:miter;"/>
   </g>
   <g id="patch_3">
    <path clip-path="url(#p03215390fc)" d="M 118.144509 279.701452 
L 118.518946 280.916762 
L 179.463347 262.139778 
L 179.088909 260.924467 
L 179.088909 260.924467 
L 179.088909 260.924467 
L 179.088909 260.924467 
L 179.088909 260.924467 
L 179.088909 260.924467 
L 179.088909 260.924467 
L 179.088909 260.924467 
L 179.088909 260.924467 
L 179.088909 260.924467 
L 179.088909 260.924467 
L 179.088909 260.924467 
L 179.088909 260.924467 
L 179.088909 260.924467 
L 179.088909 260.924467 
L 179.088909 260.924467 
L 179.088909 260.924467 
L 179.088909 260.924467 
L 179.088909 260.924467 
L 179.088909 260.924467 
L 179.088909 260.924467 
L 179.088909 260.924467 
L 179.088909 260.924467 
L 179.088909 260.924467 
L 179.088909 260.924467 
L 179.088909 260.924467 
L 179.088909 260.924467 
L 179.088909 260.924467 
L 179.088909 260.924467 
L 179.088909 260.924467 
L 179.088909 260.924467 
L 179.088909 260.924467 
L 179.088909 260.924467 
L 179.088909 260.924467 
L 179.088909 260.924467 
L 179.088909 260.924467 
L 179.088909 260.924467 
L 179.088909 260.924467 
L 179.088909 260.924467 
L 179.088909 260.924467 
L 179.088909 260.924467 
L 179.088909 260.924467 
L 179.088909 260.924467 
L 179.088909 260.924467 
L 179.088909 260.924467 
L 179.088909 260.924467 
L 179.088909 260.924467 
L 179.088909 260.924467 
L 179.088909 260.924467 
z
" style="stroke:#000000;stroke-linejoin:miter;"/>
   </g>
   <g id="patch_4">
    <path clip-path="url(#p03215390fc)" d="M 179.947678 255.234084 
L 178.124946 255.257854 
L 176.831325 255.709016 
L 175.258616 256.577357 
L 174.31341 257.60921 
L 173.375779 259.109521 
L 173.010407 260.469432 
L 172.937418 262.234385 
L 173.241336 263.5894 
L 174.050859 265.186872 
L 174.949657 266.205236 
L 176.443494 267.244112 
L 177.717115 267.676494 
L 179.529521 267.902419 
L 180.866138 267.642957 
L 182.553374 267.000617 
L 183.625737 266.112836 
L 184.774708 264.7595 
L 185.320265 263.46076 
L 185.649663 261.72777 
L 185.534842 260.336048 
L 184.964019 258.6477 
L 183.931998 257.173076 
L 182.899477 256.300693 
L 181.27299 255.474073 
L 181.27299 255.474073 
L 181.27299 255.474073 
L 181.27299 255.474073 
L 181.27299 255.474073 
L 181.27299 255.474073 
L 181.27299 255.474073 
L 181.27299 255.474073 
L 181.27299 255.474073 
L 181.27299 255.474073 
L 181.27299 255.474073 
L 181.27299 255.474073 
L 181.27299 255.474073 
L 181.27299 255.474073 
L 181.27299 255.474073 
L 181.27299 255.474073 
L 181.27299 255.474073 
L 181.27299 255.474073 
L 181.27299 255.474073 
L 181.27299 255.474073 
L 181.27299 255.474073 
L 181.27299 255.474073 
L 181.27299 255.474073 
L 181.27299 255.474073 
L 181.27299 255.474073 
L 181.27299 255.474073 
L 181.27299 255.474073 
L 181.27299 255.474073 
L 181.27299 255.474073 
L 181.27299 255.474073 
L 181.27299 255.474073 
L 181.27299 255.474073 
L 181.27299 255.474073 
L 181.27299 255.474073 
L 181.27299 255.474073 
L 181.27299 255.474073 
L 181.27299 255.474073 
L 181.27299 255.474073 
L 181.27299 255.474073 
L 181.27299 255.474073 
L 181.27299 255.474073 
L 181.27299 255.474073 
L 181.27299 255.474073 
L 181.27299 255.474073 
L 181.27299 255.474073 
L 181.27299 255.474073 
L 181.27299 255.474073 
L 181.27299 255.474073 
L 181.27299 255.474073 
L 181.27299 255.474073 
L 181.27299 255.474073 
L 181.27299 255.474073 
L 181.27299 255.474073 
L 181.27299 255.474073 
L 181.27299 255.474073 
L 181.27299 255.474073 
L 181.27299 255.474073 
L 181.27299 255.474073 
L 181.27299 255.474073 
L 181.27299 255.474073 
L 181.27299 255.474073 
L 181.27299 255.474073 
L 181.27299 255.474073 
L 181.27299 255.474073 
L 181.27299 255.474073 
L 181.27299 255.474073 
L 181.27299 255.474073 
L 181.27299 255.474073 
L 181.27299 255.474073 
L 181.27299 255.474073 
L 181.27299 255.474073 
L 181.27299 255.474073 
L 181.27299 255.474073 
L 181.27299 255.474073 
L 181.27299 255.474073 
L 181.27299 255.474073 
L 181.27299 255.474073 
L 181.27299 255.474073 
L 181.27299 255.474073 
L 181.27299 255.474073 
L 181.27299 255.474073 
L 181.27299 255.474073 
L 181.27299 255.474073 
L 181.27299 255.474073 
L 181.27299 255.474073 
L 181.27299 255.474073 
L 181.27299 255.474073 
L 181.27299 255.474073 
L 181.27299 255.474073 
L 181.27299 255.474073 
L 181.27299 255.474073 
L 181.27299 255.474073 
L 181.27299 255.474073 
L 181.27299 255.474073 
L 181.27299 255.474073 
L 181.27299 255.474073 
L 181.27299 255.474073 
L 181.27299 255.474073 
L 181.27299 255.474073 
L 181.27299 255.474073 
L 181.27299 255.474073 
L 181.27299 255.474073 
L 181.27299 255.474073 
L 181.27299 255.474073 
L 181.27299 255.474073 
L 181.27299 255.474073 
L 181.27299 255.474073 
L 181.27299 255.474073 
L 181.27299 255.474073 
L 181.27299 255.474073 
L 181.27299 255.474073 
L 181.27299 255.474073 
L 181.27299 255.474073 
L 181.27299 255.474073 
L 181.27299 255.474073 
L 181.27299 255.474073 
L 181.27299 255.474073 
L 181.27299 255.474073 
L 181.27299 255.474073 
L 181.27299 255.474073 
L 181.27299 255.474073 
L 181.27299 255.474073 
L 181.27299 255.474073 
L 181.27299 255.474073 
L 181.27299 255.474073 
L 181.27299 255.474073 
L 181.27299 255.474073 
L 181.27299 255.474073 
L 181.27299 255.474073 
L 181.27299 255.474073 
L 181.27299 255.474073 
L 181.27299 255.474073 
L 181.27299 255.474073 
L 181.27299 255.474073 
L 181.27299 255.474073 
L 181.27299 255.474073 
L 181.27299 255.474073 
L 181.27299 255.474073 
L 181.27299 255.474073 
L 181.27299 255.474073 
L 181.27299 255.474073 
L 181.27299 255.474073 
L 181.27299 255.474073 
L 181.27299 255.474073 
L 181.27299 255.474073 
z
" style="fill:#993333;stroke:#000000;stroke-linejoin:miter;"/>
   </g>
   <g id="patch_5">
    <path clip-path="url(#p03215390fc)" d="M 178.989006 260.964829 
L 179.56384 262.099178 
L 236.448263 233.272844 
L 235.873429 232.138495 
L 235.873429 232.138495 
L 235.873429 232.138495 
L 235.873429 232.138495 
L 235.873429 232.138495 
L 235.873429 232.138495 
L 235.873429 232.138495 
L 235.873429 232.138495 
L 235.873429 232.138495 
L 235.873429 232.138495 
L 235.873429 232.138495 
L 235.873429 232.138495 
L 235.873429 232.138495 
L 235.873429 232.138495 
L 235.873429 232.138495 
L 235.873429 232.138495 
L 235.873429 232.138495 
L 235.873429 232.138495 
L 235.873429 232.138495 
L 235.873429 232.138495 
L 235.873429 232.138495 
L 235.873429 232.138495 
L 235.873429 232.138495 
L 235.873429 232.138495 
L 235.873429 232.138495 
L 235.873429 232.138495 
L 235.873429 232.138495 
L 235.873429 232.138495 
L 235.873429 232.138495 
L 235.873429 232.138495 
L 235.873429 232.138495 
L 235.873429 232.138495 
L 235.873429 232.138495 
L 235.873429 232.138495 
L 235.873429 232.138495 
L 235.873429 232.138495 
L 235.873429 232.138495 
L 235.873429 232.138495 
L 235.873429 232.138495 
L 235.873429 232.138495 
L 235.873429 232.138495 
L 235.873429 232.138495 
L 235.873429 232.138495 
L 235.873429 232.138495 
L 235.873429 232.138495 
L 235.873429 232.138495 
L 235.873429 232.138495 
L 235.873429 232.138495 
L 235.873429 232.138495 
z
" style="stroke:#000000;stroke-linejoin:miter;"/>
   </g>
   <g id="text_1">
    <!-- t = 5.7 -->
    <defs>
     <path d="M 18.3125 70.21875 
L 18.3125 54.6875 
L 36.8125 54.6875 
L 36.8125 47.703125 
L 18.3125 47.703125 
L 18.3125 18.015625 
Q 18.3125 11.328125 20.140625 9.421875 
Q 21.96875 7.515625 27.59375 7.515625 
L 36.8125 7.515625 
L 36.8125 0 
L 27.59375 0 
Q 17.1875 0 13.234375 3.875 
Q 9.28125 7.765625 9.28125 18.015625 
L 9.28125 47.703125 
L 2.6875 47.703125 
L 2.6875 54.6875 
L 9.28125 54.6875 
L 9.28125 70.21875 
z
" id="DejaVuSans-116"/>
     <path id="DejaVuSans-32"/>
     <path d="M 10.59375 45.40625 
L 73.1875 45.40625 
L 73.1875 37.203125 
L 10.59375 37.203125 
z
M 10.59375 25.484375 
L 73.1875 25.484375 
L 73.1875 17.1875 
L 10.59375 17.1875 
z
" id="DejaVuSans-61"/>
     <path d="M 10.796875 72.90625 
L 49.515625 72.90625 
L 49.515625 64.59375 
L 19.828125 64.59375 
L 19.828125 46.734375 
Q 21.96875 47.46875 24.109375 47.828125 
Q 26.265625 48.1875 28.421875 48.1875 
Q 40.625 48.1875 47.75 41.5 
Q 54.890625 34.8125 54.890625 23.390625 
Q 54.890625 11.625 47.5625 5.09375 
Q 40.234375 -1.421875 26.90625 -1.421875 
Q 22.3125 -1.421875 17.546875 -0.640625 
Q 12.796875 0.140625 7.71875 1.703125 
L 7.71875 11.625 
Q 12.109375 9.234375 16.796875 8.0625 
Q 21.484375 6.890625 26.703125 6.890625 
Q 35.15625 6.890625 40.078125 11.328125 
Q 45.015625 15.765625 45.015625 23.390625 
Q 45.015625 31 40.078125 35.4375 
Q 35.15625 39.890625 26.703125 39.890625 
Q 22.75 39.890625 18.8125 39.015625 
Q 14.890625 38.140625 10.796875 36.28125 
z
" id="DejaVuSans-53"/>
     <path d="M 10.6875 12.40625 
L 21 12.40625 
L 21 0 
L 10.6875 0 
z
" id="DejaVuSans-46"/>
     <path d="M 8.203125 72.90625 
L 55.078125 72.90625 
L 55.078125 68.703125 
L 28.609375 0 
L 18.3125 0 
L 43.21875 64.59375 
L 8.203125 64.59375 
z
" id="DejaVuSans-55"/>
    </defs>
    <g transform="translate(215.424375 49.296)scale(0.12 -0.12)">
     <use xlink:href="#DejaVuSans-116"/>
     <use x="39.208984" xlink:href="#DejaVuSans-32"/>
     <use x="70.996094" xlink:href="#DejaVuSans-61"/>
     <use x="154.785156" xlink:href="#DejaVuSans-32"/>
     <use x="186.572266" xlink:href="#DejaVuSans-53"/>
     <use x="250.195312" xlink:href="#DejaVuSans-46"/>
     <use x="281.982422" xlink:href="#DejaVuSans-55"/>
    </g>
   </g>
  </g>
 </g>
 <defs>
  <clipPath id="p03215390fc">
   <rect height="354.816" width="357.12" x="57.6" y="55.296"/>
  </clipPath>
 </defs>
</svg>
