<?xml version="1.0" encoding="utf-8" standalone="no"?>
<!DOCTYPE svg PUBLIC "-//W3C//DTD SVG 1.1//EN"
  "http://www.w3.org/Graphics/SVG/1.1/DTD/svg11.dtd">
<!-- Created with matplotlib (https://matplotlib.org/) -->
<svg height="460.8pt" version="1.1" viewBox="0 0 460.8 460.8" width="460.8pt" xmlns="http://www.w3.org/2000/svg" xmlns:xlink="http://www.w3.org/1999/xlink">
 <defs>
  <style type="text/css">
*{stroke-linecap:butt;stroke-linejoin:round;}
  </style>
 </defs>
 <g id="figure_1">
  <g id="patch_1">
   <path d="M 0 460.8 
L 460.8 460.8 
L 460.8 0 
L 0 0 
z
" style="fill:#ffffff;"/>
  </g>
  <g id="axes_1">
   <g id="patch_2">
    <path clip-path="url(#pd8cd527ded)" d="M 117.537456 291.932821 
L 117.636205 293.69652 
L 118.070271 295.015618 
L 119.031098 296.526928 
L 120.02454 297.453197 
L 121.612201 298.342097 
L 122.921791 298.648755 
L 124.74757 298.697611 
L 126.052675 298.309577 
L 127.669559 297.506428 
L 128.650642 296.518707 
L 129.662761 295.06019 
L 130.07962 293.71461 
L 130.239172 291.957823 
L 129.989745 290.583829 
L 129.257665 288.958893 
L 128.087322 287.591457 
L 126.974965 286.823464 
L 125.275892 286.158698 
L 123.933539 286.048543 
L 122.12173 286.249206 
L 120.878035 286.823858 
L 119.397083 287.840819 
L 118.556547 288.959584 
L 117.769041 290.543857 
L 117.769041 290.543857 
L 117.769041 290.543857 
L 117.769041 290.543857 
L 117.769041 290.543857 
L 117.769041 290.543857 
L 117.769041 290.543857 
L 117.769041 290.543857 
L 117.769041 290.543857 
L 117.769041 290.543857 
L 117.769041 290.543857 
L 117.769041 290.543857 
L 117.769041 290.543857 
L 117.769041 290.543857 
L 117.769041 290.543857 
L 117.769041 290.543857 
L 117.769041 290.543857 
L 117.769041 290.543857 
L 117.769041 290.543857 
L 117.769041 290.543857 
L 117.769041 290.543857 
L 117.769041 290.543857 
L 117.769041 290.543857 
L 117.769041 290.543857 
L 117.769041 290.543857 
L 117.769041 290.543857 
L 117.769041 290.543857 
L 117.769041 290.543857 
L 117.769041 290.543857 
L 117.769041 290.543857 
L 117.769041 290.543857 
L 117.769041 290.543857 
L 117.769041 290.543857 
L 117.769041 290.543857 
L 117.769041 290.543857 
L 117.769041 290.543857 
L 117.769041 290.543857 
L 117.769041 290.543857 
L 117.769041 290.543857 
L 117.769041 290.543857 
L 117.769041 290.543857 
L 117.769041 290.543857 
L 117.769041 290.543857 
L 117.769041 290.543857 
L 117.769041 290.543857 
L 117.769041 290.543857 
L 117.769041 290.543857 
L 117.769041 290.543857 
L 117.769041 290.543857 
L 117.769041 290.543857 
L 117.769041 290.543857 
L 117.769041 290.543857 
L 117.769041 290.543857 
L 117.769041 290.543857 
L 117.769041 290.543857 
L 117.769041 290.543857 
L 117.769041 290.543857 
L 117.769041 290.543857 
L 117.769041 290.543857 
L 117.769041 290.543857 
L 117.769041 290.543857 
L 117.769041 290.543857 
L 117.769041 290.543857 
L 117.769041 290.543857 
L 117.769041 290.543857 
L 117.769041 290.543857 
L 117.769041 290.543857 
L 117.769041 290.543857 
L 117.769041 290.543857 
L 117.769041 290.543857 
L 117.769041 290.543857 
L 117.769041 290.543857 
L 117.769041 290.543857 
L 117.769041 290.543857 
L 117.769041 290.543857 
L 117.769041 290.543857 
L 117.769041 290.543857 
L 117.769041 290.543857 
L 117.769041 290.543857 
L 117.769041 290.543857 
L 117.769041 290.543857 
L 117.769041 290.543857 
L 117.769041 290.543857 
L 117.769041 290.543857 
L 117.769041 290.543857 
L 117.769041 290.543857 
L 117.769041 290.543857 
L 117.769041 290.543857 
L 117.769041 290.543857 
L 117.769041 290.543857 
L 117.769041 290.543857 
L 117.769041 290.543857 
L 117.769041 290.543857 
L 117.769041 290.543857 
L 117.769041 290.543857 
L 117.769041 290.543857 
L 117.769041 290.543857 
L 117.769041 290.543857 
L 117.769041 290.543857 
L 117.769041 290.543857 
L 117.769041 290.543857 
L 117.769041 290.543857 
L 117.769041 290.543857 
L 117.769041 290.543857 
L 117.769041 290.543857 
L 117.769041 290.543857 
L 117.769041 290.543857 
L 117.769041 290.543857 
L 117.769041 290.543857 
L 117.769041 290.543857 
L 117.769041 290.543857 
L 117.769041 290.543857 
L 117.769041 290.543857 
L 117.769041 290.543857 
L 117.769041 290.543857 
L 117.769041 290.543857 
L 117.769041 290.543857 
L 117.769041 290.543857 
L 117.769041 290.543857 
L 117.769041 290.543857 
L 117.769041 290.543857 
L 117.769041 290.543857 
L 117.769041 290.543857 
L 117.769041 290.543857 
L 117.769041 290.543857 
L 117.769041 290.543857 
L 117.769041 290.543857 
L 117.769041 290.543857 
L 117.769041 290.543857 
L 117.769041 290.543857 
L 117.769041 290.543857 
L 117.769041 290.543857 
L 117.769041 290.543857 
L 117.769041 290.543857 
L 117.769041 290.543857 
L 117.769041 290.543857 
L 117.769041 290.543857 
L 117.769041 290.543857 
L 117.769041 290.543857 
L 117.769041 290.543857 
L 117.769041 290.543857 
L 117.769041 290.543857 
L 117.769041 290.543857 
L 117.769041 290.543857 
L 117.769041 290.543857 
z
" style="fill:#993333;stroke:#000000;stroke-linejoin:miter;"/>
   </g>
   <g id="patch_3">
    <path clip-path="url(#pd8cd527ded)" d="M 177.352175 257.631204 
L 123.535906 291.845299 
L 124.218179 292.918465 
L 178.034448 258.70437 
L 178.034448 258.70437 
L 178.034448 258.70437 
L 178.034448 258.70437 
L 178.034448 258.70437 
L 178.034448 258.70437 
L 178.034448 258.70437 
L 178.034448 258.70437 
L 178.034448 258.70437 
L 178.034448 258.70437 
L 178.034448 258.70437 
L 178.034448 258.70437 
L 178.034448 258.70437 
L 178.034448 258.70437 
L 178.034448 258.70437 
L 178.034448 258.70437 
L 178.034448 258.70437 
L 178.034448 258.70437 
L 178.034448 258.70437 
L 178.034448 258.70437 
L 178.034448 258.70437 
L 178.034448 258.70437 
L 178.034448 258.70437 
L 178.034448 258.70437 
L 178.034448 258.70437 
L 178.034448 258.70437 
L 178.034448 258.70437 
L 178.034448 258.70437 
L 178.034448 258.70437 
L 178.034448 258.70437 
L 178.034448 258.70437 
L 178.034448 258.70437 
L 178.034448 258.70437 
L 178.034448 258.70437 
L 178.034448 258.70437 
L 178.034448 258.70437 
L 178.034448 258.70437 
L 178.034448 258.70437 
L 178.034448 258.70437 
L 178.034448 258.70437 
L 178.034448 258.70437 
L 178.034448 258.70437 
L 178.034448 258.70437 
L 178.034448 258.70437 
L 178.034448 258.70437 
L 178.034448 258.70437 
L 178.034448 258.70437 
L 178.034448 258.70437 
L 178.034448 258.70437 
z
" style="stroke:#000000;stroke-linejoin:miter;"/>
   </g>
   <g id="patch_4">
    <path clip-path="url(#pd8cd527ded)" d="M 172.967091 253.962561 
L 171.943617 255.405679 
L 171.499613 256.741985 
L 171.323889 258.499684 
L 171.548323 259.870108 
L 172.263372 261.512043 
L 173.101294 262.581057 
L 174.532047 263.705224 
L 175.778306 264.211096 
L 177.574465 264.542261 
L 178.923932 264.361136 
L 180.645734 263.818218 
L 181.768013 262.994442 
L 182.993901 261.710365 
L 183.614219 260.445627 
L 184.044053 258.734779 
L 184.010535 257.338731 
L 183.539077 255.619987 
L 182.594748 254.087724 
L 181.614823 253.15665 
L 180.039275 252.236646 
L 178.730201 251.919827 
L 176.909182 251.837332 
L 175.591466 252.212337 
L 173.970825 252.987547 
L 173.970825 252.987547 
L 173.970825 252.987547 
L 173.970825 252.987547 
L 173.970825 252.987547 
L 173.970825 252.987547 
L 173.970825 252.987547 
L 173.970825 252.987547 
L 173.970825 252.987547 
L 173.970825 252.987547 
L 173.970825 252.987547 
L 173.970825 252.987547 
L 173.970825 252.987547 
L 173.970825 252.987547 
L 173.970825 252.987547 
L 173.970825 252.987547 
L 173.970825 252.987547 
L 173.970825 252.987547 
L 173.970825 252.987547 
L 173.970825 252.987547 
L 173.970825 252.987547 
L 173.970825 252.987547 
L 173.970825 252.987547 
L 173.970825 252.987547 
L 173.970825 252.987547 
L 173.970825 252.987547 
L 173.970825 252.987547 
L 173.970825 252.987547 
L 173.970825 252.987547 
L 173.970825 252.987547 
L 173.970825 252.987547 
L 173.970825 252.987547 
L 173.970825 252.987547 
L 173.970825 252.987547 
L 173.970825 252.987547 
L 173.970825 252.987547 
L 173.970825 252.987547 
L 173.970825 252.987547 
L 173.970825 252.987547 
L 173.970825 252.987547 
L 173.970825 252.987547 
L 173.970825 252.987547 
L 173.970825 252.987547 
L 173.970825 252.987547 
L 173.970825 252.987547 
L 173.970825 252.987547 
L 173.970825 252.987547 
L 173.970825 252.987547 
L 173.970825 252.987547 
L 173.970825 252.987547 
L 173.970825 252.987547 
L 173.970825 252.987547 
L 173.970825 252.987547 
L 173.970825 252.987547 
L 173.970825 252.987547 
L 173.970825 252.987547 
L 173.970825 252.987547 
L 173.970825 252.987547 
L 173.970825 252.987547 
L 173.970825 252.987547 
L 173.970825 252.987547 
L 173.970825 252.987547 
L 173.970825 252.987547 
L 173.970825 252.987547 
L 173.970825 252.987547 
L 173.970825 252.987547 
L 173.970825 252.987547 
L 173.970825 252.987547 
L 173.970825 252.987547 
L 173.970825 252.987547 
L 173.970825 252.987547 
L 173.970825 252.987547 
L 173.970825 252.987547 
L 173.970825 252.987547 
L 173.970825 252.987547 
L 173.970825 252.987547 
L 173.970825 252.987547 
L 173.970825 252.987547 
L 173.970825 252.987547 
L 173.970825 252.987547 
L 173.970825 252.987547 
L 173.970825 252.987547 
L 173.970825 252.987547 
L 173.970825 252.987547 
L 173.970825 252.987547 
L 173.970825 252.987547 
L 173.970825 252.987547 
L 173.970825 252.987547 
L 173.970825 252.987547 
L 173.970825 252.987547 
L 173.970825 252.987547 
L 173.970825 252.987547 
L 173.970825 252.987547 
L 173.970825 252.987547 
L 173.970825 252.987547 
L 173.970825 252.987547 
L 173.970825 252.987547 
L 173.970825 252.987547 
L 173.970825 252.987547 
L 173.970825 252.987547 
L 173.970825 252.987547 
L 173.970825 252.987547 
L 173.970825 252.987547 
L 173.970825 252.987547 
L 173.970825 252.987547 
L 173.970825 252.987547 
L 173.970825 252.987547 
L 173.970825 252.987547 
L 173.970825 252.987547 
L 173.970825 252.987547 
L 173.970825 252.987547 
L 173.970825 252.987547 
L 173.970825 252.987547 
L 173.970825 252.987547 
L 173.970825 252.987547 
L 173.970825 252.987547 
L 173.970825 252.987547 
L 173.970825 252.987547 
L 173.970825 252.987547 
L 173.970825 252.987547 
L 173.970825 252.987547 
L 173.970825 252.987547 
L 173.970825 252.987547 
L 173.970825 252.987547 
L 173.970825 252.987547 
L 173.970825 252.987547 
L 173.970825 252.987547 
L 173.970825 252.987547 
L 173.970825 252.987547 
L 173.970825 252.987547 
L 173.970825 252.987547 
L 173.970825 252.987547 
L 173.970825 252.987547 
L 173.970825 252.987547 
L 173.970825 252.987547 
L 173.970825 252.987547 
L 173.970825 252.987547 
L 173.970825 252.987547 
L 173.970825 252.987547 
L 173.970825 252.987547 
L 173.970825 252.987547 
L 173.970825 252.987547 
L 173.970825 252.987547 
L 173.970825 252.987547 
L 173.970825 252.987547 
z
" style="fill:#993333;stroke:#000000;stroke-linejoin:miter;"/>
   </g>
   <g id="patch_5">
    <path clip-path="url(#pd8cd527ded)" d="M 177.43918 257.584963 
L 177.946929 258.750884 
L 236.414622 233.288677 
L 235.906873 232.122755 
L 235.906873 232.122755 
L 235.906873 232.122755 
L 235.906873 232.122755 
L 235.906873 232.122755 
L 235.906873 232.122755 
L 235.906873 232.122755 
L 235.906873 232.122755 
L 235.906873 232.122755 
L 235.906873 232.122755 
L 235.906873 232.122755 
L 235.906873 232.122755 
L 235.906873 232.122755 
L 235.906873 232.122755 
L 235.906873 232.122755 
L 235.906873 232.122755 
L 235.906873 232.122755 
L 235.906873 232.122755 
L 235.906873 232.122755 
L 235.906873 232.122755 
L 235.906873 232.122755 
L 235.906873 232.122755 
L 235.906873 232.122755 
L 235.906873 232.122755 
L 235.906873 232.122755 
L 235.906873 232.122755 
L 235.906873 232.122755 
L 235.906873 232.122755 
L 235.906873 232.122755 
L 235.906873 232.122755 
L 235.906873 232.122755 
L 235.906873 232.122755 
L 235.906873 232.122755 
L 235.906873 232.122755 
L 235.906873 232.122755 
L 235.906873 232.122755 
L 235.906873 232.122755 
L 235.906873 232.122755 
L 235.906873 232.122755 
L 235.906873 232.122755 
L 235.906873 232.122755 
L 235.906873 232.122755 
L 235.906873 232.122755 
L 235.906873 232.122755 
L 235.906873 232.122755 
L 235.906873 232.122755 
L 235.906873 232.122755 
L 235.906873 232.122755 
L 235.906873 232.122755 
z
" style="stroke:#000000;stroke-linejoin:miter;"/>
   </g>
   <g id="text_1">
    <!-- t = 3.1 -->
    <defs>
     <path d="M 18.3125 70.21875 
L 18.3125 54.6875 
L 36.8125 54.6875 
L 36.8125 47.703125 
L 18.3125 47.703125 
L 18.3125 18.015625 
Q 18.3125 11.328125 20.140625 9.421875 
Q 21.96875 7.515625 27.59375 7.515625 
L 36.8125 7.515625 
L 36.8125 0 
L 27.59375 0 
Q 17.1875 0 13.234375 3.875 
Q 9.28125 7.765625 9.28125 18.015625 
L 9.28125 47.703125 
L 2.6875 47.703125 
L 2.6875 54.6875 
L 9.28125 54.6875 
L 9.28125 70.21875 
z
" id="DejaVuSans-116"/>
     <path id="DejaVuSans-32"/>
     <path d="M 10.59375 45.40625 
L 73.1875 45.40625 
L 73.1875 37.203125 
L 10.59375 37.203125 
z
M 10.59375 25.484375 
L 73.1875 25.484375 
L 73.1875 17.1875 
L 10.59375 17.1875 
z
" id="DejaVuSans-61"/>
     <path d="M 40.578125 39.3125 
Q 47.65625 37.796875 51.625 33 
Q 55.609375 28.21875 55.609375 21.1875 
Q 55.609375 10.40625 48.1875 4.484375 
Q 40.765625 -1.421875 27.09375 -1.421875 
Q 22.515625 -1.421875 17.65625 -0.515625 
Q 12.796875 0.390625 7.625 2.203125 
L 7.625 11.71875 
Q 11.71875 9.328125 16.59375 8.109375 
Q 21.484375 6.890625 26.8125 6.890625 
Q 36.078125 6.890625 40.9375 10.546875 
Q 45.796875 14.203125 45.796875 21.1875 
Q 45.796875 27.640625 41.28125 31.265625 
Q 36.765625 34.90625 28.71875 34.90625 
L 20.21875 34.90625 
L 20.21875 43.015625 
L 29.109375 43.015625 
Q 36.375 43.015625 40.234375 45.921875 
Q 44.09375 48.828125 44.09375 54.296875 
Q 44.09375 59.90625 40.109375 62.90625 
Q 36.140625 65.921875 28.71875 65.921875 
Q 24.65625 65.921875 20.015625 65.03125 
Q 15.375 64.15625 9.8125 62.3125 
L 9.8125 71.09375 
Q 15.4375 72.65625 20.34375 73.4375 
Q 25.25 74.21875 29.59375 74.21875 
Q 40.828125 74.21875 47.359375 69.109375 
Q 53.90625 64.015625 53.90625 55.328125 
Q 53.90625 49.265625 50.4375 45.09375 
Q 46.96875 40.921875 40.578125 39.3125 
z
" id="DejaVuSans-51"/>
     <path d="M 10.6875 12.40625 
L 21 12.40625 
L 21 0 
L 10.6875 0 
z
" id="DejaVuSans-46"/>
     <path d="M 12.40625 8.296875 
L 28.515625 8.296875 
L 28.515625 63.921875 
L 10.984375 60.40625 
L 10.984375 69.390625 
L 28.421875 72.90625 
L 38.28125 72.90625 
L 38.28125 8.296875 
L 54.390625 8.296875 
L 54.390625 0 
L 12.40625 0 
z
" id="DejaVuSans-49"/>
    </defs>
    <g transform="translate(215.424375 49.296)scale(0.12 -0.12)">
     <use xlink:href="#DejaVuSans-116"/>
     <use x="39.208984" xlink:href="#DejaVuSans-32"/>
     <use x="70.996094" xlink:href="#DejaVuSans-61"/>
     <use x="154.785156" xlink:href="#DejaVuSans-32"/>
     <use x="186.572266" xlink:href="#DejaVuSans-51"/>
     <use x="250.195312" xlink:href="#DejaVuSans-46"/>
     <use x="281.982422" xlink:href="#DejaVuSans-49"/>
    </g>
   </g>
  </g>
 </g>
 <defs>
  <clipPath id="pd8cd527ded">
   <rect height="354.816" width="357.12" x="57.6" y="55.296"/>
  </clipPath>
 </defs>
</svg>
