<?xml version="1.0" encoding="utf-8" standalone="no"?>
<!DOCTYPE svg PUBLIC "-//W3C//DTD SVG 1.1//EN"
  "http://www.w3.org/Graphics/SVG/1.1/DTD/svg11.dtd">
<!-- Created with matplotlib (https://matplotlib.org/) -->
<svg height="460.8pt" version="1.1" viewBox="0 0 460.8 460.8" width="460.8pt" xmlns="http://www.w3.org/2000/svg" xmlns:xlink="http://www.w3.org/1999/xlink">
 <defs>
  <style type="text/css">
*{stroke-linecap:butt;stroke-linejoin:round;}
  </style>
 </defs>
 <g id="figure_1">
  <g id="patch_1">
   <path d="M 0 460.8 
L 460.8 460.8 
L 460.8 0 
L 0 0 
z
" style="fill:#ffffff;"/>
  </g>
  <g id="axes_1">
   <g id="patch_2">
    <path clip-path="url(#pca7197af8b)" d="M 211.686939 357.674169 
L 211.830623 356.289441 
L 211.702935 354.518749 
L 211.18277 353.209632 
L 210.204183 351.741938 
L 209.147525 350.828951 
L 207.557631 350.023597 
L 205.788219 349.693801 
L 204.440233 349.794231 
L 202.700329 350.343314 
L 201.586251 351.1002 
L 200.301843 352.393728 
L 199.694438 353.62176 
L 199.179995 355.343031 
L 199.227976 356.741543 
L 199.609452 358.469131 
L 200.301073 359.695718 
L 201.485068 361.006649 
L 202.650995 361.761 
L 204.347627 362.334313 
L 205.702401 362.431736 
L 207.496274 362.127063 
L 208.708199 361.543707 
L 210.160112 360.435642 
L 210.932466 359.314332 
L 210.932466 359.314332 
L 210.932466 359.314332 
L 210.932466 359.314332 
L 210.932466 359.314332 
L 210.932466 359.314332 
L 210.932466 359.314332 
L 210.932466 359.314332 
L 210.932466 359.314332 
L 210.932466 359.314332 
L 210.932466 359.314332 
L 210.932466 359.314332 
L 210.932466 359.314332 
L 210.932466 359.314332 
L 210.932466 359.314332 
L 210.932466 359.314332 
L 210.932466 359.314332 
L 210.932466 359.314332 
L 210.932466 359.314332 
L 210.932466 359.314332 
L 210.932466 359.314332 
L 210.932466 359.314332 
L 210.932466 359.314332 
L 210.932466 359.314332 
L 210.932466 359.314332 
L 210.932466 359.314332 
L 210.932466 359.314332 
L 210.932466 359.314332 
L 210.932466 359.314332 
L 210.932466 359.314332 
L 210.932466 359.314332 
L 210.932466 359.314332 
L 210.932466 359.314332 
L 210.932466 359.314332 
L 210.932466 359.314332 
L 210.932466 359.314332 
L 210.932466 359.314332 
L 210.932466 359.314332 
L 210.932466 359.314332 
L 210.932466 359.314332 
L 210.932466 359.314332 
L 210.932466 359.314332 
L 210.932466 359.314332 
L 210.932466 359.314332 
L 210.932466 359.314332 
L 210.932466 359.314332 
L 210.932466 359.314332 
L 210.932466 359.314332 
L 210.932466 359.314332 
L 210.932466 359.314332 
L 210.932466 359.314332 
L 210.932466 359.314332 
L 210.932466 359.314332 
L 210.932466 359.314332 
L 210.932466 359.314332 
L 210.932466 359.314332 
L 210.932466 359.314332 
L 210.932466 359.314332 
L 210.932466 359.314332 
L 210.932466 359.314332 
L 210.932466 359.314332 
L 210.932466 359.314332 
L 210.932466 359.314332 
L 210.932466 359.314332 
L 210.932466 359.314332 
L 210.932466 359.314332 
L 210.932466 359.314332 
L 210.932466 359.314332 
L 210.932466 359.314332 
L 210.932466 359.314332 
L 210.932466 359.314332 
L 210.932466 359.314332 
L 210.932466 359.314332 
L 210.932466 359.314332 
L 210.932466 359.314332 
L 210.932466 359.314332 
L 210.932466 359.314332 
L 210.932466 359.314332 
L 210.932466 359.314332 
L 210.932466 359.314332 
L 210.932466 359.314332 
L 210.932466 359.314332 
L 210.932466 359.314332 
L 210.932466 359.314332 
L 210.932466 359.314332 
L 210.932466 359.314332 
L 210.932466 359.314332 
L 210.932466 359.314332 
L 210.932466 359.314332 
L 210.932466 359.314332 
L 210.932466 359.314332 
L 210.932466 359.314332 
L 210.932466 359.314332 
L 210.932466 359.314332 
L 210.932466 359.314332 
L 210.932466 359.314332 
L 210.932466 359.314332 
L 210.932466 359.314332 
L 210.932466 359.314332 
L 210.932466 359.314332 
L 210.932466 359.314332 
L 210.932466 359.314332 
L 210.932466 359.314332 
L 210.932466 359.314332 
L 210.932466 359.314332 
L 210.932466 359.314332 
L 210.932466 359.314332 
L 210.932466 359.314332 
L 210.932466 359.314332 
L 210.932466 359.314332 
L 210.932466 359.314332 
L 210.932466 359.314332 
L 210.932466 359.314332 
L 210.932466 359.314332 
L 210.932466 359.314332 
L 210.932466 359.314332 
L 210.932466 359.314332 
L 210.932466 359.314332 
L 210.932466 359.314332 
L 210.932466 359.314332 
L 210.932466 359.314332 
L 210.932466 359.314332 
L 210.932466 359.314332 
L 210.932466 359.314332 
L 210.932466 359.314332 
L 210.932466 359.314332 
L 210.932466 359.314332 
L 210.932466 359.314332 
L 210.932466 359.314332 
L 210.932466 359.314332 
L 210.932466 359.314332 
L 210.932466 359.314332 
L 210.932466 359.314332 
L 210.932466 359.314332 
L 210.932466 359.314332 
L 210.932466 359.314332 
L 210.932466 359.314332 
L 210.932466 359.314332 
L 210.932466 359.314332 
L 210.932466 359.314332 
L 210.932466 359.314332 
L 210.932466 359.314332 
L 210.932466 359.314332 
L 210.932466 359.314332 
L 210.932466 359.314332 
z
" style="fill:#993333;stroke:#000000;stroke-linejoin:miter;"/>
   </g>
   <g id="patch_3">
    <path clip-path="url(#pca7197af8b)" d="M 225.3306 295.446793 
L 204.915516 355.862184 
L 206.120277 356.269287 
L 226.535361 295.853897 
L 226.535361 295.853897 
L 226.535361 295.853897 
L 226.535361 295.853897 
L 226.535361 295.853897 
L 226.535361 295.853897 
L 226.535361 295.853897 
L 226.535361 295.853897 
L 226.535361 295.853897 
L 226.535361 295.853897 
L 226.535361 295.853897 
L 226.535361 295.853897 
L 226.535361 295.853897 
L 226.535361 295.853897 
L 226.535361 295.853897 
L 226.535361 295.853897 
L 226.535361 295.853897 
L 226.535361 295.853897 
L 226.535361 295.853897 
L 226.535361 295.853897 
L 226.535361 295.853897 
L 226.535361 295.853897 
L 226.535361 295.853897 
L 226.535361 295.853897 
L 226.535361 295.853897 
L 226.535361 295.853897 
L 226.535361 295.853897 
L 226.535361 295.853897 
L 226.535361 295.853897 
L 226.535361 295.853897 
L 226.535361 295.853897 
L 226.535361 295.853897 
L 226.535361 295.853897 
L 226.535361 295.853897 
L 226.535361 295.853897 
L 226.535361 295.853897 
L 226.535361 295.853897 
L 226.535361 295.853897 
L 226.535361 295.853897 
L 226.535361 295.853897 
L 226.535361 295.853897 
L 226.535361 295.853897 
L 226.535361 295.853897 
L 226.535361 295.853897 
L 226.535361 295.853897 
L 226.535361 295.853897 
L 226.535361 295.853897 
L 226.535361 295.853897 
L 226.535361 295.853897 
z
" style="stroke:#000000;stroke-linejoin:miter;"/>
   </g>
   <g id="patch_4">
    <path clip-path="url(#pca7197af8b)" d="M 221.240176 291.396663 
L 220.185339 292.883349 
L 219.787592 294.194379 
L 219.562453 295.97672 
L 219.839178 297.34842 
L 220.498859 298.990037 
L 221.382306 300.086566 
L 222.765294 301.185533 
L 224.039164 301.738423 
L 225.806855 302.025676 
L 227.15926 301.89956 
L 228.878862 301.304769 
L 229.978686 300.530525 
L 231.22918 299.199315 
L 231.807148 297.966504 
L 232.28237 296.224802 
L 232.196975 294.835261 
L 231.780573 293.109496 
L 231.052723 291.903431 
L 229.846648 290.616131 
L 228.654546 289.88883 
L 226.954087 289.355171 
L 225.154544 289.320074 
L 223.841289 289.64025 
L 222.215015 290.467288 
L 222.215015 290.467288 
L 222.215015 290.467288 
L 222.215015 290.467288 
L 222.215015 290.467288 
L 222.215015 290.467288 
L 222.215015 290.467288 
L 222.215015 290.467288 
L 222.215015 290.467288 
L 222.215015 290.467288 
L 222.215015 290.467288 
L 222.215015 290.467288 
L 222.215015 290.467288 
L 222.215015 290.467288 
L 222.215015 290.467288 
L 222.215015 290.467288 
L 222.215015 290.467288 
L 222.215015 290.467288 
L 222.215015 290.467288 
L 222.215015 290.467288 
L 222.215015 290.467288 
L 222.215015 290.467288 
L 222.215015 290.467288 
L 222.215015 290.467288 
L 222.215015 290.467288 
L 222.215015 290.467288 
L 222.215015 290.467288 
L 222.215015 290.467288 
L 222.215015 290.467288 
L 222.215015 290.467288 
L 222.215015 290.467288 
L 222.215015 290.467288 
L 222.215015 290.467288 
L 222.215015 290.467288 
L 222.215015 290.467288 
L 222.215015 290.467288 
L 222.215015 290.467288 
L 222.215015 290.467288 
L 222.215015 290.467288 
L 222.215015 290.467288 
L 222.215015 290.467288 
L 222.215015 290.467288 
L 222.215015 290.467288 
L 222.215015 290.467288 
L 222.215015 290.467288 
L 222.215015 290.467288 
L 222.215015 290.467288 
L 222.215015 290.467288 
L 222.215015 290.467288 
L 222.215015 290.467288 
L 222.215015 290.467288 
L 222.215015 290.467288 
L 222.215015 290.467288 
L 222.215015 290.467288 
L 222.215015 290.467288 
L 222.215015 290.467288 
L 222.215015 290.467288 
L 222.215015 290.467288 
L 222.215015 290.467288 
L 222.215015 290.467288 
L 222.215015 290.467288 
L 222.215015 290.467288 
L 222.215015 290.467288 
L 222.215015 290.467288 
L 222.215015 290.467288 
L 222.215015 290.467288 
L 222.215015 290.467288 
L 222.215015 290.467288 
L 222.215015 290.467288 
L 222.215015 290.467288 
L 222.215015 290.467288 
L 222.215015 290.467288 
L 222.215015 290.467288 
L 222.215015 290.467288 
L 222.215015 290.467288 
L 222.215015 290.467288 
L 222.215015 290.467288 
L 222.215015 290.467288 
L 222.215015 290.467288 
L 222.215015 290.467288 
L 222.215015 290.467288 
L 222.215015 290.467288 
L 222.215015 290.467288 
L 222.215015 290.467288 
L 222.215015 290.467288 
L 222.215015 290.467288 
L 222.215015 290.467288 
L 222.215015 290.467288 
L 222.215015 290.467288 
L 222.215015 290.467288 
L 222.215015 290.467288 
L 222.215015 290.467288 
L 222.215015 290.467288 
L 222.215015 290.467288 
L 222.215015 290.467288 
L 222.215015 290.467288 
L 222.215015 290.467288 
L 222.215015 290.467288 
L 222.215015 290.467288 
L 222.215015 290.467288 
L 222.215015 290.467288 
L 222.215015 290.467288 
L 222.215015 290.467288 
L 222.215015 290.467288 
L 222.215015 290.467288 
L 222.215015 290.467288 
L 222.215015 290.467288 
L 222.215015 290.467288 
L 222.215015 290.467288 
L 222.215015 290.467288 
L 222.215015 290.467288 
L 222.215015 290.467288 
L 222.215015 290.467288 
L 222.215015 290.467288 
L 222.215015 290.467288 
L 222.215015 290.467288 
L 222.215015 290.467288 
L 222.215015 290.467288 
L 222.215015 290.467288 
L 222.215015 290.467288 
L 222.215015 290.467288 
L 222.215015 290.467288 
L 222.215015 290.467288 
L 222.215015 290.467288 
L 222.215015 290.467288 
L 222.215015 290.467288 
L 222.215015 290.467288 
L 222.215015 290.467288 
L 222.215015 290.467288 
L 222.215015 290.467288 
L 222.215015 290.467288 
L 222.215015 290.467288 
L 222.215015 290.467288 
L 222.215015 290.467288 
L 222.215015 290.467288 
L 222.215015 290.467288 
L 222.215015 290.467288 
L 222.215015 290.467288 
L 222.215015 290.467288 
L 222.215015 290.467288 
L 222.215015 290.467288 
L 222.215015 290.467288 
L 222.215015 290.467288 
L 222.215015 290.467288 
L 222.215015 290.467288 
z
" style="fill:#993333;stroke:#000000;stroke-linejoin:miter;"/>
   </g>
   <g id="patch_5">
    <path clip-path="url(#pca7197af8b)" d="M 235.534238 232.602313 
L 225.305445 295.548058 
L 226.560665 295.752034 
L 236.789457 232.806288 
L 236.789457 232.806288 
L 236.789457 232.806288 
L 236.789457 232.806288 
L 236.789457 232.806288 
L 236.789457 232.806288 
L 236.789457 232.806288 
L 236.789457 232.806288 
L 236.789457 232.806288 
L 236.789457 232.806288 
L 236.789457 232.806288 
L 236.789457 232.806288 
L 236.789457 232.806288 
L 236.789457 232.806288 
L 236.789457 232.806288 
L 236.789457 232.806288 
L 236.789457 232.806288 
L 236.789457 232.806288 
L 236.789457 232.806288 
L 236.789457 232.806288 
L 236.789457 232.806288 
L 236.789457 232.806288 
L 236.789457 232.806288 
L 236.789457 232.806288 
L 236.789457 232.806288 
L 236.789457 232.806288 
L 236.789457 232.806288 
L 236.789457 232.806288 
L 236.789457 232.806288 
L 236.789457 232.806288 
L 236.789457 232.806288 
L 236.789457 232.806288 
L 236.789457 232.806288 
L 236.789457 232.806288 
L 236.789457 232.806288 
L 236.789457 232.806288 
L 236.789457 232.806288 
L 236.789457 232.806288 
L 236.789457 232.806288 
L 236.789457 232.806288 
L 236.789457 232.806288 
L 236.789457 232.806288 
L 236.789457 232.806288 
L 236.789457 232.806288 
L 236.789457 232.806288 
L 236.789457 232.806288 
L 236.789457 232.806288 
L 236.789457 232.806288 
L 236.789457 232.806288 
z
" style="stroke:#000000;stroke-linejoin:miter;"/>
   </g>
   <g id="text_1">
    <!-- t = 6.3 -->
    <defs>
     <path d="M 18.3125 70.21875 
L 18.3125 54.6875 
L 36.8125 54.6875 
L 36.8125 47.703125 
L 18.3125 47.703125 
L 18.3125 18.015625 
Q 18.3125 11.328125 20.140625 9.421875 
Q 21.96875 7.515625 27.59375 7.515625 
L 36.8125 7.515625 
L 36.8125 0 
L 27.59375 0 
Q 17.1875 0 13.234375 3.875 
Q 9.28125 7.765625 9.28125 18.015625 
L 9.28125 47.703125 
L 2.6875 47.703125 
L 2.6875 54.6875 
L 9.28125 54.6875 
L 9.28125 70.21875 
z
" id="DejaVuSans-116"/>
     <path id="DejaVuSans-32"/>
     <path d="M 10.59375 45.40625 
L 73.1875 45.40625 
L 73.1875 37.203125 
L 10.59375 37.203125 
z
M 10.59375 25.484375 
L 73.1875 25.484375 
L 73.1875 17.1875 
L 10.59375 17.1875 
z
" id="DejaVuSans-61"/>
     <path d="M 33.015625 40.375 
Q 26.375 40.375 22.484375 35.828125 
Q 18.609375 31.296875 18.609375 23.390625 
Q 18.609375 15.53125 22.484375 10.953125 
Q 26.375 6.390625 33.015625 6.390625 
Q 39.65625 6.390625 43.53125 10.953125 
Q 47.40625 15.53125 47.40625 23.390625 
Q 47.40625 31.296875 43.53125 35.828125 
Q 39.65625 40.375 33.015625 40.375 
z
M 52.59375 71.296875 
L 52.59375 62.3125 
Q 48.875 64.0625 45.09375 64.984375 
Q 41.3125 65.921875 37.59375 65.921875 
Q 27.828125 65.921875 22.671875 59.328125 
Q 17.53125 52.734375 16.796875 39.40625 
Q 19.671875 43.65625 24.015625 45.921875 
Q 28.375 48.1875 33.59375 48.1875 
Q 44.578125 48.1875 50.953125 41.515625 
Q 57.328125 34.859375 57.328125 23.390625 
Q 57.328125 12.15625 50.6875 5.359375 
Q 44.046875 -1.421875 33.015625 -1.421875 
Q 20.359375 -1.421875 13.671875 8.265625 
Q 6.984375 17.96875 6.984375 36.375 
Q 6.984375 53.65625 15.1875 63.9375 
Q 23.390625 74.21875 37.203125 74.21875 
Q 40.921875 74.21875 44.703125 73.484375 
Q 48.484375 72.75 52.59375 71.296875 
z
" id="DejaVuSans-54"/>
     <path d="M 10.6875 12.40625 
L 21 12.40625 
L 21 0 
L 10.6875 0 
z
" id="DejaVuSans-46"/>
     <path d="M 40.578125 39.3125 
Q 47.65625 37.796875 51.625 33 
Q 55.609375 28.21875 55.609375 21.1875 
Q 55.609375 10.40625 48.1875 4.484375 
Q 40.765625 -1.421875 27.09375 -1.421875 
Q 22.515625 -1.421875 17.65625 -0.515625 
Q 12.796875 0.390625 7.625 2.203125 
L 7.625 11.71875 
Q 11.71875 9.328125 16.59375 8.109375 
Q 21.484375 6.890625 26.8125 6.890625 
Q 36.078125 6.890625 40.9375 10.546875 
Q 45.796875 14.203125 45.796875 21.1875 
Q 45.796875 27.640625 41.28125 31.265625 
Q 36.765625 34.90625 28.71875 34.90625 
L 20.21875 34.90625 
L 20.21875 43.015625 
L 29.109375 43.015625 
Q 36.375 43.015625 40.234375 45.921875 
Q 44.09375 48.828125 44.09375 54.296875 
Q 44.09375 59.90625 40.109375 62.90625 
Q 36.140625 65.921875 28.71875 65.921875 
Q 24.65625 65.921875 20.015625 65.03125 
Q 15.375 64.15625 9.8125 62.3125 
L 9.8125 71.09375 
Q 15.4375 72.65625 20.34375 73.4375 
Q 25.25 74.21875 29.59375 74.21875 
Q 40.828125 74.21875 47.359375 69.109375 
Q 53.90625 64.015625 53.90625 55.328125 
Q 53.90625 49.265625 50.4375 45.09375 
Q 46.96875 40.921875 40.578125 39.3125 
z
" id="DejaVuSans-51"/>
    </defs>
    <g transform="translate(215.424375 49.296)scale(0.12 -0.12)">
     <use xlink:href="#DejaVuSans-116"/>
     <use x="39.208984" xlink:href="#DejaVuSans-32"/>
     <use x="70.996094" xlink:href="#DejaVuSans-61"/>
     <use x="154.785156" xlink:href="#DejaVuSans-32"/>
     <use x="186.572266" xlink:href="#DejaVuSans-54"/>
     <use x="250.195312" xlink:href="#DejaVuSans-46"/>
     <use x="281.982422" xlink:href="#DejaVuSans-51"/>
    </g>
   </g>
  </g>
 </g>
 <defs>
  <clipPath id="pca7197af8b">
   <rect height="354.816" width="357.12" x="57.6" y="55.296"/>
  </clipPath>
 </defs>
</svg>
