<?xml version="1.0" encoding="utf-8" standalone="no"?>
<!DOCTYPE svg PUBLIC "-//W3C//DTD SVG 1.1//EN"
  "http://www.w3.org/Graphics/SVG/1.1/DTD/svg11.dtd">
<!-- Created with matplotlib (https://matplotlib.org/) -->
<svg height="460.8pt" version="1.1" viewBox="0 0 460.8 460.8" width="460.8pt" xmlns="http://www.w3.org/2000/svg" xmlns:xlink="http://www.w3.org/1999/xlink">
 <defs>
  <style type="text/css">
*{stroke-linecap:butt;stroke-linejoin:round;}
  </style>
 </defs>
 <g id="figure_1">
  <g id="patch_1">
   <path d="M 0 460.8 
L 460.8 460.8 
L 460.8 0 
L 0 0 
z
" style="fill:#ffffff;"/>
  </g>
  <g id="axes_1">
   <g id="patch_2">
    <path clip-path="url(#p866d163fa7)" d="M 341.584044 293.240208 
L 341.7148 295.060005 
L 342.192785 296.319202 
L 343.153303 297.8685 
L 344.207061 298.744055 
L 345.762173 299.64353 
L 347.133706 299.921078 
L 348.902666 299.950508 
L 350.256176 299.562094 
L 351.805881 298.714273 
L 352.809981 297.754995 
L 353.761009 296.2375 
L 354.16986 294.942222 
L 354.289367 293.126588 
L 354.002869 291.81244 
L 353.261594 290.143198 
L 352.349891 289.131929 
L 350.929326 288.017767 
L 349.615634 287.556971 
L 347.863581 287.270676 
L 346.46954 287.473171 
L 344.814963 288.084837 
L 343.681881 288.901047 
L 342.529878 290.260916 
L 341.798859 291.905664 
L 341.798859 291.905664 
L 341.798859 291.905664 
L 341.798859 291.905664 
L 341.798859 291.905664 
L 341.798859 291.905664 
L 341.798859 291.905664 
L 341.798859 291.905664 
L 341.798859 291.905664 
L 341.798859 291.905664 
L 341.798859 291.905664 
L 341.798859 291.905664 
L 341.798859 291.905664 
L 341.798859 291.905664 
L 341.798859 291.905664 
L 341.798859 291.905664 
L 341.798859 291.905664 
L 341.798859 291.905664 
L 341.798859 291.905664 
L 341.798859 291.905664 
L 341.798859 291.905664 
L 341.798859 291.905664 
L 341.798859 291.905664 
L 341.798859 291.905664 
L 341.798859 291.905664 
L 341.798859 291.905664 
L 341.798859 291.905664 
L 341.798859 291.905664 
L 341.798859 291.905664 
L 341.798859 291.905664 
L 341.798859 291.905664 
L 341.798859 291.905664 
L 341.798859 291.905664 
L 341.798859 291.905664 
L 341.798859 291.905664 
L 341.798859 291.905664 
L 341.798859 291.905664 
L 341.798859 291.905664 
L 341.798859 291.905664 
L 341.798859 291.905664 
L 341.798859 291.905664 
L 341.798859 291.905664 
L 341.798859 291.905664 
L 341.798859 291.905664 
L 341.798859 291.905664 
L 341.798859 291.905664 
L 341.798859 291.905664 
L 341.798859 291.905664 
L 341.798859 291.905664 
L 341.798859 291.905664 
L 341.798859 291.905664 
L 341.798859 291.905664 
L 341.798859 291.905664 
L 341.798859 291.905664 
L 341.798859 291.905664 
L 341.798859 291.905664 
L 341.798859 291.905664 
L 341.798859 291.905664 
L 341.798859 291.905664 
L 341.798859 291.905664 
L 341.798859 291.905664 
L 341.798859 291.905664 
L 341.798859 291.905664 
L 341.798859 291.905664 
L 341.798859 291.905664 
L 341.798859 291.905664 
L 341.798859 291.905664 
L 341.798859 291.905664 
L 341.798859 291.905664 
L 341.798859 291.905664 
L 341.798859 291.905664 
L 341.798859 291.905664 
L 341.798859 291.905664 
L 341.798859 291.905664 
L 341.798859 291.905664 
L 341.798859 291.905664 
L 341.798859 291.905664 
L 341.798859 291.905664 
L 341.798859 291.905664 
L 341.798859 291.905664 
L 341.798859 291.905664 
L 341.798859 291.905664 
L 341.798859 291.905664 
L 341.798859 291.905664 
L 341.798859 291.905664 
L 341.798859 291.905664 
L 341.798859 291.905664 
L 341.798859 291.905664 
L 341.798859 291.905664 
L 341.798859 291.905664 
L 341.798859 291.905664 
L 341.798859 291.905664 
L 341.798859 291.905664 
L 341.798859 291.905664 
L 341.798859 291.905664 
L 341.798859 291.905664 
L 341.798859 291.905664 
L 341.798859 291.905664 
L 341.798859 291.905664 
L 341.798859 291.905664 
L 341.798859 291.905664 
L 341.798859 291.905664 
L 341.798859 291.905664 
L 341.798859 291.905664 
L 341.798859 291.905664 
L 341.798859 291.905664 
L 341.798859 291.905664 
L 341.798859 291.905664 
L 341.798859 291.905664 
L 341.798859 291.905664 
L 341.798859 291.905664 
L 341.798859 291.905664 
L 341.798859 291.905664 
L 341.798859 291.905664 
L 341.798859 291.905664 
L 341.798859 291.905664 
L 341.798859 291.905664 
L 341.798859 291.905664 
L 341.798859 291.905664 
L 341.798859 291.905664 
L 341.798859 291.905664 
L 341.798859 291.905664 
L 341.798859 291.905664 
L 341.798859 291.905664 
L 341.798859 291.905664 
L 341.798859 291.905664 
L 341.798859 291.905664 
L 341.798859 291.905664 
L 341.798859 291.905664 
L 341.798859 291.905664 
L 341.798859 291.905664 
L 341.798859 291.905664 
L 341.798859 291.905664 
L 341.798859 291.905664 
L 341.798859 291.905664 
L 341.798859 291.905664 
L 341.798859 291.905664 
L 341.798859 291.905664 
L 341.798859 291.905664 
L 341.798859 291.905664 
L 341.798859 291.905664 
L 341.798859 291.905664 
L 341.798859 291.905664 
L 341.798859 291.905664 
L 341.798859 291.905664 
z
" style="fill:#993333;stroke:#000000;stroke-linejoin:miter;"/>
   </g>
   <g id="patch_3">
    <path clip-path="url(#p866d163fa7)" d="M 293.560356 260.319443 
L 347.596866 294.184628 
L 348.272181 293.10707 
L 294.235672 259.241885 
L 294.235672 259.241885 
L 294.235672 259.241885 
L 294.235672 259.241885 
L 294.235672 259.241885 
L 294.235672 259.241885 
L 294.235672 259.241885 
L 294.235672 259.241885 
L 294.235672 259.241885 
L 294.235672 259.241885 
L 294.235672 259.241885 
L 294.235672 259.241885 
L 294.235672 259.241885 
L 294.235672 259.241885 
L 294.235672 259.241885 
L 294.235672 259.241885 
L 294.235672 259.241885 
L 294.235672 259.241885 
L 294.235672 259.241885 
L 294.235672 259.241885 
L 294.235672 259.241885 
L 294.235672 259.241885 
L 294.235672 259.241885 
L 294.235672 259.241885 
L 294.235672 259.241885 
L 294.235672 259.241885 
L 294.235672 259.241885 
L 294.235672 259.241885 
L 294.235672 259.241885 
L 294.235672 259.241885 
L 294.235672 259.241885 
L 294.235672 259.241885 
L 294.235672 259.241885 
L 294.235672 259.241885 
L 294.235672 259.241885 
L 294.235672 259.241885 
L 294.235672 259.241885 
L 294.235672 259.241885 
L 294.235672 259.241885 
L 294.235672 259.241885 
L 294.235672 259.241885 
L 294.235672 259.241885 
L 294.235672 259.241885 
L 294.235672 259.241885 
L 294.235672 259.241885 
L 294.235672 259.241885 
L 294.235672 259.241885 
L 294.235672 259.241885 
L 294.235672 259.241885 
z
" style="stroke:#000000;stroke-linejoin:miter;"/>
   </g>
   <g id="patch_4">
    <path clip-path="url(#p866d163fa7)" d="M 289.102319 255.58516 
L 288.123318 257.074425 
L 287.596674 258.795539 
L 287.544911 260.146269 
L 287.894892 261.936876 
L 288.521722 263.128988 
L 289.66264 264.550686 
L 290.814593 265.29231 
L 292.467111 265.997016 
L 293.86215 266.106576 
L 295.621675 265.921755 
L 296.918244 265.372427 
L 298.353982 264.343329 
L 299.234637 263.269608 
L 299.99507 261.648192 
L 300.244196 260.312962 
L 300.143142 258.496207 
L 299.699744 257.226379 
L 298.761946 255.659091 
L 297.734583 254.765563 
L 296.189646 253.831467 
L 294.829853 253.533007 
L 293.056032 253.460803 
L 291.696732 253.830483 
L 290.12832 254.63785 
L 290.12832 254.63785 
L 290.12832 254.63785 
L 290.12832 254.63785 
L 290.12832 254.63785 
L 290.12832 254.63785 
L 290.12832 254.63785 
L 290.12832 254.63785 
L 290.12832 254.63785 
L 290.12832 254.63785 
L 290.12832 254.63785 
L 290.12832 254.63785 
L 290.12832 254.63785 
L 290.12832 254.63785 
L 290.12832 254.63785 
L 290.12832 254.63785 
L 290.12832 254.63785 
L 290.12832 254.63785 
L 290.12832 254.63785 
L 290.12832 254.63785 
L 290.12832 254.63785 
L 290.12832 254.63785 
L 290.12832 254.63785 
L 290.12832 254.63785 
L 290.12832 254.63785 
L 290.12832 254.63785 
L 290.12832 254.63785 
L 290.12832 254.63785 
L 290.12832 254.63785 
L 290.12832 254.63785 
L 290.12832 254.63785 
L 290.12832 254.63785 
L 290.12832 254.63785 
L 290.12832 254.63785 
L 290.12832 254.63785 
L 290.12832 254.63785 
L 290.12832 254.63785 
L 290.12832 254.63785 
L 290.12832 254.63785 
L 290.12832 254.63785 
L 290.12832 254.63785 
L 290.12832 254.63785 
L 290.12832 254.63785 
L 290.12832 254.63785 
L 290.12832 254.63785 
L 290.12832 254.63785 
L 290.12832 254.63785 
L 290.12832 254.63785 
L 290.12832 254.63785 
L 290.12832 254.63785 
L 290.12832 254.63785 
L 290.12832 254.63785 
L 290.12832 254.63785 
L 290.12832 254.63785 
L 290.12832 254.63785 
L 290.12832 254.63785 
L 290.12832 254.63785 
L 290.12832 254.63785 
L 290.12832 254.63785 
L 290.12832 254.63785 
L 290.12832 254.63785 
L 290.12832 254.63785 
L 290.12832 254.63785 
L 290.12832 254.63785 
L 290.12832 254.63785 
L 290.12832 254.63785 
L 290.12832 254.63785 
L 290.12832 254.63785 
L 290.12832 254.63785 
L 290.12832 254.63785 
L 290.12832 254.63785 
L 290.12832 254.63785 
L 290.12832 254.63785 
L 290.12832 254.63785 
L 290.12832 254.63785 
L 290.12832 254.63785 
L 290.12832 254.63785 
L 290.12832 254.63785 
L 290.12832 254.63785 
L 290.12832 254.63785 
L 290.12832 254.63785 
L 290.12832 254.63785 
L 290.12832 254.63785 
L 290.12832 254.63785 
L 290.12832 254.63785 
L 290.12832 254.63785 
L 290.12832 254.63785 
L 290.12832 254.63785 
L 290.12832 254.63785 
L 290.12832 254.63785 
L 290.12832 254.63785 
L 290.12832 254.63785 
L 290.12832 254.63785 
L 290.12832 254.63785 
L 290.12832 254.63785 
L 290.12832 254.63785 
L 290.12832 254.63785 
L 290.12832 254.63785 
L 290.12832 254.63785 
L 290.12832 254.63785 
L 290.12832 254.63785 
L 290.12832 254.63785 
L 290.12832 254.63785 
L 290.12832 254.63785 
L 290.12832 254.63785 
L 290.12832 254.63785 
L 290.12832 254.63785 
L 290.12832 254.63785 
L 290.12832 254.63785 
L 290.12832 254.63785 
L 290.12832 254.63785 
L 290.12832 254.63785 
L 290.12832 254.63785 
L 290.12832 254.63785 
L 290.12832 254.63785 
L 290.12832 254.63785 
L 290.12832 254.63785 
L 290.12832 254.63785 
L 290.12832 254.63785 
L 290.12832 254.63785 
L 290.12832 254.63785 
L 290.12832 254.63785 
L 290.12832 254.63785 
L 290.12832 254.63785 
L 290.12832 254.63785 
L 290.12832 254.63785 
L 290.12832 254.63785 
L 290.12832 254.63785 
L 290.12832 254.63785 
L 290.12832 254.63785 
L 290.12832 254.63785 
L 290.12832 254.63785 
L 290.12832 254.63785 
L 290.12832 254.63785 
L 290.12832 254.63785 
L 290.12832 254.63785 
L 290.12832 254.63785 
L 290.12832 254.63785 
L 290.12832 254.63785 
L 290.12832 254.63785 
L 290.12832 254.63785 
L 290.12832 254.63785 
L 290.12832 254.63785 
L 290.12832 254.63785 
L 290.12832 254.63785 
z
" style="fill:#993333;stroke:#000000;stroke-linejoin:miter;"/>
   </g>
   <g id="patch_5">
    <path clip-path="url(#p866d163fa7)" d="M 236.430782 232.12663 
L 235.890807 233.277981 
L 293.627827 260.356231 
L 294.167802 259.20488 
L 294.167802 259.20488 
L 294.167802 259.20488 
L 294.167802 259.20488 
L 294.167802 259.20488 
L 294.167802 259.20488 
L 294.167802 259.20488 
L 294.167802 259.20488 
L 294.167802 259.20488 
L 294.167802 259.20488 
L 294.167802 259.20488 
L 294.167802 259.20488 
L 294.167802 259.20488 
L 294.167802 259.20488 
L 294.167802 259.20488 
L 294.167802 259.20488 
L 294.167802 259.20488 
L 294.167802 259.20488 
L 294.167802 259.20488 
L 294.167802 259.20488 
L 294.167802 259.20488 
L 294.167802 259.20488 
L 294.167802 259.20488 
L 294.167802 259.20488 
L 294.167802 259.20488 
L 294.167802 259.20488 
L 294.167802 259.20488 
L 294.167802 259.20488 
L 294.167802 259.20488 
L 294.167802 259.20488 
L 294.167802 259.20488 
L 294.167802 259.20488 
L 294.167802 259.20488 
L 294.167802 259.20488 
L 294.167802 259.20488 
L 294.167802 259.20488 
L 294.167802 259.20488 
L 294.167802 259.20488 
L 294.167802 259.20488 
L 294.167802 259.20488 
L 294.167802 259.20488 
L 294.167802 259.20488 
L 294.167802 259.20488 
L 294.167802 259.20488 
L 294.167802 259.20488 
L 294.167802 259.20488 
L 294.167802 259.20488 
L 294.167802 259.20488 
L 294.167802 259.20488 
z
" style="stroke:#000000;stroke-linejoin:miter;"/>
   </g>
   <g id="text_1">
    <!-- t = 7.0 -->
    <defs>
     <path d="M 18.3125 70.21875 
L 18.3125 54.6875 
L 36.8125 54.6875 
L 36.8125 47.703125 
L 18.3125 47.703125 
L 18.3125 18.015625 
Q 18.3125 11.328125 20.140625 9.421875 
Q 21.96875 7.515625 27.59375 7.515625 
L 36.8125 7.515625 
L 36.8125 0 
L 27.59375 0 
Q 17.1875 0 13.234375 3.875 
Q 9.28125 7.765625 9.28125 18.015625 
L 9.28125 47.703125 
L 2.6875 47.703125 
L 2.6875 54.6875 
L 9.28125 54.6875 
L 9.28125 70.21875 
z
" id="DejaVuSans-116"/>
     <path id="DejaVuSans-32"/>
     <path d="M 10.59375 45.40625 
L 73.1875 45.40625 
L 73.1875 37.203125 
L 10.59375 37.203125 
z
M 10.59375 25.484375 
L 73.1875 25.484375 
L 73.1875 17.1875 
L 10.59375 17.1875 
z
" id="DejaVuSans-61"/>
     <path d="M 8.203125 72.90625 
L 55.078125 72.90625 
L 55.078125 68.703125 
L 28.609375 0 
L 18.3125 0 
L 43.21875 64.59375 
L 8.203125 64.59375 
z
" id="DejaVuSans-55"/>
     <path d="M 10.6875 12.40625 
L 21 12.40625 
L 21 0 
L 10.6875 0 
z
" id="DejaVuSans-46"/>
     <path d="M 31.78125 66.40625 
Q 24.171875 66.40625 20.328125 58.90625 
Q 16.5 51.421875 16.5 36.375 
Q 16.5 21.390625 20.328125 13.890625 
Q 24.171875 6.390625 31.78125 6.390625 
Q 39.453125 6.390625 43.28125 13.890625 
Q 47.125 21.390625 47.125 36.375 
Q 47.125 51.421875 43.28125 58.90625 
Q 39.453125 66.40625 31.78125 66.40625 
z
M 31.78125 74.21875 
Q 44.046875 74.21875 50.515625 64.515625 
Q 56.984375 54.828125 56.984375 36.375 
Q 56.984375 17.96875 50.515625 8.265625 
Q 44.046875 -1.421875 31.78125 -1.421875 
Q 19.53125 -1.421875 13.0625 8.265625 
Q 6.59375 17.96875 6.59375 36.375 
Q 6.59375 54.828125 13.0625 64.515625 
Q 19.53125 74.21875 31.78125 74.21875 
z
" id="DejaVuSans-48"/>
    </defs>
    <g transform="translate(215.424375 49.296)scale(0.12 -0.12)">
     <use xlink:href="#DejaVuSans-116"/>
     <use x="39.208984" xlink:href="#DejaVuSans-32"/>
     <use x="70.996094" xlink:href="#DejaVuSans-61"/>
     <use x="154.785156" xlink:href="#DejaVuSans-32"/>
     <use x="186.572266" xlink:href="#DejaVuSans-55"/>
     <use x="250.195312" xlink:href="#DejaVuSans-46"/>
     <use x="281.982422" xlink:href="#DejaVuSans-48"/>
    </g>
   </g>
  </g>
 </g>
 <defs>
  <clipPath id="p866d163fa7">
   <rect height="354.816" width="357.12" x="57.6" y="55.296"/>
  </clipPath>
 </defs>
</svg>
