<?xml version="1.0" encoding="utf-8" standalone="no"?>
<!DOCTYPE svg PUBLIC "-//W3C//DTD SVG 1.1//EN"
  "http://www.w3.org/Graphics/SVG/1.1/DTD/svg11.dtd">
<!-- Created with matplotlib (https://matplotlib.org/) -->
<svg height="460.8pt" version="1.1" viewBox="0 0 460.8 460.8" width="460.8pt" xmlns="http://www.w3.org/2000/svg" xmlns:xlink="http://www.w3.org/1999/xlink">
 <defs>
  <style type="text/css">
*{stroke-linecap:butt;stroke-linejoin:round;}
  </style>
 </defs>
 <g id="figure_1">
  <g id="patch_1">
   <path d="M 0 460.8 
L 460.8 460.8 
L 460.8 0 
L 0 0 
z
" style="fill:#ffffff;"/>
  </g>
  <g id="axes_1">
   <g id="patch_2">
    <path clip-path="url(#p0ca2fa3ed8)" d="M 228.94252 358.679477 
L 229.746026 359.825126 
L 231.008582 361.064496 
L 232.25757 361.714791 
L 233.965162 362.167024 
L 235.353835 362.16275 
L 237.088385 361.717124 
L 238.276748 361.059327 
L 239.613578 359.824947 
L 240.310678 358.674678 
L 240.922484 356.953763 
L 240.957647 355.592649 
L 240.694639 353.806539 
L 240.059256 352.567827 
L 238.985827 351.153824 
L 237.835461 350.340795 
L 236.214424 349.645097 
L 234.830725 349.456808 
L 233.058966 349.649746 
L 231.396342 350.339142 
L 230.321655 351.159019 
L 229.163445 352.568738 
L 228.643044 353.811007 
L 228.272818 355.595902 
L 228.434117 356.956411 
L 228.434117 356.956411 
L 228.434117 356.956411 
L 228.434117 356.956411 
L 228.434117 356.956411 
L 228.434117 356.956411 
L 228.434117 356.956411 
L 228.434117 356.956411 
L 228.434117 356.956411 
L 228.434117 356.956411 
L 228.434117 356.956411 
L 228.434117 356.956411 
L 228.434117 356.956411 
L 228.434117 356.956411 
L 228.434117 356.956411 
L 228.434117 356.956411 
L 228.434117 356.956411 
L 228.434117 356.956411 
L 228.434117 356.956411 
L 228.434117 356.956411 
L 228.434117 356.956411 
L 228.434117 356.956411 
L 228.434117 356.956411 
L 228.434117 356.956411 
L 228.434117 356.956411 
L 228.434117 356.956411 
L 228.434117 356.956411 
L 228.434117 356.956411 
L 228.434117 356.956411 
L 228.434117 356.956411 
L 228.434117 356.956411 
L 228.434117 356.956411 
L 228.434117 356.956411 
L 228.434117 356.956411 
L 228.434117 356.956411 
L 228.434117 356.956411 
L 228.434117 356.956411 
L 228.434117 356.956411 
L 228.434117 356.956411 
L 228.434117 356.956411 
L 228.434117 356.956411 
L 228.434117 356.956411 
L 228.434117 356.956411 
L 228.434117 356.956411 
L 228.434117 356.956411 
L 228.434117 356.956411 
L 228.434117 356.956411 
L 228.434117 356.956411 
L 228.434117 356.956411 
L 228.434117 356.956411 
L 228.434117 356.956411 
L 228.434117 356.956411 
L 228.434117 356.956411 
L 228.434117 356.956411 
L 228.434117 356.956411 
L 228.434117 356.956411 
L 228.434117 356.956411 
L 228.434117 356.956411 
L 228.434117 356.956411 
L 228.434117 356.956411 
L 228.434117 356.956411 
L 228.434117 356.956411 
L 228.434117 356.956411 
L 228.434117 356.956411 
L 228.434117 356.956411 
L 228.434117 356.956411 
L 228.434117 356.956411 
L 228.434117 356.956411 
L 228.434117 356.956411 
L 228.434117 356.956411 
L 228.434117 356.956411 
L 228.434117 356.956411 
L 228.434117 356.956411 
L 228.434117 356.956411 
L 228.434117 356.956411 
L 228.434117 356.956411 
L 228.434117 356.956411 
L 228.434117 356.956411 
L 228.434117 356.956411 
L 228.434117 356.956411 
L 228.434117 356.956411 
L 228.434117 356.956411 
L 228.434117 356.956411 
L 228.434117 356.956411 
L 228.434117 356.956411 
L 228.434117 356.956411 
L 228.434117 356.956411 
L 228.434117 356.956411 
L 228.434117 356.956411 
L 228.434117 356.956411 
L 228.434117 356.956411 
L 228.434117 356.956411 
L 228.434117 356.956411 
L 228.434117 356.956411 
L 228.434117 356.956411 
L 228.434117 356.956411 
L 228.434117 356.956411 
L 228.434117 356.956411 
L 228.434117 356.956411 
L 228.434117 356.956411 
L 228.434117 356.956411 
L 228.434117 356.956411 
L 228.434117 356.956411 
L 228.434117 356.956411 
L 228.434117 356.956411 
L 228.434117 356.956411 
L 228.434117 356.956411 
L 228.434117 356.956411 
L 228.434117 356.956411 
L 228.434117 356.956411 
L 228.434117 356.956411 
L 228.434117 356.956411 
L 228.434117 356.956411 
L 228.434117 356.956411 
L 228.434117 356.956411 
L 228.434117 356.956411 
L 228.434117 356.956411 
L 228.434117 356.956411 
L 228.434117 356.956411 
L 228.434117 356.956411 
L 228.434117 356.956411 
L 228.434117 356.956411 
L 228.434117 356.956411 
L 228.434117 356.956411 
L 228.434117 356.956411 
L 228.434117 356.956411 
L 228.434117 356.956411 
L 228.434117 356.956411 
L 228.434117 356.956411 
L 228.434117 356.956411 
L 228.434117 356.956411 
L 228.434117 356.956411 
L 228.434117 356.956411 
L 228.434117 356.956411 
L 228.434117 356.956411 
L 228.434117 356.956411 
L 228.434117 356.956411 
L 228.434117 356.956411 
L 228.434117 356.956411 
L 228.434117 356.956411 
L 228.434117 356.956411 
L 228.434117 356.956411 
L 228.434117 356.956411 
L 228.434117 356.956411 
L 228.434117 356.956411 
z
" style="fill:#993333;stroke:#000000;stroke-linejoin:miter;"/>
   </g>
   <g id="patch_3">
    <path clip-path="url(#p0ca2fa3ed8)" d="M 219.39514 293.902005 
L 218.163453 294.21844 
L 234.031767 355.984059 
L 235.263454 355.667625 
L 235.263454 355.667625 
L 235.263454 355.667625 
L 235.263454 355.667625 
L 235.263454 355.667625 
L 235.263454 355.667625 
L 235.263454 355.667625 
L 235.263454 355.667625 
L 235.263454 355.667625 
L 235.263454 355.667625 
L 235.263454 355.667625 
L 235.263454 355.667625 
L 235.263454 355.667625 
L 235.263454 355.667625 
L 235.263454 355.667625 
L 235.263454 355.667625 
L 235.263454 355.667625 
L 235.263454 355.667625 
L 235.263454 355.667625 
L 235.263454 355.667625 
L 235.263454 355.667625 
L 235.263454 355.667625 
L 235.263454 355.667625 
L 235.263454 355.667625 
L 235.263454 355.667625 
L 235.263454 355.667625 
L 235.263454 355.667625 
L 235.263454 355.667625 
L 235.263454 355.667625 
L 235.263454 355.667625 
L 235.263454 355.667625 
L 235.263454 355.667625 
L 235.263454 355.667625 
L 235.263454 355.667625 
L 235.263454 355.667625 
L 235.263454 355.667625 
L 235.263454 355.667625 
L 235.263454 355.667625 
L 235.263454 355.667625 
L 235.263454 355.667625 
L 235.263454 355.667625 
L 235.263454 355.667625 
L 235.263454 355.667625 
L 235.263454 355.667625 
L 235.263454 355.667625 
L 235.263454 355.667625 
L 235.263454 355.667625 
L 235.263454 355.667625 
L 235.263454 355.667625 
z
" style="stroke:#000000;stroke-linejoin:miter;"/>
   </g>
   <g id="patch_4">
    <path clip-path="url(#p0ca2fa3ed8)" d="M 225.020742 295.360566 
L 225.095321 293.970402 
L 224.879652 292.208261 
L 224.29497 290.926659 
L 223.244539 289.509495 
L 222.143745 288.650235 
L 220.515735 287.92502 
L 218.7321 287.683707 
L 217.390785 287.85111 
L 215.680368 288.486119 
L 214.605346 289.297522 
L 213.386918 290.65338 
L 212.841393 291.910123 
L 212.413266 293.654868 
L 212.530801 295.049258 
L 212.997797 296.755716 
L 213.749615 297.946356 
L 214.997396 299.196727 
L 216.199427 299.892108 
L 217.922493 300.380257 
L 219.280437 300.410124 
L 221.056921 300.016536 
L 222.238306 299.373578 
L 223.633264 298.194616 
L 224.348846 297.03625 
L 224.348846 297.03625 
L 224.348846 297.03625 
L 224.348846 297.03625 
L 224.348846 297.03625 
L 224.348846 297.03625 
L 224.348846 297.03625 
L 224.348846 297.03625 
L 224.348846 297.03625 
L 224.348846 297.03625 
L 224.348846 297.03625 
L 224.348846 297.03625 
L 224.348846 297.03625 
L 224.348846 297.03625 
L 224.348846 297.03625 
L 224.348846 297.03625 
L 224.348846 297.03625 
L 224.348846 297.03625 
L 224.348846 297.03625 
L 224.348846 297.03625 
L 224.348846 297.03625 
L 224.348846 297.03625 
L 224.348846 297.03625 
L 224.348846 297.03625 
L 224.348846 297.03625 
L 224.348846 297.03625 
L 224.348846 297.03625 
L 224.348846 297.03625 
L 224.348846 297.03625 
L 224.348846 297.03625 
L 224.348846 297.03625 
L 224.348846 297.03625 
L 224.348846 297.03625 
L 224.348846 297.03625 
L 224.348846 297.03625 
L 224.348846 297.03625 
L 224.348846 297.03625 
L 224.348846 297.03625 
L 224.348846 297.03625 
L 224.348846 297.03625 
L 224.348846 297.03625 
L 224.348846 297.03625 
L 224.348846 297.03625 
L 224.348846 297.03625 
L 224.348846 297.03625 
L 224.348846 297.03625 
L 224.348846 297.03625 
L 224.348846 297.03625 
L 224.348846 297.03625 
L 224.348846 297.03625 
L 224.348846 297.03625 
L 224.348846 297.03625 
L 224.348846 297.03625 
L 224.348846 297.03625 
L 224.348846 297.03625 
L 224.348846 297.03625 
L 224.348846 297.03625 
L 224.348846 297.03625 
L 224.348846 297.03625 
L 224.348846 297.03625 
L 224.348846 297.03625 
L 224.348846 297.03625 
L 224.348846 297.03625 
L 224.348846 297.03625 
L 224.348846 297.03625 
L 224.348846 297.03625 
L 224.348846 297.03625 
L 224.348846 297.03625 
L 224.348846 297.03625 
L 224.348846 297.03625 
L 224.348846 297.03625 
L 224.348846 297.03625 
L 224.348846 297.03625 
L 224.348846 297.03625 
L 224.348846 297.03625 
L 224.348846 297.03625 
L 224.348846 297.03625 
L 224.348846 297.03625 
L 224.348846 297.03625 
L 224.348846 297.03625 
L 224.348846 297.03625 
L 224.348846 297.03625 
L 224.348846 297.03625 
L 224.348846 297.03625 
L 224.348846 297.03625 
L 224.348846 297.03625 
L 224.348846 297.03625 
L 224.348846 297.03625 
L 224.348846 297.03625 
L 224.348846 297.03625 
L 224.348846 297.03625 
L 224.348846 297.03625 
L 224.348846 297.03625 
L 224.348846 297.03625 
L 224.348846 297.03625 
L 224.348846 297.03625 
L 224.348846 297.03625 
L 224.348846 297.03625 
L 224.348846 297.03625 
L 224.348846 297.03625 
L 224.348846 297.03625 
L 224.348846 297.03625 
L 224.348846 297.03625 
L 224.348846 297.03625 
L 224.348846 297.03625 
L 224.348846 297.03625 
L 224.348846 297.03625 
L 224.348846 297.03625 
L 224.348846 297.03625 
L 224.348846 297.03625 
L 224.348846 297.03625 
L 224.348846 297.03625 
L 224.348846 297.03625 
L 224.348846 297.03625 
L 224.348846 297.03625 
L 224.348846 297.03625 
L 224.348846 297.03625 
L 224.348846 297.03625 
L 224.348846 297.03625 
L 224.348846 297.03625 
L 224.348846 297.03625 
L 224.348846 297.03625 
L 224.348846 297.03625 
L 224.348846 297.03625 
L 224.348846 297.03625 
L 224.348846 297.03625 
L 224.348846 297.03625 
L 224.348846 297.03625 
L 224.348846 297.03625 
L 224.348846 297.03625 
L 224.348846 297.03625 
L 224.348846 297.03625 
L 224.348846 297.03625 
L 224.348846 297.03625 
L 224.348846 297.03625 
L 224.348846 297.03625 
L 224.348846 297.03625 
L 224.348846 297.03625 
L 224.348846 297.03625 
L 224.348846 297.03625 
L 224.348846 297.03625 
L 224.348846 297.03625 
L 224.348846 297.03625 
L 224.348846 297.03625 
L 224.348846 297.03625 
z
" style="fill:#993333;stroke:#000000;stroke-linejoin:miter;"/>
   </g>
   <g id="patch_5">
    <path clip-path="url(#p0ca2fa3ed8)" d="M 218.167519 293.887884 
L 219.39105 294.234514 
L 236.773567 232.877825 
L 235.550035 232.531195 
L 235.550035 232.531195 
L 235.550035 232.531195 
L 235.550035 232.531195 
L 235.550035 232.531195 
L 235.550035 232.531195 
L 235.550035 232.531195 
L 235.550035 232.531195 
L 235.550035 232.531195 
L 235.550035 232.531195 
L 235.550035 232.531195 
L 235.550035 232.531195 
L 235.550035 232.531195 
L 235.550035 232.531195 
L 235.550035 232.531195 
L 235.550035 232.531195 
L 235.550035 232.531195 
L 235.550035 232.531195 
L 235.550035 232.531195 
L 235.550035 232.531195 
L 235.550035 232.531195 
L 235.550035 232.531195 
L 235.550035 232.531195 
L 235.550035 232.531195 
L 235.550035 232.531195 
L 235.550035 232.531195 
L 235.550035 232.531195 
L 235.550035 232.531195 
L 235.550035 232.531195 
L 235.550035 232.531195 
L 235.550035 232.531195 
L 235.550035 232.531195 
L 235.550035 232.531195 
L 235.550035 232.531195 
L 235.550035 232.531195 
L 235.550035 232.531195 
L 235.550035 232.531195 
L 235.550035 232.531195 
L 235.550035 232.531195 
L 235.550035 232.531195 
L 235.550035 232.531195 
L 235.550035 232.531195 
L 235.550035 232.531195 
L 235.550035 232.531195 
L 235.550035 232.531195 
L 235.550035 232.531195 
L 235.550035 232.531195 
L 235.550035 232.531195 
L 235.550035 232.531195 
z
" style="stroke:#000000;stroke-linejoin:miter;"/>
   </g>
   <g id="text_1">
    <!-- t = 0.7 -->
    <defs>
     <path d="M 18.3125 70.21875 
L 18.3125 54.6875 
L 36.8125 54.6875 
L 36.8125 47.703125 
L 18.3125 47.703125 
L 18.3125 18.015625 
Q 18.3125 11.328125 20.140625 9.421875 
Q 21.96875 7.515625 27.59375 7.515625 
L 36.8125 7.515625 
L 36.8125 0 
L 27.59375 0 
Q 17.1875 0 13.234375 3.875 
Q 9.28125 7.765625 9.28125 18.015625 
L 9.28125 47.703125 
L 2.6875 47.703125 
L 2.6875 54.6875 
L 9.28125 54.6875 
L 9.28125 70.21875 
z
" id="DejaVuSans-116"/>
     <path id="DejaVuSans-32"/>
     <path d="M 10.59375 45.40625 
L 73.1875 45.40625 
L 73.1875 37.203125 
L 10.59375 37.203125 
z
M 10.59375 25.484375 
L 73.1875 25.484375 
L 73.1875 17.1875 
L 10.59375 17.1875 
z
" id="DejaVuSans-61"/>
     <path d="M 31.78125 66.40625 
Q 24.171875 66.40625 20.328125 58.90625 
Q 16.5 51.421875 16.5 36.375 
Q 16.5 21.390625 20.328125 13.890625 
Q 24.171875 6.390625 31.78125 6.390625 
Q 39.453125 6.390625 43.28125 13.890625 
Q 47.125 21.390625 47.125 36.375 
Q 47.125 51.421875 43.28125 58.90625 
Q 39.453125 66.40625 31.78125 66.40625 
z
M 31.78125 74.21875 
Q 44.046875 74.21875 50.515625 64.515625 
Q 56.984375 54.828125 56.984375 36.375 
Q 56.984375 17.96875 50.515625 8.265625 
Q 44.046875 -1.421875 31.78125 -1.421875 
Q 19.53125 -1.421875 13.0625 8.265625 
Q 6.59375 17.96875 6.59375 36.375 
Q 6.59375 54.828125 13.0625 64.515625 
Q 19.53125 74.21875 31.78125 74.21875 
z
" id="DejaVuSans-48"/>
     <path d="M 10.6875 12.40625 
L 21 12.40625 
L 21 0 
L 10.6875 0 
z
" id="DejaVuSans-46"/>
     <path d="M 8.203125 72.90625 
L 55.078125 72.90625 
L 55.078125 68.703125 
L 28.609375 0 
L 18.3125 0 
L 43.21875 64.59375 
L 8.203125 64.59375 
z
" id="DejaVuSans-55"/>
    </defs>
    <g transform="translate(215.424375 49.296)scale(0.12 -0.12)">
     <use xlink:href="#DejaVuSans-116"/>
     <use x="39.208984" xlink:href="#DejaVuSans-32"/>
     <use x="70.996094" xlink:href="#DejaVuSans-61"/>
     <use x="154.785156" xlink:href="#DejaVuSans-32"/>
     <use x="186.572266" xlink:href="#DejaVuSans-48"/>
     <use x="250.195312" xlink:href="#DejaVuSans-46"/>
     <use x="281.982422" xlink:href="#DejaVuSans-55"/>
    </g>
   </g>
  </g>
 </g>
 <defs>
  <clipPath id="p0ca2fa3ed8">
   <rect height="354.816" width="357.12" x="57.6" y="55.296"/>
  </clipPath>
 </defs>
</svg>
