<?xml version="1.0" encoding="utf-8" standalone="no"?>
<!DOCTYPE svg PUBLIC "-//W3C//DTD SVG 1.1//EN"
  "http://www.w3.org/Graphics/SVG/1.1/DTD/svg11.dtd">
<!-- Created with matplotlib (https://matplotlib.org/) -->
<svg height="460.8pt" version="1.1" viewBox="0 0 460.8 460.8" width="460.8pt" xmlns="http://www.w3.org/2000/svg" xmlns:xlink="http://www.w3.org/1999/xlink">
 <defs>
  <style type="text/css">
*{stroke-linecap:butt;stroke-linejoin:round;}
  </style>
 </defs>
 <g id="figure_1">
  <g id="patch_1">
   <path d="M 0 460.8 
L 460.8 460.8 
L 460.8 0 
L 0 0 
z
" style="fill:#ffffff;"/>
  </g>
  <g id="axes_1">
   <g id="patch_2">
    <path clip-path="url(#p361d6517e7)" d="M 341.659942 292.062618 
L 340.651667 293.532222 
L 340.091074 295.242579 
L 340.012596 296.592021 
L 340.327081 298.389202 
L 340.930201 299.593483 
L 342.042767 301.037475 
L 343.179822 301.801745 
L 344.818074 302.53901 
L 346.210672 302.676149 
L 347.973509 302.526177 
L 349.280693 302.002609 
L 350.736511 301.002119 
L 351.638238 299.946032 
L 352.430602 298.339979 
L 352.706097 297.009939 
L 352.641008 295.191541 
L 352.22282 293.913189 
L 351.316215 292.327653 
L 350.306732 291.413973 
L 348.780579 290.449494 
L 347.426956 290.124187 
L 345.654911 290.016903 
L 344.288564 290.359616 
L 342.704485 291.135793 
L 342.704485 291.135793 
L 342.704485 291.135793 
L 342.704485 291.135793 
L 342.704485 291.135793 
L 342.704485 291.135793 
L 342.704485 291.135793 
L 342.704485 291.135793 
L 342.704485 291.135793 
L 342.704485 291.135793 
L 342.704485 291.135793 
L 342.704485 291.135793 
L 342.704485 291.135793 
L 342.704485 291.135793 
L 342.704485 291.135793 
L 342.704485 291.135793 
L 342.704485 291.135793 
L 342.704485 291.135793 
L 342.704485 291.135793 
L 342.704485 291.135793 
L 342.704485 291.135793 
L 342.704485 291.135793 
L 342.704485 291.135793 
L 342.704485 291.135793 
L 342.704485 291.135793 
L 342.704485 291.135793 
L 342.704485 291.135793 
L 342.704485 291.135793 
L 342.704485 291.135793 
L 342.704485 291.135793 
L 342.704485 291.135793 
L 342.704485 291.135793 
L 342.704485 291.135793 
L 342.704485 291.135793 
L 342.704485 291.135793 
L 342.704485 291.135793 
L 342.704485 291.135793 
L 342.704485 291.135793 
L 342.704485 291.135793 
L 342.704485 291.135793 
L 342.704485 291.135793 
L 342.704485 291.135793 
L 342.704485 291.135793 
L 342.704485 291.135793 
L 342.704485 291.135793 
L 342.704485 291.135793 
L 342.704485 291.135793 
L 342.704485 291.135793 
L 342.704485 291.135793 
L 342.704485 291.135793 
L 342.704485 291.135793 
L 342.704485 291.135793 
L 342.704485 291.135793 
L 342.704485 291.135793 
L 342.704485 291.135793 
L 342.704485 291.135793 
L 342.704485 291.135793 
L 342.704485 291.135793 
L 342.704485 291.135793 
L 342.704485 291.135793 
L 342.704485 291.135793 
L 342.704485 291.135793 
L 342.704485 291.135793 
L 342.704485 291.135793 
L 342.704485 291.135793 
L 342.704485 291.135793 
L 342.704485 291.135793 
L 342.704485 291.135793 
L 342.704485 291.135793 
L 342.704485 291.135793 
L 342.704485 291.135793 
L 342.704485 291.135793 
L 342.704485 291.135793 
L 342.704485 291.135793 
L 342.704485 291.135793 
L 342.704485 291.135793 
L 342.704485 291.135793 
L 342.704485 291.135793 
L 342.704485 291.135793 
L 342.704485 291.135793 
L 342.704485 291.135793 
L 342.704485 291.135793 
L 342.704485 291.135793 
L 342.704485 291.135793 
L 342.704485 291.135793 
L 342.704485 291.135793 
L 342.704485 291.135793 
L 342.704485 291.135793 
L 342.704485 291.135793 
L 342.704485 291.135793 
L 342.704485 291.135793 
L 342.704485 291.135793 
L 342.704485 291.135793 
L 342.704485 291.135793 
L 342.704485 291.135793 
L 342.704485 291.135793 
L 342.704485 291.135793 
L 342.704485 291.135793 
L 342.704485 291.135793 
L 342.704485 291.135793 
L 342.704485 291.135793 
L 342.704485 291.135793 
L 342.704485 291.135793 
L 342.704485 291.135793 
L 342.704485 291.135793 
L 342.704485 291.135793 
L 342.704485 291.135793 
L 342.704485 291.135793 
L 342.704485 291.135793 
L 342.704485 291.135793 
L 342.704485 291.135793 
L 342.704485 291.135793 
L 342.704485 291.135793 
L 342.704485 291.135793 
L 342.704485 291.135793 
L 342.704485 291.135793 
L 342.704485 291.135793 
L 342.704485 291.135793 
L 342.704485 291.135793 
L 342.704485 291.135793 
L 342.704485 291.135793 
L 342.704485 291.135793 
L 342.704485 291.135793 
L 342.704485 291.135793 
L 342.704485 291.135793 
L 342.704485 291.135793 
L 342.704485 291.135793 
L 342.704485 291.135793 
L 342.704485 291.135793 
L 342.704485 291.135793 
L 342.704485 291.135793 
L 342.704485 291.135793 
L 342.704485 291.135793 
L 342.704485 291.135793 
L 342.704485 291.135793 
L 342.704485 291.135793 
L 342.704485 291.135793 
L 342.704485 291.135793 
L 342.704485 291.135793 
L 342.704485 291.135793 
L 342.704485 291.135793 
L 342.704485 291.135793 
L 342.704485 291.135793 
L 342.704485 291.135793 
L 342.704485 291.135793 
z
" style="fill:#993333;stroke:#000000;stroke-linejoin:miter;"/>
   </g>
   <g id="patch_3">
    <path clip-path="url(#p361d6517e7)" d="M 289.462848 267.56656 
L 288.900199 268.707003 
L 346.090167 296.922294 
L 346.652816 295.781852 
L 346.652816 295.781852 
L 346.652816 295.781852 
L 346.652816 295.781852 
L 346.652816 295.781852 
L 346.652816 295.781852 
L 346.652816 295.781852 
L 346.652816 295.781852 
L 346.652816 295.781852 
L 346.652816 295.781852 
L 346.652816 295.781852 
L 346.652816 295.781852 
L 346.652816 295.781852 
L 346.652816 295.781852 
L 346.652816 295.781852 
L 346.652816 295.781852 
L 346.652816 295.781852 
L 346.652816 295.781852 
L 346.652816 295.781852 
L 346.652816 295.781852 
L 346.652816 295.781852 
L 346.652816 295.781852 
L 346.652816 295.781852 
L 346.652816 295.781852 
L 346.652816 295.781852 
L 346.652816 295.781852 
L 346.652816 295.781852 
L 346.652816 295.781852 
L 346.652816 295.781852 
L 346.652816 295.781852 
L 346.652816 295.781852 
L 346.652816 295.781852 
L 346.652816 295.781852 
L 346.652816 295.781852 
L 346.652816 295.781852 
L 346.652816 295.781852 
L 346.652816 295.781852 
L 346.652816 295.781852 
L 346.652816 295.781852 
L 346.652816 295.781852 
L 346.652816 295.781852 
L 346.652816 295.781852 
L 346.652816 295.781852 
L 346.652816 295.781852 
L 346.652816 295.781852 
L 346.652816 295.781852 
L 346.652816 295.781852 
L 346.652816 295.781852 
L 346.652816 295.781852 
z
" style="stroke:#000000;stroke-linejoin:miter;"/>
   </g>
   <g id="patch_4">
    <path clip-path="url(#p361d6517e7)" d="M 282.845874 267.545303 
L 282.923235 269.368151 
L 283.364107 270.640817 
L 284.278802 272.217602 
L 285.306444 273.123667 
L 286.834524 274.068336 
L 288.197333 274.385965 
L 289.964671 274.467231 
L 291.328983 274.118655 
L 292.902872 273.316621 
L 293.934658 272.387185 
L 294.929756 270.898217 
L 295.376396 269.61548 
L 295.549068 267.804128 
L 295.301211 266.482148 
L 294.609181 264.791896 
L 293.72751 263.754339 
L 292.340211 262.599019 
L 291.040591 262.099916 
L 289.297682 261.76239 
L 287.898304 261.923939 
L 286.22651 262.486846 
L 285.069991 263.269494 
L 283.878626 264.595014 
L 283.099712 266.217629 
L 283.099712 266.217629 
L 283.099712 266.217629 
L 283.099712 266.217629 
L 283.099712 266.217629 
L 283.099712 266.217629 
L 283.099712 266.217629 
L 283.099712 266.217629 
L 283.099712 266.217629 
L 283.099712 266.217629 
L 283.099712 266.217629 
L 283.099712 266.217629 
L 283.099712 266.217629 
L 283.099712 266.217629 
L 283.099712 266.217629 
L 283.099712 266.217629 
L 283.099712 266.217629 
L 283.099712 266.217629 
L 283.099712 266.217629 
L 283.099712 266.217629 
L 283.099712 266.217629 
L 283.099712 266.217629 
L 283.099712 266.217629 
L 283.099712 266.217629 
L 283.099712 266.217629 
L 283.099712 266.217629 
L 283.099712 266.217629 
L 283.099712 266.217629 
L 283.099712 266.217629 
L 283.099712 266.217629 
L 283.099712 266.217629 
L 283.099712 266.217629 
L 283.099712 266.217629 
L 283.099712 266.217629 
L 283.099712 266.217629 
L 283.099712 266.217629 
L 283.099712 266.217629 
L 283.099712 266.217629 
L 283.099712 266.217629 
L 283.099712 266.217629 
L 283.099712 266.217629 
L 283.099712 266.217629 
L 283.099712 266.217629 
L 283.099712 266.217629 
L 283.099712 266.217629 
L 283.099712 266.217629 
L 283.099712 266.217629 
L 283.099712 266.217629 
L 283.099712 266.217629 
L 283.099712 266.217629 
L 283.099712 266.217629 
L 283.099712 266.217629 
L 283.099712 266.217629 
L 283.099712 266.217629 
L 283.099712 266.217629 
L 283.099712 266.217629 
L 283.099712 266.217629 
L 283.099712 266.217629 
L 283.099712 266.217629 
L 283.099712 266.217629 
L 283.099712 266.217629 
L 283.099712 266.217629 
L 283.099712 266.217629 
L 283.099712 266.217629 
L 283.099712 266.217629 
L 283.099712 266.217629 
L 283.099712 266.217629 
L 283.099712 266.217629 
L 283.099712 266.217629 
L 283.099712 266.217629 
L 283.099712 266.217629 
L 283.099712 266.217629 
L 283.099712 266.217629 
L 283.099712 266.217629 
L 283.099712 266.217629 
L 283.099712 266.217629 
L 283.099712 266.217629 
L 283.099712 266.217629 
L 283.099712 266.217629 
L 283.099712 266.217629 
L 283.099712 266.217629 
L 283.099712 266.217629 
L 283.099712 266.217629 
L 283.099712 266.217629 
L 283.099712 266.217629 
L 283.099712 266.217629 
L 283.099712 266.217629 
L 283.099712 266.217629 
L 283.099712 266.217629 
L 283.099712 266.217629 
L 283.099712 266.217629 
L 283.099712 266.217629 
L 283.099712 266.217629 
L 283.099712 266.217629 
L 283.099712 266.217629 
L 283.099712 266.217629 
L 283.099712 266.217629 
L 283.099712 266.217629 
L 283.099712 266.217629 
L 283.099712 266.217629 
L 283.099712 266.217629 
L 283.099712 266.217629 
L 283.099712 266.217629 
L 283.099712 266.217629 
L 283.099712 266.217629 
L 283.099712 266.217629 
L 283.099712 266.217629 
L 283.099712 266.217629 
L 283.099712 266.217629 
L 283.099712 266.217629 
L 283.099712 266.217629 
L 283.099712 266.217629 
L 283.099712 266.217629 
L 283.099712 266.217629 
L 283.099712 266.217629 
L 283.099712 266.217629 
L 283.099712 266.217629 
L 283.099712 266.217629 
L 283.099712 266.217629 
L 283.099712 266.217629 
L 283.099712 266.217629 
L 283.099712 266.217629 
L 283.099712 266.217629 
L 283.099712 266.217629 
L 283.099712 266.217629 
L 283.099712 266.217629 
L 283.099712 266.217629 
L 283.099712 266.217629 
L 283.099712 266.217629 
L 283.099712 266.217629 
L 283.099712 266.217629 
L 283.099712 266.217629 
L 283.099712 266.217629 
L 283.099712 266.217629 
L 283.099712 266.217629 
L 283.099712 266.217629 
L 283.099712 266.217629 
L 283.099712 266.217629 
L 283.099712 266.217629 
L 283.099712 266.217629 
L 283.099712 266.217629 
L 283.099712 266.217629 
L 283.099712 266.217629 
L 283.099712 266.217629 
L 283.099712 266.217629 
z
" style="fill:#993333;stroke:#000000;stroke-linejoin:miter;"/>
   </g>
   <g id="patch_5">
    <path clip-path="url(#p361d6517e7)" d="M 236.514345 232.173793 
L 235.807736 233.231094 
L 288.828431 268.665555 
L 289.53504 267.608253 
L 289.53504 267.608253 
L 289.53504 267.608253 
L 289.53504 267.608253 
L 289.53504 267.608253 
L 289.53504 267.608253 
L 289.53504 267.608253 
L 289.53504 267.608253 
L 289.53504 267.608253 
L 289.53504 267.608253 
L 289.53504 267.608253 
L 289.53504 267.608253 
L 289.53504 267.608253 
L 289.53504 267.608253 
L 289.53504 267.608253 
L 289.53504 267.608253 
L 289.53504 267.608253 
L 289.53504 267.608253 
L 289.53504 267.608253 
L 289.53504 267.608253 
L 289.53504 267.608253 
L 289.53504 267.608253 
L 289.53504 267.608253 
L 289.53504 267.608253 
L 289.53504 267.608253 
L 289.53504 267.608253 
L 289.53504 267.608253 
L 289.53504 267.608253 
L 289.53504 267.608253 
L 289.53504 267.608253 
L 289.53504 267.608253 
L 289.53504 267.608253 
L 289.53504 267.608253 
L 289.53504 267.608253 
L 289.53504 267.608253 
L 289.53504 267.608253 
L 289.53504 267.608253 
L 289.53504 267.608253 
L 289.53504 267.608253 
L 289.53504 267.608253 
L 289.53504 267.608253 
L 289.53504 267.608253 
L 289.53504 267.608253 
L 289.53504 267.608253 
L 289.53504 267.608253 
L 289.53504 267.608253 
L 289.53504 267.608253 
L 289.53504 267.608253 
L 289.53504 267.608253 
z
" style="stroke:#000000;stroke-linejoin:miter;"/>
   </g>
   <g id="text_1">
    <!-- t = 7.3 -->
    <defs>
     <path d="M 18.3125 70.21875 
L 18.3125 54.6875 
L 36.8125 54.6875 
L 36.8125 47.703125 
L 18.3125 47.703125 
L 18.3125 18.015625 
Q 18.3125 11.328125 20.140625 9.421875 
Q 21.96875 7.515625 27.59375 7.515625 
L 36.8125 7.515625 
L 36.8125 0 
L 27.59375 0 
Q 17.1875 0 13.234375 3.875 
Q 9.28125 7.765625 9.28125 18.015625 
L 9.28125 47.703125 
L 2.6875 47.703125 
L 2.6875 54.6875 
L 9.28125 54.6875 
L 9.28125 70.21875 
z
" id="DejaVuSans-116"/>
     <path id="DejaVuSans-32"/>
     <path d="M 10.59375 45.40625 
L 73.1875 45.40625 
L 73.1875 37.203125 
L 10.59375 37.203125 
z
M 10.59375 25.484375 
L 73.1875 25.484375 
L 73.1875 17.1875 
L 10.59375 17.1875 
z
" id="DejaVuSans-61"/>
     <path d="M 8.203125 72.90625 
L 55.078125 72.90625 
L 55.078125 68.703125 
L 28.609375 0 
L 18.3125 0 
L 43.21875 64.59375 
L 8.203125 64.59375 
z
" id="DejaVuSans-55"/>
     <path d="M 10.6875 12.40625 
L 21 12.40625 
L 21 0 
L 10.6875 0 
z
" id="DejaVuSans-46"/>
     <path d="M 40.578125 39.3125 
Q 47.65625 37.796875 51.625 33 
Q 55.609375 28.21875 55.609375 21.1875 
Q 55.609375 10.40625 48.1875 4.484375 
Q 40.765625 -1.421875 27.09375 -1.421875 
Q 22.515625 -1.421875 17.65625 -0.515625 
Q 12.796875 0.390625 7.625 2.203125 
L 7.625 11.71875 
Q 11.71875 9.328125 16.59375 8.109375 
Q 21.484375 6.890625 26.8125 6.890625 
Q 36.078125 6.890625 40.9375 10.546875 
Q 45.796875 14.203125 45.796875 21.1875 
Q 45.796875 27.640625 41.28125 31.265625 
Q 36.765625 34.90625 28.71875 34.90625 
L 20.21875 34.90625 
L 20.21875 43.015625 
L 29.109375 43.015625 
Q 36.375 43.015625 40.234375 45.921875 
Q 44.09375 48.828125 44.09375 54.296875 
Q 44.09375 59.90625 40.109375 62.90625 
Q 36.140625 65.921875 28.71875 65.921875 
Q 24.65625 65.921875 20.015625 65.03125 
Q 15.375 64.15625 9.8125 62.3125 
L 9.8125 71.09375 
Q 15.4375 72.65625 20.34375 73.4375 
Q 25.25 74.21875 29.59375 74.21875 
Q 40.828125 74.21875 47.359375 69.109375 
Q 53.90625 64.015625 53.90625 55.328125 
Q 53.90625 49.265625 50.4375 45.09375 
Q 46.96875 40.921875 40.578125 39.3125 
z
" id="DejaVuSans-51"/>
    </defs>
    <g transform="translate(215.424375 49.296)scale(0.12 -0.12)">
     <use xlink:href="#DejaVuSans-116"/>
     <use x="39.208984" xlink:href="#DejaVuSans-32"/>
     <use x="70.996094" xlink:href="#DejaVuSans-61"/>
     <use x="154.785156" xlink:href="#DejaVuSans-32"/>
     <use x="186.572266" xlink:href="#DejaVuSans-55"/>
     <use x="250.195312" xlink:href="#DejaVuSans-46"/>
     <use x="281.982422" xlink:href="#DejaVuSans-51"/>
    </g>
   </g>
  </g>
 </g>
 <defs>
  <clipPath id="p361d6517e7">
   <rect height="354.816" width="357.12" x="57.6" y="55.296"/>
  </clipPath>
 </defs>
</svg>
