<?xml version="1.0" encoding="utf-8" standalone="no"?>
<!DOCTYPE svg PUBLIC "-//W3C//DTD SVG 1.1//EN"
  "http://www.w3.org/Graphics/SVG/1.1/DTD/svg11.dtd">
<!-- Created with matplotlib (https://matplotlib.org/) -->
<svg height="460.8pt" version="1.1" viewBox="0 0 460.8 460.8" width="460.8pt" xmlns="http://www.w3.org/2000/svg" xmlns:xlink="http://www.w3.org/1999/xlink">
 <defs>
  <style type="text/css">
*{stroke-linecap:butt;stroke-linejoin:round;}
  </style>
 </defs>
 <g id="figure_1">
  <g id="patch_1">
   <path d="M 0 460.8 
L 460.8 460.8 
L 460.8 0 
L 0 0 
z
" style="fill:#ffffff;"/>
  </g>
  <g id="axes_1">
   <g id="patch_2">
    <path clip-path="url(#p943edd3a3f)" d="M 249.691985 361.010434 
L 250.494608 362.156703 
L 251.756209 363.397045 
L 253.004695 364.048303 
L 254.711938 364.501852 
L 256.100614 364.498648 
L 257.835507 364.054358 
L 259.024376 363.397477 
L 260.362157 362.164127 
L 261.060143 361.014397 
L 261.673276 359.293953 
L 261.709488 357.932867 
L 261.447856 356.146554 
L 260.813428 354.907354 
L 259.741088 353.492524 
L 258.59135 352.678609 
L 256.970849 351.981661 
L 255.587296 351.792306 
L 253.815389 351.983878 
L 252.152234 352.671993 
L 251.076915 353.491041 
L 249.917619 354.899868 
L 249.396261 356.141735 
L 249.02466 357.926344 
L 249.18491 359.286977 
L 249.18491 359.286977 
L 249.18491 359.286977 
L 249.18491 359.286977 
L 249.18491 359.286977 
L 249.18491 359.286977 
L 249.18491 359.286977 
L 249.18491 359.286977 
L 249.18491 359.286977 
L 249.18491 359.286977 
L 249.18491 359.286977 
L 249.18491 359.286977 
L 249.18491 359.286977 
L 249.18491 359.286977 
L 249.18491 359.286977 
L 249.18491 359.286977 
L 249.18491 359.286977 
L 249.18491 359.286977 
L 249.18491 359.286977 
L 249.18491 359.286977 
L 249.18491 359.286977 
L 249.18491 359.286977 
L 249.18491 359.286977 
L 249.18491 359.286977 
L 249.18491 359.286977 
L 249.18491 359.286977 
L 249.18491 359.286977 
L 249.18491 359.286977 
L 249.18491 359.286977 
L 249.18491 359.286977 
L 249.18491 359.286977 
L 249.18491 359.286977 
L 249.18491 359.286977 
L 249.18491 359.286977 
L 249.18491 359.286977 
L 249.18491 359.286977 
L 249.18491 359.286977 
L 249.18491 359.286977 
L 249.18491 359.286977 
L 249.18491 359.286977 
L 249.18491 359.286977 
L 249.18491 359.286977 
L 249.18491 359.286977 
L 249.18491 359.286977 
L 249.18491 359.286977 
L 249.18491 359.286977 
L 249.18491 359.286977 
L 249.18491 359.286977 
L 249.18491 359.286977 
L 249.18491 359.286977 
L 249.18491 359.286977 
L 249.18491 359.286977 
L 249.18491 359.286977 
L 249.18491 359.286977 
L 249.18491 359.286977 
L 249.18491 359.286977 
L 249.18491 359.286977 
L 249.18491 359.286977 
L 249.18491 359.286977 
L 249.18491 359.286977 
L 249.18491 359.286977 
L 249.18491 359.286977 
L 249.18491 359.286977 
L 249.18491 359.286977 
L 249.18491 359.286977 
L 249.18491 359.286977 
L 249.18491 359.286977 
L 249.18491 359.286977 
L 249.18491 359.286977 
L 249.18491 359.286977 
L 249.18491 359.286977 
L 249.18491 359.286977 
L 249.18491 359.286977 
L 249.18491 359.286977 
L 249.18491 359.286977 
L 249.18491 359.286977 
L 249.18491 359.286977 
L 249.18491 359.286977 
L 249.18491 359.286977 
L 249.18491 359.286977 
L 249.18491 359.286977 
L 249.18491 359.286977 
L 249.18491 359.286977 
L 249.18491 359.286977 
L 249.18491 359.286977 
L 249.18491 359.286977 
L 249.18491 359.286977 
L 249.18491 359.286977 
L 249.18491 359.286977 
L 249.18491 359.286977 
L 249.18491 359.286977 
L 249.18491 359.286977 
L 249.18491 359.286977 
L 249.18491 359.286977 
L 249.18491 359.286977 
L 249.18491 359.286977 
L 249.18491 359.286977 
L 249.18491 359.286977 
L 249.18491 359.286977 
L 249.18491 359.286977 
L 249.18491 359.286977 
L 249.18491 359.286977 
L 249.18491 359.286977 
L 249.18491 359.286977 
L 249.18491 359.286977 
L 249.18491 359.286977 
L 249.18491 359.286977 
L 249.18491 359.286977 
L 249.18491 359.286977 
L 249.18491 359.286977 
L 249.18491 359.286977 
L 249.18491 359.286977 
L 249.18491 359.286977 
L 249.18491 359.286977 
L 249.18491 359.286977 
L 249.18491 359.286977 
L 249.18491 359.286977 
L 249.18491 359.286977 
L 249.18491 359.286977 
L 249.18491 359.286977 
L 249.18491 359.286977 
L 249.18491 359.286977 
L 249.18491 359.286977 
L 249.18491 359.286977 
L 249.18491 359.286977 
L 249.18491 359.286977 
L 249.18491 359.286977 
L 249.18491 359.286977 
L 249.18491 359.286977 
L 249.18491 359.286977 
L 249.18491 359.286977 
L 249.18491 359.286977 
L 249.18491 359.286977 
L 249.18491 359.286977 
L 249.18491 359.286977 
L 249.18491 359.286977 
L 249.18491 359.286977 
L 249.18491 359.286977 
L 249.18491 359.286977 
L 249.18491 359.286977 
L 249.18491 359.286977 
L 249.18491 359.286977 
L 249.18491 359.286977 
L 249.18491 359.286977 
L 249.18491 359.286977 
z
" style="fill:#993333;stroke:#000000;stroke-linejoin:miter;"/>
   </g>
   <g id="patch_3">
    <path clip-path="url(#p943edd3a3f)" d="M 240.194529 296.225624 
L 238.962599 296.54111 
L 254.783308 358.31894 
L 256.015238 358.003454 
L 256.015238 358.003454 
L 256.015238 358.003454 
L 256.015238 358.003454 
L 256.015238 358.003454 
L 256.015238 358.003454 
L 256.015238 358.003454 
L 256.015238 358.003454 
L 256.015238 358.003454 
L 256.015238 358.003454 
L 256.015238 358.003454 
L 256.015238 358.003454 
L 256.015238 358.003454 
L 256.015238 358.003454 
L 256.015238 358.003454 
L 256.015238 358.003454 
L 256.015238 358.003454 
L 256.015238 358.003454 
L 256.015238 358.003454 
L 256.015238 358.003454 
L 256.015238 358.003454 
L 256.015238 358.003454 
L 256.015238 358.003454 
L 256.015238 358.003454 
L 256.015238 358.003454 
L 256.015238 358.003454 
L 256.015238 358.003454 
L 256.015238 358.003454 
L 256.015238 358.003454 
L 256.015238 358.003454 
L 256.015238 358.003454 
L 256.015238 358.003454 
L 256.015238 358.003454 
L 256.015238 358.003454 
L 256.015238 358.003454 
L 256.015238 358.003454 
L 256.015238 358.003454 
L 256.015238 358.003454 
L 256.015238 358.003454 
L 256.015238 358.003454 
L 256.015238 358.003454 
L 256.015238 358.003454 
L 256.015238 358.003454 
L 256.015238 358.003454 
L 256.015238 358.003454 
L 256.015238 358.003454 
L 256.015238 358.003454 
L 256.015238 358.003454 
L 256.015238 358.003454 
z
" style="stroke:#000000;stroke-linejoin:miter;"/>
   </g>
   <g id="patch_4">
    <path clip-path="url(#p943edd3a3f)" d="M 233.264119 296.270786 
L 233.423879 298.060173 
L 233.986495 299.341423 
L 234.980779 300.804803 
L 236.077561 301.687937 
L 237.662933 302.467026 
L 239.02535 302.735822 
L 240.813657 302.63987 
L 242.108142 302.228517 
L 243.661543 301.281017 
L 244.571161 300.29023 
L 245.509329 298.723163 
L 245.811375 297.39552 
L 245.904613 295.592559 
L 245.525135 294.253114 
L 244.750616 292.655686 
L 243.782523 291.632381 
L 242.329877 290.631592 
L 241.010192 290.174969 
L 239.235076 290.015848 
L 237.469372 290.364952 
L 236.254482 290.957569 
L 234.841747 292.1121 
L 234.087295 293.227828 
L 233.373417 294.905116 
L 233.373417 294.905116 
L 233.373417 294.905116 
L 233.373417 294.905116 
L 233.373417 294.905116 
L 233.373417 294.905116 
L 233.373417 294.905116 
L 233.373417 294.905116 
L 233.373417 294.905116 
L 233.373417 294.905116 
L 233.373417 294.905116 
L 233.373417 294.905116 
L 233.373417 294.905116 
L 233.373417 294.905116 
L 233.373417 294.905116 
L 233.373417 294.905116 
L 233.373417 294.905116 
L 233.373417 294.905116 
L 233.373417 294.905116 
L 233.373417 294.905116 
L 233.373417 294.905116 
L 233.373417 294.905116 
L 233.373417 294.905116 
L 233.373417 294.905116 
L 233.373417 294.905116 
L 233.373417 294.905116 
L 233.373417 294.905116 
L 233.373417 294.905116 
L 233.373417 294.905116 
L 233.373417 294.905116 
L 233.373417 294.905116 
L 233.373417 294.905116 
L 233.373417 294.905116 
L 233.373417 294.905116 
L 233.373417 294.905116 
L 233.373417 294.905116 
L 233.373417 294.905116 
L 233.373417 294.905116 
L 233.373417 294.905116 
L 233.373417 294.905116 
L 233.373417 294.905116 
L 233.373417 294.905116 
L 233.373417 294.905116 
L 233.373417 294.905116 
L 233.373417 294.905116 
L 233.373417 294.905116 
L 233.373417 294.905116 
L 233.373417 294.905116 
L 233.373417 294.905116 
L 233.373417 294.905116 
L 233.373417 294.905116 
L 233.373417 294.905116 
L 233.373417 294.905116 
L 233.373417 294.905116 
L 233.373417 294.905116 
L 233.373417 294.905116 
L 233.373417 294.905116 
L 233.373417 294.905116 
L 233.373417 294.905116 
L 233.373417 294.905116 
L 233.373417 294.905116 
L 233.373417 294.905116 
L 233.373417 294.905116 
L 233.373417 294.905116 
L 233.373417 294.905116 
L 233.373417 294.905116 
L 233.373417 294.905116 
L 233.373417 294.905116 
L 233.373417 294.905116 
L 233.373417 294.905116 
L 233.373417 294.905116 
L 233.373417 294.905116 
L 233.373417 294.905116 
L 233.373417 294.905116 
L 233.373417 294.905116 
L 233.373417 294.905116 
L 233.373417 294.905116 
L 233.373417 294.905116 
L 233.373417 294.905116 
L 233.373417 294.905116 
L 233.373417 294.905116 
L 233.373417 294.905116 
L 233.373417 294.905116 
L 233.373417 294.905116 
L 233.373417 294.905116 
L 233.373417 294.905116 
L 233.373417 294.905116 
L 233.373417 294.905116 
L 233.373417 294.905116 
L 233.373417 294.905116 
L 233.373417 294.905116 
L 233.373417 294.905116 
L 233.373417 294.905116 
L 233.373417 294.905116 
L 233.373417 294.905116 
L 233.373417 294.905116 
L 233.373417 294.905116 
L 233.373417 294.905116 
L 233.373417 294.905116 
L 233.373417 294.905116 
L 233.373417 294.905116 
L 233.373417 294.905116 
L 233.373417 294.905116 
L 233.373417 294.905116 
L 233.373417 294.905116 
L 233.373417 294.905116 
L 233.373417 294.905116 
L 233.373417 294.905116 
L 233.373417 294.905116 
L 233.373417 294.905116 
L 233.373417 294.905116 
L 233.373417 294.905116 
L 233.373417 294.905116 
L 233.373417 294.905116 
L 233.373417 294.905116 
L 233.373417 294.905116 
L 233.373417 294.905116 
L 233.373417 294.905116 
L 233.373417 294.905116 
L 233.373417 294.905116 
L 233.373417 294.905116 
L 233.373417 294.905116 
L 233.373417 294.905116 
L 233.373417 294.905116 
L 233.373417 294.905116 
L 233.373417 294.905116 
L 233.373417 294.905116 
L 233.373417 294.905116 
L 233.373417 294.905116 
L 233.373417 294.905116 
L 233.373417 294.905116 
L 233.373417 294.905116 
L 233.373417 294.905116 
L 233.373417 294.905116 
L 233.373417 294.905116 
L 233.373417 294.905116 
L 233.373417 294.905116 
L 233.373417 294.905116 
L 233.373417 294.905116 
L 233.373417 294.905116 
L 233.373417 294.905116 
L 233.373417 294.905116 
L 233.373417 294.905116 
L 233.373417 294.905116 
L 233.373417 294.905116 
z
" style="fill:#993333;stroke:#000000;stroke-linejoin:miter;"/>
   </g>
   <g id="patch_5">
    <path clip-path="url(#p943edd3a3f)" d="M 235.52694 232.737967 
L 238.943691 296.417798 
L 240.213549 296.349664 
L 236.796798 232.669832 
L 236.796798 232.669832 
L 236.796798 232.669832 
L 236.796798 232.669832 
L 236.796798 232.669832 
L 236.796798 232.669832 
L 236.796798 232.669832 
L 236.796798 232.669832 
L 236.796798 232.669832 
L 236.796798 232.669832 
L 236.796798 232.669832 
L 236.796798 232.669832 
L 236.796798 232.669832 
L 236.796798 232.669832 
L 236.796798 232.669832 
L 236.796798 232.669832 
L 236.796798 232.669832 
L 236.796798 232.669832 
L 236.796798 232.669832 
L 236.796798 232.669832 
L 236.796798 232.669832 
L 236.796798 232.669832 
L 236.796798 232.669832 
L 236.796798 232.669832 
L 236.796798 232.669832 
L 236.796798 232.669832 
L 236.796798 232.669832 
L 236.796798 232.669832 
L 236.796798 232.669832 
L 236.796798 232.669832 
L 236.796798 232.669832 
L 236.796798 232.669832 
L 236.796798 232.669832 
L 236.796798 232.669832 
L 236.796798 232.669832 
L 236.796798 232.669832 
L 236.796798 232.669832 
L 236.796798 232.669832 
L 236.796798 232.669832 
L 236.796798 232.669832 
L 236.796798 232.669832 
L 236.796798 232.669832 
L 236.796798 232.669832 
L 236.796798 232.669832 
L 236.796798 232.669832 
L 236.796798 232.669832 
L 236.796798 232.669832 
L 236.796798 232.669832 
L 236.796798 232.669832 
z
" style="stroke:#000000;stroke-linejoin:miter;"/>
   </g>
   <g id="text_1">
    <!-- t = 7.8 -->
    <defs>
     <path d="M 18.3125 70.21875 
L 18.3125 54.6875 
L 36.8125 54.6875 
L 36.8125 47.703125 
L 18.3125 47.703125 
L 18.3125 18.015625 
Q 18.3125 11.328125 20.140625 9.421875 
Q 21.96875 7.515625 27.59375 7.515625 
L 36.8125 7.515625 
L 36.8125 0 
L 27.59375 0 
Q 17.1875 0 13.234375 3.875 
Q 9.28125 7.765625 9.28125 18.015625 
L 9.28125 47.703125 
L 2.6875 47.703125 
L 2.6875 54.6875 
L 9.28125 54.6875 
L 9.28125 70.21875 
z
" id="DejaVuSans-116"/>
     <path id="DejaVuSans-32"/>
     <path d="M 10.59375 45.40625 
L 73.1875 45.40625 
L 73.1875 37.203125 
L 10.59375 37.203125 
z
M 10.59375 25.484375 
L 73.1875 25.484375 
L 73.1875 17.1875 
L 10.59375 17.1875 
z
" id="DejaVuSans-61"/>
     <path d="M 8.203125 72.90625 
L 55.078125 72.90625 
L 55.078125 68.703125 
L 28.609375 0 
L 18.3125 0 
L 43.21875 64.59375 
L 8.203125 64.59375 
z
" id="DejaVuSans-55"/>
     <path d="M 10.6875 12.40625 
L 21 12.40625 
L 21 0 
L 10.6875 0 
z
" id="DejaVuSans-46"/>
     <path d="M 31.78125 34.625 
Q 24.75 34.625 20.71875 30.859375 
Q 16.703125 27.09375 16.703125 20.515625 
Q 16.703125 13.921875 20.71875 10.15625 
Q 24.75 6.390625 31.78125 6.390625 
Q 38.8125 6.390625 42.859375 10.171875 
Q 46.921875 13.96875 46.921875 20.515625 
Q 46.921875 27.09375 42.890625 30.859375 
Q 38.875 34.625 31.78125 34.625 
z
M 21.921875 38.8125 
Q 15.578125 40.375 12.03125 44.71875 
Q 8.5 49.078125 8.5 55.328125 
Q 8.5 64.0625 14.71875 69.140625 
Q 20.953125 74.21875 31.78125 74.21875 
Q 42.671875 74.21875 48.875 69.140625 
Q 55.078125 64.0625 55.078125 55.328125 
Q 55.078125 49.078125 51.53125 44.71875 
Q 48 40.375 41.703125 38.8125 
Q 48.828125 37.15625 52.796875 32.3125 
Q 56.78125 27.484375 56.78125 20.515625 
Q 56.78125 9.90625 50.3125 4.234375 
Q 43.84375 -1.421875 31.78125 -1.421875 
Q 19.734375 -1.421875 13.25 4.234375 
Q 6.78125 9.90625 6.78125 20.515625 
Q 6.78125 27.484375 10.78125 32.3125 
Q 14.796875 37.15625 21.921875 38.8125 
z
M 18.3125 54.390625 
Q 18.3125 48.734375 21.84375 45.5625 
Q 25.390625 42.390625 31.78125 42.390625 
Q 38.140625 42.390625 41.71875 45.5625 
Q 45.3125 48.734375 45.3125 54.390625 
Q 45.3125 60.0625 41.71875 63.234375 
Q 38.140625 66.40625 31.78125 66.40625 
Q 25.390625 66.40625 21.84375 63.234375 
Q 18.3125 60.0625 18.3125 54.390625 
z
" id="DejaVuSans-56"/>
    </defs>
    <g transform="translate(215.424375 49.296)scale(0.12 -0.12)">
     <use xlink:href="#DejaVuSans-116"/>
     <use x="39.208984" xlink:href="#DejaVuSans-32"/>
     <use x="70.996094" xlink:href="#DejaVuSans-61"/>
     <use x="154.785156" xlink:href="#DejaVuSans-32"/>
     <use x="186.572266" xlink:href="#DejaVuSans-55"/>
     <use x="250.195312" xlink:href="#DejaVuSans-46"/>
     <use x="281.982422" xlink:href="#DejaVuSans-56"/>
    </g>
   </g>
  </g>
 </g>
 <defs>
  <clipPath id="p943edd3a3f">
   <rect height="354.816" width="357.12" x="57.6" y="55.296"/>
  </clipPath>
 </defs>
</svg>
