<?xml version="1.0" encoding="utf-8" standalone="no"?>
<!DOCTYPE svg PUBLIC "-//W3C//DTD SVG 1.1//EN"
  "http://www.w3.org/Graphics/SVG/1.1/DTD/svg11.dtd">
<!-- Created with matplotlib (https://matplotlib.org/) -->
<svg height="460.8pt" version="1.1" viewBox="0 0 460.8 460.8" width="460.8pt" xmlns="http://www.w3.org/2000/svg" xmlns:xlink="http://www.w3.org/1999/xlink">
 <defs>
  <style type="text/css">
*{stroke-linecap:butt;stroke-linejoin:round;}
  </style>
 </defs>
 <g id="figure_1">
  <g id="patch_1">
   <path d="M 0 460.8 
L 460.8 460.8 
L 460.8 0 
L 0 0 
z
" style="fill:#ffffff;"/>
  </g>
  <g id="axes_1">
   <g id="patch_2">
    <path clip-path="url(#p4b791bfe0b)" d="M 128.317798 309.474982 
L 128.477447 311.234214 
L 128.956845 312.537521 
L 129.969332 314.014719 
L 130.994196 314.906099 
L 132.61163 315.739594 
L 133.931037 316.000806 
L 135.757414 315.986529 
L 137.048327 315.55362 
L 138.636486 314.695066 
L 139.582845 313.674026 
L 140.543949 312.1814 
L 140.914052 310.822216 
L 141.01279 309.060964 
L 140.716023 307.696411 
L 139.928219 306.097749 
L 138.711312 304.77158 
L 137.573076 304.042492 
L 135.852043 303.436848 
L 134.506684 303.373154 
L 132.702893 303.636317 
L 131.479802 304.253611 
L 130.034885 305.321151 
L 129.233518 306.468298 
L 128.501239 308.078843 
L 128.501239 308.078843 
L 128.501239 308.078843 
L 128.501239 308.078843 
L 128.501239 308.078843 
L 128.501239 308.078843 
L 128.501239 308.078843 
L 128.501239 308.078843 
L 128.501239 308.078843 
L 128.501239 308.078843 
L 128.501239 308.078843 
L 128.501239 308.078843 
L 128.501239 308.078843 
L 128.501239 308.078843 
L 128.501239 308.078843 
L 128.501239 308.078843 
L 128.501239 308.078843 
L 128.501239 308.078843 
L 128.501239 308.078843 
L 128.501239 308.078843 
L 128.501239 308.078843 
L 128.501239 308.078843 
L 128.501239 308.078843 
L 128.501239 308.078843 
L 128.501239 308.078843 
L 128.501239 308.078843 
L 128.501239 308.078843 
L 128.501239 308.078843 
L 128.501239 308.078843 
L 128.501239 308.078843 
L 128.501239 308.078843 
L 128.501239 308.078843 
L 128.501239 308.078843 
L 128.501239 308.078843 
L 128.501239 308.078843 
L 128.501239 308.078843 
L 128.501239 308.078843 
L 128.501239 308.078843 
L 128.501239 308.078843 
L 128.501239 308.078843 
L 128.501239 308.078843 
L 128.501239 308.078843 
L 128.501239 308.078843 
L 128.501239 308.078843 
L 128.501239 308.078843 
L 128.501239 308.078843 
L 128.501239 308.078843 
L 128.501239 308.078843 
L 128.501239 308.078843 
L 128.501239 308.078843 
L 128.501239 308.078843 
L 128.501239 308.078843 
L 128.501239 308.078843 
L 128.501239 308.078843 
L 128.501239 308.078843 
L 128.501239 308.078843 
L 128.501239 308.078843 
L 128.501239 308.078843 
L 128.501239 308.078843 
L 128.501239 308.078843 
L 128.501239 308.078843 
L 128.501239 308.078843 
L 128.501239 308.078843 
L 128.501239 308.078843 
L 128.501239 308.078843 
L 128.501239 308.078843 
L 128.501239 308.078843 
L 128.501239 308.078843 
L 128.501239 308.078843 
L 128.501239 308.078843 
L 128.501239 308.078843 
L 128.501239 308.078843 
L 128.501239 308.078843 
L 128.501239 308.078843 
L 128.501239 308.078843 
L 128.501239 308.078843 
L 128.501239 308.078843 
L 128.501239 308.078843 
L 128.501239 308.078843 
L 128.501239 308.078843 
L 128.501239 308.078843 
L 128.501239 308.078843 
L 128.501239 308.078843 
L 128.501239 308.078843 
L 128.501239 308.078843 
L 128.501239 308.078843 
L 128.501239 308.078843 
L 128.501239 308.078843 
L 128.501239 308.078843 
L 128.501239 308.078843 
L 128.501239 308.078843 
L 128.501239 308.078843 
L 128.501239 308.078843 
L 128.501239 308.078843 
L 128.501239 308.078843 
L 128.501239 308.078843 
L 128.501239 308.078843 
L 128.501239 308.078843 
L 128.501239 308.078843 
L 128.501239 308.078843 
L 128.501239 308.078843 
L 128.501239 308.078843 
L 128.501239 308.078843 
L 128.501239 308.078843 
L 128.501239 308.078843 
L 128.501239 308.078843 
L 128.501239 308.078843 
L 128.501239 308.078843 
L 128.501239 308.078843 
L 128.501239 308.078843 
L 128.501239 308.078843 
L 128.501239 308.078843 
L 128.501239 308.078843 
L 128.501239 308.078843 
L 128.501239 308.078843 
L 128.501239 308.078843 
L 128.501239 308.078843 
L 128.501239 308.078843 
L 128.501239 308.078843 
L 128.501239 308.078843 
L 128.501239 308.078843 
L 128.501239 308.078843 
L 128.501239 308.078843 
L 128.501239 308.078843 
L 128.501239 308.078843 
L 128.501239 308.078843 
L 128.501239 308.078843 
L 128.501239 308.078843 
L 128.501239 308.078843 
L 128.501239 308.078843 
L 128.501239 308.078843 
L 128.501239 308.078843 
L 128.501239 308.078843 
L 128.501239 308.078843 
L 128.501239 308.078843 
L 128.501239 308.078843 
L 128.501239 308.078843 
L 128.501239 308.078843 
L 128.501239 308.078843 
L 128.501239 308.078843 
L 128.501239 308.078843 
L 128.501239 308.078843 
L 128.501239 308.078843 
L 128.501239 308.078843 
L 128.501239 308.078843 
z
" style="fill:#993333;stroke:#000000;stroke-linejoin:miter;"/>
   </g>
   <g id="patch_3">
    <path clip-path="url(#p4b791bfe0b)" d="M 186.911226 273.126504 
L 134.30964 309.18019 
L 135.028597 310.229134 
L 187.630183 274.175448 
L 187.630183 274.175448 
L 187.630183 274.175448 
L 187.630183 274.175448 
L 187.630183 274.175448 
L 187.630183 274.175448 
L 187.630183 274.175448 
L 187.630183 274.175448 
L 187.630183 274.175448 
L 187.630183 274.175448 
L 187.630183 274.175448 
L 187.630183 274.175448 
L 187.630183 274.175448 
L 187.630183 274.175448 
L 187.630183 274.175448 
L 187.630183 274.175448 
L 187.630183 274.175448 
L 187.630183 274.175448 
L 187.630183 274.175448 
L 187.630183 274.175448 
L 187.630183 274.175448 
L 187.630183 274.175448 
L 187.630183 274.175448 
L 187.630183 274.175448 
L 187.630183 274.175448 
L 187.630183 274.175448 
L 187.630183 274.175448 
L 187.630183 274.175448 
L 187.630183 274.175448 
L 187.630183 274.175448 
L 187.630183 274.175448 
L 187.630183 274.175448 
L 187.630183 274.175448 
L 187.630183 274.175448 
L 187.630183 274.175448 
L 187.630183 274.175448 
L 187.630183 274.175448 
L 187.630183 274.175448 
L 187.630183 274.175448 
L 187.630183 274.175448 
L 187.630183 274.175448 
L 187.630183 274.175448 
L 187.630183 274.175448 
L 187.630183 274.175448 
L 187.630183 274.175448 
L 187.630183 274.175448 
L 187.630183 274.175448 
L 187.630183 274.175448 
L 187.630183 274.175448 
z
" style="stroke:#000000;stroke-linejoin:miter;"/>
   </g>
   <g id="patch_4">
    <path clip-path="url(#p4b791bfe0b)" d="M 180.975199 272.62577 
L 180.92688 274.033079 
L 181.254979 275.768803 
L 181.857499 277.019963 
L 183.00736 278.39294 
L 184.1132 279.181624 
L 185.803297 279.855701 
L 187.141709 279.98881 
L 188.958247 279.798951 
L 190.201542 279.243897 
L 191.699769 278.236584 
L 192.543545 277.129263 
L 193.356643 275.551123 
L 193.594313 274.162645 
L 193.523207 272.400061 
L 193.096582 271.070375 
L 192.158682 269.554889 
L 190.819874 268.351901 
L 189.616795 267.735661 
L 187.845493 267.298342 
L 186.500244 267.36433 
L 184.730124 267.79975 
L 183.57207 268.531812 
L 182.236519 269.733365 
L 181.549192 270.952265 
L 181.549192 270.952265 
L 181.549192 270.952265 
L 181.549192 270.952265 
L 181.549192 270.952265 
L 181.549192 270.952265 
L 181.549192 270.952265 
L 181.549192 270.952265 
L 181.549192 270.952265 
L 181.549192 270.952265 
L 181.549192 270.952265 
L 181.549192 270.952265 
L 181.549192 270.952265 
L 181.549192 270.952265 
L 181.549192 270.952265 
L 181.549192 270.952265 
L 181.549192 270.952265 
L 181.549192 270.952265 
L 181.549192 270.952265 
L 181.549192 270.952265 
L 181.549192 270.952265 
L 181.549192 270.952265 
L 181.549192 270.952265 
L 181.549192 270.952265 
L 181.549192 270.952265 
L 181.549192 270.952265 
L 181.549192 270.952265 
L 181.549192 270.952265 
L 181.549192 270.952265 
L 181.549192 270.952265 
L 181.549192 270.952265 
L 181.549192 270.952265 
L 181.549192 270.952265 
L 181.549192 270.952265 
L 181.549192 270.952265 
L 181.549192 270.952265 
L 181.549192 270.952265 
L 181.549192 270.952265 
L 181.549192 270.952265 
L 181.549192 270.952265 
L 181.549192 270.952265 
L 181.549192 270.952265 
L 181.549192 270.952265 
L 181.549192 270.952265 
L 181.549192 270.952265 
L 181.549192 270.952265 
L 181.549192 270.952265 
L 181.549192 270.952265 
L 181.549192 270.952265 
L 181.549192 270.952265 
L 181.549192 270.952265 
L 181.549192 270.952265 
L 181.549192 270.952265 
L 181.549192 270.952265 
L 181.549192 270.952265 
L 181.549192 270.952265 
L 181.549192 270.952265 
L 181.549192 270.952265 
L 181.549192 270.952265 
L 181.549192 270.952265 
L 181.549192 270.952265 
L 181.549192 270.952265 
L 181.549192 270.952265 
L 181.549192 270.952265 
L 181.549192 270.952265 
L 181.549192 270.952265 
L 181.549192 270.952265 
L 181.549192 270.952265 
L 181.549192 270.952265 
L 181.549192 270.952265 
L 181.549192 270.952265 
L 181.549192 270.952265 
L 181.549192 270.952265 
L 181.549192 270.952265 
L 181.549192 270.952265 
L 181.549192 270.952265 
L 181.549192 270.952265 
L 181.549192 270.952265 
L 181.549192 270.952265 
L 181.549192 270.952265 
L 181.549192 270.952265 
L 181.549192 270.952265 
L 181.549192 270.952265 
L 181.549192 270.952265 
L 181.549192 270.952265 
L 181.549192 270.952265 
L 181.549192 270.952265 
L 181.549192 270.952265 
L 181.549192 270.952265 
L 181.549192 270.952265 
L 181.549192 270.952265 
L 181.549192 270.952265 
L 181.549192 270.952265 
L 181.549192 270.952265 
L 181.549192 270.952265 
L 181.549192 270.952265 
L 181.549192 270.952265 
L 181.549192 270.952265 
L 181.549192 270.952265 
L 181.549192 270.952265 
L 181.549192 270.952265 
L 181.549192 270.952265 
L 181.549192 270.952265 
L 181.549192 270.952265 
L 181.549192 270.952265 
L 181.549192 270.952265 
L 181.549192 270.952265 
L 181.549192 270.952265 
L 181.549192 270.952265 
L 181.549192 270.952265 
L 181.549192 270.952265 
L 181.549192 270.952265 
L 181.549192 270.952265 
L 181.549192 270.952265 
L 181.549192 270.952265 
L 181.549192 270.952265 
L 181.549192 270.952265 
L 181.549192 270.952265 
L 181.549192 270.952265 
L 181.549192 270.952265 
L 181.549192 270.952265 
L 181.549192 270.952265 
L 181.549192 270.952265 
L 181.549192 270.952265 
L 181.549192 270.952265 
L 181.549192 270.952265 
L 181.549192 270.952265 
L 181.549192 270.952265 
L 181.549192 270.952265 
L 181.549192 270.952265 
L 181.549192 270.952265 
L 181.549192 270.952265 
L 181.549192 270.952265 
L 181.549192 270.952265 
L 181.549192 270.952265 
L 181.549192 270.952265 
L 181.549192 270.952265 
L 181.549192 270.952265 
L 181.549192 270.952265 
L 181.549192 270.952265 
L 181.549192 270.952265 
L 181.549192 270.952265 
L 181.549192 270.952265 
L 181.549192 270.952265 
L 181.549192 270.952265 
z
" style="fill:#993333;stroke:#000000;stroke-linejoin:miter;"/>
   </g>
   <g id="patch_5">
    <path clip-path="url(#p4b791bfe0b)" d="M 186.862596 273.163399 
L 187.679101 274.138336 
L 236.569454 233.192904 
L 235.752949 232.217966 
L 235.752949 232.217966 
L 235.752949 232.217966 
L 235.752949 232.217966 
L 235.752949 232.217966 
L 235.752949 232.217966 
L 235.752949 232.217966 
L 235.752949 232.217966 
L 235.752949 232.217966 
L 235.752949 232.217966 
L 235.752949 232.217966 
L 235.752949 232.217966 
L 235.752949 232.217966 
L 235.752949 232.217966 
L 235.752949 232.217966 
L 235.752949 232.217966 
L 235.752949 232.217966 
L 235.752949 232.217966 
L 235.752949 232.217966 
L 235.752949 232.217966 
L 235.752949 232.217966 
L 235.752949 232.217966 
L 235.752949 232.217966 
L 235.752949 232.217966 
L 235.752949 232.217966 
L 235.752949 232.217966 
L 235.752949 232.217966 
L 235.752949 232.217966 
L 235.752949 232.217966 
L 235.752949 232.217966 
L 235.752949 232.217966 
L 235.752949 232.217966 
L 235.752949 232.217966 
L 235.752949 232.217966 
L 235.752949 232.217966 
L 235.752949 232.217966 
L 235.752949 232.217966 
L 235.752949 232.217966 
L 235.752949 232.217966 
L 235.752949 232.217966 
L 235.752949 232.217966 
L 235.752949 232.217966 
L 235.752949 232.217966 
L 235.752949 232.217966 
L 235.752949 232.217966 
L 235.752949 232.217966 
L 235.752949 232.217966 
L 235.752949 232.217966 
L 235.752949 232.217966 
z
" style="stroke:#000000;stroke-linejoin:miter;"/>
   </g>
   <g id="text_1">
    <!-- t = 5.4 -->
    <defs>
     <path d="M 18.3125 70.21875 
L 18.3125 54.6875 
L 36.8125 54.6875 
L 36.8125 47.703125 
L 18.3125 47.703125 
L 18.3125 18.015625 
Q 18.3125 11.328125 20.140625 9.421875 
Q 21.96875 7.515625 27.59375 7.515625 
L 36.8125 7.515625 
L 36.8125 0 
L 27.59375 0 
Q 17.1875 0 13.234375 3.875 
Q 9.28125 7.765625 9.28125 18.015625 
L 9.28125 47.703125 
L 2.6875 47.703125 
L 2.6875 54.6875 
L 9.28125 54.6875 
L 9.28125 70.21875 
z
" id="DejaVuSans-116"/>
     <path id="DejaVuSans-32"/>
     <path d="M 10.59375 45.40625 
L 73.1875 45.40625 
L 73.1875 37.203125 
L 10.59375 37.203125 
z
M 10.59375 25.484375 
L 73.1875 25.484375 
L 73.1875 17.1875 
L 10.59375 17.1875 
z
" id="DejaVuSans-61"/>
     <path d="M 10.796875 72.90625 
L 49.515625 72.90625 
L 49.515625 64.59375 
L 19.828125 64.59375 
L 19.828125 46.734375 
Q 21.96875 47.46875 24.109375 47.828125 
Q 26.265625 48.1875 28.421875 48.1875 
Q 40.625 48.1875 47.75 41.5 
Q 54.890625 34.8125 54.890625 23.390625 
Q 54.890625 11.625 47.5625 5.09375 
Q 40.234375 -1.421875 26.90625 -1.421875 
Q 22.3125 -1.421875 17.546875 -0.640625 
Q 12.796875 0.140625 7.71875 1.703125 
L 7.71875 11.625 
Q 12.109375 9.234375 16.796875 8.0625 
Q 21.484375 6.890625 26.703125 6.890625 
Q 35.15625 6.890625 40.078125 11.328125 
Q 45.015625 15.765625 45.015625 23.390625 
Q 45.015625 31 40.078125 35.4375 
Q 35.15625 39.890625 26.703125 39.890625 
Q 22.75 39.890625 18.8125 39.015625 
Q 14.890625 38.140625 10.796875 36.28125 
z
" id="DejaVuSans-53"/>
     <path d="M 10.6875 12.40625 
L 21 12.40625 
L 21 0 
L 10.6875 0 
z
" id="DejaVuSans-46"/>
     <path d="M 37.796875 64.3125 
L 12.890625 25.390625 
L 37.796875 25.390625 
z
M 35.203125 72.90625 
L 47.609375 72.90625 
L 47.609375 25.390625 
L 58.015625 25.390625 
L 58.015625 17.1875 
L 47.609375 17.1875 
L 47.609375 0 
L 37.796875 0 
L 37.796875 17.1875 
L 4.890625 17.1875 
L 4.890625 26.703125 
z
" id="DejaVuSans-52"/>
    </defs>
    <g transform="translate(215.424375 49.296)scale(0.12 -0.12)">
     <use xlink:href="#DejaVuSans-116"/>
     <use x="39.208984" xlink:href="#DejaVuSans-32"/>
     <use x="70.996094" xlink:href="#DejaVuSans-61"/>
     <use x="154.785156" xlink:href="#DejaVuSans-32"/>
     <use x="186.572266" xlink:href="#DejaVuSans-53"/>
     <use x="250.195312" xlink:href="#DejaVuSans-46"/>
     <use x="281.982422" xlink:href="#DejaVuSans-52"/>
    </g>
   </g>
  </g>
 </g>
 <defs>
  <clipPath id="p4b791bfe0b">
   <rect height="354.816" width="357.12" x="57.6" y="55.296"/>
  </clipPath>
 </defs>
</svg>
