<?xml version="1.0" encoding="utf-8" standalone="no"?>
<!DOCTYPE svg PUBLIC "-//W3C//DTD SVG 1.1//EN"
  "http://www.w3.org/Graphics/SVG/1.1/DTD/svg11.dtd">
<!-- Created with matplotlib (https://matplotlib.org/) -->
<svg height="460.8pt" version="1.1" viewBox="0 0 460.8 460.8" width="460.8pt" xmlns="http://www.w3.org/2000/svg" xmlns:xlink="http://www.w3.org/1999/xlink">
 <defs>
  <style type="text/css">
*{stroke-linecap:butt;stroke-linejoin:round;}
  </style>
 </defs>
 <g id="figure_1">
  <g id="patch_1">
   <path d="M 0 460.8 
L 460.8 460.8 
L 460.8 0 
L 0 0 
z
" style="fill:#ffffff;"/>
  </g>
  <g id="axes_1">
   <g id="patch_2">
    <path clip-path="url(#pdbb9d3b5e7)" d="M 158.245734 339.094687 
L 158.995792 340.26338 
L 160.303937 341.486492 
L 161.497402 342.134986 
L 163.256873 342.598743 
L 164.601543 342.568265 
L 166.38156 342.159122 
L 167.548212 341.457133 
L 168.912965 340.275264 
L 169.615963 339.073636 
L 170.231312 337.408403 
L 170.298537 336.001336 
L 170.013824 334.260446 
L 169.428817 332.992439 
L 168.313749 331.602123 
L 166.838709 330.570696 
L 165.569675 330.105181 
L 163.758364 329.886295 
L 162.431097 330.115227 
L 160.726987 330.762472 
L 159.666448 331.629801 
L 158.486765 332.984709 
L 157.952611 334.278083 
L 157.586182 336.008925 
L 157.709193 337.411681 
L 157.709193 337.411681 
L 157.709193 337.411681 
L 157.709193 337.411681 
L 157.709193 337.411681 
L 157.709193 337.411681 
L 157.709193 337.411681 
L 157.709193 337.411681 
L 157.709193 337.411681 
L 157.709193 337.411681 
L 157.709193 337.411681 
L 157.709193 337.411681 
L 157.709193 337.411681 
L 157.709193 337.411681 
L 157.709193 337.411681 
L 157.709193 337.411681 
L 157.709193 337.411681 
L 157.709193 337.411681 
L 157.709193 337.411681 
L 157.709193 337.411681 
L 157.709193 337.411681 
L 157.709193 337.411681 
L 157.709193 337.411681 
L 157.709193 337.411681 
L 157.709193 337.411681 
L 157.709193 337.411681 
L 157.709193 337.411681 
L 157.709193 337.411681 
L 157.709193 337.411681 
L 157.709193 337.411681 
L 157.709193 337.411681 
L 157.709193 337.411681 
L 157.709193 337.411681 
L 157.709193 337.411681 
L 157.709193 337.411681 
L 157.709193 337.411681 
L 157.709193 337.411681 
L 157.709193 337.411681 
L 157.709193 337.411681 
L 157.709193 337.411681 
L 157.709193 337.411681 
L 157.709193 337.411681 
L 157.709193 337.411681 
L 157.709193 337.411681 
L 157.709193 337.411681 
L 157.709193 337.411681 
L 157.709193 337.411681 
L 157.709193 337.411681 
L 157.709193 337.411681 
L 157.709193 337.411681 
L 157.709193 337.411681 
L 157.709193 337.411681 
L 157.709193 337.411681 
L 157.709193 337.411681 
L 157.709193 337.411681 
L 157.709193 337.411681 
L 157.709193 337.411681 
L 157.709193 337.411681 
L 157.709193 337.411681 
L 157.709193 337.411681 
L 157.709193 337.411681 
L 157.709193 337.411681 
L 157.709193 337.411681 
L 157.709193 337.411681 
L 157.709193 337.411681 
L 157.709193 337.411681 
L 157.709193 337.411681 
L 157.709193 337.411681 
L 157.709193 337.411681 
L 157.709193 337.411681 
L 157.709193 337.411681 
L 157.709193 337.411681 
L 157.709193 337.411681 
L 157.709193 337.411681 
L 157.709193 337.411681 
L 157.709193 337.411681 
L 157.709193 337.411681 
L 157.709193 337.411681 
L 157.709193 337.411681 
L 157.709193 337.411681 
L 157.709193 337.411681 
L 157.709193 337.411681 
L 157.709193 337.411681 
L 157.709193 337.411681 
L 157.709193 337.411681 
L 157.709193 337.411681 
L 157.709193 337.411681 
L 157.709193 337.411681 
L 157.709193 337.411681 
L 157.709193 337.411681 
L 157.709193 337.411681 
L 157.709193 337.411681 
L 157.709193 337.411681 
L 157.709193 337.411681 
L 157.709193 337.411681 
L 157.709193 337.411681 
L 157.709193 337.411681 
L 157.709193 337.411681 
L 157.709193 337.411681 
L 157.709193 337.411681 
L 157.709193 337.411681 
L 157.709193 337.411681 
L 157.709193 337.411681 
L 157.709193 337.411681 
L 157.709193 337.411681 
L 157.709193 337.411681 
L 157.709193 337.411681 
L 157.709193 337.411681 
L 157.709193 337.411681 
L 157.709193 337.411681 
L 157.709193 337.411681 
L 157.709193 337.411681 
L 157.709193 337.411681 
L 157.709193 337.411681 
L 157.709193 337.411681 
L 157.709193 337.411681 
L 157.709193 337.411681 
L 157.709193 337.411681 
L 157.709193 337.411681 
L 157.709193 337.411681 
L 157.709193 337.411681 
L 157.709193 337.411681 
L 157.709193 337.411681 
L 157.709193 337.411681 
L 157.709193 337.411681 
L 157.709193 337.411681 
L 157.709193 337.411681 
L 157.709193 337.411681 
L 157.709193 337.411681 
L 157.709193 337.411681 
L 157.709193 337.411681 
L 157.709193 337.411681 
L 157.709193 337.411681 
L 157.709193 337.411681 
L 157.709193 337.411681 
L 157.709193 337.411681 
L 157.709193 337.411681 
L 157.709193 337.411681 
L 157.709193 337.411681 
L 157.709193 337.411681 
L 157.709193 337.411681 
L 157.709193 337.411681 
L 157.709193 337.411681 
L 157.709193 337.411681 
L 157.709193 337.411681 
z
" style="fill:#993333;stroke:#000000;stroke-linejoin:miter;"/>
   </g>
   <g id="patch_3">
    <path clip-path="url(#pdbb9d3b5e7)" d="M 163.495286 335.827319 
L 164.424187 336.695838 
L 207.97799 290.114068 
L 207.049089 289.245549 
L 207.049089 289.245549 
L 207.049089 289.245549 
L 207.049089 289.245549 
L 207.049089 289.245549 
L 207.049089 289.245549 
L 207.049089 289.245549 
L 207.049089 289.245549 
L 207.049089 289.245549 
L 207.049089 289.245549 
L 207.049089 289.245549 
L 207.049089 289.245549 
L 207.049089 289.245549 
L 207.049089 289.245549 
L 207.049089 289.245549 
L 207.049089 289.245549 
L 207.049089 289.245549 
L 207.049089 289.245549 
L 207.049089 289.245549 
L 207.049089 289.245549 
L 207.049089 289.245549 
L 207.049089 289.245549 
L 207.049089 289.245549 
L 207.049089 289.245549 
L 207.049089 289.245549 
L 207.049089 289.245549 
L 207.049089 289.245549 
L 207.049089 289.245549 
L 207.049089 289.245549 
L 207.049089 289.245549 
L 207.049089 289.245549 
L 207.049089 289.245549 
L 207.049089 289.245549 
L 207.049089 289.245549 
L 207.049089 289.245549 
L 207.049089 289.245549 
L 207.049089 289.245549 
L 207.049089 289.245549 
L 207.049089 289.245549 
L 207.049089 289.245549 
L 207.049089 289.245549 
L 207.049089 289.245549 
L 207.049089 289.245549 
L 207.049089 289.245549 
L 207.049089 289.245549 
L 207.049089 289.245549 
L 207.049089 289.245549 
L 207.049089 289.245549 
L 207.049089 289.245549 
z
" style="stroke:#000000;stroke-linejoin:miter;"/>
   </g>
   <g id="patch_4">
    <path clip-path="url(#pdbb9d3b5e7)" d="M 201.191168 289.470636 
L 201.327778 291.234559 
L 201.841426 292.545673 
L 202.830856 294.00903 
L 203.88008 294.918733 
L 205.480083 295.723244 
L 206.807997 296.008809 
L 208.626837 295.957501 
L 209.908321 295.549012 
L 211.500681 294.654447 
L 212.421984 293.651915 
L 213.398 292.133115 
L 213.733553 290.781996 
L 213.854262 289.010814 
L 213.521912 287.64191 
L 212.75776 286.051994 
L 211.838877 285.000459 
L 210.376955 283.981077 
L 208.670895 283.40754 
L 207.322087 283.318839 
L 205.522574 283.619697 
L 204.313758 284.213676 
L 202.861377 285.315268 
L 202.088512 286.446499 
L 201.338856 288.079118 
L 201.338856 288.079118 
L 201.338856 288.079118 
L 201.338856 288.079118 
L 201.338856 288.079118 
L 201.338856 288.079118 
L 201.338856 288.079118 
L 201.338856 288.079118 
L 201.338856 288.079118 
L 201.338856 288.079118 
L 201.338856 288.079118 
L 201.338856 288.079118 
L 201.338856 288.079118 
L 201.338856 288.079118 
L 201.338856 288.079118 
L 201.338856 288.079118 
L 201.338856 288.079118 
L 201.338856 288.079118 
L 201.338856 288.079118 
L 201.338856 288.079118 
L 201.338856 288.079118 
L 201.338856 288.079118 
L 201.338856 288.079118 
L 201.338856 288.079118 
L 201.338856 288.079118 
L 201.338856 288.079118 
L 201.338856 288.079118 
L 201.338856 288.079118 
L 201.338856 288.079118 
L 201.338856 288.079118 
L 201.338856 288.079118 
L 201.338856 288.079118 
L 201.338856 288.079118 
L 201.338856 288.079118 
L 201.338856 288.079118 
L 201.338856 288.079118 
L 201.338856 288.079118 
L 201.338856 288.079118 
L 201.338856 288.079118 
L 201.338856 288.079118 
L 201.338856 288.079118 
L 201.338856 288.079118 
L 201.338856 288.079118 
L 201.338856 288.079118 
L 201.338856 288.079118 
L 201.338856 288.079118 
L 201.338856 288.079118 
L 201.338856 288.079118 
L 201.338856 288.079118 
L 201.338856 288.079118 
L 201.338856 288.079118 
L 201.338856 288.079118 
L 201.338856 288.079118 
L 201.338856 288.079118 
L 201.338856 288.079118 
L 201.338856 288.079118 
L 201.338856 288.079118 
L 201.338856 288.079118 
L 201.338856 288.079118 
L 201.338856 288.079118 
L 201.338856 288.079118 
L 201.338856 288.079118 
L 201.338856 288.079118 
L 201.338856 288.079118 
L 201.338856 288.079118 
L 201.338856 288.079118 
L 201.338856 288.079118 
L 201.338856 288.079118 
L 201.338856 288.079118 
L 201.338856 288.079118 
L 201.338856 288.079118 
L 201.338856 288.079118 
L 201.338856 288.079118 
L 201.338856 288.079118 
L 201.338856 288.079118 
L 201.338856 288.079118 
L 201.338856 288.079118 
L 201.338856 288.079118 
L 201.338856 288.079118 
L 201.338856 288.079118 
L 201.338856 288.079118 
L 201.338856 288.079118 
L 201.338856 288.079118 
L 201.338856 288.079118 
L 201.338856 288.079118 
L 201.338856 288.079118 
L 201.338856 288.079118 
L 201.338856 288.079118 
L 201.338856 288.079118 
L 201.338856 288.079118 
L 201.338856 288.079118 
L 201.338856 288.079118 
L 201.338856 288.079118 
L 201.338856 288.079118 
L 201.338856 288.079118 
L 201.338856 288.079118 
L 201.338856 288.079118 
L 201.338856 288.079118 
L 201.338856 288.079118 
L 201.338856 288.079118 
L 201.338856 288.079118 
L 201.338856 288.079118 
L 201.338856 288.079118 
L 201.338856 288.079118 
L 201.338856 288.079118 
L 201.338856 288.079118 
L 201.338856 288.079118 
L 201.338856 288.079118 
L 201.338856 288.079118 
L 201.338856 288.079118 
L 201.338856 288.079118 
L 201.338856 288.079118 
L 201.338856 288.079118 
L 201.338856 288.079118 
L 201.338856 288.079118 
L 201.338856 288.079118 
L 201.338856 288.079118 
L 201.338856 288.079118 
L 201.338856 288.079118 
L 201.338856 288.079118 
L 201.338856 288.079118 
L 201.338856 288.079118 
L 201.338856 288.079118 
L 201.338856 288.079118 
L 201.338856 288.079118 
L 201.338856 288.079118 
L 201.338856 288.079118 
L 201.338856 288.079118 
L 201.338856 288.079118 
L 201.338856 288.079118 
L 201.338856 288.079118 
L 201.338856 288.079118 
L 201.338856 288.079118 
L 201.338856 288.079118 
L 201.338856 288.079118 
L 201.338856 288.079118 
L 201.338856 288.079118 
L 201.338856 288.079118 
L 201.338856 288.079118 
L 201.338856 288.079118 
L 201.338856 288.079118 
L 201.338856 288.079118 
L 201.338856 288.079118 
L 201.338856 288.079118 
L 201.338856 288.079118 
z
" style="fill:#993333;stroke:#000000;stroke-linejoin:miter;"/>
   </g>
   <g id="patch_5">
    <path clip-path="url(#pdbb9d3b5e7)" d="M 235.593599 232.419203 
L 206.945771 289.393733 
L 208.081917 289.965008 
L 236.729745 232.990478 
L 236.729745 232.990478 
L 236.729745 232.990478 
L 236.729745 232.990478 
L 236.729745 232.990478 
L 236.729745 232.990478 
L 236.729745 232.990478 
L 236.729745 232.990478 
L 236.729745 232.990478 
L 236.729745 232.990478 
L 236.729745 232.990478 
L 236.729745 232.990478 
L 236.729745 232.990478 
L 236.729745 232.990478 
L 236.729745 232.990478 
L 236.729745 232.990478 
L 236.729745 232.990478 
L 236.729745 232.990478 
L 236.729745 232.990478 
L 236.729745 232.990478 
L 236.729745 232.990478 
L 236.729745 232.990478 
L 236.729745 232.990478 
L 236.729745 232.990478 
L 236.729745 232.990478 
L 236.729745 232.990478 
L 236.729745 232.990478 
L 236.729745 232.990478 
L 236.729745 232.990478 
L 236.729745 232.990478 
L 236.729745 232.990478 
L 236.729745 232.990478 
L 236.729745 232.990478 
L 236.729745 232.990478 
L 236.729745 232.990478 
L 236.729745 232.990478 
L 236.729745 232.990478 
L 236.729745 232.990478 
L 236.729745 232.990478 
L 236.729745 232.990478 
L 236.729745 232.990478 
L 236.729745 232.990478 
L 236.729745 232.990478 
L 236.729745 232.990478 
L 236.729745 232.990478 
L 236.729745 232.990478 
L 236.729745 232.990478 
L 236.729745 232.990478 
L 236.729745 232.990478 
z
" style="stroke:#000000;stroke-linejoin:miter;"/>
   </g>
   <g id="text_1">
    <!-- t = 5.2 -->
    <defs>
     <path d="M 18.3125 70.21875 
L 18.3125 54.6875 
L 36.8125 54.6875 
L 36.8125 47.703125 
L 18.3125 47.703125 
L 18.3125 18.015625 
Q 18.3125 11.328125 20.140625 9.421875 
Q 21.96875 7.515625 27.59375 7.515625 
L 36.8125 7.515625 
L 36.8125 0 
L 27.59375 0 
Q 17.1875 0 13.234375 3.875 
Q 9.28125 7.765625 9.28125 18.015625 
L 9.28125 47.703125 
L 2.6875 47.703125 
L 2.6875 54.6875 
L 9.28125 54.6875 
L 9.28125 70.21875 
z
" id="DejaVuSans-116"/>
     <path id="DejaVuSans-32"/>
     <path d="M 10.59375 45.40625 
L 73.1875 45.40625 
L 73.1875 37.203125 
L 10.59375 37.203125 
z
M 10.59375 25.484375 
L 73.1875 25.484375 
L 73.1875 17.1875 
L 10.59375 17.1875 
z
" id="DejaVuSans-61"/>
     <path d="M 10.796875 72.90625 
L 49.515625 72.90625 
L 49.515625 64.59375 
L 19.828125 64.59375 
L 19.828125 46.734375 
Q 21.96875 47.46875 24.109375 47.828125 
Q 26.265625 48.1875 28.421875 48.1875 
Q 40.625 48.1875 47.75 41.5 
Q 54.890625 34.8125 54.890625 23.390625 
Q 54.890625 11.625 47.5625 5.09375 
Q 40.234375 -1.421875 26.90625 -1.421875 
Q 22.3125 -1.421875 17.546875 -0.640625 
Q 12.796875 0.140625 7.71875 1.703125 
L 7.71875 11.625 
Q 12.109375 9.234375 16.796875 8.0625 
Q 21.484375 6.890625 26.703125 6.890625 
Q 35.15625 6.890625 40.078125 11.328125 
Q 45.015625 15.765625 45.015625 23.390625 
Q 45.015625 31 40.078125 35.4375 
Q 35.15625 39.890625 26.703125 39.890625 
Q 22.75 39.890625 18.8125 39.015625 
Q 14.890625 38.140625 10.796875 36.28125 
z
" id="DejaVuSans-53"/>
     <path d="M 10.6875 12.40625 
L 21 12.40625 
L 21 0 
L 10.6875 0 
z
" id="DejaVuSans-46"/>
     <path d="M 19.1875 8.296875 
L 53.609375 8.296875 
L 53.609375 0 
L 7.328125 0 
L 7.328125 8.296875 
Q 12.9375 14.109375 22.625 23.890625 
Q 32.328125 33.6875 34.8125 36.53125 
Q 39.546875 41.84375 41.421875 45.53125 
Q 43.3125 49.21875 43.3125 52.78125 
Q 43.3125 58.59375 39.234375 62.25 
Q 35.15625 65.921875 28.609375 65.921875 
Q 23.96875 65.921875 18.8125 64.3125 
Q 13.671875 62.703125 7.8125 59.421875 
L 7.8125 69.390625 
Q 13.765625 71.78125 18.9375 73 
Q 24.125 74.21875 28.421875 74.21875 
Q 39.75 74.21875 46.484375 68.546875 
Q 53.21875 62.890625 53.21875 53.421875 
Q 53.21875 48.921875 51.53125 44.890625 
Q 49.859375 40.875 45.40625 35.40625 
Q 44.1875 33.984375 37.640625 27.21875 
Q 31.109375 20.453125 19.1875 8.296875 
z
" id="DejaVuSans-50"/>
    </defs>
    <g transform="translate(215.424375 49.296)scale(0.12 -0.12)">
     <use xlink:href="#DejaVuSans-116"/>
     <use x="39.208984" xlink:href="#DejaVuSans-32"/>
     <use x="70.996094" xlink:href="#DejaVuSans-61"/>
     <use x="154.785156" xlink:href="#DejaVuSans-32"/>
     <use x="186.572266" xlink:href="#DejaVuSans-53"/>
     <use x="250.195312" xlink:href="#DejaVuSans-46"/>
     <use x="281.982422" xlink:href="#DejaVuSans-50"/>
    </g>
   </g>
  </g>
 </g>
 <defs>
  <clipPath id="pdbb9d3b5e7">
   <rect height="354.816" width="357.12" x="57.6" y="55.296"/>
  </clipPath>
 </defs>
</svg>
