<?xml version="1.0" encoding="utf-8" standalone="no"?>
<!DOCTYPE svg PUBLIC "-//W3C//DTD SVG 1.1//EN"
  "http://www.w3.org/Graphics/SVG/1.1/DTD/svg11.dtd">
<!-- Created with matplotlib (https://matplotlib.org/) -->
<svg height="460.8pt" version="1.1" viewBox="0 0 460.8 460.8" width="460.8pt" xmlns="http://www.w3.org/2000/svg" xmlns:xlink="http://www.w3.org/1999/xlink">
 <defs>
  <style type="text/css">
*{stroke-linecap:butt;stroke-linejoin:round;}
  </style>
 </defs>
 <g id="figure_1">
  <g id="patch_1">
   <path d="M 0 460.8 
L 460.8 460.8 
L 460.8 0 
L 0 0 
z
" style="fill:#ffffff;"/>
  </g>
  <g id="axes_1">
   <g id="patch_2">
    <path clip-path="url(#p2688eb40bc)" d="M 137.568755 317.371442 
L 137.668233 319.135101 
L 138.102843 320.454019 
L 139.064294 321.964932 
L 140.058119 322.890791 
L 141.646147 323.779035 
L 142.955863 324.085152 
L 144.781663 324.133254 
L 146.086607 323.744681 
L 147.703159 322.940864 
L 148.683834 321.952738 
L 149.695351 320.493804 
L 150.111654 319.148051 
L 150.27048 317.391198 
L 150.020486 316.017307 
L 149.287736 314.392674 
L 148.116827 313.025722 
L 147.004153 312.258188 
L 145.304806 311.594124 
L 143.962407 311.484523 
L 142.150682 311.685934 
L 140.907224 312.2611 
L 139.426692 313.278673 
L 138.586618 314.397784 
L 137.799767 315.982382 
L 137.799767 315.982382 
L 137.799767 315.982382 
L 137.799767 315.982382 
L 137.799767 315.982382 
L 137.799767 315.982382 
L 137.799767 315.982382 
L 137.799767 315.982382 
L 137.799767 315.982382 
L 137.799767 315.982382 
L 137.799767 315.982382 
L 137.799767 315.982382 
L 137.799767 315.982382 
L 137.799767 315.982382 
L 137.799767 315.982382 
L 137.799767 315.982382 
L 137.799767 315.982382 
L 137.799767 315.982382 
L 137.799767 315.982382 
L 137.799767 315.982382 
L 137.799767 315.982382 
L 137.799767 315.982382 
L 137.799767 315.982382 
L 137.799767 315.982382 
L 137.799767 315.982382 
L 137.799767 315.982382 
L 137.799767 315.982382 
L 137.799767 315.982382 
L 137.799767 315.982382 
L 137.799767 315.982382 
L 137.799767 315.982382 
L 137.799767 315.982382 
L 137.799767 315.982382 
L 137.799767 315.982382 
L 137.799767 315.982382 
L 137.799767 315.982382 
L 137.799767 315.982382 
L 137.799767 315.982382 
L 137.799767 315.982382 
L 137.799767 315.982382 
L 137.799767 315.982382 
L 137.799767 315.982382 
L 137.799767 315.982382 
L 137.799767 315.982382 
L 137.799767 315.982382 
L 137.799767 315.982382 
L 137.799767 315.982382 
L 137.799767 315.982382 
L 137.799767 315.982382 
L 137.799767 315.982382 
L 137.799767 315.982382 
L 137.799767 315.982382 
L 137.799767 315.982382 
L 137.799767 315.982382 
L 137.799767 315.982382 
L 137.799767 315.982382 
L 137.799767 315.982382 
L 137.799767 315.982382 
L 137.799767 315.982382 
L 137.799767 315.982382 
L 137.799767 315.982382 
L 137.799767 315.982382 
L 137.799767 315.982382 
L 137.799767 315.982382 
L 137.799767 315.982382 
L 137.799767 315.982382 
L 137.799767 315.982382 
L 137.799767 315.982382 
L 137.799767 315.982382 
L 137.799767 315.982382 
L 137.799767 315.982382 
L 137.799767 315.982382 
L 137.799767 315.982382 
L 137.799767 315.982382 
L 137.799767 315.982382 
L 137.799767 315.982382 
L 137.799767 315.982382 
L 137.799767 315.982382 
L 137.799767 315.982382 
L 137.799767 315.982382 
L 137.799767 315.982382 
L 137.799767 315.982382 
L 137.799767 315.982382 
L 137.799767 315.982382 
L 137.799767 315.982382 
L 137.799767 315.982382 
L 137.799767 315.982382 
L 137.799767 315.982382 
L 137.799767 315.982382 
L 137.799767 315.982382 
L 137.799767 315.982382 
L 137.799767 315.982382 
L 137.799767 315.982382 
L 137.799767 315.982382 
L 137.799767 315.982382 
L 137.799767 315.982382 
L 137.799767 315.982382 
L 137.799767 315.982382 
L 137.799767 315.982382 
L 137.799767 315.982382 
L 137.799767 315.982382 
L 137.799767 315.982382 
L 137.799767 315.982382 
L 137.799767 315.982382 
L 137.799767 315.982382 
L 137.799767 315.982382 
L 137.799767 315.982382 
L 137.799767 315.982382 
L 137.799767 315.982382 
L 137.799767 315.982382 
L 137.799767 315.982382 
L 137.799767 315.982382 
L 137.799767 315.982382 
L 137.799767 315.982382 
L 137.799767 315.982382 
L 137.799767 315.982382 
L 137.799767 315.982382 
L 137.799767 315.982382 
L 137.799767 315.982382 
L 137.799767 315.982382 
L 137.799767 315.982382 
L 137.799767 315.982382 
L 137.799767 315.982382 
L 137.799767 315.982382 
L 137.799767 315.982382 
L 137.799767 315.982382 
L 137.799767 315.982382 
L 137.799767 315.982382 
L 137.799767 315.982382 
L 137.799767 315.982382 
L 137.799767 315.982382 
L 137.799767 315.982382 
L 137.799767 315.982382 
L 137.799767 315.982382 
L 137.799767 315.982382 
L 137.799767 315.982382 
L 137.799767 315.982382 
L 137.799767 315.982382 
L 137.799767 315.982382 
L 137.799767 315.982382 
L 137.799767 315.982382 
L 137.799767 315.982382 
L 137.799767 315.982382 
L 137.799767 315.982382 
L 137.799767 315.982382 
z
" style="fill:#993333;stroke:#000000;stroke-linejoin:miter;"/>
   </g>
   <g id="patch_3">
    <path clip-path="url(#p2688eb40bc)" d="M 143.567169 317.281443 
L 144.249885 318.354328 
L 198.052019 284.118009 
L 197.369303 283.045125 
L 197.369303 283.045125 
L 197.369303 283.045125 
L 197.369303 283.045125 
L 197.369303 283.045125 
L 197.369303 283.045125 
L 197.369303 283.045125 
L 197.369303 283.045125 
L 197.369303 283.045125 
L 197.369303 283.045125 
L 197.369303 283.045125 
L 197.369303 283.045125 
L 197.369303 283.045125 
L 197.369303 283.045125 
L 197.369303 283.045125 
L 197.369303 283.045125 
L 197.369303 283.045125 
L 197.369303 283.045125 
L 197.369303 283.045125 
L 197.369303 283.045125 
L 197.369303 283.045125 
L 197.369303 283.045125 
L 197.369303 283.045125 
L 197.369303 283.045125 
L 197.369303 283.045125 
L 197.369303 283.045125 
L 197.369303 283.045125 
L 197.369303 283.045125 
L 197.369303 283.045125 
L 197.369303 283.045125 
L 197.369303 283.045125 
L 197.369303 283.045125 
L 197.369303 283.045125 
L 197.369303 283.045125 
L 197.369303 283.045125 
L 197.369303 283.045125 
L 197.369303 283.045125 
L 197.369303 283.045125 
L 197.369303 283.045125 
L 197.369303 283.045125 
L 197.369303 283.045125 
L 197.369303 283.045125 
L 197.369303 283.045125 
L 197.369303 283.045125 
L 197.369303 283.045125 
L 197.369303 283.045125 
L 197.369303 283.045125 
L 197.369303 283.045125 
L 197.369303 283.045125 
z
" style="stroke:#000000;stroke-linejoin:miter;"/>
   </g>
   <g id="patch_4">
    <path clip-path="url(#p2688eb40bc)" d="M 192.957575 279.423086 
L 191.925858 280.893795 
L 191.529713 282.235885 
L 191.346066 283.995533 
L 191.614916 285.377768 
L 192.324304 286.99553 
L 193.192324 288.079492 
L 194.621063 289.159284 
L 195.875732 289.67958 
L 197.674017 289.957031 
L 199.008149 289.786275 
L 200.735698 289.193456 
L 201.82265 288.373455 
L 203.056497 287.055508 
L 203.630146 285.787027 
L 204.068204 284.066632 
L 203.9881 282.660239 
L 203.523116 280.958608 
L 202.808872 279.758637 
L 201.554691 278.492389 
L 199.97999 277.620665 
L 198.669276 277.29024 
L 196.84501 277.261734 
L 195.548913 277.628041 
L 193.921725 278.449732 
L 193.921725 278.449732 
L 193.921725 278.449732 
L 193.921725 278.449732 
L 193.921725 278.449732 
L 193.921725 278.449732 
L 193.921725 278.449732 
L 193.921725 278.449732 
L 193.921725 278.449732 
L 193.921725 278.449732 
L 193.921725 278.449732 
L 193.921725 278.449732 
L 193.921725 278.449732 
L 193.921725 278.449732 
L 193.921725 278.449732 
L 193.921725 278.449732 
L 193.921725 278.449732 
L 193.921725 278.449732 
L 193.921725 278.449732 
L 193.921725 278.449732 
L 193.921725 278.449732 
L 193.921725 278.449732 
L 193.921725 278.449732 
L 193.921725 278.449732 
L 193.921725 278.449732 
L 193.921725 278.449732 
L 193.921725 278.449732 
L 193.921725 278.449732 
L 193.921725 278.449732 
L 193.921725 278.449732 
L 193.921725 278.449732 
L 193.921725 278.449732 
L 193.921725 278.449732 
L 193.921725 278.449732 
L 193.921725 278.449732 
L 193.921725 278.449732 
L 193.921725 278.449732 
L 193.921725 278.449732 
L 193.921725 278.449732 
L 193.921725 278.449732 
L 193.921725 278.449732 
L 193.921725 278.449732 
L 193.921725 278.449732 
L 193.921725 278.449732 
L 193.921725 278.449732 
L 193.921725 278.449732 
L 193.921725 278.449732 
L 193.921725 278.449732 
L 193.921725 278.449732 
L 193.921725 278.449732 
L 193.921725 278.449732 
L 193.921725 278.449732 
L 193.921725 278.449732 
L 193.921725 278.449732 
L 193.921725 278.449732 
L 193.921725 278.449732 
L 193.921725 278.449732 
L 193.921725 278.449732 
L 193.921725 278.449732 
L 193.921725 278.449732 
L 193.921725 278.449732 
L 193.921725 278.449732 
L 193.921725 278.449732 
L 193.921725 278.449732 
L 193.921725 278.449732 
L 193.921725 278.449732 
L 193.921725 278.449732 
L 193.921725 278.449732 
L 193.921725 278.449732 
L 193.921725 278.449732 
L 193.921725 278.449732 
L 193.921725 278.449732 
L 193.921725 278.449732 
L 193.921725 278.449732 
L 193.921725 278.449732 
L 193.921725 278.449732 
L 193.921725 278.449732 
L 193.921725 278.449732 
L 193.921725 278.449732 
L 193.921725 278.449732 
L 193.921725 278.449732 
L 193.921725 278.449732 
L 193.921725 278.449732 
L 193.921725 278.449732 
L 193.921725 278.449732 
L 193.921725 278.449732 
L 193.921725 278.449732 
L 193.921725 278.449732 
L 193.921725 278.449732 
L 193.921725 278.449732 
L 193.921725 278.449732 
L 193.921725 278.449732 
L 193.921725 278.449732 
L 193.921725 278.449732 
L 193.921725 278.449732 
L 193.921725 278.449732 
L 193.921725 278.449732 
L 193.921725 278.449732 
L 193.921725 278.449732 
L 193.921725 278.449732 
L 193.921725 278.449732 
L 193.921725 278.449732 
L 193.921725 278.449732 
L 193.921725 278.449732 
L 193.921725 278.449732 
L 193.921725 278.449732 
L 193.921725 278.449732 
L 193.921725 278.449732 
L 193.921725 278.449732 
L 193.921725 278.449732 
L 193.921725 278.449732 
L 193.921725 278.449732 
L 193.921725 278.449732 
L 193.921725 278.449732 
L 193.921725 278.449732 
L 193.921725 278.449732 
L 193.921725 278.449732 
L 193.921725 278.449732 
L 193.921725 278.449732 
L 193.921725 278.449732 
L 193.921725 278.449732 
L 193.921725 278.449732 
L 193.921725 278.449732 
L 193.921725 278.449732 
L 193.921725 278.449732 
L 193.921725 278.449732 
L 193.921725 278.449732 
L 193.921725 278.449732 
L 193.921725 278.449732 
L 193.921725 278.449732 
L 193.921725 278.449732 
L 193.921725 278.449732 
L 193.921725 278.449732 
L 193.921725 278.449732 
L 193.921725 278.449732 
L 193.921725 278.449732 
L 193.921725 278.449732 
L 193.921725 278.449732 
L 193.921725 278.449732 
L 193.921725 278.449732 
L 193.921725 278.449732 
L 193.921725 278.449732 
L 193.921725 278.449732 
L 193.921725 278.449732 
L 193.921725 278.449732 
z
" style="fill:#993333;stroke:#000000;stroke-linejoin:miter;"/>
   </g>
   <g id="patch_5">
    <path clip-path="url(#p2688eb40bc)" d="M 197.203883 283.197742 
L 198.218416 283.964491 
L 236.66876 233.088503 
L 235.654227 232.321754 
L 235.654227 232.321754 
L 235.654227 232.321754 
L 235.654227 232.321754 
L 235.654227 232.321754 
L 235.654227 232.321754 
L 235.654227 232.321754 
L 235.654227 232.321754 
L 235.654227 232.321754 
L 235.654227 232.321754 
L 235.654227 232.321754 
L 235.654227 232.321754 
L 235.654227 232.321754 
L 235.654227 232.321754 
L 235.654227 232.321754 
L 235.654227 232.321754 
L 235.654227 232.321754 
L 235.654227 232.321754 
L 235.654227 232.321754 
L 235.654227 232.321754 
L 235.654227 232.321754 
L 235.654227 232.321754 
L 235.654227 232.321754 
L 235.654227 232.321754 
L 235.654227 232.321754 
L 235.654227 232.321754 
L 235.654227 232.321754 
L 235.654227 232.321754 
L 235.654227 232.321754 
L 235.654227 232.321754 
L 235.654227 232.321754 
L 235.654227 232.321754 
L 235.654227 232.321754 
L 235.654227 232.321754 
L 235.654227 232.321754 
L 235.654227 232.321754 
L 235.654227 232.321754 
L 235.654227 232.321754 
L 235.654227 232.321754 
L 235.654227 232.321754 
L 235.654227 232.321754 
L 235.654227 232.321754 
L 235.654227 232.321754 
L 235.654227 232.321754 
L 235.654227 232.321754 
L 235.654227 232.321754 
L 235.654227 232.321754 
L 235.654227 232.321754 
L 235.654227 232.321754 
z
" style="stroke:#000000;stroke-linejoin:miter;"/>
   </g>
   <g id="text_1">
    <!-- t = 8.9 -->
    <defs>
     <path d="M 18.3125 70.21875 
L 18.3125 54.6875 
L 36.8125 54.6875 
L 36.8125 47.703125 
L 18.3125 47.703125 
L 18.3125 18.015625 
Q 18.3125 11.328125 20.140625 9.421875 
Q 21.96875 7.515625 27.59375 7.515625 
L 36.8125 7.515625 
L 36.8125 0 
L 27.59375 0 
Q 17.1875 0 13.234375 3.875 
Q 9.28125 7.765625 9.28125 18.015625 
L 9.28125 47.703125 
L 2.6875 47.703125 
L 2.6875 54.6875 
L 9.28125 54.6875 
L 9.28125 70.21875 
z
" id="DejaVuSans-116"/>
     <path id="DejaVuSans-32"/>
     <path d="M 10.59375 45.40625 
L 73.1875 45.40625 
L 73.1875 37.203125 
L 10.59375 37.203125 
z
M 10.59375 25.484375 
L 73.1875 25.484375 
L 73.1875 17.1875 
L 10.59375 17.1875 
z
" id="DejaVuSans-61"/>
     <path d="M 31.78125 34.625 
Q 24.75 34.625 20.71875 30.859375 
Q 16.703125 27.09375 16.703125 20.515625 
Q 16.703125 13.921875 20.71875 10.15625 
Q 24.75 6.390625 31.78125 6.390625 
Q 38.8125 6.390625 42.859375 10.171875 
Q 46.921875 13.96875 46.921875 20.515625 
Q 46.921875 27.09375 42.890625 30.859375 
Q 38.875 34.625 31.78125 34.625 
z
M 21.921875 38.8125 
Q 15.578125 40.375 12.03125 44.71875 
Q 8.5 49.078125 8.5 55.328125 
Q 8.5 64.0625 14.71875 69.140625 
Q 20.953125 74.21875 31.78125 74.21875 
Q 42.671875 74.21875 48.875 69.140625 
Q 55.078125 64.0625 55.078125 55.328125 
Q 55.078125 49.078125 51.53125 44.71875 
Q 48 40.375 41.703125 38.8125 
Q 48.828125 37.15625 52.796875 32.3125 
Q 56.78125 27.484375 56.78125 20.515625 
Q 56.78125 9.90625 50.3125 4.234375 
Q 43.84375 -1.421875 31.78125 -1.421875 
Q 19.734375 -1.421875 13.25 4.234375 
Q 6.78125 9.90625 6.78125 20.515625 
Q 6.78125 27.484375 10.78125 32.3125 
Q 14.796875 37.15625 21.921875 38.8125 
z
M 18.3125 54.390625 
Q 18.3125 48.734375 21.84375 45.5625 
Q 25.390625 42.390625 31.78125 42.390625 
Q 38.140625 42.390625 41.71875 45.5625 
Q 45.3125 48.734375 45.3125 54.390625 
Q 45.3125 60.0625 41.71875 63.234375 
Q 38.140625 66.40625 31.78125 66.40625 
Q 25.390625 66.40625 21.84375 63.234375 
Q 18.3125 60.0625 18.3125 54.390625 
z
" id="DejaVuSans-56"/>
     <path d="M 10.6875 12.40625 
L 21 12.40625 
L 21 0 
L 10.6875 0 
z
" id="DejaVuSans-46"/>
     <path d="M 10.984375 1.515625 
L 10.984375 10.5 
Q 14.703125 8.734375 18.5 7.8125 
Q 22.3125 6.890625 25.984375 6.890625 
Q 35.75 6.890625 40.890625 13.453125 
Q 46.046875 20.015625 46.78125 33.40625 
Q 43.953125 29.203125 39.59375 26.953125 
Q 35.25 24.703125 29.984375 24.703125 
Q 19.046875 24.703125 12.671875 31.3125 
Q 6.296875 37.9375 6.296875 49.421875 
Q 6.296875 60.640625 12.9375 67.421875 
Q 19.578125 74.21875 30.609375 74.21875 
Q 43.265625 74.21875 49.921875 64.515625 
Q 56.59375 54.828125 56.59375 36.375 
Q 56.59375 19.140625 48.40625 8.859375 
Q 40.234375 -1.421875 26.421875 -1.421875 
Q 22.703125 -1.421875 18.890625 -0.6875 
Q 15.09375 0.046875 10.984375 1.515625 
z
M 30.609375 32.421875 
Q 37.25 32.421875 41.125 36.953125 
Q 45.015625 41.5 45.015625 49.421875 
Q 45.015625 57.28125 41.125 61.84375 
Q 37.25 66.40625 30.609375 66.40625 
Q 23.96875 66.40625 20.09375 61.84375 
Q 16.21875 57.28125 16.21875 49.421875 
Q 16.21875 41.5 20.09375 36.953125 
Q 23.96875 32.421875 30.609375 32.421875 
z
" id="DejaVuSans-57"/>
    </defs>
    <g transform="translate(215.424375 49.296)scale(0.12 -0.12)">
     <use xlink:href="#DejaVuSans-116"/>
     <use x="39.208984" xlink:href="#DejaVuSans-32"/>
     <use x="70.996094" xlink:href="#DejaVuSans-61"/>
     <use x="154.785156" xlink:href="#DejaVuSans-32"/>
     <use x="186.572266" xlink:href="#DejaVuSans-56"/>
     <use x="250.195312" xlink:href="#DejaVuSans-46"/>
     <use x="281.982422" xlink:href="#DejaVuSans-57"/>
    </g>
   </g>
  </g>
 </g>
 <defs>
  <clipPath id="p2688eb40bc">
   <rect height="354.816" width="357.12" x="57.6" y="55.296"/>
  </clipPath>
 </defs>
</svg>
