<?xml version="1.0" encoding="utf-8" standalone="no"?>
<!DOCTYPE svg PUBLIC "-//W3C//DTD SVG 1.1//EN"
  "http://www.w3.org/Graphics/SVG/1.1/DTD/svg11.dtd">
<!-- Created with matplotlib (https://matplotlib.org/) -->
<svg height="460.8pt" version="1.1" viewBox="0 0 460.8 460.8" width="460.8pt" xmlns="http://www.w3.org/2000/svg" xmlns:xlink="http://www.w3.org/1999/xlink">
 <defs>
  <style type="text/css">
*{stroke-linecap:butt;stroke-linejoin:round;}
  </style>
 </defs>
 <g id="figure_1">
  <g id="patch_1">
   <path d="M 0 460.8 
L 460.8 460.8 
L 460.8 0 
L 0 0 
z
" style="fill:#ffffff;"/>
  </g>
  <g id="axes_1">
   <g id="patch_2">
    <path clip-path="url(#p78308eed28)" d="M 350.762016 277.868117 
L 351.564698 278.949666 
L 352.910658 280.179019 
L 354.162948 280.734691 
L 355.904174 281.176914 
L 357.299468 281.07066 
L 359.009648 280.61748 
L 360.206329 279.875315 
L 361.466751 278.637687 
L 362.17183 277.44132 
L 362.673898 275.722258 
L 362.714747 274.3646 
L 362.335538 272.584991 
L 361.702156 271.398445 
L 360.534514 269.993998 
L 359.381974 269.269071 
L 357.711778 268.583645 
L 356.322263 268.497825 
L 354.558435 268.699236 
L 353.272146 269.273534 
L 351.846533 270.312469 
L 350.978399 271.406278 
L 350.240041 273.02837 
L 349.984311 274.809995 
L 350.140861 276.152621 
L 350.140861 276.152621 
L 350.140861 276.152621 
L 350.140861 276.152621 
L 350.140861 276.152621 
L 350.140861 276.152621 
L 350.140861 276.152621 
L 350.140861 276.152621 
L 350.140861 276.152621 
L 350.140861 276.152621 
L 350.140861 276.152621 
L 350.140861 276.152621 
L 350.140861 276.152621 
L 350.140861 276.152621 
L 350.140861 276.152621 
L 350.140861 276.152621 
L 350.140861 276.152621 
L 350.140861 276.152621 
L 350.140861 276.152621 
L 350.140861 276.152621 
L 350.140861 276.152621 
L 350.140861 276.152621 
L 350.140861 276.152621 
L 350.140861 276.152621 
L 350.140861 276.152621 
L 350.140861 276.152621 
L 350.140861 276.152621 
L 350.140861 276.152621 
L 350.140861 276.152621 
L 350.140861 276.152621 
L 350.140861 276.152621 
L 350.140861 276.152621 
L 350.140861 276.152621 
L 350.140861 276.152621 
L 350.140861 276.152621 
L 350.140861 276.152621 
L 350.140861 276.152621 
L 350.140861 276.152621 
L 350.140861 276.152621 
L 350.140861 276.152621 
L 350.140861 276.152621 
L 350.140861 276.152621 
L 350.140861 276.152621 
L 350.140861 276.152621 
L 350.140861 276.152621 
L 350.140861 276.152621 
L 350.140861 276.152621 
L 350.140861 276.152621 
L 350.140861 276.152621 
L 350.140861 276.152621 
L 350.140861 276.152621 
L 350.140861 276.152621 
L 350.140861 276.152621 
L 350.140861 276.152621 
L 350.140861 276.152621 
L 350.140861 276.152621 
L 350.140861 276.152621 
L 350.140861 276.152621 
L 350.140861 276.152621 
L 350.140861 276.152621 
L 350.140861 276.152621 
L 350.140861 276.152621 
L 350.140861 276.152621 
L 350.140861 276.152621 
L 350.140861 276.152621 
L 350.140861 276.152621 
L 350.140861 276.152621 
L 350.140861 276.152621 
L 350.140861 276.152621 
L 350.140861 276.152621 
L 350.140861 276.152621 
L 350.140861 276.152621 
L 350.140861 276.152621 
L 350.140861 276.152621 
L 350.140861 276.152621 
L 350.140861 276.152621 
L 350.140861 276.152621 
L 350.140861 276.152621 
L 350.140861 276.152621 
L 350.140861 276.152621 
L 350.140861 276.152621 
L 350.140861 276.152621 
L 350.140861 276.152621 
L 350.140861 276.152621 
L 350.140861 276.152621 
L 350.140861 276.152621 
L 350.140861 276.152621 
L 350.140861 276.152621 
L 350.140861 276.152621 
L 350.140861 276.152621 
L 350.140861 276.152621 
L 350.140861 276.152621 
L 350.140861 276.152621 
L 350.140861 276.152621 
L 350.140861 276.152621 
L 350.140861 276.152621 
L 350.140861 276.152621 
L 350.140861 276.152621 
L 350.140861 276.152621 
L 350.140861 276.152621 
L 350.140861 276.152621 
L 350.140861 276.152621 
L 350.140861 276.152621 
L 350.140861 276.152621 
L 350.140861 276.152621 
L 350.140861 276.152621 
L 350.140861 276.152621 
L 350.140861 276.152621 
L 350.140861 276.152621 
L 350.140861 276.152621 
L 350.140861 276.152621 
L 350.140861 276.152621 
L 350.140861 276.152621 
L 350.140861 276.152621 
L 350.140861 276.152621 
L 350.140861 276.152621 
L 350.140861 276.152621 
L 350.140861 276.152621 
L 350.140861 276.152621 
L 350.140861 276.152621 
L 350.140861 276.152621 
L 350.140861 276.152621 
L 350.140861 276.152621 
L 350.140861 276.152621 
L 350.140861 276.152621 
L 350.140861 276.152621 
L 350.140861 276.152621 
L 350.140861 276.152621 
L 350.140861 276.152621 
L 350.140861 276.152621 
L 350.140861 276.152621 
L 350.140861 276.152621 
L 350.140861 276.152621 
L 350.140861 276.152621 
L 350.140861 276.152621 
L 350.140861 276.152621 
L 350.140861 276.152621 
L 350.140861 276.152621 
L 350.140861 276.152621 
L 350.140861 276.152621 
L 350.140861 276.152621 
L 350.140861 276.152621 
L 350.140861 276.152621 
L 350.140861 276.152621 
L 350.140861 276.152621 
z
" style="fill:#993333;stroke:#000000;stroke-linejoin:miter;"/>
   </g>
   <g id="patch_3">
    <path clip-path="url(#p78308eed28)" d="M 294.969617 257.546568 
L 356.183719 275.424734 
L 356.540233 274.204045 
L 295.326131 256.325879 
L 295.326131 256.325879 
L 295.326131 256.325879 
L 295.326131 256.325879 
L 295.326131 256.325879 
L 295.326131 256.325879 
L 295.326131 256.325879 
L 295.326131 256.325879 
L 295.326131 256.325879 
L 295.326131 256.325879 
L 295.326131 256.325879 
L 295.326131 256.325879 
L 295.326131 256.325879 
L 295.326131 256.325879 
L 295.326131 256.325879 
L 295.326131 256.325879 
L 295.326131 256.325879 
L 295.326131 256.325879 
L 295.326131 256.325879 
L 295.326131 256.325879 
L 295.326131 256.325879 
L 295.326131 256.325879 
L 295.326131 256.325879 
L 295.326131 256.325879 
L 295.326131 256.325879 
L 295.326131 256.325879 
L 295.326131 256.325879 
L 295.326131 256.325879 
L 295.326131 256.325879 
L 295.326131 256.325879 
L 295.326131 256.325879 
L 295.326131 256.325879 
L 295.326131 256.325879 
L 295.326131 256.325879 
L 295.326131 256.325879 
L 295.326131 256.325879 
L 295.326131 256.325879 
L 295.326131 256.325879 
L 295.326131 256.325879 
L 295.326131 256.325879 
L 295.326131 256.325879 
L 295.326131 256.325879 
L 295.326131 256.325879 
L 295.326131 256.325879 
L 295.326131 256.325879 
L 295.326131 256.325879 
L 295.326131 256.325879 
L 295.326131 256.325879 
L 295.326131 256.325879 
z
" style="stroke:#000000;stroke-linejoin:miter;"/>
   </g>
   <g id="patch_4">
    <path clip-path="url(#p78308eed28)" d="M 294.021829 263.215054 
L 295.420548 263.256539 
L 297.168983 262.986239 
L 298.437259 262.374413 
L 299.82117 261.276609 
L 300.648484 260.161269 
L 301.329043 258.504741 
L 301.512841 257.158961 
L 301.323422 255.349285 
L 300.818702 254.10256 
L 299.805682 252.582807 
L 298.736019 251.740377 
L 297.147421 250.882637 
L 295.774704 250.650759 
L 293.999472 250.665036 
L 292.659791 251.100482 
L 291.132563 251.983281 
L 290.153919 252.979438 
L 289.248614 254.514618 
L 288.806423 256.25934 
L 288.820508 257.610988 
L 289.257286 259.382424 
L 289.941434 260.542592 
L 291.150242 261.907033 
L 292.336949 262.591671 
L 292.336949 262.591671 
L 292.336949 262.591671 
L 292.336949 262.591671 
L 292.336949 262.591671 
L 292.336949 262.591671 
L 292.336949 262.591671 
L 292.336949 262.591671 
L 292.336949 262.591671 
L 292.336949 262.591671 
L 292.336949 262.591671 
L 292.336949 262.591671 
L 292.336949 262.591671 
L 292.336949 262.591671 
L 292.336949 262.591671 
L 292.336949 262.591671 
L 292.336949 262.591671 
L 292.336949 262.591671 
L 292.336949 262.591671 
L 292.336949 262.591671 
L 292.336949 262.591671 
L 292.336949 262.591671 
L 292.336949 262.591671 
L 292.336949 262.591671 
L 292.336949 262.591671 
L 292.336949 262.591671 
L 292.336949 262.591671 
L 292.336949 262.591671 
L 292.336949 262.591671 
L 292.336949 262.591671 
L 292.336949 262.591671 
L 292.336949 262.591671 
L 292.336949 262.591671 
L 292.336949 262.591671 
L 292.336949 262.591671 
L 292.336949 262.591671 
L 292.336949 262.591671 
L 292.336949 262.591671 
L 292.336949 262.591671 
L 292.336949 262.591671 
L 292.336949 262.591671 
L 292.336949 262.591671 
L 292.336949 262.591671 
L 292.336949 262.591671 
L 292.336949 262.591671 
L 292.336949 262.591671 
L 292.336949 262.591671 
L 292.336949 262.591671 
L 292.336949 262.591671 
L 292.336949 262.591671 
L 292.336949 262.591671 
L 292.336949 262.591671 
L 292.336949 262.591671 
L 292.336949 262.591671 
L 292.336949 262.591671 
L 292.336949 262.591671 
L 292.336949 262.591671 
L 292.336949 262.591671 
L 292.336949 262.591671 
L 292.336949 262.591671 
L 292.336949 262.591671 
L 292.336949 262.591671 
L 292.336949 262.591671 
L 292.336949 262.591671 
L 292.336949 262.591671 
L 292.336949 262.591671 
L 292.336949 262.591671 
L 292.336949 262.591671 
L 292.336949 262.591671 
L 292.336949 262.591671 
L 292.336949 262.591671 
L 292.336949 262.591671 
L 292.336949 262.591671 
L 292.336949 262.591671 
L 292.336949 262.591671 
L 292.336949 262.591671 
L 292.336949 262.591671 
L 292.336949 262.591671 
L 292.336949 262.591671 
L 292.336949 262.591671 
L 292.336949 262.591671 
L 292.336949 262.591671 
L 292.336949 262.591671 
L 292.336949 262.591671 
L 292.336949 262.591671 
L 292.336949 262.591671 
L 292.336949 262.591671 
L 292.336949 262.591671 
L 292.336949 262.591671 
L 292.336949 262.591671 
L 292.336949 262.591671 
L 292.336949 262.591671 
L 292.336949 262.591671 
L 292.336949 262.591671 
L 292.336949 262.591671 
L 292.336949 262.591671 
L 292.336949 262.591671 
L 292.336949 262.591671 
L 292.336949 262.591671 
L 292.336949 262.591671 
L 292.336949 262.591671 
L 292.336949 262.591671 
L 292.336949 262.591671 
L 292.336949 262.591671 
L 292.336949 262.591671 
L 292.336949 262.591671 
L 292.336949 262.591671 
L 292.336949 262.591671 
L 292.336949 262.591671 
L 292.336949 262.591671 
L 292.336949 262.591671 
L 292.336949 262.591671 
L 292.336949 262.591671 
L 292.336949 262.591671 
L 292.336949 262.591671 
L 292.336949 262.591671 
L 292.336949 262.591671 
L 292.336949 262.591671 
L 292.336949 262.591671 
L 292.336949 262.591671 
L 292.336949 262.591671 
L 292.336949 262.591671 
L 292.336949 262.591671 
L 292.336949 262.591671 
L 292.336949 262.591671 
L 292.336949 262.591671 
L 292.336949 262.591671 
L 292.336949 262.591671 
L 292.336949 262.591671 
L 292.336949 262.591671 
L 292.336949 262.591671 
L 292.336949 262.591671 
L 292.336949 262.591671 
L 292.336949 262.591671 
L 292.336949 262.591671 
L 292.336949 262.591671 
L 292.336949 262.591671 
L 292.336949 262.591671 
L 292.336949 262.591671 
L 292.336949 262.591671 
L 292.336949 262.591671 
L 292.336949 262.591671 
L 292.336949 262.591671 
L 292.336949 262.591671 
L 292.336949 262.591671 
z
" style="fill:#993333;stroke:#000000;stroke-linejoin:miter;"/>
   </g>
   <g id="patch_5">
    <path clip-path="url(#p78308eed28)" d="M 236.40234 232.114127 
L 235.919082 233.290411 
L 294.906432 257.524431 
L 295.389689 256.348147 
L 295.389689 256.348147 
L 295.389689 256.348147 
L 295.389689 256.348147 
L 295.389689 256.348147 
L 295.389689 256.348147 
L 295.389689 256.348147 
L 295.389689 256.348147 
L 295.389689 256.348147 
L 295.389689 256.348147 
L 295.389689 256.348147 
L 295.389689 256.348147 
L 295.389689 256.348147 
L 295.389689 256.348147 
L 295.389689 256.348147 
L 295.389689 256.348147 
L 295.389689 256.348147 
L 295.389689 256.348147 
L 295.389689 256.348147 
L 295.389689 256.348147 
L 295.389689 256.348147 
L 295.389689 256.348147 
L 295.389689 256.348147 
L 295.389689 256.348147 
L 295.389689 256.348147 
L 295.389689 256.348147 
L 295.389689 256.348147 
L 295.389689 256.348147 
L 295.389689 256.348147 
L 295.389689 256.348147 
L 295.389689 256.348147 
L 295.389689 256.348147 
L 295.389689 256.348147 
L 295.389689 256.348147 
L 295.389689 256.348147 
L 295.389689 256.348147 
L 295.389689 256.348147 
L 295.389689 256.348147 
L 295.389689 256.348147 
L 295.389689 256.348147 
L 295.389689 256.348147 
L 295.389689 256.348147 
L 295.389689 256.348147 
L 295.389689 256.348147 
L 295.389689 256.348147 
L 295.389689 256.348147 
L 295.389689 256.348147 
L 295.389689 256.348147 
L 295.389689 256.348147 
z
" style="stroke:#000000;stroke-linejoin:miter;"/>
   </g>
   <g id="text_1">
    <!-- t = 1.6 -->
    <defs>
     <path d="M 18.3125 70.21875 
L 18.3125 54.6875 
L 36.8125 54.6875 
L 36.8125 47.703125 
L 18.3125 47.703125 
L 18.3125 18.015625 
Q 18.3125 11.328125 20.140625 9.421875 
Q 21.96875 7.515625 27.59375 7.515625 
L 36.8125 7.515625 
L 36.8125 0 
L 27.59375 0 
Q 17.1875 0 13.234375 3.875 
Q 9.28125 7.765625 9.28125 18.015625 
L 9.28125 47.703125 
L 2.6875 47.703125 
L 2.6875 54.6875 
L 9.28125 54.6875 
L 9.28125 70.21875 
z
" id="DejaVuSans-116"/>
     <path id="DejaVuSans-32"/>
     <path d="M 10.59375 45.40625 
L 73.1875 45.40625 
L 73.1875 37.203125 
L 10.59375 37.203125 
z
M 10.59375 25.484375 
L 73.1875 25.484375 
L 73.1875 17.1875 
L 10.59375 17.1875 
z
" id="DejaVuSans-61"/>
     <path d="M 12.40625 8.296875 
L 28.515625 8.296875 
L 28.515625 63.921875 
L 10.984375 60.40625 
L 10.984375 69.390625 
L 28.421875 72.90625 
L 38.28125 72.90625 
L 38.28125 8.296875 
L 54.390625 8.296875 
L 54.390625 0 
L 12.40625 0 
z
" id="DejaVuSans-49"/>
     <path d="M 10.6875 12.40625 
L 21 12.40625 
L 21 0 
L 10.6875 0 
z
" id="DejaVuSans-46"/>
     <path d="M 33.015625 40.375 
Q 26.375 40.375 22.484375 35.828125 
Q 18.609375 31.296875 18.609375 23.390625 
Q 18.609375 15.53125 22.484375 10.953125 
Q 26.375 6.390625 33.015625 6.390625 
Q 39.65625 6.390625 43.53125 10.953125 
Q 47.40625 15.53125 47.40625 23.390625 
Q 47.40625 31.296875 43.53125 35.828125 
Q 39.65625 40.375 33.015625 40.375 
z
M 52.59375 71.296875 
L 52.59375 62.3125 
Q 48.875 64.0625 45.09375 64.984375 
Q 41.3125 65.921875 37.59375 65.921875 
Q 27.828125 65.921875 22.671875 59.328125 
Q 17.53125 52.734375 16.796875 39.40625 
Q 19.671875 43.65625 24.015625 45.921875 
Q 28.375 48.1875 33.59375 48.1875 
Q 44.578125 48.1875 50.953125 41.515625 
Q 57.328125 34.859375 57.328125 23.390625 
Q 57.328125 12.15625 50.6875 5.359375 
Q 44.046875 -1.421875 33.015625 -1.421875 
Q 20.359375 -1.421875 13.671875 8.265625 
Q 6.984375 17.96875 6.984375 36.375 
Q 6.984375 53.65625 15.1875 63.9375 
Q 23.390625 74.21875 37.203125 74.21875 
Q 40.921875 74.21875 44.703125 73.484375 
Q 48.484375 72.75 52.59375 71.296875 
z
" id="DejaVuSans-54"/>
    </defs>
    <g transform="translate(215.424375 49.296)scale(0.12 -0.12)">
     <use xlink:href="#DejaVuSans-116"/>
     <use x="39.208984" xlink:href="#DejaVuSans-32"/>
     <use x="70.996094" xlink:href="#DejaVuSans-61"/>
     <use x="154.785156" xlink:href="#DejaVuSans-32"/>
     <use x="186.572266" xlink:href="#DejaVuSans-49"/>
     <use x="250.195312" xlink:href="#DejaVuSans-46"/>
     <use x="281.982422" xlink:href="#DejaVuSans-54"/>
    </g>
   </g>
  </g>
 </g>
 <defs>
  <clipPath id="p78308eed28">
   <rect height="354.816" width="357.12" x="57.6" y="55.296"/>
  </clipPath>
 </defs>
</svg>
