<?xml version="1.0" encoding="utf-8" standalone="no"?>
<!DOCTYPE svg PUBLIC "-//W3C//DTD SVG 1.1//EN"
  "http://www.w3.org/Graphics/SVG/1.1/DTD/svg11.dtd">
<!-- Created with matplotlib (https://matplotlib.org/) -->
<svg height="460.8pt" version="1.1" viewBox="0 0 460.8 460.8" width="460.8pt" xmlns="http://www.w3.org/2000/svg" xmlns:xlink="http://www.w3.org/1999/xlink">
 <defs>
  <style type="text/css">
*{stroke-linecap:butt;stroke-linejoin:round;}
  </style>
 </defs>
 <g id="figure_1">
  <g id="patch_1">
   <path d="M 0 460.8 
L 460.8 460.8 
L 460.8 0 
L 0 0 
z
" style="fill:#ffffff;"/>
  </g>
  <g id="axes_1">
   <g id="patch_2">
    <path clip-path="url(#p21c3b913c4)" d="M 343.166454 290.158468 
L 343.32976 291.975634 
L 343.830206 293.226074 
L 344.8183 294.757932 
L 345.88756 295.614487 
L 347.458522 296.485984 
L 348.834803 296.738939 
L 350.604006 296.736703 
L 351.950347 296.324125 
L 353.48463 295.448703 
L 354.471399 294.471607 
L 355.395115 292.937333 
L 355.780717 291.634945 
L 355.867708 289.817463 
L 355.557735 288.508654 
L 354.786703 286.852946 
L 353.857046 285.858158 
L 352.416766 284.7696 
L 351.095038 284.33239 
L 349.338141 284.077499 
L 347.947947 284.304914 
L 346.304583 284.946095 
L 345.186291 285.782454 
L 344.058813 287.162725 
L 343.357348 288.820294 
L 343.357348 288.820294 
L 343.357348 288.820294 
L 343.357348 288.820294 
L 343.357348 288.820294 
L 343.357348 288.820294 
L 343.357348 288.820294 
L 343.357348 288.820294 
L 343.357348 288.820294 
L 343.357348 288.820294 
L 343.357348 288.820294 
L 343.357348 288.820294 
L 343.357348 288.820294 
L 343.357348 288.820294 
L 343.357348 288.820294 
L 343.357348 288.820294 
L 343.357348 288.820294 
L 343.357348 288.820294 
L 343.357348 288.820294 
L 343.357348 288.820294 
L 343.357348 288.820294 
L 343.357348 288.820294 
L 343.357348 288.820294 
L 343.357348 288.820294 
L 343.357348 288.820294 
L 343.357348 288.820294 
L 343.357348 288.820294 
L 343.357348 288.820294 
L 343.357348 288.820294 
L 343.357348 288.820294 
L 343.357348 288.820294 
L 343.357348 288.820294 
L 343.357348 288.820294 
L 343.357348 288.820294 
L 343.357348 288.820294 
L 343.357348 288.820294 
L 343.357348 288.820294 
L 343.357348 288.820294 
L 343.357348 288.820294 
L 343.357348 288.820294 
L 343.357348 288.820294 
L 343.357348 288.820294 
L 343.357348 288.820294 
L 343.357348 288.820294 
L 343.357348 288.820294 
L 343.357348 288.820294 
L 343.357348 288.820294 
L 343.357348 288.820294 
L 343.357348 288.820294 
L 343.357348 288.820294 
L 343.357348 288.820294 
L 343.357348 288.820294 
L 343.357348 288.820294 
L 343.357348 288.820294 
L 343.357348 288.820294 
L 343.357348 288.820294 
L 343.357348 288.820294 
L 343.357348 288.820294 
L 343.357348 288.820294 
L 343.357348 288.820294 
L 343.357348 288.820294 
L 343.357348 288.820294 
L 343.357348 288.820294 
L 343.357348 288.820294 
L 343.357348 288.820294 
L 343.357348 288.820294 
L 343.357348 288.820294 
L 343.357348 288.820294 
L 343.357348 288.820294 
L 343.357348 288.820294 
L 343.357348 288.820294 
L 343.357348 288.820294 
L 343.357348 288.820294 
L 343.357348 288.820294 
L 343.357348 288.820294 
L 343.357348 288.820294 
L 343.357348 288.820294 
L 343.357348 288.820294 
L 343.357348 288.820294 
L 343.357348 288.820294 
L 343.357348 288.820294 
L 343.357348 288.820294 
L 343.357348 288.820294 
L 343.357348 288.820294 
L 343.357348 288.820294 
L 343.357348 288.820294 
L 343.357348 288.820294 
L 343.357348 288.820294 
L 343.357348 288.820294 
L 343.357348 288.820294 
L 343.357348 288.820294 
L 343.357348 288.820294 
L 343.357348 288.820294 
L 343.357348 288.820294 
L 343.357348 288.820294 
L 343.357348 288.820294 
L 343.357348 288.820294 
L 343.357348 288.820294 
L 343.357348 288.820294 
L 343.357348 288.820294 
L 343.357348 288.820294 
L 343.357348 288.820294 
L 343.357348 288.820294 
L 343.357348 288.820294 
L 343.357348 288.820294 
L 343.357348 288.820294 
L 343.357348 288.820294 
L 343.357348 288.820294 
L 343.357348 288.820294 
L 343.357348 288.820294 
L 343.357348 288.820294 
L 343.357348 288.820294 
L 343.357348 288.820294 
L 343.357348 288.820294 
L 343.357348 288.820294 
L 343.357348 288.820294 
L 343.357348 288.820294 
L 343.357348 288.820294 
L 343.357348 288.820294 
L 343.357348 288.820294 
L 343.357348 288.820294 
L 343.357348 288.820294 
L 343.357348 288.820294 
L 343.357348 288.820294 
L 343.357348 288.820294 
L 343.357348 288.820294 
L 343.357348 288.820294 
L 343.357348 288.820294 
L 343.357348 288.820294 
L 343.357348 288.820294 
L 343.357348 288.820294 
L 343.357348 288.820294 
L 343.357348 288.820294 
L 343.357348 288.820294 
L 343.357348 288.820294 
L 343.357348 288.820294 
L 343.357348 288.820294 
L 343.357348 288.820294 
L 343.357348 288.820294 
L 343.357348 288.820294 
L 343.357348 288.820294 
L 343.357348 288.820294 
L 343.357348 288.820294 
L 343.357348 288.820294 
L 343.357348 288.820294 
z
" style="fill:#993333;stroke:#000000;stroke-linejoin:miter;"/>
   </g>
   <g id="patch_3">
    <path clip-path="url(#p21c3b913c4)" d="M 294.561234 258.102517 
L 349.195216 290.995118 
L 349.851137 289.905645 
L 295.217156 257.013045 
L 295.217156 257.013045 
L 295.217156 257.013045 
L 295.217156 257.013045 
L 295.217156 257.013045 
L 295.217156 257.013045 
L 295.217156 257.013045 
L 295.217156 257.013045 
L 295.217156 257.013045 
L 295.217156 257.013045 
L 295.217156 257.013045 
L 295.217156 257.013045 
L 295.217156 257.013045 
L 295.217156 257.013045 
L 295.217156 257.013045 
L 295.217156 257.013045 
L 295.217156 257.013045 
L 295.217156 257.013045 
L 295.217156 257.013045 
L 295.217156 257.013045 
L 295.217156 257.013045 
L 295.217156 257.013045 
L 295.217156 257.013045 
L 295.217156 257.013045 
L 295.217156 257.013045 
L 295.217156 257.013045 
L 295.217156 257.013045 
L 295.217156 257.013045 
L 295.217156 257.013045 
L 295.217156 257.013045 
L 295.217156 257.013045 
L 295.217156 257.013045 
L 295.217156 257.013045 
L 295.217156 257.013045 
L 295.217156 257.013045 
L 295.217156 257.013045 
L 295.217156 257.013045 
L 295.217156 257.013045 
L 295.217156 257.013045 
L 295.217156 257.013045 
L 295.217156 257.013045 
L 295.217156 257.013045 
L 295.217156 257.013045 
L 295.217156 257.013045 
L 295.217156 257.013045 
L 295.217156 257.013045 
L 295.217156 257.013045 
L 295.217156 257.013045 
L 295.217156 257.013045 
z
" style="stroke:#000000;stroke-linejoin:miter;"/>
   </g>
   <g id="patch_4">
    <path clip-path="url(#p21c3b913c4)" d="M 289.936867 253.548309 
L 289.015407 255.073846 
L 288.554821 256.813802 
L 288.554637 258.165524 
L 288.97269 259.941472 
L 289.644552 261.108798 
L 290.838889 262.485924 
L 292.018302 263.183051 
L 293.696507 263.824187 
L 295.09471 263.880435 
L 296.845901 263.628608 
L 298.120565 263.030206 
L 299.515989 261.947072 
L 300.355031 260.840528 
L 301.05304 259.191276 
L 301.251034 257.847512 
L 301.08073 256.035937 
L 300.5892 254.783953 
L 299.59228 253.253591 
L 298.53157 252.399916 
L 296.952115 251.525453 
L 295.581923 251.279097 
L 293.806638 251.274632 
L 292.462435 251.695912 
L 290.925973 252.562538 
L 290.925973 252.562538 
L 290.925973 252.562538 
L 290.925973 252.562538 
L 290.925973 252.562538 
L 290.925973 252.562538 
L 290.925973 252.562538 
L 290.925973 252.562538 
L 290.925973 252.562538 
L 290.925973 252.562538 
L 290.925973 252.562538 
L 290.925973 252.562538 
L 290.925973 252.562538 
L 290.925973 252.562538 
L 290.925973 252.562538 
L 290.925973 252.562538 
L 290.925973 252.562538 
L 290.925973 252.562538 
L 290.925973 252.562538 
L 290.925973 252.562538 
L 290.925973 252.562538 
L 290.925973 252.562538 
L 290.925973 252.562538 
L 290.925973 252.562538 
L 290.925973 252.562538 
L 290.925973 252.562538 
L 290.925973 252.562538 
L 290.925973 252.562538 
L 290.925973 252.562538 
L 290.925973 252.562538 
L 290.925973 252.562538 
L 290.925973 252.562538 
L 290.925973 252.562538 
L 290.925973 252.562538 
L 290.925973 252.562538 
L 290.925973 252.562538 
L 290.925973 252.562538 
L 290.925973 252.562538 
L 290.925973 252.562538 
L 290.925973 252.562538 
L 290.925973 252.562538 
L 290.925973 252.562538 
L 290.925973 252.562538 
L 290.925973 252.562538 
L 290.925973 252.562538 
L 290.925973 252.562538 
L 290.925973 252.562538 
L 290.925973 252.562538 
L 290.925973 252.562538 
L 290.925973 252.562538 
L 290.925973 252.562538 
L 290.925973 252.562538 
L 290.925973 252.562538 
L 290.925973 252.562538 
L 290.925973 252.562538 
L 290.925973 252.562538 
L 290.925973 252.562538 
L 290.925973 252.562538 
L 290.925973 252.562538 
L 290.925973 252.562538 
L 290.925973 252.562538 
L 290.925973 252.562538 
L 290.925973 252.562538 
L 290.925973 252.562538 
L 290.925973 252.562538 
L 290.925973 252.562538 
L 290.925973 252.562538 
L 290.925973 252.562538 
L 290.925973 252.562538 
L 290.925973 252.562538 
L 290.925973 252.562538 
L 290.925973 252.562538 
L 290.925973 252.562538 
L 290.925973 252.562538 
L 290.925973 252.562538 
L 290.925973 252.562538 
L 290.925973 252.562538 
L 290.925973 252.562538 
L 290.925973 252.562538 
L 290.925973 252.562538 
L 290.925973 252.562538 
L 290.925973 252.562538 
L 290.925973 252.562538 
L 290.925973 252.562538 
L 290.925973 252.562538 
L 290.925973 252.562538 
L 290.925973 252.562538 
L 290.925973 252.562538 
L 290.925973 252.562538 
L 290.925973 252.562538 
L 290.925973 252.562538 
L 290.925973 252.562538 
L 290.925973 252.562538 
L 290.925973 252.562538 
L 290.925973 252.562538 
L 290.925973 252.562538 
L 290.925973 252.562538 
L 290.925973 252.562538 
L 290.925973 252.562538 
L 290.925973 252.562538 
L 290.925973 252.562538 
L 290.925973 252.562538 
L 290.925973 252.562538 
L 290.925973 252.562538 
L 290.925973 252.562538 
L 290.925973 252.562538 
L 290.925973 252.562538 
L 290.925973 252.562538 
L 290.925973 252.562538 
L 290.925973 252.562538 
L 290.925973 252.562538 
L 290.925973 252.562538 
L 290.925973 252.562538 
L 290.925973 252.562538 
L 290.925973 252.562538 
L 290.925973 252.562538 
L 290.925973 252.562538 
L 290.925973 252.562538 
L 290.925973 252.562538 
L 290.925973 252.562538 
L 290.925973 252.562538 
L 290.925973 252.562538 
L 290.925973 252.562538 
L 290.925973 252.562538 
L 290.925973 252.562538 
L 290.925973 252.562538 
L 290.925973 252.562538 
L 290.925973 252.562538 
L 290.925973 252.562538 
L 290.925973 252.562538 
L 290.925973 252.562538 
L 290.925973 252.562538 
L 290.925973 252.562538 
L 290.925973 252.562538 
L 290.925973 252.562538 
L 290.925973 252.562538 
L 290.925973 252.562538 
L 290.925973 252.562538 
L 290.925973 252.562538 
L 290.925973 252.562538 
L 290.925973 252.562538 
L 290.925973 252.562538 
L 290.925973 252.562538 
L 290.925973 252.562538 
L 290.925973 252.562538 
z
" style="fill:#993333;stroke:#000000;stroke-linejoin:miter;"/>
   </g>
   <g id="patch_5">
    <path clip-path="url(#p21c3b913c4)" d="M 235.912905 233.287835 
L 294.641135 258.14322 
L 295.136783 256.972103 
L 236.408554 232.116718 
L 236.408554 232.116718 
L 236.408554 232.116718 
L 236.408554 232.116718 
L 236.408554 232.116718 
L 236.408554 232.116718 
L 236.408554 232.116718 
L 236.408554 232.116718 
L 236.408554 232.116718 
L 236.408554 232.116718 
L 236.408554 232.116718 
L 236.408554 232.116718 
L 236.408554 232.116718 
L 236.408554 232.116718 
L 236.408554 232.116718 
L 236.408554 232.116718 
L 236.408554 232.116718 
L 236.408554 232.116718 
L 236.408554 232.116718 
L 236.408554 232.116718 
L 236.408554 232.116718 
L 236.408554 232.116718 
L 236.408554 232.116718 
L 236.408554 232.116718 
L 236.408554 232.116718 
L 236.408554 232.116718 
L 236.408554 232.116718 
L 236.408554 232.116718 
L 236.408554 232.116718 
L 236.408554 232.116718 
L 236.408554 232.116718 
L 236.408554 232.116718 
L 236.408554 232.116718 
L 236.408554 232.116718 
L 236.408554 232.116718 
L 236.408554 232.116718 
L 236.408554 232.116718 
L 236.408554 232.116718 
L 236.408554 232.116718 
L 236.408554 232.116718 
L 236.408554 232.116718 
L 236.408554 232.116718 
L 236.408554 232.116718 
L 236.408554 232.116718 
L 236.408554 232.116718 
L 236.408554 232.116718 
L 236.408554 232.116718 
L 236.408554 232.116718 
L 236.408554 232.116718 
z
" style="stroke:#000000;stroke-linejoin:miter;"/>
   </g>
   <g id="text_1">
    <!-- t = 7.1 -->
    <defs>
     <path d="M 18.3125 70.21875 
L 18.3125 54.6875 
L 36.8125 54.6875 
L 36.8125 47.703125 
L 18.3125 47.703125 
L 18.3125 18.015625 
Q 18.3125 11.328125 20.140625 9.421875 
Q 21.96875 7.515625 27.59375 7.515625 
L 36.8125 7.515625 
L 36.8125 0 
L 27.59375 0 
Q 17.1875 0 13.234375 3.875 
Q 9.28125 7.765625 9.28125 18.015625 
L 9.28125 47.703125 
L 2.6875 47.703125 
L 2.6875 54.6875 
L 9.28125 54.6875 
L 9.28125 70.21875 
z
" id="DejaVuSans-116"/>
     <path id="DejaVuSans-32"/>
     <path d="M 10.59375 45.40625 
L 73.1875 45.40625 
L 73.1875 37.203125 
L 10.59375 37.203125 
z
M 10.59375 25.484375 
L 73.1875 25.484375 
L 73.1875 17.1875 
L 10.59375 17.1875 
z
" id="DejaVuSans-61"/>
     <path d="M 8.203125 72.90625 
L 55.078125 72.90625 
L 55.078125 68.703125 
L 28.609375 0 
L 18.3125 0 
L 43.21875 64.59375 
L 8.203125 64.59375 
z
" id="DejaVuSans-55"/>
     <path d="M 10.6875 12.40625 
L 21 12.40625 
L 21 0 
L 10.6875 0 
z
" id="DejaVuSans-46"/>
     <path d="M 12.40625 8.296875 
L 28.515625 8.296875 
L 28.515625 63.921875 
L 10.984375 60.40625 
L 10.984375 69.390625 
L 28.421875 72.90625 
L 38.28125 72.90625 
L 38.28125 8.296875 
L 54.390625 8.296875 
L 54.390625 0 
L 12.40625 0 
z
" id="DejaVuSans-49"/>
    </defs>
    <g transform="translate(215.424375 49.296)scale(0.12 -0.12)">
     <use xlink:href="#DejaVuSans-116"/>
     <use x="39.208984" xlink:href="#DejaVuSans-32"/>
     <use x="70.996094" xlink:href="#DejaVuSans-61"/>
     <use x="154.785156" xlink:href="#DejaVuSans-32"/>
     <use x="186.572266" xlink:href="#DejaVuSans-55"/>
     <use x="250.195312" xlink:href="#DejaVuSans-46"/>
     <use x="281.982422" xlink:href="#DejaVuSans-49"/>
    </g>
   </g>
  </g>
 </g>
 <defs>
  <clipPath id="p21c3b913c4">
   <rect height="354.816" width="357.12" x="57.6" y="55.296"/>
  </clipPath>
 </defs>
</svg>
