<?xml version="1.0" encoding="utf-8" standalone="no"?>
<!DOCTYPE svg PUBLIC "-//W3C//DTD SVG 1.1//EN"
  "http://www.w3.org/Graphics/SVG/1.1/DTD/svg11.dtd">
<!-- Created with matplotlib (https://matplotlib.org/) -->
<svg height="460.8pt" version="1.1" viewBox="0 0 460.8 460.8" width="460.8pt" xmlns="http://www.w3.org/2000/svg" xmlns:xlink="http://www.w3.org/1999/xlink">
 <defs>
  <style type="text/css">
*{stroke-linecap:butt;stroke-linejoin:round;}
  </style>
 </defs>
 <g id="figure_1">
  <g id="patch_1">
   <path d="M 0 460.8 
L 460.8 460.8 
L 460.8 0 
L 0 0 
z
" style="fill:#ffffff;"/>
  </g>
  <g id="axes_1">
   <g id="patch_2">
    <path clip-path="url(#p554ad0cabb)" d="M 168.799766 343.693086 
L 169.564291 344.852368 
L 170.887536 346.059127 
L 172.088968 346.692739 
L 173.854067 347.134593 
L 175.198254 347.087406 
L 176.973048 346.656173 
L 178.130887 345.939739 
L 179.480845 344.741 
L 180.168855 343.530727 
L 180.763461 341.857976 
L 180.813195 340.450182 
L 180.506867 338.712965 
L 179.906147 337.452327 
L 178.773887 336.075976 
L 177.286142 335.062961 
L 176.01142 334.613253 
L 174.197528 334.416894 
L 172.873209 334.662304 
L 171.177275 335.330678 
L 170.127597 336.21112 
L 168.964844 337.580585 
L 168.446805 338.880497 
L 168.101916 340.61576 
L 168.242351 342.016878 
L 168.242351 342.016878 
L 168.242351 342.016878 
L 168.242351 342.016878 
L 168.242351 342.016878 
L 168.242351 342.016878 
L 168.242351 342.016878 
L 168.242351 342.016878 
L 168.242351 342.016878 
L 168.242351 342.016878 
L 168.242351 342.016878 
L 168.242351 342.016878 
L 168.242351 342.016878 
L 168.242351 342.016878 
L 168.242351 342.016878 
L 168.242351 342.016878 
L 168.242351 342.016878 
L 168.242351 342.016878 
L 168.242351 342.016878 
L 168.242351 342.016878 
L 168.242351 342.016878 
L 168.242351 342.016878 
L 168.242351 342.016878 
L 168.242351 342.016878 
L 168.242351 342.016878 
L 168.242351 342.016878 
L 168.242351 342.016878 
L 168.242351 342.016878 
L 168.242351 342.016878 
L 168.242351 342.016878 
L 168.242351 342.016878 
L 168.242351 342.016878 
L 168.242351 342.016878 
L 168.242351 342.016878 
L 168.242351 342.016878 
L 168.242351 342.016878 
L 168.242351 342.016878 
L 168.242351 342.016878 
L 168.242351 342.016878 
L 168.242351 342.016878 
L 168.242351 342.016878 
L 168.242351 342.016878 
L 168.242351 342.016878 
L 168.242351 342.016878 
L 168.242351 342.016878 
L 168.242351 342.016878 
L 168.242351 342.016878 
L 168.242351 342.016878 
L 168.242351 342.016878 
L 168.242351 342.016878 
L 168.242351 342.016878 
L 168.242351 342.016878 
L 168.242351 342.016878 
L 168.242351 342.016878 
L 168.242351 342.016878 
L 168.242351 342.016878 
L 168.242351 342.016878 
L 168.242351 342.016878 
L 168.242351 342.016878 
L 168.242351 342.016878 
L 168.242351 342.016878 
L 168.242351 342.016878 
L 168.242351 342.016878 
L 168.242351 342.016878 
L 168.242351 342.016878 
L 168.242351 342.016878 
L 168.242351 342.016878 
L 168.242351 342.016878 
L 168.242351 342.016878 
L 168.242351 342.016878 
L 168.242351 342.016878 
L 168.242351 342.016878 
L 168.242351 342.016878 
L 168.242351 342.016878 
L 168.242351 342.016878 
L 168.242351 342.016878 
L 168.242351 342.016878 
L 168.242351 342.016878 
L 168.242351 342.016878 
L 168.242351 342.016878 
L 168.242351 342.016878 
L 168.242351 342.016878 
L 168.242351 342.016878 
L 168.242351 342.016878 
L 168.242351 342.016878 
L 168.242351 342.016878 
L 168.242351 342.016878 
L 168.242351 342.016878 
L 168.242351 342.016878 
L 168.242351 342.016878 
L 168.242351 342.016878 
L 168.242351 342.016878 
L 168.242351 342.016878 
L 168.242351 342.016878 
L 168.242351 342.016878 
L 168.242351 342.016878 
L 168.242351 342.016878 
L 168.242351 342.016878 
L 168.242351 342.016878 
L 168.242351 342.016878 
L 168.242351 342.016878 
L 168.242351 342.016878 
L 168.242351 342.016878 
L 168.242351 342.016878 
L 168.242351 342.016878 
L 168.242351 342.016878 
L 168.242351 342.016878 
L 168.242351 342.016878 
L 168.242351 342.016878 
L 168.242351 342.016878 
L 168.242351 342.016878 
L 168.242351 342.016878 
L 168.242351 342.016878 
L 168.242351 342.016878 
L 168.242351 342.016878 
L 168.242351 342.016878 
L 168.242351 342.016878 
L 168.242351 342.016878 
L 168.242351 342.016878 
L 168.242351 342.016878 
L 168.242351 342.016878 
L 168.242351 342.016878 
L 168.242351 342.016878 
L 168.242351 342.016878 
L 168.242351 342.016878 
L 168.242351 342.016878 
L 168.242351 342.016878 
L 168.242351 342.016878 
L 168.242351 342.016878 
L 168.242351 342.016878 
L 168.242351 342.016878 
L 168.242351 342.016878 
L 168.242351 342.016878 
L 168.242351 342.016878 
L 168.242351 342.016878 
L 168.242351 342.016878 
L 168.242351 342.016878 
L 168.242351 342.016878 
L 168.242351 342.016878 
L 168.242351 342.016878 
L 168.242351 342.016878 
L 168.242351 342.016878 
L 168.242351 342.016878 
L 168.242351 342.016878 
L 168.242351 342.016878 
z
" style="fill:#993333;stroke:#000000;stroke-linejoin:miter;"/>
   </g>
   <g id="patch_3">
    <path clip-path="url(#p554ad0cabb)" d="M 216.979828 293.24127 
L 174.008306 340.360729 
L 174.947929 341.217637 
L 217.919451 294.098178 
L 217.919451 294.098178 
L 217.919451 294.098178 
L 217.919451 294.098178 
L 217.919451 294.098178 
L 217.919451 294.098178 
L 217.919451 294.098178 
L 217.919451 294.098178 
L 217.919451 294.098178 
L 217.919451 294.098178 
L 217.919451 294.098178 
L 217.919451 294.098178 
L 217.919451 294.098178 
L 217.919451 294.098178 
L 217.919451 294.098178 
L 217.919451 294.098178 
L 217.919451 294.098178 
L 217.919451 294.098178 
L 217.919451 294.098178 
L 217.919451 294.098178 
L 217.919451 294.098178 
L 217.919451 294.098178 
L 217.919451 294.098178 
L 217.919451 294.098178 
L 217.919451 294.098178 
L 217.919451 294.098178 
L 217.919451 294.098178 
L 217.919451 294.098178 
L 217.919451 294.098178 
L 217.919451 294.098178 
L 217.919451 294.098178 
L 217.919451 294.098178 
L 217.919451 294.098178 
L 217.919451 294.098178 
L 217.919451 294.098178 
L 217.919451 294.098178 
L 217.919451 294.098178 
L 217.919451 294.098178 
L 217.919451 294.098178 
L 217.919451 294.098178 
L 217.919451 294.098178 
L 217.919451 294.098178 
L 217.919451 294.098178 
L 217.919451 294.098178 
L 217.919451 294.098178 
L 217.919451 294.098178 
L 217.919451 294.098178 
L 217.919451 294.098178 
L 217.919451 294.098178 
z
" style="stroke:#000000;stroke-linejoin:miter;"/>
   </g>
   <g id="patch_4">
    <path clip-path="url(#p554ad0cabb)" d="M 223.661792 295.103704 
L 223.766564 293.71549 
L 223.589239 291.949078 
L 223.032544 290.655073 
L 222.013158 289.215417 
L 220.931297 288.332439 
L 219.31943 287.572017 
L 217.541461 287.292001 
L 216.196824 287.430217 
L 214.473012 288.027907 
L 213.380611 288.815757 
L 212.133007 290.144817 
L 211.5603 291.389409 
L 211.09436 293.124439 
L 211.181566 294.521053 
L 211.611369 296.237257 
L 212.337136 297.443953 
L 213.557451 298.721144 
L 214.744087 299.442482 
L 216.456138 299.967959 
L 217.813112 300.027329 
L 219.59773 299.672438 
L 220.792808 299.055304 
L 222.213056 297.906934 
L 222.953641 296.764393 
L 222.953641 296.764393 
L 222.953641 296.764393 
L 222.953641 296.764393 
L 222.953641 296.764393 
L 222.953641 296.764393 
L 222.953641 296.764393 
L 222.953641 296.764393 
L 222.953641 296.764393 
L 222.953641 296.764393 
L 222.953641 296.764393 
L 222.953641 296.764393 
L 222.953641 296.764393 
L 222.953641 296.764393 
L 222.953641 296.764393 
L 222.953641 296.764393 
L 222.953641 296.764393 
L 222.953641 296.764393 
L 222.953641 296.764393 
L 222.953641 296.764393 
L 222.953641 296.764393 
L 222.953641 296.764393 
L 222.953641 296.764393 
L 222.953641 296.764393 
L 222.953641 296.764393 
L 222.953641 296.764393 
L 222.953641 296.764393 
L 222.953641 296.764393 
L 222.953641 296.764393 
L 222.953641 296.764393 
L 222.953641 296.764393 
L 222.953641 296.764393 
L 222.953641 296.764393 
L 222.953641 296.764393 
L 222.953641 296.764393 
L 222.953641 296.764393 
L 222.953641 296.764393 
L 222.953641 296.764393 
L 222.953641 296.764393 
L 222.953641 296.764393 
L 222.953641 296.764393 
L 222.953641 296.764393 
L 222.953641 296.764393 
L 222.953641 296.764393 
L 222.953641 296.764393 
L 222.953641 296.764393 
L 222.953641 296.764393 
L 222.953641 296.764393 
L 222.953641 296.764393 
L 222.953641 296.764393 
L 222.953641 296.764393 
L 222.953641 296.764393 
L 222.953641 296.764393 
L 222.953641 296.764393 
L 222.953641 296.764393 
L 222.953641 296.764393 
L 222.953641 296.764393 
L 222.953641 296.764393 
L 222.953641 296.764393 
L 222.953641 296.764393 
L 222.953641 296.764393 
L 222.953641 296.764393 
L 222.953641 296.764393 
L 222.953641 296.764393 
L 222.953641 296.764393 
L 222.953641 296.764393 
L 222.953641 296.764393 
L 222.953641 296.764393 
L 222.953641 296.764393 
L 222.953641 296.764393 
L 222.953641 296.764393 
L 222.953641 296.764393 
L 222.953641 296.764393 
L 222.953641 296.764393 
L 222.953641 296.764393 
L 222.953641 296.764393 
L 222.953641 296.764393 
L 222.953641 296.764393 
L 222.953641 296.764393 
L 222.953641 296.764393 
L 222.953641 296.764393 
L 222.953641 296.764393 
L 222.953641 296.764393 
L 222.953641 296.764393 
L 222.953641 296.764393 
L 222.953641 296.764393 
L 222.953641 296.764393 
L 222.953641 296.764393 
L 222.953641 296.764393 
L 222.953641 296.764393 
L 222.953641 296.764393 
L 222.953641 296.764393 
L 222.953641 296.764393 
L 222.953641 296.764393 
L 222.953641 296.764393 
L 222.953641 296.764393 
L 222.953641 296.764393 
L 222.953641 296.764393 
L 222.953641 296.764393 
L 222.953641 296.764393 
L 222.953641 296.764393 
L 222.953641 296.764393 
L 222.953641 296.764393 
L 222.953641 296.764393 
L 222.953641 296.764393 
L 222.953641 296.764393 
L 222.953641 296.764393 
L 222.953641 296.764393 
L 222.953641 296.764393 
L 222.953641 296.764393 
L 222.953641 296.764393 
L 222.953641 296.764393 
L 222.953641 296.764393 
L 222.953641 296.764393 
L 222.953641 296.764393 
L 222.953641 296.764393 
L 222.953641 296.764393 
L 222.953641 296.764393 
L 222.953641 296.764393 
L 222.953641 296.764393 
L 222.953641 296.764393 
L 222.953641 296.764393 
L 222.953641 296.764393 
L 222.953641 296.764393 
L 222.953641 296.764393 
L 222.953641 296.764393 
L 222.953641 296.764393 
L 222.953641 296.764393 
L 222.953641 296.764393 
L 222.953641 296.764393 
L 222.953641 296.764393 
L 222.953641 296.764393 
L 222.953641 296.764393 
L 222.953641 296.764393 
L 222.953641 296.764393 
L 222.953641 296.764393 
L 222.953641 296.764393 
L 222.953641 296.764393 
L 222.953641 296.764393 
L 222.953641 296.764393 
L 222.953641 296.764393 
L 222.953641 296.764393 
L 222.953641 296.764393 
L 222.953641 296.764393 
L 222.953641 296.764393 
z
" style="fill:#993333;stroke:#000000;stroke-linejoin:miter;"/>
   </g>
   <g id="patch_5">
    <path clip-path="url(#p554ad0cabb)" d="M 235.553934 232.517981 
L 216.84219 293.482444 
L 218.057901 293.85558 
L 236.769645 232.891117 
L 236.769645 232.891117 
L 236.769645 232.891117 
L 236.769645 232.891117 
L 236.769645 232.891117 
L 236.769645 232.891117 
L 236.769645 232.891117 
L 236.769645 232.891117 
L 236.769645 232.891117 
L 236.769645 232.891117 
L 236.769645 232.891117 
L 236.769645 232.891117 
L 236.769645 232.891117 
L 236.769645 232.891117 
L 236.769645 232.891117 
L 236.769645 232.891117 
L 236.769645 232.891117 
L 236.769645 232.891117 
L 236.769645 232.891117 
L 236.769645 232.891117 
L 236.769645 232.891117 
L 236.769645 232.891117 
L 236.769645 232.891117 
L 236.769645 232.891117 
L 236.769645 232.891117 
L 236.769645 232.891117 
L 236.769645 232.891117 
L 236.769645 232.891117 
L 236.769645 232.891117 
L 236.769645 232.891117 
L 236.769645 232.891117 
L 236.769645 232.891117 
L 236.769645 232.891117 
L 236.769645 232.891117 
L 236.769645 232.891117 
L 236.769645 232.891117 
L 236.769645 232.891117 
L 236.769645 232.891117 
L 236.769645 232.891117 
L 236.769645 232.891117 
L 236.769645 232.891117 
L 236.769645 232.891117 
L 236.769645 232.891117 
L 236.769645 232.891117 
L 236.769645 232.891117 
L 236.769645 232.891117 
L 236.769645 232.891117 
L 236.769645 232.891117 
L 236.769645 232.891117 
z
" style="stroke:#000000;stroke-linejoin:miter;"/>
   </g>
   <g id="text_1">
    <!-- t = 3.4 -->
    <defs>
     <path d="M 18.3125 70.21875 
L 18.3125 54.6875 
L 36.8125 54.6875 
L 36.8125 47.703125 
L 18.3125 47.703125 
L 18.3125 18.015625 
Q 18.3125 11.328125 20.140625 9.421875 
Q 21.96875 7.515625 27.59375 7.515625 
L 36.8125 7.515625 
L 36.8125 0 
L 27.59375 0 
Q 17.1875 0 13.234375 3.875 
Q 9.28125 7.765625 9.28125 18.015625 
L 9.28125 47.703125 
L 2.6875 47.703125 
L 2.6875 54.6875 
L 9.28125 54.6875 
L 9.28125 70.21875 
z
" id="DejaVuSans-116"/>
     <path id="DejaVuSans-32"/>
     <path d="M 10.59375 45.40625 
L 73.1875 45.40625 
L 73.1875 37.203125 
L 10.59375 37.203125 
z
M 10.59375 25.484375 
L 73.1875 25.484375 
L 73.1875 17.1875 
L 10.59375 17.1875 
z
" id="DejaVuSans-61"/>
     <path d="M 40.578125 39.3125 
Q 47.65625 37.796875 51.625 33 
Q 55.609375 28.21875 55.609375 21.1875 
Q 55.609375 10.40625 48.1875 4.484375 
Q 40.765625 -1.421875 27.09375 -1.421875 
Q 22.515625 -1.421875 17.65625 -0.515625 
Q 12.796875 0.390625 7.625 2.203125 
L 7.625 11.71875 
Q 11.71875 9.328125 16.59375 8.109375 
Q 21.484375 6.890625 26.8125 6.890625 
Q 36.078125 6.890625 40.9375 10.546875 
Q 45.796875 14.203125 45.796875 21.1875 
Q 45.796875 27.640625 41.28125 31.265625 
Q 36.765625 34.90625 28.71875 34.90625 
L 20.21875 34.90625 
L 20.21875 43.015625 
L 29.109375 43.015625 
Q 36.375 43.015625 40.234375 45.921875 
Q 44.09375 48.828125 44.09375 54.296875 
Q 44.09375 59.90625 40.109375 62.90625 
Q 36.140625 65.921875 28.71875 65.921875 
Q 24.65625 65.921875 20.015625 65.03125 
Q 15.375 64.15625 9.8125 62.3125 
L 9.8125 71.09375 
Q 15.4375 72.65625 20.34375 73.4375 
Q 25.25 74.21875 29.59375 74.21875 
Q 40.828125 74.21875 47.359375 69.109375 
Q 53.90625 64.015625 53.90625 55.328125 
Q 53.90625 49.265625 50.4375 45.09375 
Q 46.96875 40.921875 40.578125 39.3125 
z
" id="DejaVuSans-51"/>
     <path d="M 10.6875 12.40625 
L 21 12.40625 
L 21 0 
L 10.6875 0 
z
" id="DejaVuSans-46"/>
     <path d="M 37.796875 64.3125 
L 12.890625 25.390625 
L 37.796875 25.390625 
z
M 35.203125 72.90625 
L 47.609375 72.90625 
L 47.609375 25.390625 
L 58.015625 25.390625 
L 58.015625 17.1875 
L 47.609375 17.1875 
L 47.609375 0 
L 37.796875 0 
L 37.796875 17.1875 
L 4.890625 17.1875 
L 4.890625 26.703125 
z
" id="DejaVuSans-52"/>
    </defs>
    <g transform="translate(215.424375 49.296)scale(0.12 -0.12)">
     <use xlink:href="#DejaVuSans-116"/>
     <use x="39.208984" xlink:href="#DejaVuSans-32"/>
     <use x="70.996094" xlink:href="#DejaVuSans-61"/>
     <use x="154.785156" xlink:href="#DejaVuSans-32"/>
     <use x="186.572266" xlink:href="#DejaVuSans-51"/>
     <use x="250.195312" xlink:href="#DejaVuSans-46"/>
     <use x="281.982422" xlink:href="#DejaVuSans-52"/>
    </g>
   </g>
  </g>
 </g>
 <defs>
  <clipPath id="p554ad0cabb">
   <rect height="354.816" width="357.12" x="57.6" y="55.296"/>
  </clipPath>
 </defs>
</svg>
