<?xml version="1.0" encoding="utf-8" standalone="no"?>
<!DOCTYPE svg PUBLIC "-//W3C//DTD SVG 1.1//EN"
  "http://www.w3.org/Graphics/SVG/1.1/DTD/svg11.dtd">
<!-- Created with matplotlib (https://matplotlib.org/) -->
<svg height="460.8pt" version="1.1" viewBox="0 0 460.8 460.8" width="460.8pt" xmlns="http://www.w3.org/2000/svg" xmlns:xlink="http://www.w3.org/1999/xlink">
 <defs>
  <style type="text/css">
*{stroke-linecap:butt;stroke-linejoin:round;}
  </style>
 </defs>
 <g id="figure_1">
  <g id="patch_1">
   <path d="M 0 460.8 
L 460.8 460.8 
L 460.8 0 
L 0 0 
z
" style="fill:#ffffff;"/>
  </g>
  <g id="axes_1">
   <g id="patch_2">
    <path clip-path="url(#peef7b8c2b2)" d="M 320.393115 319.559212 
L 320.427956 321.383368 
L 320.839038 322.665967 
L 321.716722 324.263649 
L 322.72296 325.193427 
L 324.2286 326.173466 
L 325.583634 326.522781 
L 327.348596 326.645229 
L 328.720665 326.328556 
L 330.312825 325.563435 
L 331.365999 324.658307 
L 332.395541 323.192944 
L 332.871966 321.920968 
L 333.086822 320.114135 
L 332.869854 318.786735 
L 332.217419 317.080808 
L 331.360178 316.022978 
L 330.000192 314.835628 
L 328.712561 314.306361 
L 326.977995 313.928292 
L 325.575231 314.057171 
L 323.890768 314.580948 
L 322.716316 315.336419 
L 321.494371 316.633803 
L 320.677838 318.237817 
L 320.677838 318.237817 
L 320.677838 318.237817 
L 320.677838 318.237817 
L 320.677838 318.237817 
L 320.677838 318.237817 
L 320.677838 318.237817 
L 320.677838 318.237817 
L 320.677838 318.237817 
L 320.677838 318.237817 
L 320.677838 318.237817 
L 320.677838 318.237817 
L 320.677838 318.237817 
L 320.677838 318.237817 
L 320.677838 318.237817 
L 320.677838 318.237817 
L 320.677838 318.237817 
L 320.677838 318.237817 
L 320.677838 318.237817 
L 320.677838 318.237817 
L 320.677838 318.237817 
L 320.677838 318.237817 
L 320.677838 318.237817 
L 320.677838 318.237817 
L 320.677838 318.237817 
L 320.677838 318.237817 
L 320.677838 318.237817 
L 320.677838 318.237817 
L 320.677838 318.237817 
L 320.677838 318.237817 
L 320.677838 318.237817 
L 320.677838 318.237817 
L 320.677838 318.237817 
L 320.677838 318.237817 
L 320.677838 318.237817 
L 320.677838 318.237817 
L 320.677838 318.237817 
L 320.677838 318.237817 
L 320.677838 318.237817 
L 320.677838 318.237817 
L 320.677838 318.237817 
L 320.677838 318.237817 
L 320.677838 318.237817 
L 320.677838 318.237817 
L 320.677838 318.237817 
L 320.677838 318.237817 
L 320.677838 318.237817 
L 320.677838 318.237817 
L 320.677838 318.237817 
L 320.677838 318.237817 
L 320.677838 318.237817 
L 320.677838 318.237817 
L 320.677838 318.237817 
L 320.677838 318.237817 
L 320.677838 318.237817 
L 320.677838 318.237817 
L 320.677838 318.237817 
L 320.677838 318.237817 
L 320.677838 318.237817 
L 320.677838 318.237817 
L 320.677838 318.237817 
L 320.677838 318.237817 
L 320.677838 318.237817 
L 320.677838 318.237817 
L 320.677838 318.237817 
L 320.677838 318.237817 
L 320.677838 318.237817 
L 320.677838 318.237817 
L 320.677838 318.237817 
L 320.677838 318.237817 
L 320.677838 318.237817 
L 320.677838 318.237817 
L 320.677838 318.237817 
L 320.677838 318.237817 
L 320.677838 318.237817 
L 320.677838 318.237817 
L 320.677838 318.237817 
L 320.677838 318.237817 
L 320.677838 318.237817 
L 320.677838 318.237817 
L 320.677838 318.237817 
L 320.677838 318.237817 
L 320.677838 318.237817 
L 320.677838 318.237817 
L 320.677838 318.237817 
L 320.677838 318.237817 
L 320.677838 318.237817 
L 320.677838 318.237817 
L 320.677838 318.237817 
L 320.677838 318.237817 
L 320.677838 318.237817 
L 320.677838 318.237817 
L 320.677838 318.237817 
L 320.677838 318.237817 
L 320.677838 318.237817 
L 320.677838 318.237817 
L 320.677838 318.237817 
L 320.677838 318.237817 
L 320.677838 318.237817 
L 320.677838 318.237817 
L 320.677838 318.237817 
L 320.677838 318.237817 
L 320.677838 318.237817 
L 320.677838 318.237817 
L 320.677838 318.237817 
L 320.677838 318.237817 
L 320.677838 318.237817 
L 320.677838 318.237817 
L 320.677838 318.237817 
L 320.677838 318.237817 
L 320.677838 318.237817 
L 320.677838 318.237817 
L 320.677838 318.237817 
L 320.677838 318.237817 
L 320.677838 318.237817 
L 320.677838 318.237817 
L 320.677838 318.237817 
L 320.677838 318.237817 
L 320.677838 318.237817 
L 320.677838 318.237817 
L 320.677838 318.237817 
L 320.677838 318.237817 
L 320.677838 318.237817 
L 320.677838 318.237817 
L 320.677838 318.237817 
L 320.677838 318.237817 
L 320.677838 318.237817 
L 320.677838 318.237817 
L 320.677838 318.237817 
L 320.677838 318.237817 
L 320.677838 318.237817 
L 320.677838 318.237817 
L 320.677838 318.237817 
L 320.677838 318.237817 
L 320.677838 318.237817 
L 320.677838 318.237817 
L 320.677838 318.237817 
L 320.677838 318.237817 
L 320.677838 318.237817 
L 320.677838 318.237817 
L 320.677838 318.237817 
L 320.677838 318.237817 
L 320.677838 318.237817 
L 320.677838 318.237817 
L 320.677838 318.237817 
z
" style="fill:#993333;stroke:#000000;stroke-linejoin:miter;"/>
   </g>
   <g id="patch_3">
    <path clip-path="url(#peef7b8c2b2)" d="M 274.167779 284.157663 
L 326.347928 320.818639 
L 327.078995 319.778099 
L 274.898847 283.117123 
L 274.898847 283.117123 
L 274.898847 283.117123 
L 274.898847 283.117123 
L 274.898847 283.117123 
L 274.898847 283.117123 
L 274.898847 283.117123 
L 274.898847 283.117123 
L 274.898847 283.117123 
L 274.898847 283.117123 
L 274.898847 283.117123 
L 274.898847 283.117123 
L 274.898847 283.117123 
L 274.898847 283.117123 
L 274.898847 283.117123 
L 274.898847 283.117123 
L 274.898847 283.117123 
L 274.898847 283.117123 
L 274.898847 283.117123 
L 274.898847 283.117123 
L 274.898847 283.117123 
L 274.898847 283.117123 
L 274.898847 283.117123 
L 274.898847 283.117123 
L 274.898847 283.117123 
L 274.898847 283.117123 
L 274.898847 283.117123 
L 274.898847 283.117123 
L 274.898847 283.117123 
L 274.898847 283.117123 
L 274.898847 283.117123 
L 274.898847 283.117123 
L 274.898847 283.117123 
L 274.898847 283.117123 
L 274.898847 283.117123 
L 274.898847 283.117123 
L 274.898847 283.117123 
L 274.898847 283.117123 
L 274.898847 283.117123 
L 274.898847 283.117123 
L 274.898847 283.117123 
L 274.898847 283.117123 
L 274.898847 283.117123 
L 274.898847 283.117123 
L 274.898847 283.117123 
L 274.898847 283.117123 
L 274.898847 283.117123 
L 274.898847 283.117123 
L 274.898847 283.117123 
z
" style="stroke:#000000;stroke-linejoin:miter;"/>
   </g>
   <g id="patch_4">
    <path clip-path="url(#peef7b8c2b2)" d="M 268.219248 282.736636 
L 268.215842 284.083498 
L 268.559488 285.8737 
L 269.230915 287.067932 
L 270.362065 288.463613 
L 271.543936 289.212825 
L 273.185646 289.872274 
L 274.588597 289.993033 
L 276.338919 289.754793 
L 277.619459 289.217534 
L 279.049853 288.139935 
L 279.894462 287.076196 
L 280.654718 285.423072 
L 280.856605 284.093295 
L 280.760585 282.269388 
L 280.270322 280.999148 
L 279.341536 279.451014 
L 278.279156 278.55131 
L 276.745002 277.657986 
L 275.370613 277.349098 
L 273.606707 277.329301 
L 272.256807 277.686854 
L 270.695013 278.545432 
L 269.424648 279.820484 
L 268.747244 280.990217 
L 268.747244 280.990217 
L 268.747244 280.990217 
L 268.747244 280.990217 
L 268.747244 280.990217 
L 268.747244 280.990217 
L 268.747244 280.990217 
L 268.747244 280.990217 
L 268.747244 280.990217 
L 268.747244 280.990217 
L 268.747244 280.990217 
L 268.747244 280.990217 
L 268.747244 280.990217 
L 268.747244 280.990217 
L 268.747244 280.990217 
L 268.747244 280.990217 
L 268.747244 280.990217 
L 268.747244 280.990217 
L 268.747244 280.990217 
L 268.747244 280.990217 
L 268.747244 280.990217 
L 268.747244 280.990217 
L 268.747244 280.990217 
L 268.747244 280.990217 
L 268.747244 280.990217 
L 268.747244 280.990217 
L 268.747244 280.990217 
L 268.747244 280.990217 
L 268.747244 280.990217 
L 268.747244 280.990217 
L 268.747244 280.990217 
L 268.747244 280.990217 
L 268.747244 280.990217 
L 268.747244 280.990217 
L 268.747244 280.990217 
L 268.747244 280.990217 
L 268.747244 280.990217 
L 268.747244 280.990217 
L 268.747244 280.990217 
L 268.747244 280.990217 
L 268.747244 280.990217 
L 268.747244 280.990217 
L 268.747244 280.990217 
L 268.747244 280.990217 
L 268.747244 280.990217 
L 268.747244 280.990217 
L 268.747244 280.990217 
L 268.747244 280.990217 
L 268.747244 280.990217 
L 268.747244 280.990217 
L 268.747244 280.990217 
L 268.747244 280.990217 
L 268.747244 280.990217 
L 268.747244 280.990217 
L 268.747244 280.990217 
L 268.747244 280.990217 
L 268.747244 280.990217 
L 268.747244 280.990217 
L 268.747244 280.990217 
L 268.747244 280.990217 
L 268.747244 280.990217 
L 268.747244 280.990217 
L 268.747244 280.990217 
L 268.747244 280.990217 
L 268.747244 280.990217 
L 268.747244 280.990217 
L 268.747244 280.990217 
L 268.747244 280.990217 
L 268.747244 280.990217 
L 268.747244 280.990217 
L 268.747244 280.990217 
L 268.747244 280.990217 
L 268.747244 280.990217 
L 268.747244 280.990217 
L 268.747244 280.990217 
L 268.747244 280.990217 
L 268.747244 280.990217 
L 268.747244 280.990217 
L 268.747244 280.990217 
L 268.747244 280.990217 
L 268.747244 280.990217 
L 268.747244 280.990217 
L 268.747244 280.990217 
L 268.747244 280.990217 
L 268.747244 280.990217 
L 268.747244 280.990217 
L 268.747244 280.990217 
L 268.747244 280.990217 
L 268.747244 280.990217 
L 268.747244 280.990217 
L 268.747244 280.990217 
L 268.747244 280.990217 
L 268.747244 280.990217 
L 268.747244 280.990217 
L 268.747244 280.990217 
L 268.747244 280.990217 
L 268.747244 280.990217 
L 268.747244 280.990217 
L 268.747244 280.990217 
L 268.747244 280.990217 
L 268.747244 280.990217 
L 268.747244 280.990217 
L 268.747244 280.990217 
L 268.747244 280.990217 
L 268.747244 280.990217 
L 268.747244 280.990217 
L 268.747244 280.990217 
L 268.747244 280.990217 
L 268.747244 280.990217 
L 268.747244 280.990217 
L 268.747244 280.990217 
L 268.747244 280.990217 
L 268.747244 280.990217 
L 268.747244 280.990217 
L 268.747244 280.990217 
L 268.747244 280.990217 
L 268.747244 280.990217 
L 268.747244 280.990217 
L 268.747244 280.990217 
L 268.747244 280.990217 
L 268.747244 280.990217 
L 268.747244 280.990217 
L 268.747244 280.990217 
L 268.747244 280.990217 
L 268.747244 280.990217 
L 268.747244 280.990217 
L 268.747244 280.990217 
L 268.747244 280.990217 
L 268.747244 280.990217 
L 268.747244 280.990217 
L 268.747244 280.990217 
L 268.747244 280.990217 
L 268.747244 280.990217 
L 268.747244 280.990217 
L 268.747244 280.990217 
L 268.747244 280.990217 
L 268.747244 280.990217 
L 268.747244 280.990217 
L 268.747244 280.990217 
L 268.747244 280.990217 
L 268.747244 280.990217 
L 268.747244 280.990217 
L 268.747244 280.990217 
L 268.747244 280.990217 
L 268.747244 280.990217 
z
" style="fill:#993333;stroke:#000000;stroke-linejoin:miter;"/>
   </g>
   <g id="patch_5">
    <path clip-path="url(#peef7b8c2b2)" d="M 235.653641 233.08547 
L 274.025878 284.020394 
L 275.041586 283.255202 
L 236.669349 232.320278 
L 236.669349 232.320278 
L 236.669349 232.320278 
L 236.669349 232.320278 
L 236.669349 232.320278 
L 236.669349 232.320278 
L 236.669349 232.320278 
L 236.669349 232.320278 
L 236.669349 232.320278 
L 236.669349 232.320278 
L 236.669349 232.320278 
L 236.669349 232.320278 
L 236.669349 232.320278 
L 236.669349 232.320278 
L 236.669349 232.320278 
L 236.669349 232.320278 
L 236.669349 232.320278 
L 236.669349 232.320278 
L 236.669349 232.320278 
L 236.669349 232.320278 
L 236.669349 232.320278 
L 236.669349 232.320278 
L 236.669349 232.320278 
L 236.669349 232.320278 
L 236.669349 232.320278 
L 236.669349 232.320278 
L 236.669349 232.320278 
L 236.669349 232.320278 
L 236.669349 232.320278 
L 236.669349 232.320278 
L 236.669349 232.320278 
L 236.669349 232.320278 
L 236.669349 232.320278 
L 236.669349 232.320278 
L 236.669349 232.320278 
L 236.669349 232.320278 
L 236.669349 232.320278 
L 236.669349 232.320278 
L 236.669349 232.320278 
L 236.669349 232.320278 
L 236.669349 232.320278 
L 236.669349 232.320278 
L 236.669349 232.320278 
L 236.669349 232.320278 
L 236.669349 232.320278 
L 236.669349 232.320278 
L 236.669349 232.320278 
L 236.669349 232.320278 
L 236.669349 232.320278 
z
" style="stroke:#000000;stroke-linejoin:miter;"/>
   </g>
   <g id="text_1">
    <!-- t = 9.6 -->
    <defs>
     <path d="M 18.3125 70.21875 
L 18.3125 54.6875 
L 36.8125 54.6875 
L 36.8125 47.703125 
L 18.3125 47.703125 
L 18.3125 18.015625 
Q 18.3125 11.328125 20.140625 9.421875 
Q 21.96875 7.515625 27.59375 7.515625 
L 36.8125 7.515625 
L 36.8125 0 
L 27.59375 0 
Q 17.1875 0 13.234375 3.875 
Q 9.28125 7.765625 9.28125 18.015625 
L 9.28125 47.703125 
L 2.6875 47.703125 
L 2.6875 54.6875 
L 9.28125 54.6875 
L 9.28125 70.21875 
z
" id="DejaVuSans-116"/>
     <path id="DejaVuSans-32"/>
     <path d="M 10.59375 45.40625 
L 73.1875 45.40625 
L 73.1875 37.203125 
L 10.59375 37.203125 
z
M 10.59375 25.484375 
L 73.1875 25.484375 
L 73.1875 17.1875 
L 10.59375 17.1875 
z
" id="DejaVuSans-61"/>
     <path d="M 10.984375 1.515625 
L 10.984375 10.5 
Q 14.703125 8.734375 18.5 7.8125 
Q 22.3125 6.890625 25.984375 6.890625 
Q 35.75 6.890625 40.890625 13.453125 
Q 46.046875 20.015625 46.78125 33.40625 
Q 43.953125 29.203125 39.59375 26.953125 
Q 35.25 24.703125 29.984375 24.703125 
Q 19.046875 24.703125 12.671875 31.3125 
Q 6.296875 37.9375 6.296875 49.421875 
Q 6.296875 60.640625 12.9375 67.421875 
Q 19.578125 74.21875 30.609375 74.21875 
Q 43.265625 74.21875 49.921875 64.515625 
Q 56.59375 54.828125 56.59375 36.375 
Q 56.59375 19.140625 48.40625 8.859375 
Q 40.234375 -1.421875 26.421875 -1.421875 
Q 22.703125 -1.421875 18.890625 -0.6875 
Q 15.09375 0.046875 10.984375 1.515625 
z
M 30.609375 32.421875 
Q 37.25 32.421875 41.125 36.953125 
Q 45.015625 41.5 45.015625 49.421875 
Q 45.015625 57.28125 41.125 61.84375 
Q 37.25 66.40625 30.609375 66.40625 
Q 23.96875 66.40625 20.09375 61.84375 
Q 16.21875 57.28125 16.21875 49.421875 
Q 16.21875 41.5 20.09375 36.953125 
Q 23.96875 32.421875 30.609375 32.421875 
z
" id="DejaVuSans-57"/>
     <path d="M 10.6875 12.40625 
L 21 12.40625 
L 21 0 
L 10.6875 0 
z
" id="DejaVuSans-46"/>
     <path d="M 33.015625 40.375 
Q 26.375 40.375 22.484375 35.828125 
Q 18.609375 31.296875 18.609375 23.390625 
Q 18.609375 15.53125 22.484375 10.953125 
Q 26.375 6.390625 33.015625 6.390625 
Q 39.65625 6.390625 43.53125 10.953125 
Q 47.40625 15.53125 47.40625 23.390625 
Q 47.40625 31.296875 43.53125 35.828125 
Q 39.65625 40.375 33.015625 40.375 
z
M 52.59375 71.296875 
L 52.59375 62.3125 
Q 48.875 64.0625 45.09375 64.984375 
Q 41.3125 65.921875 37.59375 65.921875 
Q 27.828125 65.921875 22.671875 59.328125 
Q 17.53125 52.734375 16.796875 39.40625 
Q 19.671875 43.65625 24.015625 45.921875 
Q 28.375 48.1875 33.59375 48.1875 
Q 44.578125 48.1875 50.953125 41.515625 
Q 57.328125 34.859375 57.328125 23.390625 
Q 57.328125 12.15625 50.6875 5.359375 
Q 44.046875 -1.421875 33.015625 -1.421875 
Q 20.359375 -1.421875 13.671875 8.265625 
Q 6.984375 17.96875 6.984375 36.375 
Q 6.984375 53.65625 15.1875 63.9375 
Q 23.390625 74.21875 37.203125 74.21875 
Q 40.921875 74.21875 44.703125 73.484375 
Q 48.484375 72.75 52.59375 71.296875 
z
" id="DejaVuSans-54"/>
    </defs>
    <g transform="translate(215.424375 49.296)scale(0.12 -0.12)">
     <use xlink:href="#DejaVuSans-116"/>
     <use x="39.208984" xlink:href="#DejaVuSans-32"/>
     <use x="70.996094" xlink:href="#DejaVuSans-61"/>
     <use x="154.785156" xlink:href="#DejaVuSans-32"/>
     <use x="186.572266" xlink:href="#DejaVuSans-57"/>
     <use x="250.195312" xlink:href="#DejaVuSans-46"/>
     <use x="281.982422" xlink:href="#DejaVuSans-54"/>
    </g>
   </g>
  </g>
 </g>
 <defs>
  <clipPath id="peef7b8c2b2">
   <rect height="354.816" width="357.12" x="57.6" y="55.296"/>
  </clipPath>
 </defs>
</svg>
