<?xml version="1.0" encoding="utf-8" standalone="no"?>
<!DOCTYPE svg PUBLIC "-//W3C//DTD SVG 1.1//EN"
  "http://www.w3.org/Graphics/SVG/1.1/DTD/svg11.dtd">
<!-- Created with matplotlib (https://matplotlib.org/) -->
<svg height="460.8pt" version="1.1" viewBox="0 0 460.8 460.8" width="460.8pt" xmlns="http://www.w3.org/2000/svg" xmlns:xlink="http://www.w3.org/1999/xlink">
 <defs>
  <style type="text/css">
*{stroke-linecap:butt;stroke-linejoin:round;}
  </style>
 </defs>
 <g id="figure_1">
  <g id="patch_1">
   <path d="M 0 460.8 
L 460.8 460.8 
L 460.8 0 
L 0 0 
z
" style="fill:#ffffff;"/>
  </g>
  <g id="axes_1">
   <g id="patch_2">
    <path clip-path="url(#p00f1ba722b)" d="M 166.146231 336.826792 
L 165.085039 338.276378 
L 164.661885 339.610199 
L 164.442759 341.365781 
L 164.683655 342.753161 
L 165.360245 344.384912 
L 166.20621 345.486173 
L 167.612863 346.594583 
L 168.856775 347.140097 
L 170.649094 347.453789 
L 171.986401 347.309996 
L 173.725563 346.752166 
L 174.828844 345.954271 
L 176.089042 344.661497 
L 176.688177 343.404853 
L 177.16087 341.69365 
L 177.109169 340.285927 
L 176.678626 338.575257 
L 175.988747 337.361115 
L 174.76038 336.06981 
L 173.203595 335.166479 
L 171.899817 334.809667 
L 170.076498 334.744345 
L 168.773272 335.084417 
L 167.12983 335.873097 
L 167.12983 335.873097 
L 167.12983 335.873097 
L 167.12983 335.873097 
L 167.12983 335.873097 
L 167.12983 335.873097 
L 167.12983 335.873097 
L 167.12983 335.873097 
L 167.12983 335.873097 
L 167.12983 335.873097 
L 167.12983 335.873097 
L 167.12983 335.873097 
L 167.12983 335.873097 
L 167.12983 335.873097 
L 167.12983 335.873097 
L 167.12983 335.873097 
L 167.12983 335.873097 
L 167.12983 335.873097 
L 167.12983 335.873097 
L 167.12983 335.873097 
L 167.12983 335.873097 
L 167.12983 335.873097 
L 167.12983 335.873097 
L 167.12983 335.873097 
L 167.12983 335.873097 
L 167.12983 335.873097 
L 167.12983 335.873097 
L 167.12983 335.873097 
L 167.12983 335.873097 
L 167.12983 335.873097 
L 167.12983 335.873097 
L 167.12983 335.873097 
L 167.12983 335.873097 
L 167.12983 335.873097 
L 167.12983 335.873097 
L 167.12983 335.873097 
L 167.12983 335.873097 
L 167.12983 335.873097 
L 167.12983 335.873097 
L 167.12983 335.873097 
L 167.12983 335.873097 
L 167.12983 335.873097 
L 167.12983 335.873097 
L 167.12983 335.873097 
L 167.12983 335.873097 
L 167.12983 335.873097 
L 167.12983 335.873097 
L 167.12983 335.873097 
L 167.12983 335.873097 
L 167.12983 335.873097 
L 167.12983 335.873097 
L 167.12983 335.873097 
L 167.12983 335.873097 
L 167.12983 335.873097 
L 167.12983 335.873097 
L 167.12983 335.873097 
L 167.12983 335.873097 
L 167.12983 335.873097 
L 167.12983 335.873097 
L 167.12983 335.873097 
L 167.12983 335.873097 
L 167.12983 335.873097 
L 167.12983 335.873097 
L 167.12983 335.873097 
L 167.12983 335.873097 
L 167.12983 335.873097 
L 167.12983 335.873097 
L 167.12983 335.873097 
L 167.12983 335.873097 
L 167.12983 335.873097 
L 167.12983 335.873097 
L 167.12983 335.873097 
L 167.12983 335.873097 
L 167.12983 335.873097 
L 167.12983 335.873097 
L 167.12983 335.873097 
L 167.12983 335.873097 
L 167.12983 335.873097 
L 167.12983 335.873097 
L 167.12983 335.873097 
L 167.12983 335.873097 
L 167.12983 335.873097 
L 167.12983 335.873097 
L 167.12983 335.873097 
L 167.12983 335.873097 
L 167.12983 335.873097 
L 167.12983 335.873097 
L 167.12983 335.873097 
L 167.12983 335.873097 
L 167.12983 335.873097 
L 167.12983 335.873097 
L 167.12983 335.873097 
L 167.12983 335.873097 
L 167.12983 335.873097 
L 167.12983 335.873097 
L 167.12983 335.873097 
L 167.12983 335.873097 
L 167.12983 335.873097 
L 167.12983 335.873097 
L 167.12983 335.873097 
L 167.12983 335.873097 
L 167.12983 335.873097 
L 167.12983 335.873097 
L 167.12983 335.873097 
L 167.12983 335.873097 
L 167.12983 335.873097 
L 167.12983 335.873097 
L 167.12983 335.873097 
L 167.12983 335.873097 
L 167.12983 335.873097 
L 167.12983 335.873097 
L 167.12983 335.873097 
L 167.12983 335.873097 
L 167.12983 335.873097 
L 167.12983 335.873097 
L 167.12983 335.873097 
L 167.12983 335.873097 
L 167.12983 335.873097 
L 167.12983 335.873097 
L 167.12983 335.873097 
L 167.12983 335.873097 
L 167.12983 335.873097 
L 167.12983 335.873097 
L 167.12983 335.873097 
L 167.12983 335.873097 
L 167.12983 335.873097 
L 167.12983 335.873097 
L 167.12983 335.873097 
L 167.12983 335.873097 
L 167.12983 335.873097 
L 167.12983 335.873097 
L 167.12983 335.873097 
L 167.12983 335.873097 
L 167.12983 335.873097 
L 167.12983 335.873097 
L 167.12983 335.873097 
L 167.12983 335.873097 
L 167.12983 335.873097 
L 167.12983 335.873097 
L 167.12983 335.873097 
L 167.12983 335.873097 
L 167.12983 335.873097 
L 167.12983 335.873097 
L 167.12983 335.873097 
L 167.12983 335.873097 
z
" style="fill:#993333;stroke:#000000;stroke-linejoin:miter;"/>
   </g>
   <g id="patch_3">
    <path clip-path="url(#p00f1ba722b)" d="M 170.315485 340.686387 
L 171.314336 341.473458 
L 210.783732 291.383919 
L 209.784881 290.596848 
L 209.784881 290.596848 
L 209.784881 290.596848 
L 209.784881 290.596848 
L 209.784881 290.596848 
L 209.784881 290.596848 
L 209.784881 290.596848 
L 209.784881 290.596848 
L 209.784881 290.596848 
L 209.784881 290.596848 
L 209.784881 290.596848 
L 209.784881 290.596848 
L 209.784881 290.596848 
L 209.784881 290.596848 
L 209.784881 290.596848 
L 209.784881 290.596848 
L 209.784881 290.596848 
L 209.784881 290.596848 
L 209.784881 290.596848 
L 209.784881 290.596848 
L 209.784881 290.596848 
L 209.784881 290.596848 
L 209.784881 290.596848 
L 209.784881 290.596848 
L 209.784881 290.596848 
L 209.784881 290.596848 
L 209.784881 290.596848 
L 209.784881 290.596848 
L 209.784881 290.596848 
L 209.784881 290.596848 
L 209.784881 290.596848 
L 209.784881 290.596848 
L 209.784881 290.596848 
L 209.784881 290.596848 
L 209.784881 290.596848 
L 209.784881 290.596848 
L 209.784881 290.596848 
L 209.784881 290.596848 
L 209.784881 290.596848 
L 209.784881 290.596848 
L 209.784881 290.596848 
L 209.784881 290.596848 
L 209.784881 290.596848 
L 209.784881 290.596848 
L 209.784881 290.596848 
L 209.784881 290.596848 
L 209.784881 290.596848 
L 209.784881 290.596848 
L 209.784881 290.596848 
z
" style="stroke:#000000;stroke-linejoin:miter;"/>
   </g>
   <g id="patch_4">
    <path clip-path="url(#p00f1ba722b)" d="M 203.959144 291.08529 
L 204.180351 292.840612 
L 204.756404 294.125531 
L 205.815004 295.539657 
L 206.906727 296.397895 
L 208.543538 297.124598 
L 209.883639 297.346028 
L 211.697912 297.207385 
L 212.958289 296.737794 
L 214.505827 295.767751 
L 215.377895 294.72211 
L 216.279806 293.158166 
L 216.550052 291.792485 
L 216.585518 290.017549 
L 216.187777 288.666195 
L 215.348114 287.114833 
L 214.379766 286.108663 
L 212.870553 285.160703 
L 211.138905 284.669803 
L 209.787393 284.646014 
L 208.004415 285.032989 
L 206.825535 285.684364 
L 205.427762 286.85447 
L 204.710145 288.02153 
L 204.0398 289.688283 
L 204.0398 289.688283 
L 204.0398 289.688283 
L 204.0398 289.688283 
L 204.0398 289.688283 
L 204.0398 289.688283 
L 204.0398 289.688283 
L 204.0398 289.688283 
L 204.0398 289.688283 
L 204.0398 289.688283 
L 204.0398 289.688283 
L 204.0398 289.688283 
L 204.0398 289.688283 
L 204.0398 289.688283 
L 204.0398 289.688283 
L 204.0398 289.688283 
L 204.0398 289.688283 
L 204.0398 289.688283 
L 204.0398 289.688283 
L 204.0398 289.688283 
L 204.0398 289.688283 
L 204.0398 289.688283 
L 204.0398 289.688283 
L 204.0398 289.688283 
L 204.0398 289.688283 
L 204.0398 289.688283 
L 204.0398 289.688283 
L 204.0398 289.688283 
L 204.0398 289.688283 
L 204.0398 289.688283 
L 204.0398 289.688283 
L 204.0398 289.688283 
L 204.0398 289.688283 
L 204.0398 289.688283 
L 204.0398 289.688283 
L 204.0398 289.688283 
L 204.0398 289.688283 
L 204.0398 289.688283 
L 204.0398 289.688283 
L 204.0398 289.688283 
L 204.0398 289.688283 
L 204.0398 289.688283 
L 204.0398 289.688283 
L 204.0398 289.688283 
L 204.0398 289.688283 
L 204.0398 289.688283 
L 204.0398 289.688283 
L 204.0398 289.688283 
L 204.0398 289.688283 
L 204.0398 289.688283 
L 204.0398 289.688283 
L 204.0398 289.688283 
L 204.0398 289.688283 
L 204.0398 289.688283 
L 204.0398 289.688283 
L 204.0398 289.688283 
L 204.0398 289.688283 
L 204.0398 289.688283 
L 204.0398 289.688283 
L 204.0398 289.688283 
L 204.0398 289.688283 
L 204.0398 289.688283 
L 204.0398 289.688283 
L 204.0398 289.688283 
L 204.0398 289.688283 
L 204.0398 289.688283 
L 204.0398 289.688283 
L 204.0398 289.688283 
L 204.0398 289.688283 
L 204.0398 289.688283 
L 204.0398 289.688283 
L 204.0398 289.688283 
L 204.0398 289.688283 
L 204.0398 289.688283 
L 204.0398 289.688283 
L 204.0398 289.688283 
L 204.0398 289.688283 
L 204.0398 289.688283 
L 204.0398 289.688283 
L 204.0398 289.688283 
L 204.0398 289.688283 
L 204.0398 289.688283 
L 204.0398 289.688283 
L 204.0398 289.688283 
L 204.0398 289.688283 
L 204.0398 289.688283 
L 204.0398 289.688283 
L 204.0398 289.688283 
L 204.0398 289.688283 
L 204.0398 289.688283 
L 204.0398 289.688283 
L 204.0398 289.688283 
L 204.0398 289.688283 
L 204.0398 289.688283 
L 204.0398 289.688283 
L 204.0398 289.688283 
L 204.0398 289.688283 
L 204.0398 289.688283 
L 204.0398 289.688283 
L 204.0398 289.688283 
L 204.0398 289.688283 
L 204.0398 289.688283 
L 204.0398 289.688283 
L 204.0398 289.688283 
L 204.0398 289.688283 
L 204.0398 289.688283 
L 204.0398 289.688283 
L 204.0398 289.688283 
L 204.0398 289.688283 
L 204.0398 289.688283 
L 204.0398 289.688283 
L 204.0398 289.688283 
L 204.0398 289.688283 
L 204.0398 289.688283 
L 204.0398 289.688283 
L 204.0398 289.688283 
L 204.0398 289.688283 
L 204.0398 289.688283 
L 204.0398 289.688283 
L 204.0398 289.688283 
L 204.0398 289.688283 
L 204.0398 289.688283 
L 204.0398 289.688283 
L 204.0398 289.688283 
L 204.0398 289.688283 
L 204.0398 289.688283 
L 204.0398 289.688283 
L 204.0398 289.688283 
L 204.0398 289.688283 
L 204.0398 289.688283 
L 204.0398 289.688283 
L 204.0398 289.688283 
L 204.0398 289.688283 
L 204.0398 289.688283 
L 204.0398 289.688283 
L 204.0398 289.688283 
L 204.0398 289.688283 
L 204.0398 289.688283 
L 204.0398 289.688283 
L 204.0398 289.688283 
L 204.0398 289.688283 
L 204.0398 289.688283 
L 204.0398 289.688283 
L 204.0398 289.688283 
L 204.0398 289.688283 
z
" style="fill:#993333;stroke:#000000;stroke-linejoin:miter;"/>
   </g>
   <g id="patch_5">
    <path clip-path="url(#p00f1ba722b)" d="M 235.580569 232.446747 
L 209.703406 290.731973 
L 210.865688 291.247997 
L 236.742852 232.962772 
L 236.742852 232.962772 
L 236.742852 232.962772 
L 236.742852 232.962772 
L 236.742852 232.962772 
L 236.742852 232.962772 
L 236.742852 232.962772 
L 236.742852 232.962772 
L 236.742852 232.962772 
L 236.742852 232.962772 
L 236.742852 232.962772 
L 236.742852 232.962772 
L 236.742852 232.962772 
L 236.742852 232.962772 
L 236.742852 232.962772 
L 236.742852 232.962772 
L 236.742852 232.962772 
L 236.742852 232.962772 
L 236.742852 232.962772 
L 236.742852 232.962772 
L 236.742852 232.962772 
L 236.742852 232.962772 
L 236.742852 232.962772 
L 236.742852 232.962772 
L 236.742852 232.962772 
L 236.742852 232.962772 
L 236.742852 232.962772 
L 236.742852 232.962772 
L 236.742852 232.962772 
L 236.742852 232.962772 
L 236.742852 232.962772 
L 236.742852 232.962772 
L 236.742852 232.962772 
L 236.742852 232.962772 
L 236.742852 232.962772 
L 236.742852 232.962772 
L 236.742852 232.962772 
L 236.742852 232.962772 
L 236.742852 232.962772 
L 236.742852 232.962772 
L 236.742852 232.962772 
L 236.742852 232.962772 
L 236.742852 232.962772 
L 236.742852 232.962772 
L 236.742852 232.962772 
L 236.742852 232.962772 
L 236.742852 232.962772 
L 236.742852 232.962772 
L 236.742852 232.962772 
z
" style="stroke:#000000;stroke-linejoin:miter;"/>
   </g>
   <g id="text_1">
    <!-- t = 0.6 -->
    <defs>
     <path d="M 18.3125 70.21875 
L 18.3125 54.6875 
L 36.8125 54.6875 
L 36.8125 47.703125 
L 18.3125 47.703125 
L 18.3125 18.015625 
Q 18.3125 11.328125 20.140625 9.421875 
Q 21.96875 7.515625 27.59375 7.515625 
L 36.8125 7.515625 
L 36.8125 0 
L 27.59375 0 
Q 17.1875 0 13.234375 3.875 
Q 9.28125 7.765625 9.28125 18.015625 
L 9.28125 47.703125 
L 2.6875 47.703125 
L 2.6875 54.6875 
L 9.28125 54.6875 
L 9.28125 70.21875 
z
" id="DejaVuSans-116"/>
     <path id="DejaVuSans-32"/>
     <path d="M 10.59375 45.40625 
L 73.1875 45.40625 
L 73.1875 37.203125 
L 10.59375 37.203125 
z
M 10.59375 25.484375 
L 73.1875 25.484375 
L 73.1875 17.1875 
L 10.59375 17.1875 
z
" id="DejaVuSans-61"/>
     <path d="M 31.78125 66.40625 
Q 24.171875 66.40625 20.328125 58.90625 
Q 16.5 51.421875 16.5 36.375 
Q 16.5 21.390625 20.328125 13.890625 
Q 24.171875 6.390625 31.78125 6.390625 
Q 39.453125 6.390625 43.28125 13.890625 
Q 47.125 21.390625 47.125 36.375 
Q 47.125 51.421875 43.28125 58.90625 
Q 39.453125 66.40625 31.78125 66.40625 
z
M 31.78125 74.21875 
Q 44.046875 74.21875 50.515625 64.515625 
Q 56.984375 54.828125 56.984375 36.375 
Q 56.984375 17.96875 50.515625 8.265625 
Q 44.046875 -1.421875 31.78125 -1.421875 
Q 19.53125 -1.421875 13.0625 8.265625 
Q 6.59375 17.96875 6.59375 36.375 
Q 6.59375 54.828125 13.0625 64.515625 
Q 19.53125 74.21875 31.78125 74.21875 
z
" id="DejaVuSans-48"/>
     <path d="M 10.6875 12.40625 
L 21 12.40625 
L 21 0 
L 10.6875 0 
z
" id="DejaVuSans-46"/>
     <path d="M 33.015625 40.375 
Q 26.375 40.375 22.484375 35.828125 
Q 18.609375 31.296875 18.609375 23.390625 
Q 18.609375 15.53125 22.484375 10.953125 
Q 26.375 6.390625 33.015625 6.390625 
Q 39.65625 6.390625 43.53125 10.953125 
Q 47.40625 15.53125 47.40625 23.390625 
Q 47.40625 31.296875 43.53125 35.828125 
Q 39.65625 40.375 33.015625 40.375 
z
M 52.59375 71.296875 
L 52.59375 62.3125 
Q 48.875 64.0625 45.09375 64.984375 
Q 41.3125 65.921875 37.59375 65.921875 
Q 27.828125 65.921875 22.671875 59.328125 
Q 17.53125 52.734375 16.796875 39.40625 
Q 19.671875 43.65625 24.015625 45.921875 
Q 28.375 48.1875 33.59375 48.1875 
Q 44.578125 48.1875 50.953125 41.515625 
Q 57.328125 34.859375 57.328125 23.390625 
Q 57.328125 12.15625 50.6875 5.359375 
Q 44.046875 -1.421875 33.015625 -1.421875 
Q 20.359375 -1.421875 13.671875 8.265625 
Q 6.984375 17.96875 6.984375 36.375 
Q 6.984375 53.65625 15.1875 63.9375 
Q 23.390625 74.21875 37.203125 74.21875 
Q 40.921875 74.21875 44.703125 73.484375 
Q 48.484375 72.75 52.59375 71.296875 
z
" id="DejaVuSans-54"/>
    </defs>
    <g transform="translate(215.424375 49.296)scale(0.12 -0.12)">
     <use xlink:href="#DejaVuSans-116"/>
     <use x="39.208984" xlink:href="#DejaVuSans-32"/>
     <use x="70.996094" xlink:href="#DejaVuSans-61"/>
     <use x="154.785156" xlink:href="#DejaVuSans-32"/>
     <use x="186.572266" xlink:href="#DejaVuSans-48"/>
     <use x="250.195312" xlink:href="#DejaVuSans-46"/>
     <use x="281.982422" xlink:href="#DejaVuSans-54"/>
    </g>
   </g>
  </g>
 </g>
 <defs>
  <clipPath id="p00f1ba722b">
   <rect height="354.816" width="357.12" x="57.6" y="55.296"/>
  </clipPath>
 </defs>
</svg>
