<?xml version="1.0" encoding="utf-8" standalone="no"?>
<!DOCTYPE svg PUBLIC "-//W3C//DTD SVG 1.1//EN"
  "http://www.w3.org/Graphics/SVG/1.1/DTD/svg11.dtd">
<!-- Created with matplotlib (https://matplotlib.org/) -->
<svg height="460.8pt" version="1.1" viewBox="0 0 460.8 460.8" width="460.8pt" xmlns="http://www.w3.org/2000/svg" xmlns:xlink="http://www.w3.org/1999/xlink">
 <defs>
  <style type="text/css">
*{stroke-linecap:butt;stroke-linejoin:round;}
  </style>
 </defs>
 <g id="figure_1">
  <g id="patch_1">
   <path d="M 0 460.8 
L 460.8 460.8 
L 460.8 0 
L 0 0 
z
" style="fill:#ffffff;"/>
  </g>
  <g id="axes_1">
   <g id="patch_2">
    <path clip-path="url(#pc51c66b393)" d="M 132.639958 314.873652 
L 132.859921 316.626365 
L 133.38379 317.912441 
L 134.446404 319.354002 
L 135.501272 320.209664 
L 137.146374 320.987128 
L 138.473972 321.202879 
L 140.298782 321.125896 
L 141.574068 320.648914 
L 143.131809 319.736332 
L 144.042549 318.683398 
L 144.951832 317.158649 
L 145.275045 315.787558 
L 145.313246 314.023954 
L 144.969797 312.670397 
L 144.127563 311.09973 
L 142.865836 309.816129 
L 141.703235 309.126556 
L 139.96242 308.580366 
L 138.615667 308.562907 
L 136.821977 308.887854 
L 135.620804 309.546783 
L 134.213396 310.663309 
L 133.451893 311.837298 
L 132.775349 313.472038 
L 132.775349 313.472038 
L 132.775349 313.472038 
L 132.775349 313.472038 
L 132.775349 313.472038 
L 132.775349 313.472038 
L 132.775349 313.472038 
L 132.775349 313.472038 
L 132.775349 313.472038 
L 132.775349 313.472038 
L 132.775349 313.472038 
L 132.775349 313.472038 
L 132.775349 313.472038 
L 132.775349 313.472038 
L 132.775349 313.472038 
L 132.775349 313.472038 
L 132.775349 313.472038 
L 132.775349 313.472038 
L 132.775349 313.472038 
L 132.775349 313.472038 
L 132.775349 313.472038 
L 132.775349 313.472038 
L 132.775349 313.472038 
L 132.775349 313.472038 
L 132.775349 313.472038 
L 132.775349 313.472038 
L 132.775349 313.472038 
L 132.775349 313.472038 
L 132.775349 313.472038 
L 132.775349 313.472038 
L 132.775349 313.472038 
L 132.775349 313.472038 
L 132.775349 313.472038 
L 132.775349 313.472038 
L 132.775349 313.472038 
L 132.775349 313.472038 
L 132.775349 313.472038 
L 132.775349 313.472038 
L 132.775349 313.472038 
L 132.775349 313.472038 
L 132.775349 313.472038 
L 132.775349 313.472038 
L 132.775349 313.472038 
L 132.775349 313.472038 
L 132.775349 313.472038 
L 132.775349 313.472038 
L 132.775349 313.472038 
L 132.775349 313.472038 
L 132.775349 313.472038 
L 132.775349 313.472038 
L 132.775349 313.472038 
L 132.775349 313.472038 
L 132.775349 313.472038 
L 132.775349 313.472038 
L 132.775349 313.472038 
L 132.775349 313.472038 
L 132.775349 313.472038 
L 132.775349 313.472038 
L 132.775349 313.472038 
L 132.775349 313.472038 
L 132.775349 313.472038 
L 132.775349 313.472038 
L 132.775349 313.472038 
L 132.775349 313.472038 
L 132.775349 313.472038 
L 132.775349 313.472038 
L 132.775349 313.472038 
L 132.775349 313.472038 
L 132.775349 313.472038 
L 132.775349 313.472038 
L 132.775349 313.472038 
L 132.775349 313.472038 
L 132.775349 313.472038 
L 132.775349 313.472038 
L 132.775349 313.472038 
L 132.775349 313.472038 
L 132.775349 313.472038 
L 132.775349 313.472038 
L 132.775349 313.472038 
L 132.775349 313.472038 
L 132.775349 313.472038 
L 132.775349 313.472038 
L 132.775349 313.472038 
L 132.775349 313.472038 
L 132.775349 313.472038 
L 132.775349 313.472038 
L 132.775349 313.472038 
L 132.775349 313.472038 
L 132.775349 313.472038 
L 132.775349 313.472038 
L 132.775349 313.472038 
L 132.775349 313.472038 
L 132.775349 313.472038 
L 132.775349 313.472038 
L 132.775349 313.472038 
L 132.775349 313.472038 
L 132.775349 313.472038 
L 132.775349 313.472038 
L 132.775349 313.472038 
L 132.775349 313.472038 
L 132.775349 313.472038 
L 132.775349 313.472038 
L 132.775349 313.472038 
L 132.775349 313.472038 
L 132.775349 313.472038 
L 132.775349 313.472038 
L 132.775349 313.472038 
L 132.775349 313.472038 
L 132.775349 313.472038 
L 132.775349 313.472038 
L 132.775349 313.472038 
L 132.775349 313.472038 
L 132.775349 313.472038 
L 132.775349 313.472038 
L 132.775349 313.472038 
L 132.775349 313.472038 
L 132.775349 313.472038 
L 132.775349 313.472038 
L 132.775349 313.472038 
L 132.775349 313.472038 
L 132.775349 313.472038 
L 132.775349 313.472038 
L 132.775349 313.472038 
L 132.775349 313.472038 
L 132.775349 313.472038 
L 132.775349 313.472038 
L 132.775349 313.472038 
L 132.775349 313.472038 
L 132.775349 313.472038 
L 132.775349 313.472038 
L 132.775349 313.472038 
L 132.775349 313.472038 
L 132.775349 313.472038 
L 132.775349 313.472038 
L 132.775349 313.472038 
L 132.775349 313.472038 
L 132.775349 313.472038 
L 132.775349 313.472038 
L 132.775349 313.472038 
L 132.775349 313.472038 
L 132.775349 313.472038 
L 132.775349 313.472038 
L 132.775349 313.472038 
L 132.775349 313.472038 
L 132.775349 313.472038 
z
" style="fill:#993333;stroke:#000000;stroke-linejoin:miter;"/>
   </g>
   <g id="patch_3">
    <path clip-path="url(#pc51c66b393)" d="M 138.618143 314.373285 
L 139.372695 315.396922 
L 190.705239 277.558251 
L 189.950687 276.534614 
L 189.950687 276.534614 
L 189.950687 276.534614 
L 189.950687 276.534614 
L 189.950687 276.534614 
L 189.950687 276.534614 
L 189.950687 276.534614 
L 189.950687 276.534614 
L 189.950687 276.534614 
L 189.950687 276.534614 
L 189.950687 276.534614 
L 189.950687 276.534614 
L 189.950687 276.534614 
L 189.950687 276.534614 
L 189.950687 276.534614 
L 189.950687 276.534614 
L 189.950687 276.534614 
L 189.950687 276.534614 
L 189.950687 276.534614 
L 189.950687 276.534614 
L 189.950687 276.534614 
L 189.950687 276.534614 
L 189.950687 276.534614 
L 189.950687 276.534614 
L 189.950687 276.534614 
L 189.950687 276.534614 
L 189.950687 276.534614 
L 189.950687 276.534614 
L 189.950687 276.534614 
L 189.950687 276.534614 
L 189.950687 276.534614 
L 189.950687 276.534614 
L 189.950687 276.534614 
L 189.950687 276.534614 
L 189.950687 276.534614 
L 189.950687 276.534614 
L 189.950687 276.534614 
L 189.950687 276.534614 
L 189.950687 276.534614 
L 189.950687 276.534614 
L 189.950687 276.534614 
L 189.950687 276.534614 
L 189.950687 276.534614 
L 189.950687 276.534614 
L 189.950687 276.534614 
L 189.950687 276.534614 
L 189.950687 276.534614 
L 189.950687 276.534614 
L 189.950687 276.534614 
z
" style="stroke:#000000;stroke-linejoin:miter;"/>
   </g>
   <g id="patch_4">
    <path clip-path="url(#pc51c66b393)" d="M 196.534388 278.505902 
L 196.672033 277.10397 
L 196.474907 275.351002 
L 195.954171 274.055275 
L 194.910167 272.610833 
L 193.488661 271.506793 
L 192.244547 270.978275 
L 190.446478 270.668905 
L 189.109407 270.831045 
L 187.375007 271.39209 
L 186.272341 272.20519 
L 185.02625 273.499286 
L 184.427961 274.76427 
L 183.975266 276.474578 
L 184.027835 277.881735 
L 184.479371 279.589512 
L 185.169928 280.79432 
L 186.415145 282.081442 
L 187.574616 282.788922 
L 189.30864 283.340257 
L 190.653148 283.377194 
L 192.45143 283.057756 
L 193.651791 282.415105 
L 195.074049 281.303104 
L 195.836373 280.13821 
L 195.836373 280.13821 
L 195.836373 280.13821 
L 195.836373 280.13821 
L 195.836373 280.13821 
L 195.836373 280.13821 
L 195.836373 280.13821 
L 195.836373 280.13821 
L 195.836373 280.13821 
L 195.836373 280.13821 
L 195.836373 280.13821 
L 195.836373 280.13821 
L 195.836373 280.13821 
L 195.836373 280.13821 
L 195.836373 280.13821 
L 195.836373 280.13821 
L 195.836373 280.13821 
L 195.836373 280.13821 
L 195.836373 280.13821 
L 195.836373 280.13821 
L 195.836373 280.13821 
L 195.836373 280.13821 
L 195.836373 280.13821 
L 195.836373 280.13821 
L 195.836373 280.13821 
L 195.836373 280.13821 
L 195.836373 280.13821 
L 195.836373 280.13821 
L 195.836373 280.13821 
L 195.836373 280.13821 
L 195.836373 280.13821 
L 195.836373 280.13821 
L 195.836373 280.13821 
L 195.836373 280.13821 
L 195.836373 280.13821 
L 195.836373 280.13821 
L 195.836373 280.13821 
L 195.836373 280.13821 
L 195.836373 280.13821 
L 195.836373 280.13821 
L 195.836373 280.13821 
L 195.836373 280.13821 
L 195.836373 280.13821 
L 195.836373 280.13821 
L 195.836373 280.13821 
L 195.836373 280.13821 
L 195.836373 280.13821 
L 195.836373 280.13821 
L 195.836373 280.13821 
L 195.836373 280.13821 
L 195.836373 280.13821 
L 195.836373 280.13821 
L 195.836373 280.13821 
L 195.836373 280.13821 
L 195.836373 280.13821 
L 195.836373 280.13821 
L 195.836373 280.13821 
L 195.836373 280.13821 
L 195.836373 280.13821 
L 195.836373 280.13821 
L 195.836373 280.13821 
L 195.836373 280.13821 
L 195.836373 280.13821 
L 195.836373 280.13821 
L 195.836373 280.13821 
L 195.836373 280.13821 
L 195.836373 280.13821 
L 195.836373 280.13821 
L 195.836373 280.13821 
L 195.836373 280.13821 
L 195.836373 280.13821 
L 195.836373 280.13821 
L 195.836373 280.13821 
L 195.836373 280.13821 
L 195.836373 280.13821 
L 195.836373 280.13821 
L 195.836373 280.13821 
L 195.836373 280.13821 
L 195.836373 280.13821 
L 195.836373 280.13821 
L 195.836373 280.13821 
L 195.836373 280.13821 
L 195.836373 280.13821 
L 195.836373 280.13821 
L 195.836373 280.13821 
L 195.836373 280.13821 
L 195.836373 280.13821 
L 195.836373 280.13821 
L 195.836373 280.13821 
L 195.836373 280.13821 
L 195.836373 280.13821 
L 195.836373 280.13821 
L 195.836373 280.13821 
L 195.836373 280.13821 
L 195.836373 280.13821 
L 195.836373 280.13821 
L 195.836373 280.13821 
L 195.836373 280.13821 
L 195.836373 280.13821 
L 195.836373 280.13821 
L 195.836373 280.13821 
L 195.836373 280.13821 
L 195.836373 280.13821 
L 195.836373 280.13821 
L 195.836373 280.13821 
L 195.836373 280.13821 
L 195.836373 280.13821 
L 195.836373 280.13821 
L 195.836373 280.13821 
L 195.836373 280.13821 
L 195.836373 280.13821 
L 195.836373 280.13821 
L 195.836373 280.13821 
L 195.836373 280.13821 
L 195.836373 280.13821 
L 195.836373 280.13821 
L 195.836373 280.13821 
L 195.836373 280.13821 
L 195.836373 280.13821 
L 195.836373 280.13821 
L 195.836373 280.13821 
L 195.836373 280.13821 
L 195.836373 280.13821 
L 195.836373 280.13821 
L 195.836373 280.13821 
L 195.836373 280.13821 
L 195.836373 280.13821 
L 195.836373 280.13821 
L 195.836373 280.13821 
L 195.836373 280.13821 
L 195.836373 280.13821 
L 195.836373 280.13821 
L 195.836373 280.13821 
L 195.836373 280.13821 
L 195.836373 280.13821 
L 195.836373 280.13821 
L 195.836373 280.13821 
L 195.836373 280.13821 
L 195.836373 280.13821 
L 195.836373 280.13821 
L 195.836373 280.13821 
L 195.836373 280.13821 
L 195.836373 280.13821 
L 195.836373 280.13821 
L 195.836373 280.13821 
z
" style="fill:#993333;stroke:#000000;stroke-linejoin:miter;"/>
   </g>
   <g id="patch_5">
    <path clip-path="url(#pc51c66b393)" d="M 189.886046 276.589285 
L 190.770262 277.503257 
L 236.603409 233.162331 
L 235.719194 232.248359 
L 235.719194 232.248359 
L 235.719194 232.248359 
L 235.719194 232.248359 
L 235.719194 232.248359 
L 235.719194 232.248359 
L 235.719194 232.248359 
L 235.719194 232.248359 
L 235.719194 232.248359 
L 235.719194 232.248359 
L 235.719194 232.248359 
L 235.719194 232.248359 
L 235.719194 232.248359 
L 235.719194 232.248359 
L 235.719194 232.248359 
L 235.719194 232.248359 
L 235.719194 232.248359 
L 235.719194 232.248359 
L 235.719194 232.248359 
L 235.719194 232.248359 
L 235.719194 232.248359 
L 235.719194 232.248359 
L 235.719194 232.248359 
L 235.719194 232.248359 
L 235.719194 232.248359 
L 235.719194 232.248359 
L 235.719194 232.248359 
L 235.719194 232.248359 
L 235.719194 232.248359 
L 235.719194 232.248359 
L 235.719194 232.248359 
L 235.719194 232.248359 
L 235.719194 232.248359 
L 235.719194 232.248359 
L 235.719194 232.248359 
L 235.719194 232.248359 
L 235.719194 232.248359 
L 235.719194 232.248359 
L 235.719194 232.248359 
L 235.719194 232.248359 
L 235.719194 232.248359 
L 235.719194 232.248359 
L 235.719194 232.248359 
L 235.719194 232.248359 
L 235.719194 232.248359 
L 235.719194 232.248359 
L 235.719194 232.248359 
L 235.719194 232.248359 
L 235.719194 232.248359 
z
" style="stroke:#000000;stroke-linejoin:miter;"/>
   </g>
   <g id="text_1">
    <!-- t = 5.4 -->
    <defs>
     <path d="M 18.3125 70.21875 
L 18.3125 54.6875 
L 36.8125 54.6875 
L 36.8125 47.703125 
L 18.3125 47.703125 
L 18.3125 18.015625 
Q 18.3125 11.328125 20.140625 9.421875 
Q 21.96875 7.515625 27.59375 7.515625 
L 36.8125 7.515625 
L 36.8125 0 
L 27.59375 0 
Q 17.1875 0 13.234375 3.875 
Q 9.28125 7.765625 9.28125 18.015625 
L 9.28125 47.703125 
L 2.6875 47.703125 
L 2.6875 54.6875 
L 9.28125 54.6875 
L 9.28125 70.21875 
z
" id="DejaVuSans-116"/>
     <path id="DejaVuSans-32"/>
     <path d="M 10.59375 45.40625 
L 73.1875 45.40625 
L 73.1875 37.203125 
L 10.59375 37.203125 
z
M 10.59375 25.484375 
L 73.1875 25.484375 
L 73.1875 17.1875 
L 10.59375 17.1875 
z
" id="DejaVuSans-61"/>
     <path d="M 10.796875 72.90625 
L 49.515625 72.90625 
L 49.515625 64.59375 
L 19.828125 64.59375 
L 19.828125 46.734375 
Q 21.96875 47.46875 24.109375 47.828125 
Q 26.265625 48.1875 28.421875 48.1875 
Q 40.625 48.1875 47.75 41.5 
Q 54.890625 34.8125 54.890625 23.390625 
Q 54.890625 11.625 47.5625 5.09375 
Q 40.234375 -1.421875 26.90625 -1.421875 
Q 22.3125 -1.421875 17.546875 -0.640625 
Q 12.796875 0.140625 7.71875 1.703125 
L 7.71875 11.625 
Q 12.109375 9.234375 16.796875 8.0625 
Q 21.484375 6.890625 26.703125 6.890625 
Q 35.15625 6.890625 40.078125 11.328125 
Q 45.015625 15.765625 45.015625 23.390625 
Q 45.015625 31 40.078125 35.4375 
Q 35.15625 39.890625 26.703125 39.890625 
Q 22.75 39.890625 18.8125 39.015625 
Q 14.890625 38.140625 10.796875 36.28125 
z
" id="DejaVuSans-53"/>
     <path d="M 10.6875 12.40625 
L 21 12.40625 
L 21 0 
L 10.6875 0 
z
" id="DejaVuSans-46"/>
     <path d="M 37.796875 64.3125 
L 12.890625 25.390625 
L 37.796875 25.390625 
z
M 35.203125 72.90625 
L 47.609375 72.90625 
L 47.609375 25.390625 
L 58.015625 25.390625 
L 58.015625 17.1875 
L 47.609375 17.1875 
L 47.609375 0 
L 37.796875 0 
L 37.796875 17.1875 
L 4.890625 17.1875 
L 4.890625 26.703125 
z
" id="DejaVuSans-52"/>
    </defs>
    <g transform="translate(215.424375 49.296)scale(0.12 -0.12)">
     <use xlink:href="#DejaVuSans-116"/>
     <use x="39.208984" xlink:href="#DejaVuSans-32"/>
     <use x="70.996094" xlink:href="#DejaVuSans-61"/>
     <use x="154.785156" xlink:href="#DejaVuSans-32"/>
     <use x="186.572266" xlink:href="#DejaVuSans-53"/>
     <use x="250.195312" xlink:href="#DejaVuSans-46"/>
     <use x="281.982422" xlink:href="#DejaVuSans-52"/>
    </g>
   </g>
  </g>
 </g>
 <defs>
  <clipPath id="pc51c66b393">
   <rect height="354.816" width="357.12" x="57.6" y="55.296"/>
  </clipPath>
 </defs>
</svg>
