<?xml version="1.0" encoding="utf-8" standalone="no"?>
<!DOCTYPE svg PUBLIC "-//W3C//DTD SVG 1.1//EN"
  "http://www.w3.org/Graphics/SVG/1.1/DTD/svg11.dtd">
<!-- Created with matplotlib (https://matplotlib.org/) -->
<svg height="460.8pt" version="1.1" viewBox="0 0 460.8 460.8" width="460.8pt" xmlns="http://www.w3.org/2000/svg" xmlns:xlink="http://www.w3.org/1999/xlink">
 <defs>
  <style type="text/css">
*{stroke-linecap:butt;stroke-linejoin:round;}
  </style>
 </defs>
 <g id="figure_1">
  <g id="patch_1">
   <path d="M 0 460.8 
L 460.8 460.8 
L 460.8 0 
L 0 0 
z
" style="fill:#ffffff;"/>
  </g>
  <g id="axes_1">
   <g id="patch_2">
    <path clip-path="url(#pfd2565d46c)" d="M 355.62052 280.281901 
L 357.019615 280.30776 
L 358.764921 280.017949 
L 360.026284 279.391995 
L 361.397848 278.278802 
L 362.212653 277.154291 
L 362.874667 275.490265 
L 363.043422 274.142517 
L 362.833802 272.335069 
L 362.315189 271.094058 
L 361.285257 269.585715 
L 360.206251 268.755286 
L 358.608172 267.915343 
L 357.232951 267.698812 
L 355.457989 267.732916 
L 354.123255 268.183298 
L 352.605983 269.083099 
L 351.638526 270.090125 
L 350.750425 271.635321 
L 350.327748 273.384873 
L 350.35693 274.736279 
L 350.813466 276.502727 
L 351.51053 277.65518 
L 352.734502 279.006035 
L 353.928782 279.677375 
L 353.928782 279.677375 
L 353.928782 279.677375 
L 353.928782 279.677375 
L 353.928782 279.677375 
L 353.928782 279.677375 
L 353.928782 279.677375 
L 353.928782 279.677375 
L 353.928782 279.677375 
L 353.928782 279.677375 
L 353.928782 279.677375 
L 353.928782 279.677375 
L 353.928782 279.677375 
L 353.928782 279.677375 
L 353.928782 279.677375 
L 353.928782 279.677375 
L 353.928782 279.677375 
L 353.928782 279.677375 
L 353.928782 279.677375 
L 353.928782 279.677375 
L 353.928782 279.677375 
L 353.928782 279.677375 
L 353.928782 279.677375 
L 353.928782 279.677375 
L 353.928782 279.677375 
L 353.928782 279.677375 
L 353.928782 279.677375 
L 353.928782 279.677375 
L 353.928782 279.677375 
L 353.928782 279.677375 
L 353.928782 279.677375 
L 353.928782 279.677375 
L 353.928782 279.677375 
L 353.928782 279.677375 
L 353.928782 279.677375 
L 353.928782 279.677375 
L 353.928782 279.677375 
L 353.928782 279.677375 
L 353.928782 279.677375 
L 353.928782 279.677375 
L 353.928782 279.677375 
L 353.928782 279.677375 
L 353.928782 279.677375 
L 353.928782 279.677375 
L 353.928782 279.677375 
L 353.928782 279.677375 
L 353.928782 279.677375 
L 353.928782 279.677375 
L 353.928782 279.677375 
L 353.928782 279.677375 
L 353.928782 279.677375 
L 353.928782 279.677375 
L 353.928782 279.677375 
L 353.928782 279.677375 
L 353.928782 279.677375 
L 353.928782 279.677375 
L 353.928782 279.677375 
L 353.928782 279.677375 
L 353.928782 279.677375 
L 353.928782 279.677375 
L 353.928782 279.677375 
L 353.928782 279.677375 
L 353.928782 279.677375 
L 353.928782 279.677375 
L 353.928782 279.677375 
L 353.928782 279.677375 
L 353.928782 279.677375 
L 353.928782 279.677375 
L 353.928782 279.677375 
L 353.928782 279.677375 
L 353.928782 279.677375 
L 353.928782 279.677375 
L 353.928782 279.677375 
L 353.928782 279.677375 
L 353.928782 279.677375 
L 353.928782 279.677375 
L 353.928782 279.677375 
L 353.928782 279.677375 
L 353.928782 279.677375 
L 353.928782 279.677375 
L 353.928782 279.677375 
L 353.928782 279.677375 
L 353.928782 279.677375 
L 353.928782 279.677375 
L 353.928782 279.677375 
L 353.928782 279.677375 
L 353.928782 279.677375 
L 353.928782 279.677375 
L 353.928782 279.677375 
L 353.928782 279.677375 
L 353.928782 279.677375 
L 353.928782 279.677375 
L 353.928782 279.677375 
L 353.928782 279.677375 
L 353.928782 279.677375 
L 353.928782 279.677375 
L 353.928782 279.677375 
L 353.928782 279.677375 
L 353.928782 279.677375 
L 353.928782 279.677375 
L 353.928782 279.677375 
L 353.928782 279.677375 
L 353.928782 279.677375 
L 353.928782 279.677375 
L 353.928782 279.677375 
L 353.928782 279.677375 
L 353.928782 279.677375 
L 353.928782 279.677375 
L 353.928782 279.677375 
L 353.928782 279.677375 
L 353.928782 279.677375 
L 353.928782 279.677375 
L 353.928782 279.677375 
L 353.928782 279.677375 
L 353.928782 279.677375 
L 353.928782 279.677375 
L 353.928782 279.677375 
L 353.928782 279.677375 
L 353.928782 279.677375 
L 353.928782 279.677375 
L 353.928782 279.677375 
L 353.928782 279.677375 
L 353.928782 279.677375 
L 353.928782 279.677375 
L 353.928782 279.677375 
L 353.928782 279.677375 
L 353.928782 279.677375 
L 353.928782 279.677375 
L 353.928782 279.677375 
L 353.928782 279.677375 
L 353.928782 279.677375 
L 353.928782 279.677375 
L 353.928782 279.677375 
L 353.928782 279.677375 
L 353.928782 279.677375 
L 353.928782 279.677375 
L 353.928782 279.677375 
L 353.928782 279.677375 
L 353.928782 279.677375 
L 353.928782 279.677375 
L 353.928782 279.677375 
L 353.928782 279.677375 
L 353.928782 279.677375 
L 353.928782 279.677375 
L 353.928782 279.677375 
z
" style="fill:#993333;stroke:#000000;stroke-linejoin:miter;"/>
   </g>
   <g id="patch_3">
    <path clip-path="url(#pfd2565d46c)" d="M 297.657249 249.826483 
L 297.18716 251.008091 
L 356.441507 274.581753 
L 356.911596 273.400144 
L 356.911596 273.400144 
L 356.911596 273.400144 
L 356.911596 273.400144 
L 356.911596 273.400144 
L 356.911596 273.400144 
L 356.911596 273.400144 
L 356.911596 273.400144 
L 356.911596 273.400144 
L 356.911596 273.400144 
L 356.911596 273.400144 
L 356.911596 273.400144 
L 356.911596 273.400144 
L 356.911596 273.400144 
L 356.911596 273.400144 
L 356.911596 273.400144 
L 356.911596 273.400144 
L 356.911596 273.400144 
L 356.911596 273.400144 
L 356.911596 273.400144 
L 356.911596 273.400144 
L 356.911596 273.400144 
L 356.911596 273.400144 
L 356.911596 273.400144 
L 356.911596 273.400144 
L 356.911596 273.400144 
L 356.911596 273.400144 
L 356.911596 273.400144 
L 356.911596 273.400144 
L 356.911596 273.400144 
L 356.911596 273.400144 
L 356.911596 273.400144 
L 356.911596 273.400144 
L 356.911596 273.400144 
L 356.911596 273.400144 
L 356.911596 273.400144 
L 356.911596 273.400144 
L 356.911596 273.400144 
L 356.911596 273.400144 
L 356.911596 273.400144 
L 356.911596 273.400144 
L 356.911596 273.400144 
L 356.911596 273.400144 
L 356.911596 273.400144 
L 356.911596 273.400144 
L 356.911596 273.400144 
L 356.911596 273.400144 
L 356.911596 273.400144 
L 356.911596 273.400144 
z
" style="stroke:#000000;stroke-linejoin:miter;"/>
   </g>
   <g id="patch_4">
    <path clip-path="url(#pfd2565d46c)" d="M 291.830228 253.485863 
L 292.635789 254.56527 
L 293.985018 255.791033 
L 295.238785 256.343367 
L 296.981183 256.780949 
L 298.376189 256.670978 
L 300.085155 256.213244 
L 301.279855 255.467894 
L 302.536975 254.226913 
L 303.238864 253.028671 
L 303.736351 251.308278 
L 303.773583 249.950516 
L 303.389635 248.171923 
L 302.753093 246.987069 
L 301.581714 245.585738 
L 300.427247 244.863884 
L 298.755231 244.18291 
L 297.365492 244.100792 
L 295.602207 244.306901 
L 294.317453 244.884624 
L 292.894613 245.927353 
L 292.029396 247.023471 
L 291.295361 248.647524 
L 291.044379 250.429824 
L 291.204505 251.772028 
L 291.204505 251.772028 
L 291.204505 251.772028 
L 291.204505 251.772028 
L 291.204505 251.772028 
L 291.204505 251.772028 
L 291.204505 251.772028 
L 291.204505 251.772028 
L 291.204505 251.772028 
L 291.204505 251.772028 
L 291.204505 251.772028 
L 291.204505 251.772028 
L 291.204505 251.772028 
L 291.204505 251.772028 
L 291.204505 251.772028 
L 291.204505 251.772028 
L 291.204505 251.772028 
L 291.204505 251.772028 
L 291.204505 251.772028 
L 291.204505 251.772028 
L 291.204505 251.772028 
L 291.204505 251.772028 
L 291.204505 251.772028 
L 291.204505 251.772028 
L 291.204505 251.772028 
L 291.204505 251.772028 
L 291.204505 251.772028 
L 291.204505 251.772028 
L 291.204505 251.772028 
L 291.204505 251.772028 
L 291.204505 251.772028 
L 291.204505 251.772028 
L 291.204505 251.772028 
L 291.204505 251.772028 
L 291.204505 251.772028 
L 291.204505 251.772028 
L 291.204505 251.772028 
L 291.204505 251.772028 
L 291.204505 251.772028 
L 291.204505 251.772028 
L 291.204505 251.772028 
L 291.204505 251.772028 
L 291.204505 251.772028 
L 291.204505 251.772028 
L 291.204505 251.772028 
L 291.204505 251.772028 
L 291.204505 251.772028 
L 291.204505 251.772028 
L 291.204505 251.772028 
L 291.204505 251.772028 
L 291.204505 251.772028 
L 291.204505 251.772028 
L 291.204505 251.772028 
L 291.204505 251.772028 
L 291.204505 251.772028 
L 291.204505 251.772028 
L 291.204505 251.772028 
L 291.204505 251.772028 
L 291.204505 251.772028 
L 291.204505 251.772028 
L 291.204505 251.772028 
L 291.204505 251.772028 
L 291.204505 251.772028 
L 291.204505 251.772028 
L 291.204505 251.772028 
L 291.204505 251.772028 
L 291.204505 251.772028 
L 291.204505 251.772028 
L 291.204505 251.772028 
L 291.204505 251.772028 
L 291.204505 251.772028 
L 291.204505 251.772028 
L 291.204505 251.772028 
L 291.204505 251.772028 
L 291.204505 251.772028 
L 291.204505 251.772028 
L 291.204505 251.772028 
L 291.204505 251.772028 
L 291.204505 251.772028 
L 291.204505 251.772028 
L 291.204505 251.772028 
L 291.204505 251.772028 
L 291.204505 251.772028 
L 291.204505 251.772028 
L 291.204505 251.772028 
L 291.204505 251.772028 
L 291.204505 251.772028 
L 291.204505 251.772028 
L 291.204505 251.772028 
L 291.204505 251.772028 
L 291.204505 251.772028 
L 291.204505 251.772028 
L 291.204505 251.772028 
L 291.204505 251.772028 
L 291.204505 251.772028 
L 291.204505 251.772028 
L 291.204505 251.772028 
L 291.204505 251.772028 
L 291.204505 251.772028 
L 291.204505 251.772028 
L 291.204505 251.772028 
L 291.204505 251.772028 
L 291.204505 251.772028 
L 291.204505 251.772028 
L 291.204505 251.772028 
L 291.204505 251.772028 
L 291.204505 251.772028 
L 291.204505 251.772028 
L 291.204505 251.772028 
L 291.204505 251.772028 
L 291.204505 251.772028 
L 291.204505 251.772028 
L 291.204505 251.772028 
L 291.204505 251.772028 
L 291.204505 251.772028 
L 291.204505 251.772028 
L 291.204505 251.772028 
L 291.204505 251.772028 
L 291.204505 251.772028 
L 291.204505 251.772028 
L 291.204505 251.772028 
L 291.204505 251.772028 
L 291.204505 251.772028 
L 291.204505 251.772028 
L 291.204505 251.772028 
L 291.204505 251.772028 
L 291.204505 251.772028 
L 291.204505 251.772028 
L 291.204505 251.772028 
L 291.204505 251.772028 
L 291.204505 251.772028 
L 291.204505 251.772028 
L 291.204505 251.772028 
L 291.204505 251.772028 
L 291.204505 251.772028 
L 291.204505 251.772028 
L 291.204505 251.772028 
L 291.204505 251.772028 
L 291.204505 251.772028 
L 291.204505 251.772028 
L 291.204505 251.772028 
L 291.204505 251.772028 
L 291.204505 251.772028 
L 291.204505 251.772028 
L 291.204505 251.772028 
z
" style="fill:#993333;stroke:#000000;stroke-linejoin:miter;"/>
   </g>
   <g id="patch_5">
    <path clip-path="url(#pfd2565d46c)" d="M 235.98389 233.313019 
L 297.245402 251.028045 
L 297.598663 249.806411 
L 236.33715 232.091385 
L 236.33715 232.091385 
L 236.33715 232.091385 
L 236.33715 232.091385 
L 236.33715 232.091385 
L 236.33715 232.091385 
L 236.33715 232.091385 
L 236.33715 232.091385 
L 236.33715 232.091385 
L 236.33715 232.091385 
L 236.33715 232.091385 
L 236.33715 232.091385 
L 236.33715 232.091385 
L 236.33715 232.091385 
L 236.33715 232.091385 
L 236.33715 232.091385 
L 236.33715 232.091385 
L 236.33715 232.091385 
L 236.33715 232.091385 
L 236.33715 232.091385 
L 236.33715 232.091385 
L 236.33715 232.091385 
L 236.33715 232.091385 
L 236.33715 232.091385 
L 236.33715 232.091385 
L 236.33715 232.091385 
L 236.33715 232.091385 
L 236.33715 232.091385 
L 236.33715 232.091385 
L 236.33715 232.091385 
L 236.33715 232.091385 
L 236.33715 232.091385 
L 236.33715 232.091385 
L 236.33715 232.091385 
L 236.33715 232.091385 
L 236.33715 232.091385 
L 236.33715 232.091385 
L 236.33715 232.091385 
L 236.33715 232.091385 
L 236.33715 232.091385 
L 236.33715 232.091385 
L 236.33715 232.091385 
L 236.33715 232.091385 
L 236.33715 232.091385 
L 236.33715 232.091385 
L 236.33715 232.091385 
L 236.33715 232.091385 
L 236.33715 232.091385 
L 236.33715 232.091385 
z
" style="stroke:#000000;stroke-linejoin:miter;"/>
   </g>
   <g id="text_1">
    <!-- t = 1.5 -->
    <defs>
     <path d="M 18.3125 70.21875 
L 18.3125 54.6875 
L 36.8125 54.6875 
L 36.8125 47.703125 
L 18.3125 47.703125 
L 18.3125 18.015625 
Q 18.3125 11.328125 20.140625 9.421875 
Q 21.96875 7.515625 27.59375 7.515625 
L 36.8125 7.515625 
L 36.8125 0 
L 27.59375 0 
Q 17.1875 0 13.234375 3.875 
Q 9.28125 7.765625 9.28125 18.015625 
L 9.28125 47.703125 
L 2.6875 47.703125 
L 2.6875 54.6875 
L 9.28125 54.6875 
L 9.28125 70.21875 
z
" id="DejaVuSans-116"/>
     <path id="DejaVuSans-32"/>
     <path d="M 10.59375 45.40625 
L 73.1875 45.40625 
L 73.1875 37.203125 
L 10.59375 37.203125 
z
M 10.59375 25.484375 
L 73.1875 25.484375 
L 73.1875 17.1875 
L 10.59375 17.1875 
z
" id="DejaVuSans-61"/>
     <path d="M 12.40625 8.296875 
L 28.515625 8.296875 
L 28.515625 63.921875 
L 10.984375 60.40625 
L 10.984375 69.390625 
L 28.421875 72.90625 
L 38.28125 72.90625 
L 38.28125 8.296875 
L 54.390625 8.296875 
L 54.390625 0 
L 12.40625 0 
z
" id="DejaVuSans-49"/>
     <path d="M 10.6875 12.40625 
L 21 12.40625 
L 21 0 
L 10.6875 0 
z
" id="DejaVuSans-46"/>
     <path d="M 10.796875 72.90625 
L 49.515625 72.90625 
L 49.515625 64.59375 
L 19.828125 64.59375 
L 19.828125 46.734375 
Q 21.96875 47.46875 24.109375 47.828125 
Q 26.265625 48.1875 28.421875 48.1875 
Q 40.625 48.1875 47.75 41.5 
Q 54.890625 34.8125 54.890625 23.390625 
Q 54.890625 11.625 47.5625 5.09375 
Q 40.234375 -1.421875 26.90625 -1.421875 
Q 22.3125 -1.421875 17.546875 -0.640625 
Q 12.796875 0.140625 7.71875 1.703125 
L 7.71875 11.625 
Q 12.109375 9.234375 16.796875 8.0625 
Q 21.484375 6.890625 26.703125 6.890625 
Q 35.15625 6.890625 40.078125 11.328125 
Q 45.015625 15.765625 45.015625 23.390625 
Q 45.015625 31 40.078125 35.4375 
Q 35.15625 39.890625 26.703125 39.890625 
Q 22.75 39.890625 18.8125 39.015625 
Q 14.890625 38.140625 10.796875 36.28125 
z
" id="DejaVuSans-53"/>
    </defs>
    <g transform="translate(215.424375 49.296)scale(0.12 -0.12)">
     <use xlink:href="#DejaVuSans-116"/>
     <use x="39.208984" xlink:href="#DejaVuSans-32"/>
     <use x="70.996094" xlink:href="#DejaVuSans-61"/>
     <use x="154.785156" xlink:href="#DejaVuSans-32"/>
     <use x="186.572266" xlink:href="#DejaVuSans-49"/>
     <use x="250.195312" xlink:href="#DejaVuSans-46"/>
     <use x="281.982422" xlink:href="#DejaVuSans-53"/>
    </g>
   </g>
  </g>
 </g>
 <defs>
  <clipPath id="pfd2565d46c">
   <rect height="354.816" width="357.12" x="57.6" y="55.296"/>
  </clipPath>
 </defs>
</svg>
