<?xml version="1.0" encoding="utf-8" standalone="no"?>
<!DOCTYPE svg PUBLIC "-//W3C//DTD SVG 1.1//EN"
  "http://www.w3.org/Graphics/SVG/1.1/DTD/svg11.dtd">
<!-- Created with matplotlib (https://matplotlib.org/) -->
<svg height="460.8pt" version="1.1" viewBox="0 0 460.8 460.8" width="460.8pt" xmlns="http://www.w3.org/2000/svg" xmlns:xlink="http://www.w3.org/1999/xlink">
 <defs>
  <style type="text/css">
*{stroke-linecap:butt;stroke-linejoin:round;}
  </style>
 </defs>
 <g id="figure_1">
  <g id="patch_1">
   <path d="M 0 460.8 
L 460.8 460.8 
L 460.8 0 
L 0 0 
z
" style="fill:#ffffff;"/>
  </g>
  <g id="axes_1">
   <g id="patch_2">
    <path clip-path="url(#pd7e9f2c4dd)" d="M 195.542965 354.219302 
L 195.758495 355.97533 
L 196.330388 357.262106 
L 197.384409 358.679647 
L 198.473351 359.541412 
L 200.107803 360.273404 
L 201.447181 360.499168 
L 203.261893 360.366393 
L 204.523782 359.900881 
L 206.074449 358.935847 
L 206.949894 357.893032 
L 207.856859 356.332014 
L 208.13152 354.967214 
L 208.172726 353.192403 
L 207.779358 351.839769 
L 206.944716 350.285699 
L 205.979628 349.276403 
L 204.473488 348.323566 
L 202.743437 347.827069 
L 201.392009 347.798909 
L 199.607789 348.180116 
L 198.426809 348.827675 
L 197.025258 349.993253 
L 196.303871 351.157986 
L 195.628139 352.822563 
L 195.628139 352.822563 
L 195.628139 352.822563 
L 195.628139 352.822563 
L 195.628139 352.822563 
L 195.628139 352.822563 
L 195.628139 352.822563 
L 195.628139 352.822563 
L 195.628139 352.822563 
L 195.628139 352.822563 
L 195.628139 352.822563 
L 195.628139 352.822563 
L 195.628139 352.822563 
L 195.628139 352.822563 
L 195.628139 352.822563 
L 195.628139 352.822563 
L 195.628139 352.822563 
L 195.628139 352.822563 
L 195.628139 352.822563 
L 195.628139 352.822563 
L 195.628139 352.822563 
L 195.628139 352.822563 
L 195.628139 352.822563 
L 195.628139 352.822563 
L 195.628139 352.822563 
L 195.628139 352.822563 
L 195.628139 352.822563 
L 195.628139 352.822563 
L 195.628139 352.822563 
L 195.628139 352.822563 
L 195.628139 352.822563 
L 195.628139 352.822563 
L 195.628139 352.822563 
L 195.628139 352.822563 
L 195.628139 352.822563 
L 195.628139 352.822563 
L 195.628139 352.822563 
L 195.628139 352.822563 
L 195.628139 352.822563 
L 195.628139 352.822563 
L 195.628139 352.822563 
L 195.628139 352.822563 
L 195.628139 352.822563 
L 195.628139 352.822563 
L 195.628139 352.822563 
L 195.628139 352.822563 
L 195.628139 352.822563 
L 195.628139 352.822563 
L 195.628139 352.822563 
L 195.628139 352.822563 
L 195.628139 352.822563 
L 195.628139 352.822563 
L 195.628139 352.822563 
L 195.628139 352.822563 
L 195.628139 352.822563 
L 195.628139 352.822563 
L 195.628139 352.822563 
L 195.628139 352.822563 
L 195.628139 352.822563 
L 195.628139 352.822563 
L 195.628139 352.822563 
L 195.628139 352.822563 
L 195.628139 352.822563 
L 195.628139 352.822563 
L 195.628139 352.822563 
L 195.628139 352.822563 
L 195.628139 352.822563 
L 195.628139 352.822563 
L 195.628139 352.822563 
L 195.628139 352.822563 
L 195.628139 352.822563 
L 195.628139 352.822563 
L 195.628139 352.822563 
L 195.628139 352.822563 
L 195.628139 352.822563 
L 195.628139 352.822563 
L 195.628139 352.822563 
L 195.628139 352.822563 
L 195.628139 352.822563 
L 195.628139 352.822563 
L 195.628139 352.822563 
L 195.628139 352.822563 
L 195.628139 352.822563 
L 195.628139 352.822563 
L 195.628139 352.822563 
L 195.628139 352.822563 
L 195.628139 352.822563 
L 195.628139 352.822563 
L 195.628139 352.822563 
L 195.628139 352.822563 
L 195.628139 352.822563 
L 195.628139 352.822563 
L 195.628139 352.822563 
L 195.628139 352.822563 
L 195.628139 352.822563 
L 195.628139 352.822563 
L 195.628139 352.822563 
L 195.628139 352.822563 
L 195.628139 352.822563 
L 195.628139 352.822563 
L 195.628139 352.822563 
L 195.628139 352.822563 
L 195.628139 352.822563 
L 195.628139 352.822563 
L 195.628139 352.822563 
L 195.628139 352.822563 
L 195.628139 352.822563 
L 195.628139 352.822563 
L 195.628139 352.822563 
L 195.628139 352.822563 
L 195.628139 352.822563 
L 195.628139 352.822563 
L 195.628139 352.822563 
L 195.628139 352.822563 
L 195.628139 352.822563 
L 195.628139 352.822563 
L 195.628139 352.822563 
L 195.628139 352.822563 
L 195.628139 352.822563 
L 195.628139 352.822563 
L 195.628139 352.822563 
L 195.628139 352.822563 
L 195.628139 352.822563 
L 195.628139 352.822563 
L 195.628139 352.822563 
L 195.628139 352.822563 
L 195.628139 352.822563 
L 195.628139 352.822563 
L 195.628139 352.822563 
L 195.628139 352.822563 
L 195.628139 352.822563 
L 195.628139 352.822563 
L 195.628139 352.822563 
L 195.628139 352.822563 
L 195.628139 352.822563 
L 195.628139 352.822563 
L 195.628139 352.822563 
L 195.628139 352.822563 
L 195.628139 352.822563 
L 195.628139 352.822563 
L 195.628139 352.822563 
L 195.628139 352.822563 
L 195.628139 352.822563 
L 195.628139 352.822563 
L 195.628139 352.822563 
z
" style="fill:#993333;stroke:#000000;stroke-linejoin:miter;"/>
   </g>
   <g id="patch_3">
    <path clip-path="url(#pd7e9f2c4dd)" d="M 201.288339 353.884564 
L 202.448947 354.404345 
L 228.51448 296.203115 
L 227.353872 295.683335 
L 227.353872 295.683335 
L 227.353872 295.683335 
L 227.353872 295.683335 
L 227.353872 295.683335 
L 227.353872 295.683335 
L 227.353872 295.683335 
L 227.353872 295.683335 
L 227.353872 295.683335 
L 227.353872 295.683335 
L 227.353872 295.683335 
L 227.353872 295.683335 
L 227.353872 295.683335 
L 227.353872 295.683335 
L 227.353872 295.683335 
L 227.353872 295.683335 
L 227.353872 295.683335 
L 227.353872 295.683335 
L 227.353872 295.683335 
L 227.353872 295.683335 
L 227.353872 295.683335 
L 227.353872 295.683335 
L 227.353872 295.683335 
L 227.353872 295.683335 
L 227.353872 295.683335 
L 227.353872 295.683335 
L 227.353872 295.683335 
L 227.353872 295.683335 
L 227.353872 295.683335 
L 227.353872 295.683335 
L 227.353872 295.683335 
L 227.353872 295.683335 
L 227.353872 295.683335 
L 227.353872 295.683335 
L 227.353872 295.683335 
L 227.353872 295.683335 
L 227.353872 295.683335 
L 227.353872 295.683335 
L 227.353872 295.683335 
L 227.353872 295.683335 
L 227.353872 295.683335 
L 227.353872 295.683335 
L 227.353872 295.683335 
L 227.353872 295.683335 
L 227.353872 295.683335 
L 227.353872 295.683335 
L 227.353872 295.683335 
L 227.353872 295.683335 
L 227.353872 295.683335 
z
" style="stroke:#000000;stroke-linejoin:miter;"/>
   </g>
   <g id="patch_4">
    <path clip-path="url(#pd7e9f2c4dd)" d="M 228.755221 289.618614 
L 226.95547 289.640601 
L 225.653029 290.002261 
L 224.053799 290.880456 
L 223.108923 291.840277 
L 222.101762 293.359666 
L 221.745789 294.68265 
L 221.577284 296.471234 
L 221.89737 297.833468 
L 222.608777 299.45334 
L 223.526553 300.521302 
L 224.943695 301.57586 
L 226.234457 302.088075 
L 228.010369 302.319127 
L 229.358094 302.150188 
L 231.05797 301.501164 
L 232.132687 300.692432 
L 233.340338 299.322236 
L 233.878921 298.071717 
L 234.298671 296.315821 
L 234.169254 294.929686 
L 233.698336 293.217994 
L 232.932605 292.035618 
L 231.686315 290.787212 
L 230.471748 290.09808 
L 230.471748 290.09808 
L 230.471748 290.09808 
L 230.471748 290.09808 
L 230.471748 290.09808 
L 230.471748 290.09808 
L 230.471748 290.09808 
L 230.471748 290.09808 
L 230.471748 290.09808 
L 230.471748 290.09808 
L 230.471748 290.09808 
L 230.471748 290.09808 
L 230.471748 290.09808 
L 230.471748 290.09808 
L 230.471748 290.09808 
L 230.471748 290.09808 
L 230.471748 290.09808 
L 230.471748 290.09808 
L 230.471748 290.09808 
L 230.471748 290.09808 
L 230.471748 290.09808 
L 230.471748 290.09808 
L 230.471748 290.09808 
L 230.471748 290.09808 
L 230.471748 290.09808 
L 230.471748 290.09808 
L 230.471748 290.09808 
L 230.471748 290.09808 
L 230.471748 290.09808 
L 230.471748 290.09808 
L 230.471748 290.09808 
L 230.471748 290.09808 
L 230.471748 290.09808 
L 230.471748 290.09808 
L 230.471748 290.09808 
L 230.471748 290.09808 
L 230.471748 290.09808 
L 230.471748 290.09808 
L 230.471748 290.09808 
L 230.471748 290.09808 
L 230.471748 290.09808 
L 230.471748 290.09808 
L 230.471748 290.09808 
L 230.471748 290.09808 
L 230.471748 290.09808 
L 230.471748 290.09808 
L 230.471748 290.09808 
L 230.471748 290.09808 
L 230.471748 290.09808 
L 230.471748 290.09808 
L 230.471748 290.09808 
L 230.471748 290.09808 
L 230.471748 290.09808 
L 230.471748 290.09808 
L 230.471748 290.09808 
L 230.471748 290.09808 
L 230.471748 290.09808 
L 230.471748 290.09808 
L 230.471748 290.09808 
L 230.471748 290.09808 
L 230.471748 290.09808 
L 230.471748 290.09808 
L 230.471748 290.09808 
L 230.471748 290.09808 
L 230.471748 290.09808 
L 230.471748 290.09808 
L 230.471748 290.09808 
L 230.471748 290.09808 
L 230.471748 290.09808 
L 230.471748 290.09808 
L 230.471748 290.09808 
L 230.471748 290.09808 
L 230.471748 290.09808 
L 230.471748 290.09808 
L 230.471748 290.09808 
L 230.471748 290.09808 
L 230.471748 290.09808 
L 230.471748 290.09808 
L 230.471748 290.09808 
L 230.471748 290.09808 
L 230.471748 290.09808 
L 230.471748 290.09808 
L 230.471748 290.09808 
L 230.471748 290.09808 
L 230.471748 290.09808 
L 230.471748 290.09808 
L 230.471748 290.09808 
L 230.471748 290.09808 
L 230.471748 290.09808 
L 230.471748 290.09808 
L 230.471748 290.09808 
L 230.471748 290.09808 
L 230.471748 290.09808 
L 230.471748 290.09808 
L 230.471748 290.09808 
L 230.471748 290.09808 
L 230.471748 290.09808 
L 230.471748 290.09808 
L 230.471748 290.09808 
L 230.471748 290.09808 
L 230.471748 290.09808 
L 230.471748 290.09808 
L 230.471748 290.09808 
L 230.471748 290.09808 
L 230.471748 290.09808 
L 230.471748 290.09808 
L 230.471748 290.09808 
L 230.471748 290.09808 
L 230.471748 290.09808 
L 230.471748 290.09808 
L 230.471748 290.09808 
L 230.471748 290.09808 
L 230.471748 290.09808 
L 230.471748 290.09808 
L 230.471748 290.09808 
L 230.471748 290.09808 
L 230.471748 290.09808 
L 230.471748 290.09808 
L 230.471748 290.09808 
L 230.471748 290.09808 
L 230.471748 290.09808 
L 230.471748 290.09808 
L 230.471748 290.09808 
L 230.471748 290.09808 
L 230.471748 290.09808 
L 230.471748 290.09808 
L 230.471748 290.09808 
L 230.471748 290.09808 
L 230.471748 290.09808 
L 230.471748 290.09808 
L 230.471748 290.09808 
L 230.471748 290.09808 
L 230.471748 290.09808 
L 230.471748 290.09808 
L 230.471748 290.09808 
L 230.471748 290.09808 
L 230.471748 290.09808 
L 230.471748 290.09808 
L 230.471748 290.09808 
L 230.471748 290.09808 
L 230.471748 290.09808 
L 230.471748 290.09808 
L 230.471748 290.09808 
L 230.471748 290.09808 
L 230.471748 290.09808 
z
" style="fill:#993333;stroke:#000000;stroke-linejoin:miter;"/>
   </g>
   <g id="patch_5">
    <path clip-path="url(#pd7e9f2c4dd)" d="M 227.303795 295.860668 
L 228.564852 296.024735 
L 236.792385 232.786275 
L 235.531328 232.622208 
L 235.531328 232.622208 
L 235.531328 232.622208 
L 235.531328 232.622208 
L 235.531328 232.622208 
L 235.531328 232.622208 
L 235.531328 232.622208 
L 235.531328 232.622208 
L 235.531328 232.622208 
L 235.531328 232.622208 
L 235.531328 232.622208 
L 235.531328 232.622208 
L 235.531328 232.622208 
L 235.531328 232.622208 
L 235.531328 232.622208 
L 235.531328 232.622208 
L 235.531328 232.622208 
L 235.531328 232.622208 
L 235.531328 232.622208 
L 235.531328 232.622208 
L 235.531328 232.622208 
L 235.531328 232.622208 
L 235.531328 232.622208 
L 235.531328 232.622208 
L 235.531328 232.622208 
L 235.531328 232.622208 
L 235.531328 232.622208 
L 235.531328 232.622208 
L 235.531328 232.622208 
L 235.531328 232.622208 
L 235.531328 232.622208 
L 235.531328 232.622208 
L 235.531328 232.622208 
L 235.531328 232.622208 
L 235.531328 232.622208 
L 235.531328 232.622208 
L 235.531328 232.622208 
L 235.531328 232.622208 
L 235.531328 232.622208 
L 235.531328 232.622208 
L 235.531328 232.622208 
L 235.531328 232.622208 
L 235.531328 232.622208 
L 235.531328 232.622208 
L 235.531328 232.622208 
L 235.531328 232.622208 
L 235.531328 232.622208 
L 235.531328 232.622208 
L 235.531328 232.622208 
z
" style="stroke:#000000;stroke-linejoin:miter;"/>
   </g>
   <g id="text_1">
    <!-- t = 5.1 -->
    <defs>
     <path d="M 18.3125 70.21875 
L 18.3125 54.6875 
L 36.8125 54.6875 
L 36.8125 47.703125 
L 18.3125 47.703125 
L 18.3125 18.015625 
Q 18.3125 11.328125 20.140625 9.421875 
Q 21.96875 7.515625 27.59375 7.515625 
L 36.8125 7.515625 
L 36.8125 0 
L 27.59375 0 
Q 17.1875 0 13.234375 3.875 
Q 9.28125 7.765625 9.28125 18.015625 
L 9.28125 47.703125 
L 2.6875 47.703125 
L 2.6875 54.6875 
L 9.28125 54.6875 
L 9.28125 70.21875 
z
" id="DejaVuSans-116"/>
     <path id="DejaVuSans-32"/>
     <path d="M 10.59375 45.40625 
L 73.1875 45.40625 
L 73.1875 37.203125 
L 10.59375 37.203125 
z
M 10.59375 25.484375 
L 73.1875 25.484375 
L 73.1875 17.1875 
L 10.59375 17.1875 
z
" id="DejaVuSans-61"/>
     <path d="M 10.796875 72.90625 
L 49.515625 72.90625 
L 49.515625 64.59375 
L 19.828125 64.59375 
L 19.828125 46.734375 
Q 21.96875 47.46875 24.109375 47.828125 
Q 26.265625 48.1875 28.421875 48.1875 
Q 40.625 48.1875 47.75 41.5 
Q 54.890625 34.8125 54.890625 23.390625 
Q 54.890625 11.625 47.5625 5.09375 
Q 40.234375 -1.421875 26.90625 -1.421875 
Q 22.3125 -1.421875 17.546875 -0.640625 
Q 12.796875 0.140625 7.71875 1.703125 
L 7.71875 11.625 
Q 12.109375 9.234375 16.796875 8.0625 
Q 21.484375 6.890625 26.703125 6.890625 
Q 35.15625 6.890625 40.078125 11.328125 
Q 45.015625 15.765625 45.015625 23.390625 
Q 45.015625 31 40.078125 35.4375 
Q 35.15625 39.890625 26.703125 39.890625 
Q 22.75 39.890625 18.8125 39.015625 
Q 14.890625 38.140625 10.796875 36.28125 
z
" id="DejaVuSans-53"/>
     <path d="M 10.6875 12.40625 
L 21 12.40625 
L 21 0 
L 10.6875 0 
z
" id="DejaVuSans-46"/>
     <path d="M 12.40625 8.296875 
L 28.515625 8.296875 
L 28.515625 63.921875 
L 10.984375 60.40625 
L 10.984375 69.390625 
L 28.421875 72.90625 
L 38.28125 72.90625 
L 38.28125 8.296875 
L 54.390625 8.296875 
L 54.390625 0 
L 12.40625 0 
z
" id="DejaVuSans-49"/>
    </defs>
    <g transform="translate(215.424375 49.296)scale(0.12 -0.12)">
     <use xlink:href="#DejaVuSans-116"/>
     <use x="39.208984" xlink:href="#DejaVuSans-32"/>
     <use x="70.996094" xlink:href="#DejaVuSans-61"/>
     <use x="154.785156" xlink:href="#DejaVuSans-32"/>
     <use x="186.572266" xlink:href="#DejaVuSans-53"/>
     <use x="250.195312" xlink:href="#DejaVuSans-46"/>
     <use x="281.982422" xlink:href="#DejaVuSans-49"/>
    </g>
   </g>
  </g>
 </g>
 <defs>
  <clipPath id="pd7e9f2c4dd">
   <rect height="354.816" width="357.12" x="57.6" y="55.296"/>
  </clipPath>
 </defs>
</svg>
