<?xml version="1.0" encoding="utf-8" standalone="no"?>
<!DOCTYPE svg PUBLIC "-//W3C//DTD SVG 1.1//EN"
  "http://www.w3.org/Graphics/SVG/1.1/DTD/svg11.dtd">
<!-- Created with matplotlib (https://matplotlib.org/) -->
<svg height="460.8pt" version="1.1" viewBox="0 0 460.8 460.8" width="460.8pt" xmlns="http://www.w3.org/2000/svg" xmlns:xlink="http://www.w3.org/1999/xlink">
 <defs>
  <style type="text/css">
*{stroke-linecap:butt;stroke-linejoin:round;}
  </style>
 </defs>
 <g id="figure_1">
  <g id="patch_1">
   <path d="M 0 460.8 
L 460.8 460.8 
L 460.8 0 
L 0 0 
z
" style="fill:#ffffff;"/>
  </g>
  <g id="axes_1">
   <g id="patch_2">
    <path clip-path="url(#p96bf9444f6)" d="M 344.031196 287.829349 
L 343.067458 289.328537 
L 342.558423 291.05494 
L 342.52046 292.406129 
L 342.888713 294.193067 
L 343.527688 295.378714 
L 344.683069 296.788683 
L 345.842537 297.518502 
L 347.502168 298.206291 
L 348.898253 298.301595 
L 350.655798 298.098811 
L 351.946688 297.536267 
L 353.371839 296.492557 
L 354.241481 295.409896 
L 354.985311 293.780797 
L 355.220785 292.443092 
L 355.101179 290.627465 
L 354.644833 289.362232 
L 353.691074 287.804605 
L 352.654638 286.921618 
L 351.10024 286.003352 
L 349.737469 285.718797 
L 347.963002 285.664717 
L 346.60755 286.048262 
L 345.047467 286.871608 
L 345.047467 286.871608 
L 345.047467 286.871608 
L 345.047467 286.871608 
L 345.047467 286.871608 
L 345.047467 286.871608 
L 345.047467 286.871608 
L 345.047467 286.871608 
L 345.047467 286.871608 
L 345.047467 286.871608 
L 345.047467 286.871608 
L 345.047467 286.871608 
L 345.047467 286.871608 
L 345.047467 286.871608 
L 345.047467 286.871608 
L 345.047467 286.871608 
L 345.047467 286.871608 
L 345.047467 286.871608 
L 345.047467 286.871608 
L 345.047467 286.871608 
L 345.047467 286.871608 
L 345.047467 286.871608 
L 345.047467 286.871608 
L 345.047467 286.871608 
L 345.047467 286.871608 
L 345.047467 286.871608 
L 345.047467 286.871608 
L 345.047467 286.871608 
L 345.047467 286.871608 
L 345.047467 286.871608 
L 345.047467 286.871608 
L 345.047467 286.871608 
L 345.047467 286.871608 
L 345.047467 286.871608 
L 345.047467 286.871608 
L 345.047467 286.871608 
L 345.047467 286.871608 
L 345.047467 286.871608 
L 345.047467 286.871608 
L 345.047467 286.871608 
L 345.047467 286.871608 
L 345.047467 286.871608 
L 345.047467 286.871608 
L 345.047467 286.871608 
L 345.047467 286.871608 
L 345.047467 286.871608 
L 345.047467 286.871608 
L 345.047467 286.871608 
L 345.047467 286.871608 
L 345.047467 286.871608 
L 345.047467 286.871608 
L 345.047467 286.871608 
L 345.047467 286.871608 
L 345.047467 286.871608 
L 345.047467 286.871608 
L 345.047467 286.871608 
L 345.047467 286.871608 
L 345.047467 286.871608 
L 345.047467 286.871608 
L 345.047467 286.871608 
L 345.047467 286.871608 
L 345.047467 286.871608 
L 345.047467 286.871608 
L 345.047467 286.871608 
L 345.047467 286.871608 
L 345.047467 286.871608 
L 345.047467 286.871608 
L 345.047467 286.871608 
L 345.047467 286.871608 
L 345.047467 286.871608 
L 345.047467 286.871608 
L 345.047467 286.871608 
L 345.047467 286.871608 
L 345.047467 286.871608 
L 345.047467 286.871608 
L 345.047467 286.871608 
L 345.047467 286.871608 
L 345.047467 286.871608 
L 345.047467 286.871608 
L 345.047467 286.871608 
L 345.047467 286.871608 
L 345.047467 286.871608 
L 345.047467 286.871608 
L 345.047467 286.871608 
L 345.047467 286.871608 
L 345.047467 286.871608 
L 345.047467 286.871608 
L 345.047467 286.871608 
L 345.047467 286.871608 
L 345.047467 286.871608 
L 345.047467 286.871608 
L 345.047467 286.871608 
L 345.047467 286.871608 
L 345.047467 286.871608 
L 345.047467 286.871608 
L 345.047467 286.871608 
L 345.047467 286.871608 
L 345.047467 286.871608 
L 345.047467 286.871608 
L 345.047467 286.871608 
L 345.047467 286.871608 
L 345.047467 286.871608 
L 345.047467 286.871608 
L 345.047467 286.871608 
L 345.047467 286.871608 
L 345.047467 286.871608 
L 345.047467 286.871608 
L 345.047467 286.871608 
L 345.047467 286.871608 
L 345.047467 286.871608 
L 345.047467 286.871608 
L 345.047467 286.871608 
L 345.047467 286.871608 
L 345.047467 286.871608 
L 345.047467 286.871608 
L 345.047467 286.871608 
L 345.047467 286.871608 
L 345.047467 286.871608 
L 345.047467 286.871608 
L 345.047467 286.871608 
L 345.047467 286.871608 
L 345.047467 286.871608 
L 345.047467 286.871608 
L 345.047467 286.871608 
L 345.047467 286.871608 
L 345.047467 286.871608 
L 345.047467 286.871608 
L 345.047467 286.871608 
L 345.047467 286.871608 
L 345.047467 286.871608 
L 345.047467 286.871608 
L 345.047467 286.871608 
L 345.047467 286.871608 
L 345.047467 286.871608 
L 345.047467 286.871608 
L 345.047467 286.871608 
L 345.047467 286.871608 
L 345.047467 286.871608 
L 345.047467 286.871608 
L 345.047467 286.871608 
L 345.047467 286.871608 
L 345.047467 286.871608 
L 345.047467 286.871608 
L 345.047467 286.871608 
L 345.047467 286.871608 
z
" style="fill:#993333;stroke:#000000;stroke-linejoin:miter;"/>
   </g>
   <g id="patch_3">
    <path clip-path="url(#p96bf9444f6)" d="M 290.594597 266.066878 
L 348.605203 292.553944 
L 349.13339 291.397137 
L 291.122784 264.910071 
L 291.122784 264.910071 
L 291.122784 264.910071 
L 291.122784 264.910071 
L 291.122784 264.910071 
L 291.122784 264.910071 
L 291.122784 264.910071 
L 291.122784 264.910071 
L 291.122784 264.910071 
L 291.122784 264.910071 
L 291.122784 264.910071 
L 291.122784 264.910071 
L 291.122784 264.910071 
L 291.122784 264.910071 
L 291.122784 264.910071 
L 291.122784 264.910071 
L 291.122784 264.910071 
L 291.122784 264.910071 
L 291.122784 264.910071 
L 291.122784 264.910071 
L 291.122784 264.910071 
L 291.122784 264.910071 
L 291.122784 264.910071 
L 291.122784 264.910071 
L 291.122784 264.910071 
L 291.122784 264.910071 
L 291.122784 264.910071 
L 291.122784 264.910071 
L 291.122784 264.910071 
L 291.122784 264.910071 
L 291.122784 264.910071 
L 291.122784 264.910071 
L 291.122784 264.910071 
L 291.122784 264.910071 
L 291.122784 264.910071 
L 291.122784 264.910071 
L 291.122784 264.910071 
L 291.122784 264.910071 
L 291.122784 264.910071 
L 291.122784 264.910071 
L 291.122784 264.910071 
L 291.122784 264.910071 
L 291.122784 264.910071 
L 291.122784 264.910071 
L 291.122784 264.910071 
L 291.122784 264.910071 
L 291.122784 264.910071 
L 291.122784 264.910071 
L 291.122784 264.910071 
z
" style="stroke:#000000;stroke-linejoin:miter;"/>
   </g>
   <g id="patch_4">
    <path clip-path="url(#p96bf9444f6)" d="M 284.501597 265.209034 
L 284.66844 267.025878 
L 285.17132 268.275342 
L 286.162394 269.805273 
L 287.233319 270.659745 
L 288.805974 271.528182 
L 290.182745 271.778457 
L 291.951941 271.772777 
L 293.297476 271.357579 
L 294.830052 270.479172 
L 295.814917 269.500157 
L 296.735644 267.964087 
L 297.11871 266.660951 
L 297.202163 264.843303 
L 296.889642 263.5351 
L 296.115388 261.880896 
L 295.183796 260.887919 
L 293.7414 259.802168 
L 292.418823 259.367532 
L 290.661434 259.116062 
L 289.271685 259.346182 
L 287.629573 259.990562 
L 286.512911 260.829096 
L 285.388122 262.21156 
L 284.689885 263.87049 
L 284.689885 263.87049 
L 284.689885 263.87049 
L 284.689885 263.87049 
L 284.689885 263.87049 
L 284.689885 263.87049 
L 284.689885 263.87049 
L 284.689885 263.87049 
L 284.689885 263.87049 
L 284.689885 263.87049 
L 284.689885 263.87049 
L 284.689885 263.87049 
L 284.689885 263.87049 
L 284.689885 263.87049 
L 284.689885 263.87049 
L 284.689885 263.87049 
L 284.689885 263.87049 
L 284.689885 263.87049 
L 284.689885 263.87049 
L 284.689885 263.87049 
L 284.689885 263.87049 
L 284.689885 263.87049 
L 284.689885 263.87049 
L 284.689885 263.87049 
L 284.689885 263.87049 
L 284.689885 263.87049 
L 284.689885 263.87049 
L 284.689885 263.87049 
L 284.689885 263.87049 
L 284.689885 263.87049 
L 284.689885 263.87049 
L 284.689885 263.87049 
L 284.689885 263.87049 
L 284.689885 263.87049 
L 284.689885 263.87049 
L 284.689885 263.87049 
L 284.689885 263.87049 
L 284.689885 263.87049 
L 284.689885 263.87049 
L 284.689885 263.87049 
L 284.689885 263.87049 
L 284.689885 263.87049 
L 284.689885 263.87049 
L 284.689885 263.87049 
L 284.689885 263.87049 
L 284.689885 263.87049 
L 284.689885 263.87049 
L 284.689885 263.87049 
L 284.689885 263.87049 
L 284.689885 263.87049 
L 284.689885 263.87049 
L 284.689885 263.87049 
L 284.689885 263.87049 
L 284.689885 263.87049 
L 284.689885 263.87049 
L 284.689885 263.87049 
L 284.689885 263.87049 
L 284.689885 263.87049 
L 284.689885 263.87049 
L 284.689885 263.87049 
L 284.689885 263.87049 
L 284.689885 263.87049 
L 284.689885 263.87049 
L 284.689885 263.87049 
L 284.689885 263.87049 
L 284.689885 263.87049 
L 284.689885 263.87049 
L 284.689885 263.87049 
L 284.689885 263.87049 
L 284.689885 263.87049 
L 284.689885 263.87049 
L 284.689885 263.87049 
L 284.689885 263.87049 
L 284.689885 263.87049 
L 284.689885 263.87049 
L 284.689885 263.87049 
L 284.689885 263.87049 
L 284.689885 263.87049 
L 284.689885 263.87049 
L 284.689885 263.87049 
L 284.689885 263.87049 
L 284.689885 263.87049 
L 284.689885 263.87049 
L 284.689885 263.87049 
L 284.689885 263.87049 
L 284.689885 263.87049 
L 284.689885 263.87049 
L 284.689885 263.87049 
L 284.689885 263.87049 
L 284.689885 263.87049 
L 284.689885 263.87049 
L 284.689885 263.87049 
L 284.689885 263.87049 
L 284.689885 263.87049 
L 284.689885 263.87049 
L 284.689885 263.87049 
L 284.689885 263.87049 
L 284.689885 263.87049 
L 284.689885 263.87049 
L 284.689885 263.87049 
L 284.689885 263.87049 
L 284.689885 263.87049 
L 284.689885 263.87049 
L 284.689885 263.87049 
L 284.689885 263.87049 
L 284.689885 263.87049 
L 284.689885 263.87049 
L 284.689885 263.87049 
L 284.689885 263.87049 
L 284.689885 263.87049 
L 284.689885 263.87049 
L 284.689885 263.87049 
L 284.689885 263.87049 
L 284.689885 263.87049 
L 284.689885 263.87049 
L 284.689885 263.87049 
L 284.689885 263.87049 
L 284.689885 263.87049 
L 284.689885 263.87049 
L 284.689885 263.87049 
L 284.689885 263.87049 
L 284.689885 263.87049 
L 284.689885 263.87049 
L 284.689885 263.87049 
L 284.689885 263.87049 
L 284.689885 263.87049 
L 284.689885 263.87049 
L 284.689885 263.87049 
L 284.689885 263.87049 
L 284.689885 263.87049 
L 284.689885 263.87049 
L 284.689885 263.87049 
L 284.689885 263.87049 
L 284.689885 263.87049 
L 284.689885 263.87049 
L 284.689885 263.87049 
L 284.689885 263.87049 
L 284.689885 263.87049 
L 284.689885 263.87049 
L 284.689885 263.87049 
L 284.689885 263.87049 
L 284.689885 263.87049 
L 284.689885 263.87049 
L 284.689885 263.87049 
L 284.689885 263.87049 
z
" style="fill:#993333;stroke:#000000;stroke-linejoin:miter;"/>
   </g>
   <g id="patch_5">
    <path clip-path="url(#p96bf9444f6)" d="M 235.834063 233.247768 
L 290.531976 266.033945 
L 291.185775 264.943198 
L 236.487862 232.157021 
L 236.487862 232.157021 
L 236.487862 232.157021 
L 236.487862 232.157021 
L 236.487862 232.157021 
L 236.487862 232.157021 
L 236.487862 232.157021 
L 236.487862 232.157021 
L 236.487862 232.157021 
L 236.487862 232.157021 
L 236.487862 232.157021 
L 236.487862 232.157021 
L 236.487862 232.157021 
L 236.487862 232.157021 
L 236.487862 232.157021 
L 236.487862 232.157021 
L 236.487862 232.157021 
L 236.487862 232.157021 
L 236.487862 232.157021 
L 236.487862 232.157021 
L 236.487862 232.157021 
L 236.487862 232.157021 
L 236.487862 232.157021 
L 236.487862 232.157021 
L 236.487862 232.157021 
L 236.487862 232.157021 
L 236.487862 232.157021 
L 236.487862 232.157021 
L 236.487862 232.157021 
L 236.487862 232.157021 
L 236.487862 232.157021 
L 236.487862 232.157021 
L 236.487862 232.157021 
L 236.487862 232.157021 
L 236.487862 232.157021 
L 236.487862 232.157021 
L 236.487862 232.157021 
L 236.487862 232.157021 
L 236.487862 232.157021 
L 236.487862 232.157021 
L 236.487862 232.157021 
L 236.487862 232.157021 
L 236.487862 232.157021 
L 236.487862 232.157021 
L 236.487862 232.157021 
L 236.487862 232.157021 
L 236.487862 232.157021 
L 236.487862 232.157021 
L 236.487862 232.157021 
z
" style="stroke:#000000;stroke-linejoin:miter;"/>
   </g>
   <g id="text_1">
    <!-- t = 9.9 -->
    <defs>
     <path d="M 18.3125 70.21875 
L 18.3125 54.6875 
L 36.8125 54.6875 
L 36.8125 47.703125 
L 18.3125 47.703125 
L 18.3125 18.015625 
Q 18.3125 11.328125 20.140625 9.421875 
Q 21.96875 7.515625 27.59375 7.515625 
L 36.8125 7.515625 
L 36.8125 0 
L 27.59375 0 
Q 17.1875 0 13.234375 3.875 
Q 9.28125 7.765625 9.28125 18.015625 
L 9.28125 47.703125 
L 2.6875 47.703125 
L 2.6875 54.6875 
L 9.28125 54.6875 
L 9.28125 70.21875 
z
" id="DejaVuSans-116"/>
     <path id="DejaVuSans-32"/>
     <path d="M 10.59375 45.40625 
L 73.1875 45.40625 
L 73.1875 37.203125 
L 10.59375 37.203125 
z
M 10.59375 25.484375 
L 73.1875 25.484375 
L 73.1875 17.1875 
L 10.59375 17.1875 
z
" id="DejaVuSans-61"/>
     <path d="M 10.984375 1.515625 
L 10.984375 10.5 
Q 14.703125 8.734375 18.5 7.8125 
Q 22.3125 6.890625 25.984375 6.890625 
Q 35.75 6.890625 40.890625 13.453125 
Q 46.046875 20.015625 46.78125 33.40625 
Q 43.953125 29.203125 39.59375 26.953125 
Q 35.25 24.703125 29.984375 24.703125 
Q 19.046875 24.703125 12.671875 31.3125 
Q 6.296875 37.9375 6.296875 49.421875 
Q 6.296875 60.640625 12.9375 67.421875 
Q 19.578125 74.21875 30.609375 74.21875 
Q 43.265625 74.21875 49.921875 64.515625 
Q 56.59375 54.828125 56.59375 36.375 
Q 56.59375 19.140625 48.40625 8.859375 
Q 40.234375 -1.421875 26.421875 -1.421875 
Q 22.703125 -1.421875 18.890625 -0.6875 
Q 15.09375 0.046875 10.984375 1.515625 
z
M 30.609375 32.421875 
Q 37.25 32.421875 41.125 36.953125 
Q 45.015625 41.5 45.015625 49.421875 
Q 45.015625 57.28125 41.125 61.84375 
Q 37.25 66.40625 30.609375 66.40625 
Q 23.96875 66.40625 20.09375 61.84375 
Q 16.21875 57.28125 16.21875 49.421875 
Q 16.21875 41.5 20.09375 36.953125 
Q 23.96875 32.421875 30.609375 32.421875 
z
" id="DejaVuSans-57"/>
     <path d="M 10.6875 12.40625 
L 21 12.40625 
L 21 0 
L 10.6875 0 
z
" id="DejaVuSans-46"/>
    </defs>
    <g transform="translate(215.424375 49.296)scale(0.12 -0.12)">
     <use xlink:href="#DejaVuSans-116"/>
     <use x="39.208984" xlink:href="#DejaVuSans-32"/>
     <use x="70.996094" xlink:href="#DejaVuSans-61"/>
     <use x="154.785156" xlink:href="#DejaVuSans-32"/>
     <use x="186.572266" xlink:href="#DejaVuSans-57"/>
     <use x="250.195312" xlink:href="#DejaVuSans-46"/>
     <use x="281.982422" xlink:href="#DejaVuSans-57"/>
    </g>
   </g>
  </g>
 </g>
 <defs>
  <clipPath id="p96bf9444f6">
   <rect height="354.816" width="357.12" x="57.6" y="55.296"/>
  </clipPath>
 </defs>
</svg>
