<?xml version="1.0" encoding="utf-8" standalone="no"?>
<!DOCTYPE svg PUBLIC "-//W3C//DTD SVG 1.1//EN"
  "http://www.w3.org/Graphics/SVG/1.1/DTD/svg11.dtd">
<!-- Created with matplotlib (https://matplotlib.org/) -->
<svg height="460.8pt" version="1.1" viewBox="0 0 460.8 460.8" width="460.8pt" xmlns="http://www.w3.org/2000/svg" xmlns:xlink="http://www.w3.org/1999/xlink">
 <defs>
  <style type="text/css">
*{stroke-linecap:butt;stroke-linejoin:round;}
  </style>
 </defs>
 <g id="figure_1">
  <g id="patch_1">
   <path d="M 0 460.8 
L 460.8 460.8 
L 460.8 0 
L 0 0 
z
" style="fill:#ffffff;"/>
  </g>
  <g id="axes_1">
   <g id="patch_2">
    <path clip-path="url(#p91c62140e2)" d="M 132.424903 251.220611 
L 131.654744 250.115666 
L 130.345945 248.846823 
L 129.110736 248.25415 
L 127.383434 247.760334 
L 125.985596 247.82504 
L 124.262695 248.227153 
L 123.044468 248.933396 
L 121.747794 250.132988 
L 121.007443 251.307855 
L 120.454466 253.011223 
L 120.373254 254.367065 
L 120.699364 256.157166 
L 121.297175 257.362026 
L 122.422527 258.800581 
L 123.552996 259.559467 
L 125.202066 260.294267 
L 126.588414 260.421377 
L 128.357452 260.272517 
L 129.660253 259.736731 
L 131.116136 258.740658 
L 132.016419 257.673154 
L 132.802697 256.073742 
L 133.111305 254.300511 
L 132.994759 252.953823 
L 132.994759 252.953823 
L 132.994759 252.953823 
L 132.994759 252.953823 
L 132.994759 252.953823 
L 132.994759 252.953823 
L 132.994759 252.953823 
L 132.994759 252.953823 
L 132.994759 252.953823 
L 132.994759 252.953823 
L 132.994759 252.953823 
L 132.994759 252.953823 
L 132.994759 252.953823 
L 132.994759 252.953823 
L 132.994759 252.953823 
L 132.994759 252.953823 
L 132.994759 252.953823 
L 132.994759 252.953823 
L 132.994759 252.953823 
L 132.994759 252.953823 
L 132.994759 252.953823 
L 132.994759 252.953823 
L 132.994759 252.953823 
L 132.994759 252.953823 
L 132.994759 252.953823 
L 132.994759 252.953823 
L 132.994759 252.953823 
L 132.994759 252.953823 
L 132.994759 252.953823 
L 132.994759 252.953823 
L 132.994759 252.953823 
L 132.994759 252.953823 
L 132.994759 252.953823 
L 132.994759 252.953823 
L 132.994759 252.953823 
L 132.994759 252.953823 
L 132.994759 252.953823 
L 132.994759 252.953823 
L 132.994759 252.953823 
L 132.994759 252.953823 
L 132.994759 252.953823 
L 132.994759 252.953823 
L 132.994759 252.953823 
L 132.994759 252.953823 
L 132.994759 252.953823 
L 132.994759 252.953823 
L 132.994759 252.953823 
L 132.994759 252.953823 
L 132.994759 252.953823 
L 132.994759 252.953823 
L 132.994759 252.953823 
L 132.994759 252.953823 
L 132.994759 252.953823 
L 132.994759 252.953823 
L 132.994759 252.953823 
L 132.994759 252.953823 
L 132.994759 252.953823 
L 132.994759 252.953823 
L 132.994759 252.953823 
L 132.994759 252.953823 
L 132.994759 252.953823 
L 132.994759 252.953823 
L 132.994759 252.953823 
L 132.994759 252.953823 
L 132.994759 252.953823 
L 132.994759 252.953823 
L 132.994759 252.953823 
L 132.994759 252.953823 
L 132.994759 252.953823 
L 132.994759 252.953823 
L 132.994759 252.953823 
L 132.994759 252.953823 
L 132.994759 252.953823 
L 132.994759 252.953823 
L 132.994759 252.953823 
L 132.994759 252.953823 
L 132.994759 252.953823 
L 132.994759 252.953823 
L 132.994759 252.953823 
L 132.994759 252.953823 
L 132.994759 252.953823 
L 132.994759 252.953823 
L 132.994759 252.953823 
L 132.994759 252.953823 
L 132.994759 252.953823 
L 132.994759 252.953823 
L 132.994759 252.953823 
L 132.994759 252.953823 
L 132.994759 252.953823 
L 132.994759 252.953823 
L 132.994759 252.953823 
L 132.994759 252.953823 
L 132.994759 252.953823 
L 132.994759 252.953823 
L 132.994759 252.953823 
L 132.994759 252.953823 
L 132.994759 252.953823 
L 132.994759 252.953823 
L 132.994759 252.953823 
L 132.994759 252.953823 
L 132.994759 252.953823 
L 132.994759 252.953823 
L 132.994759 252.953823 
L 132.994759 252.953823 
L 132.994759 252.953823 
L 132.994759 252.953823 
L 132.994759 252.953823 
L 132.994759 252.953823 
L 132.994759 252.953823 
L 132.994759 252.953823 
L 132.994759 252.953823 
L 132.994759 252.953823 
L 132.994759 252.953823 
L 132.994759 252.953823 
L 132.994759 252.953823 
L 132.994759 252.953823 
L 132.994759 252.953823 
L 132.994759 252.953823 
L 132.994759 252.953823 
L 132.994759 252.953823 
L 132.994759 252.953823 
L 132.994759 252.953823 
L 132.994759 252.953823 
L 132.994759 252.953823 
L 132.994759 252.953823 
L 132.994759 252.953823 
L 132.994759 252.953823 
L 132.994759 252.953823 
L 132.994759 252.953823 
L 132.994759 252.953823 
L 132.994759 252.953823 
L 132.994759 252.953823 
L 132.994759 252.953823 
L 132.994759 252.953823 
L 132.994759 252.953823 
L 132.994759 252.953823 
L 132.994759 252.953823 
L 132.994759 252.953823 
L 132.994759 252.953823 
L 132.994759 252.953823 
L 132.994759 252.953823 
L 132.994759 252.953823 
L 132.994759 252.953823 
L 132.994759 252.953823 
L 132.994759 252.953823 
z
" style="fill:#993333;stroke:#000000;stroke-linejoin:miter;"/>
   </g>
   <g id="patch_3">
    <path clip-path="url(#p91c62140e2)" d="M 126.540261 254.711198 
L 187.195527 274.402156 
L 187.58819 273.192611 
L 126.932924 253.501654 
L 126.932924 253.501654 
L 126.932924 253.501654 
L 126.932924 253.501654 
L 126.932924 253.501654 
L 126.932924 253.501654 
L 126.932924 253.501654 
L 126.932924 253.501654 
L 126.932924 253.501654 
L 126.932924 253.501654 
L 126.932924 253.501654 
L 126.932924 253.501654 
L 126.932924 253.501654 
L 126.932924 253.501654 
L 126.932924 253.501654 
L 126.932924 253.501654 
L 126.932924 253.501654 
L 126.932924 253.501654 
L 126.932924 253.501654 
L 126.932924 253.501654 
L 126.932924 253.501654 
L 126.932924 253.501654 
L 126.932924 253.501654 
L 126.932924 253.501654 
L 126.932924 253.501654 
L 126.932924 253.501654 
L 126.932924 253.501654 
L 126.932924 253.501654 
L 126.932924 253.501654 
L 126.932924 253.501654 
L 126.932924 253.501654 
L 126.932924 253.501654 
L 126.932924 253.501654 
L 126.932924 253.501654 
L 126.932924 253.501654 
L 126.932924 253.501654 
L 126.932924 253.501654 
L 126.932924 253.501654 
L 126.932924 253.501654 
L 126.932924 253.501654 
L 126.932924 253.501654 
L 126.932924 253.501654 
L 126.932924 253.501654 
L 126.932924 253.501654 
L 126.932924 253.501654 
L 126.932924 253.501654 
L 126.932924 253.501654 
L 126.932924 253.501654 
L 126.932924 253.501654 
z
" style="stroke:#000000;stroke-linejoin:miter;"/>
   </g>
   <g id="patch_4">
    <path clip-path="url(#p91c62140e2)" d="M 181.094953 272.790788 
L 181.050847 274.198236 
L 181.384141 275.93297 
L 181.990403 277.182321 
L 183.144369 278.551849 
L 184.252565 279.337219 
L 185.944672 280.006234 
L 187.283477 280.135336 
L 189.099439 279.94004 
L 190.341067 279.381266 
L 191.836272 278.369473 
L 192.676728 277.259631 
L 193.485099 275.679064 
L 193.718611 274.289881 
L 193.64223 272.527517 
L 193.211626 271.199114 
L 192.269193 269.686443 
L 190.92679 268.487468 
L 189.721872 267.874832 
L 187.949268 267.442817 
L 186.604224 267.512833 
L 184.835414 267.95355 
L 183.679557 268.689075 
L 182.347609 269.894621 
L 181.663933 271.115573 
L 181.663933 271.115573 
L 181.663933 271.115573 
L 181.663933 271.115573 
L 181.663933 271.115573 
L 181.663933 271.115573 
L 181.663933 271.115573 
L 181.663933 271.115573 
L 181.663933 271.115573 
L 181.663933 271.115573 
L 181.663933 271.115573 
L 181.663933 271.115573 
L 181.663933 271.115573 
L 181.663933 271.115573 
L 181.663933 271.115573 
L 181.663933 271.115573 
L 181.663933 271.115573 
L 181.663933 271.115573 
L 181.663933 271.115573 
L 181.663933 271.115573 
L 181.663933 271.115573 
L 181.663933 271.115573 
L 181.663933 271.115573 
L 181.663933 271.115573 
L 181.663933 271.115573 
L 181.663933 271.115573 
L 181.663933 271.115573 
L 181.663933 271.115573 
L 181.663933 271.115573 
L 181.663933 271.115573 
L 181.663933 271.115573 
L 181.663933 271.115573 
L 181.663933 271.115573 
L 181.663933 271.115573 
L 181.663933 271.115573 
L 181.663933 271.115573 
L 181.663933 271.115573 
L 181.663933 271.115573 
L 181.663933 271.115573 
L 181.663933 271.115573 
L 181.663933 271.115573 
L 181.663933 271.115573 
L 181.663933 271.115573 
L 181.663933 271.115573 
L 181.663933 271.115573 
L 181.663933 271.115573 
L 181.663933 271.115573 
L 181.663933 271.115573 
L 181.663933 271.115573 
L 181.663933 271.115573 
L 181.663933 271.115573 
L 181.663933 271.115573 
L 181.663933 271.115573 
L 181.663933 271.115573 
L 181.663933 271.115573 
L 181.663933 271.115573 
L 181.663933 271.115573 
L 181.663933 271.115573 
L 181.663933 271.115573 
L 181.663933 271.115573 
L 181.663933 271.115573 
L 181.663933 271.115573 
L 181.663933 271.115573 
L 181.663933 271.115573 
L 181.663933 271.115573 
L 181.663933 271.115573 
L 181.663933 271.115573 
L 181.663933 271.115573 
L 181.663933 271.115573 
L 181.663933 271.115573 
L 181.663933 271.115573 
L 181.663933 271.115573 
L 181.663933 271.115573 
L 181.663933 271.115573 
L 181.663933 271.115573 
L 181.663933 271.115573 
L 181.663933 271.115573 
L 181.663933 271.115573 
L 181.663933 271.115573 
L 181.663933 271.115573 
L 181.663933 271.115573 
L 181.663933 271.115573 
L 181.663933 271.115573 
L 181.663933 271.115573 
L 181.663933 271.115573 
L 181.663933 271.115573 
L 181.663933 271.115573 
L 181.663933 271.115573 
L 181.663933 271.115573 
L 181.663933 271.115573 
L 181.663933 271.115573 
L 181.663933 271.115573 
L 181.663933 271.115573 
L 181.663933 271.115573 
L 181.663933 271.115573 
L 181.663933 271.115573 
L 181.663933 271.115573 
L 181.663933 271.115573 
L 181.663933 271.115573 
L 181.663933 271.115573 
L 181.663933 271.115573 
L 181.663933 271.115573 
L 181.663933 271.115573 
L 181.663933 271.115573 
L 181.663933 271.115573 
L 181.663933 271.115573 
L 181.663933 271.115573 
L 181.663933 271.115573 
L 181.663933 271.115573 
L 181.663933 271.115573 
L 181.663933 271.115573 
L 181.663933 271.115573 
L 181.663933 271.115573 
L 181.663933 271.115573 
L 181.663933 271.115573 
L 181.663933 271.115573 
L 181.663933 271.115573 
L 181.663933 271.115573 
L 181.663933 271.115573 
L 181.663933 271.115573 
L 181.663933 271.115573 
L 181.663933 271.115573 
L 181.663933 271.115573 
L 181.663933 271.115573 
L 181.663933 271.115573 
L 181.663933 271.115573 
L 181.663933 271.115573 
L 181.663933 271.115573 
L 181.663933 271.115573 
L 181.663933 271.115573 
L 181.663933 271.115573 
L 181.663933 271.115573 
L 181.663933 271.115573 
L 181.663933 271.115573 
L 181.663933 271.115573 
L 181.663933 271.115573 
L 181.663933 271.115573 
L 181.663933 271.115573 
L 181.663933 271.115573 
L 181.663933 271.115573 
L 181.663933 271.115573 
L 181.663933 271.115573 
L 181.663933 271.115573 
L 181.663933 271.115573 
L 181.663933 271.115573 
z
" style="fill:#993333;stroke:#000000;stroke-linejoin:miter;"/>
   </g>
   <g id="patch_5">
    <path clip-path="url(#p91c62140e2)" d="M 235.751496 232.219187 
L 186.983933 273.310791 
L 187.803353 274.283279 
L 236.570916 233.191676 
L 236.570916 233.191676 
L 236.570916 233.191676 
L 236.570916 233.191676 
L 236.570916 233.191676 
L 236.570916 233.191676 
L 236.570916 233.191676 
L 236.570916 233.191676 
L 236.570916 233.191676 
L 236.570916 233.191676 
L 236.570916 233.191676 
L 236.570916 233.191676 
L 236.570916 233.191676 
L 236.570916 233.191676 
L 236.570916 233.191676 
L 236.570916 233.191676 
L 236.570916 233.191676 
L 236.570916 233.191676 
L 236.570916 233.191676 
L 236.570916 233.191676 
L 236.570916 233.191676 
L 236.570916 233.191676 
L 236.570916 233.191676 
L 236.570916 233.191676 
L 236.570916 233.191676 
L 236.570916 233.191676 
L 236.570916 233.191676 
L 236.570916 233.191676 
L 236.570916 233.191676 
L 236.570916 233.191676 
L 236.570916 233.191676 
L 236.570916 233.191676 
L 236.570916 233.191676 
L 236.570916 233.191676 
L 236.570916 233.191676 
L 236.570916 233.191676 
L 236.570916 233.191676 
L 236.570916 233.191676 
L 236.570916 233.191676 
L 236.570916 233.191676 
L 236.570916 233.191676 
L 236.570916 233.191676 
L 236.570916 233.191676 
L 236.570916 233.191676 
L 236.570916 233.191676 
L 236.570916 233.191676 
L 236.570916 233.191676 
L 236.570916 233.191676 
L 236.570916 233.191676 
z
" style="stroke:#000000;stroke-linejoin:miter;"/>
   </g>
   <g id="text_1">
    <!-- t = 0.2 -->
    <defs>
     <path d="M 18.3125 70.21875 
L 18.3125 54.6875 
L 36.8125 54.6875 
L 36.8125 47.703125 
L 18.3125 47.703125 
L 18.3125 18.015625 
Q 18.3125 11.328125 20.140625 9.421875 
Q 21.96875 7.515625 27.59375 7.515625 
L 36.8125 7.515625 
L 36.8125 0 
L 27.59375 0 
Q 17.1875 0 13.234375 3.875 
Q 9.28125 7.765625 9.28125 18.015625 
L 9.28125 47.703125 
L 2.6875 47.703125 
L 2.6875 54.6875 
L 9.28125 54.6875 
L 9.28125 70.21875 
z
" id="DejaVuSans-116"/>
     <path id="DejaVuSans-32"/>
     <path d="M 10.59375 45.40625 
L 73.1875 45.40625 
L 73.1875 37.203125 
L 10.59375 37.203125 
z
M 10.59375 25.484375 
L 73.1875 25.484375 
L 73.1875 17.1875 
L 10.59375 17.1875 
z
" id="DejaVuSans-61"/>
     <path d="M 31.78125 66.40625 
Q 24.171875 66.40625 20.328125 58.90625 
Q 16.5 51.421875 16.5 36.375 
Q 16.5 21.390625 20.328125 13.890625 
Q 24.171875 6.390625 31.78125 6.390625 
Q 39.453125 6.390625 43.28125 13.890625 
Q 47.125 21.390625 47.125 36.375 
Q 47.125 51.421875 43.28125 58.90625 
Q 39.453125 66.40625 31.78125 66.40625 
z
M 31.78125 74.21875 
Q 44.046875 74.21875 50.515625 64.515625 
Q 56.984375 54.828125 56.984375 36.375 
Q 56.984375 17.96875 50.515625 8.265625 
Q 44.046875 -1.421875 31.78125 -1.421875 
Q 19.53125 -1.421875 13.0625 8.265625 
Q 6.59375 17.96875 6.59375 36.375 
Q 6.59375 54.828125 13.0625 64.515625 
Q 19.53125 74.21875 31.78125 74.21875 
z
" id="DejaVuSans-48"/>
     <path d="M 10.6875 12.40625 
L 21 12.40625 
L 21 0 
L 10.6875 0 
z
" id="DejaVuSans-46"/>
     <path d="M 19.1875 8.296875 
L 53.609375 8.296875 
L 53.609375 0 
L 7.328125 0 
L 7.328125 8.296875 
Q 12.9375 14.109375 22.625 23.890625 
Q 32.328125 33.6875 34.8125 36.53125 
Q 39.546875 41.84375 41.421875 45.53125 
Q 43.3125 49.21875 43.3125 52.78125 
Q 43.3125 58.59375 39.234375 62.25 
Q 35.15625 65.921875 28.609375 65.921875 
Q 23.96875 65.921875 18.8125 64.3125 
Q 13.671875 62.703125 7.8125 59.421875 
L 7.8125 69.390625 
Q 13.765625 71.78125 18.9375 73 
Q 24.125 74.21875 28.421875 74.21875 
Q 39.75 74.21875 46.484375 68.546875 
Q 53.21875 62.890625 53.21875 53.421875 
Q 53.21875 48.921875 51.53125 44.890625 
Q 49.859375 40.875 45.40625 35.40625 
Q 44.1875 33.984375 37.640625 27.21875 
Q 31.109375 20.453125 19.1875 8.296875 
z
" id="DejaVuSans-50"/>
    </defs>
    <g transform="translate(215.424375 49.296)scale(0.12 -0.12)">
     <use xlink:href="#DejaVuSans-116"/>
     <use x="39.208984" xlink:href="#DejaVuSans-32"/>
     <use x="70.996094" xlink:href="#DejaVuSans-61"/>
     <use x="154.785156" xlink:href="#DejaVuSans-32"/>
     <use x="186.572266" xlink:href="#DejaVuSans-48"/>
     <use x="250.195312" xlink:href="#DejaVuSans-46"/>
     <use x="281.982422" xlink:href="#DejaVuSans-50"/>
    </g>
   </g>
  </g>
 </g>
 <defs>
  <clipPath id="p91c62140e2">
   <rect height="354.816" width="357.12" x="57.6" y="55.296"/>
  </clipPath>
 </defs>
</svg>
