<?xml version="1.0" encoding="utf-8" standalone="no"?>
<!DOCTYPE svg PUBLIC "-//W3C//DTD SVG 1.1//EN"
  "http://www.w3.org/Graphics/SVG/1.1/DTD/svg11.dtd">
<!-- Created with matplotlib (https://matplotlib.org/) -->
<svg height="460.8pt" version="1.1" viewBox="0 0 460.8 460.8" width="460.8pt" xmlns="http://www.w3.org/2000/svg" xmlns:xlink="http://www.w3.org/1999/xlink">
 <defs>
  <style type="text/css">
*{stroke-linecap:butt;stroke-linejoin:round;}
  </style>
 </defs>
 <g id="figure_1">
  <g id="patch_1">
   <path d="M 0 460.8 
L 460.8 460.8 
L 460.8 0 
L 0 0 
z
" style="fill:#ffffff;"/>
  </g>
  <g id="axes_1">
   <g id="patch_2">
    <path clip-path="url(#pa3ff424d03)" d="M 125.808761 289.548032 
L 123.9881 289.638071 
L 122.711741 290.135978 
L 121.17165 291.060936 
L 120.264593 292.12648 
L 119.382141 293.659896 
L 119.066465 295.032194 
L 119.057707 296.798634 
L 119.4107 298.1417 
L 120.277781 299.708678 
L 121.213018 300.693683 
L 122.743645 301.677547 
L 124.032148 302.063327 
L 125.851571 302.223194 
L 127.177869 301.915297 
L 128.840629 301.212025 
L 129.879999 300.285834 
L 130.978995 298.89161 
L 131.476962 297.57389 
L 131.743121 295.830067 
L 131.577766 294.443441 
L 130.945923 292.776969 
L 129.860958 291.34085 
L 128.797396 290.506592 
L 127.141924 289.739667 
L 127.141924 289.739667 
L 127.141924 289.739667 
L 127.141924 289.739667 
L 127.141924 289.739667 
L 127.141924 289.739667 
L 127.141924 289.739667 
L 127.141924 289.739667 
L 127.141924 289.739667 
L 127.141924 289.739667 
L 127.141924 289.739667 
L 127.141924 289.739667 
L 127.141924 289.739667 
L 127.141924 289.739667 
L 127.141924 289.739667 
L 127.141924 289.739667 
L 127.141924 289.739667 
L 127.141924 289.739667 
L 127.141924 289.739667 
L 127.141924 289.739667 
L 127.141924 289.739667 
L 127.141924 289.739667 
L 127.141924 289.739667 
L 127.141924 289.739667 
L 127.141924 289.739667 
L 127.141924 289.739667 
L 127.141924 289.739667 
L 127.141924 289.739667 
L 127.141924 289.739667 
L 127.141924 289.739667 
L 127.141924 289.739667 
L 127.141924 289.739667 
L 127.141924 289.739667 
L 127.141924 289.739667 
L 127.141924 289.739667 
L 127.141924 289.739667 
L 127.141924 289.739667 
L 127.141924 289.739667 
L 127.141924 289.739667 
L 127.141924 289.739667 
L 127.141924 289.739667 
L 127.141924 289.739667 
L 127.141924 289.739667 
L 127.141924 289.739667 
L 127.141924 289.739667 
L 127.141924 289.739667 
L 127.141924 289.739667 
L 127.141924 289.739667 
L 127.141924 289.739667 
L 127.141924 289.739667 
L 127.141924 289.739667 
L 127.141924 289.739667 
L 127.141924 289.739667 
L 127.141924 289.739667 
L 127.141924 289.739667 
L 127.141924 289.739667 
L 127.141924 289.739667 
L 127.141924 289.739667 
L 127.141924 289.739667 
L 127.141924 289.739667 
L 127.141924 289.739667 
L 127.141924 289.739667 
L 127.141924 289.739667 
L 127.141924 289.739667 
L 127.141924 289.739667 
L 127.141924 289.739667 
L 127.141924 289.739667 
L 127.141924 289.739667 
L 127.141924 289.739667 
L 127.141924 289.739667 
L 127.141924 289.739667 
L 127.141924 289.739667 
L 127.141924 289.739667 
L 127.141924 289.739667 
L 127.141924 289.739667 
L 127.141924 289.739667 
L 127.141924 289.739667 
L 127.141924 289.739667 
L 127.141924 289.739667 
L 127.141924 289.739667 
L 127.141924 289.739667 
L 127.141924 289.739667 
L 127.141924 289.739667 
L 127.141924 289.739667 
L 127.141924 289.739667 
L 127.141924 289.739667 
L 127.141924 289.739667 
L 127.141924 289.739667 
L 127.141924 289.739667 
L 127.141924 289.739667 
L 127.141924 289.739667 
L 127.141924 289.739667 
L 127.141924 289.739667 
L 127.141924 289.739667 
L 127.141924 289.739667 
L 127.141924 289.739667 
L 127.141924 289.739667 
L 127.141924 289.739667 
L 127.141924 289.739667 
L 127.141924 289.739667 
L 127.141924 289.739667 
L 127.141924 289.739667 
L 127.141924 289.739667 
L 127.141924 289.739667 
L 127.141924 289.739667 
L 127.141924 289.739667 
L 127.141924 289.739667 
L 127.141924 289.739667 
L 127.141924 289.739667 
L 127.141924 289.739667 
L 127.141924 289.739667 
L 127.141924 289.739667 
L 127.141924 289.739667 
L 127.141924 289.739667 
L 127.141924 289.739667 
L 127.141924 289.739667 
L 127.141924 289.739667 
L 127.141924 289.739667 
L 127.141924 289.739667 
L 127.141924 289.739667 
L 127.141924 289.739667 
L 127.141924 289.739667 
L 127.141924 289.739667 
L 127.141924 289.739667 
L 127.141924 289.739667 
L 127.141924 289.739667 
L 127.141924 289.739667 
L 127.141924 289.739667 
L 127.141924 289.739667 
L 127.141924 289.739667 
L 127.141924 289.739667 
L 127.141924 289.739667 
L 127.141924 289.739667 
L 127.141924 289.739667 
L 127.141924 289.739667 
L 127.141924 289.739667 
L 127.141924 289.739667 
L 127.141924 289.739667 
L 127.141924 289.739667 
L 127.141924 289.739667 
L 127.141924 289.739667 
L 127.141924 289.739667 
L 127.141924 289.739667 
L 127.141924 289.739667 
L 127.141924 289.739667 
z
" style="fill:#993333;stroke:#000000;stroke-linejoin:miter;"/>
   </g>
   <g id="patch_3">
    <path clip-path="url(#pa3ff424d03)" d="M 180.857639 264.433954 
L 125.059125 295.309849 
L 125.67483 296.422544 
L 181.473345 265.546649 
L 181.473345 265.546649 
L 181.473345 265.546649 
L 181.473345 265.546649 
L 181.473345 265.546649 
L 181.473345 265.546649 
L 181.473345 265.546649 
L 181.473345 265.546649 
L 181.473345 265.546649 
L 181.473345 265.546649 
L 181.473345 265.546649 
L 181.473345 265.546649 
L 181.473345 265.546649 
L 181.473345 265.546649 
L 181.473345 265.546649 
L 181.473345 265.546649 
L 181.473345 265.546649 
L 181.473345 265.546649 
L 181.473345 265.546649 
L 181.473345 265.546649 
L 181.473345 265.546649 
L 181.473345 265.546649 
L 181.473345 265.546649 
L 181.473345 265.546649 
L 181.473345 265.546649 
L 181.473345 265.546649 
L 181.473345 265.546649 
L 181.473345 265.546649 
L 181.473345 265.546649 
L 181.473345 265.546649 
L 181.473345 265.546649 
L 181.473345 265.546649 
L 181.473345 265.546649 
L 181.473345 265.546649 
L 181.473345 265.546649 
L 181.473345 265.546649 
L 181.473345 265.546649 
L 181.473345 265.546649 
L 181.473345 265.546649 
L 181.473345 265.546649 
L 181.473345 265.546649 
L 181.473345 265.546649 
L 181.473345 265.546649 
L 181.473345 265.546649 
L 181.473345 265.546649 
L 181.473345 265.546649 
L 181.473345 265.546649 
L 181.473345 265.546649 
L 181.473345 265.546649 
z
" style="stroke:#000000;stroke-linejoin:miter;"/>
   </g>
   <g id="patch_4">
    <path clip-path="url(#pa3ff424d03)" d="M 174.845852 264.316744 
L 174.882011 266.082836 
L 175.269039 267.416493 
L 176.175682 268.960916 
L 177.135662 269.921823 
L 178.69081 270.866451 
L 179.988705 271.219345 
L 181.811605 271.332899 
L 183.129646 270.991378 
L 184.773987 270.246056 
L 185.789471 269.293738 
L 186.852661 267.87202 
L 187.316963 266.542065 
L 187.538697 264.792038 
L 187.338138 263.410065 
L 186.664127 261.760197 
L 185.542998 260.352129 
L 184.458568 259.545183 
L 182.784131 258.820599 
L 181.446527 258.662923 
L 179.628743 258.799226 
L 178.365457 259.329425 
L 176.849382 260.293243 
L 175.969711 261.381505 
L 175.126534 262.936863 
L 175.126534 262.936863 
L 175.126534 262.936863 
L 175.126534 262.936863 
L 175.126534 262.936863 
L 175.126534 262.936863 
L 175.126534 262.936863 
L 175.126534 262.936863 
L 175.126534 262.936863 
L 175.126534 262.936863 
L 175.126534 262.936863 
L 175.126534 262.936863 
L 175.126534 262.936863 
L 175.126534 262.936863 
L 175.126534 262.936863 
L 175.126534 262.936863 
L 175.126534 262.936863 
L 175.126534 262.936863 
L 175.126534 262.936863 
L 175.126534 262.936863 
L 175.126534 262.936863 
L 175.126534 262.936863 
L 175.126534 262.936863 
L 175.126534 262.936863 
L 175.126534 262.936863 
L 175.126534 262.936863 
L 175.126534 262.936863 
L 175.126534 262.936863 
L 175.126534 262.936863 
L 175.126534 262.936863 
L 175.126534 262.936863 
L 175.126534 262.936863 
L 175.126534 262.936863 
L 175.126534 262.936863 
L 175.126534 262.936863 
L 175.126534 262.936863 
L 175.126534 262.936863 
L 175.126534 262.936863 
L 175.126534 262.936863 
L 175.126534 262.936863 
L 175.126534 262.936863 
L 175.126534 262.936863 
L 175.126534 262.936863 
L 175.126534 262.936863 
L 175.126534 262.936863 
L 175.126534 262.936863 
L 175.126534 262.936863 
L 175.126534 262.936863 
L 175.126534 262.936863 
L 175.126534 262.936863 
L 175.126534 262.936863 
L 175.126534 262.936863 
L 175.126534 262.936863 
L 175.126534 262.936863 
L 175.126534 262.936863 
L 175.126534 262.936863 
L 175.126534 262.936863 
L 175.126534 262.936863 
L 175.126534 262.936863 
L 175.126534 262.936863 
L 175.126534 262.936863 
L 175.126534 262.936863 
L 175.126534 262.936863 
L 175.126534 262.936863 
L 175.126534 262.936863 
L 175.126534 262.936863 
L 175.126534 262.936863 
L 175.126534 262.936863 
L 175.126534 262.936863 
L 175.126534 262.936863 
L 175.126534 262.936863 
L 175.126534 262.936863 
L 175.126534 262.936863 
L 175.126534 262.936863 
L 175.126534 262.936863 
L 175.126534 262.936863 
L 175.126534 262.936863 
L 175.126534 262.936863 
L 175.126534 262.936863 
L 175.126534 262.936863 
L 175.126534 262.936863 
L 175.126534 262.936863 
L 175.126534 262.936863 
L 175.126534 262.936863 
L 175.126534 262.936863 
L 175.126534 262.936863 
L 175.126534 262.936863 
L 175.126534 262.936863 
L 175.126534 262.936863 
L 175.126534 262.936863 
L 175.126534 262.936863 
L 175.126534 262.936863 
L 175.126534 262.936863 
L 175.126534 262.936863 
L 175.126534 262.936863 
L 175.126534 262.936863 
L 175.126534 262.936863 
L 175.126534 262.936863 
L 175.126534 262.936863 
L 175.126534 262.936863 
L 175.126534 262.936863 
L 175.126534 262.936863 
L 175.126534 262.936863 
L 175.126534 262.936863 
L 175.126534 262.936863 
L 175.126534 262.936863 
L 175.126534 262.936863 
L 175.126534 262.936863 
L 175.126534 262.936863 
L 175.126534 262.936863 
L 175.126534 262.936863 
L 175.126534 262.936863 
L 175.126534 262.936863 
L 175.126534 262.936863 
L 175.126534 262.936863 
L 175.126534 262.936863 
L 175.126534 262.936863 
L 175.126534 262.936863 
L 175.126534 262.936863 
L 175.126534 262.936863 
L 175.126534 262.936863 
L 175.126534 262.936863 
L 175.126534 262.936863 
L 175.126534 262.936863 
L 175.126534 262.936863 
L 175.126534 262.936863 
L 175.126534 262.936863 
L 175.126534 262.936863 
L 175.126534 262.936863 
L 175.126534 262.936863 
L 175.126534 262.936863 
L 175.126534 262.936863 
L 175.126534 262.936863 
L 175.126534 262.936863 
L 175.126534 262.936863 
L 175.126534 262.936863 
L 175.126534 262.936863 
L 175.126534 262.936863 
L 175.126534 262.936863 
L 175.126534 262.936863 
L 175.126534 262.936863 
L 175.126534 262.936863 
L 175.126534 262.936863 
L 175.126534 262.936863 
L 175.126534 262.936863 
z
" style="fill:#993333;stroke:#000000;stroke-linejoin:miter;"/>
   </g>
   <g id="patch_5">
    <path clip-path="url(#pa3ff424d03)" d="M 180.843634 264.441938 
L 181.487432 265.538618 
L 236.482847 233.253954 
L 235.839049 232.157274 
L 235.839049 232.157274 
L 235.839049 232.157274 
L 235.839049 232.157274 
L 235.839049 232.157274 
L 235.839049 232.157274 
L 235.839049 232.157274 
L 235.839049 232.157274 
L 235.839049 232.157274 
L 235.839049 232.157274 
L 235.839049 232.157274 
L 235.839049 232.157274 
L 235.839049 232.157274 
L 235.839049 232.157274 
L 235.839049 232.157274 
L 235.839049 232.157274 
L 235.839049 232.157274 
L 235.839049 232.157274 
L 235.839049 232.157274 
L 235.839049 232.157274 
L 235.839049 232.157274 
L 235.839049 232.157274 
L 235.839049 232.157274 
L 235.839049 232.157274 
L 235.839049 232.157274 
L 235.839049 232.157274 
L 235.839049 232.157274 
L 235.839049 232.157274 
L 235.839049 232.157274 
L 235.839049 232.157274 
L 235.839049 232.157274 
L 235.839049 232.157274 
L 235.839049 232.157274 
L 235.839049 232.157274 
L 235.839049 232.157274 
L 235.839049 232.157274 
L 235.839049 232.157274 
L 235.839049 232.157274 
L 235.839049 232.157274 
L 235.839049 232.157274 
L 235.839049 232.157274 
L 235.839049 232.157274 
L 235.839049 232.157274 
L 235.839049 232.157274 
L 235.839049 232.157274 
L 235.839049 232.157274 
L 235.839049 232.157274 
L 235.839049 232.157274 
L 235.839049 232.157274 
z
" style="stroke:#000000;stroke-linejoin:miter;"/>
   </g>
   <g id="text_1">
    <!-- t = 5.5 -->
    <defs>
     <path d="M 18.3125 70.21875 
L 18.3125 54.6875 
L 36.8125 54.6875 
L 36.8125 47.703125 
L 18.3125 47.703125 
L 18.3125 18.015625 
Q 18.3125 11.328125 20.140625 9.421875 
Q 21.96875 7.515625 27.59375 7.515625 
L 36.8125 7.515625 
L 36.8125 0 
L 27.59375 0 
Q 17.1875 0 13.234375 3.875 
Q 9.28125 7.765625 9.28125 18.015625 
L 9.28125 47.703125 
L 2.6875 47.703125 
L 2.6875 54.6875 
L 9.28125 54.6875 
L 9.28125 70.21875 
z
" id="DejaVuSans-116"/>
     <path id="DejaVuSans-32"/>
     <path d="M 10.59375 45.40625 
L 73.1875 45.40625 
L 73.1875 37.203125 
L 10.59375 37.203125 
z
M 10.59375 25.484375 
L 73.1875 25.484375 
L 73.1875 17.1875 
L 10.59375 17.1875 
z
" id="DejaVuSans-61"/>
     <path d="M 10.796875 72.90625 
L 49.515625 72.90625 
L 49.515625 64.59375 
L 19.828125 64.59375 
L 19.828125 46.734375 
Q 21.96875 47.46875 24.109375 47.828125 
Q 26.265625 48.1875 28.421875 48.1875 
Q 40.625 48.1875 47.75 41.5 
Q 54.890625 34.8125 54.890625 23.390625 
Q 54.890625 11.625 47.5625 5.09375 
Q 40.234375 -1.421875 26.90625 -1.421875 
Q 22.3125 -1.421875 17.546875 -0.640625 
Q 12.796875 0.140625 7.71875 1.703125 
L 7.71875 11.625 
Q 12.109375 9.234375 16.796875 8.0625 
Q 21.484375 6.890625 26.703125 6.890625 
Q 35.15625 6.890625 40.078125 11.328125 
Q 45.015625 15.765625 45.015625 23.390625 
Q 45.015625 31 40.078125 35.4375 
Q 35.15625 39.890625 26.703125 39.890625 
Q 22.75 39.890625 18.8125 39.015625 
Q 14.890625 38.140625 10.796875 36.28125 
z
" id="DejaVuSans-53"/>
     <path d="M 10.6875 12.40625 
L 21 12.40625 
L 21 0 
L 10.6875 0 
z
" id="DejaVuSans-46"/>
    </defs>
    <g transform="translate(215.424375 49.296)scale(0.12 -0.12)">
     <use xlink:href="#DejaVuSans-116"/>
     <use x="39.208984" xlink:href="#DejaVuSans-32"/>
     <use x="70.996094" xlink:href="#DejaVuSans-61"/>
     <use x="154.785156" xlink:href="#DejaVuSans-32"/>
     <use x="186.572266" xlink:href="#DejaVuSans-53"/>
     <use x="250.195312" xlink:href="#DejaVuSans-46"/>
     <use x="281.982422" xlink:href="#DejaVuSans-53"/>
    </g>
   </g>
  </g>
 </g>
 <defs>
  <clipPath id="pa3ff424d03">
   <rect height="354.816" width="357.12" x="57.6" y="55.296"/>
  </clipPath>
 </defs>
</svg>
