<?xml version="1.0" encoding="utf-8" standalone="no"?>
<!DOCTYPE svg PUBLIC "-//W3C//DTD SVG 1.1//EN"
  "http://www.w3.org/Graphics/SVG/1.1/DTD/svg11.dtd">
<!-- Created with matplotlib (https://matplotlib.org/) -->
<svg height="460.8pt" version="1.1" viewBox="0 0 460.8 460.8" width="460.8pt" xmlns="http://www.w3.org/2000/svg" xmlns:xlink="http://www.w3.org/1999/xlink">
 <defs>
  <style type="text/css">
*{stroke-linecap:butt;stroke-linejoin:round;}
  </style>
 </defs>
 <g id="figure_1">
  <g id="patch_1">
   <path d="M 0 460.8 
L 460.8 460.8 
L 460.8 0 
L 0 0 
z
" style="fill:#ffffff;"/>
  </g>
  <g id="axes_1">
   <g id="patch_2">
    <path clip-path="url(#p2c3e2ef123)" d="M 286.330804 343.930163 
L 286.32361 345.27701 
L 286.66222 347.068172 
L 287.330285 348.264287 
L 288.457506 349.663144 
L 289.637265 350.415677 
L 291.277114 351.07974 
L 292.67972 351.204445 
L 294.430705 350.971128 
L 295.712751 350.437472 
L 297.14617 349.363901 
L 297.993767 348.302542 
L 298.758669 346.651562 
L 298.964296 345.322358 
L 298.873406 343.498188 
L 298.386717 342.226574 
L 297.462288 340.675834 
L 296.402443 339.773146 
L 294.870808 338.875511 
L 293.497293 338.562759 
L 291.733449 338.538001 
L 290.382549 338.891757 
L 288.818347 339.745938 
L 287.544401 341.017413 
L 286.863709 342.185236 
L 286.863709 342.185236 
L 286.863709 342.185236 
L 286.863709 342.185236 
L 286.863709 342.185236 
L 286.863709 342.185236 
L 286.863709 342.185236 
L 286.863709 342.185236 
L 286.863709 342.185236 
L 286.863709 342.185236 
L 286.863709 342.185236 
L 286.863709 342.185236 
L 286.863709 342.185236 
L 286.863709 342.185236 
L 286.863709 342.185236 
L 286.863709 342.185236 
L 286.863709 342.185236 
L 286.863709 342.185236 
L 286.863709 342.185236 
L 286.863709 342.185236 
L 286.863709 342.185236 
L 286.863709 342.185236 
L 286.863709 342.185236 
L 286.863709 342.185236 
L 286.863709 342.185236 
L 286.863709 342.185236 
L 286.863709 342.185236 
L 286.863709 342.185236 
L 286.863709 342.185236 
L 286.863709 342.185236 
L 286.863709 342.185236 
L 286.863709 342.185236 
L 286.863709 342.185236 
L 286.863709 342.185236 
L 286.863709 342.185236 
L 286.863709 342.185236 
L 286.863709 342.185236 
L 286.863709 342.185236 
L 286.863709 342.185236 
L 286.863709 342.185236 
L 286.863709 342.185236 
L 286.863709 342.185236 
L 286.863709 342.185236 
L 286.863709 342.185236 
L 286.863709 342.185236 
L 286.863709 342.185236 
L 286.863709 342.185236 
L 286.863709 342.185236 
L 286.863709 342.185236 
L 286.863709 342.185236 
L 286.863709 342.185236 
L 286.863709 342.185236 
L 286.863709 342.185236 
L 286.863709 342.185236 
L 286.863709 342.185236 
L 286.863709 342.185236 
L 286.863709 342.185236 
L 286.863709 342.185236 
L 286.863709 342.185236 
L 286.863709 342.185236 
L 286.863709 342.185236 
L 286.863709 342.185236 
L 286.863709 342.185236 
L 286.863709 342.185236 
L 286.863709 342.185236 
L 286.863709 342.185236 
L 286.863709 342.185236 
L 286.863709 342.185236 
L 286.863709 342.185236 
L 286.863709 342.185236 
L 286.863709 342.185236 
L 286.863709 342.185236 
L 286.863709 342.185236 
L 286.863709 342.185236 
L 286.863709 342.185236 
L 286.863709 342.185236 
L 286.863709 342.185236 
L 286.863709 342.185236 
L 286.863709 342.185236 
L 286.863709 342.185236 
L 286.863709 342.185236 
L 286.863709 342.185236 
L 286.863709 342.185236 
L 286.863709 342.185236 
L 286.863709 342.185236 
L 286.863709 342.185236 
L 286.863709 342.185236 
L 286.863709 342.185236 
L 286.863709 342.185236 
L 286.863709 342.185236 
L 286.863709 342.185236 
L 286.863709 342.185236 
L 286.863709 342.185236 
L 286.863709 342.185236 
L 286.863709 342.185236 
L 286.863709 342.185236 
L 286.863709 342.185236 
L 286.863709 342.185236 
L 286.863709 342.185236 
L 286.863709 342.185236 
L 286.863709 342.185236 
L 286.863709 342.185236 
L 286.863709 342.185236 
L 286.863709 342.185236 
L 286.863709 342.185236 
L 286.863709 342.185236 
L 286.863709 342.185236 
L 286.863709 342.185236 
L 286.863709 342.185236 
L 286.863709 342.185236 
L 286.863709 342.185236 
L 286.863709 342.185236 
L 286.863709 342.185236 
L 286.863709 342.185236 
L 286.863709 342.185236 
L 286.863709 342.185236 
L 286.863709 342.185236 
L 286.863709 342.185236 
L 286.863709 342.185236 
L 286.863709 342.185236 
L 286.863709 342.185236 
L 286.863709 342.185236 
L 286.863709 342.185236 
L 286.863709 342.185236 
L 286.863709 342.185236 
L 286.863709 342.185236 
L 286.863709 342.185236 
L 286.863709 342.185236 
L 286.863709 342.185236 
L 286.863709 342.185236 
L 286.863709 342.185236 
L 286.863709 342.185236 
L 286.863709 342.185236 
L 286.863709 342.185236 
L 286.863709 342.185236 
L 286.863709 342.185236 
L 286.863709 342.185236 
L 286.863709 342.185236 
L 286.863709 342.185236 
L 286.863709 342.185236 
L 286.863709 342.185236 
L 286.863709 342.185236 
L 286.863709 342.185236 
L 286.863709 342.185236 
L 286.863709 342.185236 
z
" style="fill:#993333;stroke:#000000;stroke-linejoin:miter;"/>
   </g>
   <g id="patch_3">
    <path clip-path="url(#p2c3e2ef123)" d="M 253.904965 294.187605 
L 292.1338 345.230247 
L 293.151657 344.467914 
L 254.922821 293.425273 
L 254.922821 293.425273 
L 254.922821 293.425273 
L 254.922821 293.425273 
L 254.922821 293.425273 
L 254.922821 293.425273 
L 254.922821 293.425273 
L 254.922821 293.425273 
L 254.922821 293.425273 
L 254.922821 293.425273 
L 254.922821 293.425273 
L 254.922821 293.425273 
L 254.922821 293.425273 
L 254.922821 293.425273 
L 254.922821 293.425273 
L 254.922821 293.425273 
L 254.922821 293.425273 
L 254.922821 293.425273 
L 254.922821 293.425273 
L 254.922821 293.425273 
L 254.922821 293.425273 
L 254.922821 293.425273 
L 254.922821 293.425273 
L 254.922821 293.425273 
L 254.922821 293.425273 
L 254.922821 293.425273 
L 254.922821 293.425273 
L 254.922821 293.425273 
L 254.922821 293.425273 
L 254.922821 293.425273 
L 254.922821 293.425273 
L 254.922821 293.425273 
L 254.922821 293.425273 
L 254.922821 293.425273 
L 254.922821 293.425273 
L 254.922821 293.425273 
L 254.922821 293.425273 
L 254.922821 293.425273 
L 254.922821 293.425273 
L 254.922821 293.425273 
L 254.922821 293.425273 
L 254.922821 293.425273 
L 254.922821 293.425273 
L 254.922821 293.425273 
L 254.922821 293.425273 
L 254.922821 293.425273 
L 254.922821 293.425273 
L 254.922821 293.425273 
L 254.922821 293.425273 
z
" style="stroke:#000000;stroke-linejoin:miter;"/>
   </g>
   <g id="patch_4">
    <path clip-path="url(#p2c3e2ef123)" d="M 249.910452 289.311528 
L 248.8078 290.765116 
L 248.335982 292.026637 
L 248.035275 293.824551 
L 248.249229 295.177779 
L 248.824091 296.879825 
L 249.671434 297.993443 
L 250.981118 299.182902 
L 252.254392 299.784257 
L 253.978242 300.169908 
L 255.365704 300.111768 
L 257.081662 299.59919 
L 258.243613 298.895789 
L 259.531552 297.610479 
L 260.183506 296.434034 
L 260.728094 294.690681 
L 260.71043 293.329228 
L 260.378332 291.554664 
L 259.695375 290.341533 
L 258.567901 288.970235 
L 257.386862 288.202444 
L 255.740057 287.570153 
L 254.350096 287.435682 
L 252.587155 287.697205 
L 250.952526 288.450579 
L 250.952526 288.450579 
L 250.952526 288.450579 
L 250.952526 288.450579 
L 250.952526 288.450579 
L 250.952526 288.450579 
L 250.952526 288.450579 
L 250.952526 288.450579 
L 250.952526 288.450579 
L 250.952526 288.450579 
L 250.952526 288.450579 
L 250.952526 288.450579 
L 250.952526 288.450579 
L 250.952526 288.450579 
L 250.952526 288.450579 
L 250.952526 288.450579 
L 250.952526 288.450579 
L 250.952526 288.450579 
L 250.952526 288.450579 
L 250.952526 288.450579 
L 250.952526 288.450579 
L 250.952526 288.450579 
L 250.952526 288.450579 
L 250.952526 288.450579 
L 250.952526 288.450579 
L 250.952526 288.450579 
L 250.952526 288.450579 
L 250.952526 288.450579 
L 250.952526 288.450579 
L 250.952526 288.450579 
L 250.952526 288.450579 
L 250.952526 288.450579 
L 250.952526 288.450579 
L 250.952526 288.450579 
L 250.952526 288.450579 
L 250.952526 288.450579 
L 250.952526 288.450579 
L 250.952526 288.450579 
L 250.952526 288.450579 
L 250.952526 288.450579 
L 250.952526 288.450579 
L 250.952526 288.450579 
L 250.952526 288.450579 
L 250.952526 288.450579 
L 250.952526 288.450579 
L 250.952526 288.450579 
L 250.952526 288.450579 
L 250.952526 288.450579 
L 250.952526 288.450579 
L 250.952526 288.450579 
L 250.952526 288.450579 
L 250.952526 288.450579 
L 250.952526 288.450579 
L 250.952526 288.450579 
L 250.952526 288.450579 
L 250.952526 288.450579 
L 250.952526 288.450579 
L 250.952526 288.450579 
L 250.952526 288.450579 
L 250.952526 288.450579 
L 250.952526 288.450579 
L 250.952526 288.450579 
L 250.952526 288.450579 
L 250.952526 288.450579 
L 250.952526 288.450579 
L 250.952526 288.450579 
L 250.952526 288.450579 
L 250.952526 288.450579 
L 250.952526 288.450579 
L 250.952526 288.450579 
L 250.952526 288.450579 
L 250.952526 288.450579 
L 250.952526 288.450579 
L 250.952526 288.450579 
L 250.952526 288.450579 
L 250.952526 288.450579 
L 250.952526 288.450579 
L 250.952526 288.450579 
L 250.952526 288.450579 
L 250.952526 288.450579 
L 250.952526 288.450579 
L 250.952526 288.450579 
L 250.952526 288.450579 
L 250.952526 288.450579 
L 250.952526 288.450579 
L 250.952526 288.450579 
L 250.952526 288.450579 
L 250.952526 288.450579 
L 250.952526 288.450579 
L 250.952526 288.450579 
L 250.952526 288.450579 
L 250.952526 288.450579 
L 250.952526 288.450579 
L 250.952526 288.450579 
L 250.952526 288.450579 
L 250.952526 288.450579 
L 250.952526 288.450579 
L 250.952526 288.450579 
L 250.952526 288.450579 
L 250.952526 288.450579 
L 250.952526 288.450579 
L 250.952526 288.450579 
L 250.952526 288.450579 
L 250.952526 288.450579 
L 250.952526 288.450579 
L 250.952526 288.450579 
L 250.952526 288.450579 
L 250.952526 288.450579 
L 250.952526 288.450579 
L 250.952526 288.450579 
L 250.952526 288.450579 
L 250.952526 288.450579 
L 250.952526 288.450579 
L 250.952526 288.450579 
L 250.952526 288.450579 
L 250.952526 288.450579 
L 250.952526 288.450579 
L 250.952526 288.450579 
L 250.952526 288.450579 
L 250.952526 288.450579 
L 250.952526 288.450579 
L 250.952526 288.450579 
L 250.952526 288.450579 
L 250.952526 288.450579 
L 250.952526 288.450579 
L 250.952526 288.450579 
L 250.952526 288.450579 
L 250.952526 288.450579 
L 250.952526 288.450579 
L 250.952526 288.450579 
L 250.952526 288.450579 
L 250.952526 288.450579 
L 250.952526 288.450579 
L 250.952526 288.450579 
L 250.952526 288.450579 
L 250.952526 288.450579 
L 250.952526 288.450579 
L 250.952526 288.450579 
L 250.952526 288.450579 
L 250.952526 288.450579 
L 250.952526 288.450579 
L 250.952526 288.450579 
L 250.952526 288.450579 
L 250.952526 288.450579 
L 250.952526 288.450579 
z
" style="fill:#993333;stroke:#000000;stroke-linejoin:miter;"/>
   </g>
   <g id="patch_5">
    <path clip-path="url(#p2c3e2ef123)" d="M 235.552551 232.885452 
L 253.804946 293.989014 
L 255.023431 293.625037 
L 236.771036 232.521476 
L 236.771036 232.521476 
L 236.771036 232.521476 
L 236.771036 232.521476 
L 236.771036 232.521476 
L 236.771036 232.521476 
L 236.771036 232.521476 
L 236.771036 232.521476 
L 236.771036 232.521476 
L 236.771036 232.521476 
L 236.771036 232.521476 
L 236.771036 232.521476 
L 236.771036 232.521476 
L 236.771036 232.521476 
L 236.771036 232.521476 
L 236.771036 232.521476 
L 236.771036 232.521476 
L 236.771036 232.521476 
L 236.771036 232.521476 
L 236.771036 232.521476 
L 236.771036 232.521476 
L 236.771036 232.521476 
L 236.771036 232.521476 
L 236.771036 232.521476 
L 236.771036 232.521476 
L 236.771036 232.521476 
L 236.771036 232.521476 
L 236.771036 232.521476 
L 236.771036 232.521476 
L 236.771036 232.521476 
L 236.771036 232.521476 
L 236.771036 232.521476 
L 236.771036 232.521476 
L 236.771036 232.521476 
L 236.771036 232.521476 
L 236.771036 232.521476 
L 236.771036 232.521476 
L 236.771036 232.521476 
L 236.771036 232.521476 
L 236.771036 232.521476 
L 236.771036 232.521476 
L 236.771036 232.521476 
L 236.771036 232.521476 
L 236.771036 232.521476 
L 236.771036 232.521476 
L 236.771036 232.521476 
L 236.771036 232.521476 
L 236.771036 232.521476 
L 236.771036 232.521476 
z
" style="stroke:#000000;stroke-linejoin:miter;"/>
   </g>
   <g id="text_1">
    <!-- t = 9.4 -->
    <defs>
     <path d="M 18.3125 70.21875 
L 18.3125 54.6875 
L 36.8125 54.6875 
L 36.8125 47.703125 
L 18.3125 47.703125 
L 18.3125 18.015625 
Q 18.3125 11.328125 20.140625 9.421875 
Q 21.96875 7.515625 27.59375 7.515625 
L 36.8125 7.515625 
L 36.8125 0 
L 27.59375 0 
Q 17.1875 0 13.234375 3.875 
Q 9.28125 7.765625 9.28125 18.015625 
L 9.28125 47.703125 
L 2.6875 47.703125 
L 2.6875 54.6875 
L 9.28125 54.6875 
L 9.28125 70.21875 
z
" id="DejaVuSans-116"/>
     <path id="DejaVuSans-32"/>
     <path d="M 10.59375 45.40625 
L 73.1875 45.40625 
L 73.1875 37.203125 
L 10.59375 37.203125 
z
M 10.59375 25.484375 
L 73.1875 25.484375 
L 73.1875 17.1875 
L 10.59375 17.1875 
z
" id="DejaVuSans-61"/>
     <path d="M 10.984375 1.515625 
L 10.984375 10.5 
Q 14.703125 8.734375 18.5 7.8125 
Q 22.3125 6.890625 25.984375 6.890625 
Q 35.75 6.890625 40.890625 13.453125 
Q 46.046875 20.015625 46.78125 33.40625 
Q 43.953125 29.203125 39.59375 26.953125 
Q 35.25 24.703125 29.984375 24.703125 
Q 19.046875 24.703125 12.671875 31.3125 
Q 6.296875 37.9375 6.296875 49.421875 
Q 6.296875 60.640625 12.9375 67.421875 
Q 19.578125 74.21875 30.609375 74.21875 
Q 43.265625 74.21875 49.921875 64.515625 
Q 56.59375 54.828125 56.59375 36.375 
Q 56.59375 19.140625 48.40625 8.859375 
Q 40.234375 -1.421875 26.421875 -1.421875 
Q 22.703125 -1.421875 18.890625 -0.6875 
Q 15.09375 0.046875 10.984375 1.515625 
z
M 30.609375 32.421875 
Q 37.25 32.421875 41.125 36.953125 
Q 45.015625 41.5 45.015625 49.421875 
Q 45.015625 57.28125 41.125 61.84375 
Q 37.25 66.40625 30.609375 66.40625 
Q 23.96875 66.40625 20.09375 61.84375 
Q 16.21875 57.28125 16.21875 49.421875 
Q 16.21875 41.5 20.09375 36.953125 
Q 23.96875 32.421875 30.609375 32.421875 
z
" id="DejaVuSans-57"/>
     <path d="M 10.6875 12.40625 
L 21 12.40625 
L 21 0 
L 10.6875 0 
z
" id="DejaVuSans-46"/>
     <path d="M 37.796875 64.3125 
L 12.890625 25.390625 
L 37.796875 25.390625 
z
M 35.203125 72.90625 
L 47.609375 72.90625 
L 47.609375 25.390625 
L 58.015625 25.390625 
L 58.015625 17.1875 
L 47.609375 17.1875 
L 47.609375 0 
L 37.796875 0 
L 37.796875 17.1875 
L 4.890625 17.1875 
L 4.890625 26.703125 
z
" id="DejaVuSans-52"/>
    </defs>
    <g transform="translate(215.424375 49.296)scale(0.12 -0.12)">
     <use xlink:href="#DejaVuSans-116"/>
     <use x="39.208984" xlink:href="#DejaVuSans-32"/>
     <use x="70.996094" xlink:href="#DejaVuSans-61"/>
     <use x="154.785156" xlink:href="#DejaVuSans-32"/>
     <use x="186.572266" xlink:href="#DejaVuSans-57"/>
     <use x="250.195312" xlink:href="#DejaVuSans-46"/>
     <use x="281.982422" xlink:href="#DejaVuSans-52"/>
    </g>
   </g>
  </g>
 </g>
 <defs>
  <clipPath id="p2c3e2ef123">
   <rect height="354.816" width="357.12" x="57.6" y="55.296"/>
  </clipPath>
 </defs>
</svg>
