<?xml version="1.0" encoding="utf-8" standalone="no"?>
<!DOCTYPE svg PUBLIC "-//W3C//DTD SVG 1.1//EN"
  "http://www.w3.org/Graphics/SVG/1.1/DTD/svg11.dtd">
<svg xmlns:xlink="http://www.w3.org/1999/xlink" width="460.8pt" height="345.6pt" viewBox="0 0 460.8 345.6" xmlns="http://www.w3.org/2000/svg" version="1.1">
 <metadata>
  <rdf:RDF xmlns:dc="http://purl.org/dc/elements/1.1/" xmlns:cc="http://creativecommons.org/ns#" xmlns:rdf="http://www.w3.org/1999/02/22-rdf-syntax-ns#">
   <cc:Work>
    <dc:type rdf:resource="http://purl.org/dc/dcmitype/StillImage"/>
    <dc:date>2023-04-27T10:33:01.613860</dc:date>
    <dc:format>image/svg+xml</dc:format>
    <dc:creator>
     <cc:Agent>
      <dc:title>Matplotlib v3.7.0, https://matplotlib.org/</dc:title>
     </cc:Agent>
    </dc:creator>
   </cc:Work>
  </rdf:RDF>
 </metadata>
 <defs>
  <style type="text/css">*{stroke-linejoin: round; stroke-linecap: butt}</style>
 </defs>
 <g id="figure_1">
  <g id="patch_1">
   <path d="M 0 345.6 
L 460.8 345.6 
L 460.8 0 
L 0 0 
z
" style="fill: #ffffff"/>
  </g>
  <g id="axes_1">
   <g id="patch_2">
    <path d="M 73.832727 248.448 
L 77.079273 248.448 
L 77.079273 248.388864 
L 73.832727 248.388864 
z
" clip-path="url(#pb22706971b)" style="fill: #0000ff"/>
   </g>
   <g id="patch_3">
    <path d="M 77.079273 248.448 
L 80.325818 248.448 
L 80.325818 248.329728 
L 77.079273 248.329728 
z
" clip-path="url(#pb22706971b)" style="fill: #0000ff"/>
   </g>
   <g id="patch_4">
    <path d="M 80.325818 248.448 
L 83.572364 248.448 
L 83.572364 248.448 
L 80.325818 248.448 
z
" clip-path="url(#pb22706971b)" style="fill: #0000ff"/>
   </g>
   <g id="patch_5">
    <path d="M 83.572364 248.448 
L 86.818909 248.448 
L 86.818909 248.15232 
L 83.572364 248.15232 
z
" clip-path="url(#pb22706971b)" style="fill: #0000ff"/>
   </g>
   <g id="patch_6">
    <path d="M 86.818909 248.448 
L 90.065455 248.448 
L 90.065455 248.329728 
L 86.818909 248.329728 
z
" clip-path="url(#pb22706971b)" style="fill: #0000ff"/>
   </g>
   <g id="patch_7">
    <path d="M 90.065455 248.448 
L 93.312 248.448 
L 93.312 248.388864 
L 90.065455 248.388864 
z
" clip-path="url(#pb22706971b)" style="fill: #0000ff"/>
   </g>
   <g id="patch_8">
    <path d="M 93.312 248.448 
L 96.558545 248.448 
L 96.558545 248.270592 
L 93.312 248.270592 
z
" clip-path="url(#pb22706971b)" style="fill: #0000ff"/>
   </g>
   <g id="patch_9">
    <path d="M 96.558545 248.448 
L 99.805091 248.448 
L 99.805091 248.329728 
L 96.558545 248.329728 
z
" clip-path="url(#pb22706971b)" style="fill: #0000ff"/>
   </g>
   <g id="patch_10">
    <path d="M 99.805091 248.448 
L 103.051636 248.448 
L 103.051636 248.388864 
L 99.805091 248.388864 
z
" clip-path="url(#pb22706971b)" style="fill: #0000ff"/>
   </g>
   <g id="patch_11">
    <path d="M 103.051636 248.448 
L 106.298182 248.448 
L 106.298182 248.329728 
L 103.051636 248.329728 
z
" clip-path="url(#pb22706971b)" style="fill: #0000ff"/>
   </g>
   <g id="patch_12">
    <path d="M 106.298182 248.448 
L 109.544727 248.448 
L 109.544727 248.388864 
L 106.298182 248.388864 
z
" clip-path="url(#pb22706971b)" style="fill: #0000ff"/>
   </g>
   <g id="patch_13">
    <path d="M 109.544727 248.448 
L 112.791273 248.448 
L 112.791273 248.388864 
L 109.544727 248.388864 
z
" clip-path="url(#pb22706971b)" style="fill: #0000ff"/>
   </g>
   <g id="patch_14">
    <path d="M 112.791273 248.448 
L 116.037818 248.448 
L 116.037818 248.329728 
L 112.791273 248.329728 
z
" clip-path="url(#pb22706971b)" style="fill: #0000ff"/>
   </g>
   <g id="patch_15">
    <path d="M 116.037818 248.448 
L 119.284364 248.448 
L 119.284364 248.329728 
L 116.037818 248.329728 
z
" clip-path="url(#pb22706971b)" style="fill: #0000ff"/>
   </g>
   <g id="patch_16">
    <path d="M 119.284364 248.448 
L 122.530909 248.448 
L 122.530909 248.329728 
L 119.284364 248.329728 
z
" clip-path="url(#pb22706971b)" style="fill: #0000ff"/>
   </g>
   <g id="patch_17">
    <path d="M 122.530909 248.448 
L 125.777455 248.448 
L 125.777455 248.270592 
L 122.530909 248.270592 
z
" clip-path="url(#pb22706971b)" style="fill: #0000ff"/>
   </g>
   <g id="patch_18">
    <path d="M 125.777455 248.448 
L 129.024 248.448 
L 129.024 248.034048 
L 125.777455 248.034048 
z
" clip-path="url(#pb22706971b)" style="fill: #0000ff"/>
   </g>
   <g id="patch_19">
    <path d="M 129.024 248.448 
L 132.270545 248.448 
L 132.270545 248.15232 
L 129.024 248.15232 
z
" clip-path="url(#pb22706971b)" style="fill: #0000ff"/>
   </g>
   <g id="patch_20">
    <path d="M 132.270545 248.448 
L 135.517091 248.448 
L 135.517091 248.093184 
L 132.270545 248.093184 
z
" clip-path="url(#pb22706971b)" style="fill: #0000ff"/>
   </g>
   <g id="patch_21">
    <path d="M 135.517091 248.448 
L 138.763636 248.448 
L 138.763636 248.15232 
L 135.517091 248.15232 
z
" clip-path="url(#pb22706971b)" style="fill: #0000ff"/>
   </g>
   <g id="patch_22">
    <path d="M 138.763636 248.448 
L 142.010182 248.448 
L 142.010182 248.034048 
L 138.763636 248.034048 
z
" clip-path="url(#pb22706971b)" style="fill: #0000ff"/>
   </g>
   <g id="patch_23">
    <path d="M 142.010182 248.448 
L 145.256727 248.448 
L 145.256727 248.034048 
L 142.010182 248.034048 
z
" clip-path="url(#pb22706971b)" style="fill: #0000ff"/>
   </g>
   <g id="patch_24">
    <path d="M 145.256727 248.448 
L 148.503273 248.448 
L 148.503273 247.797504 
L 145.256727 247.797504 
z
" clip-path="url(#pb22706971b)" style="fill: #0000ff"/>
   </g>
   <g id="patch_25">
    <path d="M 148.503273 248.448 
L 151.749818 248.448 
L 151.749818 247.620096 
L 148.503273 247.620096 
z
" clip-path="url(#pb22706971b)" style="fill: #0000ff"/>
   </g>
   <g id="patch_26">
    <path d="M 151.749818 248.448 
L 154.996364 248.448 
L 154.996364 247.620096 
L 151.749818 247.620096 
z
" clip-path="url(#pb22706971b)" style="fill: #0000ff"/>
   </g>
   <g id="patch_27">
    <path d="M 154.996364 248.448 
L 158.242909 248.448 
L 158.242909 247.738368 
L 154.996364 247.738368 
z
" clip-path="url(#pb22706971b)" style="fill: #0000ff"/>
   </g>
   <g id="patch_28">
    <path d="M 158.242909 248.448 
L 161.489455 248.448 
L 161.489455 247.442688 
L 158.242909 247.442688 
z
" clip-path="url(#pb22706971b)" style="fill: #0000ff"/>
   </g>
   <g id="patch_29">
    <path d="M 161.489455 248.448 
L 164.736 248.448 
L 164.736 247.26528 
L 161.489455 247.26528 
z
" clip-path="url(#pb22706971b)" style="fill: #0000ff"/>
   </g>
   <g id="patch_30">
    <path d="M 164.736 248.448 
L 167.982545 248.448 
L 167.982545 246.9696 
L 164.736 246.9696 
z
" clip-path="url(#pb22706971b)" style="fill: #0000ff"/>
   </g>
   <g id="patch_31">
    <path d="M 167.982545 248.448 
L 171.229091 248.448 
L 171.229091 246.792192 
L 167.982545 246.792192 
z
" clip-path="url(#pb22706971b)" style="fill: #0000ff"/>
   </g>
   <g id="patch_32">
    <path d="M 171.229091 248.448 
L 174.475636 248.448 
L 174.475636 246.851328 
L 171.229091 246.851328 
z
" clip-path="url(#pb22706971b)" style="fill: #0000ff"/>
   </g>
   <g id="patch_33">
    <path d="M 174.475636 248.448 
L 177.722182 248.448 
L 177.722182 246.496512 
L 174.475636 246.496512 
z
" clip-path="url(#pb22706971b)" style="fill: #0000ff"/>
   </g>
   <g id="patch_34">
    <path d="M 177.722182 248.448 
L 180.968727 248.448 
L 180.968727 245.964288 
L 177.722182 245.964288 
z
" clip-path="url(#pb22706971b)" style="fill: #0000ff"/>
   </g>
   <g id="patch_35">
    <path d="M 180.968727 248.448 
L 184.215273 248.448 
L 184.215273 245.905152 
L 180.968727 245.905152 
z
" clip-path="url(#pb22706971b)" style="fill: #0000ff"/>
   </g>
   <g id="patch_36">
    <path d="M 184.215273 248.448 
L 187.461818 248.448 
L 187.461818 245.432064 
L 184.215273 245.432064 
z
" clip-path="url(#pb22706971b)" style="fill: #0000ff"/>
   </g>
   <g id="patch_37">
    <path d="M 187.461818 248.448 
L 190.708364 248.448 
L 190.708364 244.663296 
L 187.461818 244.663296 
z
" clip-path="url(#pb22706971b)" style="fill: #0000ff"/>
   </g>
   <g id="patch_38">
    <path d="M 190.708364 248.448 
L 193.954909 248.448 
L 193.954909 244.30848 
L 190.708364 244.30848 
z
" clip-path="url(#pb22706971b)" style="fill: #0000ff"/>
   </g>
   <g id="patch_39">
    <path d="M 193.954909 248.448 
L 197.201455 248.448 
L 197.201455 242.948352 
L 193.954909 242.948352 
z
" clip-path="url(#pb22706971b)" style="fill: #0000ff"/>
   </g>
   <g id="patch_40">
    <path d="M 197.201455 248.448 
L 200.448 248.448 
L 200.448 243.42144 
L 197.201455 243.42144 
z
" clip-path="url(#pb22706971b)" style="fill: #0000ff"/>
   </g>
   <g id="patch_41">
    <path d="M 200.448 248.448 
L 203.694545 248.448 
L 203.694545 242.770944 
L 200.448 242.770944 
z
" clip-path="url(#pb22706971b)" style="fill: #0000ff"/>
   </g>
   <g id="patch_42">
    <path d="M 203.694545 248.448 
L 206.941091 248.448 
L 206.941091 241.529088 
L 203.694545 241.529088 
z
" clip-path="url(#pb22706971b)" style="fill: #0000ff"/>
   </g>
   <g id="patch_43">
    <path d="M 206.941091 248.448 
L 210.187636 248.448 
L 210.187636 241.588224 
L 206.941091 241.588224 
z
" clip-path="url(#pb22706971b)" style="fill: #0000ff"/>
   </g>
   <g id="patch_44">
    <path d="M 210.187636 248.448 
L 213.434182 248.448 
L 213.434182 239.814144 
L 210.187636 239.814144 
z
" clip-path="url(#pb22706971b)" style="fill: #0000ff"/>
   </g>
   <g id="patch_45">
    <path d="M 213.434182 248.448 
L 216.680727 248.448 
L 216.680727 239.222784 
L 213.434182 239.222784 
z
" clip-path="url(#pb22706971b)" style="fill: #0000ff"/>
   </g>
   <g id="patch_46">
    <path d="M 216.680727 248.448 
L 219.927273 248.448 
L 219.927273 238.513152 
L 216.680727 238.513152 
z
" clip-path="url(#pb22706971b)" style="fill: #0000ff"/>
   </g>
   <g id="patch_47">
    <path d="M 219.927273 248.448 
L 223.173818 248.448 
L 223.173818 236.384256 
L 219.927273 236.384256 
z
" clip-path="url(#pb22706971b)" style="fill: #0000ff"/>
   </g>
   <g id="patch_48">
    <path d="M 223.173818 248.448 
L 226.420364 248.448 
L 226.420364 236.443392 
L 223.173818 236.443392 
z
" clip-path="url(#pb22706971b)" style="fill: #0000ff"/>
   </g>
   <g id="patch_49">
    <path d="M 226.420364 248.448 
L 229.666909 248.448 
L 229.666909 236.975616 
L 226.420364 236.975616 
z
" clip-path="url(#pb22706971b)" style="fill: #0000ff"/>
   </g>
   <g id="patch_50">
    <path d="M 229.666909 248.448 
L 232.913455 248.448 
L 232.913455 236.206848 
L 229.666909 236.206848 
z
" clip-path="url(#pb22706971b)" style="fill: #0000ff"/>
   </g>
   <g id="patch_51">
    <path d="M 232.913455 248.448 
L 236.16 248.448 
L 236.16 236.32512 
L 232.913455 236.32512 
z
" clip-path="url(#pb22706971b)" style="fill: #0000ff"/>
   </g>
   <g id="patch_52">
    <path d="M 236.16 248.448 
L 239.406545 248.448 
L 239.406545 234.905856 
L 236.16 234.905856 
z
" clip-path="url(#pb22706971b)" style="fill: #0000ff"/>
   </g>
   <g id="patch_53">
    <path d="M 239.406545 248.448 
L 242.653091 248.448 
L 242.653091 234.491904 
L 239.406545 234.491904 
z
" clip-path="url(#pb22706971b)" style="fill: #0000ff"/>
   </g>
   <g id="patch_54">
    <path d="M 242.653091 248.448 
L 245.899636 248.448 
L 245.899636 237.153024 
L 242.653091 237.153024 
z
" clip-path="url(#pb22706971b)" style="fill: #0000ff"/>
   </g>
   <g id="patch_55">
    <path d="M 245.899636 248.448 
L 249.146182 248.448 
L 249.146182 236.502528 
L 245.899636 236.502528 
z
" clip-path="url(#pb22706971b)" style="fill: #0000ff"/>
   </g>
   <g id="patch_56">
    <path d="M 249.146182 248.448 
L 252.392727 248.448 
L 252.392727 236.502528 
L 249.146182 236.502528 
z
" clip-path="url(#pb22706971b)" style="fill: #0000ff"/>
   </g>
   <g id="patch_57">
    <path d="M 252.392727 248.448 
L 255.639273 248.448 
L 255.639273 238.749696 
L 252.392727 238.749696 
z
" clip-path="url(#pb22706971b)" style="fill: #0000ff"/>
   </g>
   <g id="patch_58">
    <path d="M 255.639273 248.448 
L 258.885818 248.448 
L 258.885818 239.459328 
L 255.639273 239.459328 
z
" clip-path="url(#pb22706971b)" style="fill: #0000ff"/>
   </g>
   <g id="patch_59">
    <path d="M 258.885818 248.448 
L 262.132364 248.448 
L 262.132364 240.228096 
L 258.885818 240.228096 
z
" clip-path="url(#pb22706971b)" style="fill: #0000ff"/>
   </g>
   <g id="patch_60">
    <path d="M 262.132364 248.448 
L 265.378909 248.448 
L 265.378909 240.287232 
L 262.132364 240.287232 
z
" clip-path="url(#pb22706971b)" style="fill: #0000ff"/>
   </g>
   <g id="patch_61">
    <path d="M 265.378909 248.448 
L 268.625455 248.448 
L 268.625455 241.883904 
L 265.378909 241.883904 
z
" clip-path="url(#pb22706971b)" style="fill: #0000ff"/>
   </g>
   <g id="patch_62">
    <path d="M 268.625455 248.448 
L 271.872 248.448 
L 271.872 243.362304 
L 268.625455 243.362304 
z
" clip-path="url(#pb22706971b)" style="fill: #0000ff"/>
   </g>
   <g id="patch_63">
    <path d="M 271.872 248.448 
L 275.118545 248.448 
L 275.118545 244.249344 
L 271.872 244.249344 
z
" clip-path="url(#pb22706971b)" style="fill: #0000ff"/>
   </g>
   <g id="patch_64">
    <path d="M 275.118545 248.448 
L 278.365091 248.448 
L 278.365091 243.835392 
L 275.118545 243.835392 
z
" clip-path="url(#pb22706971b)" style="fill: #0000ff"/>
   </g>
   <g id="patch_65">
    <path d="M 278.365091 248.448 
L 281.611636 248.448 
L 281.611636 244.190208 
L 278.365091 244.190208 
z
" clip-path="url(#pb22706971b)" style="fill: #0000ff"/>
   </g>
   <g id="patch_66">
    <path d="M 281.611636 248.448 
L 284.858182 248.448 
L 284.858182 245.372928 
L 281.611636 245.372928 
z
" clip-path="url(#pb22706971b)" style="fill: #0000ff"/>
   </g>
   <g id="patch_67">
    <path d="M 284.858182 248.448 
L 288.104727 248.448 
L 288.104727 246.141696 
L 284.858182 246.141696 
z
" clip-path="url(#pb22706971b)" style="fill: #0000ff"/>
   </g>
   <g id="patch_68">
    <path d="M 288.104727 248.448 
L 291.351273 248.448 
L 291.351273 245.78688 
L 288.104727 245.78688 
z
" clip-path="url(#pb22706971b)" style="fill: #0000ff"/>
   </g>
   <g id="patch_69">
    <path d="M 291.351273 248.448 
L 294.597818 248.448 
L 294.597818 246.023424 
L 291.351273 246.023424 
z
" clip-path="url(#pb22706971b)" style="fill: #0000ff"/>
   </g>
   <g id="patch_70">
    <path d="M 294.597818 248.448 
L 297.844364 248.448 
L 297.844364 246.555648 
L 294.597818 246.555648 
z
" clip-path="url(#pb22706971b)" style="fill: #0000ff"/>
   </g>
   <g id="patch_71">
    <path d="M 297.844364 248.448 
L 301.090909 248.448 
L 301.090909 246.9696 
L 297.844364 246.9696 
z
" clip-path="url(#pb22706971b)" style="fill: #0000ff"/>
   </g>
   <g id="patch_72">
    <path d="M 301.090909 248.448 
L 304.337455 248.448 
L 304.337455 247.206144 
L 301.090909 247.206144 
z
" clip-path="url(#pb22706971b)" style="fill: #0000ff"/>
   </g>
   <g id="patch_73">
    <path d="M 304.337455 248.448 
L 307.584 248.448 
L 307.584 247.679232 
L 304.337455 247.679232 
z
" clip-path="url(#pb22706971b)" style="fill: #0000ff"/>
   </g>
   <g id="patch_74">
    <path d="M 307.584 248.448 
L 310.830545 248.448 
L 310.830545 247.324416 
L 307.584 247.324416 
z
" clip-path="url(#pb22706971b)" style="fill: #0000ff"/>
   </g>
   <g id="patch_75">
    <path d="M 310.830545 248.448 
L 314.077091 248.448 
L 314.077091 247.383552 
L 310.830545 247.383552 
z
" clip-path="url(#pb22706971b)" style="fill: #0000ff"/>
   </g>
   <g id="patch_76">
    <path d="M 314.077091 248.448 
L 317.323636 248.448 
L 317.323636 247.797504 
L 314.077091 247.797504 
z
" clip-path="url(#pb22706971b)" style="fill: #0000ff"/>
   </g>
   <g id="patch_77">
    <path d="M 317.323636 248.448 
L 320.570182 248.448 
L 320.570182 248.093184 
L 317.323636 248.093184 
z
" clip-path="url(#pb22706971b)" style="fill: #0000ff"/>
   </g>
   <g id="patch_78">
    <path d="M 320.570182 248.448 
L 323.816727 248.448 
L 323.816727 247.915776 
L 320.570182 247.915776 
z
" clip-path="url(#pb22706971b)" style="fill: #0000ff"/>
   </g>
   <g id="patch_79">
    <path d="M 323.816727 248.448 
L 327.063273 248.448 
L 327.063273 248.093184 
L 323.816727 248.093184 
z
" clip-path="url(#pb22706971b)" style="fill: #0000ff"/>
   </g>
   <g id="patch_80">
    <path d="M 327.063273 248.448 
L 330.309818 248.448 
L 330.309818 248.329728 
L 327.063273 248.329728 
z
" clip-path="url(#pb22706971b)" style="fill: #0000ff"/>
   </g>
   <g id="patch_81">
    <path d="M 330.309818 248.448 
L 333.556364 248.448 
L 333.556364 248.211456 
L 330.309818 248.211456 
z
" clip-path="url(#pb22706971b)" style="fill: #0000ff"/>
   </g>
   <g id="patch_82">
    <path d="M 333.556364 248.448 
L 336.802909 248.448 
L 336.802909 248.211456 
L 333.556364 248.211456 
z
" clip-path="url(#pb22706971b)" style="fill: #0000ff"/>
   </g>
   <g id="patch_83">
    <path d="M 336.802909 248.448 
L 340.049455 248.448 
L 340.049455 248.211456 
L 336.802909 248.211456 
z
" clip-path="url(#pb22706971b)" style="fill: #0000ff"/>
   </g>
   <g id="patch_84">
    <path d="M 340.049455 248.448 
L 343.296 248.448 
L 343.296 248.093184 
L 340.049455 248.093184 
z
" clip-path="url(#pb22706971b)" style="fill: #0000ff"/>
   </g>
   <g id="patch_85">
    <path d="M 343.296 248.448 
L 346.542545 248.448 
L 346.542545 248.093184 
L 343.296 248.093184 
z
" clip-path="url(#pb22706971b)" style="fill: #0000ff"/>
   </g>
   <g id="patch_86">
    <path d="M 346.542545 248.448 
L 349.789091 248.448 
L 349.789091 248.211456 
L 346.542545 248.211456 
z
" clip-path="url(#pb22706971b)" style="fill: #0000ff"/>
   </g>
   <g id="patch_87">
    <path d="M 349.789091 248.448 
L 353.035636 248.448 
L 353.035636 248.388864 
L 349.789091 248.388864 
z
" clip-path="url(#pb22706971b)" style="fill: #0000ff"/>
   </g>
   <g id="patch_88">
    <path d="M 353.035636 248.448 
L 356.282182 248.448 
L 356.282182 248.329728 
L 353.035636 248.329728 
z
" clip-path="url(#pb22706971b)" style="fill: #0000ff"/>
   </g>
   <g id="patch_89">
    <path d="M 356.282182 248.448 
L 359.528727 248.448 
L 359.528727 248.329728 
L 356.282182 248.329728 
z
" clip-path="url(#pb22706971b)" style="fill: #0000ff"/>
   </g>
   <g id="patch_90">
    <path d="M 359.528727 248.448 
L 362.775273 248.448 
L 362.775273 248.093184 
L 359.528727 248.093184 
z
" clip-path="url(#pb22706971b)" style="fill: #0000ff"/>
   </g>
   <g id="patch_91">
    <path d="M 362.775273 248.448 
L 366.021818 248.448 
L 366.021818 248.211456 
L 362.775273 248.211456 
z
" clip-path="url(#pb22706971b)" style="fill: #0000ff"/>
   </g>
   <g id="patch_92">
    <path d="M 366.021818 248.448 
L 369.268364 248.448 
L 369.268364 248.329728 
L 366.021818 248.329728 
z
" clip-path="url(#pb22706971b)" style="fill: #0000ff"/>
   </g>
   <g id="patch_93">
    <path d="M 369.268364 248.448 
L 372.514909 248.448 
L 372.514909 248.270592 
L 369.268364 248.270592 
z
" clip-path="url(#pb22706971b)" style="fill: #0000ff"/>
   </g>
   <g id="patch_94">
    <path d="M 372.514909 248.448 
L 375.761455 248.448 
L 375.761455 248.448 
L 372.514909 248.448 
z
" clip-path="url(#pb22706971b)" style="fill: #0000ff"/>
   </g>
   <g id="patch_95">
    <path d="M 375.761455 248.448 
L 379.008 248.448 
L 379.008 248.329728 
L 375.761455 248.329728 
z
" clip-path="url(#pb22706971b)" style="fill: #0000ff"/>
   </g>
   <g id="patch_96">
    <path d="M 379.008 248.448 
L 382.254545 248.448 
L 382.254545 248.329728 
L 379.008 248.329728 
z
" clip-path="url(#pb22706971b)" style="fill: #0000ff"/>
   </g>
   <g id="patch_97">
    <path d="M 382.254545 248.448 
L 385.501091 248.448 
L 385.501091 248.388864 
L 382.254545 248.388864 
z
" clip-path="url(#pb22706971b)" style="fill: #0000ff"/>
   </g>
   <g id="patch_98">
    <path d="M 385.501091 248.448 
L 388.747636 248.448 
L 388.747636 248.448 
L 385.501091 248.448 
z
" clip-path="url(#pb22706971b)" style="fill: #0000ff"/>
   </g>
   <g id="patch_99">
    <path d="M 388.747636 248.448 
L 391.994182 248.448 
L 391.994182 248.270592 
L 388.747636 248.270592 
z
" clip-path="url(#pb22706971b)" style="fill: #0000ff"/>
   </g>
   <g id="patch_100">
    <path d="M 391.994182 248.448 
L 395.240727 248.448 
L 395.240727 248.388864 
L 391.994182 248.388864 
z
" clip-path="url(#pb22706971b)" style="fill: #0000ff"/>
   </g>
   <g id="patch_101">
    <path d="M 395.240727 248.448 
L 398.487273 248.448 
L 398.487273 248.329728 
L 395.240727 248.329728 
z
" clip-path="url(#pb22706971b)" style="fill: #0000ff"/>
   </g>
   <g id="line2d_1">
    <path d="M 117.570355 346.6 
L 119.743471 338.133081 
L 123.02281 326.186902 
L 126.302149 315.048137 
L 129.581488 304.693384 
L 132.860826 295.09924 
L 136.140165 286.2423 
L 139.419504 278.099161 
L 142.698843 270.646421 
L 145.978182 263.860675 
L 149.257521 257.718521 
L 152.53686 252.196555 
L 155.816198 247.271373 
L 159.095537 242.919574 
L 162.374876 239.117752 
L 165.654215 235.842505 
L 168.933554 233.07043 
L 172.212893 230.778123 
L 175.492231 228.942181 
L 178.77157 227.5392 
L 182.050909 226.545778 
L 185.330248 225.93851 
L 188.609587 225.693994 
L 191.888926 225.788826 
L 195.168264 226.199604 
L 198.447603 226.902922 
L 201.726942 227.875379 
L 205.006281 229.093571 
L 208.28562 230.534095 
L 211.564959 232.173546 
L 214.844298 233.988523 
L 218.123636 235.955621 
L 221.402975 238.051438 
L 224.682314 240.25257 
L 227.961653 242.535613 
L 231.240992 244.877164 
L 234.520331 247.253821 
L 237.799669 249.642179 
L 241.079008 252.018836 
L 244.358347 254.360387 
L 247.637686 256.64343 
L 250.917025 258.844562 
L 254.196364 260.940379 
L 257.475702 262.907477 
L 260.755041 264.722454 
L 264.03438 266.361905 
L 267.313719 267.802429 
L 270.593058 269.020621 
L 273.872397 269.993078 
L 277.151736 270.696396 
L 280.431074 271.107174 
L 283.710413 271.202006 
L 286.989752 270.95749 
L 290.269091 270.350222 
L 293.54843 269.3568 
L 296.827769 267.953819 
L 300.107107 266.117877 
L 303.386446 263.82557 
L 306.665785 261.053495 
L 309.945124 257.778248 
L 313.224463 253.976426 
L 316.503802 249.624627 
L 319.78314 244.699445 
L 323.062479 239.177479 
L 326.341818 233.035325 
L 329.621157 226.249579 
L 332.900496 218.796839 
L 336.179835 210.6537 
L 339.459174 201.79676 
L 342.738512 192.202616 
L 346.017851 181.847863 
L 349.29719 170.709098 
L 352.576529 158.762919 
L 355.855868 145.985922 
L 359.135207 132.354703 
L 362.414545 117.84586 
L 365.693884 102.435989 
L 368.973223 86.101686 
L 372.252562 68.819548 
L 375.531901 50.566173 
L 378.81124 31.318156 
L 382.090579 11.052095 
L 383.94546 -1 
" clip-path="url(#pb22706971b)" style="fill: none; stroke: #000000; stroke-width: 2; stroke-linecap: square"/>
   </g>
   <g id="text_1">
    <!-- t = 17.0 -->
    <g transform="translate(211.606875 35.472) scale(0.12 -0.12)">
     <defs>
      <path id="DejaVuSans-74" d="M 1172 4494 
L 1172 3500 
L 2356 3500 
L 2356 3053 
L 1172 3053 
L 1172 1153 
Q 1172 725 1289 603 
Q 1406 481 1766 481 
L 2356 481 
L 2356 0 
L 1766 0 
Q 1100 0 847 248 
Q 594 497 594 1153 
L 594 3053 
L 172 3053 
L 172 3500 
L 594 3500 
L 594 4494 
L 1172 4494 
z
" transform="scale(0.015625)"/>
      <path id="DejaVuSans-20" transform="scale(0.015625)"/>
      <path id="DejaVuSans-3d" d="M 678 2906 
L 4684 2906 
L 4684 2381 
L 678 2381 
L 678 2906 
z
M 678 1631 
L 4684 1631 
L 4684 1100 
L 678 1100 
L 678 1631 
z
" transform="scale(0.015625)"/>
      <path id="DejaVuSans-31" d="M 794 531 
L 1825 531 
L 1825 4091 
L 703 3866 
L 703 4441 
L 1819 4666 
L 2450 4666 
L 2450 531 
L 3481 531 
L 3481 0 
L 794 0 
L 794 531 
z
" transform="scale(0.015625)"/>
      <path id="DejaVuSans-37" d="M 525 4666 
L 3525 4666 
L 3525 4397 
L 1831 0 
L 1172 0 
L 2766 4134 
L 525 4134 
L 525 4666 
z
" transform="scale(0.015625)"/>
      <path id="DejaVuSans-2e" d="M 684 794 
L 1344 794 
L 1344 0 
L 684 0 
L 684 794 
z
" transform="scale(0.015625)"/>
      <path id="DejaVuSans-30" d="M 2034 4250 
Q 1547 4250 1301 3770 
Q 1056 3291 1056 2328 
Q 1056 1369 1301 889 
Q 1547 409 2034 409 
Q 2525 409 2770 889 
Q 3016 1369 3016 2328 
Q 3016 3291 2770 3770 
Q 2525 4250 2034 4250 
z
M 2034 4750 
Q 2819 4750 3233 4129 
Q 3647 3509 3647 2328 
Q 3647 1150 3233 529 
Q 2819 -91 2034 -91 
Q 1250 -91 836 529 
Q 422 1150 422 2328 
Q 422 3509 836 4129 
Q 1250 4750 2034 4750 
z
" transform="scale(0.015625)"/>
     </defs>
     <use xlink:href="#DejaVuSans-74"/>
     <use xlink:href="#DejaVuSans-20" x="39.208984"/>
     <use xlink:href="#DejaVuSans-3d" x="70.996094"/>
     <use xlink:href="#DejaVuSans-20" x="154.785156"/>
     <use xlink:href="#DejaVuSans-31" x="186.572266"/>
     <use xlink:href="#DejaVuSans-37" x="250.195312"/>
     <use xlink:href="#DejaVuSans-2e" x="313.818359"/>
     <use xlink:href="#DejaVuSans-30" x="345.605469"/>
    </g>
   </g>
  </g>
 </g>
 <defs>
  <clipPath id="pb22706971b">
   <rect x="57.6" y="41.472" width="357.12" height="266.112"/>
  </clipPath>
 </defs>
</svg>
